<svg version="1.1" xmlns="http://www.w3.org/2000/svg" xmlns:xlink="http://www.w3.org/1999/xlink" width="282.39289" height="80.5" viewBox="0,0,282.39289,80.5"><defs><radialGradient cx="183.5425" cy="194.73066" r="4.2254" gradientUnits="userSpaceOnUse" id="color-1"><stop offset="0" stop-color="#fbc410"></stop><stop offset="1" stop-color="#fbc410" stop-opacity="0"></stop></radialGradient><radialGradient cx="220.13876" cy="194.43596" r="37.98" gradientUnits="userSpaceOnUse" id="color-2"><stop offset="0" stop-color="#fffbe2"></stop><stop offset="1" stop-color="#fffbe2" stop-opacity="0"></stop></radialGradient></defs><g transform="translate(-171.22049,-138.16295)"><g data-paper-data="{&quot;isPaintingLayer&quot;:true}" fill-rule="nonzero" stroke-linejoin="miter" stroke-miterlimit="10" stroke-dasharray="" stroke-dashoffset="0" style="mix-blend-mode: normal"><path d="M238.9885,217.91295c-21.81525,0 -39.5,-17.68475 -39.5,-39.5c0,-21.81525 17.68475,-39.5 39.5,-39.5c21.81525,0 39.5,17.68475 39.5,39.5c0,21.81525 -17.68475,39.5 -39.5,39.5z" data-paper-data="{&quot;index&quot;:null}" fill="#000000" stroke="#000000" stroke-width="1.5" stroke-linecap="butt"></path><g data-paper-data="{&quot;index&quot;:null}" stroke="none" stroke-width="0" stroke-linecap="butt"><path d="M258.71106,168.50345c7.45315,0 13.49512,5.141 13.49512,5.141c0,0 -6.04197,5.141 -13.49512,5.141c-7.45315,0 -13.49512,-5.141 -13.49512,-5.141c0,0 6.04197,-5.141 13.49512,-5.141z" fill="#ffffff"></path><path d="M259.35368,178.78545c-2.8393,0 -5.141,-2.30171 -5.141,-5.141c0,-2.8393 2.30171,-5.141 5.141,-5.141c2.8393,0 5.141,2.30171 5.141,5.141c0,2.8393 -2.30171,5.141 -5.141,5.141z" fill="#000000"></path></g><g data-paper-data="{&quot;index&quot;:null}" stroke="none" stroke-width="0" stroke-linecap="butt"><path d="M229.03426,168.6195c7.45315,0 13.49512,5.141 13.49512,5.141c0,0 -6.04197,5.141 -13.49512,5.141c-7.45315,0 -13.49512,-5.141 -13.49512,-5.141c0,0 6.04197,-5.141 13.49512,-5.141z" fill="#ffffff"></path><path d="M229.67689,178.9015c-2.8393,0 -5.141,-2.30171 -5.141,-5.141c0,-2.83929 2.30171,-5.141 5.141,-5.141c2.8393,0 5.141,2.30171 5.141,5.141c0,2.8393 -2.30171,5.141 -5.141,5.141z" fill="#000000"></path></g><g><path d="M179.08487,195.12198c-0.12897,-1.40457 1.77147,-2.72729 4.24474,-2.95437c2.47327,-0.22707 4.58281,0.72745 4.71176,2.13204c0.12897,1.40457 -1.77147,2.72729 -4.24476,2.95438c-2.47327,0.22707 -4.58281,-0.72745 -4.71176,-2.13204z" fill="#fbc410" stroke="none" stroke-width="0" stroke-linecap="butt"></path><path d="M179.06426,195.14184c-0.12897,-1.40457 1.77147,-2.72729 4.24474,-2.95437c2.47327,-0.22707 4.58281,0.72745 4.71176,2.13204c0.12897,1.40457 -1.77147,2.72729 -4.24474,2.95437c-2.47327,0.22707 -4.58281,-0.72745 -4.71176,-2.13204z" fill="none" stroke="url(#color-1)" stroke-width="2.5" stroke-linecap="butt"></path><path d="M243.31412,199.05001c0,0 0.2003,-0.4779 0.84383,-0.65961c1.00057,-0.28254 2.68028,-0.34543 3.318,-0.61156c1.0479,-0.4373 -0.61151,-0.11494 -0.11476,0.51353c0.49675,0.62847 3.30256,0.13508 2.25469,0.57238c-0.45065,0.18806 -1.64214,1.10625 -2.89615,1.11419c-1.66191,0.01053 -3.40561,-0.92894 -3.40561,-0.92894z" fill="#43282c" stroke="none" stroke-width="0" stroke-linecap="butt"></path><path d="M243.28482,197.89815c0,0 -0.59483,-0.23574 0.64941,-0.65681c3.30426,-1.11822 3.79443,-0.49922 4.34348,-0.72835c1.29739,-0.54141 -0.62202,-0.38161 -0.06796,0.31939c0.55406,0.70099 2.28513,1.31635 0.98774,1.85777c-0.46281,0.19314 -1.71695,0.59278 -2.66407,0.45438c-1.70792,-0.24954 -3.2486,-1.24637 -3.2486,-1.24637z" fill="#885058" stroke="none" stroke-width="0" stroke-linecap="butt"></path><path d="M242.78452,189.05619c0,0 -0.03443,-0.24758 2.19345,-1.1773c1.2641,-0.52754 4.0777,-0.00948 4.50755,0.5344c0.42988,0.54388 0.3368,0.52882 -0.92732,1.05633c-0.5275,0.22013 -1.29329,-0.01003 -2.38755,-0.12624c-1.52806,-0.16227 -3.38616,-0.28722 -3.38616,-0.28722z" fill="#43282c" stroke="none" stroke-width="0" stroke-linecap="butt"></path><path d="M246.7456,191.63552c-0.13459,-0.17028 -1.2921,-0.10643 -2.23797,-0.30468c-1.02225,-0.21424 -1.83046,-0.69145 -1.75948,-0.8953c0.17301,-0.49683 2.85773,-1.01432 3.57327,-1.31293c1.28076,-0.53448 2.51559,-0.00963 3.15018,0.79328c0.63461,0.8029 2.00368,1.03891 0.72292,1.57339c-1.28076,0.53448 -2.81433,0.94915 -3.44892,0.14624z" fill="#885058" stroke="none" stroke-width="0" stroke-linecap="butt"></path><path d="M249.02538,192.99974c-1.52843,-1.93379 -5.40223,-3.91518 -2.34174,-5.19238c3.06051,-1.27719 15.86727,1.22525 17.39571,3.15904c1.52843,1.93379 -4.57496,0.91973 -7.63546,2.19692c-3.06051,1.27719 -5.89009,1.7702 -7.41852,-0.16357z" fill="#959ba2" stroke="none" stroke-width="0" stroke-linecap="butt"></path><path d="M247.13431,198.13452c-0.06546,-0.38849 0.01985,-0.97649 0.44316,-1.35299c0.72234,-0.64246 2.16439,-1.00379 3.60488,-1.13193c2.28467,-0.20322 4.28037,0.48437 4.45749,1.53578c0.17712,1.0514 -1.53139,2.06847 -3.81606,2.27169c-2.28467,0.20322 -4.51235,-0.27117 -4.68949,-1.32256z" fill="#959ba2" stroke="none" stroke-width="0" stroke-linecap="butt"></path><path d="M259.95937,199.02996l5.55822,-2.49414" fill="none" stroke="#171c22" stroke-width="1" stroke-linecap="round"></path><path d="M265.74307,197.02376c0,0 -5.10769,2.85749 -7.50666,3.43925c-2.37319,0.57552 -7.94617,0.62309 -7.94617,0.62309" fill="none" stroke="#2e3844" stroke-width="1" stroke-linecap="round"></path><path d="M265.30395,194.23859c0.84064,1.06357 -1.78914,3.36583 -5.09916,4.74714c-2.48518,1.0371 -6.29318,1.41671 -8.54719,0.57736c-0.7481,-0.27857 -1.32718,-1.41563 -1.62702,-1.74448c-0.6144,-0.67385 4.51303,-1.88335 6.83653,-2.853c3.30998,-1.38131 7.59616,-1.79058 8.4368,-0.72701z" fill="#171c22" stroke="none" stroke-width="0" stroke-linecap="butt"></path><path d="M250.84099,186.47984c0,0 3.51388,-0.12019 5.70861,0.37059c2.33694,0.52257 7.91314,2.67547 7.91314,2.67547" fill="none" stroke="#2e3844" stroke-width="1.5" stroke-linecap="round"></path><path d="M257.28159,190.09962c-2.7501,-0.56524 -8.02065,-0.62675 -7.10383,-1.81725c0.76693,-0.99587 4.08289,-1.18076 6.83299,-0.61551c2.7501,0.56524 9.21556,2.19197 7.53154,3.6759c-0.65896,0.58066 -4.51064,-0.6779 -7.26072,-1.24315z" fill="#171c22" stroke="none" stroke-width="0" stroke-linecap="butt"></path><path d="M264.8802,192.07111l0.29722,2.88748c0,0 -2.3209,0.97458 -5.32177,1.0624c-4.96626,0.14531 -18.59755,0.40723 -34.87591,0.67968c-3.17204,0.05309 -6.88048,0.13369 -10.29227,0.20306c-4.4261,0.08998 -8.54717,0.16915 -12.35443,0.22881c-11.39881,0.17861 -19.22667,0.22753 -19.22667,0.22753l0.1706,-4.89676c0,0 6.82142,0.05397 15.87181,0.01197c5.39547,-0.02504 11.79741,0.06726 17.23384,0.00097c2.37625,-0.02897 4.46542,-0.21808 6.3777,-0.24259c5.7627,-0.07384 13.24786,0.23002 20.91995,0.04591c5.98758,-0.1437 12.3848,-0.79146 16.22931,-0.79347c3.13794,-0.00163 4.9706,0.58501 4.9706,0.58501z" fill="#6d6d48" stroke="#000e25" stroke-width="1.2" stroke-linecap="butt"></path><path d="M271.07586,194.29314l-84.38392,1.35065" fill="none" stroke="url(#color-2)" stroke-width="1.5" stroke-linecap="round"></path><path d="M442.24125,180.36649l1.6203,0.62562l-2.34059,0.50746l2.65854,0.66079c0,0 -7.84078,1.84098 -9.61009,2.26616c-0.82477,0.19819 -0.55103,0.17566 -0.55103,0.17566l15.0551,1.89012c0,0 -8.68722,1.22597 -11.12667,1.71299c-1.82144,0.36364 -2.20551,0.94869 -2.20551,0.94869l1.70582,0.57156l-0.87942,0.44346l2.08982,1.15372l-1.24408,0.36474l7.9643,2.60249l-6.16356,1.07391l0.65246,1.11109l-1.72942,0.63233l5.36304,0.53627l-2.32313,0.71492l6.33206,1.48235l-11.58753,1.91379l2.53828,1.56422l-17.07101,0.02604l6.95764,2.51168l-23.72936,-2.59588l2.02566,1.79191c0,0 -2.44024,0.77354 -4.94518,0.59145c-1.34923,-0.09808 -3.33384,-1.31314 -6.0303,-1.59895c-0.71953,-0.07626 -2.21004,0.36705 -4.15977,0.2396c-2.02189,-0.13217 -6.46922,-1.48173 -8.82335,-1.70302c-1.13143,-0.10635 -2.61089,0.16352 -3.4621,0.16261c-2.63178,-0.00279 -3.44121,0.06494 -3.44121,0.06494l1.49558,1.71774c0,0 -4.50752,0.20936 -7.43932,-0.01288c-1.13173,-0.08579 -7.46043,-1.1525 -11.52606,-1.62325c-2.27447,-0.26334 -3.52515,-0.06864 -3.52515,-0.06864l5.07219,1.57692c0,0 -3.66341,0.20685 -5.73767,0.01696c-2.07424,-0.1899 -6.43096,-1.07057 -9.13006,-1.53567c-2.36561,-0.40764 -2.7946,-0.09821 -2.7946,-0.09821c0,0 0.01772,0.04853 0.80303,0.34538c0.50393,0.19049 1.57254,0.59297 1.57254,0.59297c0,0 -1.25131,0.23444 -2.86315,0.20765c-3.54002,-0.05885 -9.17859,-0.41173 -9.65998,-0.45142c-1.33213,-0.10978 0.04394,1.21335 0.04394,1.21335l-12.4172,-1.16916l-0.33916,0.62428l-11.05761,-0.88829l0.81167,1.68178l-40.48183,-3.14988l-0.17601,-14.47488c0,0 11.50997,-3.74813 20.36154,-4.10195c0.55555,-0.0222 6.14646,-0.2588 6.14646,-0.2588l-1.02799,0.9756l25.43357,-1.7894l-3.53872,1.61529c0,0 5.38219,0.35807 9.2478,-0.33099c1.26348,-0.22522 3.62735,-1.47242 5.93304,-2.16076c3.06143,-0.91399 6.00686,-1.28493 6.00686,-1.28493c0,0 -5.81054,3.30125 -4.93495,3.26832c5.80482,-0.21825 11.66828,-0.49039 14.75371,-0.78303c5.2816,-0.50097 9.39965,-2.54114 9.39965,-2.54114c0,0 -3.17762,2.58263 -2.67811,2.55051c6.21636,-0.39961 17.64494,-2.27753 17.64494,-2.27753l-1.76298,1.53106l9.02496,-0.93637l-2.0948,1.13042l18.63005,-3.01418l-1.83623,2.31604c0,0 0.78912,0.07365 0.82974,0.07221c1.97203,-0.0704 12.27792,-2.86646 12.27792,-2.86646l-1.8366,2.1634c0,0 7.47955,-1.16024 10.53591,-1.50363c2.85824,-0.32113 7.24773,-0.49435 7.24773,-0.49435c0,0 -3.9506,1.91449 -2.79352,1.87958c4.63644,-0.13997 7.43496,-0.23047 9.90445,-0.29666c6.39194,-0.1713 12.93475,0.1903 12.93475,0.1903z" fill="#171c22" stroke="#001026" stroke-width="1.2" stroke-linecap="butt"></path><path d="M287.05197,192.03625c-2.2159,-0.58173 -3.03774,-4.32113 -2.39252,-5.61886c0.64522,-1.29772 3.61303,-1.61522 5.82893,-1.03349c2.2159,0.58173 3.80405,1.76049 3.1588,3.0582c-0.64522,1.29772 -4.37933,4.17585 -6.59525,3.59413z" fill="#ffea00" stroke="none" stroke-width="0" stroke-linecap="butt"></path><path d="M336.22536,198.52079c-1.73381,-2.19363 0.16662,-4.23112 4.64923,-6.10179c4.48265,-1.87067 9.80745,-1.24777 11.54126,0.94585c1.73381,2.19363 -0.37814,4.79957 -4.86077,6.67026c-4.48265,1.87067 -9.59591,0.6793 -11.32972,-1.51433z" fill="#ffea00" stroke="#001026" stroke-width="1.2" stroke-linecap="butt"></path><path d="M275.43586,198.22288c-2.01403,-2.54816 -0.51188,-4.32144 3.54383,-6.01396c4.05571,-1.69252 8.72251,-1.31983 10.73654,1.22833c2.01403,2.54816 2.94577,4.79966 -1.10994,6.49215c-4.05571,1.69252 -11.15641,0.84164 -13.17044,-1.70653z" fill="#ffea00" stroke="none" stroke-width="0" stroke-linecap="butt"></path><path d="M277.67142,197.52113c-1.331,-1.68399 8.44144,-5.05082 9.77244,-3.3668c1.331,1.68399 1.55315,3.54902 -1.33363,4.7537c-1.70231,0.7104 -3.89212,0.49497 -5.55338,0.21097c-1.15588,-0.1976 -2.33932,-0.90691 -2.88544,-1.59786z" fill="none" stroke="#000e25" stroke-width="1.2" stroke-linecap="butt"></path><path d="M338.96462,197.8584c-0.6014,-0.76089 -0.72733,-1.51952 -0.18992,-2.41637c0.55805,-0.93135 2.00937,-1.75755 3.51624,-2.38638c2.95792,-1.23438 6.52569,-0.19749 7.75162,1.35356c1.22592,1.55105 -0.35422,3.02892 -3.31214,4.2633c-2.95792,1.23438 -6.53987,0.73695 -7.76581,-0.81409z" fill="none" stroke="#000e25" stroke-width="1.2" stroke-linecap="butt"></path><path d="M340.73399,197.20386c-0.32481,-0.41095 -0.33182,-0.71924 -0.21915,-1.11563c0.19714,-0.69361 0.92894,-1.44429 2.17082,-1.96254c1.95163,-0.81445 4.68637,-0.32032 5.44292,0.86121c0.80555,1.25807 -0.1158,2.03766 -2.06741,2.85209c-1.95163,0.81445 -4.43396,0.49493 -5.32716,-0.63512z" fill="none" stroke="#000e25" stroke-width="0.7" stroke-linecap="butt"></path><path d="M343.58593,196.37955c-0.1491,-0.18864 0.04865,-0.45542 0.37876,-0.65828c0.08535,-0.05245 0.17953,-0.10062 0.27885,-0.14208c0.48355,-0.20179 1.02766,-0.17292 1.2153,0.06447c0.18765,0.23741 -0.05224,0.59344 -0.5358,0.79523c-0.48355,0.20179 -1.14948,0.17805 -1.33711,-0.05937z" fill="#000e25" stroke="#000e25" stroke-width="0.5" stroke-linecap="butt"></path><path d="M266.41374,186.51517c0.03891,0.18973 0.7337,14.73471 0.72976,14.7839c-0.0462,0.576 -1.27929,0.48061 -1.27929,0.48061c0,0 -0.8637,-0.05527 -0.92214,-0.33022c-0.00854,-0.04022 -0.79907,-14.05026 -0.76363,-14.49233c0.06658,-0.82987 0.76141,-0.77545 1.10794,-0.86433c0.63831,-0.16368 1.07293,0.15712 1.12736,0.42237z" fill="#6d6d48" stroke="#000e25" stroke-width="1.2" stroke-linecap="butt"></path><path d="M288.83098,181.12057l0.89069,-0.09398l0.86324,0.56122l-1.04424,0.46287l-0.85273,0.02193l-1.19278,0.56069l-0.45499,-0.73492z" fill="#aeb5b1" stroke="#000e25" stroke-width="0" stroke-linecap="butt"></path><path d="M286.72302,180.98399l0.31273,0.44876c0,0 -0.65603,0.33936 -0.95037,0.5594c-0.09993,0.07471 -0.18203,0.20647 -0.30494,0.32686c-0.18868,0.18479 -0.40623,0.35591 -0.40623,0.35591l-0.73356,-0.82193z" fill="#aeb5b1" stroke="none" stroke-width="0" stroke-linecap="butt"></path><path d="M281.68265,182.67584c-0.30524,-0.38618 0.82661,-1.33582 1.57361,-1.22072c0.52093,0.08027 -0.27381,0.31715 0.03143,0.70333c0.30524,0.38618 0.24549,0.675 -0.21627,0.8677c-0.46176,0.1927 -1.08354,0.03588 -1.38876,-0.35031z" fill="#aeb5b1" stroke="none" stroke-width="0" stroke-linecap="butt"></path><path d="M274.92156,183.94246c-0.2452,-0.31021 -0.11199,-0.7002 0.29751,-0.8711c0.40952,-0.17088 0.9402,-0.05795 1.1854,0.25227c0.2452,0.31021 0.11201,0.70023 -0.29751,0.87111c-0.40952,0.17088 -0.9402,0.05794 -1.1854,-0.25227z" fill="#aeb5b1" stroke="none" stroke-width="0" stroke-linecap="butt"></path><path d="M268.3567,185.93513c0,0 -0.00776,-0.21018 0.56727,-0.45016c0.57504,-0.23998 1.20434,-0.17498 1.44454,0.1289c0.24018,0.30387 -0.06753,0.6989 -0.64254,0.93886c-0.57504,0.23998 -1.36926,-0.6176 -1.36926,-0.6176z" fill="#aeb5b1" stroke="none" stroke-width="0" stroke-linecap="butt"></path><path d="M273.2799,188.81964c0.5204,0.65841 0.68757,1.11549 0.31294,1.27182c-0.20715,0.08645 -0.59685,0.4894 -0.92456,0.28412c-0.265,-0.16598 -0.46339,-0.89881 -0.69604,-1.19319c-0.5204,-0.65841 -0.11561,-1.50663 0.25903,-1.66297c0.37465,-0.15634 0.52824,0.6418 1.04863,1.30019z" fill="#aeb5b1" stroke="none" stroke-width="0" stroke-linecap="butt"></path><path d="M268.73525,190.28934c-0.44034,-0.5571 0.01378,-1.19478 0.31873,-1.32203c0.30493,-0.12726 0.34525,0.30407 0.78557,0.8612c0.44034,0.5571 0.5501,1.11191 0.24515,1.23916c-0.30493,0.12726 -0.90911,-0.22122 -1.34945,-0.77832z" fill="#aeb5b1" stroke="none" stroke-width="0" stroke-linecap="butt"></path><path d="M279.56933,188.28339c-0.5054,-0.63941 0.07076,-1.66064 0.4977,-1.8388c0.42692,-0.17817 0.54293,0.55421 1.04833,1.19362c0.5054,0.63941 0.56899,1.30218 0.14207,1.48035c-0.42692,0.17817 -1.18268,-0.19575 -1.68806,-0.83518z" fill="#aeb5b1" stroke="none" stroke-width="0" stroke-linecap="butt"></path><path d="M276.06492,188.99887c-0.43032,-0.54446 0.12561,-1.27194 0.47413,-1.41738c0.3485,-0.14543 0.35759,0.34627 0.78792,0.8907c0.43032,0.54446 0.49665,1.10372 0.14816,1.24914c-0.3485,0.14543 -0.97986,-0.17804 -1.41019,-0.72249z" fill="#aeb5b1" stroke="none" stroke-width="0" stroke-linecap="butt"></path><path d="M284.13557,188.00891c-0.2802,-0.35452 0.27874,-0.81756 0.51399,-0.91572c0.23524,-0.09816 0.05767,0.2057 0.33787,0.56022c0.2802,0.35452 0.31668,0.72152 0.08144,0.81968c-0.23524,0.09816 -0.6531,-0.10965 -0.93332,-0.46419z" fill="#aeb5b1" stroke="none" stroke-width="0" stroke-linecap="butt"></path><path d="M288.44987,189.42593c-0.27097,0.0094 -0.51506,-0.35544 -0.5452,-0.81485c-0.03015,-0.45942 0.90482,-0.96526 1.17581,-0.97463c0.27095,-0.00939 -0.22469,0.48123 -0.19455,0.94064c0.03015,0.45942 -0.16507,0.83946 -0.43605,0.84886z" fill="#aeb5b1" stroke="none" stroke-width="0" stroke-linecap="butt"></path><path d="M292.02546,190.43023c-0.35078,0.2714 -0.79545,0.38203 -0.99319,0.24709c-0.19774,-0.13494 -0.07368,-0.46435 0.27711,-0.73578c0.35078,-0.2714 0.79546,-0.38202 0.9932,-0.24708c0.19774,0.13494 0.07369,0.46436 -0.27712,0.73577z" fill="#aeb5b1" stroke="none" stroke-width="0" stroke-linecap="butt"></path><path d="M287.81331,203.50139c-0.00325,0.23585 -0.94247,0.69439 -1.2507,0.82303c-0.45742,0.1909 -1.03508,0.08389 -1.29028,-0.23899c-0.25518,-0.32286 -0.09126,-0.73934 0.36616,-0.93023c0.45742,-0.1909 1.03508,-0.08389 1.29028,0.23899c0.08324,0.1053 0.88615,-0.00692 0.88456,0.10721z" fill="#aeb5b1" stroke="none" stroke-width="0" stroke-linecap="butt"></path><path d="M282.30657,203.83678c-0.26271,-0.33237 -0.11543,-0.75213 0.32889,-0.93755c0.44434,-0.18543 1.01754,-0.06632 1.28021,0.26605c0.26271,0.33237 0.11542,0.75214 -0.3289,0.93756c-0.44434,0.18543 -1.01753,0.06631 -1.2802,-0.26606z" fill="#aeb5b1" stroke="none" stroke-width="0" stroke-linecap="butt"></path><path d="M288.12932,204.19651c-0.20265,-0.25639 -0.02792,-0.60573 0.39029,-0.78027c0.41821,-0.17454 0.92151,-0.10813 1.12416,0.14826c0.20265,0.25639 0.02792,0.60572 -0.39029,0.78026c-0.41821,0.17454 -0.92151,0.10814 -1.12414,-0.14824z" fill="#aeb5b1" stroke="none" stroke-width="0" stroke-linecap="butt"></path><path d="M289.7544,204.3415c-0.21766,-0.2754 -0.11864,-0.61359 0.22114,-0.75538c0.33978,-0.14179 0.7917,-0.0335 1.00935,0.24189c0.21766,0.2754 0.11866,0.6136 -0.22112,0.75539c-0.33978,0.14179 -0.7917,0.0335 -1.00939,-0.24189z" fill="#aeb5b1" stroke="none" stroke-width="0" stroke-linecap="butt"></path><path d="M279.40782,203.3544c-0.21766,-0.2754 -0.10807,-0.61801 0.24478,-0.76526c0.35286,-0.14726 0.81537,-0.04338 1.03304,0.23202c0.21766,0.2754 0.10807,0.618 -0.2448,0.76526c-0.35286,0.14726 -0.81534,0.04337 -1.03302,-0.232z" fill="#aeb5b1" stroke="none" stroke-width="0" stroke-linecap="butt"></path><path d="M275.61034,203.40714c-0.15969,-0.20205 -0.31717,-0.42499 -0.24547,-0.6292c0.06981,-0.19891 0.36328,-0.38033 0.62122,-0.48797c0.52276,-0.21815 1.2021,-0.07168 1.51734,0.32716c0.31524,0.39883 0.147,0.899 -0.37575,1.11717c-0.52276,0.21815 -1.20208,0.07169 -1.51732,-0.32717z" fill="#aeb5b1" stroke="none" stroke-width="0" stroke-linecap="butt"></path><path d="M272.45387,202.75791c-0.18913,-0.23927 -0.60818,-0.61482 -0.40856,-0.83512c0.08558,-0.09445 0.64975,-0.08869 0.79486,-0.14924c0.48355,-0.20179 1.09458,-0.08825 1.36478,0.25362c0.2702,0.34186 0.09726,0.7826 -0.3863,0.98439c-0.48355,0.20179 -1.09458,0.08824 -1.3648,-0.25364z" fill="#aeb5b1" stroke="none" stroke-width="0" stroke-linecap="butt"></path><path d="M268.9717,201.8559c-0.11467,-0.14507 -0.62957,-0.42815 -0.6047,-0.58086c0.03535,-0.21715 0.6775,-0.29558 0.95373,-0.41086c0.47048,-0.19634 1.077,-0.07066 1.35469,0.28069c0.27771,0.35137 0.12145,0.79535 -0.34903,0.99169c-0.47048,0.19634 -1.07701,0.07066 -1.35472,-0.28071z" fill="#aeb5b1" stroke="none" stroke-width="0" stroke-linecap="butt"></path><path d="M269.07311,197.28612c-0.18765,-0.23741 -0.0749,-0.54038 0.25182,-0.67673c0.32672,-0.13635 0.7437,-0.05443 0.93132,0.18299c0.18765,0.23741 0.0749,0.54041 -0.25184,0.67674c-0.15008,0.06263 -0.78321,1.64913 -1.08786,1.59144c-0.63061,-0.11941 0.25794,-1.64609 0.15652,-1.77444z" fill="#aeb5b1" stroke="none" stroke-width="0" stroke-linecap="butt"></path><path d="M272.72493,198.32314c-0.20265,-0.25639 -0.04909,-0.59689 0.34298,-0.7605c0.39207,-0.1636 0.87417,-0.08839 1.07682,0.168c0.20265,0.25639 0.0491,0.59689 -0.34297,0.7605c-0.07729,0.03225 -0.46724,0.3231 -0.66385,0.62033c-0.20487,0.30971 -0.21663,0.62555 -0.29975,0.62158c-0.13315,-0.00636 -0.23206,-0.29333 -0.21113,-0.65959c0.01707,-0.29872 0.15227,-0.68151 0.0979,-0.75033z" fill="#aeb5b1" stroke="none" stroke-width="0" stroke-linecap="butt"></path><path d="M276.88749,198.08601c0.28379,-0.02771 0.57081,0.25778 0.64103,0.63765c0.07023,0.37987 -0.10289,0.71027 -0.38668,0.73797c-0.28379,0.02771 -0.57078,-0.25778 -0.64102,-0.63764c-0.07023,-0.37987 0.10288,-0.71028 0.38667,-0.73798z" fill="#aeb5b1" stroke="none" stroke-width="0" stroke-linecap="butt"></path><path d="M279.88225,199.0177c-0.22516,-0.28489 -0.05809,-0.66173 0.37318,-0.84172c0.43127,-0.17998 0.96344,-0.09494 1.1886,0.18996c0.22516,0.28489 0.0581,0.66173 -0.37317,0.84172c-0.20686,0.08633 0.74399,1.12802 0.53573,1.09958c-0.22594,-0.03084 -1.60713,-1.1413 -1.72431,-1.28955z" fill="#aeb5b1" stroke="none" stroke-width="0" stroke-linecap="butt"></path><path d="M288.28909,196.51548c-0.22516,-0.28489 -0.12164,-0.63521 0.2312,-0.78247c0.35286,-0.14726 0.82145,-0.03568 1.04661,0.24921c0.22516,0.28489 0.64513,1.37712 0.29227,1.52438c-0.35286,0.14726 -1.34492,-0.70622 -1.57008,-0.99112z" fill="#aeb5b1" stroke="none" stroke-width="0" stroke-linecap="butt"></path><path d="M291.30251,194.59483c-0.18765,-0.23741 -0.12786,-0.51828 0.13352,-0.62738c0.26137,-0.10907 0.62538,-0.00505 0.81301,0.23237c0.10719,0.13563 0.83842,0.54011 0.79268,0.66396c-0.03434,0.09296 -0.8141,-0.08337 -0.92619,-0.03659c-0.26139,0.10908 -0.62539,0.00506 -0.81302,-0.23236z" fill="#aeb5b1" stroke="none" stroke-width="0" stroke-linecap="butt"></path><path d="M284.3642,196.96439c0.39207,-0.1636 0.9529,-0.22773 1.17806,0.05716c0.22516,0.28489 0.32843,1.18917 -0.06366,1.35279c-0.13366,0.05577 1.15778,0.94456 0.67581,0.99216c-0.27522,0.02718 -1.645,-1.02399 -1.79341,-1.21175c-0.22516,-0.28489 -0.38885,-1.02674 0.0032,-1.19037z" fill="#aeb5b1" stroke="none" stroke-width="0" stroke-linecap="butt"></path><path d="M299.55446,192.69288c-1.2388,-1.56734 -1.3541,-3.51622 0.72283,-5.10515c0.80054,-0.61246 2.22285,-1.11327 3.59288,-1.6044c6.40099,-2.29473 10.96431,-0.52732 12.68061,1.64418c1.7163,2.17147 -0.79614,4.28042 -5.21779,6.12565c-4.42165,1.84523 -10.06223,1.11122 -11.77853,-1.06025z" fill="#ffea00" stroke="none" stroke-width="0" stroke-linecap="butt"></path><path d="M323.06752,190.67016c-1.54116,-1.94989 -1.18083,-3.34868 2.63093,-4.93939c3.81174,-1.5907 9.36812,-1.06041 10.90928,0.88947c1.54116,1.94989 0.375,3.25814 -3.43676,4.84886c-3.81174,1.5907 -8.56229,1.15099 -10.10347,-0.79892z" fill="#ffea00" stroke="none" stroke-width="0" stroke-linecap="butt"></path><path d="M293.88898,199.64559c-1.20605,-1.52589 0.48004,-2.33447 3.59043,-3.6325c3.11039,-1.29802 6.88284,-0.95332 7.8986,0.33184c1.01576,1.28516 -0.74791,2.55299 -3.85832,3.85099c-3.11039,1.29802 -6.61499,0.73482 -7.63075,-0.55034z" fill="#ffea00" stroke="none" stroke-width="0" stroke-linecap="butt"></path><path d="M360.80644,198.40476c-2.43381,-2.1185 -3.74012,-3.98866 -2.47135,-4.75827c1.26879,-0.76962 4.88592,0.17371 7.31973,2.29221c2.43381,2.1185 2.71343,3.99026 1.44466,4.75988c-1.26879,0.76962 -3.85923,-0.17531 -6.29304,-2.29383z" fill="#ffea00" stroke="none" stroke-width="0" stroke-linecap="butt"></path><path d="M382.21618,189.14207c-1.75133,-2.21579 -1.98448,-4.50724 -0.52076,-5.11806c1.46371,-0.61083 4.07002,0.69025 5.82135,2.90605c1.75133,2.21579 1.98448,4.50722 0.52077,5.11805c-1.46371,0.61083 -4.07002,-0.69023 -5.82135,-2.90604z" fill="#ffea00" stroke="none" stroke-width="0" stroke-linecap="butt"></path><path d="M417.40222,187.20993c-1.83888,-2.32659 -2.21251,-4.03857 -0.07793,-4.92938c2.13459,-0.89079 5.4169,-0.39265 7.25582,1.93394c1.83888,2.32659 2.03866,4.00443 -0.09591,4.89523c-2.13459,0.89079 -5.24309,0.4268 -7.08197,-1.89979z" fill="#ffea00" stroke="none" stroke-width="0" stroke-linecap="butt"></path><path d="M420.40878,193.09922c1.17334,0.77154 0.57415,3.03537 -1.57305,4.75947c-2.14719,1.7241 -4.83902,2.49633 -6.01234,1.72478c-1.17334,-0.77154 -0.73117,-2.90233 1.3522,-4.6673c1.92634,-1.63193 5.05984,-2.58849 6.23318,-1.81695z" fill="#ffea00" stroke="none" stroke-width="0" stroke-linecap="butt"></path><path d="M391.81733,197.63351c-0.66507,-1.37397 1.24417,-2.51697 3.9312,-3.20371c2.68702,-0.68673 6.14685,-0.1193 6.8119,1.25465c0.66507,1.37397 -1.73289,2.82762 -4.41991,3.51436c-2.68702,0.68673 -5.65815,-0.19135 -6.3232,-1.5653z" fill="#ffea00" stroke="none" stroke-width="0" stroke-linecap="butt"></path><path d="M398.63511,192.07899c-3.76073,-1.65362 -6.13494,-4.70576 -4.38717,-6.80442c1.74777,-2.09866 6.95567,-2.44915 10.71639,-0.79553c1.71623,0.75465 3.71969,1.60023 4.55532,2.65936c0.99548,1.26168 0.59174,2.76343 -0.35841,3.90435c-1.74777,2.09866 -6.76542,2.68988 -10.52611,1.03626z" fill="#ffea00" stroke="none" stroke-width="0" stroke-linecap="butt"></path><path d="M360.75973,187.88584c0.37186,-2.1966 3.84947,-2.90853 7.43631,-2.92113c3.58682,-0.01261 6.50515,1.57215 6.51824,3.53964c0.01309,1.96749 -3.2645,3.09125 -6.85134,3.10384c-3.58682,0.01261 -7.47457,-1.5288 -7.10321,-3.72236z" fill="#ffea00" stroke="none" stroke-width="0" stroke-linecap="butt"></path><path d="M345.36784,189.25383c-2.38529,-0.81764 -3.93896,-2.15212 -3.02374,-3.56183c0.9152,-1.40969 3.60721,-1.68309 5.99253,-0.86544c2.38529,0.81764 3.93895,2.15211 3.02373,3.56182c-0.9152,1.40969 -3.60721,1.6831 -5.99252,0.86545z" fill="#ffea00" stroke="none" stroke-width="0" stroke-linecap="butt"></path><path d="M319.28893,199.75137c-2.49493,-1.33027 -4.4095,-3.10153 -3.24448,-4.25518c1.16502,-1.15365 4.35283,-1.10265 6.84779,0.2276c2.49493,1.33027 4.72435,2.75671 3.55934,3.91038c-1.16502,1.15365 -4.66771,1.44747 -7.16265,0.11723z" fill="#ffea00" stroke="none" stroke-width="0" stroke-linecap="butt"></path><path d="M301.9252,191.41898c-1.27263,-1.61013 0.23339,-3.12078 3.2828,-4.39334c3.04941,-1.27256 6.89137,-0.57096 8.164,1.03917c1.27263,1.61013 -0.72832,3.11391 -3.77773,4.38647c-3.04941,1.27256 -6.3964,0.57783 -7.66905,-1.03232z" fill="none" stroke="#000e25" stroke-width="1.2" stroke-linecap="butt"></path><path d="M325.01445,190.28451c-0.86399,-1.09314 -0.38706,-2.63067 2.11346,-3.67416c2.50052,-1.0435 6.21698,-0.40228 7.08098,0.69083c0.86399,1.09314 -0.47511,2.19015 -2.97561,3.23364c-2.50052,1.0435 -5.35483,0.84279 -6.21884,-0.25033z" fill="none" stroke="#000e25" stroke-width="1.05" stroke-linecap="butt"></path><path d="M399.31483,189.97808c-2.51597,-1.05813 -4.47484,-2.47161 -3.18303,-4.09336c1.29183,-1.62176 4.88452,-1.9341 7.40047,-0.87598c2.51597,1.05813 4.60168,2.63209 3.30985,4.25385c-1.29183,1.62176 -5.01136,1.77362 -7.52731,0.71548z" fill="none" stroke="#000e25" stroke-width="1.2" stroke-linecap="butt"></path><path d="M418.14202,186.34987c-1.14419,-1.44766 -0.88517,-3.11636 0.57854,-3.7272c1.46371,-0.61083 3.57784,0.06755 4.72206,1.5152c1.14419,1.44766 0.88517,3.11636 -0.57854,3.7272c-1.46371,0.61083 -3.57784,-0.06755 -4.72206,-1.5152z" fill="none" stroke="#000e25" stroke-width="1" stroke-linecap="butt"></path><path d="M393.34476,197.33839c-0.65384,-0.82723 0.59858,-1.60142 2.50953,-2.39889c1.91096,-0.79747 4.20153,-0.50589 4.85536,0.32134c0.65384,0.82723 -0.70211,1.86501 -2.73041,2.49107c-1.96419,0.60626 -3.98067,0.41372 -4.63451,-0.41351z" fill="none" stroke="#000e25" stroke-width="0.5" stroke-linecap="butt"></path><path d="M394.74109,196.89797c-0.40864,-0.51702 0.33623,-1.0651 1.50332,-1.55216c1.1671,-0.48706 2.7379,-0.29418 3.14657,0.22285c0.40864,0.51702 -0.49963,1.1624 -1.66672,1.64946c-1.1671,0.48706 -2.57452,0.19689 -2.98316,-0.32013z" fill="none" stroke="#000e25" stroke-width="0.5" stroke-linecap="butt"></path><path d="M396.5931,196.54708c-0.05731,-0.07253 0.14568,-0.2354 0.4534,-0.36382c0.30772,-0.12841 0.60363,-0.17374 0.66094,-0.10121c0.05731,0.07253 -0.14567,0.2354 -0.45339,0.36382c-0.30772,0.12841 -0.60364,0.17374 -0.66095,0.10121z" fill="#000e25" stroke="#000e25" stroke-width="0.5" stroke-linecap="butt"></path><path d="M420.22071,185.37085c-0.1401,-0.17726 -0.08887,-0.38973 0.11441,-0.47457c0.2033,-0.08483 0.48167,-0.00992 0.62177,0.16735c0.1401,0.17726 0.08889,0.38974 -0.11441,0.47457c-0.2033,0.08483 -0.48169,0.00991 -0.62179,-0.16735z" fill="#000e25" stroke="#000e25" stroke-width="0.5" stroke-linecap="butt"></path><path d="M416.62834,196.27803c-0.23378,0.09756 -0.51797,0.05691 -0.63471,-0.09081c-0.11675,-0.14772 -0.02188,-0.34655 0.2119,-0.44412c0.23378,-0.09756 0.51797,-0.0569 0.63471,0.09082c0.11675,0.14772 0.02188,0.34654 -0.2119,0.44411z" fill="#000e25" stroke="#000e25" stroke-width="0.5" stroke-linecap="butt"></path><path d="M401.21804,187.93835c-0.30124,-0.24031 -0.6883,-0.57217 -0.38118,-0.77542c0.30712,-0.20325 0.95554,-0.06665 1.25678,0.17366c0.30124,0.24031 0.58758,0.47842 0.28047,0.68167c-0.30712,0.20325 -0.85486,0.1604 -1.15608,-0.07992z" fill="#000e25" stroke="#000e25" stroke-width="0.5" stroke-linecap="butt"></path><path d="M384.71507,187.82761c-0.15179,-0.19204 -0.20066,-0.37867 -0.10918,-0.41683c0.09148,-0.03819 0.28868,0.08654 0.44047,0.27858c0.15179,0.19204 0.20065,0.37868 0.10919,0.41685c-0.09148,0.03819 -0.28867,-0.08655 -0.44046,-0.27859z" fill="none" stroke="#000e25" stroke-width="0.5" stroke-linecap="butt"></path><path d="M383.24194,188.19338c-1.09749,-1.38856 -1.33622,-2.78588 -0.5332,-3.12099c0.80302,-0.33511 2.34368,0.51888 3.44118,1.90745c1.09749,1.38856 1.33622,2.78588 0.5332,3.12099c-0.80302,0.33511 -2.34368,-0.51888 -3.44118,-1.90745z" fill="none" stroke="#000e25" stroke-width="0.5" stroke-linecap="butt"></path><path d="M386.02778,189.27167c-0.59972,0.25027 -1.65378,-0.26534 -2.3543,-1.15166c-0.70052,-0.88632 -0.78226,-1.80772 -0.18254,-2.05797c0.59972,-0.25027 1.65379,0.26534 2.35431,1.15166c0.70052,0.88632 0.78225,1.8077 0.18253,2.05797z" fill="none" stroke="#000e25" stroke-width="0.5" stroke-linecap="butt"></path><path d="M367.08831,188.0697c-0.12841,-0.16248 -0.01831,-0.38363 0.24597,-0.49392c0.26428,-0.1103 0.58263,-0.06796 0.71107,0.09451c0.12841,0.16248 0.01831,0.38363 -0.24597,0.49392c-0.26428,0.1103 -0.58263,0.06796 -0.71107,-0.09451z" fill="#000e25" stroke="#000e25" stroke-width="0.5" stroke-linecap="butt"></path><path d="M362.22367,196.96463c-0.23351,-0.29544 -0.25802,-0.60371 -0.05472,-0.68854c0.2033,-0.08483 0.55738,0.08588 0.79089,0.38132c0.23351,0.29544 0.25802,0.60372 0.05472,0.68855c-0.2033,0.08483 -0.55738,-0.08589 -0.79089,-0.38133z" fill="#000e25" stroke="#000e25" stroke-width="0.5" stroke-linecap="butt"></path><path d="M346.15947,186.77057c-0.14261,-0.18044 -0.05694,-0.4107 0.19138,-0.51432c0.24832,-0.10363 0.56521,-0.04137 0.70782,0.13907c0.14261,0.18044 0.0569,0.41072 -0.19139,0.51432c-0.24832,0.10363 -0.56521,0.04135 -0.70781,-0.13907z" fill="#000e25" stroke="#000e25" stroke-width="0.5" stroke-linecap="butt"></path><path d="M328.70637,188.49761c-0.16512,-0.20893 0.01885,-0.51091 0.4109,-0.67453c0.39207,-0.1636 0.84376,-0.1269 1.00889,0.08203c0.16512,0.20893 -0.01885,0.51091 -0.4109,0.67453c-0.39207,0.1636 -0.84376,0.1269 -1.00889,-0.08203z" fill="#000e25" stroke="#000e25" stroke-width="0.5" stroke-linecap="butt"></path><path d="M320.5356,197.50954c-0.20265,-0.25639 -0.20803,-0.53057 -0.01199,-0.61237c0.19603,-0.08181 0.51923,0.05974 0.72189,0.31613c0.20265,0.25639 0.20802,0.53056 0.01197,0.61238c-0.19603,0.08181 -0.51923,-0.05974 -0.72189,-0.31613z" fill="#000e25" stroke="#000e25" stroke-width="0.5" stroke-linecap="butt"></path><path d="M298.56985,197.82707c-0.10509,-0.13294 0.11699,-0.36892 0.49598,-0.5271c0.37902,-0.15816 0.77142,-0.17861 0.87652,-0.04566c0.10509,0.13294 -0.11699,0.36893 -0.49598,0.52711c-0.37902,0.15816 -0.77142,0.1786 -0.87652,0.04565z" fill="#000e25" stroke="#000e25" stroke-width="0.5" stroke-linecap="butt"></path><path d="M288.68143,187.06798c-0.09759,-0.12344 -0.07072,-0.26772 0.05998,-0.32227c0.1307,-0.05454 0.31571,0.00132 0.41331,0.12477c0.09759,0.12344 0.07075,0.26773 -0.05995,0.32228c-0.1307,0.05454 -0.31573,-0.00131 -0.4133,-0.12478z" fill="#000e25" stroke="#000e25" stroke-width="0.5" stroke-linecap="butt"></path><path d="M308.63553,191.03482c-1.86014,0.77627 -3.98567,0.62418 -4.74749,-0.33968c-0.76183,-0.96387 0.12853,-2.37453 1.98867,-3.1508c1.86014,-0.77627 4.57772,-0.71118 5.70479,0.90057c0.69294,0.99094 -1.08582,1.81365 -2.94596,2.58992z" fill="none" stroke="#000e25" stroke-width="0.5" stroke-linecap="butt"></path><path d="M296.80227,198.08049c-0.42907,-0.54286 -0.17641,-0.70002 1.0586,-1.2154c1.23501,-0.51539 3.40513,-0.569 3.8342,-0.02614c0.42907,0.54286 -0.52495,1.20612 -1.75996,1.72151c-1.23501,0.51539 -2.70377,0.0629 -3.13284,-0.47996z" fill="none" stroke="#000e25" stroke-width="0.5" stroke-linecap="butt"></path><path d="M287.041,187.58845c-0.48164,-0.60935 -0.5207,-1.08987 0.27217,-1.42073c0.79286,-0.33088 2.75048,0.04261 3.23208,0.65198c0.48164,0.60935 0.54418,1.02671 -0.24866,1.35758c-0.79286,0.33088 -2.77397,0.02053 -3.25559,-0.5888z" fill="none" stroke="#000e25" stroke-width="0.5" stroke-linecap="butt"></path><path d="M326.21812,189.21946c-0.58669,-0.74229 0.30835,-1.64926 1.93979,-2.33008c1.63145,-0.68082 3.65978,-0.24687 4.24645,0.49541c0.58669,0.74229 -0.55383,1.43159 -2.18527,2.11241c-1.63145,0.68082 -3.41428,0.46455 -4.00097,-0.27774z" fill="none" stroke="#000e25" stroke-width="0.5" stroke-linecap="butt"></path><path d="M344.94545,187.27315c-0.55168,-0.69797 -0.75593,-1.15176 0.20464,-1.55261c0.96056,-0.40087 2.81025,-0.2069 3.36189,0.49107c0.55168,0.69797 0.16275,0.86577 -0.79781,1.26663c-0.96056,0.40087 -2.21708,0.49289 -2.76873,-0.2051z" fill="none" stroke="#000e25" stroke-width="0.5" stroke-linecap="butt"></path><path d="M343.83947,187.17447c-0.39027,-0.49377 -0.29446,-0.80533 -0.19977,-1.12165c0.09228,-0.30825 0.16874,-0.62561 0.90487,-0.77322c1.0942,-0.21944 2.48615,-0.11896 3.5125,0.23429c0.35885,0.12352 0.78337,0.09138 0.98299,0.34394c0.77058,0.97496 1.28502,1.59789 -0.05674,2.15782c-1.34176,0.55993 -4.37329,0.13377 -5.14387,-0.84119z" fill="none" stroke="#000e25" stroke-width="0.5" stroke-linecap="butt"></path><path d="M362.77827,187.86605c-0.21337,-1.61515 1.98226,-2.05866 4.74191,-2.10812c2.75966,-0.04944 5.11259,0.8251 5.16473,1.91198c0.06163,1.28534 -2.33705,2.26007 -5.09669,2.30953c-2.75966,0.04944 -4.63737,-0.80715 -4.80994,-2.11339z" fill="none" stroke="#000e25" stroke-width="0.75" stroke-linecap="butt"></path><path d="M364.22566,187.97726c-0.22551,-0.28533 0.22928,-0.4283 0.40337,-0.61395c0.35993,-0.38384 0.94309,-0.67057 1.80765,-0.81559c1.66181,-0.27876 3.42897,-0.16728 4.12073,0.70796c0.69177,0.87523 -0.13068,1.20163 -1.60962,1.81883c-1.47896,0.61719 -4.03033,-0.22199 -4.72213,-1.09724z" fill="none" stroke="#000e25" stroke-width="0.5" stroke-linecap="butt"></path><path d="M375.83375,199.56148c-3.15124,-1.16255 -5.87759,-2.94615 -4.57218,-4.81443c0.78264,-1.12009 3.3638,-1.98105 5.91593,-1.95536c1.70472,0.01714 3.34898,0.62702 4.61092,1.09257c3.15124,1.16255 4.70056,2.85046 3.39517,4.71873c-1.30541,1.86828 -6.1986,2.12104 -9.34984,0.95849z" fill="#ffea00" stroke="none" stroke-width="0" stroke-linecap="butt"></path><path d="M376.94395,198.39512c-2.11663,-0.86201 -4.26805,-1.91742 -3.28805,-3.18795c0.98,-1.27053 4.48641,-1.2704 6.60304,-0.4084c2.11663,0.86201 3.60438,1.8209 2.62434,3.09143c-0.98001,1.27052 -3.82272,1.36693 -5.93936,0.50493z" fill="none" stroke="#000e25" stroke-width="0.75" stroke-linecap="butt"></path><path d="M377.19178,197.71541c-1.46486,-0.58326 -2.27762,-1.45698 -1.7284,-2.18526c0.54919,-0.72827 2.63187,-0.92689 4.09668,-0.34362c1.46486,0.58326 2.59473,1.85819 2.04552,2.58648c-0.54919,0.72827 -2.94896,0.52568 -4.4138,-0.05759z" fill="none" stroke="#000e25" stroke-width="0.5" stroke-linecap="butt"></path><path d="M378.08866,196.78426c-0.19265,-0.24374 -0.08924,-0.54964 0.23094,-0.68327c0.32019,-0.13362 0.73593,-0.04435 0.92857,0.19937c0.19265,0.24374 0.08923,0.54964 -0.23096,0.68325c-0.32019,0.13362 -0.73591,0.04436 -0.92856,-0.19937z" fill="#001026" stroke="#000e25" stroke-width="0.5" stroke-linecap="butt"></path><path d="M400.39311,189.23135c-1.83435,-0.61812 -3.02986,-1.68744 -2.37892,-2.70739c0.65095,-1.01997 2.90183,-1.60431 4.73621,-0.98621c1.83435,0.61812 3.25183,1.96828 2.60089,2.98823c-0.65095,1.01997 -3.12383,1.32349 -4.95818,0.70536z" fill="none" stroke="#000e25" stroke-width="0.5" stroke-linecap="butt"></path><path d="M418.79406,193.8009c1.06765,0.60495 0.73699,1.93128 -0.58208,3.16044c-1.31909,1.22915 -2.86627,1.94692 -3.93392,1.34197c-1.06765,-0.60495 -0.73696,-1.9313 0.58211,-3.16046c1.31907,-1.22916 2.86625,-1.9469 3.93389,-1.34195z" fill="none" stroke="#000e25" stroke-width="0.5" stroke-linecap="butt"></path><path d="M418.06621,194.62879c0.68948,0.37539 0.44421,1.13573 -0.42035,1.97412c-0.86457,0.83839 -2.20305,1.29993 -2.89253,0.92454c-0.68948,-0.37539 -0.33377,-1.1818 0.5308,-2.02019c0.86457,-0.83839 2.09263,-1.25384 2.78211,-0.87845z" fill="none" stroke="#000e25" stroke-width="0.25" stroke-linecap="butt"></path><path d="M306.60932,189.52918c-0.21016,-0.2659 0.02206,-0.64947 0.51869,-0.85671c0.49661,-0.20723 1.15111,-0.05654 1.36127,0.20936c0.21016,0.2659 0.02528,0.62972 -0.47135,0.83696c-0.49661,0.20723 -1.19845,0.07629 -1.40861,-0.18961z" fill="#000e25" stroke="none" stroke-width="0" stroke-linecap="butt"></path><path d="M295.29971,198.40761c-0.48123,-0.97982 1.07107,-1.87495 3.39886,-2.47861c2.32783,-0.60365 4.19923,-0.1751 4.68044,0.80473c0.48123,0.97982 -1.03077,1.76668 -3.35858,2.37034c-2.32783,0.60365 -4.23951,0.28337 -4.72074,-0.69645z" fill="none" stroke="#000e27" stroke-width="0.5" stroke-linecap="butt"></path><path d="M319.50671,197.97556c-1.11874,-0.72008 -1.69162,-1.38976 -1.1553,-1.82968c0.5363,-0.43994 2.14241,-0.2581 3.34358,0.30916c1.33388,0.62994 2.03847,1.54988 1.50215,1.9898c-0.5363,0.43994 -2.57171,0.25081 -3.69045,-0.46927z" fill="none" stroke="#000e25" stroke-width="0.5" stroke-linecap="butt"></path><path d="M319.13746,198.43676c-1.78926,-1.1582 -2.89908,-2.16762 -1.84647,-3.02619c1.0526,-0.85858 3.53355,-0.23231 5.32281,0.92589c1.78926,1.1582 2.6816,1.8925 1.62902,2.7511c-1.0526,0.85858 -3.3161,0.50741 -5.10536,-0.65079z" fill="none" stroke="#001027" stroke-width="0.75" stroke-linecap="butt"></path><path d="M361.32398,197.4276c-0.9703,-0.79451 -1.29301,-1.49086 -0.57157,-1.95606c0.72143,-0.46519 1.80189,-0.16828 2.77219,0.62623c0.9703,0.79451 1.53666,1.48064 0.81523,1.94584c-0.72143,0.46519 -2.04554,0.17849 -3.01586,-0.616z" fill="none" stroke="#001025" stroke-width="0.5" stroke-linecap="butt"></path><path d="M360.86759,197.70808c-1.64907,-1.36703 -2.01301,-2.51606 -0.98167,-3.17295c0.39609,-0.25228 0.80225,-0.16669 1.32019,-0.08823c0.83066,0.12586 1.85385,0.48883 2.86957,1.33084c1.64907,1.36703 2.46611,2.37269 1.43477,3.02958c-1.03133,0.65689 -2.99383,0.26778 -4.6429,-1.09925z" fill="none" stroke="#001025" stroke-width="0.75" stroke-linecap="butt"></path><path d="M418.18759,186.36418c-1.28686,-1.41662 -1.41062,-2.83693 -0.00188,-3.5126c1.40873,-0.67565 3.82446,0.05746 5.11132,1.47409c1.28686,1.41662 1.26767,2.57646 -0.14106,3.25214c-1.40873,0.67565 -3.68155,0.20301 -4.96839,-1.21363z" fill="none" stroke="#001027" stroke-width="0.75" stroke-linecap="butt"></path><path d="M419.04159,185.94031c-0.75807,-0.95913 -0.91142,-2.02058 0.01648,-2.4078c0.9279,-0.38722 2.51816,0.12029 3.27623,1.07942c0.75807,0.95913 0.8772,1.89765 -0.0507,2.28488c-0.9279,0.38722 -2.48395,0.00261 -3.24202,-0.95652z" fill="none" stroke="#001027" stroke-width="0.5" stroke-linecap="butt"></path><path d="M186.79524,194.73293c-0.0089,-0.14729 -0.4619,-0.25724 -1.31921,-0.90367c-0.39157,-0.29526 -0.06638,-1.39283 -1.23807,-1.43637c-1.50321,-0.05588 -4.18708,0.94471 -6.48876,1.30615c-2.84442,0.44667 -5.20342,0.28053 -5.20342,0.28053c0,0 4.5928,-3.61981 9.11128,-3.8934c1.06714,-0.06461 2.94236,-0.04497 4.859,0.35371c1.70559,0.35478 3.45326,1.08917 4.55047,1.10923c0.27842,0.0051 1.04408,-0.2075 1.38312,-0.32627c0.71423,-0.25021 1.444,-0.60546 2.07563,-0.93476c0.60213,-0.31392 0.57191,-0.45924 1.03337,-0.46096c0.46146,-0.00172 0.39202,0.45562 0.39202,0.45562c0,0 -0.73352,1.11284 -0.7785,1.95354c-0.02794,0.5221 0.30931,1.93213 0.16911,2.97703c-0.09161,0.68274 -0.69974,0.95556 -0.66381,1.60283c0.07994,1.44022 0.78917,2.51085 0.78917,2.51085c0,0 -1.27026,-1.45462 -3.67518,-1.44682c-0.97821,0.00318 -2.45553,0.74698 -3.5995,1.00871c-1.94228,0.44437 -3.54607,0.51402 -4.63469,0.57993c-4.57425,0.27697 -10.71946,-3.09408 -10.71946,-3.09408c0,0 0.44155,-0.22607 1.80295,-0.1627c2.40286,0.11183 6.58411,0.51852 8.49402,0.32626c3.87773,-0.3904 3.6736,-1.5892 3.66051,-1.80534z" fill="#885058" stroke="#000e25" stroke-width="1" stroke-linecap="butt"></path></g></g></g></svg>