<svg version="1.1" xmlns="http://www.w3.org/2000/svg" xmlns:xlink="http://www.w3.org/1999/xlink" width="100.70818" height="86.80952" viewBox="0,0,100.70818,86.80952"><g transform="translate(-199.53702,-139.33476)"><g data-paper-data="{&quot;isPaintingLayer&quot;:true}" fill-rule="nonzero" stroke-linejoin="miter" stroke-miterlimit="10" stroke-dasharray="" stroke-dashoffset="0" style="mix-blend-mode: normal"><path d="" data-paper-data="{&quot;index&quot;:null}" fill="none" stroke="#000000" stroke-width="1.5" stroke-linecap="round"></path><path d="" data-paper-data="{&quot;index&quot;:null}" fill="none" stroke="#000000" stroke-width="1.5" stroke-linecap="round"></path><path d="M220.49519,180.69476c0,-21.81525 17.68475,-39.5 39.5,-39.5c21.81525,0 39.5,17.68475 39.5,39.5c0,21.81525 -17.68475,39.5 -39.5,39.5c-21.81525,0 -39.5,-17.68475 -39.5,-39.5z" fill="#d8d8d8" stroke="#000000" stroke-width="1.5" stroke-linecap="butt"></path><path d="M246.51675,197.3165c5.44898,-2.88817 27.57511,5.13694 27.57511,5.13694" data-paper-data="{&quot;index&quot;:null}" fill="none" stroke="#000000" stroke-width="1.5" stroke-linecap="round"></path><path d="M246.31865,168.12134l6.99536,1.82343v8" fill="none" stroke="#000000" stroke-width="1.5" stroke-linecap="round"></path><path d="M258.87633,178.50558l-0.24149,-8.93527l7.00332,-2.17344" fill="none" stroke="#000000" stroke-width="1.5" stroke-linecap="round"></path><path d="M259.60082,188.64832l16.42158,-6.52033" fill="none" stroke="#000000" stroke-width="1.5" stroke-linecap="round"></path><path d="M265.63817,188.16533l-2.89793,-5.55436" fill="none" stroke="#000000" stroke-width="1.5" stroke-linecap="round"></path><path d="M271.19252,188.16533l-3.8639,-7.7278" fill="none" stroke="#000000" stroke-width="1.5" stroke-linecap="round"></path><g><path d="M208.34054,202.72291l1.95949,10.84886l-9.1897,10.66934l-0.8039,-15.04628z" data-paper-data="{&quot;index&quot;:null}" fill="#c6c6c6" stroke="#c6c6c6" stroke-width="1.5" stroke-linecap="round"></path><path d="M210.96356,159.19812" fill="none" stroke="#d8d8d8" stroke-width="4" stroke-linecap="round"></path><path d="M232.27483,140.5991l-18.33285,53.34831l-3.67919,-1.26434l18.33285,-53.34831z" fill="#7f7600" stroke="#000000" stroke-width="0" stroke-linecap="butt"></path><path d="M208.86934,204.86299c-1.92717,1.41706 -3.42266,-0.49417 -3.42266,-0.49417l-1.8733,-3.25322c0.00522,-3.07191 0.7949,-6.00845 0.57522,-9.06305c-0.09105,-1.26608 -1.00634,-2.67798 -0.3906,-3.78801c0.94732,-1.70781 2.59165,-3.76151 4.5436,-3.69892c1.61204,0.05169 1.59885,2.87643 2.81583,3.93488c0.64094,0.55744 1.82383,0.09573 2.46246,0.65581c0.47901,0.42008 -0.19756,1.68488 0.41323,1.86612c0.94316,0.27986 2.09769,-1.59165 2.80751,-0.91043c4.78337,4.59063 -1.26911,11.1083 -3.85943,14.71674c0,0 -1.45833,2.03057 -3.48891,0.57224c-0.24053,-0.17274 -0.4321,-0.35351 -0.58295,-0.53798z" fill="#ff0000" stroke="none" stroke-width="0.5" stroke-linecap="butt"></path></g></g></g></svg>