<svg version="1.1" xmlns="http://www.w3.org/2000/svg" xmlns:xlink="http://www.w3.org/1999/xlink" width="755.78978" height="755.78978" viewBox="0,0,755.78978,755.78978"><g transform="translate(139.89813,168.47218)"><g data-paper-data="{&quot;isPaintingLayer&quot;:true}" fill-rule="nonzero" stroke-linecap="butt" stroke-linejoin="miter" stroke-miterlimit="10" stroke-dasharray="" stroke-dashoffset="0" style="mix-blend-mode: normal"><g><path d="M237.99676,586.5676c-208.29139,0 -377.14489,-168.85351 -377.14489,-377.14489c0,-208.29139 168.85351,-377.14489 377.14489,-377.14489c208.29139,0 377.14489,168.85351 377.14489,377.14489c0,208.29139 -168.85351,377.14489 -377.14489,377.14489z" data-paper-data="{&quot;index&quot;:null}" fill="#000000" stroke="#000000" stroke-width="1.5"></path><g data-paper-data="{&quot;index&quot;:null}" stroke="none" stroke-width="0"><path d="M386.07851,114.80708c71.16249,0 128.85096,49.08613 128.85096,49.08613c0,0 -57.68857,49.08613 -128.85096,49.08613c-71.16249,0 -128.85096,-49.08613 -128.85096,-49.08613c0,0 57.68857,-49.08613 128.85096,-49.08613z" fill="#ffffff"></path><path d="M392.21417,212.97935c-27.1096,0 -49.08613,-21.97664 -49.08613,-49.08613c0,-27.1096 21.97664,-49.08613 49.08613,-49.08613c27.1096,0 49.08613,21.97664 49.08613,49.08613c0,27.1096 -21.97664,49.08613 -49.08613,49.08613z" fill="#000000"></path></g><g data-paper-data="{&quot;index&quot;:null}" stroke="none" stroke-width="0"><path d="M99.37281,115.91505c71.16249,0 128.85096,49.08613 128.85096,49.08613c0,0 -57.68857,49.08613 -128.85096,49.08613c-71.16249,0 -128.85096,-49.08613 -128.85096,-49.08613c0,0 57.68857,-49.08613 128.85096,-49.08613z" fill="#ffffff"></path><path d="M105.50862,214.08735c-27.1096,0 -49.08613,-21.97664 -49.08613,-49.08613c0,-27.1094 21.97664,-49.08613 49.08613,-49.08613c27.1096,0 49.08613,21.97664 49.08613,49.08613c0,27.1096 -21.97664,49.08613 -49.08613,49.08613z" fill="#000000"></path></g></g></g></g></svg>