<svg version="1.1" xmlns="http://www.w3.org/2000/svg" xmlns:xlink="http://www.w3.org/1999/xlink" width="337.47816" height="80.5" viewBox="0,0,337.47816,80.5"><defs><radialGradient cx="211.8017" cy="197.91054" r="4.2254" gradientUnits="userSpaceOnUse" id="color-1"><stop offset="0" stop-color="#fbc410"></stop><stop offset="1" stop-color="#fbc410" stop-opacity="0"></stop></radialGradient><radialGradient cx="175.26283" cy="195.84097" r="37.98" gradientUnits="userSpaceOnUse" id="color-2"><stop offset="0" stop-color="#fffbe2"></stop><stop offset="1" stop-color="#fffbe2" stop-opacity="0"></stop></radialGradient></defs><g transform="translate(58.23966,-138.16295)"><g data-paper-data="{&quot;isPaintingLayer&quot;:true}" fill-rule="nonzero" stroke-linejoin="miter" stroke-miterlimit="10" stroke-dasharray="" stroke-dashoffset="0" style="mix-blend-mode: normal"><path d="M238.9885,217.91295c-21.81525,0 -39.5,-17.68475 -39.5,-39.5c0,-21.81525 17.68475,-39.5 39.5,-39.5c21.81525,0 39.5,17.68475 39.5,39.5c0,21.81525 -17.68475,39.5 -39.5,39.5z" data-paper-data="{&quot;index&quot;:null}" fill="#000000" stroke="#000000" stroke-width="1.5" stroke-linecap="butt"></path><g data-paper-data="{&quot;index&quot;:null}" stroke="none" stroke-width="0" stroke-linecap="butt"><path d="M258.71106,168.50345c7.45315,0 13.49512,5.141 13.49512,5.141c0,0 -6.04197,5.141 -13.49512,5.141c-7.45315,0 -13.49512,-5.141 -13.49512,-5.141c0,0 6.04197,-5.141 13.49512,-5.141z" fill="#ffffff"></path><path d="M259.35368,178.78545c-2.8393,0 -5.141,-2.30171 -5.141,-5.141c0,-2.8393 2.30171,-5.141 5.141,-5.141c2.8393,0 5.141,2.30171 5.141,5.141c0,2.8393 -2.30171,5.141 -5.141,5.141z" fill="#000000"></path></g><g data-paper-data="{&quot;index&quot;:null}" stroke="none" stroke-width="0" stroke-linecap="butt"><path d="M229.03426,168.6195c7.45315,0 13.49512,5.141 13.49512,5.141c0,0 -6.04197,5.141 -13.49512,5.141c-7.45315,0 -13.49512,-5.141 -13.49512,-5.141c0,0 6.04197,-5.141 13.49512,-5.141z" fill="#ffffff"></path><path d="M229.67689,178.9015c-2.8393,0 -5.141,-2.30171 -5.141,-5.141c0,-2.83929 2.30171,-5.141 5.141,-5.141c2.8393,0 5.141,2.30171 5.141,5.141c0,2.8393 -2.30171,5.141 -5.141,5.141z" fill="#000000"></path></g><g><path d="M216.27531,197.80795c0.03799,1.40996 -1.94392,2.60718 -4.42669,2.67405c-2.48278,0.06686 -4.52625,-1.02192 -4.56421,-2.43191c-0.03799,-1.40996 1.94392,-2.60718 4.42672,-2.67406c2.48278,-0.06686 4.52625,1.02192 4.56421,2.43191z" fill="#fbc410" stroke="none" stroke-width="0" stroke-linecap="butt"></path><path d="M216.29716,197.78945c0.03799,1.40996 -1.94392,2.60718 -4.42669,2.67405c-2.48278,0.06686 -4.52625,-1.02192 -4.56421,-2.43191c-0.03799,-1.40996 1.94392,-2.60718 4.42669,-2.67405c2.48278,-0.06686 4.52625,1.02192 4.56421,2.43191z" fill="none" stroke="url(#color-1)" stroke-width="2.5" stroke-linecap="butt"></path><path d="M152.43386,189.73973c0,0 -0.23075,0.46397 -0.88468,0.60373c-1.01674,0.21732 -2.69698,0.1716 -3.35057,0.39599c-1.07396,0.36871 0.60281,0.15421 0.14769,-0.50503c-0.45514,-0.65925 -3.28693,-0.3481 -2.21302,-0.71682c0.46186,-0.15857 1.71017,-0.99787 2.96207,-0.92481c1.65912,0.09682 3.3385,1.14697 3.3385,1.14697z" fill="#43282c" stroke="none" stroke-width="0" stroke-linecap="butt"></path><path d="M152.3887,190.89108c0,0 0.57836,0.27367 -0.69048,0.61351c-3.36958,0.90247 -3.81873,0.2531 -4.38145,0.44629c-1.32965,0.4565 0.59606,0.42099 0.08843,-0.31434c-0.50764,-0.73531 -2.19533,-1.46118 -0.86568,-1.91769c0.47433,-0.16285 1.75165,-0.48066 2.68787,-0.28137c1.68824,0.35934 3.16131,1.45358 3.16131,1.45358z" fill="#885058" stroke="none" stroke-width="0" stroke-linecap="butt"></path><path d="M152.31687,199.74689c0,0 0.01837,0.24929 -2.26491,1.03318c-1.29553,0.44479 -4.0698,-0.2539 -4.46362,-0.82443c-0.39384,-0.57052 -0.30194,-0.54948 0.99361,-0.99422c0.54062,-0.18561 1.28994,0.09354 2.37441,0.28018c1.51439,0.26062 3.36054,0.50531 3.36054,0.50531z" fill="#43282c" stroke="none" stroke-width="0" stroke-linecap="butt"></path><path d="M148.53065,196.91711c0.12332,0.17862 1.28253,0.18966 2.21362,0.44859c1.00627,0.27981 1.78199,0.80823 1.69797,1.00708c-0.20473,0.48462 -2.91728,0.82763 -3.6506,1.07941c-1.31261,0.45065 -2.51095,-0.15286 -3.09237,-0.99509c-0.58142,-0.84221 -1.9324,-1.16614 -0.61978,-1.6168c1.31261,-0.45065 2.86975,-0.7654 3.45117,0.07683z" fill="#885058" stroke="none" stroke-width="0" stroke-linecap="butt"></path><path d="M146.34375,195.40849c1.40034,2.02846 5.13807,4.25592 2.00148,5.33278c-3.13661,1.07686 -15.75502,-2.24752 -17.15535,-4.27597c-1.40034,-2.02846 4.62481,-0.62232 7.7614,-1.69919c3.13661,-1.07686 5.99212,-1.38608 7.39246,0.64237z" fill="#959ba2" stroke="none" stroke-width="0" stroke-linecap="butt"></path><path d="M148.56252,190.40658c0.04024,0.3919 -0.08288,0.97318 -0.52963,1.32153c-0.76232,0.59446 -2.2247,0.8619 -3.67045,0.89673c-2.29302,0.05522 -4.24015,-0.75982 -4.34901,-1.82047c-0.10884,-1.06064 1.66179,-1.96523 3.95482,-2.02048c2.29302,-0.05522 4.48542,0.56204 4.59429,1.62268z" fill="#959ba2" stroke="none" stroke-width="0" stroke-linecap="butt"></path><path d="M135.82207,188.68467l-5.70771,2.12995" fill="none" stroke="#171c22" stroke-width="1" stroke-linecap="round"></path><path d="M129.92087,190.31311c0,0 5.28158,-2.52163 7.71313,-2.94723c2.4054,-0.42104 7.96982,-0.10858 7.96982,-0.10858" fill="none" stroke="#2e3844" stroke-width="1" stroke-linecap="round"></path><path d="M130.17919,193.12082c-0.77019,-1.11565 2.00278,-3.24326 5.39513,-4.40788c2.54697,-0.87443 6.37153,-1.00729 8.56664,-0.02411c0.72854,0.3263 1.23298,1.49839 1.51095,1.84592c0.5696,0.71213 -4.62524,1.58793 -7.00653,2.40549c-3.39228,1.16464 -7.69595,1.29622 -8.46613,0.18058z" fill="#171c22" stroke="none" stroke-width="0" stroke-linecap="butt"></path><path d="M144.11083,201.79752c0,0 -3.51432,-0.10702 -5.67275,-0.73852c-2.29832,-0.67243 -7.72382,-3.18097 -7.72382,-3.18097" fill="none" stroke="#2e3844" stroke-width="1.5" stroke-linecap="round"></path><path d="M137.91747,197.76931c2.70784,0.74169 7.96343,1.14347 6.97162,2.27227c-0.82964,0.94424 -4.15062,0.9146 -6.85848,0.17289c-2.70784,-0.74169 -9.05475,-2.7826 -7.2784,-4.15467c0.6951,-0.53689 4.45743,0.96782 7.16527,1.7095z" fill="#171c22" stroke="none" stroke-width="0" stroke-linecap="butt"></path><path d="M130.46207,195.31115l-0.1101,-2.90065c0,0 2.379,-0.82265 5.37928,-0.71646c4.96527,0.17575 18.58501,0.79478 34.84698,1.57429c3.16885,0.1519 6.87474,0.31099 10.28389,0.46211c4.42268,0.19607 8.54026,0.38324 12.34342,0.56961c11.38655,0.55798 19.20122,1.01474 19.20122,1.01474l-0.48651,4.87552c0,0 -6.80369,-0.49445 -15.83789,-1.03706c-5.38582,-0.32348 -11.76844,-0.82908 -17.1978,-1.11406c-2.37316,-0.12456 -4.47019,-0.07079 -6.38005,-0.16983c-5.75544,-0.29851 -13.20535,-1.08518 -20.87329,-1.39697c-5.98436,-0.24333 -12.41005,-0.0101 -16.24667,-0.25638c-3.13149,-0.20106 -4.92244,-0.90484 -4.92244,-0.90484z" fill="#6d6d48" stroke="#000e25" stroke-width="1.2" stroke-linecap="butt"></path><path d="M124.42285,192.6936l84.29497,4.10231" fill="none" stroke="url(#color-2)" stroke-width="1.5" stroke-linecap="round"></path><path d="M-47.28463,195.53606l-1.57652,-0.72897l2.36848,-0.35522l-2.61032,-0.83111c0,0 7.94331,-1.33073 9.73639,-1.64073c0.83585,-0.14449 0.56121,-0.1397 0.56121,-0.1397l-14.90158,-2.85853c0,0 8.74827,-0.66232 11.21407,-0.99077c1.84112,-0.24523 2.26217,-0.80424 2.26217,-0.80424l-1.66534,-0.68054l0.90623,-0.38573l-2.01094,-1.28629l1.26505,-0.28363l-7.77959,-3.11144l6.22004,-0.67358l-0.57933,-1.15091l1.76664,-0.51931l-5.3172,-0.88154l2.36446,-0.56337l-6.22309,-1.88823l11.68695,-1.16138l-2.43194,-1.72488l17.03705,1.07658l-6.7809,-2.9558l23.51214,4.12308l-1.9057,-1.91898c0,0 2.48511,-0.61432 4.97306,-0.27082c1.34008,0.18501 3.24206,1.52573 5.91443,1.98509c0.71311,0.12258 2.22913,-0.22354 4.16656,0.02957c2.00912,0.26248 6.36002,1.89647 8.69493,2.26934c1.12219,0.1792 2.616,0.00545 3.46537,0.06133c2.6261,0.17277 3.4382,0.15746 3.4382,0.15746l-1.3815,-1.81076c0,0 4.51163,0.08222 7.42296,0.49334c1.12383,0.15871 7.37042,1.63195 11.39714,2.36429c2.25271,0.40969 3.51336,0.29617 3.51336,0.29617l-4.95974,-1.90124c0,0 3.66911,0.03019 5.72678,0.35366c2.05765,0.32348 6.34839,1.4837 9.01181,2.12214c2.33435,0.55958 2.78243,0.2785 2.78243,0.2785c0,0 -0.01456,-0.04957 -0.77905,-0.39652c-0.49057,-0.22264 -1.53096,-0.69329 -1.53096,-0.69329c0,0 1.26385,-0.15312 2.87058,-0.0223c3.52883,0.28736 9.13284,1.00369 9.61065,1.0744c1.32226,0.19559 0.03452,-1.21366 0.03452,-1.21366l12.31576,1.96872l0.37877,-0.60107l10.97715,1.60061l-0.70136,-1.7307l40.19385,5.75791l-0.75926,14.45603c0,0 -11.72803,2.99689 -20.58395,2.7783c-0.55582,-0.01373 -6.15034,-0.13872 -6.15034,-0.13872l1.08886,-0.90715l-25.49604,0.14298l3.63566,-1.38336c0,0 -5.34783,-0.70495 -9.24989,-0.26698c-1.27539,0.14314 -3.71489,1.23507 -6.06022,1.77305c-3.11408,0.71435 -6.07732,0.89428 -6.07732,0.89428c0,0 6.01163,-2.91909 5.13575,-2.94275c-5.80679,-0.15711 -11.67559,-0.26427 -14.77347,-0.1715c-5.30292,0.1588 -9.54414,1.92873 -9.54414,1.92873c0,0 3.33779,-2.37199 2.83726,-2.37221c-6.2292,-0.00272 -17.75519,1.13314 -17.75519,1.13314l1.85819,-1.414l-9.0666,0.35153l2.16344,-0.99277l-18.78582,1.80461l1.98198,-2.1926c0,0 -0.78271,-0.12445 -0.82334,-0.12566c-1.97246,-0.05712 -12.43742,2.06748 -12.43742,2.06748l1.97249,-2.04027c0,0 -7.53886,0.67474 -10.61103,0.82001c-2.87301,0.13585 -7.26452,0.02521 -7.26452,0.02521c0,0 4.06601,-1.65533 2.90908,-1.69523c-4.6358,-0.15977 -7.43432,-0.25022 -9.90293,-0.34366c-6.38965,-0.24189 -12.89544,-1.02533 -12.89544,-1.02533z" fill="#171c22" stroke="#001026" stroke-width="1.2" stroke-linecap="butt"></path><path d="M108.33433,193.91393c2.17369,0.72364 2.75231,4.50832 2.02462,5.76165c-0.72769,1.25335 -3.70982,1.37848 -5.8835,0.65486c-2.17369,-0.72364 -3.68239,-2.00249 -2.95468,-3.25585c0.72769,-1.25335 4.6399,-3.88428 6.81362,-3.16065z" fill="#ffea00" stroke="none" stroke-width="0" stroke-linecap="butt"></path><path d="M59.68244,184.26695c1.58851,2.30103 -0.43955,4.21152 -5.03362,5.78876c-4.59411,1.57724 -9.86757,0.61173 -11.45608,-1.6893c-1.58851,-2.30103 0.68735,-4.76512 5.28143,-6.34238c4.59411,-1.57724 9.61975,-0.0581 11.20826,2.24293z" fill="#ffea00" stroke="#001026" stroke-width="1.2" stroke-linecap="butt"></path><path d="M120.32579,188.49048c1.84524,2.67291 0.23172,4.34548 -3.92486,5.77253c-4.15656,1.42704 -8.78954,0.75371 -10.63479,-1.9192c-1.84524,-2.67291 -2.62962,-4.97991 1.52694,-6.40692c4.15656,-1.42704 11.18748,-0.11932 13.03273,2.55361z" fill="#ffea00" stroke="none" stroke-width="0" stroke-linecap="butt"></path><path d="M118.04955,189.04637c1.21946,1.76645 -8.75003,4.49506 -9.9695,2.7286c-1.21946,-1.76645 -1.32069,-3.64192 1.63787,-4.65764c1.74465,-0.59897 3.91596,-0.24256 5.55541,0.14815c1.1407,0.27186 2.27586,1.0561 2.77622,1.7809z" fill="none" stroke="#000e25" stroke-width="1.2" stroke-linecap="butt"></path><path d="M56.90611,184.75104c0.551,0.79814 0.62767,1.56333 0.03347,2.42359c-0.61704,0.89337 -2.11867,1.62411 -3.66302,2.1543c-3.03147,1.04075 -6.52483,-0.2244 -7.64802,-1.85139c-1.12319,-1.62699 0.54911,-2.99971 3.58058,-4.04047c3.03147,-1.04075 6.57381,-0.31302 7.69701,1.31397z" fill="none" stroke="#000e25" stroke-width="1.2" stroke-linecap="butt"></path><path d="M55.09817,185.28994c0.2976,0.43108 0.28467,0.73917 0.14663,1.12746c-0.24152,0.67943 -1.02028,1.38128 -2.29303,1.81824c-2.00016,0.6867 -4.69727,0.01695 -5.37593,-1.21095c-0.72261,-1.30747 0.24715,-2.02592 2.24731,-2.7126c2.00016,-0.6867 4.45666,-0.20751 5.27502,0.97786z" fill="none" stroke="#000e25" stroke-width="0.7" stroke-linecap="butt"></path><path d="M52.19892,185.92833c0.1366,0.19787 -0.07797,0.45134 -0.42049,0.63244c-0.08856,0.04683 -0.18566,0.0888 -0.28744,0.12378c-0.49557,0.17015 -1.03668,0.10619 -1.2086,-0.14283c-0.17193,-0.24903 0.09047,-0.58882 0.58604,-0.75896c0.49557,-0.17015 1.15858,-0.10345 1.3305,0.1456z" fill="#000e25" stroke="#000e25" stroke-width="0.5" stroke-linecap="butt"></path><path d="M128.57288,200.75644c-0.02656,-0.19185 0.21951,-14.75134 0.22662,-14.80015c0.0833,-0.5718 1.30765,-0.39698 1.30765,-0.39698c0,0 0.85833,0.11094 0.89889,0.38909c0.00592,0.04068 -0.11007,14.07253 -0.17398,14.51139c-0.12006,0.82382 -0.80991,0.72466 -1.16145,0.79097c-0.64756,0.12211 -1.06054,-0.2261 -1.09772,-0.4943z" fill="#6d6d48" stroke="#000e25" stroke-width="1.2" stroke-linecap="butt"></path><path d="M105.85403,204.69192l-0.89489,0.03626l-0.82519,-0.6158l1.07195,-0.39447l0.85237,0.03319l1.2265,-0.48248l0.40657,0.76276z" fill="#aeb5b1" stroke="#000e25" stroke-width="0" stroke-linecap="butt"></path><path d="M107.94877,204.96437l-0.28309,-0.46803c0,0 0.67659,-0.29628 0.98452,-0.49686c0.10455,-0.0681 0.19499,-0.19428 0.3254,-0.30648c0.20023,-0.17221 0.42838,-0.32894 0.42838,-0.32894l0.67894,0.8676z" fill="#aeb5b1" stroke="none" stroke-width="0" stroke-linecap="butt"></path><path d="M113.08789,203.60158c0.27965,0.40508 -0.91116,1.27965 -1.64916,1.11654c-0.51467,-0.11374 0.29371,-0.29881 0.01406,-0.7039c-0.27965,-0.40508 -0.20138,-0.68945 0.27186,-0.85192c0.47324,-0.16249 1.08359,0.03417 1.36323,0.43927z" fill="#aeb5b1" stroke="none" stroke-width="0" stroke-linecap="butt"></path><path d="M119.91665,202.7743c0.22466,0.3254 0.06652,0.70597 -0.35315,0.85007c-0.41969,0.14407 -0.94198,-0.0029 -1.16662,-0.3283c-0.22466,-0.3254 -0.06654,-0.706 0.35316,-0.85008c0.41969,-0.14407 0.94197,0.00291 1.16662,0.3283z" fill="#aeb5b1" stroke="none" stroke-width="0" stroke-linecap="butt"></path><path d="M126.5965,201.2098c0,0 -0.00581,0.21024 -0.59515,0.41258c-0.58934,0.20233 -1.21313,0.09682 -1.4332,-0.22193c-0.22006,-0.31875 0.11253,-0.69308 0.70184,-0.8954c0.58934,-0.20233 1.32652,0.70475 1.32652,0.70475z" fill="#aeb5b1" stroke="none" stroke-width="0" stroke-linecap="butt"></path><path d="M121.8699,198.01332c-0.47679,-0.69065 -0.61408,-1.15756 -0.23015,-1.28937c0.21231,-0.07288 0.62722,-0.44983 0.94097,-0.22382c0.25374,0.18275 0.40437,0.92687 0.61753,1.23566c0.47679,0.69065 0.01806,1.51095 -0.36589,1.64277c-0.38396,0.13182 -0.48569,-0.67457 -0.96247,-1.3652z" fill="#aeb5b1" stroke="none" stroke-width="0" stroke-linecap="butt"></path><path d="M126.49999,196.84022c0.40343,0.58438 -0.09092,1.1914 -0.40345,1.29868c-0.31252,0.1073 -0.32488,-0.32574 -0.7283,-0.91015c-0.40343,-0.58438 -0.47713,-1.1451 -0.1646,-1.25241c0.31252,-0.1073 0.89292,0.27947 1.29635,0.86386z" fill="#aeb5b1" stroke="none" stroke-width="0" stroke-linecap="butt"></path><path d="M115.55896,198.14224c0.46304,0.67072 -0.17787,1.65259 -0.61542,1.80282c-0.43753,0.15023 -0.50601,-0.58813 -0.96904,-1.25884c-0.46304,-0.67072 -0.4837,-1.33622 -0.04616,-1.48644c0.43753,-0.15023 1.16756,0.27172 1.63059,0.94246z" fill="#aeb5b1" stroke="none" stroke-width="0" stroke-linecap="butt"></path><path d="M119.10227,197.65459c0.39425,0.57113 -0.2075,1.26117 -0.56468,1.3838c-0.35717,0.12262 -0.33448,-0.36865 -0.72876,-0.93973c-0.39425,-0.57113 -0.42433,-1.1335 -0.06717,-1.2561c0.35717,-0.12262 0.96632,0.24095 1.36057,0.81208z" fill="#aeb5b1" stroke="none" stroke-width="0" stroke-linecap="butt"></path><path d="M110.98453,198.12123c0.25671,0.37187 -0.33096,0.79785 -0.57207,0.88061c-0.2411,0.08276 -0.04427,-0.209 -0.30098,-0.58087c-0.25671,-0.37187 -0.26941,-0.74048 -0.02832,-0.82323c0.2411,-0.08276 0.64466,0.1516 0.9014,0.52351z" fill="#aeb5b1" stroke="none" stroke-width="0" stroke-linecap="butt"></path><path d="M106.77077,196.42852c0.27101,0.00813 0.49103,0.38794 0.49142,0.84836c0.00043,0.46041 -0.96528,0.90482 -1.2363,0.89665c-0.271,-0.00813 0.25531,-0.46571 0.25489,-0.92611c-0.00043,-0.46041 0.21895,-0.82704 0.48996,-0.81891z" fill="#aeb5b1" stroke="none" stroke-width="0" stroke-linecap="butt"></path><path d="M103.2675,195.19537c0.36757,-0.24818 0.81847,-0.32985 1.00708,-0.18242c0.18861,0.14743 0.04352,0.46814 -0.32404,0.71635c-0.36757,0.24818 -0.81848,0.32984 -1.00708,0.18242c-0.18861,-0.14743 -0.04353,-0.46814 0.32406,-0.71633z" fill="#aeb5b1" stroke="none" stroke-width="0" stroke-linecap="butt"></path><path d="M108.31509,182.42354c0.01848,-0.23515 0.98534,-0.63207 1.30126,-0.74054c0.4688,-0.16095 1.03833,-0.01686 1.27215,0.32182c0.2338,0.33865 0.04331,0.74369 -0.42548,0.90465c-0.4688,0.16095 -1.03833,0.01686 -1.27215,-0.32182c-0.07625,-0.11046 -0.88475,-0.05032 -0.87578,-0.16412z" fill="#aeb5b1" stroke="none" stroke-width="0" stroke-linecap="butt"></path><path d="M113.832,182.44453c0.24071,0.34864 0.06663,0.75802 -0.38874,0.91436c-0.45539,0.15635 -1.01971,0.00046 -1.26035,-0.34818c-0.24071,-0.34864 -0.06661,-0.75802 0.38877,-0.91435c0.45539,-0.15635 1.01969,-0.00045 1.26032,0.34818z" fill="#aeb5b1" stroke="none" stroke-width="0" stroke-linecap="butt"></path><path d="M108.04463,181.70947c0.18566,0.26894 -0.01125,0.60627 -0.43987,0.75344c-0.42861,0.14717 -0.92657,0.04838 -1.11224,-0.22056c-0.18566,-0.26894 0.01127,-0.60626 0.43986,-0.75343c0.42861,-0.14717 0.92658,-0.0484 1.11223,0.22053z" fill="#aeb5b1" stroke="none" stroke-width="0" stroke-linecap="butt"></path><path d="M106.4323,181.45983c0.19942,0.28888 0.07876,0.61997 -0.26946,0.73952c-0.34822,0.11955 -0.79221,-0.0177 -0.99161,-0.30657c-0.19942,-0.28888 -0.07877,-0.62 0.26945,-0.73953c0.34822,-0.11955 0.79221,0.0177 0.99165,0.30658z" fill="#aeb5b1" stroke="none" stroke-width="0" stroke-linecap="butt"></path><path d="M116.69354,183.11313c0.19942,0.28888 0.06793,0.62369 -0.29369,0.74784c-0.36163,0.12416 -0.81647,-0.00936 -1.0159,-0.29826c-0.19942,-0.28888 -0.06794,-0.62368 0.29372,-0.74785c0.36163,-0.12416 0.81644,0.00938 1.01588,0.29823z" fill="#aeb5b1" stroke="none" stroke-width="0" stroke-linecap="butt"></path><path d="M120.4865,183.30577c0.14631,0.21195 0.28905,0.44459 0.20432,0.64375c-0.08252,0.19399 -0.38707,0.35608 -0.65144,0.44682c-0.53576,0.18393 -1.20423,-0.0061 -1.49305,-0.42447c-0.28882,-0.41836 -0.08862,-0.90661 0.44713,-1.09056c0.53576,-0.18393 1.2042,0.00609 1.49303,0.42449z" fill="#aeb5b1" stroke="none" stroke-width="0" stroke-linecap="butt"></path><path d="M123.59444,184.15751c0.17328,0.25099 0.56719,0.65282 0.35376,0.85977c-0.0915,0.08872 -0.65413,0.04652 -0.80284,0.09759c-0.49557,0.17015 -1.098,0.01736 -1.34556,-0.34124c-0.24756,-0.3586 -0.04651,-0.78725 0.44908,-0.9574c0.49557,-0.17015 1.098,-0.01735 1.34557,0.34125z" fill="#aeb5b1" stroke="none" stroke-width="0" stroke-linecap="butt"></path><path d="M127.01107,185.28255c0.10506,0.15218 0.6006,0.46791 0.56593,0.61871c-0.04932,0.21441 -0.69517,0.25121 -0.97827,0.34841c-0.48218,0.16555 -1.07932,0.00095 -1.33373,-0.3676c-0.25444,-0.36857 -0.06983,-0.80154 0.41235,-0.96707c0.48218,-0.16555 1.07932,-0.00095 1.33376,0.36762z" fill="#aeb5b1" stroke="none" stroke-width="0" stroke-linecap="butt"></path><path d="M126.61473,189.83624c0.17193,0.24903 0.03984,0.54409 -0.29501,0.65905c-0.33485,0.11497 -0.74565,0.00627 -0.91755,-0.24277c-0.17193,-0.24903 -0.03984,-0.54411 0.29504,-0.65907c0.15382,-0.05281 0.88809,-1.5951 1.18839,-1.51784c0.62159,0.1599 -0.36371,1.62599 -0.27079,1.76062z" fill="#aeb5b1" stroke="none" stroke-width="0" stroke-linecap="butt"></path><path d="M123.03751,188.56551c0.18566,0.26894 0.01043,0.59881 -0.39138,0.73677c-0.40182,0.13793 -0.87806,0.03174 -1.06372,-0.23719c-0.18566,-0.26894 -0.01044,-0.5988 0.39137,-0.73678c0.07922,-0.02718 0.48714,-0.29225 0.70252,-0.57616c0.22445,-0.29582 0.25658,-0.61027 0.33927,-0.60092c0.13246,0.01494 0.21263,0.30771 0.16808,0.67185c-0.03633,0.29698 -0.19596,0.67026 -0.14616,0.74245z" fill="#aeb5b1" stroke="none" stroke-width="0" stroke-linecap="butt"></path><path d="M118.86832,188.53331c-0.28498,0.00932 -0.55297,-0.2941 -0.59851,-0.67772c-0.04555,-0.3836 0.14855,-0.70215 0.43352,-0.71145c0.28498,-0.00932 0.55293,0.29409 0.59849,0.67771c0.04555,0.3836 -0.14854,0.70214 -0.43352,0.71146z" fill="#aeb5b1" stroke="none" stroke-width="0" stroke-linecap="butt"></path><path d="M115.93999,187.41013c0.20629,0.29883 0.01523,0.66411 -0.42677,0.81586c-0.44199,0.15174 -0.96756,0.03252 -1.17385,-0.26633c-0.20629,-0.29883 -0.01524,-0.66412 0.42675,-0.81586c0.21201,-0.07279 -0.66957,-1.17372 -0.46359,-1.13188c0.22347,0.04537 1.53006,1.24271 1.63742,1.39823z" fill="#aeb5b1" stroke="none" stroke-width="0" stroke-linecap="butt"></path><path d="M107.3891,189.36416c0.20629,0.29883 0.08037,0.64173 -0.28126,0.7659c-0.36163,0.12416 -0.82203,-0.01746 -1.02835,-0.3163c-0.20629,-0.29883 -0.55484,-1.41591 -0.1932,-1.54007c0.36163,-0.12416 1.29648,0.79161 1.50278,1.09045z" fill="#aeb5b1" stroke="none" stroke-width="0" stroke-linecap="butt"></path><path d="M104.25793,191.08616c0.17193,0.24903 0.09413,0.52546 -0.17376,0.61744c-0.26788,0.09196 -0.62441,-0.03535 -0.7963,-0.28439c-0.09821,-0.14227 -0.80179,-0.59314 -0.74815,-0.71376c0.04027,-0.09055 0.80701,0.13578 0.9219,0.09634c0.2679,-0.09197 0.62442,0.03534 0.79632,0.28439z" fill="#aeb5b1" stroke="none" stroke-width="0" stroke-linecap="butt"></path><path d="M111.33478,189.16968c-0.40182,0.13793 -0.96562,0.1657 -1.1719,-0.13313c-0.20629,-0.29883 -0.25093,-1.20789 0.1509,-1.34584c0.13698,-0.04702 -1.09436,-1.01736 -0.61032,-1.03374c0.27641,-0.00934 1.57542,1.1281 1.7114,1.32505c0.20629,0.29883 0.32171,1.0497 -0.08007,1.18768z" fill="#aeb5b1" stroke="none" stroke-width="0" stroke-linecap="butt"></path><path d="M95.90036,192.45117c1.13498,1.64407 1.12417,3.59633 -1.05106,5.0478c-0.83842,0.55948 -2.29011,0.96737 -3.689,1.36902c-6.53584,1.87652 -10.97547,-0.18193 -12.54793,-2.45974c-1.57247,-2.27779 1.07094,-4.22005 5.60252,-5.77585c4.5316,-1.55578 10.113,-0.45901 11.68546,1.81878z" fill="#ffea00" stroke="none" stroke-width="0" stroke-linecap="butt"></path><path d="M72.30574,192.95103c1.412,2.04536 0.96208,3.41794 -2.94447,4.75915c-3.90652,1.34119 -9.41704,0.45313 -10.82906,-1.5922c-1.412,-2.04536 -0.16378,-3.27556 3.74277,-4.61677c3.90652,-1.34119 8.61875,-0.59559 10.03077,1.44982z" fill="#ffea00" stroke="none" stroke-width="0" stroke-linecap="butt"></path><path d="M102.00307,185.8789c1.10499,1.6006 -0.62981,2.29859 -3.81755,3.39303c-3.18773,1.09443 -6.93005,0.50679 -7.86068,-0.84128c-0.93063,-1.34809 0.91124,-2.49936 4.09898,-3.59376c3.18773,-1.09443 6.64864,-0.30604 7.57926,1.04205z" fill="#ffea00" stroke="none" stroke-width="0" stroke-linecap="butt"></path><path d="M35.14519,182.79511c2.2919,2.27128 3.47468,4.22189 2.15888,4.90796c-1.31585,0.68605 -4.8645,-0.48891 -7.15639,-2.76018c-2.2919,-2.27128 -2.45005,-4.15718 -1.13421,-4.84325c1.31585,-0.68605 3.83985,0.4242 6.13175,2.69549z" fill="#ffea00" stroke="none" stroke-width="0" stroke-linecap="butt"></path><path d="M13.18189,190.65568c1.60455,2.32427 1.68922,4.62601 0.18911,5.14102c-1.50011,0.51501 -4.01694,-0.95168 -5.6215,-3.27597c-1.60455,-2.32427 -1.68923,-4.62598 -0.18912,-5.141c1.50011,-0.51501 4.01694,0.95166 5.6215,3.27596z" fill="#ffea00" stroke="none" stroke-width="0" stroke-linecap="butt"></path><path d="M-22.05548,190.31121c1.68477,2.44049 1.94704,4.17303 -0.24061,4.92412c-2.18766,0.75106 -5.43096,0.04197 -7.11576,-2.39853c-1.68477,-2.44049 -1.77578,-4.12774 0.41189,-4.87881c2.18766,-0.75106 5.25971,-0.08727 6.94448,2.35322z" fill="#ffea00" stroke="none" stroke-width="0" stroke-linecap="butt"></path><path d="M-24.67538,184.24003c-1.12106,-0.8457 -0.3769,-3.06611 1.87717,-4.64794c2.25406,-1.58183 4.99014,-2.17857 6.11118,-1.33286c1.12106,0.8457 0.54218,2.9435 -1.65081,4.57023c-2.02771,1.50411 -5.21646,2.25629 -6.3375,1.41057z" fill="#ffea00" stroke="none" stroke-width="0" stroke-linecap="butt"></path><path d="M4.14925,181.56185c0.57494,1.41405 -1.40413,2.43136 -4.12991,2.94311c-2.72576,0.51173 -6.14171,-0.27796 -6.71665,-1.69199c-0.57494,-1.41405 1.9119,-2.70979 4.63767,-3.22155c2.72576,-0.51173 5.63399,0.55639 6.20889,1.97043z" fill="#ffea00" stroke="none" stroke-width="0" stroke-linecap="butt"></path><path d="M-3.01306,186.66444c3.64607,1.89306 5.8182,5.09217 3.93854,7.07356c-1.87967,1.98139 -7.09934,1.99478 -10.74541,0.10172c-1.6639,-0.86393 -3.60858,-1.83713 -4.37405,-2.94802c-0.91191,-1.32334 -0.41201,-2.79588 0.60984,-3.87305c1.87967,-1.98139 6.92502,-2.2473 10.57107,-0.35424z" fill="#ffea00" stroke="none" stroke-width="0" stroke-linecap="butt"></path><path d="M34.51241,193.2951c-0.51295,2.16799 -4.02929,2.65382 -7.60945,2.43474c-3.58015,-0.21908 -6.39004,-1.98902 -6.27602,-3.95324c0.11401,-1.96423 3.45734,-2.87396 7.0375,-2.65485c3.58015,0.21908 7.36023,2.00837 6.84795,4.17336z" fill="#ffea00" stroke="none" stroke-width="0" stroke-linecap="butt"></path><path d="M49.96052,192.92406c2.3275,0.96999 3.79174,2.40204 2.78739,3.74968c-1.00433,1.34764 -3.70839,1.4466 -6.03591,0.47659c-2.3275,-0.96999 -3.79173,-2.40202 -2.78738,-3.74968c1.00433,-1.34764 3.70838,-1.44661 6.03591,-0.4766z" fill="#ffea00" stroke="none" stroke-width="0" stroke-linecap="butt"></path><path d="M76.66298,184.13283c2.4038,1.48863 4.19998,3.37986 2.96288,4.45585c-1.23709,1.07599 -4.41496,0.8192 -6.8188,-0.66941c-2.4038,-1.48863 -4.53644,-3.05608 -3.29935,-4.13211c1.23709,-1.07599 4.75146,-1.14298 7.15527,0.34563z" fill="#ffea00" stroke="none" stroke-width="0" stroke-linecap="butt"></path><path d="M93.45229,193.56929c1.16598,1.68898 -0.43445,3.0992 -3.55969,4.17214c-3.12523,1.07295 -6.91386,0.12467 -8.07982,-1.56427c-1.16598,-1.68898 0.92793,-3.06037 4.05316,-4.13331c3.12523,-1.07295 6.42037,-0.16349 7.58637,1.52549z" fill="none" stroke="#000e25" stroke-width="1.2" stroke-linecap="butt"></path><path d="M70.33797,193.21013c0.79158,1.14666 0.21633,2.65018 -2.34636,3.52998c-2.5627,0.87981 -6.22997,-0.0001 -7.02158,-1.14673c-0.79158,-1.14666 0.61557,-2.1549 3.17824,-3.03469c2.5627,-0.87981 5.39808,-0.49518 6.18969,0.65146z" fill="none" stroke="#000e25" stroke-width="1.05" stroke-linecap="butt"></path><path d="M-3.82706,188.71705c2.44237,1.21843 4.30587,2.75547 2.912,4.29039c-1.39388,1.53495 -4.99924,1.61459 -7.44158,0.39617c-2.44237,-1.21843 -4.42207,-2.92379 -3.0282,-4.45874c1.39388,-1.53495 5.11546,-1.44626 7.5578,-0.22782z" fill="none" stroke="#000e25" stroke-width="1.2" stroke-linecap="butt"></path><path d="M-22.84928,191.1217c1.04829,1.51853 0.68205,3.16701 -0.81806,3.68206c-1.50011,0.51501 -3.56601,-0.2985 -4.61433,-1.81703c-1.04829,-1.51853 -0.68205,-3.16701 0.81806,-3.68206c1.50011,-0.51501 3.56601,0.2985 4.61433,1.81703z" fill="none" stroke="#000e25" stroke-width="1" stroke-linecap="butt"></path><path d="M2.60593,181.7577c0.59903,0.86774 -0.70076,1.55942 -2.65923,2.2318c-1.95847,0.67238 -4.22543,0.23347 -4.82446,-0.63426c-0.59903,-0.86774 0.82112,-1.81578 2.8856,-2.30951c1.99924,-0.47814 3.99909,-0.15576 4.59812,0.71198z" fill="none" stroke="#000e25" stroke-width="0.5" stroke-linecap="butt"></path><path d="M1.18407,182.10702c0.3744,0.54234 -0.40431,1.04116 -1.60044,1.45183c-1.19611,0.41065 -2.75119,0.11673 -3.12562,-0.42563c-0.3744,-0.54234 0.57366,-1.1277 1.76977,-1.53837c1.19611,-0.41065 2.58186,-0.0302 2.95625,0.51214z" fill="none" stroke="#000e25" stroke-width="0.5" stroke-linecap="butt"></path><path d="M-0.68675,182.33756c0.05249,0.07609 -0.16058,0.2255 -0.47595,0.33377c-0.31538,0.10827 -0.61359,0.13439 -0.66611,0.05831c-0.05249,-0.07609 0.16057,-0.2255 0.47594,-0.33377c0.31538,-0.10827 0.6136,-0.1344 0.6661,-0.05832z" fill="#000e25" stroke="#000e25" stroke-width="0.5" stroke-linecap="butt"></path><path d="M-24.98687,191.96441c0.12835,0.18594 0.06351,0.39465 -0.14483,0.46619c-0.20835,0.07152 -0.4813,-0.02122 -0.60966,-0.20717c-0.12835,-0.18594 -0.06353,-0.39468 0.14483,-0.46619c0.20835,-0.07152 0.48132,0.02121 0.60968,0.20715z" fill="#000e25" stroke="#000e25" stroke-width="0.5" stroke-linecap="butt"></path><path d="M-20.69752,181.31201c0.23959,-0.08225 0.52057,-0.02335 0.62753,0.13162c0.10696,0.15495 -0.00055,0.34724 -0.24015,0.42951c-0.23959,0.08225 -0.52056,0.02334 -0.62753,-0.13163c-0.10696,-0.15495 0.00054,-0.34722 0.24014,-0.42949z" fill="#000e25" stroke="#000e25" stroke-width="0.5" stroke-linecap="butt"></path><path d="M-5.85804,190.6296c0.2851,0.25927 0.64989,0.61543 0.3303,0.79842c-0.31961,0.18299 -0.95785,0.00479 -1.24295,-0.25446c-0.2851,-0.25927 -0.55546,-0.51537 -0.23586,-0.69836c0.31961,-0.18299 0.86343,-0.10484 1.1485,0.15442z" fill="#000e25" stroke="#000e25" stroke-width="0.5" stroke-linecap="butt"></path><path d="M10.60332,191.806c0.13906,0.20145 0.17577,0.39084 0.08204,0.42302c-0.09375,0.03221 -0.28248,-0.10501 -0.42155,-0.30645c-0.13906,-0.20145 -0.17577,-0.39086 -0.08204,-0.42303c0.09375,-0.03221 0.28246,0.10501 0.42155,0.30645z" fill="none" stroke="#000e25" stroke-width="0.5" stroke-linecap="butt"></path><path d="M12.09699,191.53613c1.00551,1.45655 1.15351,2.86637 0.3305,3.14891c-0.82298,0.28255 -2.30528,-0.66917 -3.3108,-2.12573c-1.00551,-1.45655 -1.15351,-2.86637 -0.3305,-3.14891c0.82298,-0.28255 2.30528,0.66917 3.3108,2.12573z" fill="none" stroke="#000e25" stroke-width="0.5" stroke-linecap="butt"></path><path d="M9.38663,190.28017c0.61463,-0.21101 1.63319,0.37159 2.275,1.30131c0.64182,0.92971 0.66387,1.85447 0.04925,2.06545c-0.61463,0.21101 -1.63321,-0.3716 -2.27502,-1.30131c-0.64182,-0.92971 -0.66387,-1.85445 -0.04923,-2.06547z" fill="none" stroke="#000e25" stroke-width="0.5" stroke-linecap="butt"></path><path d="M28.20893,192.70286c0.11765,0.17043 -0.0065,0.38403 -0.27737,0.477c-0.27087,0.093 -0.58581,0.0302 -0.70347,-0.14024c-0.11765,-0.17043 0.0065,-0.38403 0.27737,-0.477c0.27087,-0.093 0.58581,-0.0302 0.70347,0.14024z" fill="#000e25" stroke="#000e25" stroke-width="0.5" stroke-linecap="butt"></path><path d="M33.63789,184.14071c0.21396,0.30992 0.21849,0.61911 0.01014,0.69064c-0.20835,0.07152 -0.55067,-0.1217 -0.76462,-0.43158c-0.21396,-0.30992 -0.21848,-0.61913 -0.01013,-0.69066c0.20835,-0.07152 0.55067,0.12172 0.76461,0.43161z" fill="#000e25" stroke="#000e25" stroke-width="0.5" stroke-linecap="butt"></path><path d="M49.01015,195.35103c0.13065,0.18928 0.03029,0.41352 -0.22421,0.50089c-0.2545,0.08736 -0.56671,0.00478 -0.69736,-0.18449c-0.13065,-0.18928 -0.03025,-0.41354 0.22422,-0.50088c0.2545,-0.08736 0.5667,-0.00476 0.69735,0.18448z" fill="#000e25" stroke="#000e25" stroke-width="0.5" stroke-linecap="butt"></path><path d="M66.53836,194.75483c0.15127,0.21916 -0.05181,0.50862 -0.45361,0.64658c-0.40182,0.13793 -0.85019,0.07215 -1.00149,-0.14703c-0.15127,-0.21916 0.05181,-0.50862 0.45361,-0.64658c0.40182,-0.13793 0.85019,-0.07215 1.00149,0.14703z" fill="#000e25" stroke="#000e25" stroke-width="0.5" stroke-linecap="butt"></path><path d="M75.27413,186.28944c0.18566,0.26894 0.17333,0.5429 -0.02758,0.61187c-0.20089,0.06898 -0.51427,-0.09316 -0.69996,-0.3621c-0.18566,-0.26894 -0.17332,-0.54289 0.02759,-0.61187c0.20089,-0.06898 0.51427,0.09316 0.69996,0.3621z" fill="#000e25" stroke="#000e25" stroke-width="0.5" stroke-linecap="butt"></path><path d="M97.21453,187.39129c0.09629,0.13945 -0.14058,0.3606 -0.52897,0.49397c-0.38846,0.13334 -0.78135,0.12841 -0.87763,-0.01104c-0.09629,-0.13945 0.14058,-0.36061 0.52898,-0.49397c0.38846,-0.13334 0.78134,-0.12841 0.87764,0.01106z" fill="#000e25" stroke="#000e25" stroke-width="0.5" stroke-linecap="butt"></path><path d="M106.38739,198.76658c0.08941,0.12948 0.05327,0.27173 -0.08067,0.31772c-0.13394,0.04598 -0.31497,-0.02171 -0.40439,-0.15119c-0.08941,-0.12948 -0.0533,-0.27174 0.08063,-0.31773c0.13394,-0.04598 0.31497,0.02169 0.40438,0.1512z" fill="#000e25" stroke="#000e25" stroke-width="0.5" stroke-linecap="butt"></path><path d="M86.73116,193.51924c1.90639,-0.6545 4.01766,-0.36544 4.71564,0.6456c0.69798,1.01106 -0.28164,2.36126 -2.18802,3.01578c-1.90639,0.6545 -4.61409,0.41403 -5.63472,-1.26715c-0.62748,-1.03364 1.20068,-1.73973 3.10708,-2.39425z" fill="none" stroke="#000e25" stroke-width="0.5" stroke-linecap="butt"></path><path d="M98.99478,187.25257c0.39311,0.56944 0.13083,0.70995 -1.13488,1.14448c-1.26572,0.43455 -3.43477,0.34789 -3.82789,-0.22156c-0.39311,-0.56944 0.60177,-1.1697 1.86746,-1.60424c1.26572,-0.43455 2.70219,0.11185 3.0953,0.68131z" fill="none" stroke="#000e25" stroke-width="0.5" stroke-linecap="butt"></path><path d="M108.05802,198.35316c0.44129,0.63919 0.44921,1.12124 -0.36337,1.40018c-0.81257,0.27899 -2.74199,-0.22015 -3.18321,-0.85938c-0.44129,-0.63919 -0.47674,-1.05972 0.33581,-1.33868c0.81257,-0.27899 2.7695,0.15868 3.21076,0.79784z" fill="none" stroke="#000e25" stroke-width="0.5" stroke-linecap="butt"></path><path d="M69.06803,194.1952c0.53752,0.77862 -0.41423,1.62589 -2.08624,2.19992c-1.67203,0.57403 -3.66809,0.00997 -4.20559,-0.76864c-0.53752,-0.77862 0.64514,-1.39283 2.31715,-1.96687c1.67203,-0.57403 3.43716,-0.24306 3.97468,0.53557z" fill="none" stroke="#000e25" stroke-width="0.5" stroke-linecap="butt"></path><path d="M50.2541,194.92791c0.50544,0.73216 0.67997,1.19818 -0.3045,1.53616c-0.98445,0.338 -2.81775,0.02495 -3.32315,-0.70719c-0.50544,-0.73216 -0.1065,-0.87448 0.87795,-1.21246c0.98445,-0.338 2.24428,-0.34868 2.74969,0.38348z" fill="none" stroke="#000e25" stroke-width="0.5" stroke-linecap="butt"></path><path d="M51.35141,195.09781c0.35756,0.51795 0.24182,0.82267 0.12692,1.13219c-0.11201,0.30164 -0.2088,0.6134 -0.95291,0.71317c-1.10609,0.14831 -2.48864,-0.04186 -3.49004,-0.46066c-0.35012,-0.14643 -0.77583,-0.14178 -0.9587,-0.40672c-0.70599,-1.0227 -1.17913,-1.67754 0.19599,-2.14966c1.37513,-0.4721 4.3728,0.14897 5.0788,1.17166z" fill="none" stroke="#000e25" stroke-width="0.5" stroke-linecap="butt"></path><path d="M32.4968,193.18447c0.10861,1.62556 -2.11108,1.92632 -4.86816,1.79745c-2.7571,-0.12891 -5.04862,-1.1536 -5.03046,-2.24156c0.02151,-1.28664 2.47813,-2.10439 5.23522,-1.97553c2.7571,0.12891 4.57554,1.10498 4.6634,2.41963z" fill="none" stroke="#000e25" stroke-width="0.75" stroke-linecap="butt"></path><path d="M31.05963,192.98c0.20661,0.2993 -0.25646,0.4126 -0.44217,0.5866c-0.38398,0.3598 -0.98444,0.60826 -1.85655,0.69714c-1.67635,0.17085 -3.43262,-0.05452 -4.0664,-0.97262c-0.6338,-0.9181 0.20801,-1.19068 1.72373,-1.71108c1.51573,-0.52037 4.00757,0.48184 4.64139,1.39994z" fill="none" stroke="#000e25" stroke-width="0.5" stroke-linecap="butt"></path><path d="M20.22394,180.67025c3.06957,1.36365 5.67503,3.31962 4.25168,5.09969c-0.85335,1.0672 -3.48472,1.75966 -6.02986,1.56919c-1.70006,-0.1272 -3.30148,-0.84201 -4.53073,-1.38809c-3.06957,-1.36365 -4.50664,-3.14811 -3.0833,-4.92817c1.42335,-1.78007 6.32265,-1.71626 9.39223,-0.35261z" fill="#ffea00" stroke="none" stroke-width="0" stroke-linecap="butt"></path><path d="M19.04075,181.76246c2.05655,0.99692 4.1353,2.18909 3.07528,3.39366c-1.06001,1.20458 -4.55909,0.97799 -6.61562,-0.01893c-2.05655,-0.99692 -3.47925,-2.0499 -2.41919,-3.25447c1.06002,-1.20457 3.90302,-1.11719 5.95955,-0.12027z" fill="none" stroke="#000e25" stroke-width="0.75" stroke-linecap="butt"></path><path d="M18.74952,182.42475c1.42413,0.67666 2.17877,1.60105 1.58365,2.29232c-0.59508,0.69127 -2.68624,0.75495 -4.11033,0.07832c-1.42413,-0.67666 -2.4693,-2.02189 -1.87421,-2.7132c0.59508,-0.69127 2.97675,-0.33412 4.40086,0.34254z" fill="none" stroke="#000e25" stroke-width="0.5" stroke-linecap="butt"></path><path d="M17.79439,183.29602c0.17651,0.25565 0.05354,0.55425 -0.27458,0.66693c-0.32816,0.11266 -0.73727,-0.00327 -0.91376,-0.25893c-0.17651,-0.25565 -0.05353,-0.55424 0.2746,-0.66691c0.32816,-0.11266 0.73725,0.00327 0.91376,0.25893z" fill="#001026" stroke="#000e25" stroke-width="0.5" stroke-linecap="butt"></path><path d="M-4.95131,189.39258c1.7906,0.73529 2.91455,1.8796 2.19909,2.8554c-0.71546,0.97579 -2.99938,1.41353 -4.79002,0.67825c-1.7906,-0.73529 -3.11791,-2.17419 -2.40246,-3.14997c0.71546,-0.97579 3.2028,-1.11896 4.99339,-0.38365z" fill="none" stroke="#000e25" stroke-width="0.5" stroke-linecap="butt"></path><path d="M-23.01872,183.64411c-1.02636,-0.67265 -0.61072,-1.97485 0.78499,-3.11623c1.39572,-1.14139 2.98602,-1.75774 4.01238,-1.08507c1.02636,0.67265 0.61068,1.97485 -0.78503,3.11627c-1.3957,1.1414 -2.98601,1.75772 -4.01236,1.08507z" fill="none" stroke="#000e25" stroke-width="0.5" stroke-linecap="butt"></path><path d="M-22.2389,182.86496c-0.6638,-0.41914 -0.36993,-1.16205 0.54699,-1.94285c0.91691,-0.7808 2.28241,-1.15493 2.9462,-0.73579c0.6638,0.41914 0.25674,1.2009 -0.66018,1.98169c-0.91691,0.7808 -2.16924,1.11607 -2.83303,0.69694z" fill="none" stroke="#000e25" stroke-width="0.25" stroke-linecap="butt"></path><path d="M88.65589,195.15261c0.19255,0.2789 -0.06397,0.6467 -0.57293,0.82142c-0.50896,0.17472 -1.15236,-0.01794 -1.34491,-0.29684c-0.19255,-0.2789 0.01544,-0.63004 0.52443,-0.80478c0.50896,-0.17472 1.20088,0.00127 1.39342,0.28019z" fill="#000e25" stroke="none" stroke-width="0" stroke-linecap="butt"></path><path d="M100.51534,187.02317c0.41693,1.00884 -1.18993,1.80186 -3.55184,2.25391c-2.36195,0.45204 -4.20178,-0.09649 -4.61869,-1.10535c-0.41693,-1.00884 1.14273,-1.69642 3.50468,-2.14848c2.36195,-0.45204 4.24895,-0.00896 4.6659,0.99991z" fill="none" stroke="#000e27" stroke-width="0.5" stroke-linecap="butt"></path><path d="M76.33096,185.89087c1.06989,0.79083 1.59832,1.49612 1.03471,1.90048c-0.56359,0.40438 -2.15462,0.1192 -3.31663,-0.52447c-1.29041,-0.71478 -1.93412,-1.67831 -1.3705,-2.08267c0.56359,-0.40438 2.58255,-0.08419 3.65243,0.70664z" fill="none" stroke="#000e25" stroke-width="0.5" stroke-linecap="butt"></path><path d="M76.72922,185.45447c1.71073,1.27134 2.75302,2.35034 1.64716,3.13913c-1.10586,0.7888 -3.54118,0.0036 -5.2519,-1.26774c-1.71073,-1.27134 -2.55377,-2.06175 -1.44793,-2.85057c1.10586,-0.7888 3.34195,-0.29218 5.05267,0.97916z" fill="none" stroke="#001027" stroke-width="0.75" stroke-linecap="butt"></path><path d="M34.56561,183.7368c0.91697,0.85552 1.19402,1.57127 0.44405,1.98889c-0.74996,0.41761 -1.80899,0.05155 -2.72595,-0.80397c-0.91697,-0.85552 -1.43782,-1.5768 -0.68785,-1.99443c0.74996,-0.41761 2.05279,-0.04601 2.96977,0.80949z" fill="none" stroke="#001025" stroke-width="0.5" stroke-linecap="butt"></path><path d="M35.03916,183.48639c1.55732,1.47068 1.8463,2.64082 0.77469,3.22972c-0.41155,0.22617 -0.81133,0.11451 -1.32313,0.00278c-0.8208,-0.17923 -1.81841,-0.60754 -2.77763,-1.51339c-1.55732,-1.47068 -2.30771,-2.52702 -1.23609,-3.11592c1.0716,-0.58891 3.00487,-0.07386 4.5622,1.39682z" fill="none" stroke="#001025" stroke-width="0.75" stroke-linecap="butt"></path><path d="M-22.89383,191.10447c1.19266,1.49677 1.22445,2.9221 -0.225,3.50539c-1.44943,0.58326 -3.81275,-0.30434 -5.00544,-1.80114c-1.19266,-1.49677 -1.09861,-2.65295 0.35081,-3.23624c1.44943,-0.58326 3.68697,0.0352 4.87963,1.532z" fill="none" stroke="#001027" stroke-width="0.75" stroke-linecap="butt"></path><path d="M-23.77342,191.4723c0.69454,1.00609 0.77901,2.07522 -0.17196,2.40171c-0.95098,0.32648 -2.50514,-0.28267 -3.19968,-1.28878c-0.69454,-1.00609 -0.75281,-1.95034 0.19816,-2.27684c0.95098,-0.32648 2.47894,0.15782 3.17347,1.16391z" fill="none" stroke="#001027" stroke-width="0.5" stroke-linecap="butt"></path><path d="M208.5559,197.69818c-0.00064,0.14755 0.44433,0.28654 1.25809,0.98699c0.37169,0.31994 -0.02372,1.39421 1.14272,1.51333c1.49646,0.15283 4.23936,-0.6723 6.55958,-0.88433c2.86734,-0.26202 5.21067,0.05614 5.21067,0.05614c0,0 -4.817,3.31562 -9.34373,3.2968c-1.06909,-0.00445 -2.93912,-0.14517 -4.82601,-0.66679c-1.67911,-0.4642 -3.3757,-1.30992 -4.46933,-1.40081c-0.2775,-0.02308 -1.0553,0.13963 -1.40131,0.23626c-0.7289,0.20356 -1.4801,0.51093 -2.13167,0.79875c-0.62113,0.27438 -0.60037,0.42134 -1.06099,0.39325c-0.46062,-0.02809 -0.36178,-0.47998 -0.36178,-0.47998c0,0 0.80386,-1.06314 0.90306,-1.89917c0.06161,-0.5192 -0.18386,-1.94807 0.02352,-2.98172c0.13551,-0.67539 0.76,-0.90837 0.76596,-1.55661c0.01325,-1.44239 -0.62535,-2.55657 -0.62535,-2.55657c0,0 1.17365,1.53363 3.57406,1.68117c0.97637,0.06002 2.49865,-0.58683 3.65714,-0.77412c1.96692,-0.318 3.57186,-0.28391 4.66247,-0.27938c4.58259,0.01905 10.49723,3.77994 10.49723,3.77994c0,0 -0.45522,0.19707 -1.8097,0.0459c-2.39062,-0.26679 -6.53686,-0.94269 -8.45521,-0.87419c-3.89485,0.13914 -3.76857,1.34861 -3.76947,1.56515z" fill="#885058" stroke="#000e25" stroke-width="1" stroke-linecap="butt"></path></g></g></g></svg>