<svg version="1.1" xmlns="http://www.w3.org/2000/svg" xmlns:xlink="http://www.w3.org/1999/xlink" width="65.88942" height="65.88942" viewBox="0,0,65.88942,65.88942"><g transform="translate(-207.05529,-147.05529)"><g data-paper-data="{&quot;isPaintingLayer&quot;:true}" fill-rule="nonzero" stroke-linejoin="miter" stroke-miterlimit="10" stroke-dasharray="" stroke-dashoffset="0" style="mix-blend-mode: normal"><path d="" data-paper-data="{&quot;index&quot;:null}" fill="#ffffff" stroke="#ffffff" stroke-width="1.5" stroke-linecap="round"></path><path d="" data-paper-data="{&quot;index&quot;:null}" fill="#ffffff" stroke="#ffffff" stroke-width="1.5" stroke-linecap="round"></path><path d="M225.27002,150.53975c16.27045,-8.13514 36.05509,-1.54018 44.19023,14.73027c8.13514,16.27045 1.54018,36.05509 -14.73027,44.19023c-16.27045,8.13514 -36.05509,1.54018 -44.19023,-14.73027c-8.13514,-16.27045 -1.54018,-36.05509 14.73027,-44.19023z" fill="#000000" stroke="none" stroke-width="0" stroke-linecap="butt"></path><path d="" data-paper-data="{&quot;index&quot;:null}" fill="#ffffff" stroke="#000000" stroke-width="1.5" stroke-linecap="round"></path><path d="" data-paper-data="{&quot;index&quot;:null}" fill="#ffffff" stroke="#000000" stroke-width="1.5" stroke-linecap="round"></path><path d="" data-paper-data="{&quot;index&quot;:null}" fill="#ffffff" stroke="#ffffff" stroke-width="1.5" stroke-linecap="round"></path><path d="" data-paper-data="{&quot;index&quot;:null}" fill="none" stroke="#ffffff" stroke-width="1" stroke-linecap="round"></path><path d="" data-paper-data="{&quot;index&quot;:null}" fill="none" stroke="#ffffff" stroke-width="1" stroke-linecap="round"></path><path d="" data-paper-data="{&quot;index&quot;:null}" fill="none" stroke="#ffffff" stroke-width="1" stroke-linecap="round"></path><path d="" data-paper-data="{&quot;index&quot;:null}" fill="#ffffff" stroke="none" stroke-width="0" stroke-linecap="round"></path><path d="" data-paper-data="{&quot;index&quot;:null}" fill="#ffffff" stroke="none" stroke-width="0" stroke-linecap="round"></path><path d="" data-paper-data="{&quot;index&quot;:null}" fill="#ffffff" stroke="none" stroke-width="0" stroke-linecap="round"></path><path d="" data-paper-data="{&quot;index&quot;:null}" fill="#ffffff" stroke="none" stroke-width="0" stroke-linecap="round"></path><path d="M251.95506,184.18079l1.31406,-0.20951l0.91919,-0.34074l1.03731,-0.67045l1.15742,-1.18649l1.24467,-1.88949l0.00228,-0.00675l-0.11292,-0.61395l-1.98258,-0.26899l-2.81106,0.14373l-0.02054,0.01383l-0.42385,-0.09214l-0.42563,-0.08358l-0.01337,-0.02085l-1.00229,-0.49539l-0.64774,-0.55005l-0.02235,-0.37143l-0.2387,-0.28544l0.09347,-0.84463l0.56911,-1.53429l0.10652,-0.15564l0.06246,-0.17797l1.23434,-1.87382l0.07529,-0.63267l-0.08066,0.05396l-0.32135,0.46041l-2.17297,1.89228l-0.16253,0.08286l-0.1345,0.12325l-1.13218,0.61375l-0.27548,0.33524l-0.15618,0.11579l-0.00138,0.00241l-0.00283,0.00071l-1.11238,0.8247l-1.11568,1.41167l-0.99625,1.4986l-0.41943,1.65847l0.19504,0.482l0.60331,0.62479l0.78677,0.29165l1.69908,0.3839l0.42931,0.09431c0.28172,0.05582 0.53763,0.18341 0.74786,0.36292l0.04465,0.02219l0.00762,0.02439c0.19958,0.18554 0.35311,0.41994 0.44154,0.68417h0.24688l0.09995,0.02498l0.10225,-0.01254l0.72709,0.08984zM247.37759,186.25101c-0.13377,0 -0.26381,-0.01593 -0.38834,-0.046l-0.43105,-0.09469l-0.00454,-0.00226l-0.00507,0.00012l-1.81081,-0.40914l-0.09924,-0.05006l-0.11048,-0.0122l-1.11905,-0.41482l-0.01471,0.00373l-0.03627,-0.02263l-0.07166,-0.02657l-0.30228,-0.20679l-0.31071,-0.1939l-0.05309,-0.05498l-0.03528,-0.02414l-0.00248,-0.01497l-0.99563,-1.03106l-0.15712,-0.27256l-0.18522,-0.2543l-0.51737,-1.27857l-0.01677,-0.11937l-0.05562,-0.05359l0.00092,-0.33591l-0.04671,-0.33265l0.04779,-0.06068l0.00033,-0.12054l0.62085,-2.45486l0.13193,-0.24575l0.09347,-0.2628l1.18996,-1.79l0.05108,-0.04656l0.02843,-0.063l1.29343,-1.63657l0.17295,-0.1334l0.13867,-0.16875l0.80598,-0.59754l0.3432,-0.44523l0.25869,-0.20457l0.131,-0.05915l0.10597,-0.0971l1.44397,-0.78276l1.41604,-1.23313l-0.02055,-0.29121l-1.26076,-0.18694l-0.26055,-0.10776l-0.32203,-0.08051l-0.03943,-0.06899l-0.16327,-0.06753l-0.26822,-0.68759l-0.3535,-0.61861l0.06667,-0.11666l-0.04883,-0.12518l0.4404,-0.56007l0.36618,-0.64081l0.17141,-0.04285l0.04912,-0.06246l0.33035,-0.0324l0.27353,-0.06838h1.38792l0.01979,-0.01233l0.43243,0.1102l0.43292,0.10823l0.01157,0.02024l0.37479,0.20209l0.05028,0.0078l3.03893,1.2804l0.10444,0.07837l0.08084,-0.00102l0.23092,0.23496l0.2635,0.19773l0.00971,0.08026l0.09153,0.09313l0.84136,1.43018l0.04047,0.13722l0.06843,0.05069l0.04056,0.31886l0.09092,0.3083l-0.04231,0.07391l0.01805,0.14192l-0.1943,1.6326l0.00841,0.01659l-0.01571,0.04476l-0.00534,0.04491l-0.13479,0.3544l-0.12555,0.35778l-0.02488,0.03776l-0.01686,0.04434l-0.01712,0.00725l-1.0088,1.53142l1.62429,-0.08305l0.15196,0.02984l0.15392,-0.01702l2.6386,0.358l0.00193,0.00077l0.02465,-0.00992l0.37773,0.17056l0.38491,0.15366l0.00997,0.02464l0.00189,0.00086l0.77606,0.61371l0.14248,0.18483l0.10456,0.03666l0.10982,0.24145l0.16194,0.21009l-0.01655,0.10955l0.09662,0.21243l0.30301,1.64743l0.0163,0.01834l-0.03497,0.43475l-0.0275,0.43528l-0.01875,0.01583l-0.19386,0.57491l-0.11495,0.17925l-0.07051,0.20093l-1.44864,2.19914l-0.11676,0.10733l-0.0799,0.13699l-1.39691,1.43201l-0.15823,0.09763l-0.12701,0.13578l-1.34516,0.86943l-0.17196,0.05867l-0.14996,0.10259l-1.24169,0.46029l-0.16281,0.01799l-0.15068,0.06425l-1.60386,0.25572l-0.13152,-0.01146l-0.12808,0.03202h-2.06949l-0.09995,-0.02498l-0.10225,0.01254l-0.72709,-0.08984h-0.20894l-0.82441,-0.2061l-0.52886,-0.92551c-0.04846,0.00429 -0.09752,0.00647 -0.1471,0.00647z" fill="#ffffff" stroke="none" stroke-width="0.5" stroke-linecap="butt"></path><path d="M256.95507,189.1808l1.31406,-0.20951l0.91919,-0.34074l1.03731,-0.67045l1.15741,-1.18649l1.24466,-1.88948l0.00227,-0.00675l-0.11292,-0.61395l-1.98258,-0.26899l-2.81106,0.14373l-0.02053,0.01383l-0.42386,-0.09214l-0.42563,-0.08357l-0.01337,-0.02085l-1.00229,-0.49538l-0.64774,-0.55005l-0.02236,-0.37143l-0.2387,-0.28545l0.09346,-0.84462l0.56911,-1.53429l0.10652,-0.15564l0.06246,-0.17797l1.23434,-1.87382l0.07529,-0.63267l-0.08066,0.05396l-0.32135,0.46041l-2.17297,1.89228l-0.16252,0.08286l-0.1345,0.12324l-1.13219,0.61375l-0.27548,0.33524l-0.15618,0.11579l-0.00138,0.00241l-0.00283,0.0007l-1.11237,0.8247l-1.11568,1.41166l-0.99625,1.49861l-0.41944,1.65847l0.19505,0.482l0.60331,0.62479l0.78678,0.29165l1.69907,0.3839l0.42931,0.0943c0.28172,0.05581 0.53763,0.18341 0.74786,0.36292l0.04465,0.02219l0.00762,0.02439c0.19958,0.18554 0.3531,0.41994 0.44154,0.68417h0.24687l0.09994,0.02499l0.10226,-0.01255l0.72708,0.08984zM252.37759,191.25102c-0.13377,0 -0.26381,-0.01593 -0.38834,-0.046l-0.43105,-0.09469l-0.00455,-0.00225l-0.00507,0.00012l-1.81081,-0.40914l-0.09924,-0.05006l-0.11048,-0.0122l-1.11905,-0.41483l-0.0147,0.00373l-0.03627,-0.02262l-0.07167,-0.02657l-0.30228,-0.20679l-0.31071,-0.19389l-0.05309,-0.05498l-0.03529,-0.02414l-0.00248,-0.01497l-0.99562,-1.03106l-0.15712,-0.27256l-0.18521,-0.2543l-0.51737,-1.27857l-0.01676,-0.11937l-0.05562,-0.0536l0.00092,-0.33591l-0.04671,-0.33266l0.04779,-0.06068l0.00032,-0.12053l0.62085,-2.45486l0.13193,-0.24575l0.09346,-0.2628l1.18996,-1.79l0.05108,-0.04656l0.02842,-0.063l1.29343,-1.63657l0.17294,-0.1334l0.13867,-0.16876l0.80598,-0.59754l0.3432,-0.44523l0.25869,-0.20458l0.13099,-0.05915l0.10598,-0.0971l1.44397,-0.78277l1.41604,-1.23313l-0.02055,-0.29121l-1.26076,-0.18694l-0.26055,-0.10777l-0.32203,-0.08051l-0.03942,-0.069l-0.16327,-0.06753l-0.26823,-0.68759l-0.3535,-0.61862l0.06667,-0.11666l-0.04883,-0.12518l0.4404,-0.56007l0.36618,-0.64081l0.1714,-0.04285l0.04912,-0.06247l0.33035,-0.0324l0.27353,-0.06838h1.38792l0.01979,-0.01233l0.43242,0.1102l0.43293,0.10823l0.01156,0.02024l0.3748,0.20209l0.05027,0.0078l3.03893,1.28039l0.10444,0.07838l0.08084,-0.00102l0.23092,0.23496l0.2635,0.19772l0.00971,0.08026l0.09153,0.09312l0.84136,1.43018l0.04047,0.13721l0.06842,0.05069l0.04057,0.31886l0.09092,0.30831l-0.04231,0.0739l0.01806,0.14192l-0.1943,1.6326l0.00841,0.01658l-0.01571,0.04477l-0.00534,0.0449l-0.13479,0.3544l-0.12556,0.35778l-0.02488,0.03776l-0.01686,0.04434l-0.01713,0.00726l-1.00879,1.53142l1.62429,-0.08305l0.15196,0.02983l0.15392,-0.01702l2.6386,0.358l0.00193,0.00077l0.02465,-0.00992l0.37772,0.17056l0.38491,0.15367l0.00997,0.02464l0.00189,0.00086l0.77606,0.61372l0.14247,0.18483l0.10456,0.03666l0.10983,0.24146l0.16195,0.21008l-0.01655,0.10956l0.09662,0.21243l0.30302,1.64744l0.0163,0.01834l-0.03496,0.43475l-0.0275,0.43528l-0.01875,0.01583l-0.19386,0.57491l-0.11495,0.17925l-0.07051,0.20093l-1.44864,2.19914l-0.11676,0.10733l-0.0799,0.13699l-1.39691,1.43201l-0.15823,0.09763l-0.12701,0.13578l-1.34516,0.86943l-0.17196,0.05867l-0.14997,0.10259l-1.24169,0.46028l-0.16281,0.01798l-0.15068,0.06425l-1.60386,0.25572l-0.13152,-0.01146l-0.12808,0.03202h-2.06949l-0.09995,-0.02498l-0.10225,0.01254l-0.72709,-0.08984h-0.20894l-0.82442,-0.2061l-0.52886,-0.92552c-0.04846,0.00429 -0.09753,0.00647 -0.14711,0.00647z" fill="#ffffff" stroke="none" stroke-width="0.5" stroke-linecap="butt"></path><path d="M236.80412,182.61136l1.31406,-0.20951l0.91919,-0.34074l1.03731,-0.67045l1.15742,-1.18649l1.24467,-1.88948l0.00227,-0.00675l-0.11292,-0.61395l-1.98258,-0.26899l-2.81106,0.14373l-0.02053,0.01383l-0.42386,-0.09214l-0.42563,-0.08357l-0.01337,-0.02085l-1.0023,-0.49538l-0.64774,-0.55005l-0.02236,-0.37143l-0.2387,-0.28545l0.09346,-0.84462l0.56911,-1.53429l0.10652,-0.15564l0.06246,-0.17797l1.23435,-1.87382l0.07529,-0.63267l-0.08066,0.05396l-0.32135,0.46041l-2.17297,1.89228l-0.16253,0.08286l-0.1345,0.12324l-1.13218,0.61375l-0.27548,0.33524l-0.15618,0.11579l-0.00138,0.00241l-0.00283,0.0007l-1.11237,0.8247l-1.11568,1.41166l-0.99625,1.49861l-0.41944,1.65847l0.19505,0.482l0.60331,0.62479l0.78678,0.29165l1.69907,0.3839l0.42931,0.0943c0.28172,0.05581 0.53763,0.18341 0.74786,0.36292l0.04465,0.02219l0.00762,0.02439c0.19958,0.18554 0.35311,0.41994 0.44154,0.68417h0.24687l0.09995,0.02499l0.10226,-0.01255l0.72708,0.08984zM232.22664,184.68158c-0.13376,0 -0.26381,-0.01593 -0.38834,-0.046l-0.43105,-0.09469l-0.00455,-0.00225l-0.00507,0.00012l-1.81081,-0.40914l-0.09924,-0.05006l-0.11048,-0.0122l-1.11905,-0.41483l-0.0147,0.00373l-0.03627,-0.02262l-0.07167,-0.02657l-0.30228,-0.20679l-0.31071,-0.19389l-0.05309,-0.05498l-0.03529,-0.02414l-0.00248,-0.01497l-0.99562,-1.03106l-0.15712,-0.27256l-0.18521,-0.2543l-0.51737,-1.27857l-0.01676,-0.11937l-0.05562,-0.0536l0.00092,-0.33591l-0.04671,-0.33266l0.04779,-0.06068l0.00032,-0.12053l0.62085,-2.45486l0.13193,-0.24575l0.09346,-0.2628l1.18996,-1.79l0.05108,-0.04656l0.02842,-0.063l1.29343,-1.63657l0.17294,-0.1334l0.13867,-0.16876l0.80598,-0.59754l0.3432,-0.44523l0.25869,-0.20458l0.13099,-0.05915l0.10598,-0.0971l1.44397,-0.78277l1.41604,-1.23313l-0.02055,-0.29121l-1.26076,-0.18694l-0.26055,-0.10777l-0.32203,-0.08051l-0.03942,-0.069l-0.16327,-0.06753l-0.26822,-0.68759l-0.3535,-0.61862l0.06667,-0.11666l-0.04883,-0.12518l0.4404,-0.56007l0.36618,-0.64081l0.1714,-0.04285l0.04911,-0.06247l0.33035,-0.0324l0.27353,-0.06838h1.38792l0.01979,-0.01233l0.43242,0.1102l0.43293,0.10823l0.01156,0.02024l0.3748,0.20209l0.05027,0.0078l3.03893,1.28039l0.10444,0.07838l0.08084,-0.00102l0.23092,0.23496l0.2635,0.19772l0.00971,0.08026l0.09153,0.09312l0.84136,1.43018l0.04047,0.13721l0.06842,0.05069l0.04057,0.31886l0.09092,0.30831l-0.04231,0.0739l0.01806,0.14192l-0.1943,1.6326l0.00841,0.01658l-0.01571,0.04477l-0.00534,0.0449l-0.13479,0.3544l-0.12555,0.35778l-0.02488,0.03776l-0.01686,0.04434l-0.01712,0.00726l-1.00879,1.53142l1.62429,-0.08305l0.15195,0.02983l0.15392,-0.01702l2.6386,0.358l0.00193,0.00077l0.02465,-0.00992l0.37773,0.17056l0.38491,0.15367l0.00996,0.02464l0.00189,0.00086l0.77606,0.61372l0.14247,0.18483l0.10456,0.03666l0.10983,0.24146l0.16194,0.21008l-0.01655,0.10956l0.09662,0.21243l0.30302,1.64744l0.0163,0.01834l-0.03497,0.43475l-0.0275,0.43528l-0.01875,0.01583l-0.19386,0.57491l-0.11495,0.17925l-0.07051,0.20093l-1.44864,2.19914l-0.11676,0.10733l-0.07991,0.13699l-1.39691,1.43201l-0.15823,0.09763l-0.12701,0.13578l-1.34517,0.86943l-0.17196,0.05867l-0.14997,0.10259l-1.24169,0.46028l-0.16281,0.01798l-0.15068,0.06425l-1.60386,0.25572l-0.13152,-0.01146l-0.12808,0.03202h-2.06949l-0.09995,-0.02498l-0.10226,0.01254l-0.72708,-0.08984h-0.20894l-0.82442,-0.2061l-0.52886,-0.92552c-0.04846,0.00429 -0.09753,0.00647 -0.14711,0.00647z" fill="#ffffff" stroke="none" stroke-width="0.5" stroke-linecap="butt"></path><path d="M227.71958,190.12645l1.31406,-0.20951l0.91919,-0.34074l1.03731,-0.67045l1.15741,-1.18649l1.24466,-1.88948l0.00227,-0.00675l-0.11292,-0.61395l-1.98258,-0.26899l-2.81106,0.14373l-0.02053,0.01383l-0.42386,-0.09214l-0.42563,-0.08357l-0.01336,-0.02085l-1.0023,-0.49538l-0.64774,-0.55005l-0.02236,-0.37143l-0.2387,-0.28545l0.09346,-0.84462l0.56911,-1.53429l0.10652,-0.15564l0.06246,-0.17797l1.23435,-1.87382l0.07529,-0.63267l-0.08066,0.05396l-0.32135,0.46041l-2.17297,1.89228l-0.16252,0.08286l-0.13451,0.12324l-1.13218,0.61375l-0.27548,0.33524l-0.15618,0.11579l-0.00138,0.00241l-0.00283,0.0007l-1.11238,0.8247l-1.11568,1.41166l-0.99625,1.4986l-0.41943,1.65847l0.19504,0.482l0.60331,0.62479l0.78677,0.29165l1.69908,0.3839l0.42931,0.0943c0.28172,0.05581 0.53763,0.18341 0.74786,0.36292l0.04465,0.02218l0.00763,0.02439c0.19958,0.18554 0.3531,0.41994 0.44154,0.68417h0.24687l0.09994,0.02499l0.10226,-0.01255l0.72708,0.08984zM223.14211,192.19667c-0.13377,0 -0.26381,-0.01593 -0.38835,-0.046l-0.43105,-0.09469l-0.00454,-0.00226l-0.00507,0.00012l-1.81081,-0.40914l-0.09924,-0.05006l-0.11048,-0.0122l-1.11905,-0.41483l-0.01471,0.00373l-0.03627,-0.02262l-0.07166,-0.02657l-0.30228,-0.20679l-0.31071,-0.19389l-0.05309,-0.05498l-0.03529,-0.02414l-0.00248,-0.01497l-0.99562,-1.03106l-0.15712,-0.27256l-0.18521,-0.2543l-0.51737,-1.27857l-0.01676,-0.11937l-0.05562,-0.0536l0.00091,-0.33591l-0.04671,-0.33266l0.04779,-0.06068l0.00033,-0.12053l0.62085,-2.45486l0.13193,-0.24575l0.09346,-0.2628l1.18996,-1.79l0.05108,-0.04656l0.02842,-0.063l1.29344,-1.63657l0.17294,-0.1334l0.13867,-0.16876l0.80598,-0.59754l0.3432,-0.44523l0.25869,-0.20458l0.13099,-0.05915l0.10598,-0.0971l1.44396,-0.78277l1.41605,-1.23313l-0.02055,-0.29121l-1.26076,-0.18694l-0.26055,-0.10777l-0.32203,-0.08051l-0.03943,-0.069l-0.16327,-0.06753l-0.26823,-0.68759l-0.3535,-0.61862l0.06667,-0.11666l-0.04883,-0.12518l0.4404,-0.56008l0.36618,-0.64081l0.1714,-0.04285l0.04912,-0.06247l0.33035,-0.0324l0.27354,-0.06838h1.38792l0.01979,-0.01233l0.43242,0.1102l0.43293,0.10823l0.01156,0.02024l0.3748,0.20208l0.05027,0.0078l3.03893,1.28039l0.10444,0.07838l0.08084,-0.00102l0.23092,0.23496l0.2635,0.19772l0.00971,0.08026l0.09153,0.09312l0.84136,1.43018l0.04047,0.13721l0.06842,0.05069l0.04056,0.31886l0.09092,0.3083l-0.04231,0.07391l0.01806,0.14192l-0.1943,1.6326l0.00841,0.01658l-0.01571,0.04477l-0.00534,0.0449l-0.13479,0.3544l-0.12556,0.35778l-0.02488,0.03776l-0.01686,0.04434l-0.01713,0.00726l-1.00879,1.53142l1.62429,-0.08305l0.15195,0.02983l0.15392,-0.01702l2.6386,0.358l0.00192,0.00077l0.02465,-0.00992l0.37772,0.17056l0.38491,0.15366l0.00996,0.02464l0.00189,0.00086l0.77606,0.61372l0.14247,0.18483l0.10456,0.03666l0.10983,0.24146l0.16195,0.21008l-0.01656,0.10956l0.09662,0.21243l0.30301,1.64744l0.0163,0.01834l-0.03496,0.43475l-0.0275,0.43528l-0.01875,0.01583l-0.19386,0.57491l-0.11495,0.17925l-0.07051,0.20093l-1.44864,2.19914l-0.11675,0.10733l-0.07991,0.13699l-1.39691,1.43201l-0.15823,0.09763l-0.12701,0.13578l-1.34516,0.86943l-0.17196,0.05867l-0.14997,0.10259l-1.24169,0.46028l-0.16281,0.01798l-0.15068,0.06425l-1.60386,0.25572l-0.13152,-0.01146l-0.12808,0.03202h-2.0695l-0.09994,-0.02498l-0.10225,0.01254l-0.72709,-0.08984h-0.20894l-0.82442,-0.2061l-0.52886,-0.92552c-0.04846,0.00429 -0.09753,0.00647 -0.1471,0.00647z" fill="#ffffff" stroke="none" stroke-width="0.5" stroke-linecap="butt"></path></g></g></svg>