<svg version="1.1" xmlns="http://www.w3.org/2000/svg" xmlns:xlink="http://www.w3.org/1999/xlink" width="2153.0054" height="1632.34347" viewBox="0,0,2153.0054,1632.34347"><defs><radialGradient cx="240" cy="180" r="122.5" gradientUnits="userSpaceOnUse" id="color-1"><stop offset="0" stop-color="#ffffff"></stop><stop offset="1" stop-color="#ffffff" stop-opacity="0"></stop></radialGradient></defs><g transform="translate(833.26967,631.5228)"><g data-paper-data="{&quot;isPaintingLayer&quot;:true}" fill-rule="nonzero" stroke="none" stroke-linecap="butt" stroke-linejoin="miter" stroke-miterlimit="10" stroke-dasharray="" stroke-dashoffset="0" style="mix-blend-mode: normal"><path d="M-833.26967,1000.82067v-1632.34347h2153.0054v1632.34347z" fill="#000000" stroke-width="0"></path><path d="M248.3396,159.53978c-0.10103,1.28489 -1.17348,2.29669 -2.48324,2.30129c-0.2109,0.283 -0.51751,0.54943 -0.95401,0.77429c-2.22245,1.14487 -3.36732,-1.07758 -3.36732,-1.07758c-1.60667,-3.13746 -2.89787,-6.45417 -3.85868,-9.84561l0.01299,-0.12791l-0.03758,0.00666l-0.73629,-4.1572c-0.03071,-0.15656 -0.0468,-0.31836 -0.0468,-0.48391c0,-1.38071 1.11929,-2.5 2.5,-2.5c0.84546,0 1.59289,0.41968 2.04534,1.06208l1.33041,1.8413l-0.01412,-0.17939c-0.00655,-0.07379 -0.0099,-0.14849 -0.0099,-0.22398c0,-1.38071 1.11929,-2.5 2.5,-2.5c0.8677,0 1.63216,0.44206 2.08044,1.11325l0.09441,0.13727c0.15493,-0.60889 0.53335,-1.12854 1.04278,-1.46645l-0.03094,-0.18065c-0.02886,-0.15198 -0.04396,-0.30883 -0.04396,-0.4692c0,-1.38071 1.11929,-2.5 2.5,-2.5c1.2299,0 2.25236,0.88813 2.46106,2.05803l0.82696,4.16198l-0.04533,0.00901l0.06608,0.11059c0.02864,0.28584 0.05046,0.57198 0.06601,0.85833c0.38792,1.45305 1.50415,9.26279 1.58153,9.78193l0.45629,4.40584c0,0 0.22622,2.18741 -1.79722,2.67132c-0.45834,0.56569 -1.15867,0.9273 -1.94346,0.9273c-1.09028,0 -2.01754,-0.69793 -2.35941,-1.67138l-1.70997,-4.52802c-0.03988,-0.10175 -0.082,-0.20483 -0.12608,-0.30914z" fill="#ffffff" stroke-width="0.5"></path><path d="M203.23684,133.99032c2.46767,2.2414 4.9594,4.45653 7.47074,6.64889c1.30112,1.13586 2.9486,1.96935 3.9012,3.41006c0.03368,0.05094 0.06694,0.1021 0.09979,0.15349l0.0233,-0.01996l3.24411,3.78632c0.38041,0.43862 0.61063,1.01103 0.61063,1.63721c0,1.38071 -1.11929,2.5 -2.5,2.5c-0.65388,0 -1.24912,-0.25103 -1.69462,-0.66197l-3.66107,-3.35384c-3.72633,-3.22178 -7.59486,-6.1844 -11.48388,-9.20548c-0.88355,-0.68636 -1.79792,-1.33589 -2.65323,-2.05654c7.1556,11.79338 14.25193,23.80721 27.4639,29.47297c0,0 1.10367,0.4761 1.45033,1.53333c4.5142,1.02625 9.07329,1.55625 13.82524,2.28851c0,0 2.47056,0.38256 2.08799,2.85312c-0.38256,2.47056 -2.85312,2.08799 -2.85312,2.08799c-0.52215,-0.08128 -1.04182,-0.16052 -1.55923,-0.2385l0.96741,1.08954c-1.94193,0.14773 -3.77576,0.22743 -5.56672,0.2499l-0.08881,0.19788c-0.16107,-0.06486 -0.32231,-0.12905 -0.48372,-0.19262c-0.55845,0.00325 -1.11337,0.00099 -1.66678,-0.00643l3.13344,1.51858c0.55016,0.25222 0.99296,0.69824 1.24105,1.25067c0.46094,0.53022 1.27145,1.80651 0.0516,3.26079c-1.60663,1.9154 -3.52203,0.30877 -3.52203,0.30877l-0.22188,-0.31838l-3.84936,-0.94432l0.008,-0.03261l-0.1084,0.00575c-3.86014,-1.31015 -5.865,-2.24802 -7.78206,-3.80327l-0.15582,0.23589l-4.13906,-2.73408c-0.69455,-0.44413 -1.15501,-1.22216 -1.15501,-2.10774c0,-1.38071 1.11929,-2.5 2.5,-2.5c0.0311,0 0.06207,0.00057 0.0929,0.00169c-0.04392,-0.04027 -0.08689,-0.08179 -0.12885,-0.12465c-0.10806,-0.0425 -0.21615,-0.08545 -0.32428,-0.12887l-0.04101,-0.04956l-0.01193,0.02607l-2.24748,-1.02829c-0.88897,-0.38319 -1.51127,-1.26735 -1.51127,-2.29687c0,-0.57319 0.1929,-1.10132 0.51732,-1.52302c-6.21983,-4.87374 -11.04313,-11.19693 -15.61096,-18.09398c-1.99071,-3.00581 -6.65498,-9.09052 -5.21751,-12.89338c0.52519,-1.38942 2.17583,-2.26136 3.77465,-2.51707c0.38482,-0.88518 1.26702,-1.50416 2.29379,-1.50416c0.61533,0 1.17873,0.2223 1.61428,0.59098l3.82641,3.19312l-0.01048,0.01256z" fill="#ffffff" stroke-width="0.5"></path><path d="M258.2707,213.69198c0.9883,2.84066 1.84869,5.77286 1.91063,8.34605l0.81651,3.08195c0.06377,0.22072 0.09795,0.45399 0.09795,0.69525c0,1.38071 -1.11929,2.5 -2.5,2.5c-0.74332,0 -1.41087,-0.32441 -1.8688,-0.83936c0.26006,1.18823 0.51803,2.377 0.77458,3.56618l-0.02242,0.08059l0.0351,-0.00536l0.41122,2.69037c0.02332,0.13719 0.03547,0.27819 0.03547,0.42203c0,1.38071 -1.11929,2.5 -2.5,2.5c-1.2046,0 -2.21022,-0.85197 -2.44715,-1.98621l-1.11424,-4.82267c-0.60399,-1.32916 -1.18503,-5.45043 -1.50927,-7.8702c-0.69989,-3.06669 -1.42044,-6.12865 -2.16993,-9.18487c-0.29626,-1.20808 -0.6813,-2.32907 -1.06449,-3.41097c-0.0312,0.78679 -0.046,1.5739 -0.03504,2.36153c0.02242,1.61072 0.57649,3.21559 0.39623,4.81634l0.40186,4.95513c0.00694,0.07593 0.01049,0.15285 0.01049,0.23059c0,1.38071 -1.11929,2.5 -2.5,2.5c-1.26851,0 -2.31635,-0.94476 -2.47828,-2.16903l-0.62138,-4.1697l0.01097,-0.00164l-0.0153,-0.02867c-0.12717,-1.02448 -0.24585,-2.04983 -0.36101,-3.07542c-0.06004,-0.39086 -0.10402,-0.79446 -0.1343,-1.20793c-0.37537,-3.40223 -0.73349,-6.80437 -1.25566,-10.18326c-0.15681,0.1854 -0.31088,0.37171 -0.4628,0.55848l-1.06047,2.72786l-0.02898,-0.01126c-0.0177,0.06778 -0.03601,0.13544 -0.05496,0.20299c-0.47796,1.70417 -1.81082,3.04164 -2.71623,4.56245l-0.08478,0.06323l0.02803,0.01996l-2.29332,3.22035c-0.45133,0.6509 -1.20383,1.07716 -2.05588,1.07716c-0.02514,0 -0.05019,-0.00037 -0.07516,-0.00111c-1.14966,1.80411 -2.30528,3.60412 -3.47695,5.39318c-0.22236,0.33953 -5.59291,8.22408 -5.6306,8.25489c-0.07398,0.06047 -0.14905,0.11925 -0.22512,0.17645l0.02664,0.02887l-2.50248,2.30898c-0.44615,0.41428 -1.04384,0.6676 -1.7007,0.6676c-1.38071,0 -2.5,-1.11929 -2.5,-2.5c0,-0.29519 0.05116,-0.57843 0.1451,-0.84133l1.0266,-3.1l0.05448,0.01804l0.00231,-0.17234c1.31816,-2.73186 2.70399,-5.34939 4.17325,-7.9184c-1.17639,1.22959 -2.14577,2.78653 -3.70135,3.42692c-0.16824,0.06926 -0.33872,0.12912 -0.51117,0.18079l0.01612,0.04805l-3.07954,1.03325c-0.2655,0.09605 -0.55191,0.14841 -0.85055,0.14841c-1.38071,0 -2.5,-1.11929 -2.5,-2.5c0,-0.46044 0.12447,-0.8918 0.34161,-1.26228l0.67502,-1.20331l-2.65882,0.66909c-0.21161,0.05821 -0.43446,0.08929 -0.66457,0.08929c-1.38071,0 -2.5,-1.11929 -2.5,-2.5c0,-0.7788 0.35611,-1.47442 0.91438,-1.93292l3.27737,-2.73068l0.0025,0.003l0.00781,-0.01154c6.46049,-5.26499 12.44472,-11.06387 18.8525,-16.39302c0,0 0.8148,-0.67751 1.82454,-0.61986l2.02506,-1.90785c0.44797,-0.42404 1.05276,-0.68409 1.71829,-0.68409c1.38071,0 2.5,1.11929 2.5,2.5c0,0.60021 -0.21151,1.15101 -0.56407,1.58194l-0.40978,0.50952c0.18158,-0.04195 0.37073,-0.06412 0.56505,-0.06412c1.03693,0 1.92641,0.6313 2.30507,1.53052c0.48655,-0.35363 1.38217,-0.80196 2.39805,-0.33226c0.24331,-0.1371 0.53748,-0.246 0.89277,-0.31323c0.38768,-0.07336 0.72576,-0.07396 1.02023,-0.02293c0.33257,-0.99021 1.26821,-1.70354 2.37045,-1.70354c1.04313,0 1.93704,0.63887 2.31181,1.54667l0.42118,0.95849l-0.00808,-0.81777c-0.00011,-0.0096 -0.00016,-0.01922 -0.00016,-0.02885c0,-1.38071 1.11929,-2.5 2.5,-2.5c1.13504,0 2.0934,0.75641 2.39852,1.79264l1.50618,4.70777c1.90692,3.67597 2.84527,7.99371 3.71186,12.27509z" fill="#ffffff" stroke-width="0.5"></path><path d="M270.04685,151.2559c1.36792,-1.41569 2.7339,-2.8335 4.09951,-4.25231c1.22979,-1.2777 2.15258,-2.95379 3.69655,-3.82617c0.09314,-0.05263 0.18696,-0.10374 0.28142,-0.15343l-0.01921,-0.03136l4.22947,-2.59135c0.3873,-0.24637 0.84699,-0.38909 1.34002,-0.38909c1.38071,0 2.5,1.11929 2.5,2.5c0,0.41671 -0.10196,0.80961 -0.28228,1.15512l-1.65427,3.33952l-0.03218,-0.01594l-0.02167,0.11859c-2.12687,3.4515 -4.41259,6.69339 -6.8082,9.85242c0.29308,-0.21483 0.5861,-0.42976 0.87901,-0.64485c2.68679,-1.97289 5.08185,-4.42214 8.06036,-5.91867l4.00846,-2.94339c0.41807,-0.31447 0.93796,-0.50086 1.50138,-0.50086c1.38071,0 2.5,1.11929 2.5,2.5c0,0.55698 -0.18214,1.07142 -0.49012,1.487l-1.6554,2.29111l-0.02356,-0.01703l-0.01925,0.07453c-2.90286,3.56955 -5.76862,7.17954 -8.65391,10.77349l3.25491,-2.64683c0.43235,-0.35734 0.98693,-0.57205 1.59165,-0.57205c0.29121,0 0.5708,0.04979 0.8307,0.14133c1.56925,-0.28286 3.22139,-0.23484 4.20714,0.80058c1.87433,1.96876 -2.42187,8.30362 -3.16097,9.59936c-5.01289,8.7882 -10.6222,16.1686 -18.26063,22.86338c0,0 -0.67311,0.58916 -1.56648,0.66c1.21009,1.25391 2.30326,2.66146 3.54565,3.87248c5.4054,5.26891 10.78221,10.54401 15.94179,16.0546l0.04212,0.17809l0.0608,-0.0432l1.57745,2.21983c0.30136,0.41296 0.47921,0.9218 0.47921,1.47217c0,1.38071 -1.11929,2.5 -2.5,2.5c-0.62905,0 -1.20384,-0.23233 -1.64324,-0.61587l-2.91572,-2.51563l0.01136,-0.01316c-0.02768,-0.01683 -0.05528,-0.03381 -0.08282,-0.05093c-0.44582,-0.27716 -0.88852,-0.59229 -1.32794,-0.93758c-0.45703,0.59454 -1.1754,0.97773 -1.98326,0.97773c-0.60028,0 -1.15115,-0.21157 -1.58211,-0.5642l-1.9891,-1.60002l1.12172,1.96104c0.22336,0.37427 0.3517,0.81182 0.3517,1.27935c0,1.38071 -1.11929,2.5 -2.5,2.5c-0.82396,0 -1.55482,-0.39861 -2.01026,-1.01351l-1.47023,-1.94199l0.10867,0.25003c0.14706,0.31846 0.2291,0.67311 0.2291,1.04692c0,1.38071 -1.11929,2.5 -2.5,2.5c-0.73593,0 -1.39759,-0.31799 -1.85508,-0.82406l-2.2922,-2.51696l0.02983,-0.02717c-0.06404,-0.05444 -0.12722,-0.11006 -0.18951,-0.16694c-1.29255,-1.18026 -1.80145,-3.00161 -2.69949,-4.50402c-1.71416,-2.86779 -3.00394,-5.52696 -4.13893,-8.45491c-0.67432,-0.92303 -1.37166,-1.8396 -2.09724,-2.75189c0,0 -1.49991,-1.8872 0.29917,-3.42813l-0.15071,-0.71672c-0.0421,-0.18189 -0.06436,-0.37138 -0.06436,-0.56606c0,-1.38071 1.11929,-2.5 2.5,-2.5c0.07121,0 0.14173,0.00298 0.21144,0.00881c0.45151,-0.51371 1.11041,-0.84068 1.84587,-0.85008l-0.78222,-0.87812c-0.39804,-0.44278 -0.64023,-1.02848 -0.64023,-1.67074c0,-1.38071 1.11929,-2.5 2.5,-2.5c0.64924,0 1.24068,0.24748 1.68512,0.65326l2.08322,1.88721l-0.00665,0.00735c0.01316,0.00758 0.02629,0.0152 0.03941,0.02286c0.04984,0.02913 0.09936,0.0587 0.14854,0.08869c-0.21402,-1.29118 0.8825,-2.25092 0.8825,-2.25092c5.86695,-5.12785 10.72862,-10.63075 14.76983,-17.30346c0.04186,-0.06912 0.08328,-0.13855 0.12429,-0.20826c-1.9293,2.4606 -4.07336,4.99773 -6.08479,6.26291c-0.04158,0.02616 -0.08337,0.05192 -0.12534,0.07729l0.01729,0.0203l-2.70581,2.30457c-0.43794,0.37775 -1.00832,0.60616 -1.63205,0.60616c-0.98139,0 -1.83071,-0.56549 -2.23989,-1.3884c-1.37302,1.12592 -2.74355,2.25499 -4.11029,3.38899l-0.0212,0.00604l0.00541,0.00674l-2.29436,1.84157c-0.43067,0.3517 -0.9808,0.56264 -1.5802,0.56264c-1.38071,0 -2.5,-1.11929 -2.5,-2.5c0,-0.6522 0.24974,-1.24606 0.65881,-1.69118l3.36438,-3.68747c2.22722,-3.57606 6.41294,-7.08475 9.09803,-10.38523c1.56167,-1.9196 3.12337,-3.83917 4.68514,-5.75869c-4.10004,2.99845 -8.19989,5.99632 -12.21118,9.11311l-2.23746,2.04741c-0.44539,0.41043 -1.04026,0.6611 -1.69367,0.6611c-1.38071,0 -2.5,-1.11929 -2.5,-2.5c0,-0.62365 0.22836,-1.19397 0.60602,-1.63189l2.48521,-2.91844c0.7933,-1.47244 1.85781,-2.76274 2.98897,-4.00827c-0.12698,0.09782 -0.25579,0.19353 -0.38658,0.28698l-3.42634,3.63285c-0.45606,0.48579 -1.1041,0.78924 -1.823,0.78924c-1.38071,0 -2.5,-1.11929 -2.5,-2.5c0,-0.63867 0.23949,-1.22141 0.63357,-1.6633l3.3022,-3.73934l0.01762,0.01556l0.02905,-0.06695c0.12552,-0.12722 0.25099,-0.25448 0.37642,-0.38178c1.51239,-2.73531 4.45192,-4.49898 6.61434,-6.79174l1.37737,-1.46039c0,0 0.11324,-0.12007 0.31239,-0.26941z" fill="#ffffff" stroke-width="0.5"></path><path d="M203.9505,196.41878c0,0 1.20805,-2.18875 3.3968,-0.9807c2.18875,1.20805 0.9807,3.3968 0.9807,3.3968c-2.03133,3.67316 -4.34908,6.79447 -6.90634,9.65728c0.0508,0.06892 0.10068,0.14228 0.14948,0.2203c1.32569,2.11956 -0.79387,3.44525 -0.79387,3.44525l-0.77654,0.48569c-2.81044,1.75769 -5.17803,4.48133 -8.37273,5.36562l-0.65299,0.42865c-0.38686,0.33593 -0.7766,0.67347 -1.16913,1.01323l-0.29159,0.02486l0.06396,0.1165l-2.25855,1.24c-0.36624,0.21039 -0.79082,0.33071 -1.2435,0.33071c-1.38071,0 -2.5,-1.11929 -2.5,-2.5c0,-0.8883 0.46329,-1.66839 1.16143,-2.11183l3.33293,-2.18791c6.25823,-5.49025 11.73416,-10.41736 15.87995,-17.94445z" fill="#ffffff" stroke-width="0.5"></path><path d="M302.2091,125.87989c-1.27944,0.54475 -2.15022,0.07483 -2.6711,-0.44952c-1.17226,0.57639 -2.35017,1.14122 -3.53782,1.68485c0,0 -2.27335,1.04013 -3.31348,-1.23322c-1.04013,-2.27335 1.23322,-3.31348 1.23322,-3.31348c1.87266,-0.85641 3.71972,-1.76855 5.559,-2.69448l4.05103,2.72631c0,0 0.97935,2.30019 -1.32084,3.27954z" fill="#ffffff" stroke-width="0.5"></path><path d="M242.01842,253.02676c1.58055,-0.78504 2.59954,0.09982 3.06219,0.68817c0.725,0.31276 1.45001,0.62553 2.17501,0.93829c0,0 2.29551,0.99027 1.30524,3.28578c-0.99027,2.29551 -3.28578,1.30524 -3.28578,1.30524c-0.97529,-0.42073 -1.95058,-0.84147 -2.92587,-1.2622l-1.45773,-1.60415c0,0 -1.11209,-2.23903 1.12694,-3.35112z" fill="#ffffff" stroke-width="0.5"></path><path d="M117.5,180c0,-67.65488 54.84512,-122.5 122.5,-122.5c67.65488,0 122.5,54.84512 122.5,122.5c0,67.65488 -54.84512,122.5 -122.5,122.5c-67.65488,0 -122.5,-54.84512 -122.5,-122.5z" fill="url(#color-1)" stroke-width="0"></path></g></g></svg>