<svg version="1.1" xmlns="http://www.w3.org/2000/svg" xmlns:xlink="http://www.w3.org/1999/xlink" width="223.20923" height="80.5" viewBox="0,0,223.20923,80.5"><g transform="translate(-177.12171,-161.83385)"><g data-paper-data="{&quot;isPaintingLayer&quot;:true}" fill-rule="nonzero" stroke-linejoin="miter" stroke-miterlimit="10" stroke-dasharray="" stroke-dashoffset="0" style="mix-blend-mode: normal"><path d="" data-paper-data="{&quot;index&quot;:null}" fill="none" stroke="#000000" stroke-width="1.5" stroke-linecap="round"></path><path d="" data-paper-data="{&quot;index&quot;:null}" fill="none" stroke="#000000" stroke-width="1.5" stroke-linecap="round"></path><path d="" data-paper-data="{&quot;index&quot;:null}" fill="none" stroke="#000000" stroke-width="1.5" stroke-linecap="round"></path><path d="" data-paper-data="{&quot;index&quot;:null}" fill="none" stroke="#000000" stroke-width="1.5" stroke-linecap="round"></path><g><path d="M328.17139,240.20132" fill="none" stroke="#d8d8d8" stroke-width="4" stroke-linecap="round"></path><path d="M292.89238,202.08385c0,-21.81525 23.88304,-39.5 53.34428,-39.5c29.46123,0 53.34428,17.68475 53.34428,39.5c0,21.81525 -23.88304,39.5 -53.34428,39.5c-29.46123,0 -53.34428,-17.68475 -53.34428,-39.5z" fill="#d8d8d8" stroke="#000000" stroke-width="1.5" stroke-linecap="butt"></path><path d="M363.90807,216.25244c0,0 -29.88107,8.02511 -37.23986,5.13694" data-paper-data="{&quot;index&quot;:null}" fill="none" stroke="#000000" stroke-width="1.5" stroke-linecap="round"></path><path d="M305.67296,173.68209l41.1599,11.59453l40.33571,-10.0822c0,0 5.5556,7.78425 7.06968,11.63853c1.45394,3.70117 3.6668,10.48332 3.6668,10.48332l-51.07222,16.19051l-54.82437,-17.86909c0,0 2.52043,-6.82746 4.17258,-10.37897c1.77808,-3.8222 9.49189,-11.57662 9.49189,-11.57662z" fill="#595959" stroke="#000000" stroke-width="0.5" stroke-linecap="round"></path><path d="M340.40547,195.80015c6.76513,5.46296 -3.6085,2.95529 -9.67214,2.95529c-6.06364,0 -10.97917,-8.86587 -10.97917,-8.86587c0,0 13.88618,0.44762 20.65131,5.91058z" fill="#ffffff" stroke="none" stroke-width="0" stroke-linecap="butt"></path><path d="M372.92401,189.94726c0,0 -4.91555,8.86587 -10.97917,8.86587c-6.06364,0 -16.43726,2.50768 -9.67213,-2.95529c6.76513,-5.46296 20.6513,-5.91058 20.6513,-5.91058z" data-paper-data="{&quot;index&quot;:null}" fill="#ffffff" stroke="none" stroke-width="0" stroke-linecap="butt"></path><g fill="none" stroke-linecap="round"><path d="M286.51159,207.27133c37.27235,3.91398 -13.34595,6.68202 -13.34595,6.68202" stroke="#ff0000" stroke-width="3.5"></path><path d="M300.88997,210.54298c-0.13539,6.44998 -14.04301,10.02189 -26.09432,8.83975" stroke="#ff0000" stroke-width="3.5"></path><g><path d="M290.03856,207.44411c0,0 -60.19918,1.76196 -97.47154,-2.15203c-37.27235,-3.91398 13.34595,-6.68202 13.34595,-6.68202" stroke="#ff0000" stroke-width="3.5"></path><path d="M232.50357,207.5929l-18.15368,-0.48165" stroke="#d8d8d8" stroke-width="4"></path><path d="M179.23484,200.44409c0.13539,-6.44998 14.04301,-10.02189 26.09432,-8.83975" stroke="#ff0000" stroke-width="3.5"></path></g></g></g></g></g></svg>