<svg version="1.1" xmlns="http://www.w3.org/2000/svg" xmlns:xlink="http://www.w3.org/1999/xlink" width="130.82902" height="133.13098" viewBox="0,0,130.82902,133.13098"><g transform="translate(-148.16621,-115.56873)"><g data-paper-data="{&quot;isPaintingLayer&quot;:true}" fill-rule="nonzero" stroke-linejoin="miter" stroke-miterlimit="10" stroke-dasharray="" stroke-dashoffset="0" style="mix-blend-mode: normal"><path d="M217.09442,165.86414l9,1v8" fill="none" stroke="#000000" stroke-width="1.5" stroke-linecap="round"></path><path d="M232.53458,174.67753v-8l9,-1" data-paper-data="{&quot;index&quot;:null}" fill="none" stroke="#000000" stroke-width="1.5" stroke-linecap="round"></path><path d="M230.98851,198.04897c0,0 0.3445,-8.61004 5.78628,-9.03188c5.30472,-0.41122 12.46372,8.03188 12.46372,8.03188z" fill="#040404" stroke="#000000" stroke-width="1.5" stroke-linecap="round"></path><path d="M200.73697,171.0911c0,-18.19082 17.29485,-32.9374 38.62913,-32.9374c21.33428,0 38.62913,14.74658 38.62913,32.9374c0,11.22687 -2.48212,24.8741 -12.54127,30.82016c-0.42004,0.24829 -5.31543,2.90997 -5.31543,2.90997l-0.22453,13.91683l-12.57806,0.95271l-0.50527,-15.47565l0.06963,15.5724l-14.72842,0.20478l-0.46155,-15.93384l0.80812,15.80985l-16.17468,-0.08649c0,0 0.11388,-16.75516 -0.28778,-16.80951c-2.62384,-0.355 -2.02116,-0.00099 -3.86634,-0.93632c-11.32682,-5.74167 -11.45268,-18.89377 -11.45268,-30.94489z" fill="#ffffff" stroke="#000000" stroke-width="2" stroke-linecap="butt"></path><path d="M236.00705,171.09869c0,5.92619 -3.30023,10.73031 -7.37126,10.73031c-4.07103,0 -7.37126,-4.80413 -7.37126,-10.73031c0,-5.92619 -0.9919,-11.10354 3.07913,-11.10354c3.22238,0 10.77427,7.53515 10.77427,7.53515c0,0 0.88912,2.33301 0.88912,3.56839z" fill="#ababab" stroke="#000000" stroke-width="1" stroke-linecap="butt"></path><path d="M254.61671,161.07621c4.07103,0 3.07913,5.17736 3.07913,11.10354c0,5.92619 -3.30022,10.73032 -7.37126,10.73032c-4.07103,0 -7.37126,-4.80413 -7.37126,-10.73032c0,-1.23538 0.88912,-3.56839 0.88912,-3.56839c0,0 7.55188,-7.53515 10.77427,-7.53515z" data-paper-data="{&quot;index&quot;:null}" fill="#ababab" stroke="#000000" stroke-width="1" stroke-linecap="butt"></path><path d="" data-paper-data="{&quot;index&quot;:null}" fill="none" stroke="#000000" stroke-width="1.5" stroke-linecap="round"></path><path d="" data-paper-data="{&quot;index&quot;:null}" fill="none" stroke="#000000" stroke-width="1.5" stroke-linecap="round"></path><path d="" data-paper-data="{&quot;index&quot;:null}" fill="none" stroke="#000000" stroke-width="1.5" stroke-linecap="round"></path><path d="" data-paper-data="{&quot;index&quot;:null}" fill="none" stroke="#000000" stroke-width="1.5" stroke-linecap="round"></path><path d="" data-paper-data="{&quot;index&quot;:null}" fill="none" stroke="#000000" stroke-width="1.5" stroke-linecap="round"></path><path d="" data-paper-data="{&quot;index&quot;:null}" fill="none" stroke="#000000" stroke-width="1.5" stroke-linecap="round"></path><path d="" data-paper-data="{&quot;index&quot;:null}" fill="none" stroke="#000000" stroke-width="1.5" stroke-linecap="round"></path><path d="" data-paper-data="{&quot;index&quot;:null}" fill="none" stroke="#000000" stroke-width="1.5" stroke-linecap="round"></path><path d="" data-paper-data="{&quot;index&quot;:null}" fill="none" stroke="#000000" stroke-width="1.5" stroke-linecap="round"></path><path d="" data-paper-data="{&quot;index&quot;:null}" fill="none" stroke="#000000" stroke-width="1.5" stroke-linecap="round"></path><g stroke-width="0" stroke-linecap="butt"><path d="M185.69074,245.41291l-10.60161,-124.46958l5.74475,-0.4893l10.60158,124.46961z" fill="#827253" stroke="#000000"></path><path d="M153.47473,130.8517l-5.30852,-1.8708l4.09207,-4.13408l88.56731,-9.27809l7.93456,6.97774l-5.90371,7.72918z" fill="#4950c5" stroke="none"></path><path d="M169.40341,149.31631l-1.84297,-6.61716l1.44181,-8.13329l24.11884,-1.74131l2.03763,7.89084l-1.71984,7.44346z" fill="#4950c5" stroke="none"></path><path d="M196.08184,244.61205l1.41642,0.86133l-1.18654,1.54639l-24.31919,1.67994l-2.04604,-2.94481l1.74184,-2.93058z" fill="#4950c5" stroke="none"></path><path d="M181.59235,126.04821l-7.62253,0.59784l-0.51912,-10.25891l7.62251,-0.59782z" fill="#313585" stroke="none"></path></g></g></g></svg>