<svg version="1.1" xmlns="http://www.w3.org/2000/svg" xmlns:xlink="http://www.w3.org/1999/xlink" width="127.99129" height="96.27611" viewBox="0,0,127.99129,96.27611"><g transform="translate(-152.25875,-139.75)"><g data-paper-data="{&quot;isPaintingLayer&quot;:true}" fill-rule="nonzero" stroke-linejoin="miter" stroke-miterlimit="10" stroke-dasharray="" stroke-dashoffset="0" style="mix-blend-mode: normal"><path d="" data-paper-data="{&quot;index&quot;:null}" fill="none" stroke="#000000" stroke-width="1.5" stroke-linecap="round"></path><path d="" data-paper-data="{&quot;index&quot;:null}" fill="none" stroke="#000000" stroke-width="1.5" stroke-linecap="round"></path><path d="" data-paper-data="{&quot;index&quot;:null}" fill="none" stroke="#000000" stroke-width="1.5" stroke-linecap="round"></path><path d="" data-paper-data="{&quot;index&quot;:null}" fill="none" stroke="#000000" stroke-width="1.5" stroke-linecap="round"></path><path d="" data-paper-data="{&quot;index&quot;:null}" fill="none" stroke="#000000" stroke-width="1.5" stroke-linecap="round"></path><path d="" data-paper-data="{&quot;index&quot;:null}" fill="none" stroke="#000000" stroke-width="1.5" stroke-linecap="round"></path><path d="M200.50004,180c0,-21.81525 17.68475,-39.5 39.5,-39.5c21.81525,0 39.5,17.68475 39.5,39.5c0,21.81525 -17.68475,39.5 -39.5,39.5c-21.81525,0 -39.5,-17.68475 -39.5,-39.5z" fill="#6e6e6e" stroke="#000000" stroke-width="1.5" stroke-linecap="butt"></path><path d="M202.85559,181.6599c0,0 -2.28148,-3.48635 -2.28148,-5.83045c0,-2.68059 2.28148,-9.37942 2.28148,-9.37942c0,0 25.76053,3.29547 38.0247,3.29547c12.45976,0 36.15636,-3.29547 36.15636,-3.29547c0,0 0.32325,0.8142 0.73295,2.06366c1.27619,3.89191 3.39127,12.00691 -0.81086,12.89272c-2.60416,0.54896 -18.81959,2.66663 -35.57172,2.60715c-18.95763,-0.06731 -38.53144,-2.35365 -38.53144,-2.35365z" fill="#d0d0d0" stroke="#000000" stroke-width="0" stroke-linecap="butt"></path><path d="M220.2872,168.69041l16.34335,9.20811" fill="none" stroke="#000000" stroke-width="1.5" stroke-linecap="round"></path><path d="M228.96588,174.81546l-0.2535,3.54897" fill="none" stroke="#000000" stroke-width="1.5" stroke-linecap="round"></path><path d="M245.30508,176.18343l13.96519,-6.03143" fill="none" stroke="#000000" stroke-width="1.5" stroke-linecap="round"></path><path d="M251.52719,174.05496v5.06996" fill="none" stroke="#000000" stroke-width="1.5" stroke-linecap="round"></path><path d="M205.59185,210.26219c-0.26174,-0.26 -0.44649,-0.52027 -0.57127,-0.77505c-0.5127,-0.39502 -1.01762,-0.79023 -1.51569,-1.18659c-0.43509,0.736 -1.23671,1.22962 -2.15362,1.22962c-0.00609,0 -0.01218,-0.00002 -0.01827,-0.00007c-0.19832,1.18244 -1.22666,2.08345 -2.46545,2.08345c-0.59039,0 -1.13298,-0.20465 -1.5607,-0.54688l-3.59745,-2.82431l0.00034,-0.00043l-0.00177,-0.0007c-0.05434,-0.04291 -0.10861,-0.0859 -0.16282,-0.12897l1.61714,2.54597c0.25908,0.39388 0.40981,0.86536 0.40981,1.37205c0,1.38071 -1.11929,2.5 -2.5,2.5c-0.76144,0 -1.44338,-0.34042 -1.90191,-0.87736l-1.73175,-2.00458c-1.46639,-1.69742 -2.99163,-3.21636 -4.2996,-4.86404c0.39969,1.92393 0.71356,3.69501 0.94695,5.51343l0.37329,-0.09045l1.16441,4.80539c0.0544,0.20509 0.08339,0.42052 0.08339,0.64273c0,1.38071 -1.11929,2.5 -2.5,2.5c-0.55463,0 -1.06708,-0.18061 -1.48173,-0.48623c-0.18859,0.04547 -0.38551,0.06955 -0.58806,0.06955c-0.61569,0 -1.1794,-0.22257 -1.61505,-0.59163l-1.82169,-1.52154c0.69366,1.5684 1.28374,3.13322 1.64631,4.65518l1.98781,4.52825c0.1494,0.32052 0.23282,0.67799 0.23282,1.05494c0,1.38071 -1.11929,2.5 -2.5,2.5c-0.87197,0 -1.63967,-0.44641 -2.08703,-1.12316l-1.46891,-2.15622c-0.74157,-1.08855 -1.62395,-2.24529 -2.54662,-3.44274c0.65361,1.03807 1.3364,2.06347 1.71529,3.22081l2.38736,4.34089c0.21093,0.36658 0.33157,0.7917 0.33157,1.245c0,1.38071 -1.11929,2.5 -2.5,2.5c-0.0769,0 -0.15299,-0.00347 -0.22813,-0.01027c-0.45048,0.65693 -1.20655,1.08786 -2.06326,1.08786c-0.73938,0 -1.40378,-0.32097 -1.86149,-0.83118l-3.34635,-3.70066c-0.23908,-0.26439 -6.77559,-7.48554 -6.88361,-7.636c-3.85092,-5.36399 -6.69005,-11.92383 -9.91689,-17.69072c0,0 -1.22075,-2.18169 0.96093,-3.40244c0.39313,-0.21997 0.75506,-0.32947 1.08426,-0.36116c0.45616,-0.60655 1.18192,-0.99882 1.9993,-0.99882c0.85365,0 1.60737,0.42785 2.05841,1.08081l1.64254,2.31464c0.44582,-0.68554 1.21863,-1.13887 2.09733,-1.13887c0.34607,0 0.67571,0.07032 0.97543,0.19744l4.59424,1.82427c0.1495,0.03636 0.29814,0.07391 0.44559,0.1127c0.19176,-1.19022 1.22374,-2.09928 2.46806,-2.09928c0.35562,0 0.6939,0.07425 1.00017,0.2081c0.45835,-0.56516 1.15835,-0.92638 1.94271,-0.92638c0.7238,0 1.37576,0.30759 1.83229,0.79919l3.40734,3.64922l-0.04018,0.03752l0.14353,0.08038c0.32342,0.44673 0.63332,0.90291 0.93086,1.36734c0.12538,0.14571 0.25794,0.29995 0.39588,0.46058c-0.3302,-1.39805 -0.57184,-2.90316 -0.95495,-4.57409l-1.10515,-4.8204c-0.04925,-0.19579 -0.07541,-0.40075 -0.07541,-0.61183c0,-1.34059 1.05519,-2.43474 2.38033,-2.49719c-0.12282,-0.21869 -0.24517,-0.43764 -0.36705,-0.65684l-1.51161,-2.72017c-0.21416,-0.36863 -0.3368,-0.79701 -0.3368,-1.25404c0,-1.38071 1.11929,-2.5 2.5,-2.5c0.72196,0 1.37245,0.30603 1.82881,0.79545l2.86877,3.06085l-1.4678,-2.58265c-0.22129,-0.37302 -0.34834,-0.80852 -0.34834,-1.2737c0,-0.85087 0.42507,-1.60246 1.07445,-2.054c0.42765,-0.76442 1.24512,-1.28119 2.18329,-1.28119c0.72144,0 1.37151,0.30559 1.82782,0.79439l3.4165,3.64135c3.58054,2.64347 5.9781,7.01523 9.32942,9.95668c2.28556,2.00604 4.85965,3.65728 7.28673,5.48955l0.06043,3.96546c0,0 -1.76186,1.77365 -3.53551,0.01179zM185.79776,193.6296l-0.00594,-0.04541l-0.0239,0.01358zM167.72118,210.57297c0.38193,0.69446 0.76386,1.38892 1.1458,2.08338c0.16921,-0.60281 0.35216,-1.19936 0.02941,-1.66545c-0.24914,-0.35979 -0.69373,-0.41097 -1.1752,-0.41792z" fill="#bebebe" stroke="none" stroke-width="0.5" stroke-linecap="butt"></path></g></g></svg>