<svg version="1.1" xmlns="http://www.w3.org/2000/svg" xmlns:xlink="http://www.w3.org/1999/xlink" width="209.34656" height="80.5" viewBox="0,0,209.34656,80.5"><g transform="translate(-200.95088,-140.3707)"><g data-paper-data="{&quot;isPaintingLayer&quot;:true}" fill-rule="nonzero" stroke-linejoin="miter" stroke-miterlimit="10" stroke-dasharray="" stroke-dashoffset="0" style="mix-blend-mode: normal"><path d="" data-paper-data="{&quot;index&quot;:null}" fill="none" stroke="#000000" stroke-width="1.5" stroke-linecap="round"></path><path d="M289.92393,195.47554" data-paper-data="{&quot;index&quot;:null}" fill="none" stroke="#d8d8d8" stroke-width="4" stroke-linecap="round"></path><path d="M241.20088,220.1207c-21.81525,0 -39.5,-17.68475 -39.5,-39.5c0,-21.81525 17.68475,-39.5 39.5,-39.5c21.81525,0 39.5,17.68475 39.5,39.5c0,21.81525 -17.68475,39.5 -39.5,39.5z" fill="#d8d8d8" stroke="#000000" stroke-width="1.5" stroke-linecap="butt"></path><path d="M226.36716,169.6083l14.03116,4.59202" fill="none" stroke="#000000" stroke-width="1.5" stroke-linecap="round"></path><path d="M228.19225,178.95914l-0.25511,-5.86758" fill="none" stroke="#000000" stroke-width="1.5" stroke-linecap="round"></path><path d="M243.71478,173.69009l7.65337,-3.82668" fill="none" stroke="#000000" stroke-width="1.5" stroke-linecap="round"></path><path d="M246.28352,178.41109l0.21988,-5.35892" fill="none" stroke="#000000" stroke-width="1.5" stroke-linecap="round"></path><path d="M229.62579,192.95291l25.16666,2.30233l-24.96157,-0.52657" fill="none" stroke="#000000" stroke-width="3" stroke-linecap="round"></path><g stroke="#000000" stroke-linecap="butt"><path d="M321.6938,184.14563l-18.26265,-3.51854c0,0 -2.54941,-2.74145 -2.34396,-3.80779c0.20581,-1.06826 3.57774,-2.59597 3.57774,-2.59597l18.26265,3.51854z" fill="#af5400" stroke-width="1.5"></path><path d="M323.82141,192.92407c0,0 -4.93514,0.77592 -6.61585,-1.6345c-1.96892,-2.82373 -0.87472,-8.23524 -0.26668,-11.81516c1.12701,-6.63585 4.18051,-11.75644 6.82017,-11.43717c1.2265,0.14834 4.81261,2.04767 4.81261,2.04767c0,0 -1.47036,6.99314 -2.07374,10.54569c-1.12701,6.63585 -2.67653,12.29345 -2.67653,12.29345z" fill="#989898" stroke-width="1"></path><path d="M323.93607,193.36022c-2.63965,-0.31927 -3.86592,-5.95753 -2.7389,-12.59338c1.12702,-6.63584 4.18051,-11.75644 6.82015,-11.43717c2.63965,0.31927 3.86592,5.95753 2.73889,12.59335c-1.12702,6.63584 -4.18052,11.75643 -6.82015,11.43717z" fill="#989898" stroke-width="1"></path><path d="M325.75371,178.05197l83.45569,18.60682l-12.5775,3.13505l-72.13967,-16.08385c0,0 -1.13331,-1.95603 -0.92556,-2.88774c0.21265,-0.95375 2.18705,-2.77029 2.18705,-2.77029z" fill="#e6e6e6" stroke-width="0.5"></path></g></g></g></svg>