<svg version="1.1" xmlns="http://www.w3.org/2000/svg" xmlns:xlink="http://www.w3.org/1999/xlink" width="446.67618" height="171.49433" viewBox="0,0,446.67618,171.49433"><g transform="translate(-45.87993,-144.12568)"><g data-paper-data="{&quot;isPaintingLayer&quot;:true}" fill-rule="nonzero" stroke-linejoin="miter" stroke-miterlimit="10" stroke-dasharray="" stroke-dashoffset="0" style="mix-blend-mode: normal"><path d="" data-paper-data="{&quot;index&quot;:null}" fill="none" stroke="#000000" stroke-width="1.5" stroke-linecap="round"></path><path d="" data-paper-data="{&quot;index&quot;:null}" fill="none" stroke="#000000" stroke-width="1.5" stroke-linecap="round"></path><path d="" data-paper-data="{&quot;index&quot;:null}" fill="none" stroke="#000000" stroke-width="1.5" stroke-linecap="round"></path><path d="" data-paper-data="{&quot;index&quot;:null}" fill="none" stroke="#000000" stroke-width="1.5" stroke-linecap="round"></path><path d="" data-paper-data="{&quot;index&quot;:null}" fill="none" stroke="#000000" stroke-width="1.5" stroke-linecap="round"></path><path d="M319.09515,206.33008" data-paper-data="{&quot;index&quot;:null}" fill="none" stroke="#d8d8d8" stroke-width="4" stroke-linecap="round"></path><path d="M289.92393,195.47557" data-paper-data="{&quot;index&quot;:null}" fill="none" stroke="#d8d8d8" stroke-width="4" stroke-linecap="round"></path><path d="M289.92393,195.47557" data-paper-data="{&quot;index&quot;:null}" fill="none" stroke="#d8d8d8" stroke-width="4" stroke-linecap="round"></path><path d="M246.59617,255.87341" data-paper-data="{&quot;index&quot;:null}" fill="none" stroke="#d8d8d8" stroke-width="4" stroke-linecap="round"></path><path d="M197.40988,237.57135" data-paper-data="{&quot;index&quot;:null}" fill="none" stroke="#d8d8d8" stroke-width="4" stroke-linecap="round"></path><path d="M197.40988,237.57135" data-paper-data="{&quot;index&quot;:null}" fill="none" stroke="#d8d8d8" stroke-width="4" stroke-linecap="round"></path><path d="M113.23186,278.07954c-36.78325,0 -66.60193,-29.8187 -66.60193,-66.60193c0,-36.78325 29.8187,-66.60193 66.60193,-66.60193c36.78325,0 66.60193,29.8187 66.60193,66.60193c0,36.78325 -29.8187,66.60193 -66.60193,66.60193z" fill="#d8d8d8" stroke="#000000" stroke-width="1.5" stroke-linecap="butt"></path><g><path d="M60.54213,262.10342l0.12297,-88.15508l45.03701,-27.47764l31.52964,-1.26749l42.57045,23.46838l1.84154,109.08039l-51.05199,-14.57522l-1.30975,-39.51567l-10.35233,-4.99585l-7.98967,4.5513l0.91476,37.65828l-51.72634,15.19151z" fill="#c3c3c3" stroke="#000000" stroke-width="2" stroke-linecap="round"></path><path d="M68.06985,208.9757l-0.41194,-19.21956l44.72123,5.19454l0.44488,20.75714z" fill="#c20000" stroke="none" stroke-width="0" stroke-linecap="butt"></path><path d="M130.54814,215.73118l-0.47402,-20.75647l44.44756,-7.16836l0.43891,19.21896z" data-paper-data="{&quot;index&quot;:null}" fill="#c20000" stroke="none" stroke-width="0" stroke-linecap="butt"></path></g><g stroke="#000000" stroke-linecap="butt"><path d="M424.71442,315.62001c0,0 -3.34835,-5.1174 -6.50995,-5.58606c-1.85549,-0.27505 4.1151,-14.07583 0.82742,-15.65301c-7.74166,-3.71385 -26.08026,3.17273 -26.08026,3.17273l2.03078,-13.69973c0,0 29.45892,-3.02247 40.51495,8.78996c2.13685,2.283 -5.37928,17.80818 -5.37928,17.80818z" data-paper-data="{&quot;index&quot;:null}" fill="#a7a7a7" stroke-width="0"></path><path d="M397.53281,269.55586c0,0 0.84408,12.93566 3.8761,13.38512c4.68537,0.69452 18.39247,2.72641 24.07352,3.56856c-1.15062,1.89472 -1.94426,4.04888 -2.27483,6.3827c-0.35825,2.52929 -0.13545,5.00696 0.56695,7.29786c-6.92051,0.40618 -27.80264,0.78104 -36.5828,-8.59973c-2.04928,-2.18944 5.15882,-17.07831 5.15882,-17.07831l5.18226,-4.95616z" fill="#919191" stroke-width="1"></path><path d="M423.01623,287.69957l64.83464,11.15149c0,0 4.67601,1.71939 4.4471,3.33569c-0.25735,1.8166 -4.85287,3.0023 -4.85287,3.0023l-65.89758,-7.12044z" fill="#d2d2d2" stroke-width="0.5"></path></g></g></g></svg>