<svg version="1.1" xmlns="http://www.w3.org/2000/svg" xmlns:xlink="http://www.w3.org/1999/xlink" width="126.08074" height="70.29357" viewBox="0,0,126.08074,70.29357"><g transform="translate(-185.27309,-144.85325)"><g data-paper-data="{&quot;isPaintingLayer&quot;:true}" fill-rule="nonzero" stroke-linejoin="miter" stroke-miterlimit="10" stroke-dasharray="" stroke-dashoffset="0" style="mix-blend-mode: normal"><path d="M291.63321,155.14984c0.68144,0.01655 1.23598,0.04733 1.35548,0.10326c0.60331,0.28238 0.77417,1.08558 1.19817,1.59933c0.93929,1.13811 3.75206,3.62909 3.74811,5.14938c-0.0058,2.23537 -4.01198,2.15994 -5.91223,1.77676c0.15517,0.0563 0.29754,0.11829 0.37905,0.17677c0.29685,0.21299 0.44715,0.57791 0.67059,0.86698c0.40854,0.52853 0.77805,1.08644 1.11922,1.66268l0.10365,-0.08009l1.21729,1.57536c0.13421,0.17021 0.21429,0.38508 0.21429,0.61866c0,0.55228 -0.44772,1 -1,1c-0.09204,0 -0.18117,-0.01243 -0.26582,-0.03571l-1.72974,-0.43527c-3.01321,-0.60515 -6.09421,-1.29839 -9.15308,-1.61072c-3.59287,-0.36686 -6.32475,-0.05069 -9.36059,-0.99434l-0.07938,0.29573l-1.91078,-0.51288c-0.43718,-0.10692 -0.76161,-0.50128 -0.76161,-0.97141c0,-0.4706 0.32507,-0.86527 0.76291,-0.97173l1.12333,-0.29985l0.00185,0.00693l0.01791,-0.01199c1.00517,-0.22471 2.28869,-0.59839 3.63624,-0.91774c-1.18891,-0.26755 -2.35591,-0.60912 -3.5061,-1.05647l-0.05326,0.22793l-1.92784,-0.45047c-0.45254,-0.09566 -0.79216,-0.49735 -0.79216,-0.97837c0,-0.55115 0.44588,-0.99816 0.9966,-0.99999l1.80631,-0.00704c1.13095,-0.11261 2.37217,-0.3676 3.59275,-0.47443c-1.46446,-0.47424 -2.67522,-0.95324 -3.66012,-2.02028l-0.32455,0.2431l-0.7682,-1.02557c-0.12904,-0.16842 -0.20571,-0.37907 -0.20571,-0.60763c0,-0.55228 0.44772,-1 1,-1c0.00357,0 0.00714,0.00002 0.0107,0.00006l1.99838,0.0183l-0.00002,0.00203l0.01035,-0.00188c4.76975,0.14221 10.70934,0.37946 15.21747,-1.29816c0,0 0.93907,-0.34372 1.28279,0.59536c0.13437,0.3671 0.0727,0.64322 -0.05227,0.84339z" fill="#0033b3" stroke="none" stroke-width="0.5" stroke-linecap="butt"></path><path d="" data-paper-data="{&quot;index&quot;:null}" fill="none" stroke="#000000" stroke-width="1.5" stroke-linecap="round"></path><path d="" data-paper-data="{&quot;index&quot;:null}" fill="none" stroke="#000000" stroke-width="1.5" stroke-linecap="round"></path><path d="M270.4987,151.34349c0.50483,-1.17131 1.98257,-0.77116 1.98257,-0.77116l1.81837,0.4924c0.19594,0.05405 0.38634,0.10838 0.57159,0.16313c-0.01531,-0.03904 -0.02928,-0.07985 -0.0418,-0.12253c-0.35332,-1.20569 1.16776,-1.48575 1.16776,-1.48575c1.07612,-0.19321 2.15225,-0.3864 3.22836,-0.5796l0.23263,0.05831l0.00568,-0.05814l2.97896,0.18283c0.81265,0.04348 1.45484,0.57976 1.45484,1.23493c0,0.48087 -0.34594,0.89769 -0.85131,1.10263l-2.72339,1.15885l-0.00144,-0.00212c-0.01181,0.00581 -0.02364,0.01159 -0.0355,0.01734c-0.42326,0.20524 -1.37239,-0.11942 -1.76471,-0.05433c0.54495,0.2951 1.05199,0.61546 1.55108,0.97062l0.11347,-0.11998l2.48434,1.47629c0.3877,0.22523 0.63944,0.58882 0.63944,0.99903c0,0.05097 -0.00389,0.10121 -0.01143,0.15058c0.60411,0.10098 1.20743,0.20483 1.80946,0.31348c1.25031,0.22566 2.83073,0.01524 3.73266,0.73774c4.32534,3.46486 1.31999,4.00972 -1.86167,5.4067c-0.86737,0.38084 -2.16294,0.79192 -3.6661,1.1594c0.3448,0.31681 0.72628,0.61992 0.80032,0.96079c2.1392,0.90187 3.4135,2.19168 3.10194,3.41557c2.06246,0.26089 5.03124,0.68243 5.34632,1.03165c2.94201,3.26083 -2.19166,3.95106 -4.01031,4.46718c-1.02087,0.28971 -2.24075,0.56278 -3.53666,0.7614c0.38569,0.26742 0.64354,0.56525 0.71647,0.89614c0.06687,0.30342 -0.03888,0.57882 -0.25176,0.83023c0.08759,0.11891 0.17161,0.23539 0.25203,0.34798c-0.18505,0.171 -0.35986,0.35113 -0.5306,0.53491c1.80346,0.13919 3.57429,0.40525 5.33582,0.90331l0.19318,-0.43465l2.91147,0.81301c0.62519,0.16163 1.07695,0.62751 1.07695,1.17702c0,0.62582 -0.58593,1.14316 -1.34668,1.22616l-2.96872,0.3644l-0.00261,-0.01337l-0.05868,0.01992c-2.16374,0.12854 -4.31792,0.24619 -6.46876,0.3481c0.04014,0.15392 0.05277,0.30967 0.0299,0.46574l2.07027,0.2169c0.39024,0.03614 0.73653,0.18632 0.98441,0.40739l2.16647,0.13828c0.81061,0.04514 1.45053,0.58069 1.45053,1.2347c0,0.57448 -0.49375,1.05756 -1.16323,1.19714l-1.79969,0.41026c-1.66143,0.3786 -3.38547,0.91479 -5.10347,1.1849c1.31778,0.34424 2.26224,0.68343 3.19851,1.3001l0.37127,-0.29236l2.2009,1.756c0.00009,0.00007 0.00018,0.00014 0.00027,0.00021c0.07945,0.06339 0.15029,0.13354 0.21103,0.2093c2.4249,0.32875 4.84775,0.87077 5.37649,1.76847c1.32994,2.25801 -0.49558,3.11882 -2.22757,3.62411l0.45104,0.01714c0.8319,0.02734 1.49575,0.57058 1.49575,1.2367c0,0.22082 -0.07295,0.42814 -0.2008,0.60764c0.63788,0.38625 1.10605,0.83829 1.32587,1.36953c0.02264,0.05472 0.02179,0.11704 0.00036,0.18575c0.00472,0.0392 0.00714,0.07895 0.00714,0.11914c0,0.6499 -0.63188,1.18281 -1.43525,1.23378l-0.07185,0.00521c-0.41204,0.27309 -0.86675,0.54835 -1.30842,0.80259c0.0549,0.12639 0.08472,0.26203 0.08472,0.40319c0,0.62087 -0.5767,1.13497 -1.32866,1.2241l-0.32522,0.04325c0.007,0.04757 0.01061,0.09597 0.01061,0.14503c0,0.67099 -0.67358,1.21728 -1.51401,1.23721l-3.11468,0.0857l-0.01326,-0.3028c-3.00256,0.44649 -5.94854,0.57338 -9.26117,0.7872l-2.4778,0.15993c-0.04762,0.00347 -0.09586,0.00524 -0.14461,0.00524c-0.69389,0 -1.28206,-0.35872 -1.48547,-0.85497c-0.32877,-0.22692 -0.53657,-0.56114 -0.53657,-0.93383c0,-0.63124 0.59613,-1.15211 1.3665,-1.22821l0.67937,-0.07576l-0.02881,-0.01258c-0.47316,-0.19724 -0.80302,-0.58132 -0.83345,-1.02848c-2.67177,1.56428 -5.43209,2.98403 -8.30791,4.43053l-2.61722,1.31644c-0.24592,0.1281 -0.54023,0.20262 -0.8565,0.20262c-0.86244,0 -1.56158,-0.55418 -1.56158,-1.23778c0,-0.30128 0.13579,-0.5774 0.36151,-0.79204l1.97433,-1.90683l0.02943,0.01915c0.05804,-0.0634 0.1183,-0.12568 0.18099,-0.18678c0.06215,-0.06056 5.48647,-2.40649 5.72584,-2.51036c0.89067,-0.38648 1.77735,-0.7564 2.66244,-1.11169c2.1566,-1.26574 4.26539,-2.58598 6.39832,-3.99374c0.12498,-0.11852 0.27742,-0.21822 0.44956,-0.29296c0.59039,-0.34488 3.15215,-1.69221 2.72149,-2.64935c-0.34468,-0.76605 -1.96653,-0.95994 -2.12783,-1.76314c-0.10965,-0.54602 0.78077,-0.86807 1.26632,-1.31187c-0.25753,-0.06158 -0.5151,-0.1233 -0.77277,-0.18505l-0.02889,-0.01579l-0.00318,0.0072l-2.37521,-0.65927c-0.62663,-0.16096 -1.07973,-0.62741 -1.07973,-1.17774c0,-0.44204 0.29233,-0.82996 0.7321,-1.04892c-3.40145,-0.04975 -6.74935,-0.48507 -9.86449,-1.45506l-0.16041,0.39701l-2.94034,-0.74643c-0.64704,-0.15118 -1.1193,-0.62559 -1.1193,-1.18744c0,-0.1198 0.02148,-0.23562 0.06153,-0.34519c-0.30264,-0.03072 -0.60529,-0.06136 -0.90796,-0.09189l-1.68202,-0.16972c-0.77941,-0.06944 -1.38523,-0.59363 -1.38523,-1.22997c0,-0.6836 0.69914,-1.23778 1.56158,-1.23778h2.99283v0.26839c2.49758,-0.36168 5.09335,-0.55704 7.73083,-0.66292c-0.33324,-0.227 -0.54429,-0.56352 -0.54429,-0.93913c0,-0.63256 0.59861,-1.15428 1.3713,-1.22868l3.07208,-0.33424l0.03706,0.21402c1.44933,-0.35233 2.88298,-0.5866 4.91282,-0.89046c0.46731,-0.06996 0.93184,-0.15886 1.39828,-0.23582c-1.40376,-0.2097 -2.92417,-0.61586 -3.80715,-0.72133l-2.87511,-0.35289c-0.76075,-0.08299 -1.3467,-0.60034 -1.3467,-1.22616c0,-0.6836 0.69914,-1.23778 1.56158,-1.23778h3.12316v0.36859l0.01498,0.00184c0.17824,0.02239 0.40651,0.05086 0.67326,0.08593c0.65865,-0.02625 1.31141,-0.04028 1.9661,-0.05572c0.53209,-0.23814 0.90791,-0.45217 0.55282,-0.64732c-1.13312,-0.6227 -2.73141,-0.43351 -3.40802,-1.39198c-0.6011,-0.17221 -1.03069,-0.62855 -1.03069,-1.16442c0,-0.65138 0.63479,-1.18525 1.44078,-1.23413l0.86657,-0.06012c1.13744,-0.20673 2.45146,-0.31395 2.33358,-1.01073c-0.08225,-0.48615 -1.77931,-0.21203 -1.63977,-0.68989c0.01068,-0.03658 0.02469,-0.07157 0.04174,-0.10514c-2.81999,-0.54486 -6.05345,-0.66057 -8.67557,-0.86268l-1.68874,-0.13067c-0.79928,-0.0542 -1.4267,-0.58564 -1.4267,-1.23323c0,-0.65276 0.63746,-1.18749 1.44586,-1.23444l2.74779,-0.1827l0.02955,0.27922c2.9191,-0.5905 5.79821,-0.81776 9.05161,-1.10059c-0.51147,-0.54012 -1.81898,-0.68384 -1.99127,-1.35803c-0.14512,-0.56786 1.18679,-0.78697 1.39204,-1.34305c0.12076,-0.32717 -0.08293,-0.59841 -0.40308,-0.85533c-1.32061,-0.23059 -2.63774,-0.47193 -3.95077,-0.70984l-2.01303,-0.36482c-0.71014,-0.1163 -1.24397,-0.61482 -1.24397,-1.21216c0,-0.6836 0.69914,-1.23778 1.56158,-1.23778c0.08103,0 0.1606,0.00489 0.2383,0.01432l3.0682,0.33382l-0.02244,0.12957c0.21019,-0.00496 0.42019,-0.00578 0.62989,-0.00178c-1.34863,-0.51317 -2.59707,-1.18751 -4.21192,-1.61528l-1.81837,-0.4924c0,0 -1.47773,-0.40015 -0.97289,-1.57147zM282.72217,158.64456c0.02484,0.17745 0.02985,0.37884 0.01064,0.61014c-0.0383,0.46107 -1.52298,0.41507 -1.37055,0.86107c0.20698,0.60562 1.72644,0.41836 2.00822,1.00472c0.02027,0.0422 0.0339,0.0845 0.04176,0.12692c1.76379,-0.27391 3.66088,-0.69099 4.23044,-1.25376c0.71785,-0.70931 -2.02011,-0.94543 -3.15139,-1.09646c-0.59026,-0.0788 -1.17999,-0.16342 -1.76913,-0.25262zM284.42971,170.31811c-0.2606,0.09292 -0.54084,0.18239 -0.84144,0.26799c-0.20138,0.05735 -0.41559,0.0976 -0.63996,0.12297c0.08177,0.10366 0.14773,0.21501 0.19414,0.33551c0.14783,0.38395 0.07573,0.79264 -0.10737,1.18982c0.59351,-0.05274 1.19858,-0.12424 1.82025,-0.22337c0.94111,-0.15008 1.8087,-0.51481 2.73413,-0.71706c0.83523,-0.18254 3.33951,-0.54623 2.47828,-0.62111c-1.71675,-0.14925 -3.46223,-0.08232 -5.1673,-0.30005c-0.15653,-0.01999 -0.31346,-0.03821 -0.47073,-0.05473zM282.02383,194.27863c-0.01539,0.0213 -0.10768,0.09299 -0.25717,0.20199c0.0119,0.00132 0.02387,0.00266 0.03591,0.00399c0.31626,-0.03366 0.63176,-0.06834 0.94744,-0.10564c1.83802,-0.52642 3.71244,-1.03018 5.64213,-1.52703l0.13404,0.01556l-0.00667,-0.03509l2.07443,-0.24773c0.08459,-0.01124 0.17148,-0.01709 0.26009,-0.01709c0.10969,0 0.21674,0.00896 0.32004,0.02602c0.00862,-0.02722 -0.02352,-0.05325 -0.10895,-0.07736c-1.55763,-0.43955 -3.25854,-0.44624 -4.88589,-0.67801c-0.2599,-0.03701 -0.52159,-0.06289 -0.78438,-0.08209l-0.43316,0.0467l-0.00688,-0.04012l-0.18045,0.05128c-0.06009,-0.0207 -0.12018,-0.04139 -0.18027,-0.06209l-0.00739,0.05533l-1.4049,-0.118c-0.09272,0.9025 -0.59303,1.80748 -1.15796,2.58935zM277.49707,198.26721c-0.12191,0.04181 -0.24376,0.0849 -0.36553,0.1292l2.22002,-0.05534l-0.33086,-0.15839c-0.04545,-0.02092 -0.08945,-0.04361 -0.13185,-0.06794l-0.80151,-0.04447c-0.19795,0.06429 -0.39476,0.12991 -0.59028,0.19694zM282.61711,167.72941c0.56198,0.01315 1.123,0.04129 1.68115,0.08664c-0.34903,-0.20452 -1.03692,-0.19323 -1.47162,-0.37527c-0.06618,0.09605 -0.13621,0.19256 -0.20952,0.28863zM280.50916,181.56978c0.10831,0.01982 0.21649,0.03989 0.32454,0.06026c0.00393,-0.02471 0.00601,-0.04915 0.00632,-0.07335c-0.11029,0.00442 -0.22057,0.00879 -0.33086,0.01311z" fill="#d8d8d8" stroke="none" stroke-width="0.5" stroke-linecap="butt"></path><path d="M211.18624,160.19815c-0.70202,-1.10565 0.69287,-1.6621 0.69287,-1.6621l0.89366,-0.35649c0.53518,-0.21268 1.07584,-0.41429 1.62117,-0.60644c-0.84912,-0.0122 -1.5327,-0.56161 -1.5327,-1.23757c0,-0.59042 0.52152,-1.08428 1.21934,-1.20796l3.00089,-0.58634l0.09149,0.29422c5.44947,-1.71685 11.12627,-2.16901 17.19612,-2.67477l0.08238,0.02369v-0.02541h2.30217v0c0.86244,0 1.56158,0.55418 1.56158,1.23778c0,0.25623 -0.09822,0.49428 -0.26646,0.69178c4.9113,-0.67749 9.99396,-0.6657 15.04236,-0.75937c10.27915,-0.19072 20.55735,-0.40241 30.83568,-0.61906l0.02079,0.00486v-0.00498h3.12316c0.86244,0 1.56158,0.55418 1.56158,1.23778c0,0.59785 -0.53474,1.09671 -1.24578,1.21246l-3.0151,0.54331l-0.09688,-0.3378c-1.56672,0.43864 -3.15144,0.76663 -4.75877,1.02904c0.00516,0.04093 0.0078,0.08245 0.0078,0.12446c0,0.68061 -0.69303,1.23292 -1.55024,1.23774l-2.69184,0.01773c-3.42262,0.09593 -6.84448,0.18187 -10.26638,0.25917c-0.28265,0.03026 -0.56529,0.06047 -0.84794,0.09059c3.87115,0.1955 7.64788,0.48853 11.06627,0.64683h2.2681c0.62213,0 1.15928,0.28837 1.41033,0.70567c0.19961,-0.01876 0.39929,-0.03703 0.59905,-0.05478l0.09319,-0.00826l-0.00932,-0.15611l3.10835,-0.11664c0.0282,-0.0012 0.05659,-0.00181 0.08516,-0.00181c0.86244,0 1.56158,0.55418 1.56158,1.23778c0,0.64222 -0.61704,1.1702 -1.40684,1.23178l-1.90435,0.16882c0.43442,0.21981 0.72251,0.60529 0.72251,1.04409c0,0.54241 -0.44016,1.00333 -1.0528,1.17059l-2.89413,0.85069l-0.00911,-0.01948l-0.08109,0.04356c-2.68111,0.50743 -5.36081,1.02361 -8.04166,1.53694c-1.58173,0.5811 -3.17774,1.13434 -4.80183,1.62974c0.36522,0.22656 0.59995,0.57921 0.59995,0.97531c0,0.65724 -0.64624,1.19483 -1.46253,1.23533l-3.10219,0.17679l-0.02793,-0.30791c-1.25005,0.21661 -2.50785,0.37966 -3.77321,0.50526c5.64162,0.42538 11.1964,1.02868 16.34302,2.35847l0.04883,-0.24718l3.0613,0.37994c0.75958,0.08382 1.34428,0.60073 1.34428,1.2259c0,0.64222 -0.61704,1.1702 -1.40684,1.23178l-2.06946,0.18345c-7.03657,0.62378 -14.10285,1.23409 -21.18095,1.71295c0.65124,0.02499 1.30239,0.05091 1.95345,0.07789c5.53949,0.2296 10.02675,0.07152 14.57446,1.48778l0.17418,-0.40045l2.91838,0.79753c0.6303,0.15925 1.08683,0.62713 1.08683,1.17954c0,0.04624 -0.0032,0.09188 -0.00943,0.13681c0.51694,0.11227 1.02908,0.24284 1.53658,0.39558l0.18023,-0.45256l2.16836,0.54258c0.65018,0.14961 1.12542,0.62524 1.12542,1.18885c0,0.6836 -0.69914,1.23778 -1.56158,1.23778h-3.12316v-0.00223l-0.00982,0.0022c-2.95654,-0.02946 -5.91324,-0.06527 -8.86998,-0.09828c1.90363,0.429 3.77043,0.95027 5.58779,1.61139l0.11983,-0.28984l2.93375,0.76208c0.64194,0.1537 1.10938,0.62612 1.10938,1.18509c0,0.07102 -0.00754,0.14065 -0.02204,0.20841c0.55661,0.0858 1.11061,0.18004 1.66171,0.28353l0.02795,-0.27288l3.09854,0.19937c0.81019,0.04549 1.44962,0.58088 1.44962,1.23465c0,0.62269 -0.58009,1.13798 -1.33528,1.22488l-1.61075,0.20813l-0.00137,-0.00668l-0.01819,0.00911c-0.91621,0.09958 -1.83161,0.19761 -2.74648,0.29384c0.25888,0.22091 0.41718,0.5169 0.41718,0.84219c0,0.67099 -0.67358,1.21728 -1.51401,1.23721l-3.11468,0.0857l-0.00267,-0.06102c-0.7508,0.0232 -1.5013,0.04712 -2.25158,0.07183c-0.00596,0.00072 -0.01193,0.00145 -0.0179,0.00217c0.19118,0.15372 0.33201,0.34688 0.40131,0.56268c0.06015,0.01576 0.12022,0.03166 0.18023,0.0477c0.14362,0.01192 0.2869,0.02419 0.42982,0.03686l0.15118,0.01341l0.07257,-0.25691l3.01757,0.53554c0.71341,0.1143 1.25053,0.61404 1.25053,1.21322c0,0.6836 -0.69914,1.23778 -1.56158,1.23778c-0.06645,0 -0.13194,-0.00329 -0.1962,-0.00968l-3.08116,-0.27313v0h-0.00001c-1.98059,-0.17558 -3.82013,-0.33378 -5.57425,-0.54024c-2.42185,0.13117 -4.84296,0.26657 -7.26366,0.40572c4.3804,0.36159 8.69987,0.92916 12.73888,1.9143l0.04067,-0.24392l3.07478,0.32214c0.77612,0.07188 1.37841,0.59487 1.37841,1.22935c0,0.4829 -0.34887,0.90122 -0.85774,1.10521c1.18389,-0.06094 2.36777,-0.12186 3.55166,-0.18281c1.56952,-0.08079 3.61818,-0.63211 5.05362,-0.37127c0.38894,-0.04331 0.77768,-0.08746 1.16621,-0.13253l0.11456,0.03772v-0.04104h1.84169c0.86244,0 1.56158,0.55418 1.56158,1.23778c0,0.6369 -0.60687,1.16145 -1.38726,1.23016l-1.82102,0.18164l-0.02763,-0.17402h-0.08093c-0.47287,0.05601 -0.94613,0.11047 -1.41972,0.1636c-1.24614,0.2518 -2.54562,0.43229 -3.87515,0.56296c0.06068,0.13211 0.09378,0.27473 0.09378,0.42347c0,0.67401 -0.67965,1.2222 -1.52536,1.23746l-2.07577,0.04355c-0.50893,0.0102 -1.01874,0.01478 -1.52931,0.01418c0.1862,0.2038 0.29596,0.45435 0.29596,0.72522c0,0.6836 -0.69914,1.23778 -1.56158,1.23778c-0.11048,0 -0.21829,-0.0091 -0.32229,-0.02639l-3.03739,-0.45724l0.0458,-0.19115c-0.15225,-0.03923 -0.30125,-0.07779 -0.44723,-0.11584c-4.18245,-0.10463 -8.43989,-0.7278 -12.6525,-1.48115c-4.74282,-0.32424 -9.3885,-1.01557 -13.43671,-2.46149l-0.19617,0.42097l-2.89551,-0.84776c-0.61363,-0.16683 -1.05469,-0.62815 -1.05469,-1.17111c0,-0.40733 0.24823,-0.76871 0.63132,-0.99427l-1.25903,-0.23169c-0.70771,-0.11777 -1.23911,-0.61538 -1.23911,-1.21135c0,-0.11572 0.02004,-0.22773 0.0575,-0.33397l-0.63632,-0.03924c-0.81241,-0.04368 -1.45434,-0.57988 -1.45434,-1.23491c0,-0.64865 0.62946,-1.18076 1.43062,-1.23349l3.09279,-0.23243l0.0339,0.2834c0.97669,-0.20083 1.96881,-0.37424 2.97294,-0.52461c-0.03195,-0.00076 -0.0639,-0.0015 -0.09585,-0.00225l-1.57804,-0.03702c-0.8437,-0.01704 -1.52105,-0.5645 -1.52105,-1.23737c0,-0.65902 0.64976,-1.19775 1.46919,-1.23565l3.10399,-0.16511l0.01909,0.22546c0.01519,0.00019 0.03037,0.00037 0.04556,0.00056c0.13326,-0.50155 0.64962,-0.89123 1.29512,-0.96775l2.73712,-0.36396l0.07153,0.338c0.08982,-0.00052 0.17963,-0.00108 0.26945,-0.00165c3.91419,-0.84636 7.88378,-0.86887 12.2432,-1.14872c1.81588,-0.11657 3.62515,-0.25615 5.43072,-0.41206c-6.04745,-0.24519 -12.13101,-0.00464 -18.17709,-0.33481l-3.10325,-0.16992c-0.81814,-0.03898 -1.46644,-0.57724 -1.46644,-1.23552c0,-0.68022 0.69224,-1.2323 1.54879,-1.23774l3.12117,-0.0232l0.00225,0.19053l0.11271,0.00618c0.21592,0.01186 0.43218,0.02296 0.64878,0.03336c5.4993,-0.63412 11.27826,-0.34643 16.94321,-0.26433c-0.06373,-0.01341 -0.12804,-0.02653 -0.19294,-0.03934c-4.90532,-0.96825 -10.10613,-1.38354 -15.08952,-2.06823l-2.24337,-0.17902c-0.79726,-0.0558 -1.42244,-0.5865 -1.42244,-1.23293c0,-0.444 0.29494,-0.8334 0.73797,-1.05183c-1.65995,-0.11256 -3.31969,-0.22669 -4.97916,-0.34308c-1.44961,-0.01483 -2.91351,-0.05477 -4.24015,-0.30285c-0.82358,-0.05997 -1.64706,-0.12065 -2.47044,-0.18213l-2.58072,-0.19271c-0.66988,-0.04381 -1.21988,-0.42275 -1.3825,-0.92483c-4.0252,-0.13302 -8.04837,-0.2898 -12.0667,-0.50206l-3.10415,-0.16408c-0.81971,-0.03767 -1.46977,-0.5765 -1.46977,-1.23568c0,-0.67853 0.6888,-1.22955 1.5424,-1.23769l3.12011,-0.03474l0.00347,0.19599l0.11575,0.00611c0.22073,0.01167 0.44149,0.02318 0.66226,0.03452c5.86647,-0.66891 11.88159,-0.22952 17.90749,-0.44413c8.82131,-0.31416 17.65274,-0.9436 26.45375,-1.67451c-10.52757,-0.79896 -20.77059,-1.45084 -31.0496,-3.45972l-1.63534,-0.31961c-0.69778,-0.1237 -1.21927,-0.61755 -1.21927,-1.20795c0,-0.63691 0.60689,-1.16146 1.3873,-1.23016l3.07807,-0.30698l0.0433,0.27281c3.2298,-0.66896 6.59618,-1.00585 10.00182,-1.12341c2.07788,-0.89651 4.32683,-1.69361 5.05141,-2.00022c0.6443,-0.27265 1.30792,-0.53348 1.98829,-0.78176c-0.02203,-0.08281 -0.03362,-0.16866 -0.03362,-0.25667c0,-0.57574 0.49592,-1.05968 1.16763,-1.19806l1.40004,-0.31555c-2.93857,-0.02248 -5.87794,-0.05926 -8.81888,-0.0874l-0.14324,-0.05559l-0.00964,0.03622l-3.02655,-0.50656c-0.72219,-0.10881 -1.26819,-0.61185 -1.26819,-1.21597c0,-0.01076 0.00017,-0.02149 0.00052,-0.03217c-2.42184,0.20394 -4.84586,0.39683 -7.2727,0.57695l-3.08966,0.22931c-0.05437,0.00454 -0.10959,0.00687 -0.16548,0.00687c-0.86244,0 -1.56158,-0.55418 -1.56158,-1.23778c0,-0.59829 0.53553,-1.09744 1.24735,-1.21272l3.01591,-0.54075l0.07718,0.27048c0.61977,-0.2026 1.24769,-0.39368 1.88274,-0.57422c-0.07573,-0.14544 -0.11751,-0.30482 -0.11751,-0.47192c0,-0.14842 0.03296,-0.29074 0.09339,-0.42262c-3.52665,0.11269 -7.05347,0.22081 -10.58079,0.32249c-3.43882,0.85154 -6.84565,1.76282 -10.06742,3.05338l-0.89366,0.35649c0,0 -1.39489,0.55646 -2.09691,-0.5492zM251.05503,166.8223c0.05814,0.00203 0.11628,0.00411 0.17441,0.00623c5.94862,-1.36382 12.34482,-2.22416 18.4015,-3.14157c0.04906,-0.01852 0.09812,-0.03705 0.14717,-0.05559c-0.98074,0.09858 -1.9993,0.1662 -3.0289,0.21575c-2.74496,0.41776 -5.48523,0.74173 -8.17653,0.78447c-1.85985,0.39579 -3.60662,0.8264 -5.08755,1.25521c-0.84776,0.24546 -1.64672,0.57676 -2.4301,0.93553z" fill="#b5b5b5" stroke="none" stroke-width="0.5" stroke-linecap="butt"></path><path d="M194.71403,163.21818l-0.14676,0.23113c0.07434,-0.07187 0.15868,-0.13699 0.25135,-0.19401c-0.03485,-0.01222 -0.06971,-0.02459 -0.10459,-0.03712zM191.65033,162.59611c-0.52614,-0.19908 -0.88966,-0.62472 -0.88966,-1.11765c0,-0.6836 0.69914,-1.23778 1.56158,-1.23778h2.05205c1.33228,-0.03595 2.66593,-0.07992 4.0006,-0.12893c0.23458,-0.20063 0.55201,-0.33954 0.90919,-0.38252l1.52421,-0.20569l0.06493,0.30228l0.2384,0.02083c2.90785,-0.69111 5.84355,-0.50331 9.26844,-0.59753c1.8644,-0.05129 3.72671,-0.08963 5.58791,-0.11713c0.13378,-0.0199 0.27978,-0.02412 0.43802,-0.00628c6.22257,-0.08631 12.43369,-0.05332 18.67038,0.01979l0.13241,0.06209l0.01134,-0.04462l2.27366,0.36282c0.59052,0.08465 1.06552,0.43251 1.22462,0.88477c1.85854,0.14067 3.70439,0.29111 5.52549,0.4377c2.02605,0.07258 4.02863,0.20506 6.01307,0.45929c0.79669,0.05503 1.58544,0.1061 2.36512,0.15194l0.01069,-0.11373l3.10116,0.18328c0.81454,0.04194 1.45883,0.5789 1.45883,1.23514c0,0.6836 -0.69914,1.23778 -1.56158,1.23778h-0.08187c-0.28003,0.33223 -0.75748,0.55105 -1.29939,0.55105c-0.01129,0 -0.02255,-0.0001 -0.03378,-0.00028l-2.85182,-0.04201c-4.21012,-0.06201 -8.39492,-0.08257 -12.57535,-0.03968l3.01593,0.37339c0.75985,0.08364 1.34482,0.60065 1.34482,1.22595c0,0.65402 -0.63992,1.18956 -1.45053,1.2347l-2.62798,0.16773c-5.50682,0.351 -10.98508,0.95989 -16.46804,1.49774c7.73662,0.41281 16.41715,0.7751 23.13103,2.98344l0.21624,-0.42571l2.86344,0.91382c0.59133,0.17624 1.01208,0.62866 1.01208,1.15897c0,0.58843 -0.51802,1.08095 -1.21229,1.2067l-1.80994,0.361l-0.00252,-0.00792l-0.02822,0.01379c-0.1263,0.02094 -0.25287,0.04205 -0.3797,0.06332c1.44539,0.24238 2.86606,0.53309 4.25683,0.87798l0.04414,-0.23987l3.06738,0.35469c0.76685,0.07864 1.35924,0.59823 1.35924,1.22748c0,0.62877 -0.59147,1.14804 -1.35746,1.2273l-2.88506,0.33653l-0.00062,-0.00338l-0.01352,0.00498c-6.42627,0.65463 -12.85815,1.21726 -19.29783,1.74974c4.02619,0.67741 7.95553,1.62487 11.56894,2.95112l0.08691,-0.2497l2.97782,0.65123c0.67753,0.13522 1.17911,0.62137 1.17911,1.20039c0,0.6836 -0.69914,1.23778 -1.56158,1.23778c-0.03744,0 -0.07458,-0.00104 -0.11136,-0.00309l-3.0664,-0.15129c-2.27408,0.00041 -4.54918,-0.00998 -6.82436,-0.01712c1.61358,0.36612 3.20095,0.81099 4.76433,1.37204l0.12179,-0.30144l2.94034,0.74643c0.64704,0.15118 1.11929,0.62559 1.11929,1.18743c0,0.40004 -0.23942,0.75575 -0.61088,0.98203c0.14351,0.02632 0.28703,0.05308 0.43057,0.08029c1.30903,0.24818 3.00312,0.04285 3.89589,0.84125c0.81692,0.73056 0.97771,2.09907 0.30823,2.91846c-0.43755,0.53553 -2.32191,0.73898 -4.31104,0.8153c0.9589,0.24587 1.89922,0.50452 2.81269,0.77101c1.95467,0.57025 5.55148,1.08505 4.11626,2.88759c2.06258,0.20947 4.1173,0.43523 6.16061,0.66807l1.72031,0.19608c0.35256,0.03562 0.66839,0.16443 0.90695,0.35427c0.34128,0.00149 0.6828,0.00279 1.02457,0.00395l0.05168,0.01633l0.00127,-0.01402l3.10219,0.17679c0.81629,0.0405 1.46253,0.57809 1.46253,1.23533c0,0.68333 -0.69858,1.23734 -1.56054,1.23778c-0.00005,0 -0.00009,0 -0.00013,0l-3.12303,0.00165l-0.00015,-0.1764l-0.06505,-0.00371c-0.46889,-0.00121 -0.94379,-0.00025 -1.42414,0.00244c-3.20608,0.2776 -6.4255,0.22752 -9.71773,0.14628c-3.72954,0.04588 -7.55927,0.03508 -11.29858,-0.19089c4.90734,0.56548 9.81203,1.07031 14.7602,1.4907l0.02944,0.01216l0.00164,-0.00876l2.63162,0.30857c0.76546,0.07964 1.35638,0.59871 1.35638,1.22719c0,0.6836 -0.69914,1.23778 -1.56158,1.23778c-0.02535,0 -0.05055,-0.00048 -0.07559,-0.00142l-3.11025,-0.10339l0.01287,-0.24329c-0.2655,-0.02201 -0.53248,-0.04352 -0.80084,-0.06461c-0.39894,0.02052 -0.79653,0.0354 -1.19343,0.04562c-0.17779,0.52867 -0.78602,0.91812 -1.50901,0.91812c-0.06148,0 -0.12212,-0.00282 -0.18175,-0.00829l-2.74363,-0.22451c-2.95532,-0.24183 -6.00203,-0.53686 -9.0787,-0.79258c-10.25498,0.24757 -20.51705,1.41514 -30.77198,1.11598l-3.08771,-0.09126c-0.83878,-0.02138 -1.51046,-0.56708 -1.51046,-1.23712c0,-0.64273 0.61804,-1.17105 1.40875,-1.23193l3.08564,-0.2702l0.0352,0.25252c2.55864,-0.5954 5.20534,-1.00128 7.90541,-1.2613c-0.40914,-0.04164 -0.81828,-0.08325 -1.22742,-0.12485l-0.05135,-0.02212l-0.0036,0.01416l-3.03326,-0.48403c-0.36184,-0.05186 -0.68031,-0.20255 -0.90929,-0.41554l-0.03006,-0.00002c-0.00007,0 -0.00013,0 -0.0002,0c-0.59476,-0.00046 -1.11168,-0.26448 -1.37487,-0.65264c-1.18369,0.06625 -2.36786,0.1056 -3.55272,0.10715c0,0 -1.56158,0 -1.56158,-1.23778c0,-1.23778 1.56158,-1.23778 1.56158,-1.23778c5.94112,0.00875 11.87792,-0.97009 17.81778,-1.50806c0.27841,-0.20402 0.65075,-0.32871 1.05982,-0.32871h2.99277v0.01972l0.07832,-0.01816c0.11665,0.00922 0.2333,0.01846 0.34994,0.02769c0.18087,-0.00688 0.36175,-0.01302 0.54262,-0.01837c6.02207,-0.17833 12.09677,0.08819 18.136,0.57259c0.16024,-0.0139 0.32055,-0.02728 0.48091,-0.04007c-1.74721,-0.27079 -3.49973,-0.85803 -5.09018,-1.20942c-2.74682,-0.60688 -5.13211,-1.166 -7.90175,-1.3683c-5.56096,0.29382 -11.62124,0.39657 -16.52125,-0.82812l-0.73667,-0.04199l-0.13723,0.37072l-2.28314,-0.531c-0.66547,-0.14173 -1.15535,-0.62326 -1.15535,-1.19549c0,-0.6836 0.69914,-1.23778 1.56158,-1.23778c0.04315,0 0.08589,0.00139 0.12815,0.00411l3.09896,0.17661c3.95426,0.22539 7.91187,0.41112 11.86948,0.59641c3.61051,0.0321 7.2065,0.00032 10.8503,-0.18427c0.39938,-0.02024 1.05042,-0.10595 1.80511,-0.19647c-0.03206,-0.0051 -0.06411,-0.01016 -0.09618,-0.01518c-1.97698,-0.30937 -3.98158,-0.52319 -5.99142,-0.63907c-2.24044,-0.12917 -4.48077,-0.25954 -6.72112,-0.38981c-3.45384,0.09951 -6.88919,0.02721 -10.13477,-0.45042c-0.21911,-0.00026 -0.43863,0.00057 -0.65863,0.00261l-0.04316,0.32286l-3.08776,-0.25933c-0.79373,-0.05855 -1.41506,-0.58796 -1.41506,-1.23241c0,-0.67163 0.67485,-1.21832 1.5164,-1.23727l1.91103,-0.04996c2.74688,-0.07032 5.40351,0.04978 8.11813,0.20225c3.33714,-0.05538 6.66466,-0.1352 9.99261,-0.24537c-0.15624,-0.03416 -0.316,-0.06672 -0.47971,-0.09718c-3.94884,-0.73486 -8.16617,-0.98292 -12.17828,-1.46774l-3.06036,-0.24181c-0.79791,-0.05528 -1.42381,-0.58623 -1.42381,-1.23303c0,-0.67131 0.67422,-1.2178 1.5152,-1.23725l3.11493,-0.08357l0.01353,0.31701c3.59821,-0.52705 7.30881,-0.62305 11.03075,-0.59698c-5.87372,-1.25166 -11.93405,-1.87091 -18.01668,-2.08953l-1.93623,-0.07021c-0.8215,-0.02576 -1.47985,-0.55453 -1.49839,-1.20847c-4.36081,0.16511 -8.63186,-0.0117 -12.6865,-0.71571l-0.02783,0.27939l-3.09943,-0.19395c-0.81165,-0.0443 -1.45273,-0.58022 -1.45273,-1.23482c0,-0.59593 0.53131,-1.09351 1.23894,-1.21133l2.96208,-0.54537l0.00649,0.02216l0.08426,-0.03663c11.60159,-1.02294 25.25216,-2.99084 37.98081,-2.51428c1.47247,-0.22128 2.94491,-0.44752 4.41782,-0.67901c-1.70726,-0.18574 -3.41355,-0.46802 -5.02888,-0.63135c-6.82631,-0.69027 -13.65178,-1.36788 -20.48829,-1.99171l-0.0079,-0.00256l-0.00028,0.00177l-3.07807,-0.30698c-0.7804,-0.0687 -1.38729,-0.59324 -1.38729,-1.23016c0,-0.57942 0.50228,-1.06585 1.18054,-1.20067l2.97868,-0.64893l0.11125,0.32082c1.41594,-0.43077 2.87691,-0.78486 4.36855,-1.07938c-6.96488,0.20936 -14.14291,0.01551 -20.56899,-1.35601c-0.07383,0.00019 -0.14766,0.00032 -0.22149,0.00043l-0.02845,0.233l-3.09192,-0.2372c-0.79984,-0.05377 -1.42787,-0.5854 -1.42787,-1.23331c0,-0.19759 0.05841,-0.38436 0.16228,-0.55007zM237.49248,164.48638c0.39921,0.08474 0.79706,0.17476 1.19347,0.27046l0.05623,-0.28533c-0.4166,0.00432 -0.83316,0.00927 -1.24969,0.01488zM237.33432,176.88482c-1.37068,0.2574 -2.7582,0.51724 -4.15822,0.7732c2.64478,-0.14296 5.29087,-0.26399 7.90179,-0.40479c-1.05737,-0.17329 -2.08294,-0.31066 -3.04187,-0.34525c-0.23367,-0.00843 -0.46758,-0.01614 -0.7017,-0.02316z" fill="#919191" stroke="none" stroke-width="0.5" stroke-linecap="butt"></path><path d="M224.68694,159.02039c-0.11678,0.37442 -0.34436,0.60333 -0.60235,0.74105l2.44662,0.51369c0.68513,0.13098 1.19414,0.62003 1.19414,1.20332c0,0.66318 -0.65798,1.20455 -1.48471,1.23631l-2.0408,0.09046c-1.87817,0.08325 -3.76487,0.1784 -5.65391,0.29134c0.11789,0.17409 0.18476,0.37313 0.18476,0.58455c0,0.65968 -0.65105,1.19883 -1.47163,1.23576l-3.10464,0.16081l-0.02527,-0.30647c-0.77593,0.12885 -1.54689,0.23384 -2.32199,0.32221c2.38757,0.43582 4.73929,0.97566 6.68255,1.24643l0.10339,0.04971l0.00987,-0.02332l2.92676,0.77837c0.63661,0.15627 1.09904,0.62661 1.09904,1.18258c0,0.55769 -0.46532,1.02924 -1.105,1.18404l-2.9308,0.76898l-0.09134,-0.21873c-0.45915,0.16694 -0.92068,0.32729 -1.38458,0.48191c0.16431,0.08502 0.30718,0.19391 0.42078,0.32046c2.6068,0.53935 5.07043,1.25583 7.2314,2.24464l0.4056,-0.46458l2.54975,1.39859c0.41703,0.22223 0.69141,0.59969 0.69141,1.02795c0,0.57955 -0.5025,1.06608 -1.181,1.20076l-2.49958,0.54388l-0.01352,-0.03904l-0.17126,0.06986c-4.58416,0.1128 -9.19376,-0.00141 -13.72158,0.56591c0.65397,0.03978 1.30925,0.08822 1.96375,0.15308l3.07837,0.30561c0.78079,0.0684 1.3881,0.5931 1.3881,1.23023c0,0.52101 -0.40612,0.96683 -0.98111,1.14944l-2.83885,0.9615l-0.12775,-0.237c-3.59076,1.62894 -7.3943,2.81634 -11.28644,4.20338c-0.06818,0.0243 -0.52591,0.18637 -1.17683,0.4169c5.70143,1.30996 12.05503,2.5057 16.79055,4.88854c0.20505,0.02368 0.40993,0.04793 0.61462,0.07279l0.15455,-0.21906l0.75226,0.33345c3.32208,0.43508 6.59069,1.04511 9.76221,1.98649l0.07016,-0.24311l3.01405,0.54654c0.71005,0.11635 1.2438,0.61484 1.2438,1.21213c0,0.60792 -0.55291,1.1135 -1.28188,1.21798l-1.51406,0.24159c-3.05331,0.48642 -6.1374,0.86334 -9.23283,1.19615l-0.9926,1.45259c-0.36265,0.09916 -0.72859,0.19423 -1.09751,0.28517c0.04921,0.12032 0.07579,0.24872 0.07579,0.38203c0,0.59344 -0.52687,1.08935 -1.23007,1.20983l-0.06639,0.01256c3.68551,0.23991 7.30698,0.68831 10.57405,1.58638l0.15621,-0.44287l2.97482,0.65929c0.67499,0.13661 1.17407,0.62179 1.17407,1.19937c0,0.67319 -0.67801,1.22087 -1.52229,1.2374l-2.84175,0.06464c-10.44578,0.54245 -20.80551,0.1194 -31.26932,0.1194c0,0 -1.56158,0 -1.56158,-1.23778c0,-1.23778 1.56158,-1.23778 1.56158,-1.23778c1.43628,0 2.87057,0.00802 4.30337,0.02044l-0.73901,-0.14739c-0.40844,-0.07397 -0.75588,-0.27489 -0.97273,-0.54759c-0.03041,-0.01112 -0.06061,-0.02289 -0.0906,-0.03536c-0.16279,-0.06769 -0.31701,-0.14418 -0.46408,-0.228l-0.01982,0.01963l-0.8942,-0.56721c-1.07732,-0.17336 -2.15465,-0.36132 -3.23303,-0.56702l-1.63162,-0.26856c-0.7246,-0.10729 -1.27305,-0.61123 -1.27305,-1.2167c0,-0.62872 0.59137,-1.14794 1.35725,-1.22728l3.06658,-0.35804l0.04296,0.23117c4.22068,-1.03888 8.66915,-1.61527 13.17609,-2.04338c1.1242,-0.25035 2.23855,-0.52195 3.33631,-0.8269c0.5681,-0.15782 1.10534,-0.32888 1.62476,-0.49522c-5.20571,-0.32718 -10.58267,-0.84688 -15.21776,-2.38342l-2.79016,-0.30083c-0.77352,-0.0738 -1.37303,-0.59583 -1.37303,-1.22884c0,-0.00715 0.00008,-0.01428 0.00023,-0.0214c-1.64079,-0.66067 -3.28901,-1.41537 -3.3634,-1.82614c-0.13187,-0.7282 0.44826,-1.36134 1.18784,-1.92864c-0.48034,-0.14152 -0.9605,-0.28403 -1.44052,-0.42762c-1.64534,-0.49214 -6.26005,-1.53871 -6.47542,-3.38475c-0.06143,-0.52659 4.6135,-4.25936 5.41285,-4.57708c1.32972,-0.52852 2.89642,-0.91262 4.58403,-1.20639c-0.77147,-0.45461 -1.4109,-0.95225 -1.30573,-1.62273c0.23416,-1.49296 4.17853,-2.2349 5.81176,-2.61564c0.72473,-0.16894 1.5244,-0.38788 2.37829,-0.63704c-0.08268,-0.01388 -0.16497,-0.02807 -0.24682,-0.04262c-1.37891,-0.19688 -2.75349,-0.37242 -4.12179,-0.51457l-0.08176,-0.04092l-0.00801,0.02523l-2.73078,-0.54469c-0.69427,-0.12575 -1.21228,-0.61827 -1.21228,-1.2067c0,-0.2811 0.11821,-0.54032 0.31739,-0.74811c-1.18765,-0.24429 -2.37722,-0.5087 -3.57447,-0.79816l-1.58879,-0.38412c-0.6575,-0.14588 -1.13972,-0.62435 -1.13972,-1.19208c0,-0.58015 0.50354,-1.06708 1.1831,-1.20118l2.9802,-0.64481l0.07244,0.21036c2.53088,-0.83568 5.16372,-1.49321 7.85739,-2.0169c-1.42942,-0.36112 -2.83861,-0.78942 -4.23201,-1.30539l-0.10811,0.27138l-2.94426,-0.73696c-0.6501,-0.14965 -1.12528,-0.62525 -1.12528,-1.18883c0,-0.6836 0.69914,-1.23778 1.56158,-1.23778h2.54056c6.49333,0 13.13047,-0.4803 19.48822,0.06953c-2.85158,-0.53311 -5.68239,-1.10635 -8.42598,-1.8599c-2.62704,-0.42875 -5.32002,-1.08789 -7.6838,-1.45057c0,0 -1.53312,-0.23523 -1.23636,-1.45046c0.20121,-0.82392 0.97074,-0.98109 1.44546,-0.99688c-0.05995,-0.1314 -0.09263,-0.27315 -0.09263,-0.42096c0,-0.63751 0.60801,-1.16244 1.38947,-1.23035l0.06091,-0.006c-0.01581,-0.07065 -0.02406,-0.14337 -0.02406,-0.21761c0,-0.6836 0.69914,-1.23778 1.56158,-1.23778c0.01225,0 0.02447,0.00011 0.03665,0.00033l3.11737,0.04985l-0.00027,0.01074l0.04316,-0.00958c0.25865,0.0154 0.51526,0.03083 0.76994,0.04643c4.18764,-1.03828 8.62362,-1.86922 13.15171,-2.52723c-0.01493,-0.06872 -0.02271,-0.13937 -0.02271,-0.21147c0,-0.68131 0.69446,-1.23407 1.55291,-1.23776l3.1135,-0.0157c3.14777,-0.05145 6.1277,-0.13237 9.05014,-0.02385c4.68621,-0.35662 9.30473,-0.56664 13.68556,-0.66749c5.98165,-0.13769 10.7563,-0.53572 15.83868,0.79489l0.12715,-0.35043l2.96826,0.67663c0.66948,0.13958 1.16324,0.62267 1.16324,1.19714c0,0.36432 -0.19857,0.69187 -0.5146,0.91837c0.31603,0.2265 0.5146,0.55406 0.5146,0.91837c0,0.59593 -0.5313,1.09351 -1.23893,1.21133l-2.13624,0.39332c-0.17747,0.52905 -0.78593,0.91885 -1.50926,0.91885h-1.917c0.35702,0.22684 0.58562,0.57542 0.58562,0.96632c0,0.34778 -0.18094,0.66205 -0.47229,0.88691c0.10244,0.02388 0.20471,0.048 0.30679,0.0724l0.03117,-0.23997l3.08915,0.25206c0.79574,0.05699 1.41927,0.58713 1.41927,1.23271c0,0.6836 -0.69914,1.23778 -1.56158,1.23778h-2.9928v-0.01162l-0.04361,0.01114c-8.8977,-0.39233 -19.58347,-0.15596 -29.07156,-1.74158c-0.17724,0.05652 -0.3706,0.08802 -0.57307,0.08896l-2.12658,0.01165c-1.30062,0.04949 -2.58869,0.08902 -3.86963,0.11737c-0.22243,0.18535 -0.51657,0.3161 -0.84718,0.36433l-3.03096,0.49183c-1.2187,0.19775 -2.54351,0.49621 -3.88948,0.78121c1.92328,0.36937 3.84821,0.73345 5.76763,1.10958l0.99471,0.19493c0,0 1.51594,0.29707 1.14116,1.49867zM212.36898,154.47159c-0.1678,-0.00718 -0.33577,-0.01461 -0.50392,-0.02229c-0.39652,0.03253 -0.79298,0.06545 -1.18933,0.09848c0.16973,0.00251 0.33784,0.00225 0.50415,-0.00097c0.38649,-0.00749 0.7839,-0.03398 1.1891,-0.07522zM253.80308,147.31883c1.47437,-0.04753 2.78747,-0.15174 3.99951,-0.21586c-4.27283,-0.31207 -9.23461,-0.03987 -13.74238,0.27277c0.00684,0.04704 0.01036,0.09488 0.01036,0.14336c0,0.04147 -0.00257,0.08245 -0.0076,0.12286c3.2464,-0.11134 6.49307,-0.21846 9.74011,-0.32314zM200.29525,189.04688c0.53082,0.05147 1.06234,0.10003 1.59438,0.14631c0.58119,-0.05024 1.19573,-0.07117 1.83339,-0.06873c-2.41237,-0.6458 -4.81605,-1.30727 -7.21408,-1.99075c-0.84282,0.29964 -1.43797,0.51226 -1.43653,0.51468c0.28108,0.46974 1.33221,0.01005 1.95581,0.17119c0.9898,0.25574 1.88164,0.7066 2.82062,1.06293c0.14776,0.05607 0.29657,0.11086 0.44642,0.16439zM223.43235,159.98387l0.01299,-0.03885c-0.03907,0.00402 -0.07734,0.00693 -0.11452,0.00891c0.03385,0.00993 0.0677,0.0199 0.10153,0.02994zM203.16429,202.15576l-0.01133,-0.02339l-0.00326,0.02323c0.00486,0.00005 0.00972,0.0001 0.01458,0.00016zM199.7456,175.99145c3.46029,-0.34361 7.00347,-0.52436 9.81732,-0.92086c3.44762,-0.48198 6.93176,-0.57969 10.42535,-0.62483c-3.66443,-0.40988 -7.3564,-1.03876 -11.04038,-1.66129c-0.76057,0.18049 -1.52692,0.35878 -2.29906,0.53799c-1.99821,0.46378 -3.9957,0.92949 -5.99469,1.39117c-1.16393,0.26881 -3.6771,-0.4625 -3.58285,0.49555c0.05043,0.51261 1.29863,0.19337 1.86215,0.44804c0.26734,0.12082 0.53814,0.23194 0.81216,0.33425zM206.49156,161.57041c3.08442,-0.37504 6.20317,-0.62809 9.29912,-0.8206c-4.31242,-0.30675 -8.84539,-0.1559 -13.30345,-0.01539c0.84935,0.25509 1.70961,0.48962 2.59005,0.63514c0.46525,0.0769 0.93733,0.143 1.41428,0.20084zM196.39036,184.47565c1.70295,-0.614 4.17254,-1.49075 4.35406,-1.55543c2.30696,-0.82213 5.18694,-2.24058 8.02349,-3.07998c-3.04849,-0.06829 -6.30637,-0.07257 -8.97888,-0.88456c-3.69538,0.48089 -6.57056,0.72098 -9.61123,2.52997c-0.53296,0.31708 -1.75524,0.18146 -1.78786,0.70904c-0.02939,0.47522 1.1507,0.27242 1.71747,0.4291c0.73617,0.2035 5.01341,1.47889 5.66263,1.67186c0.20461,0.06081 0.41143,0.12078 0.62031,0.18zM214.74489,168.35011c-3.79127,-0.4872 -7.22246,-0.95179 -10.59164,-2.12123l-0.16326,0.35358l-2.89871,-0.8409c-0.36967,-0.09953 -0.67712,-0.30582 -0.86386,-0.57255c-1.50618,0.39999 -3.03237,0.86593 -4.54446,1.14747c5.24822,0.87517 10.69418,1.30624 15.58398,2.72926c1.18808,-0.2903 2.35937,-0.53359 3.47795,-0.69565z" fill="#e0e0e0" stroke="none" stroke-width="0.5" stroke-linecap="butt"></path><path d="M256.72871,203.05172c0.61622,-1.13733 2.05107,-0.64888 2.05107,-0.64888l2.52533,0.85966c2.1172,0.72072 3.88551,1.36631 5.63273,2.15071l0.10669,-0.19693l2.83666,0.96564c0.57357,0.18314 0.97841,0.62838 0.97841,1.14859c0,0.5918 -0.52395,1.08659 -1.22422,1.20882l-3.00356,0.57843c-0.88454,0.16942 -1.78723,0.33325 -2.7045,0.4888c-0.07554,0.03003 -0.15458,0.05534 -0.23649,0.07544l-0.83987,0.22337c0.06284,0.13416 0.09717,0.27929 0.09717,0.4308c0,0.57146 -0.48856,1.05247 -1.15267,1.19492c-0.10182,0.47041 -0.5476,1.04989 -1.48863,1.78135c-0.30416,0.23642 -5.8489,1.12608 -6.36132,1.21129c-6.36174,1.05792 -14.06637,0.61036 -20.81978,-0.17101c-4.69392,-0.16804 -9.41495,-0.4593 -13.84954,-1.3282c-0.04469,0.00517 -0.08938,0.01035 -0.13408,0.01553l-0.08325,-0.05862c-0.01059,-0.00213 -0.02117,-0.00426 -0.03176,-0.00639v0.06836h-0.12223l-0.02231,0.20659l-3.09673,-0.21008c-0.80727,-0.04784 -1.44348,-0.58218 -1.44348,-1.23429c0,-0.6836 0.69914,-1.23778 1.56158,-1.23778h0.54489c0.24323,-0.43291 0.79076,-0.73472 1.42722,-0.73472c0.09953,0 0.19687,0.00738 0.29123,0.02149l2.19191,0.29557c0.37364,0.02947 0.75582,0.05545 1.14562,0.07854c-1.87109,-0.51364 -3.66191,-1.1563 -5.34791,-1.95118c0,0 -1.34212,-0.63275 -0.54384,-1.69658c0.79828,-1.06382 2.1404,-0.43107 2.1404,-0.43107c3.6787,1.73434 7.92597,2.67582 12.43069,3.11265c1.43078,-0.16089 2.86187,-0.31988 4.29333,-0.47709c-0.59897,-0.17136 -1.19204,-0.35355 -1.77846,-0.54727l-0.08406,0.27307l-3.00278,-0.58074c-0.69955,-0.12265 -1.22279,-0.61718 -1.22279,-1.20857c0,-0.6836 0.69914,-1.23778 1.56158,-1.23778c0.03035,0 0.06051,0.00068 0.09042,0.00204l3.10727,0.12394l-0.00043,0.0067l0.02772,-0.00541c4.00946,0.27146 8.01888,0.5433 12.02832,0.81504c1.65945,0.11711 3.31303,0.35305 4.94748,0.67541c3.50543,-0.34341 6.7332,-0.48395 10.18567,0.12326l0.08069,-0.36852l2.6231,0.36084c0.42172,-0.06805 0.83949,-0.13826 1.25266,-0.21052c-1.38736,-0.35217 -2.70351,-0.95308 -4.22122,-1.46973l-2.52533,-0.85966c0,0 -1.43486,-0.48844 -0.81864,-1.62578zM257.25058,211.5383c-0.16515,-0.01254 -0.33,-0.02786 -0.49461,-0.04575c-1.83296,-0.04411 -3.68829,-0.10899 -5.54844,-0.21161c-2.05072,0.18736 -4.13762,0.35727 -6.23713,0.4874l1.83733,0.51339c0.15949,0.04126 0.30768,0.10233 0.43997,0.17953c0.56683,0.01807 1.1326,0.03832 1.69694,0.06174c1.45991,0.06059 2.92394,-0.17844 4.35345,-0.42109c1.01797,-0.17279 2.03003,-0.37012 3.05532,-0.51318c0.21009,-0.02931 0.54467,-0.04432 0.89717,-0.05043zM243.38602,211.85853c0.42581,0.1112 0.84111,0.2317 1.24455,0.36236h0.02557l0.19808,-0.44539c-0.48884,0.02995 -0.97834,0.05772 -1.46819,0.08303z" fill="#e0e0e0" stroke="none" stroke-width="0.5" stroke-linecap="butt"></path><path d="M275.18934,179.68156l0.00596,0.22657l-1.35361,0.07714c-0.01008,0.00065 -0.02021,0.00098 -0.03039,0.00098c-0.3752,0 -0.67937,-0.44772 -0.67937,-1c0,-0.28102 0.07875,-0.53496 0.20554,-0.71663c-0.23901,-0.1549 -0.40588,-0.5066 -0.40588,-0.91566c0,-0.47925 0.22904,-0.87975 0.53478,-0.9773l1.03899,-0.366c0.35627,-0.1255 0.73469,-0.30347 1.12351,-0.4911c-0.11412,-0.03035 -0.22887,-0.06506 -0.34507,-0.10456l-0.024,0.24561l-1.33497,-0.28255c-0.33424,-0.06271 -0.59261,-0.4829 -0.59261,-0.99192c0,-0.49226 0.24164,-0.90145 0.55985,-0.98457l0.88213,-0.25674c0.88147,-0.25622 1.74429,-0.57248 2.60855,-0.89805c-1.08427,0.32662 -2.24534,0.48551 -2.90839,0.70335l-0.88514,0.32367c-0.0569,0.02275 -0.11676,0.0349 -0.17855,0.0349c-0.3752,0 -0.67937,-0.44772 -0.67937,-1c0,-0.45826 0.20941,-0.84452 0.49506,-0.96276l1.28446,-0.57921l0.02281,0.10957c0.17851,-0.0634 0.35499,-0.12896 0.5297,-0.19533c0.05618,-0.03583 0.11261,-0.07112 0.16927,-0.10585c-0.30741,-0.08675 -0.61348,-0.1835 -0.91897,-0.29361c-0.09082,0.01941 -0.18218,0.0389 -0.27411,0.05852l-0.0688,-0.10232l-0.0046,0.10092l-0.02018,-0.00199l-0.00404,0.06067l-1.34491,-0.19405c-0.34761,-0.04396 -0.62045,-0.47323 -0.62045,-0.99629c0,-0.55228 0.30417,-1 0.67937,-1c0.01754,0 0.03493,0.00098 0.05213,0.0029l1.29344,0.12776c1.23248,-0.28229 2.60531,-0.35531 3.85175,-0.74534c-1.25072,0.21273 -2.50743,0.33869 -3.71064,0.15684c-0.02042,0.00295 -0.04083,0.00591 -0.06125,0.00887l-0.47361,0.06868l-0.00052,0.13992l-0.94794,-0.0077c-0.3737,-0.00259 -0.67609,-0.44931 -0.67609,-0.99999c0,-0.52291 0.27267,-0.95208 0.62014,-0.99625l1.34481,-0.19502c2.84975,-0.41325 5.67972,-0.76271 8.52512,-1.03081c-0.18884,-0.78913 0.34707,-1.18611 0.34707,-1.18611l0.32748,-0.23389c0.39592,-0.23835 0.77059,-0.85431 1.18775,-0.71505c0.30296,0.10114 0.12435,1.01624 0.39407,1.24313c0.47718,0.40141 0.97748,-0.75261 1.49634,-1.0194c0.72643,-0.37352 1.34533,-0.77319 1.95912,-1.22114l0.82641,-1.27712c0.12379,-0.19205 0.29885,-0.31181 0.49291,-0.31181c0.3752,0 0.67937,0.44772 0.67937,1c0,0.04651 -0.00216,0.09228 -0.00633,0.1371c0.19053,-0.10049 0.38416,-0.18878 0.57999,-0.26752l-0.0347,-0.11669l1.23113,-0.79306c0.08693,-0.05947 0.18383,-0.09267 0.286,-0.09267c0.3752,0 0.67937,0.44772 0.67937,1c0,0.09388 -0.00879,0.18475 -0.02522,0.2709l0.65746,-0.43292c0.08817,-0.06157 0.18678,-0.09602 0.29085,-0.09602c0.29436,0 0.54499,0.27556 0.63933,0.66098c0.68217,-0.11299 1.29526,-0.22131 1.92735,-0.28035l-0.0335,-0.22396l1.31269,-0.42545c0.05141,-0.01831 0.10511,-0.02802 0.16034,-0.02802c0.3752,0 0.67937,0.44772 0.67937,1c0,0.42332 -0.17869,0.7852 -0.43111,0.93113l-1.13621,0.70143c-1.54678,0.9383 -2.34734,2.65292 -3.74484,3.92655c-0.23977,0.21852 -0.60325,0.09738 -0.80354,0.38958c-0.11929,0.17403 0.24316,-0.04993 0.47955,-0.09153l0.00148,-0.02819l1.296,0.14771c0.35354,0.03513 0.63293,0.46839 0.63293,0.9977c0,0.33011 -0.10867,0.62287 -0.27622,0.80498l-0.79504,0.88346l-0.00976,-0.01902l-0.03493,0.06465c-1.56244,1.2212 -3.23873,2.30671 -4.73714,3.68854c-0.54006,0.49804 -0.94692,1.05853 -1.3792,1.50843c0.20983,-0.06556 0.41939,-0.13022 0.62864,-0.1937l0.96579,-0.29298c0.04858,-0.01623 0.09913,-0.02481 0.15105,-0.02481c0.3752,0 0.67937,0.44772 0.67937,1c0,0.48145 -0.23115,0.88344 -0.539,0.97863l-1.28866,0.4406l-0.00735,-0.04658c-4.208,1.30449 -8.68149,3.21507 -12.99035,2.58724zM279.09313,171.61379c-0.11998,0.02318 -0.23128,0.04227 -0.32585,0.05788c-0.1098,0.0648 -0.22473,0.1255 -0.34372,0.18253c0.09013,-0.03371 0.18036,-0.06731 0.27071,-0.10072c0.13254,-0.04902 0.26564,-0.09473 0.39886,-0.13969zM283.92251,164.60748c-0.00433,-0.12422 -0.00346,-0.15833 -0.00747,0.00063c0.00249,-0.00021 0.00498,-0.00042 0.00747,-0.00063z" fill="#0033b3" stroke="none" stroke-width="0.5" stroke-linecap="butt"></path><path d="M274.55203,199.22904c-0.11188,0.02309 -0.22364,0.0465 -0.33526,0.0703l0.00656,0.17013l-1.4874,0.1027c-0.01468,0.00115 -0.02949,0.00173 -0.04439,0.00173c-0.4129,0 -0.74762,-0.44772 -0.74762,-1c0,-0.51116 0.28673,-0.93275 0.65679,-0.99269l1.25238,-0.22925c1.71526,-0.37158 3.45005,-0.6802 5.17056,-1.05998c-1.94691,-0.07479 -3.88092,-0.33509 -5.57451,-1.11985l-0.07379,0.35956l-1.19669,-0.4394c-0.32483,-0.10881 -0.56541,-0.50187 -0.56541,-0.97009c0,-0.53543 0.31461,-0.97258 0.71005,-0.99876l0.75542,-0.05767c1.31513,-0.10039 2.65255,-0.16223 3.98884,-0.26443c-0.13837,-0.18149 -0.22421,-0.43435 -0.22421,-0.71404c0,-0.51187 0.28752,-0.93391 0.65832,-0.99294l1.47147,-0.26485l0.02496,0.24808c2.39412,-0.91088 4.88856,-1.12081 7.41815,-1.51379l0.1318,0.11502l0.017,-0.07907l0.53423,0.20549c1.43697,-0.3206 2.87567,-0.67352 4.32917,-1.0496c1.47318,-0.38119 2.95873,-0.87917 4.44412,-1.09125c0.09329,-0.72171 0.68836,-0.7726 0.68836,-0.7726l1.14865,-0.09822c1.21908,-0.09395 2.2296,-0.9276 3.27085,-1.36933c-0.01502,-0.07903 -0.023,-0.16181 -0.023,-0.24709c0,-0.37757 0.15645,-0.70627 0.38736,-0.87645l1.28364,-0.98756l0.00064,0.00147l0.00329,-0.00446c0.00149,-0.00056 0.00298,-0.00112 0.00446,-0.00168l-0.00054,-0.00128l0.98019,-0.73318c0.11061,-0.08646 0.23931,-0.136 0.37667,-0.136c0.4129,0 0.74762,0.44772 0.74762,1c0,0.07033 -0.00543,0.13896 -0.01575,0.2052c0.35817,-0.17108 0.71866,-0.39233 1.06181,-0.23977c0.23425,0.10415 -0.27004,0.95499 -0.02458,0.99c0.48426,0.06907 0.86449,-0.98698 1.33179,-0.80355c0.37091,0.1456 0.09798,1.10114 0.3682,1.47086c0.61348,0.8394 1.94623,-0.35317 2.61519,0.40663c0.18172,0.20639 -0.08031,0.62667 -0.21986,0.98206l0.47543,-0.23275c0.08463,-0.04446 0.17679,-0.06888 0.27322,-0.06888c0.4129,0 0.74762,0.44772 0.74762,1c0,0.23048 -0.05829,0.44275 -0.15624,0.61187l-0.70525,1.24443l-0.01228,-0.01245l-0.01917,0.06427c-1.16882,1.44253 -0.59161,2.11863 -1.66976,3.53533c-3.8711,5.08665 -9.58858,9.05906 -15.09594,8.32587v0.2891h-1.49524c-0.38123,0 -0.69581,-0.38166 -0.74183,-0.87491c-2.52548,0.46385 -5.05483,0.75126 -7.56305,0.32028l0.00274,0.22526l-1.49304,0.03242c-0.0047,0.00012 -0.00942,0.00018 -0.01414,0.00018c-0.35647,0 -0.65468,-0.33371 -0.72952,-0.78032c-1.69775,0.39486 -3.39881,0.73465 -5.07697,0.79612c-0.25276,0.07018 -0.50748,0.14187 -0.76423,0.21629l0.00553,0.04851l-1.46492,0.29883c-0.04095,0.00929 -0.08302,0.01413 -0.12594,0.01413c-0.4129,0 -0.74762,-0.44772 -0.74762,-1c0,-0.49857 0.27278,-0.91192 0.62959,-0.98761l1.03897,-0.24666c-0.20101,-0.00831 -0.40215,-0.02138 -0.60349,-0.0397z" fill="#0033b3" stroke="none" stroke-width="0.5" stroke-linecap="butt"></path></g></g></svg>