<svg version="1.1" xmlns="http://www.w3.org/2000/svg" xmlns:xlink="http://www.w3.org/1999/xlink" width="272.83306" height="80.5" viewBox="0,0,272.83306,80.5"><defs><linearGradient x1="325.27409" y1="178.40526" x2="461.22523" y2="178.40526" gradientUnits="userSpaceOnUse" id="color-1"><stop offset="0" stop-color="#ff0000"></stop><stop offset="1" stop-color="#ff0000" stop-opacity="0"></stop></linearGradient></defs><g transform="translate(-188.39218,-139.75)"><g data-paper-data="{&quot;isPaintingLayer&quot;:true}" fill-rule="nonzero" stroke-linejoin="miter" stroke-miterlimit="10" stroke-dasharray="" stroke-dashoffset="0" style="mix-blend-mode: normal"><path d="M461.22524,178.21413l-135.95115,2.67581v-4.96935z" data-paper-data="{&quot;index&quot;:null}" fill="url(#color-1)" stroke="none" stroke-width="0" stroke-linecap="round"></path><path d="M228.64218,219.5c-21.81525,0 -39.5,-17.68475 -39.5,-39.5c0,-21.81525 17.68475,-39.5 39.5,-39.5c21.81525,0 39.5,17.68475 39.5,39.5c0,21.81525 -17.68475,39.5 -39.5,39.5z" data-paper-data="{&quot;index&quot;:null}" fill="#d8d8d8" stroke="#000000" stroke-width="1.5" stroke-linecap="butt"></path><path d="M235.38943,176.20295v-8l9,-1" data-paper-data="{&quot;index&quot;:null}" fill="none" stroke="#000000" stroke-width="1.5" stroke-linecap="round"></path><path d="M215.45674,167.68819l9,1v8" data-paper-data="{&quot;index&quot;:null}" fill="none" stroke="#000000" stroke-width="1.5" stroke-linecap="round"></path><path d="M247.37676,184.07648v12.29517l-31.37388,-0.40984z" data-paper-data="{&quot;index&quot;:null}" fill="#ffffff" stroke="#000000" stroke-width="1.5" stroke-linecap="round"></path><path d="M241.44116,196.37165l-0.42397,-10.17531" data-paper-data="{&quot;index&quot;:null}" fill="none" stroke="#000000" stroke-width="1.5" stroke-linecap="round"></path><path d="M232.53776,195.94768v-5.9356" data-paper-data="{&quot;index&quot;:null}" fill="none" stroke="#000000" stroke-width="1.5" stroke-linecap="round"></path><g data-paper-data="{&quot;index&quot;:null}" stroke="none" stroke-linecap="butt"><path d="M291.8914,180.8481l-0.07123,-3.59411l33.24532,-0.65893l0.07123,3.59411z" fill="#606060" stroke-width="0"></path><path d="M295.29277,186.17393l-0.13654,-6.88866l4.49262,-0.08905l0.13654,6.88866z" fill="#606060" stroke-width="0"></path><path d="M335.10368,189.27999c0.02325,1.17368 -19.65158,1.00055 -19.65158,1.00055l0.09863,5.12905l-51.52172,1.02117l-0.25129,-12.67765l71.18844,-1.41095c0,0 0.09384,4.73475 0.13752,6.93784z" fill="#969696" stroke-width="NaN"></path><path d="M245.61765,207.63856c0,0 10.6802,-5.84934 13.8834,-9.82193c2.6913,-3.33772 4.0689,-12.44239 4.0689,-12.44239l7.86478,3.26431l-7.12253,24.44668z" fill="#606060" stroke-width="0"></path><path d="M293.35979,209.583l-0.32648,-16.47291l6.88866,-0.13654l0.32648,16.47291z" fill="#606060" stroke-width="0"></path><path d="M283.75444,193.59361l-0.20619,-10.40396l6.58916,-0.1306l0.20619,10.40396z" fill="#00fffe" stroke-width="0"></path><path d="M274.23093,193.72043l-0.20619,-10.40396l6.58916,-0.1306l0.20619,10.40396z" fill="#00fffe" stroke-width="0"></path><path d="M292.56752,193.59468l-0.20619,-10.40396l6.58916,-0.1306l0.20619,10.40396z" fill="#00fffe" stroke-width="0"></path></g><path d="M256.70975,207.45688c-4.53898,0 -8.21855,-3.67957 -8.21855,-8.21855c0,-4.53898 3.67957,-8.21855 8.21855,-8.21855c4.53898,0 8.21855,3.67957 8.21855,8.21855c0,4.53899 -3.67957,8.21855 -8.21855,8.21855z" data-paper-data="{&quot;index&quot;:null}" fill="#d8d8d8" stroke="#000000" stroke-width="1" stroke-linecap="butt"></path></g></g></svg>