<svg version="1.1" xmlns="http://www.w3.org/2000/svg" xmlns:xlink="http://www.w3.org/1999/xlink" width="112.22852" height="205.59368" viewBox="0,0,112.22852,205.59368"><g transform="translate(-167.01001,-12.83027)"><g data-paper-data="{&quot;isPaintingLayer&quot;:true}" fill-rule="nonzero" stroke-linejoin="miter" stroke-miterlimit="10" stroke-dasharray="" stroke-dashoffset="0" style="mix-blend-mode: normal"><path d="" data-paper-data="{&quot;index&quot;:null}" fill="none" stroke="#000000" stroke-width="1.5" stroke-linecap="round"></path><path d="M199.48853,178.17395c0,-21.81525 17.68475,-39.5 39.5,-39.5c21.81525,0 39.5,17.68475 39.5,39.5c0,21.81525 -17.68475,39.5 -39.5,39.5c-21.81525,0 -39.5,-17.68475 -39.5,-39.5z" fill="#d8d8d8" stroke="#000000" stroke-width="1.5" stroke-linecap="butt"></path><path d="M184.52581,194.65338" fill="none" stroke="#d8d8d8" stroke-width="4" stroke-linecap="round"></path><path d="M229.69475,170.57199v-8" fill="none" stroke="#000000" stroke-width="1.5" stroke-linecap="round"></path><path d="M235.31499,168.26759c0,0 1.27486,-2.93117 2.69835,-2.93117c1.20746,0 3.02185,2.93117 3.02185,2.93117" fill="none" stroke="#000000" stroke-width="1.5" stroke-linecap="round"></path><path d="M238.43304,191.06637c0,2.42201 -1.3368,4.38543 -2.98583,4.38543c-1.64903,0 -2.98583,-1.96343 -2.98583,-4.38543c0,-2.42201 1.3368,-4.38543 2.98583,-4.38543c1.64903,0 2.98583,1.96343 2.98583,4.38543z" fill="none" stroke="#000000" stroke-width="1.5" stroke-linecap="butt"></path><g><path d="M197.10118,33.03844c0,0 10.07029,0.89094 9.55834,5.08512c-0.51194,4.19419 -10.24641,0.91817 -10.24641,0.91817" fill="none" stroke="#ffee00" stroke-width="6.5" stroke-linecap="round"></path><g><path d="M174.19086,99.6038l10.39802,-55.44382l3.8237,0.71712l-10.39802,55.44382z" fill="#7f7600" stroke="#000000" stroke-width="0" stroke-linecap="butt"></path><path d="M181.10925,32.78042c0.77268,-4.28173 4.8701,-7.12638 9.15185,-6.3537c4.28173,0.77268 7.12638,4.8701 6.3537,9.15185c-0.77268,4.28173 -4.8701,7.12638 -9.15185,6.3537c-4.28173,-0.77268 -7.12638,-4.8701 -6.3537,-9.15185z" fill="none" stroke="#ffee00" stroke-width="5" stroke-linecap="butt"></path><path d="M187.13849,25.65751c0,0 0.89094,-10.07029 5.08513,-9.55836c4.19421,0.51194 0.91817,10.24641 0.91817,10.24641" fill="none" stroke="#ffee00" stroke-width="6.5" stroke-linecap="round"></path><path d="M189.63123,43.91455c0,0 -0.89094,10.07029 -5.08513,9.55837c-4.19421,-0.51194 -0.91817,-10.24641 -0.91817,-10.24641" fill="none" stroke="#ffee00" stroke-width="6.5" stroke-linecap="round"></path><path d="M179.83725,34.97922c0,0 -10.07029,-0.89094 -9.55836,-5.08513c0.51192,-4.19418 10.24638,-0.91818 10.24638,-0.91818" fill="none" stroke="#ffee00" stroke-width="6.5" stroke-linecap="round"></path></g></g></g></g></svg>