<svg version="1.1" xmlns="http://www.w3.org/2000/svg" xmlns:xlink="http://www.w3.org/1999/xlink" width="100.10465" height="88.74785" viewBox="0,0,100.10465,88.74785"><g transform="translate(-183.17936,-137.92395)"><g data-paper-data="{&quot;isPaintingLayer&quot;:true}" fill-rule="nonzero" stroke-linejoin="miter" stroke-miterlimit="10" stroke-dasharray="" stroke-dashoffset="0" style="mix-blend-mode: normal"><path d="M183.67936,184.53645c0,-3.96071 3.21079,-7.1715 7.1715,-7.1715c3.96071,0 7.1715,3.21079 7.1715,7.1715c0,3.96071 -3.21079,7.1715 -7.1715,7.1715c-3.96071,0 -7.1715,-3.21079 -7.1715,-7.1715z" fill="#d8d8d8" stroke="#000000" stroke-width="1" stroke-linecap="butt"></path><path d="" data-paper-data="{&quot;index&quot;:null}" fill="none" stroke="#000000" stroke-width="1.5" stroke-linecap="round"></path><path d="" data-paper-data="{&quot;index&quot;:null}" fill="none" stroke="#000000" stroke-width="1.5" stroke-linecap="round"></path><path d="M199.48851,178.17395c0,-21.81525 17.68475,-39.5 39.5,-39.5c21.81525,0 39.5,17.68475 39.5,39.5c0,21.81525 -17.68475,39.5 -39.5,39.5c-21.81525,0 -39.5,-17.68475 -39.5,-39.5z" fill="#d8d8d8" stroke="#000000" stroke-width="1.5" stroke-linecap="butt"></path><path d="M225.51007,194.79569c5.44898,-2.88817 27.57511,5.13694 27.57511,5.13694" data-paper-data="{&quot;index&quot;:null}" fill="none" stroke="#000000" stroke-width="1.5" stroke-linecap="round"></path><path d="M225.31197,165.60053l6.99536,1.82343v8" fill="none" stroke="#000000" stroke-width="1.5" stroke-linecap="round"></path><path d="M237.86965,175.98477l-0.24149,-8.93527l7.00332,-2.17344" fill="none" stroke="#000000" stroke-width="1.5" stroke-linecap="round"></path><path d="M238.59414,186.12751l16.42158,-6.52033" fill="none" stroke="#000000" stroke-width="1.5" stroke-linecap="round"></path><path d="M241.73356,180.09016l2.89793,5.55436" fill="none" stroke="#000000" stroke-width="1.5" stroke-linecap="round"></path><path d="M250.18584,185.64452l-3.8639,-7.7278" fill="none" stroke="#000000" stroke-width="1.5" stroke-linecap="round"></path><g><path d="M247.30268,205.32303l-0.27068,11.02107l-11.15416,8.59478l2.24974,-14.89884z" data-paper-data="{&quot;index&quot;:null}" fill="#c6c6c6" stroke="#c6c6c6" stroke-width="1.5" stroke-linecap="round"></path><path d="M258.65719,163.22359" fill="none" stroke="#d8d8d8" stroke-width="4" stroke-linecap="round"></path><path d="M283.28401,149.3091l-28.72387,48.54972l-3.34827,-1.98096l28.72387,-48.54972z" fill="#7f7600" stroke="#000000" stroke-width="0" stroke-linecap="butt"></path><path d="M247.38862,207.5258c-2.17355,0.9989 -3.25246,-1.17488 -3.25246,-1.17488l-1.17808,-3.5644c0.62517,-3.00761 1.99134,-5.72431 2.39276,-8.7604c0.1664,-1.25841 -0.44507,-2.82599 0.38203,-3.78887c1.27254,-1.48145 3.29758,-3.16096 5.19671,-2.70565c1.56843,0.37601 0.98533,3.13995 1.96362,4.42226c0.51523,0.67534 1.76696,0.4619 2.2794,1.13936c0.38435,0.50812 -0.53357,1.61032 0.02805,1.91113c0.86726,0.46448 2.37578,-1.13547 2.93349,-0.32499c3.75828,5.46166 -3.4852,10.62349 -6.75057,13.63479c0,0 -1.83818,1.69442 -3.5326,-0.14378c-0.2007,-0.21774 -0.35185,-0.43346 -0.46236,-0.64459z" fill="#ff0000" stroke="none" stroke-width="0.5" stroke-linecap="butt"></path></g></g></g></svg>