<svg version="1.1" xmlns="http://www.w3.org/2000/svg" xmlns:xlink="http://www.w3.org/1999/xlink" width="600.8812" height="603.79995" viewBox="0,0,600.8812,603.79995"><defs><linearGradient x1="-39.26929" y1="172.60074" x2="455.18549" y2="172.60074" gradientUnits="userSpaceOnUse" id="color-1"><stop offset="0" stop-color="#000000"></stop><stop offset="1" stop-color="#000000" stop-opacity="0"></stop></linearGradient></defs><g transform="translate(60.4406,129.29923)"><g data-paper-data="{&quot;isPaintingLayer&quot;:true}" fill-rule="nonzero" stroke="none" stroke-linejoin="miter" stroke-miterlimit="10" stroke-dasharray="" stroke-dashoffset="0" style="mix-blend-mode: normal"><path d="M-60.4406,406.86684v-453.73367h600.8812v453.73367z" fill="#ffffff" stroke-width="NaN" stroke-linecap="butt"></path><g fill="#000000" stroke-width="0"><path d="M102.7542,248.78085c-32.03252,0 -58,-25.96748 -58,-58c0,-32.03252 25.96748,-58 58,-58c32.03252,0 58,25.96748 58,58c0,32.03252 -25.96748,58 -58,58z" data-paper-data="{&quot;index&quot;:null}" stroke-linecap="butt"></path><path d="M112.66156,185.20545v-11.74684l13.21519,-1.46836" data-paper-data="{&quot;index&quot;:null}" stroke-linecap="round"></path><path d="M83.3933,172.70276l13.21519,1.46836v11.74684" data-paper-data="{&quot;index&quot;:null}" stroke-linecap="round"></path><path d="M130.2632,196.76658v18.05367l-46.06797,-0.60179z" data-paper-data="{&quot;index&quot;:null}" stroke-linecap="round"></path><path d="M121.54764,214.82025l-0.62253,-14.94096" data-paper-data="{&quot;index&quot;:null}" stroke-linecap="round"></path><path d="M108.47429,205.48215v8.71556" data-paper-data="{&quot;index&quot;:null}" stroke-linecap="round"></path><g data-paper-data="{&quot;index&quot;:null}" stroke-linecap="butt"><path d="M190.28275,191.46487l-0.10459,-5.27743l48.81592,-0.96754l0.10459,5.27742z"></path><path d="M195.27718,199.28508l-0.20049,-10.11499l6.59676,-0.13075l0.20049,10.11499z"></path><path d="M253.73371,203.84587c0.03414,1.72338 -28.85548,1.46917 -28.85548,1.46917l0.14482,7.53126l-75.65214,1.49944l-0.36898,-18.61528l104.52986,-2.07178c0,0 0.13779,6.95229 0.20193,10.18721z"></path><path d="M122.3365,230.80278c0,0 15.68232,-8.5889 20.38576,-14.42207c3.95178,-4.90096 5.97458,-18.26984 5.97458,-18.26984l11.54829,4.79317l-10.4584,35.89639z"></path><path d="M192.43888,233.6579l-0.47939,-24.18807l10.115,-0.20049l0.47939,24.18807z"></path><path d="M178.33482,210.17981l-0.30276,-15.2767l9.67522,-0.19177l0.30276,15.2767z"></path><path d="M164.35094,210.36601l-0.30276,-15.2767l9.67522,-0.19177l0.30276,15.2767z"></path><path d="M191.27555,210.18137l-0.30276,-15.2767l9.67522,-0.19177l0.30276,15.2767z"></path></g><path d="M144.51717,231.09729c-6.66483,0 -12.06774,-5.40292 -12.06774,-12.06775c0,-6.66483 5.40292,-12.06774 12.06774,-12.06774c6.66483,0 12.06774,5.40291 12.06774,12.06774c0,6.66484 -5.40291,12.06775 -12.06774,12.06775z" data-paper-data="{&quot;index&quot;:null}" stroke-linecap="butt"></path></g><path d="M228.76405,191.71594c2.12295,2.08751 4.25257,4.20212 6.39623,6.32036c0.00958,-0.0462 0.02111,-0.09129 0.03496,-0.13506c0.14259,-0.45079 0.29542,-0.90061 0.45633,-1.34951c-2.30705,-1.59411 -4.5958,-3.21744 -6.88751,-4.83579zM238.445,199.38847c-0.01904,-0.01996 -0.03808,-0.03993 -0.05711,-0.0599c-0.18903,0.43601 -0.32953,0.92899 -0.47424,1.42046c0.42419,0.41634 0.84904,0.83243 1.27462,1.2481c0.50468,-0.09842 1.0121,-0.18828 1.52274,-0.268c-0.76051,-0.77796 -1.51817,-1.55656 -2.26601,-2.34067zM243.33684,196.5769c0,-0.49575 0.20614,-0.94336 0.53739,-1.26178c-0.03391,-0.1314 -0.06735,-0.26367 -0.10039,-0.39671c-0.76615,-1.14541 -1.43036,-2.70657 -1.95233,-4.081c-0.57273,1.47405 -1.12872,2.96651 -1.71145,4.44438c1.10298,0.75716 2.20941,1.50859 3.32096,2.25149c0.03095,-0.05783 0.06161,-0.1144 0.09212,-0.16984c-0.11918,-0.23647 -0.18629,-0.50367 -0.18629,-0.78654zM274.11953,216.31643l2.52675,1.68041c0.48346,0.31141 0.80361,0.85446 0.80361,1.47228c0,0.9665 -0.7835,1.75 -1.75,1.75c-0.26,0 -0.50676,-0.0567 -0.72858,-0.15841l-3.17832,-1.37105l0.01061,-0.02459c-0.05447,-0.0161 -0.1088,-0.03279 -0.163,-0.05012c-2.82161,-0.90187 -6.34112,-4.34035 -8.80274,-6.02915c-0.94858,-0.65077 -1.8852,-1.29236 -2.80972,-1.93231c-0.11833,0.16098 -0.31382,0.38279 -0.58453,0.54667c-0.15408,0.61585 -0.41503,1.15762 -0.91497,1.52392c-0.44999,0.3297 -0.97682,0.42716 -1.53941,0.41162l0.03394,0.72594c1.36497,1.85699 2.62648,3.77148 3.7358,5.75587l0.29665,-0.23241l2.14914,2.74322c0.23894,0.2992 0.38178,0.67852 0.38178,1.09119c0,0.9665 -0.7835,1.75 -1.75,1.75c-0.40934,0 -0.78585,-0.14054 -1.08392,-0.376l-2.75488,-2.13305c-1.41508,-1.0968 -2.81581,-2.22467 -4.20358,-3.37811c-0.09014,0.89962 -0.18053,1.79922 -0.27125,2.69879l-0.07376,0.12289l0.0441,0.01156l-0.87816,3.34939c-0.03325,0.13935 -0.08316,0.27223 -0.14752,0.39642c-0.46331,2.97936 -0.94987,5.95487 -1.475,8.92855l-0.60345,3.4172c-0.13187,0.83592 -0.85555,1.47514 -1.72854,1.47514c-0.93003,0 -1.69061,-0.72549 -1.74669,-1.6414l-0.2095,-2.97779l0.03206,-0.00226c-0.01259,-0.06839 -0.02404,-0.13708 -0.03428,-0.20609c-0.00772,-0.052 1.16273,-6.92914 1.19317,-7.10855c0.20856,-1.2296 0.41351,-2.45925 0.62058,-3.68818l-0.34187,-3.09711l0.45575,-0.05031c-0.45646,-2.2504 -0.64197,-4.44465 -0.69906,-6.7041c-0.58182,-0.52231 -1.16161,-1.04789 -1.73948,-1.57631c-0.87719,2.92582 -3.34081,6.41439 -4.61717,8.9777c-3.13749,6.30102 -5.95222,12.90447 -9.85124,18.7684l-1.92564,2.89006c-0.31155,0.4827 -0.85416,0.80226 -1.4714,0.80226c-0.9665,0 -1.75,-0.7835 -1.75,-1.75c0,-0.21469 0.03866,-0.42034 0.1094,-0.61039l1.13039,-3.26932l0.34066,0.11779c0.10325,-0.58158 0.21785,-1.16064 0.34316,-1.73717c-0.54072,-0.29775 -0.90709,-0.87309 -0.90709,-1.534c0,-0.19523 0.03197,-0.38299 0.09096,-0.55834l0.67402,-2.1687c-1.30022,1.91304 -2.59875,3.828 -3.89947,5.74268l-0.05815,0.03805l0.01808,0.01437l-1.83708,2.31146c-0.32026,0.41033 -0.81949,0.67416 -1.38034,0.67416c-0.73905,0 -1.3711,-0.45813 -1.62765,-1.10588c-9.33654,14.32534 -19.32837,28.09999 -29.37014,41.94488l-2.04179,2.81508c-0.31691,0.44811 -0.83918,0.74067 -1.42977,0.74067c-0.93736,0 -1.7026,-0.73698 -1.74788,-1.66311l-0.16963,-3.00785l0.04362,-0.00246c-0.00822,-0.17516 -0.00621,-0.35126 0.00786,-0.52846c0.10625,-1.33846 1.3594,-2.31593 2.05531,-3.46417c2.41821,-3.99002 4.92395,-7.92998 7.38513,-11.89369c5.35557,-8.6251 10.22515,-17.96901 16.23855,-26.14406c3.45781,-4.7008 7.53795,-9.05824 11.27315,-13.5435c3.73292,-4.48253 7.46584,-8.96506 11.19876,-13.44759c1.13102,-1.35815 2.10916,-2.86602 3.32295,-4.14414c-1.35225,-0.54988 -2.70268,-1.10499 -4.05074,-1.66619c-5.65387,1.63351 -10.68793,2.82415 -16.65219,3.11637c-0.44465,0.02179 -7.12103,0.36054 -7.35829,0.32194c-3.25618,-0.52979 -7.05267,-2.70659 -10.13789,-3.90869c-3.53742,-1.49914 -4.67761,-4.13965 -6.77822,-7.2609c-3.89006,-5.78018 -7.71955,-11.59064 -11.49915,-17.44364l-1.91073,-2.89542c-0.19111,-0.28044 -0.30283,-0.61931 -0.30283,-0.98427c0,-0.9665 0.7835,-1.75 1.75,-1.75c0.26275,0 0.51198,0.05791 0.73562,0.16166l3.17225,1.38559l-0.00535,0.01224c0.03323,0.01059 0.06641,0.02135 0.09955,0.03229c0.01854,0.00612 6.05281,3.55027 6.1278,3.59431c4.00168,2.34956 7.95399,4.83692 12.0259,7.06191c10.26803,5.61068 20.76996,10.54125 31.50024,15.06523c0.0216,-0.00624 0.0432,-0.01248 0.0648,-0.01871c-2.89063,-0.93534 -5.35612,-4.45285 -6.65662,-6.40664c-1.54801,-2.32564 -3.02301,-4.63903 -4.43865,-6.97774c-2.20131,-2.15161 -4.31353,-4.35767 -6.17745,-6.78771l-0.30104,0.30695l-2.49777,-2.44968c-0.32439,-0.31766 -0.52569,-0.76054 -0.52569,-1.25043c0,-0.9665 0.7835,-1.75 1.75,-1.75c0.34656,0 0.6696,0.10074 0.94142,0.27453l0.52998,0.3265c-0.96166,-1.86972 -2.66309,-5.19058 -2.71045,-5.3864c-0.30649,-1.26735 -0.10208,-2.60854 -0.04903,-3.91135c0.06273,-1.54059 -0.55298,-3.39334 0.39594,-4.60862c3.15848,-4.04503 9.74937,2.89236 12.02698,4.54261c3.32902,2.41364 6.46903,4.9444 9.47121,7.59371c-1.76777,-3.21159 -3.31131,-6.48836 -3.915,-9.92419l-1.22464,-3.23575c-0.08225,-0.20289 -0.12755,-0.4247 -0.12755,-0.65709c0,-0.9665 0.7835,-1.75 1.75,-1.75c0.70026,0 1.30446,0.4113 1.5842,1.00551l0.90684,1.82544l-0.01405,0.00698l0.02955,0.02504c1.37056,3.06481 2.6197,6.23464 4.12527,9.2346c1.10267,2.19716 2.59599,4.23912 3.97481,6.32944c1.13235,-3.80373 2.08188,-7.65062 3.06616,-11.58257c0.4611,-1.84199 1.38509,-7.07612 3.68615,-7.61646c0.53044,-0.12456 6.40254,3.96765 6.8559,5.03141c0.55518,1.30265 0.13599,2.82911 0.16641,4.2448c0.07597,3.53583 0.12309,7.03766 0.0946,10.52076c2.47431,-3.29897 4.92441,-6.61537 7.38016,-9.9293c1.86887,-2.72092 3.73774,-5.44185 5.60661,-8.16277c3.20172,-5.5876 6.43845,-11.17534 10.04443,-16.43352c2.17876,-3.17703 4.56761,-6.23955 6.95321,-9.29294c6.10771,-9.48938 12.18406,-18.99808 18.54151,-28.32544l1.28282,-1.8821c0.31319,-0.47352 0.85046,-0.78584 1.46068,-0.78584c0.9665,0 1.75,0.7835 1.75,1.75c0,0.24241 -0.04929,0.47332 -0.13839,0.68323l-1.27787,3.21563l-0.39721,-0.15785c-1.62633,6.62794 -4.9981,12.4549 -8.69512,18.23073c0.07814,0.30186 0.15341,0.62477 0.22563,0.96969c0.29279,1.3984 -1.00053,2.67698 -1.53936,4.0002c-1.31832,3.23739 -2.79471,6.42267 -4.18945,9.62801c-6.46926,14.86737 -12.95197,29.53194 -20.43788,43.91695c-3.51295,6.75053 -7.02589,13.50105 -10.53884,20.25158c4.08386,2.71597 8.16772,5.43193 12.25158,8.1479zM220.74579,180.76237c0,-0.9665 0.7835,-1.75 1.75,-1.75c0.46067,0 0.87976,0.178 1.19226,0.46897l2.56516,2.37389c3.77478,3.49499 7.3423,7.22759 10.87438,10.98901c0.66867,-1.57092 1.36332,-3.13158 1.988,-4.68368c0.27667,-0.68742 0.54194,-1.37525 0.79714,-2.06377c-0.05338,-0.10944 -0.10731,-0.21885 -0.16175,-0.32824c-0.12067,-0.12193 -0.24182,-0.24317 -0.36347,-0.36368c-4.79124,-4.74652 -10.57747,-9.17919 -16.03389,-13.12998c-1.88949,-1.36904 -3.82126,-2.68155 -5.66847,-4.10712c-0.50468,-0.38948 -1.54408,-1.6878 -1.59684,-1.05249c-0.36258,4.36598 1.46934,7.55767 3.40117,11.3182c0.41445,0.80677 0.83351,1.60443 1.25752,2.39456c-0.0008,-0.02179 -0.00121,-0.04368 -0.00121,-0.06566zM229.07391,232.3046c-0.00606,0.00891 -0.01212,0.01782 -0.01818,0.02672l0.01396,0.00434c0.0014,-0.01036 0.00281,-0.02071 0.00422,-0.03107zM268.08009,175.4554c-0.37945,2.20522 -0.96572,4.34081 -1.87756,6.16459c-2.39373,4.78774 -6.27496,8.87815 -9.85679,12.93343c-0.29689,1.39421 -0.59569,2.79112 -0.91347,4.18c0.82468,0.96171 1.6419,1.9291 2.44242,2.90843c0.6737,0.8242 1.61394,1.52236 2.19609,2.39829c3.07708,-5.91296 6.15416,-11.82593 9.23125,-17.73889c6.37311,-12.24666 12.03234,-24.62086 17.54033,-37.27906c0.72363,-1.66301 1.44726,-3.32602 2.17088,-4.98903c-4.95575,7.93642 -9.8929,15.91366 -15.30335,23.51515c-1.8766,2.63569 -3.75321,5.27139 -5.62981,7.90708zM247.49298,209.40435c0.15665,0.03719 0.31391,0.07074 0.47171,0.10113c0.00044,-0.01888 0.00088,-0.03777 0.00132,-0.05667c-0.42601,-0.49822 -0.85924,-0.99092 -1.29814,-1.47915c-0.15415,0.24803 -0.30765,0.49651 -0.46059,0.74536c0.16997,0.15852 0.34011,0.31684 0.5104,0.47493c0.25566,0.0802 0.51388,0.15234 0.7753,0.21441zM249.26343,196.92858c-0.02272,-0.02749 -0.04543,-0.05499 -0.06814,-0.0825c-0.20766,0.29352 -0.41532,0.58704 -0.62298,0.88056l0.08955,0.09514zM252.51544,184.88608c-0.06627,-3.82989 -0.273,-7.6807 -0.273,-11.41458c0,-2.0858 0.93492,-4.31613 0.16641,-6.2552c-0.2622,-0.66156 -1.25368,-0.71485 -1.74552,-1.22913c-0.51362,-0.53705 -0.47765,-1.94656 -1.21662,-1.86812c-0.6781,0.07197 -0.14304,1.35831 -0.27789,2.02675c-0.20434,1.01295 -0.49046,2.00768 -0.73835,3.01086c-1.2519,5.06635 -2.47787,9.995 -4.08589,14.8694c0.06799,0.14836 0.13404,0.2975 0.19802,0.44749c0.41071,0.96285 0.75005,1.99354 1.04885,3.05526c0.89386,0.96255 1.77984,1.93792 2.65972,2.92617c1.1127,-1.45997 3.10053,-4.04851 3.44217,-4.49402c0.27451,-0.35796 0.54853,-0.71626 0.8221,-1.07488zM227.69569,205.08786c-10.56882,-4.53761 -20.9524,-9.51303 -30.88458,-15.34308c-3.01842,-1.77177 -6.03641,-3.54425 -9.05462,-5.31637c-1.10543,-0.64905 -2.19753,-1.19001 -3.21386,-1.78714c3.20196,4.92719 6.44054,9.82542 9.72249,14.70201c1.53137,2.27543 2.48498,5.06045 5.14523,5.95387c2.85092,1.11081 6.41663,3.22514 9.42929,3.71531c3.69332,0.60092 9.71035,-0.061 13.41193,-0.68358c1.84435,-0.31021 3.65118,-0.74978 5.44413,-1.24102zM220.39686,233.32453c-2.42232,2.79444 -4.84278,5.60564 -7.01464,8.55357c-4.9199,6.67791 -8.96005,14.26492 -13.28838,21.39086c5.91719,-8.315 11.72379,-16.69977 17.28878,-25.28874c1.00554,-1.55194 2.00986,-3.10406 3.01424,-4.65568z" fill="#000000" stroke-width="0.5" stroke-linecap="butt"></path><path d="M-39.26929,474.50072v-603.79995h494.45478v603.79995z" fill="url(#color-1)" stroke-width="0" stroke-linecap="butt"></path></g></g></svg>