<svg version="1.1" xmlns="http://www.w3.org/2000/svg" xmlns:xlink="http://www.w3.org/1999/xlink" width="103.25396" height="151.23319" viewBox="0,0,103.25396,151.23319"><g transform="translate(-198.43372,-69.63751)"><g data-paper-data="{&quot;isPaintingLayer&quot;:true}" fill-rule="nonzero" stroke-linejoin="miter" stroke-miterlimit="10" stroke-dasharray="" stroke-dashoffset="0" style="mix-blend-mode: normal"><path d="" data-paper-data="{&quot;index&quot;:null}" fill="none" stroke="#000000" stroke-width="1.5" stroke-linecap="round"></path><path d="" data-paper-data="{&quot;index&quot;:null}" fill="none" stroke="#000000" stroke-width="1.5" stroke-linecap="round"></path><path d="M301.68768,195.47554" data-paper-data="{&quot;index&quot;:null}" fill="none" stroke="#d8d8d8" stroke-width="4" stroke-linecap="round"></path><path d="M199.18372,180.6207c0,-21.81525 17.68475,-39.5 39.5,-39.5c21.81525,0 39.5,17.68475 39.5,39.5c0,21.81525 -17.68475,39.5 -39.5,39.5c-21.81525,0 -39.5,-17.68475 -39.5,-39.5z" data-paper-data="{&quot;index&quot;:null}" fill="#d8d8d8" stroke="#000000" stroke-width="1.5" stroke-linecap="butt"></path><path d="M254.35771,169.6083l-11.07275,4.59202" data-paper-data="{&quot;index&quot;:null}" fill="none" stroke="#000000" stroke-width="1.5" stroke-linecap="round"></path><path d="M249.19657,173.09156l-0.25511,5.86758" data-paper-data="{&quot;index&quot;:null}" fill="none" stroke="#000000" stroke-width="1.5" stroke-linecap="round"></path><path d="M239.9685,174.57761l-14.45771,-4.12252" data-paper-data="{&quot;index&quot;:null}" fill="none" stroke="#000000" stroke-width="1.5" stroke-linecap="round"></path><path d="M234.44135,178.41109l-0.21988,-5.35892" data-paper-data="{&quot;index&quot;:null}" fill="none" stroke="#000000" stroke-width="1.5" stroke-linecap="round"></path><path d="M252.45108,192.12344l-18.63798,-0.59168" fill="none" stroke="#000000" stroke-width="1.5" stroke-linecap="round"></path><g stroke="#000000" stroke-linecap="butt"><g><g data-paper-data="{&quot;index&quot;:null}"><path d="M222.62053,173.69041l-1.20308,21.55034c0,0 -2.40513,3.25086 -3.49107,3.12761c-1.08791,-0.12348 -3.03045,-3.86778 -3.03045,-3.86778l1.20308,-21.55034z" fill="#af5400" stroke-width="1.5"></path><path d="M231.08046,170.27792c0,0 1.39157,5.63747 -0.7936,7.84562c-2.55988,2.58679 -8.07737,1.90154 -11.71285,1.58245c-6.73882,-0.59137 -12.21329,-3.57934 -12.22762,-6.67379c-0.00664,-1.43782 1.43098,-5.79976 1.43098,-5.79976c0,0 7.1372,0.9509 10.74487,1.26751c6.73881,0.59137 12.55819,1.77795 12.55819,1.77795z" fill="#989898" stroke-width="1"></path><path d="M231.49966,170.098c0.01428,3.09445 -5.43702,5.12361 -12.17587,4.53224c-6.73882,-0.59139 -12.21331,-3.57931 -12.22761,-6.67376c-0.01429,-3.09446 5.43704,-5.12363 12.17585,-4.53226c6.73882,0.59139 12.21331,3.57932 12.22761,6.67376z" fill="#989898" stroke-width="1"></path><path d="M216.05218,169.64065l8.01111,-98.75215l4.69731,14.24273l-6.92482,85.36202c0,0 -1.80223,1.52462 -2.75461,1.38418c-0.9749,-0.14374 -3.029,-2.23682 -3.029,-2.23682z" fill="#e6e6e6" stroke-width="0.5"></path></g><path d="M215.56175,202.9774c-5.59589,-0.67865 -9.58212,-5.76518 -8.90346,-11.36108c0.67865,-5.59589 5.76518,-9.58212 11.36108,-8.90346c5.59589,0.67865 9.58212,5.76518 8.90346,11.36108c-0.67865,5.59589 -5.76518,9.58212 -11.36108,8.90346z" fill="#d8d8d8" stroke-width="1"></path></g><path d="M218.19799,203.32419c-5.63355,-0.19434 -10.0429,-4.91877 -9.84857,-10.55232c0.19434,-5.63355 4.91877,-10.0429 10.55232,-9.84857c5.63355,0.19434 10.04291,4.91877 9.84858,10.55232c-0.19434,5.63355 -4.91878,10.0429 -10.55233,9.84857z" data-paper-data="{&quot;index&quot;:null}" fill="#d8d8d8" stroke-width="1"></path></g></g></g></svg>