<svg version="1.1" xmlns="http://www.w3.org/2000/svg" xmlns:xlink="http://www.w3.org/1999/xlink" width="112.97274" height="86.5311" viewBox="0,0,112.97274,86.5311"><g transform="translate(-415.11568,-133.7189)"><g stroke-miterlimit="10"><path d="M444.82949,180c0,-21.81525 17.68475,-39.5 39.5,-39.5c21.81525,0 39.5,17.68475 39.5,39.5c0,21.81525 -17.68475,39.5 -39.5,39.5c-21.81525,0 -39.5,-17.68475 -39.5,-39.5z" fill="#d8d8d8" stroke="#000000" stroke-width="1.5" stroke-linecap="butt"/><g><path d="M521.4174,166.85681l6.04229,1.93604l-3.07489,9.59658l-6.04229,-1.93604z" fill="#989898" stroke="#000000" stroke-width="1" stroke-linecap="butt"/><path d="M507.57415,190.17381c3.03427,0.97223 4.7059,4.22015 3.73367,7.25442c-0.97223,3.03427 -4.22015,4.7059 -7.25442,3.73367c-3.03427,-0.97223 -4.7059,-4.22015 -3.73367,-7.25442c0.97223,-3.03427 4.22015,-4.7059 7.25442,-3.73367z" fill="none" stroke="#000000" stroke-width="0.5" stroke-linecap="butt"/><path d="M507.46561,196.0017l7.60904,-23.74748l11.10198,3.16532l-10.44867,32.60982l-3.616,8.05148l-4.61,-10.68721l-17.29473,-5.54149l3.06646,-9.57027l7.798,2.49859z" fill="#989898" stroke="#000000" stroke-width="1" stroke-linecap="round"/><path d="M517.01765,187.53185l5.31682,1.70359l-2.15788,6.73464l-5.31682,-1.70359z" fill="#00f6ff" stroke="none" stroke-width="0" stroke-linecap="butt"/><path d="M520.33315,179.01903l5.31682,1.70359l-2.15788,6.73464l-5.31682,-1.70359z" fill="#00f6ff" stroke="none" stroke-width="0" stroke-linecap="butt"/></g><path d="M468.06107,163.31407h12.87638" fill="none" stroke="#000000" stroke-width="1.5" stroke-linecap="round"/><path d="M470.67367,174.51092v-10.07717" fill="none" stroke="#000000" stroke-width="1.5" stroke-linecap="round"/><path d="M485.04296,163.50068h13.24961" fill="none" stroke="#000000" stroke-width="1.5" stroke-linecap="round"/><path d="M485.95603,164.24714l-0.15196,10.63701" fill="none" stroke="#000000" stroke-width="1.5" stroke-linecap="round"/><g stroke="#000000" stroke-linecap="butt"><path d="M450.1937,162.92251l-11.81668,-9.72257l4.26844,-5.18782l11.81669,9.72259z" fill="#989898" stroke-width="1"/><path d="M438.02927,155.81615c-3.74763,1.78715 -4.3234,-1.28005 -3.84101,-3.16029c0.48239,-1.88025 6.75954,-8.21544 6.75954,-8.21544l3.84101,3.16031c0,0 -3.01193,6.42831 -6.75955,8.21543z" fill="#d3d3d3" stroke-width="0.5"/><path d="M436.64775,151.77712l-20.89534,-17.19234l7.49898,-0.59649c0,0 0.20451,3.30986 1.62894,4.48187c0.99291,0.81696 1.64917,-1.17529 3.91579,0.21605c4.45479,2.73456 11.17157,9.05595 11.17157,9.05595z" fill="#00e6ff" stroke-width="0.5"/></g><path d="M468.99414,188.04206c0,-2.11282 3.42555,-3.82559 7.65118,-3.82559c4.22563,0 7.65118,1.71278 7.65118,3.82559c0,2.11282 -15.30236,2.11282 -15.30236,0z" fill="#000000" stroke="#000000" stroke-width="1.5" stroke-linecap="butt"/></g></g></svg>