<svg version="1.1" xmlns="http://www.w3.org/2000/svg" xmlns:xlink="http://www.w3.org/1999/xlink" width="93.41021" height="92.32116" viewBox="0,0,93.41021,92.32116"><g transform="translate(-194.50255,-136.44188)"><g data-paper-data="{&quot;isPaintingLayer&quot;:true}" fill-rule="nonzero" stroke-linejoin="miter" stroke-miterlimit="10" stroke-dasharray="" stroke-dashoffset="0" style="mix-blend-mode: normal"><path d="M217.15346,164.01526l8.91236,1.60308l-0.53809,7.9819" data-paper-data="{&quot;index&quot;:null}" fill="none" stroke="#000000" stroke-width="1.5" stroke-linecap="round"></path><path d="M234.56569,171.66122l3.00574,-7.41388l8.71632,2.45475" data-paper-data="{&quot;index&quot;:null}" fill="none" stroke="#000000" stroke-width="1.5" stroke-linecap="round"></path><path d="M220.95208,188.45966c0,0 5.67233,-6.48661 10.17346,-3.39946c4.38777,3.00941 4.66165,14.07567 4.66165,14.07567z" data-paper-data="{&quot;index&quot;:null}" fill="#040404" stroke="#000000" stroke-width="1.5" stroke-linecap="round"></path><path d="M214.32177,148.48562c11.41757,-14.16141 34.13723,-14.78628 50.74577,-1.3957c16.60854,13.39058 20.81667,35.72587 9.39911,49.88726c-7.04658,8.74001 -17.54466,17.80636 -29.1077,16.12164c-0.48283,-0.07035 -5.96447,-1.07086 -5.96447,-1.07086l-8.90976,10.6932l-10.38985,-7.153l9.32002,-12.36481l-9.71989,12.16668l-11.59447,-9.08495l9.64166,-12.69404l-9.29403,12.81507l-12.53756,-10.21946c0,0 10.60511,-12.97227 10.32655,-13.2667c-1.81981,-1.92323 -1.57284,-1.26937 -2.42225,-3.15564c-5.21405,-11.57919 2.94297,-21.89698 10.50691,-31.27867z" data-paper-data="{&quot;index&quot;:null}" fill="#ffffff" stroke="#000000" stroke-width="2" stroke-linecap="butt"></path><path d="M252.14873,181.03253c-3.7196,4.61348 -9.30411,6.28203 -12.4734,3.72684c-3.16927,-2.55521 -2.72312,-8.3666 0.99647,-12.98006c3.7196,-4.61348 6.19701,-9.26658 9.36627,-6.71137c2.50859,2.02255 3.6582,12.62857 3.6582,12.62857c0,0 -0.77217,2.37429 -1.54754,3.33603z" data-paper-data="{&quot;index&quot;:null}" fill="#ababab" stroke="#000000" stroke-width="1" stroke-linecap="butt"></path><path d="M273.72399,183.92184c3.16927,2.55521 -0.85253,5.96316 -4.57212,10.57663c-3.7196,4.61348 -9.30412,6.28204 -12.4734,3.72685c-3.16927,-2.55521 -2.72312,-8.3666 0.99648,-12.98008c0.77538,-0.96173 2.93189,-2.21991 2.93189,-2.21991c0,0 10.60856,-1.12608 13.11715,0.89647z" data-paper-data="{&quot;index&quot;:null}" fill="#ababab" stroke="#000000" stroke-width="1" stroke-linecap="butt"></path><path d="" data-paper-data="{&quot;index&quot;:null}" fill="none" stroke="#000000" stroke-width="1.5" stroke-linecap="round"></path><path d="" data-paper-data="{&quot;index&quot;:null}" fill="none" stroke="#000000" stroke-width="1.5" stroke-linecap="round"></path><path d="" data-paper-data="{&quot;index&quot;:null}" fill="none" stroke="#000000" stroke-width="1.5" stroke-linecap="round"></path><path d="" data-paper-data="{&quot;index&quot;:null}" fill="none" stroke="#000000" stroke-width="1.5" stroke-linecap="round"></path><path d="" data-paper-data="{&quot;index&quot;:null}" fill="none" stroke="#000000" stroke-width="1.5" stroke-linecap="round"></path><path d="" data-paper-data="{&quot;index&quot;:null}" fill="none" stroke="#000000" stroke-width="1.5" stroke-linecap="round"></path><path d="" data-paper-data="{&quot;index&quot;:null}" fill="none" stroke="#000000" stroke-width="1.5" stroke-linecap="round"></path><path d="" data-paper-data="{&quot;index&quot;:null}" fill="none" stroke="#000000" stroke-width="1.5" stroke-linecap="round"></path><path d="" data-paper-data="{&quot;index&quot;:null}" fill="none" stroke="#000000" stroke-width="1.5" stroke-linecap="round"></path><path d="" data-paper-data="{&quot;index&quot;:null}" fill="none" stroke="#000000" stroke-width="1.5" stroke-linecap="round"></path><path d="M268.98117,208.97563c2.55771,-4.76785 8.49626,-6.55952 13.26411,-4.00181c4.76785,2.55771 6.55952,8.49626 4.00181,13.26411c-2.55771,4.76785 -8.49626,6.55952 -13.26411,4.00181c-4.76785,-2.55771 -6.55952,-8.49626 -4.00181,-13.26411z" fill="#ffffff" stroke="#000000" stroke-width="1" stroke-linecap="butt"></path><path d="M266.18469,225.42716c0,-0.5 0.5,-0.5 0.5,-0.5h0.77342c0.08679,0 0.17669,-0.0013 0.26934,-0.00365c-0.05957,-1.70046 -0.74209,-5.58446 -0.10829,-7.37857c-0.14544,-0.14813 -0.14544,-0.36764 -0.14544,-0.36764v-0.77342c0,-0.27614 0.22386,-0.5 0.5,-0.5c0.27614,0 0.5,0.22386 0.5,0.5v0.77342c0,0 0,0.16485 -0.09465,0.30523c0.05734,0.16417 0.10798,0.33692 0.1526,0.51681c0.00708,0.00059 0.01411,0.00133 0.0211,0.00222c0.42369,0.00328 0.89467,0.31968 1.22264,0.59732c0.08166,0.06913 0.15003,0.19871 0.20461,0.35396c0.16356,-0.97026 0.64481,-2.21063 0.73384,-2.8362l0.11535,-0.80743c0.03117,-0.24619 0.24136,-0.43657 0.49601,-0.43657c0.22492,0 0.41515,0.14851 0.47799,0.35282l0.25416,0.76249l-0.1243,0.04143c0.0655,0.14577 0.12568,0.29239 0.1811,0.43986c0.00006,-0.0114 0.0001,-0.02278 0.0001,-0.03414v-0.80466c0,-0.27614 0.22386,-0.5 0.5,-0.5c0.27614,0 0.5,0.22386 0.5,0.5v0.80466c0,0.50238 0.00167,0.96313 -0.0119,1.40667c0.00779,0.03507 0.0119,0.07153 0.0119,0.10895l0,0.13146c0.00475,0.10602 0.00855,0.21216 0.01154,0.31844c0.30988,-0.90904 0.66792,-1.76833 0.82647,-2.31897l0.24091,-0.83671c0.05644,-0.21429 0.25154,-0.37231 0.48355,-0.37231c0.22492,0 0.41515,0.14851 0.47799,0.35282l0.25416,0.76249l-0.16336,0.05445c0.01635,0.04808 0.03178,0.09639 0.04622,0.14489c0.04978,-0.01662 0.10305,-0.02561 0.15841,-0.02561c0.23795,0 0.43708,0.16622 0.48761,0.38888l0.0568,0.22718c0.0867,-0.90443 0.3394,-1.83648 0.50245,-2.72773v-0.73983c0,-0.27614 0.22386,-0.5 0.5,-0.5c0.1996,0 0.37189,0.11696 0.45206,0.28608l0.25296,0.50593l-0.18225,0.09112c0.22785,0.45621 0.29599,0.90701 0.36238,1.44967c0.17444,0.03982 0.31415,0.17087 0.36625,0.34029l0.23218,0.69655c0.10105,-0.5229 0.24086,-1.04307 0.32273,-1.52109l0.03642,-0.04471l-0.01838,-0.00751l0.28646,-0.70124c0.07182,-0.18808 0.25394,-0.32167 0.46726,-0.32167c0.27614,0 0.5,0.22386 0.5,0.5v1l-0.21049,0c0.11508,1.12385 0.22637,2.3262 0.27638,1.62492l-0.01808,-0.00494l0.25606,-0.93668c0.05423,-0.2175 0.25088,-0.37864 0.48517,-0.37864c0.21846,0 0.4042,0.14011 0.47226,0.33537l0.34702,0.9254l-0.19611,0.07354c0.41931,0.93016 0.86102,1.86993 0.96314,1.33338c0.36947,-1.94136 1.14821,-4.50708 2.08645,-6.24822c0.13083,-0.2428 0.92617,-1.99995 1.77523,-1.22382c0.44843,0.40992 0.41676,2.11844 0.3305,3.56978c0.04767,-0.01509 0.09843,-0.02324 0.1511,-0.02324c0.27614,0 0.5,0.22386 0.5,0.5v1l-0.04706,0l0.04463,0.04927c-0.0188,0.09576 -0.03696,0.18955 -0.05472,0.28156c0.25426,1.50423 0.31196,3.13154 0.31496,4.56752v1c0,0.27614 -0.22386,0.5 -0.5,0.5c-0.03811,0 -0.07522,-0.00426 -0.11088,-0.01234c-0.1567,0.57685 -0.43705,1.1673 -0.42035,1.83261v0.54685c0,0.27614 -0.22386,0.5 -0.5,0.5c-0.1996,0 -0.37189,-0.11696 -0.45206,-0.28608l-0.25296,-0.50593l0.13497,-0.06749c-0.1559,-0.26578 -0.25102,-0.52646 -0.32683,-0.82212c-0.26515,1.4867 -0.84576,3.67977 -0.92339,4.298v0.75074c0,0.27614 -0.22386,0.5 -0.5,0.5c-0.25465,0 -0.46484,-0.19037 -0.49601,-0.43657l-0.14038,-0.98267l0.15359,-0.02194c0.00047,-0.004 0.00094,-0.00801 0.00141,-0.01202c-0.15954,-0.61478 -0.26078,-1.22746 -0.37704,-1.84793c-0.03507,0.62907 -0.13788,1.19056 -0.3412,1.35625c-1.73447,1.41345 -1.83017,-2.2265 -2.15187,-2.18005c-0.10843,0.01566 -0.86275,2.29873 -1.20895,2.31382c-0.76268,0.03323 -1.20306,-2.24721 -1.62669,-1.61213c-0.90321,1.35401 -1.88656,-0.36361 -2.35472,0.01895c-0.53138,0.43422 -1.20593,0.80686 -1.89215,0.81118c-1.1257,-0.56672 -3.02613,-0.40207 -4.57046,-0.29834c-0.07396,0.1837 -0.25384,0.31337 -0.46401,0.31337c-0.1907,0 -0.35646,-0.10675 -0.44078,-0.26376c-0.11545,0.0038 -0.22657,0.00595 -0.33264,0.00595h-0.77342c0,0 -0.5,0 -0.5,-0.5z" fill="#bd00f2" stroke="none" stroke-width="0.5" stroke-linecap="butt"></path></g></g></svg>