<svg version="1.1" xmlns="http://www.w3.org/2000/svg" xmlns:xlink="http://www.w3.org/1999/xlink" width="99.33529" height="129.1267" viewBox="0,0,99.33529,129.1267"><g transform="translate(-193.19083,-137.92395)"><g data-paper-data="{&quot;isPaintingLayer&quot;:true}" fill-rule="nonzero" stroke-linejoin="miter" stroke-miterlimit="10" stroke-dasharray="" stroke-dashoffset="0" style="mix-blend-mode: normal"><path d="M199.4885,178.17395c0,-21.81525 17.68475,-39.5 39.5,-39.5c21.81525,0 39.5,17.68475 39.5,39.5c0,21.81525 -17.68475,39.5 -39.5,39.5c-21.81525,0 -39.5,-17.68475 -39.5,-39.5z" fill="#d8d8d8" stroke="#000000" stroke-width="1.5" stroke-linecap="butt"></path><path d="M227.65694,170.33993v8" fill="none" stroke="#000000" stroke-width="1.5" stroke-linecap="round"></path><g stroke="#000000" stroke-width="1"><path d="M283.10179,213.68871l-25.67419,-3.30122l1.60553,-8.14742l25.67419,3.30122z" fill="#af5400" stroke-linecap="butt"></path><path d="M270.97672,203.97197c0,0 -1.61696,3.2419 -3.18981,4.45397c-1.41591,1.09112 -5.82603,2.49381 -5.82603,2.49381" fill="none" stroke-linecap="round"></path><path d="M264.5165,203.04004c0,0 3.65299,2.43945 4.5795,3.83176c1.02922,1.54664 1.32014,5.03387 1.32014,5.03387" data-paper-data="{&quot;index&quot;:null}" fill="none" stroke-linecap="round"></path><path d="M271.56306,203.54106c0,0 3.65299,2.43945 4.5795,3.83176c1.02922,1.54664 1.32014,5.03387 1.32014,5.03387" data-paper-data="{&quot;index&quot;:null}" fill="none" stroke-linecap="round"></path><path d="M278.84015,204.78054c0,0 -1.61697,3.24191 -3.18982,4.45397c-1.41591,1.09112 -5.82603,2.49381 -5.82603,2.49381" data-paper-data="{&quot;index&quot;:null}" fill="none" stroke-linecap="round"></path><path d="M258.21982,197.37459c1.55298,0.19969 2.06261,4.16404 1.13828,8.85463c-0.92433,4.69059 -2.9326,8.3312 -4.48558,8.13151c-1.55298,-0.19969 -2.06261,-4.16404 -1.13828,-8.85463c0.92433,-4.69059 2.9326,-8.3312 4.48558,-8.13151z" fill="#8f8f8f" stroke-linecap="butt"></path><path d="M254.21494,208.99452l-59.6008,-7.66355c0,0 -1.11048,-2.31641 -0.89575,-3.40609c0.22284,-1.13082 2.20936,-3.25998 2.20936,-3.25998l59.6008,7.66355z" fill="#dddddd" stroke-linecap="butt"></path></g><text transform="translate(215.72534,233.62398) scale(0.37642,0.37642)" font-size="40" xml:space="preserve" fill="#000000" fill-rule="nonzero" stroke="none" stroke-width="1" stroke-linecap="butt" stroke-linejoin="miter" stroke-miterlimit="10" stroke-dasharray="" stroke-dashoffset="0" font-family="Sans Serif" font-weight="normal" text-anchor="start" style="mix-blend-mode: normal"><tspan x="0" dy="0">Duelist</tspan></text><text transform="translate(213.82428,245.74329) scale(0.20478,0.20478)" font-size="40" xml:space="preserve" fill="#000000" fill-rule="nonzero" stroke="none" stroke-width="1" stroke-linecap="butt" stroke-linejoin="miter" stroke-miterlimit="10" stroke-dasharray="" stroke-dashoffset="0" font-family="Sans Serif" font-weight="normal" text-anchor="start" style="mix-blend-mode: normal"><tspan x="0" dy="0">-pressure</tspan><tspan x="0" dy="46.150000000000006px">-self-heal</tspan><tspan x="0" dy="46.150000000000006px">-damage</tspan></text><path d="M212.75298,165.30898l18.37069,5.54037" fill="none" stroke="#000000" stroke-width="1.5" stroke-linecap="round"></path><path d="M238.70523,171.72415v7.28996" fill="none" stroke="#000000" stroke-width="1.5" stroke-linecap="round"></path><path d="M236.37244,171.43255l15.16311,-5.54037" fill="none" stroke="#000000" stroke-width="1.5" stroke-linecap="round"></path><path d="M230.54048,192.42762l6.70676,0.5832" fill="none" stroke="#000000" stroke-width="1.5" stroke-linecap="round"></path><path d="M273.40543,209.19452c0,-5.07293 4.11242,-9.18535 9.18535,-9.18535c5.07293,0 9.18535,4.11242 9.18535,9.18535c0,5.07293 -4.11242,9.18535 -9.18535,9.18535c-5.07293,0 -9.18535,-4.11242 -9.18535,-9.18535z" fill="#d8d8d8" stroke="#000000" stroke-width="1.5" stroke-linecap="butt"></path></g></g></svg>