<svg version="1.1" xmlns="http://www.w3.org/2000/svg" xmlns:xlink="http://www.w3.org/1999/xlink" width="82.36408" height="114.99391" viewBox="0,0,82.36408,114.99391"><g transform="translate(-198.73851,-145.97942)"><g data-paper-data="{&quot;isPaintingLayer&quot;:true}" fill-rule="nonzero" stroke="#000000" stroke-linejoin="miter" stroke-miterlimit="10" stroke-dasharray="" stroke-dashoffset="0" style="mix-blend-mode: normal"><path d="M199.48851,186.22942c0,-21.81525 17.68475,-39.5 39.5,-39.5c21.81525,0 39.5,17.68475 39.5,39.5c0,21.81525 -17.68475,39.5 -39.5,39.5c-21.81525,0 -39.5,-17.68475 -39.5,-39.5z" fill="#d8d8d8" stroke-width="1.5" stroke-linecap="butt"></path><path d="M242.02205,183.05545v-8" fill="none" stroke-width="1.5" stroke-linecap="round"></path><path d="" data-paper-data="{&quot;index&quot;:null}" fill="none" stroke-width="1.5" stroke-linecap="round"></path><path d="M249.49371,175.54059v8" fill="none" stroke-width="1.5" stroke-linecap="round"></path><path d="M250.38316,206.08242h-6.33253" fill="none" stroke-width="1.5" stroke-linecap="round"></path><g stroke-linecap="butt"><path d="M219.96355,216.99979l59.4468,-0.83076l0.60396,43.2183l-59.4468,0.83076c0,0 -13.19283,-17.48498 -15.554,-20.6143c-0.69616,-0.92267 -1.35215,-1.79204 -1.35215,-1.79204z" fill="#008c04" stroke-width="1.5"></path><path d="M202.61458,235.77527l78.42058,-1.09591l0.06743,4.82594l-78.42058,1.09591z" fill="#00ff08" stroke-width="0"></path><path d="M251.2295,260.0818l-0.62253,-44.54715l6.29301,-0.08796l0.62253,44.54715z" fill="#00ff08" stroke-width="0"></path></g></g></g></svg>