<svg version="1.1" xmlns="http://www.w3.org/2000/svg" xmlns:xlink="http://www.w3.org/1999/xlink" width="299.60674" height="88.78672" viewBox="0,0,299.60674,88.78672"><defs><linearGradient x1="243.10606" y1="141.41121" x2="237.51304" y2="220.21303" gradientUnits="userSpaceOnUse" id="color-1"><stop offset="0" stop-color="#1fa65f"/><stop offset="1" stop-color="#44923a"/></linearGradient><linearGradient x1="243.82442" y1="158.32528" x2="237.86092" y2="187.5474" gradientUnits="userSpaceOnUse" id="color-2"><stop offset="0" stop-color="#a7a7a7"/><stop offset="1" stop-color="#464646"/></linearGradient><linearGradient x1="236.30433" y1="191.33215" x2="235.00963" y2="207.05836" gradientUnits="userSpaceOnUse" id="color-3"><stop offset="0" stop-color="#00f551"/><stop offset="1" stop-color="#5e6500"/></linearGradient><linearGradient x1="240.71944" y1="150.01193" x2="238.63084" y2="159.94975" gradientUnits="userSpaceOnUse" id="color-4"><stop offset="0" stop-color="#1cff00"/><stop offset="1" stop-color="#57d000"/></linearGradient><linearGradient x1="212.02429" y1="166.91808" x2="273.6142" y2="179.48704" gradientUnits="userSpaceOnUse" id="color-5"><stop offset="0" stop-color="#bababa" stop-opacity="0"/><stop offset="1" stop-color="#bababa"/></linearGradient><linearGradient x1="212.23333" y1="166.81323" x2="273.82324" y2="179.38219" gradientUnits="userSpaceOnUse" id="color-6"><stop offset="0" stop-color="#cfcfcf" stop-opacity="0"/><stop offset="1" stop-color="#cfcfcf"/></linearGradient><linearGradient x1="212.07684" y1="166.85721" x2="273.66675" y2="179.42618" gradientUnits="userSpaceOnUse" id="color-7"><stop offset="0" stop-color="#f5f5f5" stop-opacity="0"/><stop offset="1" stop-color="#f5f5f5"/></linearGradient><linearGradient x1="212.07684" y1="166.85721" x2="273.66675" y2="179.42618" gradientUnits="userSpaceOnUse" id="color-8"><stop offset="0" stop-color="#f5f5f5" stop-opacity="0"/><stop offset="1" stop-color="#f5f5f5"/></linearGradient><linearGradient x1="107.39552" y1="177.64543" x2="136.41229" y2="180.41251" gradientUnits="userSpaceOnUse" id="color-9"><stop offset="0" stop-color="#1fa65f"/><stop offset="1" stop-color="#44923a"/></linearGradient></defs><g transform="translate(19.04551,-133.40459)"><g stroke-miterlimit="10"><path d="" fill="none" stroke="#000000" stroke-width="1.5" stroke-linecap="round"/><path d="" fill="none" stroke="#000000" stroke-width="1.5" stroke-linecap="round"/><path d="" fill="none" stroke="#000000" stroke-width="1.5" stroke-linecap="round"/><path d="M200.90867,178.01562c1.54448,-21.76052 20.43687,-38.14886 42.1974,-36.60438c21.76052,1.54448 38.14886,20.43687 36.60438,42.1974c-1.54448,21.76052 -20.43687,38.14886 -42.1974,36.60438c-21.76052,-1.54448 -38.14886,-20.43687 -36.60438,-42.1974z" fill="url(#color-1)" stroke="#000000" stroke-width="1.5" stroke-linecap="butt"/><path d="" fill="none" stroke="#000000" stroke-width="1.5" stroke-linecap="round"/><path d="" fill="none" stroke="#000000" stroke-width="1.5" stroke-linecap="round"/><path d="M206.78882,167.56698c0,0 2.59299,-5.58876 4.03315,-7.9643c1.40039,-2.30994 5.89647,-5.6447 5.89647,-5.6447l22.26451,11.52966l29.86078,-2.05652c0,0 4.62432,2.60706 5.22071,5.39011c0.31984,1.49247 1.6798,5.32474 1.12538,8.04732c-0.47944,2.35433 -3.09689,5.68875 -3.09689,5.68875l-33.6443,5.11008l-2.10202,-10.07634l-5.30535,8.06568z" fill="url(#color-2)" stroke="#000000" stroke-width="1.5" stroke-linecap="round"/><g stroke="#000000" stroke-linecap="butt"><path d="M257.67977,212.96489l-18.27692,-2.53803l-9.22951,-1.28166l-12.40432,-1.72252l-9.22373,-1.28085l-9.86753,-1.37025l-2.70161,-0.37514l-1.91597,-21.67014l5.38318,1.11437l14.53529,3.00888l7.63975,1.58145l13.30165,2.7535l11.49711,2.37995l14.34505,2.96949l17.76382,3.67719l-3.50054,15.16251z" fill="#727272" stroke-width="0.8"/><path d="M255.93593,209.68136l-16.68964,-2.28764l-8.42796,-1.15523l-11.32704,-1.55259l-8.42266,-1.15451l-9.01059,-1.23506l-2.46695,-0.33814l-2.08688,-15.68554l4.92143,0.93849l13.2886,2.53406l6.98447,1.33188l12.16075,2.31896l10.51096,2.00438l13.11462,2.50088l16.2402,3.0969l-2.94994,10.85427z" fill="url(#color-3)" stroke-width="0.8"/><path d="M257.67974,212.96491l-18.27692,-2.53803l7.01435,-16.86244l14.34504,2.9695z" fill="#727272" stroke-width="0.8"/><path d="M230.17334,209.14525l-12.40432,-1.72252l3.84941,-18.99172l13.30165,2.7535z" fill="#727272" stroke-width="0.8"/><path d="M211.09817,206.55002l-9.86753,-1.37025l0.76561,-20.93095l14.5353,3.00888z" fill="#727272" stroke-width="0.5"/></g><path d="M253.79181,141.88838c0,0 -4.73388,2.35814 -3.30406,3.62921c4.13768,3.67822 14.42086,10.96115 10.72444,11.3354c-5.95565,0.60299 -23.2912,2.9476 -23.2912,2.9476c0,0 -17.72242,-8.83195 -19.3418,-13.61836c-1.03589,-3.06187 9.1244,-2.92978 13.21214,-4.80448c1.92782,-0.88413 -0.56545,-4.97316 -0.56545,-4.97316" fill="none" stroke="url(#color-4)" stroke-width="6" stroke-linecap="round"/><path d="M218.63261,169.80924l0.17612,-5.93476l1.89503,1.35098l-0.13773,4.64119z" fill="#1cff00" stroke="#1cff00" stroke-width="1" stroke-linecap="butt"/><path d="M222.02414,170.19013l0.12194,-4.10852l1.89052,1.50316l-0.07901,2.66275z" fill="#1cff00" stroke="#1cff00" stroke-width="1" stroke-linecap="butt"/><path d="M218.48751,175.62051l0.12194,-4.10851l1.93342,0.05738l-0.12194,4.10851z" fill="#1cff00" stroke="#1cff00" stroke-width="1" stroke-linecap="butt"/><path d="M221.8858,175.7731l0.12194,-4.10851l1.93342,0.05738l-0.12194,4.10851z" fill="#1cff00" stroke="#1cff00" stroke-width="1" stroke-linecap="butt"/><path d="M238.78233,166.37425l29.59065,-1.84614c0,0 4.22014,2.37919 4.76441,4.919c0.29187,1.362 1.53299,4.85933 1.02702,7.34396c-0.43755,2.14857 -2.82622,5.19153 -2.82622,5.19153l-32.20737,4.91516l-2.23348,-10.93569z" fill="url(#color-5)" stroke="none" stroke-width="0" stroke-linecap="round"/><path d="M238.99136,166.2694l29.59065,-1.84616c0,0 4.22015,2.37919 4.76442,4.91901c0.29187,1.362 1.53299,4.85933 1.02702,7.34396c-0.43755,2.14857 -2.82622,5.19153 -2.82622,5.19153l-32.20737,4.91516l-2.71013,-10.46723l-5.481,7.92317l-14.35841,-29.12366z" fill="url(#color-6)" stroke="none" stroke-width="0" stroke-linecap="round"/><path d="M238.83489,166.31333l29.59065,-1.84614c0,0 4.22015,2.37919 4.76442,4.91901c0.29187,1.362 1.53299,4.85933 1.02702,7.34396c-0.43755,2.14857 -2.82623,5.19154 -2.82623,5.19154l-32.20739,4.91516l-2.71013,-10.46723l-5.481,7.92317l-22.65997,-16.64403c0,0 1.88232,-5.76495 3.34982,-7.97102c1.27148,-1.91141 4.95174,-4.5086 4.95174,-4.5086z" fill="url(#color-7)" stroke="none" stroke-width="0" stroke-linecap="round"/><path d="M238.83489,166.31333l29.59065,-1.84614c0,0 4.22015,2.37919 4.76442,4.91901c0.29187,1.362 1.53299,4.85933 1.02702,7.34396c-0.43755,2.14857 -2.82623,5.19154 -2.82623,5.19154l-32.20739,4.91516l-2.71013,-10.46723l-5.481,7.92317l-22.65997,-16.64403c0,0 1.88232,-5.76495 3.34982,-7.97102c1.27148,-1.91141 4.95174,-4.5086 4.95174,-4.5086z" fill="url(#color-8)" stroke="none" stroke-width="0" stroke-linecap="round"/><path d="" fill="none" stroke="#000000" stroke-width="1.5" stroke-linecap="round"/><path d="" fill="none" stroke="#000000" stroke-width="1.5" stroke-linecap="round"/><path d="" fill="none" stroke="#000000" stroke-width="1.5" stroke-linecap="round"/><g stroke-linecap="round"><path d="M95.67731,175.79143l-1.99995,-10.96773l7.29028,7.18436l9.1367,-20.5931l2.72192,17.48088l9.97801,-7.90835l-7.48164,13.7318l50.14299,4.34636l-49.94406,5.93964l6.807,13.01439l-10.2698,-7.17776l-3.25047,16.80838l-8.08511,-17.46899l-6.42905,6.52898l1.55566,-12.00429l-92.59688,-1.60677l17.85089,-1.41107l-39.94617,-0.94013l39.89307,-1.8028l-17.8973,-0.98897z" fill="#ffeaea" stroke="#ff1f1f" stroke-width="9"/><path d="M96.74818,176.29078l-1.99995,-10.96773l7.29023,7.18436l9.13673,-20.5931l2.72192,17.48088l9.97803,-7.90834l-7.48164,13.7318l50.14299,4.34636l-49.94408,5.93963l6.807,13.01439l-10.2698,-7.17776l-3.25047,16.80838l-8.08511,-17.469l-6.42905,6.52898l1.55566,-12.00428l-92.59688,-1.60677l17.85087,-1.41106l-39.94617,-0.94013l39.89307,-1.8028l-17.8973,-0.98897z" fill="#ffeaea" stroke="#ff6c6c" stroke-width="6.5"/><path d="M97.81907,176.79011l-1.99992,-10.96772l7.29026,7.18436l9.13673,-20.5931l2.72192,17.48088l9.97798,-7.90835l-7.48164,13.7318l50.14304,4.34633l-49.94408,5.93963l6.80708,13.01439l-10.26988,-7.17775l-3.25047,16.80838l-8.08511,-17.46899l-6.42902,6.52898l1.5556,-12.0043l-92.59688,-1.60677l17.85089,-1.41107l-39.94617,-0.94013l39.89307,-1.80279l-17.8973,-0.98897z" fill="#ffeaea" stroke="#ff8484" stroke-width="5"/><path d="M102.56579,176.28688l-1.99995,-10.96773l7.29026,7.18436l9.13681,-20.5931l2.72184,17.48088l9.97801,-7.90835l-7.48157,13.73184l50.14304,4.34633l-49.94408,5.93963l6.807,13.01439l-10.26985,-7.17774l-3.25047,16.80838l-8.08511,-17.469l-6.42902,6.52898l1.55566,-12.00428l-92.59688,-1.60678l17.85089,-1.41107l-39.94617,-0.94013l39.89307,-1.8028l-17.8973,-0.98897z" fill="#ffeaea" stroke="#ffa4a4" stroke-width="3.5"/><path d="M104.19258,175.79057l-1.99995,-10.96773l7.29028,7.18436l9.13681,-20.5931l2.72184,17.48091l9.97801,-7.90835l-7.48159,13.73183l50.14304,4.34633l-49.94408,5.93963l6.80705,13.01439l-10.26977,-7.17776l-3.25047,16.80838l-8.08511,-17.46899l-6.42905,6.52898l1.55566,-12.00429l-92.5969,-1.60678l17.85089,-1.41107l-39.94617,-0.94013l39.89307,-1.80279l-17.8973,-0.98897z" fill="#ffeaea" stroke="#ffcdcd" stroke-width="2"/><path d="M105.82802,175.74299l-1.99995,-10.96773l7.29028,7.18436l9.13673,-20.5931l2.72184,17.48091l9.97806,-7.90835l-7.48162,13.73183l50.14307,4.34633l-49.94408,5.93966l6.807,13.01439l-10.2698,-7.17776l-3.25047,16.80838l-8.08511,-17.46899l-6.42907,6.52898l1.55563,-12.00427l-92.5969,-1.60678l17.85092,-1.41108l-39.94614,-0.94014l39.89307,-1.80279l-17.8973,-0.989z" fill="#ffffff" stroke="#ffffff" stroke-width="0.5"/></g><path d="M120.23448,191.0526c-8.01276,-0.76411 -13.76094,-6.76669 -12.83894,-13.40714c0.92202,-6.64047 8.16506,-11.40419 16.17781,-10.6401c8.01276,0.76411 13.76094,6.76669 12.83894,13.40714c-0.92202,6.64047 -8.16506,11.40419 -16.17781,10.6401z" fill="url(#color-9)" stroke="#000000" stroke-width="1.5" stroke-linecap="butt"/></g></g></svg>