<svg version="1.1" xmlns="http://www.w3.org/2000/svg" xmlns:xlink="http://www.w3.org/1999/xlink" width="156.71289" height="80.5" viewBox="0,0,156.71289,80.5"><defs><radialGradient cx="418.1444" cy="176.51524" r="10.40477" gradientUnits="userSpaceOnUse" id="color-1"><stop offset="0" stop-color="#ffffff"/><stop offset="1" stop-color="#f3fffe"/></radialGradient><radialGradient cx="535.31891" cy="179.02545" r="10.40477" gradientUnits="userSpaceOnUse" id="color-2"><stop offset="0" stop-color="#ffffff"/><stop offset="1" stop-color="#f3fffe"/></radialGradient></defs><g transform="translate(-398.17936,-137.92397)"><g stroke-miterlimit="10"><path d="M407.73964,176.51524c0,-5.74639 4.65837,-10.40477 10.40477,-10.40477c5.74639,0 10.40477,4.65837 10.40477,10.40477c0,5.74639 -4.65837,10.40477 -10.40477,10.40477c-5.74639,0 -10.40477,-4.65837 -10.40477,-10.40477z" fill="url(#color-1)" stroke="#000000" stroke-width="1" stroke-linecap="butt"/><path d="" fill="none" stroke="#000000" stroke-width="1.5" stroke-linecap="round"/><path d="" fill="none" stroke="#000000" stroke-width="1.5" stroke-linecap="round"/><path d="M439.48854,178.17397c0,-21.81525 17.68475,-39.5 39.5,-39.5c21.81525,0 39.5,17.68475 39.5,39.5c0,21.81525 -17.68475,39.5 -39.5,39.5c-21.81525,0 -39.5,-17.68475 -39.5,-39.5z" fill="#ffffff" stroke="#000000" stroke-width="1.5" stroke-linecap="butt"/><path d="M472.79024,167.28627c0,1.80048 -0.36489,3.26006 -0.81501,3.26006c-0.45012,0 -0.81502,-1.45958 -0.81502,-3.26006c0,-1.80048 0.3649,-3.26006 0.81502,-3.26006c0.45012,0 0.81501,1.45958 0.81501,3.26006z" fill="none" stroke="#000000" stroke-width="1.5" stroke-linecap="butt"/><path d="M479.10661,167.38815c0,1.85674 -0.3649,3.36194 -0.81502,3.36194c-0.45012,0 -0.81501,-1.5052 -0.81501,-3.36194c0,-1.85674 0.36489,-3.36193 0.81501,-3.36193c0.45012,0 0.81502,1.50519 0.81502,3.36193z" fill="none" stroke="#000000" stroke-width="1.5" stroke-linecap="butt"/><path d="M483.51684,192.16256c0,0 -5.0993,0.9633 -8.57383,1.0335c-3.23174,0.06529 -8.54149,-1.84852 -8.54149,-1.84852" fill="none" stroke="#000000" stroke-width="1.5" stroke-linecap="round"/><path d="M478.01549,180.95609c0,1.91302 -1.7369,3.46381 -3.87947,3.46381c-2.14257,0 -3.87948,-1.5508 -3.87948,-3.46381c0,-1.91302 1.7369,-3.46382 3.87948,-3.46382c2.14257,0 3.87947,1.5508 3.87947,3.46382z" fill="#ff6900" stroke="#000000" stroke-width="0" stroke-linecap="butt"/><path d="M524.91415,179.02545c0,-5.74639 4.65837,-10.40477 10.40477,-10.40477c5.74639,0 10.40477,4.65837 10.40477,10.40477c0,5.74639 -4.65837,10.40477 -10.40477,10.40477c-5.74639,0 -10.40477,-4.65837 -10.40477,-10.40477z" fill="url(#color-2)" stroke="#000000" stroke-width="1" stroke-linecap="butt"/><path d="M427.53037,157.40731c-1.84898,2.74901 -3.47396,5.70976 -7.17021,6.25147c-1.18769,0.17406 -2.37338,-0.36167 -3.56124,-0.53456c-1.31398,-0.19124 -2.68186,-0.14604 -3.94421,-0.55784c-0.60028,-0.19582 -1.2038,-0.43956 -1.76178,-0.75298c-0.04314,0.8729 -0.21889,1.75067 -0.38412,2.60593c-0.66344,3.43414 -2.81924,7.57876 -5.73178,9.62619c-0.50755,0.35678 -1.24804,0.17768 -1.80651,0.44787c-0.1243,0.06013 0.20224,0.18823 0.30788,0.27714c1.12014,0.94271 2.42479,1.69894 3.36931,2.81756c2.88947,3.42207 2.59633,7.25594 2.38953,11.40247c-2.89123,2.82444 -0.19457,0.10884 0.39494,-0.09053c1.21095,-0.40953 2.51614,-0.55838 3.79447,-0.55604c4.39739,0.00805 8.35382,2.13952 11.97625,4.47834c0.08989,-0.70804 0.21872,-1.41625 0.31356,-2.1079c0.52953,-3.86185 2.71849,-8.84851 4.7161,-12.23687c0.68798,-1.16696 1.41507,-2.33374 2.34345,-3.32026c0.30844,-0.32779 1.20919,-0.05414 1.25346,-0.50203c0.03943,-0.39885 -0.84261,-0.00679 -1.18211,-0.21981c-0.91237,-0.57248 -1.83701,-1.20897 -2.47641,-2.07577c-0.65714,-0.89086 -2.92643,-5.68009 -3.13913,-7.19656c-0.20001,-1.42601 -0.14132,-5.40151 0.29857,-7.75581zM424.92028,153.34006c0.2917,-1.42155 1.86461,-1.81878 1.86461,-1.81878l1.78776,-0.36064c1.54046,0.35664 3.70509,-0.21871 4.62139,1.06992c0.9406,1.32282 -0.27244,3.23483 -0.4105,4.85208c-0.1931,2.26181 -0.89221,5.0888 -0.60764,7.33493c0.0811,0.64007 2.09128,4.80713 2.10617,4.82714c1.54611,2.07857 4.43782,1.41498 4.73717,5.09123c0.12058,1.48077 -1.45696,2.59153 -2.25893,3.84215c-1.03771,1.61824 -2.16222,3.20492 -2.93044,4.96714c-1.15954,2.65985 -2.75263,5.43435 -3.17392,8.34466c-0.17466,1.20656 -0.26055,2.42175 -0.31224,3.64036l0.08762,-0.02351l0.81204,3.02721c0.21179,0.75369 0.06735,1.59514 -0.46234,2.25026c-0.86809,1.07368 -2.44221,1.24033 -3.51588,0.37224c-0.04408,-0.03564 -0.08664,-0.07248 -0.12766,-0.11042l-2.81039,-2.55932c-3.1501,-2.09712 -6.91065,-4.80731 -10.89745,-4.74274c-2.35214,0.03809 -7.04612,2.01228 -8.93907,0.35503c-1.30917,-1.14615 -0.15177,-3.47667 -0.22765,-5.21501c0.13994,-2.65297 0.66628,-5.5618 -1.29209,-7.73836c-2.52637,-2.80783 -6.26313,-3.7474 -4.18698,-8.65173c0.49784,-1.17601 2.21146,-1.29164 3.22326,-2.0708c1.89559,-1.45974 3.39348,-4.27261 3.8041,-6.61065c0.31593,-1.79886 -0.05725,-7.16806 1.71846,-8.19438c2.49516,-1.44215 4.95105,1.98051 6.93466,2.61449c0.99172,0.31696 2.07613,0.18299 3.1036,0.35114c3.71317,0.60766 3.87213,-0.70515 5.97037,-3.79876c0,0 0.51566,-0.75897 1.38198,-1.0449z" fill="#ffffff" stroke="none" stroke-width="0.5" stroke-linecap="butt"/><path d="M425.05704,161.79541c-1.44729,2.15181 -2.71926,4.46935 -5.61253,4.89339c-0.92968,0.13625 -1.85779,-0.2831 -2.78759,-0.41843c-1.02852,-0.14969 -2.09923,-0.11432 -3.08736,-0.43664c-0.46988,-0.15328 -0.94229,-0.34407 -1.37904,-0.5894c-0.03377,0.68327 -0.17134,1.37035 -0.30066,2.03981c-0.51931,2.6881 -2.20679,5.93233 -4.4866,7.53497c-0.39728,0.27928 -0.97691,0.13909 -1.41406,0.35058c-0.0973,0.04708 0.1583,0.14735 0.241,0.21693c0.87681,0.73791 1.89802,1.32986 2.63736,2.20547c2.26175,2.67865 2.0323,5.67965 1.87043,8.92536c-2.26312,2.21084 -0.15231,0.08519 0.30915,-0.07087c0.94788,-0.32057 1.96952,-0.43706 2.97014,-0.43523c3.44209,0.0063 6.53901,1.67472 9.3745,3.50546c0.07036,-0.55422 0.17121,-1.10858 0.24544,-1.64998c0.41449,-3.02289 2.12791,-6.92624 3.69156,-9.5785c0.53853,-0.91345 1.10767,-1.82674 1.83435,-2.59896c0.24145,-0.25657 0.9465,-0.04237 0.98116,-0.39297c0.03087,-0.3122 -0.65956,-0.00531 -0.9253,-0.17205c-0.71416,-0.44811 -1.43793,-0.94634 -1.93842,-1.62482c-0.51438,-0.69732 -2.29069,-4.44614 -2.45719,-5.63316c-0.15656,-1.11623 -0.11062,-4.22807 0.23371,-6.07092zM423.01398,158.61174c0.22833,-1.11273 1.45953,-1.42367 1.45953,-1.42367l1.39938,-0.28229c1.20581,0.27918 2.90018,-0.1712 3.61742,0.8375c0.73626,1.03544 -0.21325,2.53208 -0.32133,3.79799c-0.15114,1.77045 -0.69837,3.98329 -0.47563,5.74147c0.06348,0.50101 1.63697,3.76281 1.64861,3.77847c1.21023,1.62702 3.47373,1.10759 3.70805,3.98519c0.09438,1.15909 -1.14045,2.02855 -1.76819,3.00748c-0.81226,1.26669 -1.69249,2.50868 -2.29383,3.88806c-0.90764,2.08203 -2.15464,4.25377 -2.48441,6.53185c-0.13671,0.94445 -0.20396,1.89563 -0.24441,2.84952l0.06859,-0.0184l0.63564,2.36956c0.16579,0.58995 0.05272,1.2486 -0.3619,1.76141c-0.6795,0.84042 -1.91166,0.97088 -2.75208,0.29137c-0.0345,-0.02789 -0.06781,-0.05673 -0.09992,-0.08642l-2.19985,-2.00332c-2.46577,-1.64154 -5.40936,-3.76295 -8.53005,-3.71242c-1.84115,0.02981 -5.5154,1.57513 -6.99713,0.27791c-1.02475,-0.89715 -0.1188,-2.72139 -0.17819,-4.08209c0.10954,-2.07663 0.52152,-4.35354 -1.01139,-6.05726c-1.97753,-2.19785 -4.90251,-2.93331 -3.27739,-6.77219c0.38969,-0.92053 1.73103,-1.01104 2.52303,-1.62095c1.48377,-1.14262 2.65626,-3.3444 2.97769,-5.17453c0.2473,-1.40807 -0.04481,-5.61084 1.34513,-6.41421c1.9531,-1.12885 3.87548,1.55027 5.42815,2.0465c0.77627,0.24809 1.6251,0.14324 2.42935,0.27486c2.9065,0.47565 3.03094,-0.55196 4.67336,-2.97351c0,0 0.40363,-0.59409 1.08176,-0.8179z" fill="#bfecff" stroke="none" stroke-width="0.5" stroke-linecap="butt"/><path d="M539.08899,158.4079c-1.02782,3.14949 -1.78233,6.4415 -5.19007,7.97221c-1.09499,0.49184 -2.38192,0.30033 -3.57184,0.45847c-1.31624,0.17492 -2.61977,0.59203 -3.9466,0.54069c-0.63096,-0.02441 -1.27809,-0.09406 -1.90045,-0.24314c0.19692,0.85148 0.2676,1.74389 0.34225,2.61175c0.29977,3.48476 -0.64202,8.06062 -2.88458,10.82571c-0.39079,0.48185 -1.15205,0.5118 -1.61549,0.92426c-0.10314,0.0918 0.24596,0.12584 0.37187,0.18251c1.33504,0.60091 2.79663,0.97205 4.01076,1.79014c3.71429,2.50273 4.47947,6.27089 5.41307,10.31622c-2.00983,3.50674 -0.15745,0.15784 0.3552,-0.19496c1.05305,-0.72472 2.26794,-1.22437 3.4983,-1.57129c4.23238,-1.19334 8.62055,-0.22356 12.74405,1.03693c-0.10692,-0.70567 -0.17642,-1.42214 -0.27411,-2.1134c-0.54541,-3.85963 0.19829,-9.25457 1.19446,-13.0597c0.34308,-1.31049 0.72385,-2.6315 1.34745,-3.83409c0.2072,-0.39956 1.14842,-0.38234 1.06867,-0.82531c-0.07101,-0.39445 -0.81243,0.22361 -1.1972,0.11142c-1.03404,-0.30151 -2.09738,-0.66124 -2.9492,-1.32045c-0.87548,-0.6775 -4.36659,-4.6648 -4.98541,-6.06551c-0.5819,-1.31716 -1.61129,-5.15753 -1.83117,-7.54245zM535.46725,155.20821c-0.10767,-1.44717 1.29692,-2.25892 1.29692,-2.25892l1.62129,-0.83522c1.5793,-0.07767 3.50445,-1.22238 4.73789,-0.23301c1.26613,1.01561 0.62146,3.18623 0.93039,4.77969c0.43202,2.22854 0.53165,5.139 1.4189,7.22201c0.25282,0.59357 3.32475,4.05313 3.34455,4.06832c2.05505,1.57724 4.65555,0.14905 5.94763,3.60375c0.52044,1.39153 -0.69373,2.89094 -1.12361,4.31305c-0.55625,1.84015 -1.20463,3.67364 -1.46231,5.57869c-0.38896,2.87543 -1.16366,5.97954 -0.77402,8.89428c0.16154,1.20839 0.41082,2.40083 0.69394,3.58724l0.07788,-0.04654l1.60801,2.6903c0.40961,0.66719 0.50048,1.51609 0.16988,2.29098c-0.54182,1.26996 -2.01057,1.86022 -3.28053,1.3184c-0.05214,-0.02225 -0.10314,-0.04605 -0.15296,-0.07135l-3.40256,-1.69438c-3.60312,-1.15697 -7.96093,-2.73698 -11.77849,-1.58593c-2.25229,0.67911 -6.22857,3.86031 -8.5022,2.78311c-1.57244,-0.74498 -1.0956,-3.30302 -1.64339,-4.95452c-0.59,-2.59031 -0.87818,-5.53231 -3.35658,-7.0912c-3.19722,-2.01103 -7.04853,-1.89421 -6.39086,-7.17914c0.15771,-1.26728 1.77457,-1.84656 2.53508,-2.87245c1.4248,-1.92199 2.09744,-5.03702 1.85386,-7.39831c-0.18741,-1.81676 -2.01292,-6.87986 -0.58506,-8.35216c2.00637,-2.06882 5.30375,0.55291 7.38508,0.62098c1.04058,0.03403 2.04717,-0.39102 3.08148,-0.50992c3.73795,-0.42964 3.5323,-1.73595 4.70577,-5.28504c0,0 0.28874,-0.87096 1.04403,-1.38263z" fill="#ffffff" stroke="none" stroke-width="0.5" stroke-linecap="butt"/><path d="M537.90825,163.3047c-0.80453,2.46528 -1.39514,5.04213 -4.06255,6.2403c-0.8571,0.385 -1.86446,0.23509 -2.79588,0.35887c-1.0303,0.13692 -2.05065,0.4634 -3.08923,0.42323c-0.49388,-0.0191 -1.00043,-0.07362 -1.48759,-0.19032c0.15413,0.66651 0.20946,1.36504 0.2679,2.04436c0.23465,2.72772 -0.50254,6.30952 -2.25793,8.47391c-0.30589,0.37718 -0.90177,0.40063 -1.26453,0.72347c-0.08074,0.07187 0.19253,0.09851 0.29109,0.14287c1.04502,0.47037 2.18908,0.76088 3.13945,1.40126c2.90738,1.95903 3.50634,4.90858 4.23713,8.07509c-1.57321,2.74492 -0.12325,0.12356 0.27804,-0.15261c0.82428,-0.56728 1.77525,-0.9584 2.73833,-1.22994c3.31292,-0.9341 6.74779,-0.17499 9.9755,0.81165c-0.08369,-0.55237 -0.13809,-1.1132 -0.21455,-1.65428c-0.42693,-3.02116 0.15521,-7.24408 0.93496,-10.22256c0.26855,-1.0258 0.5666,-2.05983 1.05473,-3.00116c0.16218,-0.31276 0.89893,-0.29929 0.83651,-0.64603c-0.0556,-0.30875 -0.63594,0.17503 -0.93711,0.08723c-0.8094,-0.23601 -1.64174,-0.51759 -2.30851,-1.03359c-0.68529,-0.53032 -3.41798,-3.65141 -3.90236,-4.74781c-0.4555,-1.03102 -1.26125,-4.0371 -1.43336,-5.90391zM535.07331,160.80012c-0.08429,-1.13278 1.01519,-1.76819 1.01519,-1.76819l1.26907,-0.6538c1.23621,-0.0608 2.74314,-0.95683 3.70863,-0.18239c0.99108,0.79497 0.48645,2.49405 0.72825,3.74134c0.33816,1.74441 0.41615,4.0226 1.11065,5.65307c0.1979,0.46463 2.60247,3.17261 2.61797,3.18451c1.60861,1.23459 3.64416,0.11668 4.65556,2.82086c0.40738,1.08922 -0.54302,2.2629 -0.87952,3.37607c-0.43541,1.44038 -0.94292,2.87558 -1.14463,4.36676c-0.30445,2.25076 -0.91085,4.68053 -0.60587,6.96206c0.12645,0.94587 0.32156,1.87927 0.54319,2.80794l0.06095,-0.03643l1.25868,2.10586c0.32062,0.52225 0.39176,1.18673 0.13296,1.79326c-0.42412,0.99406 -1.57379,1.4561 -2.56785,1.03198c-0.04082,-0.01741 -0.08073,-0.03606 -0.11974,-0.05585l-2.66338,-1.32627c-2.82037,-0.90564 -6.23148,-2.14239 -9.21969,-1.2414c-1.76299,0.53157 -4.87547,3.02168 -6.65517,2.17849c-1.23084,-0.58314 -0.85759,-2.58547 -1.28639,-3.8782c-0.46183,-2.02758 -0.6874,-4.33046 -2.62738,-5.55069c-2.50266,-1.57415 -5.51729,-1.48271 -5.0025,-5.61952c0.12344,-0.99198 1.38906,-1.4454 1.98435,-2.24843c1.11527,-1.50444 1.64178,-3.94277 1.45111,-5.79108c-0.1467,-1.42207 -1.57562,-5.38526 -0.45798,-6.53771c1.57051,-1.61938 4.15154,0.43279 5.78073,0.48607c0.81451,0.02663 1.60245,-0.30606 2.41205,-0.39914c2.92591,-0.33631 2.76493,-1.35883 3.68348,-4.1369c0,0 0.22602,-0.68175 0.81721,-1.08225z" fill="#bfecff" stroke="none" stroke-width="0.5" stroke-linecap="butt"/></g></g></svg>