<svg version="1.1" xmlns="http://www.w3.org/2000/svg" xmlns:xlink="http://www.w3.org/1999/xlink" width="197.69945" height="80.5" viewBox="0,0,197.69945,80.5"><g transform="translate(-200.95088,-140.3707)"><g data-paper-data="{&quot;isPaintingLayer&quot;:true}" fill-rule="nonzero" stroke-linejoin="miter" stroke-miterlimit="10" stroke-dasharray="" stroke-dashoffset="0" style="mix-blend-mode: normal"><path d="" data-paper-data="{&quot;index&quot;:null}" fill="none" stroke="#000000" stroke-width="1.5" stroke-linecap="round"></path><path d="M289.92393,195.47554" data-paper-data="{&quot;index&quot;:null}" fill="none" stroke="#d8d8d8" stroke-width="4" stroke-linecap="round"></path><path d="M241.20088,220.1207c-21.81525,0 -39.5,-17.68475 -39.5,-39.5c0,-21.81525 17.68475,-39.5 39.5,-39.5c21.81525,0 39.5,17.68475 39.5,39.5c0,21.81525 -17.68475,39.5 -39.5,39.5z" fill="#d8d8d8" stroke="#000000" stroke-width="1.5" stroke-linecap="butt"></path><path d="M226.36716,169.6083l14.03116,4.59202" fill="none" stroke="#000000" stroke-width="1.5" stroke-linecap="round"></path><path d="M228.19225,178.95914l-0.25511,-5.86758" fill="none" stroke="#000000" stroke-width="1.5" stroke-linecap="round"></path><path d="M251.36815,169.86341l-7.65337,3.82668" fill="none" stroke="#000000" stroke-width="1.5" stroke-linecap="round"></path><path d="M246.28352,178.41109l0.21988,-5.35892" fill="none" stroke="#000000" stroke-width="1.5" stroke-linecap="round"></path><path d="M229.62579,192.95291l25.16666,2.30233l-24.96157,-0.52657" fill="none" stroke="#000000" stroke-width="3" stroke-linecap="round"></path><g stroke="#000000" stroke-linecap="butt"><path d="M320.22113,184.15712l-16.73002,8.12471c0,0 -3.68368,-0.66749 -4.15807,-1.64435c-0.47525,-0.97861 1.30916,-4.22201 1.30916,-4.22201l16.73002,-8.12471z" fill="#af5400" stroke-width="1.5"></path><path d="M327.18408,189.91082c0,0 -3.48642,3.57806 -6.27625,2.65515c-3.26821,-1.08116 -5.63437,-6.06945 -7.29242,-9.29999c-3.07344,-5.9882 -3.6966,-11.91745 -1.39188,-13.24335c1.07087,-0.61607 5.08003,-1.24395 5.08003,-1.24395c0,0 3.01261,6.47998 4.65798,9.68583c3.07344,5.9882 5.2225,11.44632 5.2225,11.44632z" fill="#989898" stroke-width="1"></path><path d="M327.5372,190.19132c-2.30472,1.32589 -6.66461,-2.45366 -9.73804,-8.44187c-3.07343,-5.9882 -3.6966,-11.91745 -1.39189,-13.24333c2.30472,-1.32589 6.66461,2.45366 9.73803,8.44186c3.07343,5.9882 3.69659,11.91745 1.39189,13.24333z" fill="#989898" stroke-width="1"></path><path d="M319.82075,176.8458l77.96656,-35.10387l-8.19181,10.04571l-67.39482,30.34403c0,0 -2.0793,-0.88708 -2.4712,-1.75752c-0.40117,-0.89103 0.09127,-3.52836 0.09127,-3.52836z" fill="#e6e6e6" stroke-width="0.5"></path></g></g></g></svg>