<svg version="1.1" xmlns="http://www.w3.org/2000/svg" xmlns:xlink="http://www.w3.org/1999/xlink" width="133.49409" height="80.5" viewBox="0,0,133.49409,80.5"><g transform="translate(-187.26669,-140.3707)"><g data-paper-data="{&quot;isPaintingLayer&quot;:true}" fill-rule="nonzero" stroke-linejoin="miter" stroke-miterlimit="10" stroke-dasharray="" stroke-dashoffset="0" style="mix-blend-mode: normal"><path d="M274.9772,186.84505c0,-5.6369 4.56962,-10.20651 10.20652,-10.20651c5.6369,0 10.20651,4.56961 10.20651,10.20651c0,5.6369 -4.56961,10.20651 -10.20651,10.20651c-5.6369,0 -10.20652,-4.56961 -10.20652,-10.20651z" fill="#d8d8d8" stroke="#000000" stroke-width="1" stroke-linecap="butt"></path><path d="" data-paper-data="{&quot;index&quot;:null}" fill="none" stroke="#000000" stroke-width="1.5" stroke-linecap="round"></path><path d="" data-paper-data="{&quot;index&quot;:null}" fill="none" stroke="#000000" stroke-width="1.5" stroke-linecap="round"></path><path d="M301.68768,195.47554" data-paper-data="{&quot;index&quot;:null}" fill="none" stroke="#d8d8d8" stroke-width="4" stroke-linecap="round"></path><path d="M199.18372,180.6207c0,-21.81525 17.68475,-39.5 39.5,-39.5c21.81525,0 39.5,17.68475 39.5,39.5c0,21.81525 -17.68475,39.5 -39.5,39.5c-21.81525,0 -39.5,-17.68475 -39.5,-39.5z" data-paper-data="{&quot;index&quot;:null}" fill="#d8d8d8" stroke="#000000" stroke-width="1.5" stroke-linecap="butt"></path><path d="M254.35771,169.6083l-11.07275,4.59202" data-paper-data="{&quot;index&quot;:null}" fill="none" stroke="#000000" stroke-width="1.5" stroke-linecap="round"></path><path d="M248.94146,178.95914l0.25511,-5.86758" data-paper-data="{&quot;index&quot;:null}" fill="none" stroke="#000000" stroke-width="1.5" stroke-linecap="round"></path><path d="M225.51079,170.45509l14.45771,4.12252" data-paper-data="{&quot;index&quot;:null}" fill="none" stroke="#000000" stroke-width="1.5" stroke-linecap="round"></path><path d="M234.44135,178.41109l-0.21988,-5.35892" data-paper-data="{&quot;index&quot;:null}" fill="none" stroke="#000000" stroke-width="1.5" stroke-linecap="round"></path><path d="M233.8131,191.53176l18.63798,0.59168" fill="none" stroke="#000000" stroke-width="1.5" stroke-linecap="round"></path><g stroke="#000000" stroke-linecap="butt"><g data-paper-data="{&quot;index&quot;:null}"><path d="M217.80816,208.54289l-21.47009,2.21366c0,0 -3.58974,-1.86184 -3.63946,-2.95362c-0.0498,-1.09376 3.34094,-3.60296 3.34094,-3.60296l21.47009,-2.21366z" fill="#af5400" stroke-width="1.5"></path><path d="M222.51325,216.35812c0,0 -5.34715,2.26398 -7.87254,0.45476c-2.95844,-2.11947 -3.15269,-7.67596 -3.41145,-11.31622c-0.47975,-6.74768 1.60662,-12.62517 4.66003,-13.12776c1.41876,-0.23353 5.95292,0.49756 5.95292,0.49756c0,0 0.1876,7.19782 0.44443,10.81024c0.47976,6.74767 0.22662,12.6814 0.22662,12.6814z" fill="#989898" stroke-width="1"></path><path d="M222.75709,216.74365c-3.0534,0.50254 -5.9176,-4.56011 -6.39736,-11.30781c-0.47974,-6.74769 1.6066,-12.6252 4.66,-13.12775c3.05341,-0.50256 5.91762,4.56013 6.39737,11.30779c0.47974,6.74769 -1.60661,12.62519 -4.66,13.12775z" fill="#989898" stroke-width="1"></path><path d="M220.77037,201.41765l98.77867,-7.67709l-13.32272,6.8866l-85.38495,6.63614c0,0 -1.78998,-1.53898 -1.80163,-2.50159c-0.01196,-0.98538 1.73065,-3.3441 1.73065,-3.3441z" fill="#e6e6e6" stroke-width="0.5"></path></g><path d="M187.77413,206.19548c-0.21315,-5.63287 4.18039,-10.37201 9.81326,-10.58516c5.63287,-0.21315 10.37201,4.18039 10.58516,9.81326c0.21315,5.63287 -4.18039,10.37201 -9.81326,10.58516c-5.63287,0.21315 -10.37201,-4.18039 -10.58516,-9.81326z" fill="#d8d8d8" stroke-width="1"></path></g></g></g></svg>