<svg version="1.1" xmlns="http://www.w3.org/2000/svg" xmlns:xlink="http://www.w3.org/1999/xlink" width="65.875" height="65.875" viewBox="0,0,65.875,65.875"><g transform="translate(-207.0625,-147.0625)"><g data-paper-data="{&quot;isPaintingLayer&quot;:true}" fill-rule="nonzero" stroke-linejoin="miter" stroke-miterlimit="10" stroke-dasharray="" stroke-dashoffset="0" style="mix-blend-mode: normal"><path d="M207.0625,180c0,-18.19088 14.74662,-32.9375 32.9375,-32.9375c18.19088,0 32.9375,14.74662 32.9375,32.9375c0,18.19088 -14.74662,32.9375 -32.9375,32.9375c-18.19088,0 -32.9375,-14.74662 -32.9375,-32.9375z" fill="#000000" stroke="none" stroke-width="0" stroke-linecap="butt"></path><path d="" data-paper-data="{&quot;index&quot;:null}" fill="none" stroke="#000000" stroke-width="1.5" stroke-linecap="round"></path><path d="" data-paper-data="{&quot;index&quot;:null}" fill="none" stroke="#000000" stroke-width="1.5" stroke-linecap="round"></path><path d="" data-paper-data="{&quot;index&quot;:null}" fill="none" stroke="#000000" stroke-width="1.5" stroke-linecap="round"></path><path d="" data-paper-data="{&quot;index&quot;:null}" fill="none" stroke="#000000" stroke-width="1.5" stroke-linecap="round"></path><path d="" data-paper-data="{&quot;index&quot;:null}" fill="none" stroke="#000000" stroke-width="1.5" stroke-linecap="round"></path><path d="" data-paper-data="{&quot;index&quot;:null}" fill="none" stroke="#000000" stroke-width="1.5" stroke-linecap="round"></path><path d="" data-paper-data="{&quot;index&quot;:null}" fill="none" stroke="#000000" stroke-width="1.5" stroke-linecap="round"></path><path d="" data-paper-data="{&quot;index&quot;:null}" fill="none" stroke="#000000" stroke-width="1.5" stroke-linecap="round"></path><path d="" data-paper-data="{&quot;index&quot;:null}" fill="none" stroke="#000000" stroke-width="1.5" stroke-linecap="round"></path><path d="" data-paper-data="{&quot;index&quot;:null}" fill="none" stroke="#000000" stroke-width="1.5" stroke-linecap="round"></path><g><path d="M232.09495,164.2579l-7.26632,4.37014l6.10919,4.08103z" fill="#e5e5e5" stroke="none" stroke-width="0" stroke-linecap="round"></path><path d="M226.91322,162.45377l-3.97813,4.18811l4.75197,1.57103z" fill="#ffffff" stroke="#ffffff" stroke-width="0.5" stroke-linecap="round"></path><path d="M234.69729,168.73123l-6.22647,3.89573l5.35328,3.44124z" fill="#ffffff" stroke="#ffffff" stroke-width="0.5" stroke-linecap="round"></path><path d="M230.23986,169.50547l-7.2455,1.20349l3.61954,5.23437z" fill="#e3e3e3" stroke="none" stroke-width="0" stroke-linecap="round"></path><path d="M236.02684,175.29245l-7.2455,1.20349l3.61954,5.23437z" fill="#cecece" stroke="none" stroke-width="0" stroke-linecap="round"></path><path d="M242.03764,176.8267l-7.2455,1.20349l3.61954,5.23437z" fill="#cecece" stroke="none" stroke-width="0" stroke-linecap="round"></path><path d="M242.18203,174.44706l-6.96819,-2.32163l0.75418,6.31909z" fill="#ffffff" stroke="#ffffff" stroke-width="0.5" stroke-linecap="round"></path><path d="M239.35768,182.54837l-3.64186,-6.37829l-3.65401,5.21037z" fill="#ffffff" stroke="#ffffff" stroke-width="0.5" stroke-linecap="round"></path><path d="M247.8897,176.18776l-7.2455,1.20349l3.61954,5.23437z" fill="#e3e3e3" stroke="none" stroke-width="0" stroke-linecap="round"></path><path d="M241.35447,184.96204l-4.34032,-5.92514l-3.04085,5.59044z" fill="#e3e3e3" stroke="none" stroke-width="0" stroke-linecap="round"></path><path d="M237.80618,187.91686c0,-5.31815 4.31122,-9.62936 9.62936,-9.62936c5.31815,0 9.62936,4.31122 9.62936,9.62936c0,5.31815 -4.31122,9.62936 -9.62936,9.62936c-5.31815,0 -9.62936,-4.31122 -9.62936,-9.62936z" fill="#ffffff" stroke="none" stroke-width="0" stroke-linecap="butt"></path></g></g></g></svg>