<svg version="1.1" xmlns="http://www.w3.org/2000/svg" xmlns:xlink="http://www.w3.org/1999/xlink" width="117.14426" height="206.51216" viewBox="0,0,117.14426,206.51216"><g transform="translate(-162.09428,-11.9118)"><g data-paper-data="{&quot;isPaintingLayer&quot;:true}" fill-rule="nonzero" stroke-linejoin="miter" stroke-miterlimit="10" stroke-dasharray="" stroke-dashoffset="0" style="mix-blend-mode: normal"><path d="" data-paper-data="{&quot;index&quot;:null}" fill="none" stroke="#000000" stroke-width="1.5" stroke-linecap="round"></path><path d="M199.48853,178.17395c0,-21.81525 17.68475,-39.5 39.5,-39.5c21.81525,0 39.5,17.68475 39.5,39.5c0,21.81525 -17.68475,39.5 -39.5,39.5c-21.81525,0 -39.5,-17.68475 -39.5,-39.5z" fill="#d8d8d8" stroke="#000000" stroke-width="1.5" stroke-linecap="butt"></path><path d="M184.52581,194.65338" fill="none" stroke="#d8d8d8" stroke-width="4" stroke-linecap="round"></path><path d="M229.69475,170.57199v-8" fill="none" stroke="#000000" stroke-width="1.5" stroke-linecap="round"></path><path d="M235.31499,168.26759c0,0 1.27486,-2.93117 2.69835,-2.93117c1.20746,0 3.02185,2.93117 3.02185,2.93117" fill="none" stroke="#000000" stroke-width="1.5" stroke-linecap="round"></path><path d="M238.43304,191.06637c0,2.42201 -1.3368,4.38543 -2.98583,4.38543c-1.64903,0 -2.98583,-1.96343 -2.98583,-4.38543c0,-2.42201 1.3368,-4.38543 2.98583,-4.38543c1.64903,0 2.98583,1.96343 2.98583,4.38543z" fill="none" stroke="#000000" stroke-width="1.5" stroke-linecap="butt"></path><g><path d="M192.27427,31.91672c0,0 10.0965,0.51506 9.74119,4.7254c-0.35529,4.21035 -10.20508,1.29936 -10.20508,1.29936" fill="none" stroke="#ffee00" stroke-width="6.5" stroke-linecap="round"></path><g><path d="M171.86036,99.28958l8.32473,-55.79278l3.84777,0.57414l-8.32473,55.79278z" fill="#7f7600" stroke="#000000" stroke-width="0" stroke-linecap="butt"></path><path d="M176.28383,32.25481c0.61259,-4.30755 4.60116,-7.30291 8.90873,-6.69032c4.30755,0.61259 7.30291,4.60116 6.69032,8.90873c-0.61259,4.30755 -4.60116,7.30291 -8.90873,6.69032c-4.30755,-0.61259 -7.30291,-4.60116 -6.69032,-8.90873z" fill="none" stroke="#ffee00" stroke-width="5" stroke-linecap="butt"></path><path d="M182.04345,24.91217c0,0 0.51506,-10.0965 4.72541,-9.74121c4.21037,0.35529 1.29936,10.20508 1.29936,10.20508" fill="none" stroke="#ffee00" stroke-width="6.5" stroke-linecap="round"></path><path d="M185.2148,43.06364c0,0 -0.51506,10.0965 -4.72541,9.74122c-4.21037,-0.35529 -1.29936,-10.20508 -1.29936,-10.20508" fill="none" stroke="#ffee00" stroke-width="6.5" stroke-linecap="round"></path><path d="M175.09465,34.49948c0,0 -10.0965,-0.51506 -9.74121,-4.72541c0.35527,-4.21034 10.20505,-1.29936 10.20505,-1.29936" fill="none" stroke="#ffee00" stroke-width="6.5" stroke-linecap="round"></path></g></g></g></g></svg>