<svg version="1.1" xmlns="http://www.w3.org/2000/svg" xmlns:xlink="http://www.w3.org/1999/xlink" width="65.88943" height="65.88943" viewBox="0,0,65.88943,65.88943"><defs><radialGradient cx="239.95498" cy="164.29663" r="4.70347" gradientUnits="userSpaceOnUse" id="color-1"><stop offset="0" stop-color="#ffffff"></stop><stop offset="1" stop-color="#ffffff" stop-opacity="0"></stop></radialGradient><radialGradient cx="248.85957" cy="172.99094" r="4.54668" gradientUnits="userSpaceOnUse" id="color-2"><stop offset="0" stop-color="#ffffff"></stop><stop offset="1" stop-color="#ffffff" stop-opacity="0"></stop></radialGradient><radialGradient cx="247.45731" cy="162.82424" r="5.48738" gradientUnits="userSpaceOnUse" id="color-3"><stop offset="0" stop-color="#ffffff"></stop><stop offset="1" stop-color="#ffffff" stop-opacity="0"></stop></radialGradient><radialGradient cx="235.8182" cy="159.1782" r="6.11451" gradientUnits="userSpaceOnUse" id="color-4"><stop offset="0" stop-color="#ffffff"></stop><stop offset="1" stop-color="#ffffff" stop-opacity="0"></stop></radialGradient><radialGradient cx="238.83309" cy="174.67367" r="5.01703" gradientUnits="userSpaceOnUse" id="color-5"><stop offset="0" stop-color="#ffffff"></stop><stop offset="1" stop-color="#ffffff" stop-opacity="0"></stop></radialGradient><radialGradient cx="242.409" cy="167.45182" r="7.9959" gradientUnits="userSpaceOnUse" id="color-6"><stop offset="0" stop-color="#ffffff"></stop><stop offset="1" stop-color="#ffffff" stop-opacity="0"></stop></radialGradient></defs><g transform="translate(-207.05528,-147.05528)"><g data-paper-data="{&quot;isPaintingLayer&quot;:true}" fill-rule="nonzero" stroke-linejoin="miter" stroke-miterlimit="10" stroke-dasharray="" stroke-dashoffset="0" style="mix-blend-mode: normal"><path d="" data-paper-data="{&quot;index&quot;:null}" fill="#ffffff" stroke="#ffffff" stroke-width="1.5" stroke-linecap="round"></path><path d="" data-paper-data="{&quot;index&quot;:null}" fill="#ffffff" stroke="#ffffff" stroke-width="1.5" stroke-linecap="round"></path><path d="M225.27002,150.53975c16.27045,-8.13514 36.05509,-1.54018 44.19023,14.73027c8.13514,16.27045 1.54018,36.05509 -14.73027,44.19023c-16.27045,8.13514 -36.05509,1.54018 -44.19023,-14.73027c-8.13514,-16.27045 -1.54018,-36.05509 14.73027,-44.19023z" fill="#000000" stroke="none" stroke-width="0" stroke-linecap="butt"></path><path d="" data-paper-data="{&quot;index&quot;:null}" fill="#ffffff" stroke="#000000" stroke-width="1.5" stroke-linecap="round"></path><path d="" data-paper-data="{&quot;index&quot;:null}" fill="#ffffff" stroke="#000000" stroke-width="1.5" stroke-linecap="round"></path><path d="" data-paper-data="{&quot;index&quot;:null}" fill="#ffffff" stroke="#ffffff" stroke-width="1.5" stroke-linecap="round"></path><path d="M234.29869,181.39667c5.469,-2.73447 12.11924,-0.5177 14.85371,4.9513c2.73447,5.469 0.5177,12.11924 -4.95131,14.85371c-5.469,2.73447 -12.11923,0.5177 -14.85371,-4.9513c-2.73447,-5.469 -0.5177,-12.11924 4.9513,-14.85371z" fill="#ffffff" stroke="#ffffff" stroke-width="1.5" stroke-linecap="butt"></path><path d="M241.20246,188.38055c-0.45137,0.22568 -0.86302,0.31716 -0.91944,0.20432c-0.05642,-0.11285 0.26375,-0.38728 0.71512,-0.61296c0.45137,-0.22568 0.86302,-0.31716 0.91945,-0.20431c0.05642,0.11285 -0.26375,0.38727 -0.71513,0.61296z" fill="#ffffff" stroke="#ffffff" stroke-width="1.5" stroke-linecap="butt"></path><path d="M241.96866,189.97681c-0.46548,0.23274 -0.88856,0.32993 -0.94499,0.21708c-0.05642,-0.11285 0.27519,-0.39299 0.74066,-0.62573c0.46548,-0.23274 0.88856,-0.32993 0.94499,-0.21708c0.05642,0.11285 -0.27519,0.39299 -0.74066,0.62573z" fill="#ffffff" stroke="#ffffff" stroke-width="1.5" stroke-linecap="butt"></path><path d="M236.31062,194.18784c0,0 -0.88068,-1.15763 -1.3338,-2.01988c-0.42146,-0.802 -0.60723,-2.37303 -0.60723,-2.37303" fill="#ffffff" stroke="#ffffff" stroke-width="1.5" stroke-linecap="round"></path><path d="M238.43046,191.40397c-0.47958,0.23979 -1.08608,-0.00126 -1.35465,-0.53839c-0.26857,-0.53714 -0.0975,-1.16695 0.38209,-1.40674c0.47958,-0.23979 1.08608,0.00125 1.35464,0.53839c0.26857,0.53714 0.0975,1.16696 -0.38208,1.40675z" fill="#ffffff" stroke="#ffffff" stroke-width="0" stroke-linecap="butt"></path><path d="M245.65519,188.35171c-0.67022,0.33511 -1.86726,-0.70068 -4.23695,-5.44011c-2.36969,-4.73943 -3.02322,-7.4048 -2.35299,-7.73991c0.67022,-0.33511 2.41039,1.78695 4.78009,6.52638c2.36969,4.73943 2.48008,6.31854 1.80986,6.65364z" fill="#ffffff" stroke="#ffffff" stroke-width="0" stroke-linecap="butt"></path><path d="M240.36339,179.4498c1.01927,-2.05458 7.45904,-4.9398 7.52043,-4.93205c3.52194,0.44446 3.1548,5.45845 3.01844,5.58775c-1.48878,1.41178 -5.45727,4.03422 -8.86769,3.60383c-1.3551,-0.17101 -0.97739,-1.26694 -1.29771,-1.73588c-0.54445,-0.79705 -1.02658,-1.20717 -0.37347,-2.52365z" fill="#ffffff" stroke="#ffffff" stroke-width="0" stroke-linecap="butt"></path><path d="M242.96595,176.55879l1.48133,-0.74066l2.98817,5.9764l-1.48133,0.74066z" fill="#ffffff" stroke="#ffffff" stroke-width="0" stroke-linecap="butt"></path><path d="M241.91818,168.22308c-2.32342,1.1617 -5.08587,0.3455 -6.17012,-1.82302c-1.08425,-2.16852 -0.07971,-4.8682 2.24371,-6.02989c2.32342,-1.1617 5.08588,-0.3455 6.17013,1.82302c1.08425,2.16852 0.07971,4.8682 -2.24371,6.02989z" fill="url(#color-1)" stroke="none" stroke-width="0" stroke-linecap="butt"></path><path d="M250.89289,177.05763c-2.01363,1.0068 -4.55635,0.00226 -5.67932,-2.24371c-1.12297,-2.24597 -0.40095,-4.88286 1.61267,-5.88967c2.01363,-1.0068 4.55635,-0.00226 5.67932,2.24371c1.12297,2.24597 0.40095,4.88286 -1.61267,5.88967z" fill="url(#color-2)" stroke="none" stroke-width="0" stroke-linecap="butt"></path><path d="M245.0033,157.91617c2.71065,-1.35531 6.00677,-0.25659 7.36208,2.45406c1.35531,2.71065 0.25659,6.00677 -2.45406,7.36208c-2.71065,1.35531 -6.00677,0.25659 -7.36208,-2.45406c-1.35531,-2.71065 -0.25659,-6.00677 2.45406,-7.36208z" fill="url(#color-3)" stroke="none" stroke-width="0" stroke-linecap="butt"></path><path d="M233.08373,153.70921c3.02044,-1.51021 6.69326,-0.28592 8.20347,2.73452c1.51021,3.02044 0.28592,6.69326 -2.73452,8.20347c-3.02044,1.51021 -6.69325,0.28591 -8.20346,-2.73453c-1.51021,-3.02044 -0.28592,-6.69326 2.73452,-8.20346z" fill="url(#color-4)" stroke="none" stroke-width="0" stroke-linecap="butt"></path><path d="M236.58943,170.18629c2.47831,-1.23914 5.4919,-0.2346 6.73105,2.24371c1.23914,2.47831 0.2346,5.49191 -2.24371,6.73105c-2.47831,1.23914 -5.4919,0.2346 -6.73105,-2.24372c-1.23914,-2.47831 -0.2346,-5.4919 2.24371,-6.73104z" fill="url(#color-5)" stroke="none" stroke-width="0" stroke-linecap="butt"></path><path d="M238.83315,160.30006c3.94981,-1.97488 8.75272,-0.37389 10.7276,3.57592c1.97488,3.94981 0.37389,8.75272 -3.57592,10.7276c-3.94981,1.97488 -8.75272,0.37389 -10.7276,-3.57592c-1.97488,-3.94981 -0.37389,-8.75272 3.57592,-10.7276z" fill="url(#color-6)" stroke="none" stroke-width="0" stroke-linecap="butt"></path></g></g></svg>