<svg version="1.1" xmlns="http://www.w3.org/2000/svg" xmlns:xlink="http://www.w3.org/1999/xlink" width="113.03541" height="80.5" viewBox="0,0,113.03541,80.5"><g transform="translate(-184.52581,-139.75)"><g data-paper-data="{&quot;isPaintingLayer&quot;:true}" fill-rule="nonzero" stroke-linejoin="miter" stroke-miterlimit="10" stroke-dasharray="" stroke-dashoffset="0" style="mix-blend-mode: normal"><path d="" data-paper-data="{&quot;index&quot;:null}" fill="none" stroke="#000000" stroke-width="1.5" stroke-linecap="round"></path><path d="" data-paper-data="{&quot;index&quot;:null}" fill="none" stroke="#000000" stroke-width="1.5" stroke-linecap="round"></path><path d="M200.5,180c0,-21.81525 17.68475,-39.5 39.5,-39.5c21.81525,0 39.5,17.68475 39.5,39.5c0,21.81525 -17.68475,39.5 -39.5,39.5c-21.81525,0 -39.5,-17.68475 -39.5,-39.5z" fill="#d8d8d8" stroke="#000000" stroke-width="1.5" stroke-linecap="butt"></path><path d="M253.0852,194.16859c0,0 -22.12613,8.02511 -27.57511,5.13694" data-paper-data="{&quot;index&quot;:null}" fill="none" stroke="#000000" stroke-width="1.5" stroke-linecap="round"></path><path d="M209.96367,151.59824l30.4778,11.59453l29.86751,-10.0822c0,0 4.11377,7.78425 5.23491,11.63853c1.0766,3.70117 2.71517,10.48332 2.71517,10.48332l-37.8176,16.19051l-40.59597,-17.86909c0,0 1.86631,-6.82746 3.08968,-10.37897c1.31662,-3.8222 7.02849,-11.57662 7.02849,-11.57662z" fill="#595959" stroke="#000000" stroke-width="0.5" stroke-linecap="round"></path><path d="M235.68216,173.7163c5.0094,5.46296 -2.672,2.95529 -7.16196,2.95529c-4.48996,0 -8.12978,-8.86587 -8.12978,-8.86587c0,0 10.28234,0.44762 15.29174,5.91058z" fill="#ffffff" stroke="none" stroke-width="0" stroke-linecap="butt"></path><path d="M259.76126,167.86341c0,0 -3.63983,8.86587 -8.12978,8.86587c-4.48996,0 -12.17135,2.50768 -7.16195,-2.95529c5.0094,-5.46296 15.29173,-5.91058 15.29173,-5.91058z" data-paper-data="{&quot;index&quot;:null}" fill="#ffffff" stroke="none" stroke-width="0" stroke-linecap="butt"></path><path d="M184.52581,194.65338" fill="none" stroke="#d8d8d8" stroke-width="4" stroke-linecap="round"></path><g fill="#ff0000" stroke="#ff0000" stroke-width="0.5" stroke-linecap="round"><path d="M286.75296,207.10214l-21.62698,-7.28357l-0.04561,-1.87864l22.97328,-2.66952l9.02976,6.00709z"></path><path d="M281.8035,214.49524l-16.06037,-15.81218l0.81786,-1.70389l21.8171,7.4665l5.34975,9.26116z"></path><path d="M286.91746,198.64923l-22.77101,-2.31534l-0.48632,-1.81912l21.74062,-7.6731l10.20512,3.85467z"></path></g></g></g></svg>