<svg version="1.1" xmlns="http://www.w3.org/2000/svg" xmlns:xlink="http://www.w3.org/1999/xlink" width="174.45169" height="80.5" viewBox="0,0,174.45169,80.5"><g transform="translate(-123.52845,-139.75)"><g data-paper-data="{&quot;isPaintingLayer&quot;:true}" fill-rule="nonzero" stroke-linejoin="miter" stroke-miterlimit="10" stroke-dasharray="" stroke-dashoffset="0" style="mix-blend-mode: normal"><g data-paper-data="{&quot;index&quot;:null}" stroke="#000000"><path d="M204.87632,165.5428c-1.83707,-0.82999 -5.36055,-0.69926 -7.42027,-2.3649c-2.44296,-1.97556 -3.28517,-5.70906 -3.28517,-5.70906l0.0514,-4.01489c0,0 3.36676,3.98215 6.83003,5.78356c2.98087,1.5505 6.01789,0.96062 7.21988,0.93333c4.53252,-0.1029 13.43998,-2.3418 13.43998,-2.3418l0.30291,10.35036c0,0 -12.05286,-0.33876 -17.13877,-2.63659z" fill="#b058be" stroke-width="0" stroke-linecap="butt"></path><path d="M216.18175,167.75992c0,0 -2.05768,-4.36815 -2.10239,-5.8958c-0.03427,-1.17072 1.85704,-2.48763 1.85704,-2.48763" fill="none" stroke-width="0.5" stroke-linecap="round"></path><path d="M212.04688,166.95796c0,0 -1.94155,-3.26723 -1.97684,-4.47308c-0.02882,-0.98457 1.78056,-2.23367 1.78056,-2.23367" fill="none" stroke-width="0.5" stroke-linecap="round"></path><path d="M207.15754,166.17809c0,0 -1.67829,-3.01317 -1.64763,-4.08301c0.02022,-0.70555 1.81367,-1.71138 1.81367,-1.71138" fill="none" stroke-width="0.5" stroke-linecap="round"></path><path d="M203.16822,164.61672c0,0 -1.36894,-2.21556 -1.37605,-2.98263c-0.00532,-0.57462 1.33721,-1.21153 1.33721,-1.21153" fill="none" stroke-width="0.5" stroke-linecap="round"></path><path d="M199.60302,163.21075c0,0 -1.26688,-2.33326 -1.29902,-2.98522c-0.03621,-0.73458 1.09251,-1.20404 1.09251,-1.20404" fill="none" stroke-width="0.5" stroke-linecap="round"></path><path d="M194.92099,159.18823c0,0 0.79732,-2.01018 1.18814,-2.37063c0.44035,-0.40615 1.32313,0.05442 1.32313,0.05442" fill="none" stroke-width="0.5" stroke-linecap="round"></path></g><path d="" data-paper-data="{&quot;index&quot;:null}" fill="none" stroke="#000000" stroke-width="1.5" stroke-linecap="round"></path><path d="" data-paper-data="{&quot;index&quot;:null}" fill="none" stroke="#000000" stroke-width="1.5" stroke-linecap="round"></path><path d="" data-paper-data="{&quot;index&quot;:null}" fill="none" stroke="#000000" stroke-width="1.5" stroke-linecap="round"></path><path d="" data-paper-data="{&quot;index&quot;:null}" fill="none" stroke="#000000" stroke-width="1.5" stroke-linecap="round"></path><path d="" data-paper-data="{&quot;index&quot;:null}" fill="none" stroke="#000000" stroke-width="1.5" stroke-linecap="round"></path><path d="M289.92393,195.47556" data-paper-data="{&quot;index&quot;:null}" fill="none" stroke="#d8d8d8" stroke-width="4" stroke-linecap="round"></path><path d="M240.00002,219.5c-21.81525,0 -39.5,-17.68475 -39.5,-39.5c0,-21.81525 17.68475,-39.5 39.5,-39.5c21.81525,0 39.5,17.68475 39.5,39.5c0,21.81525 -17.68475,39.5 -39.5,39.5z" fill="#d8d8d8" stroke="#000000" stroke-width="1.5" stroke-linecap="butt"></path><path d="M242.95958,187.51603l-33.69856,-3.15529" fill="none" stroke="#000000" stroke-width="0.5" stroke-linecap="round"></path><path d="M222.60951,185.5009l-6.21783,9.11743l-2.74141,-9.94892z" fill="#ffffff" stroke="#000000" stroke-width="0.5" stroke-linecap="round"></path><path d="M237.80182,186.86598l-5.57718,8.178l-2.45893,-8.92381z" fill="#ffffff" stroke="#000000" stroke-width="0.5" stroke-linecap="round"></path><g stroke="#000000"><path d="M257.19906,171.00453l0.30292,-10.35036c0,0 8.90747,2.2389 13.43998,2.3418c1.202,0.02729 4.239,0.61718 7.21988,-0.93333c3.46326,-1.80141 6.83004,-5.78356 6.83004,-5.78356l0.0514,4.01489c0,0 -0.8422,3.7335 -3.28517,5.70906c-2.05972,1.66565 -5.5832,1.5349 -7.42027,2.3649c-5.08591,2.29782 -17.13878,2.63659 -17.13878,2.63659z" fill="#b058be" stroke-width="0" stroke-linecap="butt"></path><path d="M263.27777,162.20162c0,0 1.89131,1.31691 1.85704,2.48763c-0.04471,1.52764 -2.10239,5.8958 -2.10239,5.8958" fill="none" stroke-width="0.5" stroke-linecap="round"></path><path d="M267.36357,163.07635c0,0 1.80938,1.2491 1.78056,2.23367c-0.03529,1.20585 -1.97684,4.47307 -1.97684,4.47307" fill="none" stroke-width="0.5" stroke-linecap="round"></path><path d="M271.89061,163.20884c0,0 1.79345,1.00583 1.81367,1.71138c0.03066,1.06984 -1.64763,4.083 -1.64763,4.083" fill="none" stroke-width="0.5" stroke-linecap="round"></path><path d="M276.08477,163.24768c0,0 1.34252,0.63692 1.3372,1.21154c-0.00711,0.76707 -1.37604,2.98263 -1.37604,2.98263" fill="none" stroke-width="0.5" stroke-linecap="round"></path><path d="M279.81766,161.84662c0,0 1.12872,0.46946 1.09251,1.20404c-0.03214,0.65196 -1.29902,2.98522 -1.29902,2.98522" fill="none" stroke-width="0.5" stroke-linecap="round"></path><path d="M281.78191,159.69716c0,0 0.88277,-0.46058 1.32313,-0.05443c0.39082,0.36046 1.18814,2.37064 1.18814,2.37064" fill="none" stroke-width="0.5" stroke-linecap="round"></path></g><path d="M221.46379,167.12465c0,4.00803 -1.24316,7.25718 -2.77666,7.25718c-1.5335,0 -2.77666,-3.24915 -2.77666,-7.25718c0,-4.00803 -0.37863,-7.00476 -0.37863,-7.00476c0,0 4.21336,0.55153 5.46913,3.69379c0.21243,0.53156 0.46283,2.73105 0.46283,3.31097z" fill="#ff6666" stroke="#000000" stroke-width="0" stroke-linecap="butt"></path><path d="M229.93361,168.88053c0,-0.57992 0.2504,-2.77941 0.46283,-3.31097c1.25577,-3.14226 5.46913,-3.69379 5.46913,-3.69379c0,0 -0.37863,2.99673 -0.37863,7.00476c0,4.00803 -1.24316,7.25718 -2.77666,7.25718c-1.5335,0 -2.77666,-3.24915 -2.77666,-7.25718z" data-paper-data="{&quot;index&quot;:null}" fill="#ff6666" stroke="#000000" stroke-width="0" stroke-linecap="butt"></path><path d="M181.84805,193.6963l-0.03277,0.04085c-0.02876,-0.00213 -0.05752,-0.00425 -0.08628,-0.00637c-0.6694,1.18582 -2.18992,1.18582 -2.18992,1.18582l-1.73216,-0.007c-5.86138,-0.43968 -13.87111,0.29746 -19.24574,-2.39226c-0.01693,-0.00847 -0.03383,-0.01701 -0.05068,-0.02562l-0.00311,0.01089l-2.62286,-0.74956c-0.5899,-0.15414 -1.09488,-0.51835 -1.43021,-1.00792l-4.6319,-0.74708c-1.2109,-0.17385 -2.14157,-1.21549 -2.14157,-2.4745c0,-0.27304 0.04377,-0.53586 0.12468,-0.78181c-0.34948,-0.06126 -0.55404,-0.0973 -0.55582,-0.09805c-0.0363,-0.01529 -0.07253,-0.03073 -0.10867,-0.04632l-0.00496,0.01817l-4.77142,-1.3013c-0.7207,-0.17925 -1.3178,-0.67122 -1.6389,-1.32351c-2.53944,-0.49872 -5.12411,-1.00799 -5.14775,-1.01937c-0.06676,-0.03215 -0.13317,-0.0649 -0.19924,-0.09823l-0.01057,0.02717l-4.58114,-1.78155c-0.96137,-0.34834 -1.64826,-1.26953 -1.64826,-2.35116c0,-1.30615 1.00167,-2.37835 2.27874,-2.49034l2.54778,-0.25478l0.01018,0.10181l0.23849,-0.11421c4.62455,0.44611 9.26596,0.83405 13.90751,1.24181c-0.25873,-0.24527 -0.46504,-0.54528 -0.60039,-0.88149c-3.37453,-0.89335 -6.75735,-1.75823 -10.14881,-2.59781c-2.38192,-0.2867 -4.79441,-0.50328 -6.83093,-1.65498c-0.07456,-0.01768 -0.14913,-0.03535 -0.22369,-0.05301l-4.81584,-1.14059c-1.12784,-0.24181 -1.97339,-1.24438 -1.97339,-2.44444c0,-1.38071 1.11929,-2.5 2.5,-2.5c0.20663,0 0.40741,0.02507 0.59945,0.07233l4.82622,1.08151c4.5882,0.11113 10.10342,2.25844 14.61632,3.19929c9.80254,2.04364 19.65814,3.9095 29.41334,6.16099l4.82285,1.11355c1.13441,0.23681 1.98655,1.2425 1.98655,2.44722c0,0.31365 -0.05776,0.61381 -0.16323,0.89043c3.24428,0.63319 6.49799,1.23012 9.7612,1.81263l0.06143,0.03764l0.00538,-0.02288l4.32857,1.01849c1.12955,0.24051 1.97681,1.2439 1.97681,2.44517c0,1.38071 -1.11929,2.5 -2.5,2.5c-0.09098,0 -0.18083,-0.00486 -0.26929,-0.01433l-0.98184,-0.09351c-0.44591,0.68503 -1.21843,1.13796 -2.09674,1.13796c-0.07942,0 -0.15798,-0.0037 -0.23551,-0.01095l-3.91064,-0.32414c-0.17327,-0.01091 -0.3465,-0.02205 -0.51967,-0.0334c0.59877,0.45674 0.98515,1.17772 0.98515,1.98894c0,1.38071 -1.11929,2.5 -2.5,2.5h-2.57528l0,-0.03145c-0.04676,0.00973 -0.0937,0.0189 -0.14083,0.02748c-0.00372,0.00068 -0.44016,-0.04792 -1.12951,-0.12535l-0.52401,-0.01782l0.00139,-0.04096c-0.00616,-0.00069 -0.01233,-0.00139 -0.01851,-0.00208z" fill="#d8d8d8" stroke="none" stroke-width="0.5" stroke-linecap="butt"></path><path d="M285.57088,191.66661c0.05422,2.20284 -2.22336,2.46144 -2.22336,2.46144l-1.49088,0.16928c-4.66227,0.52937 -10.25784,1.97098 -14.93704,1.64125l-4.93982,0.50665c-0.09487,0.01093 -0.19136,0.01654 -0.28916,0.01654c-1.38071,0 -2.5,-1.11929 -2.5,-2.5c0,-1.09036 0.69803,-2.01768 1.67159,-2.35948l0.19636,-0.07413c-3.42162,0.17928 -6.84166,0.38944 -10.25889,0.64877c-0.10646,0.00808 -0.2134,0.01676 -0.32078,0.02601c-0.22709,0.99438 -1.04709,1.76296 -2.06829,1.91404l-3.09462,0.51374l-0.00374,-0.02255l-0.05111,0.03103c-24.719,2.98638 -49.73209,3.32474 -74.64338,3.36291c-1.57931,0.11936 -3.15873,0.23503 -4.73831,0.34571c-2.10896,0.40524 -4.25476,0.98426 -6.22065,0.4072c-0.12983,0.00784 -0.25966,0.01563 -0.3895,0.02338l-0.07496,-0.02435v0.02547h-5c-1.38071,0 -2.5,-1.11929 -2.5,-2.5c0,-1.35809 1.08292,-2.46326 2.43236,-2.4991l4.98817,-0.15388c0.434,-0.11325 0.87258,-0.19731 1.31459,-0.25978c0.65356,-0.35982 1.34016,-0.35982 1.34016,-0.35982c2.14532,0 4.29179,-0.00008 6.43914,-0.00177c6.14067,-0.56027 12.24175,-1.23157 18.36245,-2.00545c6.07207,-0.76773 12.11718,-1.60346 18.14355,-2.51188c0.14664,-0.32997 0.36264,-0.6223 0.62948,-0.85847c-4.54311,0.15438 -9.08273,0.29576 -13.62166,0.548c-0.13897,0.00772 -10.12863,0.56461 -10.15648,0.55833c-0.05663,-0.01277 -0.11297,-0.02633 -0.16905,-0.04065l-0.00267,0.03245l-2.73458,-0.2249c-1.24198,-0.08916 -2.23279,-1.08559 -2.31312,-2.33c-0.98466,0.06208 -1.9679,0.12513 -2.95027,0.19078c-2.95771,0.28548 -7.45963,0.71998 -7.46046,0.71988c-0.01049,-0.00119 -0.02099,-0.00238 -0.03148,-0.00359l0.00043,0.006l-4.96155,0.3544c-0.06724,0.00543 -0.13522,0.00819 -0.20386,0.00819c-1.38071,0 -2.5,-1.11929 -2.5,-2.5c0,-1.30352 0.99764,-2.37404 2.27104,-2.48966l2.46658,-0.25516c1.00488,-0.10385 2.00879,-0.19947 3.01229,-0.28851c2.94464,-1.05955 6.31233,-0.46914 9.45095,-0.77208c4.99173,-0.4818 10.00053,-1.1126 15.00404,-1.44711c7.45957,-0.4987 14.93102,-0.82559 22.40701,-1.09059c7.83044,-0.87675 15.67523,-1.50782 23.48029,-1.70438c6.3759,-0.16057 13.79237,-1.18266 20.46185,-0.53568c0.91785,-0.05951 1.52762,-0.09851 1.53309,-0.09746c0.04881,0.00937 0.09753,0.01904 0.14617,0.02899l0.00135,-0.02559l4.87742,0.25671c0.64084,0.02921 1.21877,0.29969 1.6451,0.72274l0.93227,0.04994c0.40676,0.01888 0.78814,0.13496 1.12142,0.32556c2.38893,-0.1701 4.65914,-0.33082 4.67276,-0.32826c0.05524,0.01035 0.11035,0.02117 0.16533,0.03245l0.00173,-0.0276l4.10219,0.25639c0.83364,0.04525 1.55863,0.49891 1.97838,1.16438c3.95175,-0.68893 8.30666,-1.60431 12.00079,-1.24062l4.95109,-0.43053c0.08115,-0.00795 0.16344,-0.01202 0.24668,-0.01202c1.38071,0 2.5,1.11929 2.5,2.5c0,1.21898 -0.87243,2.2342 -2.02696,2.45531l-3.76081,0.79978l-0.00269,-0.01267l-0.03138,0.01966c-6.49069,1.19292 -12.98523,2.26302 -19.49134,3.22102c6.00774,-0.23596 12.0164,-0.43629 18.01702,-0.70623l4.9777,-0.22329c0.04283,-0.00218 0.08594,-0.00329 0.12931,-0.00329c1.38071,0 2.5,1.11929 2.5,2.5c0,1.30268 -0.99635,2.37265 -2.26856,2.48943l-4.86887,0.50908c-1.70401,0.57071 -3.48119,0.85093 -5.27184,1.07762z" fill="#808080" stroke="none" stroke-width="0.5" stroke-linecap="butt"></path></g></g></svg>