<svg version="1.1" xmlns="http://www.w3.org/2000/svg" xmlns:xlink="http://www.w3.org/1999/xlink" width="194.57707" height="144.82961" viewBox="0,0,194.57707,144.82961"><g transform="translate(-166.8177,-116.9444)"><g data-paper-data="{&quot;isPaintingLayer&quot;:true}" fill-rule="nonzero" stroke-linejoin="miter" stroke-miterlimit="10" stroke-dasharray="" stroke-dashoffset="0" style="mix-blend-mode: normal"><path d="M199.48851,186.22942c0,-21.81525 17.68475,-39.5 39.5,-39.5c21.81525,0 39.5,17.68475 39.5,39.5c0,21.81525 -17.68475,39.5 -39.5,39.5c-21.81525,0 -39.5,-17.68475 -39.5,-39.5z" fill="#d8d8d8" stroke="#000000" stroke-width="1.5" stroke-linecap="butt"></path><path d="M242.02205,175.05545v8" fill="none" stroke="#000000" stroke-width="1.5" stroke-linecap="round"></path><path d="" data-paper-data="{&quot;index&quot;:null}" fill="none" stroke="#000000" stroke-width="1.5" stroke-linecap="round"></path><path d="M253.08518,207.98809c0,0 -17.91104,4.58722 -25.6108,-0.53676c-1.90381,-1.26693 -4.4943,-5.21093 -3.86722,-8.6468c0.60031,-3.28916 4.39812,-6.06289 3.63978,-7.76264" data-paper-data="{&quot;index&quot;:null}" fill="#000000" stroke="#000000" stroke-width="0" stroke-linecap="round"></path><path d="M249.49371,175.54059v8" fill="none" stroke="#000000" stroke-width="1.5" stroke-linecap="round"></path><g stroke="#000000" stroke-linecap="butt"><path d="M308.7865,215.24919l-0.44532,-59.45093l43.22131,-0.32375l0.44532,59.45093c0,0 -17.57014,13.07921 -20.7147,15.42003c-0.92715,0.69017 -1.80077,1.3405 -1.80077,1.3405z" fill="#008c04" stroke-width="1.5"></path><path d="M327.44908,232.71952l-0.58745,-78.42604l4.82627,-0.03615l0.58745,78.42604z" fill="#00ff08" stroke-width="0"></path><path d="M352.07028,184.26322l-44.55025,0.3337l-0.04715,-6.29345l44.55025,-0.3337z" fill="#00ff08" stroke-width="0"></path></g><path d="M298.31834,165.49138c-2.5,0 -2.5,-2.5 -2.5,-2.5l0.81303,0.247c-3.28217,-3.00399 -6.84114,-5.43733 -10.33911,-8.16435c-1.60281,-1.24956 -3.9421,-2.01607 -4.67767,-3.91062c-0.85435,-2.20046 -1.33518,-5.48497 0.41459,-7.06933c1.21576,-1.10083 3.05569,-0.5465 4.82279,0.00951c-0.16762,-0.33574 -0.26192,-0.71447 -0.26192,-1.11524c0,-1.38071 1.11929,-2.5 2.5,-2.5c0.44475,0 0.86237,0.11614 1.2242,0.31973l4.3636,2.34307l-0.00034,0.00062c0.00119,0.00037 0.00237,0.00074 0.00356,0.00111c3.64638,1.13829 6.64841,4.26924 9.58871,6.61026c1.84209,1.03759 3.67773,2.09048 5.49127,3.19442l0.80953,-0.58473c-0.80857,-1.06873 -1.51831,-2.13929 -2.17964,-3.27962l-0.3309,0.25954l-2.96353,-3.77838c-0.34183,-0.42759 -0.54621,-0.96986 -0.54621,-1.55986c0,-1.38071 1.11929,-2.5 2.5,-2.5c0.50134,0 0.96821,0.14757 1.35954,0.40164l3.06395,1.91898c0.42287,-0.32774 0.95373,-0.52282 1.53015,-0.52282c0.35856,0 0.69948,0.07548 1.00775,0.21143l4.52162,1.87121l-0.00246,0.00595l0.02289,0.00261c2.65361,1.15369 4.25114,1.82642 6.2323,2.73487l-2.07239,-2.82221c-0.31449,-0.41807 -0.50088,-0.93797 -0.50088,-1.50141c0,-1.38071 1.11929,-2.5 2.5,-2.5c0.67742,0 1.2919,0.26943 1.74215,0.70698l2.65409,2.57292c0.76783,0.66408 1.54744,1.2689 2.31417,1.85585c-2.53105,-3.6784 -5.05789,-7.40461 -6.34169,-11.45708c-0.00093,-0.00295 -0.00187,-0.0059 -0.0028,-0.00885l-0.00145,0.00076l-1.9621,-3.75252c-0.19569,-0.35649 -0.30698,-0.76588 -0.30698,-1.20126c0,-1.38071 1.11929,-2.5 2.5,-2.5c0.69355,0 1.32113,0.28241 1.77403,0.73852l1.78559,1.7973l-0.02748,0.0273l0.08913,0.03702c3.79784,4.41527 8.13178,8.74925 12.54433,12.64917c0.11839,-1.27058 1.1876,-2.26513 2.48911,-2.26513c0.80968,0 1.52947,0.38492 1.98634,0.98175l2.07252,2.65508c0.34016,0.32075 0.60873,0.70811 0.84019,1.12997c1.61807,2.2078 3.1848,4.45371 4.71513,6.72307c0,0 1.39747,2.07294 -0.67547,3.47041c-2.07294,1.39747 -3.47041,-0.67547 -3.47041,-0.67547c-0.06684,-0.09917 -0.13375,-0.1983 -0.20073,-0.29738c-0.53949,-0.01923 -1.03544,-0.20941 -1.43533,-0.518l-3.97082,-2.99765c-2.498,-1.34842 -5.14276,-4.07133 -7.24219,-6.14608c1.43057,2.2691 2.84161,4.54954 4.10047,6.92903l0.00813,0.16038l0.05074,-0.01939l0.9718,2.54322c0.11937,0.2918 0.18517,0.6112 0.18517,0.94596c0,1.38071 -1.11929,2.5 -2.5,2.5c-0.51934,0 -1.00169,-0.15836 -1.40141,-0.42942l-0.30744,-0.20182c-0.40089,0.84554 -1.26227,1.43028 -2.26023,1.43028c-0.42213,0 -0.81983,-0.10463 -1.16858,-0.28936l-4.42158,-2.22529c-1.65274,-0.48676 -3.34096,-1.22403 -5.02951,-2.05215c-0.16162,1.22461 -1.20963,2.16973 -2.47838,2.16973c-0.61042,0 -1.16975,-0.21877 -1.60384,-0.58219l-2.19146,-1.80704l2.21242,2.96922c0.32043,0.42027 0.51071,0.94511 0.51071,1.5144c0,1.38071 -1.11929,2.5 -2.5,2.5c-0.06057,0 -0.12064,-0.00215 -0.18014,-0.00639l-3.1521,-0.19831l0.00446,-0.07083c-0.20494,-0.0044 -0.41004,-0.01884 -0.61533,-0.04508c-1.99832,-0.25542 -3.57172,-1.72985 -5.21425,-3.00624c-1.12412,0.46265 -2.26744,-0.23606 -2.26744,-0.23606c-0.47144,-0.28812 -0.94434,-0.57283 -1.41844,-0.85473c-0.21501,-0.02929 -0.42133,-0.08592 -0.61534,-0.16627l-4.60941,-1.78451l0.00378,-0.00975c-0.01872,-0.0037 -0.03744,-0.00744 -0.05616,-0.01121c-1.44174,-0.29037 -2.67034,-1.23713 -4.03802,-1.77783c-0.06537,-0.02584 -9.10345,-3.23731 -9.19877,-3.2819c-0.79851,-0.37353 -1.35909,-1.16226 -2.16577,-1.5178c-0.37441,-0.16502 0.48817,0.67025 0.81155,0.92093c1.0311,0.79933 2.16117,1.46231 3.22921,2.21157c3.7652,2.6414 7.33354,5.38468 10.72835,8.48572l0.81303,3.44306c0,0 0,2.5 -2.5,2.5z" fill="#6fff66" stroke="none" stroke-width="0.5" stroke-linecap="butt"></path><path d="M325.4267,227.91226c0,0.63028 -0.23324,1.20609 -0.61812,1.64582l-2.75207,3.18026c-0.59004,0.79762 -1.15125,1.60124 -1.7096,2.39574l0.30386,-0.17841c1.70511,-1.0472 3.28081,-2.31397 4.74183,-3.68122c0,0 1.81771,-1.68886 3.51391,0.10926c0.38412,-0.13593 0.77252,-0.24387 1.16608,-0.31005c2.0493,-1.58565 4.11328,-3.15181 6.18251,-4.71918l3.13432,-2.56334c0.43307,-0.35982 0.98959,-0.57619 1.59665,-0.57619c1.38071,0 2.5,1.11929 2.5,2.5c0,0.47609 -0.13308,0.92111 -0.36408,1.29986c1.31023,0.07825 2.34864,1.1656 2.34864,2.49549c0,0.38278 -0.08603,0.74546 -0.2398,1.06978l-1.76398,3.94571l-0.04439,-0.01984c-0.03704,0.10871 -0.07626,0.21685 -0.11784,0.32438c-0.17496,0.45245 -6.4527,7.65313 -6.87931,7.9844c-1.70814,1.3264 -3.4579,3.60673 -5.48565,3.84756l-0.54185,0.6363c-0.4586,0.54541 -1.14599,0.89204 -1.91435,0.89204c-1.17026,0 -2.15272,-0.80408 -2.42503,-1.88991l-0.39996,0.38648c-0.45,0.43601 -1.06339,0.70438 -1.73947,0.70438c-1.38071,0 -2.5,-1.11929 -2.5,-2.5c0,-0.24225 0.03446,-0.47645 0.09873,-0.69797l-3.81248,2.87811c-0.42219,0.32581 -0.95147,0.51962 -1.52601,0.51962c-1.06765,0 -1.97899,-0.66926 -2.33737,-1.61114l-0.31573,0.14956c-0.3363,0.16833 -0.71585,0.26306 -1.11752,0.26306c-1.38071,0 -2.5,-1.11929 -2.5,-2.5c0,-0.34096 0.06826,-0.66598 0.19185,-0.96214l1.79716,-4.60462l0.02818,0.011c0.03316,-0.09869 0.06769,-0.19702 0.10369,-0.29495c0.01969,-0.05356 0.11894,-0.21037 0.27887,-0.44556c-0.81835,0.46874 -1.59404,0.92759 -2.28153,1.38351l-2.94466,1.97597c-0.40351,0.27926 -0.89316,0.44286 -1.42102,0.44286c-0.29097,0 -0.57033,-0.04971 -0.83005,-0.1411c-0.15848,0.07476 -0.32107,0.14159 -0.4885,0.19907c-0.07906,0.02714 -0.15836,0.05328 -0.23788,0.07845l0.01667,0.03643l-4.31739,1.97533c-0.32911,0.15947 -0.69849,0.24889 -1.08874,0.24889c-1.38071,0 -2.5,-1.11929 -2.5,-2.5c0,-0.87488 0.4494,-1.6448 1.12995,-2.0915l3.77328,-2.55369c4.70128,-3.20579 9.95292,-8.18766 15.24947,-10.22181l4.21439,-2.61743c0.3898,-0.25111 0.85392,-0.39681 1.35207,-0.39681c1.38071,0 2.5,1.11929 2.5,2.5c0,0.00106 0,0.00212 0,0.00318c0.60283,0.45645 0.99228,1.17992 0.99228,1.99436z" fill="#6fff66" stroke="none" stroke-width="0.5" stroke-linecap="butt"></path><path d="M313.41165,222.21113c1.50625,1.9953 -0.48905,3.50155 -0.48905,3.50155l-0.88054,0.66185c-5.11455,3.52803 -10.23524,7.04355 -15.44244,10.4346c-0.26118,0.17008 -8.67395,5.54765 -8.77102,5.57047c-0.12021,0.02827 -0.24076,0.0531 -0.36164,0.07478l0.01418,0.05071l-3.51676,0.98327c-0.23051,0.07012 -0.47514,0.10783 -0.72858,0.10783c-1.38071,0 -2.5,-1.11929 -2.5,-2.5c0,-0.83948 0.41376,-1.58231 1.04848,-2.0357l2.11791,-1.5504c1.57407,-1.28611 3.26669,-2.84758 5.05514,-4.39449l-1.14533,0.36016c-0.25277,0.08599 -0.52372,0.13263 -0.80557,0.13263c-1.38071,0 -2.5,-1.11929 -2.5,-2.5c0,-1.02952 0.6223,-1.91369 1.51127,-2.29687l4.31461,-1.97406l0.00964,0.02107c0.03703,-0.02442 0.07421,-0.04865 0.11153,-0.07269c0.03066,-0.01975 9.69068,-3.25166 9.72658,-3.26368l0.13341,0.01043l-0.00939,-0.0417l3.56457,-0.80228c0.19276,-0.04764 0.39433,-0.07291 0.6018,-0.07291c0.51585,0 0.99521,0.15624 1.39334,0.42397c0.82222,-0.24005 1.64447,-0.48081 2.46686,-0.72226c0,0 0.39826,-0.11692 0.91787,-0.0932l0.6616,-0.50212c0,0 1.9953,-1.50625 3.50155,0.48905z" fill="#6fff66" stroke="none" stroke-width="0.5" stroke-linecap="butt"></path><path d="M345.16429,146.71936c-1.5063,1.99526 -3.50156,0.48896 -3.50156,0.48896l-0.82442,-0.62276c-2.0536,-1.60083 -4.19579,-3.09458 -6.31135,-4.61888c-7.31006,-3.43394 -14.13091,-7.3588 -20.98281,-11.54489c0.18541,0.3101 0.35728,0.61822 0.51341,0.9235c0.01937,0.03787 0.03858,0.07582 0.05765,0.11383l0.01128,-0.00687l2.5795,4.23626c0.24424,0.38615 0.38561,0.84383 0.38561,1.33453c0,1.38071 -1.11929,2.5 -2.5,2.5c-0.14856,0 -0.29409,-0.01296 -0.43553,-0.03781l-2.88523,-0.45613l0.01492,-0.09437l-0.30811,0.02977c-3.12251,-1.29738 -6.24508,-2.55048 -9.40678,-3.7268c1.92204,1.89484 3.54697,3.95831 4.0887,6.14797c0.6138,2.48097 1.38243,5.58054 -0.09397,7.66673c-1.25557,1.77417 -7.74204,-0.83745 -9.14394,-1.30763c-3.13925,-1.05289 -6.1921,-2.36069 -9.35567,-3.33808c-2.26931,-0.70111 -4.55278,-1.15712 -6.81226,-1.73229c3.84595,2.25292 8.01954,3.87434 12.04414,5.89871c0,0 2.23313,1.12389 1.10924,3.35702c-0.26493,0.52641 -0.5915,0.86628 -0.93593,1.0783l4.55257,1.85248c0.94212,0.35826 1.61159,1.26972 1.61159,2.33754c0,0.51851 -0.15785,1.00015 -0.42812,1.39949c0.22954,0.09847 0.45946,0.19642 0.68978,0.29383c0,0 2.30181,0.97554 1.32627,3.27735c-0.97554,2.30181 -3.27735,1.32627 -3.27735,1.32627c-4.17491,-1.77274 -8.22745,-3.71275 -12.22768,-5.74022c-0.17322,1.21162 -1.21519,2.14304 -2.47471,2.14304c-0.33122,0 -0.6474,-0.06441 -0.93669,-0.1814l-4.62402,-1.74539c-5.26645,-0.80631 -11.1004,-3.97696 -16.13227,-5.81481c-2.64128,-0.96471 -5.25673,-1.95225 -7.84238,-2.9859c2.53173,1.77501 5.14789,3.40773 7.90939,4.75444l2.26821,2.01976c0,0 1.85279,1.67844 0.17435,3.53123c-1.67844,1.85279 -3.53123,0.17435 -3.53123,0.17435l-1.70091,-1.57586c-5.53866,-2.61324 -10.19258,-6.5586 -15.04372,-10.24492c-3.72519,-2.83072 -8.68395,-5.76574 -11.79631,-9.26805l-3.97263,-2.8956c-0.63726,-0.45308 -1.05298,-1.19745 -1.05298,-2.0389c0,-1.38071 1.11929,-2.5 2.5,-2.5c0.54734,0 1.05359,0.17589 1.46533,0.47423l2.89148,2.03902c8.88345,5.75051 18.45153,9.76352 28.30543,13.38891c-0.04151,-0.04333 -0.08244,-0.0873 -0.12276,-0.13196c-0.03065,-0.03394 -0.06111,-0.06803 -0.09141,-0.10225l-0.01283,0.01441l-3.72499,-3.31682c-0.51921,-0.4581 -0.84669,-1.12845 -0.84669,-1.8753c0,-1.38071 1.11929,-2.5 2.5,-2.5c0.26002,0 0.51077,0.0397 0.74652,0.11336l2.72282,0.78306l-0.01689,0.05872l0.16787,-0.01006c0.20893,0.0897 0.41793,0.17929 0.62698,0.26877c0.26635,0.02949 0.52008,0.10083 0.75447,0.20728l4.54376,1.94031c1.85165,0.41789 3.85754,1.2413 5.84728,2.18583c-0.25775,-0.18558 -0.51394,-0.37511 -0.76849,-0.5689l-0.08666,-0.15479l-0.03793,0.03768l-1.78569,-1.7974c-0.44927,-0.45198 -0.72689,-1.07477 -0.72689,-1.76241c0,-1.27638 0.95652,-2.32934 2.19184,-2.4812l4.91687,-0.68264l0.00453,0.03264c0.15287,-0.02154 0.30646,-0.03947 0.46087,-0.05343c1.81394,-0.16397 3.55071,0.81345 5.32342,1.23149c3.26168,0.76917 6.45044,1.83725 9.60715,2.96211c1.55552,0.55429 3.13111,1.05053 4.69619,1.57721c1.16715,0.39277 2.42834,0.5757 3.5029,1.17575c-2.62474,-4.41428 -6.07802,-7.45304 -9.8985,-11.02741l-3.18302,-2.55691c-0.57987,-0.45783 -0.95204,-1.16708 -0.95204,-1.96325c0,-1.38071 1.11929,-2.5 2.5,-2.5c0.29864,0 0.58505,0.05236 0.85055,0.14841l4.68498,1.57191c4.29315,0.6943 8.8885,2.75943 13.14848,4.67705c-2.45022,-2.564 -4.45884,-5.74118 -6.76113,-8.36123l-2.82629,-3.00928c-0.42257,-0.44771 -0.68162,-1.05144 -0.68162,-1.71567c0,-1.38071 1.11929,-2.5 2.5,-2.5c0.51631,0 0.99606,0.15651 1.3944,0.42468l4.15971,2.70925c3.52956,1.37208 6.99441,4.43477 10.24026,6.42384c1.79552,1.1003 3.58051,2.17212 5.36878,3.21558c-0.03088,-0.15699 -0.04707,-0.31925 -0.04707,-0.48529c0,-1.38071 1.11929,-2.5 2.5,-2.5c0.44205,0 0.85731,0.11473 1.21761,0.31604l3.33184,1.77549l-0.03579,0.06717l0.23128,0.04871c3.20311,2.54043 5.29103,4.55866 7.15833,7.04864l0.31527,-0.30426l3.46993,3.59543c0.27676,0.28597 0.48586,0.63782 0.6015,1.02974c1.0459,0.76164 2.08448,1.53491 3.10786,2.33254l0.76318,0.57578c0,0 1.99526,1.5063 0.48896,3.50156z" fill="#3f8f39" stroke="none" stroke-width="0.5" stroke-linecap="butt"></path><path d="M303.39536,235.62268c-0.11969,2.49713 -2.61682,2.37745 -2.61682,2.37745l-3.34081,-0.16012c-2.55503,-0.13613 -4.80506,-0.10175 -7.06954,-0.07376l0.09713,0.40742l-4.80995,1.14667c-0.20232,0.05284 -0.41462,0.08096 -0.6335,0.08096c-1.38071,0 -2.5,-1.11929 -2.5,-2.5c0,-0.60641 0.21591,-1.16239 0.57504,-1.59526c-7.14742,2.27436 -14.20396,6.45011 -21.90317,6.42968l-4.88447,0.81942c-0.14918,0.02776 -0.30301,0.04227 -0.46024,0.04227c-1.38071,0 -2.5,-1.11929 -2.5,-2.5c0,-0.9956 0.58198,-1.85528 1.4243,-2.25738l2.33331,-1.1743l0.02185,0.04341l0.08095,-0.09225c2.97065,-1.17186 5.94031,-2.34403 8.91627,-3.49886c-0.54632,0.0185 -0.98665,0.01077 -1.24627,-0.03575l-4.98825,0.12551c-0.02427,0.0007 -0.04862,0.00105 -0.07305,0.00105c-1.38071,0 -2.5,-1.11929 -2.5,-2.5c0,-1.1471 0.77257,-2.11375 1.82577,-2.40803l3.11921,-0.94975c13.57976,-5.48299 27.5218,-9.09352 41.46771,-13.41278c0,0 2.38809,-0.73961 3.1277,1.64848c0.73961,2.38809 -1.64848,3.1277 -1.64848,3.1277c-7.27118,2.2519 -14.5376,4.31195 -21.75236,6.54594c2.19626,-0.49667 4.38656,-1.00663 6.56756,-1.49401l0.07864,0.01104l-0.00389,-0.02422l4.8911,-0.786c0.14354,-0.02562 0.29132,-0.03899 0.44222,-0.03899c1.38071,0 2.5,1.11929 2.5,2.5c0,0.55367 -0.17999,1.0653 -0.48464,1.47958l2.32401,-0.2752c0.10853,-0.01439 0.21925,-0.02181 0.33171,-0.02181c1.38071,0 2.5,1.11929 2.5,2.5c0,0.89455 -0.46984,1.67937 -1.17621,2.12114l-2.58066,1.66988l2.17039,0.10403c0,0 2.49713,0.11969 2.37745,2.61682z" fill="#3f8f39" stroke="none" stroke-width="0.5" stroke-linecap="butt"></path><path d="M360.48713,215.63816c1.88676,1.64016 0.2466,3.52692 0.2466,3.52692l-2.80389,3.22499c-6.36396,6.88165 -12.82902,13.67434 -19.175,20.57299c-2.93704,3.79801 -6.653,7.37261 -9.57992,10.76464l-0.0398,0.01946l0.01206,0.01112l-2.59063,2.80948c-0.45705,0.49884 -1.11388,0.81163 -1.84377,0.81163c-1.38071,0 -2.5,-1.11929 -2.5,-2.5c0,-0.64303 0.24278,-1.22937 0.64167,-1.67234l3.07427,-3.44475c-1.29009,0.7715 -2.61,1.42642 -3.96468,1.9144l-4.34601,2.37745c-0.36553,0.20928 -0.78897,0.3289 -1.24035,0.3289c-1.38071,0 -2.5,-1.11929 -2.5,-2.5c0,-0.58394 0.2002,-1.12112 0.53572,-1.54665l2.76442,-3.57759l0.0379,0.02929l0.06082,-0.14916c0.74716,-0.75425 1.50693,-1.49644 2.26504,-2.2402c-4.70879,2.62833 -9.35393,5.38165 -14.05178,8.01716c-3.74301,2.09985 -8.39085,5.45893 -12.49762,6.73761l-4.38044,2.30957c-0.35817,0.19814 -0.77013,0.31093 -1.20843,0.31093c-1.38071,0 -2.5,-1.11929 -2.5,-2.5c0,-0.83948 0.41377,-1.58232 1.04849,-2.03571l2.06334,-1.51044c6.05058,-5.71725 12.29182,-10.88392 19.63879,-14.83681c0,0 2.20267,-1.18247 3.38514,1.0202c0.27526,0.51275 0.36709,0.97022 0.34596,1.37035c5.0352,-2.89776 10.09221,-5.75396 15.30688,-8.3001l2.22755,-1.09884c0.34465,-0.17918 0.73629,-0.28044 1.15158,-0.28044c1.38071,0 2.5,1.11929 2.5,2.5c0,0.60171 -0.21257,1.15376 -0.56671,1.58517l-2.12668,2.63463c2.60311,-2.17252 5.156,-4.43682 7.77766,-6.47601l0.01566,-0.00566l-0.00302,-0.00398l3.5751,-2.70845c0.42271,-0.32727 0.95318,-0.52204 1.52914,-0.52204c0.21663,0 0.42683,0.02755 0.62727,0.07935c3.60799,-3.87277 7.21334,-7.74796 10.80789,-11.63332l2.75285,-3.16719c0,0 1.64016,-1.88676 3.52692,-0.2466z" fill="#3f8f39" stroke="none" stroke-width="0.5" stroke-linecap="butt"></path><path d="M203.31269,173.85546c-1.83596,0.71145 -3.55922,1.76597 -5.41001,2.41442c1.2391,0.27675 2.48539,0.70997 3.71424,0.91156c0.3988,0.06542 0.79804,0.12842 1.19768,0.18902c-0.0467,-0.19097 -0.07146,-0.39054 -0.07146,-0.59589c0,-1.32544 1.03147,-2.40997 2.33551,-2.49467l4.96478,-0.37016l0.00013,0.00174c0.0035,-0.00084 0.007,-0.00168 0.01049,-0.00251c1.57802,-0.37714 3.27636,-0.55954 5.01245,-0.67034c-1.80907,-0.39833 -3.60498,-0.82219 -5.36118,-1.13479l-1.226,-0.16905c-1.72091,0.62341 -3.44531,1.25364 -5.16663,1.92067zM210.19303,194.3417c-1.36203,-0.60932 -2.72935,-1.21066 -4.10866,-1.78158c0.04648,0.19054 0.07111,0.38964 0.07111,0.59449c0,0.54156 -0.1722,1.04289 -0.46482,1.45225c0.35911,0.10607 0.71866,0.22197 1.08021,0.34474c0.17812,-0.03131 0.35701,-0.05869 0.53667,-0.08189c0.96281,-0.12438 1.92322,-0.37611 2.88549,-0.528zM190.07985,190.9125c-0.09445,-0.07435 -0.18681,-0.15082 -0.27725,-0.22922l-0.01923,0.02388l-2.95932,-2.383c-0.57843,-0.4579 -0.94953,-1.16624 -0.94953,-1.96126c0,-1.22841 0.88597,-2.24988 2.05378,-2.46029l4.55738,-0.91423l0.00115,0.00575l0.02606,-0.01106c2.09143,-0.37155 4.1849,-0.7254 6.27866,-1.07737c-1.21729,-0.08787 -2.42831,-0.19479 -3.46333,-0.78412c-2.25818,-1.28579 -5.43437,-2.75729 -5.6752,-5.34468c-0.18767,-2.01622 3.10408,-2.6271 4.83546,-3.67719c3.00773,-1.82419 6.79036,-3.3068 10.47868,-4.58234c0.26087,-0.29153 0.58913,-0.52149 0.9603,-0.66537c-1.07033,-0.18412 -2.13915,-0.38196 -3.20624,-0.59861c-1.81989,-0.36948 -3.91455,-0.09792 -5.45388,-1.13668c-0.15837,-0.10687 -0.31204,-0.21906 -0.46151,-0.33598l-0.0315,0.04108l-3.9461,-3.02626c-0.60729,-0.4561 -1.00011,-1.18231 -1.00011,-2.00027c0,-1.38071 1.11929,-2.5 2.5,-2.5h2.75883c11.54994,-0.24111 23.40423,-0.95014 34.71938,1.66289c0,0 2.43517,0.56565 1.86952,3.00081c-0.56565,2.43517 -3.00081,1.86952 -3.00081,1.86952c-0.97751,-0.22848 -1.96004,-0.43016 -2.94686,-0.60786c-0.59631,1.12515 -2.00335,1.26047 -2.00335,1.26047l-3.32393,0.31187c0.26822,0.39836 0.42476,0.87815 0.42476,1.39451c0,1.20983 -0.85938,2.21894 -2.00099,2.45019c1.20108,0.33051 2.27207,0.76927 3.08818,1.37343c0.09133,0.06761 0.18171,0.13632 0.2712,0.20607l0.02719,-0.04245l4.17527,2.67442c0.71216,0.44055 1.18662,1.22868 1.18662,2.12762c0,1.33106 -1.04023,2.41915 -2.35209,2.4957l-2.89232,0.19409c-1.95061,0.26885 -4.40638,0.76216 -6.86483,1.09961c2.63776,1.49347 4.70189,3.48429 4.47885,6.2608c-0.15849,1.97295 -3.46807,1.95343 -5.33967,2.59747c-2.08416,0.71719 -4.32243,0.78907 -6.54126,0.92191c3.92544,1.68078 7.64859,4.20011 7.48,8.38231c-0.03759,0.93242 -0.92826,1.36969 -1.98986,1.65696c0.44799,0.4518 0.72472,1.07369 0.72472,1.76022c0,1.1229 -0.74031,2.07288 -1.75948,2.38851l-2.92494,0.98138c0.49793,1.16391 0.59622,2.52232 0.02264,4.1392c1.13986,0.37729 1.97798,0.67015 2.081,0.74798c0.46856,0.35396 0.89967,0.71311 1.28552,1.07378c1.12102,0.43502 2.13046,1.00197 2.73267,1.98342c1.03853,1.69255 1.00692,2.96977 0.43573,3.95445c0.96718,0.32453 1.73403,0.62545 2.06276,0.85309c0.07651,0.05298 0.15224,0.1069 0.22722,0.16171l0.01725,-0.02769l4.13065,2.57384c0.72779,0.43705 1.21479,1.23405 1.21479,2.14479c0,0.24373 -0.03488,0.47931 -0.09991,0.70202c0.49443,0.20075 0.92251,0.41287 1.25398,0.63612c0.07426,0.05002 0.14768,0.10104 0.22032,0.15303l0.01535,-0.02495l3.53446,2.1741c0.73505,0.43532 1.22791,1.23641 1.22791,2.15261c0,1.25399 -0.92326,2.29234 -2.1271,2.47238l-3.53149,0.59243l-0.00539,-0.03212l-0.10614,0.04826c-1.1108,0.08539 -2.22018,0.16992 -3.32901,0.25126l3.49904,1.01212c1.06997,0.28317 1.85866,1.25797 1.85866,2.41697c0,1.38071 -1.11929,2.5 -2.5,2.5c-0.07935,0 -0.15783,-0.0037 -0.23529,-0.01093l-4.95396,-0.41021l0.00091,-0.01098l-0.03671,0.00775c-3.52688,-0.39427 -5.10935,-0.55776 -8.39495,-0.96563c-1.79678,-0.22305 -3.76339,0.11465 -5.38855,-0.68351c-0.1297,-0.0637 -0.25653,-0.13165 -0.38078,-0.20344l-0.02161,0.04294l-3.12709,-1.57382c-0.83394,-0.39811 -1.41268,-1.24473 -1.42411,-2.22772c-0.48856,-0.45629 -0.79398,-1.1062 -0.79398,-1.82744c0,-1.38071 1.11929,-2.5 2.5,-2.5c0.05112,0 0.10188,0.00153 0.15224,0.00456l3.75063,0.19868l-0.02449,0.46235c2.08563,-0.33749 4.17768,-0.55849 6.28082,-0.72297c-1.23814,-0.40851 -2.42164,-0.99891 -3.60955,-1.53989c-2.75225,-1.25338 -6.61619,-2.49846 -5.08904,-7.04625c0.08048,-0.23967 0.22142,-0.46681 0.40964,-0.68161c-0.25378,-0.39119 -0.40117,-0.85779 -0.40117,-1.35882c0,-1.18117 0.81914,-2.17101 1.92033,-2.43245l0.40673,-0.10614c-2.49527,-0.61948 -4.9727,-1.40641 -6.92583,-2.3388c-1.47096,-0.70221 -3.53924,-1.27427 -3.97771,-2.84417c-1.23152,-4.40922 1.5238,-5.6264 4.37291,-6.31353l-0.5949,-0.32243c-0.80403,-0.41561 -1.35363,-1.25475 -1.35363,-2.22226c0,-0.34709 0.07073,-0.67767 0.19857,-0.97809l-3.5677,-1.48598c-0.93193,-0.36332 -1.59225,-1.2696 -1.59225,-2.3301c0,-0.45816 0.12325,-0.88754 0.3384,-1.25679c-1.72598,-0.56947 -3.32665,-1.19825 -4.07121,-1.78435zM206.98802,204.93641c-0.09844,0.03077 -0.19706,0.06092 -0.29586,0.09041c0.41936,0.39805 0.72171,0.75339 0.57949,0.41724c-0.07744,-0.18304 -0.17291,-0.35153 -0.28363,-0.50765zM209.06568,162.01434c0.09034,0.0169 0.18066,0.03383 0.27096,0.05078c-0.00341,-0.01785 -0.00663,-0.03577 -0.00966,-0.05375c-0.0871,0.00094 -0.1742,0.00193 -0.2613,0.00296z" fill="#3f8f39" stroke="none" stroke-width="0.5" stroke-linecap="butt"></path><path d="M299.59495,164.78597c0.40274,2.46735 -2.06461,2.87009 -2.06461,2.87009l-2.40813,0.39307c-9.08464,1.47351 -18.01521,4.40123 -26.97861,6.56147c0,0 -2.43041,0.58575 -3.01616,-1.84467c-0.58575,-2.43041 1.84467,-3.01616 1.84467,-3.01616c9.08956,-2.19065 18.1338,-5.12297 27.34462,-6.63534l2.40813,-0.39307c0,0 2.46735,-0.40274 2.87009,2.06461z" fill="#5cd053" stroke="none" stroke-width="0.5" stroke-linecap="butt"></path><path d="M277.24189,195.05034l-0.25384,0.01609c-9.4577,0.59967 -18.98437,0.9157 -28.40239,1.971c0,0 -2.48451,0.27788 -2.76239,-2.20663c-0.27788,-2.48451 2.20663,-2.76239 2.20663,-2.76239c7.59975,-0.84846 15.26722,-1.22722 22.91432,-1.65448c0.70068,-1.2188 2.27094,-1.15558 2.27094,-1.15558c3.04409,0.13502 6.13102,-0.11002 9.11061,-0.74783l1.49066,-0.37716c0,0 2.42442,-0.61009 3.0345,1.81433c0.61009,2.42442 -1.81433,3.0345 -1.81433,3.0345l-1.68466,0.42189c-1.38283,0.28467 -2.78391,0.49973 -4.19301,0.64595c-0.67604,0.92162 -1.91704,1.0003 -1.91704,1.0003z" fill="#5cd053" stroke="none" stroke-width="0.5" stroke-linecap="butt"></path><path d="M283.88238,199.3702c0.57616,2.4327 -1.85655,3.00886 -1.85655,3.00886l-3.94031,0.8663c-1.64435,-0.35391 -3.28871,-0.70782 -4.93306,-1.06172c0,0 -2.43704,-0.55751 -1.87953,-2.99456c0.55751,-2.43704 2.99456,-1.87953 2.99456,-1.87953c1.2663,0.31195 2.5326,0.6239 3.79889,0.93585l2.80714,-0.73175c0,0 2.4327,-0.57616 3.00886,1.85655z" fill="#5cd053" stroke="none" stroke-width="0.5" stroke-linecap="butt"></path><path d="M278.35851,204.92615c0.41362,2.46555 -2.05193,2.87917 -2.05193,2.87917l-3.40401,0.57106c-3.11211,0.51321 -6.28878,0.80646 -9.43945,0.65877c0,0 -2.49684,-0.12567 -2.37117,-2.6225c0.12567,-2.49684 2.6225,-2.37117 2.6225,-2.37117c2.78993,0.15147 5.60679,-0.12539 8.36088,-0.59618l3.40401,-0.57106c0,0 2.46555,-0.41362 2.87917,2.05193z" fill="#5cd053" stroke="none" stroke-width="0.5" stroke-linecap="butt"></path><path d="M262.48213,178.5865c-0.41362,2.46555 -2.87917,2.05193 -2.87917,2.05193l-4.93256,-0.83356c-1.11404,-0.34832 -2.22809,-0.69665 -3.34213,-1.04497c0,0 -2.38481,-0.75013 -1.63467,-3.13494c0.75013,-2.38481 3.13494,-1.63467 3.13494,-1.63467c1.0028,0.31752 2.00561,0.63505 3.00841,0.95257l4.59325,0.76448c0,0 2.46555,0.41362 2.05193,2.87917z" fill="#5cd053" stroke="none" stroke-width="0.5" stroke-linecap="butt"></path><path d="M216.06507,142.07309c-0.2559,2.48687 -2.74277,2.23097 -2.74277,2.23097l-1.39005,-0.14304c-5.00629,-0.51548 -9.97613,-1.18832 -14.96296,-1.86403c0,0 -2.47736,-0.33568 -2.14168,-2.81304c0.33568,-2.47736 2.81304,-2.14168 2.81304,-2.14168c4.93377,0.66852 9.85035,1.33567 14.8034,1.84501l1.39005,0.14304c0,0 2.48687,0.2559 2.23097,2.74277z" fill="#70ff66" stroke="none" stroke-width="0.5" stroke-linecap="butt"></path><path d="M176.15025,168.98409c0,-1.38071 1.11929,-2.5 2.5,-2.5c1.38071,0 2.5,1.11929 2.5,2.5c0,1.38071 -1.11929,2.5 -2.5,2.5c-1.38071,0 -2.5,-1.11929 -2.5,-2.5z" fill="#70ff66" stroke="none" stroke-width="0.5" stroke-linecap="butt"></path><path d="M179.7485,189.10887c0.25038,2.48743 -2.23705,2.73781 -2.23705,2.73781c-1.65829,0.16692 -6.27994,0.63212 -7.93823,0.79904c0,0 -2.48743,0.25038 -2.73781,-2.23705c-0.25038,-2.48743 2.23705,-2.73781 2.23705,-2.73781c1.65829,-0.16692 3.31657,-0.33384 4.97486,-0.50075l2.96337,-0.29828c0,0 2.48743,-0.25038 2.73781,2.23705z" fill="#70ff66" stroke="none" stroke-width="0.5" stroke-linecap="butt"></path><path d="M197.22355,208.84865c0.08672,2.4985 -2.41177,2.58522 -2.41177,2.58522l-0.7582,0.02632c-2.61977,0.09074 -5.24074,0.1746 -7.86208,0.17495c0,0 -2.5,0 -2.5,-2.5c0,-2.5 2.5,-2.5 2.5,-2.5c2.56352,0.00035 5.12667,-0.08282 7.68864,-0.17194l0.7582,-0.02632c0,0 2.4985,-0.08672 2.58522,2.41177z" fill="#70ff66" stroke="none" stroke-width="0.5" stroke-linecap="butt"></path><path d="M226.71277,234.66819c0.63507,2.41799 -1.78293,3.05306 -1.78293,3.05306l-3.92239,1.03009c-0.35579,0.08685 -9.83343,2.40622 -10.03022,2.42989c-0.19552,0.02352 -9.92056,0.01789 -10.29854,0.01789c0,0 -2.5,0 -2.5,-2.5c0,-2.5 2.5,-2.5 2.5,-2.5c3.23383,0 6.49078,0.40406 9.70146,0.01789c3.20347,-0.3853 6.26483,-1.54752 9.39938,-2.31254l3.88017,-1.0192c0,0 2.41799,-0.63507 3.05306,1.78293z" fill="#70ff66" stroke="none" stroke-width="0.5" stroke-linecap="butt"></path><path d="M259.55101,232.37115c1.33404,2.11432 -0.78028,3.44836 -0.78028,3.44836l-3.25142,2.01309c-2.38884,0.60014 -7.62441,1.9266 -10.09554,2.50524c-1.85939,0.4354 -3.68179,1.34445 -5.58948,1.25697c-1.79092,-0.08213 -3.39127,-1.16438 -5.08691,-1.74657c0,0 -2.34767,-0.85932 -1.48836,-3.20699c0.85932,-2.34767 3.20699,-1.48836 3.20699,-1.48836c1.21502,0.48319 2.33864,1.39436 3.64505,1.44958c1.42317,0.06016 2.7441,-0.76629 4.12362,-1.12119c2.38367,-0.61323 6.87847,-1.66902 9.33066,-2.25108l2.53731,-1.63933c0,0 2.11432,-1.33404 3.44836,0.78028z" fill="#70ff66" stroke="none" stroke-width="0.5" stroke-linecap="butt"></path><path d="M265.00536,209.06555c0.66887,2.40886 -1.73999,3.07773 -1.73999,3.07773c-8.02954,2.22957 -20.74638,5.76068 -28.77592,7.99025c0,0 -2.40886,0.66887 -3.07773,-1.73999c-0.66887,-2.40886 1.73999,-3.07773 1.73999,-3.07773c8.02954,-2.22957 16.05907,-4.45915 24.08861,-6.68872l4.68731,-1.30153c0,0 2.40886,-0.66887 3.07773,1.73999z" fill="#70ff66" stroke="none" stroke-width="0.5" stroke-linecap="butt"></path><path d="M232.81567,198.94737c0.79922,2.36881 -1.56959,3.16803 -1.56959,3.16803l-3.76908,1.27167c-6.46154,2.17281 -13.08246,3.27752 -19.76218,4.60453c0,0 -2.45208,0.48714 -2.93922,-1.96494c-0.48714,-2.45208 1.96494,-2.93922 1.96494,-2.93922c6.46261,-1.28388 12.8919,-2.32308 19.13801,-4.43799l3.76908,-1.27167c0,0 2.36881,-0.79922 3.16803,1.56959z" fill="#70ff66" stroke="none" stroke-width="0.5" stroke-linecap="butt"></path><path d="M252.0359,185.08055c0.88284,2.33893 -1.45609,3.22177 -1.45609,3.22177l-3.52468,1.30203c-4.62609,0.34475 -11.08497,1.83142 -15.63751,1.03666c-1.83871,-0.32099 -3.43571,-1.45992 -5.15357,-2.18988c0,0 -2.28798,-1.00755 -1.28043,-3.29553c1.00755,-2.28798 3.29553,-1.28043 3.29553,-1.28043c1.33278,0.61344 2.55302,1.58801 3.99834,1.84032c1.44532,0.25232 2.92254,-0.26403 4.38538,-0.37674c2.8351,-0.21844 6.45214,-0.43789 9.32535,-0.61925l2.82591,-1.09504c0,0 2.33893,-0.88284 3.22177,1.45609z" fill="#70ff66" stroke="none" stroke-width="0.5" stroke-linecap="butt"></path><path d="M277.26793,182.4128c-1.24356,2.16877 -3.41233,0.9252 -3.41233,0.9252l-2.92205,-1.68732c-1.33251,-1.12218 -2.66503,-2.24435 -3.99754,-3.36653c0,0 -1.90907,-1.61414 -0.29493,-3.52321c1.61414,-1.90907 3.52321,-0.29493 3.52321,-0.29493c1.21291,1.03001 2.42583,2.06002 3.63874,3.09003l2.5397,1.44443c0,0 2.16877,1.24356 0.9252,3.41233z" fill="#70ff66" stroke="none" stroke-width="0.5" stroke-linecap="butt"></path></g></g></svg>