<svg version="1.1" xmlns="http://www.w3.org/2000/svg" xmlns:xlink="http://www.w3.org/1999/xlink" width="638.18504" height="491.1378" viewBox="0,0,638.18504,491.1378"><g transform="translate(78.93175,61.19529)"><g data-paper-data="{&quot;isPaintingLayer&quot;:true}" fill-rule="nonzero" stroke-linejoin="miter" stroke-miterlimit="10" stroke-dasharray="" stroke-dashoffset="0" style="mix-blend-mode: normal"><path d="" data-paper-data="{&quot;index&quot;:null}" fill="#00c1ff" stroke="none" stroke-width="0.5" stroke-linecap="butt"></path><path d="" data-paper-data="{&quot;index&quot;:null}" fill="none" stroke="#000000" stroke-width="1.5" stroke-linecap="round"></path><path d="" data-paper-data="{&quot;index&quot;:null}" fill="none" stroke="#000000" stroke-width="1.5" stroke-linecap="round"></path><path d="" data-paper-data="{&quot;index&quot;:null}" fill="none" stroke="#000000" stroke-width="1.5" stroke-linecap="round"></path><path d="" data-paper-data="{&quot;index&quot;:null}" fill="none" stroke="#000000" stroke-width="1.5" stroke-linecap="round"></path><path d="" data-paper-data="{&quot;index&quot;:null}" fill="none" stroke="#000000" stroke-width="1.5" stroke-linecap="round"></path><path d="M-78.93175,429.94251v-491.1378h638.18504v491.1378z" fill="#989898" stroke="none" stroke-width="0" stroke-linecap="butt"></path><g><path d="" data-paper-data="{&quot;index&quot;:null}" fill="none" stroke="#000000" stroke-width="1.5" stroke-linecap="round"></path><path d="M98.94164,223.00183c0,-35.27766 28.59819,-63.87585 63.87585,-63.87585c35.27766,0 63.87585,28.59819 63.87585,63.87585c0,35.27766 -28.59819,63.87585 -63.87585,63.87585c-35.27766,0 -63.87585,-28.59819 -63.87585,-63.87585z" fill="#d8d8d8" stroke="#000000" stroke-width="1.5" stroke-linecap="butt"></path><path d="M139.38565,246.92807c8.8116,-4.67049 44.59199,8.307 44.59199,8.307" data-paper-data="{&quot;index&quot;:null}" fill="none" stroke="#000000" stroke-width="1.5" stroke-linecap="round"></path><path d="M163.22968,202.26343l11.22252,6.7335l-10.66138,2.2445l-5.33069,9.53914l-3.64731,-10.38083l-12.06421,-5.89183l11.50307,-3.36676l6.45295,-12.06421z" fill="#be82ff" stroke="#000000" stroke-width="0" stroke-linecap="round"></path><path d="M131.60903,217.7835l17.41013,3.93132" fill="none" stroke="#000000" stroke-width="1.5" stroke-linecap="round"></path><path d="M141.62151,202.22525l-2.24647,15.72528" fill="none" stroke="#000000" stroke-width="1.5" stroke-linecap="round"></path><path d="M144.21293,201.65471l-16.73014,-6.21856" fill="none" stroke="#000000" stroke-width="1.5" stroke-linecap="round"></path><g stroke-linecap="round"><path d="M106.79297,211.06885l10.90136,6.76728l-4.07772,14.11611l-12.13167,6.37507l-10.72139,-8.10101" fill="none" stroke="#4d6200" stroke-width="4.5"></path><path d="M116.65878,231.548l11.32781,12.66424" fill="none" stroke="#4d6200" stroke-width="4.5"></path><path d="M79.22157,206.58446l10.32578,-2.56462l18.16749,12.76498l0.72571,11.39642l-9.43653,1.55445l-18.55948,-12.93075z" fill="#7d00ff" stroke="#7f00ff" stroke-width="0.5"></path><path d="M83.79978,209.54278l7.23555,-1.79711l12.73046,8.94475l0.50853,7.98576l-6.61244,1.08924l-13.00511,-9.06093z" fill="#be82ff" stroke="#7f00ff" stroke-width="0"></path><g fill="none" stroke="#4d6200"><path d="M164.79798,254.20436l38.73672,12.83217l-1.6789,4.39062l-38.16724,-13.02692z" stroke-width="3"></path><path d="M162.94646,260.88027l-6.92979,-10.03376l2.45052,-3.06429l8.26348,10.21373l32.24814,10.59857" stroke-width="3"></path><path d="M125.70129,244.03962l40.36391,1.78036l-2.24838,4.5854l-38.65547,-2.36462z" stroke-width="3"></path><path d="M163.23256,248.69692l-36.93966,-1.99726l-10.9309,-10.57368" stroke-width="4.5"></path></g></g><g stroke="none" stroke-width="0.5" stroke-linecap="butt"><path d="M68.12198,264.71197c-0.48348,0.41818 -1.01318,0.74837 -1.56958,0.99202l-0.14324,0.11084l-0.09167,-0.01368c-2.37502,0.92497 -5.17537,0.31548 -6.93798,-1.72248c-1.21084,-1.4 -1.68407,-3.18745 -1.45394,-4.88801l-0.03596,-0.08894l0.07667,-0.17062c0.18184,-1.01865 0.61845,-1.99695 1.30227,-2.83119l1.12085,-1.42244l-2.35433,0.75537l-4.66368,-4.15531l-0.10264,-2.82551l-0.11947,-0.5928l-0.3403,-1.31065l-0.27345,-1.05318l-0.38558,-0.92549l-0.09146,-0.60585l-0.26315,-0.55334l-0.36196,-1.79575l0.14716,-3.19106l0.04974,-0.04347l-0.01271,-0.06478l1.83713,-2.61327l0.54201,-0.46877l0.89808,-1.60167l1.65147,-4.23182l0.49299,-5.53959l-1.00586,-6.38071l-0.91168,-5.51153l0.00862,-0.10634l-0.0391,-0.09926l-0.71754,-5.47146l-0.90345,-4.48242l-3.29074,-7.22772l-0.36461,-0.71636l-0.17269,-0.75165l-0.43279,-0.85597l0.14289,-0.4058l-0.25271,-1.09989l1.38067,-2.10341l0.80378,-2.28263l0.79728,-0.15662l0.44589,-0.67927l2.41716,0.11693l2.46891,-0.48487l0.92324,0.64903l0.42971,0.0208l0.62941,0.72375l0.63095,0.44354l0.14231,0.16452l1.66095,1.04705l1.78747,0.96357l2.30687,0.46126l3.9809,-0.18497l7.79609,-1.41833l5.81102,-3.35793l3.69485,-3.42797l2.57429,-4.04738l0.91068,-2.70627l-0.12112,-0.76826l0.08401,-0.94522l-0.09023,-0.94465l0.57508,-3.81124l0.13893,-0.33348l0.00699,-0.36121l0.09032,-0.33371l-0.00784,-0.11609l0.05585,-0.06121l0.07463,-0.27575l1.5576,-2.78895l1.52413,-0.39695l0.99641,-1.09279l1.77201,0.37174l1.75214,-0.45633l1.04771,1.04375l1.54141,0.32336l1.68959,2.711l0.08779,0.27185l0.05872,0.05847l-0.00226,0.11632l0.25031,0.77508l0.05013,0.03909l0.0173,0.16968l0.07039,0.21797l0.09426,1.39717l0.14203,1.39312l-0.03273,0.2267l0.0115,0.17017l-0.04285,0.04698l-0.53229,3.68711l-0.18623,0.4552l0.51246,3.25071l1.45031,4.80154l6.37701,7.93204l10.05542,6.43421l9.90234,2.32345l1.656,-0.23522l4.27933,-0.76232l3.18689,0.21925l0.23827,0.28553l0.27488,-0.02314l1.65495,2.33559l1.83406,2.19772l-0.09273,0.25979l0.21503,0.30347l-0.60399,3.13682l-0.91281,1.96335l-1.39306,3.14777l-2.40448,6.78928l-0.32667,4.90227l-0.01604,0.04974l0.00844,0.05159l-0.71395,8.58846l0.31116,1.06188l0.0658,0.09543l1.08133,0.84365l0.83836,1.07295l1.01052,1.17475l-0.01019,0.10544l0.12816,0.16401l-0.43507,3.01321l-0.28346,2.93472l-0.15038,0.0701l-0.02372,0.16422l-2.72797,1.11852l-2.75939,1.28631l-0.19402,-0.07537l-0.098,0.04019l-1.41641,-0.62839l-0.85652,-0.33267l-0.60221,-0.16991l-3.04807,-0.5818l-6.31422,0.80636l-8.65065,5.19013l-5.52824,11.64138l1.72486,6.93106l0.44711,0.95511l0.61221,3.13522l-0.63446,0.90041l0.12086,0.99813l-1.78781,1.36754l-1.2965,1.83998l-1.00206,-0.0817l-0.87489,0.66922l-3.15676,-0.48898l-0.93691,-0.39466l-0.71708,-0.53795l-0.81011,-0.38385l-8.17255,-6.7103l-6.35358,-5.01117l-6.32039,-4.35397l-5.30763,-1.41654l-3.41472,1.59046l-1.99,2.52552c-0.25801,0.34076 -0.55538,0.65981 -0.89163,0.95067zM71.22494,247.45792l0.74822,-0.1446l0.27289,-0.27588l1.06726,0.0169l1.04798,-0.20254l0.31681,0.22415l0.76198,0.01208l8.51779,2.27332l0.92628,0.51301l0.99163,0.37126l7.36781,5.07553l0.13545,0.15361l0.18673,0.08401l3.46476,2.73271l6.98769,-14.7148l0.15568,-0.18925l-0.00445,-0.20812l0.98927,-0.98923l0.88872,-1.08047l0.20757,-0.01577l0.17326,-0.17326l10.7907,-6.47413l0.00855,-0.02065l0.07411,-0.02893l0.4982,-0.29889l1.21778,-0.37061l1.18584,-0.46267l0.57627,-0.07361l0.07612,-0.02316l0.01952,0.01096l5.29364,-0.67597l0.73441,-8.83468l0.38007,-5.70368l0.26082,-0.80999l0.08107,-0.84707l1.47113,-4.15389l-11.19941,-2.6278l-0.93157,-0.47962l-0.99323,-0.3338l-11.80261,-7.55221l-0.6895,-0.7304l-0.80042,-0.60682l-7.37819,-9.17739l-3.86929,3.58982l-0.61225,0.33686l-0.50218,0.48593l-7.34682,4.24542l-1.02256,0.29292l-0.9691,0.43853l-9.26323,1.68526l-0.4193,-0.0273l-0.40247,0.12072l-4.73343,0.21993l0.40641,2.01647l-0.00999,0.21679l0.07956,0.20193l0.73165,5.57897l0.89858,5.43215l-0.00196,0.02411l0.00943,0.02225l1.12842,7.15806l-0.06756,0.76046l0.11879,0.75414l-0.63905,7.18045l-0.28819,0.83121l-0.11152,0.87266l-2.12964,5.45704l-0.25285,0.35636l-0.1149,0.42158l-1.48958,2.65662l0.37863,1.45831v0.00002h0.00002l0.38329,1.4761l0.0016,0.17496l0.07515,0.15799l0.22205,1.10172l0.01168,0.01041l0.00209,0.05797l0.12613,0.62568l-0.05784,1.25409l0.04557,1.25457l-0.12293,0.58049z" fill="#7d00ff"></path><path d="M73.92801,254.72038c-0.36896,0.31909 -0.77312,0.57105 -1.19766,0.75694l-0.10932,0.08459l-0.06997,-0.01046c-1.81223,0.70582 -3.94911,0.24074 -5.29408,-1.31431c-0.92395,-1.06825 -1.28504,-2.43223 -1.10945,-3.72983l-0.02744,-0.06789l0.05849,-0.13018c0.13876,-0.7773 0.47189,-1.52379 0.9937,-2.16036l0.85524,-1.0854l-1.79646,0.57639l-3.55868,-3.17072l-0.0783,-2.156l-0.09119,-0.45234l-0.25966,-1.0001l-0.20869,-0.80366l-0.29425,-0.70622l-0.06978,-0.46228l-0.20078,-0.42221l-0.2762,-1.37027l0.11229,-2.43492l0.03795,-0.03313l-0.0097,-0.04944l1.40181,-1.99406l0.41356,-0.35769l0.68528,-1.22218l1.26018,-3.22914l0.37619,-4.227l-0.76755,-4.86884l-0.69568,-4.20559l0.00661,-0.08115l-0.02982,-0.07575l-0.54755,-4.17501l-0.68939,-3.4203l-2.511,-5.51517l-0.27824,-0.54666l-0.13178,-0.57357l-0.33023,-0.65317l0.10903,-0.30964l-0.19281,-0.83926l1.05351,-1.60503l0.61329,-1.74177l0.60836,-0.11949l0.34024,-0.51832l1.84443,0.08928l1.88392,-0.36999l0.70449,0.49527l0.32789,0.01586l0.48027,0.55226l0.48141,0.33846l0.10859,0.12557l1.26741,0.79893l1.36397,0.73527l1.76024,0.35196l3.03766,-0.14114l5.94885,-1.08227l4.43412,-2.56229l2.81935,-2.61574l1.96432,-3.08836l0.6949,-2.06503l-0.0924,-0.58622l0.0641,-0.72128l-0.06886,-0.72084l0.4388,-2.90819l0.106,-0.25448l0.00535,-0.2756l0.06894,-0.25463l-0.00593,-0.08857l0.04259,-0.04673l0.05695,-0.21042l1.18853,-2.1281l1.16296,-0.30288l0.76032,-0.83386l1.35213,0.28367l1.33698,-0.34823l0.79942,0.79639l1.17617,0.24674l1.28929,2.06864l0.067,0.20741l0.04479,0.04462l-0.0017,0.08876l0.191,0.59143l0.03823,0.02982l0.01321,0.12948l0.0537,0.1663l0.07193,1.06613l0.10839,1.06306l-0.025,0.17301l0.00876,0.12989l-0.03268,0.03582l-0.40617,2.81346l-0.14213,0.34734l0.391,2.48047l1.10669,3.66385l4.86601,6.05258l7.67283,4.90966l7.55603,1.77293l1.26364,-0.17948l3.26535,-0.58169l2.43173,0.16729l0.18183,0.21791l0.20972,-0.01766l1.26285,1.78223l1.39951,1.67699l-0.07076,0.19821l0.16406,0.23154l-0.46086,2.39357l-0.69649,1.49814l-1.06297,2.40194l-1.83479,5.18062l-0.24928,3.74072l-0.01224,0.03799l0.0064,0.03938l-0.54477,6.55348l0.23742,0.81025l0.0502,0.07277l0.82511,0.64376l0.6397,0.81869l0.77107,0.89636l-0.00779,0.08047l0.09777,0.12515l-0.33196,2.29924l-0.21632,2.23936l-0.11475,0.05349l-0.01808,0.12529l-2.08163,0.85346l-2.10556,0.98152l-0.14805,-0.05749l-0.07482,0.03064l-1.08081,-0.47949l-0.65357,-0.25385l-0.4595,-0.12968l-2.32586,-0.44396l-4.81811,0.61529l-6.6009,3.96035l-4.21833,8.88301l1.31618,5.28877l0.34116,0.7288l0.46713,2.39234l-0.48415,0.68706l0.09222,0.76161l-1.36416,1.04352l-0.98933,1.40396l-0.76467,-0.06231l-0.66759,0.51067l-2.40877,-0.37312l-0.71492,-0.30115l-0.54718,-0.41052l-0.61814,-0.29291l-6.23606,-5.12034l-4.84811,-3.82379l-4.82279,-3.32232l-4.05004,-1.08091l-2.60563,1.21359l-1.51848,1.92711c-0.1969,0.26 -0.4238,0.50349 -0.68035,0.7254zM76.29573,241.55458l0.57095,-0.11032l0.20825,-0.21055l0.81438,0.01289l0.79964,-0.15453l0.24174,0.17104l0.58145,0.00923l6.49954,1.73467l0.70681,0.39145l0.75669,0.28329l5.62203,3.8729l0.10335,0.11721l0.1425,0.0641l2.6438,2.0852l5.332,-11.22816l0.11878,-0.14442l-0.0034,-0.1588l0.75485,-0.75482l0.67814,-0.82447l0.15838,-0.01202l0.13221,-0.13221l8.23389,-4.94011l0.00652,-0.0158l0.05657,-0.02204l0.38015,-0.22808l0.92924,-0.28282l0.90487,-0.35303l0.43974,-0.05613l0.05807,-0.01766l0.01489,0.00834l4.0393,-0.51583l0.56039,-6.74131l0.29003,-4.35221l0.19902,-0.61804l0.06184,-0.64638l1.12255,-3.16965l-8.54578,-2.00515l-0.71085,-0.36597l-0.75789,-0.25473l-9.00604,-5.76275l-0.52613,-0.55735l-0.61075,-0.46303l-5.62999,-7.00283l-2.95249,2.73924l-0.46722,0.25706l-0.38322,0.37079l-5.60602,3.23948l-0.78029,0.22352l-0.73949,0.33463l-7.06832,1.28596l-0.31993,-0.02086l-0.30711,0.09211l-3.61185,0.16782l0.31013,1.53865l-0.00763,0.16543l0.06071,0.15406l0.55827,4.25703l0.68565,4.14504l-0.0015,0.01842l0.0072,0.017l0.86105,5.462l-0.05159,0.5803l0.09064,0.57546l-0.48764,5.47909l-0.21993,0.63426l-0.08509,0.66588l-1.625,4.16403l-0.19292,0.27193l-0.08765,0.32172l-1.1366,2.02714l0.28893,1.11278v0.00002h0.00002l0.29245,1.12635l0.00123,0.13351l0.05734,0.12054l0.16947,0.84065l0.00889,0.00796l0.00162,0.04426l0.09623,0.47742l-0.04411,0.95692l0.0348,0.95733l-0.09381,0.44294z" fill="#be82ff"></path></g></g><text transform="translate(26.94227,45.90413) scale(1.13018,1.13018)" font-size="40" xml:space="preserve" fill="#5500ff" fill-rule="nonzero" stroke="none" stroke-width="1" stroke-linecap="butt" stroke-linejoin="miter" stroke-miterlimit="10" stroke-dasharray="" stroke-dashoffset="0" font-family="Sans Serif" font-weight="normal" text-anchor="start" style="mix-blend-mode: normal"><tspan x="0" dy="0">A MUCH NEEDED </tspan><tspan x="0" dy="46.15px">WIZARD </tspan><tspan x="0" dy="46.15px"> REWORK</tspan></text></g></g></svg>