<svg version="1.1" xmlns="http://www.w3.org/2000/svg" xmlns:xlink="http://www.w3.org/1999/xlink" width="20.97966" height="252.5" viewBox="0,0,20.97966,252.5"><g transform="translate(-229.60367,80.91666)"><g data-paper-data="{&quot;isPaintingLayer&quot;:true}" fill-rule="nonzero" stroke-linejoin="miter" stroke-miterlimit="10" stroke-dasharray="" stroke-dashoffset="0" style="mix-blend-mode: normal"><path d="" data-paper-data="{&quot;index&quot;:null}" fill="none" stroke="#000000" stroke-width="1.5" stroke-linecap="round"></path><path d="" data-paper-data="{&quot;index&quot;:null}" fill="none" stroke="#000000" stroke-width="1.5" stroke-linecap="round"></path><g><path d="M231.16667,45.33334c0,-69.31174 4.17868,-125.5 9.33333,-125.5c5.15466,0 9.33333,56.18826 9.33333,125.5c0,69.31174 -4.17868,125.5 -9.33333,125.5c-5.15466,0 -9.33333,-56.18826 -9.33333,-125.5z" fill="#205fa7" stroke="#000000" stroke-width="1.5" stroke-linecap="butt"></path><path d="M247.07045,-72.2551l-7.35094,65.89595l-6.61585,-64.24852" fill="none" stroke="#e2ff00" stroke-width="7" stroke-linecap="round"></path><path d="M234.22021,45.3551v-66.79627l4.99904,36.4729l5.48804,-36.4729v66.79627l-5.61496,43.3429z" fill="#edffff" stroke="#e2ff00" stroke-width="0" stroke-linecap="butt"></path><path d="M238.36543,26.49533c0,0 -0.5418,35.22641 -0.9998,35.22641c-0.11505,0 -0.33345,-1.78102 -0.4374,-5.96691c-0.30986,-12.47749 -0.26744,-44.7469 -0.26744,-44.7469z" fill="#ff0000" stroke="none" stroke-width="0" stroke-linecap="butt"></path><path d="M241.93211,10.8443c0,0 0.04242,32.2694 -0.26744,44.7469c-0.10395,4.18589 -0.32235,5.96691 -0.4374,5.96691c-0.458,0 -0.9998,-35.22641 -0.9998,-35.22641z" data-paper-data="{&quot;index&quot;:null}" fill="#ff0000" stroke="none" stroke-width="0" stroke-linecap="butt"></path></g><g stroke-linecap="butt"><g fill="#d3d3d3" stroke="#000000" stroke-width="1"><path d="M240.81364,144.40796l-1.39157,-53.20908l7.88206,-37.27122l1.39157,53.20908z"></path><path d="M238.18791,122.79758l-0.59962,-22.92751l2.25202,-10.64891l0.59962,22.92751z"></path><path d="M237.95991,156.92993l-0.53174,-20.33194l3.24934,-15.36484l0.53174,20.33194z"></path></g><path d="M244.48122,127.06543l-1.40288,-53.64167l1.28687,-6.08509l1.40288,53.64167z" fill="#a0a0a0" stroke="none" stroke-width="0"></path><path d="M246.175,118.57009l-1.35763,-51.91131l1.19035,-5.62868l1.35763,51.91131z" fill="#a0a0a0" stroke="none" stroke-width="0"></path><path d="M242.6248,134.87149l-1.34631,-51.4787l1.19035,-5.62868l1.34631,51.4787z" fill="#a0a0a0" stroke="none" stroke-width="0"></path></g></g></g></svg>