<svg version="1.1" xmlns="http://www.w3.org/2000/svg" xmlns:xlink="http://www.w3.org/1999/xlink" width="161.39132" height="91.46774" viewBox="0,0,161.39132,91.46774"><g transform="translate(-140.29636,-140.3707)"><g data-paper-data="{&quot;isPaintingLayer&quot;:true}" fill-rule="nonzero" stroke-linejoin="miter" stroke-miterlimit="10" stroke-dasharray="" stroke-dashoffset="0" style="mix-blend-mode: normal"><path d="" data-paper-data="{&quot;index&quot;:null}" fill="none" stroke="#000000" stroke-width="1.5" stroke-linecap="round"></path><path d="" data-paper-data="{&quot;index&quot;:null}" fill="none" stroke="#000000" stroke-width="1.5" stroke-linecap="round"></path><path d="M301.68768,195.47554" data-paper-data="{&quot;index&quot;:null}" fill="none" stroke="#d8d8d8" stroke-width="4" stroke-linecap="round"></path><path d="M199.18372,180.6207c0,-21.81525 17.68475,-39.5 39.5,-39.5c21.81525,0 39.5,17.68475 39.5,39.5c0,21.81525 -17.68475,39.5 -39.5,39.5c-21.81525,0 -39.5,-17.68475 -39.5,-39.5z" data-paper-data="{&quot;index&quot;:null}" fill="#d8d8d8" stroke="#000000" stroke-width="1.5" stroke-linecap="butt"></path><path d="M243.28496,174.20032l11.07275,-4.59202" data-paper-data="{&quot;index&quot;:null}" fill="none" stroke="#000000" stroke-width="1.5" stroke-linecap="round"></path><path d="M248.94146,178.95914l0.25511,-5.86758" data-paper-data="{&quot;index&quot;:null}" fill="none" stroke="#000000" stroke-width="1.5" stroke-linecap="round"></path><path d="M239.9685,174.57761l-14.45771,-4.12252" data-paper-data="{&quot;index&quot;:null}" fill="none" stroke="#000000" stroke-width="1.5" stroke-linecap="round"></path><path d="M234.44135,178.41109l-0.21988,-5.35892" data-paper-data="{&quot;index&quot;:null}" fill="none" stroke="#000000" stroke-width="1.5" stroke-linecap="round"></path><path d="M252.45108,192.12344l-18.63798,-0.59168" fill="none" stroke="#000000" stroke-width="1.5" stroke-linecap="round"></path><g data-paper-data="{&quot;index&quot;:null}" stroke="#000000" stroke-linecap="butt"><path d="M169.23586,211.35111l-16.97431,13.33183c0,0 -4.0294,0.34163 -4.65418,-0.5551c-0.62591,-0.89834 0.9021,-4.83008 0.9021,-4.83008l16.97431,-13.33183z" fill="#af5400" stroke-width="1.5"></path><path d="M177.38609,215.44855c0,0 -3.31331,4.76859 -6.41455,4.5866c-3.63305,-0.2132 -6.76315,-4.80828 -8.925,-7.74852c-4.00734,-5.45001 -5.38018,-11.53385 -3.0664,-13.58864c1.07511,-0.95473 5.29959,-2.75667 5.29959,-2.75667c0,0 4.00054,5.98661 6.14591,8.90431c4.00733,5.45001 6.96045,10.60289 6.96045,10.60289z" fill="#989898" stroke-width="1"></path><path d="M177.79807,215.64445c-2.31383,2.05477 -7.43813,-0.69761 -11.4455,-6.14765c-4.00731,-5.45003 -5.38022,-11.53384 -3.06641,-13.58863c2.31382,-2.05478 7.43816,0.69762 11.44549,6.14762c4.00731,5.45003 5.38021,11.53385 3.06641,13.58863z" fill="#989898" stroke-width="1"></path><path d="M167.93761,203.74464l79.43308,-59.21613l-7.59037,12.93469l-68.66247,51.18685c0,0 -2.33513,-0.34599 -2.85877,-1.1538c-0.53605,-0.82689 -0.32143,-3.75164 -0.32143,-3.75164z" fill="#e6e6e6" stroke-width="0.5"></path></g><path d="M142.58502,225.39703c-3.18685,-4.64957 -2.00108,-11.00228 2.64851,-14.18913c4.64957,-3.18685 11.00228,-2.00108 14.18913,2.64851c3.18685,4.64957 2.00108,11.00228 -2.64851,14.18913c-4.64957,3.18685 -11.00228,2.00108 -14.18913,-2.64851z" fill="#d8d8d8" stroke="#000000" stroke-width="1" stroke-linecap="butt"></path><path d="M144.06603,227.60534c-3.57533,-4.35794 -2.9409,-10.78913 1.41703,-14.36446c4.35794,-3.57533 10.78913,-2.9409 14.36446,1.41703c3.57533,4.35794 2.94091,10.78914 -1.41702,14.36447c-4.35794,3.57533 -10.78913,2.94089 -14.36447,-1.41703z" data-paper-data="{&quot;index&quot;:null}" fill="#d8d8d8" stroke="#000000" stroke-width="1" stroke-linecap="butt"></path></g></g></svg>