<svg version="1.1" xmlns="http://www.w3.org/2000/svg" xmlns:xlink="http://www.w3.org/1999/xlink" width="327.82377" height="161.02765" viewBox="0,0,327.82377,161.02765"><g transform="translate(-38.23106,-88.7347)"><g data-paper-data="{&quot;isPaintingLayer&quot;:true}" fill-rule="nonzero" stroke-linejoin="miter" stroke-miterlimit="10" stroke-dasharray="" stroke-dashoffset="0" style="mix-blend-mode: normal"><path d="M190.16604,176.99387l38.96932,-15.34607" fill="none" stroke="#000000" stroke-width="2.5" stroke-linecap="round"></path><path d="M233.07056,163.50238l-8.19417,-17.89093" fill="none" stroke="#000000" stroke-width="2.5" stroke-linecap="round"></path><path d="M237.08443,169.14066l-35.45192,25.74942" fill="none" stroke="#000000" stroke-width="2.5" stroke-linecap="round"></path><path d="M250.2575,182.3625l-31.09875,-29.92493" fill="none" stroke="#000000" stroke-width="2.5" stroke-linecap="round"></path><path d="M178.64484,187.82311l-20.08957,-38.93945" fill="none" stroke="#000000" stroke-width="2.5" stroke-linecap="round"></path><path d="M168.58335,219.26513l23.20796,-3.21814l5.19723,-4.34659l14.30975,-4.21299l17.674,-11.60701l16.14271,-1.16556l4.6568,-6.46266l12.59521,2.67697" fill="none" stroke="#000000" stroke-width="2.5" stroke-linecap="round"></path><path d="M288.33331,144.64058l-9.16943,19.83006l-22.50344,24.27631" fill="none" stroke="#000000" stroke-width="2.5" stroke-linecap="round"></path><path d="M263.58418,182.22915l26.04372,-1.75034l21.78581,8.62232l-15.67558,6.26188" fill="none" stroke="#000000" stroke-width="2.5" stroke-linecap="round"></path><path d="M260.1068,184.56484l-32.22062,-4.05479l14.01604,-10.38326" fill="none" stroke="#000000" stroke-width="2.5" stroke-linecap="round"></path><path d="M264.58698,180.64954l28.6466,-16.49801" fill="none" stroke="#000000" stroke-width="2.5" stroke-linecap="round"></path><path d="M290.43026,166.15287l21.7805,3.74325" fill="none" stroke="#000000" stroke-width="2.5" stroke-linecap="round"></path><path d="M259.09003,146.92179l25.29693,4.31344" fill="none" stroke="#000000" stroke-width="2.5" stroke-linecap="round"></path><path d="M273.79087,205.45465l-25.91675,-13.46103" fill="none" stroke="#000000" stroke-width="2.5" stroke-linecap="round"></path><path d="M299.80026,125.80938l-27.52803,22.41625" fill="none" stroke="#000000" stroke-width="2.5" stroke-linecap="round"></path><path d="M342.51462,146.499l-59.00583,8.63839" fill="none" stroke="#000000" stroke-width="2.5" stroke-linecap="round"></path><path d="M341.5924,167.29438l-20.92501,13.09485l-16.44173,-9.88377" fill="none" stroke="#000000" stroke-width="2.5" stroke-linecap="round"></path><path d="M296.77877,184.50501l29.33049,-47.42344" fill="none" stroke="#000000" stroke-width="2.5" stroke-linecap="round"></path><path d="M285.06779,181.27552l47.34579,-75.10305" fill="none" stroke="#000000" stroke-width="2.5" stroke-linecap="round"></path><path d="M336.21253,135.62215l7.58123,10.57503" fill="none" stroke="#000000" stroke-width="2.5" stroke-linecap="round"></path><path d="M239.62634,220.64555c-21.81525,0 -39.5,-17.68475 -39.5,-39.5c0,-21.81525 17.68475,-39.5 39.5,-39.5c21.81525,0 39.5,17.68475 39.5,39.5c0,21.81525 -17.68475,39.5 -39.5,39.5z" fill="#d8d8d8" stroke="#000000" stroke-width="1.5" stroke-linecap="butt"></path><path d="M279.23454,193.8935l26.74262,33.87426" fill="none" stroke="#000000" stroke-width="2.5" stroke-linecap="round"></path><path d="" data-paper-data="{&quot;index&quot;:null}" fill="none" stroke="#000000" stroke-width="1.5" stroke-linecap="round"></path><path d="" data-paper-data="{&quot;index&quot;:null}" fill="none" stroke="#000000" stroke-width="1.5" stroke-linecap="round"></path><path d="" data-paper-data="{&quot;index&quot;:null}" fill="none" stroke="#000000" stroke-width="1.5" stroke-linecap="round"></path><path d="M289.92393,195.47554" data-paper-data="{&quot;index&quot;:null}" fill="none" stroke="#d8d8d8" stroke-width="4" stroke-linecap="round"></path><path d="M214.02998,192.37467c0,0 4.29771,-17.83605 17.34061,-17.83605c13.0429,0 17.67091,18.82695 17.67091,18.82695z" data-paper-data="{&quot;index&quot;:null}" fill="#000000" stroke="#000000" stroke-width="0" stroke-linecap="butt"></path><path d="M233.97993,157.38517l-17.15344,-6.06646" fill="none" stroke="#000000" stroke-width="1.5" stroke-linecap="round"></path><path d="M231.88805,167.84459l-0.20919,-7.1124" fill="none" stroke="#000000" stroke-width="1.5" stroke-linecap="round"></path><path d="M249.87825,156.13005l-10.87779,5.22971" fill="none" stroke="#000000" stroke-width="1.5" stroke-linecap="round"></path><path d="M239.41883,166.79865l0.20919,-6.69403" fill="none" stroke="#000000" stroke-width="1.5" stroke-linecap="round"></path><path d="M263.68467,161.15057c0,0 1.50418,6.67173 0.29966,8.08882c-1.16496,1.37054 -7.41207,0.27872 -7.41207,0.27872" fill="none" stroke="#ff0000" stroke-width="3" stroke-linecap="round"></path><path d="M279.37379,171.60998c0,0 -7.08173,0.40448 -8.61377,-1.03376c-1.8311,-1.71899 -1.63646,-8.5889 -1.63646,-8.5889" fill="none" stroke="#ff0000" stroke-width="3" stroke-linecap="round"></path><path d="M258.45497,173.91105c0,0 5.33291,0.0324 6.42032,1.08472c1.07405,1.0394 0.06452,5.19093 0.06452,5.19093" fill="none" stroke="#ff0000" stroke-width="3" stroke-linecap="round"></path><path d="M270.58788,183.11534c0,0 -1.72153,-6.01844 -0.52297,-7.217c1.30297,-1.30297 8.05375,-0.31378 8.05375,-0.31378" fill="none" stroke="#ff0000" stroke-width="3" stroke-linecap="round"></path><path d="M171.22344,207.59037c0,-7.16295 5.80672,-12.96967 12.96967,-12.96967c7.16295,0 12.96967,5.80672 12.96967,12.96967c0,7.16295 -5.80672,12.96967 -12.96967,12.96967c-7.16295,0 -12.96967,-5.80672 -12.96967,-12.96967z" fill="#d8d8d8" stroke="#000000" stroke-width="1.5" stroke-linecap="butt"></path><path d="M238.16369,230.30007l-21.54639,-9.20429l-6.69403,1.04594l-14.43399,-3.76539l-21.12801,0.83676l-14.43399,-7.32159l-7.3216,3.13782l-9.41347,-8.7859" fill="none" stroke="#000000" stroke-width="2.5" stroke-linecap="round"></path><path d="M175.40721,218.79472l-16.1075,-13.59724l3.67703,-8.86117" fill="none" stroke="#000000" stroke-width="2.5" stroke-linecap="round"></path><path d="M206.69709,230.434l-9.11593,-1.80743l-8.15834,-9.20428" fill="none" stroke="#000000" stroke-width="2.5" stroke-linecap="round"></path><path d="M97.08243,232.52589l18.07855,-12.26686l31.79662,-9.20428" fill="none" stroke="#000000" stroke-width="2.5" stroke-linecap="round"></path><path d="M228.33184,225.27956l40.16415,-4.18377" fill="none" stroke="#000000" stroke-width="2.5" stroke-linecap="round"></path><path d="M137.66496,213.07138l-23.2199,-11.92373l-14.2248,-18.61776l16.66047,2.71362" fill="none" stroke="#000000" stroke-width="2.5" stroke-linecap="round"></path><path d="M141.84873,212.86219l25.52097,20.08208l-17.36263,1.6735" fill="none" stroke="#000000" stroke-width="2.5" stroke-linecap="round"></path><path d="M202.72252,203.44872l5.2297,10.04103l-5.64808,5.4389" fill="none" stroke="#000000" stroke-width="2.5" stroke-linecap="round"></path><path d="M135.99146,213.90813l-33.05175,-0.62756" fill="none" stroke="#000000" stroke-width="2.5" stroke-linecap="round"></path><path d="M251.2542,223.73998l39.95496,16.31669" fill="none" stroke="#000000" stroke-width="2.5" stroke-linecap="round"></path><path d="M239.53965,245.70475l-15.47993,-20.91883" fill="none" stroke="#000000" stroke-width="2.5" stroke-linecap="round"></path><path d="M106.37351,213.01047l-16.73506,-14.43399" fill="none" stroke="#000000" stroke-width="2.5" stroke-linecap="round"></path><path d="M123.31776,245.64384l-19.45451,-16.73506" fill="none" stroke="#000000" stroke-width="2.5" stroke-linecap="round"></path><path d="M140.88958,187.90787l15.27074,24.89341" fill="none" stroke="#000000" stroke-width="2.5" stroke-linecap="round"></path><path d="M309.07696,206.52563l-30.54149,28.6588" fill="none" stroke="#000000" stroke-width="2.5" stroke-linecap="round"></path><path d="M77.5499,242.75259l35.14363,-5.02052" fill="none" stroke="#000000" stroke-width="2.5" stroke-linecap="round"></path><path d="M51.61055,203.00681l55.01652,23.01071" fill="none" stroke="#000000" stroke-width="2.5" stroke-linecap="round"></path><path d="M63.11934,185.66189l24.68078,-0.43608l8.9951,16.94425" fill="none" stroke="#000000" stroke-width="2.5" stroke-linecap="round"></path><path d="M110.39246,194.01171l-49.57762,25.52097" fill="none" stroke="#000000" stroke-width="2.5" stroke-linecap="round"></path><path d="M211.06281,222.58217l3.5562,9.83185" fill="none" stroke="#000000" stroke-width="2.5" stroke-linecap="round"></path><path d="M213.57307,229.06701l46.4398,12.5513" fill="none" stroke="#000000" stroke-width="2.5" stroke-linecap="round"></path><path d="M268.3804,231.15889l23.42909,-37.02633" fill="none" stroke="#000000" stroke-width="2.5" stroke-linecap="round"></path><path d="M287.83492,201.03578l59.61866,23.42909" fill="none" stroke="#000000" stroke-width="2.5" stroke-linecap="round"></path><path d="M301.01378,214.21464l7.53078,12.34211" fill="none" stroke="#000000" stroke-width="2.5" stroke-linecap="round"></path><path d="M161.32374,199.35311l23.2199,-9.62266" fill="none" stroke="#000000" stroke-width="2.5" stroke-linecap="round"></path><path d="M161.53293,183.4548l-15.89831,10.45941" fill="none" stroke="#000000" stroke-width="2.5" stroke-linecap="round"></path><path d="M157.13998,225.29245v20.70964" fill="none" stroke="#000000" stroke-width="2.5" stroke-linecap="round"></path><path d="M194.37549,225.71083l-1.88269,13.59724" fill="none" stroke="#000000" stroke-width="2.5" stroke-linecap="round"></path><path d="M226.79968,247.88479l-3.5562,-13.59724" fill="none" stroke="#000000" stroke-width="2.5" stroke-linecap="round"></path><path d="M274.1935,234.91511l14.2248,13.59724" fill="none" stroke="#000000" stroke-width="2.5" stroke-linecap="round"></path><path d="M298.70134,215.785l33.8885,19.6637l3.34701,8.78591" fill="none" stroke="#000000" stroke-width="2.5" stroke-linecap="round"></path><path d="M344.30438,213.48393l-12.96967,3.76539" fill="none" stroke="#000000" stroke-width="2.5" stroke-linecap="round"></path><path d="M364.80483,236.28545l-31.16905,2.92864" fill="none" stroke="#000000" stroke-width="2.5" stroke-linecap="round"></path><path d="M118.76342,202.81533l-79.28236,39.95496" fill="none" stroke="#000000" stroke-width="2.5" stroke-linecap="round"></path><path d="M51.40479,215.57581l-1.04594,-12.96967" fill="none" stroke="#000000" stroke-width="2.5" stroke-linecap="round"></path><path d="M158.76003,151.18953" data-paper-data="{&quot;index&quot;:null}" fill="none" stroke="#d8d8d8" stroke-width="4" stroke-linecap="round"></path><path d="M163.58226,198.84426l34.28535,-26.2135" fill="none" stroke="#000000" stroke-width="2.5" stroke-linecap="round"></path><path d="M177.98022,140.25668l9.27383,40.84245" fill="none" stroke="#000000" stroke-width="2.5" stroke-linecap="round"></path><path d="M162.49986,155.80406l50.36704,-39.57863" fill="none" stroke="#000000" stroke-width="2.5" stroke-linecap="round"></path><path d="M180.53458,151.10154l14.456,-0.2535" fill="none" stroke="#000000" stroke-width="2.5" stroke-linecap="round"></path><path d="M184.82548,184.70846l18.92468,-5.39317" fill="none" stroke="#000000" stroke-width="2.5" stroke-linecap="round"></path><path d="M180.71956,153.89066l34.1041,-19.28735l9.27206,1.5568" fill="none" stroke="#000000" stroke-width="2.5" stroke-linecap="round"></path><path d="M201.80138,113.38771l-3.31211,13.09276" fill="none" stroke="#000000" stroke-width="2.5" stroke-linecap="round"></path><path d="M231.84038,107.23659l-13.23948,28.36904" fill="none" stroke="#000000" stroke-width="2.5" stroke-linecap="round"></path><path d="M203.88084,194.33882" data-paper-data="{&quot;index&quot;:null}" fill="none" stroke="#d8d8d8" stroke-width="4" stroke-linecap="round"></path><path d="M207.87647,189.94392l-46.74301,-43.79952" fill="none" stroke="#000000" stroke-width="2.5" stroke-linecap="round"></path><path d="M200.49963,172.82822l-2.4376,-14.25126" fill="none" stroke="#000000" stroke-width="2.5" stroke-linecap="round"></path><path d="M203.22866,172.2234l-24.2249,-30.7936l0.13613,-9.40086" fill="none" stroke="#000000" stroke-width="2.5" stroke-linecap="round"></path><path d="M160.00248,157.51187l13.44315,1.2932" fill="none" stroke="#000000" stroke-width="2.5" stroke-linecap="round"></path><path d="M149.37762,128.74922l30.04549,8.79519" fill="none" stroke="#000000" stroke-width="2.5" stroke-linecap="round"></path><path d="M86.6314,175.25399" data-paper-data="{&quot;index&quot;:null}" fill="none" stroke="#d8d8d8" stroke-width="4" stroke-linecap="round"></path><path d="M130.26578,195.00919l-5.45691,-42.81186" fill="none" stroke="#000000" stroke-width="2.5" stroke-linecap="round"></path><path d="M86.82604,153.14279l39.97788,12.48513" fill="none" stroke="#000000" stroke-width="2.5" stroke-linecap="round"></path><path d="M128.29669,176.44929l-43.76228,-2.1759" fill="none" stroke="#000000" stroke-width="2.5" stroke-linecap="round"></path><path d="M92.49982,174.33645l-8.9415,-63.42994" fill="none" stroke="#000000" stroke-width="2.5" stroke-linecap="round"></path><path d="M97.48747,156.3785l7.03857,-12.62929" fill="none" stroke="#000000" stroke-width="2.5" stroke-linecap="round"></path><path d="M128.7061,169.54033l4.83717,-19.07437" fill="none" stroke="#000000" stroke-width="2.5" stroke-linecap="round"></path><path d="M99.99246,157.61883l0.44205,-39.17775l6.00152,-7.23716" fill="none" stroke="#000000" stroke-width="2.5" stroke-linecap="round"></path><path d="M75.54859,119.05162l9.66016,9.43779" fill="none" stroke="#000000" stroke-width="2.5" stroke-linecap="round"></path><path d="M85.31034,89.9847l17.88741,25.69294" fill="none" stroke="#000000" stroke-width="2.5" stroke-linecap="round"></path></g></g></svg>