<svg version="1.1" xmlns="http://www.w3.org/2000/svg" xmlns:xlink="http://www.w3.org/1999/xlink" width="200.46424" height="82.45172" viewBox="0,0,200.46424,82.45172"><g transform="translate(-195.98632,-139.77051)"><g data-paper-data="{&quot;isPaintingLayer&quot;:true}" fill-rule="nonzero" stroke-linejoin="miter" stroke-miterlimit="10" stroke-dasharray="" stroke-dashoffset="0" style="mix-blend-mode: normal"><path d="" data-paper-data="{&quot;index&quot;:null}" fill="none" stroke="#000000" stroke-width="1.5" stroke-linecap="round"></path><path d="M212.68343,180c0,-15.08652 12.23004,-27.31657 27.31657,-27.31657c15.08652,0 27.31657,12.23004 27.31657,27.31657c0,15.08652 -12.23004,27.31657 -27.31657,27.31657c-15.08652,0 -27.31657,-12.23004 -27.31657,-27.31657z" fill="#e7ff00" stroke="none" stroke-width="0" stroke-linecap="butt"></path><path d="M231.95865,159.18429l6.35684,-18.7099l7.64969,18.18432z" fill="#e7ff00" stroke="#e7ff00" stroke-width="0.5" stroke-linecap="round"></path><path d="M242.19572,158.63654l14.58814,-13.32876l-2.06283,19.61968z" fill="#e7ff00" stroke="#e7ff00" stroke-width="0.5" stroke-linecap="round"></path><path d="M251.51325,161.8715l18.89764,-5.77486l-10.28623,16.83392z" fill="#e7ff00" stroke="#e7ff00" stroke-width="0.5" stroke-linecap="round"></path><path d="M263.6536,169.16349l18.035,8.07519l-18.81887,5.91926z" fill="#e7ff00" stroke="#e7ff00" stroke-width="0.5" stroke-linecap="round"></path><path d="M263.90752,181.91746l14.18006,13.76211l-19.70812,-0.88191z" fill="#e7ff00" stroke="#e7ff00" stroke-width="0.5" stroke-linecap="round"></path><path d="M260.82442,193.18348l4.95506,19.12896l-16.37497,-11.00218z" fill="#e7ff00" stroke="#e7ff00" stroke-width="0.5" stroke-linecap="round"></path><path d="M247.72513,202.548l-5.52523,18.97213l-8.44448,-17.82914z" fill="#e7ff00" stroke="#e7ff00" stroke-width="0.5" stroke-linecap="round"></path><path d="M237.34517,203.61496l-14.2358,13.70444l1.55079,-19.66679z" fill="#e7ff00" stroke="#e7ff00" stroke-width="0.5" stroke-linecap="round"></path><path d="M227.49571,200.93796l-19.03251,5.31349l10.69265,-16.57874z" fill="#e7ff00" stroke="#e7ff00" stroke-width="0.5" stroke-linecap="round"></path><path d="M215.75825,188.89327l-19.07098,-5.17375l17.67007,-8.77245z" fill="#e7ff00" stroke="#e7ff00" stroke-width="0.5" stroke-linecap="round"></path><path d="M217.19695,175.39048l-15.13199,-12.70797l19.72055,-0.53606z" fill="#e7ff00" stroke="#e7ff00" stroke-width="0.5" stroke-linecap="round"></path><path d="M219.95816,162.92209l-0.73087,-19.74679l13.62975,14.26244z" fill="#e7ff00" stroke="#e7ff00" stroke-width="0.5" stroke-linecap="round"></path><path d="M225.83113,183.34174l-15.13199,-12.70797l19.72055,-0.53606z" fill="#e7ff00" stroke="#e7ff00" stroke-width="0.5" stroke-linecap="round"></path><path d="M244.30616,173.95425l92.89249,-3.85202l-93.83862,11.12211" data-paper-data="{&quot;index&quot;:null}" fill="none" stroke="#e7ff00" stroke-width="3.5" stroke-linecap="round"></path><path d="M281.6199,159.99082l30.98314,3.17778l29.68453,21.70961l-25.39837,-18.59067" data-paper-data="{&quot;index&quot;:null}" fill="none" stroke="#e7ff00" stroke-width="5.5" stroke-linecap="round"></path><path d="M261.44199,191.90459l57.80943,-6.81009l-50.51481,7.86879" data-paper-data="{&quot;index&quot;:null}" fill="none" stroke="#e7ff00" stroke-width="3.5" stroke-linecap="round"></path><path d="M387.32994,163.7451l-49.01997,-14.51575l56.39059,14.4364" data-paper-data="{&quot;index&quot;:null}" fill="none" stroke="#e7ff00" stroke-width="3.5" stroke-linecap="round"></path><path d="M355.31304,160.53365l-49.8015,11.55311l56.1739,-15.25784" data-paper-data="{&quot;index&quot;:null}" fill="none" stroke="#e7ff00" stroke-width="3.5" stroke-linecap="round"></path><path d="M336.08384,184.89171l47.46254,13.99974" fill="none" stroke="#e7ff00" stroke-width="3.5" stroke-linecap="round"></path></g></g></svg>