<svg version="1.1" xmlns="http://www.w3.org/2000/svg" xmlns:xlink="http://www.w3.org/1999/xlink" width="141.12971" height="121.28432" viewBox="0,0,141.12971,121.28432"><g transform="translate(-160.55797,-105.40103)"><g data-paper-data="{&quot;isPaintingLayer&quot;:true}" fill-rule="nonzero" stroke-linejoin="miter" stroke-miterlimit="10" stroke-dasharray="" stroke-dashoffset="0" style="mix-blend-mode: normal"><path d="" data-paper-data="{&quot;index&quot;:null}" fill="none" stroke="#000000" stroke-width="1.5" stroke-linecap="round"></path><path d="" data-paper-data="{&quot;index&quot;:null}" fill="none" stroke="#000000" stroke-width="1.5" stroke-linecap="round"></path><path d="M301.68768,195.47554" data-paper-data="{&quot;index&quot;:null}" fill="none" stroke="#d8d8d8" stroke-width="4" stroke-linecap="round"></path><path d="M199.18372,180.6207c0,-21.81525 17.68475,-39.5 39.5,-39.5c21.81525,0 39.5,17.68475 39.5,39.5c0,21.81525 -17.68475,39.5 -39.5,39.5c-21.81525,0 -39.5,-17.68475 -39.5,-39.5z" data-paper-data="{&quot;index&quot;:null}" fill="#d8d8d8" stroke="#000000" stroke-width="1.5" stroke-linecap="butt"></path><path d="M254.35771,169.6083l-11.07275,4.59202" data-paper-data="{&quot;index&quot;:null}" fill="none" stroke="#000000" stroke-width="1.5" stroke-linecap="round"></path><path d="M249.19657,173.09156l-0.25511,5.86758" data-paper-data="{&quot;index&quot;:null}" fill="none" stroke="#000000" stroke-width="1.5" stroke-linecap="round"></path><path d="M239.9685,174.57761l-14.45771,-4.12252" data-paper-data="{&quot;index&quot;:null}" fill="none" stroke="#000000" stroke-width="1.5" stroke-linecap="round"></path><path d="M234.22147,173.05217l0.21988,5.35892" data-paper-data="{&quot;index&quot;:null}" fill="none" stroke="#000000" stroke-width="1.5" stroke-linecap="round"></path><path d="M252.45108,192.12344l-18.63798,-0.59168" fill="none" stroke="#000000" stroke-width="1.5" stroke-linecap="round"></path><g stroke="#000000" stroke-linecap="butt"><g><g data-paper-data="{&quot;index&quot;:null}"><path d="M184.39743,199.89015l-9.88283,19.1884c0,0 -3.52136,1.98817 -4.46274,1.43297c-0.94309,-0.5562 -1.19071,-4.76714 -1.19071,-4.76714l9.88283,-19.1884z" fill="#af5400" stroke-width="1.5"></path><path d="M193.51363,200.22241c0,0 -1.0272,5.7151 -3.92266,6.84077c-3.39198,1.3187 -8.15098,-1.55605 -11.34067,-3.32931c-5.91253,-3.28685 -9.69362,-8.2468 -8.44537,-11.07834c0.58002,-1.31565 3.67077,-4.71278 3.67077,-4.71278c0,0 6.12975,3.77755 9.29507,5.53719c5.91252,3.28685 10.74284,6.74244 10.74284,6.74244z" fill="#989898" stroke-width="1"></path><path d="M193.96976,200.22899c-1.2483,2.83153 -7.05329,2.46244 -12.96586,-0.82442c-5.91252,-3.28687 -9.69365,-8.24678 -8.44537,-11.07832c1.24829,-2.83154 7.05332,-2.46245 12.96584,0.8244c5.91252,3.28687 9.69365,8.24679 8.44537,11.07832z" fill="#989898" stroke-width="1"></path><path d="M180.05025,193.51474l47.56817,-86.91049l-1.51617,14.9205l-41.11821,75.12603c0,0 -2.26717,0.6576 -3.07959,0.14115c-0.83164,-0.52864 -1.85418,-3.27722 -1.85418,-3.27722z" fill="#e6e6e6" stroke-width="0.5"></path></g><path d="M166.01388,223.75643c-4.83329,-2.90068 -6.39999,-9.17031 -3.4993,-14.0036c2.90068,-4.83329 9.17031,-6.39999 14.0036,-3.4993c4.83329,2.90068 6.39999,9.17031 3.4993,14.0036c-2.90068,4.83329 -9.17031,6.39999 -14.0036,3.4993z" fill="#d8d8d8" stroke-width="1"></path></g><path d="M168.27981,225.14767c-5.06509,-2.47378 -7.16575,-8.58523 -4.69198,-13.65031c2.47378,-5.06509 8.58523,-7.16575 13.65031,-4.69198c5.06509,2.47378 7.16576,8.58523 4.69199,13.65032c-2.47378,5.06509 -8.58524,7.16575 -13.65032,4.69198z" data-paper-data="{&quot;index&quot;:null}" fill="#d8d8d8" stroke-width="1"></path></g></g></g></svg>