<svg version="1.1" xmlns="http://www.w3.org/2000/svg" xmlns:xlink="http://www.w3.org/1999/xlink" width="26.64259" height="43.29391" viewBox="0,0,26.64259,43.29391"><defs><linearGradient x1="231.48449" y1="181.95966" x2="252.0202" y2="181.95966" gradientUnits="userSpaceOnUse" id="color-1"><stop offset="0" stop-color="#eccdff"></stop><stop offset="1" stop-color="#b1b9ff"></stop></linearGradient></defs><g transform="translate(-226.39396,-158.32467)"><g data-paper-data="{&quot;isPaintingLayer&quot;:true}" fill-rule="nonzero" stroke-linejoin="miter" stroke-miterlimit="10" stroke-dasharray="" stroke-dashoffset="0" style="mix-blend-mode: normal"><path d="M226.89396,187.84749c0.24586,-7.07922 4.95726,-29.26665 12.03646,-29.0208c7.07922,0.24586 13.84548,22.83191 13.59962,29.91113c-0.24586,7.07922 -6.18399,12.61874 -13.26321,12.37288c-7.07922,-0.24586 -12.61874,-6.18399 -12.37288,-13.26321z" fill="#eccdff" stroke="#b000ff" stroke-width="1" stroke-linecap="butt"></path><path d="" data-paper-data="{&quot;index&quot;:null}" fill="none" stroke="#000000" stroke-width="1.5" stroke-linecap="round"></path><path d="M231.49079,188.26507c0.19684,-5.66761 3.96877,-23.43083 9.63637,-23.23399c5.66761,0.19684 11.08466,18.27919 10.88783,23.94679c-0.19684,5.66761 -4.95089,10.10254 -10.6185,9.9057c-5.66761,-0.19684 -10.10253,-4.9509 -9.9057,-10.6185z" fill="url(#color-1)" stroke="none" stroke-width="NaN" stroke-linecap="butt"></path></g></g></svg>