<svg version="1.1" xmlns="http://www.w3.org/2000/svg" xmlns:xlink="http://www.w3.org/1999/xlink" width="107.53973" height="120.83368" viewBox="0,0,107.53973,120.83368"><g transform="translate(-198.43372,-100.03702)"><g data-paper-data="{&quot;isPaintingLayer&quot;:true}" fill-rule="nonzero" stroke-linejoin="miter" stroke-miterlimit="10" stroke-dasharray="" stroke-dashoffset="0" style="mix-blend-mode: normal"><path d="M285.06042,167.93901c0,-5.6369 4.56962,-10.20651 10.20652,-10.20651c5.6369,0 10.20651,4.56961 10.20651,10.20651c0,5.6369 -4.56961,10.20651 -10.20651,10.20651c-5.6369,0 -10.20652,-4.56961 -10.20652,-10.20651z" fill="#d8d8d8" stroke="#000000" stroke-width="1" stroke-linecap="butt"></path><path d="" data-paper-data="{&quot;index&quot;:null}" fill="none" stroke="#000000" stroke-width="1.5" stroke-linecap="round"></path><path d="" data-paper-data="{&quot;index&quot;:null}" fill="none" stroke="#000000" stroke-width="1.5" stroke-linecap="round"></path><path d="M301.68768,195.47554" data-paper-data="{&quot;index&quot;:null}" fill="none" stroke="#d8d8d8" stroke-width="4" stroke-linecap="round"></path><path d="M199.18372,180.6207c0,-21.81525 17.68475,-39.5 39.5,-39.5c21.81525,0 39.5,17.68475 39.5,39.5c0,21.81525 -17.68475,39.5 -39.5,39.5c-21.81525,0 -39.5,-17.68475 -39.5,-39.5z" data-paper-data="{&quot;index&quot;:null}" fill="#d8d8d8" stroke="#000000" stroke-width="1.5" stroke-linecap="butt"></path><path d="M254.35771,169.6083l-11.07275,4.59202" data-paper-data="{&quot;index&quot;:null}" fill="none" stroke="#000000" stroke-width="1.5" stroke-linecap="round"></path><path d="M248.94146,178.95914l0.25511,-5.86758" data-paper-data="{&quot;index&quot;:null}" fill="none" stroke="#000000" stroke-width="1.5" stroke-linecap="round"></path><path d="M225.51079,170.45509l14.45771,4.12252" data-paper-data="{&quot;index&quot;:null}" fill="none" stroke="#000000" stroke-width="1.5" stroke-linecap="round"></path><path d="M234.44135,178.41109l-0.21988,-5.35892" data-paper-data="{&quot;index&quot;:null}" fill="none" stroke="#000000" stroke-width="1.5" stroke-linecap="round"></path><path d="M252.45108,192.12344l-18.63798,-0.59168" fill="none" stroke="#000000" stroke-width="1.5" stroke-linecap="round"></path><g stroke="#000000" stroke-linecap="butt"><g data-paper-data="{&quot;index&quot;:null}"><path d="M236.09029,186.05677l-12.9079,17.29888c0,0 -3.80069,1.38112 -4.6378,0.67848c-0.83863,-0.70392 -0.38938,-4.89813 -0.38938,-4.89813l12.9079,-17.29888z" fill="#af5400" stroke-width="1.5"></path><path d="M245.02731,187.88578c0,0 -1.95435,5.46791 -4.99567,6.10139c-3.56284,0.7421 -7.78343,-2.87713 -10.63755,-5.15145c-5.29052,-4.21566 -8.20318,-9.73057 -6.50564,-12.3179c0.78876,-1.20219 4.39676,-4.04393 4.39676,-4.04393c0,0 5.42397,4.73543 8.25628,6.99233c5.29051,4.21565 9.48581,8.41954 9.48581,8.41954z" fill="#989898" stroke-width="1"></path><path d="M245.47613,187.96737c-1.69757,2.5873 -7.36251,1.26726 -12.65306,-2.94841c-5.29051,-4.21567 -8.20321,-9.73057 -6.50565,-12.31787c1.69756,-2.58731 7.36254,-1.26727 12.65304,2.94839c5.29051,4.21567 8.2032,9.73058 6.50565,12.31787z" fill="#989898" stroke-width="1"></path><path d="M232.8524,179.0525l61.23136,-77.89021l-3.95262,14.4671l-52.92877,67.32884c0,0 -2.34451,0.27526 -3.06079,-0.36794c-0.73324,-0.65838 -1.28917,-3.53782 -1.28917,-3.53782z" fill="#e6e6e6" stroke-width="0.5"></path></g><path d="M214.02738,206.56973c-4.2896,-3.65704 -4.80241,-10.09906 -1.14537,-14.38867c3.65704,-4.2896 10.09906,-4.80241 14.38867,-1.14537c4.2896,3.65704 4.80241,10.09906 1.14537,14.38867c-3.65704,4.2896 -10.09906,4.80241 -14.38867,1.14537z" fill="#d8d8d8" stroke-width="1"></path></g></g></g></svg>