<svg version="1.1" xmlns="http://www.w3.org/2000/svg" xmlns:xlink="http://www.w3.org/1999/xlink" width="134.17857" height="96.85294" viewBox="0,0,134.17857,96.85294"><g transform="translate(-146.07148,-139.75)"><g data-paper-data="{&quot;isPaintingLayer&quot;:true}" fill-rule="nonzero" stroke-linejoin="miter" stroke-miterlimit="10" stroke-dasharray="" stroke-dashoffset="0" style="mix-blend-mode: normal"><path d="" data-paper-data="{&quot;index&quot;:null}" fill="none" stroke="#000000" stroke-width="1.5" stroke-linecap="round"></path><path d="" data-paper-data="{&quot;index&quot;:null}" fill="none" stroke="#000000" stroke-width="1.5" stroke-linecap="round"></path><path d="" data-paper-data="{&quot;index&quot;:null}" fill="none" stroke="#000000" stroke-width="1.5" stroke-linecap="round"></path><path d="" data-paper-data="{&quot;index&quot;:null}" fill="none" stroke="#000000" stroke-width="1.5" stroke-linecap="round"></path><path d="" data-paper-data="{&quot;index&quot;:null}" fill="none" stroke="#000000" stroke-width="1.5" stroke-linecap="round"></path><path d="" data-paper-data="{&quot;index&quot;:null}" fill="none" stroke="#000000" stroke-width="1.5" stroke-linecap="round"></path><path d="M200.50004,180c0,-21.81525 17.68475,-39.5 39.5,-39.5c21.81525,0 39.5,17.68475 39.5,39.5c0,21.81525 -17.68475,39.5 -39.5,39.5c-21.81525,0 -39.5,-17.68475 -39.5,-39.5z" fill="#6e6e6e" stroke="#000000" stroke-width="1.5" stroke-linecap="butt"></path><path d="M202.85559,181.6599c0,0 -2.28148,-3.48635 -2.28148,-5.83045c0,-2.68059 2.28148,-9.37942 2.28148,-9.37942c0,0 25.76053,3.29547 38.0247,3.29547c12.45976,0 36.15636,-3.29547 36.15636,-3.29547c0,0 0.32325,0.8142 0.73295,2.06366c1.27619,3.89191 3.39127,12.00691 -0.81086,12.89272c-2.60416,0.54896 -18.81959,2.66663 -35.57172,2.60715c-18.95763,-0.06731 -38.53144,-2.35365 -38.53144,-2.35365z" fill="#d0d0d0" stroke="#000000" stroke-width="0" stroke-linecap="butt"></path><path d="M220.2872,168.69041l16.34335,9.20811" fill="none" stroke="#000000" stroke-width="1.5" stroke-linecap="round"></path><path d="M228.96588,174.81546l-0.2535,3.54897" fill="none" stroke="#000000" stroke-width="1.5" stroke-linecap="round"></path><path d="M245.30508,176.18343l13.96519,-6.03143" fill="none" stroke="#000000" stroke-width="1.5" stroke-linecap="round"></path><path d="M251.52719,174.05496v5.06996" fill="none" stroke="#000000" stroke-width="1.5" stroke-linecap="round"></path><path d="M157.34642,178.17875c-0.19525,0.02513 -0.39037,0.04128 -0.58535,0.04953l0.00232,0.0484l-4.32826,0.20747c-0.04569,0.00249 -0.09171,0.00375 -0.13802,0.00375c-1.38071,0 -2.5,-1.11929 -2.5,-2.5c0,-0.69333 0.28224,-1.32074 0.7381,-1.77361l3.43136,-3.4105l0.00339,0.00341l0.01169,-0.01826c5.04132,-4.81311 10.8583,-7.89326 16.94642,-11.2438c3.47847,-1.91435 8.78025,-5.08136 12.83066,-5.55914c0.04469,-0.00527 0.08939,-0.01031 0.1341,-0.01512l-0.00528,-0.02098l4.79437,-1.20645c0.21161,-0.0582 0.43445,-0.08929 0.66454,-0.08929c1.38071,0 2.5,1.11929 2.5,2.5c0,0.97633 -0.55967,1.82195 -1.37568,2.23352l-3.3475,1.77333c-1.77279,1.06113 -3.52592,2.16041 -5.26807,3.27958l4.76925,-0.40006c0.07842,-0.00741 0.15789,-0.0112 0.23825,-0.0112c1.38071,0 2.5,1.11929 2.5,2.5c0,0.75924 -0.33845,1.43942 -0.8727,1.89792l-2.46756,2.1415l-0.01238,-0.01426l-0.03361,0.05321c-5.84702,4.60032 -11.81658,9.27571 -17.00639,14.61793c-1.07724,1.10888 -2.17062,2.20212 -3.23949,3.31907c-0.66996,0.70009 -1.81426,1.17631 -1.9766,2.13161c-0.09135,0.53756 1.19078,-0.42587 1.63237,-0.106c0.31832,0.23057 0.2832,0.84327 0.34619,1.29447l2.32287,-1.55873c0.4035,-0.27926 0.89316,-0.44286 1.42102,-0.44286c0.5662,0 1.08843,0.18822 1.50755,0.50551c0.69545,-0.75028 1.42395,-1.42814 2.2001,-1.97643l3.31743,-3.7245c0.45809,-0.51902 1.12832,-0.84638 1.87502,-0.84638c1.38071,0 2.5,1.11929 2.5,2.5c0,0.61834 -0.22449,1.18426 -0.59641,1.62068l-0.35073,0.41722c0.31551,0.25094 0.56897,0.57655 0.73366,0.95009c1.02301,0.31329 1.76693,1.26517 1.76693,2.3908c0,0.48593 -0.13864,0.93948 -0.37852,1.32325l-2.48845,4.1391c0.48176,0.45571 0.78233,1.101 0.78233,1.81649c0,0.56929 -0.19028,1.09413 -0.51071,1.5144l-0.33096,0.44417c0.08495,0.25139 0.131,0.5207 0.131,0.80077c0,0.24815 -0.03615,0.48785 -0.10348,0.71413c-0.29036,1.06279 -0.99321,3.63536 -1.5632,5.72165c3.06286,-2.47414 6.12701,-4.94668 9.19596,-7.41328l3.06788,-3.68498c0.45849,-0.55874 1.15441,-0.91519 1.93358,-0.91519c1.38071,0 2.5,1.11929 2.5,2.5c0,0.57447 -0.19376,1.10368 -0.5195,1.52585l-2.07645,2.75103c2.77929,-2.01122 5.51518,-4.08568 8.26648,-6.21611l2.41934,-2.23226c0.44615,-0.41428 1.04384,-0.6676 1.70069,-0.6676c1.38071,0 2.5,1.11929 2.5,2.5c0,0.72726 -0.31054,1.38199 -0.80625,1.83883l-3.66073,3.39385c-0.80689,1.11829 -1.9797,1.90918 -3.02938,2.81462c0.65994,0.22246 1.19662,0.71289 1.48062,1.34188c0.3146,-0.14276 0.66401,-0.22226 1.03198,-0.22226c1.20093,0 2.20409,0.84679 2.44496,1.97585c0.04765,-0.00271 0.09566,-0.00408 0.14398,-0.00408c1.38071,0 2.5,1.11929 2.5,2.5c0,0.71505 -0.3002,1.35998 -0.78143,1.81564l-3.6199,3.44125l-0.01792,-0.01885l-0.03921,0.07149c-0.16682,0.14 -1.10556,0.93053 -2.28417,1.91916c-1.81904,1.67434 -4.0504,3.59619 -4.10764,3.64968c-2.82962,2.64439 -5.45697,5.3939 -7.99154,8.2527c2.2011,-1.62148 4.09797,-3.65945 6.19746,-5.42129c5.17838,-4.34557 9.86151,-9.33949 14.55085,-14.264c0.12756,-0.8442 0.69623,-1.45476 0.69623,-1.45476l3.32526,-3.54307c0.10302,-0.02736 0.20604,-0.05472 0.30906,-0.08208l-0.06463,-0.09923l3.48864,-2.27217c0.39834,-0.26817 0.87809,-0.42468 1.39439,-0.42468c1.38071,0 2.5,1.11929 2.5,2.5c0,0.75213 -0.33214,1.42669 -0.85775,1.88499l-3.24998,2.86239c-8.32019,8.49668 -16.64153,18.98099 -26.8148,25.35632c-1.82691,1.14488 -3.34363,1.78534 -4.86888,2.20699l-4.51384,2.02166c-0.32469,0.15422 -0.6879,0.2405 -1.07127,0.2405c-1.38071,0 -2.5,-1.11929 -2.5,-2.5c0,-0.58645 0.20193,-1.12574 0.54005,-1.55213l3.05534,-3.92967l0.00807,0.00627l0.01615,-0.03692c2.59342,-3.12938 5.22673,-6.14102 8.01373,-9.03824c-0.17952,-0.3449 -0.28098,-0.73691 -0.28098,-1.15262c0,-0.13628 0.0109,-0.27001 0.03189,-0.40038c-0.45145,-0.11144 -0.85458,-0.34553 -1.17201,-0.66491c-0.1166,0.05685 -0.23317,0.11198 -0.34968,0.16532l-4.0899,2.82071c-0.40811,0.2897 -0.90691,0.46 -1.44548,0.46c-1.38071,0 -2.5,-1.11929 -2.5,-2.5c0,-0.64077 0.24107,-1.22524 0.63747,-1.66766l2.31915,-2.61285c0.00618,-0.00696 0.01237,-0.01393 0.01855,-0.02089c-1.78395,1.1037 -3.58735,2.15466 -4.41018,2.4198l-4.34252,2.3842c-0.36625,0.2104 -0.79083,0.33072 -1.24351,0.33072c-1.38071,0 -2.5,-1.11929 -2.5,-2.5c0,-0.90667 0.48265,-1.7006 1.20503,-2.1389l0.79573,-0.5006c-0.72308,-1.62372 0.79096,-2.84691 0.79096,-2.84691c0.45909,-0.37089 0.91815,-0.74182 1.3772,-1.11275c-1.22232,-0.94185 -0.76888,-2.60155 -0.76888,-2.60155c0.15266,-0.55876 0.30531,-1.11751 0.45797,-1.67627c-0.38322,-0.12684 -0.72536,-0.34388 -1.00126,-0.62598c-1.15546,-0.22036 -2.02885,-1.23602 -2.02885,-2.45567c0,-0.10312 0.00624,-0.20478 0.01837,-0.30462l-1.04477,1.14721c-0.45749,0.50607 -1.11915,0.82406 -1.85508,0.82406c-1.38071,0 -2.5,-1.11929 -2.5,-2.5c0,-0.21187 0.02636,-0.41759 0.07597,-0.61406c-0.8962,-0.38 -1.52485,-1.26792 -1.52485,-2.30267c0,-0.19696 0.02278,-0.38859 0.06584,-0.57242l0.6099,-2.86487l0.06844,0.01457c0.01424,-0.14273 0.03326,-0.28527 0.05763,-0.4276c0.0294,-0.17177 0.07377,-0.33793 0.13037,-0.49952c-0.52583,-0.63589 -0.97386,-1.50295 -1.58637,-1.98245c-1.04716,-0.81975 -3.22816,-0.86382 -3.33518,-2.18936c-0.19423,-2.40579 1.38006,-4.67803 2.61322,-6.75285c1.39435,-2.34603 3.67251,-4.04639 5.66774,-5.90841c2.87314,-2.68132 5.87518,-5.24879 8.92841,-7.74884c-3.97569,2.13548 -7.86179,4.71704 -11.7416,6.92675l-2.43654,1.43063c-0.3793,0.23193 -0.82522,0.3656 -1.30236,0.3656c-0.80516,0 -1.52141,-0.38062 -1.97865,-0.97176c-0.46262,0.22386 -0.94471,0.38819 -1.45821,0.45427z" fill="#ababab" stroke="none" stroke-width="0.5" stroke-linecap="butt"></path><path d="M160.06219,223.57081c-1.95699,1.5557 -3.51269,-0.40129 -3.51269,-0.40129l-0.74682,-0.94485c-2.89169,-3.27786 -6.79996,-6.81219 -7.76126,-11.2962l-1.78132,-4.61061c-0.12156,-0.29407 -0.18862,-0.61639 -0.18862,-0.95437c0,-1.38071 1.11929,-2.5 2.5,-2.5c0.51397,0 0.99171,0.1551 1.38898,0.42104l1.40153,0.90729c0.3201,-1.01171 1.2664,-1.74503 2.38398,-1.74503c0.54265,0 1.04492,0.17289 1.45473,0.4666l0.98022,0.68307c-0.06123,-0.63477 0.1251,-1.38801 0.97707,-2.06515c1.95714,-1.55551 3.51265,0.40163 3.51265,0.40163c1.03701,1.30476 2.07401,2.60952 3.11102,3.91428l2.67168,3.3615c0.34747,0.42938 0.5556,0.97615 0.5556,1.57153c0,1.38071 -1.11929,2.5 -2.5,2.5c-0.08621,0 -0.1714,-0.00436 -0.25537,-0.01288c0.30098,0.41281 0.47858,0.92131 0.47858,1.4713c0,1.38071 -1.11929,2.5 -2.5,2.5c-0.73786,0 -1.40105,-0.31965 -1.85867,-0.82804l-1.59467,-1.758l-3.35941,-2.04459l0.21318,-0.35028c-0.72726,-0.30243 -1.44477,-0.62536 -2.14925,-0.97263c0.05005,0.13148 0.10843,0.25869 0.17946,0.37928c1.42232,2.41504 4.07121,5.19584 5.88771,7.25058l0.913,1.14313c0,0 1.5557,1.95699 -0.40129,3.51269z" fill="#ababab" stroke="none" stroke-width="0.5" stroke-linecap="butt"></path><path d="M191.71661,185.94996c-0.15178,0.45237 -0.36093,0.78943 -0.60002,1.03872l-0.10097,1.82926c-0.06335,1.3243 -1.15711,2.37853 -2.4971,2.37853c-1.04153,0 -1.93431,-0.63692 -2.31008,-1.54251l-1.63272,-3.69776c0,0 -1.0098,-2.28699 1.27719,-3.29679c1.5836,-0.69923 2.55483,0.18227 3.00245,0.79064l1.28632,-0.66547c0,0 2.37015,0.79522 1.57493,3.16537z" fill="#ababab" stroke="none" stroke-width="0.5" stroke-linecap="butt"></path></g></g></svg>