<svg version="1.1" xmlns="http://www.w3.org/2000/svg" xmlns:xlink="http://www.w3.org/1999/xlink" width="78.79503" height="75.90127" viewBox="0,0,78.79503,75.90127"><g transform="translate(-441.65418,-142.35726)"><g data-paper-data="{&quot;isPaintingLayer&quot;:true}" fill-rule="nonzero" stroke-linejoin="miter" stroke-miterlimit="10" stroke-dasharray="" stroke-dashoffset="0" style="mix-blend-mode: normal"><path d="" data-paper-data="{&quot;index&quot;:null}" fill="none" stroke="#000000" stroke-width="1.5" stroke-linecap="round"/><path d="M452.38325,174.47214c2.94864,-15.29539 17.73837,-25.3044 33.03375,-22.35575c15.29539,2.94864 25.3044,17.73837 22.35575,33.03375c-2.94864,15.29539 -17.73837,25.3044 -33.03375,22.35575c-15.29539,-2.94864 -25.3044,-17.73837 -22.35575,-33.03375z" fill="#000000" stroke="none" stroke-width="NaN" stroke-linecap="butt"/><path d="M477.09611,165.54045l7.86543,-23.10016l5.87485,1.13256l-0.81562,24.45922z" fill="#000000" stroke="none" stroke-width="0" stroke-linecap="butt"/><path d="M490.86246,163.9671l21.89598,-10.77258l3.3533,4.95498l-17.87202,16.71856z" fill="#000000" stroke="none" stroke-width="0" stroke-linecap="butt"/><path d="M497.34905,176.32637l23.10016,7.86543l-1.13256,5.87485l-24.45924,-0.81561z" fill="#000000" stroke="none" stroke-width="0" stroke-linecap="butt"/><path d="M494.26258,188.70695l10.77258,21.89598l-4.95498,3.35331l-16.71857,-17.87202z" fill="#000000" stroke="none" stroke-width="0" stroke-linecap="butt"/><path d="M485.51357,195.15836l-7.86542,23.10017l-5.87485,-1.13256l0.81561,-24.45924z" fill="#000000" stroke="none" stroke-width="0" stroke-linecap="butt"/><path d="M473.0626,195.95795l-21.89598,10.77258l-3.3533,-4.95498l17.87201,-16.71857z" fill="#000000" stroke="none" stroke-width="0" stroke-linecap="butt"/><path d="M464.75435,183.92625l-23.10017,-7.86542l1.13256,-5.87485l24.45923,0.81561z" fill="#000000" stroke="none" stroke-width="0" stroke-linecap="butt"/><path d="M465.37933,167.60654l-10.77258,-21.89598l4.95499,-3.3533l16.71856,17.87201z" fill="#000000" stroke="none" stroke-width="0" stroke-linecap="butt"/></g></g></svg>