<svg version="1.1" xmlns="http://www.w3.org/2000/svg" xmlns:xlink="http://www.w3.org/1999/xlink" width="600.8812" height="453.73367" viewBox="0,0,600.8812,453.73367"><defs><radialGradient cx="264.86735" cy="189.16665" r="80.36735" gradientUnits="userSpaceOnUse" id="color-1"><stop offset="0" stop-color="#383838"></stop><stop offset="1" stop-color="#000000"></stop></radialGradient></defs><g transform="translate(60.4406,46.86683)"><g data-paper-data="{&quot;isPaintingLayer&quot;:true}" fill-rule="nonzero" stroke-linejoin="miter" stroke-miterlimit="10" stroke-dasharray="" stroke-dashoffset="0" style="mix-blend-mode: normal"><path d="M-60.4406,406.86684v-453.73367h600.8812v453.73367z" fill="#000000" stroke="none" stroke-width="NaN" stroke-linecap="butt"></path><path d="M249.15306,185.12584l96.08163,-59.26531l-79.02041,54.77551l39.5102,6.28571l-39.5102,11.67347l9.87755,13.46939l-27.83673,25.14286l-0.89796,-29.63265l-62.85714,47.59184l19.7551,-48.4898l-17.06122,-5.38776l25.14286,-10.77551l-22.44898,-7.18367l14.36735,-45.79592l35.91837,26.93878l17.06122,-28.73469l-7.18367,-11.67347l12.57143,10.77551l-5.38776,-11.67347l10.77551,2.69388v33.22449z" fill="url(#color-1)" stroke="#ffffff" stroke-width="1.5" stroke-linecap="round"></path><path d="M149.5,186.16666c0,-8.28427 6.71573,-15 15,-15c8.28427,0 15,6.71573 15,15c0,8.28427 -6.71573,15 -15,15c-8.28427,0 -15,-6.71573 -15,-15z" fill="#8d8d8d" stroke="none" stroke-width="0" stroke-linecap="butt"></path><path d="M107.5,186.16666c0,-8.28427 6.71573,-15 15,-15c8.28427,0 15,6.71573 15,15c0,8.28427 -6.71573,15 -15,15c-8.28427,0 -15,-6.71573 -15,-15z" fill="#c8c8c8" stroke="#ffffff" stroke-width="1.5" stroke-linecap="butt"></path><path d="M195,188c0,-8.28427 6.71573,-15 15,-15c8.28427,0 15,6.71573 15,15c0,8.28427 -6.71573,15 -15,15c-8.28427,0 -15,-6.71573 -15,-15z" fill="#484848" stroke="none" stroke-width="0" stroke-linecap="butt"></path></g></g></svg>