<svg version="1.1" xmlns="http://www.w3.org/2000/svg" xmlns:xlink="http://www.w3.org/1999/xlink" width="600.8812" height="453.73367" viewBox="0,0,600.8812,453.73367"><g transform="translate(60.4406,46.86683)"><g data-paper-data="{&quot;isPaintingLayer&quot;:true}" fill-rule="nonzero" stroke="none" stroke-linecap="butt" stroke-linejoin="miter" stroke-miterlimit="10" stroke-dasharray="" stroke-dashoffset="0" style="mix-blend-mode: normal"><path d="M-60.4406,406.86684v-453.73367h600.8812v453.73367z" fill="#000000" stroke-width="NaN"></path><path d="M294.5,195.16666c-3,0 -3,-3 -3,-3l0.22836,-1.85195c-1.75722,-2.14607 -4.45371,0.08873 -6.89548,0.90327c-0.48923,0.1632 -11.6242,3.8872 -11.85234,3.90995c-7.02645,0.70051 -5.89827,-0.90582 -6.47268,-6.74421c-0.08388,-0.85258 0.67709,-2.00034 0.03709,-2.56983c-1.08884,-0.96889 -2.81843,-0.74517 -4.21836,-1.1508c-0.4297,-0.12451 -0.86231,-0.25343 -1.29514,-0.3889l0.29246,0.87737c0.11398,0.31704 0.17609,0.65883 0.17609,1.01512c0,1.23863 -0.75065,2.30193 -1.82184,2.75981c-0.04543,0.74439 -0.17816,1.50341 -0.17816,2.24019v6c0,1.65685 -1.34315,3 -3,3c-1.54443,0 -2.81628,-1.16705 -2.98177,-2.66738l-0.73927,-5.91418l0.02496,-0.00312c-0.01334,-0.04668 -0.02647,-0.09344 -0.03939,-0.14027c-0.54457,-1.9743 -0.17214,-4.0935 -0.17712,-6.14152c-0.00147,-0.6048 0.345,-1.24453 0.19967,-1.81672c-2.24921,2.53275 -4.92641,5.54305 -5.04484,5.67629c0,0 -1.04078,1.17087 -2.46425,1.06831c-0.8023,0.9456 -1.63444,1.89825 -2.49505,2.88493l-7.11134,5.49587c-0.47331,-2.11673 -1.28199,-4.19824 -1.74646,-6.3159c-0.48167,0.5088 -0.96334,1.01759 -1.44502,1.52636c0.01314,0.11395 0.01989,0.22985 0.01989,0.34733c0,0.68629 -0.23045,1.31876 -0.61818,1.82424l-2.48425,3.31233c1.21839,0.38153 2.10243,1.51923 2.10243,2.86342c0,0.53489 -0.13999,1.03708 -0.38532,1.47195l-1.05988,1.96834c1.20717,-0.48043 2.46142,-0.7376 3.44382,-0.35557c0.34014,-0.76937 0.65959,-1.54172 0.92016,-2.3227l4.62726,-6.71191c0.59101,3.08149 1.4136,6.12748 1.77302,9.24448c0.29765,2.58136 -0.51035,5.15078 -1.07198,7.71543c1.25861,0.1026 2.29742,0.9821 2.63611,2.15817c0.31621,-0.10619 0.68551,-0.1682 1.11681,-0.1682c3,0 3,3 3,3l-0.02764,1.40627c-0.207,1.51448 -1.35717,9.98613 -1.42285,10.11299c-0.07523,0.14532 -0.15354,0.28858 -0.23467,0.42996l0.05172,0.02586l-2.65422,5.30843c-0.48103,1.01474 -1.51474,1.71649 -2.71235,1.71649c-0.59125,0 -1.14256,-0.17104 -1.60713,-0.46634c-1.06465,3.26995 -2.44984,5.37117 -3.43998,9.03327c-0.16767,1.1686 -0.33127,2.33771 -0.4902,3.50735c-0.00631,1.82348 0.27657,3.27608 -0.74164,6.34416l-0.73927,5.91418c-0.16549,1.50033 -1.43734,2.66738 -2.98177,2.66738c-1.65685,0 -3,-1.34315 -3,-3c0,-0.12687 0.00787,-0.25189 0.02316,-0.37462l0.3326,-2.99338c0.11855,-1.06607 0.24222,-2.13158 0.37054,-3.19656c-0.21794,-1.48507 0.24459,-2.99459 0.56895,-4.49874c1.28369,-9.71273 2.90316,-19.38591 4.515,-29.0474c-0.25774,0.07213 -0.52949,0.11069 -0.81025,0.11069c-1.65685,0 -3,-1.34315 -3,-3c0,-0.27446 0.03686,-0.54031 0.10589,-0.79287l0.34471,-1.37885c-1.14255,1.11313 -2.3606,1.92043 -3.6506,2.57172l-3.97576,2.98182c-0.50548,0.38773 -1.13795,0.61818 -1.82424,0.61818c-0.49388,0 -0.95988,-0.11934 -1.37075,-0.33076c-0.12238,0.10978 -0.24893,0.21536 -0.38022,0.31617c-0.04989,0.03831 -0.10024,0.07583 -0.15103,0.1126l0.02331,0.02331l-2,2c-0.54289,0.54289 -1.29289,0.87868 -2.12132,0.87868c-1.65685,0 -3,-1.34315 -3,-3c0,-0.38752 0.07348,-0.75788 0.20726,-1.09791l0.99927,-2.72536l0.09975,0.03657l-0.00336,-0.26886c1.73262,-3.04322 3.58083,-5.98948 5.40315,-8.95865c-1.51891,-0.1477 -2.70607,-1.4281 -2.70607,-2.98578c0,-0.68629 0.23045,-1.31876 0.61818,-1.82424l2.98182,-3.97576l0.00668,0.00501l0.25407,-0.33759l0.02037,0.01533c0.02602,-0.02336 0.05894,-0.05256 0.09824,-0.08719l-0.01307,-0.06045c4.16027,-4.40137 8.32377,-8.79968 12.48755,-13.19773c1.38441,-1.46231 2.51788,-3.212 4.15334,-4.38683c0.01127,-0.0081 0.02255,-0.01618 0.03383,-0.02425l-0.00499,-0.00499l1.33244,-1.33244c-4.15528,0.66946 -10.39316,0.21035 -13.96848,0.21112c0,0 -1.75606,0 -3.36813,0c-7.12748,3.39228 -14.75145,6.39404 -22.4941,7.61591l-1.552,0.9312c-0.46007,0.28704 -1.00355,0.45289 -1.58577,0.45289c-0.8885,0 -1.68679,-0.38625 -2.23611,-1h-1.76389c-1.65685,0 -3,-1.34315 -3,-3c0,-1.39413 0.95096,-2.56616 2.23961,-2.90279l5.44342,-1.55526c1.53187,-0.97091 3.06538,-1.9392 4.60127,-2.90374l5.05778,-3.14004c0.46768,-0.30117 1.02448,-0.47591 1.62209,-0.47591c0.62725,0 1.20954,0.1925 1.69102,0.52165c0.26218,-0.09211 0.52855,-0.18699 0.79945,-0.2855c4.03424,-1.46694 7.96655,-2.97834 11.86225,-4.62924c-5.18471,-6.94291 -8.93735,-14.83428 -11.6414,-23.10465l-0.30338,0.17336l-2.95069,-5.16371c-0.26765,-0.44889 -0.42141,-0.97357 -0.42141,-1.53416c0,-1.65685 1.34315,-3 3,-3c0.82843,0 1.57843,0.33579 2.12132,0.87868l1.94905,1.94905c8.42227,7.40144 18.63057,14.57418 25.53818,23.46289c0.07355,0.09465 2.33376,4.14685 4.032,6.79513l3.52342,2.11405c0.28364,-0.08775 0.56604,-0.1702 0.83604,-0.19981c0,0 2.15385,0 2.81155,1.825c1.31647,-2.24137 2.65723,-4.66837 4.1514,-6.98288c-0.30225,0.10237 -0.62612,0.15788 -0.96295,0.15788c-0.85582,0 -1.62794,-0.35836 -2.17449,-0.93321l-0.13076,0.2532c-0.48833,0.99504 -1.51155,1.68001 -2.69475,1.68001c-1.65685,0 -3,-1.34315 -3,-3c-1.56257,0 -2.84611,-1.19463 -2.98714,-2.72038l-0.62448,-5.9326c-0.57616,-1.91521 -0.4191,-3.97798 -0.62811,-5.96703c-0.91865,-8.74244 -0.08708,-16.68159 0.15473,-25.41605l0.08621,-3.04873c0,0 0.08479,-2.9988 3.08359,-2.91401c2.9988,0.08479 2.91401,3.08359 2.91401,3.08359l-0.08621,3.04873c-0.18139,6.2895 -1.27127,12.47006 -0.80356,18.76589c0.00121,0.01626 0.0392,0.37799 0.10123,0.96563c0.15708,-0.76327 0.37818,-1.49952 0.77087,-2.16305l0.01888,-4.71249c0.00566,-1.65203 1.34663,-2.98951 2.99998,-2.98951c1.65685,0 3,1.34315 3,3v5l-0.02001,0l-0.00019,0.04766l-0.01298,-0.00005l0.01293,0.00891c-0.00102,0.09982 -0.00211,0.19965 -0.00329,0.29948c0.00035,0.00352 0.00071,0.00704 0.00106,0.01056c0.03958,0.39732 0.02855,0.79107 -0.01885,1.18224c-0.03276,1.8114 -0.09173,3.62269 -0.17798,5.4326c0.54873,-0.60294 1.33983,-0.9814 2.21931,-0.9814c1.34259,0 2.47919,0.88195 2.86206,2.09809c1.91928,-2.58882 3.82856,-5.18516 5.67964,-7.81762c0.91065,-1.29506 1.56305,-2.78624 2.63395,-3.95227l1.67536,-2.51304l0.18729,-0.47886c0.20869,-0.57247 0.58676,-1.06349 1.07358,-1.41244l0.36617,-0.54925c0.2498,-0.38679 0.58616,-0.71244 0.98167,-0.94954c2.6644,-6.69727 5.53696,-13.3037 8.36467,-19.9355l2.32617,-5.45556c0.44203,-1.10579 1.52317,-1.88701 2.78676,-1.88701c1.65685,0 3,1.34315 3,3c0,0.3051 -0.04554,0.59956 -0.13021,0.87696l-1.60222,5.7104c-0.35373,3.98433 -2.16118,7.70255 -3.24177,11.55383c-1.39133,4.95876 -2.77191,9.92041 -4.19568,14.86996l-0.25821,0.27569l0.09551,0.05458l-2.94794,5.1589c-0.50929,0.93086 -1.49774,1.56215 -2.63362,1.56215c-0.41924,0 -0.8184,-0.086 -1.1808,-0.24132l-0.02098,0.05395c-0.16253,0.44856 -0.42899,0.84733 -0.77028,1.16721c1.13842,0.42592 1.94889,1.52366 1.94889,2.8107c0,0.94698 -0.43877,1.79148 -1.1241,2.34129l-0.71219,0.58064c0.51793,0.53914 0.83629,1.27143 0.83629,2.07807c0,0.68609 -0.23031,1.31838 -0.61783,1.82379l-3.01814,4.02591c-2.05375,2.81603 -3.88103,5.81186 -5.75843,8.76328c-0.37378,1.14257 -0.7486,2.28451 -1.12561,3.42535c3.6624,2.40914 8.81478,1.13236 12.24034,4.84844c1.36274,1.47832 1.17106,3.88811 1.27182,5.89618c0.02198,0.43809 -0.18472,0.83472 -0.41424,1.2287c1.6513,-0.76034 3.44239,-1.17425 5.16552,-1.75507c1.89523,-0.63883 3.79459,-1.26533 5.6921,-1.89737c1.8536,-0.61741 7.81335,-2.79627 9.36528,-2.25036c2.16046,0.75996 3.31389,3.16206 4.97084,4.74309l0.22836,4.14805c0,0 0,3 -3,3zM245.5,179.16666c-0.37892,-0.02117 -0.76887,-0.00573 -1.16276,0.02276c0.10549,0.30633 0.16276,0.63509 0.16276,0.97724c0,0.58222 -0.16585,1.12569 -0.45289,1.58577l-1.50551,2.50918c1.53994,-1.76564 2.90024,-3.32509 2.90795,-3.33315c0.19597,-0.20485 0.38607,-0.42084 0.57234,-0.64429l0.52223,-1.30557c-0.57071,0.18806 -1.04413,0.18806 -1.04413,0.18806zM228.62277,163.78573c-3.56976,-3.76536 -7.67937,-7.24052 -11.79041,-10.61463c0.73893,1.63847 1.29777,2.87794 1.31253,2.91073c1.07826,2.39664 2.22462,4.62479 3.49034,6.73465c0.51202,-0.40681 1.16002,-0.64983 1.86478,-0.64983c0.35629,0 0.69808,0.06211 1.01512,0.17609l2.93357,0.97786l-0.0197,0.0591c0.1449,0.03246 0.28905,0.07014 0.43235,0.1136c0.26287,0.07973 0.51612,0.17827 0.76143,0.29242zM234.49191,174.76384c-0.76927,-0.32419 -1.5864,-0.68194 -2.40936,-1.06968c-0.12108,0.20427 -0.2657,0.39293 -0.43013,0.56226l0.29876,0.49793c0.85137,-0.01989 1.69949,-0.02064 2.54073,0.00949z" fill="#ffffff" stroke-width="0.5"></path></g></g></svg>