<svg version="1.1" xmlns="http://www.w3.org/2000/svg" xmlns:xlink="http://www.w3.org/1999/xlink" width="56.63803" height="148.47583" viewBox="0,0,56.63803,148.47583"><g transform="translate(-442.12371,-31.56087)"><g data-paper-data="{&quot;isPaintingLayer&quot;:true}" fill="#9bff66" fill-rule="nonzero" stroke="none" stroke-width="0.5" stroke-linecap="butt" stroke-linejoin="miter" stroke-miterlimit="10" stroke-dasharray="" stroke-dashoffset="0" style="mix-blend-mode: normal"><path d="M488.10905,31.5609c2.5,0 2.5,2.5 2.5,2.5l-0.00481,1.43334c0.08159,1.35057 0.08712,2.7079 0.24478,4.05171c0.09297,0.79245 0.70209,1.56658 0.50507,2.33976l0.17301,0.81268c0.08123,0.10766 0.16441,0.21201 0.24994,0.31242l-0.08982,0.43972l0.01215,0.05706l0.19594,-0.02995l0.5192,3.397c0.02332,0.13719 0.03547,0.27818 0.03547,0.42202c0,1.38071 -1.11929,2.5 -2.5,2.5c-1.21881,0 -2.23391,-0.87218 -2.45521,-2.02646l-0.07287,-0.34228c-0.41727,2.88037 -0.57292,5.79275 -0.85683,8.68936c-0.32334,3.29893 -0.70718,6.59268 -0.95992,9.89776c-0.02666,0.34869 -0.5026,9.45953 -0.51497,9.51368l-0.26968,4.97663c-0.06223,1.32535 -1.15647,2.38077 -2.49721,2.38077c-1.20247,0 -2.20666,-0.84896 -2.44589,-1.9802l-1.01924,-4.36014c-0.51153,-1.49418 -1.03628,-2.9548 -1.49938,-4.42826c0.01994,4.45265 0.14468,9.11676 -0.71771,13.1868l-0.23562,4.98026c-0.05452,1.33248 -1.152,2.396 -2.49788,2.396c-1.11762,0 -2.06395,-0.73337 -2.38402,-1.74514l-1.39909,-4.08721c-1.65855,-3.35983 -3.36903,-6.18385 -5.93964,-8.95547c-0.23398,-0.25227 -0.81193,-0.76661 -0.9318,-0.4441c-0.17805,0.47904 0.48264,0.92032 0.56748,1.42429c0.69413,4.12324 0.71434,8.28103 1.56669,12.39123c1.30118,6.27459 2.82639,12.12518 4.85738,18.19954c0.46442,1.38901 3.03767,8.73348 2.99385,10.10769c-0.00419,0.13152 -0.01121,0.26265 -0.02083,0.39343l0.03031,0.00167l-0.26212,4.74855c-0.06336,1.32429 -1.15711,2.37853 -2.4971,2.37853c-0.6401,0 -1.22402,-0.24057 -1.66627,-0.63622l-1.98917,-1.76272l0.03463,-0.03908l-0.15691,-0.07686c-1.74668,-2.02534 -3.51067,-4.04103 -5.39628,-5.9377c-2.9189,-3.19621 -5.69105,-6.69192 -8.82068,-9.67575c-0.81486,-0.7769 -1.73616,-1.43422 -2.656,-2.09229c0.67834,1.39211 1.26798,2.84197 2.01404,4.19361c4.04385,7.32637 7.40822,14.83954 10.75869,22.50294c0.87872,2.00987 1.76585,4.07907 3.07316,5.83553c-0.02911,-0.51881 -0.05105,-0.91036 -0.06156,-1.09719l0.07026,-0.19038l-0.05853,-0.00581l0.49155,-4.94816c0.11129,-1.27778 1.18382,-2.28022 2.49047,-2.28022c1.13773,0 2.09795,0.76 2.40068,1.80002l0.80346,2.53872l-0.04997,0.01582c0.0433,0.09051 0.08443,0.18228 0.12322,0.2754c0.40232,0.96592 0.47842,3.26679 0.21257,5.48949c0.23665,-0.07428 0.48846,-0.11433 0.74962,-0.11433c1.17334,0 2.15789,0.80832 2.42716,1.89849l0.77479,2.85957l-0.04987,0.01351c0.04532,0.1231 0.0864,0.24815 0.12279,0.37535c0.52321,1.82867 -0.19081,3.79931 -0.28621,5.69896l-0.14906,0.28006l0.07489,0.02335l-1.47162,4.71907c-0.03537,0.12342 -0.07998,0.24293 -0.13305,0.35773c0.03404,0.76316 0.08501,1.5262 0.09944,2.28979c0.00349,0.1849 -0.13969,0.71237 -0.04611,0.55287c1.82663,-3.11327 3.85328,-6.20262 5.6707,-9.33793c1.33552,-2.30397 1.64541,-5.20248 3.33806,-7.25841c0.02542,-0.03088 0.05104,-0.06156 0.07684,-0.09206l-0.02327,-0.01261l1.55361,-2.86696c0.41557,-0.80412 1.25477,-1.3538 2.22235,-1.3538c1.38071,0 2.5,1.11929 2.5,2.5c0,0.32747 -0.06296,0.64024 -0.17744,0.92685l-1.54781,4.15454c-2.44058,7.2179 -5.27785,14.42645 -7.30144,21.77196c-0.16571,0.60152 -0.31838,1.20847 -0.47125,1.81571c1.95198,-3.08691 3.90803,-6.17135 5.84797,-9.26574c0.04222,-0.06735 5.32116,-8.55354 5.32977,-8.56237c0.02214,-0.0227 0.04434,-0.04532 0.06662,-0.06787l-0.01246,-0.00912l2.93498,-4.00931c0.45338,-0.63472 1.19622,-1.04848 2.0357,-1.04848c1.38071,0 2.5,1.11929 2.5,2.5c0,0.34196 -0.06866,0.66789 -0.19294,0.96475l-1.70231,4.34685l-0.01049,-0.00411l-0.0031,0.03808c-3.14044,7.37584 -6.61618,14.5975 -9.57644,22.04924c0,0 -0.92325,2.32328 -3.24652,1.40003c-1.76043,-0.69958 -1.65682,-2.203 -1.5033,-2.89039c-0.09231,0.14579 -0.1846,0.29158 -0.27689,0.43738l-0.12166,0.09296l0.0312,0.02536l-2.35331,2.89515c-0.45812,0.57288 -1.16298,0.93984 -1.95355,0.93984c-1.26851,0 -2.31636,-0.94476 -2.47829,-2.16903l-0.73137,-4.90788l0.03421,-0.0051c-0.02345,-0.14348 -0.04373,-0.28768 -0.06056,-0.43267c-0.19299,-1.66285 1.23884,-6.02272 2.14897,-8.69798c-0.61001,0.6031 -1.2909,1.04936 -2.11705,1.11463c-1.90284,0.15034 -3.80581,-1.5117 -4.77999,-3.15315c-0.92552,-1.55946 -0.72489,-3.53376 -0.71978,-5.38808l-2.034,-3.2286l0.03235,-0.02038c-0.09544,-0.15427 -0.18629,-0.31178 -0.27201,-0.47289c-0.88086,-1.6555 -0.56332,-3.70975 -0.7462,-5.57607c-0.00758,-0.07739 -0.03334,-0.49293 -0.06956,-1.10567c-2.53443,-1.10594 -4.78116,-3.76997 -5.85642,-5.53736c-2.5567,-4.20242 -4.21299,-9.51814 -6.19578,-14.02663c-2.39316,-5.4416 -5.30176,-10.50282 -8.07826,-15.74847c-0.4657,-0.87985 -4.61718,-8.20984 -3.66304,-9.53501c1.21093,-1.6818 4.00701,-1.82899 6.045,-1.45298c1.93487,0.35699 3.20557,2.28266 4.78812,3.45171c4.53673,3.35132 8.04747,7.89568 11.83657,12.04761c0.94055,0.94737 1.85144,1.92382 2.7447,2.91654c-0.80397,-2.31507 -1.3951,-4.72207 -2.17724,-7.05947c-2.94939,-8.81425 -5.24252,-17.64081 -6.18312,-26.91089c-0.15418,-1.51948 -1.35148,-8.939 0.52135,-10.34512c4.95592,-3.72087 9.20638,1.08556 12.06197,5.80776c0.18332,-4.33151 0.34201,-8.65675 0.57361,-12.98683l0.08251,-0.16453l-0.05446,-0.01071l0.51906,-2.63859c0.20691,-1.17208 1.2304,-2.06243 2.46184,-2.06243c0.79388,0 1.50133,0.37004 1.95929,0.94704l3.09099,3.82929c0.03278,-0.29268 0.06123,-0.58483 0.08351,-0.87629c0.47958,-6.2732 0.89688,-12.74668 1.85963,-18.96476c0.10607,-0.6851 0.81716,-7.71908 3.26518,-9.09515c-0.04681,-0.54349 -0.08939,-1.13155 -0.13031,-1.77445l-0.00481,-1.74324c0,0 0,-2.5 2.5,-2.5z"/></g></g></svg>