<svg version="1.1" xmlns="http://www.w3.org/2000/svg" xmlns:xlink="http://www.w3.org/1999/xlink" width="102.64755" height="95.35521" viewBox="0,0,102.64755,95.35521"><g transform="translate(-425.44086,-124.89478)"><g stroke-miterlimit="10"><path d="M444.82949,180c0,-21.81525 17.68475,-39.5 39.5,-39.5c21.81525,0 39.5,17.68475 39.5,39.5c0,21.81525 -17.68475,39.5 -39.5,39.5c-21.81525,0 -39.5,-17.68475 -39.5,-39.5z" fill="#d8d8d8" stroke="#000000" stroke-width="1.5" stroke-linecap="butt"/><g><path d="M521.4174,166.85681l6.04229,1.93604l-3.07489,9.59658l-6.04229,-1.93604z" fill="#989898" stroke="#000000" stroke-width="1" stroke-linecap="butt"/><path d="M507.57415,190.17381c3.03427,0.97223 4.7059,4.22015 3.73367,7.25442c-0.97223,3.03427 -4.22015,4.7059 -7.25442,3.73367c-3.03427,-0.97223 -4.7059,-4.22015 -3.73367,-7.25442c0.97223,-3.03427 4.22015,-4.7059 7.25442,-3.73367z" fill="none" stroke="#000000" stroke-width="0.5" stroke-linecap="butt"/><path d="M507.46561,196.0017l7.60904,-23.74748l11.10198,3.16532l-10.44867,32.60982l-3.616,8.05148l-4.61,-10.68721l-17.29473,-5.54149l3.06646,-9.57027l7.798,2.49859z" fill="#989898" stroke="#000000" stroke-width="1" stroke-linecap="round"/><path d="M517.01765,187.53185l5.31682,1.70359l-2.15788,6.73464l-5.31682,-1.70359z" fill="#00f6ff" stroke="none" stroke-width="0" stroke-linecap="butt"/><path d="M520.33315,179.01903l5.31682,1.70359l-2.15788,6.73464l-5.31682,-1.70359z" fill="#00f6ff" stroke="none" stroke-width="0" stroke-linecap="butt"/></g><path d="M468.06107,163.31407h12.87638" fill="none" stroke="#000000" stroke-width="1.5" stroke-linecap="round"/><path d="M470.67367,164.43375v10.07717" fill="none" stroke="#000000" stroke-width="1.5" stroke-linecap="round"/><path d="M485.04296,163.50068h13.24961" fill="none" stroke="#000000" stroke-width="1.5" stroke-linecap="round"/><path d="M485.80407,174.88415l0.15196,-10.63701" fill="none" stroke="#000000" stroke-width="1.5" stroke-linecap="round"/><g stroke="#000000" stroke-linecap="butt"><path d="M452.26483,161.30016l-9.00887,-12.36942l5.43047,-3.95512l9.00888,12.36944z" fill="#989898" stroke-width="1"/><path d="M442.26481,151.37678c-4.07554,0.79286 -3.86573,-2.32086 -2.92834,-4.02065c0.93741,-1.6998 8.59974,-6.26334 8.59974,-6.26334l2.92834,4.02068c0,0 -4.52422,5.4705 -8.59974,6.26333z" fill="#d3d3d3" stroke-width="0.5"/><path d="M441.93758,147.12057l-15.9303,-21.87273l7.40978,1.29835c0,0 -0.62995,3.2558 0.456,4.74686c0.75698,1.03937 1.89075,-0.72538 3.73725,1.18872c3.62911,3.762 8.55102,11.56261 8.55102,11.56261z" fill="#00e6ff" stroke-width="0.5"/></g><path d="M468.99414,188.04206c0,-2.11282 3.42555,-3.82559 7.65118,-3.82559c4.22563,0 7.65118,1.71278 7.65118,3.82559c0,2.11282 -15.30236,2.11282 -15.30236,0z" fill="#000000" stroke="#000000" stroke-width="1.5" stroke-linecap="butt"/></g></g></svg>