<svg version="1.1" xmlns="http://www.w3.org/2000/svg" xmlns:xlink="http://www.w3.org/1999/xlink" width="107.6399" height="80.5" viewBox="0,0,107.6399,80.5"><g transform="translate(-171.59863,-137.92395)"><g data-paper-data="{&quot;isPaintingLayer&quot;:true}" fill-rule="nonzero" stroke-linejoin="miter" stroke-miterlimit="10" stroke-dasharray="" stroke-dashoffset="0" style="mix-blend-mode: normal"><path d="M199.48853,178.17395c0,-21.81525 17.68475,-39.5 39.5,-39.5c21.81525,0 39.5,17.68475 39.5,39.5c0,21.81525 -17.68475,39.5 -39.5,39.5c-21.81525,0 -39.5,-17.68475 -39.5,-39.5z" fill="#d8d8d8" stroke="#000000" stroke-width="1.5" stroke-linecap="butt"></path><path d="M217.09444,165.86411l9,1v8" fill="none" stroke="#000000" stroke-width="1.5" stroke-linecap="round"></path><path d="M232.5346,174.67749v-8l9,-1" data-paper-data="{&quot;index&quot;:null}" fill="none" stroke="#000000" stroke-width="1.5" stroke-linecap="round"></path><path d="M230.98853,198.04895c0,0 0.3445,-8.61004 5.78628,-9.03188c5.30472,-0.41122 12.46372,8.03188 12.46372,8.03188z" fill="#040404" stroke="#000000" stroke-width="1.5" stroke-linecap="round"></path><g stroke="#000000" stroke-width="1"><path d="M210.59248,216.43573l-2.19219,-20.88527l8.20492,-0.86122l2.19219,20.88527z" fill="#af5400" stroke-linecap="butt"></path><path d="M217.43555,204.45593c0,0 -3.46976,-0.42035 -4.96993,-1.33291c-1.35049,-0.82149 -3.62935,-3.89799 -3.62935,-3.89799" fill="none" stroke-linecap="round"></path><path d="M216.98174,199.17445c0,0 -1.59039,3.48263 -2.74087,4.56662c-1.278,1.20416 -4.58486,2.33581 -4.58486,2.33581" data-paper-data="{&quot;index&quot;:null}" fill="none" stroke-linecap="round"></path><path d="M217.97458,204.80155c0,0 -1.59039,3.48263 -2.74087,4.56662c-1.278,1.20416 -4.58486,2.33581 -4.58486,2.33581" data-paper-data="{&quot;index&quot;:null}" fill="none" stroke-linecap="round"></path><path d="M218.30255,210.80009c0,0 -3.46976,-0.42036 -4.96994,-1.33291c-1.35049,-0.82149 -3.62935,-3.89799 -3.62935,-3.89799" data-paper-data="{&quot;index&quot;:null}" fill="none" stroke-linecap="round"></path><path d="M221.13365,192.79251c0.1326,1.26331 -3.58922,2.68937 -8.31291,3.18518c-4.7237,0.49581 -8.66051,-0.12637 -8.79311,-1.38968c-0.1326,-1.26331 3.58922,-2.68937 8.31291,-3.18518c4.7237,-0.49581 8.66051,0.12637 8.79311,1.38968z" fill="#8f8f8f" stroke-linecap="butt"></path><path d="M209.07231,192.68284l-5.08901,-48.48365c0,0 2.00438,-1.46726 3.10175,-1.58244c1.1388,-0.11953 3.61137,0.87781 3.61137,0.87781l5.08901,48.48365z" fill="#dddddd" stroke-linecap="butt"></path></g><path d="M172.42058,182.06797c-2.06559,-1.92055 0.41312,-3.52101 0.41312,-3.52101c0.59063,-0.37533 1.10112,-0.71661 1.57242,-1.02812c0.45013,-0.36826 0.94562,-0.67728 1.47836,-0.93187c1.21317,-0.69983 2.47477,-1.20492 4.67481,-1.60839c5.64887,-1.03595 13.25162,1.32426 16.82993,4.87288c2.77372,2.75069 2.1336,4.08902 2.19743,7.30556l-0.54539,2.54963c0,0 -0.15009,0.63962 -0.71816,1.20721c-0.92516,3.06179 -2.97178,6.03791 -4.88358,8.63186c-1.08425,1.47112 -1.17004,4.02654 -3.30565,4.3897c-2.12994,0.3622 -3.67012,-1.8399 -5.34921,-2.91795c-3.64488,-2.34017 -5.34524,-5.6609 -6.86616,-8.9878c-0.4257,-0.25651 -0.66693,-0.50572 -0.66693,-0.50572l-0.76822,-0.79409c-1.66423,-1.82553 -2.791,-3.95866 -3.54989,-6.11495c-0.00119,-0.58726 -0.04278,-1.35139 -0.04127,-2.17135c-0.15872,-0.10676 -0.31633,-0.23123 -0.47161,-0.37561z" fill="#0bff2c" stroke="none" stroke-width="0.5" stroke-linecap="butt"></path></g></g></svg>