<svg version="1.1" xmlns="http://www.w3.org/2000/svg" xmlns:xlink="http://www.w3.org/1999/xlink" width="170.95045" height="80.5" viewBox="0,0,170.95045,80.5"><g transform="translate(-184.52581,-137.92395)"><g data-paper-data="{&quot;isPaintingLayer&quot;:true}" fill-rule="nonzero" stroke-linejoin="miter" stroke-miterlimit="10" stroke-dasharray="" stroke-dashoffset="0" style="mix-blend-mode: normal"><path d="" data-paper-data="{&quot;index&quot;:null}" fill="none" stroke="#000000" stroke-width="1.5" stroke-linecap="round"></path><path d="M199.48853,178.17395c0,-21.81525 17.68475,-39.5 39.5,-39.5c21.81525,0 39.5,17.68475 39.5,39.5c0,21.81525 -17.68475,39.5 -39.5,39.5c-21.81525,0 -39.5,-17.68475 -39.5,-39.5z" fill="#d8d8d8" stroke="#000000" stroke-width="1.5" stroke-linecap="butt"></path><path d="M253.0852,194.16859c0,0 -22.12613,8.02511 -27.57511,5.13694" data-paper-data="{&quot;index&quot;:null}" fill="none" stroke="#000000" stroke-width="1.5" stroke-linecap="round"></path><path d="M184.52581,194.65338" fill="none" stroke="#d8d8d8" stroke-width="4" stroke-linecap="round"></path><path d="M232.30735,175.42396v-8" fill="none" stroke="#000000" stroke-width="1.5" stroke-linecap="round"></path><path d="M241.28665,173.49279c0,0 1.27486,-2.93117 2.69835,-2.93117c1.20746,0 3.02185,2.93117 3.02185,2.93117" fill="none" stroke="#000000" stroke-width="1.5" stroke-linecap="round"></path><g data-paper-data="{&quot;index&quot;:null}"><path d="M267.53068,188.63978l55.41036,-10.57489l0.72931,3.82141l-55.41036,10.57489z" fill="#7f7600" stroke="#000000" stroke-width="0" stroke-linecap="butt"></path><path d="M325.88887,179.00513c-0.78635,-4.27926 2.04523,-8.38574 6.32447,-9.17208c4.27926,-0.78635 8.38574,2.04523 9.17208,6.32447c0.78635,4.27926 -2.04523,8.38574 -6.32447,9.17208c-4.27926,0.78635 -8.38574,-2.04523 -9.17208,-6.32447z" fill="none" stroke="#ffee00" stroke-width="5" stroke-linecap="butt"></path><path d="M341.977,173.18105c0,0 9.72395,-3.30706 10.24927,0.88548c0.52533,4.19253 -9.54207,5.11561 -9.54207,5.11561" fill="none" stroke="#ffee00" stroke-width="6.5" stroke-linecap="round"></path><path d="M329.27044,169.95028c0,0 -3.30705,-9.72395 0.88548,-10.24927c4.19252,-0.52531 5.1156,9.54208 5.1156,9.54208" fill="none" stroke="#ffee00" stroke-width="6.5" stroke-linecap="round"></path><path d="M325.27655,182.0691c0,0 -9.72395,3.30706 -10.24927,-0.88548c-0.52531,-4.19254 9.54209,-5.11561 9.54209,-5.11561" fill="none" stroke="#ffee00" stroke-width="6.5" stroke-linecap="round"></path><path d="M338.86732,185.90141c0,0 3.30705,9.72395 -0.88548,10.24926c-4.19253,0.52533 -5.11561,-9.54207 -5.11561,-9.54207" fill="none" stroke="#ffee00" stroke-width="6.5" stroke-linecap="round"></path></g></g></g></svg>