<svg version="1.1" xmlns="http://www.w3.org/2000/svg" xmlns:xlink="http://www.w3.org/1999/xlink" width="81.00005" height="115.00949" viewBox="0,0,81.00005,115.00949"><defs><radialGradient cx="480" cy="180" r="39.25" gradientUnits="userSpaceOnUse" id="color-1"><stop offset="0" stop-color="#ebebeb"/><stop offset="1" stop-color="#dbdbdb"/></radialGradient><radialGradient cx="477.61363" cy="121.65322" r="10.40536" gradientUnits="userSpaceOnUse" id="color-2"><stop offset="0" stop-color="#ffffff" stop-opacity="0.65098"/><stop offset="1" stop-color="#e9e9e9"/></radialGradient></defs><g transform="translate(-439.49996,-105.49053)"><g stroke-miterlimit="10"><path d="" fill="none" stroke="#000000" stroke-width="1.5" stroke-linecap="round"/><path d="M452.69113,208.19199c-15.57001,-15.08227 -15.96539,-39.93085 -0.88313,-55.50085c15.08227,-15.57001 39.93085,-15.96539 55.50085,-0.88313c15.57001,15.08227 15.96539,39.93085 0.88313,55.50085c-15.08227,15.57001 -39.93085,15.96539 -55.50085,0.88313z" fill="url(#color-1)" stroke="#ffffff" stroke-width="2.5" stroke-linecap="butt"/><path d="M482.08421,172.82309c4.58325,5.52648 6.66173,11.36416 4.64243,13.03881c-2.01929,1.67464 -7.3717,-1.44789 -11.95494,-6.97437c-4.58325,-5.52648 -6.66173,-11.36416 -4.64243,-13.03881c2.01929,-1.67464 7.3717,1.44789 11.95494,6.97437z" fill="#ffffff" stroke="#000000" stroke-width="1.5" stroke-linecap="butt"/><path d="M496.39994,161.57899c4.58325,5.52648 6.66174,11.36417 4.64244,13.03881c-2.01929,1.67464 -7.3717,-1.44789 -11.95494,-6.97438c-4.58325,-5.52648 -6.66174,-11.36415 -4.64244,-13.0388c2.01929,-1.67464 7.37169,1.44788 11.95495,6.97437z" fill="#ffffff" stroke="#000000" stroke-width="1.5" stroke-linecap="butt"/><path d="M467.20827,121.65322c0,-5.74672 4.65864,-10.40536 10.40536,-10.40536c5.74672,0 10.40536,4.65864 10.40536,10.40536c0,5.74672 -4.65864,10.40536 -10.40536,10.40536c-5.74672,0 -10.40536,-4.65864 -10.40536,-10.40536z" fill="url(#color-2)" stroke-opacity="0.65098" stroke="#ffffff" stroke-width="2" stroke-linecap="butt"/><path d="M480.92796,107.99053c0,2.5 -2.5,2.5 -2.5,2.5l-0.20003,-0.05549c-2.72257,0.57897 -5.03253,1.32125 -7.4819,2.65208c0,0 -2.20118,1.18525 -3.38643,-1.01593c-1.18525,-2.20118 1.01593,-3.38643 1.01593,-3.38643c2.87091,-1.53402 5.62614,-2.45294 8.80475,-3.13873l1.24767,-0.05549c0,0 2.5,0 2.5,2.5z" fill-opacity="0.23529" fill="#ffffff" stroke="none" stroke-width="0.5" stroke-linecap="butt"/><path d="M490.39815,128.57817c-2.49136,0.20761 -2.69898,-2.28375 -2.69898,-2.28375l-0.18575,-2.24049c-0.18082,-3.34874 -0.79153,-6.52017 -1.40873,-9.81187c0,0 -0.46072,-2.45718 1.99646,-2.9179c2.45718,-0.46072 2.9179,1.99646 2.9179,1.99646c0.65735,3.50591 1.2835,6.88991 1.48667,10.45596l0.17618,2.10261c0,0 0.20761,2.49136 -2.28375,2.69898z" fill-opacity="0.23529" fill="#ffffff" stroke="none" stroke-width="0.5" stroke-linecap="butt"/><path d="M464.1876,127.942c1.58309,-1.93489 3.51799,-0.3518 3.51799,-0.3518l1.56641,1.3484c3.21606,0.83389 6.40178,1.44348 9.69048,1.91184c0,0 2.47487,0.35355 2.12132,2.82843c-0.35355,2.47487 -2.82843,2.12132 -2.82843,2.12132c-3.87336,-0.55497 -7.55538,-1.29734 -11.3012,-2.43127l-2.41477,-1.90893c0,0 -1.93489,-1.58309 -0.3518,-3.51799z" fill-opacity="0.23529" fill="#ffffff" stroke="none" stroke-width="0.5" stroke-linecap="butt"/></g></g></svg>