<svg version="1.1" xmlns="http://www.w3.org/2000/svg" xmlns:xlink="http://www.w3.org/1999/xlink" width="84.8417" height="87.37699" viewBox="0,0,84.8417,87.37699"><g transform="translate(-338.09279,-132.873)"><g data-paper-data="{&quot;isPaintingLayer&quot;:true}" fill-rule="nonzero" stroke-linejoin="miter" stroke-miterlimit="10" stroke-dasharray="" stroke-dashoffset="0" style="mix-blend-mode: normal"><g stroke="none" stroke-linecap="butt"><path d="M378.69415,149.813c0,7.15087 -2.77459,12.9478 -6.19723,12.9478c-3.42264,0 -3.31995,-5.13294 -3.31995,-12.28381c0,-7.15087 -12.49716,-12.50513 -9.07452,-12.50513c2.07506,0 10.23841,-1.15328 14.95066,1.79785c3.0602,1.91651 3.64104,7.22782 3.64104,10.04329z" data-paper-data="{&quot;index&quot;:null}" fill="#ffffff" stroke-width="NaN"></path><path d="M383.71563,149.10062c0,9.61954 -3.73246,17.41771 -8.33668,17.41771c-4.60422,0 -4.46608,-6.90496 -4.46608,-16.5245c0,-9.61954 -16.81151,-16.82224 -12.20729,-16.82224c2.79143,0 13.77298,-1.55142 20.11203,2.41852c4.11666,2.57813 4.89802,9.72306 4.89802,13.5105z" fill="#a97eff" stroke-width="NaN"></path></g><path d="" data-paper-data="{&quot;index&quot;:null}" fill="none" stroke="#000000" stroke-width="1.5" stroke-linecap="round"></path><path d="" data-paper-data="{&quot;index&quot;:null}" fill="none" stroke="#000000" stroke-width="1.5" stroke-linecap="round"></path><path d="" data-paper-data="{&quot;index&quot;:null}" fill="none" stroke="#000000" stroke-width="1.5" stroke-linecap="round"></path><path d="" data-paper-data="{&quot;index&quot;:null}" fill="none" stroke="#000000" stroke-width="1.5" stroke-linecap="round"></path><path d="M338.84279,180c0,-21.81525 17.68475,-39.5 39.5,-39.5c21.81525,0 39.5,17.68475 39.5,39.5c0,21.81525 -17.68475,39.5 -39.5,39.5c-21.81525,0 -39.5,-17.68475 -39.5,-39.5z" fill="#d8d8d8" stroke="#000000" stroke-width="1.5" stroke-linecap="butt"></path><path d="" data-paper-data="{&quot;index&quot;:null}" fill="none" stroke="#000000" stroke-width="1.5" stroke-linecap="butt"></path><path d="M359.25813,179.44025c0,0 4.27006,-12.75463 7.66142,-12.69297c3.45015,0.06273 6.89449,12.31974 6.89449,12.31974" fill="none" stroke="#000000" stroke-width="1.5" stroke-linecap="round"></path><path d="M378.06758,180.70797c0,0 4.27006,-12.75463 7.66142,-12.69297c3.45015,0.06273 6.89448,12.31974 6.89448,12.31974" fill="none" stroke="#000000" stroke-width="1.5" stroke-linecap="round"></path><path d="M383.32281,194.29719c0,0 -9.75782,5.67335 -13.51378,4.76674c-2.95311,-0.71282 -7.19826,-9.7662 -7.19826,-9.7662" fill="none" stroke="#000000" stroke-width="1.5" stroke-linecap="round"></path><g stroke="none" stroke-linecap="butt"><path d="M402.02403,143.15864c6.33904,-3.96994 17.3206,-2.41852 20.11203,-2.41852c4.60422,0 -12.20729,7.20269 -12.20729,16.82223c0,9.61954 0.13815,16.5245 -4.46608,16.5245c-4.60422,0 -8.33668,-7.79818 -8.33668,-17.41772c0,-3.78744 0.78137,-10.93236 4.89802,-13.51049z" data-paper-data="{&quot;index&quot;:null}" fill="#a97eff" stroke-width="NaN"></path><path d="M405.76705,147.46135c4.71225,-2.95114 12.8756,-1.79786 14.95066,-1.79786c3.42264,0 -9.07452,5.35426 -9.07452,12.50513c0,7.15087 0.10269,12.28381 -3.31995,12.28381c-3.42264,0 -6.19724,-5.79692 -6.19724,-12.94779c0,-2.81547 0.58085,-8.12678 3.64104,-10.04329z" data-paper-data="{&quot;index&quot;:null}" fill="#ffffff" stroke-width="NaN"></path></g></g></g></svg>