<svg version="1.1" xmlns="http://www.w3.org/2000/svg" xmlns:xlink="http://www.w3.org/1999/xlink" width="170.10515" height="159.00417" viewBox="0,0,170.10515,159.00417"><g transform="translate(-148.75552,-115.07781)"><g data-paper-data="{&quot;isPaintingLayer&quot;:true}" fill-rule="nonzero" stroke-linejoin="miter" stroke-miterlimit="10" stroke-dasharray="" stroke-dashoffset="0" style="mix-blend-mode: normal"><path d="M292.65068,196.87896c0,-4.47177 3.62509,-8.09686 8.09686,-8.09686c4.47177,0 8.09686,3.62509 8.09686,8.09686c0,4.47177 -3.62509,8.09686 -8.09686,8.09686c-4.47177,0 -8.09686,-3.62509 -8.09686,-8.09686z" fill="#ffffff" stroke="#000000" stroke-width="1" stroke-linecap="butt"></path><path d="M217.09442,165.86414l9,1v8" fill="none" stroke="#000000" stroke-width="1.5" stroke-linecap="round"></path><path d="M232.53458,174.67753v-8l9,-1" data-paper-data="{&quot;index&quot;:null}" fill="none" stroke="#000000" stroke-width="1.5" stroke-linecap="round"></path><path d="M230.98851,198.04897c0,0 0.3445,-8.61004 5.78628,-9.03188c5.30472,-0.41122 12.46372,8.03188 12.46372,8.03188z" fill="#040404" stroke="#000000" stroke-width="1.5" stroke-linecap="round"></path><path d="M200.73697,171.0911c0,-18.19082 17.29485,-32.9374 38.62913,-32.9374c21.33428,0 38.62913,14.74658 38.62913,32.9374c0,11.22687 -2.48212,24.8741 -12.54127,30.82016c-0.42004,0.24829 -5.31543,2.90997 -5.31543,2.90997l-0.22453,13.91683l-12.57806,0.95271l-0.50527,-15.47565l0.06963,15.5724l-14.72842,0.20478l-0.46155,-15.93384l0.80812,15.80985l-16.17468,-0.08649c0,0 0.11388,-16.75516 -0.28778,-16.80951c-2.62384,-0.355 -2.02116,-0.00099 -3.86634,-0.93632c-11.32682,-5.74167 -11.45268,-18.89377 -11.45268,-30.94489z" fill="#ffffff" stroke="#000000" stroke-width="2" stroke-linecap="butt"></path><path d="M243.83743,171.09869c0,5.92619 -3.30023,10.73031 -7.37126,10.73031c-4.07103,0 -7.37126,-4.80413 -7.37126,-10.73031c0,-5.92619 -0.9919,-11.10354 3.07913,-11.10354c3.22238,0 10.77427,7.53515 10.77427,7.53515c0,0 0.88912,2.33301 0.88912,3.56839z" fill="#ababab" stroke="#000000" stroke-width="1" stroke-linecap="butt"></path><path d="M261.57705,161.07621c4.07103,0 3.07913,5.17736 3.07913,11.10354c0,5.92619 -3.30022,10.73032 -7.37126,10.73032c-4.07103,0 -7.37126,-4.80413 -7.37126,-10.73032c0,-1.23538 0.88912,-3.56839 0.88912,-3.56839c0,0 7.55188,-7.53515 10.77427,-7.53515z" data-paper-data="{&quot;index&quot;:null}" fill="#ababab" stroke="#000000" stroke-width="1" stroke-linecap="butt"></path><path d="" data-paper-data="{&quot;index&quot;:null}" fill="none" stroke="#000000" stroke-width="1.5" stroke-linecap="round"></path><path d="" data-paper-data="{&quot;index&quot;:null}" fill="none" stroke="#000000" stroke-width="1.5" stroke-linecap="round"></path><path d="" data-paper-data="{&quot;index&quot;:null}" fill="none" stroke="#000000" stroke-width="1.5" stroke-linecap="round"></path><path d="" data-paper-data="{&quot;index&quot;:null}" fill="none" stroke="#000000" stroke-width="1.5" stroke-linecap="round"></path><path d="" data-paper-data="{&quot;index&quot;:null}" fill="none" stroke="#000000" stroke-width="1.5" stroke-linecap="round"></path><path d="" data-paper-data="{&quot;index&quot;:null}" fill="none" stroke="#000000" stroke-width="1.5" stroke-linecap="round"></path><path d="" data-paper-data="{&quot;index&quot;:null}" fill="none" stroke="#000000" stroke-width="1.5" stroke-linecap="round"></path><path d="" data-paper-data="{&quot;index&quot;:null}" fill="none" stroke="#000000" stroke-width="1.5" stroke-linecap="round"></path><path d="" data-paper-data="{&quot;index&quot;:null}" fill="none" stroke="#000000" stroke-width="1.5" stroke-linecap="round"></path><path d="" data-paper-data="{&quot;index&quot;:null}" fill="none" stroke="#000000" stroke-width="1.5" stroke-linecap="round"></path><path d="M154.84531,196.24391c0,-4.99786 4.05157,-9.04943 9.04943,-9.04943c4.99786,0 9.04943,4.05157 9.04943,9.04943c0,4.99786 -4.05157,9.04943 -9.04943,9.04943c-4.99786,0 -9.04943,-4.05157 -9.04943,-9.04943z" fill="#ffffff" stroke="#000000" stroke-width="1" stroke-linecap="butt"></path><path d="M158.8627,149.50074c-0.76113,-1.52226 0.03221,-2.52636 0.61629,-3.0123c0.35388,-2.3155 0.66302,-5.97147 1.76933,-7.41021c0.00337,-0.00438 0.00676,-0.00872 0.01018,-0.01304c-1.34817,-5.5846 -1.07211,-10.95207 -1.07211,-16.71944c0,0 0,-2.5 2.5,-2.5c2.5,0 2.5,2.5 2.5,2.5c0,3.28108 0,6.56216 0,9.84324c0,0.54547 0.11218,1.11178 0.14383,1.66314c1.18017,0.20022 2.07884,1.2275 2.07884,2.46468c0,0.32061 -0.06035,0.62712 -0.17031,0.90879l-1.2503,3.43833l-0.22211,-0.08077c-0.42986,2.65224 -0.97598,5.25204 -1.59205,8.02436l-1.95748,2.01127c0,0 -2.23607,1.11803 -3.3541,-1.11803z" fill="#9b00c4" stroke="none" stroke-width="0.5" stroke-linecap="butt"></path><path d="M161.73381,238.59968c2.5,0 2.5,2.5 2.5,2.5v0.63505c0,3.19896 -0.32243,5.9518 -0.64515,9.11518c-0.08908,0.87321 0.2868,1.80021 0.0101,2.6332c-0.00911,0.02742 -0.02338,0.05493 -0.042,0.08239c0.63838,-0.50537 1.25378,-1.0192 1.762,-0.59101c1.21696,1.02534 0.89395,3.06388 1.13772,4.63642c0.68342,4.40885 -0.64068,9.50045 -0.63505,13.97105c0,0 0,2.5 -2.5,2.5c-2.5,0 -2.5,-2.5 -2.5,-2.5c0.00336,-2.90775 0.15087,-5.81328 0.32135,-8.7114c0.09309,-1.58261 -0.25595,-3.26418 0.15331,-4.77656c-0.57103,0.42924 -1.12678,0.74212 -1.55961,0.34304c-1.24564,-1.1485 -0.90228,-3.27608 -1.13772,-4.95395c-0.52302,-3.72738 0.63505,-7.92465 0.63505,-11.74838v-0.63505c0,0 0,-2.5 2.5,-2.5zM162.97957,253.99157c-0.39116,0.20357 -0.77443,0.32871 -0.51852,0.25303c0.17158,-0.05074 0.34497,-0.14127 0.51852,-0.25303z" fill="#9b00c4" stroke="none" stroke-width="0.5" stroke-linecap="butt"></path><path d="M300.80928,148.66004c-2.5,0 -2.5,-2.5 -2.5,-2.5l0.06402,-2.78482c0.18147,-0.75799 0.36554,-1.57798 0.64011,-2.34431c-1.28328,-0.10582 -2.29175,-1.18087 -2.29175,-2.49145c0,-0.09542 0.00535,-0.18959 0.01575,-0.28222l0.31418,-3.14178l0.05868,0.00587l-0.03406,-0.18579c1.21409,-4.87238 2.53654,-9.80979 3.15752,-14.80503c0,0 0.31009,-2.48069 2.79078,-2.17061c2.48069,0.31009 2.17061,2.79078 2.17061,2.79078c-0.56229,4.47549 -1.64872,8.89977 -2.74859,13.27509c0.82354,0.36077 1.41528,1.15258 1.48984,2.09006l0.31522,3.46737l-0.04172,0.00379c0.01882,0.13016 0.03433,0.261 0.04619,0.39259c0.13866,1.53762 -0.67387,3.01328 -1.0108,4.51992l0.06402,1.66052c0,0 0,2.5 -2.5,2.5z" fill="#9b00c4" stroke="none" stroke-width="0.5" stroke-linecap="butt"></path><path d="M299.22166,245.26768c2.5,0 2.5,2.5 2.5,2.5v0.31752c0,1.93232 -0.81293,6.38153 0.48068,8.06394c0.78798,1.02481 2.55228,1.15689 3.10284,2.32652c0.56784,1.20634 0.0481,2.67603 -0.12583,3.99794c-0.53395,4.05817 -0.98508,4.65354 -2.36639,8.1317c0,0 -0.92848,2.32119 -3.24967,1.39272c-2.32119,-0.92848 -1.39272,-3.24967 -1.39272,-3.24967c0.92339,-2.28989 1.44393,-4.72344 2.07894,-7.10944c0.10255,-0.38533 0.76199,-0.77405 0.50921,-1.08244c-0.63487,-0.77457 -2.06238,-0.64694 -2.61259,-1.48377c-2.07407,-3.15454 -1.42447,-7.46291 -1.42447,-10.98749v-0.31752c0,0 0,-2.5 2.5,-2.5z" fill="#9b00c4" stroke="none" stroke-width="0.5" stroke-linecap="butt"></path><path d="M289.54042,269.50835c-2.37171,-0.79057 -1.58114,-3.16228 -1.58114,-3.16228l0.4047,-1.17735c0.72658,-1.54695 1.08966,-3.30889 1.05462,-5.01761c0,0 0,-2.5 2.5,-2.5c2.5,0 2.5,2.5 2.5,2.5c-0.03539,2.40079 -0.54328,4.83987 -1.48557,7.0483l-0.23034,0.72779c0,0 -0.79057,2.37171 -3.16228,1.58114z" fill="#9b00c4" stroke="none" stroke-width="0.5" stroke-linecap="butt"></path><path d="M311.28757,267.41397c-2.5,0 -2.5,-2.5 -2.5,-2.5l0.46567,0.50052c-0.52921,-0.74089 -1.05841,-1.48178 -1.58762,-2.22267c0,0 -1.4531,-2.03433 0.58124,-3.48743c2.03433,-1.4531 3.48743,0.58124 3.48743,0.58124c0.52921,0.74089 1.05841,1.48178 1.58762,2.22267l0.46567,2.40567c0,0 0,2.5 -2.5,2.5z" fill="#9b00c4" stroke="none" stroke-width="0.5" stroke-linecap="butt"></path><path d="M291.05951,125.12926c-2.46598,0.411 -2.87698,-2.05499 -2.87698,-2.05499l-0.33913,-2.06738c-0.10584,-1.05841 -0.21168,-2.11683 -0.31752,-3.17524c0,0 -0.24876,-2.48759 2.23883,-2.73635c2.48759,-0.24876 2.73635,2.23883 2.73635,2.23883c0.10584,1.05841 0.21168,2.11683 0.31752,3.17524l0.29592,1.74291c0,0 0.411,2.46598 -2.05499,2.87698z" fill="#9b00c4" stroke="none" stroke-width="0.5" stroke-linecap="butt"></path><path d="M315.7329,127.38594c-2.5,0 -2.5,-2.5 -2.5,-2.5l0.07464,-1.24139c0.21168,-0.84673 0.42337,-1.69346 0.63505,-2.54019c0,0 0.60634,-2.42536 3.0317,-1.81902c2.42536,0.60634 1.81902,3.0317 1.81902,3.0317c-0.21168,0.84673 -0.42337,1.69346 -0.63505,2.54019l0.07464,0.02871c0,0 0,2.5 -2.5,2.5z" fill="#9b00c4" stroke="none" stroke-width="0.5" stroke-linecap="butt"></path><path d="M148.75552,122.66327c0,-1.38071 1.11929,-2.5 2.5,-2.5c1.38071,0 2.5,1.11929 2.5,2.5c0,1.38071 -1.11929,2.5 -2.5,2.5c-1.38071,0 -2.5,-1.11929 -2.5,-2.5z" fill="#9b00c4" stroke="none" stroke-width="0.5" stroke-linecap="butt"></path><path d="M175.11001,123.93337c0,-1.38071 1.11929,-2.5 2.5,-2.5c1.38071,0 2.5,1.11929 2.5,2.5c0,1.38071 -1.11929,2.5 -2.5,2.5c-1.38071,0 -2.5,-1.11929 -2.5,-2.5z" fill="#9b00c4" stroke="none" stroke-width="0.5" stroke-linecap="butt"></path><path d="M149.07305,260.15112c0,-1.38071 1.11929,-2.5 2.5,-2.5c1.38071,0 2.5,1.11929 2.5,2.5c0,1.38071 -1.11929,2.5 -2.5,2.5c-1.38071,0 -2.5,-1.11929 -2.5,-2.5z" fill="#9b00c4" stroke="none" stroke-width="0.5" stroke-linecap="butt"></path><path d="M169.07705,258.88102c0,-1.38071 1.11929,-2.5 2.5,-2.5c1.38071,0 2.5,1.11929 2.5,2.5c0,1.38071 -1.11929,2.5 -2.5,2.5c-1.38071,0 -2.5,-1.11929 -2.5,-2.5z" fill="#9b00c4" stroke="none" stroke-width="0.5" stroke-linecap="butt"></path></g></g></svg>