<svg version="1.1" xmlns="http://www.w3.org/2000/svg" xmlns:xlink="http://www.w3.org/1999/xlink" width="92.53615" height="84.92209" viewBox="0,0,92.53615,84.92209"><g transform="translate(-197.38778,-135.94862)"><g data-paper-data="{&quot;isPaintingLayer&quot;:true}" fill-rule="nonzero" stroke-linejoin="miter" stroke-miterlimit="10" stroke-dasharray="" stroke-dashoffset="0" style="mix-blend-mode: normal"><path d="" data-paper-data="{&quot;index&quot;:null}" fill="none" stroke="#000000" stroke-width="1.5" stroke-linecap="round"></path><path d="" data-paper-data="{&quot;index&quot;:null}" fill="none" stroke="#000000" stroke-width="1.5" stroke-linecap="round"></path><path d="" data-paper-data="{&quot;index&quot;:null}" fill="none" stroke="#000000" stroke-width="1.5" stroke-linecap="round"></path><path d="" data-paper-data="{&quot;index&quot;:null}" fill="none" stroke="#000000" stroke-width="1.5" stroke-linecap="round"></path><path d="" data-paper-data="{&quot;index&quot;:null}" fill="none" stroke="#000000" stroke-width="1.5" stroke-linecap="round"></path><path d="M289.92393,195.47556" data-paper-data="{&quot;index&quot;:null}" fill="none" stroke="#d8d8d8" stroke-width="4" stroke-linecap="round"></path><path d="M241.20089,220.12072c-21.81525,0 -39.5,-17.68475 -39.5,-39.5c0,-21.81525 17.68475,-39.5 39.5,-39.5c21.81525,0 39.5,17.68475 39.5,39.5c0,21.81525 -17.68475,39.5 -39.5,39.5z" fill="#4bff3e" stroke="#4bff3e" stroke-width="1.5" stroke-linecap="butt"></path><path d="M199.61017,202.60875l5.1607,-52.02738l28.16952,-13.61953l18.68387,1.07168l23.77312,16.30954l-5.20889,64.49215l-29.29273,-11.54979l-1.57084,-23.98624l-4.72033,-3.15355l-5.54342,2.17009l-2.19836,22.22578l-28.30274,6.28514z" fill="#4bff3e" stroke="#4bff3e" stroke-width="2" stroke-linecap="round"></path><path d="M203.88764,171.36797l0.86616,-11.36833l26.09736,5.64735l-0.93545,12.2778z" fill="#4bff3e" stroke="none" stroke-width="0" stroke-linecap="butt"></path><path d="M238.71923,180.02776l0.91822,-12.2791l26.64938,-1.66579l-0.8502,11.36953z" data-paper-data="{&quot;index&quot;:null}" fill="#4bff3e" stroke="none" stroke-width="0" stroke-linecap="butt"></path></g></g></svg>