<svg version="1.1" xmlns="http://www.w3.org/2000/svg" xmlns:xlink="http://www.w3.org/1999/xlink" width="80.50461" height="80.50461" viewBox="0,0,80.50461,80.50461"><g transform="translate(-198.23619,-143.16065)"><g data-paper-data="{&quot;isPaintingLayer&quot;:true}" fill-rule="nonzero" stroke-linecap="butt" stroke-linejoin="miter" stroke-miterlimit="10" stroke-dasharray="" stroke-dashoffset="0" style="mix-blend-mode: normal"><path d="M235.10842,222.76807c-21.73523,-1.86677 -37.8418,-20.99996 -35.97504,-42.73519c1.86677,-21.73523 20.99996,-37.8418 42.73519,-35.97504c21.73523,1.86677 37.8418,20.99996 35.97504,42.73519c-1.86677,21.73523 -20.99996,37.8418 -42.73519,35.97504z" data-paper-data="{&quot;index&quot;:null}" fill="#000000" stroke="#000000" stroke-width="1.5"></path><g data-paper-data="{&quot;index&quot;:null}" stroke="none" stroke-width="0"><path d="M260.48506,175.29738c7.42581,0.63777 13.0057,6.27694 13.0057,6.27694c0,0 -6.45974,4.60513 -13.88554,3.96734c-7.42581,-0.63777 -13.0057,-6.27694 -13.0057,-6.27694c0,0 6.45974,-4.60513 13.88554,-3.96734z" fill="#ffffff"></path><path d="M260.24548,185.59665c-2.82888,-0.24297 -4.92518,-2.73319 -4.68222,-5.56206c0.24297,-2.82888 2.73319,-4.92518 5.56206,-4.68222c2.82888,0.24297 4.92518,2.73319 4.68222,5.56206c-0.24297,2.82888 -2.73319,4.92518 -5.56206,4.68222z" fill="#000000"></path></g><g data-paper-data="{&quot;index&quot;:null}" stroke="none" stroke-width="0"><path d="M230.90719,172.87351c7.42581,0.63777 13.0057,6.27694 13.0057,6.27694c0,0 -6.45974,4.60513 -13.88554,3.96734c-7.42581,-0.63777 -13.0057,-6.27694 -13.0057,-6.27694c0,0 6.45974,-4.60513 13.88554,-3.96734z" fill="#ffffff"></path><path d="M230.6676,183.17279c-2.82888,-0.24297 -4.92518,-2.73319 -4.68222,-5.56206c0.24297,-2.82887 2.73319,-4.92518 5.56206,-4.68222c2.82888,0.24297 4.92518,2.73319 4.68222,5.56206c-0.24297,2.82888 -2.73319,4.92518 -5.56206,4.68222z" fill="#000000"></path></g></g></g></svg>