<svg version="1.1" xmlns="http://www.w3.org/2000/svg" xmlns:xlink="http://www.w3.org/1999/xlink" width="80.5" height="115.40358" viewBox="0,0,80.5,115.40358"><g transform="translate(-198.73851,-103.02037)"><g data-paper-data="{&quot;isPaintingLayer&quot;:true}" fill-rule="nonzero" stroke-linejoin="miter" stroke-miterlimit="10" stroke-dasharray="" stroke-dashoffset="0" style="mix-blend-mode: normal"><path d="" data-paper-data="{&quot;index&quot;:null}" fill="none" stroke="#000000" stroke-width="1.5" stroke-linecap="round"></path><path d="" data-paper-data="{&quot;index&quot;:null}" fill="none" stroke="#000000" stroke-width="1.5" stroke-linecap="round"></path><path d="M199.48851,178.17395c0,-21.81525 17.68475,-39.5 39.5,-39.5c21.81525,0 39.5,17.68475 39.5,39.5c0,21.81525 -17.68475,39.5 -39.5,39.5c-21.81525,0 -39.5,-17.68475 -39.5,-39.5z" fill="#d8d8d8" stroke="#000000" stroke-width="1.5" stroke-linecap="butt"></path><path d="M248.51132,198.65627l-25.62407,-5.40809c6.59608,-7.87072 28.99925,-0.60801 28.99925,-0.60801z" data-paper-data="{&quot;index&quot;:null}" fill="#000000" stroke="#000000" stroke-width="1.5" stroke-linecap="round"></path><path d="M223.76444,158.89457l6.99536,1.82343v8" fill="none" stroke="#000000" stroke-width="1.5" stroke-linecap="round"></path><path d="M237.86965,170.31049l-0.24149,-8.93527l7.00332,-2.17344" fill="none" stroke="#000000" stroke-width="1.5" stroke-linecap="round"></path><path d="M238.59414,186.12751l16.42158,-6.52033" fill="none" stroke="#000000" stroke-width="1.5" stroke-linecap="round"></path><path d="M241.73356,180.09016l2.89793,5.55436" fill="none" stroke="#000000" stroke-width="1.5" stroke-linecap="round"></path><path d="M246.32194,177.91672l3.8639,7.7278" fill="none" stroke="#000000" stroke-width="1.5" stroke-linecap="round"></path><g><path d="M229.54946,119.74839l-8.04617,-3.88158l-0.812,-11.36579l9.93681,6.68281z" data-paper-data="{&quot;index&quot;:null}" fill="#c6c6c6" stroke="#c6c6c6" stroke-width="1.5" stroke-linecap="round"></path><path d="M255.13301,142.44003" fill="none" stroke="#d8d8d8" stroke-width="4" stroke-linecap="round"></path><path d="M253.16841,165.84615l-21.701,-38.07833l3.14198,-1.89081l21.701,38.07833z" fill="#7f7600" stroke="#000000" stroke-width="0" stroke-linecap="butt"></path><path d="M227.87137,119.07928c0.34351,-1.98936 2.49579,-2.08662 2.49579,-2.08662l3.23405,0.29096c1.92058,1.47936 3.25528,3.42638 5.30866,4.74472c0.85109,0.54645 2.32,0.60326 2.6219,1.55464c0.46445,1.46372 0.70034,3.56689 -0.58572,4.86222c-1.06208,1.06976 -2.82279,-0.29627 -4.26303,0.02155c-0.75854,0.16738 -1.22496,1.19241 -1.98366,1.35698c-0.56908,0.12343 -0.92903,-0.94362 -1.4327,-0.61595c-0.77773,0.50597 -0.3431,2.18903 -1.22314,2.34374c-5.93051,1.04248 -6.14633,-6.19848 -6.75165,-9.69095c0,0 -0.34019,-1.96578 1.87021,-2.64394c0.26184,-0.08033 0.49743,-0.12357 0.70931,-0.13736z" fill="#ff0000" stroke="none" stroke-width="0.5" stroke-linecap="butt"></path></g></g></g></svg>