<svg version="1.1" xmlns="http://www.w3.org/2000/svg" xmlns:xlink="http://www.w3.org/1999/xlink" width="95.75303" height="80.94925" viewBox="0,0,95.75303,80.94925"><g transform="translate(-194.1709,-139.30075)"><g data-paper-data="{&quot;isPaintingLayer&quot;:true}" fill-rule="nonzero" stroke-linejoin="miter" stroke-miterlimit="10" stroke-dasharray="" stroke-dashoffset="0" style="mix-blend-mode: normal"><g data-paper-data="{&quot;index&quot;:null}" stroke="#000000"><path d="M204.87634,165.5428c-1.83707,-0.82999 -5.36055,-0.69926 -7.42027,-2.3649c-2.44296,-1.97556 -3.28517,-5.70906 -3.28517,-5.70906l0.0514,-4.01489c0,0 3.36676,3.98215 6.83003,5.78356c2.98087,1.5505 6.01789,0.96062 7.21988,0.93333c4.53252,-0.1029 13.43998,-2.3418 13.43998,-2.3418l0.30291,10.35036c0,0 -12.05286,-0.33876 -17.13877,-2.63659z" fill="#b058be" stroke-width="0" stroke-linecap="butt"></path><path d="M216.18177,167.75992c0,0 -2.05768,-4.36815 -2.10239,-5.8958c-0.03427,-1.17072 1.85704,-2.48763 1.85704,-2.48763" fill="none" stroke-width="0.5" stroke-linecap="round"></path><path d="M212.04689,166.95796c0,0 -1.94155,-3.26723 -1.97684,-4.47308c-0.02882,-0.98457 1.78056,-2.23367 1.78056,-2.23367" fill="none" stroke-width="0.5" stroke-linecap="round"></path><path d="M207.15753,166.17809c0,0 -1.67829,-3.01317 -1.64763,-4.08301c0.02022,-0.70555 1.81367,-1.71138 1.81367,-1.71138" fill="none" stroke-width="0.5" stroke-linecap="round"></path><path d="M203.16824,164.61672c0,0 -1.36894,-2.21556 -1.37605,-2.98263c-0.00532,-0.57462 1.33721,-1.21153 1.33721,-1.21153" fill="none" stroke-width="0.5" stroke-linecap="round"></path><path d="M199.60303,163.21075c0,0 -1.26688,-2.33326 -1.29902,-2.98522c-0.03621,-0.73458 1.09251,-1.20404 1.09251,-1.20404" fill="none" stroke-width="0.5" stroke-linecap="round"></path><path d="M194.921,159.18823c0,0 0.79732,-2.01018 1.18814,-2.37063c0.44035,-0.40615 1.32313,0.05442 1.32313,0.05442" fill="none" stroke-width="0.5" stroke-linecap="round"></path></g><path d="" data-paper-data="{&quot;index&quot;:null}" fill="none" stroke="#000000" stroke-width="1.5" stroke-linecap="round"></path><path d="" data-paper-data="{&quot;index&quot;:null}" fill="none" stroke="#000000" stroke-width="1.5" stroke-linecap="round"></path><path d="" data-paper-data="{&quot;index&quot;:null}" fill="none" stroke="#000000" stroke-width="1.5" stroke-linecap="round"></path><path d="" data-paper-data="{&quot;index&quot;:null}" fill="none" stroke="#000000" stroke-width="1.5" stroke-linecap="round"></path><path d="" data-paper-data="{&quot;index&quot;:null}" fill="none" stroke="#000000" stroke-width="1.5" stroke-linecap="round"></path><path d="M289.92393,195.47556" data-paper-data="{&quot;index&quot;:null}" fill="none" stroke="#d8d8d8" stroke-width="4" stroke-linecap="round"></path><path d="M240.00003,219.5c-21.81525,0 -39.5,-17.68475 -39.5,-39.5c0,-21.81525 17.68475,-39.5 39.5,-39.5c21.81525,0 39.5,17.68475 39.5,39.5c0,21.81525 -17.68475,39.5 -39.5,39.5z" fill="#d8d8d8" stroke="#000000" stroke-width="1.5" stroke-linecap="butt"></path><path d="M228.9321,167.12465c0,4.00803 -1.24316,7.25718 -2.77666,7.25718c-1.5335,0 -2.77666,-3.24915 -2.77666,-7.25718c0,-4.00803 -0.37863,-7.00476 -0.37863,-7.00476c0,0 4.21336,0.55153 5.46913,3.69379c0.21243,0.53156 0.46283,2.73105 0.46283,3.31097z" fill="#ff6666" stroke="#000000" stroke-width="0" stroke-linecap="butt"></path><path d="M240.5793,164.90112c1.25577,-3.14226 5.46913,-3.69378 5.46913,-3.69378c0,0 -0.37864,2.99672 -0.37864,7.00475c0,4.00803 -1.24316,7.25718 -2.77666,7.25718c-1.5335,0 -2.77666,-3.24915 -2.77666,-7.25718c0,-0.57991 0.25039,-2.77941 0.46283,-3.31097z" data-paper-data="{&quot;index&quot;:null}" fill="#ff6666" stroke="#000000" stroke-width="0" stroke-linecap="butt"></path><path d="M253.51823,187.77356l-33.69856,-3.15529" fill="none" stroke="#000000" stroke-width="0.5" stroke-linecap="round"></path><path d="M231.10794,185.75843l-6.21783,9.11743l-2.74141,-9.94892z" fill="#ffffff" stroke="#000000" stroke-width="0.5" stroke-linecap="round"></path><path d="M252.22341,187.89609l-5.57718,8.178l-2.45893,-8.92381z" fill="#ffffff" stroke="#000000" stroke-width="0.5" stroke-linecap="round"></path><g stroke="#000000"><path d="M257.19908,171.00453l0.30292,-10.35036c0,0 8.90747,2.2389 13.43998,2.3418c1.202,0.02729 4.239,0.61718 7.21988,-0.93333c3.46326,-1.80141 6.83004,-5.78356 6.83004,-5.78356l0.0514,4.01489c0,0 -0.8422,3.7335 -3.28517,5.70906c-2.05972,1.66565 -5.5832,1.5349 -7.42027,2.3649c-5.08591,2.29782 -17.13878,2.63659 -17.13878,2.63659z" fill="#b058be" stroke-width="0" stroke-linecap="butt"></path><path d="M263.27779,162.20162c0,0 1.89131,1.31691 1.85704,2.48763c-0.04471,1.52764 -2.10239,5.8958 -2.10239,5.8958" fill="none" stroke-width="0.5" stroke-linecap="round"></path><path d="M267.36359,163.07635c0,0 1.80938,1.2491 1.78056,2.23367c-0.03529,1.20585 -1.97684,4.47307 -1.97684,4.47307" fill="none" stroke-width="0.5" stroke-linecap="round"></path><path d="M271.89063,163.20884c0,0 1.79345,1.00583 1.81367,1.71138c0.03066,1.06984 -1.64763,4.083 -1.64763,4.083" fill="none" stroke-width="0.5" stroke-linecap="round"></path><path d="M276.08477,163.24768c0,0 1.34252,0.63692 1.3372,1.21154c-0.00711,0.76707 -1.37604,2.98263 -1.37604,2.98263" fill="none" stroke-width="0.5" stroke-linecap="round"></path><path d="M279.81766,161.84662c0,0 1.12872,0.46946 1.09251,1.20404c-0.03214,0.65196 -1.29902,2.98522 -1.29902,2.98522" fill="none" stroke-width="0.5" stroke-linecap="round"></path><path d="M281.78193,159.69716c0,0 0.88277,-0.46058 1.32313,-0.05443c0.39082,0.36046 1.18814,2.37064 1.18814,2.37064" fill="none" stroke-width="0.5" stroke-linecap="round"></path></g><path d="M222.02154,167.84238c1.15543,0.95655 0.19887,2.11198 0.19887,2.11198l-0.31622,0.36296c0.57536,0.20977 0.98617,0.76175 0.98617,1.40968c0,0.35723 -0.12487,0.68529 -0.33335,0.94291l-0.69873,0.87915c0.46788,0.25392 0.78554,0.74949 0.78554,1.31925c0,0.39336 -0.15141,0.75136 -0.39914,1.01888l-2.02795,2.20455l-0.0276,-0.02539l-0.05114,0.10482c-0.51679,0.41794 -1.06587,0.79136 -1.63558,1.13449l0.0918,0.114l-2.32756,1.87427c-0.25866,0.21186 -0.5894,0.33898 -0.94983,0.33898c-0.17582,0 -0.34457,-0.03025 -0.50134,-0.08583c-1.69512,1.85449 -3.70155,4.39608 -5.59993,5.42467c-0.04132,0.02239 -0.08289,0.04416 -0.1247,0.06535l0.01213,0.01808l-1.93541,1.29874c-0.2421,0.16756 -0.5359,0.26572 -0.85262,0.26572c-0.82843,0 -1.5,-0.67157 -1.5,-1.5c0,-0.04729 0.00219,-0.09408 0.00647,-0.14025c-0.83302,0.58764 -1.66607,1.17523 -2.49917,1.76274l-0.05507,0.00661l0.01241,0.02037l-1.34564,0.81983c-0.23175,0.14666 -0.50647,0.23155 -0.80101,0.23155c-0.82843,0 -1.5,-0.67157 -1.5,-1.5c0,-0.50369 0.24826,-0.94939 0.62909,-1.22142l2.40558,-1.76099l0.0946,0.12922c0.05998,-0.04234 0.11996,-0.08468 0.17993,-0.12702c0.66329,-0.6717 1.38425,-1.27265 2.19285,-1.74978c1.0054,-0.59326 1.99336,-1.78065 3.07493,-1.96795c1.07639,-0.75953 2.1528,-1.51904 3.2292,-2.27858c0,0 1.10868,-0.78232 1.96116,0.19566c0.46452,-0.39142 0.89343,-0.76148 1.24902,-1.10665l1.38076,-1.34029c0.2702,-0.2629 0.63916,-0.42482 1.04594,-0.42482c0.01539,0 0.03073,0.00023 0.04602,0.00069l1.02981,-2.07312l0.35427,0.17598c0.26198,-0.59704 0.56697,-1.16944 0.92931,-1.70215c-0.31205,-0.43345 -0.53233,-0.92111 -0.60541,-1.42197c-0.14972,-1.02617 0.94036,-1.84865 1.41054,-2.77298l0.66903,-0.8331c0,0 0.95655,-1.15543 2.11198,-0.19887z" fill="#d93f3f" stroke="none" stroke-width="0.5" stroke-linecap="butt"></path><path d="M221.52556,157.26798c0.04052,-0.38243 0.1687,-0.65642 0.33692,-0.85244l-0.35768,-0.81824c-0.10696,-0.07519 -0.20365,-0.16401 -0.28756,-0.26392l-0.65874,-0.77449c-0.0119,0.00028 -0.02383,0.00042 -0.03579,0.00042c-0.47632,0 -0.90079,-0.22202 -1.17556,-0.56821l-1.40157,-1.7363l0.00001,-0.00001l-0.47439,-0.5877l0.01528,-0.01234c-0.35939,-0.47023 -0.71878,-0.94047 -1.07817,-1.41072c-0.30614,-0.28843 -0.58925,-0.59641 -0.84469,-0.90864l-0.00707,-0.02294l-0.00678,0.00522l-1.19648,-1.55529c-0.20019,-0.25494 -0.31958,-0.57635 -0.31958,-0.92564c0,-0.82843 0.67157,-1.5 1.5,-1.5c0.34472,0 0.66229,0.11629 0.9156,0.31177l0.064,0.04832c0.18339,0.1005 0.32651,0.22429 0.41881,0.31617l0.80683,0.60909l-0.16046,0.21255c0.11434,0.14962 0.22868,0.29924 0.34302,0.44886c0.42299,0.292 0.80028,0.6128 1.16565,0.97096c0.27228,-0.37863 0.71666,-0.62519 1.21863,-0.62519c0.60283,0 1.1226,0.35561 1.36099,0.8685l1.15206,2.34692l-0.03947,0.01937l0.08623,0.08594c0.00188,0.03962 0.00377,0.07924 0.00565,0.11887l0.0329,-0.01027l0.45655,1.46219c0.14295,0.22011 0.26801,0.44905 0.37214,0.68365c0.04999,-0.00503 0.1007,-0.00761 0.15201,-0.00761c0.47434,0 0.89725,0.22017 1.17212,0.56389l0.96796,1.19081l-0.0055,0.00447c0.08495,0.10861 0.15952,0.22574 0.22134,0.35334c0.49234,1.01613 -0.06183,2.25739 -0.09274,3.38609l-3.28887,0.22224c0,0 -1.49165,-0.15805 -1.33361,-1.6497z" fill="#d93f3f" stroke="none" stroke-width="0.5" stroke-linecap="butt"></path><path d="M238.92819,150.00326c2.00358,-1.3972 4.97189,-4.37772 7.27519,-5.05229c0.06843,-0.02004 0.13713,-0.03839 0.2061,-0.05516l-0.00905,-0.02698l1.46948,-0.49304c1.55967,-1.5372 3.11934,-3.07439 4.67901,-4.61159c0,0 1.06833,-1.05294 2.12126,0.01539c1.05294,1.06833 -0.01539,2.12126 -0.01539,2.12126c-1.3476,1.32818 -2.69519,2.65636 -4.04279,3.98454c-0.05663,0.2308 -0.16666,0.44061 -0.31627,0.61559c-0.06729,0.31047 -0.23071,0.58512 -0.45753,0.79122l-2.20905,2.0214l-0.15572,-0.17018c-0.56488,0.73193 -1.17345,1.42594 -1.84342,2.05881l-0.58128,0.20911l-0.83242,0.77694c-0.26831,0.25179 -0.62927,0.40601 -1.02625,0.40601c-0.5153,0 -0.9699,-0.25983 -1.23995,-0.65563c-0.36906,0.16882 -0.74286,0.33031 -1.12433,0.48481l0.17997,0.30793l-2.56799,1.50087c-0.22705,0.13824 -0.49371,0.21787 -0.77897,0.21787c-0.82843,0 -1.5,-0.67157 -1.5,-1.5c0,-0.47701 0.22266,-0.90202 0.56972,-1.17676l2.15862,-1.73822l0.011,0.01367z" fill="#d93f3f" stroke="none" stroke-width="0.5" stroke-linecap="butt"></path><path d="M239.49792,177.01167c0.98235,1.11528 1.66215,2.17165 2.20973,3.41503l0.2798,-0.15244l1.42193,2.60995c0.12481,0.21883 0.19612,0.47213 0.19612,0.74208c0,0.82843 -0.67157,1.5 -1.5,1.5c-0.35217,0 -0.67599,-0.12136 -0.93193,-0.32455l-1.34468,-1.04678l0.01218,-0.01564l-0.05218,-0.01661c-0.1493,-0.13353 -0.29839,-0.27143 -0.44557,-0.41361c-0.04851,0.13661 -0.11626,0.2641 -0.19999,0.37922c0.76243,0.96102 1.47902,1.93969 1.99994,2.89753c0.37601,0.43513 0.75412,0.86854 1.13478,1.29988l1.8153,2.05724c0.23623,0.26509 0.37978,0.61457 0.37978,0.99757c0,0.82843 -0.67157,1.5 -1.5,1.5c-0.38462,0 -0.73543,-0.14476 -1.00091,-0.38276l-1.83892,-1.63322l0.01597,-0.01798c-0.03829,-0.02528 -0.0763,-0.05108 -0.114,-0.07743c-1.95528,-1.36629 -3.8629,-4.21945 -5.40317,-6.82232c-0.78658,-0.95071 -1.57132,-1.90317 -2.35852,-2.85401c0,0 -0.65851,-0.7954 -0.22285,-1.61267l-0.73601,-1.23489c-0.14217,-0.22928 -0.22425,-0.49973 -0.22425,-0.78935c0,-0.82843 0.67157,-1.5 1.5,-1.5c0.45141,0 0.85625,0.1994 1.13123,0.51492l1.39725,1.58716c0.11899,-0.13617 0.2622,-0.25063 0.42291,-0.33668c-0.04629,-0.04376 -0.09302,-0.08723 -0.1402,-0.1304l-0.02509,-0.07349l-0.024,0.02167l-1.08083,-1.19673c-0.24262,-0.26649 -0.39054,-0.62073 -0.39054,-1.00952c0,-0.82843 0.67157,-1.5 1.5,-1.5c0.35196,0 0.67561,0.12122 0.93148,0.32419l2.35748,1.83364l0.54984,0.67543c0,0 0.23372,0.33977 0.27791,0.78555z" fill="#d93f3f" stroke="none" stroke-width="0.5" stroke-linecap="butt"></path></g></g></svg>