<svg version="1.1" xmlns="http://www.w3.org/2000/svg" xmlns:xlink="http://www.w3.org/1999/xlink" width="65.88942" height="65.88942" viewBox="0,0,65.88942,65.88942"><g transform="translate(-207.05529,-147.05529)"><g data-paper-data="{&quot;isPaintingLayer&quot;:true}" fill-rule="nonzero" stroke-linejoin="miter" stroke-miterlimit="10" stroke-dasharray="" stroke-dashoffset="0" style="mix-blend-mode: normal"><path d="" data-paper-data="{&quot;index&quot;:null}" fill="#ffffff" stroke="#ffffff" stroke-width="1.5" stroke-linecap="round"></path><path d="" data-paper-data="{&quot;index&quot;:null}" fill="#ffffff" stroke="#ffffff" stroke-width="1.5" stroke-linecap="round"></path><path d="" data-paper-data="{&quot;index&quot;:null}" fill="#ffffff" stroke="#000000" stroke-width="1.5" stroke-linecap="round"></path><path d="" data-paper-data="{&quot;index&quot;:null}" fill="#ffffff" stroke="#000000" stroke-width="1.5" stroke-linecap="round"></path><path d="" data-paper-data="{&quot;index&quot;:null}" fill="#ffffff" stroke="#ffffff" stroke-width="1.5" stroke-linecap="round"></path><path d="" data-paper-data="{&quot;index&quot;:null}" fill="none" stroke="#ffffff" stroke-width="1" stroke-linecap="round"></path><path d="" data-paper-data="{&quot;index&quot;:null}" fill="none" stroke="#ffffff" stroke-width="1" stroke-linecap="round"></path><path d="" data-paper-data="{&quot;index&quot;:null}" fill="none" stroke="#ffffff" stroke-width="1" stroke-linecap="round"></path><path d="" data-paper-data="{&quot;index&quot;:null}" fill="#ffffff" stroke="none" stroke-width="0" stroke-linecap="round"></path><path d="" data-paper-data="{&quot;index&quot;:null}" fill="#ffffff" stroke="none" stroke-width="0" stroke-linecap="round"></path><path d="" data-paper-data="{&quot;index&quot;:null}" fill="#ffffff" stroke="none" stroke-width="0" stroke-linecap="round"></path><path d="" data-paper-data="{&quot;index&quot;:null}" fill="#ffffff" stroke="none" stroke-width="0" stroke-linecap="round"></path><path d="M225.27002,150.53975c16.27045,-8.13514 36.05509,-1.54018 44.19023,14.73027c8.13514,16.27045 1.54018,36.05509 -14.73027,44.19023c-16.27045,8.13514 -36.05509,1.54018 -44.19023,-14.73027c-8.13514,-16.27045 -1.54018,-36.05509 14.73027,-44.19023z" fill="#000000" stroke="none" stroke-width="0" stroke-linecap="butt"></path><path d="M264.0281,178.98813l0.9335,-0.28709l0.21712,1.12762l-8.77271,11.3709l-2.09769,-0.25053l-0.6097,-1.9137z" data-paper-data="{&quot;index&quot;:null}" fill="#ffffff" stroke="none" stroke-width="0" stroke-linecap="butt"></path><path d="M253.11177,169.49329l0.59333,-1.91884l2.09547,-0.26843l8.86951,11.29557l-0.20747,1.12944l-0.93591,-0.27911z" data-paper-data="{&quot;index&quot;:null}" fill="#ffffff" stroke="none" stroke-width="0" stroke-linecap="butt"></path><path d="M252.61545,171.1494l0.59333,-1.91884l2.09547,-0.26844l8.86951,11.29557l-0.20747,1.12944l-0.93591,-0.27911z" data-paper-data="{&quot;index&quot;:null}" fill="#ffffff" stroke="none" stroke-width="0" stroke-linecap="butt"></path><path d="M263.51705,177.19249c0,0 0.12462,2.14092 -0.80472,3.62981c-1.4073,2.25464 -6.81738,8.58163 -6.81738,8.58163l-2.09769,-0.25053l-0.6097,-1.9137z" data-paper-data="{&quot;index&quot;:null}" fill="#ffffff" stroke="none" stroke-width="0" stroke-linecap="butt"></path><g fill="#ffffff" stroke="none" stroke-width="0" stroke-linecap="butt"><path d="M240.14158,203.14426l0.28709,0.9335l-1.12762,0.21712l-11.3709,-8.77271l0.25053,-2.09769l1.9137,-0.6097z" data-paper-data="{&quot;index&quot;:null}"></path><path d="M249.63643,192.22792l1.91884,0.59333l0.26843,2.09548l-11.29556,8.86951l-1.12944,-0.20747l0.27911,-0.93591z" data-paper-data="{&quot;index&quot;:null}"></path><path d="M247.98032,191.73161l1.91884,0.59333l0.26844,2.09547l-11.29557,8.86951l-1.12944,-0.20747l0.27911,-0.93591z" data-paper-data="{&quot;index&quot;:null}"></path><path d="M241.93723,202.6332c0,0 -2.14092,0.12462 -3.62981,-0.80472c-2.25464,-1.4073 -8.58163,-6.81739 -8.58163,-6.81739l0.25053,-2.09769l1.9137,-0.6097z" data-paper-data="{&quot;index&quot;:null}"></path></g><g fill="#ffffff" stroke="none" stroke-width="0" stroke-linecap="butt"><path d="M238.62076,154.77291l-0.28709,-0.9335l1.12762,-0.21711l11.3709,8.77271l-0.25053,2.09769l-1.9137,0.6097z"></path><path d="M229.12591,165.68925l-1.91884,-0.59333l-0.26844,-2.09548l11.29557,-8.86951l1.12944,0.20747l-0.27911,0.93591z" data-paper-data="{&quot;index&quot;:null}"></path><path d="M230.78203,166.18557l-1.91884,-0.59333l-0.26844,-2.09547l11.29557,-8.86951l1.12944,0.20747l-0.27911,0.93591z" data-paper-data="{&quot;index&quot;:null}"></path><path d="M236.82511,155.28397c0,0 2.14092,-0.12462 3.62981,0.80472c2.25464,1.4073 8.58163,6.81739 8.58163,6.81739l-0.25053,2.09769l-1.9137,0.6097z"></path></g><path d="M225.45057,188.56865l-0.6097,1.9137l-2.09769,0.25053l-8.77271,-11.3709l0.21712,-1.12762l0.9335,0.28709z" data-paper-data="{&quot;index&quot;:null}" fill="#ffffff" stroke="none" stroke-width="0" stroke-linecap="butt"></path><path d="M215.62249,178.98522l-0.93591,0.27911l-0.20747,-1.12944l8.86951,-11.29557l2.09547,0.26843l0.59333,1.91884z" data-paper-data="{&quot;index&quot;:null}" fill="#ffffff" stroke="none" stroke-width="0" stroke-linecap="butt"></path><path d="M216.1188,180.64134l-0.93591,0.27911l-0.20747,-1.12944l8.86951,-11.29557l2.09547,0.26844l0.59333,1.91884z" data-paper-data="{&quot;index&quot;:null}" fill="#ffffff" stroke="none" stroke-width="0" stroke-linecap="butt"></path><path d="M225.96163,186.77301l-0.6097,1.9137l-2.09769,0.25053c0,0 -5.41009,-6.32699 -6.81739,-8.58163c-0.92934,-1.48889 -0.80472,-3.62981 -0.80472,-3.62981z" data-paper-data="{&quot;index&quot;:null}" fill="#ffffff" stroke="none" stroke-width="0" stroke-linecap="butt"></path><path d="M250.03839,188.49966l-0.6097,1.9137l-2.09769,0.25053l-8.77271,-11.3709l0.21711,-1.12762l0.9335,0.28709z" data-paper-data="{&quot;index&quot;:null}" fill="#ffffff" stroke="none" stroke-width="0" stroke-linecap="butt"></path><path d="M240.21031,178.91623l-0.93591,0.27911l-0.20747,-1.12944l8.86951,-11.29557l2.09548,0.26844l0.59333,1.91884z" data-paper-data="{&quot;index&quot;:null}" fill="#ffffff" stroke="none" stroke-width="0" stroke-linecap="butt"></path><path d="M240.70662,180.57235l-0.93591,0.27911l-0.20747,-1.12944l8.86951,-11.29557l2.09547,0.26844l0.59333,1.91884z" data-paper-data="{&quot;index&quot;:null}" fill="#ffffff" stroke="none" stroke-width="0" stroke-linecap="butt"></path><path d="M250.54945,186.70402l-0.6097,1.9137l-2.09769,0.25053c0,0 -5.41009,-6.32699 -6.81739,-8.58163c-0.92934,-1.48889 -0.80472,-3.62981 -0.80472,-3.62981z" data-paper-data="{&quot;index&quot;:null}" fill="#ffffff" stroke="none" stroke-width="0" stroke-linecap="butt"></path><path d="M240.62251,178.91371l0.9335,-0.28709l0.21711,1.12762l-8.77271,11.3709l-2.09769,-0.25053l-0.6097,-1.9137z" data-paper-data="{&quot;index&quot;:null}" fill="#ffffff" stroke="none" stroke-width="0" stroke-linecap="butt"></path><path d="M229.70617,169.41887l0.59333,-1.91884l2.09548,-0.26843l8.86951,11.29556l-0.20747,1.12944l-0.93591,-0.27911z" data-paper-data="{&quot;index&quot;:null}" fill="#ffffff" stroke="none" stroke-width="0" stroke-linecap="butt"></path><path d="M229.20985,171.07498l0.59333,-1.91884l2.09547,-0.26844l8.86951,11.29557l-0.20747,1.12944l-0.93591,-0.27911z" data-paper-data="{&quot;index&quot;:null}" fill="#ffffff" stroke="none" stroke-width="0" stroke-linecap="butt"></path><path d="M240.11145,177.11807c0,0 0.12462,2.14092 -0.80472,3.62981c-1.4073,2.25464 -6.81739,8.58163 -6.81739,8.58163l-2.09769,-0.25053l-0.6097,-1.9137z" data-paper-data="{&quot;index&quot;:null}" fill="#ffffff" stroke="none" stroke-width="0" stroke-linecap="butt"></path></g></g></svg>