<svg version="1.1" xmlns="http://www.w3.org/2000/svg" xmlns:xlink="http://www.w3.org/1999/xlink" width="111.19387" height="94.80175" viewBox="0,0,111.19387,94.80175"><g transform="translate(-191.70543,-139.01608)"><g data-paper-data="{&quot;isPaintingLayer&quot;:true}" fill-rule="nonzero" stroke-linejoin="miter" stroke-miterlimit="10" stroke-dasharray="" stroke-dashoffset="0" style="mix-blend-mode: normal"><g fill="none" stroke="#000000" stroke-width="2" stroke-linecap="round"><path d="M292.9676,153.59115l5.03839,-3.8933l-3.43527,22.21473"/><path d="M301.8993,154.50722l-3.43527,-5.72545"/></g><g fill="none" stroke="#000000" stroke-width="2" stroke-linecap="round"><path d="M288.19662,146.30097l5.03839,-3.8933l-3.43527,22.21473"/><path d="M297.12832,147.21705l-3.43527,-5.72545"/></g><g fill="none" stroke="#000000" stroke-width="2" stroke-linecap="round"><path d="M281.5935,148.85856l5.03839,-3.8933l-3.43527,22.21473"/><path d="M287.08993,144.04917l3.43527,5.72545"/></g><g fill="none" stroke="#000000" stroke-width="2" stroke-linecap="round"><path d="M275.4484,145.23267l5.0384,-3.8933l-3.43527,22.21473"/><path d="M280.94484,140.42328l3.43527,5.72545"/></g><path d="M266.5103,210.82109l9.28975,-50.21898l22.51972,4.16581c0,0 -4.21024,42.86497 -9.28974,50.21898c-5.0795,7.35401 -22.51973,-4.16581 -22.51973,-4.16581z" data-paper-data="{&quot;index&quot;:null}" fill="#9b5b00" stroke="#000000" stroke-width="1" stroke-linecap="butt"/><path d="M205.5,185.00001c0,-21.81525 17.68475,-39.5 39.5,-39.5c21.81525,0 39.5,17.68475 39.5,39.5c0,21.81525 -17.68475,39.5 -39.5,39.5c-21.81525,0 -39.5,-17.68475 -39.5,-39.5z" fill="#d8d8d8" stroke="#000000" stroke-width="1.5" stroke-linecap="butt"/><path d="M235.86762,168.64539v8" data-paper-data="{&quot;index&quot;:null}" fill="none" stroke="#000000" stroke-width="1.5" stroke-linecap="round"/><path d="M233.37341,199.40149l-3.99378,0.26625" fill="none" stroke="#000000" stroke-width="1.5" stroke-linecap="round"/><g data-paper-data="{&quot;index&quot;:null}" stroke-linecap="butt"><path d="M198.51355,166.42922c0.59279,0.15633 1.34689,4.54902 2.49489,10.23665c0.5043,2.49847 -0.06507,7.02494 0.98907,9.3637c1.07734,2.39024 3.56681,2.39574 6.20112,2.9163c1.34274,0.26534 33.14428,5.44963 44.4242,6.97665c0.2793,0.03781 -0.69386,-0.09704 0.12447,-0.84593c2.81885,-2.57968 12.33512,-11.3713 13.0618,-11.28439c0.07799,0.00932 0.84225,3.83373 0.58391,8.04252c-0.15744,2.56523 -0.95644,7.3247 -3.16356,12.16396c-2.73004,5.9858 -7.0121,11.90151 -7.72133,11.6476c-0.45075,-0.16137 -15.65553,14.49115 -15.45905,12.95492c0.00731,-0.05722 -4.26977,2.20338 -8.73552,3.50463c-4.42996,1.29084 -13.7541,-0.96449 -13.83939,-1.32163c-0.09484,-0.39717 -12.73521,-12.35007 -12.91572,-13.01797c-0.23072,-0.85366 -8.70571,-12.04273 -6.14173,-11.15981c0.18327,0.06311 0.12819,-3.2833 1.44648,-2.00049c2.01142,1.9573 6.45115,10.41749 9.51313,13.51641c4.13207,4.18194 8.30037,7.62261 8.51016,7.55196c0.14018,-0.04722 4.43296,2.23969 4.57856,2.18448c0.43584,-0.16527 2.26564,0.86201 4.4896,0.4156c3.73725,-0.75016 8.39815,-1.6153 8.6017,-1.6478c1.23858,-0.19771 13.87754,-9.78127 13.99803,-10.10145c0.95941,-2.5496 5.37326,-5.20433 9.09025,-10.69433c2.83182,-4.18261 5.28935,-11.63093 5.32928,-12.41506c0.14871,-2.92008 -1.10647,-4.69226 -1.49452,-4.32132c-3.76051,3.59456 -5.22797,7.40274 -5.15865,7.39615c0.10195,1.06406 -1.55929,2.5244 -2.8713,2.77259c-2.81421,0.53238 -15.99116,-2.3856 -22.06575,-3.85401c-2.78379,-0.67293 -13.77287,-1.74701 -21.99993,-3.26871c-5.36343,-0.99203 -9.48506,-2.75723 -9.62782,-2.71907c-0.60841,0.60159 -1.68561,-13.80913 -2.57283,-14.04313c-0.42251,-0.11143 -3.25622,5.23947 -3.18732,10.79046c0.08764,7.06122 2.51315,15.82554 4.63216,18.01525c0.95376,0.98559 -1.26672,3.4017 -1.1678,3.02663c0.05728,-0.21715 -4.5816,-13.00332 -4.47511,-13.18937c-0.14132,-1.16731 -1.61518,-7.50789 -0.95125,-13.67945c0.77938,-7.24476 3.83342,-14.34675 5.47972,-13.91256z" fill="#00c1ff" stroke="none" stroke-width="0.5"/><g fill="none" stroke="#000000" stroke-width="1.5"><path d="M266.13881,184.67237c5.55493,22.62534 -27.46127,52.25809 -43.68306,47.97972c-16.2218,-4.27837 -37.29817,-38.46989 -27.5021,-61.72992c6.93125,-16.45769 4.95434,14.41833 8.16007,15.9852c6.87301,3.35935 31.55538,5.82232 46.82797,8.72581c4.83403,0.91901 14.86159,-16.4004 16.1971,-10.96083z"/><path d="M247.25018,218.63893c-8.2933,8.52291 -21.61578,9.9559 -21.87417,9.88775c-14.79072,-3.90094 -36.77108,-30.86296 -27.77468,-52.31555c1.68109,-4.0087 1.13683,12.56313 3.28649,13.61949c6.26282,3.07761 39.41527,6.71377 53.34331,9.35049c4.40846,0.83456 7.97695,-14.70173 9.18195,-9.69389c0,0 1.07623,3.67405 -0.82449,7.99515c-2.91113,6.61815 -9.86348,15.53006 -15.33841,21.15657z"/></g></g><path d="M230.52812,169.16665v8" data-paper-data="{&quot;index&quot;:null}" fill="none" stroke="#000000" stroke-width="1.5" stroke-linecap="round"/><path d="M207.53756,207.20557c4.23898,-2.53508 9.73043,-1.15378 12.2655,3.08519c2.53508,4.23898 1.15378,9.73043 -3.08519,12.2655c-4.23898,2.53508 -9.73043,1.15378 -12.2655,-3.08519c-2.53508,-4.23898 -1.15378,-9.73043 3.08519,-12.2655z" fill="#d8d8d8" stroke="#000000" stroke-width="1" stroke-linecap="butt"/></g></g></svg>