<svg version="1.1" xmlns="http://www.w3.org/2000/svg" xmlns:xlink="http://www.w3.org/1999/xlink" width="312.7278" height="80.5" viewBox="0,0,312.7278,80.5"><g transform="translate(-198.73851,-138.16295)"><g data-paper-data="{&quot;isPaintingLayer&quot;:true}" fill-rule="nonzero" stroke-linecap="butt" stroke-linejoin="miter" stroke-miterlimit="10" stroke-dasharray="" stroke-dashoffset="0" style="mix-blend-mode: normal"><path d="M238.98851,217.91295c-21.81525,0 -39.5,-17.68475 -39.5,-39.5c0,-21.81525 17.68475,-39.5 39.5,-39.5c21.81525,0 39.5,17.68475 39.5,39.5c0,21.81525 -17.68475,39.5 -39.5,39.5z" data-paper-data="{&quot;index&quot;:null}" fill="#000000" stroke="#000000" stroke-width="1.5"></path><g data-paper-data="{&quot;index&quot;:null}" stroke="none" stroke-width="0"><path d="M262.30322,168.50345c7.45315,0 13.49512,5.141 13.49512,5.141c0,0 -6.04197,5.141 -13.49512,5.141c-7.45315,0 -13.49512,-5.141 -13.49512,-5.141c0,0 6.04197,-5.141 13.49512,-5.141z" fill="#ffffff"></path><path d="M262.94584,178.78545c-2.8393,0 -5.141,-2.30171 -5.141,-5.141c0,-2.8393 2.30171,-5.141 5.141,-5.141c2.8393,0 5.141,2.30171 5.141,5.141c0,2.8393 -2.30171,5.141 -5.141,5.141z" fill="#000000"></path></g><g data-paper-data="{&quot;index&quot;:null}" stroke="none" stroke-width="0"><path d="M232.62642,168.6195c7.45315,0 13.49512,5.141 13.49512,5.141c0,0 -6.04197,5.141 -13.49512,5.141c-7.45315,0 -13.49512,-5.141 -13.49512,-5.141c0,0 6.04197,-5.141 13.49512,-5.141z" fill="#ffffff"></path><path d="M233.26904,178.9015c-2.8393,0 -5.141,-2.30171 -5.141,-5.141c0,-2.83929 2.30171,-5.141 5.141,-5.141c2.8393,0 5.141,2.30171 5.141,5.141c0,2.8393 -2.30171,5.141 -5.141,5.141z" fill="#000000"></path></g><path d="M489.87411,189.42284c0,-5.96252 4.83358,-10.7961 10.7961,-10.7961c5.96252,0 10.7961,4.83358 10.7961,10.7961c0,5.96252 -4.83358,10.7961 -10.7961,10.7961c-5.96252,0 -10.7961,-4.83358 -10.7961,-10.7961z" fill="#9966ff" stroke="none" stroke-width="0"></path><path d="M487.61155,184.05882l4.81585,1.14058c0.08885,0.01905 0.17594,0.04282 0.26101,0.07103c0.63558,0.04012 1.27145,0.08542 1.90766,0.13616l0.11866,0.07758l0.01061,-0.05701l2.82384,0.52561c1.18371,0.19725 2.08604,1.22619 2.08604,2.46589c0,1.38071 -1.11929,2.5 -2.5,2.5c-0.03364,0 -0.06712,-0.00066 -0.10043,-0.00198l-4.43577,-0.15397c-0.79793,0.1295 -9.25739,-0.31351 -10.04009,-0.35068c-1.31805,-0.06259 -2.63406,-0.14126 -3.94848,-0.23269c-0.14677,0.00614 -0.29355,0.01245 -0.44032,0.01893c0.15894,0.01938 0.31792,0.03878 0.47696,0.05819l3.45127,0.31934c1.28503,0.10407 2.29543,1.17991 2.29543,2.49175c0,1.38071 -1.11929,2.5 -2.5,2.5c-0.07073,0 -0.14077,-0.00294 -0.21002,-0.0087l-2.10788,-0.15524c-0.22246,1.15282 -1.23687,2.02352 -2.45465,2.02352c-0.00839,0 -0.01677,-0.00004 -0.02514,-0.00012l-4.08109,-0.03514l0.00006,-0.00699l-0.01925,0.00675c-5.63394,-0.13622 -11.37728,-0.20934 -17.01111,0.03312c-1.74736,0.0752 -3.19944,0.18084 -4.59306,0.18921c0.14387,0.31014 0.23249,0.69221 0.23249,1.16291c0,2.5 -2.5,2.5 -2.5,2.5c-0.20849,0 -9.81789,0.0063 -10.01618,-0.01897c-3.08078,-0.3926 -6.15344,-1.12276 -9.03098,-2.29113c-0.68165,-0.27677 -1.10167,-1.03402 -1.79199,-1.28841c-3.11466,-1.14779 -8.33068,0.33578 -3.27638,-6.78006c1.17563,-1.65514 3.60622,-1.8667 5.43061,-2.7573c2.61253,-1.27534 5.41927,-2.12631 8.20643,-2.9531c1.69742,-0.50352 3.39003,-0.97646 5.0802,-1.42084l-0.01535,-0.00386c-0.30548,-0.0698 -0.58965,-0.19556 -0.84114,-0.36593c-0.46642,-0.09333 -0.93204,-0.1891 -1.39682,-0.28744l-0.02607,-0.01873l-0.00286,0.01206l-2.56765,-0.60812c-1.12784,-0.24181 -1.9734,-1.24438 -1.9734,-2.44444c0,-1.33698 1.04951,-2.42884 2.36963,-2.49666l2.59981,-0.15394l0.00111,0.0187c0.02421,-0.00743 0.04846,-0.01476 0.07274,-0.02198c2.85638,-0.84959 7.13056,0.32516 10.38687,0.95132c0.35706,-0.9445 1.26973,-1.61613 2.33926,-1.61613h3.46737c6.92656,0.00304 13.98622,0.40819 20.88552,0.98692c1.62449,0.13627 3.41897,-0.32532 4.87378,0.40919c1.39187,0 3.36711,0 3.36711,0c1.38071,0 2.5,1.11929 2.5,2.5c0,1.38071 -1.11929,2.5 -2.5,2.5h-2.6935c1.07642,0.19205 2.10333,0.48305 3.03923,0.93078zM443.37208,194.83841c-0.76983,-0.42612 -1.29104,-1.24658 -1.29104,-2.18877c0,-1.19019 0.8317,-2.18612 1.94562,-2.43832l2.62251,-0.65417l0.00901,0.03612c0.06615,-0.02745 0.13289,-0.05378 0.20026,-0.07891c0.13952,-0.05205 0.81822,-0.11661 1.76603,-0.18458c0.10913,-0.83122 0.62661,-1.53388 1.34441,-1.89993l-0.48607,-0.03429c-1.55709,0.36621 -3.11616,0.75963 -4.67935,1.18317c-4.21888,1.14308 -8.26625,2.43305 -12.28397,4.109c-0.60291,0.2515 -1.20076,0.52411 -1.80647,0.77285c0.42256,0.33221 0.87015,0.72133 1.39715,0.93825c3.94582,1.62408 8.0858,1.88098 12.24911,1.89904c-0.40997,-0.28937 -0.86038,-0.75706 -0.9872,-1.45945z" fill="#9966ff" stroke="none" stroke-width="0.5"></path><path d="M476.63765,206.25581c-3.5012,-0.83628 -8.26524,-1.59496 -11.03019,-3.40703c-0.07465,-0.04892 -0.14865,-0.09868 -0.22202,-0.14922l-0.01508,0.02546l-4.2623,-2.5237c-0.75627,-0.42988 -1.26637,-1.24284 -1.26637,-2.17493c0,-0.35229 0.07287,-0.68757 0.20436,-0.99157c-0.46683,-0.10862 -0.75866,-0.18011 -0.78819,-0.19558c-0.06839,-0.03583 -0.13613,-0.07264 -0.20327,-0.11036l-0.01246,0.02888l-3.18021,-1.37189c-0.91624,-0.37085 -1.56258,-1.2691 -1.56258,-2.31831c0,-1.26846 0.94469,-2.31628 2.1689,-2.47827l2.54972,-0.38011l0.00434,0.02912l0.07423,-0.03956c0.81225,-0.06906 2.37315,-0.20457 4.05715,-0.34634l-3.09241,-1.26813c-0.63358,-0.24294 -1.14312,-0.73632 -1.40744,-1.35896c-0.93115,0.01778 -1.84399,-0.03523 -2.66713,-0.42404c-0.1502,-0.07095 -0.29646,-0.14787 -0.43922,-0.2301l-0.02595,0.05157l-3.0309,-1.52539c-0.84232,-0.40211 -1.42429,-1.26178 -1.42429,-2.25738c0,-1.25399 0.92326,-2.29234 2.1271,-2.47238l3.65417,-0.61302l0.00582,0.03471l0.11068,-0.05145c0.28284,-0.02057 2.35522,-0.1788 4.53203,-0.3304c-0.07466,-0.23719 -0.11492,-0.48964 -0.11492,-0.75149c0,-0.34426 0.06958,-0.67226 0.19545,-0.97072c-0.38565,-0.30033 -0.68096,-0.71122 -0.83833,-1.18505c-0.07061,-0.0233 -0.14097,-0.0478 -0.21107,-0.07358c-0.07474,-0.02749 -0.14915,-0.05567 -0.22325,-0.08453l-0.00959,0.0393l-4.80726,-1.17303c-1.11992,-0.24775 -1.95758,-1.24655 -1.95758,-2.44099c0,-1.38071 1.11929,-2.5 2.5,-2.5h3.00559c5.87744,0.00436 11.39467,-0.59375 17.26727,0.01344c0,0 2.48656,0.25893 2.22763,2.74548c-0.25893,2.48656 -2.74548,2.22763 -2.74548,2.22763c-0.73343,-0.07694 -1.46128,-0.13389 -2.18504,-0.17472c-0.01243,0.10491 -0.03136,0.20782 -0.05637,0.30833l0.15565,0.02984c1.17757,0.20238 2.07357,1.22844 2.07357,2.46378c0,1.15757 -0.78674,2.13139 -1.85469,2.41592c0.2952,0.41044 0.46907,0.914 0.46907,1.45817c0,0.55734 -0.18238,1.07209 -0.49072,1.48781c0.31639,0.0303 0.63288,0.0606 0.94948,0.09084l0.22924,0.1705l0.03262,-0.10262l2.87071,0.91249c1.0385,0.30369 1.79706,1.26317 1.79706,2.39982c0,0.82109 -0.39584,1.54973 -1.0071,2.0055c0.34126,0.42741 0.54527,0.96922 0.54527,1.55868c0,0.95027 -0.53019,1.77672 -1.3109,2.19965l-2.42061,1.37052l-0.03056,-0.05398c-0.16421,0.10407 -0.33508,0.19865 -0.51377,0.28211c-0.98252,0.45889 -2.08308,0.44217 -3.19746,0.374l1.03551,0.17371c1.20384,0.18004 2.1271,1.21839 2.1271,2.47238c0,1.27759 -0.95834,2.33135 -2.19537,2.48163l-0.41426,0.05686c2.1517,0.64947 4.28908,1.44709 6.44603,2.01825l-0.948,4.91665c0,0 -0.62726,0 -1.25338,-0.31419z" fill="#6a46b0" stroke="none" stroke-width="0.5"></path></g></g></svg>