<svg version="1.1" xmlns="http://www.w3.org/2000/svg" xmlns:xlink="http://www.w3.org/1999/xlink" width="134.80008" height="79" viewBox="0,0,134.80008,79"><g transform="translate(-143.68847,-138.67395)"><g data-paper-data="{&quot;isPaintingLayer&quot;:true}" fill="#d59830" fill-rule="nonzero" stroke="none" stroke-width="0" stroke-linejoin="miter" stroke-miterlimit="10" stroke-dasharray="" stroke-dashoffset="0" style="mix-blend-mode: normal"><path d="M199.48855,178.17395c0,-21.81525 17.68475,-39.5 39.5,-39.5c21.81525,0 39.5,17.68475 39.5,39.5c0,21.81525 -17.68475,39.5 -39.5,39.5c-21.81525,0 -39.5,-17.68475 -39.5,-39.5z" stroke-linecap="butt"></path><path d="M211.59119,171.04031l10.50327,2.49047v6.33333" stroke-linecap="round"></path><path d="M230.53462,179.67749v-6.33333l12.72324,-2.63719" data-paper-data="{&quot;index&quot;:null}" stroke-linecap="round"></path><path d="M241.23855,196.04895l-18.25,1z" stroke-linecap="round"></path><g><path d="M212.89024,208.53417l-20.0271,-6.31783l2.48201,-7.86778l20.0271,6.31783z" stroke-linecap="butt"></path><path d="M204.63284,197.48163c0,0 -1.76908,3.01434 -3.20415,4.02619c-1.29187,0.91089 -5.02191,1.77395 -5.02191,1.77395" stroke-linecap="round"></path><path d="M199.60845,195.79176c0,0 2.55958,2.84721 3.0949,4.33452c0.59467,1.65216 0.31381,5.13601 0.31381,5.13601" data-paper-data="{&quot;index&quot;:null}" stroke-linecap="round"></path><path d="M205.16473,197.12514c0,0 2.55958,2.84721 3.0949,4.33452c0.59467,1.65216 0.31381,5.13601 0.31381,5.13601" data-paper-data="{&quot;index&quot;:null}" stroke-linecap="round"></path><path d="M210.7965,199.21634c0,0 -1.76909,3.01435 -3.20416,4.0262c-1.29187,0.91089 -5.02191,1.77395 -5.02191,1.77395" data-paper-data="{&quot;index&quot;:null}" stroke-linecap="round"></path><path d="M195.41148,189.43938c1.21141,0.38217 1.03506,4.36393 -0.39386,8.89353c-1.42893,4.5296 -3.56934,7.89177 -4.78073,7.50962c-1.21141,-0.38217 -1.03506,-4.36393 0.39386,-8.89353c1.42893,-4.5296 3.56934,-7.89177 4.78073,-7.50962z" stroke-linecap="butt"></path><path d="M190.50133,200.45657l-46.4915,-14.6664c0,0 -0.5463,-2.4232 -0.21434,-3.4755c0.3445,-1.092 2.24506,-2.9618 2.24506,-2.9618l46.4915,14.6664z" stroke-linecap="butt"></path></g></g></g></svg>