<svg version="1.1" xmlns="http://www.w3.org/2000/svg" xmlns:xlink="http://www.w3.org/1999/xlink" width="161.53609" height="67.17041" viewBox="0,0,161.53609,67.17041"><g transform="translate(-119.99143,-125.92077)"><g data-paper-data="{&quot;isPaintingLayer&quot;:true}" fill-rule="nonzero" stroke-linejoin="miter" stroke-miterlimit="10" stroke-dasharray="" stroke-dashoffset="0" style="mix-blend-mode: normal"><path d="" data-paper-data="{&quot;index&quot;:null}" fill="none" stroke="#000000" stroke-width="1.5" stroke-linecap="round"></path><path d="" data-paper-data="{&quot;index&quot;:null}" fill="none" stroke="#000000" stroke-width="1.5" stroke-linecap="round"></path><g><path d="M123.14761,140.81616c10.06413,-14.37078 48.80807,-18.35698 86.537,-8.90346c37.72893,9.45354 60.15567,28.76696 50.09154,43.13773c-10.06413,14.37078 -48.80807,18.35698 -86.537,8.90346c-37.72893,-9.45354 -60.15567,-28.76696 -50.09154,-43.13773z" fill="#d8d8d8" stroke="#000000" stroke-width="1.5" stroke-linecap="butt"></path><path d="M207.55594,172.93726c0,0 -41.96886,-4.30172 -50.06032,-8.56559" data-paper-data="{&quot;index&quot;:null}" fill="none" stroke="#000000" stroke-width="1.5" stroke-linecap="round"></path><path d="M152.61751,126.20756l47.36163,20.8453l56.3064,6.30131c0,0 3.52353,6.91055 3.68439,9.9354c0.15447,2.90468 -0.1405,8.08249 -0.1405,8.08249l-72.87386,-5.7226l-61.96608,-29.36332c0,0 6.37749,-3.68883 10.13171,-5.49824c4.04038,-1.94732 17.49629,-4.58033 17.49629,-4.58033z" fill="#595959" stroke="#000000" stroke-width="0.5" stroke-linecap="round"></path><path d="M186.89317,151.9228c6.14338,5.76952 -5.98454,0.78889 -13.74982,-1.15681c-7.76527,-1.94571 -9.97011,-9.36338 -9.97011,-9.36338c0,0 17.57654,4.75067 23.71992,10.5202z" fill="#ffffff" stroke="none" stroke-width="0" stroke-linecap="butt"></path><path d="M231.23751,158.50179c0,0 -10.38513,4.26308 -18.15039,2.31738c-7.76527,-1.94571 -22.20693,-3.62247 -11.02304,-5.0504c11.18389,-1.42792 29.17343,2.73301 29.17343,2.73301z" data-paper-data="{&quot;index&quot;:null}" fill="#ffffff" stroke="none" stroke-width="0" stroke-linecap="butt"></path><path d="M190.7141,193.09117" fill="none" stroke="#d8d8d8" stroke-width="4" stroke-linecap="round"></path><g fill="none" stroke-linecap="round"><path d="M234.8385,185.86747c-14.05949,11.1114 -9.09607,-7.24464 -9.09607,-7.24464" stroke="#ff0000" stroke-width="3.5"></path><path d="M226.33517,189.44205c-11.24863,-2.65214 -14.79933,-8.83145 -10.39918,-12.45779" stroke="#ff0000" stroke-width="3.5"></path><g><path d="M233.85348,186.99875c0,0 8.5774,-21.21224 22.63689,-32.32365c14.05949,-11.1114 9.09607,7.24464 9.09607,7.24464" stroke="#ff0000" stroke-width="3.5"></path><path d="M249.0922,161.35806l-4.35735,5.98748" stroke="#d8d8d8" stroke-width="4"></path><path d="M267.5466,152.0937c11.24863,2.65214 14.79933,8.83145 10.39918,12.45779" stroke="#ff0000" stroke-width="3.5"></path></g></g></g></g></g></svg>