<svg version="1.1" xmlns="http://www.w3.org/2000/svg" xmlns:xlink="http://www.w3.org/1999/xlink" width="99.26615" height="80.5" viewBox="0,0,99.26615,80.5"><g transform="translate(-192.59302,-137.92395)"><g data-paper-data="{&quot;isPaintingLayer&quot;:true}" fill-rule="nonzero" stroke-linejoin="miter" stroke-miterlimit="10" stroke-dasharray="" stroke-dashoffset="0" style="mix-blend-mode: normal"><path d="M193.09302,186.02282c0,-3.96071 3.21079,-7.1715 7.1715,-7.1715c3.96071,0 7.1715,3.21079 7.1715,7.1715c0,3.96071 -3.21079,7.1715 -7.1715,7.1715c-3.96071,0 -7.1715,-3.21079 -7.1715,-7.1715z" fill="#d8d8d8" stroke="#000000" stroke-width="1" stroke-linecap="butt"></path><path d="" data-paper-data="{&quot;index&quot;:null}" fill="none" stroke="#000000" stroke-width="1.5" stroke-linecap="round"></path><path d="" data-paper-data="{&quot;index&quot;:null}" fill="none" stroke="#000000" stroke-width="1.5" stroke-linecap="round"></path><path d="M199.48851,178.17395c0,-21.81525 17.68475,-39.5 39.5,-39.5c21.81525,0 39.5,17.68475 39.5,39.5c0,21.81525 -17.68475,39.5 -39.5,39.5c-21.81525,0 -39.5,-17.68475 -39.5,-39.5z" fill="#d8d8d8" stroke="#000000" stroke-width="1.5" stroke-linecap="butt"></path><path d="M225.51007,194.79569c5.44898,-2.88817 27.57511,5.13694 27.57511,5.13694" data-paper-data="{&quot;index&quot;:null}" fill="none" stroke="#000000" stroke-width="1.5" stroke-linecap="round"></path><path d="M225.31197,165.60053l6.99536,1.82343v8" fill="none" stroke="#000000" stroke-width="1.5" stroke-linecap="round"></path><path d="M237.86965,175.98477l-0.24149,-8.93527l7.00332,-2.17344" fill="none" stroke="#000000" stroke-width="1.5" stroke-linecap="round"></path><path d="M238.59414,186.12751l16.42158,-6.52033" fill="none" stroke="#000000" stroke-width="1.5" stroke-linecap="round"></path><path d="M244.63149,185.64452l-2.89793,-5.55436" fill="none" stroke="#000000" stroke-width="1.5" stroke-linecap="round"></path><path d="M250.18584,185.64452l-3.8639,-7.7278" fill="none" stroke="#000000" stroke-width="1.5" stroke-linecap="round"></path><g><path d="M231.78765,205.91863l-6.02943,9.22949l-14.00763,1.43941l9.75281,-11.48562z" data-paper-data="{&quot;index&quot;:null}" fill="#c6c6c6" stroke="#c6c6c6" stroke-width="1.5" stroke-linecap="round"></path><path d="M263.59568,176.09351" fill="none" stroke="#d8d8d8" stroke-width="4" stroke-linecap="round"></path><path d="M291.85917,177.21968l-49.9724,26.17051l-1.80486,-3.44638l49.9724,-26.17051z" fill="#7f7600" stroke="#000000" stroke-width="0" stroke-linecap="butt"></path><path d="M230.70164,207.83701c-2.37392,-0.29428 -2.14756,-2.71049 -2.14756,-2.71049l0.87377,-3.65093c2.11421,-2.2286 4.70547,-3.81991 6.6444,-6.19046c0.80366,-0.98255 1.10855,-2.63731 2.31856,-3.02089c1.86166,-0.59016 4.46742,-0.95279 5.84279,0.4337c1.13588,1.14505 -0.81434,3.18858 -0.65719,4.79378c0.08277,0.84539 1.25951,1.32255 1.33879,2.16828c0.05947,0.63433 -1.30108,1.0886 -0.98177,1.63991c0.49308,0.85133 2.61776,0.28457 2.66555,1.26723c0.322,6.62199 -8.55373,7.19992 -12.91501,8.0424c0,0 -2.45472,0.47362 -2.92834,-1.9811c-0.0561,-0.29076 -0.07112,-0.55374 -0.05399,-0.79142z" fill="#ff0000" stroke="none" stroke-width="0.5" stroke-linecap="butt"></path></g></g></g></svg>