<svg version="1.1" xmlns="http://www.w3.org/2000/svg" xmlns:xlink="http://www.w3.org/1999/xlink" width="169.68894" height="80.5" viewBox="0,0,169.68894,80.5"><g transform="translate(-184.52581,-137.92395)"><g data-paper-data="{&quot;isPaintingLayer&quot;:true}" fill-rule="nonzero" stroke-linejoin="miter" stroke-miterlimit="10" stroke-dasharray="" stroke-dashoffset="0" style="mix-blend-mode: normal"><path d="" data-paper-data="{&quot;index&quot;:null}" fill="none" stroke="#000000" stroke-width="1.5" stroke-linecap="round"></path><path d="M199.48853,178.17395c0,-21.81525 17.68475,-39.5 39.5,-39.5c21.81525,0 39.5,17.68475 39.5,39.5c0,21.81525 -17.68475,39.5 -39.5,39.5c-21.81525,0 -39.5,-17.68475 -39.5,-39.5z" fill="#d8d8d8" stroke="#000000" stroke-width="1.5" stroke-linecap="butt"></path><path d="M253.0852,194.16859c0,0 -22.12613,8.02511 -27.57511,5.13694" data-paper-data="{&quot;index&quot;:null}" fill="none" stroke="#000000" stroke-width="1.5" stroke-linecap="round"></path><path d="M184.52581,194.65338" fill="none" stroke="#d8d8d8" stroke-width="4" stroke-linecap="round"></path><path d="M232.30735,175.42396v-8" fill="none" stroke="#000000" stroke-width="1.5" stroke-linecap="round"></path><path d="M241.28665,173.49279c0,0 1.27486,-2.93117 2.69835,-2.93117c1.20746,0 3.02185,2.93117 3.02185,2.93117" fill="none" stroke="#000000" stroke-width="1.5" stroke-linecap="round"></path><g data-paper-data="{&quot;index&quot;:null}"><path d="M267.08388,187.83859l54.82642,-13.27403l0.91546,3.78114l-54.82642,13.27403z" fill="#7f7600" stroke="#000000" stroke-width="0" stroke-linecap="butt"></path><path d="M324.90061,175.35941c-0.99484,-4.23565 1.63238,-8.47579 5.86801,-9.47061c4.23565,-0.99484 8.47579,1.63238 9.47061,5.86801c0.99484,4.23565 -1.63238,8.47579 -5.86801,9.47061c-4.23565,0.99484 -8.47579,-1.63238 -9.47061,-5.86801z" fill="none" stroke="#ffee00" stroke-width="5" stroke-linecap="butt"></path><path d="M340.68443,168.75494c0,0 9.55045,-3.77899 10.28032,0.38281c0.72988,4.1618 -9.28028,5.57647 -9.28028,5.57647" fill="none" stroke="#ffee00" stroke-width="6.5" stroke-linecap="round"></path><path d="M327.83498,166.14991c0,0 -3.77898,-9.55045 0.38281,-10.28032c4.16179,-0.72986 5.57646,9.28029 5.57646,9.28029" fill="none" stroke="#ffee00" stroke-width="6.5" stroke-linecap="round"></path><path d="M324.43898,178.44967c0,0 -9.55045,3.77899 -10.28032,-0.38281c-0.72987,-4.16181 9.2803,-5.57647 9.2803,-5.57647" fill="none" stroke="#ffee00" stroke-width="6.5" stroke-linecap="round"></path><path d="M338.20102,181.61225c0,0 3.77898,9.55045 -0.38282,10.28031c-4.1618,0.72988 -5.57647,-9.28028 -5.57647,-9.28028" fill="none" stroke="#ffee00" stroke-width="6.5" stroke-linecap="round"></path></g></g></g></svg>