<svg version="1.1" xmlns="http://www.w3.org/2000/svg" xmlns:xlink="http://www.w3.org/1999/xlink" width="130.38209" height="80.5" viewBox="0,0,130.38209,80.5"><g transform="translate(-154.1974,-139.75)"><g data-paper-data="{&quot;isPaintingLayer&quot;:true}" fill-rule="nonzero" stroke-linejoin="miter" stroke-miterlimit="10" stroke-dasharray="" stroke-dashoffset="0" style="mix-blend-mode: normal"><path d="M260.61163,203.25204c0,-4.53898 3.67957,-8.21855 8.21855,-8.21855c4.53898,0 8.21855,3.67957 8.21855,8.21855c0,4.53898 -3.67957,8.21855 -8.21855,8.21855c-4.53898,0 -8.21855,-3.67956 -8.21855,-8.21855z" fill="#d8d8d8" stroke="#000000" stroke-width="1" stroke-linecap="butt"></path><path d="M204.82949,180c0,-21.81525 17.68475,-39.5 39.5,-39.5c21.81525,0 39.5,17.68475 39.5,39.5c0,21.81525 -17.68475,39.5 -39.5,39.5c-21.81525,0 -39.5,-17.68475 -39.5,-39.5z" fill="#d8d8d8" stroke="#000000" stroke-width="1.5" stroke-linecap="butt"></path><path d="M228.58224,167.20295l9,1v8" fill="none" stroke="#000000" stroke-width="1.5" stroke-linecap="round"></path><path d="M248.51493,176.68819v-8l9,-1" data-paper-data="{&quot;index&quot;:null}" fill="none" stroke="#000000" stroke-width="1.5" stroke-linecap="round"></path><path d="M256.96879,195.96181l-31.37388,0.40984v-12.29517z" fill="#ffffff" stroke="#000000" stroke-width="1.5" stroke-linecap="round"></path><path d="M231.53051,196.37165l0.42397,-10.17531" fill="none" stroke="#000000" stroke-width="1.5" stroke-linecap="round"></path><path d="M240.43391,190.01208v5.9356" fill="none" stroke="#000000" stroke-width="1.5" stroke-linecap="round"></path><g stroke="none" stroke-linecap="butt"><path d="M167.01843,157.54675l1.53301,-3.25153l30.07659,14.18043l-1.53301,3.25153z" fill="#606060" stroke-width="0"></path><path d="M187.75055,173.28293l2.93829,-6.23209l4.0644,1.91628l-2.93829,6.23209z" fill="#606060" stroke-width="0"></path><path d="M154.20763,161.7737c0.93971,-1.9931 2.95927,-6.27657 2.95927,-6.27657l64.40321,30.36464l-5.40752,11.46929l-46.61099,-21.97603l2.18497,-4.64142c0,0 -18.02955,-7.87811 -17.52893,-8.93991z" fill="#969696" stroke-width="NaN"></path><path d="M209.1016,212.4173l3.48387,-25.22367l8.51211,0.23275c0,0 -2.46134,8.87325 -1.36805,13.01913c1.30124,4.93445 8.66077,14.63592 8.66077,14.63592z" fill="#606060" stroke-width="0"></path><path d="M177.7859,194.41782l7.02634,-14.90282l6.23209,2.93829l-7.02634,14.90282z" fill="#606060" stroke-width="0"></path><path d="M193.35525,183.87402l4.43769,-9.41231l5.96112,2.81054l-4.43769,9.41231z" fill="#00fffe" stroke-width="0"></path><path d="M201.99635,187.87965l4.43769,-9.41231l5.96112,2.81054l-4.43769,9.41231z" fill="#00fffe" stroke-width="0"></path><path d="M185.31041,180.27533l4.43769,-9.41231l5.96112,2.81054l-4.43769,9.41231z" fill="#00fffe" stroke-width="0"></path></g></g></g></svg>