<svg version="1.1" xmlns="http://www.w3.org/2000/svg" xmlns:xlink="http://www.w3.org/1999/xlink" width="88.84332" height="140.42819" viewBox="0,0,88.84332,140.42819"><defs><radialGradient cx="441.3026" cy="190.97766" r="10.40477" gradientUnits="userSpaceOnUse" id="color-1"><stop offset="0" stop-color="#ffffff"/><stop offset="1" stop-color="#f3fffe"/></radialGradient><radialGradient cx="478.8905" cy="88.90318" r="10.40477" gradientUnits="userSpaceOnUse" id="color-2"><stop offset="0" stop-color="#ffffff"/><stop offset="1" stop-color="#f3fffe"/></radialGradient></defs><g transform="translate(-430.39522,-77.99577)"><g stroke="#000000" stroke-miterlimit="10"><path d="" fill="none" stroke-width="1.5" stroke-linecap="round"/><path d="" fill="none" stroke-width="1.5" stroke-linecap="round"/><path d="M439.48854,178.17397c0,-21.81525 17.68475,-39.5 39.5,-39.5c21.81525,0 39.5,17.68475 39.5,39.5c0,21.81525 -17.68475,39.5 -39.5,39.5c-21.81525,0 -39.5,-17.68475 -39.5,-39.5z" fill="#ffffff" stroke-width="1.5" stroke-linecap="butt"/><path d="M472.79024,167.28626c0,1.80048 -0.36489,3.26006 -0.81501,3.26006c-0.45012,0 -0.81502,-1.45958 -0.81502,-3.26006c0,-1.80048 0.3649,-3.26006 0.81502,-3.26006c0.45012,0 0.81501,1.45958 0.81501,3.26006z" fill="none" stroke-width="1.5" stroke-linecap="butt"/><path d="M479.10661,167.38815c0,1.85674 -0.3649,3.36194 -0.81502,3.36194c-0.45012,0 -0.81501,-1.5052 -0.81501,-3.36194c0,-1.85674 0.36489,-3.36193 0.81501,-3.36193c0.45012,0 0.81502,1.50519 0.81502,3.36193z" fill="none" stroke-width="1.5" stroke-linecap="butt"/><path d="M478.01549,180.95609c0,1.91302 -1.7369,3.46381 -3.87947,3.46381c-2.14257,0 -3.87948,-1.5508 -3.87948,-3.46381c0,-1.91302 1.7369,-3.46382 3.87948,-3.46382c2.14257,0 3.87947,1.5508 3.87947,3.46382z" fill="#ff6900" stroke-width="0" stroke-linecap="butt"/><path d="M445.44087,181.43126c5.27234,2.28549 7.69366,8.41232 5.40819,13.68467c-2.28549,5.27233 -8.41232,7.69367 -13.68468,5.40817c-5.27234,-2.28549 -7.69366,-8.41232 -5.40817,-13.68468c2.28549,-5.27233 8.41232,-7.69367 13.68466,-5.40817z" fill="url(#color-1)" stroke-width="1" stroke-linecap="butt"/><path d="M476.89599,193.88029c0,1.28556 -0.99004,2.32771 -2.21132,2.32771c-1.22128,0 -2.21132,-1.04215 -2.21132,-2.32771c0,-1.28556 0.99004,-2.32771 2.21132,-2.32771c1.22128,0 2.21132,1.04215 2.21132,2.32771z" fill="none" stroke-width="1.5" stroke-linecap="butt"/><path d="M483.02877,79.35678c5.27234,2.28549 7.69366,8.41232 5.40819,13.68467c-2.28549,5.27233 -8.41232,7.69367 -13.68468,5.40817c-5.27234,-2.28549 -7.69366,-8.41232 -5.40817,-13.68468c2.28549,-5.27233 8.41232,-7.69367 13.68466,-5.40817z" fill="url(#color-2)" stroke-width="1" stroke-linecap="butt"/></g></g></svg>