<svg version="1.1" xmlns="http://www.w3.org/2000/svg" xmlns:xlink="http://www.w3.org/1999/xlink" width="128.32005" height="188.64758" viewBox="0,0,128.32005,188.64758"><g transform="translate(-207.90587,34.82695)"><g data-paper-data="{&quot;isPaintingLayer&quot;:true}" fill-rule="nonzero" stroke-linejoin="miter" stroke-miterlimit="10" stroke-dasharray="" stroke-dashoffset="0" style="mix-blend-mode: normal"><path d="" data-paper-data="{&quot;index&quot;:null}" fill="none" stroke="#000000" stroke-width="1.5" stroke-linecap="round"></path><path d="" data-paper-data="{&quot;index&quot;:null}" fill="none" stroke="#000000" stroke-width="1.5" stroke-linecap="round"></path><path d="" data-paper-data="{&quot;index&quot;:null}" fill="none" stroke="#000000" stroke-width="1.5" stroke-linecap="round"></path><path d="" data-paper-data="{&quot;index&quot;:null}" fill="none" stroke="#000000" stroke-width="1.5" stroke-linecap="round"></path><path d="M265.10529,137.78444" data-paper-data="{&quot;index&quot;:null}" fill="none" stroke="#d8d8d8" stroke-width="4" stroke-linecap="round"></path><path d="M250.82465,134.18861c-23.28918,0 -42.16878,-37.27534 -42.16878,-83.25682c0,-45.98148 18.87961,-83.25682 42.16878,-83.25682c23.28918,0 42.16878,37.27534 42.16878,83.25682c0,45.98148 -18.87961,83.25682 -42.16878,83.25682z" data-paper-data="{&quot;index&quot;:null}" fill="#d8d8d8" stroke="#000000" stroke-width="1.5" stroke-linecap="butt"></path><path d="M266.29356,91.62335c-5.81715,6.08759 -29.4382,-10.82748 -29.4382,-10.82748" data-paper-data="{&quot;index&quot;:null}" fill="none" stroke="#000000" stroke-width="1.5" stroke-linecap="round"></path><path d="M282.89037,-8.9325c0,0 6.09779,16.34451 7.50336,24.40082c1.30604,7.48575 3.29844,21.87645 3.29844,21.87645l-43.33879,37.66389l-40.37271,-34.12583c0,0 1.74927,-14.29519 2.89861,-22.0964c1.19689,-8.12393 5.5886,-24.53132 5.5886,-24.53132l31.88547,21.25093l32.537,-24.43858z" data-paper-data="{&quot;index&quot;:null}" fill="#595959" stroke="#000000" stroke-width="0.5" stroke-linecap="round"></path><path d="M271.75913,25.22908c0,0 -3.88574,18.6872 -8.67906,18.6872c-4.79333,0 -12.9937,5.28559 -7.64585,-6.22907c5.34785,-11.51465 16.32491,-12.45813 16.32491,-12.45813z" data-paper-data="{&quot;index&quot;:null}" fill="#ffffff" stroke="none" stroke-width="0" stroke-linecap="butt"></path><path d="M246.05314,37.80881c5.34785,11.51467 -2.85252,6.22907 -7.64584,6.22907c-4.7933,0 -8.67906,-18.6872 -8.67906,-18.6872c0,0 10.97705,0.94348 16.3249,12.45813z" data-paper-data="{&quot;index&quot;:null}" fill="#ffffff" stroke="none" stroke-width="0" stroke-linecap="butt"></path><g data-paper-data="{&quot;index&quot;:null}" fill="none" stroke-linecap="round"><path d="M303.23521,115.44962c0,0 -24.15054,67.49875 -11.35579,10.95187" stroke="#ff0000" stroke-width="3.5"></path><path d="M307.08233,123.96926c-4.20681,18.18748 -13.1984,33.50018 -18.66225,26.27198" stroke="#ff0000" stroke-width="3.5"></path><g><path d="M319.38147,3.89592c0,0 24.15054,-67.49875 11.35579,-10.95187c-12.79474,56.54691 -40.23419,138.58108 -40.23419,138.58108" stroke="#ff0000" stroke-width="3.5"></path><path d="M322.86727,25.45297l-7.42571,25.90315" stroke="#d8d8d8" stroke-width="4"></path><path d="M313.76205,-4.97558c4.20681,-18.18748 13.1984,-33.50018 18.66225,-26.27198" stroke="#ff0000" stroke-width="3.5"></path></g></g></g></g></svg>