<svg version="1.1" xmlns="http://www.w3.org/2000/svg" xmlns:xlink="http://www.w3.org/1999/xlink" width="190.04667" height="242.25559" viewBox="0,0,190.04667,242.25559"><g transform="translate(-99.87726,-90.98956)"><g data-paper-data="{&quot;isPaintingLayer&quot;:true}" fill-rule="nonzero" stroke-linejoin="miter" stroke-miterlimit="10" stroke-dasharray="" stroke-dashoffset="0" style="mix-blend-mode: normal"><path d="" data-paper-data="{&quot;index&quot;:null}" fill="none" stroke="#000000" stroke-width="1.5" stroke-linecap="round"></path><path d="M289.92393,195.47554" data-paper-data="{&quot;index&quot;:null}" fill="none" stroke="#d8d8d8" stroke-width="4" stroke-linecap="round"></path><path d="M241.20088,220.1207c-21.81525,0 -39.5,-17.68475 -39.5,-39.5c0,-21.81525 17.68475,-39.5 39.5,-39.5c21.81525,0 39.5,17.68475 39.5,39.5c0,21.81525 -17.68475,39.5 -39.5,39.5z" fill="#d8d8d8" stroke="#000000" stroke-width="1.5" stroke-linecap="butt"></path><path d="M240.39832,174.20032l-14.03116,-4.59202" fill="none" stroke="#000000" stroke-width="1.5" stroke-linecap="round"></path><path d="M231.5283,173.09156l0.25511,5.86758" fill="none" stroke="#000000" stroke-width="1.5" stroke-linecap="round"></path><path d="M243.71478,173.69009l7.65337,-3.82668" fill="none" stroke="#000000" stroke-width="1.5" stroke-linecap="round"></path><path d="M246.5034,173.05217l-0.21988,5.35892" fill="none" stroke="#000000" stroke-width="1.5" stroke-linecap="round"></path><path d="M229.62579,192.95291l25.16666,2.30233l-24.96157,-0.52657" fill="none" stroke="#000000" stroke-width="3" stroke-linecap="round"></path><g data-paper-data="{&quot;index&quot;:null}" stroke="#000000" stroke-linecap="butt"><path d="M238.14347,229.77311l1.53017,-21.5296c0,0 2.40018,-3.46877 3.49496,-3.45376c1.09281,0.015 3.0678,3.54376 3.0678,3.54376l-1.53017,21.5296z" fill="#af5400" stroke-width="1.5"></path><path d="M252.66703,234.31744c0,0 -5.92268,0.4416 -12.6822,0.17653c-3.61876,-0.14188 -10.8189,-0.10063 -10.8189,-0.10063c0,0 -0.87482,-4.50863 -0.6865,-5.9341c0.40528,-3.06784 6.2135,-5.33996 12.97302,-5.0749c3.64665,0.14294 9.20651,0.16049 11.41893,3.05008c1.88857,2.46662 -0.20432,7.88302 -0.20432,7.88302z" fill="#989898" stroke-width="1"></path><path d="M253.06011,234.5489c-0.40527,3.06782 -6.21349,5.33992 -12.97302,5.07488c-6.7595,-0.26505 -11.91067,-2.96691 -11.5054,-6.03475c0.40526,-3.06783 6.21349,-5.33992 12.97302,-5.07488c6.75954,0.26505 11.91067,2.96692 11.50542,6.03475z" fill="#989898" stroke-width="1"></path><path d="M237.67869,233.05031c0,0 2.30215,-1.8167 3.28741,-1.83605c0.9625,-0.01894 2.55759,1.72122 2.55759,1.72122l-3.91907,85.55272l-6.4597,13.53486l4.53381,-98.97276z" fill="#e6e6e6" stroke-width="0.5"></path></g><g data-paper-data="{&quot;index&quot;:null}" stroke="#000000" stroke-linecap="butt"><path d="M194.63114,143.98537l18.32522,11.404c0,0 1.94709,3.74193 1.42273,4.70309c-0.52343,0.95942 -4.56606,1.05863 -4.56606,1.05863l-18.32522,-11.404z" fill="#af5400" stroke-width="1.5"></path><path d="M183.83226,154.70773c0,0 2.3744,-5.44384 5.7644,-11.29783c1.81484,-3.13399 5.13965,-9.52065 5.13965,-9.52065c0,0 4.39558,1.33115 5.56827,2.16315c2.52382,1.79059 1.82167,7.98776 -1.56833,13.84176c-1.8288,3.15816 -4.43987,8.06679 -8.02809,8.67437c-3.06299,0.51864 -6.87591,-3.86077 -6.87591,-3.86077z" fill="#989898" stroke-width="1"></path><path d="M183.44406,154.94729c-2.52381,-1.79057 -1.82164,-7.98773 1.56835,-13.84175c3.38998,-5.85398 8.18411,-9.14806 10.70794,-7.35748c2.52383,1.79056 1.82164,7.98773 -1.56835,13.84175c-3.39,5.85402 -8.18411,9.14806 -10.70794,7.3575z" fill="#989898" stroke-width="1"></path><path d="M191.94995,142.04443c0,0 0.53186,2.88399 0.08902,3.76434c-0.43258,0.86002 -2.71613,1.45826 -2.71613,1.45826l-73.82843,-43.40496l-8.95384,-12.03116l85.40937,50.21357z" fill="#e6e6e6" stroke-width="0.5"></path></g><g data-paper-data="{&quot;index&quot;:null}" stroke="#000000" stroke-linecap="butt"><path d="M189.9839,204.4728l18.97782,-10.28142c0,0 4.21518,0.15961 4.79095,1.09088c0.57471,0.9296 -1.33948,4.4917 -1.33948,4.4917l-18.97782,10.28142z" fill="#af5400" stroke-width="1.5"></path><path d="M193.95793,219.16265c0,0 -3.55572,-4.7571 -6.96532,-10.59971c-1.82537,-3.12787 -5.73011,-9.17739 -5.73011,-9.17739c0,0 3.33182,-3.16102 4.6351,-3.76838c2.80486,-1.30715 7.8427,2.36956 11.2523,8.21216c1.83947,3.15196 4.813,7.84988 3.56541,11.26866c-1.06497,2.91835 -6.75737,4.06469 -6.75737,4.06469z" fill="#989898" stroke-width="1"></path><path d="M193.97402,219.61853c-2.80484,1.30714 -7.84266,-2.36957 -11.25228,-8.21217c-3.4096,-5.84258 -3.89985,-11.63863 -1.09499,-12.94579c2.80484,-1.30716 7.84267,2.36957 11.25229,8.21217c3.40962,5.84261 3.89984,11.63864 1.095,12.9458z" fill="#989898" stroke-width="1"></path><path d="M186.97051,205.8423c0,0 2.76934,0.9649 3.31522,1.78535c0.5333,0.80147 -0.0768,3.08188 -0.0768,3.08188l-74.25092,42.6782l-14.88559,1.82744l85.89812,-49.37283z" fill="#e6e6e6" stroke-width="0.5"></path></g></g></g></svg>