<svg version="1.1" xmlns="http://www.w3.org/2000/svg" xmlns:xlink="http://www.w3.org/1999/xlink" width="93.23901" height="91.25485" viewBox="0,0,93.23901,91.25485"><g transform="translate(-207.00618,-130.4215)"><g data-paper-data="{&quot;isPaintingLayer&quot;:true}" fill-rule="nonzero" stroke-linejoin="miter" stroke-miterlimit="10" stroke-dasharray="" stroke-dashoffset="0" style="mix-blend-mode: normal"><path d="" data-paper-data="{&quot;index&quot;:null}" fill="none" stroke="#000000" stroke-width="1.5" stroke-linecap="round"></path><path d="" data-paper-data="{&quot;index&quot;:null}" fill="none" stroke="#000000" stroke-width="1.5" stroke-linecap="round"></path><path d="M220.49519,180.69476c0,-21.81525 17.68475,-39.5 39.5,-39.5c21.81525,0 39.5,17.68475 39.5,39.5c0,21.81525 -17.68475,39.5 -39.5,39.5c-21.81525,0 -39.5,-17.68475 -39.5,-39.5z" fill="#d8d8d8" stroke="#000000" stroke-width="1.5" stroke-linecap="butt"></path><path d="M246.51675,197.3165c5.44898,-2.88817 27.57511,5.13694 27.57511,5.13694" data-paper-data="{&quot;index&quot;:null}" fill="none" stroke="#000000" stroke-width="1.5" stroke-linecap="round"></path><path d="M246.31865,168.12134l6.99536,1.82343v8" fill="none" stroke="#000000" stroke-width="1.5" stroke-linecap="round"></path><path d="M258.87633,178.50558l-0.24149,-8.93527l7.00332,-2.17344" fill="none" stroke="#000000" stroke-width="1.5" stroke-linecap="round"></path><path d="M259.60082,188.64832l16.42158,-6.52033" fill="none" stroke="#000000" stroke-width="1.5" stroke-linecap="round"></path><path d="M265.63817,188.16533l-2.89793,-5.55436" fill="none" stroke="#000000" stroke-width="1.5" stroke-linecap="round"></path><path d="M271.19252,188.16533l-3.8639,-7.7278" fill="none" stroke="#000000" stroke-width="1.5" stroke-linecap="round"></path><g><path d="M214.43474,155.1314l-5.21457,-9.71315l5.44488,-12.98606l5.41194,14.06228z" data-paper-data="{&quot;index&quot;:null}" fill="#c6c6c6" stroke="#c6c6c6" stroke-width="1.5" stroke-linecap="round"></path><path d="M225.38356,197.33818" fill="none" stroke="#d8d8d8" stroke-width="4" stroke-linecap="round"></path><path d="M210.85906,221.61021l0.95861,-56.40227l3.88981,0.06614l-0.95861,56.40227z" fill="#7f7600" stroke="#000000" stroke-width="0" stroke-linecap="butt"></path><path d="M213.27075,153.25929c1.39522,-1.94302 3.40794,-0.58716 3.40794,-0.58716l2.78655,2.51553c0.9439,2.92331 1.09982,5.96017 2.25223,8.79756c0.47764,1.17606 1.78427,2.23621 1.54152,3.48213c-0.37349,1.91691 -1.30311,4.37806 -3.17894,4.92145c-1.54919,0.44876 -2.40911,-2.24195 -3.89352,-2.87275c-0.78177,-0.33221 -1.76422,0.47227 -2.54462,0.13687c-0.58534,-0.25157 -0.33252,-1.66352 -0.96941,-1.64724c-0.98349,0.02517 -1.50351,2.16174 -2.38904,1.73307c-5.9674,-2.88872 -2.22399,-10.95712 -0.8749,-15.18922c0,0 0.75984,-2.38173 3.14155,-1.62186c0.28213,0.09002 0.52018,0.20277 0.72062,0.33162z" fill="#ff0000" stroke="none" stroke-width="0.5" stroke-linecap="butt"></path></g></g></g></svg>