<svg version="1.1" xmlns="http://www.w3.org/2000/svg" xmlns:xlink="http://www.w3.org/1999/xlink" width="972.08408" height="598" viewBox="0,0,972.08408,598"><g transform="translate(7.54354,119)"><g stroke-miterlimit="10"><path d="M-7.54354,479v-598h972.08408v598z" fill="#9b9b9b" stroke="none" stroke-width="NaN" stroke-linecap="butt"/><g stroke="#000000" stroke-width="1.5"><g><path d="M442.26015,272.86293c-42.79705,-0.20462 -77.32506,-35.06436 -77.12044,-77.86142c0.20462,-42.79705 35.06436,-77.32507 77.86142,-77.12044c42.79705,0.20462 77.32507,35.06434 77.12048,77.86143c-0.20462,42.79705 -35.06434,77.32507 -77.86142,77.12044z" fill="#d8d8d8" stroke-linecap="butt"/><path d="M441.11643,182.76896l-27.48318,-9.14021" fill="none" stroke-linecap="round"/><path d="M426.66363,181.50559l0.44544,11.5134" fill="none" stroke-linecap="round"/><path d="M447.62744,181.79912l15.05022,-7.43538" fill="none" stroke-linecap="round"/><path d="M418.77287,222.42134l46.09988,0.71088" fill="none" stroke-linecap="round"/></g><path d="M455.66363,180.50559l0.44544,11.5134" fill="none" stroke-linecap="round"/></g><g stroke="#000000" stroke-linecap="butt"><path d="M376.51733,262.71618l-40.9727,5.11545c0,0 -7.40036,-3.21762 -7.77834,-5.27777c-0.3773,-2.05648 5.51256,-7.07211 5.51256,-7.07211l40.9727,-5.11545z" fill="#af5400" stroke-width="1.5"/><path d="M376.51937,232.35558c0,0 3.02601,10.95138 5.03618,23.73549c1.07626,6.84402 3.82478,20.3414 3.82478,20.3414c0,0 -8.33614,2.05477 -11.08126,2.23014c-5.90785,0.3775 -12.12744,-8.42028 -14.13772,-21.20433c-1.0846,-6.89673 -3.01467,-16.70773 1.58753,-21.93186c3.92848,-4.4594 14.77036,-3.17087 14.77036,-3.17087z" fill="#989898" stroke-width="1"/><path d="M374.91834,231.8309c5.90777,-0.37751 12.32667,9.67999 14.33693,22.46407c2.01023,12.78402 -1.14942,23.45371 -7.05719,23.83119c-5.90781,0.37755 -12.32667,-9.67999 -14.33693,-22.46407c-2.01023,-12.7841 1.14942,-23.45371 7.05722,-23.83127z" fill="#989898" stroke-width="1"/><path d="M377.81221,261.25351c0,0 -4.26352,-3.64653 -4.66535,-5.48841c-0.3926,-1.79931 2.28142,-5.43842 2.28142,-5.43842l162.0126,-24.38375l27.79758,7.10184l-187.42635,28.20864z" fill="#e6e6e6" stroke-width="0.5"/></g></g></g></svg>