<svg version="1.1" xmlns="http://www.w3.org/2000/svg" xmlns:xlink="http://www.w3.org/1999/xlink" width="44.77649" height="43.65149" viewBox="0,0,44.77649,43.65149"><g transform="translate(-217.43391,-158.50197)"><g data-paper-data="{&quot;isPaintingLayer&quot;:true}" fill-rule="nonzero" stroke-linejoin="miter" stroke-miterlimit="10" stroke-dasharray="" stroke-dashoffset="0" style="mix-blend-mode: normal"><path d="M239.8,166.7c3.862,0 7.362,1.507 9.897,3.942c2.534,2.435 4.103,5.797 4.103,9.508c0,3.711 -1.569,7.073 -4.103,9.508c-2.535,2.435 -6.035,3.942 -9.897,3.942c-3.862,0 -7.362,-1.507 -9.897,-3.942c-2.534,-2.435 -4.103,-5.797 -4.103,-9.508c0,-3.711 1.569,-7.073 4.103,-9.508c2.535,-2.435 6.035,-3.942 9.897,-3.942z" fill="none" stroke="#00ff55" stroke-width="2" stroke-linecap="butt"></path><path d="M231.05,171.85h18l-9.3,12.65h9.15l0.15,3.7h-18l10.45,-12.6l-10.5,-0.25z" fill="#00ff55" stroke="#00ff55" stroke-width="2" stroke-linecap="round"></path><path d="M237.55293,167.09824l1.75,-7.625l2.125,7z" fill="#00ff55" stroke="#00ff55" stroke-width="0.5" stroke-linecap="round"></path><path d="M247.92457,169.73657l6.62913,-4.15425l-3.44715,6.45235z" fill="#00ff55" stroke="#00ff55" stroke-width="0.5" stroke-linecap="round"></path><path d="M253.61413,177.74599l7.625,1.75l-7,2.125z" fill="#00ff55" stroke="#00ff55" stroke-width="0.5" stroke-linecap="round"></path><path d="M251.6008,187.86763l4.15425,6.62912l-6.45234,-3.44715z" fill="#00ff55" stroke="#00ff55" stroke-width="0.5" stroke-linecap="round"></path><path d="M242.21638,193.55719l-1.75,7.625l-2.12499,-6.99999z" fill="#00ff55" stroke="#00ff55" stroke-width="0.5" stroke-linecap="round"></path><path d="M231.21974,190.91886l-6.62913,4.15425l3.44715,-6.45234z" fill="#00ff55" stroke="#00ff55" stroke-width="0.5" stroke-linecap="round"></path><path d="M226.03018,181.90944l-7.625,-1.75001l6.99999,-2.12499z" fill="#00ff55" stroke="#00ff55" stroke-width="0.5" stroke-linecap="round"></path><path d="M227.79351,171.6628l-4.15424,-6.62913l6.45233,3.44715z" fill="#00ff55" stroke="#00ff55" stroke-width="0.5" stroke-linecap="round"></path></g></g></svg>