<svg version="1.1" xmlns="http://www.w3.org/2000/svg" xmlns:xlink="http://www.w3.org/1999/xlink" width="91.1197" height="82.77165" viewBox="0,0,91.1197,82.77165"><defs><linearGradient x1="517.59165" y1="185.44924" x2="499.48648" y2="219.41586" gradientUnits="userSpaceOnUse" id="color-1"><stop offset="0" stop-color="#906e40"/><stop offset="1" stop-color="#bd9055"/></linearGradient></defs><g transform="translate(-440.95094,-140.3707)"><g stroke-miterlimit="10"><path d="" fill="none" stroke="#000000" stroke-width="1.5" stroke-linecap="round"/><path d="" fill="none" stroke="#000000" stroke-width="1.5" stroke-linecap="round"/><path d="" fill="none" stroke="#000000" stroke-width="1.5" stroke-linecap="round"/><path d="M529.92396,195.47554" fill="none" stroke="#d8d8d8" stroke-width="4" stroke-linecap="round"/><path d="M481.20094,220.1207c-21.81525,0 -39.5,-17.68475 -39.5,-39.5c0,-21.81525 17.68475,-39.5 39.5,-39.5c21.81525,0 39.5,17.68475 39.5,39.5c0,21.81525 -17.68475,39.5 -39.5,39.5z" fill="#d8d8d8" stroke="#000000" stroke-width="1.5" stroke-linecap="butt"/><path d="M447.33597,203.67084c0,0 4.29771,-17.83605 17.34061,-17.83605c13.0429,0 17.67091,18.82695 17.67091,18.82695z" fill="#000000" stroke="#000000" stroke-width="0" stroke-linecap="butt"/><path d="M475.86268,171.40079l-17.15344,-6.06646" fill="none" stroke="#000000" stroke-width="1.5" stroke-linecap="round"/><path d="M471.8881,179.97751l-0.20919,-7.1124" fill="none" stroke="#000000" stroke-width="1.5" stroke-linecap="round"/><path d="M480.25564,169.93648l10.87779,-5.22971" fill="none" stroke="#000000" stroke-width="1.5" stroke-linecap="round"/><path d="M482.34752,172.65592l-0.20919,6.69403" fill="none" stroke="#000000" stroke-width="1.5" stroke-linecap="round"/><path d="M503.68472,161.15057c0,0 1.50418,6.67173 0.29966,8.08882c-1.16496,1.37054 -7.41207,0.27872 -7.41207,0.27872" fill="none" stroke="#ff0000" stroke-width="3" stroke-linecap="round"/><path d="M519.3738,171.60998c0,0 -7.08173,0.40448 -8.61377,-1.03376c-1.8311,-1.71899 -1.63646,-8.5889 -1.63646,-8.5889" fill="none" stroke="#ff0000" stroke-width="3" stroke-linecap="round"/><path d="M498.45502,173.91105c0,0 5.33291,0.0324 6.42032,1.08472c1.07405,1.0394 0.06452,5.19093 0.06452,5.19093" fill="none" stroke="#ff0000" stroke-width="3" stroke-linecap="round"/><path d="M510.58793,183.11534c0,0 -1.72153,-6.01844 -0.52297,-7.217c1.30297,-1.30297 8.05375,-0.31378 8.05375,-0.31378" fill="none" stroke="#ff0000" stroke-width="3" stroke-linecap="round"/><g stroke="none" stroke-width="0" stroke-linecap="butt"><path d="M461.4012,190.58155l33.59743,17.90836l-3.14872,5.90724l-33.59743,-17.90836z" fill="#b1b1b1"/><path d="M459.6397,182.76819l5.72262,3.05033l-8.36379,15.6911l-5.72262,-3.05033z" fill="#909090"/><path d="M502.91584,177.62661l29.1548,16.01444l-24.25883,29.5013l-17.0939,-8.40038z" fill="url(#color-1)"/><path d="M509.65023,192.12054l5.16882,2.75512l-12.20133,22.89057l-5.16882,-2.75512z" fill="#a9a9a9"/></g></g></g></svg>