<svg version="1.1" xmlns="http://www.w3.org/2000/svg" xmlns:xlink="http://www.w3.org/1999/xlink" width="129.25032" height="80.5" viewBox="0,0,129.25032,80.5"><g transform="translate(-157.23768,-139.86622)"><g data-paper-data="{&quot;isPaintingLayer&quot;:true}" fill-rule="nonzero" stroke-linejoin="miter" stroke-miterlimit="10" stroke-dasharray="" stroke-dashoffset="0" style="mix-blend-mode: normal"><g><path d="M169.88041,195.94778c0.07287,-2.13887 1.52174,-3.8254 3.23618,-3.76699c1.71445,0.05841 3.04518,1.83966 2.97229,3.97853c-0.07287,2.13887 -1.52174,3.8254 -3.23618,3.76699c-1.71445,-0.05841 -3.04518,-1.83966 -2.97229,-3.97853z" fill="none" stroke="#000000" stroke-width="0.5" stroke-linecap="butt"></path><path d="M172.92282,194.92576c0,0 -11.45666,0.86502 -13.61861,-0.46396c-1.45239,-0.89281 -1.56653,-4.09795 -1.56653,-4.09795c0,0 -0.4381,-2.78358 1.83041,-3.64756c6.9118,-2.63239 18.42517,0.62773 18.42517,0.62773l-0.61289,17.98954l-5.40739,-0.18421l0.18726,-5.49681z" fill="#989898" stroke="#000000" stroke-width="1" stroke-linecap="round"></path><path d="M167.27664,189.98067l0.1277,-3.74782l3.80519,0.12963l-0.1277,3.74782z" fill="#00f6ff" stroke="none" stroke-width="0" stroke-linecap="butt"></path><path d="M172.26645,190.65093l0.1277,-3.74782l3.80519,0.12963l-0.1277,3.74782z" fill="#00f6ff" stroke="none" stroke-width="0" stroke-linecap="butt"></path><path d="M162.26981,189.8101l0.1277,-3.74782l3.80519,0.12963l-0.1277,3.74782z" fill="#00f6ff" stroke="none" stroke-width="0" stroke-linecap="butt"></path></g><path d="M204.82949,180.11622c0,-21.81525 17.68475,-39.5 39.5,-39.5c21.81525,0 39.5,17.68475 39.5,39.5c0,21.81525 -17.68475,39.5 -39.5,39.5c-21.81525,0 -39.5,-17.68475 -39.5,-39.5z" fill="#d8d8d8" stroke="#000000" stroke-width="1.5" stroke-linecap="butt"></path><path d="M221.33224,167.70295l9,1v8" fill="none" stroke="#000000" stroke-width="1.5" stroke-linecap="round"></path><path d="M235.26493,176.68819v-8l9,-1" data-paper-data="{&quot;index&quot;:null}" fill="none" stroke="#000000" stroke-width="1.5" stroke-linecap="round"></path><g><path d="M276.238,196.51898c0,-2.1401 1.7349,-3.875 3.875,-3.875c2.1401,0 3.875,1.7349 3.875,3.875c0,2.1401 -1.7349,3.875 -3.875,3.875c-2.1401,0 -3.875,-1.7349 -3.875,-3.875z" fill="none" stroke="#000000" stroke-width="0.5" stroke-linecap="butt"></path><path d="M279.988,195.39398c0,0 -14.24795,1.25461 -17,0c-1.8488,-0.84283 -2.12729,-4.04223 -2.12729,-4.04223c0,0 -0.66449,-2.76706 2.12729,-3.70777c8.50613,-2.8662 23,0 23,0v18h-6.75v-5.5z" fill="#989898" stroke="#000000" stroke-width="1" stroke-linecap="round"></path><path d="M272.738,190.64398v-3.75h4.75v3.75z" fill="#00f6ff" stroke="none" stroke-width="0" stroke-linecap="butt"></path><path d="M278.988,191.14398v-3.75h4.75v3.75z" fill="#00f6ff" stroke="none" stroke-width="0" stroke-linecap="butt"></path><path d="M266.488,190.64398v-3.75h4.75v3.75z" fill="#00f6ff" stroke="none" stroke-width="0" stroke-linecap="butt"></path></g><path d="M223.25339,189.59473l8.5,3.25" fill="none" stroke="#000000" stroke-width="1.5" stroke-linecap="round"></path><path d="M175.34117,191.45849c0.24967,-1.98436 2.23402,-1.73469 2.23402,-1.73469l0.76545,0.10266c2.24576,0.10322 3.57925,0.18565 4.92683,0.49418l0.03845,-0.3693l3.32574,0.34631c1.01814,0.09307 1.81561,0.94921 1.81561,1.99161c0,0.05411 -0.00215,0.10772 -0.00637,0.16075l2.0318,1.25855c0.5849,0.34901 0.97665,0.98811 0.97665,1.71872c0,0.91385 -0.61291,1.68455 -1.45008,1.92345c0.25775,0.33672 0.4109,0.75776 0.4109,1.21456c0,0.75939 -0.42323,1.41993 -1.04668,1.75861c0.49473,0.36409 0.81575,0.95049 0.81575,1.61186c0,0.94248 -0.65191,1.73269 -1.5294,1.94432l-2.15235,0.57012l-0.01293,-0.04883l-0.11215,0.0777c-5.59053,0.73376 -10.05194,0.48325 -15.07663,-2.17761c0,0 -1.76038,-0.94925 -0.81112,-2.70963c0.94925,-1.76038 2.70963,-0.81112 2.70963,-0.81112c0.57347,0.316 1.13826,0.59017 1.69815,0.82638c0.32872,-0.45709 0.84555,-0.76982 1.43716,-0.82487l2.17076,-0.23l0.0382,0.36056c0.17264,-0.06076 0.3451,-0.11926 0.51771,-0.17577c-0.82248,-0.24814 -1.42146,-1.01164 -1.42146,-1.91505c0,-0.85299 0.53399,-1.58126 1.28592,-1.86876c-0.37333,-0.27182 -0.64898,-0.6697 -0.76438,-1.13109l-1.0805,-0.1296c0,0 -1.98436,-0.24967 -1.73469,-2.23402z" fill="#989898" stroke="none" stroke-width="0.5" stroke-linecap="butt"></path></g></g></svg>