<svg version="1.1" xmlns="http://www.w3.org/2000/svg" xmlns:xlink="http://www.w3.org/1999/xlink" width="163.50111" height="134.42375" viewBox="0,0,163.50111,134.42375"><defs><radialGradient cx="193.24192" cy="188.53826" r="21.60846" gradientUnits="userSpaceOnUse" id="color-1"><stop offset="0" stop-color="#000000" stop-opacity="0"></stop><stop offset="1" stop-color="#000000"></stop></radialGradient></defs><g transform="translate(-171.63346,-132.82599)"><g data-paper-data="{&quot;isPaintingLayer&quot;:true}" fill-rule="nonzero" stroke-linejoin="miter" stroke-miterlimit="10" stroke-dasharray="" stroke-dashoffset="0" style="mix-blend-mode: normal"><path d="" data-paper-data="{&quot;index&quot;:null}" fill="none" stroke="#000000" stroke-width="1.5" stroke-linecap="round"></path><path d="" data-paper-data="{&quot;index&quot;:null}" fill="none" stroke="#000000" stroke-width="1.5" stroke-linecap="round"></path><path d="" data-paper-data="{&quot;index&quot;:null}" fill="none" stroke="#000000" stroke-width="1.5" stroke-linecap="round"></path><path d="" data-paper-data="{&quot;index&quot;:null}" fill="none" stroke="#000000" stroke-width="1.5" stroke-linecap="round"></path><path d="M289.92393,195.47554" data-paper-data="{&quot;index&quot;:null}" fill="none" stroke="#d8d8d8" stroke-width="4" stroke-linecap="round"></path><path d="M241.20089,220.1207c-21.81525,0 -39.5,-17.68475 -39.5,-39.5c0,-21.81525 17.68475,-39.5 39.5,-39.5c21.81525,0 39.5,17.68475 39.5,39.5c0,21.81525 -17.68475,39.5 -39.5,39.5z" fill="#d8d8d8" stroke="#000000" stroke-width="1.5" stroke-linecap="butt"></path><path d="M230.79023,168.76314l-17.15344,-6.06646" fill="none" stroke="#000000" stroke-width="1.5" stroke-linecap="round"></path><path d="M228.84462,178.96303l-0.20919,-7.1124" fill="none" stroke="#000000" stroke-width="1.5" stroke-linecap="round"></path><path d="M237.64186,170.52883l12.04734,-0.73331" fill="none" stroke="#000000" stroke-width="1.5" stroke-linecap="round"></path><path d="M239.29774,179.14706l0.20919,-6.69403" fill="none" stroke="#000000" stroke-width="1.5" stroke-linecap="round"></path><path d="M249.87009,189.45568c0,0 -2.44712,6.39517 -6.00657,7.52772c-3.85628,1.227 -16.31203,-0.42635 -16.31203,-0.42635" fill="none" stroke="#000000" stroke-width="1.5" stroke-linecap="round"></path><g stroke-width="0" stroke-linecap="butt"><path d="M282.23246,132.82599l13.89678,18.62491l-10.44641,3.94783z" fill="#aeaeae" stroke="none"></path><path d="M315.77036,164.85687l12.22452,-4.6198l7.13969,18.89243l-12.22452,4.6198z" fill="#a7ed95" stroke="none"></path><path d="M235.30998,204.9556l46.67543,-17.63922l1.17595,3.1117l-46.67543,17.63922z" fill="#c2c2c2" stroke="none"></path><path d="M226.79802,202.83822l8.08162,-3.05414l4.95578,13.11357l-8.08162,3.05414z" fill="#a6a6a6" stroke="#000000"></path><path d="M269.8117,157.58652l40.47819,-15.29721l24.19093,64.01201l-40.47819,15.29721z" fill="#73a367" stroke="none"></path><path d="M305.7582,210.96914l10.44641,-3.94783l1.89452,23.16071z" data-paper-data="{&quot;index&quot;:null}" fill="#aeaeae" stroke="none"></path></g><path d="M171.63346,188.53826c0,-11.93402 9.67444,-21.60846 21.60846,-21.60846c11.93402,0 21.60846,9.67444 21.60846,21.60846c0,11.93402 -9.67444,21.60846 -21.60846,21.60846c-11.93402,0 -21.60846,-9.67444 -21.60846,-21.60846z" fill="url(#color-1)" stroke="none" stroke-width="0" stroke-linecap="butt"></path><path d="M178.12614,188.8426c0,-7.84396 6.35878,-14.20274 14.20274,-14.20274c7.84396,0 14.20274,6.35878 14.20274,14.20274c0,7.84396 -6.35878,14.20274 -14.20274,14.20274c-7.84396,0 -14.20274,-6.35878 -14.20274,-14.20274z" fill="#00b128" stroke="none" stroke-width="0" stroke-linecap="butt"></path><path d="M196.56334,198.01022l-13.19918,-13.19918l2.86939,-2.86939l13.19918,13.19918z" fill="#b2b2b2" stroke="none" stroke-width="0" stroke-linecap="butt"></path><path d="M186.23355,198.01022l-2.58245,-2.58245l12.6253,-12.6253l2.58245,2.58245z" fill="#b2b2b2" stroke="none" stroke-width="0" stroke-linecap="butt"></path><text transform="translate(215.72536,233.62399) scale(0.37642,0.37642)" font-size="40" xml:space="preserve" fill="#000000" fill-rule="nonzero" stroke="none" stroke-width="1" stroke-linecap="butt" stroke-linejoin="miter" stroke-miterlimit="10" stroke-dasharray="" stroke-dashoffset="0" font-family="Sans Serif" font-weight="normal" text-anchor="start" style="mix-blend-mode: normal"><tspan x="0" dy="0">Paladin</tspan></text><text transform="translate(213.82429,245.7433) scale(0.20478,0.20478)" font-size="40" xml:space="preserve" fill="#000000" fill-rule="nonzero" stroke="none" stroke-width="1" stroke-linecap="butt" stroke-linejoin="miter" stroke-miterlimit="10" stroke-dasharray="" stroke-dashoffset="0" font-family="Sans Serif" font-weight="normal" text-anchor="start" style="mix-blend-mode: normal"><tspan x="0" dy="0">-Healing</tspan><tspan x="0" dy="46.15px">-Mid-range</tspan><tspan x="0" dy="46.15px">-High HP</tspan></text></g></g></svg>