<svg version="1.1" xmlns="http://www.w3.org/2000/svg" xmlns:xlink="http://www.w3.org/1999/xlink" width="600.8812" height="453.73367" viewBox="0,0,600.8812,453.73367"><defs><radialGradient cx="477.01701" cy="201.16666" r="19.48299" gradientUnits="userSpaceOnUse" id="color-1"><stop offset="0" stop-color="#383838"></stop><stop offset="1" stop-color="#000000"></stop></radialGradient></defs><g transform="translate(60.4406,46.86683)"><g data-paper-data="{&quot;isPaintingLayer&quot;:true}" fill-rule="nonzero" stroke-linejoin="miter" stroke-miterlimit="10" stroke-dasharray="" stroke-dashoffset="0" style="mix-blend-mode: normal"><path d="M-60.4406,406.86684v-453.73367h600.8812v453.73367z" fill="#3a3a3a" stroke="none" stroke-width="NaN" stroke-linecap="butt"></path><path d="M45.5,186.16666c0,-8.28427 6.71573,-15 15,-15c8.28427,0 15,6.71573 15,15c0,8.28427 -6.71573,15 -15,15c-8.28427,0 -15,-6.71573 -15,-15z" fill="#c8c8c8" stroke="#ffffff" stroke-width="1.5" stroke-linecap="butt"></path><path d="M473.20748,200.18706l23.29252,-14.36735l-19.15646,13.27891l9.57823,1.52381l-9.57823,2.82993l2.39456,3.26531l-6.7483,6.09524l-0.21769,-7.18367l-15.2381,11.53741l4.78912,-11.7551l-4.13605,-1.30612l6.09524,-2.61224l-5.44218,-1.7415l3.48299,-11.10204l8.70748,6.53061l4.13605,-6.96599l-1.7415,-2.82993l3.04762,2.61224l-1.30612,-2.82993l2.61224,0.65306v8.05442z" fill="url(#color-1)" stroke="#ffffff" stroke-width="1.5" stroke-linecap="round"></path></g></g></svg>