<svg version="1.1" xmlns="http://www.w3.org/2000/svg" xmlns:xlink="http://www.w3.org/1999/xlink" width="119.34515" height="80.95378" viewBox="0,0,119.34515,80.95378"><g transform="translate(-204.27163,-144.20549)"><g data-paper-data="{&quot;isPaintingLayer&quot;:true}" fill-rule="nonzero" stroke-linejoin="miter" stroke-miterlimit="10" stroke-dasharray="" stroke-dashoffset="0" style="mix-blend-mode: normal"><path d="" data-paper-data="{&quot;index&quot;:null}" fill="none" stroke="#000000" stroke-width="1.5" stroke-linecap="round"></path><path d="" data-paper-data="{&quot;index&quot;:null}" fill="none" stroke="#000000" stroke-width="1.5" stroke-linecap="round"></path><path d="" data-paper-data="{&quot;index&quot;:null}" fill="none" stroke="#000000" stroke-width="1.5" stroke-linecap="round"></path><path d="" data-paper-data="{&quot;index&quot;:null}" fill="none" stroke="#000000" stroke-width="1.5" stroke-linecap="round"></path><path d="" data-paper-data="{&quot;index&quot;:null}" fill="none" stroke="#000000" stroke-width="1.5" stroke-linecap="round"></path><path d="M319.09515,206.33008" data-paper-data="{&quot;index&quot;:null}" fill="none" stroke="#d8d8d8" stroke-width="4" stroke-linecap="round"></path><path d="M289.92393,195.47557" data-paper-data="{&quot;index&quot;:null}" fill="none" stroke="#d8d8d8" stroke-width="4" stroke-linecap="round"></path><path d="M289.92393,195.47557" data-paper-data="{&quot;index&quot;:null}" fill="none" stroke="#d8d8d8" stroke-width="4" stroke-linecap="round"></path><g><path d="M323.61677,210.85169" data-paper-data="{&quot;index&quot;:null}" fill="none" stroke="#d8d8d8" stroke-width="4" stroke-linecap="round"></path><path d="M294.44556,199.99718" data-paper-data="{&quot;index&quot;:null}" fill="none" stroke="#d8d8d8" stroke-width="4" stroke-linecap="round"></path><path d="M294.44556,199.99718" data-paper-data="{&quot;index&quot;:null}" fill="none" stroke="#d8d8d8" stroke-width="4" stroke-linecap="round"></path><path d="M244.52163,224.02162c-21.81525,0 -39.5,-17.68475 -39.5,-39.5c0,-21.81525 17.68475,-39.5 39.5,-39.5c21.81525,0 39.5,17.68475 39.5,39.5c0,21.81525 -17.68475,39.5 -39.5,39.5z" fill="#d8d8d8" stroke="#000000" stroke-width="1.5" stroke-linecap="butt"></path><g><path d="M208.73308,214.54657l0.07294,-52.28265l26.71036,-16.29632l18.69947,-0.75171l25.24751,13.91853l1.09217,64.69294l-30.2777,-8.64421l-3.89771,-23.71951l-5.00482,-2.6792l-5.30592,2.69927l-0.02492,22.33422l-27.55672,9.00972z" fill="#c3c3c3" stroke="#000000" stroke-width="2" stroke-linecap="round"></path><path d="M210.92782,183.0378l-0.24431,-11.39866l26.52308,3.08076l0.26385,12.31056z" fill="#c20000" stroke="none" stroke-width="0" stroke-linecap="butt"></path><path d="M247.41475,187.04431l-0.28113,-12.31017l26.36077,-4.25138l0.26031,11.3983z" data-paper-data="{&quot;index&quot;:null}" fill="#c20000" stroke="none" stroke-width="0" stroke-linecap="butt"></path></g><g stroke="#000000" stroke-linecap="butt"><path d="M253.64123,189.70226c0,0 2.99771,2.04169 4.83605,1.57949c1.07891,-0.27126 0.94662,8.64581 3.10609,8.76214c5.08501,0.27391 13.5641,-7.66822 13.5641,-7.66822l2.00279,7.96585c0,0 -15.44894,8.35418 -24.19094,4.3979c-1.68959,-0.76463 -1.10284,-10.97766 -1.10284,-10.97766z" data-paper-data="{&quot;index&quot;:null}" fill="#a7a7a7" stroke-width="0"></path><path d="M279.00449,208.75328c0,0 -3.40377,-6.89361 -5.16678,-6.45036c-2.72436,0.68497 -10.69448,2.68883 -13.99778,3.51935c0.19942,-1.29948 0.1443,-2.65988 -0.20531,-4.01342c-0.37889,-1.4669 -1.06432,-2.77337 -1.96999,-3.8685c3.69838,-1.79613 15.05138,-6.74983 21.99381,-3.60797c1.62034,0.7333 1.05765,10.52776 1.05765,10.52776l-1.71161,3.89314z" fill="#919191" stroke-width="1"></path><path d="M260.92019,204.60963l-38.0491,8.63437c0,0 -2.95227,0.12148 -3.1944,-0.81592c-0.27212,-1.05355 1.9755,-2.748 1.9755,-2.748l37.71472,-11.0841z" fill="#d2d2d2" stroke-width="0.5"></path></g></g></g></g></svg>