<svg version="1.1" xmlns="http://www.w3.org/2000/svg" xmlns:xlink="http://www.w3.org/1999/xlink" width="96.20562" height="80.75991" viewBox="0,0,96.20562,80.75991"><g transform="translate(-184.04439,-139.49009)"><g data-paper-data="{&quot;isPaintingLayer&quot;:true}" fill-rule="nonzero" stroke-linejoin="miter" stroke-miterlimit="10" stroke-dasharray="" stroke-dashoffset="0" style="mix-blend-mode: normal"><g><path d="M200.5,180c0,-21.81525 17.68475,-39.5 39.5,-39.5c21.81525,0 39.5,17.68475 39.5,39.5c0,21.81525 -17.68475,39.5 -39.5,39.5c-21.81525,0 -39.5,-17.68475 -39.5,-39.5z" fill="#205fa7" stroke="#000000" stroke-width="1.5" stroke-linecap="butt"></path><path d="M267.80711,142.99009l-31.11024,20.74016l-27.99921,-20.22165" fill="none" stroke="#e2ff00" stroke-width="7" stroke-linecap="round"></path><path d="M213.42302,180.00685v-21.02353l21.15664,11.47952l23.22616,-11.47952v21.02353l-23.7633,13.64179z" fill="#edffff" stroke="#e2ff00" stroke-width="0" stroke-linecap="butt"></path><path d="M230.96621,174.0709c0,0 -2.29297,11.0872 -4.2313,11.0872c-0.48691,0 -1.41121,-0.56056 -1.85114,-1.87803c-1.31137,-3.92718 -1.13185,-14.08369 -1.13185,-14.08369z" fill="#ff0000" stroke="none" stroke-width="0" stroke-linecap="butt"></path><path d="M246.06093,169.14488c0,0 0.17952,10.15651 -1.13184,14.08369c-0.43993,1.31747 -1.36423,1.87803 -1.85115,1.87803c-1.93832,0 -4.2313,-11.0872 -4.2313,-11.0872z" data-paper-data="{&quot;index&quot;:null}" fill="#ff0000" stroke="none" stroke-width="0" stroke-linecap="butt"></path></g><path d="" data-paper-data="{&quot;index&quot;:null}" fill="none" stroke="#000000" stroke-width="1.5" stroke-linecap="round"></path><path d="" data-paper-data="{&quot;index&quot;:null}" fill="none" stroke="#000000" stroke-width="1.5" stroke-linecap="round"></path><g stroke-linecap="butt"><g fill="#d3d3d3" stroke="#000000" stroke-width="1"><path d="M196.9236,194.089l4.18188,-17.25286l34.36545,8.32973l-4.18188,17.25286z"></path><path d="M191.3083,182.33237l1.80194,-7.43415l9.81871,2.37994l-1.80194,7.43415z"></path><path d="M184.6481,190.81655l1.59797,-6.59255l14.16696,3.4339l-1.59797,6.59255z"></path></g><path d="M212.91408,197.96487l4.21587,-17.39313l5.61068,1.35995l-4.21587,17.39313z" fill="#a0a0a0" stroke="none" stroke-width="0"></path><path d="M220.38221,199.62655l4.07986,-16.83204l5.18988,1.25795l-4.07986,16.83204z" fill="#a0a0a0" stroke="none" stroke-width="0"></path><path d="M204.98685,195.74641l4.04588,-16.69177l5.18988,1.25795l-4.04588,16.69177z" fill="#a0a0a0" stroke="none" stroke-width="0"></path></g></g></g></svg>