<svg version="1.1" xmlns="http://www.w3.org/2000/svg" xmlns:xlink="http://www.w3.org/1999/xlink" width="109.43079" height="80.5" viewBox="0,0,109.43079,80.5"><g transform="translate(-199.75004,-139.75)"><g data-paper-data="{&quot;isPaintingLayer&quot;:true}" fill-rule="nonzero" stroke-linejoin="miter" stroke-miterlimit="10" stroke-dasharray="" stroke-dashoffset="0" style="mix-blend-mode: normal"><path d="" data-paper-data="{&quot;index&quot;:null}" fill="none" stroke="#000000" stroke-width="1.5" stroke-linecap="round"></path><path d="" data-paper-data="{&quot;index&quot;:null}" fill="none" stroke="#000000" stroke-width="1.5" stroke-linecap="round"></path><path d="" data-paper-data="{&quot;index&quot;:null}" fill="none" stroke="#000000" stroke-width="1.5" stroke-linecap="round"></path><path d="" data-paper-data="{&quot;index&quot;:null}" fill="none" stroke="#000000" stroke-width="1.5" stroke-linecap="round"></path><path d="" data-paper-data="{&quot;index&quot;:null}" fill="none" stroke="#000000" stroke-width="1.5" stroke-linecap="round"></path><path d="" data-paper-data="{&quot;index&quot;:null}" fill="none" stroke="#000000" stroke-width="1.5" stroke-linecap="round"></path><path d="M200.50004,180c0,-21.81525 17.68475,-39.5 39.5,-39.5c21.81525,0 39.5,17.68475 39.5,39.5c0,21.81525 -17.68475,39.5 -39.5,39.5c-21.81525,0 -39.5,-17.68475 -39.5,-39.5z" fill="#6e6e6e" stroke="#000000" stroke-width="1.5" stroke-linecap="butt"></path><path d="M202.85559,181.6599c0,0 -2.28148,-3.48635 -2.28148,-5.83045c0,-2.68059 2.28148,-9.37942 2.28148,-9.37942c0,0 25.76053,3.29547 38.0247,3.29547c12.45976,0 36.15636,-3.29547 36.15636,-3.29547c0,0 0.32325,0.8142 0.73295,2.06366c1.27619,3.89191 3.39127,12.00691 -0.81086,12.89272c-2.60416,0.54896 -18.81959,2.66663 -35.57172,2.60715c-18.95763,-0.06731 -38.53144,-2.35365 -38.53144,-2.35365z" fill="#d0d0d0" stroke="#000000" stroke-width="0" stroke-linecap="butt"></path><path d="M220.2872,168.69041l16.34335,9.20811" fill="none" stroke="#000000" stroke-width="1.5" stroke-linecap="round"></path><path d="M228.71238,178.36443l0.2535,-3.54897" fill="none" stroke="#000000" stroke-width="1.5" stroke-linecap="round"></path><path d="M245.30508,176.18343l13.96519,-6.03143" fill="none" stroke="#000000" stroke-width="1.5" stroke-linecap="round"></path><path d="M251.52719,179.12492v-5.06996" fill="none" stroke="#000000" stroke-width="1.5" stroke-linecap="round"></path><path d="M291.62885,172.28365c0.13344,0.03573 9.85038,2.6349 9.88662,2.65545c0.05657,0.03206 0.11284,0.06456 0.16882,0.09747l0.01145,-0.02586l4.51947,2.00159c0.90419,0.37641 1.53987,1.26846 1.53987,2.30899c0,0.98568 -0.57043,1.83812 -1.39918,2.24522c0.16812,0.1185 0.32758,0.25059 0.47674,0.3988c1.40905,1.40011 2.96686,3.79224 2.09696,5.57802c-0.11688,0.23995 -0.42803,0.45673 -0.87472,0.65212c-0.12907,0.41155 -0.36168,0.77728 -0.66732,1.06667l-3.61992,3.44122l-0.02654,-0.02792c-0.14796,0.13485 -0.301,0.26472 -0.45976,0.38898c-0.05013,0.03924 -0.69581,0.23825 -1.64043,0.51591c0.07262,0.23423 0.11173,0.48319 0.11173,0.74129c0,0.79656 -0.37254,1.50611 -0.95289,1.96392c-0.39084,0.68104 -1.09308,1.16057 -1.91248,1.24437l-4.74421,0.551c-0.38608,0.14379 -0.77857,0.28017 -1.17663,0.40991c1.09699,-0.10754 2.19371,-0.21064 3.27322,-0.03778l4.9835,-0.171c0.03294,-0.00129 0.06604,-0.00194 0.0993,-0.00194c1.38071,0 2.5,1.11929 2.5,2.5c0,1.32174 -1.02572,2.40391 -2.32458,2.49394l-2.85835,0.22713c-1.1108,0.08788 -2.25428,0.18655 -3.42,0.28641c-0.94344,0.1979 -1.91464,0.25287 -2.8986,0.24212c-4.38687,0.35014 -8.95863,0.61049 -13.19964,0.30598c-3.62625,0.35697 -7.24429,0.75308 -10.92365,0.78503l-4.31527,0.03429c-0.00773,0.00007 -0.01547,0.00011 -0.02321,0.00011c-1.38071,0 -2.5,-1.11929 -2.5,-2.5c0,-0.57572 0.19461,-1.10599 0.52163,-1.52861c-1.63897,-0.03437 -3.28279,-0.0379 -4.94023,0.00492l-2.52877,0.06422c-0.02449,0.00071 -0.04906,0.00107 -0.07372,0.00107c-1.38071,0 -2.5,-1.11929 -2.5,-2.5c0,-1.30565 1.0009,-2.37753 2.27728,-2.49021l4.91778,-0.495c0.21015,-0.06518 0.42138,-0.12537 0.63358,-0.18107c-1.53957,-0.19722 -3.10185,-0.14058 -4.65255,-0.2133l-3.27051,-0.1646c-1.32936,-0.05791 -2.38932,-1.15397 -2.38932,-2.49759c0,-1.29942 0.99137,-2.3673 2.25903,-2.48854l4.94118,-0.53769l0.05201,0.47796c1.6601,-0.50268 3.32903,-0.95287 5.00892,-1.37327c-0.41587,-0.44646 -0.67028,-1.04531 -0.67028,-1.70358c0,-1.38071 1.11929,-2.5 2.5,-2.5c0.04559,0 0.0909,0.00122 0.1359,0.00363l3.23972,0.15286c1.67008,0.0788 3.33033,0.3067 4.97558,0.63545l0.01886,-0.3998l4.98033,0.23499c0.6103,0.0249 1.16419,0.2686 1.58534,0.65474c1.38018,-0.07341 2.76036,-0.14685 4.14054,-0.22028c2.55473,-0.7585 5.10945,-1.51699 7.66418,-2.27549c0.65577,-0.1947 1.29427,-0.42112 1.92617,-0.63851c-0.25387,-0.19588 -0.49975,-0.40198 -0.73511,-0.62157c-0.00735,-0.00685 -0.01469,-0.01371 -0.02202,-0.02058l-0.00304,0.00474l-0.35695,-0.22864c-0.25461,-0.08514 -0.50931,-0.16999 -0.76412,-0.25448l-3.30089,-1.09448c-1.02349,-0.313 -1.76786,-1.26511 -1.76786,-2.39108c0,-0.67649 0.26869,-1.29022 0.70517,-1.74029l-0.96714,-0.58347c-0.74589,-0.43261 -1.24753,-1.23978 -1.24753,-2.16411c0,-1.38071 1.11929,-2.5 2.5,-2.5c0.21267,0 0.41914,0.02656 0.61627,0.07653l4.81828,1.11365l-0.00281,0.01217zM287.99675,192.01752c2.65769,-0.70068 5.31179,-1.41349 7.97755,-2.09381c-0.50593,0.03377 -1.01205,0.06607 -1.51832,0.09712c-0.15656,0.02412 -0.31503,0.03535 -0.47595,0.03029c-0.00788,0.0024 -0.01577,0.00481 -0.02365,0.0072l-4.72783,1.43845c-0.2464,0.08123 -0.50975,0.12519 -0.78336,0.12519c-0.89642,0 -1.68265,-0.47181 -2.12391,-1.18064c-0.6242,0.02864 -1.24838,0.05699 -1.87249,0.08542c-4.03385,1.09933 -8.0978,2.11234 -12.01288,3.27472c0,0 -0.14493,0.04303 -0.37409,0.07229l0.23932,0.06825l0.10188,-0.01311c1.5814,-0.52625 3.30608,-0.4254 4.95912,-0.6381c3.59974,-0.46319 7.10414,-0.96446 10.63462,-1.27327zM269.32774,192.11641c-0.00075,-0.00254 -0.0015,-0.00507 -0.00225,-0.0076c-0.84802,0.19714 -1.68274,0.39113 -2.43926,0.56685c0.4745,0.18408 0.94792,0.37947 1.42238,0.58646l0.12099,-0.42424l1.56574,0.44654c-0.27482,-0.26687 -0.51168,-0.6428 -0.66761,-1.168z" fill="#bebebe" stroke="none" stroke-width="0.5" stroke-linecap="butt"></path></g></g></svg>