<svg version="1.1" xmlns="http://www.w3.org/2000/svg" xmlns:xlink="http://www.w3.org/1999/xlink" width="62.52153" height="149.12533" viewBox="0,0,62.52153,149.12533"><defs><linearGradient x1="256.31292" y1="149.7944" x2="256.31292" y2="219.80333" gradientUnits="userSpaceOnUse" id="color-1"><stop offset="0" stop-color="#ff4a4a"></stop><stop offset="1" stop-color="#ff0089"></stop></linearGradient><linearGradient x1="214.23386" y1="252.39342" x2="263.73764" y2="202.88964" gradientUnits="userSpaceOnUse" id="color-2"><stop offset="0" stop-color="#ff4a4a"></stop><stop offset="1" stop-color="#ff0089"></stop></linearGradient><linearGradient x1="260.41226" y1="157.11036" x2="210.90848" y2="107.60658" gradientUnits="userSpaceOnUse" id="color-3"><stop offset="0" stop-color="#ff4a4a"></stop><stop offset="1" stop-color="#ff0089"></stop></linearGradient></defs><g transform="translate(-208.73923,-105.43733)"><g data-paper-data="{&quot;isPaintingLayer&quot;:true}" fill-rule="nonzero" stroke="none" stroke-width="0" stroke-linecap="butt" stroke-linejoin="miter" stroke-miterlimit="10" stroke-dasharray="" stroke-dashoffset="0" style="mix-blend-mode: normal"><path d="M271.26077,184.79887c0,19.33243 -6.69238,35.00446 -14.94785,35.00446c-8.25547,0 -14.94785,-15.67203 -14.94785,-35.00446c0,-19.33243 6.69238,-35.00446 14.94785,-35.00446c8.25547,0 14.94785,15.67203 14.94785,35.00446z" fill="url(#color-1)"></path><path d="M228.41602,217.0718c13.67009,-13.67009 29.48412,-20.01966 35.32162,-14.18216c5.8375,5.8375 -0.51207,21.65152 -14.18216,35.32162c-13.67009,13.67009 -29.48412,20.01966 -35.32162,14.18216c-5.8375,-5.8375 0.51207,-21.65152 14.18216,-35.32162z" data-paper-data="{&quot;index&quot;:null}" fill="url(#color-2)"></path><path d="M260.41226,157.11036c-5.8375,5.8375 -21.65152,-0.51207 -35.32161,-14.18216c-13.67009,-13.67009 -20.01967,-29.48412 -14.18216,-35.32162c5.8375,-5.8375 21.65153,0.51208 35.32162,14.18216c13.67009,13.67009 20.01966,29.48412 14.18216,35.32162z" data-paper-data="{&quot;index&quot;:null}" fill="url(#color-3)"></path></g></g></svg>