<svg version="1.1" xmlns="http://www.w3.org/2000/svg" xmlns:xlink="http://www.w3.org/1999/xlink" width="350.88149" height="80.5" viewBox="0,0,350.88149,80.5"><g transform="translate(33.365,-161.83385)"><g data-paper-data="{&quot;isPaintingLayer&quot;:true}" fill-rule="nonzero" stroke-linejoin="miter" stroke-miterlimit="10" stroke-dasharray="" stroke-dashoffset="0" style="mix-blend-mode: normal"><path d="" data-paper-data="{&quot;index&quot;:null}" fill="none" stroke="#000000" stroke-width="1.5" stroke-linecap="round"></path><path d="" data-paper-data="{&quot;index&quot;:null}" fill="none" stroke="#000000" stroke-width="1.5" stroke-linecap="round"></path><path d="" data-paper-data="{&quot;index&quot;:null}" fill="none" stroke="#000000" stroke-width="1.5" stroke-linecap="round"></path><path d="" data-paper-data="{&quot;index&quot;:null}" fill="none" stroke="#000000" stroke-width="1.5" stroke-linecap="round"></path><g><path d="M204.04911,240.20132" fill="none" stroke="#d8d8d8" stroke-width="4" stroke-linecap="round"></path><path d="M148.36247,202.08385c0,-21.81525 37.69851,-39.5 84.20201,-39.5c46.50348,0 84.20201,17.68475 84.20201,39.5c0,21.81525 -37.69851,39.5 -84.20201,39.5c-46.50348,0 -84.20201,-17.68475 -84.20201,-39.5z" fill="#d8d8d8" stroke="#000000" stroke-width="1.5" stroke-linecap="butt"></path><path d="M260.45816,216.25244c0,0 -47.16618,8.02511 -58.78177,5.13694" data-paper-data="{&quot;index&quot;:null}" fill="none" stroke="#000000" stroke-width="1.5" stroke-linecap="round"></path><path d="M168.53616,173.68209l64.96941,11.59453l63.66845,-10.0822c0,0 8.76931,7.78425 11.15923,11.63853c2.29499,3.70117 5.78791,10.48332 5.78791,10.48332l-80.61564,16.19051l-86.53827,-17.86909c0,0 3.9784,-6.82746 6.58627,-10.37897c2.80663,-3.8222 14.9826,-11.57662 14.9826,-11.57662z" fill="#595959" stroke="#000000" stroke-width="0.5" stroke-linecap="round"></path><path d="M223.36016,195.80015c10.67851,5.46296 -5.69588,2.95529 -15.26712,2.95529c-9.57124,0 -17.33022,-8.86587 -17.33022,-8.86587c0,0 21.91883,0.44762 32.59734,5.91058z" fill="#ffffff" stroke="none" stroke-width="0" stroke-linecap="butt"></path><path d="M274.68949,189.94726c0,0 -7.75902,8.86587 -17.33022,8.86587c-9.57124,0 -25.94561,2.50768 -15.26711,-2.95529c10.67851,-5.46296 32.59733,-5.91058 32.59733,-5.91058z" data-paper-data="{&quot;index&quot;:null}" fill="#ffffff" stroke="none" stroke-width="0" stroke-linecap="butt"></path><g fill="none" stroke-linecap="round"><path d="M138.29063,207.27133c58.83305,3.91398 -21.0661,6.68202 -21.0661,6.68202" stroke="#ff0000" stroke-width="3.5"></path><path d="M160.98638,210.54298c-0.2137,6.44998 -22.16638,10.02189 -41.18893,8.83975" stroke="#ff0000" stroke-width="3.5"></path><g><path d="M143.85783,207.44411c0,0 -95.02221,1.76196 -153.85528,-2.15203c-58.83305,-3.91398 21.0661,-6.68202 21.0661,-6.68202" stroke="#ff0000" stroke-width="3.5"></path><path d="M53.04095,207.5929l-28.65493,-0.48165" stroke="#d8d8d8" stroke-width="4"></path><path d="M-31.04182,200.44409c0.2137,-6.44998 22.16638,-10.02189 41.18893,-8.83975" stroke="#ff0000" stroke-width="3.5"></path></g></g></g></g></g></svg>