<svg version="1.1" xmlns="http://www.w3.org/2000/svg" xmlns:xlink="http://www.w3.org/1999/xlink" width="96.36483" height="101.83117" viewBox="0,0,96.36483,101.83117"><g transform="translate(-199.75,-139.49009)"><g data-paper-data="{&quot;isPaintingLayer&quot;:true}" fill-rule="nonzero" stroke-linejoin="miter" stroke-miterlimit="10" stroke-dasharray="" stroke-dashoffset="0" style="mix-blend-mode: normal"><g><path d="M200.5,180c0,-21.81525 17.68475,-39.5 39.5,-39.5c21.81525,0 39.5,17.68475 39.5,39.5c0,21.81525 -17.68475,39.5 -39.5,39.5c-21.81525,0 -39.5,-17.68475 -39.5,-39.5z" fill="#205fa7" stroke="#000000" stroke-width="1.5" stroke-linecap="butt"></path><path d="M267.80711,142.99009l-31.11024,20.74016l-27.99921,-20.22165" fill="none" stroke="#e2ff00" stroke-width="7" stroke-linecap="round"></path><path d="M213.42302,180.00685v-21.02353l21.15664,11.47952l23.22616,-11.47952v21.02353l-23.7633,13.64179z" fill="#edffff" stroke="#e2ff00" stroke-width="0" stroke-linecap="butt"></path><path d="M230.96621,174.0709c0,0 -2.29297,11.0872 -4.2313,11.0872c-0.48691,0 -1.41121,-0.56056 -1.85114,-1.87803c-1.31137,-3.92718 -1.13185,-14.08369 -1.13185,-14.08369z" fill="#ff0000" stroke="none" stroke-width="0" stroke-linecap="butt"></path><path d="M246.06093,169.14488c0,0 0.17952,10.15651 -1.13184,14.08369c-0.43993,1.31747 -1.36423,1.87803 -1.85115,1.87803c-1.93832,0 -4.2313,-11.0872 -4.2313,-11.0872z" data-paper-data="{&quot;index&quot;:null}" fill="#ff0000" stroke="none" stroke-width="0" stroke-linecap="butt"></path></g><path d="" data-paper-data="{&quot;index&quot;:null}" fill="none" stroke="#000000" stroke-width="1.5" stroke-linecap="round"></path><path d="" data-paper-data="{&quot;index&quot;:null}" fill="none" stroke="#000000" stroke-width="1.5" stroke-linecap="round"></path><g stroke-linecap="butt"><g fill="#d3d3d3" stroke="#000000" stroke-width="1"><path d="M294.51449,227.39631l-17.65372,1.86952l-3.72384,-35.16392l17.65372,-1.86952z"></path><path d="M285.33401,236.64126l-7.60689,0.80557l-1.06395,-10.04684l7.60689,-0.80557z"></path><path d="M295.56496,240.05703l-6.74574,0.71436l-1.53512,-14.49614l6.74574,-0.71436z"></path></g><path d="M292.78175,211.03432l-17.79725,1.88473l-0.60797,-5.74105l17.79725,-1.88473z" fill="#a0a0a0" stroke="none" stroke-width="0"></path><path d="M291.83266,203.44264l-17.22314,1.82392l-0.56237,-5.31046l17.22314,-1.82392z" fill="#a0a0a0" stroke="none" stroke-width="0"></path><path d="M293.36107,219.24571l-17.07961,1.80872l-0.56237,-5.31046l17.07961,-1.80872z" fill="#a0a0a0" stroke="none" stroke-width="0"></path></g><path d="M277.96126,193.13689c2.5,0 2.5,2.5 2.5,2.5l-0.01828,0.97473c0.58427,0.21666 1.16355,0.69945 1.42064,1.7211c0.61008,2.42442 -1.81434,3.0345 -1.81434,3.0345c-0.05735,0.01299 -0.11438,0.02559 -0.17109,0.0378c-0.10546,0.97795 -0.20072,1.95592 -0.28273,2.93383c0.74873,0.71254 1.25973,1.47905 0.98234,2.36272c-0.20782,0.66206 -0.65317,1.17246 -1.23354,1.57155c-0.18232,4.34456 -0.02266,8.68628 0.74567,13.01934c0.44602,2.51535 2.7972,7.31482 -0.62048,9.51137c-1.57795,1.01415 -3.75345,-0.30064 -5.58009,-0.72705c-3.36355,-0.78519 -6.96956,-2.53359 -10.17517,-3.86017c-0.92944,-0.38463 -2.07915,-0.44011 -2.7886,-1.15317c-0.08884,-0.08929 -0.17618,-0.17985 -0.26213,-0.2716l-0.04625,0.05676l-3.43205,-2.79654c-0.57144,-0.45817 -0.93732,-1.16212 -0.93732,-1.95153c0,-0.26737 0.04197,-0.52495 0.11969,-0.76648c-0.56764,-0.31371 -1.08643,-0.63632 -1.53685,-0.96826c-0.03132,-0.02308 -0.06252,-0.04629 -0.09362,-0.06963l-0.00853,0.01513l-4.06253,-2.28996c-0.7831,-0.42221 -1.31528,-1.24996 -1.31528,-2.20201c0,-1.38071 1.11929,-2.5 2.5,-2.5c0.09602,0 0.19078,0.00541 0.28398,0.01595l3.16741,0.3188c3.70126,0.03781 7.77371,-0.32544 11.57825,-0.07849c-0.71727,-0.55039 -1.37363,-1.1774 -1.93059,-1.87627c-0.03686,-0.04625 -0.07338,-0.09272 -0.10957,-0.13941l-0.01676,0.01599l-3.44787,-3.6151c-0.42982,-0.44898 -0.69387,-1.05793 -0.69387,-1.72856c0,-1.38071 1.11929,-2.5 2.5,-2.5c0.27176,0 0.5334,0.04336 0.77836,0.12355l3.17809,0.95969c0.54022,0.13023 2.08303,0.49761 3.63429,0.87811c-0.26137,-0.2667 -0.51291,-0.54179 -0.75454,-0.82213c-0.01369,-0.01589 -0.02735,-0.0318 -0.04098,-0.04773l-0.0058,0.0064l-3.69777,-3.34984c-0.50914,-0.45765 -0.82935,-1.12136 -0.82935,-1.85985c0,-1.38071 1.11929,-2.5 2.5,-2.5c0.16602,0 0.32826,0.01618 0.48523,0.04706l2.74372,0.48739l-0.00341,0.0192l0.05776,-0.00893c1.55635,0.34804 2.85939,0.81868 4.18134,1.03519c0.02466,-0.18864 0.04943,-0.37706 0.07426,-0.56526l-0.02165,-0.49817c0,0 0,-2.5 2.5,-2.5zM274.3962,215.34491c-1.21853,0.73273 -2.94347,1.06428 -4.2739,1.44247c-1.73139,0.49216 -3.59995,-0.01411 -5.39987,-0.0289c-0.12577,-0.00103 -0.36942,-0.00354 -0.70009,-0.00713c1.6544,0.82497 3.27099,1.71473 4.8185,2.40876l2.38712,0.89231c0.97759,0.3396 1.67931,1.26894 1.67931,2.36218c0,0.66119 -0.25668,1.26243 -0.67583,1.70951c1.6352,0.85175 3.17961,1.74094 4.55004,2.46369c0.33154,0.17485 -0.53116,-0.5583 -0.66035,-0.91015c-0.41246,-1.12332 -0.73227,-2.2857 -0.94544,-3.4632c-0.30701,-1.69583 -0.41142,-3.42217 -0.61098,-5.13397c-0.06721,-0.57648 -0.12308,-1.15512 -0.1685,-1.73556zM272.33013,209.19826c0.55496,0.5093 1.26736,1.00917 1.90808,1.53475c0.00209,-0.36793 0.00735,-0.73619 0.01557,-1.1047c-0.4323,-0.08831 -1.12018,-0.24344 -1.92364,-0.43004z" fill="#d3d3d3" stroke="none" stroke-width="0.5" stroke-linecap="butt"></path><path d="M274.56059,209.48674c0.86137,2.34692 -1.48555,3.20829 -1.48555,3.20829l-3.45771,0.4731c-4.31943,-2.04546 -8.32326,-4.26434 -12.96715,-4.60534c2.05198,2.10893 4.85131,3.57423 7.34651,5.1093c3.52876,2.17093 6.81216,4.52875 10.42985,6.56465l1.92725,1.22975c0,0 2.10517,1.34844 0.75673,3.4536c-1.34844,2.10517 -3.4536,0.75673 -3.4536,0.75673l-1.68555,-1.08438c-3.67021,-2.07194 -7.00871,-4.45625 -10.58996,-6.65886c-4.21118,-2.59004 -8.32811,-4.98615 -10.88369,-9.32653c0,0 -1.23425,-2.17408 0.93982,-3.40833c0.20166,-0.11449 0.39524,-0.19965 0.58049,-0.25994c0.57701,-1.30497 2.17025,-1.38517 2.17025,-1.38517c6.56487,-0.28103 11.72798,2.33219 17.56814,5.09519l-0.40413,-0.64762c0,0 2.34692,-0.86137 3.20829,1.48555z" fill="#a0a0a0" stroke="none" stroke-width="0.5" stroke-linecap="butt"></path><path d="M271.95631,201.22575c-0.7953,2.37013 -3.16542,1.57483 -3.16542,1.57483l-1.0555,-0.43653c-2.85461,-1.84882 -5.05964,-2.99799 -7.19693,-5.70505c0,0 -1.51801,-1.98637 0.46836,-3.50437c1.98637,-1.51801 3.50437,0.46836 3.50437,0.46836c1.63166,2.23984 3.61985,3.04286 5.94052,4.54325l-0.07023,-0.10592c0,0 2.37013,0.7953 1.57483,3.16542z" fill="#a0a0a0" stroke="none" stroke-width="0.5" stroke-linecap="butt"></path></g></g></svg>