<svg version="1.1" xmlns="http://www.w3.org/2000/svg" xmlns:xlink="http://www.w3.org/1999/xlink" width="54.183" height="67.85233" viewBox="0,0,54.183,67.85233"><g transform="translate(-212.9085,-146.07384)"><g data-paper-data="{&quot;isPaintingLayer&quot;:true}" fill-rule="nonzero" stroke="none" stroke-width="0.5" stroke-linecap="butt" stroke-linejoin="miter" stroke-miterlimit="10" stroke-dasharray="" stroke-dashoffset="0" style="mix-blend-mode: normal"><path d="M261.23333,190.02278c-0.00241,0.06533 -0.00483,0.13066 -0.00726,0.196l0.11148,-0.12241c-0.03477,-0.02448 -0.06951,-0.04901 -0.10422,-0.07359zM260.62489,204.40405c-0.14152,2.91721 0.3372,7.1598 -3.35575,8.7598c-2.68149,1.16178 -6.54858,-1.66306 -8.59474,-2.88249c-2.26008,-1.34691 -4.40161,-2.80576 -6.48024,-4.33452c-0.15182,-0.05863 -0.30125,-0.1188 -0.44803,-0.1802c-0.35648,-0.14912 -0.71173,-0.30555 -1.06579,-0.4687c-0.26974,-0.04994 -0.51963,-0.15647 -0.73687,-0.30683l-0.24199,-0.16239c-1.1792,-0.58664 -2.3455,-1.24253 -3.50054,-1.94518l-0.4604,0.55611c-0.13484,0.16531 -0.29676,0.30765 -0.47901,0.42026c1.38527,1.23992 2.58862,2.53697 3.38317,3.93277c0.03454,0.06067 0.06816,0.12174 0.10092,0.18319l0.02716,-0.01889l2.04782,2.94466c0.22412,0.3133 0.35601,0.69708 0.35601,1.11167c0,1.05643 -0.8564,1.91283 -1.91283,1.91283c-0.53066,0 -1.01085,-0.21609 -1.35738,-0.56507l-2.65,-2.66742c-2.08084,-2.09638 -4.14558,-4.22818 -6.08679,-6.44836c-1.7537,-1.60463 -3.47816,-3.17177 -5.1099,-4.8468c-0.03616,0.00204 -0.07259,0.00307 -0.10925,0.00307c-1.05643,0 -1.91283,-0.8564 -1.91283,-1.91283c0,-0.09158 0.00644,-0.18165 0.01888,-0.26979c-0.48219,-0.55996 -0.95272,-1.13643 -1.40965,-1.73385c-0.82457,-1.07811 -2.92279,-3.56253 -3.92441,-5.66749l-0.68987,0.55552c-0.32984,0.27016 -0.75161,0.43227 -1.21124,0.43227c-1.05643,0 -1.91283,-0.8564 -1.91283,-1.91283c0,-0.30446 0.07113,-0.59231 0.19769,-0.84784l1.60552,-3.42798l0.30482,0.14276c0.42302,-1.40338 0.90062,-2.79356 1.42582,-4.16996c0.00064,-0.38051 0.11238,-0.73495 0.30452,-1.03264l0.28422,-0.45668c3.39955,-8.31329 8.46728,-16.10792 13.62905,-23.24807l1.06936,-1.729c0.33364,-0.56006 0.94526,-0.93527 1.64451,-0.93527c0.21116,0 0.41433,0.03422 0.60427,0.09741c0.32223,-0.24702 0.72532,-0.39381 1.16271,-0.39381c1.05643,0 1.91283,0.8564 1.91283,1.91283c0,0.25999 -0.05187,0.50787 -0.14583,0.73385l-1.37035,3.52494l-0.51738,-0.20114c-0.3152,1.18788 -0.68768,2.35676 -1.10499,3.51111c0.39004,-0.55055 0.7794,-1.10173 1.16811,-1.65358l0.06839,-0.04889l-0.01737,-0.01459l2.45073,-2.91931c0.35086,-0.42375 0.88093,-0.69371 1.47406,-0.69371c1.05643,0 1.91283,0.8564 1.91283,1.91283c0,0.17804 -0.02432,0.3504 -0.06983,0.51394l-0.5858,2.29979c1.96463,-2.28324 3.98276,-4.52205 6.08407,-6.69387l0.3725,-0.05837l-0.05657,-0.124l2.02324,-0.92303c0.25136,-0.12147 0.53334,-0.18956 0.83122,-0.18956c1.05643,0 1.91283,0.8564 1.91283,1.91283c0,0.31957 -0.07836,0.62083 -0.21692,0.88562l-1.68474,3.39159l-0.47259,-0.23476c-0.25038,0.58 -0.51535,1.15592 -0.7937,1.72791c0.22053,-0.11856 0.44204,-0.23592 0.66455,-0.35206c0,0 0.1931,-0.10078 0.48299,-0.16917c0.17733,-0.87298 0.9492,-1.53 1.87452,-1.53c0.66028,0 1.24241,0.33454 1.58616,0.84337l1.22203,1.758l-0.07083,0.04924l0.18537,0.13752c0.60848,1.51837 1.2083,2.99846 1.79289,4.46053c0.12064,-0.02384 0.24535,-0.03634 0.37299,-0.03634c1.02175,0 1.85639,0.8011 1.91009,1.80947l0.20227,3.29763l0.32497,-0.48287c0.34135,-0.52319 0.93188,-0.86899 1.60318,-0.86899c1.05643,0 1.91283,0.8564 1.91283,1.91283v3.82567c0.12908,0.98565 0.14683,1.8986 -0.05343,2.55166c-0.21007,0.68508 -0.4487,1.37336 -0.7111,2.06371c1.3796,2.45145 2.80974,4.88597 4.2289,7.39105l0.01116,0.13028l0.03961,-0.01608l1.03989,2.56147c0.10084,0.23283 0.15673,0.48965 0.15673,0.75953c0,1.05643 -0.8564,1.91283 -1.91283,1.91283c-0.49843,0 -0.95234,-0.19064 -1.29278,-0.50298l-2.67165,-2.43309c-0.17239,4.62367 -0.36524,9.24729 -0.58934,13.86692zM257.37526,189.5162c-0.92637,1.68722 -1.87396,3.35864 -2.77215,4.99787c0.13698,0.37935 0.27051,0.79775 0.39996,1.25759c0.40243,1.42952 -2.64126,9.20856 -4.02455,10.0903c-0.42734,0.2724 -0.87589,0.48612 -1.33902,0.64859c1.27033,0.81052 2.56547,1.57381 3.88774,2.24728c0.72422,0.36887 1.51376,1.15124 2.277,0.87193c1.33056,-0.48691 0.98985,-5.12082 0.99815,-5.38136c0.15647,-4.9096 0.34975,-9.82248 0.57286,-14.73221zM231.54656,200.8519c0.3067,0.23512 0.6137,0.47113 0.91916,0.70838c0.01879,-0.05015 0.03963,-0.0993 0.06242,-0.14735l0.31473,-0.70399c-1.17743,-0.80173 -2.34448,-1.63011 -3.503,-2.46002c0.00654,0.0077 0.01309,0.0154 0.01965,0.0231c0.73029,0.85707 1.45728,1.71923 2.18704,2.57988zM249.17081,193.78937c-0.79841,1.13603 -1.62668,2.24366 -2.49558,3.31156c-0.16143,0.31165 -0.32321,0.62286 -0.48526,0.93362l0.22527,0.13638l-1.96333,3.24301c-0.21954,0.3771 -0.56432,0.6723 -0.97736,0.82861c0.10268,0.0759 0.20558,0.15152 0.30872,0.22686c0.76427,0.30427 1.55975,0.51906 2.39811,0.59501c1.81685,0.16459 2.56467,-0.26416 2.98896,-1.06794c-0.17128,0.05032 -0.35254,0.07732 -0.54011,0.07732c-1.05643,0 -1.91283,-0.8564 -1.91283,-1.91283c0,-0.25391 0.04947,-0.49626 0.1393,-0.71794l1.21954,-3.2239l0.0027,0.00102c0.00702,-0.02059 0.01417,-0.04116 0.02145,-0.0617c0.29721,-0.83865 0.66119,-1.65533 1.07043,-2.36908zM225.79988,185.19964c0.12039,-0.27012 0.24341,-0.53873 0.36892,-0.80593c-0.13228,0.11375 -0.26511,0.22672 -0.39851,0.33889c-0.1682,0.16847 -0.33641,0.33701 -0.50465,0.50561l0.33548,0.21086l0.04055,-0.05096l0.00043,0.00035l-0.00009,-0.00078c0.0526,-0.06603 0.10522,-0.13204 0.15787,-0.19804zM224.78066,185.72428l0.09875,0.09419l0.32807,-0.52196c-0.14225,0.14256 -0.28452,0.28516 -0.42683,0.42778zM231.22251,191.51184c0.50226,0.41231 0.99989,0.83246 1.49255,1.25848l0.07697,-0.18077l0.11853,0.05046l0.58227,-1.17218l0.00001,0.00001l-0.00001,-0.00002c2.20986,-4.44861 4.42045,-8.89676 6.51827,-13.39877c-2.09093,3.07131 -4.18103,6.14317 -6.26708,9.21778c-0.77449,1.14151 -1.617,2.67784 -2.52149,4.22501zM243.68711,192.69818c-1.39647,2.12886 -2.90376,4.16588 -4.60964,6.04451c0.05537,0.05513 0.11064,0.11022 0.16581,0.16525c0.54712,0.45159 1.09723,0.90046 1.65193,1.34431c0.00865,-0.083 0.02262,-0.16443 0.04154,-0.24393c-0.03397,-0.14268 -0.05195,-0.29156 -0.05195,-0.44463c0,-0.27079 0.05627,-0.52845 0.15776,-0.7619l1.42767,-3.50277l0.44503,0.18138c0.22871,-0.93546 0.48759,-1.86242 0.77185,-2.78222zM254.56963,186.62106c-0.17234,-0.17047 -0.34194,-0.34523 -0.50768,-0.52133c-1.30026,2.17928 -2.62166,4.34629 -4.02773,6.43408c0.59791,-0.7058 1.24842,-1.14697 1.9042,-1.1453c0.86804,-1.57402 1.76617,-3.16627 2.63122,-4.76745zM251.42853,168.42871c-0.49057,1.94074 -1.10034,3.85873 -1.79761,5.75795c0.09137,0.08832 0.18273,0.17663 0.2741,0.26495c0.8091,-1.2498 1.64337,-2.479 2.51269,-3.67921c-0.2648,-0.62661 -0.62264,-1.47395 -0.98917,-2.34369z" fill="#555555"></path><path d="M246.67966,192.36364l-0.95245,2.04148c-0.29624,0.67306 -0.96904,1.14298 -1.7516,1.14298c-1.05643,0 -1.91283,-0.8564 -1.91283,-1.91283c0,-0.19161 0.02817,-0.37665 0.08061,-0.55118l1.00602,-3.64548l0.22462,0.06199c-0.44015,-0.35045 -0.72228,-0.89091 -0.72228,-1.49726c0,-0.25055 0.04817,-0.48986 0.13576,-0.70915l0.86804,-2.32999l0.24845,0.09256l0.20206,-0.4023c0.11036,-0.21955 0.2224,-0.44121 0.33587,-0.66485c1.02029,-4.17469 3.08396,-7.98503 5.02272,-12.13225l0.00976,-0.01179l-0.0033,-0.00161l1.49176,-3.06561c0.08616,-0.36304 0.16346,-0.72415 0.23105,-1.08291c-2.8883,5.20092 -5.95065,10.65732 -9.55075,15.45287c-0.28238,0.46455 -0.56908,0.92629 -0.86062,1.38477l0.20553,0.10995l-1.78593,3.33848c-0.31624,0.62045 -0.96114,1.04539 -1.70529,1.04539c-1.05643,0 -1.91283,-0.8564 -1.91283,-1.91283c0,-0.25056 0.04818,-0.48987 0.13577,-0.70917l0.86808,-2.33001l0.08686,0.03236l-0.00169,-0.22713c0.68357,-1.05563 1.34239,-2.12604 1.98207,-3.20769c0.34794,-0.77092 0.81232,-1.51677 1.32512,-2.3009c0.17405,-0.30982 0.34689,-0.62033 0.51864,-0.93146c-0.68345,0.78185 -1.39158,1.5439 -2.13574,2.28323l0.39646,0.32823l-2.43004,2.93518c-0.35076,0.43003 -0.88483,0.70463 -1.48304,0.70463c-1.05643,0 -1.91283,-0.8564 -1.91283,-1.91283c0,-0.20549 0.0324,-0.40341 0.09237,-0.58893l0.01569,-0.05263c-0.37425,0.46988 -0.7551,0.93233 -1.14304,1.38661l0.37745,0.22767l-1.95797,3.24606c-0.33099,0.57078 -0.94862,0.95467 -1.65592,0.95467c-1.05643,0 -1.91283,-0.8564 -1.91283,-1.91283c0,-0.28106 0.06062,-0.54797 0.16949,-0.78835l0.86684,-2.03592l0.00677,0.00288l0,-0.0186c1.35755,-3.03676 2.96017,-6.07948 4.48465,-9.15296c-2.53521,4.13708 -5.07043,8.27416 -7.60564,12.41124l-1.42821,2.33062c-0.33268,0.56403 -0.94653,0.94243 -1.64876,0.94243c-1.05643,0 -1.91283,-0.8564 -1.91283,-1.91283c0,-0.28371 0.06177,-0.55299 0.17258,-0.79514l1.49607,-3.47511l0.40339,0.17366c0.47255,-1.91401 1.06075,-3.81855 1.73051,-5.71223c-0.3889,0.37456 -0.78401,0.74337 -1.18596,1.1059l0.31461,0.27684l-2.5204,2.86427c-0.35068,0.40257 -0.86707,0.65699 -1.44288,0.65699c-1.05643,0 -1.91283,-0.8564 -1.91283,-1.91283c0,-0.17395 0.02322,-0.34248 0.06673,-0.50265l0.87317,-3.51547l0.05028,0.01249l-0.0011,-0.17812c0.46057,-1.02601 0.91954,-2.0526 1.37708,-3.07974c-0.19282,-0.29861 -0.30474,-0.65437 -0.30474,-1.03626c0,-0.22586 0.03915,-0.44258 0.11102,-0.64374l1.16393,-3.51463l0.46923,0.15539c1.3234,-5.73229 3.95984,-10.84428 7.03566,-16.19165l1.73969,-3.21026c0.27188,-0.52607 0.78073,-0.90981 1.38534,-1.01l0.05584,-0.11241c0.30575,-0.64951 0.96618,-1.09911 1.73162,-1.09911c1.05643,0 1.91283,0.8564 1.91283,1.91283c0,0.20032 -0.03079,0.39344 -0.0879,0.5749l-1.05243,3.63199c-0.1093,1.06562 -0.36229,2.15551 -0.72229,3.25758c0.32133,-0.41672 0.64968,-0.82863 0.986,-1.23524l-0.42326,-0.25649l1.96473,-3.24222c0.33149,-0.56881 0.94802,-0.9511 1.65384,-0.9511c1.05643,0 1.91283,0.8564 1.91283,1.91283c0,0.28371 -0.06177,0.55299 -0.17258,0.79514l-0.00821,0.01907l0.79463,-0.96647c0.35068,-0.43316 0.88674,-0.71008 1.48747,-0.71008c1.05643,0 1.91283,0.8564 1.91283,1.91283c0,0.15773 -0.01909,0.311 -0.05509,0.45763l-0.13678,0.61192c1.00722,0.99135 0.20452,2.30123 0.20452,2.30123c-0.55268,0.90189 -1.10536,1.80378 -1.65805,2.70568c-0.15758,0.88593 -0.3438,1.76096 -0.55517,2.62696c1.32911,-2.33249 2.64359,-4.67383 3.94479,-7.02413l1.42412,-2.57226c0.32077,-0.60655 0.95814,-1.01986 1.69204,-1.01986c1.05643,0 1.91283,0.8564 1.91283,1.91283c0,0.28107 -0.06062,0.54798 -0.1695,0.78837l-1.4821,3.48087l-0.35362,-0.15057c-0.13821,0.25187 -0.27625,0.50478 -0.41417,0.75864c-1.04459,3.49463 -2.53599,6.91682 -4.12822,10.30402c0.675,-0.79767 1.30857,-1.56429 1.85123,-2.29193l1.90326,-3.19288c0.32968,-0.5758 0.95011,-0.96378 1.66117,-0.96378c0.63886,0 1.20456,0.31319 1.55196,0.79441l0.68993,-1.23678c0.32174,-0.60346 0.95742,-1.01419 1.68903,-1.01419c0.97057,0 1.77232,0.72286 1.89622,1.65959l0.19967,1.33981l0.96717,-1.83348c0.31433,-0.62605 0.96224,-1.0557 1.71051,-1.0557c0.75613,0 1.4098,0.43873 1.72032,1.07551c1.04946,0.00814 1.89769,0.8614 1.89769,1.91277c0,0.12545 -0.01208,0.24808 -0.03513,0.36679l-0.65424,3.73171l-0.02262,-0.00397c-0.00259,0.05009 -0.00558,0.10019 -0.00899,0.1503c-0.31,4.55744 -3.53288,10.41768 -4.99268,14.77706l-0.11679,0.1215l0.04635,0.02479l-1.78563,3.33787c-0.31624,0.62045 -0.96114,1.04538 -1.70529,1.04538c-0.67819,0 -1.27395,-0.35294 -1.61361,-0.88516c-0.98221,2.19327 -2.00998,4.37582 -3.04452,6.59328z" fill="#2c2c2c"></path></g></g></svg>