<svg version="1.1" xmlns="http://www.w3.org/2000/svg" xmlns:xlink="http://www.w3.org/1999/xlink" width="127.2677" height="111.15636" viewBox="0,0,127.2677,111.15636"><g transform="translate(-33.41256,-23.37926)"><g data-paper-data="{&quot;isPaintingLayer&quot;:true}" fill-rule="nonzero" stroke-linejoin="miter" stroke-miterlimit="10" stroke-dasharray="" stroke-dashoffset="0" style="mix-blend-mode: normal"><path d="" data-paper-data="{&quot;index&quot;:null}" fill="none" stroke="#000000" stroke-width="1.5" stroke-linecap="round"></path><path d="M93.03983,48.0613" data-paper-data="{&quot;index&quot;:null}" fill="none" stroke="#d8d8d8" stroke-width="4" stroke-linecap="round"></path><g><path d="M85.0336,115.04239c-23.44171,-12.91347 -31.97653,-42.38518 -19.06305,-65.82691c12.91347,-23.44171 42.38519,-31.97653 65.82691,-19.06305c23.44171,12.91347 31.97654,42.38519 19.06308,65.82691c-12.91347,23.44171 -42.38519,31.97654 -65.82691,19.06305z" fill="#d8d8d8" stroke="#000000" stroke-width="1.5" stroke-linecap="butt"></path><path d="M98.99463,51.98317l12.35903,13.2401" fill="none" stroke="#000000" stroke-width="1.5" stroke-linecap="round"></path><path d="M103.79448,60.20646l-3.19916,6.45606" fill="none" stroke="#000000" stroke-width="1.5" stroke-linecap="round"></path><path d="M115.21942,66.63817l10.48916,0.4184" fill="none" stroke="#000000" stroke-width="1.5" stroke-linecap="round"></path><path d="M116.62158,75.07355l3.40847,-5.62831" fill="none" stroke="#f1aa4f" stroke-width="2.5" stroke-linecap="round"></path><path d="M112.32681,94.4954l-25.1041,-14.17942" fill="none" stroke="#000000" stroke-width="1.5" stroke-linecap="round"></path></g><g data-paper-data="{&quot;index&quot;:null}" stroke="#000000" stroke-linecap="butt"><path d="M57.66431,76.57822l-21.65733,-13.04176c0,0 -2.34452,-4.34904 -1.7469,-5.48369c0.59656,-1.13263 5.32947,-1.31811 5.32947,-1.31811l21.65733,13.04176z" fill="#af5400" stroke-width="1.5"></path><path d="M69.15368,61.96533c0,0 -2.68745,6.41634 -6.55737,13.33043c-2.07173,3.70154 -5.85614,11.23836 -5.85614,11.23836c0,0 -4.79,-2.16535 -6.17769,-3.11968c-2.98651,-2.05381 -2.65117,-8.642 1.2187,-15.55611c2.08766,-3.73007 4.87112,-9.18277 9.06312,-9.95588c3.57835,-0.65993 8.30937,4.06282 8.30937,4.06282z" fill="#989898" stroke-width="1"></path><path d="M68.5816,61.10696c2.98648,2.05379 2.27039,9.32371 -1.59949,16.23784c-3.86986,6.91408 -9.4281,10.85417 -12.41458,8.80039c-2.98651,-2.05379 -2.27039,-9.32371 1.59949,-16.23784c3.8699,-6.91412 9.4281,-10.85417 12.4146,-8.80042z" fill="#989898" stroke-width="1"></path><path d="M58.84104,76.36417c0,0 -0.67235,-3.36852 -0.16878,-4.40714c0.49188,-1.01463 3.15602,-1.75442 3.15602,-1.75442l87.20932,49.56854l10.69267,13.93695l-100.88921,-57.34402z" fill="#e6e6e6" stroke-width="0.5"></path></g></g></g></svg>