<svg version="1.1" xmlns="http://www.w3.org/2000/svg" xmlns:xlink="http://www.w3.org/1999/xlink" width="137.32617" height="101.7398" viewBox="0,0,137.32617,101.7398"><g transform="translate(-230.75714,-82.87073)"><g data-paper-data="{&quot;isPaintingLayer&quot;:true}" fill-rule="nonzero" stroke-linejoin="miter" stroke-miterlimit="10" stroke-dasharray="" stroke-dashoffset="0" style="mix-blend-mode: normal"><g stroke="none" stroke-width="0.5" stroke-linecap="butt"><path d="M327.63036,112.33522c-0.32049,1.26896 -1.40524,1.25715 -1.81447,1.20469c-0.74758,0.2699 -1.53833,0.5351 -2.29903,0.85098c0.03054,0.20585 0.02176,0.42105 -0.03239,0.63544c-0.01014,0.04014 -0.02168,0.07954 -0.03458,0.11817l-0.55525,1.71266l-0.00357,-0.00115l0.00096,0.00913c-1.13543,3.37588 -2.69099,6.573 -3.75574,9.97837c-0.00532,0.01704 -0.01059,0.03401 -0.0158,0.05094c0.80049,-1.66618 1.61969,-3.32293 2.54242,-4.93063c0.84274,-1.46833 1.14236,-3.3424 2.39935,-4.47651c0.06513,-0.05876 0.13124,-0.11624 0.19825,-0.17256l-0.03688,-0.03396l2.02482,-2.19987c0.38969,-0.44043 1.00576,-0.65316 1.61524,-0.49924c0.86972,0.21966 1.3967,1.10277 1.17705,1.97246c-0.02763,0.10939 -0.06575,0.21338 -0.11304,0.31112l-0.80887,1.75653l-0.01313,-0.00604l-0.00269,0.0394c-2.48235,4.8029 -5.21165,9.37321 -7.32541,14.37175c-0.10728,0.25369 -0.20657,0.5112 -0.29993,0.77132c2.74727,-4.04089 5.68686,-7.94821 9.18057,-11.36842c0.74913,-0.73337 4.30797,-3.8588 4.49283,-3.89006c0.23085,-0.03905 0.45865,-0.0399 0.68412,-0.01207l0.00643,-0.05228l1.89554,0.23282c0.07488,0.0081 0.15011,0.0215 0.22524,0.04047c0.86972,0.21966 1.3967,1.10277 1.17705,1.97246c-0.09355,0.37042 -0.30746,0.67868 -0.58941,0.89355l-1.62921,1.26607c-0.4699,0.45827 -0.91129,0.89116 -1.33379,1.3022l0.93596,0.08425c0.09352,0.00678 0.18771,0.02183 0.28177,0.04559c0.86972,0.21966 1.3967,1.10277 1.17705,1.97246c-0.1031,0.40817 -0.35229,0.74086 -0.67769,0.9563l-1.48413,0.99123l-0.00257,-0.00386l-0.00913,0.01159c-0.02087,0.01247 -0.04279,0.02542 -0.06564,0.03881c0.852,0.17774 1.67804,0.51182 2.36234,1.01838c0.38639,0.28602 -0.3968,1.10887 -0.04955,1.44132c0.26223,0.25103 0.50494,-0.66611 0.86788,-0.65791c0.01473,0.00033 0.02946,0.00072 0.04418,0.00117l-0.00076,-0.00672l2.00229,-0.22832c0.20083,-0.02767 0.41025,-0.01795 0.61888,0.03475c0.86972,0.21966 1.3967,1.10277 1.17705,1.97246c-0.09355,0.37042 -0.30746,0.67868 -0.58941,0.89355l-1.59954,1.24299c-1.28113,1.43031 -2.02822,3.87684 -2.90402,5.94382c0.29096,0.45831 0.36638,1.07904 0.58631,1.59087l0.86352,1.33329c1.41452,-0.90356 2.76161,-1.88886 4.05438,-2.95342l-0.19443,-0.89618l0.00665,-0.00144l-0.01021,-0.01538c-0.34308,-1.79074 -0.50087,-3.62574 -0.47907,-5.44893c0,0 0.01882,-1.24637 1.11538,-1.53885c0.20835,-0.99238 0.70391,-1.74655 1.64217,-1.95059c1.25121,-0.2721 2.34816,1.09912 3.23104,2.08295l0.11215,-2.18692c0.00364,-0.11513 0.01966,-0.23163 0.04903,-0.34794c0.21966,-0.86972 1.10277,-1.3967 1.97246,-1.17705c0.0018,0.00047 0.00358,0.00091 0.00539,0.00136c0.17228,-0.75864 0.32543,-1.4346 0.43148,-1.98056l1.92932,-3.22274c0.7683,1.48647 1.33359,2.83879 1.78024,4.15793c0.16592,-0.03066 0.33863,-0.03566 0.51264,-0.01181l0.3499,-1.86586c0.00674,-0.03766 0.01486,-0.07535 0.02436,-0.113c0.21966,-0.86972 1.10277,-1.3967 1.97246,-1.17705c0.35993,0.09091 0.66118,0.29545 0.8751,0.56565c0.01729,-0.17235 0.0329,-0.34445 0.0464,-0.51618c-0.0297,-0.13674 -0.05715,-0.27259 -0.0816,-0.40802c-0.2823,-0.95263 -0.56982,-1.90632 -0.85725,-2.86394l0.00335,-0.0256l-0.0097,0.00262l-0.48651,-1.81259l-0.16015,-0.34456c-0.15619,-0.32912 -0.20317,-0.71251 -0.10699,-1.0933c0.21966,-0.86972 1.10277,-1.3967 1.97246,-1.17705c0.41848,0.10569 0.75761,0.36497 0.9724,0.70247l1.3294,2.07763l-0.30691,0.19638c0.07528,0.20993 0.14951,0.41936 0.22258,0.6283c3.81411,5.20496 4.3517,12.17988 3.88179,18.84529c0.09517,1.48808 0.11,3.05458 -0.15259,3.73971c-0.01919,0.05004 -0.03915,0.09966 -0.0599,0.1489l0.02851,0.00722l-0.59168,2.34269c-0.21966,0.86972 -1.10277,1.3967 -1.97246,1.17705c-0.82739,-0.20895 -1.34459,-1.01838 -1.20384,-1.84548l0.41155,-2.59454c0.0236,-0.20228 0.04614,-0.40425 0.06757,-0.60591c-0.03327,-0.00622 -0.06655,-0.01355 -0.09983,-0.02196c-0.63017,-0.15915 -1.08039,-0.66661 -1.19707,-1.2649l-0.49534,-2.28304c-0.0427,-0.00724 -0.08548,-0.01623 -0.12821,-0.02702c-0.00542,-0.00136 -0.0108,-0.00275 -0.01619,-0.00418l0.0167,0.09047c0.04836,0.23305 0.04604,0.48038 -0.01616,0.72667c-0.07794,0.30859 -0.23942,0.57405 -0.45418,0.77831c-0.03419,0.38655 -0.21527,0.70803 -0.32688,0.87328c-0.23891,1.14659 -0.16699,1.98641 -0.56274,2.48859c-0.02003,0.12195 -0.0398,0.24392 -0.0593,0.36596l-0.11852,1.87243c-0.0048,0.10848 -0.02062,0.2181 -0.04826,0.32746c-0.21966,0.86972 -1.10277,1.3967 -1.97246,1.17705c-0.77471,-0.19566 -1.27749,-0.91773 -1.22282,-1.68785l0.09309,-1.81526l0.02199,0.00112l0.00873,-0.13768l0.25244,0.01598c-0.00045,-0.004 -0.00087,-0.00799 -0.00131,-0.01198l-0.2445,-0.08025c0.17546,-1.11051 0.37091,-2.21779 0.57608,-3.32331c-0.1374,0.00153 -0.27726,-0.01449 -0.41677,-0.04974c-0.64802,-0.16366 -1.10576,-0.69565 -1.20617,-1.31601l-0.3059,-1.65715c-0.01653,-0.08497 -0.03354,-0.17023 -0.05096,-0.25576c-0.0289,0.16831 -0.05993,0.33402 -0.09334,0.49669c0.06788,0.47606 0.13462,0.98113 0.20566,1.52273l-0.02095,0.08295l0.02543,-0.00074l0.09372,3.20958c0.00823,0.15843 -0.00678,0.32073 -0.04765,0.48258c-0.21966,0.86972 -1.10277,1.3967 -1.97246,1.17705c-0.57845,-0.1461 -1.0053,-0.5857 -1.16169,-1.11961l-0.2068,-0.66424c-0.33398,1.25187 -0.77692,2.53349 -1.40169,3.91435l-1.37957,-2.45662c-0.70948,0.79125 -1.64761,1.50146 -3.09144,2.61906l-0.01519,0.00328l0.00389,0.00522l-1.36152,1.0156c-0.15206,0.11531 -0.32376,0.20354 -0.50698,0.2598l-0.88703,0.58717c-0.16823,0.11225 -0.357,0.19307 -0.55659,0.23666c-1.55015,1.06542 -3.16393,1.83961 -4.60234,1.73944c-0.08869,-0.00618 -0.17702,-0.0145 -0.26499,-0.02477l-0.00004,0.04629l-1.14721,-0.00099l0.02088,0.12353l-2.03407,0.34377c-0.2262,0.04348 -0.46528,0.03931 -0.70336,-0.02081c-0.86972,-0.21966 -1.3967,-1.10277 -1.17705,-1.97246c0.12942,-0.5124 0.48914,-0.90587 0.94072,-1.09773l0.60278,-0.26303c0.08753,-0.07092 0.18218,-0.13254 0.28227,-0.1839l0.60673,-0.31497c-0.35039,-0.46242 -0.657,-0.97618 -0.89676,-1.51314c-0.72997,-1.63487 -0.65994,-3.60742 0.07313,-4.83254c-0.02551,-2.33758 1.71844,-4.83921 3.14897,-6.31774l0.01105,-0.00232c-0.32521,-0.40193 0.09107,-1.34739 -0.29673,-1.78085c-1.12867,-1.26153 -4.04103,1.00732 -5.06691,-0.33916c-0.40225,-0.52791 -0.56857,-1.02875 -0.56631,-1.49908l-1.23331,1.12256c-0.37693,0.35341 -0.91478,0.51999 -1.45312,0.40406c-2.80853,3.71363 -5.30116,7.68753 -7.82268,11.57086l-0.82136,1.35185c-0.35382,0.61393 -1.08396,0.9449 -1.80487,0.7628c-0.84197,-0.21263 -1.36273,-1.04712 -1.1958,-1.88926l0.60448,-3.1801l0.47837,0.09093c0.1497,-1.35999 0.4021,-2.68489 0.73672,-3.98324c-0.57117,-0.25012 -0.94428,-0.80665 -0.96977,-1.419l-0.20836,-3.20445c-0.13868,-0.72587 -0.19829,-1.43657 -0.11541,-2.07926c0.04676,-0.36242 0.10531,-0.72291 0.17423,-1.0816c-0.384,0.31052 -0.90438,0.44277 -1.42002,0.31255c-0.65345,-0.16503 -1.1134,-0.70459 -1.20862,-1.33158l-0.44932,-2.57074l0.04352,-0.0076c-0.02638,-0.13756 -0.04714,-0.27641 -0.06132,-0.41684c-0.08047,-0.79588 1.57639,-4.06261 1.99772,-4.8141c2.59776,-4.63337 5.95121,-7.0669 10.83067,-8.91072l1.32088,0.03279c0,0 1.57477,0.39773 1.17705,1.97246z" fill="#989898"></path><path d="M309.90166,146.81688c1.51373,0.58875 0.92498,2.10249 0.92498,2.10249l-0.63312,1.57366c-0.04999,0.85219 -0.39626,3.81949 0.19463,4.70627c0.8637,1.29618 3.01929,0.79048 4.47562,1.34284c0.29372,0.11139 0.60212,0.22227 0.92197,0.33369l2.19441,0.44364l-0.05578,0.27602c0.33637,0.1126 0.67699,0.22774 1.01905,0.34628c2.63045,0.43444 5.00137,1.43485 7.99105,2.66021l0.0408,0.04778l0.01141,-0.02306l1.51225,0.7489c0.68953,0.32409 1.07571,1.10083 0.88218,1.86718c-0.07869,0.31159 -0.24254,0.57917 -0.46039,0.7842c0.2365,0.16171 0.47024,0.32645 0.70089,0.49453c0.56505,0.32195 1.13556,0.63822 1.71431,0.94161l0.10597,0.05067l0.01044,-0.02109l1.51224,0.74891c0.58615,0.27549 0.95308,0.87809 0.93103,1.52334c2.09211,0.10894 4.231,-0.06093 6.46622,-0.69376c1.6361,-0.46319 3.17899,-1.43053 4.68281,-2.54049c-0.04089,-0.2224 -0.03575,-0.45693 0.02324,-0.69051c0.0761,-0.30132 0.23183,-0.56149 0.43904,-0.76373l1.31233,-1.32731l-1.05121,0.53411c-0.33938,0.17471 -0.7414,0.2312 -1.14058,0.13039c-0.059,-0.0149 -0.11641,-0.03287 -0.17215,-0.05363c-0.05892,-0.00816 -0.11798,-0.01963 -0.17697,-0.03452c-0.86972,-0.21966 -1.3967,-1.10277 -1.17705,-1.97246c0.09838,-0.38948 0.32982,-0.71025 0.63351,-0.92599l1.4457,-1.04169l0.18669,-0.18688l0.03947,0.03942l0.01821,-0.02799c0.03843,-0.02482 0.07694,-0.05044 0.11556,-0.0768c-0.3132,-0.14034 -0.56589,-0.37324 -0.73301,-0.65668l-2.04713,1.05198c-0.34066,0.17723 -0.74515,0.23499 -1.14673,0.13355c-0.34037,-0.08596 -0.62826,-0.27355 -0.83941,-0.52217l-1.4369,0.75865c-0.34372,0.18329 -0.7541,0.24424 -1.16152,0.14134c-0.6227,-0.15727 -1.06971,-0.65464 -1.19278,-1.24369c-3.70336,-0.44075 -6.49914,-1.34352 -8.96249,-3.28668c-0.11829,0.03317 -0.24105,0.05312 -0.3662,0.05856c0.01047,0.16436 -0.00407,0.33314 -0.04658,0.50141c-0.1948,0.77136 -0.9115,1.27312 -1.67787,1.22351l0.06785,0.22363c0.09033,0.28016 0.10561,0.58827 0.02823,0.89472c-0.21966,0.86972 -1.10277,1.3967 -1.97246,1.17705c-0.18811,-0.04752 -0.36021,-0.12604 -0.51214,-0.22879l-1.56577,-1.00604l0.02256,-0.03508l-0.1242,-0.03585c-2.07519,-1.82894 -3.37963,-3.08252 -4.49449,-4.70809c-0.01933,-0.01587 -0.03859,-0.03174 -0.05782,-0.0476l-0.30652,0.24305l-1.43613,-1.81128c-2.03115,-1.9991 -3.56411,-4.18636 -5.05223,-6.91735c0,0 -0.77545,-1.42713 0.65169,-2.2026c1.42713,-0.77545 2.2026,0.65169 2.2026,0.65169c0.83116,1.53429 1.66268,2.86051 2.60918,4.07135c0.37482,-0.53972 1.05758,-0.81865 1.73228,-0.64826c0.23397,0.0591 0.44314,0.16619 0.61964,0.30813l0.72378,0.55555c0.09417,0.00671 0.1891,0.0218 0.28384,0.04572c0.21326,0.05387 0.40593,0.14763 0.57202,0.27128l0.71617,0.50777l-0.43578,-0.93742c-0.1562,-0.32915 -0.20318,-0.71252 -0.107,-1.09331c0.08618,-0.34117 0.27443,-0.62959 0.52389,-0.8409c-0.05796,-0.24548 -0.05939,-0.50815 0.00664,-0.7696c0.21966,-0.86972 1.10277,-1.3967 1.97246,-1.17705c0.38894,0.09822 0.70932,0.32914 0.92504,0.63219l1.0946,1.5157l-0.00934,0.00676c0.01105,0.00894 0.02208,0.01791 0.03305,0.02694c2.37478,1.95012 3.10177,5.68866 5.75167,7.63053c2.06496,1.51322 4.7892,1.78881 7.2285,2.03615l2.16291,-0.37124c0.22736,-0.0443 0.46783,-0.04042 0.7073,0.02007c0.18178,0.04591 0.34857,0.12079 0.49669,0.21849c1.49679,-1.76809 3.92493,-2.88637 5.8425,-4.2672l1.38448,-1.30287c0.39085,-0.37962 0.96357,-0.55377 1.53061,-0.41056c0.58141,0.14685 1.00965,0.59018 1.16406,1.1278c0.17034,-0.01288 0.34564,0.00113 0.52038,0.04525c0.86972,0.21966 1.3967,1.10277 1.17705,1.97246c-0.06643,0.26309 -0.19359,0.4948 -0.36272,0.68398l-1.04233,1.21656l0.51201,-0.21499c0.31722,-0.13721 0.68052,-0.17469 1.04154,-0.08352c0.11764,0.02969 0.22902,0.07157 0.33311,0.12388l0.15765,-0.08007c0.33935,-0.17465 0.74128,-0.23106 1.14039,-0.13027c0.86972,0.21966 1.3967,1.10277 1.17705,1.97246l-0.40469,1.60241l0.14799,-0.10839c0.37821,-0.28123 0.8751,-0.39634 1.36769,-0.27195c0.86972,0.21966 1.3967,1.10277 1.17705,1.97246c-0.08196,0.32457 -0.25635,0.60142 -0.48797,0.80955l-2.36558,2.19201l-0.22983,-0.24802c-0.16662,0.12708 -0.32846,0.24989 -0.48623,0.36861c-5.85212,6.69809 -14.72574,10.54769 -23.84694,9.43457c-2.03422,-0.24825 -3.97482,-0.8003 -5.90713,-1.38249c-0.34257,0.64506 -1.09209,0.99845 -1.8319,0.81161c-0.05513,-0.01391 -0.10886,-0.0305 -0.16112,-0.04958l-2.4698,-0.86986c-0.68242,-0.22785 -1.30519,-0.58005 -1.88572,-1.00885l-0.18065,0.28113l-2.52469,-1.6222c-0.59176,-0.36095 -0.90693,-1.07712 -0.72831,-1.78443c0.21966,-0.86972 1.10277,-1.3967 1.97246,-1.17705l0.82225,0.20766c-0.37724,-0.43881 -0.77536,-0.89309 -1.22673,-1.35241l-0.02726,-0.06083l-0.01488,0.01244l-1.30787,-1.5634c-0.31965,-0.3729 -0.46584,-0.88485 -0.35604,-1.39738l-0.15064,-0.08259c-0.24707,-0.09557 -0.49839,-0.1919 -0.75445,-0.28887c-0.51375,-0.19455 -5.30406,-1.60563 -5.76114,-2.23933c-1.61606,-2.24043 -1.07055,-5.08711 -0.92202,-7.53791l0.77904,-2.0571c0,0 0.58875,-1.51373 2.10249,-0.92498zM321.25394,163.67323c0.39591,0.53538 0.74395,1.06783 1.07097,1.6332l0.18441,-0.13317l0.26753,0.37045c1.13918,0.28222 2.26573,0.58005 3.3877,0.8634c-0.14424,-0.11422 -0.28902,-0.22466 -0.43487,-0.32839c-1.47723,-0.83085 -2.95803,-1.65483 -4.47575,-2.40549z" fill="#989898"></path><path d="M345.48577,114.81653c0.12386,1.61947 -1.49561,1.74335 -1.49561,1.74335l-0.14989,-0.00506c-1.78728,-0.60074 1.43108,1.4119 -0.08524,4.12829c-0.53853,0.96475 -2.04158,0.84564 -3.06236,1.26846c0,0 -1.56631,0.42981 -1.9961,-1.13651c-0.42981,-1.56631 1.13651,-1.9961 1.13651,-1.9961c2.84667,0.23962 -1.03256,-2.19589 0.46383,-4.33755c0.58093,-0.83144 1.892,-0.73165 2.838,-1.09748l0.60753,-0.06299c0,0 1.61947,-0.12386 1.74335,1.49561z" fill="#989898"></path><path d="M314.37832,119.38315c-1.12805,-1.16856 0.04054,-2.29663 0.04054,-2.29663l0.54026,-0.43418c1.345,-2.32592 2.33732,-4.76859 4.21019,-6.77085c4.07275,-4.35418 9.97504,-4.22852 15.45787,-4.03932c9.02113,0.91735 17.42171,4.50553 25.32259,8.85746c2.02044,1.1129 6.25314,3.31865 7.47892,5.42495c0.94749,1.62813 0.60373,5.54916 0.54965,7.36578c-0.13655,4.58723 -0.58658,8.55594 -2.18591,12.40698l0.50805,0.16884l-1.02009,3.06958c-0.2603,0.80875 -1.10802,1.28659 -1.94339,1.07561c-0.76774,-0.19391 -1.2684,-0.90476 -1.22416,-1.66707l0.06388,-1.69685l0.00849,0.00032c0.11188,-0.43163 0.27143,-0.85429 0.32695,-1.29652c0.10027,-0.79831 -0.90756,1.33051 -1.31229,2.02592c-0.51629,0.88705 -1.08455,1.74498 -1.56094,2.65409c-0.09821,0.18738 -0.19379,0.37815 -0.2871,0.57189c0.77528,0.721 1.08704,2.17988 1.1804,3.25475c0.19043,2.19285 -2.88076,6.81493 -3.97513,8.58098l-3.60631,3.26286c-0.32374,-1.63492 -0.4324,-3.26705 -0.35563,-4.88353c-0.73015,1.12926 -1.46732,2.29906 -2.23952,3.39365c0.72341,0.30805 1.13505,1.10525 0.93648,1.8915c-0.05326,0.21086 -0.1455,0.40158 -0.26714,0.56641l-0.945,1.3453l-0.35739,-0.25107c-0.4648,0.73747 -1.02092,1.40442 -1.69267,1.93441l-0.02949,0.00943l0.00577,0.00801l-1.65505,1.19251c-0.37682,0.27537 -0.86893,0.38713 -1.35681,0.26391c-0.86972,-0.21966 -1.3967,-1.10277 -1.17705,-1.97246c0.02364,-0.09356 0.05495,-0.18316 0.09307,-0.26828l0.01249,-0.02923c-2.17179,0.67416 -4.36575,1.36812 -6.57232,1.97983c-0.17182,0.05091 -0.34516,0.10006 -0.5202,0.14742l0.16351,0.45693l-3.03786,1.08706c-0.29859,0.11173 -0.63306,0.13686 -0.96556,0.0529c-0.33488,-0.08458 -0.61897,-0.26754 -0.82919,-0.51022c-0.58326,0.11056 -1.16686,0.2099 -1.75067,0.29621c-0.29252,0.13409 -0.58444,0.2693 -0.87567,0.40588l0.04763,0.16906l-3.09948,0.87313c-0.27225,0.08211 -0.56958,0.09378 -0.86534,0.01907c-0.86972,-0.21966 -1.3967,-1.10277 -1.17705,-1.97246c0.14575,-0.57712 0.58364,-1.00329 1.1159,-1.16061l2.30997,-0.7249c1.6268,-0.78039 3.24812,-1.60251 4.87585,-2.40836c-2.20226,-0.94916 -4.41717,-1.8247 -6.64642,-2.70639l-0.30869,-0.08076c-0.2022,-0.05263 -0.38567,-0.14122 -0.54524,-0.25717c-0.88889,-0.3521 -1.78005,-0.70682 -2.67365,-1.06915c-1.08557,-0.44018 -2.72845,-0.84716 -3.95205,-1.54539c-0.37035,0.25144 -0.84239,0.34956 -1.31056,0.23132c-0.13855,-0.03499 -0.2684,-0.08682 -0.38791,-0.15274l-2.23454,-1.17074c-0.66962,-0.33273 -1.04104,-1.09733 -0.85046,-1.85187c0.14728,-0.58313 0.59282,-1.0122 1.13261,-1.16544c-1.39245,-3.3714 -2.38742,-6.55493 -2.1341,-9.95058l-0.6037,-0.01818l0.06596,-2.19103c0.00119,-0.12675 0.01734,-0.25541 0.04976,-0.38377c0.21966,-0.86972 1.10277,-1.3967 1.97246,-1.17705c0.34482,0.08709 0.63577,0.27846 0.84769,0.53196c0.0442,-0.59205 0.10216,-1.26217 0.1591,-2.05049l0.05293,-3.17858c-0.00063,-0.13406 0.01547,-0.27039 0.04982,-0.40642c0.21966,-0.86972 1.10277,-1.3967 1.97246,-1.17705c0.16794,0.04241 0.32308,0.10956 0.46255,0.19657c0.07162,-0.26925 0.13881,-0.53703 0.1894,-0.80185c0.21149,-1.10743 0.57591,-2.18012 0.86387,-3.27021l0.03293,-0.04578l-0.01655,-0.00559l1.01399,-3.00971c0.26246,-0.80528 1.10813,-1.28036 1.94151,-1.06989c0.83256,0.21026 1.35105,1.02852 1.20114,1.861l-0.54091,3.1881l-0.45316,-0.07689c-0.05218,1.16377 -0.1713,2.30764 -0.34203,3.4427c1.80756,-2.59125 4.45381,-4.7363 7.29507,-5.87126l-0.24638,-0.58394l1.6479,-0.6953c0.31777,-0.13805 0.68199,-0.17595 1.0439,-0.08455c0.86972,0.21966 1.3967,1.10277 1.17705,1.97246c-0.0494,0.1956 -0.13235,0.37386 -0.24118,0.5302l-1.18028,1.78343l-0.00131,-0.00086l-0.00148,0.0051c-0.30817,0.44649 -0.59512,0.90898 -0.89702,1.36021c0.60369,-0.27212 1.21851,-0.52292 1.62112,-0.73201c2.91738,-1.51511 4.99444,-2.85654 7.49868,-3.87787l-0.23595,-0.46757l2.89267,-1.45963c0.33861,-0.17322 0.73913,-0.2289 1.13685,-0.12845c0.86972,0.21966 1.3967,1.10277 1.17705,1.97246c-0.05449,0.2158 -0.14986,0.4105 -0.27571,0.57795c0.42122,0.39074 0.62162,0.99337 0.47102,1.58968c-0.1073,0.4248 -0.37287,0.76786 -0.71785,0.98206l-2.75521,1.71646l-0.16262,-0.26104c-0.09654,0.04618 -0.19351,0.09154 -0.29094,0.13595c-0.2051,0.1663 -0.41142,0.32767 -0.61978,0.48499c1.66652,0.26522 3.19398,0.43512 4.72618,0.73997c0.02761,-0.00713 0.05524,-0.01423 0.08286,-0.02132l0.02024,0.04203c0.03321,0.00673 0.0664,0.01354 0.0996,0.02042l-0.009,-0.07899l0.42735,-0.04873l-0.00446,-0.13634l1.71,-0.05586c0.16022,-0.00889 0.32449,0.00598 0.48827,0.04736c0.86972,0.21966 1.3967,1.10277 1.17705,1.97246c-0.17346,0.68685 -0.76074,1.15993 -1.42841,1.22034l-1.91795,0.21871c-4.02046,1.03843 -7.78821,2.57725 -11.60133,4.21445c-0.43344,0.18609 -0.93684,0.54497 -1.43876,0.87646c0.29476,0.05349 0.56064,0.11878 0.75491,0.1873c1.02704,0.36211 1.96866,0.93168 2.95298,1.39751c0,0 1.46531,0.70066 0.76462,2.16599c-0.70066,1.46531 -2.16599,0.76462 -2.16599,0.76462c-0.70871,-0.34288 -7.50176,-2.45691 -7.60249,-2.99454c-0.2678,-1.42937 1.1071,-2.77849 2.14087,-3.80131c0.86353,-0.85439 2.17957,-1.07469 3.2885,-1.57061c1.79656,-0.80338 3.6004,-1.55707 5.42677,-2.24263l-1.81761,-0.45904c-0.65812,0.35345 -1.36001,0.71239 -2.1192,1.0911l-0.0591,0.0074l0.0064,0.01549l-2.98615,1.23535c-0.31546,0.13462 -0.67594,0.1708 -1.03414,0.08034c-0.57918,-0.14627 -1.00634,-0.58674 -1.16224,-1.12154c-0.79527,0.34139 -1.57045,0.5473 -2.10666,0.02874c-0.52867,-0.51131 -0.65214,-1.25154 -0.59819,-2.04558c-1.63008,1.88433 -3.70972,4.16011 -5.4862,4.66064c-0.455,1.74681 -0.97484,3.51365 -1.50346,5.34065l-0.0189,0.02466l0.00998,0.00329l-0.46328,1.40861l0.02274,1.52043c0.00564,0.15095 -0.00984,0.30522 -0.04872,0.45908c-0.15947,0.6314 -0.6686,1.08217 -1.26843,1.19772c0.44706,1.77479 0.83148,3.51887 1.29535,4.62985c1.60793,0.7002 4.79706,2.15179 5.13725,2.28971c1.0618,0.4305 2.1205,0.85013 3.17612,1.2674l2.2776,0.47035l-0.04606,0.22303c0.11115,0.04194 0.2215,0.08358 0.33105,0.12497c4.20427,0.00552 8.57579,0.58865 12.82049,0.97292c1.0869,-0.33683 2.1859,-0.62095 3.30008,-0.83708l-0.13689,-0.50948l2.31183,-0.62117c1.29953,-2.11346 2.90132,-4.12065 4.77324,-6.33918c0.30968,-0.36701 0.91394,-1.10036 1.6396,-1.89747c1.04165,-2.72149 2.51874,-5.32999 4.26574,-7.75376c1.21386,-1.68413 2.67435,-4.41378 4.95652,-3.45281c0.242,-2.98458 1.20171,-6.22199 1.28452,-8.93986c0.03588,-1.17756 0.46683,-4.69969 -0.1512,-5.7065c-0.916,-1.49228 -4.72714,-3.33522 -6.19475,-4.13951c-7.47782,-4.09803 -15.43781,-7.61167 -23.9772,-8.46338c-4.37307,-0.15063 -9.60598,-0.54349 -12.87466,3.02587c-1.65778,1.8103 -2.5532,4.07524 -3.76189,6.16849l-1.09678,1.14609c0,0 -1.16856,1.12805 -2.29663,-0.04054z" fill="#818181"></path></g><g stroke="#000000" stroke-width="1.5"><path d="M325.99213,143.13135c-11.04807,18.81078 -35.25343,25.10369 -54.06422,14.05563c-18.81078,-11.04807 -25.10369,-35.25343 -14.05564,-54.06422c11.04807,-18.81078 35.25343,-25.10369 54.06422,-14.05564c18.81078,11.04807 25.10369,35.25343 14.05564,54.06422z" data-paper-data="{&quot;index&quot;:null}" fill="#d8d8d8" stroke-linecap="butt"></path><path d="M298.29654,107.11532l-6.89823,-4.0515l3.69567,-8.26692" data-paper-data="{&quot;index&quot;:null}" fill="none" stroke-linecap="round"></path><path d="M280.85979,119.99061l5.42022,-7.25405l6.89823,4.05149" data-paper-data="{&quot;index&quot;:null}" fill="none" stroke-linecap="round"></path><path d="M313.16995,117.20354l-4.12337,6.6247" fill="none" stroke-linecap="round"></path></g><g stroke="none" stroke-width="0.5" stroke-linecap="butt"><path d="M239.57019,133.10165c1.29736,-0.3301 2.61668,0.45402 2.9468,1.75138c0.06723,0.26429 0.08824,0.52946 0.06809,0.78703l-0.16066,2.92632c-0.00783,0.15678 -0.01414,0.31367 -0.01908,0.47065c0.1932,-0.40295 0.39958,-0.77012 0.62117,-1.09292c0.089,-0.12968 0.18173,-0.25612 0.27776,-0.3797l-0.03674,-0.02694l2.50565,-3.41709c0.32098,-0.44471 0.79395,-0.78356 1.36702,-0.92938c1.29735,-0.3301 2.61668,0.45402 2.9468,1.75138c0.01978,0.07771 0.03552,0.15549 0.04745,0.23319l0.55811,3.39386l-0.06733,0.01108l0.09385,0.2181c-0.02158,0.84419 0.01569,2.01638 0.03325,3.32718c0.16771,-0.23273 0.34205,-0.4643 0.52396,-0.69592l-0.44502,-0.30663l2.74384,-3.98228c0.32109,-0.47132 0.80887,-0.83184 1.40504,-0.98355c0.17841,-0.04539 0.35726,-0.06971 0.53388,-0.07453c0.52514,-0.91302 1.40459,-1.62102 2.50596,-1.90127c0.55715,-0.14176 1.11674,-0.16021 1.64995,-0.07253l1.17177,0.16515l-1.3467,-0.60142c-1.10478,-0.48152 -1.98335,-1.45018 -2.30355,-2.70856c-0.48355,-1.90044 0.4674,-3.82917 2.17287,-4.64193l-0.00647,-0.00345l-3.9051,-1.62625c-1.15245,-0.46539 -2.07545,-1.45448 -2.40541,-2.75131c-0.55017,-2.16225 0.7567,-4.36114 2.91897,-4.91132c0.57538,-0.14639 1.15331,-0.1613 1.70213,-0.06359l4.08022,0.63103l0.62556,0.03414c0,0 3.16259,0.23625 3.67423,3.09223l4.05339,2.15299c0.24269,0.12774 0.47223,0.27992 0.68464,0.45421c0.63396,-1.24962 2.41342,-1.634 3.86373,-2.26696l-0.16448,-0.43817l0.04388,-0.01647c-1.29791,-1.33566 -2.1874,-3.05151 -0.33907,-5.01126c0.28817,-0.30557 0.63832,-0.48164 1.02834,-0.57425c0.0394,-0.06467 0.08238,-0.12998 0.1291,-0.19595c1.40097,-1.97805 3.37903,-0.57708 3.37903,-0.57708l0.83042,0.61859l2.8216,1.44367c0.60346,0.30498 1.0768,0.8594 1.25663,1.56612c0.3301,1.29736 -0.45402,2.61668 -1.75138,2.9468c-0.52153,0.1327 -1.04659,0.08532 -1.50953,-0.10302l-0.791,-0.31063l1.13198,3.01561c0.03613,0.0925 0.06698,0.18825 0.09209,0.28695c0.3301,1.29736 -0.45403,2.61668 -1.75138,2.9468c-0.037,0.00941 -0.07399,0.01792 -0.11098,0.02553c0.44566,0.40827 0.81376,0.82685 1.00503,1.18145c0.0329,0.06098 0.06475,0.1224 0.09562,0.18421l0.02588,-0.0172l1.46659,2.20752c0.1628,0.23301 0.28708,0.49881 0.36133,0.7906c0.07238,0.28449 0.0912,0.57004 0.06276,0.84598c0.46331,0.10083 0.88776,0.33608 1.21856,0.67328l0.16893,0.16638c0.23352,-0.36732 0.56578,-0.6727 0.97075,-0.87244c0.00381,-0.88776 0.54967,-1.86118 1.98575,-2.89534c0.95372,-0.68681 2.11812,-0.50844 3.33389,-0.11895c0.15352,-0.91907 0.83294,-1.70635 1.79391,-1.95086c0.68563,-0.17446 1.37738,-0.03771 1.92603,0.32152l2.39227,1.55549l-0.48283,0.74257l0.52737,0.70047c0.20421,0.25867 0.35867,0.56344 0.4452,0.90345c0.21942,0.86236 -0.05348,1.73444 -0.64215,2.31922c0.00121,0.00459 0.00237,0.00915 0.00353,0.01375c0.3301,1.29736 -0.45402,2.61668 -1.75138,2.9468c-0.68763,0.17496 -1.38144,0.0369 -1.93083,-0.32468l0.67102,1.93313c0.0262,0.07293 0.04913,0.14775 0.06865,0.22439c0.3301,1.29736 -0.45402,2.61668 -1.75138,2.9468c-0.56864,0.14467 -1.14154,0.0753 -1.63346,-0.15752c0.10163,1.16226 -0.65023,2.26025 -1.81763,2.55727c-0.74014,0.18834 -1.48746,0.01399 -2.05414,-0.4114c0.07816,1.14513 -0.66916,2.21828 -1.82121,2.51141c-0.04412,0.01123 -0.08827,0.02116 -0.13237,0.02982l0.87462,3.92852c0.03415,-0.01028 0.06867,-0.01989 0.1036,-0.02877c1.29736,-0.3301 2.61668,0.45402 2.9468,1.75138c0.01147,0.04508 0.02159,0.09019 0.03039,0.13528l0.09598,0.4746c0.23588,-0.36658 0.46277,-0.78689 0.71865,-1.03381l0.24403,0.86183l0.78408,0.3714c0.15762,-1.00754 0.30997,-2.02558 1.06163,-1.84361c0.89288,0.21618 1.55287,0.83307 2.13463,1.58458c0.0655,-0.01563 0.13099,-0.02846 0.19642,-0.03854l0.50687,-2.15813c0.1864,-0.87305 0.84995,-1.60962 1.77372,-1.84467c1.29735,-0.3301 2.61668,0.45402 2.9468,1.75138c0.03713,0.14589 0.06014,0.29211 0.06995,0.43715l0.01319,0.15458c0.59213,0.30741 1.05549,0.85654 1.23293,1.55398c0.05138,0.20194 0.07576,0.40442 0.07544,0.60362l0.05017,2.56936l-0.59141,0.01152c0.05451,0.45305 0.07277,0.88623 0.05834,1.3228c0.64674,0.29382 1.15908,0.8679 1.34786,1.60987c0.13144,0.51662 0.08623,1.03675 -0.09777,1.49647l-1.38154,3.58313l-0.0997,-0.03843l-0.01885,0.29897c-0.08041,0.06023 -0.16081,0.12046 -0.24121,0.18068l0.09278,0.06405l-1.3573,1.96572c-1.0187,2.87981 -3.20169,6.22807 -4.22684,8.38684c0.36313,0.31313 0.63727,0.73685 0.76446,1.23682c0.28939,1.13729 -0.2775,2.29149 -1.29575,2.78132l-2.36619,1.19962c-0.16892,0.09013 -0.35128,0.16151 -0.5451,0.21084c-0.70919,0.18045 -1.42495,0.02795 -1.98209,-0.35935l-0.44217,0.08789l-0.06693,-0.33659c-4.118,3.38225 -10.20081,3.8214 -15.35441,5.2924l-0.09414,-0.01146l0.00646,0.03128l-2.99216,0.61815c-1.26639,0.26976 -2.53036,-0.50751 -2.85246,-1.77341c-0.24696,-0.97058 0.12971,-1.95348 0.87835,-2.52525l2.5168,-2.01231l0.38155,0.47721c0.40364,-0.4026 0.82162,-0.78893 1.25445,-1.15522l-4.22102,-0.3998c3.25725,-6.10442 5.75947,-6.74572 11.92134,-9.49018l0.18275,0.0201l-0.0209,-0.07278l1.10697,-0.3178c0.23185,-0.10765 0.52924,-0.21173 0.86133,-0.24727l0.45996,-0.13204c0.02727,-0.00794 0.05475,-0.01543 0.08247,-0.02251c1.29735,-0.3301 2.61668,0.45402 2.9468,1.75138c0.2739,1.0765 -0.21932,2.16809 -1.13636,2.69716l-2.97284,1.80802c-0.13724,0.08788 -0.28491,0.16276 -0.44176,0.22254c0.58524,0.30884 1.04247,0.85468 1.21849,1.54644c0.17883,0.70287 0.03064,1.41222 -0.34903,1.9672c0.06225,-0.02218 0.12413,-0.04466 0.18559,-0.06742c2.44115,-0.90485 2.23956,-2.3676 5.33634,-2.56898c0.0751,-0.00487 0.15018,-0.00914 0.22528,-0.01284l-0.00814,-0.04087l1.44678,-0.2876l0.67693,-1.50613c1.25914,-3.03294 2.74471,-8.12619 4.73425,-11.38938l0.02777,-0.16053l0.03746,0.00648l-0.01669,-0.11256c0.0386,-0.14529 0.07348,-0.29168 0.10543,-0.43874c-0.04228,0.01325 -0.08513,0.0254 -0.12856,0.03643c-1.29736,0.3301 -2.61668,-0.45402 -2.9468,-1.75138c-0.03789,-0.1489 -0.06111,-0.29813 -0.07054,-0.44609c-0.09359,0.03673 -0.19052,0.06805 -0.29049,0.09347c-1.14796,0.29209 -2.31312,-0.28821 -2.79495,-1.32454l-0.31951,-0.65254c-0.54425,0.57887 -1.0868,1.21019 -1.66051,0.89077c-0.01619,-0.00901 -0.03171,-0.01838 -0.04663,-0.02816c-1.04293,1.2218 -2.08583,2.44363 -3.12873,3.66543l-0.86177,-5.46228l-0.02293,-0.00493l0.35181,-1.63544c-0.18463,-0.39768 -0.43497,-0.73683 -0.81079,-0.96427c0.32003,2.06166 0.47372,4.12633 0.41724,6.44799l-0.22819,0.30235l0.14099,0.0466l-0.77055,2.33129c-0.24294,0.77599 -0.87064,1.4117 -1.71652,1.62693c-1.29736,0.3301 -2.61668,-0.45402 -2.9468,-1.75138c-0.00919,-0.03615 -0.01753,-0.0723 -0.02499,-0.10844l-0.60557,-2.84887c-0.25872,0.74248 -0.87322,1.34508 -1.69224,1.55347c-0.5171,0.13157 -1.03767,0.08614 -1.49774,-0.09827l-1.50884,-0.58279l0.06136,0.04978c0.40157,0.3183 0.70581,0.76595 0.84194,1.30087c0.23423,0.92051 -0.0925,1.8521 -0.76549,2.43353c0.15686,0.22881 0.2768,0.48861 0.34919,0.7731c0.3301,1.29736 -0.45403,2.61668 -1.75138,2.9468c-0.20391,0.05188 -0.40832,0.07622 -0.60938,0.07542c0.19534,0.25369 0.34333,0.55052 0.42731,0.88055c0.3301,1.29736 -0.45403,2.61668 -1.75138,2.9468c-0.36924,0.09394 -0.74026,0.09766 -1.08976,0.02495l-3.82866,-0.70893l0.00734,-0.03954c-2.4101,-0.44904 -5.03221,-0.78573 -7.47381,-1.43814c1.79634,1.52361 3.5544,3.02276 5.27426,4.59983l0.21423,-0.33292l4.07153,2.61982c0.50024,0.3199 0.88479,0.82325 1.04275,1.44412c0.3301,1.29736 -0.45403,2.61668 -1.75138,2.9468c-0.39667,0.10095 -0.79535,0.09771 -1.1672,0.00749l-2.37122,-0.52307c-0.31181,0.56893 -0.84984,1.01199 -1.5282,1.18459c-0.39665,0.10095 -0.79533,0.0977 -1.16721,0.0075l-2.56357,-0.56548c0,0 -1.89463,-0.41789 -1.91985,-2.20103l-0.13078,-0.08558l-2.16117,-0.87037c-0.70468,-0.27432 -1.27095,-0.87332 -1.47165,-1.66204c-0.3301,-1.29736 0.45403,-2.61668 1.75138,-2.9468c0.12125,-0.03085 0.24266,-0.05197 0.36346,-0.06385c-1.0315,-0.93918 -2.0462,-1.91824 -3.08574,-2.82037l-2.40638,-1.80112c-0.43589,-0.3207 -0.76761,-0.78863 -0.91147,-1.354c-0.3301,-1.29736 0.45402,-2.61668 1.75138,-2.9468c0.15258,-0.03882 0.30548,-0.06222 0.45701,-0.07122l2.8907,-0.22396c0.24622,-0.76934 0.87133,-1.39845 1.71189,-1.6123c0.17157,-0.04365 0.3435,-0.06781 0.51348,-0.07392l2.52305,-0.13945c-0.74363,-0.2582 -1.34739,-0.87316 -1.55602,-1.69312c-0.00958,-0.03763 -0.0182,-0.07529 -0.02593,-0.11294l-0.7413,-3.51617l0.04178,-0.0088c-0.03008,-0.0942 -0.05849,-0.18906 -0.08509,-0.28466c-0.30195,-1.0845 -0.3859,-2.37844 -0.34235,-3.76611c-0.21566,0.5559 -0.42039,1.11113 -0.60572,1.66581l-0.07141,0.07683l0.03453,0.01475l-0.95453,2.23655c-0.28272,0.68158 -0.87199,1.22609 -1.6421,1.42204c-1.29736,0.3301 -2.61668,-0.45402 -2.9468,-1.75138c-0.02268,-0.08907 -0.04007,-0.17827 -0.05244,-0.26724l-0.4468,-2.95373l0.04163,-0.00628c-0.02551,-0.10322 -0.04842,-0.20729 -0.06851,-0.31231c-0.09537,-0.4989 -0.14221,-1.04787 -0.15225,-1.63319c-0.30287,0.89324 -0.59289,1.76838 -0.84502,2.61743l-0.69021,2.58991c-0.20706,0.84081 -0.85908,1.54298 -1.7569,1.77143c-0.8702,0.22142 -1.75027,-0.05844 -2.33508,-0.65825l-0.16325,0.52663c-0.23232,0.79665 -0.86791,1.4532 -1.73032,1.67261c-1.25282,0.31878 -2.52615,-0.40149 -2.90934,-1.61961l-1.43227,-4.423l0.0435,-0.01409c-0.04635,-0.11835 -0.0905,-0.23772 -0.13229,-0.35819c-0.32148,-0.92642 -0.46139,-2.0293 -0.48197,-3.2237c-0.48978,-0.32048 -0.86555,-0.81825 -1.02125,-1.43018c-0.06481,-0.25466 -0.08664,-0.51016 -0.07012,-0.75886l0.20726,-4.78703l0.65487,0.02835c-0.04909,-1.44098 0.06583,-2.86824 0.43825,-4.24769l0.91288,-1.45826c0,0 0.0604,-0.07541 0.17207,-0.1841l0.34295,-1.519c0.1801,-0.88233 0.84692,-1.62895 1.77815,-1.8659c0.99108,-0.25217 1.995,0.14588 2.56092,0.92629c0.32074,-0.48408 0.81545,-0.85514 1.42254,-1.00961zM259.57481,144.38525l0.05018,-0.41783c-0.05125,-0.47327 -0.02174,-0.89701 0.06553,-1.27547l-0.60643,-0.23538zM269.97722,151.27849l0.21454,-0.20617l2.4842,2.58516c0.29673,0.29747 0.51994,0.67602 0.63107,1.11274c0.07546,0.29655 0.09268,0.59424 0.05889,0.88101l0.60355,0.63662c0.29127,0.29579 0.51037,0.67039 0.62013,1.10171c0.04375,0.17202 0.06795,0.34442 0.07394,0.51485l0.44788,-0.0952c-0.36147,-1.47793 -0.52535,-2.9819 -0.3754,-4.46983l0.01635,-0.03856l-0.01099,-0.00155l0.30929,-2.1809c-0.18743,-0.82407 -0.39624,-1.66036 -0.61666,-2.52623c0,0 -0.24708,-0.9711 0.20086,-1.82341c-0.82552,-0.48175 -1.57779,-1.30284 -2.457,-1.67046c-0.22969,-0.09603 -0.4499,-0.1886 -0.66119,-0.27834c-0.51349,0.69046 -1.24965,1.22197 -2.13657,1.47339l-1.93859,0.5587c0.89601,1.50305 1.73619,2.94122 2.53571,4.42651zM258.95483,152.37372c-0.07315,0.52978 -0.15891,1.05632 -0.24815,1.56787c0.31182,-0.35575 0.73077,-0.62412 1.22388,-0.74958c0.2674,-0.06804 0.53574,-0.08873 0.79618,-0.06737l2.72033,0.15963l-0.69604,-0.63129c-1.12418,0.40509 -2.53151,0.18594 -3.79619,-0.27925zM276.62266,144.79731c-0.33639,-0.09517 -0.35342,0.31784 -0.32922,0.82232c0.51195,-0.11322 0.93761,-0.08391 1.28984,0.02916c-0.2069,-0.41095 -0.50133,-0.72154 -0.96065,-0.85148zM278.70744,133.90423l-1.77255,-0.63075c0.59994,0.84849 1.15642,1.81841 1.5765,2.79333c0.05056,-0.01644 0.10202,-0.03136 0.15429,-0.04464c0.15811,-0.04021 0.31656,-0.06392 0.47349,-0.07212l-0.10503,-1.48815c-0.01385,-0.15534 -0.01247,-0.30955 0.00311,-0.46086c-0.1125,-0.02449 -0.2227,-0.05685 -0.32981,-0.09675zM272.419,127.50268c-0.07962,-0.08783 -0.15759,-0.17644 -0.23369,-0.2656c-0.02215,0.1115 -0.04896,0.22169 -0.08027,0.33036c0.10319,-0.02736 0.20788,-0.04875 0.31396,-0.06476z" fill="#989898"></path><path d="M244.28241,118.95527l3.64331,-0.00961c1.10513,-0.0271 2.12219,0.70936 2.40635,1.82609c0.31383,1.23339 -0.37937,2.48661 -1.56324,2.89086l-3.085,1.09268v0c-2.58937,0.92262 -6.8323,2.3024 -6.41749,5.48137c0,0 0.01381,2.4239 -2.41007,2.43773c-2.42389,0.01384 -2.43773,-2.41007 -2.43773,-2.41007c0.19318,-3.85027 2.10293,-6.183 4.86034,-7.8723c0.08432,-0.75412 0.52148,-1.43423 1.18154,-1.82157l2.03429,-1.25819c0.21699,-0.14126 0.4605,-0.24994 0.72538,-0.31733c0.35961,-0.09152 0.7209,-0.0974 1.06236,-0.03048z" fill="#989898"></path><path d="M279.47428,123.74417c0.27508,1.08114 -0.37833,2.18059 -1.45948,2.45565c-0.43092,0.10965 -0.86475,0.07177 -1.24812,-0.08188l-2.88158,-1.11302l0.01672,-0.04327l-0.14346,-0.01072c-2.30111,-1.26864 -4.5903,-2.38855 -6.98272,-3.417c1.29763,1.38069 2.59411,2.74992 3.8765,4.13536l1.67866,0.67586c0.58733,0.22855 1.05932,0.72777 1.22656,1.38511c0.27508,1.08114 -0.37833,2.18059 -1.45948,2.45565c-0.34321,0.08733 -0.68825,0.08108 -1.00818,-0.00272l-3.27835,-0.78857c-1.95145,-0.11909 -3.90847,-0.31957 -5.81855,-0.73598c0,0 -1.97252,-0.43514 -1.5374,-2.40764c0.43514,-1.97252 2.40764,-1.5374 2.40764,-1.5374c0.3923,0.08771 0.78699,0.16415 1.18344,0.23122c-1.08552,-1.27627 -2.04296,-2.51688 -2.5316,-3.1986c-0.79955,-1.11543 -2.64307,-2.24683 -2.13372,-3.52122c0.59932,-1.49946 2.77061,-1.8888 4.37369,-2.08302c0.269,-0.0326 0.5583,-0.03269 0.86407,-0.00471l-0.77665,-0.57719c-0.36577,-0.26733 -0.6443,-0.65872 -0.76475,-1.1321c-0.25067,-0.9851 0.26957,-1.9854 1.18185,-2.36343c0.17162,-0.70217 0.71552,-1.28891 1.4649,-1.47956c0.27491,-0.06995 0.551,-0.07987 0.8144,-0.03798l2.24267,0.30369l-0.00578,0.04274l0.13573,-0.02079c6.66213,1.80181 13.37516,3.39234 19.05906,6.89724c0.0813,0.02861 0.16293,0.05758 0.24492,0.08693l0.3163,-0.60167l3.37042,1.77183c0.49255,0.25637 0.87791,0.71354 1.02562,1.29404c0.27508,1.08114 -0.37833,2.18059 -1.45948,2.45565c-0.36768,0.09355 -0.73749,0.07971 -1.07623,-0.02182l-2.28774,-0.64009l0.01058,-0.03777l-0.09927,0.01073c-1.14626,-0.43762 -2.22724,-0.71094 -3.2234,-0.99313c-0.26535,0.43268 -0.69303,0.7664 -1.22377,0.90143c-0.10662,0.02712 -0.21345,0.04524 -0.31964,0.05478c-0.06248,0.84231 -0.65319,1.58809 -1.51684,1.80783c-0.54306,0.13817 -1.09076,0.04208 -1.53626,-0.22484l-1.10985,-0.66456c0.17889,0.22022 0.31398,0.4818 0.38855,0.77483z" fill="#787878"></path><path d="M246.90534,146.66483c-1.90482,0.67217 -2.577,-1.23269 -2.577,-1.23269l-0.48062,-1.38889c-1.43193,-3.63151 -0.03217,-1.0332 -1.1243,1.85059l-0.50204,3.86726c-0.08676,0.81601 -0.66927,1.53002 -1.51112,1.74422c-0.06383,0.01626 -0.12772,0.02924 -0.19152,0.03912c-0.07504,0.4323 -0.16106,0.85987 -0.2598,1.28183c-0.36236,1.54871 -0.18067,3.89784 -1.66393,4.47205c-1.48628,0.57537 -2.544,0.13842 -3.31328,-0.76002l-0.21328,1.97692c-0.07031,0.83406 -0.65846,1.56979 -1.51526,1.78778c-1.08114,0.27508 -2.18059,-0.37833 -2.45565,-1.45948c-0.04002,-0.15724 -0.06037,-0.31485 -0.06264,-0.47024l-0.14048,-3.99422l0.4814,-0.01695c0.00059,-0.02223 0.00118,-0.04449 0.00173,-0.06677c-0.69636,-3.95114 -0.68236,-7.70764 -0.54712,-12.29432l0.0609,-0.12855l-0.04314,-0.00712l0.46031,-2.78288c0.11192,-0.78633 0.68487,-1.46561 1.50235,-1.6736c0.56817,-0.14456 1.14135,-0.03269 1.59736,0.26292c0.14157,-0.00446 0.28146,0.00614 0.41772,0.03066l0.00025,-0.00072c0.20992,-0.6312 0.72696,-1.14564 1.41949,-1.32184c0.31632,-0.0805 0.63422,-0.08149 0.93256,-0.01555c0.00137,-0.01693 0.0027,-0.03387 0.00404,-0.05079c0,0 0.15969,-2.01362 2.17331,-1.85394c2.01362,0.15969 1.85394,2.17331 1.85394,2.17331c-0.05707,0.71814 -0.09382,1.44948 -0.11793,2.19004c1.15255,-0.94373 2.8425,-0.98195 5.0322,0.76696c0.80426,0.64232 0.92699,1.83801 1.39048,2.75702l0.62378,1.74091c0,0 0.67217,1.90482 -1.23269,2.577z" fill="#787878"></path><path d="M265.23291,166.79248c-0.47625,1.96299 -2.43927,1.48673 -2.43927,1.48673l-0.29368,-0.07407c0.28867,0.46691 0.55285,0.95192 0.79461,1.45018l0.65215,-0.28594l1.45259,3.31266c0.05058,0.11006 0.09195,0.22622 0.12288,0.34781c0.27442,1.07854 -0.37522,2.17532 -1.45172,2.45367c0.0871,0.15345 0.15537,0.32096 0.20096,0.50021c0.27508,1.08114 -0.37833,2.18059 -1.45948,2.45565c-0.35087,0.08928 -0.70365,0.08076 -1.02953,-0.00844l-2.10337,-0.53155l0.02053,-0.08122l-0.20378,0.02554c-3.23481,-1.51366 -5.46942,-3.02077 -7.64799,-5.25851l-0.42822,-0.27301c-0.40043,-0.2539 -0.71276,-0.64839 -0.85573,-1.1352c-0.27934,-0.32521 -0.5608,-0.66463 -0.84629,-1.01979c0,0 -1.2596,-1.57912 0.31949,-2.83871c1.57912,-1.2596 2.83871,0.31949 2.83871,0.31949c0.34038,0.43051 0.67092,0.83252 0.99734,1.21018l3.01719,0.6904l-0.07385,0.32275c0.83079,0.06333 1.65786,0.15677 2.47789,0.2881c-0.42814,-0.38805 -0.84227,-0.792 -1.24908,-1.19535l-1.8993,-1.61438c-0.31778,-0.26324 -0.55803,-0.62597 -0.66759,-1.05652c-0.27508,-1.08114 0.37833,-2.18059 1.45948,-2.45565c0.12311,-0.03132 0.24646,-0.0506 0.36883,-0.0586l2.67697,-0.22254l0.00878,0.10569c0.10501,-0.03553 0.21001,-0.07105 0.31502,-0.10658l3.43883,0.80764c0,0 1.96299,0.47625 1.48673,2.43927z" fill="#787878"></path><path d="M287.27423,171.08547c1.03678,1.73356 -0.69678,2.77035 -0.69678,2.77035l-0.14231,0.08512c-0.21243,0.127 -0.42495,0.26334 -0.6376,0.40582c-0.0239,0.69161 -0.40453,1.32793 -1.00337,1.67584l-1.69333,1.03699l-0.04118,-0.06722l-0.09765,0.14487c-0.42615,0.17696 -0.85104,0.35129 -1.27554,0.5224c-0.34686,0.24476 -0.76794,0.37625 -1.20845,0.47804c-2.05476,0.79611 -4.1181,1.50368 -6.28376,2.05658c0,0 -1.95758,0.4981 -2.45565,-1.45948c-0.4981,-1.95758 1.45948,-2.45565 1.45948,-2.45565c0.61301,-0.1554 1.21737,-0.3245 1.81552,-0.50546c0.04416,-0.02883 0.08964,-0.05604 0.13636,-0.0815l2.38024,-1.36852l0.19067,0.33165c0.09847,-0.03373 0.19725,-0.06663 0.29627,-0.09865c1.81472,-1.46444 3.72258,-2.51421 6.34437,-4.08286l0.14231,-0.08512c0,0 1.73356,-1.03678 2.77035,0.69678z" fill="#787878"></path><path d="M292.25332,153.86227c1.70175,-1.08822 2.78997,0.6135 2.78997,0.6135l0.23236,0.3642c0.10141,0.15621 0.19427,0.32265 0.27759,0.49683c0.28776,-0.87608 0.54675,-1.76205 0.78844,-2.65048c0,0 0.53331,-1.94828 2.48159,-1.41499c1.94828,0.53331 1.41499,2.48159 1.41499,2.48159c-0.57757,2.09812 -1.24004,4.18348 -2.11043,6.17798l-0.73001,1.84622c-0.2263,0.59315 -0.72795,1.07069 -1.38999,1.23912c-1.08114,0.27508 -2.18059,-0.37833 -2.45565,-1.45948c-0.0087,-0.03419 -0.01646,-0.0684 -0.02332,-0.10259l-0.57014,-2.75569c-0.329,-0.54814 -0.67319,-1.08657 -1.03968,-1.61045l-0.27922,-0.4358c0,0 -1.08822,-1.70175 0.6135,-2.78997z" fill="#787878"></path><path d="M282.03563,148.98349c-0.27508,-1.08114 0.37833,-2.18059 1.45948,-2.45565c1.08114,-0.27508 2.18059,0.37833 2.45565,1.45948c0.27508,1.08114 -0.37833,2.18059 -1.45948,2.45565c-1.08114,0.27508 -2.18059,-0.37833 -2.45565,-1.45948z" fill="#787878"></path><path d="M247.75367,117.9383c-0.32809,-1.03017 0.47665,-1.92833 0.47665,-1.92833l1.89071,-1.07348l2.2745,0.02976c0.90908,-0.00845 1.74057,0.60194 1.97472,1.52225c0.21595,0.84868 -0.14028,1.70861 -0.82639,2.17226l-1.91512,1.36014c-2.86911,2.2376 -5.50246,4.46105 -7.96589,7.13998c0,0 -1.3685,1.4857 -2.85421,0.11721c-1.4857,-1.3685 -0.11721,-2.85421 -0.11721,-2.85421c2.21364,-2.39941 4.5547,-4.4683 7.06222,-6.48554z" fill="#787878"></path><path d="M289.72016,137.656c-1.15614,-0.34296 -1.4173,-1.17142 -1.44003,-1.78342c-1.14714,1.36099 -3.01599,2.14628 -5.57859,-0.24678c-0.98796,-0.92258 -0.38033,-2.67661 -0.5705,-4.01491c0,0 -0.06435,-2.01892 1.95458,-2.08325c2.01892,-0.06435 2.08325,1.95458 2.08325,1.95458c-1.12144,4.33035 1.0809,-3.84865 3.22873,-3.46194c5.36703,0.96627 3.66928,4.69512 3.09399,7.39398l-0.26048,0.87965c0,0 -0.57445,1.93653 -2.51099,1.36208z" fill="#787878"></path></g></g></g></svg>