<svg version="1.1" xmlns="http://www.w3.org/2000/svg" xmlns:xlink="http://www.w3.org/1999/xlink" width="55.4403" height="47.12715" viewBox="0,0,55.4403,47.12715"><g transform="translate(-212.27985,-156.43643)"><g data-paper-data="{&quot;isPaintingLayer&quot;:true}" fill-rule="nonzero" stroke="none" stroke-width="0.5" stroke-linecap="butt" stroke-linejoin="miter" stroke-miterlimit="10" stroke-dasharray="" stroke-dashoffset="0" style="mix-blend-mode: normal"><path d="M223.01002,203.41844l-0.2953,0.01867c-0.00019,0.04201 -0.00028,0.08416 -0.00028,0.12646l-0.12981,-0.11824l-1.87019,0.11824c0,-0.20219 0.00207,-0.40162 0.00626,-0.59841c-0.15523,-0.05305 -0.25627,-0.12085 -0.25627,-0.12085c-2.00275,-1.34399 -4.26287,-2.79458 -5.82601,-4.67902c-4.63543,-5.58823 -1.97198,-12.63751 3.9403,-15.60069c1.83399,-0.53451 4.06826,-0.92675 5.55032,-2.21807c2.94235,-2.56366 1.62717,-7.77414 1.82185,-11.0937c0.19559,-3.335 2.30468,-6.05517 4.39172,-8.48947c3.61232,-2.70508 8.20854,-3.30863 12.55572,-3.98189c7.74914,-1.20013 15.07123,0.66903 20.4786,6.57295c1.97247,2.97284 3.63164,6.29428 4.18971,9.85998c1.38569,8.85361 -6.88283,17.20163 -13.79861,21.30148c-5.63372,3.05384 -9.66532,2.92339 -15.58885,0.931c-3.34708,-1.1258 -8.1023,-4.43066 -11.52757,-2.49369c-2.5538,2.91788 -3.66562,5.48458 -3.89236,9.10026c0.7892,0.55207 0.25077,1.36499 0.25077,1.36499z" data-paper-data="{&quot;index&quot;:null}" fill="#1b1b1b"></path><path d="M240.93642,185.13211c-0.00112,-0.03161 -0.00219,-0.06322 -0.00322,-0.09484l-0.04476,0.0869l0.04798,0.00795zM240.71697,185.4571l-0.28882,0.56067c-0.16259,0.33218 -0.50394,0.56094 -0.89871,0.56094c-0.23965,0 -0.45962,-0.0843 -0.63185,-0.22487c-0.10905,0.06702 -0.23194,0.11369 -0.36339,0.13475l-0.26822,0.36718c-0.1813,0.25438 -0.47873,0.42027 -0.81491,0.42027c-0.55228,0 -1,-0.44772 -1,-1c0,-0.16706 0.04096,-0.32455 0.1134,-0.46298l0.51206,-1.03086c0.58092,-1.57336 1.10387,-3.13243 1.68709,-4.65049c0.3804,-1.7963 1.01869,-3.62417 1.42866,-4.92654l-0.04634,0.14594c0,0 0,-0.92365 0.88768,-0.99557l0.02706,-0.06496c0.07729,-0.19819 0.21598,-0.36567 0.39269,-0.47906l0.11888,-0.37093c0.12219,-0.41425 0.50542,-0.71659 0.95927,-0.71659c0.55228,0 1,0.44772 1,1c0,0.07384 -0.00801,0.1458 -0.02319,0.21508l-0.22691,1.14204l-0.01815,-0.00361l0.00918,0.04428c-0.04974,0.1737 -0.09851,0.34599 -0.14649,0.51688c0.11016,0.1607 0.17462,0.3552 0.17462,0.56475c0,0.02995 -0.00132,0.0596 -0.0039,0.08888l-0.11002,1.40948c-0.02344,0.3917 -0.02356,0.82923 -0.0152,1.2947c0.42677,-1.43833 0.99695,-2.8231 1.79335,-4.14972l-0.2491,-0.13164l0.9247,-1.74984c0.16445,-0.32692 0.50297,-0.55122 0.89388,-0.55122c0.52956,0 0.96299,0.41163 0.99775,0.93239l0.06453,0.84249c0.12369,0.07613 0.22955,0.17844 0.30986,0.29921c0.1809,-0.18045 0.43053,-0.29202 0.70623,-0.29202c0.31638,0 0.59844,0.14692 0.78168,0.37626c0.31388,-0.6443 0.65308,-1.27411 1.0215,-1.88639l-0.21927,-0.09745l0.80302,-1.80676c0.15086,-0.36103 0.50734,-0.61472 0.92308,-0.61472c0.55228,0 1,0.44772 1,1c0,0.03049 -0.00137,0.06067 -0.00404,0.09046l-0.15307,1.92582l-0.01254,-0.001l0.00835,0.04265c-0.07894,0.48207 -0.15376,0.96261 -0.227,1.44114c0.15635,-0.10128 0.34278,-0.16009 0.54294,-0.16009c0.04981,0 0.09877,0.00364 0.14663,0.01067l0.12847,-0.38793c0.12509,-0.40957 0.50603,-0.70749 0.95654,-0.70749c0.55228,0 1,0.44772 1,1c0,0.05754 -0.00486,0.11394 -0.01419,0.16882l-0.0512,0.33497c0.25567,0.32166 0.21489,0.75264 0.21489,0.75264c-0.10019,1.05407 -0.24371,2.0987 -0.41501,3.13793c-0.08346,2.06804 -0.27018,3.98401 -1.01318,5.87736l0.38419,0.14594l-0.70191,1.84783c-0.13726,0.38842 -0.50769,0.66672 -0.94312,0.66672c-0.43725,0 -0.80895,-0.28063 -0.94483,-0.6716l-0.10816,0.29939c-0.11001,0.32839 -0.3858,0.58077 -0.72796,0.65776c-0.03499,0.05211 -0.07098,0.1031 -0.10798,0.15292c-0.02887,0.03887 -0.05845,0.07709 -0.08867,0.1147l0.01465,0.01019l-0.3418,0.49149c-0.22261,0.82726 -0.50386,1.64181 -0.86096,2.4426l0.3011,0.10365l-0.64342,1.86918c-0.12852,0.40386 -0.50664,0.69643 -0.95309,0.69643c-0.55228,0 -1,-0.44772 -1,-1c0,-0.04236 0.00264,-0.08411 0.00775,-0.12508l0.21963,-1.97327c0.06557,-0.58892 0.12247,-1.19707 0.17685,-1.81843c-0.1171,-0.04539 -0.22353,-0.11219 -0.31447,-0.19561c-0.15857,0.72494 -0.31667,1.44742 -0.47746,2.16538l0.10531,0.03329l-0.53197,1.68287c-0.12099,0.41617 -0.50516,0.72033 -0.96037,0.72033c-0.55228,0 -1,-0.44772 -1,-1c0,-0.09178 0.01236,-0.18068 0.03552,-0.26511l0.37029,-1.47598c0.10697,-0.47615 0.21195,-0.95629 0.31622,-1.43942c0.03706,-0.43549 0.12554,-0.88219 0.21235,-1.34979c-0.02165,0.0014 -0.04349,0.00211 -0.0655,0.00211c-0.26054,0 -0.49781,-0.09963 -0.67578,-0.26288c-0.07927,0.11178 -0.16079,0.22353 -0.24464,0.33531l0.19439,0.1229l-1.05967,1.67611c-0.17557,0.28784 -0.49251,0.48 -0.85433,0.48c-0.55228,0 -1,-0.44772 -1,-1v-0.75313c-0.09719,0.03151 -0.20091,0.04853 -0.3086,0.04853c-0.55228,0 -1,-0.44772 -1,-1c0,-0.06211 0.00566,-0.1229 0.0165,-0.18188zM244.06953,185.04715c0.34007,-0.47896 0.69999,-0.98557 0.97073,-1.65721c0.06752,-0.16748 0.12867,-0.34019 0.18421,-0.51736c0.04168,-0.60404 0.08945,-1.20822 0.13751,-1.81324c-0.31473,0.65465 -0.65119,1.30897 -0.97727,1.94381c-0.11489,0.67903 -0.21921,1.35947 -0.31517,2.04401z" data-paper-data="{&quot;index&quot;:null}" fill="#ff0000"></path></g></g></svg>