<svg version="1.1" xmlns="http://www.w3.org/2000/svg" xmlns:xlink="http://www.w3.org/1999/xlink" width="81.01215" height="180.55753" viewBox="0,0,81.01215,180.55753"><defs><radialGradient cx="480" cy="179.99999" r="39.25" gradientUnits="userSpaceOnUse" id="color-1"><stop offset="0" stop-color="#ebebeb"/><stop offset="1" stop-color="#dbdbdb"/></radialGradient><radialGradient cx="477.61363" cy="74.60291" r="10.40536" gradientUnits="userSpaceOnUse" id="color-2"><stop offset="0" stop-color="#ffffff"/><stop offset="1" stop-color="#e9e9e9"/></radialGradient></defs><g transform="translate(-439.49393,-39.94855)"><g stroke-miterlimit="10"><path d="M441.69254,74.96484c0,-19.33896 16.14091,-35.01629 36.05171,-35.01629c19.91082,0 36.05171,15.67733 36.05171,35.01629c0,19.33896 -16.14091,35.01629 -36.05171,35.01629c-19.91082,0 -36.05171,-15.67733 -36.05171,-35.01629z" fill-opacity="0.8902" fill="#a2a2a2" stroke="none" stroke-width="0" stroke-linecap="butt"/><path d="" fill="none" stroke="#000000" stroke-width="1.5" stroke-linecap="round"/><path d="M486.41172,218.72276c-21.386,3.5411 -41.59338,-10.92505 -45.13448,-32.31104c-3.5411,-21.386 10.92505,-41.59338 32.31104,-45.13448c21.386,-3.5411 41.59338,10.92505 45.13448,32.31104c3.5411,21.386 -10.92505,41.59338 -32.31104,45.13448z" fill="url(#color-1)" stroke="#ffffff" stroke-width="2.5" stroke-linecap="butt"/><path d="M475.47155,174.05481c7.16879,-0.39578 13.09747,1.40684 13.24205,4.02621c0.1446,2.61935 -5.54962,5.0636 -12.7184,5.45936c-7.16879,0.39578 -13.09747,-1.40684 -13.24205,-4.02621c-0.1446,-2.61935 5.54962,-5.0636 12.7184,-5.45936z" fill="#ffffff" stroke="#000000" stroke-width="1.5" stroke-linecap="butt"/><path d="M474.95135,155.85868c7.16879,-0.39578 13.09747,1.40684 13.24206,4.0262c0.1446,2.61935 -5.54962,5.0636 -12.71841,5.45935c-7.16879,0.39578 -13.09746,-1.40682 -13.24206,-4.02619c-0.1446,-2.61935 5.5496,-5.0636 12.71841,-5.45936z" fill="#ffffff" stroke="#000000" stroke-width="1.5" stroke-linecap="butt"/><path d="M467.20827,74.60291c0,-5.74672 4.65864,-10.40536 10.40536,-10.40536c5.74672,0 10.40536,4.65864 10.40536,10.40536c0,5.74672 -4.65864,10.40536 -10.40536,10.40536c-5.74672,0 -10.40536,-4.65864 -10.40536,-10.40536z" fill="url(#color-2)" stroke="#ffffff" stroke-width="2" stroke-linecap="butt"/></g></g></svg>