<svg version="1.1" xmlns="http://www.w3.org/2000/svg" xmlns:xlink="http://www.w3.org/1999/xlink" width="101.29802" height="99.03356" viewBox="0,0,101.29802,99.03356"><g transform="translate(-179.38854,-132.71523)"><g data-paper-data="{&quot;isPaintingLayer&quot;:true}" fill-rule="nonzero" stroke="#000000" stroke-linejoin="miter" stroke-miterlimit="10" stroke-dasharray="" stroke-dashoffset="0" style="mix-blend-mode: normal"><path d="M199.4885,186.22941c0,-21.81525 17.68475,-39.5 39.5,-39.5c21.81525,0 39.5,17.68475 39.5,39.5c0,21.81525 -17.68475,39.5 -39.5,39.5c-21.81525,0 -39.5,-17.68475 -39.5,-39.5z" fill="#d8d8d8" stroke-width="1.5" stroke-linecap="butt"></path><path d="M230.78361,182.83067v-8" fill="none" stroke-width="1.5" stroke-linecap="round"></path><path d="" data-paper-data="{&quot;index&quot;:null}" fill="none" stroke-width="1.5" stroke-linecap="round"></path><path d="M237.80575,175.09105v8" fill="none" stroke-width="1.5" stroke-linecap="round"></path><g stroke-linecap="butt"><path d="M180.28024,219.93597v-39.20997h37.17169v39.20997c0,0 -15.19427,8.53892 -17.91362,10.06715c-0.80178,0.45059 -1.55727,0.87516 -1.55727,0.87516z" fill="#008c04" stroke-width="1.5"></path><path d="M196.2172,231.54981v-51.72473h4.15075v51.72473z" fill="#00ff08" stroke-width="0"></path><path d="M217.70316,199.7146h-38.31462v-4.15075h38.31462z" fill="#00ff08" stroke-width="0"></path></g><path d="M249.40172,201.19602l-24.05023,2.92199" fill="none" stroke-width="1.5" stroke-linecap="round"></path><g data-paper-data="{&quot;index&quot;:null}" stroke-width="1"><path d="M269.4663,222.77828l-1.91145,-19.9596l7.84127,-0.75093l1.91145,19.9596z" fill="#e8ff00" stroke-linecap="butt"></path><path d="M279.73624,200.29622l-3.35718,2.39989l-9.01643,0.93354l-3.97424,-1.7679l3.79508,-2.57419l9.49533,-0.60111z" fill="#8f8f8f" stroke-linecap="butt"></path><path d="M268.22143,200.08663l-8.25785,-59.66851l5.18473,-6.96052l5.97737,5.47127l3.50988,60.5264z" fill="#dddddd" stroke-linecap="butt"></path><path d="M271.2913,199.02043l-4.44414,-43.54805" fill="none" stroke-linecap="round"></path></g></g></g></svg>