<svg version="1.1" xmlns="http://www.w3.org/2000/svg" xmlns:xlink="http://www.w3.org/1999/xlink" width="341.90994" height="80.5" viewBox="0,0,341.90994,80.5"><g transform="translate(-54.9704,-161.83385)"><g data-paper-data="{&quot;isPaintingLayer&quot;:true}" fill-rule="nonzero" stroke-linejoin="miter" stroke-miterlimit="10" stroke-dasharray="" stroke-dashoffset="0" style="mix-blend-mode: normal"><path d="" data-paper-data="{&quot;index&quot;:null}" fill="none" stroke="#000000" stroke-width="1.5" stroke-linecap="round"></path><path d="" data-paper-data="{&quot;index&quot;:null}" fill="none" stroke="#000000" stroke-width="1.5" stroke-linecap="round"></path><path d="" data-paper-data="{&quot;index&quot;:null}" fill="none" stroke="#000000" stroke-width="1.5" stroke-linecap="round"></path><path d="" data-paper-data="{&quot;index&quot;:null}" fill="none" stroke="#000000" stroke-width="1.5" stroke-linecap="round"></path><g><path d="M286.31567,240.20132" fill="none" stroke="#d8d8d8" stroke-width="4" stroke-linecap="round"></path><path d="M232.06308,202.08385c0,-21.81525 36.72769,-39.5 82.03363,-39.5c45.30592,0 82.03363,17.68475 82.03363,39.5c0,21.81525 -36.72769,39.5 -82.03363,39.5c-45.30592,0 -82.03363,-17.68475 -82.03363,-39.5z" fill="#d8d8d8" stroke="#000000" stroke-width="1.5" stroke-linecap="butt"></path><path d="M341.27207,216.25244c0,0 -45.95155,8.02511 -57.26801,5.13694" data-paper-data="{&quot;index&quot;:null}" fill="none" stroke="#000000" stroke-width="1.5" stroke-linecap="round"></path><path d="M251.71725,173.68209l63.29631,11.59453l62.02885,-10.0822c0,0 8.54348,7.78425 10.87186,11.63853c2.23589,3.70117 5.63886,10.48332 5.63886,10.48332l-78.53962,16.19051l-84.30973,-17.86909c0,0 3.87595,-6.82746 6.41666,-10.37897c2.73436,-3.8222 14.59677,-11.57662 14.59677,-11.57662z" fill="#595959" stroke="#000000" stroke-width="0.5" stroke-linecap="round"></path><path d="M305.12942,195.80015c10.40352,5.46296 -5.5492,2.95529 -14.87396,2.95529c-9.32476,0 -16.88393,-8.86587 -16.88393,-8.86587c0,0 21.35437,0.44762 31.75789,5.91058z" fill="#ffffff" stroke="none" stroke-width="0" stroke-linecap="butt"></path><path d="M355.13691,189.94726c0,0 -7.55921,8.86587 -16.88393,8.86587c-9.32476,0 -25.27746,2.50768 -14.87395,-2.95529c10.40352,-5.46296 31.75788,-5.91058 31.75788,-5.91058z" data-paper-data="{&quot;index&quot;:null}" fill="#ffffff" stroke="none" stroke-width="0" stroke-linecap="butt"></path><g fill="none" stroke-linecap="round"><path d="M222.25061,207.27133c57.31797,3.91398 -20.5236,6.68202 -20.5236,6.68202" stroke="#ff0000" stroke-width="3.5"></path><path d="M244.3619,210.54298c-0.2082,6.44998 -21.59555,10.02189 -40.12823,8.83975" stroke="#ff0000" stroke-width="3.5"></path><g><path d="M227.67444,207.44411c0,0 -92.57519,1.76196 -149.89318,-2.15203c-57.31797,-3.91398 20.5236,-6.68202 20.5236,-6.68202" stroke="#ff0000" stroke-width="3.5"></path><path d="M111.27928,207.11125l27.917,0.48165" stroke="#d8d8d8" stroke-width="4"></path><path d="M57.27883,200.44409c0.2082,-6.44998 21.59555,-10.02189 40.12823,-8.83975" stroke="#ff0000" stroke-width="3.5"></path></g></g></g></g></g></svg>