<svg version="1.1" xmlns="http://www.w3.org/2000/svg" xmlns:xlink="http://www.w3.org/1999/xlink" width="195.55452" height="89.2603" viewBox="0,0,195.55452,89.2603"><g transform="translate(-140.79733,-137.1537)"><g data-paper-data="{&quot;isPaintingLayer&quot;:true}" fill-rule="nonzero" stroke-linejoin="miter" stroke-miterlimit="10" stroke-dasharray="" stroke-dashoffset="0" style="mix-blend-mode: normal"><path d="M165.95168,209.74723c-0.24607,1.56877 -0.61517,3.13749 -1.06272,4.677c0,0.00115 0,0.0023 0,0.00345v2.5c0,0.16513 -0.03202,0.32277 -0.09019,0.46707c0.15504,2.51227 0.2025,5.22234 -0.59341,6.90362c-0.03717,0.07851 -0.07856,0.15406 -0.12362,0.22705l0.0263,0.01396l-0.6303,1.18765c-0.20595,0.40753 -0.6285,0.68697 -1.11632,0.68697c-0.64351,0 -1.17345,-0.48627 -1.2424,-1.11141l-0.30377,-2.43019c-0.98685,-4.92352 -2.05469,-10.00007 -4.04065,-14.62032c0,0 -0.4924,-1.14893 0.65653,-1.64133c1.14893,-0.4924 1.64133,0.65653 1.64133,0.65653c1.30257,3.04777 2.23281,6.27376 2.9998,9.53169c0.00729,-1.26351 0.00065,-2.52774 0.00854,-3.79412l0.09669,-0.13326l-0.06873,-0.01718l0.31118,-1.24473c0.07296,-0.3215 0.26985,-0.59594 0.53778,-0.77042c0.28887,-0.95056 0.61732,-1.92656 0.70735,-2.88458l1.40476,0.60556l1.0832,-0.36051c-0.02686,0.26238 -0.05759,0.52503 -0.09198,0.7878l0.098,0.04224c0,0 0,0.3774 -0.20737,0.71746z" fill="#bd00f2" stroke="none" stroke-width="0.5" stroke-linecap="butt"></path><path d="M152.50552,199.82158c0,1.25 -1.25,1.25 -1.25,1.25l-1.91062,-0.00001c-1.9985,-0.01751 -3.41642,-0.07656 -4.90469,-0.3717l-0.02967,0.29674l-2.47384,-0.24738c-0.63854,-0.05599 -1.13937,-0.5921 -1.13937,-1.24517c0,-0.59488 0.41555,-1.0927 0.9722,-1.21902l1.14591,-0.28648c0.36242,-0.17859 0.71851,-0.35413 1.07282,-0.50251c-0.20679,-0.22301 -0.33321,-0.52159 -0.33321,-0.84971c0,-0.61444 0.44333,-1.12533 1.02756,-1.23027l1.56491,-0.31298l0.00266,0.01332l0.03349,-0.02c0.11631,-0.01626 0.24157,-0.03778 0.37442,-0.06345l-0.07034,-0.01407c-0.58424,-0.10493 -1.02756,-0.61583 -1.02756,-1.23027c0,-0.59488 0.41555,-1.0927 0.9722,-1.21902l1.24245,-0.31061c0.38908,-0.09935 0.7624,-0.2055 1.1264,-0.3085c-2.13908,-0.27681 -4.26275,-0.74802 -6.39564,-1.05224c0,0 -1.23744,-0.17678 -1.06066,-1.41421c0.17678,-1.23744 1.41421,-1.06066 1.41421,-1.06066c0.16387,0.02345 0.32767,0.04785 0.49141,0.07306c0.22842,-0.24787 0.55579,-0.40315 0.91944,-0.40315c0.51337,0 0.95445,0.30947 1.14687,0.75203c2.2935,0.40775 4.58645,0.83815 6.9144,0.84167l0.11522,0.05198l0.00676,-0.03379l2.42874,0.48575c0.58424,0.10493 1.02756,0.61583 1.02756,1.23027c0,0.53058 -0.33057,0.98395 -0.797,1.16539l-0.72252,0.30031c0.55716,0.12595 0.97321,0.62401 0.97321,1.21925c0,0.41416 -0.20142,0.78127 -0.51164,1.00873l-1.25846,0.94384l-0.26212,-0.34949c-1.12358,0.82809 -2.28439,1.18615 -3.69077,1.43394c0.00499,0.04538 0.00755,0.0915 0.00755,0.13821c0,0.46331 -0.25206,0.86774 -0.62653,1.08365l-0.31679,0.19007c0.21291,0.00837 0.42985,0.01454 0.65136,0.01648l1.89967,-0.00001c0,0 1.25,0 1.25,1.25z" fill="#bd00f2" stroke="none" stroke-width="0.5" stroke-linecap="butt"></path><path d="M180.64478,194.13159c-0.19946,-0.01661 -0.39893,-0.03323 -0.59839,-0.04985c0,0 -1.24568,-0.10381 -1.14188,-1.34949c0.10381,-1.24568 1.34949,-1.14188 1.34949,-1.14188c0.52448,0.04371 1.04896,0.08747 1.57342,0.13148c-1.4399,-0.269 -2.91735,-0.32128 -4.37246,-0.50317c0,0 -1.24035,-0.15504 -1.0853,-1.39539c0.15504,-1.24035 1.39539,-1.0853 1.39539,-1.0853c2.60784,0.32598 4.94715,0.62063 7.45615,1.41325c0.76823,0.24269 1.91003,0.00951 2.3108,0.70841c0.28712,0.50069 0.32262,1.0321 0.18714,1.5502l0.12032,-0.14015c0,0 0.88388,-0.88388 1.76777,0c0.88388,0.88388 0,1.76777 0,1.76777l-0.89691,0.83541c-0.94032,0.53896 -1.89903,1.08469 -2.877,1.59807c0.00805,0.05731 0.01221,0.11587 0.01221,0.1754c0,0.69036 -0.55964,1.25 -1.25,1.25h-1.80815c-0.88103,0.35226 -1.77715,0.65048 -2.68893,0.86929l-0.26578,0.4008c-2.01098,0 -4.02197,0 -6.03295,0c0,0 -1.25,0 -1.25,-1.25c0,-1.25 1.25,-1.25 1.25,-1.25c0.64178,0 1.28356,0 1.92535,0c-0.00007,-0.00666 -0.00011,-0.01336 -0.00011,-0.0201c0,-0.37553 0.11282,-0.63824 0.27066,-0.82202c-1.69191,-0.51332 -3.36054,-0.76422 -4.97759,-1.55271c0,0 -1.11803,-0.55902 -0.55902,-1.67705c0.55902,-1.11803 1.67705,-0.55902 1.67705,-0.55902c1.77055,0.91476 3.80361,1.06787 5.71347,1.778l1.11599,0.37943c0,0 0.89453,0.30463 0.86319,1.16193c0.75667,-0.03492 1.42976,-0.05233 2.06709,0.14162c0.10717,-0.26275 0.2246,-0.52303 0.35447,-0.77542h-0.51246c0,0 -0.75735,0 -1.09304,-0.58951z" fill="#bd00f2" stroke="none" stroke-width="0.5" stroke-linecap="butt"></path><path d="M165.09258,171.27413c-0.33558,1.14877 -0.74962,2.06136 -1.3158,2.95955l0.1931,0.09655l-1.10592,2.21185c-0.20043,0.42281 -0.63114,0.7152 -1.13014,0.7152c-0.10353,0 -0.20413,-0.01259 -0.30034,-0.03631l-0.59608,0.79477c-0.22746,0.31022 -0.59457,0.51164 -1.00873,0.51164c-0.67009,0 -1.21702,-0.52726 -1.24856,-1.18954l-0.08805,-1.60226c-0.00531,-0.02382 -0.01063,-0.04778 -0.01594,-0.07187c-0.22889,0.72407 -0.4677,1.42779 -0.72503,2.12882l0.13525,0.01691l-0.30803,2.46424c-0.06895,0.62514 -0.59889,1.11141 -1.2424,1.11141c-0.69036,0 -1.25,-0.55964 -1.25,-1.25c0,-3.0694 0,-7.40889 0,-10.47829c0,0 0,-1.25 1.25,-1.25c1.25,0 1.25,1.25 1.25,1.25c0,0.45764 0,0.91528 0,1.37292l0.16005,-0.32009c0.20043,-0.42281 0.63114,-0.7152 1.13014,-0.7152c0.62742,0 1.14687,0.46225 1.23637,1.06477l0.31415,1.88487l-0.15089,0.02515c0.07178,0.20745 0.14084,0.41577 0.20695,0.62494c0.00038,-0.00087 0.00076,-0.00174 0.00114,-0.00261v-1.07702v0c0,-0.69036 0.55964,-1.25 1.25,-1.25c0.23574,0 0.45623,0.06526 0.6444,0.17869c0.2333,-0.73081 0.5029,-1.48186 0.66924,-2.34494l1.54281,0.74356l0.91028,-0.26154c-0.04388,0.21961 -0.08888,0.43101 -0.13529,0.63506l0.15874,0.07651c0,0 0,0.61504 -0.43142,0.98228z" fill="#bd00f2" stroke="none" stroke-width="0.5" stroke-linecap="butt"></path><path d="M306.48064,205.5937c0.34149,0.36959 0.34149,0.89588 0.34149,0.89588v1.58762c-0.00173,0.49403 -0.09647,0.9765 -0.24962,1.44809l0.23029,0.04097l-0.31376,1.76342c-0.09482,0.59636 -0.61139,1.05218 -1.23444,1.05218c-0.43068,0 -0.81048,-0.2178 -1.03527,-0.54927c-0.22501,0.21808 -0.53177,0.35232 -0.86987,0.35232c-0.62742,0 -1.14687,-0.46225 -1.23637,-1.06477l-0.31415,-1.88487l0.03454,-0.00576l-0.04729,-0.09664c0.00218,-1.49725 -0.32159,-2.8361 -0.61503,-4.30329c0,0 -0.24515,-1.22573 0.98058,-1.47087c0.84737,-0.16947 1.2261,0.36402 1.37917,0.70952c0.027,-0.13205 0.05279,-0.26517 0.07682,-0.39945l0.08044,-1.67725c0.02763,-0.66591 0.57621,-1.19728 1.24891,-1.19728c0.61444,0 1.12533,0.44333 1.23027,1.02756l0.31298,1.56491l-0.35965,0.07193l-0.00059,0.01235c0.2193,0.70897 0.31788,1.3795 0.36054,2.1227z" fill="#bd00f2" stroke="none" stroke-width="0.5" stroke-linecap="butt"></path><path d="M333.673,196.64634l0.04208,0.33135l1.3917,0.00628c0.68809,0.00266 1.24507,0.56128 1.24507,1.24999c0,0.69036 -0.55964,1.25 -1.25,1.25h-1.58762v-0.00716l-0.06514,-0.00029l0.00021,-0.04637c-0.02004,0.00199 -0.04012,0.00375 -0.06024,0.00526l-0.01481,0.03853c-0.09035,-0.01124 -0.18058,-0.0228 -0.2707,-0.03466c-0.10689,-0.0059 -0.21216,-0.02074 -0.3161,-0.04288c-5.16384,-0.72148 -9.97084,-2.40941 -15.07703,-3.42946c0,0 -1.22573,-0.24515 -0.98058,-1.47087c0.24515,-1.22573 1.47087,-0.98058 1.47087,-0.98058c3.19697,0.64011 6.27651,1.55543 9.40243,2.31852c0.1917,-0.44424 0.63366,-0.75517 1.14824,-0.75517c0.03992,0 0.07941,0.00187 0.11837,0.00553l2.4768,0.2064l-0.01442,0.17299c0.65754,-0.04488 1.33205,-0.06226 2.15185,-0.0664c0.0195,-0.001 0.03025,-0.001 0.03025,-0.001l0.00011,0.00085c0.1034,-0.00048 0.20912,-0.00075 0.31742,-0.00085z" fill="#bd00f2" stroke="none" stroke-width="0.5" stroke-linecap="butt"></path><path d="M306.98587,185.24138c1.10636,0.09189 1.10636,1.2442 1.10636,1.2442l-0.02427,0.88019c-0.11292,0.56279 -0.29742,1.1054 -0.52775,1.63262l0.1864,0.05326l-0.62746,2.1961c-0.14026,0.53693 -0.62861,0.93317 -1.2095,0.93317c-0.69036,0 -1.25,-0.55964 -1.25,-1.25v-1.35048c0,-0.15239 -0.00927,-0.31986 -0.02436,-0.49829c-1.36927,0.85504 -2.4084,-0.0977 -3.05573,-1.55l-0.14531,1.01716c-0.07792,0.61548 -0.6034,1.09142 -1.24004,1.09142c-0.69036,0 -1.25,-0.55964 -1.25,-1.25v-2.5h0.19152c-0.11691,-0.68973 -0.18656,-1.38422 -0.18406,-2.08173l0.05721,-0.12701l-0.03491,-0.00776l0.53699,-2.41643c0.01376,-0.06862 0.03314,-0.13522 0.05764,-0.19928c0.00704,-0.30718 0.01081,-0.61491 0.01065,-0.92341c0,0 0,-1.25 1.25,-1.25c1.25,0 1.25,1.25 1.25,1.25c-0.00018,0.38943 -0.00616,0.7777 -0.0168,1.1652l0.80114,1.38372l-0.01418,0.00821c0.02441,0.03458 0.04845,0.06946 0.07209,0.10466c0.47626,0.70902 0.82728,1.51598 1.05278,2.35441c0.04588,-0.16619 0.0905,-0.3326 0.13056,-0.49984l0.0311,-0.03966l-0.0159,-0.00567l0.60252,-1.68849c0.16465,-0.49798 0.6339,-0.8573 1.18707,-0.8573c0.69036,0 1.25,0.55964 1.25,1.25v1.2701h-0.26465c0.04362,0.22193 0.0802,0.44168 0.11086,0.66095z" fill="#bd00f2" stroke="none" stroke-width="0.5" stroke-linecap="butt"></path><path d="M283.81754,196.03366l0.09778,-0.02444c-0.28396,-0.22914 -0.4656,-0.58001 -0.4656,-0.9733c0,-0.58665 0.40413,-1.07891 0.94918,-1.21357l1.06684,-0.28912c-1.19632,-0.23088 -2.31778,-0.54692 -3.46687,-1.01382l-0.08577,0.30021l-2.37724,-0.67921c-0.53693,-0.14026 -0.93317,-0.62861 -0.93317,-1.2095c0,-0.69036 0.55964,-1.25 1.25,-1.25h1.2701c2.57596,0.00783 5.02554,0.63956 7.62057,0.63505c0,0 1.25,0 1.25,1.25c0,0.00457 -0.00002,0.00913 -0.00005,0.01367c0.05875,0.00582 0.11707,0.01118 0.17493,0.01605l0.04775,0.0252l0.00297,-0.01781l1.88487,0.31415c0.60252,0.0895 1.06477,0.60895 1.06477,1.23637c0,0.64351 -0.48627,1.17345 -1.11141,1.2424l-2.42796,0.30349c-0.2398,0.10042 -0.47984,0.20027 -0.72015,0.29945c0.10226,0.00947 0.20402,0.01902 0.30511,0.02821l0.07311,0.04818l0.00753,-0.03197l1.6155,0.38047c0.56465,0.12035 0.98817,0.62198 0.98817,1.22253c0,0.22034 -0.05701,0.42736 -0.15708,0.60712c0.28912,0.22895 0.4746,0.58307 0.4746,0.9805c0,0.32667 -0.12531,0.62407 -0.33048,0.84675c-0.1325,1.03829 -1.23705,1.03829 -1.23705,1.03829h-1.2701c-2.25385,0 -3.7235,-0.09668 -5.29779,-0.54193l-0.04192,0.27249l-2.45174,-0.37719c-0.60951,-0.08332 -1.07911,-0.60603 -1.07911,-1.23842c0,-0.69036 0.55964,-1.25 1.25,-1.25h1.11646c0.10332,-0.47162 0.47291,-0.84357 0.94324,-0.9503z" fill="#bd00f2" stroke="none" stroke-width="0.5" stroke-linecap="butt"></path><path d="M295.19086,196.87896c0,-4.47177 3.62509,-8.09686 8.09686,-8.09686c4.47177,0 8.09686,3.62509 8.09686,8.09686c0,4.47177 -3.62509,8.09686 -8.09686,8.09686c-4.47177,0 -8.09686,-3.62509 -8.09686,-8.09686z" fill="#ffffff" stroke="#000000" stroke-width="1" stroke-linecap="butt"></path><path d="M217.09442,165.86414l9,1v8" fill="none" stroke="#000000" stroke-width="1.5" stroke-linecap="round"></path><path d="M232.53458,174.67753v-8l9,-1" data-paper-data="{&quot;index&quot;:null}" fill="none" stroke="#000000" stroke-width="1.5" stroke-linecap="round"></path><path d="M230.98851,198.04897c0,0 0.3445,-8.61004 5.78628,-9.03188c5.30472,-0.41122 12.46372,8.03188 12.46372,8.03188z" fill="#040404" stroke="#000000" stroke-width="1.5" stroke-linecap="round"></path><path d="M200.73697,171.0911c0,-18.19082 17.29485,-32.9374 38.62913,-32.9374c21.33428,0 38.62913,14.74658 38.62913,32.9374c0,11.22687 -2.48212,24.8741 -12.54127,30.82016c-0.42004,0.24829 -5.31543,2.90997 -5.31543,2.90997l-0.22453,13.91683l-12.57806,0.95271l-0.50527,-15.47565l0.06963,15.5724l-14.72842,0.20478l-0.46155,-15.93384l0.80812,15.80985l-16.17468,-0.08649c0,0 0.11388,-16.75516 -0.28778,-16.80951c-2.62384,-0.355 -2.02116,-0.00099 -3.86634,-0.93632c-11.32682,-5.74167 -11.45268,-18.89377 -11.45268,-30.94489z" fill="#ffffff" stroke="#000000" stroke-width="2" stroke-linecap="butt"></path><path d="M243.83743,171.09869c0,5.92619 -3.30023,10.73031 -7.37126,10.73031c-4.07103,0 -7.37126,-4.80413 -7.37126,-10.73031c0,-5.92619 -0.9919,-11.10354 3.07913,-11.10354c3.22238,0 10.77427,7.53515 10.77427,7.53515c0,0 0.88912,2.33301 0.88912,3.56839z" fill="#ababab" stroke="#000000" stroke-width="1" stroke-linecap="butt"></path><path d="M261.57705,161.07621c4.07103,0 3.07913,5.17736 3.07913,11.10354c0,5.92619 -3.30022,10.73032 -7.37126,10.73032c-4.07103,0 -7.37126,-4.80413 -7.37126,-10.73032c0,-1.23538 0.88912,-3.56839 0.88912,-3.56839c0,0 7.55188,-7.53515 10.77427,-7.53515z" data-paper-data="{&quot;index&quot;:null}" fill="#ababab" stroke="#000000" stroke-width="1" stroke-linecap="butt"></path><path d="" data-paper-data="{&quot;index&quot;:null}" fill="none" stroke="#000000" stroke-width="1.5" stroke-linecap="round"></path><path d="" data-paper-data="{&quot;index&quot;:null}" fill="none" stroke="#000000" stroke-width="1.5" stroke-linecap="round"></path><path d="" data-paper-data="{&quot;index&quot;:null}" fill="none" stroke="#000000" stroke-width="1.5" stroke-linecap="round"></path><path d="" data-paper-data="{&quot;index&quot;:null}" fill="none" stroke="#000000" stroke-width="1.5" stroke-linecap="round"></path><path d="" data-paper-data="{&quot;index&quot;:null}" fill="none" stroke="#000000" stroke-width="1.5" stroke-linecap="round"></path><path d="" data-paper-data="{&quot;index&quot;:null}" fill="none" stroke="#000000" stroke-width="1.5" stroke-linecap="round"></path><path d="" data-paper-data="{&quot;index&quot;:null}" fill="none" stroke="#000000" stroke-width="1.5" stroke-linecap="round"></path><path d="" data-paper-data="{&quot;index&quot;:null}" fill="none" stroke="#000000" stroke-width="1.5" stroke-linecap="round"></path><path d="" data-paper-data="{&quot;index&quot;:null}" fill="none" stroke="#000000" stroke-width="1.5" stroke-linecap="round"></path><path d="" data-paper-data="{&quot;index&quot;:null}" fill="none" stroke="#000000" stroke-width="1.5" stroke-linecap="round"></path><path d="M152.30512,196.24391c0,-4.99786 4.05157,-9.04943 9.04943,-9.04943c4.99786,0 9.04943,4.05157 9.04943,9.04943c0,4.99786 -4.05157,9.04943 -9.04943,9.04943c-4.99786,0 -9.04943,-4.05157 -9.04943,-9.04943z" fill="#ffffff" stroke="#000000" stroke-width="1" stroke-linecap="butt"></path><path d="M164.30372,184.41769c-0.07776,-0.92461 -0.24406,-1.85752 -0.36734,-2.78255v1.35767h-0.00238c-0.00074,0.03718 -0.00166,0.07436 -0.00274,0.11152l0.00466,0.1722l-0.01089,0.00029c-0.01427,0.33128 -0.04166,0.66203 -0.08034,0.99197c0.04629,0.32793 0.07619,0.65724 0.08707,0.98687h0.00461v0.33812c0.00621,0.09102 0.01191,0.18212 0.01713,0.2733c0.20283,0.03877 0.40661,0.08026 0.61069,0.12387c0.00014,-0.00046 0.00029,-0.00091 0.00043,-0.00137l-0.25353,-1.52119l0.01478,-0.00246zM163.79186,180.06333c-0.08747,0.14145 -0.17679,0.27921 -0.26807,0.4138c0.1464,0.13219 0.26138,0.29853 0.33236,0.48646c-0.03102,-0.30155 -0.05399,-0.60183 -0.06429,-0.90027zM166.86513,205.3929c-0.00347,-0.12683 -0.00389,-0.25422 0.00043,-0.38114c-0.0434,0.0584 -0.09178,0.11289 -0.1445,0.16283c0.04967,0.06759 0.09758,0.14045 0.14408,0.21831zM167.13977,203.76767l-0.01856,-0.00557l0.2693,-0.89767c-0.08544,0.00494 -0.17103,0.00989 -0.25677,0.01483c-0.005,0.04033 -0.01,0.08058 -0.01501,0.12074l-0.00461,0.82442c0.00847,-0.01896 0.01702,-0.03788 0.02565,-0.05675zM160.81923,184.07286c-0.05981,0.07759 -0.12854,0.14795 -0.20465,0.20956c0.14847,0.27667 0.26298,0.57897 0.35222,0.89855c0.01477,-0.01149 0.0298,-0.02266 0.04509,-0.03349c0.05149,-0.31458 0.09238,-0.64267 0.11157,-0.99166l0.01295,-0.02984l-0.0099,-0.0011l0.05734,-0.51607zM174.24481,196.40239c-0.38446,0.08959 -0.72995,0.09995 -1.05634,0.05206c-0.31607,0.00657 -0.66998,-0.00458 -1.05005,-0.04623c-0.48924,0.20568 -1.05951,0.30686 -1.61491,0.39615c0.006,0.15597 0.01126,0.31183 0.0157,0.46766l1.99786,-0.19979c0.8076,-0.34337 1.36251,-0.55095 1.70775,-0.66985zM146.38967,192.87469c0.52341,0.18525 1.02946,0.34766 1.52466,0.4972c0.16314,-0.15268 0.33614,-0.29631 0.50371,-0.42678c-0.75466,-1.00769 -0.85231,-2.03531 -0.48456,-2.9672c-0.16863,-0.01121 -0.33314,-0.01826 -0.49259,-0.01967h-1.58328c-0.69036,0 -1.25,-0.55964 -1.25,-1.25c0,-0.69036 0.55964,-1.25 1.25,-1.25h1.58762v0.00471l0.00598,-0.00469c0.21537,0.00226 0.45677,0.00175 0.71838,0.00103c0.3295,-0.05051 0.66874,-0.0635 1.02934,-0.05993c0.27065,-0.30996 0.6902,-0.21405 1.12096,0.03805c0.08815,0.00341 0.17779,0.00665 0.26903,0.00952c0.81388,-0.32778 1.65733,-0.39604 2.50214,-0.32488c0.56344,-3.11151 1.36144,-6.18364 1.36406,-9.31271l0.04789,-0.09654l-0.03514,-0.00586l0.31415,-1.88487c0.0895,-0.60252 0.60895,-1.06477 1.23637,-1.06477c0.59488,0 1.0927,0.41555 1.21902,0.9722l0.31118,1.24473l-0.25103,0.06276c0.13438,0.29336 0.25558,0.58614 0.36763,0.88163c0.13837,-0.53971 0.62805,-0.93864 1.21091,-0.93864c0.59488,0 1.0927,0.41555 1.21902,0.9722l0.31118,1.24473l-0.3337,0.08342c0.17779,0.45207 0.32489,0.91542 0.43594,1.38485l0.03391,0.02664c0.56378,-1.22663 1.40392,-2.2173 1.95715,-3.61106l0.03614,-0.03744l-0.01482,-0.00741l0.62294,-1.24587c0.20043,-0.42281 0.63114,-0.7152 1.13014,-0.7152c0.60575,0 1.11087,0.43088 1.22557,1.00287l0.53699,2.41643l-0.21927,0.04873c0.28142,0.90022 0.48399,1.78013 0.63953,2.73729c0.22848,-0.29785 0.58802,-0.48989 0.99241,-0.48989c0.41416,0 0.78127,0.20142 1.00873,0.51164l0.56887,0.7585c0.00334,-0.00003 0.00668,-0.00004 0.01002,-0.00004c0.69036,0 1.25,0.55964 1.25,1.25v1.90514h-0.31335c0.08463,0.72161 0.1289,1.43276 0.1536,2.14459c0.23287,0.04574 0.45042,0.08236 0.6501,0.10754c1.3929,0.17563 3.77184,-0.60935 4.93613,0.48653c0.70012,0.65898 1.88923,1.66908 1.42213,2.50946c-0.176,0.31665 -1.74533,0.77396 -3.39605,1.18136c0.36457,0.084 0.70156,0.18128 0.99667,0.29548c1.02235,0.3956 2.64077,0.58109 2.83945,1.65916c0.09671,0.52473 -0.21752,0.9872 -0.67014,1.38057c0.39713,0.40598 0.65075,0.98455 0.67554,1.81572c0.01542,0.51693 -0.84456,1.14398 -1.82086,1.66587c0.33734,0.22385 0.55974,0.6071 0.55974,1.0423c0,0.33277 -0.13003,0.63517 -0.34206,0.85915c0.15271,0.20729 0.24296,0.46344 0.24296,0.74066c0,0.64426 -0.4874,1.17468 -1.11359,1.24264l-2.46503,0.30333l-0.00284,-0.02309l-0.07335,0.03011c-0.7289,0.00066 -1.4915,0.02206 -2.27905,0.05517v1.87241c0,0.53765 -0.33944,0.99602 -0.81571,1.17249c0.00811,1.31283 -0.42645,2.58497 -1.82168,2.91908c-0.91343,0.21874 -2.02985,-2.09806 -2.50595,-1.28841c-0.3804,0.6469 -0.25569,1.50149 -0.57209,2.17916v1.05063c0,0.69036 -0.55964,1.25 -1.25,1.25c-0.61444,0 -1.12533,-0.44333 -1.23027,-1.02756l-0.11955,-0.59775c-0.22528,0.21979 -0.53325,0.35522 -0.87285,0.35522c-0.38218,0 -0.7243,-0.17151 -0.95359,-0.44177l-0.37196,1.39331c-0.13308,0.54728 -0.62642,0.9536 -1.21465,0.9536c-0.5623,0 -1.03788,-0.37128 -1.19497,-0.88206l-0.78145,-2.34436l0.00715,-0.00238c-0.31009,-0.67681 -0.51519,-1.40346 -0.53153,-2.24655c-0.01268,-0.07141 -0.01929,-0.14492 -0.01929,-0.21998v-1.08598c-0.3111,0.42729 -0.53811,1.22384 -0.93886,1.03326c-0.44618,-0.21218 -0.74209,-0.59781 -0.98585,-1.04363c-0.22928,0.26993 -0.57119,0.4412 -0.95311,0.4412c-0.69036,0 -1.25,-0.55964 -1.25,-1.25v-1.32579c-0.50264,-0.12268 -0.88616,-0.5493 -0.94478,-1.07407c-0.16461,-0.09165 -0.30636,-0.21941 -0.41454,-0.37257c-0.46742,-0.09573 -0.93309,-0.20576 -1.40099,-0.33111l-0.03198,0.23453l-2.4595,-0.33539c-0.619,-0.07469 -1.09869,-0.60179 -1.09869,-1.24093c0,-0.56699 0.37749,-1.0458 0.89486,-1.19883l1.7666,-0.56761l0.00075,0.00233l0.00664,-0.00468c0.02009,-0.00613 0.04038,-0.01246 0.06086,-0.01896l-0.57755,-0.19252c-0.51078,-0.15709 -0.88206,-0.63267 -0.88206,-1.19497c0,-0.499 0.2924,-0.92971 0.7152,-1.13014l0.29407,-0.14704c-0.23929,-0.07243 -0.48516,-0.15632 -0.74028,-0.2477l-0.02493,0.1122l-2.41643,-0.53699c-0.57199,-0.11471 -1.00287,-0.61982 -1.00287,-1.22557c0,-0.69036 0.55964,-1.25 1.25,-1.25h1.2701v0.10469zM163.07574,203.07411c-0.10596,0.6306 -0.23465,1.24803 -0.39006,1.84794c0.00023,0 0.00047,0 0.0007,0c0.40143,0 0.75866,0.18923 0.98736,0.48335c0.39801,-0.2672 0.74842,-0.46528 1.05929,-0.60042c-0.07784,-0.16297 -0.12142,-0.34543 -0.12142,-0.53807v-1.25242c-0.51079,0.02366 -1.02337,0.04418 -1.53588,0.05962zM156.20122,202.98513c-0.00023,-0.00247 -0.00047,-0.00495 -0.0007,-0.00742c-0.03793,-0.06685 -0.06987,-0.13753 -0.0951,-0.21133c-0.14236,-0.02214 -0.28393,-0.04556 -0.42465,-0.07031v0.93579h-0.0285c0.0243,1.74098 -0.11104,-0.05342 0.54895,-0.64673zM168.06092,196.8365c-0.11951,-0.0184 -0.24103,-0.03834 -0.36327,-0.05953c-0.04338,0.8196 -0.10217,1.632 -0.17151,2.42964h0.52386c0.02677,-0.79145 0.02672,-1.58103 0.01091,-2.37012zM155.93951,198.08992c-0.00198,-0.10889 -0.00257,-0.21657 -0.00135,-0.32315c-0.06785,0.03366 -0.1392,0.06135 -0.21335,0.08236c0.08147,0.07059 0.15372,0.15154 0.21471,0.24079zM158.75822,207.37614c0.07965,-0.1308 0.16152,-0.26042 0.24542,-0.38885l-0.26963,-0.14865l0.3752,-0.68055c-0.081,-0.35615 -0.16744,-0.70852 -0.25824,-1.05813l-0.18939,1.09939c0.05082,0.38979 0.08255,0.78752 0.09664,1.17678zM167.92859,193.44731c-0.00157,-0.00252 -0.00314,-0.00504 -0.0047,-0.00757l-0.14695,-0.02092c0.00229,0.25462 0.00248,0.50954 0.00073,0.76452c0.0613,0.00296 0.12359,0.00561 0.18665,0.00799c-0.01169,-0.24789 -0.02371,-0.49588 -0.03572,-0.74402zM167.80922,190.5574c-0.00871,-0.31814 -0.01526,-0.63678 -0.01895,-0.956c-0.07829,-0.01722 -0.1562,-0.03441 -0.2337,-0.05154c0.03914,0.34877 0.07258,0.70043 0.10073,1.05433c0.05062,-0.01574 0.10126,-0.03134 0.15193,-0.04679zM155.82677,200.09878c0.06706,-0.01127 0.1343,-0.02224 0.20173,-0.03291c-0.0073,-0.22707 -0.01789,-0.44814 -0.02927,-0.66387c-0.17977,0.32246 -0.49816,0.55709 -0.87458,0.62328c0.24704,0.00046 0.48066,0.02016 0.70212,0.0735zM151.86897,190.31817c0.12471,0.04591 0.25276,0.08238 0.38328,0.1118c0.05242,-0.05544 0.10987,-0.10609 0.17161,-0.15121c-0.18131,0.02138 -0.36663,0.03395 -0.55488,0.03941zM167.67167,186.76027c0.00319,-0.37622 0.04384,-0.73246 0.1617,-1.06628c-0.09101,-0.04655 -0.17556,-0.10393 -0.25196,-0.17044l-0.15227,0.30453v0.8681c0.08135,0.02149 0.1622,0.04286 0.24252,0.06409z" fill="#9b00c4" stroke="none" stroke-width="0.5" stroke-linecap="butt"></path><path d="M305.6021,199.91311c-0.4178,-0.00507 -0.83513,-0.01383 -1.25176,-0.02722l0.00834,0.02917c0.07491,-0.014 0.15217,-0.02133 0.23114,-0.02133c0.30806,0 0.5901,0.11144 0.80799,0.29621c0.04657,-0.09343 0.14116,-0.19281 0.20429,-0.27684zM294.79642,188.48165v-1.04351c0,-0.69036 0.55964,-1.25 1.25,-1.25c0.52567,0 0.97555,0.32448 1.16028,0.78408l0.5876,1.37106c0.38196,-0.01368 0.76402,-0.02563 1.14608,-0.03559c0.41201,-1.27885 1.17742,-3.64737 1.25756,-3.89542l0.33429,-1.64542c0.10635,-0.5825 0.61643,-1.02404 1.22963,-1.02404c0.64884,0 1.18221,0.49435 1.24402,1.12695l0.12168,1.09516c0.02975,0.00239 0.05983,0.00489 0.09023,0.00751c2.98447,0.25716 2.55111,2.57563 2.67929,4.43397c3.34436,0.21229 6.63837,0.7051 9.80896,1.6597l0.04323,-0.21616l2.42874,0.48575c0.58424,0.10493 1.02756,0.61583 1.02756,1.23027c0,0.4457 -0.23326,0.83691 -0.58437,1.05823l-1.05062,0.6848l-0.05733,-0.08795l-0.18649,0.21123c-0.12279,0.01858 -0.24927,0.03876 -0.37913,0.06031c0.02305,0.09491 0.03527,0.19405 0.03527,0.29605c0,0.3 -0.10568,0.57531 -0.28185,0.79074c1.97336,0.27718 3.92876,0.60192 5.83271,1.13696l0.04392,-0.30743l2.20447,0.31492c0.61548,0.07792 1.09142,0.6034 1.09142,1.24004c0,0.58563 -0.40272,1.07719 -0.94634,1.21286c0.41952,0.04669 0.83924,0.09333 1.25919,0.14012c1.61881,0.18039 2.98054,0.11374 4.21776,0.56857c0.61312,0.00244 1.22642,0.00368 1.83996,0.00368h1.2701c0.69036,0 1.25,0.55964 1.25,1.25c0,0.69036 -0.55964,1.25 -1.25,1.25h-2.5v-0.00162c-1.18524,-0.00311 -2.36974,-0.01068 -3.55381,-0.02237c0.00051,0.01463 0.00076,0.02933 0.00076,0.04409c0,0.69036 -0.55964,1.25 -1.25,1.25h-1.1957c-4.69503,0.7476 -9.68786,0.61977 -14.59222,0.45118c-0.12132,3.42618 -0.51184,6.87775 -0.81859,10.25752c0.10345,1.15952 0.24108,2.39017 -0.24232,3.07624l-0.00003,1.79385v0c-0.00001,0.69035 -0.55965,1.24998 -1.25,1.24998c-0.69036,0 -1.25,-0.55964 -1.25,-1.25v-1.2701h0.00002l0.00001,-0.63557h0.07597l-0.07526,-0.04203c0.0314,-0.46786 0.06534,-0.9359 0.10107,-1.4041c-0.12914,-2.19729 0.17119,-4.44117 0.21591,-6.83128c0.00292,-0.15597 0.00395,-0.31162 0.00334,-0.46699c-0.22907,0.28603 -0.58125,0.4692 -0.9762,0.4692c-0.61444,0 -1.12533,-0.44333 -1.23027,-1.02756l-0.30274,-1.51372c-0.16477,-0.51916 -0.27136,-1.06815 -0.30705,-1.61996l-0.01165,-0.00666l-0.01262,0.18389c-0.67558,0.43939 -1.26903,1.36834 -1.97054,1.65319c-0.0081,0.02298 -0.01626,0.04594 -0.02448,0.06888l0.29839,0.08526l-0.62746,2.1961c-0.14026,0.53693 -0.62861,0.93317 -1.2095,0.93317c-0.5623,0 -1.03788,-0.37128 -1.19497,-0.88206l-0.55585,-1.66756c-0.05057,0.00623 -0.10207,0.00943 -0.15432,0.00943c-0.69036,0 -1.25,-0.55964 -1.25,-1.25v-1.01423c-0.22018,-0.33429 -0.44674,-0.68229 -0.6707,-1.03953c-2.20713,-0.10718 -4.38001,-0.36359 -6.46781,-0.88918c-0.01207,0.00068 -0.02414,0.00135 -0.03621,0.00203l-0.04544,0.36353l-2.46424,-0.30803c-0.60173,-0.06637 -1.0748,-0.55986 -1.10938,-1.17063l-0.79576,-0.09947c-0.62514,-0.06895 -1.11141,-0.59889 -1.11141,-1.2424c0,-0.69036 0.55964,-1.25 1.25,-1.25h0.20533c-0.11746,-0.1905 -0.18523,-0.41491 -0.18523,-0.65514c0,-0.46667 0.25573,-0.87361 0.6347,-1.08832l1.20838,-0.71333c-0.40377,-0.0696 -0.8071,-0.14838 -1.21022,-0.23752c-0.0474,0.00564 -0.09485,0.01133 -0.14237,0.01707l-0.02338,0.29224l-2.48067,-0.19845c-0.64915,-0.04531 -1.16169,-0.58626 -1.16169,-1.24693c0,-0.39744 0.18548,-0.75155 0.4746,-0.9805c-0.10007,-0.17976 -0.15708,-0.38678 -0.15708,-0.60712c0,-0.62742 0.46225,-1.14687 1.06477,-1.23637l1.60184,-0.26697l-1.49537,-0.10681c-0.65366,-0.04064 -1.17124,-0.58366 -1.17124,-1.24756c0,-0.69036 0.55964,-1.25 1.25,-1.25h1.24355c2.91986,-0.16638 5.91656,-0.39809 8.93731,-0.56421zM302.65132,191.87426c-0.79229,0.22153 -1.58461,0.43389 -2.37384,0.66192c-0.00416,0.00633 -0.00832,0.01264 -0.01248,0.01893c0.81468,0.01388 1.64151,0.06534 2.43659,0.12189c0.21244,-0.25797 0.52627,-0.42931 0.88052,-0.45306l1.57479,-0.12114c-0.06113,-0.08154 -0.12225,-0.16086 -0.18293,-0.23941h-0.98946c-0.44257,0 -0.8871,0.00403 -1.3332,0.01087zM290.50029,197.6987c1.01915,-0.01948 2.04894,0.0497 3.07485,0.14927c-0.22634,-0.22622 -0.36634,-0.53882 -0.36634,-0.88411c0,-0.00355 0.00001,-0.00709 0.00004,-0.01063c-0.90317,0.16473 -1.80558,0.39366 -2.70855,0.74548zM303.45739,188.29889c-0.0364,-0.09864 -0.07189,-0.19713 -0.10473,-0.2947l-0.14314,0.28628c-0.00038,0.00081 -0.00077,0.00161 -0.00115,0.00242c0.08303,0.00186 0.16604,0.00386 0.24902,0.00601z" fill="#9b00c4" stroke="none" stroke-width="0.5" stroke-linecap="butt"></path><path d="M163.89356,197.48261c-0.17005,1.37509 -0.47183,3.48441 -0.73989,3.62941c-1.19776,0.64787 -6.61413,-0.90114 -7.83031,-2.9179c-0.18511,0.19174 -0.46609,0.33727 -0.89259,0.33727c-1.25,0 -1.25,-1.25 -1.25,-1.25c0.00637,-0.49999 0.04166,-1.03402 0.10162,-1.59295c-1.08026,-0.34907 -1.63993,-1.15429 -0.09897,-3.05275c0.19313,-0.23793 0.44074,-0.40051 0.71935,-0.51972c0.69696,-3.06143 1.78693,-6.28451 2.76499,-8.57997c0.65007,-1.52567 1.70311,-3.23739 3.8617,-1.8958c0.72292,0.4493 0.85855,1.48191 1.13803,2.28588c0.28977,0.83361 0.56586,1.69848 0.82571,2.57581c0.22053,-0.19524 0.51054,-0.31376 0.82824,-0.31376c0.31207,0 0.59742,0.11436 0.81645,0.30345l0.65326,-0.22552c0.13559,-0.05039 0.2823,-0.07793 0.43543,-0.07793c0.69036,0 1.25,0.55964 1.25,1.25c0,0.46331 -0.25206,0.86774 -0.62653,1.08365l-1.31329,0.78797c-0.00193,0.01788 -0.00394,0.03575 -0.00603,0.05361h0.37832c0.69036,0 1.25,0.55964 1.25,1.25c0,0.41793 -0.20511,0.78796 -0.52015,1.01492c0.15499,0.11293 0.26786,0.24117 0.32523,0.38356c0.27238,0.67602 -0.2862,1.62716 -1.14737,2.61384l1.16433,-0.16633c0.06451,-0.01027 0.13066,-0.0156 0.19806,-0.0156c0.69036,0 1.25,0.55964 1.25,1.25c0,0.62742 -0.46225,1.14687 -1.06477,1.23637l-1.88487,0.31415l-0.00733,-0.04397l-0.00007,0.00001c-0.19137,0.0973 -0.38414,0.1916 -0.57854,0.28229zM160.11555,188.03509c-0.18664,-0.49969 -0.37023,-1.00037 -0.53151,-1.50758c-0.19745,-0.62098 -0.21994,-1.28455 -0.32409,-1.92778c-0.04532,-0.27989 -0.01526,-1.12701 -0.06588,-0.84804c-0.29999,1.65331 -0.88902,3.36829 -1.50044,5.09932l0.81675,-0.3267l0.10012,0.2503c0.49442,-0.2671 0.9896,-0.50883 1.50505,-0.73952zM161.58405,199.16618c0.21374,-0.04443 -0.25347,-0.32851 -0.3402,-0.55979l-0.53725,0.26862c0.36637,0.20604 0.68033,0.33214 0.87745,0.29117zM157.97659,197.19041c0.06586,0.01724 0.14121,0.04652 0.22441,0.08562l0.54288,-0.37992c-0.61834,0.12487 -0.99509,0.23468 -0.76729,0.2943zM159.1618,193.28613c-0.02481,0.00805 -0.04963,0.01608 -0.07446,0.02408c0.03813,0.00407 0.07628,0.0083 0.11445,0.01269c-0.01337,-0.01204 -0.02671,-0.0243 -0.04,-0.03677z" fill="#da7af5" stroke="none" stroke-width="0.5" stroke-linecap="butt"></path><path d="M304.62405,190.71883c1.4717,-0.10892 2.98983,-0.13862 3.77547,0.26562c0.08577,0.04413 0.16862,0.09242 0.24896,0.14426l0.02287,-0.04574l1.24587,0.62294c0.42281,0.20043 0.7152,0.63114 0.7152,1.13014c0,0.64827 -0.49348,1.18127 -1.12528,1.24386l-0.61138,0.06884c0.09508,0.17632 0.14904,0.37808 0.14904,0.59245c0,0.69036 -0.55964,1.25 -1.25,1.25h-0.20533c0.11746,0.1905 0.18523,0.41491 0.18523,0.65514c0,0.04544 -0.00242,0.0903 -0.00715,0.13449c0.40813,0.04396 0.76052,0.08321 1.09168,0.15717c0.38045,0.02865 0.74191,0.04596 1.07785,0.04596h2.30305c0.69036,0 1.25,0.55964 1.25,1.25c0,0.69036 -0.55964,1.25 -1.25,1.25l-2.5,0l0,-0.00016c-3.3436,-0.00539 -5.99799,-0.15406 -8.7662,-0.99386c-0.14634,-0.01966 -0.29279,-0.0393 -0.43937,-0.05884l-0.04352,0.22847l-2.43378,-0.46358c-0.11478,-0.01959 -0.22421,-0.05483 -0.32604,-0.10344c-1.17115,-0.118 -2.35316,-0.19705 -3.54975,-0.19621c0,0 -1.31029,0 -1.31029,0c-0.69036,0 -1.25,-0.55964 -1.25,-1.25c0,-0.16567 0.03223,-0.32381 0.09076,-0.4685c-0.4215,-0.05132 -0.83732,-0.11306 -1.2462,-0.18665c-0.48168,0 -0.96336,0 -1.44504,0l-2.5,0c-0.69036,0 -1.25,-0.55964 -1.25,-1.25c0,-0.69036 0.55964,-1.25 1.25,-1.25c0.06565,0 2.43435,0 2.5,0c0.48168,0 0.96336,0 1.44504,0c2.5845,-0.46514 5.44638,-0.45689 8.26523,-0.33659c-0.27026,-0.22929 -0.44179,-0.57141 -0.44179,-0.9536c0,-0.59488 0.41555,-1.0927 0.9722,-1.21902l1.24473,-0.31118l0.07005,0.2802h0.48583c0.65231,-0.23357 1.3209,-0.42615 1.98431,-0.59773l0.62069,-0.03732c0,0 0.5876,0 0.95705,0.40287z" fill="#da7af5" stroke="none" stroke-width="0.5" stroke-linecap="butt"></path><path d="M159.11552,195.98119l0.24249,0.27713l-1.87688,1.64227c-0.22046,0.19495 -0.51026,0.31327 -0.82769,0.31327c-0.69036,0 -1.25,-0.55964 -1.25,-1.25v-1.2701l0.0712,0l-0.05506,-0.20023c0.93753,-2.90331 1.02586,-5.33791 3.80296,-5.98909l0.00481,-0.02887c0.0895,-0.60252 0.60895,-1.06477 1.23637,-1.06477c0.69036,0 1.25,0.55964 1.25,1.25v1.90514l-0.12997,0l0.0949,0.29403c-0.20873,0.424 -0.39753,0.80715 -0.57489,1.15707c-0.00826,0.13065 -0.02477,0.25864 -0.04936,0.38167l-0.31298,1.56491c-0.10493,0.58424 -0.61583,1.02756 -1.23027,1.02756c-0.12298,0 -0.24181,-0.01776 -0.35407,-0.05085c-0.01377,0.01364 -0.02762,0.02725 -0.04156,0.04085z" fill="#e6b0f5" stroke="none" stroke-width="0.5" stroke-linecap="butt"></path><path d="M303.98452,194.12624c0,0 1.25,0 1.25,1.25c0,0.05533 -0.00245,0.10822 -0.00713,0.15876c0.00468,0.05054 0.00713,0.10343 0.00713,0.15876c0,1.25 -1.25,1.25 -1.25,1.25h-0.95257c-1.8636,0 -3.2996,0.00623 -4.75288,-0.19395c-0.21471,0.01295 -0.42969,0.02725 -0.64503,0.04304v0.15091h-1.90514c-0.69036,0 -1.25,-0.55964 -1.25,-1.25c0,-0.65973 0.5111,-1.2001 1.15895,-1.24673l1.34726,-0.1111c2.34681,-0.19255 4.64691,-0.20969 6.99942,-0.20969z" fill="#e6b0f5" stroke="none" stroke-width="0.5" stroke-linecap="butt"></path></g></g></svg>