<svg version="1.1" xmlns="http://www.w3.org/2000/svg" xmlns:xlink="http://www.w3.org/1999/xlink" width="193.45166" height="83.8522" viewBox="0,0,193.45166,83.8522"><g transform="translate(-199.73697,-137.15371)"><g data-paper-data="{&quot;isPaintingLayer&quot;:true}" fill-rule="nonzero" stroke-linejoin="miter" stroke-miterlimit="10" stroke-dasharray="" stroke-dashoffset="0" style="mix-blend-mode: normal"><path d="M217.09442,165.86415l9,1v8" fill="none" stroke="#000000" stroke-width="1.5" stroke-linecap="round"></path><path d="M232.53458,174.67754v-8l9,-1" data-paper-data="{&quot;index&quot;:null}" fill="none" stroke="#000000" stroke-width="1.5" stroke-linecap="round"></path><path d="M230.98851,198.04899c0,0 0.3445,-8.61004 5.78628,-9.03188c5.30472,-0.41122 12.46372,8.03188 12.46372,8.03188z" fill="#040404" stroke="#000000" stroke-width="1.5" stroke-linecap="round"></path><path d="M200.73697,171.09112c0,-18.19082 17.29485,-32.9374 38.62913,-32.9374c21.33428,0 38.62913,14.74658 38.62913,32.9374c0,11.22687 -2.48212,24.8741 -12.54127,30.82016c-0.42004,0.24829 -5.31543,2.90997 -5.31543,2.90997l-0.22453,13.91683l-12.57806,0.95271l-0.50527,-15.47565l0.06963,15.5724l-14.72842,0.20478l-0.46155,-15.93384l0.80812,15.80985l-16.17468,-0.08649c0,0 0.11388,-16.75516 -0.28778,-16.80951c-2.62384,-0.355 -2.02116,-0.00099 -3.86634,-0.93632c-11.32682,-5.74167 -11.45268,-18.89377 -11.45268,-30.94489z" fill="#ffffff" stroke="#000000" stroke-width="2" stroke-linecap="butt"></path><path d="M243.83743,171.09871c0,5.92619 -3.30023,10.73031 -7.37126,10.73031c-4.07103,0 -7.37126,-4.80413 -7.37126,-10.73031c0,-5.92619 -0.9919,-11.10354 3.07913,-11.10354c3.22238,0 10.77427,7.53515 10.77427,7.53515c0,0 0.88912,2.33301 0.88912,3.56839z" fill="#ababab" stroke="#000000" stroke-width="1" stroke-linecap="butt"></path><path d="M261.57705,161.07621c4.07103,0 3.07913,5.17736 3.07913,11.10354c0,5.92619 -3.30022,10.73032 -7.37126,10.73032c-4.07103,0 -7.37126,-4.80413 -7.37126,-10.73032c0,-1.23538 0.88912,-3.56839 0.88912,-3.56839c0,0 7.55188,-7.53515 10.77427,-7.53515z" data-paper-data="{&quot;index&quot;:null}" fill="#ababab" stroke="#000000" stroke-width="1" stroke-linecap="butt"></path><path d="" data-paper-data="{&quot;index&quot;:null}" fill="none" stroke="#000000" stroke-width="1.5" stroke-linecap="round"></path><path d="" data-paper-data="{&quot;index&quot;:null}" fill="none" stroke="#000000" stroke-width="1.5" stroke-linecap="round"></path><path d="" data-paper-data="{&quot;index&quot;:null}" fill="none" stroke="#000000" stroke-width="1.5" stroke-linecap="round"></path><path d="" data-paper-data="{&quot;index&quot;:null}" fill="none" stroke="#000000" stroke-width="1.5" stroke-linecap="round"></path><path d="" data-paper-data="{&quot;index&quot;:null}" fill="none" stroke="#000000" stroke-width="1.5" stroke-linecap="round"></path><path d="" data-paper-data="{&quot;index&quot;:null}" fill="none" stroke="#000000" stroke-width="1.5" stroke-linecap="round"></path><path d="" data-paper-data="{&quot;index&quot;:null}" fill="none" stroke="#000000" stroke-width="1.5" stroke-linecap="round"></path><path d="" data-paper-data="{&quot;index&quot;:null}" fill="none" stroke="#000000" stroke-width="1.5" stroke-linecap="round"></path><path d="" data-paper-data="{&quot;index&quot;:null}" fill="none" stroke="#000000" stroke-width="1.5" stroke-linecap="round"></path><path d="" data-paper-data="{&quot;index&quot;:null}" fill="none" stroke="#000000" stroke-width="1.5" stroke-linecap="round"></path><path d="M274.8589,192.52565c-0.60739,-0.08086 -1.08468,-0.36263 -1.21811,-0.71992h-1.44181c-0.89154,0 -1.61426,-0.42397 -1.61426,-0.94697c0,-0.47908 0.60645,-0.87507 1.39358,-0.93819l3.16621,-0.28575l0.05414,0.20643c2.03306,-0.33731 3.93098,-0.41055 6.84163,-0.41055h1.64022c0,0 1.42643,0 1.59754,0.78658c0.26496,0.1687 0.42679,0.394 0.42679,0.64147c0,0.30108 -0.23953,0.56935 -0.6129,0.7428c0.12923,0.13618 0.20285,0.29301 0.20285,0.45994c0,0.45496 -0.54694,0.83498 -1.27613,0.92616l-2.08628,0.28823l-0.00972,-0.02422l-0.09442,0.0365c-0.13055,0.00696 -0.26196,0.0142 -0.39402,0.02137c0.31034,0.07514 0.62033,0.15078 0.93001,0.22686l3.1355,0.22992c0.80731,0.05223 1.43529,0.4537 1.43529,0.94121c0,0.47532 -0.59695,0.86884 -1.37506,0.93664l-2.43414,0.23799l-0.00384,-0.01349l-0.06166,0.01909c-0.07472,0.00369 -0.15004,0.00775 -0.22591,0.01216c0.00004,0.00344 0.00006,0.00689 0.00006,0.01036c0,0.94697 -1.61426,0.94697 -1.61426,0.94697c-3.35125,-0.00342 -6.51467,0.47516 -9.84129,0.4811h-1.64022c-0.89154,0 -1.61426,-0.42397 -1.61426,-0.94697c0,-0.44007 0.51171,-0.81003 1.20511,-0.91628l3.06999,-0.51455l0.11076,0.22743c1.48395,-0.35371 2.93221,-0.59313 4.47716,-0.76804l-1.37773,-0.21903c-0.70388,-0.10201 -1.22578,-0.47494 -1.22578,-0.91937c0,-0.29795 0.23457,-0.56376 0.60128,-0.73735l-0.12627,-0.01852z" data-paper-data="{&quot;index&quot;:null}" fill="#bd00f2" stroke="none" stroke-width="0.5" stroke-linecap="butt"></path><g stroke="none" stroke-width="0.5" stroke-linecap="butt"><path d="M351.58763,185.60075c-0.05941,0.56303 -0.1967,1.071 -0.50213,1.6081l0.00082,0.00936l0.50088,0.05449l-0.43588,1.18553c-0.14615,0.4426 -0.85765,0.77845 -1.71337,0.77845c-0.93685,0 -1.70084,-0.40255 -1.73934,-0.90703l-0.11203,-1.27064c-0.03346,-0.10173 -0.06939,-0.20257 -0.10699,-0.30261c-0.21318,0.26174 -0.74063,0.6659 -1.92074,0.53751c-1.70704,-0.18571 -1.36563,-1.11429 -1.36563,-1.11429c0.40866,-1.1115 0.85957,-2.12578 0.85654,-3.26005l0.06585,-0.07321l-0.04811,-0.00436l0.43752,-1.42793c0.12465,-0.45645 0.84807,-0.80664 1.72186,-0.80664c0.47087,0 0.89808,0.1017 1.21144,0.26691c0.31306,-0.25111 0.84199,-0.41611 1.4418,-0.41611c0.86771,0 1.58713,0.34532 1.71918,0.7971l0.43697,1.33592l-0.32072,0.03104c0.21329,0.35726 0.34523,0.72277 0.34764,1.09703v1.20274c0,0 0,0.3987 -0.47558,0.67869z" data-paper-data="{&quot;index&quot;:null}" fill="#bd00f2"></path><path d="M389.67894,193.32598c-0.15083,-0.00008 -0.29806,-0.00028 -0.44206,-0.00064l-0.00015,0.00064c0,0 -0.01497,0 -0.04213,-0.00076c-1.14171,-0.00314 -2.0811,-0.0163 -2.99683,-0.0503l0.02008,0.13105l-3.44939,0.15636c-0.05426,0.00277 -0.10925,0.00419 -0.16485,0.00419c-0.71664,0 -1.33216,-0.23555 -1.59912,-0.5721c-4.3534,0.5781 -8.64221,1.27152 -13.09456,1.75645c0,0 -1.70703,0.18572 -2.04845,-0.74286c-0.34142,-0.92857 1.36563,-1.11429 1.36563,-1.11429c7.11128,-0.77276 13.80589,-2.05149 20.99745,-2.59807c0.14476,-0.01677 0.29137,-0.02802 0.44022,-0.03248c0.1255,-0.00898 0.25118,-0.01774 0.37701,-0.02626l0.02063,0.02919c0.02802,0.00114 0.05598,0.00248 0.08389,0.00398l-0.0003,-0.03513l0.09072,-0.00022v-0.00542h2.21105c0.96145,0 1.74085,0.42397 1.74085,0.94697c0,0.52175 -0.7757,0.94494 -1.73398,0.94696l-1.93819,0.00476l-0.0586,0.25102z" data-paper-data="{&quot;index&quot;:null}" fill="#bd00f2"></path><path d="M352.29122,201.01909c-0.04269,0.16611 -0.09363,0.33259 -0.15439,0.50072h0.36857v0.96219c0,0.523 -0.7794,0.94697 -1.74085,0.94697c-0.77039,0 -1.42389,-0.27221 -1.65322,-0.64947l-0.83912,-1.27915l0.02214,-0.0043l-0.04331,-0.03005c-0.05578,-0.1267 -0.11794,-0.25276 -0.18183,-0.37867c-0.31405,0.63517 -0.8029,1.2465 -1.46618,1.78364c-0.03292,0.02667 -0.0664,0.05309 -0.1004,0.07929l0.01975,0.00622l-1.11573,1.04827c0.01482,0.29356 0.02314,0.5877 0.02341,0.88272c0,0 0,0.94697 -1.74085,0.94697c-1.74085,0 -1.74085,-0.94697 -1.74085,-0.94697c0.00022,-0.23371 -0.00503,-0.46684 -0.01483,-0.69955c-0.03412,-0.04853 -0.06112,-0.09898 -0.08028,-0.15097l-0.74786,-1.83062l0.04861,-0.00588l-0.07968,-0.09622c-0.00348,-0.52841 0.09352,-1.05454 0.25634,-1.57706h-0.26672v-1.89393c0,-0.523 0.7794,-0.94697 1.74085,-0.94697c0.88663,0 1.61846,0.36056 1.72697,0.82683l0.20236,0.77057c0.90153,-1.10022 2.34869,-1.82199 4.25565,-1.17424c0.02101,-0.13517 0.03393,-0.26204 0.03393,-0.37749v-1.02309c0,-0.523 0.7794,-0.94697 1.74085,-0.94697c0.809,0 1.48911,0.30018 1.68444,0.70694l0.87385,1.66371l-0.25959,0.04035c0.32077,0.39941 0.57773,0.81047 0.73498,1.23683l0.0338,0.66681c0,0 0,0.87296 -1.54081,0.94257z" data-paper-data="{&quot;index&quot;:null}" fill="#bd00f2"></path><path d="M350.36412,189.90421c-0.08793,-0.06366 -0.21965,-0.13895 -0.28451,-0.20973c-0.30346,0.13998 -0.69625,0.2244 -1.12527,0.2244c-0.10997,0 -0.21758,-0.00555 -0.32191,-0.01616l-0.01161,0.0221c0.58023,-0.01014 1.16144,-0.01678 1.7433,-0.02062zM335.31527,198.56435c-4.20693,-0.12585 -8.38037,-0.30139 -12.44679,-0.42743h-1.73186c-0.96145,0 -1.74085,-0.42397 -1.74085,-0.94697c0,-0.50295 0.72083,-0.91433 1.63116,-0.94512l2.08257,-0.08092l-2.23084,-0.20225c-0.83912,-0.0678 -1.48289,-0.46132 -1.48289,-0.93664c0,-0.16692 0.07939,-0.32376 0.21875,-0.45994c-0.40265,-0.17345 -0.66096,-0.44171 -0.66096,-0.7428c0,-0.50051 0.71381,-0.91031 1.61786,-0.94464l3.45478,-0.15034l0.03256,0.22139c0.06618,0.00435 0.13227,0.00866 0.19828,0.01293c0.56141,-0.06753 1.12312,-0.12721 1.68544,-0.17994l-1.68289,-0.5404c-0.52779,-0.16266 -0.88393,-0.47095 -0.88393,-0.82448c0,-0.18199 0.09438,-0.352 0.25797,-0.49632h-0.28597c-0.96145,0 -1.74085,-0.42397 -1.74085,-0.94697c0,-0.48751 0.67721,-0.88897 1.54784,-0.94121l1.10823,-0.07536c0.04816,-0.4627 0.707,-0.83656 1.54501,-0.88684l3.4319,-0.23336l0.06328,0.2754c0.01681,0.00052 0.03361,0.00102 0.05042,0.00154c2.90763,-0.39817 5.93376,-0.59242 9.00757,-0.67362c0.3119,-0.27064 0.62743,-0.53427 0.93407,-0.78752v-0.76835c0,-0.523 0.7794,-0.94697 1.74085,-0.94697c0.07277,0 0.14449,0.00242 0.21492,0.00714l0.77412,-1.2633c0.21878,-0.38695 0.88111,-0.66822 1.66421,-0.66822c0.809,0 1.48911,0.30018 1.68444,0.70694l0.87385,1.66371l-0.41555,0.06459c0.01145,0.01738 0.02281,0.03477 0.03409,0.05218c0.97698,0.21579 1.80346,0.91954 2.74433,1.25241l0.01758,0.13931l0.01622,-0.00505c0.0497,-0.41804 0.19815,-0.83394 0.42762,-1.22724l0.42162,-1.14675c0.14615,-0.4426 0.85765,-0.77845 1.71337,-0.77845c0.55004,0 1.04051,0.13876 1.35954,0.35545c0.00085,-0.1177 -0.00058,-0.23562 -0.00465,-0.35378c-0.06228,-1.81068 -0.48054,-3.51058 -0.30069,-5.17519c-0.04976,-0.3547 -0.09703,-0.70927 -0.14075,-1.06371l0.10482,-0.03184h-0.10581l-0.00001,-0.48149h-0.00003v-0.96219c0,-0.523 0.7794,-0.94697 1.74085,-0.94697c0.96144,0 1.74083,0.42396 1.74085,0.94695v0l0.00004,1.35897c0.67322,0.51975 0.48154,1.45205 0.33746,2.33048c0.4272,2.56042 0.97107,5.17524 1.14004,7.77082c6.8302,-0.12772 13.7836,-0.22456 20.32227,0.3418h1.66522c0.96145,0 1.74085,0.42397 1.74085,0.94697c0,0.01118 -0.00035,0.02232 -0.00105,0.0334c1.64903,-0.00886 3.29866,-0.01459 4.94931,-0.01695v-0.00123h3.4817c0.96145,0 1.74085,0.42397 1.74085,0.94697c0,0.523 -0.7794,0.94697 -1.74085,0.94697h-1.76884c-0.85447,0 -1.70859,0.00094 -2.56248,0.00279c-1.72305,0.34457 -3.6195,0.29407 -5.87398,0.43073c-0.58486,0.03545 -1.16939,0.07078 -1.75364,0.10615c0.75709,0.10278 1.31794,0.47517 1.31794,0.91883c0,0.4823 -0.66283,0.88039 -1.51999,0.93942l-3.07012,0.23857l-0.06117,-0.2329c-2.65159,0.40533 -5.37483,0.65135 -8.12309,0.86133c0.24535,0.1632 0.39252,0.37177 0.39252,0.59904c0,0.07727 -0.01702,0.15238 -0.04912,0.22428c0.18085,0.01633 0.35699,0.03161 0.528,0.04569l0.25973,0.16002l0.07984,-0.06663l1.46317,0.51879c0.48898,0.16767 0.81384,0.46404 0.81384,0.80169c0,0.46548 -0.6174,0.85253 -1.43106,0.93202l-3.38245,0.36799l-0.06021,-0.16376c-4.41561,0.72318 -9.00311,1.09652 -13.66072,1.25734c-0.17851,1.40783 0.42501,3.16424 -3.73139,3.35905c-0.04234,0.00198 -0.08423,0.00388 -0.12565,0.00569l-0.16946,0.82966c-0.08608,0.47924 -0.82889,0.85375 -1.73252,0.85375c-0.85399,0 -1.56438,-0.3345 -1.71248,-0.77578l-0.46556,-1.24653c-0.11161,-0.18792 -1.17757,-1.98224 -1.75138,-2.95106c-0.53209,-0.00755 -1.06417,-0.0166 -1.59612,-0.02696l-0.81833,1.03868c-0.25726,0.34818 -0.8838,0.594 -1.6159,0.594c-0.96145,0 -1.74085,-0.42397 -1.74085,-0.94697v-0.79053zM346.25461,195.99422c0.62128,0.00518 1.24036,0.00823 1.85671,0.00823h1.378c0.0845,-0.05951 0.16962,-0.1196 0.25476,-0.18137l-2.19317,-0.09177c-0.49335,-0.01799 -0.93042,-0.14779 -1.22628,-0.34323c-1.1073,0.04284 -2.2588,0.08183 -3.39339,0.09234c0.0058,0.00477 0.01158,0.00955 0.01738,0.01434c1.09914,0.17275 2.20259,0.33363 3.30599,0.50145zM329.33216,191.58178c1.25755,0.26653 2.51432,0.43996 3.77214,0.56476c-0.00004,-0.00268 -0.00005,-0.00536 -0.00005,-0.00805c0,-0.26158 0.19498,-0.4984 0.5102,-0.66978c-1.42876,0.07543 -2.86292,0.12784 -4.28228,0.11308zM347.37722,198.7028c-0.11557,0.00163 -0.23117,0.00314 -0.34681,0.00455c0.00053,0.00061 0.00107,0.00122 0.00161,0.00183l0.19935,0.21688c0.04574,-0.07392 0.09516,-0.14853 0.14586,-0.22326z" data-paper-data="{&quot;index&quot;:null}" fill="#9b00c4"></path><path d="M349.002,196.86955c-0.51452,0.3052 -1.33287,0.3052 -1.33287,0.3052l-0.86443,-0.02827c-0.92393,-0.12998 -1.85505,-0.27588 -2.7635,-0.45282h-0.67661l-0.09755,0.21227l-1.73351,-0.23574c-0.77523,-0.0957 -1.35396,-0.47283 -1.35396,-0.9235c0,-0.28954 0.23889,-0.54872 0.61526,-0.72242c-3.92576,0.09114 -7.91143,0.09739 -11.5108,-0.25499c-0.67083,0 -1.34164,0 -2.01247,0c-0.09143,0 -3.39027,0 -3.4817,0c-0.96145,0 -1.74085,-0.42397 -1.74085,-0.94697c0,-0.523 0.7794,-0.94697 1.74085,-0.94697h3.4817c0.67083,0 1.34164,0 2.01247,0c0.56944,-0.05575 1.14854,-0.10252 1.73555,-0.1414c-0.08152,-0.10961 -0.1264,-0.22942 -0.1264,-0.35492c0,-0.523 0.7794,-0.94697 1.74085,-0.94697h1.8248c1.66646,0.00064 3.31263,-0.05925 4.94366,-0.14864c0.14181,-0.03683 0.29421,-0.06352 0.45406,-0.07836l3.38948,-0.3512l0.0606,0.17308c0.20415,-0.0148 0.40809,-0.02968 0.6119,-0.04458c3.85523,-0.63621 7.55194,-0.74884 12.20849,-0.75292v-0.00012h3.4817c0.96145,0 1.74085,0.42397 1.74085,0.94697c0,0.523 -0.7794,0.94697 -1.74085,0.94697h-3.20741c-0.46786,0 -0.97126,0.01311 -1.5011,0.03482c-0.4612,0.05603 -0.95196,0.08576 -1.52037,0.11907c0.00659,0.03348 0.00995,0.06746 0.00995,0.10189c0,0.18199 -0.09438,0.352 -0.25797,0.49632h0.28597c0.96145,0 1.74085,0.42397 1.74085,0.94697c0,0.1624 -0.07515,0.31525 -0.20756,0.44882l0.85145,0.05215c0.87989,0.04742 1.56716,0.4512 1.56716,0.94231c0,0.37803 -0.40721,0.70432 -0.99604,0.85616l-1.7351,0.47192l-0.03185,-0.03465c-0.11189,0.03927 -0.22727,0.07586 -0.34672,0.10929c-1.09414,0.30624 -3.20841,0.28374 -5.25802,0.20123z" data-paper-data="{&quot;index&quot;:null}" fill="#da7af5"></path><path d="M348.11137,194.28818c-3.27629,0 -6.47958,-0.01298 -9.74794,-0.15886l-1.8763,-0.08417c-0.90225,-0.03533 -1.61405,-0.4447 -1.61405,-0.94449c0,-0.523 0.7794,-0.94697 1.74085,-0.94697h2.65325v0.11433c0.29989,0.01196 0.5993,0.0228 0.89832,0.03261c2.02394,-0.15165 4.02384,-0.14693 6.61923,-0.14693h1.32663c0,0 1.74085,0 1.74085,0.94697c0,0.04192 -0.00341,0.08198 -0.00993,0.12027c0.00652,0.03829 0.00993,0.07836 0.00993,0.12027c0,0.94697 -1.74085,0.94697 -1.74085,0.94697z" data-paper-data="{&quot;index&quot;:null}" fill="#e6b0f5"></path></g><g stroke="none" stroke-width="0.5" stroke-linecap="butt"><path d="M320.00048,187.72029c0,-0.74367 2.18928,-0.74367 2.18928,-0.74367l3.34628,0.00001c3.5002,0.01041 5.98357,0.04555 8.59015,0.22114l0.05197,-0.17654l4.33271,0.14718c1.11835,0.03331 1.99552,0.35226 1.99552,0.74079c0,0.35392 -0.7278,0.65009 -1.70274,0.72523l-2.00697,0.17044c-0.63476,0.10625 -1.25839,0.21068 -1.87894,0.29896c0.36218,0.13268 0.58358,0.31032 0.58358,0.50552c0,0.36555 -0.77646,0.66949 -1.79968,0.73193l-2.7408,0.18621l-0.00467,-0.00793l-0.05866,0.0119c-0.20372,0.00967 -0.42308,0.02247 -0.65577,0.03775l0.1232,0.00837c1.02324,0.06243 1.79968,0.36638 1.79968,0.73193c0,0.35392 -0.7278,0.65009 -1.70274,0.72523l-2.17605,0.18479c-0.68144,0.05911 -1.33527,0.12226 -1.97279,0.18354c3.7464,0.16468 7.46584,0.44502 11.20141,0.62602c0,0 2.16726,0.10517 1.85766,0.84136c-0.30961,0.7362 -2.47686,0.63102 -2.47686,0.63102c-0.28701,-0.01395 -0.57388,-0.02847 -0.86066,-0.04346c-0.40006,0.14746 -0.97343,0.23984 -1.61032,0.23984c-0.89912,0 -1.67163,-0.18411 -2.00863,-0.44741c-4.01686,-0.24259 -8.03276,-0.49865 -12.10998,-0.50074l-0.2018,-0.03092l-0.01184,0.0201l-4.25374,-0.28899c-1.02324,-0.06243 -1.79968,-0.36638 -1.79968,-0.73193c0,-0.31566 0.57896,-0.58539 1.39587,-0.69333l1.26543,-0.17867c-0.97582,-0.07493 -1.70449,-0.37125 -1.70449,-0.72537c0,-0.24639 0.35277,-0.4648 0.8961,-0.60013l2.20407,-0.56152l0.45907,0.20792c1.96786,-0.49266 4.00091,-0.70568 6.46407,-0.8531c-0.00874,-0.027 -0.01322,-0.05443 -0.01322,-0.08223c0,-0.27564 0.44148,-0.51624 1.09732,-0.6447l0.55483,-0.11308c-0.3729,-0.00498 -0.75286,-0.00865 -1.1408,-0.0098l-3.32712,0.00001c0,0 -2.18928,0 -2.18928,-0.74367z" data-paper-data="{&quot;index&quot;:null}" fill="#bd00f2"></path><path d="M308.42364,190.00507l-0.4247,-0.16488l3.28719,-0.97704c0.38611,-0.11598 0.89367,-0.18638 1.44964,-0.18638c1.2091,0 2.18928,0.33295 2.18928,0.74367v0.75562h-0.12471l0.09643,0.11913c-1.64199,1.72728 -1.79669,3.1757 -6.66057,3.56311l-0.00844,0.01717c-0.15677,0.35846 -1.0665,0.63347 -2.1654,0.63347c-1.2091,0 -2.18928,-0.33295 -2.18928,-0.74367v-1.13343h0.22763l-0.16619,-0.17493c0.36558,-0.25225 0.69625,-0.4802 1.00687,-0.68838c0.01446,-0.07773 0.04338,-0.15388 0.08643,-0.22707l0.54817,-0.93102c0.18378,-0.34758 1.07857,-0.61133 2.15471,-0.61133c0.21539,0 0.42351,0.01057 0.62013,0.03025c0.02412,-0.00811 0.04838,-0.01622 0.07278,-0.0243z" data-paper-data="{&quot;index&quot;:null}" fill="#e6b0f5"></path><g><path d="M265.01931,191.51839c0.87477,0.0301 1.74966,0.06022 2.62443,0.09034c0,0 5.46336,0.18811 5.00808,2.44544c-0.45528,2.25731 -5.91865,2.06923 -5.91865,2.06923c-2.30026,-0.07921 -4.60059,-0.15851 -6.90075,-0.23825c6.31518,0.48747 12.795,0.58221 19.17691,0.91181c0,0 5.43999,0.28096 4.75993,2.52862c-0.67999,2.24766 -6.11998,1.9667 -6.11998,1.9667c-11.43753,-0.59072 -21.69741,-1.12467 -32.70145,-2.56098c-3.36931,-0.43977 -8.37708,-0.01722 -10.13478,-1.28371c-1.25924,-0.90731 -1.41494,-1.8703 -0.82074,-2.80916l-0.5277,0.25397c0,0 -3.87656,1.60169 -7.75313,0c-3.87656,-1.60169 0,-3.20342 0,-3.20342l3.93368,-1.51387c4.12409,-0.97666 8.32882,-1.9656 12.61803,-2.8959c-0.03533,-0.10384 -0.05356,-0.20997 -0.05356,-0.31786c0,-1.25101 2.45446,-2.26515 5.48232,-2.26515h7.93024c3.86404,-0.63833 7.79428,-1.17874 11.79321,-1.57526l1.16566,-0.72631c8.8198,0 17.63971,0 26.45951,0c0,0 5.48232,0 5.48232,2.26515c0,2.26515 -5.48232,2.26515 -5.48232,2.26515c-2.81473,0 -5.62946,0 -8.44424,0c0.0003,0.01207 0.00046,0.02421 0.00046,0.03643c0,0.68049 -0.4948,1.15658 -1.18708,1.48961c7.42042,0.93021 14.73877,1.38485 21.8309,2.8137c0,0 4.90347,1.01301 2.45179,3.03901c-2.45179,2.026 -7.35527,1.01301 -7.35527,1.01301c-7.76533,-1.65765 -16.68201,-1.9351 -25.05832,-3.22194l-4.89457,-0.68758c0,0 -3.92328,-0.55202 -3.78582,-2.10556c-3.31863,0.06328 -6.27068,0.09483 -9.06594,-0.25663c-0.47002,0.47613 -0.98504,0.94778 -1.55466,1.40516h2.24758c0,0 3.32162,0 4.79389,1.06826z" data-paper-data="{&quot;index&quot;:null}" fill="#bd00f2"></path><path d="M299.33696,196.88458c0.1362,0.55008 0.42745,1.1051 0.64337,1.65543v-0.80772h0.00417c0.0013,-0.02212 0.00289,-0.04424 0.0048,-0.06635l-0.00817,-0.10245l0.01907,-0.00017c0.02499,-0.19709 0.07298,-0.39387 0.14071,-0.59015c-0.08108,-0.1951 -0.13345,-0.39102 -0.1525,-0.58713h-0.00809v-0.20116c-0.01088,-0.05415 -0.02086,-0.10835 -0.03001,-0.1626c-0.35523,-0.02307 -0.71215,-0.04775 -1.06958,-0.07369c-0.00025,0.00027 -0.00051,0.00054 -0.00076,0.00082l0.44404,0.905l-0.0259,0.00146zM300.23344,199.47514c0.1532,-0.08415 0.30964,-0.16611 0.46951,-0.24619c-0.25641,-0.07864 -0.45778,-0.17761 -0.58211,-0.28941c0.05434,0.1794 0.09457,0.35805 0.1126,0.5356zM294.85088,184.40572c0.00607,0.07545 0.00682,0.15124 -0.00076,0.22675c0.07602,-0.03474 0.16076,-0.06716 0.25307,-0.09687c-0.087,-0.04021 -0.17091,-0.08356 -0.25234,-0.12988zM294.36986,185.37263l0.03252,0.00331l-0.47167,0.53405c0.14964,-0.00294 0.29954,-0.00589 0.44971,-0.00882c0.00877,-0.024 0.01752,-0.04794 0.02628,-0.07183l0.00809,-0.49047c-0.01484,0.01128 -0.02981,0.02254 -0.04492,0.03376zM305.43975,197.08973c0.10474,-0.04616 0.22513,-0.08802 0.35841,-0.12467c-0.26003,-0.1646 -0.46059,-0.34445 -0.61687,-0.53458c-0.02587,0.00684 -0.0522,0.01348 -0.07897,0.01992c-0.09019,0.18716 -0.16181,0.38235 -0.1954,0.58997l-0.02269,0.01775l0.01734,0.00066l-0.10043,0.30702zM281.92601,189.75448c0.67336,-0.0533 1.27845,-0.05946 1.85009,-0.03097c0.55357,-0.00391 1.17341,0.00273 1.83907,0.0275c0.85685,-0.12236 1.85565,-0.18256 2.82836,-0.23568c-0.01052,-0.09279 -0.01972,-0.18552 -0.02749,-0.27822l-3.49908,0.11886c-1.41444,0.20428 -2.38633,0.32778 -2.99097,0.39852zM330.71186,191.85323c-0.91671,-0.11021 -1.803,-0.20683 -2.67032,-0.2958c-0.28574,0.09084 -0.58872,0.17629 -0.88221,0.2539c1.32173,0.59951 1.49274,1.21088 0.84867,1.76528c0.29535,0.00667 0.58346,0.01086 0.86273,0.0117h2.77298c1.2091,0 2.18928,0.33295 2.18928,0.74367c0,0.41071 -0.98015,0.74367 -2.18928,0.74367h-2.78057v-0.0028l-0.01047,0.00279c-0.37719,-0.00134 -0.79999,-0.00104 -1.25818,-0.00061c-0.57709,0.03005 -1.17124,0.03778 -1.80281,0.03565c-0.47402,0.18441 -1.20884,0.12735 -1.96328,-0.02264c-0.15439,-0.00203 -0.31138,-0.00396 -0.47118,-0.00566c-1.42545,0.19501 -2.90269,0.23562 -4.38228,0.19328c-0.98682,1.85115 -2.38443,3.67886 -2.38904,5.54044l-0.08387,0.05744l0.06154,0.00348l-0.5502,1.12137c-0.15677,0.35846 -1.0665,0.63347 -2.1654,0.63347c-1.04187,0 -1.91376,-0.24722 -2.13499,-0.5784l-0.54499,-0.74053l0.43965,-0.03734c-0.23534,-0.17453 -0.44763,-0.34871 -0.64387,-0.52451c-0.24235,0.32109 -1.09996,0.55843 -2.12082,0.55843c-1.04187,0 -1.91376,-0.24722 -2.13499,-0.5784l-0.54499,-0.74053l0.58444,-0.04963c-0.31138,-0.26895 -0.56903,-0.54461 -0.76351,-0.82389l-0.0594,-0.01585c-0.98741,0.72976 -2.45884,1.31915 -3.42776,2.14834l-0.0633,0.02227l0.02596,0.00441l-1.09103,0.74121c-0.35104,0.25154 -1.10538,0.42549 -1.97936,0.42549c-1.06091,0 -1.9456,-0.25635 -2.14648,-0.59664l-0.9405,-1.43762l0.38402,-0.02899c-0.49288,-0.53557 -0.84765,-1.05906 -1.12009,-1.62851c-0.40017,0.1772 -1.02986,0.29145 -1.73812,0.29145c-0.72538,0 -1.36834,-0.11983 -1.76671,-0.30439l-0.99632,-0.45126c-0.00585,0.00002 -0.01171,0.00002 -0.01754,0.00002c-1.2091,0 -2.18928,-0.33295 -2.18928,-0.74367v-1.13343h0.54881c-0.14822,-0.42931 -0.22576,-0.85239 -0.26901,-1.27589c-0.40786,-0.02721 -0.78888,-0.049 -1.13859,-0.06398c-2.43955,-0.10449 -6.60605,0.36252 -8.6452,-0.28946c-1.2262,-0.39205 -3.30882,-0.99299 -2.49074,-1.49296c0.30825,-0.18838 3.05679,-0.46045 5.94788,-0.70283c-0.63851,-0.04998 -1.22873,-0.10785 -1.74559,-0.17579c-1.79054,-0.23536 -4.62509,-0.34571 -4.97306,-0.98709c-0.16939,-0.31218 0.38096,-0.58732 1.17369,-0.82134c-0.69553,-0.24153 -1.13973,-0.58574 -1.18315,-1.08023c-0.02701,-0.30754 1.47917,-0.6806 3.18907,-0.99108c-0.59083,-0.13318 -0.98034,-0.36119 -0.98034,-0.6201c0,-0.19798 0.22773,-0.37788 0.59909,-0.51114c-0.26745,-0.12332 -0.42553,-0.27571 -0.42553,-0.44064c0,-0.38329 0.85366,-0.69886 1.95035,-0.73929l4.31729,-0.18046l0.00497,0.01374l0.12846,-0.01792c1.27661,-0.00039 2.61223,-0.01313 3.99158,-0.03283v-1.11396c0,-0.31986 0.59451,-0.59256 1.42865,-0.69755c-0.01421,-0.78105 0.74689,-1.53789 3.19051,-1.73666c1.59979,-0.13013 3.5551,1.24821 4.38896,0.76652c0.66624,-0.38487 0.44782,-0.89328 1.00196,-1.29646v-0.62506c0,-0.41071 0.98015,-0.74367 2.18928,-0.74367c1.07613,0 1.97092,0.26375 2.15471,0.61133l0.20939,0.35562c0.39455,-0.13076 0.93394,-0.21133 1.52871,-0.21133c0.66934,0 1.26854,0.10204 1.67014,0.26283l0.65146,-0.82892c0.23309,-0.3256 1.09712,-0.56732 2.12735,-0.56732c0.98482,0 1.81776,0.22089 2.09288,0.52477l1.36864,1.39474l-0.01252,0.00141c0.54309,0.40266 0.90231,0.83496 0.93094,1.33655c0.02221,0.04248 0.03379,0.08622 0.03379,0.13088v0.64609c0.54486,-0.25421 0.94246,-0.72811 1.64435,-0.61472c0.78144,0.12623 1.2997,0.35566 1.72662,0.62089c0.40157,-0.16059 1.00039,-0.26249 1.66928,-0.26249c1.2091,0 2.18928,0.33295 2.18928,0.74367v0.78876c0.88032,0.07299 1.55204,0.32679 1.65471,0.639c0.28831,0.05453 0.53657,0.13054 0.72603,0.22166c0.81864,0.05695 1.63422,0.12242 2.45371,0.19699l0.05601,-0.13953l4.3076,0.19953c1.08412,0.04444 1.92424,0.35803 1.92424,0.73827c0,0.33732 -0.66114,0.62218 -1.56727,0.71323l-3.09405,0.33769l-0.00132,-0.00138l-0.01162,0.00278c-0.03519,0.00365 -0.07073,0.00742 -0.1066,0.01128l1.01154,0.11454c0.89459,0.09345 1.54486,0.3764 1.54486,0.71093c0,0.29687 -0.51212,0.55312 -1.2526,0.67236l-0.51503,0.08748c0.41909,0.04309 0.84972,0.093 1.29654,0.14736l0.04366,-0.06675l4.23215,0.31947c1.00179,0.06825 1.75644,0.36875 1.75644,0.72913c0,0.41071 -0.98015,0.74367 -2.18928,0.74367h-2.22446v-0.06228zM301.48767,185.78525c0.18558,-0.37516 0.41096,-0.74249 0.68315,-1.0994c-0.00041,0 -0.00081,0 -0.00124,0c-0.70308,0 -1.32872,-0.11258 -1.72929,-0.28756c-0.69706,0.15897 -1.31079,0.27681 -1.85524,0.35721c0.13634,0.09695 0.21267,0.2055 0.21267,0.32012v0.74511c0.89459,-0.01408 1.79234,-0.02628 2.68996,-0.03547zM313.52778,185.83819c0.00041,0.00147 0.00081,0.00294 0.00124,0.00441c0.06643,0.03977 0.12237,0.08182 0.16656,0.12572c0.24934,0.01317 0.49728,0.02711 0.74374,0.04183v-0.55673h0.04992c-0.04255,-1.03576 0.19448,0.03178 -0.96143,0.38477zM292.75656,189.49622c0.20931,0.01095 0.42214,0.02281 0.63624,0.03541c0.07598,-0.48761 0.17895,-0.97093 0.30037,-1.44547h-0.91748c-0.0469,0.47086 -0.04679,0.94061 -0.01911,1.41006zM313.98614,188.75051c0.00348,0.06479 0.0045,0.12884 0.00237,0.19226c0.11883,-0.02002 0.24379,-0.0365 0.37367,-0.049c-0.14269,-0.042 -0.26923,-0.09016 -0.37605,-0.14325zM309.04943,183.22583c-0.1395,0.07782 -0.28289,0.15493 -0.42983,0.23134l0.47224,0.08843l-0.65712,0.40488c0.14187,0.21189 0.29327,0.42152 0.45228,0.62951l0.3317,-0.65407c-0.08901,-0.2319 -0.14459,-0.46852 -0.16927,-0.70011zM292.98831,191.51256c0.00275,0.0015 0.00548,0.003 0.00823,0.0045l0.25736,0.01245c-0.00402,-0.15148 -0.00434,-0.30315 -0.00127,-0.45483c-0.10736,-0.00176 -0.21647,-0.00334 -0.32691,-0.00475c0.02047,0.14748 0.04152,0.29502 0.06256,0.44264zM293.19738,193.23187c0.01527,0.18927 0.02671,0.37884 0.03319,0.56875c0.13712,0.01024 0.27359,0.02047 0.4093,0.03066c-0.06856,-0.2075 -0.12712,-0.41671 -0.17641,-0.62726c-0.08866,0.00936 -0.17735,0.01864 -0.2661,0.02783zM314.18361,187.55537c-0.11746,0.00671 -0.23523,0.01323 -0.35332,0.01958c0.01279,0.13509 0.03133,0.26661 0.05127,0.39496c0.31486,-0.19185 0.87249,-0.33143 1.53176,-0.37081c-0.43266,-0.00027 -0.84184,-0.012 -1.22971,-0.04373zM321.11535,193.37419c-0.21842,-0.02732 -0.44267,-0.04901 -0.67128,-0.06652c-0.09181,0.03298 -0.19243,0.06312 -0.30056,0.08996c0.31755,-0.01272 0.64212,-0.02019 0.97182,-0.02345zM293.43828,195.49091c-0.00559,0.22383 -0.07679,0.43577 -0.28321,0.63437c0.15939,0.0277 0.30748,0.06183 0.44127,0.1014l0.26669,-0.18118v-0.51646c-0.14249,-0.01279 -0.28409,-0.0255 -0.42475,-0.03813z" data-paper-data="{&quot;index&quot;:null}" fill="#9b00c4"></path><path d="M300.05531,189.11183c0.29783,-0.81808 0.82636,-2.073 1.29585,-2.15926c2.09776,-0.38544 11.58407,0.53612 13.7141,1.73596c0.32419,-0.11407 0.81632,-0.20065 1.56329,-0.20065c2.18928,0 2.18928,0.74367 2.18928,0.74367c-0.01115,0.29746 -0.07298,0.61518 -0.17798,0.9477c1.89199,0.20768 2.8722,0.68673 0.17334,1.81618c-0.33824,0.14155 -0.77191,0.23828 -1.25988,0.3092c-1.22065,1.82135 -3.12966,3.73887 -4.84265,5.10451c-1.13854,0.90767 -2.98285,1.92604 -6.76344,1.12787c-1.26614,-0.2673 -1.50369,-0.88164 -1.99315,-1.35995c-0.50751,-0.49594 -0.99106,-1.01049 -1.44616,-1.53243c-0.38624,0.11615 -0.89416,0.18667 -1.4506,0.18667c-0.54656,0 -1.04634,-0.06804 -1.42995,-0.18054l-1.14413,0.13417c-0.23747,0.02998 -0.49443,0.04636 -0.76262,0.04636c-1.2091,0 -2.18928,-0.33295 -2.18928,-0.74367c0,-0.27564 0.44148,-0.51624 1.09732,-0.6447l2.30012,-0.46879c0.00338,-0.01064 0.00691,-0.02127 0.01055,-0.03189h-0.6626c-1.2091,0 -2.18928,-0.33295 -2.18928,-0.74367c0,-0.24864 0.35924,-0.46879 0.911,-0.60381c-0.27147,-0.06719 -0.46913,-0.14348 -0.56962,-0.22819c-0.47705,-0.40219 0.50126,-0.96805 2.00952,-1.55506l-2.03923,0.09896c-0.11297,0.00611 -0.22886,0.00928 -0.34688,0.00928c-1.2091,0 -2.18928,-0.33295 -2.18928,-0.74367c0,-0.37327 0.8096,-0.68231 1.86485,-0.73556l3.30118,-0.1869l0.01284,0.02616l0.00013,-0.00001c0.33517,-0.05789 0.67277,-0.11399 1.01327,-0.16794zM306.67217,194.73247c0.32689,0.29728 0.64843,0.59515 0.93089,0.89691c0.34581,0.36945 0.3852,0.76422 0.56763,1.1469c0.07938,0.16651 0.02671,0.6705 0.11538,0.50452c0.5254,-0.98361 1.55703,-2.00391 2.62788,-3.03375l-1.43046,0.19436l-0.17535,-0.14892c-0.86592,0.1589 -1.7332,0.30272 -2.63597,0.43996zM304.10023,188.11022c-0.37435,0.02644 0.44394,0.19544 0.59582,0.33304l0.94095,-0.15981c-0.64167,-0.12258 -1.19154,-0.1976 -1.53677,-0.17323zM310.41838,189.28566c-0.11534,-0.01026 -0.24732,-0.02767 -0.39302,-0.05094l-0.9508,0.22603c1.08296,-0.07429 1.74281,-0.13962 1.34383,-0.17509zM308.34259,191.60845c0.04346,-0.00479 0.08692,-0.00956 0.13041,-0.01432c-0.06678,-0.00242 -0.13361,-0.00494 -0.20045,-0.00755c0.02342,0.00716 0.04679,0.01445 0.07005,0.02188z" data-paper-data="{&quot;index&quot;:null}" fill="#da7af5"></path></g></g></g></g></svg>