<svg version="1.1" xmlns="http://www.w3.org/2000/svg" xmlns:xlink="http://www.w3.org/1999/xlink" width="81.36927" height="81.47653" viewBox="0,0,81.36927,81.47653"><g transform="translate(-439.90209,-139.29617)"><g data-paper-data="{&quot;isPaintingLayer&quot;:true}" fill-rule="nonzero" stroke-linejoin="miter" stroke-miterlimit="10" stroke-dasharray="" stroke-dashoffset="0" style="mix-blend-mode: normal"><path d="" data-paper-data="{&quot;index&quot;:null}" fill="none" stroke="#000000" stroke-width="1.5" stroke-linecap="round"/><path d="M497.45983,202.14911c-12.95651,8.64709 -30.46969,5.15359 -39.11678,-7.80291c-8.64709,-12.95651 -5.15359,-30.46969 7.80291,-39.11678c12.95651,-8.64709 30.46969,-5.15359 39.11678,7.80291c8.64709,12.95651 5.15359,30.46969 -7.80291,39.11678z" fill="#000000" stroke="none" stroke-width="NaN" stroke-linecap="butt"/><path d="M473.74205,190.83691l-21.96502,10.63114l-3.32126,-4.9765l17.97946,-16.60294z" fill="#000000" stroke="none" stroke-width="0" stroke-linecap="butt"/><path d="M462.95106,182.14536l-23.04896,-8.01426l1.17041,-5.86743l24.4535,0.97337z" fill="#000000" stroke="none" stroke-width="0" stroke-linecap="butt"/><path d="M467.18953,168.84641l-10.63114,-21.96502l4.9765,-3.32126l16.60295,17.97945z" fill="#000000" stroke="none" stroke-width="0" stroke-linecap="butt"/><path d="M478.16854,162.34514l8.01426,-23.04896l5.86743,1.17042l-0.97336,24.45347z" fill="#000000" stroke="none" stroke-width="0" stroke-linecap="butt"/><path d="M488.90618,164.0391l21.96503,-10.63115l3.32126,4.9765l-17.97945,16.60295z" fill="#000000" stroke="none" stroke-width="0" stroke-linecap="butt"/><path d="M498.2224,172.33814l23.04896,8.01426l-1.17041,5.86743l-24.45347,-0.97335z" fill="#000000" stroke="none" stroke-width="0" stroke-linecap="butt"/><path d="M495.4968,186.70336l10.63115,21.96503l-4.9765,3.32126l-16.60294,-17.97946z" fill="#000000" stroke="none" stroke-width="0" stroke-linecap="butt"/><path d="M483.44376,197.72375l-8.01426,23.04896l-5.86743,-1.17042l0.97336,-24.45344z" fill="#000000" stroke="none" stroke-width="0" stroke-linecap="butt"/></g></g></svg>