<svg version="1.1" xmlns="http://www.w3.org/2000/svg" xmlns:xlink="http://www.w3.org/1999/xlink" width="201.95545" height="65.1954" viewBox="0,0,201.95545,65.1954"><defs><radialGradient cx="279.47262" cy="182.85247" r="56.12373" gradientUnits="userSpaceOnUse" id="color-1"><stop offset="0" stop-color="#e6e6e6"></stop><stop offset="1" stop-color="#ecdeee"></stop></radialGradient></defs><g transform="translate(-134.39364,-150.20694)"><g data-paper-data="{&quot;isPaintingLayer&quot;:true}" fill-rule="nonzero" stroke-linejoin="miter" stroke-miterlimit="10" stroke-dasharray="" stroke-dashoffset="0" style="mix-blend-mode: normal"><g stroke="#000000"><path d="M236.11298,206.18415c-6.61238,-0.03459 -11.92341,-3.10883 -11.86255,-6.86651c0.06087,-3.75768 5.4706,-6.77583 12.08296,-6.74125c6.61238,0.03459 11.92341,3.10883 11.86255,6.86651c-0.06087,3.75768 -5.4706,6.77583 -12.08296,6.74125z" data-paper-data="{&quot;index&quot;:null}" fill="#d4c0d7" stroke-width="1" stroke-linecap="butt"></path><g data-paper-data="{&quot;index&quot;:null}" stroke-width="0.8"><path d="M217.19716,193.77626l0.32349,3.40681l12.34574,3.37982l-12.05459,-0.3137l-4.4649,6.79954l-3.92804,-6.54216l-36.32555,-2.6445z" fill="#0033b3" stroke-linecap="round"></path><path d="M215.75388,196.05446l24.62109,0.14209l-0.10779,6.03089l-24.62109,-0.14209z" fill="#455c67" stroke-linecap="butt"></path></g></g><path d="M275.16449,214.65233c-30.90482,-1.35212 -54.0293,-16.68551 -51.64999,-34.24811c2.37933,-17.56258 29.36145,-30.70376 60.26628,-29.35164c30.90482,1.35212 54.0293,16.68551 51.64999,34.24811c-2.37933,17.56258 -29.36145,30.70376 -60.26628,29.35164z" data-paper-data="{&quot;index&quot;:null}" fill="url(#color-1)" stroke="#000000" stroke-width="1.5" stroke-linecap="butt"></path><path d="M304.45648,181.87143l29.85745,-3.53294" data-paper-data="{&quot;index&quot;:null}" fill="none" stroke="#000000" stroke-width="1.5" stroke-linecap="round"></path><path d="M264.04579,175.3024l32.75408,6.51423" data-paper-data="{&quot;index&quot;:null}" fill="none" stroke="#000000" stroke-width="1.5" stroke-linecap="round"></path><path d="M290.87451,184.66466c0.09036,-0.66694 1.11498,-1.16596 2.2886,-1.11462c1.17361,0.05135 2.05174,0.63362 1.96138,1.30056c-0.09036,0.66694 -1.11498,1.16596 -2.2886,1.11462c-1.17361,-0.05135 -2.05174,-0.63362 -1.96138,-1.30056z" fill="#000000" stroke="none" stroke-width="0.5" stroke-linecap="butt"></path><path d="M305.68309,185.35077c0.09036,-0.66694 1.11501,-1.16596 2.2886,-1.11462c1.1736,0.05135 2.05174,0.63362 1.96138,1.30056c-0.09036,0.66694 -1.11501,1.16596 -2.2886,1.11462c-1.1736,-0.05135 -2.05174,-0.63362 -1.96138,-1.30056z" fill="#000000" stroke="none" stroke-width="0.5" stroke-linecap="butt"></path><path d="M286.3147,198.03393c0,0 5.42989,-5.0856 9.86817,-4.89143c3.43786,0.15041 9.95948,5.75891 9.95948,5.75891" fill="none" stroke="#000000" stroke-width="1.5" stroke-linecap="round"></path><g stroke="#000000" stroke-width="0.8"><path d="M134.4382,181.50449l36.45978,-1.95915l4.30728,-6.46462l4.06605,6.87987l12.06628,-0.08657l-12.53599,3.14554l-0.52192,3.39886z" fill="#0033b3" stroke-linecap="round"></path><path d="M177.21386,178.08467l24.61587,0.32152l-0.24387,6.02961l-24.61587,-0.32152z" fill="#455c67" stroke-linecap="butt"></path></g><path d="M209.5918,181.33848c-0.15823,3.75676 -5.64556,6.72932 -12.25634,6.63941c-6.61076,-0.08992 -11.84157,-3.20826 -11.68334,-6.96503c0.15823,-3.75676 5.64556,-6.72932 12.25634,-6.63941c6.61076,0.08992 11.84157,3.20826 11.68334,6.96503z" data-paper-data="{&quot;index&quot;:null}" fill="#d4c0d7" stroke="#000000" stroke-width="1" stroke-linecap="butt"></path></g></g></svg>