<svg version="1.1" xmlns="http://www.w3.org/2000/svg" xmlns:xlink="http://www.w3.org/1999/xlink" width="121.67902" height="81.69911" viewBox="0,0,121.67902,81.69911"><g transform="translate(-161.76588,-103.00662)"><g data-paper-data="{&quot;isPaintingLayer&quot;:true}" fill-rule="nonzero" stroke-linejoin="miter" stroke-miterlimit="10" stroke-dasharray="" stroke-dashoffset="0" style="mix-blend-mode: normal"><path d="M189.29018,167.0759c-0.14606,0.23623 -0.30584,0.46371 -0.48363,0.67967c-0.02149,0.0261 -0.04313,0.05204 -0.06492,0.07783l0.01622,0.00948l-1.61829,2.76914c-0.42791,0.76347 -1.24486,1.27946 -2.18232,1.27946c-1.38071,0 -2.5,-1.11929 -2.5,-2.5c0,-0.27863 0.04558,-0.54662 0.1297,-0.79691l0.6726,-2.16643c-0.36956,0.21566 -0.79945,0.33922 -1.2582,0.33922c-1.2584,0 -2.29963,-0.92976 -2.47424,-2.1398c-0.41904,0.31707 -0.94109,0.50515 -1.50708,0.50515c-0.98908,0 -1.844,-0.57437 -2.24942,-1.40777c-0.67641,0.60766 -1.35576,1.21034 -2.04062,1.80414l-3.38278,2.93286c-0.43993,0.38573 -1.01638,0.61955 -1.64745,0.61955c-1.38071,0 -2.5,-1.11929 -2.5,-2.5c0,-0.53871 0.17039,-1.03763 0.46022,-1.44579l0.23848,-0.34566l-1.50961,0.71976c-0.33764,0.17004 -0.71912,0.26579 -1.12296,0.26579c-1.38071,0 -2.5,-1.11929 -2.5,-2.5c0,-0.34214 0.06873,-0.66823 0.19313,-0.96521l1.14978,-2.9342l0.0352,0.01379l0.01308,-0.1285c5.2895,-10.25895 14.10084,-17.30671 24.0153,-22.9546c3.62184,-2.06323 9.38154,-4.72395 13.55084,-4.95371c1.34194,-0.07395 2.58423,0.73949 3.87634,1.10924c0,0 2.38254,0.75732 1.62522,3.13985c-0.02745,0.08635 -0.05703,0.16858 -0.08856,0.24688c0.92891,0.36479 1.58655,1.26953 1.58655,2.32786c0,0.87271 -0.44718,1.64098 -1.1249,2.08818l-4.10363,2.79088c-0.29632,0.28324 -5.0699,3.40671 -6.24153,4.24439c-1.85787,1.32832 -3.75987,2.64784 -5.64099,3.99573c1.02565,0.31168 1.77206,1.26486 1.77206,2.39236c0,0.20377 -0.02438,0.40185 -0.07038,0.59147l-0.8314,3.76589c0.35813,0.43258 0.57337,0.98778 0.57337,1.59324c0,0.22734 -0.03035,0.4476 -0.08721,0.65694l-0.64339,2.5904l0.07372,1.7115c0,0 0,2.23151 -2.10827,2.47797zM193.29915,138.71833c0.0457,0.18904 0.06991,0.38646 0.06991,0.58954c0,0.79502 -0.3711,1.50337 -0.94954,1.96127l-2.40988,1.94055c-0.45643,0.40618 -0.91096,0.81308 -1.36367,1.22083c3.5213,-2.48495 7.0687,-4.9304 10.73866,-7.24469l0.39444,-0.00245l-0.03349,-0.12476l1.01808,-0.27327c-2.42376,-0.09127 -5.05977,0.80353 -7.46451,1.93298z" fill="#967343" stroke="none" stroke-width="0.5" stroke-linecap="butt"></path><path d="" data-paper-data="{&quot;index&quot;:null}" fill="none" stroke="#000000" stroke-width="1.5" stroke-linecap="round"></path><path d="" data-paper-data="{&quot;index&quot;:null}" fill="none" stroke="#000000" stroke-width="1.5" stroke-linecap="round"></path><path d="" data-paper-data="{&quot;index&quot;:null}" fill="none" stroke="#000000" stroke-width="1.5" stroke-linecap="round"></path><path d="M272.80447,103.00662" data-paper-data="{&quot;index&quot;:null}" fill="none" stroke="#d8d8d8" stroke-width="4" stroke-linecap="round"></path><g stroke="#000000" stroke-width="1.5"><path d="M250.02069,183.35377c-21.48642,3.77342 -41.96357,-10.58581 -45.73698,-32.07225c-3.77342,-21.48642 10.58581,-41.96357 32.07225,-45.73698c21.48642,-3.77342 41.96357,10.58581 45.73698,32.07225c3.77342,21.48642 -10.58581,41.96357 -32.07225,45.73698z" fill="#d8d8d8" stroke-linecap="butt"></path><path d="M218.39154,133.28364l17.9442,3.00796" fill="none" stroke-linecap="round"></path><path d="M233.9046,145.42652l-1.43627,-6.96901" fill="none" stroke-linecap="round"></path><path d="M240.63984,135.40272l9.80923,-7.03242" fill="none" stroke-linecap="round"></path><path d="M243.89177,143.03541l-0.95185,-6.62931" fill="none" stroke-linecap="round"></path><path d="M235.75935,162.5671c0,0 0.18995,-11.78986 2.94554,-12.22322c3.29508,-0.51821 8.77592,11.51846 8.77592,11.51846" fill="none" stroke-linecap="round"></path></g></g></g></svg>