<svg version="1.1" xmlns="http://www.w3.org/2000/svg" xmlns:xlink="http://www.w3.org/1999/xlink" width="65.875" height="65.875" viewBox="0,0,65.875,65.875"><defs><radialGradient cx="225.93431" cy="173.01756" r="4.70347" gradientUnits="userSpaceOnUse" id="color-1"><stop offset="0" stop-color="#ffffff"></stop><stop offset="1" stop-color="#ffffff" stop-opacity="0"></stop></radialGradient><radialGradient cx="237.69298" cy="168.94122" r="4.54669" gradientUnits="userSpaceOnUse" id="color-2"><stop offset="0" stop-color="#ffffff"></stop><stop offset="1" stop-color="#ffffff" stop-opacity="0"></stop></radialGradient><radialGradient cx="227.97248" cy="165.6488" r="5.48738" gradientUnits="userSpaceOnUse" id="color-3"><stop offset="0" stop-color="#ffffff"></stop><stop offset="1" stop-color="#ffffff" stop-opacity="0"></stop></radialGradient><radialGradient cx="219.50624" cy="174.4286" r="6.11451" gradientUnits="userSpaceOnUse" id="color-4"><stop offset="0" stop-color="#ffffff"></stop><stop offset="1" stop-color="#ffffff" stop-opacity="0"></stop></radialGradient><radialGradient cx="234.71412" cy="178.66172" r="5.01703" gradientUnits="userSpaceOnUse" id="color-5"><stop offset="0" stop-color="#ffffff"></stop><stop offset="1" stop-color="#ffffff" stop-opacity="0"></stop></radialGradient><radialGradient cx="229.85387" cy="172.23365" r="7.9959" gradientUnits="userSpaceOnUse" id="color-6"><stop offset="0" stop-color="#ffffff"></stop><stop offset="1" stop-color="#ffffff" stop-opacity="0"></stop></radialGradient></defs><g transform="translate(-207.0625,-147.0625)"><g data-paper-data="{&quot;isPaintingLayer&quot;:true}" fill-rule="nonzero" stroke-linejoin="miter" stroke-miterlimit="10" stroke-dasharray="" stroke-dashoffset="0" style="mix-blend-mode: normal"><path d="M207.0625,180c0,-18.19088 14.74662,-32.9375 32.9375,-32.9375c18.19088,0 32.9375,14.74662 32.9375,32.9375c0,18.19088 -14.74662,32.9375 -32.9375,32.9375c-18.19088,0 -32.9375,-14.74662 -32.9375,-32.9375z" fill="#000000" stroke="none" stroke-width="0" stroke-linecap="butt"></path><path d="" data-paper-data="{&quot;index&quot;:null}" fill="#ffffff" stroke="#000000" stroke-width="1.5" stroke-linecap="round"></path><path d="" data-paper-data="{&quot;index&quot;:null}" fill="#ffffff" stroke="#000000" stroke-width="1.5" stroke-linecap="round"></path><g fill="#ffffff" stroke="#ffffff"><path d="" data-paper-data="{&quot;index&quot;:null}" stroke-width="1.5" stroke-linecap="round"></path><path d="M238.69954,185.72402c0,-6.11452 4.9568,-11.07132 11.07132,-11.07132c6.11452,0 11.07132,4.9568 11.07132,11.07132c0,6.11452 -4.9568,11.07132 -11.07132,11.07132c-6.11452,0 -11.07132,-4.9568 -11.07132,-11.07132z" stroke-width="1.5" stroke-linecap="butt"></path><path d="M248.03356,182.67235c0,0.50465 -0.10227,0.91375 -0.22844,0.91375c-0.12616,0 -0.22844,-0.4091 -0.22844,-0.91375c0,-0.50465 0.10227,-0.91375 0.22844,-0.91375c0.12616,0 0.22844,0.4091 0.22844,0.91375z" stroke-width="1.5" stroke-linecap="butt"></path><path d="M249.80396,182.7009c0,0.52042 -0.10227,0.94231 -0.22844,0.94231c-0.12616,0 -0.22844,-0.42188 -0.22844,-0.94231c0,-0.52042 0.10227,-0.94231 0.22844,-0.94231c0.12616,0 0.22844,0.42188 0.22844,0.94231z" stroke-width="1.5" stroke-linecap="butt"></path><path d="M251.04008,189.64483c0,0 -1.42926,0.27 -2.40313,0.28968c-0.90581,0.0183 -2.39406,-0.51812 -2.39406,-0.51812" stroke-width="1.5" stroke-linecap="round"></path><path d="M249.49813,186.50381c0,0.53619 -0.48683,0.97086 -1.08736,0.97086c-0.60053,0 -1.08736,-0.43467 -1.08736,-0.97086c0,-0.53619 0.48683,-0.97086 1.08736,-0.97086c0.60053,0 1.08736,0.43467 1.08736,0.97086z" stroke-width="0" stroke-linecap="butt"></path><path d="M256.52259,175.75243c0,0.74933 -1.46177,1.35678 -6.7606,1.35678c-5.29884,0 -7.97508,-0.60745 -7.97508,-1.35678c0,-0.74933 2.67625,-1.35678 7.97508,-1.35678c5.29884,0 6.7606,0.60745 6.7606,1.35678z" stroke-width="0" stroke-linecap="butt"></path><path d="M246.64381,175.60476c-1.38184,-1.83049 -1.08254,-8.88071 -1.04816,-8.93215c1.97259,-2.95136 6.29305,-0.38067 6.34772,-0.20089c0.59693,1.96297 1.16778,6.68529 -0.74234,9.54319c-0.75898,1.13557 -1.57029,0.30762 -2.13297,0.38441c-0.95639,0.13052 -1.53883,0.37834 -2.42425,-0.79456z" stroke-width="0" stroke-linecap="butt"></path><path d="M245.67179,171.08426v-1.65617h6.68181v1.65617z" stroke-width="0" stroke-linecap="butt"></path></g><path d="M230.32422,173.01756c0,2.59765 -1.96543,4.70347 -4.3899,4.70347c-2.42448,0 -4.3899,-2.10581 -4.3899,-4.70347c0,-2.59765 1.96543,-4.70347 4.3899,-4.70347c2.42448,0 4.3899,2.10581 4.3899,4.70347z" fill="url(#color-1)" stroke="none" stroke-width="0" stroke-linecap="butt"></path><path d="M242.23967,168.94122c0,2.2513 -2.03562,4.07634 -4.54669,4.07634c-2.51107,0 -4.54669,-1.82504 -4.54669,-4.07634c0,-2.2513 2.03562,-4.07634 4.54669,-4.07634c2.51107,0 4.54669,1.82504 4.54669,4.07634z" fill="url(#color-2)" stroke="none" stroke-width="0" stroke-linecap="butt"></path><path d="M222.4851,165.6488c0,-3.0306 2.45678,-5.48738 5.48738,-5.48738c3.0306,0 5.48738,2.45678 5.48738,5.48738c0,3.0306 -2.45678,5.48738 -5.48738,5.48738c-3.0306,0 -5.48738,-2.45678 -5.48738,-5.48738z" fill="url(#color-3)" stroke="none" stroke-width="0" stroke-linecap="butt"></path><path d="M213.39173,174.4286c0,-3.37695 2.73756,-6.11451 6.11451,-6.11451c3.37695,0 6.11451,2.73756 6.11451,6.11451c0,3.37695 -2.73756,6.11451 -6.11451,6.11451c-3.37695,0 -6.11451,-2.73756 -6.11451,-6.11451z" fill="url(#color-4)" stroke="none" stroke-width="0" stroke-linecap="butt"></path><path d="M229.69709,178.66172c0,-2.77083 2.2462,-5.01703 5.01703,-5.01703c2.77083,0 5.01703,2.2462 5.01703,5.01703c0,2.77083 -2.2462,5.01703 -5.01703,5.01703c-2.77083,0 -5.01703,-2.2462 -5.01703,-5.01703z" fill="url(#color-5)" stroke="none" stroke-width="0" stroke-linecap="butt"></path><path d="M221.85797,172.23365c0,-4.41601 3.57988,-7.9959 7.9959,-7.9959c4.41601,0 7.9959,3.57988 7.9959,7.9959c0,4.41601 -3.57988,7.9959 -7.9959,7.9959c-4.41601,0 -7.9959,-3.57988 -7.9959,-7.9959z" fill="url(#color-6)" stroke="none" stroke-width="0" stroke-linecap="butt"></path></g></g></svg>