<svg version="1.1" xmlns="http://www.w3.org/2000/svg" xmlns:xlink="http://www.w3.org/1999/xlink" width="683.7934" height="459.17857" viewBox="0,0,683.7934,459.17857"><defs><linearGradient x1="261.88608" y1="-15.53177" x2="261.88608" y2="443.6468" gradientUnits="userSpaceOnUse" id="color-1"><stop offset="0" stop-color="#fffffe"></stop><stop offset="1" stop-color="#fffffe" stop-opacity="0"></stop></linearGradient></defs><g transform="translate(80.01062,15.53177)"><g data-paper-data="{&quot;isPaintingLayer&quot;:true}" fill-rule="nonzero" stroke-linejoin="miter" stroke-miterlimit="10" stroke-dasharray="" stroke-dashoffset="0" style="mix-blend-mode: normal"><path d="M-80.01062,429.7056l246.17309,-445.23737h107.22473l330.39558,459.17857z" data-paper-data="{&quot;index&quot;:null}" fill="url(#color-1)" stroke="none" stroke-width="0" stroke-linecap="round"></path><g stroke-linecap="butt"><path d="M242.2385,269.91295c-35.20815,0 -63.75,-28.54185 -63.75,-63.75c0,-35.20815 28.54185,-63.75 63.75,-63.75c35.20815,0 63.75,28.54185 63.75,63.75c0,35.20815 -28.54185,63.75 -63.75,63.75z" data-paper-data="{&quot;index&quot;:null}" fill="#000000" stroke="#000000" stroke-width="1.5"></path><g data-paper-data="{&quot;index&quot;:null}" stroke="none" stroke-width="0"><path d="M267.26923,190.16977c12.02882,0 21.78009,8.29718 21.78009,8.29718c0,0 -9.75128,8.29718 -21.78009,8.29718c-12.02882,0 -21.78009,-8.29718 -21.78009,-8.29718c0,0 9.75128,-8.29718 21.78009,-8.29718z" fill="#ffffff"></path><path d="M268.30635,206.76414c-4.58242,0 -8.29718,-3.71479 -8.29718,-8.29718c0,-4.58242 3.71479,-8.29718 8.29718,-8.29718c4.58242,0 8.29718,3.71479 8.29718,8.29718c0,4.58242 -3.71479,8.29718 -8.29718,8.29718z" fill="#000000"></path></g><g data-paper-data="{&quot;index&quot;:null}" stroke="none" stroke-width="0"><path d="M218.80645,190.35706c12.02882,0 21.78009,8.29718 21.78009,8.29718c0,0 -9.75128,8.29718 -21.78009,8.29718c-12.02882,0 -21.78009,-8.29718 -21.78009,-8.29718c0,0 9.75128,-8.29718 21.78009,-8.29718z" fill="#ffffff"></path><path d="M219.8436,206.95143c-4.58242,0 -8.29718,-3.71479 -8.29718,-8.29718c0,-4.58239 3.71479,-8.29718 8.29718,-8.29718c4.58242,0 8.29718,3.71479 8.29718,8.29718c0,4.58242 -3.71479,8.29718 -8.29718,8.29718z" fill="#000000"></path></g></g></g></g></svg>