<svg version="1.1" xmlns="http://www.w3.org/2000/svg" xmlns:xlink="http://www.w3.org/1999/xlink" width="111.65905" height="80.52133" viewBox="0,0,111.65905,80.52133"><g transform="translate(-439.79897,-139.68784)"><g stroke-miterlimit="10"><g><path d="M443.27221,193.63239c-7.5574,-20.31713 2.78636,-42.91392 23.10353,-50.47131c20.31713,-7.5574 42.91392,2.78636 50.47131,23.10353c7.5574,20.31713 -2.78636,42.91392 -23.10353,50.47131c-20.31713,7.5574 -42.91392,-2.78636 -50.47131,-23.10353z" fill="#c6c6c6" stroke="#00144d" stroke-width="2" stroke-linecap="butt"/><path d="M442.23928,189.35832c0,0 -0.99979,-4.64024 -0.98228,-7.01317c0.02087,-2.82751 1.09928,-8.82842 1.09928,-8.82842l32.34434,-10.48059l4.56215,14.07933z" fill="#ffffff" stroke="#001e6f" stroke-width="2" stroke-linecap="butt"/><path d="M470.91504,178.77088l-3.84318,-12.29352l7.10572,-2.31285l3.84318,12.29352z" fill-opacity="0.35294" fill="#0015ff" stroke="none" stroke-width="0" stroke-linecap="butt"/><path d="M463.73224,181.2624l-3.84318,-12.29352l7.10571,-2.31284l3.84318,12.29352z" fill-opacity="0.45098" fill="#0015ff" stroke="none" stroke-width="0" stroke-linecap="butt"/><path d="M456.29182,183.63724l-3.84318,-12.29352l7.10572,-2.31285l3.84318,12.29352z" fill-opacity="0.61961" fill="#0015ff" stroke="none" stroke-width="0" stroke-linecap="butt"/><path d="M497.19265,187.67214l-6.16784,7.2156l-9.6494,-0.66475l3.32084,-18.6091z" fill-opacity="0.31373" fill="#006bff" stroke="#00144d" stroke-width="1.5" stroke-linecap="round"/><path d="M448.79305,186.14089l-3.84318,-12.29352l7.10571,-2.31284l3.84318,12.29352z" fill-opacity="0.70196" fill="#0015ff" stroke="none" stroke-width="0" stroke-linecap="butt"/><path d="M442.92041,188.13897c0,0 -0.78256,-4.94018 -0.74783,-7.32875c0.0332,-2.2839 0.95182,-6.70275 0.95182,-6.70275l1.30359,-0.1276l3.84318,12.29352z" fill-opacity="0.9098" fill="#0015ff" stroke="none" stroke-width="0" stroke-linecap="butt"/><path d="M445.04403,193.45096l36.39132,0.86819l2.89789,-19.73209l12.39944,13.37705l20.09336,-20.98424c0,0 1.64277,4.38496 2.04094,9.88959c0.45703,6.31855 -0.42431,14.11196 -2.24072,18.435c-1.58388,3.76963 -5.42903,9.51499 -9.86606,13.29806c-4.6734,3.98459 -9.63232,6.63946 -9.63232,6.63946c0,0 -6.89078,2.55911 -14.81791,3.37698c-6.22779,0.64254 -13.50425,-0.87573 -17.39565,-2.40512c-4.68231,-1.84025 -12.40806,-7.27046 -16.68526,-12.71105c-3.80215,-4.83634 -4.44295,-9.84521 -4.44295,-9.84521z" fill-opacity="0.25098" fill="#172aff" stroke="#00144d" stroke-width="1.5" stroke-linecap="round"/><path d="M459.54847,213.4359c0,0 5.61467,-9.55653 10.70289,-8.20815c5.08823,1.34838 9.58484,13.58439 9.58484,13.58439c0,0 -7.24302,0.22414 -10.73783,-0.70198c-3.24999,-0.86125 -9.54991,-4.67428 -9.54991,-4.67428z" fill-opacity="0.2" fill="#00ff15" stroke="#00144d" stroke-width="1.5" stroke-linecap="round"/><path d="M515.71176,196.72488c-1.5667,3.25833 -6.44316,8.61854 -6.44316,8.61854c0,0 -6.37968,-11.36833 -4.09865,-16.11231c2.28104,-4.74394 13.19358,-2.80275 13.19358,-2.80275c0,0 -1.19481,7.2664 -2.65175,10.29649z" fill-opacity="0.2" fill="#00ff15" stroke="#00144d" stroke-width="1.5" stroke-linecap="round"/><path d="M505.07778,178.76415l-37.2587,-35.39699l9.60357,-2.21573l33.31282,31.54025z" fill="#00f2ff" stroke="#00144d" stroke-width="1.5" stroke-linecap="butt"/><path d="M486.57109,166.29121c-2.17367,-5.77142 0.74288,-12.21219 6.51428,-14.38586c5.77142,-2.17367 12.21219,0.74288 14.38586,6.51428c2.17367,5.77142 -0.74288,12.21219 -6.51428,14.38586c-5.77142,2.17367 -12.21219,-0.74288 -14.38586,-6.51428z" fill="#00cdff" stroke="#00144d" stroke-width="1.5" stroke-linecap="butt"/><path d="M478.76773,143.05013l-6.61292,4.50902" fill="none" stroke="#00144d" stroke-width="1.5" stroke-linecap="round"/><path d="M475.85224,150.4409l6.19699,-4.35237" fill="none" stroke="#00144d" stroke-width="1.5" stroke-linecap="round"/><path d="M485.40903,149.33489l-5.93635,4.72912" fill="none" stroke="#00144d" stroke-width="1.5" stroke-linecap="round"/><path d="M488.88633,152.89318l-4.94785,4.83175" fill="none" stroke="#00144d" stroke-width="1.5" stroke-linecap="round"/><path d="M508.14582,170.92909l-5.1045,4.41583" fill="none" stroke="#00144d" stroke-width="1.5" stroke-linecap="round"/></g><g stroke="#00144d"><path d="M497.17755,195.03592c-1.43017,-4.7185 1.23559,-9.703 5.95409,-11.13317c4.7185,-1.43017 9.703,1.23559 11.13317,5.95409c1.43017,4.7185 -1.23559,9.703 -5.95409,11.13317c-4.7185,1.43017 -9.703,-1.23559 -11.13317,-5.95409z" fill="none" stroke-width="2.5" stroke-linecap="butt"/><path d="M501.518,189.61647l-1.17899,-3.88978l43.89898,-13.30558l1.17899,3.88978z" fill="#4d5995" stroke-width="1.5" stroke-linecap="butt"/><path d="M502.73395,185.8435l-2.69482,-8.89094l47.78876,-14.48456l2.69482,8.89094z" fill="#6b7ccf" stroke-width="1.5" stroke-linecap="butt"/><path d="M489.63315,204.2739l3.86826,-24.37243l4.30101,0.68263l-3.86826,24.37243z" fill-opacity="0.25098" fill="#172aff" stroke-width="1.5" stroke-linecap="butt"/><path d="M502.83774,205.30949l-4.713,-24.70564l4.10375,-0.9385l4.47861,24.87694z" fill-opacity="0.44314" fill="#172aff" stroke-width="1.5" stroke-linecap="butt"/><path d="M502.82476,211.96612l-9.24469,0.52677l4.21652,-28.1259z" fill-opacity="0.8549" fill="#006ace" stroke-width="1.5" stroke-linecap="round"/><path d="M507.56326,190.04425l-14.54465,-6.97539l7.95035,12.99369c0,0 -12.0696,-1.53692 -13.84857,-7.40631c-1.77896,-5.86938 1.53692,-12.0696 7.40631,-13.84857c5.86938,-1.77896 13.03655,15.2366 13.03655,15.2366z" fill="#6cbbcf" stroke-width="1.5" stroke-linecap="butt"/><path d="M487.25852,182.32798l14.54465,6.97539l-7.95035,-12.99369c0,0 12.0696,1.53692 13.84857,7.40631c1.77896,5.86938 -1.53692,12.0696 -7.40631,13.84857c-5.86938,1.77896 -13.03655,-15.2366 -13.03655,-15.2366z" fill="#6cbbcf" stroke-width="1.5" stroke-linecap="butt"/><path d="M494.29838,186.33738c-0.5116,-1.68792 0.44198,-3.47099 2.12991,-3.98261c1.68792,-0.5116 3.47099,0.44198 3.98261,2.12991c0.5116,1.68792 -0.44198,3.47099 -2.12991,3.98261c-1.68792,0.5116 -3.47099,-0.44198 -3.98261,-2.12991z" fill="#6b73cf" stroke-width="1.5" stroke-linecap="butt"/></g></g></g></svg>