<svg version="1.1" xmlns="http://www.w3.org/2000/svg" xmlns:xlink="http://www.w3.org/1999/xlink" width="118.41371" height="137.42517" viewBox="0,0,118.41371,137.42517"><g transform="translate(-190.14585,-104.69516)"><g data-paper-data="{&quot;isPaintingLayer&quot;:true}" fill="#ff38fc" fill-rule="nonzero" stroke="none" stroke-linecap="butt" stroke-linejoin="miter" stroke-miterlimit="10" stroke-dasharray="" stroke-dashoffset="0" style="mix-blend-mode: normal"><path d="M224.70846,191.73654c-18.6186,-23.31988 -12.94224,-70.95588 -12.94224,-70.95588c0,0 16.74155,43.34128 29.10814,60.42245c12.44914,17.1952 45.34067,42.40892 45.34067,42.40892c0,0 -43.74568,-9.62992 -61.50656,-31.87547z" data-paper-data="{&quot;index&quot;:null}" stroke-width="NaN"></path><path d="M203.90253,210.24484c-18.6186,-23.31988 -12.94224,-70.95588 -12.94224,-70.95588c0,0 16.74155,43.34128 29.10814,60.42245c12.44913,17.1952 45.34067,42.40892 45.34067,42.40892c0,0 -43.74569,-9.62993 -61.50657,-31.87548z" data-paper-data="{&quot;index&quot;:null}" stroke-width="NaN"></path><path d="M247.05298,175.65104c-18.61861,-23.31988 -12.94224,-70.95588 -12.94224,-70.95588c0,0 16.74156,43.34128 29.10815,60.42244c12.44913,17.1952 45.34067,42.40892 45.34067,42.40892c0,0 -43.74569,-9.62993 -61.50657,-31.87548z" data-paper-data="{&quot;index&quot;:null}" stroke-width="NaN"></path></g></g></svg>