<svg version="1.1" xmlns="http://www.w3.org/2000/svg" xmlns:xlink="http://www.w3.org/1999/xlink" width="35.97035" height="35.79139" viewBox="0,0,35.97035,35.79139"><defs><linearGradient x1="232.58476" y1="176.49264" x2="246.52627" y2="191.57075" gradientUnits="userSpaceOnUse" id="color-1"><stop offset="0" stop-color="#eccdff"></stop><stop offset="1" stop-color="#b1b9ff"></stop></linearGradient></defs><g transform="translate(-220.19442,-164.36761)"><g data-paper-data="{&quot;isPaintingLayer&quot;:true}" fill-rule="nonzero" stroke-linejoin="miter" stroke-miterlimit="10" stroke-dasharray="" stroke-dashoffset="0" style="mix-blend-mode: normal"><path d="M225.14521,177.11928c5.36475,-4.6255 24.85416,-16.22905 29.47966,-10.86432c4.6255,5.36475 -7.3645,25.66628 -12.72925,30.29177c-5.36475,4.6255 -13.46343,4.02622 -18.08893,-1.33853c-4.6255,-5.36475 -4.02622,-13.46343 1.33853,-18.08893z" fill="#eccdff" stroke="#b000ff" stroke-width="1" stroke-linecap="butt"></path><path d="" data-paper-data="{&quot;index&quot;:null}" fill="none" stroke="#000000" stroke-width="1.5" stroke-linecap="round"></path><path d="M227.95935,180.77795c4.29502,-3.70317 19.89819,-12.99295 23.60134,-8.69795c3.70317,4.29502 -5.89602,20.54836 -10.19102,24.25153c-4.29502,3.70317 -10.77879,3.22338 -14.48196,-1.07162c-3.70317,-4.29502 -3.22338,-10.77879 1.07162,-14.48196z" fill="url(#color-1)" stroke="none" stroke-width="NaN" stroke-linecap="butt"></path></g></g></svg>