<svg version="1.1" xmlns="http://www.w3.org/2000/svg" xmlns:xlink="http://www.w3.org/1999/xlink" width="113.64943" height="86.25051" viewBox="0,0,113.64943,86.25051"><g transform="translate(-246.64607,-82.87703)"><g data-paper-data="{&quot;isPaintingLayer&quot;:true}" fill-rule="nonzero" stroke-linejoin="miter" stroke-miterlimit="10" stroke-dasharray="" stroke-dashoffset="0" style="mix-blend-mode: normal"><g stroke="none" stroke-width="0.5" stroke-linecap="butt"><path d="M354.32807,135.49275c-0.86015,-0.77213 -0.40501,-1.61519 -0.19579,-1.91351c0.09634,-0.6953 0.21409,-1.42241 0.27987,-2.14687c-0.17346,-0.06075 -0.33806,-0.15607 -0.48338,-0.28652c-0.02721,-0.02442 -0.05326,-0.04964 -0.07815,-0.07561l-1.11047,-1.13803l0.00237,-0.00231l-0.00753,-0.003c-2.17205,-2.27523 -4.03167,-4.80537 -6.25582,-7.03747c-0.01113,-0.01116 -0.02223,-0.02226 -0.03332,-0.03329c0.97333,1.31062 1.9316,2.63199 2.80897,4.01412c0.80131,1.26232 2.14303,2.26688 2.51281,3.71561c0.01916,0.07507 0.03691,0.15037 0.05339,0.22589l0.04171,-0.01487l0.88721,2.48701c0.18407,0.48565 0.09711,1.05465 -0.27374,1.46779c-0.52921,0.58953 -1.43612,0.63843 -2.02564,0.10924c-0.07415,-0.06657 -0.13976,-0.13911 -0.19672,-0.21625l-1.04051,-1.35431l0.01012,-0.00778l-0.02969,-0.0183c-2.73383,-3.91466 -5.18432,-7.92674 -8.22258,-11.6337c-0.1542,-0.18814 -0.31467,-0.3716 -0.47962,-0.55151c2.02929,3.8085 3.87511,7.71242 5.11241,11.84924c0.26531,0.88703 1.2454,4.95358 1.19385,5.11093c-0.06437,0.1965 -0.15735,0.37491 -0.27179,0.53971l0.03822,0.02651l-0.96118,1.38596c-0.03711,0.0552 -0.07851,0.1085 -0.12422,0.15942c-0.52921,0.58953 -1.43612,0.63843 -2.02564,0.10924c-0.25109,-0.22539 -0.40411,-0.51931 -0.45616,-0.82802l-0.31992,-1.79393c-0.16505,-0.55568 -0.32199,-1.07864 -0.4696,-1.57786l-0.4506,0.69697c-0.04374,0.07031 -0.09422,0.13775 -0.15147,0.20151c-0.52921,0.58953 -1.43612,0.63843 -2.02564,0.10924c-0.27667,-0.24837 -0.43428,-0.57991 -0.46893,-0.92282l-0.16473,-1.56754l0.00407,-0.00042l-0.00531,-0.0119c-0.00117,-0.02144 -0.00228,-0.0439 -0.00336,-0.06726c-0.48916,0.59291 -1.08986,1.10126 -1.76711,1.42792c-0.3824,0.18445 -0.70364,-0.76598 -1.10625,-0.63121c-0.30401,0.10178 0.31311,0.6685 0.15751,0.94883c-0.00631,0.01138 -0.01267,0.02273 -0.01907,0.03405l0.00557,0.00217l-0.6446,1.65896c-0.06093,0.16836 -0.15461,0.32805 -0.28157,0.46947c-0.52921,0.58953 -1.43612,0.63843 -2.02564,0.10924c-0.25109,-0.22539 -0.40411,-0.51931 -0.45616,-0.82802l-0.31408,-1.76124c-0.59139,-1.58936 -2.19663,-3.17901 -3.4523,-4.71326c-0.47784,0.03904 -0.99405,-0.15717 -1.48453,-0.19565l-1.39714,0.12691c0.12482,1.47709 0.34124,2.93509 0.64195,4.38319l0.78043,0.21641l-0.0016,0.00579l0.01622,-0.00165c1.54078,0.46794 3.03998,1.09891 4.45613,1.8654c0,0 0.9665,0.52705 0.74436,1.50441c0.69005,0.57079 1.07585,1.26816 0.84966,2.08543c-0.30164,1.08987 -1.82438,1.38365 -2.95632,1.66934l1.66332,0.98663c0.0885,0.05017 0.17298,0.11058 0.25181,0.18135c0.58953,0.52921 0.63843,1.43612 0.10924,2.02564c-0.0011,0.00122 -0.00218,0.00243 -0.00328,0.00365c0.52218,0.44652 0.9876,0.84409 1.37075,1.15141l1.726,2.83283c-1.47774,-0.01049 -2.76716,-0.12452 -3.98188,-0.31764c-0.04424,0.14229 -0.11132,0.27935 -0.20149,0.40557l1.31464,1.04049c0.02666,0.02075 0.05279,0.04259 0.07832,0.06549c0.58953,0.52921 0.63843,1.43612 0.10924,2.02564c-0.21901,0.24398 -0.50273,0.39537 -0.80187,0.45151c0.12761,0.08436 0.25572,0.16731 0.3844,0.24845c0.11909,0.03299 0.23656,0.06738 0.35247,0.10394c0.86067,0.17093 1.72432,0.33822 2.59101,0.50719l0.01863,0.01314l0.00194,-0.00866l1.61681,0.36481l0.33516,0.01645c0.32147,0.0132 0.64046,0.13408 0.89857,0.36579c0.58953,0.52921 0.63843,1.43612 0.10924,2.02564c-0.25463,0.28366 -0.59671,0.44216 -0.94881,0.47132l-2.17047,0.1851l-0.02734,-0.32062c-0.19504,-0.02745 -0.38925,-0.05552 -0.58261,-0.08429c-5.63635,0.84175 -11.30934,-1.60518 -16.32625,-4.71241c-1.20229,-0.53731 -2.43285,-1.16965 -2.86045,-1.65654c-0.03123,-0.03557 -0.06181,-0.07157 -0.09177,-0.10803l-0.01736,0.01932l-1.58797,-1.42549c-0.58953,-0.52921 -0.63843,-1.43612 -0.10924,-2.02564c0.50344,-0.56085 1.34874,-0.63239 1.93739,-0.18238l1.85887,1.38822c0.14841,0.1016 0.29702,0.20224 0.44584,0.30188c0.01854,-0.02345 0.03795,-0.04645 0.0582,-0.06901c0.38344,-0.42716 0.96517,-0.57047 1.48079,-0.41574l1.98817,0.55129c0.02321,-0.0304 0.04782,-0.06015 0.07382,-0.08911c0.00329,-0.00367 0.00659,-0.00731 0.00992,-0.01094l-0.07758,-0.02414c-0.20204,-0.058 -0.39442,-0.16148 -0.56136,-0.31134c-0.20918,-0.18777 -0.35029,-0.42312 -0.42167,-0.67495c-0.2881,-0.18562 -0.46495,-0.45931 -0.54824,-0.61448c-0.79804,-0.65807 -1.48405,-0.94708 -1.71391,-1.46284c-0.08709,-0.06578 -0.1743,-0.13138 -0.26168,-0.19678l-1.41488,-0.86233c-0.08282,-0.04834 -0.162,-0.10577 -0.23613,-0.17233c-0.58953,-0.52921 -0.63843,-1.43612 -0.10924,-2.02564c0.47139,-0.52513 1.24249,-0.62131 1.82199,-0.26201l1.38065,0.81895l-0.00991,0.01673l0.10403,0.06342l-0.11626,0.19075c0.00331,0.00129 0.00661,0.0026 0.0099,0.0039l0.16323,-0.15813c0.79591,0.59364 1.58108,1.20158 2.36089,1.81639c0.05529,-0.10803 0.1253,-0.21076 0.2102,-0.30533c0.3943,-0.43925 0.9983,-0.57837 1.52448,-0.40185l1.42107,0.44209c0.07321,0.02201 0.14685,0.04376 0.22087,0.0653c-0.11968,-0.09178 -0.23646,-0.18415 -0.34988,-0.27713c-0.40002,-0.14264 -0.82224,-0.29808 -1.2748,-0.46519l-0.05623,-0.05047l-0.00987,0.02019l-2.54732,-1.24609c-0.12722,-0.05869 -0.24791,-0.13714 -0.35763,-0.23562c-0.58953,-0.52921 -0.63843,-1.43612 -0.10924,-2.02564c0.35198,-0.3921 0.87106,-0.54504 1.35268,-0.44781l0.60421,0.1114c-0.84125,-0.77565 -1.66096,-1.64872 -2.4835,-2.7047l2.48733,-0.06852c-0.32685,-0.87983 -0.49636,-1.90506 -0.77643,-3.49306l0.00368,-0.01322l-0.00568,0.0009l-0.23418,-1.48172c-0.02763,-0.16626 -0.02601,-0.33674 0.00533,-0.50308l-0.09434,-0.93472c-0.01859,-0.17764 -0.00416,-0.35842 0.04381,-0.53234c-0.19558,-1.64964 -0.13737,-3.22931 0.53221,-4.31249c0.04128,-0.06678 0.0841,-0.13241 0.12829,-0.19695l-0.03617,-0.01906l0.47235,-0.89632l-0.10514,-0.03446l0.56742,-1.73126c0.059,-0.19469 0.16053,-0.37985 0.30539,-0.54123c0.52921,-0.58953 1.43612,-0.63843 2.02564,-0.10924c0.34733,0.31179 0.50701,0.75471 0.47135,1.18656l-0.04218,0.57929c0.01945,0.09757 0.02871,0.19689 0.02772,0.29623l-0.00321,0.60373c0.50549,-0.0838 1.03311,-0.11228 1.55138,-0.07896c1.57798,0.10145 3.09105,0.96704 3.74733,2.04365c1.83768,0.94096 3.07622,3.33247 3.64388,5.05842l-0.00273,0.00959c0.44785,-0.08898 1.01577,0.62505 1.51399,0.5001c1.45005,-0.36367 0.87375,-3.57278 2.34794,-3.82118c0.578,-0.09741 1.03785,-0.02154 1.40456,0.17356l-0.37049,-1.42547c-0.1213,-0.43991 -0.03042,-0.92879 0.28149,-1.30194c-1.7483,-3.72186 -3.8299,-7.30378 -5.82883,-10.87105l-0.71905,-1.19772c-0.33444,-0.52893 -0.29301,-1.2357 0.14567,-1.72436c0.51231,-0.57073 1.37866,-0.63476 1.96831,-0.1581l2.23727,1.77972l-0.26772,0.33654c1.00151,0.67606 1.93338,1.41797 2.81069,2.21324c0.4303,-0.34364 1.01869,-0.40652 1.50781,-0.17473l2.59043,1.15437c0.62439,0.18998 1.20442,0.43553 1.67271,0.7645c0.26407,0.18553 0.52178,0.37948 0.77382,0.5808c-0.08487,-0.4278 0.02566,-0.88892 0.33942,-1.23845c0.39761,-0.44294 1.00843,-0.58067 1.53766,-0.39736l2.19414,0.70553l-0.01195,0.03715c0.11837,0.03593 0.23544,0.07678 0.35103,0.12342c0.65519,0.26426 2.52758,2.9022 2.94179,3.54045c2.55387,3.93518 3.07757,7.55678 2.51303,12.12878l-0.5686,1.019c0,0 -0.95822,1.06744 -2.02564,0.10924z" fill="#989898"></path><path d="M334.66283,107.46073c-1.08245,0.94121 -2.02366,-0.14125 -2.02366,-0.14125l-0.96981,-1.14177c-0.64557,-0.38938 -2.82265,-1.8798 -3.75871,-1.78245c-1.3682,0.1423 -1.85901,2.03511 -2.88941,2.94641c-0.2078,0.1838 -0.42125,0.37928 -0.63982,0.58349l-1.24882,1.53292l-0.19282,-0.15707c-0.22629,0.21664 -0.4563,0.43556 -0.68957,0.6542c-1.42087,1.87753 -3.17745,3.31955 -5.36422,5.15276l-0.05412,0.01225l0.01333,0.0184l-1.20702,0.87422c-0.53677,0.40576 -1.30266,0.38833 -1.82213,-0.07798c-0.21121,-0.18959 -0.35302,-0.42766 -0.42372,-0.68223c-0.22362,0.11839 -0.44847,0.23338 -0.67466,0.34457c-0.48393,0.30934 -0.96566,0.62527 -1.44071,0.95294l-0.08317,0.062l0.01219,0.01683l-1.20702,0.87421c-0.45628,0.34493 -1.07815,0.38403 -1.57345,0.10156c-0.94515,1.59053 -1.69159,3.33224 -2.11576,5.33956c-0.31049,1.46927 -0.18859,3.07293 0.06085,4.70467c0.19065,0.05946 0.37186,0.15988 0.53019,0.30201c0.20425,0.18335 0.3436,0.41202 0.4165,0.65712l0.49805,1.57141l0.01463,-1.04124c0.00294,-0.3371 0.12405,-0.67456 0.36693,-0.94514c0.0359,-0.03999 0.07354,-0.07749 0.11269,-0.11251c0.0306,-0.0427 0.06384,-0.08415 0.09973,-0.12414c0.52921,-0.58953 1.43612,-0.63843 2.02564,-0.10924c0.264,0.237 0.4196,0.54976 0.4634,0.87583l0.21997,1.55825l0.06934,0.22275l-0.04704,0.01464l0.01439,0.02574c0.0036,0.04024 0.0078,0.08087 0.01253,0.1219c0.23844,-0.18712 0.52436,-0.28891 0.81462,-0.30303l0.01921,-2.03259c0.0015,-0.33913 0.12262,-0.67905 0.36699,-0.95125c0.20711,-0.23072 0.47208,-0.37864 0.75321,-0.44149l-0.00234,-1.43502c-0.00198,-0.34402 0.11907,-0.68984 0.36698,-0.96602c0.3789,-0.42209 0.95143,-0.56705 1.46245,-0.42111c1.86684,-2.71358 3.72175,-4.52783 6.25323,-5.65457c0.02269,-0.1061 0.05757,-0.21026 0.10476,-0.31031c-0.13278,-0.05938 -0.25873,-0.14013 -0.37279,-0.24252c-0.52286,-0.46935 -0.62046,-1.23582 -0.26666,-1.81447l-0.20269,-0.03889c-0.25612,-0.04456 -0.50324,-0.15926 -0.71097,-0.34572c-0.58953,-0.52921 -0.63843,-1.43612 -0.10924,-2.02564c0.11447,-0.12751 0.24659,-0.22975 0.38936,-0.30627l1.43001,-0.81035l0.01815,0.03205l0.07908,-0.08235c2.28265,-0.87027 3.79873,-1.3746 5.52765,-1.57782c0.02035,-0.00858 0.04067,-0.01712 0.06098,-0.02563l-0.06398,-0.3395l2.00615,-0.37801c2.39755,-0.76591 4.73739,-1.06505 7.48381,-1.10563c0,0 1.43429,-0.01949 1.45379,1.41481c0.01949,1.43429 -1.41481,1.45379 -1.41481,1.45379c-1.54095,0.01899 -2.91941,0.12379 -4.25495,0.3659c0.2678,0.51484 0.20517,1.16319 -0.20536,1.62053c-0.14237,0.15859 -0.31207,0.27807 -0.49557,0.35769l-0.73177,0.33738c-0.04396,0.07085 -0.09477,0.13885 -0.15241,0.20308c-0.12977,0.14455 -0.28226,0.25662 -0.44718,0.33561l-0.69129,0.35107l0.91188,0.04471c0.32149,0.01321 0.64047,0.13407 0.89858,0.36579c0.23125,0.2076 0.37932,0.47331 0.44194,0.75517c0.21571,0.05561 0.42161,0.16246 0.59884,0.32155c0.58953,0.52921 0.63843,1.43612 0.10924,2.02564c-0.23666,0.26364 -0.54885,0.41915 -0.87441,0.4632l-1.63471,0.23256l-0.00144,-0.01008c-0.01153,0.00496 -0.02307,0.00989 -0.03464,0.01476c-2.50052,1.05464 -5.72162,0.08611 -8.32878,1.3592c-2.03166,0.99206 -3.36691,3.0082 -4.56296,4.81323l-0.59891,1.84326c-0.05883,0.19592 -0.16072,0.3823 -0.30643,0.54461c-0.11061,0.12322 -0.2377,0.22281 -0.37495,0.29843c0.76676,1.89678 0.64275,4.25444 0.93384,6.32094l0.44929,1.61776c0.13607,0.46156 0.03677,0.98082 -0.30826,1.36518c-0.35378,0.3941 -0.87635,0.5466 -1.36006,0.4463c-0.05995,0.13844 -0.14296,0.26971 -0.24928,0.38816c-0.52921,0.58953 -1.43612,0.63843 -2.02564,0.10924c-0.17834,-0.16007 -0.30719,-0.35472 -0.38554,-0.56469l-0.52247,-1.31483l-0.04242,0.48859c-0.02315,0.30436 -0.14319,0.60375 -0.36286,0.84846c-0.07157,0.07975 -0.15008,0.1496 -0.23376,0.20946l-0.00222,0.15614c-0.00298,0.33705 -0.1241,0.67441 -0.36695,0.94495c-0.52921,0.58953 -1.43612,0.63843 -2.02564,0.10924l-1.08618,-0.97503l0.02389,0.16023c0.06435,0.41123 -0.04992,0.84695 -0.34964,1.18086c-0.52921,0.58953 -1.43612,0.63843 -2.02564,0.10924c-0.22001,-0.19749 -0.36473,-0.44761 -0.4322,-0.7142l-0.74099,-2.75014l0.28834,-0.0777c-0.03084,-0.18248 -0.06031,-0.35946 -0.08825,-0.53159c-2.83001,-7.32772 -2.19145,-15.8463 2.42804,-22.5184c1.03024,-1.48802 2.25947,-2.77798 3.50886,-4.04907c-0.36339,-0.53294 -0.33153,-1.26407 0.11863,-1.76554c0.03354,-0.03737 0.06859,-0.07255 0.10499,-0.10556l1.69518,-1.57297c0.45862,-0.43975 0.98992,-0.78177 1.56373,-1.05929l-0.14549,-0.25677l2.30582,-1.30662c0.52539,-0.31418 1.21475,-0.26615 1.6942,0.16423c0.58953,0.52921 0.63843,1.43612 0.10924,2.02564l-0.50032,0.55736c0.49807,-0.11449 1.01682,-0.23895 1.56139,-0.40296l0.05876,0.0037l-0.00361,-0.01674l1.75966,-0.37965c0.42288,-0.09657 0.88314,-0.0004 1.23863,0.29611l0.12648,-0.0838c0.17627,-0.15384 0.35487,-0.31069 0.53593,-0.47098c0.36325,-0.3216 3.43537,-3.48594 4.1186,-3.58274c2.41556,-0.34224 4.41646,1.25433 6.27109,2.37787l1.28771,1.45454c0,0 0.94121,1.08245 -0.14125,2.02366zM316.82039,109.40528c-0.58123,0.08939 -1.14049,0.14257 -1.71685,0.16578l0.02829,0.19889l-0.39954,0.05684c-0.68888,0.77444 -1.38476,1.53259 -2.06745,2.29311c0.14858,-0.06579 0.29441,-0.13357 0.43545,-0.20493c1.25668,-0.81316 2.50946,-1.63193 3.7201,-2.50969z" fill="#989898"></path><path d="M345.04879,148.42961c-1.31679,-0.56889 -0.74791,-1.88569 -0.74791,-1.88569l0.06557,-0.11508c1.20427,-1.1501 -1.69189,0.53823 -3.19187,-1.76363c-0.53273,-0.81752 0.17822,-1.94343 0.26733,-2.91514c0,0 0.3079,-1.401 1.70889,-1.09309c1.401,0.3079 1.09309,1.70889 1.09309,1.70889c-1.35747,2.12663 2.14089,0.09554 3.19982,2.14558c0.4111,0.79586 -0.20584,1.77966 -0.30875,2.66949l-0.2005,0.50077c0,0 -0.56889,1.31679 -1.88569,0.74791z" fill="#989898"></path><path d="M354.26645,122.23702c1.37712,-0.40139 1.77851,0.97575 1.77851,0.97575l0.1173,0.60077c1.26519,2.00744 2.76662,3.78719 3.56183,6.07419c1.72931,4.97336 -0.79514,9.53527 -3.19683,13.74321c-4.42533,6.67436 -10.68325,11.76576 -17.33275,16.15263c-1.70044,1.12182 -5.1645,3.52364 -7.31478,3.61596c-1.66212,0.07135 -4.58572,-1.80916 -5.98347,-2.59818c-3.52952,-1.99239 -6.44671,-3.97556 -8.79947,-6.80872l-0.34082,0.32772l-1.98004,-2.05916c-0.52517,-0.53591 -0.5502,-1.39496 -0.0419,-1.96121c0.46716,-0.5204 1.22861,-0.61954 1.80629,-0.2716l1.3001,0.74745l-0.00374,0.0065c0.2914,0.26488 0.55619,0.56333 0.87904,0.78852c0.58279,0.40654 -0.66694,-1.25633 -1.04414,-1.85855c-0.48114,-0.7682 -0.91816,-1.56505 -1.43294,-2.31113c-0.1061,-0.15379 -0.21593,-0.30692 -0.32901,-0.4595c-0.88227,0.30962 -2.15077,-0.04638 -3.02933,-0.41525c-1.79234,-0.75255 -4.14277,-5.05316 -5.07336,-6.63454l-1.06802,-4.16015c1.41103,0.419 2.73146,1.00498 3.96344,1.72947c-0.58256,-1.03493 -1.19392,-2.09201 -1.73209,-3.14555c-0.53816,0.43883 -1.33051,0.43289 -1.86347,-0.04552c-0.14293,-0.12831 -0.25409,-0.27881 -0.33293,-0.44164l-0.66311,-1.29168l0.34316,-0.17615c-0.38539,-0.66647 -0.67811,-1.37532 -0.81625,-2.11826l0.00475,-0.02693l-0.00863,0.00122l-0.2518,-1.78389c-0.06035,-0.40774 0.05458,-0.83834 0.35145,-1.16905c0.52921,-0.58953 1.43612,-0.63843 2.02564,-0.10924c0.06342,0.05693 0.12058,0.11824 0.17145,0.18303l0.01771,0.02178c0.36579,-1.97472 0.7252,-3.97491 1.1541,-5.95115c0.03084,-0.15523 0.06367,-0.31093 0.0986,-0.46722l-0.42438,-0.06002l0.39905,-2.82142c0.03541,-0.27932 0.15325,-0.5511 0.35556,-0.77648c0.20377,-0.227 0.46356,-0.37385 0.73967,-0.43841c0.15334,-0.50135 0.31559,-0.99837 0.48811,-1.49019c0.01544,-0.28377 0.02974,-0.56753 0.0427,-0.85132l-0.15173,-0.03227l0.5916,-2.78165c0.04773,-0.24656 0.16083,-0.48377 0.34081,-0.68424c0.52921,-0.58953 1.43612,-0.63843 2.02564,-0.10924c0.3912,0.35116 0.54432,0.86863 0.44849,1.34934l-0.38292,2.10359c-0.05872,1.5924 -0.08257,3.19766 -0.12178,4.80124c1.64719,-1.33125 3.24204,-2.70265 4.84759,-4.08273l0.19001,-0.20809c0.12426,-0.13642 0.26892,-0.24341 0.42515,-0.32048c0.64061,-0.55007 1.28421,-1.10084 1.93476,-1.65039c0.79031,-0.66761 1.78376,-1.78448 2.83252,-2.4539c-0.0443,-0.39284 0.07304,-0.80215 0.35791,-1.11949c0.0843,-0.09392 0.17819,-0.17411 0.27885,-0.24042l1.83366,-1.2654c0.53534,-0.38664 1.28567,-0.36266 1.79713,0.09647c0.39527,0.35483 0.54751,0.87946 0.4454,1.36439c3.20767,0.29744 6.10511,0.82836 8.65522,2.42221l0.26237,-0.46442l1.68553,0.95222c0.09859,0.05303 0.19251,0.11855 0.27952,0.19665c0.58953,0.52921 0.63843,1.43612 0.10924,2.02564c-0.20982,0.23373 -0.47901,0.38249 -0.76427,0.44393c0.44461,0.27792 0.9446,0.59869 1.53738,0.96725l2.46281,1.34797c0.10505,0.05462 0.205,0.12324 0.2972,0.20601c0.58953,0.52921 0.63843,1.43612 0.10924,2.02564c-0.10218,0.11384 -0.21845,0.2075 -0.34379,0.28075c0.18102,0.16666 0.36271,0.32926 0.54892,0.47766c0.7787,0.62054 1.46738,1.34634 2.20108,2.01952l0.02225,0.04456l0.01117,-0.01064l1.93575,2.02978c0.52157,0.53618 0.54529,1.39249 0.0382,1.9574c-0.50659,0.56435 -1.35932,0.63327 -1.94841,0.17389l-2.26966,-1.73333l0.24638,-0.32261c-0.88822,-0.51917 -1.73337,-1.08249 -2.55042,-1.68253c1.28245,2.47807 1.87137,5.42829 1.59057,8.11573l0.55772,0.04745l-0.13391,1.57391c-0.02272,0.30514 -0.14281,0.60541 -0.36302,0.85073c-0.52921,0.58953 -1.43612,0.63843 -2.02564,0.10924c-0.13259,-0.11902 -0.23783,-0.25714 -0.31529,-0.40646l-0.90886,-1.65568l0.00121,-0.00067l-0.00337,-0.00325c-0.22232,-0.42442 -0.46588,-0.83883 -0.69448,-1.2603c-0.03545,0.58374 -0.09214,1.16742 -0.09421,1.56807c-0.01494,2.90321 0.1798,5.07818 -0.05128,7.45547l0.46247,0.00777l-0.04815,2.86108c-0.00379,0.33588 -0.12491,0.67184 -0.36691,0.94143c-0.52921,0.58953 -1.43612,0.63843 -2.02564,0.10924c-0.14628,-0.1313 -0.25927,-0.28588 -0.33842,-0.45309c-0.47857,0.16863 -1.032,0.07756 -1.43621,-0.28528c-0.28794,-0.25849 -0.44693,-0.6071 -0.47255,-0.96481l-0.20912,-2.85921l0.27089,-0.01981c0.00359,-0.09444 0.008,-0.18889 0.01333,-0.2833c-0.04568,-0.22868 -0.087,-0.45628 -0.12433,-0.68381c-0.89236,1.19363 -1.65305,2.31774 -2.52117,3.39008c-0.00578,0.02451 -0.01158,0.04903 -0.0174,0.07353l-0.04118,-0.00146c-0.01891,0.02319 -0.03788,0.04634 -0.05691,0.06946l0.06544,0.02544l-0.13758,0.35408l0.1084,0.05256l-0.65926,1.3596c-0.05891,0.12889 -0.13806,0.25118 -0.23773,0.36219c-0.52921,0.58953 -1.43612,0.63843 -2.02564,0.10924c-0.46558,-0.41793 -0.59396,-1.07145 -0.36672,-1.61816l0.61744,-1.58909c0.84097,-3.56949 1.18693,-7.14714 1.47465,-10.8007c0.03271,-0.4153 -0.04088,-0.95631 -0.09366,-1.4849c-0.16298,0.20841 -0.32331,0.3894 -0.45672,0.51309c-0.70523,0.65394 -1.5375,1.15584 -2.30625,1.73376c0,0 -1.15002,0.85735 -2.00737,-0.29269c-0.85735,-1.15002 0.29269,-2.00737 0.29269,-2.00737c0.55935,-0.41302 5.00418,-4.85387 5.46583,-4.7116c1.22736,0.37824 1.71674,2.00752 2.09129,3.23601c0.31287,1.0262 -0.0559,2.14545 -0.12411,3.21611c-0.11053,1.73454 -0.26291,3.45434 -0.47779,5.16375l1.10597,-1.23206c-0.00574,-0.65972 0.00221,-1.35591 0.01826,-2.10501l0.01851,-0.04924l-0.01474,-0.00136l0.26188,-2.84196c0.02445,-0.30192 0.14434,-0.59857 0.3623,-0.84137c0.35241,-0.39259 0.8723,-0.54542 1.35442,-0.44745c0.06006,-0.76196 0.21775,-1.45253 0.84351,-1.6585c0.61699,-0.20306 1.24635,0.00472 1.84484,0.37329c-0.80284,-2.04875 -1.72685,-4.60981 -1.38784,-6.20416c-1.17838,-1.07371 -2.34576,-2.20633 -3.55655,-3.37055l-0.01151,-0.02491l-0.00667,0.00645l-0.91061,-0.94116l-1.19781,-0.60722c-0.12031,-0.05764 -0.23454,-0.13315 -0.33882,-0.22679c-0.42799,-0.3842 -0.57105,-0.96746 -0.4148,-1.48382c-1.57105,-0.38011 -3.09235,-0.79655 -4.15143,-0.89065c-1.20828,0.96903 -3.65387,2.86514 -3.90152,3.07435c-0.77297,0.65301 -1.53618,1.30805 -2.29627,1.96166l-1.3039,1.58696l-0.1554,-0.12768c-0.07847,0.06964 -0.15638,0.13878 -0.23377,0.2074c-1.73255,3.28404 -3.98533,6.46137 -6.03055,9.62131c-0.1835,0.98804 -0.41318,1.96388 -0.70224,2.92364l0.45451,0.10243l-0.46477,2.0624c1.11781,1.88456 2.02831,3.9617 2.99297,6.33686c0.15958,0.39293 0.48442,1.16671 0.80919,2.06159c1.69909,1.93293 3.13087,4.15977 4.3073,6.52166c0.81744,1.64111 2.35074,3.90478 0.66147,5.29364c2.23345,1.41602 4.36949,3.49697 6.4599,4.67893c0.9057,0.5121 3.48166,2.29678 4.52269,2.22756c1.54299,-0.10257 4.55017,-2.32402 5.78214,-3.14057c6.27714,-4.16054 12.29568,-8.93821 16.47168,-15.26299c1.91536,-3.35633 4.37351,-7.28519 2.92713,-11.30742c-0.73358,-2.03997 -2.13591,-3.67092 -3.27527,-5.47617l-0.445,-1.32843c0,0 -0.40139,-1.37712 0.97575,-1.77851z" fill="#818181"></path></g><g stroke="#000000" stroke-width="1.5"><path d="M318.42911,150.74209c-15.25136,15.59811 -40.25979,15.87921 -55.85791,0.62784c-15.59811,-15.25136 -15.87921,-40.25979 -0.62785,-55.85791c15.25136,-15.59811 40.25979,-15.87921 55.85791,-0.62785c15.59811,15.25136 15.87921,40.25979 0.62785,55.85791z" data-paper-data="{&quot;index&quot;:null}" fill="#d8d8d8" stroke-linecap="butt"></path><path d="M300.21779,109.1182l-5.72009,-5.59292l5.57703,-7.1342" data-paper-data="{&quot;index&quot;:null}" fill="none" stroke-linecap="round"></path><path d="M280.19442,117.41746l7.00704,-5.73598l5.72009,5.59291" data-paper-data="{&quot;index&quot;:null}" fill="none" stroke-linecap="round"></path><path d="M312.22539,122.49013l-5.59684,5.4373" fill="none" stroke-linecap="round"></path></g><g stroke="none" stroke-width="0.5" stroke-linecap="butt"><path d="M251.88599,135.31058c0.89948,-0.40291 1.95528,-0.00037 2.3582,0.89911c0.08207,0.18323 0.13072,0.37294 0.14856,0.56231l0.25217,2.14292c0.01407,0.11471 0.02927,0.22931 0.04546,0.3438c0.08937,-0.31663 0.19281,-0.60897 0.31287,-0.87104c0.04822,-0.10528 0.09955,-0.20868 0.15364,-0.31042l-0.03004,-0.01491l1.38698,-2.79438c0.1768,-0.36303 0.47718,-0.66841 0.8745,-0.84639c0.89947,-0.40291 1.95528,-0.00037 2.3582,0.89911c0.02414,0.05388 0.04536,0.10831 0.0638,0.16317l0.83246,2.3915l-0.04744,0.01652l0.09556,0.14638c0.09071,0.61507 0.26545,1.46065 0.44334,2.40926c0.09233,-0.18995 0.18961,-0.37989 0.29238,-0.57082l-0.36144,-0.16635l1.48855,-3.23436c0.17352,-0.38234 0.48192,-0.70531 0.89525,-0.89047c0.1237,-0.05541 0.25036,-0.09558 0.37787,-0.12133c0.26588,-0.72845 0.81461,-1.35282 1.5782,-1.69488c0.38628,-0.17303 0.78987,-0.25692 1.18769,-0.2605l0.87078,-0.02785l-1.05264,-0.26657c-0.86205,-0.21008 -1.62139,-0.80202 -2.01221,-1.67447c-0.59021,-1.3176 -0.14343,-2.83647 0.99126,-3.64091l-0.00513,-0.00168l-3.03756,-0.6876c-0.8946,-0.19237 -1.68874,-0.79354 -2.09148,-1.69265c-0.67152,-1.49912 -0.00061,-3.2588 1.49852,-3.93033c0.39892,-0.17869 0.81626,-0.26232 1.22667,-0.26059l3.03919,-0.05637l0.45807,-0.05406c0,0 2.32383,-0.22712 3.05481,1.78007l3.2115,1.051c0.19214,0.06208 0.37781,0.14354 0.55385,0.24321c0.30241,-0.98632 1.54475,-1.48935 2.51702,-2.13122l-0.17452,-0.29711l0.02975,-0.01747c-1.10976,-0.80532 -1.97117,-1.93787 -0.87737,-3.59231c0.17053,-0.25796 0.40233,-0.4298 0.67358,-0.54612c0.02043,-0.05187 0.04338,-0.10466 0.06896,-0.1584c0.76699,-1.61135 2.37835,-0.84436 2.37835,-0.84436l0.6803,0.34408l2.22862,0.69168c0.47616,0.14519 0.88937,0.48771 1.10886,0.97769c0.40291,0.89948 0.00037,1.95528 -0.89911,2.3582c-0.36158,0.16197 -0.74842,0.19376 -1.10795,0.11547l-0.61291,-0.12566l1.20107,2.04481c0.03786,0.06254 0.0723,0.12811 0.10296,0.19654c0.40291,0.89948 0.00036,1.95528 -0.89911,2.3582c-0.02565,0.01149 -0.05141,0.02232 -0.07729,0.0325c0.37471,0.24 0.69446,0.49724 0.87789,0.73036c0.03155,0.04009 0.06239,0.08063 0.09257,0.12157l0.01661,-0.01574l1.34197,1.41649c0.14745,0.14851 0.27109,0.32565 0.36171,0.52795c0.08835,0.19724 0.13798,0.402 0.15212,0.60574c0.34878,0.01476 0.68631,0.13193 0.96875,0.33484l0.1435,0.0994c0.12311,-0.29587 0.32564,-0.55925 0.59423,-0.75516c-0.10909,-0.64444 0.16421,-1.41931 1.0756,-2.3504c0.60527,-0.61836 1.47236,-0.63569 2.40333,-0.50635c-0.00444,-0.68601 0.38919,-1.34269 1.05545,-1.64113c0.47535,-0.21294 0.99436,-0.2009 1.4376,-0.00946l1.93128,0.82689l-0.25667,0.59948l0.4708,0.44166c0.18072,0.1619 0.33116,0.36351 0.43677,0.59925c0.26782,0.59789 0.17975,1.26486 -0.17358,1.76321c0.00145,0.00318 0.00287,0.00634 0.00429,0.00953c0.40291,0.89948 0.00037,1.95528 -0.89911,2.3582c-0.47674,0.21355 -0.99741,0.20083 -1.44148,0.00777l0.73031,1.31769c0.02819,0.0496 0.05425,0.10098 0.07807,0.15412c0.40291,0.89948 0.00037,1.95528 -0.89911,2.3582c-0.39425,0.17659 -0.81855,0.19845 -1.20472,0.09155c0.22016,0.83026 -0.18687,1.72145 -0.99625,2.084c-0.51315,0.22987 -1.0772,0.19757 -1.54186,-0.0396c0.20098,0.8208 -0.20589,1.6934 -1.00462,2.05118c-0.03059,0.0137 -0.06136,0.02647 -0.09226,0.03831l1.12941,2.73944c0.02348,-0.01176 0.04731,-0.02308 0.07152,-0.03392c0.89948,-0.40291 1.95528,-0.00037 2.3582,0.89911c0.014,0.03125 0.02703,0.0627 0.03909,0.0943l0.12942,0.33217c0.12491,-0.29563 0.23653,-0.6291 0.39103,-0.84045l0.2856,0.5944l0.61555,0.17061c-0.01262,-0.7507 -0.03038,-1.50836 0.53779,-1.47107c0.67491,0.04431 1.23138,0.40863 1.74806,0.88045c0.04554,-0.01959 0.09143,-0.03715 0.13762,-0.0527l0.09575,-1.62932c0.0252,-0.65677 0.41372,-1.27467 1.05418,-1.56156c0.89947,-0.40291 1.95528,-0.00037 2.3582,0.89911c0.04531,0.10115 0.08043,0.20431 0.10582,0.30828l0.02904,0.11047c0.46825,0.14838 0.87354,0.48832 1.09013,0.97187c0.06272,0.14001 0.10591,0.28381 0.13078,0.42835l0.36013,1.85743l-0.42754,0.08288c0.09662,0.32176 0.16445,0.63368 0.20899,0.95217c0.50615,0.13164 0.95012,0.48351 1.18054,0.99793c0.16044,0.35818 0.19318,0.74116 0.11764,1.09782l-0.55066,2.77318l-0.07716,-0.01531l0.02399,0.21924c-0.05074,0.05382 -0.10147,0.10764 -0.1522,0.16145l0.07537,0.03477l-0.73687,1.5969c-0.37608,2.21729 -1.53769,4.92109 -2.0093,6.61617c0.30286,0.18138 0.5551,0.4542 0.71036,0.80083c0.35321,0.7885 0.08744,1.69715 -0.58946,2.18076l-1.56522,1.16831c-0.11117,0.08666 -0.23446,0.16142 -0.36884,0.22162c-0.49169,0.22025 -1.0301,0.19982 -1.48303,-0.01092l-0.30966,0.11947l-0.09096,-0.23572c-2.56093,2.97226 -6.91791,4.05723 -10.47085,5.77361l-0.06973,0.00355l0.00863,0.02188l-2.09254,0.8254c-0.88462,0.35524 -1.8994,-0.04931 -2.29255,-0.92698c-0.30143,-0.67292 -0.15205,-1.43334 0.31895,-1.94242l1.57207,-1.77679l0.33689,0.29808c0.24206,-0.34289 0.49658,-0.67579 0.76439,-0.99603l-3.11219,0.24184c1.59357,-4.8384 3.32782,-5.61886 7.45167,-8.386l0.1351,-0.00845l-0.02433,-0.05016l0.76293,-0.37c0.15461,-0.1073 0.35722,-0.22027 0.59363,-0.28789l0.31701,-0.15373c0.01878,-0.0092 0.03777,-0.01809 0.05698,-0.02672c0.89947,-0.40291 1.95528,-0.00037 2.3582,0.89911c0.33432,0.74635 0.11409,1.60031 -0.48445,2.09963l-1.92861,1.68607c-0.08848,0.08104 -0.18616,0.15396 -0.2924,0.21709c0.46343,0.15028 0.86387,0.48861 1.07871,0.96822c0.21828,0.48731 0.20016,1.02053 -0.00531,1.47093c0.04236,-0.02393 0.08442,-0.04804 0.12613,-0.07229c1.65674,-0.96394 1.3262,-1.99958 3.54715,-2.53585c0.05386,-0.013 0.10778,-0.02555 0.16179,-0.0377l-0.01105,-0.02862l1.01322,-0.39091l0.30126,-1.1778c0.5312,-2.35866 0.96705,-6.24035 1.99905,-8.85806l-0.00008,-0.11994l0.02799,-0.00002l-0.02629,-0.07955c0.00969,-0.11025 0.01655,-0.22084 0.02119,-0.33154c-0.029,0.01494 -0.05855,0.02915 -0.08866,0.04262c-0.89948,0.40291 -1.95528,0.00037 -2.3582,-0.89911c-0.04625,-0.10324 -0.08189,-0.20856 -0.10737,-0.31469c-0.06326,0.03843 -0.12962,0.07336 -0.19894,0.1044c-0.7959,0.35652 -1.71419,0.08239 -2.19428,-0.60863l-0.31398,-0.43308c-0.32185,0.48847 -0.63585,1.01478 -1.09225,0.85536c-0.01288,-0.0045 -0.02532,-0.00934 -0.03737,-0.01455c-0.60257,1.01767 -1.20511,2.03535 -1.80766,3.05302l-1.31335,-3.85361l-0.01725,-0.00069l0.04913,-1.23063c-0.18403,-0.26521 -0.40836,-0.47967 -0.70962,-0.5973c0.49191,1.45515 0.86354,2.93344 1.11509,4.62463l-0.12743,0.24807l0.10814,0.01604l-0.26519,1.78814c-0.07845,0.59349 -0.45367,1.13371 -1.04013,1.39641c-0.89948,0.40291 -1.95528,0.00037 -2.3582,-0.89911c-0.01122,-0.02506 -0.02182,-0.05024 -0.03179,-0.07551l-0.79822,-1.99019c-0.09412,0.57117 -0.46393,1.08571 -1.03177,1.34007c-0.35851,0.16059 -0.74185,0.19323 -1.0988,0.11743l-1.16791,-0.23263l0.05078,0.02838c0.33139,0.18029 0.60849,0.46667 0.77463,0.83754c0.28589,0.6382 0.16627,1.35512 -0.24864,1.86167c0.14261,0.14621 0.26235,0.31955 0.3507,0.51679c0.40291,0.89948 0.00036,1.95528 -0.89911,2.3582c-0.14137,0.06332 -0.28658,0.10674 -0.43252,0.13149c0.17366,0.15941 0.31841,0.35607 0.42091,0.58489c0.40291,0.89948 0.00036,1.95528 -0.89911,2.3582c-0.256,0.11467 -0.52466,0.16411 -0.78734,0.15541l-2.86653,-0.03183l0.00034,-0.02961c-1.8048,-0.02205 -3.74923,0.06411 -5.60251,-0.1015c1.49499,0.87885 2.95913,1.74478 4.40538,2.67205l0.11345,-0.26848l3.28347,1.38734c0.40317,0.16902 0.74553,0.48568 0.93834,0.91614c0.40291,0.89948 0.00036,1.95528 -0.89911,2.3582c-0.27501,0.1232 -0.56461,0.17109 -0.84572,0.1525l-1.78592,-0.08065c-0.15449,0.45198 -0.48894,0.84115 -0.95926,1.05182c-0.275,0.1232 -0.5646,0.17108 -0.84572,0.15251l-1.9308,-0.08718c0,0 -1.42697,-0.06441 -1.66994,-1.35467l-0.10565,-0.0456l-1.67732,-0.35904c-0.54572,-0.11019 -1.03195,-0.47335 -1.27691,-1.02017c-0.40291,-0.89948 -0.00036,-1.95528 0.89911,-2.3582c0.08406,-0.03766 0.16947,-0.06827 0.2556,-0.09211c-0.86656,-0.55129 -1.72596,-1.13362 -2.59368,-1.65702l-1.97246,-1.00328c-0.35659,-0.17771 -0.65617,-0.47533 -0.83176,-0.86731c-0.40291,-0.89948 -0.00037,-1.95528 0.89911,-2.3582c0.10579,-0.04738 0.21375,-0.08362 0.32253,-0.10924l2.06862,-0.52668c0.08167,-0.58908 0.45584,-1.12418 1.03861,-1.38522c0.11895,-0.05328 0.24062,-0.09247 0.36315,-0.11832l1.81258,-0.41906c-0.57194,-0.0936 -1.08738,-0.4636 -1.34203,-1.03209c-0.01169,-0.02609 -0.02269,-0.05232 -0.03304,-0.07866l-0.98075,-2.45713l0.0292,-0.01165c-0.03369,-0.06454 -0.06625,-0.12977 -0.09759,-0.19576c-0.35567,-0.74862 -0.5796,-1.67663 -0.72286,-2.6887c-0.08639,0.43041 -0.16494,0.85896 -0.22948,1.28466l-0.04212,0.06473l0.02691,0.00635l-0.41059,1.74261c-0.1192,0.53002 -0.47803,0.99924 -1.01196,1.23842c-0.89948,0.40291 -1.95528,0.00037 -2.3582,-0.89911c-0.02767,-0.06175 -0.05153,-0.12426 -0.07171,-0.18724l-0.69626,-2.08626l0.02941,-0.0098c-0.03151,-0.07166 -0.06124,-0.14426 -0.08904,-0.21791c-0.13204,-0.34987 -0.23519,-0.74218 -0.31622,-1.16549c-0.10715,0.6861 -0.20725,1.35744 -0.28316,2.00509l-0.17433,1.96562c-0.04425,0.63599 -0.42874,1.22748 -1.05121,1.50632c-0.60332,0.27025 -1.27696,0.17814 -1.77674,-0.18326l-0.05206,0.40258c-0.06814,0.60714 -0.44646,1.16347 -1.04438,1.43129c-0.8686,0.38909 -1.88299,0.02706 -2.31443,-0.80825l-1.59622,-3.02786l0.02978,-0.0157c-0.04853,-0.08001 -0.0956,-0.16103 -0.14109,-0.24315c-0.34992,-0.63149 -0.59037,-1.41386 -0.75579,-2.27766c-0.39565,-0.17076 -0.73095,-0.48448 -0.92099,-0.90874c-0.0791,-0.17656 -0.12713,-0.35914 -0.14648,-0.54162l-0.45282,-3.4985l0.4786,-0.06195c-0.21717,-1.03906 -0.31365,-2.08884 -0.21731,-3.13638l0.47844,-1.17281c0,0 0.03431,-0.06231 0.10162,-0.15523l0.05737,-1.14505c0.01947,-0.66271 0.40909,-1.28831 1.05472,-1.57752c0.68713,-0.30779 1.4655,-0.14555 1.97433,0.34923c0.17166,-0.39155 0.48376,-0.72304 0.90466,-0.91158zM267.81853,140.97484l-0.01625,-0.3094c-0.09681,-0.33684 -0.1288,-0.64793 -0.11317,-0.93345l-0.46955,-0.09433zM276.23271,144.66433l0.12965,-0.17658l2.1277,1.5622c0.25272,0.17839 0.46233,0.42486 0.59797,0.72764c0.0921,0.2056 0.1421,0.41937 0.15372,0.63164l0.51801,0.38574c0.24855,0.17786 0.45468,0.42198 0.58864,0.72102c0.05341,0.11926 0.09269,0.24127 0.1185,0.36414l0.31288,-0.12549c-0.44842,-1.02651 -0.75679,-2.0968 -0.8355,-3.195l0.007,-0.03003l-0.00817,0.00026l-0.05044,-1.62094c-0.23979,-0.57414 -0.49663,-1.15446 -0.76561,-1.75476c0,0 -0.30158,-0.67328 -0.08405,-1.34796c-0.65951,-0.24544 -1.30864,-0.74625 -1.99272,-0.90213c-0.17871,-0.04072 -0.35011,-0.08012 -0.51468,-0.11859c-0.28547,0.56554 -0.7525,1.04384 -1.36417,1.33796l-1.33581,0.64953c0.83932,0.97738 1.62998,1.91472 2.39707,2.89138zM268.37536,146.84758c0.01369,0.39351 0.01783,0.78625 0.01755,1.16856c0.18136,-0.29734 0.45144,-0.5448 0.79332,-0.69793c0.18539,-0.08305 0.37743,-0.13187 0.56904,-0.14919l1.99337,-0.22697l-0.58443,-0.37022c-0.76441,0.43549 -1.81286,0.45384 -2.78884,0.27576zM280.23651,139.12573c-0.256,-0.02665 -0.21631,0.27508 -0.1352,0.63797c0.35709,-0.14663 0.66954,-0.179 0.93929,-0.14136c-0.20186,-0.27202 -0.45457,-0.46022 -0.80411,-0.4966zM280.37624,130.9615l-1.36523,-0.23419c0.54209,0.53988 1.06795,1.17332 1.49551,1.82757c0.0346,-0.01829 0.07005,-0.0356 0.10629,-0.05182c0.10962,-0.04909 0.22157,-0.08625 0.33437,-0.11198l-0.26369,-1.06623c-0.02962,-0.11093 -0.04805,-0.22297 -0.05581,-0.33469c-0.08469,-0.00359 -0.1687,-0.01318 -0.25143,-0.02862zM275.00818,127.11032c-0.06882,-0.05368 -0.13654,-0.10813 -0.20298,-0.16321c-0.00202,0.08367 -0.00758,0.16698 -0.0166,0.24975c0.0714,-0.03285 0.14465,-0.06155 0.21958,-0.08654z" fill="#989898"></path><path d="M253.52168,124.45543l2.64155,-0.46603c0.79822,-0.1589 1.62876,0.24716 1.97559,1.0214c0.38305,0.85512 0.03813,1.85152 -0.76969,2.29392l-2.1001,1.18131v0c-1.76201,0.9955 -4.66587,2.53096 -3.96443,4.78464c0,0 0.31543,1.75649 -1.44105,2.07193c-1.75648,0.31545 -2.07193,-1.44105 -2.07193,-1.44105c-0.345,-2.81723 0.74636,-4.74995 2.53366,-6.32276c-0.03386,-0.55764 0.19756,-1.10606 0.62754,-1.47019l1.31709,-1.16898c0.1396,-0.12981 0.30254,-0.23932 0.48619,-0.32158c0.24932,-0.11169 0.51065,-0.16148 0.76677,-0.15597z" fill="#989898"></path><path d="M279.65233,123.49504c0.33576,0.74957 0.00032,1.62941 -0.74926,1.96516c-0.29876,0.13383 -0.61822,0.16102 -0.91567,0.09787l-2.23046,-0.44428l0.00668,-0.03349l-0.10541,0.0103c-1.82901,-0.6303 -3.63064,-1.15422 -5.49562,-1.59879c1.11523,0.83802 2.22819,1.66786 3.33296,2.51124l1.30281,0.27874c0.45483,0.09178 0.8601,0.39443 1.06424,0.85018c0.33576,0.74957 0.00032,1.62941 -0.74926,1.96516c-0.23795,0.10659 -0.48902,0.14553 -0.73165,0.12506l-2.47739,-0.15894c-1.43054,0.1595 -2.87537,0.26066 -4.31335,0.19927c0,0 -1.48564,-0.0671 -1.41855,-1.55273c0.0671,-1.48564 1.55273,-1.41855 1.55273,-1.41855c0.29562,0.01419 0.59154,0.01991 0.88757,0.01861c-0.94822,-0.789 -1.79903,-1.56827 -2.23938,-2.0012c-0.72052,-0.70836 -2.20031,-1.29677 -1.99141,-2.28535c0.2458,-1.16318 1.77174,-1.71918 2.9101,-2.06205c0.19102,-0.05754 0.40086,-0.09406 0.62618,-0.11229l-0.63608,-0.32082c-0.29901,-0.14783 -0.55036,-0.39664 -0.69737,-0.72484c-0.30595,-0.68298 -0.05462,-1.47412 0.55949,-1.86328c0.03602,-0.53096 0.35662,-1.0251 0.87618,-1.25781c0.1906,-0.08538 0.38962,-0.12736 0.58596,-0.13016l1.66504,-0.06229l0.00119,0.03173l0.09583,-0.03218c5.05956,0.46757 10.12942,0.77545 14.69398,2.60165c0.06258,0.01051 0.12544,0.02124 0.18861,0.0322l0.15363,-0.47629l2.66806,0.86057c0.38959,0.1239 0.72672,0.40697 0.907,0.80943c0.33576,0.74957 0.00032,1.62941 -0.74926,1.96516c-0.25492,0.11419 -0.52491,0.15074 -0.78342,0.11977l-1.74012,-0.17605l0.00291,-0.02873l-0.07066,0.02029c-0.88661,-0.17301 -1.70516,-0.23506 -2.4633,-0.31424c-0.13796,0.34729 -0.40614,0.64325 -0.77411,0.80807c-0.07392,0.03311 -0.14913,0.05971 -0.22496,0.08001c0.06081,0.61886 -0.27371,1.23426 -0.87249,1.50247c-0.37651,0.16865 -0.78591,0.16796 -1.14269,0.03048l-0.88879,-0.34221c0.15751,0.1372 0.28846,0.30992 0.37947,0.51308z" fill="#787878"></path><path d="M258.91566,144.22473c-1.29702,0.72758 -2.0246,-0.56946 -2.0246,-0.56946l-0.52363,-0.9469c-1.49625,-2.45378 -0.15352,-0.7454 -0.58236,1.48403l0.1231,2.86846c0.03988,0.60284 -0.29269,1.19417 -0.87635,1.45561c-0.04425,0.01984 -0.08896,0.0373 -0.13399,0.05251c0.00004,0.32303 -0.00849,0.64402 -0.02694,0.96254c-0.06771,1.16905 0.36007,2.85015 -0.6435,3.45356c-1.00561,0.60463 -1.82791,0.42095 -2.49913,-0.13383l0.09438,1.46088c0.05409,0.61386 -0.27984,1.22165 -0.87387,1.48773c-0.74957,0.33576 -1.62941,0.00032 -1.96516,-0.74926c-0.04884,-0.10901 -0.08346,-0.22078 -0.10469,-0.33321l-0.60517,-2.8796l0.34706,-0.07295c-0.00237,-0.0162 -0.00475,-0.03242 -0.00716,-0.04865c-1.00296,-2.77831 -1.46612,-5.50494 -1.94594,-8.84904l0.02798,-0.10092l-0.03219,0.00027l-0.01674,-2.07663c-0.01789,-0.58448 0.31212,-1.14941 0.87889,-1.40328c0.39392,-0.17645 0.82379,-0.16752 1.19181,-0.01055c0.10213,-0.02107 0.20494,-0.03101 0.30687,-0.03039l0.00009,-0.00055c0.07274,-0.4843 0.38297,-0.92261 0.86311,-1.13768c0.21931,-0.09825 0.44978,-0.13902 0.6745,-0.12878c-0.00114,-0.01245 -0.00231,-0.02491 -0.00347,-0.03735c0,0 -0.13788,-1.48075 1.34287,-1.61863c1.48075,-0.13788 1.61863,1.34287 1.61863,1.34287c0.04909,0.52811 0.11458,1.06324 0.1904,1.60346c0.71712,-0.82978 1.93815,-1.07043 3.74686,-0.07772c0.66432,0.36459 0.904,1.21645 1.356,1.82467l0.67183,1.18421c0,0 0.72758,1.29702 -0.56946,2.0246z" fill="#787878"></path><path d="M274.74606,156.51554c-0.09813,1.48391 -1.58205,1.38578 -1.58205,1.38578l-0.22236,-0.01673c0.26822,0.30231 0.52096,0.62084 0.75911,0.9518l0.43702,-0.28958l1.47106,2.21989c0.05056,0.07346 0.0952,0.15251 0.13296,0.23681c0.33495,0.74777 0.00191,1.6252 -0.74388,1.96274c0.08251,0.10034 0.15314,0.21324 0.2088,0.33752c0.33576,0.74957 0.00032,1.62941 -0.74926,1.96516c-0.24326,0.10897 -0.50023,0.14724 -0.74786,0.1236l-1.59271,-0.12055l0.00466,-0.0615l-0.1446,0.0442c-2.53716,-0.69039 -4.34799,-1.50204 -6.21022,-2.85074l-0.34502,-0.14408c-0.32245,-0.13372 -0.59871,-0.38052 -0.76376,-0.71562c-0.2436,-0.2007 -0.49053,-0.41145 -0.74237,-0.63309c0,0 -1.11265,-0.98674 -0.12593,-2.09938c0.98674,-1.11265 2.09938,-0.12593 2.09938,-0.12593c0.30115,0.26939 0.59157,0.51935 0.87592,0.75217l2.27558,0.12064l-0.01291,0.24342c0.61061,-0.05874 1.22232,-0.09517 1.83369,-0.10323c-0.35946,-0.22754 -0.71075,-0.46837 -1.05666,-0.70969l-1.58111,-0.93172c-0.26368,-0.15091 -0.48365,-0.38375 -0.61737,-0.68225c-0.33576,-0.74957 -0.00032,-1.62941 0.74926,-1.96516c0.08535,-0.03823 0.1724,-0.06776 0.26015,-0.08898l1.91376,-0.49872l0.01969,0.07556c0.0717,-0.039 0.14338,-0.078 0.21508,-0.117l2.5962,0.15255c0,0 1.48391,0.09813 1.38578,1.58205z" fill="#787878"></path><path d="M291.27516,156.85238c0.97048,1.12685 -0.15637,2.09733 -0.15637,2.09733l-0.0925,0.07968c-0.13809,0.11889 -0.27507,0.24456 -0.41137,0.37471c0.06981,0.50469 -0.12612,1.01421 -0.51666,1.34203l-1.09764,0.96556l-0.03834,-0.04357l-0.05258,0.11739c-0.28682,0.18205 -0.57306,0.36205 -0.85942,0.53965c-0.22077,0.22125 -0.50964,0.36968 -0.81635,0.49902c-1.39016,0.83638 -2.7977,1.6096 -4.29894,2.28354c0,0 -1.35722,0.60796 -1.96516,-0.74926c-0.60796,-1.35722 0.74926,-1.96516 0.74926,-1.96516c0.42508,-0.18996 0.84216,-0.38877 1.25324,-0.5954c0.0284,-0.02647 0.05796,-0.05195 0.08864,-0.0763l1.55413,-1.29259l0.1801,0.21655c0.06718,-0.03687 0.13468,-0.07319 0.20248,-0.10889c1.13183,-1.29092 2.38347,-2.29278 4.08761,-3.76098l0.0925,-0.07968c0,0 1.12685,-0.97048 2.09733,0.15637z" fill="#787878"></path><path d="M292.71676,143.73176c1.09729,-1.00379 2.10107,0.09348 2.10107,0.09348l0.21444,0.2349c0.09324,0.10053 0.18157,0.20957 0.26396,0.32541c0.09835,-0.67174 0.17458,-1.34704 0.23796,-2.02193c0,0 0.14136,-1.48043 1.62179,-1.33907c1.48043,0.14136 1.33907,1.62179 1.33907,1.62179c-0.15459,1.59469 -0.37238,3.19083 -0.75243,4.74726l-0.29691,1.43118c-0.08942,0.45877 -0.39313,0.86837 -0.85213,1.07396c-0.74957,0.33576 -1.62941,0.00032 -1.96516,-0.74926c-0.01062,-0.02371 -0.02056,-0.04754 -0.02984,-0.07148l-0.76078,-1.92707c-0.30771,-0.35615 -0.62522,-0.70335 -0.95707,-1.03718l-0.25745,-0.28094c0,0 -1.00379,-1.09729 0.09348,-2.10107z" fill="#787878"></path><path d="M284.6904,141.48024c-0.33576,-0.74957 -0.00032,-1.62941 0.74926,-1.96516c0.74957,-0.33576 1.62941,-0.00032 1.96516,0.74926c0.33576,0.74957 0.00032,1.62941 -0.74926,1.96516c-0.74957,0.33576 -1.62941,0.00032 -1.96516,-0.74926z" fill="#787878"></path><path d="M255.9115,123.28038c-0.36779,-0.70592 0.10278,-1.45882 0.10278,-1.45882l1.23621,-1.0169l1.65361,-0.265c0.65836,-0.12067 1.33841,0.21732 1.62421,0.85539c0.26357,0.5884 0.11353,1.25706 -0.32574,1.67983l-1.2178,1.22791c-1.79924,1.9846 -3.42925,3.92923 -4.87861,6.18285c0,0 -0.80548,1.25012 -2.0556,0.44465c-1.25012,-0.80548 -0.44465,-2.0556 -0.44465,-2.0556c1.30339,-2.01938 2.74086,-3.81508 4.30558,-5.59428z" fill="#787878"></path><path d="M288.8373,132.29534c-0.88185,-0.1031 -1.17567,-0.67114 -1.26927,-1.1122c-0.66062,1.13176 -1.91729,1.93687 -4.07765,0.52389c-0.83288,-0.54474 -0.61313,-1.89362 -0.9197,-2.84043c0,0 -0.30106,-1.45636 1.15531,-1.75741c1.45636,-0.30106 1.75741,1.15531 1.75741,1.15531c-0.26784,3.28242 0.29913,-2.9279 1.90584,-2.91802c4.01485,0.02467 3.25318,2.94339 3.17593,4.97356l-0.07811,0.67089c0,0 -0.17269,1.47709 -1.64979,1.3044z" fill="#787878"></path></g></g></g></svg>