<svg version="1.1" xmlns="http://www.w3.org/2000/svg" xmlns:xlink="http://www.w3.org/1999/xlink" width="156.3554" height="83.90565" viewBox="0,0,156.3554,83.90565"><defs><linearGradient x1="167.54234" y1="184.22298" x2="275.87621" y2="184.22298" gradientUnits="userSpaceOnUse" id="color-1"><stop offset="0" stop-color="#ff6d6d"></stop><stop offset="1" stop-color="#ff6d6d" stop-opacity="0"></stop></linearGradient></defs><g transform="translate(-167.54234,-142.27016)"><g data-paper-data="{&quot;isPaintingLayer&quot;:true}" fill-rule="nonzero" stroke-linejoin="miter" stroke-miterlimit="10" stroke-dasharray="" stroke-dashoffset="0" style="mix-blend-mode: normal"><g stroke="#000000" stroke-width="1" stroke-linecap="butt"><path d="M322.92472,178.46645l-24.49048,-0.5038l0.46283,-22.49843l24.49049,0.5038z" fill="#d3d3d3"></path><path d="M300.65691,176.13396l-26.71691,-0.5496l0.38835,-18.8776l26.7169,0.5496z" fill="#a8a8a8"></path><path d="M278.83602,177.49625l-19.70958,-0.40545l0.46283,-22.49843l19.70957,0.40545z" fill="#d3d3d3"></path></g><path d="M202.89956,183.87728c0,-21.81525 17.68475,-39.5 39.5,-39.5c21.81525,0 39.5,17.68475 39.5,39.5c0,21.81525 -17.68475,39.5 -39.5,39.5c-21.81525,0 -39.5,-17.68475 -39.5,-39.5z" fill="#205fa7" stroke="#000000" stroke-width="1.5" stroke-linecap="butt"></path><path d="M270.20667,146.86737l-31.11024,20.74016l-27.99921,-20.22165" fill="none" stroke="#e2ff00" stroke-width="7" stroke-linecap="round"></path><path d="M215.82258,183.88413v-21.02353l21.15664,11.47952l23.22616,-11.47952v21.02353l-23.7633,13.64179z" fill="#edffff" stroke="#e2ff00" stroke-width="0" stroke-linecap="butt"></path><path d="M225.72951,174.89368c0,0 -2.29297,11.0872 -4.2313,11.0872c-0.48691,0 -1.41121,-0.56056 -1.85114,-1.87803c-1.31137,-3.92718 -1.13185,-14.08369 -1.13185,-14.08369z" fill="#ff0000" stroke="none" stroke-width="0" stroke-linecap="butt"></path><path d="M236.49702,173.2767c0,0 0.17952,10.15651 -1.13184,14.08369c-0.43993,1.31747 -1.36423,1.87803 -1.85115,1.87803c-1.93832,0 -4.2313,-11.0872 -4.2313,-11.0872z" data-paper-data="{&quot;index&quot;:null}" fill="#ff0000" stroke="none" stroke-width="0" stroke-linecap="butt"></path><path d="" data-paper-data="{&quot;index&quot;:null}" fill="none" stroke="#000000" stroke-width="1.5" stroke-linecap="round"></path><path d="" data-paper-data="{&quot;index&quot;:null}" fill="none" stroke="#000000" stroke-width="1.5" stroke-linecap="round"></path><g stroke-linecap="butt"><g fill="#d3d3d3" stroke="#000000" stroke-width="1"><path d="M185.18547,174.07865l17.7048,1.29968l-2.58883,35.26568l-17.7048,-1.29968z"></path><path d="M195.86368,166.61368l7.62889,0.56002l-0.73968,10.0759l-7.62889,-0.56002z"></path><path d="M186.40323,161.43297l6.76527,0.49665l-1.06722,14.53807l-6.76527,-0.49665z"></path></g><path d="M183.98089,190.488l17.84873,1.31025l-0.42267,5.75765l-17.84873,-1.31025z" fill="#a0a0a0" stroke="none" stroke-width="0"></path><path d="M183.56479,198.12744l17.27297,1.268l-0.39096,5.32582l-17.27297,-1.268z" fill="#a0a0a0" stroke="none" stroke-width="0"></path><path d="M184.87108,182.30446l17.12903,1.25743l-0.39096,5.32582l-17.12903,-1.25743z" fill="#a0a0a0" stroke="none" stroke-width="0"></path></g><path d="" fill="#ff0000" stroke="none" stroke-width="0.5" stroke-linecap="butt"></path><path d="" fill="#ff0000" stroke="none" stroke-width="0.5" stroke-linecap="butt"></path><path d="" fill="#ff0000" stroke="none" stroke-width="0.5" stroke-linecap="butt"></path><path d="" fill="#ff0000" stroke="none" stroke-width="0.5" stroke-linecap="butt"></path><path d="" fill="#ff0000" stroke="none" stroke-width="0.5" stroke-linecap="butt"></path><path d="" fill="#ff0000" stroke="none" stroke-width="0.5" stroke-linecap="butt"></path><path d="" fill="#ff0000" stroke="none" stroke-width="0.5" stroke-linecap="butt"></path><path d="" fill="#ff0000" stroke="none" stroke-width="0.5" stroke-linecap="butt"></path><path d="M167.54234,226.17581v-83.90565h108.33387v83.90565z" fill="url(#color-1)" stroke="none" stroke-width="0" stroke-linecap="butt"></path></g></g></svg>