<svg version="1.1" xmlns="http://www.w3.org/2000/svg" xmlns:xlink="http://www.w3.org/1999/xlink" width="77.21955" height="77.74554" viewBox="0,0,77.21955,77.74554"><g transform="translate(-441.39619,-140.4431)"><g data-paper-data="{&quot;isPaintingLayer&quot;:true}" fill-rule="nonzero" stroke-linejoin="miter" stroke-miterlimit="10" stroke-dasharray="" stroke-dashoffset="0" style="mix-blend-mode: normal"><path d="" data-paper-data="{&quot;index&quot;:null}" fill="none" stroke="#000000" stroke-width="1.5" stroke-linecap="round"/><path d="M487.27587,151.27152c14.96854,4.31122 23.60795,19.94057 19.29675,34.90908c-4.31122,14.96854 -19.94057,23.60795 -34.90908,19.29675c-14.96854,-4.31122 -23.60795,-19.94057 -19.29675,-34.90908c4.31122,-14.96854 19.94057,-23.60795 34.90908,-19.29675z" fill="#000000" stroke="none" stroke-width="NaN" stroke-linecap="butt"/><path d="M493.95055,176.68705l22.29987,9.90952l-1.65593,5.74929l-24.28694,-3.01035z" fill="#000000" stroke="none" stroke-width="0" stroke-linecap="butt"/><path d="M494.28044,190.53912l8.76131,22.77548l-5.23627,2.89447l-15.04484,-19.30213z" fill="#000000" stroke="none" stroke-width="0" stroke-linecap="butt"/><path d="M481.38824,195.88877l-9.90952,22.29987l-5.74929,-1.65593l3.01034,-24.28695z" fill="#000000" stroke="none" stroke-width="0" stroke-linecap="butt"/><path d="M469.33513,191.70223l-22.77548,8.76131l-2.89448,-5.23628l19.30212,-15.04484z" fill="#000000" stroke="none" stroke-width="0" stroke-linecap="butt"/><path d="M463.69607,182.40882l-22.29988,-9.90951l1.65593,-5.74929l24.28695,3.01034z" fill="#000000" stroke="none" stroke-width="0" stroke-linecap="butt"/><path d="M464.01862,169.93637l-8.76131,-22.77548l5.23627,-2.89447l15.04486,19.30212z" fill="#000000" stroke="none" stroke-width="0" stroke-linecap="butt"/><path d="M476.74825,162.74298l9.90951,-22.29988l5.74929,1.65593l-3.01034,24.28694z" fill="#000000" stroke="none" stroke-width="0" stroke-linecap="butt"/><path d="M492.94579,164.832l22.77548,-8.76131l2.89447,5.23628l-19.30212,15.04483z" fill="#000000" stroke="none" stroke-width="0" stroke-linecap="butt"/></g></g></svg>