<svg version="1.1" xmlns="http://www.w3.org/2000/svg" xmlns:xlink="http://www.w3.org/1999/xlink" width="108.31862" height="24.01365" viewBox="0,0,108.31862,24.01365"><g transform="translate(-182.69064,-161.01793)"><g data-paper-data="{&quot;isPaintingLayer&quot;:true}" fill-rule="nonzero" stroke-linejoin="miter" stroke-miterlimit="10" stroke-dasharray="" stroke-dashoffset="0" style="mix-blend-mode: normal"><path d="" data-paper-data="{&quot;index&quot;:null}" fill="none" stroke="#000000" stroke-width="1.5" stroke-linecap="round"></path><path d="" data-paper-data="{&quot;index&quot;:null}" fill="none" stroke="#000000" stroke-width="1.5" stroke-linecap="round"></path><path d="M203.74785,177.06299l-1.24637,0.14888c1.11724,0.42108 2.18201,0.92008 3.15779,1.53307l0.24689,-0.36791l1.64802,1.1059c0.24078,0.1566 0.40994,0.41406 0.44759,0.71249c0.00055,0.00008 0.00111,0.00016 0.00166,0.00024c1.02935,0.14891 2.08504,1.10486 3.0415,0.69632c0.26249,-0.11212 -0.29104,-0.51589 -0.52923,-0.67317c-0.4457,-0.29429 -0.98429,-0.41581 -1.4668,-0.6448c-1.71365,-0.81324 -3.40149,-1.69071 -5.09226,-2.55599c-0.06675,0.02211 -0.13663,0.03738 -0.20879,0.04498zM208.59936,184.03158c0,0.55228 -0.44772,1 -1,1c-0.13249,0 -0.25896,-0.02577 -0.37467,-0.07256l-1.84961,-0.69815l0.01171,-0.03103c-0.3699,-0.1499 -0.74509,-0.30556 -1.12438,-0.4668c-2.09908,-0.1289 -4.07106,-0.43787 -6.04086,-1.11032c-0.02808,0.00159 -0.05619,0.00301 -0.0843,0.00426l-0.04526,-0.04901c-0.00755,-0.00264 -0.01509,-0.00528 -0.02264,-0.00793l-0.00526,0.05228l-0.08282,-0.00834l-0.03411,0.17576l-1.94553,-0.37754c-0.40161,-0.0699 -0.72096,-0.37938 -0.8054,-0.77581c-0.46405,-0.14963 -0.91997,-0.31993 -1.36899,-0.51007c-0.63155,-0.20958 -1.15302,-0.39326 -1.62039,-0.60513l-0.01763,0.05238l-1.87367,-0.63047c-0.36715,-0.11405 -0.64366,-0.43395 -0.69455,-0.82474l-0.22802,-0.18362c-0.95189,-0.22568 -1.74384,-0.58954 -2.00356,-1.16954c-0.38518,-0.86019 0.16054,-2.0266 0.81098,-2.70867c0.29502,-0.30936 0.80003,-0.56373 1.41614,-0.76019c-0.08649,-0.02634 -0.17298,-0.05328 -0.2595,-0.08084l-0.03141,0.16385l-1.9465,-0.3732c-0.47103,-0.08095 -0.82942,-0.49138 -0.82942,-0.98551c0,-0.02836 0.00118,-0.05645 0.0035,-0.08422c-0.24187,0.04502 -0.48521,0.08605 -0.73126,0.12271l0.0709,0.23811l-1.89457,0.56413c-0.09692,0.0313 -0.2003,0.04821 -0.30764,0.04821c-0.55228,0 -1,-0.44772 -1,-1c0,-0.40656 0.24262,-0.75646 0.59098,-0.9128l1.78638,-0.8487c0.56208,-0.26615 1.14101,-0.52946 1.73414,-0.7871l-1.06365,-0.05098c-0.53274,-0.02209 -0.95785,-0.46096 -0.95785,-0.99913c0,-0.45291 0.30109,-0.83549 0.71403,-0.95851l1.20123,-0.38858l0.003,0.00926l0.0221,-0.01702c6.16686,-1.64372 12.87573,-3.86753 19.48884,-4.44834c0.09103,-0.07843 0.19634,-0.14073 0.3115,-0.18249l1.16633,-0.45387l0.01631,0.04192l0.1084,-0.08127c6.6449,-0.75666 13.26209,-1.17939 19.93883,-1.54183c3.95,-0.21442 8.10549,-0.56397 12.04176,0.01499l-0.00283,-0.24195l1.99791,-0.02338c0.00455,-0.00006 0.0091,-0.00009 0.01366,-0.00009c0.55228,0 1,0.44772 1,1c0,0.50734 -0.37782,0.92645 -0.86744,0.99129l-1.71764,0.25629c-1.47502,0.22009 -3.00225,0.48887 -4.55982,0.76204c0.04426,0.11298 0.06856,0.23597 0.06856,0.36463c0,0.51683 -0.39208,0.94209 -0.89502,0.99456l-1.02756,0.12168c-3.29954,0.39073 -6.59977,0.79052 -9.89523,1.22438c-0.16234,0.2398 -0.42604,0.40538 -0.72958,0.43523l-1.31478,0.14704l-0.01608,-0.14379c-0.0075,-0.00001 -0.01501,-0.00002 -0.02251,-0.00003c-0.94667,0.37693 -1.92786,0.69425 -2.93517,0.96437c0.13991,0.08025 0.25888,0.17776 0.34993,0.29781l0.08059,0.00676c0.51768,0.03792 0.92589,0.46994 0.92589,0.9973c0,0.46413 -0.31619,0.8544 -0.74491,0.96717l-0.57381,0.16502c-0.53636,0.37472 -3.30673,1.06198 -3.38486,1.08338c-1.62778,0.44575 -4.51896,1.26633 -7.14652,1.5492c0.03805,0.10575 0.05878,0.21976 0.05878,0.33861c0,0.50248 -0.37061,0.9184 -0.85339,0.98933l-1.94654,0.32099c-0.36291,0.07062 -0.7398,0.12895 -1.11825,0.15742c1.80842,0.89948 3.62636,1.78576 5.41166,2.72712c0.70805,0.37334 1.6832,0.47388 2.10621,1.15343c0.56662,0.91026 1.16545,2.26471 0.58112,3.16371c-0.44068,0.67799 -1.48178,0.46517 -2.37556,0.3863c0.04155,0.10991 0.06429,0.22906 0.06429,0.35353c0,0.55228 -0.44772,1 -1,1h-0.74218c0.01147,0.06061 0.01747,0.12316 0.01747,0.18711zM192.95283,172.84372c-0.45694,-0.09227 -0.801,-0.49605 -0.801,-0.9802c0,-0.02136 0.00067,-0.04257 0.00199,-0.06361l-0.65692,0.38048l-0.08592,-0.14835c-0.24421,0.19757 -0.49376,0.38782 -0.74931,0.56895c1.08655,0.03777 2.22145,0.30636 3.33451,0.47611zM201.92226,170.51371c-0.01474,-0.05014 -0.02565,-0.10191 -0.03241,-0.15498c-0.65132,0.07414 -1.29543,0.15554 -1.93031,0.24719c0.65293,-0.03546 1.30756,-0.06429 1.96272,-0.09221zM201.06369,173.29162c-0.20248,-0.05667 -0.40373,-0.11542 -0.60383,-0.17632c0.15518,0.07327 0.3089,0.14942 0.46134,0.22889c0.04748,-0.01802 0.09498,-0.03556 0.14249,-0.05257zM189.18424,176.91279c0.19494,0.07655 0.39446,0.13908 0.59716,0.19114c0.04162,-0.00528 0.08404,-0.008 0.12709,-0.008c0.01116,0 0.02229,0.00018 0.03336,0.00055l0.38831,0.01117l-0.92201,-0.44997c-0.31037,0.07545 -0.46474,0.16054 -0.2239,0.25512zM214.69661,165.18877c0.7525,0.03866 1.51305,0.05608 2.27433,0.06191c0.11749,-0.01817 0.23513,-0.03604 0.35289,-0.05364c-0.07027,-0.1368 -0.10993,-0.29191 -0.10993,-0.45628c0,-0.3474 0.17714,-0.65342 0.44603,-0.83267c-1.00691,0.08339 -2.01337,0.17198 -3.01932,0.26472c0.1201,0.17036 0.19154,0.4069 0.13677,0.73339c-0.01799,0.10724 -0.04569,0.20087 -0.08077,0.28257zM211.1726,166.4696c-0.46982,-0.11228 -0.93771,-0.24131 -1.40425,-0.38958c0.00684,0.04723 0.01038,0.09552 0.01038,0.14464c0,0.32657 -0.15655,0.61659 -0.39869,0.79909c0.58664,-0.19973 1.18475,-0.38389 1.79256,-0.55415zM197.29543,167.14776c1.1167,-0.18813 2.23264,-0.31762 3.33543,-0.37531c1.56934,-0.41368 3.13299,-0.82678 4.67619,-1.16518c-2.67101,0.30274 -5.35991,0.87102 -8.01162,1.54049zM197.13374,175.13419c0.02472,0.00116 0.04944,0.00232 0.07416,0.00349c0.21242,-0.26583 0.58304,-0.43765 0.98065,-0.58766c-0.16884,-0.06207 -0.33761,-0.12479 -0.50622,-0.18779c-0.04213,0.33937 -0.2543,0.626 -0.5486,0.77196z" fill="#0033b3" stroke="none" stroke-width="0.5" stroke-linecap="butt"></path><path d="M260.3631,180.86519c-4.39476,-0.49506 -8.77919,-0.9019 -13.18689,-1.24794c-0.91411,-0.02949 -1.82825,-0.07191 -2.73806,-0.12013c4.6796,1.27534 10.38155,1.28692 15.20046,1.3927c0.21755,0.00478 0.46127,-0.00528 0.72449,-0.02463zM248.12269,172.07182c6.4099,-1.12339 12.8587,-1.921 19.44338,-2.51812c0.09139,-0.43314 0.46314,-0.76293 0.91651,-0.79063l1.98697,-0.13953c0.33771,-0.02372 0.67349,-0.04642 1.00738,-0.0676l-1.94976,-0.30193c-0.48717,-0.06705 -0.86239,-0.48501 -0.86239,-0.99061c0,-0.55228 0.44772,-1 1,-1c0.00878,0 0.01754,0.00011 0.02627,0.00034l1.70553,0.03854c3.66543,0.08284 6.80681,0.20082 10.0505,1.24358l0.0472,-0.211l1.93248,0.43226c0.45695,0.09227 0.801,0.49605 0.801,0.9802c0,0.37974 -0.21167,0.71005 -0.52345,0.87937c0.70993,0.25318 1.41255,0.55394 2.10854,0.90943l0.09658,-0.22145l1.81221,0.79033c0.36451,0.14927 0.62128,0.50755 0.62128,0.9258c0,0.46723 -0.32044,0.85962 -0.75354,0.9694l-1.90601,0.52923l-0.0013,-0.00467l-0.01865,0.00999c-1.05829,0.2474 -2.43547,0.70278 -3.90917,1.12208c2.1951,0.36793 4.36832,0.84289 6.43642,1.53916l0.0357,-0.19153l1.94871,0.36324c0.47337,0.079 0.83418,0.49052 0.83418,0.98631c0,0.47809 -0.33551,0.87783 -0.78392,0.97659l-1.85149,0.44992c-1.5789,0.38368 -3.25169,0.78084 -4.9721,1.12848c0.05712,0.12585 0.08893,0.26563 0.08893,0.41284c0,0.55228 -0.44772,1 -1,1c-0.00757,0 -0.01513,-0.00008 -0.02266,-0.00025l-1.80633,-0.03517l0.00012,-0.00626l-0.01831,0.00574c-0.57738,-0.03224 -1.15475,-0.06492 -1.7321,-0.09798c-3.02768,0.44655 -7.25937,-0.2713 -9.8762,-0.56917l-0.004,0.03474l-0.78144,-0.0899c0.34353,0.52974 0.53044,1.14756 0.2356,1.59952c-0.528,0.80939 -1.88521,0.44136 -2.84383,0.56364c-1.90839,0.24344 -4.12333,0.20481 -6.04682,0.16259c-7.1676,-0.15733 -15.21977,-0.3979 -21.8429,-3.47822l-0.0598,0.20496l-1.89858,-0.55393c-0.42688,-0.11401 -0.74129,-0.50339 -0.74129,-0.96621c0,-0.55228 0.44772,-1 1,-1c0.00758,0 0.01514,0.00008 0.02267,0.00025l1.15863,0.02258l-0.00005,0.00242l0.00603,-0.00229c1.15754,0.03641 2.31506,0.06663 3.47259,0.09241c-0.42855,-0.10444 -0.85298,-0.21778 -1.27258,-0.34107l-0.02741,0.22844l-1.97301,-0.23671c-0.27208,-0.02877 -0.51161,-0.16665 -0.67401,-0.36906c-0.84048,0.20659 -1.68134,0.42022 -2.52282,0.64118c0,0 -0.96721,0.25397 -1.22118,-0.71324c-0.25397,-0.96721 0.71324,-1.22118 0.71324,-1.22118c0.71154,-0.18684 1.42265,-0.3685 2.13349,-0.54515c-1.2076,-0.05431 -2.41517,-0.10927 -3.62265,-0.16608l-0.07013,-0.04094l-0.00577,0.02867l-1.456,-0.29312c-0.46681,-0.08442 -0.82087,-0.49286 -0.82087,-0.984c0,-0.54227 0.43162,-0.98373 0.97006,-0.99956l1.99468,-0.06806l0.00815,0.23886c3.93411,-0.7023 7.99896,-0.41461 12.03674,-0.35424c1.07469,0.01607 2.14817,0.03449 3.22077,0.05579zM271.94934,168.52696c-0.14569,-0.04318 -0.29072,-0.08906 -0.43511,-0.13734l-0.02564,0.16557c0.15398,-0.00975 0.30757,-0.01918 0.46075,-0.02824zM274.54908,168.3289c0.31975,-0.01195 0.6436,-0.01821 0.96889,-0.02031c-0.31655,-0.00917 -0.63485,-0.01294 -0.95366,-0.01364c-0.00489,0.01155 -0.00997,0.02287 -0.01523,0.03395zM253.95627,174.23309c-0.68651,-0.02117 -1.37306,-0.04092 -2.0597,-0.05943c-1.42476,0.17587 -2.84938,0.32857 -4.27011,0.44589c2.11341,-0.10119 4.2271,-0.23188 6.32982,-0.38646z" fill="#0033b3" stroke="none" stroke-width="0.5" stroke-linecap="butt"></path></g></g></svg>