<svg version="1.1" xmlns="http://www.w3.org/2000/svg" xmlns:xlink="http://www.w3.org/1999/xlink" width="106.04325" height="80.9914" viewBox="0,0,106.04325,80.9914"><g transform="translate(-183.88067,-139.8793)"><g data-paper-data="{&quot;isPaintingLayer&quot;:true}" fill-rule="nonzero" stroke-linejoin="miter" stroke-miterlimit="10" stroke-dasharray="" stroke-dashoffset="0" style="mix-blend-mode: normal"><path d="" data-paper-data="{&quot;index&quot;:null}" fill="#737373" stroke="none" stroke-width="0" stroke-linecap="round"></path><path d="" data-paper-data="{&quot;index&quot;:null}" fill="#737373" stroke="none" stroke-width="0" stroke-linecap="round"></path><path d="" data-paper-data="{&quot;index&quot;:null}" fill="#737373" stroke="none" stroke-width="0" stroke-linecap="round"></path><path d="" data-paper-data="{&quot;index&quot;:null}" fill="#737373" stroke="none" stroke-width="0" stroke-linecap="round"></path><path d="" data-paper-data="{&quot;index&quot;:null}" fill="#737373" stroke="none" stroke-width="0" stroke-linecap="round"></path><path d="" data-paper-data="{&quot;index&quot;:null}" fill="#737373" stroke="none" stroke-width="0" stroke-linecap="round"></path><path d="M188.77718,168.69041l16.34335,9.20811" fill="#737373" stroke="none" stroke-width="0" stroke-linecap="round"></path><path d="M197.45587,174.81546l-0.2535,3.54897" fill="#737373" stroke="none" stroke-width="0" stroke-linecap="round"></path><path d="M227.76026,170.152l-13.96519,6.03143" fill="#737373" stroke="none" stroke-width="0" stroke-linecap="round"></path><path d="M220.01717,174.05496v5.06996" fill="#737373" stroke="none" stroke-width="0" stroke-linecap="round"></path><path d="" data-paper-data="{&quot;index&quot;:null}" fill="#737373" stroke="none" stroke-width="0" stroke-linecap="round"></path><path d="" data-paper-data="{&quot;index&quot;:null}" fill="#737373" stroke="none" stroke-width="0" stroke-linecap="round"></path><path d="" data-paper-data="{&quot;index&quot;:null}" fill="#737373" stroke="none" stroke-width="0" stroke-linecap="round"></path><path d="" data-paper-data="{&quot;index&quot;:null}" fill="#737373" stroke="none" stroke-width="0" stroke-linecap="round"></path><path d="" data-paper-data="{&quot;index&quot;:null}" fill="#737373" stroke="none" stroke-width="0" stroke-linecap="round"></path><path d="" data-paper-data="{&quot;index&quot;:null}" fill="#737373" stroke="none" stroke-width="0" stroke-linecap="round"></path><path d="" data-paper-data="{&quot;index&quot;:null}" fill="none" stroke="#000000" stroke-width="1.5" stroke-linecap="round"></path><path d="M289.92393,195.47554" data-paper-data="{&quot;index&quot;:null}" fill="none" stroke="#d8d8d8" stroke-width="4" stroke-linecap="round"></path><g data-paper-data="{&quot;index&quot;:null}"><path d="M241.20087,220.1207c-21.81525,0 -39.5,-17.68475 -39.5,-39.5c0,-21.81525 17.68475,-39.5 39.5,-39.5c21.81525,0 39.5,17.68475 39.5,39.5c0,21.81525 -17.68475,39.5 -39.5,39.5z" fill="#d8d8d8" stroke="#000000" stroke-width="1.5" stroke-linecap="butt"></path><path d="M247.88205,169.87071v8" fill="none" stroke="#000000" stroke-width="1.5" stroke-linecap="round"></path><path d="M233.18255,175.93954c0,0 1.81439,-2.93117 3.02185,-2.93117c1.42349,0 2.69835,2.93117 2.69835,2.93117" fill="none" stroke="#000000" stroke-width="1.5" stroke-linecap="round"></path><path d="M279.67713,173.391c0,5.64286 -76.33784,5.68004 -76.33784,0c0,-22.64574 16.13064,-33.5117 38.77639,-33.5117c22.64575,0 37.56146,10.86595 37.56146,33.5117z" fill="#006321" stroke="none" stroke-width="0" stroke-linecap="butt"></path><g fill="#ffffff" stroke="#000000" stroke-width="1.5"><path d="M240.77276,182.21615c15.494,0 28.05437,2.53703 28.05437,5.66661c0,0.87508 0.87587,6.72018 -0.87774,7.46009c-4.51789,1.90627 -16.015,-1.79348 -27.17663,-1.79348c-15.494,0 -28.05437,-2.53703 -28.05437,-5.66661c0,-3.12958 12.56037,-5.66661 28.05437,-5.66661z" stroke-linecap="butt"></path><path d="M262.51025,194.29253l-0.37158,-9.66111" stroke-linecap="round"></path><path d="M255.82181,184.81721l0.74316,10.21848" stroke-linecap="round"></path><path d="M249.13334,183.33089l-0.92895,9.8469" stroke-linecap="round"></path><path d="M243.18804,183.33089v9.66111" stroke-linecap="round"></path><path d="M234.2701,192.80621l1.48632,-9.28953" stroke-linecap="round"></path><path d="M224.23742,190.9483l4.64476,-7.98899" stroke-linecap="round"></path><path d="M217.17738,190.20514l4.64476,-6.31688" stroke-linecap="round"></path></g><path d="M272.85723,200.64252v-24.90598c0,0 3.90168,-9.42514 6.27712,0c2.37544,9.42514 0,24.90598 0,24.90598z" fill="#006321" stroke="#000000" stroke-width="0" stroke-linecap="butt"></path><path d="M199.55671,198.61765c0,0 -0.57952,-21.79725 0,-24.09603c0.57952,-2.29878 6.07463,0 6.07463,0v24.09603z" fill="#006321" stroke="none" stroke-width="0" stroke-linecap="butt"></path></g><g data-paper-data="{&quot;index&quot;:null}" stroke-width="0" stroke-linecap="butt"><path d="M187.36111,165.67803l17.53902,-2.00783l4.62983,40.4429l-17.53902,2.00783z" fill="#8c8c8c" stroke="#000000"></path><path d="M202.8981,175.95981l15.47561,-1.77162l0.56691,4.95219l-15.47561,1.77162z" fill="#999999" stroke="none"></path><path d="M213.35689,176.01678l4.53951,-0.51968l3.09443,27.03072l-4.53951,0.51968z" fill="#999999" stroke="none"></path><path d="M206.89988,199.96l12.38049,-1.4173l0.47243,4.12683l-12.38049,1.4173z" fill="#999999" stroke="none"></path><path d="M186.95007,173.6046l20.22145,-2.31492l4.62982,40.44289l-20.22145,2.31492z" fill="#adadad" stroke="#000000"></path><path d="M185.46468,175.23796l15.68194,-1.79525l3.78994,33.10632l-15.68194,1.79525z" fill="#595959" stroke="none"></path><path d="M187.41416,195.91934l11.76145,-1.34643l0.6614,5.77756l-11.76145,1.34643z" fill="#9c009e" stroke="none"></path><path d="M186.69904,187.28551l11.76145,-1.34643l0.6614,5.77756l-11.76145,1.34643z" fill="#c400c8" stroke="none"></path><path d="M185.80117,178.88164l11.76145,-1.34643l0.6614,5.77756l-11.76145,1.34643z" fill="#fb00ff" stroke="none"></path><path d="M183.88067,154.09666l21.4595,-2.45664l1.48816,12.99951l-21.4595,2.45664z" fill="#767676" stroke="none"></path></g></g></g></svg>