<svg version="1.1" xmlns="http://www.w3.org/2000/svg" xmlns:xlink="http://www.w3.org/1999/xlink" width="84.52336" height="94.71859" viewBox="0,0,84.52336,94.71859"><g transform="translate(-199.41888,-130.31158)"><g data-paper-data="{&quot;isPaintingLayer&quot;:true}" fill-rule="nonzero" stroke-linejoin="miter" stroke-miterlimit="10" stroke-dasharray="" stroke-dashoffset="0" style="mix-blend-mode: normal"><path d="M217.37076,163.77814l8.88595,1.74355l-0.664,7.97241" data-paper-data="{&quot;index&quot;:null}" fill="none" stroke="#000000" stroke-width="1.5" stroke-linecap="round"></path><path d="M232.02613,173.84266l0.664,-7.97241l9.05195,-0.24954" data-paper-data="{&quot;index&quot;:null}" fill="none" stroke="#000000" stroke-width="1.5" stroke-linecap="round"></path><path d="M224.02652,193.93058c0,0 3.4857,-7.88044 8.70148,-6.27218c5.08441,1.56776 8.63813,12.05148 8.63813,12.05148z" data-paper-data="{&quot;index&quot;:null}" fill="#040404" stroke="#000000" stroke-width="1.5" stroke-linecap="round"></path><path d="M205.80403,157.73908c6.68752,-16.91695 28.19255,-24.27271 48.03282,-16.42955c19.84026,7.84317 30.50267,27.9152 23.81514,44.83214c-4.12734,10.44066 -11.45281,22.2197 -22.99349,24.0513c-0.4819,0.07648 -6.013,0.75207 -6.013,0.75207l-5.32507,12.85971l-12.04746,-3.7381l5.21945,-14.57767l-5.66015,14.50749l-13.77228,-5.2242l5.42857,-14.98769l-5.06068,14.99981l-15.0102,-6.02676c0,0 6.26564,-15.53995 5.91208,-15.73817c-2.30958,-1.29474 -1.87926,-0.74396 -3.25137,-2.29213c-8.42281,-9.50371 -3.70471,-21.78104 0.72566,-32.98824z" data-paper-data="{&quot;index&quot;:null}" fill="#ffffff" stroke="#000000" stroke-width="2" stroke-linecap="butt"></path><path d="M251.60101,177.55864c-2.17866,5.51119 -7.01391,8.7656 -10.79987,7.26897c-3.78595,-1.49664 -5.08891,-7.17762 -2.91025,-12.68879c2.17866,-5.51119 3.15958,-10.69062 6.94552,-9.19399c2.99672,1.18465 7.2496,10.96844 7.2496,10.96844c0,0 -0.03084,2.49651 -0.48499,3.64538z" data-paper-data="{&quot;index&quot;:null}" fill="#ababab" stroke="#000000" stroke-width="1" stroke-linecap="butt"></path><path d="M273.05895,173.89841c3.78595,1.49664 0.96013,5.94678 -1.21851,11.45796c-2.17866,5.51119 -7.01391,8.76561 -10.79987,7.26898c-3.78595,-1.49664 -5.08891,-7.17762 -2.91025,-12.68881c0.45416,-1.14886 2.13871,-2.99164 2.13871,-2.99164c0,0 9.7932,-4.23117 12.78992,-3.04651z" data-paper-data="{&quot;index&quot;:null}" fill="#ababab" stroke="#000000" stroke-width="1" stroke-linecap="butt"></path><path d="" data-paper-data="{&quot;index&quot;:null}" fill="none" stroke="#000000" stroke-width="1.5" stroke-linecap="round"></path><path d="" data-paper-data="{&quot;index&quot;:null}" fill="none" stroke="#000000" stroke-width="1.5" stroke-linecap="round"></path><path d="" data-paper-data="{&quot;index&quot;:null}" fill="none" stroke="#000000" stroke-width="1.5" stroke-linecap="round"></path><path d="" data-paper-data="{&quot;index&quot;:null}" fill="none" stroke="#000000" stroke-width="1.5" stroke-linecap="round"></path><path d="" data-paper-data="{&quot;index&quot;:null}" fill="none" stroke="#000000" stroke-width="1.5" stroke-linecap="round"></path><path d="" data-paper-data="{&quot;index&quot;:null}" fill="none" stroke="#000000" stroke-width="1.5" stroke-linecap="round"></path><path d="" data-paper-data="{&quot;index&quot;:null}" fill="none" stroke="#000000" stroke-width="1.5" stroke-linecap="round"></path><path d="" data-paper-data="{&quot;index&quot;:null}" fill="none" stroke="#000000" stroke-width="1.5" stroke-linecap="round"></path><path d="" data-paper-data="{&quot;index&quot;:null}" fill="none" stroke="#000000" stroke-width="1.5" stroke-linecap="round"></path><path d="" data-paper-data="{&quot;index&quot;:null}" fill="none" stroke="#000000" stroke-width="1.5" stroke-linecap="round"></path><path d="M258.41104,153.28908c2.55771,-4.76785 8.49626,-6.55952 13.26411,-4.00181c4.76785,2.55771 6.55952,8.49626 4.00181,13.26411c-2.55771,4.76785 -8.49626,6.55952 -13.26411,4.00181c-4.76785,-2.55771 -6.55952,-8.49626 -4.00181,-13.26411z" fill="#ffffff" stroke="#000000" stroke-width="1" stroke-linecap="butt"></path><path d="M209.99533,132.46714c1.16668,-0.1389 2.32313,-0.09309 3.58089,-0.09309c0.08664,0 0.19363,-0.00639 0.31141,-0.0154l-0.12769,-0.02128c-0.24101,-0.0358 -0.42591,-0.24358 -0.42591,-0.49455c0,-0.27614 0.22386,-0.5 0.5,-0.5c0.01204,0 0.02397,0.00043 0.0358,0.00126l0.99344,0.06209l-0.00621,0.09938c0.84565,-0.10829 1.73473,-0.15189 2.64523,-0.14727l-0.20612,-0.06871c-0.20431,-0.06283 -0.35282,-0.25307 -0.35282,-0.47799c0,-0.27614 0.22386,-0.5 0.5,-0.5c0.04955,0 0.09742,0.00721 0.14261,0.02063l0.89531,0.24418c1.6892,0.46069 3.47911,0.63925 5.2823,0.73676c0.08914,-0.13725 0.24378,-0.22802 0.41963,-0.22802c0.00063,0 0.00126,0 0.0019,0l0.99972,0.00324l-0.00015,0.04751l0.05129,-0.01126c0.07774,-0.17521 0.25323,-0.29742 0.45726,-0.29742h1v0.08914c0.01763,0.00164 0.03526,0.00329 0.05289,0.00494c0.42932,-0.07952 0.87557,-0.14262 1.32941,-0.18697c1.14168,-0.50217 2.78157,-0.40993 3.98455,0.15882c0.43808,0.09134 0.85404,0.21098 1.23705,0.36161l0.03352,0.03818l0.00879,-0.01353l0.61156,0.39761c0.0402,0.02527 0.07655,0.0561 0.10797,0.09142c0.08342,0.02602 0.16544,0.05579 0.24553,0.08923c2.92673,0.44436 5.84043,0.97343 8.75992,1.55733c0,0 0.49029,0.09806 0.39223,0.58835c-0.00945,0.04727 -0.02256,0.08908 -0.03851,0.12603c0.42535,0.04028 0.8507,0.08055 1.27605,0.12083c0.82112,0.07775 1.8203,-0.02175 2.61943,0.21767c0.10802,-0.01365 0.21631,-0.023 0.32453,-0.02774v-0.00362h1c0.1327,0 0.25333,0.0517 0.34284,0.13605c3.06228,0.13834 6.34929,0.23341 9.19374,1.1295l0.01293,-0.0965l0.9842,0.1319c0.24811,0.02941 0.44052,0.24048 0.44052,0.4965c0,0.0558 -0.00914,0.10946 -0.02601,0.15958c5.24273,1.37143 10.0694,2.61764 14.02026,6.36717l0.03513,-0.04879l0.80624,0.58049c0.12889,0.09044 0.21315,0.24017 0.21315,0.40958c0,0.2591 -0.19708,0.47217 -0.44951,0.49748l-0.46063,0.05249c-0.41651,0.41639 2.3174,2.20776 3.04976,2.81109c2.11438,1.74188 4.45614,3.74791 6.22097,5.94476l0.04447,-0.0464l0.72133,0.69127c0.09532,0.09104 0.15471,0.2194 0.15471,0.36162c0,0.27614 -0.22386,0.5 -0.5,0.5h-0.86712c-0.91255,0 -1.72545,0.12966 -2.55916,-0.26407c0.56389,0.37987 1.22878,2.02266 0.64221,2.67614c-0.9563,1.0654 -1.23358,-0.02744 -1.93049,-0.0995c-0.50253,-0.05197 0.77279,0.66891 1.05578,1.08743c0.55489,0.82066 3.07698,4.20977 1.17349,4.95396c-0.18071,0.07065 -3.47222,-1.06762 -3.60244,-0.67461c-0.01916,0.05783 2.21403,3.11172 2.39206,3.60858c0.4438,1.25744 2.05885,3.94766 0.89433,5.11742c-0.63992,0.6428 -3.57711,0.00185 -4.43373,0.10993c-0.54032,0.06817 -1.3552,-0.31748 -1.62646,0.15477c-0.34597,0.60232 -0.19956,1.7478 -0.87965,1.88906c-0.81517,0.16932 -3.52759,-1.84664 -4.45922,-2.92885l-0.1411,0.1411l-0.09123,-0.09123c-0.55134,0.70599 -1.34334,0.78333 -2.1348,0.51275c-0.00216,0.00003 -0.00432,0.00004 -0.00649,0.00004c-0.10423,0 -0.20102,-0.0319 -0.28113,-0.08646l-0.14226,-0.09383c-0.31935,-0.15808 -0.63132,-0.36551 -0.91958,-0.60328c-0.21903,-0.13853 -0.44637,-0.27468 -0.67982,-0.40953c0.21542,0.21568 0.43077,0.43113 0.646,0.64637c0,0 0.35355,0.35355 0,0.70711c-0.35355,0.35355 -0.70711,0 -0.70711,0c-1.02035,-1.02035 -2.04326,-2.04572 -3.06467,-3.07609c-1.56424,-0.90897 -3.00266,-1.94868 -3.75492,-3.39443l-0.21066,0.08332l-0.36359,-0.91934c-0.02526,-0.05978 -0.03923,-0.12549 -0.03923,-0.19447c0,-0.01102 0.00036,-0.02196 0.00106,-0.0328c-1.64343,-1.70187 -3.26749,-3.41699 -4.85466,-5.14533c-0.08908,-0.097 -0.17891,-0.19296 -0.26898,-0.28827c-2.61389,-0.96006 -5.18232,-1.98998 -7.75843,-3.08589c-2.45291,-1.0435 -4.90949,-2.12986 -7.29656,-3.3181c-0.70151,-0.3492 -2.20897,-0.78938 -1.21816,-2.19208c0.05915,-0.08374 0.34761,-0.1277 0.7067,-0.14954c-2.35608,-0.55564 -4.74823,-1.49001 -6.92586,-2.09975c-0.52491,-0.14698 -1.98604,-0.36511 -2.74719,-0.71326c-2.22279,-0.01135 -4.4593,-0.14956 -6.50965,-0.69004c-1.81241,0.19538 -3.61816,0.2853 -5.38764,-0.01274v0.11005h-1c-0.27614,0 -0.5,-0.22386 -0.5,-0.5c0,-0.25463 0.19034,-0.46481 0.4365,-0.49601l0.80963,-0.11578c0.14696,-0.02088 0.29388,-0.04327 0.44074,-0.06706c-2.43687,-0.25259 -4.7843,-0.69715 -6.63088,-1.66561l-0.0726,0.14519l-0.88474,-0.44237c-0.16912,-0.08017 -0.28608,-0.25246 -0.28608,-0.45206c0,-0.23236 0.15849,-0.42769 0.37327,-0.4838l0.8325,-0.23786c1.19523,-0.33924 2.44003,-0.53634 3.69952,-0.65084c0.03973,-0.23641 0.24536,-0.41654 0.49307,-0.41654h1v0.0745c0.04132,0.00685 0.08265,0.01369 0.12397,0.02054c1.69599,-0.29087 3.57187,-0.28569 5.28992,-0.10617c1.21168,-0.34414 2.79857,-1.005 4.10601,-1.15504c-0.39144,-0.13233 -0.83219,-0.22286 -0.95967,-0.57898c-0.07695,-0.21496 0.07758,-0.43905 0.37565,-0.65719c-0.30982,-0.06097 -0.62212,-0.11642 -0.93695,-0.16663c-0.96479,0.04165 -1.95676,0.08465 -2.89213,-0.04021c-0.37159,-0.00006 -0.74317,-0.00014 -1.11476,-0.00014h-0.60931c-0.27614,0 -0.5,-0.22386 -0.5,-0.5c0,-0.27614 0.22386,-0.5 0.5,-0.5h0.60931c0.3715,0 0.74301,-0.00006 1.11451,-0.0001c0.6631,-0.08854 1.35466,-0.0927 2.04481,-0.07279c-0.88126,-0.31809 -1.76566,-0.68069 -2.47064,-0.792c-4.58157,-0.72341 -9.16397,-1.43633 -13.75099,-2.12438c-0.98894,-0.14834 -1.97787,-0.29668 -2.96681,-0.44502l-0.9814,-0.14721c-0.24464,-0.03258 -0.43337,-0.24205 -0.43337,-0.4956c0,-0.27614 0.22386,-0.5 0.5,-0.5c0.00854,0 0.01703,0.00021 0.02547,0.00064l0.99562,0.04397l-0.00452,0.10229c0.01651,0.00248 0.07957,0.01193 0.09608,0.01441c1.94154,-0.20077 3.94392,0.06152 5.9026,0.14802c0.1564,0.00691 0.3128,0.01382 0.46919,0.02074c0.08947,-0.08414 0.20995,-0.13569 0.34246,-0.13569h1v0.06684c0.10579,0.00809 0.21161,0.01685 0.31747,0.02625zM234.69642,132.92957c-0.01164,0.08906 -0.05373,0.26415 -0.20592,0.36597c0.05323,0.00762 0.10643,0.01534 0.1596,0.0232c0.61696,-0.06449 1.23011,-0.10665 1.80237,-0.10617c-0.58497,-0.09752 -1.17027,-0.19193 -1.75605,-0.283zM218.38377,143.18396l-0.01528,0.11458l-0.98431,-0.13124c-0.24826,-0.02927 -0.44083,-0.24041 -0.44083,-0.49654c0,-0.20731 0.12617,-0.38515 0.30591,-0.46093c-0.61335,-0.14426 -1.21207,-0.28489 -1.78855,-0.41335c-1.92635,0.00488 -3.86565,-0.0102 -5.74221,0.39052c1.36219,0.11719 2.82198,0.5654 4.0855,0.76114c1.82094,0.2821 3.65683,0.48213 5.49043,0.68938c0.16806,-0.04782 0.33599,-0.09633 0.50378,-0.14537c-0.47716,-0.07781 -0.94925,-0.17855 -1.41444,-0.30819zM225.90457,145.16427c0.12374,0.00631 0.24747,0.01223 0.37118,0.01778c0.00432,-0.06017 0.01388,-0.11862 0.02823,-0.17488c-0.12324,0.00661 -0.24659,0.01415 -0.37006,0.02254c-0.00359,0.04697 -0.01368,0.09212 -0.02935,0.13456zM228.63848,134.9209c0.01442,0.02387 0.0269,0.04905 0.03722,0.07531c0.10161,0.01731 0.20337,0.03413 0.30526,0.05052c0.15995,-0.00874 0.31895,-0.01612 0.4764,-0.02186l-0.00004,-0.00001c-0.02982,-0.03108 -0.05567,-0.06601 -0.07672,-0.10396c-0.24737,0 -0.49475,0 -0.74212,0zM216.18341,132.56276c-0.0061,0.08487 -0.02022,0.17726 -0.04323,0.27796c1.13685,0.0437 2.27384,0.08437 3.41108,0.12061c0.03572,-0.09846 0.10148,-0.18251 0.18621,-0.24108c-0.64901,-0.0427 -1.2979,-0.08414 -1.94587,-0.12913c-0.50538,-0.03509 -1.06693,-0.00369 -1.60819,-0.02837zM222.16838,135.8519c0.15451,0.07123 0.30712,0.14467 0.45773,0.2204c-0.00717,-0.03372 -0.01095,-0.06869 -0.01095,-0.10454c0,-0.02399 0.00169,-0.04758 0.00496,-0.07067c-0.15041,-0.01348 -0.30099,-0.02858 -0.45174,-0.04518zM224.04989,136.6562c-0.05787,-0.03139 -0.11547,-0.06318 -0.17282,-0.09536l-0.07212,-0.00848zM224.55107,136.91564c0.04923,0.05273 0.08719,0.11612 0.11003,0.18633c0.0556,-0.01782 0.11139,-0.03534 0.16726,-0.05253c-0.09307,-0.04385 -0.1855,-0.08843 -0.27729,-0.1338zM233.81355,133.20417c-0.11268,-0.14497 -0.11268,-0.33012 -0.11268,-0.33012l0.24158,-0.05979c-0.53645,-0.08067 -1.07336,-0.15846 -1.61083,-0.23316c-0.60713,0.08223 -1.24038,0.14233 -1.89122,0.18204c0.07955,0.01269 0.15912,0.02526 0.23871,0.03771c1.02477,0.16035 2.08207,0.26845 3.13444,0.40332zM252.06601,156.28093c0.23201,0.25574 0.47667,0.50573 0.721,0.75883c0.15759,0.05759 0.31535,0.11493 0.4733,0.17202c-0.27538,-0.20807 -0.54852,-0.42333 -0.8196,-0.64657c-0.11511,-0.0948 -0.24182,-0.18917 -0.3747,-0.28428zM259.34214,163.38457c-0.60624,-0.41537 -1.20928,-0.84368 -1.79489,-1.28957c0.31371,0.32627 0.6282,0.65205 0.94335,0.97735l0.47251,0.17719c0.11912,0.0447 0.2461,0.08954 0.37903,0.13503z" fill="#bd00f2" stroke="none" stroke-width="0.5" stroke-linecap="butt"></path></g></g></svg>