<svg version="1.1" xmlns="http://www.w3.org/2000/svg" xmlns:xlink="http://www.w3.org/1999/xlink" width="99.99119" height="83.30128" viewBox="0,0,99.99119,83.30128"><g transform="translate(-204.07949,-139.75)"><g data-paper-data="{&quot;isPaintingLayer&quot;:true}" fill-rule="nonzero" stroke-linejoin="miter" stroke-miterlimit="10" stroke-dasharray="" stroke-dashoffset="0" style="mix-blend-mode: normal"><path d="M204.82949,180c0,-21.81525 17.68475,-39.5 39.5,-39.5c21.81525,0 39.5,17.68475 39.5,39.5c0,21.81525 -17.68475,39.5 -39.5,39.5c-21.81525,0 -39.5,-17.68475 -39.5,-39.5z" fill="#d8d8d8" stroke="#000000" stroke-width="1.5" stroke-linecap="butt"></path><path d="M228.58224,167.20295l9,1v8" fill="none" stroke="#000000" stroke-width="1.5" stroke-linecap="round"></path><path d="M248.51493,176.68819v-8l9,-1" data-paper-data="{&quot;index&quot;:null}" fill="none" stroke="#000000" stroke-width="1.5" stroke-linecap="round"></path><path d="M256.96879,195.96181l-31.37388,0.40984v-12.29517z" fill="#ffffff" stroke="#000000" stroke-width="1.5" stroke-linecap="round"></path><path d="M231.95448,186.19634l-0.42397,10.17531" fill="none" stroke="#000000" stroke-width="1.5" stroke-linecap="round"></path><path d="M240.43391,195.94768v-5.9356" fill="none" stroke="#000000" stroke-width="1.5" stroke-linecap="round"></path><g stroke="none" stroke-linecap="butt"><path d="M295.00675,212.31229l0.76283,3.51292l-32.49458,7.05609l-0.76283,-3.51292z" fill="#606060" stroke-width="0"></path><path d="M268.97927,212.4462l1.46208,6.73312l-4.39116,0.95352l-1.46208,-6.73312z" fill="#606060" stroke-width="0"></path><path d="M302.59818,201.16087c0.46758,2.15335 1.4725,6.78117 1.4725,6.78117l-69.58086,15.10924l-2.69074,-12.39137l50.35826,-10.93511l1.09156,5.01253c0,0 19.10017,-4.72363 19.34928,-3.57646z" fill="#969696" stroke-width="NaN"></path><path d="M228.21868,194.39237l12.58901,22.13342l-6.89531,4.99648c0,0 -3.44811,-8.53835 -6.83906,-11.16229c-4.03593,-3.12304 -15.78018,-6.34071 -15.78018,-6.34071z" fill="#606060" stroke-width="0"></path><path d="M264.02096,189.61217l3.49626,16.10092l-6.73312,1.46208l-3.49626,-16.10092z" fill="#606060" stroke-width="0"></path><path d="M258.08583,207.45454l2.20816,10.169l-6.44037,1.3985l-2.20816,-10.169z" fill="#00fffe" stroke-width="0"></path><path d="M248.79168,209.5361l2.20816,10.169l-6.44037,1.3985l-2.20816,-10.169z" fill="#00fffe" stroke-width="0"></path><path d="M266.65917,205.41306l2.20816,10.169l-6.44037,1.3985l-2.20816,-10.169z" fill="#00fffe" stroke-width="0"></path></g></g></g></svg>