<svg version="1.1" xmlns="http://www.w3.org/2000/svg" xmlns:xlink="http://www.w3.org/1999/xlink" width="102.25839" height="85.76939" viewBox="0,0,102.25839,85.76939"><g transform="translate(-179.38854,-145.97941)"><g data-paper-data="{&quot;isPaintingLayer&quot;:true}" fill-rule="nonzero" stroke="#000000" stroke-linejoin="miter" stroke-miterlimit="10" stroke-dasharray="" stroke-dashoffset="0" style="mix-blend-mode: normal"><path d="M199.4885,186.22941c0,-21.81525 17.68475,-39.5 39.5,-39.5c21.81525,0 39.5,17.68475 39.5,39.5c0,21.81525 -17.68475,39.5 -39.5,39.5c-21.81525,0 -39.5,-17.68475 -39.5,-39.5z" fill="#d8d8d8" stroke-width="1.5" stroke-linecap="butt"></path><path d="M230.78361,182.83067v-8" fill="none" stroke-width="1.5" stroke-linecap="round"></path><path d="" data-paper-data="{&quot;index&quot;:null}" fill="none" stroke-width="1.5" stroke-linecap="round"></path><path d="M237.80575,175.09105v8" fill="none" stroke-width="1.5" stroke-linecap="round"></path><g stroke-linecap="butt"><path d="M180.28024,219.93597v-39.20997h37.17169v39.20997c0,0 -15.19427,8.53892 -17.91362,10.06715c-0.80178,0.45059 -1.55727,0.87516 -1.55727,0.87516z" fill="#008c04" stroke-width="1.5"></path><path d="M196.2172,231.54981v-51.72473h4.15075v51.72473z" fill="#00ff08" stroke-width="0"></path><path d="M217.70316,199.7146h-38.31462v-4.15075h38.31462z" fill="#00ff08" stroke-width="0"></path></g><path d="M225.35149,204.11801l24.05023,-2.92199" fill="none" stroke-width="1.5" stroke-linecap="round"></path><g data-paper-data="{&quot;index&quot;:null}" stroke-width="1"><path d="M278.75688,229.69905l-19.20237,-5.7713l2.26729,-7.54379l19.20237,5.7713z" fill="#e8ff00" stroke-linecap="butt"></path><path d="M261.82131,211.69621l0.95361,4.01507l-2.5422,8.70084l-3.13838,3.01175l-0.94954,-4.48636l3.03094,-9.01865z" fill="#8f8f8f" stroke-linecap="butt"></path><path d="M257.27677,222.27836l-58.36586,-14.89796l-4.48574,-7.43023l7.32409,-3.4672l57.36631,19.61814z" fill="#dddddd" stroke-linecap="butt"></path><path d="M215.45011,206.69479l41.99935,12.33843" fill="none" stroke-linecap="round"></path></g></g></g></svg>