<svg version="1.1" xmlns="http://www.w3.org/2000/svg" xmlns:xlink="http://www.w3.org/1999/xlink" width="123.31531" height="117.1483" viewBox="0,0,123.31531,117.1483"><g transform="translate(-198.73851,-145.97942)"><g data-paper-data="{&quot;isPaintingLayer&quot;:true}" fill-rule="nonzero" stroke="#000000" stroke-linejoin="miter" stroke-miterlimit="10" stroke-dasharray="" stroke-dashoffset="0" style="mix-blend-mode: normal"><path d="M199.48851,186.22942c0,-21.81525 17.68475,-39.5 39.5,-39.5c21.81525,0 39.5,17.68475 39.5,39.5c0,21.81525 -17.68475,39.5 -39.5,39.5c-21.81525,0 -39.5,-17.68475 -39.5,-39.5z" fill="#d8d8d8" stroke-width="1.5" stroke-linecap="butt"></path><path d="M242.02205,183.05545v-8" fill="none" stroke-width="1.5" stroke-linecap="round"></path><path d="" data-paper-data="{&quot;index&quot;:null}" fill="none" stroke-width="1.5" stroke-linecap="round"></path><path d="M249.49371,175.54059v8" fill="none" stroke-width="1.5" stroke-linecap="round"></path><path d="M250.38316,206.08242h-6.33253" fill="none" stroke-width="1.5" stroke-linecap="round"></path><g stroke-linecap="butt"><path d="M257.13076,219.41131l59.04633,-6.93848l5.04432,42.92716l-59.04633,6.93848c0,0 -14.92066,-16.03587 -17.59106,-18.90584c-0.78734,-0.8462 -1.52924,-1.64352 -1.52924,-1.64352z" fill="#008c04" stroke-width="1.5"></path><path d="M241.80417,239.87105l77.8923,-9.15305l0.56326,4.79343l-77.8923,9.15305z" fill="#00ff08" stroke-width="0"></path><path d="M292.66056,259.05033l-5.19942,-44.24706l6.25062,-0.73452l5.19942,44.24706z" fill="#00ff08" stroke-width="0"></path></g></g></g></svg>