<svg version="1.1" xmlns="http://www.w3.org/2000/svg" xmlns:xlink="http://www.w3.org/1999/xlink" width="117.91137" height="76.68672" viewBox="0,0,117.91137,76.68672"><g transform="translate(-160.43199,-141.65663)"><g data-paper-data="{&quot;isPaintingLayer&quot;:true}" fill="#1000af" fill-rule="nonzero" stroke="#070054" stroke-width="2.5" stroke-linecap="butt" stroke-linejoin="miter" stroke-miterlimit="10" stroke-dasharray="" stroke-dashoffset="0" style="mix-blend-mode: normal"><path d="M233.75383,166.65944c0,7.58979 -14.76656,13.74251 -32.98204,13.74251c-18.21547,0 -32.98204,-6.15274 -32.98204,-13.74251c0,-7.58979 14.76656,-13.74251 32.98204,-13.74251c18.21547,0 32.98204,6.15274 32.98204,13.74251z"></path><path d="M202.90664,180c0,-20.4861 16.60726,-37.09336 37.09336,-37.09336c20.4861,0 37.09336,16.60726 37.09336,37.09336c0,20.4861 -16.60726,37.09336 -37.09336,37.09336c-20.4861,0 -37.09336,-16.60726 -37.09336,-37.09336z"></path><path d="M212.37659,189.56363c0,8.77042 -11.34837,15.88024 -25.3473,15.88024c-13.99892,0 -25.3473,-7.10982 -25.3473,-15.88024c0,-8.77042 11.34837,-15.88024 25.3473,-15.88024c13.99892,0 25.3473,7.10982 25.3473,15.88024z"></path></g></g></svg>