<svg version="1.1" xmlns="http://www.w3.org/2000/svg" xmlns:xlink="http://www.w3.org/1999/xlink" width="116.68829" height="112.86352" viewBox="0,0,116.68829,112.86352"><g transform="translate(-173.23564,-140.37075)"><g data-paper-data="{&quot;isPaintingLayer&quot;:true}" fill-rule="nonzero" stroke-linejoin="miter" stroke-miterlimit="10" stroke-dasharray="" stroke-dashoffset="0" style="mix-blend-mode: normal"><path d="" data-paper-data="{&quot;index&quot;:null}" fill="none" stroke="#000000" stroke-width="1.5" stroke-linecap="round"></path><path d="" data-paper-data="{&quot;index&quot;:null}" fill="none" stroke="#000000" stroke-width="1.5" stroke-linecap="round"></path><path d="" data-paper-data="{&quot;index&quot;:null}" fill="none" stroke="#000000" stroke-width="1.5" stroke-linecap="round"></path><path d="" data-paper-data="{&quot;index&quot;:null}" fill="none" stroke="#000000" stroke-width="1.5" stroke-linecap="round"></path><path d="" data-paper-data="{&quot;index&quot;:null}" fill="none" stroke="#000000" stroke-width="1.5" stroke-linecap="round"></path><path d="M289.92393,195.4756" data-paper-data="{&quot;index&quot;:null}" fill="none" stroke="#d8d8d8" stroke-width="4" stroke-linecap="round"></path><path d="M241.20089,220.12075c-21.81525,0 -39.5,-17.68475 -39.5,-39.5c0,-21.81525 17.68475,-39.5 39.5,-39.5c21.81525,0 39.5,17.68475 39.5,39.5c0,21.81525 -17.68475,39.5 -39.5,39.5z" fill="#d8d8d8" stroke="#000000" stroke-width="1.5" stroke-linecap="butt"></path><path d="M212.07688,162.69677l17.15344,6.06646" fill="none" stroke="#000000" stroke-width="1.5" stroke-linecap="round"></path><path d="M223.12495,177.39967l-0.20919,-4.76726" fill="none" stroke="#000000" stroke-width="1.5" stroke-linecap="round"></path><path d="M230.36228,167.40908l12.04734,-0.73331" fill="none" stroke="#000000" stroke-width="1.5" stroke-linecap="round"></path><path d="M235.86714,173.18388l-0.20919,5.28695" fill="none" stroke="#000000" stroke-width="1.5" stroke-linecap="round"></path><path d="M237.39081,185.81595c0,0 -2.44712,6.39517 -6.00657,7.52772c-3.85628,1.227 -16.31203,-0.42635 -16.31203,-0.42635" fill="none" stroke="#000000" stroke-width="1.5" stroke-linecap="round"></path><path d="M248.17018,209.1117c-0.22347,0.07643 -1.40869,0.41297 -1.91499,-0.84456c-0.56023,-1.39145 0.83122,-1.95168 0.83122,-1.95168c1.36057,-0.5478 2.72125,-1.09534 4.08306,-1.64007l2.50954,-1.44344c0.22521,-0.1351 0.4888,-0.21277 0.77053,-0.21277c0.82843,0 1.5,0.67157 1.5,1.5c0,0.38852 -0.14771,0.74255 -0.39005,1.00898l-1.44112,1.59733l-0.02403,-0.02168c-0.04244,0.05821 -0.08648,0.11543 -0.13226,0.17158c-0.67739,0.83087 -1.82488,1.12545 -2.73732,1.68818l-1.33954,0.55885c0,0 -1.07598,0.43086 -1.71504,-0.41071z" fill="#999999" stroke="none" stroke-width="0.5" stroke-linecap="butt"></path><path d="M189.7021,194.32463c0.13684,0.93726 0.22643,1.81025 0.26901,2.69968l0.27977,-0.0533l0.55582,2.91724c0.02109,0.10018 0.03218,0.20404 0.03218,0.3105c0,0.19743 -0.03814,0.38594 -0.10746,0.55859c0.21227,0.29937 0.42041,0.60192 0.62479,0.90735c0.16102,-0.32884 0.43883,-0.59009 0.77937,-0.72969c-0.061,-0.16333 -0.09435,-0.34015 -0.09435,-0.52475c0,-0.82843 0.67157,-1.5 1.5,-1.5c0.49374,0 0.93176,0.23855 1.2051,0.60668l1.40806,1.8556l-0.01348,0.01023l0.0397,0.0254c0.00994,0.01484 0.01993,0.0297 0.02997,0.04459c0.66474,0.38269 1.33066,0.76392 1.92491,1.23389c0.00178,-0.05436 0.00646,-0.10798 0.01388,-0.16072l-0.04324,-0.04742l0.06154,-0.05612c0.00087,-0.00406 0.00175,-0.00811 0.00265,-0.01216c-0.50916,-0.32219 -1.00278,-0.66668 -1.47254,-1.04316l-1.16844,-0.96215c0,0 -1.15789,-0.95357 -0.20432,-2.11146c0.95357,-1.15789 2.11146,-0.20432 2.11146,-0.20432l1.14286,0.94131c0.02376,0.01921 0.04803,0.03804 0.07274,0.05654c0.14418,-0.0461 0.29784,-0.07099 0.45731,-0.07099c0.44096,0 0.83748,0.19028 1.11193,0.49321l1.17768,1.29051l-0.02798,0.02553l0.08471,0.04038c0.61977,0.8598 1.25662,1.72008 1.90101,2.58336c0.83331,0.68381 1.92821,2.41168 2.56182,3.42991c2.39648,3.23926 4.72428,6.56473 6.50015,10.10356c0.28702,0.44774 0.57403,0.89549 0.86106,1.34321l0.14825,-0.09715l1.63262,2.49151c0.16224,0.23964 0.257,0.5287 0.257,0.83989c0,0.82843 -0.67157,1.5 -1.5,1.5c-0.48072,0 -0.90863,-0.22614 -1.18314,-0.57784l-1.25186,-1.57509l0.02485,-0.01975l-0.07014,-0.04028c-1.83536,-2.84928 -3.66497,-5.7022 -5.50162,-8.55061c-0.74851,-1.09059 -1.50126,-2.17716 -2.2582,-3.26076c1.98671,4.53247 4.24781,8.90044 6.97956,13.08049c1.11338,1.70367 2.83685,3.59359 4.12384,5.54385c0.88514,1.04278 1.78521,2.0723 2.70146,3.08681l0.01575,0.0563l0.01829,-0.01427l1.14753,1.47008c0.20388,0.25616 0.3257,0.58054 0.3257,0.93338c0,0.82843 -0.67157,1.5 -1.5,1.5c-0.41613,0 -0.79268,-0.16945 -1.06442,-0.44311l-2.11408,-2.12795l0.19847,-0.19718c-0.34404,-0.38583 -0.6863,-0.77385 -1.02677,-1.16396c-2.30255,-2.10648 -4.302,-4.64536 -6.06642,-7.40466c-2.39427,-3.10795 -4.67858,-6.30139 -6.84358,-9.53957c-0.01391,-0.02081 -0.02782,-0.0416 -0.04172,-0.06237c-0.53912,-0.01553 -1.00695,-0.31553 -1.25865,-0.75515l-0.90229,-1.51369c-0.25231,-0.33907 -0.51734,-0.67476 -0.78788,-1.0096c0.62187,1.71704 1.13735,3.43262 1.49297,5.24263l0.36682,-0.12615l0.96424,2.80387c0.06008,0.16225 0.0929,0.33773 0.0929,0.52087c0,0.82843 -0.67157,1.5 -1.5,1.5c-0.31683,0 -0.61071,-0.09823 -0.85286,-0.26589c0.02717,0.11293 0.04156,0.23084 0.04156,0.35212c0,0.28963 -0.08208,0.56008 -0.22426,0.78937c0.53921,0.98538 0.97668,1.97682 1.16985,2.89044c0.00635,0.03002 0.01251,0.06006 0.01851,0.09012l0.01286,-0.00426l0.9321,2.81466c0.05636,0.15774 0.08706,0.32769 0.08706,0.5048c0,0.82843 -0.67157,1.5 -1.5,1.5c-0.1216,0 -0.23981,-0.01447 -0.35302,-0.04178c1.05564,1.39811 2.08802,2.77169 3.04529,4.2082c2.33646,2.27667 4.53797,4.64973 6.40391,7.25963l0.24749,-0.24695l2.11892,2.12355c0.00003,0.00003 0.00006,0.00006 0.00008,0.00008c0.27077,0.27135 0.43818,0.64588 0.43818,1.0595c0,0.82843 -0.67157,1.5 -1.5,1.5c-0.35196,0 -0.67561,-0.12122 -0.93148,-0.32419l-2.30074,-1.78951l0.00282,-0.00363l-0.01408,-0.00521c-8.11084,-6.5617 -15.9433,-13.48538 -22.49805,-21.63141c-3.34788,-4.16063 -6.68267,-7.77261 -8.35956,-12.92319c0,0 -0.31946,-0.99145 0.40026,-1.58816c-0.10071,-0.20155 -0.15737,-0.42895 -0.15737,-0.66958c0,-0.82843 0.67157,-1.5 1.5,-1.5c0.46996,0 0.88944,0.21612 1.16447,0.5544l1.90209,2.30436l-0.23961,0.19778c1.27272,1.08114 2.48673,2.24277 3.65686,3.46369c-1.59122,-2.89353 -3.10993,-5.82934 -4.57121,-8.79605l-0.72107,-1.45161c-0.10866,-0.20764 -0.17011,-0.44389 -0.17011,-0.69448c0,-0.16614 0.02701,-0.32598 0.07688,-0.47535c-1.35171,-2.48145 -2.3761,-4.83459 -3.0902,-7.5008l-0.27242,0.1001l-1.02275,-2.78335c-0.06713,-0.17028 -0.10401,-0.3558 -0.10401,-0.54993c0,-0.82843 0.67157,-1.5 1.5,-1.5c0.29257,0 0.56558,0.08376 0.79636,0.22862l0.8221,0.49649c0.2512,-0.18966 0.56395,-0.30212 0.90296,-0.30212c0.31175,0 0.60128,0.0951 0.84117,0.25787l-0.30239,-1.36219c-0.02788,-0.11431 -0.04266,-0.23375 -0.04266,-0.35664c0,-0.82843 0.67157,-1.5 1.5,-1.5c0.55983,0 1.04803,0.30669 1.30576,0.76123l0.52691,0.89198c0.27434,-0.30104 0.6696,-0.48996 1.10899,-0.48996c0.55867,0 1.046,0.30542 1.30414,0.75839l1.51693,2.55587l-0.29495,0.17506c0.36645,0.45901 0.71517,0.92338 1.05056,1.3957c-0.02217,-0.10259 -0.03384,-0.20909 -0.03384,-0.31832c0,-0.82843 0.67157,-1.5 1.5,-1.5c0.67577,0 1.24717,0.44688 1.43481,1.06124l1.03973,3.13965c0,0 0.175,0.52844 -0.01014,1.0481zM185.4517,201.27575c-0.33578,0 -0.64578,-0.11033 -0.89575,-0.29671l0.02395,0.02667l-0.2611,0.23446c0.09723,0.13543 0.19435,0.27092 0.29134,0.40649c2.09646,1.91389 3.90264,4.13506 5.57723,6.48549c-1.1,-2.7219 -2.18328,-5.45034 -3.19912,-8.20454l-0.03739,-0.10138c-0.02662,0.80506 -0.68763,1.44952 -1.49917,1.44952zM184.03629,200.2736l-0.69526,-1.83835c-0.24069,-0.56454 -0.5221,-1.1524 -0.81972,-1.75663c0.06229,0.71687 0.10381,1.4373 0.11908,2.16717l0.01663,0.01852l0.37246,-0.05511l0.08324,0.5626l1.04608,1.16496c-0.04892,-0.08293 -0.09009,-0.17099 -0.12251,-0.26316z" fill="#73a367" stroke="none" stroke-width="0.5" stroke-linecap="butt"></path><path d="M225.46358,234.48213c1.35378,-0.64596 1.99975,0.70782 1.99975,0.70782l0.82031,1.72917c1.23831,1.81687 2.22594,3.35905 3.10087,5.03798l0.22643,-0.14763l1.62674,2.4951c0.16113,0.23911 0.25518,0.52717 0.25518,0.83719c0,0.82843 -0.67157,1.5 -1.5,1.5c-0.16966,0 -0.33274,-0.02817 -0.48481,-0.08008l-0.91558,-0.28895c-0.21492,0.56535 -0.76183,0.9671 -1.40258,0.9671c-0.25595,0 -0.49692,-0.0641 -0.70775,-0.17713l-0.78471,-0.40006c0.07866,0.18218 0.12225,0.38304 0.12225,0.59409c0,0.82843 -0.67157,1.5 -1.5,1.5c-0.34436,0 -0.66163,-0.11604 -0.91481,-0.31116l-2.31597,-1.74577c-1.42426,-0.97615 -3.15779,-1.88521 -4.68071,-2.96688c0.9382,1.6058 1.77752,3.15786 2.49406,4.83357l0.31918,-0.19249l1.53663,2.54805c0.14456,0.23061 0.22814,0.50334 0.22814,0.79559c0,0.82843 -0.67157,1.5 -1.5,1.5c-0.44801,0 -0.85015,-0.19641 -1.12501,-0.50783l-0.18847,-0.21159c-0.26128,0.44065 -0.74172,0.73606 -1.29116,0.73606c-0.26523,0 -0.51438,-0.06884 -0.73056,-0.18962l-2.62241,-1.39743c0,0 -1.32378,-0.70542 -0.61836,-2.02919c0.13684,-0.25679 0.29695,-0.43722 0.46615,-0.56126c-0.41428,-0.44869 -0.78693,-0.93909 -1.12094,-1.42724l-1.68314,-2.4599c-0.17199,-0.24407 -0.273,-0.54176 -0.273,-0.86304c0,-0.82843 0.67157,-1.5 1.5,-1.5c0.22128,0 0.43137,0.04792 0.62046,0.13394c-0.15196,-0.2773 -0.30531,-0.54739 -0.46164,-0.8072l-0.01757,-0.09614l-0.02359,0.01042l-1.19871,-2.7144c-0.09049,-0.19306 -0.14105,-0.40856 -0.14105,-0.63587c0,-0.82843 0.67157,-1.5 1.5,-1.5c0.32195,0 0.62022,0.10143 0.86458,0.27408l2.45775,1.68649l-0.17357,0.25295c0.89972,0.48011 1.76854,0.98941 2.62795,1.52423c0.25433,-0.46649 0.74914,-0.78301 1.31787,-0.78301c0.25595,0 0.49692,0.0641 0.70775,0.17713l2.64625,1.34911l-0.10802,0.21189c0.55512,0.1857 1.1028,0.3905 1.63971,0.61899c0.26916,-0.25654 0.63356,-0.41403 1.03474,-0.41403c0.16966,0 0.33274,0.02817 0.48481,0.08008l0.83891,0.26476c-1.02874,-1.1631 -1.76208,-2.59239 -2.73428,-4.02766l-0.92588,-1.93044c0,0 -0.64596,-1.35378 0.70782,-1.99975z" fill="#73a367" stroke="none" stroke-width="0.5" stroke-linecap="butt"></path><path d="M249.98712,195.9688c0,0.26383 -0.0464,0.48125 -0.12289,0.66043c0.92142,1.83766 1.69303,3.39818 2.27801,5.1563l0.43047,-0.16847l1.08088,2.76179c0.07449,0.17804 0.11564,0.37349 0.11564,0.57855c0,0.82843 -0.67157,1.5 -1.5,1.5c-0.39205,0 -0.74897,-0.15041 -1.01621,-0.39667l-1.15205,-1.0542l0.01598,-0.01746l-0.05933,-0.02383c-1.255,-1.34552 -3.01053,-2.73158 -4.55106,-4.22602c0.82691,1.92644 1.51388,3.89946 1.4294,5.58313c-0.00401,0.07982 -0.01042,0.15922 -0.01901,0.23825l0.01831,0.00152l-0.17885,2.15198c-0.05638,0.77701 -0.70463,1.38987 -1.49602,1.38987c-0.38538,0 -0.73681,-0.14533 -1.00249,-0.38418l-2.23532,-1.99137c-0.51938,-0.4627 -1.03822,-0.87637 -1.53402,-1.27854c0.02396,0.10375 0.03626,0.189 0.03478,0.25194c-0.14876,6.30926 -3.65647,3.10223 -6.25246,0.76396c1.26253,2.55535 2.57719,5.48526 2.16329,7.78051c-0.25772,1.42914 -0.12096,3.43847 -1.40044,4.12534c-0.79409,0.4263 -1.58214,0.00998 -2.2677,-0.66857c0.06234,0.16489 0.09646,0.34365 0.09646,0.53037c0,0.82843 -0.67157,1.5 -1.5,1.5c-0.43552,0 -0.82769,-0.18561 -1.10172,-0.48204l-1.21057,-1.30203l0.00974,-0.00905l-0.03327,-0.01686c-0.46157,-0.54543 -0.9092,-1.10201 -1.34966,-1.66418l0.39509,1.43779c0.04081,0.1364 0.06273,0.28096 0.06273,0.43064c0,0.82843 -0.67157,1.5 -1.5,1.5c-0.41613,0 -0.79268,-0.16945 -1.06442,-0.44312l-1.6316,-1.64232c-1.0876,-0.84956 -2.45665,-1.70921 -3.81689,-2.63397c0.85964,1.12771 1.72312,2.25507 2.57263,3.40524c0.69499,0.94096 2.85971,3.57191 3.05161,4.94327c0.00962,0.06872 0.01721,0.13748 0.02297,0.20627l0.02904,-0.00541l0.30969,1.66253c0.02023,0.09821 0.03085,0.19993 0.03085,0.30413c0,0.39019 -0.14899,0.74559 -0.39317,1.01241l1.36385,2.60108c0.11791,0.21423 0.18498,0.46038 0.18498,0.7222c0,0.82843 -0.67157,1.5 -1.5,1.5c-0.39972,0 -0.76292,-0.15635 -1.03179,-0.41123l-1.67863,-1.58404l0.02409,-0.02553l-0.09391,-0.04486c-3.74188,-4.58932 -7.91742,-9.36952 -10.854,-14.62734c-0.31374,-0.3719 -0.62786,-0.74147 -0.94367,-1.10638l-0.04503,0.034l-1.79878,-2.38236c-0.19553,-0.25333 -0.31184,-0.57093 -0.31184,-0.91569c0,-0.25783 0.06505,-0.50046 0.17963,-0.71239c-0.64288,-0.95994 -1.30171,-1.90879 -1.98773,-2.83833c0,0 -0.89072,-1.20691 0.31619,-2.09762c1.20691,-0.89072 2.09762,0.31619 2.09762,0.31619c0.59538,0.80673 1.16947,1.62915 1.73,2.46138c0.03626,-0.00262 0.07288,-0.00396 0.10981,-0.00396c0.20987,0 0.40968,0.0431 0.59104,0.12094c0.14548,-0.67618 0.74677,-1.18299 1.46644,-1.18299c0.34454,0 0.66196,0.11616 0.91521,0.31146l2.38311,1.79771l-0.19802,0.26251c2.26259,1.30919 4.34041,2.82568 6.43228,4.44386c-0.55162,-1.03031 -1.06565,-2.09465 -1.63538,-3.0594l-1.45513,-2.40624c-0.14512,-0.23092 -0.22906,-0.50419 -0.22906,-0.79706c0,-0.82843 0.67157,-1.5 1.5,-1.5c0.35086,0 0.67358,0.12046 0.92906,0.32228l1.35502,1.04915l-0.01163,0.01502c0.03307,0.01871 0.06592,0.03792 0.09852,0.05767c0.6795,0.41168 1.32456,0.96748 1.94214,1.61223c-0.44282,-1.23011 -0.86472,-2.39587 -1.31197,-3.35518l-0.77523,-1.66277c-0.09854,-0.19981 -0.1539,-0.42473 -0.1539,-0.66259c0,-0.82843 0.67157,-1.5 1.5,-1.5c0.52062,0 0.97929,0.26523 1.24827,0.66795l1.68771,2.4538l-0.3698,0.25434c1.63019,1.90372 2.81785,3.90863 4.40579,6.4084c0.3855,0.60687 0.77256,1.21275 1.15778,1.8198c-0.30754,-1.25987 -0.55461,-2.52131 -0.65191,-2.77283c-0.40132,-1.03737 -1.88763,-4.48417 -2.31836,-5.49039l-0.00219,-0.01707l-0.0041,0.00165l-0.96409,-2.39781c-0.07784,-0.18138 -0.12095,-0.38119 -0.12095,-0.59108c0,-0.82843 0.67157,-1.5 1.5,-1.5c0.31672,0 0.61052,0.09816 0.85262,0.26572l1.2439,0.83472l-0.15181,0.22623c1.55143,0.66504 3.14516,1.58213 4.28438,2.75355c-0.31785,-0.75656 -0.62009,-1.52094 -0.96943,-2.26265l-0.00036,-0.00457l-0.00145,0.00067l-0.72201,-1.55735c-0.09768,-0.19911 -0.15253,-0.42305 -0.15253,-0.65979c0,-0.82843 0.67157,-1.5 1.5,-1.5c0.38538,0 0.73681,0.14533 1.00249,0.38418l2.23532,1.99137l-0.19441,0.21823c1.45421,0.99554 2.76099,2.07987 4.29218,3.43356c-0.10925,-0.39607 -0.20686,-0.79666 -0.3291,-1.1711c-0.77143,-2.36307 -1.88286,-4.73948 -2.73787,-7.0768l0.00112,-0.04914l-0.01513,0.00449l-0.53483,-1.80232c-0.04668,-0.14499 -0.07189,-0.2996 -0.07189,-0.46011c0,-0.82843 0.67157,-1.5 1.5,-1.5c0.39043,0 0.74603,0.14917 1.0129,0.39363l2.2159,2.01459l-0.20447,0.2249c0.90493,0.65607 1.76306,1.34468 2.59544,2.06797c-0.18217,-0.38962 -0.36507,-0.77779 -0.55454,-1.15905l1.97373,-2.16731c0,0 1.5,0 1.5,1.5z" fill="#c2c2c2" stroke="none" stroke-width="0.5" stroke-linecap="butt"></path><path d="M188.03255,235.09578c-2.21209,-4.04428 -4.27159,-8.17992 -7.36695,-11.57418c0,0 -1.00998,-1.10903 0.09905,-2.11901c1.10903,-1.00998 2.11901,0.09905 2.11901,0.09905c1.08536,1.19334 2.04238,2.47066 2.92219,3.79929c0.25156,-0.47557 0.75133,-0.79962 1.32679,-0.79962c0.39733,0 0.75858,0.15449 1.02696,0.40667l1.46812,1.3722l-0.0458,0.04901l0.15365,0.06281c0.16483,0.234 0.3262,0.46761 0.48416,0.70095c3.75865,4.39987 8.36742,8.73879 10.79513,13.96756l0.23925,0.26206l0.26635,-0.17416l1.12797,1.72503c0.16177,0.23942 0.25623,0.52805 0.25623,0.83875c0,0.82843 -0.67157,1.5 -1.5,1.5c-0.38527,0 -0.73662,-0.14525 -1.00227,-0.38398c-0.23713,0.15706 -0.5215,0.24852 -0.82722,0.24852c-0.24836,0 -0.48261,-0.06036 -0.68891,-0.1672l-2.66512,-1.30941l0.10549,-0.21471c-0.27302,0.37152 -0.71311,0.61265 -1.20951,0.61265c-0.40639,0 -0.77504,-0.16161 -1.04517,-0.42408l-1.8906,-1.83236l0.02548,-0.02629l-0.10781,-0.06011c-0.16262,-0.21727 -0.3224,-0.43648 -0.47956,-0.65746c-0.10977,-0.06119 -0.21931,-0.12283 -0.32865,-0.1849l0.58724,0.75071c0.20441,0.25634 0.32659,0.58115 0.32659,0.9345c0,0.82843 -0.67157,1.5 -1.5,1.5c-0.45936,0 -0.8705,-0.20649 -1.14565,-0.53171l-1.91798,-2.23946c-0.02811,-0.02942 -0.05622,-0.0588 -0.08435,-0.08816c-0.88174,-0.73398 -1.63081,-1.5497 -2.34046,-2.39197c-1.62249,-1.64336 -3.21726,-3.27087 -4.67433,-5.04184c-0.00196,-0.0015 -0.00393,-0.003 -0.0059,-0.0045l-0.24985,0.2806l-0.81236,-0.72334l-0.0238,-0.00422c0,0 -0.76699,-0.2316 -1.01061,-0.91683l-0.38823,-0.34569c-0.31153,-0.27486 -0.50802,-0.67707 -0.50802,-1.12518c0,-0.82843 0.67157,-1.5 1.5,-1.5c0.31672,0 0.61051,0.09816 0.85261,0.26572l1.55827,1.04566c2.20248,1.47249 4.3814,2.95791 6.57857,4.41867zM189.98137,232.5577c0.36051,0.66272 0.7237,1.32415 1.09489,1.98091c-0.09537,-0.24772 -0.19757,-0.49309 -0.30577,-0.73624c-0.26844,-0.412 -0.53179,-0.82667 -0.78913,-1.24467z" fill="#999999" stroke="none" stroke-width="0.5" stroke-linecap="butt"></path><path d="M229.43336,237.35239c-0.36839,-0.35265 -0.73674,-0.70534 -1.10506,-1.05806c-0.25562,0.46206 -0.74799,0.77493 -1.31343,0.77493c-0.4904,0 -0.92584,-0.23534 -1.19954,-0.59924l-1.81732,-2.36655l0.05886,-0.0452l-0.02145,-0.02942c-0.49122,-0.67375 -0.98979,-1.34598 -1.49133,-2.01848c-1.26386,-1.42826 -2.43732,-2.9744 -3.77181,-4.71426l-1.22424,-1.33496c-0.24686,-0.26736 -0.39769,-0.62472 -0.39769,-1.01731c0,-0.11477 0.01289,-0.22652 0.0373,-0.3339c-1.1925,-1.78762 -2.30055,-3.6197 -3.25064,-5.52642l-0.27882,0.1926l-1.6943,-2.45273c-0.17419,-0.24502 -0.27661,-0.54462 -0.27661,-0.86815c0,-0.82843 0.67157,-1.5 1.5,-1.5c0.35903,0 0.68861,0.12614 0.94682,0.33652l2.27147,1.8187c0.37243,0.29964 0.73728,0.60785 1.09536,0.92368c0.02292,-0.01772 0.04665,-0.0353 0.07123,-0.05275c1.22329,-0.86808 2.09137,0.35521 2.09137,0.35521c3.93921,5.55177 8.16102,11.00819 12.36918,16.35809l1.55153,1.97289c0.20577,0.25677 0.32885,0.58268 0.32885,0.93732c0,0.04508 -0.00199,0.0897 -0.00588,0.13377l1.02051,0.78102c0.3651,0.2736 0.60135,0.70977 0.60135,1.20113c0,0.82843 -0.67157,1.5 -1.5,1.5c-0.34708,0 -0.66662,-0.11788 -0.92079,-0.31579l-3.18045,-2.42447c0,0 -0.31113,-0.23718 -0.49448,-0.62817z" fill="#999999" stroke="none" stroke-width="0.5" stroke-linecap="butt"></path></g></g></svg>