<svg version="1.1" xmlns="http://www.w3.org/2000/svg" xmlns:xlink="http://www.w3.org/1999/xlink" width="107.87712" height="80.9914" viewBox="0,0,107.87712,80.9914"><g transform="translate(-182.04681,-139.8793)"><g data-paper-data="{&quot;isPaintingLayer&quot;:true}" fill-rule="nonzero" stroke-linejoin="miter" stroke-miterlimit="10" stroke-dasharray="" stroke-dashoffset="0" style="mix-blend-mode: normal"><path d="" data-paper-data="{&quot;index&quot;:null}" fill="#737373" stroke="none" stroke-width="0" stroke-linecap="round"></path><path d="" data-paper-data="{&quot;index&quot;:null}" fill="#737373" stroke="none" stroke-width="0" stroke-linecap="round"></path><path d="" data-paper-data="{&quot;index&quot;:null}" fill="#737373" stroke="none" stroke-width="0" stroke-linecap="round"></path><path d="" data-paper-data="{&quot;index&quot;:null}" fill="#737373" stroke="none" stroke-width="0" stroke-linecap="round"></path><path d="" data-paper-data="{&quot;index&quot;:null}" fill="#737373" stroke="none" stroke-width="0" stroke-linecap="round"></path><path d="" data-paper-data="{&quot;index&quot;:null}" fill="#737373" stroke="none" stroke-width="0" stroke-linecap="round"></path><path d="M205.12053,177.89852l-16.34335,-9.20811" fill="#737373" stroke="none" stroke-width="0" stroke-linecap="round"></path><path d="M197.45587,174.81546l-0.2535,3.54897" fill="#737373" stroke="none" stroke-width="0" stroke-linecap="round"></path><path d="M227.76026,170.152l-13.96519,6.03143" fill="#737373" stroke="none" stroke-width="0" stroke-linecap="round"></path><path d="M220.01717,174.05496v5.06996" fill="#737373" stroke="none" stroke-width="0" stroke-linecap="round"></path><path d="" data-paper-data="{&quot;index&quot;:null}" fill="#737373" stroke="none" stroke-width="0" stroke-linecap="round"></path><path d="" data-paper-data="{&quot;index&quot;:null}" fill="#737373" stroke="none" stroke-width="0" stroke-linecap="round"></path><path d="" data-paper-data="{&quot;index&quot;:null}" fill="#737373" stroke="none" stroke-width="0" stroke-linecap="round"></path><path d="" data-paper-data="{&quot;index&quot;:null}" fill="#737373" stroke="none" stroke-width="0" stroke-linecap="round"></path><path d="" data-paper-data="{&quot;index&quot;:null}" fill="#737373" stroke="none" stroke-width="0" stroke-linecap="round"></path><path d="" data-paper-data="{&quot;index&quot;:null}" fill="#737373" stroke="none" stroke-width="0" stroke-linecap="round"></path><path d="" data-paper-data="{&quot;index&quot;:null}" fill="none" stroke="#000000" stroke-width="1.5" stroke-linecap="round"></path><path d="M289.92393,195.47554" data-paper-data="{&quot;index&quot;:null}" fill="none" stroke="#d8d8d8" stroke-width="4" stroke-linecap="round"></path><g data-paper-data="{&quot;index&quot;:null}"><path d="M241.20087,220.1207c-21.81525,0 -39.5,-17.68475 -39.5,-39.5c0,-21.81525 17.68475,-39.5 39.5,-39.5c21.81525,0 39.5,17.68475 39.5,39.5c0,21.81525 -17.68475,39.5 -39.5,39.5z" fill="#d8d8d8" stroke="#000000" stroke-width="1.5" stroke-linecap="butt"></path><path d="M247.88205,169.87071v8" fill="none" stroke="#000000" stroke-width="1.5" stroke-linecap="round"></path><path d="M233.18255,175.93954c0,0 1.81439,-2.93117 3.02185,-2.93117c1.42349,0 2.69835,2.93117 2.69835,2.93117" fill="none" stroke="#000000" stroke-width="1.5" stroke-linecap="round"></path><path d="M279.67713,173.391c0,5.64286 -76.33784,5.68004 -76.33784,0c0,-22.64574 16.13064,-33.5117 38.77639,-33.5117c22.64575,0 37.56146,10.86595 37.56146,33.5117z" fill="#006321" stroke="none" stroke-width="0" stroke-linecap="butt"></path><g fill="#ffffff" stroke="#000000" stroke-width="1.5"><path d="M240.77276,182.21615c15.494,0 28.05437,2.53703 28.05437,5.66661c0,0.87508 0.87587,6.72018 -0.87774,7.46009c-4.51789,1.90627 -16.015,-1.79348 -27.17663,-1.79348c-15.494,0 -28.05437,-2.53703 -28.05437,-5.66661c0,-3.12958 12.56037,-5.66661 28.05437,-5.66661z" stroke-linecap="butt"></path><path d="M262.51025,194.29253l-0.37158,-9.66111" stroke-linecap="round"></path><path d="M255.82181,184.81721l0.74316,10.21848" stroke-linecap="round"></path><path d="M249.13334,183.33089l-0.92895,9.8469" stroke-linecap="round"></path><path d="M243.18804,183.33089v9.66111" stroke-linecap="round"></path><path d="M235.75642,183.51668l-1.48632,9.28953" stroke-linecap="round"></path><path d="M224.23742,190.9483l4.64476,-7.98899" stroke-linecap="round"></path><path d="M217.17738,190.20514l4.64476,-6.31688" stroke-linecap="round"></path></g><path d="M272.85723,200.64252v-24.90598c0,0 3.90168,-9.42514 6.27712,0c2.37544,9.42514 0,24.90598 0,24.90598z" fill="#006321" stroke="#000000" stroke-width="0" stroke-linecap="butt"></path><path d="M199.55671,198.61765c0,0 -0.57952,-21.79725 0,-24.09603c0.57952,-2.29878 6.07463,0 6.07463,0v24.09603z" fill="#006321" stroke="none" stroke-width="0" stroke-linecap="butt"></path></g><g data-paper-data="{&quot;index&quot;:null}" stroke-width="0" stroke-linecap="butt"><path d="M185.7195,160.5944l17.65301,0.14077l-0.32459,40.70575l-17.65301,-0.14077z" fill="#8c8c8c" stroke="#000000"></path><path d="M199.89027,172.68995l15.57619,0.1242l-0.03975,4.98438l-15.57619,-0.1242z" fill="#999999" stroke="none"></path><path d="M210.26445,174.01884l4.56901,0.03643l-0.21694,27.2064l-4.56901,-0.03643z" fill="#999999" stroke="none"></path><path d="M200.94261,196.99871l12.46095,0.09936l-0.03312,4.15365l-12.46095,-0.09936z" fill="#999999" stroke="none"></path><path d="M184.34721,168.41209l20.35288,0.16229l-0.3246,40.70574l-20.35288,-0.16229z" fill="#adadad" stroke="#000000"></path><path d="M182.67415,169.85262l15.78386,0.12585l-0.26572,33.32149l-15.78386,-0.12585z" fill="#595959" stroke="none"></path><path d="M182.09318,190.61755l11.83789,0.09439l-0.04637,5.81511l-11.83789,-0.09439z" fill="#9c009e" stroke="none"></path><path d="M182.43371,181.96085l11.83789,0.09439l-0.04637,5.81511l-11.83789,-0.09439z" fill="#c400c8" stroke="none"></path><path d="M182.56487,173.51017l11.83789,0.09439l-0.04637,5.81511l-11.83789,-0.09439z" fill="#fb00ff" stroke="none"></path><path d="M183.67382,148.67564l21.59897,0.17224l-0.10433,13.084l-21.59897,-0.17224z" fill="#767676" stroke="none"></path></g></g></g></svg>