<svg version="1.1" xmlns="http://www.w3.org/2000/svg" xmlns:xlink="http://www.w3.org/1999/xlink" width="161.21829" height="83.41861" viewBox="0,0,161.21829,83.41861"><g transform="translate(-377.35688,-140.37079)"><g data-paper-data="{&quot;isPaintingLayer&quot;:true}" fill-rule="nonzero" stroke-linejoin="miter" stroke-miterlimit="10" stroke-dasharray="" stroke-dashoffset="0" style="mix-blend-mode: normal"><path d="" data-paper-data="{&quot;index&quot;:null}" fill="none" stroke="#000000" stroke-width="1.5" stroke-linecap="round"/><path d="" data-paper-data="{&quot;index&quot;:null}" fill="none" stroke="#000000" stroke-width="1.5" stroke-linecap="round"/><path d="" data-paper-data="{&quot;index&quot;:null}" fill="none" stroke="#000000" stroke-width="1.5" stroke-linecap="round"/><path d="" data-paper-data="{&quot;index&quot;:null}" fill="none" stroke="#000000" stroke-width="1.5" stroke-linecap="round"/><path d="" data-paper-data="{&quot;index&quot;:null}" fill="none" stroke="#000000" stroke-width="1.5" stroke-linecap="round"/><path d="M538.57517,194.427" data-paper-data="{&quot;index&quot;:null}" fill="none" stroke="#d8d8d8" stroke-width="4" stroke-linecap="round"/><path d="M481.20089,220.12079c-21.81525,0 -39.5,-17.68475 -39.5,-39.5c0,-21.81525 17.68475,-39.5 39.5,-39.5c21.81525,0 39.5,17.68475 39.5,39.5c0,21.81525 -17.68475,39.5 -39.5,39.5z" fill="#d8d8d8" stroke="#000000" stroke-width="1.5" stroke-linecap="butt"/><path d="M469.23032,168.76326l-17.15344,-6.06646" fill="none" stroke="#000000" stroke-width="1.5" stroke-linecap="round"/><path d="M462.91576,171.85073l0.20919,7.1124" fill="none" stroke="#000000" stroke-width="1.5" stroke-linecap="round"/><path d="M470.36228,167.40912l12.04734,-0.73331" fill="none" stroke="#000000" stroke-width="1.5" stroke-linecap="round"/><path d="M475.86714,171.93312l-0.20919,6.69403" fill="none" stroke="#000000" stroke-width="1.5" stroke-linecap="round"/><path d="M477.39081,185.81599c0,0 -2.44712,6.39517 -6.00657,7.52772c-3.85628,1.227 -16.31203,-0.42635 -16.31203,-0.42635" fill="none" stroke="#000000" stroke-width="1.5" stroke-linecap="round"/><g><path d="" data-paper-data="{&quot;index&quot;:null}" fill="none" stroke="#000000" stroke-width="1.5" stroke-linecap="round"/><path d="" data-paper-data="{&quot;index&quot;:null}" fill="none" stroke="#000000" stroke-width="1.5" stroke-linecap="round"/><path d="" data-paper-data="{&quot;index&quot;:null}" fill="none" stroke="#000000" stroke-width="1.5" stroke-linecap="round"/><path d="" data-paper-data="{&quot;index&quot;:null}" fill="none" stroke="#000000" stroke-width="1.5" stroke-linecap="round"/><path d="" data-paper-data="{&quot;index&quot;:null}" fill="none" stroke="#000000" stroke-width="1.5" stroke-linecap="round"/><path d="M411.96258,192.71522" data-paper-data="{&quot;index&quot;:null}" fill="none" stroke="#d8d8d8" stroke-width="4" stroke-linecap="round"/><g stroke-width="0" stroke-linecap="butt"><path d="M381.24476,216.65028l5.45073,-13.26016l5.40162,4.27691z" fill="#aeaeae" stroke="none"/><path d="M387.56279,188.74462l-6.32103,-5.00487l7.7348,-9.76887l6.32103,5.00487z" fill="#a7ed95" stroke="none"/><path d="M434.29637,218.61317l-24.13484,-19.10954l1.27397,-1.60899l24.13484,19.10954z" fill="#c2c2c2" stroke="none"/><path d="M435.87469,223.7894l-4.17884,-3.30873l5.36887,-6.78073l4.17884,3.30873z" fill="#a6a6a6" stroke="#000000"/><path d="M398.28728,215.37295l-20.9304,-16.57231l26.20737,-33.09923l20.9304,16.57231z" fill="#73a367" stroke="none"/><path d="M415.14178,179.42251l-5.40162,-4.27691l11.65684,-8.34629z" data-paper-data="{&quot;index&quot;:null}" fill="#aeaeae" stroke="none"/></g></g></g></g></svg>