<svg version="1.1" xmlns="http://www.w3.org/2000/svg" xmlns:xlink="http://www.w3.org/1999/xlink" width="145.10169" height="80.50384" viewBox="0,0,145.10169,80.50384"><defs><radialGradient cx="240.00001" cy="180.00007" r="39.5" gradientUnits="userSpaceOnUse" id="color-1"><stop offset="0" stop-color="#e6e6e6"></stop><stop offset="1" stop-color="#ecdeee"></stop></radialGradient></defs><g transform="translate(-135.15025,-139.74814)"><g data-paper-data="{&quot;isPaintingLayer&quot;:true}" fill-rule="nonzero" stroke-linejoin="miter" stroke-miterlimit="10" stroke-dasharray="" stroke-dashoffset="0" style="mix-blend-mode: normal"><g stroke="#000000"><path d="M209.4834,208.89585c-4.65381,-0.04284 -8.39172,-3.85022 -8.34889,-8.50402c0.04284,-4.65381 3.85022,-8.39172 8.50402,-8.34889c4.65381,0.04284 8.39172,3.85022 8.34889,8.50402c-0.04284,4.65381 -3.85022,8.39172 -8.50402,8.34889z" data-paper-data="{&quot;index&quot;:null}" fill="#d4c0d7" stroke-width="1" stroke-linecap="butt"></path><g data-paper-data="{&quot;index&quot;:null}" stroke-width="0.8"><path d="M196.1704,193.52895l0.22767,4.21926l8.68896,4.18584l-8.48405,-0.38851l-3.14241,8.42108l-2.76456,-8.10233l-25.566,-3.27516z" fill="#0033b3" stroke-linecap="round"></path><path d="M195.15462,196.35045l17.32838,0.17598l-0.07586,7.46913l-17.32838,-0.17598z" fill="#455c67" stroke-linecap="butt"></path></g></g><path d="M236.96793,219.38352c-21.75088,-1.67457 -38.02594,-20.66465 -36.35137,-42.41554c1.67457,-21.75088 20.66465,-38.02594 42.41554,-36.35137c21.75088,1.67457 38.02594,20.66465 36.35137,42.41554c-1.67457,21.75088 -20.66465,38.02594 -42.41554,36.35137z" data-paper-data="{&quot;index&quot;:null}" fill="url(#color-1)" stroke="#000000" stroke-width="1.5" stroke-linecap="butt"></path><path d="M278.59744,174.40961l-21.01374,4.37547" data-paper-data="{&quot;index&quot;:null}" fill="none" stroke="#000000" stroke-width="1.5" stroke-linecap="round"></path><path d="M252.19496,178.7172l-23.05239,-8.06773" data-paper-data="{&quot;index&quot;:null}" fill="none" stroke="#000000" stroke-width="1.5" stroke-linecap="round"></path><path d="M248.02468,182.24443c0.06359,-0.82599 0.78473,-1.44402 1.61072,-1.38043c0.82599,0.06359 1.44402,0.78473 1.38043,1.61072c-0.06359,0.82599 -0.78473,1.44402 -1.61072,1.38043c-0.82599,-0.06359 -1.44402,-0.78473 -1.38043,-1.61072z" fill="#000000" stroke="none" stroke-width="0.5" stroke-linecap="butt"></path><path d="M258.44699,183.09417c0.06359,-0.82599 0.78474,-1.44402 1.61072,-1.38043c0.82598,0.06359 1.44402,0.78473 1.38043,1.61072c-0.06359,0.82599 -0.78474,1.44402 -1.61072,1.38043c-0.82598,-0.06359 -1.44402,-0.78473 -1.38043,-1.61072z" fill="#000000" stroke="none" stroke-width="0.5" stroke-linecap="butt"></path><path d="M244.81548,198.80198c0,0 3.82157,-6.29841 6.94524,-6.05793c2.41957,0.18628 7.0095,7.13228 7.0095,7.13228" fill="none" stroke="#000000" stroke-width="1.5" stroke-linecap="round"></path><g stroke="#000000" stroke-width="0.8"><path d="M137.92447,178.33063l25.66047,-2.42637l3.03147,-8.00629l2.86169,8.52057l8.49227,-0.10722l-8.82286,3.89568l-0.36733,4.20941z" fill="#0033b3" stroke-linecap="round"></path><path d="M168.03007,174.09525l17.3247,0.3982l-0.17164,7.46754l-17.3247,-0.3982z" fill="#455c67" stroke-linecap="butt"></path></g><path d="M190.81773,178.12503c-0.11136,4.65267 -3.97336,8.33412 -8.62604,8.22276c-4.65267,-0.11136 -8.33412,-3.97336 -8.22276,-8.62604c0.11136,-4.65267 3.97336,-8.33412 8.62604,-8.22276c4.65267,0.11136 8.33412,3.97336 8.22276,8.62604z" data-paper-data="{&quot;index&quot;:null}" fill="#d4c0d7" stroke="#000000" stroke-width="1" stroke-linecap="butt"></path></g></g></svg>