<svg version="1.1" xmlns="http://www.w3.org/2000/svg" xmlns:xlink="http://www.w3.org/1999/xlink" width="160.101" height="102.22669" viewBox="0,0,160.101,102.22669"><defs><radialGradient cx="284.82345" cy="206.76275" r="10.40477" gradientUnits="userSpaceOnUse" id="color-1"><stop offset="0" stop-color="#ffffff"></stop><stop offset="1" stop-color="#f3fffe"></stop></radialGradient><radialGradient cx="175.05476" cy="177.11192" r="10.40476" gradientUnits="userSpaceOnUse" id="color-2"><stop offset="0" stop-color="#ffffff"></stop><stop offset="1" stop-color="#f3fffe"></stop></radialGradient></defs><g transform="translate(-135.62725,-116.19726)"><g data-paper-data="{&quot;isPaintingLayer&quot;:true}" fill-rule="nonzero" stroke-linejoin="miter" stroke-miterlimit="10" stroke-dasharray="" stroke-dashoffset="0" style="mix-blend-mode: normal"><path d="" data-paper-data="{&quot;index&quot;:null}" fill="none" stroke="#000000" stroke-width="1.5" stroke-linecap="round"></path><path d="" data-paper-data="{&quot;index&quot;:null}" fill="none" stroke="#000000" stroke-width="1.5" stroke-linecap="round"></path><path d="M199.48855,178.17395c0,-21.81525 17.68475,-39.5 39.5,-39.5c21.81525,0 39.5,17.68475 39.5,39.5c0,21.81525 -17.68475,39.5 -39.5,39.5c-21.81525,0 -39.5,-17.68475 -39.5,-39.5z" fill="#ffffff" stroke="#000000" stroke-width="1.5" stroke-linecap="butt"></path><path d="M232.79025,167.28625c0,1.80048 -0.36489,3.26006 -0.81501,3.26006c-0.45012,0 -0.81502,-1.45958 -0.81502,-3.26006c0,-1.80048 0.3649,-3.26006 0.81502,-3.26006c0.45012,0 0.81501,1.45958 0.81501,3.26006z" fill="none" stroke="#000000" stroke-width="1.5" stroke-linecap="butt"></path><path d="M239.10662,167.38813c0,1.85674 -0.3649,3.36194 -0.81502,3.36194c-0.45012,0 -0.81501,-1.5052 -0.81501,-3.36194c0,-1.85674 0.36489,-3.36193 0.81501,-3.36193c0.45012,0 0.81502,1.50519 0.81502,3.36193z" fill="none" stroke="#000000" stroke-width="1.5" stroke-linecap="butt"></path><path d="M243.51685,192.16254c0,0 -5.0993,0.9633 -8.57383,1.0335c-3.23174,0.06529 -8.54149,-1.84852 -8.54149,-1.84852" fill="none" stroke="#000000" stroke-width="1.5" stroke-linecap="round"></path><path d="M238.0155,180.95607c0,1.91302 -1.7369,3.46381 -3.87947,3.46381c-2.14257,0 -3.87948,-1.5508 -3.87948,-3.46381c0,-1.91302 1.7369,-3.46382 3.87948,-3.46382c2.14257,0 3.87947,1.5508 3.87947,3.46382z" fill="#ff6900" stroke="#000000" stroke-width="0" stroke-linecap="butt"></path><path d="M274.41871,206.76275c0,-5.74639 4.65837,-10.40477 10.40477,-10.40477c5.74639,0 10.40477,4.65837 10.40477,10.40477c0,5.74639 -4.65837,10.40477 -10.40477,10.40477c-5.74639,0 -10.40477,-4.65837 -10.40477,-10.40477z" fill="url(#color-1)" stroke="#000000" stroke-width="1" stroke-linecap="butt"></path><path d="M170.86409,186.63546c-5.2597,-2.31444 -7.64729,-8.45449 -5.33285,-13.71419c2.31444,-5.2597 8.45448,-7.6473 13.71419,-5.33285c5.2597,2.31444 7.6473,8.45449 5.33287,13.71418c-2.31444,5.2597 -8.45449,7.6473 -13.71419,5.33286z" fill="url(#color-2)" stroke="#000000" stroke-width="1" stroke-linecap="butt"></path><path d="" data-paper-data="{&quot;index&quot;:null}" fill="none" stroke="#000000" stroke-width="1.5" stroke-linecap="round"></path><path d="" data-paper-data="{&quot;index&quot;:null}" fill="none" stroke="#000000" stroke-width="1.5" stroke-linecap="round"></path><path d="M192.25971,123.47004c2.82408,1.24269 2.68926,7.75919 -6.09832,27.72945c-8.78757,19.97025 -15.5152,29.04912 -18.33931,27.80642c-2.82408,-1.24269 -0.67516,-12.33633 8.11239,-32.30659c8.78757,-19.97025 13.50114,-24.47197 16.32521,-23.22929z" fill="#000000" stroke="none" stroke-width="0" stroke-linecap="butt"></path><path d="M135.62725,158.04066c0,0 1.71662,-17.6545 3.36349,-21.74322c1.60891,-3.99456 14.71948,-20.10018 14.71948,-20.10018l34.73528,18.62414l-6.11037,17.81607c0,0 -7.18451,15.51994 -7.57315,15.6118z" fill="#000000" stroke="none" stroke-width="0" stroke-linecap="butt"></path><path d="M155.78606,162.54933l-6.24179,-2.74659l15.52627,-35.28431l6.24179,2.74659z" fill="#fff000" stroke="none" stroke-width="0" stroke-linecap="butt"></path></g></g></svg>