<svg version="1.1" xmlns="http://www.w3.org/2000/svg" xmlns:xlink="http://www.w3.org/1999/xlink" width="163.04127" height="113.48694" viewBox="0,0,163.04127,113.48694"><g transform="translate(-375.5339,-140.37079)"><g data-paper-data="{&quot;isPaintingLayer&quot;:true}" fill-rule="nonzero" stroke-linejoin="miter" stroke-miterlimit="10" stroke-dasharray="" stroke-dashoffset="0" style="mix-blend-mode: normal"><path d="" data-paper-data="{&quot;index&quot;:null}" fill="none" stroke="#000000" stroke-width="1.5" stroke-linecap="round"/><path d="" data-paper-data="{&quot;index&quot;:null}" fill="none" stroke="#000000" stroke-width="1.5" stroke-linecap="round"/><path d="" data-paper-data="{&quot;index&quot;:null}" fill="none" stroke="#000000" stroke-width="1.5" stroke-linecap="round"/><path d="" data-paper-data="{&quot;index&quot;:null}" fill="none" stroke="#000000" stroke-width="1.5" stroke-linecap="round"/><path d="" data-paper-data="{&quot;index&quot;:null}" fill="none" stroke="#000000" stroke-width="1.5" stroke-linecap="round"/><path d="M538.57517,194.427" data-paper-data="{&quot;index&quot;:null}" fill="none" stroke="#d8d8d8" stroke-width="4" stroke-linecap="round"/><path d="M481.20089,220.12079c-21.81525,0 -39.5,-17.68475 -39.5,-39.5c0,-21.81525 17.68475,-39.5 39.5,-39.5c21.81525,0 39.5,17.68475 39.5,39.5c0,21.81525 -17.68475,39.5 -39.5,39.5z" fill="#d8d8d8" stroke="#000000" stroke-width="1.5" stroke-linecap="butt"/><path d="M469.23032,168.76326l-17.15344,-6.06646" fill="none" stroke="#000000" stroke-width="1.5" stroke-linecap="round"/><path d="M463.12495,178.96313l-0.20919,-7.1124" fill="none" stroke="#000000" stroke-width="1.5" stroke-linecap="round"/><path d="M470.36228,167.40912l12.04734,-0.73331" fill="none" stroke="#000000" stroke-width="1.5" stroke-linecap="round"/><path d="M475.65795,178.62715l0.20919,-6.69403" fill="none" stroke="#000000" stroke-width="1.5" stroke-linecap="round"/><path d="M477.39081,185.81599c0,0 -2.44712,6.39517 -6.00657,7.52772c-3.85628,1.227 -16.31203,-0.42635 -16.31203,-0.42635" fill="none" stroke="#000000" stroke-width="1.5" stroke-linecap="round"/><g><path d="" data-paper-data="{&quot;index&quot;:null}" fill="none" stroke="#000000" stroke-width="1.5" stroke-linecap="round"/><path d="" data-paper-data="{&quot;index&quot;:null}" fill="none" stroke="#000000" stroke-width="1.5" stroke-linecap="round"/><path d="" data-paper-data="{&quot;index&quot;:null}" fill="none" stroke="#000000" stroke-width="1.5" stroke-linecap="round"/><path d="" data-paper-data="{&quot;index&quot;:null}" fill="none" stroke="#000000" stroke-width="1.5" stroke-linecap="round"/><path d="" data-paper-data="{&quot;index&quot;:null}" fill="none" stroke="#000000" stroke-width="1.5" stroke-linecap="round"/><path d="M405.57602,216.35342" data-paper-data="{&quot;index&quot;:null}" fill="none" stroke="#d8d8d8" stroke-width="4" stroke-linecap="round"/><g stroke-width="0" stroke-linecap="butt"><path d="M395.09273,253.85773l-3.49559,-13.90407l6.88596,0.2301z" fill="#aeaeae" stroke="none"/><path d="M383.59193,227.65897l-8.05802,-0.26926l0.41611,-12.4533l8.05802,0.26926z" fill="#a7ed95" stroke="none"/><path d="M438.92831,223.91164l-30.767,-1.02809l0.06854,-2.05113l30.767,1.02809z" fill="#c2c2c2" stroke="none"/><path d="M443.27361,227.13697l-5.32716,-0.17801l0.28884,-8.64405l5.32716,0.17801z" fill="#a6a6a6" stroke="#000000"/><path d="M408.04093,242.70321l-26.68198,-0.89157l1.40993,-42.19475l26.68198,0.89157z" fill="#73a367" stroke="none"/><path d="M400.23411,203.77299l-6.88596,-0.2301l4.41593,-13.63972z" data-paper-data="{&quot;index&quot;:null}" fill="#aeaeae" stroke="none"/></g></g></g></g></svg>