<svg version="1.1" xmlns="http://www.w3.org/2000/svg" xmlns:xlink="http://www.w3.org/1999/xlink" width="97.02892" height="108.75612" viewBox="0,0,97.02892,108.75612"><g transform="translate(-192.89501,-127.91251)"><g data-paper-data="{&quot;isPaintingLayer&quot;:true}" fill-rule="nonzero" stroke-linejoin="miter" stroke-miterlimit="10" stroke-dasharray="" stroke-dashoffset="0" style="mix-blend-mode: normal"><g data-paper-data="{&quot;index&quot;:null}" stroke="#000000"><path d="M204.87632,165.5428c-1.83707,-0.82999 -5.36055,-0.69926 -7.42027,-2.3649c-2.44296,-1.97556 -3.28517,-5.70906 -3.28517,-5.70906l0.0514,-4.01489c0,0 3.36676,3.98215 6.83003,5.78356c2.98087,1.5505 6.01789,0.96062 7.21988,0.93333c4.53252,-0.1029 13.43998,-2.3418 13.43998,-2.3418l0.30291,10.35036c0,0 -12.05286,-0.33876 -17.13877,-2.63659z" fill="#b058be" stroke-width="0" stroke-linecap="butt"></path><path d="M216.18175,167.75992c0,0 -2.05768,-4.36815 -2.10239,-5.8958c-0.03427,-1.17072 1.85704,-2.48763 1.85704,-2.48763" fill="none" stroke-width="0.5" stroke-linecap="round"></path><path d="M212.04688,166.95796c0,0 -1.94155,-3.26723 -1.97684,-4.47308c-0.02882,-0.98457 1.78056,-2.23367 1.78056,-2.23367" fill="none" stroke-width="0.5" stroke-linecap="round"></path><path d="M207.15752,166.17809c0,0 -1.67829,-3.01317 -1.64763,-4.08301c0.02022,-0.70555 1.81367,-1.71138 1.81367,-1.71138" fill="none" stroke-width="0.5" stroke-linecap="round"></path><path d="M203.16822,164.61672c0,0 -1.36894,-2.21556 -1.37605,-2.98263c-0.00532,-0.57462 1.33721,-1.21153 1.33721,-1.21153" fill="none" stroke-width="0.5" stroke-linecap="round"></path><path d="M199.60302,163.21075c0,0 -1.26688,-2.33326 -1.29902,-2.98522c-0.03621,-0.73458 1.09251,-1.20404 1.09251,-1.20404" fill="none" stroke-width="0.5" stroke-linecap="round"></path><path d="M194.92099,159.18823c0,0 0.79732,-2.01018 1.18814,-2.37063c0.44035,-0.40615 1.32313,0.05442 1.32313,0.05442" fill="none" stroke-width="0.5" stroke-linecap="round"></path></g><path d="" data-paper-data="{&quot;index&quot;:null}" fill="none" stroke="#000000" stroke-width="1.5" stroke-linecap="round"></path><path d="" data-paper-data="{&quot;index&quot;:null}" fill="none" stroke="#000000" stroke-width="1.5" stroke-linecap="round"></path><path d="" data-paper-data="{&quot;index&quot;:null}" fill="none" stroke="#000000" stroke-width="1.5" stroke-linecap="round"></path><path d="" data-paper-data="{&quot;index&quot;:null}" fill="none" stroke="#000000" stroke-width="1.5" stroke-linecap="round"></path><path d="" data-paper-data="{&quot;index&quot;:null}" fill="none" stroke="#000000" stroke-width="1.5" stroke-linecap="round"></path><path d="M289.92393,195.47556" data-paper-data="{&quot;index&quot;:null}" fill="none" stroke="#d8d8d8" stroke-width="4" stroke-linecap="round"></path><path d="M240.00002,219.5c-21.81525,0 -39.5,-17.68475 -39.5,-39.5c0,-21.81525 17.68475,-39.5 39.5,-39.5c21.81525,0 39.5,17.68475 39.5,39.5c0,21.81525 -17.68475,39.5 -39.5,39.5z" fill="#d8d8d8" stroke="#000000" stroke-width="1.5" stroke-linecap="butt"></path><path d="M228.05527,173.4834c-1.36912,0.69074 -3.94256,-1.65016 -5.74792,-5.22857c-1.80536,-3.57841 7.11704,4.53783 5.74792,5.22857z" fill="#ff6666" stroke="#000000" stroke-width="0" stroke-linecap="butt"></path><path d="M219.81967,184.61827l33.69856,3.15529" fill="none" stroke="#000000" stroke-width="0.5" stroke-linecap="round"></path><path d="M231.10793,185.75843l-6.21783,9.11743l-2.74141,-9.94892z" fill="#ffffff" stroke="#000000" stroke-width="0.5" stroke-linecap="round"></path><path d="M252.2234,187.89609l-5.57718,8.178l-2.45893,-8.92381z" fill="#ffffff" stroke="#000000" stroke-width="0.5" stroke-linecap="round"></path><g stroke="#000000"><path d="M257.19906,171.00453l0.30292,-10.35036c0,0 8.90747,2.2389 13.43998,2.3418c1.202,0.02729 4.239,0.61718 7.21988,-0.93333c3.46326,-1.80141 6.83004,-5.78356 6.83004,-5.78356l0.0514,4.01489c0,0 -0.8422,3.7335 -3.28517,5.70906c-2.05972,1.66565 -5.5832,1.5349 -7.42027,2.3649c-5.08591,2.29782 -17.13878,2.63659 -17.13878,2.63659z" fill="#b058be" stroke-width="0" stroke-linecap="butt"></path><path d="M263.27777,162.20162c0,0 1.89131,1.31691 1.85704,2.48763c-0.04471,1.52764 -2.10239,5.8958 -2.10239,5.8958" fill="none" stroke-width="0.5" stroke-linecap="round"></path><path d="M267.36357,163.07635c0,0 1.80938,1.2491 1.78056,2.23367c-0.03529,1.20585 -1.97684,4.47307 -1.97684,4.47307" fill="none" stroke-width="0.5" stroke-linecap="round"></path><path d="M271.89061,163.20884c0,0 1.79345,1.00583 1.81367,1.71138c0.03066,1.06984 -1.64763,4.083 -1.64763,4.083" fill="none" stroke-width="0.5" stroke-linecap="round"></path><path d="M276.08477,163.24768c0,0 1.34252,0.63692 1.3372,1.21154c-0.00711,0.76707 -1.37604,2.98263 -1.37604,2.98263" fill="none" stroke-width="0.5" stroke-linecap="round"></path><path d="M279.81766,161.84662c0,0 1.12872,0.46946 1.09251,1.20404c-0.03214,0.65196 -1.29902,2.98522 -1.29902,2.98522" fill="none" stroke-width="0.5" stroke-linecap="round"></path><path d="M281.78191,159.69716c0,0 0.88277,-0.46058 1.32313,-0.05443c0.39082,0.36046 1.18814,2.37064 1.18814,2.37064" fill="none" stroke-width="0.5" stroke-linecap="round"></path></g><path d="M241.89384,169.19243c-1.80536,3.57841 -4.37879,5.91931 -5.74792,5.22856c-1.36912,-0.69074 7.55328,-8.80697 5.74792,-5.22856z" data-paper-data="{&quot;index&quot;:null}" fill="#ff6666" stroke="#000000" stroke-width="0" stroke-linecap="butt"></path><g stroke="none" stroke-width="0.5" stroke-linecap="butt"><path d="M199.68659,212.06149c-0.38243,0.22907 -1.1531,0.5157 -1.87231,-0.27564c-1.00783,-1.10889 0.10106,-2.11673 0.10106,-2.11673c1.24642,-1.12012 2.50289,-1.89894 3.09942,-3.52597c1.71531,-4.6785 -3.11992,-10.25836 -5.41118,-13.81021c-0.31499,-0.48831 -2.61746,-4.03746 -2.6396,-4.18015c-0.46148,-2.9752 1.48419,-3.3657 3.10737,-5.15205c3.33888,-3.67452 5.74574,-7.79736 6.33101,-12.71808c0.44557,-3.60367 1.79586,-8.23522 0.29161,-11.77145c-0.99811,-2.34636 -2.54758,-4.7618 -3.87693,-6.94629c-0.67308,-1.10605 -3.81872,-5.32246 -3.02799,-6.58854c0.75828,-1.21415 2.83884,-0.37583 4.26387,-0.5115c1.9351,-0.18424 3.88871,-0.13316 5.82173,-0.33803c7.81125,-0.82786 15.40721,-2.73533 23.02068,-4.57472c3.35114,-1.45341 7.12168,-2.62353 10.28862,-4.43684c2.43807,-1.39598 4.72037,-3.32367 7.02886,-4.93374l1.42233,-1.72084c0.22863,-0.27882 0.55798,-0.47647 0.94292,-0.53242c0.81897,-0.11904 1.57938,0.44835 1.69843,1.26733c0.04594,0.31604 -0.01034,0.62335 -0.14387,0.88846l-0.91532,1.88255c0.19479,1.53961 2.00558,3.08729 3.03304,4.08795c4.79631,4.67119 12.83163,6.43721 19.18372,8.00563c0.03443,0.0085 5.78338,1.25517 5.80078,1.26097c1.27956,0.42548 3.28391,0.30042 3.7265,1.57417c0.46777,1.34624 -1.17084,2.60097 -1.83821,3.86025c-0.70394,1.32829 -2.07841,2.19123 -2.9203,3.43667c-0.99049,1.4653 -1.45256,3.22577 -2.22,4.81927c0.84311,4.28829 0.9795,9.06044 3.75432,12.67493c1.90798,2.48533 4.80369,4.95243 7.56603,6.37912c1.24943,0.64531 3.44427,0.57325 3.74226,1.94755c0.30681,1.41497 -1.63991,2.39097 -2.55896,3.50973c-0.69447,0.84538 -3.27155,3.0175 -3.913,3.57481c-3.08043,2.67632 -4.79525,5.6298 -6.85339,9.11527c-1.79954,3.04753 -3.09088,5.87144 -3.36814,9.39555c-0.24168,2.73928 0.0393,5.14055 0.36029,7.8154c0.06541,0.03774 0.10745,0.07033 0.12242,0.09683c0.14053,0.24864 0.20737,0.51163 0.22347,0.7845l0.12719,-0.01849l0.24063,1.65543c0.11904,0.81897 -0.44835,1.57938 -1.26733,1.69843c-0.73073,0.10622 -1.41485,-0.33406 -1.63834,-1.01192l-0.45727,-1.30112c-2.2722,0.30255 -5.05468,-1.51249 -7.24007,-1.8908c-3.28422,-0.56852 -6.77064,-0.47891 -10.00083,0.16044c-0.86751,0.17171 -1.80455,0.11852 -2.60753,0.48901c-0.80297,0.37049 -1.37174,1.11654 -2.06424,1.6665c-1.13192,0.89894 -2.55228,1.50411 -3.43109,2.65172c-2.53292,3.30769 -4.61994,7.84382 -6.16426,11.69345c-0.51211,1.27656 -1.79541,6.11484 -3.05233,6.52358c-1.1126,0.3618 -1.83322,-1.45411 -2.74982,-2.18117c-4.61691,-4.02756 -9.70663,-4.68273 -15.63237,-5.11382c-4.45791,-0.32431 -8.76339,-0.5199 -13.21794,-0.09869l-2.07939,0.19564c-0.79336,0.08008 -1.5164,-0.47861 -1.63224,-1.27548c-0.05644,-0.38833 0.04145,-0.7635 0.24732,-1.06337l1.37195,-2.01283c0.50255,-1.04572 1.4177,-1.98654 1.4926,-3.14433c0.17314,-2.67631 -2.34281,-5.45827 -3.30918,-7.82095l-0.29863,-1.75021c0,0 -0.01732,-0.11912 -0.00837,-0.29475zM201.33978,210.63896c1.14318,0.06331 1.32093,1.28618 1.32093,1.28618l0.10859,1.05128c1.6117,3.97964 4.78082,7.2502 2.80768,11.8277c-0.21414,0.49678 -0.54735,0.96277 -0.95393,1.35555c4.26812,-0.32014 8.42499,-0.13431 12.71488,0.17778c6.71281,0.48835 12.24519,1.44333 17.46649,5.93122c0.0454,-2.13091 1.40142,-4.22702 2.25621,-6.07776c1.7129,-3.70866 3.65841,-8.39941 6.8826,-10.95113c0.31881,-0.25232 4.81976,-3.78435 5.01583,-3.87481c1.01134,-0.46662 2.17571,-0.47821 3.26624,-0.70466c4.69207,-0.97431 9.55633,-0.63649 14.15155,0.70997c0.3355,0.09831 1.76797,0.5062 3.19938,0.94675c-0.25963,-2.31309 -0.41272,-4.5201 -0.21034,-6.96352c0.45935,-5.04038 2.75596,-8.94404 5.29482,-13.24432c1.28052,-2.16894 1.81947,-3.34783 3.58347,-5.20734c1.66418,-1.75428 4.12683,-4.17732 6.15086,-5.52547c0.51604,-0.34372 1.98202,-0.10487 1.73401,-0.67314c-0.26326,-0.60322 -1.33471,0.30399 -1.97007,0.13224c-0.9661,-0.26114 -1.84,-0.81664 -2.66388,-1.38476c-2.0072,-1.38408 -4.70708,-4.06954 -6.16365,-5.97702c-3.23895,-4.24167 -3.55706,-9.77578 -4.3213,-14.8428c0.19952,-0.46617 2.36634,-5.60311 2.70505,-6.10996c0.57872,-0.866 1.46631,-1.48249 2.14055,-2.27638c0.30405,-0.35802 0.45119,-0.84009 0.78598,-1.16953c0.44669,-0.43956 1.58415,-0.47878 1.52295,-1.10248c-0.05296,-0.53977 -1.06411,0.3116 -1.60476,0.26857c-0.97763,-0.0778 -1.91671,-0.4166 -2.87503,-0.62508c-2.97189,-0.6465 -5.91756,-1.38765 -8.83043,-2.26867c-5.5852,-1.68928 -12.04776,-3.60612 -15.84019,-8.33678c-0.4752,-0.59276 -1.70296,-2.05582 -2.38166,-3.4464c-1.948,1.45446 -3.9224,2.98821 -5.98565,4.16665c-3.3291,1.90146 -7.27688,3.14996 -10.80001,4.66312c-7.81625,1.91779 -15.63121,3.86259 -23.65648,4.71313c-0.03331,0.00353 -6.12485,0.35784 -6.1459,0.35471c-0.63805,-0.09508 -1.07933,-0.98231 -1.71793,-0.89105c-0.5614,0.08023 1.04624,0.50895 1.42248,0.93327c0.66369,0.74853 1.11629,1.66127 1.63596,2.51608c0.9198,1.51301 1.72412,3.09328 2.57801,4.64444c0.5218,0.94788 1.14566,1.84752 1.55663,2.84846c1.67661,4.08349 0.37243,8.96773 -0.14311,13.13742c-0.60703,4.75096 -2.3934,8.03864 -5.21295,11.84228c-1.15805,1.56226 -2.64481,2.85175 -3.95061,4.29278c-0.20153,0.2224 -0.39839,0.56737 -0.29719,0.84991c0.42521,1.18705 1.52242,2.01337 2.20601,3.07288c2.89517,4.48738 7.87121,10.6094 5.72926,16.40247c-0.6399,1.73068 -1.4369,2.57161 -2.5114,3.52819z" fill="#a866ff"></path><path d="M202.32263,210.87916c-0.35646,0.21352 -1.07481,0.48068 -1.7452,-0.25692c-0.93941,-1.0336 0.0942,-1.97301 0.0942,-1.97301c1.16179,-1.04406 2.33294,-1.77 2.88897,-3.28656c1.59885,-4.36083 -2.90809,-9.56184 -5.04377,-12.87252c-0.29361,-0.45515 -2.43975,-3.76333 -2.46038,-3.89633c-0.43015,-2.7732 1.38342,-3.13717 2.89639,-4.80224c3.11218,-3.42504 5.35562,-7.26793 5.90114,-11.85454c0.41531,-3.35899 1.67394,-7.67607 0.2718,-10.97219c-0.93035,-2.18705 -2.3746,-4.43849 -3.6137,-6.47465c-0.62738,-1.03095 -3.55943,-4.96107 -2.82239,-6.1412c0.7068,-1.1317 2.64609,-0.3503 3.97437,-0.47678c1.80371,-0.17174 3.62467,-0.12412 5.42645,-0.31508c7.28088,-0.77165 14.3611,-2.5496 21.45762,-4.2641c3.1236,-1.35472 6.63814,-2.4454 9.59005,-4.13559c2.27253,-1.3012 4.39987,-3.098 6.55162,-4.59874l1.32575,-1.60401c0.21311,-0.25989 0.5201,-0.44411 0.8789,-0.49626c0.76336,-0.11096 1.47215,0.41792 1.5831,1.18128c0.04282,0.29458 -0.00965,0.58103 -0.1341,0.82813l-0.85317,1.75473c0.18157,1.43507 1.8694,2.87767 2.82711,3.81039c4.47065,4.35402 11.96039,6.00013 17.88118,7.46207c0.0321,0.00793 5.39069,1.16995 5.40692,1.17535c1.19268,0.39658 3.06094,0.28003 3.47348,1.46729c0.43601,1.25482 -1.09133,2.42437 -1.7134,3.59815c-0.65615,1.2381 -1.9373,2.04245 -2.72201,3.20333c-0.92324,1.3658 -1.35393,3.00676 -2.06927,4.49205c0.78585,3.99713 0.913,8.44526 3.49941,11.81433c1.77843,2.31658 4.47752,4.61618 7.0523,5.94599c1.1646,0.60149 3.21041,0.53432 3.48818,1.81531c0.28597,1.3189 -1.52855,2.22863 -2.38521,3.27143c-0.64731,0.78797 -3.04942,2.81262 -3.64732,3.33208c-2.87127,2.49461 -4.46966,5.24755 -6.38805,8.49636c-1.67735,2.84061 -2.88101,5.47279 -3.13946,8.75762c-0.22527,2.55329 0.03664,4.79151 0.33582,7.28475c0.06097,0.03518 0.10015,0.06556 0.11411,0.09026c0.13099,0.23176 0.19329,0.47689 0.20829,0.73124l0.11856,-0.01723l0.22429,1.54303c0.11096,0.76336 -0.41792,1.47215 -1.18128,1.5831c-0.68111,0.09901 -1.31878,-0.31138 -1.5271,-0.94321l-0.42622,-1.21278c-2.11792,0.28202 -4.71147,-1.4098 -6.74849,-1.76242c-3.06122,-0.52992 -6.31093,-0.4464 -9.32178,0.14954c-0.8086,0.16005 -1.68202,0.11047 -2.43048,0.4558c-0.74846,0.34533 -1.27859,1.04072 -1.92409,1.55334c-1.05507,0.8379 -2.37898,1.40198 -3.19812,2.47167c-2.36094,3.08311 -4.30626,7.31124 -5.74572,10.89948c-0.47733,1.18988 -1.6735,5.69965 -2.84509,6.08064c-1.03706,0.33724 -1.70874,-1.35537 -2.56312,-2.03307c-4.30343,-3.7541 -9.04757,-4.36478 -14.57097,-4.76661c-4.15523,-0.30228 -8.16837,-0.48459 -12.32047,-0.09198l-1.9382,0.18236c-0.7395,0.07464 -1.41344,-0.44612 -1.52141,-1.18887c-0.05261,-0.36196 0.03863,-0.71167 0.23053,-0.99117l1.27878,-1.87617c0.46842,-0.97471 1.32144,-1.85166 1.39127,-2.93084c0.16139,-2.4946 -2.18373,-5.08766 -3.08451,-7.28992l-0.27835,-1.63138c0,0 -0.01615,-0.11104 -0.0078,-0.27474zM203.86357,209.55321c1.06556,0.05901 1.23124,1.19886 1.23124,1.19886l0.10122,0.9799c1.50225,3.70943 4.45622,6.75792 2.61705,11.02462c-0.1996,0.46305 -0.51018,0.8974 -0.88916,1.26351c3.97832,-0.29841 7.85295,-0.12519 11.85156,0.16571c6.25703,0.4552 11.41375,1.34533 16.28055,5.5285c0.04232,-1.98622 1.30627,-3.94 2.10302,-5.66508c1.59659,-3.45684 3.41001,-7.8291 6.41528,-10.20757c0.29717,-0.23518 4.49251,-3.52741 4.67525,-3.61172c0.94267,-0.43494 2.02798,-0.44574 3.04447,-0.65681c4.37348,-0.90815 8.90748,-0.59328 13.19069,0.66177c0.31271,0.09163 1.64792,0.47183 2.98216,0.88247c-0.24199,-2.15604 -0.3847,-4.2132 -0.19605,-6.49071c0.42816,-4.69815 2.56885,-8.33676 4.93531,-12.34506c1.19358,-2.02168 1.69593,-3.12052 3.34016,-4.85378c1.55118,-1.63517 3.84663,-3.89368 5.73324,-5.1503c0.481,-0.32039 1.84744,-0.09774 1.61628,-0.62743c-0.24538,-0.56226 -1.24408,0.28334 -1.83631,0.12326c-0.9005,-0.24339 -1.71506,-0.7612 -2.483,-1.29074c-1.87092,-1.2901 -4.38748,-3.79322 -5.74515,-5.57119c-3.01903,-3.95367 -3.31554,-9.11202 -4.02789,-13.83501c0.18598,-0.43452 2.20568,-5.22267 2.52138,-5.6951c0.53943,-0.8072 1.36676,-1.38183 1.99521,-2.12183c0.2834,-0.3337 0.42055,-0.78305 0.73261,-1.09012c0.41637,-0.40972 1.47658,-0.44627 1.41954,-1.02763c-0.04937,-0.50312 -0.99186,0.29044 -1.49581,0.25034c-0.91126,-0.07252 -1.78657,-0.38831 -2.67982,-0.58263c-2.7701,-0.6026 -5.51576,-1.29343 -8.23086,-2.11463c-5.20598,-1.57458 -11.22974,-3.36128 -14.76467,-7.77074c-0.44293,-0.55252 -1.58734,-1.91623 -2.21995,-3.2124c-1.81574,1.35571 -3.65608,2.78531 -5.57924,3.88374c-3.10307,1.77235 -6.78279,2.93607 -10.0667,4.34649c-7.28555,1.78758 -14.56989,3.60032 -22.05026,4.39312c-0.03105,0.00329 -5.70898,0.33354 -5.72861,0.33063c-0.59472,-0.08863 -1.00605,-0.91561 -1.60129,-0.83055c-0.52329,0.07478 0.97521,0.4744 1.32589,0.86991c0.61863,0.6977 1.0405,1.54847 1.52488,2.34525c0.85734,1.41028 1.60705,2.88325 2.40298,4.32909c0.48637,0.88352 1.06788,1.72209 1.45094,2.65505c1.56277,3.80622 0.34714,8.35884 -0.13341,12.24541c-0.56581,4.42839 -2.2309,7.49283 -4.85899,11.03822c-1.07942,1.45618 -2.46523,2.65812 -3.68237,4.00132c-0.18784,0.20729 -0.37135,0.52885 -0.27701,0.7922c0.39634,1.10645 1.41905,1.87666 2.05624,2.86424c2.69859,4.1827 7.33677,9.88904 5.34026,15.28877c-0.59646,1.61318 -1.33933,2.397 -2.34087,3.28863z" fill="#ffffff"></path></g></g></g></svg>