<svg version="1.1" xmlns="http://www.w3.org/2000/svg" xmlns:xlink="http://www.w3.org/1999/xlink" width="123.78406" height="65.70254" viewBox="0,0,123.78406,65.70254"><g transform="translate(-184.56527,-146.70983)"><g data-paper-data="{&quot;isPaintingLayer&quot;:true}" fill-rule="nonzero" stroke-linejoin="miter" stroke-miterlimit="10" stroke-dasharray="" stroke-dashoffset="0" style="mix-blend-mode: normal"><path d="M221.46531,161.49656c-0.05482,-0.00051 -0.10964,-0.00105 -0.16446,-0.00161l0.1585,0.02454c0.00195,-0.00766 0.00393,-0.0153 0.00596,-0.02293zM214.71814,161.37979c-0.16983,-0.06565 -0.33674,-0.13671 -0.50101,-0.21262l-0.02024,0.0469l-4.45179,-1.92133c-1.00763,-0.40804 -1.71839,-1.396 -1.71839,-2.54996c0,-1.27648 0.86971,-2.34984 2.04889,-2.65982l5.21628,-1.49929c22.36778,-6.69461 47.73796,-7.85527 70.50422,-2.50686c0,0 2.67673,0.63058 2.04615,3.3073c-0.63058,2.67673 -3.3073,2.04615 -3.3073,2.04615c-19.09971,-4.51252 -40.21858,-4.19332 -59.56251,0.2753c0.48418,0.02153 0.96678,0.04677 1.44623,0.07401c0.64397,-0.28557 1.25153,-0.28557 1.25153,-0.28557l1.13396,0.04359c6.83288,-1.22355 13.90022,-1.42609 20.83871,-1.15931c2.22484,0.08554 4.78108,-0.68734 6.6602,0.50687c0.3248,0.20641 0.59548,0.46246 0.82698,0.75446l0.06604,-0.05552l1.61058,1.91591c0.24514,0.28766 0.43206,0.62646 0.54251,0.99817c3.45121,0.47895 6.89404,1.02278 10.32756,1.63004l0.02961,0.01549l0.00188,-0.00935l5.34206,1.07373c1.28411,0.23184 2.2582,1.35524 2.2582,2.70615c0,1.47759 -1.16534,2.683 -2.62708,2.7473l-5.47628,0.27826c-5.06925,1.15322 -11.42719,0.33847 -16.60552,0.38825c-3.93339,0.03781 -7.86424,0.07767 -11.79455,0.10114c0.80904,0.33696 1.61856,0.67206 2.42863,1.00542c10.82728,2.43003 22.05764,3.44431 33.01103,5.21165l0.07157,0.04048l0.00543,-0.02467l4.66495,1.02713c1.26086,0.25042 2.2113,1.36284 2.2113,2.69726c0,1.45356 -1.12774,2.64372 -2.556,2.74326l-5.45754,0.43599c-0.96922,0.26932 -1.99034,0.47152 -3.04757,0.62036c0.662,0.83949 1.2628,1.74538 1.94538,2.55914c1.30611,1.55715 2.95204,2.90108 3.86114,4.71882c1.33569,2.67069 1.92944,5.46323 1.74843,8.05017c1.1268,0.11175 2.25457,0.21961 3.38326,0.32413l5.44273,0.404c1.43482,0.09278 2.56986,1.28593 2.56986,2.74419c0,1.22941 -0.80675,2.2704 -1.91973,2.62244l-5.14337,1.76045c-2.20998,1.17188 -8.36312,2.59762 -10.74121,3.20636c-7.43364,1.90285 -14.38444,3.11958 -22.02182,3.85972c-7.00223,0.67859 -13.9207,1.26288 -20.90844,-0.19462c-7.19701,-1.50115 -13.21391,-4.88811 -19.38117,-8.66214l-0.13653,-0.26839l-0.0802,0.08581l-2.05813,-1.92364c-0.54012,-0.50214 -0.87801,-1.21886 -0.87801,-2.01451c0,-1.51878 1.23122,-2.75 2.75,-2.75c0.29272,0 0.57475,0.04573 0.83935,0.13045l5.21402,1.53827c4.48967,0.46877 9.1498,2.05549 13.70076,2.62982c8.40748,1.06102 16.75297,1.34021 25.21016,1.34031c4.48733,0.00005 10.0398,0.94724 14.44286,-0.19483c0.14474,-0.03754 0.28556,-0.07836 0.4225,-0.12232c-12.30068,-1.48381 -24.4697,-3.59323 -36.42894,-7.02057c-5.08159,-1.45631 -9.8807,-3.22773 -14.81364,-5.12383c-1.86301,-0.71609 -4.06426,-0.87099 -5.58151,-2.16773c-0.12401,-0.10599 -0.24401,-0.2156 -0.36036,-0.32849l-0.03499,0.03993l-3.24145,-2.84076c-0.58137,-0.50422 -0.94905,-1.24832 -0.94905,-2.0783c0,-1.51878 1.23122,-2.75 2.75,-2.75c0.11961,0 0.23745,0.00764 0.35303,0.02245l5.40772,0.61854c2.53141,0.24922 5.0834,0.5268 7.64714,0.80346c-0.11711,-0.05064 -0.23245,-0.10303 -0.34593,-0.15724l-5.32429,-1.1484c-1.2663,-0.24613 -2.22225,-1.36113 -2.22225,-2.69941c0,-1.51878 1.23122,-2.75 2.75,-2.75c0.17295,0 0.34216,0.01596 0.50626,0.0465l4.27064,0.71644c7.0147,0.46586 14.05303,0.94265 21.09398,1.24393c-1.46035,-0.58655 -2.9184,-1.17824 -4.37442,-1.77603c-0.50512,-0.11517 -1.00939,-0.2334 -1.51273,-0.3549c-5.1542,-1.24422 -11.56528,-1.89926 -16.17133,-4.71763l-5.05668,-1.99467c-1.05094,-0.38662 -1.80055,-1.39662 -1.80055,-2.5817c0,-1.02147 0.55692,-1.91286 1.38369,-2.3871c-1.24743,0.11232 -2.48579,0.17597 -3.62486,-0.26437zM244.50057,187.03827c-6.02241,-0.35248 -12.01553,-0.78258 -18.00966,-1.29074c2.95566,1.07725 5.91297,2.09291 8.99289,2.97409c12.73335,3.64308 25.70714,5.75991 38.82691,7.22619c0.0786,-1.59161 -0.37323,-3.33607 -1.25153,-4.95502c-0.77944,-1.43672 -2.14955,-2.46335 -3.19591,-3.71908c-0.52852,-0.63428 -0.96069,-1.36792 -1.44587,-2.04486c-0.43602,0.38795 -0.99631,0.63924 -1.61369,0.68667l-5.45176,0.47907c-5.15496,1.38055 -11.60058,0.95099 -16.85138,0.64367zM246.76803,206.72713c-5.6107,-0.16614 -11.19915,-0.52806 -16.81048,-1.22348c0.49898,0.12799 1.00424,0.24578 1.51643,0.35264c4.78298,0.99787 10.04531,1.16432 15.29406,0.87084z" fill="#e0e0e0" stroke="none" stroke-width="0.5" stroke-linecap="butt"></path><path d="M231.91034,183.14824c0.07511,0.74623 -0.67111,0.82134 -0.67111,0.82134l-0.14666,0.01221c0.71704,0.14498 1.42408,0.31464 1.4587,0.32408c2.02223,0.55193 3.91149,1.00636 5.73608,1.80792l0.05052,-0.17289l1.42374,0.41606c0.32001,0.08561 0.55567,0.37757 0.55567,0.72458c0,0.41069 -0.3301,0.74428 -0.73945,0.74993l-0.95474,0.01536c-1.33025,0.19731 -2.64671,0.37206 -3.96062,0.52331c0.29101,0.06737 0.57924,0.14009 0.86418,0.21851l0.01609,-0.16337l1.48463,0.1462c0.38361,0.03311 0.68465,0.355 0.68465,0.74719c0,0.40411 -0.31961,0.73358 -0.71984,0.7494l-1.49432,0.06836c-5.17239,0.2364 -10.3568,0.61842 -15.48807,1.30303c-0.68248,0.09106 -1.49948,0.27977 -2.34699,0.44319c1.78086,0.3756 3.53889,0.84364 5.19683,1.54518l0.04221,-0.16134l1.43567,0.37559c0.33014,0.07859 0.57567,0.37544 0.57567,0.72963c0,0.40789 -0.32561,0.73973 -0.73109,0.74977l-1.49673,0.04305c-3.79032,0.10902 -7.56283,0.51364 -11.34503,0.72986c2.66457,0.20235 5.33052,0.44285 7.98976,0.86909l0.10406,0.11125l0.0289,-0.04785l0.72546,0.43812c0.22359,0.12983 0.37395,0.37188 0.37395,0.64905c0,0.38269 -0.28662,0.69843 -0.6569,0.74428l-1.47481,0.20618l-0.01888,-0.13506c-0.40281,0.1016 -0.80796,0.19195 -1.21505,0.27316c0.2806,0.14132 0.55888,0.28709 0.83461,0.43771l0.03958,-0.09457l1.36766,0.57245c0.27893,0.10931 0.47644,0.38086 0.47644,0.69855c0,0.28883 -0.16327,0.53953 -0.40254,0.66483l-1.3018,0.7142l-0.02494,-0.04547l-0.1413,0.11226c-0.68006,0.02424 -1.35998,0.04527 -2.03982,0.06342c0.02539,0.0753 0.03915,0.15594 0.03915,0.2398c0,0.04564 -0.00408,0.09033 -0.01189,0.13372c0.44733,0.06702 0.8883,0.15055 1.32177,0.25253l-2.16836,0.95915c-0.26055,0.02492 -0.52097,0.05135 -0.78128,0.07918c-0.63995,0.18483 -1.35756,0.22838 -2.07253,0.2498c-3.67199,0.48944 -7.32185,1.20832 -10.95777,1.88249c0,0 -0.73743,0.13673 -0.87416,-0.6007c-0.00631,-0.03403 -0.01076,-0.06678 -0.0135,-0.09829c-0.32432,0.03886 -0.64867,0.07776 -0.97309,0.11665l-0.04505,-0.01304v0.01439h-1.5c-0.41421,0 -0.75,-0.33579 -0.75,-0.75c0,-0.36089 0.25489,-0.66224 0.59447,-0.73385l1.44606,-0.33713l0.03815,0.16363c1.64303,-0.65976 3.42866,-1.11432 5.26025,-1.42526l-1.07929,-0.19125c-0.35805,-0.05669 -0.6318,-0.36674 -0.6318,-0.74074c0,-0.41421 0.33579,-0.75 0.75,-0.75c0.03577,0 0.07096,0.0025 0.1054,0.00735l1.1676,0.14689l-0.00734,0.05835l0.11167,0.01979c4.03482,-0.5698 8.49121,-0.18126 12.48952,-0.19459c-1.06263,-0.16488 -2.1159,-0.68746 -3.12451,-1.16845c-1.40168,0.16984 -2.81499,0.29101 -4.22446,0.44552c-6.51539,0.71426 -12.92149,1.21444 -19.47388,1.39766c-0.53668,0.01498 -1.07296,0.02482 -1.60915,0.03134c0.21703,0.15745 0.44196,0.33167 0.68337,0.51605l-0.46541,1.56459c0,0 -0.2938,0.69006 -0.98386,0.39625c-0.69006,-0.2938 -0.39625,-0.98386 -0.39625,-0.98386l0.41912,-0.51291c-0.77565,-0.09689 -1.31972,-0.27438 -1.81941,-0.53934l-0.02492,0.06437l-1.38251,-0.53523c-0.28897,-0.1042 -0.49555,-0.38085 -0.49555,-0.70574c0,-0.41403 0.33549,-0.7497 0.74944,-0.75c0.00002,0 0.00005,0 0.00007,0l0.80409,-0.0006c0.00002,0 0.00003,0 0.00005,0c1.49439,-0.00136 2.98513,-0.00251 4.47901,-0.04435c6.51231,-0.18209 12.87673,-0.67941 19.35234,-1.38931c0.39196,-0.04297 0.83669,-0.11437 1.31629,-0.1998c-1.72391,-0.60219 -3.48949,-1.10417 -5.23814,-1.62986c-4.00526,-0.20702 -7.94745,-0.30436 -11.72601,-1.73307l-0.03432,0.1449l-1.44475,-0.34217c-0.33835,-0.07254 -0.59202,-0.37331 -0.59202,-0.73333c0,-0.3624 0.25704,-0.66477 0.59875,-0.73474l0.89274,-0.20237l0.00305,0.01344l0.03384,-0.02083c5.96818,-0.73909 11.87913,-1.60265 17.80757,-2.61268c0.85448,-0.14558 1.9074,-0.44827 2.97113,-0.66605c-2.52172,-0.42273 -5.04705,-0.87362 -7.33456,-1.90716l-0.0657,0.19582l-1.40567,-0.47163c-0.30575,-0.09469 -0.52785,-0.37968 -0.52785,-0.71655c0,-0.40896 0.32732,-0.74146 0.73426,-0.74984l1.05773,-0.02533c4.44437,-0.57028 8.85225,-1.24946 13.2713,-1.99079c0.74437,-0.12488 1.65538,-0.38503 2.58639,-0.5958c-1.24208,-0.21421 -2.42219,-0.51445 -3.50822,-1.10322l-0.21363,0.3032l-1.21775,-0.85801c-0.19714,-0.13514 -0.32647,-0.36199 -0.32647,-0.61905c0,-0.35669 0.24899,-0.65522 0.58265,-0.73126l1.17912,-0.29598l0.00103,0.0041l0.01622,-0.00821c4.89409,-0.98595 9.72477,-2.13591 14.57058,-3.33591c0.10995,-0.02723 0.22132,-0.05697 0.33391,-0.08857l-0.41158,-0.04076l-0.00671,0.04453l-0.88404,-0.13314c-0.31985,-0.04277 -0.57591,-0.28714 -0.63618,-0.60112c-2.75324,-0.41258 -5.50558,-0.85162 -8.2594,-1.27797l-0.36087,-0.02838l0.00213,-0.02709c-0.17233,-0.02661 -0.34466,-0.05315 -0.517,-0.07964c-5.20961,0.38498 -10.96573,-0.95307 -15.98639,-1.55937l-0.05152,-0.03227l-0.00525,0.01865l-1.42799,-0.40205c-0.31641,-0.08138 -0.55204,-0.36405 -0.56227,-0.70339c-1.04983,-0.10447 -2.10181,-0.20324 -3.15675,-0.29638c-3.23565,-0.28569 -6.62462,-0.26759 -9.75681,-1.11212l-0.0519,0.00033l-0.02069,0.17754l-1.48057,-0.17258c-0.37781,-0.03878 -0.67251,-0.358 -0.67251,-0.74605c0,-0.41284 0.33357,-0.74778 0.74589,-0.74999l1.4848,-0.00932c6.52084,-0.38015 12.6224,-1.48871 19.02084,-2.78762c1.34825,-0.2737 3.20839,-0.95274 4.91589,-1.18398c-4.08024,-0.90907 -8.74306,-1.39082 -12.21969,-3.46231l-0.11781,0.21813l-1.30628,-0.70554c-0.24176,-0.1245 -0.4071,-0.37654 -0.4071,-0.6672c0,-0.41327 0.33426,-0.74847 0.74717,-0.74999l1.49957,-0.00648c1.34675,-0.00574 2.70806,-0.10358 4.06412,-0.13199c-1.62461,-0.26728 -3.08407,-0.55964 -4.53854,-1.21215l-0.07779,0.20019l-1.38183,-0.53697c-0.28851,-0.10445 -0.49466,-0.38086 -0.49466,-0.70541c0,-0.05735 0.00644,-0.1132 0.01863,-0.16687c-0.28494,-0.02325 -0.57303,-0.05764 -0.86568,-0.10546c0,0 -0.73966,-0.12408 -0.61558,-0.86375c0.12408,-0.73966 0.86375,-0.61558 0.86375,-0.61558c1.75938,0.30393 3.37625,0.02344 5.14449,-0.15773l0.03869,0.01211v-0.01311h1.32681c0.41421,0 0.75,0.33579 0.75,0.75c0,0.35891 -0.2521,0.65893 -0.58889,0.73265l-1.44306,0.3486l-0.03268,-0.13529c-0.23727,0.09556 -0.47597,0.18242 -0.72479,0.26425c1.60959,0.23039 3.3624,0.79751 4.72751,1.02999l0.05203,0.03042l0.00465,-0.01385l1.3104,0.43966c0.30575,0.09469 0.52785,0.37968 0.52785,0.71655c0,0.28874 -0.16317,0.53937 -0.40233,0.66472l-1.30158,0.71461l-0.1771,-0.32257c-1.1894,0.48032 -2.40334,0.57965 -3.73191,0.59044c0.55542,0.17537 1.10174,0.34813 1.61354,0.45443c3.48607,0.72407 6.88925,1.51187 10.30557,2.51737l0.04575,0.03664l0.00677,-0.01451l1.30169,0.60783c0.26377,0.11621 0.44791,0.37994 0.44791,0.68668c0,0.38762 -0.29406,0.70656 -0.67126,0.74592l-1.48013,0.17527l-0.00608,-0.05136c-5.81171,1.89426 -12.2917,2.95675 -18.57178,3.58797c6.78127,0.60687 13.48008,1.33069 20.21586,2.35977c1.52038,0.23228 2.99712,0.45841 4.4899,0.83275l0.89577,0.22515c0.13929,0.03179 0.26382,0.10236 0.36162,0.19974c2.97168,0.43953 5.94408,0.87416 8.91772,1.30176c0.44459,0.06403 0.88918,0.12806 1.33377,0.19209c0.90488,-0.0112 1.87076,0.09804 2.46639,0.08126l0.06975,0.03105l0.00377,-0.02236l1.46687,0.2473c0.36088,0.05425 0.63757,0.36563 0.63757,0.74163c0,0.35748 -0.2501,0.65655 -0.58488,0.73176l-1.44086,0.35681l-0.02749,-0.11099c-5.47374,2.38577 -12.26745,3.24913 -18.06276,4.36311c2.06178,0.23748 4.12818,0.73093 6.15558,1.08105l0.00937,0.0061l0.00083,-0.00412l0.72345,0.14564c0.35011,0.06331 0.61566,0.36965 0.61566,0.738c0,0.36311 -0.25804,0.66595 -0.60075,0.73515l-1.44936,0.3242l-0.02913,-0.13023c-4.86062,1.89153 -10.7616,2.33733 -16.05383,2.88411c0.15126,0.03851 0.3065,0.07455 0.46683,0.10581c2.46019,0.47964 4.91989,0.96178 7.37973,1.44316l0.01768,0.00974l0.00131,-0.00525l1.43993,0.36023c0.24622,0.05592 0.44642,0.23298 0.5346,0.4652c1.31908,-0.18778 2.6631,-0.32579 4.01238,-0.4307c-0.08682,0.0023 -0.17373,0.00493 -0.26075,0.00788l-0.7493,0.02544c-0.00978,0.00038 -0.01961,0.00057 -0.02948,0.00057c-0.41421,0 -0.75,-0.33579 -0.75,-0.75c0,-0.40426 0.31985,-0.73382 0.72029,-0.74942l1.49442,-0.06736l0.00085,0.01894c0.25958,-0.00709 0.52142,-0.01324 0.78518,-0.01819c3.09658,-0.62065 6.50567,-0.67541 9.7514,-0.88475c-1.48547,-0.44369 -2.98085,-1.06493 -4.05385,-1.35828c-0.33113,-0.09053 -2.69357,-0.55352 -2.64983,-1.31473c0.03722,-0.64793 0.91756,-0.9181 1.37634,-1.37715l1.65324,-0.18899c0,0 0.74623,-0.07511 0.82134,0.67111zM203.03155,195.1062c0,-0.41421 0.33579,-0.75 0.75,-0.75c0.00736,0 0.01469,0.00011 0.022,0.00032l1.49646,0.03781l-0.0026,0.10307c3.85392,-0.68151 8.17472,-0.7399 12.27729,-0.76769c-1.41461,-0.41668 -2.76807,-0.86696 -3.75219,-1.04144l-1.4643,-0.25963c-0.30346,-0.04807 -0.54634,-0.27814 -0.61333,-0.57487c-0.46743,0.07297 -0.93577,0.14735 -1.40436,0.22718c-4.35871,0.74259 -8.71058,1.38118 -13.08584,1.95087c1.07895,0.31215 2.1607,0.72375 3.13036,0.86164c0.88378,0.12567 1.76895,0.23296 2.65522,0.32738c-0.00573,-0.03737 -0.0087,-0.07565 -0.0087,-0.11463zM214.90834,197.56453c-0.57438,-0.09326 -1.1489,-0.18572 -1.72374,-0.27414c0.33699,0.12336 0.67246,0.2501 1.00604,0.3808c0.23943,-0.0384 0.47916,-0.07435 0.71769,-0.10666z" fill="#919191" stroke="none" stroke-width="0.5" stroke-linecap="butt"></path><path d="" data-paper-data="{&quot;index&quot;:null}" fill="none" stroke="#000000" stroke-width="1.5" stroke-linecap="round"></path><path d="" data-paper-data="{&quot;index&quot;:null}" fill="none" stroke="#000000" stroke-width="1.5" stroke-linecap="round"></path><path d="M262.34555,187.15899c0,-1.15482 0.78301,-2.12677 1.84708,-2.41388l4.74263,-1.39719l0.00217,0.00738l0.02399,-0.01493c0.97844,-0.26527 1.96653,-0.50004 2.95413,-0.73627c0.37032,-0.2085 0.74621,-0.41421 1.12826,-0.62142c-1.71663,0.0118 -3.43348,0.01715 -5.15094,0.0127c-1.67565,-0.00433 -3.38208,0.30663 -5.02694,-0.01312c-0.00895,-0.00174 -0.01789,-0.00349 -0.02684,-0.00524l-0.00011,0.00473l-4.99108,-0.12054c-1.35629,-0.02815 -2.44711,-1.13641 -2.44711,-2.49945c0,-1.235 0.8955,-2.26084 2.0726,-2.46361l4.83059,-0.92825c3.444,-0.79966 6.86848,-1.59584 10.28021,-2.47647c-5.2029,-0.08478 -10.40543,-0.38601 -15.61526,-0.68412c-0.60419,-0.03457 -8.98626,-0.47282 -9.00273,-0.47692l-4.97729,-0.26368c-1.32661,-0.06088 -2.38345,-1.15568 -2.38345,-2.49733c0,-0.5991 0.21073,-1.14898 0.56212,-1.57956c-3.62003,0.07726 -7.48259,0.02865 -10.86899,-0.73497c-3.38488,-0.76328 -6.25669,-2.10278 -8.96835,-3.79162l-0.11632,0.30047l-4.60836,-1.78407c-0.96324,-0.34735 -1.65185,-1.26948 -1.65185,-2.35245c0,-1.10702 0.71953,-2.04598 1.71642,-2.37474c-1.31095,-0.58658 -2.6076,-1.25341 -3.88787,-2.00741c0,0 -2.14706,-1.28068 -0.86638,-3.42774c1.28068,-2.14706 3.42774,-0.86638 3.42774,-0.86638c11.35106,6.87213 28.024,5.71576 40.4463,2.53557c11.35397,-2.90669 22.64021,-7.79614 34.44229,-5.13283c-0.38713,2.03199 0.15506,4.50042 -1.16139,6.09598c-1.1986,1.45272 -3.55318,1.2539 -5.35502,1.802c-4.50153,1.36931 -9.12873,2.45167 -13.66826,3.69191c-2.51642,0.68751 -5.0725,1.50803 -7.63999,2.26253c2.04331,-0.17092 4.07413,-0.34816 6.08501,-0.51556l0.01593,0.00346l-0.00033,-0.00461l4.96205,-0.35065c0.06655,-0.00531 0.13383,-0.00802 0.20174,-0.00802c1.38071,0 2.5,1.11929 2.5,2.5c0,1.12809 -0.74718,2.08167 -1.77365,2.39285l-4.69515,1.54398c-0.41463,0.22033 -0.84266,0.42613 -1.28252,0.61861c4.71195,0.17411 9.4233,0.21573 14.13599,-0.05728c1.727,-1.58429 4.07623,-3.09894 6.10715,-4.44935c0.01599,-0.13074 0.04143,-0.26757 0.07746,-0.41071c0.61011,-2.42441 3.03452,-1.8143 3.03452,-1.8143l2.05396,4.73259c-0.89154,0.65791 -1.76063,1.35055 -2.62491,2.04952c0.42856,0.44877 0.69175,1.05682 0.69175,1.72634c0,1.03372 -0.62739,1.9209 -1.52217,2.30154l-0.60746,0.27453l3.24811,0.11889c1.34354,0.04241 2.41968,1.1449 2.41968,2.49873c0,1.10523 -0.7172,2.04294 -1.71158,2.37314l-3.65864,1.31084c-0.12644,0.04798 -0.25293,0.09632 -0.37946,0.14502c0.00011,0.00971 0.00017,0.01943 0.00017,0.02916c0,1.02258 -0.61394,1.90176 -1.49333,2.28905l-4.47985,2.09124c-1.08216,0.72891 -2.2511,1.31098 -3.4703,1.79728l2.30085,0.0786c1.34605,0.03963 2.42506,1.14325 2.42506,2.4989c0,0.9956 -0.58197,1.85527 -1.42429,2.25738l-2.3849,1.20028c2.14971,-0.42369 4.30108,-0.83971 6.45333,-1.25611l3.71277,-1.03324c0.22966,-0.06955 0.47328,-0.10694 0.72564,-0.10694c1.38071,0 2.5,1.11929 2.5,2.5c0,0.97632 -0.55965,1.82192 -1.37565,2.2335l-4.3723,2.31632c-2.03754,1.60886 -6.65675,3.14449 -8.9428,4.0134c-1.49175,0.567 -2.98444,1.13142 -4.47772,1.69424c0.21818,0.01957 0.3634,0.03264 0.4165,0.03733l4.87324,0.26649c1.32483,0.06278 2.37967,1.15678 2.37967,2.49715c0,1.13665 -0.75857,2.09614 -1.79707,2.39982l-4.71069,1.49734l-0.00234,-0.00735c-0.01467,0.00722 -0.02936,0.01442 -0.04406,0.0216c-3.88404,1.89716 -9.57834,2.53057 -13.78709,3.16183c-12.21929,1.83274 -24.94699,-0.10516 -37.25924,-1.53713c-0.51442,-0.03116 -1.0233,-0.08454 -1.5226,-0.17445c-0.64883,-0.07309 -1.29639,-0.14427 -1.94255,-0.21292l-0.06576,-0.03347l-0.00377,0.02312l-4.89472,-0.79895c-1.20879,-0.17571 -2.13723,-1.21637 -2.13723,-2.47387c0,-1.38071 1.11929,-2.5 2.5,-2.5c0.09159,0 0.18202,0.00492 0.27106,0.01452l4.94474,0.47413c3.73451,-0.35754 9.12284,0.80884 12.91687,0.94999c1.61752,0.06018 3.23529,0.10897 4.85322,0.1468c-2.08326,-0.60383 -4.16513,-1.22144 -6.25632,-1.82412l-2.9988,-0.86425c-1.07113,-0.28238 -1.86095,-1.25774 -1.86095,-2.41758c0,-1.38071 1.11929,-2.5 2.5,-2.5c0.02594,0 0.05179,0.0004 0.07754,0.00118l4.98746,0.13328c1.63831,-0.24173 3.36432,-0.31027 5.128,-0.28023c0.11754,-1.0884 0.93364,-1.96741 1.99082,-2.17958l4.83269,-1.07469c0.23435,-0.09493 6.5604,-1.43383 7.75966,-1.72528c1.82271,-0.44297 3.63795,-0.90065 5.45291,-1.35542c-0.00066,-0.02363 -0.00099,-0.04734 -0.00099,-0.07113c0,-0.80437 0.37988,-1.52002 0.97003,-1.97732l0.35355,-0.27911c-0.58438,-0.45761 -0.95993,-1.16968 -0.95993,-1.96945zM246.31667,160.03609c2.70457,-0.17222 5.4212,-0.49783 8.15635,-0.99718c4.76455,-0.86985 9.58263,-2.63957 14.25678,-3.91658c0.99721,-0.27245 1.99508,-0.55197 2.99379,-0.83362c-0.09667,0.02397 -0.19325,0.04794 -0.28972,0.0719c-8.0364,1.9957 -16.56445,4.4024 -25.1172,5.67549zM254.61012,203.67867c-0.7003,-0.02981 -1.40049,-0.05944 -2.10063,-0.08868c2.85057,0.55529 6.93588,1.35012 6.98259,1.36465l1.87215,0.34263c-0.43881,-0.45044 -0.70912,-1.06583 -0.70912,-1.74435c0,-0.12198 0.00874,-0.24192 0.02562,-0.35923c-0.29758,0.14308 -0.62786,0.22897 -0.97658,0.24343l-4.97994,0.23869l-0.00165,-0.03448zM262.4146,201.16441l3.89453,-1.30668c0.617,-0.23141 1.23699,-0.45935 1.85908,-0.6851c-1.22134,0.16572 -2.41065,0.23378 -3.43378,0.10082l-3.14321,0.1556c0.31853,0.41957 0.50756,0.94284 0.50756,1.51025c0,0.12198 -0.00874,0.24192 -0.02562,0.35923c0.10961,-0.0527 0.22366,-0.09765 0.34144,-0.13412zM266.76421,206.00425c0.09,-0.01831 0.2248,-0.05098 0.39616,-0.09536c-0.49895,-0.09109 -0.99747,-0.19366 -1.49906,-0.31066v0.4547h-1.82833c0.15945,0.12781 0.30291,0.27476 0.42688,0.43736c0.83685,-0.15319 1.67168,-0.31662 2.50436,-0.48603z" fill="#d8d8d8" stroke="none" stroke-width="0.5" stroke-linecap="butt"></path><path d="M208.73149,166.39344c-0.43644,0.03543 -0.84611,0.09685 -1.24009,0.14276c4.86189,1.82785 9.71294,2.89861 14.85982,4.03187c2.73518,0.60225 5.56967,0.96666 8.1663,1.94438c0.06421,0.0019 0.12833,0.00377 0.19236,0.00558l0.02912,-0.13599l0.75118,0.16087c-0.07977,-0.09383 -0.15273,-0.19362 -0.21813,-0.29862c-1.82363,-0.34082 -3.65638,-0.88201 -5.47423,-1.10041l-0.14098,-0.07455l-0.0104,0.04204l-4.76217,-1.17814c-0.38741,-0.08695 -0.74083,-0.26384 -1.03717,-0.50759c-0.26984,0.00253 -0.53973,0.00046 -0.80962,-0.00648l-0.49686,0.10497c0,0 -2.47541,0.34978 -2.82519,-2.12563c-0.00694,-0.04914 -0.01277,-0.09744 -0.01753,-0.14491c-0.44302,-0.22423 -0.88604,-0.44847 -1.32906,-0.6727h-4.56877c-0.34421,0 -0.67217,-0.06956 -0.97059,-0.1954c-0.03267,0.00264 -0.06533,0.00528 -0.098,0.00794zM232.79868,173.42955c0,0.41421 -0.33579,0.75 -0.75,0.75c-0.05606,0 -0.11069,-0.00615 -0.16324,-0.01782l-0.67248,-0.13538c-3.7755,-0.06782 -7.49338,-0.12082 -11.26394,0.0992c-0.69516,0.04056 -1.46047,0.16405 -2.22139,0.23039c1.47028,0.5493 2.94704,1.09439 4.44127,1.52039c3.81216,1.08685 7.944,1.34016 11.6352,2.75223l0.03789,-0.17128l1.4502,0.32082c0.34353,0.06856 0.60239,0.37179 0.60239,0.73548c0,0.41248 -0.33298,0.74718 -0.74479,0.74998l-0.96846,0.0077c-3.50403,0.02786 -6.91985,0.26905 -10.40771,0.60115c-0.31433,0.02993 -0.66236,0.08431 -1.02809,0.144c3.34499,0.38143 6.77727,0.43181 10.11815,0.40315c1.14235,-0.05633 2.29418,-0.07141 3.43678,-0.07327c1.04973,-0.02834 2.0903,-0.04432 3.12425,0.00662c0.61715,-0.00073 1.2261,-0.00536 1.82362,-0.01873l0.00756,-0.00017l-0.00019,-0.01523l1.16026,-0.01414c-0.02719,-0.14771 -0.0414,-0.29996 -0.0414,-0.45554c0,-1.24329 0.90758,-2.27461 2.09636,-2.46758l0.935,-0.16971l-4.1072,-1.17432c-1.07365,-0.28068 -1.8659,-1.25726 -1.8659,-2.41888c0,-0.26693 0.04183,-0.52409 0.1193,-0.76528c-0.65274,-0.07523 -1.14971,-0.13252 -1.35874,-0.15661l-4.92076,-0.27518c-0.16395,-0.00795 -0.32375,-0.03169 -0.47792,-0.06973c0.00263,0.02555 0.00398,0.05149 0.00398,0.07774zM243.75854,185.75117c-6.93788,0.66783 -13.96876,1.06007 -20.84297,2.21328c-1.18773,0.19925 -2.86755,0.71117 -4.48297,0.9867c2.79984,0.56283 5.58114,0.99477 8.47371,1.31828c1.88012,0.21027 3.72782,0.24327 5.47216,0.72832l0.49314,0.01985l0.01031,-0.07975l0.92351,0.11937c0.3737,0.04267 0.66399,0.36 0.66399,0.74512c0,0.41421 -0.33579,0.75 -0.75,0.75c-0.01169,0 -0.02332,-0.00027 -0.03487,-0.0008l-1.49408,-0.06015c-2.93595,-0.11822 -5.87398,-0.18612 -8.81109,-0.27059c-0.39094,-0.01124 -0.80228,0.00397 -1.22057,0.0228c3.62529,0.71798 7.51206,1.058 10.9806,2.11742c0.25875,0.03289 0.51521,0.06563 0.76915,0.09801l0.00276,-0.01958l1.47452,0.20779c0.0923,0.01152 0.1794,0.03982 0.25814,0.08174c0.03261,-0.00531 0.06524,-0.01059 0.09791,-0.01582c0.03908,-1.17371 0.88721,-2.1425 2.00451,-2.36648c-0.05829,-0.21175 -0.08942,-0.43475 -0.08942,-0.66502c0,-1.1229 0.74031,-2.07288 1.75948,-2.38851l4.68558,-1.57211l0.00585,0.01743c0.03522,-0.01749 0.07052,-0.03483 0.1059,-0.05203c0.73141,-0.35551 1.53308,-0.65083 2.37873,-0.90373c-0.24383,-0.38593 -0.38495,-0.84323 -0.38495,-1.33348c0,-0.01978 0.00023,-0.03951 0.00069,-0.05919c-0.81661,0.12016 -1.63325,0.24015 -2.44971,0.36114zM228.21702,195.47208c0.31949,0.13361 0.63261,0.28037 0.93836,0.44194l0.02854,-0.00349l0.11286,-0.22671l0.34323,0.17087l1.48913,-0.1823c-0.97241,-0.08468 -1.942,-0.14968 -2.91211,-0.20032zM230.69421,201.46434l0.01907,-0.05053l-0.10522,0.00713c0.02877,0.01438 0.05749,0.02885 0.08615,0.04339zM232.14971,201.80631c0.2921,0.10253 0.50153,0.38074 0.50153,0.70786c0,0.41421 -0.33579,0.75 -0.75,0.75h-1.17939v-0.00251l-0.00772,0.00247c-4.44438,-0.09139 -8.88744,-0.20611 -13.33059,-0.33175c0.58916,0.25336 1.22056,0.76645 1.36171,1.80552c2.24403,0.15696 4.47859,0.1735 6.59225,0.74769c0.13743,-0.00373 0.27485,-0.00725 0.41226,-0.01055l0.05215,0.05982l0.00728,-0.05424l0.06499,0.00872l0.03228,-0.13794l1.44575,0.33835c0.33928,0.07183 0.59388,0.37305 0.59388,0.73373c0,0.41421 -0.33579,0.75 -0.75,0.75c-0.03808,0 -0.0755,-0.00284 -0.11205,-0.00831l-1.42974,-0.19189c-2.67597,0.07468 -5.35798,0.2255 -8.04016,0.3523c-0.65346,0.35965 -1.33984,0.35965 -1.33984,0.35965l-0.66807,-0.02802c-0.42989,-0.06491 -0.85978,-0.12981 -1.28967,-0.19472c-1.88112,0.06335 -3.76113,0.09467 -5.638,0.0594c-2.62647,-0.04936 -5.32297,0.32607 -7.66011,-0.9401c0,0 -0.65461,-0.36604 -0.28856,-1.02065c0.36604,-0.65461 1.02065,-0.28856 1.02065,-0.28856c1.98836,1.15684 4.67531,0.70671 6.95621,0.74958c0.70587,0.01327 1.41211,0.01687 2.11862,0.01274c-0.19171,-0.32138 -0.3147,-0.72734 -0.3041,-1.23895c-1.65822,-0.35103 -3.31374,-0.74661 -4.97537,-1.1856l-1.38894,-0.36695c-0.32929,-0.0792 -0.57398,-0.37564 -0.57398,-0.72923c0,-0.38177 0.28524,-0.69691 0.65422,-0.74394l1.47376,-0.21191l0.02689,0.18704c2.85127,-0.71231 5.64164,-0.48866 8.74256,-0.39685c0.56645,0.01677 1.13289,0.03336 1.69933,0.04974c-0.36092,-0.25607 -0.6822,-0.64333 -0.8358,-1.22893c-1.70443,-0.23581 -3.40659,-0.4911 -5.10595,-0.77618l-1.46711,-0.24612c-0.36115,-0.05401 -0.63813,-0.36552 -0.63813,-0.74171c0,-0.39261 0.30168,-0.71476 0.68587,-0.7473l1.48502,-0.14352l0.01301,0.13465c4.85855,-1.34676 10.51166,-1.26045 15.64644,-1.31753c-2.81834,-0.3729 -5.63128,-0.79495 -8.45842,-1.09436l-1.30076,-0.13782c-0.38122,-0.03547 -0.67963,-0.35626 -0.67963,-0.74674c0,-0.41421 0.33579,-0.75 0.75,-0.75c0.01618,0 0.03224,0.00051 0.04817,0.00152l1.49137,0.08341l-0.0041,0.07334c0.08707,0.00896 0.17438,0.01772 0.26189,0.02629c0.90134,-0.12633 1.82591,-0.20651 2.7644,-0.24946c-0.63074,-0.16478 -1.25873,-0.33703 -1.88338,-0.51686l-1.10093,-0.31721c-0.32136,-0.0847 -0.55833,-0.37732 -0.55833,-0.72529c0,-0.35654 0.24879,-0.65497 0.58224,-0.73117l1.43939,-0.36221l0.06137,0.24387c0.37626,-0.10855 0.7593,-0.19936 1.14792,-0.27467c-1.88771,-0.32497 -3.77141,-0.70233 -5.67645,-1.15059l-1.0893,-0.25632c-0.33886,-0.07216 -0.59304,-0.37317 -0.59304,-0.73355c0,-0.3762 0.27698,-0.6877 0.63813,-0.74171l1.46711,-0.24612l0.02747,0.16376c2.38292,-0.72264 4.87177,-0.98565 7.36917,-1.40461c6.89636,-1.15692 13.94886,-1.55522 20.90928,-2.22289c0.895,-0.13293 1.7898,-0.26775 2.68468,-0.40218l-2.03576,-0.59601c-0.04498,-0.01206 -0.08947,-0.02534 -0.13341,-0.03981c-5.39249,-0.0974 -10.82289,0.72746 -16.20613,0.32278l-1.48919,-0.11294c-0.36278,-0.02398 -0.65505,-0.3059 -0.69511,-0.66406c-2.37211,-0.14127 -4.72648,-0.40402 -7.01768,-0.87511l-0.77789,-0.15994c-0.34869,-0.06446 -0.61279,-0.37013 -0.61279,-0.73748c0,-0.32713 0.20943,-0.60534 0.50153,-0.70786l1.16301,-0.43898l0.09662,0.25597c2.58361,-1.06931 5.93963,-1.32456 9.14585,-1.36459c-4.64393,-1.0624 -9.05808,-2.33993 -13.5762,-3.92723l-0.01227,-0.01023l-0.00189,0.00476l-0.95524,-0.37956c-0.28569,-0.10592 -0.48929,-0.38091 -0.48929,-0.70345c0,-0.40129 0.31516,-0.72897 0.71146,-0.74903l1.4923,-0.08708l0.00744,0.1275c2.54952,-0.54606 5.25338,-0.69736 7.95854,-0.69703c-6.27517,-1.38052 -12.25215,-2.63079 -18.19639,-5.10213l-1.22519,-0.50938c-0.27982,-0.10888 -0.47813,-0.38088 -0.47813,-0.69921c0,-0.39613 0.30711,-0.72054 0.69623,-0.7481l1.48817,-0.1208l0.01076,0.13259c0.59711,-0.13613 1.20333,-0.25032 1.81614,-0.34671c-0.09502,-0.26424 -0.14679,-0.5491 -0.14679,-0.84606c0,-1.30089 0.99362,-2.36972 2.26334,-2.48894l1.19814,-0.12807c-0.89084,-0.23914 -1.79887,-0.48496 -2.73774,-0.70493l-3.31549,-0.75915c-1.13653,-0.23518 -1.99079,-1.24188 -1.99079,-2.4481c0,-0.57058 0.19115,-1.09652 0.51291,-1.51727c-0.23186,-0.37926 -0.36548,-0.82511 -0.36548,-1.30217c0,-1.38071 1.11929,-2.5 2.5,-2.5c0.0875,0 0.17395,0.0045 0.25913,0.01327l4.94788,0.45277l-0.03999,0.43697c1.66548,-0.14369 3.33432,-0.17619 4.99397,-0.04474l0.50351,0.03988c0,0 1.64724,0.13048 2.15724,1.51848l0.87405,0.17348c1.17015,0.2085 2.05852,1.23107 2.05852,2.46114c0,0.59431 -0.20738,1.14019 -0.55373,1.56922l3.28674,1.42858c0.91281,0.37245 1.5561,1.26894 1.5561,2.31568c0,0.64781 -0.24639,1.23807 -0.65058,1.68218l4.47675,0.27311c1.23657,0.06548 2.23482,1.02955 2.35377,2.2512c2.39543,0.28355 4.78505,0.56724 4.85586,0.57891l4.51797,0.44009c0.93624,0.07992 1.72523,0.67582 2.0814,1.50211c1.37907,0.23335 2.67261,0.5044 3.97045,0.84268l0.05543,-0.48232l4.9365,0.56733c1.26111,0.12757 2.24537,1.19244 2.24537,2.48719c0,0.72897 -0.312,1.38508 -0.80976,1.84205c1.92657,0.32211 3.56239,0.59626 3.57445,0.60052l4.89038,0.82042c1.20384,0.18004 2.12709,1.21839 2.12709,2.47238c0,1.31404 -1.0138,2.3913 -2.30191,2.49227l-2.13694,0.19152c0.17402,0.02585 0.27241,0.04085 0.27654,0.04235c0.01312,0.00474 0.02623,0.00949 0.03933,0.01427l0.00131,-0.00731l4.08528,0.7343c1.19072,0.19133 2.10031,1.22355 2.10031,2.46822c0,1.03377 -0.62746,1.921 -1.52231,2.3016c-0.03472,1.26023 -1.00206,2.28745 -2.23658,2.41624l-3.12452,0.37c0.76448,0.42763 1.28129,1.24513 1.28129,2.18335c0,1.26949 -0.94622,2.31797 -2.17186,2.47866l-4.66839,0.68979c0.03848,0.17431 0.05876,0.35544 0.05876,0.54132c0,1.27637 -0.95652,2.32934 -2.19184,2.4812l-4.22914,0.58716c-0.28043,0.04218 -9.67175,1.45462 -9.69798,1.4582c-0.03035,0.00414 -0.06071,0.00843 -0.09108,0.01287c-0.41852,0.65787 -1.13613,1.10686 -1.9614,1.15552l-4.49288,0.30464zM227.03418,201.68322c-0.07016,-0.0196 -0.14041,-0.03832 -0.21073,-0.05596c-0.25333,0.01148 -0.50655,0.02254 -0.75969,0.03318c0.32347,0.00769 0.64694,0.01529 0.97042,0.02278zM209.24389,203.00534c0.54317,0.13252 1.0875,0.26192 1.63274,0.38738c0.12002,-0.21444 0.26324,-0.38946 0.41962,-0.53214c-0.64734,0.0446 -1.35016,0.10428 -2.05235,0.14476z" fill="#b5b5b5" stroke="none" stroke-width="0.5" stroke-linecap="butt"></path><path d="M305.27095,176.94881c-4.56235,0.45767 -8.99731,2.36703 -13.48506,3.27022c-3.20663,0.64536 -5.9045,0.7638 -8.62313,0.55084l0.04018,0.37524l-5.43005,0.58145c-0.10867,0.01306 -0.21929,0.01977 -0.33148,0.01977c-1.51878,0 -2.75,-1.23122 -2.75,-2.75c0,-0.78657 0.33023,-1.49601 0.85962,-1.99724c-0.74798,-0.01663 -1.49623,-0.04123 -2.24478,-0.07444c-0.03107,-0.00138 -0.43933,-0.01912 -1.08191,-0.0474c-7.37377,1.72768 -13.43217,3.10038 -21.17254,1.86536c0,0 -2.71408,-0.44301 -2.27108,-3.15709c0.44301,-2.71408 3.15709,-2.27108 3.15709,-2.27108c0.77584,0.12986 1.53234,0.22818 2.27336,0.29819c-0.00773,-0.08402 -0.01168,-0.16913 -0.01168,-0.25516c0,-1.51878 1.23122,-2.75 2.75,-2.75c0.05552,0 0.11065,0.00165 0.16535,0.00489l5.47074,0.28606c2.00014,-0.29021 4.13087,-0.21727 6.29176,-0.02991c2.55745,-0.1083 5.11,-0.32373 7.68289,-0.67096c0.06277,-0.00847 0.12556,-0.01724 0.18836,-0.02629c1.6495,-0.38597 3.29766,-0.77313 4.94454,-1.16444c3.99911,-1.20207 8.02504,-2.79346 11.98561,-2.96945l5.25277,-1.40442c0.2446,-0.07129 0.50329,-0.10952 0.7709,-0.10952c1.51878,0 2.75,1.23122 2.75,2.75c0,1.29286 -0.89216,2.37734 -2.09441,2.67137l-0.16134,0.04331c0.30646,-0.0333 0.61279,-0.06657 0.919,-0.09973l4.04526,-0.58168c0.14277,-0.02287 0.28921,-0.03476 0.43842,-0.03476c1.51878,0 2.75,1.23122 2.75,2.75c0,1.17341 -0.73493,2.17517 -1.76959,2.57009l-0.00113,0.00463l0.78981,2.25275c-0.45039,-0.00415 -0.8993,0.00917 -1.3469,0.03766l-0.02415,0.09929c0,0 -0.30779,0.02817 -0.72645,-0.03758z" fill="#0033b3" stroke="none" stroke-width="0.5" stroke-linecap="butt"></path><path d="M277.03323,191.49981c-6.92641,2.4382 -13.96786,5.21184 -21.2123,6.57611c-0.14085,0.02652 -10.87374,1.17934 -11.15134,1.20923c-0.14602,0.01572 -10.82876,1.17867 -10.97212,1.14278c-0.00428,-0.00107 -0.00856,-0.00216 -0.01282,-0.00326l0.00041,0.00443l-0.19266,0.01763c-0.14253,0.02888 -0.28506,0.05777 -0.42757,0.08669l-0.12179,-0.03642l-0.04909,0.00449l0.00398,0.05028l-4.08074,0.32293c-0.08159,0.00728 -0.16421,0.011 -0.2477,0.011c-1.51878,0 -2.75,-1.23122 -2.75,-2.75c0,-0.38329 0.07842,-0.74827 0.22008,-1.07976c-1.98567,0.04667 -3.97499,0.03796 -5.96701,-0.03c0,0 -2.7484,-0.09377 -2.65463,-2.84217c0.09377,-2.7484 2.84217,-2.65463 2.84217,-2.65463c15.37132,0.52446 30.57288,-2.67217 45.13079,-7.55974l0.05458,0.00439l-0.00568,-0.01929l3.56993,-1.05188c0.26433,-0.08453 0.54606,-0.13015 0.83844,-0.13015c1.51878,0 2.75,1.23122 2.75,2.75c0,0.23053 -0.02837,0.45443 -0.0818,0.6684c0.13304,-0.01056 0.26028,-0.01709 0.38107,-0.01926l5.3291,-1.10435c0.19758,-0.0451 0.40326,-0.06892 0.6145,-0.06892c1.51878,0 2.75,1.23122 2.75,2.75c0,1.16044 -0.71877,2.15301 -1.7354,2.55678l-2.74257,1.16234l-0.01473,-0.03476z" fill="#0033b3" stroke="none" stroke-width="0.5" stroke-linecap="butt"></path></g></g></svg>