<svg version="1.1" xmlns="http://www.w3.org/2000/svg" xmlns:xlink="http://www.w3.org/1999/xlink" width="37.82223" height="13.99439" viewBox="0,0,37.82223,13.99439"><defs><radialGradient cx="241.11632" cy="176.91809" r="5.64686" gradientUnits="userSpaceOnUse" id="color-1"><stop offset="0" stop-color="#ffffff"/><stop offset="1" stop-color="#5aff00"/></radialGradient></defs><g transform="translate(-213.60064,-169.99627)"><g stroke-miterlimit="10"><path d="" fill="none" stroke="#000000" stroke-width="1.5" stroke-linecap="round"/><path d="" fill="none" stroke="#000000" stroke-width="1.5" stroke-linecap="round"/><path d="" fill="none" stroke="#000000" stroke-width="1.5" stroke-linecap="round"/><path d="" fill="none" stroke="#000000" stroke-width="1.5" stroke-linecap="round"/><path d="" fill="none" stroke="#000000" stroke-width="1.5" stroke-linecap="round"/><path d="" fill="none" stroke="#000000" stroke-width="1.5" stroke-linecap="round"/><path d="" fill="none" stroke="#000000" stroke-width="1.5" stroke-linecap="round"/><path d="" fill="none" stroke="#000000" stroke-width="1.5" stroke-linecap="round"/><path d="" fill="none" stroke="#000000" stroke-width="1.5" stroke-linecap="round"/><path d="" fill="none" stroke="#000000" stroke-width="1.5" stroke-linecap="round"/><path d="M214.35002,169.99627h37.07285v13.99439h-37.07285c0,0 0,-6.24282 0,-8.79117c0,-1.96052 0,-5.20322 0,-5.20322z" fill="#646464" stroke="none" stroke-width="NaN" stroke-linecap="butt"/><path d="M214.35513,174.95397h21.60537v4.41928h-21.11434z" fill="#005757" stroke="none" stroke-width="0" stroke-linecap="butt"/><path d="M214.60064,174.95397h22.58743" fill="none" stroke="#49d000" stroke-width="2" stroke-linecap="round"/><path d="M236.94256,179.12773h-22.0964" fill="none" stroke="#49d000" stroke-width="2" stroke-linecap="round"/><path d="M241.11632,171.27124c3.11867,0 5.64686,2.52819 5.64686,5.64686c0,3.11867 -2.52819,5.64686 -5.64686,5.64686c-3.11867,0 -5.64686,-2.52819 -5.64686,-5.64686c0,-3.11867 2.52819,-5.64686 5.64686,-5.64686z" fill="url(#color-1)" stroke="#5aff00" stroke-width="2" stroke-linecap="butt"/></g></g></svg>