<svg version="1.1" xmlns="http://www.w3.org/2000/svg" xmlns:xlink="http://www.w3.org/1999/xlink" width="13.99439" height="37.82223" viewBox="0,0,13.99439,37.82223"><defs><radialGradient cx="236.91809" cy="178.88368" r="5.64686" gradientUnits="userSpaceOnUse" id="color-1"><stop offset="0" stop-color="#ffffff"/><stop offset="1" stop-color="#00ebff"/></radialGradient></defs><g transform="translate(-229.99626,-168.57713)"><g stroke-miterlimit="10"><path d="" fill="none" stroke="#000000" stroke-width="1.5" stroke-linecap="round"/><path d="" fill="none" stroke="#000000" stroke-width="1.5" stroke-linecap="round"/><path d="" fill="none" stroke="#000000" stroke-width="1.5" stroke-linecap="round"/><path d="" fill="none" stroke="#000000" stroke-width="1.5" stroke-linecap="round"/><path d="" fill="none" stroke="#000000" stroke-width="1.5" stroke-linecap="round"/><path d="" fill="none" stroke="#000000" stroke-width="1.5" stroke-linecap="round"/><path d="" fill="none" stroke="#000000" stroke-width="1.5" stroke-linecap="round"/><path d="" fill="none" stroke="#000000" stroke-width="1.5" stroke-linecap="round"/><path d="" fill="none" stroke="#000000" stroke-width="1.5" stroke-linecap="round"/><path d="" fill="none" stroke="#000000" stroke-width="1.5" stroke-linecap="round"/><path d="M229.99627,205.64998v-37.07285h13.99439v37.07285c0,0 -6.24282,0 -8.79117,0c-1.96052,0 -5.20322,0 -5.20322,0z" fill="#646464" stroke="none" stroke-width="NaN" stroke-linecap="butt"/><path d="M234.95397,205.64487v-21.60537h4.41928v21.11434z" fill="#005757" stroke="none" stroke-width="0" stroke-linecap="butt"/><path d="M234.95397,182.81193v22.58743" fill="none" stroke="#00d1c1" stroke-width="2" stroke-linecap="round"/><path d="M239.12773,183.05744v22.0964" fill="none" stroke="#00d1c1" stroke-width="2" stroke-linecap="round"/><path d="M231.27124,178.88368c0,-3.11867 2.52819,-5.64686 5.64686,-5.64686c3.11867,0 5.64686,2.52819 5.64686,5.64686c0,3.11867 -2.52819,5.64686 -5.64686,5.64686c-3.11867,0 -5.64686,-2.52819 -5.64686,-5.64686z" fill="url(#color-1)" stroke="#00ebff" stroke-width="2" stroke-linecap="butt"/></g></g></svg>