<svg version="1.1" xmlns="http://www.w3.org/2000/svg" xmlns:xlink="http://www.w3.org/1999/xlink" width="80.5" height="85.37076" viewBox="0,0,80.5,85.37076"><g transform="translate(-199.75,-134.87924)"><g data-paper-data="{&quot;isPaintingLayer&quot;:true}" fill-rule="nonzero" stroke-linejoin="miter" stroke-miterlimit="10" stroke-dasharray="" stroke-dashoffset="0" style="mix-blend-mode: normal"><path d="" data-paper-data="{&quot;index&quot;:null}" fill="none" stroke="#000000" stroke-width="1.5" stroke-linecap="round"></path><path d="M200.5,180c0,-21.81525 17.68475,-39.5 39.5,-39.5c21.81525,0 39.5,17.68475 39.5,39.5c0,21.81525 -17.68475,39.5 -39.5,39.5c-21.81525,0 -39.5,-17.68475 -39.5,-39.5z" fill="#d8d8d8" stroke="#000000" stroke-width="1.5" stroke-linecap="butt"></path><path d="M225.51005,194.79568c5.44898,-2.88817 27.57511,5.13694 27.57511,5.13694" data-paper-data="{&quot;index&quot;:null}" fill="none" stroke="#000000" stroke-width="1.5" stroke-linecap="round"></path><path d="M240.25489,167.17564l6.93986,4.16391l-6.59286,1.38797l-3.29643,5.89888l-2.25545,-6.41937l-7.46035,-3.64343l7.11335,-2.08196l3.99042,-7.46035z" fill="#be82ff" stroke="#000000" stroke-width="0" stroke-linecap="round"></path><path d="M220.70109,176.77305l10.7662,2.43108" fill="none" stroke="#000000" stroke-width="1.5" stroke-linecap="round"></path><path d="M225.50349,176.87634l1.38919,-9.72431" fill="none" stroke="#000000" stroke-width="1.5" stroke-linecap="round"></path><path d="M228.49518,166.79922l-10.3457,-3.84548" fill="none" stroke="#000000" stroke-width="1.5" stroke-linecap="round"></path><g stroke-linecap="round"><path d="M242.26923,146.57628l3.49701,7.12237l-6.76618,6.06437l-8.45099,-0.63499l-2.96537,-7.76265" fill="none" stroke="#4d6200" stroke-width="4.5"></path><path d="M242.51485,170.90252l-1.7872,-10.35405" fill="none" stroke="#4d6200" stroke-width="4.5"></path><path d="M229.28336,135.18536l6.25482,2.04077l5.34033,12.64936l-3.35598,6.21326l-5.45738,-2.27888l-5.4915,-12.86479z" fill="#7d00ff" stroke="#7f00ff" stroke-width="0.5"></path><path d="M230.71387,138.23749l4.38292,1.43003l3.74212,8.86375l-2.35162,4.3538l-3.82413,-1.59688l-3.84804,-9.0147z" fill="#be82ff" stroke="#7f00ff" stroke-width="0"></path><g fill="none" stroke="#4d6200"><path d="M258.5396,188.2107l16.10308,19.4285l-2.3198,1.75163l-15.74065,-19.3439z" stroke-width="3"></path><path d="M255.38003,191.10395l-0.34369,-7.53289l2.28952,-0.80322l0.98396,8.06452l13.43333,16.13001" stroke-width="3"></path><path d="M241.37323,170.06275l20.57975,14.16735l-2.68225,1.66703l-19.49242,-13.91355z" stroke-width="3"></path><path d="M259.52452,184.80981l-18.71324,-13.15839l-2.26452,-9.12781" stroke-width="4.5"></path></g></g></g></g></svg>