<svg version="1.1" xmlns="http://www.w3.org/2000/svg" xmlns:xlink="http://www.w3.org/1999/xlink" width="84.08635" height="89.97229" viewBox="0,0,84.08635,89.97229"><g transform="translate(-439.72851,-130.79625)"><g stroke-miterlimit="10"><g><path d="M452.77896,208.31908c-15.62823,-15.02192 -16.11978,-39.8688 -1.09782,-55.49704c15.02192,-15.62823 39.8688,-16.11978 55.49704,-1.09782c15.62823,15.02192 16.11978,39.8688 1.09782,55.49704c-15.02192,15.62823 -39.8688,16.11978 -55.49704,1.09782z" fill="#c6c6c6" stroke="#00144d" stroke-width="2" stroke-linecap="butt"/><path d="M449.99297,204.91717c0,0 -2.9151,-3.74615 -3.92946,-5.89141c-1.20868,-2.55623 -2.84232,-8.43035 -2.84232,-8.43035l24.58767,-23.48289l10.22198,10.70288z" fill="#ffffff" stroke="#001e6f" stroke-width="2" stroke-linecap="butt"/><path d="M471.2294,182.93065l-8.79903,-9.40625l5.39716,-5.16829l8.79903,9.40625z" fill-opacity="0.35294" fill="#0015ff" stroke="none" stroke-width="0" stroke-linecap="butt"/><path d="M465.84038,188.29337l-8.79903,-9.40625l5.39715,-5.16828l8.79903,9.40625z" fill-opacity="0.45098" fill="#0015ff" stroke="none" stroke-width="0" stroke-linecap="butt"/><path d="M460.16861,193.6628l-8.79903,-9.40625l5.39716,-5.16829l8.79903,9.40625z" fill-opacity="0.61961" fill="#0015ff" stroke="none" stroke-width="0" stroke-linecap="butt"/><path d="M498.76592,179.54169l-2.42386,9.1778l-8.98129,3.59018l-5.08704,-18.20573z" fill-opacity="0.31373" fill="#006bff" stroke="#00144d" stroke-width="1.5" stroke-linecap="round"/><path d="M454.5002,199.17361l-8.79903,-9.40625l5.39715,-5.16828l8.79903,9.40625z" fill-opacity="0.70196" fill="#0015ff" stroke="none" stroke-width="0" stroke-linecap="butt"/><path d="M450.07723,203.52303c0,0 -2.84961,-4.11066 -3.85527,-6.27748c-0.96159,-2.07187 -2.05236,-6.4514 -2.05236,-6.4514l1.11895,-0.68087l8.79903,9.40625z" fill-opacity="0.9098" fill="#0015ff" stroke="none" stroke-width="0" stroke-linecap="butt"/><path d="M454.29636,207.38645l33.16017,-15.01618l-5.95556,-19.03377l16.97736,6.66789l8.99145,-27.62671c0,0 3.38351,3.23705 6.13188,8.02306c3.15473,5.49368 5.74408,12.89702 5.98449,17.57999c0.20963,4.08349 -0.76009,10.92848 -3.11489,16.26268c-2.48025,5.61836 -5.79498,10.16279 -5.79498,10.16279c0,0 -5.09662,5.29682 -11.88275,9.47496c-5.33139,3.28246 -12.54553,5.07359 -16.71505,5.38517c-5.01698,0.3749 -14.33412,-1.16301 -20.54913,-4.20736c-5.52474,-2.70623 -8.27647,-6.9403 -8.27647,-6.9403z" fill-opacity="0.25098" fill="#172aff" stroke="#00144d" stroke-width="1.5" stroke-linecap="round"/><path d="M476.03864,219.09325c0,0 0.90929,-11.04649 6.0784,-12.04071c5.16911,-0.99422 14.53183,8.07656 14.53183,8.07656c0,0 -6.42759,3.34627 -9.97796,4.02915c-3.30166,0.63503 -10.63228,-0.06501 -10.63228,-0.06501z" fill-opacity="0.2" fill="#00ff15" stroke="#00144d" stroke-width="1.5" stroke-linecap="round"/><path d="M519.37893,179.65732c0.00315,3.61543 -2.06285,10.56116 -2.06285,10.56116c0,0 -10.68241,-7.47165 -10.68699,-12.73552c-0.00457,-5.26385 10.66875,-8.25249 10.66875,-8.25249c0,0 2.07816,7.06466 2.0811,10.42682z" fill-opacity="0.2" fill="#00ff15" stroke="#00144d" stroke-width="1.5" stroke-linecap="round"/><path d="M502.00212,168.09379l-48.93127,-15.71268l7.68951,-6.16517l43.70231,13.95132z" fill="#00f2ff" stroke="#00144d" stroke-width="1.5" stroke-linecap="butt"/><path d="M479.91551,164.89165c-4.46366,-4.25557 -4.63236,-11.32391 -0.3768,-15.78755c4.25557,-4.46366 11.32391,-4.63236 15.78755,-0.3768c4.46366,4.25557 4.63236,11.32391 0.3768,15.78755c-4.25557,4.46366 -11.32391,4.63236 -15.78755,0.3768z" fill="#00cdff" stroke="#00144d" stroke-width="1.5" stroke-linecap="butt"/><path d="M462.79635,147.34245l-3.9998,6.93278" fill="none" stroke="#00144d" stroke-width="1.5" stroke-linecap="round"/><path d="M463.37842,155.26612l3.69312,-6.6111" fill="none" stroke="#00144d" stroke-width="1.5" stroke-linecap="round"/><path d="M471.50754,150.12096l-3.29478,6.83735" fill="none" stroke="#00144d" stroke-width="1.5" stroke-linecap="round"/><path d="M476.18482,151.81689l-2.35971,6.50068" fill="none" stroke="#00144d" stroke-width="1.5" stroke-linecap="round"/><path d="M501.3646,159.70363l-2.6814,6.194" fill="none" stroke="#00144d" stroke-width="1.5" stroke-linecap="round"/></g><g stroke="#00144d"><path d="M501.6796,190.62301c-4.34173,-2.33645 -5.96733,-7.75022 -3.6309,-12.09195c2.33645,-4.34173 7.75022,-5.96733 12.09195,-3.6309c4.34173,2.33645 5.96733,7.75022 3.6309,12.09195c-2.33645,4.34173 -7.75022,5.96733 -12.09195,3.6309z" fill="none" stroke-width="2.5" stroke-linecap="butt"/><path d="M500.93448,183.71977l-3.57919,-1.92609l21.73738,-40.39363l3.57919,1.92609z" fill="#4d5995" stroke-width="1.5" stroke-linecap="butt"/><path d="M499.13553,180.18741l-8.181,-4.4025l23.66348,-43.97281l8.181,4.4025z" fill="#6b7ccf" stroke-width="1.5" stroke-linecap="butt"/><path d="M502.84643,202.49302l-14.44692,-20.00663l3.53058,-2.54945l14.44692,20.00663z" fill-opacity="0.25098" fill="#172aff" stroke-width="1.5" stroke-linecap="butt"/><path d="M512.93798,193.91431l-20.76548,-14.1907l2.24739,-3.5596l20.72011,14.47746z" fill-opacity="0.44314" fill="#172aff" stroke-width="1.5" stroke-linecap="butt"/><path d="M517.62354,198.64257l-6.18236,6.89349l-16.84726,-22.91321z" fill-opacity="0.8549" fill="#006ace" stroke-width="1.5" stroke-linecap="round"/><path d="M505.52187,179.75946l-15.23076,5.31288l14.80039,3.60448c0,0 -9.6405,7.4228 -15.04121,4.51646c-5.40069,-2.90634 -7.4228,-9.6405 -4.51646,-15.04121c2.90634,-5.40069 19.98804,1.60739 19.98804,1.60739z" fill="#6cbbcf" stroke-width="1.5" stroke-linecap="butt"/><path d="M485.68507,188.60957l15.23076,-5.31288l-14.80039,-3.60448c0,0 9.6405,-7.4228 15.04121,-4.51646c5.40069,2.90634 7.4228,9.6405 4.51646,15.04121c-2.90634,5.40069 -19.98804,-1.60739 -19.98804,-1.60739z" fill="#6cbbcf" stroke-width="1.5" stroke-linecap="butt"/><path d="M493.5036,186.48694c-1.55313,-0.83581 -2.13466,-2.77242 -1.29886,-4.32558c0.83581,-1.55313 2.77242,-2.13466 4.32558,-1.29886c1.55313,0.83581 2.13466,2.77242 1.29886,4.32558c-0.83581,1.55313 -2.77242,2.13466 -4.32558,1.29886z" fill="#6b73cf" stroke-width="1.5" stroke-linecap="butt"/></g></g></g></svg>