<svg version="1.1" xmlns="http://www.w3.org/2000/svg" xmlns:xlink="http://www.w3.org/1999/xlink" width="176.34163" height="160.59323" viewBox="0,0,176.34163,160.59323"><g transform="translate(-150.87267,-105.44603)"><g data-paper-data="{&quot;isPaintingLayer&quot;:true}" fill-rule="nonzero" stroke-linejoin="miter" stroke-miterlimit="10" stroke-dasharray="" stroke-dashoffset="0" style="mix-blend-mode: normal"><g data-paper-data="{&quot;index&quot;:null}" stroke="#000000"><path d="M204.87632,165.5428c-1.83707,-0.82999 -5.36055,-0.69926 -7.42027,-2.3649c-2.44296,-1.97556 -3.28517,-5.70906 -3.28517,-5.70906l0.0514,-4.01489c0,0 3.36676,3.98215 6.83003,5.78356c2.98087,1.5505 6.01789,0.96062 7.21988,0.93333c4.53252,-0.1029 13.43998,-2.3418 13.43998,-2.3418l0.30291,10.35036c0,0 -12.05286,-0.33876 -17.13877,-2.63659z" fill="#b058be" stroke-width="0" stroke-linecap="butt"></path><path d="M216.18175,167.75992c0,0 -2.05768,-4.36815 -2.10239,-5.8958c-0.03427,-1.17072 1.85704,-2.48763 1.85704,-2.48763" fill="none" stroke-width="0.5" stroke-linecap="round"></path><path d="M212.04688,166.95796c0,0 -1.94155,-3.26723 -1.97684,-4.47308c-0.02882,-0.98457 1.78056,-2.23367 1.78056,-2.23367" fill="none" stroke-width="0.5" stroke-linecap="round"></path><path d="M207.15752,166.17809c0,0 -1.67829,-3.01317 -1.64763,-4.08301c0.02022,-0.70555 1.81367,-1.71138 1.81367,-1.71138" fill="none" stroke-width="0.5" stroke-linecap="round"></path><path d="M203.16822,164.61672c0,0 -1.36894,-2.21556 -1.37605,-2.98263c-0.00532,-0.57462 1.33721,-1.21153 1.33721,-1.21153" fill="none" stroke-width="0.5" stroke-linecap="round"></path><path d="M199.60302,163.21075c0,0 -1.26688,-2.33326 -1.29902,-2.98522c-0.03621,-0.73458 1.09251,-1.20404 1.09251,-1.20404" fill="none" stroke-width="0.5" stroke-linecap="round"></path><path d="M194.92099,159.18823c0,0 0.79732,-2.01018 1.18814,-2.37063c0.44035,-0.40615 1.32313,0.05442 1.32313,0.05442" fill="none" stroke-width="0.5" stroke-linecap="round"></path></g><path d="" data-paper-data="{&quot;index&quot;:null}" fill="none" stroke="#000000" stroke-width="1.5" stroke-linecap="round"></path><path d="" data-paper-data="{&quot;index&quot;:null}" fill="none" stroke="#000000" stroke-width="1.5" stroke-linecap="round"></path><path d="" data-paper-data="{&quot;index&quot;:null}" fill="none" stroke="#000000" stroke-width="1.5" stroke-linecap="round"></path><path d="" data-paper-data="{&quot;index&quot;:null}" fill="none" stroke="#000000" stroke-width="1.5" stroke-linecap="round"></path><path d="" data-paper-data="{&quot;index&quot;:null}" fill="none" stroke="#000000" stroke-width="1.5" stroke-linecap="round"></path><path d="M289.92393,195.47556" data-paper-data="{&quot;index&quot;:null}" fill="none" stroke="#d8d8d8" stroke-width="4" stroke-linecap="round"></path><path d="M240.00002,219.5c-21.81525,0 -39.5,-17.68475 -39.5,-39.5c0,-21.81525 17.68475,-39.5 39.5,-39.5c21.81525,0 39.5,17.68475 39.5,39.5c0,21.81525 -17.68475,39.5 -39.5,39.5z" fill="#d8d8d8" stroke="#000000" stroke-width="1.5" stroke-linecap="butt"></path><path d="M228.05527,173.4834c-1.36912,0.69074 -3.94256,-1.65016 -5.74792,-5.22857c-1.80536,-3.57841 7.11704,4.53783 5.74792,5.22857z" fill="#ff6666" stroke="#000000" stroke-width="0" stroke-linecap="butt"></path><path d="M253.51823,187.77356l-33.69856,-3.15529" fill="none" stroke="#000000" stroke-width="0.5" stroke-linecap="round"></path><path d="M231.10793,185.75843l-6.21783,9.11743l-2.74141,-9.94892z" fill="#ffffff" stroke="#000000" stroke-width="0.5" stroke-linecap="round"></path><path d="M252.2234,187.89609l-5.57718,8.178l-2.45893,-8.92381z" fill="#ffffff" stroke="#000000" stroke-width="0.5" stroke-linecap="round"></path><g stroke="#000000"><path d="M257.19906,171.00453l0.30292,-10.35036c0,0 8.90747,2.2389 13.43998,2.3418c1.202,0.02729 4.239,0.61718 7.21988,-0.93333c3.46326,-1.80141 6.83004,-5.78356 6.83004,-5.78356l0.0514,4.01489c0,0 -0.8422,3.7335 -3.28517,5.70906c-2.05972,1.66565 -5.5832,1.5349 -7.42027,2.3649c-5.08591,2.29782 -17.13878,2.63659 -17.13878,2.63659z" fill="#b058be" stroke-width="0" stroke-linecap="butt"></path><path d="M263.27777,162.20162c0,0 1.89131,1.31691 1.85704,2.48763c-0.04471,1.52764 -2.10239,5.8958 -2.10239,5.8958" fill="none" stroke-width="0.5" stroke-linecap="round"></path><path d="M267.36357,163.07635c0,0 1.80938,1.2491 1.78056,2.23367c-0.03529,1.20585 -1.97684,4.47307 -1.97684,4.47307" fill="none" stroke-width="0.5" stroke-linecap="round"></path><path d="M271.89061,163.20884c0,0 1.79345,1.00583 1.81367,1.71138c0.03066,1.06984 -1.64763,4.083 -1.64763,4.083" fill="none" stroke-width="0.5" stroke-linecap="round"></path><path d="M276.08477,163.24768c0,0 1.34252,0.63692 1.3372,1.21154c-0.00711,0.76707 -1.37604,2.98263 -1.37604,2.98263" fill="none" stroke-width="0.5" stroke-linecap="round"></path><path d="M279.81766,161.84662c0,0 1.12872,0.46946 1.09251,1.20404c-0.03214,0.65196 -1.29902,2.98522 -1.29902,2.98522" fill="none" stroke-width="0.5" stroke-linecap="round"></path><path d="M281.78191,159.69716c0,0 0.88277,-0.46058 1.32313,-0.05443c0.39082,0.36046 1.18814,2.37064 1.18814,2.37064" fill="none" stroke-width="0.5" stroke-linecap="round"></path></g><path d="M241.89384,169.19243c-1.80536,3.57841 -4.37879,5.91931 -5.74792,5.22856c-1.36912,-0.69074 7.55328,-8.80697 5.74792,-5.22856z" data-paper-data="{&quot;index&quot;:null}" fill="#ff6666" stroke="#000000" stroke-width="0" stroke-linecap="butt"></path><path d="M200.04146,110.80787c-0.28642,-0.68637 -0.57469,-2.02757 0.90443,-3.0251c2.07269,-1.39784 3.47053,0.67485 3.47053,0.67485c1.55021,2.3267 2.53452,4.58808 5.07763,5.96344c7.31268,3.95484 17.68562,-2.68916 24.09971,-5.61967c0.8818,-0.40288 7.29414,-3.35255 7.53505,-3.35485c5.0229,-0.04789 5.20066,3.25818 7.76044,6.36682c5.26545,6.39444 11.49474,11.35771 19.47853,13.50494c5.84284,1.6005 13.16561,4.94143 19.36504,3.30651c4.11344,-1.0848 8.47328,-3.06333 12.39896,-4.73387c1.98766,-0.84583 9.70401,-5.02746 11.60458,-3.4181c1.82261,1.54333 -0.0608,4.7772 -0.17879,7.16254c-0.16022,3.23912 -0.71341,6.45234 -0.83908,9.69298c-0.50781,13.09529 0.81848,26.09423 2.02819,39.10574c1.59538,5.88163 2.62238,12.38775 4.85617,18.05164c1.71969,4.36036 4.35462,8.59113 6.45887,12.78892l2.49982,2.76129c0.40547,0.44438 0.65275,1.03559 0.65275,1.68456c0,1.38071 -1.11929,2.5 -2.5,2.5c-0.53281,0 -1.02669,-0.16668 -1.43235,-0.45074l-2.88848,-1.96302c-2.58869,-0.04789 -5.57853,2.57034 -7.47724,4.02657c-8.86335,6.79781 -13.70752,19.64053 -17.82149,29.7516c-0.0223,0.05481 -3.4603,9.24729 -3.47404,9.27465c-1.00956,2.01049 -1.28412,5.34974 -3.49334,5.77478c-2.33494,0.44923 -4.01329,-2.5573 -5.93223,-3.96137c-2.02409,-1.48101 -3.11899,-3.95741 -4.9732,-5.64627c-2.18155,-1.987 -4.97725,-3.17237 -7.42397,-4.82189c-7.28244,0.36283 -15.19413,-0.55725 -21.8277,3.15661c-4.56126,2.55366 -9.32947,6.74249 -12.34792,10.9608c-1.36527,1.90798 -1.77305,5.54902 -4.11358,5.71118c-2.40979,0.16697 -3.554,-3.28136 -5.18054,-5.06723c-1.22908,-1.34948 -4.19684,-6.12561 -4.96302,-7.31841c-3.67941,-5.72818 -8.14414,-9.26821 -13.40482,-13.50275c-4.59969,-3.70248 -8.95214,-6.51223 -14.70402,-7.81577c-4.46463,-1.05643 -8.49663,-1.1688 -12.98993,-1.28079c-0.07802,0.09894 -0.14191,0.16052 -0.18925,0.17888c-0.44423,0.17235 -0.89448,0.21959 -1.34887,0.18068v0.21443l-2.79092,0c-1.38071,0 -2.5,-1.11929 -2.5,-2.5c0,-1.23195 0.89109,-2.25578 2.0639,-2.46209l2.25793,-0.44269c0.04578,-3.82408 3.71026,-7.98244 4.85933,-11.4998c1.72683,-5.2859 2.41561,-11.0636 2.13524,-16.55017c-0.0753,-1.47348 0.23739,-3.00781 -0.18158,-4.42247c-0.41898,-1.41466 -1.51422,-2.53274 -2.25604,-3.80808c-1.21252,-2.08458 -1.87079,-4.57487 -3.55464,-6.30123c-4.85321,-4.97575 -11.84163,-9.51013 -17.82685,-12.98373c-1.98474,-1.15187 -9.6649,-4.43179 -10.03809,-6.6051c-0.33033,-1.92376 2.84074,-2.67772 4.26111,-4.01658c7.75766,-6.65608 10.06085,-14.90212 12.19473,-24.58224c1.60531,-7.28232 2.96151,-14.34386 3.33515,-21.79953l0.17603,-3.48008c0.05819,-1.32909 1.15413,-2.38876 2.49757,-2.38876c0.6547,0 1.25062,0.25166 1.6963,0.66353l2.994,2.74819c1.60591,1.08068 2.93961,2.81743 4.83317,3.21895c4.37712,0.92815 9.57402,-2.5581 13.70681,-3.5866l2.96131,-0.07301c0,0 0.20083,0 0.48865,0.05692zM201.99336,113.87872c-0.37888,1.87223 -2.44055,1.87223 -2.44055,1.87223l-1.76175,-0.07301c-6.9573,1.70587 -13.11765,6.15329 -20.20171,1.797c-0.7688,-0.47277 -1.4582,-1.13474 -2.00912,-1.9003c-0.49575,7.12362 -1.80019,13.94215 -3.34499,20.94998c-2.41731,10.96586 -5.32174,19.87078 -13.98446,27.41425c3.5073,0.58636 6.6426,3.32825 9.49308,5.1837c5.71202,3.7181 12.98968,8.05594 16.42887,13.99158c0.34007,0.58693 5.09137,8.8658 5.19367,9.21121c0.52769,1.78174 0.26739,3.70693 0.37954,5.56178c0.48255,7.98057 -1.24258,15.93054 -4.56846,23.19426c-0.24282,0.53032 -1.26006,2.79748 -2.33094,5.05506c3.88129,0.12648 7.56188,0.40337 11.54746,1.32393c8.21158,1.96805 14.10547,6.69669 20.59606,11.92045c3.27368,2.63472 5.09072,3.80745 7.73747,7.16614c2.49698,3.16862 5.90647,7.81605 7.64655,11.48134c0.44364,0.93448 -0.30253,3.29754 0.69522,3.02446c1.05912,-0.28988 -0.18156,-2.27659 0.25446,-3.28438c0.66299,-1.53239 1.78989,-2.8419 2.92559,-4.06581c2.76687,-2.98178 7.8486,-6.79487 11.34747,-8.74192c7.78045,-4.32964 16.99377,-3.5267 25.543,-3.57242c0.72179,0.44129 8.683,5.25162 9.43853,5.93247c1.29091,1.16332 2.09573,2.77671 3.24467,4.08043c0.51812,0.58792 1.27873,0.94654 1.7423,1.57835c0.61853,0.84301 0.4103,2.73037 1.45474,2.77901c0.90389,0.0421 -0.25909,-1.83166 -0.0583,-2.71397c0.36307,-1.59544 1.14781,-3.06457 1.722,-4.59675c1.78063,-4.75152 3.71122,-9.43704 5.86488,-14.03485c4.12947,-8.81592 8.84519,-19.02577 17.56581,-24.15185c1.09271,-0.64231 3.80292,-2.31827 6.2617,-3.10508c-1.93385,-3.56527 -3.99227,-7.19315 -5.44276,-10.88245c-2.34041,-5.95279 -3.45427,-12.77031 -5.10702,-18.95025c-1.29048,-13.36512 -2.62586,-26.7346 -2.10414,-40.18868c0.00217,-0.05584 0.87911,-10.19819 0.88934,-10.23219c0.31011,-1.03061 1.88086,-1.54626 1.88345,-2.62251c0.00228,-0.94614 -1.09138,1.60523 -1.88225,2.12457c-1.39513,0.91614 -3.0107,1.44433 -4.54676,2.09717c-2.71877,1.1555 -5.52088,2.10421 -8.28681,3.14175c-1.69021,0.63402 -3.32527,1.44813 -5.07647,1.88643c-7.14434,1.78812 -14.89538,-1.5373 -21.65593,-3.38918c-7.6983,-2.14242 -12.69763,-5.8808 -18.3009,-11.44879c-2.3014,-2.28691 -4.07359,-5.05106 -6.1394,-7.55282c-0.31882,-0.3861 -0.84113,-0.79392 -1.33191,-0.69463c-2.06191,0.41716 -3.68949,2.03037 -5.60286,2.90472c-8.10362,3.70308 -19.40548,10.44942 -28.45596,5.52271c-2.70383,-1.47185 -3.90096,-2.98953 -5.22243,-4.99313z" fill="#a866ff" stroke="none" stroke-width="0.5" stroke-linecap="butt"></path><path d="M201.36091,115.44381c-0.26697,-0.63977 -0.53567,-1.88991 0.84302,-2.81971c1.93196,-1.30293 3.23489,0.62903 3.23489,0.62903c1.44495,2.16872 2.36243,4.27655 4.73287,5.55853c6.81616,3.68631 16.48481,-2.50657 22.46339,-5.2381c0.82193,-0.37553 6.79889,-3.12492 7.02344,-3.12706c4.68186,-0.04464 4.84754,3.03696 7.23352,5.93453c4.90794,5.96028 10.71427,10.58654 18.15597,12.58798c5.44613,1.49183 12.27169,4.60593 18.05019,3.08201c3.83415,-1.01115 7.89796,-2.85534 11.5571,-4.41245c1.8527,-0.7884 9.04512,-4.68611 10.81666,-3.18602c1.69885,1.43855 -0.05667,4.45284 -0.16665,6.67622c-0.14934,3.01919 -0.66498,6.01424 -0.78211,9.03485c-0.47334,12.20615 0.76291,24.32249 1.89048,36.45055c1.48705,5.48228 2.44432,11.54665 4.52645,16.82597c1.60293,4.06431 4.05895,8.00781 6.02033,11.92058l2.33009,2.5738c0.37794,0.41421 0.60842,0.96528 0.60842,1.57018c0,1.28696 -1.04329,2.33026 -2.33026,2.33026c-0.49663,0 -0.95698,-0.15537 -1.33509,-0.42014l-2.69235,-1.82973c-2.41292,-0.04463 -5.19976,2.39582 -6.96955,3.75317c-8.26154,6.33625 -12.77681,18.30698 -16.61145,27.73153c-0.02079,0.05109 -3.22535,8.61942 -3.23816,8.64492c-0.94101,1.87398 -1.19694,4.98651 -3.25615,5.38268c-2.1764,0.41872 -3.74079,-2.38366 -5.52944,-3.6924c-1.88666,-1.38046 -2.90722,-3.68871 -4.63553,-5.2629c-2.03342,-1.85209 -4.63931,-2.95697 -6.9199,-4.49449c-6.78798,0.33819 -14.16248,-0.51941 -20.34564,2.94228c-4.25156,2.38027 -8.69602,6.28468 -11.50952,10.21658c-1.27257,1.77843 -1.65266,5.17225 -3.83427,5.32341c-2.24617,0.15563 -3.3127,-3.05855 -4.82879,-4.72318c-1.14562,-1.25785 -3.91188,-5.7097 -4.62604,-6.82151c-3.42959,-5.33925 -7.59117,-8.63891 -12.49466,-12.58594c-4.28738,-3.45109 -8.34432,-6.07006 -13.70565,-7.2851c-4.1615,-0.9847 -7.91972,-1.08944 -12.10794,-1.19383c-0.07272,0.09222 -0.13227,0.14962 -0.1764,0.16674c-0.41407,0.16065 -0.83375,0.20468 -1.25728,0.16841v0.19988h-2.60142c-1.28696,0 -2.33026,-1.04329 -2.33026,-2.33026c0,-1.1483 0.83059,-2.10262 1.92376,-2.29492l2.10462,-0.41264c0.04267,-3.56443 3.45834,-7.44045 4.52939,-10.71899c1.60958,-4.92699 2.2516,-10.3124 1.99026,-15.42644c-0.07018,-1.37343 0.22128,-2.80358 -0.16925,-4.12219c-0.39053,-1.31861 -1.41141,-2.36077 -2.10286,-3.54952c-1.13019,-1.94304 -1.74377,-4.26425 -3.31328,-5.87339c-4.52369,-4.63791 -11.03761,-8.86441 -16.61645,-12.10216c-1.84998,-1.07366 -9.00867,-4.13088 -9.35652,-6.15663c-0.30791,-1.79315 2.64785,-2.4959 3.97178,-3.74386c7.23093,-6.20415 9.37774,-13.8903 11.36674,-22.91316c1.49631,-6.78787 2.76043,-13.36994 3.1087,-20.31939l0.16407,-3.24379c0.05424,-1.23885 1.07577,-2.22657 2.32799,-2.22657c0.61025,0 1.16571,0.23458 1.58112,0.61848l2.79072,2.56159c1.49687,1.00731 2.74002,2.62613 4.50501,3.00039c4.07993,0.86514 8.92396,-2.38441 12.77614,-3.34308l2.76025,-0.06805c0,0 0.1872,0 0.45548,0.05306zM203.18028,118.30616c-0.35316,1.74511 -2.27485,1.74511 -2.27485,1.74511l-1.64213,-0.06806c-6.48491,1.59004 -12.22699,5.7355 -18.83006,1.67499c-0.7166,-0.44067 -1.35919,-1.05769 -1.8727,-1.77127c-0.46208,6.63994 -1.67796,12.9955 -3.11788,19.52752c-2.25318,10.2213 -4.9604,18.52159 -13.03494,25.55288c3.26916,0.54655 6.19158,3.10226 8.84851,4.83173c5.32418,3.46564 12.10771,7.50896 15.31339,13.04158c0.31698,0.54707 4.74568,8.26383 4.84103,8.58578c0.49186,1.66076 0.24923,3.45523 0.35377,5.18414c0.44979,7.43871 -1.15821,14.84889 -4.25827,21.61942c-0.22633,0.49431 -1.1745,2.60753 -2.17267,4.71184c3.61776,0.11789 7.04844,0.37598 10.76341,1.23403c7.65403,1.83443 13.14774,6.242 19.19763,11.11107c3.05141,2.45583 4.74507,3.54893 7.21212,6.67957c2.32744,2.95348 5.50543,7.28536 7.12737,10.70178c0.41352,0.87103 -0.28199,3.07365 0.64801,2.81911c0.98721,-0.27019 -0.16923,-2.12201 0.23718,-3.06138c0.61797,-1.42834 1.66836,-2.64894 2.72695,-3.78975c2.57901,-2.77933 7.31569,-6.33351 10.577,-8.14836c7.25217,-4.03566 15.83993,-3.28725 23.80868,-3.32986c0.67278,0.41133 8.09345,4.89504 8.79767,5.52966c1.20326,1.08433 1.95343,2.58818 3.02437,3.80338c0.48294,0.548 1.19191,0.88227 1.624,1.47119c0.57653,0.78577 0.38243,2.54498 1.35597,2.59032c0.84251,0.03924 -0.24149,-1.70729 -0.05434,-2.5297c0.33842,-1.48712 1.06988,-2.85649 1.60508,-4.28464c1.65972,-4.4289 3.45923,-8.79628 5.46666,-13.08191c3.84908,-8.21733 8.24462,-17.73396 16.37313,-22.51199c1.01852,-0.59869 3.5447,-2.16087 5.83654,-2.89425c-1.80255,-3.3232 -3.7212,-6.70475 -5.07321,-10.14356c-2.1815,-5.54861 -3.21973,-11.90323 -4.76026,-17.66356c-1.20286,-12.45766 -2.44757,-24.91938 -1.96127,-37.45996c0.00202,-0.05205 0.81942,-9.50575 0.82895,-9.53745c0.28905,-0.96063 1.75315,-1.44127 1.75557,-2.44445c0.00212,-0.8819 -1.01728,1.49624 -1.75445,1.98032c-1.3004,0.85394 -2.80628,1.34627 -4.23804,1.95478c-2.53417,1.07704 -5.14603,1.96133 -7.72416,2.92843c-1.57545,0.59098 -3.0995,1.34981 -4.73179,1.75835c-6.65925,1.66671 -13.88401,-1.43293 -20.18553,-3.15907c-7.17561,-1.99695 -11.83549,-5.48151 -17.05831,-10.67144c-2.14514,-2.13163 -3.797,-4.7081 -5.72255,-7.04c-0.29717,-0.35988 -0.78402,-0.74002 -1.24147,-0.64747c-1.92191,0.38884 -3.43898,1.89251 -5.22244,2.7075c-7.5534,3.45164 -18.08789,9.73993 -26.52386,5.14773c-2.52025,-1.37192 -3.63609,-2.78654 -4.86783,-4.6541z" fill="#ffffff" stroke="none" stroke-width="0.5" stroke-linecap="butt"></path></g></g></svg>