<svg version="1.1" xmlns="http://www.w3.org/2000/svg" xmlns:xlink="http://www.w3.org/1999/xlink" width="600.8812" height="453.73367" viewBox="0,0,600.8812,453.73367"><defs><radialGradient cx="431.66327" cy="197.16666" r="43.83673" gradientUnits="userSpaceOnUse" id="color-1"><stop offset="0" stop-color="#383838"></stop><stop offset="1" stop-color="#000000"></stop></radialGradient></defs><g transform="translate(60.4406,46.86683)"><g data-paper-data="{&quot;isPaintingLayer&quot;:true}" fill-rule="nonzero" stroke-linejoin="miter" stroke-miterlimit="10" stroke-dasharray="" stroke-dashoffset="0" style="mix-blend-mode: normal"><path d="M-60.4406,406.86684v-453.73367h600.8812v453.73367z" fill="#1d1d1d" stroke="none" stroke-width="NaN" stroke-linecap="butt"></path><path d="M47.5,186.16666c0,-8.28427 6.71573,-15 15,-15c8.28427,0 15,6.71573 15,15c0,8.28427 -6.71573,15 -15,15c-8.28427,0 -15,-6.71573 -15,-15z" fill="#c8c8c8" stroke="#ffffff" stroke-width="1.5" stroke-linecap="butt"></path><path d="M423.09184,194.96257l52.40816,-32.32653l-43.10204,29.87755l21.55102,3.42857l-21.55102,6.36735l5.38776,7.34694l-15.18367,13.71429l-0.4898,-16.16327l-34.28571,25.95918l10.77551,-26.44898l-9.30612,-2.93878l13.71429,-5.87755l-12.2449,-3.91837l7.83673,-24.97959l19.59184,14.69388l9.30612,-15.67347l-3.91837,-6.36735l6.85714,5.87755l-2.93878,-6.36735l5.87755,1.46939v18.12245z" fill="url(#color-1)" stroke="#ffffff" stroke-width="1.5" stroke-linecap="round"></path></g></g></svg>