<svg version="1.1" xmlns="http://www.w3.org/2000/svg" xmlns:xlink="http://www.w3.org/1999/xlink" width="144.78845" height="134.6387" viewBox="0,0,144.78845,134.6387"><g transform="translate(-165.6764,-112.93689)"><g data-paper-data="{&quot;isPaintingLayer&quot;:true}" fill-rule="nonzero" stroke-linejoin="miter" stroke-miterlimit="10" stroke-dasharray="" stroke-dashoffset="0" style="mix-blend-mode: normal"><path d="" data-paper-data="{&quot;index&quot;:null}" fill="none" stroke="#000000" stroke-width="1.5" stroke-linecap="round"></path><path d="M200.5,180c0,-21.81525 17.68475,-39.5 39.5,-39.5c21.81525,0 39.5,17.68475 39.5,39.5c0,21.81525 -17.68475,39.5 -39.5,39.5c-21.81525,0 -39.5,-17.68475 -39.5,-39.5z" fill="#d8d8d8" stroke="#000000" stroke-width="1.5" stroke-linecap="butt"></path><path d="M240.25489,167.17564l6.93986,4.16391l-6.59286,1.38797l-3.29643,5.89888l-2.25545,-6.41937l-7.46035,-3.64343l7.11335,-2.08196l3.99042,-7.46035z" fill="#be82ff" stroke="#000000" stroke-width="0" stroke-linecap="round"></path><g stroke="none" stroke-width="0.5" stroke-linecap="butt"><path d="M271.71795,129.03981c-6.83935,1.91489 -15.83259,-0.6792 -21.92949,-3.85317c-0.57584,-0.29978 -6.01457,-3.82698 -7.08754,-4.57251c-0.71533,-0.49702 -1.50683,-0.91793 -2.09842,-1.55725c-0.33912,-0.36648 -0.12046,-1.47185 -0.60896,-1.36855c-0.63894,0.13512 -0.45948,1.2948 -0.96974,1.7024c-0.83855,0.66985 -1.89035,1.03748 -2.9035,1.39159c-8.26132,2.88744 -16.47077,3.13795 -25.1239,3.20181c-4.12174,-0.76313 -8.25014,-1.41698 -12.36407,-2.22842c-0.72011,-0.14204 -1.47911,-0.1578 -2.18388,-0.34824c1.07411,2.61077 1.00169,8.66798 1.01245,9.09459c0.23152,9.17344 -1.10824,18.59801 -6.40232,26.43961c-3.40563,5.04441 -9.48319,10.26762 -14.55654,13.57522c-1.46884,0.95762 -2.99288,1.89928 -4.66197,2.43657c-0.57912,0.18642 -1.76552,-0.96777 -1.78933,-0.35985c-0.03585,0.91521 1.14632,1.42884 1.71947,2.14326c3.98942,5.03393 8.54661,10.68883 10.77065,16.81124c3.01761,8.30694 3.70204,17.79672 3.53028,26.59329c3.29052,-2.45811 10.33353,-3.09557 13.64434,-3.36766c17.88158,-1.46951 30.04306,11.90577 39.92663,25.26089l0.05907,0.023c0.51082,-5.25546 4.54197,-9.5279 8.22294,-13.26282c9.8979,-10.04297 27.75049,-14.52293 41.25443,-9.36729c-1.3064,-3.08532 -1.94917,-6.92057 -2.43447,-9.3378c-3.11437,-15.5123 3.95165,-34.40521 16.58077,-43.87039l-0.4614,-0.34738l0.22688,-0.30136c-3.58165,-1.53457 -6.43991,-4.595 -9.3497,-7.26828c-8.2424,-7.57244 -15.98557,-16.27128 -21.42484,-26.13194zM273.55306,124.88759c1.33936,-0.00975 2.03908,1.314 2.03908,1.314l0.88504,1.67516c7.32058,13.29366 18.76427,22.03944 29.12229,32.36101l0.12189,-0.16191l3.75892,2.82995c0.9012,0.64977 1.2484,1.86577 0.76861,2.91445c-0.31007,0.67771 -0.89885,1.13976 -1.56832,1.31247l-2.24158,0.59621c-10.66291,7.56566 -16.68105,23.28617 -15.68401,36.29349c0.42692,5.56957 2.80459,10.68842 4.75292,15.91114l0.34754,-0.21742l1.92986,3.08487c0.42588,0.65872 0.51679,1.51423 0.16624,2.2804c-0.54591,1.19317 -1.9557,1.71787 -3.14886,1.17197c-0.18486,-0.08458 -0.35368,-0.18989 -0.50495,-0.31193l-2.27485,-1.75686c-13.8949,-9.58808 -33.55945,-1.86179 -43.96649,9.25767c-1.99907,2.13593 -3.47403,5.05386 -4.89782,7.96171l0.58972,0.22965l-1.71681,4.4086c-0.01857,0.04879 -0.03886,0.09729 -0.0609,0.14545c-0.54591,1.19317 -1.9557,1.71787 -3.14886,1.17197c-0.55816,-0.25538 -0.97005,-0.69981 -1.19448,-1.22268l-0.92124,-2.1217c-6.85116,-9.28598 -17.01635,-23.05099 -29.25379,-24.67459c-6.80465,-0.90281 -13.6821,1.16605 -20.30968,3.0889l0.04734,0.0882l-2.95975,1.58877c-0.6363,0.35015 -1.42443,0.40513 -2.1356,0.07975c-1.03719,-0.47454 -1.56927,-1.60187 -1.33207,-2.67225l0.56097,-2.8146c0.20844,-8.3283 -0.3547,-17.53405 -3.22006,-25.45241c-2.12185,-5.86367 -6.67968,-11.28578 -10.44414,-16.12741c-0.61746,-2.22106 -2.48967,-4.44772 -1.85237,-6.66316c0.43684,-1.51859 2.9039,-1.24959 4.32646,-1.93752c1.27324,-0.61573 2.57934,-1.18843 3.75703,-1.97156c4.55727,-3.03049 10.1345,-7.6864 13.21968,-12.24898c4.76996,-7.05413 5.77603,-15.46595 5.60055,-23.68534c-0.05797,-2.71526 -2.95522,-11.64006 -0.86232,-13.80801c1.12606,-1.16643 3.23663,-0.32288 4.85678,-0.26224c4.76664,0.1784 10.00791,1.79831 14.70965,2.70816c6.40601,-0.09055 12.46457,-0.09424 18.68113,-1.75963c1.87521,-0.50235 4.46368,-0.92088 6.26804,-2.03793c1.24166,-0.7687 2.12596,-2.50005 3.58621,-2.51648c1.24021,-0.01396 6.90592,4.74342 8.22321,5.59724c5.76265,3.73514 15.82049,8.49018 22.79672,5.76584c0,0 1.59723,-0.58397 2.58307,0.58759z" fill="#7d00ff"></path><path d="M267.99338,134.21064c-6.00072,1.68008 -13.89122,-0.59591 -19.24053,-3.3807c-0.50524,-0.26302 -5.27707,-3.35772 -6.21848,-4.01184c-0.62761,-0.43608 -1.32207,-0.80538 -1.84112,-1.3663c-0.29754,-0.32154 -0.1057,-1.29138 -0.5343,-1.20074c-0.56061,0.11855 -0.40314,1.13603 -0.85083,1.49366c-0.73574,0.58771 -1.65855,0.91026 -2.54748,1.22095c-7.24833,2.53339 -14.45113,2.75318 -22.04324,2.8092c-3.61633,-0.66955 -7.23852,-1.24323 -10.848,-1.95517c-0.6318,-0.12462 -1.29775,-0.13845 -1.9161,-0.30554c0.94241,2.29064 0.87886,7.60512 0.8883,7.97941c0.20313,8.0486 -0.97234,16.31755 -5.61728,23.19762c-2.98803,4.42587 -8.32037,9.00862 -12.77164,11.91064c-1.28874,0.84019 -2.62589,1.66639 -4.09032,2.1378c-0.50812,0.16357 -1.54903,-0.8491 -1.56993,-0.31573c-0.03146,0.80299 1.00576,1.25364 1.50864,1.88046c3.50025,4.41667 7.49864,9.37819 9.44998,14.74986c2.6476,7.28837 3.2481,15.61451 3.0974,23.33246c2.88705,-2.1567 9.06645,-2.71601 11.97129,-2.95472c15.68897,-1.28932 26.35922,10.4459 35.03089,22.16344l0.05182,0.02018c0.44818,-4.61104 3.98503,-8.35961 7.21465,-11.63656c8.68424,-8.81151 24.34777,-12.74214 36.19587,-8.21868c-1.14622,-2.707 -1.71017,-6.07199 -2.13597,-8.19282c-2.7325,-13.61021 3.46711,-30.18649 14.54766,-38.49107l-0.40483,-0.30478l0.19905,-0.26441c-3.14247,-1.34641 -5.65025,-4.03157 -8.20325,-6.37706c-7.23173,-6.64392 -14.02543,-14.27611 -18.79775,-22.92768zM269.60348,130.56756c1.17513,-0.00857 1.78905,1.15288 1.78905,1.15288l0.77652,1.46975c6.42295,11.66361 16.46342,19.337 25.55135,28.39295l0.10695,-0.14205l3.29801,2.48294c0.7907,0.57009 1.09532,1.63699 0.67435,2.55708c-0.27205,0.59461 -0.78862,1 -1.37601,1.15153l-1.96672,0.52311c-9.35545,6.63797 -14.63564,20.43085 -13.76086,31.84324c0.37457,4.88664 2.4607,9.37782 4.17012,13.96014l0.30493,-0.19076l1.69322,2.70662c0.37366,0.57796 0.45341,1.32856 0.14585,2.00078c-0.47897,1.04686 -1.7159,1.50723 -2.76276,1.02826c-0.16219,-0.07421 -0.3103,-0.16662 -0.44303,-0.27368l-1.99591,-1.54143c-12.19113,-8.41241 -29.44443,-1.6335 -38.57538,8.12251c-1.75395,1.87401 -3.04805,4.43416 -4.29725,6.98545l0.51741,0.20148l-1.50629,3.86801c-0.0163,0.04281 -0.03409,0.08537 -0.05342,0.12762c-0.47897,1.04686 -1.7159,1.50723 -2.76276,1.02826c-0.48973,-0.22406 -0.85111,-0.614 -1.04801,-1.07274l-0.80828,-1.86154c-6.01108,-8.14734 -14.92983,-20.22451 -25.66672,-21.64903c-5.97028,-0.79211 -12.00442,1.02306 -17.81932,2.71014l0.04154,0.07739l-2.59684,1.39395c-0.55827,0.30722 -1.24976,0.35545 -1.87373,0.06997c-0.91001,-0.41635 -1.37685,-1.40545 -1.16874,-2.34458l0.49218,-2.46947c0.18288,-7.30709 -0.3112,-15.38405 -2.82523,-22.33148c-1.86167,-5.14468 -5.86063,-9.90194 -9.16349,-14.14989c-0.54175,-1.94871 -2.18439,-3.90235 -1.62523,-5.84613c0.38327,-1.33237 2.54783,-1.09636 3.79596,-1.69994c1.11712,-0.54023 2.26306,-1.04271 3.29634,-1.72982c3.99846,-2.65889 8.89182,-6.74391 11.5987,-10.74702c4.18508,-6.18917 5.06779,-13.56954 4.91382,-20.78108c-0.05086,-2.38233 -2.59286,-10.21276 -0.75658,-12.11489c0.98797,-1.0234 2.83976,-0.28329 4.26125,-0.23009c4.18216,0.15653 8.78076,1.57781 12.90598,2.37609c5.62052,-0.07945 10.93617,-0.08269 16.39047,-1.54386c1.64527,-0.44075 3.91635,-0.80796 5.49947,-1.78805c1.08942,-0.67444 1.86527,-2.19349 3.14647,-2.20791c1.08814,-0.01224 6.05912,4.16178 7.21489,4.91091c5.05603,3.27715 13.8806,7.44912 20.00141,5.05884c0,0 1.40139,-0.51236 2.26634,0.51555z" fill="#ffffff"></path><path d="M273.02796,132.36633c-6.18593,1.73195 -14.31997,-0.61431 -19.83439,-3.48505c-0.52083,-0.27114 -5.43994,-3.46136 -6.41041,-4.13565c-0.64697,-0.44954 -1.36287,-0.83024 -1.89794,-1.40847c-0.30672,-0.33147 -0.10896,-1.33124 -0.55079,-1.2378c-0.5779,0.1222 -0.41559,1.17109 -0.87709,1.53976c-0.75844,0.60586 -1.70975,0.93836 -2.62611,1.25865c-7.47205,2.61158 -14.89717,2.83815 -22.7236,2.89589c-3.72795,-0.69022 -7.46194,-1.2816 -11.18282,-2.01551c-0.65131,-0.12846 -1.3378,-0.14272 -1.97524,-0.31497c0.97149,2.36134 0.90599,7.83985 0.91572,8.2257c0.2094,8.29702 -1.00236,16.82118 -5.79065,23.9136c-3.08025,4.56248 -8.57718,9.28666 -13.16584,12.27827c-1.32851,0.86613 -2.70694,1.71783 -4.21657,2.20378c-0.5238,0.16862 -1.59684,-0.87531 -1.61838,-0.32547c-0.03242,0.82777 1.03679,1.29233 1.5552,1.93849c3.60828,4.55299 7.73009,9.66764 9.74165,15.20512c2.72931,7.51332 3.34836,16.09645 3.193,24.05261c2.97616,-2.22326 9.34628,-2.79983 12.34078,-3.04593c16.1732,-1.32911 27.17279,10.76831 36.11211,22.84749l0.05343,0.0208c0.46202,-4.75337 4.10803,-8.61762 7.43732,-11.99572c8.95228,-9.08348 25.09926,-13.13543 37.31304,-8.47235c-1.18159,-2.79056 -1.76295,-6.2594 -2.20189,-8.44569c-2.81683,-14.03028 3.57412,-31.11819 14.99667,-39.67908l-0.41732,-0.31418l0.2052,-0.27257c-3.23946,-1.38796 -5.82464,-4.15601 -8.45645,-6.57388c-7.45494,-6.84898 -14.45832,-14.71674 -19.37793,-23.63533zM274.68774,128.6108c1.2114,-0.00883 1.84427,1.18846 1.84427,1.18846l0.80049,1.51512c6.62119,12.02361 16.97155,19.93383 26.33999,29.26929l0.11024,-0.14643l3.3998,2.55957c0.8151,0.58769 1.12913,1.68753 0.69517,2.63601c-0.28045,0.61296 -0.81296,1.03086 -1.41848,1.18707l-2.02743,0.53925c-9.64419,6.84285 -15.08736,21.06144 -14.18559,32.82607c0.38613,5.03747 2.53664,9.66726 4.29883,14.39101l0.31435,-0.19664l1.74548,2.79014c0.38519,0.5958 0.46742,1.36957 0.15037,2.06253c-0.49375,1.07917 -1.76887,1.55374 -2.84804,1.05999c-0.16719,-0.07649 -0.31988,-0.17176 -0.4567,-0.28213l-2.05751,-1.58901c-12.5674,-8.67206 -30.35323,-1.68391 -39.766,8.37321c-1.80808,1.93186 -3.14213,4.57103 -4.42988,7.20106l0.53337,0.20771l-1.55278,3.98741c-0.01679,0.04412 -0.03515,0.08799 -0.05508,0.13155c-0.49375,1.07917 -1.76886,1.55376 -2.84803,1.06001c-0.50484,-0.23098 -0.87737,-0.63295 -1.08036,-1.10586l-0.83322,-1.91899c-6.1966,-8.39881 -15.39063,-20.84874 -26.45892,-22.31722c-6.15454,-0.81655 -12.37494,1.05463 -18.36932,2.79379l0.04283,0.07978l-2.67698,1.43698c-0.57551,0.3167 -1.28833,0.36642 -1.93156,0.07213c-0.9381,-0.4292 -1.41935,-1.44884 -1.20481,-2.41694l0.50738,-2.5457c0.18852,-7.53262 -0.32082,-15.85887 -2.91243,-23.02073c-1.91913,-5.30347 -6.04151,-10.20756 -9.44632,-14.58663c-0.55847,-2.00886 -2.25182,-4.02279 -1.6754,-6.02657c0.3951,-1.3735 2.62647,-1.1302 3.91312,-1.75241c1.1516,-0.55691 2.33292,-1.0749 3.39809,-1.78321c4.12187,-2.74096 9.16625,-6.95205 11.95668,-11.07873c4.31425,-6.3802 5.2242,-13.98835 5.06549,-21.42247c-0.05243,-2.45585 -2.67288,-10.52797 -0.77993,-12.48881c1.01847,-1.05499 2.92741,-0.29203 4.39277,-0.23718c4.31125,0.16135 9.05177,1.62651 13.3043,2.44943c5.79399,-0.0819 11.27372,-0.08525 16.89636,-1.59152c1.69606,-0.45436 4.03723,-0.83289 5.6692,-1.84324c1.12303,-0.69525 1.92284,-2.2612 3.24358,-2.27606c1.12172,-0.01262 6.24613,4.29023 7.43758,5.06249c5.21209,3.37829 14.30902,7.67903 20.61874,5.21498c0,0 1.44463,-0.52817 2.33629,0.53146z" fill="#be82ff"></path></g><path d="M229.18478,173.20081c0,4.30624 -1.12207,7.79713 -2.50622,7.79713c-1.38415,0 -2.50622,-3.49089 -2.50622,-7.79713c0,-4.30624 1.12207,-7.79713 2.50622,-7.79713c1.38415,0 2.50622,3.49089 2.50622,7.79713z" fill="none" stroke="#000000" stroke-width="1.5" stroke-linecap="butt"></path><path d="M229.74171,199.09843c0,-2.6145 2.11947,-4.73397 4.73397,-4.73397c2.6145,0 4.73397,2.11947 4.73397,4.73397c0,2.6145 -2.11947,4.73397 -4.73397,4.73397c-2.6145,0 -4.73397,-2.11947 -4.73397,-4.73397z" fill="none" stroke="#000000" stroke-width="1.5" stroke-linecap="butt"></path></g></g></svg>