<svg version="1.1" xmlns="http://www.w3.org/2000/svg" xmlns:xlink="http://www.w3.org/1999/xlink" width="168.3392" height="91.3472" viewBox="0,0,168.3392,91.3472"><g transform="translate(-183.68248,-106.50834)"><g data-paper-data="{&quot;isPaintingLayer&quot;:true}" fill-rule="nonzero" stroke-linejoin="miter" stroke-miterlimit="10" stroke-dasharray="" stroke-dashoffset="0" style="mix-blend-mode: normal"><path d="" data-paper-data="{&quot;index&quot;:null}" fill="none" stroke="#000000" stroke-width="1.5" stroke-linecap="round"></path><path d="" data-paper-data="{&quot;index&quot;:null}" fill="none" stroke="#000000" stroke-width="1.5" stroke-linecap="round"></path><path d="" data-paper-data="{&quot;index&quot;:null}" fill="none" stroke="#000000" stroke-width="1.5" stroke-linecap="round"></path><path d="" data-paper-data="{&quot;index&quot;:null}" fill="none" stroke="#000000" stroke-width="1.5" stroke-linecap="round"></path><path d="" data-paper-data="{&quot;index&quot;:null}" fill="none" stroke="#000000" stroke-width="1.5" stroke-linecap="round"></path><path d="" data-paper-data="{&quot;index&quot;:null}" fill="none" stroke="#000000" stroke-width="1.5" stroke-linecap="round"></path><path d="" data-paper-data="{&quot;index&quot;:null}" fill="none" stroke="#000000" stroke-width="1.5" stroke-linecap="round"></path><path d="M196.28324,110.64213c0,2.28303 -1.85076,4.13379 -4.13379,4.13379c-2.28303,0 -4.13379,-1.85076 -4.13379,-4.13379c0,-2.28303 1.85076,-4.13379 4.13379,-4.13379c2.28303,0 4.13379,1.85076 4.13379,4.13379z" fill="none" stroke="none" stroke-width="0" stroke-linecap="butt"></path><path d="M351.54318,172.9445c1.41437,5.13588 -0.41294,10.11831 -4.08143,11.12857c-3.66848,1.01027 -7.78895,-2.3342 -9.20332,-7.47007c-1.41437,-5.13588 0.41294,-10.11831 4.08143,-11.12857c3.66848,-1.01027 7.78895,2.3342 9.20332,7.47007z" fill="none" stroke="none" stroke-width="0" stroke-linecap="butt"></path><path d="M223.42091,197.85554v-11.01185h35.42944v11.01185z" fill="#a3a3a3" stroke="none" stroke-width="0" stroke-linecap="butt"></path><g stroke="none" stroke-width="0" stroke-linecap="butt"><path d="M183.68248,184.92857v-34.95067h112.51242v34.95067z" fill="#8094a6"></path><path d="M202.35476,175.83182v-16.75717h77.08298v16.75717z" fill="#c4e4ff"></path></g><path d="M246.14711,193.11776c0.03525,0.03256 0.07115,0.06501 0.10772,0.09735zM245.55543,192.488c0.48409,0.03523 2.38919,0.3125 2.38919,2.49487c0,2.5 -2.5,2.5 -2.5,2.5l-2.72532,-0.73223c-3.76657,-4.03459 -3.6852,-7.99723 -2.04027,-13.09141c0,0 0.79057,-2.37171 3.16228,-1.58114c2.37171,0.79057 1.58114,3.16228 1.58114,3.16228c-0.92936,2.67795 -1.55344,5.15417 0.13298,7.24764z" fill="#dbdbdb" stroke="none" stroke-width="0.5" stroke-linecap="butt"></path></g></g></svg>