<svg version="1.1" xmlns="http://www.w3.org/2000/svg" xmlns:xlink="http://www.w3.org/1999/xlink" width="172.70164" height="86.23394" viewBox="0,0,172.70164,86.23394"><g transform="translate(-130.19766,-139.01608)"><g data-paper-data="{&quot;isPaintingLayer&quot;:true}" fill-rule="nonzero" stroke-linejoin="miter" stroke-miterlimit="10" stroke-dasharray="" stroke-dashoffset="0" style="mix-blend-mode: normal"><g fill="none" stroke="#000000" stroke-width="2" stroke-linecap="round"><path d="M292.9676,153.59115l5.03839,-3.8933l-3.43527,22.21473"></path><path d="M301.8993,154.50722l-3.43527,-5.72545"></path></g><g fill="none" stroke="#000000" stroke-width="2" stroke-linecap="round"><path d="M288.19662,146.30097l5.03839,-3.8933l-3.43527,22.21473"></path><path d="M297.12832,147.21705l-3.43527,-5.72545"></path></g><g fill="none" stroke="#000000" stroke-width="2" stroke-linecap="round"><path d="M281.5935,148.85856l5.03839,-3.8933l-3.43527,22.21473"></path><path d="M287.08993,144.04917l3.43527,5.72545"></path></g><g fill="none" stroke="#000000" stroke-width="2" stroke-linecap="round"><path d="M275.4484,145.23267l5.0384,-3.8933l-3.43527,22.21473"></path><path d="M280.94484,140.42328l3.43527,5.72545"></path></g><path d="M266.5103,210.82109l9.28975,-50.21898l22.51972,4.16581c0,0 -4.21024,42.86497 -9.28974,50.21898c-5.0795,7.35401 -22.51973,-4.16581 -22.51973,-4.16581z" data-paper-data="{&quot;index&quot;:null}" fill="#9b5b00" stroke="#000000" stroke-width="1" stroke-linecap="butt"></path><path d="M205.5,185.00001c0,-21.81525 17.68475,-39.5 39.5,-39.5c21.81525,0 39.5,17.68475 39.5,39.5c0,21.81525 -17.68475,39.5 -39.5,39.5c-21.81525,0 -39.5,-17.68475 -39.5,-39.5z" fill="#d8d8d8" stroke="#000000" stroke-width="1.5" stroke-linecap="butt"></path><path d="M245.52979,168.64539v8" data-paper-data="{&quot;index&quot;:null}" fill="none" stroke="#000000" stroke-width="1.5" stroke-linecap="round"></path><path d="M229.37963,199.66774l3.99378,-0.26625" fill="none" stroke="#000000" stroke-width="1.5" stroke-linecap="round"></path><path d="" data-paper-data="{&quot;index&quot;:null}" fill="#00c1ff" stroke="none" stroke-width="0.5" stroke-linecap="butt"></path><g data-paper-data="{&quot;index&quot;:null}" stroke-linecap="butt"><path d="M199.79717,149.86511c-0.20786,0.57675 -4.64985,0.94163 -10.41639,1.58503c-2.53314,0.28263 -6.992,-0.68258 -9.41441,0.1618c-2.47572,0.86297 -2.70013,3.34231 -3.45032,5.92064c-0.38239,1.3142 -8.34318,32.53665 -10.85623,43.63857c-0.06223,0.27489 0.15767,-0.68264 0.8317,0.19838c2.3218,3.03477 10.24251,13.28732 10.09203,14.00353c-0.01614,0.07687 -3.89294,0.50185 -8.06272,-0.1256c-2.54145,-0.38242 -7.21221,-1.59685 -11.83864,-4.22099c-5.72252,-3.24585 -11.23876,-8.03153 -10.92347,-8.71569c0.20038,-0.4348 -13.05828,-16.86922 -11.54528,-16.5384c0.05635,0.01232 -1.81936,-4.44699 -2.72286,-9.00987c-0.89627,-4.52632 2.17027,-13.616 2.53352,-13.66955c0.40397,-0.05956 13.42215,-11.59982 14.10333,-11.7209c0.87064,-0.15476 12.76165,-7.61295 11.65667,-5.13656c-0.07898,0.17701 3.25931,0.41642 1.86554,1.6168c-2.1266,1.83151 -10.94444,5.51006 -14.30061,8.28767c-4.5291,3.74831 -8.32299,7.59789 -8.27107,7.81309c0.0347,0.14379 -2.62084,4.21884 -2.57865,4.36873c0.12631,0.44868 -1.05792,2.18105 -0.80881,4.43566c0.41861,3.78874 0.87052,8.50767 0.88499,8.71328c0.08804,1.25117 8.52301,14.68393 8.83135,14.83211c2.45535,1.17991 4.71165,5.81011 9.85352,9.99548c3.91737,3.18866 11.12073,6.29167 11.8983,6.4004c2.89569,0.40493 4.77138,-0.68955 4.43601,-1.10872c-3.24994,-4.06203 -6.91431,-5.8587 -6.91384,-5.78907c-1.06891,0.00797 -2.3775,-1.77524 -2.50935,-3.10399c-0.28284,-2.85013 3.7826,-15.71943 5.77951,-21.64136c0.91512,-2.71383 2.95142,-13.56589 5.19069,-21.62725c1.45984,-5.25541 3.58066,-9.20585 3.5552,-9.35141c-0.54576,-0.65896 13.90386,-0.46473 14.21497,-1.32794c0.14815,-0.41108 -4.93283,-3.70435 -10.46837,-4.12387c-7.04158,-0.53366 -15.98524,1.11174 -18.3528,3.02997c-1.06564,0.8634 -3.27713,-1.56095 -2.91221,-1.42944c0.21128,0.07615 13.35584,-3.42036 13.53182,-3.29792c1.17522,-0.03812 7.62083,-0.94869 13.7101,0.25539c7.14816,1.41346 13.95407,5.0802 13.37677,6.68194z" fill="#00c1ff" stroke="none" stroke-width="0.5"></path><g fill="none" stroke="#000000" stroke-width="1.5"><path d="M175.67782,215.62411c-23.02619,3.54376 -49.64073,-31.95039 -43.95241,-47.73311c5.68832,-15.78272 41.60081,-33.77068 63.90927,-21.9671c15.78441,8.35167 -14.79814,3.66721 -16.64086,6.72273c-3.95074,6.55097 -8.5747,30.92113 -12.81,45.87922c-1.34055,4.73448 15.02996,16.24624 9.49401,17.09824z"></path><path d="M143.5039,193.82168c-7.76058,-9.01066 -8.01646,-22.40755 -7.92585,-22.65894c5.1865,-14.39036 33.977,-33.91456 54.55535,-23.06652c3.84533,2.0271 -12.61443,0.02764 -13.85574,2.07607c-3.61643,5.96791 -10.1539,38.67217 -14.00521,52.31438c-1.21899,4.31799 13.94329,9.2389 8.84889,9.99884c0,0 -3.75446,0.74897 -7.89168,-1.52438c-6.33651,-3.48185 -14.60252,-11.19096 -19.72576,-17.13947z"></path></g></g><path d="M237.84003,177.16665v-8" data-paper-data="{&quot;index&quot;:null}" fill="none" stroke="#000000" stroke-width="1.5" stroke-linecap="round"></path><path d="M160.40548,179.1148c-0.54317,-4.90922 2.99621,-9.32927 7.90543,-9.87244c4.90922,-0.54317 9.32927,2.99621 9.87244,7.90543c0.54317,4.90922 -2.99621,9.32927 -7.90543,9.87244c-4.90922,0.54317 -9.32927,-2.99621 -9.87244,-7.90543z" fill="#d8d8d8" stroke="#000000" stroke-width="1" stroke-linecap="butt"></path></g></g></svg>