<svg version="1.1" xmlns="http://www.w3.org/2000/svg" xmlns:xlink="http://www.w3.org/1999/xlink" width="92.53615" height="152.27575" viewBox="0,0,92.53615,152.27575"><g transform="translate(-197.38778,-114.9285)"><g data-paper-data="{&quot;isPaintingLayer&quot;:true}" fill-rule="nonzero" stroke-linejoin="miter" stroke-miterlimit="10" stroke-dasharray="" stroke-dashoffset="0" style="mix-blend-mode: normal"><path d="" data-paper-data="{&quot;index&quot;:null}" fill="none" stroke="#000000" stroke-width="1.5" stroke-linecap="round"></path><path d="" data-paper-data="{&quot;index&quot;:null}" fill="none" stroke="#000000" stroke-width="1.5" stroke-linecap="round"></path><path d="" data-paper-data="{&quot;index&quot;:null}" fill="none" stroke="#000000" stroke-width="1.5" stroke-linecap="round"></path><path d="" data-paper-data="{&quot;index&quot;:null}" fill="none" stroke="#000000" stroke-width="1.5" stroke-linecap="round"></path><path d="" data-paper-data="{&quot;index&quot;:null}" fill="none" stroke="#000000" stroke-width="1.5" stroke-linecap="round"></path><path d="" data-paper-data="{&quot;index&quot;:null}" fill="none" stroke="#000000" stroke-width="1.5" stroke-linecap="round"></path><path d="" data-paper-data="{&quot;index&quot;:null}" fill="none" stroke="#000000" stroke-width="1.5" stroke-linecap="round"></path><path d="" data-paper-data="{&quot;index&quot;:null}" fill="none" stroke="#000000" stroke-width="1.5" stroke-linecap="round"></path><path d="" data-paper-data="{&quot;index&quot;:null}" fill="none" stroke="#000000" stroke-width="1.5" stroke-linecap="round"></path><path d="" data-paper-data="{&quot;index&quot;:null}" fill="none" stroke="#000000" stroke-width="1.5" stroke-linecap="round"></path><path d="" data-paper-data="{&quot;index&quot;:null}" fill="none" stroke="#000000" stroke-width="1.5" stroke-linecap="round"></path><path d="" data-paper-data="{&quot;index&quot;:null}" fill="none" stroke="#000000" stroke-width="1.5" stroke-linecap="round"></path><path d="" data-paper-data="{&quot;index&quot;:null}" fill="none" stroke="#000000" stroke-width="1.5" stroke-linecap="round"></path><path d="" data-paper-data="{&quot;index&quot;:null}" fill="none" stroke="#000000" stroke-width="1.5" stroke-linecap="round"></path><path d="" data-paper-data="{&quot;index&quot;:null}" fill="none" stroke="#000000" stroke-width="1.5" stroke-linecap="round"></path><path d="" data-paper-data="{&quot;index&quot;:null}" fill="none" stroke="#000000" stroke-width="1.5" stroke-linecap="round"></path><path d="" data-paper-data="{&quot;index&quot;:null}" fill="none" stroke="#000000" stroke-width="1.5" stroke-linecap="round"></path><path d="" data-paper-data="{&quot;index&quot;:null}" fill="none" stroke="#000000" stroke-width="1.5" stroke-linecap="round"></path><path d="" data-paper-data="{&quot;index&quot;:null}" fill="none" stroke="#000000" stroke-width="1.5" stroke-linecap="round"></path><path d="" data-paper-data="{&quot;index&quot;:null}" fill="none" stroke="#000000" stroke-width="1.5" stroke-linecap="round"></path><path d="" data-paper-data="{&quot;index&quot;:null}" fill="none" stroke="#000000" stroke-width="1.5" stroke-linecap="round"></path><path d="" data-paper-data="{&quot;index&quot;:null}" fill="none" stroke="#000000" stroke-width="1.5" stroke-linecap="round"></path><path d="" data-paper-data="{&quot;index&quot;:null}" fill="none" stroke="#000000" stroke-width="1.5" stroke-linecap="round"></path><path d="" data-paper-data="{&quot;index&quot;:null}" fill="none" stroke="#000000" stroke-width="1.5" stroke-linecap="round"></path><path d="" data-paper-data="{&quot;index&quot;:null}" fill="none" stroke="#000000" stroke-width="1.5" stroke-linecap="round"></path><path d="" data-paper-data="{&quot;index&quot;:null}" fill="none" stroke="#000000" stroke-width="1.5" stroke-linecap="round"></path><path d="" data-paper-data="{&quot;index&quot;:null}" fill="none" stroke="#000000" stroke-width="1.5" stroke-linecap="round"></path><path d="" data-paper-data="{&quot;index&quot;:null}" fill="none" stroke="#000000" stroke-width="1.5" stroke-linecap="round"></path><path d="" data-paper-data="{&quot;index&quot;:null}" fill="none" stroke="#000000" stroke-width="1.5" stroke-linecap="round"></path><path d="M289.92393,195.47556" data-paper-data="{&quot;index&quot;:null}" fill="none" stroke="#d8d8d8" stroke-width="4" stroke-linecap="round"></path><path d="M241.2009,220.12072c-21.81525,0 -39.5,-17.68475 -39.5,-39.5c0,-21.81525 17.68475,-39.5 39.5,-39.5c21.81525,0 39.5,17.68475 39.5,39.5c0,21.81525 -17.68475,39.5 -39.5,39.5z" fill="#d8d8d8" stroke="#000000" stroke-width="1.5" stroke-linecap="butt"></path><path d="M199.61016,202.60873l5.1607,-52.02738l28.16952,-13.61953l18.68386,1.07168l23.77312,16.30955l-5.20888,64.49215l-29.29273,-11.54979l-1.57083,-23.98624l-4.72033,-3.15354l-5.54343,2.17009l-2.19835,22.22578l-28.30274,6.28514z" fill="#c3c3c3" stroke="#000000" stroke-width="2" stroke-linecap="round"></path><path d="M203.88764,171.36797l0.86616,-11.36833l26.09735,5.64735l-0.93545,12.2778z" fill="#c20000" stroke="none" stroke-width="0" stroke-linecap="butt"></path><path d="M238.71923,180.02776l0.91822,-12.2791l26.64938,-1.66578l-0.8502,11.36953z" data-paper-data="{&quot;index&quot;:null}" fill="#c20000" stroke="none" stroke-width="0" stroke-linecap="butt"></path><g stroke="#000000" stroke-linecap="butt"><path d="M253.68192,183.25686c0,0 2.68321,2.44033 4.56808,2.23938c1.10622,-0.11793 -0.27008,8.69329 1.85199,9.11005c4.99692,0.98136 14.50207,-5.6988 14.50207,-5.6988l0.87072,8.16748c0,0 -16.46424,6.11483 -24.56807,0.97647c-1.56625,-0.99311 0.44103,-11.0241 0.44103,-11.0241z" data-paper-data="{&quot;index&quot;:null}" fill="#a7a7a7" stroke-width="0"></path><path d="M276.1361,205.66324c0,0 -2.4077,-7.30139 -4.21533,-7.1087c-2.79332,0.29779 -10.96519,1.16897 -14.3521,1.53004c0.37894,-1.25889 0.51435,-2.61367 0.35719,-4.00277c-0.17032,-1.50545 -0.66658,-2.89483 -1.41043,-4.10571c3.91298,-1.26203 15.84652,-4.58171 22.28213,-0.5011c1.50206,0.9524 -0.42295,10.57229 -0.42295,10.57229l-2.23852,3.61595z" fill="#919191" stroke-width="1"></path><path d="M258.8077,199.03467l-38.88206,3.23608c0,0 -2.94031,-0.292 -3.04915,-1.25403c-0.12232,-1.08123 2.33991,-2.44518 2.33991,-2.44518l38.89306,-5.7085z" fill="#d2d2d2" stroke-width="0.5"></path></g><path d="M272.16287,139.10377c0,5.84344 -13.24217,10.58048 -29.57722,10.58048c-16.33505,0 -29.57722,-4.73704 -29.57722,-10.58048c0,-5.84343 13.24218,-10.58047 29.57723,-10.58047c16.33505,0 29.57722,4.73703 29.57722,10.58047z" fill="none" stroke="#5eff00" stroke-width="6.5" stroke-linecap="butt"></path><g stroke="#5eff00"><g><path d="M240.05255,156.82274v-5.70945h2.75628v5.70945z" fill="none" stroke-width="4" stroke-linecap="butt"></path><path d="M247.09643,156.91024l-4.80905,5.03229l-5.6317,-5.1893z" fill="#5eff00" stroke-width="2" stroke-linecap="round"></path></g><g><path d="M261.80519,154.16716l-1.97729,-5.35613l2.58572,-0.95456l1.97729,5.35613z" fill="none" stroke-width="4" stroke-linecap="butt"></path><path d="M268.44349,151.80981l-2.76867,6.38635l-7.08035,-2.91781z" fill="#5eff00" stroke-width="2" stroke-linecap="round"></path></g><g><path d="M279.42368,141.16664l-5.68062,-0.57297l0.27661,-2.74238l5.68062,0.57297z" fill="none" stroke-width="4" stroke-linecap="butt"></path><path d="M280.21763,134.1671l4.52427,5.28979l-5.72828,5.08249z" fill="#5eff00" stroke-width="2" stroke-linecap="round"></path></g><g data-paper-data="{&quot;index&quot;:null}"><path d="M243.47753,121.44911v5.70945h-2.75628v-5.70945z" fill="none" stroke-width="4" stroke-linecap="butt"></path><path d="M237.32438,121.51862l5.6317,-5.1893l4.80905,5.03229z" fill="#5eff00" stroke-width="2" stroke-linecap="round"></path></g><g data-paper-data="{&quot;index&quot;:null}"><path d="M265.05962,125.05924l-1.97729,5.35613l-2.58572,-0.95456l1.97729,-5.35612z" fill="none" stroke-width="4" stroke-linecap="butt"></path><path d="M259.26317,122.9935l7.08034,-2.91781l2.76868,6.38634z" fill="#5eff00" stroke-width="2" stroke-linecap="round"></path></g><g data-paper-data="{&quot;index&quot;:null}"><path d="M219.76343,153.29067l1.97729,-5.35613l2.58572,0.95456l-1.97729,5.35613z" fill="none" stroke-width="4" stroke-linecap="butt"></path><path d="M225.55987,155.35641l-7.08034,2.91781l-2.76868,-6.38635z" fill="#5eff00" stroke-width="2" stroke-linecap="round"></path></g><g data-paper-data="{&quot;index&quot;:null}"><path d="M204.45405,138.50233l5.68062,-0.57297l0.27661,2.74238l-5.68062,0.57297z" fill="none" stroke-width="4" stroke-linecap="butt"></path><path d="M205.14071,144.61744l-5.72828,-5.08249l4.52427,-5.28979z" fill="#5eff00" stroke-width="2" stroke-linecap="round"></path></g><g data-paper-data="{&quot;index&quot;:null}"><path d="M221.68045,124.18275l1.97729,5.35613l-2.58572,0.95455l-1.97729,-5.35612z" fill="none" stroke-width="4" stroke-linecap="butt"></path><path d="M215.04216,126.5401l2.76868,-6.38635l7.08034,2.91781z" fill="#5eff00" stroke-width="2" stroke-linecap="round"></path></g></g><text transform="translate(215.72536,233.62399) scale(0.37642,0.37642)" font-size="40" xml:space="preserve" fill="#000000" fill-rule="nonzero" stroke="none" stroke-width="1" stroke-linecap="butt" stroke-linejoin="miter" stroke-miterlimit="10" stroke-dasharray="" stroke-dashoffset="0" font-family="Sans Serif" font-weight="normal" text-anchor="start" style="mix-blend-mode: normal"><tspan x="0" dy="0">Crusader</tspan></text><text transform="translate(213.82429,245.7433) scale(0.20478,0.20478)" font-size="40" xml:space="preserve" fill="#000000" fill-rule="nonzero" stroke="none" stroke-width="1" stroke-linecap="butt" stroke-linejoin="miter" stroke-miterlimit="10" stroke-dasharray="" stroke-dashoffset="0" font-family="Sans Serif" font-weight="normal" text-anchor="start" style="mix-blend-mode: normal"><tspan x="0" dy="0">- Revive</tspan><tspan x="0" dy="46.150000000000006px">- Move-Stacking</tspan><tspan x="0" dy="46.150000000000006px">- "Balanced"</tspan></text></g></g></svg>