<svg version="1.1" xmlns="http://www.w3.org/2000/svg" xmlns:xlink="http://www.w3.org/1999/xlink" width="76.27032" height="123.39712" viewBox="0,0,76.27032,123.39712"><g transform="translate(-439.37771,-54.36934)"><g data-paper-data="{&quot;isPaintingLayer&quot;:true}" fill="#9bff66" fill-rule="nonzero" stroke="none" stroke-width="0.5" stroke-linecap="butt" stroke-linejoin="miter" stroke-miterlimit="10" stroke-dasharray="" stroke-dashoffset="0" style="mix-blend-mode: normal"><path d="M481.18084,54.41499c2.46642,-0.40838 2.8748,2.05804 2.8748,2.05804l0.29657,1.99668c0,2.92268 0.15059,5.90102 -0.00137,8.81827c-0.08273,1.58821 0.27642,3.32121 -0.41599,4.75293c-0.76294,1.57757 -1.94612,3.59583 -3.69238,3.74215c-1.75477,0.14703 -2.91455,-1.98224 -4.2972,-3.0727c-0.00671,-0.00529 -0.01361,-0.01119 -0.02066,-0.01764c1.46769,2.77571 2.00731,8.89795 1.28181,11.39754c-0.49509,1.70574 -1.2839,4.19479 -3.05157,4.36806c-0.91509,0.0897 -2.02622,-0.52289 -3.14042,-1.50066c0.43164,1.84715 0.89056,3.686 1.40734,5.50411c0.33874,1.19172 2.75174,8.26233 2.90371,9.30409c0.3392,2.32524 1.69257,5.17853 0.26443,7.04461c-1.03553,1.35308 -7.98734,-1.73488 -9.07913,-2.13444c-4.51821,-1.65353 -10.27394,-4.68525 -15.03744,-5.2367c-1.07735,-0.12472 -2.18486,0.05082 -3.26955,0.04597c8.37588,8.22823 17.40619,16.39275 26.78891,23.31686c2.49758,1.84312 4.95787,3.79946 7.73689,5.18221c0.70882,0.35269 1.57422,0.73282 2.32551,0.48307c1.90703,-0.63395 2.80612,-2.87805 4.1752,-4.34921c2.03747,-2.18939 4.04739,-4.40985 5.9241,-6.73851c1.10708,-1.3737 1.66936,-3.29753 3.1543,-4.25024c0.13907,-0.08922 0.28042,-0.1737 0.42382,-0.25388l-0.02641,-0.04373l3.91002,-2.36142c0.38462,-0.24143 0.83964,-0.38103 1.32727,-0.38103c1.38071,0 2.5,1.11929 2.5,2.5c0,0.3598 -0.07601,0.70185 -0.21284,1.01096l-1.37778,3.31581l-0.00736,-0.00306l-0.00333,0.02838c-2.59738,5.87088 -5.78133,11.47232 -8.93779,17.06756c-0.57082,1.01185 -0.99741,2.11418 -1.50624,3.16234c1.36217,-0.97621 4.06226,-2.68658 4.92139,-3.31057c2.58245,-1.87566 5.04376,-3.98387 7.51433,-6.00196c0.75704,-0.61839 1.29096,-1.58843 2.20607,-1.93205c0.07107,-0.02669 0.1424,-0.05246 0.21397,-0.07737l-0.02811,-0.04654l2.59506,-1.56725c0.38462,-0.24142 0.83964,-0.38103 1.32726,-0.38103c1.38071,0 2.5,1.11929 2.5,2.5c0,0.64798 -0.24652,1.23838 -0.6509,1.68253l-2.5689,2.84434c-6.4188,8.49712 -11.85738,17.63065 -18.02377,26.31206c-4.18414,5.89069 -8.77278,11.44844 -12.85474,17.42577c0,0 -1.41002,2.06442 -3.47444,0.6544c-2.06442,-1.41002 -0.6544,-3.47444 -0.6544,-3.47444c4.1036,-6.0072 8.71401,-11.59562 12.91835,-17.51672c3.4217,-4.81889 6.62372,-9.77187 9.89119,-14.67993c-1.27146,0.92059 -2.57479,1.74381 -3.91058,2.37678c-1.67334,0.79292 -3.75768,2.77623 -5.281,1.72346c-1.98119,-1.36921 -2.28241,-4.47905 -2.18828,-6.8855c0.07606,-1.9445 1.75424,-3.47441 2.66084,-5.1963c1.17432,-2.23037 2.40268,-4.42205 3.61641,-6.61828c-2.12576,2.56827 -5.80164,7.51485 -8.58879,8.23936c-5.22425,1.35802 -10.7379,-3.62932 -14.51525,-6.41688c-10.6068,-7.82744 -20.77081,-17.20031 -30.07564,-26.50075l-0.00206,-0.00401l-0.00097,0.00097l-1.84051,-1.8526c-0.44926,-0.45198 -0.72688,-1.07477 -0.72688,-1.76239c0,-1.38071 1.11929,-2.5 2.5,-2.5c0.02572,0 0.05134,0.00039 0.07687,0.00116l4.98758,0.13212c5.92943,-0.56665 11.09413,2.0832 16.53261,3.97606c0.10718,0.0373 4.3246,1.48628 6.88048,2.43722c-0.75092,-1.71692 -1.11159,-3.84807 -1.27799,-4.38075c-1.97801,-6.33183 -3.44028,-12.72849 -4.92638,-19.19238l-0.99657,-3.57033c-0.06991,-0.2302 -0.10751,-0.47447 -0.10751,-0.72752c0,-1.38071 1.11929,-2.5 2.5,-2.5c0.69354,0 1.32112,0.28241 1.77402,0.73851l2.10346,2.11724l-0.04533,0.04504c0.10387,0.08353 0.20536,0.17045 0.3042,0.26114c1.09107,1.00109 1.30424,2.65953 2.00336,3.96484c0.05979,0.11163 0.22579,0.3527 0.43141,0.66834c0.0053,-0.45593 0.00331,-0.91124 -0.03618,-1.36189c-0.10855,-1.23876 -1.44862,-8.98146 -0.22245,-10.12559c3.82331,-3.56752 5.82075,-1.09022 7.35392,1.24219c-0.04364,-0.93252 0.12417,-1.87299 0.14036,-2.80921c0.04983,-2.88186 -0.00137,-5.77052 -0.00137,-8.65297l-0.2294,-1.17991c0,0 -0.40838,-2.46642 2.05804,-2.8748z"/></g></g></svg>