<svg version="1.1" xmlns="http://www.w3.org/2000/svg" xmlns:xlink="http://www.w3.org/1999/xlink" width="109.98076" height="102.88979" viewBox="0,0,109.98076,102.88979"><defs><radialGradient cx="480" cy="180.00001" r="39.25" gradientUnits="userSpaceOnUse" id="color-1"><stop offset="0" stop-color="#ebebeb"/><stop offset="1" stop-color="#dbdbdb"/></radialGradient></defs><g transform="translate(-425.1895,-136.26115)"><g stroke-miterlimit="10"><path d="M425.1895,220.22365c0,-10.45325 8.7246,-18.9273 19.48696,-18.9273c10.76236,0 19.487,8.47405 19.487,18.9273c0,10.45325 -8.72465,18.92729 -19.487,18.92729c-10.76237,0 -19.48696,-8.47405 -19.48696,-18.92729z" fill="#a3a3a3" stroke="none" stroke-width="0" stroke-linecap="butt"/><path d="" fill="none" stroke="#000000" stroke-width="1.5" stroke-linecap="round"/><path d="M453.86888,209.28697c-16.17475,-14.43182 -17.58765,-39.24334 -3.15583,-55.4181c14.43182,-16.17475 39.24334,-17.58765 55.4181,-3.15583c16.17475,14.43182 17.58765,39.24334 3.15583,55.4181c-14.43182,16.17475 -39.24334,17.58765 -55.4181,3.15583z" fill="url(#color-1)" stroke="#ffffff" stroke-width="2.5" stroke-linecap="butt"/><path d="M469.41339,171.51593c4.80577,5.3341 7.12163,11.08173 5.17264,12.83769c-1.94902,1.75595 -7.42483,-1.14472 -12.23058,-6.47881c-4.80577,-5.3341 -7.12163,-11.08173 -5.17264,-12.83769c1.94902,-1.75595 7.42483,1.14472 12.23058,6.47881z" fill="#ffffff" stroke="#000000" stroke-width="1.5" stroke-linecap="butt"/><path d="M481.65636,160.1544c4.80577,5.3341 7.12165,11.08174 5.17264,12.8377c-1.94902,1.75595 -7.42483,-1.14472 -12.23059,-6.47881c-4.80577,-5.3341 -7.12165,-11.08173 -5.17265,-12.83769c1.94902,-1.75595 7.42483,1.14471 12.23059,6.4788z" fill="#ffffff" stroke="#000000" stroke-width="1.5" stroke-linecap="butt"/><path d="M495.70457,155.42728c0,-10.58514 8.83468,-19.16612 19.73283,-19.16612c10.89815,0 19.73286,8.58097 19.73286,19.16612c0,10.58514 -8.83472,19.16609 -19.73286,19.16609c-10.89816,0 -19.73283,-8.58096 -19.73283,-19.16609z" fill="#a3a3a3" stroke="none" stroke-width="0" stroke-linecap="butt"/></g></g></svg>