<svg version="1.1" xmlns="http://www.w3.org/2000/svg" xmlns:xlink="http://www.w3.org/1999/xlink" width="99.75351" height="80.5" viewBox="0,0,99.75351,80.5"><g transform="translate(-200.49168,-140.44476)"><g data-paper-data="{&quot;isPaintingLayer&quot;:true}" fill-rule="nonzero" stroke-linejoin="miter" stroke-miterlimit="10" stroke-dasharray="" stroke-dashoffset="0" style="mix-blend-mode: normal"><path d="" data-paper-data="{&quot;index&quot;:null}" fill="none" stroke="#000000" stroke-width="1.5" stroke-linecap="round"></path><path d="" data-paper-data="{&quot;index&quot;:null}" fill="none" stroke="#000000" stroke-width="1.5" stroke-linecap="round"></path><path d="M220.49519,180.69476c0,-21.81525 17.68475,-39.5 39.5,-39.5c21.81525,0 39.5,17.68475 39.5,39.5c0,21.81525 -17.68475,39.5 -39.5,39.5c-21.81525,0 -39.5,-17.68475 -39.5,-39.5z" fill="#d8d8d8" stroke="#000000" stroke-width="1.5" stroke-linecap="butt"></path><path d="M246.51675,197.3165c5.44898,-2.88817 27.57511,5.13694 27.57511,5.13694" data-paper-data="{&quot;index&quot;:null}" fill="none" stroke="#000000" stroke-width="1.5" stroke-linecap="round"></path><path d="M246.31865,168.12134l6.99536,1.82343v8" fill="none" stroke="#000000" stroke-width="1.5" stroke-linecap="round"></path><path d="M258.87633,178.50558l-0.24149,-8.93527l7.00332,-2.17344" fill="none" stroke="#000000" stroke-width="1.5" stroke-linecap="round"></path><path d="M259.60082,188.64832l16.42158,-6.52033" fill="none" stroke="#000000" stroke-width="1.5" stroke-linecap="round"></path><path d="M265.63817,188.16533l-2.89793,-5.55436" fill="none" stroke="#000000" stroke-width="1.5" stroke-linecap="round"></path><path d="M267.32862,180.43753l3.8639,7.7278" fill="none" stroke="#000000" stroke-width="1.5" stroke-linecap="round"></path><g><path d="M224.99775,193.01013l-8.89379,6.5144l-13.61697,-3.58647l13.17324,-7.31454z" data-paper-data="{&quot;index&quot;:null}" fill="#c6c6c6" stroke="#c6c6c6" stroke-width="1.5" stroke-linecap="round"></path><path d="M265.27231,176.29941" fill="none" stroke="#d8d8d8" stroke-width="4" stroke-linecap="round"></path><path d="M291.32802,187.30817l-55.98774,6.89262l-0.47533,-3.86122l55.98774,-6.89262z" fill="#7f7600" stroke="#000000" stroke-width="0" stroke-linecap="butt"></path><path d="M223.30565,194.4231c-2.11812,-1.11153 -1.05527,-3.2932 -1.05527,-3.2932l2.10366,-3.10923c2.76368,-1.34116 5.74936,-1.91781 8.39897,-3.45352c1.09822,-0.63652 1.96642,-2.07787 3.23398,-2.01069c1.95021,0.10334 4.51673,0.68175 5.31564,2.46381c0.6598,1.47176 -1.88522,2.69742 -2.30351,4.2551c-0.22029,0.82037 0.71298,1.68143 0.48934,2.50088c-0.16774,0.61463 -1.60113,0.56057 -1.49646,1.18902c0.16166,0.97043 2.34978,1.18834 2.04841,2.12488c-2.03097,6.31107 -10.54149,3.72581 -14.92005,2.97823c0,0 -2.46424,-0.42132 -2.0429,-2.88555c0.04992,-0.2919 0.12848,-0.54331 0.22821,-0.75973z" fill="#ff0000" stroke="none" stroke-width="0.5" stroke-linecap="butt"></path></g></g></g></svg>