<svg version="1.1" xmlns="http://www.w3.org/2000/svg" xmlns:xlink="http://www.w3.org/1999/xlink" width="324.46929" height="80.5" viewBox="0,0,324.46929,80.5"><defs><radialGradient cx="258.1179" cy="197.93814" r="4.2254" gradientUnits="userSpaceOnUse" id="color-1"><stop offset="0" stop-color="#fbc410"></stop><stop offset="1" stop-color="#fbc410" stop-opacity="0"></stop></radialGradient><radialGradient cx="294.71474" cy="198.14544" r="37.98" gradientUnits="userSpaceOnUse" id="color-2"><stop offset="0" stop-color="#fffbe2"></stop><stop offset="1" stop-color="#fffbe2" stop-opacity="0"></stop></radialGradient></defs><g transform="translate(-203.7385,-143.16295)"><g data-paper-data="{&quot;isPaintingLayer&quot;:true}" fill-rule="nonzero" stroke-linejoin="miter" stroke-miterlimit="10" stroke-dasharray="" stroke-dashoffset="0" style="mix-blend-mode: normal"><path d="M243.9885,222.91295c-21.81525,0 -39.5,-17.68475 -39.5,-39.5c0,-21.81525 17.68475,-39.5 39.5,-39.5c21.81525,0 39.5,17.68475 39.5,39.5c0,21.81525 -17.68475,39.5 -39.5,39.5z" data-paper-data="{&quot;index&quot;:null}" fill="#000000" stroke="#000000" stroke-width="1.5" stroke-linecap="butt"></path><g data-paper-data="{&quot;index&quot;:null}" stroke="none" stroke-width="0" stroke-linecap="butt"><path d="M264.39843,171.17385c7.20611,-1.90299 14.36046,1.52494 14.36046,1.52494c0,0 -4.52908,6.51328 -11.73519,8.41626c-7.20611,1.90299 -14.36046,-1.52494 -14.36046,-1.52494c0,0 4.52908,-6.51328 11.73519,-8.41626z" fill="#ffffff"></path><path d="M267.64501,180.95097c-2.74519,0.72495 -5.55829,-0.91279 -6.28323,-3.65797c-0.72495,-2.74519 0.91279,-5.55829 3.65797,-6.28323c2.74519,-0.72495 5.55829,0.91279 6.28323,3.65797c0.72495,2.74519 -0.91279,5.55829 -3.65797,6.28323z" fill="#000000"></path></g><g data-paper-data="{&quot;index&quot;:null}" stroke="none" stroke-width="0" stroke-linecap="butt"><path d="M236.40832,170.80653c7.18201,1.99204 11.63011,8.56088 11.63011,8.56088c0,0 -7.19623,3.3391 -14.37823,1.34706c-7.18201,-1.99204 -11.63011,-8.56088 -11.63011,-8.56088c0,0 7.19623,-3.3391 14.37823,-1.34706z" fill="#ffffff"></path><path d="M234.27945,180.88623c-2.73601,-0.75887 -4.33878,-3.59204 -3.57991,-6.32803c0.75887,-2.736 3.59204,-4.33878 6.32803,-3.57991c2.73601,0.75887 4.33878,3.59204 3.57991,6.32803c-0.75887,2.73601 -3.59204,4.33878 -6.32803,3.57991z" fill="#000000"></path></g><g data-paper-data="{&quot;index&quot;:null}"><path d="M253.6593,197.55747c0.1256,-1.4049 2.23284,-2.36446 4.70665,-2.14329c2.47383,0.22119 4.37743,1.53937 4.25181,2.94424c-0.1256,1.4049 -2.23284,2.36446 -4.70665,2.14329c-2.4738,-0.22118 -4.3774,-1.53936 -4.25178,-2.94423z" fill="#fbc410" stroke="none" stroke-width="0" stroke-linecap="butt"></path><path d="M258.34532,195.39436c2.4738,0.22118 4.3774,1.53936 4.25178,2.94423c-0.1256,1.4049 -2.23284,2.36446 -4.70665,2.14329c-2.4738,-0.22118 -4.3774,-1.53936 -4.25178,-2.94423c0.1256,-1.4049 2.23284,-2.36446 4.70665,-2.14329z" fill="none" stroke="url(#color-1)" stroke-width="2.5" stroke-linecap="butt"></path><path d="M317.87902,193.4761c0,0 1.74145,-0.94365 3.40338,-0.93708c1.25402,0.00495 2.44771,0.92028 2.89881,1.10727c1.0489,0.4348 -1.75805,-0.05189 -2.25332,0.57777c-0.49525,0.62965 1.16494,0.94804 0.11599,0.51324c-0.63837,-0.26461 -2.3182,-0.3235 -3.31945,-0.60364c-0.64397,-0.18016 -0.84541,-0.65759 -0.84541,-0.65759z" fill="#43282c" stroke="none" stroke-width="0" stroke-linecap="butt"></path><path d="M317.85247,194.62798c0,0 1.53829,-1.00049 3.24561,-1.25412c0.9468,-0.14067 2.20188,0.25598 2.66516,0.44802c1.29868,0.53834 -0.43089,1.15782 -0.98329,1.86013c-0.55238,0.70233 1.36739,0.85756 0.06871,0.31923c-0.54961,-0.22782 -1.03828,0.39235 -4.3452,-0.71797c-1.24524,-0.41811 -0.65098,-0.65527 -0.65098,-0.65527z" fill="#885058" stroke="none" stroke-width="0" stroke-linecap="butt"></path><path d="M317.37328,203.47115c0,0 1.85779,-0.12938 3.38546,-0.29529c1.09398,-0.11882 1.85921,-0.35082 2.38724,-0.13194c1.26538,0.52447 1.35841,0.50918 0.92984,1.0541c-0.42855,0.54493 -3.24091,1.0697 -4.50626,0.54518c-2.2301,-0.92441 -2.19626,-1.17207 -2.19626,-1.17207z" fill="#43282c" stroke="none" stroke-width="0" stroke-linecap="butt"></path><path d="M321.32819,200.88236c0.63269,-0.80443 2.16723,-0.39343 3.44927,0.138c1.28205,0.53144 -0.08647,0.77071 -0.71915,1.57512c-0.63268,0.80444 -1.86624,1.33224 -3.14828,0.80081c-0.71624,-0.29691 -3.4022,-0.80798 -3.57639,-1.3044c-0.07148,-0.20369 0.7356,-0.68284 1.75733,-0.89951c0.9454,-0.20052 2.10305,-0.13943 2.23724,-0.31003z" fill="#885058" stroke="none" stroke-width="0" stroke-linecap="butt"></path><path d="M323.60474,199.51267c1.5238,-1.93742 4.35455,-1.45117 7.4181,-0.18129c3.06353,1.26989 9.16448,0.24126 7.64067,2.17869c-1.5238,1.93742 -14.32456,4.47044 -17.38811,3.20056c-3.06353,-1.26988 0.80551,-3.26052 2.32932,-5.19795z" fill="#959ba2" stroke="none" stroke-width="0" stroke-linecap="butt"></path><path d="M321.70137,194.38243c0.17464,-1.05181 2.40119,-1.5315 4.68633,-1.33375c2.28515,0.19778 3.99609,1.21075 3.82148,2.26257c-0.17463,1.05183 -2.16869,1.74417 -4.45383,1.54642c-1.44078,-0.12469 -2.88369,-0.48258 -3.60756,-1.12331c-0.42422,-0.37547 -0.51094,-0.96328 -0.4464,-1.35192z" fill="#959ba2" stroke="none" stroke-width="0" stroke-linecap="butt"></path><path d="M334.52427,193.45637l5.56417,2.48087" fill="none" stroke="#171c22" stroke-width="1" stroke-linecap="round"></path><path d="M324.85026,191.42331c0,0 5.57308,0.03427 7.94763,0.60412c2.40036,0.57603 7.51486,3.42131 7.51486,3.42131" fill="none" stroke="#2e3844" stroke-width="1" stroke-linecap="round"></path><path d="M339.88022,198.23495c-0.83808,1.06557 -5.12523,0.66654 -8.4385,-0.70686c-2.32582,-0.96411 -7.45612,-2.16135 -6.84333,-2.83667c0.29905,-0.32957 0.87542,-1.46801 1.62285,-1.74836c2.25202,-0.84473 6.06091,-0.47423 8.54855,0.55694c3.31333,1.37338 5.94859,3.66936 5.11049,4.73494z" fill="#171c22" stroke="none" stroke-width="0" stroke-linecap="butt"></path><path d="M339.05032,202.94966c0,0 -5.57103,2.1662 -7.90673,2.69436c-2.19353,0.49601 -5.7077,0.38422 -5.7077,0.38422" fill="none" stroke="#2e3844" stroke-width="1.5" stroke-linecap="round"></path><path d="M331.86782,202.39307c2.74873,-0.5718 6.59737,-1.83957 7.25773,-1.26048c1.68756,1.47991 -4.77401,3.12206 -7.52274,3.69388c-2.74875,0.57183 -6.06514,0.39484 -6.83444,-0.59918c-0.91968,-1.18831 4.35073,-1.26239 7.09946,-1.83421z" fill="#171c22" stroke="none" stroke-width="0" stroke-linecap="butt"></path><path d="M339.46166,200.40346c0,0 -1.83126,0.59101 -4.96919,0.59689c-3.84451,0.00715 -10.24325,-0.62533 -16.23116,-0.75472c-7.67249,-0.16579 -15.15691,0.15594 -20.91977,0.09586c-1.91232,-0.01995 -4.00195,-0.20406 -6.37826,-0.22736c-5.43657,-0.0533 -11.83828,0.0543 -17.23379,0.04213c-9.05046,-0.02041 -15.87173,0.04987 -15.87173,0.04987l-0.18229,-4.89634c0,0 7.82795,0.03023 19.22716,0.18162c3.80739,0.05056 7.92864,0.11988 12.35495,0.1993c3.41195,0.06123 7.12056,0.13297 10.29272,0.17848c16.27896,0.23356 29.91083,0.46293 34.87742,0.59638c3.00108,0.08064 5.3243,1.04968 5.3243,1.04968l-0.29032,2.88818z" fill="#6d6d48" stroke="#000e25" stroke-width="1.2" stroke-linecap="butt"></path><path d="M345.65205,198.16661l-84.38691,-1.14911" fill="none" stroke="url(#color-2)" stroke-width="1.5" stroke-linecap="round"></path><path d="M516.85025,211.68458c0,0 -6.54193,0.37724 -12.93425,0.2212c-2.46964,-0.0603 -5.26837,-0.14411 -9.90513,-0.27301c-1.15717,-0.03215 2.798,1.8729 2.798,1.8729c0,0 -4.38988,-0.16274 -7.24888,-0.47704c-3.05718,-0.33609 -10.53947,-1.47847 -10.53947,-1.47847l1.84176,2.15902c0,0 -10.31254,-2.77144 -12.28473,-2.83713c-0.04062,-0.00132 -0.82956,0.0742 -0.82956,0.0742l1.84175,2.31164l-18.63719,-2.96967l2.0975,1.12542l-9.02718,-0.91483l1.76664,1.52685c0,0 -11.43301,-1.85062 -17.65032,-2.23539c-0.49958,-0.03092 2.6842,2.5441 2.6842,2.5441c0,0 -4.12291,-2.03033 -9.40568,-2.51868c-3.08611,-0.28529 -8.95021,-0.5434 -14.75553,-0.7478c-0.87566,-0.03086 4.94275,3.25652 4.94275,3.25652c0,0 -2.94631,-0.36391 -6.00992,-1.27058c-2.30732,-0.68283 -4.67417,-1.92439 -5.93819,-2.14659c-3.86726,-0.67985 -9.24858,-0.30892 -9.24858,-0.30892l3.54257,1.60683l-25.43777,-1.72866l1.03032,0.97312c0,0 -5.59146,-0.22325 -6.14706,-0.24412c-8.85237,-0.3327 -20.37127,-4.05332 -20.37127,-4.05332l0.14143,-14.47526l40.47418,-3.24654l-0.80766,1.68372l11.05546,-0.91469l0.34065,0.62347l12.41437,-1.19882c0,0 -1.37291,1.32642 -0.04104,1.21346c0.48128,-0.04085 6.119,-0.4072 9.65887,-0.4745c1.61175,-0.03062 2.86363,0.20082 2.86363,0.20082c0,0 -1.06765,0.40503 -1.57112,0.59672c-0.78459,0.29872 -0.80221,0.34729 -0.80221,0.34729c0,0 0.42973,0.30841 2.79437,-0.10488c2.69797,-0.47153 7.05257,-1.3626 9.12636,-1.55746c2.07381,-0.19485 5.73769,0.00325 5.73769,0.00325l-5.0684,1.58904c0,0 1.25115,0.19172 3.52498,-0.07705c4.06448,-0.48044 10.39061,-1.56226 11.52214,-1.65076c2.93126,-0.22923 7.43927,-0.03065 7.43927,-0.03065l-1.49146,1.72132c0,0 0.80958,0.06579 3.44134,0.05671c0.8512,-0.00294 2.33131,0.2634 3.46247,0.15435c2.35358,-0.22691 6.79769,-1.58709 8.81925,-1.72409c1.94942,-0.13211 3.44098,0.30764 4.16033,0.22966c2.69577,-0.29223 4.67747,-1.51205 6.02646,-1.61334c2.5045,-0.18807 4.94658,0.57964 4.94658,0.57964l-2.02138,1.79672l23.72308,-2.65255l-6.95163,2.52828l17.07102,-0.01472l-2.53452,1.57026l11.59208,1.88611l-6.32849,1.49747l2.32484,0.70936l-5.36174,0.54908l1.73092,0.6282l-0.6498,1.11264l6.1661,1.05919l-7.95807,2.62149l1.24496,0.36177l-2.08706,1.15871l0.88048,0.44135l-1.70445,0.57563c0,0 0.38546,0.58412 2.20776,0.9434c2.44059,0.4812 11.13072,1.68641 11.13072,1.68641l-15.05053,1.92606c0,0 -0.27381,-0.02186 0.55143,0.17434c1.77033,0.42093 9.61548,2.24319 9.61548,2.24319l-2.65696,0.66713l2.3418,0.50186l-1.61881,0.62949z" fill="#171c22" stroke="#001026" stroke-width="1.2" stroke-linecap="butt"></path><path d="M361.63343,200.38536c2.21452,-0.58702 5.9555,2.28217 6.60382,3.57836c0.64834,1.2962 -0.93699,2.47872 -3.15148,3.06575c-2.21448,0.58701 -5.18305,0.27662 -5.83137,-1.01957c-0.64832,-1.29617 0.16461,-5.03752 2.3791,-5.62455z" fill="#ffea00" stroke="none" stroke-width="0" stroke-linecap="butt"></path><path d="M410.79128,193.7834c1.72856,-2.19776 6.83897,-3.40135 11.32607,-1.54139c4.48707,1.85997 6.60525,4.46086 4.87668,6.65862c-1.72857,2.19777 -7.05188,2.83338 -11.53898,0.97342c-4.48706,-1.85995 -6.39236,-3.8929 -4.66379,-6.09066z" fill="#ffea00" stroke="#001026" stroke-width="1.2" stroke-linecap="butt"></path><path d="M350.0026,194.22651c2.00795,-2.55297 9.1066,-3.42081 13.16634,-1.73798c4.05975,1.6828 3.13338,3.93654 1.12545,6.48949c-2.00795,2.55295 -6.67384,2.93679 -10.73358,1.25396c-4.05977,-1.68284 -5.56612,-3.45254 -3.55819,-6.00549z" fill="#ffea00" stroke="none" stroke-width="0" stroke-linecap="butt"></path><path d="M352.23988,194.9229c0.54447,-0.69227 1.72622,-1.40438 2.88162,-1.60476c1.66058,-0.28797 3.84986,-0.50862 5.55387,0.19771c2.88964,1.19778 2.67195,3.06333 1.34497,4.7505c-1.32699,1.68718 -11.10744,-1.65629 -9.78046,-3.34346z" fill="none" stroke="#000e25" stroke-width="1.2" stroke-linecap="butt"></path><path d="M413.53208,194.43923c1.22223,-1.55397 4.80298,-2.05994 7.76384,-0.83264c2.96086,1.22731 4.54453,2.7014 3.32231,4.25537c-1.22222,1.55397 -4.78751,2.59937 -7.74837,1.37207c-1.50838,-0.62523 -2.96165,-1.44796 -3.52192,-2.37798c-0.53954,-0.89555 -0.41542,-1.65449 0.18416,-2.41681z" fill="none" stroke="#000e25" stroke-width="1.2" stroke-linecap="butt"></path><path d="M415.30302,195.08957c0.89051,-1.13217 3.37206,-1.45763 5.32563,-0.64784c1.95357,0.80977 2.87676,1.58715 2.07422,2.84714c-0.75373,1.18331 -3.48728,1.68399 -5.44085,0.8742c-1.24311,-0.51528 -1.9767,-1.26421 -2.17549,-1.95735c-0.11362,-0.39613 -0.10736,-0.70443 0.21648,-1.11616z" fill="none" stroke="#000e25" stroke-width="0.7" stroke-linecap="butt"></path><path d="M418.15693,195.9071c0.18708,-0.23788 0.85295,-0.26321 1.33698,-0.06256c0.48402,0.20063 0.72478,0.55609 0.53769,0.79394c-0.18707,0.23784 -0.73111,0.26802 -1.21514,0.06737c-0.0994,-0.04124 -0.1937,-0.08917 -0.27918,-0.14142c-0.3306,-0.20205 -0.52898,-0.46838 -0.38034,-0.65737z" fill="#000e25" stroke="#000e25" stroke-width="0.5" stroke-linecap="butt"></path><path d="M341.00851,205.95571c-0.05379,0.26537 -0.48763,0.58721 -1.12634,0.42506c-0.34674,-0.08805 -1.04142,-0.032 -1.11,-0.86169c-0.03649,-0.44199 0.72058,-14.45388 0.72902,-14.49411c0.05778,-0.27509 0.92135,-0.33242 0.92135,-0.33242c0,0 1.23285,-0.09832 1.28042,0.47755c0.00406,0.04916 -0.65601,14.59576 -0.69445,14.78559z" fill="#6d6d48" stroke="#000e25" stroke-width="1.2" stroke-linecap="butt"></path><path d="M361.64591,210.52319l0.45323,-0.73599l1.19411,0.55784l0.85278,0.0199l1.04534,0.46039l-0.8619,0.56328l-0.8909,-0.09186z" fill="#aeb5b1" stroke="#000e25" stroke-width="0" stroke-linecap="butt"></path><path d="M359.24649,210.57434l0.73159,-0.82369c0,0 0.21796,0.17062 0.40709,0.35495c0.12318,0.1201 0.2056,0.25166 0.30571,0.32613c0.29486,0.21935 0.95171,0.55714 0.95171,0.55714l-0.31166,0.44951z" fill="#aeb5b1" stroke="none" stroke-width="0" stroke-linecap="butt"></path><path d="M356.28655,209.75854c0.30429,-0.38692 0.92569,-0.54523 1.38791,-0.35362c0.46222,0.19159 0.52265,0.48028 0.21834,0.86718c-0.3043,0.38691 0.491,0.6219 -0.02975,0.70341c-0.74671,0.11689 -1.88082,-0.83006 -1.57651,-1.21696z" fill="#aeb5b1" stroke="none" stroke-width="0" stroke-linecap="butt"></path><path d="M349.52245,208.50809c0.24445,-0.31079 0.77486,-0.425 1.18478,-0.2551c0.40993,0.16991 0.54407,0.5596 0.2996,0.8704c-0.24444,0.3108 -0.77486,0.425 -1.18478,0.2551c-0.4099,-0.16992 -0.54406,-0.55959 -0.29959,-0.87039z" fill="#aeb5b1" stroke="none" stroke-width="0" stroke-linecap="butt"></path><path d="M342.95286,206.53111c0,0 0.79218,-0.85947 1.36779,-0.62087c0.57558,0.23858 0.88424,0.63288 0.64478,0.93732c-0.23947,0.30444 -0.86862,0.37095 -1.44423,0.13235c-0.57561,-0.23861 -0.56833,-0.4488 -0.56833,-0.4488z" fill="#aeb5b1" stroke="none" stroke-width="0" stroke-linecap="butt"></path><path d="M347.86915,203.63487c-0.51882,0.65964 -0.67051,1.45814 -1.04553,1.30269c-0.375,-0.15545 -0.78182,-1.0027 -0.26299,-1.66235c0.23196,-0.29493 0.42858,-1.02824 0.6932,-1.19485c0.32721,-0.20605 0.71786,0.19597 0.92523,0.28192c0.37499,0.15544 0.20892,0.61291 -0.30991,1.27256z" fill="#aeb5b1" stroke="none" stroke-width="0" stroke-linecap="butt"></path><path d="M343.32099,202.17598c0.43901,-0.55816 1.04234,-0.90808 1.34758,-0.78155c0.30525,0.12655 0.19681,0.6816 -0.24219,1.23975c-0.43899,0.55818 -0.47826,0.98961 -0.7835,0.86308c-0.30526,-0.12651 -0.76089,-0.76311 -0.32189,-1.32126z" fill="#aeb5b1" stroke="none" stroke-width="0" stroke-linecap="butt"></path><path d="M354.15988,204.15608c0.50386,-0.64064 1.25872,-1.01637 1.68606,-0.83921c0.42735,0.17715 0.36533,0.84007 -0.13853,1.48069c-0.50386,0.6406 -0.61813,1.37328 -1.04547,1.19612c-0.42736,-0.17716 -1.00595,-1.19699 -0.50209,-1.83761z" fill="#aeb5b1" stroke="none" stroke-width="0" stroke-linecap="butt"></path><path d="M350.65376,203.44901c0.42901,-0.5455 1.0596,-0.87047 1.40845,-0.72587c0.34885,0.14458 0.28384,0.70399 -0.14517,1.24949c-0.42904,0.54545 -0.43695,1.03718 -0.7858,0.89258c-0.34886,-0.14461 -0.90652,-0.87075 -0.47751,-1.41625z" fill="#aeb5b1" stroke="none" stroke-width="0" stroke-linecap="butt"></path><path d="M358.72668,204.41968c0.27938,-0.35522 0.69673,-0.56403 0.93222,-0.46643c0.23548,0.09758 0.19987,0.46469 -0.07947,0.81987c-0.27935,0.35518 -0.10104,0.65862 -0.33653,0.56102c-0.23549,-0.0976 -0.79552,-0.55931 -0.51618,-0.91449z" fill="#aeb5b1" stroke="none" stroke-width="0" stroke-linecap="butt"></path><path d="M363.03765,202.99233c0.27099,0.00874 0.46714,0.38831 0.43807,0.8478c-0.02906,0.45948 0.46777,0.94891 0.19679,0.94017c-0.271,-0.00871 -1.2072,-0.51233 -1.17813,-0.97182c0.02903,-0.45951 0.27225,-0.82489 0.54324,-0.81615z" fill="#aeb5b1" stroke="none" stroke-width="0" stroke-linecap="butt"></path><path d="M366.61079,201.97951c0.35144,0.27057 0.47629,0.59969 0.27887,0.7351c-0.1974,0.1354 -0.64236,0.02585 -0.99378,-0.24471c-0.35141,-0.27059 -0.47627,-0.59971 -0.27885,-0.73512c0.19741,-0.13541 0.64236,-0.02585 0.99378,0.24471z" fill="#aeb5b1" stroke="none" stroke-width="0" stroke-linecap="butt"></path><path d="M362.36744,188.91839c0.00188,0.11414 -0.80132,0.00383 -0.88429,0.10933c-0.25443,0.32348 -0.83182,0.43186 -1.2897,0.24206c-0.45787,-0.1898 -0.62279,-0.60591 -0.36838,-0.92936c0.25443,-0.32348 0.83182,-0.43186 1.2897,-0.24206c0.30857,0.12791 1.24886,0.58421 1.25268,0.82005z" fill="#aeb5b1" stroke="none" stroke-width="0" stroke-linecap="butt"></path><path d="M356.85992,188.5962c0.26185,-0.33299 0.83476,-0.45348 1.27954,-0.26911c0.44477,0.18435 0.59307,0.60377 0.33114,0.93676c-0.26186,0.333 -0.83479,0.45348 -1.27957,0.26911c-0.44476,-0.18436 -0.59304,-0.60378 -0.33111,-0.93677z" fill="#aeb5b1" stroke="none" stroke-width="0" stroke-linecap="butt"></path><path d="M362.68184,188.22253c0.20202,-0.25686 0.70516,-0.32447 1.12379,-0.15092c0.4186,0.17354 0.59417,0.52246 0.39214,0.77933c-0.20204,0.25687 -0.70518,0.3245 -1.12381,0.15095c-0.41863,-0.17354 -0.59418,-0.52247 -0.39215,-0.77934z" fill="#aeb5b1" stroke="none" stroke-width="0" stroke-linecap="butt"></path><path d="M364.30651,188.07368c0.21702,-0.27591 0.66869,-0.38528 1.0088,-0.2443c0.34011,0.14096 0.43993,0.47894 0.22293,0.75486c-0.21698,0.2759 -0.66865,0.38527 -1.00876,0.24429c-0.34011,-0.14098 -0.43994,-0.47893 -0.22294,-0.75485z" fill="#aeb5b1" stroke="none" stroke-width="0" stroke-linecap="butt"></path><path d="M353.96233,189.08545c0.21702,-0.27588 0.67925,-0.38087 1.03246,-0.23446c0.35323,0.14642 0.46363,0.48875 0.24663,0.76467c-0.21702,0.27594 -0.67928,0.3809 -1.03249,0.23449c-0.35319,-0.1464 -0.4636,-0.48874 -0.2466,-0.76466z" fill="#aeb5b1" stroke="none" stroke-width="0" stroke-linecap="butt"></path><path d="M350.16474,189.04186c0.31429,-0.39963 0.99326,-0.5477 1.51654,-0.3308c0.52327,0.21692 0.69271,0.71668 0.37843,1.11626c-0.31428,0.39959 -0.99328,0.54767 -1.51656,0.33077c-0.25821,-0.10701 -0.55209,-0.28773 -0.62238,-0.48648c-0.07218,-0.20404 0.08476,-0.42735 0.24397,-0.62979z" fill="#aeb5b1" stroke="none" stroke-width="0" stroke-linecap="butt"></path><path d="M347.00981,189.69856c0.2694,-0.34251 0.88016,-0.45754 1.36419,-0.25689c0.48405,0.20065 0.65805,0.64097 0.38866,0.98348c-0.26939,0.34251 -0.88015,0.45753 -1.36418,0.25688c-0.14524,-0.06022 -0.70941,-0.0531 -0.79521,-0.14734c-0.20014,-0.21983 0.218,-0.59637 0.40656,-0.8361z" fill="#aeb5b1" stroke="none" stroke-width="0" stroke-linecap="butt"></path><path d="M343.52979,190.60899c0.27687,-0.35203 0.88309,-0.47916 1.35404,-0.28394c0.47095,0.19521 0.62827,0.63882 0.3514,0.99085c-0.27684,0.35201 -0.88306,0.47914 -1.35401,0.28392c-0.2765,-0.11462 -0.91881,-0.19153 -0.9547,-0.40859c-0.02522,-0.15267 0.489,-0.43696 0.60332,-0.58231z" fill="#aeb5b1" stroke="none" stroke-width="0" stroke-linecap="butt"></path><path d="M343.64207,195.17843c0.10111,-0.12858 -0.79108,-1.65312 -0.16075,-1.77405c0.30452,-0.05843 0.94143,1.52654 1.09167,1.58882c0.32708,0.13557 0.44056,0.4383 0.25347,0.67615c-0.18705,0.23786 -0.60382,0.3208 -0.93087,0.18522c-0.32705,-0.13556 -0.44053,-0.43827 -0.25344,-0.67612z" fill="#aeb5b1" stroke="none" stroke-width="0" stroke-linecap="butt"></path><path d="M347.2915,194.13271c0.0542,-0.06895 -0.0819,-0.45144 -0.09969,-0.7501c-0.02181,-0.3662 0.07642,-0.65342 0.20955,-0.66009c0.08311,-0.00419 0.09562,0.31165 0.30123,0.62086c0.1973,0.29675 0.58794,0.58668 0.66532,0.61874c0.39245,0.16271 0.54681,0.50283 0.34478,0.7597c-0.20202,0.25686 -0.68395,0.33322 -1.07641,0.17056c-0.39245,-0.16269 -0.54682,-0.50282 -0.34479,-0.75969z" fill="#aeb5b1" stroke="none" stroke-width="0" stroke-linecap="butt"></path><path d="M351.45462,194.3599c-0.28384,-0.02703 -0.45774,-0.35703 -0.38842,-0.73705c0.06934,-0.38004 0.35564,-0.6662 0.63949,-0.63917c0.28384,0.02701 0.45775,0.35702 0.38843,0.73704c-0.06932,0.38005 -0.35566,0.66621 -0.63951,0.63918z" fill="#aeb5b1" stroke="none" stroke-width="0" stroke-linecap="butt"></path><path d="M354.44717,193.42106c0.11682,-0.14854 1.49536,-1.26229 1.72122,-1.29367c0.20818,-0.02895 -0.74017,1.01501 -0.5331,1.10085c0.43169,0.17894 0.59965,0.55541 0.37517,0.84083c-0.22448,0.28544 -0.75644,0.37174 -1.18814,0.1928c-0.4317,-0.17895 -0.59967,-0.55541 -0.37519,-0.84083z" fill="#aeb5b1" stroke="none" stroke-width="0" stroke-linecap="butt"></path><path d="M362.85994,195.90317c0.22449,-0.28543 1.21449,-1.14127 1.5677,-0.99486c0.35322,0.14642 -0.06414,1.23965 -0.28862,1.52507c-0.22451,0.28543 -0.69282,0.39813 -1.04603,0.25172c-0.3532,-0.14642 -0.45755,-0.49649 -0.23307,-0.78191z" fill="#aeb5b1" stroke="none" stroke-width="0" stroke-linecap="butt"></path><path d="M365.8779,197.81665c0.18706,-0.23788 0.55081,-0.34277 0.81247,-0.23431c0.11222,0.04651 0.89155,-0.13169 0.92611,-0.03881c0.04603,0.12372 -0.68423,0.52995 -0.7911,0.66584c-0.18705,0.23787 -0.55081,0.34276 -0.81245,0.23431c-0.26165,-0.10846 -0.32211,-0.3892 -0.13502,-0.62705z" fill="#aeb5b1" stroke="none" stroke-width="0" stroke-linecap="butt"></path><path d="M358.93396,195.46367c-0.39242,-0.1627 -0.23052,-0.90494 -0.00604,-1.19036c0.14797,-0.18811 1.51522,-1.24255 1.79051,-1.21603c0.48208,0.04645 -0.80723,0.93832 -0.67344,0.99377c0.39247,0.16268 0.29137,1.0672 0.06689,1.35262c-0.22447,0.28542 -0.78545,0.22264 -1.17791,0.05998z" fill="#aeb5b1" stroke="none" stroke-width="0" stroke-linecap="butt"></path><path d="M374.13439,199.69888c1.71111,-2.17557 7.34992,-2.92303 11.77597,-1.08838c4.42603,1.83467 6.9435,3.93759 5.23239,6.11316c-1.71111,2.17559 -6.27018,3.95389 -12.67664,1.67445c-1.3712,-0.48789 -2.79471,-0.98529 -3.5967,-1.59584c-2.08073,-1.58396 -1.97008,-3.53311 -0.73503,-5.1034z" fill="#ffea00" stroke="none" stroke-width="0" stroke-linecap="butt"></path><path d="M397.65221,201.66544c1.53652,-1.95362 6.286,-2.40465 10.10153,-0.82306c3.81556,1.58161 4.98484,2.88707 3.44834,4.84064c-1.53651,1.95354 -7.0916,2.4971 -10.90713,0.91551c-3.81556,-1.58161 -4.17923,-2.97952 -2.64273,-4.93309z" fill="#ffea00" stroke="none" stroke-width="0" stroke-linecap="butt"></path><path d="M368.4523,192.75975c1.01267,-1.28759 4.51592,-1.85917 7.6294,-0.56857c3.11349,1.29057 4.88018,2.55418 3.8675,3.84177c-1.01268,1.28757 -4.78431,1.64129 -7.89779,0.35069c-3.11349,-1.29061 -4.80151,-2.09516 -3.5991,-3.62393z" fill="#ffea00" stroke="none" stroke-width="0" stroke-linecap="butt"></path><path d="M435.37251,193.84073c2.42875,-2.12433 5.01692,-3.07542 6.28755,-2.30885c1.27062,0.76659 0.99546,2.639 -1.43328,4.76332c-2.42874,2.12431 -6.0436,3.07625 -7.31423,2.30968c-1.27058,-0.76658 0.03125,-2.63984 2.45999,-4.76416z" fill="#ffea00" stroke="none" stroke-width="0" stroke-linecap="butt"></path><path d="M456.80435,203.05228c1.74603,-2.21999 4.34922,-3.52727 5.81439,-2.91994c1.46517,0.60734 1.23748,2.89932 -0.50854,5.11928c-1.74603,2.21998 -4.34922,3.52728 -5.81439,2.91995c-1.46516,-0.60732 -1.23748,-2.89934 0.50854,-5.1193z" fill="#ffea00" stroke="none" stroke-width="0" stroke-linecap="butt"></path><path d="M499.07232,202.98368c2.13671,0.88569 1.94093,2.56402 0.10761,4.89498c-1.83335,2.33098 -5.11448,2.83695 -7.25118,1.95126c-2.13669,-0.88571 -1.76716,-2.59859 0.06616,-4.92955c1.83331,-2.33097 4.94071,-2.80238 7.07741,-1.91669z" fill="#ffea00" stroke="none" stroke-width="0" stroke-linecap="butt"></path><path d="M494.98735,199.00391c-1.17147,0.77434 -4.30726,-0.17473 -6.23748,-1.80206c-2.08756,-1.76 -2.53482,-3.88974 -1.36333,-4.66407c1.17148,-0.77434 3.86514,-0.00856 6.01644,1.71042c2.1513,1.71898 2.7559,3.98138 1.58441,4.75571z" fill="#ffea00" stroke="none" stroke-width="0" stroke-linecap="butt"></path><path d="M466.38517,194.53792c0.66174,-1.37554 3.63078,-2.26069 6.31943,-1.5804c2.68866,0.68032 5.09009,2.12824 4.4283,3.50379c-0.66178,1.37553 -4.12024,1.9512 -6.80889,1.27091c-2.68867,-0.68032 -4.60063,-1.81876 -3.93884,-3.19431z" fill="#ffea00" stroke="none" stroke-width="0" stroke-linecap="butt"></path><path d="M473.21622,200.07612c3.75674,-1.66259 8.77578,-1.08336 10.52856,1.01112c0.95287,1.13864 1.3602,2.63943 0.36774,3.90348c-0.83309,1.06113 -2.83454,1.91147 -4.54896,2.67023c-3.75676,1.66259 -8.96549,1.32455 -10.71827,-0.76993c-1.75277,-2.09448 0.61415,-5.15228 4.37092,-6.81487z" fill="#ffea00" stroke="none" stroke-width="0" stroke-linecap="butt"></path><path d="M435.35097,204.35974c-0.37662,-2.19266 3.50745,-3.74335 7.09429,-3.73931c3.58686,0.00402 6.86712,1.11995 6.85873,3.08747c-0.00838,1.96751 -2.92293,3.55923 -6.50977,3.55519c-3.58685,-0.00404 -7.06616,-0.70766 -7.44326,-2.90336z" fill="#ffea00" stroke="none" stroke-width="0" stroke-linecap="butt"></path><path d="M419.95584,203.02847c2.38336,-0.82335 5.07601,-0.55637 5.99457,0.85113c0.91857,1.40752 -0.6319,2.7457 -3.01523,3.56903c-2.38336,0.82336 -5.07602,0.55638 -5.99458,-0.85112c-0.91857,-1.4075 0.63191,-2.7457 3.01524,-3.56903z" fill="#ffea00" stroke="none" stroke-width="0" stroke-linecap="butt"></path><path d="M393.85195,192.59323c2.49175,-1.3362 5.99515,-1.05073 7.16291,0.10013c1.16777,1.1509 -1.05825,2.58266 -3.54999,3.91888c-2.49179,1.3362 -5.67948,1.39482 -6.84724,0.24396c-1.16778,-1.15086 0.74257,-2.9267 3.23431,-4.26292z" fill="#ffea00" stroke="none" stroke-width="0" stroke-linecap="butt"></path><path d="M376.50814,200.96715c1.2688,-1.61318 4.61413,-2.3159 7.66657,-1.05063c3.05243,1.26527 5.05698,2.76425 3.7882,4.37743c-1.26876,1.61314 -5.10904,2.32391 -8.16148,1.05864c-3.05244,-1.26527 -4.56205,-2.77231 -3.29327,-4.38549z" fill="none" stroke="#000e25" stroke-width="1.2" stroke-linecap="butt"></path><path d="M399.60006,202.04647c0.86141,-1.09518 3.71522,-1.3027 6.21823,-0.26518c2.50299,1.03749 3.84469,2.13131 2.98332,3.22651c-0.8614,1.09517 -4.5763,1.74526 -7.07931,0.70774c-2.503,-1.03751 -2.98361,-2.5739 -2.12224,-3.6691z" fill="none" stroke="#000e25" stroke-width="1.05" stroke-linecap="butt"></path><path d="M473.90094,202.17542c2.5134,-1.06416 6.23329,-0.92118 7.52899,0.6975c1.29569,1.61868 -0.78626,3.19759 -3.29969,4.26174c-2.51341,1.06414 -6.10683,0.76038 -7.40253,-0.8583c-1.29569,-1.61865 0.65981,-3.03679 3.17324,-4.10094z" fill="none" stroke="#000e25" stroke-width="1.2" stroke-linecap="butt"></path><path d="M497.45518,204.23219c1.46517,0.60737 1.72816,2.27544 0.58744,3.72582c-1.14075,1.45038 -3.25325,2.13381 -4.71842,1.52648c-1.46517,-0.60737 -1.72816,-2.27544 -0.58744,-3.72582c1.14075,-1.45038 3.25325,-2.13381 4.71842,-1.52648z" fill="none" stroke="#000e25" stroke-width="1" stroke-linecap="butt"></path><path d="M467.91329,194.8294c0.65184,-0.8288 2.66787,-1.02615 4.6335,-0.42458c2.02977,0.62119 3.3882,1.65573 2.73635,2.48453c-0.65185,0.82879 -2.94172,1.12583 -4.85457,0.33293c-1.91285,-0.7929 -3.1671,-1.56409 -2.51525,-2.39289z" fill="none" stroke="#000e25" stroke-width="0.5" stroke-linecap="butt"></path><path d="M469.31074,195.26644c0.4074,-0.518 1.81413,-0.81152 2.98238,-0.32726c1.16825,0.48428 2.07806,1.12748 1.67065,1.64548c-0.40744,0.51802 -1.97779,0.71464 -3.14604,0.23038c-1.16827,-0.48428 -1.91444,-1.03057 -1.50703,-1.54857z" fill="none" stroke="#000e25" stroke-width="0.5" stroke-linecap="butt"></path><path d="M471.16357,195.61293c0.05713,-0.07267 0.35315,-0.02804 0.66118,0.09964c0.30803,0.12768 0.51138,0.29005 0.45426,0.36273c-0.05715,0.07267 -0.35316,0.02805 -0.66119,-0.09963c-0.30803,-0.12768 -0.51139,-0.29005 -0.45427,-0.36273z" fill="#000e25" stroke="#000e25" stroke-width="0.5" stroke-linecap="butt"></path><path d="M494.81778,206.73268c0.13967,-0.17759 0.41788,-0.25316 0.62138,-0.16882c0.20351,0.08434 0.25522,0.2967 0.11555,0.4743c-0.13968,0.17761 -0.41787,0.25319 -0.62137,0.16885c-0.20349,-0.08436 -0.25522,-0.2967 -0.11555,-0.4743z" fill="#000e25" stroke="#000e25" stroke-width="0.5" stroke-linecap="butt"></path><path d="M491.19938,195.83413c0.23402,0.09702 0.32935,0.2956 0.21296,0.4436c-0.1164,0.14802 -0.40049,0.18933 -0.6345,0.09234c-0.23402,-0.09702 -0.32936,-0.29562 -0.21297,-0.44362c0.11639,-0.14802 0.40049,-0.18932 0.6345,-0.09233z" fill="#000e25" stroke="#000e25" stroke-width="0.5" stroke-linecap="butt"></path><path d="M475.80903,204.21062c0.30064,-0.24103 0.84827,-0.2852 1.15588,-0.08268c0.3076,0.20252 0.02184,0.44131 -0.27884,0.68234c-0.30067,0.24101 -0.94876,0.37917 -1.25637,0.17665c-0.30758,-0.20252 0.07865,-0.5353 0.37933,-0.77633z" fill="#000e25" stroke="#000e25" stroke-width="0.5" stroke-linecap="butt"></path><path d="M459.30638,204.36075c0.15135,-0.19239 0.34824,-0.31761 0.4398,-0.27963c0.09154,0.03794 0.04312,0.2247 -0.1082,0.41711c-0.15133,0.19239 -0.34824,0.31761 -0.4398,0.27963c-0.09155,-0.03795 -0.04313,-0.22469 0.10819,-0.4171z" fill="none" stroke="#000e25" stroke-width="0.5" stroke-linecap="butt"></path><path d="M461.269,202.08283c0.80385,0.33318 0.56844,1.73107 -0.52573,3.12225c-1.09418,1.39119 -2.63281,2.24887 -3.43662,1.91567c-0.80385,-0.33318 -0.56844,-1.73107 0.52573,-3.12225c1.09418,-1.39119 2.63281,-2.24887 3.43662,-1.91567z" fill="none" stroke="#000e25" stroke-width="0.5" stroke-linecap="butt"></path><path d="M460.61563,202.91356c0.60032,0.24885 0.52079,1.17042 -0.17762,2.05841c-0.6984,0.88798 -1.75125,1.4061 -2.35156,1.15727c-0.60031,-0.24881 -0.52078,-1.1704 0.17763,-2.05839c0.6984,-0.888 1.75123,-1.40611 2.35154,-1.15728z" fill="none" stroke="#000e25" stroke-width="0.5" stroke-linecap="butt"></path><path d="M442.3899,204.06453c0.26456,0.10964 0.37518,0.33055 0.24716,0.49333c-0.12803,0.16279 -0.44627,0.20588 -0.71083,0.09621c-0.26456,-0.10964 -0.37518,-0.33055 -0.24716,-0.49333c0.12803,-0.16279 0.44627,-0.20588 0.71083,-0.09621z" fill="#000e25" stroke="#000e25" stroke-width="0.5" stroke-linecap="butt"></path><path d="M436.79322,195.27748c0.2328,-0.29598 0.58648,-0.46755 0.78998,-0.38321c0.2035,0.08435 0.17975,0.39268 -0.05307,0.68869c-0.23282,0.29597 -0.58649,0.46752 -0.78999,0.38318c-0.2035,-0.08435 -0.17974,-0.39266 0.05308,-0.68867z" fill="#000e25" stroke="#000e25" stroke-width="0.5" stroke-linecap="butt"></path><path d="M420.75342,205.50987c0.14216,-0.18074 0.4589,-0.24376 0.70747,-0.14074c0.24855,0.103 0.3348,0.33307 0.19263,0.51386c-0.14217,0.18077 -0.45892,0.24377 -0.70749,0.14075c-0.24857,-0.10303 -0.33479,-0.33308 -0.19262,-0.51387z" fill="#000e25" stroke="#000e25" stroke-width="0.5" stroke-linecap="butt"></path><path d="M404.30493,203.74005c0.39244,0.16268 0.57712,0.46421 0.41251,0.67354c-0.16464,0.20935 -0.61624,0.24711 -1.0087,0.08445c-0.39244,-0.16268 -0.57712,-0.46421 -0.41251,-0.67354c0.16464,-0.20935 0.61624,-0.24711 1.0087,-0.08445z" fill="#000e25" stroke="#000e25" stroke-width="0.5" stroke-linecap="butt"></path><path d="M395.10394,194.8321c0.20206,-0.25687 0.52492,-0.3992 0.72113,-0.31786c0.19623,0.08134 0.19151,0.35553 -0.01052,0.6124c-0.20206,0.25687 -0.52492,0.3992 -0.72113,0.31786c-0.19623,-0.08133 -0.1915,-0.35553 0.01053,-0.6124z" fill="#000e25" stroke="#000e25" stroke-width="0.5" stroke-linecap="butt"></path><path d="M373.13748,194.56706c0.10479,-0.13321 0.49722,-0.1137 0.87663,0.04355c0.37935,0.15726 0.60201,0.39273 0.49723,0.52592c-0.10477,0.13319 -0.49721,0.11368 -0.87662,-0.04357c-0.37934,-0.15727 -0.602,-0.39273 -0.49722,-0.52592z" fill="#000e25" stroke="#000e25" stroke-width="0.5" stroke-linecap="butt"></path><path d="M363.27487,205.34971c0.09729,-0.12369 0.28218,-0.17997 0.413,-0.12575c0.13081,0.05423 0.158,0.19846 0.06071,0.32213c-0.0973,0.12366 -0.28219,0.17996 -0.41301,0.12574c-0.13082,-0.05423 -0.15804,-0.19845 -0.06075,-0.32212z" fill="#000e25" stroke="#000e25" stroke-width="0.5" stroke-linecap="butt"></path><path d="M383.21941,201.33521c1.86199,0.77184 3.64269,1.59028 2.95213,2.58289c-1.12323,1.61443 -3.84064,1.68601 -5.70263,0.91419c-1.86198,-0.77183 -2.75571,-2.18036 -1.99619,-3.14604c0.75952,-0.96567 2.88468,-1.12284 4.74667,-0.35102z" fill="none" stroke="#000e25" stroke-width="0.5" stroke-linecap="butt"></path><path d="M371.36934,194.31784c0.42778,-0.5439 1.89545,-0.99989 3.13169,-0.48745c1.23621,0.51243 2.19182,1.17342 1.76405,1.7173c-0.42778,0.54389 -2.59802,0.49546 -3.83426,-0.01698c-1.23623,-0.51242 -1.48926,-0.66898 -1.06149,-1.21286z" fill="none" stroke="#000e25" stroke-width="0.5" stroke-linecap="butt"></path><path d="M361.63315,204.83312c0.48016,-0.61047 2.46053,-0.92556 3.25417,-0.59657c0.79363,0.32897 0.73209,0.74648 0.25189,1.35698c-0.48013,0.61055 -2.43686,0.9887 -3.2305,0.65971c-0.79366,-0.32894 -0.75577,-0.80957 -0.27557,-1.42007z" fill="none" stroke="#000e25" stroke-width="0.5" stroke-linecap="butt"></path><path d="M400.80627,203.10857c0.58492,-0.74368 2.36721,-0.96422 4.0003,-0.28729c1.63307,0.67694 2.77523,1.36352 2.19032,2.1072c-0.58489,0.74367 -2.61217,1.18248 -4.24526,0.50555c-1.63307,-0.67692 -2.53027,-1.58175 -1.94536,-2.32543z" fill="none" stroke="#000e25" stroke-width="0.5" stroke-linecap="butt"></path><path d="M419.53819,205.01019c0.54998,-0.69931 1.8067,-0.61028 2.76822,-0.2117c0.96152,0.39856 1.35083,0.56542 0.80083,1.26472c-0.54996,0.69929 -2.39918,0.89769 -3.3607,0.49911c-0.96154,-0.39857 -0.75836,-0.85283 -0.20836,-1.55213z" fill="none" stroke="#000e25" stroke-width="0.5" stroke-linecap="butt"></path><path d="M418.43237,205.11147c0.76825,-0.97679 3.79875,-1.41019 5.14185,-0.85347c1.34309,0.55675 0.83013,1.18089 0.06189,2.15769c-0.19899,0.25305 -0.62359,0.22193 -0.98214,0.3463c-1.02552,0.35569 -2.41722,0.4595 -3.51194,0.24267c-0.73646,-0.14586 -0.81367,-0.46304 -0.9067,-0.77106c-0.09543,-0.31607 -0.19199,-0.62739 0.1971,-1.1221z" fill="none" stroke="#000e25" stroke-width="0.5" stroke-linecap="butt"></path><path d="M437.36954,204.37469c0.16947,-1.30664 2.0451,-2.1677 4.80488,-2.12486c2.75977,0.0429 5.16077,1.01187 5.1022,2.29736c-0.04955,1.08698 -2.40037,1.96714 -5.16015,1.9243c-2.75975,-0.04288 -4.95644,-0.48113 -4.74692,-2.09679z" fill="none" stroke="#000e25" stroke-width="0.75" stroke-linecap="butt"></path><path d="M438.81665,204.26c0.6897,-0.8769 3.23905,-1.72217 4.71948,-1.10852c1.48042,0.61368 2.30364,0.93809 1.61396,1.81499c-0.68967,0.8769 -2.45655,0.99258 -4.11903,0.71779c-0.86489,-0.14295 -1.44873,-0.42828 -1.80959,-0.81127c-0.17452,-0.18522 -0.62965,-0.3271 -0.40482,-0.61297z" fill="none" stroke="#000e25" stroke-width="0.5" stroke-linecap="butt"></path><path d="M450.39704,192.64814c3.14846,-1.17007 8.04224,-0.929 9.35211,0.93616c1.30986,1.86515 -0.23543,3.55676 -3.38388,4.72683c-1.26084,0.46856 -2.90362,1.08237 -4.6083,1.10357c-2.55206,0.03179 -5.13526,-0.82301 -5.92057,-1.94123c-1.30986,-1.86516 1.41222,-3.65527 4.56067,-4.82534z" fill="#ffea00" stroke="none" stroke-width="0" stroke-linecap="butt"></path><path d="M451.51002,193.81182c2.11456,-0.86707 4.95749,-0.77743 5.94053,0.49074c0.98307,1.26817 -0.50237,2.23062 -2.61695,3.09768c-2.11456,0.86707 -5.62096,0.87556 -6.60399,-0.39262c-0.98304,-1.26817 1.16584,-2.32873 3.28042,-3.19579z" fill="none" stroke="#000e25" stroke-width="0.75" stroke-linecap="butt"></path><path d="M451.75954,194.49094c1.46344,-0.58677 3.86271,-0.79508 4.41364,-0.06813c0.55094,0.72699 -0.57589,2.0046 -2.03935,2.59136c-1.46342,0.58673 -3.54657,0.3931 -4.0975,-0.33385c-0.55097,-0.72695 0.25971,-1.60261 1.72317,-2.18937z" fill="none" stroke="#000e25" stroke-width="0.5" stroke-linecap="butt"></path><path d="M452.65856,195.41996c0.19207,-0.24419 0.60758,-0.33444 0.9281,-0.20159c0.32048,0.13286 0.42465,0.43852 0.23258,0.6827c-0.19205,0.24419 -0.60758,0.33444 -0.9281,0.20159c-0.32047,-0.13287 -0.42463,-0.43854 -0.23256,-0.68272z" fill="#001026" stroke="#000e25" stroke-width="0.5" stroke-linecap="butt"></path><path d="M474.981,202.91959c1.83287,-0.6225 4.30648,-0.32488 4.95986,0.69352c0.65337,1.0184 -0.76088,2.37195 -2.59375,2.99443c-1.83291,0.62248 -4.08517,0.04351 -4.73855,-0.97489c-0.65337,-1.01842 0.53958,-2.0906 2.37245,-2.71308z" fill="none" stroke="#000e25" stroke-width="0.5" stroke-linecap="butt"></path><path d="M493.37103,198.30615c-1.0662,0.60751 -2.61509,-0.10654 -3.93709,-1.33255c-1.32201,-1.22603 -1.65588,-2.55157 -0.58967,-3.15907c1.06621,-0.60753 2.61509,0.10655 3.93711,1.33255c1.32201,1.22598 1.65584,2.55152 0.58963,3.15902z" fill="none" stroke="#000e25" stroke-width="0.5" stroke-linecap="butt"></path><path d="M492.64117,197.47995c-0.68857,0.37702 -1.91762,-0.0355 -2.78419,-0.87182c-0.86657,-0.83632 -1.22422,-1.64188 -0.53563,-2.01892c0.68858,-0.37704 2.02816,0.08131 2.89473,0.91763c0.86658,0.83632 1.11367,1.59607 0.42508,1.97311z" fill="none" stroke="#000e25" stroke-width="0.25" stroke-linecap="butt"></path><path d="M381.19677,202.8457c0.20952,-0.2664 0.91104,-0.39901 1.40815,-0.19297c0.49713,0.20606 0.68288,0.56946 0.47335,0.83584c-0.20953,0.26639 -0.86366,0.41865 -1.36077,0.21261c-0.4971,-0.20604 -0.73025,-0.58909 -0.52072,-0.85547z" fill="#000e25" stroke="none" stroke-width="0" stroke-linecap="butt"></path><path d="M369.86593,193.9943c0.4789,-0.98098 2.3898,-1.30583 4.71906,-0.70774c2.32926,0.5981 3.84313,1.38137 3.36425,2.36232c-0.47885,0.98097 -2.34924,1.414 -4.6785,0.81591c-2.32922,-0.59809 -3.88364,-1.48953 -3.40476,-2.47048z" fill="none" stroke="#000e27" stroke-width="0.5" stroke-linecap="butt"></path><path d="M394.07396,194.36854c1.117,-0.72275 3.15197,-0.91673 3.68931,-0.47808c0.53737,0.43864 -0.16503,1.36026 -1.4974,1.99339c-1.1998,0.57015 -2.80549,0.7558 -3.34283,0.31715c-0.53737,-0.43864 0.03391,-1.10969 1.15092,-1.83244z" fill="none" stroke="#000e25" stroke-width="0.5" stroke-linecap="butt"></path><path d="M393.70362,193.90822c1.78649,-1.16247 4.04914,-1.51903 5.10379,-0.66297c1.05463,0.85608 0.16406,1.59252 -1.62244,2.75498c-1.78649,1.16247 -4.26594,1.79466 -5.32059,0.9386c-1.05465,-0.85605 0.05274,-1.86813 1.83924,-3.03059z" fill="none" stroke="#001027" stroke-width="0.75" stroke-linecap="butt"></path><path d="M435.8924,194.81661c0.96842,-0.7968 2.29184,-1.08664 3.01437,-0.62319c0.72254,0.46347 0.15783,1.15096 -0.81058,1.94778c-0.9684,0.79683 -2.04815,1.0963 -2.77068,0.63285c-0.72254,-0.46347 -0.4015,-1.1606 0.56691,-1.95742z" fill="none" stroke="#001025" stroke-width="0.5" stroke-linecap="butt"></path><path d="M435.43533,194.53726c1.64579,-1.37096 3.60736,-1.76476 4.64025,-1.11033c1.03291,0.65442 0.21827,1.66204 -1.42752,3.033c-1.01371,0.84443 -2.03603,1.20985 -2.86639,1.33768c-0.51775,0.07968 -0.92371,0.16625 -1.32039,-0.08508c-1.0329,-0.65442 -0.6717,-1.80432 0.97409,-3.17528z" fill="none" stroke="#001025" stroke-width="0.75" stroke-linecap="butt"></path><path d="M492.78229,205.74426c1.28346,-1.41971 3.55514,-1.89779 4.96548,-1.2255c1.41033,0.67232 1.43228,1.83211 0.14882,3.25179c-1.28348,1.41971 -3.69744,2.15858 -5.10778,1.48629c-1.41036,-0.67232 -1.28998,-2.09292 -0.00652,-3.5126z" fill="none" stroke="#001027" stroke-width="0.75" stroke-linecap="butt"></path><path d="M493.63731,206.16607c0.75576,-0.96094 2.31089,-1.34925 3.23972,-0.96425c0.92882,0.38502 0.81193,1.32382 0.05615,2.28476c-0.75578,0.96096 -2.34482,1.47225 -3.27365,1.08725c-0.92882,-0.38502 -0.77801,-1.44682 -0.02223,-2.40776z" fill="none" stroke="#001027" stroke-width="0.5" stroke-linecap="butt"></path><path d="M261.37067,197.9281c0.01257,-0.21617 0.21384,-1.41544 -3.66481,-1.79659c-1.91037,-0.1877 -6.09062,0.22898 -8.49321,0.34655c-1.36126,0.06662 -1.80334,-0.15838 -1.80334,-0.15838c0,0 6.13713,-3.38569 10.71203,-3.11965c1.08878,0.06332 2.69273,0.12913 4.63606,0.56886c1.14459,0.25899 2.62369,0.99928 3.6019,1.00011c2.40493,0.00206 3.67171,-1.45559 3.67171,-1.45559c0,0 -0.70667,1.0723 -0.78317,2.51272c-0.03437,0.64735 0.57441,0.91873 0.66765,1.60124c0.14268,1.04455 -0.19119,2.45538 -0.162,2.97741c0.04701,0.84059 0.78318,1.95167 0.78318,1.95167c0,0 0.07054,0.45717 -0.39094,0.45655c-0.46147,-0.00062 -0.43161,-0.146 -1.03447,-0.45849c-0.63241,-0.32779 -1.36303,-0.68129 -2.07786,-0.9298c-0.33933,-0.11797 -1.1055,-0.32874 -1.3839,-0.32297c-1.09716,0.02269 -2.84308,0.76124 -4.54781,1.12009c-1.91568,0.40324 -3.79084,0.42736 -4.85814,0.3653c-4.51913,-0.26279 -9.12056,-3.87163 -9.12056,-3.87163c0,0 2.35858,-0.17178 5.20407,0.26809c2.30254,0.35595 4.9888,1.3501 6.49187,1.29065c1.17159,-0.04633 0.84377,-1.14312 1.23464,-1.43932c0.85576,-0.64847 1.30851,-0.75952 1.31705,-0.90682z" fill="#885058" stroke="#000e25" stroke-width="1" stroke-linecap="butt"></path></g></g></g></svg>