<svg version="1.1" xmlns="http://www.w3.org/2000/svg" xmlns:xlink="http://www.w3.org/1999/xlink" width="80.38861" height="78.15684" viewBox="0,0,80.38861,78.15684"><g transform="translate(-439.5987,-138.3423)"><g data-paper-data="{&quot;isPaintingLayer&quot;:true}" fill-rule="nonzero" stroke-linejoin="miter" stroke-miterlimit="10" stroke-dasharray="" stroke-dashoffset="0" style="mix-blend-mode: normal"><path d="" data-paper-data="{&quot;index&quot;:null}" fill="none" stroke="#000000" stroke-width="1.5" stroke-linecap="round"/><path d="M468.14542,204.04568c-13.73525,-7.3475 -18.91355,-24.43848 -11.56605,-38.17373c7.3475,-13.73525 24.43848,-18.91355 38.17373,-11.56605c13.73525,7.3475 18.91355,24.43848 11.56605,38.17373c-7.3475,13.73525 -24.43848,18.91355 -38.17373,11.56605z" fill="#000000" stroke="none" stroke-width="NaN" stroke-linecap="butt"/><path d="M466.93584,177.79618l-19.73312,-14.35576l2.82213,-5.2756l23.11965,8.02501z" fill="#000000" stroke="none" stroke-width="0" stroke-linecap="butt"/><path d="M469.51138,164.18167l-3.80237,-24.10447l5.72596,-1.7349l10.67354,22.02263z" fill="#000000" stroke="none" stroke-width="0" stroke-linecap="butt"/><path d="M483.23748,161.64769l14.35576,-19.73312l5.2756,2.82213l-8.02499,23.11965z" fill="#000000" stroke="none" stroke-width="0" stroke-linecap="butt"/><path d="M494.14796,168.26332l24.10447,-3.80237l1.73488,5.72597l-22.02262,10.67352z" fill="#000000" stroke="none" stroke-width="0" stroke-linecap="butt"/><path d="M497.71788,178.53084l19.73313,14.35576l-2.82213,5.2756l-23.11965,-8.02499z" fill="#000000" stroke="none" stroke-width="0" stroke-linecap="butt"/><path d="M494.79297,190.65977l3.80237,24.10447l-5.72596,1.7349l-10.67352,-22.02261z" fill="#000000" stroke="none" stroke-width="0" stroke-linecap="butt"/><path d="M480.84007,195.03069l-14.35576,19.73313l-5.2756,-2.82213l8.02501,-23.11965z" fill="#000000" stroke="none" stroke-width="0" stroke-linecap="butt"/><path d="M465.43805,189.59909l-24.10447,3.80237l-1.73488,-5.72597l22.02258,-10.67352z" fill="#000000" stroke="none" stroke-width="0" stroke-linecap="butt"/></g></g></svg>