<svg version="1.1" xmlns="http://www.w3.org/2000/svg" xmlns:xlink="http://www.w3.org/1999/xlink" width="210.81989" height="118.08833" viewBox="0,0,210.81989,118.08833"><g transform="translate(-81.03331,-103.30907)"><g data-paper-data="{&quot;isPaintingLayer&quot;:true}" fill-rule="nonzero" stroke-linejoin="miter" stroke-miterlimit="10" stroke-dasharray="" stroke-dashoffset="0" style="mix-blend-mode: normal"><g stroke="none" stroke-width="0" stroke-linecap="butt"><path d="M234.35031,109.04225l19.14714,2.13759l-0.85504,7.65885l-19.14714,-2.13759z" fill="#b0b0b0"></path><path d="M213.26858,165.13797l25.27409,-4.69187l2.11891,11.41411l-25.27409,4.69187z" fill="#737373"></path><path d="M231.45255,113.97992l23.48693,2.62208l-6.25621,56.039l-23.48693,-2.62208z" fill="#878787"></path><path d="M232.02547,103.30907l24.77864,2.76629l-0.72929,6.53255l-24.77864,-2.76629z" fill="#515151"></path><g><path d="M226.81076,119.37587l13.96615,1.55918l-3.77222,33.78907l-13.96615,-1.55918z" fill="#737373"></path><path d="M231.48878,124.45948l13.0651,1.45859l-0.57841,5.181l-13.0651,-1.45859z" fill="#b43b3b"></path><path d="M230.56856,132.58076l13.0651,1.45859l-0.57841,5.181l-13.0651,-1.45859z" fill="#b43b3b"></path><path d="M229.4482,140.45163l13.0651,1.45859l-0.57841,5.181l-13.0651,-1.45859z" fill="#b43b3b"></path></g></g><g stroke="none" stroke-width="0" stroke-linecap="butt"><path d="M173.58511,124.41596l16.31882,-10.24101l4.0964,6.52753l-16.31882,10.24101z" fill="#b0b0b0"></path><path d="M191.98769,181.44677l16.86545,-19.39974l8.76118,7.61666l-16.86545,19.39974z" fill="#737373"></path><path d="M174.38918,130.08439l20.01756,-12.5622l29.97295,47.7612l-20.01756,12.5622z" fill="#878787"></path><path d="M168.19771,121.37457l21.11846,-13.25308l3.494,5.5676l-21.11846,13.25308z" fill="#515151"></path><g><path d="M174.11315,137.19679l11.90314,-7.46992l18.07238,28.79792l-11.90314,7.46992z" fill="#737373"></path><path d="M180.93847,138.26541l11.13519,-6.98799l2.7711,4.41569l-11.13519,6.98799z" fill="#b43b3b"></path><path d="M185.2716,145.1955l11.13519,-6.98799l2.7711,4.41569l-11.13519,6.98799z" fill="#b43b3b"></path><path d="M189.29223,152.05409l11.13519,-6.98799l2.7711,4.41569l-11.13519,6.98799z" fill="#b43b3b"></path></g></g><g stroke="none" stroke-width="0" stroke-linecap="butt"><path d="M267.24522,179.17097l8.98119,-27.04753l5.4703,0.18224l-9.36911,28.65997z" fill="#8b8b8b"></path><path d="M248.95614,212.2859l16.98054,-48.08716l25.80286,9.1115l-16.98054,48.08716z" fill="#5e5e5e"></path><path d="M256.36222,208.74532l12.42478,-35.18573l23.06619,8.14513l-12.42478,35.18573z" fill="#4c4c4c"></path><path d="M270.78581,186.57705l2.20885,-6.25523l15.24715,5.38408l-2.20885,6.25523z" fill="#ffffff"></path><path d="M267.34952,196.38233l2.20885,-6.25523l15.24715,5.38408l-2.20885,6.25523z" fill="#ffffff"></path><path d="M264.3274,205.01475l2.20885,-6.25523l15.24715,5.38408l-2.20885,6.25523z" fill="#ffffff"></path><path d="M272.13894,145.50847c1.3724,-3.8865 5.6356,-5.92458 9.5221,-4.55218c3.8865,1.3724 5.92458,5.6356 4.55218,9.5221c-1.3724,3.8865 -5.6356,5.92458 -9.5221,4.55218c-3.8865,-1.3724 -5.92458,-5.6356 -4.55218,-9.5221z" fill="#ffffff"></path></g><path d="" data-paper-data="{&quot;index&quot;:null}" fill="none" stroke="#000000" stroke-width="1.5" stroke-linecap="round"></path><path d="" data-paper-data="{&quot;index&quot;:null}" fill="none" stroke="#000000" stroke-width="1.5" stroke-linecap="round"></path><path d="M200.36105,167.31811c5.10259,-21.21011 26.43323,-34.26784 47.64334,-29.16525c21.21011,5.10259 34.26784,26.43323 29.16525,47.64334c-5.10259,21.21011 -26.43323,34.26784 -47.64334,29.16525c-21.21011,-5.10259 -34.26784,-26.43323 -29.16525,-47.64334z" fill="#404040" stroke="#000000" stroke-width="1.5" stroke-linecap="butt"></path><path d="M203.45206,156.3995c1.42286,-2.50615 6.21395,-6.8657 6.21395,-6.8657l21.20499,16.37724l46.53458,4.61572c0,0 0.73154,7.71555 0.46317,10.8865c-0.19378,2.28958 -1.92378,6.37146 -1.92378,6.37146l-49.66996,-7.23183l-25.24786,-15.80301c0,0 0.9689,-5.78583 2.42489,-8.35036z" fill="#d8d8d8" stroke="#000000" stroke-width="1.5" stroke-linecap="round"></path><path d="M217.48855,161.65478l5.69939,3.51902l-1.21078,6.94363" fill="none" stroke="#000000" stroke-width="1.5" stroke-linecap="round"></path><path d="M230.45623,175.01646l1.37881,-6.48893l6.34188,0.07596" fill="none" stroke="#000000" stroke-width="1.5" stroke-linecap="round"></path><path d="M112.96628,158.3105c-0.79963,-1.42993 -0.13816,-2.4468 0.41281,-2.9779c-0.8972,-1.07998 -1.81086,-2.14682 -2.37601,-3.4177c-0.00948,-0.02132 -0.01891,-0.04266 -0.02829,-0.06401l-0.01369,0.01043l-2.39323,-3.14207c-0.3295,-0.42348 -0.52574,-0.95578 -0.52574,-1.53391c0,-1.38071 1.11929,-2.5 2.5,-2.5c0.10565,0 0.20977,0.00655 0.31198,0.01928c0.31898,-0.14764 0.67433,-0.23003 1.04892,-0.23003c0.67605,0 1.28942,0.26834 1.73941,0.70432l2.01195,1.94401l-0.01762,0.01824l0.05916,0.02286c0.35763,0.39826 0.72411,0.78903 1.08962,1.18062c-0.15846,-0.36959 -0.27247,-0.72966 -0.32409,-1.0602l-1.92032,-4.55619c-0.14,-0.31207 -0.21788,-0.65807 -0.21788,-1.02226c0,-1.38071 1.11929,-2.5 2.5,-2.5c0.56932,0 1.09419,0.1903 1.51447,0.51077c0.34229,-0.97266 1.26916,-1.66986 2.35887,-1.66986c1.15213,0 2.12223,0.77936 2.41186,1.83964l0.02392,0.08026c0.96657,0.13225 1.75718,0.817 2.04307,1.72549l1.23756,3.63325l-0.05085,0.01732c0.04163,0.07712 0.08227,0.15486 0.12187,0.23325c0.46506,0.92073 0.38792,2.00637 0.41954,3.05894c0.50794,1.32106 1.07809,2.61885 1.69633,3.88883c0,0 1.08915,2.25028 -1.16112,3.33943c-0.74834,0.3622 -1.36827,0.35509 -1.86243,0.18424c-0.39985,0.84826 -1.26267,1.43532 -2.26261,1.43532c-0.83806,0 -1.5798,-0.41237 -2.0334,-1.04526l-0.30062,-0.40939c-0.35647,0.01306 -0.73085,-0.01712 -1.11318,-0.07843c-0.42103,0.78697 -1.2509,1.32235 -2.20581,1.32235c-0.02558,0 -0.05107,-0.00038 -0.07646,-0.00115l-1.2158,2.00134c0,0 -2.182,1.22019 -3.40219,-0.96181z" fill="#323232" stroke="none" stroke-width="0.5" stroke-linecap="butt"></path><path d="M128.26244,210.02971c0.01089,0.02547 0.02197,0.0507 0.03327,0.07569zM127.95081,209.0628c0.45698,0.43976 1.51883,1.7306 0.30437,3.33936c-1.50625,1.9953 -3.50155,0.48905 -3.50155,0.48905l-0.68068,-0.91466l-0.48519,0.51798c-0.45639,0.48975 -1.1071,0.79602 -1.82934,0.79602c-0.59075,0 -1.13365,-0.2049 -1.5615,-0.54752c-0.10569,0.01363 -0.21345,0.02065 -0.32285,0.02065c-1.38071,0 -2.5,-1.11929 -2.5,-2.5c0,-0.38871 0.08871,-0.75669 0.24699,-1.08482l0.79363,-1.7429l-2.16183,1.42277c-0.40016,0.27201 -0.88336,0.43097 -1.40369,0.43097c-1.38071,0 -2.5,-1.11929 -2.5,-2.5c0,-0.07696 0.00348,-0.1531 0.01028,-0.22829l-1.40448,0.9979c-0.41294,0.30131 -0.92173,0.47912 -1.47204,0.47912c-1.38071,0 -2.5,-1.11929 -2.5,-2.5c0,-0.53583 0.16857,-1.03229 0.45558,-1.43923l1.98928,-2.90464l-3.86011,1.81024c-0.33423,0.16573 -0.71081,0.2589 -1.10916,0.2589c-0.07964,0 -0.15841,-0.00372 -0.23615,-0.01101l-0.71804,0.69495c-0.45012,0.43678 -1.06406,0.70567 -1.7408,0.70567c-1.38071,0 -2.5,-1.11929 -2.5,-2.5c0,-0.53896 0.17055,-1.03809 0.46062,-1.44636l1.88831,-2.73528c-1.15845,-0.21797 -2.03488,-1.23504 -2.03488,-2.45681c0,-0.39518 0.09169,-0.76894 0.25496,-1.10117c-0.35326,-0.11581 -0.67182,-0.30821 -0.93605,-0.55756l-1.23437,0.85268c-0.40837,0.29031 -0.9077,0.46102 -1.44691,0.46102c-1.36728,0 -2.4782,-1.09762 -2.49968,-2.45979l-1.65933,0.75876c-0.329,0.15933 -0.69821,0.24867 -1.08828,0.24867c-1.38071,0 -2.5,-1.11929 -2.5,-2.5c0,-0.85968 0.43392,-1.61801 1.09468,-2.06792l0.66793,-0.4677c-0.30994,-0.41634 -0.49337,-0.93244 -0.49337,-1.49138c0,-0.88718 0.46212,-1.66642 1.15879,-2.11015l2.68863,-1.76949l0.02449,0.03721l0.0659,-0.09398c1.33139,-0.72096 2.5861,-1.4413 3.83176,-2.14549l-2.26067,0.60911c-0.22375,0.0657 -0.46053,0.10094 -0.70555,0.10094c-0.33341,0 -0.65157,-0.06527 -0.94241,-0.18372c-0.2052,0.05447 -0.42077,0.0835 -0.64312,0.0835c-1.38071,0 -2.5,-1.11929 -2.5,-2.5c0,-0.28104 0.04637,-0.55125 0.13189,-0.8034l-0.33698,0.02678c-0.07447,0.00668 -0.14988,0.01009 -0.22609,0.01009c-0.84306,0 -1.58865,-0.4173 -2.04149,-1.05662c-0.33314,0.02295 -0.66277,0.00587 -0.98715,-0.07347l-3.13012,0.37068c-0.10853,0.01439 -0.21926,0.02182 -0.33173,0.02182c-1.38071,0 -2.5,-1.11929 -2.5,-2.5c0,-1.27254 0.95078,-2.32302 2.18072,-2.4798l2.89463,-0.41624l0.0004,0.00278c0.00375,-0.00148 0.0075,-0.00295 0.01125,-0.00442c2.75347,-1.08037 6.46889,-1.2048 9.92185,-1.29369c3.08977,-0.44953 6.17455,-0.92734 9.25442,-1.46213l-1.81596,-0.7251c-0.1211,0.01802 -0.24504,0.02736 -0.37116,0.02736c-0.39026,0 -0.75963,-0.08942 -1.08874,-0.24889l-4.49809,-2.058l0.01294,-0.02828c-0.37644,-0.18055 -0.73705,-0.36598 -1.09093,-0.56124c-0.20018,-0.06019 -0.39945,-0.12309 -0.59773,-0.1889l-0.07388,0.19084l-4.60836,-1.78407c-0.96325,-0.34735 -1.65185,-1.26948 -1.65185,-2.35245c0,-1.22714 0.88415,-2.24778 2.05017,-2.45964c0.44672,-0.41724 1.04657,-0.6726 1.70606,-0.6726c0.24252,0 0.47697,0.03453 0.69871,0.09895l0.32045,0.08538c-0.30383,-0.41395 -0.48328,-0.92488 -0.48328,-1.47773c0,-1.38071 1.11929,-2.5 2.5,-2.5c0.30774,0 0.6025,0.0556 0.87476,0.15731l2.98087,1.03463l-0.01397,0.04025c0.09331,0.02096 0.18634,0.04397 0.27906,0.06918c1.72376,0.46859 3.02548,1.90004 4.53822,2.85007l0.04524,0.06154l0.0144,-0.0201l3.59793,2.57803c0.64729,0.45182 1.07075,1.20217 1.07075,2.05143c0,0.86646 -0.44079,1.62997 -1.11037,2.07852c0.36626,0.43489 0.58694,0.99642 0.58694,1.6095c0,0.68915 -0.27884,1.31317 -0.72986,1.76539c0.74194,0.12293 1.68347,0.56905 1.94525,1.99946c0.45005,2.45916 -2.0091,2.90921 -2.0091,2.90921c-0.01028,0.00188 -0.02055,0.00376 -0.03083,0.00564c-0.18417,0.65997 -0.63235,1.20981 -1.22353,1.52854l-1.77304,0.99941c0.0339,0.17984 0.05245,0.37662 0.05245,0.59195c0,0.10627 -0.00452,0.20802 -0.01317,0.30545c0.70199,0.03771 1.53344,0.36338 2.02735,1.52555c0.30144,0.70928 0.2913,1.29283 0.13304,1.76077c0.09448,-0.01083 0.19056,-0.0164 0.28794,-0.0164c1.38071,0 2.5,1.11929 2.5,2.5c0,0.35949 -0.07588,0.70125 -0.21249,1.01016c0.97695,0.33995 1.67808,1.26897 1.67808,2.36175c0,0.00064 0,0.00129 0,0.00193c0.69262,0.4445 1.15155,1.22142 1.15155,2.10552c0,0.46478 -0.12683,0.89994 -0.34777,1.27275l-0.49647,0.87451c0.7544,0.43038 1.26298,1.2423 1.26298,2.173c0,0.42712 -0.10711,0.82923 -0.29594,1.18092c1.59639,-0.01434 3.313,0.2272 3.75737,1.51711c0.25687,0.74562 0.18131,1.49122 -0.0654,2.23679c0.7892,0.42034 1.32643,1.25143 1.32643,2.20799c0,0.00282 0,0.00564 -0.00001,0.00846l-0.00231,0.79786c0.66856,-0.34429 1.68999,-0.54834 2.75388,0.44255c0.56373,0.52505 0.79196,1.06203 0.83792,1.55371c0.58893,-0.47269 1.75481,-1.07538 3.10556,0.0085c0.67582,0.5423 0.92944,1.13088 0.97234,1.66851c0.03559,0.00666 0.07181,0.01519 0.10866,0.02567c1.5552,0.44195 1.64575,2.58266 2.08116,4.32339z" fill="#323232" stroke="none" stroke-width="0.5" stroke-linecap="butt"></path><path d="M129.29577,156.08796c-0.80667,0 -1.09277,-0.52058 -1.19424,-0.88983c-1.77356,-2.44962 -0.87239,4.60999 -3.05471,5.28968c-0.89871,0.27991 -1.40311,-1.28742 -2.23805,-1.72204c-0.76563,-0.39854 -1.77903,-0.48992 -2.52217,-0.87793v1.05963v0c0,0.69036 -0.55964,1.25 -1.25,1.25c-0.32671,0 -0.62414,-0.12534 -0.84684,-0.33055l-1.13534,-1.03891c-0.29741,-0.25648 -0.60595,-0.50065 -0.89139,-0.77038c-0.22268,-0.21043 -0.53279,-0.9591 -0.63055,-0.66874c-0.11121,0.33032 0.44252,0.55544 0.55797,0.8843c0.53294,1.51807 0.70077,2.80064 1.6693,4.17548c0,0 0.71368,1.02624 -0.31255,1.73992c-1.02624,0.71368 -1.73992,-0.31255 -1.73992,-0.31255c-0.2795,-0.40616 -0.74495,-1.2089 -1.19743,-2.17145c-0.01239,0.02436 -0.02563,0.04896 -0.03977,0.07381c-0.61812,1.08648 -1.70459,0.46836 -1.70459,0.46836c-0.4408,-0.25081 -0.88239,-0.50025 -1.32481,-0.74823c0.90035,0.98215 1.75811,2.04653 2.67334,2.88799l0.02011,0.04349l0.01164,-0.01095l0.98388,1.04596c0.21165,0.22392 0.34142,0.52605 0.34142,0.85849c0,0.69036 -0.55964,1.25 -1.25,1.25c-0.11217,0 -0.2209,-0.01478 -0.32433,-0.04249l-2.40121,-0.58791l0.06085,-0.24853c-0.43838,-0.06502 -0.86634,-0.14199 -1.29381,-0.23054c0.31277,0.25121 0.58541,0.47091 0.79427,0.6213l1.22772,0.82383c0.34274,0.22291 0.56939,0.60931 0.56939,1.04863c0,0.69036 -0.55964,1.25 -1.25,1.25c-0.01775,0 -0.03541,-0.00037 -0.05298,-0.0011c0.27644,0.84118 0.03849,1.67273 -0.48002,2.46214c0.20401,0.22245 0.32852,0.519 0.32852,0.84463c0,0.30567 -0.10972,0.58572 -0.29192,0.8029l-1.58714,1.92047l-0.21544,-0.17804c-0.43431,0.69951 -0.90207,1.37741 -1.40316,2.02728c-0.4932,0.63963 -0.90181,1.34025 -1.35639,2.00788c-0.13648,0.20045 -0.53009,0.48501 -0.83747,0.68532c1.23049,-0.59794 3.27951,-0.70143 4.44832,-1.02245l2.26628,-0.86588c0.14589,-0.05967 0.30557,-0.09257 0.47294,-0.09257c0.69036,0 1.25,0.55964 1.25,1.25c0,0.4968 -0.28982,0.9259 -0.7096,1.12747l-2.20669,1.11662l-0.1142,-0.22569l-0.10872,0.04154l-0.02005,-0.05247l-0.03711,0.07273c-0.0584,0.01586 -0.12052,0.0328 -0.18609,0.05066c-0.12684,0.08391 -0.25399,0.16642 -0.38157,0.24777l2.10503,0.09465c-0.47379,2.00088 -0.97554,2.87246 -1.92992,3.81164c1.52263,-0.57008 3.18237,-0.83248 3.80821,-0.03733c1.0671,1.35578 0.60984,2.77529 -0.30051,4.06163c0.27412,-0.0885 0.55035,-0.16637 0.82589,-0.23404c0.87757,-0.21552 2.20326,-0.90282 2.70665,-0.15237c0.6993,1.04251 0.05831,2.54881 -0.2902,3.75479c-0.11134,0.38528 -1.37326,0.55761 -0.99173,0.6812c0.81884,0.26523 1.53346,-0.77143 2.3147,-1.14432l2.03177,-1.30144c0.19769,-0.13105 0.43482,-0.20738 0.68977,-0.20738c0.69036,0 1.25,0.55964 1.25,1.25c0,0.07722 -0.007,0.1528 -0.0204,0.22615l-0.40234,2.44371l-0.03804,-0.00626c-0.01123,0.09412 -0.02468,0.18808 -0.04062,0.28184c-0.03563,0.20954 -0.09637,0.40907 -0.17642,0.60093l0.84082,-0.65064c0.21286,-0.16806 0.4817,-0.26836 0.77396,-0.26836c0.69036,0 1.25,0.55964 1.25,1.25v0.48301c1.51613,-1.44436 2.94309,-1.88584 3.0278,1.66083c0.02138,0.89526 -0.68704,1.65408 -1.04295,2.47583c-0.07275,0.16796 -0.14644,0.3355 -0.22075,0.50278c0.36279,-0.10545 1.01537,-0.15968 1.43152,0.59827c0.6016,1.09571 -0.49411,1.69731 -0.49411,1.69731l-1.17125,0.64284c-0.00755,0.0016 -0.01511,0.00321 -0.02266,0.00481l0.00274,0.00544l-1.65263,0.83173c-0.17437,0.09237 -0.37322,0.14468 -0.58428,0.14468c-0.69036,0 -1.25,-0.55964 -1.25,-1.25c0,-0.17316 0.03521,-0.33809 0.09886,-0.48803l0.43297,-1.08948c-0.38313,0.44779 -0.76665,0.86026 -1.16992,1.25283c-0.15434,0.21683 -0.29559,0.41524 -0.41616,0.58876l0.06932,0.05051l-1.14223,1.5678c-0.22653,0.31876 -0.59879,0.52672 -1.01962,0.52672c-0.69036,0 -1.25,-0.55964 -1.25,-1.25c0,-0.26139 0.08023,-0.50404 0.21741,-0.70467l1.03728,-1.56615l0.00464,0.00307l0.00326,-0.01484c0.9109,-1.30599 1.66322,-2.71087 2.45144,-4.0953c-0.54114,0.31265 -1.11848,0.56825 -1.71658,0.77776l0.13597,0.40525l-2.34249,0.78595c-0.13275,0.04802 -0.27595,0.07421 -0.42527,0.07421c-0.69036,0 -1.25,-0.55964 -1.25,-1.25c0,-0.25741 0.07781,-0.49665 0.21119,-0.69548l0.94582,-1.45779c0.55644,-0.8709 1.0635,-1.65554 1.62286,-2.41196c-1.52518,0.68873 -3.6494,1.64382 -5.08928,0.08491c-0.28133,-0.30459 0.11963,-1.74708 0.69615,-2.82579c-0.44,0.19548 -0.90348,0.35151 -1.34214,0.54645c-0.6657,0.29583 -1.35911,0.52011 -2.06751,0.69844l0.05856,0.14031l-2.28135,0.95213c-0.15501,0.06891 -0.32665,0.1072 -0.50723,0.1072c-0.69036,0 -1.25,-0.55964 -1.25,-1.25c0,-0.34301 0.13816,-0.65375 0.36186,-0.87961l1.27752,-1.2909c0.76462,-0.86226 3.07706,-2.7303 3.44495,-3.89284c0.05714,-0.18056 -0.18866,0.35475 -0.35657,0.44234c-0.3908,0.20386 -0.84531,0.2518 -1.26008,0.40098c-0.86565,0.31137 -1.65999,0.98968 -2.57988,0.98022c-0.10282,-0.00106 -0.20466,-0.00801 -0.30565,-0.02002l-0.00258,0.02179l-1.76389,-0.20887c-0.62868,-0.06558 -1.11878,-0.59716 -1.11878,-1.24319c0,-0.34371 0.13872,-0.65502 0.36323,-0.88099c0.00007,-0.00007 0.00014,-0.00014 0.00021,-0.00021l1.46539,-1.475l0.008,0.00795l0.02648,-0.04135c0.1032,-0.08916 0.20735,-0.19023 0.31261,-0.29889c-0.44281,0.07859 -0.86341,0.10757 -1.31961,0.08149l-0.03427,0.37451l-2.29031,-0.20958c-0.64306,-0.05149 -1.14886,-0.58966 -1.14886,-1.24597c0,-0.46224 0.2509,-0.86587 0.62393,-1.08216l1.05866,-0.63847l0.00237,0.00394l0.00875,-0.01057c0.04339,-0.02493 0.08678,-0.05007 0.13019,-0.07539c-0.42407,-0.09748 -0.78635,-0.25988 -1.05349,-0.50717c-0.63112,-0.58422 0.05936,-1.73692 0.30026,-2.5625c0.17497,-0.59962 0.47051,-1.22749 0.85212,-1.83694l-0.23003,0.08104c-0.13763,0.05214 -0.28687,0.08068 -0.44277,0.08068c-0.69036,0 -1.25,-0.55964 -1.25,-1.25c0,-0.42844 0.21555,-0.80653 0.54412,-1.03176l1.01153,-0.7127c1.0249,-0.81109 2.03828,-1.63663 3.06013,-2.45155c0.32536,-0.25947 0.66034,-0.50714 0.98962,-0.76173c-1.79924,0.37565 -3.54834,0.0832 -5.9084,-0.07027l-0.02303,-0.01228l-0.00104,0.01002l-1.46911,-0.15264c-0.63646,-0.05805 -1.13501,-0.59319 -1.13501,-1.24478c0,-0.65283 0.50045,-1.18877 1.13864,-1.24511l2.4736,-0.24898l0.01504,0.14944c0.36624,-0.10636 0.73402,-0.20046 1.10517,-0.27935c-0.87206,-0.53572 -1.63516,-1.08831 -2.38332,-1.76326l-0.17929,0.24472l-2.0041,-1.46831c-0.31711,-0.22672 -0.52381,-0.59799 -0.52381,-1.01754c0,-0.69036 0.55964,-1.25 1.25,-1.25c0.16392,0 0.32047,0.03155 0.46391,0.08891l2.31531,0.8637l-0.00243,0.00652l0.02438,0.0019c0.22987,0.0958 0.46614,0.18555 0.70676,0.27143l-0.29996,-0.66427c-0.07811,-0.1632 -0.12185,-0.34599 -0.12185,-0.53899c0,-0.69036 0.55964,-1.25 1.25,-1.25c0.13298,0 0.26111,0.02077 0.38133,0.05923l1.45228,0.42821l-0.00032,0.00107l0.00423,0.00009c1.0959,0.33099 2.24733,0.57001 3.32462,0.92663c-0.77508,-0.88733 -1.41533,-1.77647 -1.99826,-2.78983l-0.19126,0.12839l-1.38397,-2.06172c-0.1397,-0.20178 -0.22154,-0.44667 -0.22154,-0.71067c0,-0.69036 0.55964,-1.25 1.25,-1.25c0.1014,0 0.19999,0.01207 0.29439,0.03486l1.45786,0.32023l-0.01245,0.05668l0.17678,-0.00858c1.46106,0.77197 2.912,1.56359 4.34966,2.37834c-0.63581,-1.8175 -0.9065,-3.70813 0.16907,-4.50397c0.90289,-0.66807 2.27658,0.0463 3.34748,0.385c0.05747,0.01818 0.11285,0.04027 0.16646,0.06569l-0.14211,-0.71519c-0.01898,-0.0866 -0.02898,-0.17656 -0.02898,-0.26885c0,-0.69036 0.55964,-1.25 1.25,-1.25c0.22205,0 0.43058,0.0579 0.61131,0.15942l1.40858,0.75496l-0.10749,0.20054c1.73237,0.71002 3.34421,1.72385 4.03294,3.15775c-0.10982,-0.26143 -0.29796,-0.75515 -0.28239,-0.98931c0.06021,-0.90548 0.14104,-1.86531 0.57889,-2.66017c1.87166,-3.39776 3.67031,-2.81129 5.53079,-0.26911l0.22377,0.81906c0,0 0,1.25 -1.25,1.25z" fill="#737373" stroke="none" stroke-width="0.5" stroke-linecap="butt"></path><path d="M126.1311,193.65556c-1.09438,0.60401 -1.69839,-0.49037 -1.69839,-0.49037l-0.48559,-0.88439c-0.65446,-1.04911 -1.41235,-2.46727 -2.12658,-3.37532c-1.02651,-1.30508 -3.30717,-2.07076 -4.27656,-3.35243c-0.57057,-0.75437 -0.50661,-1.85518 -1.02638,-2.64541c-0.76352,-1.1608 -2.4257,-2.24895 -2.86347,-3.5729c-0.25221,-0.76276 0.43701,-1.7723 -0.05218,-2.40957c-1.0498,-1.3676 -1.82977,-1.65307 -1.64465,-3.67748c-0.29588,-0.77535 -1.0668,-1.51572 -0.88764,-2.32604c0.11636,-0.52631 1.09776,-0.21311 1.52243,-0.54507c0.146,-0.11413 -0.43513,-0.08467 -0.49063,-0.26149c-0.25219,-0.80348 -0.7597,-1.74888 -0.37561,-2.49832c0.22471,-0.43844 0.82344,-0.43272 1.38153,-0.44579c-0.91705,-0.84853 -1.42676,-3.44034 -1.2704,-3.67299c0.52017,-0.77393 2.78091,-0.42375 3.75954,-0.21864c-0.54238,-0.75026 -0.71898,-1.88907 -0.3424,-2.56981c1.12441,-2.03257 4.80827,0.1357 5.98888,0.68916c0,0 1.1314,0.53145 0.59995,1.66285c-0.53145,1.1314 -1.66285,0.59995 -1.66285,0.59995c-0.38635,-0.18187 -0.76851,-0.37302 -1.15609,-0.55217c0.27065,0.505 0.40578,1.08113 0.28537,1.50597c-0.48408,1.70808 -1.87676,1.61075 -3.05898,1.36587c0.33684,0.45812 0.54794,0.94952 0.47622,1.33167c-0.13484,0.71842 -1.43049,1.68065 -2.26236,1.9824c0.28599,0.70459 0.62871,1.54793 0.33895,2.24793c-0.18357,0.44348 -1.24471,-0.15315 -1.40877,0.29792c-0.14815,0.40733 0.66444,0.55675 0.99666,0.83512c-0.06548,1.04195 0.75946,1.95441 1.28654,2.85559c0.52028,0.88955 0.11725,2.06986 0.36656,3.06978c0.18988,0.76157 2.14916,2.28745 2.58019,2.96017c0.46045,0.71863 0.32446,1.74624 0.85795,2.41245c0.96734,1.20799 3.22969,2.09627 4.30766,3.3914c0.73205,0.87952 1.61252,2.55023 2.27022,3.57924l0.56124,1.01232c0,0 0.60401,1.09438 -0.49037,1.69839z" fill="#cdcdcd" stroke="none" stroke-width="0.5" stroke-linecap="butt"></path></g></g></svg>