<svg version="1.1" xmlns="http://www.w3.org/2000/svg" xmlns:xlink="http://www.w3.org/1999/xlink" width="81.29791" height="53" viewBox="0,0,81.29791,53"><g transform="translate(-11.45209,-153.91665)"><g data-paper-data="{&quot;isPaintingLayer&quot;:true}" fill-rule="nonzero" stroke="#000000" stroke-linejoin="miter" stroke-miterlimit="10" stroke-dasharray="" stroke-dashoffset="0" style="mix-blend-mode: normal"><g stroke-width="1"><path d="M47.46616,195.71348l-9.7981,0.10342l-0.04063,-3.84925l9.7981,-0.10342z" fill="#af5400" stroke-linecap="butt"></path><path d="M42.20083,192.00979c0,0 -0.34727,1.59343 -0.83691,2.25035c-0.44078,0.59137 -1.96977,1.51522 -1.96977,1.51522" fill="none" stroke-linecap="round"></path><path d="M39.72748,191.98922c0,0 1.54815,0.89136 2.00131,1.4733c0.50339,0.64644 0.88423,2.23218 0.88423,2.23218" data-paper-data="{&quot;index&quot;:null}" fill="none" stroke-linecap="round"></path><path d="M42.385,191.77452c0,0 1.54815,0.89136 2.00131,1.4733c0.50339,0.64644 0.88423,2.23218 0.88423,2.23218" data-paper-data="{&quot;index&quot;:null}" fill="none" stroke-linecap="round"></path><path d="M45.18593,191.88495c0,0 -0.34727,1.59343 -0.83692,2.25035c-0.44078,0.59137 -1.96977,1.51522 -1.96977,1.51522" data-paper-data="{&quot;index&quot;:null}" fill="none" stroke-linecap="round"></path><path d="M36.94469,189.78091c0.59267,-0.00626 1.09209,1.78515 1.11548,4.00123c0.02339,2.21607 -0.4381,4.01763 -1.03077,4.02388c-0.59267,0.00626 -1.09209,-1.78515 -1.11548,-4.00123c-0.02339,-2.21607 0.4381,-4.01763 1.03077,-4.02388z" fill="#8f8f8f" stroke-linecap="butt"></path><path d="M36.36535,195.3791l-24.27378,0.24009c0,0 -0.63369,-0.99539 -0.63948,-1.51021c-0.00601,-0.53426 0.60401,-1.63918 0.60401,-1.63918l24.27378,-0.24009z" fill="#dddddd" stroke-linecap="butt"></path></g><path d="M40.5,180.41665c0,-14.22133 11.52867,-25.75 25.75,-25.75c14.22133,0 25.75,11.52867 25.75,25.75c0,14.22133 -11.52867,25.75 -25.75,25.75c-14.22133,0 -25.75,-11.52867 -25.75,-25.75z" fill="#c8c8c8" stroke-width="1.5" stroke-linecap="butt"></path></g></g></svg>