<svg version="1.1" xmlns="http://www.w3.org/2000/svg" xmlns:xlink="http://www.w3.org/1999/xlink" width="127.38341" height="80.5" viewBox="0,0,127.38341,80.5"><g transform="translate(-151.85513,-137.92395)"><g data-paper-data="{&quot;isPaintingLayer&quot;:true}" fill-rule="nonzero" stroke="#000000" stroke-linejoin="miter" stroke-miterlimit="10" stroke-dasharray="" stroke-dashoffset="0" style="mix-blend-mode: normal"><path d="M199.48855,178.17395c0,-21.81525 17.68475,-39.5 39.5,-39.5c21.81525,0 39.5,17.68475 39.5,39.5c0,21.81525 -17.68475,39.5 -39.5,39.5c-21.81525,0 -39.5,-17.68475 -39.5,-39.5z" fill="#d8d8d8" stroke-width="1.5" stroke-linecap="butt"></path><path d="M211.59119,171.04031l10.50327,2.49047v6.33333" fill="none" stroke-width="1.5" stroke-linecap="round"></path><path d="M230.53462,179.67749v-6.33333l12.72324,-2.63719" data-paper-data="{&quot;index&quot;:null}" fill="none" stroke-width="1.5" stroke-linecap="round"></path><path d="M222.98855,197.04895l18.25,-1z" fill="#040404" stroke-width="1.5" stroke-linecap="round"></path><g stroke-width="1"><path d="M221.5569,210.53416l-20.0271,-6.31783l2.48201,-7.86778l20.0271,6.31783z" fill="#af5400" stroke-linecap="butt"></path><path d="M213.2995,199.48162c0,0 -1.76908,3.01434 -3.20415,4.02619c-1.29187,0.91089 -5.02191,1.77395 -5.02191,1.77395" fill="none" stroke-linecap="round"></path><path d="M208.27511,197.79175c0,0 2.55958,2.84721 3.0949,4.33452c0.59467,1.65216 0.31381,5.13601 0.31381,5.13601" data-paper-data="{&quot;index&quot;:null}" fill="none" stroke-linecap="round"></path><path d="M213.83139,199.12513c0,0 2.55958,2.84721 3.0949,4.33452c0.59467,1.65216 0.31381,5.13601 0.31381,5.13601" data-paper-data="{&quot;index&quot;:null}" fill="none" stroke-linecap="round"></path><path d="M219.46316,201.21633c0,0 -1.76909,3.01435 -3.20416,4.0262c-1.29187,0.91089 -5.02191,1.77395 -5.02191,1.77395" data-paper-data="{&quot;index&quot;:null}" fill="none" stroke-linecap="round"></path><path d="M204.07814,191.43937c1.21141,0.38217 1.03506,4.36393 -0.39386,8.89353c-1.42893,4.5296 -3.56934,7.89177 -4.78073,7.50962c-1.21141,-0.38217 -1.03506,-4.36393 0.39386,-8.89353c1.42893,-4.5296 3.56934,-7.89177 4.78073,-7.50962z" fill="#8f8f8f" stroke-linecap="butt"></path><path d="M199.16799,202.45656l-46.4915,-14.6664c0,0 -0.5463,-2.4232 -0.21434,-3.4755c0.3445,-1.092 2.24506,-2.9618 2.24506,-2.9618l46.4915,14.6664z" fill="#dddddd" stroke-linecap="butt"></path></g></g></g></svg>