<svg version="1.1" xmlns="http://www.w3.org/2000/svg" xmlns:xlink="http://www.w3.org/1999/xlink" width="118.34246" height="137.46825" viewBox="0,0,118.34246,137.46825"><g transform="translate(-170.7334,-121.50027)"><g data-paper-data="{&quot;isPaintingLayer&quot;:true}" fill="#ff38fc" fill-rule="nonzero" stroke="none" stroke-linecap="butt" stroke-linejoin="miter" stroke-miterlimit="10" stroke-dasharray="" stroke-dashoffset="0" style="mix-blend-mode: normal"><path d="M254.56262,171.9402c18.58639,23.34556 12.84426,70.97368 12.84426,70.97368c0,0 -16.6817,-43.36435 -29.02469,-60.46258c-12.42539,-17.21237 -45.28208,-42.47148 -45.28208,-42.47148c0,0 43.73234,9.69031 61.46249,31.96036z" data-paper-data="{&quot;index&quot;:null}" stroke-width="NaN"></path><path d="M275.39408,153.46065c18.58639,23.34556 12.84426,70.97368 12.84426,70.97368c0,0 -16.6817,-43.36435 -29.02469,-60.46258c-12.42538,-17.21237 -45.28208,-42.47148 -45.28208,-42.47148c0,0 43.73235,9.69032 61.4625,31.96037z" data-paper-data="{&quot;index&quot;:null}" stroke-width="NaN"></path><path d="M232.19591,187.99484c18.5864,23.34556 12.84426,70.97368 12.84426,70.97368c0,0 -16.68171,-43.36435 -29.0247,-60.46257c-12.42538,-17.21237 -45.28208,-42.47148 -45.28208,-42.47148c0,0 43.73235,9.69032 61.4625,31.96037z" data-paper-data="{&quot;index&quot;:null}" stroke-width="NaN"></path></g></g></svg>