<svg version="1.1" xmlns="http://www.w3.org/2000/svg" xmlns:xlink="http://www.w3.org/1999/xlink" width="166.93977" height="80.5" viewBox="0,0,166.93977,80.5"><g transform="translate(-134.74791,-140.3707)"><g data-paper-data="{&quot;isPaintingLayer&quot;:true}" fill-rule="nonzero" stroke-linejoin="miter" stroke-miterlimit="10" stroke-dasharray="" stroke-dashoffset="0" style="mix-blend-mode: normal"><path d="" data-paper-data="{&quot;index&quot;:null}" fill="none" stroke="#000000" stroke-width="1.5" stroke-linecap="round"></path><path d="" data-paper-data="{&quot;index&quot;:null}" fill="none" stroke="#000000" stroke-width="1.5" stroke-linecap="round"></path><path d="M301.68768,195.47554" data-paper-data="{&quot;index&quot;:null}" fill="none" stroke="#d8d8d8" stroke-width="4" stroke-linecap="round"></path><path d="M199.18372,180.6207c0,-21.81525 17.68475,-39.5 39.5,-39.5c21.81525,0 39.5,17.68475 39.5,39.5c0,21.81525 -17.68475,39.5 -39.5,39.5c-21.81525,0 -39.5,-17.68475 -39.5,-39.5z" data-paper-data="{&quot;index&quot;:null}" fill="#d8d8d8" stroke="#000000" stroke-width="1.5" stroke-linecap="butt"></path><path d="M254.35771,169.6083l-11.07275,4.59202" data-paper-data="{&quot;index&quot;:null}" fill="none" stroke="#000000" stroke-width="1.5" stroke-linecap="round"></path><path d="M248.94146,178.95914l0.25511,-5.86758" data-paper-data="{&quot;index&quot;:null}" fill="none" stroke="#000000" stroke-width="1.5" stroke-linecap="round"></path><path d="M239.9685,174.57761l-14.45771,-4.12252" data-paper-data="{&quot;index&quot;:null}" fill="none" stroke="#000000" stroke-width="1.5" stroke-linecap="round"></path><path d="M234.22147,173.05217l0.21988,5.35892" data-paper-data="{&quot;index&quot;:null}" fill="none" stroke="#000000" stroke-width="1.5" stroke-linecap="round"></path><path d="M233.8131,191.53176l18.63798,0.59168" fill="none" stroke="#000000" stroke-width="1.5" stroke-linecap="round"></path><g data-paper-data="{&quot;index&quot;:null}" stroke="#000000" stroke-linecap="butt"><path d="M164.23142,194.47423l-21.29469,-3.52155c0,0 -2.97235,-2.74188 -2.73261,-3.80819c0.24015,-1.06823 4.17223,-2.59537 4.17223,-2.59537l21.29469,3.52155z" fill="#af5400" stroke-width="1.5"></path><path d="M166.71107,203.25298c0,0 -5.7547,0.7751 -7.71416,-1.63559c-2.29546,-2.82407 -1.01881,-8.23541 -0.30928,-11.81523c1.31509,-6.63566 4.87637,-11.75572 7.95429,-11.43604c1.43013,0.14856 5.61147,2.04848 5.61147,2.04848c0,0 -1.71554,6.99291 -2.41957,10.54537c-1.3151,6.63565 -3.12274,12.293 -3.12274,12.293z" fill="#989898" stroke-width="1"></path><path d="M166.84468,203.68916c-3.07793,-0.31973 -4.50698,-5.95814 -3.1919,-12.59385c1.31512,-6.63566 4.87633,-11.75574 7.95427,-11.43606c3.07793,0.31971 4.507,5.95818 3.1919,12.59382c-1.31512,6.63566 -4.87634,11.75575 -7.95427,11.43606z" fill="#989898" stroke-width="1"></path><path d="M168.96632,188.38123l97.31102,18.62067l-14.66645,3.13295l-84.11631,-16.09579c0,0 -1.32124,-1.95623 -1.07884,-2.8879c0.24812,-0.9537 2.55062,-2.76993 2.55062,-2.76993z" fill="#e6e6e6" stroke-width="0.5"></path></g><path d="M135.87715,184.2963c1.27853,-5.48998 6.76552,-8.90406 12.25552,-7.6255c5.48998,1.27853 8.90406,6.76552 7.6255,12.25552c-1.27853,5.48998 -6.76552,8.90406 -12.25552,7.6255c-5.48998,-1.27853 -8.90406,-6.76552 -7.6255,-12.25552z" fill="#d8d8d8" stroke="#000000" stroke-width="1" stroke-linecap="butt"></path><path d="M135.24791,186.87972c0.80112,-5.57967 5.97379,-9.45347 11.55346,-8.65235c5.57967,0.80112 9.45347,5.97379 8.65235,11.55346c-0.80112,5.57967 -5.97378,9.45348 -11.55345,8.65236c-5.57967,-0.80112 -9.45346,-5.97379 -8.65236,-11.55346z" data-paper-data="{&quot;index&quot;:null}" fill="#d8d8d8" stroke="#000000" stroke-width="1" stroke-linecap="butt"></path></g></g></svg>