<svg version="1.1" xmlns="http://www.w3.org/2000/svg" xmlns:xlink="http://www.w3.org/1999/xlink" width="65.875" height="65.875" viewBox="0,0,65.875,65.875"><g transform="translate(-207.0625,-147.0625)"><g data-paper-data="{&quot;isPaintingLayer&quot;:true}" fill-rule="nonzero" stroke="none" stroke-linejoin="miter" stroke-miterlimit="10" stroke-dasharray="" stroke-dashoffset="0" style="mix-blend-mode: normal"><path d="M207.0625,180c0,-18.19088 14.74662,-32.9375 32.9375,-32.9375c18.19088,0 32.9375,14.74662 32.9375,32.9375c0,18.19088 -14.74662,32.9375 -32.9375,32.9375c-18.19088,0 -32.9375,-14.74662 -32.9375,-32.9375z" fill="#000000" stroke-width="0" stroke-linecap="butt"></path><g data-paper-data="{&quot;index&quot;:null}" fill="#ffffff" stroke-width="0"><path d="M231.92605,204.02678l6.80476,-8.83418l3.47057,2.67329l-6.80476,8.83418z" stroke-linecap="butt"></path><path d="M244.63735,198.79473l-2.27533,-0.30025l-4.01732,-3.04547l-0.94296,-2.2277l2.51942,0.39578l4.0856,3.36242z" stroke-linecap="butt"></path><path d="M240.03932,194.33593l19.30928,-27.37564l4.74999,-0.85826l0.35003,4.49297l-21.5639,25.92072z" stroke-linecap="butt"></path><path d="M256.42684,175.69036l-14.73549,19.37848" stroke-linecap="round"></path></g><path d="M255.01637,166.63439c0,7.4262 -6.52165,2.20238 -10.09374,0.37447c-10.00321,-5.11885 -21.80423,-7.72924 -21.80423,-7.72924c0,0 31.89797,-0.43006 31.89797,7.35477z" fill="#ffffff" stroke-width="NaN" stroke-linecap="butt"></path><path d="M246.94511,175.81236c0,5.83218 -5.12179,1.72964 -7.92713,0.29409c-7.85604,-4.0201 -17.12399,-6.07017 -17.12399,-6.07017c0,0 25.05112,-0.33776 25.05112,5.77608z" fill="#ffffff" stroke-width="NaN" stroke-linecap="butt"></path><path d="M240.89678,185.03812c0,4.60044 -4.04008,1.36434 -6.25294,0.23197c-6.19686,-3.17106 -13.50743,-4.78816 -13.50743,-4.78816c0,0 19.76038,-0.26642 19.76038,4.55618z" fill="#ffffff" stroke-width="NaN" stroke-linecap="butt"></path></g></g></svg>