<svg version="1.1" xmlns="http://www.w3.org/2000/svg" xmlns:xlink="http://www.w3.org/1999/xlink" width="106.57539" height="99.19991" viewBox="0,0,106.57539,99.19991"><g transform="translate(-225.73489,-121.0501)"><g data-paper-data="{&quot;isPaintingLayer&quot;:true}" fill-rule="nonzero" stroke-linejoin="miter" stroke-miterlimit="10" stroke-dasharray="" stroke-dashoffset="0" style="mix-blend-mode: normal"><path d="" data-paper-data="{&quot;index&quot;:null}" fill="none" stroke="#000000" stroke-width="1.5" stroke-linecap="round"></path><path d="M226.48489,180.00001c0,-21.81525 17.68475,-39.5 39.5,-39.5c21.81525,0 39.5,17.68475 39.5,39.5c0,21.81525 -17.68475,39.5 -39.5,39.5c-21.81525,0 -39.5,-17.68475 -39.5,-39.5z" data-paper-data="{&quot;index&quot;:null}" fill="#d8d8d8" stroke="#000000" stroke-width="1.5" stroke-linecap="butt"></path><path d="" data-paper-data="{&quot;index&quot;:null}" fill="none" stroke="#000000" stroke-width="1.5" stroke-linecap="round"></path><path d="" data-paper-data="{&quot;index&quot;:null}" fill="none" stroke="#000000" stroke-width="1.5" stroke-linecap="round"></path><path d="M289.01805,169.3547l1.78529,9.65943" data-paper-data="{&quot;index&quot;:null}" fill="none" stroke="#000000" stroke-width="1.5" stroke-linecap="round"></path><path d="M297.14739,176.39787l-1.78529,-9.65943" data-paper-data="{&quot;index&quot;:null}" fill="none" stroke="#000000" stroke-width="1.5" stroke-linecap="round"></path><path d="M310.47922,179.54346c0,-5.85589 4.74714,-10.60303 10.60303,-10.60303c5.85589,0 10.60303,4.74714 10.60303,10.60303c0,5.85589 -4.74714,10.60303 -10.60303,10.60303c-5.85589,0 -10.60303,-4.74714 -10.60303,-10.60303z" data-paper-data="{&quot;index&quot;:null}" fill="#d8d8d8" stroke="#000000" stroke-width="1.25" stroke-linecap="butt"></path><path d="M272.07093,183.05442c0.22929,-0.26595 0.45556,-0.53356 0.67815,-0.80279c-1.09146,-0.26836 -1.90106,-1.25353 -1.90106,-2.4278c0,-0.992 0.57778,-1.84906 1.41517,-2.253l1.76117,-0.89502l-0.64724,0c-1.25208,0 -2.28918,-0.92045 -2.47155,-2.1216c-0.32834,-0.02615 -0.61335,-0.06674 -0.84178,-0.12476c-0.05774,-0.01466 -0.11521,-0.03003 -0.17244,-0.04605l-0.00389,0.02722l-3.09972,-0.44282c-1.23096,-0.15585 -2.18283,-1.2068 -2.18283,-2.48007c0,-1.11883 0.73496,-2.066 1.74843,-2.38505l4.09782,-1.39633l0.00751,0.02204l0.06794,-0.04642c0.42368,-0.115 2.33502,-0.65372 4.38368,-1.195c0.03606,-1.26466 1.01134,-2.29413 2.25287,-2.41544l4.00216,-0.44468l0.00021,0.00189c0.77707,-0.08759 1.62473,0.02453 2.29567,-0.36332c0.1689,-0.09764 0.30468,-0.21455 0.41076,-0.34804c-1.77404,-1.17374 -3.55814,-2.30649 -5.35569,-3.40102c-0.3494,1.92696 -2.45105,1.92696 -2.45105,1.92696l-2.01406,-0.26393c-5.06279,-2.53239 -10.22043,-4.68362 -15.13255,-7.51684c-2.06622,-1.19176 -7.29781,-3.95548 -8.77913,-5.90973c-0.05558,-0.07332 -0.10962,-0.14756 -0.16223,-0.22264l-0.0254,0.02117l-2.22957,-2.67549c-0.36806,-0.43538 -0.58995,-0.99831 -0.58995,-1.61307c0,-1.38071 1.11929,-2.5 2.5,-2.5c0.22872,0 0.45026,0.03071 0.66073,0.08824l3.52973,0.88243l-0.01271,0.05082l0.17563,-0.00417c9.20014,3.66819 17.80633,7.87236 26.11978,12.85562c-0.00896,-0.03358 -0.01766,-0.0672 -0.02613,-0.10086l-0.03979,0.01705l-1.32227,-3.08531c-0.1438,-0.31554 -0.22391,-0.66621 -0.22391,-1.0356c0,-1.38071 1.11929,-2.5 2.5,-2.5c0.91991,0 1.72377,0.49685 2.15787,1.23683l2.08711,3.42305c0.285,0.45448 0.56569,0.90254 0.84126,1.3463c0.57105,0.74286 1.10265,1.62607 1.55048,2.567c0.62439,1.0754 1.20809,2.14981 1.73915,3.25524c0.93348,-2.6314 2.00382,-5.21565 3.11152,-7.7784c3.75889,-8.69648 7.30549,-17.46639 10.84486,-26.25423l0.01897,-0.02186l-0.00825,-0.00354l1.32135,-3.08315c0.36945,-0.91919 1.26922,-1.56816 2.32056,-1.56816c1.30615,0 2.37835,1.00167 2.49034,2.27874l0.44526,4.45265l-0.04459,0.00446c0.02056,0.12717 0.03834,0.25498 0.05312,0.38351c0.20901,1.81811 -2.13528,8.52819 -2.69773,10.27558c-2.28254,7.09128 -5.13703,13.69535 -8.2572,20.33516c0.19312,-0.07914 0.38273,-0.16288 0.56689,-0.25381l3.95002,-2.19446c0.36858,-0.21408 0.79688,-0.33666 1.25381,-0.33666c1.38071,0 2.5,1.11929 2.5,2.5c0,0.64653 -0.24542,1.23573 -0.64818,1.67954l-3.33841,3.70934l-0.36385,-0.32747c-0.20088,0.292 -0.40577,0.5809 -0.61496,0.86629c0.97941,0.11505 1.94627,0.28575 2.91341,0.51064v-0.42605h2.68809c1.38071,0 2.5,1.11929 2.5,2.5c0,1.1246 -0.74256,2.07576 -1.76412,2.38994l-3.97745,1.32582l-0.03799,-0.11396l-0.28434,0.19801c-1.73681,0.10317 -3.48029,0.07468 -5.22092,-0.0462l0.01279,0.23192c0.08534,0.05871 0.17078,0.11728 0.25637,0.17561l2.14634,1.28781c0.74893,0.43183 1.25305,1.24069 1.25305,2.16731c0,1.38071 -1.11929,2.5 -2.5,2.5c-0.29691,0 -0.58173,-0.05176 -0.84593,-0.14675l-2.63273,-0.87758l0.34255,0.12829c0,0 -0.49213,0 -1.03969,-0.21835c-0.0286,0.37212 -0.05627,0.74375 -0.05419,1.10952c0.00268,0.4709 -0.04289,9.64848 -0.12845,10.08912c-0.00347,0.01785 -0.00696,0.03569 -0.01048,0.05353l0.00769,0.00048l-0.31075,4.97199c-0.07146,1.31668 -1.16176,2.36232 -2.49627,2.36232c-0.99801,0 -1.85943,-0.58479 -2.26029,-1.43041l-1.31982,-2.63965l0.09201,-0.046l-0.20065,-0.20466c-0.98292,-3.87053 -1.94036,-7.36313 -2.38007,-11.34365c-0.04056,-0.36718 -0.10792,-0.73499 -0.1783,-1.10291c-0.47681,0.61383 -0.9274,0.92734 -1.44542,1.08501l-0.02895,0.03758l-0.0274,-0.02111c-0.00053,0.00015 -0.00105,0.0003 -0.00158,0.00044c-0.01724,0.04002 -0.03448,0.08003 -0.05172,0.12005l-0.11918,0.06335l0.0335,0.03177l-3.28658,3.46591c-0.45579,0.48269 -1.10171,0.78391 -1.81799,0.78391c-0.63515,0 -1.21498,-0.23686 -1.65598,-0.62707c-3.33871,4.69743 -7.84266,8.89037 -11.50564,12.8857l-3.27652,3.73185c-0.45836,0.52744 -1.13411,0.86092 -1.88775,0.86092c-1.38071,0 -2.5,-1.11929 -2.5,-2.5c0,-0.53341 0.16705,-1.0278 0.4517,-1.43371l2.79498,-4.10637l0.01706,0.01161c0.01727,-0.03623 0.03471,-0.0724 0.05233,-0.1085c0.61403,-1.2583 4.58433,-5.33657 5.83858,-6.66153l0.47489,-1.19078c0,0 1.05665,-2.11329 3.16994,-1.20374z" fill="#7446cf" stroke="none" stroke-width="0.5" stroke-linecap="butt"></path></g></g></svg>