<svg version="1.1" xmlns="http://www.w3.org/2000/svg" xmlns:xlink="http://www.w3.org/1999/xlink" width="75.96556" height="79.05252" viewBox="0,0,75.96556,79.05252"><g transform="translate(-440.94287,-139.72248)"><g data-paper-data="{&quot;isPaintingLayer&quot;:true}" fill-rule="nonzero" stroke-linejoin="miter" stroke-miterlimit="10" stroke-dasharray="" stroke-dashoffset="0" style="mix-blend-mode: normal"><path d="" data-paper-data="{&quot;index&quot;:null}" fill="none" stroke="#000000" stroke-width="1.5" stroke-linecap="round"/><path d="M476.72275,150.12258c15.52112,-1.31864 29.17239,10.19478 30.49103,25.71585c1.31864,15.52112 -10.19478,29.17239 -25.71585,30.49103c-15.52112,1.31864 -29.17239,-10.19478 -30.49103,-25.71585c-1.31864,-15.52112 10.19478,-29.17239 25.71585,-30.49103z" fill="#000000" stroke="none" stroke-width="NaN" stroke-linecap="butt"/><path d="M492.03371,171.47849l24.36826,1.29233l0.50646,5.96154l-23.76048,5.86152z" fill="#000000" stroke="none" stroke-width="0" stroke-linecap="butt"/><path d="M497.2887,184.29932l16.31716,18.14479l-3.85731,4.57358l-20.94593,-12.6565z" fill="#000000" stroke="none" stroke-width="0" stroke-linecap="butt"/><path d="M487.15711,193.90028l-1.29233,24.36826l-5.96154,0.50646l-5.86153,-23.76049z" fill="#000000" stroke="none" stroke-width="0" stroke-linecap="butt"/><path d="M474.40369,194.29421l-18.14479,16.31716l-4.5736,-3.85731l12.65649,-20.94593z" fill="#000000" stroke="none" stroke-width="0" stroke-linecap="butt"/><path d="M465.81761,187.62746l-24.36827,-1.29232l-0.50646,-5.96154l23.76049,-5.86153z" fill="#000000" stroke="none" stroke-width="0" stroke-linecap="butt"/><path d="M461.66473,175.86227l-16.31716,-18.14479l3.85731,-4.57358l20.94595,12.65648z" fill="#000000" stroke="none" stroke-width="0" stroke-linecap="butt"/><path d="M470.98604,164.59722l1.29232,-24.36827l5.96154,-0.50646l5.86153,23.76048z" fill="#000000" stroke="none" stroke-width="0" stroke-linecap="butt"/><path d="M486.86152,160.76401l18.14479,-16.31716l4.57359,3.85732l-12.65649,20.94592z" fill="#000000" stroke="none" stroke-width="0" stroke-linecap="butt"/></g></g></svg>