<svg version="1.1" xmlns="http://www.w3.org/2000/svg" xmlns:xlink="http://www.w3.org/1999/xlink" width="128.78886" height="80.5" viewBox="0,0,128.78886,80.5"><g transform="translate(-151.46118,-139.75)"><g data-paper-data="{&quot;isPaintingLayer&quot;:true}" fill-rule="nonzero" stroke-linejoin="miter" stroke-miterlimit="10" stroke-dasharray="" stroke-dashoffset="0" style="mix-blend-mode: normal"><path d="" data-paper-data="{&quot;index&quot;:null}" fill="none" stroke="#000000" stroke-width="1.5" stroke-linecap="round"></path><path d="" data-paper-data="{&quot;index&quot;:null}" fill="none" stroke="#000000" stroke-width="1.5" stroke-linecap="round"></path><path d="" data-paper-data="{&quot;index&quot;:null}" fill="none" stroke="#000000" stroke-width="1.5" stroke-linecap="round"></path><path d="" data-paper-data="{&quot;index&quot;:null}" fill="none" stroke="#000000" stroke-width="1.5" stroke-linecap="round"></path><path d="" data-paper-data="{&quot;index&quot;:null}" fill="none" stroke="#000000" stroke-width="1.5" stroke-linecap="round"></path><path d="" data-paper-data="{&quot;index&quot;:null}" fill="none" stroke="#000000" stroke-width="1.5" stroke-linecap="round"></path><path d="M200.50004,180c0,-21.81525 17.68475,-39.5 39.5,-39.5c21.81525,0 39.5,17.68475 39.5,39.5c0,21.81525 -17.68475,39.5 -39.5,39.5c-21.81525,0 -39.5,-17.68475 -39.5,-39.5z" fill="#6e6e6e" stroke="#000000" stroke-width="1.5" stroke-linecap="butt"></path><path d="M202.85559,181.6599c0,0 -2.28148,-3.48635 -2.28148,-5.83045c0,-2.68059 2.28148,-9.37942 2.28148,-9.37942c0,0 25.76053,3.29547 38.0247,3.29547c12.45976,0 36.15636,-3.29547 36.15636,-3.29547c0,0 0.32325,0.8142 0.73295,2.06366c1.27619,3.89191 3.39127,12.00691 -0.81086,12.89272c-2.60416,0.54896 -18.81959,2.66663 -35.57172,2.60715c-18.95763,-0.06731 -38.53144,-2.35365 -38.53144,-2.35365z" fill="#d0d0d0" stroke="#000000" stroke-width="0" stroke-linecap="butt"></path><path d="M220.2872,168.69041l16.34335,9.20811" fill="none" stroke="#000000" stroke-width="1.5" stroke-linecap="round"></path><path d="M228.71238,178.36443l0.2535,-3.54897" fill="none" stroke="#000000" stroke-width="1.5" stroke-linecap="round"></path><path d="M245.30508,176.18343l13.96519,-6.03143" fill="none" stroke="#000000" stroke-width="1.5" stroke-linecap="round"></path><path d="M251.52719,174.05496v5.06996" fill="none" stroke="#000000" stroke-width="1.5" stroke-linecap="round"></path><path d="M195.30481,191.48414c0.54573,2.43971 -1.89398,2.98544 -1.89398,2.98544l-1.21726,0.1749c-1.30826,0.58669 -2.49214,1.70278 -3.92479,1.76007c-1.06737,0.04269 -1.78114,-1.33022 -2.8374,-1.48963c-0.9919,-0.1497 -1.95595,0.78134 -2.94551,0.61687c-0.77479,-0.12877 -1.09585,-1.39939 -1.88102,-1.41905c-1.19386,-0.0299 -2.25202,1.77374 -3.34309,1.2882c-1.11155,-0.49465 -1.40517,-1.93828 -1.81983,-3.15324c0.02855,0.33791 0.00245,0.66559 -0.13991,0.97234c-0.00918,0.01978 -0.01842,0.03953 -0.02772,0.05924l0.00478,0.00187l-1.79672,4.60346c-0.34914,0.95985 -1.26957,1.64537 -2.35011,1.64537c-0.33999,0 -0.66413,-0.06787 -0.95961,-0.1908l-0.83518,2.10166c-0.35309,0.95226 -1.26969,1.63089 -2.34479,1.63089c-1.16941,0 -2.15129,-0.80291 -2.42443,-1.88754l-0.95852,-3.47332c-0.58145,-1.00119 -1.34187,-1.92117 -1.72035,-3.01446c-0.33892,-0.97902 0.60277,-3.42343 -0.37648,-3.08518c-1.55458,0.53699 -1.03767,4.17997 -2.68193,4.14162c-0.08447,-0.00197 -0.16385,-0.01188 -0.23854,-0.02909l0.01608,1.24144c0.00019,0.01257 0.00028,0.02516 0.00028,0.03778c0,1.38071 -1.11929,2.5 -2.5,2.5c-1.21264,0 -2.22363,-0.86338 -2.45179,-2.00895c-0.3593,-1.62748 -1.78594,-8.08947 -2.14524,-9.71695c0,0 -0.53896,-2.44121 1.90226,-2.98017c2.21041,-0.488 2.86126,1.4673 2.96457,1.84138c0.72515,0.10333 1.35003,0.51782 1.7351,1.10393l1.60361,2.36741c0.69424,-1.22435 0.73465,-3.74661 1.99222,-3.49453c1.3011,0.2608 3.39549,3.61297 4.94491,6.33788l0.28464,-1.83369c0.16799,-1.21751 1.2127,-2.15514 2.47641,-2.15514c0.34777,0 0.67896,0.07101 0.97985,0.19932c0.13256,-1.59774 0.97266,-3.02098 3.38296,-3.71007c2.13964,-0.61171 4.08245,1.97229 5.65754,3.54434c0.42018,0.41936 -0.94965,1.69034 -0.35848,1.74448c0.76354,0.06993 0.85808,-1.60519 1.62446,-1.62853c1.02071,-0.03108 1.6636,1.33974 2.6725,1.49767c0.96144,0.15051 1.88894,-0.78638 2.84995,-0.63317c0.84401,0.13455 1.2779,1.36284 2.13015,1.4271c0.61825,0.04662 0.97109,-0.7711 1.45664,-1.15665l2.50835,-0.65847c0,0 2.43971,-0.54573 2.98544,1.89398z" fill="#bebebe" stroke="none" stroke-width="0.5" stroke-linecap="butt"></path></g></g></svg>