<svg version="1.1" xmlns="http://www.w3.org/2000/svg" xmlns:xlink="http://www.w3.org/1999/xlink" width="127.26281" height="87.94109" viewBox="0,0,127.26281,87.94109"><g transform="translate(-149.53945,-136.99693)"><g data-paper-data="{&quot;isPaintingLayer&quot;:true}" fill-rule="nonzero" stroke-linejoin="miter" stroke-miterlimit="10" stroke-dasharray="" stroke-dashoffset="0" style="mix-blend-mode: normal"><path d="M213.65962,170.94613l9.00319,-0.97092l1.73088,7.81052" data-paper-data="{&quot;index&quot;:null}" fill="none" stroke="#000000" stroke-width="1.5" stroke-linecap="round"></path><path d="M230.64092,176.21014l-1.73088,-7.81052l8.57047,-2.92354" data-paper-data="{&quot;index&quot;:null}" fill="none" stroke="#000000" stroke-width="1.5" stroke-linecap="round"></path><path d="M234.1881,199.36253c0,0 -1.52652,-8.48063 3.69509,-10.06987c5.0901,-1.5492 13.90627,5.14499 13.90627,5.14499z" data-paper-data="{&quot;index&quot;:null}" fill="#040404" stroke="#000000" stroke-width="1.5" stroke-linecap="round"></path><path d="M198.82051,179.58837c-3.93576,-17.75995 9.75889,-35.89914 30.58784,-40.51501c20.82895,-4.61586 40.90471,6.03953 44.84046,23.79948c2.42904,10.96094 2.95841,24.82196 -5.57599,32.80356c-0.35637,0.33328 -4.55993,3.99109 -4.55993,3.99109l2.79183,13.63577l-12.07399,3.65152l-3.8416,-14.99977l3.43722,15.18848l-14.33525,3.38655l-3.89804,-15.45657l4.20958,15.26054l-15.81028,3.4151c0,0 -3.51395,-16.38293 -3.91786,-16.3491c-2.63849,0.2211 -1.9735,0.43633 -3.97734,-0.07762c-12.30081,-3.15502 -15.26925,-15.96836 -17.87663,-27.73403z" data-paper-data="{&quot;index&quot;:null}" fill="#ffffff" stroke="#000000" stroke-width="2" stroke-linecap="butt"></path><path d="M247.86046,170.35461c1.28219,5.78583 -0.90046,11.19017 -4.87507,12.07099c-3.97461,0.88081 -8.23608,-3.09551 -9.51826,-8.88132c-1.28219,-5.78583 -3.37075,-10.62593 0.60384,-11.50674c3.14605,-0.69719 12.14937,5.02556 12.14937,5.02556c0,0 1.37283,2.08539 1.64012,3.2915z" data-paper-data="{&quot;index&quot;:null}" fill="#ababab" stroke="#000000" stroke-width="1" stroke-linecap="butt"></path><path d="M263.58608,155.30319c3.97461,-0.88081 4.12636,4.38853 5.40855,10.17434c1.28219,5.78583 -0.90045,11.19018 -4.87507,12.071c-3.97461,0.88081 -8.23608,-3.09551 -9.51827,-8.88133c-0.26729,-1.20611 0.096,-3.67624 0.096,-3.67624c0,0 5.74271,-8.9906 8.88877,-9.68778z" data-paper-data="{&quot;index&quot;:null}" fill="#ababab" stroke="#000000" stroke-width="1" stroke-linecap="butt"></path><path d="" data-paper-data="{&quot;index&quot;:null}" fill="none" stroke="#000000" stroke-width="1.5" stroke-linecap="round"></path><path d="" data-paper-data="{&quot;index&quot;:null}" fill="none" stroke="#000000" stroke-width="1.5" stroke-linecap="round"></path><path d="" data-paper-data="{&quot;index&quot;:null}" fill="none" stroke="#000000" stroke-width="1.5" stroke-linecap="round"></path><path d="" data-paper-data="{&quot;index&quot;:null}" fill="none" stroke="#000000" stroke-width="1.5" stroke-linecap="round"></path><path d="" data-paper-data="{&quot;index&quot;:null}" fill="none" stroke="#000000" stroke-width="1.5" stroke-linecap="round"></path><path d="" data-paper-data="{&quot;index&quot;:null}" fill="none" stroke="#000000" stroke-width="1.5" stroke-linecap="round"></path><path d="" data-paper-data="{&quot;index&quot;:null}" fill="none" stroke="#000000" stroke-width="1.5" stroke-linecap="round"></path><path d="" data-paper-data="{&quot;index&quot;:null}" fill="none" stroke="#000000" stroke-width="1.5" stroke-linecap="round"></path><path d="" data-paper-data="{&quot;index&quot;:null}" fill="none" stroke="#000000" stroke-width="1.5" stroke-linecap="round"></path><path d="" data-paper-data="{&quot;index&quot;:null}" fill="none" stroke="#000000" stroke-width="1.5" stroke-linecap="round"></path><path d="M167.17076,197.84171c0,-5.41057 4.38614,-9.79671 9.79671,-9.79671c5.41057,0 9.79671,4.38614 9.79671,9.79671c0,5.41057 -4.38614,9.79671 -9.79671,9.79671c-5.41057,0 -9.79671,-4.38614 -9.79671,-9.79671z" fill="#ffffff" stroke="#000000" stroke-width="1" stroke-linecap="butt"></path><path d="M170.0256,172.55755l0.26829,-0.26829l0.85601,0.85601c0.14934,0.09522 0.29126,0.22477 0.40102,0.40102l0.80544,0.80544c0.21818,0.21818 0.36946,0.50325 0.42043,0.82182c1.92946,1.3232 4.38035,3.05581 5.1404,4.50512c0.05021,0.09575 0.09631,0.19298 0.13875,0.29154l0.02445,-0.01087l1.018,2.29049c0.09141,0.19386 0.14252,0.41045 0.14252,0.63899c0,0.82843 -0.67157,1.5 -1.5,1.5c-0.20325,0 -0.39706,-0.04043 -0.57383,-0.11367l-2.56761,-0.99462c-3.84232,-1.44753 -7.42348,-3.50744 -10.93602,-5.64799c0.80495,1.17397 1.50238,2.44028 2.32965,4.16566l-1.5166,-0.41032l0.70843,1.653c0.08628,0.18932 0.13434,0.39973 0.13434,0.62136c0,0.82843 -0.67157,1.5 -1.5,1.5c-0.23598,0 -0.45924,-0.05449 -0.65787,-0.15158l0.00102,0.01205c0.00449,0.04726 0.00678,0.09516 0.00678,0.14359c0,0.82843 -0.67157,1.5 -1.5,1.5c-0.003,0 -0.006,-0.00001 -0.009,-0.00003c0.48072,0.67441 0.90394,1.33354 1.29602,2.04302l0.30665,-0.2071l1.6679,2.46957c0.16902,0.24276 0.26811,0.53784 0.26811,0.85607c0,0.82843 -0.67157,1.5 -1.5,1.5c-0.32665,0 -0.62892,-0.10441 -0.87525,-0.28169l-0.32842,-0.22989c0.14126,0.52331 0.25462,1.09766 0.34173,1.74234c0.29959,0.35097 0.59092,0.71383 0.87411,1.0908l0.34669,-0.29335l1.93198,2.28325c0.2249,0.26231 0.36076,0.6032 0.36076,0.97582c0,0.82843 -0.67157,1.5 -1.5,1.5c-0.22267,0 -0.43402,-0.04852 -0.62403,-0.13557l-2.03277,-0.87604c-0.72259,-0.31258 -1.50446,-0.62948 -2.29379,-0.97309c0.48529,0.71364 0.93277,1.4544 1.34277,2.24621l0.3944,-0.21513l1.42324,2.60927c0.12503,0.21897 0.19647,0.47249 0.19647,0.74269c0,0.82843 -0.67157,1.5 -1.5,1.5c-0.20896,0 -0.40793,-0.04273 -0.58867,-0.11992l-2.5465,-1.0186l0.01607,-0.04016l-0.1573,-0.02502c-3.06939,-2.02649 -5.49875,-4.11425 -8.09658,-6.71208c0,0 -1.06066,-1.06066 0,-2.12132c1.06066,-1.06066 2.12132,0 2.12132,0c1.14155,1.14155 2.23643,2.1719 3.37402,3.14267c-1.11892,-1.37294 -2.18053,-2.79065 -3.23931,-3.92563l-0.01512,-0.04225l-0.01231,0.01026l-1.28274,-1.53929c-0.22084,-0.26123 -0.35397,-0.59899 -0.35397,-0.96784c0,-0.61601 0.37133,-1.14529 0.90236,-1.37622l-1.9185,-1.99577c-0.26012,-0.26976 -0.42011,-0.63674 -0.42011,-1.04108c0,-0.82843 0.67157,-1.5 1.5,-1.5c0.29757,0 0.5749,0.08665 0.80814,0.23609l2.53253,1.56374l-0.00621,0.01006l0.03918,0.0109c0.61566,0.4258 1.2127,0.84099 1.79149,1.25193c-0.1585,-0.19677 -0.31088,-0.37702 -0.45637,-0.53371l-0.00691,-0.01567l-0.00399,0.00355l-1.98882,-2.23743c-0.23824,-0.26554 -0.38315,-0.61652 -0.38315,-1.00135c0,-0.82843 0.67157,-1.5 1.5,-1.5c0.27395,0 0.53076,0.07344 0.75179,0.20171l-0.3892,-0.51749c-0.19456,-0.25299 -0.31023,-0.56979 -0.31023,-0.9136c0,-0.82843 0.67157,-1.5 1.5,-1.5c0.23147,0 0.4507,0.05243 0.64646,0.14607l0.20572,0.09283c-0.49343,-0.49343 -0.95649,-0.95649 -0.95649,-0.95649c-0.27145,-0.27145 -0.43934,-0.64645 -0.43934,-1.06066c0,-0.82843 0.67157,-1.5 1.5,-1.5c0.3666,0 0.70249,0.13151 0.96305,0.34994l0.27749,0.22913l-0.79728,-0.87416c-0.24534,-0.26705 -0.39512,-0.6233 -0.39512,-1.01452c0,-0.37421 0.13703,-0.71642 0.36365,-0.97918l-0.77182,-0.90045c-0.22835,-0.2632 -0.36656,-0.60673 -0.36656,-0.98254c0,-0.82843 0.67157,-1.5 1.5,-1.5c0.08088,0 0.16027,0.0064 0.23768,0.01872l1.77911,0.25416l-0.00428,0.02994c0.09968,0.00957 0.19919,0.0237 0.29851,0.04304c0.12956,0.02523 5.10349,3.07683 5.37802,3.23794c2.18893,1.28456 4.3489,2.56026 6.60702,3.654c-1.08063,-0.94288 -2.12553,-1.9314 -3.16507,-2.69297l-1.43287,-1.05077c-0.18412,-0.13177 -0.33718,-0.30416 -0.44609,-0.50407c-1.32213,-0.67194 -2.26145,-1.33925 -3.13103,-2.24922l-0.23477,0.26412l-2.23662,-1.98811c-0.31213,-0.27488 -0.50906,-0.67749 -0.50906,-1.1261c0,-0.82843 0.67157,-1.5 1.5,-1.5c0.26385,0 0.51178,0.06812 0.72718,0.18774l1.70603,0.90319c2.43706,1.29119 3.68338,1.98275 4.80437,3.22601z" fill="#bd00f2" stroke="none" stroke-width="0.5" stroke-linecap="butt"></path><path d="M201.67608,206.66579c-0.09737,0.14606 -0.20044,0.26363 -0.30654,0.35737c0.028,0.11455 0.04285,0.23425 0.04285,0.35742c0,0.82843 -0.67157,1.5 -1.5,1.5c-0.00262,0 -0.00524,-0.00001 -0.00786,-0.00002c0.00466,0.00477 0.00931,0.00954 0.01396,0.01431c0.78502,0.80497 1.94743,1.37709 2.33798,2.43147c0.04341,0.11719 0.08161,0.23551 0.11522,0.35484l0.03215,-0.00915l0.81205,2.85202c0.03283,0.10606 0.0542,0.21715 0.06269,0.33183c0.22639,0.33546 0.44699,0.67752 0.66233,1.02846l0.26984,-0.20238l1.79091,2.38788c0.19387,0.25274 0.30909,0.56898 0.30909,0.91212c0,0.82843 -0.67157,1.5 -1.5,1.5c-0.21833,0 -0.42576,-0.04664 -0.61287,-0.13051l-2.10266,-0.88533c-2.02477,-0.85307 -4.84672,-1.46177 -7.0681,-2.55815c-0.22867,0.14108 -0.49808,0.22248 -0.7865,0.22248c-0.25205,0 -0.48957,-0.06217 -0.69809,-0.172l-2.04109,-1.0211l0.00831,-0.01662l-0.05916,-0.01005c-0.01147,-0.01807 -0.02294,-0.03615 -0.03441,-0.05422l-0.01538,0.02563l-0.30245,-0.18147c-0.09495,0.13935 -0.21277,0.26188 -0.34807,0.36217c0.38043,0.53173 0.72771,1.0493 1.06143,1.58757l0.17926,-0.14341l1.86662,2.33328c0.21016,0.25814 0.33616,0.58754 0.33616,0.94637c0,0.82843 -0.67157,1.5 -1.5,1.5c-0.18191,0 -0.35625,-0.03238 -0.51759,-0.09169l-2.2907,-0.78177l0.00096,-0.0028l-0.01095,-0.00065c-0.52857,-0.18875 -1.06702,-0.40536 -1.58336,-0.6635l0.83144,1.66288c0.10974,0.20845 0.17185,0.44587 0.17185,0.69781c0,0.82843 -0.67157,1.5 -1.5,1.5c-0.29111,0 -0.56285,-0.08293 -0.79288,-0.22644l-1.2679,-0.76074l0.02544,-0.0424l-0.13076,-0.02698c-0.63459,-0.54161 -1.26919,-1.08322 -1.90378,-1.62483c0,0 -1.13888,-0.97619 -0.1627,-2.11507c0.12434,-0.14506 0.25132,-0.25581 0.37824,-0.33863l-0.43527,-0.61435c-0.18012,-0.24749 -0.28637,-0.5522 -0.28637,-0.88171c0,-0.82843 0.67157,-1.5 1.5,-1.5c0.18933,0 0.37046,0.03508 0.53726,0.09909l2.79245,0.99719l-0.06835,0.1914c0.12305,0.0269 0.24588,0.0546 0.36849,0.08314c-0.53962,-0.64587 -1.05044,-1.40282 -1.73779,-2.26428l-1.4389,-1.48477c-0.26244,-0.27013 -0.42403,-0.63876 -0.42403,-1.04513c0,-0.82843 0.67157,-1.5 1.5,-1.5c0.1976,0 0.38628,0.03821 0.55905,0.10764l1.53427,0.57535c0.26752,-0.41114 0.73111,-0.68299 1.25818,-0.68299c0.12965,0 0.25546,0.01645 0.37545,0.04737c0.27489,-0.3432 0.69748,-0.56299 1.1714,-0.56299c0.29111,0 0.56285,0.08293 0.79288,0.22644l1.2679,0.76074l-0.02577,0.04296l0.17148,0.11096l0.07735,0.00966c0.0085,0.01896 0.017,0.03793 0.0255,0.05689l1.02424,0.66275l-0.20786,0.32124l0.0327,0.04205c1.50794,0.16794 3.13681,0.77669 4.71847,1.47828l-0.53579,-0.40913l0.00366,-0.00479l-0.02354,-0.01066c-0.85443,-0.71328 -2.04327,-1.15577 -2.5633,-2.13984c-0.04906,-0.09283 -0.09468,-0.18692 -0.13721,-0.28216l-0.03277,0.01638l-1.27555,-2.55109c-0.10974,-0.20845 -0.17185,-0.44587 -0.17185,-0.69781c0,-0.1359 0.01807,-0.26757 0.05194,-0.39275c-0.98716,-0.84062 -1.99561,-1.66065 -3.05894,-2.42065l-0.02965,-0.04576l-0.01104,0.01338l-2.30521,-1.90096c-0.33862,-0.27502 -0.555,-0.69472 -0.555,-1.16495c0,-0.82843 0.67157,-1.5 1.5,-1.5c0.3263,0 0.62826,0.10419 0.87444,0.28111l2.4438,1.70808l-0.09899,0.14162c1.57833,0.67373 3.09174,1.5321 4.1249,2.67783c0.04858,-0.1257 0.11362,-0.24322 0.19245,-0.34992l-0.3691,-0.3691c-0.27145,-0.27145 -0.43934,-0.64645 -0.43934,-1.06066c0,-0.82843 0.67157,-1.5 1.5,-1.5c0.31519,0 0.60768,0.09722 0.84911,0.2633l2.30321,1.53547c0,0 1.24808,0.83205 0.41603,2.08013z" fill="#bd00f2" stroke="none" stroke-width="0.5" stroke-linecap="butt"></path></g></g></svg>