<svg version="1.1" xmlns="http://www.w3.org/2000/svg" xmlns:xlink="http://www.w3.org/1999/xlink" width="94.71272" height="80.5" viewBox="0,0,94.71272,80.5"><g transform="translate(-189.52581,-142.92397)"><g data-paper-data="{&quot;isPaintingLayer&quot;:true}" fill-rule="nonzero" stroke-linejoin="miter" stroke-miterlimit="10" stroke-dasharray="" stroke-dashoffset="0" style="mix-blend-mode: normal"><path d="" data-paper-data="{&quot;index&quot;:null}" fill="none" stroke="#000000" stroke-width="1.5" stroke-linecap="round"></path><path d="M204.48853,183.17397c0,-21.81525 17.68475,-39.5 39.5,-39.5c21.81525,0 39.5,17.68475 39.5,39.5c0,21.81525 -17.68475,39.5 -39.5,39.5c-21.81525,0 -39.5,-17.68475 -39.5,-39.5z" fill="#d8d8d8" stroke="#000000" stroke-width="1.5" stroke-linecap="butt"></path><path d="M189.52581,199.6534" fill="none" stroke="#d8d8d8" stroke-width="4" stroke-linecap="round"></path><path d="M237.30735,180.42398v-8" fill="none" stroke="#000000" stroke-width="1.5" stroke-linecap="round"></path><path d="M246.72283,172.56694v8" fill="none" stroke="#000000" stroke-width="1.5" stroke-linecap="round"></path><path d="M255.43206,201.95292c0,0 -9.13532,1.76619 -13.24645,1.76619c-4.40514,0 -12.36335,-1.76619 -12.36335,-1.76619" fill="none" stroke="#000000" stroke-width="1.5" stroke-linecap="round"></path><g><path d="M193.75679,189.57426l53.86519,-16.75347l1.1554,3.71484l-53.86517,16.75348z" fill="#7f7600" stroke="#000000" stroke-width="0" stroke-linecap="butt"></path><path d="M256.05077,164.42093c4.14565,-1.3206 8.5769,0.96952 9.89753,5.11517c1.3206,4.14565 -0.96951,8.57691 -5.11517,9.89753c-4.14565,1.3206 -8.5769,-0.96952 -9.89753,-5.11517c-1.3206,-4.14565 0.96951,-8.57691 5.11517,-9.89753z" fill="none" stroke="#ffee00" stroke-width="5" stroke-linecap="butt"></path><path d="M265.167,166.41654c0,0 9.31674,-3.92465 10.82682,0.02163c1.51009,3.94624 -8.62586,5.60589 -8.62586,5.60589" fill="none" stroke="#ffee00" stroke-width="6.5" stroke-linecap="round"></path><path d="M263.3056,178.67492c0,0 3.92465,9.31674 -0.02162,10.82681c-3.94625,1.51008 -5.60589,-8.62586 -5.60589,-8.62586" fill="none" stroke="#ffee00" stroke-width="6.5" stroke-linecap="round"></path><path d="M252.42777,176.66138c0,0 -9.31674,3.92465 -10.82683,-0.02159c-1.51009,-3.94624 8.62586,-5.60589 8.62586,-5.60589" fill="none" stroke="#ffee00" stroke-width="6.5" stroke-linecap="round"></path><path d="M253.51234,164.32564c0,0 -3.92465,-9.31674 0.02163,-10.82682c3.94625,-1.5101 5.60587,8.62586 5.60587,8.62586" fill="none" stroke="#ffee00" stroke-width="6.5" stroke-linecap="round"></path></g></g></g></svg>