<svg version="1.1" xmlns="http://www.w3.org/2000/svg" xmlns:xlink="http://www.w3.org/1999/xlink" width="208.41923" height="198.1324" viewBox="0,0,208.41923,198.1324"><defs><radialGradient cx="236.28934" cy="181.48426" r="99.0662" gradientUnits="userSpaceOnUse" id="color-1"><stop offset="0" stop-color="#5eff00"></stop><stop offset="1" stop-color="#5eff00" stop-opacity="0"></stop></radialGradient></defs><g transform="translate(-137.22314,-82.41806)"><g data-paper-data="{&quot;isPaintingLayer&quot;:true}" fill-rule="nonzero" stroke-linejoin="miter" stroke-miterlimit="10" stroke-dasharray="" stroke-dashoffset="0" style="mix-blend-mode: normal"><path d="" data-paper-data="{&quot;index&quot;:null}" fill="none" stroke="#000000" stroke-width="1.5" stroke-linecap="round"></path><path d="" data-paper-data="{&quot;index&quot;:null}" fill="none" stroke="#000000" stroke-width="1.5" stroke-linecap="round"></path><g><path d="" data-paper-data="{&quot;index&quot;:null}" fill="none" stroke="#000000" stroke-width="1.5" stroke-linecap="round"></path><path d="" data-paper-data="{&quot;index&quot;:null}" fill="none" stroke="#000000" stroke-width="1.5" stroke-linecap="round"></path><path d="" data-paper-data="{&quot;index&quot;:null}" fill="none" stroke="#000000" stroke-width="1.5" stroke-linecap="round"></path><path d="" data-paper-data="{&quot;index&quot;:null}" fill="none" stroke="#000000" stroke-width="1.5" stroke-linecap="round"></path><path d="" data-paper-data="{&quot;index&quot;:null}" fill="none" stroke="#000000" stroke-width="1.5" stroke-linecap="round"></path><path d="" data-paper-data="{&quot;index&quot;:null}" fill="none" stroke="#000000" stroke-width="1.5" stroke-linecap="round"></path><path d="" data-paper-data="{&quot;index&quot;:null}" fill="none" stroke="#000000" stroke-width="1.5" stroke-linecap="round"></path><path d="" data-paper-data="{&quot;index&quot;:null}" fill="none" stroke="#000000" stroke-width="1.5" stroke-linecap="round"></path><path d="" data-paper-data="{&quot;index&quot;:null}" fill="none" stroke="#000000" stroke-width="1.5" stroke-linecap="round"></path><path d="" data-paper-data="{&quot;index&quot;:null}" fill="none" stroke="#000000" stroke-width="1.5" stroke-linecap="round"></path><g><path d="M306.89794,172.30082l28.12664,-0.02172c0,0 -4.67892,11.4793 -4.67364,18.32577c0.00311,4.02793 4.30886,10.50081 5.24126,16.90002c1.34624,9.23938 -0.52641,18.18136 -0.52641,18.18136l-28.12664,0.02172c0,0 2.71718,-7.84274 1.53306,-16.68662c-0.98694,-7.37126 -5.91084,-15.47673 -5.91429,-19.95434c-0.00522,-6.77501 4.34,-16.76619 4.34,-16.76619z" fill="#139c0e" stroke="#000000" stroke-width="0.5" stroke-linecap="butt"></path><path d="M244.53029,176.57895l-9.8784,-5.59725l9.86975,-5.61247z" fill="#ffee00" stroke="#000000" stroke-width="0.5" stroke-linecap="round"></path><path d="M244.64593,169.23925l89.90485,-0.06937l0.00296,3.85067l-89.90485,0.06937z" fill="#d3d3d3" stroke="#000000" stroke-width="0.5" stroke-linecap="butt"></path><path d="M316.33198,170.32583c0.01724,-0.01385 0.03664,-0.02891 0.05803,-0.04479c-0.01878,-0.01365 -0.03755,-0.02723 -0.05631,-0.04077c-0.00209,0.0296 -0.00504,0.05898 -0.00883,0.08808c0.00237,-0.00084 0.00474,-0.00169 0.0071,-0.00252zM318.36605,172.53911l-0.57018,0.40129c-0.13051,0.35383 -0.42233,0.70528 -1.04227,0.859c-0.30747,0.07624 -0.56631,0.07177 -0.78334,0.01717c-2.12689,1.20412 -4.20722,2.48976 -6.38382,3.43983c-0.29395,0.18177 -0.60489,0.32076 -0.94225,0.38659c-0.14485,0.05548 -0.2902,0.10925 -0.4361,0.1612l-0.09787,0.085l0.20866,0.43741l-1.73663,0.82838c-0.20313,0.10234 -0.43263,0.16007 -0.67559,0.16025c-0.65165,0.0005 -1.20697,-0.41298 -1.41721,-0.99206c-0.20823,0.02605 -0.41793,0.04689 -0.62926,0.06213l0.05109,0.45652l-1.48491,0.16614c-0.06162,0.00772 -0.12436,0.01172 -0.18804,0.01178c-0.83175,0.00064 -1.50654,-0.67308 -1.50717,-1.50485c-0.00017,-0.22518 0.04908,-0.43885 0.13752,-0.63074c-2.20733,1.69601 -4.66317,3.032 -6.45337,1.09756c-0.73218,-0.79118 0.04855,-2.2069 0.468,-3.19993c0.57328,-1.35718 3.04071,-2.90999 5.37382,-3.65405c-3.39082,-1.35653 -7.01055,-3.47247 -5.3719,-7.31932c0.19553,-0.45899 0.68519,-0.55294 1.25466,-0.50793c0.25762,-0.20668 0.58461,-0.33042 0.94059,-0.33071c0.12752,-0.0001 0.25134,0.01565 0.36963,0.0454l2.90385,0.66548l-0.01448,0.06315l0.23342,0.00494c0.30558,0.17689 0.61414,0.35235 0.92499,0.52687c-0.01123,-0.07398 -0.01708,-0.14972 -0.01714,-0.22682c-0.00064,-0.83175 0.67308,-1.50654 1.50485,-1.50717c0.2396,-0.00018 0.46615,0.05559 0.66731,0.15497l1.47443,0.68874c0.41052,0.19176 0.9533,0.41416 1.56005,0.67241c3.79798,-1.83619 10.50632,2.87958 13.17059,5.1345c0,0 1.14717,0.97574 0.17144,2.12292c-0.42401,0.4985 -0.8804,0.59613 -1.26094,0.54715c-0.13155,0.40548 -0.4024,0.67679 -0.4024,0.67679z" fill="#606060" stroke="none" stroke-width="0.5" stroke-linecap="butt"></path><path d="M310.03937,203.48478l15.02318,-15.04639l4.38359,4.37682l-15.02318,15.04639z" fill="#b8b8b8" stroke="none" stroke-width="0" stroke-linecap="butt"></path><path d="M334.6033,168.64505l9.87576,2.16513l-9.87241,2.18037z" data-paper-data="{&quot;index&quot;:null}" fill="#000000" stroke="#000000" stroke-width="0.5" stroke-linecap="round"></path><path d="M314.24378,188.61109l15.04639,15.02318l-4.37682,4.38359l-15.04642,-15.02317z" data-paper-data="{&quot;index&quot;:null}" fill="#b8b8b8" stroke="none" stroke-width="0" stroke-linecap="butt"></path><text transform="translate(312.97755,186.02462) rotate(89.95572) scale(0.4319,0.4319)" font-size="40" xml:space="preserve" fill="#000000" fill-rule="nonzero" stroke="none" stroke-width="1" stroke-linecap="butt" stroke-linejoin="miter" stroke-miterlimit="10" stroke-dasharray="" stroke-dashoffset="0" font-family="Pixel" font-weight="normal" text-anchor="start" style="mix-blend-mode: normal"><tspan x="0" dy="0">BB</tspan></text><path d="M330.35609,174.95406l-3.50989,7.70406" fill="none" stroke="#54ff00" stroke-width="3.5" stroke-linecap="round"></path><path d="M311.77977,184.51137l-3.35487,-8.36844" fill="none" stroke="#54ff00" stroke-width="3.5" stroke-linecap="round"></path><path d="M328.37638,212.96005l4.52772,9.53949" fill="none" stroke="#54ff00" stroke-width="3.5" stroke-linecap="round"></path><path d="M313.97782,212.46893l-2.3364,9.7122" fill="none" stroke="#54ff00" stroke-width="3.5" stroke-linecap="round"></path></g></g><path d="" data-paper-data="{&quot;index&quot;:null}" fill="none" stroke="#000000" stroke-width="1.5" stroke-linecap="round"></path><path d="" data-paper-data="{&quot;index&quot;:null}" fill="none" stroke="#000000" stroke-width="1.5" stroke-linecap="round"></path><path d="" data-paper-data="{&quot;index&quot;:null}" fill="none" stroke="#000000" stroke-width="1.5" stroke-linecap="round"></path><path d="" data-paper-data="{&quot;index&quot;:null}" fill="none" stroke="#000000" stroke-width="1.5" stroke-linecap="round"></path><path d="" data-paper-data="{&quot;index&quot;:null}" fill="none" stroke="#000000" stroke-width="1.5" stroke-linecap="round"></path><path d="" data-paper-data="{&quot;index&quot;:null}" fill="none" stroke="#000000" stroke-width="1.5" stroke-linecap="round"></path><path d="" data-paper-data="{&quot;index&quot;:null}" fill="none" stroke="#000000" stroke-width="1.5" stroke-linecap="round"></path><path d="" data-paper-data="{&quot;index&quot;:null}" fill="none" stroke="#000000" stroke-width="1.5" stroke-linecap="round"></path><path d="" data-paper-data="{&quot;index&quot;:null}" fill="none" stroke="#000000" stroke-width="1.5" stroke-linecap="round"></path><path d="" data-paper-data="{&quot;index&quot;:null}" fill="none" stroke="#000000" stroke-width="1.5" stroke-linecap="round"></path><path d="" data-paper-data="{&quot;index&quot;:null}" fill="none" stroke="#000000" stroke-width="1.5" stroke-linecap="round"></path><path d="" data-paper-data="{&quot;index&quot;:null}" fill="none" stroke="#000000" stroke-width="1.5" stroke-linecap="round"></path><path d="" data-paper-data="{&quot;index&quot;:null}" fill="none" stroke="#000000" stroke-width="1.5" stroke-linecap="round"></path><path d="" data-paper-data="{&quot;index&quot;:null}" fill="none" stroke="#000000" stroke-width="1.5" stroke-linecap="round"></path><path d="" data-paper-data="{&quot;index&quot;:null}" fill="none" stroke="#000000" stroke-width="1.5" stroke-linecap="round"></path><path d="" data-paper-data="{&quot;index&quot;:null}" fill="none" stroke="#000000" stroke-width="1.5" stroke-linecap="round"></path><path d="" data-paper-data="{&quot;index&quot;:null}" fill="none" stroke="#000000" stroke-width="1.5" stroke-linecap="round"></path><path d="" data-paper-data="{&quot;index&quot;:null}" fill="none" stroke="#000000" stroke-width="1.5" stroke-linecap="round"></path><path d="" data-paper-data="{&quot;index&quot;:null}" fill="none" stroke="#000000" stroke-width="1.5" stroke-linecap="round"></path><path d="" data-paper-data="{&quot;index&quot;:null}" fill="none" stroke="#000000" stroke-width="1.5" stroke-linecap="round"></path><g fill="url(#color-1)" stroke="none" stroke-width="0" stroke-linecap="butt"><path d="M137.41293,187.56053c-3.35583,-54.60794 38.1922,-101.59685 92.80014,-104.95268c54.60794,-3.35583 101.59685,38.1922 104.95268,92.80014c3.35583,54.60794 -38.1922,101.59685 -92.80014,104.95268c-54.60794,3.35583 -101.59685,-38.1922 -104.95268,-92.80014z"></path></g></g></g></svg>