<svg version="1.1" xmlns="http://www.w3.org/2000/svg" xmlns:xlink="http://www.w3.org/1999/xlink" width="65.875" height="65.875" viewBox="0,0,65.875,65.875"><g transform="translate(-207.0625,-147.0625)"><g data-paper-data="{&quot;isPaintingLayer&quot;:true}" fill-rule="nonzero" stroke-linejoin="miter" stroke-miterlimit="10" stroke-dasharray="" stroke-dashoffset="0" style="mix-blend-mode: normal"><path d="M207.0625,180c0,-18.19088 14.74662,-32.9375 32.9375,-32.9375c18.19088,0 32.9375,14.74662 32.9375,32.9375c0,18.19088 -14.74662,32.9375 -32.9375,32.9375c-18.19088,0 -32.9375,-14.74662 -32.9375,-32.9375z" fill="#000000" stroke="none" stroke-width="0" stroke-linecap="butt"></path><path d="" data-paper-data="{&quot;index&quot;:null}" fill="#ffffff" stroke="#000000" stroke-width="1.5" stroke-linecap="round"></path><path d="" data-paper-data="{&quot;index&quot;:null}" fill="#ffffff" stroke="#000000" stroke-width="1.5" stroke-linecap="round"></path><g data-paper-data="{&quot;index&quot;:null}" fill="#ffffff" stroke="#ffffff"><path d="M240.08418,171.50297l6.5739,-2.13535l-3.68414,5.30487l-4.87819,1.00372z" data-paper-data="{&quot;index&quot;:null}" stroke-width="1.5" stroke-linecap="round"></path><path d="M219.57483,183.77517" stroke-width="4" stroke-linecap="round"></path><path d="M212.7684,193.85465l21.18706,-15.79867l0.9141,1.22333l-21.18706,15.79867z" stroke-width="0" stroke-linecap="butt"></path><path d="M239.36284,175.67237c0.83272,0.55145 0.10245,1.44818 0.10245,1.44818c-1.29785,1.59307 -3.50448,5.00408 -5.96466,3.89298c-0.36507,-0.16488 0.32697,-0.91774 0.11174,-1.23854c-0.13938,-0.20775 -0.61747,0.26077 -0.84673,0.14306c-0.30566,-0.15694 -0.22487,-0.69148 -0.52963,-0.84974c-0.57866,-0.3005 -1.79639,0.16413 -1.98014,-0.45358c-0.22249,-0.74796 0.49913,-1.72069 1.14128,-2.36644c0.41738,-0.41972 1.11836,-0.29389 1.67387,-0.46448c1.34025,-0.41157 2.52846,-1.19597 3.85365,-1.6977l1.59157,0.19839c0,0 0.97459,0.26995 0.55604,1.24898c0.09472,0.02858 0.19192,0.07358 0.29056,0.1389z" stroke-width="0.5" stroke-linecap="butt"></path></g><g data-paper-data="{&quot;index&quot;:null}" fill="#ffffff" stroke="#ffffff"><path d="M253.95396,176.65858l6.5739,-2.13535l-3.68414,5.30487l-4.87818,1.00372z" data-paper-data="{&quot;index&quot;:null}" stroke-width="1.5" stroke-linecap="round"></path><path d="M233.44461,188.93078" stroke-width="4" stroke-linecap="round"></path><path d="M226.63819,199.01026l21.18705,-15.79866l0.9141,1.22333l-21.18706,15.79867z" stroke-width="0" stroke-linecap="butt"></path><path d="M253.23262,180.82798c0.83272,0.55145 0.10245,1.44818 0.10245,1.44818c-1.29784,1.59307 -3.50448,5.00408 -5.96466,3.89298c-0.36507,-0.16488 0.32698,-0.91774 0.11174,-1.23854c-0.13939,-0.20775 -0.61747,0.26077 -0.84673,0.14306c-0.30567,-0.15694 -0.22487,-0.69148 -0.52963,-0.84974c-0.57867,-0.3005 -1.79639,0.16412 -1.98014,-0.45359c-0.22249,-0.74796 0.49913,-1.72069 1.14128,-2.36644c0.41738,-0.41972 1.11836,-0.29389 1.67387,-0.46448c1.34025,-0.41157 2.52847,-1.19598 3.85366,-1.69771l1.59158,0.19839c0,0 0.97458,0.26995 0.55604,1.24898c0.09472,0.02858 0.19192,0.07358 0.29055,0.1389z" stroke-width="0.5" stroke-linecap="butt"></path></g><g data-paper-data="{&quot;index&quot;:null}" fill="#ffffff" stroke="#ffffff"><path d="M244.61734,156.42924l6.5739,-2.13535l-3.68414,5.30487l-4.87819,1.00372z" data-paper-data="{&quot;index&quot;:null}" stroke-width="1.5" stroke-linecap="round"></path><path d="M224.108,168.70145" stroke-width="4" stroke-linecap="round"></path><path d="M217.30157,178.78093l21.18705,-15.79866l0.9141,1.22333l-21.18706,15.79867z" stroke-width="0" stroke-linecap="butt"></path><path d="M243.896,160.59865c0.83272,0.55145 0.10245,1.44818 0.10245,1.44818c-1.29784,1.59307 -3.50448,5.00408 -5.96466,3.89298c-0.36507,-0.16488 0.32698,-0.91774 0.11174,-1.23854c-0.13939,-0.20775 -0.61747,0.26077 -0.84673,0.14306c-0.30567,-0.15694 -0.22487,-0.69148 -0.52963,-0.84974c-0.57867,-0.3005 -1.79639,0.16412 -1.98014,-0.45359c-0.22249,-0.74796 0.49913,-1.72069 1.14128,-2.36644c0.41738,-0.41972 1.11836,-0.29389 1.67387,-0.46448c1.34025,-0.41157 2.52847,-1.19598 3.85366,-1.69771l1.59158,0.19839c0,0 0.97458,0.26995 0.55604,1.24898c0.09472,0.02858 0.19192,0.07358 0.29055,0.1389z" stroke-width="0.5" stroke-linecap="butt"></path></g><g data-paper-data="{&quot;index&quot;:null}" fill="#ffffff" stroke="#ffffff"><path d="M256.30859,165.47511l6.5739,-2.13535l-3.68414,5.30486l-4.87818,1.00372z" data-paper-data="{&quot;index&quot;:null}" stroke-width="1.5" stroke-linecap="round"></path><path d="M235.79924,177.74732" stroke-width="4" stroke-linecap="round"></path><path d="M228.99282,187.8268l21.18705,-15.79866l0.9141,1.22333l-21.18705,15.79867z" stroke-width="0" stroke-linecap="butt"></path><path d="M255.58725,169.64452c0.83272,0.55145 0.10245,1.44818 0.10245,1.44818c-1.29784,1.59307 -3.50448,5.00408 -5.96466,3.89298c-0.36507,-0.16488 0.32698,-0.91773 0.11174,-1.23853c-0.13939,-0.20775 -0.61747,0.26077 -0.84673,0.14306c-0.30567,-0.15694 -0.22487,-0.69148 -0.52963,-0.84974c-0.57867,-0.3005 -1.79639,0.16412 -1.98014,-0.45359c-0.22249,-0.74796 0.49912,-1.72069 1.14127,-2.36644c0.41738,-0.41972 1.11836,-0.29389 1.67387,-0.46448c1.34025,-0.41157 2.52846,-1.19597 3.85365,-1.6977l1.59158,0.19839c0,0 0.97458,0.26995 0.55604,1.24898c0.09472,0.02858 0.19192,0.07358 0.29056,0.1389z" stroke-width="0.5" stroke-linecap="butt"></path></g></g></g></svg>