<svg version="1.1" xmlns="http://www.w3.org/2000/svg" xmlns:xlink="http://www.w3.org/1999/xlink" width="65.875" height="65.875" viewBox="0,0,65.875,65.875"><g transform="translate(-207.0625,-147.0625)"><g data-paper-data="{&quot;isPaintingLayer&quot;:true}" fill-rule="nonzero" stroke-linejoin="miter" stroke-miterlimit="10" stroke-dasharray="" stroke-dashoffset="0" style="mix-blend-mode: normal"><path d="M207.0625,180c0,-18.19088 14.74662,-32.9375 32.9375,-32.9375c18.19088,0 32.9375,14.74662 32.9375,32.9375c0,18.19088 -14.74662,32.9375 -32.9375,32.9375c-18.19088,0 -32.9375,-14.74662 -32.9375,-32.9375z" fill="#000000" stroke="none" stroke-width="0" stroke-linecap="butt"></path><path d="" data-paper-data="{&quot;index&quot;:null}" fill="#ffffff" stroke="#000000" stroke-width="1.5" stroke-linecap="round"></path><path d="" data-paper-data="{&quot;index&quot;:null}" fill="#ffffff" stroke="#000000" stroke-width="1.5" stroke-linecap="round"></path><path d="M209.87269,187.91477c0,0 -0.99729,-3.87997 -1.10084,-6.0339c-0.09355,-1.94575 0.50648,-6.32873 0.50648,-6.32873l24.53208,-1.17943l0.59436,12.36263z" fill="#ffffff" stroke="#ffffff" stroke-width="2.5" stroke-linecap="butt"></path><path d="M239.48339,179.56024c0,-4.91307 3.98283,-8.8959 8.8959,-8.8959c4.91307,0 8.8959,3.98283 8.8959,8.8959c0,4.91307 -3.98283,8.8959 -8.8959,8.8959c-4.91307,0 -8.8959,-3.98283 -8.8959,-8.8959z" fill="#ffffff" stroke="#ffffff" stroke-width="2.5" stroke-linecap="butt"></path><path d="M227.52111,163.39096c0.53317,-0.24452 1.0672,-0.56077 1.59552,-0.39832c1.8755,0.57668 4.05983,5.36307 4.96218,6.87216c0,0 0.64136,1.07292 -0.43155,1.71428c-1.07292,0.64136 -1.71428,-0.43155 -1.71428,-0.43155c-0.63411,-1.0611 -3.22878,-6.03354 -3.92333,-5.26673l-1.73761,-1.23984c0,0 0,-1.24939 1.24908,-1.25z" fill="#ffffff" stroke="none" stroke-width="0.5" stroke-linecap="butt"></path><path d="M233.88005,201.30305c-1.11541,-0.56423 -0.55119,-1.67964 -0.55119,-1.67964l0.25889,-0.49017c0.99193,-1.46251 1.92941,-2.23201 1.20035,-3.96706c0,0 -0.39941,-1.18447 0.78506,-1.58388c1.18447,-0.39941 1.58388,0.78506 1.58388,0.78506c0.78206,2.68056 0.02107,3.90207 -1.49661,6.16373l-0.10074,0.22078c0,0 -0.56423,1.11541 -1.67964,0.55119z" fill="#ffffff" stroke="none" stroke-width="0.5" stroke-linecap="butt"></path><path d="M241.27249,149.87305c1.08245,0.62514 0.45732,1.70759 0.45732,1.70759l-0.8743,1.51389c-0.62641,1.06642 -2.39706,2.13481 -1.82422,3.23094c0.21783,0.41681 1.2574,-0.2845 1.40143,0.16321c0.28875,0.89758 -0.04089,2.20825 -0.53845,3.34859c0.24669,-0.19 0.50597,-0.35771 0.79342,-0.47559c2.86782,-1.17606 3.46491,-0.85015 3.47138,2.30249c0.0063,3.07023 -2.21169,6.78443 -3.34189,9.57748c0,0 -0.46887,1.15873 -1.62761,0.68986c-1.15873,-0.46887 -0.68986,-1.62761 -0.68986,-1.62761c0.89283,-2.20645 1.90712,-4.41317 2.6145,-6.68919c0.11381,-0.36619 0.16881,-0.95531 0.24789,-1.49114c-0.44796,0.27959 -0.95053,0.55358 -1.24418,0.77783l-0.02802,0.00926l0.0048,0.00702l-1.15536,0.79068c-0.20341,0.14336 -0.45151,0.22756 -0.71928,0.22756c-0.69036,0 -1.25,-0.55964 -1.25,-1.25c0,-0.06815 0.00545,-0.13503 0.01595,-0.20023l0.35448,-2.45286c-0.00121,-0.46466 0.01014,-0.9571 0.20536,-1.37876c0.15739,-0.33995 0.99563,-0.47159 0.79893,-0.79041c-0.22676,-0.36755 -1.18277,0.40237 -1.29554,-0.01452c-0.71307,-2.63612 0.50342,-4.0057 1.64135,-6.00487l0.8743,-1.51389c0,0 0.62514,-1.08245 1.70759,-0.45732z" fill="#ffffff" stroke="none" stroke-width="0.5" stroke-linecap="butt"></path><path d="M247.47357,205.88857c-1.16873,0.44336 -1.61209,-0.72537 -1.61209,-0.72537l-0.33716,-0.96904c-0.07114,-0.6576 -0.00582,-1.34479 -0.21343,-1.97281c-0.27063,-0.81867 -1.94087,-0.30066 -2.36289,-1.05256c-0.66308,-1.1814 0.32617,-2.82082 0.79426,-3.82533c0,0 0.53364,-1.13036 1.66401,-0.59672c1.13036,0.53364 0.59672,1.66401 0.59672,1.66401c-0.18433,0.38438 -0.29896,0.81122 -0.54462,1.15824c0.80634,-0.26882 1.21792,-0.13586 2.03255,1.42866c0.44196,0.84879 0.33719,1.88398 0.50578,2.82597l0.20224,0.45287c0,0 0.44336,1.16873 -0.72537,1.61209z" fill="#ffffff" stroke="none" stroke-width="0.5" stroke-linecap="butt"></path></g></g></svg>