<svg version="1.1" xmlns="http://www.w3.org/2000/svg" xmlns:xlink="http://www.w3.org/1999/xlink" width="103.75158" height="80.5" viewBox="0,0,103.75158,80.5"><g transform="translate(-182.73642,-139.86622)"><g data-paper-data="{&quot;isPaintingLayer&quot;:true}" fill-rule="nonzero" stroke-linejoin="miter" stroke-miterlimit="10" stroke-dasharray="" stroke-dashoffset="0" style="mix-blend-mode: normal"><path d="M204.82949,180.11622c0,-21.81525 17.68475,-39.5 39.5,-39.5c21.81525,0 39.5,17.68475 39.5,39.5c0,21.81525 -17.68475,39.5 -39.5,39.5c-21.81525,0 -39.5,-17.68475 -39.5,-39.5z" fill="#d8d8d8" stroke="#000000" stroke-width="1.5" stroke-linecap="butt"></path><path d="M228.58224,167.20295l9,1v8" fill="none" stroke="#000000" stroke-width="1.5" stroke-linecap="round"></path><path d="M248.51493,176.68819v-8l9,-1" data-paper-data="{&quot;index&quot;:null}" fill="none" stroke="#000000" stroke-width="1.5" stroke-linecap="round"></path><path d="M226.32949,197.875l32.25,-2.5" fill="none" stroke="#000000" stroke-width="1.5" stroke-linecap="round"></path><g><path d="M276.238,196.51898c0,-2.1401 1.7349,-3.875 3.875,-3.875c2.1401,0 3.875,1.7349 3.875,3.875c0,2.1401 -1.7349,3.875 -3.875,3.875c-2.1401,0 -3.875,-1.7349 -3.875,-3.875z" fill="none" stroke="#000000" stroke-width="0.5" stroke-linecap="butt"></path><path d="M279.988,195.39398c0,0 -14.24795,1.25461 -17,0c-1.8488,-0.84283 -2.12729,-4.04223 -2.12729,-4.04223c0,0 -0.66449,-2.76706 2.12729,-3.70777c8.50613,-2.8662 23,0 23,0v18h-6.75v-5.5z" fill="#989898" stroke="#000000" stroke-width="1" stroke-linecap="round"></path><path d="M272.738,190.64398v-3.75h4.75v3.75z" fill="#00f6ff" stroke="none" stroke-width="0" stroke-linecap="butt"></path><path d="M278.988,191.14398v-3.75h4.75v3.75z" fill="#00f6ff" stroke="none" stroke-width="0" stroke-linecap="butt"></path><path d="M266.488,190.64398v-3.75h4.75v3.75z" fill="#00f6ff" stroke="none" stroke-width="0" stroke-linecap="butt"></path></g><g><path d="M197.43813,201.86563c-1.06856,-1.85426 -0.72993,-4.05174 0.75638,-4.90826c1.48631,-0.85652 3.55741,-0.04768 4.62595,1.80658c1.06856,1.85426 0.72993,4.05174 -0.75638,4.90826c-1.48631,0.85652 -3.55741,0.04768 -4.62595,-1.80658z" fill="none" stroke="#000000" stroke-width="0.5" stroke-linecap="butt"></path><path d="M199.48076,199.39006c0,0 -9.26868,6.78932 -11.8064,6.80373c-1.70483,0.00967 -3.49568,-2.65092 -3.49568,-2.65092c0,0 -1.84307,-2.13151 -0.3739,-4.0639c4.47636,-5.88768 15.97336,-9.20503 15.97336,-9.20503l8.9874,15.5957l-4.68783,2.70149l-2.74616,-4.76536z" fill="#989898" stroke="#000000" stroke-width="1" stroke-linecap="round"></path><path d="M192.07403,198.17613l-1.87236,-3.24911l3.29884,-1.90104l1.87236,3.24911z" fill="#00f6ff" stroke="none" stroke-width="0" stroke-linecap="butt"></path><path d="M196.66425,196.10795l-1.87236,-3.24911l3.29884,-1.90104l1.87236,3.24911z" fill="#00f6ff" stroke="none" stroke-width="0" stroke-linecap="butt"></path><path d="M187.73345,200.67749l-1.87236,-3.24911l3.29884,-1.90104l1.87236,3.24911z" fill="#00f6ff" stroke="none" stroke-width="0" stroke-linecap="butt"></path></g></g></g></svg>