<svg version="1.1" xmlns="http://www.w3.org/2000/svg" xmlns:xlink="http://www.w3.org/1999/xlink" width="81.5827" height="82.14454" viewBox="0,0,81.5827,82.14454"><g transform="translate(-439.51856,-138.91208)"><g data-paper-data="{&quot;isPaintingLayer&quot;:true}" fill-rule="nonzero" stroke-linejoin="miter" stroke-miterlimit="10" stroke-dasharray="" stroke-dashoffset="0" style="mix-blend-mode: normal"><path d="" data-paper-data="{&quot;index&quot;:null}" fill="none" stroke="#000000" stroke-width="1.5" stroke-linecap="round"/><path d="M499.59902,200.31479c-12.02263,9.90453 -29.79811,8.18744 -39.70263,-3.83518c-9.90453,-12.02263 -8.18744,-29.79811 3.83518,-39.70263c12.02263,-9.90453 29.79811,-8.18744 39.70263,3.83518c9.90453,12.02263 8.18744,29.79811 -3.83518,39.70263z" fill="#000000" stroke="none" stroke-width="NaN" stroke-linecap="butt"/><path d="M474.86512,191.44162l-20.78635,12.78322l-3.80423,-4.61781l16.22123,-18.32458z" fill="#000000" stroke="none" stroke-width="0" stroke-linecap="butt"/><path d="M463.25583,183.87768l-23.73727,-5.65907l0.57526,-5.95531l24.42763,-1.48728z" fill="#000000" stroke="none" stroke-width="0" stroke-linecap="butt"/><path d="M466.13734,170.22032l-12.78322,-20.78635l4.61781,-3.80423l18.32459,16.22122z" fill="#000000" stroke="none" stroke-width="0" stroke-linecap="butt"/><path d="M476.40796,162.64935l5.65907,-23.73727l5.95531,0.57527l1.48729,24.4276z" fill="#000000" stroke="none" stroke-width="0" stroke-linecap="butt"/><path d="M487.26143,163.25643l20.78636,-12.78323l3.80423,4.61781l-16.22122,18.32459z" fill="#000000" stroke="none" stroke-width="0" stroke-linecap="butt"/><path d="M497.36398,170.57794l23.73727,5.65907l-0.57526,5.95531l-24.4276,1.4873z" fill="#000000" stroke="none" stroke-width="0" stroke-linecap="butt"/><path d="M496.09478,185.14426l12.78323,20.78636l-4.61781,3.80423l-18.32458,-16.22123z" fill="#000000" stroke="none" stroke-width="0" stroke-linecap="butt"/><path d="M485.20939,197.31935l-5.65907,23.73727l-5.95531,-0.57527l-1.48728,-24.42757z" fill="#000000" stroke="none" stroke-width="0" stroke-linecap="butt"/></g></g></svg>