<svg version="1.1" xmlns="http://www.w3.org/2000/svg" xmlns:xlink="http://www.w3.org/1999/xlink" width="180.11501" height="202.11649" viewBox="0,0,180.11501,202.11649"><g transform="translate(-109.80892,-18.75421)"><g data-paper-data="{&quot;isPaintingLayer&quot;:true}" fill-rule="nonzero" stroke-linejoin="miter" stroke-miterlimit="10" stroke-dasharray="" stroke-dashoffset="0" style="mix-blend-mode: normal"><path d="" data-paper-data="{&quot;index&quot;:null}" fill="none" stroke="#000000" stroke-width="1.5" stroke-linecap="round"></path><path d="M289.92393,195.47554" data-paper-data="{&quot;index&quot;:null}" fill="none" stroke="#d8d8d8" stroke-width="4" stroke-linecap="round"></path><path d="M241.20088,220.1207c-21.81525,0 -39.5,-17.68475 -39.5,-39.5c0,-21.81525 17.68475,-39.5 39.5,-39.5c21.81525,0 39.5,17.68475 39.5,39.5c0,21.81525 -17.68475,39.5 -39.5,39.5z" fill="#d8d8d8" stroke="#000000" stroke-width="1.5" stroke-linecap="butt"></path><path d="M226.36716,169.6083l14.03116,4.59202" fill="none" stroke="#000000" stroke-width="1.5" stroke-linecap="round"></path><path d="M231.78341,178.95914l-0.25511,-5.86758" fill="none" stroke="#000000" stroke-width="1.5" stroke-linecap="round"></path><path d="M243.71478,173.69009l7.65337,-3.82668" fill="none" stroke="#000000" stroke-width="1.5" stroke-linecap="round"></path><path d="M246.5034,173.05217l-0.21988,5.35892" fill="none" stroke="#000000" stroke-width="1.5" stroke-linecap="round"></path><path d="M229.62579,192.95291l25.16666,2.30233l-24.96157,-0.52657" fill="none" stroke="#000000" stroke-width="3" stroke-linecap="round"></path><g data-paper-data="{&quot;index&quot;:null}" stroke="#000000" stroke-linecap="butt"><path d="M245.46313,122.34617l-0.80458,21.5689c0,0 -2.28205,3.5476 -3.37672,3.56945c-1.0927,0.02179 -3.18535,-3.43848 -3.18535,-3.43848l0.80458,-21.5689z" fill="#af5400" stroke-width="1.5"></path><path d="M230.79483,118.29331c0,0 5.90446,-0.64072 12.66907,-0.60334c3.62148,0.01999 10.81616,-0.26361 10.81616,-0.26361c0,0 1.0261,4.47663 0.88587,5.90763c-0.30179,3.07974 -6.03023,5.54609 -12.79484,5.50872c-3.64939,-0.02011 -9.20669,0.1495 -11.51513,-2.66397c-1.97053,-2.40164 -0.06115,-7.88543 -0.06115,-7.88543z" fill="#989898" stroke-width="1"></path><path d="M230.39418,118.0752c0.30177,-3.07972 6.03022,-5.54605 12.79484,-5.50869c6.76459,0.03737 12.00379,2.5643 11.70202,5.64404c-0.30176,3.07973 -6.03022,5.54605 -12.79484,5.50869c-6.76463,-0.03737 -12.00379,-2.5643 -11.70204,-5.64403z" fill="#989898" stroke-width="1"></path><path d="M245.81733,119.05519c0,0 -2.23969,1.89316 -3.22374,1.94568c-0.96131,0.05133 -2.61408,-1.63415 -2.61408,-1.63415l1.037,-85.63616l6.00043,-13.74463l-1.19966,99.06929z" fill="#e6e6e6" stroke-width="0.5"></path></g><g data-paper-data="{&quot;index&quot;:null}" stroke="#000000" stroke-linecap="butt"><path d="M195.29974,158.26076l17.56567,12.54243c0,0 1.70604,3.85781 1.12182,4.7838c-0.58318,0.92431 -4.62397,0.76713 -4.62397,0.76713l-17.56567,-12.54243z" fill="#af5400" stroke-width="1.5"></path><path d="M183.84305,168.27719c0,0 2.71463,-5.28242 6.46881,-10.90981c2.00981,-3.01267 5.73268,-9.17579 5.73268,-9.17579c0,0 4.30238,1.60705 5.41998,2.51169c2.40528,1.94693 1.31179,8.08715 -2.44239,13.71454c-2.02527,3.03591 -4.94217,7.76921 -8.56169,8.14815c-3.08971,0.32348 -6.61742,-4.28876 -6.61742,-4.28876z" fill="#989898" stroke-width="1"></path><path d="M183.44046,168.49167c-2.40526,-1.94691 -1.31176,-8.08712 2.44241,-13.71452c3.75416,-5.62738 8.7474,-8.61101 11.15269,-6.66408c2.40528,1.94691 1.31176,8.08713 -2.4424,13.71453c-3.75418,5.62741 -8.74742,8.611 -11.15269,6.6641z" fill="#989898" stroke-width="1"></path><path d="M192.74695,156.15381c0,0 0.34802,2.9119 -0.14973,3.76241c-0.48621,0.83088 -2.80308,1.2832 -2.80308,1.2832l-70.92926,-47.99654l-8.17338,-12.57443l82.05543,55.5254z" fill="#e6e6e6" stroke-width="0.5"></path></g></g></g></svg>