<svg version="1.1" xmlns="http://www.w3.org/2000/svg" xmlns:xlink="http://www.w3.org/1999/xlink" width="43.13471" height="26.71474" viewBox="0,0,43.13471,26.71474"><defs><linearGradient x1="238.94195" y1="189.63548" x2="242.02767" y2="169.33294" gradientUnits="userSpaceOnUse" id="color-1"><stop offset="0" stop-color="#eccdff"></stop><stop offset="1" stop-color="#b1b9ff"></stop></linearGradient></defs><g transform="translate(-216.63268,-169.06634)"><g data-paper-data="{&quot;isPaintingLayer&quot;:true}" fill-rule="nonzero" stroke-linejoin="miter" stroke-miterlimit="10" stroke-dasharray="" stroke-dashoffset="0" style="mix-blend-mode: normal"><path d="M244.07314,195.05862c-6.96188,-1.30681 -28.18948,-9.29865 -26.88269,-16.26053c1.30681,-6.96188 24.65313,-10.25752 31.61502,-8.95072c6.96188,1.30681 11.54628,8.00989 10.23946,14.9718c-1.30681,6.96188 -8.00989,11.54628 -14.9718,10.23946z" fill="#eccdff" stroke="#b000ff" stroke-width="1" stroke-linecap="butt"></path><path d="" data-paper-data="{&quot;index&quot;:null}" fill="none" stroke="#000000" stroke-width="1.5" stroke-linecap="round"></path><path d="M245.17672,190.57673c-5.5737,-1.04622 -22.56845,-7.44446 -21.52222,-13.01814c1.04622,-5.5737 19.73723,-8.21214 25.31093,-7.16591c5.5737,1.04622 9.24389,6.41271 8.19769,11.98637c-1.04622,5.5737 -6.41271,9.24389 -11.98637,8.19769z" fill="url(#color-1)" stroke="none" stroke-width="NaN" stroke-linecap="butt"></path></g></g></svg>