<svg version="1.1" xmlns="http://www.w3.org/2000/svg" xmlns:xlink="http://www.w3.org/1999/xlink" width="78.49419" height="75.42476" viewBox="0,0,78.49419,75.42476"><g transform="translate(-440.8027,-139.35848)"><g data-paper-data="{&quot;isPaintingLayer&quot;:true}" fill-rule="nonzero" stroke-linejoin="miter" stroke-miterlimit="10" stroke-dasharray="" stroke-dashoffset="0" style="mix-blend-mode: normal"><path d="" data-paper-data="{&quot;index&quot;:null}" fill="none" stroke="#000000" stroke-width="1.5" stroke-linecap="round"/><path d="M508.79742,171.94892c2.85732,15.31272 -7.23981,30.04242 -22.5525,32.89974c-15.31272,2.85732 -30.04242,-7.23981 -32.89974,-22.5525c-2.85732,-15.31272 7.23981,-30.04242 22.5525,-32.89974c15.31272,-2.85732 30.04242,7.23981 32.89974,22.5525z" fill="#000000" stroke="none" stroke-width="NaN" stroke-linecap="butt"/><path d="M489.07192,189.30991l1.14013,24.37587l-5.88149,1.09745l-8.19793,-23.05889z" fill="#000000" stroke="none" stroke-width="0" stroke-linecap="butt"/><path d="M476.83794,195.8152l-16.43015,18.04254l-4.93489,-3.38282l10.50831,-22.10193z" fill="#000000" stroke="none" stroke-width="0" stroke-linecap="butt"/><path d="M466.27602,186.68979l-24.37587,1.14013l-1.09745,-5.88149l23.05889,-8.19794z" fill="#000000" stroke="none" stroke-width="0" stroke-linecap="butt"/><path d="M464.61434,174.03896l-18.04254,-16.43015l3.38283,-4.93489l22.10193,10.50828z" fill="#000000" stroke="none" stroke-width="0" stroke-linecap="butt"/><path d="M470.39318,164.83181l-1.14014,-24.37588l5.88149,-1.09745l8.19794,23.05889z" fill="#000000" stroke="none" stroke-width="0" stroke-linecap="butt"/><path d="M481.68647,159.52826l16.43015,-18.04254l4.93489,3.38282l-10.50828,22.10194z" fill="#000000" stroke="none" stroke-width="0" stroke-linecap="butt"/><path d="M493.82356,167.68175l24.37588,-1.14014l1.09745,5.88149l-23.05889,8.19793z" fill="#000000" stroke="none" stroke-width="0" stroke-linecap="butt"/><path d="M499.21825,183.09674l18.04254,16.43015l-3.38283,4.93489l-22.10191,-10.50829z" fill="#000000" stroke="none" stroke-width="0" stroke-linecap="butt"/></g></g></svg>