<svg version="1.1" xmlns="http://www.w3.org/2000/svg" xmlns:xlink="http://www.w3.org/1999/xlink" width="111.91769" height="87.81882" viewBox="0,0,111.91769,87.81882"><g transform="translate(-439.75031,-132.43118)"><g stroke-miterlimit="10"><g stroke="#00144d"><path d="M533.01745,183.70234c-4.52383,1.9608 -9.78066,-0.11695 -11.74146,-4.64077c-1.9608,-4.52383 0.11695,-9.78066 4.64077,-11.74146c4.52383,-1.9608 9.78066,0.11695 11.74146,4.64077c1.9608,4.52383 -0.11695,9.78066 -4.64077,11.74146z" fill="none" stroke-width="2.5" stroke-linecap="butt"/><path d="M527.13684,180.01069l-3.72929,1.61642l-18.24242,-42.08768l3.72929,-1.61642z" fill="#4d5995" stroke-width="1.5" stroke-linecap="butt"/><path d="M523.24949,179.23454l-8.52409,3.69467l-19.85884,-45.81696l8.52409,-3.69467z" fill="#6b7ccf" stroke-width="1.5" stroke-linecap="butt"/><path d="M543.05818,190.13988l-24.655,-1.0534l0.1859,-4.35088l24.655,1.0534z" fill-opacity="0.25098" fill="#172aff" stroke-width="1.5" stroke-linecap="butt"/><path d="M542.57569,176.90353l-24.0039,7.50962l-1.40201,-3.96936l24.20088,-7.29635z" fill-opacity="0.44314" fill="#172aff" stroke-width="1.5" stroke-linecap="butt"/><path d="M549.19006,176.15458l1.58138,9.12365l-28.42367,-0.96979z" fill-opacity="0.8549" fill="#006ace" stroke-width="1.5" stroke-linecap="round"/><path d="M526.86992,173.95616l-5.26492,15.24741l11.99839,-9.38524c0,0 -0.14546,12.16618 -5.77266,14.60523c-5.6272,2.43904 -12.16618,-0.14546 -14.60523,-5.77266c-2.43904,-5.6272 13.64442,-14.69473 13.64442,-14.69473z" fill="#6cbbcf" stroke-width="1.5" stroke-linecap="butt"/><path d="M521.52825,195.01064l5.26492,-15.2474l-11.99839,9.38524c0,0 0.14546,-12.16618 5.77266,-14.60523c5.6272,-2.43904 12.16618,0.14546 14.60523,5.77266c2.43904,5.6272 -13.64442,14.69473 -13.64442,14.69473z" fill="#6cbbcf" stroke-width="1.5" stroke-linecap="butt"/><path d="M524.7056,187.55815c-1.61828,0.70142 -3.49877,-0.04183 -4.2002,-1.66011c-0.70142,-1.61828 0.04183,-3.49877 1.66011,-4.2002c1.61828,-0.70142 3.49877,0.04183 4.2002,1.66011c0.70142,1.61828 -0.04183,3.49877 -1.66011,4.2002z" fill="#6b73cf" stroke-width="1.5" stroke-linecap="butt"/></g><path d="M440.75031,179.83972c0.0885,-21.67699 17.73292,-39.17794 39.40995,-39.08941c21.67699,0.0885 39.17794,17.73292 39.08941,39.40995c-0.0885,21.67699 -17.73292,39.17794 -39.40995,39.08941c-21.67699,-0.0885 -39.17794,-17.73292 -39.08941,-39.40995z" fill="#c6c6c6" stroke="#00144d" stroke-width="2" stroke-linecap="butt"/><path d="M441.2901,175.47588c0,0 0.69985,-4.69486 1.55261,-6.90933c1.01612,-2.63871 4.14038,-7.87444 4.14038,-7.87444l33.9627,1.592l-0.69299,14.78377z" fill="#ffffff" stroke="#001e6f" stroke-width="2" stroke-linecap="butt"/><path d="M471.85729,175.67485l0.7364,-12.85917l7.46492,0.34005l-0.7364,12.85917z" fill-opacity="0.35294" fill="#0015ff" stroke="none" stroke-width="0" stroke-linecap="butt"/><path d="M464.25729,175.47485l0.7364,-12.85917l7.46491,0.34005l-0.7364,12.85917z" fill-opacity="0.45098" fill="#0015ff" stroke="none" stroke-width="0" stroke-linecap="butt"/><path d="M456.45729,175.07485l0.7364,-12.85917l7.46492,0.34005l-0.7364,12.85917z" fill-opacity="0.61961" fill="#0015ff" stroke="none" stroke-width="0" stroke-linecap="butt"/><path d="M493.31128,193.26667l-8.31523,4.57865l-8.79588,-4.0231l9.66666,-16.24444z" fill-opacity="0.31373" fill="#006bff" stroke="#00144d" stroke-width="1.5" stroke-linecap="round"/><path d="M448.55729,174.77485l0.7364,-12.85917l7.46491,0.34005l-0.7364,12.85917z" fill-opacity="0.70196" fill="#0015ff" stroke="none" stroke-width="0" stroke-linecap="butt"/><path d="M442.35729,174.57485c0,0 1.00886,-4.89898 1.88323,-7.12204c0.83605,-2.12563 3.25317,-5.93714 3.25317,-5.93714l1.26491,0.34005l-0.7364,12.85917z" fill-opacity="0.9098" fill="#0015ff" stroke="none" stroke-width="0" stroke-linecap="butt"/><path d="M442.47239,180.29445l33.75,13.63889l9.66667,-17.44445l6.88889,16.88889l26.2,-12.55556c0,0 -0.00816,4.68257 -1.5757,9.97429c-1.79932,6.07416 -5.37096,13.05681 -8.59449,16.46223c-2.81088,2.96948 -8.43428,6.99089 -13.91992,8.96731c-5.77789,2.08172 -11.35433,2.8184 -11.35433,2.8184c0,0 -7.35056,-0.03382 -15.05726,-2.06242c-6.0546,-1.59373 -12.329,-5.57923 -15.43162,-8.38202c-3.73323,-3.37246 -9.04928,-11.17722 -11.13442,-17.7762c-1.85355,-5.86608 -0.68781,-10.77936 -0.68781,-10.77936z" fill-opacity="0.25098" fill="#172aff" stroke="#00144d" stroke-width="1.5" stroke-linecap="round"/><path d="M449.00219,204.10909c0,0 8.62264,-6.96433 12.90909,-3.90909c4.28645,3.05524 4.18182,16.09091 4.18182,16.09091c0,0 -6.85722,-2.34311 -9.80133,-4.44156c-2.73787,-1.95147 -7.28958,-7.74025 -7.28958,-7.74025z" fill-opacity="0.2" fill="#00ff15" stroke="#00144d" stroke-width="1.5" stroke-linecap="round"/><path d="M507.45127,208.26568c-2.61459,2.49704 -9.06736,5.79452 -9.06736,5.79452c0,0 -1.96342,-12.88738 1.84328,-16.52293c3.8067,-3.63555 13.33475,2.0273 13.33475,2.0273c0,0 -3.67923,6.37898 -6.11067,8.70111z" fill-opacity="0.2" fill="#00ff15" stroke="#00144d" stroke-width="1.5" stroke-linecap="round"/><path d="M503.83011,187.70951l-22.39176,-46.25762l9.76823,1.31132l20.05842,41.25762z" fill="#00f2ff" stroke="#00144d" stroke-width="1.5" stroke-linecap="butt"/><path d="M490.90724,169.51414c0,-6.16718 4.99949,-11.16667 11.16667,-11.16667c6.16718,0 11.16667,4.99949 11.16667,11.16667c0,6.16718 -4.99949,11.16667 -11.16667,11.16667c-6.16718,0 -11.16667,-4.99949 -11.16667,-11.16667z" fill="#00cdff" stroke="#00144d" stroke-width="1.5" stroke-linecap="butt"/><path d="M484.01835,146.90303l7.77778,-1.88889" fill="none" stroke="#00144d" stroke-width="1.5" stroke-linecap="round"/><path d="M486.4628,150.90303l7.33333,-1.88889" fill="none" stroke="#00144d" stroke-width="1.5" stroke-linecap="round"/><path d="M488.57391,155.5697l7.22222,-2.33333" fill="none" stroke="#00144d" stroke-width="1.5" stroke-linecap="round"/><path d="M491.4628,160.5697l6.33333,-2.77778" fill="none" stroke="#00144d" stroke-width="1.5" stroke-linecap="round"/><path d="M503.12946,183.79192l6.33333,-2.33333" fill="none" stroke="#00144d" stroke-width="1.5" stroke-linecap="round"/></g></g></svg>