<svg version="1.1" xmlns="http://www.w3.org/2000/svg" xmlns:xlink="http://www.w3.org/1999/xlink" width="142.9077" height="128.54396" viewBox="0,0,142.9077,128.54396"><g transform="translate(-168.54615,-115.72802)"><g data-paper-data="{&quot;isPaintingLayer&quot;:true}" fill-rule="nonzero" stroke-linejoin="miter" stroke-miterlimit="10" stroke-dasharray="" stroke-dashoffset="0" style="mix-blend-mode: normal"><path d="" data-paper-data="{&quot;index&quot;:null}" fill="none" stroke="#000000" stroke-width="1.5" stroke-linecap="round"></path><path d="M200.5,180c0,-21.81525 17.68475,-39.5 39.5,-39.5c21.81525,0 39.5,17.68475 39.5,39.5c0,21.81525 -17.68475,39.5 -39.5,39.5c-21.81525,0 -39.5,-17.68475 -39.5,-39.5z" fill="#d8d8d8" stroke="#000000" stroke-width="1.5" stroke-linecap="butt"></path><path d="M240.25489,167.17564l6.93986,4.16391l-6.59286,1.38797l-3.29643,5.89888l-2.25545,-6.41937l-7.46035,-3.64343l7.11335,-2.08196l3.99042,-7.46035z" fill="#be82ff" stroke="#000000" stroke-width="0" stroke-linecap="round"></path><g stroke="none" stroke-width="0.5" stroke-linecap="butt"><path d="M247.64053,120.46353c-5.42262,4.58679 -14.67982,5.96951 -21.54452,5.6199c-0.64836,-0.03302 -7.06151,-0.97768 -8.34739,-1.20921c-0.85726,-0.15435 -1.75213,-0.2078 -2.55608,-0.54303c-0.46085,-0.19216 -0.7219,-1.2883 -1.12314,-0.99112c-0.5248,0.3887 0.12088,1.36858 -0.17354,1.95152c-0.48384,0.958 -1.28733,1.7299 -2.06131,2.47343c-6.31105,6.06279 -13.67202,9.70612 -21.51411,13.36431c-4.06557,1.0209 -8.09173,2.14394 -12.1703,3.11766c-0.71392,0.17044 -1.41067,0.47189 -2.13078,0.59193c2.06294,1.9272 4.51718,7.46541 4.70446,7.84886c4.02713,8.24547 6.72992,17.37304 5.17827,26.70633c-0.99816,6.004 -4.35163,13.28225 -7.58892,18.40076c-0.93726,1.48191 -1.93136,2.97228 -3.22559,4.15528c-0.44906,0.41046 -2.0081,-0.14549 -1.77683,0.41722c0.34817,0.84716 1.63686,0.82238 2.45529,1.23357c5.72211,2.91777 12.21887,6.164 16.78851,10.80605c6.20014,6.29838 10.77073,14.64308 14.27435,22.71363c1.96952,-3.60428 8.1088,-7.11419 11.00626,-8.73907c15.64909,-8.7759 32.27281,-1.67297 46.81674,6.35935l0.06328,-0.00366c-1.72202,-4.99154 0.16613,-10.5538 1.95948,-15.48159c4.82221,-13.25051 19.19244,-24.75188 33.61714,-25.68194c-2.47161,-2.26209 -4.65176,-5.48222 -6.09875,-7.4784c-9.28591,-12.81026 -10.72085,-32.93019 -3.17464,-46.79161l-0.5641,-0.12392l0.08093,-0.36843c-3.8954,0.09469 -7.76783,-1.49911 -11.52604,-2.71942c-10.64567,-3.4567 -21.306,-8.14538 -30.35468,-14.84909zM247.58175,115.92424c1.21388,-0.56611 2.40091,0.34652 2.40091,0.34652l1.50175,1.15507c12.18773,9.04276 26.23263,12.23454 39.94589,17.31093l0.04348,-0.19794l4.59554,1.0095c1.08983,0.21592 1.91148,1.17723 1.91148,2.33045c0,0.74527 -0.34316,1.4104 -0.88009,1.84598l-1.79031,1.47477c-6.54855,11.31607 -5.48059,28.11523 0.83774,39.52852c2.70543,4.88703 6.99724,8.55258 10.94184,12.49122l0.22558,-0.3423l3.03836,2.00229c0.66133,0.42182 1.09993,1.16194 1.09993,2.0045c0,1.31212 -1.06368,2.3758 -2.3758,2.3758c-0.20329,0 -0.40062,-0.02553 -0.58895,-0.07357l-2.79956,-0.65114c-16.62433,-2.93789 -31.29162,12.26937 -36.12894,26.71061c-0.92919,2.774 -1.05643,6.04106 -1.14133,9.27765l0.6318,-0.03652l0.27303,4.7232c0.00341,0.05209 0.00514,0.10464 0.00514,0.1576c0,1.31212 -1.06368,2.3758 -2.3758,2.3758c-0.61381,0 -1.17326,-0.23278 -1.59488,-0.61487l-1.72045,-1.54607c-10.09347,-5.59372 -25.06403,-13.8816 -36.86754,-10.26663c-6.56337,2.01011 -11.95658,6.75276 -17.18331,11.25869l0.07975,0.06051l-2.03042,2.67614c-0.43293,0.58314 -1.12674,0.96103 -1.90881,0.96103c-1.14059,0 -2.09346,-0.80376 -2.32309,-1.87578l-0.6609,-2.79283c-3.27544,-7.65999 -7.61757,-15.79688 -13.51759,-21.80525c-4.36906,-4.44929 -10.76955,-7.48356 -16.20709,-10.32006c-1.48555,-1.76281 -4.11443,-3.00868 -4.45664,-5.28842c-0.23457,-1.56266 2.12075,-2.34447 3.12813,-3.56189c0.90164,-1.08964 1.85106,-2.15382 2.59616,-3.35593c2.88328,-4.6518 6.01781,-11.20602 6.92504,-16.63855c1.40266,-8.39916 -1.1822,-16.46695 -4.76145,-23.86818c-1.1824,-2.44498 -7.53014,-9.35528 -6.52895,-12.19744c0.53868,-1.52918 2.80887,-1.6402 4.30737,-2.25913c4.40873,-1.82093 9.8488,-2.5285 14.50283,-3.65729c5.78758,-2.74756 11.29535,-5.27157 16.25545,-9.37237c1.4962,-1.23699 3.67588,-2.6945 4.85191,-4.46099c0.80928,-1.2156 0.89308,-3.1579 2.21411,-3.78038c1.12197,-0.52868 8.25334,1.44019 9.80644,1.66855c6.79422,0.99898 17.91857,1.13838 23.12889,-4.24143c0,0 1.20947,-1.19556 2.59336,-0.54036z" fill="#7d00ff"></path><path d="M246.40494,126.71519c-4.75771,4.02436 -12.8798,5.23754 -18.90276,4.93079c-0.56886,-0.02897 -6.19564,-0.8578 -7.32385,-1.06094c-0.75214,-0.13543 -1.53729,-0.18232 -2.24266,-0.47644c-0.40434,-0.1686 -0.63339,-1.13033 -0.98543,-0.86959c-0.46046,0.34104 0.10605,1.20077 -0.15226,1.71223c-0.42452,0.84053 -1.12948,1.51778 -1.80855,2.17014c-5.5372,5.31938 -11.99557,8.51596 -18.87608,11.72559c-3.56705,0.89572 -7.09953,1.88106 -10.67799,2.73538c-0.62637,0.14954 -1.2377,0.41403 -1.86951,0.51935c1.80999,1.69089 3.96329,6.55001 4.1276,6.88644c3.53333,7.23442 5.90471,15.24278 4.54332,23.43164c-0.87576,5.2678 -3.81804,11.6536 -6.65838,16.14448c-0.82234,1.3002 -1.69453,2.60782 -2.83007,3.64576c-0.394,0.36014 -1.76187,-0.12765 -1.55896,0.36606c0.30548,0.74328 1.43615,0.72154 2.15423,1.08231c5.02048,2.55999 10.72062,5.40818 14.72993,9.48102c5.43989,5.52609 9.45004,12.84756 12.52405,19.92852c1.72802,-3.16233 7.11451,-6.24187 9.65669,-7.6675c13.73022,-7.69981 28.31556,-1.46783 41.07614,5.57958l0.05552,-0.00321c-1.51087,-4.37948 0.14575,-9.25971 1.71921,-13.58326c4.23092,-11.62575 16.8391,-21.71683 29.49506,-22.53285c-2.16855,-1.98471 -4.08137,-4.81 -5.35094,-6.56141c-8.14729,-11.23948 -9.40627,-28.89234 -2.78537,-41.05409l-0.49493,-0.10872l0.071,-0.32325c-3.41775,0.08307 -6.81534,-1.3153 -10.11273,-2.38597c-9.34031,-3.03284 -18.69348,-7.1466 -26.63263,-13.02832zM246.35337,122.7325c1.06503,-0.4967 2.10651,0.30403 2.10651,0.30403l1.31761,1.01343c10.69329,7.93395 23.01602,10.73436 35.04778,15.18829l0.03815,-0.17367l4.03204,0.88571c0.9562,0.18944 1.67709,1.03288 1.67709,2.0447c0,0.65389 -0.30108,1.23745 -0.77217,1.61962l-1.57078,1.29394c-5.74558,9.92851 -4.80857,24.66778 0.73502,34.68159c2.37369,4.28779 6.13925,7.50388 9.60017,10.95957l0.19792,-0.30033l2.6658,1.75678c0.58024,0.3701 0.96505,1.01947 0.96505,1.75871c0,1.15123 -0.93326,2.08449 -2.08449,2.08449c-0.17836,0 -0.35149,-0.02241 -0.51673,-0.06455l-2.45628,-0.57129c-14.58588,-2.57765 -27.45468,10.76492 -31.69886,23.43539c-0.81526,2.43385 -0.92689,5.30031 -1.00138,8.14003l0.55433,-0.03205l0.23955,4.14404c0.00299,0.04571 0.00452,0.09181 0.00452,0.13828c0,1.15123 -0.93326,2.08449 -2.08449,2.08449c-0.53855,0 -1.0294,-0.20423 -1.39931,-0.53947l-1.50949,-1.35649c-8.85582,-4.90782 -21.99071,-12.17946 -32.34689,-9.00776c-5.75858,1.76363 -10.49048,5.92474 -15.07631,9.87816l0.06997,0.05309l-1.78146,2.34799c-0.37984,0.51164 -0.98857,0.84319 -1.67475,0.84319c-1.00073,0 -1.83676,-0.7052 -2.03824,-1.64577l-0.57986,-2.45037c-2.87381,-6.72073 -6.68351,-13.85989 -11.86009,-19.13152c-3.83333,-3.90373 -9.44901,-6.56594 -14.2198,-9.05463c-1.30339,-1.54665 -3.60993,-2.63976 -3.91017,-4.63996c-0.20581,-1.37104 1.86071,-2.05699 2.74457,-3.12513c0.79108,-0.95603 1.62408,-1.88972 2.27781,-2.94444c2.52974,-4.0814 5.27991,-9.83195 6.0759,-14.59835c1.23067,-7.36927 -1.03724,-14.4478 -4.1776,-20.9415c-1.03741,-2.14519 -6.60681,-8.20814 -5.72838,-10.7018c0.47262,-1.34167 2.46445,-1.43909 3.77921,-1.98212c3.86814,-1.59765 8.64116,-2.21846 12.72452,-3.20884c5.07792,-2.41066 9.91032,-4.62518 14.26222,-8.22314c1.31274,-1.08531 3.22515,-2.3641 4.25698,-3.914c0.71005,-1.06655 0.78357,-2.77068 1.94262,-3.31683c0.9844,-0.46385 7.24132,1.26359 8.60398,1.46395c5.96112,0.87649 15.72142,0.99879 20.29285,-3.72135c0,0 1.06117,-1.04896 2.27537,-0.4741z" fill="#ffffff"></path><path d="M250.21577,122.94344c-4.90455,4.14858 -13.27734,5.39919 -19.4862,5.08298c-0.58642,-0.02987 -6.38686,-0.88428 -7.54989,-1.09368c-0.77535,-0.13961 -1.58473,-0.18795 -2.31187,-0.49115c-0.41682,-0.17381 -0.65294,-1.16522 -1.01584,-0.89643c-0.47467,0.35156 0.10932,1.23783 -0.15696,1.76508c-0.43762,0.86648 -1.16434,1.56463 -1.86437,2.23713c-5.7081,5.48356 -12.36582,8.7788 -19.45869,12.08749c-3.67715,0.92337 -7.31866,1.93912 -11.00756,2.81981c-0.64571,0.15416 -1.2759,0.42681 -1.92721,0.53538c1.86585,1.74308 4.08562,6.75217 4.255,7.09899c3.64238,7.45771 6.08695,15.71324 4.68355,24.15484c-0.90279,5.43039 -3.93588,12.01328 -6.86389,16.64278c-0.84772,1.34034 -1.74683,2.68831 -2.91742,3.75829c-0.40616,0.37126 -1.81624,-0.13159 -1.60707,0.37736c0.31491,0.76622 1.48047,0.74381 2.22071,1.11571c5.17543,2.639 11.05151,5.5751 15.18457,9.77365c5.60779,5.69665 9.74172,13.2441 12.9106,20.54361c1.78136,-3.25993 7.3341,-6.43452 9.95474,-7.90416c14.154,-7.93746 29.18951,-1.51314 42.34394,5.75178l0.05724,-0.00331c-1.5575,-4.51466 0.15025,-9.54551 1.77226,-14.0025c4.36151,-11.98458 17.35883,-22.38712 30.40541,-23.22832c-2.23548,-2.04597 -4.20734,-4.95846 -5.51609,-6.76393c-8.39875,-11.58638 -9.6966,-29.78409 -2.87134,-42.32121l-0.5102,-0.11207l0.0732,-0.33323c-3.52324,0.08564 -7.0257,-1.3559 -10.42486,-2.45961c-9.6286,-3.12645 -19.27045,-7.36718 -27.45463,-13.43043zM250.1626,118.83783c1.0979,-0.51203 2.17153,0.31341 2.17153,0.31341l1.35828,1.04472c11.02334,8.17883 23.7264,11.06567 36.12952,15.65707l0.03932,-0.17902l4.15649,0.91304c0.98571,0.19529 1.72886,1.06477 1.72886,2.10781c0,0.67407 -0.31037,1.27564 -0.796,1.66961l-1.61927,1.33387c-5.92291,10.23495 -4.95698,25.42914 0.7577,35.75203c2.44696,4.42013 6.32873,7.73548 9.89647,11.29783l0.20404,-0.3096l2.74807,1.81099c0.59815,0.38153 0.99485,1.05094 0.99485,1.81299c0,1.18676 -0.96207,2.14882 -2.14883,2.14882c-0.18386,0 -0.36234,-0.0231 -0.53268,-0.06654l-2.53209,-0.58893c-15.03607,-2.65721 -28.30206,11.09718 -32.67723,24.15872c-0.84042,2.50897 -0.9555,5.46391 -1.03228,8.39127l0.57143,-0.03303l0.24695,4.27195c0.00309,0.04711 0.00465,0.09464 0.00465,0.14254c0,1.18676 -0.96206,2.14883 -2.14882,2.14883c-0.55517,0 -1.06117,-0.21054 -1.44251,-0.55612l-1.55608,-1.39836c-9.12915,-5.0593 -22.66945,-12.55538 -33.34527,-9.28578c-5.93631,1.81807 -10.81428,6.1076 -15.54164,10.18305l0.07214,0.05473l-1.83644,2.42046c-0.39157,0.52743 -1.01908,0.86921 -1.72644,0.86921c-1.03162,0 -1.89346,-0.72697 -2.10115,-1.69656l-0.59776,-2.52601c-2.96251,-6.92816 -6.8898,-14.28766 -12.22615,-19.72201c-3.95165,-4.02422 -9.74065,-6.7686 -14.65869,-9.3341c-1.34363,-1.59439 -3.72135,-2.72123 -4.03086,-4.78317c-0.21216,-1.41336 1.91814,-2.12048 2.82928,-3.22159c0.8155,-0.98554 1.67421,-1.94806 2.34812,-3.03532c2.60782,-4.20737 5.44287,-10.1354 6.26342,-15.04892c1.26865,-7.59672 -1.06925,-14.89372 -4.30654,-21.58785c-1.06943,-2.21139 -6.81072,-8.46148 -5.90518,-11.03211c0.48721,-1.38308 2.54052,-1.4835 3.89585,-2.04329c3.98753,-1.64697 8.90786,-2.28693 13.11725,-3.30787c5.23464,-2.48506 10.2162,-4.76794 14.70242,-8.47695c1.35326,-1.11881 3.3247,-2.43707 4.38837,-4.0348c0.73196,-1.09946 0.80775,-2.8562 2.00257,-3.41921c1.01478,-0.47817 7.46482,1.30259 8.86955,1.50914c6.14511,0.90354 16.20665,1.02961 20.91918,-3.83621c0,0 1.09392,-1.08133 2.3456,-0.48873z" fill="#be82ff"></path></g><path d="M229.18478,173.20081c0,4.30624 -1.12207,7.79713 -2.50622,7.79713c-1.38415,0 -2.50622,-3.49089 -2.50622,-7.79713c0,-4.30624 1.12207,-7.79713 2.50622,-7.79713c1.38415,0 2.50622,3.49089 2.50622,7.79713z" fill="none" stroke="#000000" stroke-width="1.5" stroke-linecap="butt"></path><path d="M229.74171,199.09843c0,-2.6145 2.11947,-4.73397 4.73397,-4.73397c2.6145,0 4.73397,2.11947 4.73397,4.73397c0,2.6145 -2.11947,4.73397 -4.73397,4.73397c-2.6145,0 -4.73397,-2.11947 -4.73397,-4.73397z" fill="none" stroke="#000000" stroke-width="1.5" stroke-linecap="butt"></path></g></g></svg>