<svg version="1.1" xmlns="http://www.w3.org/2000/svg" xmlns:xlink="http://www.w3.org/1999/xlink" width="340.56046" height="404.1171" viewBox="0,0,340.56046,404.1171"><g transform="translate(21.76908,19.68361)"><g data-paper-data="{&quot;isPaintingLayer&quot;:true}" fill="#e200ff" fill-rule="nonzero" stroke="none" stroke-width="0.5" stroke-linecap="butt" stroke-linejoin="miter" stroke-miterlimit="10" stroke-dasharray="" stroke-dashoffset="0" style="mix-blend-mode: normal"><path d="M16.27345,182.55892c0.46363,2.45663 -1.993,2.92027 -1.993,2.92027l-2.05017,0.38692c-6.70424,1.25001 -13.14022,1.04882 -19.932,0.52512c0,0 -2.49254,-0.19299 -2.29956,-2.68553c0.19299,-2.49254 2.68553,-2.29956 2.68553,-2.29956c6.33624,0.49267 12.37057,0.74157 18.61876,-0.45331l2.05017,-0.38692c0,0 2.45663,-0.46363 2.92027,1.993z"></path><path d="M13.27031,201.42151c0,2.5 -2.5,2.5 -2.5,2.5l-4.0593,-0.06763c-0.23484,-0.11281 -0.47037,-0.22444 -0.70663,-0.33467c-1.16294,0.32361 -2.33645,0.60325 -3.52474,0.80593c0,0 -2.46554,0.41363 -2.87917,-2.05191c-0.12711,-0.75767 0.01768,-1.32156 0.27925,-1.73923c-0.32329,-0.49133 -0.49344,-1.17535 -0.18386,-2.09807c0.79523,-2.37015 3.16538,-1.57492 3.16538,-1.57492c1.17142,0.39586 2.32932,0.84443 3.45459,1.36066c0.77258,-0.2441 1.54079,-0.50246 2.30655,-0.76077l1.78793,-0.59989c0,0 2.37015,-0.79523 3.16538,1.57491c0.36443,1.08615 0.06411,1.84156 -0.36823,2.34127c0.04049,0.19382 0.06285,0.40789 0.06285,0.64432z"></path><path d="M-10.00873,204.48801c0,-1.38071 1.11929,-2.5 2.5,-2.5c1.38071,0 2.5,1.11929 2.5,2.5c0,1.38071 -1.11929,2.5 -2.5,2.5c-1.38071,0 -2.5,-1.11929 -2.5,-2.5z"></path><path d="M5.51164,214.10377c-1.29244,2.14 -3.43244,0.84756 -3.43244,0.84756l-2.17607,-1.31422c0,0 -2.14,-1.29244 -0.84756,-3.43244c1.29244,-2.14 3.43244,-0.84756 3.43244,-0.84756l2.17607,1.31422c0,0 2.14,1.29244 0.84756,3.43244z"></path><path d="M-13.49045,226.39151c0,-1.38071 1.11929,-2.5 2.5,-2.5c1.38071,0 2.5,1.11929 2.5,2.5c0,1.38071 -1.11929,2.5 -2.5,2.5c-1.38071,0 -2.5,-1.11929 -2.5,-2.5z"></path><path d="M-0.66913,234.4645c0.25037,2.48743 -2.23706,2.7378 -2.23706,2.7378l-3.10673,0.31271c-4.3045,0.43327 -8.60832,0.81006 -12.89077,1.42668c0,0 -2.47455,0.35584 -2.83038,-2.11871c-0.35584,-2.47455 2.11871,-2.83038 2.11871,-2.83038c4.35301,-0.62516 8.72651,-1.01207 13.1017,-1.45245l3.10673,-0.31271c0,0 2.48743,-0.25037 2.7378,2.23706z"></path><path d="M275.22023,15.97423c-2.4849,0.27433 -2.75923,-2.21057 -2.75923,-2.21057l-0.44942,-4.14849c0.47735,-9.10122 1.46008,-18.0752 2.63115,-27.11207c0,0 0.32128,-2.47927 2.80055,-2.15798c2.47927,0.32128 2.15798,2.80055 2.15798,2.80055c-1.13757,8.77833 -2.07576,17.49603 -2.59157,26.33249l0.42111,3.73684c0,0 0.27433,2.4849 -2.21057,2.75923z"></path><path d="M297.1419,4.59948c-2.5,0 -2.5,-2.5 -2.5,-2.5c0,-3.21252 0,-7.30117 0,-10.51368c0,0 0,-2.5 2.5,-2.5c2.5,0 2.5,2.5 2.5,2.5c0,3.21252 0,6.42503 0,9.63755v0.87614c0,0 0,2.5 -2.5,2.5z"></path><path d="M304.10533,2.84718c-2.5,0 -2.5,-2.5 -2.5,-2.5c0,-1.66667 0,-4.90435 0,-6.57102c0,0 0,-2.5 2.5,-2.5c2.5,0 2.5,2.5 2.5,2.5c0,1.66667 0,3.33333 0,5v1.57102c0,0 0,2.5 -2.5,2.5z"></path><path d="M316.29138,5.47559c-2.5,0 -2.5,-2.5 -2.5,-2.5l0.09503,-0.63146c-0.29018,-1.02217 -0.58035,-2.04433 -0.87053,-3.0665c0,0 -0.68273,-2.40497 1.72224,-3.0877c2.40497,-0.68273 3.0877,1.72224 3.0877,1.72224c0.29018,1.02217 0.58035,2.04433 0.87053,3.0665l0.09503,1.99693c0,0 0,2.5 -2.5,2.5z"></path><path d="M287.75492,384.3115c-2.40499,-0.68266 -1.72234,-3.08765 -1.72234,-3.08765l0.82807,-2.89423c0.63254,-4.71821 1.25877,-9.17902 1.25296,-13.94593c0,0 0,-2.5 2.5,-2.5c2.5,0 2.5,2.5 2.5,2.5c-0.00581,5.11445 -0.66605,9.9058 -1.35828,14.96677l-0.91276,3.2387c0,0 -0.68266,2.40499 -3.08765,1.72234z"></path><path d="M301.17007,374.02123c0,-1.38071 1.11929,-2.5 2.5,-2.5c1.38071,0 2.5,1.11929 2.5,2.5c0,1.38071 -1.11929,2.5 -2.5,2.5c-1.38071,0 -2.5,-1.11929 -2.5,-2.5z"></path><path d="M310.3096,368.76441c0,-1.38071 1.11929,-2.5 2.5,-2.5c1.38071,0 2.5,1.11929 2.5,2.5c0,1.38071 -1.11929,2.5 -2.5,2.5c-1.38071,0 -2.5,-1.11929 -2.5,-2.5z"></path></g></g></svg>