<svg version="1.1" xmlns="http://www.w3.org/2000/svg" xmlns:xlink="http://www.w3.org/1999/xlink" width="78.91554" height="75.83217" viewBox="0,0,78.91554,75.83217"><g transform="translate(-441.67008,-142.28147)"><g data-paper-data="{&quot;isPaintingLayer&quot;:true}" fill-rule="nonzero" stroke-linejoin="miter" stroke-miterlimit="10" stroke-dasharray="" stroke-dashoffset="0" style="mix-blend-mode: normal"><path d="" data-paper-data="{&quot;index&quot;:null}" fill="none" stroke="#000000" stroke-width="1.5" stroke-linecap="round"/><path d="M452.12421,183.61931c-1.9613,-15.45303 8.97593,-29.57016 24.42896,-31.53147c15.45303,-1.9613 29.57016,8.97593 31.53147,24.42896c1.9613,15.45303 -8.97593,29.57016 -24.42896,31.53147c-15.45303,1.9613 -29.57016,-8.97593 -31.53147,-24.42896z" fill="#000000" stroke="none" stroke-width="NaN" stroke-linecap="butt"/><path d="M472.82663,167.43571l0.28041,-24.40092l5.9354,-0.75331l6.84208,23.49692z" fill="#000000" stroke="none" stroke-width="0" stroke-linecap="butt"/><path d="M485.41844,161.65345l17.45234,-17.05578l4.72966,3.66427l-11.77677,21.45293z" fill="#000000" stroke="none" stroke-width="0" stroke-linecap="butt"/><path d="M495.43139,171.37806l24.40092,0.28041l0.75331,5.9354l-23.49692,6.84209z" fill="#000000" stroke="none" stroke-width="0" stroke-linecap="butt"/><path d="M496.354,184.10417l17.05578,17.45234l-3.66428,4.72965l-21.45292,-11.77677z" fill="#000000" stroke="none" stroke-width="0" stroke-linecap="butt"/><path d="M490.04914,192.95939l-0.28041,24.40094l-5.9354,0.75331l-6.84209,-23.49692z" fill="#000000" stroke="none" stroke-width="0" stroke-linecap="butt"/><path d="M478.46633,197.5967l-17.45234,17.05578l-4.72966,-3.66427l11.77675,-21.45291z" fill="#000000" stroke="none" stroke-width="0" stroke-linecap="butt"/><path d="M466.82433,188.75068l-24.40094,-0.28041l-0.75331,-5.9354l23.49692,-6.84208z" fill="#000000" stroke="none" stroke-width="0" stroke-linecap="butt"/><path d="M462.33588,173.04786l-17.05578,-17.45234l3.66428,-4.72965l21.45289,11.77674z" fill="#000000" stroke="none" stroke-width="0" stroke-linecap="butt"/></g></g></svg>