<svg version="1.1" xmlns="http://www.w3.org/2000/svg" xmlns:xlink="http://www.w3.org/1999/xlink" width="65.875" height="65.875" viewBox="0,0,65.875,65.875"><g transform="translate(-207.0625,-147.0625)"><g data-paper-data="{&quot;isPaintingLayer&quot;:true}" fill-rule="nonzero" stroke="none" stroke-linecap="butt" stroke-linejoin="miter" stroke-miterlimit="10" stroke-dasharray="" stroke-dashoffset="0" style="mix-blend-mode: normal"><path d="M207.0625,180c0,-18.19088 14.74662,-32.9375 32.9375,-32.9375c18.19088,0 32.9375,14.74662 32.9375,32.9375c0,18.19088 -14.74662,32.9375 -32.9375,32.9375c-18.19088,0 -32.9375,-14.74662 -32.9375,-32.9375z" fill="#000000" stroke-width="0"></path><path d="M237.98071,212.45811v-64.88947h4.82392v64.88947z" fill="#ffffff" stroke-width="0"></path><path d="M230.9814,165.56274c-0.035,2.15401 3.08349,1.57971 2.18225,5.5483c-1.03982,4.5788 -4.97232,7.97632 -5.99793,12.55084c-0.31286,1.39542 2.43359,3.53336 2.80857,4.92748c0.71823,2.67027 -0.27465,5.16632 -0.75707,7.7848c-0.27421,1.48833 2.46974,3.70726 2.37641,5.72328c-0.06135,1.32526 -0.43241,2.54121 -2.29849,2.68644c-2.62167,0.20403 -2.36191,-1.57672 -2.74573,-3.06035c-0.50476,-1.95112 -2.3359,-2.73519 -2.34584,-4.95131c-0.00966,-2.15201 1.47777,-4.32696 1.00172,-6.43307c-0.70503,-3.11918 -3.45945,-3.10711 -3.07654,-6.65471c0.5241,-4.85562 4.12658,-8.82918 6.0349,-13.1697c0.4957,-1.12748 -2.79235,-3.28688 -2.36268,-5.24095c0.62014,-2.82027 2.57595,-5.15673 3.90644,-7.67022c0.75293,-1.4224 0.13635,-3.94093 1.62788,-4.54546c0.45777,-0.58118 1.16783,-0.95433 1.96505,-0.95433c1.38071,0 2.5,1.11929 2.5,2.5c0,0.12795 -0.00961,0.25365 -0.02815,0.37642c0.88058,3.38555 -4.72556,6.5678 -4.79079,10.58254z" fill="#ffffff" stroke-width="0.5"></path><path d="M247.87279,199.09772c0.14483,-1.57474 1.61271,-3.57722 2.54511,-4.49965c1.20171,-1.18887 4.29429,-1.95161 3.6543,-3.51619c-1.04461,-2.55375 -4.89983,-2.96505 -5.22488,-6.33271c-0.13177,-1.36522 0.34259,-2.9216 0.93183,-4.19369c0.50739,-1.09538 2.13847,-2.92217 3.31823,-4.13403c0.07941,-0.08157 0.35746,-0.1527 0.26362,-0.21716c-1.61638,-1.11028 -3.72127,-1.38532 -5.17173,-2.79226c-3.69888,-3.58788 -1.87335,-8.21367 -1.29922,-12.51366c0.17094,-1.28026 -1.49848,-4.13451 -0.01537,-5.34509c7.06402,-5.76598 4.30221,8.78707 4.05061,10.67437c-0.1606,1.20468 -0.17352,2.42467 0.75169,3.42542c1.59469,1.72488 7.29014,2.41114 7.44668,5.86129c0.17891,3.9432 -5.60756,5.13005 -5.15387,8.70584c0.16172,1.27462 4.96235,3.91678 5.66621,6.63023c0.651,2.50968 -4.41275,5.85513 -5.53516,7.14341c-0.63813,0.73243 -1.56614,1.65258 -1.32767,2.59427c0.13674,0.18012 0.24961,0.37935 0.33391,0.59298c0.13874,0.20975 0.24616,0.41632 0.15685,0.62605c0.01108,0.09552 0.01678,0.19269 0.01678,0.29119c0,1.38071 -1.11929,2.5 -2.5,2.5c-0.47326,0 -0.9158,-0.1315 -1.29309,-0.35996c-1.41833,-0.22592 -1.86624,-2.40704 -1.61483,-5.14066z" fill="#ffffff" stroke-width="0.5"></path></g></g></svg>