<svg version="1.1" xmlns="http://www.w3.org/2000/svg" xmlns:xlink="http://www.w3.org/1999/xlink" width="133.31469" height="86.36413" viewBox="0,0,133.31469,86.36413"><g transform="translate(-160.86225,-139.75)"><g data-paper-data="{&quot;isPaintingLayer&quot;:true}" fill-rule="nonzero" stroke-linejoin="miter" stroke-miterlimit="10" stroke-dasharray="" stroke-dashoffset="0" style="mix-blend-mode: normal"><path d="M204.82949,180c0,-21.81525 17.68475,-39.5 39.5,-39.5c21.81525,0 39.5,17.68475 39.5,39.5c0,21.81525 -17.68475,39.5 -39.5,39.5c-21.81525,0 -39.5,-17.68475 -39.5,-39.5z" fill="#d8d8d8" stroke="#000000" stroke-width="1.5" stroke-linecap="butt"></path><path d="M228.58224,167.20295l9,1v8" fill="none" stroke="#000000" stroke-width="1.5" stroke-linecap="round"></path><path d="M248.51493,176.68819v-8l9,-1" data-paper-data="{&quot;index&quot;:null}" fill="none" stroke="#000000" stroke-width="1.5" stroke-linecap="round"></path><path d="M256.96879,195.96181l-31.37388,0.40984v-12.29517z" fill="#ffffff" stroke="#000000" stroke-width="1.5" stroke-linecap="round"></path><path d="M231.53051,196.37165l0.42397,-10.17531" fill="none" stroke="#000000" stroke-width="1.5" stroke-linecap="round"></path><path d="M240.43391,190.01208v5.9356" fill="none" stroke="#000000" stroke-width="1.5" stroke-linecap="round"></path><g stroke="none" stroke-linecap="butt"><path d="M174.17365,150.66426l1.9941,-2.99102l27.66681,18.44542l-1.9941,2.99102z" fill="#606060" stroke-width="0"></path><path d="M192.36883,169.27565l3.82203,-5.73276l3.73876,2.49263l-3.82203,5.73276z" fill="#606060" stroke-width="0"></path><path d="M160.88084,152.96317c1.22234,-1.83341 3.84931,-5.77368 3.84931,-5.77368l59.24313,39.49729l-7.03392,10.55035l-42.87645,-28.58567l2.84318,-4.27004c0,0 -16.67644,-10.44153 -16.02525,-11.41826z" fill="#969696" stroke-width="NaN"></path><path d="M207.73853,211.12226l7.15194,-24.43809l8.38555,1.48083c0,0 -3.73829,8.41534 -3.26598,12.67685c0.56214,5.07208 6.41647,15.74954 6.41647,15.74954z" fill="#606060" stroke-width="0"></path><path d="M179.40716,188.71718l9.13962,-13.70879l5.73276,3.82203l-9.13962,13.70879z" fill="#606060" stroke-width="0"></path><path d="M196.35666,180.57526l5.77239,-8.65819l5.4835,3.65585l-5.77239,8.65819z" fill="#00fffe" stroke-width="0"></path><path d="M204.31548,185.80697l5.77239,-8.65819l5.4835,3.65585l-5.77239,8.65819z" fill="#00fffe" stroke-width="0"></path><path d="M188.92784,175.83366l5.77239,-8.65819l5.4835,3.65585l-5.77239,8.65819z" fill="#00fffe" stroke-width="0"></path></g><path d="M277.23985,217.39559c0,-4.53898 3.67957,-8.21855 8.21855,-8.21855c4.53898,0 8.21855,3.67957 8.21855,8.21855c0,4.53898 -3.67957,8.21855 -8.21855,8.21855c-4.53898,0 -8.21855,-3.67956 -8.21855,-8.21855z" fill="#d8d8d8" stroke="#000000" stroke-width="1" stroke-linecap="butt"></path></g></g></svg>