<svg version="1.1" xmlns="http://www.w3.org/2000/svg" xmlns:xlink="http://www.w3.org/1999/xlink" width="98.1493" height="87.14635" viewBox="0,0,98.1493,87.14635"><g transform="translate(-204.75,-139.01608)"><g data-paper-data="{&quot;isPaintingLayer&quot;:true}" fill-rule="nonzero" stroke-linejoin="miter" stroke-miterlimit="10" stroke-dasharray="" stroke-dashoffset="0" style="mix-blend-mode: normal"><path d="M283.72741,189.01798c0,-4.93918 4.004,-8.94318 8.94318,-8.94318c4.93918,0 8.94318,4.004 8.94318,8.94318c0,4.93918 -4.004,8.94318 -8.94318,8.94318c-4.93918,0 -8.94318,-4.004 -8.94318,-8.94318z" fill="#d8d8d8" stroke="#000000" stroke-width="1" stroke-linecap="butt"></path><g fill="none" stroke="#000000" stroke-width="2" stroke-linecap="round"><path d="M292.9676,153.59115l5.03839,-3.8933l-3.43527,22.21473"></path><path d="M301.8993,154.50722l-3.43527,-5.72545"></path></g><g fill="none" stroke="#000000" stroke-width="2" stroke-linecap="round"><path d="M288.19662,146.30097l5.03839,-3.8933l-3.43527,22.21473"></path><path d="M297.12832,147.21705l-3.43527,-5.72545"></path></g><g fill="none" stroke="#000000" stroke-width="2" stroke-linecap="round"><path d="M281.5935,148.85856l5.03839,-3.8933l-3.43527,22.21473"></path><path d="M290.5252,149.77462l-3.43527,-5.72545"></path></g><g fill="none" stroke="#000000" stroke-width="2" stroke-linecap="round"><path d="M275.4484,145.23267l5.0384,-3.8933l-3.43527,22.21473"></path><path d="M284.38011,146.14873l-3.43527,-5.72545"></path></g><path d="M266.5103,210.82109l9.28975,-50.21898l22.51972,4.16581c0,0 -4.21024,42.86497 -9.28974,50.21898c-5.0795,7.35401 -22.51973,-4.16581 -22.51973,-4.16581z" data-paper-data="{&quot;index&quot;:null}" fill="#9b5b00" stroke="#000000" stroke-width="1" stroke-linecap="butt"></path><path d="M205.5,185.00001c0,-21.81525 17.68475,-39.5 39.5,-39.5c21.81525,0 39.5,17.68475 39.5,39.5c0,21.81525 -17.68475,39.5 -39.5,39.5c-21.81525,0 -39.5,-17.68475 -39.5,-39.5z" fill="#d8d8d8" stroke="#000000" stroke-width="1.5" stroke-linecap="butt"></path><path d="M237.12263,168.64539v8" data-paper-data="{&quot;index&quot;:null}" fill="none" stroke="#000000" stroke-width="1.5" stroke-linecap="round"></path><path d="M233.37341,199.40149l-3.99378,0.26625" fill="none" stroke="#000000" stroke-width="1.5" stroke-linecap="round"></path><path d="" data-paper-data="{&quot;index&quot;:null}" fill="#00c1ff" stroke="none" stroke-width="0.5" stroke-linecap="butt"></path><g data-paper-data="{&quot;index&quot;:null}" stroke-linecap="butt"><path d="M213.23187,203.81592c0.43843,-0.42851 4.59543,1.17888 10.06597,3.11283c2.40311,0.84955 5.99565,3.66145 8.5439,3.95714c2.60434,0.3022 3.8868,-1.83153 5.68564,-3.82521c0.9169,-1.0162 21.68861,-25.64851 28.78865,-34.54557c0.1758,-0.2203 -0.43941,0.54569 -0.66212,-0.541c-0.76718,-3.74327 -3.42815,-16.42284 -2.98059,-17.00189c0.04803,-0.06215 3.72253,1.24485 7.20207,3.62675c2.12076,1.45175 5.79541,4.5803 8.81581,8.95832c3.736,5.41527 6.61528,12.12656 6.03334,12.60493c-0.36984,0.30402 4.40149,20.87381 3.18389,19.9167c-0.04535,-0.03564 -0.30048,4.79537 -1.47577,9.2959c-1.16587,4.46448 -7.88715,11.30921 -8.23743,11.19911c-0.38955,-0.12245 -17.1357,4.59103 -17.80156,4.40315c-0.85106,-0.24014 -14.80376,1.29052 -12.73003,-0.45681c0.14823,-0.1249 -2.75205,-1.7952 -0.97447,-2.26819c2.7122,-0.72167 12.25175,-0.18975 16.48294,-1.22711c5.7099,-1.39988 10.80221,-3.21131 10.84926,-3.42762c0.03143,-0.14454 4.19743,-2.65499 4.22478,-2.80828c0.08185,-0.45888 1.90267,-1.50201 2.66101,-3.63982c1.27436,-3.59246 2.92411,-8.03665 3.00069,-8.22803c0.46602,-1.16447 -1.27188,-16.9305 -1.48482,-17.19824c-1.69573,-2.132 -1.70867,-7.28268 -4.51261,-13.29052c-2.13621,-4.57712 -7.26727,-10.50916 -7.91974,-10.94589c-2.42979,-1.62639 -4.59496,-1.45872 -4.47578,-0.9353c1.15487,5.07233 3.66999,8.28633 3.69991,8.22346c0.96554,0.45865 1.36621,2.6339 0.90582,3.8873c-0.98751,2.68851 -10.25499,12.49974 -14.63306,16.9595c-2.00633,2.04376 -8.56838,10.92369 -14.09695,17.20341c-3.60422,4.09391 -7.23463,6.72524 -7.27515,6.86735c0.20403,0.83093 -12.71663,-5.64098 -13.37283,-4.99964c-0.31249,0.30542 2.82542,5.4838 7.62483,8.27375c6.10517,3.54901 14.87192,5.9657 17.8388,5.27098c1.33539,-0.31269 2.26931,2.83309 1.99818,2.55569c-0.15697,-0.16061 -13.51144,-2.74196 -13.61646,-2.92885c-1.07436,-0.47784 -7.27253,-2.46728 -12.22841,-6.20468c-5.81768,-4.38732 -10.34535,-10.65355 -9.12773,-11.84361z" fill="#00c1ff" stroke="none" stroke-width="0.5"></path><g fill="none" stroke="#000000" stroke-width="1.5"><path d="M263.59794,155.14099c22.26896,6.8452 30.75501,50.39007 18.75721,62.11627c-11.9978,11.7262 -52.15976,12.26563 -67.09441,-8.08008c-10.56705,-14.39567 14.91716,3.14833 17.90727,1.20127c6.41073,-4.17445 21.19295,-24.09358 31.5236,-35.71081c3.26983,-3.67704 -6.44758,-21.17236 -1.09368,-19.52664z"></path><path d="M283.05449,188.78546c3.05806,11.49204 -2.54996,23.66135 -2.74107,23.84813c-10.93936,10.69172 -45.36069,15.71757 -59.15459,-3.01415c-2.57757,-3.50026 11.3656,5.47245 13.37554,4.16973c5.85575,-3.79536 25.99217,-30.38166 35.40376,-40.98188c2.97892,-3.35515 -8.52331,-14.39187 -3.60693,-12.85573c0,0 3.70558,0.96208 6.43854,4.81118c4.18577,5.89525 8.26594,16.4361 10.28475,24.02272z"></path></g></g><path d="M229.75621,169.16665v8" data-paper-data="{&quot;index&quot;:null}" fill="none" stroke="#000000" stroke-width="1.5" stroke-linecap="round"></path><path d="M253.18255,178.84434c0,-4.93918 4.004,-8.94318 8.94318,-8.94318c4.93918,0 8.94318,4.004 8.94318,8.94318c0,4.93918 -4.004,8.94318 -8.94318,8.94318c-4.93918,0 -8.94318,-4.004 -8.94318,-8.94318z" fill="#d8d8d8" stroke="#000000" stroke-width="1" stroke-linecap="butt"></path></g></g></svg>