<svg version="1.1" xmlns="http://www.w3.org/2000/svg" xmlns:xlink="http://www.w3.org/1999/xlink" width="158.13687" height="85.76939" viewBox="0,0,158.13687,85.76939"><g transform="translate(-186.63273,-145.97941)"><g data-paper-data="{&quot;isPaintingLayer&quot;:true}" fill-rule="nonzero" stroke="#000000" stroke-linejoin="miter" stroke-miterlimit="10" stroke-dasharray="" stroke-dashoffset="0" style="mix-blend-mode: normal"><path d="M199.4885,186.22941c0,-21.81525 17.68475,-39.5 39.5,-39.5c21.81525,0 39.5,17.68475 39.5,39.5c0,21.81525 -17.68475,39.5 -39.5,39.5c-21.81525,0 -39.5,-17.68475 -39.5,-39.5z" fill="#d8d8d8" stroke-width="1.5" stroke-linecap="butt"></path><path d="M221.85481,173.93504v8" fill="none" stroke-width="1.5" stroke-linecap="round"></path><path d="" data-paper-data="{&quot;index&quot;:null}" fill="none" stroke-width="1.5" stroke-linecap="round"></path><path d="M244.68217,207.98808c0,0 -23.16802,-0.03729 -27.92241,-10.69369" data-paper-data="{&quot;index&quot;:null}" fill="none" stroke-width="1.5" stroke-linecap="round"></path><path d="M228.76626,182.98038v-8" fill="none" stroke-width="1.5" stroke-linecap="round"></path><g data-paper-data="{&quot;index&quot;:null}" stroke-width="1"><path d="M255.9143,209.7056l19.8965,2.48358l-0.97568,7.81648l-19.8965,-2.48358z" fill="#e8ff00" stroke-linecap="butt"></path><path d="M275.61843,224.62752l-1.61071,-3.79945l1.05351,-9.0032l2.59136,-3.49355l1.6854,4.26479l-1.48233,9.39815z" fill="#8f8f8f" stroke-linecap="butt"></path><path d="M278.332,213.43504l60.03416,4.94202l5.66356,6.5768l-6.64224,4.64159l-59.83688,-9.76284z" fill="#dddddd" stroke-linecap="butt"></path><path d="M322.17369,221.815l-43.47004,-5.15154" fill="none" stroke-linecap="round"></path></g><g stroke-linecap="butt"><path d="M187.52443,219.93597v-39.20997h37.17169v39.20997c0,0 -15.19427,8.53892 -17.91362,10.06715c-0.80178,0.45059 -1.55727,0.87516 -1.55727,0.87516z" fill="#008c04" stroke-width="1.5"></path><path d="M203.46139,231.54981v-51.72473h4.15075v51.72473z" fill="#00ff08" stroke-width="0"></path><path d="M224.94735,199.7146h-38.31462v-4.15075h38.31462z" fill="#00ff08" stroke-width="0"></path></g></g></g></svg>