<svg version="1.1" xmlns="http://www.w3.org/2000/svg" xmlns:xlink="http://www.w3.org/1999/xlink" width="184.50464" height="80.5" viewBox="0,0,184.50464,80.5"><g transform="translate(-117.18305,-140.3707)"><g data-paper-data="{&quot;isPaintingLayer&quot;:true}" fill-rule="nonzero" stroke-linejoin="miter" stroke-miterlimit="10" stroke-dasharray="" stroke-dashoffset="0" style="mix-blend-mode: normal"><path d="" data-paper-data="{&quot;index&quot;:null}" fill="none" stroke="#000000" stroke-width="1.5" stroke-linecap="round"></path><path d="" data-paper-data="{&quot;index&quot;:null}" fill="none" stroke="#000000" stroke-width="1.5" stroke-linecap="round"></path><path d="M301.68768,195.47554" data-paper-data="{&quot;index&quot;:null}" fill="none" stroke="#d8d8d8" stroke-width="4" stroke-linecap="round"></path><path d="M199.18372,180.6207c0,-21.81525 17.68475,-39.5 39.5,-39.5c21.81525,0 39.5,17.68475 39.5,39.5c0,21.81525 -17.68475,39.5 -39.5,39.5c-21.81525,0 -39.5,-17.68475 -39.5,-39.5z" data-paper-data="{&quot;index&quot;:null}" fill="#d8d8d8" stroke="#000000" stroke-width="1.5" stroke-linecap="butt"></path><path d="M254.35771,169.6083l-11.07275,4.59202" data-paper-data="{&quot;index&quot;:null}" fill="none" stroke="#000000" stroke-width="1.5" stroke-linecap="round"></path><path d="M248.94146,178.95914l0.25511,-5.86758" data-paper-data="{&quot;index&quot;:null}" fill="none" stroke="#000000" stroke-width="1.5" stroke-linecap="round"></path><path d="M225.51079,170.45509l14.45771,4.12252" data-paper-data="{&quot;index&quot;:null}" fill="none" stroke="#000000" stroke-width="1.5" stroke-linecap="round"></path><path d="M234.22147,173.05217l0.21988,5.35892" data-paper-data="{&quot;index&quot;:null}" fill="none" stroke="#000000" stroke-width="1.5" stroke-linecap="round"></path><path d="M252.45108,192.12344l-18.63798,-0.59168" fill="none" stroke="#000000" stroke-width="1.5" stroke-linecap="round"></path><g data-paper-data="{&quot;index&quot;:null}" stroke="#000000" stroke-linecap="butt"><path d="M147.64666,179.21236l-21.55574,1.10218c0,0 -3.48884,-2.0447 -3.48209,-3.1376c0.00674,-1.09487 3.52253,-3.42567 3.52253,-3.42567l21.55574,-1.10218z" fill="#af5400" stroke-width="1.5"></path><path d="M151.94195,187.26007c0,0 -5.45689,1.98488 -7.8855,0.04768c-2.84506,-2.26939 -2.75217,-7.8285 -2.82263,-11.47728c-0.13072,-6.76346 2.25635,-12.52537 5.33161,-12.86965c1.4289,-0.15994 5.91929,0.80427 5.91929,0.80427c0,0 -0.18429,7.19791 -0.1143,10.81878c0.13071,6.76345 -0.42846,12.67619 -0.42846,12.67619z" fill="#989898" stroke-width="1"></path><path d="M152.16553,187.6577c-3.07529,0.34423 -5.67425,-4.85955 -5.80499,-11.62305c-0.13069,-6.76346 2.25631,-12.52538 5.33159,-12.86965c3.07528,-0.34425 5.67428,4.85958 5.80499,11.62302c0.13069,6.76346 -2.25632,12.52539 -5.33159,12.86965z" fill="#989898" stroke-width="1"></path><path d="M150.97278,172.24955l99.0433,-2.56672l-13.66051,6.18954l-85.6137,2.21873c0,0 -1.70814,-1.62935 -1.67006,-2.59128c0.03896,-0.98467 1.90102,-3.25028 1.90102,-3.25028z" fill="#e6e6e6" stroke-width="0.5"></path></g><path d="M117.77386,175.31735c0.07796,-5.63635 4.71034,-10.14235 10.34671,-10.06437c5.63635,0.07796 10.14235,4.71034 10.06437,10.34671c-0.07796,5.63635 -4.71034,10.14235 -10.34671,10.06437c-5.63635,-0.07796 -10.14235,-4.71034 -10.06437,-10.34671z" fill="#d8d8d8" stroke="#000000" stroke-width="1" stroke-linecap="butt"></path><path d="M117.71021,177.97554c-0.4076,-5.62214 3.81963,-10.51022 9.44177,-10.91782c5.62214,-0.4076 10.51022,3.81963 10.91782,9.44177c0.4076,5.62214 -3.81962,10.51023 -9.44176,10.91783c-5.62214,0.4076 -10.51021,-3.81963 -10.91783,-9.44177z" data-paper-data="{&quot;index&quot;:null}" fill="#d8d8d8" stroke="#000000" stroke-width="1" stroke-linecap="butt"></path></g></g></svg>