<svg version="1.1" xmlns="http://www.w3.org/2000/svg" xmlns:xlink="http://www.w3.org/1999/xlink" width="65.875" height="65.875" viewBox="0,0,65.875,65.875"><g transform="translate(-207.0625,-147.0625)"><g data-paper-data="{&quot;isPaintingLayer&quot;:true}" fill-rule="nonzero" stroke-linejoin="miter" stroke-miterlimit="10" stroke-dasharray="" stroke-dashoffset="0" style="mix-blend-mode: normal"><path d="M207.0625,180c0,-18.19088 14.74662,-32.9375 32.9375,-32.9375c18.19088,0 32.9375,14.74662 32.9375,32.9375c0,18.19088 -14.74662,32.9375 -32.9375,32.9375c-18.19088,0 -32.9375,-14.74662 -32.9375,-32.9375z" fill="#000000" stroke="none" stroke-width="0" stroke-linecap="butt"></path><path d="M231.73566,163.48446c-0.0296,1.8214 2.60735,1.33578 1.84528,4.69155c-0.87925,3.87176 -4.20451,6.74465 -5.07175,10.61279c-0.26455,1.17994 2.0578,2.98775 2.37488,4.1666c0.60732,2.25794 -0.23224,4.36856 -0.64017,6.5827c-0.23187,1.25851 2.08837,3.1348 2.00945,4.83951c-0.05188,1.12062 -0.36564,2.14881 -1.94357,2.27161c-2.21684,0.17252 -1.99719,-1.33325 -2.32174,-2.58778c-0.42682,-1.64984 -1.9752,-2.31283 -1.9836,-4.18675c-0.00817,-1.8197 1.24958,-3.65881 0.84704,-5.4397c-0.59616,-2.63753 -2.92525,-2.62732 -2.60147,-5.62711c0.44317,-4.10583 3.48937,-7.46581 5.10301,-11.13608c0.41916,-0.95338 -2.36117,-2.77933 -1.99784,-4.43166c0.52438,-2.38477 2.17818,-4.36045 3.30322,-6.48581c0.63667,-1.20276 0.1153,-3.33239 1.37651,-3.84357c0.38708,-0.49144 0.9875,-0.80697 1.66161,-0.80697c1.16751,0 2.11396,0.94645 2.11396,2.11396c0,0.10819 -0.00813,0.21448 -0.0238,0.31829c0.7446,2.86277 -3.99586,5.55363 -4.05101,8.94842z" fill="#ffffff" stroke="none" stroke-width="0.5" stroke-linecap="butt"></path><path d="M247.53033,191.17975c0.11928,-1.29696 1.32823,-2.94621 2.09616,-3.70593c0.98973,-0.97916 3.53679,-1.60735 3.00969,-2.89595c-0.86034,-2.10328 -4.03552,-2.44202 -4.30323,-5.21564c-0.10853,-1.1244 0.28216,-2.40624 0.76746,-3.45394c0.41789,-0.90216 1.76125,-2.40671 2.73291,-3.4048c0.0654,-0.06718 0.29441,-0.12576 0.21712,-0.17885c-1.33126,-0.91443 -3.06485,-1.14095 -4.25945,-2.29971c-3.04641,-2.95499 -1.5429,-6.76481 -1.07004,-10.30629c0.14079,-1.05443 -1.23415,-3.4052 -0.01266,-4.40223c5.81795,-4.74888 3.54331,7.23706 3.3361,8.79145c-0.13227,0.99218 -0.14291,1.99697 0.61909,2.82119c1.31339,1.42062 6.00418,1.98582 6.13311,4.82738c0.14735,3.24763 -4.6184,4.22513 -4.24474,7.17016c0.13319,1.04978 4.08701,3.22587 4.66671,5.46068c0.53617,2.06698 -3.63436,4.8223 -4.55878,5.88334c-0.52557,0.60323 -1.28988,1.36107 -1.09347,2.13665c0.11262,0.14835 0.20558,0.31243 0.27501,0.48838c0.11427,0.17275 0.20274,0.34288 0.12918,0.51562c0.00913,0.07867 0.01382,0.1587 0.01382,0.23983c0,1.13716 -0.92185,2.05901 -2.05901,2.05901c-0.38978,0 -0.75426,-0.1083 -1.06499,-0.29646c-1.16814,-0.18607 -1.53704,-1.98245 -1.32998,-4.23386z" fill="#ffffff" stroke="none" stroke-width="0.5" stroke-linecap="butt"></path><g data-paper-data="{&quot;index&quot;:null}" fill="#ffffff" stroke="#ffffff"><path d="M237.74476,163.66511l2.73964,-7.2808l2.07731,6.96583l-2.54373,4.99479z" data-paper-data="{&quot;index&quot;:null}" stroke-width="1.5" stroke-linecap="round"></path><path d="M234.13119,190.32048" stroke-width="4" stroke-linecap="round"></path><path d="M238.21415,203.38562l0.98847,-29.72828l1.71783,0.05541l-0.98847,29.72828z" stroke-width="0" stroke-linecap="butt"></path><path d="M240.90459,167.22798c1.06983,-0.34495 1.34546,0.92709 1.34546,0.92709c0.48932,2.26026 1.93899,6.59657 -0.76609,7.97959c-0.40141,0.20523 -0.57738,-0.93214 -1.01066,-0.9682c-0.28059,-0.02335 -0.20439,0.72615 -0.46893,0.84508c-0.3527,0.15856 -0.76602,-0.28794 -1.11925,-0.1311c-0.6707,0.2978 -1.11743,1.69499 -1.78969,1.42271c-0.81402,-0.3297 -1.16256,-1.64752 -1.27938,-2.66578c-0.07593,-0.66184 0.52708,-1.18989 0.76725,-1.79821c0.57945,-1.46767 0.72424,-3.06351 1.21383,-4.58127l1.29236,-1.26025c0,0 0.92193,-0.66743 1.48888,0.3883c0.09166,-0.06322 0.19951,-0.11709 0.32623,-0.15795z" stroke-width="0.5" stroke-linecap="butt"></path></g></g></g></svg>