<svg version="1.1" xmlns="http://www.w3.org/2000/svg" xmlns:xlink="http://www.w3.org/1999/xlink" width="152.83386" height="100.53121" viewBox="0,0,152.83386,100.53121"><g transform="translate(-148.85382,-139.10387)"><g data-paper-data="{&quot;isPaintingLayer&quot;:true}" fill-rule="nonzero" stroke-linejoin="miter" stroke-miterlimit="10" stroke-dasharray="" stroke-dashoffset="0" style="mix-blend-mode: normal"><path d="" data-paper-data="{&quot;index&quot;:null}" fill="none" stroke="#000000" stroke-width="1.5" stroke-linecap="round"></path><path d="" data-paper-data="{&quot;index&quot;:null}" fill="none" stroke="#000000" stroke-width="1.5" stroke-linecap="round"></path><path d="M301.68768,195.47554" data-paper-data="{&quot;index&quot;:null}" fill="none" stroke="#d8d8d8" stroke-width="4" stroke-linecap="round"></path><path d="M199.18372,180.6207c0,-21.81525 17.68475,-39.5 39.5,-39.5c21.81525,0 39.5,17.68475 39.5,39.5c0,21.81525 -17.68475,39.5 -39.5,39.5c-21.81525,0 -39.5,-17.68475 -39.5,-39.5z" data-paper-data="{&quot;index&quot;:null}" fill="#d8d8d8" stroke="#000000" stroke-width="1.5" stroke-linecap="butt"></path><path d="M243.28496,174.20032l11.07275,-4.59202" data-paper-data="{&quot;index&quot;:null}" fill="none" stroke="#000000" stroke-width="1.5" stroke-linecap="round"></path><path d="M248.94146,178.95914l0.25511,-5.86758" data-paper-data="{&quot;index&quot;:null}" fill="none" stroke="#000000" stroke-width="1.5" stroke-linecap="round"></path><path d="M225.51079,170.45509l14.45771,4.12252" data-paper-data="{&quot;index&quot;:null}" fill="none" stroke="#000000" stroke-width="1.5" stroke-linecap="round"></path><path d="M234.44135,178.41109l-0.21988,-5.35892" data-paper-data="{&quot;index&quot;:null}" fill="none" stroke="#000000" stroke-width="1.5" stroke-linecap="round"></path><path d="M252.45108,192.12344l-18.63798,-0.59168" fill="none" stroke="#000000" stroke-width="1.5" stroke-linecap="round"></path><g data-paper-data="{&quot;index&quot;:null}" stroke="#000000" stroke-linecap="butt"><path d="M176.5085,216.90513l-15.01939,15.50106c0,0 -3.94641,0.8824 -4.68651,0.07822c-0.74144,-0.80563 0.24186,-4.90764 0.24186,-4.90764l15.01939,-15.50106z" fill="#af5400" stroke-width="1.5"></path><path d="M185.13723,219.86493c0,0 -2.63931,5.17219 -5.73673,5.41048c-3.62858,0.27915 -7.35029,-3.85136 -9.88924,-6.47288c-4.70632,-4.85921 -6.88782,-10.70206 -4.87257,-13.05036c0.9364,-1.09111 4.87898,-3.4468 4.87898,-3.4468c0,0 4.77202,5.39181 7.29159,7.99322c4.70631,4.85921 8.32796,9.56631 8.32796,9.56631z" fill="#989898" stroke-width="1"></path><path d="M185.57188,220.00342c-2.01529,2.34829 -7.46422,0.3128 -12.17058,-4.54644c-4.7063,-4.85923 -6.88785,-10.70204 -4.87258,-13.05035c2.01528,-2.3483 7.46425,-0.31279 12.17057,4.54641c4.7063,4.85923 6.88785,10.70205 4.87258,13.05035z" fill="#989898" stroke-width="1"></path><path d="M174.19539,209.54352l70.71292,-69.39631l-5.77494,13.84088l-61.1247,59.98666c0,0 -2.36046,-0.02762 -2.98835,-0.75735c-0.64276,-0.74696 -0.8249,-3.67392 -0.8249,-3.67392z" fill="#e6e6e6" stroke-width="0.5"></path></g><path d="M151.99754,234.41992c-3.7853,-4.17685 -3.46789,-10.63147 0.70898,-14.41677c4.17685,-3.7853 10.63147,-3.46789 14.41677,0.70898c3.7853,4.17685 3.46789,10.63147 -0.70898,14.41677c-4.17685,3.7853 -10.63147,3.46789 -14.41677,-0.70898z" fill="#d8d8d8" stroke="#000000" stroke-width="1" stroke-linecap="butt"></path><path d="M153.76308,236.40811c-4.13086,-3.83545 -4.37034,-10.29341 -0.5349,-14.42427c3.83545,-4.13086 10.29341,-4.37034 14.42427,-0.5349c4.13086,3.83545 4.37035,10.29342 0.53491,14.42428c-3.83545,4.13086 -10.29342,4.37033 -14.42428,0.5349z" data-paper-data="{&quot;index&quot;:null}" fill="#d8d8d8" stroke="#000000" stroke-width="1" stroke-linecap="butt"></path></g></g></svg>