<svg version="1.1" xmlns="http://www.w3.org/2000/svg" xmlns:xlink="http://www.w3.org/1999/xlink" width="165.86811" height="81.49732" viewBox="0,0,165.86811,81.49732"><g transform="translate(-202.93175,-85.85924)"><g data-paper-data="{&quot;isPaintingLayer&quot;:true}" fill-rule="nonzero" stroke-linejoin="miter" stroke-miterlimit="10" stroke-dasharray="" stroke-dashoffset="0" style="mix-blend-mode: normal"><path d="" data-paper-data="{&quot;index&quot;:null}" fill="none" stroke="#000000" stroke-width="1.5" stroke-linecap="round"></path><path d="" data-paper-data="{&quot;index&quot;:null}" fill="none" stroke="#000000" stroke-width="1.5" stroke-linecap="round"></path><path d="" data-paper-data="{&quot;index&quot;:null}" fill="none" stroke="#000000" stroke-width="1.5" stroke-linecap="round"></path><path d="M272.80447,99.67328" data-paper-data="{&quot;index&quot;:null}" fill="none" stroke="#d8d8d8" stroke-width="4" stroke-linecap="round"></path><g stroke="#000000" stroke-width="1.5"><path d="M250.02069,165.02043c-21.48642,3.77342 -41.96357,-10.58581 -45.73698,-32.07225c-3.77342,-21.48642 10.58581,-41.96357 32.07225,-45.73698c21.48642,-3.77342 41.96357,10.58581 45.73698,32.07225c3.77342,21.48642 -10.58581,41.96357 -32.07225,45.73698z" fill="#d8d8d8" stroke-linecap="butt"></path><path d="M236.33574,117.95826l-17.9442,-3.00796" fill="none" stroke-linecap="round"></path><path d="M233.9046,127.09318l-1.43627,-6.96901" fill="none" stroke-linecap="round"></path><path d="M240.63984,117.06938l9.80923,-7.03242" fill="none" stroke-linecap="round"></path><path d="M243.89177,124.70207l-0.95185,-6.62931" fill="none" stroke-linecap="round"></path><path d="M235.75935,144.23376c0,0 0.18995,-11.78986 2.94554,-12.22322c3.29508,-0.51821 8.77592,11.51846 8.77592,11.51846" fill="none" stroke-linecap="round"></path></g><path d="M361.67209,127.6097c2.2044,-1.17924 3.38364,1.02517 3.38364,1.02517l3.42621,6.40478c0.20247,0.36108 0.31791,0.77753 0.31791,1.22095c0,1.38071 -1.11929,2.5 -2.5,2.5c-0.34457,0 -0.67285,-0.06971 -0.97152,-0.19579c0.01516,0.11134 0.023,0.22502 0.023,0.34053c0,0.27763 -0.04526,0.54469 -0.12879,0.79421l0.20953,0.43499l-0.17878,0.08611l0.27149,0.13231c-0.00967,0.08429 -0.01934,0.16858 -0.029,0.25288l0.10059,-0.02665l0.64233,2.42442c0.06377,0.22072 0.09795,0.454 0.09795,0.69527c0,1.38071 -1.11929,2.5 -2.5,2.5c-0.81629,0 -1.5412,-0.39122 -1.99747,-0.99639c-0.00096,0.21223 -0.0059,0.42384 -0.01327,0.6339l0.99755,4.73352c0.04227,0.18223 0.06462,0.37211 0.06462,0.5672c0,1.38071 -1.11929,2.5 -2.5,2.5c-1.1501,0 -2.1188,-0.77661 -2.41032,-1.83403l-1.04101,-3.46256c-0.07469,-0.20359 -0.14981,-0.4025 -0.22499,-0.5972c-0.09302,2.42038 -0.19762,4.84031 -0.32505,7.26067c-0.08779,1.6675 0.13801,3.38165 -0.26344,5.00248c-0.00077,0.0031 -0.00154,0.0062 -0.0023,0.00929l0.00176,0.00011l-0.29946,4.9733c-0.06893,1.31907 -1.16031,2.3674 -2.49654,2.3674c-1.33595,0 -2.42716,-1.04789 -2.4965,-2.36657l-0.23717,-3.9146l0.0044,-0.00027l-0.0051,-0.01173c-0.46894,-9.24398 -2.79013,-16.6374 -6.30973,-25.17204c0,0 -0.95311,-2.31119 1.35808,-3.2643c2.31119,-0.95311 3.2643,1.35808 3.2643,1.35808c1.12619,2.7309 2.13557,5.36227 3.00979,7.97511c0.02317,-0.686 0.04612,-1.37208 0.0691,-2.05828l0.15761,-4.70659c0.03886,-1.34674 1.1428,-2.42655 2.49894,-2.42655c1.06947,0 1.98209,0.67154 2.3392,1.61595l1.06804,2.63873c0.06174,-0.03224 0.12547,-0.05871 0.19124,-0.07907c0.09253,-0.02864 0.18458,-0.05101 0.2762,-0.06753c-0.00343,-0.0536 -0.00517,-0.10767 -0.00517,-0.16213c0,-0.74886 0.32926,-1.42082 0.8509,-1.879l-0.74144,-3.25659c-0.04864,-0.19464 -0.07446,-0.39832 -0.07446,-0.60803c0,-1.25022 0.91772,-2.2861 2.11626,-2.47073c0.20607,-0.32354 0.52694,-0.63184 1.0109,-0.89074z" fill="#967343" stroke="none" stroke-width="0.5" stroke-linecap="butt"></path><path d="M348.19927,102.37521l4.73899,-1.27747c0.81949,1.6874 2.46327,2.89517 3.23465,4.60509c0.03071,0.06807 0.06088,0.13633 0.09056,0.20478l0.03175,-0.01893l2.44202,4.09673c0.23699,0.38216 0.37381,0.83295 0.37381,1.31569c0,1.38071 -1.11929,2.5 -2.5,2.5c-0.46269,0 -0.89602,-0.12569 -1.26772,-0.3448l-0.77828,-0.43931l0.57776,4.36169c0.01781,0.12039 0.02703,0.24357 0.02703,0.36891c0,1.38071 -1.11929,2.5 -2.5,2.5c-0.24258,0 -0.4771,-0.03455 -0.69889,-0.099l-0.65949,0.15288l0.59538,2.08892c-1.27769,-0.40772 -2.51047,-1.02713 -3.80736,-1.34433l-0.32832,0.07611l-0.03629,-0.15656c-0.18668,-0.03654 -0.37487,-0.06597 -0.56489,-0.08679c-0.65344,-0.07162 1.621,0.51004 1.58994,1.16666c-0.08605,1.8195 -0.21854,4.39879 -1.88764,5.12821c-2.01688,0.8814 -3.26304,0.23115 -4.08065,-0.91348c-0.4583,0.5671 -1.15952,0.92975 -1.94544,0.92975c-0.80829,0 -1.52699,-0.38359 -1.98398,-0.97866l-0.81413,-1.03988c0.33276,2.09339 0.70492,4.43466 0.70519,4.43634c0.20754,1.33504 0.79612,2.67681 0.74621,4.00928c0.1317,0.30123 0.26308,0.60292 0.39415,0.90508l1.08938,2.5114c0.14659,0.31804 0.22835,0.67212 0.22835,1.0453c0,1.38071 -1.11929,2.5 -2.5,2.5c-0.9813,0 -1.83055,-0.56538 -2.23977,-1.38816l-1.61782,-3.09401l0.06227,-0.03256c-0.07681,-0.11056 -0.15031,-0.22384 -0.22017,-0.34012c-0.37092,-0.61735 -0.53991,-1.30913 -0.62757,-2.03077c-2.12906,-4.78394 -4.3546,-9.46084 -6.77346,-14.13554c0,0 -1.1489,-2.22037 1.07147,-3.36927c2.22037,-1.1489 3.36927,1.07147 3.36927,1.07147c0.03345,0.06465 0.06687,0.12931 0.10025,0.19396c0.07583,-1.31254 1.16424,-2.35352 2.49578,-2.35352c0.66433,0 1.26813,0.25912 1.71586,0.6818l2.23149,2.09627c0.43675,-0.37315 1.0036,-0.59846 1.62308,-0.59846c0.62765,0 1.20127,0.2313 1.64029,0.6133l1.55769,1.33938c-0.01213,-0.85324 0.16599,-1.62259 0.61858,-1.97151c0.93405,-0.7201 2.14206,0.06502 3.3336,0.75969l-0.39782,-1.7161c-0.05024,-0.19762 -0.07695,-0.40464 -0.07695,-0.6179c0,-1.38071 1.11929,-2.5 2.5,-2.5c0.16147,0 0.31937,0.01531 0.47232,0.04455l-0.01485,-0.11214l0.01539,-0.00204c-0.65405,-1.08766 -1.24916,-2.2135 -1.8199,-3.3442l0.00133,-0.18607l-0.06263,0.02074l-0.80274,-2.42402c-0.09394,-0.26291 -0.1451,-0.54614 -0.1451,-0.84133c0,-1.19247 0.83489,-2.18994 1.95202,-2.43976c-0.47404,-0.70218 -0.47404,-1.52731 -0.47404,-1.52731z" fill="#967343" stroke="none" stroke-width="0.5" stroke-linecap="butt"></path></g></g></svg>