<svg version="1.1" xmlns="http://www.w3.org/2000/svg" xmlns:xlink="http://www.w3.org/1999/xlink" width="93.55212" height="81.43578" viewBox="0,0,93.55212,81.43578"><g transform="translate(-196.80245,-137.71329)"><g data-paper-data="{&quot;isPaintingLayer&quot;:true}" fill-rule="nonzero" stroke-linejoin="miter" stroke-miterlimit="10" stroke-dasharray="" stroke-dashoffset="0" style="mix-blend-mode: normal"><g stroke="none" stroke-width="0" stroke-linecap="butt"><path d="M265.62889,177.67227l5.27806,-28.00666l5.44543,-0.55198l-5.44656,29.65651z" fill="#8b8b8b"></path><path d="M251.93932,212.93819l10.38771,-49.92803l26.79065,5.57388l-10.38771,49.92803z" fill="#5e5e5e"></path><path d="M258.80456,208.43766l7.60077,-36.53272l23.94924,4.9827l-7.60077,36.53272z" fill="#4c4c4c"></path><path d="M270.12943,184.53749l1.35124,-6.49469l15.83084,3.29367l-1.35124,6.49469z" fill="#ffffff"></path><path d="M268.0372,194.71462l1.35124,-6.49469l15.83084,3.29367l-1.35124,6.49469z" fill="#ffffff"></path><path d="M266.19837,203.67401l1.35124,-6.49469l15.83084,3.29367l-1.35124,6.49469z" fill="#ffffff"></path><path d="M265.97041,143.65763c0.83955,-4.0353 4.79142,-6.62594 8.8267,-5.78637c4.0353,0.83955 6.62594,4.79142 5.78637,8.8267c-0.83955,4.0353 -4.79142,6.62594 -8.8267,5.78637c-4.0353,-0.83955 -6.62594,-4.79142 -5.78637,-8.8267z" fill="#ffffff"></path></g><path d="" data-paper-data="{&quot;index&quot;:null}" fill="none" stroke="#000000" stroke-width="1.5" stroke-linecap="round"></path><path d="" data-paper-data="{&quot;index&quot;:null}" fill="none" stroke="#000000" stroke-width="1.5" stroke-linecap="round"></path><path d="M197.75985,174.88335c2.21617,-21.70239 21.60594,-37.49911 43.30833,-35.28297c21.70239,2.21617 37.49911,21.60594 35.28297,43.30833c-2.21617,21.70239 -21.60594,37.49911 -43.30833,35.28297c-21.70239,-2.21617 -37.49911,-21.60594 -35.28297,-43.30833z" fill="#404040" stroke="#000000" stroke-width="1.5" stroke-linecap="butt"></path><path d="M199.36081,163.64916c1.07441,-2.67412 5.23851,-7.63603 5.23851,-7.63603l23.20722,13.38993l46.73354,-1.6578c0,0 1.75823,7.54808 1.91692,10.7264c0.11459,2.29492 -1.05318,6.5717 -1.05318,6.5717l-50.19105,-0.51487l-27.13679,-12.27946c0,0 0.18532,-5.86347 1.28475,-8.5999z" fill="#d8d8d8" stroke="#000000" stroke-width="1.5" stroke-linecap="round"></path><path d="M213.97464,166.97732l6.11932,2.72406l-0.26998,7.04323" fill="none" stroke="#000000" stroke-width="1.5" stroke-linecap="round"></path><path d="M228.61491,178.482l0.49738,-6.61514l6.29494,-0.77405" fill="none" stroke="#000000" stroke-width="1.5" stroke-linecap="round"></path></g></g></svg>