<svg version="1.1" xmlns="http://www.w3.org/2000/svg" xmlns:xlink="http://www.w3.org/1999/xlink" width="226.55013" height="84.50353" viewBox="0,0,226.55013,84.50353"><g transform="translate(-303.37383,-140.3707)"><g stroke-miterlimit="10"><path d="" fill="none" stroke="#000000" stroke-width="1.5" stroke-linecap="round"/><path d="" fill="none" stroke="#000000" stroke-width="1.5" stroke-linecap="round"/><path d="" fill="none" stroke="#000000" stroke-width="1.5" stroke-linecap="round"/><path d="M529.92396,195.47554" fill="none" stroke="#d8d8d8" stroke-width="4" stroke-linecap="round"/><path d="M481.20094,220.1207c-21.81525,0 -39.5,-17.68475 -39.5,-39.5c0,-21.81525 17.68475,-39.5 39.5,-39.5c21.81525,0 39.5,17.68475 39.5,39.5c0,21.81525 -17.68475,39.5 -39.5,39.5z" fill="#d8d8d8" stroke="#000000" stroke-width="1.5" stroke-linecap="butt"/><path d="M447.33597,203.67084c0,0 4.29771,-17.83605 17.34061,-17.83605c13.0429,0 17.67091,18.82695 17.67091,18.82695z" fill="#000000" stroke="#000000" stroke-width="0" stroke-linecap="butt"/><path d="M475.86268,171.40079l-17.15344,-6.06646" fill="none" stroke="#000000" stroke-width="1.5" stroke-linecap="round"/><path d="M471.8881,179.97751l-0.20919,-7.1124" fill="none" stroke="#000000" stroke-width="1.5" stroke-linecap="round"/><path d="M480.25564,169.93648l10.87779,-5.22971" fill="none" stroke="#000000" stroke-width="1.5" stroke-linecap="round"/><path d="M482.34752,172.65592l-0.20919,6.69403" fill="none" stroke="#000000" stroke-width="1.5" stroke-linecap="round"/><path d="M503.68472,161.15057c0,0 1.50418,6.67173 0.29966,8.08882c-1.16496,1.37054 -7.41207,0.27872 -7.41207,0.27872" fill="none" stroke="#ff0000" stroke-width="3" stroke-linecap="round"/><path d="M519.3738,171.60998c0,0 -7.08173,0.40448 -8.61377,-1.03376c-1.8311,-1.71899 -1.63646,-8.5889 -1.63646,-8.5889" fill="none" stroke="#ff0000" stroke-width="3" stroke-linecap="round"/><path d="M498.45502,173.91105c0,0 5.33291,0.0324 6.42032,1.08472c1.07405,1.0394 0.06452,5.19093 0.06452,5.19093" fill="none" stroke="#ff0000" stroke-width="3" stroke-linecap="round"/><path d="M510.58793,183.11534c0,0 -1.72153,-6.01844 -0.52297,-7.217c1.30297,-1.30297 8.05375,-0.31378 8.05375,-0.31378" fill="none" stroke="#ff0000" stroke-width="3" stroke-linecap="round"/><path d="M424.19977,159.82312c-0.63807,3.14262 -5.07712,4.32005 -7.70535,5.9268c-7.45197,4.55573 -17.59618,4.78013 -25.69612,7.19424c-5.21049,1.54907 -10.76315,3.03268 -15.85775,5.03105c-3.87607,1.52041 -6.59004,4.18799 -10.34579,6.22179c-1.85544,1.00475 -3.89868,1.45941 -5.75235,2.46872c-9.37677,5.1056 -1.37816,9.1669 3.81549,12.49879c1.28145,0.82209 2.56503,1.71617 3.97179,2.1605c17.26699,5.45391 36.42619,-0.02681 53.53374,5.26621c0.0071,0.0022 0.01419,0.00439 0.02129,0.00659l0.00034,-0.0042l8.72052,0.98975c2.25829,0.2245 4.03238,2.47994 4.03238,5.22921c0,2.46157 -1.42223,4.52729 -3.34084,5.09378l-6.24554,2.02254l-0.03204,-0.1405l-0.29971,0.23166c-5.75754,0.76301 -11.351,2.81678 -17.08785,3.77606c-13.10567,2.19146 -28.91148,0.79282 -41.751,-1.96062c-11.67825,-2.50441 -23.17524,-3.19736 -34.15012,-9.18776c-8.10243,-4.42252 -20.5324,-9.12248 -25.05491,-19.26424c-2.08825,-4.68291 -1.53602,-9.59879 -1.53602,-14.61046c0.59329,-2.46657 0.57586,-5.27251 1.77989,-7.39972c1.2729,-2.24889 3.52377,-3.43546 5.30713,-5.12126c7.11405,-6.72486 14.23998,-10.97476 22.60743,-14.83777c9.84977,-4.54735 20.43682,-4.8271 30.8778,-7.31713c4.79538,-1.14363 9.6069,-2.65919 14.49731,-2.68531c11.35071,-0.06063 22.6851,1.77497 34.09739,1.91689c5.76554,-3.29568 13.22856,-0.56085 19.28891,0.00866c0.8151,0 5.26197,0 5.26197,0c2.43191,0 4.40335,2.34941 4.40335,5.24757c0,2.49733 -1.46384,4.5872 -3.42473,5.11751l-4.22223,1.25793l-0.07901,-0.37662c-3.02273,2.22916 -6.07302,3.93778 -9.63535,5.23932z" fill="#9a7645" stroke="none" stroke-width="0.5" stroke-linecap="butt"/><path d="M425.53812,204.48691c0,3.5746 -2.99952,3.5746 -2.99952,3.5746l-2.44378,-0.07424c-4.82656,-1.21921 -10.5496,0.79824 -15.10675,-0.81818c-0.09521,-0.03377 -0.18966,-0.06963 -0.28339,-0.10745l-0.00929,0.05543l-3.61678,-0.86204c-1.07273,-0.22962 -1.94749,-1.13894 -2.29917,-2.34052c-3.33028,-0.08881 -6.66002,-0.15178 -9.98987,-0.27065c-2.04212,-0.07291 -4.16087,0.28735 -6.11967,-0.40453c-0.01721,-0.00608 -0.03439,-0.0122 -0.05155,-0.01837l-0.00101,0.01324l-4.00793,-0.43421c-0.58621,-0.05556 -1.12495,-0.31198 -1.56774,-0.71149l-1.90438,-0.64843c-1.91168,-0.35165 -3.94595,-0.23974 -5.69455,-1.20807c-0.07291,-0.04038 -0.14551,-0.08144 -0.21777,-0.12318l-0.01173,0.04015l-0.91067,-0.37749c-1.62719,-0.20249 -3.26292,-0.43666 -4.93182,-0.68059c-0.90292,0.0019 -1.79235,-0.04251 -2.60715,-0.38148c-0.59903,-0.08695 -1.20369,-0.17373 -1.81504,-0.25936l-0.00926,-0.00696l-0.00058,0.00553l-3.18088,-0.47139c-1.50092,-0.19625 -2.6687,-1.71216 -2.6687,-3.55311c0,-1.97419 1.34294,-3.5746 2.99952,-3.5746c0.0958,0 0.19054,0.00535 0.28405,0.01581l3.32788,0.33049c0.03529,-0.92169 0.36347,-1.75235 0.87622,-2.36294c-1.90923,0.36018 -3.81616,0.72815 -5.71706,1.12117l-3.12601,0.92083c-0.25016,0.08061 -0.51329,0.12361 -0.78486,0.12361c-1.65659,0 -2.99952,-1.60041 -2.99952,-3.5746c0,-1.46227 0.73676,-2.71948 1.79205,-3.27316l5.37525,-2.98938l0.02935,0.07495c0.0983,-0.07771 0.19735,-0.15422 0.29718,-0.22949c1.19273,-0.89915 2.75498,-0.73672 4.14368,-1.03671c5.25547,-1.13524 10.51873,-2.11485 15.83927,-2.64021l4.93628,-1.26058c0.22179,-0.06231 0.4531,-0.09527 0.69085,-0.09527c0.16806,0 0.33291,0.01647 0.49344,0.04814l1.86217,-0.73973l0.0016,0.00569c0.007,-0.00486 0.014,-0.00972 0.02102,-0.01456c3.9675,-2.74014 9.87654,-3.86224 14.28047,-5.67285l0.01674,0.00066l-0.00184,-0.00662l4.33909,-1.72367c0.31698,-0.13582 0.65872,-0.20983 1.01496,-0.20983c0.62894,0 1.21263,0.23068 1.69483,0.6249c1.41772,-0.7049 2.83032,-1.42546 4.23463,-2.17336c0.62181,-0.33115 1.22713,-0.72504 1.8336,-1.11456c0.23897,-0.99291 0.82928,-1.8088 1.60031,-2.24439l3.61314,-2.15294l0.03609,0.08602c0.0525,-0.06377 0.10498,-0.12753 0.15747,-0.1913l0.22788,0.01337l-0.02855,-0.10203l3.23772,-1.28616c0.31698,-0.13582 0.65872,-0.20983 1.01496,-0.20983c0.63783,0 1.22913,0.23724 1.71522,0.64171c3.36056,-1.37187 6.71783,-2.75131 10.01891,-4.32303c1.53658,-0.73161 2.93983,-2.06074 4.58556,-2.26565c0.07802,-0.00971 0.15605,-0.01873 0.23408,-0.0271l-0.01006,-0.04917l5.66721,-1.64852c0.24757,-0.07881 0.50775,-0.12084 0.77616,-0.12084c1.65659,0 2.99952,1.60041 2.99952,3.5746c0,1.4389 -0.71341,2.67923 -1.7417,3.24606l-5.33073,3.10451l-0.00731,-0.01782l-0.04188,0.0458c-6.30875,3.34204 -13.00114,6.29208 -18.5338,11.27391c0,0 -1.67759,1.4994 -3.27942,0.31925c-0.45384,0.88174 -1.2196,1.51085 -2.11422,1.66922l-4.26912,0.84794c-0.10778,0.03206 -0.21559,0.06396 -0.32344,0.09573c-1.41576,0.88313 -3.18876,0.96956 -4.7416,1.53226c-1.98505,0.71931 -3.97205,1.38684 -5.96327,2.01645c-1.19115,0.61193 -2.38291,1.19572 -3.65144,1.16535c-0.05246,-0.00126 -0.10488,-0.00309 -0.1572,-0.00546c-0.05589,0.01641 -0.11177,0.03281 -0.16766,0.04919l0.00085,0.01152l-0.06251,0.00653c-0.5238,0.15329 -1.04798,0.30461 -1.57261,0.45422l-2.75189,1.09316c-0.30489,0.13063 -0.63267,0.20408 -0.97422,0.2095c-2.04064,0.54667 -9.3303,2.48995 -10.97391,2.92807l-1.14112,0.94146c0.01427,0.14143 0.02163,0.28541 0.02163,0.43143c0,1.63658 -0.9229,3.01629 -2.18231,3.44032l-4.70777,1.72626l-0.16132,-0.6248c-0.64063,0.41953 -1.2901,0.817 -1.94885,1.18804l1.30992,0.85114c1.3409,0.26345 2.51327,0.58638 3.33297,0.99052c3.32067,0.60255 6.64956,1.14156 9.96763,1.76425l2.93757,0.22047c0.67313,0.04388 1.28715,0.35224 1.77018,0.83939c5.27461,0.18115 10.54851,0.23478 15.82506,0.4716l0.02634,0.01138l0.00045,-0.00975l5.97013,0.39526c1.33968,0.07688 2.44884,1.20115 2.76341,2.70057c2.51731,0.08167 5.03454,0.31564 7.49469,0.91052l1.22748,-0.07424c0,0 2.99952,0 2.99952,3.5746z" fill="#ffc573" stroke="none" stroke-width="0.5" stroke-linecap="butt"/></g></g></svg>