<svg version="1.1" xmlns="http://www.w3.org/2000/svg" xmlns:xlink="http://www.w3.org/1999/xlink" width="240.12766" height="83.8522" viewBox="0,0,240.12766,83.8522"><g transform="translate(-199.73697,-137.15374)"><g data-paper-data="{&quot;isPaintingLayer&quot;:true}" fill-rule="nonzero" stroke-linejoin="miter" stroke-miterlimit="10" stroke-dasharray="" stroke-dashoffset="0" style="mix-blend-mode: normal"><path d="M217.09442,165.86417l9,1v8" fill="none" stroke="#000000" stroke-width="1.5" stroke-linecap="round"></path><path d="M232.53458,174.67756v-8l9,-1" data-paper-data="{&quot;index&quot;:null}" fill="none" stroke="#000000" stroke-width="1.5" stroke-linecap="round"></path><path d="M230.98851,198.04901c0,0 0.3445,-8.61004 5.78628,-9.03188c5.30472,-0.41122 12.46372,8.03188 12.46372,8.03188z" fill="#040404" stroke="#000000" stroke-width="1.5" stroke-linecap="round"></path><path d="M200.73697,171.09114c0,-18.19082 17.29485,-32.9374 38.62913,-32.9374c21.33428,0 38.62913,14.74658 38.62913,32.9374c0,11.22687 -2.48212,24.8741 -12.54127,30.82016c-0.42004,0.24829 -5.31543,2.90997 -5.31543,2.90997l-0.22453,13.91683l-12.57806,0.95271l-0.50527,-15.47565l0.06963,15.5724l-14.72842,0.20478l-0.46155,-15.93384l0.80812,15.80985l-16.17468,-0.08649c0,0 0.11388,-16.75516 -0.28778,-16.80951c-2.62384,-0.355 -2.02116,-0.00099 -3.86634,-0.93632c-11.32682,-5.74167 -11.45268,-18.89377 -11.45268,-30.94489z" fill="#ffffff" stroke="#000000" stroke-width="2" stroke-linecap="butt"></path><path d="M243.83743,171.09873c0,5.92619 -3.30023,10.73031 -7.37126,10.73031c-4.07103,0 -7.37126,-4.80413 -7.37126,-10.73031c0,-5.92619 -0.9919,-11.10354 3.07913,-11.10354c3.22238,0 10.77427,7.53515 10.77427,7.53515c0,0 0.88912,2.33301 0.88912,3.56839z" fill="#ababab" stroke="#000000" stroke-width="1" stroke-linecap="butt"></path><path d="M261.57705,161.07623c4.07103,0 3.07913,5.17736 3.07913,11.10354c0,5.92619 -3.30022,10.73032 -7.37126,10.73032c-4.07103,0 -7.37126,-4.80413 -7.37126,-10.73032c0,-1.23538 0.88912,-3.56839 0.88912,-3.56839c0,0 7.55188,-7.53515 10.77427,-7.53515z" data-paper-data="{&quot;index&quot;:null}" fill="#ababab" stroke="#000000" stroke-width="1" stroke-linecap="butt"></path><path d="" data-paper-data="{&quot;index&quot;:null}" fill="none" stroke="#000000" stroke-width="1.5" stroke-linecap="round"></path><path d="" data-paper-data="{&quot;index&quot;:null}" fill="none" stroke="#000000" stroke-width="1.5" stroke-linecap="round"></path><path d="" data-paper-data="{&quot;index&quot;:null}" fill="none" stroke="#000000" stroke-width="1.5" stroke-linecap="round"></path><path d="" data-paper-data="{&quot;index&quot;:null}" fill="none" stroke="#000000" stroke-width="1.5" stroke-linecap="round"></path><path d="" data-paper-data="{&quot;index&quot;:null}" fill="none" stroke="#000000" stroke-width="1.5" stroke-linecap="round"></path><path d="" data-paper-data="{&quot;index&quot;:null}" fill="none" stroke="#000000" stroke-width="1.5" stroke-linecap="round"></path><path d="" data-paper-data="{&quot;index&quot;:null}" fill="none" stroke="#000000" stroke-width="1.5" stroke-linecap="round"></path><path d="" data-paper-data="{&quot;index&quot;:null}" fill="none" stroke="#000000" stroke-width="1.5" stroke-linecap="round"></path><path d="" data-paper-data="{&quot;index&quot;:null}" fill="none" stroke="#000000" stroke-width="1.5" stroke-linecap="round"></path><path d="" data-paper-data="{&quot;index&quot;:null}" fill="none" stroke="#000000" stroke-width="1.5" stroke-linecap="round"></path><path d="M274.8589,192.52567c-0.60739,-0.08086 -1.08468,-0.36263 -1.21811,-0.71992h-1.44181c-0.89154,0 -1.61426,-0.42397 -1.61426,-0.94697c0,-0.47908 0.60645,-0.87507 1.39358,-0.93819l3.16621,-0.28575l0.05414,0.20643c2.03306,-0.33731 3.93098,-0.41055 6.84163,-0.41055h1.64022c0,0 1.42643,0 1.59754,0.78658c0.26496,0.1687 0.42679,0.394 0.42679,0.64147c0,0.30108 -0.23953,0.56935 -0.6129,0.7428c0.12923,0.13618 0.20285,0.29301 0.20285,0.45994c0,0.45496 -0.54694,0.83498 -1.27613,0.92616l-2.08628,0.28823l-0.00972,-0.02422l-0.09442,0.0365c-0.13055,0.00696 -0.26196,0.0142 -0.39402,0.02137c0.31034,0.07514 0.62033,0.15078 0.93001,0.22686l3.1355,0.22992c0.80731,0.05223 1.43529,0.4537 1.43529,0.94121c0,0.47532 -0.59695,0.86884 -1.37506,0.93664l-2.43414,0.23799l-0.00384,-0.01349l-0.06166,0.01909c-0.07472,0.00369 -0.15004,0.00775 -0.22591,0.01216c0.00004,0.00344 0.00006,0.00689 0.00006,0.01036c0,0.94697 -1.61426,0.94697 -1.61426,0.94697c-3.35125,-0.00342 -6.51467,0.47516 -9.84129,0.4811h-1.64022c-0.89154,0 -1.61426,-0.42397 -1.61426,-0.94697c0,-0.44007 0.51171,-0.81003 1.20511,-0.91628l3.06999,-0.51455l0.11076,0.22743c1.48395,-0.35371 2.93221,-0.59313 4.47716,-0.76804l-1.37773,-0.21903c-0.70388,-0.10201 -1.22578,-0.47494 -1.22578,-0.91937c0,-0.29795 0.23457,-0.56376 0.60128,-0.73735l-0.12627,-0.01852z" data-paper-data="{&quot;index&quot;:null}" fill="#bd00f2" stroke="none" stroke-width="0.5" stroke-linecap="butt"></path><g stroke="none" stroke-width="0.5" stroke-linecap="butt"><path d="M408.76416,171.33138c-0.04442,1.03962 -0.14706,1.97757 -0.37539,2.9693l0.00062,0.01729l0.37445,0.10061l-0.32586,2.18904c-0.10926,0.81725 -0.64117,1.43738 -1.2809,1.43738c-0.70039,0 -1.27153,-0.74329 -1.30031,-1.67479l-0.08375,-2.34619c-0.02501,-0.18784 -0.05188,-0.37404 -0.07998,-0.55875c-0.15937,0.48329 -0.55368,1.22956 -1.43592,0.99249c-1.27617,-0.34291 -1.02092,-2.0575 -1.02092,-2.0575c0.30552,-2.05234 0.64261,-3.92518 0.64034,-6.01956l0.04923,-0.13518l-0.03597,-0.00805l0.32709,-2.63662c0.09319,-0.84282 0.63402,-1.48943 1.28725,-1.48943c0.35202,0 0.6714,0.18778 0.90566,0.49284c0.23404,-0.46367 0.62947,-0.76833 1.07788,-0.76833c0.64868,0 1.18652,0.63762 1.28524,1.47182l0.32667,2.46673l-0.23976,0.05731c0.15946,0.65967 0.2581,1.33457 0.25989,2.02562v2.22082c0,0 0,0.73619 -0.35554,1.25318z" data-paper-data="{&quot;index&quot;:null}" fill="#bd00f2"></path><path d="M437.24084,185.59574c-0.11276,-0.00014 -0.22283,-0.00052 -0.33048,-0.00119l-0.00012,0.00119c0,0 -0.0112,0 -0.0315,-0.0014c-0.85353,-0.0058 -1.5558,-0.0301 -2.2404,-0.09288l0.01501,0.24198l-2.57873,0.28871c-0.04056,0.00511 -0.08167,0.00774 -0.12324,0.00774c-0.53575,0 -0.99591,-0.43493 -1.19548,-1.05636c-3.25456,1.06744 -6.46083,2.34782 -9.78936,3.24322c0,0 -1.27615,0.34293 -1.53139,-1.37166c-0.25524,-1.71457 1.02092,-2.0575 1.02092,-2.0575c5.31633,-1.42688 10.32115,-3.78801 15.69748,-4.79725c0.10821,-0.03097 0.21783,-0.05174 0.3291,-0.05998c0.09383,-0.01659 0.18778,-0.03276 0.28184,-0.04849l0.01542,0.0539c0.02095,0.00211 0.04184,0.00458 0.06272,0.00735l-0.00022,-0.06486l0.06783,-0.0004v-0.01001h1.65295c0.71878,0 1.30144,0.78284 1.30144,1.74855c0,0.9634 -0.5799,1.7448 -1.29631,1.74853l-1.44897,0.00879l-0.04382,0.4635z" data-paper-data="{&quot;index&quot;:null}" fill="#bd00f2"></path><path d="M409.29015,199.80079c-0.03191,0.30671 -0.06999,0.61411 -0.11542,0.92457h0.27555v1.77665c0,0.9657 -0.58267,1.74855 -1.30144,1.74855c-0.57594,0 -1.06449,-0.50263 -1.23593,-1.19922l-0.62732,-2.3619l0.01655,-0.00794l-0.03238,-0.05549c-0.0417,-0.23395 -0.08818,-0.46672 -0.13593,-0.6992c-0.23478,1.17282 -0.60023,2.30161 -1.09611,3.29343c-0.02461,0.04925 -0.04964,0.09802 -0.07505,0.14641l0.01477,0.01149l-0.83411,1.93559c0.01108,0.54205 0.0173,1.08517 0.01749,1.62991c0,0 0,1.74855 -1.30144,1.74855c-1.30144,0 -1.30144,-1.74855 -1.30144,-1.74855c0.00016,-0.43154 -0.00377,-0.862 -0.01109,-1.2917c-0.02551,-0.08961 -0.0457,-0.18276 -0.06001,-0.27875l-0.5591,-3.38018l0.03634,-0.01086l-0.05957,-0.17767c-0.0026,-0.97569 0.06992,-1.94717 0.19164,-2.91199h-0.19939v-3.49708c0,-0.9657 0.58267,-1.74855 1.30144,-1.74855c0.66284,0 1.20994,0.66577 1.29107,1.52671l0.15128,1.42283c0.67398,-2.03151 1.75586,-3.36424 3.18148,-2.16819c0.01571,-0.24959 0.02537,-0.48385 0.02537,-0.69702v-1.8891c0,-0.9657 0.58267,-1.74855 1.30144,-1.74855c0.6048,0 1.11325,0.55427 1.25928,1.30534l0.65327,3.07198l-0.19407,0.0745c0.23981,0.73749 0.4319,1.49651 0.54946,2.28376l0.02526,1.23124c0,0 0,1.61189 -1.1519,1.74042z" data-paper-data="{&quot;index&quot;:null}" fill="#bd00f2"></path><path d="M407.84947,179.27757c-0.06574,-0.11755 -0.16421,-0.25656 -0.21269,-0.38726c-0.22686,0.25847 -0.5205,0.41435 -0.84123,0.41435c-0.08222,0 -0.16267,-0.01024 -0.24066,-0.02984l-0.00868,0.04081c0.43377,-0.01872 0.86828,-0.03098 1.30327,-0.03807zM396.5991,195.2682c-3.14506,-0.23237 -6.26509,-0.5565 -9.3051,-0.78923h-1.29472c-0.71878,0 -1.30144,-0.78284 -1.30144,-1.74855c0,-0.92868 0.53888,-1.68827 1.21943,-1.74513l1.55691,-0.14942l-1.66775,-0.37345c-0.62732,-0.12519 -1.1086,-0.85181 -1.1086,-1.72947c0,-0.30822 0.05935,-0.59781 0.16354,-0.84926c-0.30101,-0.32027 -0.49412,-0.8156 -0.49412,-1.37156c0,-0.92418 0.53364,-1.68085 1.2095,-1.74425l2.58276,-0.27759l0.02434,0.40879c0.04948,0.00803 0.09889,0.01599 0.14823,0.02388c0.4197,-0.12469 0.83963,-0.23489 1.26001,-0.33225l-1.25811,-0.99782c-0.39457,-0.30034 -0.66082,-0.86959 -0.66082,-1.52238c0,-0.33604 0.07056,-0.64995 0.19286,-0.91643h-0.2138c-0.71878,0 -1.30144,-0.78284 -1.30144,-1.74855c0,-0.90017 0.50628,-1.64146 1.15715,-1.73791l0.82851,-0.13915c0.036,-0.85436 0.52855,-1.54468 1.15503,-1.63752l2.56565,-0.43089l0.0473,0.50852c0.01256,0.00096 0.02513,0.00189 0.03769,0.00285c2.17372,-0.73521 4.43602,-1.09388 6.73398,-1.24381c0.23317,-0.49972 0.46907,-0.98651 0.6983,-1.45413v-1.41873c0,-0.9657 0.58267,-1.74855 1.30144,-1.74855c0.05441,0 0.10802,0.00447 0.16067,0.01318l0.57872,-2.33264c0.16357,-0.71449 0.6587,-1.23384 1.24415,-1.23384c0.6048,0 1.11325,0.55427 1.25928,1.30534l0.65327,3.07198l-0.31067,0.11926c0.00856,0.03209 0.01705,0.0642 0.02548,0.09635c0.73039,0.39845 1.34825,1.6979 2.05163,2.31253l0.01314,0.25724l0.01212,-0.00933c0.03715,-0.7719 0.14813,-1.53984 0.31969,-2.26606l0.3152,-2.11743c0.10926,-0.81725 0.64117,-1.43738 1.2809,-1.43738c0.4112,0 0.77788,0.25622 1.01638,0.65633c0.00063,-0.21733 -0.00043,-0.43506 -0.00347,-0.65325c-0.04657,-3.34335 -0.35925,-6.48215 -0.22479,-9.5558c-0.03719,-0.65494 -0.07254,-1.30965 -0.10523,-1.9641l0.07836,-0.05879h-0.0791l-0.00001,-0.88906h-0.00003v-1.77665c0,-0.9657 0.58267,-1.74855 1.30144,-1.74855c0.71876,0 1.30143,0.78283 1.30144,1.74851v0l0.00003,2.50929c0.50329,0.9597 0.36,2.68115 0.25228,4.30314c0.31938,4.72773 0.72596,9.55589 0.85228,14.34854c5.1062,-0.23582 10.30448,-0.41465 15.19272,0.63112h1.2449c0.71878,0 1.30144,0.78284 1.30144,1.74855c0,0.02064 -0.00026,0.04121 -0.00078,0.06167c1.23279,-0.01636 2.46604,-0.02694 3.70005,-0.0313v-0.00228h2.60289c0.71878,0 1.30144,0.78284 1.30144,1.74855c0,0.9657 -0.58267,1.74855 -1.30144,1.74855h-1.32237c-0.6388,0 -1.27733,0.00173 -1.91568,0.00516c-1.28813,0.63623 -2.70591,0.54299 -4.39133,0.79533c-0.43724,0.06546 -0.87422,0.13069 -1.31101,0.196c0.566,0.18978 0.98527,0.87738 0.98527,1.69659c0,0.89055 -0.49552,1.6256 -1.13633,1.73461l-2.29519,0.44052l-0.04573,-0.43004c-1.98231,0.74842 -4.01817,1.20269 -6.07274,1.59042c0.18343,0.30134 0.29344,0.68645 0.29344,1.1061c0,0.14267 -0.01273,0.28136 -0.03672,0.41413c0.1352,0.03015 0.26688,0.05837 0.39472,0.08437l0.19417,0.29547l0.05969,-0.12303l1.09386,0.95793c0.36556,0.30959 0.60841,0.85683 0.60841,1.48029c0,0.85949 -0.46156,1.57416 -1.06985,1.72094l-2.52869,0.67948l-0.04501,-0.30237c-3.30107,1.33533 -6.73064,2.02468 -10.21261,2.32164c-0.13345,2.5995 0.31773,5.84265 -2.78955,6.20237c-0.03165,0.00365 -0.06297,0.00716 -0.09393,0.0105l-0.12668,1.53194c-0.06435,0.8849 -0.61967,1.57641 -1.29522,1.57641c-0.63843,0 -1.16951,-0.61764 -1.28023,-1.43245l-0.34805,-2.30167c-0.08344,-0.34699 -0.88034,-3.66014 -1.30932,-5.44902c-0.39778,-0.01394 -0.79556,-0.03065 -1.19324,-0.04978l-0.61177,1.91789c-0.19233,0.64291 -0.66072,1.0968 -1.20803,1.0968c-0.71878,0 -1.30144,-0.78284 -1.30144,-1.74855v-1.45968zM404.77724,190.52255c0.46446,0.00957 0.92728,0.0152 1.38806,0.0152h1.03018c0.06318,-0.10988 0.12681,-0.22084 0.19046,-0.33489l-1.63959,-0.16946c-0.36883,-0.03322 -0.69557,-0.27289 -0.91676,-0.63377c-0.8278,0.0791 -1.68866,0.15109 -2.53687,0.1705c0.00434,0.00881 0.00865,0.01763 0.01299,0.02647c0.82171,0.31898 1.64664,0.61603 2.47153,0.92591zM392.12619,182.37513c0.94014,0.49214 1.87968,0.81238 2.82001,1.04281c-0.00003,-0.00494 -0.00004,-0.0099 -0.00004,-0.01487c0,-0.483 0.14576,-0.92028 0.38142,-1.23672c-1.06812,0.13928 -2.14029,0.23605 -3.20139,0.20879zM405.61649,195.52385c-0.0864,0.00301 -0.17282,0.0058 -0.25927,0.00841c0.0004,0.00113 0.00079,0.00225 0.00121,0.00338l0.14903,0.40046c0.03419,-0.1365 0.07114,-0.27425 0.10904,-0.41224z" data-paper-data="{&quot;index&quot;:null}" fill="#9b00c4"></path><path d="M406.83117,192.13881c-0.38464,0.56354 -0.99644,0.56354 -0.99644,0.56354l-0.64624,-0.0522c-0.69072,-0.24 -1.38682,-0.5094 -2.06596,-0.83611h-0.50582l-0.07293,0.39195l-1.29596,-0.43529c-0.57955,-0.17671 -1.01221,-0.87307 -1.01221,-1.7052c0,-0.53463 0.17859,-1.01319 0.45996,-1.33393c-2.93486,0.16828 -5.9145,0.17983 -8.60536,-0.47083c-0.50151,0 -1.003,0 -1.5045,0c-0.06836,0 -2.53453,0 -2.60289,0c-0.71878,0 -1.30144,-0.78284 -1.30144,-1.74855c0,-0.9657 0.58267,-1.74855 1.30144,-1.74855h2.60289c0.50151,0 1.003,0 1.5045,0c0.42571,-0.10294 0.85864,-0.1893 1.29749,-0.26109c-0.06094,-0.20239 -0.0945,-0.42362 -0.0945,-0.65534c0,-0.9657 0.58267,-1.74855 1.30144,-1.74855h1.36421c1.24583,0.00119 2.47649,-0.10941 3.69583,-0.27446c0.10602,-0.06801 0.21995,-0.11729 0.33944,-0.14469l2.53394,-0.64848l0.0453,0.31959c0.15262,-0.02733 0.30509,-0.0548 0.45744,-0.08232c2.88213,-1.17474 5.64575,-1.3827 9.12695,-1.39024v-0.00023h2.60289c0.71878,0 1.30144,0.78284 1.30144,1.74855c0,0.9657 -0.58267,1.74855 -1.30144,1.74855h-2.39783c-0.34977,0 -0.7261,0.02421 -1.12221,0.06429c-0.34479,0.10345 -0.71167,0.15835 -1.13661,0.21986c0.00493,0.06182 0.00744,0.12456 0.00744,0.18814c0,0.33604 -0.07056,0.64995 -0.19286,0.91643h0.2138c0.71878,0 1.30144,0.78284 1.30144,1.74855c0,0.29987 -0.05617,0.5821 -0.15516,0.82872l0.63653,0.09629c0.65779,0.08756 1.17159,0.83312 1.17159,1.73994c0,0.69801 -0.30443,1.3005 -0.74463,1.58087l-1.29715,0.87138l-0.02381,-0.06397c-0.08364,0.07251 -0.16991,0.14008 -0.2592,0.2018c-0.81797,0.56547 -2.39858,0.52391 -3.93084,0.37156z" data-paper-data="{&quot;index&quot;:null}" fill="#da7af5"></path><path d="M406.16534,187.3724c-2.44933,0 -4.84407,-0.02397 -7.28747,-0.29333l-1.4027,-0.15542c-0.67452,-0.06523 -1.20665,-0.82112 -1.20665,-1.74396c0,-0.9657 0.58267,-1.74855 1.30144,-1.74855h1.98354v0.21111c0.2242,0.02209 0.44803,0.0421 0.67158,0.06022c1.51308,-0.28001 3.00819,-0.2713 4.94847,-0.2713h0.99178c0,0 1.30144,0 1.30144,1.74855c0,0.07741 -0.00255,0.15138 -0.00743,0.22207c0.00487,0.0707 0.00743,0.14469 0.00743,0.22207c0,1.74855 -1.30144,1.74855 -1.30144,1.74855z" data-paper-data="{&quot;index&quot;:null}" fill="#e6b0f5"></path></g><g stroke="none" stroke-width="0.5" stroke-linecap="butt"><path d="M370.89748,175.24503c0,-1.37316 1.93075,-1.37316 1.93075,-1.37316l2.95113,0.00002c3.08687,0.01922 5.27699,0.08411 7.57577,0.40833l0.04583,-0.32598l3.82107,0.27176c0.98629,0.06151 1.75987,0.65044 1.75987,1.36785c0,0.65349 -0.64186,1.20037 -1.50167,1.33911l-1.76998,0.31471c-0.5598,0.19619 -1.10979,0.38901 -1.65706,0.55202c0.31941,0.24499 0.51466,0.57299 0.51466,0.93342c0,0.67498 -0.68478,1.23619 -1.58716,1.35148l-2.41715,0.34383l-0.00412,-0.01464l-0.05173,0.02197c-0.17966,0.01785 -0.37312,0.0415 -0.57833,0.0697l0.10866,0.01546c0.90241,0.11527 1.58716,0.67651 1.58716,1.35148c0,0.65349 -0.64186,1.20037 -1.50167,1.33911l-1.91908,0.34121c-0.60097,0.10915 -1.17759,0.22575 -1.73983,0.3389c3.30401,0.30408 6.58423,0.82172 9.87867,1.15592c0,0 1.91133,0.19419 1.6383,1.55354c-0.27304,1.35937 -2.18437,1.16516 -2.18437,1.16516c-0.25312,-0.02576 -0.50611,-0.05257 -0.75903,-0.08025c-0.35282,0.27228 -0.85848,0.44285 -1.42016,0.44285c-0.79295,0 -1.47423,-0.33995 -1.77144,-0.82613c-3.54252,-0.44794 -7.08421,-0.92074 -10.67996,-0.9246l-0.17797,-0.0571l-0.01045,0.03711l-3.75143,-0.53361c-0.90241,-0.11527 -1.58716,-0.67651 -1.58716,-1.35148c0,-0.58286 0.51059,-1.0809 1.23104,-1.28021l1.116,-0.32991c-0.8606,-0.13836 -1.50322,-0.68551 -1.50322,-1.33937c0,-0.45494 0.31111,-0.85823 0.79028,-1.10812l1.9438,-1.03683l0.40486,0.38392c1.73548,-0.90968 3.52846,-1.30302 5.70075,-1.57522c-0.00771,-0.04985 -0.01165,-0.1005 -0.01165,-0.15184c0,-0.50896 0.38935,-0.95322 0.96774,-1.19041l0.48931,-0.20879c-0.32887,-0.0092 -0.66396,-0.01597 -1.00609,-0.01809l-2.93424,0.00002c0,0 -1.93075,0 -1.93075,-1.37316z" data-paper-data="{&quot;index&quot;:null}" fill="#bd00f2"></path><path d="M360.6877,179.4638l-0.37455,-0.30445l2.89902,-1.80407c0.34052,-0.21415 0.78813,-0.34414 1.27846,-0.34414c1.06633,0 1.93075,0.61479 1.93075,1.37316v1.39522h-0.10998l0.08504,0.21997c-1.44809,3.18936 -1.58452,5.86381 -5.87404,6.57916l-0.00744,0.0317c-0.13826,0.66189 -0.94056,1.16968 -1.9097,1.16968c-1.06633,0 -1.93075,-0.61479 -1.93075,-1.37316v-2.09284h0.20074l-0.14657,-0.323c0.32241,-0.46577 0.61403,-0.88668 0.88798,-1.27107c0.01276,-0.14353 0.03825,-0.28414 0.07623,-0.41928l0.48344,-1.7191c0.16208,-0.64179 0.9512,-1.1288 1.90027,-1.1288c0.18996,0 0.37351,0.01951 0.5469,0.05585c0.02128,-0.01497 0.04267,-0.02995 0.06418,-0.04487z" data-paper-data="{&quot;index&quot;:null}" fill="#e6b0f5"></path><g><path d="M322.40883,182.25809c0.77146,0.05558 1.54305,0.1112 2.31453,0.16681c0,0 4.81822,0.34734 4.4167,4.51542c-0.40152,4.16805 -5.21974,3.82076 -5.21974,3.82076c-2.02864,-0.14625 -4.05732,-0.29269 -6.08587,-0.43992c5.56944,0.9001 11.28409,1.07503 16.91238,1.68363c0,0 4.7976,0.51878 4.19784,4.669c-0.59969,4.15023 -5.39729,3.63144 -5.39729,3.63144c-10.08692,-1.09074 -19.13525,-2.07666 -28.83986,-4.72876c-2.97143,-0.81202 -7.38787,-0.0318 -8.93801,-2.37033c-1.11054,-1.67532 -1.24786,-3.45345 -0.72382,-5.18701l-0.46539,0.46895c0,0 -3.41879,2.95747 -6.83759,0c-3.41879,-2.95747 0,-5.91499 0,-5.91499l3.46916,-2.7953c3.6371,-1.80337 7.3453,-3.62941 11.12802,-5.34717c-0.03116,-0.19173 -0.04723,-0.3877 -0.04723,-0.58691c0,-2.30995 2.16461,-4.18252 4.83493,-4.18252h6.99379c3.40775,-1.17865 6.87388,-2.1765 10.40059,-2.90866l1.02802,-1.34111c7.77831,0 15.55671,0 23.335,0c0,0 4.83493,0 4.83493,4.18252c0,4.18252 -4.83493,4.18252 -4.83493,4.18252c-2.48234,0 -4.9647,0 -7.44709,0c0.00026,0.02229 0.00041,0.04471 0.00041,0.06727c0,1.2565 -0.43637,2.13558 -1.04691,2.75051c6.54418,1.71759 12.99833,2.55707 19.25296,5.19539c0,0 4.32443,1.87049 2.16226,5.61143c-2.16226,3.74094 -6.48671,1.87049 -6.48671,1.87049c-6.84836,-3.06079 -14.71209,-3.57309 -22.09928,-5.9492l-4.31659,-1.2696c0,0 -3.46,-1.01928 -3.33876,-3.88784c-2.92675,0.11684 -5.5302,0.1751 -7.99537,-0.47385c-0.41451,0.87916 -0.86872,1.75004 -1.37108,2.59458h1.98217c0,0 2.92938,0 4.2278,1.97251z" data-paper-data="{&quot;index&quot;:null}" fill="#bd00f2"></path><path d="M352.67403,192.16657c0.12012,1.0157 0.37698,2.04052 0.56739,3.05669v-1.49143h0.00368c0.00115,-0.04084 0.00255,-0.08169 0.00424,-0.12252l-0.00721,-0.18917l0.01682,-0.00031c0.02204,-0.36392 0.06435,-0.72726 0.12409,-1.0897c-0.07151,-0.36024 -0.11769,-0.72201 -0.13449,-1.08411h-0.00714v-0.37143c-0.00959,-0.09998 -0.01839,-0.20007 -0.02647,-0.30024c-0.31329,-0.0426 -0.62806,-0.08817 -0.94328,-0.13607c-0.00022,0.0005 -0.00046,0.001 -0.00068,0.00152l0.3916,1.67105l-0.02283,0.00269zM353.46465,196.94994c0.13511,-0.15538 0.27307,-0.30671 0.41407,-0.45458c-0.22613,-0.14521 -0.40373,-0.32794 -0.51337,-0.53439c0.04792,0.33125 0.08341,0.66113 0.0993,0.98897zM348.71769,169.1248c0.00536,0.13932 0.00602,0.27926 -0.00068,0.41869c0.06705,-0.06415 0.14178,-0.12401 0.22318,-0.17887c-0.07673,-0.07424 -0.15072,-0.15429 -0.22254,-0.23982zM348.29348,170.91016l0.02868,0.00612l-0.41597,0.9861c0.13198,-0.00543 0.26417,-0.01087 0.39661,-0.01629c0.00774,-0.04432 0.01545,-0.08852 0.02317,-0.13263l0.00714,-0.90563c-0.01309,0.02083 -0.02629,0.04161 -0.03962,0.06234zM358.05617,192.54537c0.09237,-0.08523 0.19854,-0.16252 0.31608,-0.23019c-0.22932,-0.30392 -0.4062,-0.63602 -0.54403,-0.98708c-0.02282,0.01263 -0.04604,0.02489 -0.06965,0.03678c-0.07954,0.34559 -0.1427,0.70599 -0.17232,1.08936l-0.02001,0.03277l0.01529,0.00122l-0.08857,0.5669zM337.31907,179.00109c0.59385,-0.09842 1.12748,-0.10979 1.63162,-0.05718c0.48819,-0.00722 1.03484,0.00504 1.62189,0.05078c0.75566,-0.22594 1.63652,-0.33709 2.49436,-0.43517c-0.00928,-0.17133 -0.01739,-0.34255 -0.02425,-0.51373l-3.08589,0.21948c-1.24742,0.37719 -2.10454,0.60523 -2.63777,0.73586zM380.34398,182.87636c-0.80845,-0.20349 -1.59008,-0.3819 -2.35499,-0.54619c-0.25201,0.16774 -0.51919,0.32551 -0.77803,0.46882c1.16566,1.10697 1.31647,2.23585 0.74845,3.25953c0.26048,0.01232 0.51456,0.02005 0.76086,0.0216h2.44553c1.06633,0 1.93075,0.61479 1.93075,1.37316c0,0.75836 -0.86441,1.37316 -1.93075,1.37316h-2.45223v-0.00517l-0.00924,0.00516c-0.33265,-0.00248 -0.70552,-0.00192 -1.1096,-0.00113c-0.50894,0.05549 -1.03293,0.06976 -1.58992,0.06582c-0.41804,0.34051 -1.06609,0.23515 -1.73145,-0.0418c-0.13615,-0.00375 -0.2746,-0.00732 -0.41554,-0.01046c-1.25713,0.36007 -2.55993,0.43506 -3.8648,0.35689c-0.87029,3.41808 -2.10286,6.79289 -2.10692,10.23022l-0.07396,0.10606l0.05428,0.00643l-0.48522,2.07057c-0.13826,0.66189 -0.94056,1.16968 -1.9097,1.16968c-0.91885,0 -1.68776,-0.45649 -1.88287,-1.068l-0.48063,-1.36736l0.38773,-0.06894c-0.20754,-0.32227 -0.39477,-0.64388 -0.56784,-0.96849c-0.21374,0.59288 -0.97008,1.03112 -1.87038,1.03112c-0.91885,0 -1.68776,-0.45649 -1.88287,-1.068l-0.48063,-1.36736l0.51543,-0.09165c-0.2746,-0.49661 -0.50183,-1.0056 -0.67334,-1.52128l-0.05238,-0.02927c-0.87081,1.34748 -2.16848,2.43576 -3.02299,3.96683l-0.05582,0.04112l0.02289,0.00814l-0.96219,1.36862c-0.30959,0.46447 -0.97484,0.78565 -1.74563,0.78565c-0.93563,0 -1.71585,-0.47335 -1.89301,-1.10167l-0.82943,-2.65451l0.33867,-0.05353c-0.43468,-0.98891 -0.74756,-1.95552 -0.98782,-3.00699c-0.35292,0.3272 -0.90825,0.53815 -1.53287,0.53815c-0.63972,0 -1.20677,-0.22127 -1.55808,-0.56205l-0.87866,-0.83323c-0.00516,0.00004 -0.01033,0.00004 -0.01546,0.00004c-1.06633,0 -1.93075,-0.61479 -1.93075,-1.37316v-2.09284h0.484c-0.13071,-0.79271 -0.1991,-1.57391 -0.23725,-2.35589c-0.35969,-0.05025 -0.69572,-0.09047 -1.00414,-0.11813c-2.15148,-0.19294 -5.82596,0.66938 -7.62432,-0.53447c-1.08141,-0.72391 -2.9181,-1.83352 -2.19662,-2.7567c0.27185,-0.34784 2.69583,-0.85021 5.24551,-1.29775c-0.56311,-0.09229 -1.08363,-0.19914 -1.53946,-0.32459c-1.57911,-0.43459 -4.07893,-0.63834 -4.38582,-1.82262c-0.14938,-0.57643 0.33597,-1.08447 1.03509,-1.51658c-0.6134,-0.44598 -1.00514,-1.08155 -1.04344,-1.99461c-0.02382,-0.56786 1.3045,-1.25671 2.81249,-1.83c-0.52106,-0.24591 -0.86457,-0.66693 -0.86457,-1.14499c0,-0.36556 0.20083,-0.69774 0.52835,-0.9438c-0.23587,-0.2277 -0.37529,-0.50909 -0.37529,-0.81362c0,-0.70774 0.75285,-1.29042 1.72004,-1.36507l3.80747,-0.33321l0.00438,0.02537l0.11329,-0.03309c1.12586,-0.00072 2.30376,-0.02425 3.52023,-0.06062v-2.05688c0,-0.59061 0.5243,-1.09414 1.25995,-1.288c-0.01254,-1.44218 0.65869,-2.83966 2.81375,-3.20668c1.41088,-0.24028 3.13529,2.30478 3.87068,1.41535c0.58757,-0.71065 0.39494,-1.64941 0.88364,-2.39386v-1.15416c0,-0.75836 0.86441,-1.37316 1.93075,-1.37316c0.94905,0 1.73819,0.487 1.90027,1.1288l0.18466,0.65664c0.34796,-0.24144 0.82365,-0.39021 1.34819,-0.39021c0.5903,0 1.11874,0.18841 1.47292,0.48531l0.57453,-1.53057c0.20557,-0.60121 0.96756,-1.04754 1.87614,-1.04754c0.86853,0 1.60311,0.40787 1.84574,0.96897l1.20702,2.57534l-0.01103,0.00261c0.47895,0.74349 0.79576,1.54172 0.821,2.46789c0.01958,0.07844 0.02979,0.1592 0.02979,0.24167v1.19298c0.48051,-0.46939 0.83117,-1.34443 1.45018,-1.13506c0.68916,0.23307 1.14622,0.65671 1.52273,1.14645c0.35414,-0.29653 0.88225,-0.48468 1.47216,-0.48468c1.06633,0 1.93075,0.61479 1.93075,1.37316v1.45642c0.77636,0.13478 1.36877,0.6034 1.45931,1.1799c0.25427,0.10069 0.4732,0.24104 0.6403,0.40929c0.72197,0.10516 1.44125,0.22604 2.16397,0.36374l0.04939,-0.25764l3.79893,0.36842c0.9561,0.08205 1.69702,0.66109 1.69702,1.36319c0,0.62285 -0.58306,1.14883 -1.3822,1.31695l-2.72868,0.62354l-0.00116,-0.00255l-0.01026,0.00513c-0.03103,0.00673 -0.06238,0.01371 -0.09402,0.02083l0.8921,0.2115c0.78896,0.17255 1.36243,0.69501 1.36243,1.3127c0,0.54816 -0.45165,1.02131 -1.10469,1.24149l-0.45421,0.16152c0.36961,0.07956 0.74938,0.17172 1.14344,0.27209l0.0385,-0.12325l3.73239,0.58989c0.88349,0.12602 1.54903,0.68088 1.54903,1.34632c0,0.75836 -0.86441,1.37316 -1.93075,1.37316h-1.96178v-0.115zM354.57077,171.67206c0.16367,-0.69271 0.36243,-1.37098 0.60249,-2.03001c-0.00037,0 -0.00072,0 -0.00109,0c-0.62005,0 -1.17182,-0.20788 -1.52508,-0.53096c-0.61474,0.29353 -1.15601,0.51112 -1.63617,0.65958c0.12024,0.17901 0.18756,0.37945 0.18756,0.59109v1.37581c0.78896,-0.026 1.58068,-0.04853 2.37232,-0.06549zM365.18911,171.76981c0.00037,0.00271 0.00072,0.00543 0.00109,0.00814c0.05859,0.07344 0.10792,0.15108 0.1469,0.23214c0.2199,0.02432 0.43855,0.05006 0.65591,0.07724v-1.02799h0.04402c-0.03752,-1.91249 0.17151,0.05869 -0.8479,0.71046zM346.87069,178.52422c0.18459,0.02021 0.37228,0.04211 0.56111,0.06539c0.067,-0.90036 0.15781,-1.79278 0.26489,-2.669h-0.80914c-0.04136,0.86943 -0.04127,1.7368 -0.01685,2.60363zM365.59335,177.14729c0.00308,0.11964 0.00397,0.2379 0.00209,0.355c0.1048,-0.03697 0.215,-0.0674 0.32954,-0.09047c-0.12584,-0.07755 -0.23744,-0.16648 -0.33165,-0.2645zM361.23959,166.94617c-0.12303,0.14369 -0.24949,0.28607 -0.37907,0.42717l0.41647,0.16328l-0.57952,0.74759c0.12512,0.39124 0.25864,0.77833 0.39887,1.16237l0.29253,-1.20772c-0.07849,-0.4282 -0.12752,-0.86511 -0.14928,-1.29273zM347.07506,182.24733c0.00243,0.00277 0.00483,0.00554 0.00725,0.00831l0.22696,0.02299c-0.00355,-0.2797 -0.00383,-0.55975 -0.00112,-0.83982c-0.09468,-0.00325 -0.1909,-0.00617 -0.2883,-0.00877c0.01805,0.27232 0.03662,0.54474 0.05517,0.81732zM347.25945,185.42197c0.01346,0.34948 0.02356,0.69952 0.02926,1.05018c0.12093,0.01891 0.24128,0.0378 0.36097,0.05661c-0.06047,-0.38315 -0.11211,-0.76945 -0.15558,-1.15821c-0.07819,0.01729 -0.15641,0.03442 -0.23467,0.05138zM365.76749,174.94052c-0.10359,0.01239 -0.20745,0.02442 -0.31159,0.03615c0.01128,0.24944 0.02763,0.49229 0.04521,0.72928c0.27768,-0.35424 0.76946,-0.61198 1.35088,-0.68469c-0.38157,-0.0005 -0.74244,-0.02216 -1.0845,-0.08075zM371.88069,185.68476c-0.19262,-0.05045 -0.3904,-0.0905 -0.59201,-0.12283c-0.08097,0.06089 -0.1697,0.11654 -0.26507,0.16611c0.28005,-0.02349 0.56629,-0.03727 0.85707,-0.0433zM347.47191,189.59321c-0.00493,0.4133 -0.06772,0.80463 -0.24977,1.17135c0.14057,0.05115 0.27118,0.11417 0.38916,0.18723l0.2352,-0.33454v-0.95363c-0.12566,-0.02362 -0.25055,-0.04708 -0.37459,-0.0704z" data-paper-data="{&quot;index&quot;:null}" fill="#9b00c4"></path><path d="M353.30756,177.81446c0.26266,-1.51055 0.72878,-3.82772 1.14282,-3.98699c1.85005,-0.7117 10.21614,0.98993 12.09465,3.20539c0.2859,-0.21063 0.71992,-0.3705 1.37869,-0.3705c1.93075,0 1.93075,1.37316 1.93075,1.37316c-0.00983,0.54925 -0.06435,1.13591 -0.15696,1.74989c1.66858,0.38348 2.53303,1.26802 0.15287,3.35351c-0.29829,0.26136 -0.68076,0.43997 -1.1111,0.57093c-1.07651,3.36306 -2.7601,6.90369 -4.2708,9.42529c-1.00409,1.67598 -2.63062,3.55637 -5.96478,2.08258c-1.11663,-0.49356 -1.32613,-1.62792 -1.75778,-2.51109c-0.44759,-0.91573 -0.87403,-1.86584 -1.27539,-2.82958c-0.34064,0.21447 -0.78858,0.34469 -1.2793,0.34469c-0.48201,0 -0.92279,-0.12564 -1.26109,-0.33336l-1.00902,0.24774c-0.20943,0.05536 -0.43605,0.0856 -0.67256,0.0856c-1.06633,0 -1.93075,-0.61479 -1.93075,-1.37316c0,-0.50896 0.38935,-0.95322 0.96774,-1.19041l2.0285,-0.86561c0.00299,-0.01965 0.00609,-0.03928 0.0093,-0.05889h-0.58436c-1.06633,0 -1.93075,-0.61479 -1.93075,-1.37316c0,-0.45911 0.31682,-0.86561 0.80342,-1.11491c-0.23941,-0.12406 -0.41373,-0.26493 -0.50236,-0.42135c-0.42072,-0.74263 0.44207,-1.78747 1.77222,-2.87136l-1.79842,0.18272c-0.09964,0.01129 -0.20183,0.01713 -0.30591,0.01713c-1.06633,0 -1.93075,-0.61479 -1.93075,-1.37316c0,-0.68923 0.714,-1.25986 1.64464,-1.35818l2.91136,-0.3451l0.01133,0.0483l0.00012,-0.00002c0.29559,-0.10689 0.59332,-0.21048 0.89361,-0.31009zM359.14305,188.19277c0.28829,0.54891 0.57185,1.09892 0.82096,1.65611c0.30497,0.68217 0.33971,1.41111 0.5006,2.11771c0.07,0.30746 0.02356,1.23806 0.10176,0.93157c0.46336,-1.8162 1.37317,-3.70014 2.31756,-5.60172l-1.26154,0.35888l-0.15465,-0.27497c-0.76367,0.29341 -1.52854,0.55896 -2.32469,0.81238zM356.87483,175.96503c-0.33015,0.04882 0.39151,0.36087 0.52546,0.61495l0.82983,-0.29508c-0.56589,-0.22634 -1.05084,-0.36486 -1.35529,-0.31986zM362.44689,178.13543c-0.10173,-0.01895 -0.21812,-0.05109 -0.34661,-0.09406l-0.83853,0.41736c0.95508,-0.13717 1.53701,-0.25781 1.18514,-0.3233zM360.61621,182.42438c0.03833,-0.00884 0.07666,-0.01765 0.11501,-0.02644c-0.0589,-0.00447 -0.11784,-0.00912 -0.17678,-0.01394c0.02066,0.01322 0.04127,0.02668 0.06178,0.0404z" data-paper-data="{&quot;index&quot;:null}" fill="#da7af5"></path></g></g></g></g></svg>