<svg version="1.1" xmlns="http://www.w3.org/2000/svg" xmlns:xlink="http://www.w3.org/1999/xlink" width="71.27353" height="151.64781" viewBox="0,0,71.27353,151.64781"><g transform="translate(-443.14341,-27.47863)"><g data-paper-data="{&quot;isPaintingLayer&quot;:true}" fill="#9bff66" fill-rule="nonzero" stroke="none" stroke-width="0.5" stroke-linecap="butt" stroke-linejoin="miter" stroke-miterlimit="10" stroke-dasharray="" stroke-dashoffset="0" style="mix-blend-mode: normal"><path d="M479.30613,27.47863c2.5,0 2.5,2.5 2.5,2.5l-0.03982,0.70913c-1.21088,6.08989 2.43751,13.76473 -0.7032,19.63392c-1.03288,1.9302 -2.51736,4.12616 -4.64458,4.64334c-0.99245,0.24129 -1.88776,-0.3909 -2.7434,-1.13694c0.08462,1.01428 0.09381,2.0367 0.00223,3.06858l0.23545,4.9763c0.00242,0.04512 0.00365,0.09055 0.00365,0.13627c0,1.38071 -1.11929,2.5 -2.5,2.5c-0.7809,0 -1.47818,-0.35804 -1.93663,-0.91891c2.28716,11.12256 4.9249,22.22897 6.41968,33.45308c0.20969,1.57453 1.19876,8.5812 1.16975,10.13877c-0.04301,2.30936 0.62388,5.01886 -0.7292,6.8908c-1.50277,2.07903 -5.91661,0.37995 -7.6841,-0.14582c-4.77553,-1.42055 -11.0167,-2.81133 -15.9593,-5.34321c1.66291,2.02907 3.34786,4.03721 5.15593,5.94322c7.51643,7.9335 15.75652,15.21997 22.59959,23.72551c0.53031,0.65914 1.06949,1.31144 1.60894,1.96354c-0.7855,-7.87301 -0.05304,-15.99228 0.19548,-23.8765c-0.06054,-0.90659 -0.05922,-1.81077 0.06348,-2.70933c0.00125,-0.08834 0.00241,-0.17664 0.00348,-0.2649l-0.25054,-3.78276c-0.00468,-0.06252 -0.00707,-0.12568 -0.00707,-0.1894c0,-1.38071 1.11929,-2.5 2.5,-2.5c1.31352,0 2.39044,1.013 2.49215,2.30038l0.26071,2.88664l-0.05458,0.00493l0.06237,0.11176c-0.00097,0.31879 -0.00305,0.63754 -0.00614,0.95625l0.00302,0.04558c0.05516,0.12017 0.41832,6.72781 0.52256,7.89624c0.58679,6.57709 1.2599,13.15792 2.29495,19.67838c0.19049,1.20002 0.81071,4.53508 1.07257,7.44224c2.2791,-0.89705 4.57323,-1.76016 6.8901,-2.57649l2.28686,-0.94526c0.30802,-0.13568 0.64862,-0.21101 1.00681,-0.21101c1.38071,0 2.5,1.11929 2.5,2.5c0,0.87865 -0.45329,1.65144 -1.13877,2.09726l-4.12007,2.76471l-0.01977,-0.02946c-0.05891,0.05042 -0.11838,0.10027 -0.17844,0.14953c-2.71486,2.22637 -6.50433,3.45755 -9.71936,2.53951c-4.97187,1.99009 -9.88863,4.13245 -14.68819,6.43712c-0.354,0.16998 -0.68847,0.33958 -1.00694,0.50727c7.95245,-0.45704 15.86039,-0.06315 23.91389,0.73473c3.15573,0.31265 10.01036,0.62071 12.92351,1.95557c0.04654,0.02133 0.09275,0.04319 0.13865,0.06557l0.00789,-0.02613l2.57602,0.77787c1.05597,0.29246 1.83119,1.26047 1.83119,2.40954c0,1.33698 -1.04951,2.42884 -2.36963,2.49666l-4.33368,0.2566c-10.64777,2.02643 -20.50279,5.84457 -30.85371,8.90897c0,0 -2.39716,0.70968 -3.10683,-1.68748c-0.70968,-2.39716 1.68748,-3.10683 1.68748,-3.10683c7.57945,-2.24387 14.89726,-4.86048 22.44053,-6.92261c-0.47744,-0.05413 -0.95522,-0.10482 -1.43331,-0.15197c-10.82096,-1.06728 -21.32232,-1.37696 -32.08779,0.18779l-0.125,-0.03925l0.00222,0.04797l-2.6809,0.12424c-0.04421,0.00233 -0.08873,0.0035 -0.13352,0.0035c-1.38071,0 -2.5,-1.11929 -2.5,-2.5c0,-0.95523 0.53573,-1.78533 1.32313,-2.20623l4.32071,-2.41614c3.25932,-2.68754 8.15204,-4.29955 11.96391,-5.96631c2.54188,-1.11145 5.08167,-2.21509 7.63048,-3.29243c-1.35647,-1.54242 -2.3963,-3.22219 -2.76,-3.69594c-8.204,-10.6864 -17.9254,-19.67586 -27.17796,-29.44046c-2.98458,-3.15348 -5.65305,-6.56421 -8.41804,-9.91065l-0.00948,-0.02283l-0.0054,0.00429l-2.09115,-2.63112c-0.34746,-0.42937 -0.55559,-0.97614 -0.55559,-1.57152c0,-1.38071 1.11929,-2.5 2.5,-2.5c0.18688,0 0.36897,0.0205 0.54414,0.05939l4.85091,0.97655l-0.00448,0.02223c0.06741,0.00814 0.13478,0.0168 0.20212,0.026c4.58057,0.62552 9.74907,3.82163 14.15059,5.30514c1.55344,0.52358 3.14164,0.93778 4.70977,1.41555c0.73847,0.22499 1.524,0.33851 2.20994,0.69269c0.25581,0.13209 0.52567,0.99217 0.49812,0.70559c-1.71659,-17.85518 -6.35196,-35.47408 -9.6329,-53.10696l0.0009,-0.00685l-0.00208,0.00038l-0.51723,-2.86348c-0.03185,-0.15931 -0.04855,-0.32409 -0.04855,-0.49276c0,-1.38071 1.11929,-2.5 2.5,-2.5c0.65686,0 1.25455,0.25332 1.7007,0.66761l1.74681,1.61174c0.01179,-0.47802 0.00183,-0.95359 -0.07506,-1.42026c-0.32952,-1.9998 -0.95252,-3.93316 -1.59137,-5.86305c-0.71985,-1.23788 -1.35349,-2.55508 -1.96998,-3.94115c0,0 -0.68232,-1.56983 0.38117,-2.67615c0.13836,-0.69932 0.58487,-1.49853 1.84141,-1.80712l-0.00001,-0.00001c2.42786,-0.59625 3.02411,1.83161 3.02411,1.83161l0.42731,1.74772c0.32717,1.14062 0.69319,2.28515 1.05679,3.43571c1.13652,1.30302 2.75513,2.20995 3.79732,3.60318c0.26188,0.35009 0.03931,1.41556 0.43806,1.23629c0.55245,-0.24836 0.4982,-1.11551 0.61521,-1.70981c0.26491,-1.34557 0.46333,-2.71057 0.52477,-4.08059c0.22049,-4.91671 -0.9812,-9.59624 -0.17595,-14.40455l-0.03982,0.17969c0,0 0,-2.5 2.5,-2.5z"/></g></g></svg>