<svg version="1.1" xmlns="http://www.w3.org/2000/svg" xmlns:xlink="http://www.w3.org/1999/xlink" width="119.39574" height="106.18624" viewBox="0,0,119.39574,106.18624"><g transform="translate(-200.95089,-140.37075)"><g data-paper-data="{&quot;isPaintingLayer&quot;:true}" fill-rule="nonzero" stroke-linejoin="miter" stroke-miterlimit="10" stroke-dasharray="" stroke-dashoffset="0" style="mix-blend-mode: normal"><path d="" data-paper-data="{&quot;index&quot;:null}" fill="none" stroke="#000000" stroke-width="1.5" stroke-linecap="round"></path><path d="" data-paper-data="{&quot;index&quot;:null}" fill="none" stroke="#000000" stroke-width="1.5" stroke-linecap="round"></path><path d="" data-paper-data="{&quot;index&quot;:null}" fill="none" stroke="#000000" stroke-width="1.5" stroke-linecap="round"></path><path d="" data-paper-data="{&quot;index&quot;:null}" fill="none" stroke="#000000" stroke-width="1.5" stroke-linecap="round"></path><path d="" data-paper-data="{&quot;index&quot;:null}" fill="none" stroke="#000000" stroke-width="1.5" stroke-linecap="round"></path><path d="M289.92393,195.4756" data-paper-data="{&quot;index&quot;:null}" fill="none" stroke="#d8d8d8" stroke-width="4" stroke-linecap="round"></path><path d="M241.20089,220.12075c-21.81525,0 -39.5,-17.68475 -39.5,-39.5c0,-21.81525 17.68475,-39.5 39.5,-39.5c21.81525,0 39.5,17.68475 39.5,39.5c0,21.81525 -17.68475,39.5 -39.5,39.5z" fill="#d8d8d8" stroke="#000000" stroke-width="1.5" stroke-linecap="butt"></path><path d="M229.23032,168.76323l-17.15344,-6.06646" fill="none" stroke="#000000" stroke-width="1.5" stroke-linecap="round"></path><path d="M223.12495,177.39967l-0.20919,-4.76726" fill="none" stroke="#000000" stroke-width="1.5" stroke-linecap="round"></path><path d="M230.36228,167.40908l12.04734,-0.73331" fill="none" stroke="#000000" stroke-width="1.5" stroke-linecap="round"></path><path d="M235.65795,178.47084l0.20919,-5.28695" fill="none" stroke="#000000" stroke-width="1.5" stroke-linecap="round"></path><path d="M237.39081,185.81595c0,0 -2.44712,6.39517 -6.00657,7.52772c-3.85628,1.227 -16.31203,-0.42635 -16.31203,-0.42635" fill="none" stroke="#000000" stroke-width="1.5" stroke-linecap="round"></path><path d="M294.83434,237.02599c0.3625,-0.99694 0.76855,-1.99881 1.2124,-2.99462c-0.39682,-0.26989 -0.65745,-0.72511 -0.65745,-1.24119c0,-0.15953 0.0249,-0.31323 0.07103,-0.45745l0.53935,-1.82992l0.02562,0.00755l-0.00545,-0.07077c0.68179,-1.73393 1.36409,-3.46766 2.04658,-5.20131c-0.11345,-0.21398 -0.22459,-0.42982 -0.33215,-0.64663c-0.83365,1.49776 -1.65645,2.98649 -2.43352,4.47082l-0.02235,0.01795l0.00936,0.00533l-1.07289,1.88353c-0.25434,0.46646 -0.74913,0.78296 -1.31784,0.78296c-0.7775,0 -1.41684,-0.59154 -1.49251,-1.34911c-1.08143,1.73847 -2.17019,3.47238 -3.27488,5.19651l-1.41539,2.20877c-0.26436,0.42716 -0.73716,0.71172 -1.27642,0.71172c-0.82843,0 -1.5,-0.67157 -1.5,-1.5c0,-0.2506 0.06145,-0.48684 0.17011,-0.69448l1.03906,-2.09176c-0.00363,-0.04257 -0.00548,-0.08564 -0.00548,-0.12915c0,-0.25242 0.06235,-0.49027 0.17248,-0.69901l1.33066,-2.65509l0.11075,0.05551l0.02909,-0.05246c0.30591,-0.55168 0.6016,-1.11158 0.88853,-1.67857c0.59616,-1.49896 1.2959,-2.95414 2.06954,-4.50657c0.08056,-0.19088 0.16061,-0.38218 0.24019,-0.57387c-2.6991,2.92716 -5.53878,5.72887 -8.34523,8.55277c-2.78992,4.14481 -5.72148,8.18115 -9.15981,11.81297l-0.03439,0.01893l0.00725,0.00761l-1.83972,1.75393c-0.26937,0.25778 -0.63466,0.41613 -1.03694,0.41613c-0.82843,0 -1.5,-0.67157 -1.5,-1.5c0,-0.12227 0.01463,-0.24111 0.04223,-0.35489l0.41329,-1.87196l0.03344,0.00738c0.01778,-0.10458 0.04057,-0.20862 0.0691,-0.31204c0.30045,-1.08904 1.30084,-1.84982 2.01591,-2.72443c1.91027,-2.33647 4.10938,-4.50897 6.20953,-6.67293c0.95469,-0.9837 1.92033,-1.95898 2.88945,-2.93212c1.9217,-2.84052 3.7744,-5.7374 5.65404,-8.59881c-0.12352,-0.04997 -0.23887,-0.11592 -0.34348,-0.19528c-3.45159,3.78939 -7.11605,7.32876 -11.2708,10.19143c0,0 -1.23537,0.8508 -2.08617,-0.38458c-0.8508,-1.23537 0.38458,-2.08617 0.38458,-2.08617c4.99336,-3.43729 9.26493,-7.90189 13.31675,-12.59168c0.43503,-7.5166 3.31255,-14.69022 5.86041,-21.8476l0.06959,-0.07597l-0.02722,-0.01395l1.08342,-2.11439c0.24329,-0.49992 0.75618,-0.84444 1.34954,-0.84444c0.79153,0 1.43987,0.61309 1.49605,1.3903l0.12205,1.4742c0.05512,-0.00614 0.11114,-0.00929 0.1679,-0.00929c0.78989,0 1.43718,0.61054 1.49569,1.38545c0.01306,-0.0322 0.02602,-0.06428 0.03889,-0.09621l0.02706,-0.03501l-0.00917,-0.00433l1.06913,-2.26369c0.23379,-0.52426 0.75954,-0.88968 1.37063,-0.88968c0.61869,0 1.1499,0.37457 1.37921,0.9093l1.07336,2.35722c0.22221,-0.28312 0.44744,-0.56303 0.67584,-0.83952l-0.26803,-0.15744l1.50513,-2.56242c0.25721,-0.4564 0.74645,-0.76462 1.30768,-0.76462c0.82843,0 1.5,0.67157 1.5,1.5c0,0.15529 -0.0236,0.30507 -0.0674,0.44594l-0.47158,1.64817c-0.52571,1.83737 -1.05263,3.67301 -1.57285,5.50998c0.02039,-0.02377 0.04079,-0.04754 0.06118,-0.07132l1.9472,-2.26944c0.27515,-0.32458 0.68587,-0.5306 1.14471,-0.5306c0.82843,0 1.5,0.67157 1.5,1.5c0,0.04001 -0.00157,0.07966 -0.00464,0.11888c0.79306,-1.02941 1.55924,-1.99094 1.78789,-2.1678c0.84826,-0.6561 2.04533,-1.96889 2.92056,-1.34923c1.26433,0.89515 1.29284,2.8806 1.42272,4.42428c0.05504,0.65416 -0.13872,1.28936 -0.36037,1.92216c0.23801,0.00575 0.46228,0.06694 0.66039,0.17115l0.3062,-0.46601c0.16276,-0.25598 0.40098,-0.45929 0.68334,-0.5786c0.06015,-0.13327 0.12015,-0.266 0.17998,-0.39819l0.64004,-1.41239c0.22872,-0.5361 0.76063,-0.91186 1.38031,-0.91186c0.82843,0 1.5,0.67157 1.5,1.5c0,0.07363 -0.0053,0.14601 -0.01555,0.2168l-0.38242,2.95109l-0.34195,-0.04431c0.02234,6.12813 -1.72995,11.71728 -3.81969,17.77399l-0.96714,2.80306c-0.19309,0.60528 -0.76001,1.04364 -1.42932,1.04364c-0.29092,0 -0.56249,-0.08282 -0.79243,-0.22616c-0.10887,0.37496 -0.21299,0.74804 -0.31121,1.11898l-0.06758,0.07036l0.03675,0.0146l-0.61743,1.55373c-0.21185,0.57136 -0.76181,0.97854 -1.40688,0.97854c-0.35978,0 -0.68997,-0.12666 -0.94842,-0.33783c-0.08142,0.31296 -0.22859,0.52881 -0.22859,0.52881l-0.29711,0.43577c-0.56537,0.82922 -1.20842,1.60306 -1.90088,2.33491l0.2109,0.14379l-1.67745,2.46032c-0.20933,0.31638 -0.53538,0.54878 -0.91677,0.63581c-1.09044,2.06577 -2.23819,4.07794 -3.39747,5.98025l-1.54889,2.5378c-0.26055,0.44366 -0.74268,0.74149 -1.29437,0.74149c-0.82843,0 -1.5,-0.67157 -1.5,-1.5c0,-0.00471 0.00002,-0.00941 0.00007,-0.01411l0.02152,-2.67282l-1.33681,1.99915c-0.26727,0.4125 -0.73165,0.68543 -1.25977,0.68543c-0.82843,0 -1.5,-0.67157 -1.5,-1.5c0,-0.27712 0.07515,-0.53669 0.20618,-0.75944l1.45898,-2.5906l0.19013,0.10708c0.11004,-0.17913 0.21701,-0.36543 0.3213,-0.5581zM309.77368,223.04805c-0.12049,0.21452 -0.24092,0.42813 -0.3502,0.63937l0.299,0.05092c0.01441,-0.22966 0.0315,-0.45978 0.0512,-0.6903zM309.14499,224.29976c-0.24897,0.66529 -0.51129,1.33443 -0.78548,2.0056c0.0974,0.04336 0.19779,0.09924 0.30091,0.16955c0.03641,0.02483 0.07102,0.04999 0.10391,0.07546l0.38548,-2.26342c-0.00162,0.00427 -0.00322,0.00854 -0.00482,0.01281zM307.37451,214.35875c0.61944,-1.40414 1.27898,-2.78111 1.96052,-4.11562c0.34411,-0.98929 0.62629,-1.80052 0.64869,-1.86489c0.64262,-1.84605 1.19474,-3.72461 1.68427,-5.61702c0.15885,-0.61409 0.2136,-1.29102 0.31195,-1.94446c-0.21745,0.23513 -0.43387,0.47112 -0.62903,0.72135c-1.75027,2.24411 -3.42792,4.50855 -4.96204,6.90421c-0.61114,0.95435 -1.19311,1.92594 -1.75495,2.90942c0.51816,1.28483 0.90671,2.46138 0.89922,2.84945c-0.00683,0.35412 -2.07882,5.54185 -2.3024,6.10966c-0.06977,0.1772 -0.13954,0.35439 -0.20931,0.53159c0.07334,0.01351 0.14482,0.03235 0.21401,0.0561c1.37331,-2.1471 2.7344,-4.35657 4.13908,-6.5398zM311.68772,213.86545c-0.30518,0.45837 -0.61096,0.9163 -0.91728,1.37386c-0.45284,1.24776 -0.90596,2.49393 -1.36349,3.73781c0.27209,0.2095 0.53625,0.50621 0.78761,0.90724c0.35604,-2.00473 0.87322,-4.02198 1.49315,-6.01892zM299.58535,221.37731c0.05442,-0.13954 0.10871,-0.27912 0.16293,-0.41874c-0.06111,0.11176 -0.12231,0.22345 -0.1836,0.33507c0.00668,0.02792 0.01358,0.05581 0.02067,0.08367zM298.59931,200.30479c-0.09599,0.28779 -0.19028,0.57446 -0.28369,0.8601c0.06803,-0.11142 0.13632,-0.22259 0.2049,-0.33351c0.02588,-0.17561 0.05211,-0.35114 0.07879,-0.52659z" fill="#73a367" stroke="none" stroke-width="0.5" stroke-linecap="butt"></path><path d="M283.20131,211.8912c0.50533,-1.15281 1.10539,-2.47963 0.77818,-3.69506c-0.02885,-0.10718 0.02457,0.24537 -0.04779,0.32955c-0.48601,0.5654 -1.10929,1.00345 -1.5888,1.57437c-0.61558,0.73293 -1.11965,1.55274 -1.68581,2.32448c-1.4908,2.0321 -2.78692,3.79 -4.31498,5.4608l0.27871,0.19519l-1.70889,2.44015c-0.26996,0.39641 -0.72492,0.65671 -1.24069,0.65671c-0.82843,0 -1.5,-0.67157 -1.5,-1.5c0,-0.16013 0.02509,-0.31439 0.07156,-0.45908l0.80253,-2.71152l0.01858,0.0055l0.00064,-0.06575c0.87791,-2.25228 1.42346,-4.77341 2.12645,-7.17399c-1.60361,2.72112 -2.97744,5.55252 -4.53585,8.25571c-0.60173,1.16342 -1.179,2.30334 -1.66585,3.40582l-0.03087,0.0112l0.0209,0.01002l-0.00459,0.00957l0.01917,0.00936l-1.30173,2.66626c-0.23775,0.51451 -0.75837,0.87151 -1.36238,0.87151c-0.82843,0 -1.5,-0.67157 -1.5,-1.5c0,-0.24341 0.05798,-0.47328 0.16088,-0.67655l1.27589,-2.66124c0.1982,-0.44866 0.41378,-0.905 0.64139,-1.36768c0.41112,-1.28528 1.26037,-2.47996 2.02247,-4.04019c0.47123,-0.96474 0.95801,-1.91246 1.46337,-2.8456c0.66603,-1.48621 1.2103,-2.97314 1.48637,-4.42465c0.1331,-0.69979 0.1641,-1.437 0.24271,-2.15691c-1.48028,2.33077 -3.02124,5.68916 -5.02331,7.80535c-0.25293,0.4973 -0.51418,1.0068 -0.78254,1.53213l-0.0477,0.03932l0.01812,0.01111l-1.40904,2.29878c-0.2609,0.44222 -0.74222,0.73889 -1.29283,0.73889c-0.82843,0 -1.5,-0.67157 -1.5,-1.5c0,-0.27886 0.0761,-0.53995 0.20866,-0.76364l1.46797,-2.58581l0.06909,0.03922c0.83098,-1.6048 1.79895,-3.25833 2.63652,-4.92901c-0.96314,1.198 -1.96277,2.34817 -3.06774,3.42791l0.30918,0.24573l-1.67209,2.10382c-0.27451,0.3517 -0.70242,0.57784 -1.18314,0.57784c-0.82843,0 -1.5,-0.67157 -1.5,-1.5c0,-0.20279 0.04024,-0.39618 0.11318,-0.57262l0.72304,-1.87143l0.00608,0.00235l0.00044,-0.01895c0.18554,-0.44815 0.35457,-0.91944 0.5161,-1.40379c-0.98308,1.48092 -1.93763,2.98131 -2.93218,4.42962l-0.06099,0.04159l0.01675,0.01399l-1.91605,2.29369c-0.27511,0.33404 -0.6919,0.54703 -1.15844,0.54703c-0.82843,0 -1.5,-0.67157 -1.5,-1.5c0,-0.22954 0.05156,-0.44703 0.14372,-0.64154l1.21047,-2.70939l0.02004,0.00895c0.01517,-0.04721 0.03086,-0.0943 0.0471,-0.14124c0.34303,-0.99175 1.21116,-1.71406 1.81821,-2.57005c2.0611,-2.90637 4.06435,-5.84182 6.32706,-8.59466l0.13641,-0.05543l-0.03326,-0.03966l1.25341,-1.05138c0.2617,-0.22258 0.6008,-0.35688 0.97127,-0.35688c0.45824,0 0.86849,0.20548 1.14363,0.52933c0.1611,0.08104 0.32473,0.20306 0.48611,0.37865c1.01501,1.10443 -0.08942,2.11943 -0.08942,2.11943c-0.17359,0.15845 -0.34449,0.31951 -0.51289,0.483l-0.33009,1.27038l-0.28999,-0.07535c-0.04114,0.25234 -0.08544,0.50231 -0.13293,0.7505c1.03188,-1.18336 2.06791,-2.28584 2.80591,-3.23348l1.01409,-1.53113c0.26666,-0.41581 0.73294,-0.69136 1.26359,-0.69136c0.82843,0 1.5,0.67157 1.5,1.5c0,0.13172 -0.01698,0.25948 -0.04887,0.3812l-0.15663,0.65489l0.44714,-0.47508c0.2737,-0.2922 0.66301,-0.47478 1.09496,-0.47478c0.82092,0 1.48782,0.65946 1.49983,1.47752l0.05132,2.99635c0.00401,0.0255 0.00796,0.051 0.01185,0.0765c0.00139,-0.00195 0.00278,-0.0039 0.00418,-0.00584l1.07386,-1.55331c0.26926,-0.40092 0.72688,-0.66475 1.24613,-0.66475c0.76957,0 1.40379,0.57954 1.49002,1.326l0.3862,2.95426l-0.02205,0.00288c0.01289,0.07857 0.02427,0.1575 0.03402,0.2368c0.11166,0.9088 0.01257,1.91185 -0.21367,2.94964c0.45277,-0.53144 0.88803,-1.02106 1.27646,-1.45321c0.66128,-0.73573 3.52931,-4.03283 5.33623,-2.55246c1.17028,0.95878 1.70253,2.65206 1.81271,4.16092c0.01573,0.21539 -0.00195,0.42599 -0.04401,0.63305c0.0908,0.04479 0.18392,0.10085 0.2791,0.16976c1.21499,0.87966 0.33533,2.09465 0.33533,2.09465l-0.36003,0.49727c-1.58578,2.18996 -3.13108,5.84098 -5.09867,8.31617c-0.40199,0.80807 -0.82348,1.60744 -1.27012,2.39599l-1.01422,1.9927c-0.24254,0.50197 -0.75653,0.84825 -1.35139,0.84825c-0.82843,0 -1.5,-0.67157 -1.5,-1.5c0,-0.24395 0.05823,-0.4743 0.16156,-0.6779l1.2863,-2.6758l0.08288,0.03984c1.7555,-3.21928 2.98135,-6.60597 4.4565,-9.97125z" fill="#c2c2c2" stroke="none" stroke-width="0.5" stroke-linecap="butt"></path></g></g></svg>