<svg version="1.1" xmlns="http://www.w3.org/2000/svg" xmlns:xlink="http://www.w3.org/1999/xlink" width="65.875" height="65.875" viewBox="0,0,65.875,65.875"><g transform="translate(-207.0625,-147.0625)"><g data-paper-data="{&quot;isPaintingLayer&quot;:true}" fill-rule="nonzero" stroke="none" stroke-linecap="butt" stroke-linejoin="miter" stroke-miterlimit="10" stroke-dasharray="" stroke-dashoffset="0" style="mix-blend-mode: normal"><path d="M207.0625,180c0,-18.19088 14.74662,-32.9375 32.9375,-32.9375c18.19088,0 32.9375,14.74662 32.9375,32.9375c0,18.19088 -14.74662,32.9375 -32.9375,32.9375c-18.19088,0 -32.9375,-14.74662 -32.9375,-32.9375z" fill="#000000" stroke-width="0"></path><path d="M238.81521,197.9616c-3.13156,0.343 -5.79731,0.55648 -8.93895,0.12579c-3.49394,-0.63091 -6.69645,-2.05662 -9.56202,-4.1339c-3.03387,-2.20074 -4.47227,-6.06553 -2.20603,-9.31765c1.85967,-2.66868 4.64666,-5.53952 4.60197,-8.9156c-1.19164,-1.59435 -2.05444,-2.58755 -3.73438,-3.67589c-0.36642,-0.23739 -2.68519,-1.26481 -2.58167,-1.74401c0.14539,-0.67304 1.69924,-0.6355 2.15434,-0.64476c1.43734,-0.02816 4.78541,-0.12791 6.01298,0.64112c1.19149,0.74643 1.29383,2.88467 2.17549,3.93052c2.15952,2.77146 7.27321,-1.01085 6.44137,-3.89475c-0.80189,-2.99088 -5.81643,-4.5632 -8.39353,-5.30544c-1.02725,-0.29613 -5.52295,-0.67968 -5.8891,-1.86321c-0.29051,-0.93903 3.19951,-2.26789 3.87068,-2.61934c3.07954,-1.61256 6.54282,-2.81828 9.95764,-3.41429c4.50833,-0.78686 6.3706,1.46525 7.41343,5.56184c0.43975,1.73329 1.37245,4.41445 3.08907,5.32227c0.93502,0.49447 2.6902,0.35904 3.7474,0.56653c3.13337,-2.25117 3.9152,-4.66015 4.28875,-8.49911c-0.53329,-1.0451 -1.4632,-1.44812 -2.4062,-2.14416l-0.39983,-0.29512c-0.06299,-0.04539 -0.10399,-0.11939 -0.10399,-0.20295c0,-0.1329 0.10371,-0.24158 0.23461,-0.24953l0.49677,-0.03467l0.00509,0.07296c3.04683,-0.29303 6.11758,3.03914 8.03265,4.96546c1.79948,3.63777 -0.23096,6.41583 0.4321,10.12518c1.77399,1.2284 4.60162,2.30608 5.07731,4.58485c0.23005,1.10202 -0.12997,2.39178 -0.01678,3.52318c0.24873,2.51052 3.43566,3.06342 3.7806,5.5392c0.15317,1.09933 -0.50865,2.47738 -0.83798,3.49931c-1.0524,3.22172 -5.17539,5.33902 -8.09018,6.51442c-3.35746,0.83967 -6.78921,1.82098 -10.26808,1.88778c-2.73378,-0.24366 -5.62359,0.44535 -8.38353,0.09398z" fill="#ffffff" stroke-width="0.5"></path></g></g></svg>