<svg version="1.1" xmlns="http://www.w3.org/2000/svg" xmlns:xlink="http://www.w3.org/1999/xlink" width="147.27736" height="139.68983" viewBox="0,0,147.27736,139.68983"><g transform="translate(-131.71787,-93.57946)"><g data-paper-data="{&quot;isPaintingLayer&quot;:true}" fill-rule="nonzero" stroke-linejoin="miter" stroke-miterlimit="10" stroke-dasharray="" stroke-dashoffset="0" style="mix-blend-mode: normal"><path d="M217.09442,165.86414l9,1v8" fill="none" stroke="#000000" stroke-width="1.5" stroke-linecap="round"></path><path d="M232.53458,174.67753v-8l9,-1" data-paper-data="{&quot;index&quot;:null}" fill="none" stroke="#000000" stroke-width="1.5" stroke-linecap="round"></path><path d="M230.98851,198.04897c0,0 0.3445,-8.61004 5.78628,-9.03188c5.30472,-0.41122 12.46372,8.03188 12.46372,8.03188z" fill="#040404" stroke="#000000" stroke-width="1.5" stroke-linecap="round"></path><path d="M200.73697,171.0911c0,-18.19082 17.29485,-32.9374 38.62913,-32.9374c21.33428,0 38.62913,14.74658 38.62913,32.9374c0,11.22687 -2.48212,24.8741 -12.54127,30.82016c-0.42004,0.24829 -5.31543,2.90997 -5.31543,2.90997l-0.22453,13.91683l-12.57806,0.95271l-0.50527,-15.47565l0.06963,15.5724l-14.72842,0.20478l-0.46155,-15.93384l0.80812,15.80985l-16.17468,-0.08649c0,0 0.11388,-16.75516 -0.28778,-16.80951c-2.62384,-0.355 -2.02116,-0.00099 -3.86634,-0.93632c-11.32682,-5.74167 -11.45268,-18.89377 -11.45268,-30.94489z" fill="#ffffff" stroke="#000000" stroke-width="2" stroke-linecap="butt"></path><path d="M236.00705,171.09869c0,5.92619 -3.30023,10.73031 -7.37126,10.73031c-4.07103,0 -7.37126,-4.80413 -7.37126,-10.73031c0,-5.92619 -0.9919,-11.10354 3.07913,-11.10354c3.22238,0 10.77427,7.53515 10.77427,7.53515c0,0 0.88912,2.33301 0.88912,3.56839z" fill="#ababab" stroke="#000000" stroke-width="1" stroke-linecap="butt"></path><path d="M254.61671,161.07621c4.07103,0 3.07913,5.17736 3.07913,11.10354c0,5.92619 -3.30022,10.73032 -7.37126,10.73032c-4.07103,0 -7.37126,-4.80413 -7.37126,-10.73032c0,-1.23538 0.88912,-3.56839 0.88912,-3.56839c0,0 7.55188,-7.53515 10.77427,-7.53515z" data-paper-data="{&quot;index&quot;:null}" fill="#ababab" stroke="#000000" stroke-width="1" stroke-linecap="butt"></path><path d="" data-paper-data="{&quot;index&quot;:null}" fill="none" stroke="#000000" stroke-width="1.5" stroke-linecap="round"></path><path d="" data-paper-data="{&quot;index&quot;:null}" fill="none" stroke="#000000" stroke-width="1.5" stroke-linecap="round"></path><path d="" data-paper-data="{&quot;index&quot;:null}" fill="none" stroke="#000000" stroke-width="1.5" stroke-linecap="round"></path><path d="" data-paper-data="{&quot;index&quot;:null}" fill="none" stroke="#000000" stroke-width="1.5" stroke-linecap="round"></path><path d="" data-paper-data="{&quot;index&quot;:null}" fill="none" stroke="#000000" stroke-width="1.5" stroke-linecap="round"></path><path d="" data-paper-data="{&quot;index&quot;:null}" fill="none" stroke="#000000" stroke-width="1.5" stroke-linecap="round"></path><path d="" data-paper-data="{&quot;index&quot;:null}" fill="none" stroke="#000000" stroke-width="1.5" stroke-linecap="round"></path><path d="" data-paper-data="{&quot;index&quot;:null}" fill="none" stroke="#000000" stroke-width="1.5" stroke-linecap="round"></path><path d="" data-paper-data="{&quot;index&quot;:null}" fill="none" stroke="#000000" stroke-width="1.5" stroke-linecap="round"></path><path d="" data-paper-data="{&quot;index&quot;:null}" fill="none" stroke="#000000" stroke-width="1.5" stroke-linecap="round"></path><g stroke-width="0" stroke-linecap="butt"><path d="M245.79173,220.63587l-102.47593,-71.44056l3.29726,-4.72966l102.47593,71.4406z" fill="#827253" stroke="#000000"></path><path d="M137.11249,172.14912l-4.83285,2.88512l-0.56177,-5.78965l49.5006,-74.02663l10.43846,-1.6385l2.16738,9.48137z" fill="#4950c5" stroke="none"></path><path d="M161.49429,171.70967l-6.266,-2.81437l-5.33121,-6.30931l14.08388,-19.65692l7.36972,3.47916l4.62306,6.08196z" fill="#4950c5" stroke="none"></path><path d="M251.82054,212.13471l1.56795,-0.53822l0.43019,1.90109l-14.25919,19.77171l-3.57241,-0.30997l-1.13932,-3.21314z" fill="#4950c5" stroke="none"></path><path d="M151.39907,147.4597l-4.41454,6.24276l-8.21937,-6.1609l4.41455,-6.24274z" fill="#313585" stroke="none"></path></g></g></g></svg>