<svg version="1.1" xmlns="http://www.w3.org/2000/svg" xmlns:xlink="http://www.w3.org/1999/xlink" width="304.82486" height="82.23951" viewBox="0,0,304.82486,82.23951"><defs><radialGradient cx="238.46585" cy="198.71757" r="4.2254" gradientUnits="userSpaceOnUse" id="color-1"><stop offset="0" stop-color="#fbc410"></stop><stop offset="1" stop-color="#fbc410" stop-opacity="0"></stop></radialGradient><radialGradient cx="275.01795" cy="200.53881" r="37.98" gradientUnits="userSpaceOnUse" id="color-2"><stop offset="0" stop-color="#fffbe2"></stop><stop offset="1" stop-color="#fffbe2" stop-opacity="0"></stop></radialGradient></defs><g transform="translate(-203.7385,-143.16295)"><g data-paper-data="{&quot;isPaintingLayer&quot;:true}" fill-rule="nonzero" stroke-linejoin="miter" stroke-miterlimit="10" stroke-dasharray="" stroke-dashoffset="0" style="mix-blend-mode: normal"><path d="M243.9885,222.91295c-21.81525,0 -39.5,-17.68475 -39.5,-39.5c0,-21.81525 17.68475,-39.5 39.5,-39.5c21.81525,0 39.5,17.68475 39.5,39.5c0,21.81525 -17.68475,39.5 -39.5,39.5z" data-paper-data="{&quot;index&quot;:null}" fill="#000000" stroke="#000000" stroke-width="1.5" stroke-linecap="butt"></path><g data-paper-data="{&quot;index&quot;:null}" stroke="none" stroke-width="0" stroke-linecap="butt"><path d="M263.71106,173.50345c7.45315,0 13.49512,5.141 13.49512,5.141c0,0 -6.04197,5.141 -13.49512,5.141c-7.45315,0 -13.49512,-5.141 -13.49512,-5.141c0,0 6.04197,-5.141 13.49512,-5.141z" fill="#ffffff"></path><path d="M264.35368,183.78545c-2.8393,0 -5.141,-2.30171 -5.141,-5.141c0,-2.8393 2.30171,-5.141 5.141,-5.141c2.8393,0 5.141,2.30171 5.141,5.141c0,2.8393 -2.30171,5.141 -5.141,5.141z" fill="#000000"></path></g><g data-paper-data="{&quot;index&quot;:null}" stroke="none" stroke-width="0" stroke-linecap="butt"><path d="M234.03426,173.6195c7.45315,0 13.49512,5.141 13.49512,5.141c0,0 -6.04197,5.141 -13.49512,5.141c-7.45315,0 -13.49512,-5.141 -13.49512,-5.141c0,0 6.04197,-5.141 13.49512,-5.141z" fill="#ffffff"></path><path d="M234.67689,183.9015c-2.8393,0 -5.141,-2.30171 -5.141,-5.141c0,-2.83929 2.30171,-5.141 5.141,-5.141c2.8393,0 5.141,2.30171 5.141,5.141c0,2.8393 -2.30171,5.141 -5.141,5.141z" fill="#000000"></path></g><g><path d="M233.99305,198.85057c-0.04756,-1.40968 1.92615,-2.62033 4.40841,-2.70407c2.48226,-0.08372 4.53309,0.99114 4.58064,2.40084c0.04756,1.40968 -1.92615,2.62033 -4.40844,2.70407c-2.48226,0.08372 -4.53309,-0.99114 -4.58064,-2.40084z" fill="#fbc410" stroke="none" stroke-width="0" stroke-linecap="butt"></path><path d="M233.97132,198.8692c-0.04756,-1.40968 1.92615,-2.62033 4.40841,-2.70407c2.48226,-0.08372 4.53309,0.99114 4.58064,2.40084c0.04756,1.40968 -1.92615,2.62033 -4.40841,2.70407c-2.48226,0.08372 -4.53309,-0.99114 -4.58064,-2.40084z" fill="none" stroke="url(#color-1)" stroke-width="2.5" stroke-linecap="butt"></path><path d="M297.88784,206.48481c0,0 0.22759,-0.46553 0.88055,-0.60973c1.01523,-0.22422 2.69577,-0.18992 3.34781,-0.41874c1.07143,-0.37599 -0.60384,-0.1501 -0.14425,0.50604c0.45959,0.65614 3.28922,0.32576 2.21784,0.70175c-0.46076,0.16169 -1.70334,1.00948 -2.95572,0.94491c-1.65974,-0.08556 -3.34621,-1.12425 -3.34621,-1.12425z" fill="#43282c" stroke="none" stroke-width="0" stroke-linecap="butt"></path><path d="M297.92517,205.33318c0,0 -0.58021,-0.26973 0.68629,-0.61817c3.36338,-0.92535 3.81694,-0.27904 4.37832,-0.47605c1.32652,-0.46551 -0.59892,-0.41693 -0.08631,0.31493c0.51262,0.73184 2.20521,1.44624 0.8787,1.91176c-0.4732,0.16606 -1.74834,0.49254 -2.68588,0.29962c-1.69064,-0.34785 -3.17112,-1.43207 -3.17112,-1.43207z" fill="#885058" stroke="none" stroke-width="0" stroke-linecap="butt"></path><path d="M297.93682,196.47708c0,0 -0.02006,-0.24916 2.25783,-1.04854c1.29248,-0.45359 4.07143,0.22625 4.46912,0.79407c0.39772,0.56782 0.30567,0.5474 -0.98683,1.00096c-0.53934,0.18927 -1.29055,-0.08477 -2.37626,-0.26404c-1.51613,-0.25033 -3.36389,-0.48248 -3.36389,-0.48248z" fill="#43282c" stroke="none" stroke-width="0" stroke-linecap="butt"></path><path d="M301.74218,199.28107c-0.12452,-0.17778 -1.28379,-0.18094 -2.21662,-0.43354c-1.00815,-0.27297 -1.78743,-0.7961 -1.70479,-0.99551c0.20144,-0.486 2.91158,-0.84743 3.64319,-1.10418c1.30952,-0.45955 2.51194,0.1358 3.09906,0.97405c0.58714,0.83824 1.94028,1.153 0.63076,1.61255c-1.30952,0.45955 -2.86449,0.78488 -3.4516,-0.05337z" fill="#885058" stroke="none" stroke-width="0" stroke-linecap="butt"></path><path d="M303.93929,200.77479c-1.41409,-2.01891 -5.16688,-4.22091 -2.03767,-5.31906c3.12922,-1.09814 15.76991,2.14041 17.18401,4.15932c1.41409,2.01891 -4.62047,0.65374 -7.74968,1.75188c-3.12922,1.09814 -5.98257,1.42677 -7.39666,-0.59212z" fill="#959ba2" stroke="none" stroke-width="0" stroke-linecap="butt"></path><path d="M301.75457,205.79167c-0.04289,-0.39162 0.07626,-0.97371 0.52063,-1.32511c0.75827,-0.59963 2.21879,-0.87699 3.66428,-0.92166c2.2926,-0.07081 4.24522,0.73099 4.36126,1.79087c0.11604,1.05988 -1.6484,1.97649 -3.941,2.0473c-2.2926,0.07081 -4.48913,-0.53155 -4.6052,-1.59142z" fill="#959ba2" stroke="none" stroke-width="0" stroke-linecap="butt"></path><path d="M314.50642,207.42697l5.6931,-2.16867" fill="none" stroke="#171c22" stroke-width="1" stroke-linecap="round"></path><path d="M320.39641,205.75845c0,0 -5.26433,2.55746 -7.69291,2.99958c-2.40249,0.43738 -7.9689,0.16272 -7.9689,0.16272" fill="none" stroke="#2e3844" stroke-width="1" stroke-linecap="round"></path><path d="M320.11902,202.95255c0.77776,1.11038 -1.98071,3.25678 -5.36504,4.44445c-2.54097,0.89171 -6.36455,1.05057 -8.56627,0.08233c-0.73075,-0.32134 -1.24313,-1.48998 -1.52346,-1.83561c-0.57442,-0.70824 4.61435,-1.61932 6.99002,-2.45304c3.38429,-1.18767 7.68696,-1.34849 8.46472,-0.2381z" fill="#171c22" stroke="none" stroke-width="0" stroke-linecap="butt"></path><path d="M306.12875,194.37074c0,0 3.51496,0.08313 5.67764,0.69996c2.30283,0.65678 7.74525,3.12842 7.74525,3.12842" fill="none" stroke="#2e3844" stroke-width="1.5" stroke-linecap="round"></path><path d="M312.34934,198.35677c-2.71283,-0.72326 -7.971,-1.08933 -6.9869,-2.22485c0.82321,-0.94987 4.14432,-0.94277 6.85714,-0.2195c2.71283,0.72326 9.07344,2.72101 7.30647,4.10512c-0.69142,0.5416 -4.46391,-0.9375 -7.17672,-1.66078z" fill="#171c22" stroke="none" stroke-width="0" stroke-linecap="butt"></path><path d="M319.82128,200.7642l0.12981,2.89983c0,0 -2.37335,0.83879 -5.37429,0.753c-4.96636,-0.14201 -18.59,-0.66849 -34.85688,-1.33746c-3.1698,-0.13036 -6.8767,-0.26426 -10.28679,-0.39222c-4.4239,-0.16603 -8.54265,-0.3252 -12.347,-0.48573c-11.39007,-0.4806 -19.20767,-0.88425 -19.20767,-0.88425l0.45338,-4.87871c0,0 6.80689,0.44819 15.84458,0.92942c5.38789,0.28689 11.77379,0.7491 17.20496,0.99717c2.37395,0.10844 4.47056,0.04041 6.38106,0.12648c5.75733,0.25939 13.21241,0.99543 20.88232,1.25511c5.98587,0.20265 12.40984,-0.07423 16.24804,0.14599c3.13279,0.17976 4.92847,0.87136 4.92847,0.87136z" fill="#6d6d48" stroke="#000e25" stroke-width="1.2" stroke-linecap="butt"></path><path d="M241.55724,199.81124l84.32089,3.52943" fill="none" stroke="url(#color-2)" stroke-width="1.5" stroke-linecap="round"></path><path d="M497.56235,199.33153l1.58143,0.71824l-2.36601,0.37131l2.6159,0.81337c0,0 -7.93409,1.38466 -9.72502,1.70686c-0.83484,0.15018 -0.56026,0.14352 -0.56026,0.14352l14.92067,2.75722c0,0 -8.74356,0.72176 -11.20708,1.06694c-1.83941,0.25775 -2.25666,0.81961 -2.25666,0.81961l1.66993,0.66921l-0.90358,0.39188l2.01963,1.27259l-1.26308,0.29222l7.80054,3.05852l-6.21533,0.71583l0.58714,1.14694l-1.76308,0.5313l5.32308,0.84539l-2.36057,0.57944l6.23579,1.84589l-11.67878,1.24077l2.44362,1.70833l-17.04397,-0.96079l6.80082,2.90967l-23.53963,-3.96322l1.9187,1.90601c0,0 -2.48087,0.63119 -4.9711,0.30461c-1.34131,-0.1759 -3.25235,-1.50365 -5.92779,-1.94485c-0.71391,-0.11773 -2.22756,0.23868 -4.16667,-0.00126c-2.01087,-0.24883 -6.37276,-1.85321 -8.71015,-2.21021c-1.12339,-0.17157 -2.61597,0.01232 -3.46571,-0.03778c-2.62722,-0.15492 -3.43921,-0.13408 -3.43921,-0.13408l1.39379,1.80132c0,0 -4.51209,-0.05154 -7.42614,-0.44289c-1.12487,-0.15107 -7.38134,-1.58182 -11.41295,-2.2868c-2.25545,-0.39438 -3.51529,-0.2723 -3.51529,-0.2723l4.97255,1.86748c0,0 -3.66924,-0.00526 -5.72906,-0.31473c-2.0598,-0.30949 -6.35832,-1.44052 -9.02602,-2.06086c-2.33809,-0.5437 -2.78425,-0.25959 -2.78425,-0.25959c0,0 0.01489,0.04947 0.78172,0.39123c0.49208,0.2193 1.53564,0.68288 1.53564,0.68288c0,0 -1.26277,0.16171 -2.87037,0.0418c-3.5307,-0.26339 -9.13944,-0.94161 -9.61773,-1.00906c-1.32356,-0.1866 -0.02627,1.21386 -0.02627,1.21386l-12.32886,-1.88498l-0.37468,0.60363l-10.98777,-1.52599l0.71309,1.72589l-40.23206,-5.48467l0.661,-14.46085c0,0 11.70738,-3.07653 20.56461,-2.91809c0.5559,0.00995 6.15115,0.09693 6.15115,0.09693l-1.08267,0.91455l25.49448,-0.31622l-3.62617,1.40803c0,0 5.35249,0.66859 9.25147,0.20413c1.27439,-0.15181 3.7064,-1.26028 6.04802,-1.81418c3.10915,-0.7355 6.07109,-0.93556 6.07109,-0.93556c0,0 -5.99166,2.95985 -5.11563,2.97759c5.80773,0.11766 11.67712,0.18492 14.7743,0.07112c5.30173,-0.19483 9.53082,-1.99355 9.53082,-1.99355c0,0 -3.3216,2.39463 -2.82107,2.39143c6.22906,-0.03961 17.74708,-1.25375 17.74708,-1.25375l-1.84854,1.42659l9.064,-0.41312l-2.15664,1.00744l18.77313,-1.93223l-1.96703,2.20602c0,0 0.78354,0.11915 0.82418,0.12006c1.9728,0.04372 12.42309,-2.15194 12.42309,-2.15194l-1.95859,2.05362c0,0 7.53411,-0.72594 10.60521,-0.89209c2.87202,-0.15537 7.26419,-0.07457 7.26419,-0.07457c0,0 -4.05466,1.68292 -2.8975,1.71496c4.63678,0.12827 7.43585,0.1997 9.90504,0.27637c6.39116,0.19847 12.90213,0.93768 12.90213,0.93768z" fill="#171c22" stroke="#001026" stroke-width="1.2" stroke-linecap="butt"></path><path d="M341.95799,202.01104c-2.17857,-0.70884 -2.78287,-4.48951 -2.06373,-5.74776c0.71916,-1.25826 3.70036,-1.40367 5.87893,-0.69482c2.17857,0.70884 3.69592,1.97744 2.97674,3.23568c-0.71916,1.25826 -4.61339,3.91572 -6.79198,3.20689z" fill="#ffea00" stroke="none" stroke-width="0" stroke-linecap="butt"></path><path d="M390.67431,211.32721c-1.60411,-2.29019 0.41093,-4.21442 4.99417,-5.82284c4.58329,-1.60842 9.86318,-0.67876 11.46729,1.61142c1.60411,2.29019 -0.65494,4.76969 -5.23822,6.37813c-4.58329,1.60842 -9.61913,0.12348 -11.22324,-2.16671z" fill="#ffea00" stroke="#001026" stroke-width="1.2" stroke-linecap="butt"></path><path d="M330.00368,207.51586c-1.86337,-2.66032 -0.26122,-4.34381 3.88554,-5.79905c4.14676,-1.45525 8.78421,-0.81342 10.64758,1.8469c1.86337,2.66032 2.6634,4.96191 -1.48336,6.41714c-4.14676,1.45525 -11.18641,0.19533 -13.04977,-2.46499z" fill="#ffea00" stroke="none" stroke-width="0" stroke-linecap="butt"></path><path d="M332.27607,206.94451c-1.23144,-1.75811 8.71928,-4.55442 9.95071,-2.79628c1.23144,1.75811 1.34541,3.63287 -1.60619,4.66866c-1.74053,0.61081 -3.91423,0.26916 -5.55629,-0.1104c-1.14252,-0.26409 -2.28299,-1.04062 -2.78825,-1.76198z" fill="none" stroke="#000e25" stroke-width="1.2" stroke-linecap="butt"></path><path d="M393.44729,210.82427c-0.55641,-0.79438 -0.63828,-1.55902 -0.04992,-2.42331c0.61095,-0.89754 2.1076,-1.63846 3.64831,-2.17914c3.02433,-1.06134 6.5262,0.18006 7.66041,1.79938c1.13422,1.61932 -0.52872,3.00338 -3.55304,4.06471c-3.02433,1.06134 -6.57153,0.35768 -7.70577,-1.26163z" fill="none" stroke="#000e25" stroke-width="1.2" stroke-linecap="butt"></path><path d="M395.25153,210.2731c-0.30052,-0.42904 -0.28969,-0.73722 -0.1543,-1.12644c0.2369,-0.68105 1.01087,-1.38818 2.28064,-1.83377c1.99545,-0.70028 4.69705,-0.04889 5.38404,1.1744c0.73148,1.30253 -0.23339,2.02756 -2.22882,2.72781c-1.99545,0.70028 -4.45516,0.2378 -5.28154,-0.942z" fill="none" stroke="#000e25" stroke-width="0.7" stroke-linecap="butt"></path><path d="M398.14636,209.61503c-0.13795,-0.19694 0.07489,-0.45184 0.41618,-0.63529c0.08824,-0.04743 0.18505,-0.09007 0.2866,-0.12573c0.49441,-0.1735 1.03594,-0.11322 1.20954,0.13462c0.17362,0.24786 -0.08646,0.58943 -0.58087,0.76292c-0.49441,0.1735 -1.15785,0.1113 -1.33144,-0.13657z" fill="#000e25" stroke="#000e25" stroke-width="0.5" stroke-linecap="butt"></path><path d="M321.67341,195.3062c0.02788,0.19166 -0.11927,14.75248 -0.12605,14.80136c-0.07942,0.57237 -1.30493,0.40586 -1.30493,0.40586c0,0 -0.85906,-0.10511 -0.90151,-0.38298c-0.0062,-0.04064 0.01444,-14.07296 0.07537,-14.51224c0.11444,-0.82463 0.80496,-0.73014 1.15605,-0.79884c0.6467,-0.12651 1.06205,0.21888 1.10106,0.48683z" fill="#6d6d48" stroke="#000e25" stroke-width="1.2" stroke-linecap="butt"></path><path d="M344.365,191.21645l0.89463,-0.04234l0.82935,0.61018l-1.06925,0.40173l-0.85257,-0.02739l-1.2232,0.4908l-0.41175,-0.75999z" fill="#aeb5b1" stroke="#000e25" stroke-width="0" stroke-linecap="butt"></path><path d="M342.26846,190.95825l0.28627,0.46608c0,0 -0.67455,0.30087 -0.98112,0.50353c-0.10408,0.06881 -0.19366,0.1956 -0.32333,0.30868c-0.19905,0.17357 -0.42612,0.33183 -0.42612,0.33183l-0.68482,-0.86296z" fill="#aeb5b1" stroke="none" stroke-width="0" stroke-linecap="butt"></path><path d="M337.13873,192.35591c-0.28241,-0.40318 0.90245,-1.28581 1.64155,-1.12772c0.51542,0.11024 -0.29168,0.30079 -0.00928,0.70397c0.28241,0.40318 0.20607,0.68807 -0.26606,0.85375c-0.47213,0.16568 -1.0838,-0.02682 -1.36619,-0.43z" fill="#aeb5b1" stroke="none" stroke-width="0" stroke-linecap="butt"></path><path d="M330.31572,193.22958c-0.22685,-0.32386 -0.07133,-0.7055 0.34737,-0.85244c0.41872,-0.14692 0.94198,-0.00351 1.16884,0.32037c0.22685,0.32386 0.07135,0.70553 -0.34737,0.85245c-0.41872,0.14692 -0.94198,0.0035 -1.16884,-0.32037z" fill="#aeb5b1" stroke="none" stroke-width="0" stroke-linecap="butt"></path><path d="M323.64666,194.83944c0,0 0.0044,-0.21028 0.59234,-0.41661c0.58795,-0.20634 1.21244,-0.10507 1.43467,0.21218c0.22221,0.31725 -0.10781,0.69383 -0.69574,0.90015c-0.58795,0.20634 -1.33127,-0.69571 -1.33127,-0.69571z" fill="#aeb5b1" stroke="none" stroke-width="0" stroke-linecap="butt"></path><path d="M328.39488,198.00371c0.48147,0.68739 0.62194,1.15337 0.2389,1.28778c-0.2118,0.07433 -0.62414,0.45408 -0.93944,0.2302c-0.25496,-0.18103 -0.41066,-0.92409 -0.6259,-1.23143c-0.48147,-0.68739 -0.02832,-1.51079 0.35473,-1.64521c0.38306,-0.13442 0.49026,0.67126 0.97172,1.35863z" fill="#aeb5b1" stroke="none" stroke-width="0" stroke-linecap="butt"></path><path d="M323.77288,199.20825c-0.4074,-0.58162 0.08282,-1.19199 0.39462,-1.30139c0.31177,-0.10942 0.3271,0.32352 0.73448,0.90516c0.4074,0.58162 0.48491,1.14185 0.17311,1.25126c-0.31177,0.10942 -0.8948,-0.27341 -1.3022,-0.85502z" fill="#aeb5b1" stroke="none" stroke-width="0" stroke-linecap="butt"></path><path d="M334.7048,197.83192c-0.46759,-0.66755 0.16664,-1.65378 0.60316,-1.80696c0.43651,-0.15319 0.50998,0.58467 0.97758,1.25222c0.46759,0.66755 0.49277,1.33289 0.05626,1.48609c-0.43651,0.15319 -1.16939,-0.26378 -1.63696,-0.93136z" fill="#aeb5b1" stroke="none" stroke-width="0" stroke-linecap="butt"></path><path d="M331.16489,198.34364c-0.39813,-0.56842 0.19892,-1.26255 0.55527,-1.3876c0.35633,-0.12504 0.33697,0.36636 0.73511,0.93476c0.39813,0.56842 0.43202,1.13058 0.07571,1.25562c-0.35633,0.12504 -0.96793,-0.23438 -1.36607,-0.8028z" fill="#aeb5b1" stroke="none" stroke-width="0" stroke-linecap="butt"></path><path d="M339.27927,197.82186c-0.25924,-0.37012 0.32553,-0.80008 0.56606,-0.88448c0.24052,-0.0844 0.04568,0.20869 0.30492,0.57882c0.25924,0.37012 0.27444,0.73862 0.03393,0.82302c-0.24052,0.0844 -0.64567,-0.14722 -0.90493,-0.51736z" fill="#aeb5b1" stroke="none" stroke-width="0" stroke-linecap="butt"></path><path d="M343.50444,199.4859c-0.27106,-0.00628 -0.49365,-0.38462 -0.49719,-0.845c-0.00354,-0.46039 0.9591,-0.91134 1.23018,-0.90503c0.27104,0.00628 -0.25213,0.46743 -0.2486,0.92782c0.00354,0.46039 -0.21332,0.82851 -0.48439,0.82224z" fill="#aeb5b1" stroke="none" stroke-width="0" stroke-linecap="butt"></path><path d="M347.01599,200.6952c-0.36588,0.25067 -0.81621,0.33541 -1.00581,0.18926c-0.18961,-0.14615 -0.04672,-0.46783 0.31918,-0.71853c0.36588,-0.25067 0.81622,-0.3354 1.00582,-0.18925c0.18961,0.14615 0.04672,0.46784 -0.31919,0.71852z" fill="#aeb5b1" stroke="none" stroke-width="0" stroke-linecap="butt"></path><path d="M342.05531,213.50102c-0.01687,0.23527 -0.98104,0.63875 -1.29619,0.74936c-0.46769,0.16414 -1.0382,0.02392 -1.27431,-0.31317c-0.23609,-0.33707 -0.04837,-0.74338 0.41932,-0.90751c0.46769,-0.16414 1.0382,-0.02392 1.27431,0.31317c0.07702,0.10994 0.88506,0.04431 0.87688,0.15816z" fill="#aeb5b1" stroke="none" stroke-width="0" stroke-linecap="butt"></path><path d="M336.5384,213.51754c-0.24306,-0.347 -0.07176,-0.75754 0.38253,-0.91697c0.45432,-0.15943 1.01967,-0.00739 1.26269,0.33961c0.24306,0.347 0.07175,0.75755 -0.38255,0.91698c-0.45432,0.15943 -1.01966,0.00738 -1.26268,-0.33961z" fill="#aeb5b1" stroke="none" stroke-width="0" stroke-linecap="butt"></path><path d="M342.33061,214.21325c-0.18749,-0.26767 0.00714,-0.60633 0.43474,-0.75641c0.4276,-0.15007 0.92622,-0.05468 1.11371,0.21299c0.18749,0.26767 -0.00714,0.60632 -0.43474,0.7564c-0.4276,0.15007 -0.92622,0.05469 -1.11369,-0.21297z" fill="#aeb5b1" stroke="none" stroke-width="0" stroke-linecap="butt"></path><path d="M343.94459,214.45193c-0.20137,-0.28752 -0.08297,-0.61942 0.26443,-0.74134c0.34741,-0.12191 0.79231,0.01232 0.99368,0.29983c0.20137,0.28752 0.083,0.61944 -0.26441,0.74134c-0.34741,0.12191 -0.79231,-0.01232 -0.99372,-0.29983z" fill="#aeb5b1" stroke="none" stroke-width="0" stroke-linecap="butt"></path><path d="M333.67238,212.86839c-0.20137,-0.28752 -0.07216,-0.62322 0.28861,-0.74983c0.36078,-0.12662 0.81652,0.00383 1.0179,0.29135c0.20137,0.28752 0.07216,0.62321 -0.28863,0.74983c-0.36078,0.12662 -0.81649,-0.00383 -1.01788,-0.29133z" fill="#aeb5b1" stroke="none" stroke-width="0" stroke-linecap="butt"></path><path d="M329.87819,212.70154c-0.14775,-0.21094 -0.29208,-0.44261 -0.20868,-0.64234c0.08119,-0.19454 0.38466,-0.35869 0.64839,-0.45124c0.5345,-0.18757 1.20424,-0.00207 1.49589,0.41433c0.29166,0.41639 0.09478,0.90599 -0.4397,1.09358c-0.5345,0.18757 -1.20422,0.00208 -1.49587,-0.41433z" fill="#aeb5b1" stroke="none" stroke-width="0" stroke-linecap="butt"></path><path d="M326.76454,211.87093c-0.17498,-0.2498 -0.57163,-0.64895 -0.3596,-0.85734c0.09089,-0.08935 0.65379,-0.05099 0.80216,-0.10304c0.49441,-0.1735 1.09785,-0.02483 1.34783,0.33209c0.24999,0.35691 0.05186,0.78691 -0.44256,0.96041c-0.49441,0.1735 -1.09785,0.02482 -1.34786,-0.33211z" fill="#aeb5b1" stroke="none" stroke-width="0" stroke-linecap="butt"></path><path d="M323.34032,210.76914c-0.1061,-0.15146 -0.60377,-0.46383 -0.57011,-0.61484c0.04784,-0.21474 0.69345,-0.25592 0.97588,-0.35504c0.48104,-0.16881 1.07928,-0.00829 1.3362,0.35853c0.25693,0.36684 0.07527,0.80104 -0.40577,0.96986c-0.48104,0.16881 -1.07929,0.00829 -1.33622,-0.35855z" fill="#aeb5b1" stroke="none" stroke-width="0" stroke-linecap="butt"></path><path d="M323.70572,206.21287c-0.17362,-0.24786 -0.04354,-0.54381 0.29051,-0.66104c0.33406,-0.11723 0.7456,-0.01135 0.91918,0.23652c0.17362,0.24786 0.04354,0.54384 -0.29054,0.66105c-0.15345,0.05385 -0.87723,1.6011 -1.17804,1.52589c-0.62265,-0.15566 0.35266,-1.62843 0.25883,-1.76242z" fill="#aeb5b1" stroke="none" stroke-width="0" stroke-linecap="butt"></path><path d="M327.2915,207.45925c-0.18749,-0.26767 -0.01451,-0.59873 0.38636,-0.7394c0.40087,-0.14067 0.87781,-0.03771 1.06531,0.22996c0.18749,0.26767 0.01452,0.59873 -0.38635,0.73941c-0.07902,0.02773 -0.48514,0.29555 -0.6986,0.58092c-0.22243,0.29735 -0.25243,0.61198 -0.33518,0.60322c-0.13256,-0.01405 -0.21471,-0.30625 -0.17265,-0.6707c0.0343,-0.29723 0.19141,-0.67156 0.14111,-0.74341z" fill="#aeb5b1" stroke="none" stroke-width="0" stroke-linecap="butt"></path><path d="M331.4608,207.46312c0.28492,-0.01126 0.55496,0.29034 0.6031,0.67364c0.04815,0.38329 -0.14377,0.70314 -0.42869,0.71439c-0.28492,0.01126 -0.55493,-0.29035 -0.60309,-0.67363c-0.04815,-0.38329 0.14377,-0.70315 0.42868,-0.71439z" fill="#aeb5b1" stroke="none" stroke-width="0" stroke-linecap="butt"></path><path d="M334.3967,208.56637c-0.20831,-0.29743 -0.01974,-0.66398 0.42121,-0.81874c0.44095,-0.15475 0.96732,-0.03909 1.17563,0.25835c0.20831,0.29743 0.01975,0.66399 -0.4212,0.81874c-0.2115,0.07423 0.67754,1.16914 0.47127,1.12871c-0.22378,-0.04384 -1.53847,-1.23229 -1.64688,-1.38707z" fill="#aeb5b1" stroke="none" stroke-width="0" stroke-linecap="butt"></path><path d="M342.93412,206.5543c-0.20831,-0.29743 -0.08472,-0.64118 0.27604,-0.7678c0.36078,-0.12662 0.82214,0.01186 1.03046,0.3093c0.20831,0.29743 0.56445,1.41211 0.20367,1.53872c-0.36078,0.12662 -1.30185,-0.78278 -1.51017,-1.08022z" fill="#aeb5b1" stroke="none" stroke-width="0" stroke-linecap="butt"></path><path d="M346.05352,204.81105c-0.17362,-0.24786 -0.09769,-0.5248 0.16956,-0.61861c0.26724,-0.09378 0.62463,0.03111 0.79822,0.27898c0.09917,0.1416 0.80579,0.58767 0.75298,0.70867c-0.03965,0.09081 -0.80792,-0.13029 -0.92253,-0.09007c-0.26726,0.09379 -0.62464,-0.0311 -0.79823,-0.27897z" fill="#aeb5b1" stroke="none" stroke-width="0" stroke-linecap="butt"></path><path d="M338.98984,206.77557c0.40087,-0.14067 0.96447,-0.17227 1.17278,0.12516c0.20831,0.29743 0.25914,1.20616 -0.14175,1.34685c-0.13666,0.04795 1.10124,1.00991 0.61733,1.02957c-0.27633,0.01123 -1.58306,-1.11737 -1.72037,-1.31339c-0.20831,-0.29743 -0.32885,-1.0475 0.072,-1.18819z" fill="#aeb5b1" stroke="none" stroke-width="0" stroke-linecap="butt"></path><path d="M354.40162,203.38928c-1.14613,-1.63633 -1.14858,-3.58861 1.01673,-5.05483c0.8346,-0.56516 2.28349,-0.98291 3.67961,-1.39403c6.52293,-1.92088 10.97646,0.10736 12.56436,2.37443c1.58791,2.26705 -1.04224,4.22724 -5.56315,5.8138c-4.52092,1.58656 -10.10963,0.52771 -11.69755,-1.73933z" fill="#ffea00" stroke="none" stroke-width="0" stroke-linecap="butt"></path><path d="M377.99228,202.72912c-1.42587,-2.03572 -0.98528,-3.41134 2.91206,-4.77905c3.89732,-1.3677 9.41376,-0.51711 10.83962,1.51859c1.42587,2.03572 0.18603,3.27437 -3.7113,4.64209c-3.89732,1.3677 -8.6145,0.65412 -10.04039,-1.38162z" fill="#ffea00" stroke="none" stroke-width="0" stroke-linecap="butt"></path><path d="M348.34371,210.00288c-1.11583,-1.59305 0.61418,-2.30282 3.79441,-3.41888c3.18022,-1.11606 6.92643,-0.55387 7.86621,0.78787c0.93978,1.34172 -0.89423,2.50548 -4.07448,3.62152c-3.18022,1.11606 -6.64641,0.35121 -7.58618,-0.99051z" fill="#ffea00" stroke="none" stroke-width="0" stroke-linecap="butt"></path><path d="M415.221,212.63229c-2.30728,-2.25564 -3.5033,-4.19819 -2.19217,-4.89317c1.31116,-0.695 4.86771,0.45585 7.17499,2.7115c2.30728,2.25564 2.47824,4.14044 1.1671,4.83543c-1.31116,0.695 -3.84265,-0.3981 -6.14992,-2.65376z" fill="#ffea00" stroke="none" stroke-width="0" stroke-linecap="butt"></path><path d="M437.13037,204.62267c-1.62032,-2.31333 -1.72062,-4.61441 -0.22404,-5.1396c1.49657,-0.5252 4.02331,0.92437 5.64363,3.23769c1.62032,2.31333 1.72062,4.61439 0.22405,5.13959c-1.49657,0.5252 -4.02331,-0.92435 -5.64363,-3.23768z" fill="#ffea00" stroke="none" stroke-width="0" stroke-linecap="butt"></path><path d="M472.36926,204.7277c-1.70132,-2.429 -1.97536,-4.15971 0.20714,-4.92564c2.18251,-0.76591 5.43054,-0.07887 7.13189,2.35013c1.70132,2.429 1.80377,4.11558 -0.37872,4.8815c-2.18251,0.76591 -5.25899,0.12301 -6.96031,-2.30599z" fill="#ffea00" stroke="none" stroke-width="0" stroke-linecap="butt"></path><path d="M475.03037,210.78094c1.12678,0.83807 0.39773,3.06348 -1.84554,4.66058c-2.24326,1.5971 -4.97523,2.21244 -6.10199,1.37435c-1.12678,-0.83807 -0.56218,-2.93974 1.61973,-4.58134c2.01745,-1.51785 5.20101,-2.29168 6.32779,-1.4536z" fill="#ffea00" stroke="none" stroke-width="0" stroke-linecap="butt"></path><path d="M446.22462,213.65492c-0.58453,-1.41012 1.38758,-2.44084 4.10982,-2.97111c2.72222,-0.53026 6.14347,0.23622 6.72798,1.64631c0.58453,1.41012 -1.89344,2.72272 -4.61566,3.25299c-2.72222,0.53026 -5.63763,-0.5181 -6.22215,-1.9282z" fill="#ffea00" stroke="none" stroke-width="0" stroke-linecap="butt"></path><path d="M453.35208,208.50378c-3.65885,-1.86824 -5.85266,-5.05252 -3.9865,-7.04665c1.86616,-1.99412 7.08561,-2.04298 10.74446,-0.17474c1.66974,0.85259 3.62097,1.81258 4.39398,2.91823c0.92089,1.31712 0.43101,2.79302 -0.58351,3.8771c-1.86616,1.99412 -6.90959,2.2943 -10.56841,0.42606z" fill="#ffea00" stroke="none" stroke-width="0" stroke-linecap="butt"></path><path d="M415.78242,202.12826c0.49822,-2.17144 4.01116,-2.68115 7.59273,-2.48638c3.58155,0.19475 6.40339,1.94556 6.30273,3.91051c-0.10066,1.96495 -3.43774,2.89737 -7.0193,2.70261c-3.58155,-0.19475 -7.37369,-1.95831 -6.87616,-4.12674z" fill="#ffea00" stroke="none" stroke-width="0" stroke-linecap="butt"></path><path d="M400.33719,202.60423c-2.33404,-0.95415 -3.80797,-2.37622 -2.81279,-3.73066c0.99516,-1.35443 3.69847,-1.47176 6.03253,-0.5176c2.33404,0.95415 3.80796,2.3762 2.81278,3.73065c-0.99516,1.35443 -3.69847,1.47177 -6.03253,0.51761z" fill="#ffea00" stroke="none" stroke-width="0" stroke-linecap="butt"></path><path d="M373.69507,211.57672c-2.41387,-1.47226 -4.22284,-3.35123 -2.99308,-4.43561c1.22976,-1.08438 4.40929,-0.8492 6.82318,0.62306c2.41387,1.47226 4.5571,3.02519 3.32735,4.10959c-1.22976,1.08438 -4.74357,1.17523 -7.15745,-0.29701z" fill="#ffea00" stroke="none" stroke-width="0" stroke-linecap="butt"></path><path d="M356.84203,202.25455c-1.17743,-1.681 0.4134,-3.10207 3.53127,-4.19624c3.11787,-1.09416 6.91285,-0.17165 8.09028,1.50935c1.17743,1.681 -0.9071,3.06661 -4.02497,4.16076c-3.11787,1.09416 -6.41911,0.20712 -7.59655,-1.47391z" fill="none" stroke="#000e25" stroke-width="1.2" stroke-linecap="butt"></path><path d="M379.95825,202.45665c-0.79936,-1.14126 -0.23435,-2.64865 2.32232,-3.54585c2.55666,-0.89721 6.22984,-0.04224 7.02921,1.09899c0.79936,1.14126 -0.60091,2.15902 -3.15755,3.05623c-2.55666,0.89721 -5.39459,0.53184 -6.19397,-0.6094z" fill="none" stroke="#000e25" stroke-width="1.05" stroke-linecap="butt"></path><path d="M454.15211,206.44568c-2.4506,-1.20179 -4.32449,-2.72614 -2.94109,-4.27051c1.38342,-1.54438 4.98815,-1.64851 7.43873,-0.44674c2.4506,1.20179 4.44184,2.89369 3.05842,4.43807c-1.38342,1.54438 -5.1055,1.48098 -7.55608,0.27917z" fill="none" stroke="#000e25" stroke-width="1.2" stroke-linecap="butt"></path><path d="M473.15754,203.91184c-1.0586,-1.51138 -0.70355,-3.16232 0.79303,-3.68753c1.49657,-0.5252 3.56795,0.27426 4.62658,1.78563c1.0586,1.51138 0.70355,3.16232 -0.79303,3.68753c-1.49657,0.5252 -3.56795,-0.27426 -4.62658,-1.78563z" fill="none" stroke="#000e25" stroke-width="1" stroke-linecap="butt"></path><path d="M447.76655,213.44858c-0.60493,-0.86364 0.69015,-1.56414 2.644,-2.24981c1.95387,-0.68567 4.22374,-0.26218 4.82866,0.60147c0.60493,0.86364 -0.80874,1.82131 -2.86984,2.32908c-1.99595,0.49171 -3.99792,0.18293 -4.60285,-0.68072z" fill="none" stroke="#000e25" stroke-width="0.5" stroke-linecap="butt"></path><path d="M449.18601,213.08961c-0.37807,-0.53978 0.39723,-1.04388 1.59053,-1.46267c1.19331,-0.41878 2.75032,-0.13542 3.12843,0.40436c0.37807,0.53978 -0.56598,1.13157 -1.75928,1.55036c-1.19331,0.41878 -2.5816,0.04775 -2.95967,-0.49204z" fill="none" stroke="#000e25" stroke-width="0.5" stroke-linecap="butt"></path><path d="M451.0552,212.84636c-0.05302,-0.07573 0.15905,-0.22659 0.47367,-0.337c0.31463,-0.11041 0.61267,-0.13856 0.66569,-0.06283c0.05302,0.07573 -0.15904,0.22659 -0.47366,0.337c-0.31463,0.11041 -0.61268,0.13856 -0.6657,0.06283z" fill="#000e25" stroke="#000e25" stroke-width="0.5" stroke-linecap="butt"></path><path d="M475.28935,203.05461c-0.12962,-0.18506 -0.06619,-0.39421 0.14165,-0.46716c0.20786,-0.07294 0.48144,0.01794 0.61105,0.20301c0.12962,0.18506 0.06621,0.39422 -0.14165,0.46716c-0.20786,0.07294 -0.48146,-0.01795 -0.61107,-0.20301z" fill="#000e25" stroke="#000e25" stroke-width="0.5" stroke-linecap="butt"></path><path d="M471.07249,213.7359c-0.23903,0.08388 -0.52039,0.02687 -0.6284,-0.12735c-0.10801,-0.15423 -0.00181,-0.34724 0.23722,-0.43113c0.23903,-0.08388 0.5204,-0.02686 0.6284,0.12736c0.10801,0.15423 0.00181,0.34723 -0.23722,0.43112z" fill="#000e25" stroke="#000e25" stroke-width="0.5" stroke-linecap="butt"></path><path d="M456.17004,204.51937c-0.28685,-0.25732 -0.65407,-0.61101 -0.33571,-0.79615c0.31835,-0.18516 0.95779,-0.01131 1.24464,0.24602c0.28685,0.25732 0.55894,0.51158 0.24059,0.69674c-0.31835,0.18516 -0.8627,0.11071 -1.14953,-0.14662z" fill="#000e25" stroke="#000e25" stroke-width="0.5" stroke-linecap="butt"></path><path d="M439.70107,203.45486c-0.14044,-0.20049 -0.17844,-0.38963 -0.0849,-0.42245c0.09353,-0.03284 0.28319,0.10308 0.42363,0.30358c0.14044,0.20049 0.17843,0.38964 0.08491,0.42247c-0.09353,0.03284 -0.28318,-0.10309 -0.42362,-0.30359z" fill="none" stroke="#000e25" stroke-width="0.5" stroke-linecap="butt"></path><path d="M438.20926,203.73486c-1.01539,-1.44968 -1.17295,-2.85846 -0.3519,-3.1466c0.82105,-0.28814 2.30977,0.65349 3.32517,2.10318c1.01539,1.44968 1.17295,2.85846 0.3519,3.1466c-0.82105,0.28814 -2.30977,-0.65349 -3.32517,-2.10318z" fill="none" stroke="#000e25" stroke-width="0.5" stroke-linecap="butt"></path><path d="M440.92811,204.97239c-0.61318,0.21519 -1.63568,-0.3605 -2.28379,-1.28582c-0.64812,-0.92534 -0.67646,-1.84992 -0.06327,-2.06509c0.61318,-0.21519 1.63569,0.3605 2.2838,1.28582c0.64812,0.92534 0.67645,1.8499 0.06326,2.06508z" fill="none" stroke="#000e25" stroke-width="0.5" stroke-linecap="butt"></path><path d="M422.08978,202.67764c-0.11881,-0.16963 0.0039,-0.38405 0.27411,-0.47888c0.27022,-0.09484 0.58558,-0.03417 0.70442,0.13546c0.11881,0.16963 -0.0039,0.38405 -0.27411,0.47888c-0.27022,0.09484 -0.58558,0.03417 -0.70442,-0.13546z" fill="#000e25" stroke="#000e25" stroke-width="0.5" stroke-linecap="butt"></path><path d="M416.71911,211.27649c-0.21604,-0.30844 -0.22269,-0.61762 -0.01483,-0.69056c0.20786,-0.07294 0.55149,0.11796 0.76752,0.4264c0.21604,0.30844 0.22269,0.61763 0.01483,0.69057c-0.20786,0.07294 -0.55149,-0.11797 -0.76752,-0.42641z" fill="#000e25" stroke="#000e25" stroke-width="0.5" stroke-linecap="butt"></path><path d="M401.27104,200.17088c-0.13194,-0.18839 -0.0331,-0.41331 0.22079,-0.5024c0.25389,-0.0891 0.56666,-0.00863 0.6986,0.17975c0.13194,0.18839 0.03306,0.41332 -0.2208,0.5024c-0.25389,0.0891 -0.56665,0.00861 -0.69859,-0.17975z" fill="#000e25" stroke="#000e25" stroke-width="0.5" stroke-linecap="butt"></path><path d="M383.74729,200.88615c-0.15276,-0.21812 0.04835,-0.50896 0.4492,-0.64965c0.40087,-0.14067 0.84968,-0.07792 1.00246,0.14021c0.15276,0.21812 -0.04835,0.50896 -0.4492,0.64965c-0.40087,0.14067 -0.84968,0.07792 -1.00246,-0.14021z" fill="#000e25" stroke="#000e25" stroke-width="0.5" stroke-linecap="butt"></path><path d="M375.06924,209.41071c-0.18749,-0.26767 -0.17701,-0.5417 0.02342,-0.61204c0.20044,-0.07034 0.51491,0.08965 0.70241,0.35733c0.18749,0.26767 0.177,0.5417 -0.02344,0.61204c-0.20044,0.07034 -0.51491,-0.08965 -0.70241,-0.35733z" fill="#000e25" stroke="#000e25" stroke-width="0.5" stroke-linecap="butt"></path><path d="M353.12187,208.45797c-0.09723,-0.13879 0.13812,-0.36154 0.52562,-0.49755c0.38753,-0.13599 0.78045,-0.13372 0.87769,0.00509c0.09723,0.13879 -0.13812,0.36155 -0.52562,0.49756c-0.38753,0.13599 -0.78045,0.13371 -0.87769,-0.0051z" fill="#000e25" stroke="#000e25" stroke-width="0.5" stroke-linecap="butt"></path><path d="M343.87192,197.14527c-0.09029,-0.12888 -0.05513,-0.27136 0.07851,-0.31826c0.13363,-0.0469 0.3151,0.01956 0.40541,0.14845c0.09029,0.12888 0.05516,0.27137 -0.07848,0.31828c-0.13363,0.0469 -0.31513,-0.01956 -0.4054,-0.14846z" fill="#000e25" stroke="#000e25" stroke-width="0.5" stroke-linecap="butt"></path><path d="M363.56334,202.25892c-1.90191,0.66745 -4.01509,0.39274 -4.71992,-0.61354c-0.70484,-1.00629 0.26557,-2.36313 2.16748,-3.03058c1.90191,-0.66745 4.61118,-0.44538 5.64319,1.22883c0.6345,1.02934 -1.18885,1.74785 -3.09074,2.41529z" fill="none" stroke="#000e25" stroke-width="0.5" stroke-linecap="butt"></path><path d="M351.3426,208.60879c-0.39697,-0.56676 -0.13565,-0.70905 1.12708,-1.15217c1.26274,-0.44314 3.43233,-0.37121 3.8293,0.19554c0.39697,0.56676 -0.5938,1.17376 -1.85653,1.6169c-1.26274,0.44314 -2.70289,-0.09349 -3.09986,-0.66025z" fill="none" stroke="#000e25" stroke-width="0.5" stroke-linecap="butt"></path><path d="M342.20414,197.57004c-0.44561,-0.63617 -0.45682,-1.11814 0.35384,-1.40262c0.81066,-0.28449 2.74342,0.20153 3.18898,0.83772c0.44561,0.63617 0.48392,1.05645 -0.32672,1.34094c-0.81066,0.28449 -2.77052,-0.13985 -3.21611,-0.776z" fill="none" stroke="#000e25" stroke-width="0.5" stroke-linecap="butt"></path><path d="M381.22147,201.46296c-0.5428,-0.77497 0.40317,-1.62868 2.07124,-2.21405c1.66808,-0.58538 3.66793,-0.0349 4.21071,0.74004c0.5428,0.77497 -0.63566,1.39718 -2.30373,1.98256c-1.66808,0.58538 -3.43543,0.26641 -3.97822,-0.50856z" fill="none" stroke="#000e25" stroke-width="0.5" stroke-linecap="butt"></path><path d="M400.02999,200.60245c-0.51041,-0.7287 -0.68809,-1.19353 0.29405,-1.53818c0.98212,-0.34468 2.81751,-0.0441 3.32788,0.68458c0.51041,0.7287 0.11243,0.87373 -0.8697,1.21839c-0.98212,0.34468 -2.24187,0.36391 -2.75224,-0.36481z" fill="none" stroke="#000e25" stroke-width="0.5" stroke-linecap="butt"></path><path d="M398.93157,200.44c-0.36107,-0.51551 -0.24741,-0.821 -0.1346,-1.13132c0.10995,-0.3024 0.20462,-0.61481 0.94805,-0.71962c1.10505,-0.15583 2.48887,0.02495 3.49308,0.43693c0.35111,0.14406 0.77678,0.13651 0.96146,0.40019c0.71293,1.01787 1.1905,1.6695 -0.18138,2.15093c-1.37188,0.48144 -4.37371,-0.11925 -5.08665,-1.13712z" fill="none" stroke="#000e25" stroke-width="0.5" stroke-linecap="butt"></path><path d="M417.79872,202.22518c-0.11965,-1.62478 2.09795,-1.94063 4.85585,-1.83049c2.7579,0.11017 5.05635,1.11926 5.04557,2.20733c-0.01277,1.28676 -2.46378,2.1212 -5.22167,2.01105c-2.7579,-0.11017 -4.58296,-1.07387 -4.67974,-2.38789z" fill="none" stroke="#000e25" stroke-width="0.75" stroke-linecap="butt"></path><path d="M419.23727,202.41987c-0.20864,-0.29789 0.25366,-0.41433 0.43819,-0.58961c0.38151,-0.36239 0.98028,-0.61493 1.85177,-0.70974c1.67515,-0.18224 3.4329,0.03121 4.07292,0.94498c0.64002,0.91375 -0.19992,1.19206 -1.71207,1.72275c-1.51217,0.53066 -4.01076,-0.45459 -4.65081,-1.36837z" fill="none" stroke="#000e25" stroke-width="0.5" stroke-linecap="butt"></path><path d="M430.15631,214.65573c-3.07877,-1.34276 -5.69746,-3.28097 -4.28624,-5.07068c0.84608,-1.07297 3.47269,-1.7833 6.01907,-1.61012c1.70088,0.11565 3.30714,0.81956 4.54005,1.35727c3.07877,1.34276 4.52793,3.11741 3.11673,4.9071c-1.41123,1.78969 -6.31084,1.75919 -9.38961,0.41641z" fill="#ffea00" stroke="none" stroke-width="0" stroke-linecap="butt"></path><path d="M431.33208,213.5555c-2.06327,-0.98292 -4.15008,-2.16093 -3.09827,-3.37269c1.05181,-1.21176 4.55235,-1.00894 6.6156,-0.02603c2.06327,0.98292 3.49309,2.02621 2.44125,3.23796c-1.05182,1.21175 -3.89534,1.14367 -5.95862,0.16076z" fill="none" stroke="#000e25" stroke-width="0.75" stroke-linecap="butt"></path><path d="M431.61879,212.89124c-1.42869,-0.66696 -2.18959,-1.5862 -1.59919,-2.28152c0.59037,-0.69531 2.68105,-0.7732 4.1097,-0.10624c1.42869,0.66696 2.48298,2.00508 1.89259,2.70039c-0.59037,0.69531 -2.97442,0.35434 -4.40309,-0.31264z" fill="none" stroke="#000e25" stroke-width="0.5" stroke-linecap="butt"></path><path d="M432.568,212.01349c-0.17823,-0.25447 -0.05732,-0.55388 0.27005,-0.66878c0.32738,-0.11489 0.73727,-0.00174 0.91549,0.25271c0.17823,0.25447 0.05731,0.55387 -0.27007,0.66875c-0.32738,0.11489 -0.73725,0.00174 -0.91548,-0.25271z" fill="#001026" stroke="#000e25" stroke-width="0.5" stroke-linecap="butt"></path><path d="M455.27174,205.76253c-1.79555,-0.72312 -2.92725,-1.85976 -2.21844,-2.84038c0.70882,-0.98063 2.98971,-1.43388 4.7853,-0.71078c1.79555,0.72312 3.13262,2.15296 2.42381,3.13357c-0.70882,0.98063 -3.19512,1.1407 -4.99066,0.41757z" fill="none" stroke="#000e25" stroke-width="0.5" stroke-linecap="butt"></path><path d="M473.37778,211.38811c1.0309,0.66565 0.62412,1.97065 -0.7638,3.1215c-1.38794,1.15085 -2.97402,1.77798 -4.00492,1.11232c-1.0309,-0.66565 -0.62409,-1.97067 0.76383,-3.12153c1.38792,-1.15086 2.974,-1.77797 4.00489,-1.11231z" fill="none" stroke="#000e25" stroke-width="0.5" stroke-linecap="butt"></path><path d="M472.60329,212.17254c0.66663,0.41462 0.37782,1.15951 -0.53376,1.94652c-0.91159,0.78701 -2.27451,1.17041 -2.94114,0.75579c-0.66663,-0.41462 -0.2649,-1.19912 0.64669,-1.98613c0.91159,-0.78701 2.16161,-1.13078 2.82824,-0.71616z" fill="none" stroke="#000e25" stroke-width="0.25" stroke-linecap="butt"></path><path d="M361.62756,200.63868c-0.19444,-0.27761 0.05956,-0.64711 0.56735,-0.82529c0.50776,-0.17818 1.15246,0.01009 1.34689,0.2877c0.19444,0.27761 -0.01116,0.63013 -0.51894,0.80831c-0.50776,0.17818 -1.20086,0.00689 -1.3953,-0.27072z" fill="#000e25" stroke="none" stroke-width="0" stroke-linecap="butt"></path><path d="M349.82364,208.84852c-0.42379,-1.006 1.17766,-1.8099 3.53646,-2.278c2.35883,-0.46808 4.20233,0.06793 4.6261,1.07394c0.42379,1.006 -1.13117,1.70415 -3.48998,2.17223c-2.35883,0.46808 -4.24881,0.03783 -4.67259,-0.96816z" fill="none" stroke="#000e27" stroke-width="0.5" stroke-linecap="butt"></path><path d="M374.01514,209.81647c-1.07524,-0.78355 -1.60846,-1.48522 -1.0476,-1.8934c0.56084,-0.4082 2.15374,-0.13383 3.32011,0.50192c1.29523,0.706 1.94547,1.66512 1.38461,2.07331c-0.56084,0.4082 -2.58191,0.10173 -3.65716,-0.68182z" fill="none" stroke="#000e25" stroke-width="0.5" stroke-linecap="butt"></path><path d="M373.61984,210.25555c-1.71932,-1.25969 -2.76893,-2.33157 -1.66845,-3.12786c1.10047,-0.7963 3.54107,-0.02766 5.26039,1.23202c1.71932,1.25969 2.56772,2.04435 1.46726,2.84066c-1.10047,0.7963 -3.33988,0.31488 -5.0592,-0.94482z" fill="none" stroke="#001027" stroke-width="0.75" stroke-linecap="butt"></path><path d="M415.79416,211.68667c-0.92275,-0.84927 -1.20466,-1.56311 -0.45754,-1.98583c0.74711,-0.42271 1.8086,-0.06384 2.73135,0.78543c0.92275,0.84927 1.4485,1.56699 0.70139,1.98971c-0.74711,0.42271 -2.05243,0.05995 -2.97521,-0.7893z" fill="none" stroke="#001025" stroke-width="0.5" stroke-linecap="butt"></path><path d="M415.32232,211.9403c-1.56729,-1.46006 -1.8642,-2.62821 -0.79662,-3.22439c0.41001,-0.22896 0.81054,-0.12004 1.32308,-0.01177c0.82199,0.17367 1.82249,0.59517 2.78784,1.49449c1.56729,1.46006 2.32484,2.51128 1.25725,3.10745c-1.06757,0.59618 -3.0043,0.09428 -4.5716,-1.3658z" fill="none" stroke="#001025" stroke-width="0.75" stroke-linecap="butt"></path><path d="M473.20221,203.92876c-1.20282,-1.48863 -1.24428,-2.91372 0.20117,-3.50684c1.44543,-0.59309 3.81474,0.27844 5.01756,1.76708c1.20282,1.48863 1.11662,2.64543 -0.32881,3.23855c-1.44543,0.59309 -3.68713,-0.01014 -4.88993,-1.4988z" fill="none" stroke="#001027" stroke-width="0.75" stroke-linecap="butt"></path><path d="M474.07929,203.55496c-0.70136,-1.00135 -0.7931,-2.06989 0.15564,-2.40282c0.94874,-0.33293 2.50699,0.26565 3.20836,1.267c0.70136,1.00135 0.76604,1.94519 -0.1827,2.27813c-0.94874,0.33293 -2.47995,-0.14097 -3.1813,-1.14232z" fill="none" stroke="#001027" stroke-width="0.5" stroke-linecap="butt"></path><path d="M241.71302,198.90787c-0.00037,-0.14756 -0.44626,-0.28351 -1.26476,-0.97842c-0.37385,-0.3174 0.01425,-1.39434 -1.15297,-1.50554c-1.49747,-0.14268 -4.23469,0.7011 -6.55341,0.92888c-2.86549,0.28151 -5.21094,-0.02072 -5.21094,-0.02072c0,0 4.79436,-3.34827 9.32111,-3.36021c1.06909,-0.00282 2.94004,0.12519 4.83043,0.63399c1.68223,0.45278 3.38453,1.28697 4.47874,1.37041c0.27766,0.02118 1.05432,-0.1468 1.39967,-0.24578c0.7275,-0.2085 1.47658,-0.52098 2.12619,-0.81322c0.61927,-0.27859 0.5975,-0.42542 1.05829,-0.40045c0.46079,0.02496 0.36502,0.47752 0.36502,0.47752c0,0 -0.79662,1.06858 -0.89013,1.90527c-0.05807,0.51962 0.19711,1.94678 -0.00326,2.98183c-0.13092,0.6763 -0.75381,0.91351 -0.75535,1.56178c-0.00345,1.44244 0.64271,2.55227 0.64271,2.55227c0,0 -1.18405,-1.52562 -3.5854,-1.65684c-0.97676,-0.05337 -2.4946,0.60379 -3.65179,0.79895c-1.96472,0.33135 -3.56985,0.30818 -4.66046,0.31105c-4.58261,0.0121 -10.52268,-3.70854 -10.52268,-3.70854c0,0 0.45388,-0.20016 1.80934,-0.0582c2.39238,0.25054 6.54313,0.89825 8.46096,0.81671c3.89381,-0.16559 3.75932,-1.37419 3.75875,-1.59073z" fill="#885058" stroke="#000e25" stroke-width="1" stroke-linecap="butt"></path></g></g></g></svg>