<svg version="1.1" xmlns="http://www.w3.org/2000/svg" xmlns:xlink="http://www.w3.org/1999/xlink" width="683.7934" height="459.17857" viewBox="0,0,683.7934,459.17857"><defs><linearGradient x1="261.88608" y1="-15.53177" x2="261.88608" y2="443.6468" gradientUnits="userSpaceOnUse" id="color-1"><stop offset="0" stop-color="#fffffe"></stop><stop offset="1" stop-color="#fffffe" stop-opacity="0"></stop></linearGradient></defs><g transform="translate(80.01062,15.53177)"><g data-paper-data="{&quot;isPaintingLayer&quot;:true}" fill-rule="nonzero" stroke-linejoin="miter" stroke-miterlimit="10" stroke-dasharray="" stroke-dashoffset="0" style="mix-blend-mode: normal"><path d="M-80.01062,429.7056l246.17309,-445.23737h107.22473l330.39558,459.17857z" data-paper-data="{&quot;index&quot;:null}" fill="url(#color-1)" stroke="none" stroke-width="0" stroke-linecap="round"></path><g stroke-linecap="butt"><path d="M240.7385,268.91295c-33.82744,0 -61.25,-27.42256 -61.25,-61.25c0,-33.82744 27.42256,-61.25 61.25,-61.25c33.82744,0 61.25,27.42256 61.25,61.25c0,33.82744 -27.42256,61.25 -61.25,61.25z" data-paper-data="{&quot;index&quot;:null}" fill="#000000" stroke="#000000" stroke-width="1.5"></path><g data-paper-data="{&quot;index&quot;:null}" stroke="none" stroke-width="0"><path d="M264.78763,192.29695c11.5571,0 20.92597,7.9718 20.92597,7.9718c0,0 -9.36888,7.9718 -20.92597,7.9718c-11.5571,0 -20.92597,-7.9718 -20.92597,-7.9718c0,0 9.36888,-7.9718 20.92597,-7.9718z" fill="#ffffff"></path><path d="M265.78408,208.24056c-4.40272,0 -7.9718,-3.56911 -7.9718,-7.9718c0,-4.40272 3.56911,-7.9718 7.9718,-7.9718c4.40272,0 7.9718,3.56911 7.9718,7.9718c0,4.40272 -3.56911,7.9718 -7.9718,7.9718z" fill="#000000"></path></g><g data-paper-data="{&quot;index&quot;:null}" stroke="none" stroke-width="0"><path d="M218.22535,192.4769c11.5571,0 20.92597,7.9718 20.92597,7.9718c0,0 -9.36888,7.9718 -20.92597,7.9718c-11.5571,0 -20.92597,-7.9718 -20.92597,-7.9718c0,0 9.36888,-7.9718 20.92597,-7.9718z" fill="#ffffff"></path><path d="M219.22183,208.42051c-4.40272,0 -7.9718,-3.56911 -7.9718,-7.9718c0,-4.40269 3.56911,-7.9718 7.9718,-7.9718c4.40272,0 7.9718,3.56911 7.9718,7.9718c0,4.40272 -3.56911,7.9718 -7.9718,7.9718z" fill="#000000"></path></g></g></g></g></svg>