<svg version="1.1" xmlns="http://www.w3.org/2000/svg" xmlns:xlink="http://www.w3.org/1999/xlink" width="108.98974" height="122.98193" viewBox="0,0,108.98974,122.98193"><g transform="translate(-184.52581,-95.44202)"><g data-paper-data="{&quot;isPaintingLayer&quot;:true}" fill-rule="nonzero" stroke-linejoin="miter" stroke-miterlimit="10" stroke-dasharray="" stroke-dashoffset="0" style="mix-blend-mode: normal"><path d="" data-paper-data="{&quot;index&quot;:null}" fill="none" stroke="#000000" stroke-width="1.5" stroke-linecap="round"></path><path d="M199.48853,178.17395c0,-21.81525 17.68475,-39.5 39.5,-39.5c21.81525,0 39.5,17.68475 39.5,39.5c0,21.81525 -17.68475,39.5 -39.5,39.5c-21.81525,0 -39.5,-17.68475 -39.5,-39.5z" fill="#d8d8d8" stroke="#000000" stroke-width="1.5" stroke-linecap="butt"></path><path d="M184.52581,194.65338" fill="none" stroke="#d8d8d8" stroke-width="4" stroke-linecap="round"></path><path d="M229.69475,162.57199v8" fill="none" stroke="#000000" stroke-width="1.5" stroke-linecap="round"></path><path d="M235.31499,168.26759c0,0 1.27486,-2.93117 2.69835,-2.93117c1.20746,0 3.02185,2.93117 3.02185,2.93117" fill="none" stroke="#000000" stroke-width="1.5" stroke-linecap="round"></path><path d="M238.43304,191.06637c0,2.42201 -1.3368,4.38543 -2.98583,4.38543c-1.64903,0 -2.98583,-1.96343 -2.98583,-4.38543c0,-2.42201 1.3368,-4.38543 2.98583,-4.38543c1.64903,0 2.98583,1.96343 2.98583,4.38543z" fill="none" stroke="#000000" stroke-width="1.5" stroke-linecap="butt"></path><g><path d="M275.85286,121.81772c0,0 2.45139,9.80791 -1.67958,10.69577c-4.13098,0.88786 -4.21862,-9.3827 -4.21862,-9.3827" fill="none" stroke="#ffee00" stroke-width="6.5" stroke-linecap="round"></path><g><path d="M205.45531,121.93643l55.79559,-8.30586l0.5728,3.84797l-55.79559,8.30586z" fill="#7f7600" stroke="#000000" stroke-width="0" stroke-linecap="butt"></path><path d="M270.86675,106.62078c4.29898,-0.67008 8.32722,2.27172 8.99731,6.57072c0.67008,4.29898 -2.27172,8.32722 -6.57072,8.99731c-4.29898,0.67008 -8.32722,-2.27172 -8.99731,-6.57072c-0.67008,-4.29898 2.27172,-8.32722 6.57072,-8.99731z" fill="none" stroke="#ffee00" stroke-width="5" stroke-linecap="butt"></path><path d="M279.56977,109.98903c0,0 9.80791,-2.45139 10.69578,1.67958c0.88786,4.13099 -9.3827,4.21862 -9.3827,4.21862" fill="none" stroke="#ffee00" stroke-width="6.5" stroke-linecap="round"></path><path d="M263.13186,118.31539c0,0 -9.80791,2.45139 -10.69579,-1.67958c-0.88786,-4.13099 9.3827,-4.21862 9.3827,-4.21862" fill="none" stroke="#ffee00" stroke-width="6.5" stroke-linecap="round"></path><path d="M268.37287,106.1378c0,0 -2.45139,-9.80791 1.67958,-10.69578c4.13097,-0.88787 4.21863,9.38268 4.21863,9.38268" fill="none" stroke="#ffee00" stroke-width="6.5" stroke-linecap="round"></path></g></g></g></g></svg>