<svg version="1.1" xmlns="http://www.w3.org/2000/svg" xmlns:xlink="http://www.w3.org/1999/xlink" width="471.77078" height="389.7739" viewBox="0,0,471.77078,389.7739"><defs><linearGradient x1="221.96482" y1="190.93297" x2="229.24278" y2="190.93297" gradientUnits="userSpaceOnUse" id="color-1"><stop offset="0" stop-color="#ff0000"></stop><stop offset="1" stop-color="#ff0000"></stop></linearGradient><linearGradient x1="231.63018" y1="190.70777" x2="238.90813" y2="190.70777" gradientUnits="userSpaceOnUse" id="color-2"><stop offset="0" stop-color="#ff0000"></stop><stop offset="1" stop-color="#ffad00"></stop></linearGradient><linearGradient x1="241.48215" y1="190.8558" x2="248.7601" y2="190.8558" gradientUnits="userSpaceOnUse" id="color-3"><stop offset="0" stop-color="#ff9500"></stop><stop offset="1" stop-color="#e2ff00"></stop></linearGradient><linearGradient x1="251.52073" y1="191.19045" x2="258.79868" y2="191.19045" gradientUnits="userSpaceOnUse" id="color-4"><stop offset="0" stop-color="#e2ff00"></stop><stop offset="1" stop-color="#ff9500"></stop></linearGradient><linearGradient x1="268.72782" y1="191.22903" x2="261.44987" y2="191.22903" gradientUnits="userSpaceOnUse" id="color-5"><stop offset="0" stop-color="#ff0000"></stop><stop offset="1" stop-color="#ffad00"></stop></linearGradient><linearGradient x1="271.379" y1="191.081" x2="278.65695" y2="191.081" gradientUnits="userSpaceOnUse" id="color-6"><stop offset="0" stop-color="#ff0000"></stop><stop offset="1" stop-color="#ff0000"></stop></linearGradient><radialGradient cx="105.56008" cy="168.66814" r="235.88539" gradientUnits="userSpaceOnUse" id="color-7"><stop offset="0" stop-color="#d9d9d9" stop-opacity="0"></stop><stop offset="1" stop-color="#d9d9d9"></stop></radialGradient></defs><g transform="translate(130.32531,26.21882)"><g data-paper-data="{&quot;isPaintingLayer&quot;:true}" fill-rule="nonzero" stroke-linejoin="miter" stroke-miterlimit="10" stroke-dasharray="" stroke-dashoffset="0" style="mix-blend-mode: normal"><path d="M204.82949,180c0,-21.81525 17.68475,-39.5 39.5,-39.5c21.81525,0 39.5,17.68475 39.5,39.5c0,21.81525 -17.68475,39.5 -39.5,39.5c-21.81525,0 -39.5,-17.68475 -39.5,-39.5z" fill="#d8d8d8" stroke="#000000" stroke-width="1.5" stroke-linecap="butt"></path><path d="M240.89126,164.08383l-12.78401,-1.53952" fill="none" stroke="#000000" stroke-width="1.5" stroke-linecap="round"></path><path d="M230.67367,174.51092v-10.07717" fill="none" stroke="#000000" stroke-width="1.5" stroke-linecap="round"></path><path d="M245.10841,164.42959l13.11871,-1.85783" fill="none" stroke="#000000" stroke-width="1.5" stroke-linecap="round"></path><path d="M245.80407,174.88415l0.15196,-10.63701" fill="none" stroke="#000000" stroke-width="1.5" stroke-linecap="round"></path><path d="M217.11285,198.39753v-16.60866h68.11417c0,0 0.973,6.39296 0.10634,9.24974c-0.80887,2.66628 -3.27878,8.29199 -3.27878,8.29199z" fill="#9a9a9a" stroke="#000000" stroke-width="0.5" stroke-linecap="butt"></path><path d="M221.96482,196.71801v-11.57008h7.27795v11.57008z" fill="url(#color-1)" stroke="#000000" stroke-width="0" stroke-linecap="butt"></path><path d="M231.63018,196.49281v-11.57008h7.27795v11.57008z" fill="url(#color-2)" stroke="#000000" stroke-width="0" stroke-linecap="butt"></path><path d="M241.48215,196.64084v-11.57008h7.27795v11.57008z" fill="url(#color-3)" stroke="#000000" stroke-width="0" stroke-linecap="butt"></path><path d="M251.52073,196.97549v-11.57008h7.27795v11.57008z" fill="url(#color-4)" stroke="#000000" stroke-width="0" stroke-linecap="butt"></path><path d="M261.44987,197.01407v-11.57008h7.27795v11.57008z" data-paper-data="{&quot;index&quot;:null}" fill="url(#color-5)" stroke="#000000" stroke-width="0" stroke-linecap="butt"></path><path d="M271.379,196.86604v-11.57008h7.27795v11.57008z" fill="url(#color-6)" stroke="#000000" stroke-width="0" stroke-linecap="butt"></path><path d="M95.63109,178.81476c0,-4.79248 3.88508,-8.67756 8.67756,-8.67756c4.79248,0 8.67756,3.88508 8.67756,8.67756c0,4.79248 -3.88508,8.67756 -8.67756,8.67756c-4.79248,0 -8.67756,-3.88508 -8.67756,-8.67756z" fill="#d98a8a" stroke="#000000" stroke-width="1.5" stroke-linecap="butt"></path><path d="M-130.32531,363.55508v-389.7739h471.77078v389.7739z" fill="url(#color-7)" stroke="none" stroke-width="0" stroke-linecap="butt"></path></g></g></svg>