<svg version="1.1" xmlns="http://www.w3.org/2000/svg" xmlns:xlink="http://www.w3.org/1999/xlink" width="95.92015" height="95.36392" viewBox="0,0,95.92015,95.36392"><g transform="translate(-199.50601,-134.47945)"><g data-paper-data="{&quot;isPaintingLayer&quot;:true}" fill-rule="nonzero" stroke-linejoin="miter" stroke-miterlimit="10" stroke-dasharray="" stroke-dashoffset="0" style="mix-blend-mode: normal"><g stroke="none" stroke-width="0" stroke-linecap="butt"><path d="M265.14424,187.9053l18.52822,-21.65493l4.99664,2.23407l-19.4962,23.00155z" fill="#8b8b8b"></path><path d="M235.70626,211.66441l33.87899,-38.11728l20.45317,18.17896l-33.87899,38.11728z" fill="#5e5e5e"></path><path d="M243.90098,211.18201l24.78951,-27.8907l18.28391,16.25089l-24.78951,27.8907z" fill="#4c4c4c"></path><path d="M265.62665,196.10001l4.40701,-4.95834l12.08596,10.74213l-4.40701,4.95834z" fill="#ffffff"></path><path d="M258.74272,203.88223l4.40701,-4.95834l12.08596,10.74213l-4.40701,4.95834z" fill="#ffffff"></path><path d="M252.68511,210.73478l4.40701,-4.95834l12.08596,10.74213l-4.40701,4.95834z" fill="#ffffff"></path><path d="M282.38496,158.58176c2.73817,-3.08073 7.45533,-3.3584 10.53603,-0.62022c3.08073,2.73817 3.3584,7.45533 0.62022,10.53603c-2.73817,3.08073 -7.45533,3.3584 -10.53603,0.62022c-3.08073,-2.73817 -3.3584,-7.45533 -0.62022,-10.53603z" fill="#ffffff"></path></g><path d="" data-paper-data="{&quot;index&quot;:null}" fill="none" stroke="#000000" stroke-width="1.5" stroke-linecap="round"></path><path d="" data-paper-data="{&quot;index&quot;:null}" fill="none" stroke="#000000" stroke-width="1.5" stroke-linecap="round"></path><path d="M207.68515,151.67771c12.73278,-17.71387 37.41464,-21.7519 55.12853,-9.01912c17.71387,12.73278 21.7519,37.41464 9.01912,55.12853c-12.73278,17.71387 -37.41464,21.7519 -55.12853,9.01912c-17.71387,-12.73278 -21.7519,-37.41464 -9.01912,-55.12853z" fill="#404040" stroke="#000000" stroke-width="1.5" stroke-linecap="butt"></path><path d="M214.6697,142.73421c2.26374,-1.78347 8.34617,-4.01152 8.34617,-4.01152l13.45243,23.17105l41.34791,21.84312c0,0 -2.23558,7.42071 -3.68128,10.25565c-1.04387,2.04697 -4.18693,5.1736 -4.18693,5.1736l-43.26355,-25.44938l-17.41289,-24.16571c0,0 3.08162,-4.99182 5.39809,-6.81686z" fill="#d8d8d8" stroke="#000000" stroke-width="1.5" stroke-linecap="round"></path><path d="M225.68324,152.89998l3.94898,5.41037l-3.74272,5.9726" fill="none" stroke="#000000" stroke-width="1.5" stroke-linecap="round"></path><path d="M232.64652,170.16868l3.72664,-5.48813l5.84385,2.46469" fill="none" stroke="#000000" stroke-width="1.5" stroke-linecap="round"></path></g></g></svg>