<svg version="1.1" xmlns="http://www.w3.org/2000/svg" xmlns:xlink="http://www.w3.org/1999/xlink" width="134.96461" height="80.5" viewBox="0,0,134.96461,80.5"><g transform="translate(-149.61488,-139.75)"><g data-paper-data="{&quot;isPaintingLayer&quot;:true}" fill-rule="nonzero" stroke-linejoin="miter" stroke-miterlimit="10" stroke-dasharray="" stroke-dashoffset="0" style="mix-blend-mode: normal"><path d="M204.82949,180c0,-21.81525 17.68475,-39.5 39.5,-39.5c21.81525,0 39.5,17.68475 39.5,39.5c0,21.81525 -17.68475,39.5 -39.5,39.5c-21.81525,0 -39.5,-17.68475 -39.5,-39.5z" fill="#d8d8d8" stroke="#000000" stroke-width="1.5" stroke-linecap="butt"></path><path d="M228.58224,167.20295l9,1v8" fill="none" stroke="#000000" stroke-width="1.5" stroke-linecap="round"></path><path d="M248.51493,176.68819v-8l9,-1" data-paper-data="{&quot;index&quot;:null}" fill="none" stroke="#000000" stroke-width="1.5" stroke-linecap="round"></path><path d="M256.96879,195.96181l-31.37388,0.40984v-12.29517z" fill="#ffffff" stroke="#000000" stroke-width="1.5" stroke-linecap="round"></path><path d="M231.53051,196.37165l0.42397,-10.17531" fill="none" stroke="#000000" stroke-width="1.5" stroke-linecap="round"></path><path d="M240.43391,190.01208v5.9356" fill="none" stroke="#000000" stroke-width="1.5" stroke-linecap="round"></path><g stroke="none" stroke-linecap="butt"><path d="M161.69703,164.2711l1.05392,-3.43685l31.79068,9.74876l-1.05392,3.43685z" fill="#606060" stroke-width="0"></path><path d="M184.46041,176.89161l2.02002,-6.58725l4.29604,1.31741l-2.02002,6.58725z" fill="#606060" stroke-width="0"></path><path d="M149.61951,170.28085c0.64604,-2.10669 2.03444,-6.63427 2.03444,-6.63427l68.07361,20.87507l-3.71757,12.12294l-49.2674,-15.10807l1.50111,-4.90546c0,0 -18.96835,-5.22788 -18.62419,-6.3502z" fill="#969696" stroke-width="NaN"></path><path d="M211.17139,212.5832l-0.14689,-25.4627l8.45839,-0.98288c0,0 -1.17148,9.13348 0.50157,13.08119c1.99126,4.6986 10.65844,13.25205 10.65844,13.25205z" fill="#606060" stroke-width="0"></path><path d="M177.6099,199.231l4.83045,-15.75215l6.58725,2.02002l-4.83045,15.75215z" fill="#606060" stroke-width="0"></path><path d="M191.51747,186.57572l3.05081,-9.94874l6.30085,1.93219l-3.05081,9.94874z" fill="#00fffe" stroke-width="0"></path><path d="M200.64127,189.3088l3.05081,-9.94874l6.30085,1.93219l-3.05081,9.94874z" fill="#00fffe" stroke-width="0"></path><path d="M183.04182,184.16041l3.05081,-9.94874l6.30085,1.93219l-3.05081,9.94874z" fill="#00fffe" stroke-width="0"></path></g><path d="M251.62858,205.73672c0,-4.53898 3.67957,-8.21855 8.21855,-8.21855c4.53898,0 8.21855,3.67957 8.21855,8.21855c0,4.53898 -3.67957,8.21855 -8.21855,8.21855c-4.53898,0 -8.21855,-3.67956 -8.21855,-8.21855z" fill="#d8d8d8" stroke="#000000" stroke-width="1" stroke-linecap="butt"></path></g></g></svg>