<svg version="1.1" xmlns="http://www.w3.org/2000/svg" xmlns:xlink="http://www.w3.org/1999/xlink" width="144.2677" height="132.57743" viewBox="0,0,144.2677,132.57743"><g transform="translate(-60.41257,-34.37926)"><g data-paper-data="{&quot;isPaintingLayer&quot;:true}" fill-rule="nonzero" stroke-linejoin="miter" stroke-miterlimit="10" stroke-dasharray="" stroke-dashoffset="0" style="mix-blend-mode: normal"><path d="" data-paper-data="{&quot;index&quot;:null}" fill="none" stroke="#000000" stroke-width="1.5" stroke-linecap="round"></path><path d="M93.03983,48.0613" data-paper-data="{&quot;index&quot;:null}" fill="none" stroke="#d8d8d8" stroke-width="4" stroke-linecap="round"></path><g><path d="M113.43304,141.98609c-27.55275,-15.17814 -37.58435,-49.81839 -22.40619,-77.37117c15.17814,-27.55275 49.8184,-37.58435 77.37117,-22.40619c27.55275,15.17814 37.58436,49.8184 22.40623,77.37117c-15.17814,27.55275 -49.8184,37.58436 -77.37117,22.40619z" fill="#d8d8d8" stroke="#000000" stroke-width="1.5" stroke-linecap="butt"></path><path d="M129.84246,67.86801l14.52647,15.56204" fill="none" stroke="#000000" stroke-width="1.5" stroke-linecap="round"></path><path d="M131.72386,85.1217l3.76021,-7.58828" fill="none" stroke="#000000" stroke-width="1.5" stroke-linecap="round"></path><path d="M148.91264,85.09308l12.32867,0.49178" fill="none" stroke="#000000" stroke-width="1.5" stroke-linecap="round"></path><path d="M154.56692,88.39244l-4.00622,6.61536" fill="none" stroke="#f1aa4f" stroke-width="2.5" stroke-linecap="round"></path><path d="M145.51274,117.83572l-29.50668,-16.66611" fill="none" stroke="#000000" stroke-width="1.5" stroke-linecap="round"></path></g><g data-paper-data="{&quot;index&quot;:null}" stroke="#000000" stroke-linecap="butt"><path d="M87.8461,101.26474l-24.58941,-14.80742c0,0 -2.66193,-4.93783 -1.9834,-6.2261c0.67733,-1.28597 6.051,-1.49656 6.051,-1.49656l24.58941,14.80742z" fill="#af5400" stroke-width="1.5"></path><path d="M100.89096,84.6735c0,0 -3.05129,7.28502 -7.44514,15.13517c-2.35221,4.20267 -6.64897,12.75987 -6.64897,12.75987c0,0 -5.43849,-2.45851 -7.01406,-3.54204c-3.39084,-2.33187 -3.0101,-9.812 1.38369,-17.66218c2.3703,-4.23507 5.5306,-10.42598 10.29013,-11.30376c4.06281,-0.74928 9.43433,4.61287 9.43433,4.61287z" fill="#989898" stroke-width="1"></path><path d="M100.24143,83.6989c3.39081,2.33184 2.57777,10.586 -1.81604,18.4362c-4.39378,7.85014 -10.70451,12.32366 -14.09533,9.99183c-3.39084,-2.33184 -2.57777,-10.586 1.81604,-18.4362c4.39383,-7.85019 10.70451,-12.32366 14.09535,-9.99187z" fill="#989898" stroke-width="1"></path><path d="M89.18214,101.02171c0,0 -0.76338,-3.82457 -0.19163,-5.0038c0.55847,-1.152 3.5833,-1.99194 3.5833,-1.99194l99.01617,56.27938l12.1403,15.82381l-114.54811,-65.10755z" fill="#e6e6e6" stroke-width="0.5"></path></g></g></g></svg>