<svg version="1.1" xmlns="http://www.w3.org/2000/svg" xmlns:xlink="http://www.w3.org/1999/xlink" width="175.99791" height="80.5" viewBox="0,0,175.99791,80.5"><g transform="translate(-114.73962,-161.83385)"><g data-paper-data="{&quot;isPaintingLayer&quot;:true}" fill-rule="nonzero" stroke-linejoin="miter" stroke-miterlimit="10" stroke-dasharray="" stroke-dashoffset="0" style="mix-blend-mode: normal"><path d="" data-paper-data="{&quot;index&quot;:null}" fill="none" stroke="#000000" stroke-width="1.5" stroke-linecap="round"></path><path d="" data-paper-data="{&quot;index&quot;:null}" fill="none" stroke="#000000" stroke-width="1.5" stroke-linecap="round"></path><path d="" data-paper-data="{&quot;index&quot;:null}" fill="none" stroke="#000000" stroke-width="1.5" stroke-linecap="round"></path><path d="" data-paper-data="{&quot;index&quot;:null}" fill="none" stroke="#000000" stroke-width="1.5" stroke-linecap="round"></path><path d="M171.93904,240.20132" data-paper-data="{&quot;index&quot;:null}" fill="none" stroke="#d8d8d8" stroke-width="4" stroke-linecap="round"></path><path d="M157.6584,241.58385c-23.28918,0 -42.16878,-17.68475 -42.16878,-39.5c0,-21.81525 18.87961,-39.5 42.16878,-39.5c23.28918,0 42.16878,17.68475 42.16878,39.5c0,21.81525 -18.87961,39.5 -42.16878,39.5z" data-paper-data="{&quot;index&quot;:null}" fill="#d8d8d8" stroke="#000000" stroke-width="1.5" stroke-linecap="butt"></path><path d="M173.12731,221.38938c-5.81715,2.88817 -29.4382,-5.13694 -29.4382,-5.13694" data-paper-data="{&quot;index&quot;:null}" fill="none" stroke="#000000" stroke-width="1.5" stroke-linecap="round"></path><path d="M189.72412,173.6821c0,0 6.09779,7.75442 7.50336,11.57662c1.30604,3.55151 3.29844,10.37897 3.29844,10.37897l-43.33879,17.86909l-40.37271,-16.19051c0,0 1.74927,-6.78215 2.89861,-10.48332c1.19689,-3.85428 5.5886,-11.63853 5.5886,-11.63853l31.88547,10.0822l32.537,-11.59453z" data-paper-data="{&quot;index&quot;:null}" fill="#595959" stroke="#000000" stroke-width="0.5" stroke-linecap="round"></path><path d="M178.59288,189.88957c0,0 -3.88574,8.86587 -8.67906,8.86587c-4.79333,0 -12.9937,2.50767 -7.64585,-2.95529c5.34785,-5.46296 16.32491,-5.91058 16.32491,-5.91058z" data-paper-data="{&quot;index&quot;:null}" fill="#ffffff" stroke="none" stroke-width="0" stroke-linecap="butt"></path><path d="M152.88689,195.85784c5.34785,5.46297 -2.85252,2.95529 -7.64584,2.95529c-4.7933,0 -8.67906,-8.86587 -8.67906,-8.86587c0,0 10.97705,0.44762 16.3249,5.91058z" data-paper-data="{&quot;index&quot;:null}" fill="#ffffff" stroke="none" stroke-width="0" stroke-linecap="butt"></path><g data-paper-data="{&quot;index&quot;:null}" fill="none" stroke-linecap="round"><path d="M214.14312,204.73079c0,0 -36.87487,-15.78028 -7.76383,-9.78136" stroke="#ff0000" stroke-width="3.5"></path><path d="M211.13983,209.43384c-9.38506,-2.01837 -18.59155,-9.0089 -16.57027,-15.13492" stroke="#ff0000" stroke-width="3.5"></path><g><path d="M269.39471,207.73505c0,0 36.87487,15.78028 7.76383,9.78136c-29.11105,-5.99891 -73.46892,-23.32123 -73.46892,-23.32123" stroke="#ff0000" stroke-width="3.5"></path><path d="M260.29941,213.56831l-13.7099,-4.26714" stroke="#d8d8d8" stroke-width="4"></path><path d="M272.13571,201.27131c9.38506,2.01837 18.59155,9.0089 16.57027,15.13492" stroke="#ff0000" stroke-width="3.5"></path></g></g></g></g></svg>