<svg version="1.1" xmlns="http://www.w3.org/2000/svg" xmlns:xlink="http://www.w3.org/1999/xlink" width="106.66415" height="62.52824" viewBox="0,0,106.66415,62.52824"><g transform="translate(-189.79982,-142.50348)"><g data-paper-data="{&quot;isPaintingLayer&quot;:true}" fill-rule="nonzero" stroke-linejoin="miter" stroke-miterlimit="10" stroke-dasharray="" stroke-dashoffset="0" style="mix-blend-mode: normal"><path d="M274.82407,164.6949c0.77756,-0.12631 1.53203,-0.22126 2.27548,-0.29263c0.34591,-0.05894 0.68982,-0.089 1.01509,-0.08394c1.82424,-0.12748 3.61475,-0.13203 5.55546,-0.13239c0,0 1,0 1,1c0,0.312 -0.09734,0.52665 -0.23129,0.67434c0.98768,0.11658 1.93504,0.295 2.61615,0.64253c1.26767,0.64681 1.74897,2.07868 2.87394,2.86782c1.16549,0.81757 2.50506,1.15005 3.6977,2.1946c1.36829,1.1984 4.23877,3.60349 1.58419,5.30829c-0.69034,0.44334 -1.62711,0.21474 -2.44378,0.29331c-2.12462,0.20442 -6.8674,-0.07005 -8.6347,-1.49022c-0.35651,-0.28648 0.23609,-1.12424 -0.15373,-1.36342c-0.39524,-0.24251 -0.8488,0.43077 -1.31128,0.46454c-0.79038,0.05771 -1.46755,-0.03618 -2.11461,-0.21438l-1.97757,-0.20791c-0.50864,-0.04696 -0.90691,-0.47483 -0.90691,-0.99572c0,-0.45466 0.30342,-0.83845 0.71882,-0.95993l0.94665,-0.30091c-1.67457,0.18979 -3.62513,0.23827 -4.22866,-0.46615c-1.62073,-1.89166 0.73745,-3.49843 1.69391,-4.36124c0.04492,-0.04052 0.10108,-0.08502 0.16526,-0.13219l-0.19124,-0.69479c-0.06552,0.00736 -0.13116,0.01492 -0.19694,0.0227c-0.07001,0.00907 -0.13928,0.01749 -0.20793,0.02526c-0.38733,0.0483 -0.7796,0.1042 -1.17874,0.16889l-0.01661,0.00339l0.01394,0.08864l-1.95771,0.3079c-0.05631,0.00984 -0.11424,0.01498 -0.17337,0.01498c-0.55228,0 -1,-0.44772 -1,-1c0,-0.49027 0.35281,-0.89813 0.81839,-0.98355l1.93025,-0.39399l0.00135,0.00663z" fill="#0033b3" stroke="none" stroke-width="0.5" stroke-linecap="butt"></path><path d="M202.54526,168.14496c-0.4701,0.06594 -0.94084,0.11732 -1.41243,0.15734c0.38616,0.02877 0.77331,0.04893 1.16113,0.06257c0.16998,-0.01481 0.33944,-0.02787 0.50803,-0.03895l-0.00069,-0.15458l-0.09365,-0.00943c-0.05413,-0.00553 -0.10826,-0.01118 -0.1624,-0.01696zM240.73159,159.9385c-0.03186,0.13324 -0.09395,0.24532 -0.16682,0.33762c1.77965,0.55284 3.40537,1.06847 5.01482,1.78636l0.06416,-0.20621l1.88803,0.5874c0.41836,0.11959 0.7246,0.50483 0.7246,0.9616c0,0.50412 -0.37302,0.92111 -0.85811,0.99001l-1.75545,0.28023c-0.08452,0.01345 -0.16922,0.02687 -0.25409,0.04024c0.59921,0.47516 0.8115,1.233 0.21872,2.46899c-0.48556,1.01243 -4.67804,2.08609 -5.70552,2.49326c-5.7159,2.26513 -13.42164,2.64561 -19.52668,2.49908c-0.39803,-0.00955 -0.81268,0.00111 -1.2351,0.01697c-0.18074,0.22412 -0.45624,0.36862 -0.76562,0.37263l-1.57819,0.02384c-3.38152,0.1155 -6.52151,0.31584 -9.60734,-0.08881c-3.84794,0.089 -7.63036,0.08899 -11.31018,-0.89419l-0.02943,0.23514l-1.97134,-0.24677c-0.50003,-0.05524 -0.88897,-0.47915 -0.88897,-0.99391c0,-0.51104 0.38334,-0.93254 0.87815,-0.99265l1.40496,-0.19284c-0.89174,-0.20333 -1.77473,-0.45136 -2.64708,-0.75393l-0.04127,0.22242l-1.94907,-0.36162c-0.47375,-0.07868 -0.83495,-0.49038 -0.83495,-0.98644c0,-0.5431 0.43295,-0.98508 0.97254,-0.99963l1.99519,-0.06248c0.56138,-0.01755 1.22481,-0.07162 1.9466,-0.13405c-0.39029,-0.14646 -0.77687,-0.30169 -1.15917,-0.46594l-0.05148,0.19498l-1.91302,-0.50506c-0.43913,-0.10554 -0.76546,-0.50083 -0.76546,-0.97234c0,-0.53018 0.41259,-0.96399 0.9342,-0.99787l1.97744,-0.14744c4.11884,-0.30517 8.74624,-0.60671 13.07549,-0.03067c0.97344,0.01179 1.9471,0.02685 2.92129,0.04479c-0.34848,-0.14338 -0.69639,-0.29944 -1.04455,-0.46985l-0.089,0.22485l-1.6335,-0.64658c-1.42173,0.19905 -2.84365,0.26579 -4.25002,0.04117c0,0 -0.98622,-0.16545 -0.82077,-1.15167c0.16545,-0.98622 1.15167,-0.82077 1.15167,-0.82077c1.19659,0.21248 2.44,0.15927 3.6917,-0.01762c0.05446,-0.02166 0.11127,-0.03867 0.16995,-0.05054l-0.33127,-0.19875c-0.29958,-0.17273 -0.50123,-0.49628 -0.50123,-0.86693c0,-0.53666 0.42274,-0.97458 0.95338,-0.99893l1.99091,-0.10548l0.00003,0.00057l0.00234,-0.00069c4.19611,-0.20231 8.37191,-0.37338 12.56434,-0.42604c2.22131,-0.24138 4.46893,-0.36932 6.82979,-0.32475l0.06611,0.03189l0.00371,-0.02324l1.9592,0.31302c0.05864,0.00834 0.11564,0.02176 0.17054,0.03981c1.63174,-0.09759 3.25162,-0.13712 4.84451,-0.07448c1.35625,-0.06703 2.70523,-0.09518 4.04894,-0.023l0.90333,-0.04877c0.02052,-0.00126 0.04121,-0.00189 0.06205,-0.00189c0.10577,0 0.2077,0.01642 0.30338,0.04685c0.00565,-0.00073 0.0113,-0.00145 0.01695,-0.00218l-0.00733,-0.15469l1.99051,-0.09429c0.01807,-0.00097 0.03626,-0.00146 0.05457,-0.00146c0.55228,0 1,0.44772 1,1c0,0.51456 -0.38864,0.93834 -0.88839,0.99384l-1.16525,0.14662c-0.34591,0.04438 -0.69548,0.09164 -1.04843,0.1413z" fill="#0033b3" stroke="none" stroke-width="0.5" stroke-linecap="butt"></path><path d="M275.63718,166.05015c-2.84884,-0.68266 -2.04019,-3.08765 -2.04019,-3.08765l0.24532,-0.16558c-0.053,-1.04932 0.26096,-2.15932 -0.15899,-3.14795c-1.11877,-2.6338 -3.07549,-2.55374 -5.7492,-3.43543c-3.41721,-1.12687 -7.01195,-1.94796 -10.65096,-2.34092c-8.79625,-0.94987 -17.19579,-0.3278 -25.93966,0.65142c-0.60028,0.06723 -1.2034,0.12068 -1.80666,0.17343c-2.36306,0.8844 -8.18121,3.23178 -8.80112,3.37133l-0.0873,0.03321c0.16029,0.10116 0.31027,0.2127 0.44716,0.33734l4.76873,2.91056c0.5588,0.33248 0.97523,0.82407 1.15682,1.39672c0.70784,-0.00041 1.15597,0.00096 1.17151,0.00499c0.10507,0.02728 0.20956,0.0557 0.31353,0.08521l0.0106,-0.0405l5.7265,1.06816c1.35676,0.22832 2.37923,1.23922 2.37923,2.45172c0,1.36875 -1.30297,2.48058 -2.91894,2.49974l-1.8394,0.02544c0.09686,0.06479 0.19223,0.12999 0.28602,0.19562c0.01779,0.01245 0.03555,0.02494 0.05327,0.03745l0.00595,-0.00841l4.6681,2.35058c0.89103,0.43097 1.49133,1.24166 1.49133,2.17072c0,1.38071 -1.32586,2.5 -2.96138,2.5c-0.27039,0 -0.53231,-0.03059 -0.78118,-0.0879l-1.32677,-0.2794c0.07073,0.06698 0.13948,0.13514 0.2064,0.20439l0.04812,-0.03797l2.78914,2.51817c0.4981,0.44733 0.80326,1.04955 0.80326,1.71194c0,1.38071 -1.32586,2.5 -2.96138,2.5c-0.33396,0 -0.65499,-0.04667 -0.95448,-0.1327l-5.48928,-1.45764c-0.14653,-0.03472 -0.29295,-0.06981 -0.43928,-0.10521c0.54526,0.32587 1.06716,0.6652 1.56014,1.02009l5.04323,2.5323c0.89288,0.43055 1.4947,1.24211 1.4947,2.17234c0,1.38071 -1.32586,2.5 -2.96138,2.5c-0.28345,0 -0.55759,-0.03362 -0.81715,-0.09639l-2.92928,-0.64933c0.18685,0.09233 0.37197,0.18603 0.55525,0.28117l5.44582,1.50662c1.21737,0.31042 2.10384,1.26461 2.10384,2.39358c0,0.94352 -0.61914,1.76496 -1.53317,2.19056c0.60285,0.45764 0.98197,1.1212 0.98197,1.85951c0,1.38071 -1.32586,2.5 -2.96138,2.5c-0.24608,0 -0.48516,-0.02534 -0.71376,-0.0731l-2.21302,-0.42108c-0.7971,0.43383 -1.69757,0.45011 -1.69757,0.45011c-9.12414,0.15347 -15.8502,-1.34109 -24.13349,-4.49463l-0.05092,-0.04138l-0.0097,0.01613l-4.5702,-1.95846c-0.99263,-0.40373 -1.67762,-1.2611 -1.67762,-2.25352c0,-1.38071 1.32586,-2.5 2.96138,-2.5c0.17687,0 0.35012,0.01309 0.51846,0.03818l3.26437,0.43797l-0.00469,0.02494c0.05451,-0.00042 0.10907,-0.00037 0.16369,0.00016c0.02085,0.0002 0.04166,0.0005 0.06247,0.00089l-0.78632,-0.297c-1.06547,-0.37854 -1.81355,-1.26816 -1.81355,-2.30527c0,-1.23221 1.05601,-2.25622 2.4457,-2.46223c-0.00056,-0.02008 -0.00085,-0.04022 -0.00085,-0.06042c0,-1.38071 1.32586,-2.5 2.96138,-2.5c0.05238,0 0.10445,0.00114 0.15616,0.00341l3.82105,0.14757l-0.00124,0.02284c0.05345,-0.00473 0.10698,-0.00908 0.16059,-0.01304c0.6679,-0.04927 1.36501,-0.05703 2.08359,-0.03159c-1.29306,-0.53752 -2.58695,-1.07373 -3.87236,-1.62348l-0.01234,-0.00983l-0.00216,0.0035l-5.04231,-2.21578c-0.97739,-0.4084 -1.64943,-1.2589 -1.64943,-2.24191c0,-0.89919 0.56233,-1.6875 1.40631,-2.12798c0.0882,-0.94602 0.80018,-1.74398 1.78886,-2.10086l-0.02405,-0.00943c-1.04442,-0.38631 -1.77406,-1.2667 -1.77406,-2.29095c0,-1.04154 0.75447,-1.93431 1.8272,-2.31009c-1.03355,-0.27117 -1.83002,-0.55454 -2.19303,-0.83916c-4.8836,-3.82892 -3.24129,-6.91641 1.06678,-9.36211c1.23062,-0.69862 2.66292,-1.29552 4.20316,-1.81467c0.57605,-0.92461 1.71041,-1.97012 3.59537,-3.19841c1.17643,-0.76659 2.72107,-0.779 4.29143,-0.74541c1.32593,-0.40286 2.72152,-0.7275 4.13544,-1.00692c1.87474,-1.14544 3.53837,-2.15358 3.73995,-2.2478c4.511,-2.10833 10.65548,-2.70978 15.63654,-3.34636c8.064,-1.03059 16.40804,-0.90731 24.55981,-0.11633c7.9078,-0.83385 15.73777,-1.26537 23.768,0.26987l3.10991,0.60485c1.34442,0.23638 2.35449,1.24234 2.35449,2.44746c0,1.20489 -1.00969,2.2107 -2.35374,2.44732l-5.71323,1.11255l-0.01222,-0.04473c-0.14343,0.03622 -0.28783,0.07021 -0.43332,0.10179c-2.05714,0.44654 -4.23732,-0.25564 -6.35542,-0.38993c-0.19633,-0.01245 -0.39247,-0.02581 -0.58843,-0.04003c0.2269,0.09178 0.45374,0.18371 0.68058,0.27567l0.135,0.13759l0.0378,-0.04839l4.90526,2.7309c0.82386,0.44395 1.37017,1.22252 1.37017,2.10881c0,1.38071 -1.32586,2.5 -2.96138,2.5c-0.49183,0 -0.95564,-0.10121 -1.36382,-0.28032l-5.25793,-2.189c-0.08552,-0.01991 -0.17034,-0.04138 -0.25449,-0.06426c0.91603,0.84124 1.6817,1.80421 2.24953,2.90938c0.72135,1.40396 0.35969,3.04559 0.53953,4.56839l-0.45319,1.91188c0,0 -0.80865,2.40499 -3.65749,1.72233z" fill="#e0e0e0" stroke="none" stroke-width="0.5" stroke-linecap="butt"></path><path d="M240.03332,160.23118c-0.17461,0.98908 -1.34623,0.84167 -1.34623,0.84167l-0.51304,-0.07471c-0.95058,-0.23933 -2.03844,-0.40794 -3.12613,-0.60056c3.24364,1.47073 6.12874,2.95048 8.57112,5.25151l0.20808,-0.18133l1.70049,1.39059c0.22292,0.18184 0.36154,0.43686 0.36154,0.71921c0,0.55229 -0.53034,1 -1.18455,1c-0.08714,0 -0.17208,-0.00795 -0.25386,-0.02302l-2.30014,-0.38431c-3.87981,-0.64848 -7.6965,-1.52039 -11.56471,-2.21081c-0.07546,-0.01347 -0.15028,-0.02623 -0.2245,-0.03839c5.69948,2.55373 11.94327,4.50505 17.0599,7.73441l0.11633,-0.18222l2.06407,0.93917c0.38236,0.16585 0.64393,0.50215 0.64393,0.89002c0,0.55229 -0.53034,1 -1.18455,1c-0.0761,0 -0.15051,-0.00606 -0.22261,-0.01763l-2.31265,-0.3349l0.00031,-0.00155l-0.0068,0.00059c-0.03446,-0.00532 -0.06892,-0.01064 -0.10338,-0.01595c0.15244,0.12205 0.3032,0.2454 0.45218,0.37008l0.16057,-0.16621l1.82818,1.25865c0.27052,0.18328 0.4437,0.46473 0.4437,0.78033c0,0.55229 -0.53034,1 -1.18455,1c-0.03566,0 -0.07097,-0.00133 -0.10583,-0.00393l-2.34868,-0.15557l0.00211,-0.02277l-0.10099,0.01267c-1.28117,-0.27022 -2.60809,-0.54352 -3.95991,-0.83107c4.88587,1.741 10.05174,3.45368 14.45828,5.77729l0.08031,-0.1684l2.17208,0.73829c0.44855,0.14238 0.76772,0.50788 0.76772,0.93632c0,0.55229 -0.53035,1 -1.18455,1c-0.0565,0 -0.11209,-0.00334 -0.16649,-0.0098l-1.37844,-0.14642l0.00281,-0.01885l-0.05659,0.01208c-3.7289,-0.692 -7.30378,-1.6005 -10.80937,-2.63556c0.29897,0.33452 0.56341,0.68632 0.78548,1.05815c0.52063,0.87179 1.85539,1.85582 1.30424,2.71414c-0.21304,0.33177 -0.74927,0.49991 -1.45358,0.56322l1.08676,0.64241c0.31309,0.17997 0.51868,0.48329 0.51868,0.82716c0,0.08936 -0.01388,0.17599 -0.03993,0.25843c0.97547,0.23982 1.9421,0.50104 2.89814,0.80439c0.16331,0.01887 0.32671,0.0378 0.49023,0.05682l0.03693,-0.14456l2.29341,0.4176c0.54546,0.0895 0.95723,0.49496 0.95723,0.9816c0,0.55229 -0.53034,1 -1.18455,1c-0.06182,0 -0.12253,-0.004 -0.18181,-0.0117l-2.09584,-0.24434c-2.21831,-0.2587 -4.41728,-0.50879 -6.59768,-0.79c0.27706,0.18304 0.45513,0.46795 0.45513,0.78798c0,0.04014 -0.0028,0.07973 -0.00826,0.11863c3.9003,1.05727 7.9009,1.81332 11.60809,3.19487l0.07354,-0.22734l2.26058,0.52117c0.51542,0.10837 0.89732,0.50174 0.89732,0.9704c0,0.55229 -0.53035,1 -1.18455,1c-0.02262,0 -0.0451,-0.00054 -0.06741,-0.00159l-2.32293,-0.09695c-0.77034,0.01839 -1.54068,0.03679 -2.31102,0.05518c-11.56119,0.27109 -22.82055,-0.77526 -34.04915,-3.02658c-0.34497,-0.06916 -0.71491,-0.13188 -1.10237,-0.19205c6.98161,2.49775 14.3574,3.81434 22.18898,4.40496c3.71746,0.28035 7.29377,-0.17626 10.77582,0.30719c0.35466,-0.00421 0.70932,-0.00749 1.06399,-0.00985l0.01767,-0.14828l1.7332,0.1473c0.60477,0.04508 1.07901,0.47383 1.07901,0.99608c0,0.55153 -0.52889,0.99877 -1.18188,0.99999l-1.27591,0.0028c-1.56747,0.00752 -3.13498,0.03352 -4.70159,0.07796c-13.42539,0.37702 -28.87581,3.30941 -40.65673,-3.98599c0,0 -0.95303,-0.59388 -0.24955,-1.39844c0.70348,-0.80455 1.65651,-0.21068 1.65651,-0.21068c6.90747,4.33455 15.41146,4.81765 23.90657,4.47163c-8.23357,-1.16663 -16.17346,-3.62375 -23.27738,-7.27785l-0.01122,-0.0118l-0.00312,0.00406l-1.59802,-0.87601c-0.33375,-0.17687 -0.5556,-0.49034 -0.5556,-0.84755c0,-0.55229 0.53034,-1 1.18455,-1c0.13645,0 0.26751,0.01947 0.38949,0.05532l2.2287,0.60602l-0.07098,0.18603c5.90934,0.73106 11.64021,2.66586 17.56044,3.47028c6.82772,0.92773 13.86981,1.31907 20.8205,1.3079c-1.03486,-0.33693 -2.01842,-0.67284 -2.87824,-0.89992c-3.61706,-0.95527 -7.12123,-2.08614 -10.56874,-3.32127c-3.72346,-0.83192 -7.44809,-1.66007 -11.17253,-2.48895c-4.58197,-1.02502 -8.65354,-2.4298 -11.6886,-5.61267c-0.69651,-0.73042 -2.12397,-1.36315 -1.93901,-2.28775c0.1912,-0.95573 1.74724,-1.27786 2.7475,-1.7537c2.56391,-1.21968 5.60287,-1.48988 8.23917,-2.67236c-1.40899,-0.7072 -2.82036,-1.40939 -4.2294,-2.11129l-0.0522,-0.06132l-0.01693,0.01776l-1.83757,-1.24801c-0.27433,-0.18315 -0.45036,-0.46663 -0.45036,-0.78481c0,-0.55229 0.53034,-1 1.18455,-1c0.16344,0 0.31915,0.02795 0.46079,0.07848l2.17794,0.72731l-0.09665,0.20628c2.18114,0.43655 4.33324,1.07344 6.455,1.79946c-0.35869,-0.46732 -0.84045,-1.02412 -0.9491,-1.15593c-0.26231,-0.31822 -0.52135,-0.6323 -0.77665,-0.9439c-0.51085,-0.27277 -1.00907,-0.55754 -1.49292,-0.85522c-0.39972,-0.19586 -0.80245,-0.38753 -1.20903,-0.57389l-0.06857,0.09585l-2.00954,-1.02455c-0.35314,-0.1731 -0.59059,-0.49584 -0.59059,-0.8654c0,-0.55229 0.53034,-1 1.18455,-1c0.20768,0 0.40287,0.04512 0.57258,0.12437l0.72399,0.32225c-0.06856,-0.10046 -0.13657,-0.20135 -0.204,-0.30271l-0.16365,0.09803l-1.36293,-1.6214c-0.14254,-0.1651 -0.22664,-0.36844 -0.22664,-0.58837c0,-0.55229 0.53034,-1 1.18455,-1c0.09326,0 0.18401,0.0091 0.27106,0.0263l1.55951,0.28009l-0.00358,0.01416l0.06012,-0.00278c2.29573,0.6152 4.68659,1.27997 7.07992,2.03103c-1.51549,-0.68636 -3.00326,-1.40932 -4.43817,-2.20054l-1.49421,-0.82531c-0.33169,-0.17722 -0.55193,-0.4897 -0.55193,-0.8456c0,-0.55229 0.53034,-1 1.18455,-1c0.08192,0 0.16192,0.00702 0.23916,0.02039l2.30619,0.36099l-0.0491,0.22352c4.88648,0.24484 9.65238,1.51037 14.47602,2.40588c-0.46333,-0.3868 -0.92623,-0.81443 -1.60648,-1.20424c-2.89677,-1.65994 -6.33253,-2.86789 -9.40726,-4.28955l-0.07772,-0.0965l-0.02777,0.0266l-1.39226,-1.03519c-0.24904,-0.18332 -0.40642,-0.45314 -0.40642,-0.75399c0,-0.55229 0.53034,-1 1.18455,-1c0.0352,0 0.07004,0.00129 0.10447,0.00384l2.34902,0.15354l-0.02021,0.22035c2.30813,0.01939 4.28915,0.42491 6.98626,1.10397l0.18518,0.01314c0,0 1.17162,0.14741 0.997,1.13648zM235.4257,172.44171c-3.92079,-1.6095 -7.87047,-3.07976 -12.02856,-4.28211c1.07429,0.86037 2.14684,2.02316 2.98208,3.13932c0.50939,0.2503 1.02183,0.49744 1.54322,0.70875c1.18223,-0.29211 2.71811,-0.00115 3.64929,0.07383c1.29018,0.10389 2.57414,0.22487 3.85398,0.36021zM237.71437,181.16658c-2.52476,-0.85928 -5.04631,-1.75039 -7.5979,-2.63807c4.37912,2.16216 8.72862,4.4896 12.49876,7.1512c0.60768,0.054 1.22075,0.08702 1.80574,0.22978c0.40583,0.09903 1.39707,0.78975 1.09183,0.54322c-2.42652,-1.95977 -5.01906,-3.63305 -7.79842,-5.28613zM236.7583,184.91621c-0.20322,-0.12998 -0.4019,-0.25319 -0.59552,-0.36767c-3.66989,-2.16968 -7.4751,-4.18468 -11.3192,-6.14125c-1.28774,0.59796 -2.53732,1.10993 -3.05288,1.30818c-1.45955,0.56125 -3.14814,1.03233 -4.785,1.44176l1.39358,0.26415l-0.05852,0.21999c5.89981,0.32157 11.94731,2.04062 17.62537,3.13134c0.26374,0.05067 0.5278,0.09834 0.79216,0.14351zM213.67468,181.85285c-0.02259,0.34803 0.62103,0.35822 1.06522,0.50156c-0.06194,-0.1213 -0.09624,-0.25501 -0.09624,-0.39549c0,-0.10589 0.0195,-0.20793 0.05561,-0.30371c-0.45413,-0.00868 -1.00473,-0.10854 -1.0246,0.19764zM216.61965,183.92403c1.77387,1.60182 4.39024,2.4917 6.96539,3.13833c-0.61822,-0.20113 -1.20642,-0.42822 -1.69179,-0.69484c-0.23268,-0.09497 -0.46546,-0.18996 -0.69837,-0.28495l-2.10963,-0.86047c-0.24557,-0.09473 -0.44613,-0.25822 -0.56712,-0.4613l-1.12194,-0.47668c-0.39088,-0.15753 -0.66343,-0.49062 -0.6745,-0.8784l-1.10396,-0.42798c0.34181,0.30849 0.66035,0.63788 1.00191,0.9463zM236.20958,174.56434c2.42015,0.6948 4.85221,1.34479 7.33657,1.92894c-0.65967,-0.40526 -1.30541,-0.85251 -1.96821,-1.26408c-1.78518,-0.2428 -3.57093,-0.4655 -5.36836,-0.66486z" fill="#919191" stroke="none" stroke-width="0.5" stroke-linecap="butt"></path><path d="M261.78266,190.11952c1.05724,-0.42899 2.12874,-0.85879 3.214,-1.25625c0.35623,-0.22898 0.70917,-0.4618 1.0595,-0.69762c-1.39951,0.34134 -2.86085,0.64899 -4.37309,1.02647c0.04656,0.07115 0.07774,0.15447 0.09122,0.2518c0.0314,0.22676 0.03284,0.45214 0.00837,0.6756zM285.06149,170.73046l-0.42501,0.12747c-0.72306,0.38972 -1.4654,0.76315 -2.2238,1.12234c0.55488,0.13294 1.04944,0.38692 1.44114,0.72599c0.39764,-0.66051 0.80874,-1.31578 1.20766,-1.97579zM291.2495,172.58491c-0.99237,1.68105 -2.32341,5.0807 -4.22563,7.64764l-0.97331,3.21309c0.83485,0.43877 1.53222,0.97171 1.90718,1.72549c0.66128,1.32938 0.77413,2.69097 0.47242,4.03095c0.63053,0.16464 1.1936,0.43585 1.64927,0.85537c4.54256,4.18217 -6.25265,8.63326 -7.60039,9.27645c-5.04952,2.40982 -11.01967,3.53664 -16.62488,4.48788c-2.31978,0.39368 -4.62807,1.46432 -6.96561,1.15442c-0.19268,-0.02554 -0.38393,-0.05537 -0.57386,-0.08912l-0.01046,0.05513l-6.143,-0.83061c-1.57942,-0.19004 -2.79376,-1.33648 -2.79376,-2.72235c0,-1.2198 0.94074,-2.25409 2.24314,-2.61405l2.48907,-0.74289c-0.70521,-0.28422 -1.27035,-0.77623 -1.58428,-1.38219c-0.96429,-0.64869 -1.68868,-1.56592 -2.01752,-2.8431c-0.2745,-1.06608 0.92283,-1.87522 2.21163,-2.56441c-0.81154,-0.50015 -1.33881,-1.30939 -1.33881,-2.22259c0,-1.09516 0.75832,-2.0408 1.85586,-2.48311l5.13093,-2.17998c-0.00103,-0.02836 -0.00154,-0.05683 -0.00154,-0.0854c0,-1.25502 0.99587,-2.31369 2.35688,-2.64355l0.61714,-0.16275c-0.11655,-0.28298 -0.17989,-0.587 -0.17989,-0.9035c0,-0.00396 0.00001,-0.00793 0.00002,-0.01189l-6.05154,0.92729c-0.20848,0.03535 -0.42414,0.05389 -0.64495,0.05389c-1.79909,0 -3.25752,-1.23121 -3.25752,-2.75c0,-0.45655 0.13178,-0.88711 0.365,-1.26606c-1.67132,-0.11708 -2.98449,-1.29932 -2.98449,-2.74048c0,-1.16521 0.85842,-2.16116 2.07053,-2.56173l4.93885,-1.74326c-1.29581,0.38224 -2.59385,0.75363 -3.95082,0.83419l-2.59701,0.82756c-0.37695,0.12868 -0.78892,0.19953 -1.22052,0.19953c-1.79909,0 -3.25752,-1.23121 -3.25752,-2.75c0,-1.14574 0.82998,-2.12783 2.01007,-2.54115l2.71423,-1.01157c-0.77058,0.0215 -1.56238,0.0395 -2.38857,0.06823c0,0 -3.25508,0.10637 -3.38109,-2.64157c-0.12601,-2.74794 3.12908,-2.85431 3.12908,-2.85431c1.37677,-0.04172 2.75117,-0.04436 4.11433,-0.1206c-1.08483,-0.4463 -1.8323,-1.38622 -1.8323,-2.47352c0,-1.20917 0.92444,-2.23607 2.2092,-2.6045l3.77056,-1.16508l0.02289,0.05277l0.15296,-0.10236c3.16535,-0.64782 6.95735,-1.86371 10.40012,-1.79094c-0.06947,-0.03141 -0.13838,-0.06392 -0.20668,-0.09762c-0.04356,-0.02149 -0.08689,-0.04321 -0.13003,-0.06518l-0.01012,0.02168l-3.86963,-1.28666c-0.17208,-0.02572 -0.34334,-0.05353 -0.51371,-0.08357l-6.50921,-0.07091c-1.78215,-0.01663 -3.22078,-1.24141 -3.22078,-2.74983c0,-1.47694 1.37919,-2.68194 3.10963,-2.74721l3.2294,-0.14069c6.81526,-0.46842 14.26111,-1.08039 20.8833,0.66534c4.46642,1.17743 10.20599,1.42672 10.60212,6.36907c0.9899,1.13772 1.68255,2.39302 1.50444,3.70077c-0.32824,2.40995 -3.63971,3.75834 -5.58725,5.54201c-1.51864,1.39085 -3.15187,2.65895 -4.87256,3.83011c1.77076,-0.26032 3.54335,-0.51502 5.31822,-0.76755l3.51644,-0.71144c0.26479,-0.05867 0.54274,-0.08992 0.82933,-0.08992c1.79908,0 3.25752,1.23121 3.25752,2.75c0,1.07276 -0.72761,2.00205 -1.78895,2.45535zM281.95754,153.94188c-0.93471,-0.48123 -1.88606,-0.95878 -2.87753,-1.35397c0.27787,1.29851 -0.06462,2.65594 -0.69809,3.93768c0.45704,-0.20477 0.90108,-0.42513 1.29799,-0.70284c0.8088,-0.56591 1.707,-1.14282 2.27763,-1.88087z" fill="#d8d8d8" stroke="none" stroke-width="0.5" stroke-linecap="butt"></path><path d="M234.81331,152.6637c-3.04829,0.39041 -6.08151,0.82079 -9.07044,1.38c-1.74031,0.32559 -3.96614,1.01424 -6.10176,1.35966c2.51201,0.48709 5.03251,0.98629 7.56129,1.31743c0.62445,0.08177 1.24812,0.14997 1.87066,0.20867c-0.04359,-0.17941 -0.06649,-0.36518 -0.06649,-0.55547c0,-1.35064 1.1534,-2.47386 2.67405,-2.70601l4.30638,-0.73185l0.00683,0.02868c0.07427,-0.02089 0.14887,-0.04112 0.22383,-0.06066c0.18358,-0.04784 0.36856,-0.08908 0.55477,-0.12456c-0.65499,-0.02878 -1.30826,-0.0667 -1.95912,-0.1159zM256.96921,178.18975c0.11072,0.10543 0.12111,0.45128 0.07197,0.90993c1.37204,0.53365 2.47403,1.20506 3.04655,2.06144c1.19614,1.78915 0.61923,4.24064 -0.48269,6.19825c0.74504,0.28904 1.49397,0.59814 2.164,0.95314l4.06964,0.48871c1.60481,0.17077 2.84603,1.32715 2.84603,2.72826c0,1.19946 -0.90963,2.21955 -2.1783,2.59549l-0.69229,0.22061c0.4934,0.482 0.79185,1.11019 0.79185,1.79722c0,1.20279 -0.9147,2.22523 -2.1889,2.59861l-3.815,1.203l-0.01008,-0.0228l-0.0584,0.04366c-5.54154,1.50168 -10.03703,2.18196 -15.21782,2.20798l-5.49599,0.2747c-0.0731,0.00414 -0.14686,0.00624 -0.2212,0.00624c-1.79909,0 -3.25752,-1.23121 -3.25752,-2.75c0,-0.09915 0.00622,-0.19709 0.01834,-0.29353c-1.82634,-0.04572 -3.63727,-0.16691 -5.39348,-0.4006v0.21022h-2.36911c-0.01844,0 -0.03678,-0.00036 -0.05502,-0.00106c-3.60076,0.44607 -7.16902,0.83956 -10.56912,1.32157l-0.01442,-0.00366l0.00091,0.00537l-1.22238,0.14897c-0.06172,0.00838 -0.12503,0.01273 -0.18955,0.01273c-0.65422,0 -1.18455,-0.44771 -1.18455,-1c0,-0.48549 0.40983,-0.89017 0.95335,-0.98096l2.29145,-0.42438l0.03162,0.12167c0.29661,-0.04087 0.59352,-0.08131 0.89069,-0.12142c2.48458,-0.72624 5.06354,-1.16072 7.68879,-1.61338c0.18167,-0.26811 0.50614,-0.4584 0.88592,-0.49698l2.33086,-0.26764l0.02895,0.17963c0.02497,-0.00474 0.04994,-0.00947 0.07491,-0.01421c4.14578,-1.19667 8.61364,-1.87435 12.91946,-2.84855c-1.57275,-0.28234 -3.16588,-0.50152 -4.76088,-0.71076c-1.0172,0.11825 -2.01633,0.28342 -2.98597,0.51412l-2.2565,0.52895c-0.10862,0.02771 -0.22383,0.04261 -0.34317,0.04261c-0.49334,0 -0.91624,-0.2546 -1.0944,-0.61666c-1.64269,0.25799 -3.28273,0.54271 -4.92022,0.8581c-3.72412,0.7173 -8.33787,2.59409 -11.61325,0.71235c0,0 -0.9454,-0.60251 -0.23171,-1.40062c0.71371,-0.79811 1.65911,-0.19561 1.65911,-0.19561c1.85617,1.41591 7.22768,-0.59775 9.65886,-1.06602c1.02393,-0.19721 2.04886,-0.38266 3.07483,-0.55725l-2.00886,-0.12224c-0.61911,-0.0328 -1.10923,-0.46708 -1.10923,-0.99801c0,-0.55229 0.53034,-1 1.18455,-1c0.03162,0 0.06296,0.00104 0.09396,0.0031l2.3515,0.13781c0.33554,0.01976 0.67152,0.03815 1.00794,0.05521c0.41683,-0.02937 0.83991,-0.00066 1.28532,0.05872c1.52238,0.06202 3.05204,0.09799 4.58484,0.11153c3.10058,-1.72209 6.53077,-3.14941 9.83759,-4.60701l-0.44607,0.07842l-0.05737,-0.23254c-3.39352,1.01769 -6.97125,1.53158 -10.50845,2.3046l0.01001,0.0336l-2.06976,0.43968c-0.10026,0.02328 -0.20585,0.03571 -0.31488,0.03571c-0.65422,0 -1.18455,-0.44771 -1.18455,-1c0,-0.46781 0.3805,-0.86059 0.8945,-0.9698l1.14833,-0.26739c0.45533,-0.10602 0.95841,-0.23853 1.49624,-0.38542c0.30076,-0.20011 0.63177,-0.36516 0.98512,-0.51379c-0.74223,-0.0956 -1.40166,-0.24362 -1.92806,-0.46573c-0.08443,-0.03563 -0.16645,-0.0742 -0.24632,-0.11536l-0.01424,0.02067l-1.82268,-0.89441c-0.36315,-0.17084 -0.60878,-0.49827 -0.60878,-0.87412c0,-0.54119 0.50924,-0.98197 1.14527,-0.99946l2.33413,-0.07443c0.12016,-0.0103 0.24452,-0.02227 0.37279,-0.03571c-0.49564,-0.06452 -0.98905,-0.13764 -1.47977,-0.22081l-0.01513,0.2283l-2.35758,-0.11129c-0.62713,-0.02567 -1.12624,-0.46303 -1.12624,-0.99881c0,-0.48189 0.40375,-0.88416 0.94126,-0.97889l1.42431,-0.27763c1.31349,-0.25579 2.62717,-0.47438 3.94554,-0.67722c0.33087,-0.81196 1.09941,-1.45201 2.06772,-1.71935l6.07173,-1.81032l0.1265,0.30237c0.2152,-0.08523 0.4301,-0.16702 0.64565,-0.24559c-0.36737,-0.08639 -0.65782,-0.15494 -0.84344,-0.19751l-6.08994,-0.71874c-1.0448,-0.1092 -1.93625,-0.63607 -2.43265,-1.37656c-0.94258,0.09923 -1.87535,0.20621 -2.75797,0.26504c-0.5704,0.03709 -1.14078,0.07419 -1.71118,0.11129l-2.17987,0.42745c-0.09379,0.02017 -0.19206,0.03089 -0.2933,0.03089c-0.65422,0 -1.18455,-0.44771 -1.18455,-1c0,-0.43616 0.33077,-0.80711 0.79211,-0.94382l2.19058,-0.69804l0.10796,0.24146l0.02899,-0.00568c1.26155,-0.58434 2.53352,-1.06513 3.90298,-1.6072c-0.65291,-0.50291 -1.06257,-1.22708 -1.06257,-2.03201c0,-0.24923 0.03927,-0.49071 0.11288,-0.72029c-2.58018,0.27158 -5.17522,0.43565 -7.68596,0.28782c-0.35062,0.03228 -0.69903,0.06187 -1.04476,0.08779l-0.00694,-0.00485l0.00049,0.00529l-0.06885,0.00452v0.15259h-2.36911v0c-0.65422,0 -1.18455,-0.44771 -1.18455,-1c0,-0.52919 0.48692,-0.96238 1.10319,-0.99767l2.3307,-0.1531c2.06086,-0.15462 4.37328,-0.50616 6.6774,-0.71851c-0.5233,-0.42197 -0.88034,-0.98963 -0.97972,-1.62587c-0.24157,-0.04146 -0.47784,-0.07574 -0.70802,-0.10136c-6.67435,-0.74304 -13.56803,-0.1032 -20.29215,-0.78341l-2.33719,-0.23643c-0.59504,-0.05305 -1.05871,-0.47802 -1.05871,-0.99442c0,-0.52334 0.4762,-0.95277 1.08274,-0.99636l2.34528,-0.19232l0.02959,0.25714c3.87441,-0.75421 7.73108,-0.6548 11.90527,-0.66367c1.93261,-0.00411 3.8652,-0.00787 5.7978,-0.01119c-4.17426,-0.50823 -8.29861,-1.15151 -12.50695,-1.90306l-0.03804,-0.01862l-0.00316,0.0093l-2.2516,-0.54663c-0.50785,-0.11277 -0.8824,-0.50304 -0.8824,-0.96717c0,-0.4849 0.40882,-0.8892 0.95137,-0.98063l2.29044,-0.42783l0.03937,0.15023c3.26857,-1.07314 6.76629,-1.82018 10.36009,-2.39667c-0.119,-0.15592 -0.18804,-0.34158 -0.18804,-0.54085c0,-0.48146 0.40303,-0.88344 0.93981,-0.97863l2.24692,-0.44061l0.003,0.01091l0.04022,-0.01868c5.30521,-0.69585 11.01452,-2.14564 16.38493,-1.98788l0.78255,-0.37566l0.07088,0.10524l0.26166,-0.24435c2.45841,-0.59512 4.82959,-1.99279 7.37525,-1.78536c0.26301,0.02143 0.52262,0.05409 0.77928,0.09653l0.01079,-0.04525l5.17955,0.88025c1.52065,0.23215 2.67403,1.35537 2.67403,2.70601c0,0.95386 -0.57527,1.7943 -1.44889,2.28754l-0.48991,0.28482l1.0943,-0.06858c0.0909,-0.00643 0.18286,-0.00971 0.27573,-0.00971c1.79908,0 3.25752,1.23121 3.25752,2.75c0,1.29469 -1.05981,2.38041 -2.487,2.67261l-3.66883,0.82476l-0.00589,-0.01863c-0.0343,0.01399 -0.06872,0.02782 -0.10327,0.04147c-1.01746,0.4022 -2.14992,0.71788 -3.35365,0.97214c0.46363,0.673 0.77357,1.38411 0.79443,2.16689c0.05938,2.22852 -0.76966,3.16549 -1.94089,3.61686c1.24805,0.38523 2.13885,1.39657 2.13885,2.58355c0,0.80698 -0.41174,1.53278 -1.06755,2.03584c0.15464,0.35616 0.26546,0.72271 0.34225,1.09634c0.3687,0.05991 0.58209,0.09671 0.58616,0.10181c0.19799,0.24688 0.38002,0.48443 0.5469,0.71313l5.40321,1.08032c1.46959,0.26599 2.57136,1.36882 2.57136,2.68888c0,1.39514 -1.23064,2.54763 -2.8255,2.72603l-5.16663,0.65112l-0.00399,-0.0226l-0.07945,0.03218c-0.11404,0.00896 -0.22709,0.01834 -0.3392,0.02811c0.00014,0.00014 0.0003,0.00028 0.00044,0.00041zM242.1492,189.56023c0.68085,-0.01415 1.36141,-0.03193 2.0413,-0.05303c0.52008,-0.04673 1.04045,-0.09181 1.56112,-0.13539c0.57162,-0.72737 1.64746,-1.10392 2.81399,-1.4223c-0.05257,-0.4455 -0.06991,-0.90276 -0.07325,-1.36419c-2.10846,1.00077 -4.22427,1.98962 -6.34318,2.97492z" fill="#b5b5b5" stroke="none" stroke-width="0.5" stroke-linecap="butt"></path><path d="" data-paper-data="{&quot;index&quot;:null}" fill="none" stroke="#000000" stroke-width="1.5" stroke-linecap="round"></path><path d="" data-paper-data="{&quot;index&quot;:null}" fill="none" stroke="#000000" stroke-width="1.5" stroke-linecap="round"></path><path d="M286.56795,188.48112c-0.49231,-0.4287 0.92029,-1.23528 0.67263,-1.83929c-0.17064,-0.41617 -0.66564,0.75489 -1.11542,0.7594c-0.04134,0.00041 -0.08242,-0.00076 -0.12327,-0.00338l-0.00021,0.00765l-1.0237,-0.02784c-0.54127,-0.01266 -0.97616,-0.4554 -0.97616,-0.99972c0,-0.20215 0.05998,-0.3903 0.16312,-0.5476l-1.08841,0.18838c-0.06135,0.01177 -0.1247,0.01793 -0.18949,0.01793c-0.45186,0 -0.83372,-0.2997 -0.95765,-0.71117c-0.07767,0.04853 -0.15535,0.09723 -0.23303,0.14611c0,0 -0.84644,0.53249 -1.37893,-0.31395c-0.1119,-0.17787 -0.1629,-0.34188 -0.17367,-0.49l-0.79328,0.49905c-0.15686,0.10226 -0.34419,0.16169 -0.5454,0.16169c-0.55228,0 -1,-0.44772 -1,-1c0,-0.25162 0.09293,-0.48153 0.24634,-0.65729l1.30299,-1.51025l0.11399,0.09835c0.04465,-0.06175 0.09618,-0.1182 0.15346,-0.16823c1.33833,-2.0879 3.00048,-3.883 5.13136,-5.35765l1.52602,-1.04731l0.02415,-0.0281c0.18343,-0.21603 0.45701,-0.35311 0.76261,-0.35311c0.46627,0 0.85801,0.31912 0.96872,0.75087c0.20065,-0.13675 0.40326,-0.27073 0.60748,-0.40234l-0.04163,-0.04481l1.46321,-1.35952c0.17871,-0.16701 0.41874,-0.26924 0.68264,-0.26924c0.55228,0 1,0.44772 1,1c0,0.07804 -0.00894,0.15398 -0.02585,0.22688l-0.20278,0.96222c-0.08709,0.41325 -0.19567,0.83742 -0.34287,1.24503c0.13601,-0.09335 0.27352,-0.1847 0.41233,-0.27421l-0.0911,-0.12068l1.58832,-1.19908c0.16888,-0.13033 0.38059,-0.20785 0.61041,-0.20785c0.55228,0 1,0.44772 1,1v1.25398c0.02252,0.05962 0.06188,0.10923 0.11409,0.15025l0.28033,-0.10581c0.11572,-0.04679 0.24219,-0.07256 0.37467,-0.07256c0.55228,0 1,0.44772 1,1c0,0.15281 -0.03428,0.29762 -0.09556,0.42715l-0.18368,0.41181c0.08386,0.14631 0.1318,0.31583 0.1318,0.49656c0,0.19117 -0.05365,0.36982 -0.1467,0.5217l-0.80557,1.36905c-0.6027,1.37885 -1.80087,3.25021 -3.23695,4.73812c0.00016,0.00743 0.00024,0.01487 0.00024,0.02233c0,0.31686 -0.14737,0.5993 -0.37731,0.78252l-1.54722,1.25346l-0.11489,-0.14181c-0.47269,0.52784 -0.97875,1.02264 -1.52817,1.46514l-0.11741,0.01022l0.02185,0.04399l-0.94061,0.46727c-0.13843,0.07244 -0.29594,0.11342 -0.46301,0.11342c-0.55228,0 -1,-0.44772 -1,-1c0,-0.29184 0.12501,-0.55447 0.32441,-0.73728l0.45454,-0.41939c-0.09597,-0.04755 -0.1869,-0.1071 -0.27181,-0.18104z" fill="#0033b3" stroke="none" stroke-width="0.5" stroke-linecap="butt"></path></g></g></svg>