<svg version="1.1" xmlns="http://www.w3.org/2000/svg" xmlns:xlink="http://www.w3.org/1999/xlink" width="54.84933" height="44.73223" viewBox="0,0,54.84933,44.73223"><g transform="translate(-212.57535,-157.63389)"><g data-paper-data="{&quot;isPaintingLayer&quot;:true}" fill-rule="nonzero" stroke="none" stroke-width="0.5" stroke-linecap="butt" stroke-linejoin="miter" stroke-miterlimit="10" stroke-dasharray="" stroke-dashoffset="0" style="mix-blend-mode: normal"><path d="M236.64311,184.37394c0.02413,-0.35704 0.04362,-0.71694 0.06132,-1.07835c-0.16738,0.12619 -0.37567,0.201 -0.60143,0.201c-0.55228,0 -1,-0.44772 -1,-1c0,-0.0148 0.00032,-0.02953 0.00096,-0.04417l0.04874,-1.27545l-0.20365,-0.02339c0.00094,-2.08658 0.00134,-3.69254 0.63552,-5.275l0.03187,-0.3288l-0.21151,-0.06595l0.34014,-1.09086c0.08231,-0.28729 0.28992,-0.52164 0.55991,-0.64014c0.14853,-0.3661 0.50762,-0.62428 0.92702,-0.62428c0.52019,0 0.94761,0.39719 0.99553,0.90484l0.01069,0.09952l0.09835,-0.189c0.16334,-0.3301 0.50357,-0.55709 0.89681,-0.55709c0.26022,0 0.49723,0.09939 0.67513,0.26229l0.28724,-0.30613c0.18252,-0.19551 0.44254,-0.31774 0.73111,-0.31774c0.49939,0 0.91329,0.36607 0.98798,0.84451l0.01553,0.08884c0.10807,-0.30148 0.22346,-0.5986 0.34671,-0.89084l-0.3344,-0.11628l0.64924,-1.86713c0.12942,-0.40234 0.50678,-0.69349 0.95215,-0.69349c0.55228,0 1,0.44772 1,1c0,0.01919 -0.00054,0.03825 -0.00161,0.05717l-0.05001,1.00691c0.00027,1.05652 -0.00454,2.11429 -0.00817,3.17256c0.37957,-1.10264 0.83638,-2.15863 1.39572,-3.14653l-0.30562,-0.15689l0.90366,-1.7603c0.16233,-0.3329 0.50406,-0.56226 0.89935,-0.56226c0.55228,0 1,0.44772 1,1c0,0.00936 -0.00012,0.0187 -0.00038,0.02801l-0.04812,1.99551c-0.00274,0.1133 -0.00547,0.2266 -0.0082,0.3399l0.13557,-0.19945c0.17886,-0.27121 0.48623,-0.45017 0.83541,-0.45017c0.0637,0 0.12602,0.00596 0.18642,0.01735l0.33615,-0.71429c0.12947,-0.29143 0.39418,-0.50947 0.71446,-0.57444c0.16657,-0.19522 0.40694,-0.32557 0.67793,-0.34787c0.15749,-0.23536 0.44226,-0.45825 0.94827,-0.38494c0.98967,0.14338 0.84628,1.13305 0.84628,1.13305c-0.14058,0.9639 -0.32071,1.92421 -0.52902,2.88134c0.03953,0.03531 0.07624,0.07371 0.10974,0.11483c0.00817,-0.05842 0.01627,-0.11684 0.0243,-0.17524l0.32393,-0.04154c0.31614,-0.70223 0.67496,-1.38432 1.08777,-2.04087l0.14937,0.63051l0.17109,-0.06748l-0.05554,-0.07357l0.81319,-0.61389c0.16888,-0.13033 0.38058,-0.20785 0.6104,-0.20785c0.55228,0 1,0.44772 1,1c0,0.06821 -0.00683,0.13482 -0.01984,0.19919l-0.35591,1.94797l-0.20451,-0.03737c-0.39918,3.99614 -1.7499,7.82179 -2.87097,11.73108l-0.53289,1.85822c-0.11253,0.42908 -0.50298,0.74561 -0.96736,0.74561c-0.23382,0 -0.4489,-0.08025 -0.61919,-0.21471l-0.26049,0.91391c-0.112,0.42985 -0.50282,0.74713 -0.96775,0.74713c-0.55228,0 -1,-0.44772 -1,-1c0,-0.00569 0.00005,-0.01137 0.00014,-0.01704l-0.65552,1.36087c-0.13618,0.29899 -0.41528,0.51913 -0.75001,0.57314c-0.03179,0.13741 -0.06333,0.27438 -0.09459,0.41089l-0.16578,0.77429c0,0 -0.20949,0.97781 -1.1873,0.76832c-0.49501,-0.10606 -0.68574,-0.40902 -0.7534,-0.68235c-0.15983,0.10833 -0.35269,0.17161 -0.56032,0.17161c-0.55228,0 -1,-0.44772 -1,-1c0,-0.01671 0.00041,-0.03333 0.00122,-0.04984l0.04879,-1.12948c-0.01043,0.05997 -0.02088,0.11994 -0.03136,0.1799l-0.19211,0.47926c0,0 -0.44488,0.89558 -1.34047,0.4507c-0.53075,-0.26365 -0.59072,-0.68559 -0.5515,-0.98561c-0.1564,0.10137 -0.34291,0.16023 -0.54316,0.16023c-0.53955,0 -0.97929,-0.4273 -0.99929,-0.96196l-0.04396,-1.01545c-0.422,-0.07265 -0.75354,-0.40976 -0.81784,-0.83455l-0.12495,-0.7362c-0.14038,0.38256 -0.50786,0.65551 -0.93908,0.65551c-0.55228,0 -1,-0.44772 -1,-1c0,-0.06667 0.00652,-0.13182 0.01897,-0.19484l0.07403,-0.41499c-0.3836,-0.13984 -0.6575,-0.50784 -0.6575,-0.93981v-1.75625h0.01128l-0.01071,-0.03387zM240.42789,178.70466c-0.00738,0.03763 -0.01436,0.07437 -0.02088,0.11016c0.00808,-0.01231 0.01619,-0.02461 0.02433,-0.0369c-0.00114,-0.02442 -0.00228,-0.04884 -0.00344,-0.07326zM246.56971,185.21456c0.00167,-0.01394 0.00334,-0.02787 0.00502,-0.04181c-0.00281,0.01853 -0.00562,0.03707 -0.00843,0.05561c0.00114,-0.0046 0.00227,-0.0092 0.00341,-0.0138z" data-paper-data="{&quot;index&quot;:null}" fill="#ff0000"></path><path d="M220.69107,201.94437c-0.59388,0.80455 -1.39843,0.21067 -1.39843,0.21067l-0.56477,-0.45147c-1.97002,-0.8749 -2.62133,-1.61595 -3.66638,-3.48216c-0.75598,-1.35 -1.6543,-2.82961 -2.12889,-4.30603c-1.9815,-6.16438 4.77322,-7.74974 8.13969,-10.77393c1.54644,-1.3892 2.51719,-3.02164 3.05744,-5.00694c1.91263,-6.90077 0.36389,-15.15933 8.22437,-18.65673c1.73083,-0.77011 3.71854,-1.19969 5.58644,-1.43412c2.42259,-0.30405 4.91646,-0.33166 7.3558,-0.40977c11.39395,1.71482 25.76559,9.72889 21.29048,23.28038c-5.28404,10.6896 -15.94454,17.26528 -27.64247,18.43778c-2.5749,0.10292 -5.69148,0.07114 -8.0495,-1.07881c-2.12338,-1.03553 -4.6383,-3.12394 -7.22069,-2.50216c-1.56555,0.37695 -4.62904,2.02728 -4.73661,3.82946c0.17434,0.09308 0.36292,0.17991 0.56808,0.26044l0.97478,0.68495c0,0 0.80455,0.59388 0.21067,1.39843zM252.98781,181.51199c-0.04859,-1.92376 0.40889,-3.49977 0.93873,-5.32032c-0.04895,0.03825 -0.08425,0.06632 -0.0997,0.08219c-0.33247,0.34159 -0.71433,0.62449 -1.1253,0.86885l0.09041,0.13972l-1.66696,1.07864c-0.15887,0.10631 -0.34991,0.16831 -0.55543,0.16831c-0.55228,0 -1,-0.44772 -1,-1c0,-0.1009 0.01494,-0.19832 0.04274,-0.29015l0.31714,-1.14007l0.00219,0.00061l-0.00016,-0.00781c0.12376,-0.42047 0.24311,-0.84228 0.37129,-1.26143c0.04947,-0.16178 0.08017,-0.37362 0.10697,-0.59959c-0.18702,0.18617 -0.3676,0.35892 -0.49609,0.49556c-0.9274,0.98629 -3.43701,4.20421 -5.20164,3.46156c-0.60345,-0.25397 -0.58675,-1.18513 -0.72698,-1.82464c-0.14169,-0.64616 -0.26285,-2.37532 -0.12676,-3.77824c-0.24501,0.42457 -0.49034,0.84897 -0.74178,1.26975c-0.35071,0.58693 -0.82538,1.10617 -1.36862,1.5475l0.2066,0.25999l-0.87112,0.69224c-0.17175,0.13896 -0.39043,0.22219 -0.62856,0.22219c-0.55228,0 -1,-0.44772 -1,-1c0,-0.01671 0.00041,-0.03333 0.00122,-0.04984l0.0459,-1.06257c0.00402,-0.09298 0.00853,-0.18252 0.01349,-0.26871c-0.11919,0.23393 -0.26568,0.47723 -0.44411,0.72222c-0.00674,0.00926 -0.01351,0.01849 -0.0203,0.02771l0.00455,0.00247l-0.94546,1.73926c-0.16645,0.32098 -0.50177,0.5403 -0.88831,0.5403c-0.38445,0 -0.71823,-0.21695 -0.88559,-0.5351c0.03281,1.14829 0.06659,2.29581 0.09035,3.44373l0.83364,-0.71324c0.17538,-0.15191 0.40415,-0.24382 0.65439,-0.24382c0.54658,0 0.99073,0.4385 0.99986,0.9829l0.02171,1.11103c0.0307,1.57121 0.33127,4.00647 0.29843,6.30947l0.30778,-0.51154c0.17289,-0.29895 0.49609,-0.50009 0.86627,-0.50009c0.46836,0 0.86152,0.32198 0.97019,0.75667l0.36374,1.32719l-0.01192,0.00327l0.0227,0.03979c0.18066,1.02784 0.53488,1.82218 0.70531,2.70781c0.01343,-0.01355 0.02685,-0.02711 0.04028,-0.04066l-0.01782,-0.01096l1.03845,-1.6885c0.17411,-0.29406 0.49457,-0.49123 0.86108,-0.49123c0.54223,0 0.98367,0.43156 0.99956,0.96994l0.02934,0.85638c0.2309,-0.47346 0.47605,-0.89387 0.79822,-1.31175l-0.2245,-0.14193l0.63752,-1.00838c0.17557,-0.28784 0.49251,-0.48 0.85433,-0.48c0.55228,0 1,0.44772 1,1c0,0.0392 -0.00225,0.07787 -0.00664,0.11589l-0.00666,0.06478c0.08191,-0.15224 0.16798,-0.3025 0.25923,-0.45246l-0.20909,-0.11217l0.93575,-1.74424c0.16553,-0.32376 0.50235,-0.54541 0.89094,-0.54541c0.44665,0 0.8249,0.29281 0.95326,0.69695c0.6142,-1.8017 1.21569,-3.60692 1.73411,-5.4411zM236.57648,180.48527l-0.14636,-0.17106c0.00207,0.10478 0.00405,0.20957 0.00594,0.31436c0.04533,-0.04817 0.09211,-0.09592 0.14042,-0.1433zM238.43907,171.06502c0.02209,-0.03911 0.04455,-0.07758 0.06736,-0.11536l-0.0956,0.03166c0.0098,0.02805 0.01921,0.05594 0.02823,0.08371zM249.45151,192.12047l0.00854,0.00101c-0.00049,-0.00711 -0.00097,-0.01421 -0.00145,-0.02132c-0.00236,0.00677 -0.00473,0.01354 -0.00709,0.02031z" data-paper-data="{&quot;index&quot;:null}" fill="#000000"></path></g></g></svg>