<svg version="1.1" xmlns="http://www.w3.org/2000/svg" xmlns:xlink="http://www.w3.org/1999/xlink" width="65.875" height="65.875" viewBox="0,0,65.875,65.875"><g transform="translate(-207.0625,-147.0625)"><g data-paper-data="{&quot;isPaintingLayer&quot;:true}" fill-rule="nonzero" stroke-linejoin="miter" stroke-miterlimit="10" stroke-dasharray="" stroke-dashoffset="0" style="mix-blend-mode: normal"><path d="M207.0625,180c0,-18.19088 14.74662,-32.9375 32.9375,-32.9375c18.19088,0 32.9375,14.74662 32.9375,32.9375c0,18.19088 -14.74662,32.9375 -32.9375,32.9375c-18.19088,0 -32.9375,-14.74662 -32.9375,-32.9375z" fill="#000000" stroke="none" stroke-width="0" stroke-linecap="butt"></path><g fill="#ffffff" stroke="#ffffff" stroke-linecap="butt"><path d="M244.07203,192.79327c0,0 -2.46761,0.34637 -3.68194,1.48584c-0.71267,0.66874 -2.17448,-4.21754 -3.71589,-3.23554c-3.62963,2.31236 -8.2173,10.71015 -8.2173,10.71015l-2.79987,-3.33876c0,0 9.42535,-11.99314 16.27309,-14.0836c1.32348,-0.40403 2.69116,5.40298 2.69116,5.40298z" data-paper-data="{&quot;index&quot;:null}" stroke-width="0"></path><path d="M222.88406,194.76316c0,0 3.59973,2.08101 4.76429,0.98825c1.79958,-1.68866 7.06427,-6.62882 9.24627,-8.67633c0.08614,0.79924 0.36219,1.50827 0.84449,2.07108c0.5227,0.60995 1.23333,0.98482 2.06226,1.13883c-2.29192,2.76087 -9.42509,10.93315 -14.86319,12.59327c-1.26924,0.38747 -2.58087,-5.18155 -2.58087,-5.18155l0.52675,-2.93357z" stroke-width="1"></path><path d="M236.34515,188.25357l25.29597,-23.08017c0,0 2.05838,-1.49421 2.3924,-1.10443c0.3754,0.43808 -0.91233,2.44198 -0.91233,2.44198l-24.63323,24.24316z" stroke-width="0.5"></path></g><path d="M219.24586,170.32243l11.67077,11.67077" fill="none" stroke="#ffffff" stroke-width="2" stroke-linecap="round"></path><path d="M224.381,166.43217l11.43735,11.43735" fill="none" stroke="#ffffff" stroke-width="2" stroke-linecap="round"></path><path d="M228.58247,162.23069l11.98199,11.98199" fill="none" stroke="#ffffff" stroke-width="2" stroke-linecap="round"></path></g></g></svg>