<svg version="1.1" xmlns="http://www.w3.org/2000/svg" xmlns:xlink="http://www.w3.org/1999/xlink" width="101.7259" height="80.5" viewBox="0,0,101.7259,80.5"><g transform="translate(-435.0653,-139.75005)"><g stroke-miterlimit="10"><path d="M480.00001,219.50005c-21.81525,0 -39.5,-17.68475 -39.5,-39.5c0,-21.81525 17.68475,-39.5 39.5,-39.5c21.81525,0 39.5,17.68475 39.5,39.5c0,21.81525 -17.68475,39.5 -39.5,39.5z" fill="#d8d8d8" stroke="#000000" stroke-width="1.5" stroke-linecap="butt"/><path d="" fill="none" stroke="#000000" stroke-width="1.5" stroke-linecap="round"/><path d="" fill="none" stroke="#000000" stroke-width="1.5" stroke-linecap="round"/><path d="M508.71282,168.34944l-20.61587,5.97561" fill="none" stroke="#000000" stroke-width="1.5" stroke-linecap="round"/><path d="M482.7189,174.32501l-23.60367,-6.27439" fill="none" stroke="#000000" stroke-width="1.5" stroke-linecap="round"/><path d="M480.56161,178.50793c0,-0.82843 0.67157,-1.5 1.5,-1.5c0.82843,0 1.5,0.67157 1.5,1.5c0,0.82843 -0.67157,1.5 -1.5,1.5c-0.82843,0 -1.5,-0.67157 -1.5,-1.5z" fill="#000000" stroke="none" stroke-width="0.5" stroke-linecap="butt"/><path d="M497.59211,178.20914c0,-0.82843 0.67158,-1.5 1.5,-1.5c0.82842,0 1.5,0.67157 1.5,1.5c0,0.82843 -0.67158,1.5 -1.5,1.5c-0.82842,0 -1.5,-0.67157 -1.5,-1.5z" fill="#000000" stroke="none" stroke-width="0.5" stroke-linecap="butt"/><path d="M486.24454,198.37684c0,0 1.8465,-6.57318 3.58538,-6.57318c1.34692,0 4.18292,6.57318 4.18292,6.57318" fill="none" stroke="#000000" stroke-width="1.5" stroke-linecap="round"/><path d="" fill="none" stroke="#000000" stroke-width="1.5" stroke-linecap="round"/><path d="" fill="none" stroke="#000000" stroke-width="1.5" stroke-linecap="round"/><path d="" fill="none" stroke="#000000" stroke-width="1.5" stroke-linecap="round"/><path d="" fill="none" stroke="#000000" stroke-width="1.5" stroke-linecap="round"/><path d="M506.31878,190.05466l4.05201,0.04362c1.36988,0.01263 2.47648,1.12703 2.47648,2.49989c0,1.31262 -1.01161,2.38896 -2.29772,2.49194l-4.20791,0.38503l-0.00099,-0.01078c-0.01812,0.00512 -0.03626,0.0102 -0.05442,0.01523c-2.68901,0.74563 -5.57314,0.30478 -8.36225,0.39189c-5.66006,0.17677 -11.32576,0.24658 -16.98702,0.38863l-0.03145,-0.00941v0.00961h-4.42591c-0.62362,0 -1.19391,-0.22834 -1.63182,-0.60596c-0.92115,0.05443 -1.56512,0.09228 -1.65139,0.09683l-4.89972,0.49318c-0.09321,0.01054 -0.18797,0.01595 -0.284,0.01595c-1.12422,0 -2.07513,-0.74206 -2.38962,-1.7631l-1.01897,0.0193c-0.01832,0.0004 -0.03669,0.0006 -0.05511,0.0006c-1.38071,0 -2.5,-1.11929 -2.5,-2.5c0,-1.22243 0.87737,-2.23994 2.03675,-2.45716l4.84852,-1.00974l0.00706,0.03388c0.06885,-0.0236 0.13797,-0.04657 0.20737,-0.06889c1.65551,-0.53242 3.47606,-0.11736 5.21418,-0.17353c6.74198,-0.21787 13.42794,-0.13906 20.14619,0.47349l2.66203,0.12287c0.66413,0.0265 1.2616,0.31208 1.69412,0.75844l0.40611,0.01572c0.25041,0.00836 0.49149,0.05355 0.718,0.13033c2.10957,0.07317 4.21932,0.14505 6.32948,0.21214z" fill="#cccccc" stroke="none" stroke-width="0.5" stroke-linecap="butt"/><path d="M505.53266,199.27074c0.06099,1.42894 -0.7304,2.07528 -1.41885,2.36679c-0.40655,0.35979 -0.93111,0.58924 -1.50824,0.62292l-4.9693,0.33347c-2.2962,0.67526 -5.2583,0.80934 -8.0537,0.96169c-6.01362,1.19803 -12.92437,0.96282 -18.71541,1.44748l-0.06999,-0.01975l0.00064,0.02266l-0.82004,0.02309c-1.83163,0.22222 -3.61416,0.44307 -5.26027,0.72336l-0.03372,-0.00742l0.00176,0.01222l-3.779,0.54342c-0.12979,0.0208 -0.26293,0.0316 -0.39858,0.0316c-1.38071,0 -2.5,-1.11929 -2.5,-2.5c0,-0.35835 0.0754,-0.6991 0.2112,-1.00724c-2.12461,0.11395 -3.99213,0.21397 -3.99434,0.21357c-0.02237,-0.004 -0.04471,-0.00809 -0.06703,-0.01225v0.01315h-3.65621c-1.38071,0 -2.5,-1.11929 -2.5,-2.5c0,-1.25266 0.9213,-2.29013 2.12327,-2.4718l3.63039,-0.61525l0.00793,0.04682l0.114,-0.0644c3.06644,-0.2146 6.13471,-0.40738 9.20512,-0.55466c0,0 1.07415,-0.05149 1.84723,0.61757c6.01035,-0.24538 12.01857,-0.39427 18.03649,-0.58343l0.02812,0.00961l-0.00009,-0.01002l4.04291,-0.03646c0.00877,-0.00009 0.01754,-0.00014 0.02633,-0.00014c0.3629,0 0.70774,0.07732 1.01894,0.21639c2.42466,-0.13338 4.84852,-0.21508 7.25553,-0.21639h2.50157c0.31343,0 0.61338,0.05768 0.88983,0.163c0.92439,-0.0307 1.81961,-0.05856 2.66682,-0.09532l1.53236,-0.06541c0,0 2.49773,-0.10661 2.60434,2.39111z" fill="#cccccc" stroke="none" stroke-width="0.5" stroke-linecap="butt"/><path d="M519.73415,199.89694c0.44892,2.45936 -2.01044,2.90829 -2.01044,2.90829l-2.78196,0.50778c-1.49529,0.2539 -3.00371,0.43098 -4.51809,0.55029l0.06515,0.16643l-3.41058,1.33502c-0.29676,0.12419 -0.62256,0.19279 -0.96438,0.19279c-1.38071,0 -2.5,-1.11929 -2.5,-2.5c0,-0.19469 0.02225,-0.38417 0.06436,-0.56606c-2.27493,0.32718 -4.54054,0.77125 -6.83318,0.76767l-4.7574,1.06416c-0.19175,0.04711 -0.3922,0.07209 -0.59848,0.07209c-1.38071,0 -2.5,-1.11929 -2.5,-2.5c0,-1.18893 0.82994,-2.18402 1.94209,-2.43751l4.34009,-1.08958l0.00727,0.02895l0.07274,-0.04764c0.37319,-0.06805 0.74615,-0.13736 1.1189,-0.20785c0.03207,-0.00864 0.06497,-0.01721 0.09866,-0.02571c-0.95377,0.07156 -1.87203,0.1529 -2.72789,0.26381l-0.08951,-0.02977l0.00216,0.03648l-3.2493,0.19237c-0.0561,0.00376 -0.1127,0.00567 -0.16976,0.00567c-1.38071,0 -2.5,-1.11929 -2.5,-2.5c0,-0.36193 0.07691,-0.70589 0.21527,-1.01644c-0.01507,-0.11099 -0.02285,-0.2243 -0.02285,-0.33942c0,-0.00266 0,-0.00531 0.00001,-0.00797c-0.21307,-0.00129 -0.42591,-0.00281 -0.63852,-0.0046l-0.05329,-0.02096l-0.00097,0.01874l-3.84869,-0.19941c-1.32782,-0.05957 -2.38604,-1.15493 -2.38604,-2.49745c0,-1.19785 0.84244,-2.19894 1.96717,-2.44309l3.99121,-0.95655l0.01246,0.05197c0.11566,-0.03969 0.23242,-0.07681 0.35038,-0.11113c1.71947,-0.50033 3.5768,0.18547 5.3645,0.29057c0.0183,0.00108 6.24502,0.39817 7.50559,0.47855l3.63042,0.19236c0.38828,0.01782 0.75345,0.12421 1.07578,0.29945c3.92892,0.11599 7.83482,0.36391 11.65554,0.88324c0,0 2.47678,0.33996 2.13682,2.81673c-0.33996,2.47678 -2.81673,2.13682 -2.81673,2.13682c-0.1443,-0.02001 -0.28874,-0.03962 -0.43331,-0.05881c0.00131,0.03317 0.00196,0.06651 0.00196,0.10001c0,0.81348 -0.38853,1.53621 -0.99015,1.99274l-0.99702,0.77199c0.17314,-0.01899 0.34457,-0.04236 0.51357,-0.07195l2.75816,-0.50349c0,0 2.45936,-0.44892 2.90829,2.01044z" fill="#9b9b9b" stroke="none" stroke-width="0.5" stroke-linecap="butt"/><path d="M437.04558,166.38035c-0.31807,-0.94807 0.63,-1.26614 0.63,-1.26614l1.02018,-0.23778c3.83929,0.48304 8.83768,0.72426 12.1394,2.95776l0.18335,-0.3036l0.94663,0.57167c0.29813,0.1731 0.4986,0.49584 0.4986,0.86541c0,0.10427 -0.01596,0.20482 -0.04557,0.29932c1.87658,0.39325 3.66729,0.91788 5.25277,1.67799l0.16648,-0.37214l1.65319,0.73957c5.22887,-0.30871 10.74352,-0.96771 15.8382,-0.36466c0.22582,-0.02329 0.45162,-0.04687 0.67739,-0.07077l0.01802,0.01516l-0.00119,-0.01651l0.02271,-0.00163l-0.00225,-0.0463l1.99025,-0.09654c0.01849,-0.00102 0.03711,-0.00153 0.05585,-0.00153c0.55228,0 1,0.44772 1,1c0,0.53098 -0.41384,0.9653 -0.93657,0.99802l-1.97392,0.14192c-0.40465,0.0429 -0.80938,0.08475 -1.21417,0.12573c0.18438,0.02954 0.36882,0.05998 0.55334,0.09138l0.04516,0.03088l0.00509,-0.01828l1.15826,0.32256c0.43274,0.11003 0.75282,0.50224 0.75282,0.96922c0,0.49114 -0.35407,0.89959 -0.82089,0.984l-1.90606,0.3837l-0.06279,-0.3119c-3.18681,0.85393 -6.75509,0.88895 -10.37026,0.62229c-0.28359,0.27241 -0.6909,0.28949 -0.6909,0.28949c-3.83881,0.16098 -7.65572,0.42833 -11.47687,0.64152c-2.03503,0.28062 -4.06781,0.55954 -6.09511,0.84098l-0.87086,0.0653c0,0 -0.76004,0.05511 -1.00128,-0.59435c-0.65182,0.01032 -1.30428,0.01588 -1.95752,0.01588l-0.83443,-0.30045c0,0 -0.89324,-0.44957 -0.44367,-1.34282c0.44957,-0.89324 1.34282,-0.44367 1.34282,-0.44367l-0.06472,0.08694c3.25534,0 6.49134,-0.13891 9.72405,-0.3184c0.4213,-0.05803 0.84269,-0.11613 1.26415,-0.17434c-0.89472,-0.08883 -1.76782,-0.1606 -2.61292,-0.20545l-0.07078,-0.03766l-0.00518,0.02484l-1.93924,-0.40461c-0.46358,-0.08703 -0.81436,-0.49395 -0.81436,-0.9828c0,-0.21242 0.06623,-0.40938 0.17918,-0.57134c-0.86795,-0.05596 -1.73549,-0.12034 -2.60238,-0.19959c-1.18347,-0.10819 -2.29388,0.03684 -3.21589,-0.26241c-0.42602,-0.02502 -0.85223,-0.0504 -1.27866,-0.0763l-0.05309,-0.03404l-0.00454,0.02549l-1.23043,-0.21929c-0.47695,-0.07596 -0.84148,-0.48917 -0.84148,-0.98751c0,-0.55228 0.44772,-1 1,-1c0.04256,0 0.0845,0.00266 0.12566,0.00782l1.71736,0.19208l-0.00622,0.05561c0.4115,0.02154 0.82693,0.03989 1.24573,0.05585c0.28765,-0.01509 0.57693,-0.0262 0.86761,-0.03367c-1.47345,-0.26116 -2.94444,-0.53467 -4.41069,-0.83022l-2.68131,-1.6768c1.44452,-0.31693 2.89235,-0.4564 4.34318,-0.48163c-0.82619,-0.11989 -1.65372,-0.22879 -2.48073,-0.33284l-0.13438,0.14956c0,0 -0.94807,0.31807 -1.26614,-0.63z" fill="#9b9b9b" stroke="none" stroke-width="0.5" stroke-linecap="butt"/><path d="M500.19906,173.60535l0.00692,-0.05775l1.97306,0.23643c0.50234,0.05305 0.89376,0.47803 0.89376,0.99442c0,0.55228 -0.44772,1 -1,1c-0.02563,0 -0.05104,-0.00096 -0.07619,-0.00286l-1.21719,-0.08108l0.00087,-0.01303l-0.03009,0.01066c-0.61753,-0.07756 -1.23325,-0.1598 -1.84766,-0.24614c-1.63053,0.17542 -3.6319,-0.16012 -5.46674,-0.53314c0.15355,0.17417 0.258,0.43159 0.19367,0.80859c-0.16822,0.98575 -1.15397,0.81753 -1.15397,0.81753l-1.10567,-0.18868c-1.73584,-0.29622 -3.47482,-0.57385 -5.21595,-0.83841c-3.47188,0.79391 -6.92901,0.46406 -10.81133,0.13432c-1.84615,-0.1568 -3.68575,-0.3272 -5.51974,-0.51943c-0.03953,0.05559 -0.08689,0.11151 -0.14315,0.16741c-0.70941,0.7048 -1.41421,-0.00461 -1.41421,-0.00461c-0.12628,-0.13235 -0.25938,-0.25776 -0.39859,-0.37669c-5.2424,-0.59812 -10.44149,-1.39935 -15.61917,-2.59699l-0.08349,-0.05944l-0.0102,0.02245l-0.88165,-0.40055c-1.56132,-0.13479 -3.1029,-0.26155 -4.60904,-0.33958l-1.94434,-0.02158c-0.54782,-0.00521 -0.9903,-0.45091 -0.9903,-0.99995c0,-0.53503 0.42018,-0.97192 0.94855,-0.9987l-0.94615,-0.6201c0.77106,-0.26824 1.52306,-0.46726 2.26376,-0.61152l0.03284,-0.09171c0.07623,0.01439 0.15246,0.0287 0.22869,0.04295c0.19729,-0.03516 0.39385,-0.06653 0.5898,-0.09439c-2.0916,-0.4099 -4.17909,-0.84875 -6.26337,-1.32033l-0.06292,-0.06025l-0.01332,0.03308l-0.94054,-0.3787c-0.37866,-0.14239 -0.64809,-0.50789 -0.64809,-0.93632c0,-0.55228 0.44772,-1 1,-1c0.02899,0 0.05769,0.00123 0.08605,0.00365l1.98356,0.14974l-0.01697,0.22475c3.30543,-0.21139 6.65543,0.22482 9.97577,0.69981c0.17334,-0.29718 0.49555,-0.49688 0.8644,-0.49688c0.04082,0 0.08106,0.00245 0.1206,0.0072l1.93148,0.20693c8.41228,0.9019 18.75391,0.41689 26.9241,3.49973l0.03908,-0.20187l1.94573,0.37664c0.47022,0.08162 0.82778,0.49167 0.82778,0.98523c0,0.05261 -0.00406,0.10428 -0.01189,0.1547c4.12596,0.64267 8.24582,1.31018 12.35612,2.06405l1.94866,0.19486c0.51083,0.04479 0.9115,0.47368 0.9115,0.99614c0,0.0698 -0.00715,0.13792 -0.02076,0.20368c0.13856,0.01882 0.2772,0.03741 0.41591,0.05577z" fill="#c5c5c5" stroke="none" stroke-width="0.5" stroke-linecap="butt"/><path d="M478.85493,196.42893c-0.19838,0.01804 -0.39675,0.03642 -0.5951,0.05517l-0.0022,0.07652l-1.99564,-0.05739c-0.54063,-0.01338 -0.97479,-0.45583 -0.97479,-0.99969c0,-0.0446 0.00292,-0.08852 0.00858,-0.13158c-1.86967,0.1565 -3.74117,0.27939 -5.61699,0.32307l-1.44686,0.03336c-0.00891,0.00023 -0.01784,0.00035 -0.0268,0.00035c-0.41992,0 -0.77939,-0.25883 -0.92757,-0.62565c-0.13013,0.01231 -0.26033,0.02471 -0.39059,0.0372l-1.9779,0.18961c-0.03561,0.00384 -0.07177,0.00581 -0.1084,0.00581c-0.55228,0 -1,-0.44772 -1,-1c0,-0.37722 0.20887,-0.70566 0.51727,-0.87598c-0.07302,-0.13886 -0.11434,-0.29698 -0.11434,-0.46476c0,-0.45633 0.30565,-0.84126 0.7234,-0.96125l1.24798,-0.39003l0.11197,0.35828c2.5156,-0.91483 5.25322,-0.69275 8.11688,-0.85515c8.44009,-0.47863 16.76083,-0.03676 25.17796,0.48678c1.53715,0.04669 3.0768,0.11582 4.62017,0.20997c0.65436,0.04003 1.30872,0.08007 1.96309,0.1201l1.97898,0.01524c0.54919,0.00362 0.99327,0.44994 0.99327,0.99998c0,0.27946 -0.11463,0.53214 -0.29944,0.71359c-0.05826,0.46383 -0.43419,0.82881 -0.90306,0.87021l-1.91326,0.19258l-0.02662,-0.26442c-0.77982,0.18622 -1.56789,0.32795 -2.36236,0.43795c0.0115,0.06068 0.01752,0.1233 0.01752,0.18733c0,0.44916 -0.29612,0.82915 -0.70378,0.9554l-1.87422,0.62886l-0.10559,-0.31468c-1.55888,0.66252 -3.2125,1.11745 -4.89673,1.5002l-0.15355,0.04464l-0.00272,-0.00935c-0.01027,0.00231 -0.02054,0.00461 -0.03082,0.00691l-0.02315,0.01714c-0.09573,0.0161 -0.19229,0.03354 -0.28961,0.05208c-0.29611,0.06481 -0.59297,0.12781 -0.89023,0.18974c-0.86101,0.19688 -1.75729,0.42411 -2.63387,0.53896c-0.71397,0.14904 -1.42435,0.3043 -2.12633,0.47595l-0.08088,-0.01729l0.00227,0.02703l-1.98129,0.16617c-0.03136,0.00296 -0.06315,0.00448 -0.09529,0.00448c-0.55228,0 -1,-0.44772 -1,-1c0,-0.13959 0.0286,-0.2725 0.08026,-0.39319c-0.91688,0.00159 -1.83132,-0.02809 -2.74344,-0.10847l0.01457,0.24608l-1.9877,0.11769c-0.02244,0.0015 -0.04508,0.00227 -0.06791,0.00227c-0.55228,0 -1,-0.44772 -1,-1c0,-0.18111 0.04815,-0.35098 0.13234,-0.4975c-0.7914,-0.07776 -1.57163,-0.18276 -2.33749,-0.32035z" fill="#c5c5c5" stroke="none" stroke-width="0.5" stroke-linecap="butt"/><path d="M466.74832,181.51757c-1.294,-0.06153 -2.31432,-0.76101 -2.31432,-1.61484c0,-0.12955 0.02349,-0.25554 0.06786,-0.3763l-2.32501,-0.30316c-1.16702,-0.1367 -2.05219,-0.79807 -2.05219,-1.59334c0,-0.38712 0.20974,-0.74251 0.55964,-1.02111c-4.28677,-0.29267 -8.56928,-0.53758 -12.87491,-0.75161c-3.98145,-0.19791 -7.47575,-0.24796 -11.19087,-1.25683c0,0 -2.29552,-0.64138 -1.30526,-2.12818c0.99025,-1.4868 3.28577,-0.84541 3.28577,-0.84541c3.13233,0.90817 6.21068,0.83331 9.59156,1.00137c5.49001,0.27289 10.94386,0.59569 16.41504,1.00203c17.93291,1.33185 35.77763,3.13296 53.72867,4.36601c1.69558,0.16821 3.39116,0.33641 5.08675,0.50461l0.07983,0.03055l0.00661,-0.01892l3.69936,0.54193c1.13962,0.15078 1.99698,0.80377 1.99698,1.58645c0,0.82901 -0.96187,1.51252 -2.20221,1.60787l-2.83771,0.24666c0.02416,0.09038 0.03675,0.18332 0.03675,0.27817c0,0.89428 -1.11929,1.61924 -2.5,1.61924h-5c-3.136,0.39498 -6.38955,0.01711 -9.58394,0.04775c-9.38445,0.09 -18.76937,0.1754 -28.15484,0.19904l-0.04256,-0.00833l-0.00036,0.00772l-4.98838,-0.0982c-1.34991,-0.02288 -2.43337,-0.73883 -2.43337,-1.61868c0,-0.09114 0.01163,-0.18053 0.03397,-0.26757c-0.53189,-0.20843 -0.93419,-0.54164 -1.11017,-0.93697z" fill="#cccccc" stroke="none" stroke-width="0.5" stroke-linecap="butt"/><path d="M526.31668,177.28431c0,0 2.47055,0.2478 2.08798,1.84796c-0.38258,1.60017 -2.85313,1.35238 -2.85313,1.35238c-1.86859,-0.18803 -3.74572,-0.34172 -5.62857,-0.46817c-0.31935,0.12632 -0.68586,0.20754 -1.07844,0.22999l-3.82098,0.24911l-0.00184,-0.01185c-0.03104,0.00572 -0.06213,0.01134 -0.09329,0.01687c-2.63944,0.46806 -5.47088,0.11223 -8.20735,0.12846c-6.12796,0.03637 -12.23593,-0.06028 -18.35898,-0.21263l-3.83415,-0.03832c-1.36516,-0.0117 -2.46626,-0.73211 -2.46626,-1.6191c0,-0.14513 0.02948,-0.2858 0.08477,-0.41963c-1.24719,-0.11017 -2.49419,-0.22542 -3.74131,-0.34602l-0.06627,-0.028l-0.00612,0.01887l-2.89763,-0.39419c-1.13978,-0.13956 -2.00605,-0.78021 -2.03218,-1.55496c-1.00521,-0.20981 -1.73247,-0.82064 -1.73247,-1.5415c0,-0.89428 1.11929,-1.61924 2.5,-1.61924c0.07429,0 0.14782,0.0021 0.22047,0.00621l4.9576,0.24862c2.44871,-0.25444 4.95135,0.19279 7.4291,0.2616c5.86512,0.16287 11.6986,0.57091 17.55017,0.87232l3.44232,0.11844c1.32646,0.03954 2.38314,0.74859 2.38314,1.61751c0,0.11305 -0.01789,0.22339 -0.05192,0.3299c5.43061,0.1512 10.85443,0.41936 16.21536,0.95537z" fill="#9b9b9b" stroke="none" stroke-width="0.5" stroke-linecap="butt"/><path d="M502.39861,186.11396l-3.65616,0.50182c0,0 -2.44569,0.33568 -2.96395,-1.24839c-0.08545,-0.26116 -0.09032,-0.4884 -0.03888,-0.68578c-5.54207,0.12841 -11.06352,0.44769 -16.51977,1.06692c0,0 -2.46255,0.27921 -2.89363,-1.31578c-0.43108,-1.59498 2.03148,-1.87419 2.03148,-1.87419c8.89886,-1.00802 17.9557,-1.25205 27.00242,-1.16503c0.44528,-0.44592 1.21979,-0.74104 2.10073,-0.74104c0.92232,0 1.72799,0.3235 2.16129,0.80487c2.78051,0.05548 5.55757,0.13583 8.32628,0.22848l2.91934,0.0979c0,0 2.49666,0.08372 2.36739,1.7008c-0.12926,1.61708 -2.62592,1.53335 -2.62592,1.53335l-2.91934,-0.0979c-4.41375,-0.14834 -8.85194,-0.26666 -13.29176,-0.29917c-0.00532,1.21944 -1.99952,1.49314 -1.99952,1.49314z" fill="#9b9b9b" stroke="none" stroke-width="0.5" stroke-linecap="butt"/><path d="M534.77333,175.54396c-0.65324,0.4904 -1.41039,0.0673 -1.41039,0.0673l-1.01244,-0.56576c-0.54935,-0.30698 -1.0403,-0.57495 -1.48799,-0.8389c-0.0347,0.02172 -0.07182,0.04184 -0.11108,0.06016c0.16574,0.11559 0.2671,0.27046 0.2671,0.44065c0,0.3475 -0.42251,0.63108 -0.95296,0.64699l-1.99081,0.06893l-0.01166,-0.14127c-4.68679,0.53552 -9.23797,0.06386 -14.09446,-0.37889c-7.63682,-0.69622 -15.23709,-1.55546 -22.78411,-2.58052c-2.46938,-0.3354 -4.82907,-0.74484 -7.2424,-1.22392l-1.90164,-0.30175c-0.44754,-0.06439 -0.78217,-0.32303 -0.78217,-0.63229c0,-0.11467 0.04601,-0.22237 0.12672,-0.3158c-2.29501,-0.33167 -4.59294,-0.68811 -6.89944,-1.07367c-2.79003,-0.4664 -5.5608,-0.90528 -8.25927,-1.48637c-4.41503,-0.54819 -8.79537,-1.15451 -13.15711,-1.89978l-0.02156,-0.01056l-0.00283,0.00574l-1.47837,-0.30541c-0.41492,-0.07888 -0.71789,-0.3273 -0.71789,-0.62156c0,-0.35771 0.44772,-0.6477 1,-0.6477c0.05265,0 0.10436,0.00264 0.15481,0.00771l1.96408,0.17729l-0.03383,0.15723c1.86234,-0.01436 3.73179,0.10785 5.59941,0.27846c0.04382,-0.03561 0.09331,-0.06816 0.14759,-0.09708c-2.15908,-0.38517 -4.26726,-0.82142 -6.2291,-1.48107c-0.14031,-0.02367 -0.2806,-0.04742 -0.42088,-0.07125l-0.07251,0.11924l-1.83916,-0.46918c-0.38241,-0.09098 -0.65523,-0.32894 -0.65523,-0.60817c0,-0.35771 0.44772,-0.6477 1,-0.6477c0.104,0 0.2043,0.01029 0.2986,0.02937l1.31698,0.2453c7.44234,1.27366 14.93523,2.32741 22.48306,3.2458c3.51873,0.3041 7.05229,0.70791 10.55944,1.19664c7.72499,0.79355 15.55016,1.36107 23.17436,2.45628c0.44053,0.06328 0.87965,0.12417 1.31711,0.18394c-1.28824,-0.46661 -2.51088,-0.97386 -3.63693,-1.52972c-0.06454,-0.01478 -0.12908,-0.02954 -0.19362,-0.04429l-0.02089,-0.03228l-0.01535,0.02242l-0.04516,-0.01297l-0.07272,0.08721l-1.7417,-0.60929c-0.32235,-0.10752 -0.54281,-0.32518 -0.54281,-0.57619c0,-0.35771 0.44772,-0.6477 1,-0.6477c0.15205,0 0.29618,0.02198 0.42522,0.0613l1.76083,0.50568c0.44332,0.10106 0.88496,0.2038 1.32502,0.30819c-0.2159,-0.21614 -0.37943,-0.43916 -0.47861,-0.66926c-0.25579,-0.59345 -0.98687,-1.25181 -0.58247,-1.8095c0.59109,-0.81515 4.8754,0.1311 5.60744,0.26708c6.44975,1.19814 14.49741,3.04229 19.8128,5.69633c1.10231,0.57069 4.54033,2.89888 3.3175,4.09189c-0.4785,0.46683 -1.73045,0.08379 -2.59416,0.05165c-0.31114,-0.01157 -0.62454,-0.03084 -0.93907,-0.05658c0.24317,0.16805 0.46624,0.32097 0.65837,0.42834l1.01244,0.56576c0,0 0.75715,0.4231 0.10391,0.9135zM532.3091,172.19512c0.6533,0.07318 1.33835,0.07057 1.96022,0.21901c-0.79794,-0.5976 -1.0719,-1.25614 -2.28133,-1.84146c-4.14572,-2.10044 -10.38852,-3.5735 -15.388,-4.65886c-1.88478,-0.40918 -3.71895,-0.80775 -5.65197,-1.10976c-0.37978,-0.05934 -0.78412,-0.07524 -1.14753,-0.16415c0.24746,0.30338 0.3764,0.66921 0.74459,0.91357c1.70086,1.12882 4.66222,1.98902 7.00846,2.83446c0.96859,0.28689 1.93255,0.5815 2.89312,0.88351c2.96796,0.76273 5.9277,1.53492 8.86676,2.34506l1.4627,0.2384c0.21738,0.03217 0.40777,0.11022 0.5456,0.21759c0.32538,0.04435 0.65411,0.0853 0.98739,0.12263zM497.93895,171.86912c6.72665,0.81599 13.48695,1.49407 20.2694,2.1124c1.03569,0.09442 2.35316,0.07354 3.73288,0.04755c-3.64063,-0.50133 -7.28588,-0.98523 -10.93155,-1.46708c-0.41803,-0.03611 -0.83606,-0.07224 -1.25411,-0.10835c-0.23196,0.49711 -1.08006,0.42377 -1.08006,0.42377c-3.61741,-0.31284 -7.18948,-0.64371 -10.73656,-1.00829z" fill="#c5c5c5" stroke="none" stroke-width="0.5" stroke-linecap="butt"/><path d="M478.68797,211.13987c0.01353,-0.00367 0.02706,-0.00733 0.04059,-0.01099c0.11227,-0.06023 0.24519,-0.10488 0.39087,-0.12881l0.36052,-0.06488c0.52272,-0.12858 1.05249,-0.24655 1.5878,-0.35571c-0.00506,-0.02641 -0.00767,-0.05332 -0.00767,-0.08063c0,-0.27892 0.27221,-0.51667 0.65395,-0.60787l1.83818,-0.4708l0.08631,0.14137c2.91524,-1.04627 6.22253,-1.70322 9.61994,-2.18095c6.78071,-2.4035 15.95916,-2.92197 23.37768,-3.79158c0.21765,-0.05128 0.43661,-0.10257 0.65648,-0.15329c-3.97806,0.17543 -7.95767,0.35095 -11.9242,0.58999c-3.21836,0.19395 -6.47467,0.6019 -9.71101,0.75305c-0.34654,0.03683 -0.6934,0.07272 -1.04063,0.10754c-0.34075,0.03412 -0.68151,0.06824 -1.02226,0.10237l-1.88774,0.24614c-0.07007,0.01007 -0.1429,0.01538 -0.21765,0.01538c-0.55228,0 -1,-0.28999 -1,-0.6477c0,-0.31811 0.35407,-0.58265 0.82087,-0.63733l1.90606,-0.24854v0.00001l0.03638,-0.00474l0.00018,0.00056c0.28189,-0.02832 0.56379,-0.05663 0.84568,-0.08495c1.4818,-0.42708 3.47214,-0.47365 5.23299,-0.52362c6.70932,-0.67748 13.5952,-1.42889 20.01639,-2.56502c3.22855,-0.57124 6.48596,-1.9072 9.64553,-2.58777c-5.65783,-0.10551 -11.31772,-0.15201 -16.97795,-0.07961c-3.89163,0.04978 -7.58398,0.24444 -11.27514,-0.21509l-0.01854,0.16108l-1.98591,-0.0959c-0.52161,-0.02194 -0.9342,-0.30292 -0.9342,-0.64632c0,-0.30223 0.31961,-0.55611 0.75185,-0.6276l1.5165,-0.27463c9.19098,-1.66442 18.27092,-3.26929 26.73232,-5.92289c-2.67434,0.39361 -6.23153,-0.1751 -9.02594,-0.2799c-0.72973,-0.02737 -1.45709,-0.04872 -2.18269,-0.06449c-1.6641,0.06859 -3.34085,0.11265 -5.02482,0.13899c-7.06417,0.67851 -14.13514,1.23391 -21.26322,1.6023l-0.99685,0.05151c-0.0299,0.00174 -0.06018,0.00264 -0.09079,0.00264c-0.55228,0 -1,-0.28999 -1,-0.6477c0,-0.27183 0.25853,-0.50454 0.62503,-0.60062l1.81528,-0.5072l0.1289,0.19353c0.21166,-0.06851 0.42326,-0.13216 0.63509,-0.19138c-0.50481,-0.00194 -1.00829,-0.003 -1.51027,-0.00298h-1.07888c-0.43934,0 -0.81252,-0.18351 -0.94677,-0.43864c-1.29114,-0.02105 -2.58228,-0.04211 -3.87342,-0.06319h-1.72242v0c-0.55228,0 -1,-0.28999 -1,-0.6477c0,-0.33827 0.40036,-0.61597 0.91091,-0.64516l1.97888,-0.12901l0.02008,0.12922c0.09805,0.00159 0.19609,0.00319 0.29414,0.00479c3.10117,-0.45343 6.18208,-0.38388 9.56888,-0.38388c0.19987,0 0.39971,0.00043 0.59954,0.00127c1.85557,-0.2098 3.77862,-0.3153 5.82738,-0.47775c8.14557,-0.64591 16.54116,-0.4262 24.74584,-0.5155l0.05732,0.01505l0.00193,-0.01231l1.72867,0.11364c0.51019,0.02942 0.91016,0.30701 0.91016,0.64512c0,0.30326 -0.32179,0.55785 -0.75628,0.62832l-1.90765,0.33918l-0.07131,-0.16826c-0.65036,0.16152 -1.30558,0.29805 -1.96681,0.41619c2.23046,0.22035 4.39801,0.56122 6.45747,1.06537c-2.20619,2.41067 -4.22036,2.76482 -8.14017,3.78597c-4.78521,1.24659 -9.92115,2.09902 -14.98486,2.95433c0.87718,0.03615 1.71153,0.07454 2.41208,0.06559c7.30324,-0.09336 14.59423,-0.10019 21.89563,0.04524l0.0327,0.00659l0.00073,-0.00484l1.97969,0.12548c0.51174,0.02843 0.91341,0.30648 0.91341,0.6453c0,0.20107 -0.14146,0.38075 -0.36344,0.49955l-1.52732,0.82887l-0.18854,-0.14574c-2.52614,1.3788 -5.36944,1.87982 -8.8872,2.70337c-1.46712,0.34347 -2.98556,0.59854 -4.52529,0.81013c1.95353,-0.089 3.90691,-0.17729 5.85895,-0.27118l0.01393,0.00223l-0.0002,-0.00271l1.54608,-0.04676c0.01782,-0.00061 0.03576,-0.00092 0.05381,-0.00092c0.55228,0 1,0.28999 1,0.6477c0,0.23936 -0.20047,0.44839 -0.49859,0.56052l-1.69645,0.66359l-0.20965,-0.22485c-1.20155,0.46398 -2.46029,0.77207 -3.79886,1.03872c-0.04392,0.01974 -0.09041,0.03726 -0.13906,0.0523l-1.23436,0.40237c0.04806,-0.00011 0.09612,-0.00014 0.14415,-0.00009l0.10094,0.03352l0.00753,-0.02182l1.71257,0.24811c0.45695,0.05976 0.80101,0.32129 0.80101,0.63487c0,0.29738 -0.30941,0.54794 -0.7311,0.62401l-1.89219,0.37204l-0.05141,-0.10969c-0.40986,0.12211 -0.82468,0.23866 -1.24382,0.35013c0.07533,0.09102 0.11805,0.19505 0.11805,0.30555c0,0.32488 -0.3693,0.59389 -0.85084,0.64054l-1.95615,0.21255l-0.0012,-0.00463l-0.0222,0.007c-1.80536,0.13987 -3.60473,0.2859 -5.39979,0.43892c-2.05684,0.30928 -4.11946,0.57479 -6.12437,0.84379c-0.2566,0.03443 -0.51317,0.06884 -0.76974,0.10324c-0.20246,0.30484 -0.76332,0.36753 -0.76332,0.36753c-4.59871,0.51396 -9.6938,1.0834 -14.2925,1.59736c-1.70068,0.19007 -3.10768,0.39807 -4.52106,0.45507c-0.16095,0.01687 -0.32195,0.03363 -0.48298,0.05029c-0.35954,0.03719 -0.71908,0.07438 -1.07863,0.11157v0.05332h-0.51544c-0.78529,0.08123 -1.57059,0.16246 -2.35588,0.24368l-1.1863,0.12271c-0.05709,0.00656 -0.11586,0.00998 -0.17586,0.00998c-0.55228,0 -1,-0.28999 -1,-0.6477c0,-0.30698 0.32972,-0.56408 0.7723,-0.63083l1.91692,-0.31812l0.04496,0.11366c0.09392,-0.00972 0.18783,-0.01943 0.28175,-0.02915zM517.51504,204.96927c0.00821,-0.00014 0.01643,-0.00028 0.02464,-0.00042l-0.00556,-0.00716c-0.00636,0.00253 -0.01272,0.00506 -0.01907,0.00758zM516.13729,188.10643c-3.05774,0.00454 -6.12171,0.01823 -9.16949,0.10344c1.81597,0.08097 3.63175,0.15798 5.44792,0.21549c0.47564,-0.00757 0.95136,-0.01264 1.42675,-0.01483c0.05872,-0.00597 0.11743,-0.01195 0.17615,-0.01793c0.61916,-0.06313 1.34055,-0.16746 2.11867,-0.28615zM510.98167,206.87944c0.58631,-0.14606 1.19102,-0.29903 1.80113,-0.44392c-0.3125,0.02004 -0.62568,0.04154 -0.93941,0.06442c-1.00485,0.19424 -2.04218,0.37699 -3.1163,0.57675c0.74789,-0.07756 1.50321,-0.14821 2.25458,-0.19725z" fill="#c5c5c5" stroke="none" stroke-width="0.5" stroke-linecap="butt"/></g></g></svg>