<svg version="1.1" xmlns="http://www.w3.org/2000/svg" xmlns:xlink="http://www.w3.org/1999/xlink" width="92.73935" height="90.45774" viewBox="0,0,92.73935,90.45774"><g transform="translate(-316.07469,-109.66847)"><g data-paper-data="{&quot;isPaintingLayer&quot;:true}" fill-rule="nonzero" stroke-linejoin="miter" stroke-miterlimit="10" stroke-dasharray="" stroke-dashoffset="0" style="mix-blend-mode: normal"><g stroke="none" stroke-linecap="butt"><path d="M363.7443,130.60175c-1.67453,6.95205 -5.72946,11.93806 -9.05692,11.13657c-3.32748,-0.80149 -2.02566,-5.76766 -0.35112,-12.71969c1.67453,-6.95205 -9.22133,-15.08391 -5.89386,-14.28243c2.01736,0.48591 10.2238,1.27633 14.11395,5.24888c2.52632,2.57983 1.84725,7.87948 1.18794,10.61667z" data-paper-data="{&quot;index&quot;:null}" fill="#ffffff" stroke-width="NaN"></path><path d="M368.79298,131.08507c-2.25263,9.35207 -7.70742,16.05937 -12.18361,14.9812c-4.4762,-1.07817 -2.72495,-7.7588 -0.47233,-17.11087c2.25263,-9.35207 -12.40478,-20.29128 -7.92858,-19.2131c2.71381,0.65367 13.75332,1.71696 18.98648,7.06094c3.39847,3.47045 2.48496,10.59969 1.59805,14.28182z" fill="#a97eff" stroke-width="NaN"></path></g><path d="" data-paper-data="{&quot;index&quot;:null}" fill="none" stroke="#000000" stroke-width="1.5" stroke-linecap="round"></path><path d="" data-paper-data="{&quot;index&quot;:null}" fill="none" stroke="#000000" stroke-width="1.5" stroke-linecap="round"></path><path d="" data-paper-data="{&quot;index&quot;:null}" fill="none" stroke="#000000" stroke-width="1.5" stroke-linecap="round"></path><path d="" data-paper-data="{&quot;index&quot;:null}" fill="none" stroke="#000000" stroke-width="1.5" stroke-linecap="round"></path><path d="M317.93205,150.61736c5.10851,-21.20868 26.44281,-34.26045 47.65149,-29.15194c21.20868,5.10851 34.26045,26.44281 29.15194,47.65149c-5.10851,21.20868 -26.44281,34.26045 -47.65149,29.15194c-21.20868,-5.10851 -34.26045,-26.44281 -29.15194,-47.65149z" fill="#d8d8d8" stroke="#000000" stroke-width="1.5" stroke-linecap="butt"></path><path d="" data-paper-data="{&quot;index&quot;:null}" fill="none" stroke="#000000" stroke-width="1.5" stroke-linecap="butt"></path><path d="M337.91083,154.85386c0,0 7.1381,-11.40006 10.42073,-10.54595c3.33953,0.86891 3.81786,13.59168 3.81786,13.59168" fill="none" stroke="#000000" stroke-width="1.5" stroke-linecap="round"></path><path d="M355.90042,160.49097c0,0 7.1381,-11.40006 10.42073,-10.54595c3.33953,0.86891 3.81785,13.59168 3.81785,13.59168" fill="none" stroke="#000000" stroke-width="1.5" stroke-linecap="round"></path><path d="M357.82732,174.93297c0,0 -10.81504,3.2306 -14.25427,1.46966c-2.70408,-1.38453 -4.71115,-11.18029 -4.71115,-11.18029" fill="none" stroke="#000000" stroke-width="1.5" stroke-linecap="round"></path><g stroke="none" stroke-linecap="butt"><path d="M387.98376,129.59562c7.09243,-2.37513 17.40536,1.70471 20.11917,2.35839c4.4762,1.07817 -13.55453,4.14382 -15.80716,13.49588c-2.25263,9.35207 -3.73526,16.09739 -8.21146,15.01921c-4.4762,-1.07817 -6.27878,-9.53357 -4.02614,-18.88564c0.88691,-3.68213 3.31969,-10.44542 7.92561,-11.98786z" data-paper-data="{&quot;index&quot;:null}" fill="#a97eff" stroke-width="NaN"></path><path d="M390.61513,134.65519c5.2723,-1.76561 12.93861,1.26723 14.95597,1.75314c3.32748,0.80149 -10.07602,3.0804 -11.75055,10.03243c-1.67453,6.95205 -2.77669,11.96631 -6.10416,11.16483c-3.32748,-0.80149 -4.66746,-7.08696 -2.99293,-14.03899c0.6593,-2.73719 2.46776,-7.7648 5.89165,-8.91141z" data-paper-data="{&quot;index&quot;:null}" fill="#ffffff" stroke-width="NaN"></path></g></g></g></svg>