<svg version="1.1" xmlns="http://www.w3.org/2000/svg" xmlns:xlink="http://www.w3.org/1999/xlink" width="304.00252" height="245.3241" viewBox="0,0,304.00252,245.3241"><g transform="translate(-195.87083,26.66114)"><g data-paper-data="{&quot;isPaintingLayer&quot;:true}" fill-rule="nonzero" stroke-linecap="butt" stroke-linejoin="miter" stroke-miterlimit="10" stroke-dasharray="" stroke-dashoffset="0" style="mix-blend-mode: normal"><path d="M238.98851,217.91296c-21.81525,0 -39.5,-17.68475 -39.5,-39.5c0,-21.81525 17.68475,-39.5 39.5,-39.5c21.81525,0 39.5,17.68475 39.5,39.5c0,21.81525 -17.68475,39.5 -39.5,39.5z" data-paper-data="{&quot;index&quot;:null}" fill="#000000" stroke="#000000" stroke-width="1.5"></path><g data-paper-data="{&quot;index&quot;:null}" stroke="none" stroke-width="0"><path d="M258.71107,168.50346c7.45315,0 13.49512,5.141 13.49512,5.141c0,0 -6.04197,5.141 -13.49512,5.141c-7.45315,0 -13.49512,-5.141 -13.49512,-5.141c0,0 6.04197,-5.141 13.49512,-5.141z" fill="#ffffff"></path><path d="M259.35369,178.78546c-2.8393,0 -5.141,-2.30171 -5.141,-5.141c0,-2.8393 2.30171,-5.141 5.141,-5.141c2.8393,0 5.141,2.30171 5.141,5.141c0,2.8393 -2.30171,5.141 -5.141,5.141z" fill="#000000"></path></g><g data-paper-data="{&quot;index&quot;:null}" stroke="none" stroke-width="0"><path d="M229.03427,168.61951c7.45315,0 13.49512,5.141 13.49512,5.141c0,0 -6.04197,5.141 -13.49512,5.141c-7.45315,0 -13.49512,-5.141 -13.49512,-5.141c0,0 6.04197,-5.141 13.49512,-5.141z" fill="#ffffff"></path><path d="M229.6769,178.90151c-2.8393,0 -5.141,-2.30171 -5.141,-5.141c0,-2.83929 2.30171,-5.141 5.141,-5.141c2.8393,0 5.141,2.30171 5.141,5.141c0,2.8393 -2.30171,5.141 -5.141,5.141z" fill="#000000"></path></g><path d="M288.53511,167.97319c0.15719,0.31288 0.31403,0.62593 0.47048,0.93917l0.00016,0.00086l0.00022,-0.00011l0.88164,1.77265c0.07257,0.13853 0.11363,0.29618 0.11363,0.46341c0,0.55228 -0.44772,1 -1,1c-0.29434,0 -0.55898,-0.12717 -0.74197,-0.32956l-0.44231,-0.4856l0.02677,0.3503c0.00248,0.0287 0.00374,0.05774 0.00374,0.08708c0,0.55228 -0.44772,1 -1,1c-0.22201,0 -0.42712,-0.07234 -0.59304,-0.19475l-1.06839,-0.76815l0.01101,-0.01531l-0.0637,-0.0253c-4.05282,-3.81282 -7.17858,-8.34163 -10.20345,-12.95628c1.75953,4.7252 3.03905,9.65616 4.35192,14.48654c0.63419,2.33335 2.47148,5.43316 2.67559,8.02543c0.18786,0.34861 0.37536,0.69793 0.56257,1.04793l0.00085,0.01282l0.00454,-0.00229l0.58717,1.16297c0.07425,0.13976 0.11632,0.29923 0.11632,0.46852c0,0.55228 -0.44772,1 -1,1c-0.3905,0 -0.72872,-0.22383 -0.89337,-0.55019l-0.92665,-1.74885l0.0202,-0.01071c-5.49785,-10.23561 -11.26728,-19.86754 -19.38913,-28.29218c-0.44904,-0.46657 -0.88907,-0.94198 -1.34712,-1.39971c-0.0632,-0.06316 -0.14838,-0.14167 -0.24524,-0.22852c0.18631,0.39475 0.31766,0.8222 0.47521,1.15398c0.85583,1.80229 1.62687,3.54701 2.6605,5.25688c2.41849,4.00077 4.77535,8.02925 7.11618,12.07469c1.49574,2.58495 3.01201,4.44757 3.14001,7.01097h0.3824v1.39466c0,0.55228 -0.44772,1 -1,1c-0.28311,0 -0.53874,-0.11765 -0.72067,-0.30672l-0.97187,-1.00719l0.02288,-0.02207l-0.09092,-0.05619c-2.32902,-3.69866 -4.26022,-7.66119 -6.75223,-11.27069c-2.09551,-3.0352 -4.73768,-5.79485 -6.91526,-8.77376c1.36362,4.17529 2.8956,8.45504 4.7719,12.38814c0.97321,2.04005 3.57618,3.7619 4.03948,5.96895c0.00965,0.04597 0.01837,0.09204 0.02622,0.13819l0.01725,-0.00428l0.45646,1.83783c0.02274,0.08373 0.03488,0.17183 0.03488,0.26277c0,0.55228 -0.44772,1 -1,1c-0.34287,0 -0.64544,-0.17256 -0.8256,-0.43557l-1.01401,-1.44013l0.00134,-0.00094l-0.00449,-0.00356c-0.38207,-0.55559 -0.76414,-1.11117 -1.14622,-1.66676c-0.96927,-1.51918 -1.9094,-3.02287 -2.77359,-4.60571c-0.62892,-1.15192 -1.16108,-2.35915 -1.85743,-3.4716c-0.6399,-1.02229 -1.32116,-2.03452 -2.15272,-2.90805c-0.15421,-0.16199 -0.50353,-0.3959 -0.78128,-0.59127c0.40366,0.91308 0.73539,3.27208 0.76194,3.41189c0.46853,2.46761 0.68101,4.99505 1.0313,7.49236c0.65746,1.15844 1.26355,2.3672 1.8296,3.64494c0.62688,1.42741 0.9369,2.90068 1.30374,4.41182l-0.03349,0.12142h0.04089v1.08475c0,0.55228 -0.44772,1 -1,1c-0.25764,0 -0.49252,-0.09743 -0.66981,-0.25745l-1.38256,-1.23702l0.30289,-0.33853c-0.09533,-0.10166 -0.18827,-0.2047 -0.27903,-0.30903c-0.20546,-0.1154 -0.36603,-0.30127 -0.44893,-0.52485l-0.01879,-0.04729c-1.47278,-1.91262 -2.39995,-4.18372 -4.01496,-6.38421c-0.02613,-0.0356 -0.05238,-0.07113 -0.07874,-0.10659c0.98018,2.01859 1.77032,4.13989 2.47594,6.24937l-0.00193,0.04122l0.01224,-0.00304l0.45011,1.80925c0.02281,0.08385 0.03499,0.17208 0.03499,0.26315c0,0.55228 -0.44772,1 -1,1c-0.38703,0 -0.72271,-0.21987 -0.88894,-0.54153l-0.88224,-1.62806v0.5352c0,0.55228 -0.44772,1 -1,1c-0.4755,0 -0.87348,-0.33187 -0.97496,-0.77662l-0.30277,-1.20485l0.21728,-0.0546c-0.74201,-1.53478 -1.29522,-3.25268 -1.76582,-5.00567c-1.37063,-1.68914 -3.26937,-3.11177 -4.85809,-4.30299c0,0 -0.79811,-0.60251 -0.1956,-1.40062c0.60251,-0.79811 1.40062,-0.1956 1.40062,-0.1956c0.77924,0.5918 1.57977,1.20957 2.35445,1.86449c-0.33295,-0.78292 -0.85454,-1.97076 -0.83528,-3.02368c-0.47152,-0.6293 -0.91311,-1.25488 -1.30948,-1.95446l-0.2285,0.17026l-0.91757,-1.23145c-0.12817,-0.16811 -0.20428,-0.37804 -0.20428,-0.60576c0,-0.55228 0.44772,-1 1,-1c0.24698,0 0.47304,0.08954 0.64751,0.23792l0.48725,0.40871c-0.01447,-0.87757 0.21359,-1.59857 0.93659,-1.80633c1.45776,-0.41891 3.46036,1.76686 4.27966,2.64623c1.08501,1.16456 2.06994,2.33849 2.9714,3.5491c-0.11669,-1.09612 -0.25199,-2.18348 -0.4541,-3.24158c-0.2021,-1.05806 -1.5779,-4.54736 -0.49213,-5.53019c1.07931,-0.97698 2.61109,-0.11882 3.51132,0.60977c-0.72041,-2.11168 -1.36195,-4.22686 -1.99127,-6.1917l-0.36998,-1.1244c-0.03717,-0.10466 -0.0574,-0.21733 -0.0574,-0.33474c0,-0.55228 0.44772,-1 1,-1c0.12898,0 0.25225,0.02442 0.36545,0.06888l1.67177,0.61189l-0.14349,0.39204c2.29558,1.1434 3.21211,3.18354 5.16111,5.75588c0.17269,0.22792 0.34375,0.45624 0.51329,0.68495c-1.30529,-2.23775 -2.53649,-4.50337 -3.59903,-6.8073c-0.40893,-0.88668 -2.84072,-4.76221 -2.24914,-5.72655c1.77659,-2.89605 4.72623,1.0567 5.78078,2.14881c5.73905,5.95302 10.32988,12.49815 14.4728,19.43083c-0.21532,-0.83875 -0.42791,-1.67241 -0.65057,-2.49094c-1.93597,-7.11687 -4.15405,-14.50247 -8.33769,-20.67445c-3.98156,-5.90242 -8.78507,-11.14507 -12.67919,-17.16051l-0.00541,-0.02693l-0.00788,0.00454l-0.68878,-1.19575c-0.09026,-0.15025 -0.14216,-0.32617 -0.14216,-0.5142c0,-0.55228 0.44772,-1 1,-1c0.2357,0 0.45235,0.08154 0.62329,0.21796l1.56796,1.22752l-0.14248,0.182c3.28566,1.97186 6.07704,4.68694 9.04327,7.18553c1.93766,1.63219 3.87945,3.25405 5.81052,4.88555c-2.33711,-3.57111 -4.75078,-7.0927 -7.24396,-10.56289c-1.90114,-2.64615 -4.20793,-4.80292 -5.24142,-7.74186l-0.25675,0.10932l-0.45319,-1.06435c-0.05692,-0.12567 -0.08862,-0.26521 -0.08862,-0.41215c0,-0.55228 0.44772,-1 1,-1c0.16885,0 0.32793,0.04185 0.46743,0.11574l0.90585,0.4559l-0.02088,0.04148l0.12895,0.02168c9.37483,8.08064 17.53282,17.80965 25.25871,27.44587c1.29249,1.61207 2.52528,3.24378 3.7067,4.89795c-0.18144,-0.83362 -0.35809,-1.66814 -0.53127,-2.50329c-0.14291,-0.26516 -0.28565,-0.5305 -0.42821,-0.79601c-1.61112,-3.00054 -3.40547,-5.78862 -4.56651,-8.89734l-0.22102,0.11894l-0.93884,-1.74462c-0.0817,-0.14491 -0.12832,-0.31223 -0.12832,-0.49044c0,-0.55228 0.44772,-1 1,-1c0.30034,0 0.56976,0.13241 0.75306,0.34203l1.20596,1.36564c0.47715,0.45174 0.94017,0.91585 1.39162,1.3901c-0.86855,-4.36929 -1.7824,-8.72781 -2.93044,-13.03765c-0.74836,-2.33427 -2.06978,-4.5953 -2.66233,-6.9434c-0.21213,-0.84059 -0.97942,-1.93511 -0.39053,-2.57134c2.12602,-2.29693 5.88271,2.55838 7.05133,3.80334c5.49789,5.85703 10.21147,12.4093 15.10531,18.76472c2.65691,3.37865 5.22697,6.80434 7.74135,10.26569c1.57967,0.50102 3.24623,0.82342 4.59283,1.63553c-2.97023,-5.88802 -5.97137,-11.74575 -8.13335,-17.99629c-0.42943,-1.35889 -1.71123,-3.59736 0.53503,-4.69448c0.72568,-0.35443 1.57456,0.39309 2.31416,0.71749c1.4035,0.61559 2.79069,1.59774 4.11496,2.50164c-2.91377,-8.73966 -6.28775,-17.08724 -10.97775,-25.0486l-1.00655,-1.7087c-0.09321,-0.15197 -0.14694,-0.33075 -0.14694,-0.52209c0,-0.55228 0.44772,-1 1,-1c0.24797,0 0.47486,0.09026 0.64961,0.23971l1.5238,1.28591l-0.19248,0.22809c2.75304,1.96886 4.55307,4.59131 6.83819,7.46495c5.66128,7.11933 10.59597,14.78139 16.05158,22.05378c1.40822,1.87717 2.87535,3.65399 4.39948,5.37343c-3.58564,-6.02553 -7.1925,-12.0074 -10.93547,-17.94612c-2.36514,-3.75261 -5.11137,-7.50787 -6.8479,-11.62393c-0.07953,-0.12015 -0.15956,-0.24002 -0.24014,-0.35959l-0.04578,0.03411l-0.91757,-1.23143c-0.12817,-0.16811 -0.20429,-0.37805 -0.20429,-0.60576c0,-0.55228 0.44772,-1 1,-1c0.30574,0 0.57942,0.1372 0.76285,0.3534l0.70987,0.82667l-0.01929,0.01657l0.05306,0.02495c0.54107,0.78595 1.05742,1.58438 1.56025,2.39066c0.1543,0.23219 0.30482,0.47779 0.45155,0.7315c0.65895,1.07758 1.29994,2.16657 1.94926,3.25609c6.25399,9.62522 14.98713,19.49174 19.14371,30.42483l0.09866,-0.05363l0.94631,1.74081c0.08294,0.14571 0.13031,0.3143 0.13031,0.49395c0,0.55228 -0.44772,1 -1,1c-0.104,0 -0.2043,-0.01588 -0.2986,-0.04534l-1.05546,-0.30353l0.02388,-0.08305l-0.23796,-0.00654c-0.28732,-0.25394 -0.57178,-0.51 -0.8535,-0.76813l-1.2448,-0.18794l0.0461,-0.30534c-6.56975,-1.044 -12.0918,-6.42308 -17.53867,-10.35238c1.57537,5.52255 2.83228,11.14568 4.31273,16.69237c1.27838,4.78962 2.92296,10.30466 2.83548,15.41012l0.2668,-0.01559l0.11616,1.98789c0.00147,0.02216 0.00221,0.04451 0.00221,0.06704c0,0.55228 -0.44772,1 -1,1c-0.33254,0 -0.62716,-0.16231 -0.80897,-0.41203l-0.91661,-1.23018l0.00509,-0.00379l-0.01785,-0.01372c-4.33461,-6.37453 -8.662,-12.70285 -13.16609,-18.91733c-5.20161,-2.3424 -9.40837,-6.23184 -13.58382,-10.43472c0.42068,0.86868 0.80583,1.70048 1.17752,2.3594c3.76829,6.68041 7.74757,13.02879 12.71854,18.88931l0.86319,0.96505c0.15997,0.17728 0.25736,0.41212 0.25736,0.6697c0,0.55228 -0.44772,1 -1,1c-0.24698,0 -0.47305,-0.08954 -0.64751,-0.23792l-0.91885,-0.77075l0.10499,-0.12517l-0.10571,-0.11819c-1.68438,-0.89389 -3.10307,-2.08259 -4.75665,-3.32275c-5.36428,-4.02313 -9.23577,-9.11286 -13.38469,-14.05069c0.15669,0.75002 0.31738,1.49954 0.48347,2.24837c4.20438,7.78441 8.62406,15.38601 13.06277,23.0425l-0.00064,0.13185l0.04297,-0.0122l0.30158,1.06256c0.02879,0.09332 0.0443,0.19247 0.0443,0.29524c0,0.55228 -0.44772,1 -1,1c-0.20016,0 -0.38658,-0.05881 -0.54294,-0.16009l-0.54765,-0.34215c0.6917,1.38825 1.33289,2.86643 1.6319,4.21951c0.36269,0.71501 0.71724,1.4352 1.06356,2.16053l-0.01506,0.10342l0.04381,-0.0114l0.25222,0.96956c0.0247,0.08698 0.03791,0.17879 0.03791,0.27369c0,0.55228 -0.44772,1 -1,1c-0.40016,0 -0.74542,-0.23504 -0.90527,-0.5746l-0.88008,-1.77171l0.1992,-0.09895c-0.09091,-0.18425 -0.18236,-0.36815 -0.27433,-0.55171c-0.75442,-1.21204 -1.41445,-2.5085 -2.02881,-3.83934c-0.91184,-1.63855 -1.86766,-3.2476 -2.86669,-4.8266c-1.41296,-0.87715 -2.80426,-1.8067 -4.23234,-2.71456c-1.8567,-1.18035 -3.7589,-2.29664 -5.64451,-3.43769zM252.13018,184.48942v0.22365l0.12099,-0.06556c-0.04048,-0.05252 -0.08081,-0.10521 -0.12099,-0.15809zM313.94498,156.22645c3.27992,4.58868 6.47735,9.23412 9.66375,13.91019c-0.6771,-2.84336 -0.69767,-6.27421 -1.25028,-8.68512c-1.73711,-7.57868 -3.64961,-15.33345 -5.99165,-22.78062c-1.45229,-0.93494 -2.9054,-1.86398 -4.38111,-2.76333c-0.80121,-0.48829 -1.3503,-1.66354 -2.28826,-1.63924c-0.75604,0.01959 0.33593,1.48044 0.6098,2.18541c2.13642,6.18888 5.12105,11.98292 8.06015,17.81175l0.00414,0.01726l0.00329,-0.00152l0.829,1.79669c0.06464,0.13235 0.10091,0.28108 0.10091,0.43828c0,0.55228 -0.44772,1 -1,1c-0.10421,0 -0.2047,-0.01594 -0.29916,-0.04552l-1.89955,-0.54747l0.04582,-0.15898c-0.75606,-0.14871 -1.49102,-0.3288 -2.20684,-0.53778zM264.77251,128.73171c0.36047,0.5434 0.66078,0.99342 0.85738,1.24305c4.39169,5.57627 8.32679,11.61258 12.05202,17.70453c0.68448,0.60091 1.36578,1.20549 2.04319,1.81465c-1.23313,-2.11144 -2.52754,-4.14033 -3.74037,-6.02837l-0.00442,-0.0291l-0.00948,0.00538l-0.60708,-1.06936c-0.08838,-0.14912 -0.13911,-0.32318 -0.13911,-0.50909c0,-0.54416 0.43463,-0.9868 0.97568,-0.99971c-3.64776,-4.20078 -7.43645,-8.28638 -11.42781,-12.13198zM286.47332,155.90529c-1.04221,-1.62125 -2.14807,-3.20778 -3.3413,-4.75119c-0.25501,-0.32985 -0.56327,-0.6807 -0.90472,-1.04815c0.54211,1.03364 1.0572,2.07762 1.53819,3.13255c0.69441,0.66547 1.38296,1.33814 2.06481,2.01909c0.21535,0.21507 0.42969,0.43096 0.64301,0.6477zM248.07157,170.03985c0.25471,-0.03316 0.51806,-0.02383 0.78262,0.01908c-0.39002,-0.41407 -0.77424,-0.83256 -1.13648,-1.26778c0.14531,0.381 0.23165,0.78381 0.33559,1.17855c0.00615,0.02337 0.01224,0.04675 0.01826,0.07015zM260.502,136.07039c2.4394,3.24921 5.01362,6.37933 7.40271,9.65905c0.17078,-0.13592 0.38703,-0.21714 0.62226,-0.21714c0.27742,0 0.52846,0.11297 0.70962,0.29541l1.38536,1.39447v0c4.6875,4.71823 8.45379,10.13738 12.49421,15.3942c0.1448,-0.04764 0.28944,-0.05146 0.41483,-0.03707c-1.49905,-2.91363 -3.00574,-5.82346 -4.48735,-8.74611c-0.98463,-1.64962 -1.98418,-3.28959 -2.9989,-4.91975c-4.04748,-3.5473 -8.20523,-6.96876 -12.32994,-10.44321c-0.84484,-0.71165 -2.02738,-1.50931 -3.21279,-2.37984zM301.21963,173.39519c0.18139,0.11469 0.35963,0.23259 0.53299,0.35485c-1.2568,-2.12991 -2.49967,-4.2632 -3.72931,-6.40242c1.09705,1.97072 2.15467,3.97733 3.18431,6.02373c0.00399,0.00793 0.00799,0.01588 0.01201,0.02384zM291.21069,164.16026c-1.77166,-2.15911 -3.63616,-4.24851 -5.59098,-6.26642c0.7682,2.27483 1.3426,4.6014 1.65859,6.9853c2.11865,1.37421 4.29171,2.67887 6.45962,3.98578l-0.65817,-1.05997l0.01386,-0.0086l-0.03678,-0.03023c-0.60881,-1.21016 -1.22152,-2.41307 -1.84616,-3.60586zM295.68658,170.04403c-0.15727,-0.22341 -0.31546,-0.44617 -0.47455,-0.66828c-0.1204,0.07209 -0.25722,0.11957 -0.40353,0.13549c0.29302,0.17728 0.58576,0.35481 0.87808,0.53279zM290.54913,146.03334c3.13031,3.79739 5.88778,7.92393 9.3645,11.43119c1.58807,1.60203 3.44588,2.97914 5.29709,4.32261c-3.22185,-4.42419 -6.05372,-9.07433 -8.77363,-13.89618c-1.42375,-2.52403 -2.92421,-4.6564 -3.72758,-7.20404l-0.33653,0.12157l-0.60792,-1.6828c-0.04351,-0.11214 -0.06737,-0.23407 -0.06737,-0.36158c0,-0.55228 0.44772,-1 1,-1c0.27742,0 0.52846,0.11297 0.70962,0.29541l1.05347,1.0604c4.42732,4.45724 8.3505,8.50788 13.35596,12.09072c-1.69401,-2.27869 -3.41727,-4.53995 -5.17905,-6.78037c-4.05321,-5.26359 -7.97955,-10.64442 -12.36311,-15.63731c-1.61522,-1.83974 -3.26175,-3.55034 -4.99308,-5.27589c-0.39402,-0.3927 -0.7658,-0.80731 -1.16001,-1.19982c-0.15661,-0.15593 -0.64862,-0.60036 -0.49167,-0.44477c1.86371,1.84751 2.6065,5.23047 3.40166,7.71334c1.44987,5.43624 2.43932,10.94584 3.51766,16.44751zM318.06622,137.43032c3.3057,2.30232 6.34636,4.88781 9.66957,7.16373c1.95285,1.33742 4.29087,2.2225 6.47666,3.23972c-2.38583,-2.52077 -4.58524,-5.2009 -6.69179,-8.00895c-5.16524,-6.88533 -9.91892,-14.06131 -15.14048,-20.90709c-1.27775,-1.6752 -2.55704,-3.49308 -3.92687,-5.17542c3.72566,7.06632 6.57628,14.42318 9.09609,22.07462c0.17665,0.5364 0.34875,1.07426 0.51683,1.6134zM291.4088,160.11748c0.00187,0.00354 0.00374,0.00707 0.00561,0.01061c-0.00016,-0.001 -0.00033,-0.00199 -0.00049,-0.00299c-0.00171,-0.00254 -0.00341,-0.00508 -0.00512,-0.00762zM281.11794,153.48261c1.19747,2.35232 2.40864,4.69768 3.61722,7.04431c-0.53157,-1.88623 -1.27931,-3.78338 -2.15612,-5.65587c-0.48419,-0.46618 -0.97132,-0.92888 -1.4611,-1.38844zM276.52146,157.78249c2.74422,4.2033 5.69773,8.32186 9.24458,11.82369c-0.07028,-0.2232 -0.12839,-0.45062 -0.17645,-0.68152c-3.41854,-3.15862 -6.24145,-7.17696 -9.06813,-11.14217zM293.72846,159.75299c0.0546,0.21915 0.1085,0.43845 0.16151,0.65788c0.87521,1.3696 1.72253,2.7556 2.54631,4.15946c-0.90972,-1.6015 -1.81222,-3.20693 -2.70782,-4.81734z" fill="#a7a686" stroke="none" stroke-width="0.5"></path><path d="M368.83031,150.48992c-1.64043,-0.82489 -3.20556,-1.71785 -4.80742,-2.73918c-1.26628,-0.80737 -2.51337,-1.64864 -3.74382,-2.51728c0.10897,0.19063 0.21778,0.38137 0.32644,0.57221c1.71421,2.30695 3.44096,4.60628 5.17892,6.89987c8.44736,11.14805 17.14621,22.12944 25.75275,33.15612c0.85276,1.09258 1.69665,2.19133 2.54677,3.28346c-4.06134,-6.97447 -8.01615,-14.07986 -12.65876,-20.65555c-4.1724,-5.90969 -8.18486,-12.15767 -12.59488,-17.99964zM370.13768,148.90657c0.48431,0.23817 0.97651,0.4709 1.47989,0.69997c-0.85264,-1.15459 -1.52971,-2.69276 -2.11096,-4.30602c0.01284,0.2014 0.02398,0.40281 0.03332,0.60421l0.15373,-0.02448l0.31159,1.95699c0.01007,0.05694 0.01533,0.11554 0.01533,0.17537c0,0.19724 -0.0571,0.38114 -0.15568,0.53607c0.0911,0.11911 0.18202,0.23841 0.27277,0.35787zM364.71904,131.4167c-1.27434,-1.20297 -2.54867,-2.40593 -3.82301,-3.6089c-1.00572,-0.94939 -2.01473,-1.8954 -3.02665,-2.8384c0.47878,3.40829 0.90996,6.76289 1.23947,10.12279c0.70765,0.7444 1.42194,1.48198 2.14457,2.211c1.90984,1.92583 3.79359,3.89909 5.69381,5.8585c-0.4251,-2.30883 -0.49337,-4.8958 -0.88217,-6.78165c-0.1865,-0.90457 -0.37406,-1.8084 -0.56309,-2.71147c-0.2595,-0.74871 -0.51925,-1.5007 -0.78293,-2.25187zM329.77491,99.64921c-1.54419,-1.3756 -3.10927,-2.71886 -4.65687,-4.07747c0.03213,0.04545 0.06402,0.08999 0.09568,0.13358c3.71349,5.1139 7.41882,10.22699 11.03302,15.40588c-0.41534,-0.77649 -0.78614,-1.57658 -1.09656,-2.41204l-0.2746,0.1341l-0.86864,-1.77874c-0.07057,-0.13703 -0.11041,-0.29248 -0.11041,-0.45723c0,-0.55228 0.44772,-1 1,-1c0.31656,0 0.59876,0.14709 0.78199,0.37665l1.25471,1.54629l-0.00528,0.00429l0.01915,0.01319c2.76663,3.7379 5.34241,7.66384 7.82407,11.66703c0.88205,0.95375 1.75566,1.9159 2.62429,2.88294c-0.00124,-0.49241 0.01734,-0.92343 0.09525,-1.21585c0.38634,-1.44997 0.77778,-2.89867 1.1726,-4.34651c-6.26078,-5.66559 -12.5863,-11.26206 -18.88839,-16.87612zM388.91799,153.37277l-0.01663,-0.00116c-0.00579,-0.00666 -0.01159,-0.01331 -0.01738,-0.01997c-0.05027,-0.03128 -0.10044,-0.06274 -0.15053,-0.09439c0.07034,0.07815 0.14067,0.15631 0.211,0.23448l0.03323,-0.03833l-0.06403,-0.06841l0.00958,-0.00897c-0.00175,-0.00108 -0.00349,-0.00216 -0.00524,-0.00325zM390.24751,154.94212c1.99193,2.22049 4.21774,4.15613 6.1025,6.37798c0.26371,0.22415 0.52922,0.44646 0.79665,0.66682l0.00174,0.02124l0.00985,-0.01123l0.02511,0.02202l0.04698,-0.04997l1.45513,1.36823c0.19502,0.18248 0.3169,0.44217 0.3169,0.73033c0,0.55228 -0.44772,1 -1,1c-0.25435,0 -0.48653,-0.09496 -0.663,-0.25137l-1.49136,-1.30816c-0.43707,-0.36051 -0.86914,-0.72612 -1.29668,-1.09636c-0.85105,-0.58666 -1.68311,-1.38083 -2.46726,-2.22868c-3.17889,-2.98589 -6.1419,-6.19234 -9.10408,-9.40122c-3.59684,-3.89639 -7.02203,-7.85084 -10.3306,-11.87888c-1.59454,-1.50524 -3.18909,-3.01047 -4.78363,-4.51571c0.44452,1.26217 0.89512,2.50773 1.36922,3.71761c0.42672,1.08897 0.8771,2.17571 1.32698,3.26497c0.13344,0.22346 0.26661,0.44701 0.39951,0.67063c0.70929,1.19352 1.49583,3.01074 2.40319,4.73138c-0.35882,-0.34531 -0.71582,-0.69293 -1.07124,-1.04249c0.43766,1.19028 0.83749,2.39075 1.16921,3.6073l0.15054,-0.05899l0.72137,1.84089c0.04976,0.11879 0.07726,0.24923 0.07726,0.38609c0,0.55228 -0.44772,1 -1,1c-0.15297,0 -0.29792,-0.03435 -0.42755,-0.09575l-0.38609,-0.17242c3.5905,4.98128 6.97063,10.15617 10.46085,15.09965c5.3807,7.6211 9.84548,15.94566 14.61146,23.96482c1.70271,2.86495 3.92483,5.26572 5.65698,8.01628l0.19754,-0.16989l1.30057,1.51219c0.15285,0.17562 0.24539,0.4051 0.24539,0.6562c0,0.55228 -0.44772,1 -1,1c-0.2519,0 -0.48205,-0.09314 -0.65788,-0.24686l-1.50919,-1.30432c-4.62004,-3.9974 -8.20318,-8.88027 -11.94332,-13.67225c-7.49169,-9.5988 -15.05357,-19.16304 -22.45883,-28.83265c0.78549,1.43758 1.57089,2.87431 2.35917,4.30799c1.09319,1.98822 3.51419,5.04828 4.21868,7.70655c0.20141,0.38867 0.39815,0.78019 0.58962,1.17494l0.00254,0.04603l0.01401,-0.00534l0.70427,1.84734c0.04757,0.11653 0.07378,0.24405 0.07378,0.37769c0,0.55228 -0.44772,1 -1,1c-0.41572,0 -0.77219,-0.25368 -0.92306,-0.61468l-0.8031,-1.80672l0.09753,-0.04335l-0.00646,-0.01695c-0.11595,-0.23831 -0.23388,-0.47544 -0.35367,-0.71146c-1.05302,-1.60685 -1.98209,-3.32384 -2.87967,-5.05256c-1.61673,-2.60647 -3.34278,-5.15117 -4.95725,-7.77093c-1.69082,-2.74364 -3.33077,-5.48395 -4.99356,-8.20609c-0.15594,1.41225 -0.47983,2.78828 -1.02473,4.15088c-0.24026,0.6008 -0.30654,1.46487 -0.60226,2.04223c-0.81865,4.08257 -5.27197,0.35765 -7.36695,-0.94266c-4.93351,-3.07829 -9.24578,-7.45666 -13.5617,-11.72869c0.058,0.23949 0.11576,0.47901 0.17339,0.71854c2.1505,2.1943 4.26786,4.41929 6.29287,6.73317c2.23171,2.55007 4.58833,4.90836 6.40041,7.68735l0.18531,-0.16218l1.31396,1.50139c0.15599,0.17638 0.25067,0.40824 0.25067,0.66221c0,0.55228 -0.44772,1 -1,1c-0.22504,0 -0.43271,-0.07433 -0.59981,-0.19979l-1.6045,-1.17573c-1.52577,-1.12065 -3.00142,-2.34008 -4.43813,-3.62524c0.9766,2.4004 1.97761,4.79906 2.84601,7.23404c0.22015,0.61731 0.31473,1.28186 0.59693,1.87339c0.17995,0.3772 0.90268,0.5941 0.76916,0.99012c-0.11223,0.33288 -0.63424,-0.30244 -0.94726,-0.46189c-0.53278,-0.2714 -1.0582,-0.55705 -1.58992,-0.83053c-1.16644,-0.59995 -2.3816,-1.11006 -3.51043,-1.7781c-0.27425,-0.1623 -0.54778,-0.3265 -0.82065,-0.49247c-0.11478,0.04591 -0.24005,0.07116 -0.37121,0.07116c-0.38693,0 -0.72255,-0.21976 -0.88882,-0.54128l-0.25742,-0.47475c-1.32064,-0.8407 -2.6264,-1.71823 -3.92061,-2.61806c2.3111,5.8121 4.66992,11.60008 7.08054,17.37399c2.1559,3.71588 4.20054,7.47228 6.15586,11.15749l0.00568,0.08501l0.02381,-0.00801l0.63023,1.8735c0.03859,0.10641 0.05963,0.22122 0.05963,0.34095c0,0.55228 -0.44772,1 -1,1c-0.30776,0 -0.58305,-0.13903 -0.76649,-0.35771l-1.29059,-1.51888l0.25199,-0.21411c-2.79769,-2.97068 -3.88434,-6.7478 -5.58338,-10.78787c-0.08666,-0.20607 -0.17324,-0.41217 -0.25973,-0.61829c-3.57312,-6.15213 -7.44386,-12.19337 -11.7413,-17.61088c-3.04587,-4.31723 -6.70247,-8.58288 -9.29202,-13.18435c-1.80511,-3.20756 -3.05968,-6.63431 -4.13541,-10.12453c-0.18513,-0.35194 -0.36994,-0.70409 -0.55441,-1.05643c-2.16807,-4.14106 -4.38542,-8.25371 -6.51324,-12.41152c0.50687,0.59322 0.97048,1.14577 1.33411,1.63833c1.4322,1.93998 2.76458,3.94624 4.0445,5.98754c-0.28824,-1.02097 -0.57879,-2.04001 -0.88079,-3.05329c0,0 -0.28562,-0.95834 0.67272,-1.24396c0.95834,-0.28562 1.24396,0.67272 1.24396,0.67272c1.02976,3.45514 1.91638,6.984 3.04632,10.42233c1.60995,2.74148 3.21897,5.48435 4.93539,8.15713c0.29802,0.74389 0.59694,1.48973 0.89605,2.23824c0.33587,0.8405 0.6447,1.84095 0.97009,2.89124c1.67314,2.32348 3.46658,4.59427 5.12033,6.87155c0.3989,0.29527 0.79888,0.59005 1.20007,0.88372c0.19723,0.36946 0.39112,0.74159 0.58143,1.11668c-0.23774,-0.22155 -0.49345,-0.42586 -0.76255,-0.61725c1.80515,2.29645 3.53822,4.70246 5.20673,7.17976c-1.3108,-3.24298 -2.60492,-6.49268 -3.88625,-9.74983c-1.77318,-3.1866 -3.7817,-6.19479 -5.87182,-9.22811c-0.55536,-0.80597 -1.0989,-1.61906 -1.63319,-2.43769c-0.46525,-1.07593 -0.92582,-2.14518 -1.36533,-3.20783c-1.46108,-3.53264 -2.79271,-7.03282 -3.98723,-10.58266c-0.35108,-0.55597 -0.70566,-1.11158 -1.06364,-1.66715c-1.66593,-1.94201 -3.31125,-3.90674 -4.93744,-5.89946c-2.52919,-3.09925 -5.31044,-5.92309 -7.08749,-9.38558c-0.04006,-0.03907 -0.08013,-0.07814 -0.12019,-0.11722l0.00304,-0.07384l-0.03921,0.03226l-0.06129,-0.0745l-0.17593,0.11544l-1.08946,-1.66037c-0.10836,-0.15985 -0.17166,-0.35274 -0.17166,-0.5604c0,-0.55228 0.44772,-1 1,-1c0.31395,0 0.59411,0.14468 0.77744,0.371l1.23907,1.50621c1.41745,1.37827 2.83381,2.75766 4.25019,4.13703c2.09279,2.04965 3.70822,4.59267 5.2822,7.12118c-0.20197,-0.73085 -0.39825,-1.46586 -0.58876,-2.20571c1.46117,1.58011 3.76889,2.77004 5.61024,4.12398c-0.11566,-0.5654 -0.11894,-1.13038 0.10286,-1.63289c-0.02184,-0.0782 -0.04356,-0.15644 -0.06516,-0.23472c0,0 -0.26602,-0.96397 0.69795,-1.23c0.96396,-0.26602 1.22999,0.69794 1.22999,0.69794c0.00517,0.01874 0.01035,0.03747 0.01553,0.05621c1.25073,0.17277 3.01697,0.51583 3.40578,0.58685c0.1511,0.0276 0.30219,0.05491 0.45327,0.08195c-0.02696,-0.0778 -0.05371,-0.15568 -0.08023,-0.23362c-0.42962,-1.26314 -0.85924,-2.52628 -1.28886,-3.78942l-0.00021,-0.00268l-0.00062,0.00021l-0.62671,-1.87468c-0.03818,-0.10591 -0.05899,-0.22012 -0.05899,-0.33919c0,-0.55228 0.44772,-1 1,-1c0.25344,0 0.48485,0.09427 0.66109,0.24967l1.50343,1.31145l-0.12428,0.14248c2.78074,1.88379 4.98992,4.20456 6.96244,6.75697c0.47317,0.06396 0.94685,0.12699 1.42112,0.18942c0.07006,0.00738 0.14109,0.01537 0.21303,0.02389c-0.76998,-0.87087 -1.48731,-1.78454 -2.13462,-2.76382c-0.78421,-0.10698 -0.81428,-0.95374 -0.81428,-0.95374l-0.00196,-0.05521l-0.06436,0.05008l-1.22272,-1.57145c-0.13538,-0.1706 -0.21623,-0.38641 -0.21623,-0.62112c0,-0.33078 0.1606,-0.62404 0.40808,-0.80608c-2.05241,-1.64535 -4.15788,-3.17518 -6.29832,-4.56021c0,0 -0.83956,-0.54326 -0.2963,-1.38283c0.54326,-0.83956 1.38283,-0.2963 1.38283,-0.2963c2.12408,1.37445 4.21427,2.88761 6.25373,4.51245c0.00136,-0.03983 0.00279,-0.07967 0.00428,-0.11952l-0.11841,0.01249l-0.20826,-1.97506c-0.00461,-0.03895 -0.00698,-0.07859 -0.00698,-0.11877c0,-0.55228 0.44772,-1 1,-1c0.27495,0 0.52398,0.11096 0.70475,0.29055c0.00006,0.00006 0.00012,0.00011 0.00017,0.00017l0.30995,0.3079c-3.92599,-5.72558 -7.98209,-11.35438 -12.06394,-16.97555c-2.32854,-3.20666 -4.99661,-6.2916 -6.81809,-9.79247l-0.04469,-0.04776l-0.18423,0.13568l-1.17968,-1.60179c-0.12627,-0.16741 -0.20114,-0.37576 -0.20114,-0.60161c0,-0.55228 0.44772,-1 1,-1c0.28914,0 0.54962,0.12271 0.7322,0.3189l1.36441,1.45842l-0.00157,0.00146l0.00617,0.00349c3.57973,3.93165 7.69304,7.24767 11.6613,10.7827c6.05439,5.3934 12.13028,10.77067 18.14981,16.2084c0.05602,-0.20381 0.11209,-0.4076 0.1682,-0.61138c-2.33621,-2.30843 -4.64008,-4.67571 -6.37769,-7.40347c-0.04585,-0.04243 -0.09172,-0.08484 -0.13762,-0.12723l-0.00072,-0.01508l-0.00723,0.00749l-0.06085,-0.05872l-0.13809,0.11875l-1.30046,-1.51228c-0.15282,-0.17561 -0.24535,-0.40508 -0.24535,-0.65615c0,-0.55228 0.44772,-1 1,-1c0.27021,0 0.51539,0.10717 0.69535,0.28133l1.43229,1.38219c2.05393,1.89666 4.05533,3.83737 6.01652,5.81286c0.11116,-0.4011 0.2224,-0.80218 0.33368,-1.20325c-2.99764,-4.21509 -5.98923,-8.43444 -8.95782,-12.67009c-2.30206,-3.28462 -5.08777,-6.4412 -6.64821,-10.09498l-0.30468,0.16065l-0.92386,-1.75216c-0.07926,-0.14327 -0.12438,-0.30806 -0.12438,-0.48339c0,-0.55228 0.44772,-1 1,-1c0.29679,0 0.56339,0.1293 0.74653,0.33464l1.33442,1.48368l-0.0063,0.00567l0.02465,0.01532c5.25387,6.53803 10.06954,13.44229 14.87511,20.3413c0.07865,-0.28371 0.15727,-0.56743 0.23584,-0.85116c-1.57306,-6.30811 -3.35031,-12.57454 -5.03803,-18.80617l-0.70306,-1.80512c-0.04927,-0.11829 -0.07648,-0.24808 -0.07648,-0.38422c0,-0.55228 0.44772,-1 1,-1c0.28019,0 0.53347,0.11523 0.71503,0.3009l1.1889,1.21382c-0.59537,-1.19541 -1.19025,-2.39107 -1.78455,-3.58702c-0.36187,-0.72821 -2.59287,-3.89374 -2.54306,-4.57533c0.02088,-0.2857 0.59,-0.18376 0.85591,-0.07721c1.53228,0.61402 3.22665,2.18038 4.63258,3.07793c3.89423,2.4861 7.77961,4.88446 11.41173,7.74092c1.14255,1.22548 2.28672,2.4448 3.42854,3.66329c-0.95479,-1.95907 -1.84663,-3.93809 -2.77722,-5.89696c-1.61291,-1.73712 -3.22071,-3.48897 -4.81231,-5.27034c-6.09447,-6.82107 -12.94115,-13.11493 -19.46182,-19.6054c0.4423,0.14023 0.90831,0.29786 1.39662,0.53566c2.29291,1.11659 4.54079,2.77871 6.67818,4.17368c6.94707,4.53401 13.35217,9.59037 19.76747,14.81509c-1.29734,-2.02788 -2.59447,-4.0559 -3.89132,-6.08409c-0.97528,-1.52527 -2.00146,-2.99217 -2.95543,-4.47767c-0.83247,-0.68177 -1.66806,-1.35945 -2.50709,-2.03259c-0.10528,-0.08446 -0.2105,-0.16908 -0.31564,-0.25381c0.74713,0.45708 1.49553,0.91213 2.24427,1.36666c-0.99607,-1.62184 -1.87757,-3.28414 -2.48772,-5.0849l-0.27328,0.12715l-0.83474,-1.79415c-0.06548,-0.13303 -0.10226,-0.28274 -0.10226,-0.44103c0,-0.55228 0.44772,-1 1,-1c0.33946,0 0.63941,0.16914 0.82018,0.42774l1.14671,1.59821c0.40987,0.5118 0.81975,1.02359 1.22962,1.53539c2.34201,2.92543 4.56629,5.95725 6.71167,9.05543c2.05501,1.29431 4.08944,2.62199 6.08335,4.01524c1.34047,0.93666 2.68241,1.87299 4.02444,2.81048c-1.40663,-2.9582 -2.83132,-5.90751 -4.29619,-8.83717c-0.41635,-0.35735 -0.82697,-0.71567 -1.22752,-1.07698c-7.31797,-6.60115 -15.40858,-12.87319 -21.81667,-20.3617c-2.55806,-2.98936 -5.31534,-5.7749 -7.07217,-9.32306l-0.01981,-0.03991l0.03266,-0.15232c0.55647,0.20403 1.15491,0.339 1.68823,0.58935c2.0888,0.98053 4.28238,3.35245 6.08112,4.81674c5.61691,4.57252 11.02916,9.38185 16.41795,14.21763c0.03398,-0.09134 0.07924,-0.17594 0.13369,-0.25504c-1.13507,-2.25647 -2.29754,-4.50029 -3.52702,-6.70112c-1.73935,-2.51016 -3.55743,-5.01261 -4.82367,-7.741c-0.11216,-0.15882 -0.225,-0.31717 -0.33855,-0.47502l-0.04436,-0.06172l-0.13917,0.08352l-1.02072,-1.70079c-0.09571,-0.15338 -0.15102,-0.33457 -0.15102,-0.52867c0,-0.55228 0.44772,-1 1,-1c0.33914,0 0.63885,0.16882 0.81967,0.42701l1.15962,1.61337c0.42853,0.59668 0.8472,1.20013 1.25695,1.80962c1.65604,2.0139 3.01283,4.98589 4.12116,6.67213c1.32897,2.02193 2.6746,4.03179 4.03208,6.03323c0.2839,-0.05817 0.65987,-0.01882 0.96737,0.41704c0.31938,0.45272 0.21099,0.83156 0.0508,1.07943c2.00783,2.94221 4.03883,5.86812 6.0777,8.78933c8.25972,7.23283 16.33619,14.58683 23.86927,22.60202c2.07524,2.76007 4.12342,5.55715 6.22429,8.3051c-5.62868,-4.55225 -11.44772,-8.87679 -17.33888,-13.10014c5.65784,7.52576 11.54313,14.8895 17.45193,22.20313c4.86877,6.02634 9.62924,12.13961 15.37504,17.30306c-1.09737,-2.28301 -1.7979,-5.1975 -2.53136,-7.02288c-2.46929,-6.14539 -5.14249,-12.11471 -7.96436,-18.05233c-2.62156,-3.11634 -5.3092,-6.17933 -8.07108,-9.18822c-0.53794,-0.58605 -1.07883,-1.16847 -1.62253,-1.74747c-1.10906,-1.47539 -2.22605,-2.93986 -3.36333,-4.38001c-8.68059,-10.99231 -17.20403,-22.00217 -27.15219,-31.86958c1.13884,0.1538 2.18992,-0.2101 3.48427,0.11704c3.40132,0.85968 7.0794,4.12236 9.97307,6.03447c2.58562,1.70856 5.12414,3.39209 7.61191,5.12907c-1.62205,-2.65814 -3.28752,-5.28888 -5.00119,-7.887c-4.3889,-6.65593 -8.77287,-13.29907 -13.35229,-19.82558l-1.28566,-1.47363c-0.15543,-0.17624 -0.24972,-0.40768 -0.24972,-0.66114c0,-0.55228 0.44772,-1 1,-1c0.16604,0 0.32264,0.04047 0.46045,0.11208l1.77558,0.87542l-0.01003,0.02033c0.05725,0.02455 0.11398,0.05061 0.17013,0.07832c2.40815,1.18853 5.02831,5.52424 6.8526,7.53801c5.77092,6.37032 11.31791,12.9236 16.87763,19.4766c-0.48416,-0.99224 -0.95741,-1.99067 -1.41916,-2.99563c1.79216,2.44071 3.52241,4.93287 5.2031,7.45707c2.97201,3.50895 5.9573,7.03524 9.00312,10.51086c-5.30921,-8.76883 -10.97576,-17.49618 -17.46952,-25.45143c-1.77489,-4.09447 -3.53109,-8.19286 -4.77202,-12.47911c0.85077,0.68554 1.87883,1.02004 2.92534,1.78487c2.07884,1.51929 3.9352,3.57651 5.8441,5.30778c3.8722,3.51187 7.45791,7.29961 10.9737,11.15884c-1.89872,-3.18613 -3.78311,-6.36888 -5.67782,-9.51738c-2.73725,-4.54859 -5.49009,-9.07276 -8.30218,-13.56175c-2.79361,-3.34919 -5.81598,-6.49355 -9.13384,-9.42311l-0.00951,-0.01478l-0.00299,0.00316l-1.45154,-1.37239c-0.19375,-0.18238 -0.31473,-0.44121 -0.31473,-0.72829c0,-0.55228 0.44772,-1 1,-1c0.08288,0 0.16341,0.01008 0.24042,0.02909l1.93019,0.43383l-0.07366,0.32774c0.0929,0.01761 0.18542,0.03601 0.27758,0.05518l-0.0714,-0.10805c-0.1094,-0.16034 -0.17337,-0.35416 -0.17337,-0.56292c0,-0.55228 0.44772,-1 1,-1c0.27516,0 0.52436,0.11113 0.70517,0.29096c0.00005,0.00005 0.00009,0.00009 0.00014,0.00014l1.41794,1.4102l-0.17817,0.17915c0.45776,0.34423 0.89857,0.70295 1.32835,1.07368c1.0804,0.43234 2.17527,0.9113 3.33945,1.38217c9.20113,3.7215 17.94722,9.31579 26.43242,14.45361c3.84939,2.33082 7.61361,4.72982 11.31465,7.2004c-0.75322,-1.72613 -1.54569,-3.44537 -2.38277,-5.15825c-3.28832,-6.7288 -6.59,-13.45018 -9.91437,-20.161c0.09095,0.08986 0.18194,0.18324 0.27258,0.28093c1.3318,1.43537 2.50257,3.08854 3.73668,4.60928c5.83922,7.19538 10.89735,15.15189 16.25698,22.7126c1.57276,2.21866 3.13973,4.42702 4.71039,6.62348c3.521,2.59513 7.0057,5.26317 10.47496,8.00736c2.55201,2.01863 5.07786,4.06802 7.58227,6.14274c3.14955,1.29676 6.2991,2.59352 9.44865,3.89028c-0.55607,-1.31293 -1.11215,-2.62585 -1.66822,-3.93878c-0.52931,-0.83066 -1.06034,-1.66212 -1.595,-2.49346c-7.55585,-11.74861 -13.74065,-24.43578 -21.65938,-35.93042c-7.77613,-11.28765 -15.04007,-23.86674 -25.16729,-33.24978c-4.38403,-4.06889 -9.19455,-7.94247 -13.14552,-12.42994l-1.31748,-1.49852c-0.15682,-0.17657 -0.25207,-0.40906 -0.25207,-0.66379c0,-0.55228 0.44772,-1 1,-1c0.07391,0 0.14595,0.00802 0.2153,0.02323l1.94137,0.38617l-0.05715,0.28732c3.39447,0.58698 5.84778,2.36918 9.17252,4.39933c7.83658,4.78515 15.05906,11.69097 21.21116,18.54295c1.04576,1.16569 2.09034,2.33219 3.13372,3.49954c-3.20513,-7.80837 -6.21715,-15.67711 -9.18925,-23.60749c4.93151,7.55862 9.82304,15.11368 14.47446,22.85031c4.06673,6.76413 8.08991,13.55714 12.05955,20.38106c2.43992,2.79361 4.87275,5.59409 7.29834,8.40232c9.08054,10.51299 18.27363,21.52215 26.30251,32.85376c1.1537,1.62829 2.30741,3.25657 3.46107,4.88489l1.17962,1.59218c0.12724,0.16777 0.20274,0.37693 0.20274,0.60373c0,0.55228 -0.44772,1 -1,1c-0.23991,0 -0.46008,-0.08448 -0.6324,-0.22532l-1.55306,-1.2477l0.14952,-0.18611c-4.06118,-2.44402 -7.01619,-6.05448 -10.21669,-9.71858c-3.1998,-3.66329 -6.41132,-7.31543 -9.59039,-10.99557c4.82854,7.95377 9.87865,15.70074 15.15265,23.47079c0.15119,0.30393 0.30086,0.60861 0.44876,0.91413c0.57509,1.18795 1.05151,2.42118 1.57871,3.63114c0.25725,0.59041 0.44262,1.21782 0.77282,1.77074c0.20072,0.33611 1.18351,0.93342 0.79879,0.86097c-0.40499,-0.07627 -0.51317,-0.67484 -0.8734,-0.87502c-1.16547,-0.64766 -2.51749,-0.87941 -3.77623,-1.31912c-3.7119,-1.29666 -7.59565,-2.37533 -11.10839,-4.14531c-0.19669,-0.09884 -0.39333,-0.19765 -0.58993,-0.29645c0.99916,1.50267 2.03052,2.97339 3.11148,4.39093c3.06684,4.02177 7.17654,7.28179 10.03157,11.40928c0.16137,0.15686 0.32212,0.31444 0.48217,0.47281l0.00003,0.00151l0.00074,-0.00075l0.03812,0.03789l0.08363,-0.07506l1.33328,1.48548c0.1606,0.17741 0.25842,0.41272 0.25842,0.67088c0,0.55228 -0.44772,1 -1,1c-0.27507,0 -0.52419,-0.11106 -0.70499,-0.29078c-0.00005,-0.00005 -0.0001,-0.0001 -0.00016,-0.00015l-1.41772,-1.40926c-1.88543,-1.86653 -3.87044,-3.62003 -5.83803,-5.39931c-4.11928,-3.72532 -8.25578,-7.42901 -12.43299,-11.084c0.80282,1.8955 1.60563,3.791 2.40845,5.6865c0.65702,1.55125 1.31444,3.95656 2.22526,6.04174c-3.88016,-3.78858 -7.52494,-7.7725 -11.06217,-11.91002c-2.51155,-2.93776 -4.93485,-5.91324 -7.29747,-8.92183c2.67657,1.42589 5.36752,2.82505 8.07035,4.21046c-1.96879,-1.6828 -3.94875,-3.35234 -5.94227,-5.00586c-3.63088,-1.49494 -7.26177,-2.98988 -10.89265,-4.48481c-11.21306,-4.61674 -21.34875,-10.50987 -31.58286,-16.76721c2.32059,2.78113 4.6591,5.54697 6.99889,8.31359c5.16334,6.10578 9.91928,12.54418 15.16114,18.58475c0.32539,0.37497 0.65949,0.74939 0.99952,1.12408c-0.28801,-1.1056 -0.57876,-2.2075 -0.87344,-3.3058c1.67802,2.78349 3.44662,5.51503 5.31894,8.16414c1.26782,1.46087 2.45417,2.97479 3.41554,4.58486c0.06562,0.08365 0.13128,0.1672 0.19699,0.25064l0.20302,-0.13107l1.07689,1.66801c0.04,0.0599 0.07371,0.12437 0.10017,0.19245c2.28941,2.83041 4.64547,5.55257 7.1208,8.21077c-1.8236,-0.85712 -3.79778,-1.57433 -5.13975,-2.39159c-1.48825,-0.90634 -2.99291,-1.79333 -4.5,-2.67863c2.15707,2.42172 4.33417,4.82269 6.58747,7.14145l1.39286,1.43378c0.17542,0.18016 0.28347,0.42624 0.28347,0.69756c0,0.55228 -0.44772,1 -1,1c-0.20368,0 -0.39315,-0.0609 -0.55117,-0.16548l-1.67253,-1.06939l0.14533,-0.2273c-0.75908,-0.36582 -1.48397,-0.77678 -2.18297,-1.22382c-0.40309,0.438 -0.94182,0.79329 -1.44587,1.05031c-0.18761,0.09566 -3.99441,-0.02704 -4.38929,-0.03749c-1.52621,-0.04039 -3.05243,-0.08079 -4.57864,-0.12118c2.035,2.07534 4.04933,4.17106 6.132,6.19167c-0.07378,-0.03915 -0.146,-0.07826 -0.2165,-0.11736c-1.31429,-0.72893 -2.62862,-1.45778 -3.943,-2.18654c1.9542,2.39279 3.97086,4.73413 5.49939,7.37642l0.19288,-0.15221l1.23376,1.56339c0.13777,0.17137 0.22022,0.38911 0.22022,0.62611c0,0.55228 -0.44772,1 -1,1c-0.24577,0 -0.47083,-0.08866 -0.64495,-0.23575l-1.53188,-1.27555c-5.18401,-4.31658 -10.33216,-8.58601 -15.40373,-12.98881c-4.00983,-0.07348 -8.12732,-0.21964 -12.08719,-0.82843c0.76803,1.08531 1.50779,2.18404 2.19652,3.30422c3.9851,6.48149 6.88197,13.648 10.58188,20.31173c-2.81142,-2.56361 -5.16365,-5.57871 -7.94728,-8.16752c-2.8514,-2.65184 -5.8848,-5.15247 -8.95995,-7.607c-0.36952,-0.46932 -0.74031,-0.9375 -1.11241,-1.40455c1.64752,3.65674 3.2318,7.34622 4.74035,11.10058c1.25648,3.12704 2.67893,6.14733 3.53593,9.3563l0.19247,-0.07734l0.73724,1.83478c0.05184,0.12087 0.08055,0.25401 0.08055,0.39385c0,0.55228 -0.44772,1 -1,1c-0.24441,0 -0.46835,-0.08769 -0.64206,-0.23332l-1.53683,-1.26914c-6.75426,-5.57778 -12.12387,-12.47684 -17.62248,-19.28276c-7.20883,-8.92276 -14.3821,-17.92032 -21.15304,-27.19379c-0.40926,-0.28841 -0.81869,-0.57653 -1.22826,-0.86437c-0.57337,-0.80548 -1.15756,-1.59965 -1.76057,-2.3729c0.74346,1.51056 1.45615,3.03664 2.20533,4.52443c1.30041,2.58247 3.11789,5.34854 4.40168,8.12729c1.45432,1.85563 2.97577,3.69764 4.44412,5.57533c-0.83196,-0.70123 -1.65658,-1.40231 -2.45494,-2.11359c-0.32626,-0.29067 -0.65241,-0.58156 -0.97848,-0.87264c0.01727,0.05625 0.0342,0.1125 0.05075,0.16872c0.44386,1.50726 0.77918,3.23746 1.01484,5.05617c3.22374,3.08891 6.32988,6.28211 9.25342,9.61388c1.00295,1.14299 1.98739,2.30341 2.95486,3.47908c1.61782,2.71762 3.22772,5.43981 4.8228,8.17124c-3.45251,-2.43658 -6.88222,-4.90433 -10.07182,-7.66575c-0.66729,-0.57771 -1.3348,-1.15466 -2.0026,-1.73083c2.67931,5.2822 5.34969,10.57506 8.20686,15.75598c2.20867,4.00498 4.989,8.03755 6.55111,12.37498l0.20937,-0.11546l0.95694,1.73532c0.0847,0.14685 0.13317,0.31723 0.13317,0.49893c0,0.55228 -0.44772,1 -1,1c-0.32894,0 -0.62078,-0.15882 -0.80303,-0.40396l-1.20312,-1.58364l0.0079,-0.006l-0.02619,-0.01886c-2.22039,-3.32922 -4.39992,-6.60738 -6.90977,-9.72575c-3.90591,-4.8529 -7.43638,-9.90287 -10.81541,-15.05156c0.97531,2.58702 1.95053,5.17406 2.92732,7.76049c0.0268,0.07097 0.05372,0.14192 0.08076,0.21285c2.82357,3.85357 5.49996,7.80065 7.68437,12.10347c0.0881,0.17354 0.17568,0.35889 0.26319,0.55413c-2.06977,-2.84994 -4.16867,-5.67547 -6.28269,-8.4905c0.91208,2.26037 1.79175,4.53556 2.39935,6.87221l0.16958,-0.06609l0.71798,1.84218c0.04932,0.11835 0.07656,0.24821 0.07656,0.38443c0,0.55228 -0.44772,1 -1,1c-0.20437,0 -0.39443,-0.06131 -0.55278,-0.16654l-1.67044,-1.07287c-1.38792,-0.89519 -2.61918,-1.93823 -3.81572,-3.03425c1.14529,3.17922 2.47809,6.23815 3.15751,9.48355l0.22746,-0.07381l0.61012,1.88014c0.03629,0.10356 0.05603,0.21491 0.05603,0.33087c0,0.55229 -0.44772,1 -1,1c-0.27873,0 -0.53083,-0.11404 -0.71218,-0.29801l-1.4044,-1.42316c-6.41746,-6.51501 -11.67327,-14.55059 -16.96158,-22.20626c1.06788,2.28303 2.12256,4.57459 3.16502,6.87672c0.79733,1.7608 1.8082,3.55534 2.44116,5.38083c0.35934,1.03636 0.44345,1.97305 0.7209,2.84509c-1.57219,-1.64792 -3.1494,-3.28235 -4.60395,-5.03847c-3.39901,-4.1012 -6.89388,-8.12342 -10.36567,-12.16349c-0.3609,-0.99991 -0.72762,-1.99262 -1.10029,-2.97919c0.91469,3.64759 1.7651,7.30807 2.5649,10.9857c0.7024,0.92654 1.40834,1.84875 2.11846,2.76683c0.66851,0.69757 1.33654,1.39568 2.00408,2.09435c6.46023,6.76404 13.85164,12.53334 19.99364,19.59361l1.35568,1.44852c0.16837,0.17896 0.27154,0.41998 0.27154,0.68509c0,0.55228 -0.44772,1 -1,1c-0.25242,0 -0.48299,-0.09352 -0.65896,-0.24781l-0.58196,-0.50454c0.1594,0.17748 0.31874,0.355 0.47803,0.53257zM347.86265,135.38753c2.48986,4.10118 4.65901,8.4079 6.71912,12.70757c0.47836,0.99839 1.58613,2.68653 2.43911,4.31091c0.3216,-1.26139 0.73047,-2.43014 0.73737,-3.89135c0.00171,-0.36099 0.00165,-0.72103 -0.0001,-1.08021c-1.29544,-2.07416 -2.62056,-4.13438 -4.00852,-6.17401c-0.19536,-0.17368 -0.39141,-0.3463 -0.58811,-0.51795c0.13304,0.08101 0.26634,0.1617 0.39989,0.24207c-0.19424,-0.284 -0.38973,-0.5676 -0.58656,-0.85077c-0.25735,-0.37024 -0.51834,-0.74008 -0.78288,-1.10936c-1.4585,-1.19684 -2.89997,-2.41337 -4.32933,-3.63689zM342.87974,146.25827c2.82176,2.65415 5.52569,5.74864 8.82559,7.7849c0.53981,0.33504 3.68928,2.85734 4.32865,2.68909c0.02597,-0.00684 0.04993,-0.01498 0.07194,-0.02437c-0.37021,-0.39274 -0.71254,-0.89553 -1.07667,-1.22025c-1.49613,-1.33419 -2.76799,-3.06306 -3.92169,-4.68586c-3.47559,-4.89784 -7.10484,-9.72191 -10.37038,-14.76221c-1.58922,-2.45293 -3.05387,-5.29458 -4.77285,-7.78505c-1.43277,-0.19482 -2.86122,-0.39858 -4.2879,-0.61989c1.04679,2.58274 2.1863,5.13355 3.0525,7.77359c0.49982,1.52335 0.94515,3.07279 1.36024,4.63515c2.29038,2.03079 4.54444,4.10222 6.79056,6.21492zM352.77812,148.95929c-3.06762,-6.40245 -6.36946,-12.84627 -10.66524,-18.55105c-0.58104,-0.51594 -1.15135,-1.03479 -1.70615,-1.56285c-0.80086,-0.10397 -1.56671,-0.2215 -2.25604,-0.3069c1.81147,2.59079 3.48944,5.34505 5.34078,8.07462c2.98733,4.40447 6.16715,8.69084 9.24716,13.03123c0.27323,0.38579 0.57635,0.75613 0.89353,1.11887c-0.28344,-0.60232 -0.5668,-1.20443 -0.85404,-1.80392zM352.26905,116.57593c-0.38674,-0.39309 -0.77886,-0.78432 -1.17373,-1.17517c-0.0462,0.16788 -0.09245,0.33575 -0.13874,0.50361c1.36466,1.23783 2.72603,2.47914 4.0832,3.72485c-0.01552,-0.09171 -0.03114,-0.18342 -0.04684,-0.27511c-0.90636,-0.92748 -1.81425,-1.85358 -2.72389,-2.77817zM342.26854,123.52406c-1.75977,-1.66667 -3.51049,-3.3428 -5.23961,-5.04164c0.08517,0.40499 0.11875,0.81886 0.13067,1.24568c2.42528,2.05244 4.76807,4.2553 6.99851,6.56067c-0.63236,-0.91956 -1.26224,-1.84109 -1.88957,-2.76471zM342.10689,127.04939c-0.20871,-0.21194 -0.41839,-0.42295 -0.629,-0.63297c0.17548,0.20687 0.34942,0.41492 0.52186,0.6241c0.03571,0.00306 0.07143,0.00602 0.10714,0.00886zM341.94155,119.43393c-0.1159,-0.16383 -0.23164,-0.32777 -0.34724,-0.49182c-0.00836,-0.01187 -0.01673,-0.02373 -0.0251,-0.03559c0.17024,0.25479 0.34068,0.50942 0.51131,0.76387c-0.04641,-0.07876 -0.09274,-0.15758 -0.13898,-0.23646zM362.28111,143.55844c-0.88081,-0.46922 -1.76595,-0.94164 -2.65012,-1.42082c0.00271,0.05691 0.00538,0.11384 0.00801,0.17078c1.58325,1.16479 3.19383,2.28833 4.83894,3.35684c-0.75095,-0.6787 -1.47991,-1.38593 -2.19683,-2.10679zM354.01937,100.88743c0.96426,0.26497 0.69928,1.22923 0.69928,1.22923c-0.25492,0.92766 -0.50867,1.85571 -0.76176,2.78398c0.50992,2.06295 0.99725,4.13037 1.45212,6.20237c0.69566,0.98976 1.39342,1.9774 2.09456,2.96182c1.62124,1.99293 3.28033,3.95924 4.95548,5.91396c-0.86089,-3.5996 -1.77821,-7.18746 -2.77787,-10.76382c-0.22745,-0.72623 -1.45535,-4.27222 -0.98142,-4.76894c-1.65467,-3.71319 -3.40789,-7.3989 -5.26736,-11.11843c-0.26277,-0.52562 -0.52549,-1.05127 -0.78816,-1.57694c-0.97726,-1.0945 -2.14577,-2.26816 -3.11282,-3.44392c1.17307,4.27043 2.36338,8.55918 3.4806,12.86723c0.18303,-0.22301 0.4974,-0.42666 1.00733,-0.28653zM349.41921,121.40178c-0.28046,0.98641 -0.15979,1.92694 -0.10618,2.83484c2.4979,2.81386 4.97554,5.64697 7.51685,8.41423c-0.36151,-3.24366 -0.80482,-6.49796 -1.28641,-9.81989c-0.00108,-0.00745 -0.00216,-0.0149 -0.00324,-0.02236c-1.72039,-1.58915 -3.44826,-3.17052 -5.18173,-4.74598c-0.31029,1.1139 -0.6231,2.22705 -0.93929,3.33916zM327.75912,126.97579c-0.66471,-0.12155 -1.35013,-0.16009 -1.9941,-0.36482c-0.18979,-0.06034 -0.36131,-0.23188 -0.52992,-0.38525c0.46658,1.54518 0.97729,3.07377 1.52513,4.58826c1.2695,1.4236 2.50922,2.86355 3.72896,4.31626c0.04978,0.07524 0.09961,0.15044 0.14948,0.2256c0.90608,0.754 1.80358,1.5139 2.69408,2.27973c-0.16202,-0.53747 -0.32971,-1.07229 -0.50412,-1.60386c-0.97726,-2.97851 -2.30335,-5.84431 -3.45081,-8.77038c-0.53958,-0.09185 -1.0791,-0.18688 -1.6187,-0.28554zM430.18656,98.24625c-1.11538,-0.98295 -2.22672,-1.97377 -3.33357,-2.97441c-1.22772,-0.44535 -2.4755,-0.75648 -3.74625,-0.84576c-2.14191,-3.29448 -4.395,-6.4865 -6.7958,-9.56192c-3.38611,-3.60784 -6.66469,-7.32862 -9.89253,-11.08138c-0.91462,-0.8904 -1.84945,-1.76677 -2.80572,-2.62865c-0.38341,-0.66128 -0.76256,-1.32497 -1.13726,-1.99118c-1.44988,-1.70827 -2.8941,-3.41629 -4.33798,-5.11651c-5.60348,-6.59832 -11.14122,-13.25143 -16.95331,-19.66719c-0.45008,-0.49683 -0.95492,-1.00951 -1.48888,-1.53653c2.6733,3.9623 5.3034,7.95285 7.93696,11.94675c2.58176,3.91639 5.05544,7.90576 7.43684,11.95091c2.00956,1.50566 3.98302,3.07772 5.9183,4.76057c0.35484,0.30855 0.7067,0.61908 1.05566,0.93156c3.80303,6.5326 8.01511,12.83404 12.45132,19.01123c1.37111,1.9092 2.83335,3.79706 4.25697,5.70947c3.68843,0.75127 7.59108,0.99277 11.43525,1.09304zM329.73452,122.29961c0.2169,0.63769 0.43379,1.2754 0.65068,1.91309c0.14382,0.42308 0.29417,0.84396 0.44952,1.26315c1.12698,0.18296 2.25461,0.35342 3.38422,0.51568c-1.21181,-1.34979 -3.09855,-2.38255 -4.48442,-3.69192zM344.04179,129.07031c-0.13756,0.00596 -0.27586,0.00962 -0.41472,0.01118c0.67255,0.58356 1.34552,1.16865 2.01959,1.75395c-0.52717,-0.5937 -1.06229,-1.18233 -1.60488,-1.76513zM388.46252,129.28607c1.57344,1.46573 3.05694,2.97063 4.76108,4.24406c-1.39817,-2.40171 -2.16533,-5.94503 -2.98619,-8.11854c-0.5168,-1.36842 -1.03408,-2.73666 -1.5516,-4.10482c-1.75177,-2.31045 -3.50714,-4.62037 -5.2583,-6.93749c-3.78931,-5.01399 -7.47744,-10.35238 -11.48238,-15.33553c1.75653,2.89014 3.56577,5.75378 5.27014,8.65481c2.67795,4.5582 5.90581,9.09322 8.14809,13.87753c1.08944,2.32452 1.92118,4.83727 2.73656,7.33343c0.12098,0.12869 0.24186,0.25754 0.36262,0.38656zM383.22557,106.8654c-0.61287,-0.9759 -1.22458,-1.95344 -1.83659,-2.93197c-2.73569,-3.39718 -5.44016,-6.7884 -8.18605,-10.15215c-2.43577,-1.99634 -4.88462,-3.9792 -7.34997,-5.94735c0.69589,1.48314 1.40951,2.96191 2.18505,4.41867c0.7643,1.43564 1.5694,2.85353 2.3975,4.26091c4.56796,4.99662 8.99122,10.11993 13.00209,15.72601c1.21768,1.70197 2.46873,3.37506 3.7247,5.04091c-1.31363,-3.47115 -2.62722,-6.94233 -3.93673,-10.41503zM399.68134,127.40169c-3.60197,-6.68543 -7.03191,-13.46272 -10.50404,-20.21712c-0.18068,-0.15467 -0.36139,-0.30928 -0.54213,-0.46383c-0.00648,0.36404 -0.01652,0.72378 -0.03006,1.07813l0.11035,-0.01177l0.21068,1.97468c0.00471,0.03938 0.00714,0.07946 0.00714,0.12011c0,0.48676 -0.34778,0.89229 -0.80842,0.98167c3.62599,5.65079 7.38009,11.20676 11.55647,16.53813zM443.92931,16.10746c-0.31394,-0.32169 -0.63065,-0.64039 -0.94987,-0.95638c1.49708,1.96723 2.98768,3.93962 4.50057,5.89126c1.55523,2.00627 3.10096,4.02072 4.63235,6.04612c-0.64732,-1.40458 -1.29494,-2.80918 -1.9422,-4.21414c-2.02847,-2.31163 -4.10197,-4.57524 -6.24085,-6.76687zM442.26905,84.01956c0.7122,0.78149 1.41995,1.56797 2.12521,2.3573c0.02399,-0.14104 0.03883,-0.28962 0.04567,-0.44421c-0.7272,-0.63412 -1.45057,-1.27195 -2.17088,-1.9131zM431.66075,71.07876c1.48998,1.68385 3.03947,3.29633 4.66351,4.80443c2.51746,2.34238 5.05467,4.64377 7.61742,6.9193c-0.07049,-0.25374 -0.14302,-0.4998 -0.21372,-0.73301c-0.39485,-0.51267 -0.77807,-0.99626 -1.15052,-1.42545c-6.12526,-7.05857 -11.76686,-14.49288 -17.79933,-21.62516c-2.1872,-2.58619 -4.37397,-5.17118 -6.54546,-7.76906c0.39418,0.56638 0.78761,1.13058 1.16304,1.69713c4.03361,6.08704 8.11899,12.12661 12.26505,18.13182zM467.87918,73.17624c4.59604,3.90772 9.12925,7.88995 13.62967,11.91202c-1.79877,-2.3695 -3.49558,-4.80372 -5.14432,-7.27648c-0.83971,-0.42275 -1.67852,-0.84562 -2.51635,-1.269c-0.15542,-0.36697 -0.31085,-0.73393 -0.46627,-1.1009c-1.83424,-0.75521 -3.66849,-1.51042 -5.50273,-2.26563zM435.78679,6.04497c3.29685,2.77259 6.56381,5.58131 9.57385,8.6656c0.74162,0.75992 1.47543,1.52842 2.20226,2.30453c-0.37575,-0.86824 -0.7484,-1.73722 -1.11818,-2.60696c-2.32165,-2.60982 -4.64932,-5.21496 -6.98286,-7.81613c-4.63541,-5.17152 -10.20947,-10.88223 -15.73019,-15.1038c-3.20924,-2.45403 -7.94921,-5.69236 -11.70487,-7.15887c-0.32831,-0.1282 -0.67607,-0.23223 -1.01973,-0.3444c2.46291,2.72825 5.24405,5.23145 8.02711,7.70418c0.1833,-0.22764 0.46429,-0.3733 0.7793,-0.3733c0.22321,0 0.42934,0.07313 0.59573,0.19674l1.61059,1.16675l-0.1468,0.20264c2.95316,1.6503 5.20095,3.91986 7.7714,6.45811c2.16094,2.13388 4.19059,4.38487 6.14238,6.70491zM472.45294,46.87897c5.97947,7.15682 12.17046,14.13323 18.3055,21.15694c0.51741,0.59236 1.23768,1.22949 2.02828,1.89726c-7.8457,-10.97703 -16.76354,-21.64467 -25.57286,-31.84365c-0.18295,-0.21181 -0.36593,-0.42357 -0.54896,-0.63528c1.29363,2.26093 2.58096,4.52532 3.86161,6.79325c0.1846,0.32691 0.36956,0.65333 0.55487,0.97927c0.4559,0.55252 0.91301,1.10335 1.37157,1.65221zM409.10722,53.45254c2.10712,3.54249 4.22613,7.09665 6.39141,10.61939c2.60098,2.61696 5.21454,5.18582 7.86586,7.707c-4.91976,-6.04154 -9.67424,-12.09761 -14.25727,-18.32638zM426.86711,81.22073c3.75163,5.12414 7.44045,10.30505 11.20806,15.42245c0.62928,0.59537 1.24857,1.18727 1.8509,1.77706c2.89239,0.06322 5.79071,0.09357 8.67847,0.23297c0.66887,0.03229 1.94223,0.27792 2.31107,-0.08414c-2.58851,-1.92083 -4.87664,-4.28811 -7.35278,-6.57025c-5.87762,-5.41714 -12.25741,-10.57024 -17.34532,-16.73923c-0.23625,-0.28645 -0.47214,-0.57287 -0.70765,-0.85926c-0.26652,-0.16598 -0.53925,-0.31934 -0.81906,-0.45754c-0.87617,-0.43274 -1.90386,-1.62962 -2.72037,-1.09273c-0.2373,0.15603 -0.38694,0.37967 -0.47604,0.64364c1.74062,2.62318 3.5264,5.20527 5.37271,7.72704zM413.47095,48.72441c-0.31074,-0.75371 -0.58067,-1.53534 -0.80316,-2.35931l-0.20805,0.07296l-0.65416,-1.86535c-0.0414,-0.10974 -0.06405,-0.22867 -0.06405,-0.35289c0,-0.16586 0.04038,-0.3223 0.11185,-0.46l-0.10308,-0.2138c-0.06919,-0.13597 -0.1082,-0.28989 -0.1082,-0.45291c0,-0.55228 0.44772,-1 1,-1c0.29083,0 0.55267,0.12415 0.73539,0.32235l1.35783,1.46405l-0.00698,0.00647l0.02835,0.01732c0.19973,0.24494 0.39967,0.48968 0.59982,0.73424c10.96013,6.7606 21.58451,13.27942 33.32229,18.43007c-1.83897,-1.07501 -3.66898,-2.17286 -5.48917,-3.29807c-1.57428,-1.05349 -3.31247,-2.60631 -5.04116,-3.36908c-0.71961,-0.31752 -1.53775,-0.96404 -2.28075,-0.95678c-0.74324,-2.0774 -1.52781,-4.14372 -2.3626,-6.19985c-4.48842,-3.05939 -9.06428,-6.01011 -13.76872,-8.85866c-7.30957,-4.42597 -14.78799,-9.13652 -22.49599,-12.83603c-0.6867,-0.32959 -1.46992,-0.62425 -2.30331,-0.90821c0.19334,0.19459 0.38831,0.39006 0.58548,0.58616c6.55863,6.52282 12.25402,14.15923 17.94834,21.49734zM456.44195,66.30432c-0.81118,-0.6519 -1.62488,-1.30082 -2.44127,-1.94658c-1.76383,-1.39519 -3.53157,-2.77053 -5.30601,-4.12647c1.00675,1.38335 2.01818,2.76134 3.0367,4.13357c1.57019,0.64649 3.14039,1.29299 4.71058,1.93948zM435.62904,100.32946c2.45085,2.10628 4.91836,4.18642 7.39805,6.26086c-0.4122,-0.60586 -0.79798,-1.16036 -1.15356,-1.61099c-0.80734,-1.02313 -1.60583,-2.05399 -2.39721,-3.09097c-0.92693,-0.51372 -1.85389,-1.02739 -2.78089,-1.54099c-0.35388,-0.00641 -0.7094,-0.01228 -1.06639,-0.01792zM393.97346,28.64965c0.7226,1.13484 1.44066,2.27211 2.15489,3.41165c2.26227,2.72038 4.3773,5.57258 6.37868,8.55009c7.86078,11.69473 16.28931,22.50685 25.25342,33.37565c3.62566,4.39603 7.87962,8.34373 12.19969,12.19336c0.18445,0.10181 0.37333,0.19815 0.56741,0.2882c-2.45657,-2.99357 -4.81364,-6.06349 -7.03706,-9.24781c-0.07933,-0.11362 -0.15864,-0.22724 -0.23794,-0.34088c-6.95732,-8.19618 -13.43233,-16.78621 -20.06705,-25.26724c-5.63434,-7.20227 -11.16965,-15.11177 -17.65514,-21.55719c-0.42848,-0.42584 -0.96758,-0.89827 -1.55689,-1.40584zM441.19522,87.27746c-0.12602,-0.15179 -0.2518,-0.30377 -0.37732,-0.45594c-0.16849,-0.10845 -0.33666,-0.21732 -0.50449,-0.32664c0.29376,0.26123 0.58775,0.52205 0.8818,0.78258zM445.89932,22.26767c-3.68525,-4.75402 -7.20689,-9.78902 -11.0897,-14.44935c-0.54123,-0.4567 -1.08355,-0.91212 -1.62598,-1.36732c5.69075,7.32827 10.64118,15.36639 15.81312,22.87386c6.02703,8.7487 11.05183,18.18497 16.43801,27.37529c-2.99092,-6.9608 -6.1005,-13.86474 -9.25074,-20.75185c-3.34307,-4.62273 -6.78997,-9.17235 -10.28471,-13.68062zM385.27664,94.25466c-0.40528,-1.37624 -1.17097,-2.7854 -1.95743,-4.1575c-0.17297,-0.1551 -0.34594,-0.31021 -0.51891,-0.46535c0.90539,1.92078 1.81511,3.83948 2.73519,5.75318c-0.06769,-0.39133 -0.15249,-0.76916 -0.25885,-1.13033zM378.96211,81.46373c-0.02337,-0.04894 -0.04676,-0.09787 -0.07018,-0.14679c0.0229,0.04858 0.0458,0.09717 0.0687,0.14576c0.00049,0.00035 0.00099,0.00069 0.00148,0.00104zM349.02249,84.75726c0.07421,0.05919 0.14794,0.11876 0.22122,0.17872c-0.04413,-0.08858 -0.08825,-0.17715 -0.13238,-0.26573zM371.49704,115.43311c5.81889,8.01951 11.27832,17.04301 17.95132,24.49906c-1.11363,-2.74891 -1.81198,-6.1534 -2.54604,-8.19366c-0.22207,-0.61724 -0.43476,-1.24513 -0.64412,-1.87842c-4.76475,-5.04768 -9.65476,-9.89195 -14.82796,-14.51905c0.02226,0.03069 0.04453,0.06138 0.06679,0.09207zM383.55237,122.41483c-2.21522,-4.72657 -5.41553,-9.20938 -8.06153,-13.71318c-3.03647,-5.16845 -6.40188,-10.21902 -9.21823,-15.5092c-0.24372,-0.4578 -0.4814,-0.91769 -0.71442,-1.37917c-2.35818,-2.43545 -4.36277,-4.64232 -7.11705,-6.25127l0.14395,-0.22049l-1.66275,-1.08557c-0.15951,-0.10762 -0.35172,-0.17045 -0.55861,-0.17045c-0.55228,0 -1,0.44772 -1,1c0,0.11883 0.02073,0.23281 0.05876,0.33854l0.6254,1.87511l0.01754,-0.00585l0.00762,0.07313c2.70047,5.3911 5.69772,10.61613 8.43122,15.98744c1.02146,2.0069 2.03031,4.01612 3.02723,6.02913c6.01835,5.10975 11.74981,10.42986 17.24985,16.05518c-0.37178,-1.03383 -0.7725,-2.04937 -1.22897,-3.02334zM384.68419,104.83118c0.60114,0.74226 1.20177,1.48492 1.80186,2.22802c-0.27064,-0.81247 -0.43146,-1.69669 -0.52768,-2.62056c-0.73507,-0.62475 -1.4708,-1.24844 -2.20731,-1.87104c0.26372,0.69576 0.52723,1.3916 0.79058,2.0875c0.0475,0.05869 0.09501,0.11739 0.14255,0.17607zM324.36686,117.67354c-0.53004,0.0593 -1.06954,0.20311 -1.50505,0.46245c-0.64562,-0.90307 -1.28987,-1.80927 -1.93912,-2.71686c1.16898,0.78915 2.41373,1.53724 3.44418,2.25441zM321.30372,151.42787c0.33297,0.60784 0.66656,1.2154 1.00077,1.8227c-1.08216,-1.25448 -2.12787,-2.54731 -3.19061,-3.69311c-3.77472,-4.06969 -7.4681,-8.20793 -11.12673,-12.38052c2.67622,2.91395 5.43207,5.76022 8.13687,8.64338c1.7211,1.8346 3.38224,3.806 5.1797,5.60754zM307.2829,141.55512c-1.31243,-1.07858 -2.6372,-2.14158 -3.97859,-3.18349c-0.2499,-0.76407 -0.5009,-1.52786 -0.75236,-2.29157c0.04372,0.02102 0.087,0.043 0.1298,0.06608c0.42309,0.2281 0.83977,0.5077 1.24957,0.82698c1.07819,1.55645 2.19993,3.08012 3.35159,4.58201zM300.54078,141.99382c2.25101,6.7501 4.56092,13.35751 7.32039,19.88884c0.17049,0.74689 0.34109,1.49377 0.51192,2.24059c-0.33163,-0.38985 -0.67433,-0.77973 -1.02386,-1.1704c-0.78727,-1.34521 -1.65818,-2.63089 -2.57112,-3.88603c-0.7723,-2.40053 -1.52206,-4.78995 -2.09624,-7.16156c-0.77738,-3.21091 -1.65468,-6.59316 -2.1411,-9.91144zM301.83515,133.90502c-0.0218,-0.06614 -0.0436,-0.13228 -0.06539,-0.19842c0.04384,0.06963 0.08778,0.13917 0.13182,0.20864c-0.02208,-0.00345 -0.04422,-0.00686 -0.06642,-0.01022zM416.11883,90.2771c-2.89114,-4.02576 -5.68678,-8.10428 -8.33413,-12.26616c2.37736,2.50162 4.61155,5.10496 6.72872,7.80015c1.76585,2.97371 3.52904,5.94901 5.2919,8.9245c-0.05684,0.01528 -0.11372,0.0311 -0.17066,0.0475c0.04994,0.2661 0.10594,0.53158 0.1678,0.79641c-1.18734,-1.76927 -2.41297,-3.53307 -3.68363,-5.3024zM425.75528,83.10518c0.91436,1.53237 2.01027,3.00424 3.21787,4.42923c-1.08845,-1.51199 -2.17855,-3.02162 -3.27534,-4.52424c0.01964,0.03206 0.0388,0.06373 0.05747,0.09501zM325.58309,159.1831c-0.14598,-0.17273 -0.29196,-0.34545 -0.43795,-0.51817c0.07235,0.04002 0.14479,0.07997 0.21733,0.11988c0.07344,0.13277 0.14696,0.26554 0.22062,0.39829zM298.36708,137.15879c-0.10329,5.7465 1.2602,11.55781 2.81617,17.21624c-0.84532,-1.08651 -1.68214,-2.178 -2.48137,-3.29473c-2.44164,-5.05116 -4.286,-10.69031 -6.4391,-15.66894c-0.1334,-0.57931 -0.23846,-1.16589 -0.40019,-1.73794c-0.10285,-0.36378 -0.74128,-0.9195 -0.39203,-1.06419c0.38631,-0.16005 0.56842,0.63235 0.93081,0.84097c2.05944,1.18561 4.00034,2.3494 5.96571,3.70858zM413.89809,131.03059c-0.8402,-0.94762 -1.24823,-2.20403 -1.88116,-3.30098c-0.19488,-0.33774 -0.38987,-0.6754 -0.585,-1.01297c1.15744,1.70967 2.29538,3.43136 3.41767,5.15973c-0.31897,-0.22973 -0.64118,-0.49578 -0.95151,-0.84579zM329.06331,155.12662c-0.04541,-0.03354 -0.0908,-0.06706 -0.13619,-0.10058c-0.02641,-0.08129 -0.05304,-0.16254 -0.07988,-0.24375c0.07227,0.11463 0.14429,0.22941 0.21607,0.34434zM368.85978,77.24212c2.1372,3.2539 4.21218,6.55606 6.26746,9.86265c2.42816,2.04123 4.83983,4.1125 7.21175,6.22605c-1.12563,-2.37017 -2.24021,-4.74567 -3.35509,-7.12096c-3.35781,-3.00744 -6.72481,-6.00759 -10.12412,-8.96774zM351.9536,112.26635c0.71271,0.73291 1.42045,1.47017 2.12385,2.2113c-0.02459,-0.12099 -0.04932,-0.24197 -0.07417,-0.36293c-0.61555,-0.86461 -1.23111,-1.72921 -1.84653,-2.5939c-0.06767,0.24852 -0.13539,0.49703 -0.20315,0.74553z" fill="#000000" stroke="none" stroke-width="0.5"></path><path d="M221.34059,37.29215c-0.99011,0.14027 -1.13039,-0.84984 -1.13039,-0.84984l0.97302,-2.81741c8.3762,1.9333 16.985,4.02032 25.2267,6.49129c3.30808,0.99181 6.51747,1.7633 9.51829,3.24137l0.08166,-0.21678l1.84976,0.69682c0.38979,0.13653 0.66933,0.50763 0.66933,0.94403c0,0.49782 -0.36376,0.91067 -0.83998,0.98726l-1.95136,0.35107l-0.00438,-0.02437l-0.08236,0.03608c-8.05751,0.03812 -15.8941,0.25531 -23.8811,1.33114c-2.45072,0.33011 -5.61335,1.83363 -8.3422,2.11691c8.10321,2.63149 15.37972,6.31558 21.52453,12.30497c2.49126,2.42825 3.35383,3.73685 3.93409,7.19887c5.37152,0.70266 10.44358,3.05905 15.64233,4.56188c0.77305,0.22347 6.11009,1.56096 6.3202,2.11491c1.41337,3.72625 -2.01226,3.29957 -3.59728,3.36548c-3.95436,0.16445 -8.10325,-1.33169 -11.94707,-2.19657c-3.99697,-0.59968 -8.11394,-1.20562 -12.25383,-1.70551c-0.59165,0.15057 -1.13614,0.27798 -1.58439,0.39407c-1.38781,0.35944 -2.78317,0.68958 -4.18374,0.99946c1.38175,0.35994 2.77078,0.73992 4.17155,1.1369c3.69297,1.50238 7.47095,2.81584 11.26819,4.02416l0.18825,0.05998c0,0 0.9528,0.30362 0.64918,1.25641c-0.30362,0.95279 -1.25641,0.64918 -1.25641,0.64918l-0.18825,-0.05999c-3.81011,-1.21574 -7.60735,-2.52484 -11.31144,-4.03849c-2.56855,-0.7236 -5.15821,-1.46828 -7.76682,-2.1442c-5.03449,0.99434 -10.10517,1.84602 -15.10462,2.96728c-1.56308,0.35056 -3.04234,0.71005 -4.48003,1.11139c-0.04466,0.08617 -0.08853,0.17331 -0.13158,0.26145c0,0 -0.44489,0.89558 -1.34047,0.45069c-0.11623,-0.05774 -0.20989,-0.12307 -0.28486,-0.19305c-2.25221,0.70469 -4.44275,1.55063 -6.74354,2.67186c-0.59929,0.29205 -1.16714,0.66024 -1.79788,0.87614c-0.39917,0.13664 -1.11522,-0.22962 -1.25445,0.16866c-0.12563,0.35936 0.68179,0.34079 1.0074,0.53801c1.08307,0.656 2.07053,1.46672 3.17646,2.0834c5.2176,2.9094 10.94996,4.48717 16.61908,6.22987c7.02592,2.15982 14.03285,4.36799 20.95169,6.84877c5.13827,1.84235 10.25529,3.64773 14.49814,6.99812l0.10369,-0.17708l1.70957,1.00109c0.30495,0.17129 0.51098,0.49782 0.51098,0.87248c0,0.55228 -0.44772,1 -1,1c-0.06027,0 -0.1193,-0.00533 -0.17664,-0.01555l-1.95653,-0.31394l0.00809,-0.05042l-0.15744,0.0145c-6.5288,-3.24401 -13.71815,-4.6783 -20.94045,-5.38904c-11.959,-1.17688 -23.77257,-1.50166 -35.77399,-0.74663c0,0 -0.99803,0.06279 -1.06081,-0.93524c-0.06279,-0.99803 0.93524,-1.06081 0.93524,-1.06081c12.1081,-0.76174 24.02997,-0.43506 36.09544,0.7523c4.28998,0.42217 8.63665,1.07556 12.8261,2.22436c-0.21946,-0.10078 -0.43578,-0.1904 -0.64849,-0.26641c-8.78494,-3.13898 -17.59367,-6.10323 -26.51225,-8.84479c-5.80431,-1.78426 -11.66376,-3.41621 -17.00544,-6.3948c-1.2062,-0.67259 -5.47304,-2.96311 -5.17284,-4.7511c0.10004,-0.59582 3.4709,-2.13411 4.13919,-2.45978c2.73322,-1.33195 5.33343,-2.2958 8.04917,-3.09206c1.25125,-2.04716 2.90763,-3.63434 4.82273,-4.88169c-3.86289,-0.02889 -7.83065,0.31774 -11.63872,-0.08103c-0.54046,0.01004 -1.08182,0.0171 -1.62446,0.02141l-0.00895,0.00007l-0.00002,0.01801l-1.99986,-0.00219c-0.00005,0 -0.00009,0 -0.00014,0c-0.55178,-0.00059 -0.99891,-0.44808 -0.99891,-1c0,-0.54998 0.44397,-0.99625 0.99307,-0.99997l1.99894,-0.01586c0.36689,-0.0029 0.73318,-0.00713 1.09898,-0.01272c1.23636,-0.26241 2.69557,-0.21262 4.08076,-0.12296c1.58542,-0.07256 3.16978,-0.17537 4.76276,-0.31328c3.26706,-0.04064 6.56453,-0.26637 9.84597,-0.37436c4.41651,-1.30987 9.23997,-1.81182 13.4208,-2.36732c2.70699,-0.35967 5.291,-0.71541 8.0258,-0.84844c0.62961,-0.02854 1.25402,-0.02786 1.87386,-0.00165c-0.67582,-2.66137 -1.00367,-3.42074 -3.22107,-5.58206c-6.26274,-6.10434 -13.73117,-9.66925 -22.07076,-12.25656l-0.04437,-0.03215l-0.0053,0.01229l-1.81539,-0.78284c-0.36656,-0.14831 -0.62516,-0.50764 -0.62516,-0.92737c0,-0.4702 0.32452,-0.8646 0.7618,-0.97146l1.91089,-0.5125l0.03593,0.13397c9.15299,-3.84136 20.0145,-3.88326 29.9628,-3.84935c-2.09848,-0.66245 -4.24614,-1.62383 -5.83102,-2.099c-8.19708,-2.4576 -16.76755,-4.54898 -25.10057,-6.45792l1.45544,0.58774c0,0 0.14027,0.99011 -0.84984,1.13039zM249.24073,71.63361c-0.34146,0.88527 -1.11175,1.56613 -2.06509,2.10184c2.86886,0.38681 5.71195,0.80833 8.49688,1.228c1.96317,0.44039 3.92619,0.8814 5.88921,1.32241c1.99292,0.44773 3.65008,0.752 5.67726,0.84002c0.63516,0.02758 2.45414,-0.13286 1.86882,-0.38103c-0.4317,-0.18305 -0.94317,0.23455 -1.40057,0.13134c-1.78036,-0.40175 -3.90477,-1.36698 -5.67209,-1.96939c-4.06576,-1.38585 -8.35317,-3.12316 -12.6999,-3.77305c-0.00371,0.16999 -0.03174,0.33707 -0.09453,0.49987zM217.49438,78.51702c3.57862,-0.8026 7.19435,-1.46598 10.80705,-2.14297c-2.3839,-0.50789 -4.78228,-0.91488 -7.19353,-1.15411c-2.24679,0.89945 -4.29409,2.08501 -5.89262,3.83183c0.74389,-0.18344 1.5021,-0.36048 2.2791,-0.53475zM227.63575,74.06604c-0.75747,-0.01131 -1.51689,-0.00899 -2.27767,0.00303c2.48458,0.39414 4.95102,0.88224 7.42542,1.44641c1.46352,-0.29018 2.9238,-0.59305 4.37815,-0.91884c-3.20414,-0.28963 -6.39444,-0.48385 -9.5259,-0.5306zM232.43705,72.24087c3.50138,0.19833 7.04682,0.54185 10.57705,0.96368c1.77464,-0.43829 3.9043,-1.12273 4.35851,-2.28521c-0.78987,-0.05265 -1.58089,-0.06252 -2.37209,-0.02108c-4.19356,0.20399 -8.41017,0.61464 -12.56347,1.34262z" fill="#000000" stroke="none" stroke-width="0.5"></path><path d="M274.73642,-15.96284c-0.04822,-0.17345 -0.05652,-0.32437 -0.03772,-0.45523c-5.71419,-0.99504 -11.31471,-1.2873 -17.18876,-1.09657c-1.71292,0.05562 -3.92048,0.55398 -5.8945,0.52833c-0.67134,0.08543 -1.34337,0.16542 -2.01613,0.23954l-0.0351,-0.0092l0.00045,0.01121l-1.99203,0.08089c-0.01554,0.00071 -0.03118,0.00108 -0.0469,0.00108c-0.55229,0 -1,-0.44771 -1,-1c0,-0.49622 0.36143,-0.90802 0.83539,-0.98651l1.94928,-0.36069l0.0503,0.27187l0.09674,-0.00393c0.11819,-0.0131 0.23637,-0.02638 0.35452,-0.03985c1.62281,-0.41257 3.29617,-0.59226 4.99612,-0.67181c8.7029,-1.33634 17.30427,-3.4601 25.90868,-5.30183c5.93298,-1.26993 12.00744,-1.21348 18.06197,-1.48456c1.62324,-0.07268 4.88376,-0.76055 6.3844,-0.20772c0.74711,0.27522 1.20714,1.03871 1.79891,1.57137c0.48361,0.4353 3.21936,2.93516 3.23982,3.38235c0.0816,1.784 -2.31552,2.8546 -3.4581,3.52055c-2.47913,1.44496 -5.1073,1.77427 -7.89242,2.36655c-13.74761,2.92299 -27.00511,6.52106 -39.92924,12.0229c-8.69781,3.70269 -17.38757,6.68369 -26.41045,9.4961c-1.23308,0.38435 -2.85497,1.09755 -4.52706,1.72137c4.26452,-0.2428 8.54172,-0.6267 12.77767,-0.95989c13.96023,-1.09776 27.88184,-2.19945 41.81317,-3.63336c5.59087,-0.57545 11.16517,-1.04031 16.75317,-1.42331c0.3754,-0.0498 0.75066,-0.09735 1.12574,-0.14251c3.1644,-0.38108 6.40576,-0.48535 9.63846,-0.51773c3.37998,-0.24246 6.6561,-0.60027 9.88545,-0.05022c0.19378,-0.0006 0.38756,-0.00109 0.58133,-0.0015l0.08877,-0.00018l0.01841,-0.19116l1.98012,0.19071c0.5124,0.04324 0.9148,0.47284 0.9148,0.99642c0,0.55158 -0.44658,0.99886 -0.9979,1c-0.00009,0 -0.00018,0 -0.00027,0l-1.99973,0.0042c-0.87413,0.00183 -1.74825,0.0056 -2.62237,0.01128c-1.64978,0.13736 -3.50219,0.06229 -5.10168,0.02453c-0.76303,0.00162 -1.52793,0.00404 -2.29352,0.01009c-3.73012,0.201 -7.44882,0.42215 -11.16303,0.67651c-8.04869,1.08484 -16.16498,3.20796 -24.03656,5.07192c-13.62867,3.22722 -26.87928,7.5152 -40.24551,11.68936c-8.89434,2.77763 -17.65909,5.99594 -26.46201,9.05071c-1.00661,0.34931 -2.28908,0.91802 -3.65189,1.45455c4.64943,-0.2635 9.20649,0.25896 13.84874,0.19457c9.26038,-0.12845 18.62966,-1.27646 27.87942,-1.84314c11.78887,-1.00931 24.50531,-2.87566 36.15639,0.04346c0,0 0.96977,0.24403 0.72574,1.2138c-0.24403,0.96977 -1.2138,0.72574 -1.2138,0.72574c-11.41394,-2.88545 -23.97207,-0.97636 -35.52187,0.01163c-9.28936,0.56979 -18.69787,1.71931 -27.99814,1.84832c-4.67128,0.0648 -9.25655,-0.4733 -13.93622,-0.1874c-2.01694,0.12297 -4.02384,0.15628 -6.04399,0.18948l-0.00371,-0.00102l0.00001,0.00107l-1.9984,0.01804c-0.00351,0.00003 -0.00702,0.00005 -0.01055,0.00005c-0.55229,0 -1,-0.44772 -1,-1c0,-0.46007 0.3107,-0.84759 0.73372,-0.96416l1.89384,-0.56916l0.0648,0.21561c3.5801,-1.67438 7.57711,-2.60131 11.3097,-3.89658c8.19385,-2.84341 16.35303,-5.82917 24.63203,-8.41463c13.41093,-4.18812 26.70645,-8.48841 40.38085,-11.72646c2.20498,-0.52213 4.42885,-1.06395 6.66496,-1.59769c-13.53692,1.37469 -27.0662,2.4453 -40.6317,3.51202c-5.975,0.4697 -12.02988,1.03547 -18.01862,1.17735l-0.00508,-0.0013l0.00002,0.00138l-1.9976,0.0267c-0.00519,0.00008 -0.01038,0.00012 -0.01559,0.00012c-0.55229,0 -1,-0.44772 -1,-1c0,-0.42462 0.26466,-0.78743 0.63801,-0.93247l1.82573,-0.75794l0.09686,0.23332c4.07011,-2.24485 8.84708,-3.21655 13.29251,-4.60219c7.68207,-2.39448 14.99978,-5.08483 22.40344,-8.23658c13.043,-5.55245 26.42374,-9.18828 40.2966,-12.13896c2.56484,-0.54543 5.02781,-0.82136 7.30345,-2.13946c0.85443,-0.4949 2.63905,-0.66392 2.46907,-1.63659c-0.19131,-1.0948 -1.81394,-1.29918 -2.61006,-2.07466c-0.38552,-0.37553 -0.62101,-0.97109 -1.12602,-1.15713c-1.21771,-0.44859 -4.28313,0.2699 -5.60359,0.32902c-5.94099,0.266 -11.91242,0.19643 -17.73281,1.44226c-5.18847,1.11057 -10.37523,2.32112 -15.58357,3.40206c4.00732,0.19562 7.92971,0.64211 12.00345,1.49028l0.01159,0.00682l0.00093,-0.00396l1.92716,0.4531c0.4519,0.09614 0.79089,0.49753 0.79089,0.9781c0,0.55228 -0.44772,1 -1,1c-0.03852,0 -0.07652,-0.00218 -0.1139,-0.00642l-1.97642,-0.19948l-1.2278,0.41216c0,0 -0.96347,0.26781 -1.23128,-0.69566z" fill="#000000" stroke="none" stroke-width="0.5"></path><path d="M371.65193,98.04555c-0.2952,0.10272 -0.59199,0.18922 -0.85991,0.27079c-0.10723,0.03265 -4.02357,-0.37041 -4.2727,-0.40097c-2.64621,-0.32461 -5.27671,-0.7677 -7.92396,-1.08913c-1.3041,-0.15835 -2.62914,-0.19437 -3.91209,-0.47682c-0.38991,-0.08584 -0.9171,-0.78021 -1.11627,-0.43419c-0.20845,0.36214 0.62067,0.5806 0.8209,0.94734c0.91774,1.68095 1.66012,3.31485 2.70815,4.96263l1.31183,1.41575c0.1665,0.17861 0.26838,0.41827 0.26838,0.68172c0,0.55228 -0.44772,1 -1,1c-0.2351,0 -0.45125,-0.08113 -0.62198,-0.21692l-1.57005,-1.22464l0.14499,-0.18588c-1.5267,-0.84703 -2.96332,-1.8586 -4.34973,-2.95921c-0.00414,0.01509 -0.00827,0.03017 -0.01241,0.04526c0.7516,1.00566 1.4672,2.05828 1.86971,3.11716c0.16604,0.21101 0.33176,0.42228 0.49715,0.63381l1.2265,1.5687c0.13619,0.17086 0.21759,0.38734 0.21759,0.62282c0,0.55228 -0.44772,1 -1,1c-0.31202,0 -0.59066,-0.1429 -0.77404,-0.36682l-1.27332,-1.53223l0.04551,-0.03782l-0.01781,-0.02278c-0.53759,-0.68759 -1.07876,-1.37231 -1.62266,-2.05485c-0.26879,0.89432 -0.55428,1.77931 -0.86903,2.64419c0.13959,0.14781 0.27932,0.29452 0.41921,0.44006l0.01877,0.05038l0.01384,-0.01082l1.22672,1.56854c0.13624,0.17088 0.21767,0.38739 0.21767,0.62292c0,0.55228 -0.44772,1 -1,1c-0.2992,0 -0.56771,-0.1314 -0.75097,-0.33964l-1.02817,-1.15745c-0.51233,1.12034 -1.11764,2.22261 -1.75753,3.31284c1.62103,2.25098 3.22693,4.52283 4.44083,6.97927l0.18857,-0.12845l1.11859,1.64216c0.11398,0.16242 0.18087,0.36028 0.18087,0.57376c0,0.26011 -0.09931,0.49702 -0.26208,0.6749c2.36179,2.569 4.83838,5.03638 7.43127,7.44526l0.00756,0.01436l0.00353,-0.00357l1.42215,1.40551c0.18363,0.18131 0.29742,0.43317 0.29742,0.71161c0,0.55228 -0.44772,1 -1,1c-0.24436,0 -0.46825,-0.08765 -0.64195,-0.23322l-1.53702,-1.26888l0.11157,-0.13515l-0.04979,-0.04921c-0.12083,-0.11224 -0.24141,-0.2246 -0.36175,-0.3371c-2.60228,-1.69259 -4.78241,-3.86426 -7.37651,-5.81712c-2.54325,-1.91457 -5.18074,-3.89468 -7.87964,-5.83989c-1.49241,2.72003 -2.91885,5.04679 -6.52494,5.59168c-3.45958,0.52275 -6.97901,-1.27299 -10.11338,-2.42884c-8.78251,-3.24697 -16.64554,-8.86982 -24.52986,-13.81745c-0.35799,-0.22465 -0.76472,-0.45893 -1.20161,-0.70433c5.23759,8.18708 11.53251,15.57912 17.93769,23.11204l1.29175,1.5192c0.1508,0.1751 0.24196,0.40302 0.24196,0.65224c0,0.55228 -0.44772,1 -1,1c-0.24706,0 -0.4732,-0.0896 -0.64769,-0.23807l-1.52714,-1.28164l0.20033,-0.2387c-2.78705,-1.8972 -4.67623,-4.48648 -7.03437,-7.25891c-2.58822,-3.04294 -5.41482,-5.99437 -7.81275,-9.18821c-3.18906,-4.24758 -5.6032,-9.04425 -9.05486,-13.10454l-1.29052,-1.52017c-0.15051,-0.17503 -0.24149,-0.40273 -0.24149,-0.65168c0,-0.55228 0.44772,-1 1,-1c0.24775,0 0.47445,0.09009 0.64914,0.23931l0.8075,0.68052c-0.45311,-0.8935 -0.89245,-1.79811 -1.31707,-2.71479c-0.31056,-0.72644 -0.95787,-1.38972 -0.93168,-2.17933c0.18011,-5.43114 6.95361,-2.00776 9.68575,-0.89848c8.8192,3.58069 17.23905,7.76271 25.6481,12.17648c-2.9607,-3.05663 -5.61905,-6.08448 -7.99159,-9.79505c-3.67637,-3.02237 -7.45406,-6.0359 -11.68251,-8.15742c0,0 -0.89326,-0.44955 -0.44371,-1.3428c0.44955,-0.89326 1.3428,-0.44371 1.3428,-0.44371c2.70431,1.3649 5.19789,3.06447 7.60256,4.89615c-2.16479,-3.47983 -4.25778,-6.98591 -6.16465,-10.64303c-0.5689,-1.09107 -3.11186,-5.48678 -1.99567,-6.6886c1.71,-1.84117 3.89461,0.40801 4.95199,1.22846c3.88174,3.01196 6.83042,6.25637 9.96282,10.02438c0.01742,0.02095 0.03484,0.04191 0.05225,0.06288c-0.3424,-1.99477 -0.67352,-5.37625 -0.12433,-5.7764c0.79675,-0.58054 1.91235,0.47988 2.86852,0.71982c3.35931,1.84381 6.59238,3.74067 9.73235,5.74658c-0.38243,-0.76168 -0.76395,-1.52488 -1.14576,-2.28929l-0.00437,-0.05037l-0.01415,0.00543l-0.70865,-1.8457c-0.04813,-0.11711 -0.07466,-0.24538 -0.07466,-0.37984c0,-0.55228 0.44772,-1 1,-1c0.34191,0 0.64374,0.17159 0.82407,0.43335l1.14766,1.62128l-0.21227,0.15026c1.78342,1.93729 3.16745,4.10024 4.88907,6.2701c0.58462,0.73683 1.17261,1.47092 1.7629,2.20312c0.0977,0.07201 0.19532,0.14419 0.29288,0.21653c-1.43196,-2.72584 -2.76576,-5.50744 -4.05137,-8.34781l-0.81583,-1.80245c-0.06272,-0.13075 -0.09785,-0.27725 -0.09785,-0.43195c0,-0.55228 0.44772,-1 1,-1c0.18461,0 0.35753,0.05002 0.50596,0.13726l1.72744,0.97194l-0.16844,0.29937c3.84559,2.03462 7.29218,5.5568 10.80297,8.31736c-1.05641,-1.55384 -1.92947,-3.36242 -2.79083,-4.77264c-3.91983,-6.41751 -7.22007,-12.76901 -9.43362,-19.97933l-0.75364,-1.78752c-0.05603,-0.12485 -0.0872,-0.26329 -0.0872,-0.40901c0,-0.55228 0.44772,-1 1,-1c0.19534,0 0.37759,0.05601 0.53158,0.15284l1.69724,1.02699l-0.13191,0.218c5.45322,2.80491 10.09859,8.26086 14.00076,13.52189c-2.41642,-5.31215 -4.27359,-10.79445 -5.55619,-16.47409c-0.2463,-1.09069 -1.87382,-5.67034 -1.2955,-6.54566c2.14145,-3.24118 6.90568,0.94184 8.44234,2.46759c2.32493,2.33325 4.33706,4.81073 6.31929,7.31123l-0.5045,-1.50102c-0.03853,-0.10634 -0.05954,-0.22107 -0.05954,-0.34071c0,-0.49383 0.35795,-0.90405 0.82855,-0.98536c-0.03853,-0.20048 -0.07588,-0.40249 -0.11228,-0.60604c-1.7079,-2.49036 -3.18202,-5.14872 -4.31542,-8.23033c-0.36697,-0.99777 -2.22238,-5.79668 -1.57365,-6.64887c1.80973,-2.37734 3.75619,-0.28009 5.00525,0.65687c2.53221,1.89948 4.85538,3.92301 7.1295,6.06508c-2.74464,-4.34121 -5.19408,-8.85676 -7.51322,-13.4845l-0.00727,-0.04915l-0.01127,0.00435l-0.71154,-1.84462c-0.0485,-0.1175 -0.07525,-0.24626 -0.07525,-0.38126c0,-0.55228 0.44772,-1 1,-1c0.1939,0 0.3749,0.05518 0.52817,0.1507l1.7014,1.01964l-0.11781,0.19658c3.0073,1.49579 5.52186,3.5986 8.31403,5.69845c7.51437,5.65118 13.65891,12.83125 20.00731,19.75012c1.02153,1.11332 2.02901,2.23579 3.02548,3.36566c3.4895,0.8141 7.00624,1.51899 10.58843,2.03304c-1.39367,-6.31153 -2.62992,-12.672 -3.99183,-18.97229c-2.83778,-13.12773 -5.9164,-25.63055 -11.30252,-37.9806l-0.93867,-1.70623c-0.08441,-0.14666 -0.13269,-0.31674 -0.13269,-0.49811c0,-0.55228 0.44772,-1 1,-1c0.29063,0 0.55231,0.12398 0.73502,0.32194l1.35861,1.46339l-0.17781,0.16508c2.57305,2.09484 4.67729,4.68142 6.98164,7.16349c6.37348,6.86502 11.68741,14.62268 17.28148,22.13234c8.32726,11.17878 14.71805,23.94395 23.85753,34.44788c0.40314,0.54818 0.80628,1.09636 1.20943,1.64454l1.17787,1.60304c0.12589,0.16727 0.20052,0.37531 0.20052,0.60078c0,0.55228 -0.44772,1 -1,1c-0.23539,0 -0.45178,-0.08133 -0.62261,-0.21742l-1.56905,-1.22602l0.14789,-0.18927c-3.17664,-1.87929 -5.54175,-4.46389 -7.78589,-7.33576c-1.3811,0.62762 -3.32973,0.50285 -4.58845,0.63641c-5.49686,0.58326 -10.59005,1.02195 -16.10892,0.59529c-1.05796,-0.08179 -2.1088,-0.18289 -3.15341,-0.30138c0.42895,1.86623 0.87552,3.72669 1.34716,5.57852c0.84046,3.29994 2.01817,6.36491 2.56409,9.63317l0.22461,-0.06545l0.55306,1.8979c0.03015,0.09529 0.04641,0.19675 0.04641,0.30201c0,0.55228 -0.44772,1 -1,1c-0.31076,0 -0.58841,-0.14175 -0.77182,-0.36411l-1.27845,-1.52829c-5.32621,-6.36811 -10.4705,-12.81315 -15.93758,-19.04086c-4.64536,-1.10258 -9.24771,-2.38641 -13.89599,-3.66342c0.18423,0.1916 0.36896,0.38266 0.55428,0.57307l0.03069,0.1086l0.03165,-0.01973l1.04978,1.68412c0.10096,0.15619 0.15956,0.34232 0.15956,0.54213c0,0.55228 -0.44772,1 -1,1c-0.29101,0 -0.55298,-0.1243 -0.73572,-0.32271l-1.35715,-1.46463l0.24365,-0.22577c-0.86401,-0.7766 -1.62106,-1.62155 -2.34524,-2.51851c-0.11525,-0.1228 -0.23036,-0.24573 -0.34537,-0.36877c-0.67637,-0.18216 -1.3542,-0.36314 -2.03375,-0.54236c0.95131,1.0022 1.76469,2.38122 2.53242,3.79443c1.0629,0.94712 2.09894,1.90987 3.10938,2.8699c1.06996,1.01657 5.2143,4.02975 3.51255,6.10235c-0.13138,0.16002 -0.29523,0.25056 -0.48105,0.29278c4.35715,5.86774 8.74934,11.70371 13.21707,17.49216c2.13193,2.76216 4.0823,5.64979 6.1363,8.45564c1.58175,1.62033 3.00519,3.36278 4.17696,5.26779c0.16125,0.1828 0.3239,0.36455 0.48805,0.54518l0.02389,0.02629l0.05586,-0.04712l1.2857,1.52397c0.1494,0.17474 0.23963,0.40159 0.23963,0.64951c0,0.55228 -0.44772,1 -1,1c-0.29478,0 -0.55976,-0.12754 -0.74278,-0.33046l-1.34238,-1.47707c-0.29786,-0.32775 -0.59083,-0.6591 -0.87947,-0.99366c-2.08575,-1.69994 -3.71735,-5.00424 -5.45853,-6.64244c-2.34096,-2.2025 -5.35243,-3.97569 -7.93359,-5.89704c-4.69719,-3.49647 -9.53817,-7.34511 -14.68966,-10.12875c-4.01011,-2.17147 -8.00615,-4.78507 -12.29694,-6.33298c-1.10419,-0.39834 -2.09408,-1.29837 -3.26784,-1.31237c-1.19209,-0.01422 -0.4886,3.58257 -0.08631,5.20077c1.85585,1.6156 3.26304,3.52046 4.81491,5.98754c0.4688,0.74527 0.93624,1.49278 1.40296,2.24186c2.9892,3.29225 5.6161,6.99267 8.18789,10.51647c4.39561,6.02275 8.10338,12.16962 11.899,18.57685l1.01082,1.70633c0.09396,0.15239 0.14817,0.33191 0.14817,0.52408c0,0.55228 -0.44772,1 -1,1c-0.3245,0 -0.61289,-0.15456 -0.79559,-0.39408l-1.22177,-1.57041l0.18499,-0.14392c-3.40735,-3.14996 -6.0687,-7.34389 -8.54581,-11.18102c-2.2699,-3.51616 -4.54511,-7.02871 -6.80874,-10.54867zM357.23327,81.18009c-3.13823,-4.25554 -6.5063,-8.30011 -10.22592,-12.08072c-1.33784,-1.35978 -3.45523,-2.73837 -4.95959,-4.25011c1.96553,5.98301 4.6581,11.30862 7.88203,16.7571c1.03426,1.74791 2.1788,3.36985 3.17804,5.0378c0.33898,-0.92063 0.72622,-1.81386 1.18726,-2.66228c0.3837,-0.70608 0.53456,-1.63136 1.1896,-2.09686c0.62516,-0.44427 1.2034,-0.65704 1.74858,-0.70493zM351.68441,91.4433c-3.00118,-1.96328 -7.05514,-4.45221 -9.70347,-7.26319c1.57225,3.36053 3.22847,6.63821 5.07418,9.84456c0.64684,0.52036 1.29126,1.04937 1.9336,1.58764c0.35907,0.30089 0.79058,0.62472 1.26464,0.96813c0.1024,-0.35059 0.20676,-0.69863 0.31392,-1.04342c0.41214,-1.32605 0.75918,-2.7079 1.11712,-4.09372zM347.24505,106.41647c-4.62586,-4.88324 -9.02125,-9.95901 -13.66819,-14.82448c-0.63759,-0.66757 -1.48479,-1.30439 -2.35403,-1.95645c4.59479,6.1936 9.16674,12.40517 13.53732,18.75964c0.29151,0.42384 0.58844,0.84582 0.88832,1.26703c0.51328,-0.91147 0.99008,-1.83248 1.39453,-2.76647c0.06874,-0.15873 0.13606,-0.31851 0.20205,-0.47926zM341.39371,116.92389c-0.14385,-0.02799 -0.28299,-0.05408 -0.41457,-0.07477c-1.37479,-0.21612 -4.49995,-2.08803 -5.6299,-2.91576c-1.216,-0.89077 -2.34097,-2.06226 -3.43041,-3.24869c-1.36557,-0.81382 -2.73527,-1.58747 -4.10531,-2.30935c-8.24465,-4.35306 -16.45678,-8.61405 -25.1062,-12.12546c-2.4717,-1.00344 -4.68723,-1.93948 -7.28789,-2.42883c-0.4542,-0.08547 -0.9035,-0.56019 -1.33165,-0.38616c-0.77645,0.31559 0.19469,1.70216 0.57952,2.44672c1.06074,2.28997 2.21528,4.50334 3.44813,6.65541c1.0085,0.72171 2.02583,1.44847 3.10523,2.12582c8.30172,5.20956 16.59812,11.2945 25.85283,14.69812c2.77042,1.02164 6.05863,2.79074 9.12258,2.32776c2.94035,-0.4443 4.0149,-2.48941 5.19764,-4.76481zM342.34319,108.43137c-4.69918,-6.73063 -9.55995,-13.34099 -14.45495,-19.93237c-0.41587,-0.56274 -0.83173,-1.12549 -1.2476,-1.68823l-0.01986,-0.10028l-0.02685,0.01264l-0.84304,-1.79044c-0.06671,-0.13402 -0.10423,-0.28514 -0.10423,-0.44501c0,-0.55228 0.44772,-1 1,-1c0.23762,0 0.45589,0.08288 0.62747,0.22131l1.56118,1.23677l-0.11516,0.14536c4.44846,2.61585 8.29082,6.49887 11.90041,10.59337c-1.30828,-2.34385 -2.55448,-4.71698 -3.77631,-7.1094c-3.9099,-2.48334 -8.09158,-4.67331 -12.10001,-6.87796c-1.71044,-1.97353 -0.32019,-0.46837 -0.13717,0.14799c0.35501,1.19554 -0.0322,2.56135 0.44064,3.71538c0.85411,2.08456 3.34082,4.33309 4.7156,6.13933c4.22634,5.55275 8.40614,11.13956 12.57988,16.73153zM410.46085,31.06398c-0.94888,-1.28728 -1.90341,-2.57006 -2.87038,-3.84252c0.17802,0.24487 0.35695,0.48846 0.53719,0.73032c0.77475,1.03961 1.55286,2.07673 2.33319,3.1122zM395.52278,13.54986c4.30719,10.98766 7.01803,22.14563 9.53407,33.78493c1.41238,6.53373 2.6887,13.13268 4.14714,19.67402c1.24925,0.151 2.50724,0.27721 3.77555,0.37527c5.39843,0.41736 10.36404,-0.01924 15.74373,-0.59007c0.25041,-0.02657 2.31721,0.01259 3.53154,-0.30897c-0.6622,-0.88343 -1.32529,-1.78531 -2.0075,-2.6946c-4.40102,-5.8659 -8.80204,-11.7318 -13.20306,-17.5977c-5.38486,-7.18084 -9.95472,-14.98038 -14.92362,-22.47385c-0.78231,-0.96926 -1.51182,-1.9786 -2.00019,-2.96214c-0.27915,-0.40514 -0.55999,-0.809 -0.8427,-1.21142l-1.14265,-1.62663c-0.11873,-0.16444 -0.1887,-0.36643 -0.1887,-0.58475c0,-0.40888 0.24539,-0.76044 0.59693,-0.91545c-0.86545,-0.84652 -1.9767,-1.82651 -3.02054,-2.86864zM407.5604,68.81303c-2.98635,-0.40661 -5.92615,-0.94684 -8.84103,-1.57496c4.03774,4.68855 7.92705,9.4799 11.87763,14.2515c-0.69936,-2.21024 -1.10558,-4.7292 -1.516,-6.34068c-0.53543,-2.10227 -1.03869,-4.21562 -1.5206,-6.33586zM367.75643,64.18885c0.23062,0.45974 0.4601,0.98179 0.71118,1.59452l-0.00302,0.07791l0.02346,-0.0057l0.46687,1.92187c0.02186,0.08221 0.03351,0.16858 0.03351,0.25767c0,0.2682 -0.10558,0.51174 -0.27745,0.69132c0.17118,0.19982 0.34362,0.39916 0.51747,0.59796l1.31339,1.50186c0.15585,0.17635 0.25044,0.40811 0.25044,0.66196c0,0.55228 -0.44772,1 -1,1c-0.24408,0 -0.46773,-0.08744 -0.64134,-0.23271l-1.53806,-1.26753l0.01757,-0.02132c-0.05246,-0.03707 -0.104,-0.07566 -0.15454,-0.11592c-0.67106,-0.53459 -1.21139,-1.44023 -1.66263,-2.47349c-3.15022,-3.85109 -5.98337,-7.8044 -9.58185,-11.41576c-1.15309,-1.17171 -2.71603,-2.48201 -4.33567,-2.98618c-0.30302,-0.09433 -0.86135,-0.21594 -0.94789,0.0894c-0.12199,0.43041 0.43709,0.78645 0.57946,1.21055c0.62925,1.8744 0.93028,3.93599 1.36545,5.86291c1.14591,5.07405 3.1026,10.09989 5.30373,14.82771c0.61049,1.31128 1.16502,2.40965 1.6306,3.50566c0.1185,0.07265 0.23519,0.14577 0.35017,0.21938c-0.46227,-2.23874 -1.25936,-4.78163 1.97646,-5.53736c0.27821,-0.06498 3.79759,1.2418 4.25553,1.40772c4.38769,1.58978 8.46694,4.23372 12.56925,6.45511c4.10891,2.22939 7.84874,5.2314 11.67038,7.92208c2.18421,1.53783 4.474,3.10921 6.70128,4.78693c-0.41668,-0.56387 -0.83833,-1.12445 -1.26722,-1.68013c-4.89477,-6.34172 -9.71328,-12.72684 -14.46914,-19.1734c-0.01344,-0.01821 -0.02687,-0.03642 -0.0403,-0.05462c-3.67234,-0.68041 -7.38684,-3.83866 -10.49965,-5.73137c-1.14231,-1.32573 -2.25375,-2.61132 -3.31744,-3.89703zM370.93966,54.5965c-2.38419,-2.33285 -4.72737,-4.53078 -7.35772,-6.58376c-0.94573,-0.73814 -1.73285,-1.70304 -2.78454,-2.28029c-0.26056,-0.14302 -0.81536,-0.38832 -0.88611,-0.09963c-0.10201,0.41628 0.47716,0.71926 0.63681,1.117c0.05431,0.1353 1.07437,3.59731 1.13324,3.75737c0.70899,1.92769 1.55634,3.66944 2.51216,5.30264c0.17641,-0.15612 0.40837,-0.25089 0.66246,-0.25089c0.20797,0 0.40111,0.06349 0.5611,0.17213l1.65943,1.09098l-0.07239,0.11011c2.27792,1.18299 4.45314,2.61585 6.53331,4.18804l-0.46264,-0.88144c-0.07872,-0.1429 -0.12351,-0.30713 -0.12351,-0.48181c0,-0.55228 0.44772,-1 1,-1c0.09598,0 0.18881,0.01352 0.27668,0.03877l1.02812,0.27079c-1.41284,-1.51735 -2.83667,-3.02283 -4.31639,-4.47002zM344.02281,116.73207c1.60966,1.06715 3.22466,2.13578 4.80883,3.24098c-1.39683,-1.61151 -2.7517,-3.26527 -4.06503,-4.97049c-0.17966,0.29819 -0.35702,0.59596 -0.53082,0.89343c0.04577,0.26911 0.01209,0.52529 -0.15045,0.75585c-0.01988,0.0282 -0.04074,0.05493 -0.06254,0.08023zM343.15848,113.80139c0.07967,-0.13115 0.15975,-0.2624 0.24011,-0.39375c-7.73367,-8.70458 -14.69379,-18.32098 -22.09982,-27.22984c-2.58195,-3.10588 -4.93198,-5.98025 -8.10057,-8.49314c-0.07694,-0.06102 -3.681,-2.93152 -3.74084,-2.75664c-0.1301,0.38022 0.49534,0.64033 0.67008,1.00222c0.55285,1.14496 0.97431,2.35246 1.56317,3.47932c2.77805,5.31615 5.94499,10.31244 9.15498,15.3778c1.30211,1.06705 2.60203,2.13286 3.92076,3.16254c4.22675,3.30031 8.49642,6.49975 12.64566,9.90305c1.78199,1.73024 4.59826,3.67798 5.73355,5.92311c0.00426,0.00842 0.00857,0.01687 0.01294,0.02534zM325.74374,101.25137c2.52339,2.87542 5.2719,5.53357 8.07604,8.33919c0.1176,0.11766 0.23381,0.2324 0.34889,0.34443c2.12576,1.447 4.20432,2.97687 6.30566,4.41728c0.36314,0.18635 0.72576,0.37371 1.07742,0.58058c0.09044,0.0532 0.22969,0.14552 0.37323,0.24388c-2.11079,-1.60211 -3.95293,-3.99149 -5.84494,-5.83184c-3.38894,-2.77461 -6.88709,-5.40289 -10.3363,-8.09351zM348.18977,103.81171c0.25611,-0.79125 0.4937,-1.59448 0.72225,-2.40141c-2.7941,-3.46111 -5.63834,-6.8823 -8.41978,-10.35479c-0.05778,-0.04276 -0.11565,-0.08533 -0.17362,-0.1277c1.62303,3.07585 3.316,6.11152 5.16614,9.08396c0.67619,1.08637 1.77986,2.42562 2.70501,3.79995zM352.9398,94.34656c1.26307,-0.16205 3.2329,0.17109 3.91125,0.25317c3.31025,0.40054 6.60328,0.92467 9.91178,1.33052c0.10483,0.01286 2.40184,0.22158 3.73631,0.32032c-0.18841,-0.29379 -0.37672,-0.58763 -0.56491,-0.88155c-2.72185,-2.76722 -5.5672,-5.62999 -7.48412,-8.97691c-0.00385,-0.00262 -0.0077,-0.00523 -0.01155,-0.00784c-0.97556,-0.66174 -4.49588,-4.10814 -5.71269,-2.93096c-1.17696,1.13862 -1.93715,3.09251 -2.51157,5.21209c0.273,0.56055 0.52013,1.13308 0.73273,1.72343l0.34562,-0.12576l0.67595,1.85768c0.04403,0.11272 0.0682,0.23539 0.0682,0.36371c0,0.55228 -0.44772,1 -1,1c-0.21157,0 -0.4078,-0.06571 -0.56939,-0.17782l-1.14047,-0.76741c-0.13116,0.62903 -0.25808,1.23744 -0.38712,1.80734zM366.0085,58.62604c1.89242,2.69758 4.06627,5.20124 6.35829,7.93396c1.67615,0.98887 3.34449,1.99028 5.01348,2.99117c0.57206,0.34306 1.25652,0.79686 1.98365,1.253c-1.16466,-1.61891 -2.27379,-3.24484 -3.25803,-4.9438c-1.66533,-1.42249 -3.37985,-2.82127 -5.14941,-4.095c-1.58636,-1.14186 -3.58354,-1.96134 -4.8977,-3.39534l-0.0755,0.11483c0.00797,0.04692 0.01638,0.09398 0.02521,0.14118zM382.6052,71.84336c0.19614,0.26508 0.39234,0.5301 0.5886,0.79506c0.09029,0.01818 0.17912,0.03289 0.2663,0.04386c0.33504,0.04218 -0.48065,-0.47447 -0.72257,-0.71007c-0.04411,-0.04296 -0.08822,-0.08591 -0.13233,-0.12886zM379.56665,60.21882c4.53559,1.235 9.01281,2.5091 13.5147,3.64491c-0.3567,-0.39463 -0.71502,-0.78819 -1.07509,-1.18062c-4.87078,-5.30848 -9.6168,-11.16054 -15.00381,-15.94939c-2.93305,-2.60737 -6.3899,-4.79962 -9.52721,-7.16074c-0.77164,-0.58073 -1.56548,-1.01436 -2.26152,-1.53986c3.09057,6.10728 6.38195,12.19689 10.5228,17.64687c0.95316,1.2545 2.5309,2.85853 3.83014,4.53884zM352.24915,96.88133c-0.09177,0.30875 -0.18189,0.61954 -0.27091,0.93189c0.27332,0.19691 0.54898,0.398 0.82292,0.60279c-0.10678,-0.27474 -0.2022,-0.55623 -0.28396,-0.84599c-0.06241,-0.22115 -0.16145,-0.45312 -0.26805,-0.6887z" fill="#ffea00" stroke="none" stroke-width="0.5"></path></g></g></svg>