<svg version="1.1" xmlns="http://www.w3.org/2000/svg" xmlns:xlink="http://www.w3.org/1999/xlink" width="65.875" height="65.875" viewBox="0,0,65.875,65.875"><g transform="translate(-207.0625,-147.0625)"><g data-paper-data="{&quot;isPaintingLayer&quot;:true}" fill-rule="nonzero" stroke-linejoin="miter" stroke-miterlimit="10" stroke-dasharray="" stroke-dashoffset="0" style="mix-blend-mode: normal"><path d="M207.0625,180c0,-18.19088 14.74662,-32.9375 32.9375,-32.9375c18.19088,0 32.9375,14.74662 32.9375,32.9375c0,18.19088 -14.74662,32.9375 -32.9375,32.9375c-18.19088,0 -32.9375,-14.74662 -32.9375,-32.9375z" fill="#000000" stroke="none" stroke-width="0" stroke-linecap="butt"></path><path d="M229.35897,164.83014l9.20351,-12.77852l4.77004,1.31301l-9.2035,12.77853z" fill="#ffffff" stroke="none" stroke-width="0" stroke-linecap="butt"></path><path d="M226.83354,165.15622l0.70729,-1.61652l8.84105,2.06915l-0.70729,1.61653z" fill="#ffffff" stroke="none" stroke-width="0" stroke-linecap="butt"></path><path d="M229.86721,165.09244l-16.43808,26.88109l4.25457,-1.16034l14.89096,-24.75381" fill="#ffffff" stroke="#ffffff" stroke-width="0.5" stroke-linecap="round"></path><path d="M257.23157,171.73626c0.11018,-0.22441 0.33459,-0.11423 0.33459,-0.11423l0.26315,0.1292c0.76001,0.37314 1.53067,0.69093 2.21741,1.15618l0.0267,-0.05437l0.44391,0.21795c0.08547,0.03973 0.14473,0.12636 0.14473,0.22682c0,0.13807 -0.11193,0.25 -0.25,0.25c-0.0196,0 -0.03868,-0.00226 -0.05698,-0.00652l-0.48397,-0.10252c-0.16549,-0.03509 -0.33099,-0.07019 -0.49648,-0.10528c-2.86628,-0.78905 -5.69825,-1.56891 -8.6184,-2.1302c0,0 -0.24551,-0.04719 -0.19832,-0.29269c0.04719,-0.24551 0.29269,-0.19832 0.29269,-0.19832c2.4462,0.47018 4.83136,1.09178 7.2257,1.74593c-0.17091,-0.0997 -0.32931,-0.19037 -0.46735,-0.25815l-0.26315,-0.1292c0,0 -0.22441,-0.11018 -0.11423,-0.33459z" fill="#ffffff" stroke="none" stroke-width="0.5" stroke-linecap="butt"></path><path d="M240.13137,177.10892c0,0 -0.19709,-0.15381 -0.04328,-0.35089c0.15381,-0.19709 0.35089,-0.04328 0.35089,-0.04328c1.05113,0.82031 2.10226,1.64061 3.15339,2.46092l0.26279,0.20508c0,0 0.055,0.04292 0.08421,0.11246c0.09563,0.0366 0.19226,0.07394 0.28994,0.11229c2.93512,0.49203 6.55046,0.67962 9.2268,2.18637l0.01234,-0.03589l0.46735,0.16069c0.10101,0.0321 0.17419,0.12666 0.17419,0.2383c0,0.05696 -0.01905,0.10946 -0.05112,0.1515l0.22527,0.06301c0.97189,0.27185 1.88092,0.48972 2.7228,0.95514c0.11868,-0.24509 0.22909,-0.46701 0.32893,-0.64692c-1.27712,-0.44856 -2.55231,-0.90273 -3.8288,-1.35338c0,0 -0.23574,-0.08323 -0.15251,-0.31897c0.08323,-0.23574 0.31897,-0.15251 0.31897,-0.15251c1.29049,0.45559 2.57966,0.9148 3.87083,1.36816c0.26166,-1.21465 -1.72281,-2.86635 -2.68014,-3.94475c0.14904,0.70775 -0.02681,1.68329 -0.03444,2.32206l-0.00058,0.04892c0,0 -0.00299,0.24998 -0.25297,0.24699c-0.24998,-0.00299 -0.24699,-0.25297 -0.24699,-0.25297l0.00058,-0.04892c0.01004,-0.83953 -0.02367,-1.67414 0.07457,-2.49929l-0.04469,-0.00053l0.0038,-0.31822c-0.67127,-0.18734 -1.34102,-0.38114 -2.01047,-0.5776c-2.88381,-0.84629 -5.71277,-1.82281 -8.55345,-2.8034c0,0 -0.23632,-0.08158 -0.15474,-0.31789c0.08158,-0.23632 0.31789,-0.15474 0.31789,-0.15474c2.8333,0.97804 5.65479,1.95218 8.53109,2.79627c1.46826,0.43088 2.93795,0.84927 4.422,1.21386c-1.36379,-0.70297 -2.82329,-1.69317 -3.64922,-2.10012l-0.23628,-0.11642c0,0 -0.22426,-0.1105 -0.11376,-0.33475c0.1105,-0.22426 0.33475,-0.11376 0.33475,-0.11376l0.23628,0.11642c1.79228,0.88311 4.20298,1.65294 5.80128,2.96758l0.02745,-0.04512l0.42333,0.25752c0.07413,0.04338 0.12392,0.12384 0.12392,0.21592c0,0.13807 -0.11193,0.25 -0.25,0.25c-0.0184,0 -0.03634,-0.00199 -0.05361,-0.00576l-0.41181,-0.08155c-1.28915,-0.2554 -2.56297,-0.56551 -3.82945,-0.90493c0.4045,0.44965 0.92673,0.95548 1.40752,1.488c0.16234,-0.08103 0.29073,0.06961 0.29073,0.06961l0.25265,0.29777c1.39253,1.16578 3.4549,2.19915 4.61347,3.65727l0.0483,-0.04561l0.34295,0.36313c0.04252,0.04482 0.06861,0.10538 0.06861,0.17204c0,0.13807 -0.11193,0.25 -0.25,0.25c-0.02951,0 -0.05782,-0.00511 -0.0841,-0.0145l-0.46913,-0.15528c-1.24563,-0.41229 -2.48615,-0.83922 -3.7245,-1.2725c-0.10356,0.17658 -0.21782,0.39872 -0.34099,0.64735l0.12894,0.06004c0.08806,0.03868 0.14957,0.12666 0.14957,0.22901c0,0.12881 -0.09742,0.23487 -0.2226,0.24852l-0.33922,0.04192c-0.37047,0.75928 -0.79796,1.61277 -1.24557,2.16801c1.1664,0.71148 2.37951,1.5001 2.90465,2.34375c0.15716,0.25248 0.49553,2.03986 0.31806,2.27137c-0.23715,0.30936 -2.21205,-0.10871 -2.58885,-0.14406c-1.36841,-0.12838 -2.77301,-0.63057 -4.09343,-1.36504c-0.07224,-0.01937 -0.14399,-0.03952 -0.21514,-0.06046c0.80403,0.66233 1.57834,1.36159 2.19007,2.14379l0.02857,-0.02891l0.3555,0.35142c0.04589,0.04533 0.07434,0.10828 0.07434,0.17788c0,0.13807 -0.11193,0.25 -0.25,0.25c-0.01397,0 -0.02767,-0.00115 -0.04102,-0.00335l-0.42283,-0.06269c-0.68299,-0.10126 -1.35999,-0.22713 -2.03576,-0.36147l0.34427,0.28106c0.05703,0.04582 0.09354,0.11614 0.09354,0.195c0,0.13807 -0.11193,0.25 -0.25,0.25c-0.03248,0 -0.06351,-0.00619 -0.09198,-0.01746l-0.46365,-0.17112c-0.28247,-0.10425 -0.56213,-0.21197 -0.8394,-0.32285c0.72223,0.8376 4.01933,4.12751 3.55384,4.99134c-0.28568,0.53014 -2.48176,-0.10606 -3.726,-0.49681c0.37351,0.29038 0.73556,0.59097 1.0796,0.90638l0.36075,0.3313c0.05012,0.04572 0.08157,0.11156 0.08157,0.18475c0,0.13807 -0.11193,0.25 -0.25,0.25c-0.05208,0 -0.10045,-0.01593 -0.14049,-0.04318l-0.41457,-0.27321l0.0191,-0.02898c-1.25219,-0.48473 -2.41773,-1.23855 -3.48181,-2.13088c-0.62183,-0.17547 -1.24398,-0.34881 -1.86755,-0.51692c-0.0055,0.01324 -0.0121,0.02596 -0.01986,0.03815c-0.23122,0.36339 -1.4356,-0.12206 -1.72727,-0.2037c-0.78765,-0.22046 -1.56384,-0.48385 -2.33403,-0.76681c-0.34311,-0.06146 -0.68657,-0.13941 -0.97537,-0.25901c0.77772,0.85818 1.68699,1.61008 2.60573,2.35253c2.37405,1.19682 5.45698,1.69375 8.04467,2.12473l0.06289,0.01049c0,0 0.24659,0.04114 0.20546,0.28773c-0.04114,0.24659 -0.28773,0.20546 -0.28773,0.20546l-0.06289,-0.01049c-2.08688,-0.34868 -4.47869,-0.74157 -6.58568,-1.49349c0.2058,0.17369 0.40887,0.34944 0.60773,0.52842l0.00598,-0.01101l0.43498,0.23604c0.08034,0.04158 0.13525,0.12546 0.13525,0.22217c0,0.13807 -0.11193,0.25 -0.25,0.25c-0.01545,0 -0.03058,-0.0014 -0.04526,-0.00409l-0.48873,-0.08052c-0.36007,-0.06009 -0.72091,-0.14358 -1.08163,-0.24396c0.41666,0.51775 0.86469,1.02019 1.28961,1.53101c0.30115,0.34252 0.58062,0.69194 0.83018,1.04872l0.01552,-0.01571l0.35553,0.35139c0.0459,0.04533 0.07435,0.10829 0.07435,0.1779c0,0.04681 -0.01287,0.09062 -0.03525,0.12807c0.00031,0.00054 0.00063,0.00108 0.00094,0.00163l0.03459,-0.02916l0.32128,0.38111c0.03732,0.04368 0.05985,0.10036 0.05985,0.16231c0,0.13807 -0.11193,0.25 -0.25,0.25c-0.05602,0 -0.10773,-0.01843 -0.14942,-0.04955c-0.67303,-0.49022 -1.38151,-1.00626 -2.10331,-1.532c-0.00045,-0.00019 -0.00089,-0.00038 -0.00134,-0.00057c-2.74872,-1.1708 -5.44531,-2.40764 -8.12003,-3.72332c0.08438,0.10642 0.1699,0.21212 0.25708,0.3169c0.86025,1.03433 4.80197,5.02603 3.95586,6.54252c-0.38288,0.68623 -2.53229,0.15932 -3.11543,0.03922c-1.67437,-0.34629 -3.27515,-0.81572 -4.86294,-1.34547c0.34902,0.1681 0.70274,0.32908 1.06209,0.4818c0.30054,0.12786 0.60633,0.24401 0.91597,0.34791l0.25925,-0.06419c0,0 0.24747,-0.0355 0.28297,0.21197c0.0355,0.24747 -0.21197,0.28297 -0.21197,0.28297l-0.48949,0.04322c-0.32184,-0.10826 -0.63974,-0.22901 -0.95229,-0.36171c-1.33688,-0.56817 -2.59679,-1.24889 -3.82601,-1.98432c-0.26151,-0.09516 -0.52369,-0.1909 -0.78679,-0.28693c0,0 -0.21544,-0.07863 -0.15831,-0.29162c-0.62324,-0.38927 -1.24156,-0.78899 -1.86118,-1.19138c0.0115,0.02872 0.01782,0.06006 0.01782,0.09289c0,0.13807 -0.11193,0.25 -0.25,0.25c-0.02763,0 -0.05421,-0.00448 -0.07906,-0.01276l-0.39621,-0.12185c-0.76282,-0.23477 -1.51245,-0.46969 -2.28545,-0.67345c0,0 -0.24174,-0.06372 -0.17802,-0.30547c0.06372,-0.24174 0.30547,-0.17802 0.30547,-0.17802c0.69742,0.18384 1.3764,0.39309 2.06265,0.60445c-0.08752,-0.0943 -0.17239,-0.20429 -0.25465,-0.3266c-0.86018,-0.28849 -1.72035,-0.57699 -2.58053,-0.86548c0,0 -0.23702,-0.0795 -0.15753,-0.31652c0.0795,-0.23702 0.31652,-0.15753 0.31652,-0.15753c0.68504,0.22975 1.37008,0.45951 2.05512,0.68926c-0.49578,-1.01923 -0.8786,-2.3543 -1.1625,-3.00445l-0.12242,-0.28034c0,0 -0.10004,-0.22911 0.12906,-0.32915c0.22911,-0.10004 0.32915,0.12906 0.32915,0.12906l0.12242,0.28034c0.48915,1.12018 1.02342,2.22708 1.51306,3.34984c0.30221,0.14736 0.60486,0.29089 0.90818,0.43055c1.58693,0.53224 3.17386,1.06448 4.76079,1.59671c0.08259,0.0277 0.43657,0.08084 0.86479,0.11414c-2.55366,-1.35091 -5.09204,-2.65138 -7.46296,-4.31148c0,0 -0.20479,-0.14339 -0.0614,-0.34818c0.14339,-0.20479 0.34818,-0.0614 0.34818,-0.0614c2.46285,1.72447 5.10877,3.05693 7.76273,4.46602c0.17113,0.09086 0.34245,0.18136 0.51393,0.27155c0.51182,-0.03713 0.89024,-0.16058 0.76958,-0.45433c-0.56304,-1.37075 -3.81692,-2.06473 -4.63197,-3.57938l-0.01449,-0.02768c0,0 -0.11592,-0.2215 0.10558,-0.33742c0.2215,-0.11592 0.33742,0.10558 0.33742,0.10558l0.01449,0.02768c0.42019,0.83191 2.62839,1.82227 3.85871,2.7561c-1.10177,-1.26318 -2.44289,-2.47857 -2.89614,-4.01916l-0.00371,-0.1556c-0.57306,-0.66732 -1.14612,-1.33464 -1.71919,-2.00196l-0.20472,-0.23839c0,0 -0.16287,-0.18966 0.02679,-0.35254c0.18966,-0.16287 0.35254,0.02679 0.35254,0.02679c0.53966,0.62842 1.15832,1.34885 1.75783,2.04697c0.00967,-0.00085 0.01976,-0.00129 0.03029,-0.00129c0.25,0 0.25,0.25 0.25,0.25l-0.00266,0.07459c0.26858,0.31276 0.53006,0.61724 0.77523,0.90274c1.94117,2.26046 4.59995,4.63402 6.13949,7.25209l0.01984,-0.01676l0.32165,0.38082c0.0374,0.0437 0.05999,0.10045 0.05999,0.16248c0,0.05018 -0.01478,0.0969 -0.04023,0.13606c0.50333,0.05689 0.93812,0.07321 0.97522,-0.03199c0.51127,-1.44993 -3.05387,-4.97821 -3.89685,-5.99178c-0.30904,-0.37169 -0.59805,-0.7544 -0.88823,-1.14049c-0.13806,-0.06908 -0.27607,-0.13838 -0.41403,-0.20789c-2.45726,-1.69697 -4.70756,-3.85046 -6.72066,-6.06149c0,0 -0.16831,-0.18486 0.01655,-0.35317c0.18486,-0.16831 0.35317,0.01655 0.35317,0.01655c1.9404,2.13119 4.10377,4.20734 6.46011,5.86605c0.01078,-0.01099 0.02313,-0.02182 0.03721,-0.0324c0.19986,-0.15018 0.35005,0.04968 0.35005,0.04968l0.24667,0.32826c2.2999,1.14355 4.60982,2.23374 6.95367,3.2716c-0.98589,-0.7181 -1.96172,-1.42887 -2.87261,-2.09234c0,0 -0.20208,-0.14719 -0.05489,-0.34927c0.14719,-0.20208 0.34927,-0.05489 0.34927,-0.05489c1.52543,1.11109 3.05087,2.22218 4.5763,3.33327c-0.12128,-0.14623 -0.23957,-0.30111 -0.3543,-0.46016c-0.73749,-0.70489 -1.47499,-1.40979 -2.21248,-2.11468c-0.88248,-0.34682 -1.75424,-0.72369 -2.60185,-1.03238c0,0 -0.23491,-0.08555 -0.14936,-0.32046c0.08555,-0.23491 0.32046,-0.14936 0.32046,-0.14936c0.47893,0.17442 0.96691,0.3726 1.4608,0.57512c-0.53315,-0.50958 -1.0663,-1.01916 -1.59945,-1.52875c-1.01658,-0.97164 -1.82218,-1.7196 -3.10027,-2.31316l-0.00852,-0.00396c0,0 -0.22674,-0.1053 -0.12144,-0.33204c0.1053,-0.22674 0.33204,-0.12144 0.33204,-0.12144l0.00852,0.00396c1.32677,0.61616 2.18265,1.39922 3.23514,2.40519c0.83961,0.80249 1.86765,1.64179 2.89128,2.52826c-0.02776,-0.07014 -0.05123,-0.19981 0.09277,-0.29689c0.20729,-0.13975 0.34704,0.06754 0.34704,0.06754l0.21879,0.32453c0.0461,0.06838 0.09317,0.1363 0.14112,0.20383c0.24009,0.07872 0.48036,0.15131 0.72048,0.21566c-1.45901,-0.95752 -3.49885,-3.13322 -4.09862,-3.82923l-0.32498,-0.37818c-0.03817,-0.0439 -0.06129,-0.10124 -0.06129,-0.16398c0,-0.01145 0.00077,-0.02271 0.00226,-0.03375c-0.45915,-0.17991 -0.91781,-0.35974 -1.37718,-0.53441c-2.91732,-1.10933 -5.19883,-2.87746 -7.62948,-4.79963c0,0 -0.19609,-0.15507 -0.04102,-0.35117c0.03608,-0.04562 0.07438,-0.07224 0.11191,-0.08622c-0.85754,-0.47213 -1.71167,-0.94238 -2.55359,-1.40591c0,0 -0.219,-0.12057 -0.09843,-0.33958c0.12057,-0.219 0.33958,-0.09843 0.33958,-0.09843c2.33602,1.28613 4.67204,2.57225 7.00806,3.85838l0.094,0.05175c0,0 0.219,0.12057 0.09843,0.33958c-0.12057,0.219 -0.33958,0.09843 -0.33958,0.09843c-1.2976,-0.71441 -2.6242,-1.44479 -3.94758,-2.17339c2.25665,1.77928 4.4123,3.40336 7.13541,4.43884c0.07899,0.03004 0.15799,0.06034 0.23699,0.09087c0.89085,-0.45883 2.74957,-1.79645 3.64681,-1.718c0.39628,0.03465 0.90605,0.31928 1.44255,0.70494c-1.01259,-1.37757 -1.96222,-2.9581 -3.231,-4.1065c-1.59849,-0.65195 -3.19919,-1.29825 -4.80504,-1.93321c0,0 -0.10123,-0.04003 -0.14368,-0.13405c-1.53293,-0.63284 -3.03788,-1.36338 -4.53704,-2.00118c0,0 -0.23005,-0.09787 -0.13218,-0.32792c0.09787,-0.23005 0.32792,-0.13218 0.32792,-0.13218c2.70955,1.15274 5.44123,2.6195 8.32266,3.23501c2.77918,0.59366 5.54696,1.03867 8.34401,1.45118c-0.03875,-0.01461 -0.07628,-0.02824 -0.11245,-0.04072c-2.19378,-0.75671 -4.27277,-1.74055 -6.38528,-2.69909c-0.30355,-0.13773 -0.60709,-0.27546 -0.91064,-0.4132l-0.02001,-0.00908c0,0 -0.22766,-0.1033 -0.12436,-0.33096c0.1033,-0.22766 0.33096,-0.12436 0.33096,-0.12436c0.30355,0.13773 0.62711,0.28455 0.93066,0.42228c2.19327,0.99518 4.85667,1.71314 7.17572,2.71645c0.02461,-0.01867 0.05278,-0.03289 0.08331,-0.04146c-0.33064,-0.31084 -0.64422,-0.632 -0.93738,-0.95956l-0.01268,0.01628l-0.39245,-0.30565c-0.05982,-0.04568 -0.09841,-0.11774 -0.09841,-0.19881c0,-0.13807 0.11193,-0.25 0.25,-0.25c0.00435,0 0.00868,0.00011 0.01297,0.00033l0.42631,0.01919c1.96819,0.08859 3.58163,0.30253 5.0278,0.91029c0.27055,-0.39629 1.0777,0.09651 1.44054,0.01805c-0.58149,-0.36526 -1.10499,-0.68563 -1.45576,-0.94921c-0.26794,-0.20134 -1.7367,-1.0811 -1.69709,-1.42959c0.1102,-0.96951 1.97269,-0.85152 3.4338,-0.63108c-0.4611,-0.17931 -0.90347,-0.3649 -1.23545,-0.45776l-0.35681,-0.0998c0,0 -0.24076,-0.06734 -0.17341,-0.3081c0.0042,-0.01502 0.00908,-0.02884 0.01453,-0.04155c-1.6301,-0.02496 -3.64196,-0.05578 -5.23536,-0.08018c-2.99417,-0.04585 -5.99309,-0.65552 -8.95727,-1.07411c0,0 -0.24754,-0.03496 -0.21259,-0.2825c0.03496,-0.24754 0.2825,-0.21259 0.2825,-0.21259c2.9432,0.41563 5.92214,1.02373 8.89501,1.06925c1.19413,0.01829 2.38826,0.03658 3.58238,0.05486c-0.56902,-0.21476 -1.13358,-0.48984 -1.51956,-0.62291c-1.9864,-0.68485 -4.30108,-0.80771 -6.37298,-1.16599c-1.71794,-0.66422 -3.14179,-1.07336 -4.37477,-2.47021l-0.16279,-0.18443c0,0 -0.16544,-0.18743 0.02199,-0.35287c0.18743,-0.16544 0.35287,0.02199 0.35287,0.02199l0.16279,0.18443c0.70589,0.7997 1.47595,1.24706 2.33547,1.61765c-0.77957,-0.60838 -1.59839,-1.24739 -2.3001,-1.79501zM255.41582,186.73014c-0.36072,0.20784 -0.98685,-0.41621 -1.27713,-0.21243c1.04368,0.51647 2.00726,1.26459 2.96656,2.3529l0.01159,-0.01387l0.38223,0.31941c0.05565,0.04585 0.09113,0.1153 0.09113,0.19304c0,0.12767 -0.0957,0.23299 -0.21929,0.24813l-0.49173,0.06804c-0.32955,0.0456 -0.75311,0.07035 -1.23029,0.06714l0.10116,0.22258c0.01578,0.03277 0.02462,0.06952 0.02462,0.10832c0,0.00686 -0.00028,0.01365 -0.00082,0.02036c0.26318,0.04483 0.54543,0.08127 0.85202,0.11003c0.72867,0.06836 2.02452,1.01916 2.17463,0.30285c0.30381,-1.44977 -1.56355,-2.83126 -3.22328,-3.89783c-0.05368,0.04293 -0.10751,0.08024 -0.16141,0.1113zM252.53723,188.24285c0.40415,0.21085 0.8083,0.4217 1.21244,0.63255c0.33748,0.1195 0.6863,0.21879 1.05773,0.28605c-0.53434,-0.88209 -1.21293,-2.27922 -1.17696,-2.74927c-0.1919,-0.13953 -0.39118,-0.25522 -0.60114,-0.33679c-1.01348,-0.39373 -2.75384,-0.18829 -3.99268,-0.17904c0.86603,0.43543 1.84418,1.49827 2.46913,1.985c0.01024,0.00798 0.02046,0.01593 0.03064,0.02386c0.25584,0.11267 0.504,0.22871 0.74915,0.34324c0.11476,-0.07705 0.25169,-0.00561 0.25169,-0.00561zM260.40614,183.21087c-0.8746,-0.58782 -1.79656,-1.43341 -2.56581,-2.13847c0.20921,0.4443 0.29666,0.88793 0.18139,1.31588c0.79364,0.27757 1.58819,0.5525 2.38442,0.82258zM252.4479,183.9963c-0.06734,0.59242 1.02401,0.61521 1.50067,0.9734c0.41812,0.31421 0.97712,0.65321 1.57313,1.01388c0.39536,-0.45353 0.79091,-1.22171 1.14263,-1.94677c-1.09966,-0.19111 -4.13865,-0.72476 -4.21643,-0.04051zM250.14683,195.73528c0.91649,0.2599 1.84651,0.61455 2.79599,0.70292c0.39312,0.03659 1.49734,0.44426 1.16008,0.23898c-1.29629,-0.78904 -2.60051,-3.25057 -3.59162,-4.46925c-0.16641,-0.20476 -0.32497,-0.4147 -0.47945,-0.62754c-1.86677,-0.80567 -3.6441,-1.7422 -5.4686,-2.70565c-0.78734,-0.32403 -1.57469,-0.64771 -2.3624,-0.97034c0.94482,1.07833 1.73443,2.34436 2.57463,3.47053c0.48435,0.6492 0.93751,1.2179 1.40401,1.73747c0.3234,0.28102 0.61068,0.52557 0.83445,0.68659c0.82832,0.59602 1.7034,1.16931 2.55688,1.76802c0.19362,0.05805 0.38568,0.1143 0.57601,0.16828zM249.32663,190.57498l-0.25657,-0.36786c0,0 -0.09275,-0.13298 -0.02178,-0.25945c-0.42808,-0.42007 -0.80821,-0.80258 -1.08658,-1.03754l-0.19633,-0.16572c0,0 -0.19104,-0.16126 -0.02979,-0.3523c0.16126,-0.19104 0.3523,-0.02979 0.3523,-0.02979l0.19633,0.16572c0.98948,0.83521 2.1837,1.6425 3.17374,2.57044c0.7611,0.15615 1.52134,0.30975 2.28766,0.43721c-1.14224,-0.64993 -2.51002,-2.18186 -3.51116,-3.17843c-3.05127,-0.43677 -6.05798,-0.88367 -9.07085,-1.48464c0.04877,0.04128 0.09707,0.08318 0.14493,0.12567c1.15661,0.47179 2.31194,0.94687 3.46685,1.42368c1.57276,0.82828 3.10835,1.63934 4.69719,2.36299c-0.04854,-0.07001 -0.09715,-0.14003 -0.14593,-0.20998zM245.77257,193.40912c-0.92229,-0.81184 -2.11665,-1.87498 -2.84666,-2.05474c0.40641,0.41861 0.84094,0.86617 1.23518,1.27224c0.2336,0.24061 1.26399,1.10333 1.76346,1.79584c0.384,0.11594 0.76636,0.23576 1.14593,0.35635c-0.45514,-0.44045 -0.88824,-0.90114 -1.2979,-1.36969zM250.40499,191.19619c-0.02815,-0.02316 -0.05631,-0.04658 -0.08448,-0.07023c0.01168,0.0164 0.02339,0.03278 0.03511,0.04915c0.01645,0.00703 0.03291,0.01406 0.04938,0.02107zM256.7513,189.19806c-0.9698,-0.37836 -1.70801,-1.45539 -2.52519,-2.26774c0.23598,0.51963 0.7031,1.51979 1.04847,2.29673c0.45054,0.04502 0.93706,0.04134 1.47672,-0.02899zM252.09909,191.75449l0.01104,-0.01352c-0.00932,-0.00186 -0.01865,-0.00372 -0.02797,-0.00559c0.00566,0.00636 0.0113,0.01273 0.01694,0.0191zM243.80234,192.97491c-0.46439,-0.47832 -0.92877,-0.95664 -1.39316,-1.43496l-0.05589,-0.05757c0,0 -0.02615,-0.02693 -0.04775,-0.07006c-0.73137,0.24125 -1.80615,0.94633 -2.52372,1.37271c0.53312,0.2118 1.06724,0.42927 1.60379,0.63988c1.16307,0.11324 2.35414,0.37922 3.53938,0.7074c-0.37478,-0.38525 -0.74826,-0.77179 -1.12265,-1.15741zM245.62239,194.99332c-0.24139,-0.06368 -0.48304,-0.12644 -0.72502,-0.1881c0.26932,0.16326 0.52541,0.28406 0.72502,0.1881zM235.47127,199.91369c0.28404,0.35514 1.25704,1.3179 1.19784,1.80606c-0.01127,0.09292 -0.03301,0.17235 -0.06363,0.23989c0.57685,0.29648 1.15399,0.59243 1.73031,0.88993c-0.43094,-0.45513 -0.81683,-1.07394 -1.13458,-1.45016c-1.50409,-1.7808 -3.02144,-3.54985 -4.54007,-5.31826c0.69474,1.39567 1.8589,2.64318 2.81013,3.83254zM234.62761,202.01306c-2.11715,-0.5055 -4.13339,-1.18077 -6.10834,-2.01702c0.56707,0.36321 1.13602,0.7205 1.71171,1.06572c2.54897,0.92747 5.0347,1.79935 7.71123,2.3529c0.07263,0.01509 0.31089,0.06021 0.61504,0.11085c-0.8052,-0.4117 -1.61059,-0.82334 -2.41454,-1.23776c-0.47905,0.07729 -1.15907,-0.18976 -1.51511,-0.2747zM236.1699,201.69153c-0.12977,-0.49872 -0.36791,-0.96522 -0.66978,-1.41429c0.00025,0.00532 0.00042,0.01064 0.00052,0.01595c0.00698,0.40371 -0.21811,0.65692 -0.55731,0.80791c0.40542,0.21103 0.81151,0.42079 1.21787,0.63002c0.00966,-0.01038 0.0129,-0.02346 0.00871,-0.03959zM234.19828,201.27656c-0.12134,0.01157 -0.24579,0.01758 -0.37079,0.01905c0.26183,0.0696 0.52515,0.13653 0.79008,0.20076c-0.13984,-0.07313 -0.27961,-0.14639 -0.41929,-0.21982z" fill="#ffffff" stroke="none" stroke-width="0.5" stroke-linecap="butt"></path><path d="M249.27298,160.92212c0.17144,-0.18195 0.3534,-0.01051 0.3534,-0.01051l0.18451,0.17385c0.94115,0.88855 1.99112,1.69918 3.08144,2.46818c-0.01083,-0.0443 -0.00825,-0.09785 0.0196,-0.16124c0.10056,-0.22888 0.32944,-0.12833 0.32944,-0.12833c0.76295,0.33519 1.66433,0.73121 2.42728,1.0664c0,0 0.22888,0.10056 0.12833,0.32944c-0.10056,0.22888 -0.32944,0.12833 -0.32944,0.12833c-0.72535,-0.31867 -1.45069,-0.63735 -2.17604,-0.95602c1.39158,0.9615 2.83451,1.86336 4.18983,2.77928c0.95608,0.64611 3.23394,1.61438 3.80488,2.60164c0.56247,0.9726 -0.25831,1.54961 -1.33807,1.78839c1.43937,1.31963 3.10344,2.84244 4.20295,4.49409l0.02276,-0.02074l0.33613,0.36901c0.04083,0.0445 0.06576,0.10383 0.06576,0.16898c0,0.13807 -0.11193,0.25 -0.25,0.25c-0.01821,0 -0.03596,-0.00195 -0.05306,-0.00564l-0.48566,-0.0951c-0.6148,-0.12038 -1.26739,-0.2098 -1.91653,-0.32302c-0.57392,0.50958 -1.38047,1.03515 -0.93314,1.23208c0,0 0.19609,0.15507 0.04102,0.35117c-0.06627,0.0838 -0.14004,0.10347 -0.20279,0.09851c0.79004,0.67622 1.76746,1.5646 1.68516,1.87652c-0.32097,1.2165 -4.92098,-0.13468 -5.68253,-0.28524c0,0 -0.24525,-0.04849 -0.19677,-0.29374c0.04849,-0.24525 0.29374,-0.19677 0.29374,-0.19677c1.21923,0.24104 2.61601,0.75254 3.85235,0.67758c0.4147,-0.02514 1.31738,0.39391 1.24628,-0.01542c-0.0628,-0.36159 -2.07989,-1.82032 -2.45819,-2.1823c-0.6021,-0.57613 -1.2042,-1.15225 -1.8063,-1.72838l-0.24637,-0.23574c0,0 -0.18063,-0.17284 -0.00779,-0.35347c0.17284,-0.18063 0.35347,-0.00779 0.35347,-0.00779c0.6021,0.57613 1.45057,1.38799 2.05267,1.96412c0.08784,0.08405 0.29257,0.25487 0.55074,0.47235c-0.53004,-0.75011 0.42354,-0.99584 1.02715,-1.45298c-0.53125,-0.10408 -1.05397,-0.2325 -1.54521,-0.41578l-0.02231,-0.00192l-0.0101,0.05158l-0.4862,-0.0952c-0.11731,-0.02061 -0.20645,-0.123 -0.20645,-0.24622c0,-0.13807 0.11193,-0.25 0.25,-0.25c0.00823,0 0.01637,0.0004 0.02439,0.00118c0.49816,0.04282 1.4915,0.12821 1.98967,0.17103c0,0 0.13473,0.01158 0.19749,0.11679c0.07971,0.01746 0.15971,0.03585 0.23968,0.05491c0.00118,-0.00755 0.00224,-0.01515 0.00318,-0.0228c0.20946,-1.70147 -2.51134,-3.40739 -3.72869,-3.76603c-0.31975,-0.0942 -0.63949,-0.1884 -0.95924,-0.2826l-0.47426,-0.13972c-0.10641,-0.02871 -0.18471,-0.12591 -0.18471,-0.24139c0,-0.13807 0.11193,-0.25 0.25,-0.25c0.0027,0 0.0054,0.00004 0.00808,0.00013l0.49869,0.0139l-0.00345,0.12364c0.00812,0.00239 0.06318,0.01861 0.0713,0.02101c1.24254,0.00383 3.28196,0.14428 3.58351,-0.40615c0.19491,-0.35577 -0.26134,-0.86504 -0.91993,-1.37579c0.16944,0.20621 0.33235,0.42181 0.4883,0.6468l0.02,-0.01946l0.34845,0.35823c0.04392,0.04505 0.07097,0.10661 0.07097,0.1745c0,0.13807 -0.11193,0.25 -0.25,0.25c-0.02122,0 -0.04182,-0.00264 -0.0615,-0.00762l-0.47794,-0.1102c-1.29303,-0.29999 -2.54355,-0.92241 -3.77777,-1.41043c0,0 -0.23249,-0.09193 -0.14056,-0.32441c0.09193,-0.23249 0.32441,-0.14056 0.32441,-0.14056c0.96729,0.38247 1.94784,0.85567 2.95032,1.17828c-0.98312,-0.68375 -1.90624,-1.95559 -2.93435,-2.80853c-0.31153,-0.20659 -0.62627,-0.41304 -0.94268,-0.62017c-0.13565,-0.06358 -0.27363,-0.11635 -0.41422,-0.15645c-0.77761,-0.22179 -2.10078,0.09381 -2.9195,0.12552l-0.22688,0.00879c0,0 -0.24981,0.00968 -0.25949,-0.24014c-0.00968,-0.24981 0.24014,-0.25949 0.24014,-0.25949l0.22688,-0.00879c1.05417,-0.04083 2.07945,0.07018 3.04975,0.33205c-2.03862,-1.33409 -4.12652,-2.70746 -5.86098,-4.3387l-0.18451,-0.17385c0,0 -0.18195,-0.17144 -0.01051,-0.3534zM258.92937,171.12695c0.28719,0.13321 0.59922,0.30316 0.91434,0.50281c-0.14922,-0.16546 -0.29152,-0.3128 -0.42546,-0.43575l-0.10137,-0.09305c-0.12912,0.01285 -0.25884,0.02148 -0.38752,0.02598zM262.36958,175.18428c-0.00332,0.02695 -0.01033,0.0546 -0.02065,0.08287c0.39093,0.1037 0.76408,0.21214 1.0777,0.29523c-0.35045,-0.23592 -0.71184,-0.5687 -1.07323,-0.95003c0.03285,0.1896 0.03972,0.38072 0.01618,0.57193z" fill="#ffffff" stroke="none" stroke-width="0.5" stroke-linecap="butt"></path><path d="M229.29528,192.85393c-0.03496,0.24754 -0.2825,0.21259 -0.2825,0.21259c-0.49509,-0.06991 -1.39279,-0.19669 -1.88788,-0.2666c0,0 -0.24754,-0.03496 -0.21259,-0.2825c0.03496,-0.24754 0.2825,-0.21259 0.2825,-0.21259c0.49509,0.06991 0.99018,0.13983 1.48526,0.20974l0.40262,0.05686c0,0 0.24754,0.03496 0.21259,0.2825z" fill="#ffffff" stroke="none" stroke-width="0.5" stroke-linecap="butt"></path><path d="M251.12838,170.50969c-0.08513,0.23506 -0.32019,0.14994 -0.32019,0.14994l-0.24,-0.08692c-0.78149,-0.28301 -1.55946,-0.55575 -2.35471,-0.79763c0,0 -0.23918,-0.07275 -0.16643,-0.31193c0.07275,-0.23918 0.31193,-0.16643 0.31193,-0.16643c0.80356,0.24441 1.58982,0.51991 2.37947,0.80587l0.24,0.08692c0,0 0.23506,0.08513 0.14994,0.32019z" fill="#ffffff" stroke="none" stroke-width="0.5" stroke-linecap="butt"></path><path d="M258.28477,165.44804c0,-0.13807 0.11193,-0.25 0.25,-0.25c0.13807,0 0.25,0.11193 0.25,0.25c0,0.13807 -0.11193,0.25 -0.25,0.25c-0.13807,0 -0.25,-0.11193 -0.25,-0.25z" fill="#ffffff" stroke="none" stroke-width="0.5" stroke-linecap="butt"></path></g></g></svg>