<svg version="1.1" xmlns="http://www.w3.org/2000/svg" xmlns:xlink="http://www.w3.org/1999/xlink" width="143.90456" height="102.28082" viewBox="0,0,143.90456,102.28082"><g transform="translate(-136.34547,-139.75)"><g data-paper-data="{&quot;isPaintingLayer&quot;:true}" fill-rule="nonzero" stroke-linejoin="miter" stroke-miterlimit="10" stroke-dasharray="" stroke-dashoffset="0" style="mix-blend-mode: normal"><path d="" data-paper-data="{&quot;index&quot;:null}" fill="none" stroke="#000000" stroke-width="1.5" stroke-linecap="round"></path><path d="" data-paper-data="{&quot;index&quot;:null}" fill="none" stroke="#000000" stroke-width="1.5" stroke-linecap="round"></path><path d="" data-paper-data="{&quot;index&quot;:null}" fill="none" stroke="#000000" stroke-width="1.5" stroke-linecap="round"></path><path d="" data-paper-data="{&quot;index&quot;:null}" fill="none" stroke="#000000" stroke-width="1.5" stroke-linecap="round"></path><path d="" data-paper-data="{&quot;index&quot;:null}" fill="none" stroke="#000000" stroke-width="1.5" stroke-linecap="round"></path><path d="" data-paper-data="{&quot;index&quot;:null}" fill="none" stroke="#000000" stroke-width="1.5" stroke-linecap="round"></path><path d="M200.50004,180c0,-21.81525 17.68475,-39.5 39.5,-39.5c21.81525,0 39.5,17.68475 39.5,39.5c0,21.81525 -17.68475,39.5 -39.5,39.5c-21.81525,0 -39.5,-17.68475 -39.5,-39.5z" fill="#6e6e6e" stroke="#000000" stroke-width="1.5" stroke-linecap="butt"></path><path d="M202.85559,181.6599c0,0 -2.28148,-3.48635 -2.28148,-5.83045c0,-2.68059 2.28148,-9.37942 2.28148,-9.37942c0,0 25.76053,3.29547 38.0247,3.29547c12.45976,0 36.15636,-3.29547 36.15636,-3.29547c0,0 0.32325,0.8142 0.73295,2.06366c1.27619,3.89191 3.39127,12.00691 -0.81086,12.89272c-2.60416,0.54896 -18.81959,2.66663 -35.57172,2.60715c-18.95763,-0.06731 -38.53144,-2.35365 -38.53144,-2.35365z" fill="#d0d0d0" stroke="#000000" stroke-width="0" stroke-linecap="butt"></path><path d="M220.2872,168.69041l16.34335,9.20811" fill="none" stroke="#000000" stroke-width="1.5" stroke-linecap="round"></path><path d="M228.71238,178.36443l0.2535,-3.54897" fill="none" stroke="#000000" stroke-width="1.5" stroke-linecap="round"></path><path d="M245.30508,176.18343l13.96519,-6.03143" fill="none" stroke="#000000" stroke-width="1.5" stroke-linecap="round"></path><path d="M251.52719,179.12492v-5.06996" fill="none" stroke="#000000" stroke-width="1.5" stroke-linecap="round"></path><path d="M166.01544,241.64211c-9.32527,-3.17932 -14.66238,-10.7363 -19.32925,-19.08683c-0.19163,-0.34289 -4.93627,-8.8201 -5.01326,-9.01013c-0.07699,-0.19003 -2.57095,-9.57911 -2.67203,-9.95869c-0.08831,-0.33163 -2.64973,-9.91642 -2.64235,-10.03212c0.008,-0.12539 0.02101,-0.24968 0.03852,-0.37298l-0.05161,-0.00208l0.10106,-2.50883c0.04659,-1.33975 1.14736,-2.41155 2.49846,-2.41155c0.96758,0 1.80678,0.54968 2.22235,1.35381l2.33599,4.31076c4.54701,7.49271 9.71174,14.80222 16.76583,20.15614c0.293,0.22238 0.58958,0.43973 0.88922,0.65272c-3.16603,-4.02708 -5.86607,-8.39981 -7.98701,-13.36435c-0.15413,-0.36077 -4.04514,-9.47249 -4.05137,-9.60901c-0.00652,-0.143 -0.00956,-0.28575 -0.00938,-0.42828l-0.05246,0.00307l-0.29043,-4.96972c-0.00367,-0.0554 -0.00553,-0.11129 -0.00553,-0.16761c0,-1.38071 1.11929,-2.5 2.5,-2.5c1.0004,0 1.86355,0.5876 2.26316,1.43649l1.42469,2.86804l-0.00189,0.00094l0.00455,0.00444c1.12834,2.30178 2.30875,4.46937 3.59428,6.5209c0.26552,-0.11523 0.55496,-0.18573 0.85881,-0.20196c0.12882,-0.33658 0.35875,-0.68281 0.73271,-1.02202c1.85169,-1.67965 3.53135,0.17204 3.53135,0.17204c1.353,1.49158 2.70617,2.98302 4.05924,4.47454c-0.46175,-0.72551 -0.86856,-1.3647 -1.18967,-1.86924c0,0 -1.34232,-2.10907 0.76675,-3.45139c2.10907,-1.34232 3.45139,0.76675 3.45139,0.76675c0.20224,0.31777 0.40449,0.63554 0.60673,0.95331c-0.06017,-0.3753 -0.12738,-0.7481 -0.20525,-1.11712l-1.01317,-4.80111c-0.04238,-0.18245 -0.06478,-0.37256 -0.06478,-0.5679c0,-1.38071 1.11929,-2.5 2.5,-2.5c0.42213,0 0.81982,0.10462 1.16856,0.28935l2.85304,1.43585l-0.01152,0.02289c0.0781,0.03298 0.15574,0.06729 0.23288,0.10304c3.83419,1.77667 6.75896,4.81979 9.27177,8.19047c-0.06131,-0.22857 -0.1343,-0.45428 -0.22116,-0.6766c-1.12684,-2.88428 -3.58507,-5.04953 -5.35453,-7.59133l-3.1214,-3.78409c-0.36357,-0.43414 -0.58245,-0.99359 -0.58245,-1.60416c0,-1.38071 1.11929,-2.5 2.5,-2.5c0.27419,0 0.53806,0.04414 0.78491,0.1257l4.72689,1.44151c1.39432,0.22504 2.6661,0.58053 3.52111,1.14951c2.00196,1.33222 3.9483,3.09684 5.81978,5.0118c-1.26011,-2.06473 -2.60566,-4.10216 -3.95907,-5.99427c-2.78612,-3.89506 -7.15256,-6.92573 -10.94652,-9.79026l-2.57997,-1.59811c-0.73113,-0.43626 -1.22082,-1.23514 -1.22082,-2.1484c0,-1.34541 1.06279,-2.4426 2.39463,-2.49782l4.33221,-0.20765l0.00322,0.06711c0.24313,-0.0119 0.48758,-0.01021 0.73357,0.00738c0.24492,0.01751 8.87386,5.23901 9.34447,5.56355c5.08296,3.50532 8.20575,7.26537 12.06336,11.959c3.58167,4.35789 7.15637,8.54636 9.95424,13.45811l-2.38107,3.73424c0,0 -2.26233,0 -2.48277,-2.1521c-2.571,-4.29994 -5.79932,-8.02434 -8.98614,-11.90606c-0.91215,-1.11104 -3.9235,-5.36629 -4.38656,-5.85432c-1.03325,-1.08897 -2.20406,-2.02518 -3.44431,-2.88183c2.04801,2.37245 3.9314,4.94882 5.75607,7.87546c1.2541,2.01149 4.61047,6.96038 4.95891,9.37788c0.01397,0.0969 0.02635,0.19386 0.03724,0.29088l0.03408,-0.00645l0.81855,4.32566c0.0347,0.16597 0.05295,0.33798 0.05295,0.51426c0,1.38071 -1.11929,2.5 -2.5,2.5c-0.73996,0 -1.40483,-0.32147 -1.86257,-0.83238l-2.06003,-2.28087c-3.48865,-3.83301 -7.41545,-8.88127 -11.64181,-11.9483c1.75741,2.52835 4.2349,6.11076 4.33103,6.35683c1.28021,3.27684 1.48229,6.92025 1.24758,10.50964l0.27322,-0.03787l0.68074,4.91084c0.0194,0.12552 0.02947,0.25411 0.02947,0.38507c0,1.38071 -1.11929,2.5 -2.5,2.5c-1.14564,0 -2.1113,-0.77061 -2.4069,-1.82175l-1.36958,-4.47065c-1.67964,-2.55079 -2.95543,-5.41139 -5.01533,-7.66532c-1.29247,-1.41422 -3.45259,-2.38602 -5.10019,-3.63958c0.69421,2.78746 1.61761,5.54583 1.74524,8.40523l1.0215,4.84056c0.04238,0.18245 0.06478,0.37256 0.06478,0.5679c0,0.74421 -0.32518,1.41246 -0.8412,1.87044l1.89918,1.65097c0.39509,0.33968 0.68284,0.80069 0.80545,1.32523c0.51857,0.45807 0.84559,1.12801 0.84559,1.87432c0,1.38071 -1.11929,2.5 -2.5,2.5c-0.31287,0 -0.61231,-0.05747 -0.88835,-0.16243l-4.65909,-1.64771c-1.10093,-0.22813 -2.18189,-0.58821 -3.24321,-1.1694c-3.71352,-2.03358 -6.9271,-4.66522 -9.73898,-7.68162c3.69617,6.00911 8.42011,10.90797 13.6418,15.66897l3.0796,2.36985c0.60526,0.45626 0.99655,1.18123 0.99655,1.99759c0,1.38071 -1.11929,2.5 -2.5,2.5c-0.40706,0 -0.7914,-0.09729 -1.13103,-0.26988l-4.45851,-2.14635l0.00517,-0.01074c-0.0226,-0.00677 -0.04519,-0.0136 -0.06777,-0.02049c-1.42246,-0.43376 -7.54747,-4.40337 -8.79274,-5.18958c-7.04987,-4.451 -12.55312,-10.12853 -17.30319,-16.62112c0.2563,0.96678 0.51205,1.9337 0.76749,2.9007c1.30431,4.93775 3.44593,8.53679 5.93166,12.98457c4.11032,7.35469 8.71339,14.5548 17.27244,17.01765l-0.91662,4.89716c0,0 -0.72287,0 -1.39121,-0.38871z" fill="#ababab" stroke="none" stroke-width="0.5" stroke-linecap="butt"></path></g></g></svg>