<svg version="1.1" xmlns="http://www.w3.org/2000/svg" xmlns:xlink="http://www.w3.org/1999/xlink" width="88.70375" height="88.90949" viewBox="0,0,88.70375,88.90949"><g transform="translate(-335.85721,-129.2096)"><g data-paper-data="{&quot;isPaintingLayer&quot;:true}" fill-rule="nonzero" stroke-linejoin="miter" stroke-miterlimit="10" stroke-dasharray="" stroke-dashoffset="0" style="mix-blend-mode: normal"><g stroke="none" stroke-linecap="butt"><path d="M379.6416,147.88403c-0.75371,7.11104 -4.12385,12.58323 -7.52742,12.22248c-3.40358,-0.36075 -2.76044,-5.45428 -2.00673,-12.56531c0.75371,-7.11104 -11.10949,-13.75269 -7.70592,-13.39194c2.0635,0.21871 10.30294,-0.06772 14.67789,3.36365c2.84115,2.22838 2.85894,7.57133 2.56218,10.37112z" data-paper-data="{&quot;index&quot;:null}" fill="#ffffff" stroke-width="NaN"></path><path d="M384.71019,147.70489c-1.01391,9.56596 -5.54752,16.92728 -10.12609,16.44199c-4.57857,-0.48529 -3.71341,-7.33723 -2.6995,-16.90319c1.01391,-9.56596 -14.94478,-18.50049 -10.36621,-18.0152c2.77588,0.29422 13.85978,-0.09109 19.74509,4.52488c3.82199,2.99767 3.84591,10.18516 3.44671,13.9515z" fill="#a97eff" stroke-width="NaN"></path></g><path d="" data-paper-data="{&quot;index&quot;:null}" fill="none" stroke="#000000" stroke-width="1.5" stroke-linecap="round"></path><path d="" data-paper-data="{&quot;index&quot;:null}" fill="none" stroke="#000000" stroke-width="1.5" stroke-linecap="round"></path><path d="" data-paper-data="{&quot;index&quot;:null}" fill="none" stroke="#000000" stroke-width="1.5" stroke-linecap="round"></path><path d="" data-paper-data="{&quot;index&quot;:null}" fill="none" stroke="#000000" stroke-width="1.5" stroke-linecap="round"></path><path d="M336.83047,173.70251c2.29935,-21.69373 21.74959,-37.41598 43.44332,-35.11663c21.69373,2.29935 37.41598,21.74959 35.11663,43.44332c-2.29935,21.69373 -21.74959,37.41598 -43.44332,35.11663c-21.69373,-2.29935 -37.41598,-21.74959 -35.11663,-43.44332z" fill="#d8d8d8" stroke="#000000" stroke-width="1.5" stroke-linecap="butt"></path><path d="" data-paper-data="{&quot;index&quot;:null}" fill="none" stroke="#000000" stroke-width="1.5" stroke-linecap="butt"></path><path d="M357.19109,175.29767c0,0 5.59063,-12.23351 8.9566,-11.81474c3.42432,0.42603 5.55757,12.9778 5.55757,12.9778" fill="none" stroke="#000000" stroke-width="1.5" stroke-linecap="round"></path><path d="M375.76215,178.54087c0,0 5.59063,-12.23351 8.9566,-11.81474c3.42432,0.42603 5.55756,12.9778 5.55756,12.9778" fill="none" stroke="#000000" stroke-width="1.5" stroke-linecap="round"></path><path d="M379.55579,192.6083c0,0 -10.30144,4.61326 -13.94093,3.31582c-2.86153,-1.02011 -6.1288,-10.47051 -6.1288,-10.47051" fill="none" stroke="#000000" stroke-width="1.5" stroke-linecap="round"></path><g stroke="none" stroke-linecap="butt"><path d="M403.5429,143.72574c6.72217,-3.27968 17.47904,-0.57944 20.25492,-0.28522c4.57857,0.48529 -12.89846,5.87591 -13.91238,15.44186c-1.01391,9.56596 -1.60432,16.44702 -6.1829,15.96172c-4.57857,-0.48529 -7.46831,-8.63344 -6.45439,-18.1994c0.3992,-3.76634 1.9293,-10.78911 6.29476,-12.91898z" data-paper-data="{&quot;index&quot;:null}" fill="#a97eff" stroke-width="NaN"></path><path d="M406.81156,148.399c4.99706,-2.43802 12.99338,-0.43074 15.05688,-0.21203c3.40358,0.36075 -9.58832,4.36797 -10.34203,11.47901c-0.75371,7.11104 -1.19261,12.22621 -4.59619,11.86546c-3.40358,-0.36075 -5.55172,-6.41783 -4.79801,-13.52886c0.29675,-2.79979 1.43419,-8.02029 4.67933,-9.60358z" data-paper-data="{&quot;index&quot;:null}" fill="#ffffff" stroke-width="NaN"></path></g></g></g></svg>