<svg version="1.1" xmlns="http://www.w3.org/2000/svg" xmlns:xlink="http://www.w3.org/1999/xlink" width="246.44179" height="80.5" viewBox="0,0,246.44179,80.5"><g transform="translate(-32.79672,-138.16295)"><g data-paper-data="{&quot;isPaintingLayer&quot;:true}" fill-rule="nonzero" stroke-linecap="butt" stroke-linejoin="miter" stroke-miterlimit="10" stroke-dasharray="" stroke-dashoffset="0" style="mix-blend-mode: normal"><path d="M238.98851,217.91295c-21.81525,0 -39.5,-17.68475 -39.5,-39.5c0,-21.81525 17.68475,-39.5 39.5,-39.5c21.81525,0 39.5,17.68475 39.5,39.5c0,21.81525 -17.68475,39.5 -39.5,39.5z" data-paper-data="{&quot;index&quot;:null}" fill="#000000" stroke="#000000" stroke-width="1.5"></path><g data-paper-data="{&quot;index&quot;:null}" stroke="none" stroke-width="0"><path d="M262.30322,168.50345c7.45315,0 13.49512,5.141 13.49512,5.141c0,0 -6.04197,5.141 -13.49512,5.141c-7.45315,0 -13.49512,-5.141 -13.49512,-5.141c0,0 6.04197,-5.141 13.49512,-5.141z" fill="#ffffff"></path><path d="M262.94584,178.78545c-2.8393,0 -5.141,-2.30171 -5.141,-5.141c0,-2.8393 2.30171,-5.141 5.141,-5.141c2.8393,0 5.141,2.30171 5.141,5.141c0,2.8393 -2.30171,5.141 -5.141,5.141z" fill="#000000"></path></g><g data-paper-data="{&quot;index&quot;:null}" stroke="none" stroke-width="0"><path d="M232.62642,168.6195c7.45315,0 13.49512,5.141 13.49512,5.141c0,0 -6.04197,5.141 -13.49512,5.141c-7.45315,0 -13.49512,-5.141 -13.49512,-5.141c0,0 6.04197,-5.141 13.49512,-5.141z" fill="#ffffff"></path><path d="M233.26904,178.9015c-2.8393,0 -5.141,-2.30171 -5.141,-5.141c0,-2.83929 2.30171,-5.141 5.141,-5.141c2.8393,0 5.141,2.30171 5.141,5.141c0,2.8393 -2.30171,5.141 -5.141,5.141z" fill="#000000"></path></g><path d="M130.10329,181.57561c-1.00348,0 -1.86887,-0.46529 -2.26684,-1.13671c-0.64748,0.03948 -1.20629,0.07049 -1.60507,0.09792l-0.05137,-0.01538l0.00102,0.01759l-2.07833,0.07484c-0.463,0.16594 -0.86377,0.19878 -0.86377,0.19878l-3.32311,0.27001c-4.45137,0.71445 -8.81232,1.65665 -13.23811,2.43874c-1.7342,0.30645 -3.48348,0.52807 -5.23276,0.73476c-0.59419,0.52127 -1.46096,0.66366 -1.46096,0.66366l-3.19455,0.52416c-7.10973,0.88413 -14.17821,2.17827 -21.34781,2.70412c-10.5522,0.77395 -22.10197,0.78712 -32.07918,3.74219c0,0 -2.34169,0.68901 -3.21718,-1.15392c-0.87548,-1.84293 1.46621,-2.53194 1.46621,-2.53194c0.91333,-0.26712 1.83761,-0.51175 2.77132,-0.73632c-0.65516,0.09786 -1.311,0.19436 -1.96771,0.28889l-0.04957,-0.00726l0.00237,0.01297l-2.4504,0.2773c-0.12979,0.01636 -0.26291,0.02487 -0.39856,0.02487c-1.38071,0 -2.5,-0.88089 -2.5,-1.96752c0,-0.52131 0.25761,-0.99526 0.67811,-1.34731l1.74561,-1.46925c-0.03718,-0.06224 -0.08312,-0.12359 -0.13856,-0.18398c-1.09188,-1.18943 -2.94981,-1.90404 -3.86398,-3.18293c-2.23188,-3.12231 -4.78578,-8.63385 0.36782,-10.86456c1.68358,-0.72873 3.74681,-0.67228 5.62612,-0.98713c2.91535,-0.48841 5.84062,-0.93969 8.76615,-1.38882c11.64112,-1.78715 23.41246,-2.76891 35.07769,-4.42816c10.62954,-1.36358 22.45136,-2.83767 33.23467,-2.37547c4.47283,0.19171 8.41954,1.6618 12.63787,2.61175l1.66674,1.20367c0,0 0.03855,0.06108 0.08685,0.16614c1.91041,-0.12807 3.91831,-0.2497 4.21519,-0.21641l2.98719,-0.27304c0.10658,-0.01091 0.21528,-0.01654 0.32564,-0.01654c0.68105,0 1.29849,0.21433 1.74938,0.56195l1.95994,-0.32347c0.18146,-0.03297 0.37048,-0.05039 0.56467,-0.05039c1.38071,0 2.5,0.88089 2.5,1.96752c0,0.61368 -0.357,1.16174 -0.91646,1.52257l-2.16958,1.41977c0.96823,0.27127 1.66138,0.99897 1.66138,1.85409c0,0.88373 -0.74031,1.63137 -1.75949,1.87977l-0.19875,0.05248c-0.09133,0.10842 -0.19595,0.2093 -0.31203,0.3012l-2.37401,1.88062l-0.03515,-0.02748c-0.145,0.11696 -0.29833,0.22807 -0.46143,0.33228c-0.4582,0.29279 -0.9862,0.48329 -1.5495,0.62172c0.13126,0.3171 0.18966,0.68333 0.16031,1.10614c-0.10533,1.51736 -2.64628,2.28609 -4.3332,3.02547c-0.52351,0.22946 -1.38062,0.4071 -2.36872,0.54675c-0.23883,0.8907 -1.24326,1.55925 -2.44611,1.55925zM88.67803,182.35847c2.28319,-0.62061 4.60646,-1.0141 6.948,-1.3338c-9.92033,0.9739 -19.70613,2.41783 -29.68208,3.54564c-2.20216,0.17871 -4.38699,0.41615 -6.56195,0.6901c5.22951,-0.43403 10.503,-0.65833 15.59658,-1.03042c4.35003,-0.31777 8.66349,-0.92968 12.97186,-1.55489c0.38119,-0.22164 0.7276,-0.31663 0.7276,-0.31663zM118.35644,165.09324l0.0095,0.03095l0.09231,-0.04855c1.61175,-0.19693 3.2215,-0.36024 4.83359,-0.50366c-1.65471,-0.3966 -3.33901,-0.70392 -5.10466,-0.77551c-7.67544,-0.31119 -15.90462,0.38647 -23.81047,1.3035c1.15223,-0.02234 2.30412,-0.03043 3.4554,-0.02155c2.97329,0.02293 5.94443,0.13439 8.91707,0.18859c1.57534,0.02872 3.24283,-0.22235 4.7408,0.12627c0.35706,0.00255 0.71432,0.0067 1.07179,0.01247l0.08005,0.029l0.00271,-0.02438l2.96799,0.20455zM43.00536,172.94609c-0.67708,-0.14759 -1.23874,-0.51376 -1.55463,-0.99592c-1.07617,0.15306 -2.14743,0.32355 -3.20712,0.53574c-0.28527,0.05712 -0.69434,0.18136 -0.71055,0.41267c-0.11405,1.62676 1.74286,4.3824 3.19088,5.90549c0.2803,-0.2938 0.66265,-0.52384 1.10565,-0.65752l3.15174,-1.01718l0.00842,0.01616c0.03835,-0.01796 0.07691,-0.0357 0.11567,-0.05321c0.52775,-0.23842 1.09675,-0.39996 1.6844,-0.52703c-0.59897,-0.35945 -0.9855,-0.92696 -0.9855,-1.56552c0,-0.47589 0.21468,-0.91231 0.57198,-1.25257zM44.29329,183.47691c5.76585,-0.86924 11.48545,-1.82238 17.29759,-2.45459c-5.30659,0.31228 -10.62233,0.58175 -15.91294,0.92777l-0.10422,-0.03056v0.03228h-1.49419c0.16919,0.48513 0.24267,1.00742 0.21377,1.5251zM66.30274,171.77611c0.03373,-0.00144 0.06746,-0.00287 0.10119,-0.0043c0.081,-0.02 0.16201,-0.03997 0.24303,-0.05992c-0.11475,0.02135 -0.22949,0.04277 -0.34422,0.06423z" fill="#9966ff" stroke="none" stroke-width="0.5"></path></g></g></svg>