<svg version="1.1" xmlns="http://www.w3.org/2000/svg" xmlns:xlink="http://www.w3.org/1999/xlink" width="26.74046" height="42.60304" viewBox="0,0,26.74046,42.60304"><defs><linearGradient x1="247.01813" y1="179.41537" x2="226.7852" y2="182.92869" gradientUnits="userSpaceOnUse" id="color-1"><stop offset="0" stop-color="#eccdff"></stop><stop offset="1" stop-color="#b1b9ff"></stop></linearGradient></defs><g transform="translate(-224.62324,-161.37814)"><g data-paper-data="{&quot;isPaintingLayer&quot;:true}" fill-rule="nonzero" stroke-linejoin="miter" stroke-miterlimit="10" stroke-dasharray="" stroke-dashoffset="0" style="mix-blend-mode: normal"><path d="M250.53369,172.82899c0.9689,7.0169 0.12286,29.68326 -6.89403,30.65218c-7.0169,0.9689 -17.54752,-20.12655 -18.51642,-27.14346c-0.9689,-7.0169 3.93395,-13.49069 10.95087,-14.45958c7.0169,-0.9689 13.49069,3.93395 14.45958,10.95087z" fill="#eccdff" stroke="#b000ff" stroke-width="1" stroke-linecap="butt"></path><path d="" data-paper-data="{&quot;index&quot;:null}" fill="none" stroke="#000000" stroke-width="1.5" stroke-linecap="round"></path><path d="M245.93319,173.20399c0.77571,5.61773 0.09837,23.76437 -5.51934,24.54006c-5.61773,0.77571 -14.04849,-16.11328 -14.82419,-21.731c-0.77571,-5.61773 3.14953,-10.8006 8.76723,-11.57631c5.61773,-0.77571 10.8006,3.14953 11.57631,8.76723z" fill="url(#color-1)" stroke="none" stroke-width="NaN" stroke-linecap="butt"></path></g></g></svg>