<svg version="1.1" xmlns="http://www.w3.org/2000/svg" xmlns:xlink="http://www.w3.org/1999/xlink" width="78.43806" height="78.56826" viewBox="0,0,78.43806,78.56826"><g transform="translate(-442.44564,-138.89112)"><g data-paper-data="{&quot;isPaintingLayer&quot;:true}" fill-rule="nonzero" stroke-linejoin="miter" stroke-miterlimit="10" stroke-dasharray="" stroke-dashoffset="0" style="mix-blend-mode: normal"><path d="" data-paper-data="{&quot;index&quot;:null}" fill="none" stroke="#000000" stroke-width="1.5" stroke-linecap="round"/><path d="M506.94322,166.51556c5.93767,14.40096 -0.92323,30.88866 -15.32416,36.82633c-14.40096,5.93767 -30.88866,-0.92323 -36.82633,-15.32416c-5.93767,-14.40096 0.92323,-30.88866 15.32416,-36.82633c14.40096,-5.93767 30.88866,0.92323 36.82633,15.32416z" fill="#000000" stroke="none" stroke-width="NaN" stroke-linecap="butt"/><path d="M491.19846,187.55367l6.11613,23.62363l-5.5313,2.28059l-12.75369,-20.88688z" fill="#000000" stroke="none" stroke-width="0" stroke-linecap="butt"/><path d="M480.55908,196.43019l-12.37967,21.02919l-5.52387,-2.29858l5.75106,-23.7875z" fill="#000000" stroke="none" stroke-width="0" stroke-linecap="butt"/><path d="M468.34986,189.66541l-23.62363,6.11613l-2.28059,-5.5313l20.88688,-12.7537z" fill="#000000" stroke="none" stroke-width="0" stroke-linecap="butt"/><path d="M464.12844,177.62446l-21.02919,-12.37967l2.29859,-5.52387l23.78749,5.75103z" fill="#000000" stroke="none" stroke-width="0" stroke-linecap="butt"/><path d="M467.89572,167.42769l-6.11614,-23.62364l5.5313,-2.28059l12.7537,20.88688z" fill="#000000" stroke="none" stroke-width="0" stroke-linecap="butt"/><path d="M477.86093,159.92032l12.37967,-21.02919l5.52387,2.29858l-5.75103,23.7875z" fill="#000000" stroke="none" stroke-width="0" stroke-linecap="butt"/><path d="M491.41245,165.41073l23.62364,-6.11614l2.28059,5.5313l-20.88688,12.75369z" fill="#000000" stroke="none" stroke-width="0" stroke-linecap="butt"/><path d="M499.85451,179.3913l21.02919,12.37967l-2.29859,5.52387l-23.78748,-5.75104z" fill="#000000" stroke="none" stroke-width="0" stroke-linecap="butt"/></g></g></svg>