<svg version="1.1" xmlns="http://www.w3.org/2000/svg" xmlns:xlink="http://www.w3.org/1999/xlink" width="80.51344" height="150.60141" viewBox="0,0,80.51344,150.60141"><g transform="translate(-198.73178,-67.82926)"><g data-paper-data="{&quot;isPaintingLayer&quot;:true}" fill-rule="nonzero" stroke="#000000" stroke-linejoin="miter" stroke-miterlimit="10" stroke-dasharray="" stroke-dashoffset="0" style="mix-blend-mode: normal"><path d="M200.10574,171.21829c3.84151,-21.47436 24.36405,-35.76861 45.83841,-31.9271c21.47436,3.84151 35.76861,24.36405 31.9271,45.83841c-3.84151,21.47436 -24.36405,35.76861 -45.83841,31.9271c-21.47436,-3.84151 -35.76861,-24.36405 -31.9271,-45.83841z" fill="#d8d8d8" stroke-width="1.5" stroke-linecap="butt"></path><path d="M219.03112,162.65108l8.92003,1.55979l-0.49933,7.9844" fill="none" stroke-width="1.5" stroke-linecap="round"></path><path d="M233.87799,172.78421l0.61154,-7.97659l9.05011,-0.3091" data-paper-data="{&quot;index&quot;:null}" fill="none" stroke-width="1.5" stroke-linecap="round"></path><g stroke-width="1"><path d="M231.19467,142.05186l0.26604,-20.99832l8.24934,0.10451l-0.26604,20.99832z" fill="#af5400" stroke-linecap="butt"></path><path d="M239.39216,130.95481c0,0 -3.39675,-0.82336 -4.77989,-1.90514c-1.24512,-0.97384 -3.14844,-4.29579 -3.14844,-4.29579" fill="none" stroke-linecap="round"></path><path d="M239.5593,125.6565c0,0 -1.98687,3.27267 -3.25626,4.21464c-1.41009,1.04638 -4.82663,1.78344 -4.82663,1.78344" data-paper-data="{&quot;index&quot;:null}" fill="none" stroke-linecap="round"></path><path d="M239.88706,131.3611c0,0 -1.98687,3.27267 -3.25626,4.21464c-1.41009,1.04638 -4.82663,1.78344 -4.82663,1.78344" data-paper-data="{&quot;index&quot;:null}" fill="none" stroke-linecap="round"></path><path d="M239.51107,137.35682c0,0 -3.39678,-0.82337 -4.77989,-1.90514c-1.24512,-0.97384 -3.14844,-4.29579 -3.14844,-4.29579" data-paper-data="{&quot;index&quot;:null}" fill="none" stroke-linecap="round"></path><path d="M244.42927,119.80409c-0.0161,1.27015 -3.87918,2.25104 -8.62844,2.19086c-4.74926,-0.06017 -8.58627,-1.13862 -8.57017,-2.40876c0.0161,-1.27015 3.87918,-2.25104 8.62844,-2.19086c4.74926,0.06017 8.58627,1.13862 8.57017,2.40876z" fill="#8f8f8f" stroke-linecap="butt"></path><path d="M232.46356,118.28421l0.61757,-48.7461c0,0 2.16225,-1.22271 3.26557,-1.20874c1.14496,0.01451 3.48388,1.29423 3.48388,1.29423l-0.61757,48.7461z" fill="#dddddd" stroke-linecap="butt"></path></g></g></g></svg>