<svg version="1.1" xmlns="http://www.w3.org/2000/svg" xmlns:xlink="http://www.w3.org/1999/xlink" width="638.18504" height="491.1378" viewBox="0,0,638.18504,491.1378"><g transform="translate(79.09252,65.5689)"><g data-paper-data="{&quot;isPaintingLayer&quot;:true}" fill-rule="nonzero" stroke-linejoin="miter" stroke-miterlimit="10" stroke-dasharray="" stroke-dashoffset="0" style="mix-blend-mode: normal"><path d="" data-paper-data="{&quot;index&quot;:null}" fill="#00c1ff" stroke="none" stroke-width="0.5" stroke-linecap="butt"></path><path d="" data-paper-data="{&quot;index&quot;:null}" fill="none" stroke="#000000" stroke-width="1.5" stroke-linecap="round"></path><path d="" data-paper-data="{&quot;index&quot;:null}" fill="none" stroke="#000000" stroke-width="1.5" stroke-linecap="round"></path><path d="" data-paper-data="{&quot;index&quot;:null}" fill="none" stroke="#000000" stroke-width="1.5" stroke-linecap="round"></path><path d="" data-paper-data="{&quot;index&quot;:null}" fill="none" stroke="#000000" stroke-width="1.5" stroke-linecap="round"></path><path d="" data-paper-data="{&quot;index&quot;:null}" fill="none" stroke="#000000" stroke-width="1.5" stroke-linecap="round"></path><path d="M-79.09252,425.5689v-491.1378h638.18504v491.1378z" fill="#989898" stroke="none" stroke-width="0" stroke-linecap="butt"></path><path d="" data-paper-data="{&quot;index&quot;:null}" fill="none" stroke="#000000" stroke-width="1.5" stroke-linecap="round"></path><path d="" data-paper-data="{&quot;index&quot;:null}" fill="none" stroke="#000000" stroke-width="1.5" stroke-linecap="round"></path><path d="" data-paper-data="{&quot;index&quot;:null}" fill="none" stroke="#000000" stroke-width="1.5" stroke-linecap="round"></path><path d="" data-paper-data="{&quot;index&quot;:null}" fill="none" stroke="#000000" stroke-width="1.5" stroke-linecap="round"></path><path d="" data-paper-data="{&quot;index&quot;:null}" fill="none" stroke="#000000" stroke-width="1.5" stroke-linecap="round"></path><path d="" data-paper-data="{&quot;index&quot;:null}" fill="none" stroke="#000000" stroke-width="1.5" stroke-linecap="round"></path><path d="" data-paper-data="{&quot;index&quot;:null}" fill="none" stroke="#000000" stroke-width="1.5" stroke-linecap="round"></path><path d="" data-paper-data="{&quot;index&quot;:null}" fill="none" stroke="#000000" stroke-width="1.5" stroke-linecap="round"></path><path d="" data-paper-data="{&quot;index&quot;:null}" fill="none" stroke="#000000" stroke-width="1.5" stroke-linecap="round"></path><path d="" data-paper-data="{&quot;index&quot;:null}" fill="none" stroke="#000000" stroke-width="1.5" stroke-linecap="round"></path><text transform="translate(71.02344,66.08594) scale(1.06338,1.06338)" font-size="40" xml:space="preserve" fill="#000000" fill-rule="nonzero" stroke="none" stroke-width="1" stroke-linecap="butt" stroke-linejoin="miter" stroke-miterlimit="10" stroke-dasharray="" stroke-dashoffset="0" font-family="Sans Serif" font-weight="normal" text-anchor="start" style="mix-blend-mode: normal"><tspan x="0" dy="0">Alchemist (Soon)</tspan></text><path d="" data-paper-data="{&quot;index&quot;:null}" fill="#000000" stroke="#000000" stroke-width="1.5" stroke-linecap="round"></path><path d="M141.38279,198.05861c0,-55.53699 45.02162,-100.55861 100.55861,-100.55861c55.53699,0 100.55861,45.02162 100.55861,100.55861c0,55.53699 -45.02162,100.55861 -100.55861,100.55861c-55.53699,0 -100.55861,-45.02162 -100.55861,-100.55861z" fill="#000000" stroke="#000000" stroke-width="1.5" stroke-linecap="butt"></path><path d="M254.25189,208.43593c0,0 4.05045,9.34617 -1.861,17.20746c-6.53641,8.69236 -54.75536,1.30072 -54.75536,1.30072" data-paper-data="{&quot;index&quot;:null}" fill="#000000" stroke="#000000" stroke-width="0" stroke-linecap="round"></path><path d="M182.12794,189.63129c0,0 7.87023,-21.17777 18.82467,-21.17777c11.73789,0 21.17777,21.17777 21.17777,21.17777" fill="#000000" stroke="#000000" stroke-width="1.5" stroke-linecap="round"></path><path d="M268.49294,196.8627l-33.96582,-14.24373l37.25284,-21.91343" fill="#000000" stroke="#000000" stroke-width="1.5" stroke-linecap="round"></path><path d="M241.75856,181.88331l34.09105,-1.5496" fill="#000000" stroke="#000000" stroke-width="1.5" stroke-linecap="round"></path><g fill="#000000" stroke="#000000" stroke-linecap="butt"><path d="M393.54726,247.18537c-0.99876,1.43883 -6.94063,-0.95729 -13.2715,-5.35188c-6.33086,-4.39462 -10.65338,-9.12354 -9.65462,-10.56237c0.99876,-1.43883 6.94063,0.95729 13.2715,5.35188c6.33086,4.39462 10.65338,9.12354 9.65462,10.56237z" stroke-width="1.5"></path><path d="M344.1893,270.83192l26.04152,-37.51541c0,0 6.32649,5.00405 9.70248,7.67438c2.24353,1.77457 6.40861,3.69832 9.32463,4.93213c1.87451,0.79311 3.23287,1.30115 3.23287,1.30115l-26.07016,39.03978c0,0 0.75353,51.71164 -0.97394,51.82791c-13.20775,0.88899 -72.19754,-47.02798 -75.08816,-49.03452c-1.05131,-0.72978 53.83073,-18.22542 53.83073,-18.22542z" stroke-width="1.5"></path><path d="M327.23476,280.23723c0.0654,0.09906 0.12457,0.19687 0.17785,0.29333c2.60643,1.69445 5.18529,3.43511 8.45996,3.65089c2.25457,0.14857 4.68532,-1.64906 6.74099,-0.71127c5.7784,2.63606 1.14797,8.62857 4.25951,12.30756c2.78519,3.2931 7.82595,2.60258 11.05167,4.4757c2.45686,1.42666 5.64348,6.84203 7.11818,9.31919c3.25726,5.47146 0.25893,7.73398 0.17879,13.37315c-0.05975,4.20424 0.79332,8.79264 0.87237,13.02155c-2.12833,0.65595 -18.21346,-5.23915 -22.71207,-8.35703c-11.70752,-8.11416 -23.44505,-18.33349 -35.16148,-26.46649c-3.41029,-2.36728 -12.89574,-5.3418 -14.38197,-9.46654c-0.77384,-2.14763 2.00175,-1.24329 2.09541,-3.52413c9.01328,-3.70272 16.67608,-6.3022 26.16214,-8.0021c0.16392,-0.19165 0.33444,-0.34994 0.5086,-0.47968l0.29882,-0.32069c0,0 2.60887,-1.72233 4.3312,0.88655z" stroke-width="0.5"></path></g><g fill="#000000" stroke="#000000" stroke-linecap="butt"><path d="M71.83188,234.68041c1.31286,0.88863 -0.79255,6.29184 -4.70258,12.06838c-3.91002,5.77654 -8.144,9.73899 -9.45684,8.85033c-1.31286,-0.88863 0.79255,-6.29184 4.70258,-12.06838c3.91002,-5.77654 8.144,-9.73899 9.45684,-8.85033z" stroke-width="1.5"></path><path d="M93.75842,279.10061l-34.23064,-23.16998c0,0 4.46167,-5.77907 6.84254,-8.86296c1.58221,-2.04941 3.27903,-5.8395 4.36468,-8.49181c0.69788,-1.70496 1.14321,-2.93977 1.14321,-2.93977l35.61055,23.17968c0,0 46.79397,-1.23211 46.91759,0.33014c0.9451,11.9443 -41.79499,65.84318 -43.58027,68.48069c-0.6493,0.95928 -17.06767,-48.526 -17.06767,-48.526z" stroke-width="1.5"></path><path d="M102.45114,294.34539c0.08898,-0.06026 0.17683,-0.11484 0.26359,-0.1641c1.50583,-2.377 3.0538,-4.72951 3.21426,-7.69559c0.11049,-2.0421 -1.54234,-4.22295 -0.71544,-6.09342c2.32433,-5.25784 7.79714,-1.13076 11.09373,-3.98602c2.95082,-2.55577 2.27224,-7.11061 3.93322,-10.04998c1.26508,-2.23879 6.1324,-5.18047 8.35866,-6.5415c4.91734,-3.00622 6.99694,-0.31662 12.10158,-0.30407c3.80572,0.00934 7.9494,-0.81152 11.77597,-0.92807c0.61631,1.91927 -4.548,16.53993 -7.32199,20.64461c-7.21922,10.68228 -16.34345,21.41415 -23.57965,32.10467c-2.10623,3.11169 -4.69746,11.72821 -8.41477,13.1172c-1.93549,0.72321 -1.14652,-1.79847 -3.21184,-1.85896c-3.44705,-8.11816 -5.88125,-15.02577 -7.52066,-23.59311c-0.17518,-0.14633 -0.32026,-0.29898 -0.43953,-0.45519l-0.29343,-0.26705c0,0 -1.58656,-2.34284 0.7563,-3.9294z" stroke-width="0.5"></path></g></g></g></svg>