<svg version="1.1" xmlns="http://www.w3.org/2000/svg" xmlns:xlink="http://www.w3.org/1999/xlink" width="102.85894" height="127.49976" viewBox="0,0,102.85894,127.49976"><g transform="translate(-189.56359,-139.75)"><g data-paper-data="{&quot;isPaintingLayer&quot;:true}" fill-rule="nonzero" stroke-linejoin="miter" stroke-miterlimit="10" stroke-dasharray="" stroke-dashoffset="0" style="mix-blend-mode: normal"><g stroke-linecap="butt"><path d="M270.59214,178.67321c0.19807,0.65887 -1.99152,1.8995 -4.89057,2.771c-2.89906,0.8715 -5.40977,1.04387 -5.60784,0.385c-0.19807,-0.65887 1.99152,-1.8995 4.89057,-2.771c2.89906,-0.8715 5.40977,-1.04387 5.60784,-0.385z" fill="#daffff" stroke="#000000" stroke-width="1.5"></path><path d="M265.79138,199.62857l-5.16434,-17.1792c0,0 3.08533,-0.72112 4.73176,-1.10593c1.09414,-0.25573 2.70402,-1.06567 3.79638,-1.66036c0.7022,-0.38229 1.19054,-0.67562 1.19054,-0.67562l5.62593,17.56077c0,0 16.08071,12.41376 15.69402,12.97322c-2.9565,4.27753 -32.11161,10.69386 -33.43529,11.09177c-0.48142,0.14472 7.561,-21.00465 7.561,-21.00465z" fill="#daffff" stroke="#000000" stroke-width="1.5"></path><path d="M264.53662,207.14043c0.04644,0.00412 0.09098,0.00985 0.13366,0.01706c1.15825,-0.38687 2.32396,-0.75398 3.19107,-1.70786c0.597,-0.65674 0.6388,-1.84355 1.42977,-2.24615c2.22337,-1.1317 2.93319,1.75711 4.82502,1.70025c1.6934,-0.0509 2.71378,-1.76931 4.07839,-2.30287c1.03936,-0.40638 3.48332,-0.06171 4.60542,0.09072c2.47848,0.33667 2.44079,1.81164 4.1547,3.21526c1.2778,1.04646 2.8969,1.90625 4.21622,2.91608c-0.31881,0.81466 -6.0644,4.31775 -8.12293,4.93821c-5.35726,1.61474 -11.36899,2.72393 -16.73422,4.3368c-1.56165,0.46945 -4.79558,2.65795 -6.42698,2.10618c-0.84943,-0.28729 0.10731,-0.91938 -0.57093,-1.50592c1.06584,-3.67618 2.14058,-6.66744 3.93772,-9.99919c-0.01883,-0.09726 -0.02579,-0.18838 -0.02308,-0.27364l-0.02551,-0.17028c0,0 0.10851,-1.22315 1.33167,-1.11464z" fill="#01ff00" stroke="none" stroke-width="0.5"></path></g><path d="M257.61738,194.35706c0,-7.01586 5.68748,-12.70335 12.70335,-12.70335c7.01586,0 12.70335,5.68748 12.70335,12.70335c0,7.01586 -5.68748,12.70335 -12.70335,12.70335c-7.01586,0 -12.70335,-5.68748 -12.70335,-12.70335z" fill="#d8d8d8" stroke="#000000" stroke-width="1" stroke-linecap="butt"></path><path d="" data-paper-data="{&quot;index&quot;:null}" fill="none" stroke="#000000" stroke-width="1.5" stroke-linecap="round"></path><path d="M200.50001,180c0,-21.81525 17.68475,-39.5 39.5,-39.5c21.81525,0 39.5,17.68475 39.5,39.5c0,21.81525 -17.68475,39.5 -39.5,39.5c-21.81525,0 -39.5,-17.68475 -39.5,-39.5z" fill="#d8d8d8" stroke="#000000" stroke-width="1.5" stroke-linecap="butt"></path><path d="M255.60837,195.16584c0,0 -5.69047,5.95821 -10.53926,6.73584c-4.98941,0.80018 -18.9874,-2.00048 -18.9874,-2.00048" data-paper-data="{&quot;index&quot;:null}" fill="none" stroke="#000000" stroke-width="1.5" stroke-linecap="round"></path><path d="M219.67339,180.17499c0,0 3.09147,-8.31875 7.39444,-8.31875c4.61071,0 8.31875,8.31875 8.31875,8.31875" fill="none" stroke="#000000" stroke-width="1.5" stroke-linecap="round"></path><path d="M255.18228,182.065l-13.34197,-5.59502l14.63313,-8.60772" fill="none" stroke="#000000" stroke-width="1.5" stroke-linecap="round"></path><path d="M256.17095,175.88916l-13.39116,0.60869" fill="none" stroke="#000000" stroke-width="1.5" stroke-linecap="round"></path><g stroke-linecap="butt"><path d="M207.01325,185.16859c0.08882,0.61636 -2.03768,1.43281 -4.74966,1.82359c-2.71198,0.39078 -4.98248,0.20791 -5.07129,-0.40845c-0.08882,-0.61636 2.03768,-1.43281 4.74966,-1.82359c2.71198,-0.39078 4.98248,-0.20791 5.07129,0.40845z" fill="#daffff" stroke="#000000" stroke-width="1.5"></path><path d="M199.90207,203.28111l-2.31568,-16.07065c0,0 2.85853,-0.23116 4.38393,-0.35451c1.01371,-0.08198 2.56349,-0.59077 3.62112,-0.97639c0.67987,-0.24789 1.15638,-0.44488 1.15638,-0.44488l2.67762,16.47417c0,0 12.72689,13.271 12.30564,13.71986c-3.22078,3.43181 -30.17923,5.25995 -31.41749,5.43837c-0.45036,0.0649 9.58851,-17.78597 9.58851,-17.78597z" fill="#daffff" stroke="#000000" stroke-width="1.5"></path><path d="M197.77019,209.83651c0.04103,0.00993 0.08011,0.02103 0.11736,0.03321c1.0887,-0.19076 2.18143,-0.36281 3.08568,-1.1002c0.62257,-0.50768 0.81936,-1.56439 1.58142,-1.81853c2.14212,-0.71442 2.38955,1.96668 4.09056,2.16984c1.5226,0.18185 2.66671,-1.21929 3.95982,-1.51362c0.98491,-0.22418 3.12622,0.41252 4.11015,0.69964c2.17328,0.63418 1.94148,1.94937 3.28712,3.43592c1.00324,1.10828 2.33704,2.09531 3.38237,3.17637c-0.39476,0.68639 -6.00808,3.05045 -7.93399,3.3294c-5.01212,0.72596 -10.5422,0.9115 -15.56121,1.6347c-1.46088,0.21051 -4.64947,1.73516 -6.03564,1.02219c-0.72174,-0.37122 0.21952,-0.80852 -0.30883,-1.42462c1.44771,-3.14744 2.81139,-5.68059 4.86742,-8.42152c-0.00378,-0.08958 0.00222,-0.17208 0.01608,-0.24803l0.00004,-0.15585c0,0 0.26138,-1.08027 1.34166,-0.81889z" fill="#6600ff" stroke="none" stroke-width="0.5"></path></g><path d="M191.46631,200.44663c0,-7.01586 5.68748,-12.70335 12.70335,-12.70335c7.01586,0 12.70335,5.68748 12.70335,12.70335c0,7.01586 -5.68748,12.70335 -12.70335,12.70335c-7.01586,0 -12.70335,-5.68748 -12.70335,-12.70335z" fill="#d8d8d8" stroke="#000000" stroke-width="1" stroke-linecap="butt"></path><text transform="translate(215.72536,233.624) scale(0.37642,0.37642)" font-size="40" xml:space="preserve" fill="#000000" fill-rule="nonzero" stroke="none" stroke-width="1" stroke-linecap="butt" stroke-linejoin="miter" stroke-miterlimit="10" stroke-dasharray="" stroke-dashoffset="0" font-family="Sans Serif" font-weight="normal" text-anchor="start" style="mix-blend-mode: normal"><tspan x="0" dy="0">Alchemist</tspan></text><text transform="translate(213.82429,245.74331) scale(0.20478,0.20478)" font-size="40" xml:space="preserve" fill="#000000" fill-rule="nonzero" stroke="none" stroke-width="1" stroke-linecap="butt" stroke-linejoin="miter" stroke-miterlimit="10" stroke-dasharray="" stroke-dashoffset="0" font-family="Sans Serif" font-weight="normal" text-anchor="start" style="mix-blend-mode: normal"><tspan x="0" dy="0">- Mix-up</tspan><tspan x="0" dy="46.15px">- Self-Heal</tspan><tspan x="0" dy="46.15px">- "Mid-range"</tspan></text></g></g></svg>