<svg version="1.1" xmlns="http://www.w3.org/2000/svg" xmlns:xlink="http://www.w3.org/1999/xlink" width="103.25396" height="153.84224" viewBox="0,0,103.25396,153.84224"><g transform="translate(-198.43372,-67.02846)"><g data-paper-data="{&quot;isPaintingLayer&quot;:true}" fill-rule="nonzero" stroke-linejoin="miter" stroke-miterlimit="10" stroke-dasharray="" stroke-dashoffset="0" style="mix-blend-mode: normal"><path d="" data-paper-data="{&quot;index&quot;:null}" fill="none" stroke="#000000" stroke-width="1.5" stroke-linecap="round"></path><path d="" data-paper-data="{&quot;index&quot;:null}" fill="none" stroke="#000000" stroke-width="1.5" stroke-linecap="round"></path><path d="M301.68768,195.47554" data-paper-data="{&quot;index&quot;:null}" fill="none" stroke="#d8d8d8" stroke-width="4" stroke-linecap="round"></path><path d="M199.18372,180.6207c0,-21.81525 17.68475,-39.5 39.5,-39.5c21.81525,0 39.5,17.68475 39.5,39.5c0,21.81525 -17.68475,39.5 -39.5,39.5c-21.81525,0 -39.5,-17.68475 -39.5,-39.5z" data-paper-data="{&quot;index&quot;:null}" fill="#d8d8d8" stroke="#000000" stroke-width="1.5" stroke-linecap="butt"></path><path d="M243.28496,174.20032l11.07275,-4.59202" data-paper-data="{&quot;index&quot;:null}" fill="none" stroke="#000000" stroke-width="1.5" stroke-linecap="round"></path><path d="M249.19657,173.09156l-0.25511,5.86758" data-paper-data="{&quot;index&quot;:null}" fill="none" stroke="#000000" stroke-width="1.5" stroke-linecap="round"></path><path d="M239.9685,174.57761l-14.45771,-4.12252" data-paper-data="{&quot;index&quot;:null}" fill="none" stroke="#000000" stroke-width="1.5" stroke-linecap="round"></path><path d="M234.44135,178.41109l-0.21988,-5.35892" data-paper-data="{&quot;index&quot;:null}" fill="none" stroke="#000000" stroke-width="1.5" stroke-linecap="round"></path><path d="M233.8131,191.53176l18.63798,0.59168" fill="none" stroke="#000000" stroke-width="1.5" stroke-linecap="round"></path><g stroke="#000000" stroke-linecap="butt"><g data-paper-data="{&quot;index&quot;:null}"><path d="M230.18346,171.0641l-0.45941,21.57901c0,0 -2.29162,3.33185 -3.38117,3.24611c-1.09152,-0.0859 -3.16199,-3.761 -3.16199,-3.761l0.45941,-21.57901z" fill="#af5400" stroke-width="1.5"></path><path d="M238.52071,167.36198c0,0 1.5851,5.58614 -0.52265,7.86832c-2.46918,2.67351 -8.00701,2.17888 -11.65133,1.98532c-6.7552,-0.35869 -12.32943,-3.15615 -12.45043,-6.24827c-0.05621,-1.43674 1.23018,-5.84565 1.23018,-5.84565c0,0 7.16574,0.70428 10.78218,0.89632c6.75519,0.35869 12.61202,1.34394 12.61202,1.34394z" fill="#989898" stroke-width="1"></path><path d="M238.93346,167.16771c0.12095,3.09212 -5.25715,5.30801 -12.01238,4.94932c-6.7552,-0.35871 -12.32945,-3.15612 -12.45042,-6.24824c-0.12096,-3.09213 5.25717,-5.30803 12.01236,-4.94933c6.7552,0.35871 12.32945,3.15613 12.45042,6.24824z" fill="#989898" stroke-width="1"></path><path d="M223.4794,167.24319l4.60182,-98.96963l5.18554,14.07232l-3.9778,85.55001c0,0 -1.7486,1.58585 -2.70525,1.47832c-0.97928,-0.11004 -3.10431,-2.13106 -3.10431,-2.13106z" fill="#e6e6e6" stroke-width="0.5"></path></g><path d="M224.13856,200.57703c-5.61596,-0.48533 -9.77518,-5.4314 -9.28985,-11.04737c0.48533,-5.61596 5.4314,-9.77518 11.04737,-9.28985c5.61596,0.48533 9.77518,5.4314 9.28985,11.04737c-0.48533,5.61596 -5.4314,9.77518 -11.04737,9.28985z" fill="#d8d8d8" stroke-width="1"></path></g><path d="M236.02811,109.66369c-5.6369,0 -10.20651,-4.56961 -10.20651,-10.20651c0,-5.6369 4.56961,-10.20651 10.20651,-10.20651c5.6369,0 10.20652,4.56961 10.20652,10.20651c0,5.6369 -4.56962,10.20651 -10.20652,10.20651z" data-paper-data="{&quot;index&quot;:null}" fill="#d8d8d8" stroke="#000000" stroke-width="1" stroke-linecap="butt"></path></g></g></svg>