<svg version="1.1" xmlns="http://www.w3.org/2000/svg" xmlns:xlink="http://www.w3.org/1999/xlink" width="117.90145" height="80.5" viewBox="0,0,117.90145,80.5"><g transform="translate(-162.34855,-139.75)"><g data-paper-data="{&quot;isPaintingLayer&quot;:true}" fill-rule="nonzero" stroke-linejoin="miter" stroke-miterlimit="10" stroke-dasharray="" stroke-dashoffset="0" style="mix-blend-mode: normal"><path d="" data-paper-data="{&quot;index&quot;:null}" fill="none" stroke="#000000" stroke-width="1.5" stroke-linecap="round"></path><path d="M200.5,180c0,-21.81525 17.68475,-39.5 39.5,-39.5c21.81525,0 39.5,17.68475 39.5,39.5c0,21.81525 -17.68475,39.5 -39.5,39.5c-21.81525,0 -39.5,-17.68475 -39.5,-39.5z" fill="#d8d8d8" stroke="#000000" stroke-width="1.5" stroke-linecap="butt"></path><path d="M225.51005,194.79568c5.44898,-2.88817 27.57511,5.13694 27.57511,5.13694" data-paper-data="{&quot;index&quot;:null}" fill="none" stroke="#000000" stroke-width="1.5" stroke-linecap="round"></path><path d="M240.25489,167.17564l6.93986,4.16391l-6.59286,1.38797l-3.29643,5.89888l-2.25545,-6.41937l-7.46035,-3.64343l7.11335,-2.08196l3.99042,-7.46035z" fill="#be82ff" stroke="#000000" stroke-width="0" stroke-linecap="round"></path><path d="M231.46729,179.20413l-10.7662,-2.43108" fill="none" stroke="#000000" stroke-width="1.5" stroke-linecap="round"></path><path d="M225.50349,176.87634l1.38919,-9.72431" fill="none" stroke="#000000" stroke-width="1.5" stroke-linecap="round"></path><path d="M228.49518,166.79922l-10.3457,-3.84548" fill="none" stroke="#000000" stroke-width="1.5" stroke-linecap="round"></path><g stroke-linecap="round"><path d="M205.35516,172.6208l6.74126,4.1848l-2.52161,8.72922l-7.50207,3.94226l-6.62997,-5.00956" fill="none" stroke="#4d6200" stroke-width="4.5"></path><path d="M218.46102,193.11624l-7.00497,-7.8314" fill="none" stroke="#4d6200" stroke-width="4.5"></path><path d="M188.30536,169.84771l6.38533,-1.58593l11.23454,7.8937l0.44877,7.0474l-5.83543,0.96125l-11.47694,-7.99621z" fill="#7d00ff" stroke="#7f00ff" stroke-width="0.5"></path><path d="M191.13647,171.6771l4.47437,-1.11131l7.87235,5.53132l0.31447,4.93829l-4.08905,0.67357l-8.04219,-5.60316z" fill="#be82ff" stroke="#7f00ff" stroke-width="0"></path><g fill="none" stroke="#4d6200"><path d="M241.22471,199.29524l23.95429,7.93525l-1.03821,2.7151l-23.60213,-8.05568z" stroke-width="3"></path><path d="M240.07975,203.42354l-4.28529,-6.20475l1.51537,-1.89492l5.11003,6.31604l19.94183,6.55402" stroke-width="3"></path><path d="M217.04782,193.0095l24.96052,1.10095l-1.39037,2.83555l-23.90404,-1.46225z" stroke-width="3"></path><path d="M240.25667,195.88951l-22.84301,-1.23508l-6.75953,-6.53863" stroke-width="4.5"></path></g></g><g stroke="none" stroke-width="0.5" stroke-linecap="butt"><path d="M228.1528,188.57954c0.30773,0.24813 0.567,0.53407 0.77655,0.84579l0.08322,0.07495l0.00177,0.05729c0.82449,1.34328 0.76214,3.11442 -0.28377,4.41149c-0.71849,0.89103 -1.75402,1.3759 -2.81415,1.42323l-0.05016,0.03168l-0.11227,-0.02786c-0.63988,0.00158 -1.28327,-0.15632 -1.86623,-0.48051l-0.98904,-0.52532l0.71902,1.34938l-2.01468,3.29562l-1.70799,0.37374l-0.34756,0.13801l-0.76004,0.35147l-0.61073,0.28243l-0.52067,0.33659l-0.35858,0.1224l-0.30772,0.22108l-1.05283,0.41808l-1.95794,0.26201l-0.03193,-0.02548l-0.03802,0.01488l-1.79256,-0.82998l-0.34495,-0.27816l-1.07355,-0.37002l-2.75698,-0.5387l-3.42512,0.31031l-3.77181,1.31502l-3.25329,1.16195l-0.06566,0.00646l-0.05609,0.03473l-3.2503,1.03941l-2.62799,1.04357l-4.03549,2.79866l-0.39574,0.30079l-0.43835,0.18789l-0.47317,0.35765l-0.26266,-0.04224l-0.64144,0.27494l-1.43203,-0.60839l-1.47752,-0.23762l-0.18313,-0.46789l-0.46246,-0.19648l-0.19514,-1.48371l-0.56705,-1.4489l0.29321,-0.63329l-0.03469,-0.26377l0.37106,-0.46273l0.20038,-0.43279l0.08444,-0.10472l0.45413,-1.12603l0.3894,-1.19383l0.02653,-1.45453l-0.55112,-2.40198l-1.72194,-4.58762l-2.68348,-3.16603l-2.49296,-1.87064l-2.74642,-1.12055l-1.74708,-0.25599l-0.45414,0.15834l-0.58442,0.05302l-0.56488,0.15898l-2.38247,0.06996l-0.21823,-0.0478l-0.22056,0.03554l-0.21301,-0.01819l-0.06977,0.01756l-0.0434,-0.02724l-0.17601,-0.01504l-1.86866,-0.64053l-0.40946,-0.88369l-0.77474,-0.48592l0.03098,-1.11921l-0.47071,-1.01589l0.51968,-0.75251l0.02695,-0.97356l1.46349,-1.32678l0.15575,-0.08337l0.02912,-0.04217l0.07103,-0.01144l0.44405,-0.2377l0.01827,-0.03481l0.10135,-0.02922l0.12488,-0.06685l0.83978,-0.21129l0.83206,-0.23991l0.14155,-0.00506l0.10229,-0.02574l0.0333,0.02089l2.30223,-0.08232l0.2975,0.06317l1.92158,-0.66996l2.76192,-1.41149l4.12405,-4.75424l2.80738,-6.82752l0.32287,-6.28149l-0.32557,-0.98176l-0.93532,-2.51996l-0.21769,-1.96336l0.1475,-0.17644l-0.04436,-0.16471l1.23887,-1.26434l1.13525,-1.35813l0.16829,0.0278l0.16097,-0.16427l1.97528,0.02193l1.29526,0.33913l2.06888,0.50088l4.39614,0.71514l3.019,-0.3413l0.03204,0.00427l0.03046,-0.01082l5.30469,-0.51176l0.61187,-0.30633l0.05081,-0.05055l0.39422,-0.75092l0.56052,-0.62834l0.6035,-0.74431l0.06528,-0.00542l0.08568,-0.09605l1.88146,-0.06723l1.81699,-0.15082l0.05922,0.08377l0.10254,-0.00366l0.98115,1.53673l1.08671,1.53736l-0.02449,0.12636l0.03526,0.0552l-0.22632,0.93111l-0.10806,0.55784l-0.03705,0.38516l-0.01822,1.91883l1.18629,3.75333l4.1112,4.69208l7.69275,2.08137l4.02749,-1.81316l0.53192,-0.3773l1.84032,-0.71793l0.61779,0.28687l0.59404,-0.1835l1.0291,0.93721l1.26245,0.58621l0.06069,0.61875l0.50361,0.45864l0.05024,1.97474l-0.13693,0.61359l-0.24834,0.4956l-0.14433,0.53523l-3.18282,5.71221l-2.34929,4.41819l-1.95306,4.32559l-0.27722,3.38573l1.34398,1.90262l1.756,0.93266c0.23577,0.11945 0.46269,0.26525 0.67671,0.43782zM217.31195,188.59227l-0.17043,-0.43936l-0.19794,-0.13566l-0.1073,-0.65128l-0.2387,-0.61538l0.10149,-0.21746l-0.0766,-0.46499l0.4449,-5.43348l0.21012,-0.62015l0.11666,-0.64431l2.27672,-5.04244l0.07855,-0.09933l0.03055,-0.12289l1.28113,-2.40934l-9.72369,-2.63085l-0.13231,-0.07388l-0.12615,0.02563l-0.71094,-0.49298l-0.75537,-0.42175l-0.03246,-0.12456l-0.12452,-0.08634l-5.12827,-5.85283l-0.01352,-0.00293l-0.02576,-0.04191l-0.23675,-0.27022l-0.35967,-0.70019l-0.41217,-0.67061l-0.10828,-0.34255l-0.02247,-0.04376l0.00452,-0.01307l-0.99453,-3.14668l-5.45676,0.52643l-3.51252,0.3971l-0.52161,-0.06946l-0.52437,0.044l-2.68969,-0.43755l-0.36517,7.10429l-0.18922,0.6197l-0.0937,0.64115l-3.29519,8.01385l-0.36849,0.50002l-0.28106,0.5539l-4.77154,5.50066l2.61067,1.95895l0.27243,0.33545l0.35101,0.25204l3.39271,4.00278l0.2909,0.58995l0.3736,0.54138l2.04599,5.45095l0.02959,0.25815l0.11779,0.2316l0.6553,2.85604l1.18223,-0.46946l0.13302,-0.0178l0.1141,-0.07066l3.31416,-1.05983l3.20643,-1.14524l0.01488,-0.00146l0.01251,-0.00819l4.23133,-1.47524l0.47017,-0.04266l0.4458,-0.15537l4.43967,-0.40222l0.53754,0.08379l0.54329,-0.02829l3.5552,0.69467l0.24471,0.1146l0.26919,0.02346l1.78065,0.61372l0.84566,-0.39106l0.00001,0l0,-0.00001l0.85597,-0.39584l0.10628,-0.02025l0.08786,-0.06313l0.64592,-0.2565l0.00505,-0.00825l0.03505,-0.00766l0.36682,-0.14568l0.76948,-0.10296l0.75838,-0.16595l0.36676,0.01085z" fill="#7d00ff"></path><path d="M221.43332,186.14737c0.23482,0.18935 0.43265,0.40753 0.59254,0.64538l0.06351,0.0572l0.00135,0.04372c0.62914,1.02498 0.58155,2.37649 -0.21651,3.36621c-0.54824,0.67991 -1.33842,1.04989 -2.14736,1.086l-0.03829,0.02418l-0.08566,-0.02126c-0.48827,0.0012 -0.9792,-0.11927 -1.42404,-0.36665l-0.75469,-0.40083l0.54865,1.02964l-1.5373,2.51475l-1.30328,0.28518l-0.2652,0.10532l-0.57995,0.26818l-0.46603,0.21551l-0.39731,0.25685l-0.27361,0.09339l-0.23479,0.16869l-0.80338,0.31903l-1.494,0.19992l-0.02435,-0.01945l-0.02902,0.01135l-1.36781,-0.63332l-0.26322,-0.21224l-0.81919,-0.28234l-2.10374,-0.41106l-2.61355,0.23678l-2.87811,1.00345l-2.48244,0.88664l-0.0501,0.00492l-0.0428,0.02649l-2.48014,0.79313l-2.00528,0.79631l-3.07931,2.13553l-0.30198,0.22953l-0.33449,0.14337l-0.36107,0.2729l-0.20044,-0.03223l-0.48945,0.20978l-1.09272,-0.46423l-1.12742,-0.1813l-0.13973,-0.35702l-0.35287,-0.14992l-0.14888,-1.13216l-0.43269,-1.10559l0.22375,-0.48324l-0.02647,-0.20126l0.28314,-0.35308l0.15291,-0.33023l0.06444,-0.07991l0.34651,-0.85923l0.29713,-0.91097l0.02025,-1.10988l-0.42054,-1.83285l-1.31394,-3.5006l-2.04764,-2.41585l-1.90227,-1.42739l-2.09566,-0.85504l-1.33312,-0.19534l-0.34653,0.12082l-0.44595,0.04046l-0.43104,0.12131l-1.81796,0.05339l-0.16653,-0.03647l-0.1683,0.02711l-0.16253,-0.01389l-0.05324,0.01337l-0.03312,-0.02078l-0.1343,-0.01147l-1.42588,-0.48876l-0.31243,-0.67429l-0.59117,-0.37078l0.02365,-0.85402l-0.35918,-0.77518l0.39654,-0.57419l0.02057,-0.74288l1.11672,-1.01242l0.11883,-0.06362l0.02221,-0.03217l0.0542,-0.00874l0.33884,-0.18138l0.01393,-0.02655l0.07733,-0.0223l0.09528,-0.051l0.64081,-0.16123l0.63491,-0.18307l0.10803,-0.00385l0.07806,-0.01964l0.0254,0.01594l1.75672,-0.0628l0.22701,0.04821l1.46627,-0.5112l2.1075,-1.07706l3.14688,-3.62775l2.14219,-5.20977l0.24638,-4.79312l-0.24842,-0.74914l-0.7137,-1.92286l-0.16611,-1.49813l0.11256,-0.13464l-0.03385,-0.12567l0.94534,-0.96478l0.86626,-1.03635l0.1284,0.02122l0.12282,-0.12534l1.50725,0.01673l0.98835,0.25877l1.57867,0.3822l3.35451,0.54571l2.30366,-0.26044l0.02446,0.00326l0.02325,-0.00824l4.04777,-0.39051l0.46688,-0.23373l0.03876,-0.03856l0.30082,-0.57299l0.4277,-0.47945l0.46049,-0.56794l0.04982,-0.00413l0.06538,-0.07328l1.43565,-0.05131l1.38647,-0.11507l0.04518,0.06393l0.07823,-0.0028l0.74866,1.17262l0.82922,1.17309l-0.01867,0.09642l0.02689,0.04215l-0.1727,0.7105l-0.08246,0.42566l-0.02828,0.29389l-0.0139,1.46418l0.90521,2.86401l3.13707,3.5803l5.86999,1.58819l3.07319,-1.38355l0.40589,-0.28789l1.40426,-0.54781l0.47141,0.2189l0.45328,-0.14002l0.78527,0.71512l0.96329,0.44732l0.04633,0.47216l0.38429,0.34996l0.03834,1.50683l-0.10448,0.46821l-0.18951,0.37818l-0.11013,0.40841l-2.42867,4.35871l-1.79263,3.37131l-1.49029,3.30066l-0.21154,2.58351l1.02552,1.45181l1.33993,0.71168c0.1799,0.09116 0.35306,0.2024 0.51635,0.33408zM213.16116,186.15709l-0.13004,-0.33527l-0.15105,-0.10352l-0.08187,-0.49696l-0.18213,-0.46956l0.07744,-0.16594l-0.05845,-0.35483l0.33949,-4.14604l0.16033,-0.47321l0.08901,-0.49165l1.73726,-3.84765l0.05993,-0.0758l0.02331,-0.09377l0.97756,-1.83846l-7.4197,-2.00749l-0.10097,-0.05636l-0.09625,0.01956l-0.54247,-0.37617l-0.5764,-0.32181l-0.02476,-0.09505l-0.09502,-0.06589l-3.91315,-4.46603l-0.01033,-0.00223l-0.01965,-0.03199l-0.18066,-0.20619l-0.27446,-0.53428l-0.31451,-0.51171l-0.0826,-0.26139l-0.01714,-0.03339l0.00344,-0.00998l-0.75888,-2.40107l-4.1638,0.4017l-2.68024,0.303l-0.39801,-0.05301l-0.40012,0.03358l-2.05238,-0.33387l-0.27864,5.42096l-0.14437,0.47286l-0.0715,0.48923l-2.5144,6.115l-0.28118,0.38155l-0.21446,0.42266l-3.64093,4.19731l1.99208,1.49479l0.20789,0.25597l0.26785,0.19234l2.58882,3.05433l0.22197,0.45018l0.28508,0.41311l1.56121,4.15936l0.02256,0.19697l0.08988,0.17672l0.50003,2.17931l0.9021,-0.35823l0.10151,-0.01358l0.08706,-0.05391l2.52887,-0.8087l2.44669,-0.87388l0.01137,-0.00112l0.00955,-0.00625l3.22873,-1.12569l0.35879,-0.03254l0.34018,-0.11855l3.38772,-0.3069l0.41017,0.06394l0.41456,-0.02158l2.71282,0.53006l0.18672,0.08743l0.20542,0.0179l1.35873,0.46828l0.64529,-0.29841l0.00001,0l0,-0.00001l0.65315,-0.30204l0.0811,-0.01545l0.06703,-0.04818l0.49286,-0.19574l0.00386,-0.00629l0.02675,-0.00586l0.2799,-0.11115l0.58714,-0.07858l0.57869,-0.12664l0.27986,0.00828z" fill="#be82ff"></path></g></g></g></svg>