<svg version="1.1" xmlns="http://www.w3.org/2000/svg" xmlns:xlink="http://www.w3.org/1999/xlink" width="101.02631" height="86.46145" viewBox="0,0,101.02631,86.46145"><g transform="translate(-187.63846,-137.92395)"><g data-paper-data="{&quot;isPaintingLayer&quot;:true}" fill-rule="nonzero" stroke-linejoin="miter" stroke-miterlimit="10" stroke-dasharray="" stroke-dashoffset="0" style="mix-blend-mode: normal"><path d="M188.13846,184.53645c0,-3.96071 3.21079,-7.1715 7.1715,-7.1715c3.96071,0 7.1715,3.21079 7.1715,7.1715c0,3.96071 -3.21079,7.1715 -7.1715,7.1715c-3.96071,0 -7.1715,-3.21079 -7.1715,-7.1715z" fill="#d8d8d8" stroke="#000000" stroke-width="1" stroke-linecap="butt"></path><path d="" data-paper-data="{&quot;index&quot;:null}" fill="none" stroke="#000000" stroke-width="1.5" stroke-linecap="round"></path><path d="" data-paper-data="{&quot;index&quot;:null}" fill="none" stroke="#000000" stroke-width="1.5" stroke-linecap="round"></path><path d="M199.48851,178.17395c0,-21.81525 17.68475,-39.5 39.5,-39.5c21.81525,0 39.5,17.68475 39.5,39.5c0,21.81525 -17.68475,39.5 -39.5,39.5c-21.81525,0 -39.5,-17.68475 -39.5,-39.5z" fill="#d8d8d8" stroke="#000000" stroke-width="1.5" stroke-linecap="butt"></path><path d="M225.51007,194.79569c5.44898,-2.88817 27.57511,5.13694 27.57511,5.13694" data-paper-data="{&quot;index&quot;:null}" fill="none" stroke="#000000" stroke-width="1.5" stroke-linecap="round"></path><path d="M225.31197,165.60053l6.99536,1.82343v8" fill="none" stroke="#000000" stroke-width="1.5" stroke-linecap="round"></path><path d="M237.86965,175.98477l-0.24149,-8.93527l7.00332,-2.17344" fill="none" stroke="#000000" stroke-width="1.5" stroke-linecap="round"></path><path d="M238.59414,186.12751l16.42158,-6.52033" fill="none" stroke="#000000" stroke-width="1.5" stroke-linecap="round"></path><path d="M244.63149,185.64452l-2.89793,-5.55436" fill="none" stroke="#000000" stroke-width="1.5" stroke-linecap="round"></path><path d="M250.18584,185.64452l-3.8639,-7.7278" fill="none" stroke="#000000" stroke-width="1.5" stroke-linecap="round"></path><g><path d="M242.54994,205.83966l-2.39251,10.76166l-12.60315,6.28062l5.08272,-14.1846z" data-paper-data="{&quot;index&quot;:null}" fill="#c6c6c6" stroke="#c6c6c6" stroke-width="1.5" stroke-linecap="round"></path><path d="M261.8156,166.72288" fill="none" stroke="#d8d8d8" stroke-width="4" stroke-linecap="round"></path><path d="M288.66478,157.82259l-37.55332,42.09376l-2.90302,-2.58989l37.55332,-42.09376z" fill="#7f7600" stroke="#000000" stroke-width="0" stroke-linecap="butt"></path><path d="M242.20916,208.01761c-2.32546,0.56066 -2.96458,-1.78046 -2.96458,-1.78046l-0.46806,-3.72474c1.19384,-2.83042 3.05861,-5.2324 4.03841,-8.13395c0.40612,-1.20264 0.10867,-2.85875 1.10605,-3.64392c1.53452,-1.20802 3.84561,-2.46515 5.62117,-1.6519c1.46638,0.67163 0.36084,3.27108 1.07327,4.71808c0.37521,0.76207 1.64461,0.79421 2.01667,1.55783c0.27907,0.57274 -0.83431,1.47708 -0.34129,1.88061c0.76132,0.62312 2.55025,-0.65563 2.94107,0.24724c2.63361,6.08429 -5.46987,9.75119 -9.25499,12.07571c0,0 -2.13063,1.30782 -3.43845,-0.82281c-0.15491,-0.25237 -0.26159,-0.49321 -0.32927,-0.7217z" fill="#ff0000" stroke="none" stroke-width="0.5" stroke-linecap="butt"></path></g></g></g></svg>