<svg version="1.1" xmlns="http://www.w3.org/2000/svg" xmlns:xlink="http://www.w3.org/1999/xlink" width="129.80869" height="133.03458" viewBox="0,0,129.80869,133.03458"><g transform="translate(-168.09061,-134.01606)"><g data-paper-data="{&quot;isPaintingLayer&quot;:true}" fill-rule="nonzero" stroke-linejoin="miter" stroke-miterlimit="10" stroke-dasharray="" stroke-dashoffset="0" style="mix-blend-mode: normal"><g fill="none" stroke="#000000" stroke-width="2" stroke-linecap="round"><path d="M287.9676,148.59114l5.03839,-3.8933l-3.43527,22.21473"></path><path d="M296.8993,149.50721l-3.43527,-5.72545"></path></g><g fill="none" stroke="#000000" stroke-width="2" stroke-linecap="round"><path d="M283.19662,141.30096l5.03839,-3.8933l-3.43527,22.21473"></path><path d="M292.12832,142.21704l-3.43527,-5.72545"></path></g><g fill="none" stroke="#000000" stroke-width="2" stroke-linecap="round"><path d="M276.5935,143.85855l5.03839,-3.8933l-3.43527,22.21473"></path><path d="M285.5252,144.77462l-3.43527,-5.72545"></path></g><g fill="none" stroke="#000000" stroke-width="2" stroke-linecap="round"><path d="M270.4484,140.23266l5.0384,-3.8933l-3.43527,22.21473"></path><path d="M279.38011,141.14873l-3.43527,-5.72545"></path></g><path d="M261.5103,205.82108l9.28975,-50.21898l22.51972,4.16581c0,0 -4.21024,42.86497 -9.28974,50.21898c-5.0795,7.35401 -22.51973,-4.16581 -22.51973,-4.16581z" data-paper-data="{&quot;index&quot;:null}" fill="#9b5b00" stroke="#000000" stroke-width="1" stroke-linecap="butt"></path><g stroke="#000000" stroke-width="1.5"><path d="M200.5,180c0,-21.81525 17.68475,-39.5 39.5,-39.5c21.81525,0 39.5,17.68475 39.5,39.5c0,21.81525 -17.68475,39.5 -39.5,39.5c-21.81525,0 -39.5,-17.68475 -39.5,-39.5z" fill="#d8d8d8" stroke-linecap="butt"></path><path d="M240.52979,163.64538v8" data-paper-data="{&quot;index&quot;:null}" fill="none" stroke-linecap="round"></path><g fill="none" stroke-linecap="round"><path d="M220.00351,164.24289c0,0 9,-2.53398 9,1c0,3.53398 -9,4 -9,4"></path><path d="M228.97122,165.33607l-7.5,1.25"></path></g><path d="M228.37341,194.40148l-3.99378,0.26625" fill="none" stroke-linecap="round"></path></g><path d="" data-paper-data="{&quot;index&quot;:null}" fill="#00c1ff" stroke="none" stroke-width="0.5" stroke-linecap="butt"></path><g data-paper-data="{&quot;index&quot;:null}" stroke-linecap="butt"><path d="M226.76806,149.02705c0,0.61306 -4.05513,2.46245 -9.26192,5.02297c-2.28725,1.12479 -6.80926,1.72859 -8.80186,3.34431c-2.03646,1.65128 -1.40691,4.05984 -1.23845,6.73981c0.08586,1.36602 3.18307,33.43815 4.58316,44.73452c0.03467,0.2797 -0.08312,-0.69566 0.8497,-0.09538c3.21325,2.06777 14.14104,9.02734 14.24232,9.75216c0.01087,0.07779 -3.49218,1.79208 -7.62769,2.61562c-2.52057,0.50195 -7.32642,0.94314 -12.56854,0.04311c-6.4841,-1.11327 -13.29622,-3.7451 -13.23158,-4.49564c0.04108,-0.47699 -18.0045,-11.44233 -16.46896,-11.64412c0.05719,-0.00752 -3.21941,-3.56669 -5.6165,-7.55292c-2.37789,-3.9543 -2.57499,-13.54529 -2.25142,-13.71883c0.35985,-0.193 8.69397,-15.46366 9.29375,-15.80853c0.7666,-0.44079 9.4244,-11.48901 9.22454,-8.78465c-0.01429,0.19331 3.20744,-0.71336 2.30323,0.88849c-1.37963,2.44407 -8.42785,8.89453 -10.64344,12.64557c-2.98989,5.06193 -5.25379,9.96985 -5.13198,10.15469c0.0814,0.1235 -1.03513,4.85756 -0.94462,4.98426c0.27096,0.37928 -0.25573,2.41056 0.74308,4.44715c1.67843,3.42237 3.7036,7.70853 3.78694,7.89707c0.50705,1.1472 12.99693,10.92425 13.33725,10.9591c2.70997,0.27749 6.40255,3.86838 12.65894,6.0624c4.76649,1.67153 12.59525,2.14832 13.36363,1.98696c2.86146,-0.60089 4.25493,-2.26651 3.7973,-2.54713c-4.43472,-2.71947 -8.49121,-3.16725 -8.46716,-3.10191c-1.00289,0.36993 -2.83858,-0.86395 -3.41316,-2.06929c-1.23246,-2.5854 -1.77137,-16.0708 -1.90067,-22.31902c-0.05925,-2.86336 -1.82313,-13.76301 -2.44982,-22.1061c-0.40856,-5.43908 0.24717,-9.8746 0.17386,-10.0029c-0.73685,-0.43488 12.92267,-5.15151 12.92267,-6.06907c0,-0.43696 -5.89664,-1.81237 -11.24651,-0.33013c-6.8054,1.88551 -14.66136,6.46591 -16.23828,9.07327c-0.70977,1.17357 -3.61227,-0.35733 -3.22437,-0.35733c0.22458,0 11.40496,-7.74624 11.61202,-7.69071c1.09267,-0.43434 6.84774,-3.47644 12.98455,-4.40835c7.20397,-1.09396 14.84999,0.04794 14.84999,1.75054z" fill="#00c1ff" stroke="none" stroke-width="0.5"></path><g fill="none" stroke="#000000" stroke-width="1.5"><path d="M226.37403,219.0687c-20.46062,11.1412 -57.53342,-13.22633 -57.53342,-30.00283c0,-16.7765 27.68606,-45.87558 52.67521,-42.33521c17.68115,2.505 -12.67813,8.46751 -13.37566,11.96683c-1.4955,7.50246 2.4175,31.99684 3.50485,47.5049c0.34416,4.90856 19.64816,10.18773 14.72902,12.8663z"></path><path d="M188.71355,209.46682c-10.35607,-5.84556 -15.1392,-18.36209 -15.1392,-18.62932c0,-15.29648 20.46507,-43.42597 43.50262,-40.19792c4.30486,0.6032 -11.85782,4.30311 -12.33105,6.65109c-1.3787,6.8406 3.55996,39.82417 4.56239,53.96411c0.31729,4.47553 16.24992,3.96394 11.71496,6.4062c0,0 -3.27811,1.97761 -7.94106,1.24171c-7.14173,-1.1271 -17.53197,-5.57684 -24.36866,-9.43587z"></path></g></g><text transform="translate(215.72535,233.62398) scale(0.37642,0.37642)" font-size="40" xml:space="preserve" fill="#000000" fill-rule="nonzero" stroke="none" stroke-width="1" stroke-linecap="butt" stroke-linejoin="miter" stroke-miterlimit="10" stroke-dasharray="" stroke-dashoffset="0" font-family="Sans Serif" font-weight="normal" text-anchor="start" style="mix-blend-mode: normal"><tspan x="0" dy="0">Archer</tspan></text><text transform="translate(213.82428,245.74329) scale(0.20478,0.20478)" font-size="40" xml:space="preserve" fill="#000000" fill-rule="nonzero" stroke="none" stroke-width="1" stroke-linecap="butt" stroke-linejoin="miter" stroke-miterlimit="10" stroke-dasharray="" stroke-dashoffset="0" font-family="Sans Serif" font-weight="normal" text-anchor="start" style="mix-blend-mode: normal"><tspan x="0" dy="0">-High damage</tspan><tspan x="0" dy="46.15px">-aimable attack</tspan><tspan x="0" dy="46.15px">-mobility</tspan></text></g></g></svg>