<svg version="1.1" xmlns="http://www.w3.org/2000/svg" xmlns:xlink="http://www.w3.org/1999/xlink" width="247.64682" height="137.68287" viewBox="0,0,247.64682,137.68287"><g transform="translate(-198.7385,-138.16295)"><g data-paper-data="{&quot;isPaintingLayer&quot;:true}" fill-rule="nonzero" stroke-linecap="butt" stroke-linejoin="miter" stroke-miterlimit="10" stroke-dasharray="" stroke-dashoffset="0" style="mix-blend-mode: normal"><path d="M238.9885,217.91295c-21.81525,0 -39.5,-17.68475 -39.5,-39.5c0,-21.81525 17.68475,-39.5 39.5,-39.5c21.81525,0 39.5,17.68475 39.5,39.5c0,21.81525 -17.68475,39.5 -39.5,39.5z" data-paper-data="{&quot;index&quot;:null}" fill="#000000" stroke="#000000" stroke-width="1.5"></path><g data-paper-data="{&quot;index&quot;:null}" stroke="none" stroke-width="0"><path d="M258.71106,168.50345c7.45315,0 13.49512,5.141 13.49512,5.141c0,0 -6.04197,5.141 -13.49512,5.141c-7.45315,0 -13.49512,-5.141 -13.49512,-5.141c0,0 6.04197,-5.141 13.49512,-5.141z" fill="#ffffff"></path><path d="M259.35368,178.78545c-2.8393,0 -5.141,-2.30171 -5.141,-5.141c0,-2.8393 2.30171,-5.141 5.141,-5.141c2.8393,0 5.141,2.30171 5.141,5.141c0,2.8393 -2.30171,5.141 -5.141,5.141z" fill="#000000"></path></g><g data-paper-data="{&quot;index&quot;:null}" stroke="none" stroke-width="0"><path d="M229.03426,168.6195c7.45315,0 13.49512,5.141 13.49512,5.141c0,0 -6.04197,5.141 -13.49512,5.141c-7.45315,0 -13.49512,-5.141 -13.49512,-5.141c0,0 6.04197,-5.141 13.49512,-5.141z" fill="#ffffff"></path><path d="M229.67689,178.9015c-2.8393,0 -5.141,-2.30171 -5.141,-5.141c0,-2.83929 2.30171,-5.141 5.141,-5.141c2.8393,0 5.141,2.30171 5.141,5.141c0,2.8393 -2.30171,5.141 -5.141,5.141z" fill="#000000"></path></g><path d="M414.98681,254.88172c0.27758,-0.04349 0.62942,0.01493 0.91924,0.42773c0.57459,0.81844 -0.24386,1.39303 -0.24386,1.39303l-2.92632,2.05442c-0.16441,0.11864 -0.36631,0.18854 -0.58454,0.18854c-0.55228,0 -1,-0.44772 -1,-1c0,-0.1938 0.05513,-0.37472 0.15056,-0.52794l1.00174,-1.67263c1.89104,-3.92203 4.81942,-8.21812 5.99578,-12.39568c0.45241,-1.60663 0.29228,-3.4304 0.39922,-5.15503c-0.12737,0.26822 -0.25325,0.53661 -0.37712,0.80529c-3.63884,7.89326 -7.25994,15.795 -10.92223,23.67741c-2.44731,3.21056 -4.90848,6.41057 -7.36516,9.61397c-0.3823,0.4985 -2.636,3.55144 -3.08258,3.55493c-1.11759,0.00874 -2.33336,-0.891 -2.74036,-1.93188c-0.36392,-0.93072 2.39303,-5.06533 2.88689,-6.0022c2.40765,-4.56742 4.81531,-9.13483 7.22296,-13.70225c0.8834,-3.64163 1.76422,-7.28393 2.64812,-10.92546c-0.64353,0.93267 -1.26112,1.84903 -1.80963,2.74383c-2.75625,4.49632 -5.35001,9.02263 -8.65744,13.13506l-1.24777,1.55146c-0.18315,0.23167 -0.46667,0.38033 -0.78491,0.38033c-0.55228,0 -1,-0.44772 -1,-1c0,-0.10192 0.01525,-0.20028 0.04359,-0.29293l0.53526,-1.90312l0.15331,0.04312c0.31354,-2.82377 0.99102,-5.63203 1.88641,-8.40125c-2.33444,3.53184 -4.79874,6.94831 -7.12671,10.27572l-1.13849,1.62727c-0.17994,0.2645 -0.48338,0.43822 -0.8274,0.43822c-0.55228,0 -1,-0.44772 -1,-1c0,-0.03287 0.00159,-0.06538 0.00469,-0.09744l0.14861,-1.73146l0.02564,0.0022c0.00504,-0.08192 0.01366,-0.16384 0.02638,-0.24574c0.11495,-0.74023 0.80589,-1.26302 1.21497,-1.89057c1.45609,-2.23371 2.94516,-4.44672 4.41752,-6.66975c2.90275,-4.38269 5.64785,-9.14865 8.69055,-13.63463c0.71469,-2.15063 1.52323,-4.78694 2.61059,-6.81391c-1.73716,1.36679 -3.47445,2.73342 -5.21659,4.09385c-0.78958,1.34798 -1.7361,2.65693 -2.54342,3.95866c-4.21644,6.79865 -8.43288,13.5973 -12.64932,20.39595c-1.66744,2.67824 -3.93153,5.01397 -5.95704,7.43033l-1.09112,1.30166c-0.18342,0.22188 -0.46076,0.36327 -0.77112,0.36327c-0.55228,0 -1,-0.44772 -1,-1c0,-0.15152 0.0337,-0.29517 0.09401,-0.42387l0.79904,-1.80964l0.18435,0.0814c1.70785,-6.3803 5.80004,-11.58829 9.83991,-16.84747c3.68029,-4.79107 7.34934,-9.59103 11.04714,-14.3686c0.02347,-0.01859 0.04694,-0.03718 0.07041,-0.05576c0.28298,-0.43329 0.57959,-0.84557 0.8964,-1.22037c0.26791,-0.31696 1.18575,-0.3624 1.00443,-0.73571c-0.18132,-0.37331 -0.78429,0.32701 -1.19924,0.33462c-0.51272,0.00939 -1.00486,-0.36228 -1.51181,-0.28495c-0.42525,0.06486 -2.59686,3.17967 -2.95421,3.59299c-1.79972,2.08161 -3.59733,4.12196 -5.35628,6.17226c-1.01567,1.57474 -2.04827,3.13137 -3.00811,4.69246c-4.22729,6.87524 -8.19222,13.83213 -13.29665,20.09157l-1.25859,1.54339c-0.18327,0.22839 -0.46474,0.3746 -0.78035,0.3746c-0.55228,0 -1,-0.44772 -1,-1c0,-0.18569 0.05061,-0.35957 0.1388,-0.50858l0.97754,-1.72446l0.22397,0.12696c0.97074,-2.46516 2.34379,-4.65669 3.72119,-7.08654c1.6324,-2.87967 3.07744,-6.07934 4.98423,-8.78271c2.22162,-3.14972 4.86725,-6.11341 7.54366,-9.02931c0.96709,-1.83006 2.06139,-4.09171 3.38156,-5.70382c-6.14324,2.86865 -12.28649,5.7373 -18.42973,8.60595c0,0 -0.08619,0.04025 -0.21782,0.06933c-3.4893,5.474 -7.41517,10.71495 -10.82537,15.8374c-0.93714,1.40767 -1.86284,2.8107 -2.76648,4.24014l-0.54776,0.86642c0,0 -0.53438,0.84525 -1.37962,0.31087c-0.84525,-0.53438 -0.31087,-1.37962 -0.31087,-1.37962l0.54776,-0.86642c0.91211,-1.44261 1.84635,-2.85902 2.79215,-4.27971c4.38429,-6.58562 9.32654,-13.04703 13.25819,-19.90927c1.76674,-3.08363 2.7699,-8.53424 5.16573,-11.54775c-0.37795,0.16908 -0.75589,0.33816 -1.13384,0.50723c-1.09923,0.46776 -1.99249,1.2387 -2.78242,2.1461c0.10296,0.15721 0.16283,0.34519 0.16283,0.54715c0,0.18701 -0.05133,0.36203 -0.14068,0.51174l-0.98433,1.72083l-0.2087,-0.11938c-1.49983,3.75024 -3.95722,6.91207 -6.45703,10.22134c-3.60888,4.77745 -7.05257,9.67815 -11.15121,14.04637l-1.18696,1.26503c-0.18252,0.19551 -0.44255,0.31774 -0.73111,0.31774c-0.55228,0 -1,-0.44772 -1,-1c0,-0.20746 0.06317,-0.40016 0.17134,-0.55993l1.08842,-1.661l0.16244,0.10645c0.93847,-2.21788 2.16994,-4.38474 3.56075,-6.50002c-2.47142,2.61684 -4.93492,5.24091 -7.37365,7.88684c-2.83495,3.07581 -5.45406,6.64895 -8.62914,9.42555c-0.25287,0.3053 -0.50831,0.60822 -0.76662,0.90846l-0.01506,0.01749l0.03487,0.03149l-1.33749,1.48114c-0.1831,0.2044 -0.44907,0.33302 -0.74509,0.33302c-0.55228,0 -1,-0.44772 -1,-1c0,-0.25128 0.09268,-0.48092 0.24573,-0.65658l1.30142,-1.51151c0.30097,-0.34926 0.59794,-0.70229 0.89142,-1.05858c0.4935,-0.81844 1.17736,-1.64027 1.9214,-2.43312c2.14993,-2.82598 4.15817,-5.77852 6.24524,-8.63295c4.80062,-6.56566 8.47292,-13.17033 12.14975,-20.4206c0.90459,-1.78374 1.80917,-3.56748 2.71376,-5.35122c0.48942,-0.96508 1.62895,-1.63984 1.78664,-2.71037c0.03646,-0.24753 -0.53282,-0.09402 -0.75001,0.0302c-1.0017,0.57293 -2.36626,2.65122 -3.20494,3.51952c-5.50889,5.70347 -11.05264,11.37099 -16.4262,17.20236c-3.12072,3.3866 -6.09326,7.16372 -9.60278,10.18879l0.11567,0.10659l-1.35294,1.4682c-0.18283,0.19969 -0.44567,0.32492 -0.73775,0.32492c-0.55228,0 -1,-0.44772 -1,-1v-1.16222h0.11398l-0.07173,-0.28757c4.34478,-6.87445 8.26581,-13.51015 11.81381,-20.84066c0.84072,-1.73702 3.8036,-5.81243 3.09,-7.58208c0.01211,-0.11388 0.01527,-0.23007 0.01692,-0.34666c-0.34055,0.3777 -0.7653,0.68792 -1.12516,1.05015c-0.46986,0.47294 -0.93972,0.94589 -1.40958,1.41883c-1.87944,1.89177 -3.75888,3.78355 -5.63833,5.67532c-4.85391,4.88576 -9.67543,11.03678 -15.33102,15.20437l0.11362,0.11288l-1.40938,1.41863c-0.18116,0.18244 -0.43219,0.29541 -0.70961,0.29541c-0.55228,0 -1,-0.44772 -1,-1c0,-0.1133 0.01884,-0.2222 0.05357,-0.32374l0.53084,-1.67877c0.25391,-0.80259 0.52134,-1.60063 0.79793,-2.39555c-0.11262,0.10651 -0.22589,0.21213 -0.33981,0.31683l0.13118,0.10289l-1.22812,1.56584c-0.18282,0.2376 -0.47004,0.39072 -0.79302,0.39072c-0.55228,0 -1,-0.44772 -1,-1c0,-0.1048 0.01612,-0.20583 0.04602,-0.30075l0.42442,-1.46357l0.06949,0.02015l-0.00029,-0.19519c1.69566,-2.22517 3.5715,-4.40147 5.34236,-6.63436c0.72597,-1.88075 2.19775,-4.25584 1.66645,-6.17866c-0.11702,-0.42349 -0.2392,-0.85029 -0.36359,-1.27956c-0.03263,0.02368 -0.06497,0.04756 -0.097,0.07165c-3.48943,2.62451 -6.91535,5.67557 -10.62827,7.96897c-0.98627,0.6092 -1.99022,1.1961 -3.00571,1.76776c-0.85651,0.92594 -1.74738,1.81457 -2.71587,2.62744l-0.06099,0.08696l0.18104,0.16436l-1.34159,1.47773c-0.18303,0.20315 -0.44818,0.33087 -0.74316,0.33087c-0.55228,0 -1,-0.44772 -1,-1c0,-0.21806 0.06979,-0.41981 0.18826,-0.58415l0.175,-0.24954c-1.94369,1.01233 -3.89072,2.0138 -5.8006,3.05089c-2.02837,1.10143 -3.49625,2.23852 -5.91438,2.11557c-0.97883,-0.04977 -2.42248,0.45093 -2.9133,-0.39741c-0.49083,-0.84834 0.67116,-1.84612 1.10748,-2.72374c0.75568,-1.51997 1.86722,-3.44988 3.01649,-4.973c0.00897,-0.03425 0.0197,-0.06778 0.0321,-0.10049l0.54596,-1.54847l0.05455,0.01923l0.0129,-0.16966c4.07101,-5.21539 8.20617,-10.11443 11.40023,-15.91714c1.57413,-2.85976 3.2652,-7.79348 5.76189,-10.30991c-3.0766,1.07847 -5.82907,4.22156 -8.30591,6.22781c-3.60778,2.92234 -7.35471,5.73282 -10.8502,8.78785c-3.04074,2.65759 -5.63679,5.73339 -8.88385,8.01544l0.17812,0.18902l-1.454,1.37011c-0.1792,0.16965 -0.42114,0.2737 -0.68738,0.2737c-0.55228,0 -1,-0.44772 -1,-1c0,-0.23358 0.08008,-0.44845 0.21429,-0.61866l0.7817,-1.01163c3.99883,-5.17508 7.70136,-10.56944 11.50446,-15.8894c0.6647,-0.92982 1.07648,-2.06249 1.5564,-3.11849c-3.44627,2.98892 -6.56151,6.06071 -9.65672,9.51546c-2.29491,2.56149 -4.3076,5.23839 -6.93989,7.26353l-0.00821,0.01089l0.2196,0.23088l-1.44785,1.3771c-0.1795,0.17141 -0.42271,0.27667 -0.69051,0.27667c-0.55228,0 -1,-0.44772 -1,-1c0,-0.22952 0.07733,-0.44099 0.20735,-0.60976l1.19764,-1.58933c2.32653,-3.08743 5.21033,-6.151 7.15673,-9.4859c0.72123,-1.23573 1.04442,-2.69327 1.64152,-3.94483c-3.32594,2.38842 -6.46989,5.06164 -9.67783,7.59871c-0.65561,0.51851 -3.39938,2.82899 -4.10319,2.63536c-2.4269,-0.66768 -0.47773,-2.93793 -0.01315,-3.57491c1.5459,-2.11955 3.3794,-4.07942 4.82545,-6.26701c1.05156,-1.59081 1.60153,-3.76541 2.68161,-5.39162c-2.33525,1.34591 -4.73543,3.2813 -6.94906,5.3171c-2.81541,4.13568 -6.50694,7.98758 -9.57479,11.355l-1.1983,1.31531c-0.18299,0.20234 -0.4476,0.32948 -0.7419,0.32948c-0.55228,0 -1,-0.44772 -1,-1c0,-0.23084 0.07822,-0.44341 0.20959,-0.61265l1.20403,-1.58483l0.13914,0.10571c0.06242,-0.06875 0.1247,-0.1376 0.18684,-0.20655c0.48617,-0.88632 1.02823,-1.73096 1.61508,-2.54223c-1.42893,1.652 -2.88728,3.26992 -4.32329,4.86495c-0.75567,0.97865 -1.56528,2.00398 -2.46586,2.75426c-0.51907,0.586 -1.03087,1.16972 -1.53272,1.75175l-0.66115,0.76678c-0.18342,0.21523 -0.45649,0.35172 -0.76143,0.35172c-0.55228,0 -1,-0.44772 -1,-1c0,-0.24182 0.08584,-0.46359 0.2287,-0.63651l1.25683,-1.5462l0.04646,0.03777c0.39606,-0.45517 0.79553,-0.91066 1.19752,-1.3667c1.44581,-1.97792 3.18467,-3.72356 4.93044,-5.67918c1.00886,-1.13013 2.00721,-2.25472 3.00784,-3.36812c2.82228,-3.35404 5.49072,-6.81545 7.69964,-10.47044c0.98031,-1.62208 1.21231,-3.62593 1.95267,-5.33825c-5.844,6.53387 -11.91878,12.82348 -17.63747,19.48856c0,0 -0.65117,0.75893 -1.4101,0.10776c-0.75893,-0.65117 -0.10776,-1.4101 -0.10776,-1.4101c6.27006,-7.3077 12.60305,-14.50401 19.38839,-21.34447l0.24509,-0.02931l-0.02539,-0.07567l1.36346,-0.45745c0.1062,-0.03842 0.22076,-0.05936 0.34021,-0.05936c0.55228,0 1,0.44772 1,1c0,0.13202 -0.02558,0.25806 -0.07206,0.37344l-0.69564,1.85053l-0.14545,-0.05468c-0.70037,2.54721 -1.73527,4.97874 -3.0036,7.31646c0.58559,-0.52633 1.18183,-1.0452 1.79055,-1.5558l0.94051,-0.78891c0.17447,-0.14838 0.40053,-0.23792 0.64751,-0.23792c0.55228,0 1,0.44772 1,1c0,0.20351 -0.06079,0.39282 -0.16521,0.55077l-0.7073,1.10748c1.22844,-1.04561 2.51345,-2.0077 3.98065,-2.75328l1.76863,-0.89013c0.1395,-0.0739 0.29858,-0.11575 0.46744,-0.11575c0.55228,0 1,0.44772 1,1c0,0.17164 -0.04324,0.33318 -0.11943,0.47432l-0.90465,1.76162l-0.13871,-0.07123c-1.07105,2.98162 -2.61941,5.84823 -4.52967,8.33699c-0.61453,0.80064 -1.23028,1.60034 -1.84586,2.40016c0.39424,-0.26445 0.76224,-0.50822 1.04693,-0.73337c3.15063,-2.49174 6.23458,-5.10588 9.55142,-7.37259l1.64086,-1.12063c0.16259,-0.11437 0.3608,-0.18153 0.57469,-0.18153c0.55228,0 1,0.44772 1,1c0,0.14981 -0.03294,0.29193 -0.09198,0.4195l-0.79,1.81345l-0.18899,-0.08233c-0.49618,1.58233 -1.14807,3.06898 -1.90939,4.49449c2.93932,-3.07811 5.96816,-6.00673 9.32532,-8.80489l1.53129,-1.27631c0.17416,-0.14726 0.39936,-0.23604 0.64529,-0.23604c0.55228,0 1,0.44772 1,1c0,0.13755 -0.02777,0.26861 -0.07801,0.38789l-0.72504,1.83949l-0.22563,-0.08893c-1.22425,4.28065 -3.79468,8.38486 -6.66918,12.24861c4.1973,-3.7223 8.65564,-7.15394 13.01518,-10.6852c2.71667,-2.20052 5.14922,-4.88186 8.60085,-5.64405l1.05113,-0.21825c0.07197,-0.01646 0.14689,-0.02515 0.22385,-0.02515c0.55228,0 1,0.44772 1,1c0,0.18144 -0.04832,0.3516 -0.1328,0.4983l-0.95558,1.73602l-0.08443,-0.04647c-2.1845,5.65315 -5.43637,10.97521 -9.03688,16.01078c1.97101,-1.96393 4.5809,-4.93977 6.65863,-5.59804c0.06872,-0.02177 0.13788,-0.041 0.20744,-0.05795l-0.00654,-0.02317l1.8419,-0.5202c0.01056,-0.00324 0.0212,-0.00632 0.03191,-0.00922c0.17136,-0.12449 0.34358,-0.24836 0.51671,-0.3716c0.84486,-0.60143 4.7459,-3.97179 5.69468,-3.63888c1.42687,0.50068 1.83334,1.39993 1.69956,2.43965c0.84405,-0.16993 1.58612,-0.27462 1.77235,-0.16347c0.28757,0.17164 0.75134,1.75421 1.08597,3.01346c1.54605,-1.41442 3.62468,-3.9763 5.46918,-4.65414c1.52345,-0.55986 3.65108,-0.21953 5.15191,-0.11775c-0.56767,1.84953 -1.25762,3.64596 -2.04561,5.39676c0.0915,0.15098 0.14417,0.32811 0.14417,0.51754c0,0.16937 -0.04211,0.32891 -0.11643,0.46872l-0.82702,1.63705c-2.37473,4.70069 -5.14378,9.73967 -8.60532,14.04127c-0.51233,1.36513 -1.02236,2.73127 -1.50648,4.10616c1.25871,-1.34723 2.85916,-2.57404 3.92352,-3.64538c4.60261,-4.63281 9.20521,-9.26562 13.80782,-13.89842c1.36432,-1.37328 2.70865,-3.0606 4.22875,-4.25649c0.53015,-0.41708 1.12817,-1.35639 1.72949,-1.05073c0.86146,0.43789 0.86709,1.72732 1.30064,2.59098c0.74597,2.90404 -1.92273,6.39414 -3.20241,9.03807c-2.37422,4.90537 -4.80104,9.59739 -7.55861,14.16724c0.8505,-0.80557 1.66511,-1.56273 2.29877,-2.25038c6.28968,-6.82554 12.72094,-13.50221 19.16903,-20.17805c1.27474,-1.31976 4.98336,-6.80034 7.22229,-2.96988c0.47079,0.80545 -0.57026,1.77884 -0.92712,2.64084c-0.75484,1.82336 -1.82089,3.59059 -2.71376,5.35122c-3.44573,6.79458 -6.83432,13.16837 -11.03744,19.37329c4.31873,-4.63051 8.69482,-9.20954 13.03223,-13.82027c1.28311,-1.3743 2.56622,-2.74861 3.84934,-4.12291c2.05693,-2.92785 4.01865,-6.30024 7.22471,-7.78965c0.60855,-0.27224 1.21709,-0.54448 1.82564,-0.81672l1.80588,-0.80788c0.12978,-0.06157 0.27493,-0.09602 0.42813,-0.09602c0.55228,0 1,0.44772 1,1c0,0.15534 -0.03542,0.3024 -0.09862,0.43356l-0.81916,1.801l-0.10504,-0.04778c-1.37424,4.69974 -3.57128,9.19082 -6.14024,13.52749c5.80854,-2.71236 11.61709,-5.42472 17.42563,-8.13708l1.79302,-0.83727c0.13334,-0.06585 0.28347,-0.10286 0.44224,-0.10286c0.51395,0 0.93734,0.38771 0.99364,0.88661c1.11908,-1.36435 2.25263,-2.30164 4.53058,-1.89346c0.92236,0.16528 2.28584,-0.07283 2.74264,0.71642c1.40538,-1.10561 2.81194,-2.20971 4.21771,-3.31483l1.5656,-1.23076c0.17116,-0.13712 0.38838,-0.21913 0.62475,-0.21913c0.254,0 0.48589,0.0947 0.66227,0.25072c0.57628,-1.02867 1.21105,-2.01409 1.93838,-2.92516l1.24736,-1.55176c0.18314,-0.23179 0.46674,-0.38054 0.78508,-0.38054c0.52672,0 0.95833,0.40723 0.99716,0.92402l0.17049,1.98297l-0.18478,0.01589c0.00881,0.05067 0.01743,0.10129 0.02587,0.15185l0.68101,-0.67143c0.18058,-0.17824 0.42867,-0.28827 0.70245,-0.28827c0.55228,0 1,0.44772 1,1c0,0.05455 -0.00437,0.10808 -0.01277,0.16026l-0.28373,1.96226l-0.11307,-0.01635c0.02597,2.73216 -0.22811,5.74544 -1.06671,8.03191c-0.56389,1.53747 -1.40537,3.07665 -2.3594,4.59741c-0.08625,0.35442 -0.17355,0.71207 -0.26137,1.07335c-0.49946,2.05485 -0.9991,4.10966 -1.49898,6.16441c1.03934,-2.19361 2.16547,-4.3319 3.54686,-6.05105c1.10146,-1.37078 2.62489,-2.59359 4.09687,-3.77661c1.32657,-2.43295 2.71756,-4.83628 4.20736,-7.19943c0.35553,-0.56395 0.71106,-1.1279 1.06659,-1.69186l1.05748,-1.6774c0.17543,-0.28848 0.49273,-0.48116 0.85504,-0.48116c0.55228,0 1,0.44772 1,1c0,0.15709 -0.03622,0.30572 -0.10077,0.438l-0.82841,1.79695l-0.22778,-0.10501c-0.50587,1.76828 -1.21447,3.48312 -1.99536,5.17456c0.08451,0.14672 0.13286,0.31691 0.13286,0.49839c0,0.0381 -0.00213,0.0757 -0.00628,0.11268l-0.1973,1.97674l-0.10947,-0.01093c0.11575,2.74243 -0.03601,5.72271 -0.71757,8.1431c-1.03888,3.6893 -3.36104,7.44878 -5.23773,10.99043zM413.25219,241.32826c-2.47172,3.27453 -4.09668,7.99893 -5.9912,11.59292c-0.34934,0.66271 -0.69868,1.32542 -1.04801,1.98813c-0.08772,0.36 -0.17546,0.71999 -0.2632,1.07998c0.51084,-0.88052 0.98815,-1.69957 1.3253,-2.3975c1.98809,-4.11553 3.93018,-8.21881 5.97712,-12.26352zM409.84128,225.52091c-0.00893,-0.45424 0.00674,-0.90184 0.06541,-1.33915c-0.7717,1.00861 -1.43028,2.11708 -2.02581,3.27312c0.06146,-0.06135 0.12309,-0.1225 0.18489,-0.18343c0.59184,-0.58351 1.18367,-1.16702 1.77551,-1.75053zM388.08348,245.81406c-2.76254,3.43622 -5.42837,6.93154 -7.69911,10.58018c-0.65194,1.04754 -1.10121,2.44884 -1.58198,3.85228c0.80459,-0.97991 1.56587,-1.98778 2.22294,-3.0518c2.35272,-3.79356 4.70543,-7.58711 7.05815,-11.38067zM405.02596,233.76727c-0.07418,0.16256 -0.14887,0.32424 -0.2242,0.48488c-1.92911,4.1137 -4.35245,8.25991 -5.57921,12.63615c-0.52258,1.86421 -0.95329,4.93751 -1.72991,7.61242c2.90599,-4.15366 5.40206,-8.60511 8.05225,-12.92841c0.82199,-1.34092 1.88592,-2.76264 2.86698,-4.21618c0.49033,-2.00798 0.98254,-4.01548 1.47758,-6.02226c0.25462,-1.03218 0.22552,-2.11117 0.14173,-3.19158c-0.18708,0.18445 -0.37417,0.36891 -0.56125,0.55336c-1.5861,1.56378 -3.05547,3.27213 -4.44397,5.07163zM402.38203,262.17675c-0.8607,1.63278 -1.7214,3.26556 -2.58209,4.89833c-0.92166,1.74843 -1.7512,3.63184 -2.79789,5.30771c-0.26889,0.43052 -0.7481,1.78702 -0.34078,1.48415c0.88681,-0.6594 1.1133,-1.91629 1.7858,-2.79321c1.43012,-1.86481 2.85836,-3.73108 4.28908,-5.59543c-0.49951,-0.05573 -0.88788,-0.4794 -0.88788,-0.99379c0,-0.08945 0.01175,-0.17617 0.03378,-0.25867c0.0202,-0.0828 0.47977,-1.9663 0.49998,-2.0491zM405.68705,261.64328c0.26267,-0.5748 0.52558,-1.1495 0.7887,-1.7241c-0.60016,1.1066 -1.25339,2.17753 -2.00027,3.18929l0.05705,0.03239c0.3845,-0.49945 0.76931,-0.99867 1.15452,-1.49758zM274.66958,213.20198c0.02405,-0.0212 0.04811,-0.04238 0.07219,-0.06353l-0.03274,-0.02091c-0.01309,0.02815 -0.02624,0.0563 -0.03945,0.08443zM318.83907,221.45347c0.03534,-0.0761 0.06802,-0.15158 0.0978,-0.22638c0.09411,-0.23639 0.06917,-0.80605 -0.17718,-0.74244c-0.41807,0.10794 -0.49868,0.71513 -0.82264,1.00058c-0.10116,0.08913 -0.20406,0.17714 -0.30852,0.26414c0.14332,-0.03149 0.28384,-0.06387 0.42103,-0.09747c0.14794,-0.03623 0.43174,-0.10922 0.78953,-0.19842zM301.67057,232.27361c0.14268,-0.12496 0.2856,-0.24973 0.42873,-0.37431c-0.02621,-0.03025 -0.05063,-0.06209 -0.07311,-0.09535c-0.11834,0.15683 -0.23689,0.31339 -0.35563,0.46966zM313.24313,233.31094c2.78965,-2.80037 5.75435,-5.36726 8.76173,-7.95635c-0.11241,-0.49996 -0.21282,-0.99895 -0.29672,-1.49568c-0.07381,-0.43697 0.3325,-1.10149 -0.04804,-1.32861c-0.38054,-0.22712 -0.77255,0.44593 -1.19219,0.58839c-0.14892,0.05056 -0.29965,0.09491 -0.45155,0.13526c-0.85074,1.44917 -2.05499,2.83301 -2.54558,3.57787c-1.41752,2.15223 -2.81902,4.31786 -4.22765,6.47912zM302.89326,234.24496c-1.80513,1.76424 -3.64962,3.46592 -5.64324,4.93997c-0.13301,0.13609 -0.26306,0.27366 -0.38962,0.41283l0.0482,0.05028l-0.52411,0.50242c-0.24145,0.29746 -0.46498,0.60261 -0.66591,0.91671c-1.00845,1.57641 -1.98166,3.67159 -3.24813,5.04477c-0.27936,0.3029 -1.26429,0.28278 -1.05794,0.63944c0.20636,0.35666 0.68024,-0.50538 1.08164,-0.59847c2.08433,-0.48337 3.07853,-0.79945 5.06052,-1.8757c3.04243,-1.65208 6.17823,-3.21366 9.24433,-4.87299c3.07599,-4.50455 6.00244,-9.11896 9.00152,-13.67249c0.37444,-0.56852 0.89517,-1.20742 1.41411,-1.86617c-1.27395,0.23382 -2.67581,0.44908 -3.81668,0.87478l-0.94503,0.85601c-3.1848,2.88481 -6.37228,5.76665 -9.55966,8.6486zM314.3146,234.83804c2.93127,-2.08808 5.62107,-4.37086 8.51894,-6.32154c-0.09973,-0.34738 -0.19822,-0.69558 -0.29396,-1.04418c-2.2899,1.91973 -4.57983,3.84708 -6.7468,5.88316c-0.51089,0.48003 -1.0013,0.97627 -1.47818,1.48256zM324.3414,225.95965c0.12978,0.4122 0.28413,0.85683 0.44612,1.31945c1.36716,-0.80734 2.79764,-1.52228 4.33351,-2.09553c0.96883,-2.01273 2.09131,-3.83909 3.62513,-4.993c-0.78601,0.51508 -1.80857,0.51389 -2.69977,0.81203c-1.1369,0.38033 -2.7866,2.46201 -3.69838,3.24865c-0.66396,0.57284 -1.33388,1.14144 -2.00661,1.7084zM327.86724,228.0068c-0.79142,0.40347 -1.63596,0.76425 -2.4429,1.14724c0.31928,1.01203 0.57539,2.02018 0.61445,2.89326c0.64663,-1.22904 1.2292,-2.62664 1.82845,-4.0405zM268.4354,218.62228c-0.5907,0.61326 -1.17467,1.23281 -1.75398,1.85734c0.41339,-0.41244 0.83471,-0.81899 1.26181,-1.22126c0.16412,-0.21188 0.32815,-0.42392 0.49218,-0.63608z" fill="#001026" stroke="none" stroke-width="0.5"></path><path d="M445.56429,239.08055c-0.05596,0.11923 -0.11176,0.23904 -0.16742,0.35939c-0.5456,2.50416 -1.73742,4.8922 -3.08134,7.21678c-1.90588,4.57957 -3.94874,9.26987 -6.69534,13.06713l0.18075,0.08614l-0.85086,1.78539c-0.15659,0.34775 -0.50617,0.58985 -0.91229,0.58985c-0.55228,0 -1,-0.44772 -1,-1c0,-0.11088 0.01805,-0.21754 0.05136,-0.31721l0.58302,-1.88876c1.76944,-5.7323 3.31729,-11.47333 4.77498,-17.29244c0.47948,-1.91411 0.82259,-4.05638 1.33659,-6.10839c-0.62633,1.15562 -1.25372,2.31066 -1.88448,3.46386c-4.15892,7.60359 -8.31784,15.20717 -12.47676,22.81076c-1.51553,2.77079 -2.85701,6.56846 -4.92052,8.94856c-0.48445,0.55877 -1.09743,0.98604 -1.75704,1.3442l-1.59276,1.19274c-0.1684,0.12899 -0.37902,0.20564 -0.60754,0.20564c-0.55228,0 -1,-0.44772 -1,-1c0,-0.0853 0.01068,-0.16811 0.03078,-0.24716c0.01844,-0.07956 0.48359,-2.08612 0.50203,-2.16567c-0.97358,0.07207 -1.06209,-0.90795 -1.06209,-0.90795c-0.20675,-2.31298 -0.58109,-5.47932 0.02238,-7.75661c1.30767,-4.93468 4.6331,-9.56998 6.51165,-14.32342c1.46012,-3.69465 2.62917,-7.5353 3.93859,-11.28654c0.32256,-0.92408 0.66273,-1.83145 0.97951,-2.7414c0.32763,-1.42241 0.66578,-2.8285 1.13398,-4.20653c0.02622,-0.16516 0.04992,-0.33126 0.07089,-0.49839l0.01009,-0.07858l-0.16583,-0.03608l0.42105,-1.93526c0.09015,-0.45965 0.49522,-0.80643 0.98128,-0.80643c0.55228,0 1,0.44772 1,1c0,0.04865 -0.00347,0.0965 -0.01019,0.14329l-0.25269,1.96778c-0.09957,0.75989 -0.24801,1.4984 -0.42996,2.22441c-0.27581,2.63542 -1.48933,5.76672 -2.07788,7.6436c-2.75157,8.77482 -5.74569,17.48305 -7.82282,26.44342c-0.41956,1.80992 -0.83913,3.61984 -1.25869,5.42976c0.31381,-0.30174 0.64493,-0.59293 0.92412,-0.91495c1.5537,-1.79207 2.57399,-4.75335 3.71724,-6.8435c4.47884,-8.18848 8.95767,-16.37695 13.43651,-24.56543c1.19141,-2.1782 2.37076,-4.36297 3.55365,-6.54581l0.94316,-1.74044c0.16623,-0.32165 0.50191,-0.54152 0.88894,-0.54152c0.50388,0 0.92071,0.37267 0.98991,0.85742l0.31422,1.95896l-0.47185,0.07569c0.20841,2.67922 -0.73104,5.05839 -1.48943,8.08591c-0.69841,2.78808 -1.40724,5.56365 -2.14504,8.3298c0.39833,-0.72672 0.79667,-1.45344 1.195,-2.18016c1.26696,-2.69694 2.53421,-5.39374 3.8027,-8.08996l0.72156,-1.81563c0.14124,-0.3809 0.50788,-0.65234 0.93791,-0.65234c0.55228,0 1,0.44772 1,1c0,0.08963 -0.01179,0.1765 -0.03391,0.25916l-0.46974,1.92112l-0.26135,-0.0639l-0.04433,0.11155l-0.02596,-0.01032zM416.81196,266.96282c0.18837,-0.8126 0.37674,-1.6252 0.56511,-2.4378c0.73597,-3.17485 1.58551,-6.31859 2.49845,-9.44492c-1.16439,2.24582 -2.25409,4.51211 -2.89065,6.84349c-0.39063,1.43068 -0.3175,3.31866 -0.17291,5.03923z" fill="#001026" stroke="none" stroke-width="0.5"></path><path d="M288.07582,238.52085c-1,0 -1,-1 -1,-1l0.01956,-1.59147c0.9604,-2.36904 1.79911,-5.61047 2.99088,-8.26061c-3.78083,5.1045 -7.61855,11.14468 -12.37539,15.30143l0.15833,0.12733l-1.24776,1.55147c-0.18315,0.23167 -0.46667,0.38033 -0.78491,0.38033c-0.55228,0 -1,-0.44772 -1,-1c0,-0.18183 0.04853,-0.35232 0.13334,-0.49924l0.5558,-1.00701c2.55157,-4.623 4.79826,-9.33095 7.02954,-14.11605c0.73222,-1.57029 2.09192,-3.54441 2.46564,-5.23153c0.11503,-0.51929 0.13674,-1.07267 0.21171,-1.60564c-4.05191,4.07458 -7.1576,9.48974 -11.30042,13.46344c-0.01371,0.02264 -0.0274,0.04524 -0.04107,0.06782l-0.04418,0.073l0.14773,0.10957l-1.18424,1.59674c-0.1817,0.25081 -0.47698,0.41396 -0.81037,0.41396c-0.55228,0 -1,-0.44772 -1,-1c0,-0.19537 0.05602,-0.37765 0.15288,-0.53165l1.02714,-1.69716c2.77493,-4.58504 4.94166,-9.2627 7.12536,-14.15442c0.50589,-1.13325 0.80455,-2.4482 1.17173,-3.68022c-2.04128,2.73641 -3.98046,5.53501 -5.92775,8.34445c-1.08931,1.57159 -2.10762,2.57786 -2.34138,4.4855c0,0 -0.14051,0.99008 -1.13059,0.84956c-0.99008,-0.14051 -0.84956,-1.13059 -0.84956,-1.13059c0.80978,-5.17078 6.52626,-10.99506 9.69505,-15.1329l1.20939,-1.57923c0.18241,-0.24325 0.4731,-0.40064 0.80055,-0.40064c0.55228,0 1,0.44772 1,1c0,0.00814 -0.0001,0.01626 -0.00029,0.02436l-0.0418,1.99614l-0.34879,-0.0073c-0.0424,3.15475 -1.08119,6.42189 -2.52881,9.5858c1.22192,-1.41737 2.49642,-2.80137 3.86147,-4.16687l1.41397,-1.41444c0.18097,-0.18104 0.43103,-0.29302 0.70723,-0.29302c0.55217,0 0.99981,0.44753 1,0.99966c0,0.00001 0,0.00003 0,0.00004l0.00069,1.99996c0.10621,0.75772 0.1323,1.51562 -0.02298,2.21661c-0.40544,1.83034 -1.81023,3.93832 -2.60568,5.64421c-0.95221,2.04206 -1.90746,4.07028 -2.88767,6.084c2.83713,-3.61488 5.67181,-7.23174 8.5204,-10.83757l0.09839,-0.05147l-0.01811,-0.02207l1.54063,-1.26416c0.1734,-0.14451 0.39645,-0.23144 0.63982,-0.23144c0.55228,0 1,0.44772 1,1c0,0.055 -0.00444,0.10897 -0.01298,0.16156l-0.28613,1.96182l-0.28477,-0.04153c-0.43862,3.61936 -2.07398,6.75559 -3.62115,10.3116l0.01956,1.19787c0,0 0,1 -1,1z" fill="#ffea00" stroke="none" stroke-width="0.5"></path><path d="M305.31945,254.78914c-0.99709,-0.07619 -0.92091,-1.07328 -0.92091,-1.07328l0.07852,-1.02762c0.45021,-5.66068 3.10806,-11.45269 4.81437,-16.86284c0,0 0.30079,-0.95369 1.25448,-0.65291c0.95369,0.30079 0.65291,1.25448 0.65291,1.25448c-1.65135,5.23589 -4.32805,10.93405 -4.72757,16.41365l-0.07852,1.02762c0,0 -0.07619,0.99709 -1.07328,0.92091z" fill="#ffea00" stroke="none" stroke-width="0.5"></path><path d="M315.33512,250.5832c-0.97517,-0.22144 -0.75373,-1.19662 -0.75373,-1.19662l0.07589,-0.33422c1.1672,-5.14 2.44356,-10.21095 3.86198,-15.28731c0,0 0.26911,-0.96311 1.23222,-0.694c0.96311,0.26911 0.694,1.23222 0.694,1.23222c-1.40964,5.04496 -2.67788,10.08378 -3.83785,15.19198l-0.07589,0.33422c0,0 -0.22144,0.97517 -1.19662,0.75373z" fill="#ffea00" stroke="none" stroke-width="0.5"></path><path d="M323.67758,253.84354c-0.9813,-0.19249 -0.78881,-1.17379 -0.78881,-1.17379l0.23283,-1.18695c1.13664,-5.79452 1.93276,-11.52071 2.76047,-17.35672c0,0 0.14053,-0.99008 1.13061,-0.84954c0.99008,0.14053 0.84954,1.13061 0.84954,1.13061c-0.83384,5.86965 -1.63481,11.63259 -2.77802,17.46063l-0.23283,1.18695c0,0 -0.19249,0.9813 -1.17379,0.78881z" fill="#ffea00" stroke="none" stroke-width="0.5"></path><path d="M336.05979,259.40081c-0.95986,-0.2805 -0.67936,-1.24035 -0.67936,-1.24035l0.4164,-1.42492c1.48835,-5.09313 2.79885,-10.20872 3.71525,-15.43581c0,0 0.17268,-0.98498 1.15766,-0.81229c0.98498,0.17268 0.81229,1.15766 0.81229,1.15766c-0.92917,5.29996 -2.25641,10.48736 -3.76549,15.65143l-0.4164,1.42492c0,0 -0.2805,0.95986 -1.24035,0.67936z" fill="#ffea00" stroke="none" stroke-width="0.5"></path><path d="M348.21712,258.2107c-0.93199,-0.36249 -0.5695,-1.29448 -0.5695,-1.29448l0.71775,-1.84541c2.65862,-6.83557 5.11313,-13.8012 8.07481,-20.5108c0,0 0.40393,-0.91479 1.31872,-0.51086c0.91479,0.40393 0.51086,1.31872 0.51086,1.31872c-2.95114,6.68118 -5.39275,13.62052 -8.04041,20.42791l-0.71775,1.84541c0,0 -0.36249,0.93199 -1.29448,0.5695z" fill="#ffea00" stroke="none" stroke-width="0.5"></path><path d="M360.99135,259.39816c-0.9572,-0.28942 -0.66778,-1.24662 -0.66778,-1.24662l0.45883,-1.51746c1.87437,-6.19905 3.15716,-12.56035 4.60417,-18.8718c0,0 0.22347,-0.97471 1.19818,-0.75124c0.97471,0.22347 0.75124,1.19818 0.75124,1.19818c-1.45723,6.35603 -2.75156,12.76079 -4.63919,19.00371l-0.45883,1.51746c0,0 -0.28942,0.9572 -1.24662,0.66778z" fill="#ffea00" stroke="none" stroke-width="0.5"></path><path d="M370.47284,264.98078c-0.96113,-0.2761 -0.68502,-1.23723 -0.68502,-1.23723l0.02023,-0.07043c2.37547,-8.26906 4.74475,-16.53989 7.13925,-24.80345c0,0 0.27832,-0.96049 1.23881,-0.68217c0.96049,0.27832 0.68217,1.23881 0.68217,1.23881c-2.39408,8.26209 -4.76293,16.53145 -7.13797,24.79903l-0.02023,0.07043c0,0 -0.2761,0.96113 -1.23723,0.68502z" fill="#ffea00" stroke="none" stroke-width="0.5"></path><path d="M380.56462,268.67727c-0.9385,-0.34527 -0.59323,-1.28378 -0.59323,-1.28378l0.4784,-1.30036c2.30209,-6.25737 4.50822,-12.48043 6.43044,-18.8654c0,0 0.28827,-0.95755 1.24582,-0.66927c0.95755,0.28827 0.66927,1.24582 0.66927,1.24582c-1.93373,6.42322 -4.15268,12.68464 -6.46853,18.97941l-0.4784,1.30036c0,0 -0.34527,0.9385 -1.28378,0.59323z" fill="#ffea00" stroke="none" stroke-width="0.5"></path><path d="M397.32293,259.80142c-0.89559,-0.44488 -0.45071,-1.34047 -0.45071,-1.34047l0.06793,-0.13675c1.69898,-3.42024 4.49665,-8.10093 4.44625,-11.97042c0,0 0,-1 1,-1c1,0 1,1 1,1c-0.04313,4.2765 -2.77553,9.07645 -4.65507,12.86017l-0.06793,0.13675c0,0 -0.44488,0.89559 -1.34047,0.45071z" fill="#ffea00" stroke="none" stroke-width="0.5"></path><path d="M404.10969,263.0949c-0.93483,-0.35511 -0.57972,-1.28993 -0.57972,-1.28993l0.16126,-0.42453c1.36994,-3.60641 2.74453,-7.13619 3.73276,-10.8663c0,0 0.2561,-0.96665 1.22275,-0.71055c0.96665,0.2561 0.71055,1.22275 0.71055,1.22275c-1.00611,3.79762 -2.40186,7.39312 -3.79641,11.06431l-0.16126,0.42453c0,0 -0.35511,0.93483 -1.28993,0.57972z" fill="#ffea00" stroke="none" stroke-width="0.5"></path><path d="M218.65608,215.11002c-0.83372,0.55218 -1.38591,-0.28154 -1.38591,-0.28154l-0.75759,-1.30109c-0.39033,0.43277 -0.79258,0.85422 -1.21096,1.26124c-0.05479,0.07757 -0.10959,0.15513 -0.16438,0.2327l-0.02014,0.03201l0.15673,0.12249l-1.22534,1.56785c-0.18277,0.23844 -0.4705,0.39219 -0.79415,0.39219c-0.55228,0 -1,-0.44772 -1,-1c0,-0.20126 0.05945,-0.38863 0.16175,-0.54551l1.03905,-1.65114l0.00743,0.00468l0.00702,-0.02698c1.81152,-2.5663 3.55928,-5.389 5.41454,-8.12798c0.14358,-0.62361 0.20176,-1.27615 0.45698,-1.86212c0.16457,-0.37785 1.09488,-0.68194 0.7858,-0.95455c-0.30908,-0.27262 -0.49565,0.68667 -0.84897,0.89884c-0.09614,0.05773 -0.19339,0.11386 -0.29147,0.1688c-3.42921,4.09893 -6.79308,8.24967 -10.16643,12.39663l-1.01964,1.25348c-0.18325,0.22898 -0.46509,0.37563 -0.78117,0.37563c-0.55228,0 -1,-0.44772 -1,-1c0,-0.20113 0.05938,-0.3884 0.16157,-0.54522l1.05648,-1.68019l0.20053,0.12609c0.02148,-0.02642 0.04296,-0.05284 0.06444,-0.07925c0.44338,-0.98776 0.9527,-1.92651 1.50188,-2.85381c-0.73073,0.55975 -1.47374,1.0723 -2.23095,1.51059c-0.16733,0.09686 -0.39419,0.17099 -0.65691,0.22746c-0.52193,0.58562 -1.04314,1.17175 -1.5629,1.75898l-0.7077,0.79957c-0.18329,0.20909 -0.45235,0.3411 -0.75225,0.3411c-0.55228,0 -1,-0.44772 -1,-1v-2h0.02296c0.00227,-0.09904 0.00945,-0.1982 0.02233,-0.29753c0.04751,-0.36643 0.2659,-0.82661 0.57568,-1.32645c-0.23721,-0.18285 -0.39004,-0.46982 -0.39004,-0.79249c0,-0.20196 0.05987,-0.38994 0.16283,-0.54716l1.06068,-1.67771l0.17615,0.11137c2.1776,-5.1682 6.01475,-10.04817 9.18225,-14.51181l1.14122,-1.60822c0.18042,-0.26119 0.48191,-0.43233 0.82337,-0.43233c0.40407,0 0.75217,0.23966 0.9099,0.58459l0.82135,-1.10232c0.18181,-0.24972 0.47644,-0.41203 0.80897,-0.41203c0.55228,0 1,0.44772 1,1c0,0.206 -0.06229,0.39746 -0.16906,0.55656l-0.76974,1.18583c-3.16007,4.86829 -6.3589,9.82215 -9.75166,14.59139c2.00049,-2.22965 3.9924,-4.46742 5.92423,-6.75121c2.11181,-2.49655 3.86845,-5.08632 6.14297,-7.26404c0.03791,-0.05856 0.07583,-0.11712 0.11376,-0.17566l0.05029,-0.07761l-0.15648,-0.12593l1.24825,-1.5511c0.18315,-0.23152 0.46658,-0.38007 0.78471,-0.38007c0.55228,0 1,0.44772 1,1c0,0.20572 -0.06212,0.39693 -0.16863,0.5559l-1.07966,1.66634c-1.40288,2.16519 -2.78861,4.34126 -4.16654,6.5223c0.14256,-0.05482 0.29627,-0.112 0.45757,-0.17007c0.27923,-0.33066 0.55911,-0.66077 0.83971,-0.99029c1.79849,-2.11201 3.4017,-4.15668 5.3673,-5.93704l-0.18061,-0.1538l1.29228,-1.51756c0.18344,-0.21817 0.4584,-0.35682 0.76574,-0.35682c0.55228,0 1,0.44772 1,1c0,0.14122 -0.02927,0.27561 -0.08209,0.39742l-0.56381,1.38724c-0.08382,0.20624 -0.1638,0.4184 -0.24187,0.6343c1.81649,-2.33294 3.73865,-4.76039 5.94063,-6.21718c0.04941,-0.06345 0.09882,-0.1269 0.14823,-0.19035l0.05943,-0.07632l-0.16602,-0.21991l0.91581,-0.69137c0.16888,-0.13032 0.38059,-0.20785 0.6104,-0.20785c0.55228,0 1,0.44772 1,1c0,0.23483 -0.08094,0.45076 -0.21645,0.6214l-0.62518,0.80284c-2.79869,3.59402 -5.59953,7.18633 -8.40253,10.77696c-0.55101,1.84098 -0.5134,3.69727 -1.03719,5.51923c-0.11456,0.39849 -0.86129,0.74344 -0.61825,1.07937c0.22308,0.30834 0.49994,-0.60125 0.83872,-0.77463c0.83312,-0.42639 1.76637,-1.3715 2.6244,-0.99777c1.30069,0.56654 0.01873,4.90824 -0.13971,5.73218c-0.12589,0.65467 -0.21308,1.31799 -0.37766,1.96402c-0.11282,0.44287 -0.79753,1.64285 -0.56636,1.24861c1.12156,-1.91271 3.50295,-3.1564 5.03849,-4.7183c1.26583,-1.28757 2.23339,-2.46502 3.32203,-3.55694c0.19941,-0.27105 0.39686,-0.54201 0.59202,-0.81294l0.02001,-0.00311l-0.0112,-0.00858l0.0329,-0.04297l-0.08577,-0.07384l1.30078,-1.51087c0.18342,-0.21558 0.45672,-0.35234 0.76195,-0.35234c0.55228,0 1,0.44772 1,1c0,0.2321 -0.07907,0.44574 -0.21175,0.61543l-1.20348,1.57175c-4.11807,5.71743 -9.47757,11.49407 -12.76983,17.71059c-0.77794,1.46892 -1.01026,3.36288 -1.55833,5.01819c2.62175,-2.65346 5.04292,-5.55148 7.37927,-8.52859c0.02175,-0.0458 0.04688,-0.08967 0.07506,-0.13132l1.08815,-1.66117l0.14682,0.09617c2.90817,-6.61437 8.25684,-12.65588 12.88959,-17.92959l1.31633,-1.49845c0.18334,-0.21085 0.45356,-0.34415 0.75491,-0.34415c0.55228,0 1,0.44772 1,1c0,0.19701 -0.05697,0.38072 -0.15534,0.53554l-1.03554,1.69236l-0.22802,-0.13953c-0.49777,1.12655 -1.09215,2.19749 -1.75155,3.23196c1.55533,-1.8037 3.1855,-3.50832 4.99427,-4.97974l-0.15757,-0.13634l1.30467,-1.50779c0.18341,-0.2144 0.45594,-0.35029 0.76021,-0.35029c0.55228,0 1,0.44772 1,1c0,0.20196 -0.05987,0.38994 -0.16283,0.54716l-0.53968,0.85363c-2.83773,4.48522 -6.21997,8.67235 -9.38884,12.93003c-0.24597,0.33048 -0.4556,0.68762 -0.64502,1.05812c1.99553,-2.4662 3.98224,-5.00523 6.27994,-7.09073l-0.18734,-0.14889l1.2385,-1.55828c0.18301,-0.23447 0.46828,-0.38523 0.78876,-0.38523c0.55228,0 1,0.44772 1,1c0,0.19529 -0.05598,0.3775 -0.15276,0.53146l-0.69425,1.14774c-2.76387,4.56876 -5.72869,9.02131 -8.61385,13.51444c-1.22596,1.90922 -3.50335,4.32627 -4.20231,6.46533c-0.11396,0.34875 -0.15482,0.72267 -0.20107,1.09345c1.16953,-1.28028 2.28615,-2.55422 3.36158,-3.8371c-0.26797,-0.679 0.38226,-1.13714 0.38226,-1.13714c0.56219,-0.39329 1.08453,-0.82067 1.58069,-1.27224c0.42297,-0.53448 0.84022,-1.07209 1.25256,-1.61387c-0.0469,0.00674 -0.09485,0.01024 -0.14361,0.01024c-0.55228,0 -1,-0.44772 -1,-1c0,-0.238 0.08314,-0.45658 0.22197,-0.62828l1.23858,-1.55985c3.07867,-3.87723 6.17068,-8.36115 9.80081,-11.99166l0.63978,-0.96104c0.17799,-0.27603 0.48817,-0.45879 0.84103,-0.45879c0.00654,0 0.01307,0.00006 0.01959,0.00019c0.12419,-0.11069 0.24903,-0.22025 0.37454,-0.32862l-0.14287,-0.12166l1.29229,-1.51756c0.18344,-0.21816 0.4584,-0.35681 0.76574,-0.35681c0.55228,0 1,0.44772 1,1c0,0.12322 -0.02229,0.24124 -0.06305,0.35024l-0.61775,1.77771c-1.00729,2.87044 -2.58349,5.44953 -4.40636,7.86667c-1.80513,3.81121 -4.30166,7.39037 -6.6438,10.7712c-2.54124,3.66821 -4.91818,7.53786 -7.82877,10.92286l-1.30084,1.51082c-0.18342,0.21556 -0.45671,0.3523 -0.76193,0.3523c-0.55228,0 -1,-0.44772 -1,-1c0,-0.18675 0.05119,-0.36155 0.14031,-0.51112l0.983,-1.72154l0.2172,0.12402c0.56476,-1.43179 1.26422,-2.79726 2.01975,-4.14384c-0.27659,0.30808 -0.55599,0.61626 -0.83837,0.92474l-1.34789,1.47246c-0.18293,0.20123 -0.44679,0.32756 -0.74016,0.32756c-0.54769,0 -0.99254,-0.44029 -0.99991,-0.98623l-0.03144,-1.99778c-0.11037,-0.72042 -0.14251,-1.41413 0.01268,-1.90728c0.73628,-2.33972 3.11261,-4.92636 4.44286,-6.99799c0.36376,-0.5665 0.72881,-1.13234 1.09458,-1.69785c-0.15791,0.17402 -0.31614,0.34801 -0.47468,0.52201l-1.34434,1.47543c-0.18299,0.20231 -0.44758,0.32943 -0.74185,0.32943c-0.55228,0 -1,-0.44772 -1,-1c0,-0.13389 0.02631,-0.26163 0.07405,-0.37834l0.70559,-1.84685l0.25479,0.09734c0.32926,-1.18787 0.77264,-2.32573 1.30099,-3.42636c-1.89847,2.09086 -3.88407,4.06448 -6.01368,5.72206l-1.57348,1.21991c-0.02997,0.0237 -0.06133,0.04573 -0.09394,0.06593c-2.84404,3.65796 -5.79553,7.22962 -9.13817,10.36293l-1.45744,1.36617c-0.17902,0.16867 -0.42025,0.27203 -0.68562,0.27203c-0.55228,0 -1,-0.44772 -1,-1c0,-0.12101 0.0215,-0.23701 0.06088,-0.34437l0.63706,-1.8712l0.18641,0.06347c1.1124,-5.39368 3.95957,-10.23528 7.24597,-14.82748c-0.83619,0.61585 -1.83708,0.96886 -2.57645,-0.64013c-0.55089,-1.19882 0.78973,-5.18814 1.04821,-6.52241c0.04685,-0.24185 0.06234,-0.49377 0.10298,-0.73769c-0.79848,0.84079 -2.06598,1.48093 -3.11042,0.66429c-0.75828,-0.5929 -0.1273,-1.92415 -0.09411,-2.88614c0.01792,-0.51959 0.06213,-1.03812 0.12812,-1.55433c-0.33616,0.43025 -0.67235,0.86048 -1.00857,1.29068c-0.46905,0.60016 -0.92662,1.20458 -1.38143,1.80685c-0.51285,1.31783 -1.14936,2.58058 -1.87331,3.69761l0.76067,0.92296c0,0 0.55218,0.83372 -0.28154,1.38591zM222.61432,199.85469c-0.38193,0.39581 -0.75506,0.78405 -1.08413,1.17048c-0.10682,0.12544 -0.21356,0.25095 -0.32023,0.37651c0.11094,0.00698 0.19331,0.02955 0.23994,0.07068c0.05402,0.04765 0.09988,0.09891 0.13843,0.15337l0.54861,-1.05186l0.18728,0.09768c0.0933,-0.2743 0.19019,-0.54627 0.29009,-0.81685zM244.92745,224.56412c0.18924,-0.29015 0.37704,-0.58036 0.56338,-0.87045c-0.04515,0.0508 -0.09031,0.10154 -0.13549,0.15219c-0.14288,0.23919 -0.28551,0.47861 -0.42789,0.71826z" fill="#a7a686" stroke="none" stroke-width="0.5"></path></g></g></svg>