<svg version="1.1" xmlns="http://www.w3.org/2000/svg" xmlns:xlink="http://www.w3.org/1999/xlink" width="79.57395" height="130.50982" viewBox="0,0,79.57395,130.50982"><g transform="translate(-199.30672,-79.02674)"><g data-paper-data="{&quot;isPaintingLayer&quot;:true}" fill-rule="nonzero" stroke="none" stroke-width="0.5" stroke-linecap="butt" stroke-linejoin="miter" stroke-miterlimit="10" stroke-dasharray="" stroke-dashoffset="0" style="mix-blend-mode: normal"><path d="M223.37482,174.06275c-1.38032,0 -2.52312,-1.01696 -2.72002,-2.34249l-0.56105,-3.36631l0.01295,-0.00216l-0.01803,-0.02941c-0.02757,-0.19306 -0.05817,-0.38612 -0.09103,-0.57908c-0.19381,0.0433 -0.39534,0.06614 -0.60221,0.06614c-1.42744,0 -2.60086,-1.08757 -2.73684,-2.47929l-0.27902,-2.51115c-0.1073,-0.85833 -0.41124,-3.29631 -0.69133,-5.52651c-1.37491,-0.0059 -2.51163,-1.02079 -2.70796,-2.34247l-0.56105,-3.36631l0.01262,-0.0021l-0.01769,-0.02946c-0.14636,-1.0246 -1.2284,-8.35924 -1.15772,-8.97981c0.00267,-0.02341 0.0054,-0.0468 0.0082,-0.07019l-0.01369,0.00091l-0.28246,-4.23687c-0.00522,-0.06921 -0.00787,-0.13913 -0.00787,-0.20968c0,-0.61797 0.20383,-1.18833 0.54793,-1.64751c-0.1838,-1.73453 -0.27166,-3.46314 0.02055,-5.1698c0.0089,-0.05197 0.01807,-0.10388 0.0275,-0.15573l-0.02327,-0.00129l0.28324,-5.09829c0.07013,-1.45632 1.27308,-2.61551 2.74677,-2.61551c1.09781,0 2.04537,0.64327 2.48632,1.57345l1.63505,3.2701c1.63605,2.6202 3.25643,5.304 4.6281,8.09511c0.24461,-3.46681 0.59955,-6.9328 1.06997,-10.48885l0.13799,-0.19993l-0.0792,-0.02437l1.11866,-3.63565c0.16974,-0.6008 0.53854,-1.11806 1.03065,-1.47606c0.00189,-0.49025 0.00301,-0.98022 0.00301,-1.46983v-5.5c0,-0.90735 0.43943,-1.71206 1.11709,-2.21293c0.01959,-2.07369 0.00629,-4.14787 0.01988,-6.22165v-4.5411c0,-1.03752 0.57456,-1.94084 1.42285,-2.40915c0.0063,-0.05756 0.01154,-0.11493 0.01558,-0.17208l0.05549,-0.10459l-0.04074,-0.00627l0.56199,-3.65293c0.18331,-1.34092 1.33326,-2.37405 2.72452,-2.37405c0.41408,0 0.80679,0.09152 1.159,0.25544c0.24399,-2.51124 0.51716,-5.0226 0.84379,-7.55478l0.08016,-2.81029c0.0365,-1.48701 1.25336,-2.68123 2.74916,-2.68123c1.36736,0 2.50164,0.99795 2.71422,2.30524l0.55991,3.07948l-0.02284,0.00415c0.01404,0.0369 0.0278,0.07394 0.04128,0.11111c0.1199,0.33068 0.23925,1.42628 0.34857,2.81376c0.20002,-0.04629 0.4084,-0.07075 0.62249,-0.07075c1.36736,0 2.50164,0.99795 2.71422,2.30524l0.96323,5.29776c1.43365,3.67791 2.32804,7.86299 3.0795,12.0104c0.02156,-0.0005 0.04317,-0.00075 0.06485,-0.00075c1.4006,0 2.55664,1.04706 2.72808,2.40112l0.7721,5.4047c0.93338,2.38694 1.0603,5.44418 1.19859,8.32085c0.63673,0.44442 1.07657,1.15143 1.16251,1.96402l0.65109,5.42576l-0.01336,0.0016c0.00712,0.02397 0.01418,0.04796 0.02119,0.07197c0.89506,3.06716 0.6575,6.34618 0.93367,9.53833c0.62045,0.2192 1.13873,0.65473 1.46424,1.21597c0.60441,0.35502 1.06118,0.93438 1.25591,1.62369c0.16135,-1.78343 0.33225,-3.5664 0.49228,-5.3506l0.17903,-0.28128l-0.09486,-0.03162l1.6854,-5.05619c0.34559,-1.12372 1.39187,-1.94053 2.62893,-1.94053c1.4006,0 2.55664,1.04706 2.72808,2.40112l0.71437,5.00061c0.08321,-0.00758 0.1675,-0.01145 0.25269,-0.01145c1.47369,0 2.67664,1.15919 2.74677,2.61551l0.28324,5.09829l-0.46093,0.02561c0.34691,1.62763 0.52387,3.21836 0.74426,5.52163c0.52836,0.50114 0.85786,1.20988 0.85786,1.99558v5.5h-0.11605c0.48061,2.46805 0.47493,4.96536 -0.68721,7.26572c-0.9214,1.82384 -2.2821,3.39827 -3.58354,4.97359c-1.00823,1.2204 -1.76786,3.11003 -3.32593,3.38989c-0.85103,0.15286 -1.67496,-0.07624 -2.49009,-0.42944c-0.25269,2.34724 -2.26285,6.45262 -2.77331,6.64155c-1.47273,0.54508 -2.298,-2.50449 -3.85515,-2.70783c-0.74473,-0.09725 -0.36951,1.49952 -0.82502,2.09667c-1.07884,1.41429 -1.93097,3.70326 -3.70442,3.84114c-2.11775,0.16465 -3.80098,-1.92417 -5.55573,-3.12119c-3.05354,-2.08299 -4.56089,-4.40403 -7.77933,-6.17082c-0.72084,-0.39571 -1.45154,0.00617 -2.20073,0.57156c-0.42463,0.9706 -1.39344,1.64878 -2.52064,1.64878c-0.06915,0 -0.13771,-0.00255 -0.20558,-0.00757c-0.12554,0.01198 -0.25177,0.00983 -0.37873,-0.00885c-1.54649,-0.22761 -2.5278,-1.75789 -3.68389,-2.88533c-0.49556,0.72243 -1.32711,1.1963 -2.26935,1.1963c-0.63933,0 -1.2277,-0.21817 -1.69473,-0.58412c-0.0969,0.01033 -0.19531,0.01563 -0.29496,0.01563z" fill="#7d00ff"></path><path d="M243.42433,143.62043c0.04717,0.47732 0.09324,0.95478 0.13785,1.43241c0.31891,2.71405 0.9702,6.46261 0.68737,9.17702c0.01885,0.35617 0.03441,0.71249 0.04529,1.06903c0.02847,0.93295 -0.79232,2.18325 -0.09058,2.79869c0.68261,0.59866 1.76291,-0.51252 2.67055,-0.53603c1.85772,-0.04811 3.71191,0.19236 5.56567,0.32272c1.49642,0.10524 10.49922,0.74432 11.69124,1.43464c0.16557,0.09589 0.32514,0.19917 0.47943,0.30898l0.03386,-0.05322l3.0876,1.96484c0.78747,0.48372 1.31265,1.35299 1.31265,2.34492c0,0.86621 -0.40049,1.63888 -1.0264,2.14295c2.36922,2.05872 4.55467,4.68649 3.51086,8.02523c-0.61222,1.95824 -3.9681,1.13663 -6.01138,1.32243c-3.31997,0.30189 -8.01594,-0.61642 -11.25967,-1.11448c-1.54729,-0.23758 -3.16044,-0.22066 -4.6724,-0.59534c-0.81993,1.82669 -1.96413,4.36689 -3.90717,4.33562c-7.40238,-0.11914 -3.09374,-5.08064 -6.79234,-7.19072c-0.43807,-0.24992 -0.89873,0.47869 -1.27532,0.81418c-0.72542,0.64625 -1.3326,1.41419 -2.00894,2.11164c-0.35294,0.36395 -0.6396,0.84465 -0.96718,1.25552l-0.0053,0.0416l-0.02557,-0.00326c-0.02334,0.02872 -0.0469,0.05706 -0.07073,0.08496c0.01013,0.08693 0.02025,0.17385 0.03038,0.26078l-0.25274,0.27378l0.14401,0.0576l-1.11318,2.78294c-0.38998,1.04443 -1.39669,1.78815 -2.5771,1.78815c-1.39602,0 -2.54909,-1.04023 -2.72637,-2.38786l-2.15088,2.15088c-0.49765,0.49765 -1.18515,0.80546 -1.94454,0.80546c-1.51878,0 -2.75,-1.23122 -2.75,-2.75c0,-0.49588 0.13125,-0.96111 0.36091,-1.36284l1.69179,-3.0976l0.04831,0.02638l0.02231,-0.14817c1.1891,-1.73188 2.19278,-3.49026 3.33361,-5.07639c-0.84536,0.4139 -1.66772,0.80856 -2.49844,1.19305l0.20838,0.31258l-4.54499,3.02999c-0.44263,0.30449 -0.97885,0.48272 -1.55671,0.48272c-1.51878,0 -2.75,-1.23122 -2.75,-2.75c0,-0.39597 0.08369,-0.77239 0.23434,-1.11254c-0.12411,0.02542 -0.25063,0.0421 -0.37993,0.0486c-0.18729,0.00941 -0.37391,0.01054 -0.55994,0.00442l0.00937,0.10308l-3.09238,0.28113c-0.09312,0.00953 -0.18761,0.01441 -0.28324,0.01441c-1.38443,0 -2.52993,-1.02303 -2.72175,-2.35435c-1.15697,-0.06566 -2.19347,-0.18232 -3.24732,-0.38253v0.46295h-3.4109v0c-1.51878,0 -2.75,-1.23122 -2.75,-2.75c0,-1.25905 0.84612,-2.32048 2.00075,-2.6467l3.63565,-1.11866l0.00307,0.00997l0.02473,-0.01836c1.48886,-0.42399 8.20234,-2.33898 8.38559,-2.36896c2.42075,-0.39603 8.93459,-0.30207 11.43951,-0.30243c0,0 2.75,0 2.75,2.75c0,0.18763 -0.0128,0.36245 -0.03666,0.52535c0.40902,-0.19366 0.84064,-0.40187 1.29699,-0.63055l0.04153,-0.00731l-0.00468,-0.0101l1.33102,-0.61691c-0.09952,-1.37703 -0.04395,-2.77014 0.50204,-3.88067l-0.09687,-1.44978l0.0172,-0.00115c-0.00737,-0.03012 -0.01464,-0.06028 -0.02179,-0.09047c-1.03019,-4.3496 0.0416,-11.14818 0.22802,-15.59971l0.05485,-4.41876c0.01271,-1.19572 0.78855,-2.20844 1.86354,-2.57421c0.15595,-2.93884 0.37453,-6.34964 0.38694,-6.5568c0.40744,-6.80004 1.11471,-13.55977 1.37608,-20.3676l0.02085,-0.04917l-0.01751,-0.00132l0.35531,-4.713c0.09417,-1.43347 1.28671,-2.56702 2.74401,-2.56702c1.46058,0 2.65522,1.13866 2.74463,2.57672l0.28262,3.95673l-0.00195,0.00014c0.00087,0.0031 0.00174,0.0062 0.00261,0.0093c0.7656,2.72962 0.78096,6.73223 0.90288,10.2244c0.24975,0.34334 0.42199,0.7467 0.49098,1.18437l0.84455,4.78581l-0.03513,0.0062c0.02188,0.06732 0.04315,0.13489 0.06379,0.20272c0.5541,1.82115 0.0877,3.80614 0.12956,5.70925c0.12027,5.46732 0.13547,10.95807 0.4,16.42053c0.00358,0.07396 0.0079,0.14971 0.01291,0.22717zM239.39155,164.10122c-0.26454,0.44602 -0.50519,0.8501 -0.70892,1.19249c0.26227,-0.00993 0.52897,0.00054 0.80002,0.03381c0.20264,-0.34215 0.47733,-0.6366 0.80317,-0.86244c-0.29915,-0.11669 -0.59726,-0.2379 -0.89427,-0.36385zM238.14994,146.77375c-0.14713,0.90726 -0.32055,1.81575 -0.49873,2.72102l0.11257,1.57601c0.23085,1.29987 0.16454,2.71469 0.5232,3.96929c0.17963,-0.32745 0.29736,-0.55484 0.32931,-0.64271c0.02474,-0.06802 0.0471,-0.13641 0.06722,-0.20512c-0.11322,-1.58224 -0.16165,-2.99019 -0.2111,-3.79045c-0.07187,-0.40122 -0.13376,-0.80068 -0.16176,-1.19474c-0.0576,-0.81079 -0.11117,-1.62191 -0.16072,-2.4333z" fill="#be82ff"></path><path d="M214.07441,177.87297c1.45521,0.3638 1.09141,1.81902 1.09141,1.81902l-0.24767,0.9299c-0.23422,2.22424 -0.40835,3.94298 -0.77603,5.71003l0.35044,0.01593l-0.13585,2.98873c-0.00565,0.14374 -0.03152,0.28228 -0.07486,0.41286c-0.10978,0.87581 -0.28271,1.74354 -0.50027,2.6022l0.23349,0.01796l-0.22908,2.97798c-0.05237,0.78092 -0.7024,1.39814 -1.4966,1.39814c-0.25138,0 -0.48832,-0.06184 -0.69643,-0.17113c-0.2608,0.44262 -0.74235,0.73961 -1.29326,0.73961c-0.08339,0 -0.16519,-0.0068 -0.24488,-0.01989c-0.05648,0.24133 -0.17123,0.46024 -0.3286,0.64108c0.16623,2.55731 0.20787,4.78608 -0.17078,7.16575l0.41866,0.02326l-0.16586,2.98553c-0.03825,0.79435 -0.69441,1.42664 -1.49824,1.42664c-0.74904,0 -1.36985,-0.54903 -1.48195,-1.26661l-0.2564,-1.46557c-1.53276,-8.76187 -2.45625,-17.60102 -4.00244,-26.36279c0,0 -0.26068,-1.47718 1.2165,-1.73785c1.47718,-0.26068 1.73785,1.2165 1.73785,1.2165c0.71892,4.07387 1.3032,8.16449 1.87671,12.25626c0.08363,-0.03842 0.1714,-0.06938 0.26246,-0.09201v-0.97575v0c0,-0.82843 0.67157,-1.5 1.5,-1.5c0.44749,0 0.84921,0.19595 1.12404,0.50673c0.25226,-0.28002 0.60851,-0.4645 1.00792,-0.49262c0.00904,-0.14364 0.02095,-0.28594 0.03537,-0.42631l0.02798,-1.64763c0.00266,-0.18271 0.03799,-0.35751 0.10041,-0.51883l0.0372,-0.81846l0.38513,0.01751c-0.76011,-1.78794 -0.19411,-3.55596 0.0538,-5.9207l0.32082,-1.34404c0,0 0.3638,-1.45521 1.81902,-1.09141z" fill="#7d00ff"></path><path d="M278.88067,193.82449c0,0.66113 -0.2914,1.03087 -0.61733,1.23764c-0.28968,0.86193 -0.53789,1.5891 -0.80508,2.29771l0.24413,0.04578l-0.54795,2.92239c-0.1191,0.70933 -0.73605,1.24979 -1.47923,1.24979c-0.82843,0 -1.5,-0.67157 -1.5,-1.5v-2.47423c-0.03936,-0.26372 -0.07055,-0.53272 -0.0912,-0.80418c-0.14942,0.22545 -0.35815,0.40817 -0.60394,0.52592v1.04704c0,0.82843 -0.67157,1.5 -1.5,1.5c-0.82843,0 -1.5,-0.67157 -1.5,-1.5c0,-0.18949 0,-2.65292 0,-2.84241c0,-1.51595 0,-3.03191 0,-4.54786c0,0 0,-1.5 1.5,-1.5c0.10977,0 0.21151,0.00803 0.3058,0.02292c0.08529,-0.01507 0.17307,-0.02292 0.26268,-0.02292c0.69042,0 1.27189,0.46645 1.44646,1.10141c0.23718,-0.15716 0.52163,-0.24868 0.82747,-0.24868c0.76065,0 1.38906,0.56618 1.4868,1.3001l0.18345,1.22302l0.88792,-0.53343c0,0 1.5,0 1.5,1.5z" fill="#7d00ff"></path></g></g></svg>