<svg version="1.1" xmlns="http://www.w3.org/2000/svg" xmlns:xlink="http://www.w3.org/1999/xlink" width="171.0491" height="76.68672" viewBox="0,0,171.0491,76.68672"><g transform="translate(-107.29427,-141.65664)"><g data-paper-data="{&quot;isPaintingLayer&quot;:true}" fill="#1000af" fill-rule="nonzero" stroke="#070054" stroke-width="2.5" stroke-linecap="butt" stroke-linejoin="miter" stroke-miterlimit="10" stroke-dasharray="" stroke-dashoffset="0" style="mix-blend-mode: normal"><path d="M252.07719,166.65944c0,7.58979 -25.15784,13.74251 -56.19162,13.74251c-31.03377,0 -56.19162,-6.15274 -56.19162,-13.74251c0,-7.58979 25.15784,-13.74251 56.19162,-13.74251c31.03377,0 56.19162,6.15274 56.19162,13.74251z"></path><path d="M202.90664,180c0,-20.4861 16.60726,-37.09336 37.09336,-37.09336c20.4861,0 37.09336,16.60726 37.09336,37.09336c0,20.4861 -16.60726,37.09336 -37.09336,37.09336c-20.4861,0 -37.09336,-16.60726 -37.09336,-37.09336z"></path><path d="M212.37659,189.56363c0,8.77042 -23.24366,15.88024 -51.91616,15.88024c-28.6725,0 -51.91616,-7.10982 -51.91616,-15.88024c0,-8.77042 23.24366,-15.88024 51.91616,-15.88024c28.6725,0 51.91616,7.10982 51.91616,15.88024z"></path></g></g></svg>