<svg version="1.1" xmlns="http://www.w3.org/2000/svg" xmlns:xlink="http://www.w3.org/1999/xlink" width="65.875" height="65.875" viewBox="0,0,65.875,65.875"><g transform="translate(-207.0625,-147.0625)"><g data-paper-data="{&quot;isPaintingLayer&quot;:true}" fill-rule="nonzero" stroke-linejoin="miter" stroke-miterlimit="10" stroke-dasharray="" stroke-dashoffset="0" style="mix-blend-mode: normal"><path d="M207.0625,180c0,-18.19088 14.74662,-32.9375 32.9375,-32.9375c18.19088,0 32.9375,14.74662 32.9375,32.9375c0,18.19088 -14.74662,32.9375 -32.9375,32.9375c-18.19088,0 -32.9375,-14.74662 -32.9375,-32.9375z" fill="#000000" stroke="none" stroke-width="0" stroke-linecap="butt"></path><path d="" data-paper-data="{&quot;index&quot;:null}" fill="#ffffff" stroke="none" stroke-width="0" stroke-linecap="round"></path><path d="" data-paper-data="{&quot;index&quot;:null}" fill="#ffffff" stroke="#ffffff" stroke-width="1.5" stroke-linecap="round"></path><path d="" data-paper-data="{&quot;index&quot;:null}" fill="#ffffff" stroke="#ffffff" stroke-width="1.5" stroke-linecap="round"></path><path d="M229.94039,181.70468c0,-3.79114 3.07332,-6.86446 6.86446,-6.86446c3.79114,0 6.86446,3.07332 6.86446,6.86446c0,3.79114 -3.07332,6.86446 -6.86446,6.86446c-3.79114,0 -6.86446,-3.07332 -6.86446,-6.86446z" fill="#ffffff" stroke="#ffffff" stroke-width="1.5" stroke-linecap="butt"></path><path d="M239.07885,184.16695c0,0 -3.84517,1.39463 -4.79211,0.89272" data-paper-data="{&quot;index&quot;:null}" fill="#ffffff" stroke="#ffffff" stroke-width="1.5" stroke-linecap="round"></path><path d="M231.58502,176.76891l5.29655,2.01494l5.19049,-1.75212c0,0 0.71491,1.35278 0.90974,2.02259c0.1871,0.6432 0.47185,1.82183 0.47185,1.82183l-6.57209,2.81365l-7.05493,-3.10536c0,0 0.32433,-1.1865 0.53694,-1.8037c0.22881,-0.66424 1.22144,-2.01183 1.22144,-2.01183z" fill="#ffffff" stroke="#ffffff" stroke-width="0.5" stroke-linecap="round"></path><path d="M236.05448,180.61268c0.87055,0.94937 -0.46435,0.51358 -1.24463,0.51358c-0.78028,0 -1.41283,-1.54074 -1.41283,-1.54074c0,0 1.78691,0.07779 2.65746,1.02716z" fill="#ffffff" stroke="#ffffff" stroke-width="0" stroke-linecap="butt"></path><path d="M240.23904,179.59554c0,0 -0.63254,1.54074 -1.41283,1.54074c-0.78028,0 -2.11518,0.43579 -1.24463,-0.51358c0.87055,-0.94937 2.65746,-1.02716 2.65746,-1.02716z" data-paper-data="{&quot;index&quot;:null}" fill="#ffffff" stroke="#ffffff" stroke-width="0" stroke-linecap="butt"></path><path d="M227.16433,184.2512" fill="#ffffff" stroke="#ffffff" stroke-width="4" stroke-linecap="round"></path><path d="M222.60627,194.03396l4.73248,-4.73248" fill="none" stroke="#ffffff" stroke-width="1.5" stroke-linecap="round"></path><path d="M225.76125,196.35869l4.73248,-4.73248" fill="none" stroke="#ffffff" stroke-width="1.5" stroke-linecap="round"></path><path d="M228.25203,198.84947l6.06089,-6.06089" fill="none" stroke="#ffffff" stroke-width="1.5" stroke-linecap="round"></path><path d="M252.08048,168.29591c0,-1.88001 1.52405,-3.40406 3.40406,-3.40406c1.88001,0 3.40406,1.52405 3.40406,3.40406c0,1.88001 -1.52405,3.40406 -3.40406,3.40406c-1.88001,0 -3.40406,-1.52405 -3.40406,-3.40406z" fill="#ffffff" stroke="#ffffff" stroke-width="1.5" stroke-linecap="butt"></path><path d="M265.19858,162.73317l-2.15867,4.81551l-1.32842,-0.16605l-2.15867,-4.4834z" fill="#ffffff" stroke="#ffffff" stroke-width="1.5" stroke-linecap="round"></path><path d="M263.37201,170.95274c0,0.5961 -0.52041,1.07934 -1.16236,1.07934c-0.64196,0 -1.16236,-0.48324 -1.16236,-1.07934c0,-0.5961 0.52041,-1.07934 1.16236,-1.07934c0.64196,0 1.16236,0.48324 1.16236,1.07934z" fill="#ffffff" stroke="#ffffff" stroke-width="1.5" stroke-linecap="butt"></path><g fill="none" stroke="#ffffff" stroke-width="2" stroke-linecap="round"><path d="M238.49867,191.74253c0,0 7.45681,-8.66773 13.1127,-13.1127c5.65588,-4.44496 -0.34709,3.08019 -0.34709,3.08019"></path><path d="M245.94416,183.74111l2.45897,-2.4273"></path><path d="M254.35023,177.67485c1.32139,1.20655 0.25567,3.79185 -1.55575,5.2444"></path></g></g></g></svg>