<svg version="1.1" xmlns="http://www.w3.org/2000/svg" xmlns:xlink="http://www.w3.org/1999/xlink" width="104.34183" height="80.5" viewBox="0,0,104.34183,80.5"><g transform="translate(-191.82251,-139.75)"><g data-paper-data="{&quot;isPaintingLayer&quot;:true}" fill-rule="nonzero" stroke-linejoin="miter" stroke-miterlimit="10" stroke-dasharray="" stroke-dashoffset="0" style="mix-blend-mode: normal"><g><path d="M200.48735,194.25941c2.04893,-0.61805 4.1115,0.21228 4.60691,1.85464c0.4954,1.64234 -0.76396,3.47472 -2.81289,4.09276c-2.04893,0.61805 -4.1115,-0.21228 -4.60691,-1.85464c-0.4954,-1.64234 0.76396,-3.47472 2.81289,-4.09276z" fill="none" stroke="#000000" stroke-width="0.5" stroke-linecap="butt"></path><path d="M202.43247,196.81228c0,0 -4.49933,-10.57163 -3.93521,-13.0459c0.37895,-1.66219 3.37757,-2.79987 3.37757,-2.79987c0,0 2.49533,-1.30903 4.0422,0.56174c4.7131,5.69992 5.32414,17.65036 5.32414,17.65036l-17.23305,5.19826l-1.56251,-5.17999l5.26566,-1.58836z" fill="#989898" stroke="#000000" stroke-width="1" stroke-linecap="round"></path><path d="M205.30184,189.87684l3.59021,-1.08296l1.09955,3.64517l-3.59021,1.08296z" fill="#00f6ff" stroke="none" stroke-width="0" stroke-linecap="butt"></path><path d="M206.26989,194.8175l3.59021,-1.08296l1.09955,3.64517l-3.59021,1.08296z" fill="#00f6ff" stroke="none" stroke-width="0" stroke-linecap="butt"></path><path d="M203.85506,185.08053l3.59021,-1.08296l1.09955,3.64517l-3.59021,1.08296z" fill="#00f6ff" stroke="none" stroke-width="0" stroke-linecap="butt"></path></g><path d="M204.82949,180c0,-21.81525 17.68475,-39.5 39.5,-39.5c21.81525,0 39.5,17.68475 39.5,39.5c0,21.81525 -17.68475,39.5 -39.5,39.5c-21.81525,0 -39.5,-17.68475 -39.5,-39.5z" fill="#d8d8d8" stroke="#000000" stroke-width="1.5" stroke-linecap="butt"></path><path d="M226.58224,167.20295l9,1v8" fill="none" stroke="#000000" stroke-width="1.5" stroke-linecap="round"></path><path d="M244.1816,175.68819v-8l9,-1" data-paper-data="{&quot;index&quot;:null}" fill="none" stroke="#000000" stroke-width="1.5" stroke-linecap="round"></path><path d="M249.57949,197.70833c0,0 -3.1365,0.94081 -8.75493,1.37635c-3.47652,0.2695 -7.16174,-1.20968 -7.16174,-1.20968" fill="none" stroke="#000000" stroke-width="1.5" stroke-linecap="round"></path><g><path d="M284.83735,200.96354c0.26661,-2.12343 2.20414,-3.62868 4.32756,-3.36205c2.12343,0.26661 3.62868,2.20414 3.36205,4.32756c-0.26661,2.12343 -2.20414,3.62868 -4.32756,3.36205c-2.12343,-0.26661 -3.62868,-2.20414 -3.36205,-4.32756z" fill="none" stroke="#000000" stroke-width="0.5" stroke-linecap="butt"></path><path d="M288.69829,200.31449c0,0 -14.29325,-0.53021 -16.86756,-2.1179c-1.7294,-1.06659 -1.60712,-4.27577 -1.60712,-4.27577c0,0 -0.31458,-2.82829 2.57263,-3.41386c8.79694,-1.78416 22.82082,2.8654 22.82082,2.8654l-2.24248,17.85977l-6.69741,-0.84093l0.6852,-5.45716z" fill="#989898" stroke="#000000" stroke-width="1" stroke-linecap="round"></path><path d="M282.09654,194.69828l0.46718,-3.72079l4.713,0.59177l-0.46718,3.72079z" fill="#00f6ff" stroke="none" stroke-width="0" stroke-linecap="butt"></path><path d="M288.23555,195.97301l0.46718,-3.72079l4.713,0.59177l-0.46718,3.72079z" fill="#00f6ff" stroke="none" stroke-width="0" stroke-linecap="butt"></path><path d="M275.89524,193.91963l0.46718,-3.72079l4.713,0.59177l-0.46718,3.72079z" fill="#00f6ff" stroke="none" stroke-width="0" stroke-linecap="butt"></path></g></g></g></svg>