<svg version="1.1" xmlns="http://www.w3.org/2000/svg" xmlns:xlink="http://www.w3.org/1999/xlink" width="36.52074" height="35.38639" viewBox="0,0,36.52074,35.38639"><g transform="translate(-223.81263,-153.06431)"><g data-paper-data="{&quot;isPaintingLayer&quot;:true}" fill-rule="nonzero" stroke="none" stroke-width="0.5" stroke-linecap="butt" stroke-linejoin="miter" stroke-miterlimit="10" stroke-dasharray="" stroke-dashoffset="0" style="mix-blend-mode: normal"><path d="M234.28527,185.74433l-0.07363,-0.02403l-0.07695,0.00881l-1.17669,-0.15508l-0.10109,-0.03991l-0.10864,0.00312l-0.70601,-0.15509l-0.24711,-0.1228l-0.27095,-0.05223l-1.33356,-0.62035l-0.31165,-0.25222l-0.34963,-0.19621l-1.72581,-1.62843l-0.10458,-0.16336l-0.1527,-0.11962l-1.56892,-2.01616l-0.03089,-0.06986l-0.05721,-0.05061l-1.46447,-2.13337l-0.03444,-0.01585l-0.21334,-0.61735l-0.22802,-0.61208l0.01649,-0.03414l-0.15287,-1.73777l0.07617,-0.48042l-0.06656,-0.17843l0.14126,-0.29271l0.05089,-0.32101l0.15643,-0.10861l0.21141,-0.43808l2.19647,-2.63651l0.16971,-0.12406l0.12143,-0.17161l1.74329,-1.49849l0.01098,-0.03445l0.60222,-0.29503l0.59939,-0.30074l0.03407,0.01211l2.8239,-0.60356l0.89084,0.03067l0.15179,-0.05107l0.11517,0.06027l0.12991,0.00447l0.10677,0.11937l0.78977,0.41327l0.67148,0.59739l0.02927,0.00425l0.04258,0.05966l0.01908,0.01698l0.53164,-0.92844l0.87777,-4.64832l-0.58285,-1.34436l-1.45909,-0.9916l-2.47176,-0.41716h-0.73188l-1.25,-0.3125l-1.25,-2.1875l1.25,-2.1875l1.25,-0.3125l1.70526,0l7.13389,-1.01781l0.00165,-0.00168l0.0093,0.00012l0.28872,-0.04119l0.49387,0.05118l0.49648,0.00634l0.28201,0.07434l0.00925,0.00096l0.00145,0.00186l4.41403,1.16356l0.01989,0.01093l0.04817,-0.01224l0.52192,0.32569l0.53909,0.29641l0.01284,0.04801l0.01925,0.01201l1.64736,1.70598l0.25033,0.43424l0.16463,0.09874l0.07033,0.30886l0.1582,0.27443l-0.05374,0.1843l0.11129,0.48871l-0.065,3.08379l1.45301,-3.58947l-0.21899,-2.38114l-0.21332,-0.46393l-0.05592,-0.29713l-0.15948,-0.34286l0.06402,-0.16443l-0.08691,-0.46183l0.58567,-0.81922l0.3513,-0.90231l0.33241,-0.05406l0.19586,-0.27397l0.96452,0.08525l0.99398,-0.16166l0.3754,0.28269l0.17577,0.01554l0.23658,0.29498l0.24152,0.18188l0.3051,0.37701l0.69722,0.84237l0.06739,0.14079l0.11343,0.10722l2.69204,4.21342l0.12481,0.37218l0.18799,0.34461l0.75957,2.92067l0.00374,0.39519l0.07197,0.3886l-0.47069,7.59935l-0.08685,0.27412l-0.01307,0.28725l-1.01978,3.41196l-0.06495,0.10949l-0.01845,0.12596l-1.88271,4.57512l-0.24353,0.33027l-0.18734,0.36509l-3.53005,4.03231l-0.27712,0.19234l-0.22824,0.2484l-1.88269,1.24072l-0.17988,0.06317l-0.14858,0.11946l-2.35337,1.08562l-0.40078,0.07593l-0.38311,0.14006l-2.19648,0.23264l-0.31422,-0.04411l-0.31578,0.03097l-1.53287,-0.22729l-1.92498,-0.22834l-0.11691,-0.04441l-0.125,0.00359l-1.41202,-0.31018l-0.04764,-0.02368l-0.0532,-0.00068l-1.10105,-0.29024l-0.3155,-0.06238l-0.40382,-0.19019l-0.4253,-0.13551l-0.62757,-0.38773l-0.70272,-0.72123zM243.30018,183.259l1.25474,0.18605l1.4709,-0.15579l1.80811,-0.83409l1.44284,-0.95085l3.0341,-3.46579l1.67734,-4.07607l0.90179,-3.01719l0.4283,-6.915l-0.12151,-0.46724l-0.85472,2.11147l-0.27483,0.37724l-0.22973,0.40628l-3.36228,3.54041l-0.00632,0.03261l-0.06353,0.04095l-0.01102,0.0116l-0.50524,0.32116l-0.5032,0.32434l-0.01515,0.00515l-0.06379,0.04055l-0.03226,-0.00791l-2.39907,0.81521l-0.66855,0.05534l-0.13578,0.07759l-0.10142,-0.05796l-0.37832,0.03131l-0.79098,-0.69949l-0.91678,-0.52387l-0.09207,-0.36828l-0.0875,-0.07738l0.02978,-0.15352l-0.1627,-0.65081v-0.62035l0.05828,-0.2331l-0.01312,-0.23992l0.31378,-1.62843l0.07218,-0.15519l0.01372,-0.17061l1.05425,-3.12643l0.04845,-2.29849l-0.43895,-0.45457l-3.54166,-0.9336l-0.27587,0.03936l1.07011,2.46825l0.01876,0.11325l0.069,0.0588l0.03229,0.5528l0.09047,0.5463l-0.05432,0.07257l0.00669,0.1146l-1.09824,5.81583l-0.17407,0.37794l-0.11301,0.40046l-2.29043,3.99995l0.00168,0.03227l-0.05153,0.0548l-0.01308,0.02284l-0.41127,0.42838l-0.40683,0.4326l-0.02214,0.01423l-0.05209,0.05426l-0.03231,-0.00003l-1.46237,0.93961l-1.02506,0.34668l-0.0471,0.03442l-0.02403,-0.01036l-0.12437,0.04206l-1.06363,-0.55448l-1.1014,-0.47506l-0.04587,-0.12302l-0.0232,-0.0121l-0.00303,-0.05825l-0.37806,-1.0139l-0.07845,-0.6979l0.01889,-0.14112l-0.03453,-0.13813v-0.37355l-0.58998,0.1261l-1.16281,0.99953l-1.40326,1.68438l0.00899,0.10214l1.07649,1.56818l1.40528,1.80588l1.29197,1.21908l0.71723,0.33365l0.33327,0.07321l0.99598,0.13127l0.93478,0.066h1.79455c0.42612,0 0.82733,0.10661 1.17843,0.29461l0.07157,0.01789l0.01883,0.03296c0.55751,0.32903 0.97617,0.86828 1.14694,1.5087l0.28931,0.07626l1.24139,0.2727l1.83919,0.21816l0.03497,0.01329z" fill="#008bc2"></path><path d="M243.26782,183.31242l-0.03511,-0.01327l-1.84698,-0.21803l-1.24681,-0.27333l-0.29059,-0.0765c-0.17077,-0.64042 -0.59607,-1.18147 -1.15358,-1.5105l-0.01897,-0.03301l-0.0719,-0.01801c-0.3511,-0.188 -0.75761,-0.29686 -1.18373,-0.29686l-1.80065,-0.00357l-0.93752,-0.06801l-0.99862,-0.1335l-0.33413,-0.07401l-0.71928,-0.33571l-1.29624,-1.22431l-1.4096,-1.81323l-1.079,-1.5745l-0.00909,-0.10249l1.40202,-1.68916l1.16223,-1.00294l0.68911,-0.13932l-0.00027,0.37175l0.03441,0.13744l-0.01901,0.14047l0.07768,0.69459l0.37644,1.00891l0.00293,0.058l0.02317,0.01201l0.04563,0.12243l1.09951,0.47095l1.06081,0.54969l0.12426,-0.04223l0.02396,0.01026l0.0471,-0.03441l1.02397,-0.34822l1.46183,-0.94034l0.03221,-0.0001l-0.02733,0.0065l0.02215,-0.01421l0.40627,-0.43335l0.41062,-0.42928l0.01301,-0.02294l0.05143,-0.05494l-0.00185,-0.03252l2.29754,-4.06465l0.11914,-0.40535l0.18021,-0.38149l1.12013,-5.82089l-0.00673,-0.1146l0.05414,0.02743l-0.08994,-0.5463l-0.03213,-0.5528l-0.06863,-0.0588l-0.01867,-0.11326l-1.06587,-2.46851l0.26676,-0.13894l3.55695,0.93473l0.44127,0.45517l-0.04533,2.29948l-1.0538,3.12659l-0.01332,0.17075l-0.0723,0.15515l-0.31027,1.6299l0.01461,0.24064l-0.05754,0.23348l0.0047,0.62316l0.17123,0.65806l-0.02833,0.15513l0.08922,0.07949l0.09675,0.37559l0.92193,0.53957l0.79138,0.71113l0.2786,-0.03875l0.10147,0.05732l0.13571,-0.07652l0.66851,-0.05435l2.39922,-0.8089l0.03225,0.00784l0.06381,-0.04031l0.01515,-0.00512l0.5034,-0.32259l0.50546,-0.31966l0.01103,-0.01155l0.06356,-0.04077l0.00635,-0.03242l3.36551,-3.52926l0.23016,-0.40528l0.27518,-0.37646l0.85711,-2.10697l0.20809,0.41721l-0.422,6.93758l-0.90288,3.02951l-1.6843,4.09279l-3.04707,3.4793l-1.44877,0.95447l-1.81545,0.83718l-1.47659,0.1573l-1.25969,-0.1853z" data-paper-data="{&quot;noHover&quot;:false,&quot;origItem&quot;:[&quot;Path&quot;,{&quot;applyMatrix&quot;:true,&quot;segments&quot;:[[243.30018,183.259],[244.55491,183.44505],[246.02581,183.28927],[247.83392,182.45518],[249.27676,181.50433],[252.31085,178.03854],[253.9882,173.96247],[254.88998,170.94528],[255.31828,164.03028],[255.19677,163.56304],[254.34205,165.67451],[254.06722,166.05174],[253.8375,166.45802],[250.47522,169.99843],[250.4689,170.03104],[250.40537,170.07199],[250.39435,170.08359],[249.8891,170.40475],[249.3859,170.72909],[249.37075,170.73424],[249.30696,170.77478],[249.27471,170.76687],[246.87564,171.58208],[246.20708,171.63742],[246.0713,171.715],[245.96988,171.65705],[245.59156,171.68836],[244.80058,170.98888],[243.8838,170.465],[243.79173,170.09672],[243.70423,170.01934],[243.73401,169.86581],[243.5713,169.215],[243.5713,168.59465],[243.62958,168.36155],[243.61646,168.12163],[243.93024,166.4932],[244.00242,166.338],[244.01614,166.1674],[245.0704,163.04096],[245.11884,160.74248],[244.67989,160.2879],[241.13823,159.35431],[240.86236,159.39367],[241.93247,161.86192],[241.95123,161.97518],[242.02022,162.03398],[242.05251,162.58678],[242.14298,163.13308],[242.08865,163.20565],[242.09535,163.32025],[240.9971,169.13609],[240.82303,169.51403],[240.71002,169.91448],[238.41959,173.91443],[238.42127,173.9467],[238.36973,174.0015],[238.35666,174.02434],[237.94539,174.45272],[237.53856,174.88531],[237.51642,174.89954],[237.46432,174.9538],[237.43201,174.95377],[235.96964,175.89338],[234.94459,176.24006],[234.89749,176.27448],[234.87346,176.26412],[234.74909,176.30618],[233.68545,175.7517],[232.58405,175.27664],[232.53818,175.15362],[232.51498,175.14153],[232.51195,175.08327],[232.13389,174.06937],[232.05544,173.37147],[232.07433,173.23035],[232.03979,173.09222],[232.03979,172.71867],[231.44981,172.84477],[230.287,173.8443],[228.88374,175.52868],[228.89273,175.63082],[229.96922,177.19901],[231.3745,179.00489],[232.66647,180.22396],[233.3837,180.55761],[233.71697,180.63082],[234.71295,180.76208],[235.64774,180.82809],[[237.44229,180.82809],[0,0],[0.42612,0]],[[238.62072,181.12269],[-0.3511,-0.188],[0,0]],[238.69229,181.14059],[[238.71113,181.17355],[0,0],[0.55751,0.32903]],[[239.85807,182.68225],[-0.17077,-0.64042],[0,0]],[240.14738,182.75851],[241.38877,183.03121],[243.22797,183.24937],[243.26294,183.26265]],&quot;closed&quot;:true}]}" fill="#00b6fe"></path></g></g></svg>