<svg version="1.1" xmlns="http://www.w3.org/2000/svg" xmlns:xlink="http://www.w3.org/1999/xlink" width="580" height="415" viewBox="0,0,580,415"><g transform="translate(50,27.5)"><g data-paper-data="{&quot;isPaintingLayer&quot;:true}" fill-rule="nonzero" stroke-linejoin="miter" stroke-miterlimit="10" stroke-dasharray="" stroke-dashoffset="0" style="mix-blend-mode: normal"><path d="M-50,387.5v-415h580v415z" fill="#989898" stroke="none" stroke-width="0" stroke-linecap="butt"></path><g><g><path d="M355.91083,241.47823c0.10305,-2.55128 1.84437,-4.55251 3.88936,-4.46991c2.045,0.0826 3.61924,2.21776 3.51619,4.76904c-0.10305,2.55128 -1.84437,4.55251 -3.88936,4.46991c-2.045,-0.0826 -3.61924,-2.21776 -3.51619,-4.76904z" fill="none" stroke="#000000" stroke-width="0.5" stroke-linecap="butt"></path><path d="M359.54834,240.28183c0,0 -13.67512,0.94573 -16.24444,-0.65614c-1.72606,-1.07613 -1.83812,-4.90094 -1.83812,-4.90094c0,0 -0.50171,-3.3243 2.21129,-4.33799c8.2661,-3.08855 21.97778,0.88772 21.97778,0.88772l-0.86673,21.45817l-6.45001,-0.26052l0.26483,-6.55667z" fill="#989898" stroke="#000000" stroke-width="1" stroke-linecap="round"></path><path d="M352.84928,234.33943l0.18058,-4.47045l4.53889,0.18333l-0.18058,4.47045z" fill="#00f6ff" stroke="none" stroke-width="0" stroke-linecap="butt"></path><path d="M358.79743,235.17672l0.18058,-4.47045l4.53889,0.18333l-0.18058,4.47045z" fill="#00f6ff" stroke="none" stroke-width="0" stroke-linecap="butt"></path><path d="M346.87707,234.0982l0.18058,-4.47045l4.53889,0.18333l-0.18058,4.47045z" fill="#00f6ff" stroke="none" stroke-width="0" stroke-linecap="butt"></path></g><path d="M354.33549,220.01695c0,-26.02763 21.09956,-47.12719 47.12719,-47.12719c26.02763,0 47.12719,21.09956 47.12719,47.12719c0,26.02763 -21.09956,47.12719 -47.12719,47.12719c-26.02763,0 -47.12719,-21.09956 -47.12719,-47.12719z" fill="#d8d8d8" stroke="#000000" stroke-width="1.5" stroke-linecap="butt"></path><path d="M382.67473,204.74888l10.73784,1.19309v9.54475" fill="none" stroke="#000000" stroke-width="1.5" stroke-linecap="round"></path><path d="M406.45629,216.06565v-9.54475l10.73784,-1.19309" data-paper-data="{&quot;index&quot;:null}" fill="none" stroke="#000000" stroke-width="1.5" stroke-linecap="round"></path><path d="M418.46426,238.36076l-38.47726,2.98273" fill="none" stroke="#000000" stroke-width="1.5" stroke-linecap="round"></path><g><path d="M439.5325,239.72563c0,-2.55334 2.0699,-4.62324 4.62324,-4.62324c2.55334,0 4.62324,2.0699 4.62324,4.62324c0,2.55334 -2.0699,4.62324 -4.62324,4.62324c-2.55334,0 -4.62324,-2.0699 -4.62324,-4.62324z" fill="none" stroke="#000000" stroke-width="0.5" stroke-linecap="butt"></path><path d="M444.0066,238.38341c0,0 -16.99913,1.49687 -20.28258,0c-2.20579,-1.00558 -2.53805,-4.82275 -2.53805,-4.82275c0,0 -0.7928,-3.30136 2.53805,-4.42371c10.14861,-3.41965 27.44115,0 27.44115,0v21.47568h-8.05338v-6.56202z" fill="#989898" stroke="#000000" stroke-width="1" stroke-linecap="round"></path><path d="M435.35668,232.71621v-4.4741h5.66719v4.4741z" fill="#00f6ff" stroke="none" stroke-width="0" stroke-linecap="butt"></path><path d="M442.81352,233.31276v-4.4741h5.66719v4.4741z" fill="#00f6ff" stroke="none" stroke-width="0" stroke-linecap="butt"></path><path d="M427.89985,232.71621v-4.4741h5.66719v4.4741z" fill="#00f6ff" stroke="none" stroke-width="0" stroke-linecap="butt"></path></g></g><g stroke="#000000"><path d="M62.69098,224.79732c-28.47674,0 -51.56169,-23.08495 -51.56169,-51.56169c0,-28.47674 23.08495,-51.56169 51.56169,-51.56169c28.47674,0 51.56169,23.08495 51.56169,51.56169c0,28.47674 -23.08495,51.56169 -51.56169,51.56169z" data-paper-data="{&quot;index&quot;:null}" fill="#d8d8d8" stroke-width="1.5" stroke-linecap="butt"></path><path d="M67.58607,169.6459v-10.44288l11.74823,-1.30536" data-paper-data="{&quot;index&quot;:null}" fill="none" stroke-width="1.5" stroke-linecap="round"></path><path d="M46.70033,157.89767l11.74823,1.30536v10.44288" data-paper-data="{&quot;index&quot;:null}" fill="none" stroke-width="1.5" stroke-linecap="round"></path><path d="M49.31105,197.87429c0,0 9.34507,-11.02127 16.26963,-10.48448c7.10347,0.55066 7.55317,11.78985 7.55317,11.78985z" data-paper-data="{&quot;index&quot;:null}" fill="#040404" stroke-width="1.5" stroke-linecap="round"></path><g data-paper-data="{&quot;index&quot;:null}" stroke-width="1"><path d="M15.46538,160.98414l20.88183,17.75941l-6.97691,8.20357l-20.88183,-17.75941z" fill="#af5400" stroke-linecap="butt"></path><path d="M25.73341,183.76837c0,0 -1.63395,-4.72302 -1.52322,-6.78345c0.123,-2.28881 2.22831,-6.33642 2.22831,-6.33642" fill="none" stroke-linecap="round"></path><path d="M18.95682,177.8337c0,0 3.65707,-2.72788 5.89643,-3.2168c2.0159,-0.44013 6.94,0.41428 6.94,0.41428" data-paper-data="{&quot;index&quot;:null}" fill="none" stroke-linecap="round"></path><path d="M13.62717,172.61554c0,0 3.65707,-2.72788 5.89643,-3.2168c2.0159,-0.44013 6.94,0.41428 6.94,0.41428" data-paper-data="{&quot;index&quot;:null}" fill="none" stroke-linecap="round"></path><path d="M19.53857,178.15711c0,0 -1.63395,-4.72302 -1.52322,-6.78345c0.123,-2.28881 2.22831,-6.33643 2.22831,-6.33643" data-paper-data="{&quot;index&quot;:null}" fill="none" stroke-linecap="round"></path><path d="M36.74324,185.7605c-4.01671,4.72292 -8.29685,7.68076 -9.55995,6.60653c-1.2631,-1.07424 0.96913,-5.77375 4.98584,-10.49668c4.01671,-4.72292 8.29685,-7.68076 9.55995,-6.60653c1.2631,1.07424 -0.96913,5.77375 -4.98584,10.49668z" fill="#8f8f8f" stroke-linecap="butt"></path><path d="M38.66323,181.6254l48.47568,41.2272c0,0 -0.74859,3.3988 -1.71693,4.53742c-0.93314,1.09719 -3.99145,2.17459 -3.99145,2.17459l-48.47568,-41.2272z" fill="#dddddd" stroke-linecap="butt"></path></g></g><text transform="translate(153.90655,215.78185) scale(3.10135,3.10135)" font-size="40" xml:space="preserve" fill="#ff0000" fill-rule="nonzero" stroke="none" stroke-width="1" stroke-linecap="butt" stroke-linejoin="miter" stroke-miterlimit="10" stroke-dasharray="" stroke-dashoffset="0" font-family="Sans Serif" font-weight="normal" text-anchor="start" style="mix-blend-mode: normal"><tspan x="0" dy="0">V.S</tspan></text><g fill="none" stroke="#000000" stroke-width="2" stroke-linecap="round"><path d="M455.68538,31.88117l6.99624,-5.40619l-4.77017,30.84708"></path><path d="M468.08782,33.15322l-4.77017,-7.95029"></path></g><g fill="none" stroke="#000000" stroke-width="2" stroke-linecap="round"><path d="M449.06046,21.75812l6.99624,-5.40619l-4.77017,30.84708"></path><path d="M461.4629,23.03018l-4.77017,-7.95029"></path></g><g fill="none" stroke="#000000" stroke-width="2" stroke-linecap="round"><path d="M439.89145,25.30956l6.99624,-5.40619l-4.77017,30.84708"></path><path d="M452.29389,26.5816l-4.77017,-7.95029"></path></g><g fill="none" stroke="#000000" stroke-width="2" stroke-linecap="round"><path d="M431.35844,20.2747l6.99626,-5.40619l-4.77017,30.84708"></path><path d="M443.7609,21.54674l-4.77017,-7.95029"></path></g><path d="M418.94712,111.34992l12.89963,-69.73342l31.27059,5.78459c0,0 -5.84628,59.52174 -12.89961,69.73342c-7.05333,10.21168 -31.2706,-5.78459 -31.2706,-5.78459z" data-paper-data="{&quot;index&quot;:null}" fill="#9b5b00" stroke="#000000" stroke-width="1" stroke-linecap="butt"></path><g stroke="#000000" stroke-width="1.5"><path d="M350.89436,67.16243c0,-25.69036 20.82614,-46.51651 46.51651,-46.51651c25.69036,0 46.51651,20.82614 46.51651,46.51651c0,25.69036 -20.82614,46.51651 -46.51651,46.51651c-25.69036,0 -46.51651,-20.82614 -46.51651,-46.51651z" fill="#d8d8d8" stroke-linecap="butt"></path><path d="M398.03477,47.90268v9.42107" data-paper-data="{&quot;index&quot;:null}" fill="none" stroke-linecap="round"></path><g fill="none" stroke-linecap="round"><path d="M373.86234,48.60634c0,0 10.5987,-2.9841 10.5987,1.17764c0,4.16173 -10.5987,4.71053 -10.5987,4.71053"></path><path d="M384.42301,49.8937l-8.83225,1.47204"></path></g><path d="M379.01581,84.43564l4.70321,-0.31354" fill="none" stroke-linecap="round"></path></g><path d="" data-paper-data="{&quot;index&quot;:null}" fill="#00c1ff" stroke="none" stroke-width="0.5" stroke-linecap="butt"></path><g data-paper-data="{&quot;index&quot;:null}" stroke-linecap="butt"><path d="M378.54701,20.72269c0,0.85129 -5.6309,3.41933 -12.86098,6.97483c-3.17605,1.56187 -9.45525,2.4003 -12.22215,4.64387c-2.8278,2.29295 -1.95362,5.63744 -1.7197,9.35881c0.11922,1.89684 4.41997,46.43178 6.36412,62.11777c0.04814,0.38839 -0.11542,-0.96598 1.17988,-0.13244c4.46188,2.87128 19.63606,12.53525 19.7767,13.54172c0.01509,0.10802 -4.8492,2.48846 -10.59171,3.63202c-3.50003,0.697 -10.17337,1.30963 -17.45251,0.05986c-9.00374,-1.54587 -18.46296,-5.2004 -18.3732,-6.24259c0.05704,-0.66234 -25.00081,-15.88867 -22.86858,-16.16887c0.07941,-0.01044 -4.47043,-4.95266 -7.799,-10.48789c-3.30191,-5.49089 -3.5756,-18.80881 -3.12629,-19.04979c0.49968,-0.268 12.07233,-21.47264 12.90518,-21.95152c1.06449,-0.61208 13.0866,-15.95349 12.80908,-12.19825c-0.01984,0.26843 4.45381,-0.99056 3.19824,1.23375c-1.91574,3.3938 -11.7028,12.35083 -14.77934,17.55947c-4.15172,7.02893 -7.29534,13.844 -7.1262,14.10067c0.11303,0.17149 -1.43737,6.74514 -1.31169,6.92108c0.37625,0.52666 -0.3551,3.34727 1.03183,6.17525c2.33065,4.75226 5.14277,10.70396 5.2585,10.96577c0.70408,1.59299 18.04737,15.16927 18.51993,15.21766c3.76303,0.38532 8.8905,5.37158 17.57804,8.41817c6.61869,2.32106 17.4896,2.98313 18.55656,2.75907c3.97339,-0.83439 5.90834,-3.14725 5.27288,-3.53691c-6.15799,-3.77622 -11.79078,-4.398 -11.75739,-4.30727c-1.3926,0.51368 -3.94162,-1.19967 -4.73947,-2.87339c-1.71138,-3.59005 -2.4597,-22.3157 -2.63925,-30.9919c-0.08227,-3.97602 -2.53157,-19.11114 -3.40179,-30.69624c-0.56732,-7.55264 0.34322,-13.71174 0.24142,-13.8899c-1.02318,-0.60387 17.94425,-7.15332 17.94425,-8.42743c0,-0.60676 -8.188,-2.51663 -15.61676,-0.45841c-9.44989,2.61819 -20.35857,8.97848 -22.54826,12.59902c-0.98558,1.6296 -5.01595,-0.49618 -4.47732,-0.49618c0.31185,0 15.83678,-10.75633 16.1243,-10.67922c1.51727,-0.60312 9.50868,-4.82734 18.03018,-6.12138c10.00334,-1.51906 20.6205,0.06657 20.6205,2.43078z" fill="#00c1ff" stroke="none" stroke-width="0.5"></path><g fill="none" stroke="#000000" stroke-width="1.5"><path d="M377.99987,117.98161c-28.41135,15.47053 -79.89016,-18.36591 -79.89016,-41.66154c0,-23.29563 38.4445,-63.70223 73.14411,-58.78612c24.55181,3.47841 -17.60469,11.75787 -18.57327,16.61698c-2.07663,10.41782 3.35691,44.4304 4.86679,65.96469c0.4779,6.81596 27.28318,14.14655 20.45253,17.86598z"></path><path d="M325.70502,104.64857c-14.3803,-8.11707 -21.0221,-25.49736 -21.0221,-25.86843c0,-21.24049 28.41753,-60.30074 60.40717,-55.81831c5.97767,0.8376 -16.46561,5.97524 -17.12274,9.23562c-1.91444,9.49877 4.94331,55.29932 6.33528,74.93386c0.44058,6.21466 22.56443,5.50428 16.26724,8.89557c0,0 -4.55194,2.74608 -11.02685,1.72422c-9.91691,-1.56508 -24.34467,-7.74393 -33.838,-13.10253z"></path></g></g><path d="M23.93651,62.06458c0,-25.95553 21.04111,-46.99664 46.99664,-46.99664c25.95553,0 46.99664,21.04111 46.99664,46.99664c0,25.95553 -21.04111,46.99664 -46.99664,46.99664c-25.95553,0 -46.99664,-21.04111 -46.99664,-46.99664z" fill="#d8d8d8" stroke="#000000" stroke-width="1.5" stroke-linecap="butt"></path><path d="M70.09257,58.7959v-10.70957" fill="none" stroke="#000000" stroke-width="1.5" stroke-linecap="round"></path><path d="" data-paper-data="{&quot;index&quot;:null}" fill="none" stroke="#000000" stroke-width="1.5" stroke-linecap="round"></path><path d="M84.90274,92.17315c0,0 -31.01496,-0.04992 -37.37964,-14.31561" data-paper-data="{&quot;index&quot;:null}" fill="none" stroke="#000000" stroke-width="1.5" stroke-linecap="round"></path><path d="M80.09487,59.44535v-10.70957" fill="none" stroke="#000000" stroke-width="1.5" stroke-linecap="round"></path><g data-paper-data="{&quot;index&quot;:null}" stroke="#000000" stroke-width="1"><path d="M102.62151,117.57356l-3.45425,-26.6189l10.45742,-1.35704l3.45425,26.6189z" fill="#e8ff00" stroke-linecap="butt"></path><path d="M115.35189,87.03235l-4.38388,3.36176l-12.02151,1.65417l-5.39676,-2.18673l4.96193,-3.61463l12.67721,-1.23091z" fill="#8f8f8f" stroke-linecap="butt"></path><path d="M99.93632,87.26934l-13.72968,-79.46198l6.62409,-9.54575l8.24323,7.05165l7.41571,80.82314z" fill="#dddddd" stroke-linecap="butt"></path><path d="M96.09293,27.63982l7.90278,58.06508" fill="none" stroke-linecap="round"></path></g><g stroke="#000000" stroke-linecap="butt"><path d="M19.63498,108.16775v-52.49026h49.76163v52.49026c0,0 -20.34052,11.43103 -23.98091,13.47686c-1.07334,0.6032 -2.08471,1.17157 -2.08471,1.17157z" fill="#008c04" stroke-width="1.5"></path><path d="M40.96974,123.71516v-69.24373h5.5566v69.24373z" fill="#00ff08" stroke-width="0"></path><path d="M69.73293,81.09747h-51.29166v-5.5566h51.29166z" fill="#00ff08" stroke-width="0"></path></g><path d="" data-paper-data="{&quot;index&quot;:null}" fill="none" stroke="#000000" stroke-width="1.5" stroke-linecap="round"></path><g><path d="M367.12235,304.69042c0,-27.32123 22.14823,-49.46946 49.46946,-49.46946c27.32123,0 49.46946,22.14823 49.46946,49.46946c0,27.32123 -22.14823,49.46946 -49.46946,49.46946c-27.32123,0 -49.46946,-22.14823 -49.46946,-49.46946z" fill="#d8d8d8" stroke="#000000" stroke-width="1.5" stroke-linecap="butt"></path><path d="M399.71153,325.50733c6.82426,-3.61712 34.53483,6.43346 34.53483,6.43346" data-paper-data="{&quot;index&quot;:null}" fill="none" stroke="#000000" stroke-width="1.5" stroke-linecap="round"></path><path d="M431.50722,294.90683l8.69142,5.21484l-8.25684,1.73828l-4.12842,7.3877l-2.82471,-8.03956l-9.34328,-4.563l8.9087,-2.60743l4.99757,-9.34328z" fill="#be82ff" stroke="#000000" stroke-width="0" stroke-linecap="round"></path><g stroke-linecap="round"><path d="M461.55045,306.37475l-14.84927,31.97365l-3.78716,-1.59436l15.31651,-32.21548z" fill="none" stroke="#4d6200" stroke-width="3"></path><path d="M446.65199,334.81944l12.80406,-26.76835l-1.45303,-11.39219l3.41622,0.30533l2.1457,10.44131" fill="none" stroke="#4d6200" stroke-width="3"></path><path d="M478.3015,275.78642l-21.87643,25.83596l-4.25441,-1.35253l23.27817,-26.56141z" fill="none" stroke="#4d6200" stroke-width="3"></path><path d="M476.70297,262.39615l0.06769,13.29397l-21.07106,24.53053" fill="none" stroke="#4d6200" stroke-width="4.5"></path><path d="M487.84915,243.29844l-1.36685,11.66682l-11.35939,3.80565l-11.37788,-5.95939l2.31773,-10.97415" fill="none" stroke="#4d6200" stroke-width="4.5"></path><path d="M474.17621,275.25567l-1.14769,-14.80843" fill="none" stroke="#4d6200" stroke-width="4.5"></path><path d="M485.61356,228.66916l-3.05598,19.5355l-6.68637,5.01832l-6.75678,-7.34796l2.92367,-19.1878l7.86176,-4.96905z" fill="#7d00ff" stroke="#7f00ff" stroke-width="0.5"></path><path d="M483.00365,231.26801l-2.14141,13.68905l-4.68532,3.51648l-4.73465,-5.14892l2.0487,-13.44541l5.50896,-3.48195z" fill="#be82ff" stroke="#7f00ff" stroke-width="0"></path></g><path d="M394.92407,298.86749l13.4835,3.04467" fill="none" stroke="#000000" stroke-width="1.5" stroke-linecap="round"></path><path d="M403.18815,300.17235l1.73981,-12.17864" fill="none" stroke="#000000" stroke-width="1.5" stroke-linecap="round"></path></g><path d="" data-paper-data="{&quot;index&quot;:null}" fill="none" stroke="#000000" stroke-width="1.5" stroke-linecap="round"></path><g><path d="" data-paper-data="{&quot;index&quot;:null}" fill="none" stroke="#000000" stroke-width="1.5" stroke-linecap="round"></path><path d="M64.17873,226.75538c0,-25.24288 20.46339,-45.70627 45.70627,-45.70627c25.24288,0 45.70627,20.46339 45.70627,45.70627c0,25.24288 -20.46339,45.70627 -45.70627,45.70627c-25.24288,0 -45.70627,-20.46339 -45.70627,-45.70627z" fill="#d8d8d8" stroke="#000000" stroke-width="1.5" stroke-linecap="butt"></path><path d="M126.19655,245.2631c0,0 -25.6026,9.28602 -31.90773,5.94406" data-paper-data="{&quot;index&quot;:null}" fill="none" stroke="#000000" stroke-width="1.5" stroke-linecap="round"></path><path d="M46.86506,245.82407" fill="none" stroke="#d8d8d8" stroke-width="4" stroke-linecap="round"></path><path d="M102.15407,214.31634v9.25697" fill="none" stroke="#000000" stroke-width="1.5" stroke-linecap="round"></path><path d="M112.5442,221.33871c0,0 1.47517,-3.39172 3.12232,-3.39172c1.39718,0 3.49665,3.39172 3.49665,3.39172" fill="none" stroke="#000000" stroke-width="1.5" stroke-linecap="round"></path><path d="M83.71682,273.2405l0.44707,-65.27215l4.50152,0.03084l-0.44707,65.27215z" fill="#7f7600" stroke="#000000" stroke-width="0" stroke-linecap="butt"></path><path d="M77.86309,195.94114c0,-5.03452 4.08128,-9.11581 9.11581,-9.11581c5.03452,0 9.11581,4.08128 9.11581,9.11581c0,5.03452 -4.08128,9.11581 -9.11581,9.11581c-5.03452,0 -9.11581,-4.08128 -9.11581,-9.11581z" fill="none" stroke="#ffee00" stroke-width="6.5" stroke-linecap="butt"></path><path d="M83.26505,186.37516c0,0 -1.05485,-11.6504 3.82639,-11.92932c4.88124,-0.27892 3.15114,11.47917 3.15114,11.47917" fill="none" stroke="#ffee00" stroke-width="6.5" stroke-linecap="round"></path><path d="M96.12657,192.73275c0,0 11.6504,-1.05485 11.92932,3.82638c0.27892,4.88123 -11.47917,3.15114 -11.47917,3.15114" fill="none" stroke="#ffee00" stroke-width="6.5" stroke-linecap="round"></path><path d="M90.08611,204.0187c0,0 1.05485,11.6504 -3.82638,11.92934c-4.88124,0.27892 -3.15114,-11.47917 -3.15114,-11.47917" fill="none" stroke="#ffee00" stroke-width="6.5" stroke-linecap="round"></path><path d="M76.86648,198.49041c0,0 -11.6504,1.05485 -11.92932,-3.82639c-0.27894,-4.88123 11.47916,-3.15114 11.47916,-3.15114" fill="none" stroke="#ffee00" stroke-width="6.5" stroke-linecap="round"></path></g><path d="" data-paper-data="{&quot;index&quot;:null}" fill="none" stroke="#000000" stroke-width="1.5" stroke-linecap="round"></path><path d="M66.18597,358.37913c-29.26154,0 -52.98271,-23.72116 -52.98271,-52.98271c0,-29.26154 23.72116,-52.98271 52.98271,-52.98271c29.26154,0 52.98271,23.72116 52.98271,52.98271c0,29.26154 -23.72116,52.98271 -52.98271,52.98271z" data-paper-data="{&quot;index&quot;:null}" fill="#d8d8d8" stroke="#000000" stroke-width="1.5" stroke-linecap="butt"></path><path d="M93.23768,329.67772c-9.06694,4.80583 -45.88415,-8.54771 -45.88415,-8.54771" data-paper-data="{&quot;index&quot;:null}" fill="none" stroke="#000000" stroke-width="1.5" stroke-linecap="round"></path><path d="M107.47611,262.05803c0,0 7.95776,10.80343 9.79206,16.1285c1.70439,4.94795 4.30453,14.45994 4.30453,14.45994l-56.55816,24.89515l-52.68734,-22.55656c0,0 2.28285,-9.44887 3.78276,-14.60533c1.56197,-5.36976 7.29326,-16.21476 7.29326,-16.21476l41.61131,14.04648l42.46156,-16.15346z" data-paper-data="{&quot;index&quot;:null}" fill="#595959" stroke="#000000" stroke-width="0.5" stroke-linecap="round"></path><path d="M112.54012,282.16457c0,0 -6.05655,14.75254 -13.52771,14.75254c-7.47116,0 -20.25277,4.17269 -11.91728,-4.91751c8.33549,-9.0902 25.44499,-9.83503 25.44499,-9.83503z" data-paper-data="{&quot;index&quot;:null}" fill="#ffffff" stroke="none" stroke-width="0" stroke-linecap="butt"></path><path d="M71.4929,291.11528c8.33549,9.09022 -4.44611,4.91751 -11.91727,4.91751c-7.47114,0 -13.52771,-14.75254 -13.52771,-14.75254c0,0 17.10949,0.74483 25.44497,9.83503z" data-paper-data="{&quot;index&quot;:null}" fill="#ffffff" stroke="none" stroke-width="0" stroke-linecap="butt"></path><path d="M169.2768,318.01543" data-paper-data="{&quot;index&quot;:null}" fill="none" stroke="#d8d8d8" stroke-width="4" stroke-linecap="round"></path><g data-paper-data="{&quot;index&quot;:null}" fill="none" stroke-linecap="round"><path d="M37.05143,319.63415c0,0 -6.45933,42.11735 -11.59782,10.67022" stroke="#ff0000" stroke-width="3.5"></path><path d="M46.01724,321.39315c1.52285,10.16176 -4.92543,21.52854 -15.65265,21.17102" stroke="#ff0000" stroke-width="3.5"></path><g><path d="M14.01358,262.28792c0,0 6.45933,-42.11735 11.59782,-10.67022c5.13849,31.44715 0,81.64801 0,81.64801" stroke="#ff0000" stroke-width="3.5"></path><path d="M27.83602,269.962l0.1344,15.21251" stroke="#d8d8d8" stroke-width="4"></path><path d="M2.38892,261.28857c-1.52285,-10.16176 4.92543,-21.52854 15.65265,-21.17102" stroke="#ff0000" stroke-width="3.5"></path></g></g><g><path d="" data-paper-data="{&quot;index&quot;:null}" fill="none" stroke="#000000" stroke-width="1.5" stroke-linecap="round"></path><path d="M384.08726,134.13384c0,-22.85717 18.52939,-41.38656 41.38656,-41.38656c22.85717,0 41.38656,18.52939 41.38656,41.38656c0,22.85717 -18.52939,41.38656 -41.38656,41.38656c-22.85717,0 -41.38656,-18.52939 -41.38656,-41.38656z" fill="#d8d8d8" stroke="#000000" stroke-width="1.5" stroke-linecap="butt"></path><path d="M411.35163,151.54946c5.70923,-3.02611 28.89213,5.38229 28.89213,5.38229" data-paper-data="{&quot;index&quot;:null}" fill="none" stroke="#000000" stroke-width="1.5" stroke-linecap="round"></path><path d="M411.14407,120.9599l7.32947,1.91052v8.38209" fill="none" stroke="#000000" stroke-width="1.5" stroke-linecap="round"></path><path d="M424.30152,131.84011l-0.25302,-9.36203l7.33781,-2.27725" fill="none" stroke="#000000" stroke-width="1.5" stroke-linecap="round"></path><path d="M425.06061,142.46727l17.20589,-6.83175" fill="none" stroke="#000000" stroke-width="1.5" stroke-linecap="round"></path><path d="M428.34998,136.14157l3.03634,5.81964" fill="none" stroke="#000000" stroke-width="1.5" stroke-linecap="round"></path><path d="M437.20595,141.96122l-4.04844,-8.09689" fill="none" stroke="#000000" stroke-width="1.5" stroke-linecap="round"></path><g><path d="M395.7532,139.77471l-11.32735,2.26174l-11.35407,-9.42144l15.74676,-1.13202z" data-paper-data="{&quot;index&quot;:null}" fill="#c6c6c6" stroke="#c6c6c6" stroke-width="1.5" stroke-linecap="round"></path><path d="M441.39961,141.68402" fill="none" stroke="#d8d8d8" stroke-width="4" stroke-linecap="round"></path><path d="M461.2942,163.65104l-56.24003,-18.17743l1.25361,-3.87862l56.24003,18.17743z" fill="#7f7600" stroke="#000000" stroke-width="0" stroke-linecap="butt"></path><path d="M393.52148,140.3699c-1.52162,-1.99157 0.45175,-3.59505 0.45175,-3.59505l3.37194,-2.02511c3.21818,-0.05372 6.30967,0.71696 9.50539,0.42799c1.32458,-0.11977 2.78602,-1.10582 3.96073,-0.48217c1.80733,0.9595 3.99042,2.64251 3.96246,4.68854c-0.02309,1.68975 -2.9825,1.73035 -4.06787,3.02563c-0.57162,0.68218 -0.06515,1.91246 -0.63957,2.59228c-0.43084,0.50989 -1.76886,-0.17449 -1.94696,0.46885c-0.27501,0.99343 1.7078,2.16684 1.00784,2.92356c-4.71692,5.09941 -11.66133,-1.11549 -15.49138,-3.75956c0,0 -2.1553,-1.48861 -0.66669,-3.6439c0.17633,-0.2553 0.36201,-0.45947 0.55236,-0.62105z" fill="#ff0000" stroke="none" stroke-width="0.5" stroke-linecap="butt"></path></g></g></g></g></svg>