<svg version="1.1" xmlns="http://www.w3.org/2000/svg" xmlns:xlink="http://www.w3.org/1999/xlink" width="139.95074" height="88.15266" viewBox="0,0,139.95074,88.15266"><g transform="translate(-136.78064,-136.64104)"><g data-paper-data="{&quot;isPaintingLayer&quot;:true}" fill-rule="nonzero" stroke-linejoin="miter" stroke-miterlimit="10" stroke-dasharray="" stroke-dashoffset="0" style="mix-blend-mode: normal"><path d="M213.51985,170.95034l8.98862,-1.09762l1.84071,7.78537" data-paper-data="{&quot;index&quot;:null}" fill="none" stroke="#000000" stroke-width="1.5" stroke-linecap="round"></path><path d="M230.5736,175.97467l-1.84071,-7.78537l8.52845,-3.04395" data-paper-data="{&quot;index&quot;:null}" fill="none" stroke="#000000" stroke-width="1.5" stroke-linecap="round"></path><path d="M234.4465,199.0748c0,0 -1.64581,-8.45829 3.5529,-10.12091c5.06778,-1.62073 13.97735,4.94863 13.97735,4.94863z" data-paper-data="{&quot;index&quot;:null}" fill="#040404" stroke="#000000" stroke-width="1.5" stroke-linecap="round"></path><path d="M198.80392,179.80071c-4.18549,-17.70276 9.25234,-36.03302 30.01421,-40.94178c20.76188,-4.90875 40.98571,5.46285 45.17119,23.16561c2.58317,10.92564 3.3077,24.77783 -5.11345,32.87884c-0.35164,0.33827 -4.50327,4.05491 -4.50327,4.05491l2.98359,13.5951l-12.02137,3.8212l-4.05247,-14.94418l3.65079,15.13857l-14.28613,3.5881l-4.11534,-15.40014l4.42408,15.19974l-15.76062,3.63743c0,0 -3.74433,-16.33182 -4.14772,-16.2923c-2.63511,0.25824 -1.96716,0.46408 -3.97804,-0.0216c-12.34402,-2.98147 -15.49263,-15.75173 -18.26545,-27.47951z" data-paper-data="{&quot;index&quot;:null}" fill="#ffffff" stroke="#000000" stroke-width="2" stroke-linecap="butt"></path><path d="M247.70897,169.87721c1.36355,5.7672 -0.74277,11.20174 -4.70458,12.13845c-3.96181,0.9367 -8.27886,-2.97921 -9.6424,-8.74639c-1.36355,-5.7672 -3.52007,-10.5774 0.44172,-11.5141c3.13592,-0.74143 12.21894,4.85396 12.21894,4.85396c0,0 1.40206,2.06585 1.68631,3.26807z" data-paper-data="{&quot;index&quot;:null}" fill="#ababab" stroke="#000000" stroke-width="1" stroke-linecap="butt"></path><path d="M263.22105,154.60581c3.96181,-0.9367 4.18776,4.32998 5.5513,10.09716c1.36355,5.7672 -0.74276,11.20175 -4.70458,12.13846c-3.96181,0.9367 -8.27886,-2.97921 -9.64241,-8.7464c-0.28425,-1.20223 0.04422,-3.67723 0.04422,-3.67723c0,0 5.61552,-9.07059 8.75145,-9.812z" data-paper-data="{&quot;index&quot;:null}" fill="#ababab" stroke="#000000" stroke-width="1" stroke-linecap="butt"></path><path d="" data-paper-data="{&quot;index&quot;:null}" fill="none" stroke="#000000" stroke-width="1.5" stroke-linecap="round"></path><path d="" data-paper-data="{&quot;index&quot;:null}" fill="none" stroke="#000000" stroke-width="1.5" stroke-linecap="round"></path><path d="" data-paper-data="{&quot;index&quot;:null}" fill="none" stroke="#000000" stroke-width="1.5" stroke-linecap="round"></path><path d="" data-paper-data="{&quot;index&quot;:null}" fill="none" stroke="#000000" stroke-width="1.5" stroke-linecap="round"></path><path d="" data-paper-data="{&quot;index&quot;:null}" fill="none" stroke="#000000" stroke-width="1.5" stroke-linecap="round"></path><path d="" data-paper-data="{&quot;index&quot;:null}" fill="none" stroke="#000000" stroke-width="1.5" stroke-linecap="round"></path><path d="" data-paper-data="{&quot;index&quot;:null}" fill="none" stroke="#000000" stroke-width="1.5" stroke-linecap="round"></path><path d="" data-paper-data="{&quot;index&quot;:null}" fill="none" stroke="#000000" stroke-width="1.5" stroke-linecap="round"></path><path d="" data-paper-data="{&quot;index&quot;:null}" fill="none" stroke="#000000" stroke-width="1.5" stroke-linecap="round"></path><path d="" data-paper-data="{&quot;index&quot;:null}" fill="none" stroke="#000000" stroke-width="1.5" stroke-linecap="round"></path><path d="M167.41437,198.49798c-0.0762,-5.41003 4.24773,-9.85751 9.65777,-9.93371c5.41003,-0.0762 9.85751,4.24773 9.93371,9.65777c0.0762,5.41003 -4.24773,9.85751 -9.65777,9.93371c-5.41003,0.0762 -9.85751,-4.24773 -9.93371,-9.65777z" fill="#ffffff" stroke="#000000" stroke-width="1" stroke-linecap="butt"></path><path d="M155.9036,198.98424c-0.10248,0.11634 -0.21701,0.23196 -0.34461,0.34426c-0.02072,0.01823 -0.04163,0.0362 -0.06272,0.05393l0.0068,0.0068l-1.03123,1.03123c-0.18096,0.18096 -0.43096,0.29289 -0.70711,0.29289c-0.55228,0 -1,-0.44772 -1,-1v-1.03123c0,-0.49093 0.07143,-0.98632 0.16382,-1.42845c-0.13596,0.06918 -0.28986,0.10818 -0.45286,0.10818c-0.55228,0 -1,-0.44772 -1,-1c0,-0.00231 0.00001,-0.00462 0.00002,-0.00693c-0.21707,0.44088 -0.46064,0.86 -0.65173,1.09563c-0.00663,0.00817 -0.01327,0.01632 -0.01994,0.02446l0.00439,0.00261l-1.01364,1.7026c-0.17228,0.3013 -0.49679,0.50435 -0.86872,0.50435c-0.55228,0 -1,-0.44772 -1,-1c0,-0.08597 0.01085,-0.16941 0.03125,-0.24903l0.43027,-1.84054c0.00212,-1.00289 0.47645,-2.03782 0.1972,-3.0004c-0.05923,-0.20417 -0.27737,0.32236 -0.42184,0.4783c-0.3194,0.34476 -0.69353,0.64381 -0.97719,1.01747l-0.43788,1.75153c-0.10106,0.44532 -0.49931,0.77776 -0.97522,0.77776c-0.55228,0 -1,-0.44772 -1,-1v-1.03123l0.0606,0l-0.05221,-0.12928c0.25974,-0.99804 0.46008,-2.65185 0.9459,-3.94135c-0.24548,-0.1668 -0.41287,-0.43994 -0.43595,-0.7532c-0.18194,0.24849 -0.47582,0.40987 -0.80739,0.40987c-0.55228,0 -1,-0.44772 -1,-1c0,-0.0625 0.00573,-0.12366 0.0167,-0.18298l0.25471,-1.52827l0.03258,0.00543c0.00996,-0.08624 0.02466,-0.1722 0.04482,-0.25785c0.15876,-0.67425 0.8163,-1.10407 1.29861,-1.61976c0.7509,-1.59799 1.44937,-3.23373 2.04081,-4.88268c0.21405,-0.59678 0.35101,-1.15972 0.49495,-1.68968l-1.09326,0.68329c-0.15638,0.10133 -0.34286,0.16017 -0.54307,0.16017c-0.55228,0 -1,-0.44772 -1,-1c0,-0.08281 0.01007,-0.16328 0.02904,-0.24023c-1.57024,2.08883 -3.31197,4.00681 -5.32386,5.72703l0.1058,0.09068l-1.29735,1.51358c-0.18343,0.21662 -0.4574,0.35414 -0.76349,0.35414c-0.55228,0 -1,-0.44772 -1,-1c0,-0.07429 0.0081,-0.14669 0.02347,-0.21636l0.25376,-1.26879l0.02224,0.00445l-0.00747,-0.06761c1.70536,-5.04085 3.94517,-11.58697 7.73513,-15.4007c0,0 0.38659,-0.38659 0.87392,-0.30223l0.31434,-0.96737l0.33847,0.10999c0.44863,-1.07372 1.18024,-1.60317 2.42837,-2.58649c-0.15482,-0.22414 -0.21801,-0.51033 -0.15104,-0.79646c0.04423,-0.18896 0.13934,-0.35276 0.26745,-0.48028l0.12348,-0.12725c-0.25163,-0.23648 -0.37379,-0.59697 -0.28944,-0.95737c0.01229,-0.0525 0.02851,-0.10306 0.04826,-0.15144l0.65604,-1.6824l0.01903,0.00742c0.04691,-0.10618 0.10152,-0.20927 0.16537,-0.30864c1.46492,-2.2796 5.34453,-0.93951 7.02754,-2.67101c1.17202,-1.2058 3.58103,-6.92032 6.01286,-6.19969c0.77919,0.2309 2.06001,2.93503 2.36141,3.54983c1.6419,3.34923 3.14204,6.49923 5.10858,9.66111c3.013,6.32054 5.1647,12.89667 6.95784,19.61405c0.41132,1.54084 2.36843,4.18752 1.90272,5.86147c-0.88127,3.16761 -3.64929,4.50075 -6.42977,4.95419c-0.18552,-0.50897 -0.37105,-1.01794 -0.55658,-1.5269l-0.1759,0.0162l-0.01475,-0.16013c-1.71296,0.87069 -4.43767,1.43563 -4.66596,-0.4057l-0.00007,0c-0.13304,0.02003 -0.2662,0.03708 -0.39914,0.05126c0,0 -0.99578,0.09172 -1.0875,-0.90407c-0.09172,-0.99578 0.90407,-1.0875 0.90407,-1.0875c0.38917,-0.02836 0.78168,-0.09821 1.16221,-0.20917c0.11643,-0.14662 0.24938,-0.28325 0.39161,-0.41445c-0.84731,-0.38946 -0.87058,-1.27799 -0.49155,-2.49828l-0.00012,-0.00249c-1.06179,0.58142 -2.52752,1.08506 -3.41718,0.51403c-0.43661,0.50288 -0.96312,0.99425 -1.48268,1.59917l-0.02801,0.01526l0.00714,0.00693l-1.03406,1.06571c-0.23645,0.25232 -0.59744,0.37494 -0.95833,0.29047c-0.53775,-0.12586 -0.87166,-0.66383 -0.7458,-1.20157c0.0087,-0.03717 0.01936,-0.07335 0.03186,-0.10848l0.64293,-1.87963l0.313,0.10706c0.22964,-0.72552 0.5482,-1.41203 0.99602,-2.01193c0.25323,-0.33923 0.47704,-0.70994 0.73753,-1.0447c-1.27037,0.23121 -3.01925,-0.02294 -3.92058,-0.00277c-1.78771,0.04 -3.61651,0.13513 -5.40171,0.03611c-0.92684,-0.05141 -2.21447,0.4763 -2.77209,-0.26583c-0.9695,-1.29029 -0.45185,-2.43214 0.46252,-3.37923c-0.00061,-0.0249 -0.00117,-0.0496 -0.00167,-0.07409l-0.43553,-0.03843l0.09477,-1.07402c-0.6795,-0.50944 -0.66424,-1.76116 -0.56129,-2.63306c0.01082,-0.09163 0.02794,-0.18516 0.05088,-0.28037l-0.25026,-0.0455c-0.27098,2.60085 -1.152,5.08289 -2.24179,7.51375c0.06952,0.13623 0.10873,0.29051 0.10873,0.45395v1.80466h-0.27071c-0.00013,0.02943 -0.00045,0.05883 -0.00094,0.08821c0.09028,0.09593 0.16182,0.20969 0.20878,0.33545l0.50697,1.26741l-0.02697,0.01079c0.04108,0.10071 0.07413,0.20492 0.09738,0.31339c0.07642,0.35667 0.01377,0.85326 -0.12348,1.41205c0.46166,-0.08269 0.96043,0.01468 1.46863,0.37118c0.37709,0.26452 0.56126,1.0341 0.64877,1.90235c0.45308,-0.67492 1.04403,-1.16848 1.75617,-1.23268c0.56258,-0.05072 0.87584,0.55356 1.20447,1.11743c0.46071,-0.00998 0.91291,0.11526 1.19885,0.41032c0.21768,0.22463 0.27918,1.57742 0.2938,2.77699c0.59114,-1.02312 1.5001,-1.97294 2.28045,-1.76308c1.16328,0.31284 1.36788,1.35829 1.31324,2.38181c0.73885,0.32559 0.96879,1.58652 1.50394,2.28651l-1.72606,0.89079l-0.37466,0.74932c-0.16034,0.33825 -0.50491,0.57216 -0.90412,0.57216c-0.55228,0 -1,-0.44772 -1,-1c0,-0.05392 0.00427,-0.10684 0.01248,-0.15845l0.23619,-1.65334c-0.06992,-0.06724 -0.13836,-0.1363 -0.20351,-0.20637zM146.22199,170.77253c-2.82683,2.80667 -4.72345,7.39002 -6.18352,11.5038c0.82675,-0.78456 1.77565,-1.50967 2.49368,-2.38435c1.17093,-1.42638 2.21233,-3.07168 3.18206,-4.70664c-0.41106,-0.00718 -0.76257,-0.10806 -0.93896,-0.44246c-0.62456,-1.18399 0.29791,-2.65656 1.57206,-3.97569c-0.02557,-0.00394 -0.05119,-0.00889 -0.07681,-0.01489c-0.00815,-0.00191 -0.01626,-0.00391 -0.02432,-0.00601c-0.01509,0.01715 -0.02418,0.02625 -0.02418,0.02625zM147.76534,177.33088c0.15622,-0.18366 0.31749,-0.36269 0.48056,-0.53791l0.49187,-0.97236c0.16123,-0.33589 0.50455,-0.5678 0.90204,-0.5678c0.55228,0 1,0.44772 1,1c0,0.06789 -0.00677,0.1342 -0.01966,0.1983l-0.25557,1.40564c0.57931,-1.37609 2.08884,-2.99319 3.30838,-4.2848c-1.57231,0.70882 -3.57906,1.19521 -5.17112,1.3857c-0.18412,0.7989 -0.45424,1.51743 -0.7365,2.37322zM149.61358,167.58557c0.13328,-0.02453 0.26728,-0.04637 0.40183,-0.06573l-0.0589,-0.24736c-0.11228,0.10292 -0.22662,0.208 -0.34294,0.31309zM153.84792,180.39549c0.02391,-0.00454 0.04784,-0.009 0.0718,-0.01339l-0.01618,-0.03931c-0.02413,0.01583 -0.04823,0.03157 -0.07234,0.0472z" fill="#bd00f2" stroke="none" stroke-width="0.5" stroke-linecap="butt"></path></g></g></svg>