<svg version="1.1" xmlns="http://www.w3.org/2000/svg" xmlns:xlink="http://www.w3.org/1999/xlink" width="5027.3306" height="1940.2716" viewBox="0,0,5027.3306,1940.2716"><g transform="translate(2033.6653,790.1358)"><g data-paper-data="{&quot;isPaintingLayer&quot;:true}" fill-rule="nonzero" stroke-linejoin="miter" stroke-miterlimit="10" stroke-dasharray="" stroke-dashoffset="0" style="mix-blend-mode: normal"><path d="M-2033.6653,1150.1358v-1940.2716h5027.3306v1940.2716z" fill="#000000" stroke="none" stroke-width="none" stroke-linecap="butt"/><path d="" data-paper-data="{&quot;index&quot;:null}" fill="none" stroke="#000000" stroke-width="1.5" stroke-linecap="round"/><g fill="#ffffff" stroke="#ffffff"><path d="M528.25572,199.89634" data-paper-data="{&quot;index&quot;:null}" stroke-width="4" stroke-linecap="round"/><g data-paper-data="{&quot;index&quot;:null}"><path d="M462.67058,216.1789c-19.38313,-10.00996 -26.98159,-33.83775 -16.97162,-53.2209c10.00996,-19.38313 33.83775,-26.98159 53.2209,-16.97162c19.38313,10.00996 26.98159,33.83775 16.97162,53.2209c-10.00996,19.38313 -33.83775,26.98159 -53.2209,16.97162z" stroke-width="1.5" stroke-linecap="butt"/><path d="M491.66419,174.59681l-3.67082,7.10811" stroke-width="1.5" stroke-linecap="round"/><path d="M475.81878,173.24416c0,0 2.95708,-1.77184 4.02993,-1.21779c1.26478,0.65316 1.05254,3.84252 1.05254,3.84252" stroke-width="1.5" stroke-linecap="round"/><path d="M518.29922,192.31384c-2.58923,5.01376 -70.43345,-29.98094 -67.82716,-35.02773c10.39103,-20.12103 29.7092,-22.374 49.83022,-11.98296c20.12104,10.39104 28.38799,26.88967 17.99694,47.01072z" stroke-width="0" stroke-linecap="butt"/><g stroke-width="1.5"><path d="M479.68275,182.30378c13.76661,7.10944 23.76255,15.12698 22.32653,17.90765c-0.40153,0.77752 -2.30534,6.37285 -4.20296,6.22564c-4.8889,-0.37928 -13.40659,-8.94203 -23.32385,-14.06359c-13.76661,-7.10944 -23.76255,-15.12698 -22.32653,-17.90765c1.43601,-2.78067 13.76018,0.72849 27.5268,7.83794z" stroke-linecap="butt"/><path d="M493.45553,203.00808l4.10287,-8.75453" stroke-linecap="round"/><path d="M491.86052,191.52012l-4.02845,9.42026" stroke-linecap="round"/><path d="M481.25608,195.45333l5.34366,-8.32284" stroke-linecap="round"/><path d="M476.88425,192.9865l4.43302,-8.58402" stroke-linecap="round"/><path d="M474.62892,181.15755l-5.58313,7.57187" stroke-linecap="round"/><path d="M468.77681,177.50808l-7.79269,4.96706" stroke-linecap="round"/><path d="M455.05218,178.57531l7.02544,-3.48137" stroke-linecap="round"/></g><path d="M499.73525,213.39785l11.42815,-22.12928c0,0 7.79143,-6.58408 5.5773,2.88027c-2.21412,9.46434 -11.42815,22.12928 -11.42815,22.12928z" stroke-width="0" stroke-linecap="butt"/><path d="M435.5359,177.96466c0,0 9.4868,-19.63304 11.0565,-21.40963c1.56971,-1.77659 5.39738,2.78736 5.39738,2.78736l-11.0565,21.40963z" stroke-width="0" stroke-linecap="butt"/></g><g data-paper-data="{&quot;index&quot;:null}" stroke-width="0" stroke-linecap="butt"><path d="M415.86024,162.77138l16.31727,-6.73756l15.53603,37.62573l-16.31727,6.73756z"/><path d="M433.62011,168.40158l14.3976,-5.94491l1.90237,4.60724l-14.3976,5.94491z"/><path d="M443.69411,165.59012l4.2233,-1.74383l10.38377,25.14781l-4.2233,1.74383z"/><path d="M444.04599,190.38625l11.51809,-4.75593l1.5853,3.83935l-11.51809,4.75593z"/><path d="M417.63722,170.50713l18.81288,-7.76802l15.53602,37.62572l-18.81288,7.76802z"/><path d="M416.65633,172.48503l14.58957,-6.02418l12.71769,30.80021l-14.58957,6.02418z"/><path d="M424.19893,191.84037l10.94218,-4.51813l2.21944,5.37509l-10.94218,4.51813z"/><path d="M421.14507,183.73305l10.94218,-4.51813l2.21944,5.37509l-10.94218,4.51813z"/><path d="M417.97848,175.89699l10.94218,-4.51813l2.21944,5.37509l-10.94218,4.51813z"/><path d="M409.33914,152.58725l19.96468,-8.2436l4.99372,12.09398l-19.96468,8.2436z"/></g></g></g></g></svg>