<svg version="1.1" xmlns="http://www.w3.org/2000/svg" xmlns:xlink="http://www.w3.org/1999/xlink" width="97.62726" height="66.68454" viewBox="0,0,97.62726,66.68454"><g transform="translate(4.58743,18.62324)"><g data-paper-data="{&quot;isPaintingLayer&quot;:true}" fill-rule="nonzero" stroke-linejoin="miter" stroke-miterlimit="10" stroke-dasharray="" stroke-dashoffset="0" style="mix-blend-mode: normal"><path d="" data-paper-data="{&quot;index&quot;:null}" fill="none" stroke="#000000" stroke-width="1.5" stroke-linecap="round"></path><path d="M93.03983,48.0613" data-paper-data="{&quot;index&quot;:null}" fill="none" stroke="#d8d8d8" stroke-width="4" stroke-linecap="round"></path><g><path d="M24.6015,27.39487c-12.01645,-4.91038 -17.77705,-18.63228 -12.86667,-30.64874c4.91038,-12.01645 18.63229,-17.77705 30.64874,-12.86667c12.01645,4.91038 17.77706,18.63229 12.86668,30.64874c-4.91038,12.01645 -18.63229,17.77706 -30.64874,12.86667z" fill="#d8d8d8" stroke="#000000" stroke-width="1.5" stroke-linecap="butt"></path><path d="M34.49563,1.91999l-6.69514,-5.68768" fill="none" stroke="#000000" stroke-width="1.5" stroke-linecap="round"></path><path d="M30.57303,-0.07424l-1.18021,3.28945" fill="none" stroke="#000000" stroke-width="1.5" stroke-linecap="round"></path><path d="M36.43728,2.38544l5.07703,-0.38515" fill="none" stroke="#000000" stroke-width="1.5" stroke-linecap="round"></path><path d="M38.91204,3.46878l-1.32735,2.90235" fill="none" stroke="#f1aa4f" stroke-width="2.5" stroke-linecap="round"></path><path d="M23.71371,10.54141l12.88819,5.42731" fill="none" stroke="#000000" stroke-width="1.5" stroke-linecap="round"></path></g><g data-paper-data="{&quot;index&quot;:null}" stroke="#000000" stroke-linecap="butt"><path d="M4.52968,5.36867l-7.71046,-4.64314c0,0 -0.8347,-1.54835 -0.62193,-1.95231c0.21239,-0.40324 1.8974,-0.46928 1.8974,-0.46928l7.71046,4.64314z" fill="#af5400" stroke-width="1.5"></path><path d="M8.62013,0.16618c0,0 -0.95679,2.28435 -2.33456,4.74591c-0.73758,1.31782 -2.08491,4.00109 -2.08491,4.00109c0,0 -1.70534,-0.77091 -2.19939,-1.11067c-1.06326,-0.7312 -0.94387,-3.07673 0.43388,-5.5383c0.74325,-1.32798 1.73422,-3.26926 3.22666,-3.5445c1.27397,-0.23495 2.95831,1.44645 2.95831,1.44645z" fill="#989898" stroke-width="1"></path><path d="M8.41646,-0.13942c1.06325,0.73119 0.8083,3.31944 -0.56945,5.78101c-1.37775,2.46156 -3.3566,3.86431 -4.41985,3.13312c-1.06326,-0.73119 -0.8083,-3.31944 0.56945,-5.78101c1.37776,-2.46157 3.3566,-3.86431 4.41986,-3.13313z" fill="#989898" stroke-width="1"></path><path d="M4.94862,5.29246c0,0 -0.23937,-1.19926 -0.06009,-1.56903c0.17512,-0.36123 1.12361,-0.62461 1.12361,-0.62461l31.04833,17.64743l3.80681,4.96184l-35.91866,-20.41566z" fill="#e6e6e6" stroke-width="0.5"></path></g></g></g></svg>