<svg version="1.1" xmlns="http://www.w3.org/2000/svg" xmlns:xlink="http://www.w3.org/1999/xlink" width="65.875" height="65.875" viewBox="0,0,65.875,65.875"><g transform="translate(-207.0625,-147.0625)"><g data-paper-data="{&quot;isPaintingLayer&quot;:true}" fill-rule="nonzero" stroke-linecap="butt" stroke-linejoin="miter" stroke-miterlimit="10" stroke-dasharray="" stroke-dashoffset="0" style="mix-blend-mode: normal"><path d="M207.0625,180c0,-18.19088 14.74662,-32.9375 32.9375,-32.9375c18.19088,0 32.9375,14.74662 32.9375,32.9375c0,18.19088 -14.74662,32.9375 -32.9375,32.9375c-18.19088,0 -32.9375,-14.74662 -32.9375,-32.9375z" fill="#000000" stroke="none" stroke-width="0"></path><path d="M237.79006,191.07213l-8.45792,-9.24366l20.66617,-18.90949l8.45792,9.24366z" fill="#ffffff" stroke="none" stroke-width="0"></path><path d="M262.18816,160.70729c2.24406,2.68755 -1.74561,9.5989 -4.55203,12.09258c-2.99775,2.6637 -4.97821,0.73731 -7.37526,-2.13346c-2.3172,-2.77513 -4.71258,-3.83296 -1.73844,-6.32315c2.98277,-2.49742 11.34181,-6.41916 13.66573,-3.63598z" fill="#ffffff" stroke="none" stroke-width="NaN"></path><path d="M232.43983,181.17561l-4.10813,-4.48978l12.90811,-11.81088l4.10813,4.48978z" fill="#ffffff" stroke="none" stroke-width="0"></path><path d="M243.28195,192.36209l-4.10813,-4.48977l12.90811,-11.81088l4.10813,4.48977z" fill="#ffffff" stroke="none" stroke-width="0"></path><path d="M228.18663,182.75256c1.23453,1.34921 0.99375,3.57899 -0.53779,4.98034c-1.53154,1.40135 -3.77388,1.44362 -5.0084,0.09441c-1.23453,-1.34921 -0.99375,-3.57899 0.53779,-4.98034c1.53154,-1.40135 3.77388,-1.44362 5.0084,-0.09441z" fill="#ffffff" stroke="#000000" stroke-width="0"></path><path d="M221.85794,194.39624c-1.8935,-2.0694 -1.7509,-5.28196 0.3185,-7.17546c2.0694,-1.8935 5.28196,-1.7509 7.17546,0.3185c1.8935,2.0694 1.7509,5.28196 -0.3185,7.17546c-2.0694,1.8935 -5.28196,1.7509 -7.17546,-0.3185z" fill="#ffffff" stroke="none" stroke-width="0"></path><path d="M217.76772,189.85975c-0.83414,-0.91163 -0.77132,-2.32686 0.14031,-3.16099c0.91163,-0.83414 2.32686,-0.77132 3.16099,0.14031c0.83414,0.91163 0.77132,2.32686 -0.14031,3.16099c-0.91163,0.83414 -2.32686,0.77132 -3.16099,-0.14031z" fill="#ffffff" stroke="none" stroke-width="0"></path><path d="M230.28813,197.84265c-1.64325,-1.79591 -1.5195,-4.58391 0.27641,-6.22716c1.79591,-1.64325 4.58391,-1.5195 6.22716,0.27641c1.64325,1.79591 1.5195,4.58391 -0.27641,6.22716c-1.79591,1.64325 -4.58391,1.5195 -6.22716,-0.27641z" fill="#ffffff" stroke="none" stroke-width="0"></path><path d="M217.70414,199.91609c-1.86013,-2.03294 -1.72004,-5.18889 0.31289,-7.04902c2.03294,-1.86013 5.18889,-1.72004 7.04902,0.31289c1.86013,2.03294 1.72004,5.18889 -0.31289,7.04902c-2.03294,1.86013 -5.18889,1.72004 -7.04902,-0.31289z" fill="#ffffff" stroke="none" stroke-width="0"></path></g></g></svg>