<svg version="1.1" xmlns="http://www.w3.org/2000/svg" xmlns:xlink="http://www.w3.org/1999/xlink" width="140.80698" height="97.39467" viewBox="0,0,140.80698,97.39467"><g transform="translate(-136.02283,-137.00893)"><g data-paper-data="{&quot;isPaintingLayer&quot;:true}" fill-rule="nonzero" stroke-linejoin="miter" stroke-miterlimit="10" stroke-dasharray="" stroke-dashoffset="0" style="mix-blend-mode: normal"><path d="M213.71544,170.81554l9.00848,-0.92048l1.68711,7.82009" data-paper-data="{&quot;index&quot;:null}" fill="none" stroke="#000000" stroke-width="1.5" stroke-linecap="round"></path><path d="M230.66699,176.17457l-1.68711,-7.82009l8.58671,-2.8755" data-paper-data="{&quot;index&quot;:null}" fill="none" stroke="#000000" stroke-width="1.5" stroke-linecap="round"></path><path d="M234.08445,199.34646c0,0 -1.479,-8.48905 3.75143,-10.04901c5.09869,-1.52067 13.87724,5.2228 13.87724,5.2228z" data-paper-data="{&quot;index&quot;:null}" fill="#040404" stroke="#000000" stroke-width="1.5" stroke-linecap="round"></path><path d="M198.82816,179.37453c-3.83623,-17.78171 9.95979,-35.84392 30.81427,-40.34306c20.85448,-4.49914 40.87024,6.26852 44.70647,24.05024c2.36761,10.97438 2.81935,24.83814 -5.75962,32.77182c-0.35823,0.33128 -4.58221,3.96549 -4.58221,3.96549l2.71541,13.65119l-12.09426,3.58384l-3.75754,-15.02105l3.3521,15.20749l-14.35399,3.30622l-3.81142,-15.47816l4.12405,15.28387l-15.82916,3.3265c0,0 -3.42214,-16.40235 -3.82623,-16.37078c-2.63969,0.20632 -1.97591,0.42527 -3.97684,-0.0999c-12.28294,-3.22386 -15.17958,-16.05363 -17.72102,-27.83371z" data-paper-data="{&quot;index&quot;:null}" fill="#ffffff" stroke="#000000" stroke-width="2" stroke-linecap="butt"></path><path d="M247.91905,170.41557c1.24976,5.79292 -0.96312,11.18496 -4.94259,12.0435c-3.97948,0.85853 -8.21862,-3.14158 -9.46837,-8.93448c-1.24976,-5.79292 -3.31119,-10.64464 0.66828,-11.50318c3.14991,-0.67956 12.12103,5.09353 12.12103,5.09353c0,0 1.36113,2.09304 1.62166,3.30063z" data-paper-data="{&quot;index&quot;:null}" fill="#ababab" stroke="#000000" stroke-width="1" stroke-linecap="butt"></path><path d="M263.72872,155.45245c3.97948,-0.85853 4.10172,4.41157 5.35148,10.20447c1.24976,5.79292 -0.96311,11.18497 -4.94259,12.04351c-3.97948,0.85853 -8.21862,-3.14158 -9.46838,-8.93449c-0.26053,-1.20759 0.11659,-3.67564 0.11659,-3.67564c0,0 5.79297,-8.95829 8.94289,-9.63785z" data-paper-data="{&quot;index&quot;:null}" fill="#ababab" stroke="#000000" stroke-width="1" stroke-linecap="butt"></path><path d="" data-paper-data="{&quot;index&quot;:null}" fill="none" stroke="#000000" stroke-width="1.5" stroke-linecap="round"></path><path d="" data-paper-data="{&quot;index&quot;:null}" fill="none" stroke="#000000" stroke-width="1.5" stroke-linecap="round"></path><path d="" data-paper-data="{&quot;index&quot;:null}" fill="none" stroke="#000000" stroke-width="1.5" stroke-linecap="round"></path><path d="" data-paper-data="{&quot;index&quot;:null}" fill="none" stroke="#000000" stroke-width="1.5" stroke-linecap="round"></path><path d="" data-paper-data="{&quot;index&quot;:null}" fill="none" stroke="#000000" stroke-width="1.5" stroke-linecap="round"></path><path d="" data-paper-data="{&quot;index&quot;:null}" fill="none" stroke="#000000" stroke-width="1.5" stroke-linecap="round"></path><path d="" data-paper-data="{&quot;index&quot;:null}" fill="none" stroke="#000000" stroke-width="1.5" stroke-linecap="round"></path><path d="" data-paper-data="{&quot;index&quot;:null}" fill="none" stroke="#000000" stroke-width="1.5" stroke-linecap="round"></path><path d="" data-paper-data="{&quot;index&quot;:null}" fill="none" stroke="#000000" stroke-width="1.5" stroke-linecap="round"></path><path d="" data-paper-data="{&quot;index&quot;:null}" fill="none" stroke="#000000" stroke-width="1.5" stroke-linecap="round"></path><path d="M170.26446,196.81047c0,-5.41057 4.38614,-9.79671 9.79671,-9.79671c5.41057,0 9.79671,4.38614 9.79671,9.79671c0,5.41057 -4.38614,9.79671 -9.79671,9.79671c-5.41057,0 -9.79671,-4.38614 -9.79671,-9.79671z" fill="#ffffff" stroke="#000000" stroke-width="1" stroke-linecap="butt"></path><path d="M141.9573,167.16917l1.22182,2.03636c0.14352,0.23004 0.22644,0.50178 0.22644,0.79288c0,0.82843 -0.67157,1.5 -1.5,1.5c-0.55597,0 -1.04129,-0.30247 -1.30038,-0.75183l-0.71044,-1.18406c-0.92281,-1.07563 -1.801,-2.19453 -2.58876,-3.3726c0,0 -0.20622,-0.30933 -0.25933,-0.72266l-0.73428,-1.02799c-0.18204,-0.24827 -0.28955,-0.55461 -0.28955,-0.88606c0,-0.82843 0.67157,-1.5 1.5,-1.5c0.36885,0 0.70661,0.13313 0.96784,0.35397l0.83879,0.69899c0.03869,-0.00665 0.07788,-0.01181 0.11752,-0.01544c0.19495,-0.60211 0.7603,-1.03752 1.42735,-1.03752c0.47887,0 0.90533,0.2244 1.17996,0.57378l0.26765,0.33456c0.44497,0.24929 0.66746,0.69427 0.66746,0.69427l-0.06391,0.06017l0.15138,0.18922l-0.24963,0.19971l0.40648,0.81295c0.10974,0.20845 0.17185,0.44587 0.17185,0.69781c0,0.79358 -0.61627,1.44323 -1.39634,1.49647c-0.01682,0.01945 -0.03414,0.03846 -0.05193,0.05702z" fill="#bd00f2" stroke="none" stroke-width="0.5" stroke-linecap="butt"></path><path d="M226.68347,231.41537c-0.14172,0.21257 -0.2955,0.36481 -0.45313,0.47108l0.1467,0.66016c0.02793,0.11441 0.04274,0.23396 0.04274,0.35698c0,0.82843 -0.67157,1.5 -1.5,1.5c-0.33145,0 -0.63779,-0.1075 -0.88606,-0.28955l-1.66928,-1.19234c-0.61282,-0.22536 -1.22564,-0.45072 -1.83846,-0.67608c0,0 -1.40449,-0.52669 -0.87781,-1.93118c0.52669,-1.40449 1.93118,-0.87781 1.93118,-0.87781c0.01471,0.00561 0.02942,0.01121 0.04412,0.01682c-0.00552,-0.0523 -0.00835,-0.10541 -0.00835,-0.15917c0,-0.82843 0.67157,-1.5 1.5,-1.5c0.25194,0 0.48937,0.06211 0.69781,0.17185l1.51986,0.75993l0.93465,0.60918c0,0 1.24808,0.83205 0.41603,2.08013z" fill="#bd00f2" stroke="none" stroke-width="0.5" stroke-linecap="butt"></path></g></g></svg>