<svg version="1.1" xmlns="http://www.w3.org/2000/svg" xmlns:xlink="http://www.w3.org/1999/xlink" width="102.27394" height="82.01441" viewBox="0,0,102.27394,82.01441"><g transform="translate(-252.02768,-82.87614)"><g data-paper-data="{&quot;isPaintingLayer&quot;:true}" fill-rule="nonzero" stroke-linejoin="miter" stroke-miterlimit="10" stroke-dasharray="" stroke-dashoffset="0" style="mix-blend-mode: normal"><g stroke="none" stroke-width="0.5" stroke-linecap="butt"><path d="M316.67319,146.46237c0.89184,-0.46818 1.44229,0.15955 1.62245,0.42101c0.5387,0.28978 1.09687,0.60672 1.66867,0.88039c0.10229,-0.12325 0.23012,-0.22876 0.38079,-0.30785c0.02821,-0.01481 0.05672,-0.02843 0.08549,-0.04089l1.26672,-0.56156l0.00117,0.00263l0.00474,-0.00524c2.51791,-1.08344 5.14918,-1.83428 7.64768,-2.97339c0.0125,-0.0057 0.02494,-0.0114 0.03731,-0.01711c-1.36606,0.39714 -2.73632,0.77872 -4.13166,1.07577c-1.27438,0.27129 -2.50228,1.06227 -3.79791,0.92448c-0.06714,-0.00714 -0.13404,-0.01549 -0.20072,-0.02497l-0.00051,0.03858l-2.30082,-0.03035c-0.45257,0.0029 -0.89095,-0.24087 -1.11582,-0.66922c-0.32088,-0.61125 -0.08549,-1.36689 0.52576,-1.68777c0.07689,-0.04036 0.15606,-0.07192 0.23636,-0.09504l1.42214,-0.43875l0.00328,0.01063l0.02397,-0.0187c4.02761,-1.04459 8.04875,-1.82818 11.99913,-3.18448c0.20049,-0.06884 0.39907,-0.14421 0.5961,-0.22433c-3.72699,0.50133 -7.47623,0.82383 -11.23094,0.57856c-0.8051,-0.05259 -4.42433,-0.48662 -4.53721,-0.57649c-0.14097,-0.11223 -0.25846,-0.24235 -0.35835,-0.38586l-0.03326,0.02318l-0.84028,-1.20591c-0.03383,-0.04707 -0.06479,-0.09706 -0.09251,-0.14986c-0.32088,-0.61125 -0.08549,-1.36689 0.52576,-1.68777c0.26034,-0.13667 0.54687,-0.17243 0.81484,-0.12122l1.56246,0.28332c0.504,0.03389 0.97881,0.06447 1.43142,0.09545l-0.43251,-0.57966c-0.04414,-0.05708 -0.08392,-0.11879 -0.11862,-0.18489c-0.32088,-0.61125 -0.08549,-1.36689 0.52576,-1.68777c0.28687,-0.15059 0.60554,-0.17867 0.89615,-0.10287l1.33043,0.34135l-0.00088,0.00344l0.01133,-0.00071c0.01787,0.00556 0.03655,0.01146 0.05597,0.01767c-0.3358,-0.57957 -0.56866,-1.22457 -0.62988,-1.87694c-0.03456,-0.36835 0.83931,-0.34222 0.85145,-0.71199c0.00916,-0.27923 -0.64112,0.0528 -0.82286,-0.1594c-0.00738,-0.00861 -0.01472,-0.01725 -0.02202,-0.02592l-0.00346,0.00389l-1.1594,-1.03019c-0.11902,-0.10088 -0.22102,-0.22589 -0.29799,-0.37252c-0.32088,-0.61125 -0.08549,-1.36689 0.52576,-1.68777c0.26034,-0.13667 0.54687,-0.17243 0.81484,-0.12122l1.53399,0.27816c1.47778,-0.00054 3.26361,-0.82913 4.89805,-1.389c0.11319,-0.40217 0.43018,-0.76425 0.61051,-1.15322l0.3205,-1.17976c-1.24443,-0.34649 -2.50107,-0.61235 -3.77522,-0.80637l-0.41371,0.57178l-0.00424,-0.00307l-0.00358,0.01375c-0.85001,1.11649 -1.82056,2.14952 -2.87659,3.07357c0,0 -0.72394,0.62945 -1.45484,0.15128c-0.67574,0.39036 -1.3625,0.49378 -1.9614,0.06089c-0.79866,-0.57728 -0.57633,-1.91028 -0.46604,-2.92162l-1.31089,1.05911c-0.06785,0.05706 -0.14285,0.10773 -0.22457,0.15063c-0.61125,0.32088 -1.36689,0.08549 -1.68777,-0.52576c-0.00066,-0.00126 -0.00132,-0.00252 -0.00198,-0.00378c-0.52326,0.29097 -0.98931,0.55044 -1.35666,0.77011l-2.83796,0.54981c0.45721,-1.20388 0.94183,-2.2225 1.46836,-3.1561c-0.1028,-0.07934 -0.19439,-0.17574 -0.27012,-0.28772l-1.24903,0.75795c-0.02505,0.01548 -0.05081,0.03019 -0.07728,0.04409c-0.61125,0.32088 -1.36689,0.08549 -1.68777,-0.52576c-0.1328,-0.25297 -0.17032,-0.53068 -0.12535,-0.79206c-0.10765,0.07863 -0.21431,0.15808 -0.31964,0.23856c-0.0631,0.08726 -0.12686,0.17277 -0.19191,0.25636c-0.40091,0.65112 -0.79977,1.3058 -1.2009,1.96243l-0.01639,0.01123l0.00648,0.00422l-0.78886,1.2099l-0.11518,0.26878c-0.10838,0.25858 -0.30396,0.48243 -0.5716,0.62293c-0.61125,0.32088 -1.36689,0.08549 -1.68777,-0.52576c-0.1544,-0.29411 -0.18001,-0.62165 -0.09693,-0.91811l0.50775,-1.8291l0.2702,0.07501c0.08164,-0.15098 0.16353,-0.30109 0.24574,-0.4503c1.02362,-4.85951 4.74466,-8.75049 8.80587,-11.90511c0.8039,-0.81895 1.69402,-1.63213 2.22155,-1.83358c0.03853,-0.01471 0.07723,-0.02876 0.1161,-0.04217l-0.01052,-0.02004l1.64648,-0.86433c0.61125,-0.32088 1.36689,-0.08549 1.68777,0.52576c0.30527,0.5815 0.10708,1.29369 -0.43921,1.6379l-1.69829,1.09692c-0.12805,0.09038 -0.25537,0.18121 -0.38194,0.27252c0.01352,0.02227 0.02643,0.04511 0.0387,0.06849c0.2325,0.44289 0.17296,0.96157 -0.10998,1.33577l-1.05392,1.45663c0.01779,0.02819 0.03461,0.05732 0.05037,0.08735c0.00199,0.0038 0.00397,0.00761 0.00592,0.01142l0.04327,-0.05604c0.10871,-0.14743 0.25166,-0.27315 0.42474,-0.36401c0.21689,-0.11386 0.45196,-0.15768 0.67934,-0.13952c0.23908,-0.17898 0.51633,-0.24034 0.66837,-0.26127c0.77982,-0.45207 1.22415,-0.92468 1.71524,-0.95586c0.08017,-0.05117 0.16023,-0.1025 0.24018,-0.15401l1.13393,-0.89392c0.06463,-0.05297 0.13557,-0.10021 0.21246,-0.14057c0.61125,-0.32088 1.36689,-0.08549 1.68777,0.52576c0.28583,0.54448 0.13028,1.20353 -0.33914,1.56781l-1.08811,0.87912l-0.01065,-0.01318l-0.08338,0.06573l-0.12051,-0.15287c-0.00206,0.00231 -0.00413,0.00461 -0.00619,0.00691l0.0796,0.18133c-0.72654,0.4699 -1.46151,0.92669 -2.20045,1.37699c0.07146,0.07796 0.13412,0.16634 0.18559,0.2644c0.23909,0.45544 0.16935,0.99104 -0.13459,1.36724l-0.79254,1.02656c-0.0402,0.05312 -0.08033,0.10666 -0.12039,0.16058c0.1113,-0.0699 0.22221,-0.13724 0.33259,-0.20166c0.23796,-0.28344 0.49311,-0.58114 0.76701,-0.90007l0.0583,-0.03062l-0.01349,-0.01419l1.7912,-1.70242c0.08656,-0.0861 0.18729,-0.16087 0.30104,-0.22058c0.61125,-0.32088 1.36689,-0.08549 1.68777,0.52576c0.21342,0.40655 0.18076,0.87697 -0.04489,1.24086l-0.27442,0.45971c0.88898,-0.45167 1.85099,-0.85618 2.96327,-1.20747l-0.69918,2.05253c0.81791,0.00013 1.70681,0.17293 3.08896,0.42627l0.00969,0.00702l0.00099,-0.00492l1.28141,0.25857c0.14419,0.0279 0.28296,0.08099 0.40932,0.15709l0.79214,0.20672c0.15075,0.03875 0.29403,0.10542 0.42153,0.19741c1.40685,0.34107 2.6795,0.86821 3.361,1.744c0.04202,0.054 0.08262,0.10889 0.12193,0.16458l0.02655,-0.02376l0.58874,0.65796l0.06007,-0.07542l1.24188,0.98909c0.14111,0.10729 0.26153,0.24645 0.34937,0.41377c0.32088,0.61125 0.08549,1.36689 -0.52576,1.68777c-0.36013,0.18906 -0.77039,0.18501 -1.11232,0.02477l-0.46038,-0.21032c-0.08561,-0.01374 -0.16954,-0.03632 -0.25038,-0.06729l-0.49217,-0.18591c-0.08502,0.43834 -0.22194,0.87796 -0.4065,1.29119c-0.56193,1.25815 -1.72835,2.23128 -2.807,2.44049c-1.32652,1.2154 -3.656,1.50102 -5.23815,1.4407l-0.007,-0.00514c-0.06328,0.39284 -0.81895,0.63994 -0.86814,1.08485c-0.14317,1.29486 2.65309,1.7984 2.40843,3.07797c-0.09592,0.5017 -0.29749,0.85429 -0.56819,1.09459l1.27684,0.13014c0.39616,0.03448 0.7679,0.25713 0.978,0.62519c3.57091,-0.29812 7.12871,-0.91097 10.64944,-1.46074l1.19664,-0.22372c0.53358,-0.1126 1.09831,0.13582 1.3643,0.6425c0.31065,0.59176 0.09994,1.31885 -0.46844,1.65577l-2.13296,1.28714l-0.19362,-0.32085c-0.85629,0.61281 -1.74521,1.14874 -2.66116,1.62392c0.15006,0.45581 0.02278,0.95552 -0.31504,1.28468l-1.72937,1.76548c-0.34475,0.45235 -0.72141,0.85159 -1.1323,1.13421c-0.23172,0.15938 -0.46838,0.311 -0.70935,0.45575c0.37521,0.06055 0.7183,0.29084 0.90856,0.65325c0.24109,0.45925 0.16816,1.00001 -0.14226,1.37665l-1.24245,1.57804l-0.02672,-0.02104c-0.06528,0.08577 -0.13421,0.169 -0.20738,0.24926c-0.41477,0.45495 -3.13798,1.1835 -3.78508,1.32807c-3.98973,0.89136 -7.10696,0.21962 -10.67011,-1.62956l-0.65972,-0.77382c0,0 -0.58101,-1.10677 0.52576,-1.68777z" fill="#989898"></path><path d="M345.54096,138.90968c-0.44018,-1.16993 0.72975,-1.61011 0.72975,-1.61011l1.22707,-0.44554c0.51405,-0.40911 2.39243,-1.73492 2.5971,-2.52908c0.29915,-1.16079 -1.09794,-2.13635 -1.5295,-3.25469c-0.08704,-0.22555 -0.18191,-0.45924 -0.28236,-0.69978l-0.87299,-1.48546l0.18685,-0.10981c-0.10826,-0.25062 -0.21725,-0.50495 -0.32502,-0.76187c-1.10226,-1.73062 -1.74684,-3.60325 -2.58035,-5.94603l0.00642,-0.04792l-0.01908,0.0053l-0.34764,-1.25135c-0.16848,-0.56164 0.07829,-1.18195 0.6169,-1.46469c0.21899,-0.11496 0.4565,-0.15852 0.68592,-0.13898c-0.02882,-0.2186 -0.05448,-0.43718 -0.07663,-0.6557c-0.10575,-0.4892 -0.21756,-0.97861 -0.341,-1.46613l-0.02539,-0.08675l-0.01745,0.00485l-0.34763,-1.25135c-0.14322,-0.47743 0.01364,-0.99726 0.39475,-1.31608c-1.01225,-1.25491 -2.20831,-2.3934 -3.71917,-3.3493c-1.10589,-0.69968 -2.4528,-1.08699 -3.8614,-1.37863c-0.10645,0.13767 -0.24349,0.25521 -0.40765,0.34138c-0.21177,0.11117 -0.44087,0.15557 -0.66321,0.14071l-1.43479,-0.07026l0.84607,0.32807c0.27446,0.10475 0.51334,0.30612 0.66062,0.58668c0.02177,0.04147 0.04098,0.08359 0.05768,0.12621c0.02559,0.03795 0.04936,0.07769 0.07112,0.11915c0.32088,0.61125 0.08549,1.36689 -0.52576,1.68777c-0.27374,0.1437 -0.57645,0.17584 -0.85609,0.11262l-1.33961,-0.2934l-0.20301,-0.011l0.00232,-0.04287l-0.02539,0.00394c-0.03395,-0.00927 -0.06842,-0.01818 -0.10338,-0.02677c0.08045,0.25158 0.07679,0.51602 0.00022,0.7574l1.65445,0.63278c0.27655,0.1042 0.51743,0.30631 0.6656,0.58857c0.12558,0.23922 0.16596,0.50056 0.13195,0.74929l1.17288,0.43376c0.2816,0.10283 0.52733,0.30669 0.67765,0.59304c0.22974,0.43764 0.17433,0.94931 -0.10003,1.32242c1.64975,2.34873 2.56856,4.41468 2.72036,6.82455c0.07978,0.05075 0.15427,0.11086 0.22166,0.17978c0.08882,-0.09044 0.19301,-0.16879 0.31127,-0.23088c0.54212,-0.28459 1.19783,-0.13162 1.56307,0.33306l0.0933,-0.15376c0.11416,-0.19568 0.28287,-0.36271 0.49824,-0.47578c0.61125,-0.32088 1.36689,-0.08549 1.68777,0.52576c0.0694,0.13221 0.11279,0.27117 0.13197,0.41103l0.22777,1.4141l-0.03169,0.0051l0.04325,0.0896c0.01786,2.12875 -0.03047,3.52025 -0.38937,4.99418c0.00083,0.01922 0.00163,0.03842 0.00241,0.05759l0.29673,0.05082l-0.30029,1.75345c-0.10227,2.19092 -0.56829,4.19299 -1.36897,6.44868c0,0 -0.41953,1.1775 -1.59702,0.75797c-1.1775,-0.41953 -0.75797,-1.59702 -0.75797,-1.59702c0.45231,-1.26447 0.78521,-2.42225 0.99292,-3.58666c-0.50184,0.06244 -1.01242,-0.18555 -1.26135,-0.65974c-0.08632,-0.16444 -0.13239,-0.33933 -0.14171,-0.51339l-0.05342,-0.70016c-0.04453,-0.05743 -0.08464,-0.11956 -0.1196,-0.18615c-0.07868,-0.14989 -0.12392,-0.30846 -0.13837,-0.46717l-0.07689,-0.67125l-0.31337,0.73128c-0.10838,0.25859 -0.30396,0.48244 -0.5716,0.62294c-0.23978,0.12587 -0.50177,0.16615 -0.75102,0.13172c-0.11092,0.15931 -0.2607,0.29506 -0.44446,0.39152c-0.61125,0.32088 -1.36689,0.08549 -1.68777,-0.52576c-0.1435,-0.27335 -0.17575,-0.57557 -0.11289,-0.85487l0.30634,-1.40588l0.00868,0.00189c-0.00055,-0.01092 -0.00107,-0.02185 -0.00154,-0.03278c-0.10231,-2.3627 1.66673,-4.69974 1.41837,-7.21587c-0.19354,-1.96071 -1.435,-3.66349 -2.54629,-5.18845l-1.3238,-1.04883c-0.14217,-0.10754 -0.26348,-0.24735 -0.35182,-0.41564c-0.06706,-0.12775 -0.10983,-0.2618 -0.12994,-0.39688c-1.78214,0.05045 -3.6703,-0.76662 -5.44665,-1.15624l-1.45784,-0.12415c-0.41832,-0.02898 -0.81233,-0.26774 -1.02154,-0.66626c-0.21451,-0.40863 -0.18042,-0.88178 0.04836,-1.24644c-0.09488,-0.091 -0.1769,-0.19865 -0.24138,-0.32146c-0.32088,-0.61125 -0.08549,-1.36689 0.52576,-1.68777c0.1849,-0.09707 0.38301,-0.14323 0.57831,-0.14349l1.23262,-0.02759l-0.38621,-0.18298c-0.24159,-0.1113 -0.44969,-0.30026 -0.58288,-0.55398c-0.04341,-0.08268 -0.07663,-0.16801 -0.10013,-0.25454l-0.12687,-0.04922c-0.2744,-0.10476 -0.5132,-0.30611 -0.66046,-0.58662c-0.32088,-0.61125 -0.08549,-1.36689 0.52576,-1.68777l1.1262,-0.59121l-0.13813,-0.02914c-0.35545,-0.07228 -0.67666,-0.29791 -0.85841,-0.64411c-0.32088,-0.61125 -0.08549,-1.36689 0.52576,-1.68777c0.22812,-0.11975 0.47635,-0.16203 0.71459,-0.13621l2.47136,0.22967l-0.02408,0.25912c0.15841,0.0302 0.31193,0.05987 0.46102,0.0893c6.84469,-0.08695 13.60908,3.02087 17.65659,8.81986c0.90268,1.2933 1.58316,2.689 2.24212,4.09543c0.54565,-0.13502 1.13318,0.11297 1.40613,0.63292c0.02034,0.03874 0.03844,0.07805 0.05435,0.1178l0.77019,1.86223c0.21996,0.50812 0.33804,1.04594 0.39052,1.5989l0.25391,-0.04089l0.36724,2.28015c0.09712,0.52454 -0.15139,1.07306 -0.6485,1.33402c-0.61125,0.32088 -1.36689,0.08549 -1.68777,-0.52576l-0.30337,-0.57789c-0.0577,0.4416 -0.11353,0.90312 -0.14489,1.39773l-0.02086,0.04687l0.01477,0.00213l-0.22412,1.5526c-0.04951,0.37473 -0.26779,0.7215 -0.61793,0.92186l0.03006,0.12875c0.07215,0.19068 0.14604,0.3842 0.22201,0.58075c0.15241,0.39435 1.80445,3.86444 1.67609,4.45191c-0.45381,2.07702 -2.36541,3.22669 -3.84622,4.4005l-1.57906,0.61025c0,0 -1.16993,0.44018 -1.61011,-0.72975zM349.36953,123.74506c0.10345,-0.50191 0.2298,-0.97487 0.38582,-1.45271l-0.17104,-0.03727l0.07487,-0.34362c-0.42345,-0.79782 -0.83146,-1.59641 -1.24541,-2.38494c0.00863,0.14134 0.01973,0.28103 0.03519,0.41791c0.28269,1.27337 0.57115,2.54526 0.92057,3.80063z" fill="#989898"></path><path d="M308.92315,134.95515c0.86446,-0.90288 1.76735,-0.03842 1.76735,-0.03842l0.0741,0.0885c0.57383,1.33286 0.07402,-1.54539 2.40963,-2.07178c0.82952,-0.18696 1.53335,0.7356 2.30002,1.1034c0,0 1.0509,0.67684 0.37405,1.72774c-0.67684,1.0509 -1.72774,0.37405 -1.72774,0.37405c-1.32497,-1.75446 -0.728,1.71974 -2.72404,1.96232c-0.77489,0.09417 -1.39119,-0.70843 -2.08678,-1.06265l-0.34817,-0.31581c0,0 -0.90288,-0.86446 -0.03842,-1.76735z" fill="#989898"></path><path d="M327.5196,150.43646c-0.09023,1.24674 -1.33697,1.15651 -1.33697,1.15651l-0.52634,-0.08658c-2.02384,0.424 -3.93343,1.11007 -6.04296,1.0653c-4.58741,-0.09736 -7.54731,-3.5444 -10.25534,-6.7837c-4.1083,-5.64107 -6.36723,-12.29848 -7.93177,-19.06185c-0.40009,-1.72956 -1.31029,-5.2883 -0.73287,-7.07274c0.44634,-1.37933 2.86999,-3.1965 3.93884,-4.09868c2.69901,-2.27814 5.20458,-4.0589 8.23308,-5.12056l-0.16422,-0.37789l2.28312,-0.9922c0.59719,-0.26627 1.30649,-0.02591 1.6147,0.56119c0.28325,0.53958 0.13305,1.19166 -0.32653,1.55789l-1.00525,0.83504l-0.00418,-0.00503c-0.30483,0.15761 -0.629,0.28329 -0.91096,0.47862c-0.50902,0.35262 1.2287,-0.16336 1.83512,-0.28863c0.77356,-0.15979 1.55713,-0.27484 2.32284,-0.46881c0.15783,-0.03998 0.31626,-0.08319 0.47522,-0.12924c0.01495,-0.81467 0.69085,-1.74274 1.25889,-2.34838c1.15886,-1.23556 5.38531,-1.84981 6.95956,-2.12985l3.72239,0.39062c-0.77064,1.02537 -1.65017,1.92603 -2.61597,2.71239c1.02222,-0.16165 2.07128,-0.34009 3.09524,-0.45984c-0.19507,-0.57282 0.05034,-1.21823 0.60293,-1.50832c0.1482,-0.0778 0.30489,-0.1229 0.46182,-0.13787l1.2564,-0.14949l0.03971,0.33379c0.6614,-0.11245 1.32929,-0.13636 1.97807,-0.02363l0.02055,0.01206l0.00162,-0.00742l1.53359,0.33591c0.35139,0.07449 0.66821,0.2991 0.84821,0.64199c0.32088,0.61125 0.08549,1.36689 -0.52576,1.68777c-0.06575,0.03452 -0.13318,0.0626 -0.20155,0.08447l-0.02317,0.00785c1.50196,0.89832 3.02666,1.79914 4.51069,2.74946c0.11744,0.07232 0.23465,0.14641 0.35171,0.22238l0.17787,-0.32842l2.18348,1.18254c0.21741,0.11373 0.40363,0.29249 0.52631,0.52617c0.12356,0.23537 0.16464,0.49215 0.13354,0.73728c0.36296,0.27747 0.71969,0.56089 1.06905,0.85112c0.22709,0.09876 0.45454,0.1966 0.68242,0.29334l0.07242,-0.11414l2.09253,1.32775c0.18691,0.11384 0.34632,0.27824 0.45544,0.48612c0.32088,0.61125 0.08549,1.36689 -0.52576,1.68777c-0.40561,0.21293 -0.87479,0.18091 -1.23834,-0.04332l-1.60203,-0.95143c-1.28289,-0.53142 -2.58689,-1.03825 -3.88483,-1.55713c0.58732,1.74965 1.22333,3.46871 1.86318,5.19917l0.11229,0.21838c0.07371,0.14292 0.11718,0.29356 0.1327,0.44457c0.25481,0.69027 0.50931,1.3832 0.7607,2.08143c0.30539,0.84824 0.91607,1.9988 1.14447,3.05869c0.33434,0.08308 0.63304,0.3032 0.80577,0.63223c0.05112,0.09737 0.08812,0.19841 0.11173,0.30077l0.47692,1.88196c0.1533,0.55467 -0.0941,1.16028 -0.6244,1.43867c-0.40984,0.21515 -0.8846,0.18022 -1.2497,-0.05042c-1.2168,2.52982 -2.53013,4.73535 -4.60625,6.33448l0.2997,0.35531l-1.28953,1.0877c-0.07326,0.06443 -0.15528,0.12126 -0.24549,0.16862c-0.61125,0.32088 -1.36689,0.08549 -1.68777,-0.52576c-0.12722,-0.24235 -0.167,-0.5074 -0.13058,-0.75905c-0.362,0.2788 -0.77581,0.58982 -1.25682,0.96213l-1.84877,1.60247c-0.07651,0.06923 -0.16291,0.13004 -0.2585,0.18022c-0.61125,0.32088 -1.36689,0.08549 -1.68777,-0.52576c-0.06196,-0.11802 -0.10318,-0.24143 -0.12495,-0.36605c-0.19109,0.09726 -0.37907,0.19631 -0.55682,0.30336c-0.74329,0.44768 -1.54524,0.78985 -2.31785,1.18478l-0.04315,0.00465l0.00531,0.01235l-2.24568,0.96494c-0.59631,0.26325 -1.30299,0.02265 -1.61047,-0.56307c-0.30717,-0.58514 -0.10459,-1.30259 0.44949,-1.64431l2.10491,-1.32769l0.18872,0.29919c0.69373,-0.5679 1.41047,-1.08723 2.14864,-1.57244c-2.41351,0.29521 -5.00214,-0.11943 -7.11208,-1.1647l-0.20808,0.44115l-1.24496,-0.58722c-0.24236,-0.11119 -0.45116,-0.30046 -0.58469,-0.55481c-0.32088,-0.61125 -0.08549,-1.36689 0.52576,-1.68777c0.13747,-0.07217 0.28224,-0.1162 0.42773,-0.13414l1.62834,-0.23972l0.00018,0.0012l0.00368,-0.00176c0.41417,-0.05274 0.82663,-0.12588 1.24029,-0.18464c-0.46606,-0.20619 -0.92561,-0.42969 -1.25225,-0.55301c-2.3669,-0.89361 -4.2026,-1.39487 -6.0743,-2.30536l-0.14676,0.37539l-2.3224,-0.90796c-0.2732,-0.10507 -0.51086,-0.30599 -0.6576,-0.58552c-0.32088,-0.61125 -0.08549,-1.36689 0.52576,-1.68777c0.15167,-0.07962 0.31223,-0.12499 0.47284,-0.13887c0.00755,-0.44211 0.24996,-0.86652 0.66906,-1.08653c0.29856,-0.15673 0.63158,-0.18075 0.93155,-0.09308l2.39898,0.69723l-0.06606,0.22729c0.07605,0.0316 0.15186,0.06389 0.22735,0.0969c0.20066,0.03211 0.39912,0.06745 0.5963,0.10606c-0.70407,-1.09128 -1.39134,-2.05392 -2.00371,-3.08859c-0.01827,-0.01216 -0.03653,-0.02434 -0.05478,-0.03654l0.01369,-0.0332c-0.01319,-0.02249 -0.02635,-0.04501 -0.03947,-0.06757l-0.04064,0.04573l-0.24746,-0.21988l-0.07585,0.07259l-0.91041,-0.95127c-0.0874,-0.08725 -0.16325,-0.18903 -0.22368,-0.30415c-0.32088,-0.61125 -0.08549,-1.36689 0.52576,-1.68777c0.48273,-0.25342 1.05552,-0.15988 1.4331,0.19173l1.11056,0.98679c2.66035,1.77063 5.47766,3.13938 8.37465,4.48362c0.32929,0.1528 0.79355,0.25694 1.24135,0.37431c-0.12076,-0.19639 -0.21991,-0.38231 -0.28045,-0.52883c-0.32005,-0.77458 -0.47735,-1.60679 -0.71602,-2.41019c0,0 -0.35116,-1.19966 0.84851,-1.55082c1.19966,-0.35116 1.55082,0.84851 1.55082,0.84851c0.16754,0.58229 2.44552,5.5612 2.18916,5.89509c-0.68158,0.88771 -2.161,0.79281 -3.27819,0.72579c-0.93322,-0.05599 -1.7355,-0.69701 -2.58934,-1.07779c-1.38326,-0.61689 -2.74179,-1.26349 -4.07286,-1.95798l0.67061,1.27745c0.54063,0.19561 1.10688,0.41345 1.7139,0.65399l0.03461,0.03006l0.00558,-0.01162l2.24189,1.07673c0.2392,0.11163 0.44511,0.29963 0.57727,0.55138c0.21368,0.40704 0.18069,0.87811 -0.04571,1.24218c0.60417,0.28039 1.12037,0.61884 1.09862,1.19253c-0.02145,0.56562 -0.38225,1.01663 -0.865,1.39359c1.91722,-0.03379 4.2897,-0.011 5.4891,0.74994c1.23479,-0.63655 2.51438,-1.24625 3.83293,-1.88181l0.02384,-0.00184l-0.00325,-0.00741l1.04523,-0.45808l0.85965,-0.79406c0.08361,-0.08077 0.17998,-0.15115 0.28812,-0.20791c0.44376,-0.23295 0.96362,-0.17273 1.33797,0.11166c0.78745,-1.16788 1.58948,-2.2841 1.98788,-3.12061c-0.4247,-1.28116 -1.23102,-3.85444 -1.32673,-4.12025c-0.29872,-0.82964 -0.60207,-1.65192 -0.9052,-2.47122l-0.90042,-1.54687l0.15147,-0.08817c-0.03306,-0.08524 -0.06588,-0.16987 -0.09843,-0.25392c-2.15651,-2.41223 -4.0679,-5.217 -6.02812,-7.84695c-0.75136,-0.44986 -1.47872,-0.93372 -2.17492,-1.46122l-0.22165,0.34016l-1.54354,-1.00578c-1.87874,0.34091 -3.85183,0.45402 -6.08481,0.52088c-0.3694,0.01106 -1.10008,0.04148 -1.92964,0.03508c-2.09472,0.80104 -4.34836,1.29449 -6.63479,1.53837c-1.58868,0.16946 -3.90322,0.73466 -4.52483,-1.06683c-1.83472,1.39446 -4.183,2.50746 -5.78311,3.85614c-0.69326,0.58433 -2.9331,2.14664 -3.19263,3.01799c-0.38466,1.2915 0.5169,4.42229 0.80986,5.6765c1.49273,6.3905 3.56805,12.75711 7.4665,18.0884c2.16006,2.5835 4.62299,5.7842 8.34759,5.82388c1.88903,0.02012 3.64699,-0.6302 5.46747,-1.01278l1.2202,0.03982c0,0 1.24674,0.09023 1.15651,1.33697z" fill="#818181"></path></g><g stroke="#000000" stroke-width="1.5"><path d="M317.68946,153.36838c-16.70182,14.03404 -41.61815,11.87137 -55.6522,-4.83046c-14.03404,-16.70182 -11.87137,-41.61815 4.83045,-55.6522c16.70182,-14.03404 41.61815,-11.87137 55.6522,4.83045c14.03404,16.70182 11.87137,41.61815 -4.83045,55.6522z" data-paper-data="{&quot;index&quot;:null}" fill="#d8d8d8" stroke-linecap="butt"></path><path d="M303.63035,110.16489l-5.14652,-6.12483l6.24712,-6.55542" data-paper-data="{&quot;index&quot;:null}" fill="none" stroke-linecap="round"></path><path d="M282.89216,116.46892l7.53374,-5.02422l5.14652,6.12482" data-paper-data="{&quot;index&quot;:null}" fill="none" stroke-linecap="round"></path><path d="M314.27459,124.6456l-6.10111,4.8647" fill="none" stroke-linecap="round"></path></g><g stroke="none" stroke-width="0.5" stroke-linecap="butt"><path d="M263.17005,129.46524c0.82843,0 1.5,0.67157 1.5,1.5c0,0.16876 -0.02787,0.331 -0.07925,0.48239l-0.54289,1.73046c-0.02862,0.09283 -0.05634,0.18596 -0.08326,0.27934c0.17735,-0.21217 0.35715,-0.40088 0.53929,-0.56065c0.07317,-0.06419 0.14807,-0.12588 0.22451,-0.18533l-0.01792,-0.02176l2.02411,-1.66696c0.26037,-0.21772 0.59571,-0.34877 0.96165,-0.34877c0.82842,0 1.5,0.67157 1.5,1.5c0,0.04962 -0.00241,0.09868 -0.00712,0.14708l-0.18318,2.12053l-0.04206,-0.00363l0.02301,0.14511c-0.14176,0.50298 -0.29826,1.21166 -0.48776,2.00045c0.13609,-0.11398 0.27598,-0.22626 0.42042,-0.3374l-0.2201,-0.2518l2.25321,-1.96956c0.26449,-0.23366 0.61203,-0.37545 0.9927,-0.37545c0.11393,0 0.22489,0.0127 0.33155,0.03677c0.45426,-0.46743 1.08972,-0.75783 1.793,-0.75783c0.35577,0 0.69419,0.07432 1.00057,0.20827l0.67754,0.27784l-0.71587,-0.56617c-0.58909,-0.45736 -0.96818,-1.17235 -0.96818,-1.97588c0,-1.21352 0.86462,-2.2251 2.01144,-2.45229l-0.00336,-0.00305l-2.09382,-1.57119c-0.62014,-0.45495 -1.02274,-1.18899 -1.02274,-2.01706c0,-1.38071 1.11929,-2.5 2.5,-2.5c0.3674,0 0.71629,0.07926 1.0305,0.2216l2.3507,1.00105l0.36995,0.11593c0,0 1.86062,0.62428 1.73166,2.41513l2.10237,1.90971c0.12605,0.11364 0.24049,0.23993 0.34128,0.37687c0.57089,-0.65269 1.69671,-0.61167 2.66309,-0.76995l-0.03178,-0.28788l0.02883,-0.00318c-0.57457,-0.99908 -0.84619,-2.16383 0.56133,-3.05709c0.21946,-0.13928 0.45631,-0.19144 0.70435,-0.18747c0.0335,-0.03276 0.06924,-0.06538 0.10732,-0.09781c1.14203,-0.9725 2.11454,0.16953 2.11454,0.16953l0.40362,0.4977l1.47188,1.29636c0.31536,0.27498 0.51464,0.67971 0.51464,1.13099c0,0.82843 -0.67157,1.5 -1.5,1.5c-0.33302,0 -0.64068,-0.10853 -0.88957,-0.29213l-0.42697,-0.30699l0.21871,1.98125c0.00755,0.06099 0.01144,0.12312 0.01144,0.18615c0,0.82843 -0.67158,1.5 -1.5,1.5c-0.02362,0 -0.0471,-0.00055 -0.07045,-0.00163c0.20497,0.31286 0.36185,0.62005 0.42246,0.8619c0.01043,0.04159 0.02016,0.08328 0.02924,0.12506l0.01815,-0.00637l0.54269,1.54769c0.06208,0.16459 0.09605,0.34296 0.09605,0.52927c0,0.18166 -0.03229,0.35578 -0.09145,0.51693c0.26248,0.13116 0.48113,0.33702 0.62806,0.58972l0.07592,0.12555c0.19611,-0.18466 0.44196,-0.3171 0.71531,-0.37509c0.13775,-0.53183 0.61366,-1.03231 1.6327,-1.43337c0.67678,-0.26636 1.34785,0.01829 2.01755,0.43739c0.23232,-0.52776 0.7599,-0.89623 1.37353,-0.89623c0.4378,0 0.8318,0.18756 1.10602,0.48671l1.19733,1.2979l-0.40287,0.37166l0.20939,0.50056c0.08299,0.1863 0.12912,0.39264 0.12912,0.60976c0,0.55066 -0.29673,1.03202 -0.73901,1.2929c0.00001,0.00293 0.00002,0.00586 0.00002,0.00879c0,0.82843 -0.67157,1.5 -1.5,1.5c-0.43908,0 -0.83411,-0.18866 -1.10842,-0.48934l0.10745,1.26172c0.00458,0.04773 0.00692,0.09611 0.00692,0.14505c0,0.82843 -0.67157,1.5 -1.5,1.5c-0.36311,0 -0.69609,-0.12903 -0.95559,-0.34373c-0.11641,0.71252 -0.73485,1.25629 -1.4803,1.25629c-0.47262,0 -0.8942,-0.21858 -1.16914,-0.56017c-0.12787,0.69869 -0.73981,1.22824 -1.47544,1.22824c-0.02817,0 -0.05616,-0.00078 -0.08394,-0.00231l-0.07495,2.48947c0.02205,-0.00096 0.04422,-0.00145 0.06651,-0.00145c0.82843,0 1.5,0.67157 1.5,1.5c0,0.02878 -0.00081,0.05738 -0.00241,0.08577l-0.01486,0.29927c0.1974,-0.18386 0.3976,-0.40131 0.58874,-0.51034l0.01484,0.55409l0.41355,0.34238c0.24827,-0.58019 0.49499,-1.16748 0.91801,-0.94365c0.50249,0.2659 0.80417,0.73657 1.03839,1.27604c0.04166,0.00061 0.0829,0.00292 0.12368,0.00686l0.63329,-1.21692c0.24501,-0.49515 0.75535,-0.83562 1.34522,-0.83562c0.82842,0 1.5,0.67157 1.5,1.5c0,0.09317 -0.0085,0.18436 -0.02475,0.27283l-0.01568,0.09472c0.3082,0.27472 0.50228,0.67474 0.50228,1.12009c0,0.12895 -0.01627,0.25411 -0.04687,0.37352l-0.36199,1.54855l-0.35644,-0.08333c-0.03644,0.28002 -0.0916,0.5426 -0.16687,0.80221c0.34303,0.27489 0.56268,0.69737 0.56268,1.17115c0,0.32989 -0.10649,0.63491 -0.28699,0.88255l-1.37529,1.93806l-0.05393,-0.03826l-0.05693,0.17641c-0.05741,0.02385 -0.11482,0.0477 -0.17223,0.07155l0.04586,0.05257l-1.11396,0.97176c-1.05037,1.57163 -2.87048,3.24653 -3.8147,4.38477c0.17001,0.2432 0.26974,0.53915 0.26974,0.8584c0,0.72621 -0.51608,1.3319 -1.2015,1.47029l-1.60211,0.35837c-0.11505,0.02827 -0.23532,0.04326 -0.35909,0.04326c-0.45285,0 -0.85883,-0.20068 -1.13387,-0.51796l-0.27858,-0.01476l0.01123,-0.21207c-2.98575,1.40002 -6.70075,0.73518 -10.01593,0.83098l-0.05471,-0.02123l-0.0009,0.01974l-1.88878,-0.08587c-0.80064,-0.03146 -1.44006,-0.69047 -1.44006,-1.49882c0,-0.61977 0.37588,-1.15175 0.9121,-1.38041l1.81644,-0.82277l0.156,0.34441c0.3035,-0.17985 0.61313,-0.34777 0.9286,-0.5014l-2.47042,-0.88386c2.88493,-3.1639 4.48343,-3.16669 8.5976,-3.87233l0.10653,0.03994l-0.00143,-0.04684l0.71236,-0.02167c0.15548,-0.02919 0.34971,-0.04622 0.55429,-0.01686l0.296,-0.009c0.01756,-0.00061 0.03519,-0.00091 0.05289,-0.00091c0.82842,0 1.5,0.67157 1.5,1.5c0,0.68739 -0.46237,1.26678 -1.09307,1.44414l-2.05876,0.63068c-0.09572,0.03176 -0.1957,0.05414 -0.29889,0.06605c0.30385,0.27451 0.49478,0.67164 0.49478,1.11336c0,0.44882 -0.19712,0.85161 -0.50951,1.1265c0.04072,-0.0038 0.08126,-0.00784 0.12159,-0.01212c1.60208,-0.17015 1.70438,-1.07816 3.59232,-0.72638c0.04578,0.00853 0.09146,0.01743 0.13706,0.02668l0.00136,-0.02575l0.91156,0.04829l0.6358,-0.79996c1.21794,-1.62678 2.88606,-4.45461 4.57717,-6.10802l0.04115,-0.09203l0.02148,0.0096l0.00717,-0.07005c0.04531,-0.08124 0.08858,-0.16372 0.13018,-0.24704c-0.02737,0.00149 -0.05492,0.00224 -0.08265,0.00224c-0.82843,0 -1.5,-0.67157 -1.5,-1.5c0,-0.09509 0.00885,-0.18812 0.02577,-0.2783c-0.06173,0.00774 -0.12464,0.01173 -0.18847,0.01173c-0.73303,0 -1.34325,-0.52582 -1.47407,-1.22085l-0.09205,-0.4401c-0.41473,0.26411 -0.83644,0.55995 -1.13176,0.28083c-0.00833,-0.00788 -0.01621,-0.01587 -0.02366,-0.02399c-0.8119,0.5736 -1.62379,1.1472 -2.43569,1.7208l0.31668,-3.40734l-0.01299,-0.00645l0.46055,-0.92712c-0.05003,-0.26667 -0.14843,-0.50826 -0.33911,-0.70202c-0.12267,1.28526 -0.34555,2.54694 -0.7337,3.93066l-0.183,0.1465l0.07745,0.04946l-0.81784,1.28054c-0.26411,0.4283 -0.73756,0.71377 -1.27769,0.71377c-0.82843,0 -1.5,-0.67157 -1.5,-1.5c0,-0.02308 0.00053,-0.04603 0.00156,-0.06885l0.07155,-1.80093c-0.26846,0.40579 -0.72893,0.67342 -1.25191,0.67342c-0.33019,0 -0.63546,-0.10668 -0.88322,-0.28747l-0.81595,-0.57975l0.02921,0.03921c0.19225,0.25216 0.30642,0.56707 0.30642,0.90864c0,0.5878 -0.33809,1.09662 -0.83042,1.34263c0.05916,0.16115 0.09145,0.33527 0.09145,0.51693c0,0.82843 -0.67158,1.5 -1.5,1.5c-0.1302,0 -0.25651,-0.01659 -0.37696,-0.04776c0.07844,0.18196 0.1219,0.38255 0.1219,0.59329c0,0.82843 -0.67158,1.5 -1.5,1.5c-0.23578,0 -0.45885,-0.0544 -0.65735,-0.15133l-2.18795,-1.00938l0.01043,-0.0226c-1.37686,-0.63706 -2.89801,-1.23909 -4.26274,-2.00294c0.84481,1.18784 1.67039,2.35519 2.46117,3.56344l0.17928,-0.16697l2.04201,2.19245c0.25119,0.26819 0.405,0.62873 0.405,1.02518c0,0.82843 -0.67158,1.5 -1.5,1.5c-0.25329,0 -0.4919,-0.06277 -0.70115,-0.17362l-1.34224,-0.67553c-0.27382,0.29363 -0.66409,0.47723 -1.09725,0.47723c-0.25328,0 -0.49189,-0.06277 -0.70114,-0.17361l-1.45114,-0.73032c0,0 -1.07248,-0.53974 -0.81552,-1.61296l-0.06537,-0.07128l-1.16328,-0.85176c-0.38075,-0.27204 -0.62895,-0.71769 -0.62895,-1.22132c0,-0.82843 0.67158,-1.5 1.5,-1.5c0.07742,0 0.15346,0.00586 0.22771,0.01717c-0.4753,-0.72065 -0.93444,-1.46264 -1.42021,-2.1623l-1.16832,-1.44736c-0.21248,-0.25885 -0.34002,-0.59008 -0.34002,-0.95111c0,-0.82843 0.67157,-1.5 1.5,-1.5c0.09743,0 0.19269,0.00929 0.28494,0.02703l1.76778,0.30679c0.26506,-0.42382 0.73595,-0.70571 1.27268,-0.70571c0.10955,0 0.21635,0.01174 0.31922,0.03403l1.5344,0.30136c-0.40657,-0.26833 -0.67482,-0.72926 -0.67482,-1.25283c0,-0.02403 0.00057,-0.04793 0.00169,-0.07169l0.09197,-2.22183l0.0264,0.0011c-0.00367,-0.06108 -0.00623,-0.12231 -0.0076,-0.1837c-0.0156,-0.69647 0.13151,-1.48528 0.36937,-2.31085c-0.21417,0.30048 -0.42167,0.60223 -0.61745,0.90659l-0.05455,0.03518l0.01846,0.01411l-0.91374,1.19566c-0.27355,0.36562 -0.71004,0.60226 -1.2018,0.60226c-0.82843,0 -1.5,-0.67157 -1.5,-1.5c0,-0.05688 0.00317,-0.11303 0.00933,-0.16827l0.18276,-1.83958l0.02592,0.00258c0.00045,-0.0658 0.00259,-0.13171 0.00658,-0.19775c0.01894,-0.31375 0.07461,-0.65014 0.15791,-1.00268c-0.31795,0.48947 -0.62541,0.97006 -0.90618,1.44078l-0.80913,1.4479c-0.25248,0.47265 -0.75065,0.79427 -1.32395,0.79427c-0.55566,0 -1.04074,-0.30213 -1.29995,-0.75108l-0.17827,0.29093c-0.26088,0.44232 -0.74225,0.73907 -1.29294,0.73907c-0.79999,0 -1.45371,-0.62626 -1.49765,-1.41526l-0.18403,-2.8711l0.02824,-0.00181c-0.00973,-0.07805 -0.018,-0.15637 -0.02468,-0.23499c-0.05143,-0.60465 0.03296,-1.28742 0.20287,-2.00686c-0.24482,-0.26694 -0.39423,-0.6228 -0.39423,-1.01355c0,-0.16261 0.02588,-0.31918 0.07373,-0.46581l0.85477,-2.83925l0.38841,0.11693c0.19045,-0.87167 0.47715,-1.71009 0.911,-2.48056l0.76999,-0.73525c0,0 0.04772,-0.03602 0.13129,-0.08416l0.43745,-0.85865c0.24265,-0.50167 0.75648,-0.84768 1.35112,-0.84768c0.63286,0 1.17417,0.39192 1.39449,0.94628c0.26622,-0.24137 0.61953,-0.38841 1.00718,-0.38841zM273.44541,139.2848l0.09385,-0.24292c0.04149,-0.29165 0.12384,-0.54128 0.23393,-0.75492l-0.32778,-0.2337zM278.63207,145.00617l0.16013,-0.09091l1.09535,1.92944c0.13256,0.22368 0.20866,0.48477 0.20866,0.76364c0,0.18936 -0.03509,0.37052 -0.09912,0.53734l0.26482,0.47388c0.12955,0.22184 0.20379,0.47993 0.20379,0.75536c0,0.10984 -0.0118,0.21692 -0.03422,0.32004l0.28313,0.01125c0.00874,-0.9415 0.13995,-1.86847 0.45694,-2.73793l0.01569,-0.02063l-0.00636,-0.00261l0.51828,-1.26073c0.01334,-0.52281 0.01573,-1.05622 0.01566,-1.60913c0,0 0,-0.62009 0.39869,-1.06289c-0.42156,-0.41488 -0.74743,-1.02211 -1.2186,-1.37674c-0.1231,-0.09265 -0.24103,-0.18176 -0.35406,-0.26782c-0.41331,0.33573 -0.93591,0.54215 -1.50617,0.55759l-1.24787,0.03925c0.30801,1.03813 0.59242,2.02883 0.84526,3.0416zM271.85461,143.98105c-0.12471,0.30656 -0.25649,0.60925 -0.38807,0.90242c0.24129,-0.16577 0.5335,-0.26279 0.84837,-0.26279c0.17075,0 0.33484,0.02853 0.48776,0.08109l1.60708,0.51083l-0.3211,-0.48481c-0.736,0.0714 -1.54657,-0.27477 -2.23404,-0.74674zM283.60645,142.13332c-0.18722,-0.10841 -0.26045,0.13669 -0.32292,0.44293c0.3243,0.01022 0.57511,0.09276 0.76909,0.21431c-0.06137,-0.27803 -0.19056,-0.50923 -0.44618,-0.65724zM286.51896,135.91865l-0.96679,-0.64875c0.23032,0.6004 0.41604,1.26699 0.51922,1.91578c0.03283,-0.00215 0.06597,-0.00324 0.09934,-0.00324c0.10096,0 0.1996,0.00997 0.29497,0.02899l0.1641,-0.90851c0.01539,-0.09527 0.03975,-0.18755 0.07219,-0.27592c-0.06373,-0.03185 -0.12488,-0.06809 -0.18304,-0.10835zM283.72448,131.11994c-0.03434,-0.06483 -0.06758,-0.12986 -0.09962,-0.19494c-0.0303,0.06348 -0.06319,0.12549 -0.09855,0.18588c0.06606,-0.00066 0.13211,0.00248 0.19817,0.00906z" fill="#989898"></path><path d="M268.15471,121.70042l2.18643,0.55018c0.6669,0.15239 1.16448,0.74925 1.16448,1.46233c0,0.78757 -0.60696,1.43338 -1.37863,1.49517l-2.01687,0.18455v0c-1.69368,0.1582 -4.4488,0.33823 -4.68511,2.30802c0,0 -0.36158,1.45577 -1.81735,1.0942c-1.45577,-0.36157 -1.0942,-1.81735 -1.0942,-1.81735c0.70339,-2.27961 2.20466,-3.38717 4.1161,-3.97953c0.16563,-0.43939 0.5316,-0.78056 0.98655,-0.91213l1.412,-0.44414c0.15169,-0.05161 0.31431,-0.07962 0.48346,-0.07962c0.22963,0 0.4472,0.0516 0.64177,0.14383z" fill="#989898"></path><path d="M288.52919,129.94248c0,0.69036 -0.55964,1.25 -1.25,1.25c-0.27516,0 -0.52956,-0.08891 -0.73603,-0.23956l-1.5583,-1.10721l0.01663,-0.0234l-0.0844,-0.02832c-1.18644,-1.11197 -2.38841,-2.13291 -3.66626,-3.11476c0.56752,1.02604 1.13613,2.04502 1.69379,3.07158l0.90359,0.66147c0.31736,0.22669 0.52424,0.59811 0.52424,1.01785c0,0.69036 -0.55964,1.25 -1.25,1.25c-0.21915,0 -0.42513,-0.0564 -0.60421,-0.15547l-1.84576,-0.97317c-1.15216,-0.3692 -2.29522,-0.78806 -3.37719,-1.32926c0,0 -1.11656,-0.56195 -0.55461,-1.67851c0.56195,-1.11656 1.67851,-0.55461 1.67851,-0.55461c0.22189,0.11246 0.44693,0.21853 0.67445,0.31926c-0.45626,-0.93105 -0.84114,-1.82117 -1.03017,-2.30457c-0.3093,-0.79096 -1.24225,-1.75078 -0.74231,-2.43733c0.58824,-0.8078 1.94981,-0.70998 2.94085,-0.58183c0.1663,0.0215 0.33981,0.06558 0.51893,0.12902l-0.37769,-0.46465c-0.17858,-0.21615 -0.28588,-0.49337 -0.28588,-0.79565c0,-0.62903 0.46463,-1.14954 1.06942,-1.23705c0.21007,-0.39491 0.62579,-0.66379 1.1043,-0.66379c0.17554,0 0.34263,0.03618 0.49421,0.1015l1.29864,0.52435l-0.00999,0.02474l0.08456,0.00824c3.72047,2.09718 7.5037,4.07541 10.37762,7.0447c0.04439,0.02956 0.08892,0.0594 0.13362,0.08951l0.2815,-0.31257l1.75093,1.57691c0.25628,0.22891 0.41762,0.56189 0.41762,0.93256c0,0.69036 -0.55964,1.25 -1.25,1.25c-0.23478,0 -0.45444,-0.06473 -0.64211,-0.17731l-1.27434,-0.73297l0.0121,-0.02104l-0.06118,-0.00871c-0.62065,-0.43736 -1.22724,-0.76623 -1.7816,-1.08747c-0.22516,0.219 -0.53257,0.35388 -0.87147,0.35388c-0.06809,0 -0.13491,-0.00544 -0.20005,-0.01592c-0.166,0.4956 -0.63407,0.85273 -1.18555,0.85273c-0.34677,0 -0.66057,-0.14121 -0.88702,-0.36926l-0.5642,-0.5679c0.07368,0.15936 0.11479,0.33686 0.11479,0.52397z" fill="#787878"></path><path d="M265.49943,138.71864c-1.24493,0.11244 -1.35737,-1.1325 -1.35737,-1.1325l-0.0763,-0.90628c-0.30461,-2.39639 0.13836,-0.62453 -0.95665,0.93828l-0.89121,2.24266c-0.17655,0.47613 -0.63485,0.81545 -1.1724,0.81545c-0.04076,0 -0.08106,-0.00195 -0.12082,-0.00576c-0.11096,0.24781 -0.2278,0.4911 -0.3514,0.72909c-0.45364,0.87349 -0.70314,2.31004 -1.6803,2.42807c-0.97915,0.11827 -1.54681,-0.30518 -1.87106,-0.96138l-0.42958,1.15306c-0.16943,0.48947 -0.63444,0.84095 -1.18154,0.84095c-0.69036,0 -1.25,-0.55964 -1.25,-1.25c0,-0.1004 0.01184,-0.19803 0.03419,-0.29158l0.52524,-2.41685l0.29129,0.0633c0.00375,-0.01324 0.00749,-0.0265 0.01123,-0.03977c0.1853,-2.47584 0.76691,-4.72655 1.54791,-7.45663l0.05613,-0.0678l-0.02479,-0.01086l0.70071,-1.59871c0.18711,-0.45449 0.63437,-0.77445 1.15636,-0.77445c0.3628,0 0.68949,0.15456 0.91784,0.40142c0.08558,0.01893 0.16786,0.04664 0.24585,0.08212l0.00026,-0.00039c0.22221,-0.34651 0.61079,-0.57613 1.05299,-0.57613c0.20199,0 0.39279,0.04791 0.56165,0.13298c0.0034,-0.00995 0.00679,-0.0199 0.01017,-0.02984c0,0 0.40304,-1.18324 1.58628,-0.78021c1.18324,0.40304 0.78021,1.58628 0.78021,1.58628c-0.14381,0.42198 -0.27745,0.85497 -0.40491,1.29542c0.83522,-0.3901 1.85454,-0.15514 2.90088,1.22783c0.38431,0.50794 0.27546,1.24375 0.4132,1.86562l0.10844,1.13924c0,0 0.11244,1.24493 -1.1325,1.35737z" fill="#787878"></path><path d="M273.41948,153.58625c-0.58517,1.10457 -1.68974,0.5194 -1.68974,0.5194l-0.16482,-0.08923c0.10188,0.32406 0.18629,0.65525 0.25525,0.99095l0.43474,-0.07198l0.36565,2.20832c0.01355,0.07372 0.02062,0.1497 0.02062,0.22734c0,0.6887 -0.55697,1.24732 -1.24504,1.24999c0.02881,0.10532 0.0442,0.21619 0.0442,0.33065c0,0.69036 -0.55964,1.25 -1.25,1.25c-0.22404,0 -0.43431,-0.05894 -0.61615,-0.16216l-1.18032,-0.63974l0.02471,-0.04558l-0.12611,-0.01577c-1.70901,-1.40138 -2.81917,-2.64621 -3.78424,-4.32066l-0.21516,-0.22908c-0.2014,-0.21337 -0.32851,-0.49761 -0.33997,-0.81138c-0.1179,-0.23766 -0.2349,-0.48417 -0.35193,-0.74072c0,0 -0.51445,-1.13923 0.62477,-1.65368c1.13923,-0.51445 1.65368,0.62477 1.65368,0.62477c0.13844,0.31012 0.27533,0.60166 0.41345,0.87795l1.70411,0.87446l-0.09354,0.18229c0.48858,0.16475 0.97032,0.347 1.44207,0.5509c-0.19755,-0.29806 -0.38427,-0.60351 -0.5667,-0.90747l-0.89271,-1.258c-0.15041,-0.20637 -0.23915,-0.46055 -0.23915,-0.73547c0,-0.69036 0.55964,-1.25 1.25,-1.25c0.07861,0 0.15553,0.00726 0.23013,0.02114l1.63939,0.27503l-0.01086,0.06472c0.0684,-0.00528 0.13679,-0.01056 0.20519,-0.01584l1.9391,1.0091c0,0 1.10457,0.58517 0.5194,1.68974z" fill="#787878"></path><path d="M285.98301,159.52421c0.35725,1.19786 -0.84061,1.55511 -0.84061,1.55511l-0.09833,0.02933c-0.14678,0.04375 -0.29504,0.09308 -0.44431,0.14609c-0.11987,0.41112 -0.44524,0.73465 -0.85746,0.85192l-1.17376,0.36351l-0.01443,-0.04659l-0.08066,0.07198c-0.28257,0.0411 -0.564,0.08081 -0.84468,0.11865c-0.24537,0.09386 -0.51797,0.10845 -0.79768,0.10229c-1.35376,0.1639 -2.69916,0.27338 -4.08231,0.27452c0,0 -1.25,0 -1.25,-1.25c0,-1.25 1.25,-1.25 1.25,-1.25c0.39135,0.00035 0.77959,-0.00885 1.16592,-0.0261c0.03088,-0.01055 0.06231,-0.01993 0.09422,-0.02808l1.6363,-0.45751l0.06375,0.228c0.06421,-0.00521 0.12846,-0.00986 0.19273,-0.01395c1.31179,-0.60134 2.61616,-0.93978 4.42787,-1.48045l0.09833,-0.02933c0,0 1.19786,-0.35725 1.55511,0.84061z" fill="#787878"></path><path d="M291.59722,149.95489c1.18663,-0.39296 1.57959,0.79366 1.57959,0.79366l0.08378,0.25389c0.03698,0.10915 0.06727,0.22315 0.09066,0.34032c0.30626,-0.48149 0.59677,-0.97331 0.87729,-1.46923c0,0 0.61713,-1.08704 1.70417,-0.46992c1.08704,0.61713 0.46992,1.70417 0.46992,1.70417c-0.66653,1.17015 -1.38204,2.31969 -2.20839,3.38302l-0.71953,0.99582c-0.22623,0.32119 -0.59994,0.53103 -1.02267,0.53103c-0.69036,0 -1.25,-0.55964 -1.25,-1.25c0,-0.02183 0.00056,-0.04353 0.00167,-0.06509l0.07857,-1.73965c-0.11366,-0.37893 -0.23791,-0.75436 -0.37777,-1.12446l-0.10096,-0.30397c0,0 -0.39296,-1.18663 0.79366,-1.57959z" fill="#787878"></path><path d="M286.21395,145.46984c0,-0.69036 0.55964,-1.25 1.25,-1.25c0.69036,0 1.25,0.55964 1.25,1.25c0,0.69036 -0.55964,1.25 -1.25,1.25c-0.69036,0 -1.25,-0.55964 -1.25,-1.25z" fill="#787878"></path><path d="M270.39166,121.62022c-0.03957,-0.66788 0.5801,-1.08372 0.5801,-1.08372l1.2977,-0.35528l1.35953,0.36492c0.54648,0.13365 0.952,0.6266 0.952,1.21426c0,0.54192 -0.34485,1.00329 -0.82708,1.17664l-1.35608,0.52346c-2.06211,0.90412 -3.98066,1.83574 -5.86681,3.06645c0,0 -1.04743,0.68219 -1.72962,-0.36524c-0.68219,-1.04743 0.36524,-1.72962 0.36524,-1.72962c1.69369,-1.10119 3.41339,-1.98472 5.22501,-2.81187z" fill="#787878"></path><path d="M292.55101,139.84913c-0.64103,-0.3821 -0.67123,-0.91879 -0.59147,-1.28929c-0.89563,0.64115 -2.13625,0.82694 -3.30793,-0.99925c-0.45171,-0.70405 0.18034,-1.66325 0.27051,-2.49487c0,0 0.26948,-1.22061 1.49009,-0.95112c1.22061,0.26948 0.95112,1.49009 0.95112,1.49009c-1.33333,2.42587 1.23551,-2.14317 2.46461,-1.58351c3.07127,1.39847 1.4841,3.37567 0.72725,4.90645l-0.29044,0.4878c0,0 -0.64002,1.07372 -1.71374,0.4337z" fill="#787878"></path></g></g></g></svg>