<svg version="1.1" xmlns="http://www.w3.org/2000/svg" xmlns:xlink="http://www.w3.org/1999/xlink" width="101.48066" height="98.01703" viewBox="0,0,101.48066,98.01703"><g transform="translate(-179.38854,-133.73177)"><g data-paper-data="{&quot;isPaintingLayer&quot;:true}" fill-rule="nonzero" stroke="#000000" stroke-linejoin="miter" stroke-miterlimit="10" stroke-dasharray="" stroke-dashoffset="0" style="mix-blend-mode: normal"><path d="M199.4885,186.22941c0,-21.81525 17.68475,-39.5 39.5,-39.5c21.81525,0 39.5,17.68475 39.5,39.5c0,21.81525 -17.68475,39.5 -39.5,39.5c-21.81525,0 -39.5,-17.68475 -39.5,-39.5z" fill="#d8d8d8" stroke-width="1.5" stroke-linecap="butt"></path><path d="M230.78361,182.83067v-8" fill="none" stroke-width="1.5" stroke-linecap="round"></path><path d="" data-paper-data="{&quot;index&quot;:null}" fill="none" stroke-width="1.5" stroke-linecap="round"></path><path d="M237.80575,175.09105v8" fill="none" stroke-width="1.5" stroke-linecap="round"></path><g stroke-linecap="butt"><path d="M180.28024,219.93597v-39.20997h37.17169v39.20997c0,0 -15.19427,8.53892 -17.91362,10.06715c-0.80178,0.45059 -1.55727,0.87516 -1.55727,0.87516z" fill="#008c04" stroke-width="1.5"></path><path d="M196.2172,231.54981v-51.72473h4.15075v51.72473z" fill="#00ff08" stroke-width="0"></path><path d="M217.70316,199.7146h-38.31462v-4.15075h38.31462z" fill="#00ff08" stroke-width="0"></path></g><path d="M225.35149,204.11801l24.05023,-2.92199" fill="none" stroke-width="1.5" stroke-linecap="round"></path><g data-paper-data="{&quot;index&quot;:null}" stroke-width="1"><path d="M271.03019,223.36578l-3.11261,-19.80785l7.78165,-1.22282l3.11261,19.80785z" fill="#e8ff00" stroke-linecap="butt"></path><path d="M279.92452,200.30486l-3.20622,2.59814l-8.94365,1.47602l-4.0737,-1.52481l3.6328,-2.79855l9.44174,-1.1731z" fill="#8f8f8f" stroke-linecap="butt"></path><path d="M268.41806,200.79062l-11.84405,-59.06134l4.75518,-7.26075l6.29669,5.10054l7.15651,60.20423z" fill="#dddddd" stroke-linecap="butt"></path><path d="M271.41798,199.54109l-7.06435,-43.20044" fill="none" stroke-linecap="round"></path></g></g></g></svg>