<svg version="1.1" xmlns="http://www.w3.org/2000/svg" xmlns:xlink="http://www.w3.org/1999/xlink" width="304.0779" height="167.32504" viewBox="0,0,304.0779,167.32504"><defs><linearGradient x1="-23.85038" y1="190.51045" x2="243.92894" y2="190.51045" gradientUnits="userSpaceOnUse" id="color-1"><stop offset="0" stop-color="#e7ff00"></stop><stop offset="1" stop-color="#e7ff00" stop-opacity="0"></stop></linearGradient></defs><g transform="translate(23.85037,-106.84795)"><g data-paper-data="{&quot;isPaintingLayer&quot;:true}" fill-rule="nonzero" stroke-linejoin="miter" stroke-miterlimit="10" stroke-dasharray="" stroke-dashoffset="0" style="mix-blend-mode: normal"><path d="" data-paper-data="{&quot;index&quot;:null}" fill="none" stroke="#000000" stroke-width="1.5" stroke-linecap="round"></path><path d="M201.57391,189.01425c-5.12497,-21.20471 7.91024,-42.54913 29.11495,-47.6741c21.20471,-5.12497 42.54913,7.91024 47.6741,29.11495c5.12497,21.20471 -7.91024,42.54913 -29.11495,47.6741c-21.20471,5.12497 -42.54913,-7.91024 -47.6741,-29.11495z" fill="#d8d8d8" stroke="#000000" stroke-width="1.5" stroke-linecap="butt"></path><path d="M228.10499,177.06124l-2.53254,-9.49095" fill="none" stroke="#000000" stroke-width="1.5" stroke-linecap="round"></path><path d="M238.107,164.46633l2.53254,9.49095" fill="none" stroke="#000000" stroke-width="1.5" stroke-linecap="round"></path><path d="M232.45507,193.1727l10.64977,-2.57394" fill="none" stroke="#000000" stroke-width="1.5" stroke-linecap="round"></path><path d="M199.33459,189.3651c-4.7886,-19.81297 7.39106,-39.75649 27.20404,-44.54508c19.81297,-4.7886 39.75649,7.39106 44.54508,27.20404c4.7886,19.81297 -7.39106,39.75649 -27.20404,44.54508c-19.81297,4.7886 -39.75649,-7.39106 -44.54508,-27.20404z" fill="#8900b2" stroke="#000000" stroke-width="1" stroke-linecap="butt"></path><path d="M267.36071,163.54987l-2.79921,-3.98454l5.31273,-3.73228l2.79921,3.98454z" fill="#000000" stroke="#000000" stroke-width="1" stroke-linecap="butt"></path><path d="M270.8297,191.9157l2.04527,-4.64179l5.19879,2.29071l-2.04527,4.64179z" fill="#000000" stroke="#000000" stroke-width="1" stroke-linecap="butt"></path><path d="M213.41138,205.76501l1.71076,-5.45661l38.5197,-8.26722l-7.17846,-30.06418l-33.33182,3.3942l-6.64516,-2.45266l5.25968,-5.97214l42.65505,-4.2559l10.52754,44.4217l-45.42737,11.40709z" fill="#e7ff00" stroke="#000000" stroke-width="0" stroke-linecap="butt"></path><path d="M208.11447,181.41154l13.87437,0.40399l-6.85444,10.04215" fill="none" stroke="#e7ff00" stroke-width="3" stroke-linecap="round"></path><path d="M219.77707,183.42975l-12.40328,6.5463" fill="none" stroke="#e7ff00" stroke-width="3" stroke-linecap="round"></path><path d="M229.488,176.41597l12.40329,-6.5463" fill="none" stroke="#e7ff00" stroke-width="3" stroke-linecap="round"></path><path d="M241.12201,179.24008l-13.87437,-0.40399l6.85444,-10.04215" data-paper-data="{&quot;index&quot;:null}" fill="none" stroke="#e7ff00" stroke-width="3" stroke-linecap="round"></path><path d="M108.05439,183.6108c-0.86163,0.12051 -1.72033,0.25137 -2.57503,0.39247c0.2188,0.02726 0.43468,0.04672 0.64446,0.04816c1.63997,0.01125 3.30251,0.0675 4.96062,0.07052c-0.44376,-0.11144 -0.85742,-0.2104 -1.21036,-0.26212c-0.60169,-0.08816 -1.2087,-0.17163 -1.81969,-0.24903zM129.56295,201.20384c-4.41097,0.56558 -8.81175,0.98478 -13.24701,1.3475c-1.36289,0.11146 -2.72437,0.22356 -4.08587,0.32903c2.74313,0.18314 5.48501,0.37858 8.22925,0.5375c3.16767,-0.63999 6.32129,-1.34144 9.46229,-2.11215c-0.0861,-0.02375 -0.17166,-0.04789 -0.25661,-0.07249c-0.034,-0.00985 -0.06802,-0.01964 -0.10206,-0.02938zM131.97054,201.8246c-2.52471,0.64201 -5.05741,1.23836 -7.59883,1.79312c3.61059,0.21806 8.60806,1.17884 11.86065,0.0883c0.67344,-0.2258 -1.17085,-0.82205 -1.82328,-1.10284c-0.76216,-0.32801 -1.59689,-0.5646 -2.43854,-0.77858zM116.57385,204.17127c-1.94888,-0.13056 -3.89754,-0.26687 -5.84777,-0.3888c-1.12319,-0.07022 -2.26721,-0.08345 -3.39875,-0.15981l0.33346,0.21359c1.20488,-0.06277 2.35225,-0.08935 3.51851,0.14026l0.0018,-0.00013l0.01258,-0.15002l0.99176,0.08321c0.25884,0.01897 0.46294,0.23497 0.46294,0.49864c0,0.2655 -0.20694,0.48268 -0.46832,0.49902l-0.9933,0.07132c-1.23657,0.08871 -2.55144,0.16422 -3.90564,0.20262l-0.1632,0.03417c-2.14684,0.44948 -4.29695,0.90726 -6.45366,1.32842c4.09096,-0.22175 8.11451,-1.00777 12.30769,-1.72837c1.20277,-0.2067 2.40339,-0.42127 3.60192,-0.64411zM107.01583,203.59992c0.06102,0.0378 0.12157,0.07647 0.18164,0.11603l0.06271,-0.0979c-0.08152,-0.00569 -0.16297,-0.01172 -0.24434,-0.01813zM93.08979,206.18347c0.75983,0.12393 1.51293,0.21777 2.26066,0.28507c2.4286,-0.37421 4.84555,-0.84009 7.25556,-1.3334c-0.08006,-0.00436 -0.1601,-0.00892 -0.24012,-0.0137c-1.70749,0.11415 -3.41207,0.26837 -5.10287,0.50311c-1.35465,0.18807 -2.81157,0.7766 -4.17323,0.55893zM104.06356,203.98832c0.46966,-0.01412 0.93203,-0.02803 1.38449,-0.04426c-0.64476,-0.25147 -1.30078,-0.51721 -1.97957,-0.60245c-1.78712,-0.22443 -3.63631,-0.21032 -5.46881,-0.09237c0.55443,0.12967 1.07734,0.2539 1.51234,0.30693c1.53761,0.18746 3.04682,0.33688 4.55155,0.43215zM59.50167,185.4779c-1.31475,0.15109 -2.62453,0.34528 -3.929,0.57171c0.30926,0.07326 0.61126,0.14865 0.89428,0.20152c2.29527,0.42873 4.66293,0.84268 7.00658,0.90186c-0.68319,-0.31813 -1.31057,-0.77829 -2.02742,-1.05629c-0.6302,-0.2444 -1.28124,-0.44626 -1.94443,-0.6188zM95.94194,182.25325c3.84752,-0.37822 8.84843,-0.49268 13.39715,0.17781c4.44213,-0.56107 8.94532,-0.84955 13.36812,-0.84955c3.15126,0.0107 6.53817,1.34119 9.59757,2.09025c0.61538,0.15067 2.93658,0.4441 3.25065,0.99317c0.34939,0.6108 -0.93742,1.72413 -1.23562,1.91708c-1.62488,1.05139 -4.00809,1.3513 -5.84983,1.85966c-3.23307,0.89239 -6.43979,1.66486 -9.71125,2.23061c1.97137,-0.0135 3.94427,-0.00181 5.92395,0.04555c3.134,0.07497 7.15048,-0.47829 10.0964,0.58928c0.33784,0.12243 2.05825,0.7142 2.1664,0.96126c0.52555,1.20061 -1.00279,1.46061 -1.54464,1.65317c-2.17982,0.77465 -4.47882,1.72148 -6.76508,2.0668c-4.54475,0.67802 -9.10392,1.16465 -13.65456,1.80619c-0.41506,0.05851 -0.92006,0.18451 -1.46091,0.31946c5.38729,0.361 10.98451,0.64181 16.09156,2.06459c1.85347,-0.2634 3.71238,-0.50845 5.55259,-0.31034l-0.00431,-0.11971l0.99653,-0.03582c0.00689,-0.00028 0.01383,-0.00043 0.02079,-0.00043c0.27614,0 0.5,0.22386 0.5,0.5c0,0.23612 -0.16367,0.43401 -0.38375,0.48642c-0.52511,0.13743 -1.96562,0.5144 -2.49073,0.65183c0.67307,0.2327 1.32198,0.51008 1.91927,0.86855c0.51251,0.30759 1.9558,0.91316 1.3829,1.97507c-0.24188,0.44835 -2.84461,0.66158 -3.36648,0.69981c-3.28928,0.24098 -6.75502,-0.19551 -10.0511,-0.308c-1.05107,-0.04677 -2.10145,-0.1023 -3.1514,-0.16344c-2.45633,0.49501 -4.92108,0.95328 -7.39487,1.37841c-5.31677,0.9137 -10.45703,2.1558 -15.84888,1.73096c-0.60855,-0.04795 -1.17186,-0.05912 -1.70067,-0.08894c-1.08814,0.16876 -2.1786,0.31945 -3.27178,0.4464c-4.63913,0.53875 -9.28337,1.00536 -13.93064,1.46799c-0.05133,0.00511 -0.10448,0.01112 -0.15933,0.01792c5.13841,0.12633 10.87426,0.01676 15.62984,1.51539l0.00813,-0.06623l0.98605,0.12109c0.25052,0.02713 0.44554,0.23933 0.44554,0.49707c0,0.23515 -0.16233,0.43239 -0.38104,0.48576l-0.95552,0.25597l-0.00244,-0.0091l-0.02848,0.01634c-1.9921,0.27194 -3.98461,0.541 -5.97697,0.811c-6.80889,0.92272 -13.74782,0.14278 -20.5759,-0.23183c-3.99452,-0.21915 -7.98865,-0.44828 -11.98195,-0.6887c-1.17634,-0.07083 -3.50679,-0.31303 -4.0564,-1.62658c-0.37754,-0.9023 0.27917,-3.66178 0.27564,-4.75679c-0.02271,-7.05865 -1.50429,-13.66862 -3.19577,-20.47084c-0.10139,-0.40823 -0.57031,-2.09278 -0.37707,-2.38623c0.33933,-0.51531 3.44297,0.33132 4.03727,0.37411c2.26842,0.1633 5.15771,0.44688 7.77501,1.21675c0.33247,-0.03558 0.66525,-0.06839 0.99832,-0.09824c0.06842,-0.00614 0.13683,-0.01232 0.20524,-0.01854c-0.46544,-0.09366 -0.92155,-0.20421 -1.36657,-0.33353l-0.00923,0.09171l-0.98944,-0.09959c-0.25527,-0.02254 -0.45546,-0.23691 -0.45546,-0.49804c0,-0.26296 0.20299,-0.4785 0.46082,-0.49849l0.7877,-0.06982c3.3036,-0.36253 6.6886,-0.55229 10.01062,-0.55124c5.94635,-0.4219 11.76676,-0.46519 17.72227,-0.46519c0,0 0.5,0 0.5,0.5c0,0.5 -0.5,0.5 -0.5,0.5c-2.03047,0 -4.04489,0.00566 -6.05385,0.02969c-0.01433,0.1294 -0.07804,0.24391 -0.17186,0.32426c4.95961,-0.12553 10.07367,-0.513 14.94746,-0.99215zM67.46653,183.38044c0.03216,-0.00072 0.06431,-0.00145 0.09647,-0.00219c-0.03216,0.00072 -0.06431,0.00145 -0.09647,0.00219z" fill="#8900b2" stroke="none" stroke-width="0.5" stroke-linecap="butt"></path><path d="M133.34554,116.13091c-3.50985,0.1472 -6.93802,0.6479 -10.33301,1.34494c1.50634,0.08114 2.99747,0.21027 4.46073,0.42068c0,0 0.49491,0.07116 0.42374,0.56607c-0.07116,0.49491 -0.56607,0.42374 -0.56607,0.42374c-2.6606,-0.38258 -5.41474,-0.49407 -8.18479,-0.53755c-1.91865,0.46805 -3.83254,0.98017 -5.75059,1.50751c-4.98863,0.90913 -12.18144,3.20302 -17.62975,1.95572c-1.9109,0.33808 -4.07107,0.69166 -6.22652,0.8422c0.11133,0.0917 0.18232,0.23063 0.18232,0.38613c0,0.20443 -0.12269,0.38021 -0.29845,0.45772l-0.69893,0.32666l-0.00644,-0.01378l-0.04241,0.03355c-1.62898,0.37917 -3.21798,0.90901 -4.81746,1.39688c-4.46387,1.35834 -9.37629,2.08546 -14.05069,2.3567c0.40432,0.3697 0.56237,0.91908 0.29187,1.73207c-0.2813,0.84547 -1.65557,1.70044 -2.30228,2.26266c-4.21535,3.66463 -8.64787,6.46483 -13.39644,9.07746c0.45871,-0.05684 0.91721,-0.10811 1.37544,-0.15269c6.80299,-0.37123 13.63223,-0.75018 20.44615,-0.7878c5.83993,-0.03224 12.86119,-1.3195 18.68899,0.1003l0.00381,-0.07375l0.9956,0.05138c0.26561,0.01187 0.4773,0.23096 0.4773,0.49949c0,0.23769 -0.16586,0.43665 -0.38815,0.48744l-0.95959,0.24148l-0.00145,-0.00577l-0.01783,0.01022c-0.98206,0.1663 -1.96285,0.33194 -2.94139,0.51802c-4.782,0.90919 -9.56298,1.82134 -14.34104,2.74955c4.34975,-0.1111 8.96853,-0.15915 12.70669,1.12282l0.01341,-0.09322l0.98251,0.14128c0.24599,0.03136 0.43615,0.24145 0.43615,0.49596c0,0.27614 -0.22386,0.5 -0.5,0.5h-0.91183c-3.06332,0.19479 -6.11536,0.42845 -9.16879,0.64463c0.13487,0.08955 0.22377,0.24281 0.22377,0.41683c0,0.23296 -0.15932,0.42871 -0.37494,0.48423l-0.95191,0.2683c-5.59596,1.57551 -11.44507,2.5202 -17.16144,3.67101c5.40659,-0.16176 12.47189,-1.05235 17.49572,0.75815l0.02289,-0.10158l0.96585,0.21766c0.2281,0.04642 0.39976,0.24814 0.39976,0.48995c0,0.23769 -0.16586,0.43665 -0.38816,0.48744l-0.95959,0.24148l-0.00383,-0.01523l-0.04755,0.02533c-0.95903,0.03846 -1.91817,0.07367 -2.87732,0.10913c-0.34637,0.01281 -0.69262,0.02569 -1.03877,0.03854c2.44346,0.30999 4.79236,0.81672 6.81075,1.67969l0.02023,-0.08845l0.96507,0.22077c0.22735,0.047 0.39825,0.24836 0.39825,0.48964c0,0.27614 -0.22386,0.5 -0.5,0.5h-0.7689c-5.13085,0.01992 -10.6334,1.42512 -15.74382,2.08886c-4.81166,0.62493 -9.98978,0.73643 -14.76607,-0.22453c-0.06739,-0.01356 -0.13427,-0.02664 -0.20065,-0.03932c-4.89783,0.45796 -9.79948,0.91653 -14.70339,1.21306c-1.09981,0.06646 -2.22479,0.14615 -3.3626,0.21543c-1.57662,2.95567 -3.11875,6.00471 -3.8498,9.21462c-0.01545,0.06783 -0.03016,0.1355 -0.04421,0.20304c0.46349,-0.33258 0.94907,-0.56784 1.3205,-0.4941c0.9674,0.19204 1.18486,1.2757 1.43517,1.98349c0.90642,2.56298 0.38643,5.80251 -0.97311,8.13473c-2.38586,1.54305 -3.06534,-1.76141 -3.25135,-3.84112c-0.05759,-0.08147 -0.09142,-0.18092 -0.09142,-0.28828v-1c0,-0.14816 0.06444,-0.28127 0.16682,-0.37282c-0.05928,-0.35016 -0.05751,-0.73711 -0.02357,-1.13488c-1.3309,1.74755 -2.56738,3.50759 -3.75343,5.38679c-2.26691,3.59174 -4.36111,7.47835 -5.80346,11.47962c-0.37603,1.04315 -0.72317,2.73633 -1.28292,4.10578c-0.17479,0.57782 -0.34514,1.12771 -0.50095,1.63983l-0.0291,0.03224l0.01206,0.00599l-0.44005,0.88585c-0.07992,0.16978 -0.25255,0.28729 -0.45263,0.28729c-0.27614,0 -0.5,-0.22386 -0.5,-0.5c0,-0.03574 0.00375,-0.0706 0.01088,-0.10422l0.18662,-0.97212l0.18149,0.03484c0.11855,-0.90955 0.39261,-1.77981 0.71357,-2.65172c0.51754,-2.8615 0.66042,-5.85008 1.20627,-8.59178c-1.18817,3.21227 -1.92166,6.85109 -3.33867,9.88859l0.07834,0.01796l-0.22123,0.96495c-0.04709,0.22724 -0.24839,0.39803 -0.48959,0.39803c-0.27614,0 -0.5,-0.22386 -0.5,-0.5c0,-0.0221 0.00143,-0.04386 0.00421,-0.0652l0.08444,-0.72619c0.17346,-1.49176 0.39976,-3 0.47483,-4.50595c-0.14625,-0.08211 -0.24702,-0.23562 -0.25506,-0.41329l-0.05205,-0.99553l0.12108,-0.00633c-0.19147,-0.95235 -0.22331,-1.87177 -0.22349,-2.96546v-1c0,-0.13061 0.05008,-0.24952 0.13208,-0.33858c-0.07058,-0.80755 -0.15514,-1.61482 -0.22806,-2.42255c-0.34611,-4.28557 -2.76381,-2.24736 -4.36844,0.22232c-0.71409,1.09905 -1.39302,2.65544 -1.94865,4.18498c-0.08765,2.35703 -0.18403,4.69197 -1.34943,6.83182c-1.40624,-1.31067 -0.74138,-4.59753 0.44658,-7.53032c0.37799,-4.61379 1.12465,-9.37327 2.90096,-13.61447c2.70559,-6.46001 5.32041,-12.97041 8.28783,-19.31546c0.13981,-0.29895 0.28238,-0.59777 0.42761,-0.89634c0.08855,-1.3111 0.16296,-2.62396 0.16421,-3.94707c0.00019,-0.20403 -0.00306,-0.43812 0.00039,-0.68683l-0.34091,0.01222c-0.00688,0.00028 -0.01379,0.00042 -0.02074,0.00042c-0.27614,0 -0.5,-0.22386 -0.5,-0.5c0,-0.26294 0.20296,-0.47847 0.46076,-0.49848l0.47331,-0.04202c0.09545,-0.63756 0.31174,-1.24016 0.79805,-1.58079c0.38097,-0.26684 1.69268,0.19289 2.00945,0.28154c0.2362,0.0661 0.47435,0.13825 0.71352,0.21599c2.1956,-3.48939 4.69533,-6.82061 7.36132,-9.79987c4.50591,-5.03538 10.72235,-9.32471 17.06207,-11.76938c6.4891,-2.48889 13.77647,-3.28192 20.61385,-4.28106c6.89312,-1.00653 14.02823,-1.17433 20.98299,-1.54635c7.02355,-0.39795 13.84065,-0.0399 20.84832,0.375c3.08051,0.18238 6.25632,0.14853 9.41461,0.19513c4.69292,-1.14093 9.41642,-2.01422 14.29208,-2.21869c0.26375,-0.01086 0.52638,-0.01316 0.78851,-0.00977c0.18348,-0.24177 0.51227,-0.16017 0.51227,-0.16017l0.63007,0.15804c0.04739,0.0168 0.09492,0.03404 0.14243,0.05183c0.22245,0.01215 0.44528,0.02503 0.66886,0.03687l0.92475,0.04899c0.26532,0.01217 0.47669,0.23114 0.47669,0.49947c0,0.2508 -0.18465,0.45847 -0.42542,0.49448l-0.91556,0.15359l-0.03248,-0.19364l-0.08087,-0.00428c-0.8861,-0.04694 -1.76052,-0.11422 -2.64734,-0.07629zM30.62743,171.18861c-0.10592,0.95916 -0.1632,1.89926 -0.35401,2.84239c0.01148,0.03728 0.01872,0.07641 0.02115,0.11685l0.00511,0.07392l0.08817,0.00838l-0.0507,0.53341l0.02184,0.31574c0.0518,0.77108 0.74718,4.66835 1.52022,3.5774c0.95764,-1.66778 1.50735,-4.36913 1.1009,-6.27019c-0.06034,-0.28224 -0.52886,-2.16441 -0.94674,-2.20722c-0.33309,-0.03412 -0.98086,0.55912 -1.40596,1.00932zM59.14174,153.13975c1.81803,-0.01775 3.64241,0.3388 5.49133,0.35571c3.92407,0.03588 7.83395,-0.12671 11.75317,-0.27659c-0.33938,-0.04566 -0.65666,-0.08151 -0.93709,-0.09522c-4.61331,-0.22554 -9.23608,-0.14019 -13.85455,-0.14019c-1.05673,0 -2.11449,0.00213 -3.17287,0.00382l0.2844,0.02863l-0.00787,0.07818c0.14793,0.01547 0.29574,0.0307 0.44347,0.04568zM77.67409,145.53582c0.6425,0.1945 1.25277,0.42767 1.8212,0.70599c2.01279,-0.13696 4.02392,-0.28612 6.03702,-0.43105c-0.04708,-0.00371 -0.09304,-0.00675 -0.13782,-0.00907c-2.57398,-0.13309 -5.14687,-0.20203 -7.72041,-0.26588zM75.68005,146.48248c-0.78858,-0.19047 -1.57489,-0.35258 -2.34143,-0.4227c-1.17807,-0.10777 -2.36825,-0.16913 -3.56352,-0.19932c-2.60012,0.4808 -5.41262,0.91383 -8.21518,1.06417c3.34025,0.02159 6.6919,-0.1184 10.01997,-0.24484c1.36929,-0.05202 2.73563,-0.11949 4.10015,-0.19731zM51.56908,157.44918c0.53215,0.10518 1.06442,0.2276 1.5969,0.35065c1.92893,-0.18028 3.85727,-0.35953 5.78495,-0.52759c0.191,-0.0257 0.38151,-0.05082 0.5716,-0.07536c-2.64945,0.05957 -5.30183,0.19376 -7.95345,0.2523zM21.54134,144.84124c-0.37122,-0.18691 -0.77633,-0.53763 -1.04605,-0.28994c-0.1418,0.13022 -0.23996,0.32231 -0.30655,0.55179c0.43601,-0.09619 0.88792,-0.1838 1.3526,-0.26185zM33.29896,143.55793c0.52369,-0.03177 1.04516,-0.06988 1.56608,-0.11394c0.19047,-0.04796 0.38162,-0.09309 0.57328,-0.13549c0.34439,-0.00099 0.68895,-0.00741 1.03366,-0.01882c0.96743,-0.1036 1.9388,-0.22621 2.92471,-0.36526c2.09347,-0.29526 4.21101,-0.49374 6.25682,-1.02872c-0.37997,-0.12667 -0.7472,-0.31886 -1.25244,-0.37201c-3.63048,-0.38194 -8.53573,0.63968 -12.17788,1.55832c0.36761,0.11631 0.71549,0.30312 1.07577,0.47592zM31.65855,142.19365c-0.65419,0.12145 -1.30705,0.26535 -1.97159,0.44373c-0.46729,0.12543 -0.92339,0.31799 -1.39266,0.43152c0.76889,0.20568 1.74502,0.60273 2.21565,0.59551c0.15215,-0.00233 0.30388,-0.00524 0.45524,-0.00869l-0.52464,-0.2082c-0.19057,-0.07056 -0.32641,-0.25394 -0.32641,-0.46904c0,-0.23681 0.16463,-0.43517 0.38568,-0.48687l0.9582,-0.24653c0.06634,-0.01705 0.13319,-0.0342 0.20053,-0.05143zM47.76137,141.71836c0.0056,0.01148 0.01077,0.0232 0.0155,0.03515c0.03649,-0.00674 0.07298,-0.01348 0.10947,-0.02021c-0.04163,-0.00503 -0.08329,-0.01001 -0.12497,-0.01494zM31.71893,144.85969c0.06165,-0.0093 0.12332,-0.01853 0.185,-0.0277c-0.10915,0.00132 -0.2181,0.00169 -0.32681,0.00106c0.04735,0.00873 0.09462,0.01761 0.14182,0.02663z" fill="#8900b2" stroke="none" stroke-width="0.5" stroke-linecap="butt"></path><path d="M157.50822,180.17113c-2.60844,-0.22676 -5.21813,-0.43216 -7.83299,-0.60476c-1.93028,-0.12741 -4.16297,0.0375 -6.03138,-0.56293l-0.03637,0.15573l-0.70664,-0.16502c-0.2263,-0.04781 -0.39614,-0.24867 -0.39614,-0.4892c0,-0.24072 0.17012,-0.44172 0.39669,-0.48932l0.96424,-0.22397c6.26567,-1.44489 13.25296,-1.47472 19.66365,-2.38215c4.54936,-0.64395 9.08933,-1.29222 13.61761,-2.07133c0.76459,-0.13155 1.82816,-0.45749 2.86545,-0.66667c-4.60191,-0.6036 -9.19404,-0.82857 -13.84795,-1.0854c-4.67676,-0.25808 -9.32574,-0.53149 -13.98361,-1.02874c-1.67744,-0.17908 -3.56019,-0.0686 -5.04411,-0.77871l-0.09934,0.1974l-0.60619,-0.30509c-0.16846,-0.08042 -0.28485,-0.25235 -0.28485,-0.45147c0,-0.26632 0.20821,-0.48401 0.47074,-0.49916l0.8049,-0.05343c5.98553,-0.39731 11.9622,-0.81599 17.93762,-1.34488c4.64849,-0.41144 9.29699,-0.82287 13.94548,-1.23431c0.1868,-0.01654 0.39435,-0.04367 0.61689,-0.0767c-3.18831,-0.41855 -6.32288,-0.99781 -9.51303,-1.62502c-1.95496,-0.38436 -3.9918,-0.61221 -5.86471,-1.27235l-0.02259,0.11487l-0.97222,-0.19115c-0.23444,-0.04136 -0.41254,-0.24607 -0.41254,-0.49238c0,-0.26836 0.21142,-0.48734 0.47678,-0.49947c0.33287,-0.01757 1.66121,-0.0877 1.99409,-0.10528c0.57182,-0.03019 1.15699,-0.07154 1.75298,-0.12074c-0.05451,-0.08008 -0.08638,-0.17682 -0.08638,-0.281c0,-0.27614 0.22386,-0.5 0.5,-0.5c0.01964,0 0.03903,0.00113 0.05809,0.00333c0.21514,0.02217 1.41818,0.14613 1.63332,0.16829c0.79417,-0.06496 1.73533,0.074 2.53796,0.14379c0.21213,-0.02267 0.42476,-0.04529 0.6378,-0.06773c-0.0034,-0.01485 -0.00638,-0.03029 -0.00893,-0.04632c-0.07848,-0.4938 0.41532,-0.57228 0.41532,-0.57228l0.94992,-0.15097c1.30873,-0.208 2.61736,-0.41661 3.92588,-0.62587c3.95442,-0.63237 10.31456,-2.26123 14.11983,-0.86567c0.71205,0.26114 2.54224,0.65091 3.03099,1.20943c0.6069,0.69352 0.39436,3.24224 0.34375,4.09526c-0.18923,3.09954 2.53152,5.77461 4.24599,8.33471c0.69934,1.04429 2.01328,2.96739 0.81749,4.26366c-1.01807,1.10361 -5.62468,1.26273 -7.11984,1.57304c-5.00086,1.03789 -9.86796,1.95018 -14.85471,2.48211c-0.06509,0.03367 -0.13851,0.05345 -0.21636,0.05544l-0.45138,0.01342c-1.70474,0.16969 -3.42472,0.29382 -5.16999,0.36227c-5.72751,0.22462 -13.15651,1.52855 -18.89712,-0.08971l-0.00629,0.08749l-0.99329,-0.07142c-0.26137,-0.01636 -0.46828,-0.23352 -0.46828,-0.49901c0,-0.2729 0.21862,-0.49473 0.49028,-0.49991l0.79171,-0.01758c1.30972,-0.03552 2.61281,-0.11123 3.9218,-0.15316z" fill="#8900b2" stroke="none" stroke-width="0.5" stroke-linecap="butt"></path><path d="M172.46403,227.68994c-0.44778,-0.22246 -0.22531,-0.67024 -0.22531,-0.67024l0.415,-0.55127c3.99502,-1.60856 8.03267,-2.6307 12.20713,-3.66017c3.85808,-0.9495 7.74698,-1.70878 11.58253,-2.80086c2.24035,-0.63789 4.51551,-1.45663 6.80365,-1.32152v-0.1568h1c0.27614,0 0.5,0.22386 0.5,0.5c0,0.20342 -0.12147,0.37846 -0.29583,0.45655l-0.76898,0.36465l-0.00049,-0.00103l-0.00305,0.00269c-2.43534,1.10861 -4.85709,2.24118 -7.33637,3.24822c-4.23603,1.72061 -8.51096,3.32444 -12.73976,5.07108c-0.49065,0.20265 -1.09728,0.51657 -1.7426,0.81508c3.52713,-0.1758 7.08609,-0.28253 10.5557,-0.72073c4.22624,-0.53155 16.15034,-2.63786 13.81285,5.10733c-0.30564,1.01273 -0.75968,1.93133 -1.30519,2.82999c-3.875,6.3627 -10.69654,9.00816 -17.21571,11.78735c-6.51095,2.7757 -13.29522,4.37042 -20.21603,5.75178c-6.51081,1.29196 -14.40537,1.4614 -21.0258,1.03753c-3.27292,-0.21028 -6.525,-0.45096 -9.77467,-0.7921c-0.04301,0.23242 -0.24677,0.40844 -0.49164,0.40844c-0.00629,0 -0.01257,-0.00012 -0.01881,-0.00035l-0.77208,-0.02507c-3.65348,-0.11863 -7.36645,-0.22025 -10.98181,-0.7963c-5.75049,-0.91822 -13.20181,-1.40711 -18.55108,-4.23376l-0.02175,0.07515l-0.94991,-0.27494c-0.21395,-0.05666 -0.37165,-0.2516 -0.37165,-0.48337c0,-0.27614 0.22386,-0.5 0.5,-0.5c0.02385,0 0.04732,0.00167 0.07028,0.0049l0.98431,0.12385l-0.00009,0.00072l0.00241,-0.00042c2.87246,0.3887 5.74491,0.77744 8.61736,1.16617c4.51923,0.61158 9.06615,0.96954 13.60326,1.42729c0.20063,0.02024 0.42698,0.03365 0.67095,0.04445c-2.33803,-0.771 -4.66065,-1.57861 -6.98904,-2.41191c-4.3547,-1.55849 -8.71134,-3.00104 -13.13755,-4.34301c-1.17408,-0.35596 -3.35229,-0.62207 -4.51349,-1.42799c-0.08639,-0.01315 -0.17277,-0.02631 -0.25916,-0.03946l-0.00539,0.01875l-0.1446,-0.04158c-0.02532,-0.00385 -0.05065,-0.00772 -0.07598,-0.01157l-0.02082,-0.01627l-0.01103,-0.00317l-0.0031,0.01021l-0.70164,-0.21276c-0.21091,-0.05867 -0.36569,-0.25214 -0.36569,-0.48176c0,-0.27614 0.22386,-0.5 0.5,-0.5c0.052,0 0.10214,0.00794 0.14929,0.02267l0.76043,0.21868c0.28871,0.04318 0.57742,0.08636 0.86614,0.12955c6.88405,1.03936 13.66926,1.2446 20.6052,1.62683c6.94874,0.38294 13.98981,-0.15746 20.94571,-0.36039c4.07208,-0.1188 8.13175,-0.46019 12.19329,-0.77397c-1.85741,-0.16903 -3.71309,-0.35827 -5.56039,-0.51105c-6.88609,-0.56953 -13.71188,-1.7156 -20.54698,-2.70692c-4.57819,-0.66399 -9.24331,-1.15796 -13.77068,-2.11058c-1.73731,-0.36556 -3.41603,-0.53739 -4.90506,-1.29854l-0.08735,0.18559l-0.89469,-0.42107c-0.17509,-0.07779 -0.2972,-0.25321 -0.2972,-0.45716c0,-0.27614 0.22386,-0.5 0.5,-0.5c0.0305,0 0.06037,0.00273 0.08936,0.00796l0.97789,0.1589c3.46846,0.56357 7.07223,1.15864 10.58242,1.26206c7.02101,0.20685 13.91867,0.41504 20.92881,-0.06412c7.02904,-0.48046 13.73481,-1.91699 20.55031,-3.62079c4.62517,-1.15624 9.13066,-2.36234 13.57036,-3.95884c4.98651,-2.53687 11.01294,-4.07055 16.05571,-6.11884c1.61164,-0.65462 3.19877,-1.36278 4.78124,-2.08266c-0.77143,0.12702 -1.52967,0.22923 -2.11512,0.37206c-4.50848,1.09993 -9.03496,2.20476 -13.53182,3.3161c-4.1291,1.01828 -8.12177,2.02591 -12.07306,3.61687l0.10706,0.06857c0,0 -0.22247,0.44778 -0.67025,0.22531zM127.819,251.94825c0.33391,-0.00566 0.66945,0.00162 1.006,0.01911c-0.39522,-0.05161 -0.78965,-0.10236 -1.18268,-0.14701l0.07003,0.00947l-0.01359,0.10055c0.03996,0.00603 0.08004,0.01199 0.12024,0.01788zM114.57257,250.44346c-0.97204,-0.13154 -1.94407,-0.26309 -2.91611,-0.39463c4.25475,1.17122 8.56652,1.84144 12.92801,2.53787c1.20232,0.19241 2.41597,0.33087 3.63477,0.43436c-0.25841,-0.03958 -0.51689,-0.07922 -0.7754,-0.11908l-0.02025,-0.01272l-0.00192,0.00775l-0.87767,-0.21792c-0.22304,-0.05025 -0.38963,-0.24956 -0.38963,-0.48778c0,-0.23413 0.16092,-0.43066 0.37818,-0.48505c-3.99077,-0.39442 -7.98526,-0.72491 -11.95999,-1.2628z" fill="#8900b2" stroke="none" stroke-width="0.5" stroke-linecap="butt"></path><path d="M139.86108,160.63558c-0.31166,-0.07275 -0.62534,-0.11575 -0.94065,-0.09863c-3.77926,0.20512 -7.55686,0.36609 -11.33139,0.6106c0.16572,0.02294 0.32462,0.03903 0.47483,0.04554c3.89489,0.16879 7.87768,-0.30785 11.79721,-0.5575zM112.10186,169.33572c-0.1,0.02124 -0.20009,0.04238 -0.30029,0.06337c0.28383,-0.0156 0.56768,-0.03138 0.85154,-0.04722c-0.13126,-0.00881 -0.25545,-0.01415 -0.37109,-0.01497c-0.06006,-0.00043 -0.1201,-0.00082 -0.18016,-0.00118zM164.09659,150.64887c1.31078,0.12744 2.58094,0.57595 3.54677,1.40083l0.16342,-0.16236l0.61572,0.61977c0.00003,0.00003 0.00006,0.00006 0.00009,0.00009c0.0898,0.09039 0.14529,0.21491 0.14529,0.3524c0,0.08657 -0.022,0.168 -0.06071,0.239c1.12391,0.21374 2.2138,0.524 3.24171,0.97812l0.02926,-0.10587l0.95335,0.26346c0.21684,0.05469 0.37733,0.25102 0.37733,0.48485c0,0.27614 -0.22386,0.5 -0.5,0.5h-0.98c-3.60356,0.38771 -7.06172,0.9743 -10.57432,1.86236c-0.59813,0.15122 -1.33812,0.43397 -2.08254,0.63925c1.05578,0.1337 2.03869,0.28907 3.02195,0.6959l0.05054,-0.15064l0.93712,0.31442c0.20383,0.06313 0.35189,0.25312 0.35189,0.4777c0,0.27614 -0.22386,0.5 -0.5,0.5h-0.92789c-0.63336,0 -1.26664,-0.00058 -1.89987,-0.00183c0.16592,0.08136 0.28016,0.25194 0.28016,0.4492c0,0.26674 -0.20887,0.48469 -0.47197,0.49922l-0.99428,0.06323c-4.92921,0.31348 -9.84641,0.64643 -14.77765,0.87226c-0.07297,0.15509 -0.22329,0.2666 -0.40124,0.28479l-0.85214,0.09894c-1.96804,0.22779 -3.88977,0.674 -5.80231,1.1806c-6.66493,1.76496 -13.10211,3.84986 -19.86877,5.23657c-0.38164,0.07821 -0.76701,0.16019 -1.15565,0.24458c0.4674,0.11448 0.92175,0.24865 1.36064,0.40505l0.02312,-0.10979l0.96921,0.20403c0.23138,0.04385 0.40635,0.24711 0.40635,0.49124c0,0.25666 -0.19339,0.46816 -0.4424,0.49672l-0.9849,0.12787l-0.00075,-0.00581l-0.01902,0.00798c-6.32689,0.31627 -12.64368,0.8296 -18.97294,0.54645c-2.61777,-0.11711 -6.32749,-0.32264 -8.73651,-1.40382c-0.3071,-0.13783 -1.91768,-1.46204 -1.88018,-1.7375c0.04821,-0.3542 1.79714,-0.99375 2.16531,-1.1415c2.49128,-0.99983 5.07856,-1.77594 7.68228,-2.4345c2.05803,-0.52031 4.13965,-0.88183 6.2331,-1.17076c-3.33389,0.02006 -6.56945,-0.31985 -9.27056,-1.63239c-0.48386,-0.23512 -2.95087,-1.17113 -2.97925,-1.73816c-0.03732,-0.74566 1.12183,-1.07506 2.21155,-1.22474c-1.07908,-1.4973 2.15205,-1.89243 3.60799,-2.11933c5.26641,-0.82073 10.51239,-1.747 15.75492,-2.70718c7.03161,-1.28785 13.65155,-2.48261 20.80921,-2.8915c6.94645,-0.39683 13.83495,-0.87783 20.79484,-0.87701c6.01205,0.00072 12.00472,0.08554 18.01129,0.30948c0,0 0.49966,0.01863 0.48103,0.51828c-0.01863,0.49965 -0.51828,0.48103 -0.51828,0.48103c-2.85907,-0.10659 -5.71495,-0.18159 -8.57127,-0.23096z" fill="#8900b2" stroke="none" stroke-width="0.5" stroke-linecap="butt"></path><path d="M139.54832,158.43828c0,-0.27614 0.22386,-0.5 0.5,-0.5c0.27614,0 0.5,0.22386 0.5,0.5c0,0.27614 -0.22386,0.5 -0.5,0.5c-0.27614,0 -0.5,-0.22386 -0.5,-0.5z" fill="#8900b2" stroke="none" stroke-width="0.5" stroke-linecap="butt"></path><path d="M156.8376,208.07282c-0.0373,0.09044 -0.1115,0.17898 -0.24774,0.24666c-0.44779,0.22244 -0.67024,-0.22535 -0.67024,-0.22535l0.29495,-1.03236c4.29012,0.00952 9.73109,1.13853 13.26103,3.93271l0.05662,-0.09365l0.84797,0.51273c0.14893,0.08659 0.24905,0.24788 0.24905,0.43256c0,0.27614 -0.22386,0.5 -0.5,0.5c-0.0257,0 -0.05094,-0.00194 -0.0756,-0.00568l-0.98263,-0.13356l0.00071,-0.00524l-0.01921,0.00237c-2.25195,-0.47907 -4.5313,-1.12595 -6.82428,-1.33749c-0.26828,-0.02475 -0.63602,-0.02605 -1.02856,-0.03991c2.79188,1.26254 5.86604,2.51478 8.31868,4.27931l0.03639,-0.07231l0.88361,0.44471c0.16846,0.08042 0.28486,0.25236 0.28486,0.45148c0,0.27614 -0.22386,0.5 -0.5,0.5c-0.00426,0 -0.00851,-0.00005 -0.01274,-0.00016l-0.87702,-0.01922l0.00008,-0.00378l-0.01287,0.00333c-4.55269,-0.33271 -9.12264,-0.53399 -13.68151,-0.79601c-0.38385,-0.02206 -0.89315,-0.00002 -1.44966,0.02327c5.15231,1.12223 11.10882,1.7315 15.74729,3.84086l0.01561,-0.06786l0.96476,0.22198c0.22706,0.04723 0.39766,0.24845 0.39766,0.48952c0,0.27266 -0.21824,0.49434 -0.48957,0.49989l-0.97944,0.02333c-5.2102,0.64807 -10.74973,0.27998 -16.0074,0.40906c-3.15517,0.07741 -6.30767,0.13664 -9.46185,0.18744c-0.07716,0.07582 -0.17882,0.12679 -0.29201,0.13996l-0.9846,0.12959l-0.02769,-0.21035c-0.43991,0.069 -0.88074,0.09379 -1.32411,0.08979c2.53073,0.33895 5.06063,0.79293 7.25683,1.68486l0.01862,-0.08984l0.96993,0.201c0.2321,0.04326 0.40781,0.24687 0.40781,0.49152c0,0.27614 -0.22386,0.5 -0.5,0.5h-0.84743c-3.28811,-0.00127 -6.60661,-0.03908 -9.87439,-0.41044c-4.66766,-0.53045 -9.25432,-1.19712 -13.78302,-2.499c-1.75496,-0.5045 -3.21918,-0.81966 -4.48149,-1.83985l-0.11659,0.14478l-0.76628,-0.61705c-0.11569,-0.09158 -0.18991,-0.23325 -0.18991,-0.39225c0,-0.27614 0.22386,-0.5 0.5,-0.5c0.02695,0 0.0534,0.00213 0.07919,0.00624c0.98996,0.14135 2.79116,0.39853 3.78112,0.53988c4.60336,0.65779 9.27671,0.96741 13.90465,1.42034c0.04426,0.00433 0.08932,0.00835 0.13511,0.0121c-2.56827,-0.83134 -5.09637,-1.85671 -7.67142,-2.57114c-1.81401,-0.50328 -3.24199,-0.63112 -4.61951,-1.51255l-0.08511,0.14092l-0.84822,-0.51227c-0.14906,-0.08655 -0.24929,-0.24792 -0.24929,-0.4327c0,-0.27614 0.22386,-0.5 0.5,-0.5c0.00997,0 0.01988,0.00029 0.02971,0.00087l0.74484,0.03848l-0.00014,0.00281l0.00911,-0.00226c0.6671,0.05848 1.3342,0.11699 2.00129,0.17553c4.6479,0.40784 9.29207,0.63971 13.95159,0.87416c0.12066,0.00607 0.24883,0.00901 0.38317,0.00969c-3.83727,-0.61089 -7.94634,-1.36004 -10.94353,-3.3598l-0.05187,0.10017l-0.87862,-0.45494c-0.16557,-0.08149 -0.2795,-0.25188 -0.2795,-0.44888c0,-0.27614 0.22386,-0.5 0.5,-0.5h0.98951c3.80376,-0.21381 7.55674,-0.64563 11.33942,-1.08765c5.95795,-0.6962 11.7629,-1.2368 17.76832,-1.2368c0,0 0.5,0 0.5,0.5c0,0.14099 -0.03976,0.24222 -0.09685,0.31491c1.74165,0.06959 3.63054,0.53417 5.36234,0.98425c-0.38413,-0.20722 -0.75119,-0.39809 -1.08137,-0.52557c-2.8366,-1.09518 -5.6499,-1.86681 -8.6786,-1.96712zM124.06121,219.60026c-0.05933,-0.00847 -0.11866,-0.01694 -0.178,-0.02541c0.95837,0.37954 1.91159,0.79373 2.73669,1.00523c4.19779,1.07602 8.37549,1.70554 12.67255,2.19387c1.82293,0.20716 3.66224,0.3096 5.50305,0.3593c-3.23493,-0.59126 -6.49782,-1.05917 -9.73939,-1.61627l-0.78048,-0.13413c-0.23987,-0.03679 -0.42359,-0.24404 -0.42359,-0.4942c0,-0.08638 0.02191,-0.16765 0.06047,-0.23855c-3.29153,-0.29183 -6.58869,-0.58436 -9.8513,-1.04984z" fill="#8900b2" stroke="none" stroke-width="0.5" stroke-linecap="butt"></path><path d="M39.68426,158.88612c0.28981,0.40744 -0.11763,0.69725 -0.11763,0.69725l-0.54895,0.39046c-2.85465,2.0305 -5.81095,4.71403 -9.01009,6.31068l0.04636,0.06518l-0.81009,0.57621c-0.08262,0.06035 -0.18445,0.09597 -0.29461,0.09597c-0.27614,0 -0.5,-0.22386 -0.5,-0.5c0,-0.08801 0.02274,-0.1707 0.06266,-0.24254l0.46372,-0.87519c0.99339,-1.86872 2.28095,-3.63839 3.62099,-5.3673c-0.88469,0.86226 -1.79933,1.65958 -2.753,2.33406l0.06381,0.06192l-0.69592,0.71722c-0.0909,0.0939 -0.21828,0.15228 -0.35929,0.15228c-0.27614,0 -0.5,-0.22386 -0.5,-0.5c0,-0.1009 0.02989,-0.19483 0.0813,-0.2734c0.71198,-1.12732 1.95391,-3.09373 2.6659,-4.22106c2.49195,-3.94563 4.98389,-7.89126 7.47584,-11.83688c0.21412,-0.33903 0.4453,-0.77732 0.69635,-1.24707c-2.83148,2.98445 -5.48235,6.14404 -8.16501,9.26053c-1.15691,1.344 -2.1035,2.77287 -3.49246,3.69913l0.11785,0.18732l-0.83996,0.52847c-0.07843,0.05114 -0.1721,0.08085 -0.27272,0.08085c-0.27614,0 -0.5,-0.22386 -0.5,-0.5c0,-0.08706 0.02225,-0.16892 0.06137,-0.24021l0.45878,-0.87764c0.92745,-1.77419 1.85487,-3.5484 2.78239,-5.32257c1.70398,-3.07928 3.98184,-6.03527 5.38843,-9.2503c0.40082,-0.91615 0.80287,-1.83178 1.20431,-2.74766c0.25798,-0.58858 1.11249,-2.3148 0.79254,-1.75748c-0.5922,1.03154 -1.38724,1.93201 -2.12197,2.88726c-2.82526,3.67323 -5.70049,7.29868 -8.57143,10.93413c-1.09461,1.3861 -1.96776,2.74689 -3.218,3.86042l0.10011,0.09228l-0.67659,0.734c-0.09141,0.09981 -0.22281,0.1624 -0.36882,0.1624c-0.27614,0 -0.5,-0.22386 -0.5,-0.5c0,-0.07066 0.01466,-0.1379 0.0411,-0.19883l0.37252,-0.91586l0.0072,0.00293l0.00332,-0.02695c0.47523,-0.88978 0.95104,-1.77925 1.42687,-2.66871c0.24213,-0.45261 0.48412,-0.9053 0.72603,-1.35803c-0.01955,-0.05351 -0.03022,-0.1113 -0.03022,-0.17158c0,-0.04729 0.00656,-0.09304 0.01883,-0.1364l0.24804,-0.95706l0.10111,0.02621c0.13742,-1.35942 0.48677,-2.75653 0.97003,-4.16293c-1.47605,2.3686 -2.97017,4.72497 -4.52638,7.03912c-2.24011,3.33071 -4.04389,6.8087 -5.89534,10.36811c-0.80198,1.54181 -1.94623,3.48611 -1.62348,5.25218c0,0 0.08168,0.49328 -0.4116,0.57496c-0.49328,0.08168 -0.57496,-0.4116 -0.57496,-0.4116c-0.31204,-2.04933 0.79155,-4.0865 1.72289,-5.87701c1.24418,-2.39192 2.4681,-4.74744 3.81458,-7.04699c-0.02321,-0.05766 -0.03598,-0.12064 -0.03598,-0.1866c0,-0.04516 0.00599,-0.08891 0.01721,-0.13052l0.1854,-0.75203l0.19244,0.04744c0.36221,-1.61877 1.43259,-3.05603 2.25176,-4.55522c2.19681,-4.0204 4.99457,-7.752 7.69021,-11.452c0.22537,-0.30933 0.45535,-0.61235 0.68934,-0.91078c0.38795,-0.67147 0.77247,-1.34542 1.15306,-2.02239c0.84939,-1.51085 1.58231,-3.18394 2.52197,-4.66796c0.09136,-0.19281 0.18035,-0.38739 0.2664,-0.58448l0.00355,-0.00812l-0.01633,-0.00749l0.41227,-0.89865c0.07675,-0.17754 0.25345,-0.30177 0.45917,-0.30177c0.27614,0 0.5,0.22386 0.5,0.5c0,0.07512 -0.01657,0.14637 -0.04624,0.21029l-0.39612,0.90625c-0.04429,0.10123 -0.08931,0.20182 -0.13499,0.30188c0.77947,-1.04199 1.59287,-2.05939 2.4585,-3.07613l0.59442,-0.78391c0.09111,-0.12279 0.23716,-0.20237 0.40181,-0.20237c0.27614,0 0.5,0.22386 0.5,0.5c0,0.07927 -0.01845,0.15423 -0.05128,0.22082l-0.418,0.89679l-0.06595,-0.03074c-1.15173,4.83721 -4.29564,9.7714 -6.96408,14.20415c-1.61441,3.27098 -3.77285,6.45418 -5.37481,9.29548c0.2635,-0.29728 0.50443,-0.57201 0.69424,-0.81237c2.8683,-3.63211 5.7409,-7.25418 8.56357,-10.92404c0.57822,-0.75177 3.28183,-5.06404 3.8804,-2.2011c0.17321,0.82845 -1.29647,3.11833 -1.6453,3.9142c-1.5688,3.57926 -3.93129,6.81674 -5.82511,10.23852c-0.501,0.95848 -1.00203,1.91695 -1.50306,2.87541c0.76201,-0.82576 1.59265,-1.60732 2.20165,-2.31481c2.83206,-3.29005 5.63857,-6.61825 8.68151,-9.71628c0.47379,-0.48237 0.94778,-0.96454 1.42195,-1.44654l0.02705,-0.01173l-0.00548,-0.00677l0.75821,-0.61402c0.08637,-0.07111 0.197,-0.11381 0.3176,-0.11381c0.27614,0 0.5,0.22386 0.5,0.5c0,0.1009 -0.02989,0.19483 -0.0813,0.2734l-0.52994,0.83909l-0.05478,-0.0346c-2.15933,5.59074 -6.96883,11.15543 -10.091,16.09894c-0.03324,0.05263 -0.06648,0.10526 -0.09972,0.15788c2.13246,-2.19772 4.26491,-4.39544 6.39737,-6.59316l0.69592,-0.71722c0.0909,-0.0939 0.21828,-0.15228 0.35929,-0.15228c0.27614,0 0.5,0.22386 0.5,0.5c0,0.11331 -0.03769,0.21782 -0.10123,0.30168l-0.59176,0.79958l-0.07372,-0.05456c-2.01393,4.21773 -5.99039,7.6098 -8.48887,11.60593c0.45895,-0.31812 0.96056,-0.59772 1.37678,-0.89377c2.17303,-1.54566 4.34605,-3.09133 6.51908,-4.63699l0.54895,-0.39046c0,0 0.40744,-0.28981 0.69725,0.11763zM34.55429,131.60925c-0.72573,0.95882 -1.42084,1.937 -2.10043,2.95526c0.05498,0.0803 0.08714,0.17746 0.08714,0.28213c0,0.03558 -0.00372,0.07028 -0.01078,0.10376l-0.18576,0.97231l-0.10518,-0.02009c-0.02346,0.29206 -0.0576,0.58489 -0.10164,0.87829c0.64782,-1.26459 1.27743,-2.54234 1.8832,-3.84199c0.16875,-0.36205 0.3428,-0.82857 0.53346,-1.32965zM26.35463,146.93047c1.33734,-2.50503 2.67601,-5.00935 4.02309,-7.50907c0.43092,-0.79965 0.48626,-1.84148 0.72393,-2.7476c-0.02228,0.02576 -0.04454,0.05153 -0.06677,0.07731c-0.1482,0.23185 -0.29602,0.46395 -0.44351,0.69628c-1.29666,2.83123 -2.57717,5.66929 -3.87979,8.49866c-0.12644,0.27463 -0.2423,0.61373 -0.35694,0.98442z" fill="#e7ff00" stroke="none" stroke-width="0.5" stroke-linecap="butt"></path><path d="M80.67708,146.76001c0.56796,0.15113 1.1345,0.32822 1.65584,0.49006c4.22977,0.02163 8.45955,0.04325 12.68932,0.06488c6.54306,-0.448 13.08612,-0.896 19.62918,-1.344c2.6646,-0.18244 5.47498,0.18862 7.58734,-1.3378c-1.37827,0.32908 -3.25614,0.11606 -4.4753,0.17684c-4.66088,0.23235 -9.32176,0.4647 -13.98264,0.69705c-6.97645,0.34779 -13.99447,0.50445 -20.95581,1.07658c-0.71598,0.0588 -1.43195,0.11759 -2.14793,0.17639zM111.77667,149.6044c-0.18083,0.0084 -0.36191,0.01727 -0.54321,0.02657c-4.43566,0.62927 -8.87131,1.25855 -13.30697,1.88782c-6.93052,0.98321 -13.86024,1.97205 -20.79025,2.95885c-2.53137,0.36045 -5.04966,0.60343 -7.57538,0.78889l0.35674,0.0089c0.2711,0.00581 0.48907,0.22739 0.48907,0.49988c0,0.27347 -0.21954,0.49566 -0.49199,0.49994l-0.99869,0.01828c-3.04288,0.05569 -6.19732,0.28341 -9.1835,-0.2718c-0.61152,-0.01525 -1.22304,-0.0305 -1.83456,-0.04575l-0.77343,-0.01929c-0.2711,-0.00581 -0.48907,-0.22739 -0.48907,-0.49988c0,-0.06168 0.01117,-0.12075 0.0316,-0.17531l-0.618,-0.13586c-0.22932,-0.04547 -0.40221,-0.24777 -0.40221,-0.49044c0,-0.17215 0.087,-0.32398 0.21943,-0.41392c-0.00038,-0.00801 -0.00057,-0.01607 -0.00057,-0.02417c0,-0.26465 0.20562,-0.48128 0.46582,-0.49885c2.11886,-0.16409 5.23022,-0.40504 7.34908,-0.56913c-2.81754,-0.23471 -5.70549,-0.50678 -8.29792,-1.25783l-0.00854,0.06773l-0.98553,-0.1242c-0.24983,-0.02779 -0.44411,-0.23966 -0.44411,-0.49691c0,-0.20679 0.12554,-0.38427 0.30456,-0.46036c3.9493,-1.78347 8.79964,-3.97384 12.74894,-5.75732c0.64204,-0.28994 1.43316,-0.77843 2.23022,-1.12898c-1.82413,-0.01933 -3.64826,-0.03867 -5.47239,-0.058c-2.89337,-0.03067 -6.2378,0.40353 -9.0816,-0.10305c-2.82257,-0.5028 -5.82056,-2.21275 -8.49602,-3.24853c0,0 -0.46628,-0.18051 -0.28576,-0.64679c0.18051,-0.46628 0.64679,-0.28576 0.64679,-0.28576c2.60873,1.00994 5.55936,2.71007 8.30981,3.19648c2.78705,0.49288 6.0804,0.05764 8.91739,0.08771c2.3332,0.02473 4.6664,0.04946 6.99961,0.07419l0.99928,0.01059c0.27401,0.00249 0.49537,0.22538 0.49537,0.49998c0,0.20679 -0.12554,0.38427 -0.30456,0.46036l-0.90103,0.4069l-0.02623,-0.05809c-4.21055,2.90326 -9.95536,4.67005 -14.64596,6.69268c0.7033,0.04504 1.43968,0.23973 2.09274,0.32203c3.30718,0.41677 6.61435,0.83353 9.92153,1.2503l0.98553,0.1242c0.24983,0.02779 0.44411,0.23966 0.44411,0.49691c0,0.26465 -0.20562,0.48128 -0.46582,0.49885l-0.99259,0.07687l-0.00748,-0.09665c-0.26017,0.06739 -0.52395,0.12847 -0.7908,0.18392c0.0406,0.07229 0.06376,0.15569 0.06376,0.2445c0,0.10522 -0.0325,0.20286 -0.08802,0.28341c3.15888,-0.19882 6.28948,-0.46667 9.44946,-0.91663c6.93018,-0.98682 13.86007,-1.97568 20.79076,-2.95892c0.04233,-0.006 0.08465,-0.01201 0.12698,-0.01801c-2.40071,0.09837 -4.7875,0.1122 -7.13185,-0.04317c-4.32361,-0.29006 -8.64723,-0.58012 -12.97084,-0.87018c-1.92301,-0.12901 -3.90731,-0.09257 -5.78504,-0.48783c-0.05239,0.00092 -0.10478,0.00184 -0.15717,0.00276l-0.03878,0.00068l-0.00555,0.08277l-0.99386,-0.06668c-0.26238,-0.0153 -0.47043,-0.23293 -0.47043,-0.49914c0,-0.27358 0.21972,-0.49584 0.49232,-0.49994c0.6046,-0.01061 1.67942,-0.02948 2.57917,-0.04528c-0.10381,-0.09162 -0.16929,-0.22567 -0.16929,-0.37501c0,-0.27614 0.22386,-0.5 0.5,-0.5c0.00033,0 0.00066,0 0.001,0l0.99985,0.0017v0.00028l0.00085,-0.00028c0.28027,0.00143 0.56053,0.00287 0.8408,0.0043c0.53699,-0.06271 1.14341,-0.0417 1.74593,0.00893c0.01497,0.00008 0.02993,0.00015 0.0449,0.00023l-0.6928,-0.15886c-0.22723,-0.04709 -0.39801,-0.2484 -0.39801,-0.48959c0,-0.26395 0.20452,-0.48012 0.46373,-0.4987c1.66108,-0.13641 4.31414,-0.35428 5.97522,-0.49069c6.97221,-0.57212 14.00061,-0.73037 20.98787,-1.07869c5.98474,-0.29835 12.92548,-1.58396 18.97882,-0.89813l-0.00239,-0.04787l0.99497,-0.0496c0.00949,-0.00054 0.01906,-0.00081 0.02869,-0.00081c0.27614,0 0.5,0.22386 0.5,0.5c0,0.14962 -0.06572,0.28389 -0.16986,0.37552l-0.74581,0.66238c-2.38007,2.11382 -5.49248,1.70637 -8.59573,1.91885c-2.4529,0.16795 -4.9058,0.3359 -7.3587,0.50385c1.61335,0.0578 3.22604,0.13065 4.83965,0.20747c1.49521,-0.03245 3.00007,-0.06975 4.45806,0.15715l0.00025,-0.12452l0.99987,0.00197c0.00004,0 0.00008,0 0.00013,0c0.1611,0.00031 0.30433,0.07681 0.39555,0.19539c0.86547,0.0426 1.72503,0.11914 2.56487,0.28259c0.03373,-0.00157 0.06745,-0.00313 0.10118,-0.0047l0.04292,-0.00199l0.00447,-0.09256l0.99596,0.04805c0.2663,0.01111 0.47879,0.23052 0.47879,0.49956c0,0.2693 -0.21291,0.48888 -0.47958,0.49959c-2.99677,0.13922 -6.98968,0.32472 -9.98644,0.46394zM77.82427,147.22701c-0.04406,-0.01634 -0.08803,-0.03291 -0.1319,-0.04972l-0.01123,0.04898c0.04771,0.00024 0.09542,0.00049 0.14313,0.00073zM109.99113,148.69941c-4.11137,-0.00811 -8.22273,-0.01621 -12.3341,-0.02432c-5.06117,-0.01013 -10.12732,0.11615 -15.19081,0.23235c2.79396,0.18744 5.58791,0.37488 8.38187,0.56232c6.25327,0.42492 12.82634,-0.38642 19.14304,-0.77035z" fill="#e7ff00" stroke="none" stroke-width="0.5" stroke-linecap="butt"></path><path d="M69.41993,186.4015c-0.41685,0.2761 -0.69296,-0.14075 -0.69296,-0.14075l-0.33887,-0.51856c-0.07309,-0.25386 -0.10333,-0.46722 -0.09725,-0.64712c-2.1582,-0.07406 -4.30129,-0.16007 -6.38285,-0.16007c0,0 -0.5,0 -0.5,-0.5c0,-0.5 0.5,-0.5 0.5,-0.5c2.42961,0 4.94937,0.12243 7.47926,0.20399c0.51086,-0.09232 1.13321,-0.11005 1.71549,-0.21606c2.42796,-0.44202 4.85592,-0.88404 7.28389,-1.32607c-0.72763,-0.0867 -1.44726,-0.21644 -2.15513,-0.4095l-0.0154,0.10198l-0.98122,-0.14815c-0.24443,-0.03277 -0.43293,-0.24214 -0.43293,-0.49554c0,-0.21741 0.13876,-0.40241 0.33255,-0.47127l0.91644,-0.34993l0.00221,0.00579l0.01933,-0.01345c3.13045,-0.87296 7.49334,-1.51788 10.81205,-0.57254l0.02926,-0.14248l0.97034,0.19928c0.23251,0.04293 0.40863,0.24673 0.40863,0.49167c0,0.23522 -0.16242,0.4325 -0.38123,0.48581l-0.95564,0.25557l-0.00216,-0.00809l-0.02666,0.0149c-1.03254,0.14937 -2.06473,0.25106 -3.0985,0.31937c0.78845,0.20378 1.40045,0.46804 1.92966,0.87711c0.18555,-0.02864 0.37109,-0.05757 0.55663,-0.0868c1.87237,-0.29499 3.77636,-0.78557 5.65939,-0.78898c0.10144,-0.01942 0.20286,-0.03897 0.30428,-0.05865l-0.00903,-0.08973l0.98825,-0.09948c0.01864,-0.00211 0.0376,-0.00319 0.0568,-0.00319c0.27614,0 0.5,0.22386 0.5,0.5c0,0.24658 -0.1785,0.45148 -0.41333,0.49252l-0.83743,0.16315c-0.48146,0.0938 -0.96318,0.1847 -1.44514,0.27305c-0.27147,0.0626 -0.55646,0.11196 -0.8459,0.15249c-1.17638,0.20857 -2.35422,0.40324 -3.53342,0.58917c0.29269,0.4077 0.57729,0.89682 0.87788,1.48904c0.16276,0.32067 0.95362,1.7847 0.92066,2.17683c1.33178,-0.00723 2.63976,0.05199 3.88414,0.24136c1.26093,0.1919 4.8844,0.98316 4.61383,2.74326c-0.18636,1.21232 -2.61196,1.86362 -3.53411,2.18332c-3.14269,1.08951 -6.6688,2.53023 -10.23873,3.39942c1.18183,0.14779 2.35722,0.34258 3.50027,0.59911c1.78251,-0.09339 3.55839,-0.0944 5.24963,0.19082c0.73448,0.12386 4.97667,1.04042 5.17284,1.7628c0.35778,1.31749 -3.8454,2.4498 -4.6137,2.63986c-1.58341,0.38866 -3.16699,0.8188 -4.75672,1.22306c-1.47798,1.00824 -3.18892,1.7852 -4.86872,2.50965c0.19557,0.07664 0.38815,0.15677 0.57734,0.24061l0.02937,-0.10697l0.95382,0.26185c0.14457,0.03621 0.26418,0.13535 0.32803,0.26662c1.33816,0.13452 2.64034,0.36726 3.87562,0.74267c1.73657,0.52775 3.46353,0.58459 4.26534,2.11506c1.33296,0.01566 2.64983,0.09011 3.91114,0.24611c0.78342,0.09689 3.09956,0.38097 3.23885,1.47736c0.07112,0.55981 -1.35539,0.87697 -1.69671,0.9773c-1.59902,0.47001 -3.19912,0.93636 -4.79867,1.40454c-0.97917,0.2866 -1.97073,0.53073 -2.97086,0.74189c1.44637,0.06116 2.845,0.22976 4.1521,0.54689l0.00636,-0.08424l0.99284,0.07495c0.26061,0.01714 0.46669,0.23396 0.46669,0.49891c0,0.2285 -0.15328,0.4212 -0.36263,0.48089l-0.6482,0.20117l-0.00143,-0.00461l-0.01165,0.00847c-0.9785,0.24626 -1.95705,0.49233 -2.93588,0.73728c-0.92774,0.18217 -1.8684,0.37899 -2.81805,0.5751c-0.06624,0.0324 -0.14071,0.05059 -0.21943,0.05059c-0.00444,0 -0.00887,-0.00006 -0.01328,-0.00017l-0.01059,-0.00024c-5.17089,1.0649 -10.59802,2.07031 -15.65354,0.54946l-0.01142,0.07034l-0.97911,-0.15896c-0.24195,-0.03497 -0.42784,-0.24319 -0.42784,-0.49483c0,-0.19057 0.10661,-0.35623 0.26344,-0.44061l0.35275,-0.19845c0.00936,-0.2477 0.19892,-0.44927 0.44137,-0.47742l0.87255,-0.11459c0.04327,-0.00868 0.08655,-0.0173 0.12984,-0.02585c0.18279,-0.06796 0.36788,-0.13626 0.55512,-0.20475l-0.97665,-0.04915c-0.26587,-0.01158 -0.47787,-0.23079 -0.47787,-0.49952c0,-0.11948 0.04191,-0.22918 0.11184,-0.31519l-0.55895,-0.14372c-0.22108,-0.05168 -0.38575,-0.25005 -0.38575,-0.48689c0,-0.18561 0.10113,-0.34759 0.2513,-0.43386l0.85037,-0.50847l0.00565,0.00945l0.03355,-0.03057c0.57646,-0.21809 1.4444,-0.59618 2.41437,-0.99733c-0.55971,-0.06543 -1.09927,-0.14841 -1.61315,-0.24958v0.08781h-1c-0.27614,0 -0.5,-0.22386 -0.5,-0.5c0,-0.2508 0.18465,-0.45847 0.42542,-0.49448l0.7906,-0.13263c0.25625,-0.04299 0.51272,-0.08448 0.7694,-0.12461c-0.94359,-0.15967 -1.70848,-0.18809 -0.93587,-1.81277c0.21734,-0.45703 1.16252,-0.92185 2.0778,-1.30932c-1.81388,0.15237 -3.61159,0.22411 -5.29764,0.02241l0.00666,0.09931l-0.99287,0.06663c-0.01266,0.00096 -0.02546,0.00145 -0.03837,0.00145c-0.27614,0 -0.5,-0.22386 -0.5,-0.5c0,-0.24737 0.17964,-0.45278 0.41558,-0.4929l0.86557,-0.16427l0.00247,0.01301l0.03341,-0.01848c0.67811,-0.02958 1.35624,-0.05875 2.0344,-0.08747c0.78001,-0.03303 1.58143,-0.07941 2.39716,-0.12895c1.45937,-0.12143 2.9096,-0.22242 4.36388,-0.29199c0.13874,-0.06566 0.2776,-0.13106 0.41658,-0.19625c-1.98001,-0.43625 -3.96473,-0.86017 -5.98238,-1.07589l-0.98848,-0.10597c-0.25388,-0.02391 -0.45253,-0.23764 -0.45253,-0.49778c0,-0.27504 0.22207,-0.49821 0.49669,-0.49999l0.99949,-0.00758l0.00085,0.11159l0.05057,0.00542c0.01912,0.00205 0.03826,0.00411 0.05743,0.00617c1.89545,-0.26089 3.8,-0.02459 5.76178,-0.16679c2.40931,-0.17464 4.81571,-0.71465 7.19956,-1.33392c0.34808,-0.23464 0.70359,-0.47427 1.05934,-0.67908c-5.95056,0.80545 -11.64119,2.23969 -17.4121,0.31126l-0.01324,0.06026l-0.96715,-0.21247c-0.22936,-0.04544 -0.40227,-0.24776 -0.40227,-0.49045c0,-0.15339 0.06907,-0.29064 0.1778,-0.38236l0.75788,-0.64729l0.00573,0.00671l0.02511,-0.03101c1.17971,-0.72531 2.34352,-1.35462 3.59685,-1.94334c0.7023,-0.32989 1.40832,-0.65124 2.11726,-0.96587c-0.27848,-0.02967 -0.55572,-0.06716 -0.83154,-0.11295l0.00225,0.09574l-0.99782,0.02345c-0.00454,0.00012 -0.00909,0.00018 -0.01365,0.00018c-0.27614,0 -0.5,-0.22386 -0.5,-0.5c0,-0.25519 0.19118,-0.46573 0.43813,-0.49621l0.98328,-0.13703l0.00173,0.0124l0.03465,-0.01612c0.28789,0.00189 0.57986,0.00463 0.8754,0.00851c0.79516,-0.12173 1.73151,-0.03764 2.59092,0.00697c2.6693,-1.12387 5.3662,-2.18436 8.04979,-3.27549c0.8969,-0.36467 2.1102,-1.0808 3.2502,-1.54565c-5.79362,0.54961 -12.59947,2.06595 -18.30406,0.38102l-0.00903,0.08431l-0.9885,-0.10583c-0.25391,-0.02388 -0.45259,-0.23763 -0.45259,-0.49778c0,-0.25437 0.18996,-0.46438 0.43575,-0.49591l0.98235,-0.14212l0.00121,0.00834l0.02549,-0.01148c4.67233,-0.17223 9.31919,-0.35305 13.97809,-0.75217c0.66533,-0.057 1.57058,-0.28808 2.47354,-0.45851c-0.67071,-0.08703 -1.34997,-0.16459 -2.0349,-0.23761c-0.83678,0.04256 -1.67278,0.09492 -2.49786,0.14121c-1.59398,0.27336 -3.36798,0.4633 -4.5708,0.12671c-0.1492,0.00122 -0.29841,0.00244 -0.44761,0.00366l-0.99928,0.00816c-0.00159,0.00001 -0.00318,0.00002 -0.00477,0.00002c-0.27614,0 -0.5,-0.22386 -0.5,-0.5c0,-0.27234 0.21773,-0.49382 0.48862,-0.49987l0.99806,-0.02593l0.00046,0.01772c0.26161,-0.00214 0.53197,-0.00434 0.79358,-0.00648c-2.67894,-0.36966 -5.30358,-0.91119 -7.7073,-1.91147l-0.01398,0.06417l-0.96755,-0.21084c-0.22975,-0.04514 -0.40306,-0.24763 -0.40306,-0.49061c0,-0.0311 0.00284,-0.06153 0.00827,-0.09106c-0.1147,-0.0032 -0.2294,-0.00652 -0.34408,-0.00992c-0.30657,0.06606 -0.47907,0.12157 -0.41658,0.15664l0.27698,0.41123c0,0 0.2761,0.41685 -0.14075,0.69296zM85.62039,183.95484c-1.88042,0.28831 -3.76423,0.55859 -5.65106,0.83174c-1.70194,0.24422 -3.45138,0.35818 -5.2221,0.39722c-0.31031,0.03584 -0.62076,0.0714 -0.93134,0.1067c0.98162,0.23789 1.96828,0.58305 2.68908,0.74013c2.79803,0.60973 5.59973,0.94765 8.40445,1.30315c0.04201,-0.00703 0.08398,-0.01427 0.12593,-0.02172c0.85539,-0.15194 2.20601,0.52191 2.59377,-0.25554c0.23971,-0.48061 -0.66056,-0.85504 -0.90364,-1.33395c-0.39744,-0.78301 -0.73736,-1.34777 -1.10509,-1.76774zM88.93068,189.83088c0.41642,-0.0435 0.83153,-0.08361 1.24503,-0.11901c0.3385,-0.00773 0.677,-0.01546 1.0155,-0.02318l0.87858,-0.01984c0.00436,-0.00011 0.00874,-0.00017 0.01313,-0.00017c0.27614,0 0.5,0.22386 0.5,0.5c0,0.17891 -0.09397,0.33588 -0.23525,0.42423l-0.83269,0.53881l-0.07423,-0.11471c-1.62187,1.20824 -3.533,1.7928 -5.48043,2.5846c-1.32032,0.53683 -2.64324,1.06657 -3.96365,1.6017c3.81885,-0.78332 7.5255,-2.26733 11.17748,-3.5334c0.66472,-0.23045 2.59132,-0.68629 2.88519,-1.45408c0.19016,-0.49684 -3.34503,-1.47166 -3.7878,-1.53905c-0.21377,-0.03253 -0.42951,-0.06112 -0.64702,-0.08611c0.02238,0.05676 0.03467,0.1186 0.03467,0.18332c0,0.24426 -0.17515,0.44761 -0.40671,0.49131l-0.96939,0.20328l-0.01779,-0.08481c-0.43362,0.16592 -0.87909,0.31436 -1.33463,0.44712zM85.44053,197.69262c-1.34379,0.09812 -2.68013,0.22246 -3.97228,0.28535c2.02862,0.11873 4.05823,0.19885 6.08826,0.19495c-0.27576,-0.07887 -0.53707,-0.15047 -0.77452,-0.20168c-0.45143,-0.09737 -0.89819,-0.19031 -1.34146,-0.27863zM90.10061,197.59446c0.26606,0.10027 0.52838,0.20545 0.78653,0.31578l0.01578,-0.07314l0.96805,0.2088c0.23024,0.04475 0.40405,0.24748 0.40405,0.4908c0,0.26821 -0.21118,0.48709 -0.47633,0.49945l-0.86172,0.04636c-4.44691,0.23923 -10.47009,0.71979 -14.93232,-0.77855l-0.01618,0.10376l-0.98031,-0.15287c-0.0373,-0.00517 -0.07329,-0.01446 -0.10748,-0.02739c-0.23904,0.10991 -0.47768,0.22077 -0.71589,0.33267c-1.18616,0.55717 -2.28913,1.14938 -3.40724,1.83078l-0.01019,0.0464c1.87608,-0.1357 3.92081,1.16331 5.78037,1.21719c3.98426,0.11545 8.52315,-1.34492 12.51413,-1.81475l0.79977,-0.09413c0.02158,-0.00284 0.0436,-0.00431 0.06596,-0.00431c0.27614,0 0.5,0.22386 0.5,0.5c0,0.15687 -0.07224,0.29687 -0.18527,0.38854l-0.26284,0.21646c0.78842,-0.21195 1.57339,-0.41908 2.35418,-0.61073c0.97642,-0.23763 1.79969,-0.61646 2.71958,-1.01599c0.37667,-0.16359 1.57445,-0.38642 1.16414,-0.40319c-1.52633,-0.06236 -2.85941,-0.77167 -4.37229,-1.0265c-0.57212,-0.09637 -1.15472,-0.15886 -1.74445,-0.19544zM81.00814,206.43354c-0.58221,0.04595 -1.17213,0.10226 -1.76634,0.16199c-1.71288,0.8343 -5.20737,2.61182 -3.80533,2.51141c1.99582,0.25451 3.8709,0.18811 5.87768,0.08772l0.03917,0.01419l0.00126,-0.01135l0.22055,0.02449c1.41191,-0.13866 2.82483,-0.26704 4.23548,-0.40459c2.02866,-0.19714 4.20055,-0.34885 6.35159,-0.36055c-0.86713,-0.64826 -2.72706,-0.84497 -3.74322,-1.15611c-2.29194,-0.70178 -4.83668,-0.88791 -7.41085,-0.8672zM91.66488,209.58254c-3.3998,1.31812 -8.13484,2.07214 -12.38435,2.0449c-1.61363,0.6089 -3.29758,1.01692 -4.9896,1.6358c0.55445,0.05588 1.03984,0.3049 1.6913,0.38939c0.64651,0.08385 1.3319,0.12352 2.02977,0.13612c4.39476,-1.40887 9.39322,-2.52603 13.53277,-1.8595v-0.10078h1c0.00208,0 0.00416,0.00001 0.00624,0.00004c0.26713,-0.07148 0.53342,-0.14595 0.79877,-0.22362c1.27965,-0.37454 2.55929,-0.74909 3.83894,-1.12363c0.27882,-0.08161 0.81149,-0.20257 1.26515,-0.29267c-0.84707,-0.07378 -1.99191,-0.49905 -2.64353,-0.51926c-1.37411,-0.04261 -2.75924,-0.08055 -4.14545,-0.08678zM85.34595,214.62685c1.03958,0.18035 2.04657,0.41782 2.99435,0.73483l0.0119,-0.09282l0.89097,0.11418c0.95978,-0.20442 1.91336,-0.40784 2.85705,-0.59281c0.11291,-0.02829 0.22581,-0.0566 0.33872,-0.08492c-0.93757,-0.12484 -1.88754,-0.32668 -2.63566,-0.31403c-1.44843,0.02449 -2.94549,0.10905 -4.45732,0.23557zM83.96471,216.40368c-2.18561,0.05152 -4.44472,0.11204 -6.60558,-0.00231c1.07536,0.21256 2.13427,0.42871 3.00084,0.38644c1.1961,-0.05834 2.40003,-0.19753 3.60474,-0.38414zM81.22006,196.98843c-0.78628,-0.10271 -1.57379,-0.18822 -2.36966,-0.25544c-0.21176,0.0144 -0.42318,0.02541 -0.63418,0.03284c-0.30753,0.13064 -0.61465,0.26224 -0.9213,0.39496c1.23216,-0.06622 2.46417,-0.11716 3.69824,-0.16322c0.07548,-0.00282 0.15112,-0.00587 0.2269,-0.00914zM84.14326,182.97953c-0.2808,-0.09701 -0.59524,-0.17731 -0.95534,-0.25124c-0.03447,0.01414 -0.07087,0.02454 -0.10869,0.0307l-0.97524,0.17755l-0.01923,-0.10563c-1.11264,0.40303 -2.30497,0.67662 -3.5172,0.89339c1.86075,-0.22962 3.7187,-0.47421 5.57571,-0.74478zM84.58988,180.74348c-0.4878,-0.0013 -0.99713,0.01009 -1.51861,0.03395c0.50897,-0.00477 1.01608,-0.0136 1.51861,-0.03395zM79.47564,203.94709c0.67987,0.14005 1.35287,0.30271 2.00614,0.49474c0.7847,-0.36216 1.56942,-0.72429 2.34945,-1.09553c-1.44143,0.28269 -2.89185,0.49924 -4.35559,0.60079z" fill="#e7ff00" stroke="none" stroke-width="0.5" stroke-linecap="butt"></path><path d="M184.63616,177.66006c-0.26272,-0.54139 -0.52547,-1.08247 -0.78931,-1.62257c-0.16823,-0.34438 -0.40912,-0.75236 -0.66894,-1.19306c0.12298,0.42256 0.25401,0.84263 0.39732,1.25883c1.44262,4.19493 2.96912,7.74025 5.26934,11.53476c0.0526,0.08678 0.11098,0.17779 0.17424,0.27256c0.04305,-0.46922 0.0856,-0.9375 0.12653,-1.40526c-1.08752,-1.93414 -2.09537,-3.91481 -3.07722,-5.90804c-0.34316,-0.5832 -0.68901,-1.16538 -1.03377,-1.74929l-0.39397,-0.66725c0,0 -0.16485,-0.2792 -0.00422,-0.52068zM181.05726,171.86514c0.05498,0.38012 0.11854,0.75932 0.19539,1.13743c0.86347,4.24843 1.79735,8.44942 2.86652,12.65097c0.25034,1.01611 0.70731,1.616 1.28179,2.48541c0.34714,0.52535 1.87207,3.61094 2.60277,3.41117c0.50547,-0.1382 0.72276,-0.76037 0.82529,-1.41412c-2.91364,-4.06179 -4.7377,-9.45705 -6.19942,-13.70752c-0.54727,-1.59327 -0.92241,-3.23992 -1.34511,-4.87025l0.00147,-0.01694l-0.0048,0.00092l-0.00618,-0.03238c-0.07181,0.11897 -0.14432,0.23745 -0.21771,0.35532zM189.60669,191.15439c-1.94667,3.98931 -5.93258,-3.24902 -6.45664,-5.25425c-1.06652,-4.19115 -2.2882,-8.47725 -2.9385,-12.78229c-0.13991,0.18834 -0.28456,0.37331 -0.43497,0.55417l-0.00576,0.00356l0.00152,0.00133l-0.48222,0.54861c-0.09167,0.10536 -0.22673,0.17195 -0.37735,0.17195c-0.27614,0 -0.5,-0.22386 -0.5,-0.5c0,-0.03939 0.00456,-0.07772 0.01317,-0.11449l0.20602,-0.96771l0.11707,0.02492c0.13364,-1.18816 0.4589,-2.39369 0.89925,-3.59179c-0.22282,-1.45609 -0.40567,-3.19846 0.06153,-3.50043c0.39044,-0.25236 0.89472,0.12047 1.36072,0.28306c0.2876,-0.57138 0.58623,-1.13556 0.88685,-1.6896c0.01052,-1.82976 -0.30225,-4.15077 0.15505,-5.86872c0.94637,-3.55527 4.00212,-7.41362 5.76145,-10.6598c3.3342,-6.15202 6.60185,-12.28613 10.42051,-18.15498c0.74287,-1.1417 1.5132,-2.21418 2.35791,-3.28273l0.61714,-0.78068c0.09147,-0.11787 0.2345,-0.19373 0.39525,-0.19373c0.27614,0 0.5,0.22386 0.5,0.5c0,0.07854 -0.01811,0.15284 -0.05037,0.21897l-0.41415,0.8985l-0.06803,-0.03136c-0.86772,3.60468 -2.8737,7.17213 -4.95597,10.57082c0.98675,-1.32619 2.00466,-2.60869 3.1148,-3.86478l0.6605,-0.74734c0.09165,-0.10472 0.22629,-0.17085 0.37638,-0.17085c0.27614,0 0.5,0.22386 0.5,0.5c0,0.00553 -0.00009,0.01104 -0.00027,0.01653l-0.02843,0.99731l-0.16388,-0.00467c-0.06162,2.01314 -1.07754,3.61967 -2.00128,5.62233c-1.82599,3.9587 -3.95125,7.72104 -6.07213,11.52867c-1.53544,2.75658 -3.12184,5.48472 -4.72872,8.20112c1.66775,6.48312 2.16431,13.53536 2.16431,20.19121c0,1.90534 0.16349,4.50829 0.01832,6.91102c0.05265,0.13808 0.10478,0.27634 0.15648,0.41474l0.04957,-0.02525l0.44935,0.88225c0.03762,0.07024 0.05896,0.1505 0.05896,0.23575c0,0.09164 -0.02465,0.17752 -0.06769,0.25137c0.47764,1.33338 0.9408,2.67171 1.46379,3.99015l0.00058,0.02625l0.00698,-0.00198l0.26991,0.9509c0.0144,0.04666 0.02215,0.09624 0.02215,0.14763c0,0.27614 -0.22386,0.5 -0.5,0.5c-0.1545,0 -0.29262,-0.07007 -0.38434,-0.18016l-0.64281,-0.76138l0.0699,-0.05902c-0.66381,-0.58728 -1.28288,-1.24434 -1.86192,-1.95513zM187.77988,158.60679c1.49737,-2.53709 2.97512,-5.08537 4.40836,-7.65848c1.94238,-3.48716 3.94659,-6.92743 5.61884,-10.55285c0.72953,-1.58162 1.33065,-3.64691 2.10569,-5.31605c-1.29695,1.52652 -2.47421,3.096 -3.64493,4.74188c-2.64471,3.71812 -5.1228,7.60366 -7.30181,11.61885c-0.123,0.24429 -0.2465,0.48834 -0.37067,0.73204c-0.46952,1.00815 -1.02348,2.41006 -1.75135,3.28905c-0.11018,0.19574 -0.22141,0.39096 -0.3338,0.58561l-0.49521,0.85771c-0.08521,0.15402 -0.24933,0.25831 -0.43781,0.25831c-0.27614,0 -0.5,-0.22386 -0.5,-0.5c0,-0.08935 0.02344,-0.17323 0.0645,-0.24582l0.47071,-0.87166l0.02487,0.01343l0.00691,-0.01198c0.03837,-0.06647 0.07661,-0.133 0.11472,-0.1996c0.90414,-2.992 2.69495,-6.09883 4.65514,-9.03008c0.52988,-1.03724 1.07289,-2.06809 1.6439,-3.08519c2.25761,-4.02137 4.71128,-7.90508 6.64098,-12.0915c0.09871,-0.21414 0.19904,-0.46439 0.30339,-0.73654c-3.74818,5.78548 -6.96578,11.82704 -10.24926,17.88547c-1.71703,3.16814 -4.75234,6.97705 -5.67428,10.44054c-0.29977,1.12616 -0.24039,2.5513 -0.1772,3.90115c0.34758,-0.62427 0.68471,-1.23018 0.99656,-1.81291c0.33974,-0.63484 1.81277,-3.47419 2.60072,-3.49483c0.22842,-0.00598 0.84561,0.73054 1.28102,1.28342zM181.85877,167.20751c0.12566,0.23335 0.25013,0.46719 0.37347,0.70152c1.66918,-2.80043 3.35168,-5.59407 5.01376,-8.39944c-0.24911,-0.42488 -0.25725,-1.19871 -0.72097,-1.18657c-0.27942,0.00732 -1.97612,3.39907 -2.2163,3.84847c-0.89083,1.66683 -1.69353,3.33557 -2.44997,5.03602zM187.60582,160.86262c-1.60501,2.70087 -3.22577,5.3926 -4.83224,8.0917c2.47047,4.84741 4.49901,9.88342 6.57762,14.91821c0.08858,-1.34274 0.14625,-2.68781 0.14625,-4.04528c0,-6.28449 -0.51977,-12.79325 -1.89162,-18.96463zM180.41884,167.38672c0.06955,-0.15259 0.14035,-0.30485 0.21223,-0.45672c-0.01417,-0.03045 -0.02834,-0.0609 -0.04252,-0.09135c-0.23816,-0.23732 -0.24237,0.07676 -0.16971,0.54806zM182.10109,170.0967c-0.02541,0.04392 -0.0508,0.08786 -0.07618,0.13181c0.00261,0.00481 0.00514,0.00968 0.00759,0.01458l0.45993,0.87613l-0.06748,0.03542c0.14182,0.1794 0.2809,0.36223 0.41743,0.54822c-0.24644,-0.53537 -0.49357,-1.0707 -0.74129,-1.60617zM190.71147,190.21281c-0.14914,-0.41773 -0.29712,-0.83585 -0.44629,-1.25356c-0.03119,0.17371 -0.0653,0.34432 -0.10256,0.51138c0.18266,0.24293 0.3681,0.4917 0.54886,0.74218zM181.32659,168.42596c-0.17667,0.41175 -0.35125,0.82573 -0.52432,1.24235c0.0199,0.19339 0.03967,0.38663 0.05994,0.57971c0.24232,-0.41993 0.48121,-0.84166 0.72649,-1.25733c-0.0873,-0.18821 -0.17468,-0.37645 -0.26211,-0.56473z" fill="#e7ff00" stroke="none" stroke-width="0.5" stroke-linecap="butt"></path><path d="M129.38353,163.41505l0.01865,-0.6608c4.02335,1.94013 8.92642,2.03962 13.29214,2.61067c4.66516,0.28805 9.22109,-0.15313 13.87874,-0.50365c0.75549,-0.05686 1.82519,-0.27395 2.86214,-0.36853c-0.20198,-0.06001 -0.40396,-0.12003 -0.60594,-0.18004c-5.66012,-1.68177 -12.75857,-3.02551 -18.06286,-5.9434l-0.01757,0.05179l-0.93603,-0.31758c-0.20301,-0.06362 -0.3503,-0.25321 -0.3503,-0.4772c0,-0.24468 0.17576,-0.44832 0.40792,-0.49154l0.90263,-0.18683l0.00128,0.00618l0.02097,-0.01026c3.65524,-0.41891 7.23252,-1.01924 10.84713,-1.70143c4.44141,-0.83823 8.85634,-2.07861 13.1054,-3.64703c1.16356,-0.42949 2.67126,-1.45195 4.03343,-1.77105c-5.90126,-1.27856 -12.34376,0.84234 -18.12946,-1.05144l-0.01819,0.08379l-0.96774,-0.21009c-0.22993,-0.045 -0.40342,-0.24758 -0.40342,-0.49068c0,-0.18783 0.10357,-0.35147 0.25672,-0.43692l0.85606,-0.49823l0.00402,0.00691l0.02473,-0.02241c4.32766,-1.81667 8.62462,-3.63561 13.08088,-5.11187c2.56501,-1.07187 5.12835,-2.14788 7.69568,-3.2142c-1.74448,0.56977 -3.48066,1.1667 -5.2105,1.78298c-6.59499,2.34956 -13.23334,4.58182 -19.85246,6.86255c-0.45845,0.15797 -0.91777,0.31207 -1.37788,0.46278c-0.85193,0.51816 -1.70294,1.03927 -2.55336,1.56335c-5.301,2.7783 -10.66905,5.459 -15.64711,8.80054c0,0 -0.41518,0.27861 -0.69379,-0.13657c-0.27861,-0.41518 0.13657,-0.69379 0.13657,-0.69379c4.06076,-2.72417 8.37649,-5.0163 12.70729,-7.27421c-3.62868,1.18607 -7.14799,2.2579 -10.97788,2.66369l-0.92928,0.09846c-0.01956,0.00233 -0.03947,0.00352 -0.05966,0.00352c-0.27614,0 -0.5,-0.22386 -0.5,-0.5c0,-0.23496 0.16207,-0.43207 0.38051,-0.48563l0.95522,-0.25703l0.03208,0.11924c1.81692,-0.79878 3.83734,-1.16043 5.76183,-1.67827c3.44688,-0.92749 6.87783,-1.83373 10.27056,-2.91365c0.42009,-0.18459 0.83898,-0.37349 1.25692,-0.56583c4.9238,-2.98611 9.88333,-5.86987 14.93602,-8.65808c4.37995,-2.41506 9.89886,-5.38984 14.81966,-6.35296l0.78558,-0.15195c0.03384,-0.00723 0.06894,-0.01103 0.10494,-0.01103c0.27614,0 0.5,0.22386 0.5,0.5c0,0.1818 -0.09702,0.34093 -0.24211,0.42845l-0.84041,0.52584l-0.0397,-0.06345c-4.3805,3.9584 -11.34322,6.41827 -16.59564,8.53303c-2.32614,0.93656 -4.60706,2.03877 -6.88173,3.16573c4.74299,-1.62268 9.48673,-3.24461 14.20824,-4.92671c4.74545,-1.69064 9.54027,-3.24671 14.4235,-4.47953c0.17452,-0.04991 0.34992,-0.09415 0.52638,-0.13154c0.11599,-0.02869 0.23204,-0.05719 0.34813,-0.08551l0.21523,-0.08163l-0.02428,-0.12061l0.7596,-0.15292c0.03504,-0.00778 0.07145,-0.01188 0.10883,-0.01188c0.27614,0 0.5,0.22386 0.5,0.5c0,0.2178 -0.13926,0.40308 -0.33361,0.47165l-0.89269,0.33857l-0.00365,-0.00963l-0.02527,0.0196c-0.14143,0.03476 -0.28278,0.06979 -0.42406,0.10508c-1.10473,0.73105 -3.16569,1.22274 -4.03413,1.57576c-4.32751,1.75912 -8.63186,3.57437 -12.9433,5.37246c-4.28719,1.42362 -8.42266,3.16511 -12.58863,4.90477c1.39262,-0.00774 3.14253,0.57483 4.42841,0.584c4.4591,0.03179 9.59823,-0.63197 13.93025,0.47303l0.95395,0.2443c0.22131,0.05151 0.3862,0.25 0.3862,0.48699c0,0.21099 -0.13069,0.39146 -0.31553,0.46487l-0.91009,0.38571l-0.02299,-0.05424c-5.10014,3.14868 -12.19016,4.63385 -17.86882,5.70558c-3.16209,0.59678 -6.29622,1.13444 -9.47869,1.53827c1.2138,0.3314 2.5284,1.0026 3.45582,1.31727c4.41914,1.49937 8.83565,2.94434 13.30907,4.27351c0.95858,0.28482 1.91716,0.56964 2.87574,0.85446l0.73551,0.21854c0.21226,0.05779 0.36833,0.25191 0.36833,0.48248c0,0.26498 -0.20613,0.48182 -0.46679,0.49891l-0.99287,0.07472l-0.00816,-0.10848c-1.94298,0.41687 -3.98875,0.40928 -5.97492,0.55875c-4.38933,0.33033 -8.65537,0.70086 -13.05233,0.42684c-4.2125,-0.54855 -8.85039,-0.70136 -12.83021,-2.34881c-0.20927,0.04617 -0.3994,-0.08142 -0.3994,-0.08142l0.00251,-0.08888c-0.13489,-0.05998 -0.26896,-0.12179 -0.40217,-0.1855zM155.87888,141.42575c0.68193,-0.30293 1.36679,-0.59491 2.05557,-0.87223c3.924,-1.5799 7.92104,-3.37916 11.65534,-5.37087c0.74116,-0.3953 1.64574,-1.15012 2.57854,-1.79788c-4.07891,1.28842 -8.37258,3.63269 -11.86955,5.564c-1.48095,0.81723 -2.95373,1.64288 -4.4199,2.47698z" fill="#e7ff00" stroke="none" stroke-width="0.5" stroke-linecap="butt"></path><path d="M159.16857,250.41758c0,-0.5 0.5,-0.5 0.5,-0.5l0.29099,0.01914c0.26904,0.07698 0.53808,0.15396 0.80712,0.23093c2.91908,0.45749 5.82412,0.98669 8.72588,1.53263c-2.38944,-0.92188 -4.7552,-1.91208 -7.09843,-2.91026c-1.05379,-0.4489 -2.90698,-0.76278 -4.02026,-1.48207c-0.16207,-0.05439 -0.32414,-0.10878 -0.4862,-0.16317l-0.00809,-0.00654l-0.00118,0.00312l-0.92384,-0.35115c-0.19416,-0.06866 -0.33326,-0.25385 -0.33326,-0.47152c0,-0.27614 0.22386,-0.5 0.5,-0.5c0.06294,0 0.12317,0.01163 0.17865,0.03286l0.93113,0.33152l-0.00707,0.01986l0.00276,0.00105c0.32765,0.1099 0.6553,0.2198 0.98294,0.32972c0.69211,0.18367 1.37524,0.42029 2.05078,0.6836c6.49814,2.03439 12.99853,3.62514 19.71252,4.81774c4.54125,0.80666 9.08227,1.61463 13.62326,2.42274c-5.26432,-2.07546 -10.52976,-4.15075 -15.83154,-6.12726c-5.52672,-2.06037 -12.6536,-2.38512 -17.93692,-5.14434l-0.02155,0.07761l-0.95301,-0.26462c-0.21655,-0.05489 -0.37677,-0.25108 -0.37677,-0.4847c0,-0.27614 0.22386,-0.5 0.5,-0.5c0.03216,0 0.06361,0.00304 0.09408,0.00884l0.85936,0.1476c4.11421,0.71297 8.68627,0.32032 12.83792,0.07179c6.96149,-0.41674 13.95053,-0.9498 20.84913,-2.00603c4.07801,-0.62437 8.1564,-1.24373 12.22966,-1.89755c-0.74565,-0.00561 -1.49131,-0.01193 -2.23702,-0.01875c-6.93143,-0.06342 -13.85019,-0.07957 -20.78107,0.03301c-5.67926,0.09225 -13.01296,1.49812 -18.78055,0.2859c-0.07419,0.00546 -0.14841,0.01018 -0.22264,0.01416v0.02204h-1c-0.27614,0 -0.5,-0.22386 -0.5,-0.5c0,-0.27401 0.22042,-0.49655 0.49363,-0.49996l0.70123,-0.01022c0.63047,-0.01488 1.26242,-0.09223 1.87799,-0.22931c6.80455,-1.49821 13.53369,-3.10939 20.23301,-5.03149c3.18188,-0.91291 6.42577,-1.73012 9.52764,-2.89609c2.56389,-0.96375 5.06305,-2.53255 7.49085,-3.58897c-1.84974,0.19662 -3.6995,0.39297 -5.54934,0.58857c-6.80538,1.24799 -13.51943,3.02507 -20.24948,4.6258c-5.62348,1.33753 -11.51394,3.04839 -16.93275,5.03178c0,0 -0.46954,0.17186 -0.6414,-0.29768c-0.17186,-0.46954 0.29768,-0.6414 0.29768,-0.6414c5.45369,-1.99616 11.38555,-3.71947 17.04508,-5.06557c6.75912,-1.60764 13.50227,-3.39413 20.338,-4.64268c1.99981,-0.21288 3.99972,-0.42494 5.99965,-0.63671l0.01464,0.00227l-0.00015,-0.00317l0.99522,-0.04743c0.00909,-0.00049 0.01824,-0.00074 0.02745,-0.00074c0.27614,0 0.5,0.22386 0.5,0.5c0,0.12419 -0.04528,0.23781 -0.12023,0.32525l-0.64394,0.76113l-0.11982,-0.10137c-1.3653,1.56331 -3.20101,2.05497 -5.31781,2.95053c-4.03129,1.70553 -8.18278,2.89191 -12.38551,4.09771c-5.63508,1.61675 -11.2914,3.01444 -16.99559,4.30973c4.63636,-0.00299 9.26551,-0.24665 13.9009,-0.32195c6.93933,-0.11271 13.86658,-0.0966 20.80646,-0.0331c2.94223,0.02692 5.88379,0.04396 8.82614,0.0457l0.97108,-0.09304c0.01779,-0.00192 0.03587,-0.0029 0.05417,-0.0029c0.27614,0 0.5,0.22386 0.5,0.5c0,0.25795 -0.19533,0.47027 -0.44615,0.49713l-0.98627,0.1198l-0.00304,-0.02501l-0.0123,0.00118l-0.0022,-0.02293l-0.02162,0.02464c-0.12356,0.00007 -0.24711,0.0001 -0.37067,0.0001c-1.7829,0.4611 -3.69327,0.5675 -5.50911,0.8634c-4.27854,0.6972 -8.56547,1.34061 -12.8505,1.99668c-6.92893,1.06087 -13.94861,1.59719 -20.94072,2.01576c-2.63967,0.15802 -5.4349,0.36409 -8.18295,0.32366c0.08561,0.02689 0.16804,0.05152 0.24689,0.07342c4.4002,1.22181 8.94325,2.1602 13.22251,3.75552c6.55885,2.44515 13.06247,5.04065 19.57646,7.60226c0.31325,0.11195 0.6265,0.22391 0.93975,0.33586l0.00479,0.00369l0.00063,-0.00165l0.9227,0.35414c0.19336,0.06909 0.33174,0.25388 0.33174,0.47098c0,0.27614 -0.22386,0.5 -0.5,0.5c-0.03046,0 -0.06028,-0.00272 -0.08923,-0.00794l-0.97793,-0.15866l0.02468,-0.15211c-1.65364,-0.08888 -3.22788,-0.5957 -4.92043,-0.8967c-4.54303,-0.8079 -9.08589,-1.61677 -13.62908,-2.42377c-3.95269,-0.70212 -7.83246,-1.54154 -11.68117,-2.52727c2.20908,0.86352 4.4444,1.67006 6.68765,2.37777c0.06075,0.01917 0.1215,0.03828 0.18225,0.05733c1.80359,0.33572 3.609,0.66207 5.41883,0.96588c5.54279,0.93045 13.07758,1.49721 18.35196,4.06811l0.02013,-0.0751l0.95548,0.25612c0.21867,0.0534 0.38096,0.25062 0.38096,0.48574c0,0.27614 -0.22386,0.5 -0.5,0.5c-0.003,0 -0.00598,-0.00003 -0.00897,-0.00008l-0.99861,-0.01537l0.00003,-0.00227l-0.00762,0.00209c-1.30814,-0.05978 -2.61264,-0.05281 -3.8974,-0.31495c-6.76718,-1.39327 -13.35141,-2.83044 -19.94214,-4.89348c-5.06526,-0.94045 -10.1166,-1.95241 -15.20811,-2.75996c-0.28862,-0.08192 -0.57724,-0.16384 -0.86586,-0.24576l-0.01696,0.01914c0,0 -0.5,0 -0.5,-0.5z" fill="#e7ff00" stroke="none" stroke-width="0.5" stroke-linecap="butt"></path><path d="M160.94965,218.6228c-0.28269,-0.41241 0.12972,-0.69511 0.12972,-0.69511l0.66767,-0.45766c2.20115,-1.50878 4.47945,-2.89041 6.78349,-4.2309c-3.07414,1.20169 -6.17323,2.32153 -9.38646,3.22884c-1.00619,0.28411 -4.54052,1.7421 -5.43322,0.75576c-0.75541,-0.83464 1.81698,-3.13878 2.25422,-3.56803c0.35526,-0.34877 0.72008,-0.68999 1.0929,-1.02449c-1.44356,0.7416 -2.91307,1.45322 -4.41893,2.1353c0,0 -0.45546,0.2063 -0.66176,-0.24916c-0.2063,-0.45546 0.24916,-0.66176 0.24916,-0.66176c3.37877,-1.53041 6.57104,-3.21011 9.69865,-5.04512c1.20298,-0.85549 2.4205,-1.6826 3.61434,-2.50188c3.44564,-2.47357 6.87952,-4.96316 10.36515,-7.38013c1.62715,-1.12828 3.10296,-2.37578 4.87937,-3.09501l-0.0709,-0.13242l0.87326,-0.46755c0.07225,-0.04055 0.15559,-0.06367 0.24434,-0.06367c0.27614,0 0.5,0.22386 0.5,0.5c0,0.15512 -0.07064,0.29374 -0.1815,0.38545l-0.76333,0.64028c-4.11234,3.4493 -8.51862,6.3188 -13.00186,9.26642c-1.76384,1.15968 -3.5242,2.2683 -5.30283,3.3268c-1.67323,1.23342 -3.31414,2.50428 -4.95732,3.79702c-0.78264,0.61573 -1.45904,1.28935 -2.17127,1.98407c-0.39235,0.3827 -0.64226,0.88697 -0.96399,1.3319c1.06191,-0.4867 2.89247,-0.61625 3.88377,-0.89616c5.73684,-1.61989 11.10668,-3.92415 16.62543,-6.15421l0.00607,-0.0003l-0.00067,-0.00177l0.9248,-0.34907c0.05786,-0.0234 0.12109,-0.03628 0.18734,-0.03628c0.27614,0 0.5,0.22386 0.5,0.5c0,0.20676 -0.1255,0.38421 -0.30448,0.46033l-0.77125,0.34846l-0.02202,-0.04873l-0.0226,0.00853c-3.91307,3.19601 -9.53994,5.22276 -13.68253,8.06231l-0.66767,0.45766c0,0 -0.41241,0.28269 -0.69511,-0.12972z" fill="#e7ff00" stroke="none" stroke-width="0.5" stroke-linecap="butt"></path><path d="M-18.25267,181.10593c0.03567,0.49873 -0.46305,0.5344 -0.46305,0.5344l-0.24047,0.0172c-3.04099,0.20922 -3.53735,2.48764 -3.89585,5.08334c0.14843,6.81159 3.78493,13.43312 5.70935,19.89973c0.7683,2.01602 2.00116,3.9315 3.5064,5.70271c-2.07777,-5.53693 -1.91806,-10.78006 -1.91991,-16.74504c-0.00075,-7.0549 1.97531,-14.00818 4.17386,-20.6359c2.339,-7.05059 5.1835,-12.70347 9.65936,-18.62469c4.27188,-5.65137 10.20018,-9.55166 15.75944,-13.89862c5.52365,-4.31901 11.37355,-8.18408 17.10449,-12.2191c5.37442,-3.77722 12.47939,-7.65874 18.65476,-9.87079c6.5737,-2.35474 13.13143,-5.09529 19.89637,-6.82807c6.8156,-1.74577 13.65779,-3.25131 20.64023,-4.08498c6.95166,-0.83 13.90357,-1.80481 20.88069,-2.38393c6.93521,-0.57564 14.08074,0.22034 21.03526,0.49187c7.0082,0.27362 14.00009,-0.0339 21.00182,0.4645c6.99926,0.49823 13.97037,0.99418 20.93949,1.81725c6.96589,0.82269 13.86617,1.99159 20.78291,3.15008c6.95567,1.16502 13.69895,2.73467 20.56967,4.29351c4.683,1.06249 10.18048,2.53455 14.13188,5.37072c1.61263,1.15749 3.60207,2.73844 4.15926,4.65446c0.12944,3.03999 -1.60981,4.93814 -3.31088,7.36732c-2.54571,3.63533 -4.69939,7.12156 -7.61936,10.52509c-4.53633,5.28758 -8.73385,11.07805 -13.73089,15.93989c-5.00651,4.8676 -10.04018,9.70812 -14.97514,14.64821c-1.8961,2.72398 -3.80042,5.4423 -5.70273,8.16195c-0.42433,0.60665 -1.81467,2.25065 -1.32473,3.10767c0.78837,1.37904 3.97172,3.24873 5.36317,4.02488c1.93113,1.09164 4.40967,1.43814 6.54825,2.0215c4.51842,1.23253 9.02433,2.45543 13.51578,3.78807c6.46357,2.72829 12.90786,5.44527 19.3461,8.23657c3.5068,1.52037 6.59024,3.03633 9.76338,5.12787c0.83132,0.54795 2.49801,1.25898 2.18378,2.63562c-0.18607,0.81517 -2.59698,2.25664 -3.26105,2.7927c-0.99579,0.80383 -1.72351,0.88178 -2.9553,1.12561c-6.87161,1.36021 -13.86126,2.01707 -20.79586,3.02205c-6.90967,1.00135 -13.70548,2.7476 -20.50411,4.31012c-2.56135,0.58857 -5.24824,0.9228 -7.7262,1.80654c-0.55768,0.19889 -1.28127,0.11748 -1.69045,0.54543c-0.93888,0.98194 -0.04172,2.18227 0.47638,3.03264c0.99111,1.62675 4.03912,2.35321 5.77435,3.14272c6.40012,2.91198 12.83182,5.38842 19.41574,7.85976c4.70394,1.76631 9.19727,4.00004 13.68964,6.2352c0.59697,0.29702 3.82072,1.50374 3.85587,2.20888c0.01951,0.39153 -1.72181,1.37852 -2.03454,1.5706c-6.99375,0.53757 -14.04837,0.69773 -20.95161,1.975c-2.27001,0.4199 -5.64876,0.238 -7.71244,1.08088c-0.94387,0.38551 1.9001,1.65126 2.02519,1.71663c2.75814,1.44143 5.19064,2.50027 8.20981,3.26519c3.44517,1.04459 7.47648,1.7806 10.37126,4.0628c3.58344,2.82513 1.99818,6.84762 -1.99345,8.07662c-3.17178,0.97657 -6.69941,0.74808 -10.01855,0.95094c-3.61688,0.22105 -7.26741,0.84919 -10.89671,1.17512c-6.96216,0.62298 -13.97614,0.68742 -20.95996,1.21336c-6.95312,0.52177 -14.03467,-0.75545 -21.00623,-0.80972c-6.95771,-0.06847 -13.68562,-3.38533 -20.6214,-3.89235c-6.88154,-0.50305 -13.92146,-2.42568 -20.66098,-3.98408c-6.71282,-2.05601 -13.53749,-3.29342 -20.41752,-4.6755c-6.73516,-1.35298 -14.1713,-1.9067 -20.60841,-4.30205c-6.57942,-2.44831 -13.05628,-4.99245 -19.67335,-7.33328c-6.11036,-3.44727 -13.03916,-4.9601 -19.45309,-7.71805c-6.48445,-2.53186 -13.14998,-5.1274 -19.19677,-8.57808c-6.08604,-3.47331 -11.76799,-7.56792 -17.85978,-10.95203c-5.71024,-3.17394 -12.39957,-8.52876 -14.80029,-14.84133c-1.96918,-6.6004 -5.62762,-13.3185 -5.76057,-20.27824c0.41914,-3.10453 1.23285,-5.75752 4.82284,-6.02318l0.24047,-0.0172c0,0 0.49873,-0.03567 0.5344,0.46305z" fill="url(#color-1)" stroke="none" stroke-width="0.5" stroke-linecap="butt"></path></g></g></svg>