<svg version="1.1" xmlns="http://www.w3.org/2000/svg" xmlns:xlink="http://www.w3.org/1999/xlink" width="272.62368" height="137.8542" viewBox="0,0,272.62368,137.8542"><g transform="translate(-6.61482,-127.47941)"><g data-paper-data="{&quot;isPaintingLayer&quot;:true}" fill-rule="nonzero" stroke-linecap="butt" stroke-linejoin="miter" stroke-miterlimit="10" stroke-dasharray="" stroke-dashoffset="0" style="mix-blend-mode: normal"><path d="M238.9885,217.91295c-21.81525,0 -39.5,-17.68475 -39.5,-39.5c0,-21.81525 17.68475,-39.5 39.5,-39.5c21.81525,0 39.5,17.68475 39.5,39.5c0,21.81525 -17.68475,39.5 -39.5,39.5z" data-paper-data="{&quot;index&quot;:null}" fill="#000000" stroke="#000000" stroke-width="1.5"></path><g data-paper-data="{&quot;index&quot;:null}" stroke="none" stroke-width="0"><path d="M258.71106,168.50345c7.45315,0 13.49512,5.141 13.49512,5.141c0,0 -6.04197,5.141 -13.49512,5.141c-7.45315,0 -13.49512,-5.141 -13.49512,-5.141c0,0 6.04197,-5.141 13.49512,-5.141z" fill="#ffffff"></path><path d="M259.35368,178.78545c-2.8393,0 -5.141,-2.30171 -5.141,-5.141c0,-2.8393 2.30171,-5.141 5.141,-5.141c2.8393,0 5.141,2.30171 5.141,5.141c0,2.8393 -2.30171,5.141 -5.141,5.141z" fill="#000000"></path></g><g data-paper-data="{&quot;index&quot;:null}" stroke="none" stroke-width="0"><path d="M229.03426,168.6195c7.45315,0 13.49512,5.141 13.49512,5.141c0,0 -6.04197,5.141 -13.49512,5.141c-7.45315,0 -13.49512,-5.141 -13.49512,-5.141c0,0 6.04197,-5.141 13.49512,-5.141z" fill="#ffffff"></path><path d="M229.67689,178.9015c-2.8393,0 -5.141,-2.30171 -5.141,-5.141c0,-2.83929 2.30171,-5.141 5.141,-5.141c2.8393,0 5.141,2.30171 5.141,5.141c0,2.8393 -2.30171,5.141 -5.141,5.141z" fill="#000000"></path></g><path d="M216.54709,195.37717c0.20217,1.15345 0.45622,2.29575 0.82036,3.4059c0.056,0.17073 0.11978,0.33841 0.18971,0.50353c-0.54365,-3.07723 -0.75093,-6.16999 -0.22937,-9.23322l-0.25541,-0.01153l0.08997,-1.99254c0.02084,-0.53389 0.46023,-0.96031 0.99923,-0.96031c0.48505,0 0.88945,0.34535 0.98072,0.80358l0.2574,1.16588c0.60812,2.75887 1.21242,5.98131 2.39315,8.54125c0.1675,0.36317 0.36517,0.70685 0.57897,1.03907c-0.88743,-2.6891 -1.4777,-5.401 -1.28223,-8.40763c0,0 0.06608,-0.99781 1.06389,-0.93174c0.99781,0.06608 0.93174,1.06389 0.93174,1.06389c-0.30227,4.47615 1.35686,8.27609 2.94549,12.38057l0.00044,0.02601l0.00765,-0.00253l0.45453,1.37251c0.03758,0.10516 0.05804,0.21846 0.05804,0.33654c0,0.55228 -0.44772,1 -1,1c-0.27742,0 -0.52845,-0.11297 -0.70961,-0.29541l-1.40938,-1.41863l0.25951,-0.25782c-2.18574,-2.0872 -3.56074,-4.76265 -4.55325,-7.65305c0.30491,3.18182 1.03454,6.27989 1.85323,9.37012l-0.02097,0.07842l0.03212,-0.00355l0.11386,1.03164c0.00503,0.04065 0.00762,0.08206 0.00762,0.12408c0,0.55228 -0.44772,1 -1,1c-0.40016,0 -0.74543,-0.23504 -0.90527,-0.5746l-0.88007,-1.77171l0.18368,-0.09124c-0.75485,-1.10511 -1.38664,-2.24216 -1.92005,-3.4146c0.00465,0.21791 0.01066,0.43468 0.0184,0.65015l-0.00402,0.01799h0.00418v2c0,0.55228 -0.44772,1 -1,1c-0.31296,0 -0.59234,-0.14376 -0.77571,-0.36886l-0.68772,-0.83165l0.23637,-0.19546c-1.25298,-1.3475 -2.153,-3.09119 -2.81048,-4.98792c-0.01591,2.06716 -0.04294,4.13431 -0.04294,6.19744v1.95157c0,0.55228 -0.44772,1 -1,1c-0.39252,0 -0.73222,-0.22615 -0.89591,-0.55527l-0.91698,-1.75371l0.16959,-0.08867c-3.1019,-4.42148 -4.71627,-9.61753 -6.17452,-14.84764c0.14252,4.53273 0.00388,9.10681 0.03156,13.63762l0.01088,1.787c0.00002,0.00237 0.00002,0.00474 0.00002,0.00712c0,0.55228 -0.44772,1 -1,1c-0.33667,0 -0.63448,-0.16637 -0.8157,-0.42138l-1.17024,-1.60626l0.3762,-0.27408c-3.53901,-5.41661 -3.29592,-14.06848 -4.11603,-20.18712c-0.01028,-0.07668 -0.02164,-0.15436 -0.03395,-0.23299c-0.203,0.36942 -0.41222,0.73373 -0.6287,1.09203l0.20722,0.08275l-0.73309,1.83574c-0.08674,0.2327 -0.25765,0.42441 -0.47571,0.53808c-0.41086,3.79885 -0.90227,7.60333 -1.76454,11.31241c-0.16355,0.70354 -1.18812,4.40548 -1.75486,4.5718c-2.70243,0.79308 -2.77571,-2.70764 -2.967,-3.83718c-0.51978,-3.06931 -0.83099,-6.16053 -0.94704,-9.25843l-0.13989,0.51628c-0.03762,0.15232 -0.11015,0.29088 -0.20862,0.40671l-0.46671,1.85374c-0.07595,0.33219 -0.31732,0.60135 -0.63284,0.71618c-0.0646,2.10329 -0.31639,4.22939 -0.65399,6.47068l-0.0588,0.07519l0.03362,0.01144l-0.45416,1.33445c-0.12751,0.40556 -0.50647,0.69972 -0.95413,0.69972c-0.55228,0 -1,-0.44772 -1,-1c0,-0.0349 0.00179,-0.06938 0.00528,-0.10336l0.18058,-1.97923l0.20598,0.01879c-0.06928,-1.00133 -0.08106,-2.00587 -0.04548,-3.01182l-0.67159,1.85767c-0.13288,0.39635 -0.50726,0.68193 -0.94835,0.68193c-0.46,0 -0.84745,-0.31059 -0.9641,-0.73349c-0.37128,0.8487 -0.77274,1.67979 -1.21354,2.48552l0.19996,0.07482l-0.6927,1.85131c-0.13593,0.39088 -0.50758,0.67142 -0.94477,0.67142c-0.55228,0 -1,-0.44772 -1,-1c0,-0.00858 0.00011,-0.01714 0.00032,-0.02567l0.0271,-1.22741c0.00463,-0.20958 0.00857,-0.4191 0.01188,-0.62856c-0.31077,-0.21406 -0.66714,-0.61612 -1.08391,-1.26523c-0.02152,-0.03352 -0.05859,-0.23829 -0.10387,-0.54212c-0.61292,0.12986 -1.3089,0.02737 -1.68808,-0.38115c-0.62509,-0.67346 -0.1507,-1.83321 -0.15773,-2.75204c-0.00761,-0.99475 0.05412,-2.00353 0.13266,-3.01184c-0.29165,-0.17469 -0.48688,-0.49379 -0.48688,-0.85849c0,-0.03456 0.00175,-0.06871 0.00517,-0.10236l0.11436,-1.26606l0.05253,0.00474l0.04268,-0.3219c0.00771,-0.05813 0.01543,-0.11635 0.02316,-0.17467c-0.19752,0.32747 -0.39129,0.65729 -0.58187,0.98919c-0.78708,2.55834 -1.55729,5.08476 -2.69555,7.47507l0.19924,0.06732l-0.63283,1.87286c-0.12687,0.40663 -0.50636,0.70178 -0.95478,0.70178c-0.47625,0 -0.87475,-0.33293 -0.97544,-0.77875c-0.12488,0.05606 -0.26336,0.08724 -0.40911,0.08724c-0.52769,0 -0.95992,-0.40873 -0.99737,-0.92687l-0.11469,-1.3853l0.35431,-0.02933c-0.40251,-3.28309 0.64311,-6.7768 1.14193,-10.09062c0.93132,-6.18706 1.87183,-12.37289 2.82874,-18.55612c0.15743,-1.79664 0.24206,-3.98121 0.87618,-5.63023c0.05377,-0.34352 0.10759,-0.68704 0.16148,-1.03054l0.3075,-1.96028c0.06783,-0.48629 0.48538,-0.86059 0.99036,-0.86059c0.55228,0 1,0.44772 1,1c0,0.05667 -0.00471,0.11224 -0.01377,0.16634l-0.29491,1.96018l-0.01237,-0.00186l-0.00096,0.00615c-0.1035,0.6598 -0.20677,1.31963 -0.30982,1.9795c-0.18808,2.88329 -0.79229,5.7743 -1.26196,8.64691c1.41381,-4.53993 3.28042,-9.01555 4.5281,-13.20696l0.35977,-1.20859c0.11574,-0.42428 0.50386,-0.73618 0.96483,-0.73618c0.55228,0 1,0.44772 1,1c0,0.04793 -0.00337,0.09508 -0.00989,0.14121l-0.24889,1.96843l-0.26066,-0.03296c0.02592,2.12759 -0.26678,4.22455 -0.67384,6.31532c0.12879,-0.06042 0.27256,-0.09418 0.42423,-0.09418c0.45244,0 0.8347,0.30047 0.95813,0.71275c0.25658,0.14695 0.44179,0.40433 0.49084,0.70735l0.41033,-1.20315c0.1277,-0.40526 0.5065,-0.69912 0.95394,-0.69912c0.55228,0 1,0.44772 1,1c0,0.03001 -0.00132,0.05971 -0.00391,0.08905l-0.15507,1.98283l-0.22846,-0.01787c0.18826,2.82389 -0.12169,5.68779 -0.64558,8.54069c0.11553,0.05178 0.22875,0.11354 0.33966,0.18295c0.44243,-1.07264 0.87958,-2.14739 1.30802,-3.22558l0.73,-1.83696c0.14124,-0.3809 0.50788,-0.65236 0.93792,-0.65236c0.25185,0 0.48195,0.0931 0.65777,0.24676c0.13999,-0.41139 0.27931,-0.82326 0.41782,-1.23571c0.58482,-1.74154 0.92909,-5.89892 3.66103,-5.96409c1.40118,-0.03343 1.12207,2.79541 1.11437,3.41044c-0.02254,1.80038 -0.14525,3.60134 -0.30233,5.40128c0.76619,-1.86716 1.58426,-3.70039 2.42666,-5.4672c0.59622,-1.25049 2.09828,-6.28907 4.67637,-4.85757c0.96059,0.53337 0.64568,5.76238 0.67611,6.8309c0.05229,1.83611 -0.26838,3.47071 -0.61615,5.2364c1.04929,-2.35001 2.17664,-4.64372 3.41663,-6.95534l0.90172,-1.681c0.16552,-0.32379 0.50235,-0.54546 0.89096,-0.54546c0.53235,0 0.96754,0.41597 0.99827,0.94061l0.13388,1.98766l-0.25208,0.01698c0.45214,3.11636 0.10509,6.18072 -0.51276,9.25191c0.22501,-0.23863 0.48737,-0.38865 0.81395,-0.3698c1.76219,0.10169 2.14419,1.85205 2.08445,3.73955c0.48289,-0.7772 1.01188,-1.39973 1.50645,-1.66537c0.69301,-0.37223 1.79164,-0.47891 2.35901,0.06598c0.65115,0.62534 0.36598,1.76973 0.48439,2.66474c0.10873,0.82188 0.1005,1.63114 0.01853,2.43276c0.15751,-0.34548 0.5059,-0.58561 0.91037,-0.58561c0.41744,0 0.77514,0.25578 0.92493,0.61917c1.09008,-0.58093 2.24708,-0.648 3.2489,0.25761c0.33774,0.30531 0.44166,0.75064 0.49156,1.22832c0.47513,0.07752 0.83776,0.48986 0.83776,0.98691v1.16222h-0.13647l-0.02392,0.19288c0.33749,1.4243 0.48497,2.91476 0.54797,4.42218zM182.77778,196.27914c-0.08051,0.16179 -0.1627,0.32284 -0.2467,0.48311l0.22188,0.08021c0.00665,-0.18773 0.01494,-0.37551 0.02482,-0.56333zM209.43431,188.98438c0.06454,-0.07903 0.13028,-0.15705 0.19715,-0.23389c0.02978,-0.11167 0.06335,-0.22358 0.10108,-0.33597l-0.00472,-0.05342l-0.15798,-0.05232c-0.04133,0.22557 -0.08684,0.45073 -0.13553,0.6756zM200.06112,198.63643c0.15709,0.9069 0.42939,1.80975 0.6919,2.71351c0.01259,-3.34202 0.05827,-6.68815 0.00562,-10.02429c-0.01602,-1.0154 -0.05837,-1.92491 -0.07923,-2.78809l-0.488,1.67008c-0.11414,0.42669 -0.50343,0.74091 -0.96611,0.74091c-0.11882,0 -0.2328,-0.02072 -0.33852,-0.05875c0.35406,2.58382 0.72726,5.16558 1.17434,7.74663zM200.67209,188.18032c-0.01697,0.03082 -0.034,0.06162 -0.05109,0.09242l0.053,0.01549c-0.00069,-0.03604 -0.00132,-0.07201 -0.00191,-0.1079zM187.82633,173.94727c0.0788,-0.83433 0.13434,-1.67108 0.17109,-2.50861c-0.5087,1.41187 -1.23117,2.88521 -1.54243,3.72286c-0.54209,1.45888 -1.06615,2.91855 -1.57519,4.38085c-0.0476,2.02828 -0.27296,4.0765 -0.58771,6.1199c0.09789,0.01455 0.19115,0.04328 0.27763,0.08404c0.54454,-2.1884 1.13748,-4.35178 1.66999,-6.47103l0.33917,-1.70691c0.08348,-0.46796 0.49246,-0.82321 0.98442,-0.82321c0.00215,0 0.0043,0.00001 0.00645,0.00002c0.083,-0.93272 0.16849,-1.8653 0.25658,-2.79792zM173.40419,183.55886c0.0841,-1.02334 0.18245,-2.03856 0.29368,-3.04874c-0.05112,-0.33638 -0.10125,-0.67288 -0.14763,-1.00984c-0.08559,-0.62184 -0.14128,-1.24837 -0.25327,-1.866c-0.0252,-0.139 -0.05914,-0.36578 -0.0924,-0.59843c-0.01752,0.06255 -0.03494,0.12511 -0.05225,0.18767c-0.00635,0.46287 -0.08277,0.79557 -0.18627,1.47237c-0.31509,2.53825 -0.60055,5.07005 -1.05477,7.58742l-0.26908,1.4897c0.33839,-1.06208 0.71088,-2.10415 1.15145,-3.1001c0.04557,-0.103 0.28701,-0.56358 0.61056,-1.11406zM169.7523,192.75828c0.29513,-0.54045 0.59404,-1.07596 0.89827,-1.60678c0.24405,-0.86258 0.4871,-1.72993 0.7467,-2.58854c-0.18194,0.24846 -0.4758,0.40981 -0.80735,0.40981c-0.17727,0 -0.34377,-0.04613 -0.48815,-0.12703c-0.1283,1.30114 -0.24522,2.60458 -0.34947,3.91255zM214.55474,200.14786c-0.05795,-2.08777 -0.10312,-4.17672 -0.20935,-6.26171c-0.06438,-0.36815 -0.12513,-0.73954 -0.18275,-1.11425c-0.70002,-0.17992 -0.69591,-0.969 -0.69591,-0.969l0.01286,-1.65914c-0.09248,-1.80643 -0.80624,-1.55728 -1.64462,-0.67313c0.31527,3.35912 0.84303,6.8555 2.29089,9.91554c0.10113,0.21374 0.25648,0.47472 0.42889,0.76167zM209.5003,192.535c-0.11801,0.1503 -0.22286,0.27328 -0.31105,0.35886l-1.18788,1.59424c-0.18181,0.24972 -0.47644,0.41203 -0.80897,0.41203c-0.55228,0 -1,-0.44772 -1,-1c0,-0.08666 0.01102,-0.17075 0.03174,-0.25093l0.30835,-1.30773c0.7179,-3.04469 0.92962,-5.83755 1.38038,-8.85198c0.0825,-0.55171 -0.41012,1.04074 -0.6782,1.52994c-0.32038,0.58464 -0.68065,1.14651 -1.02097,1.71977c-0.3415,0.57524 -0.73594,1.1176 -1.16438,1.63464l0.14341,0.08514l-0.75702,1.27516c0.69762,2.73002 1.41957,5.46687 2.4537,8.03593c0.6133,1.52361 1.83624,3.14289 2.65142,4.7926c-0.00013,-2.87944 -0.00036,-5.75887 0.00006,-8.63831c0.00007,-0.4918 -0.01817,-0.95223 -0.04058,-1.38934zM203.13165,184.82243c0.01798,-0.17474 0.03244,-0.31112 0.04145,-0.38863c0.06443,-0.55425 0.19507,-1.10174 0.22298,-1.65902c0.0154,-0.30754 0.13314,-1.12699 -0.0939,-0.91898c-0.39328,0.3603 -0.52561,0.88242 -0.62037,1.43262l0.41302,1.408c0.01231,0.04197 0.02458,0.08397 0.03682,0.126zM198.54246,188.34529c0.93154,-4.33631 2.63611,-9.00774 2.97564,-13.40734c0.06942,-0.89949 -0.07118,-1.64795 -0.13571,-2.36789c-1.36594,2.80236 -2.4897,5.83187 -3.79334,8.72155c0.06421,0.52897 0.11056,0.95607 0.14425,1.18764c0.28479,1.95717 0.54664,3.91232 0.80916,5.86605zM195.0607,175.87723c0.35665,-3.03734 0.14197,-6.07664 0.77398,-9.00686c0.0506,-0.2346 -0.2228,0.42539 -0.32281,0.64356c-0.23413,0.51074 -0.44449,1.03216 -0.67936,1.54256c-0.83113,1.8062 -1.69495,3.54679 -2.40745,5.4052c-1.25001,3.26035 -2.23193,6.9153 -3.45921,10.39144c-0.13976,3.68286 0.02138,7.31015 0.40081,11.02087c0.1339,1.30953 0.32617,2.61246 0.49949,3.91736c0.0716,0.53906 0.08805,1.08523 0.17603,1.62187c0.03483,0.21245 0.16169,0.83024 0.19102,0.61696c0.83548,-6.07473 1.95524,-12.25925 2.59558,-18.44702c0.14516,-1.40244 -0.20855,-7.3791 2.2319,-7.70595zM180.22886,187.34546c-0.43167,0.9463 -0.88854,1.8747 -1.37966,2.77396c0.02372,0.47379 0.03801,0.95353 0.04472,1.4369c0.07796,-0.21699 0.14791,-0.42396 0.20697,-0.61882c0.36341,-1.20406 0.74074,-2.4006 1.12797,-3.59204zM174.43089,174.98867c0.19017,-1.23783 0.39624,-2.4766 0.61567,-3.7221c-0.38362,1.10518 -0.75743,2.21206 -1.10867,3.32062c0.05069,0.03167 0.10232,0.06533 0.1549,0.10105c0.12056,0.08188 0.23306,0.18281 0.3381,0.30043zM180.49265,181.06372c0.00556,-0.01332 0.01112,-0.02664 0.01668,-0.03996c-0.0023,-0.00207 -0.00459,-0.00411 -0.00689,-0.0061c-0.00326,0.01535 -0.00652,0.0307 -0.00979,0.04606zM179.17543,177.11605c-0.0443,0.14672 -0.08845,0.29348 -0.13246,0.44029c-0.01574,0.20165 -0.0328,0.40353 -0.05101,0.60561c0.06461,-0.34858 0.12596,-0.69722 0.18348,-1.0459z" fill="#a7a686" stroke="none" stroke-width="0.5"></path><path d="M93.65674,194.01259c-0.45001,-3.97461 -0.95332,-8.42005 -1.40333,-12.39466c-0.15,-1.32487 -0.3515,-2.64492 -0.45001,-3.97461c-0.03701,-0.49966 0.10319,-1.02071 -0.03353,-1.50272c-0.06786,-0.23923 -0.44117,-0.74435 -0.53901,-0.51574c-0.03647,0.08522 -0.06464,0.17171 -0.08571,0.2593c0.03011,0.49643 0.06068,0.99257 0.09182,1.48846c0.10191,0.46391 0.2194,0.93278 0.21161,1.38711c-0.00863,0.48267 -0.01746,0.96534 -0.02643,1.44802c0.37267,5.47189 0.84073,10.9203 1.55363,16.39189c0.18764,1.44012 0.61847,3.23966 0.98223,5.08218c0.08745,-2.30544 0.14996,-4.61107 0.13999,-6.92065c-0.38493,-0.2511 -0.44125,-0.74857 -0.44125,-0.74857zM91.00202,204.74665c-0.03478,3.98501 0.273,8.07474 -0.34367,11.99746l0.2389,0.00209l-0.01745,1.99882c-0.00169,0.22581 -0.07822,0.43382 -0.20602,0.60043c0.77855,2.85891 1.55711,5.71781 2.33566,8.57672c0,0 0.26276,0.96486 -0.70211,1.22762c-0.96486,0.26276 -1.22762,-0.70211 -1.22762,-0.70211c-1.01795,-3.73801 -2.03591,-7.47602 -3.05386,-11.21403c0.52852,5.78993 1.31567,11.65791 2.9285,17.07873c0.86617,2.92328 1.66007,5.86722 2.72554,8.72447l0.22549,0.60525c0,0 0.34912,0.93708 -0.58796,1.2862c-0.93708,0.34912 -1.2862,-0.58796 -1.2862,-0.58796l-0.22549,-0.60525c-1.0799,-2.90117 -1.88968,-5.88694 -2.76897,-8.85452c-2.3329,-7.90394 -2.99075,-16.69552 -3.58955,-24.89244c-0.07705,-1.05473 -0.16587,-2.11235 -0.25826,-3.1718c-1.18949,-4.3679 -2.37898,-8.73579 -3.56847,-13.10369c-0.83839,-3.07864 -1.67679,-6.15729 -2.51518,-9.23593c-0.09221,0.52913 -0.22322,1.03748 -0.42222,1.50312c0.00989,0.18985 0.02075,0.37847 0.03274,0.56576l-0.05073,0.10285l0.04005,0.00615l-0.30125,1.96149c-0.06656,0.48772 -0.48477,0.86353 -0.99077,0.86353c-0.4919,0 -0.90085,-0.35517 -0.98439,-0.82305c-0.16007,1.39621 -0.38372,2.77621 -0.71025,4.13019l0.20876,0.01686l-0.16028,1.98433c-0.03658,0.51899 -0.4692,0.92866 -0.99749,0.92866c-0.49644,0 -0.90839,-0.36175 -0.98662,-0.83603l-0.35936,-1.94956c-0.3054,-1.65683 -0.54769,-3.3669 -0.81114,-5.07696c-0.41269,-0.09605 -0.72728,-0.44763 -0.76795,-0.87893l-0.21219,-1.97692l0.2466,-0.02647c-0.35283,-1.38791 -0.57845,-2.79742 -0.75004,-4.22235c-0.91195,-2.95335 -2.37713,-5.86529 -3.51222,-8.72838c-0.98658,-2.48851 -1.15499,-4.63385 -3.50488,-5.70672c-0.40166,-0.18338 -0.70658,-0.91078 -1.10775,-0.72632c-0.40117,0.18446 -0.05479,0.88739 -0.16972,1.31371c-0.51128,1.89648 -1.39253,3.78702 -2.07143,5.63109c-2.25921,6.13666 -2.89505,13.12207 -5.51203,19.1263l0.19032,0.05099l-0.51205,1.91102c-0.01423,0.0583 -0.03357,0.11459 -0.05752,0.16838c-0.21818,1.68627 -0.39237,3.37734 -0.47985,5.0972l-0.05814,0.08646l0.0392,0.00974l-0.30288,1.21948c-0.10053,0.44604 -0.49913,0.7792 -0.97554,0.7792c-0.54397,0 -0.98649,-0.43433 -0.9997,-0.97512l-0.05665,-1.9957l0.24751,-0.00703c-0.55209,-3.44096 -0.31669,-7.01326 -0.01216,-10.55188c-0.78423,-5.15906 -2.0668,-10.03659 -3.51616,-15.11593c-0.31732,3.18851 -0.58566,6.38057 -0.85608,9.55628l-0.12165,1.42855c-0.03847,0.51714 -0.47024,0.92476 -0.99721,0.92476c-0.52299,0 -0.95221,-0.40148 -0.99627,-0.91306l-0.19451,-1.97957l0.19924,-0.01958c-1.93273,-6.91894 -1.4122,-15.01592 -1.49313,-22.00846c-0.00065,-0.05639 -0.00137,-0.11271 -0.00216,-0.16897c-0.61865,-0.73142 -1.28413,-1.41001 -1.76598,-2.19442c-0.01149,4.34088 -0.05051,8.68177 -0.07846,13.02256c-0.05647,8.76918 -0.82976,17.29188 -1.75065,26.00988c-0.41853,3.96222 -0.51697,8.05716 -1.48695,11.90969l0.22639,0.02391l-0.20888,1.97743c-0.04716,0.50843 -0.47494,0.90646 -0.99568,0.90646c-0.49483,0 -0.90572,-0.35941 -0.98585,-0.83142l-0.36902,-1.94743c-0.62558,-3.30137 -1.09317,-6.71736 -1.71448,-10.07502c-0.12037,0.05134 -0.25287,0.07976 -0.392,0.07976c-0.55228,0 -1,-0.44772 -1,-1c0,-0.00061 0,-0.00121 0,-0.00182l0.00184,-1.18721h0.00022l-0.00022,-0.0005c0.00331,-1.29968 0.01031,-2.59901 0.02098,-3.8983c-0.85611,-3.03807 -1.9023,-6.05723 -3.02766,-9.06109c0.03232,1.84339 -0.00688,3.67999 -0.23915,5.48717l0.23514,-0.0041l0.03485,1.99682c0.00013,0.00676 0.0002,0.01353 0.0002,0.02033c0,0.55228 -0.44772,1 -1,1c-0.18236,0 -0.35333,-0.04882 -0.50053,-0.13409c0.5132,3.62542 1.0264,7.25083 1.53959,10.87625c0.28716,1.18393 0.53318,2.3718 0.69523,3.56707c0.06844,0.18833 0.13688,0.37666 0.20532,0.56499l-0.00762,0.01614l0.01179,-0.00394l0.01726,0.05158l0.10979,-0.02982l0.51817,1.908c0.02665,0.09008 0.04095,0.18545 0.04095,0.28417c0,0.38512 -0.2177,0.71939 -0.53676,0.88646c0.45847,3.18069 0.80218,6.35534 0.46075,9.50887c0.01156,0.10117 0.0231,0.20234 0.03461,0.30352l0.00898,0.07892l0.17013,-0.00451l0.05294,1.99502c0.00031,0.01023 0.00047,0.0205 0.00047,0.0308c0,0.55228 -0.44772,1 -1,1c-0.51825,0 -0.94442,-0.39424 -0.99498,-0.89917l-0.22471,-1.97496c-0.63456,-5.57709 -1.34578,-11.14559 -2.08347,-16.71081c-0.39835,-1.09601 -0.79669,-2.19201 -1.19503,-3.28802c-1.92507,-5.29664 -3.85314,-10.59008 -5.81188,-15.87255c-0.02483,3.98965 -0.02491,7.97954 -0.02562,11.97112c0.9422,7.72705 1.88294,15.45428 2.82293,23.1816c1.60493,8.50576 3.20583,17.01228 4.80848,25.51847c0.73582,3.90542 1.83206,7.86091 2.01079,11.82303l0.23181,-0.04649l0.38925,1.94067c0.01545,0.06985 0.02359,0.14244 0.02359,0.21693c0,0.55228 -0.44772,1 -1,1c-0.42688,0 -0.79129,-0.26748 -0.93477,-0.64398l-0.74632,-1.83046c-2.75417,-6.75502 -5.39895,-13.51892 -7.74545,-20.38834l-0.00391,0.67904c-0.00271,0.54997 -0.44938,0.99497 -0.99999,0.99497c-0.51182,0 -0.93383,-0.38451 -0.99292,-0.88042l-0.26516,-1.96816c-0.17993,-1.33552 -0.35955,-2.67108 -0.53888,-4.00668c-0.07091,-1.45084 -0.14589,-2.90222 -0.2235,-4.35404c-0.39927,-1.37222 -0.7837,-2.75023 -1.15184,-4.13475c-3.63811,-13.68234 -6.43637,-27.16117 -8.74086,-41.12914c-1.95189,-11.83076 -2.34148,-24.35616 -0.00338,-36.12925c0,0 0.19489,-0.98083 1.17571,-0.78594c0.98083,0.19489 0.78594,1.17571 0.78594,1.17571c-2.294,11.53956 -1.89807,23.81811 0.01505,35.41391c2.006,12.15873 4.38652,23.94078 7.3741,35.8147c-0.52489,-9.30133 -1.02293,-18.61214 -1.11129,-27.90808c-0.04868,-5.12078 -0.09735,-10.24155 -0.14603,-15.36233c-0.48531,-2.39847 -0.97013,-4.79703 -1.45501,-7.19559c-0.10233,-0.27033 -0.20442,-0.54076 -0.30621,-0.81129c-0.25862,-0.68732 -0.79902,-1.33177 -0.76658,-2.06542c0.003,-0.06787 0.00816,-0.13537 0.01526,-0.20251l-0.02714,-0.00119l0.08769,-1.99278c0.02032,-0.53436 0.45993,-0.96133 0.99927,-0.96133c0.49086,0 0.89912,0.35366 0.98386,0.82008l0.3682,1.82086c-0.00015,-0.01577 -0.0003,-0.03155 -0.00045,-0.04732c-0.03869,-4.06989 -0.39366,-8.11175 0.29132,-12.06092l-0.2334,-0.01758l0.14954,-1.98572c0.00663,-0.10106 0.02828,-0.19803 0.06273,-0.28868c-0.54548,-2.76246 -1.05791,-5.53393 -1.52482,-8.31999l0.00315,-0.01843l-0.00563,0.00074l-0.25795,-1.96687c-0.00699,-0.04772 -0.01061,-0.09652 -0.01061,-0.14618c0,-0.55228 0.44772,-1 1,-1c0.46826,0 0.86136,0.32185 0.97012,0.75641l0.52342,1.90772l-0.24092,0.0661c1.6206,3.62308 2.36133,7.66213 3.41603,11.50622c0.13467,0.49084 0.26921,0.98171 0.40362,1.47262c-0.21646,-1.44864 -0.37369,-2.89854 -0.40495,-4.34652c-0.0295,-0.1232 -0.05927,-0.24631 -0.08932,-0.36933l-0.01734,-0.0711l-0.15385,0.02482l-0.31555,-1.95622c-0.01032,-0.05761 -0.01571,-0.11693 -0.01571,-0.17751c0,-0.55228 0.44772,-1 1,-1c0.4778,0 0.87734,0.3351 0.97641,0.7831l0.46906,1.92294c1.2513,5.13637 2.09738,10.40892 2.91778,15.67007c0.94944,0.84718 1.11887,2.12936 1.76894,3.9084c0.47337,1.29547 0.96645,2.59263 1.47015,3.8918c0.02597,-0.38297 0.05109,-0.76609 0.07595,-1.1492c-0.11457,-6.56423 -0.22914,-13.12845 -0.34371,-19.69268c-0.11299,-6.60751 -1.07684,-13.26833 -1.6837,-19.84927l-0.18249,-1.97895c-0.00356,-0.03432 -0.00539,-0.06916 -0.00539,-0.10442c0,-0.55228 0.44772,-1 1,-1c0.45798,0 0.84406,0.30788 0.96255,0.72795l0.5807,1.89019l-0.23719,0.07287c1.41344,3.00121 2.17845,6.24596 3.17391,9.48619c1.52099,4.95086 2.9811,10.09894 4.1004,15.29204l0.09284,-1.7255c0.02472,-0.5303 0.46249,-0.95265 0.9989,-0.95265c0.33889,0 0.6384,0.16857 0.81927,0.42644c0.48779,-4.16255 0.97247,-8.32542 1.44669,-12.48958l-0.00642,-0.04182c0,0 0,-1 1,-1v0.00004c1,0 1,1 1,1l-0.00642,0.26812c-0.37063,3.25454 -0.74765,6.50829 -1.12755,9.76172c0.41821,-1.04415 0.86332,-2.07579 1.33693,-3.09325c1.67734,-2.38892 1.66696,-4.02632 3.78876,-0.0703c0.75105,1.40031 0.62245,4.57022 0.83026,6.16913c0.22817,1.75559 0.34651,3.522 0.40958,5.29417c0.31555,0.46988 0.59914,0.94826 0.84074,1.43224c0.31381,0.62863 0.58386,1.30292 0.82366,2.00515c0.26995,-1.84501 0.56625,-3.68562 0.89487,-5.52031c0.51327,-2.86558 0.7879,-5.43087 1.77386,-7.91869l-0.32147,-0.11406l0.66101,-1.86294c0.13121,-0.39926 0.50705,-0.68753 0.95021,-0.68753c0.50432,0 0.92144,0.37332 0.99009,0.85869l0.16957,1.06659c0.6815,4.29448 1.10493,8.76495 1.26343,13.11199c0.25196,6.97423 0.3692,13.81366 0.17535,20.71561c1.05797,-7.75026 2.12689,-15.55274 4.86244,-22.83051c0.93782,-2.49501 1.83786,-5.00854 2.81475,-7.48847c0.28892,-0.73346 0.31029,-1.66097 0.89593,-2.18866c0.76236,-0.68693 1.89549,-0.78701 2.84323,-1.18051c5.4367,7.82442 5.53084,17.71173 6.5222,26.94814c0.07552,0.70364 0.22876,1.5522 0.3959,2.47044c0.45185,-3.16933 0.99081,-6.31586 1.62846,-9.46031l-0.11926,-0.43792c-0.02678,-0.09028 -0.04115,-0.18588 -0.04115,-0.28485c0,-0.36593 0.19655,-0.68595 0.48983,-0.86026c0.20541,-0.96239 0.42024,-1.92491 0.64483,-2.88815c0.71866,-3.08221 1.23788,-6.05761 2.34185,-8.90507l-0.23422,-0.05817l0.47707,-1.92079c0.10053,-0.44604 0.49913,-0.77919 0.97554,-0.77919c0.52837,0 0.96102,0.40978 0.99751,0.92886l0.13995,1.73743c0.21424,2.6596 0.2683,5.31807 0.25257,7.978c0.03393,0.02466 0.06744,0.0503 0.10054,0.07688l0.13619,-0.87206c0.06756,-0.4866 0.48526,-0.86121 0.99045,-0.86121c0.52106,0 0.94905,0.39853 0.99577,0.9074l0.20683,1.97774l-0.27653,0.02892c0.30914,1.44195 0.42159,2.86486 0.40751,4.2887c0.13604,0.54037 0.25193,1.0069 0.35977,1.33534c0.3852,1.17319 0.80912,2.35519 1.24213,3.54365c0.12002,-2.13867 0.29281,-4.27415 0.53979,-6.40501c0.38875,-3.354 0.57032,-6.68598 1.3714,-9.90799l-0.22005,-0.0255l0.22883,-1.9743c0.05143,-0.50402 0.47719,-0.89727 0.99479,-0.89727c0.46379,0 0.85383,0.31573 0.96692,0.74397l0.37981,1.31572c1.44533,5.04156 1.67488,10.8358 1.97411,16.07156c0.03433,0.60225 0.06888,1.20392 0.10384,1.80509c0.56015,-0.00839 1.32486,0.39623 2.36968,1.43287c0.19482,0.1933 0.58769,3.9841 0.64148,4.45919c0.01293,0.1142 0.02586,0.22841 0.03879,0.34261c0.12736,-4.98277 0.51625,-9.94602 1.52618,-14.75769c0.41042,-1.9554 0.78074,-3.92583 1.23249,-5.87205c0.18273,-0.78724 0.03441,-1.7643 0.58939,-2.35178c0.70009,-0.74109 1.81597,-1.50697 2.79832,-1.23432c0.8855,0.24577 0.91427,1.59441 1.37141,2.39162c1.25624,2.97757 1.54003,6.17773 2.07397,9.35733c0.07561,0.45026 0.14977,0.9006 0.22258,1.35104c0.03064,-0.17074 0.05783,-0.335 0.08075,-0.49187l0.18935,-1.29598c0.06362,-0.49098 0.48335,-0.87023 0.99166,-0.87023c0.33158,0 0.62546,0.16138 0.8074,0.40988l0.0422,-0.56101c0.03417,-0.52133 0.46786,-0.93361 0.99783,-0.93361c0.42559,0 0.78909,0.26587 0.93346,0.64058l0.75293,1.82778l-0.2185,0.09001c0.8717,1.62085 1.49685,3.29683 2.00952,5.02883c0.08353,-0.04399 0.1727,-0.08251 0.26778,-0.1152c0.20503,-0.07047 0.40078,-0.08231 0.58821,-0.04861c0.87443,-2.84921 1.83789,-5.69161 2.903,-8.5449c1.01487,-2.7187 2.01192,-4.95296 3.86779,-7.2256c0.57048,-0.69859 0.96013,-1.69362 1.80131,-2.01903c0.53944,-0.20868 1.08306,0.41953 1.58346,0.70962c2.35997,1.36811 2.55727,2.91955 3.45459,5.33395c2.11002,5.67738 3.63589,12.87081 2.79324,19.11522l0.24023,-0.00442l0.03623,1.96927c0.15312,-1.33299 0.30851,-2.6658 0.46532,-3.9986c0.08335,-0.7085 0.43269,-4.41255 0.91408,-4.69326c0.8566,-0.4995 2.10125,0.04041 2.911,0.61275c0.2623,0.1854 0.50767,0.45753 0.73148,0.79047c-0.0052,-0.10603 -0.01085,-0.21156 -0.01699,-0.31655l-0.07403,-1.26687c-0.00147,-0.02216 -0.00221,-0.04451 -0.00221,-0.06704c0,-0.55228 0.44772,-1 1,-1c0.53393,0 0.97012,0.41845 0.99853,0.94529l0.12349,1.98889l-0.00871,0.00054c0.15518,2.8519 0.24393,5.70281 0.31578,8.55607c0.70528,0.16621 1.11856,0.96149 1.49086,1.70609c0.0757,-0.77045 0.15392,-1.53869 0.23399,-2.30439c0.53173,-5.08453 0.75049,-10.18361 1.24015,-15.26811c0.17139,-1.77971 0.08929,-5.15282 3.03197,-4.90396c0.44231,0.03741 2.60439,3.23137 2.73879,3.55254c1.89425,4.52654 1.77431,10.9533 2.42234,15.80095c1.23064,9.22995 3.30707,19.32976 6.13934,28.2075c0.09216,0.28887 0.20605,0.58525 0.33451,0.88753c-0.6929,-7.3762 -0.63477,-14.73909 -0.53612,-22.22869c0.08318,-6.31473 0.47313,-12.84752 1.57971,-19.07616c0.2383,-1.34131 0.27679,-4.62696 3.24138,-3.70941c0.61261,0.18961 0.95009,0.82896 1.14631,1.5666c0.47003,0.08178 0.82739,0.49174 0.82739,0.98516c0,0.00965 -0.00014,0.01927 -0.00041,0.02885l-0.04956,1.99536c-0.01249,0.50296 -0.02572,1.01029 -0.03908,1.52129c0.14935,1.14028 0.12567,2.47165 0.04832,3.76331c0.16957,2.40176 0.31719,4.80473 0.4548,7.21205c0.05381,0.94145 0.10455,1.8831 0.15315,2.82489c0.2765,-1.56955 0.59617,-3.13636 0.83537,-4.67463l0.27828,-1.96076c0.06197,-0.49279 0.48254,-0.87397 0.99213,-0.87397c0.51703,0 0.94241,0.39238 0.99462,0.8956l0.23245,1.97371l-0.19586,0.02307c0.68943,2.36338 1.11229,4.83238 1.51938,7.29283c0.52333,-5.88978 2.33553,-11.7098 2.32653,-17.58761c0,0 0,-1 1,-1c1,0 1,1 1,1c-0.00954,6.74665 -2.36867,13.39544 -2.46375,20.17617c-0.03847,2.74317 0.06269,5.59047 0.27622,8.40662c1.33497,6.17102 2.81025,12.29389 4.40157,18.42236c0.99396,3.85078 2.65202,7.60298 4.49567,11.22445c1.18882,1.84961 2.33435,3.71708 3.23082,5.69213l0.19744,-0.12873l1.08449,1.6634c0.10742,0.15941 0.17012,0.35144 0.17012,0.55812c0,0.38846 -0.2215,0.72519 -0.54509,0.89077c0.93084,1.14482 1.87741,2.28212 2.81985,3.42701c2.3469,2.85104 4.7311,5.66207 7.13737,8.46324l0.0219,0.06786l0.01744,-0.01125l1.07634,1.66835c0.10588,0.15866 0.1676,0.34931 0.1676,0.55437c0,0.55228 -0.44772,1 -1,1c-0.22394,0 -0.43069,-0.07361 -0.59737,-0.19796l-1.60815,-1.17036l0.17107,-0.23506c-2.89716,-1.74163 -5.16003,-4.19898 -7.52274,-6.82213c-3.99567,-4.43611 -8.33988,-9.0231 -11.28643,-14.26726c-1.62632,-2.89446 -2.70206,-6.29128 -4.00714,-9.34632c-1.42366,-4.92515 -2.9983,-9.8977 -4.15526,-14.94045c0.02229,0.31281 0.04511,0.62558 0.06848,0.93831c0.33195,4.4422 1.13411,9.16241 1.00791,13.67571c0.00875,0.05506 0.01751,0.11012 0.02628,0.16518l0.01032,0.04252l0.15504,-0.02473l0.31213,1.95689c0.01011,0.05703 0.01538,0.11573 0.01538,0.17566c0,0.55228 -0.44772,1 -1,1c-0.47819,0 -0.87798,-0.33564 -0.97665,-0.78418l-0.46685,-1.92353l0.01299,-0.00315l-0.02161,-0.03574c-0.13098,-0.81779 -0.25939,-1.63571 -0.38554,-2.45381c-0.065,-0.3349 -0.11692,-0.68154 -0.15845,-1.03549c-0.52712,-3.47066 -1.01551,-6.94484 -1.4871,-10.42586c-1.22142,-9.03342 -1.31268,-18.16864 -1.09488,-27.25929c0.06212,-2.59284 -0.18501,-5.16276 0.04983,-7.63516c-0.01151,-0.1363 -0.02315,-0.2726 -0.03492,-0.4089c-0.01216,-0.14073 -0.04182,-3.8521 -0.30883,-4.16132c-0.48217,-0.5584 -0.50093,1.40019 -0.59433,2.13202c-0.21254,1.66531 -0.4832,3.23451 -0.63038,4.9091c-0.40735,4.6347 -0.86454,9.23337 -0.92583,13.88661c-0.12755,9.68332 -0.18111,19.14593 1.38073,28.71425l0.60294,1.82067c0.03758,0.10516 0.05804,0.21846 0.05804,0.33653c0,0.55228 -0.44772,1 -1,1c-0.42189,0 -0.78276,-0.26126 -0.92964,-0.63082l-0.77187,-1.81999l0.14701,-0.06235l-0.02354,-0.07107l0.06834,-0.02263l-0.08991,-0.05215c-0.00884,-0.05275 -0.01762,-0.1055 -0.02636,-0.15825c-2.36386,-3.9359 -3.45603,-8.54583 -4.51753,-13.04555c-1.76243,-7.471 -3.79786,-15.02324 -4.81813,-22.63633c-0.61759,-4.61995 -1.3092,-9.20983 -2.06141,-13.8091c-0.15086,-0.92243 -0.72349,-3.3368 -1.49778,-3.84591c-0.59416,-0.39067 -0.4184,1.36733 -0.50109,2.07359c-0.1962,1.67568 -0.31104,3.34535 -0.42268,5.03106c-0.25058,3.78352 -0.58435,7.54058 -0.97875,11.31196c-0.34161,3.2666 -0.65058,6.58153 -0.87408,9.91801c0.01039,0.09425 0.02158,0.18547 0.03373,0.27334c0.73546,5.32195 0.88844,10.66997 1.15798,16.03393c0.15085,3.00184 0.49014,5.99209 0.39674,8.95847c1.66252,7.58522 3.47512,15.09634 5.44983,22.61329c0.47819,1.41493 0.96809,2.82721 1.46897,4.23863c0.77561,1.74197 1.66839,3.64444 1.93959,5.32246c0.13567,0.36331 0.272,0.72671 0.40899,1.09023l0.00005,0.00123l0.00036,-0.00014l0.69281,1.85157c0.04612,0.115 0.0715,0.24056 0.0715,0.37204c0,0.55228 -0.44772,1 -1,1c-0.43093,0 -0.7982,-0.27258 -0.93879,-0.65473l-0.72537,-1.83878l0.03278,-0.01293l-0.00579,-0.01546c-0.16809,-0.44607 -0.33521,-0.89196 -0.50133,-1.33773c-1.54247,-2.95994 -2.50807,-6.24236 -3.38165,-9.50403c-1.87136,-5.54614 -3.56381,-11.13366 -5.03399,-16.86802c-0.95877,-3.73965 -1.58646,-7.56038 -1.96229,-11.42221c-1.22534,-5.43891 -2.49149,-10.87135 -3.55581,-16.33865c-0.67545,-3.46974 -1.71886,-6.71066 -1.49784,-10.03825l-0.4296,-0.02371l0.10987,-1.99043c0.02534,-0.52972 0.46285,-0.95141 0.99884,-0.95141c0.46085,0 0.8489,0.31175 0.96475,0.73586l0.12404,0.41617c-0.02958,-1.16243 -0.02182,-2.33704 -0.00391,-3.50329l-0.25442,-0.96036l0.19812,-0.05249c-0.50665,-1.13566 -0.93127,-2.27345 -1.4557,-3.57526c-0.19724,-0.48962 -0.29379,-1.0223 -0.54337,-1.48743c-0.1019,-0.18992 -0.41803,-0.63322 -0.48449,-0.4282c-0.38513,1.1881 -0.09287,3.86569 -0.25435,5.23825c-0.58348,4.95953 -1.08958,9.92463 -1.62165,14.88974l-0.04714,0.08918l0.02245,0.00697l-0.58628,1.88839c-0.11941,0.41865 -0.50479,0.72516 -0.96176,0.72516c-0.35018,0 -0.65833,-0.18 -0.83696,-0.45252l-1.11152,-1.6445l0.24413,-0.16501c-2.96366,-4.38197 -3.95307,-10.28326 -5.33126,-15.68904c-0.01684,0.40325 -0.02852,0.79738 -0.0227,1.17464c0.04294,2.78487 0.22143,5.58601 0.47384,8.37213c0.10183,0.60265 0.18717,1.15503 0.16228,1.69409c0.05807,0.57658 0.11879,1.15224 0.1816,1.7267l0.12845,1.17574c0.00493,0.04027 0.00747,0.08127 0.00747,0.12287c0,0.55228 -0.44772,1 -1,1c-0.51818,0 -0.94431,-0.39413 -0.99496,-0.89897l-0.22515,-1.97489l0.00828,-0.00094c-0.08741,-0.78212 -0.17829,-1.57584 -0.26772,-2.37802c-0.43168,-2.22544 -0.6937,-4.49457 -1.20524,-6.72757c-0.25207,0.39601 -0.50425,0.7921 -0.75571,1.18883c-0.34401,0.54277 -1.63375,2.7257 -2.51676,3.53566c2.6273,13.18522 4.81899,26.44456 7.75716,39.56814c0.5318,2.37531 1.10956,4.73004 1.71272,7.08844l-0.00863,0.05108l0.0173,-0.00266l0.23549,1.53125c0.00944,0.05518 0.01435,0.11191 0.01435,0.16978c0,0.55228 -0.44772,1 -1,1c-0.4141,0 -0.76942,-0.2517 -0.92129,-0.61047l-0.81122,-1.80319l0.20584,-0.0926c-2.29527,-3.62353 -3.48234,-7.722 -4.59822,-11.90591c-0.01104,0.00036 -0.02212,0.00054 -0.03325,0.00054c-0.43553,0 -0.80603,-0.27843 -0.94321,-0.66699l-0.70139,-1.84803l0.22632,-0.0859c-1.5956,-2.90919 -2.57311,-6.0972 -3.77468,-9.26339c-1.48005,-3.90001 -2.86923,-7.83991 -4.21919,-11.79454c-0.16094,0.33668 -0.50467,0.56926 -0.90273,0.56926c-0.50003,0 -0.91435,-0.36701 -0.98827,-0.84635l-0.27244,-1.57675c-0.29699,-1.72039 -0.7196,-3.44874 -1.16679,-5.18104c-0.16509,-0.17834 -0.26599,-0.41696 -0.26599,-0.67914c0,-0.03308 0.00161,-0.06579 0.00475,-0.09804l0.01476,-0.17087c-0.6876,-2.6326 -1.38938,-5.27261 -1.75152,-7.90592c-0.00634,-0.01887 -0.01268,-0.03774 -0.01902,-0.05661l-0.18675,0.06184l-0.62141,-1.87644c-0.03758,-0.10516 -0.05804,-0.21846 -0.05804,-0.33653c0,-0.55228 0.44772,-1 1,-1c0.00955,0 0.01907,0.00013 0.02855,0.0004c-0.2532,-1.36928 -0.47475,-2.74355 -0.634,-4.12773l-0.22609,-1.97223c-0.00541,-0.04212 -0.0082,-0.08506 -0.0082,-0.12865c0,-0.55228 0.44772,-1 1,-1c0.14301,0 0.27901,0.03002 0.40204,0.0841c-0.24572,-1.67113 -0.5058,-3.3409 -0.78599,-5.00941c-0.50485,-3.00637 -0.73452,-6.09859 -1.94174,-8.90505c-0.0652,-0.42956 0.10917,-0.979 -0.19559,-1.28867c-0.52495,-0.53342 -0.63153,1.37427 -0.76603,2.11049c-0.11981,0.65581 -0.27389,1.3049 -0.41083,1.95735c-0.48412,2.30652 -1.19823,4.67771 -1.47548,7.01734c-1.01325,8.55058 -0.85866,17.23877 -0.78885,25.82777c0.03687,4.53578 -0.20498,9.05719 -0.40403,13.58834l-0.0322,0.06988l0.02067,0.00402l-0.37852,1.9453c-0.08199,0.46977 -0.49183,0.82688 -0.98507,0.82688c-0.44987,0 -0.83036,-0.29707 -0.956,-0.70574l-0.62497,-1.87555l0.28357,-0.09449c-1.30356,-3.28976 -1.49186,-6.78873 -1.92758,-10.43979c-0.03748,2.36536 -0.0686,4.73073 -0.08924,7.09605zM81.28797,181.71085c-0.08666,-0.54647 -0.17869,-1.09497 -0.27354,-1.64514c-0.18291,0.20088 -0.44653,0.32695 -0.73961,0.32695c-0.07389,0 -0.14591,-0.00801 -0.21524,-0.02322c0.72832,2.67445 1.45664,5.3489 2.18496,8.02335c-0.30523,-2.24331 -0.60718,-4.47876 -0.95657,-6.68193zM77.96216,171.06194c-0.06872,0.29896 -0.13261,0.59912 -0.19207,0.90036c0.21194,0.77827 0.42389,1.55655 0.63583,2.33482v-0.00001c0.01921,-0.12094 0.03852,-0.24184 0.05792,-0.3627c-0.16067,-1.23636 -0.24699,-2.49018 -0.28569,-3.75445c-0.07617,0.29647 -0.14903,0.59072 -0.21599,0.88198zM40.19714,173.00625c0.003,1.58321 0.01432,3.16648 0.02297,4.7496c0.13154,-2.58211 0.21402,-5.17387 0.23084,-7.78475c0.03004,-4.66491 0.0729,-9.32994 0.08054,-13.99495l0.0022,-1.34333c-0.46113,1.38688 -0.87928,2.792 -1.25814,4.21152c1.01767,4.56709 0.91245,9.33584 0.9216,14.16191zM41.53476,152.9778c0.33103,0 0.62448,0.16084 0.80649,0.40864l1.19429,1.58981l-0.08737,0.06563c0.24098,0.23606 0.48,0.47756 0.71507,0.72394c-0.09229,-1.4222 -0.23154,-2.83716 -0.42092,-4.28943c-0.18981,-1.45559 -0.31096,-2.31034 -0.46282,-3.74691c-0.03592,-0.33984 0.0544,-1.33086 -0.09019,-1.02122c-0.1746,0.37389 -0.00733,0.82527 -0.01099,1.2379c-0.78143,1.67874 -1.48304,3.39747 -2.11252,5.14819c0.13986,-0.0744 0.29949,-0.11656 0.46896,-0.11656zM50.08046,169.70182c0.99262,3.42964 1.93079,6.74676 2.72038,10.08628c0.21023,-6.28734 -0.13218,-12.54748 -0.35986,-18.8496c-0.09277,-2.59323 -0.28302,-5.23327 -0.56875,-7.85153c-0.3966,2.00755 -1.01566,4.04117 -1.30321,5.64657c-0.48134,2.68732 -0.87315,5.39815 -1.20751,8.11997c0.22921,0.98404 0.45821,1.94745 0.71894,2.84832zM60.26669,168.08824c0.24206,-0.65803 1.432,-4.10141 1.9017,-4.31738c0.82509,-0.37938 1.77772,0.38711 2.64097,0.66907c3.23323,1.05608 3.51227,3.93283 4.66641,6.84398c0.28966,0.73063 0.59975,1.46421 0.91646,2.20071c-0.52504,-4.66284 -1.15222,-9.3061 -1.7912,-13.9567c-0.17401,-1.26645 -0.12788,-2.5808 -0.50844,-3.80119c-0.63684,-2.04226 -2.56025,-3.75156 -2.68701,-5.93343c-2.17938,1.84473 -3.04338,6.96782 -4.05597,9.66176c-2.19522,5.84025 -3.29321,12.03457 -4.18539,18.26231c0.92851,-3.23582 1.92856,-6.43791 3.10247,-9.62913zM74.42611,186.54613c0.36868,-4.59866 0.57718,-9.2125 1.26133,-13.76049c-0.0001,-0.00062 -0.0002,-0.00123 -0.00029,-0.00185c-0.67118,3.88524 -1.19912,7.78907 -1.60643,11.75224c0.12376,0.66667 0.23726,1.33772 0.3454,2.01011zM87.81762,182.64584c0.65858,3.04894 1.09499,6.37693 1.37399,9.70285c0.07389,-4.03079 0.15529,-8.06147 0.22946,-12.09204c-0.19046,-2.80328 -0.35624,-5.61271 -0.51708,-8.43439c-0.18959,-3.33482 -0.33685,-6.92807 -0.81838,-10.38531c-0.28411,1.89562 -0.73346,3.7907 -0.89398,5.17558c-0.43261,3.7324 -0.63459,7.47967 -0.72388,11.23363c0.53079,1.5962 1.00388,3.19794 1.34987,4.79968zM82.2772,175.14553c0.01423,0.11208 0.02961,0.22089 0.0463,0.32612c0.78252,4.93429 1.35573,10.02333 2.10341,15.06473c-0.00424,-1.12287 -0.01021,-2.24592 -0.01485,-3.36897c-0.69677,-3.97384 -1.32306,-8.03614 -2.13486,-12.02188zM86.89612,202.97656c0.61486,2.2712 1.27005,4.53943 1.89058,6.81593c0.09224,-1.14614 0.19051,-2.21392 0.19792,-3.06337c0.00885,-1.01331 0.01928,-2.02662 0.03105,-3.03992c-0.11638,0.04742 -0.24371,0.07356 -0.37713,0.07356c-0.48558,0 -0.89033,-0.3461 -0.98101,-0.80508l-0.42384,-1.93457l0.24253,-0.05314c-0.39072,-1.04331 -0.70451,-2.10733 -0.97408,-3.18665c0.07386,1.65843 0.19695,3.32012 0.33659,4.98057c0.01902,0.07094 0.03815,0.14183 0.05739,0.21268zM32.83211,154.68703c-0.26932,1.62462 -1.20268,3.16918 -1.52288,4.8557c-0.55355,2.91558 -0.7453,5.90093 -0.89215,8.8985c0.04615,2.64399 0.0923,5.28799 0.13844,7.93198c0.00265,0.15196 0.0058,0.30406 0.00938,0.45629c1.15254,2.9189 2.29338,5.85018 3.32099,8.79746c0.15676,-6.24521 0.6204,-12.65129 1.66763,-18.93008c-0.49063,-4.10678 -1.26297,-8.14691 -2.72142,-12.00984zM37.84222,201.76805c0.24893,-1.48867 0.54426,-2.90897 0.65901,-3.99535c0.13325,-1.26152 0.26508,-2.51952 0.39356,-3.7751c-0.00738,0.00016 -0.01478,0.00024 -0.0222,0.00024c-0.52436,0 -0.95446,-0.40358 -0.99661,-0.91707l-0.18573,-1.98084l0.25473,-0.02388c-0.75517,-3.09288 -0.86203,-6.28641 -1.14781,-9.52685c-0.27165,3.67682 -0.18877,7.51925 -0.71436,11.19532c0.75241,2.938 1.26537,5.98623 1.7594,9.02353zM19.63983,163.39231c-0.43303,-1.90843 -0.86082,-3.81644 -1.27919,-5.72589c-0.08123,1.2494 -0.17118,2.4289 -0.16211,3.38271c0.0266,2.79809 0.05319,5.59618 0.07979,8.39426c0.33661,1.07058 0.6554,2.10672 1.00197,3.01411c0.05765,0.15093 0.11525,0.30187 0.17282,0.45282c0.0146,-0.65811 0.03048,-1.31624 0.04775,-1.97441c0.05176,-1.97235 -0.04861,-4.03638 0.1574,-5.99794c0.04961,-0.47235 -0.0278,-1.03362 -0.01843,-1.54566zM19.28535,195.68024c-0.27405,-2.24811 -0.54796,-4.49624 -0.82174,-6.74439c0.00035,0.03734 0.00071,0.07468 0.00106,0.11201c0.07028,7.3936 0.404,14.79568 0.80168,22.19499c0.01194,-4.76118 0.01721,-9.52237 0.01869,-14.28378c0.00013,-0.4263 0.00022,-0.85258 0.0003,-1.27884zM38.19964,173.89714c-0.00108,-0.2957 -0.00194,-0.5914 -0.0025,-0.8871c-0.0049,-2.58638 0.2298,-5.33544 0.12983,-7.97287c-0.16213,1.53564 -0.31843,3.07249 -0.46921,4.60991c0.12878,1.41358 0.23763,2.83155 0.34188,4.25006zM21.26694,211.92037c-0.0093,3.68151 -0.0233,7.36301 -0.04451,11.04462c-0.01393,2.41871 0.10226,4.87677 0.05591,7.31152c1.8626,5.92895 3.982,11.76126 6.23744,17.5587c-0.05923,-0.46776 -0.1217,-0.9015 -0.19411,-1.28587c-1.7301,-9.18259 -3.46205,-18.36482 -5.18977,-27.54786c-0.28839,-2.36036 -0.57671,-4.72073 -0.86496,-7.08111zM30.21174,156.67602c0.31256,-1.11282 0.68855,-2.20939 1.14497,-3.28553l-0.18455,-0.05801l0.59296,-1.88623c0.1205,-0.41694 0.50505,-0.72182 0.9608,-0.72182c0.01386,0 0.02765,0.00028 0.04136,0.00084c-0.89768,-3.55476 -1.91928,-7.06573 -2.9686,-10.48129c-0.13632,-0.44373 -0.31733,-0.94235 -0.5213,-1.47841c0.40325,3.87082 0.7557,7.74952 0.82442,11.61161c0.03665,2.09962 0.07329,4.19924 0.10994,6.29885zM86.91017,189.57969c-0.14177,-1.22908 -0.30866,-2.44602 -0.50408,-3.63531c0.00081,0.25804 0.00175,0.51608 0.00278,0.77413c0.16414,0.95784 0.33026,1.91219 0.5013,2.86118zM19.10145,177.62707c0.08096,0.66208 0.16191,1.32417 0.24284,1.98625c0.00474,-0.43321 0.00988,-0.86643 0.01543,-1.29965c-0.08601,-0.22889 -0.1721,-0.45776 -0.25827,-0.68661zM24.67167,176.38002c-0.12863,-0.81997 -0.25897,-1.6397 -0.3906,-2.45926c-0.30856,-1.15932 -0.63629,-2.31443 -0.97214,-3.46787c0.45425,1.97571 0.90849,3.95142 1.36274,5.92713zM21.36445,177.96309c1.4402,3.83642 2.85971,7.67989 4.26914,11.52744c-1.38194,-6.0105 -2.76365,-12.02104 -4.14553,-18.03156c-0.05473,2.16832 -0.09458,4.33628 -0.12361,6.50411zM26.52967,172.03718c0.3218,1.4085 0.95263,3.08683 1.34536,4.68291c0.04064,-0.32349 0.07859,-0.64759 0.11425,-0.97221c-0.49075,-1.23895 -0.97994,-2.47576 -1.4596,-3.7107zM46.74798,172.63945c0.19087,-1.85901 0.3966,-3.71653 0.6232,-5.57103c-0.27297,-1.19515 -0.5528,-2.41355 -0.90088,-3.57164c0.01261,3.05309 0.0132,6.10918 0.27768,9.14268zM76.67583,186.36859l0.03572,0.00458c-0.01214,-0.17347 -0.02424,-0.34695 -0.03632,-0.52043c-0.0272,0.41399 -0.05762,0.82715 -0.09224,1.23923zM78.354,160.93434c-0.24436,0.78428 -0.48733,1.53563 -0.6766,2.21395c0.19515,-0.52315 0.40883,-0.89682 0.63872,-0.9974c0.01377,-0.40601 0.02669,-0.8116 0.03788,-1.21655zM123.28895,173.92533c-1.21121,0.12249 -1.64409,1.16199 -2.12053,2.24094c1.47579,4.32682 2.56442,8.75801 3.75174,13.18434c0.44252,1.64972 1.27975,3.31076 1.71427,4.94219c0.40134,-4.11304 0.84961,-8.21957 1.31999,-12.32434c-0.11867,0.4198 -0.50461,0.72742 -0.9624,0.72742c-0.49491,0 -0.90585,-0.35952 -0.98589,-0.83165l-0.24062,-1.27154c-0.44592,-2.41601 -1.68294,-4.35824 -2.47655,-6.66736zM114.11814,175.1081c0.75243,0.52416 1.90548,0.41289 2.52714,1.08701c0.43212,0.46858 0.80918,1.00909 1.1394,1.60095c0.04697,-1.03812 0.13478,-2.06558 0.27374,-3.07582l-0.19478,0.00302l-0.031,-1.99719c-0.00011,-0.00602 -0.00016,-0.01204 -0.00016,-0.01809c0,-0.55228 0.44772,-1 1,-1c0.4357,0 0.80633,0.27865 0.94338,0.66746l0.5081,1.34076c0.24108,-0.56226 0.47719,-1.13397 0.99201,-1.39483c0.9025,-0.45729 2.02199,-0.07759 3.03298,-0.11639c0.54298,0.96447 1.07319,1.90576 1.55486,2.8582c-0.1686,-4.48967 -1.26561,-9.64581 -2.81641,-13.79793c-0.4303,-1.15209 -0.47519,-2.51243 -1.24151,-3.47432c-0.35099,-0.44057 -1.00547,-0.52662 -1.43829,-0.88712c-0.11043,-0.09197 -0.03182,-0.52435 -0.12295,-0.41323c-0.9137,1.11414 -2.12118,3.05958 -2.81285,4.35173c-0.60819,1.13619 -0.89296,2.41785 -1.34366,3.62521c-1.15504,3.0942 -2.18487,6.17373 -3.10967,9.26228c0.41569,0.56317 0.78759,1.13304 1.13967,1.3783zM116.48793,180.21068c-0.13725,-0.39082 -0.28762,-0.77951 -0.45349,-1.1656c-0.48714,-1.13394 -1.93998,-1.52887 -2.9565,-2.22876c-0.29383,-0.20231 -0.55036,-0.45289 -0.78589,-0.72485c-0.13013,0.46151 -0.25804,0.92336 -0.3838,1.38561c0.31118,1.34825 0.37857,1.74454 0.70626,3.37747c0.02186,0.10895 0.04373,0.2179 0.06559,0.32685c0.36536,1.15132 0.75298,2.30243 0.98654,3.42471c0.03994,0.19192 -0.07171,0.47173 -0.15557,0.71641c0.03458,0.17233 0.06916,0.34467 0.10374,0.517c0.34132,-0.02376 -0.05696,-0.86181 0.09488,-1.22946c0.509,-1.23236 1.42757,-2.25237 2.14135,-3.37855c0.21494,-0.33912 0.42699,-0.6795 0.63687,-1.02084zM108.86807,190.73692c-0.29204,1.52998 -0.56841,3.07184 -0.83132,4.62819c1.64718,4.89013 3.33552,9.76693 5.16331,14.58243c0.01479,0.03897 0.02997,0.07835 0.04551,0.11813c-0.2025,-0.95913 -0.40567,-1.91795 -0.60963,-2.87648c-0.66232,-2.77424 -1.29676,-5.55703 -1.8991,-8.35563c-0.58942,-2.73856 -1.20703,-5.43052 -1.86877,-8.09664zM136.19178,192.64988c-0.16944,-1.11468 -0.34437,-2.22797 -0.49785,-3.33859c-0.00382,-0.02761 -0.06271,-0.38732 -0.13864,-0.87742c0.00147,0.02275 0.00293,0.0455 0.00439,0.06826c0.04537,0.41541 0.08411,0.82209 0.07425,1.20779c0.01871,0.31477 0.03705,0.62964 0.05536,0.94465l-0.00915,0.02918h0.00958v2c0,0.51878 -0.39504,0.94529 -0.90071,0.99513c0.35492,1.87163 0.71849,3.7412 1.08909,5.60935c0.0578,-2.21693 0.16719,-4.43215 0.31368,-6.63835zM164.61935,199.72776c-0.60535,-2.80912 -1.18008,-5.62734 -1.72073,-8.4588c-0.24552,-1.2858 -0.79001,-3.02554 -1.19053,-4.79704c-0.21225,1.24413 -0.38791,2.48806 -0.46161,3.71788c-0.157,2.61968 -0.0498,5.21502 0.24337,7.78911c0.32806,1.02836 0.65252,2.0487 0.93158,3.05348c0.93417,3.36359 2.13156,6.68823 3.50097,9.95297c-0.27035,-1.97248 -0.50517,-3.9448 -0.75396,-5.89529c-0.22265,-1.75079 -0.40846,-3.54972 -0.54908,-5.36232zM167.26649,218.63476c-0.73491,-1.45925 -1.44205,-2.93351 -2.11475,-4.42123c0.58769,2.00856 1.18759,4.00765 1.75902,5.99889c0.96315,2.24264 1.95063,4.38369 3.00899,6.44684c-0.26607,-0.58096 -0.518,-1.17186 -0.75434,-1.77377c-0.79731,-2.03059 -1.40841,-4.12374 -1.89892,-6.25072zM111.1577,183.7602c-0.0525,-0.14199 -0.09267,-0.25715 -0.11777,-0.33672c-0.12463,-0.39501 -0.23969,-0.79307 -0.34719,-1.19353c-0.27062,1.12776 -0.52996,2.25951 -0.77897,3.39637c1.6178,6.90129 3.12378,13.81977 4.59571,20.75127c1.34963,5.62609 2.81494,11.21569 4.30413,16.81613c-2.54025,-11.9804 -4.56981,-24.05404 -6.97955,-36.06296c-0.22545,-1.12352 -0.45091,-2.24704 -0.67636,-3.37057zM107.69285,170.23225c-0.10456,2.01434 -0.18503,4.11417 -0.30753,6.23187c0.62922,1.50462 1.08125,3.07428 1.488,4.71713c0.27376,-1.12073 0.55901,-2.23768 0.85649,-3.35187c-0.39647,-2.05348 -0.78501,-4.10935 -1.41877,-6.08687c-0.18026,-0.56245 -0.40562,-1.04964 -0.61819,-1.51026zM106.28189,186.11288c0.19423,1.12169 0.48093,2.44401 0.69892,3.78607c0.23255,-1.21422 0.47584,-2.4212 0.73075,-3.62218c-0.29522,-1.08977 -0.59946,-2.17714 -0.91383,-3.26354c-0.14111,1.04931 -0.31024,2.08541 -0.51585,3.09965zM177.86449,238.73684c-1.05704,-1.30827 -2.09206,-2.62777 -3.07812,-3.97888c0.95243,1.34646 1.9729,2.66992 3.07812,3.97888z" fill="#000000" stroke="none" stroke-width="0.5"></path><path d="M66.07046,160.2248l0.36009,1.73589c2.3276,11.22072 5.93132,21.92939 6.57696,33.40401c0.48687,8.65298 0.97375,17.30596 1.46062,25.95894c0.22394,3.97996 0.80858,8.045 0.42372,11.99514l0.25041,-0.01409l0.11188,1.98841c0.00136,0.02136 0.00205,0.0429 0.00205,0.0646c0,0.55228 -0.44772,1 -1,1c-0.49499,0 -0.90599,-0.35965 -0.98593,-0.83188l-0.36805,-1.94765c-1.8572,-9.82806 -3.64734,-19.66829 -5.4487,-29.50673c-1.4026,-7.6606 -3.13734,-15.23103 -4.95981,-22.78806c-0.25479,3.21102 -0.53436,6.46475 -1.33217,9.52717l0.2175,0.0234l-0.21264,1.97685c-0.04797,0.5076 -0.47537,0.90473 -0.99552,0.90473c-0.49687,0 -0.9091,-0.36238 -0.98682,-0.83726c-0.11998,-0.65578 -0.59674,-3.26169 -0.71671,-3.91747c-1.68034,-9.18452 -4.11098,-18.21697 -5.70765,-27.41654c-0.07859,-0.45281 -0.19401,-0.96486 -0.32737,-1.51656c-0.05953,1.19593 -0.13637,2.39242 -0.2379,3.59119c-0.79301,9.36373 -1.62461,18.6046 -3.1311,27.88241c-0.54191,3.3374 -0.86834,6.65718 -1.83098,9.83367l0.22822,0.03706l-0.31797,1.95821c-0.06996,0.48389 -0.48639,0.85566 -0.98966,0.85566c-0.50169,0 -0.9171,-0.36945 -0.98899,-0.85112c-0.1101,-0.65751 -0.54775,-3.2713 -0.65785,-3.92881c-1.52503,-9.11074 -4.39345,-18.43841 -4.87119,-27.68437c-0.13651,-2.64195 0.29517,-5.45125 0.44106,-8.09455c0,0 0.05511,-0.99848 1.05359,-0.94337c0.99848,0.05511 0.94337,1.05359 0.94337,1.05359c-0.61357,11.11693 1.94359,21.62361 3.90586,32.4756c0.36887,-1.85195 0.89225,-3.68866 1.11039,-5.0321c1.49832,-9.22752 2.32364,-18.41743 3.11237,-27.73063c0.33674,-3.9762 0.39722,-7.92688 0.46001,-11.91609l0.03144,-1.99778c0.00737,-0.54594 0.45222,-0.98623 0.99991,-0.98623c0.49979,0 0.91395,0.36665 0.98816,0.84565l0.33912,1.95389l-0.23593,0.04095c1.46407,4.3776 1.73414,9.19972 2.62589,13.73074c1.31009,6.65665 2.97351,13.2375 4.32759,19.88469c0.26178,-1.60893 0.59672,-3.16164 0.72224,-4.32853c0.19046,-1.77066 0.38941,-3.52984 0.60023,-5.28083c-0.51958,-2.1201 -1.04106,-4.24072 -1.55906,-6.36354c0,0 -0.23706,-0.9715 0.73444,-1.20855c0.9715,-0.23706 1.20855,0.73444 1.20855,0.73444c0.1083,0.44383 0.21675,0.88757 0.32531,1.33123c0.78107,-5.66425 1.7262,-11.27797 2.95262,-16.95458c0.54075,-2.50292 0.53545,-7.0015 4.3277,-3.28642c0.56263,0.55118 0.5052,1.49216 0.74302,2.24302c0.8048,2.54103 1.53149,5.10996 2.29672,7.66323c1.05349,3.51507 1.99732,7.00557 2.85637,10.50802c-0.1535,-2.94009 -0.22951,-5.89078 -0.23076,-8.89835l-0.00083,-1.99993c0,-0.00016 0,-0.00032 0,-0.00049c0,-0.55228 0.44772,-1 1,-1c0.47202,0 0.86766,0.32704 0.97269,0.7669l0.50214,1.91384l-0.23742,0.06229c1.26727,3.06038 1.88459,6.32041 2.80684,9.58206c1.69949,6.01048 3.39636,12.02136 5.07238,18.03832c0.15784,-0.93419 0.37079,-1.86407 0.4817,-2.7198c0.68806,-5.30891 0.8245,-10.4833 0.89533,-15.83407l0.02645,-1.99816c0.0062,-0.54695 0.45151,-0.98843 0.99993,-0.98843c0.47449,0 0.87179,0.33046 0.97431,0.77379l0.4881,1.91777l-0.19337,0.04922c1.49061,3.39847 2.4918,7.36878 3.16317,11.28731c0.16726,-3.16632 0.33486,-6.33262 0.5023,-9.49894l0.05201,-1.98611c0.0122,-0.54169 0.45513,-0.97705 0.99974,-0.97705c0.47125,0 0.86637,0.32598 0.97217,0.76475l0.50651,1.9126l-0.23377,0.06191c1.01001,2.45154 1.57056,4.98585 2.28179,7.6715c2.27263,8.58153 2.59776,17.67284 3.83377,26.50486c0.14258,-1.01564 0.27815,-1.95684 0.32933,-2.72485c0.62081,-9.31552 0.32577,-18.56866 0.14748,-27.90047c-0.00283,-0.66914 -0.00567,-1.33829 -0.0085,-2.00743l-0.00844,-1.99926c-0.00001,-0.00165 -0.00001,-0.00329 -0.00001,-0.00494c0,-0.55228 0.44772,-1 1,-1c0.46075,0 0.84872,0.3116 0.96467,0.73557l0.56543,1.89501l-0.23164,0.06912c1.0856,2.41903 1.7247,4.93473 2.51903,7.5969c1.99122,6.67342 3.14069,13.49481 4.32581,20.34248c0.0561,-0.22375 0.11081,-0.45332 0.16027,-0.69032c0.95484,-4.57552 1.64328,-9.31588 3.10832,-13.75542c0.36779,-1.11453 1.3785,-5.83995 2.43197,-6.29978c0.84464,-0.36868 1.77174,0.51458 2.63473,0.83797c0.35936,0.13467 3.84168,1.76553 3.96357,1.89993c1.45832,1.60815 2.09226,5.84095 2.80401,7.91293c1.72865,5.03231 3.78992,10.0639 5.2157,15.18895c1.31999,4.74477 2.27414,9.64498 3.22314,14.52444c0.25736,-1.83229 0.57177,-3.56531 0.66637,-4.78875c0.65178,-8.42954 -1.26869,-17.23388 -2.25505,-25.62685c-0.05459,-0.35875 -0.10919,-0.71751 -0.16377,-1.07626c-0.44687,-1.84446 -0.91495,-3.89419 -0.85073,-5.59253c-0.06203,-0.40782 -0.12406,-0.81564 -0.18609,-1.22346l-0.29806,-1.95959c-0.00925,-0.05464 -0.01406,-0.11078 -0.01406,-0.16805c0,-0.55228 0.44772,-1 1,-1c0.49993,0 0.91418,0.36686 0.98822,0.84606l0.33825,1.95407l-0.04011,0.00694l0.00301,0.01981c0.07265,0.47762 0.1453,0.95524 0.21795,1.43286c0.94479,3.35826 1.26292,6.9389 1.79285,10.39603c1.31279,8.56432 2.62566,17.12862 3.93835,25.69296c1.3904,8.29815 2.34739,16.89083 4.06362,25.21131c0.01034,-0.60054 0.01172,-1.15578 -0.01212,-1.63909c-0.45912,-9.30508 -0.74062,-18.6391 -1.51152,-27.92366c-0.76463,-9.20905 -0.98617,-18.66425 -2.72341,-27.74115l-0.37216,-1.94447c-0.01417,-0.06705 -0.02163,-0.13658 -0.02163,-0.20785c0,-0.55228 0.44772,-1 1,-1c0.43794,0 0.81013,0.28152 0.94547,0.67346l0.68871,1.8528l-0.23372,0.08687c2.25747,4.13164 3.05134,8.80505 4.07837,13.48531c1.71471,7.81407 3.42943,15.62815 5.14414,23.44222c2.26549,10.324 4.96074,20.53108 7.47879,30.78771c0.02218,-0.62969 0.0346,-1.21116 0.01822,-1.71425c-0.30368,-9.32613 -0.73093,-18.62664 -1.28356,-27.94133c-0.54457,-9.17891 -0.39561,-18.72533 -2.18044,-27.74697c-0.58465,-2.95517 -0.59307,-6.63978 -2.6419,-8.88695l-0.59272,-0.6763c0,0 -0.65911,-0.75205 0.09293,-1.41116c0.75205,-0.65911 1.41116,0.09293 1.41116,0.09293l0.59272,0.6763c2.30927,2.71669 2.41715,6.36658 3.09978,9.81702c1.80295,9.11323 1.66489,18.74509 2.21496,28.01667c0.51416,8.66632 0.93837,17.31871 1.22092,25.99575c0.12971,3.98329 0.60869,8.05775 0.14912,12.0015l0.24142,-0.00786l0.06492,1.99377c0.00046,0.01251 0.0007,0.02509 0.0007,0.03772c0,0.55228 -0.44772,1 -1,1c-0.48168,0 -0.88382,-0.34056 -0.97877,-0.79404l-0.44662,-1.92883c-3.00964,-12.99782 -6.55461,-25.84729 -9.41515,-38.88301c-1.95773,-8.92152 -3.91547,-17.84305 -5.8732,-26.76457c0.56205,5.8353 0.83278,11.72657 1.31408,17.52322c0.71769,8.64375 0.98995,17.3302 1.41738,25.99302c0.19638,3.98009 0.73802,8.04415 0.35556,11.99705l0.23582,-0.01164l0.09819,1.99005c0.00105,0.0188 0.00159,0.03774 0.00159,0.0568c0,0.55228 -0.44772,1 -1,1c-0.46333,0 -0.85306,-0.3151 -0.96659,-0.74271l-0.55109,-1.89945c-3.13839,-10.8172 -4.23771,-22.44088 -6.09874,-33.54944c-0.20433,-1.33291 -0.40866,-2.66582 -0.61299,-3.99872c-0.02707,1.36822 -0.09057,2.74171 -0.19732,4.12225c-0.2155,2.78716 -0.30006,5.3704 -0.87584,7.95616l0.25911,0.02003l-0.1535,1.98522c-0.03508,0.52045 -0.46836,0.93174 -0.99771,0.93174c-0.53059,0 -0.96466,-0.41322 -0.99795,-0.93541l-0.14159,-1.93415c-1.53044,-7.07826 -2.65422,-14.39083 -4.59456,-21.36551c-1.41501,-5.08634 -3.46473,-10.08076 -5.18039,-15.07524c-0.90944,-2.64748 -1.29582,-6.69805 -3.88795,-7.8124c-0.61247,-0.2633 -1.24407,-0.49384 -1.81916,-0.83106c-0.37341,-0.21896 -0.60686,-0.99731 -1.00359,-0.82414c-0.39672,0.17317 0.01529,0.87358 -0.07804,1.29627c-0.28749,1.30197 -0.83615,2.53218 -1.255,3.79802c-1.86358,5.63203 -2.07471,11.84589 -4.07228,17.40922l0.20563,0.04291l-0.40469,1.93922c-0.08704,0.46356 -0.49396,0.81432 -0.98279,0.81432c-0.50151,0 -0.91679,-0.36917 -0.98891,-0.85059l-0.32811,-1.95255c-1.39661,-7.85588 -2.55628,-15.70534 -4.83877,-23.35494c-0.20427,-0.68461 -0.50399,-1.4648 -0.81195,-2.28764c0.16723,8.16973 0.32058,16.29296 -0.22398,24.46429c-0.22525,3.37999 -0.22834,6.71423 -0.90828,9.96165l0.24334,0.01622l-0.13247,1.98783c-0.03041,0.52494 -0.46574,0.94125 -0.9983,0.94125c-0.50042,0 -0.915,-0.36758 -0.98844,-0.84747c-0.22541,-1.31414 -0.7861,-4.58297 -1.01151,-5.89711c-1.46184,-8.52257 -1.68864,-17.28898 -3.28833,-25.76725c-0.28926,-1.53307 -1.10741,-3.56711 -1.79845,-5.63767c-0.05827,4.05138 -0.18531,8.21333 -1.19956,11.97191l0.2498,0.03056l-0.24132,1.97225c-0.05409,0.50125 -0.47856,0.89149 -0.99418,0.89149c-0.52976,0 -0.96331,-0.41194 -0.99779,-0.93298l-0.15077,-1.98557c-0.33992,-4.53192 -1.45531,-9.18614 -2.45754,-13.62162c-0.02154,-0.09531 -0.0447,-0.1911 -0.06923,-0.28732c-0.06046,5.48565 -0.29963,11.16918 -1.80968,16.3198l0.17161,0.02224l-0.2553,1.96988c-0.05703,0.49812 -0.48007,0.885 -0.99346,0.885c-0.4674,0 -0.8599,-0.32066 -0.96951,-0.75399l-0.52831,-1.90629c-2.13683,-7.71022 -4.38728,-15.39092 -6.49096,-23.10995c-0.14489,-0.53166 -0.34355,-1.12608 -0.55653,-1.75575c0.03802,2.55808 0.14785,5.10953 0.4511,7.67517c0.43631,3.69143 1.20061,7.43921 1.1679,11.14101c0.04542,0.24435 0.09085,0.4887 0.13627,0.73304l-0.00697,0.01013l0.00847,-0.00142l0.00764,0.04554l0.09523,-0.01126l0.23298,1.9711c0.00573,0.04334 0.00869,0.08755 0.00869,0.13245c0,0.55228 -0.44772,1 -1,1c-0.50162,0 -0.91697,-0.36933 -0.98896,-0.8509l-0.32694,-1.94964c-0.1212,-0.65181 -0.2424,-1.30363 -0.3636,-1.95544c-1.47076,-7.91066 -3.09414,-15.52948 -5.4047,-23.23886c-0.76557,-2.55441 -1.53115,-5.10882 -2.29672,-7.66323c-0.01579,-0.05267 -1.41429,-4.36118 -1.50876,-4.2279c-0.61965,0.87421 -0.03914,2.15628 -0.26543,3.20366c-0.44221,2.04683 -0.85319,4.08052 -1.23442,6.11027c0.50668,0.17216 0.62791,0.7566 0.62791,0.7566zM69.42082,203.71125c0.98666,5.38885 1.96996,10.77823 2.96276,16.16586c-0.45763,-8.13335 -0.91527,-16.2667 -1.3729,-24.40006c-0.61729,-10.97085 -3.98447,-21.24756 -6.29221,-31.94678c-0.65058,3.85703 -1.19722,7.72209 -1.65012,11.65856c2.31889,9.46634 4.59506,18.92389 6.35248,28.52241z" fill="#ffea00" stroke="none" stroke-width="0.5"></path></g></g></svg>