<svg version="1.1" xmlns="http://www.w3.org/2000/svg" xmlns:xlink="http://www.w3.org/1999/xlink" width="92.711" height="90.91614" viewBox="0,0,92.711,90.91614"><defs><radialGradient cx="480" cy="180.00001" r="39.25" gradientUnits="userSpaceOnUse" id="color-1"><stop offset="0" stop-color="#ebebeb"/><stop offset="1" stop-color="#dbdbdb"/></radialGradient></defs><g transform="translate(-432.24941,-139.49957)"><g stroke-miterlimit="10"><path d="M432.24941,219.22245c0,-6.18187 5.15957,-11.19326 11.52424,-11.19326c6.36466,0 11.52425,5.01139 11.52425,11.19326c0,6.18187 -5.15959,11.19326 -11.52425,11.19326c-6.36466,0 -11.52424,-5.01139 -11.52424,-11.19326z" fill-opacity="0.4" fill="#a3a3a3" stroke="none" stroke-width="0" stroke-linecap="butt"/><path d="" fill="none" stroke="#000000" stroke-width="1.5" stroke-linecap="round"/><path d="M450.63381,206.04206c-14.38264,-16.2185 -12.89436,-41.02561 3.32414,-55.40825c16.2185,-14.38264 41.02561,-12.89436 55.40825,3.32414c14.38264,16.2185 12.89436,41.02561 -3.32414,55.40825c-16.2185,14.38264 -41.02561,12.89436 -55.40825,-3.32414z" fill="url(#color-1)" stroke="#ffffff" stroke-width="2.5" stroke-linecap="butt"/><path d="M470.47426,170.33997c4.15139,5.85782 5.78163,11.83618 3.64128,13.35304c-2.14037,1.51685 -7.24083,-2.00221 -11.3922,-7.86003c-4.15139,-5.85782 -5.78163,-11.83618 -3.64128,-13.35304c2.14037,-1.51685 7.24083,2.00221 11.3922,7.86003z" fill="#ffffff" stroke="#000000" stroke-width="1.5" stroke-linecap="butt"/><path d="M483.9579,160.48266c4.15139,5.85782 5.78165,11.83619 3.64128,13.35305c-2.14037,1.51685 -7.24083,-2.00221 -11.39221,-7.86003c-4.15139,-5.85782 -5.78165,-11.83618 -3.64129,-13.35304c2.14037,-1.51685 7.24083,2.0022 11.39221,7.86002z" fill="#ffffff" stroke="#000000" stroke-width="1.5" stroke-linecap="butt"/><path d="M501.91192,157.29108c0,-6.18186 5.15957,-11.19326 11.52423,-11.19326c6.36466,0 11.52425,5.0114 11.52425,11.19326c0,6.18186 -5.15959,11.19325 -11.52425,11.19325c-6.36467,0 -11.52423,-5.01139 -11.52423,-11.19325z" fill-opacity="0.4" fill="#a3a3a3" stroke="none" stroke-width="0" stroke-linecap="butt"/></g></g></svg>