<svg version="1.1" xmlns="http://www.w3.org/2000/svg" xmlns:xlink="http://www.w3.org/1999/xlink" width="332.4897" height="13.25611" viewBox="0,0,332.4897,13.25611"><g transform="translate(-124.51711,-275.90281)"><g data-paper-data="{&quot;isPaintingLayer&quot;:true}" fill-rule="nonzero" stroke-linejoin="miter" stroke-miterlimit="10" stroke-dasharray="" stroke-dashoffset="0" style="mix-blend-mode: normal"><path d="" data-paper-data="{&quot;index&quot;:null}" fill="none" stroke="#000000" stroke-width="1.5" stroke-linecap="round"></path><path d="" data-paper-data="{&quot;index&quot;:null}" fill="none" stroke="#000000" stroke-width="1.5" stroke-linecap="round"></path><path d="" data-paper-data="{&quot;index&quot;:null}" fill="none" stroke="#000000" stroke-width="1.5" stroke-linecap="round"></path><path d="" data-paper-data="{&quot;index&quot;:null}" fill="none" stroke="#000000" stroke-width="1.5" stroke-linecap="round"></path><path d="" data-paper-data="{&quot;index&quot;:null}" fill="none" stroke="#000000" stroke-width="1.5" stroke-linecap="butt"></path><g stroke="none" stroke-linecap="butt"><path d="M252.55887,279.05504c9.38091,0.95825 5.94862,1.85768 -7.66623,2.00893c-13.6149,0.15125 -19.94003,-0.54112 -29.32084,-1.49936c-9.38091,-0.95825 -66.11697,-1.12346 -52.50223,-1.27471c8.25432,-0.0917 39.21424,-0.60701 61.83042,-0.41979c14.68732,0.12158 23.96537,0.80765 27.65889,1.18493z" data-paper-data="{&quot;index&quot;:null}" fill="#ffffff" stroke-width="NaN"></path><path d="M271.59923,278.73766c12.61936,1.28906 8.00204,2.49899 -10.31289,2.70247c-18.315,0.20347 -26.82381,-0.72792 -39.44312,-2.01699c-12.61936,-1.28906 -88.9424,-1.5113 -70.62729,-1.71478c11.10393,-0.12336 52.75195,-0.81656 83.17592,-0.56471c19.75765,0.16356 32.23892,1.08647 37.20741,1.59401z" fill="#a97eff" stroke-width="NaN"></path></g><path d="M133.63583,284.86137c-28.61823,-2.92333 18.52973,-6.07471 105.30813,-7.03877c86.7784,-0.96408 180.32586,0.62422 208.94412,3.54755c28.61823,2.92333 -18.52973,6.07471 -105.30813,7.03877c-86.7784,0.96408 -180.32586,-0.62422 -208.94412,-3.54755z" fill="#d8d8d8" stroke="#000000" stroke-width="1.5" stroke-linecap="butt"></path><path d="M214.11124,283.88415c0,0 0.25365,-1.89788 13.82498,-2.03949c13.80657,-0.14407 43.58704,1.34621 43.58704,1.34621" fill="none" stroke="#000000" stroke-width="1.5" stroke-linecap="round"></path><path d="M290.59593,283.22278c0,0 0.25365,-1.89788 13.82498,-2.03949c13.80657,-0.14407 43.58701,1.34621 43.58701,1.34621" fill="none" stroke="#000000" stroke-width="1.5" stroke-linecap="round"></path><path d="M329.32762,284.81155c0,0 -31.37282,1.19148 -47.50294,1.23598c-12.68221,0.03498 -41.44556,-0.9906 -41.44556,-0.9906" fill="none" stroke="#000000" stroke-width="1.5" stroke-linecap="round"></path><g stroke="none" stroke-linecap="butt"><path d="M336.63277,277.13232c20.00793,-0.81213 65.72648,-1.08954 76.83041,-1.2129c18.315,-0.20347 -39.11019,1.50466 -26.49091,2.79372c12.61936,1.28906 22.22719,2.20825 3.91214,2.41172c-18.315,0.20347 -43.39239,-0.67657 -56.01164,-1.96563c-4.96855,-0.50753 -11.23347,-1.49951 1.7601,-2.02692z" data-paper-data="{&quot;index&quot;:null}" fill="#a97eff" stroke-width="NaN"></path><path d="M357.16651,277.54348c14.87327,-0.60371 48.85904,-0.80993 57.11336,-0.90163c13.6149,-0.15125 -29.07329,1.11852 -19.6925,2.07676c9.38091,0.95825 16.523,1.64154 2.90809,1.7928c-13.6149,0.15125 -32.25663,-0.50294 -41.63738,-1.46118c-3.69346,-0.37729 -8.35056,-1.11469 1.3084,-1.50675z" data-paper-data="{&quot;index&quot;:null}" fill="#ffffff" stroke-width="NaN"></path></g></g></g></svg>