<svg version="1.1" xmlns="http://www.w3.org/2000/svg" xmlns:xlink="http://www.w3.org/1999/xlink" width="146.23158" height="80.5" viewBox="0,0,146.23158,80.5"><g transform="translate(-154.01361,-140.44476)"><g data-paper-data="{&quot;isPaintingLayer&quot;:true}" fill-rule="nonzero" stroke-linejoin="miter" stroke-miterlimit="10" stroke-dasharray="" stroke-dashoffset="0" style="mix-blend-mode: normal"><g><path d="M178.72338,180.60149l-9.7163,5.20873l-12.9828,-5.45271l14.06553,-5.4035z" data-paper-data="{&quot;index&quot;:null}" fill="#c6c6c6" stroke="#c6c6c6" stroke-width="1.5" stroke-linecap="round"></path><path d="M220.93673,169.6781" fill="none" stroke="#d8d8d8" stroke-width="4" stroke-linecap="round"></path><path d="M245.20002,184.21722l-56.40169,-0.99261l0.06847,-3.88977l56.40169,0.99261z" fill="#7f7600" stroke="#000000" stroke-width="0" stroke-linecap="butt"></path><path d="M176.85057,181.76433c-1.94217,-1.39642 -0.58511,-3.4083 -0.58511,-3.4083l2.51721,-2.78501c2.92389,-0.94211 5.96084,-1.09621 8.79892,-2.24693c1.17634,-0.47694 2.23728,-1.78293 3.48307,-1.53942c1.91668,0.37466 4.37729,1.30574 4.91953,3.1819c0.44781,1.54946 -2.24339,2.40776 -2.87509,3.89179c-0.33268,0.78157 0.47122,1.7645 0.13531,2.5447c-0.25194,0.58519 -1.66372,0.33151 -1.64782,0.96842c0.02455,0.9835 2.16083,1.50481 1.73163,2.39007c-2.89231,5.96566 -10.95848,2.2174 -15.18974,0.86573c0,0 -2.38127,-0.76127 -1.61999,-3.14254c0.09018,-0.28207 0.20307,-0.52003 0.33206,-0.72041z" fill="#ff0000" stroke="none" stroke-width="0.5" stroke-linecap="butt"></path></g><path d="" data-paper-data="{&quot;index&quot;:null}" fill="none" stroke="#000000" stroke-width="1.5" stroke-linecap="round"></path><path d="" data-paper-data="{&quot;index&quot;:null}" fill="none" stroke="#000000" stroke-width="1.5" stroke-linecap="round"></path><path d="M220.49519,180.69476c0,-21.81525 17.68475,-39.5 39.5,-39.5c21.81525,0 39.5,17.68475 39.5,39.5c0,21.81525 -17.68475,39.5 -39.5,39.5c-21.81525,0 -39.5,-17.68475 -39.5,-39.5z" fill="#d8d8d8" stroke="#000000" stroke-width="1.5" stroke-linecap="butt"></path><path d="M246.51675,197.3165c5.44898,-2.88817 27.57511,5.13694 27.57511,5.13694" data-paper-data="{&quot;index&quot;:null}" fill="none" stroke="#000000" stroke-width="1.5" stroke-linecap="round"></path><path d="M246.31865,168.12134l6.99536,1.82343v8" fill="none" stroke="#000000" stroke-width="1.5" stroke-linecap="round"></path><path d="M258.87633,178.50558l-0.24149,-8.93527l7.00332,-2.17344" fill="none" stroke="#000000" stroke-width="1.5" stroke-linecap="round"></path><path d="M259.60082,188.64832l16.42158,-6.52033" fill="none" stroke="#000000" stroke-width="1.5" stroke-linecap="round"></path><path d="M265.63817,188.16533l-2.89793,-5.55436" fill="none" stroke="#000000" stroke-width="1.5" stroke-linecap="round"></path><path d="M267.32862,180.43753l3.8639,7.7278" fill="none" stroke="#000000" stroke-width="1.5" stroke-linecap="round"></path></g></g></svg>