<svg version="1.1" xmlns="http://www.w3.org/2000/svg" xmlns:xlink="http://www.w3.org/1999/xlink" width="80.99969" height="81.00003" viewBox="0,0,80.99969,81.00003"><defs><radialGradient cx="479.99999" cy="179.99998" r="39.25" gradientUnits="userSpaceOnUse" id="color-1"><stop offset="0" stop-color="#ebebeb"/><stop offset="1" stop-color="#dbdbdb"/></radialGradient></defs><g transform="translate(-439.50031,-139.49997)"><g stroke-miterlimit="10"><path d="" fill="none" stroke="#000000" stroke-width="1.5" stroke-linecap="round"/><path d="M440.75031,179.83972c0.0885,-21.67699 17.73292,-39.17794 39.40995,-39.08941c21.67699,0.0885 39.17794,17.73292 39.08941,39.40995c-0.0885,21.67699 -17.73292,39.17794 -39.40995,39.08941c-21.67699,-0.0885 -39.17794,-17.73292 -39.08941,-39.40995z" fill="url(#color-1)" stroke="#ffffff" stroke-width="2.5" stroke-linecap="butt"/><path d="M486.61928,176.53053c-0.80972,7.1339 -3.57929,12.6772 -6.18588,12.38131c-2.60659,-0.29586 -4.06323,-6.31889 -3.25348,-13.45278c0.80972,-7.1339 3.57929,-12.6772 6.18588,-12.38131c2.60659,0.29586 4.06323,6.31889 3.25348,13.45278z" fill="#ffffff" stroke="#000000" stroke-width="1.5" stroke-linecap="butt"/><path d="M504.64576,179.06339c-0.80972,7.1339 -3.57929,12.6772 -6.1859,12.38131c-2.60659,-0.29586 -4.06323,-6.31889 -3.25349,-13.45279c0.80972,-7.1339 3.57927,-12.67721 6.18587,-12.38132c2.60659,0.29586 4.06327,6.31887 3.25348,13.45278z" fill="#ffffff" stroke="#000000" stroke-width="1.5" stroke-linecap="butt"/></g></g></svg>