<svg version="1.1" xmlns="http://www.w3.org/2000/svg" xmlns:xlink="http://www.w3.org/1999/xlink" width="224.90518" height="245.97388" viewBox="0,0,224.90518,245.97388"><g transform="translate(-93.03983,-36.15331)"><g data-paper-data="{&quot;isPaintingLayer&quot;:true}" fill-rule="nonzero" stroke-linejoin="miter" stroke-miterlimit="10" stroke-dasharray="" stroke-dashoffset="0" style="mix-blend-mode: normal"><path d="" data-paper-data="{&quot;index&quot;:null}" fill="none" stroke="#000000" stroke-width="1.5" stroke-linecap="round"></path><path d="M93.03983,48.0613" data-paper-data="{&quot;index&quot;:null}" fill="none" stroke="#d8d8d8" stroke-width="4" stroke-linecap="round"></path><g><path d="M315.5195,177.8225c9.3265,45.11867 -21.2236,89.64617 -68.23558,99.45497c-47.01192,9.80882 -92.68324,-18.81551 -102.00972,-63.93423c-9.3265,-45.11867 21.22362,-89.64619 68.23554,-99.45503c47.01192,-9.80882 92.68326,18.81551 102.00972,63.93423z" fill="#d8d8d8" stroke="#000000" stroke-width="1.5" stroke-linecap="butt"></path><path d="M216.90401,200.12955l-3.8972,31.08418" fill="none" stroke="#000000" stroke-width="1.5" stroke-linecap="round"></path><path d="M231.27858,212.48027l-12.53558,3.16587" fill="none" stroke="#000000" stroke-width="1.5" stroke-linecap="round"></path><path d="M214.38658,193.49979l-11.51847,-14.1082" fill="none" stroke="#000000" stroke-width="1.5" stroke-linecap="round"></path><path d="M212.6878,184.06258l11.64251,-1.9548" fill="none" stroke="#f1aa4f" stroke-width="2.5" stroke-linecap="round"></path><path d="M265.40567,214.37251l-9.50799,-48.71555" fill="none" stroke="#000000" stroke-width="1.5" stroke-linecap="round"></path></g><g data-paper-data="{&quot;index&quot;:null}" stroke="#000000" stroke-linecap="butt"><path d="M278.7861,232.27795l-2.26673,42.10763c0,0 -4.72814,6.9411 -6.94654,6.99161c-2.21446,0.05037 -6.35199,-6.6891 -6.35199,-6.6891l2.26673,-42.10763z" fill="#af5400" stroke-width="1.5"></path><path d="M247.12704,227.40667c0,0 11.98128,-1.29287 25.68519,-1.26812c7.33649,0.01313 21.92118,-0.5918 21.92118,-0.5918c0,0 0.59618,8.72965 0.26981,11.52399c-0.70234,6.01373 -11.03033,10.87011 -24.73425,10.84546c-7.39303,-0.01318 -17.98175,0.35818 -22.57562,-5.11717c-3.92136,-4.67385 -0.56641,-15.39229 -0.56641,-15.39229z" fill="#989898" stroke-width="1"></path><path d="M246.28287,228.93582c0.70232,-6.01368 12.38084,-10.86882 26.08482,-10.84417c13.70386,0.02464 24.24381,4.91974 23.54152,10.93346c-0.7023,6.01372 -12.38084,10.86882 -26.08482,10.84417c-13.70394,-0.02468 -24.24381,-4.91974 -23.54158,-10.93344z" fill="#989898" stroke-width="1"></path><path d="M277.5011,230.73857c0,0 -4.59349,3.71143 -6.58873,3.82091c-1.9491,0.10705 -5.24784,-3.17117 -5.24784,-3.17117l4.62872,-167.1669l12.56252,-26.87197l-5.35482,193.38915z" fill="#e6e6e6" stroke-width="0.5"></path></g></g></g></svg>