<svg version="1.1" xmlns="http://www.w3.org/2000/svg" xmlns:xlink="http://www.w3.org/1999/xlink" width="116.27776" height="86.89632" viewBox="0,0,116.27776,86.89632"><g transform="translate(-179.92073,-145.97942)"><g data-paper-data="{&quot;isPaintingLayer&quot;:true}" fill-rule="nonzero" stroke-linejoin="miter" stroke-miterlimit="10" stroke-dasharray="" stroke-dashoffset="0" style="mix-blend-mode: normal"><path d="M199.48851,186.22942c0,-21.81525 17.68475,-39.5 39.5,-39.5c21.81525,0 39.5,17.68475 39.5,39.5c0,21.81525 -17.68475,39.5 -39.5,39.5c-21.81525,0 -39.5,-17.68475 -39.5,-39.5z" fill="#d8d8d8" stroke="#000000" stroke-width="1.5" stroke-linecap="butt"></path><path d="M242.02205,183.05545v-8" fill="none" stroke="#000000" stroke-width="1.5" stroke-linecap="round"></path><path d="" data-paper-data="{&quot;index&quot;:null}" fill="none" stroke="#000000" stroke-width="1.5" stroke-linecap="round"></path><path d="M253.08518,207.98809c0,0 -17.91104,4.58722 -25.6108,-0.53676c-1.90381,-1.26693 -4.4943,-5.21093 -3.86722,-8.6468c0.60031,-3.28916 4.39812,-6.06289 3.63978,-7.76264" data-paper-data="{&quot;index&quot;:null}" fill="#000000" stroke="#000000" stroke-width="0" stroke-linecap="round"></path><path d="M249.49371,175.54059v8" fill="none" stroke="#000000" stroke-width="1.5" stroke-linecap="round"></path><g stroke="#000000" stroke-linecap="butt"><path d="M252.22436,215.40541l-0.44532,-59.45093l43.22131,-0.32375l0.44532,59.45093c0,0 -17.57014,13.07921 -20.7147,15.42003c-0.92715,0.69017 -1.80077,1.3405 -1.80077,1.3405z" fill="#008c04" stroke-width="1.5"></path><path d="M270.88694,232.87574l-0.58745,-78.42604l4.82627,-0.03615l0.58745,78.42604z" fill="#00ff08" stroke-width="0"></path><path d="M295.50814,184.41944l-44.55025,0.3337l-0.04715,-6.29345l44.55025,-0.3337z" fill="#00ff08" stroke-width="0"></path></g><path d="M234.65726,215.63874c0.41417,1.64587 -0.57016,2.45557 -1.24507,2.80588c-0.3265,0.97075 -1.23269,1.67515 -2.30708,1.70174l-4.9891,0.14348c-4.52896,0.92956 -9.53708,0.74668 -14.4619,0.55827c-1.23602,0.04799 -2.47244,0.09269 -3.70941,0.13408c-1.73628,0.05809 -3.53422,0.62117 -5.2093,0.16053c-0.06747,-0.01855 -0.13447,-0.03821 -0.20104,-0.05892l-0.00535,0.03989l-2.94206,-0.39484c-1.24033,-0.14722 -2.20221,-1.2025 -2.20221,-2.48245c0,-0.41999 0.10356,-0.81579 0.28655,-1.16325c-3.01745,-0.15186 -7.00195,-0.35808 -7.09936,-0.40029c-0.14118,-0.06117 -0.27788,-0.12923 -0.41065,-0.20336l-0.02486,0.05586l-2.28668,-1.01746c-0.90204,-0.37739 -1.53581,-1.26833 -1.53581,-2.30729c0,-1.30973 1.00716,-2.38422 2.28924,-2.49124l4.95103,-0.47184l0.00133,0.01392l0.05222,-0.01845c1.20543,-0.0629 2.41043,-0.11707 3.61515,-0.16512c-3.57495,-0.21193 -7.20788,-0.48584 -10.26037,-1.5565l-4.89765,-0.78428c-1.21217,-0.17274 -2.14416,-1.21496 -2.14416,-2.47487c0,-1.22785 0.88517,-2.24895 2.05219,-2.46001l3.92349,-0.78987l0.00785,0.03898l0.10957,-0.05971c9.23922,-0.96429 18.48083,-1.89583 27.71515,-2.9015c-3.35122,-0.30801 -6.6968,-0.66883 -10.02985,-1.14105c-0.27111,-0.03841 -9.77696,-1.70427 -9.77871,-1.70502c-0.05417,-0.02321 -0.10815,-0.04677 -0.16195,-0.07069l-0.00726,0.02245l-4.70269,-1.5215c-1.03228,-0.30758 -1.78495,-1.26402 -1.78495,-2.39624c0,-1.24888 0.91575,-2.28388 2.11241,-2.47014l4.50063,-0.78459l0.00563,0.03232l0.10703,-0.04932c5.02726,-0.41276 10.06258,-0.72231 15.09322,-1.09148c-1.51646,-0.25198 -3.03245,-0.52531 -4.54901,-0.82569c-1.72185,-0.34104 -3.59838,-0.23664 -5.16421,-1.0299c-0.07936,-0.0402 -0.15814,-0.08131 -0.23639,-0.12329l-0.01337,0.03099l-4.53821,-1.95772c-0.49043,-0.1985 -0.90353,-0.54811 -1.18157,-0.9911c-0.35765,-0.05995 -0.71291,-0.13685 -1.06531,-0.23412c-0.06716,-0.01854 -0.13408,-0.03769 -0.20079,-0.05742l-0.0053,0.0316l-4.72222,-0.79219c-1.20384,-0.18004 -2.1271,-1.21839 -2.1271,-2.47238c0,-0.9099 0.4861,-1.70627 1.21277,-2.14358c-0.83526,-0.40473 -1.41122,-1.26065 -1.41122,-2.25109c0,-1.23042 0.88888,-2.25323 2.05952,-2.46132l4.52884,-0.89683l0.00405,0.02047l0.06553,-0.03323c4.93638,-0.69068 9.88292,-1.19208 14.83935,-1.57918c-0.63923,-0.45285 -1.05646,-1.19838 -1.05646,-2.04137c0,-0.28321 0.04709,-0.55542 0.13387,-0.80922l-1.54814,-0.66783c-0.91624,-0.37085 -1.56258,-1.2691 -1.56258,-2.31831c0,-1.38071 1.11929,-2.5 2.5,-2.5h3.6902c10.51578,-0.90106 20.86312,0.72171 31.31659,0.20262c0,0 2.49713,-0.11969 2.61683,2.37744c0.11969,2.49713 -2.37744,2.61683 -2.37744,2.61683c-1.13066,0.05241 -2.25986,0.08065 -3.38798,0.09045c0.13602,0.30835 0.21155,0.64937 0.21155,1.00804c0,0.24469 -0.03515,0.48116 -0.10068,0.70465c0.4268,0.02079 0.84867,0.07769 1.26258,0.1928c0.02946,0.00819 0.05883,0.01659 0.08812,0.02518l0.00146,-0.02035l2.75766,0.19827c1.30683,0.0818 2.34142,1.1676 2.34142,2.49505c0,1.38071 -1.11929,2.5 -2.5,2.5c-0.0522,0 -0.10403,-0.0016 -0.15544,-0.00475l-2.81302,-0.1522c-1.46395,0.6153 -3.20989,-0.04301 -4.80992,-0.04281c-1.65201,0.0002 -3.30428,-0.02934 -4.95604,-0.00039c-4.46149,0.0782 -8.93681,0.23992 -13.40962,0.49837c4.65197,0.308 9.29054,0.76372 13.89651,1.53501l0.03647,0.02432l0.00335,-0.01664l2.93121,0.59008c1.16703,0.21104 2.0522,1.23215 2.0522,2.46001c0,1.38071 -1.11929,2.5 -2.5,2.5c-0.0264,0 -0.05271,-0.00041 -0.07892,-0.00122l-2.79259,-0.07596c0.25928,0.39398 0.41015,0.86566 0.41015,1.37257c0,1.06499 -0.66593,1.97445 -1.60411,2.33468c0.12603,0.01392 0.25204,0.02792 0.37802,0.04201l4.93663,0.49049c1.27776,0.11131 2.28018,1.18383 2.28018,2.49047c0,1.325 -1.03078,2.40925 -2.33419,2.49459l-4.91937,0.36968c-3.01411,0.83952 -6.21282,0.7535 -9.32687,1.05772c-4.17634,0.40801 -8.36085,0.71045 -12.54635,1.00023c8.6732,1.15714 17.42805,1.6015 26.1372,2.38698l0.04638,0.02381l0.00233,-0.01797l3.27167,0.42474c1.24507,0.1428 2.21202,1.20028 2.21202,2.48359c0,1.23598 -0.89693,2.26247 -2.07541,2.46409l-4.86712,0.92912c-4.5055,1.66743 -10.30258,1.55492 -15.03555,2.0905c-4.32356,0.48925 -8.65086,0.94707 -12.9795,1.39293c6.72061,0.90707 13.38392,2.16515 20.09343,3.18821l6.91635,3.33862c-2.83876,0.81844 -5.6909,1.39991 -8.55565,1.82053c2.35422,0.21315 4.7078,0.44149 7.06133,0.68588l0.13291,0.08232l0.01216,-0.05434l0.68105,0.15234l2.92603,-0.73631c0,0 2.42442,-0.61009 3.0345,1.81433z" fill="#8de35b" stroke="none" stroke-width="0.5" stroke-linecap="butt"></path><path d="M248.23451,184.37359c-2.31217,0.29807 -4.62627,0.60315 -6.9382,0.91966c0.46472,-0.01278 0.92945,-0.02392 1.39418,-0.03331c1.35247,-0.36925 2.87893,-0.24797 4.26634,-0.54599c0.42999,-0.09236 0.8547,-0.21226 1.27768,-0.34037zM232.45384,195.25539c-0.11294,-0.05887 -0.22339,-0.12127 -0.33157,-0.18686l-0.0211,0.04192l-2.73018,-1.37406c-0.84231,-0.40211 -1.42429,-1.26178 -1.42429,-2.25738c0,-0.11824 0.00821,-0.23456 0.02409,-0.34842c-3.3282,0.44963 -6.95176,1.0516 -9.98808,0.45135h-5c-1.38071,0 -2.5,-1.11929 -2.5,-2.5c0,-1.10929 0.72248,-2.04984 1.72256,-2.37676l3.43273,-1.2119l0.00859,0.02433l0.06172,-0.04798c7.15115,-2.05829 14.18174,-3.42137 21.39761,-4.53993l-0.29624,-0.13418c-0.89371,-0.38111 -1.52016,-1.26774 -1.52016,-2.30068c0,-0.95833 0.53922,-1.79072 1.33081,-2.21031l-2.09199,-0.84229c-0.94667,-0.35596 -1.62026,-1.26973 -1.62026,-2.34082c0,-0.80747 0.38281,-1.52553 0.97685,-1.98259c-0.44051,-0.41849 -0.72864,-0.99587 -0.77255,-1.64031c-0.34269,-0.15058 -0.65602,-0.31711 -0.93282,-0.50178c-0.11512,-0.07681 -0.22828,-0.15597 -0.33962,-0.23731l-0.02361,0.03519l-4.12006,-2.76473c-0.68548,-0.44583 -1.13876,-1.21861 -1.13876,-2.09726c0,-1.33421 1.04516,-2.4243 2.36141,-2.49622l3.15689,-0.19861l0.00156,0.02485l0.07688,-0.02855c4.38235,-0.00148 8.74477,0.20373 13.10297,0.42839c0.42205,-0.46943 1.01928,-0.77819 1.68877,-0.82338l1.72902,-0.13387l1.2595,-3.26743c2.14361,0.0358 7.36313,0.01533 8.67439,0.79647c0.20709,0.12337 0.399,0.26355 0.57846,0.41753l0.03692,-0.04483l2.16735,1.78493c0.56514,0.45835 0.92635,1.15834 0.92635,1.94268c0,0.07905 -0.00367,0.15725 -0.01085,0.23443c0.60844,0.32036 1.20155,0.94494 1.20155,2.16264c0,1.02585 -0.42095,1.63075 -0.91738,1.98744c0.78583,0.25703 1.53107,0.58304 2.158,1.10797c1.45648,1.21949 3.58221,3.02488 3.01296,4.83718c-0.57577,1.83304 -3.4138,1.83507 -5.26749,2.34041c-0.96424,0.26287 -1.95601,0.35778 -2.95806,0.39262c0.00192,0.04017 0.00289,0.0806 0.00289,0.12124c0,1.2864 -0.97159,2.34586 -2.22098,2.4846l-3.78361,0.47605l2.43624,0.13548c1.32387,0.06381 2.37762,1.15738 2.37762,2.49706c0,0.75874 -0.338,1.43853 -0.87164,1.89702c0.30077,0.6975 0.45319,1.44131 0.41667,2.23427c-0.01009,0.21913 -0.0586,0.41847 -0.13919,0.60086l2.41578,0.38325c1.21379,0.1713 2.14749,1.21428 2.14749,2.47534c0,1.32328 -1.0281,2.40642 -2.32911,2.49425l-2.52981,0.19588c-2.34731,0.73924 -4.88225,0.56815 -7.34418,0.74799c1.43368,0.5819 2.74054,1.22123 3.57325,1.88917c0.08102,0.01744 0.16203,0.03494 0.24302,0.0525l0.11317,0.09981l0.01988,-0.05925l2.32675,0.78069c1.01916,0.31563 1.75947,1.26561 1.75947,2.3885c0,0.6184 -0.22453,1.18436 -0.59651,1.6208c-0.02154,0.79627 -0.23707,1.4572 -0.58837,2.00965c0.12407,0.29664 0.1926,0.62228 0.1926,0.96393c0,1.21957 -0.87328,2.23518 -2.02863,2.45563l-3.7237,0.78909l-0.00254,-0.01198c-0.02262,0.0087 -0.04527,0.01732 -0.06795,0.02586c-0.21799,0.08213 -0.44068,0.16011 -0.66763,0.23427c0.06251,0.00898 0.125,0.01783 0.18744,0.02657l0.01696,0.00959l0.00106,-0.00686l2.54137,0.39353c1.21793,0.16762 2.15598,1.21253 2.15598,2.47652c0,1.1229 -0.74031,2.07288 -1.75948,2.38851l-2.32672,0.78066l-0.00838,-0.02499c-0.04672,0.02394 -0.09381,0.04729 -0.14128,0.07005c-1.26641,0.60709 -2.71268,0.67754 -4.11847,0.86861c0.01271,0.10215 0.01925,0.20621 0.01925,0.3118c0,0.43363 -0.1104,0.84147 -0.30462,1.19695c5.83687,-0.04945 11.67221,-0.18178 17.50681,0.11133l0.11968,0.07646l0.00928,-0.05991l2.54137,0.39356c1.21792,0.16763 2.15596,1.21253 2.15596,2.47652c0,1.38071 -1.11929,2.5 -2.5,2.5h-4.96138l0,-0.47757c-2.65458,0.4938 -5.32593,0.84066 -8.01735,1.09528l0.87544,0.37103c0.38302,0.00176 0.76623,0.00306 1.14965,0.00392c1.77427,0.00401 3.64707,-0.56222 5.32277,0.02092c0.10236,0.03562 0.20363,0.07344 0.30389,0.1133l0.01348,-0.05088l3.71875,0.98505c1.09686,0.26454 1.91174,1.25231 1.91174,2.4304c0,1.38071 -1.11929,2.5 -2.5,2.5c-0.06907,0 -0.13748,-0.0028 -0.20514,-0.0083l-2.75249,-0.19788l0.0007,-0.00978l-0.0233,0.00805c-1.43891,-0.12967 -2.8832,-0.22877 -4.33065,-0.31071c-0.36147,0.20307 -0.77855,0.31887 -1.22267,0.31887l-3.57217,0c-3.94789,-0.00053 -10.22724,0.71818 -14.01055,-0.42253c-0.0455,-0.01372 -0.09091,-0.02769 -0.13622,-0.0419l-0.00377,0.02357l-4.89795,-0.78274c-0.79334,-0.11282 -1.46675,-0.59807 -1.83754,-1.27306c-0.16663,-0.10886 -0.32448,-0.23403 -0.47213,-0.37807c-1.32829,-1.29572 -1.96587,-2.36214 -2.11983,-3.24159c-1.26349,-0.20379 -2.52562,-0.421 -3.78587,-0.65872l-0.05183,-0.03317l-0.00484,0.02041l-2.77689,-0.65902c-1.12731,-0.24221 -1.97233,-1.24453 -1.97233,-2.44421c0,-1.17249 0.80714,-2.15645 1.8961,-2.42657l2.90184,-0.78942c0.17097,-1.01205 0.95009,-1.8174 1.94842,-2.02713l2.5308,-0.58788l0.00724,0.03119l0.07869,-0.04956c0.89813,-0.14355 1.79489,-0.29026 2.69056,-0.4401c-1.8742,-0.6157 -3.71176,-1.23938 -5.43605,-1.6415l-0.14544,-0.11371l-0.02158,0.05569l-3.21188,-1.24471c-0.96282,-0.34757 -1.65104,-1.2695 -1.65104,-2.35216c0,-1.26212 0.93527,-2.30579 2.15055,-2.47577l4.90032,-0.7707l0.00263,0.01674c0.04047,-0.0112 0.081,-0.02224 0.12159,-0.0331c2.93318,-0.78476 6.25978,-0.68836 9.51523,-0.73555l-1.81519,-0.95705c-0.81848,-0.41073 -1.38022,-1.25766 -1.38022,-2.23581c0,-0.56789 0.18935,-1.09156 0.50837,-1.51131c-1.23287,-0.08108 -2.46993,-0.14593 -3.54253,-0.70502zM257.22712,170.25667c-0.28718,-0.10684 -0.5739,-0.21493 -0.86018,-0.32426c0.04878,0.11554 0.08913,0.23551 0.12027,0.35914c0.24946,-0.01075 0.49625,-0.02225 0.7399,-0.03488zM249.03126,166.83525c-0.02774,-0.00141 -0.05548,-0.00282 -0.08321,-0.00423c0.57486,0.26251 1.03289,0.73646 1.27466,1.32241c0.34226,0.01603 0.68441,0.03461 1.02642,0.05625l0.00414,0.00204l0.00012,-0.00176l1.02808,0.06899c-1.09039,-0.46568 -2.17384,-0.94752 -3.25019,-1.4437z" fill="#70b548" stroke="none" stroke-width="0.5" stroke-linecap="butt"></path></g></g></svg>