<svg version="1.1" xmlns="http://www.w3.org/2000/svg" xmlns:xlink="http://www.w3.org/1999/xlink" width="147.47581" height="85.6059" viewBox="0,0,147.47581,85.6059"><g transform="translate(-203.09593,-90.76649)"><g data-paper-data="{&quot;isPaintingLayer&quot;:true}" fill-rule="nonzero" stroke-linejoin="miter" stroke-miterlimit="10" stroke-dasharray="" stroke-dashoffset="0" style="mix-blend-mode: normal"><path d="" data-paper-data="{&quot;index&quot;:null}" fill="none" stroke="#000000" stroke-width="1.5" stroke-linecap="round"></path><path d="" data-paper-data="{&quot;index&quot;:null}" fill="none" stroke="#000000" stroke-width="1.5" stroke-linecap="round"></path><path d="" data-paper-data="{&quot;index&quot;:null}" fill="none" stroke="#000000" stroke-width="1.5" stroke-linecap="round"></path><path d="M272.96865,109.67328" data-paper-data="{&quot;index&quot;:null}" fill="none" stroke="#d8d8d8" stroke-width="4" stroke-linecap="round"></path><g stroke="#000000" stroke-width="1.5"><path d="M250.18487,175.02043c-21.48642,3.77342 -41.96357,-10.58581 -45.73698,-32.07225c-3.77342,-21.48642 10.58581,-41.96357 32.07225,-45.73698c21.48642,-3.77342 41.96357,10.58581 45.73698,32.07225c3.77342,21.48642 -10.58581,41.96357 -32.07225,45.73698z" fill="#d8d8d8" stroke-linecap="butt"></path><path d="M236.49992,127.95826l-17.9442,-3.00796" fill="none" stroke-linecap="round"></path><path d="M234.06878,137.09318l-1.43627,-6.96901" fill="none" stroke-linecap="round"></path><path d="M240.80402,127.06938l9.80923,-7.03242" fill="none" stroke-linecap="round"></path><path d="M244.05595,134.70207l-0.95185,-6.62931" fill="none" stroke-linecap="round"></path><path d="M235.92353,154.23376c0,0 0.18995,-11.78986 2.94554,-12.22322c3.29508,-0.51821 8.77592,11.51846 8.77592,11.51846" fill="none" stroke-linecap="round"></path></g><path d="M339.65996,92.04396l4.73899,-1.27747c0.81949,1.6874 2.46327,2.89517 3.23465,4.60509c0.03071,0.06807 0.06088,0.13633 0.09056,0.20478l0.03175,-0.01893l2.44202,4.09673c0.23699,0.38216 0.37381,0.83295 0.37381,1.31569c0,1.38071 -1.11929,2.5 -2.5,2.5c-0.46269,0 -0.89602,-0.12569 -1.26772,-0.3448l-0.77828,-0.43931l0.57776,4.36169c0.01781,0.12039 0.02703,0.24357 0.02703,0.36891c0,1.38071 -1.11929,2.5 -2.5,2.5c-0.24258,0 -0.4771,-0.03455 -0.69889,-0.099l-0.65949,0.15288l0.59538,2.08892c-1.27769,-0.40772 -2.51047,-1.02713 -3.80736,-1.34433l-0.32832,0.07611l-0.03629,-0.15656c-0.18668,-0.03654 -0.37487,-0.06597 -0.56489,-0.08679c-0.65344,-0.07162 1.621,0.51004 1.58994,1.16666c-0.08605,1.8195 -0.21854,4.39879 -1.88764,5.12821c-2.01688,0.8814 -3.26304,0.23115 -4.08065,-0.91348c-0.4583,0.5671 -1.15952,0.92975 -1.94544,0.92975c-0.80829,0 -1.52699,-0.38359 -1.98398,-0.97866l-0.81413,-1.03988c0.33276,2.09339 0.70492,4.43466 0.70519,4.43634c0.20754,1.33504 0.79612,2.67681 0.74621,4.00928c0.1317,0.30123 0.26308,0.60292 0.39415,0.90508l1.08938,2.5114c0.14659,0.31804 0.22835,0.67212 0.22835,1.0453c0,1.38071 -1.11929,2.5 -2.5,2.5c-0.9813,0 -1.83055,-0.56538 -2.23977,-1.38816l-1.61782,-3.09401l0.06227,-0.03256c-0.07681,-0.11056 -0.15031,-0.22384 -0.22017,-0.34012c-0.37092,-0.61735 -0.53991,-1.30913 -0.62757,-2.03077c-2.12906,-4.78394 -4.3546,-9.46084 -6.77346,-14.13554c0,0 -1.1489,-2.22037 1.07147,-3.36927c2.22037,-1.1489 3.36927,1.07147 3.36927,1.07147c0.03345,0.06465 0.06687,0.12931 0.10025,0.19396c0.07583,-1.31254 1.16424,-2.35352 2.49578,-2.35352c0.66433,0 1.26813,0.25912 1.71586,0.6818l2.23149,2.09627c0.43675,-0.37315 1.0036,-0.59846 1.62308,-0.59846c0.62765,0 1.20127,0.2313 1.64029,0.6133l1.55769,1.33938c-0.01213,-0.85324 0.16599,-1.62259 0.61858,-1.97151c0.93405,-0.7201 2.14206,0.06502 3.3336,0.75969l-0.39782,-1.7161c-0.05024,-0.19762 -0.07695,-0.40464 -0.07695,-0.6179c0,-1.38071 1.11929,-2.5 2.5,-2.5c0.16147,0 0.31937,0.01531 0.47232,0.04455l-0.01485,-0.11214l0.01539,-0.00204c-0.65405,-1.08766 -1.24916,-2.2135 -1.8199,-3.3442l0.00133,-0.18607l-0.06263,0.02074l-0.80274,-2.42402c-0.09394,-0.26291 -0.1451,-0.54614 -0.1451,-0.84133c0,-1.19247 0.83489,-2.18994 1.95202,-2.43976c-0.47404,-0.70218 -0.47404,-1.52731 -0.47404,-1.52731z" fill="#967343" stroke="none" stroke-width="0.5" stroke-linecap="butt"></path><path d="M330.03433,121.75349c-0.09826,3.1454 -0.124,5.3547 -0.40583,7.68831l0.40387,-0.04012l0.3251,3.27261c0.01028,0.09206 0.01555,0.18563 0.01555,0.28043c0,1.38071 -1.11929,2.5 -2.5,2.5c-1.11342,0 -2.05684,-0.72787 -2.38038,-1.73375l-0.89673,-2.57891c-3.16945,1.81527 -4.32038,-6.54615 -4.76278,-7.95443l-0.62846,-4.92002c-0.01662,-0.11642 -0.02522,-0.23543 -0.02522,-0.35644c0,-0.94518 0.52453,-1.76786 1.29838,-2.19282c-0.30991,-1.32783 -0.61437,-2.65715 -0.9429,-3.97992c0,0 -0.60262,-2.42628 1.82367,-3.0289c2.42628,-0.60262 3.0289,1.82367 3.0289,1.82367c0,0 0.38359,1.54444 0.84473,3.40111c0.20437,-1.78491 0.61398,-3.36359 1.42375,-4.17752c-0.13533,-0.30018 -0.27058,-0.60039 -0.40574,-0.90064c0,0 -1.02623,-2.27966 1.25342,-3.30589c2.27966,-1.02623 3.30589,1.25342 3.30589,1.25342c0.5616,1.24752 1.12178,2.49569 1.68065,3.74444l0.29624,-1.90638c0.11351,-0.82172 0.62638,-1.51591 1.33638,-1.88032l-0.20031,-2.5059c-0.00675,-0.07489 -0.0102,-0.15073 -0.0102,-0.22738c0,-0.91681 0.49351,-1.71836 1.22938,-2.15348c-0.0518,-0.45294 -0.08236,-0.74976 -0.08952,-0.80042l-0.61738,-4.42774c-0.01962,-0.12619 -0.0298,-0.2555 -0.0298,-0.38719c0,-1.38071 1.11929,-2.5 2.5,-2.5c0.80121,0 1.51439,0.3769 1.97191,0.96307l2.61268,3.28731l-0.03063,0.02434c0.07178,0.07705 0.14229,0.15547 0.21144,0.23534c1.1598,1.33965 1.45153,3.23299 2.17729,4.84949l-3.2739,1.2117c0.17173,1.17088 0.32899,2.26932 0.46435,3.3792l0.42029,-0.13594l1.52077,4.70181c0.09024,0.25826 0.13929,0.53585 0.13929,0.8249c0,1.38071 -1.11929,2.5 -2.5,2.5c-0.60594,0 -1.16153,-0.21557 -1.59425,-0.57421c-0.25439,1.96823 -0.63839,3.92548 -1.06524,5.85069l-1.60591,-2.62509l-0.62209,4.00329c-0.16815,1.21733 -1.21278,2.15476 -2.47636,2.15476c-1.28708,0 -2.347,-0.97263 -2.48483,-2.22299l-0.10792,-0.86392l-0.57011,-0.47258c-0.02721,0.34127 -0.04946,0.64696 -0.05746,0.90299z" fill="#967343" stroke="none" stroke-width="0.5" stroke-linecap="butt"></path></g></g></svg>