<svg version="1.1" xmlns="http://www.w3.org/2000/svg" xmlns:xlink="http://www.w3.org/1999/xlink" width="112.66668" height="80.31228" viewBox="0,0,112.66668,80.31228"><g transform="translate(-439.74839,-139.84386)"><g stroke-miterlimit="10"><path d="M440.84385,182.71289c-1.4983,-21.62533 14.81788,-40.37076 36.44325,-41.86903c21.62533,-1.4983 40.37076,14.81788 41.86903,36.44325c1.4983,21.62533 -14.81788,40.37076 -36.44325,41.86903c-21.62533,1.4983 -40.37076,-14.81788 -41.86903,-36.44325z" fill="#c6c6c6" stroke="#00144d" stroke-width="2" stroke-linecap="butt"/><path d="M441.0628,178.32124c0,0 0.35435,-4.73349 1.04274,-7.00444c0.82026,-2.706 3.55294,-8.15636 3.55294,-8.15636l33.98813,-0.89804l0.39091,14.79484z" fill="#ffffff" stroke="#001e6f" stroke-width="2" stroke-linecap="butt"/><path d="M471.56257,176.28243l-0.20675,-12.87858l7.46979,-0.20723l0.20675,12.87858z" fill-opacity="0.35294" fill="#0015ff" stroke="none" stroke-width="0" stroke-linecap="butt"/><path d="M463.96831,176.63922l-0.20675,-12.87858l7.46978,-0.20723l0.20675,12.87858z" fill-opacity="0.45098" fill="#0015ff" stroke="none" stroke-width="0" stroke-linecap="butt"/><path d="M456.15996,176.81118l-0.20675,-12.87858l7.46979,-0.20723l0.20675,12.87858z" fill-opacity="0.61961" fill="#0015ff" stroke="none" stroke-width="0" stroke-linecap="butt"/><path d="M494.24658,192.25682l-7.95781,5.17497l-9.06674,-3.36853l8.45178,-16.90839z" fill-opacity="0.31373" fill="#006bff" stroke="#00144d" stroke-width="1.5" stroke-linecap="round"/><path d="M448.25919,177.0902l-0.20675,-12.87858l7.46978,-0.20723l0.20675,12.87858z" fill-opacity="0.70196" fill="#0015ff" stroke="none" stroke-width="0" stroke-linecap="butt"/><path d="M442.06118,177.34452c0,0 0.64759,-4.95968 1.35691,-7.24077c0.67823,-2.18112 2.8099,-6.15932 2.8099,-6.15932l1.28641,0.24656l0.20675,12.87858z" fill-opacity="0.9098" fill="#0015ff" stroke="none" stroke-width="0" stroke-linecap="butt"/><path d="M442.59459,183.04035l34.65773,11.13211l8.36396,-18.10518l8.10653,16.33939l25.21077,-14.43949c0,0 0.33458,4.67061 -0.84144,10.06287c-1.34992,6.18956 -4.40091,13.4149 -7.36655,17.04712c-2.586,3.16725 -7.89999,7.58945 -13.22626,9.96207c-5.61003,2.49903 -11.11759,3.64188 -11.11759,3.64188c0,0 -7.33332,0.50427 -15.16783,-0.95483c-6.15501,-1.14631 -12.70428,-4.66189 -16.00372,-7.23008c-3.97005,-3.09018 -9.84308,-10.48491 -12.40562,-16.91358c-2.27792,-5.71468 -1.47492,-10.70011 -1.47492,-10.70011z" fill-opacity="0.25098" fill="#172aff" stroke="#00144d" stroke-width="1.5" stroke-linecap="round"/><path d="M450.8499,206.3132c0,0 8.08979,-7.57675 12.58836,-4.84344c4.49857,2.73332 5.34832,15.74168 5.34832,15.74168c0,0 -7.01032,-1.83494 -10.10013,-3.71228c-2.87336,-1.74585 -7.83655,-7.18596 -7.83655,-7.18596z" fill-opacity="0.2" fill="#00ff15" stroke="#00144d" stroke-width="1.5" stroke-linecap="round"/><path d="M509.44644,206.18068c-2.42482,2.68171 -8.61893,6.44263 -8.61893,6.44263c0,0 -2.9014,-12.70911 0.629,-16.61353c3.5304,-3.90442 13.44737,1.04588 13.44737,1.04588c0,0 -3.20248,6.63116 -5.45744,9.12502z" fill-opacity="0.2" fill="#00ff15" stroke="#00144d" stroke-width="1.5" stroke-linecap="round"/><path d="M504.33046,185.94468l-25.71735,-44.49467l9.83801,0.59285l23.02432,39.67886z" fill="#00f2ff" stroke="#00144d" stroke-width="1.5" stroke-linecap="butt"/><path d="M490.11051,168.74395c-0.45138,-6.15064 4.16878,-11.50264 10.31942,-11.95402c6.15064,-0.45138 11.50264,4.16878 11.95402,10.31942c0.45138,6.15064 -4.16878,11.50264 -10.31942,11.95402c-6.15064,0.45138 -11.50264,-4.16878 -11.95402,-10.31942z" fill="#00cdff" stroke="#00144d" stroke-width="1.5" stroke-linecap="butt"/><path d="M481.58517,146.69769l7.61867,-2.45309" fill="none" stroke="#00144d" stroke-width="1.5" stroke-linecap="round"/><path d="M491.49124,148.0875l-7.17541,2.42056" fill="none" stroke="#00144d" stroke-width="1.5" stroke-linecap="round"/><path d="M486.76283,155.00769l7.03207,-2.85567" fill="none" stroke="#00144d" stroke-width="1.5" stroke-linecap="round"/><path d="M490.00993,159.78284l6.11303,-3.23387" fill="none" stroke="#00144d" stroke-width="1.5" stroke-linecap="round"/><path d="M509.49053,179.29827l-6.14556,2.79062" fill="none" stroke="#00144d" stroke-width="1.5" stroke-linecap="round"/><g stroke="#00144d"><path d="M494.06441,191.91443c-0.20532,-4.92622 3.62173,-9.08615 8.54794,-9.29147c4.92622,-0.20532 9.08615,3.62173 9.29147,8.54794c0.20532,4.92622 -3.62173,9.08615 -8.54794,9.29147c-4.92622,0.20532 -9.08615,-3.62173 -9.29147,-8.54794z" fill="none" stroke-width="2.5" stroke-linecap="butt"/><path d="M499.62171,187.75195l-0.16926,-4.06101l45.83132,-1.9102l0.16926,4.06101z" fill="#4d5995" stroke-width="1.5" stroke-linecap="butt"/><path d="M501.74216,184.40269l-0.38688,-9.2823l49.89232,-2.07946l0.38688,9.2823z" fill="#6b7ccf" stroke-width="1.5" stroke-linecap="butt"/><path d="M484.45036,198.97335l9.83761,-22.63184l3.99385,1.73605l-9.83761,22.63184z" fill-opacity="0.25098" fill="#172aff" stroke-width="1.5" stroke-linecap="butt"/><path d="M496.97693,203.27669l1.61204,-25.09946l4.20806,0.11706l-1.88182,25.20671z" fill-opacity="0.44314" fill="#172aff" stroke-width="1.5" stroke-linecap="butt"/><path d="M495.30046,209.71876l-9.0829,-1.80075l11.11304,-26.17911z" fill-opacity="0.8549" fill="#006ace" stroke-width="1.5" stroke-linecap="round"/><path d="M505.36817,189.67723l-12.33936,-10.38956l4.45006,14.5685c0,0 -11.30228,-4.50506 -11.55768,-10.6328c-0.25539,-6.12773 4.50506,-11.30228 10.6328,-11.55768c6.12773,-0.25539 8.81418,18.01154 8.81418,18.01154z" fill="#6cbbcf" stroke-width="1.5" stroke-linecap="butt"/><path d="M487.63672,177.13052l12.33936,10.38956l-4.45006,-14.5685c0,0 11.30228,4.50506 11.55768,10.6328c0.25539,6.12773 -4.50506,11.30228 -10.6328,11.55768c-6.12773,0.25539 -8.81418,-18.01154 -8.81418,-18.01154z" fill="#6cbbcf" stroke-width="1.5" stroke-linecap="butt"/><path d="M493.45092,182.77235c-0.07344,-1.76222 1.29557,-3.25033 3.0578,-3.32378c1.76222,-0.07344 3.25033,1.29557 3.32378,3.0578c0.07344,1.76222 -1.29557,3.25033 -3.0578,3.32378c-1.76222,0.07344 -3.25033,-1.29557 -3.32378,-3.0578z" fill="#6b73cf" stroke-width="1.5" stroke-linecap="butt"/></g></g></g></svg>