<svg version="1.1" xmlns="http://www.w3.org/2000/svg" xmlns:xlink="http://www.w3.org/1999/xlink" width="119.001" height="127.1464" viewBox="0,0,119.001,127.1464"><g transform="translate(-198.73844,-137.92386)"><g data-paper-data="{&quot;isPaintingLayer&quot;:true}" fill-rule="nonzero" stroke="#000000" stroke-linejoin="miter" stroke-miterlimit="10" stroke-dasharray="" stroke-dashoffset="0" style="mix-blend-mode: normal"><path d="M211.71589,206.74759c-15.7808,-15.06227 -16.36331,-40.06548 -1.30104,-55.84627c15.06227,-15.7808 40.06548,-16.36331 55.84627,-1.30104c15.7808,15.06227 16.36331,40.06548 1.30104,55.84627c-15.06227,15.7808 -40.06548,16.36331 -55.84627,1.30104z" fill="#d8d8d8" stroke-width="1.5" stroke-linecap="butt"></path><path d="M215.02573,186.23876l6.22664,-6.57486l6.38053,4.82585" fill="none" stroke-width="1.5" stroke-linecap="round"></path><path d="M231.67289,179.45776l-6.31205,-4.91509l4.74047,-7.71546" data-paper-data="{&quot;index&quot;:null}" fill="none" stroke-width="1.5" stroke-linecap="round"></path><g data-paper-data="{&quot;index&quot;:null}" stroke-width="1"><path d="M269.27909,205.5503l13.97967,15.67064l-6.15633,5.492l-13.97967,-15.67064z" fill="#af5400" stroke-linecap="butt"></path><path d="M274.67665,223.91866c0,0 -0.7436,-3.75567 -0.44306,-5.30756c0.33386,-1.72391 2.35673,-4.57413 2.35673,-4.57413" fill="none" stroke-linecap="round"></path><path d="M270.15795,218.70317c0,0 3.06175,-1.68572 4.81243,-1.82142c1.57598,-0.12217 5.22276,1.04361 5.22276,1.04361" data-paper-data="{&quot;index&quot;:null}" fill="none" stroke-linecap="round"></path><path d="M266.66198,214.18343c0,0 3.06175,-1.68572 4.81243,-1.82142c1.57598,-0.12217 5.22276,1.04361 5.22276,1.04361" data-paper-data="{&quot;index&quot;:null}" fill="none" stroke-linecap="round"></path><path d="M270.56545,219.0097c0,0 -0.7436,-3.75567 -0.44306,-5.30756c0.33384,-1.72388 2.35673,-4.57413 2.35673,-4.57413" data-paper-data="{&quot;index&quot;:null}" fill="none" stroke-linecap="round"></path><path d="M282.82192,226.58724c-3.54427,3.16183 -7.10299,4.95659 -7.9486,4.00871c-0.8456,-0.94788 1.34211,-4.27948 4.8864,-7.44132c3.54427,-3.16183 7.10299,-4.95659 7.9486,-4.00871c0.8456,0.94788 -1.34211,4.27948 -4.8864,7.44132z" fill="#8f8f8f" stroke-linecap="butt"></path><path d="M284.71338,223.65118l32.45278,36.3783c0,0 -0.9252,2.50045 -1.77965,3.26271c-0.82339,0.73453 -3.25734,1.23074 -3.25734,1.23074l-32.45278,-36.3783z" fill="#dddddd" stroke-linecap="butt"></path></g></g></g></svg>