<svg version="1.1" xmlns="http://www.w3.org/2000/svg" xmlns:xlink="http://www.w3.org/1999/xlink" width="144.21964" height="80.5" viewBox="0,0,144.21964,80.5"><g transform="translate(-200.95089,-140.37072)"><g data-paper-data="{&quot;isPaintingLayer&quot;:true}" fill-rule="nonzero" stroke-linejoin="miter" stroke-miterlimit="10" stroke-dasharray="" stroke-dashoffset="0" style="mix-blend-mode: normal"><path d="" data-paper-data="{&quot;index&quot;:null}" fill="none" stroke="#000000" stroke-width="1.5" stroke-linecap="round"></path><path d="" data-paper-data="{&quot;index&quot;:null}" fill="none" stroke="#000000" stroke-width="1.5" stroke-linecap="round"></path><path d="" data-paper-data="{&quot;index&quot;:null}" fill="none" stroke="#000000" stroke-width="1.5" stroke-linecap="round"></path><path d="" data-paper-data="{&quot;index&quot;:null}" fill="none" stroke="#000000" stroke-width="1.5" stroke-linecap="round"></path><path d="" data-paper-data="{&quot;index&quot;:null}" fill="none" stroke="#000000" stroke-width="1.5" stroke-linecap="round"></path><path d="M289.92393,195.47556" data-paper-data="{&quot;index&quot;:null}" fill="none" stroke="#d8d8d8" stroke-width="4" stroke-linecap="round"></path><path d="M241.20089,220.12072c-21.81525,0 -39.5,-17.68475 -39.5,-39.5c0,-21.81525 17.68475,-39.5 39.5,-39.5c21.81525,0 39.5,17.68475 39.5,39.5c0,21.81525 -17.68475,39.5 -39.5,39.5z" fill="#d8d8d8" stroke="#000000" stroke-width="1.5" stroke-linecap="butt"></path><path d="M229.23032,168.76316l-17.15344,-6.06646" fill="none" stroke="#000000" stroke-width="1.5" stroke-linecap="round"></path><path d="M223.12495,178.96305l-0.20919,-7.1124" fill="none" stroke="#000000" stroke-width="1.5" stroke-linecap="round"></path><path d="M242.40962,166.67571l-12.04734,0.73331" fill="none" stroke="#000000" stroke-width="1.5" stroke-linecap="round"></path><path d="M235.65795,178.6271l0.20919,-6.69403" fill="none" stroke="#000000" stroke-width="1.5" stroke-linecap="round"></path><path d="M237.39081,185.8159c0,0 -2.44712,6.39517 -6.00657,7.52772c-3.85628,1.227 -16.31203,-0.42635 -16.31203,-0.42635" fill="none" stroke="#000000" stroke-width="1.5" stroke-linecap="round"></path><g><path d="" data-paper-data="{&quot;index&quot;:null}" fill="none" stroke="#000000" stroke-width="1.5" stroke-linecap="round"></path><path d="" data-paper-data="{&quot;index&quot;:null}" fill="none" stroke="#000000" stroke-width="1.5" stroke-linecap="round"></path><path d="" data-paper-data="{&quot;index&quot;:null}" fill="none" stroke="#000000" stroke-width="1.5" stroke-linecap="round"></path><path d="" data-paper-data="{&quot;index&quot;:null}" fill="none" stroke="#000000" stroke-width="1.5" stroke-linecap="round"></path><path d="" data-paper-data="{&quot;index&quot;:null}" fill="none" stroke="#000000" stroke-width="1.5" stroke-linecap="round"></path><path d="M331.88303,186.50949" data-paper-data="{&quot;index&quot;:null}" fill="none" stroke="#d8d8d8" stroke-width="4" stroke-linecap="round"></path><g stroke-width="0" stroke-linecap="butt"><path d="M331.00087,147.61378l3.58609,12.08886l-3.07383,1.95608z" fill="#aeaeae" stroke="none"></path><path d="M339.92751,168.84042l3.59702,-2.28903l1.646,11.94754l-3.59702,2.28903z" fill="#a7ed95" stroke="none"></path><path d="M316.04814,189.86976l13.73409,-8.73992l0.2711,1.96783l-13.73409,8.73992z" fill="#c2c2c2" stroke="none"></path><path d="M313.65589,188.18158l2.37799,-1.51327l1.14252,8.293l-2.37799,1.51327z" fill="#a6a6a6" stroke="#000000"></path><path d="M326.92337,162.28625l11.91057,-7.5795l5.57702,40.48106l-11.91057,7.5795z" fill="#73a367" stroke="none"></path><path d="M336.08976,196.75943l3.07383,-1.95608l0.05447,14.33628z" data-paper-data="{&quot;index&quot;:null}" fill="#aeaeae" stroke="none"></path></g></g></g></g></svg>