<svg version="1.1" xmlns="http://www.w3.org/2000/svg" xmlns:xlink="http://www.w3.org/1999/xlink" width="172.01238" height="80.5" viewBox="0,0,172.01238,80.5"><g transform="translate(-129.67529,-140.3707)"><g data-paper-data="{&quot;isPaintingLayer&quot;:true}" fill-rule="nonzero" stroke-linejoin="miter" stroke-miterlimit="10" stroke-dasharray="" stroke-dashoffset="0" style="mix-blend-mode: normal"><path d="" data-paper-data="{&quot;index&quot;:null}" fill="none" stroke="#000000" stroke-width="1.5" stroke-linecap="round"></path><path d="" data-paper-data="{&quot;index&quot;:null}" fill="none" stroke="#000000" stroke-width="1.5" stroke-linecap="round"></path><path d="M301.68768,195.47554" data-paper-data="{&quot;index&quot;:null}" fill="none" stroke="#d8d8d8" stroke-width="4" stroke-linecap="round"></path><path d="M199.18372,180.6207c0,-21.81525 17.68475,-39.5 39.5,-39.5c21.81525,0 39.5,17.68475 39.5,39.5c0,21.81525 -17.68475,39.5 -39.5,39.5c-21.81525,0 -39.5,-17.68475 -39.5,-39.5z" data-paper-data="{&quot;index&quot;:null}" fill="#d8d8d8" stroke="#000000" stroke-width="1.5" stroke-linecap="butt"></path><path d="M243.28496,174.20032l11.07275,-4.59202" data-paper-data="{&quot;index&quot;:null}" fill="none" stroke="#000000" stroke-width="1.5" stroke-linecap="round"></path><path d="M248.94146,178.95914l0.25511,-5.86758" data-paper-data="{&quot;index&quot;:null}" fill="none" stroke="#000000" stroke-width="1.5" stroke-linecap="round"></path><path d="M239.9685,174.57761l-14.45771,-4.12252" data-paper-data="{&quot;index&quot;:null}" fill="none" stroke="#000000" stroke-width="1.5" stroke-linecap="round"></path><path d="M234.44135,178.41109l-0.21988,-5.35892" data-paper-data="{&quot;index&quot;:null}" fill="none" stroke="#000000" stroke-width="1.5" stroke-linecap="round"></path><path d="M233.8131,191.53176l18.63798,0.59168" fill="none" stroke="#000000" stroke-width="1.5" stroke-linecap="round"></path><g data-paper-data="{&quot;index&quot;:null}" stroke="#000000" stroke-linecap="butt"><path d="M159.66242,200.99919l-18.80388,10.59618c0,0 -4.0345,-0.27495 -4.51568,-1.25624c-0.48206,-0.98306 1.62595,-4.63678 1.62595,-4.63678l18.80388,-10.59618z" fill="#af5400" stroke-width="1.5"></path><path d="M167.09495,206.28811c0,0 -3.99978,4.20942 -7.0373,3.55805c-3.5584,-0.76307 -5.95351,-5.78061 -7.64321,-9.01535c-3.13217,-5.99591 -3.5641,-12.21774 -0.96482,-13.89687c1.20776,-0.78018 5.65709,-1.91891 5.65709,-1.91891c0,0 3.04387,6.52524 4.72071,9.73519c3.13216,5.99591 5.26754,11.53786 5.26754,11.53786z" fill="#989898" stroke-width="1"></path><path d="M167.47236,206.54437c-2.59933,1.6791 -7.2456,-1.82035 -10.3778,-7.81629c-3.13214,-5.99592 -3.56414,-12.21774 -0.96483,-13.89686c2.59932,-1.67911 7.24563,1.82036 10.37779,7.81626c3.13214,5.99592 3.56413,12.21775 0.96483,13.89686z" fill="#989898" stroke-width="1"></path><path d="M159.5357,193.28377l87.51256,-46.45122l-9.46865,11.63033l-75.64643,40.15278c0,0 -2.25538,-0.69699 -2.65012,-1.57502c-0.4041,-0.89878 0.25268,-3.7569 0.25268,-3.7569z" fill="#e6e6e6" stroke-width="0.5"></path></g><path d="M131.18593,210.82999c-2.44291,-5.08003 -0.3051,-11.17861 4.77495,-13.62152c5.08003,-2.44291 11.17861,-0.3051 13.62152,4.77495c2.44291,5.08003 0.3051,11.17861 -4.77495,13.62152c-5.08003,2.44291 -11.17861,0.3051 -13.62152,-4.77495z" fill="#d8d8d8" stroke="#000000" stroke-width="1" stroke-linecap="butt"></path><path d="M132.31398,213.2378c-2.87121,-4.85085 -1.2664,-11.11083 3.58445,-13.98204c4.85085,-2.87121 11.11083,-1.2664 13.98204,3.58445c2.87121,4.85085 1.26641,11.11084 -3.58444,13.98205c-4.85085,2.87121 -11.11082,1.26639 -13.98205,-3.58445z" data-paper-data="{&quot;index&quot;:null}" fill="#d8d8d8" stroke="#000000" stroke-width="1" stroke-linecap="butt"></path></g></g></svg>