<svg version="1.1" xmlns="http://www.w3.org/2000/svg" xmlns:xlink="http://www.w3.org/1999/xlink" width="67.05647" height="65.875" viewBox="0,0,67.05647,65.875"><defs><linearGradient x1="239.23331" y1="156.26761" x2="242.74439" y2="154.64501" gradientUnits="userSpaceOnUse" id="color-1"><stop offset="0" stop-color="#ffffff"></stop><stop offset="1" stop-color="#ffffff"></stop></linearGradient></defs><g transform="translate(-207.0625,-147.0625)"><g data-paper-data="{&quot;isPaintingLayer&quot;:true}" fill-rule="nonzero" stroke-linejoin="miter" stroke-miterlimit="10" stroke-dasharray="" stroke-dashoffset="0" style="mix-blend-mode: normal"><path d="M207.0625,180c0,-18.19088 14.74662,-32.9375 32.9375,-32.9375c18.19088,0 32.9375,14.74662 32.9375,32.9375c0,18.19088 -14.74662,32.9375 -32.9375,32.9375c-18.19088,0 -32.9375,-14.74662 -32.9375,-32.9375z" fill="#000000" stroke="none" stroke-width="0" stroke-linecap="butt"></path><g fill="none" stroke-linecap="round"><path d="M244.34698,183.06074l-0.05063,26.91309l-3.13507,0.10799l0.29698,-27.23031z" stroke="#ffffff" stroke-width="4"></path><path d="M243.75943,210.49567l0.30035,-22.65086l-4.65536,-7.42936l2.4652,-0.88247l4.83086,6.54857" stroke="#ffffff" stroke-width="4"></path><path d="M246.78654,159.45024l-6.88604,24.91021l-3.38143,0.42521l7.62511,-25.86187z" stroke="#ffffff" stroke-width="4"></path><path d="M241.39045,150.68283l4.30441,9.19094l-6.746,23.74764" stroke="#ffffff" stroke-width="4"></path><path d="M238.21992,150.50902l5.53785,9.89457" stroke="url(#color-1)" stroke-width="4.5"></path></g><text transform="translate(222.62368,171.8295) rotate(-7.34632) scale(0.5,0.5)" font-size="40" xml:space="preserve" fill="#ffffff" fill-rule="nonzero" stroke="none" stroke-width="1" stroke-linecap="butt" stroke-linejoin="miter" stroke-miterlimit="10" stroke-dasharray="" stroke-dashoffset="0" font-family="Serif" font-weight="normal" text-anchor="start" style="mix-blend-mode: normal"><tspan x="0" dy="0">I</tspan></text><text transform="translate(245.90961,171.10899) rotate(29.64237) scale(0.5,0.5)" font-size="40" xml:space="preserve" fill="#ffffff" fill-rule="nonzero" stroke="none" stroke-width="1" stroke-linecap="butt" stroke-linejoin="miter" stroke-miterlimit="10" stroke-dasharray="" stroke-dashoffset="0" font-family="Serif" font-weight="normal" text-anchor="start" style="mix-blend-mode: normal"><tspan x="0" dy="0">II</tspan></text><text transform="translate(219.63677,200.91385) rotate(-26.38359) scale(0.5,0.5)" font-size="40" xml:space="preserve" fill="#ffffff" fill-rule="nonzero" stroke="none" stroke-width="1" stroke-linecap="butt" stroke-linejoin="miter" stroke-miterlimit="10" stroke-dasharray="" stroke-dashoffset="0" font-family="Serif" font-weight="normal" text-anchor="start" style="mix-blend-mode: normal"><tspan x="0" dy="0">III</tspan></text><text transform="translate(249.39491,189.83201) rotate(29.64212) scale(0.44282,0.44282)" font-size="40" xml:space="preserve" fill="#ffffff" fill-rule="nonzero" stroke="none" stroke-width="1" stroke-linecap="butt" stroke-linejoin="miter" stroke-miterlimit="10" stroke-dasharray="" stroke-dashoffset="0" font-family="Serif" font-weight="normal" text-anchor="start" style="mix-blend-mode: normal"><tspan x="0" dy="0">IV</tspan></text><path d="M217.61681,185.95681c-0.1583,-0.1935 0.0352,-0.3518 0.0352,-0.3518c1.03199,-0.84425 2.43037,-1.98824 3.46237,-2.83249c2.32199,-1.89957 4.64398,-3.79914 6.96596,-5.69871c0,0 0.1935,-0.1583 0.3518,0.0352c0.1583,0.1935 -0.0352,0.3518 -0.0352,0.3518c-2.32199,1.89957 -4.64398,3.79914 -6.96596,5.69871c-1.03199,0.84425 -2.06399,1.68851 -3.09598,2.53276l-0.36638,0.29973c0,0 -0.1935,0.1583 -0.3518,-0.0352z" fill="#ffffff" stroke="none" stroke-width="0.5" stroke-linecap="butt"></path><path d="M230.08816,206.89676c-0.21458,-0.12827 -0.08631,-0.34286 -0.08631,-0.34286c1.53928,-2.575 3.1355,-5.24527 4.67478,-7.82027c0,0 0.12827,-0.21458 0.34286,-0.08631c0.21458,0.12827 0.08631,0.34286 0.08631,0.34286c-1.53928,2.575 -3.07855,5.15 -4.61783,7.725l-0.05695,0.09527c0,0 -0.12827,0.21458 -0.34286,0.08631z" fill="#ffffff" stroke="none" stroke-width="0.5" stroke-linecap="butt"></path><path d="M224.91377,176.10655c-0.17224,0.1812 -0.35344,0.00896 -0.35344,0.00896l-0.06989,-0.06644c-0.86039,-0.81786 -1.67044,-1.63453 -2.44145,-2.53757c-1.94685,-2.28022 -3.95827,-4.50392 -5.95357,-6.74181c0,0 -0.16637,-0.1866 0.02023,-0.35297c0.1866,-0.16637 0.35297,0.02023 0.35297,0.02023c1.99768,2.24056 4.01145,4.46695 5.96062,6.7499c0.7599,0.89002 1.55763,1.6937 2.40568,2.49984l0.06989,0.06644c0,0 0.1812,0.17224 0.00896,0.35344z" fill="#ffffff" stroke="none" stroke-width="0.5" stroke-linecap="butt"></path><path d="M238.39176,166.33822c-0.17925,0.17427 -0.35352,-0.00498 -0.35352,-0.00498l-0.34728,-0.3572c-1.64005,-1.6869 -3.04204,-3.55488 -4.43918,-5.44479c0,0 -0.14862,-0.20103 0.05242,-0.34965c0.20103,-0.14862 0.34965,0.05242 0.34965,0.05242c1.38373,1.87177 2.77133,3.7228 4.39561,5.39348l0.34728,0.3572c0,0 0.17427,0.17925 -0.00498,0.35352z" fill="#ffffff" stroke="none" stroke-width="0.5" stroke-linecap="butt"></path><path d="M257.01262,153.1062c0.1671,0.18595 -0.01885,0.35305 -0.01885,0.35305c-0.24793,0.2228 -0.74097,0.66587 -0.9889,0.88867c0,0 -0.18595,0.1671 -0.35305,-0.01885c-0.1671,-0.18595 0.01885,-0.35305 0.01885,-0.35305c0.24793,-0.2228 0.49586,-0.44561 0.74379,-0.66841l0.24511,-0.22026c0,0 0.18595,-0.1671 0.35305,0.01885z" fill="#ffffff" stroke="none" stroke-width="0.5" stroke-linecap="butt"></path><path d="M273.64402,170.7018c0.1671,0.18595 -0.01885,0.35305 -0.01885,0.35305c-1.61155,1.44822 -3.3329,2.99511 -4.94445,4.44334c0,0 -0.18595,0.1671 -0.35305,-0.01885c-0.1671,-0.18595 0.01885,-0.35305 0.01885,-0.35305c1.61155,-1.44822 3.2231,-2.89644 4.83466,-4.34466l0.1098,-0.09867c0,0 0.18595,-0.1671 0.35305,0.01885z" fill="#ffffff" stroke="none" stroke-width="0.5" stroke-linecap="butt"></path><path d="M258.79796,207.39556c-0.1802,0.17329 -0.35349,-0.00691 -0.35349,-0.00691c-0.11553,-0.12013 -0.56832,-0.59098 -0.68385,-0.71111c-2.07947,-2.16236 -4.15894,-4.32472 -6.23842,-6.48708c0,0 -0.17329,-0.1802 0.00691,-0.35349c0.1802,-0.17329 0.35349,0.00691 0.35349,0.00691c2.07947,2.16236 4.15894,4.32472 6.23842,6.48708c0.11553,0.12013 0.23105,0.24026 0.34658,0.36039l0.33727,0.35072c0,0 0.17329,0.1802 -0.00691,0.35349z" fill="#ffffff" stroke="none" stroke-width="0.5" stroke-linecap="butt"></path><path d="M273.60001,182.51517c-0.0936,0.23182 -0.32542,0.13822 -0.32542,0.13822c-2.00908,-0.81119 -4.37378,-1.76596 -6.38287,-2.57714c0,0 -0.23182,-0.0936 -0.13822,-0.32542c0.0936,-0.23182 0.32542,-0.13822 0.32542,-0.13822c2.00908,0.81119 4.01817,1.62237 6.02725,2.43356l0.35562,0.14358c0,0 0.23182,0.0936 0.13822,0.32542z" fill="#ffffff" stroke="none" stroke-width="0.5" stroke-linecap="butt"></path></g></g></svg>