<svg version="1.1" xmlns="http://www.w3.org/2000/svg" xmlns:xlink="http://www.w3.org/1999/xlink" width="124.34181" height="80.5" viewBox="0,0,124.34181,80.5"><g transform="translate(-160.23768,-139.86622)"><g data-paper-data="{&quot;isPaintingLayer&quot;:true}" fill-rule="nonzero" stroke-linejoin="miter" stroke-miterlimit="10" stroke-dasharray="" stroke-dashoffset="0" style="mix-blend-mode: normal"><g><path d="M172.88041,195.94778c0.07287,-2.13887 1.52174,-3.8254 3.23618,-3.76699c1.71445,0.05841 3.04518,1.83966 2.97229,3.97853c-0.07287,2.13887 -1.52174,3.8254 -3.23618,3.76699c-1.71445,-0.05841 -3.04518,-1.83966 -2.97229,-3.97853z" fill="none" stroke="#000000" stroke-width="0.5" stroke-linecap="butt"></path><path d="M175.92282,194.92576c0,0 -11.45666,0.86502 -13.61861,-0.46396c-1.45239,-0.89281 -1.56653,-4.09795 -1.56653,-4.09795c0,0 -0.4381,-2.78358 1.83041,-3.64756c6.9118,-2.63239 18.42517,0.62773 18.42517,0.62773l-0.61289,17.98954l-5.40739,-0.18421l0.18726,-5.49681z" fill="#989898" stroke="#000000" stroke-width="1" stroke-linecap="round"></path><path d="M170.27664,189.98067l0.1277,-3.74782l3.80519,0.12963l-0.1277,3.74782z" fill="#00f6ff" stroke="none" stroke-width="0" stroke-linecap="butt"></path><path d="M175.26645,190.65093l0.1277,-3.74782l3.80519,0.12963l-0.1277,3.74782z" fill="#00f6ff" stroke="none" stroke-width="0" stroke-linecap="butt"></path><path d="M165.26981,189.8101l0.1277,-3.74782l3.80519,0.12963l-0.1277,3.74782z" fill="#00f6ff" stroke="none" stroke-width="0" stroke-linecap="butt"></path></g><path d="M204.82949,180.11622c0,-21.81525 17.68475,-39.5 39.5,-39.5c21.81525,0 39.5,17.68475 39.5,39.5c0,21.81525 -17.68475,39.5 -39.5,39.5c-21.81525,0 -39.5,-17.68475 -39.5,-39.5z" fill="#d8d8d8" stroke="#000000" stroke-width="1.5" stroke-linecap="butt"></path><path d="M221.33224,167.70295l9,1v8" fill="none" stroke="#000000" stroke-width="1.5" stroke-linecap="round"></path><path d="M235.26493,176.68819v-8l9,-1" data-paper-data="{&quot;index&quot;:null}" fill="none" stroke="#000000" stroke-width="1.5" stroke-linecap="round"></path><g><path d="M257.488,196.51898c0,-2.1401 1.7349,-3.875 3.875,-3.875c2.1401,0 3.875,1.7349 3.875,3.875c0,2.1401 -1.7349,3.875 -3.875,3.875c-2.1401,0 -3.875,-1.7349 -3.875,-3.875z" fill="none" stroke="#000000" stroke-width="0.5" stroke-linecap="butt"></path><path d="M261.238,195.39398c0,0 -14.24795,1.25461 -17,0c-1.8488,-0.84283 -2.12729,-4.04223 -2.12729,-4.04223c0,0 -0.66449,-2.76706 2.12729,-3.70777c8.50613,-2.8662 23,0 23,0v18h-6.75v-5.5z" fill="#989898" stroke="#000000" stroke-width="1" stroke-linecap="round"></path><path d="M253.988,190.64398v-3.75h4.75v3.75z" fill="#00f6ff" stroke="none" stroke-width="0" stroke-linecap="butt"></path><path d="M260.238,191.14398v-3.75h4.75v3.75z" fill="#00f6ff" stroke="none" stroke-width="0" stroke-linecap="butt"></path><path d="M247.738,190.64398v-3.75h4.75v3.75z" fill="#00f6ff" stroke="none" stroke-width="0" stroke-linecap="butt"></path></g><path d="M231.75339,192.84473l-8.5,-3.25" fill="none" stroke="#000000" stroke-width="1.5" stroke-linecap="round"></path><path d="M263.66882,191.46554c-0.22229,-1.98761 1.76532,-2.2099 1.76532,-2.2099l1.20513,-0.12782c0.97147,-0.02642 1.93706,0.0714 2.89483,0.24946l0.02482,-0.32062l3.97038,0.30741c1.04081,0.07026 1.86329,0.93678 1.86329,1.9954c0,0.66052 -0.3202,1.24626 -0.81385,1.61045c0.36024,0.3617 0.58292,0.86052 0.58292,1.41134c0,0.24304 -0.04335,0.47595 -0.12274,0.69142c0.74743,0.28973 1.27739,1.01571 1.27739,1.86547c0,0.48941 -0.17579,0.93777 -0.46767,1.28536l0.39422,0.23809c0.59623,0.34621 0.99716,0.99168 0.99716,1.73079c0,1.10457 -0.89543,2 -2,2c-0.02309,0 -0.04609,-0.00039 -0.069,-0.00117l-0.14421,-0.00429c-0.25519,0.81085 -1.01297,1.3989 -1.90809,1.3989c-0.02233,0 -0.04456,-0.00037 -0.06671,-0.00109l-3.98913,-0.11473l0.00025,-0.00854l-0.0324,0.00736c-1.28083,-0.07805 -2.56165,-0.15609 -3.84248,-0.23414c0,0 -1.99629,-0.12178 -1.87451,-2.11807c0.00203,-0.03329 0.00458,-0.06599 0.00764,-0.09812c-0.34482,-0.29359 -0.58872,-0.70218 -0.67237,-1.16645c-0.23793,-0.32908 -0.37816,-0.73345 -0.37816,-1.17057c0,-1.02284 0.76782,-1.86634 1.75851,-1.98557l0.90074,-0.12252c-0.07703,-0.21263 -0.11902,-0.44204 -0.11902,-0.68126c0,-0.71747 0.37779,-1.34671 0.9453,-1.69962c-0.1591,-0.28498 -0.25051,-0.61289 -0.25248,-0.96199c-0.58725,-0.04518 -1.6741,-0.32558 -1.83508,-1.76502z" fill="#989898" stroke="none" stroke-width="0.5" stroke-linecap="butt"></path></g></g></svg>