<svg version="1.1" xmlns="http://www.w3.org/2000/svg" xmlns:xlink="http://www.w3.org/1999/xlink" width="80.5" height="91.46756" viewBox="0,0,80.5,91.46756"><g transform="translate(-199.75,-128.78244)"><g data-paper-data="{&quot;isPaintingLayer&quot;:true}" fill-rule="nonzero" stroke-linejoin="miter" stroke-miterlimit="10" stroke-dasharray="" stroke-dashoffset="0" style="mix-blend-mode: normal"><g><path d="M200.5,180c0,-21.81525 17.68475,-39.5 39.5,-39.5c21.81525,0 39.5,17.68475 39.5,39.5c0,21.81525 -17.68475,39.5 -39.5,39.5c-21.81525,0 -39.5,-17.68475 -39.5,-39.5z" fill="#205fa7" stroke="#000000" stroke-width="1.5" stroke-linecap="butt"></path><path d="M267.80711,142.99009l-31.11024,20.74016l-27.99921,-20.22165" fill="none" stroke="#e2ff00" stroke-width="7" stroke-linecap="round"></path><path d="M213.42302,180.00685v-21.02353l21.15664,11.47952l23.22616,-11.47952v21.02353l-23.7633,13.64179z" fill="#edffff" stroke="#e2ff00" stroke-width="0" stroke-linecap="butt"></path><path d="M230.96621,174.0709c0,0 -2.29297,11.0872 -4.2313,11.0872c-0.48691,0 -1.41121,-0.56056 -1.85114,-1.87803c-1.31137,-3.92718 -1.13185,-14.08369 -1.13185,-14.08369z" fill="#ff0000" stroke="none" stroke-width="0" stroke-linecap="butt"></path><path d="M246.06093,169.14488c0,0 0.17952,10.15651 -1.13184,14.08369c-0.43993,1.31747 -1.36423,1.87803 -1.85115,1.87803c-1.93832,0 -4.2313,-11.0872 -4.2313,-11.0872z" data-paper-data="{&quot;index&quot;:null}" fill="#ff0000" stroke="none" stroke-width="0" stroke-linecap="butt"></path></g><path d="" data-paper-data="{&quot;index&quot;:null}" fill="none" stroke="#000000" stroke-width="1.5" stroke-linecap="round"></path><path d="" data-paper-data="{&quot;index&quot;:null}" fill="none" stroke="#000000" stroke-width="1.5" stroke-linecap="round"></path><g stroke-linecap="butt"><g fill="#d3d3d3" stroke="#000000" stroke-width="1"><path d="M248.11363,144.20327l16.20409,-7.25099l14.44304,32.27642l-16.20409,7.25099z"></path><path d="M253.97525,132.56748l6.98224,-3.12441l4.12657,9.22185l-6.98224,3.12441z"></path><path d="M243.18943,132.4922l6.19181,-2.77069l5.95405,13.30577l-6.19181,2.77069z"></path></g><path d="M254.83409,159.2217l16.33582,-7.30995l2.35805,5.26962l-16.33582,7.30995z" fill="#a0a0a0" stroke="none" stroke-width="0"></path><path d="M258.09023,166.14497l15.80884,-7.07414l2.18119,4.87439l-15.80884,7.07414z" fill="#a0a0a0" stroke="none" stroke-width="0"></path><path d="M251.73735,151.59459l15.67711,-7.01518l2.18119,4.87439l-15.67711,7.01518z" fill="#a0a0a0" stroke="none" stroke-width="0"></path></g></g></g></svg>