<svg version="1.1" xmlns="http://www.w3.org/2000/svg" xmlns:xlink="http://www.w3.org/1999/xlink" width="94.39579" height="80.5" viewBox="0,0,94.39579,80.5"><g transform="translate(-184.84272,-137.92395)"><g data-paper-data="{&quot;isPaintingLayer&quot;:true}" fill-rule="nonzero" stroke-linejoin="miter" stroke-miterlimit="10" stroke-dasharray="" stroke-dashoffset="0" style="mix-blend-mode: normal"><path d="" data-paper-data="{&quot;index&quot;:null}" fill="none" stroke="#000000" stroke-width="1.5" stroke-linecap="round"></path><path d="" data-paper-data="{&quot;index&quot;:null}" fill="none" stroke="#000000" stroke-width="1.5" stroke-linecap="round"></path><path d="M199.48851,178.17395c0,-21.81525 17.68475,-39.5 39.5,-39.5c21.81525,0 39.5,17.68475 39.5,39.5c0,21.81525 -17.68475,39.5 -39.5,39.5c-21.81525,0 -39.5,-17.68475 -39.5,-39.5z" fill="#d8d8d8" stroke="#000000" stroke-width="1.5" stroke-linecap="butt"></path><path d="M225.51007,194.79569c5.44898,-2.88817 27.57511,5.13694 27.57511,5.13694" data-paper-data="{&quot;index&quot;:null}" fill="none" stroke="#000000" stroke-width="1.5" stroke-linecap="round"></path><path d="M225.31197,165.60053l6.99536,1.82343v8" fill="none" stroke="#000000" stroke-width="1.5" stroke-linecap="round"></path><path d="M237.86965,175.98477l-0.24149,-8.93527l7.00332,-2.17344" fill="none" stroke="#000000" stroke-width="1.5" stroke-linecap="round"></path><path d="M238.59414,186.12751l16.42158,-6.52033" fill="none" stroke="#000000" stroke-width="1.5" stroke-linecap="round"></path><path d="M241.73356,180.09016l2.89793,5.55436" fill="none" stroke="#000000" stroke-width="1.5" stroke-linecap="round"></path><path d="M246.32194,177.91672l3.8639,7.7278" fill="none" stroke="#000000" stroke-width="1.5" stroke-linecap="round"></path><g><path d="M209.48203,188.54812l-10.03513,4.56438l-12.59981,-6.28731l14.38781,-4.47525z" data-paper-data="{&quot;index&quot;:null}" fill="#c6c6c6" stroke="#c6c6c6" stroke-width="1.5" stroke-linecap="round"></path><path d="M252.31759,180.3993" fill="none" stroke="#d8d8d8" stroke-width="4" stroke-linecap="round"></path><path d="M275.58166,196.48893l-56.21707,-4.66662l0.32184,-3.87704l56.21707,4.66662z" fill="#7f7600" stroke="#000000" stroke-width="0" stroke-linecap="butt"></path><path d="M207.53742,189.58641c-1.84704,-1.52004 -0.36171,-3.43918 -0.36171,-3.43918l2.69339,-2.61503c2.97906,-0.74953 6.01961,-0.70538 8.92667,-1.66866c1.20493,-0.39926 2.34873,-1.63333 3.57599,-1.30913c1.88819,0.49879 4.28287,1.58827 4.70168,3.49578c0.34588,1.57535 -2.39556,2.25643 -3.12264,3.69613c-0.38292,0.75823 0.35521,1.79146 -0.03083,2.54811c-0.28954,0.56752 -1.68179,0.22238 -1.70744,0.85897c-0.03961,0.98301 2.05816,1.64245 1.57218,2.49785c-3.27499,5.76445 -11.0797,1.49843 -15.21387,-0.12615c0,0 -2.32659,-0.91486 -1.41173,-3.24145c0.10837,-0.27559 0.23654,-0.5057 0.37831,-0.69724z" fill="#ff0000" stroke="none" stroke-width="0.5" stroke-linecap="butt"></path></g></g></g></svg>