<svg version="1.1" xmlns="http://www.w3.org/2000/svg" xmlns:xlink="http://www.w3.org/1999/xlink" width="85.60054" height="80.5" viewBox="0,0,85.60054,80.5"><g transform="translate(-204.07949,-139.75)"><g data-paper-data="{&quot;isPaintingLayer&quot;:true}" fill-rule="nonzero" stroke-linejoin="miter" stroke-miterlimit="10" stroke-dasharray="" stroke-dashoffset="0" style="mix-blend-mode: normal"><path d="M204.82949,180c0,-21.81525 17.68475,-39.5 39.5,-39.5c21.81525,0 39.5,17.68475 39.5,39.5c0,21.81525 -17.68475,39.5 -39.5,39.5c-21.81525,0 -39.5,-17.68475 -39.5,-39.5z" fill="#d8d8d8" stroke="#000000" stroke-width="1.5" stroke-linecap="butt"></path><path d="M228.58224,167.20295l9,1v8" fill="none" stroke="#000000" stroke-width="1.5" stroke-linecap="round"></path><path d="M248.51493,176.68819v-8l9,-1" data-paper-data="{&quot;index&quot;:null}" fill="none" stroke="#000000" stroke-width="1.5" stroke-linecap="round"></path><path d="M256.96879,195.96181l-31.37388,0.40984v-12.29517z" fill="#ffffff" stroke="#000000" stroke-width="1.5" stroke-linecap="round"></path><path d="M231.95448,186.19634l-0.42397,10.17531" fill="none" stroke="#000000" stroke-width="1.5" stroke-linecap="round"></path><path d="M240.43391,195.94768v-5.9356" fill="none" stroke="#000000" stroke-width="1.5" stroke-linecap="round"></path><g stroke="none" stroke-linecap="butt"><path d="M286.51817,161.15256l3.16187,1.71034l-15.82055,29.24716l-3.16187,-1.71034z" fill="#606060" stroke-width="0"></path><path d="M269.66054,180.98359l6.06021,3.27813l-2.13792,3.95232l-6.06021,-3.27813z" fill="#606060" stroke-width="0"></path><path d="M283.00547,148.12778c1.93813,1.04841 6.10347,3.30154 6.10347,3.30154l-33.87662,62.62715l-11.153,-6.03296l24.51777,-45.32559l4.5136,2.43809c0,0 8.86223,-17.56672 9.89476,-17.00822z" fill="#969696" stroke-width="NaN"></path><path d="M229.40629,200.13979l24.99265,4.87219l-0.70269,8.48627c0,0 -8.72371,-2.94783 -12.92365,-2.08527c-4.99881,1.0266 -15.09207,7.83888 -15.09207,7.83888z" fill="#606060" stroke-width="0"></path><path d="M249.1085,169.86641l14.49184,7.83899l-3.27813,6.06021l-14.49184,-7.83899z" fill="#606060" stroke-width="0"></path><path d="M258.77594,185.99456l9.15276,4.95095l-3.13561,5.79673l-9.15276,-4.95095z" fill="#00fffe" stroke-width="0"></path><path d="M254.29904,194.40114l9.15276,4.95095l-3.13561,5.79673l-9.15276,-4.95095z" fill="#00fffe" stroke-width="0"></path><path d="M262.81365,178.16082l9.15276,4.95095l-3.13561,5.79673l-9.15276,-4.95095z" fill="#00fffe" stroke-width="0"></path></g></g></g></svg>