<svg version="1.1" xmlns="http://www.w3.org/2000/svg" xmlns:xlink="http://www.w3.org/1999/xlink" width="80.5" height="80.5" viewBox="0,0,80.5,80.5"><defs><radialGradient cx="488.21393" cy="177.83306" r="10.40477" gradientUnits="userSpaceOnUse" id="color-1"><stop offset="0" stop-color="#ffffff"/><stop offset="1" stop-color="#f3fffe"/></radialGradient><radialGradient cx="466.59515" cy="184.17638" r="10.40477" gradientUnits="userSpaceOnUse" id="color-2"><stop offset="0" stop-color="#ffffff"/><stop offset="1" stop-color="#f3fffe"/></radialGradient></defs><g transform="translate(-438.73854,-137.92397)"><g stroke-miterlimit="10"><path d="" fill="none" stroke="#000000" stroke-width="1.5" stroke-linecap="round"/><path d="" fill="none" stroke="#000000" stroke-width="1.5" stroke-linecap="round"/><path d="M439.48854,178.17397c0,-21.81525 17.68475,-39.5 39.5,-39.5c21.81525,0 39.5,17.68475 39.5,39.5c0,21.81525 -17.68475,39.5 -39.5,39.5c-21.81525,0 -39.5,-17.68475 -39.5,-39.5z" fill="#ffffff" stroke="#000000" stroke-width="1.5" stroke-linecap="butt"/><path d="M472.79024,167.28626c0,1.80048 -0.36489,3.26006 -0.81501,3.26006c-0.45012,0 -0.81502,-1.45958 -0.81502,-3.26006c0,-1.80048 0.3649,-3.26006 0.81502,-3.26006c0.45012,0 0.81501,1.45958 0.81501,3.26006z" fill="none" stroke="#000000" stroke-width="1.5" stroke-linecap="butt"/><path d="M479.10661,167.38815c0,1.85674 -0.3649,3.36194 -0.81502,3.36194c-0.45012,0 -0.81501,-1.5052 -0.81501,-3.36194c0,-1.85674 0.36489,-3.36193 0.81501,-3.36193c0.45012,0 0.81502,1.50519 0.81502,3.36193z" fill="none" stroke="#000000" stroke-width="1.5" stroke-linecap="butt"/><path d="M483.51684,192.16256c0,0 -5.0993,0.9633 -8.57383,1.0335c-3.23174,0.06529 -8.54149,-1.84852 -8.54149,-1.84852" fill="none" stroke="#000000" stroke-width="1.5" stroke-linecap="round"/><path d="M478.01549,180.95609c0,1.91302 -1.7369,3.46381 -3.87947,3.46381c-2.14257,0 -3.87948,-1.5508 -3.87948,-3.46381c0,-1.91302 1.7369,-3.46382 3.87948,-3.46382c2.14257,0 3.87947,1.5508 3.87947,3.46382z" fill="#ff6900" stroke="#000000" stroke-width="0" stroke-linecap="butt"/><g stroke-linecap="butt"><path d="M482.19523,186.32037c-4.6874,-3.32403 -5.79265,-9.8186 -2.4686,-14.50602c3.32403,-4.6874 9.8186,-5.79265 14.50602,-2.4686c4.6874,3.32403 5.79265,9.8186 2.4686,14.50602c-3.32403,4.6874 -9.8186,5.79265 -14.50602,2.4686z" fill="url(#color-1)" stroke="#000000" stroke-width="1"/><path d="M467.45659,181.0292c3.31296,-0.0006 6.67656,-0.30527 9.18948,2.45899c0.80744,0.88821 1.02489,2.17103 1.54459,3.25308c0.57485,1.19692 1.37601,2.30657 1.73907,3.5838c0.17265,0.60736 0.30732,1.24415 0.35881,1.88204c0.74828,-0.4515 1.57469,-0.79572 2.37649,-1.13607c3.21957,-1.36669 7.86173,-1.89184 11.18635,-0.6184c0.57936,0.22191 0.84414,0.93627 1.38008,1.24877c0.11928,0.06956 0.04328,-0.27287 0.05806,-0.41017c0.1568,-1.45563 0.05591,-2.9602 0.4567,-4.36832c1.22612,-4.3077 4.57061,-6.20479 8.1263,-8.34799c3.95739,0.822 0.19892,0.10068 -0.29558,-0.27714c-1.01579,-0.77606 -1.86789,-1.77584 -2.57959,-2.83774c-2.44818,-3.65286 -2.88848,-8.1253 -2.97025,-12.43639c-0.63763,0.32069 -1.29711,0.60917 -1.92391,0.91661c-3.49966,1.71656 -8.85896,2.68428 -12.78535,2.91849c-1.35225,0.08066 -2.72621,0.12876 -4.06295,-0.09072c-0.44414,-0.07293 -0.71993,-0.97301 -1.11628,-0.75967c-0.35291,0.18996 0.46476,0.70289 0.47755,1.10348c0.03437,1.07655 0.02249,2.19903 -0.33974,3.2134c-0.37226,1.04253 -3.07889,5.59892 -4.21833,6.62197c-1.07146,0.96202 -4.40258,3.13267 -6.60144,4.08202zM465.53922,185.46527c-1.34225,0.55157 -2.54991,-0.53164 -2.54991,-0.53164l-1.29723,-1.28193c-0.56408,-1.47718 -2.24983,-2.9519 -1.69222,-4.4315c0.57241,-1.51886 2.83591,-1.57983 4.25476,-2.36812c1.98435,-1.10245 4.7201,-2.10062 6.4248,-3.59063c0.48577,-0.4246 2.82085,-4.41866 2.82915,-4.4422c0.86141,-2.44313 -1.30347,-4.47184 1.57949,-6.77249c1.16123,-0.92668 2.96348,-0.23793 4.44877,-0.27073c1.92192,-0.04244 3.86611,0.00477 5.75703,-0.34164c2.85412,-0.52285 6.04537,-0.74998 8.69516,-2.02515c1.09855,-0.52866 2.15469,-1.13578 3.19463,-1.7732l-0.06842,-0.05958l2.05824,-2.36369c0.50707,-0.59648 1.28584,-0.94638 2.12507,-0.87263c1.37542,0.12084 2.39244,1.3338 2.2716,2.70922c-0.00496,0.05647 -0.01177,0.11233 -0.02034,0.16755l-0.55446,3.76044c0.01866,3.78427 -0.13057,8.41726 2.14865,11.68895c1.3447,1.93022 5.60306,4.72257 5.28483,7.21827c-0.22007,1.72602 -2.79976,2.06678 -4.19962,3.10017c-2.27921,1.36492 -4.98641,2.55212 -5.69896,5.392c-0.91921,3.66353 0.38735,7.28834 -4.84067,8.30368c-1.25363,0.24346 -2.30619,-1.11371 -3.51749,-1.51819c-2.26933,-0.75781 -5.43928,-0.43026 -7.60831,0.53427c-1.66883,0.74209 -5.91516,4.0491 -7.75797,3.14881c-2.58943,-1.26506 -1.12077,-5.21339 -1.70214,-7.21301c-0.29067,-0.99973 -1.00719,-1.82465 -1.44128,-2.77097c-1.56874,-3.41993 -2.74667,-2.81893 -6.4847,-2.83274c0,0 -0.91756,-0.00411 -1.63841,-0.56327z" fill="#ffffff" stroke="none" stroke-width="0.5"/><path d="M472.47801,180.63157c2.59323,-0.00048 5.22613,-0.23894 7.19311,1.92478c0.63203,0.69525 0.80222,1.69938 1.20904,2.54636c0.44998,0.93691 1.07707,1.8055 1.36127,2.80524c0.13516,0.47541 0.24057,0.97385 0.28086,1.47319c0.58574,-0.35342 1.23258,-0.62284 1.86022,-0.88926c2.52014,-1.06979 6.15383,-1.48087 8.75621,-0.48405c0.4535,0.17369 0.66076,0.73286 1.08026,0.97748c0.09339,0.05445 0.03388,-0.2136 0.04547,-0.32106c0.12275,-1.13942 0.04376,-2.31714 0.35749,-3.41935c0.95976,-3.37186 3.57767,-4.85683 6.36091,-6.53445c3.09767,0.64343 0.15572,0.0788 -0.23138,-0.21693c-0.79514,-0.60746 -1.46212,-1.39005 -2.0192,-2.22125c-1.91635,-2.8593 -2.26096,-6.36013 -2.32501,-9.73467c-0.49911,0.25102 -1.01533,0.47683 -1.50597,0.71748c-2.73939,1.34366 -6.9344,2.10114 -10.00779,2.28447c-1.05848,0.06315 -2.13397,0.10079 -3.18031,-0.07102c-0.34764,-0.05708 -0.56355,-0.76163 -0.87378,-0.59466c-0.27625,0.14869 0.36379,0.5502 0.37383,0.86374c0.0269,0.84268 0.0176,1.7213 -0.26593,2.5153c-0.29139,0.81606 -2.41002,4.3826 -3.30192,5.18338c-0.83868,0.75303 -3.44614,2.45213 -5.16733,3.19523zM470.97717,184.10392c-1.05066,0.43175 -1.99597,-0.41617 -1.99597,-0.41617l-1.01544,-1.00343c-0.44154,-1.15627 -1.76107,-2.31062 -1.3246,-3.46881c0.44805,-1.18889 2.21985,-1.23662 3.33046,-1.85365c1.55328,-0.86295 3.6947,-1.64428 5.02904,-2.81059c0.38025,-0.33235 2.20804,-3.45874 2.21453,-3.47716c0.67425,-1.91239 -1.0203,-3.50036 1.23636,-5.30122c0.90895,-0.72537 2.31967,-0.18624 3.4823,-0.21192c1.50439,-0.03322 3.02622,0.00371 4.50636,-0.26743c2.23409,-0.40925 4.73207,-0.58706 6.80621,-1.5852c0.8599,-0.41382 1.68662,-0.88903 2.50062,-1.388l-0.05355,-0.04664l1.61111,-1.8502c0.39693,-0.4669 1.00649,-0.7408 1.66341,-0.68305c1.0766,0.0946 1.8727,1.04405 1.77811,2.12065c-0.00388,0.0442 -0.00921,0.08793 -0.01592,0.13116l-0.43399,2.94352c0.01458,2.96218 -0.10221,6.58869 1.68188,9.14958c1.05258,1.51089 4.38585,3.69665 4.13675,5.65017c-0.17227,1.35104 -2.19153,1.6178 -3.2873,2.4267c-1.78405,1.06842 -3.90315,1.99769 -4.4609,4.22061c-0.71951,2.86767 0.30318,5.705 -3.78906,6.49978c-0.98128,0.19057 -1.80518,-0.87176 -2.75333,-1.18837c-1.77633,-0.59317 -4.25764,-0.33678 -5.95545,0.41822c-1.30629,0.58089 -4.63013,3.16946 -6.07258,2.46477c-2.0269,-0.99024 -0.87729,-4.0808 -1.33238,-5.64605c-0.22752,-0.78254 -0.78836,-1.42828 -1.12816,-2.169c-1.22794,-2.67698 -2.14998,-2.20655 -5.07595,-2.21736c0,0 -0.71822,-0.00323 -1.28246,-0.44089z" fill="#bfecff" stroke="none" stroke-width="0.5"/></g><g stroke-linecap="butt"><path d="M459.52188,191.8071c-4.21433,-3.90646 -4.46392,-10.48967 -0.55747,-14.70401c3.90646,-4.21432 10.48966,-4.46392 14.70401,-0.55745c4.21433,3.90646 4.46392,10.48967 0.55745,14.70401c-3.90646,4.21432 -10.48966,4.46392 -14.70399,0.55745z" fill="url(#color-2)" stroke="#000000" stroke-width="1"/><path d="M475.91551,164.84718c-1.79558,2.78418 -3.36314,5.77574 -7.04825,6.38864c-1.18411,0.19695 -2.37992,-0.3158 -3.57089,-0.46573c-1.31743,-0.16585 -2.68418,-0.09427 -3.95424,-0.48164c-0.60395,-0.18419 -1.21206,-0.41624 -1.77599,-0.71885c-0.02628,0.87357 -0.18508,1.75457 -0.33376,2.61285c-0.59705,3.44629 -2.67248,7.63174 -5.54498,9.73499c-0.50057,0.36651 -1.24436,0.20173 -1.79753,0.48264c-0.12311,0.06251 0.20583,0.18431 0.31316,0.27116c1.13812,0.92091 2.45713,1.65182 3.42305,2.75202c2.95496,3.36568 2.73584,7.2045 2.60909,11.35424c-2.83618,2.87971 -0.19244,0.11258 0.39312,-0.09814c1.20281,-0.43281 2.5049,-0.60683 3.78304,-0.62915c4.39673,-0.0768 8.39355,1.97795 12.06043,4.24642c0.07621,-0.70965 0.19136,-1.42022 0.27283,-2.11356c0.45492,-3.87136 2.54727,-8.89933 4.47912,-12.32558c0.66534,-1.18002 1.36976,-2.36062 2.27894,-3.36485c0.30205,-0.33367 1.20791,-0.07746 1.24355,-0.52613c0.03174,-0.39954 -0.8426,0.00946 -1.18614,-0.19696c-0.92325,-0.55479 -1.85998,-1.17331 -2.51601,-2.02761c-0.6742,-0.87802 -3.03548,-5.62255 -3.2774,-7.13464c-0.22748,-1.42188 -0.24552,-5.39778 0.14886,-7.76013zM473.22742,160.83105c0.26421,-1.42692 1.82917,-1.85443 1.82917,-1.85443l1.78047,-0.39506c1.54706,0.32685 3.70017,-0.29017 4.64116,0.98055c0.96596,1.30443 -0.20998,3.23949 -0.3168,4.85911c-0.14942,2.26511 -0.79386,5.10507 -0.466,7.34531c0.09345,0.63839 2.18365,4.76588 2.19891,4.78561c1.58591,2.04836 4.46431,1.32909 4.83452,4.99888c0.14913,1.47817 -1.4067,2.61915 -2.18439,3.88502c-1.0063,1.63796 -2.09997,3.24604 -2.83404,5.02275c-1.10801,2.68173 -2.64726,5.48644 -3.01231,8.40433c-0.15135,1.20971 -0.21377,2.42633 -0.24194,3.64569l0.08716,-0.02519l0.87029,3.01098c0.22629,0.74946 0.09812,1.59354 -0.41882,2.25876c-0.84722,1.09023 -2.41782,1.28723 -3.50804,0.44001c-0.04476,-0.03479 -0.08803,-0.07081 -0.12977,-0.10794l-2.85925,-2.50461c-3.18997,-2.03595 -7.00212,-4.67308 -10.98693,-4.5316c-2.35097,0.08346 -7.00597,2.14786 -8.93057,0.52744c-1.33105,-1.12067 -0.21883,-3.4731 -0.32823,-5.20966c0.08873,-2.65517 0.55883,-5.57362 -1.44115,-7.71199c-2.58008,-2.75855 -6.33427,-3.62586 -4.35314,-8.56932c0.47505,-1.18539 2.18613,-1.33407 3.1827,-2.13261c1.86708,-1.49604 3.31041,-4.3373 3.67583,-6.68282c0.28115,-1.80462 -0.19555,-7.16562 1.56003,-8.226c2.46688,-1.49 4.98833,1.88462 6.98381,2.48018c0.99766,0.29777 2.07927,0.14291 3.10979,0.29118c3.7242,0.53591 3.85779,-0.77973 5.89597,-3.91324c0,0 0.50094,-0.76877 1.36157,-1.07136z" fill="#ffffff" stroke="none" stroke-width="0.5"/><path d="M473.52731,169.28219c-1.40548,2.17933 -2.63252,4.52098 -5.51709,5.00077c-0.92688,0.15416 -1.86289,-0.2472 -2.79514,-0.36456c-1.03122,-0.1298 -2.10104,-0.07379 -3.0952,-0.37699c-0.47273,-0.14417 -0.94876,-0.32583 -1.39016,-0.56269c-0.0206,0.68378 -0.14486,1.3734 -0.26125,2.04523c-0.46736,2.69762 -2.09191,5.9738 -4.34038,7.62015c-0.39181,0.28689 -0.97403,0.1579 -1.40702,0.37779c-0.09639,0.04895 0.1611,0.14428 0.24514,0.21224c0.89089,0.72086 1.92333,1.293 2.67943,2.15418c2.31301,2.63451 2.14149,5.63938 2.04228,8.88761c-2.22004,2.2541 -0.15064,0.08811 0.30771,-0.07682c0.94152,-0.33879 1.96072,-0.47497 2.96119,-0.49247c3.44156,-0.06011 6.57012,1.54824 9.44039,3.32395c0.05965,-0.55548 0.14979,-1.11168 0.21355,-1.65441c0.3561,-3.03033 1.99387,-6.96601 3.50606,-9.64794c0.52082,-0.92368 1.07223,-1.84777 1.78386,-2.63388c0.23646,-0.26117 0.94551,-0.06062 0.9734,-0.41182c0.02484,-0.31274 -0.65954,0.00742 -0.92845,-0.15417c-0.72267,-0.43424 -1.45593,-0.91842 -1.96942,-1.58712c-0.52773,-0.68726 -2.37605,-4.4011 -2.56542,-5.5847c-0.17806,-1.113 -0.19218,-4.22515 0.11652,-6.07431zM471.42319,166.13853c0.20681,-1.11694 1.43179,-1.45156 1.43179,-1.45156l1.39367,-0.30924c1.21096,0.25588 2.89634,-0.22712 3.6329,0.76755c0.75609,1.02105 -0.16437,2.53573 -0.24799,3.80349c-0.11695,1.77303 -0.62138,3.99602 -0.36476,5.74958c0.07314,0.49969 1.70927,3.73053 1.7212,3.74595c1.2414,1.60336 3.49445,1.04035 3.78425,3.9129c0.11673,1.15705 -1.10109,2.05017 -1.70983,3.04105c-0.78767,1.28213 -1.64377,2.54086 -2.21839,3.93159c-0.8673,2.09916 -2.07216,4.29455 -2.35793,6.57856c-0.11845,0.94691 -0.16734,1.89921 -0.18937,2.85371l0.06823,-0.01973l0.68124,2.35686c0.17715,0.58664 0.0768,1.24735 -0.32785,1.76806c-0.66318,0.85338 -1.89257,1.00758 -2.74594,0.34441c-0.03502,-0.02722 -0.06888,-0.05541 -0.10157,-0.08448l-2.2381,-1.9605c-2.49699,-1.59367 -5.48095,-3.65787 -8.6001,-3.54713c-1.84023,0.06533 -5.48398,1.68124 -6.99045,0.41287c-1.04187,-0.87721 -0.17129,-2.71858 -0.25692,-4.07789c0.06945,-2.07835 0.43742,-4.36279 -1.12807,-6.03661c-2.01957,-2.15929 -4.9582,-2.83818 -3.40745,-6.7077c0.37186,-0.92787 1.7112,-1.04425 2.49128,-1.66933c1.46147,-1.17104 2.59125,-3.39503 2.8773,-5.23102c0.2201,-1.41258 -0.15306,-5.60892 1.22112,-6.43898c1.93096,-1.16633 3.90467,1.47519 5.46662,1.94139c0.78091,0.23307 1.62757,0.11185 2.4342,0.22794c2.91513,0.41948 3.01974,-0.61035 4.6151,-3.06313c0,0 0.3921,-0.60177 1.06577,-0.83862z" fill="#bfecff" stroke="none" stroke-width="0.5"/></g></g></g></svg>