<svg version="1.1" xmlns="http://www.w3.org/2000/svg" xmlns:xlink="http://www.w3.org/1999/xlink" width="91.71577" height="80.5" viewBox="0,0,91.71577,80.5"><g transform="translate(-428.53424,-139.75001)"><g stroke-miterlimit="10"><g stroke-linecap="butt"><path d="M438.78113,167.52988c0.34367,0.59601 -1.50369,2.30502 -4.12618,3.81716c-2.6225,1.51213 -5.02705,2.25479 -5.37071,1.65877c-0.34367,-0.59601 1.50369,-2.30502 4.12618,-3.81716c2.6225,-1.51213 5.02705,-2.25479 5.37071,-1.65877z" fill="#daffff" stroke="#000000" stroke-width="1.5"/><path d="M438.90597,189.02776l-8.96058,-15.54038c0,0 2.83825,-1.4084 4.35284,-2.15995c1.00652,-0.49945 2.38819,-1.65648 3.31536,-2.48548c0.59601,-0.53291 1.00422,-0.93027 1.00422,-0.93027l9.49729,15.80612c0,0 18.49584,8.40205 18.24752,9.03519c-1.89855,4.84083 -28.81002,17.76222 -30.00744,18.45265c-0.4355,0.2511 2.55079,-22.17785 2.55079,-22.17785z" fill="#ffffff" stroke="#000000" stroke-width="1.5"/><path d="M439.4045,196.62736c0.04615,-0.00663 0.09082,-0.01125 0.13402,-0.014c1.0389,-0.6418 2.08959,-1.26605 2.71526,-2.39314c0.43077,-0.77598 0.19973,-1.94084 0.8775,-2.51385c1.90519,-1.61071 3.25758,1.03882 5.08614,0.55032c1.63676,-0.43728 2.23658,-2.34368 3.44277,-3.17551c0.9187,-0.63356 3.37665,-0.85763 4.50385,-0.96617c2.48971,-0.23976 2.79075,1.20466 4.78051,2.17857c1.48345,0.72609 3.25641,1.19232 4.7719,1.87324c-0.12381,0.86602 -4.91468,5.59159 -6.77646,6.6669c-4.84522,2.79847 -10.44328,5.25467 -15.29668,8.05315c-1.41268,0.81455 -4.0596,3.68537 -5.774,3.52179c-0.89264,-0.08517 -0.10605,-0.91952 -0.90057,-1.3352c0.1958,-3.82257 0.5571,-6.98044 1.54363,-10.63516c-0.0406,-0.09036 -0.06824,-0.17747 -0.08512,-0.26109l-0.06382,-0.15992c0,0 -0.17443,-1.21551 1.04107,-1.38994z" fill="#0042ff" stroke="none" stroke-width="0.5"/></g><path d="" fill="none" stroke="#000000" stroke-width="1.5" stroke-linecap="round"/><path d="M440.50001,180.00002c0,-21.81525 17.68475,-39.5 39.5,-39.5c21.81525,0 39.5,17.68475 39.5,39.5c0,21.81525 -17.68475,39.5 -39.5,39.5c-21.81525,0 -39.5,-17.68475 -39.5,-39.5z" fill="#ffffff" stroke="#000000" stroke-width="1.5" stroke-linecap="butt"/><path d="M518.19404,177.28503l-67.79204,-22.93869" fill="none" stroke="#000000" stroke-width="1.5" stroke-linecap="round"/><path d="M518.19404,172.16479l-61.64774,-22.11946" fill="none" stroke="#000000" stroke-width="1.5" stroke-linecap="round"/><path d="M516.14594,165.61086l-55.50345,-19.45693" fill="none" stroke="#000000" stroke-width="1.5" stroke-linecap="round"/><path d="M441.18556,175.03212l27.85413,-14.13187" fill="none" stroke="#000000" stroke-width="1.5" stroke-linecap="round"/><path d="M441.59518,179.94757l31.54071,-16.38478" fill="none" stroke="#000000" stroke-width="1.5" stroke-linecap="round"/><path d="M461.25692,158.85215l-18.8425,10.24049" fill="none" stroke="#000000" stroke-width="1.5" stroke-linecap="round"/><path d="M499.35153,146.76838l-13.92706,7.57796" fill="none" stroke="#000000" stroke-width="1.5" stroke-linecap="round"/><path d="M496.07457,144.31066l-14.95111,8.19239" fill="none" stroke="#000000" stroke-width="1.5" stroke-linecap="round"/><path d="M473.95512,150.04534l14.95111,-8.3972" fill="none" stroke="#000000" stroke-width="1.5" stroke-linecap="round"/><path d="M454.49819,160.49064l-7.16834,-2.25291" fill="none" stroke="#000000" stroke-width="1.5" stroke-linecap="round"/><path d="M518.80846,182.40528l-50.99763,-15.56554" fill="none" stroke="#000000" stroke-width="1.5" stroke-linecap="round"/><path d="M491.36395,153.11747l21.30022,6.55391" fill="none" stroke="#000000" stroke-width="1.5" stroke-linecap="round"/><path d="M465.35311,144.10584l11.87897,3.68658" fill="none" stroke="#000000" stroke-width="1.5" stroke-linecap="round"/><path d="M480.50903,145.53952l-9.83087,-3.48177" fill="none" stroke="#000000" stroke-width="1.5" stroke-linecap="round"/><path d="M508.77279,154.14153l-13.51745,-4.71062" fill="none" stroke="#000000" stroke-width="1.5" stroke-linecap="round"/><path d="M518.80847,184.45338l-77.62291,-3.27696" fill="none" stroke="#000000" stroke-width="1.5" stroke-linecap="round"/><path d="M518.19403,187.3207l-75.77962,-2.25291" fill="none" stroke="#000000" stroke-width="1.5" stroke-linecap="round"/><path d="M442.00479,189.98323l73.52671,1.84329" fill="none" stroke="#000000" stroke-width="1.5" stroke-linecap="round"/><path d="M444.66732,195.3083l70.24975,2.25291" fill="none" stroke="#000000" stroke-width="1.5" stroke-linecap="round"/><path d="M449.17314,203.09107l63.49103,-0.61443" fill="none" stroke="#000000" stroke-width="1.5" stroke-linecap="round"/><path d="M455.31743,210.05459l50.99763,-1.84329" fill="none" stroke="#000000" stroke-width="1.5" stroke-linecap="round"/><path d="M461.87134,215.17483l37.685,-1.84329" fill="none" stroke="#000000" stroke-width="1.5" stroke-linecap="round"/><path d="M519.78269,183.64407l-77.82901,-3.05775l25.93638,-13.33222z" fill-opacity="0.39608" fill="#15ff15" stroke="none" stroke-width="0" stroke-linecap="round"/><g stroke-linecap="butt"><path d="M505.88472,181.40576c-0.30576,0.61632 -2.75201,0.02532 -5.46384,-1.32005c-2.71183,-1.34538 -4.66233,-2.93564 -4.35656,-3.55196c0.30576,-0.61632 2.75201,-0.02532 5.46384,1.32005c2.71183,1.34538 4.66233,2.93564 4.35656,3.55196z" fill="#daffff" stroke="#000000" stroke-width="1.5"/><path d="M488.05733,193.42069l7.9724,-16.06973c0,0 2.74501,1.58246 4.20983,2.42692c0.97345,0.56118 2.70218,1.07034 3.90601,1.38288c0.77386,0.2009 1.33082,0.32057 1.33082,0.32057l-7.89626,16.66376c0,0 3.25317,20.05262 2.58851,20.19669c-5.0818,1.10158 -30.74903,-14.14253 -31.98723,-14.75682c-0.45033,-0.22342 19.8759,-10.16426 19.8759,-10.16426z" fill="#ffffff" stroke="#000000" stroke-width="1.5"/><path d="M482.00702,198.0463c0.03109,0.03475 0.05968,0.06937 0.08591,0.10381c1.10989,0.50927 2.21171,1.03808 3.49664,0.93447c0.88466,-0.07133 1.72637,-0.90906 2.57891,-0.66231c2.39646,0.69361 0.94008,3.28744 2.35987,4.53902c1.27088,1.12029 3.19025,0.56338 4.55103,1.10663c1.03644,0.41377 2.58481,2.33582 3.2997,3.21405c1.57903,1.9398 0.54337,2.99069 0.83505,5.18673c0.21746,1.63724 0.81165,3.37151 1.08446,5.01039c-0.78954,0.37675 -7.37789,-0.99333 -9.30459,-1.94744c-5.01419,-2.48304 -10.16056,-5.78245 -15.17929,-8.2723c-1.4608,-0.72472 -5.31724,-1.33764 -6.13093,-2.85548c-0.42367,-0.79029 0.70673,-0.59775 0.61256,-1.48948c3.2907,-1.95491 6.11974,-3.40377 9.70882,-4.60742c0.05273,-0.08386 0.10993,-0.15514 0.17019,-0.21552l0.09777,-0.14173c0,0 0.91524,-0.81867 1.73391,0.09657z" fill="#01ff00" stroke="none" stroke-width="0.5"/></g><path d="M470.25,174.23335c0,2.71283 -0.76732,7.60103 -0.76732,7.60103l-3.70277,-0.27441c0,0 -0.69658,-4.75149 -0.69658,-7.32662c0,-1.79196 0.35159,-5.58051 0.35159,-5.58051l1.96673,-1.75591l2.52143,1.58546c0,0 0.32691,4.02602 0.32691,5.75095z" fill-opacity="0.39608" fill="#005200" stroke="none" stroke-width="0" stroke-linecap="butt"/><path d="M481.41667,174.73335c0,2.71283 -0.76732,7.60103 -0.76732,7.60103l-3.70276,-0.27441c0,0 -0.69658,-4.7515 -0.69658,-7.32662c0,-1.79196 0.35159,-4.41384 0.35159,-4.41384l4.48816,1.32955c0,0 0.32691,1.35935 0.32691,3.08428z" fill-opacity="0.39608" fill="#005200" stroke="none" stroke-width="0" stroke-linecap="butt"/></g></g></svg>