<svg version="1.1" xmlns="http://www.w3.org/2000/svg" xmlns:xlink="http://www.w3.org/1999/xlink" width="103.33839" height="137.71653" viewBox="0,0,103.33839,137.71653"><g transform="translate(-198.43372,-83.15417)"><g data-paper-data="{&quot;isPaintingLayer&quot;:true}" fill-rule="nonzero" stroke-linejoin="miter" stroke-miterlimit="10" stroke-dasharray="" stroke-dashoffset="0" style="mix-blend-mode: normal"><path d="M280.85909,149.03299c0,-5.6369 4.56962,-10.20651 10.20652,-10.20651c5.6369,0 10.20651,4.56961 10.20651,10.20651c0,5.6369 -4.56961,10.20651 -10.20651,10.20651c-5.6369,0 -10.20652,-4.56961 -10.20652,-10.20651z" fill="#d8d8d8" stroke="#000000" stroke-width="1" stroke-linecap="butt"></path><path d="" data-paper-data="{&quot;index&quot;:null}" fill="none" stroke="#000000" stroke-width="1.5" stroke-linecap="round"></path><path d="" data-paper-data="{&quot;index&quot;:null}" fill="none" stroke="#000000" stroke-width="1.5" stroke-linecap="round"></path><path d="M301.68768,195.47554" data-paper-data="{&quot;index&quot;:null}" fill="none" stroke="#d8d8d8" stroke-width="4" stroke-linecap="round"></path><path d="M199.18372,180.6207c0,-21.81525 17.68475,-39.5 39.5,-39.5c21.81525,0 39.5,17.68475 39.5,39.5c0,21.81525 -17.68475,39.5 -39.5,39.5c-21.81525,0 -39.5,-17.68475 -39.5,-39.5z" data-paper-data="{&quot;index&quot;:null}" fill="#d8d8d8" stroke="#000000" stroke-width="1.5" stroke-linecap="butt"></path><path d="M254.35771,169.6083l-11.07275,4.59202" data-paper-data="{&quot;index&quot;:null}" fill="none" stroke="#000000" stroke-width="1.5" stroke-linecap="round"></path><path d="M249.19657,173.09156l-0.25511,5.86758" data-paper-data="{&quot;index&quot;:null}" fill="none" stroke="#000000" stroke-width="1.5" stroke-linecap="round"></path><path d="M239.9685,174.57761l-14.45771,-4.12252" data-paper-data="{&quot;index&quot;:null}" fill="none" stroke="#000000" stroke-width="1.5" stroke-linecap="round"></path><path d="M234.44135,178.41109l-0.21988,-5.35892" data-paper-data="{&quot;index&quot;:null}" fill="none" stroke="#000000" stroke-width="1.5" stroke-linecap="round"></path><path d="M252.45108,192.12344l-18.63798,-0.59168" fill="none" stroke="#000000" stroke-width="1.5" stroke-linecap="round"></path><g stroke="#000000" stroke-linecap="butt"><g data-paper-data="{&quot;index&quot;:null}"><path d="M240.5334,180.60548l-8.43838,19.86602c0,0 -3.36486,2.24286 -4.3447,1.75873c-0.98161,-0.48501 -1.5396,-4.66615 -1.5396,-4.66615l8.43838,-19.86602z" fill="#af5400" stroke-width="1.5"></path><path d="M249.64924,180.26342c0,0 -0.60221,5.77537 -3.40662,7.11186c-3.2853,1.56567 -8.24365,-0.94968 -11.55562,-2.48246c-6.13918,-2.8411 -10.27634,-7.50819 -9.24065,-10.42422c0.48124,-1.35492 3.3126,-4.97107 3.3126,-4.97107c0,0 6.39206,3.31441 9.67871,4.83544c6.13917,2.8411 11.21156,5.93044 11.21156,5.93044z" fill="#989898" stroke-width="1"></path><path d="M250.10461,180.23627c-1.03573,2.91601 -6.85212,2.97674 -12.99133,0.13563c-6.13917,-2.84112 -10.27637,-7.50818 -9.24065,-10.42419c1.03572,-2.91602 6.85215,-2.97675 12.99131,-0.13565c6.13917,2.84112 10.27637,7.50819 9.24065,10.42419z" fill="#989898" stroke-width="1"></path><path d="M235.72716,174.56861l41.0181,-90.18692l-0.40985,14.99174l-35.45628,77.95819c0,0 -2.2124,0.82328 -3.06075,0.36825c-0.86843,-0.46576 -2.09121,-3.13129 -2.09121,-3.13129z" fill="#e6e6e6" stroke-width="0.5"></path></g><path d="M223.96309,205.76454c-5.03435,-2.53572 -7.05991,-8.67248 -4.52419,-13.70684c2.53572,-5.03435 8.67248,-7.05991 13.70684,-4.52419c5.03435,2.53572 7.05991,8.67248 4.52419,13.70684c-2.53572,5.03435 -8.67248,7.05991 -13.70684,4.52419z" fill="#d8d8d8" stroke-width="1"></path></g></g></g></svg>