<svg version="1.1" xmlns="http://www.w3.org/2000/svg" xmlns:xlink="http://www.w3.org/1999/xlink" width="108.09341" height="80.5" viewBox="0,0,108.09341,80.5"><g transform="translate(-192.15179,-140.44476)"><g data-paper-data="{&quot;isPaintingLayer&quot;:true}" fill-rule="nonzero" stroke-linejoin="miter" stroke-miterlimit="10" stroke-dasharray="" stroke-dashoffset="0" style="mix-blend-mode: normal"><path d="" data-paper-data="{&quot;index&quot;:null}" fill="none" stroke="#000000" stroke-width="1.5" stroke-linecap="round"></path><path d="" data-paper-data="{&quot;index&quot;:null}" fill="none" stroke="#000000" stroke-width="1.5" stroke-linecap="round"></path><path d="M220.49519,180.69476c0,-21.81525 17.68475,-39.5 39.5,-39.5c21.81525,0 39.5,17.68475 39.5,39.5c0,21.81525 -17.68475,39.5 -39.5,39.5c-21.81525,0 -39.5,-17.68475 -39.5,-39.5z" fill="#d8d8d8" stroke="#000000" stroke-width="1.5" stroke-linecap="butt"></path><path d="M246.51675,197.3165c5.44898,-2.88817 27.57511,5.13694 27.57511,5.13694" data-paper-data="{&quot;index&quot;:null}" fill="none" stroke="#000000" stroke-width="1.5" stroke-linecap="round"></path><path d="M246.31865,168.12134l6.99536,1.82343v8" fill="none" stroke="#000000" stroke-width="1.5" stroke-linecap="round"></path><path d="M258.87633,178.50558l-0.24149,-8.93527l7.00332,-2.17344" fill="none" stroke="#000000" stroke-width="1.5" stroke-linecap="round"></path><path d="M259.60082,188.64832l16.42158,-6.52033" fill="none" stroke="#000000" stroke-width="1.5" stroke-linecap="round"></path><path d="M265.63817,188.16533l-2.89793,-5.55436" fill="none" stroke="#000000" stroke-width="1.5" stroke-linecap="round"></path><path d="M267.32862,180.43753l3.8639,7.7278" fill="none" stroke="#000000" stroke-width="1.5" stroke-linecap="round"></path><g><path d="M216.78548,190.85103l-10.04834,4.53519l-12.58146,-6.32388l14.40076,-4.4334z" data-paper-data="{&quot;index&quot;:null}" fill="#c6c6c6" stroke="#c6c6c6" stroke-width="1.5" stroke-linecap="round"></path><path d="M259.64455,182.82673" fill="none" stroke="#d8d8d8" stroke-width="4" stroke-linecap="round"></path><path d="M282.86175,198.9839l-56.20326,-4.82994l0.33312,-3.87608l56.20326,4.82994z" fill="#7f7600" stroke="#000000" stroke-width="0" stroke-linecap="butt"></path><path d="M214.83784,191.88369c-1.8426,-1.52538 -0.35172,-3.44022 -0.35172,-3.44022l2.70096,-2.60721c2.98123,-0.74089 6.02163,-0.68789 8.93146,-1.6427c1.20608,-0.39575 2.35348,-1.62649 3.57978,-1.29873c1.88673,0.50426 4.27824,1.60071 4.6915,3.50943c0.3413,1.57636 -2.40211,2.24945 -3.13336,3.68702c-0.38512,0.75711 0.35,1.7925 -0.03822,2.54802c-0.29117,0.56668 -1.68243,0.21748 -1.70993,0.85399c-0.04244,0.98289 2.05337,1.64842 1.56491,2.50242c-3.29172,5.75492 -11.08399,1.46622 -15.21344,-0.17034c0,0 -2.32392,-0.92162 -1.40228,-3.24552c0.10918,-0.27528 0.23801,-0.50502 0.38033,-0.69615z" fill="#ff0000" stroke="none" stroke-width="0.5" stroke-linecap="butt"></path></g></g></g></svg>