<svg version="1.1" xmlns="http://www.w3.org/2000/svg" xmlns:xlink="http://www.w3.org/1999/xlink" width="80.81693" height="82.03842" viewBox="0,0,80.81693,82.03842"><g transform="translate(-439.63808,-139.74258)"><g stroke-miterlimit="10"><g><path d="M441.37153,172.48533c4.1502,-21.27617 24.76235,-35.15954 46.03856,-31.0093c21.27617,4.1502 35.15954,24.76235 31.0093,46.03856c-4.1502,21.27617 -24.76235,35.15954 -46.03856,31.0093c-21.27617,-4.1502 -35.15954,-24.76235 -31.0093,-46.03856z" fill="#c6c6c6" stroke="#00144d" stroke-width="2" stroke-linecap="butt"/><path d="M442.71974,168.30002c0,0 1.56748,-4.48046 2.82022,-6.49583c1.49273,-2.40147 5.54303,-6.95877 5.54303,-6.95877l33.06229,7.92996l-3.45186,14.39182z" fill="#ffffff" stroke="#001e6f" stroke-width="2" stroke-linecap="butt"/><path d="M472.70783,174.22517l3.13375,-12.49321l7.26886,1.7333l-3.13375,12.49321z" fill-opacity="0.35294" fill="#0015ff" stroke="none" stroke-width="0" stroke-linecap="butt"/><path d="M465.28002,172.60413l3.13375,-12.49321l7.26886,1.73329l-3.13375,12.49321z" fill-opacity="0.45098" fill="#0015ff" stroke="none" stroke-width="0" stroke-linecap="butt"/><path d="M457.69326,170.74913l3.13375,-12.49321l7.26886,1.7333l-3.13375,12.49321z" fill-opacity="0.61961" fill="#0015ff" stroke="none" stroke-width="0" stroke-linecap="butt"/><path d="M449.98952,168.97362l3.13375,-12.49321l7.26886,1.73329l-3.13375,12.49321z" fill-opacity="0.70196" fill="#0015ff" stroke="none" stroke-width="0" stroke-linecap="butt"/><path d="M443.93691,167.615c0,0 1.90927,-4.62304 3.18485,-6.64279c1.21967,-1.93124 4.3084,-5.22211 4.3084,-5.22211l1.17874,0.57113l-3.13375,12.49321z" fill-opacity="0.9098" fill="#0015ff" stroke="none" stroke-width="0" stroke-linecap="butt"/><path d="M442.97785,173.2548l30.59522,19.72344l12.76522,-15.32326l3.60102,17.88082l28.08909,-7.42192c0,0 -0.88575,4.59804 -3.41741,9.50214c-2.906,5.62922 -7.72321,11.81861 -11.52794,14.55943c-3.31768,2.38995 -9.59519,5.286 -15.35407,6.19912c-6.06569,0.96177 -11.68137,0.64012 -11.68137,0.64012c0,0 -7.21393,-1.41105 -14.40377,-4.84829c-5.64854,-2.7004 -11.06466,-7.79136 -13.58692,-11.12604c-3.0349,-4.01246 -6.79375,-12.67536 -7.60498,-19.54822c-0.72112,-6.10954 1.34493,-10.71722 1.34493,-10.71722z" fill-opacity="0.25098" fill="#172aff" stroke="#00144d" stroke-width="1.5" stroke-linecap="round"/><path d="M501.85808,192.0397l-13.32405,-49.63495l9.34928,3.1191l11.9693,44.28619z" fill="#00f2ff" stroke="#00144d" stroke-width="1.5" stroke-linecap="butt"/><path d="M492.57491,171.7445c1.15601,-6.05787 7.00402,-10.0316 13.06189,-8.87559c6.05787,1.15601 10.0316,7.00402 8.87559,13.06189c-1.15601,6.05787 -7.00402,10.0316 -13.06189,8.87559c-6.05787,-1.15601 -10.0316,-7.00402 -8.87559,-13.06189z" fill="#00cdff" stroke="#00144d" stroke-width="1.5" stroke-linecap="butt"/><path d="M490.04649,148.24288l7.99398,-0.39749" fill="none" stroke="#00144d" stroke-width="1.5" stroke-linecap="round"/><path d="M499.25525,152.14938l-7.55741,0.48081" fill="none" stroke="#00144d" stroke-width="1.5" stroke-linecap="round"/><path d="M492.89677,157.60985l7.53158,-0.9382" fill="none" stroke="#00144d" stroke-width="1.5" stroke-linecap="round"/><path d="M494.79723,163.06273l6.74175,-1.54138" fill="none" stroke="#00144d" stroke-width="1.5" stroke-linecap="round"/><path d="M501.90418,188.0602l6.65845,-1.10481" fill="none" stroke="#00144d" stroke-width="1.5" stroke-linecap="round"/></g><path d="M490.4892,195.43833l-9.0261,2.93884l-7.88586,-5.60055l12.54027,-14.14453z" fill-opacity="0.31373" fill="#006bff" stroke="#00144d" stroke-width="1.5" stroke-linecap="round"/><path d="M444.93314,197.783c0,0 9.77524,-5.2246 13.41302,-1.42004c3.63778,3.80457 1.09151,16.58956 1.09151,16.58956c0,0 -6.29647,-3.58694 -8.79504,-6.20006c-2.32354,-2.43008 -5.70949,-8.96946 -5.70949,-8.96946z" fill-opacity="0.2" fill="#00ff15" stroke="#00144d" stroke-width="1.5" stroke-linecap="round"/><path d="M501.56706,212.82197c-3.03631,1.96268 -9.9928,3.99217 -9.9928,3.99217c0,0 0.48707,-13.02699 4.90776,-15.88455c4.42069,-2.85756 12.71839,4.49091 12.71839,4.49091c0,0 -4.80973,5.57626 -7.63335,7.40146z" fill-opacity="0.2" fill="#00ff15" stroke="#00144d" stroke-width="1.5" stroke-linecap="round"/><g stroke="#00144d"><path d="M459.98725,203.03127c0.67088,-4.88464 5.17452,-8.30056 10.05915,-7.62968c4.88464,0.67088 8.30056,5.17452 7.62968,10.05915c-0.67088,4.88464 -5.17452,8.30056 -10.05915,7.62968c-4.88464,-0.67088 -8.30056,-5.17452 -7.62968,-10.05915z" fill="none" stroke-width="2.5" stroke-linecap="butt"/><path d="M466.19421,199.91944l0.55305,-4.02673l45.44449,6.24157l-0.55305,4.02673z" fill="#4d5995" stroke-width="1.5" stroke-linecap="butt"/><path d="M468.87461,196.99894l1.26411,-9.20395l49.47121,6.79461l-1.26411,9.20395z" fill="#6b7ccf" stroke-width="1.5" stroke-linecap="butt"/><path d="M449.27447,208.27481l13.69239,-20.53039l3.62301,2.41631l-13.69239,20.53039z" fill-opacity="0.25098" fill="#172aff" stroke-width="1.5" stroke-linecap="butt"/><path d="M460.84023,214.72983l6.03428,-24.41657l4.12071,0.8609l-6.31879,24.47432z" fill-opacity="0.44314" fill="#172aff" stroke-width="1.5" stroke-linecap="butt"/><path d="M458.04873,220.77286l-8.62005,-3.38179l15.57624,-23.79551z" fill-opacity="0.8549" fill="#006ace" stroke-width="1.5" stroke-linecap="round"/><path d="M471.50857,202.83256l-10.303,-12.41173l1.79801,15.12651c0,0 -10.32509,-6.43659 -9.49058,-12.51261c0.83452,-6.07601 6.43659,-10.32509 12.51261,-9.49058c6.07601,0.83452 5.48296,19.2884 5.48296,19.2884z" fill="#6cbbcf" stroke-width="1.5" stroke-linecap="butt"/><path d="M456.28107,187.3423l10.30299,12.41173l-1.79801,-15.12651c0,0 10.32509,6.43659 9.49058,12.51261c-0.83452,6.07601 -6.43659,10.32509 -12.51261,9.49058c-6.07601,-0.83452 -5.48296,-19.2884 -5.48296,-19.2884z" fill="#6cbbcf" stroke-width="1.5" stroke-linecap="butt"/><path d="M461.00348,193.92515c0.23999,-1.74734 1.85104,-2.96931 3.59839,-2.72932c1.74734,0.23999 2.96931,1.85104 2.72932,3.59839c-0.23999,1.74734 -1.85104,2.96931 -3.59839,2.72932c-1.74734,-0.23999 -2.96931,-1.85104 -2.72932,-3.59839z" fill="#6b73cf" stroke-width="1.5" stroke-linecap="butt"/></g></g></g></svg>