<svg version="1.1" xmlns="http://www.w3.org/2000/svg" xmlns:xlink="http://www.w3.org/1999/xlink" width="80.5" height="103.15235" viewBox="0,0,80.5,103.15235"><g transform="translate(-198.73851,-115.27159)"><g data-paper-data="{&quot;isPaintingLayer&quot;:true}" fill-rule="nonzero" stroke-linejoin="miter" stroke-miterlimit="10" stroke-dasharray="" stroke-dashoffset="0" style="mix-blend-mode: normal"><path d="" data-paper-data="{&quot;index&quot;:null}" fill="none" stroke="#000000" stroke-width="1.5" stroke-linecap="round"></path><path d="" data-paper-data="{&quot;index&quot;:null}" fill="none" stroke="#000000" stroke-width="1.5" stroke-linecap="round"></path><path d="M199.48851,178.17395c0,-21.81525 17.68475,-39.5 39.5,-39.5c21.81525,0 39.5,17.68475 39.5,39.5c0,21.81525 -17.68475,39.5 -39.5,39.5c-21.81525,0 -39.5,-17.68475 -39.5,-39.5z" fill="#d8d8d8" stroke="#000000" stroke-width="1.5" stroke-linecap="butt"></path><path d="M248.51132,198.65627l-25.62407,-5.40809c6.59608,-7.87072 28.99925,-0.60801 28.99925,-0.60801z" data-paper-data="{&quot;index&quot;:null}" fill="#000000" stroke="#000000" stroke-width="1.5" stroke-linecap="round"></path><path d="M223.76444,158.89457l6.99536,1.82343v8" fill="none" stroke="#000000" stroke-width="1.5" stroke-linecap="round"></path><path d="M237.86965,170.31049l-0.24149,-8.93527l7.00332,-2.17344" fill="none" stroke="#000000" stroke-width="1.5" stroke-linecap="round"></path><path d="M255.01572,179.60718l-16.42158,6.52033" fill="none" stroke="#000000" stroke-width="1.5" stroke-linecap="round"></path><path d="M244.63149,185.64452l-2.89793,-5.55436" fill="none" stroke="#000000" stroke-width="1.5" stroke-linecap="round"></path><path d="M246.32194,177.91672l3.8639,7.7278" fill="none" stroke="#000000" stroke-width="1.5" stroke-linecap="round"></path><g><path d="M249.20625,157.59406l8.6966,1.5752l4.73791,12.0801l-11.40462,-3.99751z" data-paper-data="{&quot;index&quot;:null}" fill="#c6c6c6" stroke="#c6c6c6" stroke-width="1.5" stroke-linecap="round"></path><path d="M217.91392,141.34261" fill="none" stroke="#d8d8d8" stroke-width="4" stroke-linecap="round"></path><path d="M211.47054,115.27159l33.16725,34.24057l-2.19768,3.08543l-33.16725,-34.24057z" fill="#7f7600" stroke="#000000" stroke-width="0" stroke-linecap="butt"></path><path d="M250.9706,157.77003c0.38679,2.27382 -1.54001,3.086 -1.54001,3.086l-3.04902,0.7456c-2.2703,-0.97656 -4.1713,-2.65345 -6.50596,-3.4115c-0.96769,-0.31421 -2.32605,0.10628 -2.93578,-0.8281c-0.93807,-1.43757 -1.8928,-3.64481 -1.17668,-5.47411c0.59141,-1.51075 2.67617,-0.60481 3.87665,-1.42287c0.63226,-0.43084 0.69667,-1.69744 1.33006,-2.12528c0.47508,-0.3209 1.17841,0.72007 1.52205,0.19879c0.53065,-0.80495 -0.45741,-2.49058 0.29002,-2.94753c5.03683,-3.07931 7.78058,4.71572 9.56063,8.31088c0,0 1.00145,2.02375 -0.77399,3.48605c-0.21031,0.17322 -0.40976,0.29752 -0.59796,0.38205z" fill="#ff0000" stroke="none" stroke-width="0.5" stroke-linecap="butt"></path></g></g></g></svg>