<svg version="1.1" xmlns="http://www.w3.org/2000/svg" xmlns:xlink="http://www.w3.org/1999/xlink" width="158.43516" height="80.5" viewBox="0,0,158.43516,80.5"><defs><radialGradient cx="417.91163" cy="176.51524" r="10.40477" gradientUnits="userSpaceOnUse" id="color-1"><stop offset="0" stop-color="#ffffff"/><stop offset="1" stop-color="#f3fffe"/></radialGradient><radialGradient cx="535.55169" cy="179.02545" r="10.40477" gradientUnits="userSpaceOnUse" id="color-2"><stop offset="0" stop-color="#ffffff"/><stop offset="1" stop-color="#f3fffe"/></radialGradient></defs><g transform="translate(-397.68076,-137.92397)"><g stroke-miterlimit="10"><path d="M407.50687,176.51524c0,-5.74639 4.65837,-10.40477 10.40477,-10.40477c5.74639,0 10.40477,4.65837 10.40477,10.40477c0,5.74639 -4.65837,10.40477 -10.40477,10.40477c-5.74639,0 -10.40477,-4.65837 -10.40477,-10.40477z" fill="url(#color-1)" stroke="#000000" stroke-width="1" stroke-linecap="butt"/><path d="" fill="none" stroke="#000000" stroke-width="1.5" stroke-linecap="round"/><path d="" fill="none" stroke="#000000" stroke-width="1.5" stroke-linecap="round"/><path d="M439.48854,178.17397c0,-21.81525 17.68475,-39.5 39.5,-39.5c21.81525,0 39.5,17.68475 39.5,39.5c0,21.81525 -17.68475,39.5 -39.5,39.5c-21.81525,0 -39.5,-17.68475 -39.5,-39.5z" fill="#ffffff" stroke="#000000" stroke-width="1.5" stroke-linecap="butt"/><path d="M472.79024,167.28627c0,1.80048 -0.36489,3.26006 -0.81501,3.26006c-0.45012,0 -0.81502,-1.45958 -0.81502,-3.26006c0,-1.80048 0.3649,-3.26006 0.81502,-3.26006c0.45012,0 0.81501,1.45958 0.81501,3.26006z" fill="none" stroke="#000000" stroke-width="1.5" stroke-linecap="butt"/><path d="M479.10661,167.38815c0,1.85674 -0.3649,3.36194 -0.81502,3.36194c-0.45012,0 -0.81501,-1.5052 -0.81501,-3.36194c0,-1.85674 0.36489,-3.36193 0.81501,-3.36193c0.45012,0 0.81502,1.50519 0.81502,3.36193z" fill="none" stroke="#000000" stroke-width="1.5" stroke-linecap="butt"/><path d="M483.51684,192.16256c0,0 -5.0993,0.9633 -8.57383,1.0335c-3.23174,0.06529 -8.54149,-1.84852 -8.54149,-1.84852" fill="none" stroke="#000000" stroke-width="1.5" stroke-linecap="round"/><path d="M478.01549,180.95609c0,1.91302 -1.7369,3.46381 -3.87947,3.46381c-2.14257,0 -3.87948,-1.5508 -3.87948,-3.46381c0,-1.91302 1.7369,-3.46382 3.87948,-3.46382c2.14257,0 3.87947,1.5508 3.87947,3.46382z" fill="#ff6900" stroke="#000000" stroke-width="0" stroke-linecap="butt"/><path d="M525.14693,179.02545c0,-5.74639 4.65837,-10.40477 10.40477,-10.40477c5.74639,0 10.40477,4.65837 10.40477,10.40477c0,5.74639 -4.65837,10.40477 -10.40477,10.40477c-5.74639,0 -10.40477,-4.65837 -10.40477,-10.40477z" fill="url(#color-2)" stroke="#000000" stroke-width="1" stroke-linecap="butt"/><path d="M420.20641,156.06667c-0.86697,3.19752 -1.45376,6.52352 -4.77959,8.22486c-1.06867,0.54667 -2.36365,0.4206 -3.54403,0.6388c-1.3057,0.24137 -2.58642,0.72396 -3.91415,0.73989c-0.63137,0.00758 -1.28121,-0.02919 -1.91033,-0.14657c0.2398,0.84042 0.35559,1.7281 0.47411,2.59107c0.4759,3.46511 -0.2329,8.08279 -2.33253,10.95793c-0.36589,0.50102 -1.12465,0.56951 -1.5666,1.0049c-0.09837,0.0969 0.25202,0.11321 0.38064,0.16344c1.36376,0.53252 2.84228,0.82914 4.0963,1.58469c3.83629,2.31138 4.79135,6.03594 5.92868,10.0288c-1.82963,3.60404 -0.14925,0.16562 0.34487,-0.2127c1.01499,-0.77712 2.20302,-1.3377 3.41423,-1.74648c4.1665,-1.40619 8.59816,-0.65992 12.78022,0.39007c-0.14253,-0.69935 -0.24823,-1.41138 -0.3808,-2.0968c-0.74021,-3.82706 -0.27074,-9.25273 0.53141,-13.10344c0.27626,-1.32619 0.58962,-2.66479 1.15152,-3.89742c0.18668,-0.40955 1.12758,-0.44003 1.0255,-0.87838c-0.0909,-0.39035 -0.80006,0.26448 -1.19002,0.17192c-1.04799,-0.24875 -2.12817,-0.55416 -3.01231,-1.16937c-0.90867,-0.63228 -4.59727,-4.43763 -5.28624,-5.8052c-0.64787,-1.28599 -1.87046,-5.06929 -2.21086,-7.44002zM416.42724,153.05454c-0.18083,-1.43986 1.18085,-2.32171 1.18085,-2.32171l1.57689,-0.91628c1.57333,-0.15757 3.43805,-1.39833 4.72001,-0.47271c1.31596,0.95017 0.78206,3.15067 1.17129,4.72644c0.54435,2.2038 0.79127,5.10547 1.78289,7.14085c0.28258,0.58001 3.52579,3.87953 3.54632,3.89369c2.1323,1.47112 4.65713,-0.08696 6.12254,3.29786c0.59026,1.36338 -0.5464,2.92236 -0.9037,4.36443c-0.46233,1.86596 -1.017,3.72994 -1.17786,5.64558c-0.2428,2.89143 -0.85928,6.03082 -0.3225,8.92206c0.22254,1.19865 0.5319,2.37694 0.87476,3.54747l0.07541,-0.05043l1.74221,2.6054c0.44286,0.64558 0.57663,1.48879 0.28569,2.27943c-0.4768,1.29577 -1.91376,1.95967 -3.20953,1.48287c-0.0532,-0.01958 -0.10534,-0.04078 -0.15638,-0.06351l-3.48402,-1.51986c-3.65709,-0.97298 -8.08934,-2.33022 -11.8437,-0.98728c-2.21501,0.79231 -6.02504,4.17085 -8.35031,3.21019c-1.60816,-0.66438 -1.2615,-3.24328 -1.89225,-4.86493c-0.72045,-2.55711 -1.15728,-5.48072 -3.71146,-6.91208c-3.29498,-1.84649 -7.13543,-1.53477 -6.7463,-6.84621c0.09331,-1.27363 1.67877,-1.93407 2.38634,-2.99717c1.32562,-1.99169 1.83961,-5.1368 1.47673,-7.48272c-0.2792,-1.80492 -2.35882,-6.76907 -1.00737,-8.31181c1.89901,-2.1678 5.32494,0.28354 7.40706,0.2461c1.04097,-0.01872 2.02473,-0.49422 3.05171,-0.66535c3.71139,-0.61843 3.43983,-1.91264 4.43203,-5.51661c0,0 0.24426,-0.88446 0.97266,-1.43374z" fill="#ffffff" stroke="none" stroke-width="0.5" stroke-linecap="butt"/><path d="M419.27522,161.01699c-0.67862,2.50288 -1.13794,5.10633 -3.74126,6.43807c-0.83651,0.42792 -1.85017,0.32923 -2.77411,0.50003c-1.02204,0.18894 -2.02453,0.56668 -3.06382,0.57916c-0.49421,0.00593 -1.00288,-0.02285 -1.49532,-0.11473c0.1877,0.65785 0.27834,1.35268 0.37112,2.02817c0.37252,2.71234 -0.18231,6.32687 -1.82581,8.5774c-0.2864,0.39218 -0.88032,0.44579 -1.22627,0.7866c-0.077,0.07586 0.19727,0.08863 0.29795,0.12793c1.0675,0.41683 2.22481,0.64902 3.20641,1.24043c3.00288,1.80925 3.75047,4.72468 4.64072,7.85011c-1.43215,2.82108 -0.11683,0.12964 0.26995,-0.1665c0.79449,-0.6083 1.72443,-1.04708 2.67251,-1.36706c3.26136,-1.1007 6.73027,-0.51656 10.00381,0.30533c-0.11156,-0.54742 -0.1943,-1.10477 -0.29808,-1.64129c-0.57941,-2.99566 -0.21193,-7.24264 0.41596,-10.25681c0.21625,-1.03809 0.46154,-2.08588 0.90136,-3.05073c0.14614,-0.32058 0.88262,-0.34443 0.80272,-0.68756c-0.07115,-0.30555 -0.62625,0.20703 -0.93149,0.13458c-0.82032,-0.19471 -1.66584,-0.43378 -2.3579,-0.91533c-0.71127,-0.49492 -3.59855,-3.47359 -4.13785,-4.54406c-0.50713,-1.00663 -1.46412,-3.96802 -1.73057,-5.82373zM416.31705,158.65922c-0.14155,-1.12706 0.92431,-1.81734 0.92431,-1.81734l1.23432,-0.71722c1.23155,-0.12333 2.69115,-1.09455 3.69462,-0.37001c1.03008,0.74375 0.61216,2.4662 0.91683,3.69965c0.4261,1.72504 0.61938,3.99634 1.39557,5.58955c0.22119,0.454 2.75984,3.03672 2.7759,3.04781c1.66908,1.15153 3.6454,-0.06806 4.79246,2.58142c0.46203,1.0672 -0.4277,2.28751 -0.70737,3.41629c-0.36188,1.46059 -0.79606,2.91964 -0.92198,4.41912c-0.19005,2.2633 -0.67261,4.72066 -0.25244,6.98381c0.1742,0.93826 0.41634,1.86056 0.68472,2.77681l0.05903,-0.03947l1.36373,2.03939c0.34666,0.50533 0.45136,1.16536 0.22363,1.78424c-0.37322,1.01427 -1.49801,1.53395 -2.51228,1.16072c-0.04164,-0.01532 -0.08245,-0.03192 -0.1224,-0.04971l-2.72714,-1.18968c-2.86262,-0.76161 -6.33199,-1.82399 -9.27074,-0.7728c-1.73381,0.62018 -4.71614,3.26476 -6.53627,2.51281c-1.25879,-0.52005 -0.98745,-2.5387 -1.48117,-3.80806c-0.56394,-2.00159 -0.90588,-4.29007 -2.90517,-5.41048c-2.57917,-1.44536 -5.58531,-1.20135 -5.28072,-5.35891c0.07304,-0.99695 1.31406,-1.51391 1.86792,-2.34607c1.03763,-1.559 1.43997,-4.02085 1.15592,-5.85715c-0.21854,-1.41282 -1.84638,-5.29853 -0.78853,-6.50613c1.48646,-1.69686 4.16814,0.22195 5.79792,0.19263c0.81482,-0.01466 1.58487,-0.38685 2.38874,-0.5208c2.90511,-0.48408 2.69255,-1.49713 3.46921,-4.31817c0,0 0.19119,-0.69232 0.76136,-1.12227z" fill="#bfecff" stroke="none" stroke-width="0.5" stroke-linecap="butt"/><path d="M543.91917,159.80384c-1.73324,2.8234 -3.23389,5.84907 -6.90447,6.5438c-1.17944,0.22322 -2.38635,-0.26282 -3.58037,-0.38623c-1.32078,-0.13652 -2.68561,-0.03456 -3.96397,-0.39358c-0.60791,-0.17073 -1.22101,-0.38921 -1.79152,-0.67918c-0.00686,0.87393 -0.14602,1.75825 -0.27559,2.61962c-0.52028,3.45872 -2.50214,7.68928 -5.32716,9.85587c-0.49229,0.37755 -1.23958,0.22934 -1.78636,0.52249c-0.12169,0.06525 0.20988,0.17968 0.31912,0.26412c1.15832,0.89539 2.49324,1.5968 3.48338,2.67523c3.02906,3.29915 2.89537,7.14189 2.86089,11.29341c-2.77146,2.94205 -0.18989,0.11682 0.39084,-0.10685c1.19291,-0.45946 2.49077,-0.66235 3.7681,-0.7131c4.39393,-0.17454 8.43545,1.79082 12.15186,3.97723c0.06041,-0.71116 0.15973,-1.42411 0.22577,-2.11911c0.36873,-3.8805 2.34876,-8.95375 4.20396,-12.42213c0.63893,-1.19451 1.31696,-2.39047 2.20356,-3.4147c0.29458,-0.3403 1.20589,-0.10429 1.23153,-0.55365c0.02283,-0.40014 -0.84217,0.0282 -1.19022,-0.17054c-0.93535,-0.5341 -1.88563,-1.13165 -2.56045,-1.97116c-0.69356,-0.86281 -3.15975,-5.55369 -3.43523,-7.06002c-0.25905,-1.41648 -0.36547,-5.39099 -0.02371,-7.76152zM541.14247,155.84847c0.23242,-1.43244 1.78747,-1.89464 1.78747,-1.89464l1.77125,-0.43455c1.55394,0.29238 3.6928,-0.37236 4.66182,0.87713c0.9947,1.28262 -0.1379,3.24334 -0.20868,4.86493c-0.09902,2.26787 -0.68015,5.12146 -0.30257,7.35385c0.10759,0.63614 2.28907,4.71614 2.30478,4.73553c1.63108,2.01259 4.49274,1.2295 4.94447,4.89015c0.18195,1.47448 -1.34811,2.64979 -2.09746,3.93263c-0.96962,1.65994 -2.02729,3.29194 -2.72168,5.08454c-1.04811,2.70571 -2.52463,5.54394 -2.82472,8.46925c-0.12441,1.21278 -0.15978,2.43048 -0.16083,3.6502l0.08658,-0.02712l0.93704,2.99088c0.24291,0.74425 0.13352,1.59097 -0.3685,2.26752c-0.82276,1.1088 -2.38861,1.34066 -3.4974,0.5179c-0.04552,-0.03378 -0.08957,-0.06881 -0.13213,-0.10502l-2.91422,-2.44042c-3.23446,-1.96452 -7.1043,-4.51624 -11.08497,-4.28619c-2.34853,0.13573 -6.95649,2.3031 -8.91663,0.72588c-1.35563,-1.0908 -0.29599,-3.46737 -0.44398,-5.20105c0.02967,-2.65649 0.43478,-5.58468 -1.61228,-7.67804c-2.64077,-2.70052 -6.41333,-3.48411 -4.54259,-8.47042c0.44859,-1.19567 2.15592,-1.38235 3.13449,-2.20285c1.83334,-1.53719 3.21315,-4.40982 3.52635,-6.76289c0.24097,-1.81043 -0.35482,-7.1595 1.37674,-8.25866c2.43312,-1.5445 5.02902,1.77325 7.03723,2.32431c1.00402,0.2755 2.08194,0.09664 3.11549,0.22197c3.73519,0.45297 3.83952,-0.86531 5.80749,-4.04338c0,0 0.48369,-0.77973 1.3374,-1.10137z" fill="#ffffff" stroke="none" stroke-width="0.5" stroke-linecap="butt"/><path d="M541.63017,164.29085c-1.3567,2.21003 -2.53136,4.5784 -5.40451,5.1222c-0.92321,0.17474 -1.86793,-0.20572 -2.80256,-0.30233c-1.03385,-0.10686 -2.10218,-0.02706 -3.10283,-0.30808c-0.47584,-0.13363 -0.95576,-0.30465 -1.40233,-0.53163c-0.00538,0.68408 -0.1143,1.37628 -0.21572,2.05052c-0.40725,2.70734 -1.95857,6.01885 -4.16987,7.71476c-0.38534,0.29554 -0.97029,0.17953 -1.39828,0.40898c-0.09526,0.05108 0.16428,0.14065 0.2498,0.20675c0.90669,0.70087 1.9516,1.24991 2.72664,2.09407c2.37102,2.58243 2.26637,5.59036 2.23939,8.83999c-2.16938,2.30291 -0.14864,0.09145 0.30594,-0.08364c0.93375,-0.35965 1.94967,-0.51847 2.94951,-0.55818c3.43938,-0.13663 6.6029,1.40178 9.51196,3.1132c0.04729,-0.55667 0.12504,-1.11474 0.17673,-1.65875c0.28862,-3.03749 1.83851,-7.00861 3.29067,-9.7235c0.50013,-0.93502 1.03086,-1.87116 1.72486,-2.67288c0.23058,-0.26637 0.94392,-0.08164 0.96399,-0.43338c0.01786,-0.31321 -0.65922,0.02207 -0.93165,-0.13348c-0.73215,-0.41807 -1.47599,-0.88581 -2.00421,-1.54294c-0.54289,-0.67537 -2.47331,-4.34719 -2.68895,-5.52627c-0.20278,-1.10876 -0.28607,-4.21984 -0.01856,-6.07539zM539.45669,161.19476c0.18192,-1.12125 1.39917,-1.48304 1.39917,-1.48304l1.38646,-0.34017c1.21636,0.22886 2.89057,-0.29147 3.64908,0.68658c0.77862,1.00398 -0.10794,2.53875 -0.16336,3.80806c-0.07752,1.77519 -0.5324,4.00887 -0.23684,5.75627c0.08422,0.49795 1.79178,3.69159 1.80408,3.70677c1.27674,1.57536 3.51672,0.96241 3.87033,3.8278c0.14243,1.15416 -1.05524,2.07414 -1.6418,3.07829c-0.75898,1.29932 -1.58687,2.5768 -2.13041,3.97996c-0.82041,2.11791 -1.97616,4.33956 -2.21107,6.62937c-0.09738,0.9493 -0.12508,1.90247 -0.12589,2.85722l0.06776,-0.02123l0.73347,2.34114c0.19014,0.58257 0.10452,1.24534 -0.28845,1.7749c-0.64403,0.86791 -1.8697,1.04941 -2.73761,0.40538c-0.03564,-0.02644 -0.07011,-0.05387 -0.10343,-0.08221l-2.28113,-1.91024c-2.5318,-1.53775 -5.56094,-3.53512 -8.67683,-3.35505c-1.83832,0.10624 -5.44525,1.80276 -6.97956,0.56818c-1.06113,-0.85383 -0.23169,-2.71412 -0.34754,-4.07117c0.02322,-2.07938 0.34033,-4.37145 -1.26201,-6.01004c-2.06709,-2.11385 -5.02008,-2.72721 -3.55575,-6.63028c0.35113,-0.93593 1.68756,-1.08204 2.45355,-1.7243c1.43506,-1.20324 2.51511,-3.45182 2.76027,-5.2937c0.18862,-1.41712 -0.27773,-5.60415 1.07764,-6.46453c1.90455,-1.20896 3.93649,1.38802 5.50845,1.81937c0.7859,0.21565 1.62966,0.07566 2.43867,0.17375c2.92375,0.35456 3.00541,-0.67733 4.54586,-3.16498c0,0 0.37862,-0.61034 1.04685,-0.8621z" fill="#bfecff" stroke="none" stroke-width="0.5" stroke-linecap="butt"/></g></g></svg>