<svg version="1.1" xmlns="http://www.w3.org/2000/svg" xmlns:xlink="http://www.w3.org/1999/xlink" width="115.17651" height="93.16178" viewBox="0,0,115.17651,93.16178"><defs><radialGradient cx="273.33535" cy="213.86885" r="19.04293" gradientUnits="userSpaceOnUse" id="color-1"><stop offset="0" stop-color="#bd50fb"></stop><stop offset="1" stop-color="#a200ff"></stop></radialGradient></defs><g transform="translate(-190.61036,-139.75)"><g data-paper-data="{&quot;isPaintingLayer&quot;:true}" fill-rule="nonzero" stroke-linejoin="miter" stroke-miterlimit="10" stroke-dasharray="" stroke-dashoffset="0" style="mix-blend-mode: normal"><path d="M283.90266,166.40734c0,-5.85589 4.74714,-10.60302 10.60302,-10.60302c5.85589,0 10.60302,4.74714 10.60302,10.60302c0,5.85589 -4.74714,10.60302 -10.60302,10.60302c-5.85589,0 -10.60302,-4.74714 -10.60302,-10.60302z" data-paper-data="{&quot;index&quot;:null}" fill="#d8d8d8" stroke="#000000" stroke-width="1.25" stroke-linecap="butt"></path><path d="M254.29241,213.86885c0,-10.51712 8.52581,-19.04293 19.04293,-19.04293c10.51712,0 19.04293,8.52581 19.04293,19.04293c0,10.51712 -8.52581,19.04293 -19.04293,19.04293c-10.51712,0 -19.04293,-8.52581 -19.04293,-19.04293z" fill="url(#color-1)" stroke="none" stroke-width="NaN" stroke-linecap="butt"></path><path d="M191.23536,200.08032c0,-5.85589 4.74714,-10.60303 10.60303,-10.60303c5.85589,0 10.60303,4.74714 10.60303,10.60303c0,5.85589 -4.74714,10.60303 -10.60303,10.60303c-5.85589,0 -10.60303,-4.74714 -10.60303,-10.60303z" data-paper-data="{&quot;index&quot;:null}" fill="#d8d8d8" stroke="#000000" stroke-width="1.25" stroke-linecap="butt"></path><path d="" data-paper-data="{&quot;index&quot;:null}" fill="none" stroke="#000000" stroke-width="1.5" stroke-linecap="round"></path><path d="M226.03687,180c0,-21.81525 17.68475,-39.5 39.5,-39.5c21.81525,0 39.5,17.68475 39.5,39.5c0,21.81525 -17.68475,39.5 -39.5,39.5c-21.81525,0 -39.5,-17.68475 -39.5,-39.5z" data-paper-data="{&quot;index&quot;:null}" fill="#d8d8d8" stroke="#000000" stroke-width="1.5" stroke-linecap="butt"></path><path d="" data-paper-data="{&quot;index&quot;:null}" fill="none" stroke="#000000" stroke-width="1.5" stroke-linecap="round"></path><path d="" data-paper-data="{&quot;index&quot;:null}" fill="none" stroke="#000000" stroke-width="1.5" stroke-linecap="round"></path></g></g></svg>