<svg version="1.1" xmlns="http://www.w3.org/2000/svg" xmlns:xlink="http://www.w3.org/1999/xlink" width="140.63472" height="112.80102" viewBox="0,0,140.63472,112.80102"><g transform="translate(-108.27813,-146.63292)"><g data-paper-data="{&quot;isPaintingLayer&quot;:true}" fill-rule="nonzero" stroke-linejoin="miter" stroke-miterlimit="10" stroke-dasharray="" stroke-dashoffset="0" style="mix-blend-mode: normal"><g data-paper-data="{&quot;index&quot;:null}" stroke="none" stroke-linecap="butt"><path d="M169.91069,159.7744c4.75431,0.99507 7.95882,7.4287 9.26886,10.98236c3.32734,9.02576 2.52258,17.63364 -1.79744,19.22619c-1.42153,0.52404 -43.88806,15.15641 -44.97472,14.12244c-2.2157,-2.10825 -3.96711,-7.03895 -6.19956,-13.09473c-3.32732,-9.02576 -21.59248,-9.9689 -17.27246,-11.56146c2.61913,-0.96554 53.65442,-21.20706 60.97534,-19.67479z" data-paper-data="{&quot;index&quot;:null}" fill="#a97eff" stroke-width="NaN"></path><path d="M167.88703,165.1062c3.5342,0.73972 5.91633,5.52227 6.89018,8.16395c2.47343,6.70946 1.8752,13.10828 -1.33618,14.29215c-1.06343,0.39203 -35.38588,10.70209 -36.19774,9.92217c-1.63983,-1.57533 -2.93884,-5.23186 -4.59321,-9.71955c-2.47342,-6.70947 -16.05119,-7.41057 -12.83981,-8.59444c1.94698,-0.71773 42.6346,-15.20333 48.07675,-14.06428z" data-paper-data="{&quot;index&quot;:null}" fill="#ffffff" stroke-width="NaN"></path></g><path d="" data-paper-data="{&quot;index&quot;:null}" fill="none" stroke="#000000" stroke-width="1.5" stroke-linecap="round"></path><path d="" data-paper-data="{&quot;index&quot;:null}" fill="none" stroke="#000000" stroke-width="1.5" stroke-linecap="round"></path><path d="" data-paper-data="{&quot;index&quot;:null}" fill="none" stroke="#000000" stroke-width="1.5" stroke-linecap="round"></path><path d="" data-paper-data="{&quot;index&quot;:null}" fill="none" stroke="#000000" stroke-width="1.5" stroke-linecap="round"></path><path d="M125.50758,235.59595c-9.06941,-19.84064 -0.3376,-43.27686 19.50303,-52.34627c2.1629,-0.98869 51.58954,-24.26959 53.81463,-24.84385c18.18602,-4.69353 37.67192,4.16539 45.75264,21.84312c8.04632,17.60248 2.08109,38.03509 -13.22225,48.75431c-1.94582,1.36295 -51.26362,25.07263 -53.50178,26.09572c-19.84064,9.06941 -43.27686,0.3376 -52.34627,-19.50303z" fill="#d8d8d8" stroke="#000000" stroke-width="1.5" stroke-linecap="butt"></path><path d="" data-paper-data="{&quot;index&quot;:null}" fill="none" stroke="#000000" stroke-width="1.5" stroke-linecap="butt"></path><g stroke="none" stroke-linecap="butt"><path d="M167.65365,175.8225c4.11481,-6.24597 54.59007,-27.84613 57.12884,-29.00663c4.18746,-1.91415 -8.10792,11.62576 -4.10873,20.37458c2.68323,5.86997 4.91499,10.60268 4.82845,13.65989c-0.04245,1.49937 -40.48524,21.04144 -41.86315,21.6713c-4.18746,1.91415 -10.82409,-3.62645 -14.82327,-12.37529c-1.57458,-3.44462 -3.83435,-10.26766 -1.16213,-14.32388z" data-paper-data="{&quot;index&quot;:null}" fill="#a97eff" stroke-width="NaN"></path><path d="M172.84665,178.17963c3.05882,-4.64307 42.13597,-23.03575 44.0232,-23.89844c3.11285,-1.42292 -6.02717,8.64224 -3.05429,15.14584c1.98844,4.34999 3.64334,7.85983 3.58987,10.13312c-0.02647,1.12548 -31.64493,17.99562 -32.67572,18.46681c-3.11285,1.42292 -8.0463,-2.69579 -11.01917,-9.19939c-1.1705,-2.56063 -2.85033,-7.63266 -0.8639,-10.64793z" data-paper-data="{&quot;index&quot;:null}" fill="#ffffff" stroke-width="NaN"></path></g></g></g></svg>