<svg version="1.1" xmlns="http://www.w3.org/2000/svg" xmlns:xlink="http://www.w3.org/1999/xlink" width="233.23999" height="197.52458" viewBox="0,0,233.23999,197.52458"><g transform="translate(-78.39617,-73.72144)"><g data-paper-data="{&quot;isPaintingLayer&quot;:true}" fill-rule="nonzero" stroke-linejoin="miter" stroke-miterlimit="10" stroke-dasharray="" stroke-dashoffset="0" style="mix-blend-mode: normal"><path d="M164.70642,215.6223c-0.71448,-0.22808 -0.4864,-0.94256 -0.4864,-0.94256l0.37958,-1.18905c1.18619,-3.7158 2.6668,-7.47154 3.71298,-11.25809c-1.13509,2.33352 -2.21643,4.72626 -3.61171,6.90187l0.10458,0.05259l-0.66662,1.32563c-0.12059,0.25282 -0.37855,0.42752 -0.67732,0.42752c-0.32869,0 -0.60799,-0.21144 -0.70932,-0.50572c-0.69517,-1.8753 -1.87113,-5.04754 -2.5663,-6.92283c-0.17379,-0.46882 -0.42721,-0.91542 -0.52138,-1.40647c-0.05825,-0.30376 0.38039,-0.88056 0.07429,-0.92491c-0.3061,-0.04436 -0.04923,0.63323 -0.19131,0.90796c-0.22969,0.44412 -0.59945,0.80041 -0.89918,1.20061c-1.17621,1.57051 -2.26775,3.3608 -3.59672,4.80246c-0.49267,0.53444 -0.86381,1.41899 -1.5866,1.49595c-0.50643,0.05392 -1.49267,-2.46373 -1.55988,-2.65888c-0.01281,-0.0372 -0.73009,-2.86119 -0.73622,-2.88527c-0.36716,-1.45121 -0.90411,-2.75002 -1.46717,-4.13541c-0.18826,-0.4632 -0.38112,-0.92456 -0.56478,-1.38961c-0.19233,-0.48702 -0.22227,-1.93362 -0.49945,-1.48937c-3.20838,5.1422 -3.16958,12.04118 -5.71,17.58218l0.15792,0.0523l-0.46613,1.40755c-0.09382,0.30718 -0.37952,0.53062 -0.7174,0.53062c-0.3695,0 -0.67659,-0.2672 -0.73859,-0.61892l-0.21832,-1.11147l0.00036,-0.00007l-0.00059,-0.00112c-0.66533,-3.44585 -1.26372,-6.89636 -1.83701,-10.35865c-0.05007,-0.30237 -0.11893,-0.61441 -0.19355,-0.9316c-0.32768,4.85936 -0.69551,9.92185 -2.18212,14.50144l0.09863,0.01792l-0.26588,1.46296c-0.05795,0.35656 -0.36732,0.62876 -0.74025,0.62876c-0.28226,0 -0.52811,-0.15593 -0.6561,-0.38635l-0.74493,-1.28541l0.00597,-0.00346l-0.01996,-0.0218c-2.37851,-4.9414 -4.53815,-9.97783 -6.88182,-14.92842c-0.28295,-0.59767 -0.73227,-1.29017 -1.17868,-2.01838c0.73455,4.40609 1.2493,8.97579 0.65962,13.34374h0.10958v1.5c0,0.41421 -0.33579,0.75 -0.75,0.75c-0.24701,0 -0.46614,-0.11942 -0.60279,-0.30367l-0.47651,-0.62863c-2.56946,-3.3935 -4.65871,-7.23436 -6.92383,-10.84007c-0.67635,-1.07664 -1.64592,-2.2714 -2.36221,-3.51078c0.88611,3.49087 2.1216,7.0938 2.48701,10.62576l0.15025,-0.04054l0.38629,1.43166c0.01976,0.0672 0.03036,0.13833 0.03036,0.21192c0,0.41421 -0.33579,0.75 -0.75,0.75c-0.2845,0 -0.532,-0.15841 -0.65911,-0.39184l-0.73452,-1.29105c-1.48403,-2.60915 -3.31364,-5.01893 -4.57794,-7.71271l-0.13347,0.08375l-0.79114,-1.26086c-0.07642,-0.1175 -0.12081,-0.25774 -0.12081,-0.40835c0,-0.25616 0.12842,-0.48232 0.32439,-0.61762c-0.39213,-0.8458 -0.80349,-1.73307 -1.19218,-2.57144c0,0 -0.31546,-0.68043 0.36497,-0.99589c0.68043,-0.31546 0.99589,0.36497 0.99589,0.36497c0.42062,0.90724 0.84123,1.81448 1.26185,2.72172l0.60619,1.30752c0.04884,0.09956 0.07626,0.21153 0.07626,0.3299c0,0.21236 -0.08826,0.40411 -0.2301,0.54056c0.87805,0.71998 1.69325,1.9007 2.42419,3.15889c-0.70824,-2.71784 -1.35236,-5.42862 -1.89128,-8.19917l0.03034,-0.09623l-0.03029,-0.002l0.07314,-1.10688c0.02262,-0.39388 0.3492,-0.70631 0.74875,-0.70631c0.23455,0 0.44395,0.10767 0.58148,0.27628l0.9528,1.15085l-0.12763,0.10566c3.83888,3.9806 6.1623,9.85142 9.29195,14.47968c-0.24572,-1.64287 0.06692,-3.64115 0.06772,-5.10507c0.00201,-3.68697 -0.79693,-7.41664 -1.44743,-11.03751l-0.24987,-0.75455c-0.02818,-0.07887 -0.04353,-0.16384 -0.04353,-0.25239c0,-0.41421 0.33579,-0.75 0.75,-0.75c0.2494,0 0.47037,0.12174 0.60673,0.30903l0.79813,1.07118l-0.20878,0.15556c1.9616,2.26043 3.07584,5.32724 4.2499,8.07692c1.65896,3.88536 3.5352,7.67034 5.36957,11.47566c-0.00251,-1.71893 0.70797,-3.7341 0.98475,-5.25707c0.71069,-3.9105 0.91656,-7.85833 1.22787,-11.81907l0.01469,-0.98062c0.00526,-0.40968 0.339,-0.74017 0.74994,-0.74017c0.31985,0 0.59293,0.20022 0.70076,0.48216l0.56134,1.3722l-0.22085,0.09035c1.73656,3.54724 2.03399,8.10926 2.60757,12.13224c0.25297,-0.87953 0.62763,-1.75614 0.86785,-2.56417c1.00021,-3.36443 2.06634,-6.69949 3.16239,-10.03386c0.37686,-1.14646 0.86713,-3.92062 2.29613,-4.31802c0.54196,-0.15072 1.09147,0.41747 1.46456,0.83848c1.37848,1.55556 2.25516,5.30024 2.76267,7.28657c0.23471,0.92299 0.39147,1.86918 0.70179,2.76958c0.18291,0.53073 0.36338,2.21365 0.3148,1.6544c-0.14555,-1.6755 2.85155,-4.43001 3.80849,-5.70774c0.35837,-0.4785 1.96491,-2.77233 2.50623,-2.69389c0.72369,0.10487 0.79144,1.23328 1.11706,1.88803c1.05291,2.11715 1.70885,4.56001 2.51965,6.79441c0.48947,-2.59465 2.83399,-5.74977 3.91811,-7.90564l0.66662,-1.32563c0.12059,-0.25282 0.37855,-0.42752 0.67732,-0.42752c0.32005,0 0.59328,0.20047 0.70097,0.4827l0.5603,1.37262l-0.01469,0.006c0.0284,0.08062 0.05195,0.16317 0.06973,0.248c0.02407,0.1148 -0.87237,2.8808 -0.94727,3.11544c-1.06439,3.33423 -2.12877,6.66846 -3.19316,10.00269l-0.37958,1.18905c0,0 -0.22808,0.71448 -0.94256,0.4864z" fill="#754ec2" stroke="none" stroke-width="0.5" stroke-linecap="butt"></path><path d="" data-paper-data="{&quot;index&quot;:null}" fill="none" stroke="#000000" stroke-width="1.5" stroke-linecap="round"></path><path d="M200.5,180c0,-21.81525 17.68475,-39.5 39.5,-39.5c21.81525,0 39.5,17.68475 39.5,39.5c0,21.81525 -17.68475,39.5 -39.5,39.5c-21.81525,0 -39.5,-17.68475 -39.5,-39.5z" fill="#d8d8d8" stroke="#000000" stroke-width="1.5" stroke-linecap="butt"></path><path d="M225.51005,194.79568c5.44898,-2.88817 27.57511,5.13694 27.57511,5.13694" data-paper-data="{&quot;index&quot;:null}" fill="none" stroke="#000000" stroke-width="1.5" stroke-linecap="round"></path><path d="M250.89804,170.36202l6.93986,4.16391l-6.59286,1.38797l-3.29643,5.89888l-2.25545,-6.41937l-7.46035,-3.64343l7.11335,-2.08196l3.99042,-7.46035z" fill="#be82ff" stroke="#000000" stroke-width="0" stroke-linecap="round"></path><path d="M221.6874,173.5245l10.7662,2.43108" fill="none" stroke="#000000" stroke-width="1.5" stroke-linecap="round"></path><path d="M229.67523,164.84208l-1.38919,9.72431" fill="none" stroke="#000000" stroke-width="1.5" stroke-linecap="round"></path><g stroke-linecap="round"><path d="M288.732,141.53579l-5.82725,23.809l-2.79796,-0.57801l6.11344,-24.03683z" fill="none" stroke="#4d6200" stroke-width="3"></path><path d="M282.39635,162.9441l5.13251,-19.98298l-2.52406,-7.57571l2.37147,-0.25138l2.86863,6.83386" fill="none" stroke="#4d6200" stroke-width="3"></path><path d="M296.04296,118.41589l-11.44672,20.56769l-3.08415,-0.35018l12.30531,-21.25118z" fill="none" stroke="#4d6200" stroke-width="3"></path><path d="M293.15079,109.49676l1.83496,9.05942l-11.07298,19.56882" fill="none" stroke="#4d6200" stroke-width="4.5"></path><path d="M298.18449,94.9694l0.63743,8.14248l-7.23678,4.12451l-8.56333,-2.53426l0.10442,-7.79792" fill="none" stroke="#4d6200" stroke-width="4.5"></path><path d="M290.38202,108.66173l2.77545,9.94719" fill="none" stroke="#4d6200" stroke-width="4.5"></path><g stroke="#7f00ff"><path d="M294.69103,85.29079l0.54396,13.73741l-3.88589,4.32295l-5.59787,-4.10329l-0.58743,-13.48242l4.69431,-4.4475z" fill="#7d00ff" stroke-width="0.5"></path><path d="M293.26036,87.4148l0.38117,9.62618l-2.72295,3.02922l-3.92258,-2.87528l-0.41163,-9.4475l3.28943,-3.11648z" fill="#be82ff" stroke-width="0"></path></g></g><path d="M281.526,102.06079c0.13366,-0.45587 0.29743,-0.88737 0.5049,-1.34617c-1.16943,1.24393 -2.30271,2.51622 -3.57039,3.63603c-0.00549,0.0065 -0.01097,0.013 -0.01645,0.0195l0.13381,0.11096l-0.95399,1.15041c-0.10653,0.13055 -0.25746,0.22616 -0.4357,0.26131c-0.40638,0.08016 -0.8008,-0.1843 -0.88097,-0.59068c-0.03621,-0.18356 -0.00211,-0.36467 0.08363,-0.5155l0.46742,-0.83437l0.02537,0.01422l0.01055,-0.07203c2.05745,-2.49574 4.02316,-5.04001 5.95864,-7.63074c0.38415,-0.5142 0.65476,-1.05152 0.94738,-1.56314c-3.1099,2.9285 -5.86424,6.73127 -9.35449,9.11389l0.12533,0.13069l-0.9708,0.93095c-0.10116,0.1001 -0.23188,0.17256 -0.38196,0.20217c-0.40638,0.08016 -0.8008,-0.1843 -0.88097,-0.59068c-0.04288,-0.21736 0.01284,-0.4313 0.13612,-0.59555l0.8346,-1.12102c1.97489,-2.65262 4.08522,-5.1761 6.19087,-7.72467c0.11889,-0.14389 0.22975,-0.28715 0.33571,-0.42805c-1.16696,0.61811 -2.26972,1.2256 -3.48385,1.68571c-0.19828,0.11111 -0.40497,0.22272 -0.62303,0.33737l0.04991,0.11088l-1.35282,0.60898c-0.05534,0.02634 -0.11483,0.04627 -0.17771,0.05867c-0.40638,0.08016 -0.8008,-0.1843 -0.88097,-0.59068c-0.02857,-0.14482 -0.01337,-0.28811 0.03641,-0.41621l-0.67813,-0.03213c-0.3432,-0.00879 -0.6467,-0.25386 -0.71592,-0.60476c-0.07181,-0.36406 0.13296,-0.71853 0.46859,-0.84605l1.36805,-0.54988c1.84078,-0.83396 3.65043,-1.70267 5.56037,-2.36638c0.45487,-0.15806 0.9186,-0.29246 1.36509,-0.47286c0.40192,-0.16239 1.61664,-0.33258 1.20881,-0.47945c-2.60962,-0.93986 -5.6012,-1.97456 -7.6599,-3.82134c-0.0032,-0.00166 -0.0064,-0.00329 -0.00961,-0.00495l-0.27235,0.28719l-1.08196,-1.02606c-0.07436,-0.06875 -0.1353,-0.15293 -0.17727,-0.24883c-0.64696,-0.30223 -1.29392,-0.60454 -1.9408,-0.90712l-0.03826,-0.04976l-0.01243,0.01839l-0.9764,-0.65932c-0.00005,-0.00003 -0.00009,-0.00008 -0.00016,-0.0001c-0.15839,-0.10695 -0.27621,-0.2741 -0.31611,-0.47642c-0.08016,-0.40638 0.1843,-0.8008 0.59068,-0.88097c0.14633,-0.02886 0.29109,-0.01305 0.42021,0.03799l1.39294,0.52404l-0.05359,0.14244c3.93437,0.77138 8.06618,2.68425 11.41618,4.55107l0.00487,0.00575l0.00128,-0.00221l0.95287,0.55486c0.18132,0.10437 0.31823,0.28364 0.3619,0.50501c0.03478,0.17635 0.00467,0.35044 -0.07377,0.49758c0.4573,0.21906 0.91443,0.43853 1.37138,0.65839c0,0 0.67582,0.32519 0.35064,1.00102c-0.32519,0.67582 -1.00102,0.35064 -1.00102,0.35064c-0.59531,-0.28645 -1.19107,-0.57184 -1.78721,-0.85634c-0.02211,0.06483 -0.05102,0.13244 -0.08728,0.20305c0.21455,0.09614 0.38075,0.2914 0.42971,0.53961c0.05102,0.25862 -0.03754,0.51238 -0.21341,0.6834l-1.05214,1.05293l-0.06858,-0.06853c-0.10502,0.15746 -0.21152,0.3141 -0.31939,0.46998c0.68874,-0.62099 1.39078,-1.2198 2.10921,-1.78678l1.80357,-0.13022c-0.29334,1.49015 -0.84907,2.88297 -1.56889,4.20574c0.01668,-0.00449 0.03363,-0.00846 0.05085,-0.01185c0.40638,-0.08016 0.8008,0.1843 0.88097,0.59068c0.03154,0.15992 0.00972,0.318 -0.05312,0.4558l-0.60066,1.36439l-0.04896,-0.02155c-0.02391,0.07103 -0.0476,0.11475 -0.0476,0.11475l-0.20285,0.37448c-0.41452,1.23748 -0.97252,2.39326 -1.70288,3.64384l-0.67226,1.18438c-0.10369,0.18519 -0.28491,0.32543 -0.50945,0.36971c-0.40638,0.08016 -0.8008,-0.1843 -0.88097,-0.59068c-0.03192,-0.16183 -0.0092,-0.32176 0.05538,-0.46071l0.6113,-1.36006l0.12627,0.05676c0.01532,-0.02674 0.03052,-0.05369 0.04556,-0.08083z" fill="#7d00ff" stroke="none" stroke-width="0.5" stroke-linecap="butt"></path><path d="M282.77867,86.20634c-3.59242,-2.80852 -6.41628,-6.40541 -9.36088,-9.8788l-0.92787,-1.0945c-0.08474,-0.09618 -0.14592,-0.21538 -0.17252,-0.35021c-0.08016,-0.40638 0.1843,-0.8008 0.59068,-0.88097c0.26437,-0.05214 0.52368,0.04155 0.69469,0.2253l1.03041,1.07286l-0.06615,0.06353c0.12141,0.14323 0.24259,0.28668 0.36363,0.43032c2.31599,1.88866 4.17792,4.28116 6.60774,6.06077c-0.17561,-0.47031 -0.34963,-0.95611 -0.52561,-1.46103l0.00058,-0.01393l-0.00458,0.00141l-0.24449,-0.78927c-0.00911,-0.02814 -0.01665,-0.05712 -0.02252,-0.08686c-0.08016,-0.40638 0.1843,-0.8008 0.59068,-0.88097c0.25125,-0.04956 0.49794,0.03261 0.66859,0.19861l0.64343,0.61019l-0.15659,0.16512c0.20972,0.16599 0.40988,0.34169 0.60239,0.52547c0.06575,-0.03603 0.13807,-0.06274 0.21553,-0.07802c0.32093,-0.06331 0.63439,0.08831 0.79152,0.35502l0.56294,0.90648c0.606,0.97582 1.04673,1.72741 1.40893,2.55934c0.0166,0.02207 0.03322,0.04411 0.04988,0.06615l0.12389,-0.07694l0.78224,1.25961c0.05123,0.07837 0.08856,0.16769 0.10778,0.26519c0.08016,0.40638 -0.1843,0.8008 -0.59068,0.88097c-0.29445,0.05808 -0.58261,-0.06475 -0.74951,-0.29141l-0.72197,-0.93839c-0.06415,-0.08338 -0.14644,-0.18289 -0.24279,-0.29574c-0.05222,0.10695 -0.13743,0.20947 -0.27452,0.28313c0.676,1.28362 1.4802,2.51886 2.54582,3.84879c0,0 0.46897,0.58529 -0.11632,1.05426c-0.58529,0.46897 -1.05426,-0.11632 -1.05426,-0.11632c-0.95809,-1.19571 -1.72216,-2.33182 -2.3743,-3.49262c-0.39122,0.19414 -0.77584,-0.10655 -0.77584,-0.10655z" fill="#7d00ff" stroke="none" stroke-width="0.5" stroke-linecap="butt"></path><path d="M290.83577,108.55793c0.72935,0.17476 0.55459,0.90412 0.55459,0.90412l-0.37136,1.531c-2.17798,4.54164 -4.07926,10.13201 -7.10468,14.32573l0.13058,0.06334l-0.65086,1.34192c-0.09818,0.20802 -0.29043,0.36831 -0.53341,0.41623c-0.40638,0.08016 -0.8008,-0.1843 -0.88097,-0.59068c-0.02241,-0.11361 -0.01788,-0.22629 0.00915,-0.33144l0.28312,-1.2124l0.00876,0.00204l-0.0024,-0.02733c2.14721,-6.97559 4.52534,-14.41697 5.09301,-21.72528c-0.3318,0.11599 -0.59926,0.17545 -0.72895,0.13548c-0.47112,-0.14518 -0.18832,-0.96781 -0.28248,-1.45171c0,0 0.0613,-0.7475 0.80878,-0.6862c0.41102,0.03371 0.57749,0.27487 0.64409,0.48516c0.56531,-0.66594 2.60465,-2.08207 3.21861,-1.79311c0.63484,0.29878 0.62141,1.25999 0.87803,1.91299c0.65307,1.66184 1.08379,3.46104 1.58615,5.18759c0.16618,-2.05111 0.70537,-4.98868 1.3996,-6.12719c0.31134,-0.5106 0.78662,-1.22645 1.37938,-1.14722c0.2706,0.03617 0.5582,0.20457 0.85245,0.46519c-0.06938,-0.22017 -0.13861,-0.42601 -0.20876,-0.61333c-0.05502,-0.14692 -1.06169,-2.78324 -1.00476,-2.87716c0.28847,-0.47596 2.1541,-0.87876 2.86712,-1.10923c1.85972,-0.60115 3.55966,-1.58566 5.30882,-2.44592c0.40891,-0.20111 0.81166,-0.41581 1.22947,-0.59774c0.24565,-0.10697 1.00084,-0.15468 0.75791,-0.26768c-0.60752,-0.2826 -2.89574,-0.01615 -3.62413,0.07004c-0.47041,0.05566 -0.94121,0.108 -1.41182,0.16199l-0.01425,-0.00212l0.00026,0.00334l-1.48607,0.11447c-0.37769,0.0344 -0.7279,-0.22161 -0.80292,-0.60191c-0.05387,-0.27308 0.04788,-0.54076 0.24373,-0.71131l1.10361,-0.99542l0.12749,0.14135c1.3861,-1.44015 3.03011,-2.65002 4.67396,-3.84017c-1.28308,0.62195 -2.61061,1.17462 -3.89716,1.73411c-0.23661,0.1029 -2.57584,1.20294 -2.88782,0.95213c-1.22151,-0.982 -0.61685,-2.75928 -0.1909,-3.8222c0.98656,-2.46191 2.54404,-4.77863 3.90944,-7.10707c-0.6556,0.53921 -1.36618,1.04112 -1.87429,1.79269c-0.78258,1.15752 -1.35905,2.45192 -2.14343,3.61899c-0.31195,0.46414 -1.19645,2.18757 -2.17611,1.84161c-1.79287,-0.63314 -1.41797,-3.40026 -0.79926,-5.79765c-0.18359,-0.0493 -0.38086,-0.1283 -0.59217,-0.24107c-0.95171,-0.50789 -1.90771,-2.31871 -2.66128,-3.15698c-0.15348,-0.17073 -0.38875,-0.53866 -0.57386,-0.85197c0.30101,0.96471 -0.18061,2.2081 -0.21916,3.14395c-0.11797,2.86322 0.42026,5.73587 0.75729,8.56687l0.11241,0.55862c0,0 0.14514,0.73582 -0.59068,0.88097c-0.73582,0.14514 -0.88097,-0.59068 -0.88097,-0.59068l-0.13025,-0.67159c-0.40042,-3.36428 -0.98047,-6.71541 -0.6348,-10.10955c0.06843,-0.67185 0.24795,-3.24473 0.7336,-3.58749c1.04481,-0.7374 3.6377,2.92562 4.12612,3.5363c0.29326,0.36667 0.65379,1.45917 0.88423,1.33324c0.21446,-0.72959 0.4194,-1.37097 0.54427,-1.83241l-0.16426,-0.05349l0.4599,-1.4121c0.07812,-0.25628 0.29137,-0.46225 0.57261,-0.51773c0.40638,-0.08016 0.8008,0.1843 0.88097,0.59068c0.02011,0.10193 0.01853,0.2031 -0.00152,0.29876l-0.20208,1.08878l-0.00527,-0.00098l0.00258,0.01479c-0.35691,1.5878 -1.00442,3.17108 -1.25953,4.77022c-0.10367,0.64981 0.24571,1.55903 0.12039,2.24061c0.13783,-0.30324 0.32806,-0.69053 0.44822,-0.87297c0.49001,-0.74395 0.96564,-1.49873 1.39905,-2.27702c1.09081,-1.95887 2.28584,-3.15462 3.98766,-4.06324l-0.07497,-0.12182l1.2628,-0.777c0.07774,-0.05038 0.1662,-0.0871 0.26263,-0.10612c0.40638,-0.08016 0.8008,0.1843 0.88097,0.59068c0.02133,0.10812 0.01825,0.21538 -0.00537,0.3161l-0.16055,0.76162l-0.03495,-0.00737l0.0071,0.10576c-1.29129,2.51983 -2.77229,4.92632 -4.10705,7.42189c-0.34653,0.64791 -1.46764,2.32212 -1.17602,3.17533c0.05051,0.1478 0.09738,-0.32555 0.22982,-0.40835c0.42024,-0.26271 0.91072,-0.3912 1.36521,-0.58881c0.57094,-0.24823 1.13681,-0.50813 1.70063,-0.7721c1.75203,-0.82029 2.88727,-1.4915 4.38514,-1.66841l-0.00589,-0.31022l1.48685,-0.02819c0.36213,-0.01353 0.69056,0.23766 0.76291,0.60448c0.04278,0.21689 -0.0126,0.43037 -0.13532,0.5945l-0.5145,0.69341l-0.02685,-0.01991l-0.04116,0.09933c-1.61407,1.2474 -3.78734,3.52957 -5.91194,4.7049c1.89024,-0.20233 5.05996,-0.38253 5.41766,0.95316c0.36775,1.3732 -1.9907,2.27716 -2.75077,2.6585c-1.81061,0.9084 -3.59086,1.90397 -5.52166,2.53207c-0.62091,0.20197 -1.38795,-0.08229 -1.94077,0.26515c-0.16261,0.1022 0.38581,0.14897 0.48247,0.31492c0.00645,0.01108 1.05676,2.81278 1.07243,2.85457c0.66034,1.76063 1.29018,3.3766 1.65587,5.09696c0.0704,0.13698 0.1328,0.25675 0.18621,0.35553l-0.02149,0.05626l0.03911,-0.01557l0.01248,0.03136l0.0662,-0.0228l0.4844,1.40631c0.0129,0.03564 0.02326,0.0727 0.03082,0.11103c0.08016,0.40638 -0.1843,0.8008 -0.59068,0.88097c-0.36484,0.07196 -0.72004,-0.13384 -0.84686,-0.47072l-0.53758,-1.35015c-0.99243,-1.81943 -2.29828,-3.44689 -3.13726,-5.31102c-0.21925,-0.48719 -0.06798,1.06848 -0.16007,1.59474c-0.0862,0.49251 -0.18248,0.98321 -0.27373,1.47481c-0.31762,1.71138 -0.54836,2.74504 -1.16688,3.85097l0.14743,0.0767l-0.68908,1.32453c-0.10088,0.19806 -0.28842,0.34948 -0.52341,0.39584c-0.38409,0.07576 -0.75747,-0.15631 -0.86498,-0.52509c-0.43756,-1.43476 -1.31023,-4.29625 -1.74779,-5.731c-0.23633,-0.77493 0.19056,-1.87605 -0.43465,-2.39129c-0.19043,-0.15693 -0.25801,0.4353 -0.45493,0.58401c-0.20239,0.15282 -0.6741,0.4251 -1.20643,0.69482c0.09063,0.20092 0.07657,0.4019 0.07657,0.4019c-0.34982,5.00071 -1.54165,10.06723 -2.95239,15.01205c1.21697,-2.51701 2.43285,-5.03466 3.66617,-7.54358l0.32508,-1.37553c0,0 0.17476,-0.72935 0.90412,-0.55459z" fill="#7d00ff" stroke="none" stroke-width="0.5" stroke-linecap="butt"></path><path d="M306.37077,109.20102c0.02035,-0.0229 0.04079,-0.04404 0.06132,-0.06352c-1.09272,-1.75785 -2.21505,-3.49605 -3.43576,-5.15306c0,0 -0.44463,-0.60398 0.15935,-1.04862c0.60398,-0.44463 1.04862,0.15935 1.04862,0.15935c1.81774,2.4708 3.42203,5.11622 5.03265,7.74176c0.7303,0.78434 1.23239,1.54274 1.55639,2.49722l0.26992,-0.1009l0.52036,1.39189c0.01639,0.04159 0.02927,0.08521 0.03822,0.13063c0.08016,0.40638 -0.1843,0.8008 -0.59068,0.88097c-0.31925,0.06298 -0.63113,-0.08673 -0.78905,-0.35086l-0.79022,-1.25432c-0.35948,-0.5706 -0.71527,-1.14522 -1.06982,-1.72171c-0.44506,-0.54691 -0.88471,-1.10708 -1.40226,-1.56457l-0.54642,-0.48541c0,0 -0.56071,-0.49811 -0.0626,-1.05881z" fill="#7d00ff" stroke="none" stroke-width="0.5" stroke-linecap="butt"></path><path d="M174.70492,150.80441c-0.16471,3.45589 -0.58185,7.01192 -1.49805,9.99839l0.15398,0.02146l-0.20551,1.47493c-0.04571,0.37043 -0.36152,0.65721 -0.74432,0.65721c-0.38438,0 -0.70123,-0.28916 -0.74487,-0.66183l-0.19507,-1.47253c-0.92773,-6.28131 -1.99794,-12.51504 -3.14987,-18.75902c0.05514,-0.30793 0.30586,-0.64426 0.16541,-0.92379c-0.09771,-0.19446 -0.28651,0.34172 -0.3539,0.54866c-0.28021,0.86049 -0.34651,1.77674 -0.5474,2.65913c-0.38912,1.70914 -0.72129,3.36366 -0.95275,5.09934c-0.68689,5.15082 -0.7113,11.25448 -2.32319,16.33626l0.14214,0.01896l-0.19689,1.47647c-0.04391,0.37238 -0.36062,0.66123 -0.7448,0.66123c-0.39406,0 -0.71714,-0.3039 -0.74764,-0.69012l-0.13321,-1.47512l0.00477,-0.00043l-0.00601,-0.01513c-0.19922,-4.09751 -0.1063,-8.3561 -0.62824,-12.42404c-0.05215,-0.40649 -0.15254,-0.84115 -0.27183,-1.29128c-0.40583,4.82623 -1.23574,9.61079 -1.92235,14.4222c-0.42102,2.95031 -0.59247,6.02727 -1.43289,8.8792l0.18189,0.02357l-0.19145,1.47741c-0.04277,0.3736 -0.36005,0.66376 -0.7451,0.66376c-0.41421,0 -0.75,-0.33579 -0.75,-0.75v-0.79141c0.00008,-3.26072 0.09671,-6.52181 0.15959,-9.78186c0.143,-7.41464 1.43971,-15.03326 1.18005,-22.42228c-0.0306,-0.87068 -0.28289,-1.84667 -0.48654,-2.82303c-0.64633,2.92521 -1.33571,5.84184 -1.99947,8.76245c-1.2906,5.67878 -2.47186,11.27004 -3.29598,17.03527c-0.46562,3.25726 -0.61559,6.78412 -1.55413,9.97411c-0.00099,0.13668 -0.00198,0.27336 -0.00298,0.41004l0.07126,0.01019l-0.2107,1.47398c-0.04678,0.36926 -0.36205,0.65479 -0.74401,0.65479c-0.41421,0 -0.75,-0.33579 -0.75,-0.75c0,-0.02844 0.00158,-0.05652 0.00467,-0.08414l0.13034,-1.31191c0.02744,-4.81496 0.06215,-9.62988 0.09363,-14.44482c0.01138,-1.74152 0.45939,-4.13354 0.0604,-5.81793c-0.2073,-0.87513 -0.71742,-1.40698 -1.01586,-2.08814c-1.25103,5.62454 -2.50184,11.24989 -3.68085,16.89008c-0.67023,3.20624 -0.99762,6.62026 -2.11924,9.70082l0.17461,0.04003l-0.33186,1.44742c-0.07063,0.34086 -0.37259,0.59704 -0.73439,0.59704c-0.3822,0 -0.69763,-0.28589 -0.7441,-0.65549l-0.13235,-0.93264l0.00424,-0.0006l-0.00578,-0.01093c-0.50088,-4.53452 -0.89809,-9.06919 -1.25586,-13.61054c-0.02786,1.69072 -0.05383,3.38154 -0.07815,5.07251c-0.02392,1.66291 0.37143,4.34371 0.01241,6.35326c0.0023,0.52302 0.00357,1.04604 0.00358,1.56908v1.06098c0,0.41421 -0.33579,0.75 -0.75,0.75c-0.39576,0 -0.71993,-0.30654 -0.74802,-0.69514l-0.12319,-1.48785l0.12107,-0.01002c-0.00025,-0.31198 -0.00081,-0.62395 -0.00165,-0.93593c-0.21814,-1.83503 -0.09872,-3.70164 -0.03823,-5.61733c-0.03946,-4.06225 -0.0939,-8.1246 -0.0939,-12.18746c0,-0.68172 -0.12089,-1.54361 -0.2527,-2.45751c-0.06374,0.47052 -0.12749,0.94105 -0.19123,1.41157c-0.85919,6.34211 -1.70739,12.68366 -2.66345,19.01195c-0.44656,2.95584 -0.64444,6.02809 -1.52722,8.8714l0.18278,0.02761l-0.22236,1.4718c-0.04918,0.36661 -0.36323,0.64933 -0.7433,0.64933c-0.41187,0 -0.7462,-0.332 -0.74997,-0.74298l-0.01599,-1.49275c-0.09708,-2.9763 -0.27595,-5.96177 -0.21487,-8.93922c0.12876,-6.22066 0.80328,-12.71308 0.29366,-18.91153c-0.11448,-1.39242 -0.569,-3.50151 -0.74728,-5.49051c-0.05335,0.22378 -0.10671,0.44757 -0.16007,0.67135c-1.36526,5.72592 -2.50022,11.38334 -3.41832,17.19765c-0.53509,3.38871 -0.74541,7.05487 -1.81367,10.34371l0.17597,0.02779l-0.23211,1.46992c-0.05118,0.36438 -0.36418,0.64474 -0.74267,0.64474c-0.41421,0 -0.75,-0.33579 -0.75,-0.75v-0.93502c-0.02579,-0.85009 -0.05153,-1.70018 -0.07725,-2.55028c-0.21171,-6.9968 -0.42343,-13.9936 -0.63514,-20.99039c-0.03258,-1.07673 -0.44058,-2.47282 -0.75673,-3.82034c-0.23169,2.08816 -0.48599,4.18622 -0.7134,6.28722c-0.09582,4.4806 -0.18694,8.96126 -0.24629,13.44252c-0.02664,2.01123 -0.05303,4.02246 -0.08069,6.03368l-0.01466,0.03287l0.01186,0.00124l-0.14214,1.35506c-0.03514,0.38155 -0.35608,0.68034 -0.74681,0.68034c-0.40931,0 -0.74205,-0.32789 -0.74986,-0.73534l-0.03343,-1.49755l0.17864,-0.00399c0.00045,-0.0351 0.00089,-0.07021 0.00134,-0.10531c-0.30951,-1.92347 -0.26789,-3.82826 -0.3139,-5.88921c-0.09449,-4.23251 0.20839,-8.4611 0.62099,-12.68363c0.015,-0.7064 0.03019,-1.41281 0.04544,-2.11921c-0.18563,1.69791 -0.37357,3.39574 -0.5567,5.09426c-0.27992,2.59618 -0.25345,5.24732 -0.72563,7.78826c0.00229,0.16696 0.0045,0.33392 0.00661,0.50087l-0.00458,0.00475h0.00459v0.04117l0.08602,0.00501l-0.08699,1.49231c-0.02004,0.39632 -0.34773,0.7115 -0.74903,0.7115c-0.41421,0 -0.75,-0.33579 -0.75,-0.75v-1.49644c-0.04999,-3.94241 -0.15324,-7.88843 -0.11675,-11.83099c0.06035,-6.49972 0.1207,-12.99944 0.18106,-19.49916c0.00602,-0.64878 -0.03912,-1.40046 -0.09291,-2.19816c-0.55613,3.74762 -1.10648,7.49607 -1.65684,11.2446c-0.86679,5.90375 -1.8218,11.80165 -2.51762,17.72808c-0.00529,0.04503 -0.01051,0.09011 -0.01568,0.13524c-0.01127,0.58414 -0.05933,1.14543 -0.16686,1.65104c-0.00926,0.10169 -0.01841,0.20352 -0.02748,0.30549c0.00332,0.32435 0.00664,0.64871 0.00997,0.97306l0.011,1.07389c0.00003,0.00299 0.00005,0.00597 0.00005,0.00897c0,0.22417 -0.09835,0.42538 -0.25426,0.56281c-0.17207,1.7772 -0.39949,3.55178 -0.84296,5.24102c-0.00954,0.15542 -0.01887,0.31085 -0.02797,0.46629l0.0898,0.01054l-0.17381,1.48037c-0.03904,0.37753 -0.35813,0.67194 -0.74599,0.67194c-0.41421,0 -0.75,-0.33579 -0.75,-0.75c0,-0.01597 0.0005,-0.03183 0.00148,-0.04755l0.0509,-0.92225c0.04806,-0.87015 0.1036,-1.74003 0.16451,-2.6097c0.00921,-0.20218 0.02426,-0.40784 0.04399,-0.61561c0.2364,-3.24585 0.54077,-6.48878 0.80392,-9.73107c0.01862,-0.22944 0.03745,-0.45885 0.05649,-0.68825c-0.00106,-0.18504 -0.00252,-0.37138 -0.00474,-0.55917c-0.00509,-0.43036 -0.00544,-0.86073 -0.00143,-1.29109c-0.07683,-6.89746 -0.44986,-13.78729 -0.74407,-20.67876c-0.07588,-1.77736 0.22595,-4.12229 -0.23118,-5.8329c-0.03878,-0.14514 -0.08741,-0.28996 -0.13937,-0.43477c-0.07982,0.82854 -0.15963,1.65708 -0.23945,2.48562c0.04591,0.59583 0.05319,1.21178 0.04611,1.81229c0.43488,3.8441 0.9078,7.88513 0.49333,11.5605l0.15408,-0.01093l0.10563,1.48856c0.00161,0.02004 0.00243,0.04031 0.00243,0.06077c0,0.33175 -0.21539,0.61319 -0.51396,0.7121c0.0619,3.31545 0.09966,6.63152 0.10376,9.95208c0.00247,2 0.00494,4 0.00742,6l0.00106,0.85734c0,0.00036 0,0.00072 0,0.00109c0,0.41421 -0.33579,0.75 -0.75,0.75c-0.36231,0 -0.66462,-0.25691 -0.73469,-0.59849l-0.32885,-1.44818l0.20343,-0.04619c-1.18102,-3.36833 -0.87646,-6.83053 -0.86673,-10.54735c0.01245,-4.75265 -0.14859,-9.54845 0.06927,-14.30593c-0.31305,-2.99947 -0.51223,-6.0068 -0.69799,-9.07327c0,0 -0.03955,-0.65295 0.56501,-0.77619l-0.06286,-0.46647c-0.00552,-0.03669 -0.00838,-0.07426 -0.00838,-0.11249c0,-0.41421 0.33579,-0.75 0.75,-0.75c0.15504,0 0.29909,0.04704 0.41866,0.12764l0.01511,-0.15681c0.03243,-0.38429 0.35463,-0.68608 0.74731,-0.68608c0.295,0 0.55022,0.17032 0.67269,0.41798l0.68482,1.31673l-0.22364,0.11631c1.45567,2.73518 1.17366,5.60348 1.3196,9.02171c0.08596,2.01335 0.17808,4.02636 0.26624,6.03942c0.27752,-2.23321 0.56748,-4.46318 0.81618,-6.6883c0.22215,-1.98762 0.44431,-3.97525 0.66646,-5.96287l0.1656,-1.48168c0.03729,-0.37935 0.35722,-0.67573 0.74637,-0.67573c0.41421,0 0.75,0.33579 0.75,0.75c0,0.0084 -0.00014,0.01677 -0.00041,0.02511l-0.04318,1.49591l-0.12135,-0.0035c-0.01618,0.14479 -0.03868,0.3461 -0.05487,0.49089c0.176,2.45263 -0.22453,4.92168 -0.53167,7.41414c0.65119,-4.42754 1.30561,-8.85456 1.97279,-13.27977l0.13639,-0.9046c0.04909,-0.36671 0.36318,-0.64953 0.74333,-0.64953c0.36074,0 0.662,0.25469 0.73377,0.59406l0.33798,1.44585l-0.24942,0.0583c0.76935,2.70064 0.42138,5.46258 0.39364,8.44984c-0.05157,5.55372 -0.10314,11.10743 -0.1547,16.66115c0.45758,-4.21757 0.88704,-8.43763 1.18735,-12.66967l0.08276,-1.16629c0.02423,-0.39234 0.35011,-0.70305 0.74855,-0.70305c0.38744,0 0.70626,0.29378 0.74586,0.67073l0.17644,1.47994l-0.22598,0.02694c0.29439,1.28331 0.3919,2.58105 0.40289,3.89534c0.03463,-0.0049 0.07002,-0.00743 0.106,-0.00743c0.33371,0 0.61652,0.21795 0.71384,0.51928l0.4886,1.39976l-0.16632,0.05806c1.66921,3.53957 1.55584,7.09076 1.6812,11.234c0.11833,3.91049 0.23665,7.82099 0.35498,11.73148c0.05381,-0.25468 0.10007,-0.49445 0.13492,-0.7152c1.08057,-6.84319 2.30181,-13.5352 3.90878,-20.27487c0.35262,-1.47888 0.7053,-2.95774 1.06027,-4.43606l0.03928,-0.04969l-0.01799,-0.00754l0.47778,-1.13977c0.10941,-0.27873 0.38086,-0.47606 0.6984,-0.47606c0.39599,0 0.7203,0.30689 0.74807,0.6958l0.12175,1.48805l-0.09876,0.00808c2.24053,8.74568 0.72543,19.24544 0.54367,28.02683c-0.01333,0.63804 -0.01538,1.27648 -0.00942,1.91515c0.03648,-0.18715 0.06817,-0.36518 0.09342,-0.5323c1.02967,-6.81554 1.95892,-13.64198 2.88427,-20.47242c0.2685,-1.9819 0.53699,-3.96379 0.80549,-5.94569l0.19285,-1.42354c0.04455,-0.37169 0.36094,-0.65981 0.74463,-0.65981c0.30524,0 0.56789,0.18235 0.68496,0.44405l0.0217,-0.90632c0.00837,-0.40695 0.34088,-0.73427 0.74984,-0.73427c0.39787,0 0.72338,0.30982 0.74845,0.70136l0.10948,1.48963l-0.14246,0.01047l-0.00158,0.06606c-0.00105,0.04367 -0.00209,0.08734 -0.00313,0.13101c0.63021,2.84161 0.59257,5.85252 0.80686,8.76825c0.35481,4.8276 0.72982,9.64041 1.19739,14.45168c0.31915,-1.29653 0.72239,-2.56314 0.91364,-3.52126c1.3137,-6.58141 2.79045,-13.13116 4.2475,-19.68204l0.32246,-1.44979c0.06887,-0.34313 0.37191,-0.60159 0.73532,-0.60159c0.29401,0 0.54851,0.16918 0.67146,0.4155l0.68955,1.31437l-0.0328,0.01721c0.65286,0.86777 1.23985,1.81842 1.46389,2.75879c0.43191,1.81289 -0.00582,4.31196 -0.01804,6.18182c-0.00868,1.32848 -0.01714,2.65695 -0.02558,3.98543c0.90312,-5.81865 2.00877,-11.52201 3.32082,-17.29518c0.88523,-3.8951 1.81649,-7.78306 2.62926,-11.69393l0.30235,-1.45469c0.06506,-0.34795 0.37038,-0.6113 0.7372,-0.6113c0.38274,0 0.69852,0.2867 0.7443,0.65705l0.20585,1.47487l-0.15507,0.02164c1.11473,3.89317 0.86054,7.91108 0.59584,12.00743c-0.32135,4.97304 -0.6233,9.92594 -0.75591,14.90327c0.89236,-5.86902 1.85631,-11.73885 1.91064,-17.67193l0.01023,-1.11659c0.00322,-0.41145 0.33777,-0.744 0.74998,-0.744c0.36736,0 0.67304,0.26412 0.73749,0.61283l0.29916,1.45545l-0.15552,0.03197c1.31288,3.44482 1.66645,7.31055 1.80607,11.14482c0.53335,-4.30341 0.91093,-8.69701 1.86919,-12.91104c0.225,-0.98947 0.44575,-3.94213 1.11751,-4.65374c2.40943,-2.55239 2.27907,-0.77368 2.88904,0.96802c0.89204,4.83524 1.73519,9.66449 2.50139,14.51424c0.38922,-4.27722 1.07353,-8.66893 0.952,-12.95239l-0.0412,-1.49611c-0.00025,-0.00796 -0.00038,-0.01595 -0.00038,-0.02397c0,-0.41421 0.33579,-0.75 0.75,-0.75c0.36807,0 0.67421,0.26514 0.73785,0.61484l0.295,1.45642l-0.17069,0.03457c0.86086,2.35083 1.13089,4.79484 1.11738,7.39903zM174.75835,149.41439c-0.00071,0.02385 -0.00142,0.0477 -0.00215,0.07157l0.06872,0.09568c-0.0219,-0.05373 -0.04411,-0.10952 -0.06657,-0.16724z" fill="#7e54d1" stroke="none" stroke-width="0.5" stroke-linecap="butt"></path><path d="M176.23155,201.30798c0.71524,-1.01636 1.46007,-1.99903 2.35133,-2.89944l0.68351,-0.68799c0.13587,-0.13683 0.32414,-0.22155 0.53221,-0.22155c0.41421,0 0.75,0.33579 0.75,0.75c0,0.12997 -0.03306,0.25221 -0.09123,0.35879l-0.68495,1.31806l-0.11128,-0.05783c-0.08857,0.28133 -0.18233,0.56118 -0.28096,0.83963c0.21812,0.13117 0.36404,0.37014 0.36404,0.6432c0,0.13297 -0.03461,0.25787 -0.0953,0.36616l-0.70058,1.31026c-0.00548,0.01026 -0.01097,0.02052 -0.01644,0.03079c-0.13807,0.57949 -0.55152,1.27696 -0.96582,1.91444c-1.73806,3.60884 -3.33744,7.66651 -5.63381,10.89934c-0.07291,0.16257 -0.14195,0.32683 -0.20293,0.4895l0.03625,0.01801l-0.13827,0.27836c-0.03024,0.09735 -0.05651,0.19336 -0.07787,0.28726c2.60786,-2.98358 5.27662,-5.90316 8.07347,-8.76452c1.85831,-1.90117 3.40893,-3.93728 5.5677,-5.20097l-0.16688,-0.28595l1.28446,-0.74959c0.11344,-0.06897 0.24663,-0.1087 0.38909,-0.1087c0.41421,0 0.75,0.33579 0.75,0.75c0,0.17665 -0.06107,0.33904 -0.16326,0.4672c-0.30803,0.39385 -1.53612,1.96409 -1.84415,2.35794c-4.30223,5.50086 -8.72097,10.908 -13.08896,16.35662c-0.73101,0.91187 -1.60124,2.35041 -2.57774,3.59226c3.73842,-1.92463 8.15494,-3.61432 12.22154,-4.13691l-0.04583,-0.14285l1.41162,-0.45291c0.077,-0.0267 0.15971,-0.04121 0.2458,-0.04121c0.41421,0 0.75,0.33579 0.75,0.75c0,0.30304 -0.17973,0.56411 -0.43841,0.68241l-1.33551,0.64577c-2.52457,1.21844 -5.23343,2.09832 -7.90696,3.0002c1.45754,-0.24123 2.91527,-0.48118 4.37229,-0.72458c1.38623,-0.23157 3.20973,-0.83357 4.60666,-0.75039c1.41004,0.08397 3.01956,0.676 4.46884,1.34723l0.01621,-0.05542l1.42367,0.41631c0.31994,0.08565 0.55554,0.37759 0.55554,0.72455c0,0.28804 -0.16237,0.53815 -0.40058,0.6638l-1.29985,0.71792c-1.67757,0.92654 -3.56537,2.37952 -5.38745,2.95903c-2.72148,0.86555 -6.24395,0.712 -9.08843,1.02973c-1.36037,0.15195 -3.1829,0.64119 -4.77417,0.63858c0.91727,0.4667 1.75677,0.91685 2.56769,1.45887c0.11044,0.04961 0.21312,0.09544 0.30634,0.13619l0.05991,-0.11905l1.32542,0.66706c0.2527,0.12063 0.42729,0.37853 0.42729,0.67721c0,0.41421 -0.33579,0.75 -0.75,0.75c-0.10157,0 -0.19843,-0.02019 -0.28678,-0.05678l-1.01001,-0.39101c-0.8013,-0.31021 -2.11603,-0.54926 -2.92431,-1.15609c0.07841,0.36881 0.08441,0.75772 0.14742,1.1308c0.27511,1.62903 0.21855,2.48768 1.30039,3.74619c2.51902,2.93038 5.57296,5.91169 7.61897,9.27226l0.1171,-0.09875l0.96404,1.14316c0.112,0.13104 0.17963,0.30114 0.17963,0.48703c0,0.41421 -0.33579,0.75 -0.75,0.75c-0.1514,0 -0.29232,-0.04486 -0.41019,-0.12201l-0.86215,-0.5447c-4.86523,-3.09895 -8.94431,-8.57669 -13.22607,-12.70761c-0.74343,0.11491 -1.49247,0.20223 -2.245,0.27002c0.00813,0.14138 0.01623,0.28275 0.02429,0.42413c1.72925,2.95815 3.38099,5.95569 4.99969,9.02471c1.39588,2.64655 3.04398,5.23782 4.04088,8.04741l0.15239,-0.0793l0.68572,1.31768c0.05829,0.10666 0.09142,0.22904 0.09142,0.35915c0,0.41421 -0.33579,0.75 -0.75,0.75c-0.20806,0 -0.39634,-0.08473 -0.53221,-0.22156l-0.54958,-0.55319c-1.65041,-1.66775 -2.85287,-3.6602 -4.17851,-5.59267c-1.2277,-1.78974 -2.43221,-3.59472 -3.63329,-5.40179c0.02989,0.06064 0.05976,0.12131 0.08961,0.18201c1.53136,3.11427 3.02368,5.94116 3.6013,9.23219l0.15247,-0.04385l0.40979,1.42491c0.0221,0.07072 0.03401,0.14595 0.03401,0.22395c0,0.41421 -0.33579,0.75 -0.75,0.75c-0.19793,0 -0.37795,-0.07667 -0.51198,-0.20193l-0.64047,-0.59509c-1.54549,-1.45016 -2.41687,-3.19936 -3.48598,-5.01656c-2.6879,-4.56873 -5.4151,-9.11239 -8.15469,-13.64947c-1.22907,0.04684 -2.45845,0.06972 -3.68763,0.07042c0.77437,4.20935 1.28325,8.47246 0.94483,12.51589l0.1031,-0.00768l0.11086,1.48786c0.00177,0.02101 0.00267,0.04226 0.00267,0.06372c0,0.41421 -0.33579,0.75 -0.75,0.75c-0.2599,0 -0.48892,-0.1322 -0.62349,-0.33302l-0.78615,-1.13948c-1.53309,-2.22214 -3.00164,-4.48008 -4.44532,-6.75501c0.54536,3.85666 1.03376,7.71704 1.44453,11.60131l-0.06154,0.11133l0.04528,0.00989l-0.19388,0.88789c-0.06782,0.34447 -0.3715,0.60429 -0.73586,0.60429c-0.32669,0 -0.6046,-0.20888 -0.70745,-0.50037l-0.52579,-1.38612l0.10069,-0.0382c-2.68269,-4.79747 -4.13025,-10.73957 -5.38181,-16.36486c-0.43985,3.25907 -0.77433,6.54238 -1.25553,9.69906c-0.24632,1.61585 -0.22525,4.24558 -0.80309,6.17853c-0.02698,0.36231 -0.05234,0.72209 -0.07547,1.07905l-0.09662,1.4912c-0.0222,0.39428 -0.34896,0.70717 -0.7488,0.70717c-0.39067,0 -0.71157,-0.2987 -0.74679,-0.68017l-0.14679,-1.39602l0.2295,-0.02413l0.01264,-0.19503c0.01062,-0.16386 0.02163,-0.32809 0.03299,-0.49267c-0.07234,-1.20819 0.0765,-2.42147 0.28596,-3.65452c0.31802,-3.85892 0.6347,-7.80826 0.37419,-11.56232c-0.05959,-0.85871 -0.34189,-1.79693 -0.58456,-2.73757c-0.73506,5.66255 -2.27767,11.41558 -3.20374,16.9463c-0.24771,1.4794 -0.49543,2.95881 -0.74314,4.43821l-0.24567,1.46721c-0.05392,0.36126 -0.36547,0.63834 -0.74174,0.63834c-0.41421,0 -0.75,-0.33579 -0.75,-0.75c0,-0.0329 0.00212,-0.06531 0.00623,-0.09709l0.17066,-1.47899l0.07512,0.00867c0.01007,-0.06015 0.02615,-0.15615 0.03622,-0.2163c-0.61125,-7.23532 2.03111,-14.9935 3.80423,-22.03587c-0.42339,-0.04583 -0.84562,-0.09077 -1.26636,-0.13807c-2.31928,4.44846 -4.70023,8.91549 -6.59085,13.56116c-0.40076,1.41068 -0.86741,3.02066 -1.55726,4.17623c-0.11676,0.32812 -0.23353,0.65624 -0.35031,0.98435l-0.00926,0.01102l0.00433,0.00172l-0.52918,1.33165c-0.10593,0.28568 -0.38091,0.48927 -0.70344,0.48927c-0.41421,0 -0.75,-0.33579 -0.75,-0.75c0,-0.09316 0.01698,-0.18234 0.04802,-0.26464l0.49056,-1.39903l0.05643,0.01979c0.10465,-0.29425 0.20931,-0.58849 0.31397,-0.88273c0.65891,-2.89244 1.96379,-5.7114 3.04119,-8.44438c0.91593,-2.32339 1.84493,-4.64042 2.78362,-6.95334c-1.24138,1.94648 -2.457,3.90986 -3.61484,5.91173c-1.5185,2.62544 -2.66706,5.50146 -4.56399,7.80426l0.19542,0.13607l-0.85103,1.22229c-0.13482,0.19922 -0.36291,0.33017 -0.62157,0.33017c-0.41421,0 -0.75,-0.33579 -0.75,-0.75c0,-0.00388 0.00003,-0.00776 0.00009,-0.01163c-0.6618,1.27627 -1.3236,2.55255 -1.98539,3.82882c-1.31585,2.77782 -2.67453,5.53066 -4.08127,8.26912c-0.353,0.7861 -0.73949,1.57786 -1.17575,2.26415c-0.31433,0.59884 -0.63103,1.19713 -0.95017,1.79499l-0.57523,1.07759c-0.12388,0.24361 -0.37692,0.4105 -0.66894,0.4105c-0.41421,0 -0.75,-0.33579 -0.75,-0.75c0,-0.10389 0.02112,-0.20284 0.05931,-0.29281l0.54764,-1.37813l0.15244,0.06058c0.07336,-0.13764 0.14659,-0.27531 0.2197,-0.41301c0.8526,-2.69264 2.49019,-5.17572 3.80202,-7.70557c0.69208,-1.33467 1.38416,-2.66934 2.07624,-4.00401c1.15937,-2.44809 2.28533,-4.91574 3.38153,-7.41036c1.40137,-3.18909 3.04001,-6.25751 4.72854,-9.3009c-1.11682,0.13423 -2.23365,0.26845 -3.35047,0.40268c-5.34002,0.64019 -10.74843,0.48601 -16.09524,1.10995c-3.77425,0.44043 -7.89289,1.39865 -11.76028,1.2193c-0.03905,0.00799 -0.0781,0.01597 -0.11715,0.02395l-0.06205,0.01268l0.0148,0.13559l-1.48045,0.16158c-0.03017,0.00369 -0.0609,0.00559 -0.09207,0.00559c-0.41421,0 -0.75,-0.33579 -0.75,-0.75c0,-0.36765 0.26454,-0.67352 0.61366,-0.73764l1.45585,-0.29744c1.96597,-0.40166 3.92845,-0.81513 5.90384,-1.16798c3.87481,-0.69198 7.74992,-1.38163 11.6235,-2.07982c-0.45195,-0.00813 -0.90492,-0.01241 -1.35917,-0.01241h-1.5c-0.37795,0 -0.69061,-0.27957 -0.74245,-0.64319c-2.29462,0.0667 -4.589,0.13888 -6.88225,0.23805c-3.31429,0.14332 -6.71781,0.70145 -10.01942,0.41189l0.01018,0.17393l-1.4909,0.08725c-0.01664,0.0011 -0.03343,0.00166 -0.05035,0.00166c-0.41421,0 -0.75,-0.33579 -0.75,-0.75c0,-0.34184 0.2287,-0.63026 0.54143,-0.72062l0.722,-0.2269l0.00507,0.01612l0.03125,-0.02653c6.86666,-1.42314 13.73489,-2.83872 20.60243,-4.25762c0.64997,-0.13429 1.44576,-0.36345 2.29512,-0.58538c-4.44339,-0.62359 -8.81886,-1.4586 -13.18881,-2.64048c-2.6881,-0.72702 -5.01402,-1.17295 -7.16502,-2.53096l-0.10774,0.20435l-1.31301,-0.69228c-0.24554,-0.12322 -0.41407,-0.3773 -0.41407,-0.67074c0,-0.41421 0.33579,-0.75 0.75,-0.75c0.05132,0 0.10144,0.00515 0.14987,0.01498l1.00603,0.18445c0.48946,0.07334 0.97891,0.14668 1.46837,0.22002c0.1432,0.02147 0.28631,0.04334 0.42933,0.06561c-0.12776,-0.05291 -0.25555,-0.10562 -0.38338,-0.15812c-3.66531,-1.50532 -7.63456,-2.88033 -10.85302,-5.23603l-0.07586,0.14494l-1.315,-0.68829c-0.24668,-0.12282 -0.41616,-0.37751 -0.41616,-0.67179c0,-0.41421 0.33579,-0.75 0.75,-0.75c0.06081,0 0.11992,0.00724 0.17653,0.02089l1.27229,0.27928c3.90883,0.85991 7.73036,2.27502 11.5506,3.4679c6.43806,2.01031 12.72684,4.46004 19.04653,6.81538c-2.16788,-1.53005 -4.26557,-3.16269 -6.3247,-4.80189c-4.68978,-3.73337 -9.34578,-7.51399 -14.10688,-11.15606c-2.73012,-2.08844 -5.82913,-4.02708 -8.24429,-6.50999l-0.0989,0.12773l-1.17983,-0.91351c-0.18049,-0.13696 -0.29705,-0.35378 -0.29705,-0.59783c0,-0.41421 0.33579,-0.75 0.75,-0.75c0.08609,0 0.16879,0.0145 0.24579,0.0412l0.73611,0.23617c2.86863,0.93491 5.34516,3.05132 7.84485,4.72871c0.82283,0.55215 1.64011,1.11079 2.45284,1.67493c0.02451,-0.00242 0.04936,-0.00365 0.0745,-0.00365c0.13709,0 0.26559,0.03678 0.37617,0.10102l1.29929,0.72191c2.62505,1.45857 5.22216,2.96768 7.82827,4.4598c4.38447,2.51033 9.07699,4.59877 13.55293,7.00366c-1.76331,-1.57855 -3.51133,-3.1843 -5.28059,-4.78904c-4.35232,-3.9485 -8.26775,-8.3635 -12.58309,-12.34986c-2.35375,-2.17431 -5.75079,-4.16731 -7.67296,-6.84508l-0.20396,-0.15444l-0.11018,0.10378l-0.65677,-0.6973c-0.12717,-0.13439 -0.20517,-0.31579 -0.20517,-0.51542c0,-0.41421 0.33579,-0.75 0.75,-0.75c0.17273,0 0.33182,0.05839 0.45861,0.15651l1.19,0.90107c5.57645,4.22359 10.81431,8.91573 16.30549,13.25485c2.68557,2.12213 5.41699,4.19581 8.23583,6.12715c-0.51716,-3.09737 -1.03431,-6.19474 -1.55147,-9.29211c-1.75957,-10.53846 -1.31752,-20.8409 -1.15986,-31.50925c0.07473,-5.05679 0.16736,-10.10862 0.29083,-15.15945c0.03721,-3.79536 0.07442,-7.59073 0.11163,-11.38609c0.08823,-8.99957 0.17646,-17.99914 0.26469,-26.9987c0,0 0.00735,-0.74996 0.75732,-0.74261c0.74996,0.00735 0.74261,0.75732 0.74261,0.75732c-0.02091,2.13322 -0.04183,4.26644 -0.06274,6.39967c0.07499,-0.02516 0.15527,-0.0388 0.23874,-0.0388c0.32247,0 0.59741,0.20351 0.70338,0.48911l0.54781,1.3776l-0.17604,0.07c0.24463,0.48784 0.45397,0.97909 0.63437,1.47466c-0.01286,-0.7762 -0.02572,-1.55241 -0.03722,-2.32865l0.00171,-0.00546h-0.00173l-0.0004,-1.49997c0,-0.00008 0,-0.00016 0,-0.00023c0,-0.41421 0.33579,-0.75 0.75,-0.75c0.09114,0 0.17849,0.01626 0.2593,0.04603c0.29104,-2.15528 0.58209,-4.31057 0.87313,-6.46585l0.19932,-1.47604c0.04442,-0.37183 0.36088,-0.6601 0.74467,-0.6601c0.40265,0 0.73119,0.3173 0.74922,0.71549l0.07809,1.4933l-0.18183,0.00951c0.59575,2.91747 0.49572,5.99316 0.65181,8.97821c0.21022,4.02013 0.46281,8.04206 0.65603,12.06536c0.01046,-0.1437 0.02158,-0.28732 0.0334,-0.43084l0.12318,-1.48786c0.02809,-0.38861 0.35226,-0.69515 0.74802,-0.69515c0.29975,0 0.55843,0.17585 0.67851,0.43001l0.66038,1.32495c0.19806,-1.62555 0.4127,-3.24796 0.64867,-4.86611c0.57555,-3.94666 1.13522,-7.89603 1.73595,-11.83893l0.07251,-0.09584l-0.02835,-0.01408l0.66007,-1.32878c0.11988,-0.25467 0.37883,-0.43095 0.67895,-0.43095c0.32233,0 0.59717,0.20334 0.70324,0.48875l0.54852,1.37732l-0.15416,0.06139c0.02284,0.05021 0.04528,0.10038 0.06734,0.15051c0.27776,-0.15923 0.59462,-0.1846 0.95654,-0.01967c0.63002,0.2871 0.71501,1.18764 1.02219,1.80812c1.11026,2.24262 1.07861,5.07241 1.39733,7.52622c0.03882,0.2989 0.07614,0.59794 0.11201,0.89712c0.1156,-1.87741 0.23664,-3.75446 0.35737,-5.63155v-1.32988v0c0,-0.41421 0.33579,-0.75 0.75,-0.75c0.29177,0 0.54463,0.16661 0.66863,0.40988l0.70024,1.30898l-0.34233,0.18313c1.02497,2.27602 0.88955,4.86902 1.1505,7.56342c0.25814,2.66543 0.4185,5.28779 0.50506,7.90119c0.2128,-2.16258 0.4279,-4.32469 0.64054,-6.48649c0.51938,-5.28018 0.91488,-10.54865 1.24378,-15.84376l0.04055,-0.92007c0.01526,-0.40075 0.34496,-0.72095 0.74945,-0.72095c0.37966,0 0.69344,0.28211 0.74314,0.64814l0.22489,1.47132l-0.28516,0.04359c0.53287,2.44066 0.24515,4.95601 0.21895,7.57684c-0.06772,6.77528 -0.53424,13.54042 -0.59179,20.31755c-0.08696,10.24139 -0.05874,20.4864 0.44391,30.71903c0.25881,5.26875 0.52465,10.53487 0.86,15.79624c0.01105,-1.5481 0.04686,-3.10032 0.1137,-4.65978c0.44478,-10.37742 1.11958,-20.75513 2.24174,-31.08529c0.9982,-9.1863 1.88237,-18.39008 2.61619,-27.60164l0.02969,-1.17036c0.00886,-0.40652 0.34118,-0.73333 0.74982,-0.73333c0.0806,0 0.15823,0.01271 0.231,0.03625c0.00249,-0.8068 -0.00605,-1.61382 -0.02715,-2.42107l0.00136,-0.00388l-0.00143,0.00002l-0.01627,-1.02592c-0.00008,-0.00461 -0.00013,-0.00923 -0.00013,-0.01386c0,-0.41421 0.33579,-0.75 0.75,-0.75c0.34897,0 0.64227,0.23834 0.72601,0.56111l0.40509,1.42708l-0.25399,0.0721c0.85427,2.34816 0.97785,4.87271 1.35045,7.44759c0.08626,0.59613 0.16545,1.1945 0.23828,1.79475c0.22221,-1.94419 0.47406,-3.88109 0.76794,-5.8071c0.06652,-0.49333 0.13305,-0.98667 0.19957,-1.48l0.10713,-0.79432c0.04436,-0.37189 0.36085,-0.66022 0.74468,-0.66022c0.22753,0 0.4314,0.10132 0.56895,0.26131l0.93446,1.07497l-0.25181,0.21889c1.18215,1.64184 1.54586,3.56205 2.25718,5.74585c1.07603,3.30343 1.60252,6.90761 1.88699,10.55863c0.07217,-0.02311 0.14909,-0.03558 0.22893,-0.03558c0.38339,0 0.69959,0.28767 0.74453,0.65893l0.03041,0.22231c0.61559,-6.36908 1.62505,-12.72337 2.46249,-19.06017l0.16843,-1.2745c0.04355,-0.37276 0.36044,-0.66204 0.7449,-0.66204c0.38728,0 0.706,0.29354 0.74581,0.67027l0.17743,1.47978l-0.16673,0.01999c0.92701,3.38139 0.89948,7.00959 0.94601,10.51628c0.07944,5.98613 0.11878,11.96935 0.11878,17.95601c0,1.98527 0,3.97055 0,5.95582c0.44912,2.56699 0.38594,5.22067 0.45662,8.02366c0.13864,5.49825 0.27729,10.9965 0.41593,16.49476c0.23171,9.18888 0.80236,18.38279 1.42331,27.55634c0.14233,-0.23978 0.2858,-0.48144 0.43005,-0.7254c1.41211,-6.02288 5.03209,-12.55872 7.91044,-17.01149l0.80898,-1.24858c0.13258,-0.21169 0.3679,-0.35246 0.63609,-0.35246c0.41421,0 0.75,0.33579 0.75,0.75c0,0.03023 -0.00179,0.06004 -0.00526,0.08933l-0.15665,1.48123l-0.15584,-0.01648c0.00518,0.30679 0.00292,0.61434 -0.00632,0.92247zM132.1644,225.29083c0.10013,0 0.19568,0.01962 0.28301,0.05523c-1.07135,-2.40017 -1.20112,-4.83486 -1.51168,-7.79026c-0.42998,-4.09201 -0.62462,-8.12503 -0.70592,-12.18091c-0.74214,5.49827 -1.4244,11.0035 -2.11246,16.50838c0.11583,0.74011 0.23162,1.48022 0.34651,2.22044c1.0531,0.45955 2.12246,0.88857 3.20966,1.28352c0.03588,0.00296 0.07173,0.0059 0.10755,0.00882c0.11218,-0.06683 0.24327,-0.10523 0.38333,-0.10523zM131.68839,228.45119c-0.23439,0.63544 -0.50225,1.26272 -0.79521,1.88298c0.20047,0.0085 0.39359,0.0141 0.57769,0.01554c0.15436,-0.3718 0.30887,-0.74356 0.4635,-1.1153c0.14758,-0.38003 0.29516,-0.76006 0.44276,-1.14008c-0.03357,-0.0045 -0.06713,-0.009 -0.1007,-0.0135c-0.15524,0.05269 -0.31018,0.10626 -0.46479,0.16062c-0.04105,0.06993 -0.08214,0.13985 -0.12325,0.20975zM123.61954,243.10236c0.22634,-0.38757 0.45491,-0.77376 0.68544,-1.15872c-0.03316,0.00024 -0.06688,-0.00047 -0.10118,-0.00216c-0.19858,0.38591 -0.39319,0.77286 -0.58427,1.16088zM135.08936,229.80114c0.00557,0.1636 0.00794,0.32807 0.00772,0.49367c0.48386,-0.00608 0.96772,-0.0115 1.45158,-0.01631l-0.12195,-0.78822l0.17676,-0.02735c-0.07851,-0.26255 -0.15107,-0.5264 -0.21856,-0.79142c-0.34668,-0.05419 -0.69332,-0.10704 -1.03995,-0.15874c-0.04869,0.4267 -0.13728,0.85739 -0.2556,1.28836zM136.50572,240.30597c0.11616,-0.88151 0.2385,-1.76208 0.37178,-2.63895c-0.26539,-0.02845 -0.53068,-0.05766 -0.79587,-0.08761c0.18734,0.89463 0.32568,1.80509 0.42409,2.72656zM137.17169,235.85168c-0.01769,-0.07824 -0.0354,-0.15634 -0.05312,-0.23429c-0.50091,0.03937 -1.0023,0.07672 -1.50429,0.11209c0.02946,0.09852 0.05821,0.19729 0.08626,0.29629c0.47112,0.05508 0.94258,0.10783 1.41435,0.15816c0.01871,-0.11084 0.03764,-0.22159 0.0568,-0.33225zM138.47955,230.02384l0.27664,-0.9523c-0.15979,-0.02798 -0.31942,-0.05622 -0.47887,-0.08477c0.00156,0.27324 0.00233,0.54653 0.00223,0.81986l-0.02099,0.04345l0.01685,0.00205l-0.05022,0.41194c0.062,-0.00045 0.124,-0.0009 0.186,-0.00133c0.02256,-0.07974 0.04534,-0.15938 0.06835,-0.23891zM143.12939,238.56713c0.14163,0.9079 0.28075,1.81539 0.41707,2.72273c1.71193,2.73669 3.43281,5.45712 5.23603,8.13369c-0.33166,-1.94092 -0.14689,-4.34792 -0.26265,-5.90866c-0.12709,-1.71351 -0.35333,-3.43329 -0.63646,-5.1525c-1.60525,-0.02443 -3.20976,-0.08538 -4.81234,-0.1789c0.01888,0.12718 0.03829,0.25505 0.05835,0.38365zM146.32092,225.26557c0.25883,0 0.48703,0.13111 0.62182,0.33054l0.14041,0.2019c0.1679,0.03367 0.3357,0.06822 0.50337,0.10357c-0.03311,-1.06997 -0.05532,-2.13989 -0.11138,-3.19781c-0.05,-0.94361 -0.1,-1.88721 -0.14999,-2.83082c-1.36066,-4.38649 -2.2507,-8.94458 -2.79622,-13.54865c-0.24374,5.61931 -0.3511,11.31849 -0.85082,16.93254c-0.00083,0.03259 -0.00373,0.06466 -0.00859,0.09608c-0.05638,0.62765 -0.1177,1.25423 -0.18471,1.8795c0.74882,0.08103 1.49959,0.18792 2.24985,0.31535c0.13743,-0.172 0.34898,-0.28219 0.58626,-0.28219zM152.63864,234.45464c0.46675,0.77114 0.93327,1.54237 1.39944,2.31376c0.60294,-0.02443 1.20882,-0.04258 1.81638,-0.05895c-0.41498,-0.74229 -0.83503,-1.48281 -1.26082,-2.22182c-0.21121,-0.27777 -0.42711,-0.55387 -0.64378,-0.82968c-0.54165,0.03876 -1.08226,0.07537 -1.62199,0.10924c-0.03105,0.00451 -0.0621,0.00902 -0.09316,0.01355c0.13373,0.22493 0.26822,0.44967 0.40394,0.67391zM162.66022,251.19291c0.42414,0.72092 0.81202,1.44271 1.23069,2.13631c-0.48096,-1.35721 -0.87556,-2.82035 -1.35496,-3.79529c-1.89457,-3.85292 -3.82144,-7.62488 -5.86408,-11.34833c-0.58362,0.01588 -1.16631,0.03166 -1.74711,0.05106c2.59893,4.30659 5.18446,8.62024 7.73545,12.95625zM150.88204,228.69282l-0.32568,0.09619l-0.20466,-0.69293c-0.26327,-0.06936 -0.52731,-0.13758 -0.792,-0.20439c-0.00285,0.49929 -0.0057,0.99858 -0.00855,1.49787c0.06635,0.09856 0.13221,0.19752 0.19762,0.29683c0.07842,0.01271 0.15703,0.0268 0.23609,0.0424v-0.16h0.80349c0.2023,0 0.38589,0.08009 0.5208,0.2103c-0.16757,-0.35311 -0.312,-0.71446 -0.42709,-1.08628zM156.26624,234.22513c0.5791,0.8044 1.15059,1.61389 1.71634,2.42724c0.45538,-0.0137 0.91088,-0.02932 1.36597,-0.04876c-0.63658,-1.05717 -1.28443,-2.11059 -1.94574,-3.16125c-0.543,0.01993 -1.07954,0.04151 -1.60239,0.07725c0.16858,0.26966 0.3246,0.50935 0.46582,0.70552zM166.38191,249.14694c-1.32807,-2.51353 -2.6709,-4.98767 -4.05437,-7.43409c0.02607,0.49272 0.05161,0.98548 0.07657,1.47829c1.32162,1.98791 2.63882,3.97898 3.97779,5.9558zM169.13004,239.90214c-0.45097,-0.80188 -0.78153,-1.61884 -0.92821,-2.44555c-0.08242,-0.46454 -0.74729,-3.04209 -0.60807,-4.14103l-1.11108,-0.55918c-0.2527,-0.12063 -0.42729,-0.37853 -0.42729,-0.67721c0,-0.38917 0.2964,-0.7091 0.67578,-0.74637l1.4817,-0.16551l0.01778,0.15915c4.83029,-1.05948 10.06951,-0.3065 14.74546,-1.79365c1.6665,-0.53002 3.41107,-1.87397 4.96083,-2.75514c-1.35827,-0.12881 -2.53181,-1.00572 -3.97174,-1.09147c-1.28353,-0.07644 -2.99845,0.52006 -4.27033,0.73254c-3.85165,0.64343 -7.70827,1.26258 -11.55311,1.94555l-0.38584,0.06854l-0.72052,0.42856c-0.11452,0.07087 -0.24955,0.11178 -0.39413,0.11178c-0.41421,0 -0.75,-0.33579 -0.75,-0.75c0,-0.17907 0.06275,-0.34348 0.16747,-0.47244l0.93165,-1.16787l0.12776,0.10192c1.50143,-2.52257 3.55817,-4.73299 5.40417,-7.02547c2.52141,-3.13124 5.05124,-6.25564 7.56181,-9.39536c-0.01241,0.0126 -0.02475,0.02518 -0.03703,0.03774c-2.5758,2.6352 -5.01788,5.34392 -7.40694,8.10771c0.04002,0.14414 0.03291,0.32085 -0.07234,0.52998c-0.19846,0.39435 -0.51223,0.43976 -0.73679,0.41038c-1.4523,1.69532 -2.88824,3.41041 -4.32618,5.14106c-0.46471,0.49329 -0.92948,0.98653 -1.39427,1.47974c0.10177,0.23345 0.14275,0.44507 0.09083,0.61466c-0.03484,0.11381 -0.46073,0.23562 -0.99582,0.34558c-0.61064,0.6479 -1.22131,1.29577 -1.83197,1.94365l-0.83807,0.88916c-0.13683,0.14585 -0.33132,0.23697 -0.54708,0.23697c-0.12708,0 -0.24679,-0.03161 -0.35167,-0.08739c0.02091,0.34062 0.04177,0.68125 0.06261,1.02189c0.37896,0.04218 0.759,0.08512 1.14044,0.12846l0.04522,0.02781l0.00431,-0.01711l1.05604,0.26573c0.33345,0.07619 0.58225,0.37462 0.58225,0.73117c0,0.37619 -0.27697,0.6877 -0.63812,0.74171l-0.79124,0.13274l-0.0332,-0.19791c-0.40089,0.13119 -0.81406,0.23503 -1.23576,0.318c0.00224,0.03687 0.00448,0.07375 0.00672,0.11062c1.37005,0.48494 2.60323,1.0549 3.7748,1.98891l0.12624,-0.16124l1.17516,0.92001c0.17853,0.1371 0.29361,0.35271 0.29361,0.5952c0,0.37264 -0.27176,0.6818 -0.62791,0.74011l-0.26032,0.04764c0.9513,0.85174 1.89452,1.71234 2.81241,2.59526zM161.5954,227.62019l0.15477,0.03576c0.00929,-0.07604 0.0191,-0.15176 0.02943,-0.22717c-0.09799,0.0109 -0.19602,0.02157 -0.29408,0.03199c0.01036,0.16691 0.0207,0.33382 0.03103,0.50074zM164.73626,222.54454c-0.20294,0.34116 -0.35868,0.71483 -0.48768,1.10615c0.24949,0.25597 0.62957,0.6403 0.98993,1.05831c0.38097,-0.40412 0.76197,-0.80821 1.143,-1.21227c1.40421,-1.69211 2.8122,-3.36364 4.23512,-5.01555c-0.05132,-0.14057 -0.09093,-0.27999 -0.12004,-0.41841c-0.24876,-0.12208 -0.42001,-0.37789 -0.42001,-0.67369c0,-0.10803 0.02284,-0.21072 0.06395,-0.30351l0.50328,-1.21008c0.08037,-0.19302 0.161,-0.38761 0.24176,-0.58364c-1.25061,1.87548 -2.44006,3.75211 -3.43715,5.66105l-0.63675,1.21777c-0.08917,0.17928 -0.24797,0.31782 -0.44102,0.38023l0.0295,0.43059c0.0015,0.01938 0.00227,0.03896 0.00227,0.05873c0,0.41421 -0.33579,0.75 -0.75,0.75c-0.36818,0 -0.6744,-0.2653 -0.73791,-0.61516l-0.14029,-0.69431c-0.01265,0.02127 -0.0253,0.04254 -0.03795,0.0638zM141.1849,235.83418c-0.02968,-0.19023 -0.06434,-0.38102 -0.10298,-0.57216c-0.40436,0.04081 -0.80883,0.08021 -1.21347,0.11823c0.25707,0.37002 0.50484,0.74767 0.74727,1.13054c0.22743,0.01811 0.45492,0.0356 0.68245,0.05246c-0.0376,-0.243 -0.07535,-0.48602 -0.11327,-0.72907zM143.50824,252.25658c-0.44398,-3.50027 -0.91955,-6.99071 -1.42748,-10.48085c-0.48244,-0.7719 -0.96414,-1.54475 -1.44665,-2.3178c-0.29355,-0.47033 -0.67146,-0.98617 -1.06208,-1.52917c-0.11458,-0.00995 -0.22915,-0.02006 -0.34371,-0.03031c1.01394,4.12769 2.09841,8.26962 3.40482,12.27818c0.21137,0.64856 0.54313,1.3533 0.87509,2.07996zM174.65489,202.05276c-1.29465,2.18021 -2.49496,4.57833 -3.56089,6.97054c1.12243,-1.78586 2.2738,-3.55483 3.47428,-5.3052c0.04401,-0.55522 0.04672,-1.1185 0.08661,-1.66534zM131.73566,233.60214c-0.02057,0.04916 -0.04113,0.09833 -0.0617,0.14749c0.00124,-0.00019 0.00248,-0.00039 0.00372,-0.00058c0.01888,-0.04723 0.03821,-0.09624 0.05797,-0.14691zM173.39353,208.53488c0.06704,-0.21189 0.13266,-0.42372 0.19671,-0.63533c-1.59496,2.47051 -3.12134,4.97937 -4.62658,7.50398c1.45903,-2.29919 2.99723,-4.55357 4.42987,-6.86866zM135.14112,233.21722c-0.01132,-0.00189 -0.02265,-0.00379 -0.03397,-0.00569c0.00274,0.00321 0.00546,0.00644 0.00815,0.00969c0.00861,-0.00133 0.01722,-0.00267 0.02583,-0.004zM129.70197,232.66615c0.02795,0.21797 0.05554,0.43599 0.08274,0.65405c0.13891,-0.2121 0.27783,-0.42419 0.41673,-0.6363c-0.16683,-0.00485 -0.33337,-0.01063 -0.49947,-0.01775zM163.53426,216.69219c-0.00497,0.09103 -0.01003,0.18205 -0.01517,0.27306l-0.06364,1.12509c-0.01946,0.39686 -0.3474,0.71265 -0.74909,0.71265c-0.30012,0 -0.55907,-0.17628 -0.67895,-0.43095l-0.66006,-1.32878l0.14221,-0.07064c-0.24735,-0.38656 -0.47411,-0.77716 -0.68289,-1.17192c-0.00215,0.08337 -0.0043,0.16673 -0.00645,0.2501c-0.00665,0.2574 -0.01299,0.51427 -0.01897,0.77065c0.0751,1.11732 0.14897,2.23473 0.22181,3.35222c0.72407,0.80038 1.45665,1.5956 2.19829,2.38871c0.34016,-0.76084 0.72204,-1.50958 1.13256,-2.26032c-0.34137,-1.17828 -0.59319,-2.39074 -0.81964,-3.60986zM160.14259,238.06148c-0.38368,0.02021 -0.76779,0.03722 -1.15204,0.05207c0.45593,0.66608 0.90879,1.33423 1.35959,2.00376c-0.07536,-0.68083 -0.13956,-1.36652 -0.20755,-2.05583zM126.88557,237.38435c-0.02462,-0.01142 -0.04926,-0.02305 -0.07393,-0.03487c-0.14353,0.23175 -0.28583,0.46308 -0.42639,0.69407l0.21025,0.02571c0.03344,0.00361 0.06622,0.00941 0.0982,0.01727c0.12299,-0.19321 0.24628,-0.38623 0.36982,-0.5791c-0.05935,-0.041 -0.11866,-0.08202 -0.17795,-0.12308zM124.62348,142.19574c0.01037,-0.0859 0.02079,-0.1718 0.03125,-0.25769l-0.14528,0.07241c0.03861,0.06171 0.07661,0.12347 0.11402,0.18528zM114.93265,238.4316c-2.70131,0.49798 -5.4043,0.98664 -8.10802,1.47133c4.06021,-0.24938 8.12169,-0.45188 12.15363,-0.93772c0.27153,-0.03263 0.54306,-0.06527 0.81459,-0.0979c-0.02335,-0.00241 -0.04659,-0.00472 -0.06973,-0.00692c-1.60644,-0.15319 -3.19956,-0.30242 -4.79048,-0.42879zM119.36422,235.44277c0.1377,-0.01306 0.27537,-0.02642 0.41302,-0.04008c-0.20305,-0.19948 -0.36955,-0.40311 -0.47699,-0.6062c-0.19162,-0.36221 -0.34478,-0.77995 -0.46953,-1.23396l-1.45573,-0.16907c-1.17095,-0.13727 -2.33847,-0.3517 -3.50197,-0.61048c-2.46514,0.58211 -5.06604,0.86663 -7.50903,1.37138c-3.4269,0.70803 -6.85361,1.41699 -10.28047,2.12523c6.57586,-0.36001 13.16646,-0.41197 19.74524,-0.71303c1.17266,-0.05365 2.35428,-0.08039 3.53545,-0.12379zM98.27929,226.54152c3.60043,0.82989 7.1669,1.81499 10.74056,2.79076c0.34565,0.09438 0.69338,0.18539 1.04242,0.27457c-0.01449,-0.0054 -0.02898,-0.01079 -0.04347,-0.01617c-6.08248,-2.2579 -12.12662,-4.6146 -18.32037,-6.54862c-1.90279,-0.59416 -3.80648,-1.24632 -5.72146,-1.85552c0.53094,0.30418 1.03293,0.57358 1.48642,0.75969c3.58456,1.47103 7.17154,3.13482 10.81589,4.5953zM120.62614,234.09505c0.19677,0.37195 0.51696,0.67489 0.79096,1.00068l0.05676,-0.05936c0.02112,-0.32706 0.04267,-0.65414 0.06456,-0.98125c-0.05076,-0.20234 -0.10215,-0.40488 -0.15403,-0.60758c-0.26328,-0.19384 -0.52625,-0.38811 -0.78895,-0.58281c-0.03074,0.19166 -0.13411,0.35906 -0.28097,0.47308c0.08876,0.27566 0.1916,0.5303 0.31167,0.75726zM118.10964,231.00535c-0.80989,-0.61081 -1.61843,-1.22497 -2.42684,-1.84182c-0.55788,-0.42568 -1.11578,-0.85127 -1.67378,-1.27668c-3.01602,-2.23192 -6.02262,-4.47641 -9.02547,-6.72811c-2.2928,-1.71926 -4.57842,-3.4376 -6.88133,-5.13063c-0.87436,-0.60083 -1.75185,-1.2161 -2.57587,-1.87577c-0.68048,-0.49025 -1.36322,-0.97755 -2.04886,-1.46127c4.13129,3.22327 8.22368,6.49489 12.3241,9.75909c3.88805,3.09514 7.91549,6.1817 12.30805,8.55518zM117.06438,221.63822c-0.12565,-0.75254 -0.2513,-1.50508 -0.37695,-2.25762c-3.31911,-2.25016 -6.48921,-4.702 -9.52489,-7.10079c-0.29782,-0.23534 -0.5949,-0.47172 -0.89132,-0.70903c1.82082,1.80392 3.65629,3.59331 5.55709,5.31694c1.75464,1.59147 3.48782,3.18443 5.23607,4.7505zM128.87393,163.59746c0.16075,-3.27326 0.27212,-6.54537 0.29392,-9.81296c0.05004,-7.49983 0.10007,-14.99967 0.15011,-22.4995c0.00201,-0.30114 -0.01821,-0.60217 -0.05403,-0.90263c-0.26076,1.0736 -0.51001,2.13701 -0.6586,3.24005c-0.60027,4.45591 -1.19999,8.87135 -1.49846,13.35843c-0.05115,0.76892 -0.10142,1.53786 -0.1508,2.30682c0.19333,1.22724 0.34532,2.50609 0.52484,3.85356c0.46434,3.48541 0.92869,6.97082 1.39303,10.45622zM117.19189,150.0753c-0.13546,1.00312 -0.27092,2.00624 -0.40638,3.00936c-0.39896,2.95444 -0.54517,6.02237 -1.38428,8.86943l-0.00025,0.02529l0.18012,0.02432l-0.19932,1.47604c-0.00551,0.04611 -0.0152,0.09093 -0.02868,0.13408c-0.09684,4.27705 -0.17295,8.55526 -0.23623,12.83703c-0.15632,10.57771 -0.60477,20.79297 1.13954,31.24006c0.04363,0.26131 0.08726,0.52261 0.13089,0.78392c-0.25,-2.63625 -0.5,-5.2725 -0.75,-7.90875c-0.98419,-10.37826 0.05701,-20.92996 0.47577,-31.34118c0.257,-6.38946 0.6504,-12.77038 1.07881,-19.14961zM121.26604,198.23477c-0.3084,-4.0749 -0.36381,-8.30322 -0.2561,-12.55278c-0.65658,-3.33285 -1.2744,-6.67648 -1.63327,-10.01143c-0.46572,-4.32792 -0.26385,-8.83991 -0.38249,-13.19605c-0.04308,3.61627 -0.0863,7.23253 -0.12945,10.8488c-0.12377,10.37133 -0.38543,20.68032 0.29325,31.03241c0.32984,5.03108 0.34182,10.22682 0.85369,15.2764c0.57315,0.35393 1.1504,0.70073 1.73208,1.03969c-0.78149,-5.98123 -0.36963,-12.23421 -0.44595,-18.26118c-0.01783,-1.40798 -0.03027,-2.79803 -0.03177,-4.17586zM145.78385,230.24091c-0.96392,-0.1692 -1.93096,-0.32825 -2.89744,-0.48522c-0.00025,0.00156 -0.0005,0.00313 -0.00075,0.00469l-0.07747,0.48345c0.99186,-0.00201 1.98374,-0.00278 2.97566,-0.00292zM145.62738,187.83095c-0.0086,-0.1343 -0.01571,-0.26816 -0.02128,-0.40156c-0.00696,-0.13128 -0.01391,-0.26256 -0.02087,-0.39384c-0.09449,1.69166 -0.18897,3.38331 -0.28346,5.07497c-0.00042,0.07693 -0.00082,0.15388 -0.00121,0.23082c-0.03308,6.65643 0.27406,14.23906 1.54751,20.78385c0.04745,0.24388 0.10045,0.48653 0.15812,0.72815c-0.18761,-3.54075 -0.37522,-7.0815 -0.56283,-10.62225c-0.272,-5.13338 -0.54399,-10.26676 -0.81599,-15.40014zM149.5693,226.20719c0.67308,0.02259 1.34616,0.04556 2.01923,0.06933c0.82622,0.02935 1.6586,0.04897 2.49335,0.05499c-0.10344,-0.07931 -0.18562,-0.18496 -0.23651,-0.30692l-0.60163,-1.35534l0.13363,-0.05932c-0.28604,-0.48118 -0.55204,-0.97582 -0.79962,-1.48246c-0.0093,0.30868 -0.02065,0.61729 -0.03402,0.92579l-0.06499,1.49466c-0.01506,0.40093 -0.34484,0.72134 -0.74946,0.72134c-0.36635,0 -0.67134,-0.26266 -0.73694,-0.60993l-0.30519,-1.45402l0.17757,-0.03727c-0.02522,-0.07003 -0.05001,-0.14017 -0.07437,-0.21043c-0.36988,0.1182 -0.78817,0.07243 -1.20831,0.02035c-0.0006,0.10491 -0.0012,0.20982 -0.0018,0.31473c-0.00364,0.63816 -0.00729,1.27633 -0.01093,1.91449zM162.22421,159.3888c0,-6.98016 -0.06832,-13.95631 -0.15845,-20.93585c-0.009,-0.69717 -0.14429,-1.54258 -0.29429,-2.43616c-0.76799,5.47852 -1.5504,10.96965 -1.97907,16.47139c-0.358,4.59475 -0.65045,9.17407 -0.88525,13.75394c0.1554,8.20037 -0.14924,16.84916 1.11428,24.87489c0.08332,-2.20205 0.17662,-4.40378 0.28335,-6.60511c0.35928,-7.41077 0.71539,-14.80419 0.81922,-22.22322l0.02097,-1.49854c0.00492,-0.40998 0.3388,-0.74082 0.74994,-0.74082c0.11813,0 0.22989,0.02731 0.32929,0.07597c0,-0.2455 0,-0.491 0,-0.73649zM154.16418,174.16032c-0.04951,-1.27857 -0.09251,-2.55734 -0.1278,-3.83633c-0.01241,-0.44965 -0.02447,-0.89929 -0.03619,-1.34891c-0.18177,-3.73978 -0.30181,-7.48373 -0.34459,-11.2338c-0.04453,-3.91839 -0.06335,-7.83008 -0.19891,-11.74122c-0.08302,-1.05583 -0.15479,-2.10382 -0.13778,-3.16121c-0.00602,-0.11268 -0.01216,-0.22537 -0.01844,-0.33805l-0.17286,0.0162l-0.13908,-1.48389c-0.00276,-0.02614 -0.00417,-0.05268 -0.00417,-0.07955c0,-0.41421 0.33579,-0.75 0.75,-0.75c0.33789,0 0.62359,0.22344 0.71741,0.53062l0.26239,0.79234l-0.04081,0.01351l0.06491,0.07843c0.04781,0.66864 0.08924,1.3374 0.12525,2.00627c0.45669,1.89412 0.28965,4.42682 0.30558,5.96496c0.06681,6.45339 0.1629,12.90079 0.33077,19.3516c0.06407,1.31509 0.13582,2.62967 0.21456,3.94381c0.07144,0.06558 0.13013,0.14483 0.17192,0.2336l0.65776,1.32415c0.07209,-1.83815 0.14417,-3.67631 0.21626,-5.51446c-0.08984,-2.79317 -0.18038,-5.58625 -0.27657,-8.37898c-0.21769,-6.32045 -0.2817,-13.08317 -1.47504,-19.30836c-0.47593,-2.48274 -1.82276,-4.81449 -2.41726,-7.28264c-0.01023,0.07586 -0.02046,0.15171 -0.0307,0.22757c-0.71328,4.65871 -1.17769,9.38242 -1.57113,14.11913c0.16092,3.32781 0.23546,6.66152 0.34294,9.94297c0.26933,8.223 0.52108,16.44489 0.73473,24.66876c0.37211,1.03798 0.70572,2.06866 1.00808,3.09721c0.02277,-0.41621 0.04554,-0.83242 0.06831,-1.24863c0.18869,-3.4491 -0.09352,-7.33065 1.02048,-10.6051zM156.52957,174.81304c0.00476,-0.12143 0.00952,-0.24286 0.01429,-0.36429l-0.16341,0.08117c0.05132,0.09435 0.10101,0.18872 0.14913,0.28311zM152.57535,211.74547c0.01951,2.66421 0.03083,5.32871 0.03358,7.99378c0.38789,1.07935 1.1194,2.07799 1.54645,3.12809c0.02361,-0.17444 0.04733,-0.34889 0.07113,-0.52337c-0.00667,-0.04399 -0.01338,-0.08795 -0.02015,-0.13189c-0.53947,-3.5015 -1.1964,-6.97692 -1.63101,-10.46661zM161.17866,222.58437c0.07177,1.12235 0.14266,2.24481 0.21287,3.36737c0.22646,-0.02274 0.45288,-0.0458 0.6791,-0.07057c0.14058,-0.58688 0.31174,-1.15752 0.50873,-1.71702c-0.23469,-0.29391 -0.44008,-0.55738 -0.60071,-0.72716c-0.26838,-0.28368 -0.535,-0.56785 -0.79999,-0.85261zM163.91705,225.58822c-0.04576,-0.03497 -0.09142,-0.0718 -0.13693,-0.11024c-0.01003,0.04348 -0.0201,0.0869 -0.03025,0.13026c0.05568,-0.00821 0.1114,-0.01504 0.16718,-0.02002zM162.03095,236.42991c0.30407,-0.02811 0.6075,-0.05963 0.91011,-0.09512c-0.3226,-0.2933 -0.64521,-0.58659 -0.96781,-0.87989c0.01935,0.325 0.03859,0.65001 0.05771,0.97501zM159.72882,234.04901c-0.07332,-0.02467 -0.14664,-0.04938 -0.21996,-0.07412c0.08357,0.13462 0.16693,0.2693 0.25008,0.40402c-0.01021,-0.11003 -0.02025,-0.22 -0.03012,-0.3299zM159.47799,230.69813c-0.06143,-1.01755 -0.1097,-2.03224 -0.14645,-3.04642c-0.00694,0.0005 -0.01388,0.00099 -0.02082,0.00148c-0.00146,0.06847 -0.00358,0.13676 -0.0064,0.20486c-0.02924,0.70792 0.27174,1.64826 -0.26673,2.10876c-0.14213,0.12155 -0.66524,0.09905 -1.25232,0.02815c0.29549,0.17092 0.61453,0.38707 0.94264,0.62972c0.24988,0.02376 0.49987,0.04828 0.75007,0.07345zM159.25585,226.1603c0.0099,-0.0008 0.0198,-0.0016 0.0297,-0.0024c-0.0482,-1.892 -0.05912,-3.78614 -0.04343,-5.69748c-0.22316,-0.2498 -0.4453,-0.50025 -0.66651,-0.7514c0.06253,0.77527 0.12626,1.55038 0.19131,2.3253c0.11197,1.33394 0.3729,2.74536 0.48893,4.12598zM157.60003,206.34535c0.24113,3.61107 0.49636,7.22217 0.7755,10.83044c0.29745,0.34558 0.5963,0.68956 0.89659,1.03219c0.00814,-0.44988 0.01751,-0.90102 0.02797,-1.3536c-0.05377,-0.79936 -0.10817,-1.59869 -0.16329,-2.39797c-0.27821,-0.08602 -0.48723,-0.32958 -0.52281,-0.62646l-0.19995,-1.47593l0.17014,-0.02305c-0.00149,-0.03689 -0.00298,-0.07378 -0.00448,-0.11068c-0.52273,-1.87481 -0.69459,-3.77048 -0.97116,-5.81196c-0.00284,-0.02099 -0.00568,-0.04198 -0.00851,-0.06297zM148.9529,155.09415c-0.05612,-3.81797 -0.18364,-7.64542 -0.59245,-11.38056c-0.04229,-0.38637 -0.11123,-0.79053 -0.19698,-1.20753c-0.50881,6.14298 -1.29939,12.27812 -1.70403,18.41688c-0.25548,3.87337 -0.47306,7.73253 -0.64855,11.58911c0.30335,0.08643 0.52825,0.35904 0.54328,0.68641c0.08469,1.59842 0.2485,4.69002 0.3332,6.28844c0.11584,-0.40523 0.25021,-0.79305 0.40778,-1.143c0.20895,-4.38138 0.53214,-8.75358 0.97652,-13.08897c0.34524,-3.36813 0.61735,-6.76132 0.88123,-10.16077zM152.40764,198.22024c0.13655,-2.49613 0.27311,-4.99227 0.40966,-7.4884c-0.18626,-0.87576 -0.3908,-1.74795 -0.62025,-2.61856c0.01298,0.54287 0.02578,1.08576 0.03839,1.62865c0.06564,2.82649 0.12318,5.65249 0.1722,8.4783zM135.13806,164.81625c0.03539,-2.21233 0.08973,-4.42502 0.16491,-6.6383c0.20202,-5.94788 0.42763,-11.7176 -0.14636,-17.64418c-0.12528,-1.29352 -0.38702,-2.75477 -0.61687,-4.25003c-0.2145,3.45647 -0.45699,6.91298 -0.70345,10.36966c0.17802,6.50621 -0.02219,13.03974 -0.07596,19.53573c-0.0157,1.8965 -0.02221,3.7936 -0.02111,5.69107c0.01404,-0.00078 0.02819,-0.00118 0.04243,-0.00118c0.38744,0 0.70626,0.29378 0.74586,0.67073l0.08769,0.7355c0.06563,-1.24743 0.13591,-2.49632 0.21068,-3.7472c0.09412,-1.57449 0.19878,-3.1484 0.31218,-4.7218zM134.41919,214.32685c0.06373,3.75227 0.10801,7.50484 0.11215,11.25829c0.28332,0.01731 0.56667,0.03412 0.85003,0.05045c0.11552,-0.0261 0.23102,-0.05144 0.34649,-0.07599c0.01671,-0.00568 0.03328,-0.0113 0.04972,-0.01687c-0.17377,-1.14511 -0.31794,-2.30281 -0.49764,-3.46426c-0.40322,-2.60611 -0.67489,-5.18098 -0.86075,-7.75162zM137.28291,199.21952c0.07076,0.7302 0.14179,1.46036 0.21325,2.19048c0.61726,6.30624 0.57547,13.13213 1.88689,19.32494c0.26617,1.25693 1.01154,2.78607 1.64826,4.33114c0.31896,0.00772 0.63879,0.0213 0.95927,0.04031c0.06621,-0.61411 0.12685,-1.22952 0.18263,-1.846l-0.21218,-1.39292l0.00031,-0.00005l-0.00046,-0.00093c-0.447,-2.98718 -0.81697,-5.96058 -1.11557,-8.96623c-1.01522,-10.21874 -1.54602,-20.46296 -2.04973,-30.71715c-0.50406,-10.26137 -0.53287,-20.5352 -0.44567,-30.80536c0.02247,-2.64613 0.10732,-5.29043 0.20644,-7.93422c-0.70589,7.13949 -1.40288,14.28357 -1.91915,21.43826c-0.12579,7.91514 -0.00825,15.82557 0.26529,23.74141c0.12206,3.53228 0.25027,7.06433 0.38041,10.59632zM132.33614,146.60414c-0.10935,-3.90138 -0.35744,-7.79253 -0.85963,-11.65888c-0.14847,-1.14306 -0.4173,-2.34088 -0.68209,-3.54013c0.04607,1.37894 0.00394,2.82244 -0.00652,4.38979c-0.04003,5.99987 -0.08006,11.99973 -0.12009,17.9996c-0.03918,5.87222 -0.36644,11.75884 -0.75021,17.6406c0.2304,1.73598 0.45966,3.4721 0.68797,5.20834c0.12247,-3.37714 0.26951,-6.75617 0.43887,-10.14174c0.33184,-6.63375 0.81888,-13.26597 1.2917,-19.89758zM121.55487,170.75127c0.02127,0.27669 0.04266,0.55336 0.06417,0.83002c-0.14773,-7.13752 -0.29546,-14.27504 -0.44319,-21.41256c-0.14399,-6.95678 -0.63309,-13.91203 -0.99644,-20.86073c-0.01326,-0.25358 -0.03853,-0.5329 -0.07088,-0.83144c-0.16183,1.19842 -0.32366,2.39685 -0.4855,3.59527c0.02694,0.07445 0.04243,0.15439 0.04434,0.23768l0.03616,1.35578c0.09773,0.82581 0.17908,1.66813 0.27885,2.53733c0.83495,7.27396 0.40085,14.69554 0.87555,22.01208c0.27,4.16157 0.46423,8.34927 0.69693,12.53657zM117.34618,174.79924c-0.45666,8.54239 -1.01987,17.14389 -0.21557,25.62523c0.55246,5.82563 0.54663,12.1817 1.27852,18.18317c-0.40659,-4.69586 -0.44248,-9.49457 -0.74794,-14.1538c-0.64863,-9.89375 -0.44337,-19.74807 -0.31501,-29.6546zM127.66954,211.7409c0.03351,0.26099 0.05873,0.51718 0.07293,0.76579c0.00362,0.02047 0.00724,0.04095 0.01086,0.06142c0.44832,-3.4351 0.9104,-6.86831 1.38811,-10.29905c0.35211,-2.52874 0.7042,-5.05748 1.05629,-7.58622c0.02363,-2.86317 0.06768,-5.72178 0.13081,-8.57862c-0.30557,-2.35343 -0.61231,-4.7067 -0.92066,-7.05978c-0.1303,1.96535 -0.25573,3.92923 -0.36764,5.89091c-0.45688,8.93518 -0.9138,17.87037 -1.3707,26.80555zM117.67666,225.30527c-4.67887,-2.63825 -9.65,-4.80725 -14.37497,-7.38268c3.96755,2.96712 7.9183,5.95487 11.85996,8.95741c1.01579,0.75174 2.03288,1.50179 3.05161,2.24973c-0.06336,-0.71109 -0.1288,-1.38203 -0.22497,-1.95804c-0.10388,-0.62214 -0.20775,-1.24428 -0.31163,-1.86643zM115.75933,149.47506c0.5045,-3.73598 1.00899,-7.47196 1.51349,-11.20793c-0.09041,-1.27791 -0.08603,-2.69079 -0.37881,-3.89895c-0.10794,-0.44544 -0.26785,-0.81778 -0.42488,-1.16485c-0.19662,3.93753 -0.38058,7.87482 -0.54033,11.81431c-0.06026,1.48606 -0.11664,2.97183 -0.16947,4.45742zM128.41159,171.48892c-0.07939,-0.59805 -0.15892,-1.19608 -0.23859,-1.7941c-0.5617,-4.21616 -1.1234,-8.43232 -1.6851,-12.64848c-0.39837,7.05879 -0.72133,14.1206 -0.96587,21.1885c-0.05561,1.60741 -0.1114,3.2183 -0.16369,4.83157c0.66934,4.09042 0.60746,8.43987 0.29795,12.72306c0.28783,3.02121 0.57566,6.04241 0.86349,9.06362c0.34088,-6.66625 0.68175,-13.33251 1.02265,-19.99876c0.25363,-4.44658 0.57727,-8.90456 0.86916,-13.36541zM124.20564,231.87443l-1.00748,-0.09221c-0.02091,0.29828 -0.04172,0.59655 -0.06238,0.89479c0.58081,0.4008 1.16374,0.80136 1.73878,1.21071c0.02349,-0.37046 0.04698,-0.74091 0.07047,-1.11137c0.01457,-0.22986 0.02917,-0.45973 0.04378,-0.68959c-0.00315,-0.00879 -0.00614,-0.01766 -0.00897,-0.0266l-0.00636,-0.01858l-0.54621,-0.20617c-0.07551,-0.0265 -0.14549,-0.06474 -0.20776,-0.11254zM124.11431,236.58333c-0.17358,0.0569 -0.34803,0.11129 -0.52328,0.16341c0.03377,0.29596 0.06648,0.60196 0.10092,0.90779c0.0455,0.01084 0.09093,0.02178 0.13629,0.03283c0.21571,-0.38493 0.43144,-0.76985 0.64681,-1.15497c-0.12012,0.01775 -0.24037,0.03471 -0.36074,0.05094zM120.79452,224.89818c0.18491,0.15662 0.37026,0.31274 0.55608,0.46833c0.17774,-0.91483 0.32853,-1.84167 0.45842,-2.777c-0.52367,-0.29902 -1.04378,-0.60555 -1.56039,-0.9187c0.02584,0.19532 0.0526,0.39035 0.08034,0.58508c0.12533,0.8797 0.28398,1.76086 0.46554,2.64229zM133.0235,223.20154c-0.03413,-6.33055 -0.17016,-12.65897 -0.30854,-18.98796c-0.19455,-1.26199 -0.37562,-2.52558 -0.53833,-3.79118c-0.16377,-1.27382 -0.32763,-2.54763 -0.49163,-3.82141c-0.00239,0.47303 -0.00421,0.9462 -0.00546,1.41953c-0.01726,6.53301 0.06503,12.87918 0.74798,19.37853c0.19899,1.89373 0.21111,3.93728 0.59598,5.80249zM135.87509,213.65303c0.18174,0.98565 0.36408,1.97101 0.54464,2.95629c-0.20428,-5.76353 -0.42177,-11.52657 -0.63415,-17.28979c-0.10544,-1.08827 -0.21027,-2.1766 -0.31504,-3.26495c-0.00379,1.66032 0.00244,3.32345 0.01907,4.9906c0.04267,4.27606 0.10398,8.43868 0.38548,12.60785zM142.91698,209.11886c0.07484,-2.00045 0.15556,-3.99429 0.26613,-5.97395c0.2063,-3.69346 0.41259,-7.38692 0.61889,-11.08038c0.04958,-8.9246 0.35813,-17.75999 0.87528,-26.64552c-0.92844,9.27409 -1.51223,18.58285 -1.91119,27.89121c-0.22792,5.31779 -0.09851,10.53207 0.15089,15.80864zM149.78038,220.06607c-0.05825,-0.28657 -0.11493,-0.57401 -0.17109,-0.86211c-0.00625,1.09386 -0.01249,2.18773 -0.01874,3.28159c0.01286,0.07365 0.02518,0.14743 0.03696,0.22133c0.54765,0.10956 0.13724,-1.07973 0.14302,-1.83047c0.00208,-0.27011 0.00547,-0.54022 0.00984,-0.81034zM162.22421,175.52061c-0.12862,3.02037 -0.27462,6.04071 -0.42119,9.06393c-0.21203,4.37348 -0.371,8.74855 -0.50397,13.12451c0.33585,1.66208 0.67169,3.32416 1.00754,4.98623c-0.01841,-4.11198 -0.08239,-8.22409 -0.08239,-12.32228c0,-4.9508 0,-9.90159 0,-14.85239zM158.07711,227.7293c-0.21986,0.01151 -0.43979,0.02195 -0.65978,0.03134c0.00141,0.35032 0.00266,0.70027 0.00382,1.0498c0.23557,0.11491 0.4577,0.1594 0.6515,0.00795c0.31589,-0.24685 0.19277,-0.65252 0.00446,-1.08909zM139.01805,225.09987c-0.35891,-1.12815 -0.66142,-2.28236 -0.91893,-3.4549c0.04157,1.17329 0.08103,2.34628 0.11239,3.5195c0.1596,-0.01609 0.3189,-0.0302 0.47788,-0.04224c0.1094,-0.00829 0.21895,-0.01573 0.32867,-0.02236zM124.18506,229.75177c-0.02644,-0.05913 -0.05265,-0.11831 -0.07862,-0.17756c-0.24102,-0.16187 -0.48019,-0.32708 -0.71841,-0.49448c-0.02261,0.32432 -0.04536,0.64861 -0.06817,0.97289l0.57169,-0.17263c0.09783,-0.04276 0.19567,-0.08549 0.29351,-0.12821zM153.96029,197.29878c-0.10069,1.84057 -0.20138,3.68114 -0.30207,5.52171c-0.15052,2.75146 0.00785,5.49094 0.31966,8.22298c0.34174,0.8875 0.76094,1.71711 1.31442,2.42348c0.07823,-0.96831 0.13689,-1.93755 0.16886,-2.90786c-0.2239,-3.52069 -0.56292,-7.01714 -1.08082,-10.45161c-0.14272,-0.94647 -0.28037,-1.88199 -0.42005,-2.80869zM154.30911,190.92255c0.47747,2.23308 0.86294,4.49465 1.22913,6.8368c-0.2964,-4.50028 -0.60381,-9.00142 -0.86968,-13.50433c-0.0075,0.19919 -0.0164,0.39673 -0.0271,0.59234c-0.11078,2.02506 -0.22157,4.05012 -0.33235,6.07519zM155.93686,176.33627c0.10798,1.56804 0.22506,3.13557 0.35007,4.70273c0.01918,-0.51459 0.03884,-1.02915 0.05902,-1.54369c0.01617,-0.41244 0.03235,-0.82487 0.04852,-1.23731c-0.03714,-0.3833 -0.09004,-0.75789 -0.16897,-1.11523c-0.06646,-0.3009 -0.17158,-0.56176 -0.28864,-0.8065zM126.6694,232.27597c-0.06181,-0.01584 -0.1234,-0.0323 -0.18477,-0.04939c-0.01601,0.24974 -0.03203,0.49948 -0.04803,0.74922c0.09009,-0.16685 0.17989,-0.33384 0.26938,-0.50099c-0.01218,-0.06619 -0.02436,-0.13247 -0.03657,-0.19884zM123.38286,234.90516c-0.03725,-0.0269 -0.07448,-0.0538 -0.11171,-0.08072c0.01349,0.05658 0.02692,0.11313 0.04027,0.16967c0.05108,-0.00665 0.10217,-0.01332 0.15324,-0.02002c-0.02736,-0.02303 -0.05462,-0.04601 -0.0818,-0.06893zM122.2812,237.35561c-0.00669,-0.03256 -0.01337,-0.06512 -0.02003,-0.09767c-0.04214,0.00735 -0.08549,0.01118 -0.12974,0.01118c-0.11229,0 -0.21882,-0.02468 -0.31446,-0.06891c-0.06186,0.01362 -0.12378,0.02705 -0.18576,0.04032c0.2178,0.03639 0.4345,0.07471 0.64999,0.11508zM132.42682,189.84702c-0.01749,0.1243 -0.03501,0.2486 -0.05255,0.37289c0.02287,0.1769 0.04574,0.3538 0.0686,0.5307c-0.00541,-0.30119 -0.01076,-0.60238 -0.01605,-0.90359zM123.51337,190.61796c0.04311,0.22421 0.08587,0.44832 0.12821,0.67233c0.00422,-0.23109 0.00864,-0.46217 0.01324,-0.69323c-0.06042,-0.63423 -0.12085,-1.26845 -0.18127,-1.90268c0.01327,0.64119 0.02654,1.28238 0.03981,1.92357zM119.79315,230.28693c0.31468,0.22993 0.62953,0.45963 0.94457,0.68911c-0.23659,-0.89607 -0.47289,-1.79445 -0.6982,-2.694l-0.14408,-0.24862l0.07179,-0.0416c-0.01781,-0.0719 -0.03553,-0.14381 -0.05318,-0.21572c-0.1492,-0.22916 -0.28916,-0.45884 -0.42057,-0.68921c0.1347,0.89681 0.19437,2.04799 0.29966,3.20006zM127.46304,228.33268c0.03879,-0.01636 0.07763,-0.03272 0.11652,-0.04907c-0.04033,-0.27461 -0.08098,-0.54918 -0.12192,-0.82371c-0.01374,-0.00175 -0.02747,-0.0035 -0.04121,-0.00525c-0.02123,0.16703 -0.04248,0.33405 -0.06376,0.50107c0.03657,0.12554 0.07338,0.2512 0.11038,0.37696zM133.98732,193.14595c0.03091,-3.34335 0.10154,-6.67819 0.20876,-10.01417c-0.11512,-1.11144 -0.23238,-2.22264 -0.35235,-3.33355c-0.01921,0.10268 -0.03825,0.20418 -0.05695,0.3043c0.04527,4.3486 0.11846,8.69735 0.20054,13.04342zM138.25778,227.26932c0.00106,0.0635 0.00208,0.127 0.00307,0.19051c0.58314,0.10699 1.16463,0.21411 1.74461,0.32184c-0.06199,-0.14644 -0.12277,-0.29347 -0.18238,-0.44108c-0.5218,-0.0229 -1.04356,-0.04661 -1.5653,-0.07127zM143.21748,227.47947c-0.03893,0.2962 -0.07935,0.59204 -0.12134,0.8875c0.9751,0.18904 1.94669,0.38237 2.91555,0.58236c-0.09495,-0.45994 -0.18837,-0.91892 -0.27944,-1.3768c-0.83836,-0.03007 -1.67661,-0.0609 -2.51477,-0.09305zM155.54525,230.37098c-0.07548,-0.28397 -0.14537,-0.56977 -0.21051,-0.85708c-0.77493,-0.22759 -1.56515,-0.46103 -2.36693,-0.69214c0.29594,0.48798 0.59143,0.97625 0.88662,1.46469c0.56566,0.02132 1.12892,0.04989 1.69082,0.08453zM155.87955,223.22268c-0.00652,-0.5772 -0.01409,-1.15496 -0.02298,-1.73312c-0.0389,0.28458 -0.07783,0.5691 -0.11661,0.85359c0.04731,0.29319 0.0939,0.58636 0.13959,0.87953zM159.3629,197.62899c0.10748,1.33753 0.21495,2.67507 0.32243,4.0126c0.0347,-1.26833 0.07088,-2.5366 0.10922,-3.8048c-0.18669,-0.92391 -0.37338,-1.84783 -0.56007,-2.77174c0.04171,0.85468 0.0847,1.70932 0.12842,2.56394zM160.92888,211.73654c0.3948,0.96068 0.86308,1.96361 1.20227,2.92019c0.06453,-1.52598 0.10799,-3.05388 0.13605,-4.58295c-0.38461,-1.90341 -0.76922,-3.80681 -1.15383,-5.71022c-0.06377,2.45754 -0.12367,4.91524 -0.18449,7.37298zM154.89652,227.82326c0.03715,0.01091 0.07428,0.02181 0.11137,0.03271c-0.00192,-0.01119 -0.00384,-0.02238 -0.00575,-0.03358c-0.03521,0.00031 -0.07041,0.0006 -0.10562,0.00087zM157.65102,226.26336c-0.08711,-0.92797 -0.17754,-1.85588 -0.26258,-2.78415c0.00971,0.93356 0.0166,1.86557 0.02182,2.79533c0.08028,-0.00355 0.16053,-0.00728 0.24076,-0.01118zM154.89476,217.31143c0.06935,-0.56962 0.13518,-1.1395 0.19602,-1.70968c-0.19714,-0.24101 -0.3938,-0.48294 -0.59007,-0.72584c0.12556,0.81227 0.25828,1.62407 0.39405,2.43551zM129.01054,227.69646c0.02481,-0.0099 0.04963,-0.01979 0.07446,-0.02967c-0.02679,-0.00341 -0.05358,-0.00681 -0.08037,-0.01022c0.00197,0.0133 0.00394,0.0266 0.00591,0.03989zM140.00427,233.86071c0.10577,-0.01011 0.21152,-0.02031 0.31727,-0.03061c-0.04163,-0.00303 -0.08326,-0.0061 -0.12489,-0.00921c-0.06412,0.01333 -0.12825,0.0266 -0.19239,0.03981zM164.14522,211.79452c-0.11788,-1.84209 -0.23133,-3.68478 -0.33804,-5.52787c-0.00506,1.22236 -0.01686,2.44436 -0.03825,3.66563c0.12543,0.62075 0.25086,1.24149 0.37629,1.86224zM128.4048,126.15807c-0.11549,0.83016 -0.23314,1.66004 -0.35224,2.48972c0.12657,-0.55571 0.28509,-1.14342 0.48553,-1.66846c-0.05532,-0.27608 -0.10168,-0.54997 -0.13328,-0.82127zM125.40242,148.89865c-0.57455,5.81882 -1.02203,11.65828 -1.55999,17.46773c0.02753,3.40624 0.09189,6.80818 0.23738,10.2114c0.33036,-9.10638 0.79035,-18.20305 1.37357,-27.29658c-0.01699,-0.12752 -0.03398,-0.25503 -0.05097,-0.38255zM123.83196,144.14851c-0.09511,1.97748 -0.08126,3.96937 -0.05323,5.95773c0.15194,-1.59076 0.31204,-3.18028 0.48472,-4.76755c-0.15429,-0.40107 -0.30315,-0.80008 -0.4315,-1.19018zM125.88354,217.2799c-0.00651,-0.04224 -0.01303,-0.08448 -0.01954,-0.12672c0.00547,0.062 0.01094,0.12399 0.01641,0.18599c0.00104,-0.01975 0.00209,-0.03951 0.00313,-0.05926zM131.92669,182.21685c0.13543,-1.11547 0.23317,-2.23882 0.34789,-3.35717c-0.01731,-1.89501 -0.02898,-3.78995 -0.03344,-5.68457c-0.12433,3.01562 -0.22969,6.02842 -0.31445,9.04174zM152.32417,236.83344c-0.56544,-0.93538 -1.13129,-1.87057 -1.6973,-2.80572c-0.63957,0.10128 -1.27818,0.19862 -1.91606,0.2921c0.18074,0.84655 0.35825,1.69903 0.52758,2.55511c1.02853,0.00226 2.05722,-0.01121 3.08578,-0.04149zM142.63741,235.09802c0.07936,0.51178 0.15029,1.03499 0.22258,1.57078c1.58581,0.09672 3.1736,0.16133 4.76221,0.1898c-0.14094,-0.77442 -0.29094,-1.54831 -0.44612,-2.32107c-1.51474,0.20777 -3.02652,0.39419 -4.53867,0.56049z" fill="#9966ff" stroke="none" stroke-width="0.5" stroke-linecap="butt"></path><path d="M167.53228,220.29939c0,-0.0149 0.0003,-0.02951 0.00088,-0.04383c-0.64999,1.33335 -1.31229,2.66221 -1.98981,3.9863l-0.11078,0.05684l0.03401,0.03379l-0.66937,0.6738c-0.13587,0.13684 -0.32415,0.22157 -0.53222,0.22157c-0.21037,0 -0.40052,-0.08662 -0.53671,-0.22613c-0.48971,0.94681 -0.99814,1.88651 -1.53129,2.81775c-0.54474,0.95149 -1.65443,3.73773 -2.6101,4.22976c-0.31864,0.16406 -0.68003,0.10909 -1.03732,-0.05116c0.66806,1.02386 1.27629,2.07596 1.77935,3.1684l0.14023,-0.09015l0.80517,1.25251c0.07902,0.11881 0.12507,0.26144 0.12507,0.41482c0,0.41421 -0.33579,0.75 -0.75,0.75c-0.18139,0 -0.34773,-0.06439 -0.47743,-0.17156l-1.14958,-0.93459c-2.89981,-2.3575 -5.6584,-4.88366 -8.32904,-7.49962c-0.21413,-0.20974 -0.42892,-0.40131 -0.63662,-0.58634c1.27536,3.27553 2.52339,6.93849 2.97155,10.38641l0.13839,-0.04217l0.43217,1.41815c0.02444,0.07401 0.03766,0.15313 0.03766,0.23533c0,0.41421 -0.33579,0.75 -0.75,0.75c-0.27006,0 -0.50679,-0.14274 -0.63884,-0.35689l-0.7943,-1.2437c-2.01527,-2.88338 -4.29279,-8.19619 -8.30109,-8.56105c-0.73992,-0.06735 -1.95542,1.38103 -2.36222,1.90982c-1.53381,1.99378 -2.97482,4.0503 -4.71477,5.83437l0.10855,0.08448l-0.9165,1.17768c-0.13703,0.17959 -0.35329,0.29547 -0.59662,0.29547c-0.41421,0 -0.75,-0.33579 -0.75,-0.75c0,-0.00101 0,-0.00201 0.00001,-0.00301l0.00364,-1.0613l0.02456,0.00008l-0.02045,-0.076c0.33469,-1.60232 1.05172,-4.46321 2.11479,-6.61477c-0.4934,0.49156 -0.98636,0.98342 -1.47887,1.47564c-0.36949,0.46013 -0.73007,0.90851 -1.0443,1.34594c-4.10165,5.70971 -8.96805,10.89153 -14.07414,15.72116l-0.9976,0.94359c-0.13449,0.12777 -0.31633,0.20617 -0.51648,0.20617c-0.41421,0 -0.75,-0.33579 -0.75,-0.75c0,-0.13637 0.0364,-0.26424 0.10001,-0.37443l0.7182,-1.30123l0.18474,0.10197c1.37842,-3.18551 3.87981,-5.33824 6.43324,-7.97605c3.03443,-3.13471 6.101,-6.2314 9.19564,-9.30351c0.95912,-1.17073 1.89766,-2.47359 1.85409,-3.60029c0.44214,-1.48824 -2.46884,-0.3242 -4.33716,0.59556c-0.11663,0.12252 -0.27427,0.20565 -0.45091,0.22736c-0.3092,0.15975 -0.56923,0.30247 -0.75166,0.40943c-0.18695,0.10961 -0.37422,0.21872 -0.56174,0.32745c0.14186,0.13645 0.23013,0.32821 0.23013,0.54059c0,0.26693 -0.13944,0.50128 -0.34946,0.6342l-1.24513,0.81465l-0.06064,-0.09268c-4.01662,3.55753 -9.38,6.2645 -13.83689,9.02172l-1.26564,0.78295c-0.11672,0.07492 -0.25557,0.11836 -0.40457,0.11836c-0.41421,0 -0.75,-0.33579 -0.75,-0.75c0,-0.2332 0.10643,-0.44154 0.27336,-0.57909l1.14662,-0.95831l0.09483,0.11347c2.37842,-2.86198 5.5484,-5.12661 8.84501,-7.1414c-2.1829,0.4486 -4.36446,0.90346 -6.542,1.38162c-2.74375,0.60249 -4.99539,1.2575 -7.54245,1.02884l-0.00889,0.21197l-1.49489,-0.06269c-0.40141,-0.01454 -0.72237,-0.34454 -0.72237,-0.7495c0,-0.27679 0.14994,-0.51856 0.37303,-0.64852l0.73167,-0.44321c4.22503,-2.5593 9.09992,-3.55384 13.5046,-5.83063c0.08993,-0.04648 0.18133,-0.09536 0.27408,-0.14625c-1.10222,-0.67464 -2.18746,-1.40932 -3.25926,-2.17187c-1.27017,-0.73849 -2.52909,-1.49714 -3.78149,-2.26733c-1.14344,-0.38999 -2.2321,-0.89901 -3.23764,-1.58869l-0.12235,0.21069l-1.28478,-0.74608c-0.23008,-0.12808 -0.38574,-0.37374 -0.38574,-0.65576c0,-0.116 0.02633,-0.22584 0.07335,-0.32388c-2.12893,-1.34522 -4.2571,-2.69086 -6.40822,-3.99371l-0.92496,-0.56023c-0.22311,-0.12995 -0.37307,-0.37173 -0.37307,-0.64854c0,-0.3553 0.24706,-0.65289 0.57876,-0.73036c-0.11723,-0.07933 -0.23447,-0.15866 -0.3517,-0.23799l-0.00804,0.01164l-1.2254,-0.8462c-0.20066,-0.1346 -0.33273,-0.36353 -0.33273,-0.6233c0,-0.41421 0.33579,-0.75 0.75,-0.75c0.15934,0 0.30707,0.04969 0.42855,0.13442c0.31571,0.21363 1.58222,1.07065 1.89793,1.28429c1.71714,0.67189 3.60836,2.39683 5.00097,3.45934c0.14587,0.10708 0.29189,0.21465 0.43809,0.32256c0.02233,0.0157 0.04448,0.03115 0.06646,0.04632c0.64418,0.44484 1.29141,0.90956 1.94203,1.3874c0.25501,0.12836 0.51034,0.25456 0.76622,0.37764c2.72505,1.31078 5.45076,2.61897 8.17992,3.9198c2.35463,0.36092 4.70639,0.75308 7.01456,1.28855l1.44637,0.33597c0.33986,0.07139 0.59504,0.37288 0.59504,0.73397c0,0.29569 -0.17112,0.55142 -0.41974,0.67356l-0.41406,0.21403c0.70963,0.22358 1.40974,0.45215 2.095,0.69067c0,0 0.70832,0.24654 0.46178,0.95486c-0.01809,0.05196 -0.03866,0.09879 -0.06125,0.14095l0.74445,0.35838c1.27954,-0.63763 2.50086,-1.03104 4.11548,-1.18633c0.69428,-0.06677 1.55848,-0.53909 2.09058,-0.08815c0.5321,0.45094 0.1706,1.38449 0.2559,2.07673c-0.00493,0.14256 -0.01768,0.28414 -0.0376,0.42477l0.87167,-0.61417c0.12348,-0.08941 0.27527,-0.14211 0.43938,-0.14211c0.41421,0 0.75,0.33579 0.75,0.75c0,0.10992 -0.02365,0.21431 -0.06613,0.30838l-0.5796,1.36543l-0.16318,-0.06927c-0.65697,2.08988 -1.64887,4.04864 -2.3613,6.11683c0.55785,-0.72843 1.22274,-1.41045 1.74279,-2.07869c1.14054,-1.46557 3.06896,-4.90214 5.29813,-4.85339c3.3692,0.07368 5.66047,3.05144 7.53359,5.95109c-0.84145,-2.83897 -1.60773,-5.72865 -2.72203,-8.46631l-0.55839,-1.37394c-0.03961,-0.09136 -0.06156,-0.19214 -0.06156,-0.29806c0,-0.41421 0.33579,-0.75 0.75,-0.75c0.20453,0 0.38993,0.08187 0.52523,0.21462l1.07114,1.04926l-0.09306,0.095c2.67325,1.91354 5.04567,4.4142 7.4773,6.7404c-1.44396,-2.0913 -2.95114,-4.13025 -4.46209,-6.17722l-0.00873,-0.00971l-0.06552,0.05254l-0.9347,-1.1656c-0.10539,-0.12917 -0.16859,-0.29411 -0.16859,-0.47382c0,-0.41421 0.33579,-0.75 0.75,-0.75c0.22255,0 0.42246,0.09693 0.55982,0.25089l1.00099,1.11261l-0.00918,0.00826l0.03265,0.01912c0.12309,0.16636 0.24744,0.33275 0.3728,0.49924c0.99063,0.68845 1.74499,1.84624 2.64951,2.68691c0.35815,0.33287 0.74718,0.63091 1.11801,0.94959c0.41422,0.35597 0.8879,1.53741 1.21459,1.09973c3.64093,-4.87787 5.85426,-11.47189 8.30621,-17.02064c2.16865,-4.90573 4.73049,-9.66588 7.12211,-14.46709l0.03437,-0.03295l-0.00992,-0.00657l0.79696,-1.20329c0.13333,-0.20791 0.36647,-0.34568 0.63179,-0.34568c0.392,0 0.71375,0.30073 0.74714,0.68406l0.13309,1.33968l-0.41452,0.04118c-0.07437,2.47965 -1.59096,4.74141 -2.67515,7.19685c-0.73339,1.66095 -1.47062,3.31651 -2.21701,4.9662c-0.04404,2.88265 -1.46757,6.2403 -2.22128,8.71147l-0.98519,0.5312c0,0 -0.75,0 -0.75,-0.75zM126.29625,229.8732c0.05392,-0.03063 0.1078,-0.06124 0.16163,-0.09181c-0.4591,-0.19805 -1.36242,-0.58773 -1.82153,-0.78578c-0.74973,-0.32548 -1.49046,-0.69231 -2.22319,-1.09146c-4.05614,1.91108 -8.42198,3.14401 -12.42476,5.14233c1.34987,-0.22775 2.82388,-0.3284 3.92674,-0.57058c4.12023,-0.90475 8.24546,-1.77419 12.3811,-2.6027zM129.0774,228.28237c-0.24209,-0.11285 -0.48417,-0.2257 -0.72626,-0.33855c-0.81005,-0.21706 -1.62356,-0.67773 -2.41354,-1.12814c-0.25721,-0.12064 -0.51436,-0.24138 -0.77147,-0.36222c-0.24968,0.1482 -0.50129,0.29221 -0.75464,0.43241c0.55811,0.33795 1.10279,0.69478 1.62741,1.08116c0.08154,0.03518 0.16309,0.07035 0.24463,0.10553l0.0654,-0.11969l1.30296,0.71196c0.11995,0.06255 0.22088,0.15658 0.29182,0.27113c0.38187,-0.21836 0.76014,-0.43603 1.1337,-0.65358zM167.97436,219.61332c0.07044,-0.23392 0.14007,-0.46752 0.20882,-0.70095c-0.1278,0.26599 -0.25604,0.5318 -0.38476,0.79743c0.05695,-0.04236 0.11757,-0.07354 0.17595,-0.09648zM122.65965,225.89442c0.19662,-0.1155 0.39545,-0.23006 0.59573,-0.34123c-0.08038,-0.03796 -0.16076,-0.07593 -0.24113,-0.11391c-1.04402,-0.3196 -2.0879,-0.64718 -3.11663,-0.99694c0.91965,0.49219 1.84905,0.96224 2.76203,1.45207z" fill="#754ec2" stroke="none" stroke-width="0.5" stroke-linecap="butt"></path></g></g></svg>