<svg version="1.1" xmlns="http://www.w3.org/2000/svg" xmlns:xlink="http://www.w3.org/1999/xlink" width="108.40964" height="80.5" viewBox="0,0,108.40964,80.5"><g transform="translate(-187.75471,-139.75)"><g data-paper-data="{&quot;isPaintingLayer&quot;:true}" fill-rule="nonzero" stroke-linejoin="miter" stroke-miterlimit="10" stroke-dasharray="" stroke-dashoffset="0" style="mix-blend-mode: normal"><g><path d="M202.47933,205.96668c-1.16207,-1.79713 -0.93636,-4.00908 0.50415,-4.94055c1.44051,-0.93147 3.55029,-0.22972 4.71236,1.56741c1.16207,1.79713 0.93636,4.00908 -0.50415,4.94055c-1.44051,0.93147 -3.55029,0.22972 -4.71236,-1.56741z" fill="none" stroke="#000000" stroke-width="0.5" stroke-linecap="butt"></path><path d="M204.39257,203.38982c0,0 -8.90902,7.25486 -11.44267,7.39912c-1.70209,0.09692 -3.6268,-2.46852 -3.6268,-2.46852c0,0 -1.94975,-2.03438 -0.58141,-4.03943c4.16913,-6.10908 15.48126,-10.01058 15.48126,-10.01058l9.7739,15.11524l-4.54341,2.93789l-2.98647,-4.61855z" fill="#989898" stroke="#000000" stroke-width="1" stroke-linecap="round"></path><path d="M196.9334,202.55658l-2.03622,-3.14901l3.19721,-2.0674l2.03622,3.14901z" fill="#00f6ff" stroke="none" stroke-width="0" stroke-linecap="butt"></path><path d="M201.41175,200.25619l-2.03622,-3.14901l3.19721,-2.0674l2.03622,3.14901z" fill="#00f6ff" stroke="none" stroke-width="0" stroke-linecap="butt"></path><path d="M192.72653,205.27684l-2.03622,-3.14901l3.19721,-2.0674l2.03622,3.14901z" fill="#00f6ff" stroke="none" stroke-width="0" stroke-linecap="butt"></path></g><path d="M204.82949,180c0,-21.81525 17.68475,-39.5 39.5,-39.5c21.81525,0 39.5,17.68475 39.5,39.5c0,21.81525 -17.68475,39.5 -39.5,39.5c-21.81525,0 -39.5,-17.68475 -39.5,-39.5z" fill="#d8d8d8" stroke="#000000" stroke-width="1.5" stroke-linecap="butt"></path><path d="M226.58224,167.20295l9,1v8" fill="none" stroke="#000000" stroke-width="1.5" stroke-linecap="round"></path><path d="M244.1816,175.68819v-8l9,-1" data-paper-data="{&quot;index&quot;:null}" fill="none" stroke="#000000" stroke-width="1.5" stroke-linecap="round"></path><path d="M249.57949,197.70833c0,0 -3.1365,0.94081 -8.75493,1.37635c-3.47652,0.2695 -7.16174,-1.20968 -7.16174,-1.20968" fill="none" stroke="#000000" stroke-width="1.5" stroke-linecap="round"></path><g><path d="M284.83735,200.96354c0.26661,-2.12343 2.20414,-3.62868 4.32756,-3.36205c2.12343,0.26661 3.62868,2.20414 3.36205,4.32756c-0.26661,2.12343 -2.20414,3.62868 -4.32756,3.36205c-2.12343,-0.26661 -3.62868,-2.20414 -3.36205,-4.32756z" fill="none" stroke="#000000" stroke-width="0.5" stroke-linecap="butt"></path><path d="M288.69829,200.31449c0,0 -14.29325,-0.53021 -16.86756,-2.1179c-1.7294,-1.06659 -1.60712,-4.27577 -1.60712,-4.27577c0,0 -0.31458,-2.82829 2.57263,-3.41386c8.79694,-1.78416 22.82082,2.8654 22.82082,2.8654l-2.24248,17.85977l-6.69741,-0.84093l0.6852,-5.45716z" fill="#989898" stroke="#000000" stroke-width="1" stroke-linecap="round"></path><path d="M282.09654,194.69828l0.46718,-3.72079l4.713,0.59177l-0.46718,3.72079z" fill="#00f6ff" stroke="none" stroke-width="0" stroke-linecap="butt"></path><path d="M288.23555,195.97301l0.46718,-3.72079l4.713,0.59177l-0.46718,3.72079z" fill="#00f6ff" stroke="none" stroke-width="0" stroke-linecap="butt"></path><path d="M275.89524,193.91963l0.46718,-3.72079l4.713,0.59177l-0.46718,3.72079z" fill="#00f6ff" stroke="none" stroke-width="0" stroke-linecap="butt"></path></g></g></g></svg>