<svg version="1.1" xmlns="http://www.w3.org/2000/svg" xmlns:xlink="http://www.w3.org/1999/xlink" width="101.42671" height="85.06217" viewBox="0,0,101.42671,85.06217"><g transform="translate(-439.75013,-139.74027)"><g stroke-miterlimit="10"><path d="" fill="none" stroke="#000000" stroke-width="1.5" stroke-linecap="round"/><g><path d="M450.9591,153.2163c14.78696,-16.03904 39.77638,-17.05404 55.81542,-2.26707c16.03904,14.78696 17.05404,39.77638 2.26707,55.81542c-14.78696,16.03904 -39.77638,17.05404 -55.81542,2.26707c-16.03904,-14.78696 -17.05404,-39.77638 -2.26707,-55.81542z" fill="#ffffff" stroke="#000000" stroke-width="1.5" stroke-linecap="butt"/><path d="M475.62801,141.067l34.29368,62.8163" fill="none" stroke="#000000" stroke-width="1.5" stroke-linecap="round"/><path d="M513.39232,200.11882l-30.33156,-58.04922" fill="none" stroke="#000000" stroke-width="1.5" stroke-linecap="round"/><path d="M516.32893,193.91196l-27.61888,-51.92688" fill="none" stroke="#000000" stroke-width="1.5" stroke-linecap="round"/><path d="M454.83051,150.0285l30.05791,8.49022" fill="none" stroke="#000000" stroke-width="1.5" stroke-linecap="round"/><path d="M451.79983,153.92008l34.29546,9.33272" fill="none" stroke="#000000" stroke-width="1.5" stroke-linecap="round"/><path d="M459.75993,146.49461l20.79469,5.24293" fill="none" stroke="#000000" stroke-width="1.5" stroke-linecap="round"/><path d="M516.75329,168.67486l-15.37602,-3.86867" fill="none" stroke="#000000" stroke-width="1.5" stroke-linecap="round"/><path d="M499.46451,160.53561l16.54539,4.11105" fill="none" stroke="#000000" stroke-width="1.5" stroke-linecap="round"/><path d="M495.8601,153.86977l16.68422,3.96047" fill="none" stroke="#000000" stroke-width="1.5" stroke-linecap="round"/><path d="M470.73161,141.84565l3.74323,6.51529" fill="none" stroke="#000000" stroke-width="1.5" stroke-linecap="round"/><path d="M506.90277,208.06429l-26.94379,-46.0117" fill="none" stroke="#000000" stroke-width="1.5" stroke-linecap="round"/><path d="M506.57706,167.92864l11.21795,19.25644" fill="none" stroke="#000000" stroke-width="1.5" stroke-linecap="round"/><path d="M493.56167,143.67225l6.2348,10.76234" fill="none" stroke="#000000" stroke-width="1.5" stroke-linecap="round"/><path d="M503.73285,154.99941l-4.86783,-9.22351" fill="none" stroke="#000000" stroke-width="1.5" stroke-linecap="round"/><path d="M511.93695,167.8559l6.74533,12.62584" fill="none" stroke="#000000" stroke-width="1.5" stroke-linecap="round"/><path d="M505.51453,209.57012l-54.84879,-55.02421" fill="none" stroke="#000000" stroke-width="1.5" stroke-linecap="round"/><path d="M503.11923,211.26175l-54.18771,-53.02187" fill="none" stroke="#000000" stroke-width="1.5" stroke-linecap="round"/><path d="M498.10751,212.76977l-52.80896,-51.19363" fill="none" stroke="#000000" stroke-width="1.5" stroke-linecap="round"/><path d="M493.76863,216.56957l-50.12202,-49.27357" fill="none" stroke="#000000" stroke-width="1.5" stroke-linecap="round"/><path d="M488.78046,218.65642l-47.09643,-42.5842" fill="none" stroke="#000000" stroke-width="1.5" stroke-linecap="round"/><path d="M441.48138,185.35672l38.74398,33.21236" fill="none" stroke="#000000" stroke-width="1.5" stroke-linecap="round"/><path d="M442.8293,193.56365l28.95624,24.18871" fill="none" stroke="#000000" stroke-width="1.5" stroke-linecap="round"/><path d="M506.77937,209.63544l-55.14891,-55.00275l28.10593,7.77826z" fill-opacity="0.39608" fill="#15ff15" stroke="none" stroke-width="0" stroke-linecap="round"/><path d="M476.74074,169.14187c-1.83883,1.99452 -5.71634,5.06832 -5.71634,5.06832l-2.53636,-2.71159c0,0 2.70855,-3.96555 4.45404,-5.85886c1.21464,-1.31748 4.04111,-3.86459 4.04111,-3.86459l2.63619,0.04212l0.77913,2.87476c0,0 -2.48859,3.18161 -3.6578,4.44981z" fill-opacity="0.39608" fill="#005200" stroke="none" stroke-width="0" stroke-linecap="butt"/><path d="M484.61178,177.07856c-1.83883,1.99452 -5.71634,5.06832 -5.71634,5.06832l-2.53635,-2.71158c0,0 2.70855,-3.96556 4.45404,-5.85886c1.21464,-1.31748 3.25033,-3.00683 3.25033,-3.00683l2.39857,4.01972c0,0 -0.68106,1.22102 -1.85025,2.48921z" fill-opacity="0.39608" fill="#005200" stroke="none" stroke-width="0" stroke-linecap="butt"/></g><g stroke-linecap="butt"><path d="M539.02914,213.67866c-0.68778,-0.01806 -1.18086,-2.48591 -1.10134,-5.51209c0.07951,-3.02619 0.70152,-5.46472 1.38929,-5.44664c0.68778,0.01806 1.18086,2.48591 1.10134,5.51209c-0.07951,3.02619 -0.70152,5.46472 -1.38929,5.44664z" fill="#daffff" stroke="#000000" stroke-width="1.5"/><path d="M520.62871,202.56117l17.93248,0.47123c0,0 -0.28064,3.15603 -0.43041,4.84018c-0.09951,1.1192 0.16594,2.90171 0.3889,4.1253c0.14335,0.78656 0.26911,1.34217 0.26911,1.34217l-18.43932,-0.1522c0,0 -16.82261,11.38817 -17.23295,10.84581c-3.13745,-4.14663 -0.10753,-33.84527 -0.07121,-35.227c0.01321,-0.50253 17.58342,13.75452 17.58342,13.75452z" fill="#ffffff" stroke="#000000" stroke-width="1.5"/><path d="M513.88683,199.01861c-0.01844,0.04282 -0.03783,0.08332 -0.05803,0.12163c0.00497,1.22114 -0.01117,2.44318 0.62344,3.56524c0.43693,0.77254 1.55104,1.18365 1.68589,2.06087c0.37907,2.46585 -2.58677,2.23598 -3.12481,4.05057c-0.4816,1.62426 0.83118,3.13117 0.9109,4.59421c0.06072,1.11433 -1.03147,3.32767 -1.5274,4.34572c-1.0954,2.24862 -2.48447,1.75125 -4.35396,2.9398c-1.39378,0.88612 -2.71706,2.15484 -4.08906,3.09188c-0.67396,-0.55773 -2.20304,-7.11102 -2.14813,-9.26032c0.1429,-5.5935 0.97075,-11.65038 1.11793,-17.25086c0.04283,-1.63012 -1.02369,-5.3865 0.01091,-6.76327c0.53868,-0.71686 0.83962,0.38963 1.60896,-0.07097c3.15799,2.16275 5.66266,4.11962 8.26467,6.86912c0.09825,0.01254 0.18699,0.03445 0.26712,0.06371l0.16971,0.02908c0,0 1.12776,0.48584 0.64192,1.61359z" fill="#01ff00" stroke="none" stroke-width="0.5"/></g></g></g></svg>