<svg version="1.1" xmlns="http://www.w3.org/2000/svg" xmlns:xlink="http://www.w3.org/1999/xlink" width="135.29618" height="80.5" viewBox="0,0,135.29618,80.5"><g transform="translate(-143.94235,-137.92395)"><g data-paper-data="{&quot;isPaintingLayer&quot;:true}" fill-rule="nonzero" stroke-linejoin="miter" stroke-miterlimit="10" stroke-dasharray="" stroke-dashoffset="0" style="mix-blend-mode: normal"><path d="M199.48853,178.17395c0,-21.81525 17.68475,-39.5 39.5,-39.5c21.81525,0 39.5,17.68475 39.5,39.5c0,21.81525 -17.68475,39.5 -39.5,39.5c-21.81525,0 -39.5,-17.68475 -39.5,-39.5z" fill="#d8d8d8" stroke="#000000" stroke-width="1.5" stroke-linecap="butt"></path><path d="M217.09444,165.86411l9,1v8" fill="none" stroke="#000000" stroke-width="1.5" stroke-linecap="round"></path><path d="M232.5346,174.67749v-8l9,-1" data-paper-data="{&quot;index&quot;:null}" fill="none" stroke="#000000" stroke-width="1.5" stroke-linecap="round"></path><path d="M230.98853,198.04895c0,0 0.3445,-8.61004 5.78628,-9.03188c5.30472,-0.41122 12.46372,8.03188 12.46372,8.03188z" fill="#040404" stroke="#000000" stroke-width="1.5" stroke-linecap="round"></path><g stroke="#000000" stroke-width="1"><path d="M210.59248,216.43573l-2.19219,-20.88527l8.20492,-0.86122l2.19219,20.88527z" fill="#af5400" stroke-linecap="butt"></path><path d="M217.43555,204.45593c0,0 -3.46976,-0.42035 -4.96993,-1.33291c-1.35049,-0.82149 -3.62935,-3.89799 -3.62935,-3.89799" fill="none" stroke-linecap="round"></path><path d="M216.98174,199.17445c0,0 -1.59039,3.48263 -2.74087,4.56662c-1.278,1.20416 -4.58486,2.33581 -4.58486,2.33581" data-paper-data="{&quot;index&quot;:null}" fill="none" stroke-linecap="round"></path><path d="M217.97458,204.80155c0,0 -1.59039,3.48263 -2.74087,4.56662c-1.278,1.20416 -4.58486,2.33581 -4.58486,2.33581" data-paper-data="{&quot;index&quot;:null}" fill="none" stroke-linecap="round"></path><path d="M218.30255,210.80009c0,0 -3.46976,-0.42036 -4.96994,-1.33291c-1.35049,-0.82149 -3.62935,-3.89799 -3.62935,-3.89799" data-paper-data="{&quot;index&quot;:null}" fill="none" stroke-linecap="round"></path><path d="M221.13365,192.79251c0.1326,1.26331 -3.58922,2.68937 -8.31291,3.18518c-4.7237,0.49581 -8.66051,-0.12637 -8.79311,-1.38968c-0.1326,-1.26331 3.58922,-2.68937 8.31291,-3.18518c4.7237,-0.49581 8.66051,0.12637 8.79311,1.38968z" fill="#8f8f8f" stroke-linecap="butt"></path><path d="M209.07231,192.68284l-5.08901,-48.48365c0,0 2.00438,-1.46726 3.10175,-1.58244c1.1388,-0.11953 3.61137,0.87781 3.61137,0.87781l5.08901,48.48365z" fill="#dddddd" stroke-linecap="butt"></path></g><path d="M163.76848,184.83067c-1.03256,1.48528 -3.605,0.56481 -5.4093,0.43542c-1.36102,-0.0976 -4.05832,-0.71089 -6.51054,-1.65182c-0.80098,0.59077 -1.83247,0.48762 -1.83247,0.48762l-3.79508,-0.37951c-1.27708,-0.11199 -2.27874,-1.18419 -2.27874,-2.49034c0,-1.22031 0.87433,-2.2364 2.03071,-2.45602l1.02243,-0.2157c0.05613,-0.11355 0.12072,-0.22594 0.19265,-0.3369l-2.64088,-1.31222c-0.10016,-0.62511 0.05444,-1.15036 0.39825,-1.5917c1.54897,-0.55491 3.09588,-1.11893 4.71549,-1.36051c1.51354,-0.22575 3.0473,0.29206 4.57496,0.38151c1.56153,0.09143 3.1246,0.15085 4.68802,0.2035c0.05091,0.14645 0.09035,0.30677 0.1157,0.48229c1.86449,0.16085 3.68311,0.40196 5.34391,0.84437c1.13046,0.30113 2.21362,0.74461 3.28707,1.21728c0.00154,0.0427 0.00232,0.08616 0.00232,0.13042c0,1.21704 -0.59248,1.84161 -1.20058,2.16213c0.50437,0.20843 1.04393,0.44393 1.63377,0.71075l-2.0555,1.48884c-0.3225,0.05582 -1.08708,0.2048 -2.04061,0.37563c0.26195,1.04577 0.33636,2.04366 -0.24159,2.87501z" fill="#0bff2c" stroke="none" stroke-width="0.5" stroke-linecap="butt"></path><path d="M195.04478,183.73141c-1.18266,-0.0166 -9.47104,-0.04322 -10.49772,-0.43283c-0.10953,-0.04156 -0.21719,-0.08653 -0.32316,-0.1346l-0.01434,0.04015l-2.62099,-0.93607c-0.99563,-0.32948 -1.71397,-1.26782 -1.71397,-2.37393c0,-1.14459 0.7692,-2.10953 1.81887,-2.40609l2.4306,-0.74788l0.03402,0.11058l0.261,-0.18207c0.70672,-0.04251 1.41263,-0.07717 2.11807,-0.10543l0.10139,-0.02535l0.40625,-0.24199l2.81632,-0.56326c0.17418,-0.03842 0.35518,-0.05867 0.54091,-0.05867c0.71037,0 1.35154,0.29628 1.80668,0.77202c1.30704,-0.00807 2.61542,-0.0075 3.92719,-0.0075c0,0 2.24739,0 2.48052,2.13083c1.2013,0.18225 2.1219,1.21941 2.1219,2.47159c0,1.33727 -1.04997,2.42931 -2.37049,2.4967l-3.2319,0.19011l-0.0022,-0.03733z" fill="#0bff2c" stroke="none" stroke-width="0.5" stroke-linecap="butt"></path></g></g></svg>