<svg version="1.1" xmlns="http://www.w3.org/2000/svg" xmlns:xlink="http://www.w3.org/1999/xlink" width="184.54687" height="112.56804" viewBox="0,0,184.54687,112.56804"><g transform="translate(-105.37706,-140.37071)"><g data-paper-data="{&quot;isPaintingLayer&quot;:true}" fill-rule="nonzero" stroke-linejoin="miter" stroke-miterlimit="10" stroke-dasharray="" stroke-dashoffset="0" style="mix-blend-mode: normal"><path d="" data-paper-data="{&quot;index&quot;:null}" fill="none" stroke="#000000" stroke-width="1.5" stroke-linecap="round"></path><path d="" data-paper-data="{&quot;index&quot;:null}" fill="none" stroke="#000000" stroke-width="1.5" stroke-linecap="round"></path><path d="" data-paper-data="{&quot;index&quot;:null}" fill="none" stroke="#000000" stroke-width="1.5" stroke-linecap="round"></path><path d="" data-paper-data="{&quot;index&quot;:null}" fill="none" stroke="#000000" stroke-width="1.5" stroke-linecap="round"></path><path d="" data-paper-data="{&quot;index&quot;:null}" fill="none" stroke="#000000" stroke-width="1.5" stroke-linecap="round"></path><path d="M289.92393,195.47556" data-paper-data="{&quot;index&quot;:null}" fill="none" stroke="#d8d8d8" stroke-width="4" stroke-linecap="round"></path><path d="M241.20089,220.12072c-21.81525,0 -39.5,-17.68475 -39.5,-39.5c0,-21.81525 17.68475,-39.5 39.5,-39.5c21.81525,0 39.5,17.68475 39.5,39.5c0,21.81525 -17.68475,39.5 -39.5,39.5z" fill="#d8d8d8" stroke="#000000" stroke-width="1.5" stroke-linecap="butt"></path><path d="M229.23032,168.76316l-17.15344,-6.06646" fill="none" stroke="#000000" stroke-width="1.5" stroke-linecap="round"></path><path d="M222.91576,171.85065l0.20919,7.1124" fill="none" stroke="#000000" stroke-width="1.5" stroke-linecap="round"></path><path d="M242.1845,165.37027l-11.59709,3.34419" fill="none" stroke="#000000" stroke-width="1.5" stroke-linecap="round"></path><path d="M235.65795,178.6271l0.20919,-6.69403" fill="none" stroke="#000000" stroke-width="1.5" stroke-linecap="round"></path><path d="M237.39081,185.8159c0,0 -2.44712,6.39517 -6.00657,7.52772c-3.85628,1.227 -16.31203,-0.42635 -16.31203,-0.42635" fill="none" stroke="#000000" stroke-width="1.5" stroke-linecap="round"></path><g><path d="" data-paper-data="{&quot;index&quot;:null}" fill="none" stroke="#000000" stroke-width="1.5" stroke-linecap="round"></path><path d="" data-paper-data="{&quot;index&quot;:null}" fill="none" stroke="#000000" stroke-width="1.5" stroke-linecap="round"></path><path d="" data-paper-data="{&quot;index&quot;:null}" fill="none" stroke="#000000" stroke-width="1.5" stroke-linecap="round"></path><path d="" data-paper-data="{&quot;index&quot;:null}" fill="none" stroke="#000000" stroke-width="1.5" stroke-linecap="round"></path><path d="" data-paper-data="{&quot;index&quot;:null}" fill="none" stroke="#000000" stroke-width="1.5" stroke-linecap="round"></path><path d="M146.05924,199.91237" data-paper-data="{&quot;index&quot;:null}" fill="none" stroke="#d8d8d8" stroke-width="4" stroke-linecap="round"></path><g stroke-width="0" stroke-linecap="butt"><path d="M138.33701,252.93875l-7.21213,-18.36242l9.43831,-0.89506z" fill="#aeaeae" stroke="none"></path><path d="M118.04061,219.20223l-11.04482,1.04742l-1.61873,-17.06927l11.04482,-1.04742z" fill="#a7ed95" stroke="none"></path><path d="M192.90539,204.37152l-42.17114,3.99919l-0.26661,-2.81141l42.17114,-3.99919z" fill="#c2c2c2" stroke="none"></path><path d="M199.40215,208.01046l-7.30173,0.69244l-1.12358,-11.84808l7.30173,-0.69244z" fill="#a6a6a6" stroke="#000000"></path><path d="M154.05003,235.4416l-36.57195,3.46821l-5.48461,-57.83471l36.57195,-3.46821z" fill="#73a367" stroke="none"></path><path d="M136.55968,183.68064l-9.43831,0.89506l3.63189,-19.39079z" data-paper-data="{&quot;index&quot;:null}" fill="#aeaeae" stroke="none"></path></g></g></g></g></svg>