<svg version="1.1" xmlns="http://www.w3.org/2000/svg" xmlns:xlink="http://www.w3.org/1999/xlink" width="65.875" height="65.875" viewBox="0,0,65.875,65.875"><defs><linearGradient x1="211.81356" y1="180.97947" x2="265.60899" y2="180.97947" gradientUnits="userSpaceOnUse" id="color-1"><stop offset="0" stop-color="#ffffff"></stop><stop offset="1" stop-color="#ffffff" stop-opacity="0"></stop></linearGradient></defs><g transform="translate(-207.0625,-147.0625)"><g data-paper-data="{&quot;isPaintingLayer&quot;:true}" fill-rule="nonzero" stroke-linejoin="miter" stroke-miterlimit="10" stroke-dasharray="" stroke-dashoffset="0" style="mix-blend-mode: normal"><path d="" data-paper-data="{&quot;index&quot;:null}" fill="#ffffff" stroke="none" stroke-width="0" stroke-linecap="round"></path><path d="" data-paper-data="{&quot;index&quot;:null}" fill="#ffffff" stroke="#ffffff" stroke-width="1.5" stroke-linecap="round"></path><path d="" data-paper-data="{&quot;index&quot;:null}" fill="#ffffff" stroke="#ffffff" stroke-width="1.5" stroke-linecap="round"></path><path d="" data-paper-data="{&quot;index&quot;:null}" fill="#ffffff" stroke="#ffffff" stroke-width="1.5" stroke-linecap="round"></path><path d="" data-paper-data="{&quot;index&quot;:null}" fill="#ffffff" stroke="#ffffff" stroke-width="1.5" stroke-linecap="round"></path><path d="M207.0625,180c0,-18.19088 14.74662,-32.9375 32.9375,-32.9375c18.19088,0 32.9375,14.74662 32.9375,32.9375c0,18.19088 -14.74662,32.9375 -32.9375,32.9375c-18.19088,0 -32.9375,-14.74662 -32.9375,-32.9375z" fill="#000000" stroke="none" stroke-width="0" stroke-linecap="butt"></path><path d="" data-paper-data="{&quot;index&quot;:null}" fill="#ffffff" stroke="#000000" stroke-width="1.5" stroke-linecap="round"></path><path d="" data-paper-data="{&quot;index&quot;:null}" fill="#ffffff" stroke="#000000" stroke-width="1.5" stroke-linecap="round"></path><path d="" data-paper-data="{&quot;index&quot;:null}" fill="#ffffff" stroke="#ffffff" stroke-width="1.5" stroke-linecap="round"></path><path d="M249.85267,204.84085c-21.00842,0 -38.03911,-10.6831 -38.03911,-23.86138c0,-13.17828 17.03069,-23.86138 38.03911,-23.86138c21.00842,0 21.00842,47.72277 0,47.72277z" fill="url(#color-1)" stroke="none" stroke-width="0" stroke-linecap="butt"></path><path d="M248.52122,199.28381c-1.31216,-0.35838 -2.60955,-0.96512 -3.88608,-1.49425c-1.9977,-0.64829 -4.00724,-1.28421 -5.95892,-2.03787c-1.51342,-0.58442 -2.9992,-1.28809 -4.47492,-2.01052c-1.31386,-0.50458 -2.56275,-1.01627 -3.73885,-1.81514c-2.32163,-1.08221 -4.64084,-2.18543 -6.976,-3.25108c0.88928,0.88645 1.823,1.72307 2.79593,2.46393c1.74528,1.329 3.81297,2.37358 5.67614,3.53446c4.89824,3.05914 10.76717,4.84896 16.19128,6.71766c2.70085,0.93049 5.4465,1.8486 8.21799,2.67269c0.78687,-0.03756 1.57475,-0.07207 2.36321,-0.10548c-0.04474,0.52736 -0.08148,1.07502 -0.09861,1.62632c-0.78827,-0.21533 -1.57494,-0.44006 -2.35957,-0.67236c-0.64617,0.03001 -1.29162,0.06179 -1.93613,0.09634c-3.61881,-0.32839 -7.23682,-0.66574 -10.85517,-0.99916c-2.16112,-0.19915 -4.36983,-0.1828 -6.39269,-0.99202c-2.86219,-1.14498 -5.72438,-2.28996 -8.58657,-3.43494c-1.70391,-0.68163 -4.04568,-1.18651 -5.54801,-2.23102c-0.64307,-0.44711 -1.23697,-1.34888 -1.76523,-1.9318c-2.20569,-2.43389 -4.96249,-4.82443 -6.81708,-7.5309c-0.85538,-1.24828 -1.31491,-3.04926 -1.9128,-4.44237c0,0 -0.16579,-0.38629 0.22051,-0.55208c0.38629,-0.16579 0.55208,0.22051 0.55208,0.22051c0.5757,1.34142 1.01758,3.12541 1.84765,4.31967c1.84933,2.66074 4.55351,5.01606 6.73261,7.4206c0.48421,0.53431 1.03189,1.39566 1.62219,1.80608c1.4418,1.00243 3.74117,1.48499 5.38035,2.14072c2.86219,1.14498 5.72438,2.28996 8.58657,3.43494c1.94004,0.77609 4.0825,0.74421 6.15757,0.93542c3.35619,0.30927 6.71275,0.61481 10.06859,0.92798c-1.93475,-0.61326 -3.85402,-1.2606 -5.7513,-1.91425c-5.4899,-1.89136 -11.39882,-3.71338 -16.36203,-6.79898c-1.88585,-1.17502 -3.9741,-2.23377 -5.74088,-3.57914c-1.54025,-1.17288 -2.98545,-2.57859 -4.31438,-4.04537c-1.54622,-0.68487 -3.10168,-1.34606 -4.67162,-1.96682c0,0 -0.39092,-0.15457 -0.23635,-0.54549c0.15457,-0.39092 0.54549,-0.23635 0.54549,-0.23635c1.03064,0.40751 2.05506,0.83236 3.07474,1.26985c-0.13409,-0.15977 -0.26677,-0.3196 -0.39799,-0.47925c0,0 -0.26693,-0.32475 0.05782,-0.59167c0.32475,-0.26693 0.59167,0.05782 0.59167,0.05782c0.49314,0.59997 1.00703,1.20261 1.54029,1.79595c2.73504,1.21494 5.44193,2.50166 8.14952,3.76814c0.1981,-0.06184 0.38035,0.07737 0.38035,0.07737c0.12718,0.09715 0.25589,0.19052 0.38601,0.28046c0.01547,0.00721 0.03093,0.01441 0.04639,0.02162c1.24859,0.58165 2.49422,1.21064 3.74764,1.82361c0.5807,0.21904 1.16841,0.4321 1.75649,0.66001c2.61309,1.01272 5.22617,2.02544 7.83925,3.03816c0.21586,0.08366 0.43243,0.17144 0.64968,0.26163c0.67291,0.21846 1.34448,0.43834 2.01207,0.6646c2.43108,0.82394 4.90606,1.45431 7.40235,2.00087c1.5712,0.27147 3.15095,0.51433 4.71284,0.77759c-0.00401,0.08861 -0.00803,0.17721 -0.01208,0.2658c-0.01043,0.22813 -0.03052,0.48541 -0.05646,0.76632c-1.66475,-0.3192 -3.32643,-0.64768 -4.97833,-1.01415c-1.85326,-0.32266 -3.69345,-0.68746 -5.47722,-1.17465z" fill="#ffffff" stroke="none" stroke-width="0" stroke-linecap="butt"></path><path d="M254.63054,191.54673c-4.9392,-1.11127 -9.84053,-1.94875 -14.85072,-2.6726c0,0 -0.41605,-0.06011 -0.35594,-0.47616c0.06011,-0.41605 0.47616,-0.35594 0.47616,-0.35594c5.03148,0.72692 9.9548,1.56846 14.91505,2.68446c1.52474,0.34305 3.04949,0.68611 4.57423,1.02916c-0.01037,0.28496 -0.02076,0.56987 -0.03119,0.85474c-1.57586,-0.35455 -3.15173,-0.7091 -4.72759,-1.06366z" fill="#ffffff" stroke="none" stroke-width="0" stroke-linecap="butt"></path><path d="M259.3276,161.36119c-3.0284,0.64808 -6.10907,1.22144 -9.06932,2.07699c-2.13335,0.61656 -4.22576,1.4895 -6.32077,2.22759c-4.7003,1.65595 -9.58672,3.07826 -14.13219,5.12063c0,0 -0.38344,0.17229 -0.55573,-0.21115c-0.17229,-0.38344 0.21115,-0.55573 0.21115,-0.55573c4.56711,-2.05209 9.47478,-3.48291 14.19739,-5.14672c2.11028,-0.74347 4.21773,-1.62122 6.3667,-2.2423c1.81241,-0.52381 3.66945,-0.94263 5.53215,-1.33731c-4.89389,0.00534 -9.7649,0.36698 -14.61308,1.10827c-4.75686,1.41375 -9.45167,2.58855 -13.8721,4.85741c0,0 -0.37399,0.19195 -0.56594,-0.18203c-0.19195,-0.37399 0.18203,-0.56594 0.18203,-0.56594c4.48257,-2.30075 9.24557,-3.50728 14.07228,-4.92985c5.86105,-0.90979 11.76307,-1.25162 17.69156,-1.09076c0.26915,0.0073 0.53711,0.0162 0.80403,0.02665c0.48463,-0.10413 0.96788,-0.21028 1.44905,-0.31988c0.23879,-0.05439 0.47862,-0.10559 0.71942,-0.15377c-0.02656,0.23204 -0.05375,0.46403 -0.08161,0.69598c-0.02915,0.24269 -0.05781,0.48548 -0.08597,0.72836c-0.63838,-0.04436 -1.28062,-0.08002 -1.92909,-0.10642z" fill="#ffffff" stroke="none" stroke-width="0" stroke-linecap="butt"></path><path d="M258.04835,158.22682c-1.6392,-0.12244 -3.34929,-0.40373 -4.99167,-0.37465c-4.12448,0.07302 -8.36007,0.93531 -12.33101,1.95528c-4.10589,1.05463 -8.31979,2.52157 -12.02084,4.65171c-1.13333,0.65229 -2.17643,1.62073 -3.22694,2.40158c-2.43492,1.80988 -4.89177,3.55194 -7.13058,5.6011c-1.33576,1.22261 -2.7986,2.43505 -3.21231,4.27633c0,0 -0.09557,0.40936 -0.50493,0.3138c-0.40936,-0.09557 -0.3138,-0.50493 -0.3138,-0.50493c0.4885,-2.02833 1.97878,-3.34653 3.46339,-4.70538c2.26015,-2.06869 4.73869,-3.82865 7.19668,-5.65568c1.07555,-0.79945 2.14178,-1.78188 3.3018,-2.45123c3.76413,-2.172 8.06024,-3.66842 12.23837,-4.7416c4.03325,-1.03597 8.33589,-1.90742 12.52529,-1.98158c1.66886,-0.02954 3.4038,0.25246 5.06918,0.37685c1.20887,0.0903 2.37921,0.32464 3.52789,0.64459c-0.02799,0.28174 -0.05682,0.56343 -0.08652,0.84505c-1.14152,-0.32397 -2.30403,-0.56161 -3.504,-0.65124z" fill="#ffffff" stroke="none" stroke-width="0" stroke-linecap="butt"></path><path d="M254.15761,169.41818c-5.73695,1.1315 -11.61223,1.96098 -17.15852,3.82114c-4.65845,1.56239 -9.27381,3.17134 -13.86396,4.92443c0,0 -0.39271,0.14998 -0.54268,-0.24272c-0.14998,-0.39271 0.24272,-0.54268 0.24272,-0.54268c4.60091,-1.7572 9.22722,-3.37007 13.89659,-4.93612c5.58131,-1.87191 11.4902,-2.71027 17.26317,-3.84888c2.19081,-0.43209 4.41293,-1.029 6.62794,-1.30618c0.01576,-0.00197 0.03151,-0.00393 0.04727,-0.00589c-0.02483,0.28549 -0.04913,0.57108 -0.07292,0.85676c-2.1521,0.28144 -4.3112,0.86036 -6.43961,1.28015z" fill="#ffffff" stroke="none" stroke-width="0" stroke-linecap="butt"></path><path d="M252.24623,176.82882c-5.65556,0.41098 -11.54969,0.99082 -17.11666,2.07169c-4.95166,0.96141 -9.88557,1.94628 -14.80443,3.06407c0,0 -0.40992,0.09315 -0.50307,-0.31677c-0.09315,-0.40992 0.31677,-0.50307 0.31677,-0.50307c4.92752,-1.11975 9.87013,-2.10646 14.83049,-3.06956c5.59963,-1.08721 11.52727,-1.67151 17.21598,-2.08489c2.63472,-0.19146 5.27011,-0.41075 7.90693,-0.60326c-0.01629,0.28203 -0.03224,0.56411 -0.04788,0.84623c-2.60053,0.19062 -5.19966,0.40673 -7.79812,0.59556z" fill="#ffffff" stroke="none" stroke-width="0" stroke-linecap="butt"></path><path d="M223.11537,182.92685c0,-9.17047 7.43413,-16.6046 16.6046,-16.6046c9.17047,0 16.6046,7.43413 16.6046,16.6046c0,9.17047 -7.43413,16.6046 -16.6046,16.6046c-9.17047,0 -16.6046,-7.43413 -16.6046,-16.6046z" fill="#ffffff" stroke="none" stroke-width="0" stroke-linecap="butt"></path><path d="M228.54782,182.92973v-8.83766l8.89361,4.82564l9.76357,-4.82564v8.83766l-9.98937,5.7346z" fill="#ffffff" stroke="none" stroke-width="0" stroke-linecap="butt"></path><path d="M232.71239,179.15042c0,0 -0.9639,4.66072 -1.77871,4.66072c-0.20468,0 -0.59323,-0.23564 -0.77816,-0.78947c-0.55126,-1.65087 -0.4758,-5.92036 -0.4758,-5.92036z" fill="#ffffff" stroke="none" stroke-width="0" stroke-linecap="butt"></path><path d="M237.23873,178.47069c0,0 0.07546,4.26949 -0.47579,5.92036c-0.18493,0.55382 -0.57348,0.78947 -0.77817,0.78947c-0.81481,0 -1.77871,-4.66072 -1.77871,-4.66072z" data-paper-data="{&quot;index&quot;:null}" fill="#ffffff" stroke="none" stroke-width="0" stroke-linecap="butt"></path><path d="" data-paper-data="{&quot;index&quot;:null}" fill="#ffffff" stroke="none" stroke-width="0" stroke-linecap="round"></path><path d="" data-paper-data="{&quot;index&quot;:null}" fill="#ffffff" stroke="none" stroke-width="0" stroke-linecap="round"></path><g fill="#ffffff" stroke="none" stroke-width="0" stroke-linecap="butt"><g><path d="M247.56018,163.1067l5.84709,-4.637l9.23629,11.64666l-5.84709,4.637z"></path><path d="M248.73896,157.75814l2.51947,-1.99806l2.63893,3.32762l-2.51947,1.99806z"></path><path d="M244.33775,158.84802l2.23427,-1.77186l3.80761,4.80127l-2.23427,1.77186z"></path></g><path d="M251.85789,168.52597l5.89463,-4.67469l1.50796,1.90149l-5.89463,4.67469z"></path><path d="M253.90348,171.00774l5.70448,-4.52389l1.39487,1.75888l-5.70448,4.52389z"></path><path d="M249.80412,165.74093l5.65694,-4.48619l1.39487,1.75888l-5.65694,4.48619z"></path></g><path d="" fill="#ffffff" stroke="none" stroke-width="0" stroke-linecap="butt"></path><path d="" fill="#ffffff" stroke="none" stroke-width="0" stroke-linecap="butt"></path><path d="" fill="#ffffff" stroke="none" stroke-width="0" stroke-linecap="butt"></path><path d="" fill="#ffffff" stroke="none" stroke-width="0" stroke-linecap="butt"></path><path d="" fill="#ffffff" stroke="none" stroke-width="0" stroke-linecap="butt"></path><path d="" fill="#ffffff" stroke="none" stroke-width="0" stroke-linecap="butt"></path><path d="" fill="#ffffff" stroke="none" stroke-width="0" stroke-linecap="butt"></path><path d="" fill="#ffffff" stroke="none" stroke-width="0" stroke-linecap="butt"></path></g></g></svg>