<svg version="1.1" xmlns="http://www.w3.org/2000/svg" xmlns:xlink="http://www.w3.org/1999/xlink" width="169.60433" height="80.5" viewBox="0,0,169.60433,80.5"><g transform="translate(-109.63417,-138.16295)"><g data-paper-data="{&quot;isPaintingLayer&quot;:true}" fill-rule="nonzero" stroke-linecap="butt" stroke-linejoin="miter" stroke-miterlimit="10" stroke-dasharray="" stroke-dashoffset="0" style="mix-blend-mode: normal"><path d="M238.9885,217.91295c-21.81525,0 -39.5,-17.68475 -39.5,-39.5c0,-21.81525 17.68475,-39.5 39.5,-39.5c21.81525,0 39.5,17.68475 39.5,39.5c0,21.81525 -17.68475,39.5 -39.5,39.5z" data-paper-data="{&quot;index&quot;:null}" fill="#000000" stroke="#000000" stroke-width="1.5"></path><g data-paper-data="{&quot;index&quot;:null}" stroke="none" stroke-width="0"><path d="M258.71106,168.50345c7.45315,0 13.49512,5.141 13.49512,5.141c0,0 -6.04197,5.141 -13.49512,5.141c-7.45315,0 -13.49512,-5.141 -13.49512,-5.141c0,0 6.04197,-5.141 13.49512,-5.141z" fill="#ffffff"></path><path d="M259.35368,178.78545c-2.8393,0 -5.141,-2.30171 -5.141,-5.141c0,-2.8393 2.30171,-5.141 5.141,-5.141c2.8393,0 5.141,2.30171 5.141,5.141c0,2.8393 -2.30171,5.141 -5.141,5.141z" fill="#000000"></path></g><g data-paper-data="{&quot;index&quot;:null}" stroke="none" stroke-width="0"><path d="M229.03426,168.6195c7.45315,0 13.49512,5.141 13.49512,5.141c0,0 -6.04197,5.141 -13.49512,5.141c-7.45315,0 -13.49512,-5.141 -13.49512,-5.141c0,0 6.04197,-5.141 13.49512,-5.141z" fill="#ffffff"></path><path d="M229.67689,178.9015c-2.8393,0 -5.141,-2.30171 -5.141,-5.141c0,-2.83929 2.30171,-5.141 5.141,-5.141c2.8393,0 5.141,2.30171 5.141,5.141c0,2.8393 -2.30171,5.141 -5.141,5.141z" fill="#000000"></path></g><path d="M109.63417,189.32449c0,-5.11073 4.14307,-9.2538 9.2538,-9.2538c5.11073,0 9.2538,4.14307 9.2538,9.2538c0,5.11073 -4.14307,9.2538 -9.2538,9.2538c-5.11073,0 -9.2538,-4.14307 -9.2538,-9.2538z" fill="#000000" stroke="none" stroke-width="0"></path><g fill="#000000" stroke="none" stroke-width="0"><g><path d="M132.09779,197.1736v-22.36334h3.74027v22.36334z"></path><path d="M118.67253,197.76281l4.19944,-26.23278l5.94868,2.17691l-4.19944,26.23278z"></path><path d="M124.93667,181.75061l-3.40024,-10.53905l41.823,0.25705l-0.17001,3.5987l-23.25028,0.58202l0.29863,6.10128z"></path></g><path d="M143.30954,177.63781v-2.82755h17.73644v2.82755z"></path><path d="M159.24663,173.52501v-5.6551h2.05639v5.6551z"></path></g></g></g></svg>