<svg version="1.1" xmlns="http://www.w3.org/2000/svg" xmlns:xlink="http://www.w3.org/1999/xlink" width="88.97302" height="80.5" viewBox="0,0,88.97302,80.5"><defs><linearGradient x1="490.90081" y1="158.39183" x2="498.46586" y2="196.13172" gradientUnits="userSpaceOnUse" id="color-1"><stop offset="0" stop-color="#906e40"/><stop offset="1" stop-color="#bd9055"/></linearGradient></defs><g transform="translate(-440.95094,-140.3707)"><g stroke-miterlimit="10"><path d="" fill="none" stroke="#000000" stroke-width="1.5" stroke-linecap="round"/><path d="" fill="none" stroke="#000000" stroke-width="1.5" stroke-linecap="round"/><path d="" fill="none" stroke="#000000" stroke-width="1.5" stroke-linecap="round"/><path d="M529.92396,195.47554" fill="none" stroke="#d8d8d8" stroke-width="4" stroke-linecap="round"/><path d="M481.20094,220.1207c-21.81525,0 -39.5,-17.68475 -39.5,-39.5c0,-21.81525 17.68475,-39.5 39.5,-39.5c21.81525,0 39.5,17.68475 39.5,39.5c0,21.81525 -17.68475,39.5 -39.5,39.5z" fill="#d8d8d8" stroke="#000000" stroke-width="1.5" stroke-linecap="butt"/><path d="M447.33597,203.67084c0,0 4.29771,-17.83605 17.34061,-17.83605c13.0429,0 17.67091,18.82695 17.67091,18.82695z" fill="#000000" stroke="#000000" stroke-width="0" stroke-linecap="butt"/><path d="M475.86268,171.40079l-17.15344,-6.06646" fill="none" stroke="#000000" stroke-width="1.5" stroke-linecap="round"/><path d="M471.8881,179.97751l-0.20919,-7.1124" fill="none" stroke="#000000" stroke-width="1.5" stroke-linecap="round"/><path d="M480.25564,169.93648l10.87779,-5.22971" fill="none" stroke="#000000" stroke-width="1.5" stroke-linecap="round"/><path d="M482.34752,172.65592l-0.20919,6.69403" fill="none" stroke="#000000" stroke-width="1.5" stroke-linecap="round"/><path d="M503.68472,161.15057c0,0 1.50418,6.67173 0.29966,8.08882c-1.16496,1.37054 -7.41207,0.27872 -7.41207,0.27872" fill="none" stroke="#ff0000" stroke-width="3" stroke-linecap="round"/><path d="M519.3738,171.60998c0,0 -7.08173,0.40448 -8.61377,-1.03376c-1.8311,-1.71899 -1.63646,-8.5889 -1.63646,-8.5889" fill="none" stroke="#ff0000" stroke-width="3" stroke-linecap="round"/><path d="M498.45502,173.91105c0,0 5.33291,0.0324 6.42032,1.08472c1.07405,1.0394 0.06452,5.19093 0.06452,5.19093" fill="none" stroke="#ff0000" stroke-width="3" stroke-linecap="round"/><path d="M510.58793,183.11534c0,0 -1.72153,-6.01844 -0.52297,-7.217c1.30297,-1.30297 8.05375,-0.31378 8.05375,-0.31378" fill="none" stroke="#ff0000" stroke-width="3" stroke-linecap="round"/><g stroke="none" stroke-width="0" stroke-linecap="butt"><path d="M450.73387,198.01914l37.32966,-7.48284l1.31566,6.56345l-37.32966,7.48284z" fill="#b1b1b1"/><path d="M444.41385,193.09887l6.35834,-1.27455l3.49473,17.43418l-6.35834,1.27455z" fill="#909090"/><path d="M474.5947,161.66044l32.69441,-6.12698l-0.02442,38.19446l-18.5415,4.35673z" fill="url(#color-1)"/><path d="M488.99757,168.58742l5.74302,-1.15121l5.09818,25.4334l-5.74302,1.15121z" fill="#a9a9a9"/></g></g></g></svg>