<svg version="1.1" xmlns="http://www.w3.org/2000/svg" xmlns:xlink="http://www.w3.org/1999/xlink" width="79.75605" height="87.2565" viewBox="0,0,79.75605,87.2565"><g transform="translate(-198.23186,-137.17562)"><g data-paper-data="{&quot;isPaintingLayer&quot;:true}" fill-rule="nonzero" stroke="#000000" stroke-linejoin="miter" stroke-miterlimit="10" stroke-dasharray="" stroke-dashoffset="0" style="mix-blend-mode: normal"><path d="M214.60417,171.99443l8.95564,-1.34032l2.05059,7.73273" fill="none" stroke-width="1.5" stroke-linecap="round"></path><path d="M231.78757,176.55568l-2.05059,-7.73273l8.443,-3.2735" data-paper-data="{&quot;index&quot;:null}" fill="none" stroke-width="1.5" stroke-linecap="round"></path><path d="M236.28381,199.54262c0,0 -1.87397,-8.41069 3.27788,-10.21329c5.02209,-1.75721 14.10608,4.5688 14.10608,4.5688z" fill="#040404" stroke-width="1.5" stroke-linecap="round"></path><path d="M200.18278,181.42726c-4.66274,-17.58308 8.27441,-36.27007 28.89593,-41.73856c20.62152,-5.46848 41.11847,4.35235 45.78121,21.93543c2.87771,10.85179 3.97663,24.67931 -4.22234,33.00511c-0.34236,0.34766 -4.39195,4.17522 -4.39195,4.17522l3.05152,12.38317l-12.01319,3.76951l-4.05694,-13.32743l3.61088,13.3449l-13.80844,3.87363l-4.45777,-13.49425l4.33578,13.19741l-15.50714,4.62549c0,0 -3.83622,-14.9106 -4.2384,-14.86018c-2.62718,0.32941 -1.95389,0.51711 -3.97717,0.086c-12.42013,-2.64651 -15.91298,-15.32696 -19.00197,-26.97546z" fill="#ffffff" stroke-width="2" stroke-linecap="butt"></path><path d="M226.33864,176.14629c1.51902,5.7282 -0.43954,11.21775 -4.37456,12.26125c-3.93502,1.0435 -8.35641,-2.7542 -9.87543,-8.48239c-1.51902,-5.7282 -3.80486,-10.47833 0.13016,-11.52184c3.11472,-0.82597 12.34575,4.52171 12.34575,4.52171c0,0 1.45742,2.02716 1.77408,3.22127z" fill="#ab7a7a" stroke-width="1" stroke-linecap="butt"></path><path d="M229.43961,171.21055c0,0 5.36814,-9.21914 8.48287,-10.04512c3.93502,-1.0435 4.30334,4.21514 5.82236,9.94333c1.51902,5.7282 -0.43953,11.21776 -4.37456,12.26126c-3.93502,1.0435 -8.35641,-2.7542 -9.87543,-8.4824c-0.31666,-1.19411 -0.05525,-3.67708 -0.05525,-3.67708z" data-paper-data="{&quot;index&quot;:null}" fill="#ab7e7e" stroke-width="1" stroke-linecap="butt"></path></g></g></svg>