<svg version="1.1" xmlns="http://www.w3.org/2000/svg" xmlns:xlink="http://www.w3.org/1999/xlink" width="81.69976" height="81.48962" viewBox="0,0,81.69976,81.48962"><g transform="translate(-441.07983,-138.03905)"><g data-paper-data="{&quot;isPaintingLayer&quot;:true}" fill-rule="nonzero" stroke-linejoin="miter" stroke-miterlimit="10" stroke-dasharray="" stroke-dashoffset="0" style="mix-blend-mode: normal"><path d="" data-paper-data="{&quot;index&quot;:null}" fill="none" stroke="#000000" stroke-width="1.5" stroke-linecap="round"/><path d="M503.66043,161.34934c8.93917,12.75676 5.84435,30.34477 -6.91238,39.28393c-12.75676,8.93917 -30.34477,5.84435 -39.28393,-6.91238c-8.93917,-12.75676 -5.84435,-30.34477 6.91238,-39.28393c12.75676,-8.93917 30.34477,-5.84435 39.28393,6.91238z" fill="#000000" stroke="none" stroke-width="NaN" stroke-linecap="butt"/><path d="M492.88986,185.31795l11.12732,21.71787l-4.89978,3.43344l-17.00704,-17.5977z" fill="#000000" stroke="none" stroke-width="0" stroke-linecap="butt"/><path d="M484.44567,196.30361l-7.48865,23.22506l-5.8925,-1.03683l0.41767,-24.46927z" fill="#000000" stroke="none" stroke-width="0" stroke-linecap="butt"/><path d="M471.05386,192.36828l-21.71787,11.12732l-3.43344,-4.89978l17.59769,-17.00705z" fill="#000000" stroke="none" stroke-width="0" stroke-linecap="butt"/><path d="M464.30489,181.53979l-23.22506,-7.48865l1.03684,-5.89251l24.46926,0.41765z" fill="#000000" stroke="none" stroke-width="0" stroke-linecap="butt"/><path d="M465.75453,170.76644l-11.12733,-21.71787l4.89978,-3.43344l17.00705,17.59769z" fill="#000000" stroke="none" stroke-width="0" stroke-linecap="butt"/><path d="M473.83981,161.26411l7.48865,-23.22506l5.8925,1.03683l-0.41764,24.46927z" fill="#000000" stroke="none" stroke-width="0" stroke-linecap="butt"/><path d="M488.26323,163.6627l21.71787,-11.12733l3.43344,4.89978l-17.59769,17.00704z" fill="#000000" stroke="none" stroke-width="0" stroke-linecap="butt"/><path d="M499.55454,175.46232l23.22506,7.48865l-1.03684,5.8925l-24.46925,-0.41766z" fill="#000000" stroke="none" stroke-width="0" stroke-linecap="butt"/></g></g></svg>