<svg version="1.1" xmlns="http://www.w3.org/2000/svg" xmlns:xlink="http://www.w3.org/1999/xlink" width="122.98382" height="156.49228" viewBox="0,0,122.98382,156.49228"><defs><radialGradient cx="480" cy="179.99999" r="39.25" gradientUnits="userSpaceOnUse" id="color-1"><stop offset="0" stop-color="#ebebeb"/><stop offset="1" stop-color="#dbdbdb"/></radialGradient><radialGradient cx="526.2926" cy="98.67095" r="10.40536" gradientUnits="userSpaceOnUse" id="color-2"><stop offset="0" stop-color="#ffffff"/><stop offset="1" stop-color="#e9e9e9"/></radialGradient></defs><g transform="translate(-439.49112,-64.01659)"><g stroke-miterlimit="10"><path d="M490.37151,99.03288c0,-19.33896 16.14091,-35.01629 36.05171,-35.01629c19.91082,0 36.05171,15.67733 36.05171,35.01629c0,19.33896 -16.14091,35.01629 -36.05171,35.01629c-19.91082,0 -36.05171,-15.67733 -36.05171,-35.01629z" fill-opacity="0.8902" fill="#a2a2a2" stroke="none" stroke-width="0" stroke-linecap="butt"/><path d="" fill="none" stroke="#000000" stroke-width="1.5" stroke-linecap="round"/><path d="M444.73302,197.22796c-9.51476,-19.47741 -1.43843,-42.98021 18.039,-52.49495c19.47741,-9.51476 42.98021,-1.43843 52.49495,18.039c9.51476,19.47741 1.43843,42.98021 -18.039,52.49495c-19.47741,9.51476 -42.98021,1.43843 -52.49495,-18.039z" fill="url(#color-1)" stroke="#ffffff" stroke-width="2.5" stroke-linecap="butt"/><path d="M484.4001,173.9592c2.43132,6.7555 2.40123,12.9521 -0.06713,13.84043c-2.46834,0.88835 -6.4403,-3.86792 -8.8716,-10.62343c-2.43132,-6.7555 -2.40123,-12.9521 0.06713,-13.84043c2.46834,-0.88835 6.4403,3.86792 8.8716,10.62343z" fill="#ffffff" stroke="#000000" stroke-width="1.5" stroke-linecap="butt"/><path d="M501.68589,168.25205c2.43132,6.7555 2.40123,12.9521 -0.06713,13.84045c-2.46834,0.88835 -6.4403,-3.86792 -8.87161,-10.62343c-2.43132,-6.7555 -2.40125,-12.9521 0.0671,-13.84044c2.46834,-0.88835 6.4403,3.86789 8.8716,10.62342z" fill="#ffffff" stroke="#000000" stroke-width="1.5" stroke-linecap="butt"/><path d="M515.88724,98.67095c0,-5.74672 4.65864,-10.40536 10.40536,-10.40536c5.74672,0 10.40536,4.65864 10.40536,10.40536c0,5.74672 -4.65864,10.40536 -10.40536,10.40536c-5.74672,0 -10.40536,-4.65864 -10.40536,-10.40536z" fill="url(#color-2)" stroke="#ffffff" stroke-width="2" stroke-linecap="butt"/></g></g></svg>