<svg version="1.1" xmlns="http://www.w3.org/2000/svg" xmlns:xlink="http://www.w3.org/1999/xlink" width="129.01017" height="91.34061" viewBox="0,0,129.01017,91.34061"><g transform="translate(-209.84667,-153.40712)"><g data-paper-data="{&quot;isPaintingLayer&quot;:true}" fill-rule="nonzero" stroke-linejoin="miter" stroke-miterlimit="10" stroke-dasharray="" stroke-dashoffset="0" style="mix-blend-mode: normal"><path d="" data-paper-data="{&quot;index&quot;:null}" fill="none" stroke="#000000" stroke-width="1.5" stroke-linecap="round"></path><path d="" data-paper-data="{&quot;index&quot;:null}" fill="none" stroke="#000000" stroke-width="1.5" stroke-linecap="round"></path><path d="" data-paper-data="{&quot;index&quot;:null}" fill="none" stroke="#000000" stroke-width="1.5" stroke-linecap="round"></path><path d="" data-paper-data="{&quot;index&quot;:null}" fill="none" stroke="#000000" stroke-width="1.5" stroke-linecap="round"></path><path d="M267.04609,233.13134" data-paper-data="{&quot;index&quot;:null}" fill="none" stroke="#d8d8d8" stroke-width="4" stroke-linecap="round"></path><path d="M252.76545,234.51387c-23.28918,0 -42.16878,-17.68475 -42.16878,-39.5c0,-21.81525 18.87961,-39.5 42.16878,-39.5c23.28918,0 42.16878,17.68475 42.16878,39.5c0,21.81525 -18.87961,39.5 -42.16878,39.5z" data-paper-data="{&quot;index&quot;:null}" fill="#d8d8d8" stroke="#000000" stroke-width="1.5" stroke-linecap="butt"></path><path d="M268.23436,214.3194c-5.81715,2.88817 -29.4382,-5.13694 -29.4382,-5.13694" data-paper-data="{&quot;index&quot;:null}" fill="none" stroke="#000000" stroke-width="1.5" stroke-linecap="round"></path><path d="M284.83117,166.61212c0,0 6.09779,7.75442 7.50336,11.57662c1.30604,3.55151 3.29844,10.37897 3.29844,10.37897l-43.33879,17.86909l-40.37271,-16.19051c0,0 1.74927,-6.78215 2.89861,-10.48332c1.19689,-3.85428 5.5886,-11.63853 5.5886,-11.63853l31.88547,10.0822l32.537,-11.59453z" data-paper-data="{&quot;index&quot;:null}" fill="#595959" stroke="#000000" stroke-width="0.5" stroke-linecap="round"></path><path d="M273.69993,182.81959c0,0 -3.88574,8.86587 -8.67906,8.86587c-4.79333,0 -12.9937,2.50767 -7.64585,-2.95529c5.34785,-5.46296 16.32491,-5.91058 16.32491,-5.91058z" data-paper-data="{&quot;index&quot;:null}" fill="#ffffff" stroke="none" stroke-width="0" stroke-linecap="butt"></path><path d="M247.99394,188.78786c5.34785,5.46297 -2.85252,2.95529 -7.64584,2.95529c-4.7933,0 -8.67906,-8.86587 -8.67906,-8.86587c0,0 10.97705,0.44762 16.3249,5.91058z" data-paper-data="{&quot;index&quot;:null}" fill="#ffffff" stroke="none" stroke-width="0" stroke-linecap="butt"></path><g data-paper-data="{&quot;index&quot;:null}" fill="none" stroke-linecap="round"><path d="M305.86613,225.62343c0,0 -24.15054,32.02381 -11.35579,5.19596" stroke="#ff0000" stroke-width="3.5"></path><path d="M309.71325,229.66545c-4.20681,8.62879 -13.1984,15.89368 -18.66225,12.46436" stroke="#ff0000" stroke-width="3.5"></path><g><path d="M322.01239,172.69838c0,0 24.15054,-32.02381 11.35579,-5.19596c-12.79474,26.82787 -40.23419,65.7478 -40.23419,65.7478" stroke="#ff0000" stroke-width="3.5"></path><path d="M325.49819,182.92581l-7.42571,12.28938" stroke="#d8d8d8" stroke-width="4"></path><path d="M316.39297,168.48942c4.20681,-8.62879 13.1984,-15.89368 18.66225,-12.46436" stroke="#ff0000" stroke-width="3.5"></path></g></g></g></g></svg>