<svg version="1.1" xmlns="http://www.w3.org/2000/svg" xmlns:xlink="http://www.w3.org/1999/xlink" width="264.11493" height="231.96856" viewBox="0,0,264.11493,231.96856"><g transform="translate(-15.12356,-47.07736)"><g data-paper-data="{&quot;isPaintingLayer&quot;:true}" fill-rule="nonzero" stroke-linecap="butt" stroke-linejoin="miter" stroke-miterlimit="10" stroke-dasharray="" stroke-dashoffset="0" style="mix-blend-mode: normal"><path d="M238.9885,217.91295c-21.81525,0 -39.5,-17.68475 -39.5,-39.5c0,-21.81525 17.68475,-39.5 39.5,-39.5c21.81525,0 39.5,17.68475 39.5,39.5c0,21.81525 -17.68475,39.5 -39.5,39.5z" data-paper-data="{&quot;index&quot;:null}" fill="#000000" stroke="#000000" stroke-width="1.5"></path><g data-paper-data="{&quot;index&quot;:null}" stroke="none" stroke-width="0"><path d="M258.71106,168.50345c7.45315,0 13.49512,5.141 13.49512,5.141c0,0 -6.04197,5.141 -13.49512,5.141c-7.45315,0 -13.49512,-5.141 -13.49512,-5.141c0,0 6.04197,-5.141 13.49512,-5.141z" fill="#ffffff"></path><path d="M259.35368,178.78545c-2.8393,0 -5.141,-2.30171 -5.141,-5.141c0,-2.8393 2.30171,-5.141 5.141,-5.141c2.8393,0 5.141,2.30171 5.141,5.141c0,2.8393 -2.30171,5.141 -5.141,5.141z" fill="#000000"></path></g><g data-paper-data="{&quot;index&quot;:null}" stroke="none" stroke-width="0"><path d="M229.03426,168.6195c7.45315,0 13.49512,5.141 13.49512,5.141c0,0 -6.04197,5.141 -13.49512,5.141c-7.45315,0 -13.49512,-5.141 -13.49512,-5.141c0,0 6.04197,-5.141 13.49512,-5.141z" fill="#ffffff"></path><path d="M229.67689,178.9015c-2.8393,0 -5.141,-2.30171 -5.141,-5.141c0,-2.83929 2.30171,-5.141 5.141,-5.141c2.8393,0 5.141,2.30171 5.141,5.141c0,2.8393 -2.30171,5.141 -5.141,5.141z" fill="#000000"></path></g><path d="M198.96268,164.17431c0.81487,-1.50775 1.62722,-3.017 2.4371,-4.52787c0.29046,-1.02803 0.59253,-2.0546 0.90827,-3.07965c0.97946,-3.17975 1.8795,-6.35568 2.71692,-9.56669c-0.02021,0.03185 -0.04023,0.06368 -0.06005,0.0955c-1.34548,2.16079 -2.2188,4.84234 -3.28525,7.15715c-0.8934,1.93918 -1.79735,3.87384 -2.69979,5.8091c0.0165,1.41842 -0.06101,2.88605 -0.0388,3.45976c0.00842,0.21756 0.01561,0.43512 0.0216,0.65269zM195.31582,149.56092c-0.08554,1.0452 -0.25877,2.07409 -0.49035,3.09457c0.09843,-0.16216 0.24166,-0.29411 0.41252,-0.37866c0.16237,-1.26387 0.29773,-2.53391 0.39875,-3.81265l-0.07525,-0.00467c-0.0456,0.37427 -0.14202,0.75865 -0.24567,1.10141zM195.12966,142.61547c-0.1407,-0.32317 0.04577,-0.87307 -0.27403,-1.02128c-0.7607,-0.35254 -1.83838,1.84602 -1.84792,1.8602c-0.62908,0.93481 -1.27061,1.86186 -1.91664,2.78598c-0.58163,2.49425 -1.45108,4.99921 -2.40887,7.47151c1.57981,-2.40406 3.15375,-4.73375 4.52127,-6.97486l0.06744,-0.04344l-0.0203,-0.0171l0.76452,-0.90773c0.18343,-0.22076 0.46006,-0.36133 0.76951,-0.36133c0.54458,0 0.98749,0.43531 0.99974,0.97695c0.09935,-1.4464 0.07888,-2.08397 -0.65472,-3.76889zM183.00865,162.54294c0.13006,-0.35618 0.26016,-0.71235 0.39027,-1.06852c0.12781,-0.66551 0.24364,-1.33879 0.34616,-2.02263c-0.33855,0.70676 -0.67694,1.41405 -1.01589,2.12165c-0.78668,1.64234 -1.43586,3.98077 -2.58788,5.57753c-0.09667,0.26846 -0.19134,0.53619 -0.28379,0.80317l-0.64687,1.86797c-0.10109,0.31566 -0.35475,0.56307 -0.67421,0.65545c-1.05125,2.83866 -2.05145,5.67836 -3.06192,8.45743l-0.03443,0.0362l0.0151,0.00717l-0.6953,1.46486c-0.15626,0.34854 -0.50625,0.59132 -0.91295,0.59132c-0.55228,0 -1,-0.44772 -1,-1c0,-0.07783 0.00889,-0.15359 0.02572,-0.22631l0.407,-1.9366l0.23459,0.0493c0.27742,-4.03503 1.65648,-7.78295 3.0601,-11.70111c0.42854,-1.19626 0.85687,-2.3926 1.28513,-3.58897c-0.1405,0.07528 -0.30107,0.11797 -0.47161,0.11797c-0.51893,0 -0.94554,-0.39527 -0.99518,-0.90115c-0.10547,0.17149 -0.21019,0.34362 -0.31413,0.51634c-1.89394,5.90601 -4.11792,11.71771 -6.34691,17.51842c-0.25017,0.75512 -0.49618,1.51116 -0.73688,2.2684c-1.60363,5.04472 -3.17019,10.10304 -4.83427,15.12815l-0.44169,1.33377c-0.12509,0.40957 -0.50602,0.70749 -0.95654,0.70749c-0.55228,0 -1,-0.44772 -1,-1c0,-0.08756 0.01125,-0.1725 0.0324,-0.25344l0.45874,-1.92396l0.16332,0.03894c0.04245,-0.1287 0.08484,-0.25742 0.12718,-0.38616c0.25636,-2.51023 0.94478,-4.93406 1.78386,-7.33421c-0.38974,-0.13655 -0.66923,-0.50764 -0.66923,-0.944c0,-0.12514 0.02299,-0.24492 0.06497,-0.35533l0.65907,-1.86364l0.14196,0.0502l0.02002,-0.04526c0.08526,-0.22694 0.17051,-0.45388 0.25577,-0.68082c0.01919,-0.08285 0.03882,-0.16554 0.05887,-0.24806c-0.37107,-0.14616 -0.63367,-0.5078 -0.63367,-0.93077c0,-0.09094 0.01214,-0.17904 0.03488,-0.26277l0.30251,-1.21797l0.0182,0.00452l-0.00675,-0.04667c0.2783,-0.81207 0.56055,-1.62169 0.8465,-2.42916c0.37082,-1.78947 1.2693,-3.79912 2.02064,-5.52093c0.47128,-1.24961 0.95007,-2.49571 1.43531,-3.73949c2.81449,-8.05604 5.6222,-16.11429 8.41656,-24.17736c0.24715,-0.69179 0.4943,-1.38358 0.74144,-2.07536l0.18435,-0.10721l-0.06182,-0.0569l0.8016,-0.87097c0.18285,-0.19998 0.44588,-0.32541 0.7382,-0.32541c0.55228,0 1,0.44772 1,1c0,0.09003 -0.0119,0.17728 -0.03421,0.26027l-0.47188,1.92057l-0.20648,-0.05073c-0.03019,0.24101 -0.06361,0.48101 -0.09992,0.72019c0.12528,0.07159 0.23358,0.16949 0.31738,0.28618c1.03235,-1.04474 2.47312,-1.9807 3.63331,-2.87264c0.98678,-1.95258 2.0555,-3.85739 3.23741,-5.67881l0.55242,-0.84999c0.17692,-0.28155 0.49027,-0.46868 0.84733,-0.46868c0.55228,0 1,0.44772 1,1c0,0.07501 -0.00826,0.1481 -0.02392,0.21839l-0.39201,1.94005l-0.18998,-0.03839c-0.02194,0.41268 -0.05318,0.82554 -0.0931,1.23851c0.34763,0.43193 0.74843,1.0934 1.07996,1.68405l0.66234,-1.20517c0.1672,-0.31866 0.50126,-0.53604 0.88609,-0.53604c0.19791,0 0.3824,0.05749 0.53766,0.15669c0.21312,-0.36394 0.45145,-0.70066 0.80371,-0.9117c0.84991,-0.50918 1.9459,-0.96496 2.89405,-0.6775c0.73875,0.22398 0.88175,1.26964 1.26645,1.93892c1.27107,2.21133 0.95699,3.48902 0.79846,5.93289c-0.18762,2.89223 -0.5528,5.73854 -1.01824,8.56615c0.56647,-0.01588 1.11964,0.15695 1.62926,0.58094c0.23795,-0.51326 0.47552,-1.02672 0.71247,-1.54051c1.79783,-3.89826 3.09018,-7.63073 5.79925,-10.66576l-0.22343,-0.18162l1.25608,-1.54527c0.18325,-0.22915 0.46519,-0.37593 0.78142,-0.37593c0.55228,0 1,0.44772 1,1c0,0.03146 -0.00145,0.06257 -0.00429,0.09329l-0.15034,1.83222l-0.02309,-0.00189l0.01308,0.08303c-0.37602,1.51159 -0.76703,3.01338 -1.17368,4.50949c0.17816,-0.36303 0.35633,-0.72605 0.5345,-1.08907l0.57138,-1.31149c0.14918,-0.3647 0.50755,-0.62163 0.92594,-0.62163c0.55228,0 1,0.44772 1,1c0,0.11251 -0.01858,0.22067 -0.05284,0.3216l-0.59171,1.88604l-0.21739,-0.0682c-0.03431,0.06995 -0.06862,0.1399 -0.10294,0.20985c-0.78183,4.18426 -2.86262,8.13685 -4.43732,12.12327c-1.16142,2.94019 -2.28118,5.89804 -3.38392,8.86273c-0.61554,2.73078 -1.19983,5.46996 -1.78785,8.2148c0.3369,-0.22945 0.68155,-0.45087 1.03502,-0.66422c0.0188,-0.01135 0.0375,-0.02271 0.0561,-0.0341c1.06129,-1.79947 2.13851,-3.58938 3.23482,-5.37168c1.27133,-2.88122 2.62211,-5.72937 4.10187,-8.52722c1.7462,-3.30162 2.8414,-5.94566 5.33948,-7.97619l-0.21313,-0.25712l1.53458,-1.27206c0.1739,-0.14629 0.39834,-0.23442 0.64338,-0.23442c0.55228,0 1,0.44772 1,1c0,0.11808 -0.02046,0.23137 -0.05804,0.33654l-0.60849,1.83742l-0.00538,-0.00178l-0.00178,0.02263c-0.21663,0.56904 -0.43327,1.13808 -0.6499,1.70713c-1.39486,3.66249 -2.8925,7.2624 -4.14495,10.95143c0.40362,0.12867 0.69595,0.50667 0.69595,0.95294c0,0.10076 -0.0149,0.19804 -0.04262,0.28976l-0.2624,0.94477l-0.04885,-0.01357l0.01359,0.11787c-0.95868,1.80451 -1.72897,3.47177 -2.39654,5.29505c-0.03895,0.13887 -0.07841,0.27739 -0.11831,0.41549c-0.76243,4.0642 -1.12838,8.42932 -1.94561,12.53255c2.37756,-5.85008 4.77439,-11.72983 7.69045,-17.30901c1.28696,-2.46229 2.40523,-4.92086 4.23434,-6.88832l-0.18239,-0.1208l0.60715,-0.91669c0.17777,-0.2772 0.48863,-0.46089 0.84238,-0.46089c0.55228,0 1,0.44772 1,1c0,0.03937 -0.00227,0.0782 -0.0067,0.11638l-0.11103,1.07552l-0.04837,-0.00499l0.02885,0.12363c-1.88975,5.34121 -3.61693,10.67546 -5.16754,16.12268c0.3493,-0.70643 0.73634,-1.39623 1.18033,-2.07055l-0.24719,-0.13395l0.94315,-1.74045c0.16623,-0.32165 0.50191,-0.54152 0.88894,-0.54152c0.55228,0 1,0.44772 1,1c0,0.04278 -0.00269,0.08494 -0.0079,0.12631l-0.16972,1.50928l-0.01256,-0.00141l0.00764,0.03877c-0.61546,3.25251 -1.4866,6.46711 -1.77366,9.76623c-0.00695,0.07986 -0.01135,0.16352 -0.01379,0.25035c1.02655,-2.94154 2.18965,-5.93123 4.08268,-8.28339l0.02285,-0.05749l-0.27435,-0.1817l0.91503,-1.38157c0.17777,-0.27721 0.48863,-0.46091 0.84239,-0.46091c0.55228,0 1,0.44772 1,1c0,0.13852 -0.02817,0.27047 -0.07908,0.39042l-0.60688,1.52712c-0.02462,0.06268 -0.04928,0.12532 -0.07398,0.18794c0.32477,-0.37708 0.6887,-0.72385 1.10781,-1.03659l-0.23812,-0.33119l1.06839,-0.76815c0.16592,-0.1224 0.37103,-0.19475 0.59304,-0.19475c0.55228,0 1,0.44772 1,1c0,0.14693 -0.03169,0.28647 -0.08861,0.41214l-0.45317,1.06435l-0.00745,-0.00317l-0.00188,0.0244c-2.1793,4.52605 -2.91652,7.45449 -2.37966,12.49812c0,0 0.10585,0.99438 -0.88854,1.10023c-0.99438,0.10585 -1.10023,-0.88854 -1.10023,-0.88854c-0.24206,-2.2741 -0.23859,-4.18614 0.02242,-6.00118c-1.53746,3.28921 -3.09623,6.5677 -4.66163,9.84423l-0.0143,0.01536l0.00501,0.00265l-0.92465,1.74987c-0.16445,0.32693 -0.50298,0.55124 -0.8939,0.55124c-0.55228,0 -1,-0.44772 -1,-1c0,-0.03967 0.00231,-0.07879 0.0068,-0.11725l0.20552,-1.97549l0.43615,0.04538c0.11014,-1.16279 0.35968,-2.3432 0.70421,-3.52924c-0.00967,-0.02957 -0.01801,-0.05974 -0.02493,-0.09045l-0.30288,-1.21949l0.31613,-0.07852c-0.56782,-1.93696 -0.51897,-4.01653 -0.2126,-6.11694c-0.24394,0.55279 -0.46193,1.07 -0.62928,1.53322l-0.48043,1.32986c-0.13281,0.39646 -0.50726,0.68215 -0.94843,0.68215c-0.45051,0 -0.83144,-0.29791 -0.95654,-0.70747l-0.45465,-1.37282l0.46703,-0.15467c-0.55185,-2.45885 0.35885,-4.8574 1.14408,-7.62553c0.86838,-3.06125 1.784,-6.09041 2.76154,-9.10206c-0.09017,0.15191 -0.16622,0.28545 -0.22452,0.39695c-3.60823,6.89962 -6.41013,14.26897 -9.37645,21.46156l-0.58675,1.42269c-0.14447,0.3745 -0.50787,0.64019 -0.93331,0.64019c-0.45846,0 -0.84487,-0.30852 -0.96292,-0.72927l-0.57807,-1.89103l0.01776,-0.00543c-0.02101,-0.06499 -0.04021,-0.13068 -0.05741,-0.19717c-0.62288,-2.40775 0.78247,-6.49731 1.3832,-9.1728c-0.37892,-0.14225 -0.64859,-0.50789 -0.64859,-0.93651c0,-0.11279 0.01867,-0.22121 0.05309,-0.32235l0.5932,-1.88556l0.02228,0.00701c0.17487,-0.5382 0.34784,-1.08195 0.51719,-1.62979c0.11274,-0.52342 0.24299,-1.04296 0.38886,-1.55869c-0.43272,0.32361 -0.85919,0.53717 -1.25638,0.59668c-0.5741,0.08601 -0.64819,-0.987 -1.1031,-1.34763c-0.0532,-0.04217 -0.12291,-0.06375 -0.20601,-0.06786c-1.4466,3.55378 -2.81832,7.14047 -4.2129,10.72248c0.00933,0.00438 0.0187,0.00891 0.02813,0.01359c0.89585,0.44437 0.45148,1.34021 0.45148,1.34021l-0.71776,1.44458c-1.2537,2.03244 -2.11986,3.66546 -3.55802,5.08541l0.24048,0.23892l-1.23143,1.23951c-0.18116,0.18244 -0.43219,0.29541 -0.70961,0.29541c-0.55228,0 -1,-0.44772 -1,-1c0,-0.05616 0.00463,-0.11123 0.01353,-0.16487l0.16448,-1.10367c0.08157,-0.54646 0.1704,-1.09175 0.26506,-1.63609c-0.18559,0.26491 -0.37553,0.52605 -0.57035,0.78288l0.17547,0.08715l-0.72938,1.46859c-0.15983,0.33959 -0.50511,0.57466 -0.9053,0.57466c-0.55228,0 -1,-0.44772 -1,-1c0,-0.08151 0.00975,-0.16074 0.02815,-0.23659l0.42652,-1.93196l0.01631,0.0036l-0.00348,-0.05514c1.14081,-3.41649 2.28763,-6.83099 3.43362,-10.24575c-1.78445,-0.64537 -1.55383,-2.52311 -1.50055,-3.97327c-1.54002,2.85612 -3.02603,5.75635 -4.80483,8.45721l0.11495,0.04568l-0.73,1.83696c-0.14124,0.3809 -0.50788,0.65236 -0.93792,0.65236c-0.55228,0 -1,-0.44772 -1,-1c0,-0.04203 0.00259,-0.08344 0.00763,-0.12411l0.15238,-1.3803l0.04517,0.00499l-0.02626,-0.11724c1.2942,-3.72787 2.65713,-7.42116 4.06223,-11.10849c1.06765,-2.80176 2.2181,-5.56676 3.41644,-8.31097c0.01445,-0.45418 0.02842,-0.90831 0.04164,-1.36235c0.54998,-2.69358 1.12672,-5.36389 1.65837,-8.03558c-0.21939,0.22916 -0.43977,0.44924 -0.6641,0.66289c-1.4587,2.66754 -3.23896,5.19393 -4.84407,7.35733c-0.41264,0.55617 -3.71592,4.67483 -4.53835,4.34207c-0.60823,-0.24609 -1.01856,-0.5582 -1.2849,-0.91269c-0.13682,0.41673 -0.27669,0.83582 -0.41958,1.25778l-0.08006,0.07656l0.03028,0.01806l-1.01493,1.70187c-0.17238,0.30092 -0.49668,0.50367 -0.86833,0.50367c-0.55228,0 -1,-0.44772 -1,-1c0,-0.09772 0.01402,-0.19216 0.04015,-0.28143l0.51285,-1.9095l0.23306,0.06259c0.35933,-2.74563 1.23671,-5.45077 2.41827,-8.10025c-0.00217,-0.02688 -0.00327,-0.05407 -0.00327,-0.08151c0,-0.12767 0.02393,-0.24975 0.06754,-0.36201l0.67252,-1.8589l0.00042,0.00015zM179.6603,150.92643c-0.49872,1.6212 -1.00505,3.24018 -1.51331,4.85854c0.06682,-0.08664 0.1339,-0.17297 0.20124,-0.25898c0.92327,-2.52229 2.04185,-5.06488 3.44731,-7.31078c0.07241,-0.16411 0.14522,-0.32808 0.21844,-0.49187c-0.2756,0.27847 -0.53475,0.56597 -0.77188,0.86549c-0.56669,0.71577 -1.0899,1.50376 -1.58179,2.3376zM188.35581,144.15556c-0.16684,0.88963 -0.36747,1.77896 -0.59592,2.66723c0.28288,-0.54134 0.56832,-1.08168 0.85666,-1.62093c0.02795,-0.21675 0.01817,-0.43168 -0.05261,-0.6439c-0.04817,-0.14444 -0.12209,-0.27633 -0.20813,-0.4024zM190.35967,179.86693c0.49313,-0.88683 0.98529,-1.77407 1.4765,-2.66172c0.01061,-0.3937 0.0219,-0.7874 0.0337,-1.18111c-0.46787,1.14965 -0.92411,2.30423 -1.36635,3.46476c-0.04802,0.12601 -0.09597,0.25203 -0.14385,0.37807zM196.09692,177.60732c0.28455,-1.74342 0.52461,-3.49479 0.69277,-5.24021c-0.96059,1.75432 -1.92536,3.50654 -2.89482,5.25666c-0.03477,1.20678 -0.078,2.41286 -0.13624,3.61741c-0.03407,0.70452 -0.31939,2.08046 0.11936,2.37542c0.0393,-0.11716 0.07859,-0.23431 0.11788,-0.35147c0.70211,-1.88525 1.40143,-3.77158 2.10104,-5.65781zM197.39175,187.0856c-0.01865,0.16729 -0.03753,0.3357 -0.05683,0.50482c0.18141,-0.46672 0.3628,-0.9333 0.54437,-1.39969c-0.04357,0.07899 -0.0871,0.15801 -0.13058,0.23708c-0.11986,0.21795 -0.23877,0.4373 -0.35696,0.65779zM206.92695,171.05314c-0.70717,1.11234 -1.40808,2.22596 -2.10205,3.34247c-0.48241,1.09846 -0.95285,2.20192 -1.41429,3.30924c0.17331,0.06483 0.35559,0.14964 0.54866,0.25693c0.30618,0.17015 -0.12343,1.07051 0.2241,1.02666c0.39679,-0.05006 0.2503,-0.76587 0.45095,-1.11182c0.32407,-0.55877 0.74209,-1.05748 1.11364,-1.58587c0.30573,-0.4348 0.58864,-0.83771 0.86249,-1.21917c0.04227,-0.21277 0.08297,-0.42526 0.12202,-0.63738c0.16666,-0.9053 0.09789,-2.19292 0.19448,-3.38106zM184.47512,150.09924c0.02079,0.00238 0.0414,0.00488 0.06182,0.00751c0.39645,-1.1159 0.77512,-2.23586 1.12877,-3.36152c0.23392,-0.74456 0.35705,-1.57669 0.46654,-2.42634c-0.05101,0.04188 -0.10223,0.08365 -0.15364,0.12533c-0.00711,0.01559 -0.01422,0.03118 -0.02132,0.04677c0.03066,0.09601 0.04721,0.19833 0.04721,0.30451c0,0.07475 -0.0082,0.14759 -0.02376,0.21766l-0.39062,1.94036l-0.02124,-0.00428l0.00432,0.07496c-0.36582,1.02508 -0.73185,2.0501 -1.09807,3.07504zM186.46279,161.5677c-0.14167,0.53032 -0.28335,1.06065 -0.42502,1.59097c-0.34412,1.28816 -0.68825,2.57632 -1.03237,3.86448c-0.32357,1.21122 -0.84811,2.46525 -0.97575,3.72811c0.35472,-0.5496 0.88457,-0.96643 1.32535,-1.45065c0.5047,-0.55443 0.97759,-1.1408 1.41394,-1.75271c0.26931,-0.60985 0.83982,-1.90174 1.10913,-2.51159c1.59996,-3.61727 2.67396,-7.47902 3.91711,-11.23295c0.18884,-0.57025 0.36408,-1.1454 0.54411,-1.71883c-0.30233,0.44612 -0.60151,0.87723 -0.84989,1.29015c-1.6407,2.72753 -3.16569,5.60499 -5.0266,8.19303zM196.33407,158.21644c-0.29202,1.61816 -0.61096,3.23231 -0.94222,4.8476c0.46067,-0.99723 0.92353,-1.9936 1.38685,-2.98991c0.00146,-0.15774 0.00444,-0.31515 0.00915,-0.47217c0.01379,-0.45981 0.38555,-0.95775 0.17837,-1.36847c-0.1286,-0.25494 -0.36516,-0.20494 -0.63216,-0.01705zM196.96106,164.41056c-0.991,2.15076 -1.96905,4.30699 -2.91771,6.47568c-0.01727,0.80127 -0.03289,1.60292 -0.04877,2.4047c1.02211,-1.86019 2.04015,-3.72237 3.05423,-5.58674c0.00716,-0.70564 -0.00183,-1.4082 -0.02887,-2.10673c-0.01523,-0.3935 -0.03594,-0.78947 -0.05887,-1.18692zM199.33153,167.70269c-0.13251,0.24431 -0.2651,0.48857 -0.39776,0.7328c-0.01628,0.4136 -0.03627,0.82713 -0.05978,1.24056c0.15035,-0.65833 0.30269,-1.31612 0.45755,-1.97336zM211.09027,162.5867c-0.87725,1.37529 -1.79524,2.74269 -2.53965,4.04511c0.23128,0.14331 0.39978,0.3783 0.45474,0.65423l0.16504,0.74752c0.60928,-1.81296 1.25073,-3.62472 1.91987,-5.44686zM183.62715,152.58708c-0.02201,0.02314 -0.04449,0.04746 -0.06745,0.07297c-0.18964,0.53026 -0.37932,1.06051 -0.56905,1.59074c0.21466,-0.55399 0.42713,-1.10849 0.63649,-1.66371z" fill="#a7a686" stroke="none" stroke-width="0.5"></path><path d="M152.37494,91.43477c0.25477,0.33652 0.25995,0.63854 0.18086,0.87523c4.023,-4.60052 7.89964,-9.34458 11.86413,-13.97537c2.1263,-2.48366 3.89507,-5.19433 6.11913,-7.49641c0.03612,-0.06223 0.07218,-0.12451 0.10817,-0.18683l0.01577,-0.02731l-0.16515,-0.11995l1.16256,-1.60061c0.2141,-0.30824 0.59366,-0.48256 0.98825,-0.41599c0.54458,0.09188 0.91158,0.60784 0.8197,1.15243c-0.02179,0.12916 -0.06743,0.24833 -0.13167,0.35377l-0.95759,1.65795c-3.347,5.79497 -7.20686,11.16291 -11.064,16.62869c-4.51561,6.39886 -9.91792,12.71047 -13.78001,19.51671c-1.5316,2.69917 -2.48608,5.95263 -3.68598,8.81821c-0.14495,0.34618 -0.26985,0.6853 -0.38977,1.01412c8.08328,-8.23993 14.8565,-18.67506 24.56598,-25.00599l-0.08376,-0.09319l1.48048,-1.33052c0.21947,-0.20076 0.52584,-0.30196 0.84186,-0.24864c0.54458,0.09188 0.91158,0.60784 0.8197,1.15243c-0.00454,0.0269 -0.01011,0.05336 -0.01667,0.07935l-0.29519,1.21687c-0.40389,1.65023 -0.98608,3.23877 -1.65721,4.79651c1.93268,-0.59208 3.69099,-0.06113 4.23392,2.58086c0.07606,0.37011 0.02672,0.84822 -0.10229,1.38576c0.29385,-0.06202 0.51678,-0.04847 0.62993,0.07302c0.17962,0.19288 0.30435,0.4197 0.38876,0.66773c0.48595,-0.43662 0.9862,-0.85401 1.50479,-1.24697l-0.16828,-0.15744l1.13216,-1.21009c0.22141,-0.24376 0.5585,-0.37318 0.90732,-0.31433c0.54458,0.09188 0.91158,0.60784 0.8197,1.15243c-0.02235,0.13248 -0.0698,0.25445 -0.13665,0.36186l-0.96792,1.63911c-2.90685,4.92259 -5.99565,9.71457 -9.14536,14.47146c-0.41787,0.77599 -0.85471,1.54345 -1.30024,2.30643c0.25817,-0.19196 0.52413,-0.38026 0.79528,-0.56465c2.27789,-2.68259 4.56736,-5.35567 6.8474,-8.03706c2.57469,-3.02791 4.97327,-6.3061 7.97387,-8.88l-0.17539,-0.15374l1.30669,-1.49072c0.22065,-0.26038 0.56905,-0.40108 0.93,-0.34018c0.54458,0.09188 0.91158,0.60784 0.8197,1.15243c-0.01779,0.10546 -0.05149,0.20426 -0.09822,0.29436l-0.43219,0.88237c-0.71832,1.46653 -1.44645,2.92807 -2.1823,4.38571c1.15303,-1.05897 2.36783,-2.07195 3.66944,-3.02759c0.88574,0.21933 2.01458,0.01018 2.65724,0.65799c0.46556,0.46928 0.02726,1.32489 -0.03749,1.98274c-0.1942,1.97334 -1.0287,3.67221 -1.89132,5.40032c0.73528,-0.96621 1.48075,-1.92443 2.23926,-2.87236l1.23709,-1.54603c0.21826,-0.28369 0.58207,-0.44057 0.95963,-0.37686c0.54458,0.09188 0.91158,0.60784 0.8197,1.15243c-0.01985,0.11766 -0.0595,0.22703 -0.11494,0.32526l-0.93108,1.74364l-0.23196,-0.12387c-1.8079,4.7878 -5.3532,8.23714 -8.87059,12.22493c-0.41984,0.47599 -0.8376,0.95295 -1.25454,1.42992c-0.50036,0.70892 -1.00147,1.4172 -1.50454,2.12391c-1.61682,2.27125 -3.02638,4.44335 -4.84487,6.37108l0.20542,0.14623l-1.14708,1.61137c-0.19962,0.29352 -0.5482,0.46826 -0.91876,0.43389c-0.89426,1.25779 -1.7763,2.51443 -2.63354,3.77352c-3.66512,5.38332 -6.95085,10.40124 -9.60285,16.34983c-0.81438,1.82668 -1.62876,3.65338 -2.44314,5.48006c-0.0511,0.11462 -1.62933,4.16611 -1.60849,4.1574c0.38541,-0.16104 0.32612,-0.78505 0.60095,-1.0996c1.6969,-1.94219 3.86596,-3.57246 5.62498,-5.50562c6.63086,-7.28732 12.87598,-15.78943 20.36247,-22.18064c2.31543,-1.97668 4.08657,-3.86504 6.54679,-4.9739l-0.13941,-0.40052l1.87146,-0.65141c0.15846,-0.05861 0.33393,-0.07781 0.51248,-0.04769c0.54458,0.09188 0.91158,0.60784 0.8197,1.15243c-0.00892,0.05284 -0.02183,0.10401 -0.03836,0.15325l-0.49324,1.5497l-0.03702,-0.01178l-0.01566,0.14392c-4.91044,7.4167 -10.15279,14.47314 -15.67581,21.44204c-2.00432,2.52903 -3.85999,5.56613 -6.34611,7.67388l-0.00445,0.01017l0.16479,0.11968l-0.59732,0.82239c-0.2141,0.30824 -0.59367,0.48257 -0.98825,0.416c-0.54458,-0.09188 -0.91158,-0.60784 -0.8197,-1.15243c0.01525,-0.09037 0.04217,-0.17585 0.07897,-0.25516l0.78985,-1.80458c1.51726,-3.46649 3.19045,-6.8492 4.85456,-10.24289c-2.89761,4.20772 -5.11207,9.23454 -7.12701,13.7377c-5.71006,12.76131 -6.85957,26.42422 -8.29919,40.19744c-0.12914,1.23556 -0.26655,2.48156 -0.40568,3.73475c2.23449,-11.12768 5.25873,-22.00182 9.63295,-32.52914c3.28242,-7.89971 6.78983,-17.48058 12.35807,-24.09032c1.6832,-1.99803 4.17055,-3.27837 6.36972,-4.59168c0,0 0.85856,-0.51271 1.37127,0.34584c0.51271,0.85856 -0.34584,1.37127 -0.34584,1.37127c-9.58529,5.72417 -13.76274,17.76004 -17.90631,27.7323c-5.21456,12.54979 -8.45813,25.58357 -10.79013,38.96291c-0.38252,8.98803 -0.6322,17.78682 -0.10747,26.78014l0.06276,1.07654c0.0064,0.0805 0.00307,0.16308 -0.01097,0.24634c-0.09188,0.54458 -0.60784,0.91158 -1.15243,0.8197c-0.41775,-0.07048 -0.73099,-0.3905 -0.81278,-0.78157l-0.44884,-1.92521l0.28413,-0.06624c-0.89097,-2.52974 -1.04267,-4.99961 -1.32569,-7.98754c-0.91846,-9.6964 0.22569,-19.62019 1.23808,-29.30601c1.46222,-13.98947 2.6628,-27.84413 8.46277,-40.80638c1.16979,-2.61434 2.40709,-5.39076 3.79876,-8.09085c-1.39445,1.60386 -2.7943,3.19479 -4.21264,4.75355c-1.75857,1.93267 -8.93482,11.02046 -9.63818,4.31277c-0.08259,-0.78765 0.59002,-1.47005 0.90041,-2.19865c0.78334,-1.83884 1.62926,-3.6545 2.44314,-5.48006c2.99166,-6.71043 6.45641,-12.41525 10.59071,-18.4877c0.37214,-0.54661 0.74429,-1.09321 1.11644,-1.63981c-0.18716,0.09856 -0.40698,0.13876 -0.63166,0.10085c-0.54458,-0.09188 -0.91158,-0.60784 -0.8197,-1.15243c0.00545,-0.03232 0.0124,-0.06402 0.02076,-0.09503l0.49668,-1.92502l0.19481,0.05026c0.70445,-4.7343 2.7966,-8.7979 5.06285,-13.07485c-4.82283,5.75756 -9.41461,11.75776 -14.28427,17.39177c-2.99827,3.46887 -5.85992,7.20934 -9.21061,10.35014c-0.73523,0.68918 -3.07115,3.75439 -3.99378,0.27511c-0.30948,-1.16706 2.08203,-4.95523 2.61426,-6.09027c2.61,-5.56626 5.90771,-10.42105 9.34887,-15.50718c2.28416,-3.37604 4.7444,-6.97702 6.85725,-10.70693c-0.74281,0.60463 -1.51791,1.17955 -2.33487,1.71766l-1.4267,0.93972c-0.20412,0.13528 -0.4581,0.19634 -0.71862,0.15238c-0.54458,-0.09188 -0.91158,-0.60784 -0.8197,-1.15243c0.00501,-0.02968 0.01127,-0.05882 0.01873,-0.0874l0.48321,-1.92927l0.19039,0.04769c0.08172,-0.50908 0.17894,-1.01179 0.28982,-1.50892c-1.62198,1.43844 -3.31395,2.77525 -5.11978,3.76529l0.16354,0.22834l-1.33166,0.95378c-0.20899,0.14977 -0.47532,0.2194 -0.74888,0.17325c-0.54458,-0.09188 -0.91158,-0.60784 -0.8197,-1.15243c0.02626,-0.15563 0.08716,-0.29677 0.17345,-0.41682l1.03066,-1.50241c2.75992,-4.02207 5.72998,-7.99896 8.85525,-11.74311c0.94014,-1.1259 2.1313,-3.07949 3.35493,-4.23389c0.61678,-1.41411 1.19238,-2.8492 1.67523,-4.32761c-2.10604,2.52066 -5.82691,4.92231 -7.78309,6.67902c-6.42788,5.77247 -11.30696,13.16327 -17.6016,19.08365l-1.44932,1.36191c-0.22051,0.21157 -0.53483,0.31974 -0.85931,0.265c-0.54458,-0.09188 -0.91158,-0.60784 -0.8197,-1.15243c0.01429,-0.08468 0.03883,-0.16508 0.07214,-0.24012l0.76399,-1.82456l0.13538,0.05668c2.81856,-12.11553 12.10833,-22.5738 19.08626,-32.4619c0.11763,-0.16668 0.23525,-0.33328 0.35288,-0.49978c-4.06035,4.82773 -8.15129,9.63977 -12.52688,14.15804c-0.92756,0.95782 -1.85513,1.91562 -2.78269,2.87343l-1.27549,1.31709c-0.22148,0.23504 -0.55251,0.35862 -0.89486,0.30086c-0.43873,-0.07402 -0.76219,-0.42327 -0.82333,-0.841c-3.04095,3.54209 -6.0819,7.08417 -9.12285,10.62625c-2.59652,3.02441 -4.99289,6.35865 -8.00574,8.94261l0.18902,0.16228l-1.29091,1.50365c-0.22024,0.2657 -0.57219,0.41004 -0.93697,0.3485c-0.54458,-0.09188 -0.91158,-0.60784 -0.8197,-1.15243c0.0243,-0.14402 0.07825,-0.27562 0.15456,-0.38961l1.06248,-1.66814c1.81404,-2.84812 3.05387,-5.64536 4.32381,-8.77182c1.75579,-4.32252 3.46111,-8.66972 5.26867,-12.97078c0.13018,-0.30976 0.21181,-0.63487 0.2608,-0.96826c-0.19019,0.10407 -0.41545,0.14732 -0.64582,0.10845c-0.54458,-0.09188 -0.91158,-0.60784 -0.8197,-1.15243c0.00149,-0.00881 0.00308,-0.01755 0.00479,-0.02626c-0.56296,0.48863 -1.15843,0.94712 -1.70556,1.45043c-3.69139,3.39578 -7.3828,6.79156 -11.0742,10.18734c-0.81462,1.00604 -1.6182,2.01167 -2.3949,3.02185c-0.47185,0.49577 -0.94372,0.99155 -1.41557,1.48732l-0.59303,0.62222c-1.11266,1.65108 -2.13766,3.37746 -3.21856,4.97643c-3.36024,4.9708 -6.72047,9.94159 -10.08071,14.91239c-1.27573,1.88718 -2.39652,3.6888 -3.73089,5.33887c-0.2607,0.4109 -0.52141,0.82181 -0.78212,1.23271l-0.01511,0.02383l0.04782,0.03233l-1.10739,1.63817c-0.21006,0.32609 -0.6008,0.5134 -1.00752,0.44478c-0.54458,-0.09188 -0.91158,-0.60784 -0.8197,-1.15243c0.0242,-0.14342 0.07781,-0.27453 0.15361,-0.38817l1.05953,-1.66997c0.26692,-0.42071 0.53384,-0.8414 0.80075,-1.26211c0.4118,-0.8802 1.01727,-1.7608 1.65082,-2.60204c5.60661,-8.8374 11.21256,-17.67523 16.82097,-26.51149c2.80025,-4.97474 5.60116,-9.94911 8.40234,-14.92333c-2.70913,3.14494 -5.35939,6.34174 -7.96852,9.53677c-2.3527,2.88102 -4.20622,5.99878 -6.75024,8.57325c-0.01123,0.01944 -0.02246,0.03889 -0.03369,0.05833l-0.03756,0.06503l0.1874,0.1407l-1.18805,1.58245c-0.2157,0.2999 -0.58996,0.46824 -0.9788,0.40263c-0.54458,-0.09188 -0.91158,-0.60784 -0.8197,-1.15243c0.02179,-0.12916 0.06743,-0.24833 0.13167,-0.35377l0.97316,-1.68491c2.60556,-4.51111 5.30966,-8.96645 7.9757,-13.44206c0.00528,-0.00885 0.01056,-0.01771 0.01586,-0.02657l-0.73263,0.53477c-0.21015,0.15371 -0.47977,0.22571 -0.75679,0.17897c-0.54458,-0.09188 -0.91158,-0.60784 -0.8197,-1.15243c0.01292,-0.07656 0.03422,-0.1496 0.06279,-0.21837l0.72252,-1.84231l0.12096,0.04744c0.51734,-2.34989 1.25346,-4.67936 2.1391,-6.98179c-4.06578,3.53539 -7.69982,7.66824 -12.03719,10.70046l0.12501,0.12932l-1.42915,1.38154c-0.22098,0.21855 -0.54034,0.33125 -0.87021,0.2756c-0.54458,-0.09188 -0.91158,-0.60784 -0.8197,-1.15243c0.0166,-0.09839 0.04705,-0.19099 0.089,-0.27613c0.07079,-0.15219 0.1503,-0.32317 0.23635,-0.5082c-6.32672,6.30366 -12.65346,12.60731 -18.98018,18.91097c-2.03785,2.89046 -4.12678,5.73525 -6.30247,8.49683c-4.36434,5.53683 -8.33942,11.33665 -12.48383,17.01481c-0.95707,1.53868 -2.04405,3.21225 -3.23762,4.34623c-0.29466,0.38592 -0.5908,0.77078 -0.88863,1.15447l-1.21402,1.56342c-0.21715,0.29135 -0.58591,0.4536 -0.96882,0.389c-0.54458,-0.09188 -0.91158,-0.60784 -0.8197,-1.15243c0.02773,-0.16438 0.0941,-0.31257 0.18823,-0.43685l1.16173,-1.60304l0.05325,0.0386l0.01967,-0.02532c0.21304,-0.27424 0.42521,-0.54909 0.6366,-0.8245c2.05382,-3.73831 5.03536,-7.11602 7.5058,-10.52493c4.61242,-6.36461 8.87339,-13.79329 14.43048,-19.34719c0.13339,-0.1329 0.26678,-0.2658 0.40017,-0.3987c4.61283,-6.55029 8.96262,-13.33629 13.47096,-19.91154c1.08327,-2.98843 3.10137,-5.48753 5.09106,-8.52295c0.92076,-1.40469 1.82852,-2.82779 2.73269,-4.25899c-3.53408,4.18827 -7.0518,8.39301 -10.40799,12.70738c-1.82812,2.35005 -3.33057,4.7759 -5.20957,6.91488c-0.23534,0.35497 -0.47214,0.70915 -0.71047,1.06246l-0.02015,0.02987l0.0599,0.04375l-1.16692,1.59753c-0.21439,0.30681 -0.59305,0.48011 -0.98665,0.4137c-0.3696,-0.06236 -0.65739,-0.32004 -0.77546,-0.64944c-0.63749,0.77068 -1.27664,1.53992 -1.91785,2.3074l-1.27019,1.52028c-0.21958,0.27266 -0.57614,0.42182 -0.94591,0.35943c-0.54458,-0.09188 -0.91158,-0.60784 -0.8197,-1.15243c0.01431,-0.08481 0.03891,-0.16532 0.07229,-0.24045l0.76463,-1.82427l0.22129,0.09275c0.69708,-2.55842 1.79789,-4.91021 2.87117,-7.47087c0.58169,-1.38782 1.19731,-2.76019 1.84025,-4.11998c-3.00361,3.84576 -6.00637,7.72726 -8.67294,11.73451c-1.7249,3.7168 -3.5471,7.3766 -5.59701,10.9923l-0.9749,1.71956c-0.19729,0.36781 -0.61343,0.58643 -1.04778,0.51315c-0.54458,-0.09188 -0.91158,-0.60784 -0.8197,-1.15243c0.01687,-0.10001 0.04805,-0.19403 0.09107,-0.28032l0.84191,-1.78876l0.13493,0.0635l0.03464,-0.0611c0.05624,-0.0992 0.11231,-0.19843 0.1682,-0.29769c0.99706,-3.26451 2.7129,-6.21266 4.65304,-9.05284c1.57766,-3.32986 3.06093,-6.70489 4.54784,-10.13519c0.61757,-1.42473 3.56409,-6.23945 2.63443,-7.25843c-2.99853,4.75712 -8.08927,8.3869 -11.81138,12.59715c-5.26943,5.9605 -10.04357,12.45227 -15.03942,18.64542c-5.24557,6.50273 -10.50959,12.98501 -15.61632,19.59748c-2.4357,3.15388 -4.6635,6.59575 -7.52155,9.35318l0.18678,0.14425l-1.20982,1.56653c-0.21692,0.29273 -0.58658,0.45597 -0.97046,0.3912c-0.54458,-0.09188 -0.91158,-0.60784 -0.8197,-1.15243c0.01592,-0.09435 0.04457,-0.18336 0.08388,-0.26558l0.78333,-1.73627c4.18739,-9.28143 8.96314,-18.3223 13.58245,-27.40594c-0.3116,-0.2134 -0.48835,-0.59509 -0.42139,-0.99198c0.00725,-0.04298 0.01715,-0.08486 0.02949,-0.12549l0.55104,-1.90713l0.24836,0.07176c0.83203,-4.67728 3.32455,-8.59046 5.63548,-12.93551c2.47993,-4.6628 4.86769,-9.39751 7.4179,-14.03296c0.49885,-1.19977 0.99772,-2.39886 1.49804,-3.59626c-6.50216,10.97127 -13.00851,21.91374 -19.04149,33.15516c-2.8431,5.29764 -5.62249,10.62991 -8.65649,15.82092l-0.60545,1.03589c-0.19974,0.36084 -0.61171,0.57413 -1.0415,0.50162c-0.54458,-0.09188 -0.91158,-0.60784 -0.8197,-1.15243c0.01179,-0.06988 0.03056,-0.13683 0.05548,-0.20027l0.68842,-1.85628l0.23692,0.08786c0.69362,-3.24356 2.06076,-6.28343 3.24025,-9.46385c3.31672,-8.94337 7.65026,-16.91957 12.27448,-25.25249c0.01096,-0.01975 0.02192,-0.03949 0.03287,-0.05924c-0.51624,-0.11455 -0.85759,-0.61508 -0.76862,-1.14246c0.01813,-0.10748 0.05279,-0.20805 0.10092,-0.29954l0.87978,-1.77016l0.23228,0.11544c0.83232,-2.515 2.08429,-4.77652 3.32824,-7.27942c1.46316,-2.94397 2.73178,-6.16076 4.45647,-8.95771c3.46772,-5.62365 8.04841,-10.81252 11.99693,-16.11382c0.07729,-0.10377 0.15457,-0.20741 0.23182,-0.3109c-2.69662,2.78581 -5.4067,5.55841 -8.14448,8.30618c-2.13846,3.52837 -4.3222,7.02871 -6.60388,10.47965c-2.21808,3.35476 -4.28384,6.88451 -6.87272,9.96404l-1.16773,1.38675c-0.21979,0.27066 -0.57502,0.41842 -0.94336,0.35627c-0.54458,-0.09188 -0.91158,-0.60784 -0.8197,-1.15243c0.02318,-0.13741 0.07336,-0.26351 0.14419,-0.37379l1.02977,-1.68801l0.21832,0.13319c1.29674,-3.05255 3.22216,-5.77286 4.9896,-8.67002c0.52387,-0.85873 1.06298,-1.70684 1.61525,-2.54577c-1.04838,0.64805 -1.85494,0.52284 -2.00768,-2.69108c-0.03879,-0.81624 0.80876,-1.42046 1.23371,-2.11844c1.03871,-1.70606 2.16272,-3.36794 3.24202,-5.04869c4.72026,-7.35073 9.07193,-14.91193 14.9073,-21.4246l0.66245,-0.73935c0.221,-0.25477 0.56561,-0.39164 0.9225,-0.33143c0.45881,0.07741 0.79157,0.45582 0.83007,0.89877l0.08912,0.81109c0.97299,-1.15336 1.93929,-2.29307 2.87995,-3.42319l0.65442,-0.78623c0.21948,-0.27362 0.57668,-0.42344 0.94713,-0.36094c0.54458,0.09188 0.91158,0.60784 0.8197,1.15243c-0.02198,0.1303 -0.06824,0.25043 -0.13336,0.35654l-0.99442,1.70867l-0.16591,-0.09656c-0.59099,1.64078 -1.33546,3.25139 -2.18819,4.82952c1.86321,-2.03035 3.77921,-4.01792 5.75802,-6.00551c0.50483,-0.50707 3.09448,-3.23964 3.66077,-3.12065c1.04534,0.21963 1.57946,0.62101 1.79518,1.10588l0.38407,-0.3807c0.22127,-0.22478 0.54508,-0.34157 0.87969,-0.28511c0.54458,0.09188 0.91158,0.60784 0.8197,1.15243c-0.01424,0.0844 -0.03866,0.16453 -0.0718,0.23935l-0.7625,1.8252l-0.14692,-0.06138c-0.33025,1.40198 -0.75424,2.78435 -1.25644,4.14822c0.21032,0.2204 0.31768,0.53382 0.2631,0.85733c-0.01926,0.11417 -0.05717,0.22053 -0.11006,0.3165l-0.56209,1.07855c-0.61988,1.18942 -1.25062,2.37156 -1.89089,3.54742c0.42431,0.17272 0.68748,0.62188 0.6081,1.09242c-0.00842,0.04989 -0.0204,0.0983 -0.03563,0.145l-0.58634,1.89486l-0.17116,-0.05296c-0.5599,3.75083 -1.86545,7.34358 -3.57488,10.81315c2.17326,-2.62896 4.40841,-5.21571 6.72884,-7.78899l1.32808,-1.4728c0.22109,-0.25315 0.56458,-0.3889 0.92029,-0.32889c0.10112,0.01706 0.19611,0.04875 0.2832,0.09251c2.41539,-2.38196 4.93436,-4.6036 7.69295,-6.45546l-0.09622,-0.10248l1.44982,-1.36141c0.22049,-0.2114 0.53469,-0.31945 0.85904,-0.26473c0.54458,0.09188 0.91158,0.60784 0.8197,1.15243c-0.01033,0.06124 -0.02603,0.12025 -0.04653,0.17659l-0.45363,1.31907l-0.03124,-0.01075l-0.00348,0.0981c-0.55577,0.97952 -1.11397,1.95765 -1.67288,2.93538c-4.63689,8.11157 -8.89211,16.32794 -13.05182,24.69356c-0.8089,1.6268 -1.62507,4.01261 -2.68323,6.06413c5.8177,-6.26551 11.47349,-12.65828 17.12526,-19.07734c2.35482,-2.67451 4.26245,-5.59065 7.12082,-7.30755l-0.21918,-0.42642l1.71749,-0.8828c0.18737,-0.09892 0.40754,-0.13931 0.6326,-0.10134c0.54458,0.09188 0.91158,0.60784 0.8197,1.15243c-0.01877,0.11125 -0.05523,0.21509 -0.10603,0.30912l-0.8988,1.76051c-1.21968,2.38901 -2.41267,4.78692 -3.73267,7.12232c-0.53385,0.94426 -1.07692,1.88725 -1.62545,2.83006c0.60699,-0.65583 1.21667,-1.31168 1.82611,-1.97135l0.97556,-1.05596c0.22133,-0.24697 0.56061,-0.37855 0.91181,-0.3193c0.43158,0.07281 0.75162,0.41196 0.82014,0.82064l0.37232,1.94127c0.28319,0.85543 0.4771,1.70705 0.37405,2.29278c-0.23823,1.35404 -1.3021,3.00204 -2.36099,4.52798c3.51261,-4.158 7.06955,-8.27867 10.6087,-12.41508c2.37806,-2.77937 4.58042,-5.82974 7.26393,-8.29502c0.19222,-0.24518 0.38443,-0.49035 0.57665,-0.73553l0.02531,-0.03229l-0.06443,-0.05514l1.28833,-1.50574c0.22017,-0.26657 0.57269,-0.41151 0.93811,-0.34986c0.42257,0.07129 0.73821,0.39792 0.81551,0.79513c0.21114,-0.15723 0.48365,-0.23134 0.76372,-0.18409c0.48831,0.08238 0.83383,0.50574 0.8338,0.98495l0.03557,1.87741c0.23419,1.23206 0.35316,2.51664 0.02385,3.4278c-1.08555,3.00357 -3.70665,6.03799 -5.396,8.7544c-0.3346,0.53802 -0.6702,1.07485 -1.00618,1.61093c1.14698,-1.16524 2.30435,-2.32129 3.47481,-3.466c2.41318,-2.3601 4.65354,-4.83347 7.30261,-6.83519l-0.15337,-0.15682l1.42079,-1.38954c0.22113,-0.22144 0.54255,-0.33603 0.87463,-0.28001c0.54458,0.09188 0.91158,0.60784 0.8197,1.15243c-0.01356,0.08037 -0.03636,0.15688 -0.06712,0.22861l-0.74199,1.83408l-0.0157,-0.00635l-0.00774,0.05975c-0.68841,1.26016 -1.38324,2.51298 -2.07497,3.76477c1.45415,-1.1444 2.95606,-2.24616 4.52192,-3.29543c0.99531,-0.66695 4.60742,-3.72971 5.74869,-3.48749c0.72309,0.15346 1.05948,0.96714 1.4326,1.67228c1.14481,-1.59361 2.0558,-3.21988 3.14767,-4.7635c0.10894,-0.22892 0.21787,-0.45783 0.32682,-0.68676l0.03109,-0.06535l-0.13342,-0.07685l0.9865,-1.71289c0.19857,-0.36422 0.61256,-0.5801 1.04457,-0.50721c0.54458,0.09188 0.91158,0.60784 0.8197,1.15243c-0.01713,0.10151 -0.04898,0.19683 -0.09301,0.28419c-0.28647,0.60198 -1.42243,2.98905 -1.7089,3.59103c-1.0729,2.25455 -2.22625,4.47067 -3.42386,6.66482c-0.19385,0.49809 -0.50947,1.0019 -0.87931,1.59399c-1.14097,2.04806 -2.31312,4.08032 -3.48659,6.11032c-0.29608,0.52583 -0.59217,1.05166 -0.88825,1.57749c0.75046,-0.78664 1.50093,-1.5733 2.25138,-2.35994l0.81068,-0.84976c0.22148,-0.23883 0.55515,-0.36494 0.90032,-0.3067c0.54458,0.09188 0.91158,0.60784 0.8197,1.15243c-0.01887,0.11185 -0.05563,0.21621 -0.10685,0.31063l-0.90182,1.75895l-0.21056,-0.10795c-1.09943,3.13119 -2.80798,5.99544 -4.3518,9.00655c-0.78818,1.5373 -1.52447,3.14916 -2.29964,4.73665c0.58223,-0.57819 1.17283,-1.14702 1.77508,-1.70303c0.36736,-0.41343 0.73975,-0.83728 1.12251,-1.27206c5.16748,-5.86993 10.42088,-11.65908 15.28669,-17.78232c2.84673,-3.58238 5.49934,-7.69229 8.89273,-10.81544l-0.18282,-0.14528l1.23177,-1.55008c0.21802,-0.28547 0.58297,-0.44358 0.96178,-0.37967c0.54458,0.09188 0.91158,0.60784 0.8197,1.15243c-0.01964,0.11643 -0.05868,0.22475 -0.11322,0.3222l-0.67654,1.27776l-0.03089,-0.01636l-0.01361,0.09213c-0.7846,1.0096 -1.5704,2.01828 -2.35712,3.02622c-3.42209,4.3844 -6.94498,8.70174 -10.28414,13.14817c2.30002,-2.76034 4.64096,-5.49426 7.01999,-8.22629c2.18792,-2.51255 4.22111,-5.99148 7.1668,-7.35521l-0.15743,-0.47969l1.17328,-0.38507c0.15423,-0.05409 0.32392,-0.07104 0.49647,-0.04193c0.54458,0.09188 0.91158,0.60784 0.8197,1.15243c-0.02011,0.1192 -0.06054,0.22987 -0.11712,0.32911c-0.31663,0.58668 -1.57207,2.91286 -1.8887,3.49954c-4.78735,8.8704 -9.67713,17.84019 -14.0422,26.98336c0.53026,-0.61765 1.06053,-1.2353 1.59079,-1.85295c0.43426,-0.50582 0.86853,-1.01166 1.30279,-1.51748l1.64471,-1.27355c0,0 0.7973,-0.60358 1.40088,0.19372zM150.84682,93.81738c-0.43426,0.50582 -0.86853,1.01166 -1.30279,1.51748c-1.19092,1.38719 -2.38184,2.77436 -3.57277,4.16155c0.03302,-0.03409 0.06603,-0.06818 0.09906,-0.10228c2.00741,-2.07287 3.95451,-4.20809 5.86613,-6.3784zM135.45837,70.08271c-0.21212,-0.38483 0.00232,-1.15579 -0.42752,-1.24702c-0.42985,-0.09123 -0.55616,0.68874 -0.89719,0.96586c-1.52272,1.23738 -3.35366,2.24725 -4.98441,3.34001c-2.25535,1.51129 -4.36767,3.18467 -6.39384,4.95799c-1.08824,2.04014 -2.13863,4.09699 -3.11043,6.19731c0.51228,0.09425 0.86321,0.56504 0.8144,1.07725l-0.16808,1.98349l-0.06047,-0.00512c0.03299,0.57454 0.05415,1.16123 0.05618,1.74671c5.12221,-6.25354 10.19643,-12.54364 15.26585,-18.84108c-0.02981,-0.05672 -0.0613,-0.11514 -0.09451,-0.17539zM110.14604,90.47552c-2.04934,2.04186 -4.09867,4.08373 -6.14801,6.12559c-0.04937,0.10374 -0.09852,0.20761 -0.14748,0.31162c0.60558,-0.5262 1.2224,-1.03007 1.74822,-1.53838c3.48079,-3.36484 6.76154,-6.4188 10.64426,-9.14998c0.56944,-1.2495 1.17217,-2.48965 1.79664,-3.71935c-2.65898,2.61534 -5.24021,5.32676 -7.89363,7.97051zM95.1972,98.51389c-0.28299,0.40971 -0.56529,0.82031 -0.84699,1.2317c1.46551,-1.32432 2.84573,-2.66438 4.20127,-4.13749c3.02904,-3.29173 6.0415,-6.58975 9.09206,-9.85054c1.9515,-3.24233 3.99678,-6.43411 6.00809,-9.66824c1.61533,-2.5974 4.02445,-5.40597 5.16613,-8.22916c0.34402,-0.85071 0.08022,-1.7769 0.16504,-2.72675l-0.05873,0.05574c-2.85697,2.71133 -5.50112,5.4489 -8.0587,8.34786c-4.76539,6.69776 -8.96341,13.9426 -13.44162,20.77447c-0.62678,0.95621 -1.49133,2.00446 -2.2074,3.06791c0.39806,0.53046 -0.01916,1.1345 -0.01916,1.1345zM86.95065,110.76305c5.13065,-5.11195 10.26131,-10.22388 15.39195,-15.33582c0.34909,-0.72566 0.70793,-1.44501 1.07534,-2.15895c-1.13115,1.23074 -2.26176,2.46287 -3.39473,3.69409c-1.69337,1.84022 -3.42983,3.48551 -5.30966,5.13802l-1.49565,1.31477c-0.21882,0.19547 -0.52125,0.2933 -0.83307,0.24069c-0.19988,-0.03372 -0.37582,-0.12457 -0.51394,-0.25299c-1.64338,2.44427 -3.27656,4.90493 -4.92023,7.36018zM108.73441,89.05872c4.0338,-4.01909 7.90328,-8.01439 12.05664,-11.71278c0.73115,-1.32132 1.46882,-2.62803 2.19748,-3.91863c-1.36265,1.22896 -2.81574,2.35825 -3.77151,3.293c-3.41417,3.33908 -6.71641,6.77514 -9.97397,10.25466c-0.74588,1.24237 -1.47735,2.49258 -2.187,3.75599c0.55945,-0.55742 1.11891,-1.11482 1.67836,-1.67224zM133.68847,94.72696c0.05694,0.01805 0.12066,0.0841 0.18889,0.18823c0.44243,-0.79806 0.91704,-1.58023 1.4077,-2.35725c-0.78664,0.61594 -1.55472,1.25899 -2.30748,1.92367c-0.4352,0.4903 -0.8634,0.967 -1.29215,1.43077c0.82477,-0.69317 1.66271,-1.29331 2.00304,-1.18542zM135.22844,99.676c-0.01679,0.19395 -1.44459,3.67466 -1.57512,3.996c-1.50533,3.70594 -3.01066,7.41187 -4.516,11.11781c-0.28895,0.71136 -0.57715,1.40709 -0.87094,2.09101c0.57933,-0.58349 1.10947,-1.1245 1.52115,-1.60403c3.91816,-4.56385 7.83631,-9.1277 11.75447,-13.69154c0.20002,-0.52203 0.61573,-0.99662 0.8603,-1.50723c1.15168,-2.4045 2.35561,-4.78556 3.53304,-7.17757c3.82311,-7.76688 7.70838,-15.46681 11.78772,-23.09657c-1.07501,1.23217 -2.15622,2.45915 -3.22981,3.69203c-6.14568,7.05756 -12.03478,14.12528 -17.61998,21.63554c-0.66222,0.89046 -1.32467,1.78075 -1.98734,2.67087c0.2178,0.85743 0.36417,1.62365 0.34252,1.87369zM122.82427,102.12943c0.02201,-0.02943 0.04401,-0.05886 0.06598,-0.08829c-0.24902,-0.22126 -0.38199,-0.56195 -0.32248,-0.91464c0.00406,-0.02408 0.00896,-0.04781 0.01464,-0.07117l0.45473,-1.93802l0.15539,0.03646c0.03931,-0.31113 0.08352,-0.62113 0.13244,-0.93006c-1.56046,2.77107 -3.12101,5.5421 -4.68171,8.31304c1.2866,-1.4191 2.64806,-2.79629 3.99077,-4.20708c0.06347,-0.06669 0.12688,-0.13344 0.19023,-0.20024zM115.27288,101.10692c3.57615,-4.43251 7.3563,-8.75939 11.21691,-12.9234c1.68791,-3.71743 3.80896,-7.32122 5.96543,-10.88607c-4.1348,5.12528 -8.28619,10.23562 -12.46971,15.32209c-0.06788,0.32504 -0.14903,0.63881 -0.24519,0.93811c-0.7664,2.38528 -2.90099,4.91988 -4.18704,7.07887c-0.09342,0.15682 -0.18688,0.31363 -0.2804,0.47041zM87.76254,86.73929c2.24947,-3.9903 4.59125,-7.93386 6.83986,-11.91113c0.59141,-1.04579 1.15672,-2.10452 1.71031,-3.16941c-1.69577,1.8948 -3.65547,3.68253 -5.12378,5.35019c-4.05244,4.60261 -8.11474,9.18218 -12.24329,13.70784c0.72168,0.4314 1.48888,0.83062 1.76352,1.57796c0.29861,0.8126 -0.54264,1.64495 -0.85333,2.45301c-0.7149,1.85931 -1.59392,3.6772 -2.38624,5.50507c-0.19114,0.44097 -0.38224,0.88103 -0.5735,1.32022c3.47559,-4.74713 6.95119,-9.49426 10.42677,-14.24139c0.14543,-0.19864 0.29201,-0.39607 0.43966,-0.59235zM75.66711,84.51812c3.56575,-7.17112 7.24277,-14.20228 11.17196,-21.16665c-1.44745,1.27304 -3.02494,2.43977 -4.06137,3.413c-0.34304,0.32212 -0.68608,0.64424 -1.02912,0.96633c-0.10318,0.76178 -0.86789,1.28262 -1.30714,1.91832c-1.51533,2.19303 -3.09452,4.345 -4.64091,6.51628c-5.28666,7.42296 -10.51984,14.88743 -15.90438,22.23975c-5.18231,7.07618 -10.35552,14.15863 -15.57452,21.20764c-0.3494,0.71552 -0.70253,1.42874 -1.05973,2.13942c-3.94274,7.84065 -8.06546,15.62543 -11.88762,23.53693c0.61952,-0.69132 1.19092,-1.33122 1.62222,-1.88968c5.52358,-7.15221 11.19127,-14.18008 16.86503,-21.21363c6.4458,-7.99062 12.71916,-16.39988 19.83334,-23.91344c-0.26774,-0.22007 -0.41348,-0.57337 -0.35169,-0.93961c0.01815,-0.10755 0.05283,-0.20817 0.10101,-0.2997l0.88011,-1.77l0.15229,0.07572c1.36438,-3.74041 3.41761,-7.25516 5.19053,-10.82069zM59.19656,74.67193c1.51841,-2.25362 3.03026,-4.51302 4.5361,-6.77907c-0.22096,0.29467 -0.44198,0.59047 -0.66317,0.88744c-5.33752,7.16617 -10.70794,13.95845 -14.8105,21.86239c0.00644,-0.00925 0.01288,-0.0185 0.0193,-0.02774c1.91296,-3.20918 3.91438,-6.36787 6.09343,-9.4539c1.11632,-1.58097 2.1608,-3.46982 3.46082,-4.9013c0.43323,-0.47704 0.82669,-1.3623 1.36402,-1.58781zM59.6569,90.18723c0.2754,-0.4718 0.6011,-0.93983 0.94952,-1.39865c1.00516,-1.467 2.04049,-2.94208 3.06693,-4.42809c-0.59233,0.44513 -1.20439,0.86371 -1.84373,1.24538l-1.12437,0.66733c-0.15777,0.09502 -0.34227,0.14707 -0.53509,0.14305c-0.32922,0.52926 -0.65833,1.05877 -0.98718,1.58867c-1.37011,2.2076 -2.67661,4.45783 -3.94336,6.7336c-2.19535,5.27662 -4.38966,10.56665 -6.70368,15.78729c3.25433,-4.43006 6.4987,-8.86745 9.74665,-13.30237c4.98552,-6.8075 9.83374,-13.71631 14.72863,-20.5892c0.38973,-0.54721 0.79187,-1.17982 1.20847,-1.85757c-0.09388,0.08738 -0.18779,0.17474 -0.28171,0.2621c-2.27363,2.68843 -4.4737,5.43267 -6.58656,8.31322c-2.15109,2.93266 -4.10607,6.12325 -6.58199,8.7672c-0.19094,0.29081 -0.38012,0.58109 -0.56725,0.87088l0.05185,0.03803l-1.17012,1.59528c-0.2146,0.30577 -0.59259,0.47831 -0.98548,0.41202c-0.54458,-0.09188 -0.91158,-0.60784 -0.8197,-1.15243c0.02779,-0.16474 0.09439,-0.31322 0.18885,-0.43767l0.58428,-0.80441c0.51702,-0.81597 1.05434,-1.63367 1.60503,-2.45363zM59.74577,78.71938c-0.05922,-0.28617 -0.18194,-0.57539 -0.28825,-0.85982c-3.48056,5.14411 -6.99634,10.25942 -10.55406,15.3561c-2.04638,3.58075 -3.95281,7.25189 -5.94805,10.84734c-4.39697,7.9234 -8.52981,15.51046 -11.75781,23.94197c0.95904,-1.79249 1.91301,-3.58783 2.87437,-5.37915c5.1342,-9.56669 10.61015,-18.91755 16.13529,-28.25336c-0.18778,-0.21769 -0.28075,-0.51431 -0.22918,-0.81995c0.0169,-0.10016 0.04815,-0.19432 0.09127,-0.28072l0.84269,-1.78838l0.23574,0.11109c1.58956,-4.95333 5.03411,-8.56028 8.48231,-12.73506c0.03855,-0.04668 0.07712,-0.09336 0.11567,-0.14004zM157.03997,131.49145c-1.31301,1.84515 -2.60385,3.71021 -3.70296,5.64488c-1.43798,2.53114 -2.25618,5.63799 -3.70892,8.23546c0.80857,-0.84608 2.05185,-2.14637 2.06613,-2.16204c2.19367,-2.40777 4.26759,-4.9379 6.39766,-7.4023c4.75514,-5.5015 9.38414,-11.09698 14.00628,-16.71031c-1.34767,0.82293 -2.58981,1.75231 -3.83361,2.66985c-2.93577,3.46925 -5.84582,6.95979 -8.68801,10.50638c-0.41691,0.52022 -0.8338,1.04045 -1.25071,1.56068l-1.23826,1.54514c-0.21831,0.28331 -0.58186,0.4399 -0.95916,0.37624c-0.54458,-0.09188 -0.91158,-0.60784 -0.8197,-1.15243c0.01943,-0.11516 0.05782,-0.22239 0.11144,-0.31901l0.91854,-1.75027l0.23367,0.12263c0.14494,-0.39452 0.30126,-0.78251 0.46763,-1.16492zM172.87972,116.34339c0.31334,-0.16779 0.60634,-0.32573 0.87272,-0.47323c0.11532,-0.06385 0.96889,-0.57625 1.81572,-1.00219c0.75763,-0.91377 1.51836,-1.81584 2.29301,-2.70129c0.60221,-1.15521 1.20175,-2.31164 1.79714,-3.47025c-0.86932,0.87749 -1.69801,1.68832 -2.28602,2.37984c-1.49481,1.75794 -2.99417,3.51212 -4.49257,5.26711zM177.44969,124.24981c1.46667,-2.14926 2.93445,-4.29778 4.40388,-6.44515c1.85088,-2.70482 3.0638,-5.79101 4.47529,-8.7452c0.45064,-0.94317 1.43184,-3.19867 0.53253,-2.99513c-2.54895,2.24958 -4.95993,4.65716 -7.28165,7.16446c-0.46647,0.89733 -0.93476,1.79373 -1.40436,2.68947c0.51298,1.10565 1.04471,2.44088 1.04213,2.83403c-0.00151,0.23125 -1.19155,3.75108 -1.31608,4.12469c-0.15229,0.45688 -0.30239,0.91469 -0.45175,1.37286zM170.30961,103.54482c0.228,-0.65303 0.46085,-1.304 0.7035,-1.95046c0.07509,-0.20005 0.86861,-1.53967 0.13037,-1.74788c-0.43779,-0.12346 -0.80517,0.43327 -1.23703,0.57606c-1.07586,0.35573 -1.87877,0.90379 -2.58092,1.57676c-0.83667,1.68887 -1.69206,3.37126 -2.44551,5.08891c1.13605,-0.89328 2.3126,-1.71366 3.55251,-2.40239c0.22067,-0.12258 0.98464,-0.61815 1.87709,-1.14102zM169.29936,106.49067c-0.94778,0.54224 -1.85373,1.11968 -2.71548,1.87166c-1.04803,0.91453 -2.10404,1.92278 -3.1825,2.94385c-0.26837,1.27375 -0.43359,2.58388 -0.95182,3.72026c2.13658,-1.53671 3.95206,-3.47155 5.70212,-5.47631c0.31977,-0.761 0.61522,-1.52511 0.88226,-2.2916c0.08905,-0.25561 0.17743,-0.51161 0.26541,-0.76787zM178.52058,144.23438c-0.40914,1.37816 -1.60079,3.08295 -2.01657,3.94055c-1.08675,2.24155 -2.19483,4.46839 -3.27635,6.70795c0.13878,-0.15879 0.25742,-0.29856 0.3498,-0.41512c5.57294,-7.03188 10.81382,-14.16314 15.91614,-21.52539c-2.10453,1.97824 -4.56839,3.60612 -6.63217,5.61871c-0.96395,0.94004 -1.91201,1.90145 -2.8476,2.87921c0.15587,0.21077 0.22917,0.48215 0.18211,0.76106c-0.0336,0.19915 -0.12391,0.37455 -0.25159,0.51245l-0.67417,0.75195c-0.23673,0.26364 -0.48886,0.51862 -0.74961,0.76862zM171.06116,131.83124c0.92193,-0.85752 1.82157,-1.74073 2.70395,-2.6433c1.46719,-3.34817 3.06723,-7.31662 3.08217,-10.74382c-1.30796,2.48133 -2.62233,4.95936 -3.93232,7.43953c-0.90331,1.7102 -1.13151,4.04905 -1.85379,5.94759zM125.21891,98.71859c0.10663,-0.16409 0.21219,-0.3286 0.31661,-0.49358c1.73967,-2.74869 3.03239,-5.92346 4.51747,-8.82003c0.52288,-1.01983 1.08071,-2.45684 1.72505,-3.91c-0.32668,0.34243 -0.65336,0.68487 -0.98004,1.02729c-0.74112,0.77686 -1.47703,1.56092 -2.20805,2.35125c-0.66517,1.18134 -1.33035,2.36268 -1.99553,3.54402c-0.63146,1.99005 -0.61071,4.36744 -1.37551,6.30104zM118.08294,91.78398c0.18666,-1.54326 -0.08209,-3.10171 0.38146,-4.58119l-0.09389,-0.00796c-0.18091,0.43524 -0.35783,0.87276 -0.5304,1.31279c-0.6244,1.59209 -1.2106,3.96211 -2.04572,6.05345c0.4646,-0.56402 0.9295,-1.12778 1.39439,-1.69158c0.29824,-0.3617 0.59629,-0.72355 0.89416,-1.08553zM81.57405,104.4472c2.36519,-2.87914 4.71212,-5.77383 7.06169,-8.66581c1.8399,-3.05591 3.63602,-6.13949 5.45178,-9.21856c1.02167,-1.73248 3.59569,-4.61131 3.93981,-6.55387c0.09417,-0.53162 -0.01922,-1.08439 -0.07979,-1.62962l-0.28784,0.0552l-0.00383,-0.01994c-3.00337,3.24371 -6.00193,6.40902 -8.62651,9.97221c-2.19864,3.87293 -4.27467,7.80375 -5.97668,11.86448c-0.45966,1.09666 -0.92197,2.64182 -1.47862,4.19591zM51.48989,73.85128c2.33251,-7.09708 7.08683,-13.30384 11.93245,-19.1184c0.0173,-0.1865 0.02262,-0.37574 0.02965,-0.56433l-0.0167,0.00184c-5.04813,5.79535 -8.90325,12.36515 -13.06105,18.83997c-1.08067,1.6829 -2.16134,3.3658 -3.24202,5.04869c-0.63983,0.99639 -1.49124,1.86497 -2.0083,2.93027c-0.11567,0.23832 -0.28101,0.94178 -0.06233,0.79227c0.344,-0.2352 0.36494,-0.74928 0.54741,-1.12392c2.16825,-2.03064 4.04641,-4.41245 5.88091,-6.80638zM68.40356,57.38633c1.74476,-1.86871 3.47099,-3.72375 5.42198,-5.34089l-0.15002,-0.12933l1.29402,-1.50113c0.16557,-0.19888 0.40507,-0.32941 0.66836,-0.35595c0.13776,-0.15503 0.2675,-0.31544 0.369,-0.49546c0.08177,-0.14501 0.10593,-0.62214 -0.00653,-0.49939c-2.51652,2.74667 -5.08141,5.50668 -7.59679,8.32213zM72.37104,66.57442c-0.12533,0.15174 -0.25067,0.30349 -0.376,0.45523c-3.10992,5.36142 -6.37195,10.62729 -9.65263,15.89744c1.63765,-1.08233 3.19026,-2.29529 4.68582,-3.59581c1.39935,-2.21211 2.68657,-4.45441 3.73986,-6.73584c0.75076,-1.62614 1.04078,-3.9433 1.60294,-6.02103zM74.15159,57.87941c0.44555,-1.32463 0.86584,-2.77924 1.37608,-4.12615c-0.16222,0.25483 -0.32522,0.50925 -0.48893,0.76329c-2.83464,5.1219 -6.49794,10.07998 -9.11139,15.31996c1.37002,-1.94747 2.74384,-3.89261 4.10472,-5.84641c1.34771,-1.93488 2.59597,-4.19066 4.11952,-6.11068zM61.68923,75.92502c0.38344,-1.10305 0.8083,-2.18957 1.26651,-3.26308c-0.74958,1.11962 -1.5007,2.23773 -2.25345,3.35443c0.10615,0.30291 0.20037,0.61693 0.31089,0.90059c0.2247,-0.33107 0.45008,-0.66171 0.67605,-0.99194zM159.31419,111.99684c0.94922,-0.86593 1.89963,-1.75347 2.86745,-2.62097c0.28755,-0.77332 0.59754,-1.53785 0.9219,-2.29707c-1.29426,1.6076 -2.5588,3.25188 -3.78935,4.91804zM132.99874,96.62314c-0.14617,0.01705 -0.18787,0.23896 -0.22523,0.49155c0.0733,-0.16481 0.14842,-0.32864 0.22523,-0.49155z" fill="#000000" stroke="none" stroke-width="0.5"></path><path d="M44.80617,260.65769c-0.27817,0.96053 -1.23871,0.68236 -1.23871,0.68236l-0.24399,-0.07066c-3.33017,-1.03857 -4.09425,-3.20632 -5.67079,-6.12461c-0.91079,-1.68594 -1.75815,-3.38236 -2.56419,-5.09251c0.18974,1.78892 0.37948,3.57783 0.56923,5.36675l0.17757,1.67417c0,0 0.10547,0.99442 -0.88895,1.0999c-0.99442,0.10547 -1.0999,-0.88895 -1.0999,-0.88895c-0.44127,-4.16031 -0.91821,-8.657 -1.39885,-13.18851c-0.50419,-1.18889 -1.00098,-2.38589 -1.49735,-3.59204c-4.60651,-11.19347 -9.47585,-21.76464 -15.67524,-32.16472c0,0 -0.51202,-0.85897 0.34695,-1.371c0.85897,-0.51202 1.371,0.34695 1.371,0.34695c5.76128,9.66511 10.38808,19.48131 14.71383,29.79621c-0.34086,-3.21364 -0.67516,-6.36552 -0.99117,-9.34488c-0.01959,-0.18466 -0.03917,-0.36933 -0.05876,-0.55399c-3.69075,-10.04144 -7.3815,-20.08288 -11.07226,-30.12432c0,0 -0.34499,-0.93861 0.59362,-1.28359c0.93861,-0.34499 1.28359,0.59362 1.28359,0.59362c2.77691,7.55515 5.55382,15.11029 8.33073,22.66544c-0.958,-9.03211 -1.91599,-18.06423 -2.87399,-27.09634c0,0 -0.10547,-0.99442 0.88895,-1.0999c0.99442,-0.10547 1.0999,0.88895 1.0999,0.88895c1.23739,11.66626 2.47478,23.33251 3.71216,34.99877c0.4206,1.14432 0.84119,2.28863 1.26179,3.43295c3.44987,9.38607 6.89974,18.77215 10.34961,28.15822l0.55483,1.50952c0,0 0.04529,0.12322 0.0584,0.29677c0.02332,0.13805 0.01603,0.29888 -0.03801,0.48546zM39.41233,254.19416c0.92437,1.71108 1.45757,3.32051 2.74513,4.32772c-2.77712,-7.55572 -5.84938,-15.91441 -8.67359,-23.59826c0.30707,2.89511 0.61414,5.79022 0.92121,8.68534c1.52868,3.59315 3.13049,7.11119 5.00725,10.5852z" fill="#000000" stroke="none" stroke-width="0.5"></path><path d="M180.1423,279.04427c-0.99886,0.04769 -1.04656,-0.95117 -1.04656,-0.95117l-0.05211,-1.10275c-0.10611,-1.31446 -0.24059,-2.62694 -0.40326,-3.9356c0,0 -0.12323,-0.99238 0.86914,-1.11561c0.99238,-0.12323 1.11561,0.86914 1.11561,0.86914c0.16588,1.33707 0.30328,2.67798 0.412,4.0209l0.05634,1.16853c0,0 0.04769,0.99886 -0.95117,1.04656z" fill="#000000" stroke="none" stroke-width="0.5"></path><path d="M167.07196,177.63019c0.92852,0.37127 0.55725,1.2998 0.55725,1.2998l-0.26516,0.66315c-3.18442,7.9568 -7.19949,16.07486 -11.59087,23.42804c-1.42023,2.37811 -2.66416,4.66224 -4.30163,6.74908l0.19977,0.1193l-1.01601,1.70127c-0.17246,0.30061 -0.49658,0.5031 -0.868,0.5031c-0.55228,0 -1,-0.44772 -1,-1c0,-0.06982 0.00716,-0.13798 0.02078,-0.20377l0.36449,-1.94614c1.83757,-9.81155 5.1411,-19.42598 7.85091,-29.03251c3.767,-13.35431 7.18583,-26.87108 11.36612,-40.10121c-0.2213,-0.51502 -0.55196,-0.9958 -0.6639,-1.54506c-0.08229,-0.40377 0.50784,-1.19083 0.09786,-1.23232c-0.40997,-0.04149 0.01093,0.84803 -0.15102,1.22694c-0.26202,0.61302 -0.72674,1.11787 -1.09011,1.6768c-1.09011,1.6768 -2.18022,3.3536 -3.27034,5.0304c-5.06795,7.79547 -9.01111,16.24907 -13.24879,24.52179c-3.96312,7.73673 -7.88386,15.46132 -12.21474,22.99933c-1.98506,3.45504 -3.72702,7.16513 -6.18029,10.28875l0.20224,0.11619l-0.98673,1.71742c-0.17011,0.30911 -0.49894,0.51856 -0.87669,0.51856c-0.55228,0 -1,-0.44772 -1,-1c0,-0.09983 0.01463,-0.19625 0.04186,-0.28722l0.52412,-1.90632c1.62552,-5.91225 4.00107,-11.30085 6.46399,-16.90962c5.62791,-12.81633 11.2472,-25.61212 16.49932,-38.58745c2.25123,-5.56165 4.50246,-11.1233 6.75369,-16.68495c1.1801,-2.91544 2.98842,-6.0672 3.70544,-9.12267c0.57583,-2.45384 -0.05751,-5.74499 0.47515,-8.38819c-0.94237,1.16941 -1.88475,2.33882 -2.82712,3.50823c-5.6681,7.01031 -9.60541,16.1589 -14.09001,23.98718c-1.56382,2.7298 -2.91911,5.50223 -4.74951,7.95445c-0.1004,0.20339 -0.2008,0.40677 -0.3012,0.61016l-0.02565,0.05197l0.10554,0.06046l-0.98454,1.71861c-0.16992,0.30974 -0.4991,0.51972 -0.87733,0.51972c-0.55228,0 -1,-0.44772 -1,-1c0,-0.16621 0.04055,-0.32295 0.1123,-0.46086c1.47548,-2.98899 3.82724,-7.75316 5.30272,-10.74216c3.23907,-6.5607 6.14013,-13.30356 9.17909,-19.95943c1.24458,-2.72585 3.46149,-5.97467 4.08517,-8.89049c0.34961,-1.63447 -0.15112,-3.22784 -0.04389,-4.76961c-2.93542,4.03314 -5.77113,8.04305 -8.35859,12.32213c-2.06198,3.41006 -3.884,7.08342 -6.41204,10.14603l0.20281,0.12263l-1.02548,1.69592c-0.17318,0.29785 -0.49576,0.49809 -0.86511,0.49809c-0.55228,0 -1,-0.44772 -1,-1c0,-0.11712 0.02013,-0.22953 0.05713,-0.33397l0.6163,-1.87812l0.0118,0.00387l0.00136,-0.04145c0.77718,-1.85721 1.55507,-3.71413 2.33297,-5.57104c2.33391,-5.57123 4.57624,-10.87209 5.99475,-16.74879c0.48272,-1.99985 0.69435,-5.45379 1.81151,-7.57824c-0.61659,0.88995 -1.21737,1.79091 -1.84187,2.67533c-1.53816,2.17834 -3.07632,4.35668 -4.61448,6.53503c-4.99569,7.07489 -9.65924,14.346 -14.35845,21.6205c-2.07034,3.20494 -3.91449,6.67333 -6.39095,9.5542c-0.06925,0.12932 -0.13901,0.25835 -0.20928,0.38709l-0.03274,0.05994l0.12159,0.07854l-1.07632,1.66617c-0.17663,0.28293 -0.49078,0.47118 -0.84889,0.47118c-0.55228,0 -1,-0.44772 -1,-1c0,-0.18034 0.04774,-0.34953 0.13127,-0.49563l0.94989,-1.73897c0.62727,-1.14738 1.21189,-2.31913 1.75142,-3.51029c2.47746,-5.46463 4.95493,-10.92926 7.43239,-16.39389c1.29063,-2.84678 3.26582,-5.94261 4.07406,-8.95402c0.64928,-2.41915 0.08514,-5.67451 0.6448,-8.29038c-4.69003,5.83526 -8.51747,12.02316 -12.48715,18.41245c-4.57521,7.36389 -9.0787,14.77875 -13.75056,22.08166c-2.05251,3.20842 -3.8784,6.67848 -6.33571,9.56703c-0.07282,0.13512 -0.14585,0.27024 -0.21908,0.40536l-0.0321,0.05923l0.12015,0.07686l-1.0688,1.67069c-0.17616,0.28515 -0.49157,0.47516 -0.85137,0.47516c-0.55228,0 -1,-0.44772 -1,-1c0,-0.17921 0.04714,-0.34741 0.1297,-0.49287l0.94401,-1.74198c4.16023,-7.67685 7.65915,-15.33112 10.95387,-23.41615c4.38093,-10.75054 8.35936,-21.81187 13.13132,-32.416c-5.89571,8.65012 -11.79684,17.29647 -17.70554,25.93773c-3.56328,5.21117 -7.1503,10.40747 -10.70899,15.62254c-2.06916,3.29889 -4.22157,6.53068 -6.42364,9.75025c-1.00912,1.76964 -2.18402,3.81306 -3.52595,5.0995c-0.22746,0.32642 -0.45525,0.65302 -0.68333,0.97985l-1.13652,1.62855c-0.17985,0.26509 -0.48364,0.43927 -0.82812,0.43927c-0.55228,0 -1,-0.44772 -1,-1c0,-0.21128 0.06552,-0.40726 0.17736,-0.56872l1.10758,-1.64912l0.02954,0.01984l0.01005,-0.0144c0.29142,-0.41759 0.58236,-0.83478 0.87275,-1.25171c1.62808,-3.05292 3.8391,-5.85416 5.78052,-8.71895c1.28421,-1.89501 2.57262,-3.78723 3.86356,-5.67776c1.5929,-2.53672 3.13626,-5.11332 4.61451,-7.75538c3.58069,-6.39972 7.16137,-12.79945 10.74206,-19.19917c1.44176,-2.57685 3.99302,-5.68719 4.79333,-8.51127c0.36496,-1.28786 0.143,-2.57331 0.13467,-3.80981c-4.44314,7.44907 -8.92508,14.87603 -13.1864,22.43059c-4.25795,7.54858 -8.51589,15.09715 -12.77384,22.64573c-1.75705,3.11493 -3.29832,6.45264 -5.38403,9.3429c-0.18374,0.35071 -0.36749,0.70143 -0.55123,1.05214l-0.01394,0.02661l0.05359,0.03023l-0.97294,1.72484c-0.16893,0.31309 -0.49995,0.52584 -0.88066,0.52584c-0.55228,0 -1,-0.44772 -1,-1c0,-0.17443 0.04466,-0.33843 0.12317,-0.48118c0.22399,-0.42754 1.36717,-2.60956 1.59116,-3.03709c0.43592,-1.27766 1.23254,-2.64186 2.05664,-3.92555c1.87492,-3.57872 3.74985,-7.15743 5.62477,-10.73615c4.31794,-8.24176 7.66312,-16.94575 11.26372,-25.52288c0.65972,-1.57154 1.28548,-3.826 2.1298,-5.85091c-0.7725,1.03682 -1.54863,2.07096 -2.3225,3.10684c-8.35938,11.18954 -17.05562,22.20188 -24.87951,33.77251c-4.85461,7.17941 -9.70922,14.35881 -14.56383,21.53822c-2.23237,3.30141 -4.23598,6.88094 -6.92117,9.80589l0.1994,0.13483l-1.11185,1.64429c-0.17865,0.27243 -0.48673,0.45235 -0.83684,0.45235c-0.39384,0 -0.7345,-0.22767 -0.89755,-0.55858c-0.51321,-0.04243 -0.91649,-0.4724 -0.91649,-0.99656c0,-0.06667 0.00652,-0.13182 0.01897,-0.19484c0.11707,-0.65631 0.58193,-3.2623 0.699,-3.91861c2.53542,-14.21361 7.34332,-26.84367 13.78767,-39.71785c3.91975,-7.83067 7.35417,-15.86707 12.74778,-22.78319c1.53844,-1.97271 2.78629,-4.22784 4.62099,-5.65123c0.23194,-0.38187 0.46445,-0.76416 0.69747,-1.14696l1.03057,-1.69302c0.17355,-0.29636 0.4953,-0.4954 0.86354,-0.4954c0.55228,0 1,0.44772 1,1c0,0.13724 -0.02765,0.26803 -0.07767,0.38709l-0.25212,0.64131c0.30106,0.04923 0.70759,0.23028 0.79494,0.83774c0.14233,0.98982 -0.84748,1.13215 -0.84748,1.13215c-0.3196,0.03153 -0.62509,0.10758 -0.91804,0.22083c-0.9493,3.4774 -2.56938,6.81377 -3.8912,10.17606c-0.88875,2.2607 -1.77733,4.52147 -2.6659,6.78224c2.09331,-4.55701 4.14745,-9.13385 6.15678,-13.74422l-0.11797,-0.01706l0.2842,-1.96471c0.06305,-0.49161 0.48307,-0.87153 0.99182,-0.87153c0.55228,0 1,0.44772 1,1c0,0.02796 -0.00115,0.05564 -0.0034,0.08302l-0.14437,1.98428l-0.06296,-0.00458l0.0374,0.1678c-0.07725,0.1842 -0.15465,0.36832 -0.23219,0.55235c0.40756,2.91932 -1.91999,6.58909 -3.03267,9.02952c-3.87177,8.4919 -7.74513,16.98306 -11.60566,25.48008c-1.60353,3.52937 -3.11281,7.1198 -4.90548,10.55766c2.4725,-3.65655 4.94501,-7.3131 7.41751,-10.96964c7.84153,-11.59671 16.55584,-22.63446 24.93404,-33.84921c1.64041,-2.19579 3.27588,-4.3947 4.94086,-6.57194l0.21748,-0.06323l-0.03223,-0.0617l1.75557,-0.917c0.14251,-0.07816 0.30614,-0.1226 0.48015,-0.1226c0.55228,0 1,0.44772 1,1c0,0.14518 -0.03094,0.28313 -0.08658,0.40763l-0.76551,1.82354l-0.15123,-0.06349c-1.27512,4.45255 -3.48626,8.7285 -5.26773,12.9722c-0.98039,2.33542 -1.94413,4.67479 -2.92112,7.00657c0.5823,-1.03231 1.1646,-2.06462 1.7469,-3.09694c4.58928,-8.13598 9.43374,-16.12433 14.21097,-24.15119l1.01339,-1.70273c0.17226,-0.30137 0.49681,-0.50448 0.86879,-0.50448c0.55228,0 1,0.44772 1,1c0,0.01633 -0.00039,0.03257 -0.00117,0.04871l-0.08406,1.99168l-0.11473,-0.00484c0.27173,2.11512 0.3433,4.40004 -0.17528,6.22999c-1.01517,3.58226 -4.12515,7.42863 -5.94873,10.6879c-0.69335,1.23922 -1.38671,2.47845 -2.08006,3.71767c5.317,-7.7811 10.62818,-15.56612 15.93512,-23.35412l1.11787,-1.64049c0.17895,-0.27064 0.486,-0.44915 0.83474,-0.44915c0.49477,0 0.90562,0.35932 0.98582,0.83125l0.36938,1.94735l-0.02018,0.00383c0.01535,0.09307 0.02648,0.18706 0.03273,0.28212c0.04994,0.75958 -0.54321,1.42226 -0.82372,2.12991c-0.9825,2.47857 -2.01285,4.9394 -3.01902,7.40848c-3.52218,8.64322 -7.04437,17.28645 -10.56655,25.92967c-1.17826,2.89139 -2.38298,5.72901 -3.63433,8.53267c3.7617,-5.98998 7.46078,-12.02037 11.19327,-18.02789c4.29457,-6.91219 8.43227,-13.59152 13.64235,-19.85137l1.27451,-1.53132c0.1834,-0.22356 0.46181,-0.36619 0.77353,-0.36619c0.55228,0 1,0.44772 1,1c0,0.03783 -0.0021,0.07517 -0.00619,0.11191l-0.19592,1.97695l-0.16352,-0.01621c0.26599,8.75431 -3.40073,17.20404 -7.36657,25.30004c4.04197,-6.25988 8.10406,-12.49753 12.40525,-18.58886c1.53816,-2.17834 3.07632,-4.35668 4.61448,-6.53503c0.1606,-0.22744 2.39588,-3.41399 2.50532,-3.47625c0.93053,-0.52941 2.27479,-1.34933 3.13259,-0.70876c0.85127,0.63569 -0.85906,5.86125 -1.09108,6.82249c-1.45309,6.01993 -3.28434,11.54905 -5.50402,17.18313c3.1787,-5.11578 6.46865,-10.0768 10.04516,-14.97491l1.172,-1.60507c0.18128,-0.25449 0.47878,-0.42045 0.81504,-0.42045c0.55028,0 0.99675,0.44448 0.99998,0.994l0.01374,1.99908l-0.09943,0.00068c0.34816,2.09275 0.51755,4.34988 0.11856,6.21521c-0.78684,3.6786 -3.48566,7.691 -5.05228,11.12217c-0.18675,0.40901 -0.37295,0.81836 -0.55874,1.22798c1.64011,-2.77664 3.39062,-5.44481 5.3414,-7.87303c1.25494,-1.55728 2.50988,-3.11456 3.76482,-4.67184l1.24932,-1.55031c0.18317,-0.23119 0.46639,-0.3795 0.78426,-0.3795c0.55228,0 1,0.44772 1,1c0,0.02938 -0.00127,0.05846 -0.00375,0.08719l-0.15177,1.98328l-0.16105,-0.01232c0.6757,12.55853 -6.57876,24.87449 -11.17783,36.23645c-5.25941,12.99336 -10.88626,25.80706 -16.52199,38.64117c-1.34593,3.06505 -2.66678,6.06115 -3.84928,9.11572c0.42155,-0.62621 0.80479,-1.20764 1.09905,-1.71981c4.64963,-8.09281 8.91031,-16.34267 13.16519,-24.64897c4.58835,-8.95729 8.95421,-17.93537 14.44216,-26.37688c1.06131,-1.63249 2.03643,-3.52587 3.27034,-5.0304c0.62134,-0.75761 1.05437,-2.22532 2.0292,-2.12666c0.84854,0.08588 2.11126,3.98473 2.36217,4.66746c-3.52038,13.65069 -7.61144,27.17582 -11.43875,40.74394c-2.26534,8.03082 -4.95289,16.06828 -6.83658,24.22235c1.04471,-1.63128 2.25107,-3.19544 2.96977,-4.39822c3.97789,-6.65719 7.54837,-14.2259 10.42546,-21.42802l0.26516,-0.66315c0,0 0.37127,-0.92852 1.2998,-0.55725zM59.54971,158.47064c-0.41149,0.74922 -0.8119,1.50961 -1.21054,2.27334c0.10744,-0.14791 0.20848,-0.2912 0.30192,-0.42939c2.15997,-3.19435 4.31995,-6.3887 6.47992,-9.58305c-0.07279,0.01686 -0.14863,0.02577 -0.22654,0.02577c-0.38854,0 -0.72533,-0.22159 -0.89088,-0.54529c-1.45968,2.76064 -2.94478,5.51091 -4.45389,8.25863zM68.20225,125.35525c-0.32229,0.6574 -0.64662,1.314 -0.97448,1.96899c-5.89713,11.78098 -10.40815,23.34177 -13.02742,36.14527c0.69742,-1.15533 1.45651,-2.27188 2.06084,-3.24143c3.64332,-7.91431 7.64404,-15.69861 11.50627,-23.50217c1.24323,-4.03891 2.603,-7.97655 4.06082,-11.87768c-1.27074,2.29238 -2.54202,4.58446 -3.81428,6.87599l-0.04572,0.03594l0.01469,0.01043l-1.15046,1.61944c-0.18045,0.26093 -0.48179,0.43187 -0.82305,0.43187c-0.55228,0 -1,-0.44772 -1,-1c0,-0.15332 0.0345,-0.29858 0.09617,-0.42844l0.80852,-1.8056l0.22768,0.10195c0.52393,-1.83418 1.26322,-3.58736 2.06042,-5.33457z" fill="#ffea00" stroke="none" stroke-width="0.5"></path></g></g></svg>