<svg version="1.1" xmlns="http://www.w3.org/2000/svg" xmlns:xlink="http://www.w3.org/1999/xlink" width="988.6006" height="598" viewBox="0,0,988.6006,598"><g transform="translate(21.05706,119)"><g stroke-miterlimit="10"><path d="M-21.05706,479v-598h988.6006v598z" fill="#494949" stroke="none" stroke-width="NaN" stroke-linecap="butt"/><g stroke="#000000" stroke-width="1.5"><g><path d="M437.26015,272.86293c-42.79705,-0.20462 -77.32506,-35.06436 -77.12044,-77.86142c0.20462,-42.79705 35.06436,-77.32507 77.86142,-77.12044c42.79705,0.20462 77.32507,35.06434 77.12048,77.86143c-0.20462,42.79705 -35.06434,77.32507 -77.86142,77.12044z" fill="#d8d8d8" stroke-linecap="butt"/><path d="M408.63325,173.62875l27.48318,9.14021" fill="none" stroke-linecap="round"/><path d="M421.66363,181.50559l0.44544,11.5134" fill="none" stroke-linecap="round"/><path d="M442.62744,181.79912l15.05022,-7.43538" fill="none" stroke-linecap="round"/><path d="M413.77287,222.42134l46.09988,0.71088" fill="none" stroke-linecap="round"/></g><path d="M450.66363,180.50559l0.44544,11.5134" fill="none" stroke-linecap="round"/></g><g stroke="#000000" stroke-linecap="butt"><path d="M346.0441,201.24918l-40.3032,-8.97673c0,0 -5.88517,-5.52115 -5.54753,-7.5883c0.33704,-2.06346 7.57163,-4.80349 7.57163,-4.80349l40.3032,8.97673z" fill="#af5400" stroke-width="1.5"/><path d="M356.26701,172.66145c0,0 -0.83743,11.33086 -3.24841,24.04547c-1.29062,6.80685 -3.24647,20.44167 -3.24647,20.44167c0,0 -8.54129,-0.87155 -11.18521,-1.63058c-5.69009,-1.63343 -8.58483,-12.01151 -6.17398,-24.72611c1.30051,-6.8593 2.786,-16.74738 8.87829,-20.11723c5.20044,-2.87657 14.97568,1.98671 14.97568,1.98671z" fill="#989898" stroke-width="1"/><path d="M354.93607,171.62842c5.69002,1.63339 8.34834,13.26477 5.93747,25.97938c-2.41089,12.71455 -8.9781,21.69773 -14.66809,20.06431c-5.69006,-1.63337 -8.34834,-13.26477 -5.93747,-25.97938c2.41091,-12.71463 8.9781,-21.69773 14.66815,-20.06438z" fill="#989898" stroke-width="1"/><path d="M347.75581,200.30782c0,0 -2.78704,-4.86901 -2.54534,-6.73865c0.23607,-1.82646 3.97911,-4.35293 3.97911,-4.35293l160.7646,31.58158l23.78415,16.04543l-185.98257,-36.53556z" fill="#e6e6e6" stroke-width="0.5"/></g></g></g></svg>