<svg version="1.1" xmlns="http://www.w3.org/2000/svg" xmlns:xlink="http://www.w3.org/1999/xlink" width="134.04551" height="80.5" viewBox="0,0,134.04551,80.5"><g transform="translate(-146.20453,-139.75)"><g data-paper-data="{&quot;isPaintingLayer&quot;:true}" fill-rule="nonzero" stroke-linejoin="miter" stroke-miterlimit="10" stroke-dasharray="" stroke-dashoffset="0" style="mix-blend-mode: normal"><path d="" data-paper-data="{&quot;index&quot;:null}" fill="none" stroke="#000000" stroke-width="1.5" stroke-linecap="round"></path><path d="" data-paper-data="{&quot;index&quot;:null}" fill="none" stroke="#000000" stroke-width="1.5" stroke-linecap="round"></path><path d="" data-paper-data="{&quot;index&quot;:null}" fill="none" stroke="#000000" stroke-width="1.5" stroke-linecap="round"></path><path d="" data-paper-data="{&quot;index&quot;:null}" fill="none" stroke="#000000" stroke-width="1.5" stroke-linecap="round"></path><path d="" data-paper-data="{&quot;index&quot;:null}" fill="none" stroke="#000000" stroke-width="1.5" stroke-linecap="round"></path><path d="" data-paper-data="{&quot;index&quot;:null}" fill="none" stroke="#000000" stroke-width="1.5" stroke-linecap="round"></path><path d="M200.50004,180c0,-21.81525 17.68475,-39.5 39.5,-39.5c21.81525,0 39.5,17.68475 39.5,39.5c0,21.81525 -17.68475,39.5 -39.5,39.5c-21.81525,0 -39.5,-17.68475 -39.5,-39.5z" fill="#6e6e6e" stroke="#000000" stroke-width="1.5" stroke-linecap="butt"></path><path d="M202.85559,181.6599c0,0 -2.28148,-3.48635 -2.28148,-5.83045c0,-2.68059 2.28148,-9.37942 2.28148,-9.37942c0,0 25.76053,3.29547 38.0247,3.29547c12.45976,0 36.15636,-3.29547 36.15636,-3.29547c0,0 0.32325,0.8142 0.73295,2.06366c1.27619,3.89191 3.39127,12.00691 -0.81086,12.89272c-2.60416,0.54896 -18.81959,2.66663 -35.57172,2.60715c-18.95763,-0.06731 -38.53144,-2.35365 -38.53144,-2.35365z" fill="#d0d0d0" stroke="#000000" stroke-width="0" stroke-linecap="butt"></path><path d="M220.2872,168.69041l16.34335,9.20811" fill="none" stroke="#000000" stroke-width="1.5" stroke-linecap="round"></path><path d="M228.71238,178.36443l0.2535,-3.54897" fill="none" stroke="#000000" stroke-width="1.5" stroke-linecap="round"></path><path d="M245.30508,176.18343l13.96519,-6.03143" fill="none" stroke="#000000" stroke-width="1.5" stroke-linecap="round"></path><path d="M251.52719,174.05496v5.06996" fill="none" stroke="#000000" stroke-width="1.5" stroke-linecap="round"></path><path d="M151.16486,201.28502c0.23111,0.39684 0.66387,0.53031 1.15647,0.58079c-0.15856,-0.32836 -0.24744,-0.69667 -0.24744,-1.08574c0,-0.20694 0.02514,-0.408 0.07254,-0.60031c-0.5854,0.32817 -1.24379,0.65502 -0.98158,1.10526zM146.39207,202.77515c-1.21711,-3.3564 3.79894,-7.6134 6.13901,-9.44551c-0.16029,-0.32979 -0.2502,-0.70011 -0.2502,-1.09143c0,-0.92416 0.50145,-1.7312 1.24711,-2.16387l2.90095,-1.75086c7.29063,-4.40023 14.42576,-8.50157 22.15532,-12.08428c2.48306,-1.15092 5.20791,-2.24905 7.87365,-3.47985c2.27675,-1.31666 4.55208,-2.63341 6.83503,-3.93033l0.08724,-0.01262l-0.01216,-0.02519l0.55659,-0.26862c0.91529,-0.68139 1.7715,-1.41507 2.54844,-2.21351c0,0 1.76199,-1.77353 3.53552,-0.01154c0.67608,0.67168 0.83839,1.34504 0.78038,1.92119c0.10634,0.27761 0.1646,0.57901 0.1646,0.89402c0,0.43137 -0.10925,0.83721 -0.30159,1.19138c0.06164,0.21729 0.09463,0.44662 0.09463,0.68367c0,0.87866 -0.45329,1.65144 -1.13878,2.09727l-0.47976,0.32193c0.60949,0.31989 1.20455,0.94452 1.20455,2.16422c0,2.5 -2.5,2.5 -2.5,2.5l-1.60135,-0.01937c-0.17402,0.54606 -0.53057,1.01065 -0.99793,1.32207l-4.09239,2.80858c-3.33806,2.29089 -6.71686,4.4535 -10.13413,6.54632l4.00992,-0.88262c0.18914,-0.04575 0.38668,-0.06999 0.58988,-0.06999c1.38071,0 2.5,1.11929 2.5,2.5c0,0.96277 -0.54423,1.79843 -1.34183,2.21612l-4.33934,2.38064l-0.00614,-0.0112l-0.03214,0.03177c-2.28407,1.15188 -4.56817,2.30369 -6.85229,3.45545c0.3332,0.42475 0.53188,0.96006 0.53188,1.54177c0,0.87807 -0.45269,1.65042 -1.13741,2.09638c0.67801,0.07269 1.34411,0.16616 1.9953,0.28429l4.99953,0.0073c1.37925,0.00172 2.49681,1.12035 2.49681,2.5c0,0.03688 -0.0008,0.07357 -0.00238,0.11006l1.46662,0.31079c1.15536,0.22044 2.02864,1.23605 2.02864,2.45563c0,1.32932 -1.03751,2.41631 -2.34695,2.49539l-4.96792,0.34486l-0.00113,-0.0163c-0.0333,0.00721 -0.06664,0.0143 -0.10001,0.02127c-0.019,0.00397 -10.13753,-0.11776 -10.17452,-0.1182l-0.07181,-0.03297l-0.00205,0.02882l-3.20641,-0.22769c-0.60311,-0.03728 -1.14834,-0.28838 -1.56081,-0.67843c-0.83222,0.02131 -1.66547,0.04275 -2.50017,0.06341c-1.96795,0.04873 -4.13458,0.92895 -5.90525,0.06876c-0.57164,-0.2777 -1.09107,-0.55121 -1.56067,-0.8208l-0.50595,0.08467c-0.14884,0.02763 -0.30232,0.04208 -0.45917,0.04208c-1.32838,0 -2.41478,-1.03606 -2.49522,-2.34419c-2.15627,-0.89153 -4.88944,-1.6554 -5.66375,-3.79071z" fill="#bebebe" stroke="none" stroke-width="0.5" stroke-linecap="butt"></path></g></g></svg>