<svg version="1.1" xmlns="http://www.w3.org/2000/svg" xmlns:xlink="http://www.w3.org/1999/xlink" width="95.61586" height="55.64571" viewBox="0,0,95.61586,55.64571"><g transform="translate(-202.08313,-137.37791)"><g data-paper-data="{&quot;isPaintingLayer&quot;:true}" fill-rule="nonzero" stroke-linejoin="miter" stroke-miterlimit="10" stroke-dasharray="" stroke-dashoffset="0" style="mix-blend-mode: normal"><path d="" data-paper-data="{&quot;index&quot;:null}" fill="none" stroke="#000000" stroke-width="1.5" stroke-linecap="round"></path><path d="" data-paper-data="{&quot;index&quot;:null}" fill="none" stroke="#000000" stroke-width="1.5" stroke-linecap="round"></path><path d="" data-paper-data="{&quot;index&quot;:null}" fill="none" stroke="#000000" stroke-width="1.5" stroke-linecap="round"></path><path d="" data-paper-data="{&quot;index&quot;:null}" fill="none" stroke="#000000" stroke-width="1.5" stroke-linecap="round"></path><path d="" data-paper-data="{&quot;index&quot;:null}" fill="none" stroke="#000000" stroke-width="1.5" stroke-linecap="round"></path><path d="" data-paper-data="{&quot;index&quot;:null}" fill="none" stroke="#000000" stroke-width="1.5" stroke-linecap="round"></path><path d="" data-paper-data="{&quot;index&quot;:null}" fill="none" stroke="#000000" stroke-width="1.5" stroke-linecap="round"></path><path d="" data-paper-data="{&quot;index&quot;:null}" fill="none" stroke="#000000" stroke-width="1.5" stroke-linecap="round"></path><path d="" data-paper-data="{&quot;index&quot;:null}" fill="none" stroke="#000000" stroke-width="1.5" stroke-linecap="round"></path><path d="" data-paper-data="{&quot;index&quot;:null}" fill="none" stroke="#000000" stroke-width="1.5" stroke-linecap="round"></path><g><path d="M256.49316,153.13504l20.80585,-10.5886c0,0 0.85251,10.25357 3.42995,15.31804c1.51636,2.97955 7.13576,6.15105 10.23115,10.53606c4.46923,6.33121 6.44465,13.65226 6.44465,13.65226l-20.80585,10.5886c0,0 -0.93728,-6.82507 -5.13785,-12.92454c-3.50113,-5.08383 -10.19164,-9.23112 -11.87729,-12.5433c-2.55053,-5.01162 -3.09061,-14.03852 -3.09061,-14.03852z" fill="#139c0e" stroke="#000000" stroke-width="0.5" stroke-linecap="butt"></path><path d="M211.94855,179.7443l-9.41408,-0.42882l5.19405,-7.86324z" fill="#ffee00" stroke="#000000" stroke-width="0.5" stroke-linecap="round"></path><path d="M209.2752,174.26939l66.50445,-33.84572l1.44963,2.84843l-66.50445,33.84572z" fill="#d3d3d3" stroke="#000000" stroke-width="0.5" stroke-linecap="butt"></path><path d="M262.73207,148.12735c0.00756,-0.01674 0.01625,-0.03516 0.02611,-0.05495c-0.01903,-0.00304 -0.03803,-0.00604 -0.05699,-0.009c0.00958,0.0227 0.01844,0.04553 0.02658,0.0685c0.00144,-0.00152 0.00288,-0.00303 0.00431,-0.00454zM265.06924,149.00063l-0.27111,0.51128c0.03642,0.31089 -0.04742,0.68066 -0.44841,1.02745c-0.19887,0.17199 -0.3921,0.26597 -0.57324,0.30716c-1.1213,1.69054 -2.17751,3.42391 -3.43109,4.94514c-0.1492,0.245 -0.32706,0.46473 -0.55195,0.64027c-0.08634,0.0955 -0.17369,0.18993 -0.26213,0.28322l-0.04048,0.09968l0.31882,0.24526l-0.97374,1.26579c-0.11185,0.1521 -0.25998,0.28107 -0.4397,0.37254c-0.48204,0.24532 -1.0484,0.14809 -1.42165,-0.20142c-0.1443,0.09755 -0.29165,0.1918 -0.4423,0.28252l0.20941,0.31864l-1.0364,0.68111c-0.04269,0.02887 -0.08762,0.05542 -0.13473,0.0794c-0.61526,0.31312 -1.36786,0.06819 -1.68099,-0.54707c-0.08477,-0.16657 -0.12863,-0.3432 -0.13533,-0.51845c-0.99593,2.08478 -2.31109,3.99655 -4.36301,3.23796c-0.83922,-0.31026 -0.79363,-1.65138 -0.85649,-2.5439c-0.08593,-1.21983 1.15632,-3.2964 2.60316,-4.724c-3.01916,0.27073 -6.49315,0.06553 -6.72652,-3.39713c-0.02785,-0.41316 0.2992,-0.66674 0.73754,-0.84749c0.11295,-0.24978 0.30842,-0.46427 0.57173,-0.59828c0.09433,-0.04801 0.19188,-0.0829 0.2906,-0.10534l2.39903,-0.59908l0.01303,0.05217l0.1746,-0.08409c0.29263,0.01603 0.58692,0.02989 0.88255,0.04219c-0.03612,-0.05052 -0.06892,-0.10438 -0.09794,-0.1614c-0.31312,-0.61526 -0.06819,-1.36786 0.54707,-1.68099c0.17723,-0.0902 0.36585,-0.13408 0.55207,-0.13616l1.34998,-0.04455c0.37587,-0.0124 0.86114,-0.05186 1.4072,-0.08882c2.12034,-2.78643 8.8572,-1.81832 11.67639,-1.15111c0,0 1.21569,0.29085 0.92485,1.50654c-0.12639,0.52828 -0.42742,0.77208 -0.72744,0.87887c0.05508,0.34952 -0.04339,0.65209 -0.04339,0.65209z" fill="#606060" stroke="none" stroke-width="0.5" stroke-linecap="butt"></path><path d="M270.53961,175.03066l5.46152,-16.78157l4.88911,1.59115l-5.46152,16.78157z" fill="#b8b8b8" stroke="none" stroke-width="0" stroke-linecap="butt"></path><path d="M275.62124,140.01554l8.12202,-2.10999l-6.48611,5.32444z" data-paper-data="{&quot;index&quot;:null}" fill="#000000" stroke="#000000" stroke-width="0.5" stroke-linecap="round"></path><path d="M268.06002,162.44357l16.78157,5.46152l-1.59115,4.88911l-16.78157,-5.46151z" data-paper-data="{&quot;index&quot;:null}" fill="#b8b8b8" stroke="none" stroke-width="0" stroke-linecap="butt"></path><text transform="translate(266.15077,161.00553) rotate(63.02736) scale(0.35848,0.35848)" font-size="40" xml:space="preserve" fill="#000000" fill-rule="nonzero" stroke="none" stroke-width="1" stroke-linecap="butt" stroke-linejoin="miter" stroke-miterlimit="10" stroke-dasharray="" stroke-dashoffset="0" font-family="Pixel" font-weight="normal" text-anchor="start" style="mix-blend-mode: normal"><tspan x="0" dy="0">BB</tspan></text><path d="M274.84976,146.28077l0.29853,7.02042" fill="none" stroke="#54ff00" stroke-width="3.5" stroke-linecap="round"></path><path d="M259.06733,155.40427l5.62826,4.93167" fill="none" stroke="#54ff00" stroke-width="3.5" stroke-linecap="round"></path><path d="M294.6072,180.50716l-6.93636,-5.35739" fill="none" stroke="#54ff00" stroke-width="3.5" stroke-linecap="round"></path><path d="M276.83114,180.1986l1.92177,8.06536" fill="none" stroke="#54ff00" stroke-width="3.5" stroke-linecap="round"></path></g></g></g></svg>