<svg version="1.1" xmlns="http://www.w3.org/2000/svg" xmlns:xlink="http://www.w3.org/1999/xlink" width="80.95301" height="81.00177" viewBox="0,0,80.95301,81.00177"><defs><radialGradient cx="479.99999" cy="179.99998" r="39.25" gradientUnits="userSpaceOnUse" id="color-1"><stop offset="0" stop-color="#ebebeb"/><stop offset="1" stop-color="#dbdbdb"/></radialGradient></defs><g transform="translate(-439.54787,-139.4991)"><g stroke-miterlimit="10"><path d="" fill="none" stroke="#000000" stroke-width="1.5" stroke-linecap="round"/><path d="M440.79787,178.06177c1.07044,-21.65073 19.48958,-38.33437 41.14034,-37.2639c21.65073,1.07044 38.33437,19.48958 37.2639,41.14034c-1.07044,21.65073 -19.48958,38.33437 -41.14034,37.2639c-21.65073,-1.07044 -38.33437,-19.48958 -37.2639,-41.14034z" fill="url(#color-1)" stroke="#ffffff" stroke-width="2.5" stroke-linecap="butt"/><path d="M486.76966,176.83397c-1.13208,7.08989 -4.14993,12.50203 -6.74044,12.08836c-2.59051,-0.41364 -3.77279,-6.49648 -2.6407,-13.58636c1.13208,-7.08989 4.14993,-12.50203 6.74044,-12.08836c2.59051,0.41364 3.77279,6.49648 2.6407,13.58636z" fill="#ffffff" stroke="#000000" stroke-width="1.5" stroke-linecap="butt"/><path d="M504.66289,180.18088c-1.13208,7.08989 -4.14993,12.50203 -6.74046,12.08836c-2.59051,-0.41364 -3.77279,-6.49648 -2.6407,-13.58637c1.13208,-7.08989 4.14991,-12.50204 6.74043,-12.08837c2.59051,0.41364 3.77283,6.49645 2.6407,13.58636z" fill="#ffffff" stroke="#000000" stroke-width="1.5" stroke-linecap="butt"/></g></g></svg>