<svg version="1.1" xmlns="http://www.w3.org/2000/svg" xmlns:xlink="http://www.w3.org/1999/xlink" width="147.96934" height="121.98055" viewBox="0,0,147.96934,121.98055"><g transform="translate(-173.99762,-102.45975)"><g data-paper-data="{&quot;isPaintingLayer&quot;:true}" fill-rule="nonzero" stroke="none" stroke-width="0.5" stroke-linecap="butt" stroke-linejoin="miter" stroke-miterlimit="10" stroke-dasharray="" stroke-dashoffset="0" style="mix-blend-mode: normal"><path d="M311.24158,123.41723c-0.72994,2.39106 -3.121,1.66113 -3.121,1.66113l-3.44723,-1.05235c-16.75294,-5.11427 -33.6997,-10.72874 -51.31937,-11.73463c-15.95436,-0.92687 -33.37512,-3.94775 -49.16828,-0.48659c-3.08666,0.67646 -5.97251,2.06627 -8.96131,3.09202c-2.95572,1.01439 -6.28475,1.2462 -8.89265,2.96786c-1.2171,0.80349 -1.89937,2.21392 -2.87256,3.30013c-2.0181,2.2525 -4.19156,3.66642 -4.44745,6.9713c-0.11243,1.4521 0.53936,2.86297 0.76547,4.30175c0.22339,1.42144 -0.02337,2.97216 0.58279,4.27714c1.25873,2.70988 3.9704,4.46677 5.91074,6.73898c3.97552,2.55228 7.91739,5.63702 12.09147,7.83839c0.53267,0.28092 1.06852,0.55634 1.60738,0.82646c0.33034,-0.60207 0.66778,-1.20122 0.95811,-1.81285c0.53418,-1.12533 0.79758,-2.48575 1.72883,-3.31309c1.44601,-1.28466 3.39389,-1.85688 5.10519,-2.75839c2.54376,-1.34005 4.8979,-3.25434 7.70466,-3.87767c0.42264,-0.09386 9.78662,-0.56962 10.50389,-0.60733c3.07503,-0.16169 6.15722,-0.72015 9.22605,-0.46671c7.67699,0.63402 15.58425,2.97624 23.15387,4.44054c15.41556,4.59199 30.55272,9.10645 45.40308,15.30997c4.15742,1.73671 5.18525,2.09624 9.23798,4.07054c1.31929,0.6427 3.06089,0.82045 3.91494,2.01384c4.71951,6.59467 1.53376,6.72812 -3.65059,9.84978c-8.31282,5.00541 -20.47412,3.01946 -29.72879,2.30286c-4.99284,-0.3866 -10.16042,-0.46652 -15.11639,-1.17574c-11.52207,-1.64884 -23.09661,-4.80457 -34.41901,-7.47638c-9.7941,-2.31117 -19.83062,-4.97488 -29.26673,-8.85565c1.28254,3.81662 3.15071,7.10152 6.22608,10.05346c3.33663,3.20272 8.18597,5.73177 11.9713,8.39837c2.22254,1.57443 4.53595,2.98136 6.92164,4.24057c1.14902,-1.24583 2.6619,-2.3328 4.57934,-3.19771c2.96665,-1.33819 6.29285,-1.73926 9.5179,-2.17604c4.73242,-0.64093 9.73908,-0.12351 14.49129,-0.0351c7.61194,0.67063 16.7762,1.48804 22.83796,6.74577c1.24534,1.08017 2.83907,2.06291 3.36328,3.62586c1.55209,4.62754 -1.02506,6.79966 -4.73747,8.54216c-5.0073,2.35029 -10.86908,1.88426 -16.12183,1.23817c-10.97628,-1.35009 -22.03082,-3.77761 -32.13378,-8.33669c-0.048,0.44488 -0.03551,0.91955 0.04583,1.42617c0.22373,1.39348 0.72554,2.73797 1.27957,4.036c0.57256,1.34144 1.19843,2.68873 2.085,3.84686c1.3245,1.73018 5.59043,5.01525 7.09307,6.38873c6.39545,5.84573 12.6937,10.73035 20.123,15.21448c0,0 2.13985,1.29268 0.84717,3.43254c-1.29268,2.13985 -3.43254,0.84717 -3.43254,0.84717c-7.69982,-4.65532 -14.27976,-9.74232 -20.91377,-15.80614c-2.17947,-1.99214 -5.92142,-4.69527 -7.69951,-7.05367c-3.39276,-4.50004 -4.98636,-9.87496 -3.67446,-14.40799c-2.52926,-1.33689 -4.98555,-2.82539 -7.35125,-4.48353c-3.99345,-2.81322 -9.0361,-5.50189 -12.55419,-8.87878c-4.06983,-3.9065 -6.69374,-8.55403 -8.07389,-13.91224c-0.21274,-0.82591 -0.60814,-1.65263 -0.80113,-2.48571c-0.86159,-0.4204 -1.71619,-0.85333 -2.56309,-1.29951c-4.50833,-2.37512 -8.80686,-5.70875 -13.06652,-8.50407c-0.48479,-0.55632 -6.91579,-7.87802 -7.15839,-8.40031c-0.79833,-1.7187 -0.68646,-3.72779 -0.98618,-5.59901c-0.29692,-1.85371 -1.0136,-3.70887 -0.8035,-5.57441c0.55852,-4.95921 2.64554,-6.45814 5.71245,-9.83388c1.26106,-1.38806 2.2639,-3.08889 3.82897,-4.1221c0.3438,-0.22697 9.3156,-3.28116 10.0243,-3.52438c0.19383,-0.06652 9.32175,-3.20466 9.49962,-3.2437c16.2816,-3.57368 34.09313,-0.57975 50.54302,0.37591c18.03234,1.06463 35.33699,6.70791 52.48925,11.94408l3.44723,1.05236c0,0 2.39107,0.72994 1.66113,3.121zM204.1268,154.07616c9.89966,4.37826 20.60472,7.21962 31.01292,9.67569c11.17692,2.63748 22.60558,5.76559 33.97898,7.39316c4.84909,0.69391 9.90916,0.762 14.79408,1.14024c7.5946,0.58806 16.52355,1.90722 24.02317,-0.09414c1.09234,-0.29151 1.93009,-1.1945 2.97031,-1.63735c1.04149,-0.44339 2.38057,-0.27442 3.24287,-1.00774c0.33858,-0.28794 -0.49857,-0.77546 -0.8823,-0.99973c-0.73299,-0.42837 -1.60161,-0.56801 -2.38003,-0.90687c-1.51334,-0.65879 -2.98104,-1.4189 -4.49143,-2.08443c-3.03556,-1.33755 -6.12203,-2.55647 -9.18292,-3.83501c-13.01388,-5.43592 -26.5528,-9.10076 -40.05141,-13.1401c-7.29872,-1.39686 -14.913,-3.68331 -22.30848,-4.30891c-2.86732,-0.24255 -5.74619,0.32055 -8.61978,0.47164c-3.15526,0.16591 -6.3752,-0.20103 -9.46852,0.44284c-2.47459,0.51507 -4.45958,2.38258 -6.72636,3.50089c-2.81052,1.38656 -4.79991,2.66089 -5.91111,5.38981zM234.66666,184.76527c9.38382,4.06917 19.63091,6.19972 29.7249,7.47105c4.20497,0.52961 12.10907,1.59081 15.53315,-1.98591c1.28899,-1.34645 -4.323,-4.35412 -4.57396,-4.47635c-5.36535,-2.61331 -11.34299,-3.21873 -17.18422,-3.73502c-4.42866,-0.07971 -9.14202,-0.61064 -13.55173,-0.00346c-2.47835,0.34125 -6.95047,0.95173 -9.94814,2.72968z" data-paper-data="{&quot;index&quot;:null}" fill="#ffffff"></path><path d="M313.99778,120.66103c-0.72993,2.39106 -3.121,1.66113 -3.121,1.66113l-3.44723,-1.05235c-16.75293,-5.11426 -33.69968,-10.72872 -51.31936,-11.73462c-15.95436,-0.92687 -33.37512,-3.94775 -49.16828,-0.48659c-3.08667,0.67646 -5.97252,2.06628 -8.96132,3.09203c-2.95572,1.0144 -6.28475,1.2462 -8.89265,2.96786c-1.21711,0.8035 -1.89938,2.21393 -2.87256,3.30014c-2.01811,2.2525 -4.19156,3.66641 -4.44745,6.9713c-0.11244,1.45209 0.53934,2.86296 0.76546,4.30174c0.22339,1.42144 -0.02338,2.97216 0.58278,4.27714c1.25873,2.70988 3.97039,4.46678 5.91074,6.73898c3.97552,2.55228 7.91739,5.63701 12.09146,7.83838c0.53267,0.28092 1.06852,0.55634 1.60738,0.82646c0.33034,-0.60207 0.66778,-1.20122 0.95811,-1.81285c0.53418,-1.12533 0.79759,-2.48575 1.72884,-3.31309c1.44601,-1.28466 3.39388,-1.85687 5.10519,-2.75838c2.54377,-1.34005 4.89791,-3.25434 7.70467,-3.87767c0.42264,-0.09386 9.78662,-0.56962 10.50389,-0.60733c3.07503,-0.16169 6.15721,-0.72015 9.22605,-0.46671c7.67699,0.63402 15.58425,2.97624 23.15387,4.44054c15.41557,4.59198 30.55272,9.10645 45.40308,15.30997c4.15741,1.7367 5.18525,2.09623 9.23797,4.07053c1.31929,0.6427 3.06088,0.82045 3.91494,2.01384c4.71952,6.59467 1.53376,6.72813 -3.65058,9.84978c-8.31282,5.00541 -20.47412,3.01945 -29.72879,2.30286c-4.99285,-0.3866 -10.16042,-0.46653 -15.11639,-1.17574c-11.52207,-1.64884 -23.09661,-4.80459 -34.41901,-7.47639c-9.7941,-2.31116 -19.83062,-4.97487 -29.26673,-8.85564c1.28254,3.81662 3.1507,7.10152 6.22607,10.05346c3.33663,3.20271 8.18598,5.73177 11.97131,8.39837c2.22254,1.57442 4.53595,2.98135 6.92164,4.24056c1.14903,-1.24583 2.6619,-2.3328 4.57934,-3.19771c2.96665,-1.33819 6.29285,-1.73926 9.5179,-2.17604c4.73242,-0.64092 9.73908,-0.12351 14.49129,-0.0351c7.61194,0.67063 16.77622,1.48804 22.83797,6.74577c1.24534,1.08016 2.83906,2.06291 3.36328,3.62586c1.55208,4.62754 -1.02506,6.79966 -4.73747,8.54216c-5.0073,2.35029 -10.86909,1.88426 -16.12183,1.23817c-10.97628,-1.35008 -22.03082,-3.77762 -32.13378,-8.33669c-0.048,0.44488 -0.03551,0.91955 0.04583,1.42617c0.22374,1.39348 0.72555,2.73796 1.27958,4.036c0.57255,1.34144 1.19841,2.68873 2.08499,3.84686c1.3245,1.73019 5.59043,5.01525 7.09307,6.38873c6.39545,5.84573 12.69369,10.73035 20.123,15.21448c0,0 2.13985,1.29269 0.84717,3.43254c-1.29269,2.13985 -3.43254,0.84717 -3.43254,0.84717c-7.69982,-4.65532 -14.27975,-9.74232 -20.91377,-15.80614c-2.17947,-1.99215 -5.92142,-4.69528 -7.69951,-7.05368c-3.39276,-4.50004 -4.98636,-9.87496 -3.67446,-14.40799c-2.52925,-1.3369 -4.98554,-2.82539 -7.35124,-4.48353c-3.99345,-2.81322 -9.0361,-5.50188 -12.55419,-8.87878c-4.06984,-3.9065 -6.69375,-8.55403 -8.0739,-13.91224c-0.21274,-0.82591 -0.60815,-1.65263 -0.80113,-2.48571c-0.86159,-0.42041 -1.7162,-0.85334 -2.5631,-1.29951c-4.50834,-2.37512 -8.80686,-5.70875 -13.06652,-8.50407c-0.48479,-0.55633 -6.91578,-7.87802 -7.15838,-8.40031c-0.79833,-1.7187 -0.68646,-3.7278 -0.98618,-5.59901c-0.29691,-1.85371 -1.0136,-3.70886 -0.8035,-5.57441c0.55852,-4.95921 2.64555,-6.45813 5.71245,-9.83388c1.26106,-1.38806 2.2639,-3.08889 3.82897,-4.1221c0.3438,-0.22696 9.3156,-3.28115 10.0243,-3.52437c0.19382,-0.06652 9.32175,-3.20466 9.49962,-3.2437c16.2816,-3.57367 34.09314,-0.57974 50.54302,0.37592c18.03234,1.06464 35.33699,6.70791 52.48925,11.94408l3.44723,1.05235c0,0 2.39106,0.72993 1.66113,3.121zM206.88301,151.31994c9.89966,4.37825 20.60472,7.21961 31.01292,9.67569c11.17691,2.63748 22.60557,5.7656 33.97897,7.39316c4.84909,0.69392 9.90916,0.762 14.79408,1.14024c7.5946,0.58806 16.52355,1.90722 24.02317,-0.09414c1.09235,-0.2915 1.93009,-1.19449 2.97032,-1.63734c1.04149,-0.44338 2.38057,-0.27443 3.24287,-1.00774c0.33858,-0.28793 -0.49857,-0.77546 -0.8823,-0.99972c-0.73298,-0.42837 -1.6016,-0.568 -2.38002,-0.90687c-1.51334,-0.6588 -2.98104,-1.41892 -4.49143,-2.08444c-3.03556,-1.33757 -6.12203,-2.55648 -9.18292,-3.83502c-13.01389,-5.43592 -26.55281,-9.10075 -40.05142,-13.14009c-7.29871,-1.39686 -14.913,-3.68331 -22.30847,-4.30891c-2.86732,-0.24255 -5.7462,0.32054 -8.61979,0.47164c-3.15526,0.16591 -6.37519,-0.20102 -9.46852,0.44284c-2.47459,0.51508 -4.45958,2.38259 -6.72636,3.5009c-2.81053,1.38656 -4.79991,2.6609 -5.91111,5.38981zM267.14777,189.48011c4.20497,0.52961 12.10907,1.59081 15.53315,-1.98591c1.28899,-1.34645 -4.323,-4.35412 -4.57396,-4.47635c-5.36535,-2.61329 -11.343,-3.21873 -17.18422,-3.73501c-4.42866,-0.07971 -9.14204,-0.61064 -13.55174,-0.00346c-2.47835,0.34125 -6.95046,0.95173 -9.94813,2.72968c9.38382,4.06917 19.63091,6.19972 29.7249,7.47105z" data-paper-data="{&quot;index&quot;:null}" fill="#4245ff"></path></g></g></svg>