<svg version="1.1" xmlns="http://www.w3.org/2000/svg" xmlns:xlink="http://www.w3.org/1999/xlink" width="230.87847" height="125.18478" viewBox="0,0,230.87847,125.18478"><g transform="translate(-61.19974,-106.02474)"><g data-paper-data="{&quot;isPaintingLayer&quot;:true}" fill-rule="nonzero" stroke-linejoin="miter" stroke-miterlimit="10" stroke-dasharray="" stroke-dashoffset="0" style="mix-blend-mode: normal"><g stroke="none" stroke-width="0" stroke-linecap="butt"><path d="M261.14716,112.1839l17.72893,7.54106l-3.01642,7.09156l-17.72893,-7.54105z" fill="#b0b0b0"></path><path d="M224.8578,159.87302l25.55767,2.75652l-1.24488,11.54219l-25.55768,-2.75653z" fill="#737373"></path><path d="M256.9546,116.08263l21.74728,9.25026l-22.07083,51.88823l-21.74727,-9.25026z" fill="#878787"></path><path d="M260.56491,106.02475l22.94331,9.759l-2.57283,6.04869l-22.94331,-9.759z" fill="#515151"></path><g><path d="M250.95985,119.92l12.93169,5.50052l-13.30774,31.28634l-12.93168,-5.50053z" fill="#737373"></path><path d="M253.98271,126.13202l12.09738,5.14566l-2.04053,4.79725l-12.09738,-5.14566z" fill="#b43b3b"></path><path d="M250.77118,133.64788l12.09738,5.14566l-2.04053,4.79725l-12.09738,-5.14566z" fill="#b43b3b"></path><path d="M247.43976,140.86643l12.09738,5.14566l-2.04053,4.79725l-12.09737,-5.14566z" fill="#b43b3b"></path></g></g><g stroke="none" stroke-width="0" stroke-linecap="butt"><path d="M267.16807,181.05133l11.29191,-26.16722l5.43391,0.65573l-11.81814,27.73996z" fill="#8b8b8b"></path><path d="M246.07736,212.45629l21.08491,-46.43426l24.91594,11.31384l-21.08491,46.43426z" fill="#5e5e5e"></path><path d="M253.76247,209.57101l15.42798,-33.97629l22.27334,10.11389l-15.42798,33.97629z" fill="#4c4c4c"></path><path d="M270.05336,188.73644l2.74275,-6.04022l14.72306,6.68546l-2.74275,6.04022z" fill="#ffffff"></path><path d="M265.78006,198.20695l2.74275,-6.04022l14.72306,6.68546l-2.74275,6.04022z" fill="#ffffff"></path><path d="M262.02104,206.54492l2.74275,-6.04022l14.72306,6.68546l-2.74275,6.04022z" fill="#ffffff"></path><path d="M274.96129,147.93973c1.70412,-3.75291 6.12794,-5.41378 9.88085,-3.70965c3.75291,1.70412 5.41378,6.12794 3.70965,9.88085c-1.70412,3.75291 -6.12794,5.41378 -9.88085,3.70965c-3.75291,-1.70412 -5.41378,-6.12794 -3.70965,-9.88085z" fill="#ffffff"></path></g><path d="" data-paper-data="{&quot;index&quot;:null}" fill="none" stroke="#000000" stroke-width="1.5" stroke-linecap="round"></path><path d="" data-paper-data="{&quot;index&quot;:null}" fill="none" stroke="#000000" stroke-width="1.5" stroke-linecap="round"></path><path d="M201.56307,163.44545c6.92191,-20.68797 29.30413,-31.84758 49.99211,-24.92566c20.68797,6.92191 31.84758,29.30413 24.92566,49.99211c-6.92191,20.68797 -29.30413,31.84758 -49.99211,24.92566c-20.68797,-6.92191 -31.84758,-29.30413 -24.92566,-49.99211z" fill="#404040" stroke="#000000" stroke-width="1.5" stroke-linecap="butt"></path><path d="M205.58889,152.83587c1.63474,-2.37338 6.78569,-6.30122 6.78569,-6.30122l19.70557,18.15368l45.95933,8.63205c0,0 0.05999,7.74992 -0.48223,10.88567c-0.39152,2.26416 -2.46883,6.18072 -2.46883,6.18072l-48.85614,-11.51009l-23.783,-17.93206c0,0 1.46678,-5.68007 3.13959,-8.10874z" fill="#d8d8d8" stroke="#000000" stroke-width="1.5" stroke-linecap="round"></path><path d="M219.11701,159.28808l5.3729,3.99981l-1.80811,6.81254" fill="none" stroke="#000000" stroke-width="1.5" stroke-linecap="round"></path><path d="M230.87767,173.72353l1.93609,-6.34499l6.31143,0.6254" fill="none" stroke="#000000" stroke-width="1.5" stroke-linecap="round"></path><path d="M95.9889,129.39965c0,-1.22216 1.19494,-1.24938 1.24817,-1.24999c0.04031,-0.16949 -0.19515,-0.84454 -0.51555,-1.66014l-0.32054,0.20822l-1.35206,-2.08142c-0.1336,-0.19894 -0.21155,-0.43837 -0.21155,-0.69602c0,-0.69036 0.55964,-1.25 1.25,-1.25c0.34498,0 0.65732,0.13975 0.88349,0.36572c0.00001,0.00001 0.00002,0.00002 0.00003,0.00003l1.19307,1.19201c0.60173,0.52226 1.187,1.06415 1.80566,1.56624c0.55269,0.44854 1.17314,0.8123 1.70651,1.28365c0.01617,0.01429 0.03395,0.03334 0.05263,0.05574c-0.08424,-0.17712 -0.15124,-0.36175 -0.20409,-0.55223l-0.1913,0.03932l-0.49808,-2.42322c-0.0202,-0.08918 -0.03086,-0.18197 -0.03086,-0.27726c0,-0.69036 0.55964,-1.25 1.25,-1.25c0.33111,0 0.63215,0.12874 0.8558,0.33889l1.36438,1.27523c0.26706,0.13411 0.52473,0.28994 0.77105,0.46347c-0.52816,-1.26953 -0.8114,-2.25012 -0.92873,-3.35941l-0.25534,0.04374l-0.41804,-2.44055c-0.01443,-0.07599 -0.02198,-0.15441 -0.02198,-0.2346c0,-0.69036 0.55964,-1.25 1.25,-1.25c0.39694,0 0.75066,0.18501 0.97964,0.47351l1.32348,1.63957c0.28418,0.2851 0.61342,0.59384 0.96285,0.92154c-0.03172,-0.20691 -0.05688,-0.41776 -0.07594,-0.63437l-0.2578,0.04153l-0.39395,-2.44536c-0.01287,-0.07193 -0.01959,-0.14599 -0.01959,-0.22163c0,-0.69036 0.55964,-1.25 1.25,-1.25c0.42683,0 0.80369,0.21393 1.02921,0.54041l1.03705,1.4614l-0.01509,0.01071l0.04602,0.03499c2.12307,3.63191 4.56625,7.33664 7.3257,10.50021c0,0 0.82008,0.94338 -0.1233,1.76346c-0.94338,0.82008 -1.76346,-0.1233 -1.76346,-0.1233c-0.80823,-0.93265 -1.59207,-1.90803 -2.35041,-2.91276c-0.22816,0.30226 -0.59042,0.49763 -0.99831,0.49763c-0.20083,0 -0.3906,-0.04736 -0.55874,-0.13152l-1.75602,-0.83177l0.01371,-0.02895c-0.0769,-0.03041 -0.15289,-0.06369 -0.22787,-0.10017c-0.76713,-0.37322 -1.64574,-1.33802 -2.50041,-2.38831c0.09945,0.2444 0.20495,0.49119 0.32051,0.73977l0.0037,0.03769l0.01016,-0.00401l0.50829,1.28809c0.06292,0.14921 0.0977,0.31319 0.0977,0.4853c0,0.69036 -0.55964,1.25 -1.25,1.25c-0.1624,0 -0.31756,-0.03097 -0.45991,-0.08732l-2.31825,-0.85561l0.06204,-0.16811c-0.24497,-0.07315 -0.48734,-0.15312 -0.72632,-0.24134c0.75404,1.8052 0.21144,3.59707 -3.08847,2.63482c-0.18101,-0.05278 -0.4457,-0.20512 -0.75734,-0.4184c-0.05753,0.30994 -0.18079,0.6221 -0.38346,0.93067c-0.40028,0.60945 -1.37772,0.47798 -2.06658,0.71697l-0.3115,0.01723c0,0 -1.25,0 -1.25,-1.25zM97.23699,128.14997l-0.10021,0.01691c0.05695,0.03774 0.08903,0.02957 0.10021,-0.01691z" fill="#000000" stroke="none" stroke-width="0.5" stroke-linecap="butt"></path><path d="M78.94914,153.22458c-0.0324,0.01885 -0.06644,0.03718 -0.10219,0.05494c-1.11949,0.55609 -1.67558,-0.5634 -1.67558,-0.5634l0.99844,-1.59795l-0.78853,-0.84039c-0.21106,-0.22381 -0.34043,-0.52551 -0.34043,-0.85743c0,-0.33618 0.13271,-0.64137 0.34861,-0.86602c-0.02258,-0.094 -0.03454,-0.19213 -0.03454,-0.29306c0,-0.69036 0.55964,-1.25 1.25,-1.25c0.13001,0 0.25538,0.01985 0.37326,0.05668l1.43781,0.4135l-0.00243,0.00844l0.02858,-0.00061c0.94846,0.32541 1.95093,0.52223 2.9521,0.57818c0,0 1.24753,0.07848 1.16905,1.32602c-0.07848,1.24753 -1.32602,1.16905 -1.32602,1.16905c-0.01178,-0.00081 -0.02356,-0.00163 -0.03533,-0.00247c-0.03237,0.47647 -0.33174,0.87966 -0.74967,1.06114c0.013,0.07228 0.01979,0.14671 0.01979,0.22273c0,0.57151 -0.38354,1.05344 -0.90727,1.20243l-1.33384,0.4131l-0.13513,-0.43632c-0.3791,0.10543 -0.76345,0.17644 -1.14667,0.20146z" fill="#000000" stroke="none" stroke-width="0.5" stroke-linecap="butt"></path><path d="M75.01473,181.28011c-0.52388,0.20819 -0.90539,0.08622 -1.16639,-0.11045c-0.21579,0.10181 -0.4308,0.20741 -0.64534,0.31437c-0.03951,0.06533 -0.07768,0.12929 -0.11383,0.19163c-0.05476,0.09443 -0.22115,0.09083 -0.394,0.06326c-0.07674,0.03858 -0.15346,0.0771 -0.23016,0.11542c0.31821,0.08957 0.77465,-0.03089 0.97457,0.22808c0.57965,0.75087 1.16953,1.67552 1.1061,2.62198c-0.0785,1.17146 -2.01918,4.04731 -3.48692,5.6266c0.71277,-0.37432 1.46913,-0.65979 2.20316,-0.99078l2.18768,-1.06222c0.1707,-0.08744 0.36414,-0.13677 0.56911,-0.13677c0.69036,0 1.25,0.55964 1.25,1.25c0,0.22002 -0.05684,0.42676 -0.15665,0.60634l-0.8263,1.55948l0.01682,0.18522c0,0 -0.2436,1.22603 -1.46964,0.98243c-0.65611,-0.13036 -0.89134,-0.54208 -0.96826,-0.89669c-1.9245,0.99153 -5.31313,3.16481 -6.17754,0.18605c-1.23676,0.03655 -5.76311,0.37539 -6.31943,-0.77313c-0.50381,-1.04013 0.2643,-2.29919 0.49496,-3.43166c0.35366,-1.73633 1.51467,-3.21518 2.96265,-4.46348c-0.00114,-0.0219 -0.00172,-0.04396 -0.00172,-0.06614c0,-0.51712 0.31402,-0.96091 0.76177,-1.15106l1.70686,-0.77017c-0.22532,-0.01207 -0.4509,-0.03134 -0.67637,-0.05694l-0.02645,0.3548l-2.48239,-0.18508c-0.65202,-0.04235 -1.16775,-0.58462 -1.16775,-1.24734c0,-0.50873 0.30391,-0.94648 0.74008,-1.1416l1.75447,-0.83105l0.0036,0.0076l0.02176,-0.01927c0.56348,-0.23678 1.73772,-0.9574 2.83316,-1.47375c-0.09726,-0.01596 -0.1942,-0.03148 -0.29059,-0.04469c-0.60787,-0.08326 -1.18813,-0.27505 -1.74815,-0.53154l-0.05419,0.16151l-2.17102,-0.72842c-0.50959,-0.15781 -0.87974,-0.63281 -0.87974,-1.19425c0,-0.6592 0.51027,-1.19922 1.15737,-1.24662l1.19878,-0.10055c2.36365,-0.43417 4.59771,-0.84235 7.00217,-0.95525c0,0 1.24869,-0.05713 1.30583,1.19156c0.05713,1.24869 -1.19156,1.30583 -1.19156,1.30583c-0.19101,0.00849 -0.38087,0.01907 -0.56976,0.03156c0.35086,0.17429 0.58246,0.40298 0.63353,0.69741c0.22128,1.27566 -0.47179,2.24281 -1.49568,2.99466c0.83262,-0.03815 1.85661,-0.23576 2.45842,0.17537c0.07966,-0.03158 0.15978,-0.06315 0.24037,-0.09473l1.82664,1.22923c0,0 0.46162,1.16164 -0.70001,1.62326zM71.38564,184.20602l-1.03277,0.72768l-0.02912,-0.04133l-0.08915,0.11515c-0.0476,0.00627 -0.0952,0.01255 -0.14279,0.01882l0.01704,0.04137l-2.27712,0.93766c-0.15362,0.06743 -0.32339,0.10485 -0.50191,0.10485c-0.46675,0 -0.87375,-0.25582 -1.08844,-0.6349c-1.36273,1.23031 -2.44757,2.6886 -2.78987,4.38439c-0.04635,0.22961 0.3813,-0.30363 0.6117,-0.34587c0.42297,-0.07754 0.86003,-0.00246 1.29004,-0.00278c0.83333,-0.00061 1.66667,0 2.5,0c0,0 0.07418,0 0.18639,0.01807c1.11399,-1.7162 3.68253,-3.21167 4.00844,-4.93457c0.05966,-0.3154 -0.05969,-0.5803 -0.271,-0.82117c-0.09477,0.17321 -0.22935,0.32152 -0.39144,0.43263z" fill="#000000" stroke="none" stroke-width="0.5" stroke-linecap="butt"></path><path d="M114.94423,220.88046c-0.53366,0.80545 -1.01944,1.51767 -1.25349,1.91568l-0.064,0.03786l0.0245,0.01827l-0.81918,1.09872c-0.22728,0.31196 -0.59545,0.51471 -1.01097,0.51471c-0.69036,0 -1.25,-0.55964 -1.25,-1.25c0,-0.10864 0.01386,-0.21403 0.0399,-0.31452c-0.1437,0.05761 -0.30058,0.0893 -0.46487,0.0893c-0.61142,0 -1.1203,-0.43898 -1.22869,-1.01895c-0.86272,0.91611 -1.73194,1.78571 -2.28302,2.46852l-0.03973,0.01666l0.01377,0.01261l-0.87621,0.95691c-0.22865,0.25145 -0.55843,0.40931 -0.92507,0.40931c-0.69036,0 -1.25,-0.55964 -1.25,-1.25c0,-0.29066 0.0992,-0.55814 0.2656,-0.77045l0.72155,-0.93989c-0.17945,-0.02266 -0.34705,-0.08336 -0.49446,-0.17378c-1.85272,1.86317 -3.71971,3.71093 -5.70789,5.35796c-0.21009,0.25972 -0.41829,0.51996 -0.62415,0.78091l0.03084,0.02626l-1.61536,1.89695c-0.2293,0.27271 -0.573,0.44602 -0.95718,0.44602c-0.69036,0 -1.25,-0.55964 -1.25,-1.25c0,-0.30917 0.11224,-0.59212 0.2982,-0.81033l1.13407,-1.34908c1.66257,-2.15203 3.35029,-4.27809 5.05806,-6.39029c-0.19533,-0.22055 -0.31391,-0.51064 -0.31391,-0.82842c0,-0.27763 0.09051,-0.53412 0.24364,-0.74158l0.73008,-1.01482c0.44393,-0.61705 0.77711,-1.1428 1.10601,-1.60406c-0.89616,0.20922 -1.82564,0.28716 -2.7227,0.23669l0.19329,-0.48822c-0.34118,0.23225 -0.69362,0.45121 -1.06141,0.6552l0.19514,0.24234l-1.03931,0.8369c-0.21555,0.17655 -0.49116,0.28248 -0.79152,0.28248c-0.69036,0 -1.25,-0.55964 -1.25,-1.25c0,-0.25245 0.07484,-0.48743 0.20354,-0.68394l0.04398,-0.06956c-0.66234,-0.03147 -1.18968,-0.57844 -1.18968,-1.24857c0,-0.27092 0.08619,-0.52172 0.23265,-0.72645l0.70273,-1.01049c0.52433,-0.90051 0.92378,-1.88472 1.49167,-2.69695l-0.21667,0.05452c-0.1058,0.0291 -0.21722,0.04464 -0.33227,0.04464c-0.65231,0 -1.18792,-0.49966 -1.24497,-1.13713c-0.89194,0.25689 -1.71185,0.33311 -1.93555,-0.03809c-1.92166,1.35451 -3.53121,2.34942 -5.47571,3.08652l0.14509,0.28142l-2.20029,1.13438c-0.17682,0.0958 -0.37935,0.15019 -0.59458,0.15019c-0.69036,0 -1.25,-0.55964 -1.25,-1.25c0,-0.38414 0.17328,-0.7278 0.44593,-0.9571l1.16712,-0.99404c-0.33548,0.14132 -0.67355,0.27169 -1.0227,0.3937l0.10468,0.2145l-2.2237,1.08522c-0.17122,0.08813 -0.36543,0.13787 -0.57126,0.13787c-0.69036,0 -1.25,-0.55964 -1.25,-1.25c0,-0.08545 0.00857,-0.16891 0.02491,-0.24954l-0.59837,0.30115c-0.17437,0.09237 -0.37322,0.14468 -0.58429,0.14468c-0.69036,0 -1.25,-0.55964 -1.25,-1.25c0,-0.3631 0.15481,-0.69003 0.40203,-0.91841l1.35612,-1.26002c0.07593,-0.07135 0.15032,-0.14438 0.22345,-0.21858c-0.37126,-0.21673 -0.62071,-0.61938 -0.62071,-1.08028c0,-0.28855 0.09777,-0.55426 0.26199,-0.76582l1.30065,-1.71201c0.07596,-0.15184 0.22844,-0.47167 0.41101,-0.822c-0.37496,0.19877 -0.77136,0.36879 -1.13517,0.58294c-0.13125,0.07726 -0.26938,0.14338 -0.41264,0.19909c-0.53818,0.3695 -1.13088,0.74709 -1.78033,1.16753l-0.04976,0.00312l0.0106,0.01931l-1.13136,0.62116c-0.18312,0.1052 -0.39541,0.16536 -0.62176,0.16536c-0.69036,0 -1.25,-0.55964 -1.25,-1.25c0,-0.09972 0.01168,-0.19671 0.03374,-0.28968c-0.8145,0.18301 -1.72849,0.32201 -2.82938,0.43432l1.8252,-2.44249c2.3936,-1.60596 4.83326,-3.11498 7.45808,-4.31818c0,0 0.51471,-0.23549 1.00988,-0.04318c0.1028,-0.02735 0.2108,-0.04192 0.32221,-0.04192c0.69036,0 1.25,0.55964 1.25,1.25c0,0.21915 -0.05639,0.42512 -0.15546,0.6042l-0.02986,0.05664c0.68027,0.91857 0.23064,2.36335 0.05072,3.55483l0.22841,-0.15994c0.2053,-0.14779 0.45724,-0.23484 0.72951,-0.23484c0.64053,0 1.16854,0.48178 1.24142,1.10273l0.68926,-0.48565c0.2058,-0.14901 0.45879,-0.23685 0.73229,-0.23685c0.69036,0 1.25,0.55964 1.25,1.25c0,0.3246 -0.12373,0.6203 -0.32659,0.84252l-0.82282,0.90837c0.05396,-0.031 0.10788,-0.06237 0.16175,-0.09416l0.00078,-0.00023l-0.0001,-0.00017l2.12078,-1.24777c0.18984,-0.11631 0.41313,-0.18335 0.65208,-0.18335c0.69036,0 1.25,0.55964 1.25,1.25c0,0.22729 -0.06066,0.44041 -0.16668,0.62405l-0.11477,0.20795c0.39079,-0.24224 0.76666,-0.48596 1.11394,-0.7369l1.35649,-0.991c0.20864,-0.15621 0.46773,-0.24872 0.74842,-0.24872c0.58114,0 1.06965,0.39657 1.20968,0.93385l0.98923,-0.69701c0.2058,-0.14901 0.45879,-0.23685 0.73229,-0.23685c0.69036,0 1.25,0.55964 1.25,1.25c0,0.08535 -0.00855,0.16871 -0.02485,0.24925c0.1671,-0.08285 0.35537,-0.12942 0.55451,-0.12942c0.69036,0 1.25,0.55964 1.25,1.25c0,0.10104 -0.01199,0.19928 -0.03462,0.29337l0.70875,-0.73689c0.22751,-0.23727 0.54768,-0.38499 0.90236,-0.38499c0.69036,0 1.25,0.55964 1.25,1.25c0,0.23943 -0.06732,0.46313 -0.18405,0.65322l-0.04935,0.08367l0.64286,-0.59689c0.22336,-0.20861 0.52327,-0.33628 0.85301,-0.33628c0.69036,0 1.25,0.55964 1.25,1.25c0,0.25102 -0.07399,0.48476 -0.20136,0.6806l-1.24607,1.98585l-0.23477,-0.14731c-0.07629,0.15778 -0.15537,0.31277 -0.23799,0.46666l0.16103,-0.11001c0.20327,-0.14303 0.45108,-0.22702 0.71852,-0.22702c0.48356,0 0.90299,0.27458 1.11088,0.67633c0.03326,-0.03306 0.06635,-0.06616 0.09926,-0.0993l0.02962,-0.011l-0.00827,-0.00903l1.16628,-1.06883c0.22277,-0.20556 0.52046,-0.33114 0.84748,-0.33114c0.69036,0 1.25,0.55964 1.25,1.25c0,0.30603 -0.10998,0.58638 -0.29257,0.80368l-0.07454,0.09003l1.48935,-0.89947c0.19231,-0.12071 0.41982,-0.19051 0.66363,-0.19051c0.69036,0 1.25,0.55964 1.25,1.25c0,0.36165 -0.15359,0.68744 -0.39909,0.91568l-0.28343,0.26491c0.03467,0.0618 0.06424,0.12684 0.08815,0.19456c0.3223,0.14105 0.54529,0.34405 0.69065,0.58926c0.19273,-0.19103 0.37495,-0.37856 0.53576,-0.56292l1.56834,-1.79662c0.22922,-0.26541 0.5682,-0.43339 0.94641,-0.43339c0.28552,0 0.54868,0.09573 0.75914,0.25684l0.78163,-0.7503c0.22474,-0.21643 0.53032,-0.34952 0.86697,-0.34952c0.65332,0 1.18958,0.50121 1.24523,1.14009l0.20804,2.09377l-0.02106,0.00209c0.00881,0.10841 0.01245,0.21749 0.01012,0.32736c-0.00408,0.19215 -0.03878,0.40615 -0.09778,0.63617c0.32635,-0.02227 0.71305,0.08396 1.03819,0.54542c0.71997,1.02183 -0.30186,1.7418 -0.30186,1.7418l-2.05203,0.93279c-0.02533,-0.0687 -0.0419,-0.1498 -0.05453,-0.23649c-0.45801,0.80593 -0.91959,1.55808 -1.21313,2.09866l-3.12565,2.47411c0.06774,-0.53537 0.38476,-2.09558 0.89244,-3.67363z" fill="#000000" stroke="none" stroke-width="0.5" stroke-linecap="butt"></path><path d="M80.41031,172.63983c-1.23321,0.20419 -1.4374,-1.02902 -1.4374,-1.02902l0.27265,0.07461l-1.56785,-1.47293c-0.24403,-0.22813 -0.39656,-0.55291 -0.39656,-0.91332c0,-0.24474 0.07034,-0.47306 0.1919,-0.66583c-1.33477,-0.63343 -2.67584,-1.34238 -3.21143,-1.96898c-0.05693,-0.0666 -0.1112,-0.13494 -0.16309,-0.20483l-0.01733,0.01316l-1.35359,-1.78169c-0.16422,-0.21156 -0.26199,-0.47727 -0.26199,-0.76582c0,-0.37567 0.16572,-0.71264 0.42805,-0.94178c-2.36793,-3.41044 0.61136,-3.6597 2.95353,-3.0582c-0.56443,-0.74382 -1.05201,-1.54868 -1.45626,-2.38112l2.95797,-0.33541c0.42355,0.04325 0.88254,0.08922 1.31305,0.19607c-0.01308,-0.07248 -0.0199,-0.14713 -0.0199,-0.22338c0,-0.69036 0.55964,-1.25 1.25,-1.25c0.10247,0 0.20206,0.01233 0.29737,0.03559l1.8173,0.40367c1.17717,0.09785 2.35714,0.19405 3.53834,0.19298c0,0 1.25,0 1.25,1.25c0,1.25 -1.25,1.25 -1.25,1.25c-1.10109,-0.00092 -2.20102,-0.0793 -3.29899,-0.16982c-0.14325,0.50377 -0.59452,0.87786 -1.13729,0.90575l-1.77096,0.10486l-0.01511,-0.25527c-0.11509,0.01329 -0.23028,0.02507 -0.34552,0.03525c0.06981,0.0631 0.13666,0.12395 0.19993,0.18099l0.02837,0.05885l0.01491,-0.01354l0.96588,1.06339c0.2035,0.22235 0.32766,0.51852 0.32766,0.84368c0,0.69036 -0.55964,1.25 -1.25,1.25c-0.04017,0 -0.07991,-0.0019 -0.11911,-0.0056l-1.24158,-0.10413l0.01113,-0.13272c-0.24687,0.02733 -0.49578,0.04739 -0.74369,0.05737l1.52979,1.54206c-0.7675,0.20377 -1.535,0.40754 -2.3025,0.6113c1.78267,0.70036 3.4958,1.87755 5.13025,2.7393l0.00517,0.0055l0.00114,-0.00211l1.33846,0.72544c0.40202,0.2078 0.67682,0.62738 0.67682,1.11113c0,0.67352 -0.53268,1.22262 -1.19973,1.24901l-1.01576,0.04647l0.10498,0.29165c0,0 0.20419,1.23321 -1.02902,1.4374z" fill="#636363" stroke="none" stroke-width="0.5" stroke-linecap="butt"></path><path d="M99.36057,191.9723c0.82486,0.9392 -0.11434,1.76407 -0.11434,1.76407l-0.04173,0.03665c-0.69721,0.60648 -1.49331,1.09372 -2.34055,1.49129l0.16393,0.35287l-2.24325,1.04214c-0.16614,0.08166 -0.35305,0.12752 -0.55068,0.12752c-0.67508,0 -1.22516,-0.53515 -1.24918,-1.20436c-0.50688,0.37756 -0.99812,0.65989 -1.60073,0.86824l0.13221,0.36779l-1.4383,0.51705c-0.13967,0.05394 -0.29146,0.08351 -0.45016,0.08351c-0.69036,0 -1.25,-0.55964 -1.25,-1.25c0,-0.27614 0.08954,-0.53136 0.24117,-0.73822c-0.36907,0.16065 -0.72814,0.27475 -1.1256,0.35485l0.04882,0.26389l-2.43381,0.45031c-0.08136,0.01665 -0.1656,0.02539 -0.25188,0.02539c-0.69036,0 -1.25,-0.55964 -1.25,-1.25c0,-0.2697 0.08541,-0.51945 0.23066,-0.72367l0.95004,-1.37464c-0.41689,0.14441 -0.82768,0.26537 -1.25445,0.36898l0.07694,0.21402l-2.3253,0.83592c-0.13967,0.05394 -0.29147,0.08351 -0.45016,0.08351c-0.69036,0 -1.25,-0.55964 -1.25,-1.25c0,-0.23131 0.06283,-0.44794 0.17235,-0.63377c-0.19777,0.01979 -0.39628,0.03243 -0.59753,0.03868l0.03123,0.22495l-2.45533,0.34089c-0.06285,0.00973 -0.12724,0.01478 -0.19281,0.01478c-0.69036,0 -1.25,-0.55964 -1.25,-1.25c0,-0.53103 0.33113,-0.98472 0.79818,-1.16585l1.73141,-0.71761c2.36855,-1.12173 4.62098,-2.5037 6.88105,-3.83084c0,0 1.07792,-0.63292 1.71084,0.445c0.63292,1.07792 -0.445,1.71084 -0.445,1.71084c-0.28628,0.16808 -0.57245,0.33681 -0.85874,0.50565c0.2015,0.22193 0.32429,0.51662 0.32429,0.83999c0,0.08503 -0.00849,0.16809 -0.02467,0.24835c0.40086,-0.17427 0.82094,-0.35917 1.25979,-0.58005l1.18731,-0.64876c0.18265,-0.10446 0.39419,-0.16416 0.61967,-0.16416c0.69036,0 1.25,0.55964 1.25,1.25c0,0.22171 -0.05772,0.42994 -0.15896,0.61048l-0.72164,1.34898l-0.3043,-0.16279c-0.17192,0.39581 -0.36698,0.78017 -0.58723,1.14714c0.69512,-0.45816 1.41606,-0.88797 2.14569,-1.36948l0.01797,-0.00572l-0.00248,-0.00401l2.10972,-1.30437c0.19449,-0.12476 0.42581,-0.19712 0.67403,-0.19712c0.69036,0 1.25,0.55964 1.25,1.25c0,0.01115 -0.00015,0.02227 -0.00044,0.03335l0.98074,-0.60749c0.19466,-0.12509 0.42628,-0.19764 0.67486,-0.19764c0.69036,0 1.25,0.55964 1.25,1.25c0,0.18367 -0.03961,0.35809 -0.11076,0.51518l-0.06277,0.14742c0.22137,-0.21052 0.44743,-0.41553 0.67408,-0.61681l0.04173,-0.03665c0,0 0.9392,-0.82486 1.76407,0.11434z" fill="#636363" stroke="none" stroke-width="0.5" stroke-linecap="butt"></path><path d="M77.08156,179.46557c-0.15604,-1.24022 1.08418,-1.39626 1.08418,-1.39626l0.89702,-0.11142c1.04133,-0.01698 3.13711,-0.411 3.58118,1.15147c0.53389,-0.15195 1.06633,-0.30908 1.59762,-0.4696c0,0 1.19663,-0.36134 1.55798,0.83529c0.36134,1.19663 -0.83529,1.55798 -0.83529,1.55798c-1.27106,0.3836 -2.54858,0.74782 -3.83607,1.07203l-0.01217,-0.00189l0.00105,0.00453l-1.33422,0.30992c-0.09898,0.02521 -0.20268,0.03862 -0.30951,0.03862c-0.69036,0 -1.25,-0.55964 -1.25,-1.25c0,-0.23864 0.06687,-0.46166 0.1829,-0.65135c-0.26632,0.01072 -1.19133,-0.02952 -1.32467,-1.08931z" fill="#636363" stroke="none" stroke-width="0.5" stroke-linecap="butt"></path><path d="M105.862,152.46196c-1.07605,0.6361 -1.71215,-0.43995 -1.71215,-0.43995l-0.7243,-1.22525l-0.18468,-0.16523l0.01038,-0.01161l-0.0374,-0.01329c-0.3813,-0.38374 -1.12701,-1.03286 -1.92713,-1.7874c0.84063,1.87508 1.63397,3.65354 2.10532,5.64229l0.45536,-0.1131l0.59587,2.39913c0.02843,0.10467 0.0436,0.21479 0.0436,0.32846c0,0.69036 -0.55964,1.25 -1.25,1.25c-0.36156,0 -0.68726,-0.1535 -0.9155,-0.39889l-1.62977,-1.743c-2.87875,-2.35197 -5.56767,-5.00875 -8.28677,-7.55087c1.82574,4.67506 3.77631,9.17335 7.59695,12.68731c0,0 0.91869,0.84765 0.07104,1.76634c-0.84765,0.91869 -1.76634,0.07104 -1.76634,0.07104c-4.95757,-4.58756 -7.03353,-10.59552 -9.44033,-16.73461l0.00072,-0.05078l-0.01575,0.00481l-0.41024,-1.342c-0.04095,-0.12365 -0.06311,-0.25587 -0.06311,-0.39326c0,-0.69036 0.55964,-1.25 1.25,-1.25c0.28276,0 0.54359,0.09388 0.75302,0.25218l1.55961,1.15122l-0.19868,0.26916c0.20141,0.12588 0.40049,0.25527 0.59744,0.38789l-0.01961,-0.02467c-0.17374,-0.21469 -0.2778,-0.48808 -0.2778,-0.78577c0,-0.69036 0.55964,-1.25 1.25,-1.25c0.06319,0 0.12528,0.00469 0.18595,0.01374c0.90008,-0.48713 1.5492,0.38402 1.5492,0.38402l-0.1119,0.31023l0.3333,0.18064l-0.26233,0.48402l0.08946,0.11256c0.36404,0.36554 0.72809,0.73108 1.09213,1.09662c0,0 0.88099,0.88677 -0.00578,1.76776c-0.17544,0.1743 -0.35065,0.2794 -0.51886,0.33587c1.38671,1.24704 2.71489,2.58591 4.07683,3.88176c-0.97093,-2.00658 -1.69832,-4.25154 -2.35905,-6.02195l-0.90905,-2.28755c-0.06365,-0.14994 -0.09885,-0.31487 -0.09885,-0.48802c0,-0.69036 0.55964,-1.25 1.25,-1.25c0.19942,0 0.38794,0.0467 0.5552,0.12976l1.1088,0.52077l-0.0213,0.04534c0.09525,0.0339 0.18886,0.07286 0.28051,0.11787c0.20784,0.10207 0.41927,0.24059 0.63302,0.40817c0.22883,-0.29175 0.58459,-0.47921 0.98413,-0.47921c0.42273,0 0.79644,0.20984 1.02267,0.53103l0.82802,1.14598l-0.0253,0.01828l0.06571,0.04117c0.72777,1.29434 1.24761,2.33957 1.67374,3.44456c0.00355,0.00759 0.00709,0.01517 0.01064,0.02276l0.19951,-0.10869l1.18494,2.17495c0.10401,0.18236 0.16344,0.39344 0.16344,0.6184c0,0.04555 -0.00244,0.09052 -0.00718,0.13481l0.0426,0.07207c0,0 0.6361,1.07605 -0.43995,1.71215z" fill="#636363" stroke="none" stroke-width="0.5" stroke-linecap="butt"></path><path d="M108.28079,209.10904c0.65304,1.06585 -0.41282,1.71889 -0.41282,1.71889l-0.27606,0.16914c-2.70985,1.61432 -6.70961,3.31437 -10.24123,4.05566l0.10739,0.32006l-1.54262,0.51758c-0.13275,0.04802 -0.27595,0.07421 -0.42527,0.07421c-0.69036,0 -1.25,-0.55964 -1.25,-1.25c0,-0.03331 0.0013,-0.06631 0.00386,-0.09895c-1.64857,1.3409 -3.40339,2.56965 -5.12881,3.6815l-0.03851,0.00383l0.00797,0.01405l-1.12429,0.63725c-0.18625,0.11021 -0.40357,0.17347 -0.63567,0.17347c-0.69036,0 -1.25,-0.55964 -1.25,-1.25c0,-0.39751 0.18555,-0.75169 0.47477,-0.98063l1.56153,-1.25742l0.17422,0.21636c0.13307,-0.08869 0.26495,-0.17788 0.39575,-0.26758c1.09185,-1.10912 2.31334,-2.10584 3.5946,-3.04404c-1.92774,1.29691 -3.74027,2.54548 -5.70364,3.62308c-0.11981,0.10963 -0.23948,0.21936 -0.35901,0.3292l-0.0228,-0.00107l0.01044,0.01198l-0.05236,0.04563l0.08892,0.11508l-1.96921,1.52161c-0.21276,0.16776 -0.48135,0.26786 -0.77332,0.26786c-0.69036,0 -1.25,-0.55964 -1.25,-1.25c0,-0.37861 0.16832,-0.7179 0.43422,-0.94713l1.86989,-1.62962c7.01548,-6.44768 14.51218,-12.52049 21.87157,-18.5819c0,0 0.96491,-0.79464 1.75955,0.17027c0.79464,0.96491 -0.17027,1.75955 -0.17027,1.75955c-3.38673,2.78879 -6.80225,5.5803 -10.1862,8.40996c0.38325,-0.07869 0.71837,-0.06109 0.95632,0.10857c0.47104,0.33586 0.72087,0.72136 0.81623,1.12683l0.4515,-0.28103c0.1951,-0.12594 0.42753,-0.19904 0.67702,-0.19904c0.69036,0 1.25,0.55964 1.25,1.25c0,0.25651 -0.07726,0.49498 -0.20979,0.69339l-1.13404,1.75612c2.15869,-0.74244 4.57416,-1.29042 5.65523,-1.97639l0.27606,-0.16914c0,0 1.06585,-0.65304 1.71889,0.41282z" fill="#636363" stroke="none" stroke-width="0.5" stroke-linecap="butt"></path></g></g></svg>