<svg version="1.1" xmlns="http://www.w3.org/2000/svg" xmlns:xlink="http://www.w3.org/1999/xlink" width="145.76019" height="86.23394" viewBox="0,0,145.76019,86.23394"><g transform="translate(-157.13911,-139.01607)"><g data-paper-data="{&quot;isPaintingLayer&quot;:true}" fill-rule="nonzero" stroke-linejoin="miter" stroke-miterlimit="10" stroke-dasharray="" stroke-dashoffset="0" style="mix-blend-mode: normal"><path d="M168.65583,185.93259c0.88262,-4.85968 5.53768,-8.08372 10.39736,-7.2011c4.85968,0.88262 8.08372,5.53768 7.2011,10.39736c-0.88262,4.85968 -5.53768,8.08372 -10.39736,7.2011c-4.85968,-0.88262 -8.08372,-5.53768 -7.20109,-10.39736z" fill="#d8d8d8" stroke="#000000" stroke-width="1" stroke-linecap="butt"></path><g fill="none" stroke="#000000" stroke-width="2" stroke-linecap="round"><path d="M292.9676,153.59115l5.03839,-3.8933l-3.43527,22.21473"></path><path d="M298.46403,148.78177l3.43527,5.72545"></path></g><g fill="none" stroke="#000000" stroke-width="2" stroke-linecap="round"><path d="M288.19662,146.30097l5.03839,-3.8933l-3.43527,22.21473"></path><path d="M293.69305,141.4916l3.43527,5.72545"></path></g><g fill="none" stroke="#000000" stroke-width="2" stroke-linecap="round"><path d="M281.5935,148.85856l5.03839,-3.8933l-3.43527,22.21473"></path><path d="M290.5252,149.77462l-3.43527,-5.72545"></path></g><g fill="none" stroke="#000000" stroke-width="2" stroke-linecap="round"><path d="M275.4484,145.23267l5.0384,-3.8933l-3.43527,22.21473"></path><path d="M284.38011,146.14873l-3.43527,-5.72545"></path></g><path d="M266.5103,210.82109l9.28975,-50.21898l22.51972,4.16581c0,0 -4.21024,42.86497 -9.28974,50.21898c-5.0795,7.35401 -22.51973,-4.16581 -22.51973,-4.16581z" data-paper-data="{&quot;index&quot;:null}" fill="#9b5b00" stroke="#000000" stroke-width="1" stroke-linecap="butt"></path><path d="M205.5,185.00001c0,-21.81525 17.68475,-39.5 39.5,-39.5c21.81525,0 39.5,17.68475 39.5,39.5c0,21.81525 -17.68475,39.5 -39.5,39.5c-21.81525,0 -39.5,-17.68475 -39.5,-39.5z" fill="#d8d8d8" stroke="#000000" stroke-width="1.5" stroke-linecap="butt"></path><path d="M237.12263,168.64539v8" data-paper-data="{&quot;index&quot;:null}" fill="none" stroke="#000000" stroke-width="1.5" stroke-linecap="round"></path><path d="M233.37341,199.40149l-3.99378,0.26625" fill="none" stroke="#000000" stroke-width="1.5" stroke-linecap="round"></path><path d="" data-paper-data="{&quot;index&quot;:null}" fill="#00c1ff" stroke="none" stroke-width="0.5" stroke-linecap="butt"></path><g data-paper-data="{&quot;index&quot;:null}" stroke-linecap="butt"><path d="M225.03844,150.91171c-0.01655,0.61284 -4.12016,2.35201 -9.39422,4.77095c-2.3168,1.0626 -6.85346,1.54403 -8.889,3.10535c-2.08032,1.59567 -1.51605,4.02036 -1.42004,6.70389c0.04893,1.36784 2.27871,33.51193 3.37316,44.84199c0.0271,0.28055 -0.06431,-0.69766 0.85195,-0.07239c3.15621,2.1538 13.89204,9.40601 13.97372,10.13329c0.00878,0.07806 -3.53931,1.69709 -7.69556,2.40863c-2.5332,0.43368 -7.34922,0.74492 -12.56513,-0.29638c-6.45166,-1.288 -13.19022,-4.10286 -13.10532,-4.8514c0.05396,-0.47571 -17.68887,-11.92446 -16.14843,-12.08469c0.05736,-0.00597 -3.12189,-3.65235 -5.41044,-7.70187c-2.27021,-4.01708 -2.20818,-13.6099 -1.88005,-13.77464c0.36493,-0.18322 9.10849,-15.22317 9.71735,-15.55172c0.77822,-0.41992 9.73128,-11.23027 9.45846,-8.53228c-0.0195,0.19286 3.22555,-0.62646 2.27839,0.95038c-1.44515,2.40592 -8.66504,8.66363 -10.98111,12.35346c-3.12553,4.97932 -5.52117,9.8243 -5.4044,10.01238c0.07803,0.12565 -1.16596,4.82782 -1.07889,4.95694c0.26061,0.38646 -0.32073,2.40277 0.62269,4.46558c1.58537,3.46646 3.49403,7.80577 3.57225,7.99647c0.47588,1.16047 12.69712,11.27132 13.03636,11.31535c2.70148,0.35058 6.29573,4.03991 12.49056,6.40213c4.7196,1.79967 12.53263,2.48774 13.30509,2.3472c2.87665,-0.52337 4.3146,-2.15075 3.86472,-2.44364c-4.35965,-2.83826 -8.40256,-3.39545 -8.38028,-3.3295c-1.01251,0.3427 -2.81421,-0.94031 -3.35601,-2.16073c-1.16218,-2.61775 -1.33664,-16.11277 -1.29712,-22.3622c0.01811,-2.86392 -1.45072,-13.80722 -1.85183,-22.1642c-0.26149,-5.44813 0.5138,-9.86431 0.44398,-9.99456c-0.72484,-0.45463 13.05709,-4.80057 13.08188,-5.7178c0.0118,-0.4368 -5.84554,-1.97099 -11.23349,-0.63379c-6.85385,1.701 -14.83067,6.06754 -16.47743,8.63134c-0.74121,1.15399 -3.6013,-0.45477 -3.21354,-0.44429c0.22449,0.00607 11.61003,-7.43536 11.81553,-7.37426c1.10399,-0.40466 6.93914,-3.29022 13.09888,-4.05602c7.2309,-0.89897 14.84328,0.44902 14.79729,2.15101z" fill="#00c1ff" stroke="none" stroke-width="0.5"></path><g fill="none" stroke="#000000" stroke-width="1.5"><path d="M222.75268,220.91717c-20.75409,10.58448 -57.15518,-14.77553 -56.70203,-31.54592c0.45314,-16.77037 28.9151,-45.11102 53.79949,-40.89697c17.60702,2.98166 -12.90221,8.12197 -13.69402,11.60116c-1.69761,7.45933 1.55236,32.05045 2.22042,47.58224c0.21143,4.91607 19.36581,10.71473 14.37611,13.25946z"></path><path d="M185.36529,210.30155c-10.1944,-6.12315 -14.6377,-18.76432 -14.63047,-19.03144c0.41317,-15.29091 21.63057,-42.85735 44.57254,-39.00822c4.287,0.71924 -11.96973,3.98125 -12.5062,6.31559c-1.56296,6.80086 2.48298,39.90581 3.10311,54.06765c0.19629,4.48247 16.13692,4.40141 11.53765,6.7203c0,0 -3.33033,1.88834 -7.9717,1.02676c-7.10868,-1.31959 -17.37493,-6.04836 -24.1049,-10.09063z"></path></g></g><path d="M229.75621,169.16665v8" data-paper-data="{&quot;index&quot;:null}" fill="none" stroke="#000000" stroke-width="1.5" stroke-linecap="round"></path><path d="M197.18131,190.22402c0.79276,-4.87514 5.3875,-8.18458 10.26265,-7.39182c4.87514,0.79276 8.18458,5.3875 7.39182,10.26265c-0.79276,4.87514 -5.3875,8.18458 -10.26265,7.39182c-4.87514,-0.79276 -8.18458,-5.3875 -7.39182,-10.26265z" fill="#d8d8d8" stroke="#000000" stroke-width="1" stroke-linecap="butt"></path><g fill="none" stroke="#000000" stroke-width="2" stroke-linecap="round"><path d="M164.37518,192.81843l-4.70036,-4.29532l54.75105,-0.81102"></path><path d="M158.69369,188.22911l5.05081,-4.36706"></path></g></g></g></svg>