<svg version="1.1" xmlns="http://www.w3.org/2000/svg" xmlns:xlink="http://www.w3.org/1999/xlink" width="52.66815" height="136.55987" viewBox="0,0,52.66815,136.55987"><g transform="translate(-216.52931,-111.72007)"><g data-paper-data="{&quot;isPaintingLayer&quot;:true}" fill-rule="nonzero" stroke="#00e6ff" stroke-linecap="round" stroke-linejoin="miter" stroke-miterlimit="10" stroke-dasharray="" stroke-dashoffset="0" style="mix-blend-mode: normal"><path d="M227.91131,119.97007c0,0 33.03615,44.27609 33.03615,60.03674c0,14.7137 -35.55489,60.02312 -35.55489,60.02312" fill="none" stroke-width="16.5"></path><path d="M235.13096,135.96599l-14.16481,2.08484l7.8702,-11.88443z" fill="#00e6ff" stroke-width="2.5"></path><path d="M245.52428,149.74578l-14.16481,2.08484l7.8702,-11.88444z" fill="#00e6ff" stroke-width="2.5"></path><path d="M246.15277,206.3054l-7.4085,-12.17761l14.07441,2.62669z" data-paper-data="{&quot;index&quot;:null}" fill="#00e6ff" stroke-width="2.5"></path><path d="M258.09763,185.59193l-13.0614,-5.86415l13.02836,-5.78288z" fill="#00e6ff" stroke-width="2.5"></path><path d="M255.15545,165.56889l-14.16481,2.08484l7.8702,-11.88444z" data-paper-data="{&quot;index&quot;:null}" fill="#00e6ff" stroke-width="2.5"></path><path d="M236.80624,219.69362l-7.4085,-12.17761l14.07441,2.62669z" data-paper-data="{&quot;index&quot;:null}" fill="#00e6ff" stroke-width="2.5"></path><path d="M226.46104,234.25711l-7.4085,-12.17761l14.07441,2.62669z" data-paper-data="{&quot;index&quot;:null}" fill="#00e6ff" stroke-width="2.5"></path></g></g></svg>