<svg version="1.1" xmlns="http://www.w3.org/2000/svg" xmlns:xlink="http://www.w3.org/1999/xlink" width="66.2703" height="69.94434" viewBox="0,0,66.2703,69.94434"><g transform="translate(-206.86485,-145.02783)"><g data-paper-data="{&quot;isPaintingLayer&quot;:true}" fill-rule="nonzero" stroke="none" stroke-width="0.5" stroke-linecap="butt" stroke-linejoin="miter" stroke-miterlimit="10" stroke-dasharray="" stroke-dashoffset="0" style="mix-blend-mode: normal"><path d="M260.83542,187.00642c-0.58479,-0.16403 -1.02507,-0.67364 -1.08664,-1.29462l-0.33392,-2.96293l0.00777,-0.00088l-0.01044,-0.02475c-0.11736,-1.51287 -0.51817,-3.35735 -0.92382,-5.29641l-0.13757,1.50999c-0.06153,0.77192 -0.70745,1.37917 -1.4952,1.37917c-0.82843,0 -1.5,-0.67157 -1.5,-1.5v-3c0.00001,-0.73866 -0.06911,-1.5423 -0.16525,-2.38c-0.38521,1.37935 -0.85461,2.73148 -1.43558,4.05937l0.38743,0.1283l-0.93224,2.81511c-0.18763,0.61437 -0.75904,1.06125 -1.43481,1.06125c-0.79153,0 -1.43987,-0.61308 -1.49605,-1.39029l-0.22429,-2.70878c-0.20273,-0.98839 -0.49469,-1.88822 -0.74121,-2.76363c-0.54933,2.65516 -1.14945,5.22435 -2.05881,7.7452l0.36021,0.07428l-0.60018,2.91046c-0.12925,0.69698 -0.74039,1.22477 -1.47481,1.22477c-0.82843,0 -1.5,-0.67157 -1.5,-1.5v-3c0.00022,-3.33578 0.34787,-7.12325 -0.20269,-10.40284c-0.01926,-0.11471 -0.04006,-0.22985 -0.06174,-0.34532c-0.26298,1.50706 -0.42079,2.8865 -0.76165,4.28739c0.02138,0.18769 0.04378,0.37218 0.06747,0.55306l-0.06149,0.01l0.31376,0.03896l-0.22846,1.8399c-0.08224,0.7507 -0.71841,1.33481 -1.49101,1.33481c-0.82064,0 -1.48735,-0.659 -1.49982,-1.47667l-0.02746,-1.54487c-0.14164,-1.05819 -0.40193,-2.24623 -0.67801,-3.48831c-0.21093,3.74927 -0.45922,7.50126 -1.17242,11.10833l0.34126,0.00942l-0.08263,2.99376c-0.01927,0.81166 -0.68327,1.46371 -1.49957,1.46371c-0.00521,0 -0.01041,-0.00003 -0.01561,-0.00008c-0.27511,0.33428 -0.69205,0.54744 -1.15878,0.54744c-0.31206,0 -0.60187,-0.0953 -0.84191,-0.25837c-0.17313,0.63714 -0.75567,1.10569 -1.44764,1.10569c-0.23938,0 -0.46565,-0.05607 -0.66642,-0.1558c-0.13418,0.6093 -0.27989,1.21646 -0.44014,1.82163l0.34224,0.03238l-0.28111,2.9709c-0.06378,0.76968 -0.70867,1.37446 -1.49482,1.37446c-0.80691,0 -1.46501,-0.63715 -1.49865,-1.43578l-0.07459,-1.53218c-0.17935,-3.68432 -0.23118,-7.47214 -0.92936,-11.11307c-0.02211,0.87495 -0.03419,1.71712 -0.01596,2.50604c0.15606,6.75377 0.55022,13.53743 0.55464,20.2808l-1.4549,3.14825c-0.39578,-1.01173 -0.73533,-2.04459 -1.02564,-3.09483l-0.51946,-0.05341c0.0003,-0.43662 -0.00049,-0.87346 -0.00229,-1.31048c-0.00066,0.14023 -0.00103,0.28018 -0.00109,0.41986l-0.02315,0.05929l0.01943,0.00158l-0.22977,2.81908c-0.05534,0.77802 -0.70406,1.39202 -1.49617,1.39202c-0.75341,0 -1.37708,-0.55545 -1.48386,-1.27919l-0.48605,-2.93549l0.019,-0.00315c-0.01176,-0.0401 -0.02318,-0.08033 -0.03424,-0.12069c-0.11473,-0.41859 -0.19084,-0.87907 -0.23802,-1.36794c-0.52621,-0.23298 -0.89334,-0.75974 -0.89334,-1.37226l0,-1.54745c-0.67427,-4.7115 -0.85737,-9.51428 -1.11338,-14.3002c-0.23998,-0.21359 -0.41091,-0.50308 -0.47512,-0.83082l-0.06874,-0.31629c0.11822,4.5463 0.23174,9.08743 0.26022,13.64037l-0.00047,0.00112l0.00047,0l0.00929,1.95025c0.00002,0.00279 0.00002,0.00557 0.00002,0.00836c0,0.82843 -0.67157,1.5 -1.5,1.5c-0.8003,0 -1.45421,-0.62674 -1.4977,-1.41618l-0.18915,-2.98288l0.17044,-0.01081c-0.00361,-0.42601 -0.00784,-0.85197 -0.01263,-1.2779c-0.23427,-1.3496 -0.38195,-2.70972 -0.46207,-4.07745c-0.02888,0.00166 -0.05797,0.0025 -0.08726,0.0025c-0.62804,0 -1.16593,-0.38598 -1.38941,-0.93366l-1.18214,-2.71974l0.01659,-0.00721c-0.02474,-0.04747 -0.04897,-0.09524 -0.07266,-0.14335c-1.40272,-2.84908 -1.75367,-6.6341 -1.82757,-10.40488c-0.54139,-0.10928 -0.97714,-0.51009 -1.1364,-1.03156l-0.68192,-2.0592l0.02787,-0.00923c-0.02631,-0.0564 -0.05147,-0.11345 -0.0754,-0.1712c-0.82482,-1.99028 -0.7721,-7.34039 -0.31484,-9.43347c0.22509,-1.03031 0.22213,-2.52428 1.19595,-2.92909c0.01059,-0.0044 0.02118,-0.00867 0.03179,-0.01281c0.01205,-0.0724 0.26438,-1.47404 1.70894,-1.25325c1.48278,0.22663 1.25615,1.70941 1.25615,1.70941c-0.03469,0.22478 -0.06701,0.4494 -0.09708,0.67388c0.57488,0.5464 1.09562,1.18124 1.50196,1.69977v-0.97315c0,0 0,0 0,0c0,-0.82843 0.67157,-1.5 1.5,-1.5c0.58748,0 1.09609,0.33774 1.34224,0.82964c0.27379,-0.36275 0.70852,-0.59722 1.19801,-0.59722c0.75341,0 1.37709,0.55545 1.48386,1.27919l0.45784,2.76514l-0.0401,0.00664l0.0552,0.11546c0.00126,0.55817 0.02961,1.15147 0.0743,1.76987l0.46693,0.93998l-0.04424,0.02197c0.04935,0.07228 0.09617,0.1465 0.14014,0.22292c0.34095,0.59261 0.22089,1.33699 0.25436,2.03272c0.04632,0.236 0.08624,0.4811 0.12087,0.73276c0.00015,-0.00311 0.0003,-0.00621 0.00045,-0.00932l0.14509,-2.98777c0.03182,-0.75745 0.62535,-1.36967 1.37484,-1.43091l0.01514,-0.51093c0.02067,-0.81041 0.68411,-1.46102 1.4995,-1.46102c0.71462,0 1.31252,0.49973 1.46331,1.16879l0.71559,2.88118c0.35149,0.79545 0.60421,1.66406 0.78378,2.57999c0.14175,0.10755 0.26378,0.23973 0.35973,0.39017c0.04536,-2.28736 0.16626,-4.5889 0.25803,-6.93673l0,-1.60519c0,0 0,0 0,0c0,-0.82843 0.67157,-1.5 1.5,-1.5c0.22936,0 0.4467,0.05148 0.64109,0.14351c0.27325,-0.36912 0.71187,-0.60842 1.20639,-0.60842c0.68546,0 1.26353,0.45978 1.44264,1.08775l0.87941,2.83259l-0.37266,0.1157c0.07769,0.16556 0.15377,0.33159 0.22828,0.49808c0.6679,0.14909 1.1678,0.74356 1.17175,1.45548l0.01031,1.58922c0.26131,0.78219 0.49569,1.57269 0.70738,2.37063c0.24735,-2.85097 0.5451,-5.70057 0.89888,-8.51926l0,-1.78973c0,0 0,0 0,0c0,-0.82843 0.67157,-1.5 1.5,-1.5c0.66669,0 1.23179,0.43494 1.42703,1.03655l0.98116,2.79811l-0.01436,0.00504c0.01516,0.03075 0.03013,0.0616 0.0449,0.09258c0.3543,0.74332 0.62784,1.57296 0.8442,2.45385l0.11951,-0.40097c0.17377,-0.63617 0.75584,-1.1038 1.44712,-1.1038c0.65378,0 1.20987,0.41826 1.41528,1.0018l1.04952,2.77301c0.40155,0.74652 0.71687,1.5216 0.85444,2.31687c0.02121,0.1226 0.04124,0.24588 0.06015,0.36977c0.12557,-0.4761 0.23682,-0.93292 0.32487,-1.36436l0.36278,-1.77748c0.12812,-0.69838 0.73992,-1.2276 1.47533,-1.2276c0.67045,0 1.23816,0.43986 1.4303,1.04674l0.96101,2.80521l-0.23905,0.08189c0.26506,0.5619 0.5006,1.12264 0.71437,1.70317c0.56714,-3.14434 1.69214,-6.53449 1.93874,-9.06991l0.1662,-1.70495c0.0656,-0.76786 0.70966,-1.37063 1.4945,-1.37063c0.75933,0 1.38688,0.56422 1.48628,1.29629l0.29829,1.95166c0.27395,-0.36057 0.70734,-0.59338 1.19511,-0.59338c0.76309,0 1.3931,0.56982 1.48772,1.30718l0.42653,2.94702l-0.30759,0.04452c0.10576,0.36142 0.20666,0.72456 0.303,1.08924c0.19083,-0.38645 0.54321,-0.67885 0.96894,-0.789l0.03167,-1.59558c0.01391,-0.8164 0.68006,-1.47394 1.49978,-1.47394c0.36333,0 0.69648,0.12917 0.95604,0.3441c0.19979,-0.09851 0.42468,-0.15386 0.6625,-0.15386c0.02632,0 0.05249,0.00068 0.07848,0.00202l0.04097,-0.44224c0.06251,-0.77095 0.70798,-1.37712 1.49504,-1.37712c0.78682,0 1.43215,0.60582 1.49498,1.37644l0.27676,2.97152l-0.43672,0.04067c0.9382,4.51145 0.6268,8.90423 0.62685,13.84743v1.85957c0,0.50621 -0.25075,0.95385 -0.63482,1.22549c0.02016,0.56958 0.04121,1.13962 0.06481,1.7099c0.34481,8.33357 0.97439,16.60535 1.03186,24.9529l-0.00184,0.00517h0.00185v2.32446c0,0.82843 -0.67157,1.5 -1.5,1.5c-0.74375,0 -1.36107,-0.5413 -1.4795,-1.25143l-0.23726,-1.27371c-0.27094,0.26778 -0.64335,0.4331 -1.05439,0.4331c-0.7224,0 -1.32553,-0.51067 -1.46808,-1.1907l-0.67065,-2.89306l0.43421,-0.10066c-2.35091,-6.8118 -1.90029,-14.36979 -1.70548,-21.68929z" fill="#555555"></path><path d="M214.15361,168.19678c-0.98128,-1.1345 0.15321,-2.11578 0.15321,-2.11578l2.06108,-1.78274c0.63854,-0.55231 1.26896,-1.12211 1.89402,-1.70419l-0.73527,0.06938c-0.05262,0.00558 -0.10605,0.00845 -0.16015,0.00845c-0.82843,0 -1.5,-0.67157 -1.5,-1.5c0,-0.3832 0.14369,-0.73284 0.38014,-0.99798l1.0846,-1.22818c-1.89379,0.60553 -3.83071,1.04185 -5.82333,1.24266l0.09372,0.46623l-2.91073,0.58511c-0.10497,0.02327 -0.21408,0.03554 -0.32605,0.03554c-0.82843,0 -1.5,-0.67157 -1.5,-1.5c0,-0.63499 0.39456,-1.17782 0.95189,-1.3967l2.73453,-1.14683l0.00547,0.01305l0.03652,-0.02992c3.14458,-1.10186 6.20942,-2.15626 9.36303,-2.68946c5.29287,-2.46172 10.09909,-5.35558 15.24252,-8.20602l1.97005,-1.09063c0.22073,-0.12779 0.47705,-0.20093 0.75044,-0.20093c0.82843,0 1.5,0.67157 1.5,1.5c0,0.54645 -0.2922,1.02464 -0.72887,1.28687l-2.52401,1.57274l-0.05024,-0.08063c-0.06691,0.21067 -0.17908,0.40118 -0.3251,0.56009l-1.60587,1.76043c-0.41508,0.54424 -0.83327,1.14968 -1.26305,1.77523c1.2771,-0.89272 2.56399,-1.71313 3.96093,-2.44075l-0.21784,-0.33447l2.49583,-1.62555c0.239,-0.1609 0.52685,-0.25481 0.83664,-0.25481c0.82843,0 1.5,0.67157 1.5,1.5c0,0.33188 -0.10778,0.63859 -0.29025,0.88703l-1.00991,1.41132l1.80436,-1.03081c0.22442,-0.13378 0.48671,-0.21063 0.76695,-0.21063c0.82843,0 1.5,0.67157 1.5,1.5c0,0.43284 -0.18333,0.82285 -0.47657,1.09664l-1.56583,1.46929l-0.02845,-0.03032l-0.05229,0.10082c-0.04991,0.03501 -0.09977,0.07008 -0.14957,0.10521l-0.90729,1.26839l-0.32206,-0.23038c-0.72777,1.3633 -1.5458,2.66062 -2.42218,3.92306c2.73114,-1.98822 5.47071,-3.95367 8.34343,-5.61798c0.17162,-0.1452 0.34327,-0.29083 0.51499,-0.43688c0.10212,-0.20172 0.24848,-0.37724 0.42632,-0.51381l2.05622,-1.60978c0.2564,-0.20462 0.58138,-0.32694 0.93493,-0.32694c0.16508,0 0.32394,0.02667 0.47249,0.07593l1.26508,-0.77312c0.2321,-0.14729 0.50741,-0.23259 0.80265,-0.23259c0.82843,0 1.5,0.67157 1.5,1.5c0,0.00185 0,0.0037 -0.00001,0.00555c0.4802,-0.18287 0.97533,-0.40951 1.49142,-0.72002l1.77353,-1.0335c0.22671,-0.13766 0.49281,-0.21693 0.77742,-0.21693c0.82843,0 1.5,0.67157 1.5,1.5c0,0.46687 -0.21329,0.88392 -0.54775,1.15903l-2.29474,1.91469l-0.25939,-0.31088c-2.11622,2.31973 -4.53831,4.32752 -6.9963,6.30645c-0.07605,0.25722 -0.14928,0.50976 -0.2252,0.75762c2.73768,-2.15567 5.38685,-4.4732 8.08721,-6.61905l1.40985,-1.12034c0.25761,-0.20844 0.58564,-0.33328 0.94283,-0.33328c0.20525,0 0.40087,0.04122 0.57903,0.11584c0.98034,-0.62907 1.97774,-1.22185 2.99636,-1.7665c1.36696,-0.7309 4.74644,-3.14509 6.57542,-1.30557c0.32689,0.32877 0.45361,0.72953 0.44919,1.16195c0.59418,0.18162 1.03163,0.72223 1.0595,1.369c0.66265,0.15547 1.15605,0.75031 1.15605,1.46038c0,0.28731 -0.08078,0.55576 -0.22086,0.78386l-1.51138,2.56219l-0.28545,-0.16838c-1.96948,4.41948 -4.80655,8.07956 -8.19539,11.91864l-1.70385,1.92941c-0.27496,0.31443 -0.67908,0.51303 -1.12958,0.51303c-0.82843,0 -1.5,-0.67157 -1.5,-1.5c0,-0.0863 0.00729,-0.1709 0.02128,-0.25321l0.2862,-1.87254l-1.17442,1.06391c-0.26667,0.24346 -0.62153,0.39195 -1.01107,0.39195c-0.82843,0 -1.5,-0.67157 -1.5,-1.5c0,-0.41162 0.16579,-0.78451 0.43424,-1.05554l2.10987,-2.13191l0.1148,0.11361l0.05737,-0.05197l0.01039,0.01147l0.00152,-0.02214c0.26691,-0.23165 0.5314,-0.46111 0.79347,-0.68952c1.10913,-1.42277 2.32284,-2.74897 3.60231,-4.02756c0.27697,-0.45793 0.53455,-0.88345 0.75388,-1.25813c-4.72686,3.73467 -8.80121,8.4647 -13.77649,11.78441c-0.09404,0.09924 -0.18808,0.19873 -0.28211,0.29851l0.23445,0.2795l-2.29119,1.92186c-0.2617,0.22257 -0.6008,0.35687 -0.97126,0.35687c-0.82843,0 -1.5,-0.67157 -1.5,-1.5c0,-0.39441 0.15223,-0.75327 0.40113,-1.02103l1.12782,-1.22086c1.51147,-1.63615 3.02152,-3.27364 4.53253,-4.91024c-0.35306,0.27983 -0.70642,0.55713 -1.06032,0.83115l-1.87931,1.45511c-0.25549,0.20182 -0.57821,0.32228 -0.92907,0.32228c-0.26072,0 -0.50591,-0.06652 -0.71952,-0.18351c-1.70155,1.01319 -3.46819,1.91599 -5.33302,2.66297l0.16673,0.30247l-2.60323,1.43493c-0.22022,0.12698 -0.47571,0.19962 -0.74818,0.19962c-0.82843,0 -1.5,-0.67157 -1.5,-1.5c0,-0.36982 0.13383,-0.70838 0.35571,-0.9699l1.76369,-2.10813c2.83141,-3.37126 6.31225,-6.15732 9.76303,-8.93187c0.25406,-0.63086 0.53346,-1.25734 0.84007,-1.88539c-0.20949,0.1396 -0.42184,0.27699 -0.63544,0.41337c-4.6974,4.01708 -9.54106,8.00412 -15.0631,10.68387l0.18054,0.26674l-2.46799,1.6704c-0.24298,0.1695 -0.53849,0.26891 -0.85722,0.26891c-0.30507,0 -0.58887,-0.09107 -0.8257,-0.24751c-0.02349,0.01282 -0.04699,0.02563 -0.07049,0.03843l-0.11889,0.005l0.01373,0.03779l-1.45576,0.52908c-0.16894,0.06592 -0.35276,0.10209 -0.54503,0.10209c-0.82843,0 -1.5,-0.67157 -1.5,-1.5c0,-0.28339 0.07859,-0.54843 0.21516,-0.77451l0.93047,-1.60555c-0.43613,0.19908 -0.88007,0.38778 -1.33264,0.56535l0.19122,0.36807l-2.63627,1.36958c-0.21311,0.11628 -0.45755,0.18237 -0.71743,0.18237c-0.31358,0 -0.60469,-0.09623 -0.84541,-0.26076c-0.16803,0.05755 -0.33697,0.11356 -0.50685,0.16798l0.15702,0.3836l-2.74516,1.12367c-0.1836,0.08013 -0.38635,0.12458 -0.59948,0.12458c-0.82843,0 -1.5,-0.67157 -1.5,-1.5c0,-0.38629 0.14602,-0.73847 0.38587,-1.00437l0.29665,-0.33177l-0.13652,0.04581c-0.12761,0.04616 -0.26327,0.07551 -0.4043,0.08536c-0.3598,0.22258 -1.19047,0.57628 -1.93333,-0.28257zM245.01432,165.35887c0.23721,-0.12604 0.47234,-0.25748 0.70387,-0.39655l0.10026,-0.29499c-0.26969,0.22867 -0.53786,0.45905 -0.80413,0.69154zM259.67864,158.55137c0.02247,-0.01854 0.04495,-0.03707 0.06745,-0.05558l-0.03132,-0.01815c-0.01201,0.02461 -0.02405,0.04918 -0.03613,0.07373zM261.919,156.7852c-0.38791,0.2626 -0.77351,0.53083 -1.15707,0.80386l-0.09314,0.16071c0.41366,-0.32822 0.83039,-0.65024 1.25021,-0.96457zM222.1855,158.78205c-0.11224,0.07779 -0.22421,0.15578 -0.33591,0.23398c0.0487,-0.01543 0.09754,-0.03071 0.1465,-0.04585c0.06313,-0.06269 0.12627,-0.1254 0.18941,-0.18813z" fill="#2c2c2c"></path></g></g></svg>