<svg version="1.1" xmlns="http://www.w3.org/2000/svg" xmlns:xlink="http://www.w3.org/1999/xlink" width="79.14254" height="76.12174" viewBox="0,0,79.14254,76.12174"><g transform="translate(-440.43505,-138.91399)"><g data-paper-data="{&quot;isPaintingLayer&quot;:true}" fill-rule="nonzero" stroke-linejoin="miter" stroke-miterlimit="10" stroke-dasharray="" stroke-dashoffset="0" style="mix-blend-mode: normal"><path d="" data-paper-data="{&quot;index&quot;:null}" fill="none" stroke="#000000" stroke-width="1.5" stroke-linecap="round"/><path d="M508.96423,181.09245c-2.01828,15.44571 -16.17566,26.33077 -31.62136,24.3125c-15.44571,-2.01828 -26.33077,-16.17566 -24.3125,-31.62136c2.01828,-15.44571 16.17566,-26.33077 31.62136,-24.3125c15.44571,2.01828 26.33077,16.17566 24.3125,31.62136z" fill="#000000" stroke="none" stroke-width="NaN" stroke-linecap="butt"/><path d="M484.83672,191.50219l-6.45411,23.53354l-5.93257,-0.77523l-0.66499,-24.46377z" fill="#000000" stroke="none" stroke-width="0" stroke-linecap="butt"/><path d="M471.19068,193.90517l-21.20447,12.07698l-3.64683,-4.74313l16.82831,-17.76874z" fill="#000000" stroke="none" stroke-width="0" stroke-linecap="butt"/><path d="M463.96859,181.96077l-23.53354,-6.45411l0.77523,-5.93257l24.46377,-0.665z" fill="#000000" stroke="none" stroke-width="0" stroke-linecap="butt"/><path d="M466.30069,169.41621l-12.07698,-21.20447l4.74314,-3.64683l17.76874,16.82828z" fill="#000000" stroke="none" stroke-width="0" stroke-linecap="butt"/><path d="M474.6436,162.44753l6.45411,-23.53355l5.93257,0.77523l0.665,24.46377z" fill="#000000" stroke="none" stroke-width="0" stroke-linecap="butt"/><path d="M487.02343,160.89647l21.20447,-12.07698l3.64683,4.74313l-16.82828,17.76875z" fill="#000000" stroke="none" stroke-width="0" stroke-linecap="butt"/><path d="M496.04404,172.40372l23.53355,6.45411l-0.77523,5.93257l-24.46377,0.66499z" fill="#000000" stroke="none" stroke-width="0" stroke-linecap="butt"/><path d="M496.40713,188.7314l12.07698,21.20447l-4.74314,3.64683l-17.76872,-16.82829z" fill="#000000" stroke="none" stroke-width="0" stroke-linecap="butt"/></g></g></svg>