<svg version="1.1" xmlns="http://www.w3.org/2000/svg" xmlns:xlink="http://www.w3.org/1999/xlink" width="161.70786" height="149.45581" viewBox="0,0,161.70786,149.45581"><g transform="translate(-200.95088,-71.41489)"><g data-paper-data="{&quot;isPaintingLayer&quot;:true}" fill-rule="nonzero" stroke-linejoin="miter" stroke-miterlimit="10" stroke-dasharray="" stroke-dashoffset="0" style="mix-blend-mode: normal"><path d="" data-paper-data="{&quot;index&quot;:null}" fill="none" stroke="#000000" stroke-width="1.5" stroke-linecap="round"></path><path d="M289.92393,195.47554" data-paper-data="{&quot;index&quot;:null}" fill="none" stroke="#d8d8d8" stroke-width="4" stroke-linecap="round"></path><path d="M241.20088,220.1207c-21.81525,0 -39.5,-17.68475 -39.5,-39.5c0,-21.81525 17.68475,-39.5 39.5,-39.5c21.81525,0 39.5,17.68475 39.5,39.5c0,21.81525 -17.68475,39.5 -39.5,39.5z" fill="#d8d8d8" stroke="#000000" stroke-width="1.5" stroke-linecap="butt"></path><path d="M226.36716,169.6083l14.03116,4.59202" fill="none" stroke="#000000" stroke-width="1.5" stroke-linecap="round"></path><path d="M228.19225,178.95914l-0.25511,-5.86758" fill="none" stroke="#000000" stroke-width="1.5" stroke-linecap="round"></path><path d="M251.36815,169.86341l-7.65337,3.82668" fill="none" stroke="#000000" stroke-width="1.5" stroke-linecap="round"></path><path d="M246.28352,178.41109l0.21988,-5.35892" fill="none" stroke="#000000" stroke-width="1.5" stroke-linecap="round"></path><path d="M229.62579,192.95291l25.16666,2.30233l-24.96157,-0.52657" fill="none" stroke="#000000" stroke-width="3" stroke-linecap="round"></path><g stroke="#000000" stroke-linecap="butt"><path d="M286.66002,167.04377l15.02339,10.96367c0,0 1.13854,3.56634 0.49837,4.44354c-0.64131,0.87878 -4.34277,0.82439 -4.34277,0.82439l-15.02339,-10.96367z" fill="#af5400" stroke-width="1.5"></path><path d="M288.47502,158.19541c0,0 4.79543,1.40052 5.28909,4.29728c0.57831,3.39347 -2.71709,7.82315 -4.79231,10.80291c-3.84668,5.52338 -8.79072,8.85515 -11.04284,7.44173c-1.04643,-0.65673 -3.48165,-3.90285 -3.48165,-3.90285c0,0 4.30952,-5.70035 6.36889,-8.65733c3.84668,-5.52338 7.65884,-9.98173 7.65884,-9.98173z" fill="#989898" stroke-width="1"></path><path d="M288.55709,157.75197c2.25211,1.41342 0.95946,7.03682 -2.88722,12.5602c-3.84668,5.52337 -8.79072,8.85515 -11.04282,7.44173c-2.25211,-1.41342 -0.95946,-7.03682 2.88722,-12.56019c3.84668,-5.52337 8.79073,-8.85514 11.04282,-7.44173z" fill="#989898" stroke-width="1"></path><path d="M280.3909,170.82713l-67.57616,-52.38825l12.71461,2.52206l58.41329,45.28475c0,0 0.19199,2.25245 -0.39289,3.00688c-0.59872,0.77228 -3.15886,1.57456 -3.15886,1.57456z" fill="#e6e6e6" stroke-width="0.5"></path></g><g stroke="#000000" stroke-linecap="butt"><path d="M304.66816,160.89466l-0.83626,18.57969c0,0 -2.34328,2.9196 -3.42814,2.87076c-1.0868,-0.04892 -3.08681,-3.164 -3.08681,-3.164l0.83626,-18.57969z" fill="#af5400" stroke-width="1.5"></path><path d="M313.04586,157.51801c0,0 1.48256,4.77071 -0.659,6.78283c-2.50877,2.35715 -8.0217,2.05829 -11.65194,1.97521c-6.72911,-0.15398 -12.23797,-2.4336 -12.30441,-5.09168c-0.03087,-1.23505 1.32901,-5.05845 1.32901,-5.05845c0,0 7.13237,0.44195 10.73486,0.52441c6.72911,0.15398 12.55149,0.8677 12.55149,0.8677z" fill="#989898" stroke-width="1"></path><path d="M313.4608,157.34138c0.06643,2.65807 -5.33475,4.68805 -12.06387,4.53407c-6.7291,-0.15399 -12.23797,-2.4336 -12.3044,-5.09166c-0.06643,-2.65807 5.33475,-4.68805 12.06386,-4.53406c6.7291,0.15399 12.23797,2.43361 12.3044,5.09166z" fill="#989898" stroke-width="1"></path><path d="M298.0507,157.76018l6.32273,-85.27068l4.92374,11.99078l-5.46541,73.70855c0,0 -1.77124,1.40467 -2.72322,1.33407c-0.9745,-0.07227 -3.05785,-1.76273 -3.05785,-1.76273z" fill="#e6e6e6" stroke-width="0.5"></path></g><g stroke="#000000" stroke-linecap="butt"><path d="M317.25338,168.90664l-10.22947,15.53262c0,0 -3.50754,1.30851 -4.41448,0.71121c-0.90857,-0.59836 -1.03201,-4.29816 -1.03201,-4.29816l10.22947,-15.53262z" fill="#af5400" stroke-width="1.5"></path><path d="M326.1787,170.29457c0,0 -1.16859,4.85716 -4.0383,5.48938c-3.36178,0.74062 -7.94462,-2.33822 -11.02061,-4.26794c-5.70175,-3.57696 -9.26713,-8.35528 -7.96351,-10.67268c0.60571,-1.07676 3.73113,-3.66508 3.73113,-3.66508c0,0 5.90075,4.03077 8.95322,5.94575c5.70175,3.57696 10.33805,7.1706 10.33805,7.1706z" fill="#989898" stroke-width="1"></path><path d="M326.62557,170.35525c-1.30362,2.31739 -6.98262,1.29632 -12.68437,-2.28065c-5.70174,-3.57696 -9.26713,-8.35528 -7.96351,-10.67266c1.30362,-2.31739 6.98262,-1.29632 12.68436,2.28065c5.70174,3.57696 9.26712,8.35529 7.96351,10.67266z" fill="#989898" stroke-width="1"></path><path d="M313.17329,162.82646l49.08224,-70.01428l-1.90849,12.82107l-42.42702,60.52082c0,0 -2.24063,0.29995 -3.02228,-0.24802c-0.80014,-0.56094 -1.72446,-3.07959 -1.72446,-3.07959z" fill="#e6e6e6" stroke-width="0.5"></path></g></g></g></svg>