<svg version="1.1" xmlns="http://www.w3.org/2000/svg" xmlns:xlink="http://www.w3.org/1999/xlink" width="152.49477" height="207.38632" viewBox="0,0,152.49477,207.38632"><defs><linearGradient x1="226.34051" y1="142.89979" x2="253.90634" y2="216.93445" gradientUnits="userSpaceOnUse" id="color-1"><stop offset="0" stop-color="#1fa65f"/><stop offset="1" stop-color="#44923a"/></linearGradient><linearGradient x1="234.00359" y1="157.99544" x2="240.68609" y2="187.06157" gradientUnits="userSpaceOnUse" id="color-2"><stop offset="0" stop-color="#a7a7a7"/><stop offset="1" stop-color="#464646"/></linearGradient><linearGradient x1="241.53524" y1="188.45089" x2="245.46418" y2="203.73336" gradientUnits="userSpaceOnUse" id="color-3"><stop offset="0" stop-color="#00f551"/><stop offset="1" stop-color="#5e6500"/></linearGradient><linearGradient x1="230.04164" y1="152.08269" x2="232.25912" y2="161.99255" gradientUnits="userSpaceOnUse" id="color-4"><stop offset="0" stop-color="#1cff00"/><stop offset="1" stop-color="#57d000"/></linearGradient><linearGradient x1="208.62346" y1="178.99387" x2="269.8846" y2="164.90951" gradientUnits="userSpaceOnUse" id="color-5"><stop offset="0" stop-color="#bababa" stop-opacity="0"/><stop offset="1" stop-color="#bababa"/></linearGradient><linearGradient x1="208.77026" y1="178.81182" x2="270.03138" y2="164.72746" gradientUnits="userSpaceOnUse" id="color-6"><stop offset="0" stop-color="#cfcfcf" stop-opacity="0"/><stop offset="1" stop-color="#cfcfcf"/></linearGradient><linearGradient x1="208.64607" y1="178.91669" x2="269.9072" y2="164.83234" gradientUnits="userSpaceOnUse" id="color-7"><stop offset="0" stop-color="#f5f5f5" stop-opacity="0"/><stop offset="1" stop-color="#f5f5f5"/></linearGradient><linearGradient x1="208.64607" y1="178.91669" x2="269.9072" y2="164.83234" gradientUnits="userSpaceOnUse" id="color-8"><stop offset="0" stop-color="#f5f5f5" stop-opacity="0"/><stop offset="1" stop-color="#f5f5f5"/></linearGradient><linearGradient x1="204.15328" y1="99.91805" x2="208.19055" y2="126.63008" gradientUnits="userSpaceOnUse" id="color-9"><stop offset="0" stop-color="#1fa65f"/><stop offset="1" stop-color="#44923a"/></linearGradient></defs><g transform="translate(-133.93779,-12.79154)"><g stroke-miterlimit="10"><path d="" fill="none" stroke="#000000" stroke-width="1.5" stroke-linecap="round"/><path d="" fill="none" stroke="#000000" stroke-width="1.5" stroke-linecap="round"/><path d="" fill="none" stroke="#000000" stroke-width="1.5" stroke-linecap="round"/><path d="M203.10611,193.70004c-7.61208,-20.44411 2.7903,-43.18813 23.23441,-50.80022c20.44411,-7.61208 43.18813,2.7903 50.80022,23.23441c7.61208,20.44411 -2.7903,43.18813 -23.23441,50.80022c-20.44411,7.61208 -43.18813,-2.7903 -50.80022,-23.23441z" fill="url(#color-1)" stroke="#000000" stroke-width="1.5" stroke-linecap="butt"/><path d="" fill="none" stroke="#000000" stroke-width="1.5" stroke-linecap="round"/><path d="" fill="none" stroke="#000000" stroke-width="1.5" stroke-linecap="round"/><path d="M204.12761,181.75405c0,0 0.04383,-6.16084 0.37008,-8.91961c0.31724,-2.68259 3.02713,-7.58073 3.02713,-7.58073l25.04071,1.26648l26.32382,-14.24613c0,0 5.28894,0.45631 6.98502,2.742c0.90956,1.22574 3.73538,4.14988 4.35906,6.85743c0.53932,2.34134 -0.461,6.46065 -0.461,6.46065l-28.50175,18.59306l-6.08873,-8.2993l-1.48589,9.53908z" fill="url(#color-2)" stroke="#000000" stroke-width="1.5" stroke-linecap="round"/><g stroke="#000000" stroke-linecap="butt"><path d="M268.81825,201.88676l-18.09973,3.5899l-9.14003,1.81283l-12.28406,2.43642l-9.1343,1.8117l-9.77187,1.93815l-2.67541,0.53065l-8.90975,-19.84647l5.45118,-0.71077l14.71886,-1.9192l7.73623,-1.00874l13.46962,-1.75632l11.6423,-1.51805l14.5262,-1.89409l17.98815,-2.3455l1.66017,15.47254z" fill="#727272" stroke-width="0.8"/><path d="M266.09491,199.35576l-16.51802,3.30644l-8.3413,1.66968l-11.21056,2.24404l-8.33605,1.66863l-8.91793,1.78513l-2.44159,0.48873l-7.11056,-14.13615l4.95729,-0.72565l13.38541,-1.95938l7.03535,-1.02986l12.24934,-1.79309l10.58754,-1.54982l13.21016,-1.93374l16.35851,-2.3946l0.76893,11.22169z" fill="url(#color-3)" stroke-width="0.8"/><path d="M268.81824,201.88679l-18.09973,3.5899l1.1028,-18.22983l14.52619,-1.89408z" fill="#727272" stroke-width="0.8"/><path d="M241.5785,207.28951l-12.28406,2.43642l-2.58506,-19.20471l13.46962,-1.75632z" fill="#727272" stroke-width="0.8"/><path d="M222.70584,211.08689l-9.77187,1.93815l-6.13399,-20.02661l14.71887,-1.9192z" fill="#727272" stroke-width="0.5"/></g><path d="M238.57224,139.27223c0,0 -3.33104,4.10788 -1.50302,4.67214c5.28994,1.63284 17.66667,3.99956 14.45769,5.87198c-5.17031,3.01683 -19.97563,12.33462 -19.97563,12.33462c0,0 -19.78905,-0.69359 -23.24635,-4.37859c-2.21162,-2.3573 7.08993,-6.44759 10.03326,-9.84772c1.3881,-1.60354 -2.57552,-4.29172 -2.57552,-4.29172" fill="none" stroke="url(#color-4)" stroke-width="6" stroke-linecap="round"/><path d="M216.55721,175.44587l-1.33034,-5.78643l2.17507,0.82787l1.04037,4.52518z" fill="#1cff00" stroke="#1cff00" stroke-width="1" stroke-linecap="butt"/><path d="M219.93483,174.95675l-0.92096,-4.00583l2.20919,0.97625l0.59688,2.59619z" fill="#1cff00" stroke="#1cff00" stroke-width="1" stroke-linecap="butt"/><path d="M217.88633,181.10496l-0.92096,-4.00582l1.8851,-0.4334l0.92096,4.00582z" fill="#1cff00" stroke="#1cff00" stroke-width="1" stroke-linecap="butt"/><path d="M221.21276,180.39326l-0.92096,-4.00582l1.8851,-0.4334l0.92096,4.00582z" fill="#1cff00" stroke="#1cff00" stroke-width="1" stroke-linecap="butt"/><path d="M232.75036,167.41022l26.16515,-13.94272c0,0 4.82667,0.41643 6.37451,2.50234c0.83006,1.1186 3.4089,3.78716 3.97806,6.25808c0.49218,2.13671 -0.42072,5.89597 -0.42072,5.89597l-27.27479,17.8202l-6.5645,-9.02691z" fill="url(#color-5)" stroke="none" stroke-width="0" stroke-linecap="round"/><path d="M232.89715,167.22818l26.16514,-13.94273c0,0 4.82668,0.41642 6.37452,2.50234c0.83006,1.1186 3.4089,3.78716 3.97806,6.25808c0.49218,2.13671 -0.42072,5.89597 -0.42072,5.89597l-27.27479,17.8202l-6.80417,-8.40305l-1.70481,9.48218l-25.1365,-20.55498z" fill="url(#color-6)" stroke="none" stroke-width="0" stroke-linecap="round"/><path d="M232.77295,167.333l26.16515,-13.94272c0,0 4.82668,0.41642 6.37452,2.50234c0.83006,1.1186 3.4089,3.78716 3.97806,6.25808c0.49218,2.13671 -0.42072,5.89598 -0.42072,5.89598l-27.2748,17.8202l-6.80417,-8.40305l-1.70481,9.48218l-27.52005,-5.75715c0,0 -0.67595,-6.02668 -0.25459,-8.64255c0.36507,-2.26647 2.63814,-6.15527 2.63814,-6.15527z" fill="url(#color-7)" stroke="none" stroke-width="0" stroke-linecap="round"/><path d="M232.77295,167.333l26.16515,-13.94272c0,0 4.82668,0.41642 6.37452,2.50234c0.83006,1.1186 3.4089,3.78716 3.97806,6.25808c0.49218,2.13671 -0.42072,5.89598 -0.42072,5.89598l-27.2748,17.8202l-6.80417,-8.40305l-1.70481,9.48218l-27.52005,-5.75715c0,0 -0.67595,-6.02668 -0.25459,-8.64255c0.36507,-2.26647 2.63814,-6.15527 2.63814,-6.15527z" fill="url(#color-8)" stroke="none" stroke-width="0" stroke-linecap="round"/><path d="" fill="none" stroke="#000000" stroke-width="1.5" stroke-linecap="round"/><path d="" fill="none" stroke="#000000" stroke-width="1.5" stroke-linecap="round"/><path d="" fill="none" stroke="#000000" stroke-width="1.5" stroke-linecap="round"/><g stroke-linecap="round"><path d="M205.86894,95.7581l11.61723,-3.93009l-7.01905,4.75492l23.08611,-2.67848l-18.56209,6.09416l9.5048,1.33024l-15.5314,1.27953l0.27131,19.55187l-11.33205,-16.47744l-13.34708,6.28018l6.71761,-5.83942l-18.42761,3.7202l18.01947,-8.04625l-7.66831,-0.43875l13.08508,-2.93615l-7.41625,-34.23211l3.28344,6.09708l-2.93331,-14.83976l5.88284,14.01989l-0.70262,-6.81443z" fill="#ffeaea" stroke="#ff1f1f" stroke-width="9"/><path d="M205.4368,96.29429l11.61723,-3.93009l-7.01906,4.75491l23.08611,-2.67847l-18.56209,6.09416l9.50479,1.33024l-15.5314,1.27953l0.27131,19.55187l-11.33205,-16.47745l-13.34708,6.28019l6.71761,-5.83942l-18.42761,3.7202l18.01948,-8.04625l-7.66831,-0.43875l13.08508,-2.93614l-7.41625,-34.23211l3.28343,6.09707l-2.93331,-14.83976l5.88284,14.01989l-0.70262,-6.81443z" fill="#ffeaea" stroke="#ff6c6c" stroke-width="6.5"/><path d="M205.00468,96.83048l11.61723,-3.93008l-7.01905,4.75491l23.08611,-2.67847l-18.56209,6.09416l9.50479,1.33023l-15.5314,1.27953l0.27132,19.55188l-11.33205,-16.47745l-13.34709,6.2802l6.7176,-5.83943l-18.42761,3.7202l18.01947,-8.04624l-7.66831,-0.43874l13.08508,-2.93616l-7.41625,-34.23211l3.28344,6.09708l-2.93331,-14.83976l5.88283,14.0199l-0.70262,-6.81443z" fill="#ffeaea" stroke="#ff8484" stroke-width="5"/><path d="M206.01568,98.4144l11.61723,-3.93009l-7.01905,4.75491l23.08612,-2.67845l-18.56208,6.09412l9.5048,1.33024l-15.53142,1.27958l0.27132,19.55188l-11.33205,-16.47745l-13.34708,6.28018l6.71759,-5.83943l-18.42761,3.7202l18.01948,-8.04625l-7.66831,-0.43874l13.08508,-2.93614l-7.41624,-34.23212l3.28344,6.09708l-2.93331,-14.83976l5.88284,14.01989l-0.70262,-6.81443z" fill="#ffeaea" stroke="#ffa4a4" stroke-width="3.5"/><path d="M206.71102,98.86272l11.61723,-3.93009l-7.01905,4.75492l23.08612,-2.67845l-18.56211,6.09413l9.5048,1.33024l-15.53142,1.27957l0.27132,19.55188l-11.33205,-16.47745l-13.34709,6.28019l6.71762,-5.83942l-18.42761,3.7202l18.01947,-8.04624l-7.66831,-0.43875l13.08508,-2.93615l-7.41625,-34.23212l3.28344,6.09708l-2.93331,-14.83976l5.88283,14.0199l-0.70262,-6.81443z" fill="#ffeaea" stroke="#ffcdcd" stroke-width="2"/><path d="M206.92383,99.44516l11.61723,-3.93009l-7.01905,4.75492l23.08611,-2.67847l-18.56211,6.09413l9.5048,1.33025l-15.53142,1.27955l0.27134,19.55188l-11.33209,-16.47743l-13.34708,6.28018l6.71761,-5.83941l-18.42761,3.7202l18.01947,-8.04625l-7.66831,-0.43876l13.08505,-2.93614l-7.41625,-34.23212l3.28345,6.09708l-2.9333,-14.83976l5.88283,14.0199l-0.70259,-6.81445z" fill="#ffffff" stroke="#ffffff" stroke-width="0.5"/></g><path d="M192.81591,115.29271c-1.11486,-7.37632 3.96105,-14.25977 11.33736,-15.37464c7.37632,-1.11486 14.25977,3.96105 15.37464,11.33736c1.11486,7.37632 -3.96105,14.25977 -11.33736,15.37464c-7.37632,1.11486 -14.25977,-3.96105 -15.37464,-11.33736z" fill="url(#color-9)" stroke="#000000" stroke-width="1.5" stroke-linecap="butt"/></g></g></svg>