<svg version="1.1" xmlns="http://www.w3.org/2000/svg" xmlns:xlink="http://www.w3.org/1999/xlink" width="683.7934" height="459.17857" viewBox="0,0,683.7934,459.17857"><defs><linearGradient x1="261.88608" y1="-15.53177" x2="261.88608" y2="443.6468" gradientUnits="userSpaceOnUse" id="color-1"><stop offset="0" stop-color="#fffffe"></stop><stop offset="1" stop-color="#fffffe" stop-opacity="0"></stop></linearGradient></defs><g transform="translate(80.01062,15.53177)"><g data-paper-data="{&quot;isPaintingLayer&quot;:true}" fill-rule="nonzero" stroke-linejoin="miter" stroke-miterlimit="10" stroke-dasharray="" stroke-dashoffset="0" style="mix-blend-mode: normal"><path d="M-80.01062,429.7056l246.17309,-445.23737h107.22473l330.39558,459.17857z" data-paper-data="{&quot;index&quot;:null}" fill="url(#color-1)" stroke="none" stroke-width="0" stroke-linecap="round"></path><g stroke-linecap="butt"><path d="M239.7385,280.91295c-39.35029,0 -71.25,-31.89971 -71.25,-71.25c0,-39.35029 31.89971,-71.25 71.25,-71.25c39.35029,0 71.25,31.89971 71.25,71.25c0,39.35029 -31.89971,71.25 -71.25,71.25z" data-paper-data="{&quot;index&quot;:null}" fill="#000000" stroke="#000000" stroke-width="1.5"></path><g data-paper-data="{&quot;index&quot;:null}" stroke="none" stroke-width="0"><path d="M267.71402,191.78822c13.44398,0 24.34245,9.27332 24.34245,9.27332c0,0 -10.89849,9.27332 -24.34245,9.27332c-13.44398,0 -24.34245,-9.27332 -24.34245,-9.27332c0,0 10.89849,-9.27332 24.34245,-9.27332z" fill="#ffffff"></path><path d="M268.87316,210.33487c-5.12153,0 -9.27332,-4.15182 -9.27332,-9.27332c0,-5.12153 4.15182,-9.27332 9.27332,-9.27332c5.12153,0 9.27332,4.15182 9.27332,9.27332c0,5.12153 -4.15182,9.27332 -9.27332,9.27332z" fill="#000000"></path></g><g data-paper-data="{&quot;index&quot;:null}" stroke="none" stroke-width="0"><path d="M213.54974,191.99754c13.44398,0 24.34245,9.27332 24.34245,9.27332c0,0 -10.89849,9.27332 -24.34245,9.27332c-13.44398,0 -24.34245,-9.27332 -24.34245,-9.27332c0,0 10.89849,-9.27332 24.34245,-9.27332z" fill="#ffffff"></path><path d="M214.70891,210.54419c-5.12153,0 -9.27332,-4.15182 -9.27332,-9.27332c0,-5.12149 4.15182,-9.27332 9.27332,-9.27332c5.12153,0 9.27332,4.15182 9.27332,9.27332c0,5.12153 -4.15182,9.27332 -9.27332,9.27332z" fill="#000000"></path></g></g></g></g></svg>