<svg version="1.1" xmlns="http://www.w3.org/2000/svg" xmlns:xlink="http://www.w3.org/1999/xlink" width="151.93065" height="151.93064" viewBox="0,0,151.93065,151.93064"><g transform="translate(-164.03468,-104.03468)"><g data-paper-data="{&quot;isPaintingLayer&quot;:true}" fill="#ae00ff" fill-rule="nonzero" stroke="none" stroke-width="0" stroke-linecap="butt" stroke-linejoin="miter" stroke-miterlimit="10" stroke-dasharray="" stroke-dashoffset="0" style="mix-blend-mode: normal"><path d="M237.0986,181.90229c-24.8397,-26.70137 -52.03921,-56.22646 -51.43023,-56.83545c0.74296,-0.74296 30.05545,26.62762 56.54758,51.66147c22.07358,20.85852 52.55218,54.10114 52.55218,54.10114c0,0 -42.77476,-32.91606 -57.66953,-48.92717z"></path><path d="M185.4451,232.8887c0,0 30.4786,-33.24262 52.55218,-54.10114c26.49213,-25.03386 55.80462,-52.40443 56.54759,-51.66147c0.60898,0.60898 -26.59053,30.13408 -51.43023,56.83545c-14.89478,16.0111 -57.66953,48.92717 -57.66953,48.92717z" data-paper-data="{&quot;index&quot;:null}"></path><path d="M236.61206,180.59007c1.3164,-36.44504 2.96083,-76.55539 3.82207,-76.55539c1.0507,0 2.42384,40.08098 3.455,76.51535c0.85918,30.35758 -1.09528,75.41529 -1.09528,75.41529c0,0 -6.97115,-53.52149 -6.18179,-75.37525z"></path><path d="M164.03468,180.11838c0,0 45.05771,-1.95446 75.41529,-1.09528c36.43437,1.03116 76.51535,2.4043 76.51536,3.455c0,0.86124 -40.11035,2.50567 -76.55539,3.82207c-21.85376,0.78936 -75.37525,-6.18179 -75.37525,-6.18179z" data-paper-data="{&quot;index&quot;:null}"></path></g></g></svg>