<svg version="1.1" xmlns="http://www.w3.org/2000/svg" xmlns:xlink="http://www.w3.org/1999/xlink" width="196.33558" height="84.68396" viewBox="0,0,196.33558,84.68396"><g transform="translate(-83.91444,-139.75)"><g data-paper-data="{&quot;isPaintingLayer&quot;:true}" fill-rule="nonzero" stroke-linejoin="miter" stroke-miterlimit="10" stroke-dasharray="" stroke-dashoffset="0" style="mix-blend-mode: normal"><path d="" data-paper-data="{&quot;index&quot;:null}" fill="none" stroke="#000000" stroke-width="1.5" stroke-linecap="round"></path><path d="" data-paper-data="{&quot;index&quot;:null}" fill="none" stroke="#000000" stroke-width="1.5" stroke-linecap="round"></path><path d="M200.50002,180c0,-21.81525 17.68475,-39.5 39.5,-39.5c21.81525,0 39.5,17.68475 39.5,39.5c0,21.81525 -17.68475,39.5 -39.5,39.5c-21.81525,0 -39.5,-17.68475 -39.5,-39.5z" fill="#6e6e6e" stroke="#000000" stroke-width="1.5" stroke-linecap="butt"></path><path d="M200.35573,181.6599c0,0 0.21836,-3.48635 0.21836,-5.83045c0,-2.68059 2.28148,-9.37942 2.28148,-9.37942c0,0 25.76053,3.29547 38.0247,3.29547c12.45976,0 36.15636,-3.29547 36.15636,-3.29547c0,0 0.32325,0.8142 0.73295,2.06366c1.27619,3.89191 3.39127,12.00691 -0.81086,12.89272c-2.60416,0.54896 -18.81959,2.66663 -35.57172,2.60715c-18.95763,-0.06731 -38.53144,-2.35365 -38.53144,-2.35365z" fill="#d0d0d0" stroke="#000000" stroke-width="0" stroke-linecap="butt"></path><path d="M235.39592,179.60722l-13.87412,-12.6255" fill="none" stroke="#000000" stroke-width="1.5" stroke-linecap="round"></path><path d="M228.96586,174.81546l-0.2535,3.54897" fill="none" stroke="#000000" stroke-width="1.5" stroke-linecap="round"></path><path d="M258.3434,168.56564l-12.11149,9.20415" fill="none" stroke="#000000" stroke-width="1.5" stroke-linecap="round"></path><path d="M251.52718,174.05496v5.06996" fill="none" stroke="#000000" stroke-width="1.5" stroke-linecap="round"></path><path d="M83.91444,165.95892z" fill="#e6e6e6" stroke="#000000" stroke-width="1" stroke-linecap="butt"></path><path d="M219.6063,187.24211c5.24364,0.39409 9.17498,4.96438 8.78088,10.20801c-0.39409,5.24364 -4.96438,9.17498 -10.20801,8.78088c-5.24364,-0.39409 -9.17498,-4.96438 -8.78088,-10.20801c0.39409,-5.24364 4.96438,-9.17498 10.20801,-8.78088z" fill="#e6e6e6" stroke="#000000" stroke-width="1" stroke-linecap="butt"></path><g stroke-linecap="butt"><path d="M204.51546,201.6545l35.26678,-8.37559l4.33219,18.24143l-35.26678,8.37559z" fill="#454545" stroke="#000000" stroke-width="1"></path><path d="M223.382,204.79861c1.20475,-0.78907 2.17003,-0.42957 2.77195,0.01706c0.91247,-1.44257 2.02014,-2.72383 3.34271,-3.61476c3.17509,-2.13887 7.57107,-2.09116 11.18524,-2.35613c0,0 2.49347,-0.1804 2.67389,2.31307c0.1804,2.49347 -2.31307,2.67389 -2.31307,2.67389c-5.15227,0.36752 -9.0559,0.2298 -11.49946,5.28827c-0.06603,0.13669 -0.13032,0.27426 -0.19294,0.41258c0.12138,0.23761 0.23671,0.47892 0.34493,0.72531c0.49763,0.58421 0.9557,1.18125 1.36876,1.77637c2.04836,2.95121 5.36044,7.6145 1.89725,11.54652c-1.21786,1.38273 -3.78384,0.80796 -5.52406,0.20237c-0.26703,-0.09294 -0.52329,-0.2184 -0.76865,-0.37159c-2.51389,1.24001 -5.70858,0.6929 -7.87951,-2.08542c-2.33921,-2.99365 -1.22883,-7.7862 -0.22671,-10.88075l0.63562,-1.21836c-0.13868,-0.00047 -0.27858,0.00405 -0.41969,0.01375c-0.70527,0.04855 -4.64719,1.01533 -5.3316,1.17804c-0.86095,0.20446 -1.72191,0.40894 -2.58288,0.61341c-0.06449,0.61993 -0.38802,1.30126 -1.31394,1.8044c-2.19662,1.19367 -3.39029,-1.00296 -3.39029,-1.00296l0.85768,-5.027c1.75803,-0.41753 3.51608,-0.83504 5.2741,-1.25257c1.32862,-0.31525 5.21299,-1.28793 6.36318,-1.3118c1.48791,-0.03088 2.94154,0.29426 4.32126,0.86827c0.11807,-0.10712 0.25284,-0.21149 0.40625,-0.31197zM222.89266,218.46953c0.12349,0.26314 0.38616,0.48153 0.68576,0.59542c-0.54331,-1.40487 -0.85805,-2.82345 -0.93686,-3.81824c-0.03269,-0.41243 -0.01185,-0.82365 0.04407,-1.23314c-0.35969,1.46988 -0.46365,3.02664 0.20705,4.45595z" fill="#ff0000" stroke="none" stroke-width="0.5"></path></g></g></g></svg>