<svg version="1.1" xmlns="http://www.w3.org/2000/svg" xmlns:xlink="http://www.w3.org/1999/xlink" width="504.34837" height="305.34527" viewBox="0,0,504.34837,305.34527"><g transform="translate(11.79226,-10.27474)"><g data-paper-data="{&quot;isPaintingLayer&quot;:true}" fill-rule="nonzero" stroke-linejoin="miter" stroke-miterlimit="10" stroke-dasharray="" stroke-dashoffset="0" style="mix-blend-mode: normal"><path d="" data-paper-data="{&quot;index&quot;:null}" fill="none" stroke="#000000" stroke-width="1.5" stroke-linecap="round"></path><path d="" data-paper-data="{&quot;index&quot;:null}" fill="none" stroke="#000000" stroke-width="1.5" stroke-linecap="round"></path><path d="" data-paper-data="{&quot;index&quot;:null}" fill="none" stroke="#000000" stroke-width="1.5" stroke-linecap="round"></path><path d="" data-paper-data="{&quot;index&quot;:null}" fill="none" stroke="#000000" stroke-width="1.5" stroke-linecap="round"></path><path d="" data-paper-data="{&quot;index&quot;:null}" fill="none" stroke="#000000" stroke-width="1.5" stroke-linecap="round"></path><path d="M319.09515,206.33008" data-paper-data="{&quot;index&quot;:null}" fill="none" stroke="#d8d8d8" stroke-width="4" stroke-linecap="round"></path><path d="M289.92393,195.47557" data-paper-data="{&quot;index&quot;:null}" fill="none" stroke="#d8d8d8" stroke-width="4" stroke-linecap="round"></path><path d="M289.92393,195.47557" data-paper-data="{&quot;index&quot;:null}" fill="none" stroke="#d8d8d8" stroke-width="4" stroke-linecap="round"></path><path d="M246.59617,255.87341" data-paper-data="{&quot;index&quot;:null}" fill="none" stroke="#d8d8d8" stroke-width="4" stroke-linecap="round"></path><path d="M197.40988,237.57135" data-paper-data="{&quot;index&quot;:null}" fill="none" stroke="#d8d8d8" stroke-width="4" stroke-linecap="round"></path><path d="M197.40988,237.57135" data-paper-data="{&quot;index&quot;:null}" fill="none" stroke="#d8d8d8" stroke-width="4" stroke-linecap="round"></path><path d="M17.53095,197.44788c-5.73891,0 -10.39121,-4.65231 -10.39121,-10.39121c0,-5.73891 4.65231,-10.39121 10.39121,-10.39121c5.73891,0 10.39121,4.65231 10.39121,10.39121c0,5.73891 -4.65231,10.39121 -10.39121,10.39121z" fill="#d8d8d8" stroke="#000000" stroke-width="1.5" stroke-linecap="butt"></path><path d="M113.23186,278.07954c-36.78325,0 -66.60193,-29.8187 -66.60193,-66.60193c0,-36.78325 29.8187,-66.60193 66.60193,-66.60193c36.78325,0 66.60193,29.8187 66.60193,66.60193c0,36.78325 -29.8187,66.60193 -66.60193,66.60193z" fill="#d8d8d8" stroke="#000000" stroke-width="1.5" stroke-linecap="butt"></path><g><path d="M60.54213,262.10342l0.12297,-88.15508l45.03701,-27.47764l31.52964,-1.26749l42.57045,23.46838l1.84154,109.08039l-51.05199,-14.57522l-1.30975,-39.51567l-10.35233,-4.99585l-7.98967,4.5513l0.91476,37.65828l-51.72634,15.19151z" fill="#c3c3c3" stroke="#000000" stroke-width="2" stroke-linecap="round"></path><path d="M68.06985,208.9757l-0.41194,-19.21956l44.72123,5.19454l0.44488,20.75714z" fill="#c20000" stroke="none" stroke-width="0" stroke-linecap="butt"></path><path d="M130.54814,215.73118l-0.47402,-20.75647l44.44756,-7.16836l0.43891,19.21896z" data-paper-data="{&quot;index&quot;:null}" fill="#c20000" stroke="none" stroke-width="0" stroke-linecap="butt"></path></g><g stroke="#000000" stroke-linecap="butt"><path d="M424.71442,315.62001c0,0 -3.34835,-5.1174 -6.50995,-5.58606c-1.85549,-0.27505 4.1151,-14.07583 0.82742,-15.65301c-7.74166,-3.71385 -26.08026,3.17273 -26.08026,3.17273l2.03078,-13.69973c0,0 29.45892,-3.02247 40.51495,8.78996c2.13685,2.283 -5.37928,17.80818 -5.37928,17.80818z" data-paper-data="{&quot;index&quot;:null}" fill="#a7a7a7" stroke-width="0"></path><path d="M397.53281,269.55586c0,0 0.84408,12.93566 3.8761,13.38512c4.68537,0.69452 18.39247,2.72641 24.07352,3.56856c-1.15062,1.89472 -1.94426,4.04888 -2.27483,6.3827c-0.35825,2.52929 -0.13545,5.00696 0.56695,7.29786c-6.92051,0.40618 -27.80264,0.78104 -36.5828,-8.59973c-2.04928,-2.18944 5.15882,-17.07831 5.15882,-17.07831l5.18226,-4.95616z" fill="#919191" stroke-width="1"></path><path d="M423.01623,287.69957l64.83464,11.15149c0,0 4.67601,1.71939 4.4471,3.33569c-0.25735,1.8166 -4.85287,3.0023 -4.85287,3.0023l-65.89758,-7.12044z" fill="#d2d2d2" stroke-width="0.5"></path></g><g><path d="M25.11016,87.71649l10.12476,-56.70678c0,0 21.44894,13.58204 35.25226,16.04656c8.12082,1.44993 22.72576,-4.88966 35.96267,-4.45576c19.11188,0.62647 36.46044,7.6342 36.46044,7.6342l-10.12476,56.70678c0,0 -14.82742,-8.31275 -33.08336,-9.12308c-15.21612,-0.6754 -33.33559,6.32007 -42.36301,4.70826c-13.65925,-2.4388 -32.229,-14.81017 -32.229,-14.81017z" fill="#139c0e" stroke="#000000" stroke-width="0.5" stroke-linecap="butt"></path><path d="M11.18666,214.98658l-14.85447,17.88978l-7.7457,-21.92495z" fill="#ffee00" stroke="#000000" stroke-width="0.5" stroke-linecap="round"></path><path d="M-3.56722,212.10001l32.36309,-181.25918l7.76345,1.38612l-32.36309,181.25918z" fill="#d3d3d3" stroke="#000000" stroke-width="0.5" stroke-linecap="butt"></path><path d="M24.53951,67.98494c-0.02169,-0.0398 -0.04503,-0.08431 -0.06929,-0.13315c-0.0343,0.03292 -0.06848,0.06585 -0.10252,0.09877c0.05891,0.01492 0.11705,0.03148 0.17436,0.04963c-0.00084,-0.00509 -0.00167,-0.01017 -0.00251,-0.01524zM29.73652,64.68478l0.60278,1.29449c0.66607,0.39101 1.26904,1.10633 1.35477,2.41163c0.04252,0.64737 -0.06007,1.16752 -0.2486,1.58533c1.65838,4.72279 3.49798,9.38122 4.62627,14.11239c0.26014,0.65829 0.42789,1.33533 0.43869,2.0392c0.05946,0.31205 0.11531,0.6245 0.16729,0.93739l0.13594,0.22802l0.95719,-0.26247l1.04205,3.80025c0.13288,0.4465 0.16626,0.92996 0.0788,1.41981c-0.23458,1.31382 -1.26882,2.28377 -2.51219,2.49821c-0.02276,0.42919 -0.05658,0.85945 -0.10221,1.29096l0.93878,0.06207l-0.20192,3.05342c-0.0067,0.12698 -0.02133,0.25493 -0.04425,0.38332c-0.29941,1.67691 -1.90151,2.79359 -3.57843,2.49418c-0.45399,-0.08107 -0.86688,-0.25759 -1.22178,-0.50523c2.6209,5.06278 4.42619,10.49636 -0.12057,13.40579c-1.85959,1.18994 -4.43121,-0.89573 -6.28136,-2.10029c-2.52865,-1.64629 -4.76679,-7.18162 -5.42322,-12.15381c-3.96046,6.34496 -9.53445,12.87679 -16.6967,8.18277c-0.85459,-0.56009 -0.86694,-1.58115 -0.5703,-2.71285c-0.32351,-0.59402 -0.45473,-1.29796 -0.3266,-2.01562c0.04591,-0.25709 0.12241,-0.50102 0.22515,-0.72871l2.39129,-5.61314l0.12205,0.05199l0.09435,-0.46879c0.46705,-0.55207 0.9323,-1.11065 1.39648,-1.67417c-0.1532,-0.0041 -0.30798,-0.0197 -0.46343,-0.04746c-1.67691,-0.29941 -2.79359,-1.90151 -2.49418,-3.57843c0.08624,-0.48304 0.28059,-0.91959 0.55364,-1.28919l1.92143,-2.72322c0.53498,-0.75821 1.17951,-1.772 1.91946,-2.90171c-2.32841,-8.31997 9.60308,-20.13809 15.11189,-24.69359c0,0 2.38168,-1.95974 4.34144,0.42191c0.85161,1.03495 0.88343,1.99024 0.64711,2.73967c0.76986,0.41177 1.21883,1.05588 1.21883,1.05588z" fill="#606060" stroke="none" stroke-width="0.5" stroke-linecap="butt"></path><path d="M89.10785,92.65769l-24.89992,-35.72407l10.40779,-7.2543l24.89992,35.72407z" fill="#b8b8b8" stroke="none" stroke-width="0" stroke-linecap="butt"></path><path d="M27.75687,30.54519l7.93489,-19.12525l0.82614,20.6895z" data-paper-data="{&quot;index&quot;:null}" fill="#000000" stroke="#000000" stroke-width="0.5" stroke-linecap="round"></path><path d="M60.64477,78.80504l35.72407,-24.89992l7.2543,10.40779l-35.72405,24.89991z" data-paper-data="{&quot;index&quot;:null}" fill="#b8b8b8" stroke="none" stroke-width="0" stroke-linecap="butt"></path><text transform="translate(54.97311,80.42251) rotate(10.12325) scale(0.88454,0.88454)" font-size="40" xml:space="preserve" fill="#000000" fill-rule="nonzero" stroke="none" stroke-width="1" stroke-linecap="butt" stroke-linejoin="miter" stroke-miterlimit="10" stroke-dasharray="" stroke-dashoffset="0" font-family="Pixel" font-weight="normal" text-anchor="start" style="mix-blend-mode: normal"><tspan x="0" dy="0">BB</tspan></text><path d="M38.93938,41.38778l14.26126,9.86061" fill="none" stroke="#54ff00" stroke-width="3.5" stroke-linecap="round"></path><path d="M33.40727,86.02745l18.08234,-3.73748" fill="none" stroke="#54ff00" stroke-width="3.5" stroke-linecap="round"></path><path d="M114.83785,59.11875l20.86699,-5.6784" fill="none" stroke="#54ff00" stroke-width="3.5" stroke-linecap="round"></path><path d="M127.37591,96.18744l-18.73361,-8.22102" fill="none" stroke="#54ff00" stroke-width="3.5" stroke-linecap="round"></path></g></g></g></svg>