<svg version="1.1" xmlns="http://www.w3.org/2000/svg" xmlns:xlink="http://www.w3.org/1999/xlink" width="214.0868" height="90.57508" viewBox="0,0,214.0868,90.57508"><g transform="translate(-237.5782,-134.71246)"><g data-paper-data="{&quot;isPaintingLayer&quot;:true}" fill="#c900ff" fill-rule="nonzero" stroke="none" stroke-width="0" stroke-linecap="butt" stroke-linejoin="miter" stroke-miterlimit="10" stroke-dasharray="" stroke-dashoffset="0" style="mix-blend-mode: normal"><path d="M237.5782,215.32597v-68.7397l141.16335,-11.87381v86.11695z"></path><path d="M355.53231,170.20345l-1.88883,-15.31857l92.94783,-17.34783l1.88883,15.31857z"></path><path d="M451.665,209.96895l-1.88882,15.31859l-92.94783,-17.34783l1.88882,-15.31857z" data-paper-data="{&quot;index&quot;:null}"></path><path d="M387.44335,158.37427h14.35063l-6.21861,27.66071z"></path><path d="M403.80736,156.88781h14.35063l-6.21861,27.66071z"></path><path d="M420.17137,152.15846h14.35063l-6.21861,27.66071z"></path><path d="M402.78699,176.97551l6.21861,27.66071h-14.35063z" data-paper-data="{&quot;index&quot;:null}"></path><path d="M434.44857,150.62684h14.35063l-6.21861,27.66071z"></path><path d="M419.73674,180.53357l6.21861,27.66071h-14.35063z" data-paper-data="{&quot;index&quot;:null}"></path><path d="M435.51501,182.29001l6.21861,27.66071h-14.35063z" data-paper-data="{&quot;index&quot;:null}"></path><path d="M384.7414,178.1919l6.21861,27.66071h-14.35063z" data-paper-data="{&quot;index&quot;:null}"></path></g></g></svg>