<svg version="1.1" xmlns="http://www.w3.org/2000/svg" xmlns:xlink="http://www.w3.org/1999/xlink" width="100.80682" height="98.24605" viewBox="0,0,100.80682,98.24605"><g transform="translate(-179.38854,-133.30376)"><g data-paper-data="{&quot;isPaintingLayer&quot;:true}" fill-rule="nonzero" stroke-linejoin="miter" stroke-miterlimit="10" stroke-dasharray="" stroke-dashoffset="0" style="mix-blend-mode: normal"><path d="M199.4885,186.22941c0,-21.81525 17.68475,-39.5 39.5,-39.5c21.81525,0 39.5,17.68475 39.5,39.5c0,21.81525 -17.68475,39.5 -39.5,39.5c-21.81525,0 -39.5,-17.68475 -39.5,-39.5z" fill="#008c04" stroke="none" stroke-width="0" stroke-linecap="butt"></path><path d="M230.78361,182.83067v-8" fill="#008c04" stroke="none" stroke-width="0" stroke-linecap="round"></path><path d="" data-paper-data="{&quot;index&quot;:null}" fill="none" stroke="#000000" stroke-width="1.5" stroke-linecap="round"></path><path d="M237.80575,175.09105v8" fill="#008c04" stroke="none" stroke-width="0" stroke-linecap="round"></path><g fill="#008c04" stroke="none" stroke-width="0" stroke-linecap="butt"><path d="M180.28024,219.93597v-39.20997h37.17169v39.20997c0,0 -15.19427,8.53892 -17.91362,10.06715c-0.80178,0.45059 -1.55727,0.87516 -1.55727,0.87516z"></path><path d="M196.2172,231.54981v-51.72473h4.15075v51.72473z"></path><path d="M217.70316,199.7146h-38.31462v-4.15075h38.31462z"></path></g><path d="M245.80542,201.87033c0,0 -7.6143,2.61019 -11.12848,2.99636c-3.28885,0.36141 -9.32545,-0.74868 -9.32545,-0.74868" fill="#008c04" stroke="none" stroke-width="0" stroke-linecap="round"></path><g data-paper-data="{&quot;index&quot;:null}" fill="#008c04" stroke="none" stroke-width="0"><path d="M269.04051,222.72546l-1.11712,-20.01977l7.86491,-0.43887l1.11712,20.01977z" stroke-linecap="butt"></path><path d="M280.19536,200.66908l-3.44986,2.26464l-9.0464,0.57466l-3.90088,-1.92437l3.89434,-2.42141l9.51171,-0.22347z" stroke-linecap="butt"></path><path d="M268.69796,200.00227l-5.88122,-59.94943l5.45712,-6.74908l5.75533,5.70438l1.10292,60.61805z" stroke-linecap="butt"></path><path d="M271.80776,199.05885l-2.71084,-43.69021" stroke-linecap="round"></path></g></g></g></svg>