<svg version="1.1" xmlns="http://www.w3.org/2000/svg" xmlns:xlink="http://www.w3.org/1999/xlink" width="102.06346" height="84.58043" viewBox="0,0,102.06346,84.58043"><g transform="translate(-439.75026,-139.74039)"><g stroke-miterlimit="10"><path d="" fill="none" stroke="#000000" stroke-width="1.5" stroke-linecap="round"/><g><path d="M452.78661,151.36072c15.81177,-15.02974 40.81376,-14.39576 55.84349,1.41602c15.02974,15.81177 14.39576,40.81376 -1.41602,55.84349c-15.81177,15.02974 -40.81376,14.39576 -55.84349,-1.41602c-15.02974,-15.81177 -14.39576,-40.81376 1.41602,-55.84349z" fill="#ffffff" stroke="#000000" stroke-width="1.5" stroke-linecap="butt"/><path d="M478.20252,140.86347l30.07963,64.93966" fill="none" stroke="#000000" stroke-width="1.5" stroke-linecap="round"/><path d="M511.99331,202.27555l-26.44027,-59.92185" fill="none" stroke="#000000" stroke-width="1.5" stroke-linecap="round"/><path d="M515.33256,196.2757l-24.13694,-53.63405" fill="none" stroke="#000000" stroke-width="1.5" stroke-linecap="round"/><path d="M456.85968,148.43497l29.43308,10.45254" fill="none" stroke="#000000" stroke-width="1.5" stroke-linecap="round"/><path d="M453.57914,152.11837l33.6059,11.57246" fill="none" stroke="#000000" stroke-width="1.5" stroke-linecap="round"/><path d="M462.01126,145.2336l20.40399,6.60187" fill="none" stroke="#000000" stroke-width="1.5" stroke-linecap="round"/><path d="M517.41909,171.12142l-15.08766,-4.87352" fill="none" stroke="#000000" stroke-width="1.5" stroke-linecap="round"/><path d="M516.94277,167.05299l-16.23851,-5.19243" fill="none" stroke="#000000" stroke-width="1.5" stroke-linecap="round"/><path d="M497.54695,154.97168l16.38696,5.05133" fill="none" stroke="#000000" stroke-width="1.5" stroke-linecap="round"/><path d="M473.26545,141.31776l3.30574,6.7478" fill="none" stroke="#000000" stroke-width="1.5" stroke-linecap="round"/><path d="M481.14116,162.08885l23.85312,47.68724" fill="none" stroke="#000000" stroke-width="1.5" stroke-linecap="round"/><path d="M507.31415,169.70622l9.92459,19.95383" fill="none" stroke="#000000" stroke-width="1.5" stroke-linecap="round"/><path d="M495.92552,144.64486l5.51202,11.14981" fill="none" stroke="#000000" stroke-width="1.5" stroke-linecap="round"/><path d="M501.07871,147.09342l4.24943,9.52424" fill="none" stroke="#000000" stroke-width="1.5" stroke-linecap="round"/><path d="M512.66719,169.98685l5.89864,13.0429" fill="none" stroke="#000000" stroke-width="1.5" stroke-linecap="round"/><path d="M503.50982,211.18717l-51.10355,-58.51906" fill="none" stroke="#000000" stroke-width="1.5" stroke-linecap="round"/><path d="M501.00825,212.71728l-50.57586,-56.47751" fill="none" stroke="#000000" stroke-width="1.5" stroke-linecap="round"/><path d="M495.90805,213.89175l-49.32058,-54.56239" fill="none" stroke="#000000" stroke-width="1.5" stroke-linecap="round"/><path d="M491.3282,217.39737l-46.76601,-52.46944" fill="none" stroke="#000000" stroke-width="1.5" stroke-linecap="round"/><path d="M442.02553,173.55574l44.18782,45.59522" fill="none" stroke="#000000" stroke-width="1.5" stroke-linecap="round"/><path d="M477.6826,218.50005l-36.47111,-35.69334" fill="none" stroke="#000000" stroke-width="1.5" stroke-linecap="round"/><path d="M469.31495,217.12893l-27.2993,-26.04431" fill="none" stroke="#000000" stroke-width="1.5" stroke-linecap="round"/><path d="M504.7676,211.3357l-51.40443,-58.51743l27.53226,9.61349z" fill-opacity="0.39608" fill="#15ff15" stroke="none" stroke-width="0" stroke-linecap="round"/><path d="M477.46274,168.95064c-1.96627,1.86901 -6.03791,4.6806 -6.03791,4.6806l-2.35216,-2.87284c0,0 2.96399,-3.77844 4.83045,-5.55261c1.29882,-1.23457 4.287,-3.58989 4.287,-3.58989l2.62768,0.21575l0.58799,2.91985c0,0 -2.69284,3.0107 -3.94309,4.19909z" fill-opacity="0.39608" fill="#005200" stroke="none" stroke-width="0" stroke-linecap="butt"/><path d="M484.79365,177.38877c-1.96627,1.86901 -6.03791,4.6806 -6.03791,4.6806l-2.35215,-2.87283c0,0 2.96399,-3.77845 4.83045,-5.55261c1.29882,-1.23457 3.44141,-2.7861 3.44141,-2.7861l2.12846,4.16904c0,0 -0.76004,1.17348 -2.01026,2.36187z" fill-opacity="0.39608" fill="#005200" stroke="none" stroke-width="0" stroke-linecap="butt"/></g><g stroke-linecap="butt"><path d="M539.49663,214.15363c-0.68706,-0.03633 -1.11437,-2.51642 -0.95446,-5.53941c0.15991,-3.02301 0.84651,-5.44415 1.53355,-5.40779c0.68706,0.03633 1.11437,2.51642 0.95446,5.53941c-0.15991,3.02301 -0.84651,5.44415 -1.53355,5.40779z" fill="#daffff" stroke="#000000" stroke-width="1.5"/><path d="M521.39817,202.55104l17.91362,0.94766c0,0 -0.36442,3.14746 -0.5589,4.82703c-0.12922,1.11616 0.08876,2.9051 0.27912,4.13418c0.12239,0.79009 0.23334,1.34885 0.23334,1.34885l-18.42876,-0.64221c0,0 -17.11933,10.93705 -17.51511,10.38398c-3.02614,-4.22855 0.79202,-33.83617 0.86504,-35.21645c0.02656,-0.502 17.21165,14.21698 17.21165,14.21698z" fill="#ffffff" stroke="#000000" stroke-width="1.5"/><path d="M514.75282,198.83055c-0.01957,0.04231 -0.04003,0.08229 -0.06124,0.12004c-0.02749,1.22084 -0.0761,2.44202 0.52847,3.58055c0.41624,0.78388 1.51903,1.22445 1.63052,2.10495c0.3134,2.47505 -2.64528,2.16644 -3.23136,3.96609c-0.5246,1.61089 0.74767,3.15215 0.78848,4.6168c0.03108,1.11555 -1.11955,3.29908 -1.64236,4.30359c-1.15477,2.21871 -2.53014,1.6846 -4.43055,2.82305c-1.41684,0.84876 -2.77337,2.08187 -4.16979,2.98211c-0.6589,-0.57544 -2.01327,-7.16706 -1.90126,-9.31414c0.29151,-5.58773 1.28004,-11.62047 1.57601,-17.21506c0.08614,-1.62841 -0.88017,-5.4118 0.19065,-6.76059c0.55754,-0.70229 0.82897,0.41181 1.61028,-0.02818c3.09939,2.24592 5.55117,4.26866 8.07919,7.08634c0.09788,0.01515 0.18601,0.03941 0.26533,0.07079l0.16888,0.03358c0,0 1.11445,0.51564 0.59881,1.63008z" fill="#01ff00" stroke="none" stroke-width="0.5"/></g></g></g></svg>