<svg version="1.1" xmlns="http://www.w3.org/2000/svg" xmlns:xlink="http://www.w3.org/1999/xlink" width="138.38526" height="89.5" viewBox="0,0,138.38526,89.5"><g transform="translate(35.54788,-137.91665)"><g data-paper-data="{&quot;isPaintingLayer&quot;:true}" fill-rule="nonzero" stroke="#000000" stroke-linejoin="miter" stroke-miterlimit="10" stroke-dasharray="" stroke-dashoffset="0" style="mix-blend-mode: normal"><g stroke-width="1"><path d="M25.99072,208.80493l-16.74238,0.17672l-0.06943,-6.57736l16.74238,-0.17672z" fill="#af5400" stroke-linecap="butt"></path><path d="M16.99365,202.47629c0,0 -0.59339,2.72275 -1.43006,3.84526c-0.75318,1.0105 -3.36582,2.58911 -3.36582,2.58911" fill="none" stroke-linecap="round"></path><path d="M12.76735,202.44114c0,0 2.64538,1.5231 3.41971,2.51748c0.86016,1.1046 1.51092,3.81421 1.51092,3.81421" data-paper-data="{&quot;index&quot;:null}" fill="none" stroke-linecap="round"></path><path d="M17.30835,202.07428c0,0 2.64538,1.5231 3.41971,2.51748c0.86016,1.1046 1.51092,3.81421 1.51092,3.81421" data-paper-data="{&quot;index&quot;:null}" fill="none" stroke-linecap="round"></path><path d="M22.09441,202.26297c0,0 -0.59339,2.72275 -1.43008,3.84526c-0.75318,1.0105 -3.36582,2.58911 -3.36582,2.58911" data-paper-data="{&quot;index&quot;:null}" fill="none" stroke-linecap="round"></path><path d="M8.01229,198.66772c1.01272,-0.0107 1.8661,3.05035 1.90606,6.83705c0.03997,3.78668 -0.7486,6.86508 -1.76132,6.87576c-1.01272,0.0107 -1.8661,-3.05035 -1.90606,-6.83705c-0.03997,-3.78668 0.7486,-6.86508 1.76132,-6.87576z" fill="#8f8f8f" stroke-linecap="butt"></path><path d="M7.02235,208.23356l-41.47753,0.41025c0,0 -1.08281,-1.70086 -1.0927,-2.58055c-0.01027,-0.91291 1.03209,-2.80093 1.03209,-2.80093l41.47753,-0.41025z" fill="#dddddd" stroke-linecap="butt"></path></g><path d="M14.08738,182.66665c0,-24.30053 19.69947,-44 44,-44c24.30053,0 44,19.69947 44,44c0,24.30053 -19.69947,44 -44,44c-24.30053,0 -44,-19.69947 -44,-44z" fill="#c8c8c8" stroke-width="1.5" stroke-linecap="butt"></path></g></g></svg>