<svg version="1.1" xmlns="http://www.w3.org/2000/svg" xmlns:xlink="http://www.w3.org/1999/xlink" width="96.9897" height="126.45024" viewBox="0,0,96.9897,126.45024"><defs><radialGradient cx="284.82345" cy="206.76275" r="10.40477" gradientUnits="userSpaceOnUse" id="color-1"><stop offset="0" stop-color="#ffffff"></stop><stop offset="1" stop-color="#f3fffe"></stop></radialGradient><radialGradient cx="213.13932" cy="141.42434" r="10.40476" gradientUnits="userSpaceOnUse" id="color-2"><stop offset="0" stop-color="#ffffff"></stop><stop offset="1" stop-color="#f3fffe"></stop></radialGradient></defs><g transform="translate(-198.73853,-91.97371)"><g data-paper-data="{&quot;isPaintingLayer&quot;:true}" fill-rule="nonzero" stroke-linejoin="miter" stroke-miterlimit="10" stroke-dasharray="" stroke-dashoffset="0" style="mix-blend-mode: normal"><path d="" data-paper-data="{&quot;index&quot;:null}" fill="none" stroke="#000000" stroke-width="1.5" stroke-linecap="round"></path><path d="" data-paper-data="{&quot;index&quot;:null}" fill="none" stroke="#000000" stroke-width="1.5" stroke-linecap="round"></path><path d="M199.48854,178.17395c0,-21.81525 17.68475,-39.5 39.5,-39.5c21.81525,0 39.5,17.68475 39.5,39.5c0,21.81525 -17.68475,39.5 -39.5,39.5c-21.81525,0 -39.5,-17.68475 -39.5,-39.5z" fill="#ffffff" stroke="#000000" stroke-width="1.5" stroke-linecap="butt"></path><path d="M232.79024,167.28625c0,1.80048 -0.36489,3.26006 -0.81501,3.26006c-0.45012,0 -0.81502,-1.45958 -0.81502,-3.26006c0,-1.80048 0.3649,-3.26006 0.81502,-3.26006c0.45012,0 0.81501,1.45958 0.81501,3.26006z" fill="none" stroke="#000000" stroke-width="1.5" stroke-linecap="butt"></path><path d="M239.10661,167.38813c0,1.85674 -0.3649,3.36194 -0.81502,3.36194c-0.45012,0 -0.81501,-1.5052 -0.81501,-3.36194c0,-1.85674 0.36489,-3.36193 0.81501,-3.36193c0.45012,0 0.81502,1.50519 0.81502,3.36193z" fill="none" stroke="#000000" stroke-width="1.5" stroke-linecap="butt"></path><path d="M243.51684,192.16254c0,0 -5.0993,0.9633 -8.57383,1.0335c-3.23174,0.06529 -8.54149,-1.84852 -8.54149,-1.84852" fill="none" stroke="#000000" stroke-width="1.5" stroke-linecap="round"></path><path d="M238.01549,180.95607c0,1.91302 -1.7369,3.46381 -3.87947,3.46381c-2.14257,0 -3.87948,-1.5508 -3.87948,-3.46381c0,-1.91302 1.7369,-3.46382 3.87948,-3.46382c2.14257,0 3.87947,1.5508 3.87947,3.46382z" fill="#ff6900" stroke="#000000" stroke-width="0" stroke-linecap="butt"></path><path d="M274.4187,206.76275c0,-5.74639 4.65837,-10.40477 10.40477,-10.40477c5.74639,0 10.40477,4.65837 10.40477,10.40477c0,5.74639 -4.65837,10.40477 -10.40477,10.40477c-5.74639,0 -10.40477,-4.65837 -10.40477,-10.40477z" fill="url(#color-1)" stroke="#000000" stroke-width="1" stroke-linecap="butt"></path><path d="M202.73455,141.42434c0,-5.7464 4.65838,-10.40476 10.40477,-10.40476c5.7464,0 10.40476,4.65837 10.40476,10.40476c0,5.7464 -4.65837,10.40477 -10.40476,10.40477c-5.7464,0 -10.40477,-4.65837 -10.40477,-10.40477z" fill="url(#color-2)" stroke="#000000" stroke-width="1" stroke-linecap="butt"></path><path d="" data-paper-data="{&quot;index&quot;:null}" fill="none" stroke="#000000" stroke-width="1.5" stroke-linecap="round"></path><path d="" data-paper-data="{&quot;index&quot;:null}" fill="none" stroke="#000000" stroke-width="1.5" stroke-linecap="round"></path><path d="M269.16749,135.56708c0,3.08539 -6.01888,5.58661 -27.83706,5.58661c-21.81817,0 -32.83773,-2.5012 -32.83773,-5.58661c0,-3.08539 11.01956,-5.58661 32.83773,-5.58661c21.81817,0 27.83706,2.50122 27.83706,5.58661z" fill="#000000" stroke="none" stroke-width="0" stroke-linecap="butt"></path><path d="M214.71535,97.65497c0,0 16.85062,-5.53935 21.25635,-5.67878c4.30425,-0.13622 24.32625,5.37718 24.32625,5.37718l-3.05664,39.29446l-18.76816,1.58282c0,0 -17.09913,-0.32513 -17.33974,-0.64386z" fill="#000000" stroke="none" stroke-width="0" stroke-linecap="butt"></path><path d="M218.70778,117.92235v-6.81936h38.54929v6.81936z" fill="#fff000" stroke="none" stroke-width="0" stroke-linecap="butt"></path></g></g></svg>