<svg version="1.1" xmlns="http://www.w3.org/2000/svg" xmlns:xlink="http://www.w3.org/1999/xlink" width="85.0784" height="115.06309" viewBox="0,0,85.0784,115.06309"><defs><linearGradient x1="240.00002" y1="140.5" x2="240.00002" y2="219.50005" gradientUnits="userSpaceOnUse" id="color-1"><stop offset="0" stop-color="#1fa65f"/><stop offset="1" stop-color="#44923a"/></linearGradient><linearGradient x1="239.01853" y1="157.12268" x2="239.01853" y2="186.9471" gradientUnits="userSpaceOnUse" id="color-2"><stop offset="0" stop-color="#a7a7a7"/><stop offset="1" stop-color="#464646"/></linearGradient><linearGradient x1="238.67808" y1="188.56967" x2="240.0677" y2="204.28472" gradientUnits="userSpaceOnUse" id="color-3"><stop offset="0" stop-color="#00f551"/><stop offset="1" stop-color="#5e6500"/></linearGradient><linearGradient x1="237.53841" y1="150.63581" x2="237.53841" y2="160.79075" gradientUnits="userSpaceOnUse" id="color-4"><stop offset="0" stop-color="#1cff00"/><stop offset="1" stop-color="#57d000"/></linearGradient><linearGradient x1="209.57876" y1="171.90051" x2="272.43809" y2="171.90051" gradientUnits="userSpaceOnUse" id="color-5"><stop offset="0" stop-color="#bababa" stop-opacity="0"/><stop offset="1" stop-color="#bababa"/></linearGradient><linearGradient x1="209.76261" y1="171.75597" x2="272.62195" y2="171.75597" gradientUnits="userSpaceOnUse" id="color-6"><stop offset="0" stop-color="#cfcfcf" stop-opacity="0"/><stop offset="1" stop-color="#cfcfcf"/></linearGradient><linearGradient x1="209.61808" y1="171.83037" x2="272.4774" y2="171.83037" gradientUnits="userSpaceOnUse" id="color-7"><stop offset="0" stop-color="#f5f5f5" stop-opacity="0"/><stop offset="1" stop-color="#f5f5f5"/></linearGradient><linearGradient x1="209.87784" y1="171.83037" x2="272.73717" y2="171.83037" gradientUnits="userSpaceOnUse" id="color-8"><stop offset="0" stop-color="#f5f5f5" stop-opacity="0"/><stop offset="1" stop-color="#f5f5f5"/></linearGradient></defs><g transform="translate(-196.10057,-136.27195)"><g stroke-miterlimit="10"><path d="" fill="none" stroke="#000000" stroke-width="1.5" stroke-linecap="round"/><path d="M200.50002,180.00005c0,-21.81525 17.68475,-39.5 39.5,-39.5c21.81525,0 39.5,17.68475 39.5,39.5c0,21.81525 -17.68475,39.5 -39.5,39.5c-21.81525,0 -39.5,-17.68475 -39.5,-39.5z" fill="url(#color-1)" stroke="#000000" stroke-width="1.5" stroke-linecap="butt"/><path d="" fill="none" stroke="#000000" stroke-width="1.5" stroke-linecap="round"/><path d="" fill="none" stroke="#000000" stroke-width="1.5" stroke-linecap="round"/><path d="M204.57876,173.58315c0,0 1.42312,-5.99438 2.35921,-8.60991c0.91024,-2.54331 4.64871,-6.70973 4.64871,-6.70973l24.12028,6.84494l28.84655,-7.98577c0,0 5.05222,1.62975 6.19305,4.23735c0.61179,1.39837 2.71058,4.88132 2.71174,7.65978c0.001,2.40265 -1.89687,6.19309 -1.89687,6.19309l-31.94308,11.73419l-4.07437,-9.45254l-3.58545,8.96362z" fill="url(#color-2)" stroke="#000000" stroke-width="1.5" stroke-linecap="round"/><g stroke="#000000" stroke-linecap="butt"><path d="M262.85247,206.21222l-17.9968,0.63692l-9.08805,0.32163l-12.2142,0.43227l-9.08235,0.32143l-9.7163,0.34387l-2.66019,0.09415l-5.47209,-21.01963l5.36213,0.17378l14.47843,0.46921l7.60986,0.24661l13.2496,0.42938l11.45212,0.37113l14.28892,0.46305l17.69432,0.57341l-0.82551,15.53834z" fill="#727272" stroke-width="0.8"/><path d="M260.62588,203.27673l-16.42883,0.61113l-8.29626,0.3086l-11.15003,0.41477l-8.29104,0.3084l-8.86978,0.32995l-2.4284,0.09033l-4.63389,-15.0945l4.88874,0.07979l13.2003,0.21543l6.93806,0.11321l12.07994,0.19714l10.44112,0.1704l13.02748,0.2126l16.13228,0.26327l-1.01785,11.19955z" fill="url(#color-3)" stroke-width="0.8"/><path d="M262.85246,206.21223l-17.9968,0.63692l3.91897,-17.81619l14.28891,0.46306z" fill="#727272" stroke-width="0.8"/><path d="M235.76762,207.17078l-12.2142,0.43227l0.51949,-19.3706l13.2496,0.42938z" fill="#727272" stroke-width="0.8"/><path d="M216.9938,207.88838l-9.7163,0.34387l-2.77016,-20.75171l14.47844,0.46921z" fill="#727272" stroke-width="0.5"/></g><path d="M248.66051,139.9973c0,0 -4.14768,3.28136 -2.48698,4.23118c4.80572,2.74857 16.36696,7.76083 12.82655,8.88733c-5.7043,1.81501 -22.18701,7.67496 -22.18701,7.67496c0,0 -19.16003,-4.99809 -21.72921,-9.34912c-1.6435,-2.78335 8.32677,-4.7438 11.94153,-7.41915c1.70476,-1.26173 -1.5762,-4.75055 -1.5762,-4.75055" fill="none" stroke="url(#color-4)" stroke-width="6" stroke-linecap="round"/><path d="M218.10576,170.22037v-5.93739l1.93428,1.29417v4.64323z" fill="#1cff00" stroke="#1cff00" stroke-width="1" stroke-linecap="butt"/><path d="M221.50709,170.50049v-4.11034l1.93428,1.44642v2.66392z" fill="#1cff00" stroke="#1cff00" stroke-width="1" stroke-linecap="butt"/><path d="M218.1331,176.03337v-4.11033h1.93428v4.11033z" fill="#1cff00" stroke="#1cff00" stroke-width="1" stroke-linecap="butt"/><path d="M221.53443,176.08511v-4.11033h1.93428v4.11033z" fill="#1cff00" stroke="#1cff00" stroke-width="1" stroke-linecap="butt"/><path d="M235.68768,166.01727l28.62393,-7.72563c0,0 4.61064,1.48731 5.65176,3.867c0.55832,1.27615 2.47367,4.45468 2.47473,6.9903c0.00092,2.19266 -1.73108,5.6518 -1.73108,5.6518l-30.57415,11.25589l-4.37501,-10.26825z" fill="url(#color-5)" stroke="none" stroke-width="0" stroke-linecap="round"/><path d="M235.87153,165.87275l28.62393,-7.72564c0,0 4.61065,1.48731 5.65177,3.867c0.55832,1.27615 2.47367,4.45468 2.47473,6.9903c0.00092,2.19266 -1.73108,5.6518 -1.73108,5.6518l-30.57415,11.25589l-4.74837,-9.71395l-3.78606,8.85911l-19.89182,-25.66449z" fill="url(#color-6)" stroke="none" stroke-width="0" stroke-linecap="round"/><path d="M235.727,165.94709l28.62393,-7.72563c0,0 4.61065,1.48731 5.65177,3.867c0.55832,1.27615 2.47367,4.45468 2.47473,6.9903c0.00092,2.19266 -1.73108,5.65181 -1.73108,5.65181l-30.57416,11.25589l-4.74837,-9.71395l-3.78606,8.85911l-25.5304,-11.77696c0,0 0.69159,-6.0249 1.68835,-8.47986c0.86362,-2.12704 3.95023,-5.40767 3.95023,-5.40767z" fill="url(#color-7)" stroke="none" stroke-width="0" stroke-linecap="round"/><path d="M235.98676,165.94709l28.62393,-7.72563c0,0 4.61065,1.48731 5.65177,3.867c0.55832,1.27615 2.47367,4.45468 2.47473,6.9903c0.00092,2.19266 -1.73108,5.65181 -1.73108,5.65181l-30.57416,11.25589l-4.74837,-9.71395l-3.78606,8.85911l-25.5304,-11.77696c0,0 0.69159,-6.0249 1.68835,-8.47986c0.86362,-2.12704 3.95023,-5.40767 3.95023,-5.40767z" fill="url(#color-8)" stroke="none" stroke-width="0" stroke-linecap="round"/><path d="M228.52425,237.98653c0,-6.95797 5.64055,-12.59852 12.59852,-12.59852c6.95797,0 12.59852,5.64055 12.59852,12.59852c0,6.95797 -5.64055,12.59852 -12.59852,12.59852c-6.95797,0 -12.59852,-5.64055 -12.59852,-12.59852z" fill="#349b4b" stroke="#000000" stroke-width="1.5" stroke-linecap="butt"/></g></g></svg>