<svg version="1.1" xmlns="http://www.w3.org/2000/svg" xmlns:xlink="http://www.w3.org/1999/xlink" width="85.65129" height="87.62391" viewBox="0,0,85.65129,87.62391"><g transform="translate(-198.73849,-137.92395)"><g data-paper-data="{&quot;isPaintingLayer&quot;:true}" fill-rule="nonzero" stroke-linejoin="miter" stroke-miterlimit="10" stroke-dasharray="" stroke-dashoffset="0" style="mix-blend-mode: normal"><path d="" data-paper-data="{&quot;index&quot;:null}" fill="none" stroke="#000000" stroke-width="1.5" stroke-linecap="round"></path><path d="M199.48849,178.17395c0,-21.81525 17.68475,-39.5 39.5,-39.5c21.81525,0 39.5,17.68475 39.5,39.5c0,21.81525 -17.68475,39.5 -39.5,39.5c-21.81525,0 -39.5,-17.68475 -39.5,-39.5z" fill="#d8d8d8" stroke="#000000" stroke-width="1.5" stroke-linecap="butt"></path><path d="M225.51005,194.79568c5.44898,-2.88817 27.57511,5.13694 27.57511,5.13694" data-paper-data="{&quot;index&quot;:null}" fill="none" stroke="#000000" stroke-width="1.5" stroke-linecap="round"></path><path d="M248.1632,161.61053l6.93986,4.16391l-6.59286,1.38797l-3.29643,5.89888l-2.25545,-6.41937l-7.46035,-3.64343l7.11335,-2.08196l3.99042,-7.46035z" fill="#be82ff" stroke="#000000" stroke-width="0" stroke-linecap="round"></path><g stroke-linecap="round"><path d="M258.46008,170.27247l21.56604,-18.09069l2.19848,2.43548l-21.98579,18.10731z" fill="none" stroke="#4d6200" stroke-width="3"></path><path d="M278.86652,154.7502l-18.32426,15.01946l-2.80759,8.72967l-2.36682,-1.37777l1.98469,-8.27669" fill="none" stroke="#4d6200" stroke-width="3"></path><path d="M235.98807,186.71737l24.56861,-11.27266l2.61825,2.41887l-25.82789,11.3225z" fill="none" stroke="#4d6200" stroke-width="3"></path><path d="M232.60898,196.9411l4.4534,-9.63564l23.54414,-10.60148" fill="none" stroke="#4d6200" stroke-width="4.5"></path><path d="M218.08137,206.9755l4.93962,-7.97322l9.50273,1.09533l6.20892,8.16258l-5.39261,7.15032" fill="none" stroke="#4d6200" stroke-width="4.5"></path><path d="M238.79126,188.49828l-4.18537,11.0965" fill="none" stroke="#4d6200" stroke-width="4.5"></path><path d="M214.74332,218.3109l8.82595,-13.09091l6.53442,-1.36418l2.39717,7.60159l-8.61252,12.8843l-7.36765,0.93047z" fill="#7d00ff" stroke="#7f00ff" stroke-width="0.5"></path><path d="M217.51069,217.31561l6.18458,-9.17315l4.57885,-0.95592l1.67976,5.32664l-6.03503,9.02838l-5.16271,0.65201z" fill="#be82ff" stroke="#7f00ff" stroke-width="0"></path></g><path d="M222.78134,166.41392l10.7662,2.43108" fill="none" stroke="#000000" stroke-width="1.5" stroke-linecap="round"></path><path d="M228.28604,164.72097l1.38919,-9.72431" fill="none" stroke="#000000" stroke-width="1.5" stroke-linecap="round"></path></g></g></svg>