<svg version="1.1" xmlns="http://www.w3.org/2000/svg" xmlns:xlink="http://www.w3.org/1999/xlink" width="138.31031" height="153.83317" viewBox="0,0,138.31031,153.83317"><g transform="translate(-383.58017,-26.0379)"><g data-paper-data="{&quot;isPaintingLayer&quot;:true}" fill="#9bff66" fill-rule="nonzero" stroke="none" stroke-width="0.5" stroke-linecap="butt" stroke-linejoin="miter" stroke-miterlimit="10" stroke-dasharray="" stroke-dashoffset="0" style="mix-blend-mode: normal"><path d="M471.70086,26.07205c2.47519,-0.35133 2.82652,2.12386 2.82652,2.12386l0.26302,1.85303c1.39821,9.86788 2.94346,20.86689 1.8506,30.80363c-0.24182,2.19873 -1.43056,9.52959 -2.37895,10.51786c-0.92698,0.96595 -2.6451,-0.41577 -3.96764,-0.62366c0.14249,1.45361 -0.60665,2.87461 -1.16657,4.2236c-1.76686,4.2568 -1.37181,7.5695 -7.35691,6.57616c-3.70091,-0.61423 -7.87248,-6.34323 -10.07568,-9.07743c-1.47064,-1.82508 -2.84136,-3.74107 -4.46093,-5.43539c-0.21305,-0.22289 -0.55035,-0.92095 -0.67067,-0.63706c-1.44288,3.4046 2.25552,7.8054 -2.97426,10.50585c-0.2723,0.14061 -8.34081,-2.52819 -9.26494,-2.87777c-8.09062,-3.06057 -15.84245,-7.23481 -23.8484,-10.55017c-4.49608,-1.93861 -9.08148,-3.85859 -13.7583,-5.3297c-1.50736,-0.47414 -3.04092,-0.8683 -4.58476,-1.20523c-0.24678,-0.05386 -0.49843,-0.08733 -0.75195,-0.11235c0.58644,0.58846 1.14431,1.21201 1.73046,1.79624c4.22684,4.21295 8.50898,8.14839 12.96237,12.11568c5.75954,5.13087 12.176,10.22294 18.69596,14.35849c2.98501,1.89337 5.73127,2.69603 8.52341,4.92663l4.33099,2.17972c0.84231,0.40211 1.42429,1.26178 1.42429,2.25738c0,1.38071 -1.11929,2.5 -2.5,2.5c-0.19281,0 -0.38052,-0.02183 -0.5608,-0.06315l-2.98945,-0.62215l0.00417,-0.02003l-0.05464,0.00898c-2.70059,-0.67936 -5.45403,-1.15952 -8.12013,-1.96367c-0.60222,-0.18164 -1.78817,-0.64557 -2.64865,-0.99337c5.9511,2.65086 10.565,7.64405 15.64953,11.56363c3.24434,2.50101 7.37755,4.73194 10.01511,7.95335c0.00498,0.00609 0.00996,0.01217 0.01494,0.01826l0.0026,-0.00296l3.74208,3.29581c0.52561,0.45831 0.85775,1.13286 0.85775,1.88499c0,1.38071 -1.11929,2.5 -2.5,2.5c-0.06908,0 -0.1375,-0.0028 -0.20516,-0.0083l-0.46235,-0.03324c1.40691,1.1218 2.76932,2.26243 3.99108,3.42863c1.72578,1.64729 2.57762,4.04277 3.50093,6.24262c0.16449,0.39191 0.32252,1.01521 0.74717,1.03326c0.5957,0.02532 0.98455,-0.68242 1.52384,-0.93672c1.05272,-0.4964 2.15034,-0.89216 3.23729,-1.30832c5.83865,-2.2355 11.56579,-4.88629 17.93514,-4.87321c3.26771,0.00671 5.02599,0.04702 6.5203,1.2879l0.31707,-0.79382c0.35421,-0.9501 1.26971,-1.62677 2.34326,-1.62677c1.38071,0 2.5,1.11929 2.5,2.5c0,0.18459 -0.02,0.3645 -0.05796,0.53769l-0.51594,2.59668l-0.45025,-0.08946l-0.0569,0.14246c-0.06319,0.57863 -0.24841,1.11362 -0.63039,1.57827l-0.12914,0.32332l-0.04668,-0.01865l0.02972,0.06005c-1.9929,4.51334 -4.07221,9.05101 -5.03548,13.92255c-0.37977,1.92062 -0.3673,3.69744 -0.80877,5.47727c3.00435,-1.85725 7.48314,-3.53656 10.03447,-4.60526c4.73945,-1.98524 9.05488,-4.42953 13.47254,-7.09704c2.3109,-1.39539 4.364,-3.60524 7.03187,-4.01736c0.09545,-0.01474 0.19099,-0.02823 0.28663,-0.04055l-0.01568,-0.05453l3.62632,-1.0429c0.23575,-0.07366 0.4865,-0.11336 0.74652,-0.11336c1.38071,0 2.5,1.11929 2.5,2.5c0,0.70903 -0.29516,1.34911 -0.76931,1.80409l-2.96377,2.85253c-10.91577,13.12371 -21.51206,26.80676 -33.54902,38.93045c0,0 -1.76198,1.77354 -3.53552,0.01156c-1.77354,-1.76198 -0.01156,-3.53552 -0.01156,-3.53552c10.0188,-10.07781 19.00967,-21.26596 28.04545,-32.2855c-2.9894,1.84322 -6.03402,3.81617 -9.15515,5.33312c-3.56031,1.7304 -7.43507,2.86957 -10.97396,4.72938c-0.93547,0.49162 -8.12749,4.90655 -9.13484,4.23277c-1.77556,-1.1876 -1.27341,-4.13438 -1.32502,-6.26987c-0.03234,-1.33832 0.81132,-2.55672 1.08002,-3.86819c1.30907,-6.38929 2.88693,-11.91061 5.45225,-17.89845c-0.10498,-0.02151 -0.20832,-0.03855 -0.3097,-0.05024c-3.80763,-0.439 -5.21577,-0.65108 -9.02127,-0.02871c-5.10369,0.83468 -9.98287,3.84264 -14.86624,5.4638c-1.39911,0.46447 -2.83015,1.53185 -4.26199,1.181c-4.70693,-1.15335 -3.57113,-3.53019 -5.14703,-6.5605c-1.15472,-2.22042 -3.66954,-3.46092 -5.47701,-4.91268c-2.20972,-1.77485 -4.29941,-3.69481 -6.48721,-5.49661l-0.02476,-0.04238l-0.01041,0.01173l-2.96867,-2.63679c-0.52067,-0.45815 -0.84921,-1.12946 -0.84921,-1.87751c0,-1.38071 1.11929,-2.5 2.5,-2.5c0.38699,0 0.75345,0.08793 1.08048,0.2449l0.99525,0.4508c-0.40077,-0.34855 -0.83926,-0.71528 -1.33222,-1.09949c-3.82204,-2.97889 -7.5651,-6.21907 -11.44221,-9.1217c-2.27559,-1.70363 -4.95763,-2.90119 -7.11724,-4.77728c-2.48193,-2.15609 -7.89658,-6.0137 -0.78922,-9.31953c0.2753,-0.12805 0.55777,-0.20848 0.84587,-0.25109c-9.72223,-6.37779 -19.17335,-14.26255 -27.34359,-22.42295c-2.40635,-2.40345 -5.31216,-4.39579 -7.21405,-7.21534c-1.01623,-1.50655 -2.7843,-3.38109 -2.05978,-5.04767c0.73712,-1.69556 3.32359,-1.77156 5.14979,-2.0601c4.30339,-0.67995 10.23234,2.24708 14.12009,3.66764c3.16818,1.15763 6.30445,2.40638 9.40235,3.74075c7.24538,3.00018 14.34596,6.23623 21.4788,9.49215c2.01004,0.91752 4.25855,1.28742 6.20331,2.33624c0.64709,0.34898 0.82466,1.90371 1.50116,1.61587c0.67481,-0.28712 -0.15584,-1.46256 -0.1384,-2.19571c0.05232,-2.19954 0.78193,-6.91009 2.42392,-7.94628c1.59463,-1.00631 3.91494,-0.33716 5.64106,0.4218c2.46192,1.08249 4.41475,4.69335 6.05871,6.74154c2.02426,2.52199 4.50074,5.63949 7.28159,7.33493c1.08909,0.66401 1.18701,-2.27111 1.58482,-3.48305c1.04801,-3.19283 1.75331,-3.92488 3.56731,-6.89444c1.13203,0.32154 2.45143,1.6664 3.3961,0.96461c0.87601,-0.65078 -0.34643,-2.16885 -0.30707,-3.25943c0.04491,-1.24447 0.41874,-2.45647 0.55798,-3.69394c1.06882,-9.49866 -0.49017,-20.11915 -1.83127,-29.55151l-0.26302,-1.85299c0,0 -0.35133,-2.47519 2.12386,-2.82652z"/></g></g></svg>