<svg version="1.1" xmlns="http://www.w3.org/2000/svg" xmlns:xlink="http://www.w3.org/1999/xlink" width="141.31607" height="98.22635" viewBox="0,0,141.31607,98.22635"><g transform="translate(-114.73962,-156.5231)"><g data-paper-data="{&quot;isPaintingLayer&quot;:true}" fill-rule="nonzero" stroke-linejoin="miter" stroke-miterlimit="10" stroke-dasharray="" stroke-dashoffset="0" style="mix-blend-mode: normal"><path d="" data-paper-data="{&quot;index&quot;:null}" fill="none" stroke="#000000" stroke-width="1.5" stroke-linecap="round"></path><path d="" data-paper-data="{&quot;index&quot;:null}" fill="none" stroke="#000000" stroke-width="1.5" stroke-linecap="round"></path><path d="" data-paper-data="{&quot;index&quot;:null}" fill="none" stroke="#000000" stroke-width="1.5" stroke-linecap="round"></path><path d="" data-paper-data="{&quot;index&quot;:null}" fill="none" stroke="#000000" stroke-width="1.5" stroke-linecap="round"></path><path d="M171.93904,240.20132" data-paper-data="{&quot;index&quot;:null}" fill="none" stroke="#d8d8d8" stroke-width="4" stroke-linecap="round"></path><path d="M157.6584,241.58385c-23.28918,0 -42.16878,-17.68475 -42.16878,-39.5c0,-21.81525 18.87961,-39.5 42.16878,-39.5c23.28918,0 42.16878,17.68475 42.16878,39.5c0,21.81525 -18.87961,39.5 -42.16878,39.5z" data-paper-data="{&quot;index&quot;:null}" fill="#d8d8d8" stroke="#000000" stroke-width="1.5" stroke-linecap="butt"></path><path d="M173.12731,221.38938c-5.81715,2.88817 -29.4382,-5.13694 -29.4382,-5.13694" data-paper-data="{&quot;index&quot;:null}" fill="none" stroke="#000000" stroke-width="1.5" stroke-linecap="round"></path><path d="M189.72412,173.6821c0,0 6.09779,7.75442 7.50336,11.57662c1.30604,3.55151 3.29844,10.37897 3.29844,10.37897l-43.33879,17.86909l-40.37271,-16.19051c0,0 1.74927,-6.78215 2.89861,-10.48332c1.19689,-3.85428 5.5886,-11.63853 5.5886,-11.63853l31.88547,10.0822l32.537,-11.59453z" data-paper-data="{&quot;index&quot;:null}" fill="#595959" stroke="#000000" stroke-width="0.5" stroke-linecap="round"></path><path d="M178.59288,189.88957c0,0 -3.88574,8.86587 -8.67906,8.86587c-4.79333,0 -12.9937,2.50767 -7.64585,-2.95529c5.34785,-5.46296 16.32491,-5.91058 16.32491,-5.91058z" data-paper-data="{&quot;index&quot;:null}" fill="#ffffff" stroke="none" stroke-width="0" stroke-linecap="butt"></path><path d="M152.88689,195.85784c5.34785,5.46297 -2.85252,2.95529 -7.64584,2.95529c-4.7933,0 -8.67906,-8.86587 -8.67906,-8.86587c0,0 10.97705,0.44762 16.3249,5.91058z" data-paper-data="{&quot;index&quot;:null}" fill="#ffffff" stroke="none" stroke-width="0" stroke-linecap="butt"></path><g data-paper-data="{&quot;index&quot;:null}" fill="none" stroke-linecap="round"><path d="M243.18835,178.14075c0,0 15.72694,-36.89765 9.77012,-7.77797" stroke="#ff0000" stroke-width="3.5"></path><path d="M238.48096,175.14426c2.00479,-9.38797 8.98201,-18.60457 15.11094,-16.59214" stroke="#ff0000" stroke-width="3.5"></path><g><path d="M240.26399,233.39663c0,0 -15.72694,36.89765 -9.77012,7.77797c5.9568,-29.11969 23.21496,-73.50257 23.21496,-73.50257" stroke="#ff0000" stroke-width="3.5"></path><path d="M238.66489,210.59372l-4.2473,13.71606" stroke="#d8d8d8" stroke-width="4"></path><path d="M246.73169,236.12828c-2.00479,9.38797 -8.98201,18.60457 -15.11094,16.59214" stroke="#ff0000" stroke-width="3.5"></path></g></g></g></g></svg>