<svg version="1.1" xmlns="http://www.w3.org/2000/svg" xmlns:xlink="http://www.w3.org/1999/xlink" width="88.46727" height="91.37981" viewBox="0,0,88.46727,91.37981"><g transform="translate(-199.75,-128.87019)"><g data-paper-data="{&quot;isPaintingLayer&quot;:true}" fill-rule="nonzero" stroke-linejoin="miter" stroke-miterlimit="10" stroke-dasharray="" stroke-dashoffset="0" style="mix-blend-mode: normal"><g><path d="M200.5,180c0,-21.81525 17.68475,-39.5 39.5,-39.5c21.81525,0 39.5,17.68475 39.5,39.5c0,21.81525 -17.68475,39.5 -39.5,39.5c-21.81525,0 -39.5,-17.68475 -39.5,-39.5z" fill="#205fa7" stroke="#000000" stroke-width="1.5" stroke-linecap="butt"></path><path d="M267.80711,142.99009l-31.11024,20.74016l-27.99921,-20.22165" fill="none" stroke="#e2ff00" stroke-width="7" stroke-linecap="round"></path><path d="M213.42302,180.00685v-21.02353l21.15664,11.47952l23.22616,-11.47952v21.02353l-23.7633,13.64179z" fill="#edffff" stroke="#e2ff00" stroke-width="0" stroke-linecap="butt"></path><path d="M230.96621,174.0709c0,0 -2.29297,11.0872 -4.2313,11.0872c-0.48691,0 -1.41121,-0.56056 -1.85114,-1.87803c-1.31137,-3.92718 -1.13185,-14.08369 -1.13185,-14.08369z" fill="#ff0000" stroke="none" stroke-width="0" stroke-linecap="butt"></path><path d="M246.06093,169.14488c0,0 0.17952,10.15651 -1.13184,14.08369c-0.43993,1.31747 -1.36423,1.87803 -1.85115,1.87803c-1.93832,0 -4.2313,-11.0872 -4.2313,-11.0872z" data-paper-data="{&quot;index&quot;:null}" fill="#ff0000" stroke="none" stroke-width="0" stroke-linecap="butt"></path></g><path d="" data-paper-data="{&quot;index&quot;:null}" fill="none" stroke="#000000" stroke-width="1.5" stroke-linecap="round"></path><path d="" data-paper-data="{&quot;index&quot;:null}" fill="none" stroke="#000000" stroke-width="1.5" stroke-linecap="round"></path><g stroke-linecap="butt"><g fill="#d3d3d3" stroke="#000000" stroke-width="1"><path d="M269.49944,142.06187l17.72389,1.00643l-2.00467,35.30368l-17.72389,-1.00643z"></path><path d="M280.05261,134.42112l7.63712,0.43366l-0.57277,10.08677l-7.63712,-0.43366z"></path><path d="M270.5077,129.39773l6.77254,0.38458l-0.82643,14.55374l-6.77254,-0.38458z"></path></g><path d="M268.56668,158.4889l17.86799,1.0146l-0.32729,5.76387l-17.86799,-1.0146z" fill="#a0a0a0" stroke="none" stroke-width="0"></path><path d="M268.27711,166.13419l17.29159,0.98187l-0.30275,5.33157l-17.29159,-0.98187z" fill="#a0a0a0" stroke="none" stroke-width="0"></path><path d="M269.32126,150.29176l17.1475,0.9737l-0.30275,5.33157l-17.1475,-0.9737z" fill="#a0a0a0" stroke="none" stroke-width="0"></path></g></g></g></svg>