<svg version="1.1" xmlns="http://www.w3.org/2000/svg" xmlns:xlink="http://www.w3.org/1999/xlink" width="80.5" height="80.5" viewBox="0,0,80.5,80.5"><g transform="translate(-198.73851,-137.92395)"><g data-paper-data="{&quot;isPaintingLayer&quot;:true}" fill-rule="nonzero" stroke="#000000" stroke-linejoin="miter" stroke-miterlimit="10" stroke-dasharray="" stroke-dashoffset="0" style="mix-blend-mode: normal"><path d="" data-paper-data="{&quot;index&quot;:null}" fill="none" stroke-width="1.5" stroke-linecap="round"></path><path d="" data-paper-data="{&quot;index&quot;:null}" fill="none" stroke-width="1.5" stroke-linecap="round"></path><path d="M199.48852,178.17395c0,-21.81525 17.68475,-39.5 39.5,-39.5c21.81525,0 39.5,17.68475 39.5,39.5c0,21.81525 -17.68475,39.5 -39.5,39.5c-21.81525,0 -39.5,-17.68475 -39.5,-39.5z" fill="#ffffff" stroke-width="1.5" stroke-linecap="butt"></path><path d="M232.79022,167.28625c0,1.80048 -0.36489,3.26006 -0.81501,3.26006c-0.45012,0 -0.81502,-1.45958 -0.81502,-3.26006c0,-1.80048 0.3649,-3.26006 0.81502,-3.26006c0.45012,0 0.81501,1.45958 0.81501,3.26006z" fill="none" stroke-width="1.5" stroke-linecap="butt"></path><path d="M239.10659,167.38813c0,1.85674 -0.3649,3.36194 -0.81502,3.36194c-0.45012,0 -0.81501,-1.5052 -0.81501,-3.36194c0,-1.85674 0.36489,-3.36193 0.81501,-3.36193c0.45012,0 0.81502,1.50519 0.81502,3.36193z" fill="none" stroke-width="1.5" stroke-linecap="butt"></path><path d="M243.51682,192.16254c0,0 -5.0993,0.9633 -8.57383,1.0335c-3.23174,0.06529 -8.54149,-1.84852 -8.54149,-1.84852" fill="none" stroke-width="1.5" stroke-linecap="round"></path><path d="M238.01547,180.95607c0,1.91302 -1.7369,3.46381 -3.87947,3.46381c-2.14257,0 -3.87948,-1.5508 -3.87948,-3.46381c0,-1.91302 1.7369,-3.46382 3.87948,-3.46382c2.14257,0 3.87947,1.5508 3.87947,3.46382z" fill="#ff6900" stroke-width="0" stroke-linecap="butt"></path></g></g></svg>