<svg version="1.1" xmlns="http://www.w3.org/2000/svg" xmlns:xlink="http://www.w3.org/1999/xlink" width="110.57171" height="80.5" viewBox="0,0,110.57171,80.5"><g transform="translate(-169.67829,-139.75)"><g data-paper-data="{&quot;isPaintingLayer&quot;:true}" fill-rule="nonzero" stroke-linejoin="miter" stroke-miterlimit="10" stroke-dasharray="" stroke-dashoffset="0" style="mix-blend-mode: normal"><path d="" data-paper-data="{&quot;index&quot;:null}" fill="none" stroke="#000000" stroke-width="1.5" stroke-linecap="round"></path><path d="M200.5,180c0,-21.81525 17.68475,-39.5 39.5,-39.5c21.81525,0 39.5,17.68475 39.5,39.5c0,21.81525 -17.68475,39.5 -39.5,39.5c-21.81525,0 -39.5,-17.68475 -39.5,-39.5z" fill="#d8d8d8" stroke="#000000" stroke-width="1.5" stroke-linecap="butt"></path><path d="M225.51005,194.79568c5.44898,-2.88817 27.57511,5.13694 27.57511,5.13694" data-paper-data="{&quot;index&quot;:null}" fill="none" stroke="#000000" stroke-width="1.5" stroke-linecap="round"></path><path d="M240.25489,167.17564l6.93986,4.16391l-6.59286,1.38797l-3.29643,5.89888l-2.25545,-6.41937l-7.46035,-3.64343l7.11335,-2.08196l3.99042,-7.46035z" fill="#be82ff" stroke="#000000" stroke-width="0" stroke-linecap="round"></path><path d="M220.70109,176.77305l10.7662,2.43108" fill="none" stroke="#000000" stroke-width="1.5" stroke-linecap="round"></path><path d="M226.89268,167.15203l-1.38919,9.72431" fill="none" stroke="#000000" stroke-width="1.5" stroke-linecap="round"></path><path d="M228.49518,166.79922l-10.3457,-3.84548" fill="none" stroke="#000000" stroke-width="1.5" stroke-linecap="round"></path><g stroke-linecap="round"><path d="M205.35516,172.6208l6.74126,4.1848l-2.52161,8.72922l-7.50207,3.94226l-6.62997,-5.00956" fill="none" stroke="#4d6200" stroke-width="4.5"></path><path d="M211.45605,185.28484l7.00497,7.8314" fill="none" stroke="#4d6200" stroke-width="4.5"></path><path d="M188.30536,169.84771l6.38533,-1.58593l11.23454,7.8937l0.44877,7.0474l-5.83543,0.96125l-11.47694,-7.99621z" fill="#7d00ff" stroke="#7f00ff" stroke-width="0.5"></path><path d="M191.13647,171.6771l4.47437,-1.11131l7.87235,5.53132l0.31447,4.93829l-4.08905,0.67357l-8.04219,-5.60316z" fill="#be82ff" stroke="#7f00ff" stroke-width="0"></path><g fill="none" stroke="#4d6200"><path d="M241.22471,199.29524l23.95429,7.93525l-1.03821,2.7151l-23.60213,-8.05568z" stroke-width="3"></path><path d="M240.07975,203.42354l-4.28529,-6.20475l1.51537,-1.89492l5.11003,6.31604l19.94183,6.55402" stroke-width="3"></path><path d="M217.04782,193.0095l24.96052,1.10095l-1.39037,2.83555l-23.90404,-1.46225z" stroke-width="3"></path><path d="M240.25667,195.88951l-22.84301,-1.23508l-6.75953,-6.53863" stroke-width="4.5"></path></g></g><g stroke="none" stroke-width="0.5" stroke-linecap="butt"><path d="M181.44152,205.79301c-0.29898,0.2586 -0.62654,0.46278 -0.97061,0.61345l-0.08858,0.06854l-0.05669,-0.00846c-1.46868,0.57199 -3.20038,0.19509 -4.29036,-1.06516c-0.74877,-0.86574 -1.04141,-1.97108 -0.8991,-3.02268l-0.02224,-0.055l0.04741,-0.10551c0.11245,-0.62992 0.38244,-1.23489 0.80531,-1.75077l0.69312,-0.87962l-1.45589,0.46711l-2.88396,-2.56959l-0.06347,-1.74726l-0.07388,-0.36658l-0.21044,-0.81049l-0.1691,-0.65127l-0.23844,-0.57231l-0.05656,-0.37465l-0.16273,-0.34218l-0.22383,-1.11047l0.091,-1.97331l0.03076,-0.02688l-0.00786,-0.04006l1.13606,-1.61601l0.33517,-0.28988l0.55536,-0.99045l1.02125,-2.6169l0.30486,-3.42561l-0.62201,-3.94575l-0.56377,-3.40826l0.00533,-0.06576l-0.02418,-0.06138l-0.44372,-3.38348l-0.55868,-2.77187l-2.03495,-4.46953l-0.22547,-0.44299l-0.10679,-0.46481l-0.26763,-0.52932l0.08836,-0.25094l-0.15627,-0.68016l0.85379,-1.30072l0.49705,-1.41155l0.49303,-0.09685l0.27573,-0.42005l1.49474,0.07231l1.52674,-0.29984l0.57092,0.40135l0.26573,0.01286l0.38922,0.44756l0.39017,0.27428l0.088,0.10174l1.02711,0.64748l1.10535,0.59586l1.42654,0.28524l2.46174,-0.11438l4.821,-0.87708l3.59346,-2.0765l2.28485,-2.11981l1.59191,-2.50285l0.56315,-1.67352l-0.0749,-0.47508l0.05195,-0.58451l-0.0558,-0.58416l0.35562,-2.35682l0.08591,-0.20622l0.00432,-0.22337l0.05585,-0.20636l-0.00485,-0.07179l0.03454,-0.03785l0.04615,-0.17052l0.9632,-1.72465l0.9425,-0.24547l0.61617,-0.67577l1.09579,0.22988l1.0835,-0.28219l0.64789,0.64544l0.95319,0.19996l1.04482,1.67645l0.05429,0.16811l0.03631,0.03616l-0.0014,0.07193l0.15479,0.4793l0.031,0.02417l0.0107,0.10493l0.04353,0.13479l0.05829,0.86399l0.08783,0.86149l-0.02024,0.14019l0.00711,0.10523l-0.0265,0.02905l-0.32916,2.28006l-0.11516,0.28149l0.3169,2.0102l0.89685,2.96921l3.94346,4.90507l6.21814,3.97883l6.12348,1.43679l1.02405,-0.14546l2.64628,-0.47141l1.97073,0.13558l0.14734,0.17657l0.16998,-0.01431l1.0234,1.4443l1.13416,1.35904l-0.05734,0.16065l0.13297,0.18766l-0.3735,1.93977l-0.56447,1.21411l-0.86145,1.94654l-1.4869,4.1984l-0.20201,3.0315l-0.00992,0.03076l0.00522,0.0319l-0.4415,5.31099l0.19242,0.65665l0.04069,0.05901l0.66868,0.5217l0.51843,0.6635l0.62489,0.72645l-0.0063,0.0652l0.07925,0.10142l-0.26904,1.86333l-0.17529,1.81479l-0.09299,0.04335l-0.01467,0.10155l-1.68694,0.69168l-1.70637,0.79544l-0.11998,-0.04661l-0.0606,0.02485l-0.87589,-0.38859l-0.52966,-0.20572l-0.3724,-0.10507l-1.88489,-0.35978l-3.90463,0.49864l-5.34945,3.20951l-3.41859,7.19888l1.06663,4.28608l0.27649,0.59063l0.37858,1.93878l-0.39234,0.5568l0.07474,0.61723l-1.10556,0.84567l-0.80174,1.13782l-0.61966,-0.05052l-0.54102,0.41384l-1.9521,-0.30238l-0.57937,-0.24405l-0.44343,-0.33266l-0.50096,-0.23737l-5.0538,-4.14956l-3.92897,-3.09884l-3.90845,-2.69244l-3.28217,-0.87597l-2.11162,0.98352l-1.23059,1.56175c-0.15955,0.21072 -0.34344,0.40802 -0.55137,0.58788zM183.36035,195.12333l0.46269,-0.08942l0.16875,-0.1706l0.65998,0.01045l0.64806,-0.12525l0.19591,0.13861l0.4712,0.00747l5.26729,1.40579l0.5728,0.31724l0.61321,0.22958l4.55616,3.13864l0.08376,0.09499l0.11547,0.05195l2.14256,1.68987l4.3211,-9.09944l0.09627,-0.11703l-0.00275,-0.1287l0.61175,-0.61173l0.54957,-0.66815l0.12836,-0.00975l0.10714,-0.10714l6.67283,-4.00352l0.00529,-0.01277l0.04583,-0.01789l0.30808,-0.18483l0.75306,-0.22918l0.73331,-0.28611l0.35636,-0.04552l0.04707,-0.01432l0.01207,0.00678l3.27352,-0.41801l0.45415,-5.46325l0.23503,-3.52708l0.16129,-0.50089l0.05013,-0.52382l0.90973,-2.56871l-6.92557,-1.625l-0.57607,-0.29659l-0.6142,-0.20642l-7.29858,-4.67019l-0.42638,-0.45167l-0.49497,-0.37525l-4.56258,-5.67518l-2.39272,2.2199l-0.37861,0.20831l-0.31054,0.30049l-4.54318,2.62531l-0.63234,0.18114l-0.59928,0.27118l-5.72826,1.04214l-0.25929,-0.01688l-0.24888,0.07465l-2.92709,0.136l0.25132,1.24696l-0.00618,0.13406l0.0492,0.12487l0.45244,3.44996l0.55567,3.35917l-0.00121,0.01491l0.00583,0.01376l0.6978,4.42645l-0.04178,0.47026l0.07346,0.46635l-0.39518,4.4403l-0.17821,0.51401l-0.06896,0.53964l-1.31694,3.37456l-0.15636,0.22037l-0.07105,0.2607l-0.92114,1.64282l0.23414,0.9018l0,0.00001l0.00001,0l0.23702,0.9128l0.00099,0.10819l0.04647,0.0977l0.13731,0.68129l0.00722,0.00644l0.00129,0.03585l0.078,0.38691l-0.03577,0.77551l0.02818,0.77581l-0.07602,0.35897z" fill="#7d00ff"></path><path d="M185.03189,199.61434c-0.22816,0.19732 -0.47809,0.35313 -0.74062,0.46808l-0.0676,0.05231l-0.04327,-0.00647c-1.12066,0.43647 -2.44208,0.14887 -3.27379,-0.81275c-0.57136,-0.66059 -0.79465,-1.50406 -0.68607,-2.30648l-0.01697,-0.04198l0.03617,-0.0805c0.08581,-0.48067 0.29181,-0.94229 0.61449,-1.33594l0.52887,-0.6712l-1.11091,0.35643l-2.20064,-1.96073l-0.04842,-1.33324l-0.05639,-0.27972l-0.16057,-0.61845l-0.12905,-0.49697l-0.18196,-0.43672l-0.04315,-0.28587l-0.12416,-0.26109l-0.1708,-0.84736l0.06944,-1.50572l0.02347,-0.02049l-0.006,-0.03057l0.86686,-1.2331l0.25574,-0.22119l0.42377,-0.75578l0.77928,-1.99686l0.23263,-2.61392l-0.47464,-3.01083l-0.4302,-2.60068l0.00409,-0.05018l-0.01844,-0.04684l-0.3386,-2.58177l-0.42631,-2.11507l-1.55277,-3.41051l-0.17206,-0.33805l-0.08149,-0.35469l-0.20421,-0.40391l0.06742,-0.19148l-0.11923,-0.51899l0.65148,-0.99253l0.37925,-1.07709l0.3762,-0.07389l0.2104,-0.32052l1.14057,0.05521l1.16499,-0.2288l0.43565,0.30627l0.20276,0.00981l0.29699,0.34151l0.2977,0.2093l0.06715,0.07765l0.78375,0.49405l0.84346,0.45468l1.08851,0.21765l1.87845,-0.08728l3.67869,-0.66926l2.742,-1.58449l1.74345,-1.61754l1.21471,-1.9098l0.42972,-1.27699l-0.05714,-0.36251l0.03964,-0.44603l-0.04258,-0.44576l0.27135,-1.79839l0.06555,-0.15737l0.00331,-0.17043l0.04263,-0.15746l-0.00367,-0.05477l0.02634,-0.0289l0.03522,-0.13012l0.73497,-1.31599l0.71916,-0.1873l0.47017,-0.51565l0.83614,0.17542l0.82677,-0.21534l0.49435,0.49248l0.72733,0.15258l0.79728,1.27922l0.04143,0.12826l0.0277,0.02759l-0.00105,0.05489l0.11811,0.36573l0.02364,0.01844l0.00817,0.08007l0.03321,0.10284l0.04448,0.65928l0.06703,0.65738l-0.01546,0.10699l0.00542,0.08032l-0.02021,0.02215l-0.25117,1.73981l-0.08789,0.21479l0.24179,1.53389l0.68436,2.26568l3.00908,3.74284l4.74478,3.03607l4.67255,1.09636l0.78142,-0.11099l2.01925,-0.35971l1.50375,0.10345l0.11244,0.13475l0.12969,-0.01092l0.78093,1.10211l0.86544,1.03703l-0.04376,0.12257l0.10145,0.14318l-0.28499,1.48015l-0.4307,0.92643l-0.65733,1.48533l-1.13461,3.20363l-0.15415,2.31321l-0.00757,0.02349l0.00396,0.02435l-0.33688,4.05259l0.14682,0.50105l0.03104,0.045l0.51024,0.39809l0.39558,0.50627l0.47682,0.5543l-0.00482,0.04976l0.06046,0.07739l-0.20528,1.42182l-0.13377,1.38479l-0.07096,0.03308l-0.01118,0.07748l-1.28725,0.52777l-1.30205,0.60696l-0.09155,-0.03555l-0.04627,0.01895l-0.66836,-0.29651l-0.40416,-0.15698l-0.28415,-0.08019l-1.43828,-0.27454l-2.97946,0.38049l-4.08191,2.44903l-2.60856,5.49314l0.81391,3.27051l0.21097,0.45068l0.28887,1.47939l-0.29939,0.42487l0.05703,0.47097l-0.84358,0.6453l-0.61179,0.86819l-0.47286,-0.03853l-0.41283,0.31579l-1.48955,-0.23073l-0.4421,-0.18623l-0.33837,-0.25386l-0.38225,-0.18113l-3.8563,-3.16635l-2.99801,-2.36458l-2.98235,-2.05448l-2.50449,-0.66842l-1.61129,0.75047l-0.93901,1.1917c-0.12176,0.16078 -0.26207,0.31135 -0.42072,0.44858zM186.49606,191.47278l0.35307,-0.06822l0.12878,-0.1302l0.5036,0.00797l0.49449,-0.09556l0.14949,0.10577l0.35956,0.00571l4.01923,1.0727l0.43708,0.24207l0.46793,0.17518l3.47659,2.39495l0.06391,0.07248l0.08812,0.03964l1.63489,1.28946l3.29724,-6.94335l0.07345,-0.08931l-0.0021,-0.0982l0.46679,-0.46677l0.41935,-0.50984l0.09794,-0.00743l0.08176,-0.08176l5.09173,-3.0549l0.00403,-0.00977l0.03498,-0.01363l0.23508,-0.14104l0.57463,-0.17489l0.55956,-0.21831l0.27193,-0.03471l0.03591,-0.01092l0.00921,0.00516l2.49785,-0.31898l0.34654,-4.16874l0.17935,-2.69135l0.12307,-0.38219l0.03824,-0.39971l0.69417,-1.96007l-5.2846,-1.23996l-0.43958,-0.22631l-0.46867,-0.15752l-5.56922,-3.56361l-0.32535,-0.34466l-0.37768,-0.28633l-3.48151,-4.33046l-1.82578,1.69391l-0.28892,0.15896l-0.23698,0.22929l-3.46669,2.00325l-0.48252,0.13822l-0.45729,0.20693l-4.37096,0.79522l-0.19784,-0.0129l-0.18991,0.05696l-2.23352,0.10378l0.19178,0.95148l-0.00472,0.1023l0.03754,0.09527l0.34523,2.63249l0.424,2.56324l-0.00093,0.01139l0.00445,0.01051l0.53246,3.37763l-0.0319,0.35885l0.05605,0.35586l-0.30155,3.3882l-0.136,0.39222l-0.05262,0.41177l-1.00488,2.57498l-0.1193,0.16816l-0.0542,0.19895l-0.70286,1.25356l0.17867,0.68813l0,0.00001l0.00001,0l0.18085,0.69652l0.00076,0.08256l0.03546,0.07454l0.1048,0.51985l0.0055,0.00492l0.001,0.02737l0.05951,0.29523l-0.02728,0.59175l0.02152,0.592l-0.05801,0.27391z" fill="#be82ff"></path></g></g></g></svg>