<svg version="1.1" xmlns="http://www.w3.org/2000/svg" xmlns:xlink="http://www.w3.org/1999/xlink" width="334.58149" height="134.95821" viewBox="0,0,334.58149,134.95821"><g transform="translate(-45.87993,-144.12568)"><g data-paper-data="{&quot;isPaintingLayer&quot;:true}" fill-rule="nonzero" stroke-linejoin="miter" stroke-miterlimit="10" stroke-dasharray="" stroke-dashoffset="0" style="mix-blend-mode: normal"><path d="" data-paper-data="{&quot;index&quot;:null}" fill="none" stroke="#000000" stroke-width="1.5" stroke-linecap="round"></path><path d="" data-paper-data="{&quot;index&quot;:null}" fill="none" stroke="#000000" stroke-width="1.5" stroke-linecap="round"></path><path d="" data-paper-data="{&quot;index&quot;:null}" fill="none" stroke="#000000" stroke-width="1.5" stroke-linecap="round"></path><path d="" data-paper-data="{&quot;index&quot;:null}" fill="none" stroke="#000000" stroke-width="1.5" stroke-linecap="round"></path><path d="" data-paper-data="{&quot;index&quot;:null}" fill="none" stroke="#000000" stroke-width="1.5" stroke-linecap="round"></path><path d="M319.09515,206.33008" data-paper-data="{&quot;index&quot;:null}" fill="none" stroke="#d8d8d8" stroke-width="4" stroke-linecap="round"></path><path d="M289.92393,195.47557" data-paper-data="{&quot;index&quot;:null}" fill="none" stroke="#d8d8d8" stroke-width="4" stroke-linecap="round"></path><path d="M289.92393,195.47557" data-paper-data="{&quot;index&quot;:null}" fill="none" stroke="#d8d8d8" stroke-width="4" stroke-linecap="round"></path><path d="M246.59617,255.87341" data-paper-data="{&quot;index&quot;:null}" fill="none" stroke="#d8d8d8" stroke-width="4" stroke-linecap="round"></path><path d="M197.40988,237.57135" data-paper-data="{&quot;index&quot;:null}" fill="none" stroke="#d8d8d8" stroke-width="4" stroke-linecap="round"></path><path d="M197.40988,237.57135" data-paper-data="{&quot;index&quot;:null}" fill="none" stroke="#d8d8d8" stroke-width="4" stroke-linecap="round"></path><path d="M113.23186,278.07954c-36.78325,0 -66.60193,-29.8187 -66.60193,-66.60193c0,-36.78325 29.8187,-66.60193 66.60193,-66.60193c36.78325,0 66.60193,29.8187 66.60193,66.60193c0,36.78325 -29.8187,66.60193 -66.60193,66.60193z" fill="#d8d8d8" stroke="#000000" stroke-width="1.5" stroke-linecap="butt"></path><g><path d="M60.54213,262.10342l0.12297,-88.15508l45.03701,-27.47764l31.52964,-1.26749l42.57045,23.46838l1.84154,109.08039l-51.05199,-14.57522l-1.30975,-39.51567l-10.35233,-4.99585l-7.98967,4.5513l0.91476,37.65828l-51.72634,15.19151z" fill="#c3c3c3" stroke="#000000" stroke-width="2" stroke-linecap="round"></path><path d="M68.06985,208.9757l-0.41194,-19.21956l44.72123,5.19454l0.44488,20.75714z" fill="#c20000" stroke="none" stroke-width="0" stroke-linecap="butt"></path><path d="M130.54814,215.73118l-0.47402,-20.75647l44.44756,-7.16836l0.43891,19.21896z" data-paper-data="{&quot;index&quot;:null}" fill="#c20000" stroke="none" stroke-width="0" stroke-linecap="butt"></path></g><g stroke="#000000" stroke-linecap="butt"><path d="M346.69972,226.82689c0,0 -6.07281,-0.7212 -8.46295,1.40073c-1.40274,1.24533 -8.14402,-12.19582 -11.46469,-10.68935c-7.81934,3.54738 -14.32199,22.02559 -14.32199,22.02559l-9.19471,-10.35684c0,0 16.60754,-24.51842 32.7626,-25.40349c3.12233,-0.17108 10.19234,15.56226 10.19234,15.56226z" data-paper-data="{&quot;index&quot;:null}" fill="#a7a7a7" stroke-width="0"></path><path d="M293.93589,218.06761c0,0 10.45591,7.66276 12.74808,5.62779c3.54207,-3.14464 13.90449,-12.34429 18.1993,-16.15718c0.71295,2.09895 1.85404,4.09098 3.43028,5.84353c1.70827,1.89934 3.75024,3.32018 5.95716,4.25352c-4.13433,5.56468 -17.26136,21.80922 -30.09086,22.51214c-2.99437,0.16408 -9.77461,-14.92445 -9.77461,-14.92445l-0.46933,-7.15535z" fill="#919191" stroke-width="1"></path><path d="M324.21106,210.19274l50.19499,-42.52469c0,0 4.3215,-2.47911 5.41316,-1.2654c1.2269,1.36418 -0.81649,5.64779 -0.81649,5.64779l-47.78848,45.92879z" fill="#d2d2d2" stroke-width="0.5"></path></g></g></g></svg>