<svg version="1.1" xmlns="http://www.w3.org/2000/svg" xmlns:xlink="http://www.w3.org/1999/xlink" width="95.75305" height="80.5" viewBox="0,0,95.75305,80.5"><g transform="translate(-194.17088,-139.75)"><g data-paper-data="{&quot;isPaintingLayer&quot;:true}" fill-rule="nonzero" stroke-linejoin="miter" stroke-miterlimit="10" stroke-dasharray="" stroke-dashoffset="0" style="mix-blend-mode: normal"><g data-paper-data="{&quot;index&quot;:null}" stroke="#000000"><path d="M204.87632,165.5428c-1.83707,-0.82999 -5.36055,-0.69926 -7.42027,-2.3649c-2.44296,-1.97556 -3.28517,-5.70906 -3.28517,-5.70906l0.0514,-4.01489c0,0 3.36676,3.98215 6.83003,5.78356c2.98087,1.5505 6.01789,0.96062 7.21988,0.93333c4.53252,-0.1029 13.43998,-2.3418 13.43998,-2.3418l0.30291,10.35036c0,0 -12.05286,-0.33876 -17.13877,-2.63659z" fill="#b058be" stroke-width="0" stroke-linecap="butt"></path><path d="M216.18175,167.75992c0,0 -2.05768,-4.36815 -2.10239,-5.8958c-0.03427,-1.17072 1.85704,-2.48763 1.85704,-2.48763" fill="none" stroke-width="0.5" stroke-linecap="round"></path><path d="M212.04688,166.95796c0,0 -1.94155,-3.26723 -1.97684,-4.47308c-0.02882,-0.98457 1.78056,-2.23367 1.78056,-2.23367" fill="none" stroke-width="0.5" stroke-linecap="round"></path><path d="M207.15752,166.17809c0,0 -1.67829,-3.01317 -1.64763,-4.08301c0.02022,-0.70555 1.81367,-1.71138 1.81367,-1.71138" fill="none" stroke-width="0.5" stroke-linecap="round"></path><path d="M203.16822,164.61672c0,0 -1.36894,-2.21556 -1.37605,-2.98263c-0.00532,-0.57462 1.33721,-1.21153 1.33721,-1.21153" fill="none" stroke-width="0.5" stroke-linecap="round"></path><path d="M199.60302,163.21075c0,0 -1.26688,-2.33326 -1.29902,-2.98522c-0.03621,-0.73458 1.09251,-1.20404 1.09251,-1.20404" fill="none" stroke-width="0.5" stroke-linecap="round"></path><path d="M194.92099,159.18823c0,0 0.79732,-2.01018 1.18814,-2.37063c0.44035,-0.40615 1.32313,0.05442 1.32313,0.05442" fill="none" stroke-width="0.5" stroke-linecap="round"></path></g><path d="" data-paper-data="{&quot;index&quot;:null}" fill="none" stroke="#000000" stroke-width="1.5" stroke-linecap="round"></path><path d="" data-paper-data="{&quot;index&quot;:null}" fill="none" stroke="#000000" stroke-width="1.5" stroke-linecap="round"></path><path d="" data-paper-data="{&quot;index&quot;:null}" fill="none" stroke="#000000" stroke-width="1.5" stroke-linecap="round"></path><path d="" data-paper-data="{&quot;index&quot;:null}" fill="none" stroke="#000000" stroke-width="1.5" stroke-linecap="round"></path><path d="" data-paper-data="{&quot;index&quot;:null}" fill="none" stroke="#000000" stroke-width="1.5" stroke-linecap="round"></path><path d="M289.92393,195.47556" data-paper-data="{&quot;index&quot;:null}" fill="none" stroke="#d8d8d8" stroke-width="4" stroke-linecap="round"></path><path d="M240,219.5c-21.81525,0 -39.5,-17.68475 -39.5,-39.5c0,-21.81525 17.68475,-39.5 39.5,-39.5c21.81525,0 39.5,17.68475 39.5,39.5c0,21.81525 -17.68475,39.5 -39.5,39.5z" fill="#d8d8d8" stroke="#000000" stroke-width="1.5" stroke-linecap="butt"></path><path d="M228.05527,173.4834c-1.36912,0.69074 -3.94256,-1.65016 -5.74792,-5.22857c-1.80536,-3.57841 7.11704,4.53783 5.74792,5.22857z" fill="#ff6666" stroke="#000000" stroke-width="0" stroke-linecap="butt"></path><path d="M253.51823,187.77356l-33.69856,-3.15529" fill="none" stroke="#000000" stroke-width="0.5" stroke-linecap="round"></path><path d="M231.10793,185.75843l-6.21783,9.11743l-2.74141,-9.94892z" fill="#ffffff" stroke="#000000" stroke-width="0.5" stroke-linecap="round"></path><path d="M252.2234,187.89609l-5.57718,8.178l-2.45893,-8.92381z" fill="#ffffff" stroke="#000000" stroke-width="0.5" stroke-linecap="round"></path><g stroke="#000000"><path d="M257.19906,171.00453l0.30292,-10.35036c0,0 8.90747,2.2389 13.43998,2.3418c1.202,0.02729 4.239,0.61718 7.21988,-0.93333c3.46326,-1.80141 6.83004,-5.78356 6.83004,-5.78356l0.0514,4.01489c0,0 -0.8422,3.7335 -3.28517,5.70906c-2.05972,1.66565 -5.5832,1.5349 -7.42027,2.3649c-5.08591,2.29782 -17.13878,2.63659 -17.13878,2.63659z" fill="#b058be" stroke-width="0" stroke-linecap="butt"></path><path d="M263.27777,162.20162c0,0 1.89131,1.31691 1.85704,2.48763c-0.04471,1.52764 -2.10239,5.8958 -2.10239,5.8958" fill="none" stroke-width="0.5" stroke-linecap="round"></path><path d="M267.36357,163.07635c0,0 1.80938,1.2491 1.78056,2.23367c-0.03529,1.20585 -1.97684,4.47307 -1.97684,4.47307" fill="none" stroke-width="0.5" stroke-linecap="round"></path><path d="M271.89061,163.20884c0,0 1.79345,1.00583 1.81367,1.71138c0.03066,1.06984 -1.64763,4.083 -1.64763,4.083" fill="none" stroke-width="0.5" stroke-linecap="round"></path><path d="M276.08477,163.24768c0,0 1.34252,0.63692 1.3372,1.21154c-0.00711,0.76707 -1.37604,2.98263 -1.37604,2.98263" fill="none" stroke-width="0.5" stroke-linecap="round"></path><path d="M279.81766,161.84662c0,0 1.12872,0.46946 1.09251,1.20404c-0.03214,0.65196 -1.29902,2.98522 -1.29902,2.98522" fill="none" stroke-width="0.5" stroke-linecap="round"></path><path d="M281.78191,159.69716c0,0 0.88277,-0.46058 1.32313,-0.05443c0.39082,0.36046 1.18814,2.37064 1.18814,2.37064" fill="none" stroke-width="0.5" stroke-linecap="round"></path></g><path d="M241.89384,169.19243c-1.80536,3.57841 -4.37879,5.91931 -5.74792,5.22856c-1.36912,-0.69074 7.55328,-8.80697 5.74792,-5.22856z" data-paper-data="{&quot;index&quot;:null}" fill="#ff6666" stroke="#000000" stroke-width="0" stroke-linecap="butt"></path><g stroke="none" stroke-width="0.5" stroke-linecap="butt"><path d="M243.50446,203.50751c-0.00804,0.21997 -0.0967,0.61617 -0.61783,0.70106c-0.73026,0.11896 -0.84922,-0.6113 -0.84922,-0.6113c-0.12845,-0.81741 -0.11289,-1.54717 -0.62606,-2.23187c-1.47562,-1.96886 -5.08673,-1.46801 -7.17376,-1.47488c-0.28692,-0.00095 -2.37584,-0.00246 -2.44088,-0.03167c-1.35601,-0.60934 -0.99425,-1.51998 -1.29719,-2.67263c-0.62315,-2.37098 -1.68267,-4.47668 -3.56259,-6.04282c-1.3722,-1.15397 -2.92658,-2.95907 -4.79541,-3.28759c-1.24001,-0.21798 -2.65695,-0.22626 -3.91905,-0.26354c-0.63903,-0.01887 -3.23106,0.14922 -3.54254,-0.51879c-0.29871,-0.6406 0.60812,-1.2765 0.93532,-1.90303c0.44431,-0.85078 0.99104,-1.64591 1.42625,-2.50137c1.75867,-3.45689 3.01243,-7.1151 4.29908,-10.76223c0.29978,-1.77852 0.82968,-3.65447 0.9309,-5.45355c0.07791,-1.38502 -0.10623,-2.84859 -0.15181,-4.23755l-0.32985,-1.05186c-0.05394,-0.16967 -0.04717,-0.35921 0.03323,-0.53364c0.17104,-0.37111 0.61053,-0.53331 0.98165,-0.36227c0.14321,0.06601 0.25531,0.17198 0.32915,0.29859l0.53321,0.88544c0.68987,0.33355 1.81783,0.00017 2.50855,-0.15603c3.2244,-0.72919 6.11734,-3.58103 8.47562,-5.78911c0.01278,-0.01197 2.07558,-2.05688 2.08266,-2.06253c0.52041,-0.41532 1.00785,-1.27885 1.6543,-1.11943c0.68324,0.1685 0.76192,1.18451 1.10377,1.79961c0.36059,0.64881 0.34811,1.45005 0.63728,2.13368c0.34023,0.80431 0.94482,1.46924 1.39813,2.21569c2.00235,0.80459 4.01491,2.03196 6.25796,1.85547c1.54233,-0.12136 3.34284,-0.65658 4.67669,-1.41649c0.60332,-0.34371 1.16396,-1.27185 1.81314,-1.0255c0.66839,0.25364 0.54878,1.32223 0.76474,2.00373c0.16319,0.51497 0.36923,2.16635 0.42741,2.58187c0.27938,1.99543 1.04091,3.5 1.93034,5.28985c0.77768,1.56495 1.59948,2.85933 2.98402,3.92221c1.06916,0.83701 2.13897,1.36668 3.33283,1.95339c0.03322,-0.01693 0.05802,-0.02557 0.07303,-0.02464c0.14075,0.00871 0.26762,0.05178 0.38494,0.11853l0.02656,-0.05764l0.75015,0.34573c0.37111,0.17104 0.53331,0.61053 0.36227,0.98165c-0.15261,0.33113 -0.51895,0.49594 -0.85974,0.40611l-0.66173,-0.16071c-0.48602,1.02218 -1.98609,1.68594 -2.73065,2.48901c-1.11893,1.20685 -2.01978,2.67448 -2.62408,4.18392c-0.16229,0.40538 -0.4364,0.77905 -0.49903,1.21118c-0.06262,0.43213 0.09326,0.86834 0.13466,1.30302c0.06768,0.7105 -0.06387,1.4614 0.17486,2.134c0.68809,1.9386 2.00477,4.02305 3.18321,5.69812c0.39077,0.55546 2.04878,2.38844 1.87987,3.01881c-0.14952,0.558 -1.09525,0.36783 -1.64287,0.55174c-2.90965,0.82806 -4.5502,2.75916 -6.32287,5.09668c-1.33358,1.75851 -2.57286,3.48854 -3.59686,5.44622l-0.47841,0.91358c-0.18028,0.35003 -0.60612,0.49909 -0.96722,0.33267c-0.17597,-0.0811 -0.30497,-0.22257 -0.37374,-0.38848l-0.4643,-1.10955c-0.29777,-0.48941 -0.44111,-1.12142 -0.90033,-1.46391c-1.06152,-0.79169 -2.89023,-0.49841 -4.12846,-0.73392l-0.805,-0.34721c0,0 -0.05398,-0.02488 -0.12429,-0.07583zM243.36023,202.44032c0.33376,-0.45629 0.8879,-0.2009 0.8879,-0.2009l0.46449,0.23786c2.08133,0.40332 4.28806,-0.02895 5.6525,2.01949c0.14808,0.22231 0.25138,0.48564 0.30462,0.75965c1.0157,-1.8533 2.21095,-3.52442 3.49426,-5.21666c2.00813,-2.648 3.8919,-4.68172 7.15474,-5.63618c-0.87007,-0.59208 -1.37314,-1.71743 -1.90946,-2.56925c-1.07472,-1.70695 -2.49349,-3.77441 -2.6826,-5.79584c-0.0187,-0.19988 -0.27022,-3.01368 -0.25493,-3.1192c0.07888,-0.54427 0.38733,-1.02948 0.58695,-1.54193c0.8589,-2.20483 2.30739,-4.12795 4.10112,-5.66832c0.13096,-0.11246 0.68522,-0.59583 1.25271,-1.06997c-1.02756,-0.51479 -1.98254,-1.04515 -2.93977,-1.78629c-1.96334,-1.5462 -2.96177,-3.54728 -4.05924,-5.75537c-0.55353,-1.11369 -0.89665,-1.654 -1.192,-2.88463c-0.27863,-1.16099 -0.61935,-2.83249 -0.63302,-4.03321c-0.00349,-0.30613 0.4898,-0.84885 0.18779,-0.89905c-0.32058,-0.05328 -0.23321,0.63441 -0.47525,0.85126c-0.36803,0.32975 -0.83314,0.54214 -1.29001,0.73042c-1.11306,0.45871 -2.95129,0.8541 -4.13293,0.94402c-2.62759,0.19993 -5.00452,-1.15719 -7.30808,-2.20393c-0.13934,-0.20802 -1.68331,-2.48715 -1.80204,-2.76375c-0.20287,-0.47259 -0.21933,-1.00595 -0.36665,-1.49869c-0.06644,-0.22221 -0.22645,-0.41282 -0.27278,-0.64006c-0.06183,-0.3032 0.22795,-0.78471 -0.04676,-0.92716c-0.23773,-0.12328 -0.15726,0.52442 -0.32052,0.73669c-0.29522,0.38385 -0.68814,0.68152 -1.03227,1.02222c-1.0672,1.05656 -2.16653,2.07679 -3.31496,3.04582c-2.20201,1.85804 -4.73427,4.01812 -7.71322,4.31566c-0.37327,0.03729 -1.30934,0.15202 -2.06769,0.05892c0.07814,1.19784 0.18201,2.42795 0.11486,3.59925c-0.10834,1.88993 -0.65347,3.86035 -0.97478,5.72616c-1.30874,3.75219 -2.60596,7.51111 -4.41282,11.06272c-0.0075,0.01474 -1.49959,2.63221 -1.50655,2.64008c-0.21102,0.2386 -0.69709,0.18262 -0.8311,0.47158c-0.11782,0.25403 0.49219,-0.29627 0.7691,-0.33789c0.48847,-0.07342 0.98815,-0.01526 1.48188,-0.00046c0.8739,0.02621 1.74458,0.11832 2.61655,0.18208c0.53284,0.03896 1.07316,0.02268 1.59816,0.12181c2.14179,0.40439 3.8132,2.25837 5.40093,3.59359c1.80379,1.52947 2.68444,3.15358 3.50076,5.34428c0.33529,0.89977 0.46921,1.86226 0.71456,2.79059c0.03787,0.14327 0.12774,0.31759 0.27195,0.3517c0.60588,0.1433 1.24319,-0.08869 1.86577,-0.08669c2.63684,0.00851 6.5103,-0.40478 8.33263,2.04057c0.54442,0.73055 0.67818,1.28677 0.78518,1.98901z" fill="#a866ff"></path><path d="M243.7241,202.098c-0.00749,0.20503 -0.09013,0.57433 -0.57588,0.65347c-0.68068,0.11088 -0.79156,-0.56979 -0.79156,-0.56979c-0.11973,-0.76191 -0.10523,-1.44212 -0.58356,-2.08033c-1.37543,-1.83518 -4.74136,-1.36833 -6.68667,-1.37474c-0.26744,-0.00088 -2.21453,-0.00229 -2.27515,-0.02952c-1.26394,-0.56797 -0.92674,-1.41678 -1.20911,-2.49116c-0.58084,-2.21 -1.56841,-4.17272 -3.3207,-5.63252c-1.27903,-1.07562 -2.72787,-2.75816 -4.46982,-3.06437c-1.15582,-0.20317 -2.47655,-0.2109 -3.65296,-0.24564c-0.59564,-0.0176 -3.01167,0.13909 -3.30201,-0.48357c-0.27842,-0.5971 0.56683,-1.18983 0.87181,-1.77382c0.41414,-0.79301 0.92375,-1.53415 1.32941,-2.33154c1.63926,-3.22218 2.8079,-6.632 4.00719,-10.0315c0.27943,-1.65775 0.77335,-3.40634 0.86769,-5.08327c0.07263,-1.29098 -0.09901,-2.65517 -0.1415,-3.94983l-0.30746,-0.98044c-0.05028,-0.15815 -0.04396,-0.33482 0.03097,-0.49741c0.15942,-0.34591 0.56909,-0.4971 0.915,-0.33767c0.13349,0.06152 0.23797,0.16031 0.3068,0.27831l0.49701,0.82532c0.64302,0.3109 1.69439,0.00017 2.33823,-0.14544c3.00547,-0.67968 5.70198,-3.33789 7.90014,-5.39603c0.01192,-0.01116 1.93466,-1.91722 1.94126,-1.92248c0.48507,-0.38713 0.93942,-1.19202 1.54198,-1.04342c0.63684,0.15706 0.71019,1.10408 1.02883,1.67742c0.3361,0.60475 0.32447,1.3516 0.59401,1.98881c0.31712,0.7497 0.88068,1.36949 1.3032,2.06525c1.86639,0.74996 3.74231,1.89399 5.83306,1.72949c1.43761,-0.11312 3.11587,-0.612 4.35915,-1.3203c0.56235,-0.32037 1.08492,-1.1855 1.69003,-0.95588c0.62301,0.23642 0.51152,1.23245 0.71282,1.86768c0.15211,0.48 0.34416,2.01926 0.39839,2.40656c0.26042,1.85994 0.97024,3.26236 1.79928,4.93067c0.72488,1.45869 1.49089,2.66519 2.78141,3.65591c0.99656,0.78018 1.99374,1.27388 3.10653,1.82076c0.03097,-0.01578 0.05408,-0.02383 0.06807,-0.02296c0.1312,0.00812 0.24945,0.04827 0.3588,0.11048l0.02476,-0.05372l0.69922,0.32225c0.34591,0.15942 0.4971,0.56909 0.33767,0.915c-0.14224,0.30864 -0.48371,0.46226 -0.80136,0.37853l-0.6168,-0.1498c-0.45301,0.95278 -1.85123,1.57146 -2.54525,2.32001c-1.04296,1.12491 -1.88265,2.49289 -2.4459,3.89983c-0.15127,0.37785 -0.40677,0.72615 -0.46515,1.12894c-0.05837,0.4028 0.08693,0.80937 0.12551,1.21454c0.06308,0.66226 -0.05953,1.36217 0.16299,1.9891c0.64138,1.80697 1.86865,3.7499 2.96707,5.31123c0.36424,0.51774 1.90967,2.22627 1.75223,2.81384c-0.13936,0.52012 -1.02088,0.34286 -1.53133,0.51428c-2.7121,0.77184 -4.24125,2.57182 -5.89357,4.75063c-1.24303,1.63911 -2.39816,3.25167 -3.35263,5.07644l-0.44593,0.85156c-0.16804,0.32626 -0.56497,0.4652 -0.90154,0.31009c-0.16402,-0.07559 -0.28427,-0.20746 -0.34836,-0.3621l-0.43278,-1.03421c-0.27755,-0.45617 -0.41116,-1.04528 -0.83919,-1.36452c-0.98945,-0.73794 -2.69399,-0.46457 -3.84815,-0.68408l-0.75034,-0.32364c0,0 -0.05032,-0.02319 -0.11585,-0.07068zM243.58965,201.10327c0.3111,-0.42531 0.82762,-0.18726 0.82762,-0.18726l0.43295,0.22171c1.94,0.37595 3.99691,-0.02699 5.26871,1.88237c0.13802,0.20722 0.2343,0.45266 0.28394,0.70807c0.94672,-1.72747 2.06083,-3.28512 3.25701,-4.86245c1.87179,-2.46821 3.62764,-4.36383 6.66895,-5.2535c-0.81099,-0.55187 -1.2799,-1.60082 -1.77981,-2.3948c-1.00175,-1.59104 -2.32418,-3.51813 -2.50046,-5.40231c-0.01743,-0.18631 -0.25188,-2.80906 -0.23763,-2.9074c0.07352,-0.50731 0.36103,-0.95958 0.5471,-1.43724c0.80057,-2.05512 2.15072,-3.84767 3.82267,-5.28345c0.12207,-0.10483 0.6387,-0.55537 1.16766,-0.99733c-0.95779,-0.47984 -1.84793,-0.97419 -2.74016,-1.66501c-1.83004,-1.44121 -2.76067,-3.30643 -3.78363,-5.36459c-0.51595,-1.03808 -0.83577,-1.54169 -1.11107,-2.68877c-0.25971,-1.08216 -0.57729,-2.64017 -0.59003,-3.75937c-0.00325,-0.28535 0.45655,-0.79121 0.17504,-0.838c-0.29881,-0.04967 -0.21738,0.59132 -0.44299,0.79347c-0.34303,0.30737 -0.77656,0.50532 -1.20241,0.68082c-1.03748,0.42757 -2.7509,0.79612 -3.85231,0.87992c-2.44919,0.18636 -4.66472,-1.07862 -6.81188,-2.05429c-0.12987,-0.1939 -1.56901,-2.31828 -1.67968,-2.57609c-0.18909,-0.4405 -0.20444,-0.93765 -0.34175,-1.39693c-0.06192,-0.20711 -0.21108,-0.38479 -0.25426,-0.5966c-0.05763,-0.28262 0.21246,-0.73143 -0.04358,-0.86421c-0.22159,-0.11491 -0.14658,0.48881 -0.29876,0.68668c-0.27518,0.35779 -0.64141,0.63525 -0.96218,0.95281c-0.99474,0.98482 -2.01942,1.93578 -3.08987,2.83902c-2.05249,1.73188 -4.41282,3.7453 -7.18951,4.02263c-0.34793,0.03475 -1.22044,0.1417 -1.9273,0.05493c0.07283,1.11652 0.16965,2.26309 0.10706,3.35487c-0.10098,1.76161 -0.60911,3.59824 -0.9086,5.33736c-1.21989,3.49743 -2.42903,7.00112 -4.11321,10.31158c-0.00699,0.01374 -1.39777,2.45348 -1.40426,2.46083c-0.1967,0.2224 -0.64976,0.17022 -0.77467,0.43956c-0.10982,0.23678 0.45878,-0.27615 0.71688,-0.31495c0.45531,-0.06844 0.92105,-0.01423 1.38127,-0.00043c0.81456,0.02443 1.62612,0.11029 2.43889,0.16971c0.49666,0.03631 1.00031,0.02115 1.48964,0.11353c1.99636,0.37693 3.5543,2.10503 5.03422,3.34959c1.68132,1.42563 2.50216,2.93947 3.26307,4.98141c0.31252,0.83868 0.43736,1.73582 0.66605,2.60112c0.03529,0.13354 0.11906,0.29603 0.25348,0.32782c0.56474,0.13357 1.15878,-0.08267 1.7391,-0.08081c2.4578,0.00794 6.06827,-0.3773 7.76686,1.90202c0.50746,0.68095 0.63214,1.1994 0.73187,1.85395z" fill="#ffffff"></path></g></g></g></svg>