<svg version="1.1" xmlns="http://www.w3.org/2000/svg" xmlns:xlink="http://www.w3.org/1999/xlink" width="9.38204" height="14.20228" viewBox="0,0,9.38204,14.20228"><g transform="translate(-235.08988,-254.96028)"><g data-paper-data="{&quot;isPaintingLayer&quot;:true}" fill="#ae00ff" fill-rule="nonzero" stroke="none" stroke-width="0.5" stroke-linecap="butt" stroke-linejoin="miter" stroke-miterlimit="10" stroke-dasharray="" stroke-dashoffset="0" style="mix-blend-mode: normal"><path d="M241.97192,254.96028c2.5,0 2.5,2.5 2.5,2.5c0,0 0,6.57306 0,6.57306c0,1.38071 -1.11929,2.5 -2.5,2.5c-0.69181,0 -1.31798,-0.281 -1.77062,-0.73509l-0.12338,1.11041c-0.12362,1.2652 -1.19037,2.2539 -2.48804,2.2539c-1.38071,0 -2.5,-1.11929 -2.5,-2.5c0,-1.16854 0,-5.40451 0,-6.57306c0,0 0,-2.06875 1.88189,-2.44249c0.41689,-0.31136 0.93418,-0.49571 1.49452,-0.49571c0.35934,0 0.70097,0.07581 1.00977,0.21232c0.03084,-0.4598 0.29158,-2.40333 2.49586,-2.40333z"></path></g></g></svg>