<svg version="1.1" xmlns="http://www.w3.org/2000/svg" xmlns:xlink="http://www.w3.org/1999/xlink" width="273.21522" height="134.95821" viewBox="0,0,273.21522,134.95821"><g transform="translate(-45.87993,-144.12568)"><g data-paper-data="{&quot;isPaintingLayer&quot;:true}" fill-rule="nonzero" stroke-linejoin="miter" stroke-miterlimit="10" stroke-dasharray="" stroke-dashoffset="0" style="mix-blend-mode: normal"><path d="" data-paper-data="{&quot;index&quot;:null}" fill="none" stroke="#000000" stroke-width="1.5" stroke-linecap="round"></path><path d="" data-paper-data="{&quot;index&quot;:null}" fill="none" stroke="#000000" stroke-width="1.5" stroke-linecap="round"></path><path d="" data-paper-data="{&quot;index&quot;:null}" fill="none" stroke="#000000" stroke-width="1.5" stroke-linecap="round"></path><path d="" data-paper-data="{&quot;index&quot;:null}" fill="none" stroke="#000000" stroke-width="1.5" stroke-linecap="round"></path><path d="" data-paper-data="{&quot;index&quot;:null}" fill="none" stroke="#000000" stroke-width="1.5" stroke-linecap="round"></path><path d="M319.09515,206.33008" data-paper-data="{&quot;index&quot;:null}" fill="none" stroke="#d8d8d8" stroke-width="4" stroke-linecap="round"></path><path d="M289.92393,195.47557" data-paper-data="{&quot;index&quot;:null}" fill="none" stroke="#d8d8d8" stroke-width="4" stroke-linecap="round"></path><path d="M289.92393,195.47557" data-paper-data="{&quot;index&quot;:null}" fill="none" stroke="#d8d8d8" stroke-width="4" stroke-linecap="round"></path><path d="M246.59617,255.87341" data-paper-data="{&quot;index&quot;:null}" fill="none" stroke="#d8d8d8" stroke-width="4" stroke-linecap="round"></path><path d="M197.40983,237.57135" data-paper-data="{&quot;index&quot;:null}" fill="none" stroke="#d8d8d8" stroke-width="4" stroke-linecap="round"></path><path d="M197.40983,237.57135" data-paper-data="{&quot;index&quot;:null}" fill="none" stroke="#d8d8d8" stroke-width="4" stroke-linecap="round"></path><path d="M113.23186,278.07954c-36.78325,0 -66.60193,-29.8187 -66.60193,-66.60193c0,-36.78325 29.8187,-66.60193 66.60193,-66.60193c36.78325,0 66.60193,29.8187 66.60193,66.60193c0,36.78325 -29.8187,66.60193 -66.60193,66.60193z" fill="#d8d8d8" stroke="#000000" stroke-width="1.5" stroke-linecap="butt"></path><g><path d="M53.36628,262.10342l0.12297,-88.15508l45.03701,-27.47764l31.52964,-1.26749l42.57045,23.46838l1.84154,109.08039l-51.05199,-14.57522l-1.30975,-39.51567l-10.35233,-4.99585l-7.98967,4.5513l0.91476,37.65828l-51.72634,15.19151z" fill="#c3c3c3" stroke="#000000" stroke-width="2" stroke-linecap="round"></path><path d="M58.98045,208.9757l-0.41194,-19.21956l44.72123,5.19454l0.44488,20.75714z" fill="#c20000" stroke="none" stroke-width="0" stroke-linecap="butt"></path><path d="M121.45875,215.73118l-0.47402,-20.75647l44.44756,-7.16836l0.43891,19.21896z" data-paper-data="{&quot;index&quot;:null}" fill="#c20000" stroke="none" stroke-width="0" stroke-linecap="butt"></path></g><g stroke="#000000" stroke-linecap="butt"><path d="M131.72583,221.39534c0,0 4.43521,4.21047 7.61986,3.93969c1.86904,-0.15892 -0.76866,14.64487 2.79355,15.42393c8.38814,1.83446 24.65216,-9.0839 24.65216,-9.0839l1.17335,13.79964c0,0 -27.97486,9.71446 -41.45054,0.76038c-2.6045,-1.73056 1.14087,-18.56788 1.14087,-18.56788z" data-paper-data="{&quot;index&quot;:null}" fill="#a7a7a7" stroke-width="0"></path><path d="M168.76998,259.97613c0,0 -3.79553,-12.39506 -6.84968,-12.13538c-4.71954,0.4013 -18.52659,1.57527 -24.24907,2.06183c0.68418,-2.1085 0.96128,-4.38742 0.74642,-6.73473c-0.23286,-2.54391 -1.01934,-4.90396 -2.22963,-6.97201c6.64174,-1.9864 26.87827,-7.1523 37.57997,-0.04147c2.49775,1.65963 -1.0941,17.8069 -1.0941,17.8069l-3.90394,6.01486z" fill="#919191" stroke-width="1"></path><path d="M139.79777,248.17741l-65.66167,4.0535c0,0 -4.94606,-0.59825 -5.09488,-2.2239c-0.16722,-1.82709 4.03262,-4.0376 4.03262,-4.0376l65.76936,-8.22095z" fill="#d2d2d2" stroke-width="0.5"></path></g></g></g></svg>