<svg version="1.1" xmlns="http://www.w3.org/2000/svg" xmlns:xlink="http://www.w3.org/1999/xlink" width="88.12592" height="48.41486" viewBox="0,0,88.12592,48.41486"><g transform="translate(-194.08602,-91.85046)"><g data-paper-data="{&quot;isPaintingLayer&quot;:true}" fill-rule="nonzero" stroke-linejoin="miter" stroke-miterlimit="10" stroke-dasharray="" stroke-dashoffset="0" style="mix-blend-mode: normal"><path d="" data-paper-data="{&quot;index&quot;:null}" fill="none" stroke="#000000" stroke-width="1.5" stroke-linecap="round"></path><path d="" data-paper-data="{&quot;index&quot;:null}" fill="none" stroke="#000000" stroke-width="1.5" stroke-linecap="round"></path><path d="" data-paper-data="{&quot;index&quot;:null}" fill="none" stroke="#000000" stroke-width="1.5" stroke-linecap="round"></path><path d="" data-paper-data="{&quot;index&quot;:null}" fill="none" stroke="#000000" stroke-width="1.5" stroke-linecap="round"></path><path d="" data-paper-data="{&quot;index&quot;:null}" fill="none" stroke="#000000" stroke-width="1.5" stroke-linecap="round"></path><path d="" data-paper-data="{&quot;index&quot;:null}" fill="none" stroke="#000000" stroke-width="1.5" stroke-linecap="round"></path><path d="" data-paper-data="{&quot;index&quot;:null}" fill="none" stroke="#000000" stroke-width="1.5" stroke-linecap="round"></path><path d="" data-paper-data="{&quot;index&quot;:null}" fill="none" stroke="#000000" stroke-width="1.5" stroke-linecap="round"></path><path d="" data-paper-data="{&quot;index&quot;:null}" fill="none" stroke="#000000" stroke-width="1.5" stroke-linecap="round"></path><path d="" data-paper-data="{&quot;index&quot;:null}" fill="none" stroke="#000000" stroke-width="1.5" stroke-linecap="round"></path><g stroke="#5eff00"><path d="M268.23468,116.02573c0,5.84344 -13.24217,10.58048 -29.57722,10.58048c-16.33505,0 -29.57722,-4.73704 -29.57722,-10.58048c0,-5.84343 13.24218,-10.58047 29.57723,-10.58047c16.33505,0 29.57722,4.73703 29.57722,10.58047z" fill="none" stroke-width="6.5" stroke-linecap="butt"></path><g><g><path d="M236.12436,133.7447v-5.70945h2.75628v5.70945z" fill="none" stroke-width="4" stroke-linecap="butt"></path><path d="M243.16824,133.8322l-4.80905,5.03229l-5.6317,-5.1893z" fill="#5eff00" stroke-width="2" stroke-linecap="round"></path></g><g><path d="M257.87701,131.08912l-1.97729,-5.35613l2.58572,-0.95456l1.97729,5.35613z" fill="none" stroke-width="4" stroke-linecap="butt"></path><path d="M264.5153,128.73177l-2.76867,6.38635l-7.08035,-2.91781z" fill="#5eff00" stroke-width="2" stroke-linecap="round"></path></g><g><path d="M275.4955,118.0886l-5.68062,-0.57297l0.27661,-2.74238l5.68062,0.57297z" fill="none" stroke-width="4" stroke-linecap="butt"></path><path d="M276.28945,111.08906l4.52427,5.28979l-5.72828,5.08249z" fill="#5eff00" stroke-width="2" stroke-linecap="round"></path></g><g data-paper-data="{&quot;index&quot;:null}"><path d="M239.54934,98.37107v5.70945h-2.75628v-5.70945z" fill="none" stroke-width="4" stroke-linecap="butt"></path><path d="M233.39619,98.44058l5.6317,-5.1893l4.80905,5.03229z" fill="#5eff00" stroke-width="2" stroke-linecap="round"></path></g><g data-paper-data="{&quot;index&quot;:null}"><path d="M261.13143,101.9812l-1.97729,5.35613l-2.58572,-0.95456l1.97729,-5.35612z" fill="none" stroke-width="4" stroke-linecap="butt"></path><path d="M255.33498,99.91546l7.08034,-2.91781l2.76868,6.38634z" fill="#5eff00" stroke-width="2" stroke-linecap="round"></path></g><g data-paper-data="{&quot;index&quot;:null}"><path d="M215.83524,130.21263l1.97729,-5.35613l2.58572,0.95456l-1.97729,5.35613z" fill="none" stroke-width="4" stroke-linecap="butt"></path><path d="M221.63168,132.27837l-7.08034,2.91781l-2.76868,-6.38635z" fill="#5eff00" stroke-width="2" stroke-linecap="round"></path></g><g data-paper-data="{&quot;index&quot;:null}"><path d="M200.52586,115.42429l5.68062,-0.57297l0.27661,2.74238l-5.68062,0.57297z" fill="none" stroke-width="4" stroke-linecap="butt"></path><path d="M201.21252,121.5394l-5.72828,-5.08249l4.52427,-5.28979z" fill="#5eff00" stroke-width="2" stroke-linecap="round"></path></g><g data-paper-data="{&quot;index&quot;:null}"><path d="M217.75226,101.10471l1.97729,5.35613l-2.58572,0.95455l-1.97729,-5.35612z" fill="none" stroke-width="4" stroke-linecap="butt"></path><path d="M211.11397,103.46206l2.76868,-6.38635l7.08034,2.91781z" fill="#5eff00" stroke-width="2" stroke-linecap="round"></path></g></g></g></g></g></svg>