<svg version="1.1" xmlns="http://www.w3.org/2000/svg" xmlns:xlink="http://www.w3.org/1999/xlink" width="82.43436" height="80.5182" viewBox="0,0,82.43436,80.5182"><g transform="translate(-197.79315,-139.47554)"><g data-paper-data="{&quot;isPaintingLayer&quot;:true}" fill-rule="nonzero" stroke-linejoin="miter" stroke-miterlimit="10" stroke-dasharray="" stroke-dashoffset="0" style="mix-blend-mode: normal"><path d="" data-paper-data="{&quot;index&quot;:null}" fill="none" stroke="#000000" stroke-width="1.5" stroke-linecap="round"></path><path d="M201.57388,189.01422c-5.12497,-21.20471 7.91024,-42.54913 29.11495,-47.6741c21.20471,-5.12497 42.54913,7.91024 47.6741,29.11495c5.12497,21.20471 -7.91024,42.54913 -29.11495,47.6741c-21.20471,5.12497 -42.54913,-7.91024 -47.6741,-29.11495z" fill="#d8d8d8" stroke="#000000" stroke-width="1.5" stroke-linecap="butt"></path><path d="M228.10496,177.06124l-2.53254,-9.49095" fill="none" stroke="#000000" stroke-width="1.5" stroke-linecap="round"></path><path d="M240.63951,173.95727l-2.53254,-9.49095" fill="none" stroke="#000000" stroke-width="1.5" stroke-linecap="round"></path><path d="M243.10481,190.59873l-10.64977,2.57394" fill="none" stroke="#000000" stroke-width="1.5" stroke-linecap="round"></path><path d="M199.33457,189.36507c-4.7886,-19.81297 7.39106,-39.75649 27.20404,-44.54508c19.81297,-4.7886 39.75649,7.39106 44.54508,27.20404c4.7886,19.81297 -7.39106,39.75649 -27.20404,44.54508c-19.81297,4.7886 -39.75649,-7.39106 -44.54508,-27.20404z" fill="#8900b2" stroke="#000000" stroke-width="1" stroke-linecap="butt"></path><path d="M267.36069,163.54984l-2.79921,-3.98454l5.31273,-3.73228l2.79921,3.98454z" fill="#000000" stroke="#000000" stroke-width="1" stroke-linecap="butt"></path><path d="M270.82967,191.91567l2.04527,-4.64179l5.19879,2.29071l-2.04527,4.64179z" fill="#000000" stroke="#000000" stroke-width="1" stroke-linecap="butt"></path><path d="M213.41135,205.76498l1.71076,-5.45661l38.5197,-8.26722l-7.17846,-30.06418l-33.33182,3.3942l-6.64516,-2.45266l5.25968,-5.97214l42.65505,-4.2559l10.52754,44.4217l-45.42737,11.40709z" fill="#e7ff00" stroke="#000000" stroke-width="0" stroke-linecap="butt"></path><path d="M208.11444,181.41151l13.87437,0.40399l-6.85444,10.04215" fill="none" stroke="#e7ff00" stroke-width="3" stroke-linecap="round"></path><path d="M219.77704,183.42972l-12.40328,6.5463" fill="none" stroke="#e7ff00" stroke-width="3" stroke-linecap="round"></path><path d="M241.89127,169.86964l-12.40329,6.5463" fill="none" stroke="#e7ff00" stroke-width="3" stroke-linecap="round"></path><path d="M241.12198,179.24005l-13.87437,-0.40399l6.85444,-10.04215" data-paper-data="{&quot;index&quot;:null}" fill="none" stroke="#e7ff00" stroke-width="3" stroke-linecap="round"></path></g></g></svg>