<svg version="1.1" xmlns="http://www.w3.org/2000/svg" xmlns:xlink="http://www.w3.org/1999/xlink" width="116.39004" height="80.5" viewBox="0,0,116.39004,80.5"><g transform="translate(-163.85997,-139.75)"><g data-paper-data="{&quot;isPaintingLayer&quot;:true}" fill-rule="nonzero" stroke-linejoin="miter" stroke-miterlimit="10" stroke-dasharray="" stroke-dashoffset="0" style="mix-blend-mode: normal"><path d="" data-paper-data="{&quot;index&quot;:null}" fill="none" stroke="#000000" stroke-width="1.5" stroke-linecap="round"></path><path d="M200.5,180c0,-21.81525 17.68475,-39.5 39.5,-39.5c21.81525,0 39.5,17.68475 39.5,39.5c0,21.81525 -17.68475,39.5 -39.5,39.5c-21.81525,0 -39.5,-17.68475 -39.5,-39.5z" fill="#d8d8d8" stroke="#000000" stroke-width="1.5" stroke-linecap="butt"></path><path d="M225.51005,194.79568c5.44898,-2.88817 27.57511,5.13694 27.57511,5.13694" data-paper-data="{&quot;index&quot;:null}" fill="none" stroke="#000000" stroke-width="1.5" stroke-linecap="round"></path><path d="M240.25489,167.17564l6.93986,4.16391l-6.59286,1.38797l-3.29643,5.89888l-2.25545,-6.41937l-7.46035,-3.64343l7.11335,-2.08196l3.99042,-7.46035z" fill="#be82ff" stroke="#000000" stroke-width="0" stroke-linecap="round"></path><path d="M231.46729,179.20413l-10.7662,-2.43108" fill="none" stroke="#000000" stroke-width="1.5" stroke-linecap="round"></path><path d="M225.50349,176.87634l1.38919,-9.72431" fill="none" stroke="#000000" stroke-width="1.5" stroke-linecap="round"></path><path d="M228.49518,166.79922l-10.3457,-3.84548" fill="none" stroke="#000000" stroke-width="1.5" stroke-linecap="round"></path><g stroke-linecap="round"><path d="M205.35516,172.6208l6.74126,4.1848l-2.52161,8.72922l-7.50207,3.94226l-6.62997,-5.00956" fill="none" stroke="#4d6200" stroke-width="4.5"></path><path d="M218.46102,193.11624l-7.00497,-7.8314" fill="none" stroke="#4d6200" stroke-width="4.5"></path><path d="M188.30536,169.84771l6.38533,-1.58593l11.23454,7.8937l0.44877,7.0474l-5.83543,0.96125l-11.47694,-7.99621z" fill="#7d00ff" stroke="#7f00ff" stroke-width="0.5"></path><path d="M191.13647,171.6771l4.47437,-1.11131l7.87235,5.53132l0.31447,4.93829l-4.08905,0.67357l-8.04219,-5.60316z" fill="#be82ff" stroke="#7f00ff" stroke-width="0"></path><g fill="none" stroke="#4d6200"><path d="M241.22471,199.29524l23.95429,7.93525l-1.03821,2.7151l-23.60213,-8.05568z" stroke-width="3"></path><path d="M240.07975,203.42354l-4.28529,-6.20475l1.51537,-1.89492l5.11003,6.31604l19.94183,6.55402" stroke-width="3"></path><path d="M217.04782,193.0095l24.96052,1.10095l-1.39037,2.83555l-23.90404,-1.46225z" stroke-width="3"></path><path d="M240.25667,195.88951l-22.84301,-1.23508l-6.75953,-6.53863" stroke-width="4.5"></path></g></g><g stroke="none" stroke-width="0.5" stroke-linecap="butt"><path d="M199.21343,209.94152c-0.10735,0.38045 -0.26851,0.73118 -0.4729,1.04631l-0.03625,0.10597l-0.05199,0.02413c-0.9116,1.28576 -2.56495,1.92393 -4.16854,1.4714c-1.1016,-0.31087 -1.95417,-1.07281 -2.414,-2.02919l-0.04883,-0.03369l-0.01847,-0.11419c-0.25273,-0.58786 -0.36017,-1.24157 -0.29095,-1.90501l0.09473,-1.11588l-0.95863,1.19115l-3.82203,-0.55867l-1.01444,-1.42402l-0.26341,-0.26544l-0.6217,-0.56096l-0.49957,-0.45076l-0.51402,-0.34667l-0.25338,-0.28171l-0.32416,-0.19618l-0.79794,-0.80408l-1.00984,-1.69777l0.01089,-0.03937l-0.02861,-0.02912l0.05938,-1.97449l0.12035,-0.42647l-0.08128,-1.13262l-0.58723,-2.74705l-1.63041,-3.02812l-2.69055,-2.95241l-2.34616,-2.53566l-0.03173,-0.05785l-0.05397,-0.03795l-2.23229,-2.58103l-1.99174,-2.00708l-4.15856,-2.61229l-0.43203,-0.24583l-0.34493,-0.32935l-0.51473,-0.29471l-0.0643,-0.25815l-0.50474,-0.48194l-0.00283,-1.5559l-0.36168,-1.45214l0.35839,-0.35216l-0.00091,-0.50247l1.28789,-0.76211l1.10983,-1.09047l0.69756,0.02097l0.22896,-0.13548l0.57127,0.15954l0.47671,0.01433l0.12947,0.03653l1.21391,-0.02454l1.25084,-0.11069l1.3481,-0.54679l1.9926,-1.45009l3.54289,-3.38515l1.85791,-3.7112l0.7414,-3.02729l-0.04797,-2.96583l-0.45064,-1.70726l-0.32396,-0.35548l-0.27826,-0.51665l-0.36803,-0.45707l-0.99992,-2.16361l-0.04174,-0.21947l-0.1193,-0.18889l-0.06692,-0.20304l-0.04355,-0.05727l0.00801,-0.05061l-0.05529,-0.16778l-0.14474,-1.97008l0.65191,-0.72359l0.14265,-0.90332l1.04147,-0.41102l0.74944,-0.83183l0.89614,0.18243l0.90594,-0.35753l1.7949,0.82491l0.13784,0.1105l0.05022,0.01022l0.03841,0.06083l0.39298,0.31504l0.03919,0.00313l0.06667,0.08173l0.11052,0.0886l0.52409,0.68935l0.54738,0.67101l0.06024,0.12819l0.06384,0.08396l-0.00614,0.03883l0.97978,2.08496l0.05873,0.29841l1.37074,1.50413l2.3827,1.98577l5.99182,1.92579l7.3815,-0.09927l5.90368,-2.16978l0.77504,-0.68495l1.95023,-1.84976l1.72016,-0.9712l0.22019,0.06636l0.13406,-0.10548l1.64927,0.64285l1.69484,0.51072l0.04052,0.16569l0.21429,0.08353l0.75551,1.82522l0.19675,1.32438l0.35179,2.09938l1.06865,4.32382l1.49943,2.64245l0.00865,0.03114l0.02191,0.02376l2.55377,4.67759l0.522,0.44242l0.06644,0.02688l0.84541,0.06767l0.79798,0.26875l0.92151,0.26273l0.03062,0.05791l0.12198,0.04108l0.80067,1.70392l0.85223,1.6118l-0.05379,0.08736l0.04363,0.09287l-1.02799,1.5058l-0.98712,1.60313l-0.12583,0.0271l-0.03692,0.0541l-0.94519,0.1575l-0.55546,0.11968l-0.36877,0.11718l-1.77184,0.73676l-2.98597,2.56491l-2.70071,5.6235l1.10673,7.89213l3.24908,2.99194l0.55587,0.34103l1.38294,1.41056l-0.02122,0.68081l0.40204,0.47426l-0.4578,1.31447l-0.04336,1.39124l-0.54521,0.29879l-0.22403,0.64326l-1.79638,0.82167l-0.61807,0.11502l-0.55331,-0.03377l-0.54891,0.07745l-6.50322,-0.68398l-4.98583,-0.42557l-4.74507,-0.09753l-3.22261,1.07461l-1.22201,1.98317l-0.16817,1.98119c-0.01727,0.26374 -0.06225,0.52968 -0.13691,0.79428zM194.94458,199.97653l0.33714,-0.32927l0.04703,-0.23531l0.55683,-0.35443l0.47221,-0.46118l0.23985,0.00794l0.39756,-0.25305l5.17171,-1.72454l0.65285,-0.05029l0.63836,-0.14573l5.53143,0.11369l0.1222,0.03323l0.12501,-0.02016l2.71889,0.23208l-1.39893,-9.9757l0.01599,-0.15069l-0.07311,-0.10595l0.1742,-0.84742l0.09124,-0.86031l0.10181,-0.07877l0.03051,-0.14842l3.36882,-7.01469l-0.00261,-0.01358l0.02843,-0.04015l0.15554,-0.32385l0.5027,-0.60574l0.45488,-0.64241l0.27251,-0.2341l0.03142,-0.03785l0.0138,-0.00098l2.50336,-2.15032l-2.62698,-4.81169l-1.74455,-3.07442l-0.14095,-0.50699l-0.24638,-0.46497l-0.65383,-2.64545l-6.67699,2.45398l-0.64422,0.06933l-0.62644,0.1656l-8.66409,0.11651l-0.60456,-0.14253l-0.61978,-0.04097l-6.93254,-2.22816l-0.77639,3.17022l-0.20152,0.38227l-0.09395,0.42179l-2.34893,4.69204l-0.42832,0.4992l-0.35118,0.55619l-4.20962,4.02219l-0.22579,0.12859l-0.16674,0.19928l-2.36928,1.72421l0.896,0.90291l0.06861,0.11534l0.10979,0.07719l2.27615,2.63174l2.31239,2.49912l0.00719,0.01311l0.01244,0.00829l3.01835,3.3121l0.22387,0.41565l0.31795,0.34898l2.11334,3.92508l0.13403,0.52726l0.23936,0.48854l0.75724,3.5424l-0.0093,0.27005l0.08413,0.25678l0.13483,1.87861l0.69173,0.62416l0,0.00001l0.00001,0l0.70018,0.63176l0.06036,0.08979l0.09256,0.05601l0.48954,0.49331l0.00957,0.0014l0.02081,0.02923l0.27803,0.28015l0.39686,0.66723l0.45043,0.63229l0.13405,0.34156z" fill="#7d00ff"></path><path d="M198.81152,202.80673c-0.08193,0.29031 -0.20489,0.55793 -0.36085,0.79838l-0.02767,0.08087l-0.03968,0.01841c-0.69558,0.9811 -1.95721,1.46807 -3.18082,1.12278c-0.84058,-0.2372 -1.49114,-0.81862 -1.84202,-1.54839l-0.03727,-0.02572l-0.01409,-0.08713c-0.19284,-0.44858 -0.27484,-0.94738 -0.22202,-1.45363l0.07227,-0.85147l-0.73148,0.90891l-2.91643,-0.42628l-0.77406,-1.0866l-0.201,-0.20254l-0.47438,-0.42805l-0.38121,-0.34396l-0.39224,-0.26453l-0.19333,-0.21496l-0.24734,-0.14969l-0.60889,-0.61356l-0.77055,-1.29548l0.00833,-0.03003l-0.02183,-0.02223l0.04531,-1.50663l0.09183,-0.32542l-0.06203,-0.86426l-0.44809,-2.09617l-1.24409,-2.31062l-2.05306,-2.25286l-1.79026,-1.93484l-0.0242,-0.04414l-0.04117,-0.02896l-1.70336,-1.96945l-1.5198,-1.53149l-3.17321,-1.99333l-0.32968,-0.18759l-0.26321,-0.25132l-0.39277,-0.2249l-0.04907,-0.19699l-0.38513,-0.36775l-0.00217,-1.18724l-0.276,-1.10805l0.27347,-0.26871l-0.00069,-0.3834l0.98275,-0.58151l0.84686,-0.83209l0.53229,0.01601l0.1747,-0.10338l0.4359,0.12174l0.36375,0.01095l0.0988,0.02788l0.92628,-0.01874l0.95447,-0.08447l1.02867,-0.41722l1.52047,-1.10651l2.70342,-2.58306l1.41768,-2.83184l0.56571,-2.30999l-0.0366,-2.26308l-0.34386,-1.30274l-0.24719,-0.27125l-0.21233,-0.39424l-0.28083,-0.34878l-0.763,-1.65096l-0.03186,-0.16747l-0.09102,-0.14413l-0.05105,-0.15493l-0.0332,-0.04371l0.0061,-0.03862l-0.04219,-0.12802l-0.11044,-1.50327l0.49743,-0.55212l0.10885,-0.68928l0.7947,-0.31362l0.57186,-0.63474l0.68378,0.1392l0.69128,-0.27281l1.36962,0.62944l0.10517,0.0843l0.03831,0.00779l0.02932,0.04641l0.29987,0.24039l0.02989,0.00238l0.05088,0.06236l0.08432,0.0676l0.39992,0.52602l0.41769,0.51202l0.04596,0.09784l0.04872,0.06408l-0.00469,0.02962l0.74761,1.59094l0.04481,0.22771l1.04593,1.14774l1.81814,1.51525l4.57209,1.46949l5.63249,-0.07574l4.50484,-1.65565l0.59141,-0.52265l1.48813,-1.41146l1.31255,-0.74107l0.16803,0.05065l0.10228,-0.08048l1.25851,0.49054l1.29327,0.3897l0.03091,0.12642l0.1635,0.06373l0.5765,1.39274l0.15014,1.01057l0.26844,1.60194l0.81543,3.29934l1.14415,2.01633l0.00661,0.02378l0.01671,0.01815l1.94868,3.56926l0.3983,0.33759l0.05068,0.0205l0.64509,0.05164l0.60889,0.20506l0.70315,0.20047l0.02336,0.0442l0.09307,0.03135l0.61096,1.30017l0.65029,1.22991l-0.04105,0.06666l0.0333,0.07085l-0.78443,1.149l-0.75322,1.22327l-0.09601,0.02069l-0.0282,0.04128l-0.72124,0.12018l-0.42385,0.09132l-0.28139,0.0894l-1.35202,0.56219l-2.27847,1.95718l-2.06078,4.29103l0.84451,6.02212l2.47923,2.283l0.42415,0.26023l1.05525,1.07633l-0.0162,0.5195l0.30677,0.36188l-0.3493,1.00301l-0.03311,1.06157l-0.41604,0.22802l-0.17094,0.49085l-1.37073,0.62698l-0.47163,0.08778l-0.42222,-0.02578l-0.41885,0.0591l-4.9623,-0.52193l-3.80445,-0.32473l-3.62074,-0.07442l-2.45904,0.81998l-0.93247,1.51326l-0.12833,1.51176c-0.01319,0.20125 -0.0475,0.40418 -0.10447,0.60606zM195.55414,195.2029l0.25727,-0.25125l0.03589,-0.17957l0.42489,-0.27045l0.36032,-0.35189l0.18302,0.00606l0.30337,-0.19309l3.9463,-1.31591l0.49816,-0.03838l0.48711,-0.11121l4.22078,0.08675l0.09325,0.02535l0.09539,-0.01539l2.07466,0.17708l-1.06745,-7.612l0.01218,-0.11499l-0.05579,-0.08084l0.13293,-0.64661l0.06961,-0.65647l0.07769,-0.0601l0.02328,-0.11326l2.57059,-5.35259l-0.00201,-0.01038l0.0217,-0.03063l0.11868,-0.24712l0.38358,-0.46222l0.3471,-0.49019l0.20796,-0.17861l0.02398,-0.02888l0.01053,-0.00076l1.91018,-1.64081l-2.00453,-3.67157l-1.33118,-2.34595l-0.10754,-0.38685l-0.18801,-0.35479l-0.49891,-2.01862l-5.09491,1.87253l-0.49157,0.05292l-0.47801,0.12636l-6.61117,0.08891l-0.46132,-0.10876l-0.47292,-0.03126l-5.28991,-1.70019l-0.59243,2.41905l-0.15377,0.29171l-0.07171,0.32186l-1.79236,3.58028l-0.32685,0.38092l-0.26797,0.42441l-3.21215,3.06916l-0.17229,0.0981l-0.12723,0.15206l-1.80788,1.31567l0.6837,0.68896l0.05235,0.08802l0.08377,0.0589l1.73681,2.00815l1.76448,1.90698l0.00549,0.01002l0.0095,0.00633l2.30317,2.52731l0.17082,0.31719l0.24261,0.2663l1.61259,2.99506l0.10227,0.40233l0.18264,0.37278l0.57783,2.70305l-0.00708,0.20605l0.06421,0.19595l0.1029,1.43347l0.52784,0.47627l0,0.00001l0.00001,0l0.53427,0.48207l0.04606,0.06852l0.07063,0.04273l0.37356,0.3764l0.0073,0.00108l0.01589,0.0223l0.21214,0.21377l0.30283,0.50912l0.34372,0.48247l0.10228,0.26063z" fill="#be82ff"></path></g></g></g></svg>