<svg version="1.1" xmlns="http://www.w3.org/2000/svg" xmlns:xlink="http://www.w3.org/1999/xlink" width="40.25107" height="30.60206" viewBox="0,0,40.25107,30.60206"><defs><linearGradient x1="236.25036" y1="189.40646" x2="246.55426" y2="171.64289" gradientUnits="userSpaceOnUse" id="color-1"><stop offset="0" stop-color="#eccdff"></stop><stop offset="1" stop-color="#b1b9ff"></stop></linearGradient></defs><g transform="translate(-218.93305,-168.19263)"><g data-paper-data="{&quot;isPaintingLayer&quot;:true}" fill-rule="nonzero" stroke-linejoin="miter" stroke-miterlimit="10" stroke-dasharray="" stroke-dashoffset="0" style="mix-blend-mode: normal"><path d="M239.04004,196.33157c-6.00021,-3.76471 -22.82858,-18.97281 -19.06389,-24.97302c3.76471,-6.00021 26.69687,-0.52042 32.69709,3.24429c6.00021,3.76471 7.8125,11.68074 4.04777,17.68098c-3.76471,6.00021 -11.68074,7.8125 -17.68098,4.04777z" fill="#eccdff" stroke="#b000ff" stroke-width="1" stroke-linecap="butt"></path><path d="" data-paper-data="{&quot;index&quot;:null}" fill="none" stroke="#000000" stroke-width="1.5" stroke-linecap="round"></path><path d="M241.70775,192.5648c-4.80379,-3.01402 -18.27653,-15.18958 -15.26251,-19.99334c3.01402,-4.80379 21.37344,-0.41664 26.17722,2.59739c4.80379,3.01402 6.25463,9.35157 3.24064,14.15533c-3.01402,4.80379 -9.35157,6.25463 -14.15533,3.24064z" fill="url(#color-1)" stroke="none" stroke-width="NaN" stroke-linecap="butt"></path></g></g></svg>