<svg version="1.1" xmlns="http://www.w3.org/2000/svg" xmlns:xlink="http://www.w3.org/1999/xlink" width="129.33115" height="122.15429" viewBox="0,0,129.33115,122.15429"><g transform="translate(-174.29636,-117.27286)"><g data-paper-data="{&quot;isPaintingLayer&quot;:true}" fill-rule="nonzero" stroke-linejoin="miter" stroke-miterlimit="10" stroke-dasharray="" stroke-dashoffset="0" style="mix-blend-mode: normal"><g data-paper-data="{&quot;index&quot;:null}" stroke="#000000"><path d="M204.87632,165.5428c-1.83707,-0.82999 -5.36055,-0.69926 -7.42027,-2.3649c-2.44296,-1.97556 -3.28517,-5.70906 -3.28517,-5.70906l0.0514,-4.01489c0,0 3.36676,3.98215 6.83003,5.78356c2.98087,1.5505 6.01789,0.96062 7.21988,0.93333c4.53252,-0.1029 13.43998,-2.3418 13.43998,-2.3418l0.30291,10.35036c0,0 -12.05286,-0.33876 -17.13877,-2.63659z" fill="#b058be" stroke-width="0" stroke-linecap="butt"></path><path d="M216.18175,167.75992c0,0 -2.05768,-4.36815 -2.10239,-5.8958c-0.03427,-1.17072 1.85704,-2.48763 1.85704,-2.48763" fill="none" stroke-width="0.5" stroke-linecap="round"></path><path d="M212.04688,166.95796c0,0 -1.94155,-3.26723 -1.97684,-4.47308c-0.02882,-0.98457 1.78056,-2.23367 1.78056,-2.23367" fill="none" stroke-width="0.5" stroke-linecap="round"></path><path d="M207.15752,166.17809c0,0 -1.67829,-3.01317 -1.64763,-4.08301c0.02022,-0.70555 1.81367,-1.71138 1.81367,-1.71138" fill="none" stroke-width="0.5" stroke-linecap="round"></path><path d="M203.16822,164.61672c0,0 -1.36894,-2.21556 -1.37605,-2.98263c-0.00532,-0.57462 1.33721,-1.21153 1.33721,-1.21153" fill="none" stroke-width="0.5" stroke-linecap="round"></path><path d="M199.60302,163.21075c0,0 -1.26688,-2.33326 -1.29902,-2.98522c-0.03621,-0.73458 1.09251,-1.20404 1.09251,-1.20404" fill="none" stroke-width="0.5" stroke-linecap="round"></path><path d="M194.92099,159.18823c0,0 0.79732,-2.01018 1.18814,-2.37063c0.44035,-0.40615 1.32313,0.05442 1.32313,0.05442" fill="none" stroke-width="0.5" stroke-linecap="round"></path></g><path d="" data-paper-data="{&quot;index&quot;:null}" fill="none" stroke="#000000" stroke-width="1.5" stroke-linecap="round"></path><path d="" data-paper-data="{&quot;index&quot;:null}" fill="none" stroke="#000000" stroke-width="1.5" stroke-linecap="round"></path><path d="" data-paper-data="{&quot;index&quot;:null}" fill="none" stroke="#000000" stroke-width="1.5" stroke-linecap="round"></path><path d="" data-paper-data="{&quot;index&quot;:null}" fill="none" stroke="#000000" stroke-width="1.5" stroke-linecap="round"></path><path d="" data-paper-data="{&quot;index&quot;:null}" fill="none" stroke="#000000" stroke-width="1.5" stroke-linecap="round"></path><path d="M289.92393,195.47556" data-paper-data="{&quot;index&quot;:null}" fill="none" stroke="#d8d8d8" stroke-width="4" stroke-linecap="round"></path><path d="M240.00002,219.5c-21.81525,0 -39.5,-17.68475 -39.5,-39.5c0,-21.81525 17.68475,-39.5 39.5,-39.5c21.81525,0 39.5,17.68475 39.5,39.5c0,21.81525 -17.68475,39.5 -39.5,39.5z" fill="#d8d8d8" stroke="#000000" stroke-width="1.5" stroke-linecap="butt"></path><path d="M228.05527,173.4834c-1.36912,0.69074 -3.94256,-1.65016 -5.74792,-5.22857c-1.80536,-3.57841 7.11704,4.53783 5.74792,5.22857z" fill="#ff6666" stroke="#000000" stroke-width="0" stroke-linecap="butt"></path><path d="M219.81967,184.61827l33.69856,3.15529" fill="none" stroke="#000000" stroke-width="0.5" stroke-linecap="round"></path><path d="M231.10793,185.75843l-6.21783,9.11743l-2.74141,-9.94892z" fill="#ffffff" stroke="#000000" stroke-width="0.5" stroke-linecap="round"></path><path d="M252.2234,187.89609l-5.57718,8.178l-2.45893,-8.92381z" fill="#ffffff" stroke="#000000" stroke-width="0.5" stroke-linecap="round"></path><g stroke="#000000"><path d="M257.19906,171.00453l0.30292,-10.35036c0,0 8.90747,2.2389 13.43998,2.3418c1.202,0.02729 4.239,0.61718 7.21988,-0.93333c3.46326,-1.80141 6.83004,-5.78356 6.83004,-5.78356l0.0514,4.01489c0,0 -0.8422,3.7335 -3.28517,5.70906c-2.05972,1.66565 -5.5832,1.5349 -7.42027,2.3649c-5.08591,2.29782 -17.13878,2.63659 -17.13878,2.63659z" fill="#b058be" stroke-width="0" stroke-linecap="butt"></path><path d="M263.27777,162.20162c0,0 1.89131,1.31691 1.85704,2.48763c-0.04471,1.52764 -2.10239,5.8958 -2.10239,5.8958" fill="none" stroke-width="0.5" stroke-linecap="round"></path><path d="M267.36357,163.07635c0,0 1.80938,1.2491 1.78056,2.23367c-0.03529,1.20585 -1.97684,4.47307 -1.97684,4.47307" fill="none" stroke-width="0.5" stroke-linecap="round"></path><path d="M271.89061,163.20884c0,0 1.79345,1.00583 1.81367,1.71138c0.03066,1.06984 -1.64763,4.083 -1.64763,4.083" fill="none" stroke-width="0.5" stroke-linecap="round"></path><path d="M276.08477,163.24768c0,0 1.34252,0.63692 1.3372,1.21154c-0.00711,0.76707 -1.37604,2.98263 -1.37604,2.98263" fill="none" stroke-width="0.5" stroke-linecap="round"></path><path d="M279.81766,161.84662c0,0 1.12872,0.46946 1.09251,1.20404c-0.03214,0.65196 -1.29902,2.98522 -1.29902,2.98522" fill="none" stroke-width="0.5" stroke-linecap="round"></path><path d="M281.78191,159.69716c0,0 0.88277,-0.46058 1.32313,-0.05443c0.39082,0.36046 1.18814,2.37064 1.18814,2.37064" fill="none" stroke-width="0.5" stroke-linecap="round"></path></g><path d="M241.89384,169.19243c-1.80536,3.57841 -4.37879,5.91931 -5.74792,5.22856c-1.36912,-0.69074 7.55328,-8.80697 5.74792,-5.22856z" data-paper-data="{&quot;index&quot;:null}" fill="#ff6666" stroke="#000000" stroke-width="0" stroke-linecap="butt"></path><g stroke="none" stroke-width="0.5" stroke-linecap="butt"><path d="M181.39265,194.86552c-0.53848,0.07689 -1.5409,0.03498 -1.97583,-1.19518c-0.60948,-1.72382 1.11434,-2.3333 1.11434,-2.3333c1.93161,-0.67077 3.71317,-0.95287 5.15336,-2.50109c4.14124,-4.45188 1.33998,-13.0144 0.44168,-18.09299c-0.12349,-0.6982 -1.03568,-5.77906 -0.99312,-5.95004c0.88738,-3.56492 3.26064,-3.08439 5.93102,-4.32649c5.49295,-2.555 10.14943,-6.0549 13.13401,-11.31347c2.20481,-3.84308 5.91326,-8.41471 5.89286,-13.10369c-0.01354,-3.11123 -0.61464,-6.56082 -1.07732,-9.64656c-0.23426,-1.56237 -1.77948,-7.79242 -0.29148,-8.84281c1.42696,-1.00731 3.37104,0.91927 5.03818,1.44032c2.26386,0.70755 4.43731,1.68856 6.70858,2.37192c9.17813,2.76144 18.62445,4.20667 28.05829,5.73676c4.45673,-0.0507 9.25133,0.41553 13.671,-0.1271c3.40249,-0.41774 6.88111,-1.50724 10.23904,-2.22707l2.41347,-1.26336c0.38899,-0.20556 0.85291,-0.27219 1.31237,-0.15316c0.97752,0.25325 1.56467,1.25098 1.31142,2.22851c-0.09773,0.37722 -0.30632,0.69631 -0.58184,0.9314l-1.91959,1.68495c-0.50872,1.82397 0.79656,4.42096 1.47929,6.03232c3.18705,7.52196 11.391,13.30715 17.79491,18.07433c0.03471,0.02584 5.91227,4.14596 5.92911,4.16071c1.23822,1.08352 3.55201,1.89037 3.44771,3.53243c-0.11023,1.7355 -2.54664,2.37229 -3.89267,3.47335c-1.41979,1.16139 -3.37386,1.48234 -4.90965,2.48532c-1.8069,1.18005 -3.15891,2.94194 -4.77551,4.37164c-1.07885,5.22241 -3.1814,10.65501 -1.76876,16.03267c0.97134,3.69769 3.06239,7.84182 5.49525,10.75255c1.1004,1.31655 3.60341,2.27309 3.28893,3.95989c-0.32379,1.73672 -2.97502,1.91432 -4.53773,2.73832c-1.18085,0.62265 -5.10661,1.84775 -6.09163,2.17142c-4.73034,1.55431 -8.05554,4.06598 -12.01843,7.01377c-3.46497,2.57741 -6.25255,5.14352 -8.23043,8.97667c-1.56683,2.96712 -2.38593,5.80111 -3.28937,8.96176c0.05574,0.07338 0.08762,0.12991 0.09193,0.1668c0.04054,0.34612 -0.0086,0.67356 -0.11949,0.98812l0.15181,0.03933l-0.51191,1.97593c-0.25325,0.97752 -1.25098,1.56467 -2.22851,1.31142c-0.8722,-0.22596 -1.43362,-1.04463 -1.36457,-1.9128l0.10072,-1.67978c-2.69899,-0.73382 -4.97092,-4.09093 -7.2504,-5.5496c-3.42561,-2.1921 -7.3898,-3.73947 -11.32564,-4.54731c-1.05702,-0.21695 -2.08594,-0.71976 -3.16435,-0.68261c-1.0784,0.03716 -2.07088,0.6075 -3.10986,0.89877c-1.69825,0.4761 -3.58208,0.48538 -5.11316,1.36087c-4.41292,2.52336 -8.90499,6.63937 -12.46205,10.2397c-1.17954,1.19389 -4.91036,6.02974 -6.51748,5.89532c-1.42258,-0.11899 -1.37475,-2.50235 -2.06211,-3.75352c-3.28951,-6.71315 -8.70514,-9.85625 -15.16713,-13.14251c-4.86133,-2.47224 -9.61204,-4.72763 -14.82202,-6.35966l-2.43156,-0.76294c-0.9303,-0.28497 -1.47952,-1.25525 -1.23311,-2.20639c0.12009,-0.46351 0.40756,-0.83926 0.7809,-1.07925l2.49483,-1.61563c1.05966,-0.93874 2.53387,-1.56443 3.16545,-2.8314c1.45996,-2.9287 -0.05505,-7.24747 -0.02518,-10.36206l0.49147,-2.10996c0,0 0.03683,-0.14218 0.12993,-0.33552zM183.92478,194.04686c1.25602,0.61165 0.87787,2.07127 0.87787,2.07127l-0.37483,1.2339c-0.06836,5.23855 1.95042,10.41573 -2.43311,14.63211c-0.47573,0.45759 -1.07084,0.82425 -1.71389,1.07388c4.95249,1.65759 9.54065,3.83175 14.21875,6.21081c7.32029,3.72275 13.09212,7.41237 16.84388,14.92905c1.05844,-2.37557 3.57472,-4.09241 5.41118,-5.77018c3.68005,-3.36206 8.08603,-7.7189 12.91918,-9.06509c0.47791,-0.13311 7.2107,-1.97847 7.47401,-1.98754c1.35823,-0.04679 2.67349,0.49061 4.00727,0.75142c5.73864,1.12214 11.05067,3.80168 15.58325,7.48864c0.33092,0.26919 1.74946,1.40521 3.15137,2.57746c0.80144,-2.7247 1.67257,-5.27971 3.05533,-7.9326c2.8995,-5.4527 7.32835,-8.75817 12.21719,-12.39528c2.46579,-1.83446 3.62935,-2.90579 6.49271,-4.16362c2.70133,-1.18664 6.617,-2.74809 9.53113,-3.30776c0.74297,-0.14269 2.27912,0.81901 2.26878,0.06253c-0.01097,-0.80301 -1.6451,-0.28902 -2.27862,-0.78257c-0.9633,-0.75046 -1.68373,-1.78847 -2.34193,-2.81702c-1.60356,-2.50581 -3.3711,-6.80299 -4.10782,-9.63727c-1.63824,-6.30258 0.62011,-12.6782 2.15582,-18.73931c0.44481,-0.43007 5.31068,-5.18419 5.9313,-5.59422c1.06039,-0.70057 2.35027,-0.97445 3.48401,-1.54875c0.51127,-0.25899 0.90468,-0.73171 1.43702,-0.94402c0.71028,-0.28329 2.00832,0.21032 2.23433,-0.52021c0.1956,-0.63222 -1.34431,-0.15253 -1.93214,-0.45652c-1.06295,-0.54968 -1.95914,-1.37473 -2.93858,-2.06228c-3.03741,-2.13217 -6.00058,-4.35841 -8.86074,-6.72649c-5.48412,-4.5406 -11.8476,-9.75193 -13.87727,-16.86622c-0.25432,-0.89143 -0.94377,-3.11762 -1.04984,-5.00271c-2.87886,0.7152 -5.8249,1.50712 -8.70291,1.85735c-4.64376,0.56513 -9.67477,0.10327 -14.35322,0.13988c-9.699,-1.53776 -19.40933,-3.04453 -28.83892,-5.88163c-0.03914,-0.01178 -7.05892,-2.49293 -7.08112,-2.50641c-0.67278,-0.40859 -0.74974,-1.61523 -1.51124,-1.81447c-0.66944,-0.17515 0.9363,1.06711 1.15893,1.72229c0.39272,1.15576 0.47035,2.39645 0.65081,3.60369c0.31941,2.13679 0.47712,4.29465 0.70436,6.44319c0.13887,1.31293 0.41534,2.61985 0.40445,3.94007c-0.04444,5.38606 -3.82046,10.26374 -6.37157,14.71044c-2.92881,5.05732 -6.49249,7.91109 -11.46229,10.85685c-2.04122,1.2099 -4.32325,1.95759 -6.47336,2.96128c-0.33184,0.1549 -0.71636,0.44989 -0.73609,0.81556c-0.08285,1.53631 0.76075,2.98452 1.02883,4.49951c1.13537,6.41645 3.83872,15.6554 -1.30934,21.15936c-1.53798,1.64431 -2.83205,2.21349 -4.49295,2.78157z" fill="#a866ff"></path><path d="M184.91683,194.78169c-0.50191,0.07167 -1.43628,0.0326 -1.84169,-1.11403c-0.5681,-1.60678 1.03868,-2.17488 1.03868,-2.17488c1.80045,-0.62522 3.46104,-0.88817 4.80345,-2.33127c3.86006,-4.1496 1.249,-12.13075 0.41169,-16.86451c-0.11511,-0.65079 -0.96536,-5.38668 -0.92569,-5.54605c0.82713,-3.32288 3.03925,-2.87496 5.52832,-4.03273c5.12,-2.38153 9.4603,-5.64378 12.24223,-10.5453c2.05511,-3.58215 5.51178,-7.84336 5.49274,-12.21397c-0.01263,-2.89999 -0.57291,-6.11536 -1.00417,-8.99158c-0.21836,-1.45629 -1.65866,-7.26333 -0.27168,-8.24241c1.33007,-0.9389 3.14215,0.85686 4.6961,1.34252c2.11015,0.6595 4.13602,1.57391 6.25309,2.21087c8.55495,2.57394 17.35989,3.92106 26.15319,5.34725c4.15412,-0.04726 8.62319,0.38732 12.74277,-0.11847c3.17147,-0.38938 6.4139,-1.4049 9.54383,-2.07585l2.24959,-1.17759c0.36258,-0.1916 0.795,-0.2537 1.22326,-0.14275c0.91115,0.23605 1.45843,1.16605 1.22237,2.0772c-0.09109,0.35161 -0.28553,0.64903 -0.54234,0.86816l-1.78925,1.57054c-0.47417,1.70013 0.74247,4.12079 1.37885,5.62274c2.97065,7.01123 10.61757,12.40362 16.58667,16.84712c0.03236,0.02409 5.51083,3.86445 5.52654,3.8782c1.15415,1.00994 3.31083,1.76203 3.21362,3.29258c-0.10274,1.61765 -2.37372,2.21122 -3.62837,3.23751c-1.32339,1.08253 -3.14479,1.38169 -4.5763,2.31658c-1.68421,1.09992 -2.94443,2.7422 -4.45126,4.07482c-1.00561,4.86782 -2.96539,9.93156 -1.64867,14.94408c0.90539,3.44662 2.85445,7.30938 5.12213,10.02247c1.02569,1.22716 3.35875,2.11874 3.06563,3.69102c-0.30181,1.6188 -2.77301,1.78435 -4.22963,2.5524c-1.10066,0.58037 -4.75989,1.72229 -5.67803,2.02398c-4.40916,1.44879 -7.50858,3.78991 -11.2024,6.53755c-3.2297,2.40241 -5.82801,4.7943 -7.67161,8.36718c-1.46045,2.76567 -2.22392,5.40722 -3.06603,8.35327c0.05195,0.0684 0.08167,0.12109 0.08569,0.15547c0.03779,0.32263 -0.00801,0.62782 -0.11138,0.92103l0.14151,0.03666l-0.47715,1.84176c-0.23605,0.91115 -1.16605,1.45843 -2.0772,1.22237c-0.81298,-0.21062 -1.33628,-0.97371 -1.27192,-1.78292l0.09388,-1.56573c-2.51574,-0.68399 -4.6334,-3.81317 -6.75812,-5.1728c-3.19301,-2.04326 -6.88804,-3.48558 -10.55664,-4.23856c-0.98524,-0.20222 -1.94431,-0.67089 -2.94949,-0.63626c-1.00518,0.03463 -1.93026,0.56625 -2.89871,0.83774c-1.58294,0.44377 -3.33886,0.45243 -4.76598,1.26847c-4.1133,2.35203 -8.30037,6.18857 -11.6159,9.54444c-1.09945,1.11283 -4.57695,5.62033 -6.07496,5.49504c-1.326,-0.1109 -1.2814,-2.33243 -1.9221,-3.49866c-3.06616,-6.25734 -8.11408,-9.18703 -14.13731,-12.25017c-4.53126,-2.30438 -8.9594,-4.40663 -13.81564,-5.92785l-2.26646,-0.71113c-0.86714,-0.26563 -1.37906,-1.17003 -1.14939,-2.05657c0.11193,-0.43204 0.37989,-0.78228 0.72788,-1.00597l2.32543,-1.50595c0.98771,-0.875 2.36183,-1.45821 2.95054,-2.63915c1.36084,-2.72985 -0.05131,-6.75537 -0.02348,-9.6585l0.4581,-1.9667c0,0 0.03433,-0.13254 0.12111,-0.31274zM187.27704,194.01861c1.17074,0.57011 0.81826,1.93064 0.81826,1.93064l-0.34938,1.15012c-0.06373,4.88286 1.818,9.70852 -2.2679,13.63862c-0.44343,0.42652 -0.99813,0.76829 -1.59752,1.00096c4.61623,1.54503 8.89285,3.57158 13.25332,5.78911c6.82325,3.46999 12.20318,6.90908 15.70022,13.9154c0.98657,-2.21427 3.332,-3.81453 5.04377,-5.37839c3.43017,-3.13378 7.537,-7.1948 12.04199,-8.44959c0.44546,-0.12407 6.72111,-1.84414 6.96653,-1.85259c1.26601,-0.04362 2.49197,0.4573 3.73518,0.7004c5.34899,1.04595 10.30036,3.54355 14.52518,6.98018c0.30845,0.2509 1.63067,1.30979 2.93741,2.40246c0.74703,-2.5397 1.559,-4.92123 2.84788,-7.39399c2.70263,-5.08247 6.83078,-8.16351 11.38766,-11.55367c2.29837,-1.70991 3.38292,-2.7085 6.05187,-3.88092c2.51791,-1.10607 6.16772,-2.56149 8.88399,-3.08317c0.69253,-0.13301 2.12437,0.76341 2.11474,0.05829c-0.01022,-0.74848 -1.53339,-0.2694 -2.12391,-0.72944c-0.8979,-0.69949 -1.5694,-1.66704 -2.18291,-2.62575c-1.49469,-2.33568 -3.1422,-6.34108 -3.82891,-8.98291c-1.52701,-5.87464 0.57801,-11.81737 2.00945,-17.46695c0.41462,-0.40087 4.9501,-4.8322 5.52856,-5.21438c0.98839,-0.653 2.19069,-0.90828 3.24746,-1.4436c0.47655,-0.2414 0.84325,-0.68203 1.33945,-0.87993c0.66206,-0.26405 1.87195,0.19604 2.08262,-0.48489c0.18231,-0.58929 -1.25303,-0.14218 -1.80096,-0.42552c-0.99078,-0.51236 -1.82612,-1.28139 -2.73906,-1.92225c-2.83117,-1.98739 -5.59315,-4.06248 -8.25911,-6.26977c-5.11176,-4.2323 -11.04317,-9.0898 -12.93503,-15.72104c-0.23705,-0.83091 -0.8797,-2.90594 -0.97856,-4.66304c-2.6834,0.66664 -5.4294,1.40478 -8.11201,1.73124c-4.32846,0.52675 -9.01787,0.09625 -13.37865,0.13038c-9.04047,-1.43335 -18.09148,-2.83782 -26.88083,-5.48228c-0.03648,-0.01098 -6.57963,-2.32367 -6.60033,-2.33622c-0.62709,-0.38084 -0.69884,-1.50556 -1.40863,-1.69127c-0.62399,-0.16326 0.87273,0.99466 1.08024,1.60535c0.36606,1.07729 0.43842,2.23374 0.60662,3.35901c0.29772,1.9917 0.44472,4.00305 0.65654,6.00572c0.12944,1.22379 0.38714,2.44198 0.37699,3.67255c-0.04142,5.02035 -3.56107,9.56685 -5.93896,13.71162c-2.72995,4.71395 -6.05167,7.37394 -10.68402,10.1197c-1.90262,1.12775 -4.0297,1.82467 -6.03383,2.76022c-0.3093,0.14438 -0.66773,0.41934 -0.68611,0.76018c-0.07723,1.432 0.7091,2.78187 0.95899,4.19401c1.05828,5.98079 3.57808,14.59243 -1.22043,19.72268c-1.43356,1.53267 -2.63975,2.0632 -4.18788,2.59271z" fill="#ffffff"></path></g></g></g></svg>