<svg version="1.1" xmlns="http://www.w3.org/2000/svg" xmlns:xlink="http://www.w3.org/1999/xlink" width="89.00611" height="80.5" viewBox="0,0,89.00611,80.5"><g transform="translate(-199.75,-139.75)"><g data-paper-data="{&quot;isPaintingLayer&quot;:true}" fill-rule="nonzero" stroke-linejoin="miter" stroke-miterlimit="10" stroke-dasharray="" stroke-dashoffset="0" style="mix-blend-mode: normal"><path d="" data-paper-data="{&quot;index&quot;:null}" fill="none" stroke="#000000" stroke-width="1.5" stroke-linecap="round"></path><path d="M200.5,180c0,-21.81525 17.68475,-39.5 39.5,-39.5c21.81525,0 39.5,17.68475 39.5,39.5c0,21.81525 -17.68475,39.5 -39.5,39.5c-21.81525,0 -39.5,-17.68475 -39.5,-39.5z" fill="#d8d8d8" stroke="#000000" stroke-width="1.5" stroke-linecap="butt"></path><path d="M251.21834,188.26467c0,0 -36.77436,11.43291 -35.6861,-0.84541" data-paper-data="{&quot;index&quot;:null}" fill="#000000" stroke="#000000" stroke-width="0" stroke-linecap="round"></path><path d="M240.25489,167.17564l6.93986,4.16391l-6.59286,1.38797l-3.29643,5.89888l-2.25545,-6.41937l-7.46035,-3.64343l7.11335,-2.08196l3.99042,-7.46035z" fill="#be82ff" stroke="#000000" stroke-width="0" stroke-linecap="round"></path><path d="M226.89268,167.15203l-1.38919,9.72431" fill="none" stroke="#000000" stroke-width="1.5" stroke-linecap="round"></path><g stroke-linecap="round"><path d="M282.04234,158.63685l-5.48218,5.73609l-8.02371,-4.26355l-2.3145,-8.15265l6.2664,-5.4575" fill="none" stroke="#4d6200" stroke-width="4.5"></path><path d="M268.39405,162.00182l-9.10503,5.24394" fill="none" stroke="#4d6200" stroke-width="4.5"></path><path d="M288.26382,142.52229l0.23833,6.57502l-10.03616,9.37022l-6.98897,-1.01072l0.25985,-5.90836l10.18635,-9.58634z" fill="#7d00ff" stroke="#7f00ff" stroke-width="0.5"></path><path d="M285.89111,144.91647l0.16701,4.60729l-7.0326,6.56598l-4.89735,-0.70823l0.18209,-4.14015l7.13784,-6.71739z" fill="#be82ff" stroke="#7f00ff" stroke-width="0"></path><g fill="none" stroke="#4d6200"><path d="M248.55896,188.25126l-12.69369,21.80932l-2.44342,-1.57458l12.7391,-21.43992z" stroke-width="3"></path><path d="M244.75453,186.28147l6.95365,-2.91709l1.54262,1.87279l-7.23223,3.7013l-10.51651,18.16686" stroke-width="3"></path><path d="M259.68423,165.88475l-6.21261,24.20007l-2.48885,-1.94399l6.34882,-23.09186z" stroke-width="3"></path><path d="M252.09099,188.00461l5.90822,-22.10026l7.78942,-5.26972" stroke-width="4.5"></path></g></g></g></g></svg>