<svg version="1.1" xmlns="http://www.w3.org/2000/svg" xmlns:xlink="http://www.w3.org/1999/xlink" width="173.76022" height="108.27411" viewBox="0,0,173.76022,108.27411"><g transform="translate(-198.73851,-135.92133)"><g data-paper-data="{&quot;isPaintingLayer&quot;:true}" fill-rule="nonzero" stroke-linejoin="miter" stroke-miterlimit="10" stroke-dasharray="" stroke-dashoffset="0" style="mix-blend-mode: normal"><path d="M199.48851,186.22942c0,-21.81525 17.68475,-39.5 39.5,-39.5c21.81525,0 39.5,17.68475 39.5,39.5c0,21.81525 -17.68475,39.5 -39.5,39.5c-21.81525,0 -39.5,-17.68475 -39.5,-39.5z" fill="#d8d8d8" stroke="#000000" stroke-width="1.5" stroke-linecap="butt"></path><path d="M242.02205,183.05545v-8" fill="none" stroke="#000000" stroke-width="1.5" stroke-linecap="round"></path><path d="" data-paper-data="{&quot;index&quot;:null}" fill="none" stroke="#000000" stroke-width="1.5" stroke-linecap="round"></path><path d="M253.08518,207.98809c0,0 -17.91104,4.58722 -25.6108,-0.53676c-1.90381,-1.26693 -4.4943,-5.21093 -3.86722,-8.6468c0.60031,-3.28916 4.39812,-6.06289 3.63978,-7.76264" data-paper-data="{&quot;index&quot;:null}" fill="#000000" stroke="#000000" stroke-width="0" stroke-linecap="round"></path><path d="M249.49371,175.54059v8" fill="none" stroke="#000000" stroke-width="1.5" stroke-linecap="round"></path><g stroke="#000000" stroke-linecap="butt"><path d="M311.79429,215.24919l-0.44532,-59.45093l43.22131,-0.32375l0.44532,59.45093c0,0 -17.57014,13.07921 -20.7147,15.42003c-0.92715,0.69017 -1.80077,1.3405 -1.80077,1.3405z" fill="#008c04" stroke-width="1.5"></path><path d="M330.45687,232.71952l-0.58745,-78.42604l4.82627,-0.03615l0.58745,78.42604z" fill="#00ff08" stroke-width="0"></path><path d="M355.07807,184.26322l-44.55025,0.3337l-0.04715,-6.29345l44.55025,-0.3337z" fill="#00ff08" stroke-width="0"></path></g><path d="M349.31297,235.0903l-0.62411,1.38087c-1.88048,2.31511 -3.98557,5.37165 -6.94127,6.44092c-0.13867,0.05017 -0.27854,0.09459 -0.41949,0.13388l0.01117,0.03552l-3.11964,0.98126c-0.25282,0.08603 -0.52384,0.13269 -0.80575,0.13269c-1.38071,0 -2.5,-1.11929 -2.5,-2.5c0,-0.41766 0.10242,-0.81139 0.28351,-1.15746l0.65479,-1.31819l-2.90935,2.09172c-0.41481,0.306 -0.92758,0.48686 -1.48259,0.48686c-1.38071,0 -2.5,-1.11929 -2.5,-2.5c0,-0.78435 0.3612,-1.48433 0.92635,-1.94268l2.16735,-1.78493l0.00202,0.00245l0.00338,-0.00688c1.4103,-1.13878 2.69436,-2.43275 3.89594,-3.79854l0.66723,-2.28169c0.28765,-0.71017 0.5753,-1.42035 0.86294,-2.13052c0,0 0.9562,-2.30991 3.26611,-1.35371c0.34355,0.14221 0.61485,0.31437 0.82779,0.50442c0.14074,-0.10844 0.27837,-0.21954 0.41081,-0.33507l5.19115,-1.76041c0.22399,-0.22891 0.43675,-0.46278 0.62571,-0.70719l1.09293,-0.70322c-0.139,-0.58154 -0.22875,-1.17121 -0.24368,-1.7732c-0.01439,-0.57989 0.76102,-2.36697 1.81292,-4.12688c-0.13839,-2.63935 0.22082,-5.29632 1.44523,-7.96743c0.31385,-0.68467 0.62803,-1.49438 1.01161,-2.23685c-0.11838,-2.04624 0.05199,-4.14394 0.05349,-5.93368l1.11118,-2.36637c-0.32181,-1.36566 -0.50974,-3.02847 -0.70692,-5.43642l1.06698,-4.98313l3.61066,2.57575c-1.76638,-2.60242 -2.82517,-6.68164 -2.10904,-9.88962c0.38027,-1.70346 0.28635,-4.61758 2.01859,-4.83143c1.01741,-0.1256 1.92435,0.28089 2.78909,0.89068c-0.85278,-2.1785 -1.36724,-4.51658 -2.15464,-6.89977c-0.64723,-1.95894 -2.74237,-8.03518 -3.03395,-10.00065c-0.1716,-1.15672 0.59641,-2.42152 0.1557,-3.50468c-0.4585,-1.1269 -1.73616,-1.7049 -2.61685,-2.54425c-1.29158,-1.23095 -2.62072,-2.42253 -3.96898,-3.59167l0.06587,0.37841c-0.16623,-0.07669 -0.3328,-0.15347 -0.49959,-0.23047l1.00078,1.83761c0.20791,0.36464 0.32669,0.78669 0.32669,1.23647c0,1.38071 -1.11929,2.5 -2.5,2.5c-0.33858,0 -0.66143,-0.06731 -0.95592,-0.18927l-4.60942,-1.78449l0.00515,-0.01332c-0.03421,-0.00883 -0.0684,-0.01775 -0.10256,-0.02678c-0.8038,-0.21233 -1.60466,-0.46807 -2.38729,-0.7724l0.21252,0.24415c0,0 1.64016,1.88677 -0.24661,3.52692c-1.88677,1.64016 -3.52692,-0.24661 -3.52692,-0.24661l-0.60513,-0.69713c-1.55321,0.00419 -2.20533,-1.59926 -2.20533,-1.59926l-0.41054,-1.01229c-0.79477,-0.71565 -1.4979,-1.47387 -1.67274,-2.47751c-0.18231,-1.04652 -0.20966,-1.91253 -0.10959,-2.62174c-0.33017,-1.23111 -0.60522,-2.47997 -0.84314,-3.73504l-0.87314,0.0659c-0.74213,-2.52427 -1.48427,-5.04854 -2.2264,-7.57281l5.58896,1.49497c1.20084,0.65525 2.43562,1.25181 3.60253,1.96575c0.37874,0.23172 0.7791,0.79516 1.15438,1.2129l-0.01953,-0.04775c-0.13342,-0.30587 -0.20742,-0.64361 -0.20742,-0.99863c0,-0.55048 0.17792,-1.05941 0.47939,-1.47241c-0.04189,-0.10325 -0.07754,-0.20517 -0.10446,-0.30525l0.26253,0.11001c0.45774,-0.51089 1.1226,-0.83235 1.86254,-0.83235c0.42214,0 0.81985,0.10463 1.1686,0.28937l2.73363,1.37582l-0.01124,0.02233l0.08281,0.01516c5.38496,3.173 10.66409,7.20956 15.06527,11.62001c0,0 0.54307,0.54663 0.72274,1.33444c0.42314,0.56849 0.77265,1.13991 1.02044,1.70852c0.62,1.42269 -0.09465,3.12023 0.14529,4.65349c0.23708,1.51498 0.82022,2.95561 1.27464,4.42015c1.34435,4.33266 4.45009,10.0163 4.597,14.56348c0.08428,2.60854 -0.69817,5.1729 -1.04725,7.75935l-4.2213,-2.58142c0.00173,0.09122 0.00585,0.18186 0.01332,0.27167c0.31529,3.78996 -0.114,7.63142 -0.71452,11.38677l-1.97475,-1.463c0.26642,2.53874 0.73185,4.01137 0.54278,5.75951c0.39197,0.38268 0.78394,0.76535 1.17591,1.14803l-0.82134,6.64755c0.90908,1.85427 1.26991,4.19214 1.56881,5.28032l-1.70104,5.8315c-0.46568,-0.5928 -0.94597,-1.17505 -1.42808,-1.75599c0.24251,0.65746 0.42932,1.32848 0.57529,1.94223c0.38231,1.60755 -0.80709,3.2047 -1.21064,4.80705l-4.47862,3.78446c-0.04655,-0.14879 -0.09302,-0.29766 -0.13932,-0.44659c-0.45633,1.43491 -0.91266,2.86982 -1.369,4.30473l-0.74843,0.4366c0.01475,0.12545 0.0295,0.2509 0.04425,0.37635l-1.38067,1.0961c0.63097,0.97738 0.23147,2.18393 0.23147,2.18393zM334.67861,145.42443c-0.06074,-0.01006 -0.12106,-0.02141 -0.18097,-0.03397l0.0882,0.25513c1.68752,0.06601 3.6999,0.75983 5.4826,1.6036c-0.47353,-0.63651 -0.86532,-1.177 -1.08331,-1.50607c-1.43882,0.06764 -2.91093,-0.08749 -4.30653,-0.3187zM352.00977,225.49097l0.1332,-0.08007c-0.01818,-0.0606 -0.03631,-0.12121 -0.05437,-0.18183z" fill="#15792a" stroke="none" stroke-width="0.5" stroke-linecap="butt"></path><path d="M347.11407,150.98169c-1.23203,1.22402 -2.4585,0.74187 -3.09258,0.33335c-0.4085,0.82482 -1.25884,1.39193 -2.24164,1.39193c-0.39913,0 -0.77641,-0.09353 -1.11113,-0.25988c-0.01801,0.10086 -0.04206,0.19963 -0.07178,0.29591l2.52841,2.46291c0.46729,0.45424 0.7576,1.08961 0.7576,1.79277c0,1.38071 -1.11929,2.5 -2.5,2.5c-0.60293,0 -1.15601,-0.21344 -1.58781,-0.56888l-3.06371,-2.48047l0.00139,-0.00171l-0.00601,-0.00204c-3.85014,-3.14774 -7.71971,-6.25145 -11.68977,-9.24761c-1.38589,-1.04591 -3.12588,-1.73226 -4.1731,-3.11716c-0.04535,-0.05997 -0.08999,-0.12038 -0.13395,-0.18121l-0.02627,0.02456l-3.17108,-3.39138c-0.4205,-0.44733 -0.67811,-1.04955 -0.67811,-1.71194c0,-1.38071 1.11929,-2.5 2.5,-2.5c0.54265,0 1.04491,0.17289 1.45472,0.46659l2.51047,1.74942c2.21312,1.36077 4.43048,2.72517 6.66619,4.05769c0.41334,-0.30231 0.92299,-0.48078 1.47432,-0.48078c0.46955,0 0.90887,0.12945 1.28421,0.35461l2.8615,1.64586l-0.77063,-1.09014c-0.29931,-0.41213 -0.47582,-0.91921 -0.47582,-1.46751c0,-1.38071 1.11929,-2.5 2.5,-2.5c0.63697,0 1.21831,0.23822 1.65977,0.63043l2.33173,2.0507l-0.20561,0.23379c2.11851,1.15411 3.74582,2.57714 6.13922,5.13326l0.34102,0.34141c0,0 1.76199,1.77352 -0.01153,3.53552z" fill="#22c645" stroke="none" stroke-width="0.5" stroke-linecap="butt"></path><path d="M363.78387,215.97339c1.95103,1.56316 0.38788,3.51419 0.38788,3.51419l-1.83504,2.29038c-2.38715,2.97671 -4.65309,6.02143 -6.74603,9.20471c-0.00505,0.17362 -0.02781,0.34279 -0.06652,0.50579l-0.98097,4.54228l-0.08563,-0.01849c-0.04869,0.24231 -0.10869,0.48284 -0.18187,0.72133c-0.45887,1.49543 -2.21977,2.20075 -3.34368,3.29261l-1.93125,2.13834c-0.45774,0.51092 -1.12262,0.8324 -1.86259,0.8324c-0.75214,0 -1.4267,-0.33215 -1.88501,-0.85777l-0.02697,0.02973c-0.45761,0.50838 -1.12081,0.82804 -1.85867,0.82804c-1.38071,0 -2.5,-1.11929 -2.5,-2.5c0,-0.44439 0.11595,-0.86169 0.31924,-1.22331l-2.99951,2.37221c-0.42871,0.34535 -0.9738,0.55208 -1.56717,0.55208c-1.38071,0 -2.5,-1.11929 -2.5,-2.5c0,-0.41766 0.10242,-0.81139 0.28351,-1.15746l1.16822,-2.35179l0.1141,0.05668l0.03814,-0.32127c1.6557,-1.96287 3.27177,-3.95891 4.92389,-5.9248c0.12159,-0.14469 0.24064,-0.29204 0.35825,-0.44093c-1.23758,0.50748 -2.60464,0.75661 -4.00194,0.85804l0.03846,0.19868l-4.85895,0.94054c-0.16929,0.03618 -0.34494,0.05522 -0.52503,0.05522c-1.38071,0 -2.5,-1.11929 -2.5,-2.5c0,-0.80353 0.37909,-1.51852 0.96818,-1.97588l2.75939,-2.18233l0.02826,0.03573l0.07944,-0.1163c1.09572,-0.69073 2.19143,-1.38147 3.28715,-2.0722c0,0 2.11609,-1.33122 3.44731,0.78487c0.04312,0.06854 0.08261,0.13625 0.11869,0.20312c4.00412,-1.58452 8.79722,-2.32583 8.7229,2.08525c0.17778,-0.04012 0.36274,-0.06129 0.55265,-0.06129c1.10239,0 2.03813,0.71352 2.37058,1.70393c2.21391,-3.16659 4.80176,-6.19115 6.94138,-8.86407l1.83504,-2.29038c0,0 1.56316,-1.95103 3.51419,-0.38788z" fill="#22c645" stroke="none" stroke-width="0.5" stroke-linecap="butt"></path><path d="M365.30352,180.48564c2.48139,0.30444 2.17696,2.78583 2.17696,2.78583l-0.4332,3.53086c-0.17634,1.42965 -0.26469,2.85547 -0.36737,4.27007c0.09954,-0.01205 0.20089,-0.01826 0.30368,-0.01826c0.02323,0 0.04639,0.00032 0.06947,0.00095c0.01173,-0.08311 0.02349,-0.16621 0.03528,-0.24932c0,0 0.3513,-2.47519 2.82649,-2.1239c2.47519,0.3513 2.1239,2.82649 2.1239,2.82649c-0.70539,4.96894 -1.29831,9.94463 -2.05055,14.9069l-0.01239,0.02312l0.00829,0.00143l-0.52957,3.07785c-0.18412,1.19914 -1.22027,2.11748 -2.47092,2.11748c-1.10791,0 -2.0475,-0.72069 -2.37553,-1.71883l-0.97283,-2.74175l0.05814,-0.02063c-0.06703,-0.15377 -0.12687,-0.31123 -0.17849,-0.47291c-0.17053,-0.53413 -0.06535,-2.15383 0.1304,-3.97052c-0.178,-0.22133 -0.31908,-0.4736 -0.41388,-0.74748l-1.72524,-4.6307l0.04651,-0.01733c-0.06001,-0.14437 -0.1164,-0.29054 -0.16882,-0.43869c-0.58558,-1.65468 0.4852,-8.91776 0.70066,-10.68285l0.4332,-3.53086c0,0 0.30444,-2.48139 2.78583,-2.17696z" fill="#22c645" stroke="none" stroke-width="0.5" stroke-linecap="butt"></path><path d="M342.77948,148.43835c-2.42627,0.60268 -3.02895,-1.82359 -3.02895,-1.82359l-0.27088,-1.22139c-0.4276,-1.00713 -0.72965,-2.06017 -0.94884,-3.13694l-0.32927,0.10222l-0.97495,-3.14044c-0.08411,-0.25028 -0.12969,-0.51826 -0.12969,-0.79688c0,-1.38071 1.11929,-2.5 2.5,-2.5c0.36267,0 0.7073,0.07722 1.01835,0.21613l2.32999,0.97722l-0.01922,0.04583l0.16115,0.01897c2.30239,1.3199 4.534,2.49539 6.56851,4.04146l0.0232,-0.08891l0.0961,0.02508l-0.276,-1.04172c-0.06378,-0.22072 -0.09795,-0.45401 -0.09795,-0.69527c0,-1.38071 1.11929,-2.5 2.5,-2.5c0.50989,0 0.98413,0.15265 1.37951,0.41474l2.15194,1.37836l-0.08543,0.13338l0.4206,0.12368c2.58934,3.26357 5.93659,7.27969 7.53085,11.14548c0.01372,0.03326 0.02732,0.06656 0.04082,0.09989l0.01038,-0.00533l2.26283,4.40347c0.19065,0.35298 0.29887,0.75703 0.29887,1.18636c0,1.1602 -0.79032,2.13582 -1.86197,2.41785c2.35025,4.55992 4.88844,8.91612 7.9316,13.08933c0,0 1.47212,2.02061 -0.54849,3.49273c-2.02061,1.47212 -3.49273,-0.54849 -3.49273,-0.54849c-3.63987,-5.00034 -6.6033,-10.24597 -9.36324,-15.7739l-0.0068,-0.04241l-0.01076,0.00493l-1.16845,-2.54831c-0.16001,-0.32956 -0.24976,-0.69957 -0.24976,-1.09053c0,-1.22436 0.88014,-2.24314 2.04223,-2.45818c-1.55672,-1.59047 -2.75884,-3.48958 -3.95721,-5.41887c-0.38735,0.24646 -0.84712,0.38923 -1.34024,0.38923c-0.23794,0 -0.46811,-0.03324 -0.68613,-0.09533l-4.78311,-1.24821l0.00754,-0.02889c-0.11249,-0.02548 -0.22469,-0.05274 -0.33658,-0.0819c-1.41139,-0.36777 -2.66364,-1.12084 -3.88283,-1.95466l0.39858,1.50484c0,0 0.60268,2.42627 -1.82359,3.02895z" fill="#2af957" stroke="none" stroke-width="0.5" stroke-linecap="butt"></path><path d="M329.15086,154.06715c-2.26213,1.06433 -3.32645,-1.1978 -3.32645,-1.1978l-1.2129,-2.58674c-0.00581,-0.04631 -0.01161,-0.09263 -0.01742,-0.13894l-0.03057,0.01047l-1.60154,-4.675c-0.09949,-0.26965 -0.15382,-0.56115 -0.15382,-0.86535c0,-1.38071 1.11929,-2.5 2.5,-2.5c0.42214,0 0.81984,0.10463 1.16858,0.28936l3.13059,1.57557c0,0 2.23313,1.1239 1.10923,3.35702c-0.37498,0.74506 -0.87343,1.11643 -1.37122,1.28053l1.00332,2.12442c0,0 1.06433,2.26213 -1.1978,3.32645z" fill="#2af957" stroke="none" stroke-width="0.5" stroke-linecap="butt"></path><path d="M332.81003,232.78779c-0.11952,1.2991 -1.41656,1.95195 -1.41656,1.95195l-3.87491,-3.38903c1.48873,-1.86573 3.077,-3.66717 4.83395,-5.28284c0,0 1.84439,-1.68767 3.53206,0.15672c1.68767,1.84439 -0.15672,3.53206 -0.15672,3.53206c-1.03691,0.94342 -2.00231,1.96598 -2.91782,3.03115z" fill="#2af957" stroke="none" stroke-width="0.5" stroke-linecap="butt"></path><path d="M295.2096,222.74964c-1.42933,2.0511 -3.48043,0.62177 -3.48043,0.62177l-2.70156,-1.88821c-1.14295,-1.03025 -2.23901,-2.11503 -3.42884,-3.09076c-1.50272,-1.23232 -3.81113,-1.77075 -4.64185,-3.52765c-0.41369,-0.87493 2.00901,-1.17364 1.96186,-2.14029c-0.05029,-1.03096 -2.33279,-1.18538 -2.17382,-2.20525c0.21863,-1.40265 1.89103,-2.1341 2.99022,-3.03245c0.38809,-0.31718 1.66237,-0.12814 1.39792,-0.55392c-0.62893,-1.01264 -2.73931,-0.81634 -2.97474,-1.98491c-0.24055,-1.19399 1.95649,-1.87049 1.9526,-3.08847c-0.0035,-1.0975 -1.77922,-1.55684 -1.97088,-2.63748c-0.13116,-0.73953 0.77372,-1.28755 1.16058,-1.93132c-0.89414,-0.50254 -2.41863,-0.51644 -2.68241,-1.50762c-0.28063,-1.05448 1.47936,-1.81476 1.50793,-2.90558c0.02454,-0.93716 -1.55658,-1.5394 -1.36747,-2.45761c0.26214,-1.27282 1.6063,-2.04714 2.49124,-2.99881c0.24994,-0.26878 1.08073,-0.3259 0.89445,-0.64214c-0.39361,-0.66823 -1.58745,-0.54638 -1.98632,-1.21149c-0.79328,-1.32279 -1.56114,-2.88172 -1.3875,-4.41433c0.11963,-1.05587 1.97744,-1.30228 2.15391,-2.35015c0.16579,-0.98445 -1.5903,-1.73972 -1.30407,-2.69613c0.30941,-1.03389 1.91279,-1.06586 2.66229,-1.84233c1.1632,-1.20505 -2.52003,-2.65241 -2.55426,-4.32693c-0.02378,-1.16355 1.98136,-1.57524 2.18832,-2.72049c0.1986,-1.09898 -1.72263,-2.21091 -1.1265,-3.15529c0.47317,-0.74959 1.38964,-0.99503 2.34806,-1.13431c-0.97746,-0.88906 -1.80887,-2.52252 -1.80573,-3.62209c0.00181,-0.6352 1.00399,-0.69442 1.75499,-0.90721l-0.78172,-0.60527c-0.60163,-0.45654 -0.99017,-1.17927 -0.99017,-1.99276c0,-0.5759 0.19473,-1.10631 0.52193,-1.52899c-0.14485,0.00905 -0.28967,0.01847 -0.43445,0.02825c0,0 -2.49439,0.16739 -2.66178,-2.327c-0.16739,-2.49439 2.327,-2.66178 2.327,-2.66178c2.03697,-0.13576 4.07954,-0.20444 6.12103,-0.20537l1.89971,0.21932c0,0 2.48044,0.3121 2.16834,2.79255c-0.3121,2.48044 -2.79255,2.16834 -2.79255,2.16834l-1.27551,-0.1802c-0.31322,-0.00015 -0.62646,0.00143 -0.93971,0.00475l0.91433,0.38347l-0.02897,0.06908l0.18093,0.00072c0.84281,0.4927 1.68562,0.9854 2.52842,1.4781c0,0 2.15585,1.26583 0.89002,3.42167c-0.63534,1.08206 -1.49489,1.30212 -2.19353,1.2529c0.83956,0.65407 1.60263,1.38594 1.54157,2.33684c-0.11345,1.76664 -1.77274,3.21724 -3.23957,4.20834c-0.00577,0.0039 -0.01163,0.00751 -0.01758,0.01085c0.06455,0.07692 0.09618,0.16876 0.08,0.283c-0.15405,1.08758 -2.14527,1.37522 -2.17771,2.47318c-0.02775,0.93928 1.80743,1.02934 2.04739,1.93787c0.41942,1.58794 0.40885,3.41089 -0.23562,4.92156c-0.28418,0.66613 -1.90668,-0.14302 -2.10064,0.55474c-0.20078,0.72232 1.5945,0.95853 1.4743,1.69854c-0.19253,1.18533 -1.72311,1.74668 -2.21206,2.84349c-0.13324,0.29889 0.38487,0.53017 0.59701,0.77934c0.91277,1.07208 2.61522,1.78445 2.77667,3.18318c0.18827,1.63117 -0.98616,3.17668 -1.88391,4.55152c-0.29047,0.44484 -1.46384,0.06572 -1.47788,0.59681c-0.02111,0.79852 1.47052,1.14046 1.4109,1.93704c-0.05562,0.74309 -1.90757,0.78371 -1.66734,1.48909c0.28285,0.83056 1.65158,0.59297 2.47737,0.88945c-0.27465,1.08744 -1.0199,2.15798 -0.82394,3.26232c0.22744,1.28171 2.00261,2.05351 1.99825,3.35524c-0.00325,0.97172 -2.23778,1.159 -2.01653,2.1052c0.27275,1.16642 2.97701,0.81232 2.97885,2.0102c0.00298,1.94946 -1.66049,3.59335 -2.96806,5.03927c-0.31208,0.3451 -1.59215,-0.64775 -1.37576,-0.23585c0.43873,0.83512 2.1385,0.84804 2.19215,1.78986c0.04701,0.82511 -2.2628,0.66938 -2.00727,1.45533c0.25802,0.7936 1.76885,-0.32958 2.50255,0.06799c1.45668,0.78934 2.47704,2.20095 3.71556,3.30143l2.45822,1.70744c0,0 2.0511,1.42933 0.62177,3.48043zM287.98986,166.87001c-0.43102,-0.40757 -0.81116,-0.90642 -0.73638,-0.55439c0.06105,0.28742 0.38854,0.4311 0.73638,0.55439zM288.52405,159.88767c-0.04946,-0.02919 -0.09893,-0.05837 -0.14839,-0.08756c-0.02711,0.02765 -0.05278,0.05613 -0.07685,0.08554c-0.09259,0.11311 0.03168,0.07085 0.22524,0.00202z" fill="#2af957" stroke="none" stroke-width="0.5" stroke-linecap="butt"></path></g></g></svg>