<svg version="1.1" xmlns="http://www.w3.org/2000/svg" xmlns:xlink="http://www.w3.org/1999/xlink" width="80.5" height="100.9212" viewBox="0,0,80.5,100.9212"><g transform="translate(-198.73849,-117.50275)"><g data-paper-data="{&quot;isPaintingLayer&quot;:true}" fill-rule="nonzero" stroke-linejoin="miter" stroke-miterlimit="10" stroke-dasharray="" stroke-dashoffset="0" style="mix-blend-mode: normal"><path d="" data-paper-data="{&quot;index&quot;:null}" fill="none" stroke="#000000" stroke-width="1.5" stroke-linecap="round"></path><path d="M199.48849,178.17395c0,-21.81525 17.68475,-39.5 39.5,-39.5c21.81525,0 39.5,17.68475 39.5,39.5c0,21.81525 -17.68475,39.5 -39.5,39.5c-21.81525,0 -39.5,-17.68475 -39.5,-39.5z" fill="#d8d8d8" stroke="#000000" stroke-width="1.5" stroke-linecap="butt"></path><path d="M225.51005,194.79568c5.44898,-2.88817 27.57511,5.13694 27.57511,5.13694" data-paper-data="{&quot;index&quot;:null}" fill="none" stroke="#000000" stroke-width="1.5" stroke-linecap="round"></path><path d="M246.55225,168.34724l6.93986,4.16391l-6.59286,1.38797l-3.29643,5.89888l-2.25545,-6.41937l-7.46035,-3.64343l7.11335,-2.08196l3.99042,-7.46035z" fill="#be82ff" stroke="#000000" stroke-width="0" stroke-linecap="round"></path><path d="M260.20041,189.07504l8.86923,23.62441l-2.76488,0.89729l-8.55435,-23.426z" fill="none" stroke="#4d6200" stroke-width="3" stroke-linecap="round"></path><path d="M256.26877,190.77681l2.13707,-7.23156l2.4263,-0.01086l-1.7057,7.94325l7.42409,19.63452" fill="none" stroke="#4d6200" stroke-width="3" stroke-linecap="round"></path><path d="M249.90777,166.31336l14.81951,20.11522l-3.07978,0.69888l-13.87484,-19.52z" fill="none" stroke="#4d6200" stroke-width="3" stroke-linecap="round"></path><path d="M262.24272,186.1828l-13.38524,-18.55165l0.84296,-9.36666" fill="none" stroke="#4d6200" stroke-width="4.5" stroke-linecap="round"></path><path d="M258.43038,144.40943l0.97726,7.87415l-8.37658,3.52005l-7.7794,-3.36206l-0.26556,-8.30552" fill="none" stroke="#4d6200" stroke-width="4.5" stroke-linecap="round"></path><path d="M252.40708,157.11055l-1.69483,10.36957" fill="none" stroke="#4d6200" stroke-width="4.5" stroke-linecap="round"></path><path d="M249.88035,129.4l5.24439,3.97289l0.91304,13.70007l-5.2023,4.77528l-4.41292,-3.93731l-0.9855,-13.95307z" fill="#7d00ff" stroke="#7f00ff" stroke-width="0.5" stroke-linecap="round"></path><path d="M250.23482,132.75205l3.67488,2.78392l0.63979,9.60001l-3.64539,3.34617l-3.09225,-2.75899l-0.69057,-9.77729z" fill="#be82ff" stroke="#7f00ff" stroke-width="0" stroke-linecap="round"></path><path d="M220.70109,176.77305l10.7662,2.43108" fill="none" stroke="#000000" stroke-width="1.5" stroke-linecap="round"></path><path d="M226.89268,167.15203l-1.38919,9.72431" fill="none" stroke="#000000" stroke-width="1.5" stroke-linecap="round"></path><path d="M218.14948,162.95374l10.3457,3.84548" fill="none" stroke="#000000" stroke-width="1.5" stroke-linecap="round"></path><path d="M252.98684,117.50275l-5.40408,8.92874l-4.5247,-8.90496z" fill="#be82ff" stroke="#7f00ff" stroke-width="0" stroke-linecap="round"></path><path d="M274.54494,123.44614l-4.0997,8.3425l-4.70758,-7.5486z" fill="#be82ff" stroke="#7f00ff" stroke-width="0" stroke-linecap="round"></path><path d="M235.9541,166.37816l-0.74024,-9.42947l8.03735,4.16466z" fill="#be82ff" stroke="#7f00ff" stroke-width="0" stroke-linecap="round"></path><path d="M223.70772,129.86223l7.62249,6.27875l-8.95553,3.02101z" fill="#be82ff" stroke="#7f00ff" stroke-width="0" stroke-linecap="round"></path><path d="M267.74453,157.44052l7.16814,-6.66001l1.78925,9.19183z" fill="#be82ff" stroke="#7f00ff" stroke-width="0" stroke-linecap="round"></path></g></g></svg>