<svg version="1.1" xmlns="http://www.w3.org/2000/svg" xmlns:xlink="http://www.w3.org/1999/xlink" width="65.875" height="65.875" viewBox="0,0,65.875,65.875"><g transform="translate(-207.0625,-147.0625)"><g data-paper-data="{&quot;isPaintingLayer&quot;:true}" fill-rule="nonzero" stroke="none" stroke-width="0" stroke-linecap="butt" stroke-linejoin="miter" stroke-miterlimit="10" stroke-dasharray="" stroke-dashoffset="0" style="mix-blend-mode: normal"><path d="M207.0625,180c0,-18.19088 14.74662,-32.9375 32.9375,-32.9375c18.19088,0 32.9375,14.74662 32.9375,32.9375c0,18.19088 -14.74662,32.9375 -32.9375,32.9375c-18.19088,0 -32.9375,-14.74662 -32.9375,-32.9375z" fill="#000000"></path><path d="M228.38863,196.53692c0,0 -2.3253,-19.22704 -4.05823,-23.70544c-0.69171,-1.78757 -6.50517,-3.5934 -6.50517,-3.5934c0,0 35.1421,-6.88611 42.72822,-5.61945c2.34815,0.39207 1.41257,7.99731 1.54697,8.73509c0.15492,0.85046 -23.56425,6.65768 -23.56425,6.65768l0.92032,15.50936z" fill="#ffffff"></path></g></g></svg>