<svg version="1.1" xmlns="http://www.w3.org/2000/svg" xmlns:xlink="http://www.w3.org/1999/xlink" width="236.4024" height="76.68672" viewBox="0,0,236.4024,76.68672"><g transform="translate(-41.94096,-141.65663)"><g data-paper-data="{&quot;isPaintingLayer&quot;:true}" fill="#1000af" fill-rule="nonzero" stroke="#070054" stroke-width="2.5" stroke-linecap="butt" stroke-linejoin="miter" stroke-miterlimit="10" stroke-dasharray="" stroke-dashoffset="0" style="mix-blend-mode: normal"><path d="M202.90664,180c0,-20.4861 16.60726,-37.09336 37.09336,-37.09336c20.4861,0 37.09336,16.60726 37.09336,37.09336c0,20.4861 -16.60726,37.09336 -37.09336,37.09336c-20.4861,0 -37.09336,-16.60726 -37.09336,-37.09336z"></path><path d="M255.13108,167.57561c0,3.37324 -36.41859,6.10778 -81.34322,6.10778c-44.92462,0 -81.34322,-2.73455 -81.34322,-6.10778c0,-3.37324 36.41859,-6.10778 81.34322,-6.10778c44.92462,0 81.34322,2.73455 81.34322,6.10778z"></path><path d="M220.30524,186.81513c0,4.55387 -39.64838,8.24551 -88.55714,8.24551c-48.90875,0 -88.55714,-3.69164 -88.55714,-8.24551c0,-4.55387 39.64838,-8.24551 88.55714,-8.24551c48.90875,0 88.55714,3.69164 88.55714,8.24551z"></path></g></g></svg>