<svg version="1.1" xmlns="http://www.w3.org/2000/svg" xmlns:xlink="http://www.w3.org/1999/xlink" width="260.33926" height="156.48277" viewBox="0,0,260.33926,156.48277"><g transform="translate(-15.53326,-117.13017)"><g data-paper-data="{&quot;isPaintingLayer&quot;:true}" fill-rule="nonzero" stroke="#000000" stroke-linejoin="miter" stroke-miterlimit="10" stroke-dasharray="" stroke-dashoffset="0" style="mix-blend-mode: normal"><g stroke-width="1.5"><g><path d="M197.26015,272.86293c-42.79705,-0.20462 -77.32506,-35.06436 -77.12044,-77.86142c0.20462,-42.79705 35.06436,-77.32507 77.86142,-77.12044c42.79705,0.20462 77.32507,35.06434 77.12048,77.86143c-0.20462,42.79705 -35.06434,77.32507 -77.86142,77.12044z" fill="#d8d8d8" stroke-linecap="butt"></path><path d="M168.63325,173.62875l27.48318,9.14021" fill="none" stroke-linecap="round"></path><path d="M181.66363,181.50559l0.44544,11.5134" fill="none" stroke-linecap="round"></path><path d="M202.62744,181.79912l15.05022,-7.43538" fill="none" stroke-linecap="round"></path><path d="M173.77287,222.42134l46.09988,0.71088" fill="none" stroke-linecap="round"></path></g><path d="M210.66363,180.50559l0.44544,11.5134" fill="none" stroke-linecap="round"></path></g><g data-paper-data="{&quot;index&quot;:null}" stroke-linecap="butt"><path d="M64.34818,152.9313l-41.25701,-1.66983c0,0 -6.77284,-4.38713 -6.80802,-6.48138c-0.03511,-2.09051 6.59724,-6.07286 6.59724,-6.07286l41.25701,1.66983z" fill="#af5400" stroke-width="1.5"></path><path d="M69.32679,122.9817c0,0 1.18998,11.29928 1.07744,24.23997c-0.06014,6.92786 0.43876,20.69321 0.43876,20.69321c0,0 -8.56019,0.66056 -11.29692,0.38357c-5.88982,-0.59599 -10.58318,-10.29427 -10.47077,-23.23493c0.06055,-6.98123 -0.23523,-16.9759 5.16105,-21.375c4.60631,-3.75514 15.09034,-0.70688 15.09034,-0.70688z" fill="#989898" stroke-width="1"></path><path d="M67.83341,122.20168c5.88974,0.59597 10.57322,11.5696 10.4608,24.51028c-0.11247,12.94061 -4.97833,22.94808 -10.86805,22.35207c-5.88979,-0.59594 -10.57322,-11.5696 -10.4608,-24.51028c0.11248,-12.94069 4.97833,-22.94808 10.86808,-22.35215z" fill="#989898" stroke-width="1"></path><path d="M65.86531,151.70069c0,0 -3.60813,-4.29607 -3.7026,-6.1789c-0.09234,-1.83933 3.14201,-4.99089 3.14201,-4.99089l163.81817,2.50252l26.25749,11.56225l-189.51513,-2.89508z" fill="#e6e6e6" stroke-width="0.5"></path></g></g></g></svg>