<svg version="1.1" xmlns="http://www.w3.org/2000/svg" xmlns:xlink="http://www.w3.org/1999/xlink" width="273.21522" height="134.95821" viewBox="0,0,273.21522,134.95821"><g transform="translate(-45.87993,-144.12568)"><g data-paper-data="{&quot;isPaintingLayer&quot;:true}" fill-rule="nonzero" stroke-linejoin="miter" stroke-miterlimit="10" stroke-dasharray="" stroke-dashoffset="0" style="mix-blend-mode: normal"><path d="" data-paper-data="{&quot;index&quot;:null}" fill="none" stroke="#000000" stroke-width="1.5" stroke-linecap="round"></path><path d="" data-paper-data="{&quot;index&quot;:null}" fill="none" stroke="#000000" stroke-width="1.5" stroke-linecap="round"></path><path d="" data-paper-data="{&quot;index&quot;:null}" fill="none" stroke="#000000" stroke-width="1.5" stroke-linecap="round"></path><path d="" data-paper-data="{&quot;index&quot;:null}" fill="none" stroke="#000000" stroke-width="1.5" stroke-linecap="round"></path><path d="" data-paper-data="{&quot;index&quot;:null}" fill="none" stroke="#000000" stroke-width="1.5" stroke-linecap="round"></path><path d="M319.09515,206.33008" data-paper-data="{&quot;index&quot;:null}" fill="none" stroke="#d8d8d8" stroke-width="4" stroke-linecap="round"></path><path d="M289.92393,195.47557" data-paper-data="{&quot;index&quot;:null}" fill="none" stroke="#d8d8d8" stroke-width="4" stroke-linecap="round"></path><path d="M289.92393,195.47557" data-paper-data="{&quot;index&quot;:null}" fill="none" stroke="#d8d8d8" stroke-width="4" stroke-linecap="round"></path><path d="M246.59617,255.87341" data-paper-data="{&quot;index&quot;:null}" fill="none" stroke="#d8d8d8" stroke-width="4" stroke-linecap="round"></path><path d="M197.40984,237.57135" data-paper-data="{&quot;index&quot;:null}" fill="none" stroke="#d8d8d8" stroke-width="4" stroke-linecap="round"></path><path d="M197.40984,237.57135" data-paper-data="{&quot;index&quot;:null}" fill="none" stroke="#d8d8d8" stroke-width="4" stroke-linecap="round"></path><path d="M113.23186,278.07954c-36.78325,0 -66.60193,-29.8187 -66.60193,-66.60193c0,-36.78325 29.8187,-66.60193 66.60193,-66.60193c36.78325,0 66.60193,29.8187 66.60193,66.60193c0,36.78325 -29.8187,66.60193 -66.60193,66.60193z" fill="#d8d8d8" stroke="#000000" stroke-width="1.5" stroke-linecap="butt"></path><g><path d="M57.1934,262.10342l0.12297,-88.15508l45.03701,-27.47764l31.52964,-1.26749l42.57045,23.46838l1.84154,109.08039l-51.05199,-14.57522l-1.30975,-39.51567l-10.35233,-4.99585l-7.98967,4.5513l0.91476,37.65828l-51.72634,15.19151z" fill="#c3c3c3" stroke="#000000" stroke-width="2" stroke-linecap="round"></path><path d="M64.72112,208.9757l-0.41194,-19.21956l44.72123,5.19454l0.44488,20.75714z" fill="#c20000" stroke="none" stroke-width="0" stroke-linecap="butt"></path><path d="M127.19941,215.73118l-0.47402,-20.75647l44.44756,-7.16836l0.43891,19.21896z" data-paper-data="{&quot;index&quot;:null}" fill="#c20000" stroke="none" stroke-width="0" stroke-linecap="butt"></path></g><g stroke="#000000" stroke-linecap="butt"><path d="M148.96838,211.95488c0,0 3.44699,5.05148 6.61708,5.45873c1.86049,0.23901 -3.8413,14.153 -0.52366,15.66612c7.81225,3.56299 26.01381,-3.678 26.01381,-3.678l-1.76468,13.73655c0,0 -29.39476,3.5933 -40.67783,-8.00246c-2.18073,-2.24113 5.03286,-17.90916 5.03286,-17.90916z" data-paper-data="{&quot;index&quot;:null}" fill="#a7a7a7" stroke-width="0"></path><path d="M177.03836,257.48314c0,0 -1.09483,-12.91685 -4.13501,-13.30741c-4.69796,-0.60352 -18.44189,-2.36915 -24.1382,-3.10094c1.11365,-1.91668 1.86535,-4.08583 2.15059,-6.42563c0.30913,-2.53577 0.0383,-5.00863 -0.7084,-7.28549c6.91133,-0.54033 27.78226,-1.32019 36.74271,7.88853c2.09135,2.14927 -4.82658,17.17518 -4.82658,17.17518l-5.08514,5.05575z" fill="#919191" stroke-width="1"></path><path d="M151.2078,239.83714l-65.03874,-9.89182c0,0 -4.70849,-1.62836 -4.51096,-3.24881c0.22205,-1.82124 4.79374,-3.09586 4.79374,-3.09586l66.0233,5.84091z" fill="#d2d2d2" stroke-width="0.5"></path></g></g></g></svg>