<svg version="1.1" xmlns="http://www.w3.org/2000/svg" xmlns:xlink="http://www.w3.org/1999/xlink" width="196.33558" height="80.5" viewBox="0,0,196.33558,80.5"><g transform="translate(-83.91444,-139.75)"><g data-paper-data="{&quot;isPaintingLayer&quot;:true}" fill-rule="nonzero" stroke-linejoin="miter" stroke-miterlimit="10" stroke-dasharray="" stroke-dashoffset="0" style="mix-blend-mode: normal"><g stroke-linecap="butt"><path d="M240.91131,203.02485l-36.24771,0v-18.74881h36.24771z" fill="#454545" stroke="#000000" stroke-width="1"></path><path d="M223.28184,195.60643c-1.35447,0.48933 -2.21057,-0.08348 -2.693,-0.6571c-1.22112,1.19269 -2.59485,2.18333 -4.0875,2.74456c-3.58338,1.34733 -7.84939,0.28517 -11.42696,-0.29215c0,0 -2.46769,-0.40063 -2.06706,-2.86832c0.40063,-2.46769 2.86832,-2.06706 2.86832,-2.06706c5.09777,0.83294 8.86393,1.86893 12.4102,-2.48803c0.09583,-0.11774 0.19015,-0.23672 0.28305,-0.35683c-0.0632,-0.25923 -0.11965,-0.52067 -0.168,-0.78539c-0.34917,-0.68338 -0.6569,-1.37011 -0.92126,-2.04457c-1.311,-3.34465 -3.45593,-8.64704 0.82211,-11.67244c1.50441,-1.06391 3.86814,0.08821 5.42134,1.07952c0.23833,0.15211 0.45865,0.3334 0.66199,0.53915c2.73237,-0.62558 5.71419,0.64491 7.18441,3.84968c1.58417,3.45314 -0.60354,7.85943 -2.29357,10.63868l-0.89994,1.03852c0.13481,0.03251 0.27197,0.06044 0.41151,0.0836c0.6974,0.11573 4.75604,0.08595 5.45951,0.0858c0.88491,0 1.76982,0 2.65472,0c0.20598,-0.58825 0.6782,-1.17639 1.69531,-1.45197c2.413,-0.65379 3.06679,1.75921 3.06679,1.75921l-1.99602,4.69277c-1.80693,0 -3.61387,0 -5.4208,0c-1.3655,-0.00029 -5.36952,0.04854 -6.49408,-0.194c-1.45478,-0.31376 -2.79395,-0.96597 -4.0037,-1.84327c-0.13963,0.07695 -0.29488,0.14734 -0.46735,0.20965zM226.91682,182.41854c-0.05933,-0.28455 -0.26444,-0.55773 -0.52963,-0.73776c0.204,1.49238 0.18243,2.94529 0.02925,3.93139c-0.0635,0.40883 -0.17879,0.8041 -0.32781,1.18958c0.68961,-1.347 1.15046,-2.8376 0.82818,-4.38321z" fill="#ff0000" stroke="none" stroke-width="0.5"></path></g><path d="M203.22872,195.60608c0,-5.25842 4.2628,-9.52122 9.52122,-9.52122c5.25842,0 9.52122,4.2628 9.52122,9.52122c0,5.25842 -4.2628,9.52122 -9.52122,9.52122c-5.25842,0 -9.52122,-4.2628 -9.52122,-9.52122z" fill="#e6e6e6" stroke="#000000" stroke-width="1" stroke-linecap="butt"></path><path d="" data-paper-data="{&quot;index&quot;:null}" fill="none" stroke="#000000" stroke-width="1.5" stroke-linecap="round"></path><path d="" data-paper-data="{&quot;index&quot;:null}" fill="none" stroke="#000000" stroke-width="1.5" stroke-linecap="round"></path><path d="M200.50002,180c0,-21.81525 17.68475,-39.5 39.5,-39.5c21.81525,0 39.5,17.68475 39.5,39.5c0,21.81525 -17.68475,39.5 -39.5,39.5c-21.81525,0 -39.5,-17.68475 -39.5,-39.5z" fill="#6e6e6e" stroke="#000000" stroke-width="1.5" stroke-linecap="butt"></path><path d="M200.35573,181.6599c0,0 0.21836,-3.48635 0.21836,-5.83045c0,-2.68059 2.28148,-9.37942 2.28148,-9.37942c0,0 25.76053,3.29547 38.0247,3.29547c12.45976,0 36.15636,-3.29547 36.15636,-3.29547c0,0 0.32325,0.8142 0.73295,2.06366c1.27619,3.89191 3.39127,12.00691 -0.81086,12.89272c-2.60416,0.54896 -18.81959,2.66663 -35.57172,2.60715c-18.95763,-0.06731 -38.53144,-2.35365 -38.53144,-2.35365z" fill="#d0d0d0" stroke="#000000" stroke-width="0" stroke-linecap="butt"></path><path d="M235.39592,179.60722l-13.87412,-12.6255" fill="none" stroke="#000000" stroke-width="1.5" stroke-linecap="round"></path><path d="M228.71236,178.36443l0.2535,-3.54897" fill="none" stroke="#000000" stroke-width="1.5" stroke-linecap="round"></path><path d="M258.3434,168.56564l-12.11149,9.20415" fill="none" stroke="#000000" stroke-width="1.5" stroke-linecap="round"></path><path d="M251.52718,179.12492v-5.06996" fill="none" stroke="#000000" stroke-width="1.5" stroke-linecap="round"></path><path d="M83.91444,165.95892v0v0z" fill="#e6e6e6" stroke="#000000" stroke-width="1" stroke-linecap="butt"></path></g></g></svg>