<svg version="1.1" xmlns="http://www.w3.org/2000/svg" xmlns:xlink="http://www.w3.org/1999/xlink" width="196.33558" height="80.5" viewBox="0,0,196.33558,80.5"><g transform="translate(-83.91444,-139.75)"><g data-paper-data="{&quot;isPaintingLayer&quot;:true}" fill-rule="nonzero" stroke-linejoin="miter" stroke-miterlimit="10" stroke-dasharray="" stroke-dashoffset="0" style="mix-blend-mode: normal"><path d="M192.99657,197.7127c0,-5.25842 4.2628,-9.52122 9.52122,-9.52122c5.25842,0 9.52122,4.2628 9.52122,9.52122c0,5.25842 -4.2628,9.52122 -9.52122,9.52122c-5.25842,0 -9.52122,-4.2628 -9.52122,-9.52122z" fill="#e6e6e6" stroke="#000000" stroke-width="1" stroke-linecap="butt"></path><g stroke-linecap="butt"><path d="M210.04233,213.37668l-19.75854,-30.38908l15.71849,-10.21993l19.75854,30.38908z" fill="#454545" stroke="#000000" stroke-width="1"></path><path d="M206.65195,194.55285c-1.14856,-0.86882 -1.13499,-1.89879 -0.91705,-2.61592c-1.66555,-0.37362 -3.24489,-0.98532 -4.52905,-1.93079c-3.08286,-2.26978 -4.51776,-6.42527 -5.98388,-9.7393c0,0 -1.00925,-2.28723 1.27797,-3.29648c2.28723,-1.00925 3.29648,1.27797 3.29648,1.27797c2.08047,4.72786 3.26485,8.45002 8.85067,9.04815c0.15095,0.01616 0.30211,0.03038 0.45345,0.04279c0.18288,-0.19429 0.37129,-0.38413 0.56687,-0.56896c0.3826,-0.66524 0.79059,-1.29757 1.21193,-1.88685c2.08944,-2.92227 5.36562,-7.61084 10.23398,-5.67339c1.712,0.68132 2.03456,3.29103 2.05012,5.13355c0.00239,0.28272 -0.0295,0.56626 -0.09116,0.84888c2.01388,1.94974 2.57412,5.14216 0.68874,8.12166c-2.03149,3.21042 -6.91812,3.77817 -10.1694,3.87625l-1.36122,-0.18839c0.04623,0.13074 0.09758,0.26096 0.15423,0.39057c0.28313,0.64777 2.52045,4.03418 2.90403,4.62387c0.48236,0.74188 0.96472,1.48377 1.44708,2.22564c0.60545,-0.14797 1.35594,-0.07266 2.1414,0.62984c1.86344,1.66661 0.19683,3.53005 0.19683,3.53005l-5.02232,0.88461c-0.98495,-1.51488 -1.96991,-3.02977 -2.95487,-4.54465c-0.74409,-1.14496 -2.96761,-4.4752 -3.37726,-5.55021c-0.52995,-1.39068 -0.71313,-2.86892 -0.63706,-4.36135c-0.14062,-0.07512 -0.28426,-0.1669 -0.43052,-0.27753zM219.68973,190.41163c0.20622,-0.20485 0.32344,-0.52572 0.32982,-0.84618c-1.13997,0.98452 -2.36981,1.75842 -3.28003,2.16751c-0.37737,0.16962 -0.77159,0.28842 -1.176,0.37361c1.50519,-0.1561 3.00608,-0.58226 4.1262,-1.69495z" fill="#ff0000" stroke="none" stroke-width="0.5"></path></g><path d="" data-paper-data="{&quot;index&quot;:null}" fill="none" stroke="#000000" stroke-width="1.5" stroke-linecap="round"></path><path d="" data-paper-data="{&quot;index&quot;:null}" fill="none" stroke="#000000" stroke-width="1.5" stroke-linecap="round"></path><path d="M200.50002,180c0,-21.81525 17.68475,-39.5 39.5,-39.5c21.81525,0 39.5,17.68475 39.5,39.5c0,21.81525 -17.68475,39.5 -39.5,39.5c-21.81525,0 -39.5,-17.68475 -39.5,-39.5z" fill="#6e6e6e" stroke="#000000" stroke-width="1.5" stroke-linecap="butt"></path><path d="M200.35573,181.6599c0,0 0.21836,-3.48635 0.21836,-5.83045c0,-2.68059 2.28148,-9.37942 2.28148,-9.37942c0,0 25.76053,3.29547 38.0247,3.29547c12.45976,0 36.15636,-3.29547 36.15636,-3.29547c0,0 0.32325,0.8142 0.73295,2.06366c1.27619,3.89191 3.39127,12.00691 -0.81086,12.89272c-2.60416,0.54896 -18.81959,2.66663 -35.57172,2.60715c-18.95763,-0.06731 -38.53144,-2.35365 -38.53144,-2.35365z" fill="#d0d0d0" stroke="#000000" stroke-width="0" stroke-linecap="butt"></path><path d="M235.39592,179.60722l-13.87412,-12.6255" fill="none" stroke="#000000" stroke-width="1.5" stroke-linecap="round"></path><path d="M228.96586,174.81546l-0.2535,3.54897" fill="none" stroke="#000000" stroke-width="1.5" stroke-linecap="round"></path><path d="M258.3434,168.56564l-12.11149,9.20415" fill="none" stroke="#000000" stroke-width="1.5" stroke-linecap="round"></path><path d="M251.52718,179.12492v-5.06996" fill="none" stroke="#000000" stroke-width="1.5" stroke-linecap="round"></path><path d="M83.91444,165.95892v0z" fill="#e6e6e6" stroke="#000000" stroke-width="1" stroke-linecap="butt"></path></g></g></svg>