<svg version="1.1" xmlns="http://www.w3.org/2000/svg" xmlns:xlink="http://www.w3.org/1999/xlink" width="114.48407" height="80.5" viewBox="0,0,114.48407,80.5"><g transform="translate(-165.76593,-139.75)"><g data-paper-data="{&quot;isPaintingLayer&quot;:true}" fill-rule="nonzero" stroke-linejoin="miter" stroke-miterlimit="10" stroke-dasharray="" stroke-dashoffset="0" style="mix-blend-mode: normal"><path d="" data-paper-data="{&quot;index&quot;:null}" fill="none" stroke="#000000" stroke-width="1.5" stroke-linecap="round"></path><path d="M200.5,180c0,-21.81525 17.68475,-39.5 39.5,-39.5c21.81525,0 39.5,17.68475 39.5,39.5c0,21.81525 -17.68475,39.5 -39.5,39.5c-21.81525,0 -39.5,-17.68475 -39.5,-39.5z" fill="#d8d8d8" stroke="#000000" stroke-width="1.5" stroke-linecap="butt"></path><path d="M225.51005,194.79568c5.44898,-2.88817 27.57511,5.13694 27.57511,5.13694" data-paper-data="{&quot;index&quot;:null}" fill="none" stroke="#000000" stroke-width="1.5" stroke-linecap="round"></path><path d="M240.25489,167.17564l6.93986,4.16391l-6.59286,1.38797l-3.29643,5.89888l-2.25545,-6.41937l-7.46035,-3.64343l7.11335,-2.08196l3.99042,-7.46035z" fill="#be82ff" stroke="#000000" stroke-width="0" stroke-linecap="round"></path><path d="M231.46729,179.20413l-10.7662,-2.43108" fill="none" stroke="#000000" stroke-width="1.5" stroke-linecap="round"></path><path d="M225.50349,176.87634l1.38919,-9.72431" fill="none" stroke="#000000" stroke-width="1.5" stroke-linecap="round"></path><path d="M228.49518,166.79922l-10.3457,-3.84548" fill="none" stroke="#000000" stroke-width="1.5" stroke-linecap="round"></path><g stroke-linecap="round"><path d="M205.35516,172.6208l6.74126,4.1848l-2.52161,8.72922l-7.50207,3.94226l-6.62997,-5.00956" fill="none" stroke="#4d6200" stroke-width="4.5"></path><path d="M218.46102,193.11624l-7.00497,-7.8314" fill="none" stroke="#4d6200" stroke-width="4.5"></path><path d="M188.30536,169.84771l6.38533,-1.58593l11.23454,7.8937l0.44877,7.0474l-5.83543,0.96125l-11.47694,-7.99621z" fill="#7d00ff" stroke="#7f00ff" stroke-width="0.5"></path><path d="M191.13647,171.6771l4.47437,-1.11131l7.87235,5.53132l0.31447,4.93829l-4.08905,0.67357l-8.04219,-5.60316z" fill="#be82ff" stroke="#7f00ff" stroke-width="0"></path><g fill="none" stroke="#4d6200"><path d="M241.22471,199.29524l23.95429,7.93525l-1.03821,2.7151l-23.60213,-8.05568z" stroke-width="3"></path><path d="M240.07975,203.42354l-4.28529,-6.20475l1.51537,-1.89492l5.11003,6.31604l19.94183,6.55402" stroke-width="3"></path><path d="M217.04782,193.0095l24.96052,1.10095l-1.39037,2.83555l-23.90404,-1.46225z" stroke-width="3"></path><path d="M240.25667,195.88951l-22.84301,-1.23508l-6.75953,-6.53863" stroke-width="4.5"></path></g></g><g stroke="none" stroke-width="0.5" stroke-linecap="butt"><path d="M190.95754,209.46109c-0.20553,0.33767 -0.45492,0.63227 -0.73639,0.88098l-0.06336,0.09235l-0.05656,0.00929c-1.22327,0.99389 -2.98724,1.16485 -4.41052,0.29849c-0.97773,-0.59515 -1.5945,-1.55797 -1.78074,-2.60268l-0.038,-0.04556l0.01286,-0.11496c-0.08566,-0.63412 -0.01369,-1.29268 0.23107,-1.9132l0.39078,-1.0495l-1.24318,0.89012l-3.53181,-1.56407l-0.59498,-1.64406l-0.18249,-0.3264l-0.44831,-0.70725l-0.36024,-0.56831l-0.4021,-0.47192l-0.16847,-0.33938l-0.25961,-0.27599l-0.55283,-0.98875l-0.51707,-1.90653l0.02106,-0.035l-0.01974,-0.03573l0.58719,-1.88609l0.23041,-0.37852l0.22572,-1.11287l0.17168,-2.80386l-0.75778,-3.35463l-1.79933,-3.56626l-1.57945,-3.07236l-0.01504,-0.06424l-0.0418,-0.05104l-1.45758,-3.0855l-1.37991,-2.46804l-3.30477,-3.63266l-0.35019,-0.35277l-0.24387,-0.40985l-0.41674,-0.42206l0.00735,-0.26594l-0.35686,-0.59974l0.41491,-1.49956l0.04137,-1.49593l0.43976,-0.24304l0.134,-0.48427l1.44519,-0.38845l1.3618,-0.75255l0.66633,0.20744l0.25692,-0.06905l0.50748,0.30702l0.45537,0.14176l0.11491,0.06994l1.17595,0.3022l1.23465,0.22912l1.4454,-0.16487l2.30871,-0.86203l4.32151,-2.30995l2.78588,-3.07631l1.52677,-2.71719l0.74987,-2.86987l0.02416,-1.76557l-0.21665,-0.42939l-0.12937,-0.57238l-0.23184,-0.53908l-0.38247,-2.35261l0.0187,-0.22262l-0.06422,-0.21398l-0.00996,-0.21355l-0.02658,-0.06686l0.0213,-0.0466l-0.00823,-0.17646l0.38938,-1.93663l0.82221,-0.52205l0.37988,-0.83188l1.11358,-0.11639l0.94522,-0.60014l0.81429,0.41628l0.96866,-0.10124l1.50761,1.27642l0.10312,0.14344l0.04563,0.02332l0.02067,0.06891l0.294,0.40896l0.03691,0.01353l0.04229,0.09663l0.08268,0.11501l0.31982,0.80473l0.34718,0.79331l0.02362,0.13966l0.03896,0.09801l-0.01634,0.03576l0.38418,2.27144l-0.02352,0.30322l0.9167,1.81686l1.76224,2.55246l5.25502,3.46343l7.13726,1.8857l6.26944,-0.5055l0.93045,-0.45178l2.37517,-1.2584l1.91772,-0.47384l0.1943,0.12303l0.15745,-0.06563l1.41619,1.06195l1.49556,0.9469l-0.00544,0.17049l0.18401,0.13798l0.23786,1.96103l-0.16596,1.32859l-0.22463,2.11676l-0.13116,4.45199l0.73512,2.94795l-0.00003,0.03232l0.01473,0.02877l1.2045,5.19141l0.38409,0.5663l0.05679,0.04373l0.79622,0.29211l0.69656,0.47308l0.81717,0.50044l0.01395,0.064l0.10648,0.07231l0.31392,1.8563l0.38832,1.7814l-0.07527,0.06972l0.0171,0.10117l-1.39445,1.17461l-1.3812,1.27934l-0.12849,-0.00767l-0.05009,0.0422l-0.95278,-0.10199l-0.5672,-0.03381l-0.38669,0.0139l-1.90458,0.23413l-3.56486,1.6693l-4.11105,4.69221l-1.05227,7.89958l2.32676,3.75425l0.44393,0.47772l0.95357,1.73l-0.20318,0.65013l0.25999,0.56477l-0.79383,1.14335l-0.4152,1.32855l-0.6054,0.14148l-0.38847,0.55952l-1.95101,0.30934l-0.62626,-0.0551l-0.52394,-0.18105l-0.54956,-0.07273l-6.08098,-2.40446l-4.68863,-1.74824l-4.54476,-1.36761l-3.39279,0.17017l-1.70948,1.58238l-0.69379,1.86335c-0.08743,0.24943 -0.20214,0.49353 -0.34508,0.72838zM189.52012,198.71596l0.41315,-0.22669l0.10847,-0.21405l0.63153,-0.19196l0.57867,-0.31751l0.22892,0.07203l0.45089,-0.13705l5.44482,-0.27307l0.64239,0.12679l0.65405,0.03097l5.29792,1.59425l0.1088,0.06481l0.12583,0.01413l2.55682,0.95336l1.33006,-9.98512l0.05585,-0.14087l-0.04199,-0.12169l0.39527,-0.76956l0.31881,-0.80425l0.11922,-0.04855l0.06923,-0.13478l5.12806,-5.85302l0.00113,-0.01378l0.03816,-0.03105l0.23676,-0.27022l0.64684,-0.44858l0.61062,-0.49674l0.32535,-0.15236l0.04043,-0.02803l0.01356,0.00276l2.98868,-1.39946l-1.23903,-5.34024l-0.8553,-3.42987l0.00031,-0.52622l-0.11253,-0.51404l0.08025,-2.72387l-7.09065,0.5717l-0.63919,-0.10613l-0.6479,-0.00862l-8.37741,-2.21336l-0.54412,-0.29957l-0.58604,-0.20583l-6.08006,-4.00721l-1.59884,2.84548l-0.29673,0.31415l-0.20372,0.38109l-3.52216,3.88936l-0.5466,0.36591l-0.48758,0.44152l-5.13477,2.74465l-0.25202,0.06326l-0.21411,0.14721l-2.74514,1.02498l0.62076,1.11028l0.03513,0.12952l0.08504,0.10383l1.48621,3.14612l1.55672,3.0281l0.00341,0.01456l0.00976,0.01132l2.01856,4.00073l0.10409,0.46049l0.21261,0.42152l0.98222,4.3483l-0.01241,0.54389l0.09944,0.53486l-0.22139,3.61566l-0.08144,0.25764l0.01212,0.26994l-0.37437,1.84586l0.49881,0.78693l0,0.00001l0.00001,0l0.50491,0.79652l0.03404,0.1027l0.07413,0.0788l0.33916,0.60661l0.00884,0.00392l0.0122,0.03374l0.19263,0.3445l0.2032,0.74927l0.26418,0.72999l0.03745,0.36501z" fill="#7d00ff"></path><path d="M192.48548,202.48025c-0.15685,0.25766 -0.34713,0.48246 -0.56191,0.67222l-0.04836,0.07048l-0.04317,0.00708c-0.9334,0.75839 -2.27944,0.88885 -3.36547,0.22779c-0.74606,-0.45412 -1.21669,-1.18883 -1.35881,-1.986l-0.029,-0.03478l0.00981,-0.08771c-0.06536,-0.48388 -0.01046,-0.98639 0.17631,-1.45988l0.29817,-0.80082l-0.9486,0.67921l-2.69498,-1.19346l-0.45399,-1.2545l-0.13926,-0.24906l-0.34208,-0.53967l-0.2749,-0.43366l-0.30684,-0.36011l-0.12854,-0.25896l-0.19808,-0.21059l-0.42185,-0.75448l-0.39454,-1.45477l0.01608,-0.02669l-0.01506,-0.02727l0.44805,-1.43918l0.17581,-0.28883l0.17223,-0.84919l0.131,-2.13952l-0.57822,-2.55976l-1.37301,-2.72126l-1.20522,-2.34437l-0.01146,-0.04902l-0.03189,-0.03895l-1.11222,-2.35439l-1.05295,-1.88323l-2.52172,-2.77193l-0.26723,-0.2692l-0.18609,-0.31275l-0.31799,-0.32207l0.00561,-0.20293l-0.27229,-0.45763l0.31659,-1.14425l0.03155,-1.14147l0.33556,-0.18544l0.10225,-0.36952l1.10277,-0.29638l1.03913,-0.57424l0.50846,0.1583l0.19604,-0.05269l0.38723,0.23428l0.34746,0.10819l0.08769,0.05338l0.89732,0.23058l0.94212,0.17483l1.10291,-0.1258l1.76168,-0.65778l3.29755,-1.76262l2.12577,-2.34739l1.16499,-2.07337l0.57219,-2.18985l0.01844,-1.34723l-0.16531,-0.32765l-0.09872,-0.43677l-0.17691,-0.41136l-0.29185,-1.79518l0.01426,-0.16988l-0.04899,-0.16327l-0.00759,-0.16295l-0.02025,-0.05102l0.01624,-0.03557l-0.00628,-0.13465l0.29712,-1.47775l0.62737,-0.39834l0.28987,-0.63477l0.84972,-0.0888l0.72125,-0.45795l0.62132,0.31763l0.73914,-0.07725l1.15041,0.97397l0.07868,0.10944l0.03481,0.01779l0.01579,0.05258l0.22434,0.31206l0.02815,0.01032l0.03227,0.07373l0.06308,0.08775l0.24405,0.61406l0.26493,0.60535l0.01801,0.10659l0.02973,0.07481l-0.01247,0.02727l0.29314,1.73323l-0.01796,0.23138l0.69947,1.38637l1.3447,1.94767l4.00987,2.64279l5.44612,1.4389l4.78393,-0.38571l0.71,-0.34473l1.81238,-0.96022l1.4633,-0.36156l0.14827,0.09389l0.12013,-0.05007l1.08066,0.81035l1.14121,0.72254l-0.00416,0.13008l0.14039,0.10528l0.18151,1.49637l-0.12662,1.01378l-0.1714,1.61521l-0.1001,3.39714l0.56094,2.24945l-0.00002,0.02468l0.01122,0.02197l0.91911,3.96134l0.29307,0.43211l0.04332,0.03335l0.60756,0.2229l0.5315,0.36097l0.62354,0.38185l0.01064,0.04885l0.08124,0.05518l0.23955,1.41645l0.2963,1.35932l-0.05744,0.0532l0.01306,0.07719l-1.06406,0.89628l-1.05393,0.9762l-0.09804,-0.00584l-0.03825,0.0322l-0.72703,-0.07782l-0.43281,-0.0258l-0.29506,0.01059l-1.45331,0.17865l-2.7202,1.27377l-3.13694,3.58041l-0.80293,6.02781l1.77545,2.86469l0.33873,0.36453l0.72762,1.32008l-0.15505,0.49609l0.19838,0.43094l-0.60571,0.87244l-0.31684,1.01373l-0.46198,0.10798l-0.29642,0.42695l-1.48872,0.23604l-0.47788,-0.04204l-0.39981,-0.13817l-0.41934,-0.0555l-4.6401,-1.83475l-3.57767,-1.334l-3.46789,-1.04356l-2.5889,0.12984l-1.30444,1.20744l-0.5294,1.42184c-0.06673,0.19032 -0.15425,0.3766 -0.26331,0.55578zM191.38864,194.28112l0.31527,-0.17297l0.08277,-0.16335l0.48189,-0.14648l0.44155,-0.24226l0.17468,0.05496l0.34407,-0.10457l4.15469,-0.20836l0.49018,0.09674l0.49909,0.02362l4.0426,1.2165l0.08302,0.04945l0.09602,0.01078l1.95099,0.72746l1.01492,-7.61918l0.0426,-0.1075l-0.03204,-0.09285l0.30161,-0.5872l0.24326,-0.61369l0.09097,-0.03704l0.05283,-0.10285l3.91299,-4.46617l0.00085,-0.01054l0.02913,-0.02368l0.18066,-0.2062l0.49357,-0.3423l0.46594,-0.37903l0.24827,-0.11624l0.03085,-0.02138l0.01035,0.00209l2.2805,-1.06787l-0.94545,-4.07488l-0.65263,-2.61717l0.00024,-0.40152l-0.08588,-0.39224l0.06123,-2.07846l-5.41056,0.43625l-0.48774,-0.08097l-0.49439,-0.00658l-6.39242,-1.68891l-0.4152,-0.2286l-0.44717,-0.15705l-4.63942,-3.0577l-1.22001,2.17126l-0.22643,0.23973l-0.15547,0.2908l-2.6876,2.96779l-0.4171,0.27921l-0.37206,0.33691l-3.91809,2.09433l-0.1923,0.04825l-0.16338,0.11233l-2.09468,0.78212l0.47368,0.84719l0.0268,0.09884l0.06489,0.07922l1.13405,2.40065l1.18786,2.31062l0.0026,0.01113l0.00745,0.00865l1.54027,3.05278l0.07941,0.3514l0.16223,0.32165l0.74948,3.318l-0.00948,0.41502l0.07588,0.40812l-0.16892,2.75895l-0.06213,0.19659l0.00926,0.20599l-0.28565,1.40849l0.38063,0.60047l0,0.00001l0.00001,0l0.38527,0.60779l0.02598,0.07837l0.05657,0.06012l0.25882,0.46286l0.00674,0.003l0.00932,0.02575l0.14698,0.26287l0.15506,0.57172l0.2016,0.55703l0.02857,0.27852z" fill="#be82ff"></path></g></g></g></svg>