<svg version="1.1" xmlns="http://www.w3.org/2000/svg" xmlns:xlink="http://www.w3.org/1999/xlink" width="120.28178" height="84.1771" viewBox="0,0,120.28178,84.1771"><defs><linearGradient x1="221.96482" y1="180.65097" x2="229.24278" y2="180.65097" gradientUnits="userSpaceOnUse" id="color-1"><stop offset="0" stop-color="#ff0000"></stop><stop offset="1" stop-color="#ff0000"></stop></linearGradient><linearGradient x1="231.63018" y1="180.42577" x2="238.90813" y2="180.42577" gradientUnits="userSpaceOnUse" id="color-2"><stop offset="0" stop-color="#ff0000"></stop><stop offset="1" stop-color="#ffad00"></stop></linearGradient><linearGradient x1="241.48215" y1="180.5738" x2="248.7601" y2="180.5738" gradientUnits="userSpaceOnUse" id="color-3"><stop offset="0" stop-color="#ff9500"></stop><stop offset="1" stop-color="#e2ff00"></stop></linearGradient><linearGradient x1="251.52073" y1="180.90845" x2="258.79868" y2="180.90845" gradientUnits="userSpaceOnUse" id="color-4"><stop offset="0" stop-color="#e2ff00"></stop><stop offset="1" stop-color="#ff9500"></stop></linearGradient><linearGradient x1="268.72782" y1="180.94703" x2="261.44987" y2="180.94703" gradientUnits="userSpaceOnUse" id="color-5"><stop offset="0" stop-color="#ff0000"></stop><stop offset="1" stop-color="#ffad00"></stop></linearGradient><linearGradient x1="271.379" y1="180.799" x2="278.65695" y2="180.799" gradientUnits="userSpaceOnUse" id="color-6"><stop offset="0" stop-color="#ff0000"></stop><stop offset="1" stop-color="#ff0000"></stop></linearGradient></defs><g transform="translate(-186.10926,-135.81585)"><g data-paper-data="{&quot;isPaintingLayer&quot;:true}" fill-rule="nonzero" stroke="#000000" stroke-linejoin="miter" stroke-miterlimit="10" stroke-dasharray="" stroke-dashoffset="0" style="mix-blend-mode: normal"><path d="M288.28592,155.67539c0,-4.79248 3.88508,-8.67756 8.67756,-8.67756c4.79248,0 8.67756,3.88508 8.67756,8.67756c0,4.79248 -3.88508,8.67756 -8.67756,8.67756c-4.79248,0 -8.67756,-3.88508 -8.67756,-8.67756z" fill="#d98a8a" stroke-width="1.5" stroke-linecap="butt"></path><path d="M204.82949,179.74295c0,-21.81525 17.68475,-39.5 39.5,-39.5c21.81525,0 39.5,17.68475 39.5,39.5c0,21.81525 -17.68475,39.5 -39.5,39.5c-21.81525,0 -39.5,-17.68475 -39.5,-39.5z" fill="#d8d8d8" stroke-width="1.5" stroke-linecap="butt"></path><path d="M240.89126,156.88643l-12.78401,-1.53952" fill="none" stroke-width="1.5" stroke-linecap="round"></path><path d="M245.10841,157.74629l13.11871,-1.85783" fill="none" stroke-width="1.5" stroke-linecap="round"></path><path d="M252.02205,166.90584l0.15196,-10.63701" fill="none" stroke-width="1.5" stroke-linecap="round"></path><path d="M235.34618,167.01789v-10.07717" fill="none" stroke-width="1.5" stroke-linecap="round"></path><path d="M186.85926,145.24341c0,-4.79248 3.88508,-8.67756 8.67756,-8.67756c4.79248,0 8.67756,3.88508 8.67756,8.67756c0,4.79248 -3.88508,8.67756 -8.67756,8.67756c-4.79248,0 -8.67756,-3.88508 -8.67756,-8.67756z" fill="#d98a8a" stroke-width="1.5" stroke-linecap="butt"></path><g stroke-linecap="butt"><path d="M217.11285,188.11553v-16.60866h68.11417c0,0 0.973,6.39296 0.10634,9.24974c-0.80887,2.66628 -3.27878,8.29199 -3.27878,8.29199z" fill="#9a9a9a" stroke-width="0.5"></path><path d="M221.96482,186.43601v-11.57008h7.27795v11.57008z" fill="url(#color-1)" stroke-width="0"></path><path d="M231.63018,186.21081v-11.57008h7.27795v11.57008z" fill="url(#color-2)" stroke-width="0"></path><path d="M241.48215,186.35884v-11.57008h7.27795v11.57008z" fill="url(#color-3)" stroke-width="0"></path><path d="M251.52073,186.69349v-11.57008h7.27795v11.57008z" fill="url(#color-4)" stroke-width="0"></path><path d="M261.44987,186.73207v-11.57008h7.27795v11.57008z" data-paper-data="{&quot;index&quot;:null}" fill="url(#color-5)" stroke-width="0"></path><path d="M271.379,186.58404v-11.57008h7.27795v11.57008z" fill="url(#color-6)" stroke-width="0"></path></g></g></g></svg>