<svg version="1.1" xmlns="http://www.w3.org/2000/svg" xmlns:xlink="http://www.w3.org/1999/xlink" width="247.63694" height="88.75" viewBox="0,0,247.63694,88.75"><g transform="translate(-396,-135.125)"><g data-paper-data="{&quot;isPaintingLayer&quot;:true}" fill="none" fill-rule="nonzero" stroke-linejoin="miter" stroke-miterlimit="10" stroke-dasharray="" stroke-dashoffset="0" style="mix-blend-mode: normal"><path d="" data-paper-data="{&quot;index&quot;:null}" stroke="#000000" stroke-width="1.5" stroke-linecap="round"/><path d="" data-paper-data="{&quot;index&quot;:null}" stroke="#000000" stroke-width="1.5" stroke-linecap="round"/><path d="" data-paper-data="{&quot;index&quot;:null}" stroke="#000000" stroke-width="1.5" stroke-linecap="round"/><path d="" data-paper-data="{&quot;index&quot;:null}" stroke="#000000" stroke-width="1.5" stroke-linecap="round"/><path d="" data-paper-data="{&quot;index&quot;:null}" stroke="#000000" stroke-width="1.5" stroke-linecap="round"/><path d="" data-paper-data="{&quot;index&quot;:null}" stroke="#000000" stroke-width="1.5" stroke-linecap="round"/><path d="M398.75,180.13127h55.65251l144.89933,0.96923" stroke="#adff56" stroke-width="5.5" stroke-linecap="round"/><path d="M551.66654,174.76115c2.26191,-10.04608 11.23852,-17.55014 21.9678,-17.55014c11.07919,0 20.28954,8.0015 22.16751,18.54098" stroke="#adff56" stroke-width="4" stroke-linecap="butt"/><path d="M594.62917,187.88504c-3.26737,8.4042 -11.43545,14.36101 -20.99483,14.36101c-9.8957,0 -18.3005,-6.38335 -21.32135,-15.25701" stroke="#adff56" stroke-width="4" stroke-linecap="butt"/><path d="M601.12878,173.21609l18.45699,6.89061l-19.19527,7.62889" stroke="#adff56" stroke-width="4" stroke-linecap="round"/><path d="M572.75,137.875v10.75" stroke="#adff56" stroke-width="5.5" stroke-linecap="round"/><path d="M598.25,147.125l-6.25,6.25" stroke="#adff56" stroke-width="5.5" stroke-linecap="round"/><path d="M542.75,148.125l7.25,7.25" stroke="#adff56" stroke-width="5.5" stroke-linecap="round"/><path d="M574.5,208.875v12.25" stroke="#adff56" stroke-width="5.5" stroke-linecap="round"/><path d="M555,203.375l-9.125,9.125" stroke="#adff56" stroke-width="5.5" stroke-linecap="round"/><path d="M602.75,211.375l-8.25,-8.25" stroke="#adff56" stroke-width="5.5" stroke-linecap="round"/><path d="M599.25,164.875l37.5,14.5l-34,16.5" stroke="#adff56" stroke-width="5.5" stroke-linecap="round"/></g></g></svg>