<svg version="1.1" xmlns="http://www.w3.org/2000/svg" xmlns:xlink="http://www.w3.org/1999/xlink" width="55.4403" height="47.12715" viewBox="0,0,55.4403,47.12715"><g transform="translate(-212.27985,-156.43642)"><g data-paper-data="{&quot;isPaintingLayer&quot;:true}" fill-rule="nonzero" stroke="none" stroke-width="0.5" stroke-linecap="butt" stroke-linejoin="miter" stroke-miterlimit="10" stroke-dasharray="" stroke-dashoffset="0" style="mix-blend-mode: normal"><path d="M257.24075,202.05345c-0.22674,-3.61568 -1.33856,-6.18238 -3.89236,-9.10026c-3.42527,-1.93697 -8.18049,1.36789 -11.52757,2.49369c-5.92353,1.99239 -9.95513,2.12284 -15.58885,-0.931c-6.91578,-4.09985 -15.1843,-12.44787 -13.79861,-21.30148c0.55807,-3.5657 2.21724,-6.88714 4.18971,-9.85998c5.40737,-5.90392 12.72946,-7.77308 20.4786,-6.57295c4.34718,0.67326 8.9434,1.27681 12.55572,3.98189c2.08704,2.4343 4.19613,5.15447 4.39172,8.48947c0.19468,3.31956 -1.1205,8.53004 1.82185,11.0937c1.48206,1.29132 3.71633,1.68356 5.55032,2.21807c5.91228,2.96318 8.57573,10.01246 3.9403,15.60069c-1.56314,1.88444 -3.82326,3.33503 -5.82601,4.67902c0,0 -0.10104,0.0678 -0.25627,0.12085c0.00419,0.19679 0.00626,0.39622 0.00626,0.59841l-1.87019,-0.11824l-0.12981,0.11824c0,-0.0423 -0.00009,-0.08445 -0.00028,-0.12646l-0.2953,-0.01867c0,0 -0.53843,-0.81292 0.25077,-1.36499z" fill="#1b1b1b"></path><path d="M239.06358,185.13212l0.04798,-0.00795l-0.04476,-0.0869c-0.00103,0.03162 -0.0021,0.06323 -0.00322,0.09484zM239.52968,186.94647c0.01084,0.05898 0.0165,0.11977 0.0165,0.18188c0,0.55228 -0.44772,1 -1,1c-0.10769,0 -0.21141,-0.01702 -0.3086,-0.04853v0.75313c0,0.55228 -0.44772,1 -1,1c-0.36182,0 -0.67876,-0.19216 -0.85433,-0.48l-1.05967,-1.67611l0.19439,-0.1229c-0.08385,-0.11178 -0.16537,-0.22353 -0.24464,-0.33531c-0.17797,0.16325 -0.41524,0.26288 -0.67578,0.26288c-0.02201,0 -0.04385,-0.00071 -0.0655,-0.00211c0.08681,0.4676 0.17529,0.9143 0.21235,1.34979c0.10427,0.48313 0.20925,0.96327 0.31622,1.43942l0.37029,1.47598c0.02316,0.08443 0.03552,0.17333 0.03552,0.26511c0,0.55228 -0.44772,1 -1,1c-0.45521,0 -0.83938,-0.30416 -0.96037,-0.72033l-0.53197,-1.68287l0.10531,-0.03329c-0.16079,-0.71796 -0.31889,-1.44044 -0.47746,-2.16538c-0.09094,0.08342 -0.19737,0.15022 -0.31447,0.19561c0.05438,0.62136 0.11128,1.22951 0.17685,1.81843l0.21963,1.97327c0.00511,0.04097 0.00775,0.08272 0.00775,0.12508c0,0.55228 -0.44772,1 -1,1c-0.44645,0 -0.82457,-0.29257 -0.95309,-0.69643l-0.64342,-1.86918l0.3011,-0.10365c-0.3571,-0.80079 -0.63835,-1.61534 -0.86096,-2.4426l-0.3418,-0.49149l0.01465,-0.01019c-0.03022,-0.03761 -0.0598,-0.07583 -0.08867,-0.1147c-0.037,-0.04982 -0.07299,-0.10081 -0.10798,-0.15292c-0.34216,-0.07699 -0.61795,-0.32937 -0.72796,-0.65776l-0.10816,-0.29939c-0.13588,0.39097 -0.50758,0.6716 -0.94483,0.6716c-0.43543,0 -0.80586,-0.2783 -0.94312,-0.66672l-0.70191,-1.84783l0.38419,-0.14594c-0.743,-1.89335 -0.92972,-3.80932 -1.01318,-5.87736c-0.1713,-1.03923 -0.31482,-2.08386 -0.41501,-3.13793c0,0 -0.04078,-0.43098 0.21489,-0.75264l-0.0512,-0.33497c-0.00933,-0.05488 -0.01419,-0.11128 -0.01419,-0.16882c0,-0.55228 0.44772,-1 1,-1c0.45051,0 0.83145,0.29792 0.95654,0.70749l0.12847,0.38793c0.04786,-0.00703 0.09682,-0.01067 0.14663,-0.01067c0.20016,0 0.38659,0.05881 0.54294,0.16009c-0.07324,-0.47853 -0.14806,-0.95907 -0.227,-1.44114l0.00835,-0.04265l-0.01254,0.001l-0.15307,-1.92582c-0.00267,-0.02979 -0.00404,-0.05997 -0.00404,-0.09046c0,-0.55228 0.44772,-1 1,-1c0.41574,0 0.77222,0.25369 0.92308,0.61472l0.80302,1.80676l-0.21927,0.09745c0.36842,0.61228 0.70762,1.24209 1.0215,1.88639c0.18324,-0.22934 0.4653,-0.37626 0.78168,-0.37626c0.2757,0 0.52533,0.11157 0.70623,0.29202c0.08031,-0.12077 0.18617,-0.22308 0.30986,-0.29921l0.06453,-0.84249c0.03476,-0.52076 0.46819,-0.93239 0.99775,-0.93239c0.39091,0 0.72943,0.2243 0.89388,0.55122l0.9247,1.74984l-0.2491,0.13164c0.7964,1.32662 1.36658,2.71139 1.79335,4.14972c0.00836,-0.46547 0.00824,-0.903 -0.0152,-1.2947l-0.11002,-1.40948c-0.00258,-0.02928 -0.0039,-0.05893 -0.0039,-0.08888c0,-0.20955 0.06446,-0.40405 0.17462,-0.56475c-0.04798,-0.17089 -0.09675,-0.34318 -0.14649,-0.51688l0.00918,-0.04428l-0.01815,0.00361l-0.22691,-1.14204c-0.01518,-0.06928 -0.02319,-0.14124 -0.02319,-0.21508c0,-0.55228 0.44772,-1 1,-1c0.45385,0 0.83708,0.30234 0.95927,0.71659l0.11888,0.37093c0.17671,0.11339 0.3154,0.28087 0.39269,0.47906l0.02706,0.06496c0.88768,0.07192 0.88768,0.99557 0.88768,0.99557l-0.04634,-0.14594c0.40997,1.30237 1.04826,3.13024 1.42866,4.92654c0.58322,1.51806 1.10617,3.07713 1.68709,4.65049l0.51206,1.03086c0.07244,0.13843 0.1134,0.29592 0.1134,0.46298c0,0.55228 -0.44772,1 -1,1c-0.33618,0 -0.63361,-0.16589 -0.81491,-0.42027l-0.26822,-0.36718c-0.13145,-0.02106 -0.25434,-0.06773 -0.36339,-0.13475c-0.17223,0.14057 -0.3922,0.22487 -0.63185,0.22487c-0.39477,0 -0.73612,-0.22876 -0.89871,-0.56094l-0.28882,-0.56067zM235.93046,185.04716c-0.09596,-0.68454 -0.20028,-1.36498 -0.31517,-2.04401c-0.32608,-0.63484 -0.66254,-1.28916 -0.97727,-1.94381c0.04806,0.60502 0.09583,1.2092 0.13751,1.81324c0.05554,0.17717 0.11669,0.34988 0.18421,0.51736c0.27074,0.67164 0.63066,1.17825 0.97073,1.65721z" fill="#ff0000"></path></g></g></svg>