<svg version="1.1" xmlns="http://www.w3.org/2000/svg" xmlns:xlink="http://www.w3.org/1999/xlink" width="84.00775" height="80.5" viewBox="0,0,84.00775,80.5"><g transform="translate(-199.75,-139.75)"><g data-paper-data="{&quot;isPaintingLayer&quot;:true}" fill-rule="nonzero" stroke="#000000" stroke-width="1.5" stroke-linejoin="miter" stroke-miterlimit="10" stroke-dasharray="" stroke-dashoffset="0" style="mix-blend-mode: normal"><path d="M271.04952,200.51275c-6.60435,0 -11.95823,-5.35388 -11.95823,-11.95823c0,-6.60436 5.35388,-11.95824 11.95823,-11.95824c6.60435,0 11.95823,5.35389 11.95823,11.95824c0,6.60435 -5.35388,11.95823 -11.95823,11.95823z" data-paper-data="{&quot;index&quot;:null}" fill="#d8d8d8" stroke-linecap="butt"></path><path d="" data-paper-data="{&quot;index&quot;:null}" fill="none" stroke-linecap="round"></path><path d="M240,219.5c-21.81525,0 -39.5,-17.68475 -39.5,-39.5c0,-21.81525 17.68475,-39.5 39.5,-39.5c21.81525,0 39.5,17.68475 39.5,39.5c0,21.81525 -17.68475,39.5 -39.5,39.5z" data-paper-data="{&quot;index&quot;:null}" fill="#d8d8d8" stroke-linecap="butt"></path><path d="M251.13536,164.7941l-0.23199,9.82029" data-paper-data="{&quot;index&quot;:null}" fill="none" stroke-linecap="round"></path><path d="M238.22241,164.72169l-0.23199,9.82029" data-paper-data="{&quot;index&quot;:null}" fill="none" stroke-linecap="round"></path><path d="M239.50363,191.29686h10.9564" data-paper-data="{&quot;index&quot;:null}" fill="none" stroke-linecap="round"></path><path d="M260.42411,217.5159c-6.60435,0 -11.95823,-5.35388 -11.95823,-11.95823c0,-6.60435 5.35388,-11.95823 11.95823,-11.95823c6.60435,0 11.95823,5.35388 11.95823,11.95823c0,6.60435 -5.35388,11.95823 -11.95823,11.95823z" data-paper-data="{&quot;index&quot;:null}" fill="#d8d8d8" stroke-linecap="butt"></path></g></g></svg>