<svg version="1.1" xmlns="http://www.w3.org/2000/svg" xmlns:xlink="http://www.w3.org/1999/xlink" width="139.2457" height="103.39552" viewBox="0,0,139.2457,103.39552"><g transform="translate(-231.84353,-82.87506)"><g data-paper-data="{&quot;isPaintingLayer&quot;:true}" fill-rule="nonzero" stroke-linejoin="miter" stroke-miterlimit="10" stroke-dasharray="" stroke-dashoffset="0" style="mix-blend-mode: normal"><g stroke="none" stroke-width="0.5" stroke-linecap="butt"><path d="M343.31584,111.95023c-1.00128,0.84285 -1.8749,0.19971 -2.17644,-0.08188c-0.76446,-0.21755 -1.56121,-0.46412 -2.36318,-0.652c-0.09544,0.18493 -0.22825,0.35448 -0.39742,0.49688c-0.03167,0.02666 -0.06405,0.0519 -0.09709,0.07572l-1.45099,1.0659l-0.00222,-0.00302l-0.00455,0.00797c-2.89334,2.0771 -6.0233,3.76372 -8.87649,5.90604c-0.01427,0.01072 -0.02846,0.02142 -0.04258,0.03212c1.62291,-0.88493 3.2555,-1.75129 4.94347,-2.51736c1.54165,-0.69966 2.87941,-2.04588 4.56211,-2.2323c0.08719,-0.00966 0.17442,-0.0177 0.2617,-0.02428l-0.0101,-0.04911l2.92842,-0.60306c0.57355,-0.1299 1.19787,0.05724 1.6027,0.53815c0.57767,0.68626 0.48965,1.71088 -0.19659,2.28854c-0.08632,0.07266 -0.178,0.1348 -0.27347,0.18652l-1.68248,0.95338l-0.00713,-0.01257l-0.0252,0.03041c-4.82011,2.44877 -9.70483,4.5645 -14.34001,7.38734c-0.23525,0.14327 -0.46624,0.2943 -0.69395,0.45092c4.5901,-1.6755 9.25829,-3.13025 14.09177,-3.86598c1.03641,-0.15776 5.75059,-0.61616 5.9189,-0.53357c0.21019,0.10313 0.3956,0.23549 0.56236,0.38977l0.03575,-0.03868l1.40266,1.29608c0.05605,0.05031 0.10929,0.10512 0.15919,0.1644c0.57767,0.68626 0.48965,1.71088 -0.19659,2.28854c-0.29228,0.24604 -0.64595,0.37132 -1.00031,0.38106l-2.06191,0.07614c-0.64908,0.09754 -1.26019,0.19113 -1.84321,0.27801l0.71053,0.61504c0.07195,0.06012 0.13962,0.12735 0.20209,0.20158c0.57767,0.68626 0.48965,1.71088 -0.19659,2.28854c-0.32208,0.2711 -0.71866,0.39561 -1.10862,0.38044l-1.78362,-0.06221l0.00017,-0.00463l-0.01418,0.00408c-0.02422,-0.00207 -0.04958,-0.00436 -0.07595,-0.00683c0.58777,0.64189 1.06316,1.39552 1.32276,2.20637c0.14659,0.45784 -0.96973,0.66833 -0.88203,1.141c0.06624,0.35692 0.79891,-0.24578 1.08873,-0.02715c0.01177,0.00887 0.02349,0.01779 0.03518,0.02675l0.00331,-0.0059l1.75864,0.98411c0.17918,0.09484 0.34349,0.22504 0.48206,0.38967c0.57767,0.68626 0.48965,1.71088 -0.19659,2.28854c-0.29228,0.24604 -0.64595,0.37132 -1.00031,0.38106l-2.02434,0.07474c-1.87529,0.41276 -3.91062,1.9623 -5.82875,3.12859c-0.0315,0.54195 -0.33282,1.08986 -0.45323,1.63377l-0.07778,1.58659c1.67591,0.09272 3.34484,0.07971 5.01596,-0.02936l0.36559,-0.841l0.00624,0.00271l0.0007,-0.01845c0.7674,-1.65395 1.71106,-3.2356 2.7936,-4.70278c0,0 0.74322,-1.00071 1.80414,-0.59767c0.74872,-0.68384 1.59145,-1.00658 2.47222,-0.62421c1.17455,0.50991 1.26409,2.26362 1.40613,3.57786l1.36831,-1.70965c0.0702,-0.09133 0.15124,-0.17654 0.24301,-0.25379c0.68626,-0.57767 1.71088,-0.48965 2.28854,0.19659c0.00119,0.00143 0.00238,0.00283 0.00358,0.00425c0.58293,-0.51518 1.10204,-0.97442 1.50699,-1.35564l3.44831,-1.48912c-0.24454,1.65532 -0.57551,3.08318 -0.9834,4.41481c0.15258,0.07202 0.2957,0.16883 0.42302,0.28982l1.37378,-1.31019c0.02747,-0.02663 0.05607,-0.05248 0.08577,-0.0775c0.68626,-0.57767 1.71088,-0.48965 2.28854,0.19659c0.23907,0.28401 0.36413,0.62599 0.37996,0.97025c0.11469,-0.1298 0.22788,-0.26038 0.33914,-0.39189c0.05575,-0.12834 0.11282,-0.25464 0.17207,-0.37885c0.32724,-0.93814 0.65086,-1.88019 0.97685,-2.82538l0.01767,-0.01882l-0.0094,-0.00354l0.66374,-1.75545l0.07124,-0.37322c0.06544,-0.35838 0.25123,-0.69702 0.5517,-0.94994c0.68626,-0.57767 1.71088,-0.48965 2.28854,0.19659c0.27796,0.3302 0.4018,0.73874 0.37903,1.13814l-0.13435,2.46289l-0.36382,-0.01985c-0.0615,0.21437 -0.12357,0.42772 -0.18629,0.64c0.056,6.45259 -3.58135,12.42822 -7.85574,17.56418c-0.79187,1.26348 -1.69475,2.54369 -2.30805,2.94646c-0.0448,0.02941 -0.08999,0.05803 -0.13559,0.08588l0.01893,0.02251l-1.84853,1.55603c-0.68626,0.57767 -1.71088,0.48965 -2.28854,-0.19659c-0.54957,-0.65285 -0.49664,-1.61195 0.10068,-2.20111l1.84941,-1.86566c0.1373,-0.15041 0.27356,-0.30119 0.40873,-0.45236c-0.02337,-0.02448 -0.04611,-0.04987 -0.06821,-0.07613c-0.41857,-0.49724 -0.48763,-1.1721 -0.23291,-1.72589l0.93134,-2.14248c-0.03043,-0.03081 -0.05991,-0.0631 -0.08829,-0.09681c-0.0036,-0.00427 -0.00716,-0.00854 -0.0107,-0.01285l-0.03929,0.08319c-0.09686,0.21741 -0.2432,0.41682 -0.43753,0.58041c-0.2435,0.20497 -0.52962,0.32613 -0.82324,0.3665c-0.25352,0.2938 -0.58826,0.44899 -0.77537,0.51794c-0.8636,0.79117 -1.29572,1.51487 -1.91025,1.69136c-0.08748,0.08729 -0.17477,0.17475 -0.26187,0.26242l-1.1898,1.45066c-0.06725,0.08525 -0.14412,0.16499 -0.23043,0.23762c-0.68626,0.57767 -1.71088,0.48965 -2.28854,-0.19659c-0.51457,-0.61129 -0.50095,-1.49106 -0.00679,-2.08425l1.13577,-1.41911l0.0172,0.01375l0.0875,-0.10666l0.19557,0.16041c0.00197,-0.00351 0.00396,-0.007 0.00593,-0.01049l-0.1516,-0.20794c0.79102,-0.79894 1.59638,-1.58358 2.4086,-2.36112c-0.11242,-0.07901 -0.21659,-0.1737 -0.30925,-0.28379c-0.43042,-0.51132 -0.49127,-1.21049 -0.21045,-1.77269l0.71956,-1.52379c0.03621,-0.07862 0.0722,-0.15777 0.10801,-0.23737c-0.12176,0.11974 -0.24373,0.23613 -0.36586,0.34866c-0.22295,0.42607 -0.46376,0.87502 -0.72242,1.35614l-0.06545,0.0551l0.02108,0.01425l-1.79849,2.66c-0.08585,0.13341 -0.19283,0.25638 -0.32053,0.36389c-0.68626,0.57767 -1.71088,0.48965 -2.28854,-0.19659c-0.38421,-0.45644 -0.47394,-1.06257 -0.28905,-1.58729l0.22009,-0.65995c-1.00225,0.8211 -2.11033,1.60271 -3.42396,2.35868l0.31498,-2.79982c-1.03803,0.2279 -2.21432,0.25647 -4.03904,0.32037l-0.01424,-0.00621l0.00011,0.00651l-1.69833,0.02918c-0.19078,0.00479 -0.38168,-0.02388 -0.56326,-0.08522l-1.06295,-0.04146c-0.20211,-0.00714 -0.40255,-0.05179 -0.59001,-0.13298c-1.88054,-0.04055 -3.64264,-0.35466 -4.75172,-1.27608c-0.06838,-0.05681 -0.13522,-0.11516 -0.20063,-0.17487l-0.02707,0.03755l-0.93063,-0.67083l-0.0552,0.11246l-1.85187,-0.90896c-0.20901,-0.09682 -0.40064,-0.23984 -0.55877,-0.42769c-0.57767,-0.68626 -0.48965,-1.71088 0.19659,-2.28854c0.40432,-0.34034 0.92612,-0.44962 1.40473,-0.34161l0.64291,0.13855c0.11247,-0.00644 0.22529,-0.00118 0.33653,0.01558l0.67645,0.0987c-0.01434,-0.58 0.03684,-1.1761 0.15584,-1.75199c0.36232,-1.75339 1.57124,-3.31364 2.88182,-3.87993c1.34457,-1.91235 4.22124,-2.9244 6.24596,-3.28904l0.01032,0.00457c-0.02923,-0.51619 0.86087,-1.04051 0.79925,-1.61885c-0.17936,-1.68321 -3.86849,-1.54252 -3.9148,-3.23465c-0.01818,-0.66345 0.13933,-1.16713 0.41586,-1.54758l-1.65673,0.19088c-0.51237,0.06672 -1.04624,-0.1122 -1.41551,-0.52072c-4.44869,1.37408 -8.79296,3.14393 -13.10779,4.82338l-1.45626,0.6176c-0.64577,0.29169 -1.43174,0.1339 -1.91056,-0.43496c-0.55925,-0.66435 -0.49458,-1.64587 0.13278,-2.23195l2.34801,-2.22829l0.33519,0.3532c0.91582,-1.01649 1.89451,-1.94452 2.92443,-2.80297c-0.31754,-0.53662 -0.29536,-1.20628 0.04159,-1.71822l1.70244,-2.72279c0.31138,-0.6702 0.67808,-1.2819 1.12072,-1.75517c0.24963,-0.26687 0.5077,-0.52529 0.77314,-0.77619c-0.49306,0.02778 -0.9927,-0.1688 -1.3352,-0.57567c-0.43403,-0.51561 -0.49225,-1.22221 -0.20334,-1.78676l1.13673,-2.34913l0.03977,0.01925c0.05893,-0.12707 0.12318,-0.2519 0.19368,-0.37417c0.39952,-0.69303 3.65236,-2.37699 4.43327,-2.7409c4.81478,-2.24375 8.95814,-2.26049 13.99576,-0.90728l1.05303,0.79808c0,0 1.04597,1.24259 -0.19659,2.28854z" fill="#989898"></path><path d="M308.78606,129.58503c0.88486,1.362 -0.47715,2.24686 -0.47715,2.24686l-1.43302,0.90759c-0.5383,0.66254 -2.55243,2.8689 -2.59073,3.93383c-0.05596,1.55657 1.98912,2.40507 2.84864,3.704c0.17336,0.26196 0.35893,0.53209 0.55348,0.80934l1.52213,1.64176l-0.20649,0.19147c0.20727,0.28786 0.41651,0.58026 0.62493,0.87626c1.88144,1.88896 3.22166,4.08575 4.93276,6.82653l0.00521,0.06261l0.02273,-0.01205l0.79012,1.49113c0.37042,0.66579 0.23023,1.52183 -0.37446,2.03086c-0.24586,0.20696 -0.53514,0.32847 -0.83172,0.36765c0.09752,0.26939 0.19104,0.53963 0.28009,0.81077c0.27063,0.59135 0.549,1.18128 0.84158,1.76557l0.05642,0.10302l0.02079,-0.01102l0.79011,1.49113c0.31489,0.56596 0.26078,1.26941 -0.13398,1.78029c1.63457,1.31033 3.46995,2.42167 5.65392,3.21348c1.59857,0.57959 3.41594,0.69552 5.28489,0.67286c0.0967,-0.20441 0.23785,-0.39178 0.42216,-0.54692c0.23776,-0.20014 0.51612,-0.32037 0.80243,-0.36351l1.84046,-0.31093l-1.16523,-0.18042c-0.37752,-0.0564 -0.73684,-0.24535 -1.00198,-0.56032c-0.03919,-0.04655 -0.0753,-0.09467 -0.10841,-0.14408c-0.04306,-0.04104 -0.0843,-0.08484 -0.12349,-0.13138c-0.57767,-0.68626 -0.48965,-1.71088 0.19659,-2.28854c0.30733,-0.25869 0.68254,-0.38389 1.05506,-0.38164l1.7819,-0.00119l0.26069,-0.04266l0.00901,0.05505l0.03113,-0.01208c0.04569,0.0023 0.09191,0.00399 0.13866,0.00515c-0.17226,-0.29684 -0.24135,-0.63347 -0.21146,-0.96116l-2.2761,-0.34172c-0.38003,-0.0551 -0.7421,-0.24446 -1.00882,-0.56135c-0.22608,-0.26857 -0.3502,-0.58898 -0.37639,-0.91411l-1.60944,-0.22342c-0.38606,-0.05197 -0.75476,-0.24218 -1.02538,-0.56366c-0.4136,-0.49135 -0.48596,-1.15615 -0.24182,-1.70617c-2.74865,-2.52072 -4.49076,-4.8864 -5.3554,-7.90242c-0.11539,-0.04216 -0.22669,-0.09767 -0.33145,-0.16635c-0.0875,0.13953 -0.19788,0.26804 -0.33066,0.3798c-0.60864,0.51235 -1.48345,0.50105 -2.07655,0.01318l-0.07554,0.22115c-0.09031,0.28017 -0.25785,0.53919 -0.49965,0.74275c-0.68626,0.57767 -1.71088,0.48965 -2.28854,-0.19659c-0.12494,-0.14844 -0.21877,-0.31269 -0.28209,-0.48483l-0.68338,-1.73111l0.0388,-0.0153l-0.07988,-0.10164c-0.61626,-2.6966 -0.94294,-4.47601 -0.89847,-6.44665c-0.00642,-0.02417 -0.01279,-0.0483 -0.01913,-0.07241l-0.39076,0.01826l-0.10785,-2.30902c-0.48114,-2.809 -0.44799,-5.47976 -0.06087,-8.56569c0,0 0.20408,-1.61133 1.81542,-1.40726c1.61133,0.20408 1.40726,1.81542 1.40726,1.81542c-0.22144,1.73085 -0.32107,3.29301 -0.25997,4.82868c0.61947,-0.21918 1.33659,-0.04683 1.78474,0.48554c0.1554,0.18462 0.26264,0.39372 0.32301,0.61202l0.26303,0.87367c0.07252,0.06045 0.14076,0.12814 0.2037,0.20289c0.14164,0.16828 0.24328,0.35692 0.30588,0.55429l0.28476,0.83044l0.19377,-1.01544c0.06545,-0.3584 0.25122,-0.69703 0.5517,-0.94995c0.26921,-0.2266 0.59047,-0.35077 0.91638,-0.37659c0.09633,-0.23311 0.24858,-0.44716 0.45488,-0.62082c0.68626,-0.57767 1.71088,-0.48965 2.28854,0.19659c0.25834,0.30689 0.38353,0.68145 0.38164,1.05343l0.00326,1.86962l-0.01153,0.00003c0.00375,0.01371 0.00746,0.02743 0.01109,0.04117c0.78867,2.96994 -0.80473,6.42917 0.21209,9.5531c0.79236,2.43435 2.84271,4.24915 4.67827,5.8746l1.97249,0.96191c0.21042,0.09683 0.40335,0.24043 0.5624,0.42939c0.12074,0.14344 0.21239,0.30163 0.27556,0.46744c2.24763,-0.56098 4.87172,-0.05054 7.23472,-0.05142l1.88475,-0.24895c0.53898,-0.07987 1.10558,0.11327 1.48221,0.5607c0.38617,0.45877 0.47485,1.06875 0.28619,1.59533c0.14579,0.08903 0.2799,0.20279 0.39597,0.34066c0.57767,0.68626 0.48965,1.71088 -0.19659,2.28854c-0.20758,0.17476 -0.44613,0.28857 -0.69391,0.34335l-1.55661,0.37873l0.54117,0.12453c0.33763,0.0739 0.65442,0.25566 0.89421,0.54052c0.07815,0.09281 0.1441,0.19185 0.19804,0.29511l0.17473,0.02708c0.37746,0.05643 0.73666,0.24539 1.00176,0.56031c0.57767,0.68626 0.48965,1.71088 -0.19659,2.28854l-1.26439,1.06434l0.18343,-0.00155c0.47125,-0.00738 0.94181,0.18939 1.26901,0.57806c0.57767,0.68626 0.48965,1.71088 -0.19659,2.28854c-0.2561,0.21559 -0.55935,0.33846 -0.86891,0.37212l-3.20043,0.39766l-0.0417,-0.33555c-0.20947,0.00584 -0.41256,0.011 -0.60997,0.01522c-8.6623,2.01899 -18.11352,-0.03889 -24.86722,-6.26969c-1.50622,-1.3896 -2.75901,-2.97112 -3.98746,-4.57227c-0.65482,0.32352 -1.46961,0.17262 -1.961,-0.41113c-0.03662,-0.04349 -0.07055,-0.08834 -0.10183,-0.13435l-1.49673,-2.14857c-0.42085,-0.58352 -0.72066,-1.23314 -0.94145,-1.92026l-0.31083,0.12269l-1.10188,-2.79132c-0.26953,-0.63861 -0.10708,-1.40401 0.45102,-1.87382c0.68626,-0.57767 1.71088,-0.48965 2.28854,0.19659l0.54615,0.6488c-0.04992,-0.57652 -0.10776,-1.17779 -0.20588,-1.81425l0.0134,-0.0653l-0.01934,0.00141l-0.14851,-2.0329c-0.04167,-0.48938 0.13867,-0.99032 0.52714,-1.34222l-0.07404,-0.15502c-0.14473,-0.22188 -0.29247,-0.44685 -0.44368,-0.67512c-0.30339,-0.45797 -3.36761,-4.40117 -3.36852,-5.18251c-0.00325,-2.76246 2.10216,-4.75455 3.65412,-6.65715l1.83381,-1.21478c0,0 1.362,-0.88486 2.24686,0.47715zM308.15588,149.89792c0.00868,0.66581 -0.01979,1.30128 -0.08455,1.9512l0.22747,-0.00039l0.0008,0.45695c0.75986,0.89443 1.50035,1.79414 2.24558,2.67943c-0.05037,-0.17696 -0.10339,-0.35116 -0.16119,-0.52055c-0.71383,-1.5372 -1.43457,-3.0709 -2.2281,-4.56665z" fill="#989898"></path><path d="M356.36014,124.39286c-0.84532,1.38689 -2.23222,0.54159 -2.23222,0.54159l-0.11871,-0.09165c-1.0999,-1.5315 0.337,1.98189 -2.48033,3.30121c-1.0006,0.46857 -2.15108,-0.50597 -3.22661,-0.75895c0,0 -1.52243,-0.56593 -0.95648,-2.08835c0.56593,-1.52243 2.08835,-0.95648 2.08835,-0.95648c2.17074,1.85711 0.44437,-2.38551 2.90986,-3.24995c0.95715,-0.3356 1.96309,0.51114 2.94464,0.7667l0.52993,0.3037c0,0 1.38689,0.84532 0.54159,2.23222z" fill="#989898"></path><path d="M328.44259,109.93125c-0.23315,-1.60738 1.37426,-1.84053 1.37426,-1.84053l0.69212,-0.03689c2.45022,-1.10243 4.68235,-2.50562 7.37201,-3.03703c5.84899,-1.15565 10.56657,2.3936 14.90657,5.74944c6.78681,6.01345 11.51,13.83241 15.38151,21.97947c0.99003,2.0834 3.1375,6.34596 2.9023,8.7716c-0.18182,1.87496 -2.75095,4.85695 -3.85585,6.29994c-2.79003,3.64377 -5.47326,6.6024 -9.02067,8.79425l0.31378,0.43378l-2.62082,1.89584c-0.68364,0.50445 -1.65083,0.3972 -2.20569,-0.26195c-0.50993,-0.6058 -0.50115,-1.47522 -0.02001,-2.06816l1.0429,-1.34005l0.0067,0.00522c0.34291,-0.28502 0.71927,-0.53491 1.02263,-0.86145c0.54765,-0.58944 -1.51377,0.54993 -2.24845,0.87802c-0.93717,0.41849 -1.89951,0.78299 -2.81717,1.24269c-0.18916,0.09474 -0.37816,0.19377 -0.56706,0.29653c0.2082,1.03805 -0.3908,2.40433 -0.9428,3.33135c-1.12616,1.89119 -6.31864,3.84927 -8.23842,4.64363l-4.83298,0.54224c0.69209,-1.51617 1.55714,-2.90446 2.56357,-4.17174c-1.25222,0.49019 -2.53382,1.00919 -3.79992,1.44668c0.40728,0.67256 0.27581,1.56008 -0.34458,2.08232c-0.16639,0.14005 -0.35265,0.24099 -0.54765,0.30374l-1.5528,0.54007l-0.14346,-0.41253c-0.80801,0.32715 -1.64895,0.54372 -2.50376,0.58158l-0.02945,-0.00957l0.00001,0.00987l-2.03992,0.00134c-0.4667,0.00344 -0.93143,-0.19326 -1.25548,-0.57823c-0.57767,-0.68626 -0.48965,-1.71088 0.19659,-2.28854c0.07383,-0.06214 0.15158,-0.11658 0.23224,-0.16341l0.02721,-0.01643c-2.15662,-0.72122 -4.3428,-1.4393 -6.49118,-2.23152c-0.1692,-0.05903 -0.33861,-0.12037 -0.50836,-0.18416l-0.13415,0.4664l-3.10078,-0.89189c-0.30762,-0.0837 -0.5938,-0.25865 -0.81465,-0.521c-0.22243,-0.26424 -0.34617,-0.57868 -0.37507,-0.89845c-0.53801,-0.25091 -1.06975,-0.51113 -1.59405,-0.78205c-0.31576,-0.06201 -0.63168,-0.12275 -0.94785,-0.18198l-0.06008,0.16505l-3.02585,-1.10153c-0.26895,-0.09236 -0.51711,-0.25654 -0.71355,-0.48993c-0.57767,-0.68626 -0.48965,-1.71088 0.19659,-2.28854c0.45538,-0.38333 1.05973,-0.47351 1.58365,-0.29034l2.29842,0.76073c1.77629,0.31668 3.5725,0.59629 5.36441,0.89285c-1.23325,-2.05668 -2.51976,-4.061 -3.81433,-6.07868l-0.2034,-0.24584c-0.13339,-0.16082 -0.23057,-0.33988 -0.29238,-0.5272c-0.51588,-0.80496 -1.03207,-1.61338 -1.5458,-2.4294c-0.62409,-0.99133 -1.71994,-2.28121 -2.30535,-3.56262c-0.44747,-0.01221 -0.88794,-0.20826 -1.1989,-0.57767c-0.09203,-0.10932 -0.16716,-0.22723 -0.22566,-0.35054l-1.13004,-2.2554c-0.34921,-0.66118 -0.20413,-1.49874 0.39126,-1.99991c0.46013,-0.38732 1.07238,-0.47538 1.60004,-0.2845c0.8388,-3.54988 1.89052,-6.71512 4.07939,-9.32347l-0.47942,-0.36735l1.33322,-1.73997c0.07499,-0.10219 0.16325,-0.19719 0.26453,-0.28245c0.68626,-0.57767 1.71088,-0.48965 2.28854,0.19659c0.22903,0.27209 0.35343,0.59736 0.37739,0.9269c0.38167,-0.45476 0.8201,-0.96486 1.32674,-1.57149l1.89942,-2.54919c0.07779,-0.10919 0.17048,-0.21045 0.27781,-0.3008c0.68626,-0.57767 1.71088,-0.48965 2.28854,0.19659c0.11155,0.13251 0.19826,0.27763 0.26065,0.42971c0.21539,-0.17672 0.42633,-0.35484 0.62206,-0.54026c0.81847,-0.7754 1.74078,-1.43328 2.61119,-2.14993l0.05347,-0.01793l-0.01017,-0.0142l2.5809,-1.8508c0.68337,-0.50037 1.64728,-0.39208 2.20083,0.2655c0.553,0.65693 0.49596,1.62395 -0.11194,2.21213l-2.30109,2.27191l-0.32293,-0.32708c-0.72206,0.91417 -1.48683,1.7731 -2.28835,2.59473c2.98065,-1.04765 6.38148,-1.24327 9.35065,-0.50508l0.14106,-0.61789l1.74372,0.39808c0.33857,0.07354 0.65635,0.2555 0.89673,0.54106c0.57767,0.68626 0.48965,1.71088 -0.19659,2.28854c-0.15434,0.12992 -0.32579,0.22617 -0.50543,0.28951l-1.99967,0.75829l-0.00056,-0.00146l-0.00418,0.00327c-0.51092,0.18243 -1.01396,0.39025 -1.52256,0.58019c0.64896,0.1317 1.2945,0.28721 1.74342,0.35264c3.25299,0.47407 5.72244,0.59832 8.35168,1.2319l0.08156,-0.51734l3.20052,0.50467c0.37602,0.05716 0.73365,0.24589 0.99782,0.55971c0.57767,0.68626 0.48965,1.71088 -0.19659,2.28854c-0.17027,0.14334 -0.3614,0.24568 -0.56135,0.3081c0.1137,0.56318 -0.0756,1.16939 -0.54612,1.56547c-0.3352,0.28215 -0.75114,0.40551 -1.15627,0.37789l-3.23895,-0.21591l0.02046,-0.30687c-0.10533,-0.0189 -0.21054,-0.03872 -0.31556,-0.05957c-0.26361,0.0152 -0.52533,0.02568 -0.78634,0.03169c1.19784,1.18862 2.33847,2.21865 3.40413,3.36098c0.02657,0.01034 0.05315,0.02071 0.07971,0.03109l-0.00812,0.04594c0.02302,0.02486 0.04599,0.04977 0.06892,0.07475l0.03883,-0.06937l0.37535,0.21004l0.07601,-0.11327l1.42066,0.95339c0.13524,0.08636 0.2599,0.19437 0.36867,0.32362c0.57767,0.68626 0.48965,1.71088 -0.19659,2.28854c-0.54196,0.45622 -1.29497,0.49722 -1.8722,0.1563l-1.68457,-0.94265c-3.86997,-1.50525 -7.82706,-2.45673 -11.87844,-3.35486c-0.46052,-0.1021 -1.07874,-0.1048 -1.67976,-0.12888c0.20802,0.21558 0.3857,0.42386 0.50338,0.59294c0.62217,0.89378 1.05384,1.90606 1.58076,2.85908c0,0 0.78019,1.42456 -0.6444,2.20474c-1.42456,0.78019 -2.20474,-0.6444 -2.20474,-0.6444c-0.37501,-0.69225 -4.65433,-6.37574 -4.42209,-6.87097c0.61745,-1.31665 2.52144,-1.60874 3.95794,-1.8352c1.19995,-0.18917 2.39687,0.40064 3.58665,0.64577c1.92751,0.39717 3.83191,0.83893 5.71481,1.34915l-1.20728,-1.43419c-0.74064,-0.09748 -1.52002,-0.21606 -2.35745,-0.35206l-0.0523,-0.02851l-0.00385,0.01631l-3.14541,-0.74132c-0.33469,-0.07497 -0.64843,-0.25614 -0.88635,-0.53878c-0.3847,-0.457 -0.47417,-1.06402 -0.28837,-1.58918c-0.84492,-0.18737 -1.59441,-0.47297 -1.72679,-1.20707c-0.1305,-0.72381 0.20162,-1.39678 0.70917,-2.0098c-2.42371,0.57749 -5.44096,1.21015 -7.17529,0.57888c-1.38956,1.15217 -2.84345,2.28273 -4.33961,3.45699l-0.02974,0.00898l0.00618,0.0085l-1.19876,0.87281l-0.86955,1.24744c-0.08358,0.12582 -0.18625,0.24201 -0.30767,0.34419c-0.49822,0.41938 -1.17476,0.48792 -1.72914,0.23138c-0.67369,1.70173 -1.38028,3.34195 -1.65262,4.51467c0.89623,1.50748 2.63709,4.54838 2.83267,4.85902c0.61045,0.96959 1.22472,1.92855 1.83788,2.88379l1.57405,1.71203l-0.16765,0.15414c0.06573,0.09896 0.13098,0.19721 0.19573,0.29479c3.40945,2.46 6.6173,5.48653 9.83835,8.27758c1.07898,0.3614 2.137,0.77265 3.16763,1.24795l0.18645,-0.4935l2.23934,0.84602c2.28922,-0.95653 4.76173,-1.65027 7.57693,-2.35779c0.46573,-0.11704 1.38453,-0.35939 2.43911,-0.58259c2.43502,-1.6007 5.1575,-2.85536 7.99118,-3.80243c1.96893,-0.65808 4.74869,-2.02077 6.03991,0.09217c1.93959,-2.28129 4.60942,-4.34862 6.26402,-6.50639c0.71688,-0.93489 3.1238,-3.54216 3.21017,-4.72036c0.12804,-1.7463 -1.88915,-5.46815 -2.61068,-6.97817c-3.67639,-7.69388 -8.08549,-15.19501 -14.5196,-20.87382c-3.46171,-2.67637 -7.4799,-6.05156 -12.21783,-5.06334c-2.40296,0.50122 -4.45263,1.81673 -6.65631,2.80991l-1.55965,0.28972c0,0 -1.60738,0.23315 -1.84053,-1.37426z" fill="#818181"></path></g><g stroke="#000000" stroke-width="1.5"><path d="M323.59703,147.1979c-13.29396,17.2967 -38.09258,20.54155 -55.38929,7.24759c-17.2967,-13.29396 -20.54155,-38.09258 -7.2476,-55.38929c13.29396,-17.2967 38.09258,-20.54155 55.38929,-7.2476c17.2967,13.29396 20.54155,38.09258 7.2476,55.38929z" data-paper-data="{&quot;index&quot;:null}" fill="#d8d8d8" stroke-linecap="butt"></path><path d="M300.57806,108.02741l-6.34299,-4.87511l4.69163,-7.74523" data-paper-data="{&quot;index&quot;:null}" fill="none" stroke-linecap="round"></path><path d="M281.68019,118.64268l6.27737,-6.52646l6.34299,4.8751" data-paper-data="{&quot;index&quot;:null}" fill="none" stroke-linecap="round"></path><path d="M309.17416,125.94366l4.91253,-6.06266" fill="none" stroke-linecap="round"></path></g><g stroke="none" stroke-width="0.5" stroke-linecap="butt"><path d="M254.36901,118.69005c1.23124,0.52551 1.80335,1.94964 1.27785,3.18089c-0.10706,0.25081 -0.25139,0.47426 -0.4238,0.66667l-1.90458,2.2275c-0.10142,0.11981 -0.2017,0.24064 -0.30095,0.36236c0.39818,-0.20284 0.78511,-0.36925 1.15718,-0.49117c0.14946,-0.04899 0.29991,-0.09315 0.45125,-0.13302l-0.01283,-0.04371l4.06575,-1.19351c0.52507,-0.15843 1.10661,-0.14046 1.65048,0.09166c1.23123,0.5255 1.80335,1.94964 1.27785,3.18089c-0.03147,0.07376 -0.06619,0.14511 -0.1039,0.21409l-1.61739,3.03543l-0.06022,-0.03208l-0.05787,0.23028c-0.52976,0.65763 -1.21192,1.61161 -1.99392,2.66374c0.27457,-0.08308 0.5537,-0.1612 0.83888,-0.23477l-0.16739,-0.51385l4.5982,-1.49793c0.54131,-0.17951 1.14778,-0.16976 1.71358,0.07171c0.16932,0.07227 0.32618,0.16155 0.46944,0.26497c0.97165,-0.40655 2.10031,-0.43505 3.14556,0.01105c0.52875,0.22568 0.98457,0.55082 1.35498,0.94426l0.83073,0.84274l-0.7048,-1.29559c-0.5854,-1.05343 -0.69526,-2.35655 -0.18555,-3.5508c0.76979,-1.80358 2.69652,-2.75858 4.54509,-2.36875l-0.00305,-0.00667l-2.11523,-3.66337c-0.63307,-1.06956 -0.76582,-2.41589 -0.24052,-3.64662c0.87584,-2.05205 3.2494,-3.00558 5.30148,-2.12974c0.54605,0.23307 1.01429,0.57216 1.39101,0.98305l2.85869,2.97897l0.4763,0.40698c0,0 2.36933,2.1081 1.04163,4.68795l1.91321,4.17193c0.11526,0.24886 0.20523,0.50915 0.26816,0.77661c1.2625,-0.60791 2.90974,0.16722 4.44641,0.54497l0.13538,-0.44802l0.04486,0.01356c-0.22019,-1.84935 0.11498,-3.75276 2.77354,-4.1875c0.41451,-0.0678 0.79963,0.00492 1.16575,0.16817c0.07057,-0.02746 0.14438,-0.05325 0.22156,-0.07729c2.31423,-0.72093 3.03517,1.59331 3.03517,1.59331l0.28417,0.99574l1.36523,2.86038c0.29428,0.60875 0.33371,1.33668 0.04745,2.00739c-0.52551,1.23124 -1.94964,1.80335 -3.18089,1.27785c-0.49495,-0.21125 -0.88336,-0.56772 -1.13681,-0.99847l-0.43985,-0.72712l-0.93175,3.08336c-0.02746,0.09543 -0.06109,0.19024 -0.10107,0.28391c-0.52551,1.23124 -1.94965,1.80334 -3.18089,1.27785c-0.03511,-0.01499 -0.06967,-0.03069 -0.10368,-0.04711c0.10618,0.595 0.14448,1.15109 0.08113,1.54898c-0.01089,0.06843 -0.02288,0.13657 -0.03588,0.20442l0.03101,0.00205l-0.1752,2.64449c-0.01214,0.28399 -0.07479,0.57064 -0.19298,0.84756c-0.11524,0.26999 -0.27368,0.50829 -0.46383,0.71027c0.30689,0.36144 0.50128,0.8061 0.55936,1.27488l0.03319,0.23477c0.40859,-0.15005 0.85801,-0.19093 1.30106,-0.10372c0.5421,-0.70304 1.56688,-1.145 3.33585,-1.09465c1.17481,0.03343 1.99165,0.88219 2.72111,1.9299c0.68006,-0.63701 1.69793,-0.84997 2.60992,-0.46072c0.65069,0.27771 1.11727,0.80641 1.33506,1.42498l0.95621,2.68853l-0.83453,0.29681l-0.00633,0.87678c0.00518,0.32952 -0.05716,0.66546 -0.19487,0.98816c-0.34931,0.81841 -1.09568,1.3456 -1.91849,1.45277c-0.00183,0.00438 -0.00368,0.00871 -0.00555,0.01307c-0.52551,1.23124 -1.94964,1.80335 -3.18089,1.27785c-0.65258,-0.27853 -1.12001,-0.80952 -1.33695,-1.43041l-0.64069,1.94339c-0.02347,0.07385 -0.05068,0.14722 -0.08171,0.21997c-0.52551,1.23124 -1.94964,1.80335 -3.18089,1.27785c-0.53965,-0.23035 -0.95271,-0.63334 -1.20219,-1.11703c-0.625,0.98516 -1.8891,1.40101 -2.997,0.92813c-0.70243,-0.29979 -1.19033,-0.8921 -1.38227,-1.57419c-0.63325,0.9573 -1.87866,1.35617 -2.97199,0.88952c-0.04187,-0.01787 -0.08298,-0.03679 -0.12328,-0.05668l-1.69057,3.65242c0.03338,0.01257 0.06664,0.0259 0.09978,0.04005c1.23124,0.52551 1.80335,1.94964 1.27785,3.18089c-0.01826,0.04278 -0.03761,0.08477 -0.058,0.12594l-0.21193,0.43537c0.41001,-0.14803 0.8455,-0.34421 1.19874,-0.38502l-0.32943,0.83293l0.39746,0.7712c0.73703,-0.70481 1.47626,-1.42117 1.96298,-0.82016c0.57815,0.71394 0.72795,1.60484 0.73384,2.55519c0.06153,0.02735 0.12136,0.05693 0.17946,0.08865l1.71319,-1.40692c0.67823,-0.58048 1.65271,-0.76279 2.5294,-0.38861c1.23123,0.5255 1.80335,1.94964 1.27785,3.18089c-0.05909,0.13846 -0.12959,0.26861 -0.20987,0.3898l-0.08339,0.13083c0.2838,0.6038 0.31851,1.32146 0.03599,1.98335c-0.0818,0.19165 -0.18538,0.36733 -0.30659,0.52541l-1.52031,2.07191l-0.47689,-0.34996c-0.23179,0.39306 -0.48032,0.74833 -0.75688,1.08643c0.33544,0.62616 0.39392,1.39339 0.09337,2.09754c-0.20927,0.49029 -0.56102,0.87609 -0.98637,1.12963l-3.27343,2.00801l-0.05588,-0.09107l-0.19652,0.22609c-0.10046,-0.00097 -0.20091,-0.00194 -0.30136,-0.00291l0.03482,0.10723l-2.27205,0.73765c-2.55807,1.66953 -6.32567,3.00427 -8.45103,4.09699c0.09838,0.46929 0.0589,0.97242 -0.14363,1.44689c-0.46066,1.07934 -1.61192,1.65216 -2.71839,1.42304l-2.60845,-0.48366c-0.18894,-0.03096 -0.37718,-0.08498 -0.56113,-0.16348c-0.67305,-0.28726 -1.14914,-0.84305 -1.35663,-1.48908l-0.40469,-0.19866l0.15121,-0.30807c-5.32566,0.18677 -10.42531,-3.15793 -15.41324,-5.11855l-0.06784,-0.06627l-0.01386,0.02878l-2.75272,-1.32576c-1.16999,-0.55465 -1.70228,-1.93972 -1.18952,-3.14111c0.39314,-0.92112 1.28925,-1.47334 2.23126,-1.47304l3.2216,-0.07059l0.01338,0.61084c0.56517,-0.07478 1.13186,-0.12792 1.69818,-0.15613l-3.11097,-2.88075c6.29473,-2.87229 8.67224,-1.86242 15.23453,-0.30136l0.133,0.12694l0.02759,-0.07052l1.0725,0.41968c0.24958,0.05525 0.54907,0.15314 0.8345,0.32655l0.44563,0.17439c0.02649,0.01025 0.05287,0.02099 0.07919,0.03219c1.23123,0.5255 1.80335,1.94964 1.27785,3.18089c-0.43605,1.02163 -1.49077,1.58944 -2.54065,1.45296l-3.45989,-0.36864c-0.16241,-0.01351 -0.3252,-0.04369 -0.48613,-0.09143c0.27746,0.60075 0.3093,1.31208 0.0291,1.96859c-0.28471,0.66704 -0.83319,1.14066 -1.47184,1.35107c0.06293,0.02018 0.12575,0.03989 0.1884,0.05913c2.48902,0.76339 3.21706,-0.52123 5.79984,1.1992c0.06263,0.04173 0.12487,0.08393 0.18679,0.12659l0.01835,-0.03741l1.32415,0.65001l1.4524,-0.78562c2.84209,-1.64519 7.11516,-4.78987 10.67739,-6.17449l0.11954,-0.11068l0.02583,0.0279l0.05509,-0.09957c0.11889,-0.092 0.2355,-0.18713 0.35018,-0.28458c-0.04164,-0.01515 -0.08306,-0.03151 -0.12426,-0.04912c-1.23124,-0.52551 -1.80335,-1.94964 -1.27785,-3.18089c0.06031,-0.14132 0.13248,-0.27398 0.21483,-0.39726c-0.09666,-0.02765 -0.19269,-0.06162 -0.28756,-0.10213c-1.08946,-0.46499 -1.66284,-1.63357 -1.41639,-2.74955l0.14238,-0.71248c-0.78393,0.12945 -1.59835,0.30161 -1.86022,-0.30055c-0.00739,-0.01699 -0.01403,-0.03386 -0.01995,-0.05069c-1.57055,0.33747 -3.14108,0.67498 -4.71161,1.01247l2.63211,-4.86325l-0.01522,-0.01784l1.2726,-1.08578c0.09479,-0.42808 0.10182,-0.84956 -0.05867,-1.25847c-0.99761,1.83239 -2.12921,3.56616 -3.58385,5.37649l-0.3649,0.10166l0.08372,0.12264l-2.02783,1.38439c-0.66422,0.46903 -1.54897,0.59297 -2.35174,0.25034c-1.23124,-0.52551 -1.80335,-1.94964 -1.27785,-3.18089c0.01465,-0.0343 0.02998,-0.06809 0.04599,-0.10133l1.24875,-2.63123c-0.65641,0.43282 -1.51056,0.53847 -2.28784,0.20672c-0.49074,-0.20946 -0.87677,-0.56166 -1.13033,-0.98754l-0.84494,-1.37925l0.01852,0.07681c0.12578,0.49674 0.09569,1.03716 -0.12097,1.54483c-0.37285,0.87361 -1.19813,1.41539 -2.0859,1.4687c-0.01431,0.27705 -0.07677,0.5563 -0.192,0.82629c-0.52551,1.23124 -1.94965,1.80334 -3.18089,1.27785c-0.19351,-0.0826 -0.37071,-0.18738 -0.52997,-0.3101c0.00116,0.32018 -0.0615,0.64588 -0.19518,0.9591c-0.52551,1.23124 -1.94965,1.80334 -3.18089,1.27785c-0.35042,-0.14957 -0.64746,-0.37191 -0.881,-0.6419l-2.61152,-2.88811l0.02984,-0.02696c-1.64224,-1.82024 -3.52114,-3.67995 -5.06491,-5.68091c0.50208,2.30133 0.9886,4.55999 1.39745,6.85736l0.37237,-0.13443l1.64415,4.55385c0.20321,0.55793 0.2031,1.19136 -0.0484,1.78058c-0.52551,1.23124 -1.94965,1.80334 -3.18089,1.27785c-0.37646,-0.16066 -0.69126,-0.40532 -0.93193,-0.7028l-1.56639,-1.85545c-0.59321,0.2627 -1.28973,0.28802 -1.93351,0.01324c-0.37645,-0.16065 -0.69124,-0.40531 -0.93194,-0.7028l-1.69347,-2.00595c0,0 -1.25159,-1.48249 -0.18887,-2.91457l-0.05194,-0.14741l-1.18861,-2.00385c-0.39332,-0.64585 -0.47951,-1.46563 -0.16005,-2.21416c0.52551,-1.23124 1.94965,-1.80334 3.18089,-1.27785c0.11507,0.04911 0.22436,0.10606 0.32755,0.16997c-0.24927,-1.37256 -0.46098,-2.7666 -0.73913,-4.1146l-0.81827,-2.89225c-0.15159,-0.51949 -0.13102,-1.0927 0.09798,-1.62926c0.52551,-1.23124 1.94964,-1.80335 3.18089,-1.27785c0.1448,0.06181 0.28049,0.13606 0.40635,0.22092l2.43275,1.57735c0.66279,-0.46175 1.54147,-0.58202 2.33918,-0.24153c0.16282,0.0695 0.3141,0.1547 0.45286,0.25306l2.08932,1.42125c-0.43405,-0.6567 -0.54034,-1.51192 -0.20821,-2.29009c0.01524,-0.03572 0.03126,-0.07087 0.04798,-0.10548l1.54611,-3.24384l0.03854,0.01838c0.0333,-0.09311 0.06833,-0.18573 0.10524,-0.27784c0.41862,-1.04502 1.13763,-2.12407 2.01485,-3.20018c-0.5089,0.31073 -1.00872,0.62756 -1.49278,0.95574l-0.10339,0.01768l0.01848,0.03269l-2.11649,1.1974c-0.6385,0.36986 -1.43733,0.44468 -2.1682,0.13274c-1.23124,-0.52551 -1.80335,-1.94964 -1.27785,-3.18089c0.03607,-0.08454 0.07641,-0.16597 0.12061,-0.24417l1.43857,-2.61814l0.03689,0.02029c0.04241,-0.0975 0.0874,-0.1941 0.13521,-0.28974c0.22717,-0.4543 0.5233,-0.91892 0.87074,-1.39007c-0.78304,0.5258 -1.54487,1.04502 -2.26076,1.56652l-2.12104,1.63866c-0.67507,0.54232 -1.6195,0.7043 -2.47157,0.34063c-0.82585,-0.35248 -1.35516,-1.10923 -1.45559,-1.94091l-0.44949,0.3193c-0.66833,0.4919 -1.572,0.6276 -2.39044,0.27826c-1.18898,-0.50746 -1.76331,-1.85293 -1.3281,-3.05345l1.54776,-4.38392l0.04312,0.01522c0.03504,-0.12218 0.07244,-0.24383 0.11239,-0.36492c0.30711,-0.93128 0.86564,-1.89251 1.57456,-2.854c-0.19454,-0.55204 -0.19085,-1.17571 0.05702,-1.75645c0.10314,-0.24169 0.24094,-0.45795 0.40508,-0.64552l3.07146,-3.6776l0.5031,0.42018c0.83599,-1.17471 1.79396,-2.23894 2.92749,-3.10881l1.6108,-0.60432c0,0 0.09378,-0.02324 0.24851,-0.04179l1.19485,-0.99865c0.67887,-0.59168 1.66204,-0.77998 2.54581,-0.40279c0.94057,0.40145 1.49651,1.32731 1.47227,2.29101c0.54878,-0.18986 1.16716,-0.18428 1.74331,0.06163zM263.41168,139.80247l0.29358,-0.30151c0.24666,-0.40715 0.52741,-0.72591 0.82656,-0.97361l-0.3389,-0.55526zM267.49101,151.59595l0.29565,-0.03353l0.40401,3.56245c0.05513,0.41653 0.00261,0.85284 -0.17427,1.26731c-0.12012,0.28144 -0.2872,0.52842 -0.48818,0.73575l0.09297,0.8723c0.05181,0.41188 -0.00157,0.84256 -0.17627,1.2519c-0.06969,0.16324 -0.15515,0.31492 -0.25388,0.45396l0.41366,0.19632c0.61023,-1.39376 1.39327,-2.68822 2.41591,-3.77938l0.0364,-0.02071l-0.00779,-0.00791l1.57003,-1.54499c0.35147,-0.76856 0.69338,-1.55982 1.04402,-2.38162c0,0 0.39336,-0.9216 1.2668,-1.32679c-0.36337,-0.88404 -0.46249,-1.99322 -0.93783,-2.81918c-0.12418,-0.21577 -0.24294,-0.42304 -0.35632,-0.62264c-0.82724,0.23679 -1.7349,0.21208 -2.59225,-0.12672l-1.87953,-0.73325c-0.20078,1.7383 -0.40651,3.39115 -0.67317,5.05674zM258.06832,145.77311c-0.37982,0.37651 -0.76768,0.74279 -1.14921,1.09504c0.46377,-0.09331 0.9596,-0.05215 1.42757,0.1476c0.25378,0.10831 0.47954,0.25481 0.6735,0.42993l2.06446,1.77867l-0.16969,-0.92423c-1.13918,-0.36077 -2.12427,-1.38945 -2.84663,-2.527zM276.70654,150.48169c-0.20948,-0.27988 -0.4738,0.03793 -0.76091,0.45345c0.47551,0.22091 0.79591,0.50267 1.00711,0.80639c0.08515,-0.45215 0.03981,-0.87771 -0.24623,-1.25985zM284.97748,143.09271l-1.02534,-1.57748c-0.03855,1.03845 -0.18537,2.14699 -0.44359,3.17668c0.05015,0.01764 0.1001,0.03703 0.14969,0.05822c0.15004,0.06406 0.29033,0.14144 0.42,0.23021l0.82019,-1.24616c0.08332,-0.13183 0.17806,-0.25352 0.28232,-0.36428c-0.07451,-0.08777 -0.14242,-0.1804 -0.2033,-0.27714zM283.86827,134.18799c-0.00993,-0.11813 -0.01807,-0.23588 -0.0244,-0.35293c-0.08531,0.07514 -0.17352,0.14641 -0.26438,0.21374c0.0986,0.04092 0.19477,0.0875 0.28878,0.13919z" fill="#989898"></path><path d="M266.70301,110.31165l2.90057,2.20466c0.89452,0.64953 1.25541,1.85225 0.80308,2.91208c-0.49959,1.17053 -1.81134,1.74533 -2.99744,1.34765l-3.11463,-1.00511v0c-2.61757,-0.83927 -6.82655,-2.31939 -8.42731,0.45829c0,0 -1.46087,1.93425 -3.39512,0.47341c-1.93426,-1.46084 -0.47341,-3.39512 -0.47341,-3.39512c2.49146,-2.94186 5.4253,-3.63565 8.64193,-3.3035c0.52491,-0.54797 1.28523,-0.82289 2.04487,-0.72984l2.38031,0.23559c0.25818,0.01952 0.51765,0.08104 0.76903,0.18834c0.34129,0.14565 0.63192,0.36036 0.86259,0.62087z" fill="#989898"></path><path d="M291.75617,135.48586c-0.43793,1.02604 -1.6247,1.50282 -2.65073,1.06487c-0.40896,-0.17454 -0.73065,-0.46807 -0.94195,-0.82294l-1.61366,-2.63409l0.03956,-0.02422l-0.10747,-0.09563c-1.05796,-2.40526 -2.19676,-4.68511 -3.47312,-6.95498c0.19262,1.88495 0.3913,3.7601 0.56893,5.63957l0.92335,1.55631c0.32787,0.53823 0.39975,1.22148 0.13347,1.84531c-0.43793,1.02604 -1.6247,1.50282 -2.65073,1.06487c-0.32572,-0.13902 -0.59607,-0.3535 -0.79938,-0.61435l-2.12592,-2.61723c-1.47818,-1.27958 -2.91136,-2.62722 -4.17612,-4.11791c0,0 -1.30301,-1.54349 0.24046,-2.84649c1.54349,-1.30301 2.84649,0.24046 2.84649,0.24046c0.25844,0.3079 0.52561,0.6083 0.79988,0.90232c-0.0875,-1.67319 -0.09489,-3.24027 -0.06918,-4.07864c0.04204,-1.37175 -0.73568,-3.39011 0.44285,-4.09336c1.38668,-0.82745 3.34826,0.18166 4.73989,1.00077c0.23353,0.13744 0.46344,0.31304 0.68939,0.52094l-0.26659,-0.93019c-0.12829,-0.43451 -0.11193,-0.91461 0.07982,-1.36386c0.39901,-0.9349 1.41976,-1.41377 2.37414,-1.16018c0.56273,-0.45368 1.35116,-0.5896 2.06233,-0.28604c0.2609,0.11135 0.48629,0.27112 0.67013,0.46435l1.59747,1.60309l-0.03055,0.03045l0.12046,0.0659c4.19918,5.47699 8.5671,10.81701 10.95489,17.05315c0.04722,0.0721 0.09449,0.14469 0.14181,0.21779l0.61666,-0.28598l1.60201,3.45437c0.23568,0.50278 0.26425,1.10002 0.02912,1.65093c-0.43793,1.02604 -1.6247,1.50282 -2.65073,1.06487c-0.34894,-0.14893 -0.63436,-0.38449 -0.84185,-0.67085l-1.42901,-1.89774l0.03134,-0.02359l-0.08539,-0.05176c-0.64501,-1.04374 -1.33792,-1.91729 -1.95805,-2.74639c-0.47356,0.18265 -1.01601,0.18811 -1.51969,-0.02688c-0.10118,-0.04319 -0.19706,-0.09367 -0.28723,-0.15057c-0.56111,0.6313 -1.4833,0.86516 -2.30293,0.51532c-0.51538,-0.21998 -0.8922,-0.6289 -1.08408,-1.11149l-0.47828,-1.20194c0.00841,0.2836 -0.04309,0.57346 -0.16178,0.85156z" fill="#787878"></path><path d="M251.96117,133.9205c-1.9216,-0.62259 -1.29899,-2.54422 -1.29899,-2.54422l0.46149,-1.39536c1.06742,-3.75485 0.60182,-0.84045 -2.01701,0.78766l-2.74717,2.76781c-0.56443,0.59566 -1.46082,0.80926 -2.25976,0.46826c-0.06059,-0.02584 -0.11923,-0.05432 -0.17592,-0.08521c-0.32212,0.29791 -0.6501,0.58539 -0.98477,0.8607c-1.22832,1.01047 -2.5104,2.98725 -4.03757,2.54281c-1.53027,-0.44535 -2.10534,-1.43479 -2.17101,-2.61576l-1.36989,1.44122c-0.56232,0.61999 -1.47638,0.84742 -2.2895,0.50035c-1.02604,-0.43793 -1.50282,-1.6247 -1.06487,-2.65073c0.06368,-0.14923 0.14322,-0.28682 0.23577,-0.41166l2.31376,-3.25884l0.39278,0.27885c0.01397,-0.0173 0.02795,-0.03463 0.04192,-0.052c1.84594,-3.56215 4.13809,-6.53831 7.03067,-10.10046l0.12645,-0.06516l-0.02995,-0.03185l2.05556,-1.93158c0.5664,-0.5568 1.4341,-0.74861 2.20991,-0.41747c0.53921,0.23015 0.92669,0.66708 1.1095,1.17885c0.11519,0.08242 0.2199,0.17579 0.31328,0.27801l0.00063,-0.00042c0.55006,-0.37404 1.27325,-0.46882 1.93048,-0.1883c0.30021,0.12812 0.55339,0.32037 0.75039,0.55392c0.01137,-0.01262 0.02271,-0.02527 0.03405,-0.0379c0,0 1.34959,-1.50292 2.85252,-0.15333c1.50292,1.34959 0.15333,2.85252 0.15333,2.85252c-0.48141,0.53593 -0.9547,1.09469 -1.42354,1.66845c1.48879,-0.04997 2.85472,0.94584 3.53253,3.66503c0.24898,0.99871 -0.37956,2.02325 -0.56934,3.03487l-0.5615,1.76198c0,0 -0.62259,1.9216 -2.54422,1.29899z" fill="#787878"></path><path d="M254.30107,161.04147c-1.57037,1.27047 -2.84085,-0.29992 -2.84085,-0.29992l-0.18836,-0.23718c-0.05416,0.54626 -0.13877,1.09203 -0.24924,1.63472l0.69178,0.16881l-0.85739,3.51406c-0.02664,0.11816 -0.06431,0.23557 -0.11356,0.35096c-0.43688,1.02357 -1.61903,1.50052 -2.64336,1.068c-0.02398,0.17481 -0.07145,0.34936 -0.14407,0.51946c-0.43793,1.02604 -1.6247,1.50282 -2.65073,1.06487c-0.33299,-0.14212 -0.60811,-0.3631 -0.81287,-0.63186l-1.34843,-1.69955l0.06563,-0.05206l-0.17742,-0.10345c-1.65103,-3.1669 -2.51136,-5.72125 -2.8835,-8.82208l-0.17446,-0.47694c-0.16398,-0.44488 -0.17259,-0.94797 0.00941,-1.42157c-0.02447,-0.42801 -0.04199,-0.8686 -0.05317,-1.32414c0,0 -0.04192,-2.01952 1.97757,-2.06145c2.01952,-0.04192 2.06145,1.97757 2.06145,1.97757c0.00903,0.54874 0.02755,1.06886 0.05757,1.56713l1.97803,2.38065l-0.25466,0.21159c0.62163,0.55479 1.22203,1.13125 1.79382,1.73353c-0.10454,-0.5683 -0.18829,-1.14071 -0.26659,-1.70821l-0.52877,-2.43597c-0.09264,-0.40212 -0.06327,-0.8362 0.11112,-1.24481c0.43793,-1.02604 1.6247,-1.50282 2.65073,-1.06487c0.11683,0.04987 0.22655,0.10945 0.32863,0.1774l2.26207,1.4487l-0.0572,0.08931c0.10501,0.03554 0.21,0.07107 0.31501,0.10661l2.24185,2.72983c0,0 1.27047,1.57037 -0.29992,2.84085z" fill="#787878"></path><path d="M269.20682,177.83635c-0.2289,2.00693 -2.23583,1.77803 -2.23583,1.77803l-0.16476,-0.01878c-0.2459,-0.02809 -0.49754,-0.04881 -0.75302,-0.06473c-0.43895,0.535 -1.12776,0.80944 -1.81481,0.72224l-1.97509,-0.20431l0.0081,-0.07841l-0.16556,0.05581c-0.44604,-0.11817 -0.88949,-0.23766 -1.33067,-0.35947c-0.42422,-0.01615 -0.83862,-0.16737 -1.25043,-0.35398c-2.11599,-0.61516 -4.18503,-1.30588 -6.24145,-2.18161c0,0 -1.85782,-0.79293 -1.06487,-2.65073c0.79293,-1.85782 2.65073,-1.06487 2.65073,-1.06487c0.58142,0.24876 1.16428,0.48139 1.74941,0.70082c0.05259,0.00391 0.10525,0.0099 0.15783,0.01804l2.72217,0.358l-0.04989,0.37929c0.09872,0.033 0.19718,0.06683 0.2953,0.10152c2.33109,-0.06161 4.48439,0.26281 7.52001,0.60848l0.16476,0.01878c0,0 2.00693,0.2289 1.77803,2.23583z" fill="#787878"></path><path d="M283.62117,167.17537c2.01289,0.16871 1.84419,2.18157 1.84419,2.18157l-0.03653,0.43046c-0.01428,0.18569 -0.04157,0.37432 -0.08113,0.56331c0.76061,-0.52134 1.50437,-1.06801 2.23587,-1.62713c0,0 1.60677,-1.22414 2.83091,0.38262c1.22414,1.60677 -0.38262,2.83091 -0.38262,2.83091c-1.73292,1.31631 -3.52555,2.57093 -5.42821,3.62711l-1.70108,1.0236c-0.53998,0.33386 -1.22853,0.40867 -1.85681,0.14049c-1.02604,-0.43793 -1.50282,-1.6247 -1.06487,-2.65073c0.01385,-0.03245 0.02845,-0.06434 0.04377,-0.09567l1.22032,-2.53569c0.07144,-0.63529 0.12492,-1.27209 0.15184,-1.91087l0.04278,-0.51581c0,0 0.16871,-2.01289 2.18157,-1.84419z" fill="#787878"></path><path d="M278.46539,157.09462c0.43793,-1.02604 1.6247,-1.50282 2.65073,-1.06487c1.02604,0.43793 1.50282,1.6247 1.06487,2.65073c-0.43793,1.02604 -1.6247,1.50282 -2.65073,1.06487c-1.02604,-0.43793 -1.50282,-1.6247 -1.06487,-2.65073z" fill="#787878"></path><path d="M270.07856,111.61146c0.36486,-1.01773 1.54964,-1.24269 1.54964,-1.24269l2.15407,0.29516l1.78909,1.40477c0.72742,0.5453 1.01743,1.53517 0.64463,2.40857c-0.34376,0.80543 -1.14896,1.27237 -1.97564,1.22413l-2.34753,-0.08223c-3.63832,0.03566 -7.08073,0.20324 -10.66471,0.83589c0,0 -1.98947,0.34945 -2.33894,-1.64001c-0.34945,-1.98947 1.64001,-2.33894 1.64001,-2.33894c3.21578,-0.56224 6.33211,-0.7845 9.54933,-0.86464z" fill="#787878"></path><path d="M291.44929,152.76078c-0.71034,-0.97453 -0.41478,-1.79135 -0.06122,-2.2914c-1.73786,0.38478 -3.69957,-0.12608 -4.28252,-3.58351c-0.22475,-1.33293 1.32311,-2.3576 1.98466,-3.5364c0,0 1.1748,-1.64317 2.81797,-0.46835c1.64317,1.1748 0.46835,2.81797 0.46835,2.81797c-3.5205,2.75964 3.19579,-2.40153 4.6675,-0.79007c3.67754,4.02671 0.06438,5.95849 -2.03151,7.75349l-0.7411,0.54074c0,0 -1.63232,1.18982 -2.82215,-0.44251z" fill="#787878"></path></g></g></g></svg>