<svg version="1.1" xmlns="http://www.w3.org/2000/svg" xmlns:xlink="http://www.w3.org/1999/xlink" width="80.5" height="115.83333" viewBox="0,0,80.5,115.83333"><g transform="translate(-199.75,-88.08333)"><g data-paper-data="{&quot;isPaintingLayer&quot;:true}" fill-rule="nonzero" stroke-linejoin="miter" stroke-miterlimit="10" stroke-dasharray="" stroke-dashoffset="0" style="mix-blend-mode: normal"><path d="" data-paper-data="{&quot;index&quot;:null}" fill="none" stroke="#000000" stroke-width="1.5" stroke-linecap="round"></path><path d="" data-paper-data="{&quot;index&quot;:null}" fill="none" stroke="#000000" stroke-width="1.5" stroke-linecap="round"></path><g><path d="M200.5,146c0,-31.57228 17.68475,-57.16667 39.5,-57.16667c21.81525,0 39.5,25.59439 39.5,57.16667c0,31.57228 -17.68475,57.16667 -39.5,57.16667c-21.81525,0 -39.5,-25.59439 -39.5,-57.16667z" fill="#205fa7" stroke="#000000" stroke-width="1.5" stroke-linecap="butt"></path><path d="M267.80711,92.43713l-31.11024,30.01635l-27.99921,-29.26593" fill="none" stroke="#e2ff00" stroke-width="7" stroke-linecap="round"></path><path d="M213.42302,146.00991v-30.42646l21.15664,16.61382l23.22616,-16.61382v30.42646l-23.7633,19.74318z" fill="#edffff" stroke="#e2ff00" stroke-width="0" stroke-linecap="butt"></path><path d="M230.96621,137.41907c0,0 -2.29297,16.04603 -4.2313,16.04603c-0.48691,0 -1.41121,-0.81127 -1.85114,-2.71799c-1.31137,-5.68364 -1.13185,-20.38272 -1.13185,-20.38272z" fill="#ff0000" stroke="none" stroke-width="0" stroke-linecap="butt"></path><path d="M246.06093,130.28985c0,0 0.17952,14.69908 -1.13184,20.38272c-0.43993,1.90672 -1.36423,2.71799 -1.85115,2.71799c-1.93832,0 -4.2313,-16.04603 -4.2313,-16.04603z" data-paper-data="{&quot;index&quot;:null}" fill="#ff0000" stroke="none" stroke-width="0" stroke-linecap="butt"></path></g><g stroke-linecap="butt"><g fill="#d3d3d3" stroke="#000000" stroke-width="1"><path d="M241.32741,191.12961l-5.88933,-24.23734l33.35802,-16.97746l5.88933,24.23734z"></path><path d="M230.21491,181.28584l-2.53768,-10.44374l9.53086,-4.8507l2.53768,10.44374z"></path><path d="M229.24999,196.83351l-2.25039,-9.26143l13.75167,-6.99886l2.25039,9.26143z"></path></g><path d="M256.84909,183.22989l-5.93721,-24.43439l5.44621,-2.77183l5.93721,24.43439z" fill="#a0a0a0" stroke="none" stroke-width="0"></path><path d="M264.01743,179.36017l-5.74569,-23.64619l5.03774,-2.56393l5.74569,23.64619z" fill="#a0a0a0" stroke="none" stroke-width="0"></path><path d="M248.99249,186.78564l-5.6978,-23.44913l5.03774,-2.56393l5.6978,23.44913z" fill="#a0a0a0" stroke="none" stroke-width="0"></path></g></g></g></svg>