<svg version="1.1" xmlns="http://www.w3.org/2000/svg" xmlns:xlink="http://www.w3.org/1999/xlink" width="119.47987" height="84.47956" viewBox="0,0,119.47987,84.47956"><g transform="translate(-170.44406,-140.37075)"><g data-paper-data="{&quot;isPaintingLayer&quot;:true}" fill-rule="nonzero" stroke-linejoin="miter" stroke-miterlimit="10" stroke-dasharray="" stroke-dashoffset="0" style="mix-blend-mode: normal"><path d="" data-paper-data="{&quot;index&quot;:null}" fill="none" stroke="#000000" stroke-width="1.5" stroke-linecap="round"></path><path d="" data-paper-data="{&quot;index&quot;:null}" fill="none" stroke="#000000" stroke-width="1.5" stroke-linecap="round"></path><path d="" data-paper-data="{&quot;index&quot;:null}" fill="none" stroke="#000000" stroke-width="1.5" stroke-linecap="round"></path><path d="" data-paper-data="{&quot;index&quot;:null}" fill="none" stroke="#000000" stroke-width="1.5" stroke-linecap="round"></path><path d="" data-paper-data="{&quot;index&quot;:null}" fill="none" stroke="#000000" stroke-width="1.5" stroke-linecap="round"></path><path d="M289.92393,195.4756" data-paper-data="{&quot;index&quot;:null}" fill="none" stroke="#d8d8d8" stroke-width="4" stroke-linecap="round"></path><path d="M241.20089,220.12075c-21.81525,0 -39.5,-17.68475 -39.5,-39.5c0,-21.81525 17.68475,-39.5 39.5,-39.5c21.81525,0 39.5,17.68475 39.5,39.5c0,21.81525 -17.68475,39.5 -39.5,39.5z" fill="#d8d8d8" stroke="#000000" stroke-width="1.5" stroke-linecap="butt"></path><path d="M212.07688,162.69677l17.15344,6.06646" fill="none" stroke="#000000" stroke-width="1.5" stroke-linecap="round"></path><path d="M222.91576,172.63241l0.20919,4.76726" fill="none" stroke="#000000" stroke-width="1.5" stroke-linecap="round"></path><path d="M242.40962,166.67577l-12.04734,0.73331" fill="none" stroke="#000000" stroke-width="1.5" stroke-linecap="round"></path><path d="M235.86714,173.18389l-0.20919,5.28695" fill="none" stroke="#000000" stroke-width="1.5" stroke-linecap="round"></path><path d="M237.39081,185.81595c0,0 -2.44712,6.39517 -6.00657,7.52772c-3.85628,1.227 -16.31203,-0.42635 -16.31203,-0.42635" fill="none" stroke="#000000" stroke-width="1.5" stroke-linecap="round"></path><path d="M202.46548,147.5887c0,0 0.53446,-1.40155 1.93602,-0.86709c1.40155,0.53446 0.86709,1.93602 0.86709,1.93602c-0.02552,0.06693 -0.05105,0.13387 -0.07657,0.2008c0.53534,0.22905 0.91043,0.76057 0.91043,1.3797c0,0.18494 -0.03347,0.36206 -0.09468,0.52564l-0.72394,2.08197l-0.00944,-0.00328l-0.0038,0.03982c-0.0346,0.08505 -0.06931,0.17006 -0.1041,0.25503c0.00961,0.05767 0.01489,0.11458 0.01653,0.17043c0.08442,-0.01475 0.17127,-0.02244 0.25991,-0.02244c0.82843,0 1.5,0.67157 1.5,1.5c0,0.13419 -0.01762,0.26426 -0.05067,0.38804l-0.70326,2.88204l-0.37673,-0.09193c-0.34194,2.35843 -1.04619,4.39976 -2.00225,7.15761l-0.00605,0.00741l0.00301,0.00109l-0.82859,2.29358c-0.06935,0.207 -0.18261,0.39388 -0.32872,0.54955c-0.39555,1.10884 -0.76808,2.17352 -1.00246,3.13629c-1.17937,4.84436 -2.20251,9.71938 -2.84588,14.64045l0.63495,1.36954c0.09768,0.19911 0.15253,0.42305 0.15253,0.6598c0,0.27239 -0.0726,0.52782 -0.19951,0.74799c0.08166,0.35975 0.15324,0.69784 0.21553,1.0224c0.14304,0.54045 0.28604,1.0809 0.42915,1.62133l0.07208,-0.01981l0.7858,2.85959c0.04081,0.1364 0.06273,0.28096 0.06273,0.43064c0,0.82843 -0.67157,1.5 -1.5,1.5c-0.46632,0 -0.88294,-0.21279 -1.15806,-0.54657c-0.05057,0.57498 -0.11817,1.14936 -0.20512,1.7233c0.00099,0.07308 0.00209,0.14618 0.00331,0.21929l0.01151,0.14042l0.39616,0.02152l-0.16216,2.98594c-0.01473,0.31305 -0.12543,0.60099 -0.30333,0.83508c0.40514,4.12756 0.94532,8.22926 1.88703,12.19193l0.00562,0.02376l0.04831,-0.01059l0.63527,2.89903c0.02723,0.11305 0.04165,0.2311 0.04165,0.35251c0,0.82843 -0.67157,1.5 -1.5,1.5c-0.72018,0 -1.32181,-0.50753 -1.46675,-1.18443l-0.68354,-2.88972c-0.12691,-0.53887 -0.24518,-1.08006 -0.35578,-1.62326c-0.91104,-2.17054 -1.02686,-4.91739 -1.5278,-7.20338c-0.1811,-0.82645 -0.36291,-1.65268 -0.5454,-2.47871c-0.04395,-0.07782 -0.08114,-0.15996 -0.11079,-0.24562l-0.61813,-1.65916l0.0103,-0.00384l-0.01971,-0.02214c-0.7002,-2.11406 -1.41818,-4.22461 -2.14255,-6.33198c-0.09442,1.9386 -0.18884,3.8772 -0.28326,5.81579l-0.01729,1.2006c-0.00174,0.14094 -0.02292,0.2772 -0.06097,0.40622c-0.22756,4.67234 -0.45513,9.34468 -0.68269,14.01702l-0.09805,2.0131c-0.03365,0.79862 -0.69175,1.43575 -1.49865,1.43575c-0.82105,0 -1.48802,-0.65966 -1.49984,-1.4779l-0.05046,-2.99642l0.19354,-0.00326c0.0175,-0.35923 0.03499,-0.71847 0.05249,-1.0777c-0.47287,-3.55313 -0.38366,-7.09286 -0.44806,-10.91734c-0.02697,-1.60181 -0.05394,-3.20362 -0.08092,-4.80544c-0.73728,-2.23437 -1.43504,-4.47154 -2.01414,-6.74354c-0.0377,1.66007 -0.11681,3.31301 -0.2775,4.94863l0.29399,-0.0177l0.17949,2.98118c0.00233,0.03421 0.00352,0.06874 0.00352,0.10354c0,0.82843 -0.67157,1.5 -1.5,1.5c-0.02458,0 -0.04902,-0.00059 -0.0733,-0.00176l0.37241,1.62435c0.02955,0.11748 0.04525,0.24046 0.04525,0.3671c0,0.82843 -0.67157,1.5 -1.5,1.5c-0.58575,0 -1.09309,-0.33575 -1.34005,-0.82529l-0.82586,-1.55864l0.03749,-0.01987l-0.08196,-0.07139c-2.10154,-5.69731 -4.61994,-12.36457 -4.64764,-18.4825c0,0 0,-1.32394 1.24382,-1.48418c-0.0172,-0.07899 -0.03434,-0.15797 -0.0514,-0.23694c-0.44147,-2.0431 -2.00411,-5.70906 -1.61085,-7.82828c0.00911,-0.04909 0.01892,-0.09797 0.02939,-0.14666l-0.02936,-0.00146l0.10462,-2.10608c0.03431,-0.79802 0.69213,-1.43446 1.49859,-1.43446c0.2478,0 0.48156,0.06009 0.68751,0.16648c0.12609,-0.25356 0.25986,-0.50341 0.39998,-0.75006c0.01584,-0.07185 0.03194,-0.14366 0.04831,-0.21542l-0.08296,-0.03372l0.21991,-0.54109c0.49677,-2.00004 1.19527,-3.96313 2.04738,-5.87063c0.50018,-2.09464 1.1933,-4.11956 2.14299,-6.03013c0.01197,-0.05127 0.02391,-0.10254 0.03583,-0.15383l-0.42279,-0.16502l1.07803,-2.76208c0.20948,-0.57591 0.76174,-0.98723 1.41007,-0.98723c0.56837,0 1.0629,0.31611 1.31738,0.78211c0.4822,-0.64512 0.97502,-1.27696 1.47564,-1.89441l0.10376,-0.04733l-0.02678,-0.02903l1.25748,-1.16024c0.26769,-0.24857 0.6263,-0.40056 1.02042,-0.40056c0.50462,0 0.95103,0.24918 1.22292,0.6312c0.14777,-0.36103 0.29767,-0.72095 0.45021,-1.07949c0.38467,-0.90418 0.45389,-2.07974 1.23409,-2.67705c0.22619,-0.17316 5.84945,-1.60893 6.49088,-1.67144c0.97857,-0.09537 2.48668,-0.76791 2.94791,0.1004c0.3415,0.64291 0.25842,1.74645 -0.02838,3.0072c0.12685,-0.33264 0.24701,-0.64775 0.35873,-0.94072zM196.84837,154.6462c0.61201,-1.90406 0.92811,-3.93013 1.83602,-5.71218c0.04742,-0.09307 0.09839,-0.18618 0.15304,-0.278c-1.4095,0.2319 -3.01977,-0.09119 -4.18117,0.70852c-0.426,0.29333 -0.23037,1.01064 -0.40035,1.49913c-0.1263,0.36297 -0.25631,0.72508 -0.38931,1.08648c0.27511,-0.32115 0.68361,-0.52466 1.13965,-0.52466c0.82843,0 1.5,0.67157 1.5,1.5c0,0.13205 -0.01706,0.26011 -0.0491,0.3821l-0.0519,0.21643c0.08784,0.19073 0.13683,0.40304 0.13683,0.62679v1.44832zM189.03232,160.09481c-0.40067,-0.15681 -0.64143,-0.38357 -0.78105,-0.62724c-0.38368,0.85847 -0.75472,1.72253 -1.11735,2.59029c0.35476,0.27434 0.58319,0.70414 0.58319,1.1873c0,0.06413 -0.00402,0.12731 -0.01183,0.18932l-0.12073,1.07445c0.66414,-1.44486 1.35378,-2.87753 2.07973,-4.2873c-0.18774,0.00181 -0.39791,-0.03522 -0.63196,-0.12682zM192.36095,175.43173c-0.11783,0.24058 -0.23476,0.4815 -0.35074,0.7228c-0.39486,0.82152 -0.75289,1.61529 -1.09479,2.38907c0.23348,0.00182 0.45425,0.05699 0.65074,0.15391c0.21658,-1.09239 0.48466,-2.18111 0.79479,-3.26578zM181.97722,189.12585c0.01631,-1.58516 0.0718,-3.17076 0.1373,-4.75576c-0.26002,0.39669 -0.70299,0.66267 -1.209,0.67805c0.33477,1.36248 0.69171,2.72347 1.0717,4.07771z" fill="#73a367" stroke="none" stroke-width="0.5" stroke-linecap="butt"></path><path d="M172.70522,190.55338c-0.10778,-0.48675 -0.20405,-0.97613 -0.28962,-1.46786c-0.73904,0.13559 -1.32556,-0.45478 -1.32556,-0.45478l-0.64598,-1.26868c0.00449,-5.97561 0.43896,-12.15703 1.22816,-18.08133c0.01508,-0.11322 0.80515,-6.05245 0.81667,-6.07925c0.01774,-0.04125 0.03586,-0.08229 0.05437,-0.12312l-0.01907,-0.00613l0.9083,-2.82315c0.18381,-0.62056 0.75825,-1.07328 1.43843,-1.07328c0.25995,0 0.50446,0.06613 0.71763,0.18248c0.22262,-1.8388 0.54637,-3.71097 1.16203,-4.70267c0.04992,-0.08042 0.10279,-0.15836 0.15828,-0.23409l-0.0281,-0.01806l1.14222,-1.77684c0.26459,-0.42607 0.73677,-0.70977 1.27521,-0.70977c0.82843,0 1.5,0.67157 1.5,1.5c0,0.02403 -0.00057,0.04793 -0.00168,0.07169l-0.00869,0.20984c0.19823,-0.32691 0.39938,-0.65218 0.6034,-0.97577c0,0 0.79999,-1.26886 2.06885,-0.46887c1.26886,0.79999 0.46887,2.06885 0.46887,2.06885c-1.5615,2.47668 -2.95073,5.06086 -4.13896,7.7289c-0.52417,3.30729 -1.06551,6.61177 -1.49319,9.92875c-0.56071,4.34871 -0.93405,8.21676 -2.19078,12.0235c-0.01846,0.29842 -0.03675,0.59685 -0.05492,0.8953l0.16223,0.04335l-0.21316,0.79779c-0.10927,1.81392 -0.21549,3.62811 -0.3281,5.44167l-0.1285,2.38476c-0.03713,0.7954 -0.69376,1.42887 -1.49834,1.42887c-0.79351,0 -1.44311,-0.61616 -1.49646,-1.39613l-0.23352,-2.9774l0.38762,-0.0304c0.00078,-0.01272 0.00157,-0.02544 0.00235,-0.03816z" fill="#999999" stroke="none" stroke-width="0.5" stroke-linecap="butt"></path><path d="M206.9943,210.27984c-0.0599,0.01572 -0.11798,0.02832 -0.17429,0.03803l0.63165,1.37542c0,0 0.62539,1.36341 -0.73802,1.9888c-1.36341,0.62539 -1.9888,-0.73802 -1.9888,-0.73802l-0.79354,-1.73198c-5.87627,-15.42368 -10.76823,-31.17598 -2.09261,-46.68585c0,0 0.24009,-0.42757 0.6902,-0.6565c0.31447,-1.16978 0.68029,-2.32667 1.10315,-3.46842c0,0 0.52367,-1.40562 1.92929,-0.88195c1.40562,0.52367 0.88195,1.92929 0.88195,1.92929c-2.04613,5.45677 -2.69076,11.33315 -2.63914,17.31695c0.42222,0.44407 0.42222,1.08832 0.42222,1.08832c0,8.87389 0.8639,17.27376 3.12873,25.89137l0.70933,2.70292c0,0 0.38075,1.45087 -1.07012,1.83162zM200.91013,175.17883c-1.66915,7.50883 -0.59113,15.07029 1.55401,22.56718c-0.90444,-7.40507 -1.84903,-15.09508 -1.55401,-22.56718z" fill="#999999" stroke="none" stroke-width="0.5" stroke-linecap="butt"></path><path d="M235.14871,213.70333c-1.49042,0.16923 -1.65965,-1.3212 -1.65965,-1.3212l-0.08179,-0.72034c-0.44223,-3.89839 -1.08774,-7.45819 -2.22056,-11.16481c-0.1264,0.83512 -0.27429,1.66312 -0.45972,2.49929l0.37327,0.03771l-0.29988,2.96816c-0.06785,0.76559 -0.71086,1.36586 -1.49408,1.36586c-0.72785,0 -1.33462,-0.5184 -1.47122,-1.20612l-0.49303,-2.23885l0.00852,-0.00188l-0.01384,-0.02334c-0.51712,-2.80264 -0.93087,-5.66023 -1.60788,-8.43233c-0.00642,0.0488 -0.01204,0.0962 -0.01666,0.14201c-0.24067,2.38422 -0.35467,4.12905 -0.92757,5.97162l0.33551,0.04444l-0.20738,1.56558c-0.08728,0.74533 -0.72097,1.32367 -1.48974,1.32367c-0.71462,0 -1.31252,-0.49972 -1.46331,-1.16878l-0.40689,-1.63821c-0.61293,-2.08127 -1.23122,-4.16095 -1.84788,-6.24108c-0.86585,3.70882 0.19788,7.67044 1.22547,11.26826c1.54662,5.41508 3.88511,10.81166 6.96062,15.53271l0.15178,0.23365c0,0 0.81712,1.2579 -0.44078,2.07502c-1.2579,0.81712 -2.07502,-0.44078 -2.07502,-0.44078l-0.15178,-0.23365c-4.03849,-6.23358 -8.6626,-15.44275 -9.01838,-23.7637c-0.1229,-0.1048 -0.22868,-0.2291 -0.31254,-0.3681c-0.27499,0.31542 -0.67975,0.51474 -1.13107,0.51474c-0.70317,0 -1.29333,-0.48385 -1.45572,-1.13677l-0.78076,-2.86286l0.24522,-0.06688c-0.05269,-0.29029 -0.10522,-0.58057 -0.15756,-0.87087c-0.66512,-1.91388 -0.96571,-3.80943 -1.25351,-6.20428c-0.15698,2.14253 -0.40258,4.27036 -0.80901,6.36523l0.30923,0.01872l-0.18064,2.98387c-0.03104,0.59082 -0.40396,1.09105 -0.92461,1.30656l-0.02156,0.13383c-0.1042,0.72666 -0.72924,1.28519 -1.48473,1.28519c-0.72758,0 -1.33418,-0.51803 -1.47107,-1.20537l-0.41389,-1.87472l0.03675,-0.00811l-0.05498,-0.08975c-0.06782,-0.78947 -0.12795,-1.57498 -0.18006,-2.35793c-0.27483,0.34477 -0.6984,0.56572 -1.17358,0.56572c-0.80054,0 -1.45461,-0.62712 -1.49774,-1.41689l-0.18757,-2.98307l0.1174,-0.00738c-0.02131,-0.62902 -0.04376,-1.25406 -0.06466,-1.87569c-0.42422,-2.61869 -0.56411,-5.28956 -0.58196,-7.9763c-0.25455,-2.40713 -0.24156,-4.82578 0.1302,-7.27192c0.01306,-0.49865 0.02528,-0.99671 0.03564,-1.49397l-0.17817,-0.01221l0.20425,-2.98108c0.04686,-0.78623 0.69931,-1.40937 1.49731,-1.40937c0.82843,0 1.5,0.67157 1.5,1.5c0,0.00232 -0.00001,0.00464 -0.00002,0.00697l-0.00835,2.10334l-0.00369,-0.00001l0.00363,0.00913c-0.00996,0.61824 -0.0204,1.23654 -0.03057,1.85486c0.28926,0.16018 0.52,0.41315 0.65203,0.71874l0.61623,1.34393l-0.03466,0.01589l0.07209,0.07322c0.5134,1.64691 0.98723,3.32372 1.39721,5.01884c0.04307,-1.06137 0.08122,-2.12336 0.11394,-3.18653l-0.10248,-2.16621c-0.00145,-0.02707 -0.00219,-0.05432 -0.00219,-0.08175c0,-0.82843 0.67157,-1.5 1.5,-1.5c0.61497,0 1.14351,0.37008 1.37505,0.89968l1.24767,2.6911l-0.0231,0.01071c0.03031,0.05189 0.05997,0.10422 0.08893,0.15701c0.34365,0.62647 0.89044,5.26326 0.98133,5.89416c0.01439,0.09991 0.02886,0.19981 0.04341,0.29969l1.15338,2.70885l-0.01408,0.00599c0.01701,0.02926 0.03384,0.05865 0.05048,0.08817c0.58044,1.02967 0.97719,2.34865 1.31357,3.72035c0.07212,-0.68769 0.1361,-1.28593 0.14839,-1.7009l0.01349,-0.03326l-0.01132,-0.00085l0.12056,-1.60225c0.05127,-0.78199 0.70179,-1.40039 1.49675,-1.40039c0.505,0 0.95172,0.24956 1.22355,0.63207l1.14446,1.57088l-0.0211,0.01537c0.05198,0.06348 0.10202,0.12879 0.1499,0.19613c0.63002,0.88609 0.66309,2.07097 0.98047,3.11085c0.27508,0.90132 0.54609,1.80417 0.81464,2.70789c0.14309,-0.76073 0.29502,-1.4086 0.43228,-1.82807c0.35821,-1.09475 0.47916,-2.75626 1.58769,-3.06926c1.10279,-0.31138 2.19959,0.91249 2.93327,1.79272c0.53023,0.63614 0.93107,1.49591 1.24313,2.47748c0.19928,-1.06334 0.41733,-2.0447 0.60661,-2.86353c0.47588,-2.05859 0.95181,-5.08889 4.43462,-2.11099c0.96419,0.82441 0.93695,2.36077 1.30903,3.57357c0.19818,0.64597 0.36284,1.30724 0.50316,1.97873c0.23839,-0.15962 0.52508,-0.25272 0.83352,-0.25272c0.5271,0 0.9907,0.27188 1.25822,0.68304l1.65924,2.47179l-0.13765,0.0924c0.63979,0.80066 1.16482,1.63325 1.74076,2.77215c-0.24377,-2.4385 -0.22138,-4.94344 -0.41384,-7.35902l0.00044,-0.00186l-0.00059,0.00005l-0.13781,-1.78532c-0.00379,-0.04346 -0.00572,-0.08745 -0.00572,-0.13189c0,-0.82843 0.67157,-1.5 1.5,-1.5c0.46472,0 0.88009,0.21134 1.15523,0.54314l1.14862,1.36636l-0.02508,0.02108c0.06721,0.07094 0.13141,0.14513 0.19216,0.223c0.198,0.25376 0.74435,2.14605 1.18639,3.75431c0.14209,-0.63248 0.3496,-1.28739 0.59191,-2.02424l3.37313,0.92011c0,0 0.71467,1.3188 -0.60413,2.03348c-0.23596,0.12787 -0.45259,0.19064 -0.64924,0.20752c-0.18568,0.55887 -0.36425,1.07442 -0.56279,1.5884l0.343,0.11359l-0.93225,2.81511c-0.18764,0.61436 -0.75904,1.06124 -1.43481,1.06124c-0.65382,0 -1.20993,-0.41831 -1.41531,-1.00189l-0.0432,-0.11416c-0.04444,0.37389 -0.11398,0.72069 -0.21456,1.03112c-0.03015,0.09306 -0.0629,0.18494 -0.09801,0.27573l0.02049,0.00783l-1.0381,2.71675c-0.20668,0.58119 -0.76159,0.9973 -1.41369,0.9973c-0.58055,0 -1.08406,-0.32981 -1.33341,-0.81228l-1.24611,-2.29952l0.01061,-0.00575l-0.03458,-0.04038c-0.52225,-1.15157 -1.05256,-2.02729 -1.45658,-2.94498c-0.10027,0.84663 -0.23354,1.61212 -0.41871,2.3789l0.29431,0.03078l-0.31023,2.96661c-0.06361,0.69279 -0.59832,1.24924 -1.28094,1.34614c0.26969,1.53811 0.48747,3.09892 0.67062,4.71054l0.08179,0.72034c0,0 0.16923,1.49042 -1.3212,1.65965zM231.89138,197.77866c0.46544,-0.15055 0.82819,-0.10021 1.10573,0.036c-0.21373,-1.52881 -0.45853,-3.05475 -0.78525,-4.56311c-0.00652,-0.03011 -0.01396,-0.06202 -0.0222,-0.09553c-0.10916,0.43261 -0.2268,0.86108 -0.27079,1.23103c-0.14827,1.24706 -0.26951,2.42083 -0.39999,3.55588c0.10698,-0.06276 0.23037,-0.1183 0.37249,-0.16427z" fill="#c2c2c2" stroke="none" stroke-width="0.5" stroke-linecap="butt"></path></g></g></svg>