<svg version="1.1" xmlns="http://www.w3.org/2000/svg" xmlns:xlink="http://www.w3.org/1999/xlink" width="158.61956" height="85.50519" viewBox="0,0,158.61956,85.50519"><g transform="translate(-185.20927,-145.97941)"><g data-paper-data="{&quot;isPaintingLayer&quot;:true}" fill-rule="nonzero" stroke="#000000" stroke-linejoin="miter" stroke-miterlimit="10" stroke-dasharray="" stroke-dashoffset="0" style="mix-blend-mode: normal"><path d="M199.4885,186.22941c0,-21.81525 17.68475,-39.5 39.5,-39.5c21.81525,0 39.5,17.68475 39.5,39.5c0,21.81525 -17.68475,39.5 -39.5,39.5c-21.81525,0 -39.5,-17.68475 -39.5,-39.5z" fill="#d8d8d8" stroke-width="1.5" stroke-linecap="butt"></path><path d="M242.02206,183.05544v-8" fill="none" stroke-width="1.5" stroke-linecap="round"></path><path d="" data-paper-data="{&quot;index&quot;:null}" fill="none" stroke-width="1.5" stroke-linecap="round"></path><path d="M253.08519,207.98808c0,0 -23.16802,-0.03729 -27.92241,-10.69369" data-paper-data="{&quot;index&quot;:null}" fill="none" stroke-width="1.5" stroke-linecap="round"></path><path d="M249.49371,183.54058v-8" fill="none" stroke-width="1.5" stroke-linecap="round"></path><g data-paper-data="{&quot;index&quot;:null}" stroke-width="1"><path d="M254.94311,214.2534l19.58603,-4.29266l1.68641,7.69451l-19.58603,4.29266z" fill="#e8ff00" stroke-linecap="butt"></path><path d="M278.49508,221.75141l-2.78538,-3.04496l-2.00873,-8.83925l1.27822,-4.15766l3.01097,3.45878l1.73616,9.3546z" fill="#8f8f8f" stroke-linecap="butt"></path><path d="M277.32143,210.29464l58.24648,-15.3581l7.53238,4.31202l-4.71449,6.59072l-59.66789,10.74738z" fill="#dddddd" stroke-linecap="butt"></path><path d="M321.44839,203.57681l-42.70011,9.63756" fill="none" stroke-linecap="round"></path></g><g stroke-linecap="butt"><path d="M186.10097,219.67177v-39.20997h37.17169v39.20997c0,0 -15.19427,8.53892 -17.91362,10.06715c-0.80178,0.45059 -1.55727,0.87516 -1.55727,0.87516z" fill="#008c04" stroke-width="1.5"></path><path d="M202.03793,231.28561v-51.72473h4.15075v51.72473z" fill="#00ff08" stroke-width="0"></path><path d="M223.52389,199.4504h-38.31462v-4.15075h38.31462z" fill="#00ff08" stroke-width="0"></path></g></g></g></svg>