<svg version="1.1" xmlns="http://www.w3.org/2000/svg" xmlns:xlink="http://www.w3.org/1999/xlink" width="111.5869" height="80.5" viewBox="0,0,111.5869,80.5"><g transform="translate(-200.95089,-140.37075)"><g data-paper-data="{&quot;isPaintingLayer&quot;:true}" fill-rule="nonzero" stroke-linejoin="miter" stroke-miterlimit="10" stroke-dasharray="" stroke-dashoffset="0" style="mix-blend-mode: normal"><path d="" data-paper-data="{&quot;index&quot;:null}" fill="none" stroke="#000000" stroke-width="1.5" stroke-linecap="round"></path><path d="" data-paper-data="{&quot;index&quot;:null}" fill="none" stroke="#000000" stroke-width="1.5" stroke-linecap="round"></path><path d="" data-paper-data="{&quot;index&quot;:null}" fill="none" stroke="#000000" stroke-width="1.5" stroke-linecap="round"></path><path d="" data-paper-data="{&quot;index&quot;:null}" fill="none" stroke="#000000" stroke-width="1.5" stroke-linecap="round"></path><path d="" data-paper-data="{&quot;index&quot;:null}" fill="none" stroke="#000000" stroke-width="1.5" stroke-linecap="round"></path><path d="M289.92393,195.4756" data-paper-data="{&quot;index&quot;:null}" fill="none" stroke="#d8d8d8" stroke-width="4" stroke-linecap="round"></path><path d="M241.20089,220.12075c-21.81525,0 -39.5,-17.68475 -39.5,-39.5c0,-21.81525 17.68475,-39.5 39.5,-39.5c21.81525,0 39.5,17.68475 39.5,39.5c0,21.81525 -17.68475,39.5 -39.5,39.5z" fill="#d8d8d8" stroke="#000000" stroke-width="1.5" stroke-linecap="butt"></path><path d="M229.23032,168.7632l-17.15344,-6.06646" fill="none" stroke="#000000" stroke-width="1.5" stroke-linecap="round"></path><path d="M222.91576,172.6324l0.20919,4.76726" fill="none" stroke="#000000" stroke-width="1.5" stroke-linecap="round"></path><path d="M242.40962,166.67573l-12.04734,0.73331" fill="none" stroke="#000000" stroke-width="1.5" stroke-linecap="round"></path><path d="M235.86714,173.18383l-0.20919,5.28695" fill="none" stroke="#000000" stroke-width="1.5" stroke-linecap="round"></path><path d="M237.39081,185.81594c0,0 -2.44712,6.39517 -6.00657,7.52772c-3.85628,1.227 -16.31203,-0.42635 -16.31203,-0.42635" fill="none" stroke="#000000" stroke-width="1.5" stroke-linecap="round"></path><g><path d="" data-paper-data="{&quot;index&quot;:null}" fill="none" stroke="#000000" stroke-width="1.5" stroke-linecap="round"></path><path d="" data-paper-data="{&quot;index&quot;:null}" fill="none" stroke="#000000" stroke-width="1.5" stroke-linecap="round"></path><path d="" data-paper-data="{&quot;index&quot;:null}" fill="none" stroke="#000000" stroke-width="1.5" stroke-linecap="round"></path><path d="" data-paper-data="{&quot;index&quot;:null}" fill="none" stroke="#000000" stroke-width="1.5" stroke-linecap="round"></path><path d="" data-paper-data="{&quot;index&quot;:null}" fill="none" stroke="#000000" stroke-width="1.5" stroke-linecap="round"></path><path d="M284.65277,188.4531" data-paper-data="{&quot;index&quot;:null}" fill="none" stroke="#d8d8d8" stroke-width="4" stroke-linecap="round"></path><g stroke-width="0" stroke-linecap="butt"><path d="M264.97506,154.84865l12.42609,7.15086l-4.95152,4.79081z" fill="#aeaeae" stroke="none"></path><path d="M291.80458,164.78951l5.79432,-5.60625l8.66421,8.95486l-5.79432,5.60625z" fill="#a7ed95" stroke="none"></path><path d="M256.03717,207.17875l22.12379,-21.40569l1.42705,1.47492l-22.12379,21.40569z" fill="#c2c2c2" stroke="none"></path><path d="M250.69808,208.06108l3.83062,-3.70629l6.01398,6.21573l-3.83062,3.70629z" fill="#a6a6a6" stroke="#000000"></path><path d="M263.99506,171.91086l19.18633,-18.5636l29.35639,30.34118l-19.18633,18.5636z" fill="#73a367" stroke="none"></path><path d="M297.4105,193.35654l4.95152,-4.79081l6.73711,12.65519z" data-paper-data="{&quot;index&quot;:null}" fill="#aeaeae" stroke="none"></path></g></g></g></g></svg>