<svg version="1.1" xmlns="http://www.w3.org/2000/svg" xmlns:xlink="http://www.w3.org/1999/xlink" width="44.16667" height="169.83334" viewBox="0,0,44.16667,169.83334"><g transform="translate(-217.41667,-1.75)"><g data-paper-data="{&quot;isPaintingLayer&quot;:true}" fill-rule="nonzero" stroke-linejoin="miter" stroke-miterlimit="10" stroke-dasharray="" stroke-dashoffset="0" style="mix-blend-mode: normal"><path d="" data-paper-data="{&quot;index&quot;:null}" fill="none" stroke="#000000" stroke-width="1.5" stroke-linecap="round"></path><path d="" data-paper-data="{&quot;index&quot;:null}" fill="none" stroke="#000000" stroke-width="1.5" stroke-linecap="round"></path><g><path d="M218.16667,86.66667c0,-46.48397 9.55126,-84.16667 21.33333,-84.16667c11.78208,0 21.33333,37.6827 21.33333,84.16667c0,46.48397 -9.55126,84.16667 -21.33333,84.16667c-11.78208,0 -21.33333,-37.6827 -21.33333,-84.16667z" fill="#205fa7" stroke="#000000" stroke-width="1.5" stroke-linecap="butt"></path><path d="M254.51819,7.80589l-16.80215,44.19317l-15.12194,-43.08832" fill="none" stroke="#e2ff00" stroke-width="7" stroke-linecap="round"></path><path d="M225.14619,86.68126v-44.79697l11.42637,24.46058l12.54409,-24.46058v44.79697l-12.83419,29.06795z" fill="#edffff" stroke="#e2ff00" stroke-width="0" stroke-linecap="butt"></path><path d="M234.62099,74.03294c0,0 -1.2384,23.62462 -2.28526,23.62462c-0.26297,0 -0.76217,-1.19444 -0.99977,-4.00171c-0.70825,-8.36804 -0.61129,-30.00954 -0.61129,-30.00954z" fill="#ff0000" stroke="none" stroke-width="0" stroke-linecap="butt"></path><path d="M242.77341,63.53657c0,0 0.09696,21.6415 -0.61129,30.00954c-0.2376,2.80727 -0.7368,4.00171 -0.99978,4.00171c-1.04686,0 -2.28526,-23.62462 -2.28526,-23.62462z" data-paper-data="{&quot;index&quot;:null}" fill="#ff0000" stroke="none" stroke-width="0" stroke-linecap="butt"></path></g><g stroke-linecap="butt"><g fill="#d3d3d3" stroke="#000000" stroke-width="1"><path d="M240.21691,153.11114l-3.18074,-35.68471l18.01615,-24.99597l3.18074,35.68471z"></path><path d="M234.21523,138.61812l-1.37056,-15.37635l5.14747,-7.1417l1.37056,15.37635z"></path><path d="M233.69409,161.50901l-1.2154,-13.63563l7.42706,-10.30444l1.2154,13.63563z"></path></g><path d="M248.59993,141.48036l-3.20659,-35.97483l2.94141,-4.08097l3.20659,35.97483z" fill="#a0a0a0" stroke="none" stroke-width="0"></path><path d="M252.47144,135.78295l-3.10316,-34.81436l2.7208,-3.77488l3.10316,34.81436z" fill="#a0a0a0" stroke="none" stroke-width="0"></path><path d="M244.3567,146.7155l-3.07729,-34.52423l2.7208,-3.77488l3.07729,34.52423z" fill="#a0a0a0" stroke="none" stroke-width="0"></path></g></g></g></svg>