<svg version="1.1" xmlns="http://www.w3.org/2000/svg" xmlns:xlink="http://www.w3.org/1999/xlink" width="106.57539" height="94.27174" viewBox="0,0,106.57539,94.27174"><g transform="translate(-225.73489,-125.97827)"><g data-paper-data="{&quot;isPaintingLayer&quot;:true}" fill-rule="nonzero" stroke-linejoin="miter" stroke-miterlimit="10" stroke-dasharray="" stroke-dashoffset="0" style="mix-blend-mode: normal"><path d="" data-paper-data="{&quot;index&quot;:null}" fill="none" stroke="#000000" stroke-width="1.5" stroke-linecap="round"></path><path d="M226.48489,180.00001c0,-21.81525 17.68475,-39.5 39.5,-39.5c21.81525,0 39.5,17.68475 39.5,39.5c0,21.81525 -17.68475,39.5 -39.5,39.5c-21.81525,0 -39.5,-17.68475 -39.5,-39.5z" data-paper-data="{&quot;index&quot;:null}" fill="#d8d8d8" stroke="#000000" stroke-width="1.5" stroke-linecap="butt"></path><path d="" data-paper-data="{&quot;index&quot;:null}" fill="none" stroke="#000000" stroke-width="1.5" stroke-linecap="round"></path><path d="" data-paper-data="{&quot;index&quot;:null}" fill="none" stroke="#000000" stroke-width="1.5" stroke-linecap="round"></path><path d="M290.80334,179.01413l-1.78529,-9.65943" data-paper-data="{&quot;index&quot;:null}" fill="none" stroke="#000000" stroke-width="1.5" stroke-linecap="round"></path><path d="M297.14739,176.39787l-1.78529,-9.65943" data-paper-data="{&quot;index&quot;:null}" fill="none" stroke="#000000" stroke-width="1.5" stroke-linecap="round"></path><path d="M310.47922,179.54346c0,-5.85589 4.74714,-10.60303 10.60303,-10.60303c5.85589,0 10.60303,4.74714 10.60303,10.60303c0,5.85589 -4.74714,10.60303 -10.60303,10.60303c-5.85589,0 -10.60303,-4.74714 -10.60303,-10.60303z" data-paper-data="{&quot;index&quot;:null}" fill="#d8d8d8" stroke="#000000" stroke-width="1.25" stroke-linecap="butt"></path><path d="M292.92984,162.12211c-1.38675,2.08013 -3.46688,0.69338 -3.46688,0.69338l-0.88577,-0.65496c-4.30609,-1.72249 -8.7275,-3.2563 -12.99198,-5.07458c-1.59921,-0.68187 -3.35697,-1.13504 -4.72543,-2.20729c-0.03437,-0.02693 -0.06843,-0.05419 -0.10218,-0.08176l-0.01075,0.01792l-2.20079,-1.32047c-0.67733,-0.39054 -1.15442,-1.08947 -1.23945,-1.90499c-3.24717,-1.56051 -6.48779,-3.13412 -9.72038,-4.71928l-0.11985,-0.14688l-0.03397,0.04962l-4.09563,-2.80349c-0.67397,-0.44783 -1.11821,-1.21391 -1.11821,-2.08375c0,-1.38071 1.11929,-2.5 2.5,-2.5c0.37453,0 0.72982,0.08236 1.04876,0.22995l4.53362,1.97503l-0.00718,0.01648c0.03409,0.00897 0.06816,0.01807 0.10221,0.02731c1.59904,0.43376 2.87584,1.65343 4.37424,2.36045c2.65975,1.255 5.41315,2.32971 7.97534,3.77336l0.46236,0.23118c-0.26112,-0.33691 -0.55065,-0.71221 -0.85442,-1.11101c-0.44271,-0.19893 -0.81704,-0.52294 -1.07801,-0.92702l-1.77055,-2.65583l0.01879,-0.01253c-0.02453,-0.02407 -0.04892,-0.04831 -0.07317,-0.07273c-1.11979,-1.12786 -1.54455,-2.77819 -2.31682,-4.16728l-0.00328,-0.05908l-0.02153,0.01077l-1.32155,-2.64311c-0.18291,-0.34741 -0.28642,-0.74312 -0.28642,-1.16302c0,-0.28768 0.04859,-0.564 0.13801,-0.82122c-0.32349,-0.78772 -0.53528,-1.32154 -0.53656,-1.37201c-0.00418,-0.16565 -0.00206,-0.33058 0.00572,-0.49486h-0.05519v-4.03214c0,-1.38071 1.11929,-2.5 2.5,-2.5c0.92661,0 1.73548,0.50412 2.16731,1.25305l1.31176,2.18627c0.71223,1.14064 1.38541,2.29299 2.03853,3.4526c0.86781,0.42745 1.26041,1.3435 1.26041,1.3435c0.96679,2.26691 2.02969,4.517 3.16414,6.72694c0.83585,1.45093 2.13592,2.69229 2.58047,4.30529c0.0137,0.0497 0.02701,0.09946 0.03995,0.14929l0.02631,-0.01169l1.77,3.9825c0.15235,0.32309 0.23753,0.68409 0.23753,1.06498c0,0.89036 -0.46545,1.67202 -1.1663,2.11492c1.99341,0.93405 3.98881,1.86217 5.98616,2.78343c0,0 0.94276,0.43512 1.33271,1.35209c0.71296,0.27524 1.4241,0.55344 2.13224,0.83669l1.80232,1.1371c0,0 2.08013,1.38675 0.69338,3.46688z" fill="#814fe6" stroke="none" stroke-width="0.5" stroke-linecap="butt"></path><path d="M325.58832,162.57289c-1.31956,0.52943 -2.6778,0.97981 -3.91831,1.67082c-1.06661,0.59415 -1.81082,1.70057 -2.91954,2.21187l-3.9798,2.98485c-0.42124,0.32311 -0.94829,0.51515 -1.5202,0.51515c-1.38071,0 -2.5,-1.11929 -2.5,-2.5c0,-0.76097 0.33999,-1.44252 0.87635,-1.90105l0.90387,-0.78163c-2.11871,0.91522 -4.2375,1.83081 -6.3597,2.74047c0,0 -2.29786,0.9848 -3.28266,-1.31306c-0.13772,-0.32134 -0.21124,-0.61699 -0.23582,-0.88787c-0.52827,-0.45838 -0.86234,-1.13467 -0.86234,-1.88899c0,-0.34704 0.07071,-0.67756 0.19851,-0.97794c-0.65332,0.32492 -1.30658,0.64998 -1.95964,0.97542l-2.27023,-2.53057l-2.60834,1.65985c-0.20653,0.24282 -0.41558,0.48528 -0.62725,0.72745c0,0 -1.64626,1.88144 -3.5277,0.23518c-0.8833,-0.77289 -0.98905,-1.59761 -0.85266,-2.25514c-0.00072,-0.02468 -0.00108,-0.04946 -0.00108,-0.07431c0,-0.69036 0.27982,-1.31536 0.73223,-1.76777l2.10449,-2.10449l1.48399,-2.67119c1.7492,-3.62891 3.34489,-9.03712 6.56425,-11.63498c0.05888,-0.04751 0.11862,-0.0936 0.17917,-0.13834l-0.02756,-0.02756l1.79206,-1.79206c0,0 0,0 0,0c0.45241,-0.45241 1.07741,-0.73223 1.76777,-0.73223c1.38071,0 2.5,1.11929 2.5,2.5c0,0.42365 -0.10538,0.8227 -0.29136,1.17234l-1.19938,2.37261l-0.0057,-0.00288l-0.0014,0.01681c-0.02651,0.05084 -0.05303,0.10163 -0.07955,0.15236c0.45798,0.45314 0.74171,1.08203 0.74171,1.77719c0,0.17254 -0.01748,0.341 -0.05076,0.5037c0.29654,-0.18068 0.57885,-0.35633 0.84368,-0.5266l0.06016,-0.01671l-0.00814,-0.01412l3.82077,-2.2027c0.37579,-0.22591 0.81584,-0.35583 1.28624,-0.35583c1.38071,0 2.5,1.11929 2.5,2.5c0,0.41989 -0.10352,0.81561 -0.28642,1.16302l-0.03236,0.06472c0.96899,0.34428 1.66283,1.2693 1.66283,2.35639c0,0.64138 -0.24153,1.22635 -0.63859,1.66891l-3.31471,3.72905l-0.05023,-0.04465c-0.09802,0.1272 -0.19972,0.25196 -0.30545,0.37404c-1.19483,1.37966 -3.26275,1.63671 -4.89573,2.45188c-0.69799,0.34843 -1.39628,0.69628 -2.0947,1.04384c0.59451,0.14878 1.10465,0.51043 1.44473,0.99926c4.87746,-2.09948 9.74252,-4.21918 14.63579,-6.28404l0.01253,-0.00144l-0.00131,-0.0032l4.25073,-1.74488c0.30659,-0.13417 0.64528,-0.20862 1.00136,-0.20862c1.32705,0 2.4126,1.03398 2.49498,2.34025c1.03851,0.30368 1.79708,1.26317 1.79708,2.39983c0,0.79812 -0.374,1.50888 -0.9563,1.9666l-2.22204,1.77763z" fill="#814fe6" stroke="none" stroke-width="0.5" stroke-linecap="butt"></path><path d="M260.57758,165.06072c0.15479,-2.4952 2.64999,-2.34042 2.64999,-2.34042l4.52469,0.2819c3.73802,0.46927 5.69242,0.79833 7.67543,1.58147l0.07573,-0.31301l4.80974,1.16374c1.12219,0.24605 1.96211,1.24594 1.96211,2.44199c0,0.90191 -0.4776,1.69228 -1.19369,2.13198c1.93523,0.7318 3.80939,1.52328 5.1791,2.44189c1.34578,0.90256 3.02035,1.86493 3.44649,3.4283c0.07936,0.29115 0.10856,0.58139 0.0963,0.86918c0.59452,-0.3455 1.1898,-0.70117 1.78741,-1.06943l0.04147,-0.00566l-0.00797,-0.0139l2.42401,-1.3899c0.37474,-0.22415 0.81306,-0.35297 1.28148,-0.35297c1.38071,0 2.5,1.11929 2.5,2.5c0,0.38757 -0.08819,0.75454 -0.2456,1.08194l0.81474,3.65856l-0.028,0.00624l0.0468,0.08637c0.39836,2.77383 1.35265,7.66981 0.75355,10.5127c-0.00785,0.03723 -0.01585,0.07442 -0.02399,0.11157l0.01629,0.00148l-0.28266,3.10924l0.2217,0.99763c0.04655,0.19068 0.07123,0.38994 0.07123,0.59496c0,0.98352 -0.56794,1.83439 -1.39375,2.24254c-0.22351,1.1515 -1.23729,2.02087 -2.45413,2.02087c-1.28012,0 -2.33553,-0.96214 -2.48251,-2.20273l-0.64767,-4.83443c-0.72212,-3.15083 -1.05257,-5.17309 -1.02971,-7.13631c-1.74337,0.9558 -3.8344,1.94058 -4.61756,2.31057c-4.21545,1.99152 -8.60885,4.1168 -13.16602,5.20485c-1.373,0.32781 -3.06107,1.48455 -4.18714,0.63334c-5.10353,-3.85781 -2.59885,-7.54712 1.06509,-10.51528l-0.20853,-0.46919c-0.08513,0.00876 -0.17153,0.01325 -0.25897,0.01325c-0.32746,0 -0.64021,-0.06296 -0.92682,-0.17743c-0.87226,0.2211 -1.56458,0.3929 -1.89556,0.47683l-2.24144,1.18174c-0.35816,0.19813 -0.77011,0.31092 -1.20839,0.31092c-0.51954,0 -1.00207,-0.15848 -1.40188,-0.42974l-4.18035,1.52013c-0.28168,0.10996 -0.58819,0.17031 -0.90879,0.17031c-0.46877,0 -0.9074,-0.12902 -1.28233,-0.35348c-0.71063,-0.0058 -1.5736,-0.29528 -2.1128,-1.46354c-0.04815,-0.10432 -0.08929,-0.20607 -0.12397,-0.30525c-0.7918,0.07074 -1.59193,0.13434 -2.40252,0.19104l-3.06811,0.21464c-0.06591,0.00521 -0.13253,0.00787 -0.19978,0.00787c-1.38071,0 -2.5,-1.11929 -2.5,-2.5c0,-0.99801 0.58479,-1.85943 1.43041,-2.26029l2.63965,-1.31982l0.02339,0.04677c0.09707,-0.06284 0.19619,-0.123 0.29756,-0.18023c1.54254,-0.87087 3.48273,-0.65044 5.21872,-1.00288c4.91077,-0.99699 9.72746,-2.09154 14.68729,-2.82781l0.56211,-0.14479c0.01971,-0.00923 0.03943,-0.01846 0.05915,-0.02769l0.0351,0.00341l0.16361,-0.04214l-0.007,-0.02452l2.81076,-0.80308c0.69004,-0.25974 1.37996,-0.51668 2.06942,-0.77078c-1.05472,-0.48127 -2.02923,-0.93118 -2.74636,-1.25788l-0.10854,-0.11058l-0.02211,0.03632l-3.92207,-2.38777c-0.59367,-0.34771 -1.0311,-0.93331 -1.18145,-1.62596c-0.02085,-0.00263 -0.04176,-0.00525 -0.06275,-0.00786l-4.36916,-0.26981c0,0 -2.4952,-0.15479 -2.34042,-2.64999z" fill="#814fe6" stroke="none" stroke-width="0.5" stroke-linecap="butt"></path></g></g></svg>