<svg version="1.1" xmlns="http://www.w3.org/2000/svg" xmlns:xlink="http://www.w3.org/1999/xlink" width="189.99942" height="85.33375" viewBox="0,0,189.99942,85.33375"><defs><radialGradient cx="284.82345" cy="206.76275" r="10.40477" gradientUnits="userSpaceOnUse" id="color-1"><stop offset="0" stop-color="#ffffff"></stop><stop offset="1" stop-color="#f3fffe"></stop></radialGradient><radialGradient cx="167.32542" cy="184.49235" r="10.40476" gradientUnits="userSpaceOnUse" id="color-2"><stop offset="0" stop-color="#ffffff"></stop><stop offset="1" stop-color="#f3fffe"></stop></radialGradient></defs><g transform="translate(-105.72883,-137.92394)"><g data-paper-data="{&quot;isPaintingLayer&quot;:true}" fill-rule="nonzero" stroke-linejoin="miter" stroke-miterlimit="10" stroke-dasharray="" stroke-dashoffset="0" style="mix-blend-mode: normal"><path d="" data-paper-data="{&quot;index&quot;:null}" fill="none" stroke="#000000" stroke-width="1.5" stroke-linecap="round"></path><path d="" data-paper-data="{&quot;index&quot;:null}" fill="none" stroke="#000000" stroke-width="1.5" stroke-linecap="round"></path><path d="M199.48855,178.17395c0,-21.81525 17.68475,-39.5 39.5,-39.5c21.81525,0 39.5,17.68475 39.5,39.5c0,21.81525 -17.68475,39.5 -39.5,39.5c-21.81525,0 -39.5,-17.68475 -39.5,-39.5z" fill="#ffffff" stroke="#000000" stroke-width="1.5" stroke-linecap="butt"></path><path d="M232.79025,167.28625c0,1.80048 -0.36489,3.26006 -0.81501,3.26006c-0.45012,0 -0.81502,-1.45958 -0.81502,-3.26006c0,-1.80048 0.3649,-3.26006 0.81502,-3.26006c0.45012,0 0.81501,1.45958 0.81501,3.26006z" fill="none" stroke="#000000" stroke-width="1.5" stroke-linecap="butt"></path><path d="M239.10662,167.38813c0,1.85674 -0.3649,3.36194 -0.81502,3.36194c-0.45012,0 -0.81501,-1.5052 -0.81501,-3.36194c0,-1.85674 0.36489,-3.36193 0.81501,-3.36193c0.45012,0 0.81502,1.50519 0.81502,3.36193z" fill="none" stroke="#000000" stroke-width="1.5" stroke-linecap="butt"></path><path d="M243.51685,192.16254c0,0 -5.0993,0.9633 -8.57383,1.0335c-3.23174,0.06529 -8.54149,-1.84852 -8.54149,-1.84852" fill="none" stroke="#000000" stroke-width="1.5" stroke-linecap="round"></path><path d="M238.0155,180.95607c0,1.91302 -1.7369,3.46381 -3.87947,3.46381c-2.14257,0 -3.87948,-1.5508 -3.87948,-3.46381c0,-1.91302 1.7369,-3.46382 3.87948,-3.46382c2.14257,0 3.87947,1.5508 3.87947,3.46382z" fill="#ff6900" stroke="#000000" stroke-width="0" stroke-linecap="butt"></path><path d="M274.41871,206.76275c0,-5.74639 4.65837,-10.40477 10.40477,-10.40477c5.74639,0 10.40477,4.65837 10.40477,10.40477c0,5.74639 -4.65837,10.40477 -10.40477,10.40477c-5.74639,0 -10.40477,-4.65837 -10.40477,-10.40477z" fill="url(#color-1)" stroke="#000000" stroke-width="1" stroke-linecap="butt"></path><path d="M176.70298,189.00023c-2.48963,5.17907 -8.70634,7.35928 -13.88541,4.86965c-5.17907,-2.48963 -7.35929,-8.70633 -4.86965,-13.88541c2.48963,-5.17907 8.70634,-7.35929 13.88541,-4.86967c5.17907,2.48963 7.35929,8.70634 4.86966,13.88541z" fill="url(#color-2)" stroke="#000000" stroke-width="1" stroke-linecap="butt"></path><path d="" data-paper-data="{&quot;index&quot;:null}" fill="none" stroke="#000000" stroke-width="1.5" stroke-linecap="round"></path><path d="" data-paper-data="{&quot;index&quot;:null}" fill="none" stroke="#000000" stroke-width="1.5" stroke-linecap="round"></path><path d="M114.29108,165.49709c1.33676,-2.78079 7.84506,-2.42738 27.5092,7.02538c19.66413,9.45275 28.51213,16.48124 27.17536,19.26206c-1.33676,2.78079 -12.35204,0.26083 -32.01618,-9.19191c-19.66413,-9.45275 -24.00515,-14.31472 -22.6684,-17.0955z" fill="#000000" stroke="none" stroke-width="0" stroke-linecap="butt"></path><path d="M146.94187,223.2577c0,0 -17.58696,-2.30807 -21.61811,-4.09121c-3.93832,-1.74204 -19.59494,-15.38567 -19.59494,-15.38567l19.77923,-34.09077l17.60099,6.70477c0,0 15.27012,7.70125 15.34888,8.09276z" fill="#000000" stroke="none" stroke-width="0" stroke-linecap="butt"></path><path d="M152.12445,203.26154l-2.95449,6.14611l-34.74344,-16.70153l2.95449,-6.14611z" fill="#fff000" stroke="none" stroke-width="0" stroke-linecap="butt"></path></g></g></svg>