<svg version="1.1" xmlns="http://www.w3.org/2000/svg" xmlns:xlink="http://www.w3.org/1999/xlink" width="145.70187" height="116.61917" viewBox="0,0,145.70187,116.61917"><g transform="translate(-198.73851,-145.97942)"><g data-paper-data="{&quot;isPaintingLayer&quot;:true}" fill-rule="nonzero" stroke="#000000" stroke-linejoin="miter" stroke-miterlimit="10" stroke-dasharray="" stroke-dashoffset="0" style="mix-blend-mode: normal"><path d="M199.48851,186.22942c0,-21.81525 17.68475,-39.5 39.5,-39.5c21.81525,0 39.5,17.68475 39.5,39.5c0,21.81525 -17.68475,39.5 -39.5,39.5c-21.81525,0 -39.5,-17.68475 -39.5,-39.5z" fill="#d8d8d8" stroke-width="1.5" stroke-linecap="butt"></path><path d="M242.02205,183.05545v-8" fill="none" stroke-width="1.5" stroke-linecap="round"></path><path d="" data-paper-data="{&quot;index&quot;:null}" fill="none" stroke-width="1.5" stroke-linecap="round"></path><path d="M249.49371,175.54059v8" fill="none" stroke-width="1.5" stroke-linecap="round"></path><path d="M250.38316,206.08242h-6.33253" fill="none" stroke-width="1.5" stroke-linecap="round"></path><g stroke-linecap="butt"><path d="M269.9156,226.19116l48.93232,-33.76743l24.54919,35.5742l-48.93232,33.76743c0,0 -20.6909,-7.18763 -24.394,-8.474c-1.09183,-0.37929 -2.12063,-0.73665 -2.12063,-0.73665z" fill="#008c04" stroke-width="1.5"></path><path d="M265.94725,251.44502l64.55018,-44.54507l2.74126,3.97237l-64.55018,44.54507z" fill="#00ff08" stroke-width="0"></path><path d="M319.86611,244.59128l-25.30401,-36.66801l5.17995,-3.57462l25.30401,36.66801z" fill="#00ff08" stroke-width="0"></path></g></g></g></svg>