<svg version="1.1" xmlns="http://www.w3.org/2000/svg" xmlns:xlink="http://www.w3.org/1999/xlink" width="80.52088" height="82.84462" viewBox="0,0,80.52088,82.84462"><g transform="translate(-439.86626,-139.65381)"><g stroke-miterlimit="10"><g><path d="M443.70719,165.27927c8.08266,-20.11393 30.94052,-29.86723 51.05448,-21.78453c20.11393,8.08266 29.86723,30.94052 21.78453,51.05448c-8.08266,20.11393 -30.94052,29.86723 -51.05448,21.78453c-20.11393,-8.08266 -29.86723,-30.94052 -21.78453,-51.05448z" fill="#c6c6c6" stroke="#00144d" stroke-width="2" stroke-linecap="butt"/><path d="M445.81945,161.42274c0,0 2.38319,-4.10511 3.99305,-5.8485c1.91826,-2.07739 6.75432,-5.7904 6.75432,-5.7904l30.97737,14.01434l-6.10036,13.48427z" fill="#ffffff" stroke="#001e6f" stroke-width="2" stroke-linecap="butt"/><path d="M474.15517,172.88921l5.43039,-11.67953l6.81239,3.07115l-5.43039,11.67953z" fill-opacity="0.35294" fill="#0015ff" stroke="none" stroke-width="0" stroke-linecap="butt"/><path d="M467.16554,169.89837l5.43039,-11.67953l6.81239,3.07114l-5.43039,11.67953z" fill-opacity="0.45098" fill="#0015ff" stroke="none" stroke-width="0" stroke-linecap="butt"/><path d="M460.06385,166.64783l5.43039,-11.67953l6.81239,3.07115l-5.43039,11.67953z" fill-opacity="0.61961" fill="#0015ff" stroke="none" stroke-width="0" stroke-linecap="butt"/><path d="M452.83231,163.45333l5.43039,-11.67953l6.81239,3.07114l-5.43039,11.67953z" fill-opacity="0.70196" fill="#0015ff" stroke="none" stroke-width="0" stroke-linecap="butt"/><path d="M447.14385,160.97919c0,0 2.74572,-4.18077 4.37883,-5.92417c1.56154,-1.667 5.21474,-4.31732 5.21474,-4.31732l1.0501,0.78289l-5.43039,11.67953z" fill-opacity="0.9098" fill="#0015ff" stroke="none" stroke-width="0" stroke-linecap="butt"/><path d="M445.13987,166.33747l26.3335,25.13222l15.42249,-12.64516l0.16929,18.23904l28.98421,-1.99941c0,0 -1.7358,4.34897 -5.1457,8.68856c-3.9141,4.98124 -9.8107,10.15272 -14.0635,12.128c-3.70839,1.72241 -10.41897,3.38446 -16.24677,3.19674c-6.13828,-0.19772 -11.59291,-1.57116 -11.59291,-1.57116c0,0 -6.81913,-2.74433 -13.23303,-7.47405c-5.03894,-3.71581 -9.39943,-9.73565 -11.24857,-13.48565c-2.22498,-4.5122 -4.28518,-13.72796 -3.7876,-20.63062c0.44233,-6.13603 3.33913,-10.27219 3.33913,-10.27219z" fill-opacity="0.25098" fill="#172aff" stroke="#00144d" stroke-width="1.5" stroke-linecap="round"/><path d="M499.42904,195.87455l-3.73844,-51.25605l8.59462,4.82394l3.4152,45.74787z" fill="#00f2ff" stroke="#00144d" stroke-width="1.5" stroke-linecap="butt"/><path d="M494.13395,174.19428c2.27614,-5.73178 8.76785,-8.53312 14.49963,-6.25698c5.73178,2.27614 8.53312,8.76785 6.25698,14.49963c-2.27614,5.73178 -8.76785,8.53312 -14.49963,6.25698c-5.73178,-2.27614 -8.53312,-8.76785 -6.25698,-14.49963z" fill="#00cdff" stroke="#00144d" stroke-width="1.5" stroke-linecap="butt"/><path d="M496.07658,150.637l7.92581,1.11504" fill="none" stroke="#00144d" stroke-width="1.5" stroke-linecap="round"/><path d="M504.3849,156.20779l-7.51274,-0.951" fill="none" stroke="#00144d" stroke-width="1.5" stroke-linecap="round"/><path d="M497.11188,160.37314l7.5735,0.49693" fill="none" stroke="#00144d" stroke-width="1.5" stroke-linecap="round"/><path d="M497.95145,166.08635l6.9114,-0.2442" fill="none" stroke="#00144d" stroke-width="1.5" stroke-linecap="round"/><path d="M506.9711,192.14381l-6.74737,-0.16887" fill="none" stroke="#00144d" stroke-width="1.5" stroke-linecap="round"/></g><path d="M487.60183,197.15715l-9.41804,1.18647l-6.69007,-6.9854l14.97959,-11.52988z" fill-opacity="0.31373" fill="#006bff" stroke="#00144d" stroke-width="1.5" stroke-linecap="round"/><path d="M442.41931,190.88078c0,0 10.58423,-3.29026 13.44045,1.1313c2.85622,4.42156 -2.05215,16.49829 -2.05215,16.49829c0,0 -5.50832,-4.70851 -7.47009,-7.7454c-1.82434,-2.82417 -3.91821,-9.88418 -3.91821,-9.88418z" fill-opacity="0.2" fill="#00ff15" stroke="#00144d" stroke-width="1.5" stroke-linecap="round"/><path d="M495.2078,216.31593c-3.35159,1.35577 -10.56581,2.0389 -10.56581,2.0389c0,0 2.93159,-12.70218 7.81132,-14.67611c4.87973,-1.97393 11.6451,6.80568 11.6451,6.80568c0,0 -5.77379,4.57072 -8.89061,5.83153z" fill-opacity="0.2" fill="#00ff15" stroke="#00144d" stroke-width="1.5" stroke-linecap="round"/><g stroke="#00144d"><path d="M455.99446,203.84383c0.91545,-4.84476 5.58503,-8.03009 10.42978,-7.11464c4.84476,0.91545 8.03009,5.58503 7.11464,10.42978c-0.91545,4.84476 -5.58503,8.03009 -10.42978,7.11464c-4.84476,-0.91545 -8.03009,-5.58503 -7.11464,-10.42978z" fill="none" stroke-width="2.5" stroke-linecap="butt"/><path d="M462.34993,201.04779l0.75467,-3.99386l45.0735,8.51696l-0.75467,3.99386z" fill="#4d5995" stroke-width="1.5" stroke-linecap="butt"/><path d="M465.17368,198.26565l1.72495,-9.12881l49.06735,9.27162l-1.72495,9.12881z" fill="#6b7ccf" stroke-width="1.5" stroke-linecap="butt"/><path d="M445.03176,208.54251l14.70661,-19.81651l3.49703,2.59529l-14.70661,19.81651z" fill-opacity="0.25098" fill="#172aff" stroke-width="1.5" stroke-linecap="butt"/><path d="M456.25859,215.57047l7.25342,-24.08255l4.07225,1.06685l-7.54048,24.12593z" fill-opacity="0.44314" fill="#172aff" stroke-width="1.5" stroke-linecap="butt"/><path d="M453.16699,221.46562l-8.43925,-3.81062l16.75213,-22.98286z" fill-opacity="0.8549" fill="#006ace" stroke-width="1.5" stroke-linecap="round"/><path d="M467.51121,204.22424l-9.66638,-12.91371l1.03574,15.19774c0,0 -9.98865,-6.94723 -8.84992,-12.97364c1.13874,-6.02641 6.94723,-9.98865 12.97364,-8.84992c6.02641,1.13874 4.50692,19.53952 4.50692,19.53952z" fill="#6cbbcf" stroke-width="1.5" stroke-linecap="butt"/><path d="M453.08122,187.98847l9.66637,12.91371l-1.03574,-15.19774c0,0 9.98865,6.94723 8.84992,12.97364c-1.13874,6.02641 -6.94723,9.98865 -12.97364,8.84992c-6.02641,-1.13874 -4.50692,-19.53952 -4.50692,-19.53952z" fill="#6cbbcf" stroke-width="1.5" stroke-linecap="butt"/><path d="M457.46693,194.80027c0.32748,-1.73308 1.99789,-2.87256 3.73098,-2.54508c1.73308,0.32748 2.87256,1.99789 2.54508,3.73098c-0.32748,1.73308 -1.99789,2.87256 -3.73098,2.54508c-1.73308,-0.32748 -2.87256,-1.99789 -2.54508,-3.73098z" fill="#6b73cf" stroke-width="1.5" stroke-linecap="butt"/></g></g></g></svg>