<svg version="1.1" xmlns="http://www.w3.org/2000/svg" xmlns:xlink="http://www.w3.org/1999/xlink" width="115.91212" height="88.15266" viewBox="0,0,115.91212,88.15266"><g transform="translate(-160.81926,-136.64104)"><g data-paper-data="{&quot;isPaintingLayer&quot;:true}" fill-rule="nonzero" stroke-linejoin="miter" stroke-miterlimit="10" stroke-dasharray="" stroke-dashoffset="0" style="mix-blend-mode: normal"><path d="M213.51985,170.95034l8.98862,-1.09762l1.84071,7.78537" data-paper-data="{&quot;index&quot;:null}" fill="none" stroke="#000000" stroke-width="1.5" stroke-linecap="round"></path><path d="M230.5736,175.97467l-1.84071,-7.78537l8.52845,-3.04395" data-paper-data="{&quot;index&quot;:null}" fill="none" stroke="#000000" stroke-width="1.5" stroke-linecap="round"></path><path d="M234.4465,199.0748c0,0 -1.64581,-8.45829 3.5529,-10.12091c5.06778,-1.62073 13.97735,4.94863 13.97735,4.94863z" data-paper-data="{&quot;index&quot;:null}" fill="#040404" stroke="#000000" stroke-width="1.5" stroke-linecap="round"></path><path d="M198.80392,179.80071c-4.18549,-17.70276 9.25234,-36.03302 30.01421,-40.94178c20.76188,-4.90875 40.98571,5.46285 45.17119,23.16561c2.58317,10.92564 3.3077,24.77783 -5.11345,32.87884c-0.35164,0.33827 -4.50327,4.05491 -4.50327,4.05491l2.98359,13.5951l-12.02137,3.8212l-4.05247,-14.94418l3.65079,15.13857l-14.28613,3.5881l-4.11534,-15.40014l4.42408,15.19974l-15.76062,3.63743c0,0 -3.74433,-16.33182 -4.14772,-16.2923c-2.63511,0.25824 -1.96716,0.46408 -3.97804,-0.0216c-12.34402,-2.98147 -15.49263,-15.75173 -18.26545,-27.47951z" data-paper-data="{&quot;index&quot;:null}" fill="#ffffff" stroke="#000000" stroke-width="2" stroke-linecap="butt"></path><path d="M247.70897,169.87721c1.36355,5.7672 -0.74277,11.20174 -4.70458,12.13845c-3.96181,0.9367 -8.27886,-2.97921 -9.6424,-8.74639c-1.36355,-5.7672 -3.52007,-10.5774 0.44172,-11.5141c3.13592,-0.74143 12.21894,4.85396 12.21894,4.85396c0,0 1.40206,2.06585 1.68631,3.26807z" data-paper-data="{&quot;index&quot;:null}" fill="#ababab" stroke="#000000" stroke-width="1" stroke-linecap="butt"></path><path d="M263.22105,154.60581c3.96181,-0.9367 4.18776,4.32998 5.5513,10.09716c1.36355,5.7672 -0.74276,11.20175 -4.70458,12.13846c-3.96181,0.9367 -8.27886,-2.97921 -9.64241,-8.7464c-0.28425,-1.20223 0.04422,-3.67723 0.04422,-3.67723c0,0 5.61552,-9.07059 8.75145,-9.812z" data-paper-data="{&quot;index&quot;:null}" fill="#ababab" stroke="#000000" stroke-width="1" stroke-linecap="butt"></path><path d="" data-paper-data="{&quot;index&quot;:null}" fill="none" stroke="#000000" stroke-width="1.5" stroke-linecap="round"></path><path d="" data-paper-data="{&quot;index&quot;:null}" fill="none" stroke="#000000" stroke-width="1.5" stroke-linecap="round"></path><path d="" data-paper-data="{&quot;index&quot;:null}" fill="none" stroke="#000000" stroke-width="1.5" stroke-linecap="round"></path><path d="" data-paper-data="{&quot;index&quot;:null}" fill="none" stroke="#000000" stroke-width="1.5" stroke-linecap="round"></path><path d="" data-paper-data="{&quot;index&quot;:null}" fill="none" stroke="#000000" stroke-width="1.5" stroke-linecap="round"></path><path d="" data-paper-data="{&quot;index&quot;:null}" fill="none" stroke="#000000" stroke-width="1.5" stroke-linecap="round"></path><path d="" data-paper-data="{&quot;index&quot;:null}" fill="none" stroke="#000000" stroke-width="1.5" stroke-linecap="round"></path><path d="" data-paper-data="{&quot;index&quot;:null}" fill="none" stroke="#000000" stroke-width="1.5" stroke-linecap="round"></path><path d="" data-paper-data="{&quot;index&quot;:null}" fill="none" stroke="#000000" stroke-width="1.5" stroke-linecap="round"></path><path d="" data-paper-data="{&quot;index&quot;:null}" fill="none" stroke="#000000" stroke-width="1.5" stroke-linecap="round"></path><path d="M167.41437,198.49798c-0.0762,-5.41003 4.24773,-9.85751 9.65777,-9.93371c5.41003,-0.0762 9.85751,4.24773 9.93371,9.65777c0.0762,5.41003 -4.24773,9.85751 -9.65777,9.93371c-5.41003,0.0762 -9.85751,-4.24773 -9.93371,-9.65777z" fill="#ffffff" stroke="#000000" stroke-width="1" stroke-linecap="butt"></path><path d="M178.55061,168.49101c0.68468,-1.72145 1.86676,-3.58099 2.39291,-4.742l0.50079,-1.25198c0.14181,-0.37979 0.50789,-0.65024 0.93713,-0.65024c0.3567,0 0.66977,0.18676 0.84679,0.46782c0.13708,-0.38876 0.50768,-0.66736 0.94334,-0.66736c0.55076,0 0.99753,0.44525 0.99999,0.99543l0.01046,1.99931l-0.1011,0.00053l-0.00223,0.04853l-0.04371,-0.00201l0.04055,0.04781c-0.03885,0.27879 -0.08078,0.55743 -0.12591,0.83575c0.19816,2.37305 0.02469,4.77271 -0.01407,7.23111c0.28496,0.1612 0.48296,0.4582 0.50609,0.80309l0.15272,1.98532l-0.31687,0.02437c0.46923,3.14364 0.17546,6.27023 0.90816,9.40982c0.28646,1.22747 0.22504,4.57604 1.12421,5.58401c2.58648,2.89946 9.37162,2.3713 12.83778,2.51535c1.32425,0.05518 2.64851,0.11041 3.97275,0.16571l1.98524,0.00706c0.55086,0.00167 0.99689,0.44875 0.99689,1c0,0.27642 -0.11215,0.52664 -0.29344,0.70765l-1.29173,1.28991l-0.00783,-0.00784c-0.02142,0.02481 -0.0431,0.04941 -0.06506,0.0738c-0.2446,0.27164 -0.54173,0.49425 -0.8606,0.68268c0.65915,-0.00193 1.33331,0.09492 1.63221,0.11245l1.43628,0.00939c0.54966,0.00307 0.99429,0.4496 0.99429,0.99998c0,0.49155 -0.35466,0.90027 -0.82205,0.98421l-1.27087,0.25417l-0.03376,-0.16881c-0.20656,0.10496 -0.41198,0.21046 -0.61545,0.31928c1.18332,0.02102 2.52232,0.19426 3.15336,0.19671l0.10669,0.07701l0.01366,-0.05464l1.01094,0.25273c0.44532,0.10106 0.77776,0.49931 0.77776,0.97522c0,0.55228 -0.44772,1 -1,1l-0.85962,0c-0.84575,0.4097 -1.76503,0.82934 -2.58831,1.04935c0.33122,-0.02452 0.65531,-0.03937 0.8549,-0.03084c1.20985,0.05172 2.42139,0.04994 3.63209,0.07518c0.12848,0 1.79684,0 1.79684,0c0.55228,0 1,0.44772 1,1c0,0.55228 -0.44772,1 -1,1h-1.80466l0,-0.01284l-0.01042,0.01279c-0.07476,-0.00156 -0.15209,-0.00216 -0.23175,-0.00196c-1.03813,0.30316 -2.08917,0.57699 -3.14696,0.83032c0.22318,0.1834 0.36553,0.46157 0.36553,0.77298c0,0.50763 -0.37824,0.92691 -0.86825,0.9914l-1.96341,0.29118l-0.00105,-0.0071l-0.02251,0.01031c-1.90893,0.19 -3.51347,0.2498 -5.20691,0.01511v0.19151h-1.15071c-0.10265,0.44314 -0.49987,0.77342 -0.97422,0.77342h-2c-0.24263,0 -0.46508,-0.08641 -0.63825,-0.23014c-0.94724,0.16464 -1.9897,-0.02767 -3.10394,-0.02767c-2.44435,0 -4.88202,0.04592 -7.31955,-0.0739c0.06627,0.8879 0.09903,1.80885 0.11627,2.27621c0.05547,0.12433 0.0863,0.26207 0.0863,0.40701l0,1.54685c0,0.52194 -0.39986,0.95048 -0.90996,0.996c-0.03186,0.18715 -0.0822,0.3689 -0.14817,0.53716l-0.24182,1.45092c-0.0716,0.48201 -0.48716,0.85182 -0.9891,0.85182c-0.28617,0 -0.54426,-0.1202 -0.72654,-0.31288c-0.18607,0.6998 -0.45718,1.41433 -0.63891,2.18714l-0.04605,0.06242l0.02083,0.00832l-0.50792,1.27146c-0.1417,0.38001 -0.50788,0.65066 -0.93729,0.65066c-0.42924,0 -0.79532,-0.27045 -0.93713,-0.65024l-0.49607,-1.24017c-0.27573,0.0929 -0.64878,0.12867 -1.14488,0.08575c-0.96255,-0.08327 -1.29192,-1.43895 -1.88648,-2.20049c-1.67434,-2.14457 -2.59328,-5.23265 -4.01045,-7.63102c-0.01279,0.3071 -0.05779,0.61435 -0.11801,0.90619l-0.09938,0.09871l0.04793,0.02396l-0.50593,1.01186c-0.16034,0.33825 -0.50491,0.57216 -0.90412,0.57216c-0.55228,0 -1,-0.44772 -1,-1v-0.19386c-0.15715,0.10284 -0.34502,0.16263 -0.54685,0.16263c-0.55228,0 -1,-0.44772 -1,-1v-2l0.12791,0c-0.10793,-0.68141 -0.16235,-1.36687 -0.12653,-2.0525c0.03503,-0.67034 0.04569,-1.35203 0.21052,-2.00273c0.01269,-0.05009 0.04207,-0.10728 0.08128,-0.16774c-0.03111,0.00652 -0.06276,0.01159 -0.09486,0.01514c-0.06689,0.10286 -0.14664,0.18595 -0.25761,0.22025c-0.10071,0.03112 -2.70947,0.02675 -3.32345,0.02675l-2,0c0,0 0,0 0,0c-0.55228,0 -1,-0.44772 -1,-1c0,-0.55228 0.44772,-1 1,-1l2,0c0.27181,0 0.54448,0.01372 0.81726,0.03007c0.02065,-0.00193 0.0413,-0.00377 0.06195,-0.0055c-0.10833,-0.77879 1.77564,-2.12836 2.64297,-2.66511h-0.9441c-0.55228,0 -1,-0.44772 -1,-1c0,-0.35261 0.1825,-0.6626 0.4582,-0.84065l1.56385,-1.04257c-0.82671,0.00559 -1.86703,-0.12596 -1.97268,-0.90015c-0.10733,-0.78648 1.02257,-1.28823 1.24158,-2.0427l-0.51319,-0.1283c-0.44532,-0.10106 -0.77776,-0.49931 -0.77776,-0.97522c0,-0.4759 0.33244,-0.87416 0.77776,-0.97522l0.7946,-0.19865l-0.48458,-0.24229c-0.33825,-0.16034 -0.57216,-0.50491 -0.57216,-0.90412c0,-0.55228 0.44772,-1 1,-1h1.03123l0,0.26563c0.95739,-0.14225 1.89288,-0.20296 2.83703,-0.48993c0.20994,-0.06381 0.57751,-0.18526 0.92139,-0.2964c-1.73901,-0.15504 -0.40775,-5.72506 -0.22032,-6.51531c0.30791,-1.29822 0.62194,-2.60179 0.94644,-3.9063c-0.10257,0.03285 -0.22156,0.05191 -0.35961,0.05191c-1,0 -1,-1 -1,-1c0.00675,-2.20654 0.49208,-4.40541 1.02418,-6.5391l0.28135,-1.37695c0.0855,-0.46548 0.49331,-0.81819 0.98351,-0.81819c0.44984,0 0.83031,0.29702 0.95598,0.70565l0.30181,0.90543c0.5917,-1.97492 1.22896,-3.9306 1.92735,-5.85117l1.60258,0.70832l0.27701,-0.02483c-0.01538,0.04228 -0.03072,0.08459 -0.04604,0.12691l0.10625,0.04696c0,0 0,0.49495 -0.34821,0.78843c0.19223,0.16536 0.3209,0.40255 0.34435,0.66992l0.19791,1.97907l-0.20128,0.02013c0.02743,0.12714 0.05229,0.25413 0.07476,0.38201zM173.22152,174.6176c0.07176,-0.27202 0.14412,-0.54392 0.21712,-0.81567c-0.02817,-0.01364 -0.05561,-0.02856 -0.08224,-0.04469c-0.05045,0.28621 -0.09585,0.5731 -0.13489,0.86036z" fill="#bd00f2" stroke="none" stroke-width="0.5" stroke-linecap="butt"></path></g></g></svg>