<svg version="1.1" xmlns="http://www.w3.org/2000/svg" xmlns:xlink="http://www.w3.org/1999/xlink" width="226.2035" height="148.00104" viewBox="0,0,226.2035,148.00104"><defs><linearGradient x1="216.53346" y1="148.66822" x2="263.98495" y2="211.82963" gradientUnits="userSpaceOnUse" id="color-1"><stop offset="0" stop-color="#1fa65f"/><stop offset="1" stop-color="#44923a"/></linearGradient><linearGradient x1="228.16717" y1="160.96694" x2="242.82718" y2="186.93961" gradientUnits="userSpaceOnUse" id="color-2"><stop offset="0" stop-color="#a7a7a7"/><stop offset="1" stop-color="#464646"/></linearGradient><linearGradient x1="240.2788" y1="190.84832" x2="243.06535" y2="206.37975" gradientUnits="userSpaceOnUse" id="color-3"><stop offset="0" stop-color="#00f551"/><stop offset="1" stop-color="#5e6500"/></linearGradient><linearGradient x1="220.37151" y1="156.72661" x2="225.31136" y2="165.59906" gradientUnits="userSpaceOnUse" id="color-4"><stop offset="0" stop-color="#1cff00"/><stop offset="1" stop-color="#57d000"/></linearGradient><linearGradient x1="209.79341" y1="188.3072" x2="264.53464" y2="157.40907" gradientUnits="userSpaceOnUse" id="color-5"><stop offset="0" stop-color="#bababa" stop-opacity="0"/><stop offset="1" stop-color="#bababa"/></linearGradient><linearGradient x1="209.88248" y1="188.09096" x2="264.6237" y2="157.19283" gradientUnits="userSpaceOnUse" id="color-6"><stop offset="0" stop-color="#cfcfcf" stop-opacity="0"/><stop offset="1" stop-color="#cfcfcf"/></linearGradient><linearGradient x1="209.79317" y1="188.22678" x2="264.5344" y2="157.32866" gradientUnits="userSpaceOnUse" id="color-7"><stop offset="0" stop-color="#f5f5f5" stop-opacity="0"/><stop offset="1" stop-color="#f5f5f5"/></linearGradient><linearGradient x1="209.79317" y1="188.22678" x2="264.5344" y2="157.32866" gradientUnits="userSpaceOnUse" id="color-8"><stop offset="0" stop-color="#f5f5f5" stop-opacity="0"/><stop offset="1" stop-color="#f5f5f5"/></linearGradient><linearGradient x1="149.58432" y1="173.58093" x2="176.24257" y2="177.95923" gradientUnits="userSpaceOnUse" id="color-9"><stop offset="0" stop-color="#1fa65f"/><stop offset="1" stop-color="#44923a"/></linearGradient></defs><g transform="translate(-58.08301,-99.2726)"><g stroke-miterlimit="10"><path d="" fill="none" stroke="#000000" stroke-width="1.5" stroke-linecap="round"/><path d="" fill="none" stroke="#000000" stroke-width="1.5" stroke-linecap="round"/><path d="" fill="none" stroke="#000000" stroke-width="1.5" stroke-linecap="round"/><path d="M208.67852,203.97466c-13.10336,-17.44155 -9.58659,-42.20306 7.85496,-55.30642c17.44155,-13.10336 42.20306,-9.58659 55.30642,7.85496c13.10336,17.44155 9.58659,42.20306 -7.85496,55.30642c-17.44155,13.10336 -42.20306,9.58659 -55.30642,-7.85496z" fill="url(#color-1)" stroke="#000000" stroke-width="1.5" stroke-linecap="butt"/><path d="" fill="none" stroke="#000000" stroke-width="1.5" stroke-linecap="round"/><path d="" fill="none" stroke="#000000" stroke-width="1.5" stroke-linecap="round"/><path d="M206.26625,192.23025c0,0 -1.70716,-5.91975 -2.17762,-8.65762c-0.45747,-2.66226 0.75022,-8.12823 0.75022,-8.12823l24.36981,-5.89524l21.19574,-21.13377c0,0 5.20084,-1.06411 7.47608,0.64596c1.22015,0.91705 4.7599,2.91855 6.12665,5.3376c1.18188,2.09186 1.39229,6.32567 1.39229,6.32567l-22.04986,25.92018l-8.19452,-6.22904l1.28362,9.5684z" fill="url(#color-2)" stroke="#000000" stroke-width="1.5" stroke-linecap="round"/><g stroke="#000000" stroke-linecap="butt"><path d="M266.49204,206.2675l-18.31586,2.23982l-9.24917,1.13107l-12.43074,1.52015l-9.24338,1.13037l-9.88855,1.20926l-2.70736,0.3311l-7.41574,-20.45172l5.48884,-0.30517l14.82056,-0.82406l7.78968,-0.43314l13.5627,-0.75413l11.72275,-0.65182l14.62658,-0.81328l18.11245,-1.00711l0.50992,15.55299z" fill="#727272" stroke-width="0.8"/><path d="M263.96359,203.5418l-16.7175,2.07427l-8.44203,1.04745l-11.34595,1.40778l-8.43672,1.04679l-9.02563,1.11989l-2.47107,0.30661l-6.04432,-14.62386l4.99741,-0.35659l13.49375,-0.96286l7.09229,-0.50609l12.34848,-0.88116l10.67323,-0.7616l13.31708,-0.95026l16.49091,-1.17674l-0.06411,11.24781z" fill="url(#color-3)" stroke-width="0.8"/><path d="M266.49202,206.26753l-18.31586,2.23982l2.44962,-18.09813l14.62657,-0.81327z" fill="#727272" stroke-width="0.8"/><path d="M238.92702,209.63843l-12.43074,1.52015l-1.15593,-19.3434l13.5627,-0.75413z" fill="#727272" stroke-width="0.8"/><path d="M219.82499,212.02793l-9.88855,1.20926l-4.63426,-20.42583l14.82057,-0.82406z" fill="#727272" stroke-width="0.5"/></g><path d="M224.91389,142.02131c0,0 -2.02764,4.88458 -0.11465,4.90661c5.53585,0.06371 18.07521,-1.18099 15.5299,1.52548c-4.10099,4.36065 -15.65151,17.49853 -15.65151,17.49853c0,0 -19.1716,4.95349 -23.53288,2.40175c-2.78989,-1.63237 4.96755,-8.19523 6.82438,-12.29112c0.8757,-1.93167 -3.68804,-3.38385 -3.68804,-3.38385" fill="none" stroke="url(#color-4)" stroke-width="6" stroke-linecap="round"/><path d="M216.39331,182.65264l-2.91848,-5.17058l2.32061,0.17625l2.28235,4.04357z" fill="#1cff00" stroke="#1cff00" stroke-width="1" stroke-linecap="butt"/><path d="M219.49306,181.22467l-2.0204,-3.5795l2.39545,0.30884l1.30944,2.31988z" fill="#1cff00" stroke="#1cff00" stroke-width="1" stroke-linecap="butt"/><path d="M219.27448,187.70148l-2.02039,-3.57949l1.68447,-0.95078l2.02039,3.57949z" fill="#1cff00" stroke="#1cff00" stroke-width="1" stroke-linecap="butt"/><path d="M222.26195,186.07462l-2.02039,-3.57949l1.68447,-0.95078l2.02039,3.57949z" fill="#1cff00" stroke="#1cff00" stroke-width="1" stroke-linecap="butt"/><path d="M229.63858,170.35009l21.12975,-20.7978c0,0 4.74627,-0.9711 6.82266,0.5895c1.11349,0.83689 4.34387,2.66344 5.59116,4.87108c1.07858,1.90905 1.27059,5.77279 1.27059,5.77279l-21.09282,24.83076l-8.85729,-6.79163z" fill="url(#color-5)" stroke="none" stroke-width="0" stroke-linecap="round"/><path d="M229.72764,170.13386l21.12974,-20.79781c0,0 4.74628,-0.97111 6.82267,0.5895c1.11349,0.83689 4.34387,2.66344 5.59116,4.87108c1.07858,1.90905 1.27059,5.77279 1.27059,5.77279l-21.09282,24.83076l-8.90996,-6.12539l1.05755,9.57599l-29.93808,-12.57229z" fill="url(#color-6)" stroke="none" stroke-width="0" stroke-linecap="round"/><path d="M229.63832,170.26963l21.12975,-20.7978c0,0 4.74628,-0.97111 6.82267,0.5895c1.11349,0.83689 4.34387,2.66344 5.59116,4.87108c1.07858,1.90905 1.27059,5.7728 1.27059,5.7728l-21.09283,24.83077l-8.90996,-6.12539l1.05755,9.57599l-28.02211,2.29331c0,0 -2.35924,-5.58675 -2.69793,-8.2146c-0.29346,-2.27685 0.78196,-6.65099 0.78196,-6.65099z" fill="url(#color-7)" stroke="none" stroke-width="0" stroke-linecap="round"/><path d="M229.63832,170.26963l21.12975,-20.7978c0,0 4.74628,-0.97111 6.82267,0.5895c1.11349,0.83689 4.34387,2.66344 5.59116,4.87108c1.07858,1.90905 1.27059,5.7728 1.27059,5.7728l-21.09283,24.83077l-8.90996,-6.12539l1.05755,9.57599l-28.02211,2.29331c0,0 -2.35924,-5.58675 -2.69793,-8.2146c-0.29346,-2.27685 0.78196,-6.65099 0.78196,-6.65099z" fill="url(#color-8)" stroke="none" stroke-width="0" stroke-linecap="round"/><path d="" fill="none" stroke="#000000" stroke-width="1.5" stroke-linecap="round"/><path d="" fill="none" stroke="#000000" stroke-width="1.5" stroke-linecap="round"/><path d="" fill="none" stroke="#000000" stroke-width="1.5" stroke-linecap="round"/><g stroke-linecap="round"><path d="M146.15413,170.66845l-0.16461,-12.26289l2.36435,8.14164l4.5554,-22.79015l0.08665,19.53669l4.19045,-8.63428l-3.56178,15.17153l18.68667,5.75825l-19.16496,5.71187l1.86836,14.63197l-3.48897,-8.18854l-2.13074,18.67825l-2.11099,-19.62109l-2.77711,7.16122l1.23279,-13.35367l-34.85321,-3.4773l6.8116,-1.24797l-15.02234,-1.77542l15.14987,-1.28328l-6.7,-1.42837z" fill="#ffeaea" stroke="#ff1f1f" stroke-width="9"/><path d="M146.53133,171.24461l-0.16461,-12.26289l2.36433,8.14164l4.55541,-22.79015l0.08665,19.53669l4.19046,-8.63427l-3.56178,15.17153l18.68667,5.75825l-19.16497,5.71186l1.86836,14.63197l-3.48897,-8.18854l-2.13074,18.67825l-2.11099,-19.6211l-2.77711,7.16122l1.23279,-13.35366l-34.85321,-3.4773l6.81159,-1.24796l-15.02234,-1.77542l15.14987,-1.28328l-6.7,-1.42837z" fill="#ffeaea" stroke="#ff6c6c" stroke-width="6.5"/><path d="M146.90855,171.82075l-0.1646,-12.26288l2.36434,8.14164l4.55541,-22.79015l0.08665,19.53669l4.19044,-8.63428l-3.56178,15.17153l18.68669,5.75822l-19.16497,5.71186l1.86839,14.63197l-3.489,-8.18853l-2.13074,18.67825l-2.11099,-19.62109l-2.7771,7.16122l1.23277,-13.35368l-34.85321,-3.4773l6.8116,-1.24797l-15.02234,-1.77542l15.14987,-1.28327l-6.7,-1.42837z" fill="#ffeaea" stroke="#ff8484" stroke-width="5"/><path d="M148.72671,171.3462l-0.16461,-12.26289l2.36434,8.14164l4.55544,-22.79015l0.08662,19.53668l4.19045,-8.63428l-3.56175,15.17157l18.68669,5.75822l-19.16497,5.71186l1.86836,14.63197l-3.48899,-8.18852l-2.13074,18.67825l-2.11099,-19.6211l-2.7771,7.16122l1.23279,-13.35366l-34.85321,-3.47731l6.8116,-1.24797l-15.02234,-1.77542l15.14987,-1.28328l-6.7,-1.42837z" fill="#ffeaea" stroke="#ffa4a4" stroke-width="3.5"/><path d="M149.36724,170.82255l-0.16461,-12.26289l2.36435,8.14164l4.55544,-22.79015l0.08662,19.53671l4.19045,-8.63428l-3.56176,15.17156l18.68669,5.75822l-19.16497,5.71186l1.86838,14.63197l-3.48896,-8.18854l-2.13074,18.67825l-2.11099,-19.62109l-2.77711,7.16122l1.23279,-13.35367l-34.85322,-3.47731l6.8116,-1.24797l-15.02234,-1.77542l15.14987,-1.28327l-6.7,-1.42837z" fill="#ffeaea" stroke="#ffcdcd" stroke-width="2"/><path d="M149.98691,170.79929l-0.16461,-12.26289l2.36435,8.14164l4.55541,-22.79015l0.08662,19.53671l4.19047,-8.63428l-3.56177,15.17156l18.6867,5.75822l-19.16497,5.7119l1.86836,14.63197l-3.48897,-8.18853l-2.13074,18.67825l-2.11099,-19.62109l-2.77712,7.16123l1.23278,-13.35364l-34.85322,-3.47731l6.81161,-1.24798l-15.02233,-1.77543l15.14987,-1.28327l-6.7,-1.4284z" fill="#ffffff" stroke="#ffffff" stroke-width="0.5"/></g><path d="M160.72431,189.09921c-7.36147,-1.20904 -12.349,-8.15679 -11.13998,-15.51825c1.20904,-7.36147 8.15679,-12.349 15.51825,-11.13998c7.36147,1.20904 12.349,8.15679 11.13998,15.51825c-1.20904,7.36147 -8.15679,12.349 -15.51825,11.13998z" fill="url(#color-9)" stroke="#000000" stroke-width="1.5" stroke-linecap="butt"/></g></g></svg>