<svg version="1.1" xmlns="http://www.w3.org/2000/svg" xmlns:xlink="http://www.w3.org/1999/xlink" width="156.53232" height="81.8447" viewBox="0,0,156.53232,81.8447"><defs><linearGradient x1="143.36465" y1="224.06001" x2="147.95608" y2="185.8442" gradientUnits="userSpaceOnUse" id="color-1"><stop offset="0" stop-color="#906e40"></stop><stop offset="1" stop-color="#bd9055"></stop></linearGradient></defs><g transform="translate(-126.90283,-144.19909)"><g data-paper-data="{&quot;isPaintingLayer&quot;:true}" fill-rule="nonzero" stroke-linejoin="miter" stroke-miterlimit="10" stroke-dasharray="" stroke-dashoffset="0" style="mix-blend-mode: normal"><g stroke="none" stroke-width="0" stroke-linecap="butt"><path d="M193.8929,198.94821l-37.80043,-4.54152l0.79851,-6.64623l37.80043,4.54153z" fill="#b1b1b1"></path><path d="M198.36162,205.59519l-6.43853,-0.77356l2.12105,-17.65404l6.43853,0.77356z" fill="#909090"></path><path d="M159.87638,226.04379l-32.97355,-4.38297l11.94368,-36.27901l18.97507,1.64768z" fill="url(#color-1)"></path><path d="M148.35486,214.96771l-5.81544,-0.6987l3.09422,-25.75415l5.81544,0.6987z" fill="#a9a9a9"></path></g><path d="" data-paper-data="{&quot;index&quot;:null}" fill="none" stroke="#000000" stroke-width="1.5" stroke-linecap="round"></path><path d="" data-paper-data="{&quot;index&quot;:null}" fill="none" stroke="#000000" stroke-width="1.5" stroke-linecap="round"></path><path d="" data-paper-data="{&quot;index&quot;:null}" fill="none" stroke="#000000" stroke-width="1.5" stroke-linecap="round"></path><path d="M276.54903,145.95678" data-paper-data="{&quot;index&quot;:null}" fill="none" stroke="#d8d8d8" stroke-width="4" stroke-linecap="round"></path><g stroke="#000000" stroke-width="1.5"><path d="M282.68515,184.94965c-0.2764,21.8135 -18.18381,39.27276 -39.99732,38.99634c-21.8135,-0.2764 -39.27276,-18.18381 -38.99634,-39.99732c0.2764,-21.8135 18.18381,-39.27276 39.99732,-38.99634c21.8135,0.2764 39.27276,18.18381 38.99634,39.99732z" fill="#d8d8d8" stroke-linecap="butt"></path><path d="M227.61821,206.74537l6.28331,-17.07519" fill="none" stroke-linecap="round"></path><path d="M242.42718,193.7531l-7.11448,0.11905" fill="none" stroke-linecap="round"></path><path d="M233.8262,185.2759l-5.09146,-10.94317" fill="none" stroke-linecap="round"></path><path d="M235.2387,183.20177l6.69084,0.29398" fill="none" stroke-linecap="round"></path><path d="M259.61442,195.10902c0,0 -11.55016,-2.37293 -11.46501,-5.16109c0.10181,-3.33403 12.94607,-6.48776 12.94607,-6.48776" fill="none" stroke-linecap="round"></path></g></g></g></svg>