<svg version="1.1" xmlns="http://www.w3.org/2000/svg" xmlns:xlink="http://www.w3.org/1999/xlink" width="105.20821" height="94.47815" viewBox="0,0,105.20821,94.47815"><g transform="translate(-422.8802,-125.77185)"><g stroke-miterlimit="10"><path d="M444.82949,180c0,-21.81525 17.68475,-39.5 39.5,-39.5c21.81525,0 39.5,17.68475 39.5,39.5c0,21.81525 -17.68475,39.5 -39.5,39.5c-21.81525,0 -39.5,-17.68475 -39.5,-39.5z" fill="#d8d8d8" stroke="#000000" stroke-width="1.5" stroke-linecap="butt"/><g><path d="M521.4174,166.85681l6.04229,1.93604l-3.07489,9.59658l-6.04229,-1.93604z" fill="#989898" stroke="#000000" stroke-width="1" stroke-linecap="butt"/><path d="M507.57415,190.17381c3.03427,0.97223 4.7059,4.22015 3.73367,7.25442c-0.97223,3.03427 -4.22015,4.7059 -7.25442,3.73367c-3.03427,-0.97223 -4.7059,-4.22015 -3.73367,-7.25442c0.97223,-3.03427 4.22015,-4.7059 7.25442,-3.73367z" fill="none" stroke="#000000" stroke-width="0.5" stroke-linecap="butt"/><path d="M507.46561,196.0017l7.60904,-23.74748l11.10198,3.16532l-10.44867,32.60982l-3.616,8.05148l-4.61,-10.68721l-17.29473,-5.54149l3.06646,-9.57027l7.798,2.49859z" fill="#989898" stroke="#000000" stroke-width="1" stroke-linecap="round"/><path d="M517.01765,187.53185l5.31682,1.70359l-2.15788,6.73464l-5.31682,-1.70359z" fill="#00f6ff" stroke="none" stroke-width="0" stroke-linecap="butt"/><path d="M520.33315,179.01903l5.31682,1.70359l-2.15788,6.73464l-5.31682,-1.70359z" fill="#00f6ff" stroke="none" stroke-width="0" stroke-linecap="butt"/></g><path d="M480.93745,163.31407h-12.87638" fill="none" stroke="#000000" stroke-width="1.5" stroke-linecap="round"/><path d="M470.67367,164.43375v10.07717" fill="none" stroke="#000000" stroke-width="1.5" stroke-linecap="round"/><path d="M485.04296,163.50068h13.24961" fill="none" stroke="#000000" stroke-width="1.5" stroke-linecap="round"/><path d="M485.80407,174.88415l0.15196,-10.63701" fill="none" stroke="#000000" stroke-width="1.5" stroke-linecap="round"/><g stroke="#000000" stroke-linecap="butt"><path d="M450.35771,161.68652l-9.23094,-12.20459l5.35811,-4.05261l9.23095,12.20461z" fill="#989898" stroke-width="1"/><path d="M440.17999,151.94548c-4.06055,0.86638 -3.90704,-2.25062 -3.00052,-3.96707c0.90654,-1.71646 8.48515,-6.41773 8.48515,-6.41773l3.00052,3.9671c0,0 -4.42462,5.55137 -8.48515,6.41772z" fill="#d3d3d3" stroke-width="0.5"/><path d="M439.77589,147.69588l-16.32298,-21.58127l7.43203,1.16423c0,0 -0.57101,3.26665 0.54171,4.73784c0.77564,1.02552 1.87733,-0.75943 3.75812,1.12099c3.6965,3.6958 8.75858,11.40619 8.75858,11.40619z" fill="#00e6ff" stroke-width="0.5"/></g><path d="M468.99414,188.04206c0,-2.11282 3.42555,-3.82559 7.65118,-3.82559c4.22563,0 7.65118,1.71278 7.65118,3.82559c0,2.11282 -15.30236,2.11282 -15.30236,0z" fill="#000000" stroke="#000000" stroke-width="1.5" stroke-linecap="butt"/></g></g></svg>