<svg version="1.1" xmlns="http://www.w3.org/2000/svg" xmlns:xlink="http://www.w3.org/1999/xlink" width="99.01841" height="81.5548" viewBox="0,0,99.01841,81.5548"><g transform="translate(-204.07949,-139.75)"><g data-paper-data="{&quot;isPaintingLayer&quot;:true}" fill-rule="nonzero" stroke-linejoin="miter" stroke-miterlimit="10" stroke-dasharray="" stroke-dashoffset="0" style="mix-blend-mode: normal"><path d="M204.82949,180c0,-21.81525 17.68475,-39.5 39.5,-39.5c21.81525,0 39.5,17.68475 39.5,39.5c0,21.81525 -17.68475,39.5 -39.5,39.5c-21.81525,0 -39.5,-17.68475 -39.5,-39.5z" fill="#d8d8d8" stroke="#000000" stroke-width="1.5" stroke-linecap="butt"></path><path d="M228.58224,167.20295l9,1v8" fill="none" stroke="#000000" stroke-width="1.5" stroke-linecap="round"></path><path d="M248.51493,176.68819v-8l9,-1" data-paper-data="{&quot;index&quot;:null}" fill="none" stroke="#000000" stroke-width="1.5" stroke-linecap="round"></path><path d="M256.96879,195.96181l-31.37388,0.40984v-12.29517z" fill="#ffffff" stroke="#000000" stroke-width="1.5" stroke-linecap="round"></path><path d="M231.95448,186.19634l-0.42397,10.17531" fill="none" stroke="#000000" stroke-width="1.5" stroke-linecap="round"></path><path d="M240.43391,195.94768v-5.9356" fill="none" stroke="#000000" stroke-width="1.5" stroke-linecap="round"></path><g stroke="none" stroke-linecap="butt"><path d="M296.354,188.51796l2.03236,2.96514l-27.4276,18.79928l-2.03236,-2.96514z" fill="#606060" stroke-width="0"></path><path d="M272.30234,198.46608l3.89535,5.6832l-3.70643,2.54044l-3.89535,-5.6832z" fill="#606060" stroke-width="0"></path><path d="M299.17476,175.32602c1.24578,1.81757 3.92314,5.72376 3.92314,5.72376l-58.73091,40.25502l-7.16885,-10.45914l42.50575,-29.13405l2.90281,4.22974c0,0 15.90438,-11.58361 16.56806,-10.61533z" fill="#969696" stroke-width="NaN"></path><path d="M227.74239,197.13286l20.01209,15.74445l-4.49933,7.22954c0,0 -6.41587,-6.60526 -10.5464,-7.75519c-4.91618,-1.36866 -17.00623,0.08457 -17.00623,0.08457z" fill="#606060" stroke-width="0"></path><path d="M259.09205,179.19263l9.31496,13.59026l-5.6832,3.89535l-9.31496,-13.59026z" fill="#606060" stroke-width="0"></path><path d="M260.33059,197.9554l5.88313,8.58332l-5.4361,3.72598l-5.88313,-8.58332z" fill="#00fffe" stroke-width="0"></path><path d="M252.50962,203.39108l5.88313,8.58332l-5.4361,3.72598l-5.88313,-8.58332z" fill="#00fffe" stroke-width="0"></path><path d="M267.49919,192.82892l5.88313,8.58332l-5.4361,3.72598l-5.88313,-8.58332z" fill="#00fffe" stroke-width="0"></path></g></g></g></svg>