<svg version="1.1" xmlns="http://www.w3.org/2000/svg" xmlns:xlink="http://www.w3.org/1999/xlink" width="31.5" height="394.84805" viewBox="0,0,31.5,394.84805"><g transform="translate(-42.75,17.22152)"><g data-paper-data="{&quot;isPaintingLayer&quot;:true}" fill-rule="nonzero" stroke-linecap="butt" stroke-linejoin="miter" stroke-miterlimit="10" stroke-dasharray="" stroke-dashoffset="0" style="mix-blend-mode: normal"><path d="M43.5,186.16666c0,-8.28427 6.71573,-15 15,-15c8.28427,0 15,6.71573 15,15c0,8.28427 -6.71573,15 -15,15c-8.28427,0 -15,-6.71573 -15,-15z" fill="#c8c8c8" stroke="#000000" stroke-width="1.5"></path><path d="M45.163,370.6948c0.31087,-3.20223 1.11414,-6.2748 1.67049,-9.53079c0.83924,-4.91159 1.34482,-10.10376 2.74043,-14.89457c0.33369,-1.14548 0.52996,-2.4001 1.24341,-3.35638c0.61658,-0.82645 1.82742,-1.01165 2.55816,-1.73912c1.3433,-1.33727 1.55783,-5.12676 1.95222,-6.79317c1.5538,-7.77211 3.53898,-15.58425 4.68718,-23.42487c0.8391,-5.72993 0.9852,-11.65585 1.47424,-17.42773c0.04543,-0.53615 0.09081,-1.06882 0.13433,-1.59934c-0.74059,0.95484 -1.68497,1.77165 -2.46808,2.69769l-1.15537,-3.45987c0,-6.40694 0,-12.81387 0,-19.22081c-0.27511,1.25313 -0.59723,2.49271 -0.99919,3.7264c-0.00045,0.15391 -0.00072,0.30782 -0.00079,0.46174l-0.17738,0.06931c-0.39885,1.15484 -0.87197,2.30548 -1.44637,3.45824l-1.37625,-3.52867c0.01194,-11.98311 0.99998,-23.953 0.99998,-35.96622c0,-3.29425 -1.22144,-8.5811 0.11487,-11.6554l-1.11487,-3.3446c0,-8.66667 0,-17.33333 0,-26c0,-1.4065 -0.18127,-2.99189 -0.2242,-4.54778c-0.32541,-0.36759 -0.59727,-0.76636 -0.75912,-1.22917c-0.38123,-1.09014 0.33129,-2.28588 0.49693,-3.42882l2.09302,-4.20776c0.73708,2.33288 1.09989,4.60142 1.27318,6.8775l-1.03518,3.99591c-0.62006,-0.70971 -1.44335,-1.3011 -2.06883,-2.00766c-0.03012,-1.09147 0.00784,-2.16842 0.2242,-3.15892c0,-3.35258 0,-6.94072 0,-10.2933c0,-0.4056 0,-0.8112 0,-1.2168c-0.20238,-1.04555 -0.10423,-2.15333 -0.04026,-3.4134c-0.08921,-0.811 -0.27199,-1.6412 0.04026,-2.3698c0.00289,-0.00674 0.00589,-0.01336 0.00901,-0.01986c0.05023,-12.11984 0.27252,-24.27513 -0.32832,-36.37123c-0.11538,-2.32286 -0.64921,-5.4309 -0.86502,-8.4655c-0.83807,3.18527 -1.75087,6.28075 -3.4854,9.34696l-1.33027,-4.49037c0,-5 0,-10 0,-15c0,-13.97084 -0.00445,-27.94165 -0.01702,-41.91248c-0.00269,-2.99218 0.03451,-5.98821 -0.00795,-8.98006c-0.02298,-1.61947 -0.26956,-3.01304 -0.17203,-4.33182c-0.26198,-0.64817 -0.52396,-1.29634 -0.78595,-1.94451l-0.01697,-0.00765c0.00025,-6.0006 0.0113,-12.0012 0.01876,-18.00179c0.01135,-9.13937 2.15445,-17.87024 3.11157,-26.92634c0.52151,-4.9344 0.62293,-9.95401 0.93357,-14.90682c0.18779,-2.99412 0.37557,-5.98823 0.56336,-8.98235c0.12039,-1.91961 -0.05902,-3.5082 0.36627,-4.96729c0.0022,-0.30948 0.00344,-0.61893 0.00367,-0.92836l1.50325,-4.49869c0.43188,1.31028 0.72866,2.61824 0.92388,3.92718l0.57287,0.57412c-0.00083,0.81994 -0.00866,1.64004 -0.02239,2.46023c0.15058,-0.04652 0.32442,-0.07337 0.5251,-0.07337c1.5,0 1.5,1.5 1.5,1.5c-0.00532,17.84968 -1.8984,36.29322 -3.98706,54.01187c-0.46163,3.91614 -1.08476,7.86965 -1.51484,11.82635c-0.0887,1.79778 -0.2167,3.58994 -0.4319,5.35916c-0.04339,0.93504 -0.06702,1.8694 -0.06619,2.80262l-0.1533,0.1533c0.44602,4.92264 0.1345,9.95224 0.13898,14.93152c0.01167,12.97173 0.01432,25.94344 0.01432,38.91518c0,1.66164 0,3.32328 0,4.98493c0.24596,-0.71139 0.47761,-1.38156 0.66891,-1.98968l2.45191,-3.90596c2.59113,6.19239 2.22502,12.70405 2.55618,19.37079c0.64228,12.9304 0.34975,25.92754 0.32466,38.87788c0.64253,5.11549 -0.00166,10.6717 -0.00166,15.66204l-0.12019,0.46396c0.23632,3.1039 0.12019,6.22181 0.12019,9.53604c0,7.66667 0,15.33333 0,23l-0.97417,0.97417c2.17639,5.63525 1.97417,10.83624 1.97417,17.02583c0,5.86746 -0.28238,11.72151 -0.54703,17.57236l0.7302,-1.80184c0.92114,0.94426 2.21992,1.63082 2.76343,2.83279c0.90994,2.01235 0.0534,7.13974 0.0534,9.39668c0,2.92929 0,5.85857 0,8.78786c0.10933,-0.53248 0.20874,-1.0526 0.29079,-1.55618l2.06913,-4.21599c2.41503,7.42498 1.51687,14.89732 0.86521,22.58841c-1.1023,13.00962 -3.40582,25.45174 -5.96641,38.24965c-0.58165,2.4593 -0.82876,6.16336 -2.63421,8.13896c-0.65367,0.71528 -1.82463,0.83582 -2.43414,1.58908c-1.35233,1.67128 -1.50848,6.04495 -1.88722,8.07248c-1.33087,7.12459 -3.21966,14.46718 -3.34328,21.69036l-2.8045,3.11524c-0.38512,-1.15329 -0.77025,-2.30658 -1.15537,-3.45987v-2c0,0 0,-1.26595 1.163,-1.47185z" fill="#383838" stroke="none" stroke-width="0.5"></path></g></g></svg>