<svg version="1.1" xmlns="http://www.w3.org/2000/svg" xmlns:xlink="http://www.w3.org/1999/xlink" width="136.61283" height="80.5" viewBox="0,0,136.61283,80.5"><g transform="translate(-163.63236,-140.44476)"><g data-paper-data="{&quot;isPaintingLayer&quot;:true}" fill-rule="nonzero" stroke-linejoin="miter" stroke-miterlimit="10" stroke-dasharray="" stroke-dashoffset="0" style="mix-blend-mode: normal"><path d="" data-paper-data="{&quot;index&quot;:null}" fill="none" stroke="#000000" stroke-width="1.5" stroke-linecap="round"></path><path d="" data-paper-data="{&quot;index&quot;:null}" fill="none" stroke="#000000" stroke-width="1.5" stroke-linecap="round"></path><path d="M220.49519,180.69476c0,-21.81525 17.68475,-39.5 39.5,-39.5c21.81525,0 39.5,17.68475 39.5,39.5c0,21.81525 -17.68475,39.5 -39.5,39.5c-21.81525,0 -39.5,-17.68475 -39.5,-39.5z" fill="#d8d8d8" stroke="#000000" stroke-width="1.5" stroke-linecap="butt"></path><path d="M246.51675,197.3165c5.44898,-2.88817 27.57511,5.13694 27.57511,5.13694" data-paper-data="{&quot;index&quot;:null}" fill="none" stroke="#000000" stroke-width="1.5" stroke-linecap="round"></path><path d="M246.31865,168.12134l6.99536,1.82343v8" fill="none" stroke="#000000" stroke-width="1.5" stroke-linecap="round"></path><path d="M258.87633,178.50558l-0.24149,-8.93527l7.00332,-2.17344" fill="none" stroke="#000000" stroke-width="1.5" stroke-linecap="round"></path><path d="M276.0224,182.12799l-16.42158,6.52033" fill="none" stroke="#000000" stroke-width="1.5" stroke-linecap="round"></path><path d="M262.74024,182.61097l2.89793,5.55436" fill="none" stroke="#000000" stroke-width="1.5" stroke-linecap="round"></path><path d="M271.19252,188.16533l-3.8639,-7.7278" fill="none" stroke="#000000" stroke-width="1.5" stroke-linecap="round"></path><g><path d="M211.30076,162.62442l2.74499,-10.67718l12.80277,-5.86291l-5.54627,14.00984z" data-paper-data="{&quot;index&quot;:null}" fill="#c6c6c6" stroke="#c6c6c6" stroke-width="1.5" stroke-linecap="round"></path><path d="M190.7596,201.08672" fill="none" stroke="#d8d8d8" stroke-width="4" stroke-linecap="round"></path><path d="M163.63236,209.09958l38.91676,-40.83652l2.8163,2.68392l-38.91676,40.83652z" fill="#7f7600" stroke="#000000" stroke-width="0" stroke-linecap="butt"></path><path d="M211.71294,160.45883c2.34261,-0.48391 2.90446,1.87695 2.90446,1.87695l0.34537,3.7381c-1.28624,2.78966 -3.22897,5.12902 -4.30361,7.99677c-0.44542,1.18862 -0.20259,2.85364 -1.22525,3.6056c-1.57339,1.15692 -3.92456,2.3374 -5.67244,1.46622c-1.44351,-0.71948 -0.25311,-3.28117 -0.91758,-4.7508c-0.34996,-0.77399 -1.61762,-0.84786 -1.96438,-1.62328c-0.26011,-0.5816 0.88243,-1.44886 0.40294,-1.86836c-0.74043,-0.64779 -2.57043,0.57144 -2.93134,-0.3438c-2.43219,-6.16757 5.78746,-9.56609 9.64696,-11.76496c0,0 2.17248,-1.23708 3.40953,0.93541c0.14653,0.25734 0.24524,0.50154 0.30537,0.73212z" fill="#ff0000" stroke="none" stroke-width="0.5" stroke-linecap="butt"></path></g></g></g></svg>