<svg version="1.1" xmlns="http://www.w3.org/2000/svg" xmlns:xlink="http://www.w3.org/1999/xlink" width="65.875" height="65.875" viewBox="0,0,65.875,65.875"><g transform="translate(-207.0625,-147.0625)"><g data-paper-data="{&quot;isPaintingLayer&quot;:true}" fill-rule="nonzero" stroke-linejoin="miter" stroke-miterlimit="10" stroke-dasharray="" stroke-dashoffset="0" style="mix-blend-mode: normal"><path d="" data-paper-data="{&quot;index&quot;:null}" fill="#ffffff" stroke="none" stroke-width="0" stroke-linecap="round"></path><path d="" data-paper-data="{&quot;index&quot;:null}" fill="#ffffff" stroke="#ffffff" stroke-width="1.5" stroke-linecap="round"></path><path d="" data-paper-data="{&quot;index&quot;:null}" fill="#ffffff" stroke="#ffffff" stroke-width="1.5" stroke-linecap="round"></path><path d="" data-paper-data="{&quot;index&quot;:null}" fill="#ffffff" stroke="#ffffff" stroke-width="1.5" stroke-linecap="round"></path><path d="" data-paper-data="{&quot;index&quot;:null}" fill="#ffffff" stroke="#ffffff" stroke-width="1.5" stroke-linecap="round"></path><path d="M207.0625,180c0,-18.19088 14.74662,-32.9375 32.9375,-32.9375c18.19088,0 32.9375,14.74662 32.9375,32.9375c0,18.19088 -14.74662,32.9375 -32.9375,32.9375c-18.19088,0 -32.9375,-14.74662 -32.9375,-32.9375z" fill="#000000" stroke="none" stroke-width="0" stroke-linecap="butt"></path><path d="" data-paper-data="{&quot;index&quot;:null}" fill="#ffffff" stroke="#000000" stroke-width="1.5" stroke-linecap="round"></path><path d="" data-paper-data="{&quot;index&quot;:null}" fill="#ffffff" stroke="#000000" stroke-width="1.5" stroke-linecap="round"></path><path d="" data-paper-data="{&quot;index&quot;:null}" fill="#ffffff" stroke="#ffffff" stroke-width="1.5" stroke-linecap="round"></path><path d="M220.12854,179.77425c0,-11.14645 9.03598,-20.18244 20.18244,-20.18244c11.14645,0 20.18244,9.03598 20.18244,20.18244c0,11.14645 -9.03598,20.18244 -20.18244,20.18244c-11.14645,0 -20.18244,-9.03598 -20.18244,-20.18244z" fill="none" stroke="#ffffff" stroke-width="5.5" stroke-linecap="butt"></path><path d="M233.01768,161.01022c-0.25003,-0.14288 -0.25229,-0.35333 -0.21984,-0.4893c-0.17528,-0.26684 0.05442,-0.53175 0.05442,-0.53175c2.52404,-2.90712 6.09549,-4.11571 9.83202,-4.54264c0.91786,-0.10487 1.83979,-0.23823 2.76654,-0.15961c0.29666,0.02517 0.702,-0.10189 0.883,0.13449c0.19746,0.25788 -0.02293,0.64918 -0.0344,0.97377c-0.74514,1.10369 -1.57224,2.03384 -2.1153,3.26825l-0.1106,0.15636c-0.0315,0.09052 -0.08699,0.152 -0.14783,0.19376c-0.08465,0.08091 -0.27856,0.21883 -0.52023,0.08587c-0.57929,-0.01139 -1.18037,-0.0528 -1.74787,0.03819c-1.20227,0.19275 -2.31214,0.81988 -3.54299,0.8898c-0.86542,0.04916 -1.80631,-0.0747 -2.64978,-0.26177c-0.44842,-0.09945 -0.5395,-0.28498 -0.96679,-0.24378c-0.03106,0.003 -0.96252,0.23714 -0.97462,0.24017l0.11731,0.07828c0,0 -0.22656,0.39648 -0.62305,0.16992z" fill="none" stroke="#ffffff" stroke-width="5.5" stroke-linecap="butt"></path><path d="M242.73406,159.93607c-0.16048,-0.23912 -0.06896,-0.42864 0.02054,-0.53603c-0.03842,-0.31694 0.28509,-0.45215 0.28509,-0.45215c3.55312,-1.48238 7.2896,-0.97769 10.82654,0.30058c0.86883,0.314 1.75397,0.6043 2.54921,1.08662c0.25456,0.1544 0.67414,0.22073 0.73122,0.51293c0.06227,0.31877 -0.30908,0.57134 -0.46361,0.85701c-1.15804,0.6575 -2.31237,1.12312 -3.34748,1.98755l-0.16857,0.0909c-0.06845,0.06708 -0.14548,0.0975 -0.21854,0.10787c-0.1118,0.03486 -0.3468,0.07222 -0.50418,-0.1543c-0.51387,-0.26767 -1.03391,-0.57192 -1.58272,-0.74264c-1.16267,-0.36169 -2.43562,-0.29319 -3.56928,-0.77762c-0.79709,-0.34061 -1.58489,-0.86974 -2.25733,-1.4122c-0.3575,-0.28839 -0.35663,-0.49507 -0.7577,-0.64807c-0.02916,-0.01112 -0.96763,-0.21537 -0.97981,-0.21803l0.0703,0.12226c0,0 -0.37917,0.25447 -0.63365,-0.1247z" fill="none" stroke="#ffffff" stroke-width="5.5" stroke-linecap="butt"></path><path d="M253.04468,163.77689c-0.01146,-0.28774 0.16576,-0.40126 0.29825,-0.44586c0.13328,-0.29011 0.47968,-0.23585 0.47968,-0.23585c3.80319,0.59821 6.72182,2.98517 9.0653,5.92661c0.57566,0.72255 1.17764,1.43345 1.60244,2.26084c0.13599,0.26486 0.45866,0.54112 0.35424,0.81994c-0.11391,0.30416 -0.56254,0.32482 -0.84381,0.48723c-1.33087,-0.04644 -2.55807,-0.25439 -3.8926,-0.06016l-0.19121,-0.01085c-0.09345,0.02129 -0.175,0.00686 -0.24267,-0.02257c-0.11349,-0.02886 -0.33325,-0.12012 -0.34868,-0.39551c-0.29755,-0.49716 -0.5812,-1.02872 -0.95929,-1.4616c-0.801,-0.91707 -1.92125,-1.52545 -2.63326,-2.53189c-0.50062,-0.70764 -0.89457,-1.57101 -1.18328,-2.38531c-0.15349,-0.43291 -0.0445,-0.60852 -0.30602,-0.94893c-0.01901,-0.02475 -0.71149,-0.69027 -0.72047,-0.69893l-0.00415,0.14097c0,0 -0.45629,0.01818 -0.47447,-0.43811z" fill="none" stroke="#ffffff" stroke-width="5.5" stroke-linecap="butt"></path><path d="M259.66619,172.18118c0.15991,-0.23949 0.37001,-0.22711 0.5034,-0.18529c0.27838,-0.1563 0.52668,0.09126 0.52668,0.09126c2.72459,2.72007 3.68194,6.3669 3.84804,10.12407c0.0408,0.92293 0.10974,1.8519 -0.03313,2.77094c-0.04573,0.2942 0.05284,0.70739 -0.19556,0.87151c-0.27098,0.17905 -0.64601,-0.06802 -0.96902,-0.10202c-1.04921,-0.82008 -1.9196,-1.70985 -3.11327,-2.33742l-0.14829,-0.12121c-0.08811,-0.03772 -0.14558,-0.09735 -0.18301,-0.16094c-0.07483,-0.09008 -0.19893,-0.2931 -0.04949,-0.52494c0.05164,-0.5771 0.13474,-1.17384 0.08343,-1.7463c-0.10869,-1.21277 -0.65714,-2.36355 -0.6413,-3.59628c0.01113,-0.86674 0.20011,-1.79674 0.44537,-2.62517c0.13039,-0.44042 0.3218,-0.51838 0.31041,-0.9475c-0.00083,-0.03119 -0.16965,-0.97668 -0.17182,-0.98897l-0.08624,0.11159c0,0 -0.37977,-0.25358 -0.12619,-0.63335z" fill="none" stroke="#ffffff" stroke-width="5.5" stroke-linecap="butt"></path><path d="M260.56732,183.34941c0.24526,-0.15092 0.43102,-0.052 0.5348,0.04167c0.31821,-0.02588 0.44055,0.3027 0.44055,0.3027c1.34107,3.60883 0.6894,7.32249 -0.72739,10.80626c-0.34803,0.85577 -0.67301,1.72877 -1.18633,2.50436c-0.16432,0.24828 -0.24715,0.66491 -0.54138,0.71042c-0.32097,0.04965 -0.5587,-0.33137 -0.83806,-0.49706c-0.61131,-1.18307 -1.03104,-2.35487 -1.85397,-3.42327l-0.08418,-0.17203c-0.06433,-0.07104 -0.09168,-0.14921 -0.09916,-0.22263c-0.03042,-0.11308 -0.05848,-0.34937 0.17406,-0.49771c0.28773,-0.50291 0.61225,-1.01055 0.80449,-1.55219c0.40727,-1.1475 0.38903,-2.42216 0.9178,-3.53584c0.37178,-0.78304 0.93158,-1.54935 1.50014,-2.19987c0.30227,-0.34584 0.50875,-0.33682 0.67746,-0.73155c0.01226,-0.02869 0.25336,-0.95838 0.25651,-0.97045l-0.12494,0.06542c0,0 -0.23932,-0.38892 0.1496,-0.62824z" fill="none" stroke="#ffffff" stroke-width="5.5" stroke-linecap="butt"></path><path d="M256.14463,193.29536c0.28783,0.00918 0.38836,0.19407 0.42336,0.32942c0.27982,0.15371 0.20089,0.49534 0.20089,0.49534c-0.86909,3.75058 -3.45896,6.49074 -6.56069,8.61752c-0.76192,0.52243 -1.51411,1.07194 -2.36981,1.43639c-0.27392,0.11667 -0.57258,0.41873 -0.8432,0.2946c-0.29522,-0.13541 -0.28369,-0.58436 -0.42554,-0.87654c0.14164,-1.32412 0.43695,-2.53328 0.33882,-3.8783l0.02452,-0.18994c-0.01455,-0.09473 0.00569,-0.17504 0.0399,-0.24043c0.03692,-0.11113 0.14368,-0.32379 0.41947,-0.31946c0.5172,-0.26118 1.06771,-0.50603 1.52656,-0.85214c0.97209,-0.73325 1.65914,-1.80706 2.71399,-2.44515c0.74168,-0.44865 1.63105,-0.77975 2.46393,-1.00939c0.44279,-0.12209 0.61014,-0.0008 0.96841,-0.23727c0.02604,-0.01719 0.73946,-0.66022 0.74874,-0.66856l-0.14031,-0.01423c0,0 0.01455,-0.45642 0.47097,-0.44187z" fill="none" stroke="#ffffff" stroke-width="5.5" stroke-linecap="butt"></path><path d="M247.18715,198.59192c0.26676,0.10848 0.29689,0.31677 0.28275,0.45585c0.2091,0.24126 0.01653,0.53427 0.01653,0.53427c-2.11649,3.21599 -5.49625,4.88726 -9.14324,5.80564c-0.89586,0.22559 -1.79199,0.47996 -2.72098,0.52486c-0.29738,0.01437 -0.6823,0.19403 -0.89304,-0.01628c-0.22989,-0.22943 -0.0633,-0.64649 -0.09495,-0.96973c0.59229,-1.19271 1.28882,-2.22427 1.66349,-3.51977l0.0889,-0.16963c0.01923,-0.09389 0.06608,-0.16219 0.12084,-0.21164c0.07318,-0.09142 0.2471,-0.25382 0.50426,-0.15406c0.57569,-0.06549 1.17696,-0.10411 1.72739,-0.2695c1.16612,-0.35039 2.18309,-1.11908 3.39381,-1.35151c0.85127,-0.16342 1.80027,-0.16535 2.6611,-0.09173c0.45765,0.03914 0.57251,0.21096 0.99057,0.1135c0.03039,-0.00708 0.9226,-0.36262 0.9342,-0.36722l-0.12665,-0.06204c0,0 0.17201,-0.42301 0.59503,-0.251z" fill="none" stroke="#ffffff" stroke-width="4.5" stroke-linecap="butt"></path><path d="M237.16346,199.84942c0.17425,0.22927 0.09404,0.42384 0.011,0.53631c0.05698,0.31413 -0.25802,0.46813 -0.25802,0.46813c-3.45985,1.68866 -7.21953,1.40447 -10.82548,0.33631c-0.88579,-0.26239 -1.78646,-0.50016 -2.60867,-0.93491c-0.2632,-0.13917 -0.68595,-0.18072 -0.7601,-0.46907c-0.0809,-0.31456 0.27496,-0.58852 0.41244,-0.88278c1.11739,-0.72443 2.24235,-1.2571 3.22487,-2.18088l0.16294,-0.10066c0.06439,-0.07099 0.1395,-0.10588 0.21183,-0.12053c0.10955,-0.04137 0.34195,-0.09248 0.51238,0.1244c0.52871,0.237 1.06574,0.51016 1.62363,0.64833c1.18192,0.29272 2.44864,0.14952 3.60882,0.56648c0.81573,0.29316 1.63327,0.77508 2.33643,1.27707c0.37383,0.26688 0.38511,0.47325 0.79448,0.60242c0.02976,0.00939 0.97862,0.15812 0.99094,0.16007l-0.07737,-0.11792c0,0 0.36356,-0.27632 0.63988,0.08724z" fill="none" stroke="#ffffff" stroke-width="5.5" stroke-linecap="butt"></path><path d="M227.28466,196.6474c-0.01059,0.28778 -0.19598,0.3874 -0.3315,0.42173c-0.15509,0.27906 -0.49633,0.19845 -0.49633,0.19845c-3.74625,-0.88755 -6.47362,-3.49089 -8.58509,-6.60307c-0.51867,-0.76449 -1.06446,-1.51938 -1.4247,-2.37686c-0.11531,-0.27449 -0.4159,-0.57464 -0.29044,-0.84465c0.13686,-0.29455 0.58575,-0.28081 0.87862,-0.42122c1.32341,0.14816 2.5311,0.44943 3.87658,0.35792l0.18982,0.02546c0.0948,-0.01408 0.17501,0.00656 0.24023,0.04108c0.11095,0.03746 0.32308,0.14527 0.31739,0.42104c0.25863,0.51848 0.50076,1.07019 0.84461,1.53073c0.72845,0.97569 1.79886,1.66803 2.43174,2.72601c0.44499,0.74388 0.77171,1.63487 0.99724,2.46888c0.1199,0.44339 -0.00221,0.61014 0.23249,0.96957c0.01706,0.02613 0.65657,0.7427 0.66486,0.75202l0.01493,-0.14024c0,0 0.45634,0.0168 0.43954,0.47314z" fill="none" stroke="#ffffff" stroke-width="5.5" stroke-linecap="butt"></path><path d="M221.06409,187.70298c-0.1391,0.25215 -0.34948,0.25758 -0.48594,0.22718c-0.26417,0.17928 -0.53251,-0.04641 -0.53251,-0.04641c-2.94478,-2.48 -4.207,-6.03285 -4.69013,-9.76253c-0.11868,-0.91618 -0.2659,-1.836 -0.20123,-2.76382c0.0207,-0.29701 -0.11245,-0.70039 0.12119,-0.88493c0.25487,-0.20132 0.64945,0.01316 0.97417,0.01974c1.11478,0.72844 2.05727,1.54145 3.29973,2.06586l0.158,0.10824c0.09098,0.03014 0.15329,0.08469 0.19596,0.1449c0.08218,0.08342 0.223,0.27524 0.09369,0.51887c-0.00267,0.5794 -0.03502,1.18103 0.06449,1.7471c0.21083,1.19924 0.85459,2.29954 0.94302,3.52919c0.06218,0.86458 -0.0475,1.80723 -0.22185,2.65342c-0.09269,0.44987 -0.27683,0.54373 -0.2292,0.97035c0.00346,0.03101 0.2516,0.95885 0.25481,0.9709l0.0765,-0.11848c0,0 0.39985,0.22057 0.17928,0.62042z" fill="none" stroke="#ffffff" stroke-width="5.5" stroke-linecap="butt"></path><path d="M219.31583,176.1768c-0.24163,0.15666 -0.42968,0.06215 -0.53563,-0.02905c-0.31751,0.03338 -0.44757,-0.29224 -0.44757,-0.29224c-1.42575,-3.57622 -0.86178,-7.30421 0.47252,-10.8204c0.32776,-0.86373 0.63208,-1.74415 1.12698,-2.53162c0.15842,-0.25208 0.23141,-0.67055 0.52449,-0.72298c0.31971,-0.0572 0.56636,0.31811 0.84954,0.47717c0.63902,1.16834 1.08625,2.32992 1.93413,3.37863l0.08822,0.16999c0.06599,0.06951 0.09518,0.14701 0.10438,0.22023c0.03308,0.11233 0.0667,0.3479 -0.16229,0.50167c-0.2758,0.50955 -0.58827,1.0247 -0.76769,1.57072c-0.38011,1.15678 -0.33184,2.43065 -0.83422,3.55648c-0.35322,0.79158 -0.8948,1.57088 -1.44787,2.23462c-0.29403,0.35287 -0.50067,0.34872 -0.66003,0.74731c-0.01158,0.02898 -0.23071,0.96409 -0.23357,0.97623l0.12336,-0.06835c0,0 0.24842,0.38317 -0.13475,0.63159z" fill="none" stroke="#ffffff" stroke-width="5.5" stroke-linecap="butt"></path><path d="M224.87364,166.18822c-0.28691,0.02468 -0.40846,-0.14713 -0.45911,-0.27743c-0.29593,-0.11979 -0.25766,-0.46833 -0.25766,-0.46833c0.42267,-3.82668 2.67286,-6.852 5.5034,-9.32828c0.69531,-0.60828 1.37777,-1.24232 2.18475,-1.70473c0.25832,-0.14802 0.51946,-0.48307 0.80278,-0.39157c0.30908,0.09981 0.35035,0.547 0.52552,0.8205c0.01482,1.33159 -0.13647,2.56707 0.11892,3.89125l-0.00205,0.19151c0.02557,0.09237 0.0149,0.1745 -0.01139,0.24345c-0.02361,0.1147 -0.10466,0.33842 -0.37906,0.3665c-0.48295,0.3201 -1.0009,0.6279 -1.41593,1.0255c-0.87926,0.84233 -1.43547,1.98938 -2.4081,2.74691c-0.68386,0.53263 -1.5282,0.96588 -2.32836,1.29173c-0.42539,0.17324 -0.60583,0.07244 -0.93385,0.34934c-0.02385,0.02013 -0.65682,0.74248 -0.66505,0.75185l0.14101,-0.00234c0,0 0.03915,0.45497 -0.41582,0.49412z" fill="none" stroke="#ffffff" stroke-width="5.5" stroke-linecap="butt"></path></g></g></svg>