<svg version="1.1" xmlns="http://www.w3.org/2000/svg" xmlns:xlink="http://www.w3.org/1999/xlink" width="95.96282" height="82.46919" viewBox="0,0,95.96282,82.46919"><g transform="translate(-439.73068,-137.82673)"><g stroke-miterlimit="10"><g><path d="M450.67669,206.12084c-14.42102,-16.18438 -12.99157,-40.99497 3.19285,-55.41599c16.18438,-14.42102 40.99497,-12.99157 55.41599,3.19285c14.42102,16.18438 12.99157,40.99497 -3.19285,55.41599c-16.18438,14.42102 -40.99497,12.99157 -55.41599,-3.19285z" fill="#c6c6c6" stroke="#00144d" stroke-width="2" stroke-linecap="butt"/><path d="M448.16184,202.51388c0,0 -2.61698,-3.96016 -3.46258,-6.17737c-1.00759,-2.64197 -2.18255,-8.62473 -2.18255,-8.62473l26.32834,-21.5132l9.36459,11.46059z" fill="#ffffff" stroke="#001e6f" stroke-width="2" stroke-linecap="butt"/><path d="M471.03335,182.23367l-8.04606,-10.05791l5.7803,-4.73589l8.04606,10.05791z" fill-opacity="0.35294" fill="#0015ff" stroke="none" stroke-width="0" stroke-linecap="butt"/><path d="M465.24614,187.16403l-8.04606,-10.05791l5.78029,-4.73588l8.04606,10.05791z" fill-opacity="0.45098" fill="#0015ff" stroke="none" stroke-width="0" stroke-linecap="butt"/><path d="M459.17651,192.07925l-8.04606,-10.05791l5.7803,-4.73589l8.04606,10.05791z" fill-opacity="0.61961" fill="#0015ff" stroke="none" stroke-width="0" stroke-linecap="butt"/><path d="M498.74939,180.98216l-3.12565,8.96312l-9.2318,2.8856l-3.66536,-18.54432z" fill-opacity="0.31373" fill="#006bff" stroke="#00144d" stroke-width="1.5" stroke-linecap="round"/><path d="M453.09931,197.13568l-8.04606,-10.05791l5.78029,-4.73588l8.04606,10.05791z" fill-opacity="0.70196" fill="#0015ff" stroke="none" stroke-width="0" stroke-linecap="butt"/><path d="M448.35354,201.13041c0,0 -2.52353,-4.31852 -3.35878,-6.55656c-0.79865,-2.13997 -1.54783,-6.59068 -1.54783,-6.59068l1.1682,-0.59239l8.04606,10.05791z" fill-opacity="0.9098" fill="#0015ff" stroke="none" stroke-width="0" stroke-linecap="butt"/><path d="M452.26159,205.30822l34.22113,-12.40953l-4.46732,-19.43698l16.4115,7.95954l11.09887,-26.84952c0,0 3.12332,3.48876 5.49374,8.4728c2.7209,5.72098 4.73056,13.30223 4.60847,17.98978c-0.10646,4.08748 -1.60209,10.8371 -4.36195,15.97344c-2.90688,5.40996 -6.56278,9.68473 -6.56278,9.68473c0,0 -5.49059,4.88726 -12.57922,8.52864c-5.56904,2.86077 -12.9,4.08923 -17.08113,4.07777c-5.03094,-0.0138 -14.20143,-2.26691 -20.16268,-5.78229c-5.29916,-3.12496 -7.71557,-7.55896 -7.71557,-7.55896z" fill-opacity="0.25098" fill="#172aff" stroke="#00144d" stroke-width="1.5" stroke-linecap="round"/><path d="M473.0345,218.65973c0,0 1.75997,-10.94323 6.99043,-11.53514c5.23047,-0.59191 13.86445,9.17507 13.86445,9.17507c0,0 -6.6669,2.83971 -10.25941,3.24627c-3.34085,0.37807 -10.59549,-0.88621 -10.59549,-0.88621z" fill-opacity="0.2" fill="#00ff15" stroke="#00144d" stroke-width="1.5" stroke-linecap="round"/><path d="M519.29186,182.68989c-0.27617,3.60486 -2.87258,10.37024 -2.87258,10.37024c0,0 -10.07326,-8.27458 -9.67118,-13.52308c0.4021,-5.24847 11.27441,-7.40362 11.27441,-7.40362c0,0 1.52617,7.20409 1.26936,10.55643z" fill-opacity="0.2" fill="#00ff15" stroke="#00144d" stroke-width="1.5" stroke-linecap="round"/><path d="M502.86032,169.81847l-47.57116,-19.44588l8.14282,-5.5527l42.4939,17.28582z" fill="#00f2ff" stroke="#00144d" stroke-width="1.5" stroke-linecap="butt"/><path d="M481.08709,164.91962c-4.12156,-4.58769 -3.74369,-11.64793 0.84398,-15.76948c4.58769,-4.12156 11.64793,-3.74369 15.76948,0.84398c4.12156,4.58769 3.74369,11.64793 -0.84398,15.76948c-4.58769,4.12156 -11.64793,3.74369 -15.76948,-0.84398z" fill="#00cdff" stroke="#00144d" stroke-width="1.5" stroke-linecap="butt"/><path d="M465.37485,146.10034l-4.52344,6.60306" fill="none" stroke="#00144d" stroke-width="1.5" stroke-linecap="round"/><path d="M465.34304,154.0453l4.19282,-6.30603" fill="none" stroke="#00144d" stroke-width="1.5" stroke-linecap="round"/><path d="M473.84536,149.54352l-3.81314,6.56238" fill="none" stroke="#00144d" stroke-width="1.5" stroke-linecap="round"/><path d="M478.37764,151.59572l-2.85487,6.29895" fill="none" stroke="#00144d" stroke-width="1.5" stroke-linecap="round"/><path d="M499.72098,167.37248l3.1519,-5.96834" fill="none" stroke="#00144d" stroke-width="1.5" stroke-linecap="round"/></g><g stroke="#00144d"><path d="M500.50063,192.54822c-3.61395,-3.35395 -3.8247,-9.00259 -0.47075,-12.61654c3.35395,-3.61395 9.00259,-3.8247 12.61654,-0.47075c3.61395,3.35395 3.8247,9.00259 0.47075,12.61654c-3.35395,3.61395 -9.00259,3.8247 -12.61654,0.47075z" fill="none" stroke-width="2.5" stroke-linecap="butt"/><path d="M501.51689,185.67966l-2.97923,-2.76489l31.20383,-33.62261l2.97923,2.76489z" fill="#4d5995" stroke-width="1.5" stroke-linecap="butt"/><path d="M500.66486,181.80824l-6.80966,-6.31976l33.96872,-36.60183l6.80966,6.31976z" fill="#6b7ccf" stroke-width="1.5" stroke-linecap="butt"/><path d="M498.6425,204.3298l-8.94669,-22.9986l4.05857,-1.57883l8.94669,22.9986z" fill-opacity="0.25098" fill="#172aff" stroke-width="1.5" stroke-linecap="butt"/><path d="M510.56828,198.56705l-16.52559,-18.96012l3.07092,-2.87941l16.40952,19.22622z" fill-opacity="0.44314" fill="#172aff" stroke-width="1.5" stroke-linecap="butt"/><path d="M513.91302,204.32236l-7.71829,5.11564l-10.53824,-26.41573z" fill-opacity="0.8549" fill="#006ace" stroke-width="1.5" stroke-linecap="round"/><path d="M506.95334,183.00137l-16.07764,1.30864l13.41682,7.21338c0,0 -11.19833,4.75759 -15.69374,0.58556c-4.49539,-4.17202 -4.75759,-11.19833 -0.58556,-15.69374c4.17202,-4.49539 18.94011,6.58618 18.94011,6.58618z" fill="#6cbbcf" stroke-width="1.5" stroke-linecap="butt"/><path d="M485.52768,186.57413l16.07764,-1.30864l-13.41682,-7.21338c0,0 11.19833,-4.75759 15.69374,-0.58556c4.49539,4.17202 4.75759,11.19833 0.58556,15.69374c-4.17202,4.49539 -18.94011,-6.58618 -18.94011,-6.58618z" fill="#6cbbcf" stroke-width="1.5" stroke-linecap="butt"/><path d="M493.62876,186.48756c-1.29279,-1.19979 -1.3682,-3.22043 -0.16841,-4.51324c1.19979,-1.29279 3.22043,-1.3682 4.51324,-0.16841c1.29279,1.19979 1.3682,3.22043 0.16841,4.51324c-1.19979,1.29279 -3.22043,1.3682 -4.51324,0.16841z" fill="#6b73cf" stroke-width="1.5" stroke-linecap="butt"/></g></g></g></svg>