<svg version="1.1" xmlns="http://www.w3.org/2000/svg" xmlns:xlink="http://www.w3.org/1999/xlink" width="112.05424" height="80.51929" viewBox="0,0,112.05424,80.51929"><g transform="translate(-168.20544,-139.74042)"><g data-paper-data="{&quot;isPaintingLayer&quot;:true}" fill-rule="nonzero" stroke-linejoin="miter" stroke-miterlimit="10" stroke-dasharray="" stroke-dashoffset="0" style="mix-blend-mode: normal"><path d="M230.01061,218.21605c-21.10611,-5.51701 -33.74357,-27.0993 -28.22656,-48.20541c5.51701,-21.10611 27.0993,-33.74357 48.20541,-28.22656c21.10611,5.51701 33.74357,27.0993 28.22656,48.20541c-5.51701,21.10611 -27.0993,33.74357 -48.20541,28.22656z" data-paper-data="{&quot;index&quot;:null}" fill="#d8d8d8" stroke="#000000" stroke-width="1.5" stroke-linecap="butt"></path><path d="M270.72588,175.98954l-21.45693,0.56768" data-paper-data="{&quot;index&quot;:null}" fill="none" stroke="#000000" stroke-width="1.5" stroke-linecap="round"></path><path d="M222.81611,163.15738l21.24961,12.03973" data-paper-data="{&quot;index&quot;:null}" fill="none" stroke="#000000" stroke-width="1.5" stroke-linecap="round"></path><path d="M240.92072,178.69849c0.20951,-0.8015 1.02908,-1.2814 1.83058,-1.0719c0.8015,0.20951 1.2814,1.02908 1.0719,1.83058c-0.20951,0.8015 -1.02908,1.2814 -1.83058,1.0719c-0.8015,-0.20951 -1.2814,-1.02908 -1.0719,-1.83058z" fill="#000000" stroke="none" stroke-width="0.5" stroke-linecap="butt"></path><path d="M257.47316,182.71637c0.20951,-0.8015 1.02909,-1.2814 1.83058,-1.0719c0.80149,0.20951 1.2814,1.02908 1.0719,1.83058c-0.20951,0.8015 -1.02909,1.2814 -1.83058,1.0719c-0.80149,-0.20951 -1.2814,-1.02908 -1.0719,-1.83058z" fill="#000000" stroke="none" stroke-width="0.5" stroke-linecap="butt"></path><path d="M241.39414,199.35872c0,0 3.44881,-5.89253 5.13117,-5.45277c1.30314,0.34063 2.38461,7.41736 2.38461,7.41736" fill="none" stroke="#000000" stroke-width="1.5" stroke-linecap="round"></path><path d="M177.13225,199.27494c-4.654,0 -8.42681,-7.45551 -8.42681,-16.65241c0,-9.19687 3.7728,-16.65241 8.42681,-16.65241c4.654,0 8.42681,7.45551 8.42681,16.65241c0,9.19687 -3.7728,16.65241 -8.42681,16.65241z" data-paper-data="{&quot;index&quot;:null}" fill="#d8d8d8" stroke="#000000" stroke-width="1" stroke-linecap="butt"></path></g></g></svg>