<svg version="1.1" xmlns="http://www.w3.org/2000/svg" xmlns:xlink="http://www.w3.org/1999/xlink" width="78.4921" height="80.65999" viewBox="0,0,78.4921,80.65999"><g transform="translate(-442.51389,-137.4654)"><g data-paper-data="{&quot;isPaintingLayer&quot;:true}" fill-rule="nonzero" stroke-linejoin="miter" stroke-miterlimit="10" stroke-dasharray="" stroke-dashoffset="0" style="mix-blend-mode: normal"><path d="" data-paper-data="{&quot;index&quot;:null}" fill="none" stroke="#000000" stroke-width="1.5" stroke-linecap="round"/><path d="M455.36418,165.74451c7.56795,-13.61506 24.74018,-18.51717 38.35522,-10.94923c13.61506,7.56795 18.51717,24.74018 10.94923,38.35522c-7.56795,13.61506 -24.74018,18.51717 -38.35522,10.94923c-13.61506,-7.56795 -18.51717,-24.74018 -10.94923,-38.35522z" fill="#000000" stroke="none" stroke-width="NaN" stroke-linecap="butt"/><path d="M481.62981,164.95817l14.67195,-19.49913l5.22943,2.9068l-8.39662,22.98728z" fill="#000000" stroke="none" stroke-width="0" stroke-linecap="butt"/><path d="M495.20102,167.75281l24.16262,-3.41334l1.64235,5.75319l-22.1918,10.31715z" fill="#000000" stroke="none" stroke-width="0" stroke-linecap="butt"/><path d="M497.51343,181.518l19.49913,14.67195l-2.9068,5.22943l-22.9873,-8.39662z" fill="#000000" stroke="none" stroke-width="0" stroke-linecap="butt"/><path d="M490.7228,192.32041l3.41334,24.16262l-5.75319,1.64236l-10.31716,-22.1918z" fill="#000000" stroke="none" stroke-width="0" stroke-linecap="butt"/><path d="M480.39908,195.72437l-14.67195,19.49914l-5.22943,-2.9068l8.39662,-22.9873z" fill="#000000" stroke="none" stroke-width="0" stroke-linecap="butt"/><path d="M468.31886,192.60437l-24.16262,3.41334l-1.64235,-5.75319l22.19179,-10.31717z" fill="#000000" stroke="none" stroke-width="0" stroke-linecap="butt"/><path d="M464.17341,178.58282l-19.49914,-14.67195l2.9068,-5.22943l22.98729,8.39661z" fill="#000000" stroke="none" stroke-width="0" stroke-linecap="butt"/><path d="M469.85258,163.27037l-3.41334,-24.16262l5.7532,-1.64235l10.31716,22.19179z" fill="#000000" stroke="none" stroke-width="0" stroke-linecap="butt"/></g></g></svg>