<svg version="1.1" xmlns="http://www.w3.org/2000/svg" xmlns:xlink="http://www.w3.org/1999/xlink" width="180.13871" height="105.66055" viewBox="0,0,180.13871,105.66055"><g transform="translate(-99.0998,-138.16295)"><g data-paper-data="{&quot;isPaintingLayer&quot;:true}" fill-rule="nonzero" stroke-linecap="butt" stroke-linejoin="miter" stroke-miterlimit="10" stroke-dasharray="" stroke-dashoffset="0" style="mix-blend-mode: normal"><path d="M238.9885,217.91295c-21.81525,0 -39.5,-17.68475 -39.5,-39.5c0,-21.81525 17.68475,-39.5 39.5,-39.5c21.81525,0 39.5,17.68475 39.5,39.5c0,21.81525 -17.68475,39.5 -39.5,39.5z" data-paper-data="{&quot;index&quot;:null}" fill="#000000" stroke="#000000" stroke-width="1.5"></path><g data-paper-data="{&quot;index&quot;:null}" stroke="none" stroke-width="0"><path d="M258.71106,168.50345c7.45315,0 13.49512,5.141 13.49512,5.141c0,0 -6.04197,5.141 -13.49512,5.141c-7.45315,0 -13.49512,-5.141 -13.49512,-5.141c0,0 6.04197,-5.141 13.49512,-5.141z" fill="#ffffff"></path><path d="M259.35368,178.78545c-2.8393,0 -5.141,-2.30171 -5.141,-5.141c0,-2.8393 2.30171,-5.141 5.141,-5.141c2.8393,0 5.141,2.30171 5.141,5.141c0,2.8393 -2.30171,5.141 -5.141,5.141z" fill="#000000"></path></g><g data-paper-data="{&quot;index&quot;:null}" stroke="none" stroke-width="0"><path d="M229.03426,168.6195c7.45315,0 13.49512,5.141 13.49512,5.141c0,0 -6.04197,5.141 -13.49512,5.141c-7.45315,0 -13.49512,-5.141 -13.49512,-5.141c0,0 6.04197,-5.141 13.49512,-5.141z" fill="#ffffff"></path><path d="M229.67689,178.9015c-2.8393,0 -5.141,-2.30171 -5.141,-5.141c0,-2.83929 2.30171,-5.141 5.141,-5.141c2.8393,0 5.141,2.30171 5.141,5.141c0,2.8393 -2.30171,5.141 -5.141,5.141z" fill="#000000"></path></g><path d="M119.75592,210.63788c0,-5.11073 4.14307,-9.2538 9.2538,-9.2538c5.11073,0 9.2538,4.14307 9.2538,9.2538c0,5.11073 -4.14307,9.2538 -9.2538,9.2538c-5.11073,0 -9.2538,-4.14307 -9.2538,-9.2538z" fill="#000000" stroke="none" stroke-width="0"></path><path d="M119.09286,211.91899c-0.00667,0.23959 -0.01687,0.47934 -0.03031,0.71917l0.50099,-0.02212l0.21982,4.97809c0.00212,0.04217 0.00319,0.08462 0.00319,0.12732c0,1.38071 -1.11929,2.5 -2.5,2.5c-0.4655,0 -0.90129,-0.12723 -1.27448,-0.3488l-0.1007,1.55415c-0.074,1.31428 -1.1632,2.35723 -2.49599,2.35723c-0.90462,0 -1.69703,-0.48048 -2.13593,-1.20015l-1.61806,-2.55974l0.02668,-0.01687l-0.07619,-0.06487c-0.92949,-1.75357 -2.04704,-3.59246 -3.05956,-5.48853c-0.35879,0.19905 -0.77169,0.3124 -1.21108,0.3124c-1.04987,0 -1.94859,-0.64715 -2.31901,-1.56431l-1.41511,-3.28704l0.05541,-0.02386c-0.05753,-0.09469 -0.11295,-0.19093 -0.16607,-0.28883c-0.29479,-0.54324 -0.44231,-1.13544 -0.52163,-1.7503c-1.72127,-4.37569 -2.68833,-9.14177 -0.98089,-13.77531c1.72654,-4.68539 5.64941,-8.78525 8.46195,-12.82684c3.45075,-4.9587 7.06805,-11.52107 12.02262,-15.13766l3.37675,-3.63603c0.45676,-0.49472 1.11083,-0.80454 1.83725,-0.80454c1.38071,0 2.5,1.11929 2.5,2.5c0,0.5394 -0.17083,1.0389 -0.46133,1.44735l-0.11408,0.16506c0.11527,-0.06803 0.23074,-0.13609 0.34639,-0.20419c1.08268,-0.63754 7.59413,-4.23316 8.69465,-4.29513c0.1795,-0.01011 0.35857,-0.01384 0.53725,-0.01189v-0.04652h4.5348c1.38071,0 2.5,1.11929 2.5,2.5c0,0.646 -0.24502,1.23478 -0.6472,1.67846l-2.09501,2.33073l-0.00857,-0.0077l-0.01926,0.03814c-3.15761,3.28779 -6.32764,6.62637 -9.31973,10.08651c1.16075,-0.90225 2.25571,-1.98606 3.65093,-2.41233c0.07876,-0.02406 0.15777,-0.04681 0.23701,-0.06833l-0.01542,-0.03701l3.15592,-1.31447c0.30961,-0.13736 0.65231,-0.21368 1.01284,-0.21368c1.38071,0 2.5,1.11929 2.5,2.5c0,0.67717 -0.26923,1.29145 -0.70649,1.74165l-1.99753,2.06178c-0.93706,1.05671 -1.92212,2.34715 -2.96603,3.67731c0.35127,-0.18824 0.75275,-0.295 1.17916,-0.295c0.1125,0 0.22326,0.00743 0.33182,0.02183c0.10856,-0.0144 0.21932,-0.02183 0.33182,-0.02183c0.62965,0 1.20493,0.23277 1.64448,0.61696l1.22348,0.39408l-0.00908,0.0282l0.08436,-0.00263c4.33821,1.71435 10.10634,5.02811 10.51475,10.35009c0.47228,0.45478 0.76611,1.09358 0.76611,1.80101c0,1.0046 -0.59255,1.87081 -1.44721,2.26818l-0.70577,1.73652c-0.358,0.94263 -1.26972,1.61256 -2.33791,1.61256c-1.29823,0 -2.36533,-0.98955 -2.4882,-2.25553l-0.31198,-2.82633c-0.07579,-0.2909 -0.15247,-0.55538 -0.23205,-0.79696c-1.76038,-0.49411 -3.51599,-1.01082 -5.39337,-1.53069l-2.93747,1.99128l-0.17525,-0.25852c-1.21325,1.10338 -2.47783,2.14564 -3.81091,3.09445l-3.13569,2.39004c-0.42358,0.32979 -0.95612,0.52622 -1.53453,0.52622c-1.38071,0 -2.5,-1.11929 -2.5,-2.5c0,-0.49663 0.14481,-0.95945 0.39452,-1.34851l2.60972,-4.21887l0.01311,0.00811c0.01382,-0.03104 0.02775,-0.06203 0.04179,-0.09298c0.00406,-0.00896 0.00953,-0.01967 0.01636,-0.03208l-1.5136,0.97505c-0.3964,0.26416 -0.87252,0.41813 -1.38461,0.41813c-1.38071,0 -2.5,-1.11929 -2.5,-2.5c0,-0.41766 0.10242,-0.8114 0.28351,-1.15748l1.24176,-2.4998c-0.23789,0.17675 -0.47713,0.35191 -0.71792,0.52525l-2.4951,1.9655c-0.42818,0.34367 -0.97192,0.54927 -1.56368,0.54927c-1.38071,0 -2.5,-1.11929 -2.5,-2.5c0,-0.44599 0.11678,-0.8647 0.32144,-1.22723l2.34951,-4.36033l0.02222,0.01197c0.02234,-0.05557 0.04508,-0.11102 0.06822,-0.16633c0.66635,-1.59247 2.05007,-2.77798 3.07672,-4.16577c3.04414,-4.11495 6.44623,-7.97385 9.94984,-11.72467c-7.34807,4.25286 -15.47934,7.24729 -19.02388,15.83847l-0.96009,2.68441c-0.3298,0.99507 -1.26786,1.71291 -2.37358,1.71291c-0.67779,0 -1.29258,-0.26973 -1.74289,-0.7077c-0.01892,0.02638 -0.03785,0.05276 -0.05678,0.07914c-1.18813,1.65508 -4.10731,5.44411 -4.90896,7.52311c-0.43685,1.13293 -0.6333,2.2804 -0.65325,3.42648c0.54668,0.22018 0.99763,0.62799 1.27309,1.14367l2.41492,4.32136l-0.0125,0.00698c0.01994,0.02704 0.03979,0.05414 0.05955,0.08132c0.38116,0.52415 0.74097,1.09321 1.0842,1.69486l-0.54165,-2.29697c-0.05181,-0.20048 -0.07938,-0.41071 -0.07938,-0.62738c0,-1.38071 1.11929,-2.5 2.5,-2.5c0.97455,0 1.81885,0.55762 2.23126,1.37121l1.01427,1.90573c0.45813,-0.5724 1.1627,-0.93901 1.95289,-0.93901c1.26081,0 2.30364,0.93334 2.47524,2.14678l0.43606,2.74319c0.06582,0.41235 0.11641,0.82635 0.15327,1.2416l0.18274,1.23503c0,0 0.08793,0.59426 -0.11372,1.24328z" fill="#000000" stroke="none" stroke-width="0.5"></path><path d="M177.98673,226.26974c-5.50728,4.22326 -11.19229,8.40743 -17.76181,10.74315c-3.55675,1.26456 -7.474,1.83951 -11.17306,2.53657c-0.63065,0.11884 -1.26071,0.24102 -1.89011,0.3666c-2.77411,1.39858 -5.66478,2.5797 -8.73357,3.48407l-0.21676,-0.04362l0.00907,0.07699l-3.12843,0.36841c-0.10797,0.01424 -0.21811,0.02158 -0.32997,0.02158c-1.38071,0 -2.5,-1.11929 -2.5,-2.5c0,-0.87864 0.45327,-1.65142 1.13875,-2.09725l2.2909,-1.53731l0.03578,0.05332c0.10288,-0.08737 0.20905,-0.17135 0.3189,-0.25157c1.27036,-0.92768 3.01669,-0.89752 4.54509,-1.26957c1.59859,-0.38913 3.2305,-0.70771 4.8745,-1.00558c3.62304,-1.89386 7.03148,-4.21024 10.36936,-6.68863c0.60456,-0.44889 1.1878,-0.91886 1.75947,-1.39941c-3.83682,1.99127 -7.82033,3.56011 -12.28052,3.77812c-1.82644,0.08928 -3.74549,0.5398 -5.48581,-0.02156c-0.11243,-0.03627 -0.22381,-0.07487 -0.33421,-0.11564l-0.01192,0.04091l-4.14956,-1.20905c-1.06764,-0.28473 -1.85408,-1.2584 -1.85408,-2.41576c0,-1.22129 0.87574,-2.23804 2.03351,-2.45655l2.48176,-0.52045c2.79992,-1.00774 5.31445,-2.17912 7.73228,-3.54878c-0.70112,-0.00339 -2.19912,-0.23555 -2.48577,-2.11505c-0.37693,-2.47142 2.0945,-2.84835 2.0945,-2.84835c6.02025,-0.85466 9.27627,-4.81256 13.95669,-8.3513l0.0555,-0.01537l-0.01101,-0.01599l2.07526,-1.42922c0.40787,-0.28915 0.90619,-0.4591 1.44421,-0.4591c1.38071,0 2.5,1.11929 2.5,2.5c0,0.30928 -0.05616,0.60545 -0.15884,0.87885l-1.41867,4.06426l-0.05442,-0.019c-0.06812,0.20071 -0.14563,0.39882 -0.2339,0.59394c-0.78433,1.73382 -2.7858,2.59552 -4.24154,3.82112c-4.03862,3.40016 -8.1929,6.29183 -12.71695,8.63282c0.71826,-0.05103 1.45583,-0.15282 2.2205,-0.35696c4.50663,-1.2031 8.85838,-4.10394 12.84991,-6.40107l0.06427,-0.01517l-0.00747,-0.01467l3.55821,-1.81125c0.35106,-0.18794 0.75222,-0.29452 1.17826,-0.29452c1.38071,0 2.5,1.11929 2.5,2.5c0,0.30823 -0.05578,0.60344 -0.1578,0.87607l-1.52935,4.39821l-0.04273,-0.01486c-0.06455,0.18388 -0.13607,0.36576 -0.21546,0.54539c-0.51094,1.15608 -5.14295,4.91364 -7.27726,6.57729c5.54648,-2.18058 10.44405,-5.84722 15.18062,-9.49383c0.19735,-0.71192 0.72618,-1.54689 2.10696,-1.69931c0.03844,-0.00424 0.07634,-0.00783 0.11373,-0.01077c0.26148,-0.20054 0.52269,-0.40029 0.78373,-0.59898l0.19393,-0.02757l-0.03706,-0.06694l2.17222,-1.20254c0.36788,-0.21297 0.79507,-0.33488 1.25073,-0.33488c1.38071,0 2.5,1.11929 2.5,2.5c0,0.56929 -0.19028,1.09413 -0.51071,1.5144l-1.97549,2.65125l-0.43381,-0.32324c-0.54853,0.89806 -1.20393,1.70699 -2.02065,2.35664z" fill="#000000" stroke="none" stroke-width="0.5"></path><path d="M181.75924,191.51109c-0.35679,-0.50557 -0.58684,-1.09529 -0.78829,-1.70533c0.00714,1.32893 -0.36554,2.69795 -0.4319,4.03464l-0.2546,4.63056c-0.06312,1.32452 -1.15698,2.37901 -2.49712,2.37901c-0.53336,0 -1.02771,-0.16702 -1.4336,-0.45162c-0.41762,0.79784 -1.2534,1.34226 -2.21635,1.34226c-1.17334,0 -2.15788,-0.80832 -2.42716,-1.89848l-0.64947,-2.39698l0.06713,-0.01819c-0.06403,-0.18544 -0.11588,-0.37571 -0.15332,-0.57169c-0.0472,-0.24708 0.1769,-1.40055 0.49256,-2.81563c-0.11863,-0.24747 -0.23198,-0.49836 -0.34143,-0.7518c-0.40187,0.27568 -0.88835,0.43699 -1.41251,0.43699c-0.56227,0 -1.08118,-0.18562 -1.49881,-0.49892c0.15021,1.20659 0.28296,2.41951 0.53495,3.59323l-0.02179,0.11414l0.03784,-0.0047l0.43757,3.52362c0.01575,0.11342 0.02389,0.22928 0.02389,0.34704c0,1.38071 -1.11929,2.5 -2.5,2.5c-0.92932,0 -1.74021,-0.50707 -2.17109,-1.25963l-2.53646,-4.25517l0.02333,-0.01391c-0.03903,-0.05173 -0.07769,-0.10377 -0.11597,-0.15615c-1.00783,-1.37932 -1.2817,-3.16675 -1.91956,-4.75179l-1.61749,-3.56087c-0.15768,-0.32762 -0.24603,-0.6949 -0.24603,-1.08281c0,-1.38071 1.11929,-2.5 2.5,-2.5c0.14019,0 0.27769,0.01154 0.4116,0.03372c-0.05724,-2.12532 -0.06762,-4.03237 -0.01352,-4.26447c0.38867,-1.66729 0.66637,-4.42222 2.37322,-4.55477c1.82375,-0.14164 3.4249,1.08591 4.88865,2.40608c-0.89347,-1.72208 -1.73633,-3.4551 -2.2431,-5.29173c-0.20032,-0.72602 -0.37548,-1.56448 -0.45109,-2.42187c-1.03453,-0.84411 -2.07579,-1.68282 -3.11337,-2.52832l-0.05624,-0.11577l-0.03212,0.03245l-2.08423,-2.06327c-0.45812,-0.45315 -0.74196,-1.08215 -0.74196,-1.77744c0,-1.38071 1.11929,-2.5 2.5,-2.5c0.29864,0 0.58505,0.05236 0.85055,0.14841l2.93102,0.98342l-0.02287,0.06816c0.11532,0.01944 0.23037,0.04125 0.34513,0.06565c0.80147,0.17043 1.87088,1.04297 2.90051,2.06535c0.23879,-0.04578 0.49247,-0.07974 0.76182,-0.1009c2.78704,-0.21893 6.48476,5.5534 7.57057,7.06569c0.82841,1.15379 1.61268,2.34635 2.35961,3.56744c0.88948,1.17272 1.77353,2.34967 2.68349,3.50609c0.23551,-0.0735 0.48598,-0.1131 0.7457,-0.1131c0.87568,0 1.6462,0.45022 2.09272,1.13181l1.85913,2.75196l-0.4419,0.29853c0.74015,0.90662 1.36664,1.88535 1.79964,2.96097l0.28187,2.42797c0,0 0.12022,1.81491 -1.3925,2.45115l0.68485,1.95317c0.10346,0.27431 0.16007,0.5716 0.16007,0.88211c0,1.38071 -1.11929,2.5 -2.5,2.5c-1.07815,0 -1.9969,-0.68249 -2.34778,-1.639l-1.49306,-3.79514c-0.05024,-0.11436 -0.1005,-0.22841 -0.15078,-0.34216zM175.39766,182.02325c0.00179,-0.00165 0.00358,-0.00329 0.00538,-0.00493l-0.01283,-0.01291c0.00248,0.00594 0.00496,0.01189 0.00745,0.01784z" fill="#000000" stroke="none" stroke-width="0.5"></path><path d="M118.95141,228.12413c0.17695,-0.33206 0.37725,-0.58752 0.58985,-0.7819c-0.20047,-0.5064 -0.3832,-1.0184 -0.54994,-1.53169c0,0 -0.74126,-2.38758 1.64631,-3.12884c2.38758,-0.74126 3.12884,1.64631 3.12884,1.64631c0.46903,1.60858 1.09561,3.27332 2.22705,4.50853l1.79209,1.59162c0.52071,0.45815 0.84929,1.1295 0.84929,1.87758c0,1.38071 -1.11929,2.5 -2.5,2.5c-0.5138,0 -0.9914,-0.155 -1.38859,-0.42079l-3.06649,-1.98427l-1.6978,-0.89456c0,0 -2.2063,-1.17569 -1.03061,-3.38199z" fill="#000000" stroke="none" stroke-width="0.5"></path></g></g></svg>