<svg version="1.1" xmlns="http://www.w3.org/2000/svg" xmlns:xlink="http://www.w3.org/1999/xlink" width="65.875" height="65.875" viewBox="0,0,65.875,65.875"><g transform="translate(-207.0625,-147.0625)"><g data-paper-data="{&quot;isPaintingLayer&quot;:true}" fill-rule="nonzero" stroke-linejoin="miter" stroke-miterlimit="10" stroke-dasharray="" stroke-dashoffset="0" style="mix-blend-mode: normal"><path d="M207.0625,180c0,-18.19088 14.74662,-32.9375 32.9375,-32.9375c18.19088,0 32.9375,14.74662 32.9375,32.9375c0,18.19088 -14.74662,32.9375 -32.9375,32.9375c-18.19088,0 -32.9375,-14.74662 -32.9375,-32.9375z" fill="#000000" stroke="none" stroke-width="0" stroke-linecap="butt"></path><path d="M225.95012,193.43575c0,0 -1.21797,-10.07098 -2.12567,-12.41673c-0.36231,-0.93632 -3.40736,-1.8822 -3.40736,-1.8822c0,0 18.40717,-3.60689 22.38073,-2.94343c1.22994,0.20536 0.73989,4.18893 0.81029,4.57538c0.08115,0.44546 -12.34278,3.48724 -12.34278,3.48724l0.48206,8.12369z" fill="#ffffff" stroke="none" stroke-width="0" stroke-linecap="butt"></path><path d="M217.25481,183.51921l-5.29767,0.93488" fill="none" stroke="#ffffff" stroke-width="2.5" stroke-linecap="round"></path><path d="M213.04784,189.44013l5.6093,-0.93488" fill="none" stroke="#ffffff" stroke-width="2.5" stroke-linecap="round"></path><path d="M242.34086,177.13083l8.56977,-9.19302l1.0907,4.98605l9.66047,-1.0907l-5.14186,5.45349l2.33721,5.29767l-17.45116,-2.02558z" fill="none" stroke="#ffffff" stroke-width="2.5" stroke-linecap="round"></path></g></g></svg>