<svg version="1.1" xmlns="http://www.w3.org/2000/svg" xmlns:xlink="http://www.w3.org/1999/xlink" width="80.5" height="82.58729" viewBox="0,0,80.5,82.58729"><g transform="translate(-199.75,-139.49009)"><g data-paper-data="{&quot;isPaintingLayer&quot;:true}" fill-rule="nonzero" stroke-linejoin="miter" stroke-miterlimit="10" stroke-dasharray="" stroke-dashoffset="0" style="mix-blend-mode: normal"><g><path d="M200.5,180c0,-21.81525 17.68475,-39.5 39.5,-39.5c21.81525,0 39.5,17.68475 39.5,39.5c0,21.81525 -17.68475,39.5 -39.5,39.5c-21.81525,0 -39.5,-17.68475 -39.5,-39.5z" fill="#205fa7" stroke="#000000" stroke-width="1.5" stroke-linecap="butt"></path><path d="M267.80711,142.99009l-31.11024,20.74016l-27.99921,-20.22165" fill="none" stroke="#e2ff00" stroke-width="7" stroke-linecap="round"></path><path d="M213.42302,180.00685v-21.02353l21.15664,11.47952l23.22616,-11.47952v21.02353l-23.7633,13.64179z" fill="#edffff" stroke="#e2ff00" stroke-width="0" stroke-linecap="butt"></path><path d="M230.96621,174.0709c0,0 -2.29297,11.0872 -4.2313,11.0872c-0.48691,0 -1.41121,-0.56056 -1.85114,-1.87803c-1.31137,-3.92718 -1.13185,-14.08369 -1.13185,-14.08369z" fill="#ff0000" stroke="none" stroke-width="0" stroke-linecap="butt"></path><path d="M246.06093,169.14488c0,0 0.17952,10.15651 -1.13184,14.08369c-0.43993,1.31747 -1.36423,1.87803 -1.85115,1.87803c-1.93832,0 -4.2313,-11.0872 -4.2313,-11.0872z" data-paper-data="{&quot;index&quot;:null}" fill="#ff0000" stroke="none" stroke-width="0" stroke-linecap="butt"></path></g><path d="" data-paper-data="{&quot;index&quot;:null}" fill="none" stroke="#000000" stroke-width="1.5" stroke-linecap="round"></path><path d="" data-paper-data="{&quot;index&quot;:null}" fill="none" stroke="#000000" stroke-width="1.5" stroke-linecap="round"></path><g stroke-linecap="butt"><g fill="#d3d3d3" stroke="#000000" stroke-width="1"><path d="M243.63224,215.96039l-7.97213,-15.86172l31.59449,-15.87944l7.97213,15.86172z"></path><path d="M231.7447,210.62778l-3.43515,-6.83473l9.027,-4.53698l3.43515,6.83473z"></path><path d="M232.15438,221.40609l-3.04626,-6.06099l13.02467,-6.54621l3.04626,6.06099z"></path></g><path d="M258.33334,208.57158l-8.03694,-15.99068l5.15829,-2.59256l8.03694,15.99068z" fill="#a0a0a0" stroke="none" stroke-width="0"></path><path d="M265.10325,205.00748l-7.77769,-15.47485l4.77141,-2.39811l7.77769,15.47485z" fill="#a0a0a0" stroke="none" stroke-width="0"></path><path d="M250.85317,212.00806l-7.71286,-15.34589l4.77141,-2.39811l7.71286,15.34589z" fill="#a0a0a0" stroke="none" stroke-width="0"></path></g></g></g></svg>