<svg version="1.1" xmlns="http://www.w3.org/2000/svg" xmlns:xlink="http://www.w3.org/1999/xlink" width="195.75218" height="80.5" viewBox="0,0,195.75218,80.5"><g transform="translate(-200.95088,-140.3707)"><g data-paper-data="{&quot;isPaintingLayer&quot;:true}" fill-rule="nonzero" stroke-linejoin="miter" stroke-miterlimit="10" stroke-dasharray="" stroke-dashoffset="0" style="mix-blend-mode: normal"><path d="" data-paper-data="{&quot;index&quot;:null}" fill="none" stroke="#000000" stroke-width="1.5" stroke-linecap="round"></path><path d="M289.92393,195.47554" data-paper-data="{&quot;index&quot;:null}" fill="none" stroke="#d8d8d8" stroke-width="4" stroke-linecap="round"></path><path d="M241.20088,220.1207c-21.81525,0 -39.5,-17.68475 -39.5,-39.5c0,-21.81525 17.68475,-39.5 39.5,-39.5c21.81525,0 39.5,17.68475 39.5,39.5c0,21.81525 -17.68475,39.5 -39.5,39.5z" fill="#d8d8d8" stroke="#000000" stroke-width="1.5" stroke-linecap="butt"></path><path d="M226.36716,169.6083l14.03116,4.59202" fill="none" stroke="#000000" stroke-width="1.5" stroke-linecap="round"></path><path d="M228.19225,178.95914l-0.25511,-5.86758" fill="none" stroke="#000000" stroke-width="1.5" stroke-linecap="round"></path><path d="M243.71478,173.69009l7.65337,-3.82668" fill="none" stroke="#000000" stroke-width="1.5" stroke-linecap="round"></path><path d="M246.28352,178.41109l0.21988,-5.35892" fill="none" stroke="#000000" stroke-width="1.5" stroke-linecap="round"></path><path d="M229.62579,192.95291l25.16666,2.30233l-24.96157,-0.52657" fill="none" stroke="#000000" stroke-width="3" stroke-linecap="round"></path><g stroke="#000000" stroke-linecap="butt"><path d="M293.39554,192.52501l-21.29519,-3.51854c0,0 -2.97274,-2.74145 -2.73318,-3.80779c0.23999,-1.06826 4.17183,-2.59597 4.17183,-2.59597l21.29519,3.51854z" fill="#af5400" stroke-width="1.5"></path><path d="M295.87645,201.30345c0,0 -5.75463,0.77592 -7.71442,-1.6345c-2.29586,-2.82373 -1.01997,-8.23524 -0.31096,-11.81516c1.31415,-6.63585 4.87469,-11.75644 7.95267,-11.43717c1.43016,0.14834 5.61175,2.04767 5.61175,2.04767c0,0 -1.71452,6.99314 -2.41809,10.54569c-1.31415,6.63585 -3.12097,12.29345 -3.12097,12.29345z" fill="#989898" stroke-width="1"></path><path d="M296.01015,201.7396c-3.07797,-0.31927 -4.50786,-5.95753 -3.1937,-12.59338c1.31416,-6.63584 4.87469,-11.75644 7.95265,-11.43717c3.07797,0.31927 4.50786,5.95753 3.19369,12.59335c-1.31416,6.63584 -4.8747,11.75643 -7.95265,11.43717z" fill="#989898" stroke-width="1"></path><path d="M298.12961,186.43135l97.31365,18.60682l-14.66601,3.13505l-84.11858,-16.08385c0,0 -1.3215,-1.95603 -1.07925,-2.88774c0.24796,-0.95375 2.55021,-2.77029 2.55021,-2.77029z" fill="#e6e6e6" stroke-width="0.5"></path></g></g></g></svg>