<svg version="1.1" xmlns="http://www.w3.org/2000/svg" xmlns:xlink="http://www.w3.org/1999/xlink" width="169.1727" height="146.34647" viewBox="0,0,169.1727,146.34647"><g transform="translate(-148.1076,-117.92051)"><g data-paper-data="{&quot;isPaintingLayer&quot;:true}" fill-rule="nonzero" stroke-linejoin="miter" stroke-miterlimit="10" stroke-dasharray="" stroke-dashoffset="0" style="mix-blend-mode: normal"><path d="M292.23613,254.41559c-1.25,0 -1.25,-1.25 -1.25,-1.25l0.03732,-1.25574c1.24235,-4.96358 2.27006,-9.92432 4.53998,-14.54442c0,0 0.55902,-1.11803 1.67705,-0.55902c1.11803,0.55902 0.55902,1.67705 0.55902,1.67705c-2.25495,4.41218 -3.15892,9.26028 -4.35069,14.03273l0.03732,0.6494c0,0 0,1.25 -1.25,1.25z" fill="#c532ed" stroke="none" stroke-width="0.5" stroke-linecap="butt"></path><path d="M307.7948,250.92283c-1.25,0 -1.25,-1.25 -1.25,-1.25l0.06247,-0.56235c-1.07335,-3.27065 -1.73638,-6.71722 -2.96038,-9.92495c0,2.96656 0,5.93312 0,8.89968v0.95257c0,0 0,1.25 -1.25,1.25c-1.25,0 -1.25,-1.25 -1.25,-1.25c0,-4.23365 0,-9.41988 0,-13.65353c0,0 0,-1.25 1.25,-1.25c1.25,0 1.25,1.25 1.25,1.25c0,0.67788 0,1.35576 0,2.03365c0.11819,-0.12943 0.28253,-0.24617 0.50843,-0.33653c1.1606,-0.46424 1.62483,0.69636 1.62483,0.69636c1.35308,3.40499 2.05414,7.06318 3.20217,10.55231l0.06247,1.34279c0,0 0,1.25 -1.25,1.25z" fill="#c532ed" stroke="none" stroke-width="0.5" stroke-linecap="butt"></path><path d="M306.52471,122.36584c1.25,0 1.25,1.25 1.25,1.25v1.2701c-0.01946,2.95589 -0.59085,6.14603 -0.96787,9.09017c-0.12487,0.97509 0.12385,2.11219 -0.44238,2.9158c-0.71632,1.01663 -1.89324,2.4405 -3.08771,2.09425c-0.31186,-0.0904 -0.53502,-0.28675 -0.70152,-0.54852c-0.20011,0.42366 -0.63127,0.71679 -1.13089,0.71679c-0.499,0 -0.92971,-0.2924 -1.13014,-0.7152l-0.62294,-1.24587l0.01653,-0.00827l-0.0388,-0.03868c-1.34912,-3.36682 -2.57072,-6.57296 -3.54883,-9.99308c-0.56783,-1.98553 -1.61727,-3.25805 -1.64125,-5.44261c0,0 0,-1.25 1.25,-1.25c1.25,0 1.25,1.25 1.25,1.25c-0.02934,1.94447 1.01053,2.91128 1.53398,4.71815c0.5954,2.05522 1.27143,4.03042 2.01084,6.01526c0.07648,-0.92506 0.22384,-1.86976 0.30566,-2.83448v-1.23093c0,-0.69036 0.55964,-1.25 1.25,-1.25c0.5623,0 1.03788,0.37128 1.19497,0.88206l0.62593,1.8778l-0.40294,0.13431c0.5399,1.31524 0.80876,2.66378 0.7849,4.13647c0.01258,-0.1545 0.02578,-0.30894 0.04033,-0.46325c0.27176,-2.88163 0.97621,-5.93868 0.95214,-8.81016v-1.2701c0,0 0,-1.25 1.25,-1.25z" fill="#c532ed" stroke="none" stroke-width="0.5" stroke-linecap="butt"></path><path d="M293.60325,196.87896c0,-4.47177 3.62509,-8.09686 8.09686,-8.09686c4.47177,0 8.09686,3.62509 8.09686,8.09686c0,4.47177 -3.62509,8.09686 -8.09686,8.09686c-4.47177,0 -8.09686,-3.62509 -8.09686,-8.09686z" fill="#ffffff" stroke="#000000" stroke-width="1" stroke-linecap="butt"></path><path d="M217.09442,165.86414l9,1v8" fill="none" stroke="#000000" stroke-width="1.5" stroke-linecap="round"></path><path d="M232.53458,174.67753v-8l9,-1" data-paper-data="{&quot;index&quot;:null}" fill="none" stroke="#000000" stroke-width="1.5" stroke-linecap="round"></path><path d="M230.98851,198.04897c0,0 0.3445,-8.61004 5.78628,-9.03188c5.30472,-0.41122 12.46372,8.03188 12.46372,8.03188z" fill="#040404" stroke="#000000" stroke-width="1.5" stroke-linecap="round"></path><path d="M200.73697,171.0911c0,-18.19082 17.29485,-32.9374 38.62913,-32.9374c21.33428,0 38.62913,14.74658 38.62913,32.9374c0,11.22687 -2.48212,24.8741 -12.54127,30.82016c-0.42004,0.24829 -5.31543,2.90997 -5.31543,2.90997l-0.22453,13.91683l-12.57806,0.95271l-0.50527,-15.47565l0.06963,15.5724l-14.72842,0.20478l-0.46155,-15.93384l0.80812,15.80985l-16.17468,-0.08649c0,0 0.11388,-16.75516 -0.28778,-16.80951c-2.62384,-0.355 -2.02116,-0.00099 -3.86634,-0.93632c-11.32682,-5.74167 -11.45268,-18.89377 -11.45268,-30.94489z" fill="#ffffff" stroke="#000000" stroke-width="2" stroke-linecap="butt"></path><path d="M243.83743,171.09869c0,5.92619 -3.30023,10.73031 -7.37126,10.73031c-4.07103,0 -7.37126,-4.80413 -7.37126,-10.73031c0,-5.92619 -0.9919,-11.10354 3.07913,-11.10354c3.22238,0 10.77427,7.53515 10.77427,7.53515c0,0 0.88912,2.33301 0.88912,3.56839z" fill="#ababab" stroke="#000000" stroke-width="1" stroke-linecap="butt"></path><path d="M261.57705,161.07621c4.07103,0 3.07913,5.17736 3.07913,11.10354c0,5.92619 -3.30022,10.73032 -7.37126,10.73032c-4.07103,0 -7.37126,-4.80413 -7.37126,-10.73032c0,-1.23538 0.88912,-3.56839 0.88912,-3.56839c0,0 7.55188,-7.53515 10.77427,-7.53515z" data-paper-data="{&quot;index&quot;:null}" fill="#ababab" stroke="#000000" stroke-width="1" stroke-linecap="butt"></path><path d="" data-paper-data="{&quot;index&quot;:null}" fill="none" stroke="#000000" stroke-width="1.5" stroke-linecap="round"></path><path d="" data-paper-data="{&quot;index&quot;:null}" fill="none" stroke="#000000" stroke-width="1.5" stroke-linecap="round"></path><path d="" data-paper-data="{&quot;index&quot;:null}" fill="none" stroke="#000000" stroke-width="1.5" stroke-linecap="round"></path><path d="" data-paper-data="{&quot;index&quot;:null}" fill="none" stroke="#000000" stroke-width="1.5" stroke-linecap="round"></path><path d="" data-paper-data="{&quot;index&quot;:null}" fill="none" stroke="#000000" stroke-width="1.5" stroke-linecap="round"></path><path d="" data-paper-data="{&quot;index&quot;:null}" fill="none" stroke="#000000" stroke-width="1.5" stroke-linecap="round"></path><path d="" data-paper-data="{&quot;index&quot;:null}" fill="none" stroke="#000000" stroke-width="1.5" stroke-linecap="round"></path><path d="" data-paper-data="{&quot;index&quot;:null}" fill="none" stroke="#000000" stroke-width="1.5" stroke-linecap="round"></path><path d="" data-paper-data="{&quot;index&quot;:null}" fill="none" stroke="#000000" stroke-width="1.5" stroke-linecap="round"></path><path d="" data-paper-data="{&quot;index&quot;:null}" fill="none" stroke="#000000" stroke-width="1.5" stroke-linecap="round"></path><path d="M153.89274,196.24391c0,-4.99786 4.05157,-9.04943 9.04943,-9.04943c4.99786,0 9.04943,4.05157 9.04943,9.04943c0,4.99786 -4.05157,9.04943 -9.04943,9.04943c-4.99786,0 -9.04943,-4.05157 -9.04943,-9.04943z" fill="#ffffff" stroke="#000000" stroke-width="1" stroke-linecap="butt"></path><path d="M161.445,162.55645c-2.42536,-0.60634 -1.81902,-3.0317 -1.81902,-3.0317l0.36182,-1.4257c0.24124,-0.75388 0.48249,-1.50777 0.72373,-2.26165c-0.42912,0.50669 -1.13353,0.92322 -2.26989,0.72269c-0.71201,-0.12565 -1.18176,-0.42087 -1.48983,-0.77708c-0.2884,0.11615 -0.60344,0.18008 -0.93342,0.18008c-1.07319,0 -1.98844,-0.67622 -2.3429,-1.62582c-1.17199,-0.20699 -2.06224,-1.23043 -2.06224,-2.4618v-3.17524h0.02587l-0.02495,-0.0679c0.14829,-2.73345 0.19734,-4.70734 0.65956,-7.51446c0.06669,-0.40501 0.83652,-1.19365 0.42792,-1.15464c-1.09089,0.10416 -2.13286,2.09842 -2.97556,1.39789c-1.30858,-1.08781 -0.97922,-3.26661 -1.28592,-4.94042c-0.43321,-2.36422 -0.31848,-5.69202 -0.31968,-8.04199c0,0 0,-2.5 2.5,-2.5c2.5,0 2.5,2.5 2.5,2.5c-0.00122,2.28055 0.65102,4.59921 0.45842,6.852c0.22214,-0.14019 0.44903,-0.17298 0.67585,-0.02014c0.69182,0.4662 1.23719,0.99065 1.66336,1.56015c0.02975,-0.61763 0.05558,-1.23515 0.07671,-1.85187c-1.06116,-0.28905 -1.84138,-1.25958 -1.84138,-2.41233c0,-0.06863 0.00277,-0.13662 0.00819,-0.20386l0.31569,-4.41959l0.3363,-2.3981c0,0 0.35355,-2.47487 2.82843,-2.12132c2.41603,0.34515 2.13653,2.71194 2.12188,2.82429c0.77181,0.42555 1.29467,1.2471 1.29467,2.19077v2.85772c-0.00331,2.39738 -0.29724,4.78364 -0.51369,7.1732c0.73541,-0.78381 1.99973,-1.13048 2.52168,-2.08143c0.66212,-1.20634 0.30438,-2.76071 0.76866,-4.05612c0.48783,-1.36112 1.36955,-2.54693 2.05433,-3.8204l0.06081,-0.88078c0,0 0.49029,-2.45145 2.94174,-1.96116c2.45145,0.49029 1.96116,2.94174 1.96116,2.94174l-0.57424,2.29446c-0.58532,1.05504 -1.34571,2.03049 -1.75596,3.16512c-0.56289,1.55681 -0.34711,3.37942 -1.13648,4.83455c-0.62423,1.1507 -2.21592,1.52537 -2.9143,2.63263c-1.84021,2.91759 -2.36883,8.03098 -2.92385,11.74383c0.32652,-1.02037 0.65303,-2.04073 0.97955,-3.0611c0,0 0.76194,-2.38106 3.143,-1.61912c2.38106,0.76194 1.61912,3.143 1.61912,3.143c-0.84673,2.64603 -1.69346,5.29206 -2.54019,7.9381l-0.27323,1.1145c0,0 -0.60634,2.42536 -3.0317,1.81902z" fill="#9b00c4" stroke="none" stroke-width="0.5" stroke-linecap="butt"></path><path d="M166.19255,231.72603l0.55869,1.41649c0.2143,1.62918 0.9397,3.27136 0.6429,4.88755c-0.01954,0.10643 -0.04069,0.2124 -0.06334,0.31794l0.04407,0.00551l-0.24051,1.92408c0.17751,-0.08012 0.36606,-0.14012 0.56273,-0.17709c0.38559,-0.8834 1.26686,-1.50083 2.29234,-1.50083c1.38071,0 2.5,1.11929 2.5,2.5v4.76286h-0.01716c0.10147,2.17918 0.42031,4.38988 -0.32686,6.39599c-0.04255,0.11425 -0.08819,0.22688 -0.13665,0.33802l0.05772,0.01732l-0.93643,3.12144c-0.29105,1.05813 -1.2601,1.83543 -2.4107,1.83543c-1.3278,0 -2.41383,-1.03515 -2.49512,-2.34247l-0.24907,-3.48696c-0.23635,0.07408 -0.4878,0.114 -0.74858,0.114c-0.50187,0 -0.9692,-0.14788 -1.36079,-0.40245c-0.14547,2.47937 -0.27651,4.95279 -0.26702,7.42817c0,0 0,2.5 -2.5,2.5c-2.5,0 -2.5,-2.5 -2.5,-2.5c0.0118,-3.59922 0.28453,-7.16771 0.46871,-10.76254c-0.19903,-0.09534 -0.38347,-0.21624 -0.54909,-0.35845v1.27775h-0.05436c0.0145,0.09063 0.02768,0.18156 0.03943,0.27279c0.13696,1.06314 -0.4443,2.0974 -0.68307,3.1424c-0.58589,2.56421 -1.17726,5.13339 -1.55022,7.7371l0.02555,-0.03896c0,0 0,2.5 -2.5,2.5c-2.5,0 -2.5,-2.5 -2.5,-2.5l0.02555,-0.674c0.25576,-1.76586 0.59691,-3.51858 0.97503,-5.26348c-0.60755,-0.45608 -1.00057,-1.18245 -1.00057,-2.00061c0,-0.12574 0.00928,-0.24931 0.0272,-0.37007c-1.26327,-0.12549 -2.24987,-1.19135 -2.24987,-2.48764c0,-0.29691 0.05176,-0.58173 0.14675,-0.84593l0.93412,-2.80235l0.01916,0.00639l-0.00412,-0.05015c0.75088,-1.99396 1.3219,-4.05489 1.83646,-6.12248c0,0 0.48836,-1.95346 2.34167,-1.91579c0.02834,-1.03196 0.37646,-2.09747 0.45485,-3.13468l0.02223,-0.04914l-0.01637,-0.00205l0.61606,-4.92848c0.13791,-1.25027 1.19778,-2.22282 2.48481,-2.22282c1.2483,0 2.28291,0.91489 2.46987,2.11072c0.44303,-0.39915 1.02955,-0.6421 1.67281,-0.6421c1.04961,0 1.94815,0.64683 2.31873,1.56363c1.21499,0.19097 1.82248,1.40596 1.82248,1.40596z" fill="#9b00c4" stroke="none" stroke-width="0.5" stroke-linecap="butt"></path><path d="M309.38242,129.37146c2.5,0 2.5,2.5 2.5,2.5l-0.00635,1.76574c-0.07937,1.03186 -0.23964,2.08994 -0.51664,3.11011c0.69625,0.44381 1.15804,1.22281 1.15804,2.10968v3.81029c0,1.24335 -0.90766,2.27471 -2.09653,2.46761c-0.87079,2.14094 -1.6295,4.34029 -2.91752,6.24514c-0.02216,0.03277 -0.04447,0.06541 -0.06693,0.09793l0.01286,0.00702l-1.88082,3.44818c-0.4167,0.80067 -1.25403,1.34745 -2.21906,1.34745c-0.01849,0 -0.03694,-0.0002 -0.05533,-0.0006c-0.1377,1.25049 -1.19768,2.22327 -2.48486,2.22327c-1.22888,0 -2.25067,-0.88665 -2.46053,-2.05512l-0.62597,-3.12983l0.05107,-0.01021l-0.07374,-0.12125c-0.06156,-0.66986 -0.1213,-1.33989 -0.1807,-2.00995c-0.00209,-0.00548 -0.00415,-0.01097 -0.0062,-0.01647c-0.39401,-0.36897 -0.66848,-0.86404 -0.75903,-1.42085l-0.4797,-2.63836c-3.16271,-2.81635 -3.45919,-9.38043 -4.26019,-13.11834c0,0 -0.52382,-2.44451 1.92068,-2.96833c2.44451,-0.52382 2.96833,1.92068 2.96833,1.92068c0.42747,1.99488 0.64066,3.00543 0.85904,4.01463c0.25817,-0.13277 0.54245,-0.22192 0.84311,-0.25772c0.368,-0.21316 0.79538,-0.33518 1.25125,-0.33518c0.12146,0 0.24089,0.00866 0.35772,0.0254c0,-0.89224 0,-1.65321 0,-1.65321c0,-1.38071 1.11929,-2.5 2.5,-2.5c0.57611,0 1.1067,0.19487 1.52946,0.52229c0.39141,-0.8695 1.26543,-1.47486 2.28083,-1.47486c0.14633,0 0.28972,0.01257 0.42916,0.03669c0.16224,-0.73683 0.69289,-1.94184 2.42855,-1.94184z" fill="#9b00c4" stroke="none" stroke-width="0.5" stroke-linecap="butt"></path><path d="M308.14895,242.61401c0.34228,-0.38507 0.69338,-0.62024 1.03513,-0.75095c-0.03604,-0.35867 -0.04513,-0.72527 -0.02446,-1.11046l-0.35482,0.0887l-0.10432,-0.41729c-1.10407,-0.02032 -2.03324,-0.75636 -2.34303,-1.76369l-0.30571,-0.91712c-0.52057,1.28837 -1.03025,2.52494 -1.19847,2.9351l-0.28585,2.57262c-0.12362,1.2652 -1.19037,2.2539 -2.48804,2.2539c-1.38071,0 -2.5,-1.11929 -2.5,-2.5v-2.90334c-0.75832,-0.42933 -1.2701,-1.24342 -1.2701,-2.17705c0,-0.07634 0.00342,-0.15189 0.01012,-0.22648c-0.19011,0.28128 -0.39739,0.57933 -0.61492,0.88612c-0.52138,1.13426 -1.0185,2.28722 -1.89108,3.1525c-0.04466,0.04429 -0.08965,0.08818 -0.13496,0.13169l0.02497,0.01962l-3.07378,3.91208c-0.45713,0.59296 -1.17452,0.97496 -1.98113,0.97496c-1.38071,0 -2.5,-1.11929 -2.5,-2.5c0,-0.50054 0.1471,-0.96673 0.40043,-1.35768l1.56719,-2.50751l0.04224,0.0264l0.01933,-0.12017c1.03397,-1.36641 1.90925,-2.86815 2.93336,-4.24079c-0.86679,-0.39252 -1.4698,-1.26511 -1.4698,-2.27854c0,-0.48518 0.13821,-0.93808 0.37741,-1.32147l1.884,-3.14l0.02843,0.01706l0.02461,-0.10158c1.8561,-2.60182 3.18837,-4.19743 3.76706,-7.37515c0,0 0.49029,-2.45145 2.94174,-1.96116c0.11923,0.02385 0.23151,0.05233 0.33722,0.08495l0.35131,-0.8043c0.37349,-0.91056 1.26883,-1.55186 2.31394,-1.55186c1.38071,0 2.5,1.11929 2.5,2.5c0,0.32061 -0.06035,0.62712 -0.17031,0.90879l-0.15136,0.41625c1.0666,0.11592 1.93181,0.90272 2.16486,1.92964l0.62236,2.48946l-0.02638,0.0066c0.01933,0.04328 0.03821,0.08682 0.05662,0.13063c0.90079,2.14406 0.89142,4.54971 1.24211,6.86227c0.03732,-0.00165 0.07485,-0.00249 0.11258,-0.00249c1.18975,0 2.18539,0.83109 2.43804,1.9444l1.19999,4.79998l-0.34313,0.08578c0.67356,1.64606 1.34301,3.29908 2.135,5.0673l1.54653,3.09305c0.18291,0.34741 0.28642,0.74312 0.28642,1.16302c0,1.38071 -1.11929,2.5 -2.5,2.5c-0.76522,0 -1.45014,-0.3438 -1.90872,-0.88536l-1.81147,-2.11338l-2.70358,-2.3956c0,0 -1.86852,-1.66091 -0.20761,-3.52943z" fill="#9b00c4" stroke="none" stroke-width="0.5" stroke-linecap="butt"></path><path d="M155.68076,137.90442c0,0.04946 -0.00287,0.09825 -0.00846,0.14622c-0.02919,0.36943 -0.20452,0.86206 -0.88969,1.05358c-0.03021,0.00884 -0.06089,0.01658 -0.09201,0.02316c-0.69841,0.15666 -1.08652,-0.19674 -1.28663,-0.50987c-0.09019,-0.12962 -0.15646,-0.27714 -0.19243,-0.43615l-0.29846,-1.19755c-1.0651,-3.27194 -0.96595,-6.85308 -1.90965,-10.17663c-0.47284,-1.66526 -0.98234,-3.36546 -0.99791,-5.09648c0,0 0,-1.25 1.25,-1.25c1.25,0 1.25,1.25 1.25,1.25c-0.01654,1.50697 0.49768,2.97889 0.90723,4.42924c0.93392,3.30735 0.79475,6.91575 1.90064,10.1449l0.32302,1.28836c0.02891,0.10549 0.04435,0.21655 0.04435,0.33122z" fill="#c532ed" stroke="none" stroke-width="0.5" stroke-linecap="butt"></path><path d="M169.91705,120.48497c1.22573,0.24515 0.98058,1.47087 0.98058,1.47087l-0.33116,1.64797c-1.56201,5.12633 -3.46138,10.57449 -6.92087,14.78021l0.15881,0.07941l-0.62294,1.24587c-0.20043,0.42281 -0.63114,0.7152 -1.13014,0.7152c-0.69036,0 -1.25,-0.55964 -1.25,-1.25c0,-6.1388 0,-13.86521 0,-20.00401c0,0 0,-1.25 1.25,-1.25c1.25,0 1.25,1.25 1.25,1.25c0,5.10783 0,10.21567 0,15.3235c2.07761,-3.76263 3.57598,-7.36896 4.84096,-11.50119l0.30389,-1.52726c0,0 0.24515,-1.22573 1.47087,-0.98058z" fill="#c532ed" stroke="none" stroke-width="0.5" stroke-linecap="butt"></path><path d="M156.58105,264.23456c-1.22573,0.24515 -1.47087,-0.98058 -1.47087,-0.98058l-0.33571,-1.70959c0.00353,-1.6763 0.03775,-3.50086 -1.02618,-4.77108c0,0 -0.75,-1 0.25,-1.75c1,-0.75 1.75,0.25 1.75,0.25c1.32406,1.88975 1.50934,3.72027 1.51401,6.02473l0.29933,1.46565c0,0 0.24515,1.22573 -0.98058,1.47087z" fill="#c532ed" stroke="none" stroke-width="0.5" stroke-linecap="butt"></path><path d="M162.05134,262.03616c-1.25,0 -1.25,-1.25 -1.25,-1.25l0.10107,0.17488c-0.587,-1.37052 -1.20713,-2.72783 -1.87425,-4.06119c0,0 -0.55902,-1.11803 0.55902,-1.67705c1.11803,-0.55902 1.67705,0.55902 1.67705,0.55902c0.68832,1.3775 1.32914,2.77918 1.93604,4.19443l0.10107,0.80992c0,0 0,1.25 -1.25,1.25z" fill="#c532ed" stroke="none" stroke-width="0.5" stroke-linecap="butt"></path><path d="M166.49667,259.49597c-1.25,0 -1.25,-1.25 -1.25,-1.25l0.00937,-1.43489c-0.26462,-1.02812 -0.45235,-2.07538 -0.62741,-3.12247c0,0 -0.2055,-1.23299 1.02749,-1.43849c1.23299,-0.2055 1.43849,1.02749 1.43849,1.02749c0.17979,1.08229 0.38291,2.16209 0.64269,3.22801l0.00937,1.74035c0,0 0,1.25 -1.25,1.25z" fill="#c532ed" stroke="none" stroke-width="0.5" stroke-linecap="butt"></path></g></g></svg>