<svg version="1.1" xmlns="http://www.w3.org/2000/svg" xmlns:xlink="http://www.w3.org/1999/xlink" width="107.5782" height="104.60333" viewBox="0,0,107.5782,104.60333"><g transform="translate(-182.34573,-116.26742)"><g data-paper-data="{&quot;isPaintingLayer&quot;:true}" fill-rule="nonzero" stroke-linejoin="miter" stroke-miterlimit="10" stroke-dasharray="" stroke-dashoffset="0" style="mix-blend-mode: normal"><path d="" data-paper-data="{&quot;index&quot;:null}" fill="none" stroke="#000000" stroke-width="1.5" stroke-linecap="round"></path><path d="" data-paper-data="{&quot;index&quot;:null}" fill="none" stroke="#000000" stroke-width="1.5" stroke-linecap="round"></path><path d="" data-paper-data="{&quot;index&quot;:null}" fill="none" stroke="#000000" stroke-width="1.5" stroke-linecap="round"></path><path d="" data-paper-data="{&quot;index&quot;:null}" fill="none" stroke="#000000" stroke-width="1.5" stroke-linecap="round"></path><path d="" data-paper-data="{&quot;index&quot;:null}" fill="none" stroke="#000000" stroke-width="1.5" stroke-linecap="round"></path><path d="M289.92393,195.4756" data-paper-data="{&quot;index&quot;:null}" fill="none" stroke="#d8d8d8" stroke-width="4" stroke-linecap="round"></path><path d="M241.20089,220.12075c-21.81525,0 -39.5,-17.68475 -39.5,-39.5c0,-21.81525 17.68475,-39.5 39.5,-39.5c21.81525,0 39.5,17.68475 39.5,39.5c0,21.81525 -17.68475,39.5 -39.5,39.5z" fill="#d8d8d8" stroke="#000000" stroke-width="1.5" stroke-linecap="butt"></path><path d="M212.07688,162.69677l17.15344,6.06646" fill="none" stroke="#000000" stroke-width="1.5" stroke-linecap="round"></path><path d="M222.91576,172.63241l0.20919,4.76726" fill="none" stroke="#000000" stroke-width="1.5" stroke-linecap="round"></path><path d="M242.40962,166.67577l-12.04734,0.73331" fill="none" stroke="#000000" stroke-width="1.5" stroke-linecap="round"></path><path d="M235.86714,173.18389l-0.20919,5.28695" fill="none" stroke="#000000" stroke-width="1.5" stroke-linecap="round"></path><path d="M237.39081,185.81595c0,0 -2.44712,6.39517 -6.00657,7.52772c-3.85628,1.227 -16.31203,-0.42635 -16.31203,-0.42635" fill="none" stroke="#000000" stroke-width="1.5" stroke-linecap="round"></path><path d="M244.06392,142.06088c-1.07766,0.30587 -1.57893,-0.4215 -1.76368,-0.80943c-0.32795,-0.02034 -0.65445,-0.02103 -0.97936,-0.00404c-2.13392,0.75734 -4.2925,1.4728 -6.43404,2.21316c-1.26047,0.70669 -2.47367,1.48537 -3.62831,2.18225c-3.42183,2.06524 -6.91113,4.01182 -10.31742,6.104c-1.24706,0.76569 -6.1355,4.23905 -7.51425,4.11804c-1.35147,-0.11862 -3.21171,-0.88779 -3.40423,-2.23073c-0.1397,-0.97447 0.58869,-1.91201 1.65986,-2.75443c-0.21318,-0.00856 -0.39743,-0.04097 -0.54619,-0.10145c-0.38598,-0.15692 -0.70478,-0.32338 -0.96479,-0.49702c-0.77101,0.28221 -1.55072,0.53846 -2.34129,0.76281c-0.08673,0.05186 -0.17341,0.10375 -0.26005,0.15566l0.13808,0.33212l-2.73913,1.1388c-0.18554,0.08217 -0.39086,0.12782 -0.60684,0.12782c-0.46996,0 -0.88944,-0.21613 -1.16448,-0.55441c-0.21255,0.07643 -0.4268,0.14236 -0.64269,0.19973l-2.76048,1.08432c-0.17849,0.07494 -0.37453,0.11635 -0.58024,0.11635c-0.82843,0 -1.5,-0.67157 -1.5,-1.5c0,-0.36103 0.12754,-0.69226 0.34003,-0.95111l1.35855,-1.68303l0.01963,0.01585l0.03042,-0.07469c0.12407,-0.12506 0.24836,-0.25045 0.37289,-0.3761c-0.69186,0.49657 -1.39007,0.98393 -2.09661,1.45917l-0.00049,0.00011l0.0001,0.00015l-1.87426,1.25771c-0.2421,0.16756 -0.5359,0.26572 -0.85262,0.26572c-0.82843,0 -1.5,-0.67157 -1.5,-1.5c0,-0.41128 0.16552,-0.7839 0.43359,-1.05488c-0.72123,-0.10896 -1.27406,-0.73147 -1.27406,-1.4831c0,-0.41258 0.16657,-0.78625 0.43613,-1.05744l2.10093,-2.1147l0.35035,0.34807c3.58755,-4.18997 8.58071,-7.42101 13.61766,-10.27447c-0.12819,0.01704 -0.25642,0.03378 -0.3847,0.05022c-0.64039,0.35999 -1.27701,0.71804 -1.91006,1.07091c-4.56636,2.54542 -9.35333,4.72782 -12.30022,9.21027c0,0 -0.82829,1.25058 -2.07886,0.42229c-1.25058,-0.82829 -0.42229,-2.07886 -0.42229,-2.07886c2.39934,-3.59914 5.73393,-5.87551 9.3229,-7.93739c-0.15943,0.00553 -0.31875,0.01014 -0.47793,0.01377c-0.59687,0.45101 -1.19401,0.9021 -1.90828,1.05767c-0.089,0.01938 -0.17825,0.03633 -0.26771,0.05106l0.00437,0.02343l-2.80714,0.52325c-0.09827,0.02025 -0.20006,0.03089 -0.30432,0.03089c-0.82843,0 -1.5,-0.67157 -1.5,-1.5c0,-0.33288 0.10844,-0.64044 0.29191,-0.88928l0.76364,-1.06268c-0.46251,-0.6509 -0.7532,-1.37249 -0.59669,-2.08746c0.43289,-1.97755 5.66313,-3.54239 7.48495,-4.23165c1.12671,-0.88112 2.28634,-1.7159 3.52011,-2.43193c6.74836,-3.91645 14.4056,-5.85181 22.1684,-6.51083c1.9701,-0.57009 3.96516,-1.01986 5.98183,-1.31794l0.06691,0.0235l-0.0017,-0.02878l1.53638,-0.09077c0.03359,-0.00225 0.06749,-0.00339 0.10165,-0.00339c0.7218,0 1.32452,0.50982 1.46772,1.18901c1.19983,0.03657 2.39458,0.09727 3.58124,0.17945c2.9918,0.2072 5.98147,0.44951 8.97398,0.65258c0.80422,0.05457 1.6783,-0.14314 2.45293,0.01826c0.17752,-0.0098 0.35508,-0.01886 0.5327,-0.02714l0.15466,0.09674l0.0136,-0.07658l1.76064,0.31274c0.71583,0.11361 1.26302,0.7336 1.26302,1.48139c0,0.82843 -0.67157,1.5 -1.5,1.5c-0.03423,0 -0.0682,-0.00115 -0.10186,-0.0034l-1.7728,-0.10497l0.01179,-0.19905l-0.05894,-0.01047c-1.91743,0.10661 -3.83005,0.3023 -5.73906,0.54794c0.09873,0.02182 0.19752,0.04376 0.29635,0.0658c2.52098,0.56224 6.65344,0.92713 8.89804,2.17717c0.04258,0.02371 0.08483,0.0479 0.12678,0.07255l0.00862,-0.01905l2.51674,1.13864c0.53655,0.22852 0.91272,0.76067 0.91272,1.38067c0,0.82843 -0.67157,1.5 -1.5,1.5c-0.03321,0 -0.06616,-0.00108 -0.09883,-0.0032l-2.00536,-0.11512l2.00135,0.20145c0.76582,0.06761 1.36636,0.71074 1.36636,1.49413c0,0.82843 -0.67157,1.5 -1.5,1.5c-0.0525,0 -0.10437,-0.0027 -0.15548,-0.00796l-2.2925,-0.20978l0.00093,-0.01021c-0.01679,0.00169 -0.03359,0.00331 -0.05041,0.00486c-1.96943,0.18086 -4.08754,-0.17646 -6.23779,-0.77945c-1.28231,-0.11029 -2.5669,-0.20873 -3.85036,-0.32076c-0.61429,0.31297 -1.28466,0.58359 -1.81679,0.92563c-0.19601,0.12599 -0.39333,0.25087 -0.59187,0.37465c0,0.00117 0,0.00233 0,0.0035c0,0.28472 -0.07933,0.55091 -0.21709,0.77768c0.50065,0.19969 0.99987,0.38466 1.50432,0.55654c2.27827,0.19829 4.52937,0.48261 6.71316,0.81829l1.37309,0.16261c0.17385,0.01814 0.33887,0.06597 0.4899,0.13834c0.41772,0.07066 0.83244,0.14289 1.24386,0.21644l0.11136,0.08408l0.01603,-0.04345l2.56488,0.94595c0.58979,0.20197 1.0138,0.76119 1.0138,1.41945c0,0.7965 -0.6208,1.448 -1.40494,1.49704c-0.18676,0.22075 -0.43618,0.3868 -0.7208,0.47069l-2.27863,0.72977l-0.00654,-0.02042c-0.07793,0.02752 -0.15671,0.05308 -0.2364,0.07647c-2.17819,0.63928 -4.58297,0.23658 -6.95449,-0.40998c-0.28714,0.11716 -0.57531,0.23263 -0.8644,0.34659l0.22235,0.28422c0,0 0.40956,1.443 -1.03344,1.85257zM231.79083,125.03258c0.01384,0.08187 0.02104,0.16599 0.02104,0.25179c0,0.10287 -0.01035,0.20331 -0.03008,0.30036l0.03658,0.00388c0.05818,0.00541 0.1154,0.01415 0.17147,0.02602c0.35059,-0.18256 0.70627,-0.36002 1.06476,-0.52716c0.00073,-0.08295 0.00819,-0.16429 0.02187,-0.2435c-0.36134,0.0544 -0.80591,0.12052 -1.28563,0.18861zM226.39117,142.3099c1.08017,-0.46149 2.1598,-0.92062 3.24086,-1.37514c-0.76706,0.30383 -1.5319,0.62222 -2.29475,0.95326c-0.31666,0.13742 -0.63198,0.27818 -0.94611,0.42188zM237.00504,129.79478c-0.25583,0.0354 -0.51237,0.07343 -0.76915,0.11337c0.6424,0.29223 1.28437,0.65695 1.89796,1.00921c0.05257,-0.01453 0.10516,-0.02901 0.15777,-0.04344c0.25623,-0.13647 0.51286,-0.2731 0.77001,-0.40978c0.12979,-0.06899 0.27653,-0.15292 0.43689,-0.24569c-0.75694,-0.13079 -1.5099,-0.28678 -2.27041,-0.39468c-0.07424,-0.01053 -0.14861,-0.02013 -0.22307,-0.02898zM221.47724,124.10241c-3.50419,1.52628 -6.89167,3.33878 -10.09046,5.20036c-1.6455,0.95762 -3.27952,1.9329 -4.9091,2.91567c0.45716,-0.04654 0.91385,-0.09727 1.36995,-0.1522c5.45069,-3.04196 11.1176,-6.08936 17.18255,-7.54477c-0.32177,-0.27512 -0.52573,-0.68402 -0.52573,-1.14057c0,-0.04439 0.00193,-0.08833 0.00571,-0.13174c-1.01554,0.28065 -2.02629,0.56447 -3.03291,0.85325zM228.56131,133.84243c0.45929,-0.0753 0.92132,-0.14347 1.38571,-0.20481c1.32617,-0.51603 2.6673,-1.00066 4.02415,-1.45247c-0.3353,-0.2108 -0.67155,-0.43941 -0.98448,-0.68148c-1.47195,0.79203 -2.94917,1.5677 -4.42537,2.33876z" fill="#73a367" stroke="none" stroke-width="0.5" stroke-linecap="butt"></path><path d="M197.31073,131.70747c-0.18725,1.48827 -1.67552,1.30101 -1.67552,1.30101l-2.06631,-0.25998c-1.0138,-0.12768 -2.01376,-0.35818 -2.99583,-0.6591l-0.04714,0.27472l-2.60653,-0.44728c-0.71978,-0.11021 -1.2711,-0.73204 -1.2711,-1.48265c0,-0.02603 0.00066,-0.0519 0.00197,-0.07761l-2.89328,-0.19415c-0.78712,-0.04592 -1.41126,-0.69878 -1.41126,-1.49742c0,-0.56636 0.31388,-1.0594 0.77718,-1.31467l1.44576,-0.83158l0.00298,0.00519l0.01215,-0.01377c12.88419,-7.01521 27.58232,-10.4 42.14279,-10.23715c0,0 1.49991,0.01678 1.48313,1.51668c-0.01678,1.49991 -1.51668,1.48313 -1.51668,1.48313c-0.9303,-0.0104 -1.86127,-0.00587 -2.79237,0.01364c0.00115,0.02408 0.00173,0.04831 0.00173,0.07268c0,0.67944 -0.45174,1.25337 -1.07125,1.43783l-2.8218,0.91234l-0.08019,-0.24803c-7.66469,3.8656 -16.77658,5.97439 -25.05979,8.42716l1.14034,0.14348c0,0 1.48827,0.18725 1.30101,1.67552zM200.24605,123.12441c-3.1366,0.9826 -6.21526,2.15434 -9.21166,3.51684c0.8444,-0.18867 1.68687,-0.41478 2.50341,-0.7511c2.21522,-0.91242 4.45018,-1.85628 6.70825,-2.76574z" fill="#999999" stroke="none" stroke-width="0.5" stroke-linecap="butt"></path><path d="M235.87521,162.03045c-2.09899,1.95833 -4.28474,3.84153 -6.35728,5.75955l-0.05527,0.02124l0.01172,0.01474l-2.12162,1.6868c-0.25765,0.20857 -0.58578,0.3335 -0.9431,0.3335c-0.82843,0 -1.5,-0.67157 -1.5,-1.5c0,-0.36724 0.13197,-0.70366 0.35108,-0.96441l1.90664,-2.30298l0.0096,0.00795c0.01315,-0.02159 0.0264,-0.04313 0.03976,-0.06461c1.67066,-2.68627 5.30717,-5.23042 7.5645,-7.43579l0.08909,-0.04162l-0.01418,-0.01879l2.08935,-1.57729c0.25332,-0.19549 0.57088,-0.31177 0.91561,-0.31177c0.03028,0 0.06035,0.0009 0.09019,0.00267c0.05146,-0.05247 0.10275,-0.10511 0.15385,-0.15794c0.05795,-0.05991 0.12212,-0.13224 0.19085,-0.21348c-0.90938,0.43681 -1.92477,0.79542 -2.41706,1.09142c-2.66204,1.60063 -4.59112,2.75351 -6.91177,3.61068l0.16624,0.33031l-2.65295,1.33517c-0.20925,0.11084 -0.44786,0.17361 -0.70114,0.17361c-0.82843,0 -1.5,-0.67157 -1.5,-1.5c0,-0.44836 0.19672,-0.85078 0.50855,-1.12565l1.48017,-1.31682l0.00094,0.00105l0.00186,-0.00354c0.94219,-0.82983 2.04463,-1.97869 3.23798,-3.17965c-0.41361,0.11451 -0.83667,0.21691 -1.27258,0.30703l0.11505,0.37651l-2.83565,0.86647c-0.14834,0.0491 -0.30693,0.07568 -0.47174,0.07568c-0.43864,0 -0.83331,-0.18828 -1.1076,-0.48844c-1.68542,1.24587 -3.36056,2.51007 -5.0428,3.77008c-1.45124,1.08699 -2.4926,2.19272 -3.74689,2.82712c-0.34851,0.26369 -0.69755,0.52665 -1.04723,0.78875l-0.00529,0.00173l0.00105,0.00142l-2.40033,1.77295c-0.25137,0.19012 -0.5645,0.30288 -0.90397,0.30288c-0.82843,0 -1.5,-0.67157 -1.5,-1.5c0,-0.49736 0.24206,-0.93818 0.61479,-1.21108l2.38712,-1.78796l0.012,0.01602l0.00482,-0.00356c1.70275,-1.27634 3.39057,-2.57292 5.07406,-3.87532c-0.70358,-0.93568 0.14772,-1.86111 0.14772,-1.86111c4.83004,-5.22208 11.46693,-8.73773 17.73846,-11.96786l2.40361,-1.23797c0.21207,-0.11478 0.45491,-0.17995 0.71298,-0.17995c0.7598,0 1.38765,0.56491 1.48646,1.29763c0.66137,0.1564 1.15349,0.75062 1.15349,1.45978c0,0.38905 -0.14811,0.7435 -0.39103,1.01006l-0.90657,1.00272c0.74032,0.09192 1.31329,0.72329 1.31329,1.48849c0,0.43721 -0.18705,0.83073 -0.48549,1.1049l-2.19927,2.03299l-0.25859,-0.27974c-0.36007,0.43441 -0.72953,0.85789 -1.10728,1.27244c0.56805,-0.2263 1.10082,-0.41361 1.57813,-0.55506c1.01884,-0.30195 2.32415,-1.03652 3.16445,-0.38607c2.85713,2.21164 -0.25173,5.04797 -1.41382,6.37863c-0.34284,0.39257 -0.69366,0.77982 -1.05122,1.16244l-0.0158,0.25449l-0.06134,-0.00381c-0.0055,0.17578 -0.02651,0.35094 -0.06741,0.52532c-0.21056,0.89768 -1.25342,1.35263 -1.88013,2.02894l-0.59988,0.38843c0,0 -0.34296,0.17261 -0.76918,0.16966z" fill="#999999" stroke="none" stroke-width="0.5" stroke-linecap="butt"></path><path d="M233.73636,183.83158c-0.38305,0.41203 -0.74724,0.79485 -1.11961,1.16844l0.22337,0.1675l-1.7893,2.38619c-0.27294,0.37233 -0.71352,0.61408 -1.21056,0.61408c-0.54712,0 -1.02583,-0.29292 -1.28784,-0.73049c-0.53561,0.78243 -1.06674,1.56891 -1.5926,2.36062l-0.96815,1.4594c-0.26676,0.41525 -0.73273,0.69036 -1.26294,0.69036c-0.21339,0 -0.41638,-0.04456 -0.60016,-0.12488c-0.07824,0.0126 -0.15851,0.01915 -0.24031,0.01915c-0.82843,0 -1.5,-0.67157 -1.5,-1.5c0,-0.25081 0.06155,-0.48724 0.17038,-0.69501l1.25951,-2.53295l0.01076,0.00535l0.00504,-0.03624c0.39471,-0.70967 0.80741,-1.5564 1.24457,-2.47452c0.17572,-0.4247 0.37933,-0.8497 0.60366,-1.27275c1.23736,-2.60419 2.67219,-5.51116 4.4296,-7.44564c0.39532,-0.70791 0.79575,-1.42595 1.19679,-2.15954l0.02912,-0.02228l-0.01173,-0.00712l1.1416,-1.88033c0.2601,-0.44542 0.74322,-0.74469 1.29624,-0.74469c0.33811,0 0.65009,0.11187 0.90096,0.30061c0.27589,-0.26599 0.67371,-0.59569 1.13307,-0.94402l0.68664,-1.39578l-1.84199,-0.0982c0.10497,-0.13332 0.20854,-0.26375 0.31089,-0.39145c-0.13779,0.02752 -0.27555,0.05514 -0.41329,0.08298c-9.36491,8.25932 -13.25866,19.96069 -13.35244,32.049c0.18404,0.40877 0.26831,1.01486 -0.33945,1.61872c-1.06408,1.05723 -2.12131,-0.00685 -2.12131,-0.00685l-0.54098,-1.16297c0,-11.54626 3.30165,-22.69451 10.95049,-31.3235c-0.38013,-0.08848 -0.78336,-0.34443 -0.99705,-0.98133c-0.47714,-1.42209 0.94495,-1.89923 0.94495,-1.89923c3.15579,-1.05324 6.36842,-1.34512 9.53803,-2.25671c0.99975,-0.84937 2.10311,-1.63416 3.4883,-2.51841l3.36549,-0.32005c-0.29751,1.29321 -0.2124,2.74018 -0.89253,3.87962c-0.27774,0.46532 -0.90767,1.01402 -1.65815,1.57358l1.82632,-0.17239c-0.2422,0.26517 -1.42561,1.77919 -2.84996,3.10327l-0.00611,0.05036c-0.02462,0.00795 -0.04926,0.01581 -0.07392,0.0236c-0.08528,0.07834 -0.17137,0.15592 -0.25812,0.23242c0.09194,0.04673 0.18249,0.1053 0.26705,0.17863c1.17778,-0.18616 2.35451,-0.37915 3.53245,-0.56428l3.10793,0.76255c-0.47393,0.79842 -0.80556,1.71014 -1.30156,2.49099c0.22507,-0.05983 0.44751,-0.12343 0.66641,-0.19209l3.33687,1.39326c-0.8645,1.15469 -1.80354,2.18826 -2.79779,3.13999l4.25445,0.05863c-0.90772,1.38341 -2.22064,4.10438 -3.98358,5.14962c-0.5058,0.29988 -1.05411,0.51695 -1.60757,0.72244c0.035,0.00033 0.06885,0.0002 0.10143,-0.00047c2.0525,-0.04209 6.24059,-1.26045 8.14698,-0.07758c0.92029,0.57102 2.26455,1.47385 2.03563,2.53244c-0.24851,1.1492 -1.46534,1.77562 -2.53454,2.42871c-1.20353,2.45748 -1.96844,4.34468 -3.65001,5.84859c1.00638,-0.02417 2.02679,0.10824 3.25358,0.05727l3.46613,0.85663c-0.94441,1.1902 -1.63421,2.63741 -2.83323,3.5706c-1.10868,0.86288 -10.04297,3.01197 -3.6599,1.42452c0.91445,-0.22742 1.79834,-0.56367 2.69751,-0.84551l3.51127,0.12805c-0.81124,1.09595 -1.34338,2.46908 -2.43372,3.28785c-0.53864,0.40447 -1.34293,0.05893 -2.01935,0.07442c-0.37862,0.12084 -0.76108,0.22568 -1.15235,0.29388c-1.69401,0.29525 -6.37549,1.29449 -6.13698,-2.7403c0.06741,-1.14036 1.70997,-1.52468 2.65301,-2.16939c0.65875,-0.45035 1.30015,-0.84313 1.94754,-1.16001c-1.59634,-0.2888 -3.13584,-0.77735 -4.99289,-1.39771l1.74428,-2.08285c-1.18135,0.11367 -2.50817,-0.0547 -4.45845,-0.49559l2.17037,-2.56891c2.20319,-1.23579 5.05374,-3.51669 7.75192,-4.38606c-0.79417,0.03099 -1.58181,0.15908 -2.37429,0.22003c-1.61631,0.12431 -8.48601,1.25714 -9.03419,-1.57042c-0.01404,-0.07244 -0.02209,-0.14436 -0.02463,-0.21572c-1.36459,0.7815 -4.6941,2.69371 -4.73438,2.70309c-0.25248,0.05883 -0.50771,0.09299 -0.76484,0.11001c-0.5322,1.49752 -1.02158,2.95135 -1.52967,4.17909c-0.07859,0.43056 -0.37247,1.23553 -1.47131,1.23553c-1.5,0 -1.5,-1.5 -1.5,-1.5l0.11989,-0.69337c0.87724,-2.05849 1.66691,-4.4516 2.61414,-6.76136c-0.07576,-0.03216 -0.14603,-0.07063 -0.21087,-0.1131zM235.02483,173.39605c0.01265,-0.01411 0.02531,-0.02818 0.038,-0.04222c-0.00344,-0.00272 -0.00688,-0.00544 -0.01031,-0.00817zM234.70199,178.77312c-0.44363,0.61154 -0.88631,1.22278 -1.32764,1.83433l1.68032,0.87104c0.81965,-1.64344 1.77772,-3.15483 2.97723,-4.35848c-0.44961,-0.07505 -0.91904,-0.16097 -1.41326,-0.25687l2.70395,-2.47685c-0.42162,0.04398 -0.82667,0.06678 -1.20431,0.06037c-1.35068,1.08509 -2.29634,2.78261 -3.41629,4.32646zM240.50601,178.90713c-0.76584,0.60626 -1.43095,1.41468 -2.02146,2.34775c1.77022,-1.39034 3.64412,-2.82656 5.5565,-3.95941c-1.0074,0.16078 -1.97484,0.21044 -2.99725,0.16642c0.19368,0.83169 -0.53779,1.44524 -0.53779,1.44524z" fill="#c2c2c2" stroke="none" stroke-width="0.5" stroke-linecap="butt"></path></g></g></svg>