<svg version="1.1" xmlns="http://www.w3.org/2000/svg" xmlns:xlink="http://www.w3.org/1999/xlink" width="89.92673" height="155.86162" viewBox="0,0,89.92673,155.86162"><defs><linearGradient x1="244.21603" y1="139.88157" x2="235.87005" y2="218.70037" gradientUnits="userSpaceOnUse" id="color-1"><stop offset="0" stop-color="#7c7c7c"></stop><stop offset="1" stop-color="#e5e5e5"></stop></linearGradient><linearGradient x1="204.95517" y1="171.17447" x2="232.14424" y2="174.05347" gradientUnits="userSpaceOnUse" id="color-2"><stop offset="0" stop-color="#650000"></stop><stop offset="1" stop-color="#ff0000"></stop></linearGradient><linearGradient x1="268.19961" y1="173.7371" x2="240.91002" y2="175.41376" gradientUnits="userSpaceOnUse" id="color-3"><stop offset="0" stop-color="#650000"></stop><stop offset="1" stop-color="#ff0000"></stop></linearGradient></defs><g transform="translate(-199.75471,-69.3138)"><g data-paper-data="{&quot;isPaintingLayer&quot;:true}" fill-rule="nonzero" stroke-linejoin="miter" stroke-miterlimit="10" stroke-dasharray="" stroke-dashoffset="0" style="mix-blend-mode: normal"><g><path d="" data-paper-data="{&quot;index&quot;:null}" fill="none" stroke="#000000" stroke-width="1.5" stroke-linecap="round"></path><path d="" data-paper-data="{&quot;index&quot;:null}" fill="none" stroke="#000000" stroke-width="1.5" stroke-linecap="round"></path><path d="" data-paper-data="{&quot;index&quot;:null}" fill="none" stroke="#000000" stroke-width="1.5" stroke-linecap="round"></path><path d="" data-paper-data="{&quot;index&quot;:null}" fill="none" stroke="#000000" stroke-width="1.5" stroke-linecap="round"></path><path d="" data-paper-data="{&quot;index&quot;:null}" fill="none" stroke="#000000" stroke-width="1.5" stroke-linecap="round"></path><path d="" data-paper-data="{&quot;index&quot;:null}" fill="none" stroke="#000000" stroke-width="1.5" stroke-linecap="round"></path><path d="" data-paper-data="{&quot;index&quot;:null}" fill="none" stroke="#000000" stroke-width="1.5" stroke-linecap="round"></path><path d="" data-paper-data="{&quot;index&quot;:null}" fill="none" stroke="#000000" stroke-width="1.5" stroke-linecap="round"></path><path d="" data-paper-data="{&quot;index&quot;:null}" fill="none" stroke="#000000" stroke-width="1.5" stroke-linecap="round"></path><path d="" data-paper-data="{&quot;index&quot;:null}" fill="none" stroke="#000000" stroke-width="1.5" stroke-linecap="round"></path><g><path d="M214.40727,123.24289l0.04306,-39.48833c0,0 16.10408,6.59896 25.71618,6.60945c5.65499,0.00617 14.75384,-6.02195 23.74044,-7.31428c12.97511,-1.86589 25.52428,0.78659 25.52428,0.78659l-0.04306,39.48833c0,0 -11.00368,-3.83527 -23.4231,-2.19598c-10.35143,1.36634 -21.74395,8.25802 -28.0303,8.25117c-9.51176,-0.01039 -23.52747,-6.13696 -23.52747,-6.13696z" fill="#606060" stroke="#000000" stroke-width="0.5" stroke-linecap="butt"></path><path d="M220.25046,210.81487l-7.88406,13.85411l-7.8538,-13.87128z" fill="#ffee00" stroke="#000000" stroke-width="0.5" stroke-linecap="round"></path><path d="M209.94622,210.63333l0.13766,-126.22172l5.40616,0.00592l-0.13766,126.22172z" fill="#d3d3d3" stroke="#000000" stroke-width="0.5" stroke-linecap="butt"></path><path d="M211.65913,109.99282c-0.01941,-0.02425 -0.04049,-0.05151 -0.06272,-0.08159c-0.01921,0.02634 -0.03833,0.05264 -0.05739,0.07895c0.04155,0.003 0.08278,0.00721 0.12364,0.01264c-0.00117,-0.00333 -0.00234,-0.00667 -0.00352,-0.00997zM214.77178,107.1429l0.5619,0.80156c0.49641,0.18416 0.98906,0.59477 1.20328,1.46555c0.10626,0.43188 0.09928,0.79526 0.02205,1.09983c1.68496,2.98919 3.48449,5.91322 4.81265,8.97154c0.25442,0.41317 0.44874,0.85007 0.54029,1.32387c0.07751,0.20351 0.15262,0.40771 0.22518,0.6127l0.11907,0.13764l0.61465,-0.2918l1.15846,2.4403c0.14315,0.28544 0.22359,0.60781 0.22322,0.9489c-0.00099,0.91489 -0.58294,1.69344 -1.39651,1.9871c0.03602,0.29243 0.06474,0.58688 0.08558,0.88361l0.64108,-0.07054l0.22937,2.08516c0.01067,0.08652 0.01613,0.17462 0.01605,0.26403c-0.00128,1.16774 -0.94892,2.11333 -2.11667,2.11206c-0.31613,-0.00033 -0.61599,-0.07005 -0.88517,-0.19472c2.37534,3.1034 4.24457,6.55476 1.52404,9.06306c-1.11269,1.02587 -3.09825,-0.07393 -4.49131,-0.66542c-1.90392,-0.80839 -4.07752,-4.27661 -5.11603,-7.55411c-1.91336,4.757 -4.8935,9.83335 -10.28998,7.52271c-0.6439,-0.27572 -0.77451,-0.9634 -0.70982,-1.7628c-0.2895,-0.36223 -0.46236,-0.82164 -0.46183,-1.3214c0.00019,-0.17903 0.02262,-0.35281 0.06471,-0.51882l0.94188,-4.07512l0.08863,0.02049l0.00755,-0.3277c0.24914,-0.42856 0.49628,-0.8613 0.74213,-1.29726c-0.1039,0.01557 -0.21025,0.02359 -0.31847,0.02347c-1.16774,-0.00128 -2.11333,-0.94892 -2.11206,-2.11667c0.00036,-0.33637 0.07927,-0.6543 0.21931,-0.93648l0.97081,-2.0682c0.27029,-0.57586 0.58395,-1.33731 0.9481,-2.18847c-2.56798,-5.33697 4.07024,-14.74279 7.24301,-18.47737c0,0 1.3729,-1.60802 2.9809,-0.23514c0.69876,0.59659 0.83463,1.23758 0.76486,1.77172c0.56893,0.18575 0.94912,0.56672 0.94912,0.56672z" fill="#56d600" stroke="none" stroke-width="0.5" stroke-linecap="butt"></path><path d="M258.19607,118.91401l-21.08506,-21.13109l6.15628,-6.14288l21.08506,21.13109z" fill="#b8b8b8" stroke="none" stroke-width="0" stroke-linecap="butt"></path><path d="M209.34719,84.33649l3.06556,-13.85938l3.03531,13.86603z" data-paper-data="{&quot;index&quot;:null}" fill="#000000" stroke="#000000" stroke-width="0.5" stroke-linecap="round"></path><path d="M237.3252,112.97237l21.13109,-21.08506l6.14288,6.15628l-21.13107,21.08507z" data-paper-data="{&quot;index&quot;:null}" fill="#b8b8b8" stroke="none" stroke-width="0" stroke-linecap="butt"></path><text transform="translate(233.69064,114.74334) rotate(0.06244) scale(0.60637,0.60637)" font-size="40" xml:space="preserve" fill="#000000" fill-rule="nonzero" stroke="none" stroke-width="1" stroke-linecap="butt" stroke-linejoin="miter" stroke-miterlimit="10" stroke-dasharray="" stroke-dashoffset="0" font-family="Pixel" font-weight="normal" text-anchor="start" style="mix-blend-mode: normal"><tspan x="0" dy="0">BB</tspan></text><path d="M218.1936,90.31584l10.80689,4.94785" fill="none" stroke="#54ff00" stroke-width="3.5" stroke-linecap="round"></path><path d="M219.80536,121.10915l11.75762,-4.68818" fill="none" stroke="#54ff00" stroke-width="3.5" stroke-linecap="round"></path><path d="M271.54679,93.19462l13.40476,-6.33172" fill="none" stroke="#54ff00" stroke-width="3.5" stroke-linecap="round"></path><path d="M270.81963,113.40814l13.6293,3.30557" fill="none" stroke="#54ff00" stroke-width="3.5" stroke-linecap="round"></path></g></g><path d="" data-paper-data="{&quot;index&quot;:null}" fill="none" stroke="#000000" stroke-width="1.5" stroke-linecap="round"></path><path d="" data-paper-data="{&quot;index&quot;:null}" fill="none" stroke="#000000" stroke-width="1.5" stroke-linecap="round"></path><path d="" data-paper-data="{&quot;index&quot;:null}" fill="none" stroke="#000000" stroke-width="1.5" stroke-linecap="round"></path><path d="" data-paper-data="{&quot;index&quot;:null}" fill="none" stroke="#000000" stroke-width="1.5" stroke-linecap="round"></path><path d="" data-paper-data="{&quot;index&quot;:null}" fill="none" stroke="#000000" stroke-width="1.5" stroke-linecap="round"></path><path d="" data-paper-data="{&quot;index&quot;:null}" fill="none" stroke="#000000" stroke-width="1.5" stroke-linecap="round"></path><path d="" data-paper-data="{&quot;index&quot;:null}" fill="none" stroke="#000000" stroke-width="1.5" stroke-linecap="round"></path><path d="" data-paper-data="{&quot;index&quot;:null}" fill="none" stroke="#000000" stroke-width="1.5" stroke-linecap="round"></path><path d="" data-paper-data="{&quot;index&quot;:null}" fill="none" stroke="#000000" stroke-width="1.5" stroke-linecap="round"></path><path d="" data-paper-data="{&quot;index&quot;:null}" fill="none" stroke="#000000" stroke-width="1.5" stroke-linecap="round"></path><path d="" data-paper-data="{&quot;index&quot;:null}" fill="none" stroke="#000000" stroke-width="1.5" stroke-linecap="round"></path><path d="" data-paper-data="{&quot;index&quot;:null}" fill="none" stroke="#000000" stroke-width="1.5" stroke-linecap="round"></path><path d="" data-paper-data="{&quot;index&quot;:null}" fill="none" stroke="#000000" stroke-width="1.5" stroke-linecap="round"></path><path d="" data-paper-data="{&quot;index&quot;:null}" fill="none" stroke="#000000" stroke-width="1.5" stroke-linecap="round"></path><path d="" data-paper-data="{&quot;index&quot;:null}" fill="none" stroke="#000000" stroke-width="1.5" stroke-linecap="round"></path><path d="M288.64177,198.77279" data-paper-data="{&quot;index&quot;:null}" fill="none" stroke="#d8d8d8" stroke-width="4" stroke-linecap="round"></path><path d="M288.64177,198.77279" data-paper-data="{&quot;index&quot;:null}" fill="none" stroke="#d8d8d8" stroke-width="4" stroke-linecap="round"></path><path d="M235.84861,218.90285c-21.69397,-2.29713 -37.41821,-21.74576 -35.12107,-43.43973c2.29713,-21.69397 21.74576,-37.41821 43.43973,-35.12107c21.69397,2.29713 37.41821,21.74576 35.12107,43.43973c-2.29713,21.69397 -21.74576,37.41821 -43.43973,35.12107z" fill="#d8d8d8" stroke="#000000" stroke-width="1.5" stroke-linecap="butt"></path><path d="" data-paper-data="{&quot;index&quot;:null}" fill="none" stroke="#000000" stroke-width="1.5" stroke-linecap="round"></path><path d="" data-paper-data="{&quot;index&quot;:null}" fill="none" stroke="#000000" stroke-width="1.5" stroke-linecap="round"></path><g><g><path d="M201.81484,206.76356l3.63978,-52.15585l27.75995,-14.43602l18.70719,0.52582l24.23907,15.60863l-3.32409,64.61672l-29.6174,-10.68979l-2.27035,-23.93017l-4.81038,-3.01442l-5.47772,2.33098l-1.54863,22.28048l-28.10721,7.10865z" fill="url(#color-1)" stroke="#000000" stroke-width="2" stroke-linecap="round"></path><path d="M205.17855,175.41124l0.53394,-11.38877l26.25109,4.88313l-0.57666,12.29988z" fill="url(#color-2)" stroke="none" stroke-width="0" stroke-linecap="butt"></path></g><path d="M241.35107,182.5922l-0.03344,-12.31335l26.44097,-3.72022l0.03097,11.40123z" data-paper-data="{&quot;index&quot;:null}" fill="url(#color-3)" stroke="none" stroke-width="0" stroke-linecap="butt"></path></g></g></g></svg>