<svg version="1.1" xmlns="http://www.w3.org/2000/svg" xmlns:xlink="http://www.w3.org/1999/xlink" width="245.33904" height="80.5" viewBox="0,0,245.33904,80.5"><g transform="translate(-152.48905,-140.3707)"><g data-paper-data="{&quot;isPaintingLayer&quot;:true}" fill-rule="nonzero" stroke-linejoin="miter" stroke-miterlimit="10" stroke-dasharray="" stroke-dashoffset="0" style="mix-blend-mode: normal"><path d="" data-paper-data="{&quot;index&quot;:null}" fill="none" stroke="#000000" stroke-width="1.5" stroke-linecap="round"></path><path d="M289.92393,195.47554" data-paper-data="{&quot;index&quot;:null}" fill="none" stroke="#d8d8d8" stroke-width="4" stroke-linecap="round"></path><path d="M241.20088,220.1207c-21.81525,0 -39.5,-17.68475 -39.5,-39.5c0,-21.81525 17.68475,-39.5 39.5,-39.5c21.81525,0 39.5,17.68475 39.5,39.5c0,21.81525 -17.68475,39.5 -39.5,39.5z" fill="#d8d8d8" stroke="#000000" stroke-width="1.5" stroke-linecap="butt"></path><path d="M226.36716,169.6083l14.03116,4.59202" fill="none" stroke="#000000" stroke-width="1.5" stroke-linecap="round"></path><path d="M228.19225,178.95914l-0.25511,-5.86758" fill="none" stroke="#000000" stroke-width="1.5" stroke-linecap="round"></path><path d="M243.71478,173.69009l7.65337,-3.82668" fill="none" stroke="#000000" stroke-width="1.5" stroke-linecap="round"></path><path d="M246.28352,178.41109l0.21988,-5.35892" fill="none" stroke="#000000" stroke-width="1.5" stroke-linecap="round"></path><path d="M229.62579,192.95291l25.16666,2.30233l-24.96157,-0.52657" fill="none" stroke="#000000" stroke-width="3" stroke-linecap="round"></path><g stroke="#000000" stroke-linecap="butt"><path d="M199.4212,192.52501l-40.90564,-3.51854c0,0 -5.71029,-2.74145 -5.25012,-3.80779c0.461,-1.06826 8.01362,-2.59597 8.01362,-2.59597l40.90564,3.51854z" fill="#af5400" stroke-width="1.5"></path><path d="M204.18675,201.30345c0,0 -11.05399,0.77592 -14.81853,-1.6345c-4.41008,-2.82373 -1.95925,-8.23524 -0.59732,-11.81516c2.52433,-6.63585 9.36372,-11.75644 15.27617,-11.43717c2.74717,0.14834 10.77953,2.04767 10.77953,2.04767c0,0 -3.2934,6.99314 -4.64487,10.54569c-2.52433,6.63585 -5.99503,12.29345 -5.99503,12.29345z" fill="#989898" stroke-width="1"></path><path d="M204.44357,201.7396c-5.91243,-0.31927 -8.65908,-5.95753 -6.13474,-12.59338c2.52436,-6.63584 9.36372,-11.75644 15.27613,-11.43717c5.91243,0.31927 8.65908,5.95753 6.13471,12.59335c-2.52436,6.63584 -9.36374,11.75643 -15.27613,11.43717z" fill="#989898" stroke-width="1"></path><path d="M208.51481,186.43135l186.92845,18.60682l-28.17174,3.13505l-161.58221,-16.08385c0,0 -2.53845,-1.95603 -2.07312,-2.88774c0.47631,-0.95375 4.89866,-2.77029 4.89866,-2.77029z" fill="#e6e6e6" stroke-width="0.5"></path></g></g></g></svg>