<svg version="1.1" xmlns="http://www.w3.org/2000/svg" xmlns:xlink="http://www.w3.org/1999/xlink" width="102.32418" height="134.38371" viewBox="0,0,102.32418,134.38371"><g transform="translate(-183.02647,-117.22385)"><g data-paper-data="{&quot;isPaintingLayer&quot;:true}" fill-rule="nonzero" stroke="none" stroke-linecap="butt" stroke-linejoin="miter" stroke-miterlimit="10" stroke-dasharray="" stroke-dashoffset="0" style="mix-blend-mode: normal"><path d="M256.69803,176.41173c6.17566,27.78803 -13.77695,67.89181 -13.77695,67.89181c0,0 1.00783,-41.4315 -4.56869,-61.91462c-5.53954,-20.34729 -28.78024,-60.57932 -28.78024,-60.57932c0,0 40.65197,25.4721 47.12588,54.60211z" fill="#ff38fc" stroke-width="NaN"></path><path d="M284.16464,171.82598c6.17566,27.78803 -13.77695,67.89182 -13.77695,67.89182c0,0 1.00784,-41.4315 -4.56869,-61.91462c-5.53954,-20.34729 -28.78024,-60.57932 -28.78024,-60.57932c0,0 40.65197,25.4721 47.12588,54.60211z" fill="#ff38fc" stroke-width="NaN"></path><path d="M230.15235,183.71574c6.17566,27.78803 -13.77695,67.89182 -13.77695,67.89182c0,0 1.00784,-41.4315 -4.56869,-61.91462c-5.53954,-20.34729 -28.78023,-60.57932 -28.78023,-60.57932c0,0 40.65197,25.47209 47.12588,54.60211z" fill="#ff38fc" stroke-width="NaN"></path></g></g></svg>