<svg version="1.1" xmlns="http://www.w3.org/2000/svg" xmlns:xlink="http://www.w3.org/1999/xlink" width="119.50728" height="80.5" viewBox="0,0,119.50728,80.5"><g transform="translate(-410.41665,-140.37073)"><g data-paper-data="{&quot;isPaintingLayer&quot;:true}" fill-rule="nonzero" stroke-linejoin="miter" stroke-miterlimit="10" stroke-dasharray="" stroke-dashoffset="0" style="mix-blend-mode: normal"><path d="" data-paper-data="{&quot;index&quot;:null}" fill="none" stroke="#000000" stroke-width="1.5" stroke-linecap="round"/><path d="" data-paper-data="{&quot;index&quot;:null}" fill="none" stroke="#000000" stroke-width="1.5" stroke-linecap="round"/><path d="" data-paper-data="{&quot;index&quot;:null}" fill="none" stroke="#000000" stroke-width="1.5" stroke-linecap="round"/><path d="" data-paper-data="{&quot;index&quot;:null}" fill="none" stroke="#000000" stroke-width="1.5" stroke-linecap="round"/><path d="" data-paper-data="{&quot;index&quot;:null}" fill="none" stroke="#000000" stroke-width="1.5" stroke-linecap="round"/><path d="M529.92393,195.47558" data-paper-data="{&quot;index&quot;:null}" fill="none" stroke="#d8d8d8" stroke-width="4" stroke-linecap="round"/><path d="M481.20089,220.12074c-21.81525,0 -39.5,-17.68475 -39.5,-39.5c0,-21.81525 17.68475,-39.5 39.5,-39.5c21.81525,0 39.5,17.68475 39.5,39.5c0,21.81525 -17.68475,39.5 -39.5,39.5z" fill="#d8d8d8" stroke="#000000" stroke-width="1.5" stroke-linecap="butt"/><path d="M469.23032,168.76318l-17.15344,-6.06646" fill="none" stroke="#000000" stroke-width="1.5" stroke-linecap="round"/><path d="M462.91576,171.85067l0.20919,7.1124" fill="none" stroke="#000000" stroke-width="1.5" stroke-linecap="round"/><path d="M482.40962,166.67573l-12.04734,0.73331" fill="none" stroke="#000000" stroke-width="1.5" stroke-linecap="round"/><path d="M475.86714,171.93308l-0.20919,6.69403" fill="none" stroke="#000000" stroke-width="1.5" stroke-linecap="round"/><path d="M477.39081,185.81592c0,0 -2.44712,6.39517 -6.00657,7.52772c-3.85628,1.227 -16.31203,-0.42635 -16.31203,-0.42635" fill="none" stroke="#000000" stroke-width="1.5" stroke-linecap="round"/><g><path d="" data-paper-data="{&quot;index&quot;:null}" fill="none" stroke="#000000" stroke-width="1.5" stroke-linecap="round"/><path d="" data-paper-data="{&quot;index&quot;:null}" fill="none" stroke="#000000" stroke-width="1.5" stroke-linecap="round"/><path d="" data-paper-data="{&quot;index&quot;:null}" fill="none" stroke="#000000" stroke-width="1.5" stroke-linecap="round"/><path d="" data-paper-data="{&quot;index&quot;:null}" fill="none" stroke="#000000" stroke-width="1.5" stroke-linecap="round"/><path d="" data-paper-data="{&quot;index&quot;:null}" fill="none" stroke="#000000" stroke-width="1.5" stroke-linecap="round"/><path d="M445.53513,183.72017" data-paper-data="{&quot;index&quot;:null}" fill="none" stroke="#d8d8d8" stroke-width="4" stroke-linecap="round"/><g stroke-width="0" stroke-linecap="butt"><path d="M410.56657,200.85701l8.05084,-11.86281l4.41123,5.29249z" fill="#aeaeae" stroke="none"/><path d="M422.46568,174.83674l-5.16208,-6.19332l9.5715,-7.97775l5.16208,6.19332z" fill="#a7ed95" stroke="none"/><path d="M462.09174,213.6431l-19.70972,-23.64725l1.57648,-1.31398l19.70972,23.64725z" fill="#c2c2c2" stroke="none"/><path d="M462.57652,219.03285l-3.41265,-4.09441l6.64375,-5.53749l3.41265,4.09441z" fill="#a6a6a6" stroke="#000000"/><path d="M427.50946,203.09701l-17.09281,-20.50753l32.4305,-27.03049l17.09281,20.50753z" fill="#73a367" stroke="none"/><path d="M451.36926,171.36031l-4.41123,-5.29249l13.11906,-5.7821z" data-paper-data="{&quot;index&quot;:null}" fill="#aeaeae" stroke="none"/></g></g></g></g></svg>