<svg version="1.1" xmlns="http://www.w3.org/2000/svg" xmlns:xlink="http://www.w3.org/1999/xlink" width="172.08927" height="121.8488" viewBox="0,0,172.08927,121.8488"><g transform="translate(-146.46115,-136.03946)"><g data-paper-data="{&quot;isPaintingLayer&quot;:true}" fill-rule="nonzero" stroke-linejoin="miter" stroke-miterlimit="10" stroke-dasharray="" stroke-dashoffset="0" style="mix-blend-mode: normal"><path d="M308.11233,239.17445c-0.49327,0 -0.79188,-0.19465 -0.97267,-0.43033v0.76796c0,0.69036 -0.55964,1.25 -1.25,1.25c-0.32853,0 -0.62747,-0.12675 -0.85057,-0.33401c-0.07891,0.43455 -0.12602,0.87029 -0.1221,1.30667v1.27009c0,0.69036 -0.55964,1.25 -1.25,1.25c-0.69036,0 -1.25,-0.55964 -1.25,-1.25v-1.27009c0.0001,-0.01413 0.00022,-0.02827 0.00036,-0.0424c-0.32484,-0.782 0.11237,-1.69018 0.16871,-2.53521c0.16748,-2.51226 0.29073,-4.9647 0.53943,-7.44434c-0.25108,-0.90939 -0.52158,-1.81192 -0.67098,-2.70897c-0.59566,1.32378 -1.48831,2.60637 -3.00547,2.52243c-0.01592,0.01519 -0.03225,0.02996 -0.04896,0.04429c-0.25315,1.85152 -0.5489,3.83104 -1.46958,5.37974c-0.00068,0.13419 -0.00101,0.27021 -0.00094,0.40827l-0.02994,0.06623l0.02421,0.00269l-0.27441,2.46972c-0.06181,0.6326 -0.59518,1.12695 -1.24402,1.12695c-0.69036,0 -1.25,-0.55964 -1.25,-1.25c0,-0.04702 0.00259,-0.09343 0.00765,-0.13911l0.24348,-2.47141l0.01934,0.00191c-0.0016,-0.03698 -0.00284,-0.07402 -0.00369,-0.11109c-0.00288,-0.12517 -0.00029,-0.25236 0.00717,-0.38133c-0.01208,-0.89155 -0.04122,-1.67262 0.05773,-2.39332c-0.40953,-0.20526 -0.69065,-0.62889 -0.69065,-1.11818v-1.27009c0.00128,-1.84086 0.17996,-3.65764 0.3212,-5.49377c0,0 0.09587,-1.24632 1.34219,-1.15045c1.24632,0.09587 1.15044,1.34219 1.15044,1.34219c-0.04906,0.63779 -0.10365,1.2734 -0.15337,1.90862c0.03668,-0.07723 0.08106,-0.1501 0.13213,-0.21762l0.03132,-0.28181l0.22919,0.02546c0.03707,-0.02711 0.07568,-0.05222 0.11569,-0.07519c0.01184,-0.03707 0.02392,-0.07404 0.03625,-0.11087c-0.15209,-0.73726 -0.14443,-1.52829 -0.04551,-2.2515l0.01577,-1.32861c0.00696,-0.68438 0.56391,-1.23703 1.24993,-1.23703c0.69036,0 1.25,0.55964 1.25,1.25v2.5c0.00963,0.04101 0.01844,0.0823 0.02641,0.12382c0.15548,-0.27341 0.30311,-0.54509 0.40041,-0.81132l0.62097,-1.86292c0.15708,-0.51078 0.63267,-0.88206 1.19497,-0.88206c0.59488,0 1.09269,0.41555 1.21902,0.9722l0.44932,1.79728c0.16254,-0.50162 0.6336,-0.86434 1.18937,-0.86434c0.24124,0 0.46651,0.06834 0.65753,0.18671c0.44849,0.12652 0.79467,0.49706 0.88611,0.95919l0.31237,1.42386l-0.28937,0.06348l-0.00011,0.17706c1.14013,2.93301 1.38744,6.16078 2.18634,9.24986l0.03732,0.62069c0,0 0,1.25 -1.25,1.25z" fill="#c532ed" stroke="none" stroke-width="0.5" stroke-linecap="butt"></path><path d="M314.76597,156.0607c1.21268,0.30317 0.90951,1.51585 0.90951,1.51585l-0.29699,1.17108c-0.26447,3.3073 -0.92598,6.36567 -2.21804,9.26698l0.28159,0.08045l-0.62746,2.1961c-0.14026,0.53693 -0.62861,0.93317 -1.2095,0.93317c-0.44,0 -0.82691,-0.22734 -1.04966,-0.57097c-0.35742,1.08395 -0.76787,2.1363 -1.2859,3.1496l0.32092,0.12837l-0.62423,1.56059c-0.17726,0.47474 -0.63486,0.8128 -1.17141,0.8128c-0.61444,0 -1.12533,-0.44333 -1.23027,-1.02756l-0.31298,-1.56491l0.04243,-0.00849l-0.06062,-0.11349c-0.01391,-4.63737 0.00519,-9.26397 0.08276,-13.89114c-0.4975,2.7124 -1.05821,5.431 -1.64557,8.21551c-0.41032,1.94522 -0.96246,7.28342 -3.34353,8.05641c-0.87597,0.28437 -1.68813,-0.87068 -2.25489,-1.59661c-0.38311,-0.4907 -0.23062,-1.22621 -0.41361,-1.82126c-0.3188,-1.03668 -0.80881,-2.35517 -1.02824,-3.65089c-1.03268,1.94745 -2.48579,3.80195 -4.69604,3.45359c-0.98694,-0.15555 -0.67802,-4.44816 -0.67802,-5.23927c0,-5.18622 0,-10.37245 0,-15.55867c0,0 0,-1.25 1.25,-1.25c1.25,0 1.25,1.25 1.25,1.25c0,4.02197 0,8.04394 0,12.06591c0,0.99967 0.23008,2.65144 0.25726,4.11556c0.6727,-1.16208 1.50155,-2.36356 1.7543,-2.8926l0.67924,-1.41985c0.19611,-0.43376 0.6326,-0.73559 1.13958,-0.73559c0.62742,0 1.14687,0.46225 1.23637,1.06477l0.31415,1.88487l-0.4471,0.07452c0.24244,1.44749 0.2319,2.75464 0.73539,4.55702c0.12758,0.4567 0.37484,0.87258 0.54382,1.31537c0.33301,-2.2154 1.42399,-4.90837 1.83355,-6.65089c1.49403,-6.35644 2.32609,-12.45022 2.8033,-18.96262c0.32104,-1.40048 0.64251,-2.80087 0.96569,-4.20086l0.31028,-1.55138c0.10493,-0.58424 0.61583,-1.02756 1.23027,-1.02756c0.69036,0 1.25,0.55964 1.25,1.25v2.5h-0.3768c0.47397,4.1156 -0.05813,8.27014 -0.20879,12.52564c-0.14131,3.99133 -0.1088,7.99636 -0.07828,11.99778c0.31572,-0.80537 0.60577,-1.53585 0.75834,-2.09138l0.49142,-2.39648c0.10719,-0.58145 0.61678,-1.02193 1.22924,-1.02193c0.5593,0 1.03281,0.36733 1.19243,0.8739c0.09273,-0.26536 0.17939,-0.53676 0.25429,-0.81589c0.31864,-1.18739 0.18227,-2.45209 0.28788,-3.67694l0.33806,-1.36911c0,0 0.30317,-1.21268 1.51585,-0.90951z" fill="#c532ed" stroke="none" stroke-width="0.5" stroke-linecap="butt"></path><path d="M294.23829,196.87896c0,-4.47177 3.62509,-8.09686 8.09686,-8.09686c4.47177,0 8.09686,3.62509 8.09686,8.09686c0,4.47177 -3.62509,8.09686 -8.09686,8.09686c-4.47177,0 -8.09686,-3.62509 -8.09686,-8.09686z" fill="#ffffff" stroke="#000000" stroke-width="1" stroke-linecap="butt"></path><path d="M217.09442,165.86414l9,1v8" fill="none" stroke="#000000" stroke-width="1.5" stroke-linecap="round"></path><path d="M232.53458,174.67753v-8l9,-1" data-paper-data="{&quot;index&quot;:null}" fill="none" stroke="#000000" stroke-width="1.5" stroke-linecap="round"></path><path d="M230.98851,198.04897c0,0 0.3445,-8.61004 5.78628,-9.03188c5.30472,-0.41122 12.46372,8.03188 12.46372,8.03188z" fill="#040404" stroke="#000000" stroke-width="1.5" stroke-linecap="round"></path><path d="M200.73697,171.0911c0,-18.19082 17.29485,-32.9374 38.62913,-32.9374c21.33428,0 38.62913,14.74658 38.62913,32.9374c0,11.22687 -2.48212,24.8741 -12.54127,30.82016c-0.42004,0.24829 -5.31543,2.90997 -5.31543,2.90997l-0.22453,13.91683l-12.57806,0.95271l-0.50527,-15.47565l0.06963,15.5724l-14.72842,0.20478l-0.46155,-15.93384l0.80812,15.80985l-16.17468,-0.08649c0,0 0.11388,-16.75516 -0.28778,-16.80951c-2.62384,-0.355 -2.02116,-0.00099 -3.86634,-0.93632c-11.32682,-5.74167 -11.45268,-18.89377 -11.45268,-30.94489z" fill="#ffffff" stroke="#000000" stroke-width="2" stroke-linecap="butt"></path><path d="M243.83743,171.09869c0,5.92619 -3.30023,10.73031 -7.37126,10.73031c-4.07103,0 -7.37126,-4.80413 -7.37126,-10.73031c0,-5.92619 -0.9919,-11.10354 3.07913,-11.10354c3.22238,0 10.77427,7.53515 10.77427,7.53515c0,0 0.88912,2.33301 0.88912,3.56839z" fill="#ababab" stroke="#000000" stroke-width="1" stroke-linecap="butt"></path><path d="M261.57705,161.0762c4.07103,0 3.07913,5.17736 3.07913,11.10354c0,5.92619 -3.30022,10.73032 -7.37126,10.73032c-4.07103,0 -7.37126,-4.80413 -7.37126,-10.73032c0,-1.23538 0.88912,-3.56839 0.88912,-3.56839c0,0 7.55188,-7.53515 10.77427,-7.53515z" data-paper-data="{&quot;index&quot;:null}" fill="#ababab" stroke="#000000" stroke-width="1" stroke-linecap="butt"></path><path d="" data-paper-data="{&quot;index&quot;:null}" fill="none" stroke="#000000" stroke-width="1.5" stroke-linecap="round"></path><path d="" data-paper-data="{&quot;index&quot;:null}" fill="none" stroke="#000000" stroke-width="1.5" stroke-linecap="round"></path><path d="" data-paper-data="{&quot;index&quot;:null}" fill="none" stroke="#000000" stroke-width="1.5" stroke-linecap="round"></path><path d="" data-paper-data="{&quot;index&quot;:null}" fill="none" stroke="#000000" stroke-width="1.5" stroke-linecap="round"></path><path d="" data-paper-data="{&quot;index&quot;:null}" fill="none" stroke="#000000" stroke-width="1.5" stroke-linecap="round"></path><path d="" data-paper-data="{&quot;index&quot;:null}" fill="none" stroke="#000000" stroke-width="1.5" stroke-linecap="round"></path><path d="" data-paper-data="{&quot;index&quot;:null}" fill="none" stroke="#000000" stroke-width="1.5" stroke-linecap="round"></path><path d="" data-paper-data="{&quot;index&quot;:null}" fill="none" stroke="#000000" stroke-width="1.5" stroke-linecap="round"></path><path d="" data-paper-data="{&quot;index&quot;:null}" fill="none" stroke="#000000" stroke-width="1.5" stroke-linecap="round"></path><path d="" data-paper-data="{&quot;index&quot;:null}" fill="none" stroke="#000000" stroke-width="1.5" stroke-linecap="round"></path><path d="M153.25769,196.24391c0,-4.99786 4.05157,-9.04943 9.04943,-9.04943c4.99786,0 9.04943,4.05157 9.04943,9.04943c0,4.99786 -4.05157,9.04943 -9.04943,9.04943c-4.99786,0 -9.04943,-4.05157 -9.04943,-9.04943z" fill="#ffffff" stroke="#000000" stroke-width="1" stroke-linecap="butt"></path><path d="M316.05043,157.63109c2.5,0 2.5,2.5 2.5,2.5v0.31752c-0.00664,2.38925 -0.22948,4.78897 -0.67916,7.13554c-0.23035,1.20204 -0.08002,2.60044 -0.579,3.68381c-0.0088,0.21534 -0.01576,0.38584 -0.02037,0.49918l-0.06057,0.09869l0.0497,0.00621l-0.31342,2.50729c-0.12514,1.13458 -1.00952,2.04045 -2.1339,2.19839c-0.34503,1.89453 -0.74864,3.76669 -1.26917,5.586c-0.5066,1.77059 -0.84877,3.69329 -1.95013,5.1693c-0.06283,0.0842 -0.12727,0.16689 -0.1932,0.24818l0.02929,0.02051l-2.20261,3.14658c-0.44988,0.66094 -1.20832,1.095 -2.06814,1.095c-1.38071,0 -2.5,-1.11929 -2.5,-2.5v-3.17524h0.096l-0.08108,-0.2728c0.20318,-0.92108 0.28999,-1.9205 0.32797,-2.95161c-0.45756,0.5853 -1.1702,0.96154 -1.97071,0.96154c-0.47733,0 -0.92341,-0.13378 -1.30281,-0.36588l-1.87253,3.45699c-0.4155,0.80435 -1.25481,1.35422 -2.22256,1.35422c-1.38071,0 -2.5,-1.11929 -2.5,-2.5c0,-1.10226 0,-5.77765 0,-6.87991c-0.43909,-0.1722 -0.81763,-0.46502 -1.09484,-0.83769c-0.45492,0.47353 -1.09457,0.76826 -1.80307,0.76826c-1.38071,0 -2.5,-1.11929 -2.5,-2.5c0,-4.70927 0,-14.41854 0,-19.12781c0,0 0,-2.5 2.5,-2.5c2.5,0 2.5,2.5 2.5,2.5c0,3.29954 0,6.5991 0,9.89864c0.49456,0.05458 0.94566,0.25342 1.31029,0.55352c0.43176,-0.35535 0.98478,-0.56873 1.58762,-0.56873c0.78661,0 1.48836,0.36328 1.94663,0.93123c0.00576,-0.13262 0.0118,-0.26526 0.01805,-0.39787c-0.14584,-1.57117 -0.20623,-3.12847 0.24139,-4.60333c0.0342,-0.79743 0.05678,-1.57443 0.05678,-2.32068c0,-1.35707 0,-2.85772 0,-2.85772c0,-1.38071 1.11929,-2.5 2.5,-2.5c1.38071,0 2.5,1.11929 2.5,2.5c0,0.44523 0,3.74817 0,4.1934c0.11683,-0.01674 0.23626,-0.0254 0.35772,-0.0254c1.38071,0 2.5,1.11929 2.5,2.5c0,0.10572 -0.00656,0.20991 -0.0193,0.31218l-0.31352,2.82161l-0.10087,-0.01121l0.0677,0.22501c-0.03067,0.10635 -0.06104,0.21341 -0.09114,0.32117c0.2554,-0.08801 0.52954,-0.1358 0.81484,-0.1358c1.38071,0 2.5,1.11929 2.5,2.5v0.62552c0.37768,-2.47502 0.7337,-4.94945 1.19707,-7.3623l0.48771,-3.71523c0.14207,-1.22459 1.1691,-2.17935 2.42489,-2.2081c0.33675,-0.19358 0.77028,-0.31819 1.32843,-0.31819z" fill="#9b00c4" stroke="none" stroke-width="0.5" stroke-linecap="butt"></path><path d="M300.87833,228.65498c-0.15231,-1.15619 0.47623,-2.28547 0.62777,-3.44177c0.02024,-0.15438 0.03969,-0.3089 0.0584,-0.46354c-0.23828,0.07542 -0.49201,0.1161 -0.75523,0.1161c-0.90449,0 -1.69679,-0.48033 -2.13573,-1.19983c-0.11675,1.30144 -0.17201,2.61979 -0.65154,3.82159c-0.01052,0.02638 -0.02114,0.05273 -0.03181,0.07903l0.01455,0.00331l-1.09705,4.82706c-0.23374,1.13841 -1.24133,1.99455 -2.44888,1.99455c-1.38071,0 -2.5,-1.11929 -2.5,-2.5c0,-0.08694 0.00444,-0.17284 0.0131,-0.2575l0.30705,-3.37754c0.01207,-4.90566 1.27945,-9.54702 1.26747,-14.46382c0,0 0,-2.16872 2.01993,-2.46632c0.08899,-0.53078 0.17821,-1.06152 0.26761,-1.59226l0.09726,-0.13556l-0.05669,-0.01701l0.93643,-3.12144c0.29104,-1.05813 1.2601,-1.83543 2.4107,-1.83543c1.32366,0 2.40706,1.0287 2.49433,2.33024l0.31583,4.10583l-0.47763,0.03674c0.08166,0.37822 0.15492,0.7556 0.22078,1.13622c0.12667,-0.34542 0.24448,-0.6804 0.34467,-1.00042c0.00497,-0.66007 0.26573,-1.25927 0.68808,-1.70337l1.42349,-3.08422c0.38497,-0.88483 1.26699,-1.5035 2.2935,-1.5035c0.53129,0 1.02387,0.16573 1.42886,0.44831c0.40499,-0.28258 0.89757,-0.44831 1.42885,-0.44831c1.38071,0 2.5,1.11929 2.5,2.5v2.01979c0.10919,0.22011 0.18691,0.45861 0.22726,0.7096l0.68584,3.81364l-0.04972,0.00895c0.02707,0.07019 0.05352,0.14066 0.07931,0.21143c0.91226,2.50327 0.11928,5.32787 0.24627,7.98916l-0.00955,0.03412l0.01047,-0.00022l0.07953,3.88797c0.00046,0.01978 0.0007,0.0396 0.0007,0.05948c0,1.38071 -1.11929,2.5 -2.5,2.5c-0.39003,0 -0.7592,-0.08932 -1.08817,-0.24862l-0.21289,1.93021c-0.12277,1.26608 -1.18992,2.25573 -2.48822,2.25573c-0.52113,0 -1.00503,-0.15945 -1.40555,-0.43223c-0.27128,1.08729 -1.25444,1.89281 -2.42575,1.89281c-1.38071,0 -2.5,-1.11929 -2.5,-2.5c0,-0.11851 0.00825,-0.2351 0.0242,-0.34921l0.31264,-2.50106l0.01927,0.0024c-0.00335,-0.02368 -0.00659,-0.04738 -0.00971,-0.07111z" fill="#9b00c4" stroke="none" stroke-width="0.5" stroke-linecap="butt"></path><path d="M169.98944,137.30956c2.5,0 2.5,2.5 2.5,2.5l-0.01529,0.5936c-0.38866,3.48573 -0.58503,6.97122 -0.95096,10.46341c-0.1253,1.19579 0.06328,2.4754 -0.40046,3.5847c-0.02201,0.05264 -0.04429,0.10513 -0.06685,0.15749l0.03141,0.00785l-1.2,4.79998c-0.16963,0.74751 -0.67424,1.3678 -1.34764,1.6947c-0.22108,0.67219 -0.71952,1.21848 -1.35992,1.50348c-0.36689,3.0285 -0.53007,5.9995 -1.08109,9.07685c0,0 -0.44721,2.45968 -2.90689,2.01246c-0.72661,-0.13211 -1.19955,-0.43984 -1.50528,-0.80791c-0.42451,0.33249 -0.95925,0.5307 -1.54028,0.5307c-1.31306,0 -2.3897,-1.01229 -2.49204,-2.29904l-0.31521,-3.46738l0.03728,-0.00339l-0.04498,-0.10967c-0.00057,-0.79738 -0.18545,-1.62779 -0.18784,-2.4255l-1.12915,1.12914l-0.12756,-0.40086c-0.34144,0.17494 -0.72839,0.27364 -1.1384,0.27364c-1.38071,0 -2.5,-1.11929 -2.5,-2.5c0,-0.29498 0,-3.60844 0,-3.90342c-0.381,0.23493 -0.82982,0.37047 -1.31029,0.37047c-1.28702,0 -2.3469,-0.97255 -2.48481,-2.22282l-0.31341,-2.50728l0.05644,-0.00706l-0.07092,-0.14769c-0.00815,-5.6146 0.96133,-11.09669 0.94774,-16.66658c0,0 0,-2.5 2.5,-2.5c2.5,0 2.5,2.5 2.5,2.5c-0.00528,2.43832 -0.19365,4.85351 -0.40192,7.26903c0.32619,-0.15598 0.69148,-0.24331 1.07716,-0.24331c1.38071,0 2.5,1.11929 2.5,2.5v2.5402c0.10381,0.45095 0.17881,0.90517 0.23098,1.36199c1.13698,0.23484 1.99169,1.24175 1.99169,2.44829v2.85771h-0.43739l-0.02397,0.14541c0.09045,0.40952 0.16933,0.82084 0.23505,1.23346c0.18736,-0.04484 0.38291,-0.06858 0.58401,-0.06858c0.02203,0 0.04398,0.00029 0.06588,0.00086c0.09873,-5.40644 -0.02568,-10.82881 -0.02568,-16.23477v-1.27009c0,0 0,-2.5 2.5,-2.5c2.5,0 2.5,2.5 2.5,2.5v1.27009c0,3.09589 0.04149,6.19741 0.05832,9.29826c0.30113,-0.56138 0.81041,-0.99443 1.42464,-1.19592c-0.06382,-3.49469 0.77913,-7.22602 1.1529,-10.60108l-0.01529,-0.04144c0,0 0,-2.5 2.5,-2.5z" fill="#9b00c4" stroke="none" stroke-width="0.5" stroke-linecap="butt"></path><path d="M166.8142,256.30064c-2.5,0 -2.5,-2.5 -2.5,-2.5v-0.31752c0,-3.89036 -0.0016,-7.78073 -0.00004,-11.67109c-0.34365,-0.38467 -0.57005,-0.87633 -0.62305,-1.41882l-0.31419,-2.82774l0.01756,-0.00195l-0.02188,-0.04019c-0.05799,-0.78098 -0.16473,-1.55402 -0.30051,-2.32125c-0.06047,0.40579 -0.11333,0.81104 -0.14077,1.21451c-0.25923,3.81107 -0.7246,7.57172 -0.48817,11.36235l0.18112,-0.02415l0.62961,4.72207c0.01803,0.12112 0.02737,0.24506 0.02737,0.3712c0,1.38071 -1.11929,2.5 -2.5,2.5c-1.2115,0 -2.22174,-0.86176 -2.45115,-2.00574l-0.62437,-2.80964l0.05231,-0.01163l-0.07516,-0.10402c-0.11261,-0.9062 -0.18564,-1.80766 -0.22775,-2.70625c-0.70862,-2.27672 -0.06369,-4.82659 0.13641,-7.28637c-0.33202,-0.00188 -0.64872,-0.06849 -0.9381,-0.18785c-0.29359,0.12108 -0.61527,0.18788 -0.95257,0.18788c-0.56101,0 -1.07886,-0.18479 -1.496,-0.49682l-0.51129,2.04519c-0.12033,0.53025 -0.40921,0.99647 -0.80732,1.33938c-0.23039,1.22724 -0.44703,2.46041 -0.64111,3.70353c-0.19141,1.22597 -0.08051,2.54872 -0.38018,3.7391c-0.0093,0.28063 -0.01458,0.55537 -0.01458,0.82315v3.81029c0,1.38071 -1.11929,2.5 -2.5,2.5c-1.31881,0 -2.39912,-1.02118 -2.49333,-2.31596l-0.31556,-3.78672l0.05137,-0.00428c-0.02137,-0.09459 -0.04096,-0.18975 -0.05866,-0.28551c-0.16767,-0.90725 -0.02266,-1.82069 0.19195,-2.73518c-0.21932,-3.43256 -0.55774,-7.82827 0.50933,-10.14344c0.05644,-0.12246 0.11593,-0.24303 0.17821,-0.36189l-0.05349,-0.02229l1.56534,-3.75681c0.17693,-0.45363 0.48251,-0.8429 0.87191,-1.12295c0.30545,-1.49697 0.60099,-2.99929 0.87065,-4.51416l0.15206,-0.19854l-0.07679,-0.02951l1.01528,-2.64218c0.3457,-0.96633 1.2694,-1.65775 2.35458,-1.65775c1.03174,0 1.91751,0.62499 2.29935,1.51703c0.31549,-0.15236 0.70716,-0.24693 1.19341,-0.24693c0.05079,0 0.10056,0.00103 0.14931,0.00305c0.07189,-1.32811 0.17658,-2.65483 0.32712,-3.97972l0.37832,-0.38332l-0.16763,-0.09579l1.24601,-2.18053c0.42441,-0.77572 1.24811,-1.30179 2.19468,-1.30179c1.1246,0 2.07576,0.74256 2.38994,1.76412l1.56291,4.68873l-0.40302,0.13433c1.13494,2.70391 1.96272,5.41296 2.49796,8.37395c0.67389,0.40456 1.14139,1.1177 1.20711,1.94401l0.31521,3.46737l-0.02716,0.00247c0.01182,0.03678 0.02345,0.07363 0.03486,0.11058c0.35493,1.14842 0.00209,2.40404 0.00257,3.60605c0.00155,3.91612 0,7.83226 0,11.74838v0.31752c0,0 0,2.5 -2.5,2.5z" fill="#9b00c4" stroke="none" stroke-width="0.5" stroke-linecap="butt"></path></g></g></svg>