<svg version="1.1" xmlns="http://www.w3.org/2000/svg" xmlns:xlink="http://www.w3.org/1999/xlink" width="126.71259" height="80.5" viewBox="0,0,126.71259,80.5"><g transform="translate(-190.44616,-140.3707)"><g data-paper-data="{&quot;isPaintingLayer&quot;:true}" fill-rule="nonzero" stroke-linejoin="miter" stroke-miterlimit="10" stroke-dasharray="" stroke-dashoffset="0" style="mix-blend-mode: normal"><path d="M282.53961,177.60209c0,-5.6369 4.56962,-10.20651 10.20652,-10.20651c5.6369,0 10.20651,4.56961 10.20651,10.20651c0,5.6369 -4.56961,10.20651 -10.20651,10.20651c-5.6369,0 -10.20652,-4.56961 -10.20652,-10.20651z" fill="#d8d8d8" stroke="#000000" stroke-width="1" stroke-linecap="butt"></path><path d="" data-paper-data="{&quot;index&quot;:null}" fill="none" stroke="#000000" stroke-width="1.5" stroke-linecap="round"></path><path d="" data-paper-data="{&quot;index&quot;:null}" fill="none" stroke="#000000" stroke-width="1.5" stroke-linecap="round"></path><path d="M301.68768,195.47554" data-paper-data="{&quot;index&quot;:null}" fill="none" stroke="#d8d8d8" stroke-width="4" stroke-linecap="round"></path><path d="M199.18372,180.6207c0,-21.81525 17.68475,-39.5 39.5,-39.5c21.81525,0 39.5,17.68475 39.5,39.5c0,21.81525 -17.68475,39.5 -39.5,39.5c-21.81525,0 -39.5,-17.68475 -39.5,-39.5z" data-paper-data="{&quot;index&quot;:null}" fill="#d8d8d8" stroke="#000000" stroke-width="1.5" stroke-linecap="butt"></path><path d="M243.28496,174.20032l11.07275,-4.59202" data-paper-data="{&quot;index&quot;:null}" fill="none" stroke="#000000" stroke-width="1.5" stroke-linecap="round"></path><path d="M249.19657,173.09156l-0.25511,5.86758" data-paper-data="{&quot;index&quot;:null}" fill="none" stroke="#000000" stroke-width="1.5" stroke-linecap="round"></path><path d="M225.51079,170.45509l14.45771,4.12252" data-paper-data="{&quot;index&quot;:null}" fill="none" stroke="#000000" stroke-width="1.5" stroke-linecap="round"></path><path d="M234.44135,178.41109l-0.21988,-5.35892" data-paper-data="{&quot;index&quot;:null}" fill="none" stroke="#000000" stroke-width="1.5" stroke-linecap="round"></path><path d="M252.45108,192.12344l-18.63798,-0.59168" fill="none" stroke="#000000" stroke-width="1.5" stroke-linecap="round"></path><g stroke="#000000" stroke-linecap="butt"><g data-paper-data="{&quot;index&quot;:null}"><path d="M221.0553,204.19105l-20.27333,7.40657c0,0 -3.9365,-0.92557 -4.2522,-1.97189c-0.31626,-1.04822 2.35635,-4.31171 2.35635,-4.31171l20.27333,-7.40657z" fill="#af5400" stroke-width="1.5"></path><path d="M227.53179,210.61528c0,0 -4.62947,3.50508 -7.52117,2.36975c-3.38756,-1.33002 -4.93728,-6.66956 -6.08006,-10.13547c-2.11838,-6.42447 -1.53564,-12.634 1.30156,-13.86939c1.3183,-0.57402 5.89339,-0.97613 5.89339,-0.97613c0,0 1.94542,6.93247 3.0795,10.37186c2.11838,6.42446 3.32678,12.23935 3.32678,12.23935z" fill="#989898" stroke-width="1"></path><path d="M227.86266,210.92932c-2.83721,1.23534 -6.85451,-2.97125 -8.9729,-9.39574c-2.11837,-6.42448 -1.53567,-12.63402 1.30154,-13.86937c2.83721,-1.23536 6.85453,2.97126 8.9729,9.39572c2.11837,6.42448 1.53566,12.63402 -1.30154,13.86937z" fill="#989898" stroke-width="1"></path><path d="M222.18147,196.55721l93.88699,-31.64485l-11.22937,9.9409l-81.15654,27.35404c0,0 -2.11249,-1.05351 -2.35963,-1.98393c-0.25302,-0.95242 0.85856,-3.6662 0.85856,-3.6662z" fill="#e6e6e6" stroke-width="0.5"></path></g><path d="M191.36155,209.27382c-1.58676,-5.40896 1.51173,-11.08011 6.92069,-12.66688c5.40896,-1.58676 11.08011,1.51173 12.66688,6.92069c1.58676,5.40896 -1.51173,11.08011 -6.92069,12.66688c-5.40896,1.58676 -11.08011,-1.51173 -12.66688,-6.92069z" fill="#d8d8d8" stroke-width="1"></path></g></g></g></svg>