<svg version="1.1" xmlns="http://www.w3.org/2000/svg" xmlns:xlink="http://www.w3.org/1999/xlink" width="311.54773" height="80.5" viewBox="0,0,311.54773,80.5"><g transform="translate(-439.75001,-139.75005)"><g stroke-miterlimit="10"><path d="M480.00001,219.50005c-21.81525,0 -39.5,-17.68475 -39.5,-39.5c0,-21.81525 17.68475,-39.5 39.5,-39.5c21.81525,0 39.5,17.68475 39.5,39.5c0,21.81525 -17.68475,39.5 -39.5,39.5z" fill="#d8d8d8" stroke="#000000" stroke-width="1.5" stroke-linecap="butt"/><path d="" fill="none" stroke="#000000" stroke-width="1.5" stroke-linecap="round"/><path d="" fill="none" stroke="#000000" stroke-width="1.5" stroke-linecap="round"/><path d="M508.71282,168.34944l-20.61587,5.97561" fill="none" stroke="#000000" stroke-width="1.5" stroke-linecap="round"/><path d="M459.11523,168.05064l23.60367,6.27439" fill="none" stroke="#000000" stroke-width="1.5" stroke-linecap="round"/><path d="M480.56161,178.50793c0,-0.82843 0.67157,-1.5 1.5,-1.5c0.82843,0 1.5,0.67157 1.5,1.5c0,0.82843 -0.67157,1.5 -1.5,1.5c-0.82843,0 -1.5,-0.67157 -1.5,-1.5z" fill="#000000" stroke="none" stroke-width="0.5" stroke-linecap="butt"/><path d="M497.59211,178.20914c0,-0.82843 0.67158,-1.5 1.5,-1.5c0.82842,0 1.5,0.67157 1.5,1.5c0,0.82843 -0.67158,1.5 -1.5,1.5c-0.82842,0 -1.5,-0.67157 -1.5,-1.5z" fill="#000000" stroke="none" stroke-width="0.5" stroke-linecap="butt"/><path d="M486.24454,198.37684c0,0 1.8465,-6.57318 3.58538,-6.57318c1.34692,0 4.18292,6.57318 4.18292,6.57318" fill="none" stroke="#000000" stroke-width="1.5" stroke-linecap="round"/><path d="" fill="none" stroke="#000000" stroke-width="1.5" stroke-linecap="round"/><path d="" fill="none" stroke="#000000" stroke-width="1.5" stroke-linecap="round"/><path d="" fill="none" stroke="#000000" stroke-width="1.5" stroke-linecap="round"/><path d="" fill="none" stroke="#000000" stroke-width="1.5" stroke-linecap="round"/><path d="M719.3962,154.2112c1.69961,-0.51042 3.5309,-0.92493 4.62309,-0.67855c0.31894,0.07194 0.64242,0.15474 0.96482,0.25067l0.91512,-2.29897c0.2624,-0.673 0.81292,-1.22752 1.55311,-1.46945c1.31238,-0.42896 2.72403,0.28719 3.15299,1.59958c0.07697,0.23549 0.11707,0.47417 0.12347,0.7098l0.24535,4.93664l-0.11856,0.0059c0.03655,0.12101 0.07308,0.24203 0.10963,0.36306l-0.19667,0.33011l0.13352,0.03351l-0.19685,0.78447c0.36497,0.21305 0.67723,0.51869 0.89788,0.89717c0.06607,-0.06076 0.13447,-0.11949 0.20538,-0.17601c0.11061,-0.08815 0.22436,-0.17076 0.34092,-0.24841l-0.04093,-0.04895l2.02211,-1.69085c0.24635,-0.21587 0.53945,-0.38659 0.87048,-0.49479c0.39781,-0.13003 0.80473,-0.15484 1.19065,-0.08972c0.1282,-0.11635 0.21534,-0.19538 0.25152,-0.22888l3.12421,-2.99456c0.2691,-0.26928 0.60398,-0.48093 0.99061,-0.6073c0.08019,-0.02621 0.16077,-0.04815 0.24146,-0.06594c0.07563,-0.0333 0.1536,-0.06319 0.23379,-0.0894c1.31238,-0.42896 2.72403,0.28719 3.15299,1.59958c0.20087,0.61454 0.15064,1.25083 -0.0943,1.7978l-2.02078,4.56296l-0.03762,-0.01667c-0.02407,0.08026 -0.04906,0.16031 -0.07505,0.24013c-0.01905,0.05855 -1.72518,2.46002 -3.2817,4.64438c0.23581,0.25574 0.42176,0.56505 0.5369,0.91732c0.23238,0.71097 0.1287,1.45105 -0.22377,2.04826l-2.3958,4.10259c-0.35793,0.60128 -0.7232,1.20238 -1.10305,1.79446c0.96573,-0.59221 1.93982,-1.16092 3.0315,-1.39939c0.06249,-0.01365 0.12505,-0.02678 0.18768,-0.0394l-0.00874,-0.02675l4.75257,-1.55341c0.66601,-0.21769 1.35757,-0.14047 1.93329,0.15991l2.461,-0.98232c0.05609,-0.02293 0.11343,-0.04402 0.17194,-0.06314c1.31238,-0.42896 2.72403,0.28719 3.15299,1.59958c0.32944,1.00791 -0.01653,2.07436 -0.78928,2.70926l-3.71354,3.19643c-3.38882,3.19558 -6.64815,6.77753 -10.22795,9.74497c-4.67617,3.87626 -10.13568,6.59116 -14.46484,10.89257c0,0 -1.77806,1.75741 -3.53547,-0.02064c-1.75741,-1.77806 0.02064,-3.53547 0.02064,-3.53547c2.12628,-2.09185 4.49243,-3.8252 6.90531,-5.49628c-0.52371,-0.29639 -0.94264,-0.78164 -1.14433,-1.39869c-0.33936,-1.03826 0.03798,-2.13864 0.86024,-2.76543l3.29045,-2.63205c0.19997,-0.24614 0.41226,-0.48938 0.63533,-0.7299c-0.15172,-0.2075 -0.27377,-0.44211 -0.35797,-0.69969c-0.1385,-0.42372 -0.15762,-0.85779 -0.07586,-1.26579l0.87737,-4.87469l0.03841,0.00691c0.02219,-0.14333 0.04759,-0.28637 0.07649,-0.42909c0.17637,-0.87119 0.61414,-1.6438 1.12099,-2.39036c-0.01073,-0.08936 -0.01652,-0.17856 -0.01756,-0.26729c-0.0921,-0.12894 -0.17282,-0.26809 -0.2403,-0.41649l-1.28487,2.11338c-0.29871,0.49804 -0.77136,0.89486 -1.36672,1.08946c-1.31238,0.42896 -2.72403,-0.28719 -3.15299,-1.59958c-0.23774,-0.72735 -0.12375,-1.48519 0.24854,-2.08933l0.89721,-1.47575c-0.2749,0.01826 -0.54203,-0.04645 -0.79688,-0.2242c-1.23327,-0.86021 -1.61467,-2.37625 -1.90322,-3.96377c-1.43704,0.49536 -2.95991,0.91174 -4.50073,1.30079c0.00312,0.11473 -0.00148,0.23144 -0.01442,0.35031c-0.20749,1.90547 -3.23521,2.08125 -4.97982,2.87509c-3.03401,1.38056 -6.3328,2.0834 -9.50514,3.10682c-1.07879,0.34802 -2.10995,1.07964 -3.24221,1.02578c-0.13393,-0.00638 -0.26735,-0.01624 -0.40029,-0.02927l-0.00035,0.05922l-3.10458,-0.01813c-1.06861,0.01876 -2.06994,-0.65464 -2.41933,-1.72359c-0.28788,-0.88076 -0.06001,-1.80622 0.5177,-2.44936l1.88024,-2.16787l0.18344,0.1591l0.31572,-0.59939c0.38509,-0.14007 0.76206,-0.30427 1.13389,-0.4833c-0.04074,-0.36954 0.00277,-0.73604 0.11849,-1.07576c-0.71877,-0.24492 -1.31762,-0.81309 -1.5717,-1.59044c-0.38986,-1.19274 0.16613,-2.46746 1.25592,-3.01198l2.65977,-1.38828l0.04193,0.08034l0.14481,-0.1682c2.42442,-0.79684 4.84912,-1.59285 7.27434,-2.38731c-0.36872,-0.20102 -0.7574,-0.40811 -1.17131,-0.61934l-0.1445,-0.2199l-0.05911,0.07466l-2.76113,-2.18596c-0.38567,-0.29619 -0.68914,-0.70776 -0.85163,-1.20487c-0.42896,-1.31238 0.28719,-2.72403 1.59958,-3.15299c0.55331,-0.18085 1.12427,-0.15816 1.63178,0.02695l4.69227,1.65869c2.52055,0.36797 5.07693,1.18786 7.60005,2.16467z" fill="#959595" stroke="none" stroke-width="0.5" stroke-linecap="butt"/><path d="M725.65591,164.68074c1.04854,1.06087 0.83853,2.11436 0.49852,2.79166c1.67517,0.15018 3.35033,0.30035 5.02549,0.45052l-2.94022,5.1389c-0.19898,0.18527 -0.39426,0.37153 -0.58631,0.55861c0.49848,-0.16291 0.99697,-0.32583 1.49545,-0.48875c1.57558,-0.62356 3.13738,-1.74505 4.8186,-1.57488l0.01515,0.00169c0.83025,0.10064 0.822,1.4834 1.23681,2.21926l0.30145,2.53163c-2.49291,0.81483 -4.98578,1.62978 -7.47868,2.44466c0.41795,-0.03232 0.84701,-0.06225 1.28866,-0.09027c-0.47738,0.15818 -0.95009,0.32672 -1.41334,0.51565c-0.32746,1.22546 -0.6549,2.45091 -0.98236,3.67637c0.22432,0.00407 0.44866,0.01117 0.67301,0.02072l-0.63017,1.16566c-0.17457,0.10354 -0.34914,0.20708 -0.52371,0.31062l1.94545,0.7364c-0.65657,0.88952 -1.00781,2.12351 -1.96971,2.66856c-0.38766,0.21967 -0.80545,0.35842 -1.23899,0.45617l-1.02005,2.22327c-0.14597,0.08088 -0.29095,0.16361 -0.43475,0.24851c-1.35123,0.79782 -2.31513,2.43398 -3.86329,2.69001c-0.20834,0.03445 -0.38111,-0.03229 -0.53241,-0.16015l-4.13195,1.17142c0.11283,-0.73301 0.25524,-1.45258 0.6622,-2.052c0.4972,-0.73233 1.13386,-1.34569 1.81117,-1.92438c-0.65721,0.27562 -1.31558,0.5623 -1.97337,0.85923c0.30615,-0.66853 0.6616,-1.30532 1.1309,-1.86881c0.74292,-0.89202 2.27152,-1.87452 3.90785,-2.7773l0.42802,-1.35755c-2.06857,1.36995 -4.16756,2.76081 -6.27352,3.64331c-0.86925,0.36426 -1.76225,0.66249 -2.66612,0.93052c-2.36935,1.71017 -4.60595,3.60667 -6.78574,5.55256c-0.78146,0.69761 -1.41717,1.68335 -2.4103,2.01655c-1.05913,0.35534 -2.23359,-0.05588 -3.3504,-0.08382l-0.83737,-1.84859c0.14306,-0.17793 0.28654,-0.35397 0.43054,-0.52822c1.907,-1.36992 3.87635,-2.5558 5.89282,-3.64496c-0.52886,-0.2823 -1.01793,-0.64197 -1.42481,-1.05856c1.10412,-1.0104 2.27585,-1.98789 3.54553,-2.96585c-0.04496,-0.08504 -0.04587,-0.17572 0.01389,-0.26749c0.80056,-1.22919 1.46536,-1.93526 2.1994,-2.46041c0.20299,-0.27775 0.40881,-0.55311 0.61928,-0.82453c-1.4748,0.02722 -2.95406,-0.02337 -4.43053,-0.02525c1.18615,-1.9646 3.66578,-6.02197 4.21943,-6.92935l0.4617,-0.11776c-0.25926,-0.02251 -0.51852,-0.04501 -0.77779,-0.06753c0.2923,-0.24871 0.58305,-0.5019 0.87362,-0.75637l1.14733,-0.45817c-0.19544,-0.00731 -0.39081,-0.01872 -0.5863,-0.03376c1.39236,-1.21943 2.80044,-2.42039 4.37296,-3.24942c-0.82375,-0.16565 -1.6475,-0.3313 -2.47125,-0.49695l0.58523,-0.64026c0.83103,0.26685 1.65476,0.55055 2.46988,0.8507c0.78228,-0.35503 1.6074,-0.61265 2.49229,-0.7327l-0.79483,-1.03116c0.00027,-0.0111 0.00055,-0.0222 0.00082,-0.0333c-0.85828,0.07282 -2.19996,0.1865 -3.57986,0.30285l2.92889,-3.20426c0.93733,0.294 1.87467,0.58799 2.812,0.88198c0.06862,-0.369 0.13725,-0.738 0.20587,-1.107l0.94119,-1.01257l3.61973,1.46836c0.51183,0.04588 1.02367,0.09177 1.5355,0.13766c-0.22987,0.45789 -0.51916,0.74381 -0.51916,0.74381l-1.11826,0.92489c-0.45382,-0.05814 -0.90765,-0.1163 -1.36147,-0.17444c-0.33219,0.21845 -0.6644,0.43689 -0.99659,0.65533c-0.28875,0.83509 -0.55759,1.68108 -0.87135,2.50247l-2.20551,0.00215c0.034,-0.18281 0.06799,-0.36562 0.10199,-0.54843c-0.06794,0.04468 -0.13588,0.08936 -0.20383,0.13403l-0.2674,-0.3469l0.16165,1.23837l2.14646,0.18327c-0.1338,0.31427 -0.27713,0.62332 -0.43382,0.92505c0.05559,0.02588 0.11113,0.05184 0.1666,0.07787l-0.24887,0.07755c-0.12386,0.22953 -0.25598,0.45454 -0.39811,0.67406l-2.0532,0.49074l-1.38931,2.06639c0.19373,-0.05275 0.38953,-0.10582 0.58746,-0.15979c-1.02514,0.81218 -2.17887,1.72366 -3.14806,2.48865l-0.12056,0.25492c-0.06713,0.11084 -0.2392,0.39524 -0.48036,0.79367c1.61387,-1.10865 3.38806,-2.03959 4.71258,-3.46667c0.14079,-0.15169 0.28004,-0.30481 0.41798,-0.45915c0.35226,-0.10363 0.71097,-0.21374 1.0764,-0.33323c2.64782,-0.86574 5.29573,-1.7312 7.94366,-2.59661c-0.06813,0.06637 -0.13586,0.13285 -0.2032,0.19943c0.54237,-0.22992 1.08714,-0.45131 1.63447,-0.66305c0.0214,-0.00828 0.0428,-0.01665 0.06419,-0.02513c1.6062,-0.52495 3.21241,-1.04988 4.8186,-1.57488c0.00508,0.00052 0.01014,0.00107 0.01515,0.00169l5.98938,0.66585c-1.4837,1.36167 -2.73671,3.02846 -4.45112,4.08504c-1.88016,1.15871 -4.08075,1.65546 -6.19003,2.35438c0.18887,-0.01198 0.38004,-0.02361 0.57364,-0.03493l-2.29632,4.24767c1.81793,0.07741 3.63682,0.31594 5.45484,0.40881l-4.9589,5.23032c-1.30641,0.64905 -2.65792,1.21498 -3.93312,1.92154l-0.77138,1.6813c-1.53489,1.31079 -3.24121,2.89141 -3.58433,4.88046c0,0 -0.55657,2.43726 -2.99383,1.88069c-2.43726,-0.55657 -1.88069,-2.99383 -1.88069,-2.99383c0.12644,-0.48273 0.19013,-0.99397 0.26784,-1.49884l-0.89818,0.25464c0.5243,-1.08642 0.89456,-2.27204 1.39819,-3.37178c-5.06577,2.28664 -10.09768,5.18043 -14.30693,8.3027l-5.89042,0.49943c1.11948,-1.68363 2.21711,-3.19783 3.34066,-4.59524l-0.07297,-0.16109c0.16734,-0.12385 0.33519,-0.2462 0.50351,-0.36712c1.40884,-1.70481 2.86738,-3.23875 4.46801,-4.70352c-0.42189,-0.43196 -0.7554,-0.9251 -0.95325,-1.4566c-0.55493,-1.4908 1.54132,-2.78351 2.34406,-4.15684c0.10262,-0.17557 0.2992,-0.50349 0.55677,-0.93009c-0.28195,-0.00036 -0.56381,0.00106 -0.84553,0.00513l3.79596,-6.33472c0.32056,-0.25376 0.63763,-0.51679 0.9529,-0.78505c-0.27941,-0.02426 -0.55883,-0.04851 -0.83825,-0.07277l1.71187,-0.68361c0.18697,-0.16374 0.37386,-0.328 0.56103,-0.49193c-2.27,-0.17472 -4.55412,-0.83997 -7.11184,-1.2707c-4.6994,-0.79139 -7.80509,-1.34532 -12.54908,-0.99036l-7.63504,-1.75596c2.2479,-1.32914 4.35472,-2.93271 6.74371,-3.98742c2.90309,-1.28166 6.34118,-1.73648 9.77974,-1.9908c0.17155,-0.0879 0.34505,-0.17231 0.52075,-0.25283c0.6031,-0.27639 1.29106,-0.03875 1.97281,0.09428c0.6994,-0.0398 1.39335,-0.07756 2.07723,-0.11867c1.12703,-0.21461 2.23861,-0.52844 3.36294,-0.76038l3.92525,0.68179c2.15901,-0.13291 4.41028,0.11129 6.55913,-0.06121l2.31761,0.94014l1.12125,-1.2063c0,0 1.77806,-1.75741 3.53547,0.02064zM717.25172,176.93884c0.44936,-0.12253 0.90968,-0.24974 1.3816,-0.38858c0.60281,-0.67447 1.18068,-1.37226 1.75252,-2.07548l-0.27906,0.0667c-0.05257,0.0812 -0.10652,0.16165 -0.16191,0.2413c-0.02656,0.03818 -1.22862,0.99577 -2.69314,2.15604zM721.02096,172.78696l0.68649,0.05862c0.19808,-0.24195 0.39718,-0.4829 0.59809,-0.72211l-1.01794,0.00099c-0.08514,0.22288 -0.17358,0.44395 -0.26664,0.6625zM720.75375,173.78989c0.04516,0.02119 0.09027,0.04244 0.13535,0.06374c0.03817,-0.04719 0.07633,-0.0944 0.11449,-0.14159zM715.21656,177.07425l-0.23938,0.50617c0.45624,-0.1411 0.92451,-0.27294 1.40567,-0.40492c-0.38876,-0.03375 -0.77753,-0.0675 -1.16629,-0.10125zM714.11124,170.30823c-0.71258,0.06008 -1.43535,0.12088 -2.107,0.17711c0.50872,0.14924 1.01506,0.30478 1.51871,0.4665z" fill="#c0c0c0" stroke="none" stroke-width="0.5" stroke-linecap="butt"/><path d="M701.12769,184.57378c-0.43594,0.48194 -0.88384,0.72527 -1.30802,0.8215c-0.92863,1.06552 -1.80802,2.10714 -2.73434,3.06929c1.0738,-0.28638 2.13977,-0.52736 3.24836,-0.71541l-0.13722,-0.4198l2.85154,-0.93205c0.23094,-0.07548 0.46494,-0.11551 0.69612,-0.12306l-0.03436,-0.07292l3.61105,-1.70118c0.10352,-0.05062 0.21177,-0.09468 0.32441,-0.1315c1.31238,-0.42896 2.72403,0.28719 3.15299,1.59958c0.36708,1.12305 -0.1044,2.31879 -1.07046,2.90923l-2.34221,1.50376c-0.97878,0.70254 -2.8649,2.1592 -4.72863,3.35296l-0.26932,0.19955c-0.07144,0.22481 -0.17428,0.43856 -0.30512,0.63451l-1.0581,1.61451c3.42593,-1.6862 6.88649,-3.29063 10.42519,-4.63837c2.52734,-0.96254 5.02147,-2.23955 7.711,-2.5231l4.75257,-1.55341c1.31238,-0.42896 2.72403,0.28719 3.15299,1.59958c0.40161,1.2287 -0.20051,2.5444 -1.35593,3.05922l-3.20149,1.47999c-7.33789,3.39214 -14.57911,7.48485 -22.24924,10.00909c0,0 -1.29515,0.42333 -2.28566,-0.31123c-1.97228,1.00184 -3.94017,2.00068 -5.91255,2.95971l-2.63077,1.37316c-0.13245,0.07214 -0.27333,0.13327 -0.42185,0.18182c-1.31238,0.42896 -2.72403,-0.28719 -3.15299,-1.59958c-0.29149,-0.89178 -0.05422,-1.82939 0.53956,-2.47337l3.29094,-3.70105l0.30337,0.26975c0.74381,-1.06337 1.55145,-2.0352 2.51038,-2.98278c-0.10883,-0.17194 -0.19829,-0.36003 -0.2644,-0.5623c-0.1091,-0.33379 -0.14413,-0.674 -0.11411,-1.00283l-0.59653,0.49881c-0.24635,0.21587 -0.53945,0.38659 -0.87048,0.49479c-1.31238,0.42896 -2.72403,-0.28719 -3.15299,-1.59958c-0.21448,-0.6562 -0.14269,-1.3372 0.14678,-1.90778l2.26214,-4.459l0.04152,0.02106c0.04713,-0.11233 0.09635,-0.22397 0.14779,-0.33483c1.44462,-3.11376 4.69486,-5.00924 6.99913,-7.5534l3.85197,0.11558c0,0 1.85403,1.67708 0.17695,3.53111z" fill="#cccccc" stroke="none" stroke-width="0.5" stroke-linecap="butt"/></g></g></svg>