<svg version="1.1" xmlns="http://www.w3.org/2000/svg" xmlns:xlink="http://www.w3.org/1999/xlink" width="145.46617" height="80.5" viewBox="0,0,145.46617,80.5"><g transform="translate(-134.78387,-139.75)"><g data-paper-data="{&quot;isPaintingLayer&quot;:true}" fill-rule="nonzero" stroke="#000000" stroke-linejoin="miter" stroke-miterlimit="10" stroke-dasharray="" stroke-dashoffset="0" style="mix-blend-mode: normal"><path d="" data-paper-data="{&quot;index&quot;:null}" fill="none" stroke-width="1.5" stroke-linecap="round"></path><path d="" data-paper-data="{&quot;index&quot;:null}" fill="none" stroke-width="1.5" stroke-linecap="round"></path><path d="" data-paper-data="{&quot;index&quot;:null}" fill="none" stroke-width="1.5" stroke-linecap="round"></path><path d="" data-paper-data="{&quot;index&quot;:null}" fill="none" stroke-width="1.5" stroke-linecap="round"></path><path d="" data-paper-data="{&quot;index&quot;:null}" fill="none" stroke-width="1.5" stroke-linecap="round"></path><path d="" data-paper-data="{&quot;index&quot;:null}" fill="none" stroke-width="1.5" stroke-linecap="round"></path><path d="M200.50004,180c0,-21.81525 17.68475,-39.5 39.5,-39.5c21.81525,0 39.5,17.68475 39.5,39.5c0,21.81525 -17.68475,39.5 -39.5,39.5c-21.81525,0 -39.5,-17.68475 -39.5,-39.5z" fill="#6e6e6e" stroke-width="1.5" stroke-linecap="butt"></path><path d="M202.85559,181.6599c0,0 -2.28148,-3.48635 -2.28148,-5.83045c0,-2.68059 2.28148,-9.37942 2.28148,-9.37942c0,0 25.76053,3.29547 38.0247,3.29547c12.45976,0 36.15636,-3.29547 36.15636,-3.29547c0,0 0.32325,0.8142 0.73295,2.06366c1.27619,3.89191 3.39127,12.00691 -0.81086,12.89272c-2.60416,0.54896 -18.81959,2.66663 -35.57172,2.60715c-18.95763,-0.06731 -38.53144,-2.35365 -38.53144,-2.35365z" fill="#d0d0d0" stroke-width="0" stroke-linecap="butt"></path><path d="M236.63055,177.89852l-16.34335,-9.20811" fill="none" stroke-width="1.5" stroke-linecap="round"></path><path d="M228.96588,174.81546l-0.2535,3.54897" fill="none" stroke-width="1.5" stroke-linecap="round"></path><path d="M259.27027,170.152l-13.96519,6.03143" fill="none" stroke-width="1.5" stroke-linecap="round"></path><path d="M251.52719,174.05496v5.06996" fill="none" stroke-width="1.5" stroke-linecap="round"></path><path d="" data-paper-data="{&quot;index&quot;:null}" fill="none" stroke-width="1.5" stroke-linecap="round"></path><path d="" data-paper-data="{&quot;index&quot;:null}" fill="none" stroke-width="1.5" stroke-linecap="round"></path><path d="" data-paper-data="{&quot;index&quot;:null}" fill="none" stroke-width="1.5" stroke-linecap="round"></path><path d="" data-paper-data="{&quot;index&quot;:null}" fill="none" stroke-width="1.5" stroke-linecap="round"></path><path d="" data-paper-data="{&quot;index&quot;:null}" fill="none" stroke-width="1.5" stroke-linecap="round"></path><path d="" data-paper-data="{&quot;index&quot;:null}" fill="none" stroke-width="1.5" stroke-linecap="round"></path><path d="M134.78387,186.95811c0,0 6.78299,-7.85993 20.54744,-8.36068c5.67348,-0.2064 24.76018,6.71287 24.76018,6.71287l22.51361,4.1801l-3.21624,12.888l-21.12037,-6.79187z" fill="#bebebe" stroke-width="0" stroke-linecap="butt"></path></g></g></svg>