<svg version="1.1" xmlns="http://www.w3.org/2000/svg" xmlns:xlink="http://www.w3.org/1999/xlink" width="95.21582" height="80.5" viewBox="0,0,95.21582,80.5"><g transform="translate(-184.02269,-137.92395)"><g data-paper-data="{&quot;isPaintingLayer&quot;:true}" fill-rule="nonzero" stroke-linejoin="miter" stroke-miterlimit="10" stroke-dasharray="" stroke-dashoffset="0" style="mix-blend-mode: normal"><path d="M199.48852,178.17395c0,-21.81525 17.68475,-39.5 39.5,-39.5c21.81525,0 39.5,17.68475 39.5,39.5c0,21.81525 -17.68475,39.5 -39.5,39.5c-21.81525,0 -39.5,-17.68475 -39.5,-39.5z" fill="#d8d8d8" stroke="#000000" stroke-width="1.5" stroke-linecap="butt"></path><path d="M217.09443,165.86411l9,1v8" fill="none" stroke="#000000" stroke-width="1.5" stroke-linecap="round"></path><path d="M232.53459,174.67749v-8l9,-1" data-paper-data="{&quot;index&quot;:null}" fill="none" stroke="#000000" stroke-width="1.5" stroke-linecap="round"></path><path d="M230.98852,198.04895c0,0 0.3445,-8.61004 5.78628,-9.03188c5.30472,-0.41122 12.46372,8.03188 12.46372,8.03188z" fill="#040404" stroke="#000000" stroke-width="1.5" stroke-linecap="round"></path><g stroke="#000000" stroke-width="1"><path d="M210.59247,216.43573l-2.19219,-20.88527l8.20492,-0.86122l2.19219,20.88527z" fill="#af5400" stroke-linecap="butt"></path><path d="M217.43554,204.45593c0,0 -3.46976,-0.42035 -4.96993,-1.33291c-1.35049,-0.82149 -3.62935,-3.89799 -3.62935,-3.89799" fill="none" stroke-linecap="round"></path><path d="M216.98173,199.17445c0,0 -1.59039,3.48263 -2.74087,4.56662c-1.278,1.20416 -4.58486,2.33581 -4.58486,2.33581" data-paper-data="{&quot;index&quot;:null}" fill="none" stroke-linecap="round"></path><path d="M217.97457,204.80155c0,0 -1.59039,3.48263 -2.74087,4.56662c-1.278,1.20416 -4.58486,2.33581 -4.58486,2.33581" data-paper-data="{&quot;index&quot;:null}" fill="none" stroke-linecap="round"></path><path d="M218.30254,210.80009c0,0 -3.46976,-0.42036 -4.96994,-1.33291c-1.35049,-0.82149 -3.62935,-3.89799 -3.62935,-3.89799" data-paper-data="{&quot;index&quot;:null}" fill="none" stroke-linecap="round"></path><path d="M221.13364,192.79251c0.1326,1.26331 -3.58922,2.68937 -8.31291,3.18518c-4.7237,0.49581 -8.66051,-0.12637 -8.79311,-1.38968c-0.1326,-1.26331 3.58922,-2.68937 8.31291,-3.18518c4.7237,-0.49581 8.66051,0.12637 8.79311,1.38968z" fill="#8f8f8f" stroke-linecap="butt"></path><path d="M209.0723,192.68284l-5.08901,-48.48365c0,0 2.00438,-1.46726 3.10175,-1.58244c1.1388,-0.11953 3.61137,0.87781 3.61137,0.87781l5.08901,48.48365z" fill="#dddddd" stroke-linecap="butt"></path></g><path d="M184.45281,168.44994c1.6626,-2.37425 6.37286,-3.38859 8.67262,-1.21796c2.15207,2.03124 0.90696,5.01221 0.49624,7.20859c-0.63392,3.39005 -0.02766,7.05946 -0.72005,10.32815l0.18333,2.56668c0.00543,0.06724 0.00819,0.13522 0.00819,0.20386c0,1.38071 -1.11929,2.5 -2.5,2.5c-0.99801,0 -1.85943,-0.58479 -2.26029,-1.43041l-1.31368,-2.62736l0.04155,-0.02077l-0.09285,-0.08835c-1.02822,-2.68601 -1.60592,-5.29689 -2.25102,-8.09193c0,0 -0.08571,-0.37142 -0.04517,-0.85767c-0.36943,-0.43576 -0.59224,-0.99974 -0.59224,-1.61577v-2.86694c0.12446,-1.33004 -0.39288,-2.8959 0.37337,-3.99013z" fill="#00ff22" stroke="none" stroke-width="0.5" stroke-linecap="butt"></path></g></g></svg>