<svg version="1.1" xmlns="http://www.w3.org/2000/svg" xmlns:xlink="http://www.w3.org/1999/xlink" width="253.92234" height="156.48277" viewBox="0,0,253.92234,156.48277"><g transform="translate(-21.95018,-117.13017)"><g data-paper-data="{&quot;isPaintingLayer&quot;:true}" fill-rule="nonzero" stroke="#000000" stroke-linejoin="miter" stroke-miterlimit="10" stroke-dasharray="" stroke-dashoffset="0" style="mix-blend-mode: normal"><g stroke-width="1.5"><g><path d="M197.26015,272.86293c-42.79705,-0.20462 -77.32506,-35.06436 -77.12044,-77.86142c0.20462,-42.79705 35.06436,-77.32507 77.86142,-77.12044c42.79705,0.20462 77.32507,35.06434 77.12048,77.86143c-0.20462,42.79705 -35.06434,77.32507 -77.86142,77.12044z" fill="#d8d8d8" stroke-linecap="butt"></path><path d="M168.63325,173.62875l27.48318,9.14021" fill="none" stroke-linecap="round"></path><path d="M181.66363,181.50559l0.44544,11.5134" fill="none" stroke-linecap="round"></path><path d="M202.62744,181.79912l15.05022,-7.43538" fill="none" stroke-linecap="round"></path><path d="M173.77287,222.42134l46.09988,0.71088" fill="none" stroke-linecap="round"></path></g><path d="M210.66363,180.50559l0.44544,11.5134" fill="none" stroke-linecap="round"></path></g><g data-paper-data="{&quot;index&quot;:null}" stroke-linecap="butt"><path d="M68.86926,161.69147l-40.46706,-8.20646c0,0 -5.98939,-5.40791 -5.69125,-7.48112c0.29762,-2.06951 7.47865,-4.94702 7.47865,-4.94702l40.46706,8.20646z" fill="#af5400" stroke-width="1.5"></path><path d="M78.5451,132.91399c0,0 -0.62118,11.34478 -2.78923,24.10305c-1.16056,6.83022 -2.85603,20.49987 -2.85603,20.49987c0,0 -8.55636,-0.70849 -11.21427,-1.41696c-5.72021,-1.52461 -8.81235,-11.8456 -6.64443,-24.60387c1.16945,-6.88285 2.4661,-16.79747 8.49301,-20.28289c5.14463,-2.97522 15.01085,1.70073 15.01085,1.70073z" fill="#989898" stroke-width="1"></path><path d="M77.19469,131.90651c5.72013,1.52458 8.5998,13.10314 6.43187,25.86142c-2.16797,12.75821 -8.56266,21.86502 -14.28277,20.34041c-5.72018,-1.52455 -8.5998,-13.10314 -6.43187,-25.86142c2.16799,-12.75829 8.56266,-21.86502 14.28281,-20.34048z" fill="#989898" stroke-width="1"></path><path d="M70.56271,160.71765c0,0 -2.87939,-4.81497 -2.67339,-6.68888c0.2012,-1.83063 3.89537,-4.42802 3.89537,-4.42802l161.33768,28.5098l24.08583,15.58892l-186.64554,-32.98194z" fill="#e6e6e6" stroke-width="0.5"></path></g></g></g></svg>