<svg version="1.1" xmlns="http://www.w3.org/2000/svg" xmlns:xlink="http://www.w3.org/1999/xlink" width="95.90159" height="80.50183" viewBox="0,0,95.90159,80.50183"><g transform="translate(-252.02767,-82.87613)"><g data-paper-data="{&quot;isPaintingLayer&quot;:true}" fill-rule="nonzero" stroke-linejoin="miter" stroke-miterlimit="10" stroke-dasharray="" stroke-dashoffset="0" style="mix-blend-mode: normal"><g data-paper-data="{&quot;index&quot;:null}"><path d="M338.03853,116.30053c-1.46623,0.89043 -3.55536,0.12941 -4.66624,-1.6998c-1.11088,-1.82922 -0.82284,-4.03391 0.64339,-4.92434c1.46623,-0.89043 3.55537,-0.12942 4.66625,1.6998c1.11088,1.82922 0.82283,4.03391 -0.6434,4.92434z" fill="none" stroke="#000000" stroke-width="0.5" stroke-linecap="butt"></path><path d="M338.50824,115.72279l2.85492,4.70101l-4.62452,2.80848l-9.3434,-15.38508c0,0 8.44218,-8.4803 15.75763,-9.56964c2.40099,-0.35753 3.38206,2.28401 3.38206,2.28401c0,0 1.46994,2.85048 0.64079,4.34012c-1.23423,2.2174 -11.64694,7.07322 -11.64694,7.07322z" fill="#989898" stroke="#000000" stroke-width="1" stroke-linecap="round"></path><path d="M334.77595,106.87475l-1.94654,-3.20523l3.2543,-1.97634l1.94653,3.20522z" fill="#00f6ff" stroke="none" stroke-width="0" stroke-linecap="butt"></path><path d="M330.75353,109.90255l-1.94654,-3.20522l3.2543,-1.97634l1.94653,3.20522z" fill="#00f6ff" stroke="none" stroke-width="0" stroke-linecap="butt"></path><path d="M339.05791,104.2743l-1.94654,-3.20523l3.2543,-1.97634l1.94653,3.20522z" fill="#00f6ff" stroke="none" stroke-width="0" stroke-linecap="butt"></path></g><g stroke="#000000" stroke-width="1.5"><path d="M317.68946,153.36838c-16.70182,14.03404 -41.61815,11.87137 -55.6522,-4.83046c-14.03404,-16.70182 -11.87137,-41.61815 4.83045,-55.6522c16.70182,-14.03404 41.61815,-11.87137 55.6522,4.83045c14.03404,16.70182 11.87137,41.61815 -4.83045,55.6522z" data-paper-data="{&quot;index&quot;:null}" fill="#d8d8d8" stroke-linecap="butt"></path><path d="M303.63035,110.16488l-5.14652,-6.12483l6.24712,-6.55542" data-paper-data="{&quot;index&quot;:null}" fill="none" stroke-linecap="round"></path><path d="M282.89216,116.46891l7.53374,-5.02422l5.14652,6.12482" data-paper-data="{&quot;index&quot;:null}" fill="none" stroke-linecap="round"></path><path d="M314.27459,124.64559l-6.10111,4.8647" fill="none" stroke-linecap="round"></path></g><g data-paper-data="{&quot;index&quot;:null}"><path d="M283.85433,153.13595c-1.63848,1.37675 -4.0828,1.1646 -5.45956,-0.47387c-1.37675,-1.63848 -1.1646,-4.0828 0.47388,-5.45956c1.63848,-1.37675 4.0828,-1.1646 5.45956,0.47387c1.37675,1.63848 1.1646,4.0828 -0.47388,5.45956z" fill="none" stroke="#000000" stroke-width="0.5" stroke-linecap="butt"></path><path d="M284.36342,152.38165l3.53823,4.21081l-5.16782,4.34237l-11.57964,-13.78085c0,0 9.25269,-11.51847 17.60888,-14.79621c2.74257,-1.07579 4.01392,1.47016 4.01392,1.47016c0,0 1.845,2.62863 0.97176,4.46325c-1.29987,2.73097 -13.01525,10.93633 -13.01525,10.93633z" fill="#989898" stroke="#000000" stroke-width="1" stroke-linecap="round"></path><path d="M279.59173,143.98263l-2.41242,-2.87101l3.63661,-3.05574l2.41242,2.87101z" fill="#00f6ff" stroke="none" stroke-width="0" stroke-linecap="butt"></path><path d="M275.12838,148.38613l-2.41242,-2.87101l3.63661,-3.05573l2.41243,2.87101z" fill="#00f6ff" stroke="none" stroke-width="0" stroke-linecap="butt"></path><path d="M284.37676,139.96192l-2.41243,-2.87101l3.63662,-3.05573l2.41242,2.87101z" fill="#00f6ff" stroke="none" stroke-width="0" stroke-linecap="butt"></path></g></g></g></svg>