<svg version="1.1" xmlns="http://www.w3.org/2000/svg" xmlns:xlink="http://www.w3.org/1999/xlink" width="124.22556" height="80.5" viewBox="0,0,124.22556,80.5"><g transform="translate(-171.93878,-139.75)"><g data-paper-data="{&quot;isPaintingLayer&quot;:true}" fill-rule="nonzero" stroke-linejoin="miter" stroke-miterlimit="10" stroke-dasharray="" stroke-dashoffset="0" style="mix-blend-mode: normal"><g><path d="M183.84908,205.08948c0.3281,-2.11481 1.96824,-3.61601 3.66341,-3.35301c1.69515,0.26299 2.80335,2.19055 2.47525,4.30537c-0.3281,2.11481 -1.96824,3.61601 -3.66341,3.35301c-1.69515,-0.26299 -2.80335,-2.19055 -2.47525,-4.30537z" fill="none" stroke="#000000" stroke-width="0.5" stroke-linecap="butt"></path><path d="M186.99186,204.4386c0,0 -11.4779,-0.51109 -13.46541,-2.08907c-1.3352,-1.06007 -1.06529,-4.25587 -1.06529,-4.25587c0,0 -0.10211,-2.81599 2.25343,-3.4025c7.17698,-1.78702 18.21793,2.82638 18.21793,2.82638l-2.75956,17.7872l-5.34656,-0.82948l0.8432,-5.43498z" fill="#989898" stroke="#000000" stroke-width="1" stroke-linecap="round"></path><path d="M181.97749,198.85383l0.57491,-3.70566l3.76239,0.58371l-0.57491,3.70566z" fill="#00f6ff" stroke="none" stroke-width="0" stroke-linecap="butt"></path><path d="M186.85133,200.11596l0.57491,-3.70566l3.76239,0.58371l-0.57491,3.70566z" fill="#00f6ff" stroke="none" stroke-width="0" stroke-linecap="butt"></path><path d="M177.02696,198.08578l0.57491,-3.70566l3.76239,0.58371l-0.57491,3.70566z" fill="#00f6ff" stroke="none" stroke-width="0" stroke-linecap="butt"></path></g><path d="M204.82949,180c0,-21.81525 17.68475,-39.5 39.5,-39.5c21.81525,0 39.5,17.68475 39.5,39.5c0,21.81525 -17.68475,39.5 -39.5,39.5c-21.81525,0 -39.5,-17.68475 -39.5,-39.5z" fill="#d8d8d8" stroke="#000000" stroke-width="1.5" stroke-linecap="butt"></path><path d="M226.58224,167.20295l9,1v8" fill="none" stroke="#000000" stroke-width="1.5" stroke-linecap="round"></path><path d="M244.1816,175.68819v-8l9,-1" data-paper-data="{&quot;index&quot;:null}" fill="none" stroke="#000000" stroke-width="1.5" stroke-linecap="round"></path><path d="M249.57949,197.70833c0,0 -3.1365,0.94081 -8.75493,1.37635c-3.47652,0.2695 -7.16174,-1.20968 -7.16174,-1.20968" fill="none" stroke="#000000" stroke-width="1.5" stroke-linecap="round"></path><g><path d="M284.83735,200.96354c0.26661,-2.12343 2.20414,-3.62868 4.32756,-3.36205c2.12343,0.26661 3.62868,2.20414 3.36205,4.32756c-0.26661,2.12343 -2.20414,3.62868 -4.32756,3.36205c-2.12343,-0.26661 -3.62868,-2.20414 -3.36205,-4.32756z" fill="none" stroke="#000000" stroke-width="0.5" stroke-linecap="butt"></path><path d="M288.69829,200.31449c0,0 -14.29325,-0.53021 -16.86756,-2.1179c-1.7294,-1.06659 -1.60712,-4.27577 -1.60712,-4.27577c0,0 -0.31458,-2.82829 2.57263,-3.41386c8.79694,-1.78416 22.82082,2.8654 22.82082,2.8654l-2.24248,17.85977l-6.69741,-0.84093l0.6852,-5.45716z" fill="#989898" stroke="#000000" stroke-width="1" stroke-linecap="round"></path><path d="M282.09654,194.69828l0.46718,-3.72079l4.713,0.59177l-0.46718,3.72079z" fill="#00f6ff" stroke="none" stroke-width="0" stroke-linecap="butt"></path><path d="M288.23555,195.97301l0.46718,-3.72079l4.713,0.59177l-0.46718,3.72079z" fill="#00f6ff" stroke="none" stroke-width="0" stroke-linecap="butt"></path><path d="M275.89524,193.91963l0.46718,-3.72079l4.713,0.59177l-0.46718,3.72079z" fill="#00f6ff" stroke="none" stroke-width="0" stroke-linecap="butt"></path></g></g></g></svg>