<svg version="1.1" xmlns="http://www.w3.org/2000/svg" xmlns:xlink="http://www.w3.org/1999/xlink" width="256.92553" height="205.41427" viewBox="0,0,256.92553,205.41427"><g transform="translate(-54.71063,-73.72145)"><g data-paper-data="{&quot;isPaintingLayer&quot;:true}" fill-rule="nonzero" stroke-linejoin="miter" stroke-miterlimit="10" stroke-dasharray="" stroke-dashoffset="0" style="mix-blend-mode: normal"><path d="" data-paper-data="{&quot;index&quot;:null}" fill="none" stroke="#000000" stroke-width="1.5" stroke-linecap="round"></path><path d="M200.5,180c0,-21.81525 17.68475,-39.5 39.5,-39.5c21.81525,0 39.5,17.68475 39.5,39.5c0,21.81525 -17.68475,39.5 -39.5,39.5c-21.81525,0 -39.5,-17.68475 -39.5,-39.5z" fill="#d8d8d8" stroke="#000000" stroke-width="1.5" stroke-linecap="butt"></path><path d="M225.51005,194.79568c5.44898,-2.88817 27.57511,5.13694 27.57511,5.13694" data-paper-data="{&quot;index&quot;:null}" fill="none" stroke="#000000" stroke-width="1.5" stroke-linecap="round"></path><path d="M250.89804,170.36202l6.93986,4.16391l-6.59286,1.38797l-3.29643,5.89888l-2.25545,-6.41937l-7.46035,-3.64343l7.11335,-2.08196l3.99042,-7.46035z" fill="#be82ff" stroke="#000000" stroke-width="0" stroke-linecap="round"></path><path d="M221.6874,173.5245l10.7662,2.43108" fill="none" stroke="#000000" stroke-width="1.5" stroke-linecap="round"></path><path d="M228.28604,174.56639l1.38919,-9.72431" fill="none" stroke="#000000" stroke-width="1.5" stroke-linecap="round"></path><g stroke-linecap="round"><path d="M288.732,141.53579l-5.82725,23.809l-2.79796,-0.57801l6.11344,-24.03683z" fill="none" stroke="#4d6200" stroke-width="3"></path><path d="M282.39635,162.9441l5.13251,-19.98298l-2.52406,-7.57571l2.37147,-0.25138l2.86863,6.83386" fill="none" stroke="#4d6200" stroke-width="3"></path><path d="M296.04296,118.41589l-11.44672,20.56769l-3.08415,-0.35018l12.30531,-21.25118z" fill="none" stroke="#4d6200" stroke-width="3"></path><path d="M293.15079,109.49676l1.83496,9.05942l-11.07298,19.56882" fill="none" stroke="#4d6200" stroke-width="4.5"></path><path d="M298.18449,94.9694l0.63743,8.14248l-7.23678,4.12451l-8.56333,-2.53426l0.10442,-7.79792" fill="none" stroke="#4d6200" stroke-width="4.5"></path><path d="M290.38202,108.66173l2.77545,9.94719" fill="none" stroke="#4d6200" stroke-width="4.5"></path><g stroke="#7f00ff"><path d="M294.69103,85.29079l0.54396,13.73741l-3.88589,4.32295l-5.59787,-4.10329l-0.58743,-13.48242l4.69431,-4.4475z" fill="#7d00ff" stroke-width="0.5"></path><path d="M293.26036,87.4148l0.38117,9.62618l-2.72295,3.02922l-3.92258,-2.87528l-0.41163,-9.4475l3.28943,-3.11648z" fill="#be82ff" stroke-width="0"></path></g></g><path d="M281.526,102.06079c0.13366,-0.45587 0.29743,-0.88737 0.5049,-1.34617c-1.16943,1.24393 -2.30271,2.51622 -3.57039,3.63603c-0.00549,0.0065 -0.01097,0.013 -0.01645,0.0195l0.13381,0.11096l-0.95399,1.15041c-0.10653,0.13055 -0.25746,0.22616 -0.4357,0.26131c-0.40638,0.08016 -0.8008,-0.1843 -0.88097,-0.59068c-0.03621,-0.18356 -0.00211,-0.36467 0.08363,-0.5155l0.46742,-0.83437l0.02537,0.01422l0.01055,-0.07203c2.05745,-2.49574 4.02316,-5.04001 5.95864,-7.63074c0.38415,-0.5142 0.65476,-1.05152 0.94738,-1.56314c-3.1099,2.9285 -5.86424,6.73127 -9.35449,9.11389l0.12533,0.13069l-0.9708,0.93095c-0.10116,0.1001 -0.23188,0.17256 -0.38196,0.20217c-0.40638,0.08016 -0.8008,-0.1843 -0.88097,-0.59068c-0.04288,-0.21736 0.01284,-0.4313 0.13612,-0.59555l0.8346,-1.12102c1.97489,-2.65262 4.08522,-5.1761 6.19087,-7.72467c0.11889,-0.14389 0.22975,-0.28715 0.33571,-0.42805c-1.16696,0.61811 -2.26972,1.2256 -3.48385,1.68571c-0.19828,0.11111 -0.40497,0.22272 -0.62303,0.33737l0.04991,0.11088l-1.35282,0.60898c-0.05534,0.02634 -0.11483,0.04627 -0.17771,0.05867c-0.40638,0.08016 -0.8008,-0.1843 -0.88097,-0.59068c-0.02857,-0.14482 -0.01337,-0.28811 0.03641,-0.41621l-0.67813,-0.03213c-0.3432,-0.00879 -0.6467,-0.25386 -0.71592,-0.60476c-0.07181,-0.36406 0.13296,-0.71853 0.46859,-0.84605l1.36805,-0.54988c1.84078,-0.83396 3.65043,-1.70267 5.56037,-2.36638c0.45487,-0.15806 0.9186,-0.29246 1.36509,-0.47286c0.40192,-0.16239 1.61664,-0.33258 1.20881,-0.47945c-2.60962,-0.93986 -5.6012,-1.97456 -7.6599,-3.82134c-0.0032,-0.00166 -0.0064,-0.00329 -0.00961,-0.00495l-0.27235,0.28719l-1.08196,-1.02606c-0.07436,-0.06875 -0.1353,-0.15293 -0.17727,-0.24883c-0.64696,-0.30223 -1.29392,-0.60454 -1.9408,-0.90712l-0.03826,-0.04976l-0.01243,0.01839l-0.9764,-0.65932c-0.00005,-0.00003 -0.00009,-0.00008 -0.00016,-0.0001c-0.15839,-0.10695 -0.27621,-0.2741 -0.31611,-0.47642c-0.08016,-0.40638 0.1843,-0.8008 0.59068,-0.88097c0.14633,-0.02886 0.29109,-0.01305 0.42021,0.03799l1.39294,0.52404l-0.05359,0.14244c3.93437,0.77138 8.06618,2.68425 11.41618,4.55107l0.00487,0.00575l0.00128,-0.00221l0.95287,0.55486c0.18132,0.10437 0.31823,0.28364 0.3619,0.50501c0.03478,0.17635 0.00467,0.35044 -0.07377,0.49758c0.4573,0.21906 0.91443,0.43853 1.37138,0.65839c0,0 0.67582,0.32519 0.35064,1.00102c-0.32519,0.67582 -1.00102,0.35064 -1.00102,0.35064c-0.59531,-0.28645 -1.19107,-0.57184 -1.78721,-0.85634c-0.02211,0.06483 -0.05102,0.13244 -0.08728,0.20305c0.21455,0.09614 0.38075,0.2914 0.42971,0.53961c0.05102,0.25862 -0.03754,0.51238 -0.21341,0.6834l-1.05214,1.05293l-0.06858,-0.06853c-0.10502,0.15746 -0.21152,0.3141 -0.31939,0.46998c0.68874,-0.62099 1.39078,-1.2198 2.10921,-1.78678l1.80357,-0.13022c-0.29334,1.49015 -0.84907,2.88297 -1.56889,4.20574c0.01668,-0.00449 0.03363,-0.00846 0.05085,-0.01185c0.40638,-0.08016 0.8008,0.1843 0.88097,0.59068c0.03154,0.15992 0.00972,0.318 -0.05312,0.4558l-0.60066,1.36439l-0.04896,-0.02155c-0.02391,0.07103 -0.0476,0.11475 -0.0476,0.11475l-0.20285,0.37448c-0.41452,1.23748 -0.97252,2.39326 -1.70288,3.64384l-0.67226,1.18438c-0.10369,0.18519 -0.28491,0.32543 -0.50945,0.36971c-0.40638,0.08016 -0.8008,-0.1843 -0.88097,-0.59068c-0.03192,-0.16183 -0.0092,-0.32176 0.05538,-0.46071l0.6113,-1.36006l0.12627,0.05676c0.01532,-0.02674 0.03052,-0.05369 0.04556,-0.08083z" fill="#7d00ff" stroke="none" stroke-width="0.5" stroke-linecap="butt"></path><path d="M282.77867,86.20634c-3.59242,-2.80852 -6.41628,-6.40541 -9.36088,-9.8788l-0.92787,-1.0945c-0.08474,-0.09618 -0.14592,-0.21538 -0.17252,-0.35021c-0.08016,-0.40638 0.1843,-0.8008 0.59068,-0.88097c0.26437,-0.05214 0.52368,0.04155 0.69469,0.2253l1.03041,1.07286l-0.06615,0.06353c0.12141,0.14323 0.24259,0.28668 0.36363,0.43032c2.31599,1.88866 4.17792,4.28116 6.60774,6.06077c-0.17561,-0.47031 -0.34963,-0.95611 -0.52561,-1.46103l0.00058,-0.01393l-0.00458,0.00141l-0.24449,-0.78927c-0.00911,-0.02814 -0.01665,-0.05712 -0.02252,-0.08686c-0.08016,-0.40638 0.1843,-0.8008 0.59068,-0.88097c0.25125,-0.04956 0.49794,0.03261 0.66859,0.19861l0.64343,0.61019l-0.15659,0.16512c0.20972,0.16599 0.40988,0.34169 0.60239,0.52547c0.06575,-0.03603 0.13807,-0.06274 0.21553,-0.07802c0.32093,-0.06331 0.63439,0.08831 0.79152,0.35502l0.56294,0.90648c0.606,0.97582 1.04673,1.72741 1.40893,2.55934c0.0166,0.02207 0.03322,0.04411 0.04988,0.06615l0.12389,-0.07694l0.78224,1.25961c0.05123,0.07837 0.08856,0.16769 0.10778,0.26519c0.08016,0.40638 -0.1843,0.8008 -0.59068,0.88097c-0.29445,0.05808 -0.58261,-0.06475 -0.74951,-0.29141l-0.72197,-0.93839c-0.06415,-0.08338 -0.14644,-0.18289 -0.24279,-0.29574c-0.05222,0.10695 -0.13743,0.20947 -0.27452,0.28313c0.676,1.28362 1.4802,2.51886 2.54582,3.84879c0,0 0.46897,0.58529 -0.11632,1.05426c-0.58529,0.46897 -1.05426,-0.11632 -1.05426,-0.11632c-0.95809,-1.19571 -1.72216,-2.33182 -2.3743,-3.49262c-0.39122,0.19414 -0.77584,-0.10655 -0.77584,-0.10655z" fill="#7d00ff" stroke="none" stroke-width="0.5" stroke-linecap="butt"></path><path d="M290.83577,108.55793c0.72935,0.17476 0.55459,0.90412 0.55459,0.90412l-0.37136,1.531c-2.17798,4.54164 -4.07926,10.13201 -7.10468,14.32573l0.13058,0.06334l-0.65086,1.34192c-0.09818,0.20802 -0.29043,0.36831 -0.53341,0.41623c-0.40638,0.08016 -0.8008,-0.1843 -0.88097,-0.59068c-0.02241,-0.11361 -0.01788,-0.22629 0.00915,-0.33144l0.28312,-1.2124l0.00876,0.00204l-0.0024,-0.02733c2.14721,-6.97559 4.52534,-14.41697 5.09301,-21.72528c-0.3318,0.11599 -0.59926,0.17545 -0.72895,0.13548c-0.47112,-0.14518 -0.18832,-0.96781 -0.28248,-1.45171c0,0 0.0613,-0.7475 0.80878,-0.6862c0.41102,0.03371 0.57749,0.27487 0.64409,0.48516c0.56531,-0.66594 2.60465,-2.08207 3.21861,-1.79311c0.63484,0.29878 0.62141,1.25999 0.87803,1.91299c0.65307,1.66184 1.08379,3.46104 1.58615,5.18759c0.16618,-2.05111 0.70537,-4.98868 1.3996,-6.12719c0.31134,-0.5106 0.78662,-1.22645 1.37938,-1.14722c0.2706,0.03617 0.5582,0.20457 0.85245,0.46519c-0.06938,-0.22017 -0.13861,-0.42601 -0.20876,-0.61333c-0.05502,-0.14692 -1.06169,-2.78324 -1.00476,-2.87716c0.28847,-0.47596 2.1541,-0.87876 2.86712,-1.10923c1.85972,-0.60115 3.55966,-1.58566 5.30882,-2.44592c0.40891,-0.20111 0.81166,-0.41581 1.22947,-0.59774c0.24565,-0.10697 1.00084,-0.15468 0.75791,-0.26768c-0.60752,-0.2826 -2.89574,-0.01615 -3.62413,0.07004c-0.47041,0.05566 -0.94121,0.108 -1.41182,0.16199l-0.01425,-0.00212l0.00026,0.00334l-1.48607,0.11447c-0.37769,0.0344 -0.7279,-0.22161 -0.80292,-0.60191c-0.05387,-0.27308 0.04788,-0.54076 0.24373,-0.71131l1.10361,-0.99542l0.12749,0.14135c1.3861,-1.44015 3.03011,-2.65002 4.67396,-3.84017c-1.28308,0.62195 -2.61061,1.17462 -3.89716,1.73411c-0.23661,0.1029 -2.57584,1.20294 -2.88782,0.95213c-1.22151,-0.982 -0.61685,-2.75928 -0.1909,-3.8222c0.98656,-2.46191 2.54404,-4.77863 3.90944,-7.10707c-0.6556,0.53921 -1.36618,1.04112 -1.87429,1.79269c-0.78258,1.15752 -1.35905,2.45192 -2.14343,3.61899c-0.31195,0.46414 -1.19645,2.18757 -2.17611,1.84161c-1.79287,-0.63314 -1.41797,-3.40026 -0.79926,-5.79765c-0.18359,-0.0493 -0.38086,-0.1283 -0.59217,-0.24107c-0.95171,-0.50789 -1.90771,-2.31871 -2.66128,-3.15698c-0.15348,-0.17073 -0.38875,-0.53866 -0.57386,-0.85197c0.30101,0.96471 -0.18061,2.2081 -0.21916,3.14395c-0.11797,2.86322 0.42026,5.73587 0.75729,8.56687l0.11241,0.55862c0,0 0.14514,0.73582 -0.59068,0.88097c-0.73582,0.14514 -0.88097,-0.59068 -0.88097,-0.59068l-0.13025,-0.67159c-0.40042,-3.36428 -0.98047,-6.71541 -0.6348,-10.10955c0.06843,-0.67185 0.24795,-3.24473 0.7336,-3.58749c1.04481,-0.7374 3.6377,2.92562 4.12612,3.5363c0.29326,0.36667 0.65379,1.45917 0.88423,1.33324c0.21446,-0.72959 0.4194,-1.37097 0.54427,-1.83241l-0.16426,-0.05349l0.4599,-1.4121c0.07812,-0.25628 0.29137,-0.46225 0.57261,-0.51773c0.40638,-0.08016 0.8008,0.1843 0.88097,0.59068c0.02011,0.10193 0.01853,0.2031 -0.00152,0.29876l-0.20208,1.08878l-0.00527,-0.00098l0.00258,0.01479c-0.35691,1.5878 -1.00442,3.17108 -1.25953,4.77022c-0.10367,0.64981 0.24571,1.55903 0.12039,2.24061c0.13783,-0.30324 0.32806,-0.69053 0.44822,-0.87297c0.49001,-0.74395 0.96564,-1.49873 1.39905,-2.27702c1.09081,-1.95887 2.28584,-3.15462 3.98766,-4.06324l-0.07497,-0.12182l1.2628,-0.777c0.07774,-0.05038 0.1662,-0.0871 0.26263,-0.10612c0.40638,-0.08016 0.8008,0.1843 0.88097,0.59068c0.02133,0.10812 0.01825,0.21538 -0.00537,0.3161l-0.16055,0.76162l-0.03495,-0.00737l0.0071,0.10576c-1.29129,2.51983 -2.77229,4.92632 -4.10705,7.42189c-0.34653,0.64791 -1.46764,2.32212 -1.17602,3.17533c0.05051,0.1478 0.09738,-0.32555 0.22982,-0.40835c0.42024,-0.26271 0.91072,-0.3912 1.36521,-0.58881c0.57094,-0.24823 1.13681,-0.50813 1.70063,-0.7721c1.75203,-0.82029 2.88727,-1.4915 4.38514,-1.66841l-0.00589,-0.31022l1.48685,-0.02819c0.36213,-0.01353 0.69056,0.23766 0.76291,0.60448c0.04278,0.21689 -0.0126,0.43037 -0.13532,0.5945l-0.5145,0.69341l-0.02685,-0.01991l-0.04116,0.09933c-1.61407,1.2474 -3.78734,3.52957 -5.91194,4.7049c1.89024,-0.20233 5.05996,-0.38253 5.41766,0.95316c0.36775,1.3732 -1.9907,2.27716 -2.75077,2.6585c-1.81061,0.9084 -3.59086,1.90397 -5.52166,2.53207c-0.62091,0.20197 -1.38795,-0.08229 -1.94077,0.26515c-0.16261,0.1022 0.38581,0.14897 0.48247,0.31492c0.00645,0.01108 1.05676,2.81278 1.07243,2.85457c0.66034,1.76063 1.29018,3.3766 1.65587,5.09696c0.0704,0.13698 0.1328,0.25675 0.18621,0.35553l-0.02149,0.05626l0.03911,-0.01557l0.01248,0.03136l0.0662,-0.0228l0.4844,1.40631c0.0129,0.03564 0.02326,0.0727 0.03082,0.11103c0.08016,0.40638 -0.1843,0.8008 -0.59068,0.88097c-0.36484,0.07196 -0.72004,-0.13384 -0.84686,-0.47072l-0.53758,-1.35015c-0.99243,-1.81943 -2.29828,-3.44689 -3.13726,-5.31102c-0.21925,-0.48719 -0.06798,1.06848 -0.16007,1.59474c-0.0862,0.49251 -0.18248,0.98321 -0.27373,1.47481c-0.31762,1.71138 -0.54836,2.74504 -1.16688,3.85097l0.14743,0.0767l-0.68908,1.32453c-0.10088,0.19806 -0.28842,0.34948 -0.52341,0.39584c-0.38409,0.07576 -0.75747,-0.15631 -0.86498,-0.52509c-0.43756,-1.43476 -1.31023,-4.29625 -1.74779,-5.731c-0.23633,-0.77493 0.19056,-1.87605 -0.43465,-2.39129c-0.19043,-0.15693 -0.25801,0.4353 -0.45493,0.58401c-0.20239,0.15282 -0.6741,0.4251 -1.20643,0.69482c0.09063,0.20092 0.07657,0.4019 0.07657,0.4019c-0.34982,5.00071 -1.54165,10.06723 -2.95239,15.01205c1.21697,-2.51701 2.43285,-5.03466 3.66617,-7.54358l0.32508,-1.37553c0,0 0.17476,-0.72935 0.90412,-0.55459z" fill="#7d00ff" stroke="none" stroke-width="0.5" stroke-linecap="butt"></path><path d="M306.37077,109.20102c0.02035,-0.0229 0.04079,-0.04404 0.06132,-0.06352c-1.09272,-1.75785 -2.21505,-3.49605 -3.43576,-5.15306c0,0 -0.44463,-0.60398 0.15935,-1.04862c0.60398,-0.44463 1.04862,0.15935 1.04862,0.15935c1.81774,2.4708 3.42203,5.11622 5.03265,7.74176c0.7303,0.78434 1.23239,1.54274 1.55639,2.49722l0.26992,-0.1009l0.52036,1.39189c0.01639,0.04159 0.02927,0.08521 0.03822,0.13063c0.08016,0.40638 -0.1843,0.8008 -0.59068,0.88097c-0.31925,0.06298 -0.63113,-0.08673 -0.78905,-0.35086l-0.79022,-1.25432c-0.35948,-0.5706 -0.71527,-1.14522 -1.06982,-1.72171c-0.44506,-0.54691 -0.88471,-1.10708 -1.40226,-1.56457l-0.54642,-0.48541c0,0 -0.56071,-0.49811 -0.0626,-1.05881z" fill="#7d00ff" stroke="none" stroke-width="0.5" stroke-linecap="butt"></path><path d="M103.16028,223.10069c-0.41414,0.64001 -1.51077,0.30118 -2.27202,0.26087c-2.32476,-0.12311 -5.11106,-1.64629 -7.22217,-2.54598c-5.80529,-2.47402 -11.61909,-4.92696 -17.4354,-7.37474c1.3752,0.88265 2.78117,1.77979 4.19056,2.70077c4.21431,1.58445 8.19371,3.67019 11.78652,6.76994c0,0 0.56786,0.48993 0.07793,1.05779c-0.48993,0.56786 -1.05779,0.07793 -1.05779,0.07793c-0.65152,-0.56211 -1.31648,-1.08961 -1.99385,-1.58578c2.25371,1.84828 4.34181,3.82833 6.12149,5.98892l0.05703,-0.06585l1.1304,0.97905c0.16063,0.13756 0.26243,0.34184 0.26243,0.56991c0,0.41421 -0.33579,0.75 -0.75,0.75c-0.04621,0 -0.09145,-0.00418 -0.13535,-0.01218l-0.88003,-0.1445l0.0059,-0.03594l-0.10007,0.01417c-4.47415,-1.98066 -9.17687,-3.60064 -13.55201,-5.77598c-6.20237,-3.0883 -12.3537,-6.24089 -18.48899,-9.45735c-2.44662,-1.28265 -5.00024,-2.07248 -6.5478,-4.0067l-0.4031,0.22249l-0.7182,-1.30123c-0.06361,-0.11019 -0.10001,-0.23806 -0.10001,-0.37443c0,-0.41421 0.33579,-0.75 0.75,-0.75c0.09522,0 0.18629,0.01774 0.27009,0.0501l1.21232,0.4358c3.25347,1.17042 6.62144,2.05003 9.98013,2.86131c2.50449,0.60496 4.98311,1.20783 7.41027,1.89522c-0.81427,-0.54044 -1.63285,-1.08064 -2.45526,-1.62347c-1.65974,-1.11233 -3.32568,-2.21295 -4.99997,-3.30325l-0.68985,-0.44923c-0.21082,-0.13276 -0.35091,-0.36758 -0.35091,-0.63511c0,-0.41421 0.33579,-0.75 0.75,-0.75c0.15297,0 0.29524,0.0458 0.41386,0.12443l1.25377,0.80308l-0.00634,0.00989c0.12758,0.08334 0.25511,0.16675 0.3826,0.25021c2.44933,0.90583 4.83957,2.10042 7.23466,3.10792c5.99271,2.52085 11.9822,5.04805 17.96306,7.5969c1.84072,0.78446 3.64247,1.4392 5.55376,2.03033c0.4492,0.13893 0.91238,0.23947 1.34678,0.41942c0.26024,0.1078 0.88142,0.67063 0.72275,0.43789c-0.58556,-0.85894 -1.1924,-1.71903 -1.81994,-2.57495c-1.01572,-0.96021 -1.96173,-2.04303 -3.0316,-3.18325c-1.96944,-2.09895 -3.84812,-4.35372 -5.62122,-6.7006c-0.18286,-0.17055 -0.36672,-0.3397 -0.55156,-0.50738c-3.43201,-1.50862 -6.81095,-3.08457 -10.00806,-5.09588c-2.15998,-1.35885 -3.66748,-2.29744 -4.26608,-4.23983l-0.34095,0.05885l-0.25271,-1.46395c-0.00878,-0.04591 -0.01338,-0.0933 -0.01338,-0.14177c0,-0.41421 0.33579,-0.75 0.75,-0.75c0.14048,0 0.27194,0.03862 0.38434,0.10583l1.29,0.73939c2.99403,1.71693 5.8159,3.68417 8.5822,5.73653c-1.31019,-1.26823 -2.61588,-2.54219 -3.9021,-3.83686c0,0 -0.52859,-0.53206 0.00347,-1.06065c0.53206,-0.52859 1.06065,0.00347 1.06065,0.00347c0.27791,0.27974 0.55671,0.55852 0.83625,0.8365c-0.03583,-0.06046 -0.07158,-0.12093 -0.10727,-0.18141c-0.47279,-0.80131 -0.93786,-1.59149 -1.43057,-2.36793c-0.28116,-0.36805 -0.53691,-0.74781 -0.75663,-1.14312c-0.05643,-0.08134 -0.11337,-0.16251 -0.17086,-0.2435l-0.3606,-0.50844l-0.1703,0.07595l-0.40343,-0.90456c-0.04596,-0.09715 -0.07166,-0.20574 -0.07166,-0.32035c0,-0.41421 0.33579,-0.75 0.75,-0.75c0.25617,0 0.48235,0.12843 0.61765,0.32442l0.86187,1.21522c0.08914,0.12581 0.17703,0.252 0.26379,0.37858c1.21032,0.95422 2.50832,2.92024 3.23516,3.68027c2.39652,2.50596 4.91594,4.94292 7.39422,7.41845c-0.94236,-1.15425 -1.88718,-2.30643 -2.83374,-3.45725c-0.1543,-0.13098 -0.30859,-0.26212 -0.46288,-0.3934c-2.01842,-1.71731 -4.10686,-3.46851 -5.15745,-5.7647l-0.35436,0.11735l-0.46605,-1.40733c-0.02818,-0.07887 -0.04353,-0.16384 -0.04353,-0.2524c0,-0.01446 0.00041,-0.02882 0.00122,-0.04307c-0.00657,-0.00964 -0.0131,-0.01928 -0.01959,-0.02893c-0.20013,-0.21263 -0.40314,-0.4225 -0.60875,-0.62965l-0.02196,-0.02211c-0.00053,-0.00053 -0.00105,-0.00106 -0.00158,-0.00158l-1.01716,-1.02384c-0.00004,-0.00004 -0.00008,-0.00008 -0.00013,-0.00013c-0.13471,-0.13558 -0.21794,-0.32237 -0.21794,-0.52859c0,-0.41421 0.33579,-0.75 0.75,-0.75c0.20806,0 0.39634,0.08472 0.53221,0.22156l1.05704,1.06397l-0.00005,0.00005c0.28685,0.28993 0.56893,0.58483 0.84558,0.88477c0.23604,0.1913 0.46847,0.38763 0.69797,0.58804l0.04071,0.01797l-0.0047,0.01065l0.04299,0.00756c4.86543,2.83717 8.99289,6.48353 13.04166,10.36814c2.17239,2.08431 4.40922,4.22023 6.00128,6.76137l0.01156,0.01041l0.13508,-0.11743l0.9816,1.12918c0.11608,0.13207 0.18647,0.30527 0.18647,0.49492c0,0.41421 -0.33579,0.75 -0.75,0.75c-0.19393,0 -0.37068,-0.07361 -0.50381,-0.19441l-1.06551,-0.95878c-0.23426,-0.18332 -0.46799,-0.36734 -0.70121,-0.55203c-0.18691,-0.01145 -0.3297,-0.0833 -0.3297,-0.0833l-0.45794,-0.23698c-2.1267,-1.42709 -4.16723,-2.94236 -6.16347,-4.51442c0.39013,0.48356 0.77932,0.9679 1.16742,1.45314c2.17656,2.72133 4.57334,5.48001 6.03591,8.65178l0.15071,-0.10092l0.82895,1.23793c0.08354,0.12094 0.13247,0.26763 0.13247,0.42574c0,0.41421 -0.33579,0.75 -0.75,0.75c-0.22753,0 -0.4314,-0.10132 -0.56894,-0.2613l-0.98118,-1.1287l0.00305,-0.00265l-0.01128,-0.00698c-0.82313,-1.01389 -1.6461,-2.0279 -2.46912,-3.04189c-1.28385,-1.58304 -2.65105,-3.10572 -4.06267,-4.59434c-0.1546,0.11334 -0.32872,0.13216 -0.46918,0.12057c1.9437,2.03991 3.819,4.14558 5.57161,6.37172c0.56162,0.71339 1.1228,1.42711 1.68318,2.14148l0.01542,0.05612l0.01428,-0.00811l0.73399,1.2929c0.06628,0.11184 0.10433,0.24239 0.10433,0.38182c0,0.41421 -0.33579,0.75 -0.75,0.75c-0.16113,0 -0.31039,-0.05081 -0.43264,-0.13729l-0.6237,-0.42854c0.12616,0.35324 0.16562,0.63577 0.06567,0.79024zM79.13644,217.25956c-3.89467,-1.39992 -7.98556,-2.38881 -12.14036,-3.3924c-2.14254,-0.51753 -4.28794,-1.06364 -6.40625,-1.6924c7.25995,3.46579 14.30151,7.64094 21.4726,11.21158c3.14709,1.56938 6.47208,2.8225 9.74755,4.15967c-1.12849,-1.02252 -2.1874,-2.19182 -3.04868,-2.93778c-3.09487,-2.6805 -6.31492,-5.0615 -9.62487,-7.34867zM78.29067,200.24341c2.35127,2.2288 5.06214,3.91602 7.92927,5.36779c-2.56401,-1.9067 -5.1743,-3.74294 -7.92927,-5.36779zM88.18728,202.65967c0.38998,0.62798 0.7885,1.25819 1.19534,1.88672c1.5751,1.52161 3.14931,3.04224 4.69726,4.58745c0.34881,0.14902 0.6973,0.29854 1.04512,0.44905c-2.30123,-2.32567 -4.66614,-4.59806 -6.93773,-6.92321zM98.86039,206.33675c-1.37024,-1.32961 -2.78874,-2.61988 -4.25631,-3.84887c1.40526,1.29795 2.82232,2.58309 4.25631,3.84887z" fill="#9966ff" stroke="none" stroke-width="0.5" stroke-linecap="butt"></path><path d="M222.36731,226.84757c0.23857,0.71104 -0.47247,0.94961 -0.47247,0.94961l-0.27519,0.09233c-3.92994,1.31593 -8.74267,2.73657 -13.08402,2.90795l0.02914,0.14475l-1.45527,0.29296c-0.05255,0.01166 -0.10718,0.01782 -0.16324,0.01782c-0.41421,0 -0.75,-0.33579 -0.75,-0.75c0,-0.28874 0.16317,-0.53938 0.40233,-0.66472l0.74636,-0.40977c0.8669,-0.47593 1.73766,-0.9449 2.61246,-1.40616c3.77099,-1.98822 7.54718,-3.57979 11.42091,-5.02722c-1.22427,0.21962 -2.46101,0.41632 -3.71562,0.58659c-2.50875,0.34048 -4.96392,0.82668 -7.45404,0.84523l0.02218,0.16339l-1.474,0.20004c-0.03693,0.00559 -0.07475,0.00849 -0.11324,0.00849c-0.41421,0 -0.75,-0.33579 -0.75,-0.75c0,-0.27717 0.15035,-0.51922 0.37394,-0.64905l0.85106,-0.51398c4.5465,-2.74579 8.97653,-5.67301 13.45871,-8.52162c-2.75775,1.07101 -5.56199,2.03532 -8.38398,2.98215c-2.93015,0.98313 -5.68872,2.08471 -8.67745,2.38225l0.03861,0.17643l-1.44962,0.3172c-0.05646,0.01358 -0.1154,0.02077 -0.17603,0.02077c-0.41421,0 -0.75,-0.33579 -0.75,-0.75c0,-0.26359 0.13598,-0.49542 0.34162,-0.62917l1.12201,-0.75293l0.00489,0.00729l0.01927,-0.02284c5.10179,-2.88682 10.1376,-5.79265 15.08884,-8.93223c1.3125,-0.83226 3.07374,-2.3577 4.78476,-3.28429c-1.06698,0.13585 -2.13059,0.28692 -3.19069,0.49247c-1.31776,0.25508 -2.63179,0.54994 -3.9374,0.88545c-4.19944,2.60711 -8.37856,5.24585 -12.61003,7.80137c-2.44654,1.47413 -5.19456,2.62473 -7.90308,3.53497l-0.82438,0.2766c-0.07965,0.02881 -0.16557,0.04452 -0.25516,0.04452c-0.41421,0 -0.75,-0.33579 -0.75,-0.75c0,-0.14766 0.04267,-0.28536 0.11636,-0.40143l0.77617,-1.26955l0.19895,0.12163c1.30745,-2.13395 3.20363,-3.08308 5.66406,-4.59789c-0.53714,0.1943 -1.08752,0.35772 -1.65735,0.4816l0.06544,0.22323l-1.42274,0.41707c-0.0718,0.02285 -0.14829,0.03518 -0.22766,0.03518c-0.41421,0 -0.75,-0.33579 -0.75,-0.75c0,-0.24758 0.11996,-0.46714 0.30494,-0.60373l1.19033,-0.89863l0.00305,0.00403l0.01126,-0.01457c1.34457,-0.91884 2.72984,-1.96821 4.17238,-2.94752c-2.37474,0.54543 -4.77014,0.71913 -6.95953,0.10122c0,0 -0.72078,-0.20729 -0.51349,-0.92808c0.20729,-0.72078 0.92808,-0.51349 0.92808,-0.51349c4.32804,1.27188 9.85553,-1.14234 13.83551,-2.80448l0.92872,-0.38751c0.09299,-0.04133 0.19595,-0.06429 0.30428,-0.06429c0.41421,0 0.75,0.33579 0.75,0.75c0,0.11167 -0.02441,0.21764 -0.06817,0.31287c3.73833,-2.05879 7.5215,-4.07319 11.31737,-5.89259c0.89579,-0.42827 1.82174,-0.79674 2.76278,-1.11345l0.82441,-0.27661c0.07965,-0.02882 0.16558,-0.04452 0.25517,-0.04452c0.41421,0 0.75,0.33579 0.75,0.75c0,0.10389 -0.02112,0.20285 -0.05931,0.29281l-0.37088,0.9333l-0.3073,-0.12212c-1.11459,2.24469 -3.5956,4.0819 -5.67969,5.34778c-0.29942,0.18187 -0.5986,0.36411 -0.89756,0.54669c1.72414,-0.32037 3.45716,-0.51341 5.19909,-0.72347l0.04552,0.01263v-0.01401h1.13154c0.41421,0 0.75,0.33579 0.75,0.75c0,0.25949 -0.13178,0.48821 -0.33208,0.62286l-1.22461,0.84743l-0.09002,-0.13009c-1.90335,1.62438 -4.07546,2.84356 -6.23574,4.2134c-3.68738,2.33818 -7.42014,4.5502 -11.19411,6.71741c1.10246,-0.2637 2.16423,-0.48916 2.92948,-0.74591c6.60961,-2.21766 13.18143,-4.42687 19.28185,-7.84709c0.45101,-0.25212 0.90201,-0.50424 1.35302,-0.75635l0.05208,-0.00448l-0.00615,-0.01552l1.3787,-0.54618c0.08977,-0.03799 0.18848,-0.05901 0.29209,-0.05901c0.41421,0 0.75,0.33579 0.75,0.75c0,0.27948 -0.15287,0.52326 -0.37955,0.65227l-1.27831,0.75779l-0.09085,-0.15326c-2.6384,2.18938 -5.93407,3.74441 -8.83297,5.52362c-4.13515,2.53797 -8.15473,5.24831 -12.26137,7.82713c1.71338,-0.2628 3.63095,-0.26165 4.90834,-0.43502c5.35784,-0.72714 10.38049,-1.94278 15.50678,-3.36563c0.57108,-0.19974 1.14072,-0.36845 1.68381,-0.47322c0.55238,-0.15698 1.10649,-0.31599 1.66289,-0.47667l1.14722,-0.33132c0.07096,-0.02226 0.14646,-0.03426 0.22477,-0.03426c0.41421,0 0.75,0.33579 0.75,0.75c0,0.33616 -0.22116,0.62066 -0.52591,0.71595l-1.40435,0.47547l-0.02158,-0.06375c-0.20071,0.05785 -0.40114,0.11548 -0.60133,0.17286c-2.91862,1.44363 -6.27477,2.22625 -9.32252,3.25814c-5.182,1.75448 -9.92445,3.57952 -14.7484,6.02852c3.11864,-0.65856 6.31846,-1.27138 9.33016,-2.28401l0.27519,-0.09233c0,0 0.71104,-0.23857 0.94961,0.47247zM207.81174,208.88568c2.90627,-1.26024 5.95458,-2.25857 9.01397,-3.03922c1.53158,-0.94949 3.06682,-1.89328 4.60979,-2.82498c0.95011,-0.57371 2.24262,-2.10037 3.50078,-3.24981c-0.08379,0.03886 -0.16731,0.07829 -0.25054,0.11829c-5.49594,2.63425 -10.99423,5.69568 -16.31483,8.67803c-0.18788,0.10531 -0.37418,0.21133 -0.55917,0.31768zM211.81379,208.97048c-2.66888,0.95501 -5.27082,2.09478 -7.76248,3.42751c-2.01057,1.07541 -3.84367,2.75858 -5.68287,4.07802c1.95802,-0.74563 3.8945,-1.63408 5.6582,-2.70186c2.61111,-1.57693 5.20025,-3.18847 7.78715,-4.80367z" fill="#9966ff" stroke="none" stroke-width="0.5" stroke-linecap="butt"></path><path d="M85.28773,243.64932c-6.46309,-0.08031 -12.92463,-0.16767 -19.38826,-0.16767c-2.96947,0 -6.04283,0.28424 -8.96718,-0.18556l-0.03625,0.0045l-0.00109,0.18105l-1.43827,-0.00867c-0.4124,-0.00213 -0.74605,-0.33709 -0.74605,-0.74999c0,-0.38631 0.29208,-0.70441 0.66745,-0.74551l1.47876,-0.18352l0.00077,0.00619l0.01848,-0.00833c4.492,-0.32401 8.93529,-0.64079 13.39117,-1.30171c6.92042,-1.02647 13.84685,-2.01535 20.7509,-3.14702c0.36792,-0.06031 0.79126,-0.15778 1.24988,-0.27386c-0.84589,0.03096 -1.69179,0.06191 -2.53768,0.09288c-9.47323,0.34487 -19.21162,3.01406 -28.43598,0.18333l-0.01647,0.10182l-1.46883,-0.23761c-0.36311,-0.05229 -0.64215,-0.36471 -0.64215,-0.7423c0,-0.29099 0.16571,-0.54327 0.40792,-0.66762l1.07825,-0.58075l0.0216,0.04011l0.10589,-0.09425c2.04309,-0.27119 4.07988,-0.55027 6.13587,-0.69843c8.94014,-0.64277 17.73941,-1.95404 26.66308,-0.8313c0,0 0.74413,0.09362 0.65051,0.83776c-0.09362,0.74413 -0.83776,0.65051 -0.83776,0.65051c-8.82049,-1.10976 -17.52962,0.2037 -26.36827,0.83917c-0.84211,0.0604 -1.68073,0.14549 -2.51822,0.24066c1.99739,0.37738 4.10977,1.13456 5.80153,1.19133c6.38123,0.21416 12.97292,-1.49604 19.36814,-1.73143c2.96288,-0.10847 5.92576,-0.21708 8.88866,-0.32528l0.01372,0.00425v-0.00438h1.32013c0.41421,0 0.75,0.33579 0.75,0.75c0,0.34669 -0.23523,0.63843 -0.55479,0.72434l-1.4232,0.41782l-0.05369,-0.18286c-2.78083,1.19935 -5.74647,1.51258 -8.83577,2.01896c-6.41749,1.05192 -12.86048,1.95377 -19.29321,2.90791c-0.05781,0.00857 -0.11562,0.01709 -0.17342,0.02555c4.99758,0.02859 9.99443,0.08791 14.99246,0.15001c3.99403,0.05035 6.96024,-0.12377 9.95003,2.63483l0.04808,0.04436c0.43003,-0.05235 0.84756,-0.07891 1.2404,-0.06779c0.31027,-0.05468 0.62055,-0.10934 0.93083,-0.16398l0.01096,0.00188l-0.00051,-0.0035l1.46443,-0.2156c0.03978,-0.00652 0.08062,-0.00991 0.12225,-0.00991c0.41421,0 0.75,0.33579 0.75,0.75c0,0.37319 -0.27256,0.68271 -0.62948,0.74037l-1.46329,0.26436l-0.00861,-0.04768l-0.00897,0.00132c-0.3609,0.06359 -0.72179,0.1272 -1.08267,0.19084c-0.29906,0.08622 -0.6005,0.16596 -0.90387,0.24033c0.86845,0.15569 1.73181,0.31956 2.57539,0.4512c1.40953,0.02605 2.79378,0.25618 4.11068,0.84861l0.87012,1.26371c0,0 0.41295,0.62608 -0.21312,1.03903c-0.62608,0.41295 -1.03903,-0.21312 -1.03903,-0.21312l-0.58585,-0.94366c-0.72528,-0.30857 -1.50972,-0.47421 -2.32497,-0.54178c-0.24194,0.14688 -0.52782,0.10673 -0.52782,0.10673c-0.28922,-0.04062 -0.58139,-0.08641 -0.87583,-0.13554c-1.98464,0.06788 -4.05191,0.54096 -5.82943,0.82954c-6.89553,1.1195 -13.80474,2.02243 -20.73365,2.91007c-2.65382,0.33997 -5.20512,1.09313 -7.63371,0.55404l-0.10809,0.37585l-1.30416,-0.37507c-0.32154,-0.08458 -0.55868,-0.37729 -0.55868,-0.72538c0,-0.1516 0.04498,-0.2927 0.12233,-0.41068c-1.0548,0.09561 -2.09616,0.11279 -3.10241,-0.06248l-0.31591,0.01987l-0.04199,0.24323l-1.09573,-0.18918c-0.35955,-0.0554 -0.63485,-0.36616 -0.63485,-0.74121c0,-0.40026 0.31355,-0.72729 0.70843,-0.74887l1.49153,-0.09382c0.49249,-0.03081 0.98481,-0.06868 1.47697,-0.11237c0.61209,-0.10562 1.29117,-0.16593 1.96903,-0.20311c3.23753,-0.37573 6.46836,-0.93335 9.69441,-1.32359c5.72642,-0.69269 11.86855,-2.11355 17.70011,-2.32279c0.6716,-0.12065 1.34328,-0.24078 2.01504,-0.36052c0.57896,-0.14772 1.20642,-0.31389 1.84514,-0.46228c-2.384,-1.69883 -4.85937,-1.49681 -8.09215,-1.53638zM92.66349,247.56366c-0.47222,-0.0462 -0.9405,-0.07513 -1.40212,-0.07955c-0.32756,-0.00314 -0.65642,-0.00164 -0.98644,0.00414c-0.46936,0.07488 -0.93704,0.15236 -1.40149,0.23627c-3.07913,0.55628 -6.14966,1.15628 -9.21681,1.77373c4.00173,-0.54169 7.9977,-1.11688 11.98907,-1.76488c0.33706,-0.05472 0.67652,-0.11205 1.01779,-0.16971z" fill="#9966ff" stroke="none" stroke-width="0.5" stroke-linecap="butt"></path><path d="M236.78724,246.45335c-4.37403,-1.45248 -8.81293,-2.36048 -13.30695,-3.16359c-0.01846,0.00136 -0.03711,0.00205 -0.05592,0.00205c-0.00112,0 -0.00225,0 -0.00337,-0.00001l-1.33537,-0.00513c3.42056,0.72376 6.86154,1.38458 10.23778,2.15424c1.48849,0.33932 2.97469,0.68495 4.46382,1.01243zM212.5805,242.69972c-2.46947,-0.32579 -4.84776,-0.91289 -6.83447,-2.05339l-0.11794,0.23501l-1.32616,-0.66553c-0.11548,-0.05496 -0.21469,-0.13857 -0.28844,-0.24164l-1.17659,-0.78956c-0.20564,-0.13375 -0.34162,-0.36558 -0.34162,-0.62917c0,-0.41421 0.33579,-0.75 0.75,-0.75c0.07961,0 0.15632,0.0124 0.2283,0.03538l1.12344,0.33041l-0.00271,0.00921l0.02938,-0.00082c0.79129,0.29809 1.58254,0.59629 2.37375,0.8946c0.04255,0.00985 0.08517,0.01991 0.12784,0.03018c3.46153,0.42323 6.88764,1.03632 10.32887,1.61474c1.49126,0.26268 2.97087,0.52141 4.44121,0.78693c0.29022,-0.17096 0.63605,-0.05493 0.63605,-0.05493l1.1151,0.37413c0.00427,0.00132 0.00852,0.00268 0.01276,0.00408c5.22907,0.97446 10.35209,2.09063 15.47794,3.83854c1.97949,0.67501 3.84263,1.22188 5.61772,2.11593l0.06119,-0.17943l1.40329,0.47852c0.30396,0.09576 0.52437,0.37988 0.52437,0.71547c0,0.41421 -0.33579,0.75 -0.75,0.75c-0.03578,0 -0.07097,-0.00251 -0.10541,-0.00735l-1.47648,-0.18577c-4.1957,-0.5279 -8.3,-1.51221 -12.42187,-2.45186c-3.97708,-0.90663 -8.01044,-1.70053 -12.01337,-2.5894c4.48618,2.17905 8.68705,4.87191 11.78167,8.51203l0.07833,-0.08511l1.10175,1.01399c0.14999,0.13714 0.24406,0.33441 0.24406,0.55365c0,0.41421 -0.33579,0.75 -0.75,0.75c-0.01653,0 -0.03293,-0.00053 -0.04919,-0.00159l-1.49115,-0.08521l0.00028,-0.00482l-0.0206,0.00338c-2.54893,-0.28472 -4.97259,-0.77716 -7.4728,-1.34338c-1.31992,-0.29897 -2.64222,-0.5831 -3.96454,-0.86366c3.22301,1.30659 6.41893,2.67545 9.62554,4.08682c2.66622,1.17352 5.70047,2.11827 8.17137,3.72724l0.05162,-0.12821l0.92674,0.37314c0.284,0.10679 0.48607,0.38092 0.48607,0.70224c0,0.41421 -0.33579,0.75 -0.75,0.75h-1.14896c-2.91368,0 -5.70947,-0.31191 -8.60241,-0.6516c-8.2616,-1.52552 -18.59637,-4.19629 -24.38366,-10.80616c0,0 -0.49205,-0.56602 0.07397,-1.05808c0.56602,-0.49205 1.05808,0.07397 1.05808,0.07397c5.47046,6.34395 15.62678,8.85334 23.47538,10.30705c1.75671,0.2053 3.47535,0.40124 5.20806,0.51977c-0.9746,-0.47719 -1.89314,-1.00216 -2.42076,-1.23307c-6.8813,-3.0115 -13.69028,-5.96474 -20.76306,-8.50238c-0.46648,-0.16737 -0.93246,-0.33602 -1.39813,-0.50549c-1.93217,-0.50272 -3.85097,-1.06258 -5.74883,-1.71611c-2.27601,-0.78375 -4.36613,-1.40484 -6.31378,-2.53993c-0.04105,-0.01289 -0.08212,-0.02576 -0.12319,-0.0386l-0.06845,0.16152l-1.36514,-0.57855c-0.27727,-0.11012 -0.4733,-0.38082 -0.4733,-0.69731c0,-0.41421 0.33579,-0.75 0.75,-0.75c0.078,0 0.15322,0.01191 0.22395,0.03401l1.30347,0.37485l-0.00078,0.00272l0.00887,-0.00035c4.39148,1.37025 8.68366,3.02408 13.01078,4.58881c4.45405,1.12869 9.01612,1.8931 13.48239,2.9044c2.22045,0.50286 4.37615,0.94891 6.62088,1.23426c-0.81171,-0.5912 -1.43246,-1.45422 -2.29914,-2.10485c-1.97384,-1.48182 -4.13278,-2.76778 -6.18143,-4.14535c-2.77654,-1.86702 -6.02623,-3.2331 -9.29013,-4.44835z" fill="#9966ff" stroke="none" stroke-width="0.5" stroke-linecap="butt"></path><path d="M181.75898,234.32283c-0.71066,0.0029 -1.45278,0.04712 -2.21605,0.11622c0.95404,0.29016 1.87676,0.65076 2.7543,1.09881l0.07557,-0.17162l1.35707,0.59762c0.27204,0.11257 0.46344,0.38059 0.46344,0.69331c0,0.34451 -0.23229,0.63477 -0.54879,0.7227l-0.78309,0.23716l-0.00266,-0.00879l-0.02405,0.01634c-0.09715,0.02163 -0.19445,0.04271 -0.29189,0.06327c0.09947,0.28559 0.19814,0.57174 0.29572,0.85844c0.11526,-0.00213 0.23054,-0.00435 0.34583,-0.00665c3.65649,-0.07305 7.16303,-0.44964 10.5615,0.56373l0.03472,-0.20698l1.46711,0.24612c0.36115,0.05401 0.63813,0.36552 0.63813,0.74171c0,0.41421 -0.33579,0.75 -0.75,0.75h-1.07352c-3.32707,0.70408 -6.56225,1.64355 -9.78258,2.61028c0.4865,1.84121 0.8679,3.70407 1.07213,5.58817c1.35136,1.58792 2.64013,3.10691 3.86666,4.34438l0.91336,0.7355c0.17353,0.13737 0.28485,0.34987 0.28485,0.58837c0,0.41421 -0.33579,0.75 -0.75,0.75c-0.15836,0 -0.30526,-0.04908 -0.42631,-0.13286l-1.23716,-0.83018l0.08371,-0.12474c-0.06418,-0.06469 -0.12829,-0.12945 -0.19233,-0.19427c-0.75631,-0.40888 -1.45339,-0.88382 -2.12565,-1.40287l0.06301,0.44048c0.00618,0.03875 0.00938,0.07849 0.00938,0.11898c0,0.41421 -0.33579,0.75 -0.75,0.75c-0.20052,0 -0.38265,-0.07869 -0.51721,-0.20687c-0.93854,-0.89031 -1.93723,-1.83768 -2.96777,-2.81527c-1.60288,-0.55493 -3.19261,-1.31618 -4.73088,-2.16719c0.00237,0.30288 -0.00931,0.60251 -0.03728,0.89788c-0.06812,0.71945 0.18018,1.65456 -0.35653,2.1385c-0.17528,0.15804 -0.39359,0.18273 -0.62788,0.1261c0.73403,1.66642 1.37212,3.33887 1.85452,5.00692l0.09256,-0.04522l0.65175,1.33393c0.05297,0.1028 0.08288,0.21943 0.08288,0.34305c0,0.41421 -0.33579,0.75 -0.75,0.75c-0.18015,0 -0.34547,-0.06352 -0.47478,-0.16938l-0.96495,-0.77662l0.00723,-0.00898l-0.03513,-0.01462c-2.15286,-2.10675 -4.30391,-4.21536 -6.45555,-6.32337c-0.36388,-0.3565 -0.72775,-0.71299 -1.09163,-1.06949c0.35336,2.73611 0.48576,5.53077 0.36446,8.24493l0.08134,0.17285c0.04999,0.10048 0.0781,0.21377 0.0781,0.33362c0,0.20646 -0.08342,0.39343 -0.21839,0.52905c-0.05468,0.78859 -0.13151,1.56875 -0.2313,2.33698h0.07252v1.5v0c0,0.41421 -0.33579,0.75 -0.75,0.75c-0.17855,0 -0.34253,-0.0624 -0.47133,-0.16657l-0.82235,-0.65326l0.01361,-0.01714l-0.07154,-0.03396c-2.89206,-3.46205 -5.5952,-7.14437 -8.52926,-10.57676c0.20766,0.86579 0.383,1.73437 0.4927,2.62103l0.17951,-0.04723l0.37736,1.43414c0.0189,0.06585 0.02902,0.13541 0.02902,0.20733c0,0.41421 -0.33579,0.75 -0.75,0.75c-0.2858,0 -0.53426,-0.15986 -0.66085,-0.39504l-0.72844,-1.2943l0.00246,-0.00138l-0.00707,-0.00693c-1.51141,-2.85215 -2.92968,-5.7493 -4.41235,-8.61625c-0.08041,-0.15548 -0.16863,-0.31231 -0.26241,-0.47029c-0.33857,-0.3609 -0.65034,-0.72629 -0.9155,-1.09361c1.04873,4.31798 2.33915,8.91615 2.39388,13.3736l0.12635,-0.02008l0.23331,1.46782c0.00753,0.04264 0.01146,0.08652 0.01146,0.13132c0,0.41421 -0.33579,0.75 -0.75,0.75c-0.2494,0 -0.47037,-0.12174 -0.60673,-0.30903l-0.56044,-0.75217l0.00363,-0.00271l-0.01135,-0.00784c-0.06063,-0.08756 -0.12257,-0.1764 -0.18568,-0.26646c-0.01965,1.15378 -0.09289,2.28583 -0.23812,3.38367l0.13642,-0.00631l0.06905,1.49307c0.0007,0.01324 0.00105,0.02656 0.00105,0.03997c0,0.41421 -0.33579,0.75 -0.75,0.75c-0.34758,0 -0.63994,-0.23644 -0.725,-0.55727l-0.41284,-1.42473c-0.2621,-0.90454 -0.73151,-1.98236 -1.10934,-3.07163c0.03892,0.28395 0.07891,0.56761 0.12017,0.85093c0.39177,1.85854 0.77804,3.71819 1.14818,5.58091l0.27044,1.36103c0.01139,0.05196 0.01739,0.10594 0.01739,0.16131c0,0.41421 -0.33579,0.75 -0.75,0.75c-0.3618,0 -0.66376,-0.25618 -0.73439,-0.59704l-0.33185,-1.44742l0.04242,-0.00973c-0.06189,-0.31113 -0.12418,-0.62219 -0.18685,-0.93317c-0.49358,-1.42707 -0.82931,-2.9442 -1.07718,-4.49446c-1.45173,4.90761 -2.8465,10.30269 -5.2718,14.59309l0.12408,0.0427l-0.48247,1.40192c-0.09638,0.30293 -0.37998,0.52238 -0.71484,0.52238c-0.41421,0 -0.75,-0.33579 -0.75,-0.75c0,-0.02927 0.00168,-0.05815 0.00494,-0.08655l0.14918,-1.45804c0.04041,-2.49872 0.22959,-5.0902 0.33958,-7.67511l-0.03944,-0.15178c-0.84594,-3.28466 -2.70152,-6.40764 -4.13419,-9.48049c-0.60734,-1.30266 -1.53445,-2.6904 -1.80216,-4.12483l-0.09502,0.0443l-0.00113,0.00212c-1.40323,2.63655 -2.64185,5.43425 -4.35448,7.87775l0.12606,0.06709l-0.69743,1.31041c-0.12372,0.24408 -0.37701,0.41136 -0.66938,0.41136c-0.39828,0 -0.72406,-0.31046 -0.74852,-0.70257c-0.11405,-1.59109 -0.24508,-3.41906 -0.37762,-5.26798c-1.36769,2.62141 -3.12352,5.17674 -4.52493,7.60347l-0.13459,0.05905l0.03259,0.04047l-0.93843,0.75566c-0.12933,0.10593 -0.2947,0.16949 -0.47491,0.16949c-0.41421,0 -0.75,-0.33579 -0.75,-0.75c0,-0.11703 0.02681,-0.2278 0.07461,-0.32651l0.61716,-1.34953l0.0996,0.04555c1.11526,-4.08006 3.21909,-7.9351 5.62182,-11.50817c-0.02664,-0.37163 -0.05262,-0.73406 -0.07777,-1.08497c-0.03575,-0.49872 -0.14512,-0.9976 -0.10725,-1.49616c0.02357,-0.31025 0.56298,-0.74155 0.28834,-0.88778c-0.27464,-0.14623 -0.33137,0.54207 -0.57562,0.73481c-0.39251,0.30973 -0.86748,0.49747 -1.30122,0.74621c-0.43507,0.2495 -0.89139,0.46031 -1.36005,0.64363l0.05883,0.10258l-1.28984,0.73969c-0.11243,0.06726 -0.24394,0.10591 -0.38448,0.10591c-0.23185,0 -0.43912,-0.1052 -0.5767,-0.27047c-3.28835,3.57363 -6.75433,6.9232 -10.31912,10.33115c-3.02312,2.88938 -6.29166,6.34344 -9.9014,8.44867l-1.04012,0.6032c-0.11308,0.06835 -0.24566,0.10769 -0.38743,0.10769c-0.41421,0 -0.75,-0.33579 -0.75,-0.75c0,-0.15517 0.04712,-0.29933 0.12783,-0.41896l0.81416,-1.24707l0.12246,0.07995c1.51178,-3.16091 3.81554,-5.94477 5.97935,-8.69401c2.66033,-3.3801 5.28327,-6.52607 8.16987,-9.54222c-3.1862,1.90971 -6.51849,3.58961 -9.78133,5.3631c-4.2943,2.33414 -7.59841,4.54815 -12.19756,4.50156l0.01121,0.16148l-1.48886,0.10336c-0.01963,0.00154 -0.03946,0.00232 -0.05948,0.00232c-0.41421,0 -0.75,-0.33579 -0.75,-0.75c0,-0.22296 0.09729,-0.42319 0.25173,-0.56057l0.75053,-0.67335l0.01793,0.01998l0.04507,-0.07065c4.37957,-2.49779 8.50327,-5.2154 12.65794,-8.07108c5.71145,-3.70994 11.42263,-7.42029 17.13508,-11.12868c0.25107,-0.16299 0.51538,-0.35947 0.79027,-0.57777c-0.16654,-0.05258 -0.33276,-0.10566 -0.49863,-0.15915c-2.11081,1.03829 -4.16939,2.14188 -6.20489,3.29554c-3.92278,2.45687 -7.89516,4.83598 -11.85686,7.26044c-0.21212,0.12981 -0.4244,0.25945 -0.63683,0.38892c-4.39979,2.86729 -8.79829,5.73635 -13.18672,8.62106c-2.74864,1.8068 -5.5439,3.70851 -8.64538,4.74477c-0.15583,0.10271 -0.3115,0.20562 -0.467,0.30876l0.01642,0.03359l-1.33378,0.65208c-0.10284,0.05302 -0.21953,0.08296 -0.34321,0.08296c-0.41421,0 -0.75,-0.33579 -0.75,-0.75c0,-0.29754 0.17326,-0.55461 0.42439,-0.67582l1.14692,-0.58318c7.25537,-4.83314 14.8942,-9.16726 22.34259,-13.70589c0.62025,-0.40428 1.24054,-0.8085 1.86086,-1.21268c3.58297,-2.24781 7.08333,-4.42387 10.65304,-6.44827c1.49778,-0.93821 2.98825,-1.8879 4.468,-2.85601c-1.62991,-0.56434 -3.1979,-1.13081 -4.65427,-1.61935l-0.27521,-0.09234c0,0 -0.71105,-0.23857 -0.47248,-0.94961c0.07974,-0.23767 0.21227,-0.36924 0.35339,-0.43909c-4.0776,-1.27846 -8.19655,-2.8239 -11.51479,-5.04608l-0.05366,0.12797l-1.36729,-0.57337c-0.27868,-0.10944 -0.47597,-0.38086 -0.47597,-0.69836c0,-0.41421 0.33579,-0.75 0.75,-0.75c0.07593,0 0.14922,0.01128 0.21829,0.03226l1.42813,0.39871c0.66949,0.18691 1.33971,0.36392 2.01063,0.53238c0.01407,-0.00079 0.02825,-0.00118 0.04251,-0.00118c0.09239,0 0.18088,0.01671 0.26261,0.04726l0.29351,0.10196c5.80988,1.415 11.672,2.22066 17.57382,3.30061c0,0 0.73775,0.13502 0.60273,0.87277c-0.13502,0.73775 -0.87277,0.60273 -0.87277,0.60273c-2.36491,-0.43289 -4.72334,-0.82243 -7.07463,-1.22444c2.19404,0.86707 4.31527,1.85929 6.16756,3.0697c0.00762,0.00307 0.01525,0.00615 0.02287,0.00922l0.05739,-0.13774l0.38188,0.15912c0.9969,-0.68272 1.98758,-1.37652 2.97097,-2.08359c0,0 0.60895,-0.43782 1.04676,0.17113c0.43782,0.60895 -0.17113,1.04676 -0.17113,1.04676c-0.21132,0.15193 -0.42298,0.30324 -0.63496,0.45398c0.68557,-0.29131 1.37813,-0.57532 2.07852,-0.85158l0.845,-0.33329c0.0895,-0.03772 0.18785,-0.05858 0.29108,-0.05858c0.41421,0 0.75,0.33579 0.75,0.75c0,0.24487 -0.11735,0.46234 -0.29889,0.59922l-1.1823,0.91004l-0.10081,-0.13096c-0.44234,0.45756 -0.9077,0.89363 -1.39069,1.31233c1.13428,0.42231 2.27464,0.83057 3.42343,1.2202l0.2763,-0.17369c0.1176,-0.07662 0.25803,-0.12114 0.40885,-0.12114c0.38315,0 0.69919,0.28731 0.74444,0.65824c0.29175,0.08329 0.56901,0.20528 0.81251,0.36859c0.02721,0.00852 0.05442,0.01703 0.08163,0.02553l1.41554,0.44205c0.31339,0.08994 0.54271,0.37868 0.54271,0.72099c0,0.41421 -0.33579,0.75 -0.75,0.75c-0.04815,0 -0.09524,-0.00454 -0.14087,-0.01321l-0.39713,-0.06808c-0.21367,0.87861 -0.68394,2.31638 -0.79194,2.66143c-0.27303,0.87225 -0.54605,1.7445 -0.81908,2.61675c0.58614,-0.75946 1.49186,-1.91338 1.655,-1.98331c0.5671,-0.24308 4.82409,0.19104 5.27287,0.59427c0.48264,0.43365 0.36318,1.24582 0.54477,1.86873c0.90336,4.24116 2.3345,8.68388 2.79622,13.00203c0.40269,-4.06727 0.80753,-8.13437 1.17642,-12.20481l0.12198,-1.34599c0.03061,-0.38611 0.35364,-0.6899 0.74763,-0.6899c0.26532,0 0.49846,0.13777 0.63179,0.34568l0.82178,1.24076l-0.19493,0.12911c0.41715,0.62018 0.73104,1.25094 0.98204,1.90577c0.11849,-0.07838 0.26053,-0.12401 0.41324,-0.12401c0.20142,0 0.3843,0.0794 0.51904,0.20861l1.0836,1.03541l-0.22714,0.23771c0.5236,0.53833 0.99001,1.13488 1.42213,1.76646c-0.21708,-3.33812 -0.43374,-6.67627 -0.65002,-10.01444l-0.08038,-1.2406c-0.00135,-0.01836 -0.00203,-0.03691 -0.00203,-0.05562c0,-0.41421 0.33579,-0.75 0.75,-0.75c0.2189,0 0.4159,0.09378 0.55301,0.24335l1.01534,1.10061l-0.15809,0.14584c0.74284,0.74419 1.40144,1.57814 2.00085,2.47016c0.59491,0.48 1.17484,0.98633 1.74159,1.51446c-0.24389,-0.94568 -0.58868,-2.4895 -0.17224,-2.82568c1.27838,-1.03201 2.65719,1.00338 3.17297,1.58223c2.59226,2.90924 4.99814,5.98612 7.43563,9.02842c-1.39283,-2.95616 -2.79409,-5.91262 -4.1214,-8.89825c-0.42755,-0.96173 -1.66864,-2.86092 0.17938,-3.7542c0.63169,-0.30534 2.42419,1.6439 2.77341,1.98583c0.65216,0.63856 1.30421,1.27724 1.95619,1.91598c-0.26896,-1.27416 -0.61177,-2.55374 -1.04564,-3.86598l-0.55017,-1.29213c-0.04269,-0.09425 -0.06646,-0.19891 -0.06646,-0.30911c0,-0.41421 0.33579,-0.75 0.75,-0.75c0.17236,0 0.33114,0.05814 0.45779,0.15588l0.74845,0.565l-0.14241,0.18865c0.37987,0.23882 0.74967,0.50907 1.11075,0.80256c0.00191,-0.00337 0.00386,-0.00676 0.00582,-0.01014c0.37685,-0.64844 1.0253,-0.27159 1.0253,-0.27159l0.02436,0.01423c-0.26913,-0.55083 -0.53827,-1.10166 -0.8074,-1.65248c-0.32963,-0.00134 -0.65934,-0.00278 -0.98913,-0.0043l-0.06665,-0.04172l-0.00619,0.03075l-0.92926,-0.18708c-0.35011,-0.06332 -0.61565,-0.36965 -0.61565,-0.738c0,-0.41421 0.33579,-0.75 0.75,-0.75h1.03097c-0.18275,-0.37403 -0.3655,-0.74806 -0.54825,-1.12209l-0.65175,-1.33393c-0.05297,-0.1028 -0.08288,-0.21943 -0.08288,-0.34305c0,-0.11992 0.02815,-0.23327 0.07819,-0.3338l-1.14521,-0.35423c-0.31437,-0.08931 -0.54461,-0.37853 -0.54461,-0.72153c0,-0.38914 0.29636,-0.70905 0.67569,-0.74636l1.48167,-0.16569l0.00134,0.01201l0.04027,-0.0155c2.08458,-0.00149 4.30525,-0.02035 6.52177,0.11551c3.40632,-0.38939 6.71308,-0.76584 10.21897,-0.48922l0.04187,0.02279l0.00305,-0.01516l0.92928,0.18708c0.35011,0.06331 0.61566,0.36965 0.61566,0.738c0,0.32133 -0.20208,0.59547 -0.48609,0.70225l-0.92676,0.37312l-0.84587,0.05427c0,0 -0.65817,0 -0.74139,-0.61656zM175.52459,238.59403c1.91844,0.00377 3.83711,0.00001 5.7589,-0.02383c-0.07322,-0.20265 -0.14694,-0.40551 -0.22095,-0.60872c-1.82445,0.29426 -3.68443,0.4522 -5.53795,0.63255zM189.81084,240.10338c-0.763,-0.08569 -1.49191,-0.166 -2.09738,-0.15391c-1.46339,0.02923 -2.92512,0.05251 -4.38588,0.07076c0.19066,0.59158 0.37465,1.18549 0.5495,1.78171c1.96623,-0.59327 3.93795,-1.17652 5.93375,-1.69856zM176.13726,235.32829c-0.55205,-0.10738 -1.11178,-0.19482 -1.67681,-0.26605c-2.49997,0.31079 -4.99136,0.52277 -7.16704,0.14602l0.90215,0.85579l-0.11715,0.1235c0.74514,0.54094 1.44792,1.13233 2.13076,1.75108c0.14101,-0.02314 0.28207,-0.0457 0.42318,-0.06773c0.05536,-0.3596 0.36614,-0.63495 0.74123,-0.63495c0.20923,0 0.39845,0.08568 0.53449,0.22386l0.19577,0.19863c2.81461,-0.37746 5.6411,-0.61409 8.44645,-1.10617c-0.0108,-0.02995 -0.02159,-0.05991 -0.03237,-0.08988c-1.48782,-0.30093 -3.10134,-0.88526 -4.38066,-1.13409zM166.16423,234.94862l-0.00415,0.01341c0.00494,-0.00348 0.00992,-0.00689 0.01495,-0.01025c-0.0036,-0.00105 -0.0072,-0.0021 -0.0108,-0.00316zM183.37063,246.53104c-0.02399,-0.25265 -0.05091,-0.4952 -0.0836,-0.72381c-0.10413,-0.728 -0.24325,-1.43977 -0.40892,-2.14066c-0.55843,0.16839 -1.11674,0.33669 -1.67535,0.50381c0.7384,0.76087 1.46102,1.55666 2.16788,2.36066zM120.38652,243.93219c-4.86756,3.1613 -9.73493,6.32289 -14.60271,9.48385c-3.68384,2.53253 -7.33552,4.97602 -11.18157,7.21987c0.86063,-0.02646 1.74348,0.09981 2.63421,-0.21107c2.64583,-0.92346 5.28985,-2.89478 7.75909,-4.23692c4.36304,-2.3715 8.85625,-4.57065 12.94354,-7.39382c1.41569,-0.97785 2.83182,-1.94984 4.25291,-2.91269c1.83175,-1.4888 3.7214,-2.82384 5.78201,-4.05442c-1.0582,-0.21893 -2.12327,-0.48837 -3.18324,-0.78903c-1.44414,1.01242 -2.94901,1.94912 -4.40424,2.89424zM167.62305,244.19655c-0.07823,-0.08233 -0.16576,-0.16666 -0.25876,-0.25301c0.40537,1.43591 0.74868,2.92981 1.02393,4.45622c0.84129,0.82439 1.68257,1.64879 2.52394,2.4731c1.36994,1.34216 2.74015,2.68404 4.10995,4.02635c-0.44776,-0.99662 -0.81916,-2.03599 -1.20287,-2.82132c-0.51924,-1.06271 -1.03848,-2.12543 -1.55772,-3.18814c-1.58882,-1.52134 -3.13084,-3.10662 -4.63848,-4.69319zM148.46568,254.77434c0.06192,0.53032 0.12268,1.06147 0.18347,1.59302c0.0336,-0.00461 0.06792,-0.00699 0.10279,-0.00699c0.33234,0 0.61419,0.21616 0.71263,0.51555l0.49596,1.39713l-0.13624,0.04836c0.19611,0.41509 0.37595,0.83328 0.5437,1.25557c-0.00065,-0.34453 -0.00619,-0.67312 -0.0259,-0.97557c-0.01519,-0.23322 -0.03039,-0.46644 -0.04558,-0.69967c-0.67613,-1.0107 -1.32851,-2.07226 -1.83082,-3.1274zM146.29503,254.88274c-0.26825,-1.27504 -0.82469,-2.72036 -1.18439,-4.0851c-0.41761,5.79216 -0.32571,12.52248 -2.0462,18.08335l0.12914,0.0186l-0.21221,1.47371c-0.03143,0.2462 -0.18222,0.4551 -0.39252,0.56684c-0.03488,0.6819 -0.07171,1.36269 -0.10648,2.04065c0.06852,-0.17328 0.13309,-0.34432 0.191,-0.51257c1.51601,-4.40509 3.03202,-8.81018 4.54803,-13.21527c-0.30963,-1.45665 -0.61983,-2.91313 -0.92637,-4.37021zM129.52216,246.24275c-0.92433,1.13392 -1.84866,2.26783 -2.77299,3.40175c0.83167,-0.49137 1.62761,-0.77812 2.0625,-0.54655c0.33809,0.18002 0.48868,1.78785 0.56053,2.82665c0.07282,-0.10137 0.14579,-0.20248 0.21889,-0.30335c0.54243,-1.73293 1.08486,-3.46585 1.62729,-5.19878c0.25354,-0.80998 1.43904,-3.04789 1.34755,-3.83615c-0.00761,-0.06554 -0.01808,-0.12653 -0.03124,-0.18318c-0.37646,-0.01115 -0.75629,-0.03318 -1.13888,-0.0651c-0.47327,1.06489 -1.13735,2.018 -1.88111,2.94267c0.42196,0.45352 0.00743,0.96204 0.00743,0.96204zM130.04312,261.36711c0.85039,-2.29516 2.82728,-4.91183 3.73455,-6.61652l0.69743,-1.31041c0.12372,-0.24408 0.37701,-0.41136 0.66938,-0.41136c0.3069,0 0.57075,0.18434 0.68686,0.44833l0.62673,1.34424l-0.06004,0.02799c1.83345,2.86985 3.56691,6.32023 4.8376,9.64215c-0.0234,-0.84992 -0.07113,-1.69236 -0.15174,-2.5236c-0.42173,-4.34873 -1.88828,-8.84217 -2.79944,-13.11995c-0.08637,-1.14733 -2.49946,-1.93695 -3.7596,-1.3968c-0.80788,0.34628 -0.99889,1.44759 -1.53632,2.14311c-0.72241,0.9349 -1.40441,1.84316 -2.05139,2.74807c-0.32525,1.03908 -0.6505,2.07817 -0.97575,3.11725c-0.08685,0.2739 -0.18143,0.5474 -0.28292,0.82045c0.12155,1.69568 0.2431,3.39136 0.36465,5.08704zM167.4694,262.31625c-0.23323,-0.89556 -0.29215,-1.93567 -0.28363,-2.99525c-0.58694,-0.59975 -1.15423,-1.22023 -1.68238,-1.87199c-2.1972,-2.71577 -4.34327,-5.48206 -6.58533,-8.16059c-0.59383,-0.70944 -1.22629,-1.3857 -1.82969,-2.08702c-0.08753,-0.10173 -0.21741,-0.24266 -0.35992,-0.3972c0.26633,0.82623 0.3492,1.8975 0.47313,2.38558c0.02969,0.11694 0.05973,0.23351 0.09002,0.34976c3.7191,3.99114 6.91249,8.75524 10.1778,12.77672zM167.32319,255.00901c-0.04383,-2.08674 -0.17109,-4.0502 -0.44126,-5.98473c-0.79228,-0.77622 -1.58457,-1.55243 -2.37685,-2.32865c-0.3251,-0.3185 -2.10248,-2.60596 -2.32692,-2.68199c-0.58256,-0.19736 0.44823,1.14686 0.71465,1.70125c0.64935,1.35118 1.25616,2.72529 1.8837,4.08677c0.81801,1.7747 1.75217,3.52855 2.54861,5.32555c-0.00047,-0.03972 -0.00112,-0.07912 -0.00194,-0.11819zM172.31646,243.68341l0.06275,-0.10131l1.264,0.78294c0.21934,0.13088 0.36625,0.37054 0.36625,0.64452c0,0.04953 -0.0048,0.09793 -0.01396,0.14477c0.00527,0.00327 0.01054,0.00653 0.01581,0.0098c-0.00324,-0.43809 0.36722,-0.61849 0.51452,-0.67287c-0.03623,-0.15336 -0.07306,-0.3065 -0.11043,-0.45945c-1.00626,-0.95455 -1.98147,-1.87964 -2.89917,-2.75019c-0.39721,-0.3768 -0.89431,-0.78035 -1.41194,-1.20902c-0.12723,-0.00034 -0.25447,-0.0007 -0.38172,-0.00108c0.52252,0.96974 1.06313,1.95124 1.60791,2.94208c0.35625,0.20219 0.67425,0.41974 0.98596,0.66979zM175.36188,249.8149c-0.21426,-0.60677 -0.31921,-1.4318 -0.39629,-2.24102c-0.59747,-0.36368 -1.18405,-0.73393 -1.75725,-1.10321c0.42618,0.80236 0.84489,1.60885 1.24915,2.41826c0.20257,0.1891 0.40638,0.37687 0.61125,0.56342c0.08229,0.07493 0.18873,0.21186 0.29314,0.36254zM176.69206,246.72338c0.40357,0.21704 0.81161,0.42755 1.22543,0.63055c-0.44925,-0.42616 -0.89829,-0.85213 -1.34502,-1.27591c0.04378,0.21544 0.08388,0.43067 0.11959,0.64536zM128.63771,243.40452c-1.81174,1.17257 -3.60615,2.36646 -5.39235,3.57512c-1.00544,0.80037 -1.99613,1.65421 -3.00594,2.59093c-5.12801,4.75682 -9.26812,9.90754 -13.5928,15.3995c-0.83134,1.05573 -1.65319,2.76064 -2.61483,4.17685c2.60413,-1.97278 5.02547,-4.51007 7.29016,-6.67569c3.93726,-3.76404 8.14833,-7.36159 11.58955,-11.58644c1.77372,-2.17763 3.61505,-5.18779 5.72621,-7.48027zM179.99302,242.97282c0.83544,-0.24813 1.66965,-0.50054 2.50407,-0.75331c-0.21149,-0.73331 -0.44649,-1.4585 -0.69481,-2.18202c-1.82827,0.01859 -3.65539,0.02976 -5.4827,0.03532c1.26354,0.77637 2.48796,1.77744 3.67344,2.90001z" fill="#754ec2" stroke="none" stroke-width="0.5" stroke-linecap="butt"></path><path d="M157.04406,178.37361c0.08851,-1.86645 0.14843,-3.71257 0.39305,-5.56528l0.17886,-1.35006c0.04364,-0.37266 0.36049,-0.66182 0.74487,-0.66182c0.35883,0 0.65881,0.252 0.73261,0.58868c0.00152,-0.03575 0.0033,-0.07133 0.00535,-0.10672c-0.01899,-0.5214 -0.04649,-1.03988 -0.08357,-1.55476l-0.08188,-1.15367c-0.00161,-0.02005 -0.00243,-0.04032 -0.00243,-0.06078c0,-0.41421 0.33579,-0.75 0.75,-0.75c0.39153,0 0.71299,0.30002 0.74702,0.6827l0.15044,1.48401l-0.04616,0.00468c0.01103,0.17596 0.02102,0.35229 0.03001,0.52896c0.07826,-0.02769 0.1625,-0.04276 0.25025,-0.04276c0.35001,0 0.64403,0.23976 0.72676,0.56401l0.39924,1.42883l-0.18022,0.05036c1.62611,3.76338 1.48892,7.72976 1.66986,11.94911c0.23604,5.50421 0.55834,10.99126 0.67612,16.50046c0.03303,1.54507 0.06537,3.08981 0.08668,4.6351l-0.08202,0.11501l0.048,0.01714l-0.36917,1.03365c-0.09885,0.29869 -0.38035,0.51419 -0.71218,0.51419c-0.38472,0 -0.70179,-0.28967 -0.74499,-0.66281l-0.19351,-1.47706l0.15683,-0.02055c-0.23816,-0.9207 -0.41145,-1.8539 -0.55298,-2.79539c-0.05585,0.01327 -0.11413,0.0203 -0.17404,0.0203c-0.14091,0 -0.27274,-0.03886 -0.38536,-0.10644c-0.02251,2.19423 -0.10507,4.38787 -0.17133,6.58122l-0.0327,0.05877l0.02269,0.00459l-0.20415,1.00939c-0.06357,0.3498 -0.36975,0.61503 -0.73789,0.61503c-0.35964,0 -0.66016,-0.25314 -0.7331,-0.59096l-0.1272,-0.53349c-0.08679,2.19808 -0.19694,4.39434 -0.3683,6.58335l-0.09767,1.24626c-0.02665,0.39001 -0.35146,0.69811 -0.74823,0.69811c-0.40376,0 -0.73301,-0.31906 -0.74936,-0.7188l-0.07068,-1.49408l0.18297,-0.00866c0.00137,-0.01779 0.00274,-0.03557 0.0041,-0.05336c-0.36724,-1.93254 -0.3723,-3.85345 -0.4706,-5.93128c-0.01243,-0.26285 -0.02321,-0.52573 -0.0324,-0.78864c-0.10246,-0.1198 -0.16782,-0.27227 -0.1783,-0.43962c-0.0323,-0.44902 -0.14332,-1.99241 -0.17562,-2.44143c-0.20942,-0.86456 -0.2322,-1.87481 -0.22212,-2.84411c-0.40547,-4.77359 -0.97081,-9.48879 -1.68696,-14.2177c-0.02407,3.25709 -0.1219,6.51671 -0.15179,9.76568c-0.03499,3.80332 -0.12836,7.60332 -0.22539,11.40555v1.13179c0,0.41421 -0.33579,0.75 -0.75,0.75c-0.39263,0 -0.71479,-0.3017 -0.7473,-0.68591l-0.14344,-1.48504l0.14809,-0.0143c0.00156,-0.06127 0.00311,-0.12253 0.00466,-0.1838c-0.56618,-2.35607 -0.63485,-4.7932 -0.87381,-7.26716c-0.67514,-6.98985 -0.55547,-14.02484 -0.64378,-21.04498c-0.00068,-1.00149 -0.00136,-2.00298 -0.00203,-3.00447l-0.00101,-1.49991c0,-0.0002 0,-0.00039 0,-0.00059c0,-0.41421 0.33579,-0.75 0.75,-0.75c0.14259,0 0.27589,0.03979 0.3894,0.10888c-0.23492,-1.31313 -0.48189,-2.61018 -0.67241,-3.88248c-0.92598,6.88224 -1.85747,13.76373 -2.78671,20.64553c0.00323,0.51898 0.00646,1.03797 0.0097,1.55695c0.00934,1.49997 0.01868,2.99994 0.02802,4.49991l0.00934,1.49918c0.00001,0.00182 0.00002,0.00364 0.00002,0.00546c0,0.41421 -0.33579,0.75 -0.75,0.75c-0.12407,0 -0.24111,-0.03013 -0.3442,-0.08347c-0.47612,4.00059 -0.91385,8.00531 -1.3565,12.0117c-0.3283,2.97143 -0.40218,6.04979 -1.17342,8.92512l0.18507,0.02045l-0.16373,1.48197c-0.03689,0.37976 -0.35701,0.67659 -0.74645,0.67659c-0.05884,0 -0.1161,-0.00678 -0.17104,-0.01959l-0.00579,0.11986c-0.01668,0.39944 -0.34579,0.71816 -0.74934,0.71816c-0.39287,0 -0.71518,-0.30207 -0.74736,-0.68662l-0.14188,-1.48526l0.13699,-0.01309c-0.37818,-1.29208 -0.64543,-2.63339 -0.82436,-4.00912c-0.03943,0.0064 -0.0799,0.00973 -0.12114,0.00973c-0.41406,0 -0.74974,-0.33553 -0.75,-0.74953c0,-0.00002 0,-0.00004 0,-0.00006l-0.00095,-1.49994c-0.00315,-4.99681 -0.02519,-9.98871 -0.12315,-14.98461c-0.142,-7.24214 0.65953,-15.23322 -0.43046,-22.38371c-0.16234,-1.06494 -0.73466,-2.12842 -1.14994,-3.19021c-0.64421,5.09801 -1.27524,10.19382 -1.79709,15.30748c-0.65569,6.42516 -1.64839,12.91232 -1.9768,19.36125c-0.1181,2.319 0.08126,4.60224 -0.01691,6.85899c0.00684,0.70034 0.01143,1.40065 0.01328,2.1009l0.00001,0.00201h0.00402l-0.0001,1.49999c0,0 0,0 0,0.00001c-0.00003,0.41419 -0.3358,0.74995 -0.75,0.74995c-0.41364,0 -0.74907,-0.33486 -0.75,-0.74829l-0.00392,-1.49975c-0.00065,-0.24969 -0.00165,-0.49938 -0.00298,-0.74908c-0.27658,-1.21222 -0.13514,-2.72627 -0.04638,-4.02934c-0.0623,-3.70224 -0.16994,-7.40493 -0.24904,-11.10582c-0.29181,3.99909 -0.62005,7.99322 -1.03148,11.98791l-0.05548,0.07854l0.02936,0.01062l-0.38413,1.06252c-0.09966,0.29726 -0.38045,0.51145 -0.71126,0.51145c-0.36606,0 -0.67087,-0.26225 -0.73679,-0.60912l-0.30688,-1.45361l0.08679,-0.01832c-0.12412,-0.31632 -0.24347,-0.6351 -0.35824,-0.95619c-0.00167,0.00001 -0.00334,0.00002 -0.00502,0.00002c-0.3822,0 -0.69762,-0.28588 -0.7441,-0.65547l-0.12542,-0.88368c-0.12384,-0.87258 -0.23864,-1.7449 -0.34573,-2.61719c-0.2658,-1.11979 -0.49109,-2.25738 -0.68359,-3.4068c0.00473,1.83885 0.00365,3.67776 0.00587,5.51678l0.00181,1.49984c0,0.00035 0,0.00071 0,0.00106c0,0.41421 -0.33579,0.75 -0.75,0.75c-0.0201,0 -0.04001,-0.00079 -0.05971,-0.00234c0.00545,0.16109 0.01084,0.32218 0.01618,0.48328l0.03952,1.19335c0.00036,0.00954 0.00054,0.01913 0.00054,0.02876c0,0.41421 -0.33579,0.75 -0.75,0.75c-0.18871,0 -0.36115,-0.0697 -0.49297,-0.18476l-1.13269,-0.97725l0.28314,-0.32818c-1.25819,-1.56586 -1.34983,-3.51049 -1.92325,-5.89878c-1.51467,-6.30862 -2.23773,-12.78498 -3.04241,-19.22966c-0.26484,4.27113 -0.5285,8.54397 -0.68484,12.81637c-0.09945,2.7177 0.1063,5.45837 -0.23086,8.12053c0.00528,0.27846 0.01075,0.55697 0.01639,0.83553l0.00055,0.02731l0.05624,0.00099l-0.02632,1.49812c-0.00616,0.4089 -0.33955,0.73847 -0.74991,0.73847c-0.40977,0 -0.74278,-0.32862 -0.74988,-0.73669l-0.03037,-1.4978c-0.00816,-0.40229 -0.01594,-0.80446 -0.02331,-1.20654c-0.13422,-0.89052 -0.11317,-1.91788 -0.04576,-2.92627c-0.03905,-3.06519 -0.04819,-6.12793 -0.00909,-9.19766c0.08828,-6.93151 0.28106,-13.85269 0.49207,-20.78136c0.038,-1.24787 -0.35116,-4.5574 0.20733,-6.16939c-0.03224,-0.21854 -0.06545,-0.43693 -0.09967,-0.65517l0.0043,-0.01377l-0.006,0.00073l-0.09947,-0.82128c-0.00451,-0.03325 -0.00683,-0.06718 -0.00683,-0.10167c0,-0.41421 0.33579,-0.75 0.75,-0.75c0.27454,0 0.51463,0.14752 0.64533,0.36761c0.06711,-3.26234 0.10026,-6.52352 0.1087,-9.77294l0.0039,-1.49975c0.00092,-0.41343 0.33635,-0.7483 0.75,-0.7483c0.32587,0 0.60319,0.20782 0.70667,0.49816l0.53012,1.38447l-0.27183,0.10409c0.97185,2.30586 1.12867,4.84399 1.56911,7.43196c0.06617,0.38878 0.1323,0.77756 0.19838,1.16634c0.02239,-0.64952 0.0453,-1.29808 0.06748,-1.94538l0.03441,-1.00448c0.01192,-0.40378 0.343,-0.72745 0.74967,-0.72745c0.2788,0 0.52207,0.15212 0.65133,0.37789l0.55866,0.93723l-0.29881,0.17811c0.00848,0.01581 0.01689,0.03164 0.02524,0.04751c0.69489,0.16263 0.55354,0.87402 0.55354,0.87402c-0.0203,0.10132 -0.04003,0.20287 -0.05919,0.30463c0.21884,0.66415 0.36486,1.36464 0.47431,2.08193c0.06654,-0.01934 0.13691,-0.02971 0.20969,-0.02971c0.392,0 0.71375,0.30073 0.74714,0.68406l0.14747,1.48445l-0.00036,0.00004l0.00047,0.00115c0.02508,0.26089 0.04951,0.52171 0.0733,0.78247c0.5246,1.55975 0.3434,3.72241 0.47923,5.19601c0.23919,2.59485 0.33607,5.21911 0.36627,7.85375c0.33849,3.03353 0.62522,6.07532 0.84377,9.14475c0.20375,2.86164 0.40615,5.71068 0.65409,8.55444c0.13349,0.55925 0.26895,1.11837 0.40629,1.6775c0.00985,-0.10367 0.01804,-0.20401 0.02428,-0.30067c0.45064,-6.98548 0.90129,-13.97096 1.35193,-20.95644c0.19288,-2.98993 0.35388,-5.97727 0.48344,-8.9706l0.04495,-1.0385c0.01499,-0.401 0.34481,-0.72147 0.74947,-0.72147c0.2135,0 0.40617,0.08921 0.54275,0.23239c0.02293,-1.05098 0.07822,-2.09713 0.20939,-3.12811c0.00435,-0.36052 0.00665,-0.72097 0.0066,-1.08135v-0.01736l-0.03535,-0.00084l0.0355,-1.49738c0.00829,-0.40702 0.34083,-0.73442 0.74984,-0.73442c0.41421,0 0.75,0.33579 0.75,0.75v1.5c-0.00004,0.31509 -0.00184,0.63024 -0.00522,0.94544c0.37596,2.02798 -0.16846,4.88843 -0.20833,6.56981c-0.06853,2.89044 -0.15973,5.77919 -0.26418,8.66738c0.15052,4.60425 0.31667,9.20858 0.44093,13.8137c0.30779,-2.62959 0.63124,-5.2532 0.89751,-7.86246c0.60867,-5.96434 1.3614,-11.90514 2.12014,-17.85212l0.04576,-1.10068c0.01442,-0.40152 0.34447,-0.72261 0.74951,-0.72261c0.33789,0 0.62359,0.22344 0.7174,0.53062l0.46613,1.40755l-0.14774,0.04893c2.00956,4.10411 2.03185,8.37152 2.12418,13.08053c0.09802,4.99904 0.19604,9.99808 0.29406,14.99712c0.00695,0.35427 0.01351,0.70853 0.01972,1.06276c0.31166,-2.68839 0.63471,-5.30075 0.8171,-7.73747c0.28663,-3.82926 0.51141,-7.65754 0.70584,-11.48803c-0.10179,-1.25746 -0.24333,-2.6951 -0.19248,-3.92641c-0.05869,-0.7024 -0.1188,-1.3923 -0.18319,-2.06629l-0.08618,-0.9021c-0.00286,-0.02662 -0.00433,-0.05365 -0.00433,-0.08102c0,-0.41421 0.33579,-0.75 0.75,-0.75c0.02579,0 0.05128,0.0013 0.0764,0.00384c0.02528,-0.57752 0.05035,-1.15515 0.07532,-1.73288l0.04177,-0.96633c0.01497,-0.40101 0.34479,-0.72151 0.74947,-0.72151c0.39805,0 0.72368,0.3101 0.74848,0.7019l0.0572,0.78688c0.29541,-2.64272 0.59083,-5.28543 0.88624,-7.92815l0.16563,-1.48168c0.0373,-0.37934 0.35722,-0.67572 0.74637,-0.67572c0.41285,0 0.74779,0.33358 0.74999,0.74592l0.00934,1.49938l-0.17193,0.00107l-0.00724,0.06475c0.46176,2.9185 0.21672,5.96615 0.23521,8.934c0.01498,2.40588 0.02996,4.81177 0.04494,7.21765c0.48422,-3.58869 0.96888,-7.17732 1.45502,-10.76574l0.01285,-0.02906l-0.00676,-0.00149l0.32018,-1.45036c0.06844,-0.34368 0.37174,-0.6027 0.73554,-0.6027c0.25745,0 0.4846,0.12972 0.61966,0.32736l0.85633,1.21885l-0.19542,0.1373c1.38172,2.09711 1.31502,4.21779 1.59914,7.19202c0.08423,0.88169 0.15141,1.76464 0.20443,2.64858c0.75118,2.16202 1.11633,4.44569 1.53296,6.92372c0.14178,0.84325 0.27544,1.6863 0.40167,2.52941c0.08412,-1.71712 0.19005,-3.43469 0.29839,-5.14948c0.01879,-1.2636 0.03295,-2.50081 0.02762,-3.69973l-0.00608,-1.36718c-0.00001,-0.0013 -0.00001,-0.0026 -0.00001,-0.0039c0,-0.2547 0.12696,-0.47975 0.32106,-0.61531c0.01933,-0.36689 0.03778,-0.73348 0.05515,-1.09974zM146.03399,174.56397c0.00791,0.034 0.01571,0.06802 0.02342,0.10207c0.00558,-0.04993 0.01116,-0.09987 0.01675,-0.1498l-0.03822,0.00278c-0.00065,0.01499 -0.0013,0.02997 -0.00195,0.04496zM159.40154,203.43304c0.08103,0.24905 0.16331,0.50056 0.24367,0.75303c0.02414,-1.00181 0.04108,-2.00373 0.04213,-3.00587c0.0007,-0.6381 0.00213,-1.27614 0.00426,-1.91414c-0.05752,0.49974 -0.12112,0.99326 -0.1902,1.47916c-0.00206,0.05093 -0.00412,0.10187 -0.00618,0.1528c-0.03421,0.84436 -0.06472,1.68946 -0.09369,2.53501zM145.48952,208.4038c0.39673,-3.57056 0.80359,-7.13934 1.24983,-10.70411c-0.27192,-0.78934 -0.51329,-1.60054 -0.72869,-2.42812c-0.10579,2.59323 -0.20614,5.18669 -0.2969,7.78069c-0.06233,1.78118 -0.14425,3.56565 -0.22424,5.35154zM146.36974,186.81192c0.28935,1.94572 0.62066,3.89036 1.00784,5.85018c-0.03206,-5.14781 -0.06411,-10.29562 -0.09617,-15.44344c-0.26945,2.41046 -0.5389,4.82092 -0.80835,7.23138c-0.00934,0.20827 -0.01864,0.41617 -0.02767,0.62365c-0.02523,0.57942 -0.05046,1.15882 -0.07565,1.73823zM123.59132,176.66277c-0.49909,-2.99689 -1.00691,-5.99243 -1.51677,-8.98832c-0.0843,-0.49531 -0.21173,-1.04858 -0.35224,-1.63417c-0.05907,4.69546 -0.18066,9.4022 -0.39147,14.08897c0.18008,2.3689 0.32861,4.74093 0.51212,7.10499c1.17929,8.86307 2.35826,17.55725 4.36447,26.2443c-0.15371,-4.32511 -0.34547,-8.64882 -0.54388,-12.97223c-0.56711,-5.45853 -1.13422,-10.91706 -1.70133,-16.37559c-0.25685,-2.47224 -0.35651,-4.96751 -0.3709,-7.46796zM126.98568,188.27791c-0.00043,-0.92922 -0.00416,-1.85815 -0.01348,-2.78647c-0.00533,-0.12999 -0.01071,-0.25995 -0.01613,-0.3899c-0.41784,-3.65185 -0.90921,-7.29394 -1.44496,-10.96096c-0.01024,-0.07011 -0.02236,-0.14438 -0.03614,-0.22249c-0.01974,2.20687 0.10698,4.45955 0.29105,6.71165c0.3776,2.31321 0.74816,4.6277 1.10863,6.94424c0.03655,0.23486 0.07356,0.4695 0.11103,0.70393zM152.95824,196.75669c0.08092,-4.83183 0.27102,-9.69107 0.12817,-14.51218c-0.12971,-0.34942 -0.26082,-0.70262 -0.38462,-1.0539c0.00002,0.02953 0.00004,0.05905 0.00006,0.08858c0.06499,5.15889 0.01528,10.32636 0.25639,15.4775zM158.36348,181.73026c0.08505,0.24156 0.16648,0.48589 0.24439,0.73279c0.00447,-0.04916 0.00893,-0.09834 0.01338,-0.14754c0.02528,-0.81951 0.05066,-1.63902 0.07632,-2.45853c0.01598,-0.51015 -0.04766,-1.0704 -0.14386,-1.65457c-0.00372,0.08071 -0.00749,0.16146 -0.01132,0.24225c-0.04519,0.95302 -0.0975,1.90772 -0.1538,2.86361l0.02263,0.1316l-0.03072,0.00528c-0.00563,0.09502 -0.0113,0.19006 -0.01701,0.28511zM162.45171,195.86433c-0.14129,-3.77273 -0.33252,-7.54258 -0.4952,-11.31466c0.00334,2.30404 0.00207,4.60651 0.04075,6.8983c0.12889,1.46817 0.27895,2.9389 0.45445,4.41636z" fill="#9966ff" stroke="none" stroke-width="0.5" stroke-linecap="butt"></path></g></g></svg>