<svg version="1.1" xmlns="http://www.w3.org/2000/svg" xmlns:xlink="http://www.w3.org/1999/xlink" width="37.82223" height="13.99439" viewBox="0,0,37.82223,13.99439"><defs><radialGradient cx="241.11633" cy="176.91808" r="5.64686" gradientUnits="userSpaceOnUse" id="color-1"><stop offset="0" stop-color="#ffffff"/><stop offset="1" stop-color="#00ebff"/></radialGradient></defs><g transform="translate(-213.60065,-169.99627)"><g stroke-miterlimit="10"><path d="M214.35003,169.99627h37.07285v13.99439h-37.07285c0,0 0,-6.24282 0,-8.79117c0,-1.96052 0,-5.20322 0,-5.20322z" fill="#646464" stroke="none" stroke-width="NaN" stroke-linecap="butt"/><path d="M214.35514,174.95398h21.60537v4.41928h-21.11434z" fill="#005757" stroke="none" stroke-width="0" stroke-linecap="butt"/><path d="M237.18808,174.95397h-22.58743" fill="none" stroke="#00d1c1" stroke-width="2" stroke-linecap="round"/><path d="M214.84617,179.12773h22.0964" fill="none" stroke="#00d1c1" stroke-width="2" stroke-linecap="round"/><path d="M241.11633,171.27123c3.11867,0 5.64686,2.52819 5.64686,5.64686c0,3.11867 -2.52819,5.64686 -5.64686,5.64686c-3.11867,0 -5.64686,-2.52819 -5.64686,-5.64686c0,-3.11867 2.52819,-5.64686 5.64686,-5.64686z" fill="url(#color-1)" stroke="#00ebff" stroke-width="2" stroke-linecap="butt"/></g></g></svg>