<svg version="1.1" xmlns="http://www.w3.org/2000/svg" xmlns:xlink="http://www.w3.org/1999/xlink" width="127.42683" height="122.25707" viewBox="0,0,127.42683,122.25707"><g transform="translate(-171.16035,-129.52913)"><g data-paper-data="{&quot;isPaintingLayer&quot;:true}" fill-rule="nonzero" stroke-linejoin="miter" stroke-miterlimit="10" stroke-dasharray="" stroke-dashoffset="0" style="mix-blend-mode: normal"><path d="M199.48851,186.22942c0,-21.81525 17.68475,-39.5 39.5,-39.5c21.81525,0 39.5,17.68475 39.5,39.5c0,21.81525 -17.68475,39.5 -39.5,39.5c-21.81525,0 -39.5,-17.68475 -39.5,-39.5z" fill="#d8d8d8" stroke="#000000" stroke-width="1.5" stroke-linecap="butt"></path><path d="M242.02205,183.05545v-8" fill="none" stroke="#000000" stroke-width="1.5" stroke-linecap="round"></path><path d="" data-paper-data="{&quot;index&quot;:null}" fill="none" stroke="#000000" stroke-width="1.5" stroke-linecap="round"></path><path d="M253.08518,207.98809c0,0 -17.91104,4.58722 -25.6108,-0.53676c-1.90381,-1.26693 -4.4943,-5.21093 -3.86722,-8.6468c0.60031,-3.28916 4.39812,-6.06289 3.63978,-7.76264" data-paper-data="{&quot;index&quot;:null}" fill="#000000" stroke="#000000" stroke-width="0" stroke-linecap="round"></path><path d="M249.49371,175.54059v8" fill="none" stroke="#000000" stroke-width="1.5" stroke-linecap="round"></path><g stroke="#000000" stroke-linecap="butt"><path d="M254.61305,216.40419l-0.44532,-59.45093l43.22131,-0.32375l0.44532,59.45093c0,0 -17.57014,13.07921 -20.7147,15.42003c-0.92715,0.69017 -1.80077,1.3405 -1.80077,1.3405z" fill="#008c04" stroke-width="1.5"></path><path d="M273.27563,233.87452l-0.58745,-78.42604l4.82627,-0.03615l0.58745,78.42604z" fill="#00ff08" stroke-width="0"></path><path d="M297.89683,185.41822l-44.55025,0.3337l-0.04715,-6.29345l44.55025,-0.3337z" fill="#00ff08" stroke-width="0"></path></g><path d="M228.38227,159.51741c0.00056,2.5 -2.49944,2.50056 -2.49944,2.50056l-2.75274,-0.02404c-0.14198,-0.02006 -0.28395,-0.04011 -0.42593,-0.06017c-0.73231,0.88324 -1.9817,0.88324 -1.9817,0.88324l-2.64971,-0.00098c-2.82612,-0.16866 -5.63738,-0.72147 -8.36089,-1.49471c0,0 -2.40262,-0.69096 -1.71166,-3.09358c0.69096,-2.40262 3.09358,-1.71166 3.09358,-1.71166c0.13729,0.04006 0.27485,0.07951 0.41268,0.11831c0.805,-1.21846 2.42136,-0.99012 2.42136,-0.99012c3.30056,0.46627 6.60112,0.93255 9.90168,1.39882l2.05221,-0.02512c0,0 2.5,-0.00056 2.50056,2.49944z" fill="#9fff66" stroke="none" stroke-width="0.5" stroke-linecap="butt"></path><path d="M225.97782,187.36969l-3.43509,0.40602c-4.39697,0.30264 -8.41233,0.72489 -12.77555,-0.02768c0,0 -2.46147,-0.43722 -2.02425,-2.89869c0.43722,-2.46147 2.89869,-2.02425 2.89869,-2.02425c1.13372,0.20836 2.24352,0.31584 3.34426,0.35688c0.57722,-0.33484 1.16034,-0.38588 1.16034,-0.38588c1.52118,-0.13292 3.03815,-0.28929 4.55322,-0.45783c-2.43493,-0.05931 -4.8671,-0.14537 -7.31208,-0.14489c0,0 -2.5,0 -2.5,-2.5c0,-2.5 2.5,-2.5 2.5,-2.5c1.51401,0.00029 3.02319,0.03375 4.53114,0.07321c-0.70783,-0.20945 -1.53153,-0.752 -1.6618,-2.13248c-0.16155,-1.71196 0.96555,-2.35751 1.685,-2.59372c-1.23732,-0.06159 -2.47917,-0.17148 -3.74615,-0.36426c0,0 -2.47055,-0.38257 -2.08799,-2.85312c0.18584,-1.2001 0.86436,-1.72696 1.51307,-1.95148c0.84926,-1.54685 2.73085,-1.09591 2.73085,-1.09591c2.64489,0.65748 5.44631,0.77772 8.15956,0.52075l3.76772,-0.91895c0,0 2.42985,-0.58805 3.01791,1.8418c0.37362,1.54381 -0.471,2.34414 -1.13666,2.72254c-0.02226,0.22533 -0.06683,0.42718 -0.12883,0.60802c0.55802,-0.07474 1.11627,-0.15013 1.67488,-0.2259l0.39456,-0.24129c0,0 2.31908,-0.93374 3.25282,1.38534c0.93374,2.31908 -1.38534,3.25282 -1.38534,3.25282l-0.37122,0.13022c0.13519,0.243 0.24223,0.53626 0.30786,0.88981c0.45627,2.45801 -2.00174,2.91428 -2.00174,2.91428l-3.71176,0.68859c0.00022,0.0164 0.00033,0.0329 0.00033,0.04952c0,0.73757 -0.2176,1.25753 -0.52441,1.62409c0.88444,-0.10476 1.76943,-0.20778 2.65546,-0.30682l2.52764,-0.392c0,0 2.47055,-0.38259 2.85314,2.08796c0.38259,2.47055 -2.08796,2.85314 -2.08796,2.85314l-2.63215,0.40705c-0.75465,0.08449 -1.50859,0.17173 -2.26207,0.26042c-0.64958,0.81314 -1.7434,0.94268 -1.7434,0.94268z" fill="#9fff66" stroke="none" stroke-width="0.5" stroke-linecap="butt"></path><path d="M228.56526,216.37047c0.27787,2.48451 -2.20663,2.76238 -2.20663,2.76238l-3.8428,0.41501c-1.3471,-0.13781 -2.69421,-0.27562 -4.04131,-0.41343c0,0 -2.48608,-0.26342 -2.22266,-2.7495c0.26342,-2.48608 2.7495,-2.22266 2.7495,-2.22266c0.66697,0.07349 1.33394,0.14697 2.00092,0.22046l-4.31437,-1.57915c0,0 -1.13611,-0.41584 -1.53838,-1.45929c-0.35802,-0.161 -0.70888,-0.33716 -1.05115,-0.53039c0,0 -2.15584,-1.26584 -0.88999,-3.42168c0.46088,-0.78492 1.03974,-1.11626 1.58958,-1.22025c-0.7094,-0.26353 -1.5743,-0.88918 -1.53601,-2.37256c0.02488,-0.96368 0.41175,-1.54617 0.87776,-1.89816c-0.71994,-0.5669 -1.25622,-1.43843 -1.93821,-2.06827c0,0 -1.46039,-1.46996 -0.38383,-3.06291c-4.72099,0.28639 -9.44595,0.32948 -14.20317,-0.21056c0,0 -2.48362,-0.28569 -2.19793,-2.76932c0.05502,-0.47834 0.19158,-0.85396 0.37622,-1.14868c-0.00305,-0.13063 0.00223,-0.26852 0.01688,-0.41408c0.25037,-2.48743 2.7378,-2.23706 2.7378,-2.23706c7.48703,0.76623 14.83149,-0.14038 22.28717,-0.99509l0.98293,-0.3184c0,0 2.13366,-0.61363 2.95786,1.32633l1.46182,-0.02505c0,0 0.7925,-0.0133 1.49252,0.4213c0.73631,0.07611 2.06816,0.46307 2.23,2.2527c0.22517,2.48984 -2.26467,2.71501 -2.26467,2.71501l-1.37136,0.12402c-3.48759,0.31513 -6.96167,0.68669 -10.43349,0.97953c2.31005,2.5346 5.68065,1.39978 8.89893,1.1158l2.49662,-0.38803c0,0 2.47056,-0.38256 2.85312,2.08799c0.38256,2.47056 -2.08799,2.85312 -2.08799,2.85312l-2.50595,0.3867c0.28235,0.37189 0.47347,0.8874 0.45503,1.60193c-0.06451,2.49917 -2.56368,2.43466 -2.56368,2.43466c-1.47271,-0.03802 -5.0873,-0.13132 -7.05727,-0.18217c0.15828,0.06708 0.251,0.12152 0.251,0.12152c1.80575,1.12182 4.0596,1.38822 6.17566,1.59184l3.58118,-0.13652c0,0 2.49835,-0.09074 2.58909,2.40762c0.09074,2.49835 -2.40762,2.58909 -2.40762,2.58909l-2.3549,0.08167c-0.43155,1.05824 -1.18157,1.41346 -1.84258,1.4976c0.04347,0.00479 0.08693,0.00958 0.1304,0.01437l3.3016,-0.38404c0,0 2.48451,-0.27787 2.76238,2.20663z" fill="#9fff66" stroke="none" stroke-width="0.5" stroke-linecap="butt"></path><path d="M221.99309,156.72137c0,-1.38071 1.11929,-2.5 2.5,-2.5c1.38071,0 2.5,1.11929 2.5,2.5c0,1.21155 -0.86182,2.22181 -2.00587,2.45117l2.73687,1.57418c0,0 0.75566,0.43464 1.11788,1.23682c0.67746,-0.04433 1.35505,-0.08655 2.03275,-0.12669l3.45909,0.15774c0,0 2.49729,0.11644 2.38085,2.61372c-0.11644,2.49729 -2.61372,2.38085 -2.61372,2.38085l-3.19325,-0.15242c-3.25646,0.19709 -6.51011,0.44651 -9.75894,0.744c0,0 -2.4896,0.22781 -2.71741,-2.26179c-0.22781,-2.4896 2.26179,-2.71741 2.26179,-2.71741c0.26864,-0.02457 0.53732,-0.04878 0.80604,-0.07264c-0.37004,-0.58129 -0.57618,-1.4205 0.03299,-2.4796c0.46369,-0.80618 1.05479,-1.13995 1.61433,-1.24124c-0.69366,-0.44431 -1.1534,-1.22182 -1.1534,-2.10671z" fill="#70b548" stroke="none" stroke-width="0.5" stroke-linecap="butt"></path><path d="M223.58075,174.89923c0,-0.24688 0.03578,-0.48539 0.10245,-0.71065c-0.15963,-0.29975 -0.26898,-0.67342 -0.29655,-1.13915c-0.14777,-2.49563 2.34786,-2.6434 2.34786,-2.6434c2.20629,-0.13063 4.41239,-0.26472 6.61824,-0.40266l2.65847,-0.00123c0,0 2.5,0 2.5,2.5c0,0.43698 -0.07638,0.79758 -0.20244,1.09514c0.2306,0.27619 0.42051,0.64506 0.53451,1.13579c0.56566,2.43516 -1.8695,3.00083 -1.8695,3.00083l-2.35554,0.53601c-2.2883,1.01031 -4.67902,1.79687 -7.09585,2.44182c0,0 -2.41666,0.64011 -3.05678,-1.77655c-0.32561,-1.2293 0.13973,-1.99892 0.67559,-2.45843c-0.35039,-0.43027 -0.56045,-0.97936 -0.56045,-1.57752z" fill="#70b548" stroke="none" stroke-width="0.5" stroke-linecap="butt"></path><path d="M232.61847,184.29165c0.79517,2.37017 -1.575,3.16534 -1.575,3.16534l-0.16611,0.04431c0.21835,0.24339 0.40915,0.56438 0.55032,0.98511c0.79527,2.37014 -1.57487,3.1654 -1.57487,3.1654l-0.83311,0.26667c-1.45533,0.33293 -2.91065,0.66586 -4.36598,0.99879c0,0 -2.43704,0.55751 -2.99456,-1.87953c-0.55751,-2.43704 1.87953,-2.99456 1.87953,-2.99456c0.64388,-0.1473 1.28775,-0.29459 1.93163,-0.44189c-0.53354,-0.31627 -1.01426,-0.89175 -1.08931,-1.93573c-0.17926,-2.49356 2.3143,-2.67283 2.3143,-2.67283c0.92612,-0.06658 1.85225,-0.13316 2.77837,-0.19974l-0.02056,-0.07634c0,0 2.37017,-0.79517 3.16534,1.575z" fill="#70b548" stroke="none" stroke-width="0.5" stroke-linecap="butt"></path><path d="M234.39994,195.02669c1.24646,2.1671 -0.92064,3.41356 -0.92064,3.41356l-3.75385,1.91622c-1.04556,-0.27389 -2.09112,-0.54777 -3.13667,-0.82166l-0.58586,0.14479c-1.19073,-0.33293 -2.38147,-0.66586 -3.5722,-0.99879c0,0 -2.40766,-0.67318 -1.73448,-3.08084c0.67318,-2.40766 3.08084,-1.73448 3.08084,-1.73448c0.65192,0.18228 1.30383,0.36455 1.95575,0.54683c0.69434,-0.11412 1.29651,0.07529 1.29651,0.07529c0.14193,0.05919 0.28386,0.11837 0.42578,0.17756l0.27182,-0.51133c0,0 1.54232,-0.62096 2.61781,0.4077l0.64162,-0.45549c0,0 2.1671,-1.24646 3.41356,0.92064z" fill="#70b548" stroke="none" stroke-width="0.5" stroke-linecap="butt"></path><path d="M233.01076,205.01453c1.24646,2.1671 -0.92064,3.41356 -0.92064,3.41356l-1.7854,1.01245l0.34909,-0.05603c0,0 2.46967,-0.38827 2.85794,2.08139c0.38827,2.46967 -2.08139,2.85794 -2.08139,2.85794l-2.73479,0.42226c-1.73158,0.00253 -3.46315,0.00506 -5.19473,0.0076c0,0 -2.5,0 -2.5,-2.5c0,-0.42657 0.07279,-0.78036 0.19352,-1.07378c-0.52541,0.00382 -1.05023,-0.00438 -1.57349,-0.02426c0,0 -2.49761,-0.10932 -2.38829,-2.60693c0.10932,-2.49761 2.60693,-2.38829 2.60693,-2.38829c0.25868,0.01309 0.51807,0.02356 0.77793,0.03107c-0.25861,-0.48271 -0.36374,-1.12569 -0.0699,-1.95976c0.8307,-2.35795 3.18865,-1.52725 3.18865,-1.52725c1.32303,0.4661 2.64607,0.93221 3.9691,1.39831l0.40962,-0.48128c0,0 1.04013,-0.23267 1.91402,0.28498c0.69624,-0.24095 2.08001,-0.45993 2.98184,1.108z" fill="#70b548" stroke="none" stroke-width="0.5" stroke-linecap="butt"></path><path d="M217.48586,162.61028c-2.21574,1.15781 -3.37354,-1.05793 -3.37354,-1.05793l-0.91479,-1.78727l-1.7642,-4.61703c-0.11937,-0.2918 -0.18516,-0.61119 -0.18516,-0.94595c0,-1.38071 1.11929,-2.5 2.5,-2.5c0.32819,0 0.6416,0.06324 0.92873,0.17819c0.24082,-1.12914 1.24401,-1.97599 2.44499,-1.97599c0.24342,0 0.47872,0.03479 0.70119,0.09967l3.00083,0.80281c0.55453,0.134 4.09892,0.99652 6.46184,1.55546c-3.16338,-2.33996 -6.32189,-4.69242 -9.3289,-7.21418c-1.2892,-1.08116 -2.81608,-1.93026 -3.86699,-3.24424c-0.01006,-0.01257 -0.02007,-0.02517 -0.03004,-0.0378l-0.00558,0.00615l-1.97674,-1.79076c-0.50914,-0.45765 -0.82934,-1.12135 -0.82934,-1.85984c0,-1.38071 1.11929,-2.5 2.5,-2.5c0.18688,0 0.36898,0.02051 0.54415,0.05939l2.92606,0.58907l-0.01523,0.07563l0.2205,-0.02519c6.09803,2.33716 12.24943,4.67851 18.49313,6.60299c4.51589,1.39192 9.59791,2.03616 13.8851,4.07594c-1.84619,-1.56752 -3.82438,-3.02012 -5.59882,-4.64281l-0.005,-0.0086l-0.00199,0.00214l-2.57414,-2.39174c-0.49444,-0.45674 -0.80406,-1.11062 -0.80406,-1.83681c0,-1.38071 1.11929,-2.5 2.5,-2.5c0.17584,0 0.34744,0.01815 0.51303,0.05269l1.92967,0.3642l-2.13812,-2.4596c-0.38693,-0.44022 -0.62156,-1.01758 -0.62156,-1.64974c0,-1.38071 1.11929,-2.5 2.5,-2.5c0.32615,0 0.63772,0.06246 0.92339,0.17606l3.71649,1.37822l-0.01293,0.03486c0.09078,0.02447 0.18127,0.05043 0.27145,0.07798c0.04034,0.01233 0.5308,0.32712 1.25907,0.80252c0.42918,-0.75887 1.24358,-1.2711 2.17761,-1.2711c0.63367,0 1.21228,0.23576 1.6529,0.62435l2.15611,1.88118c3.93911,3.05841 10.46309,6.22987 13.29686,10.33487l3.64758,3.40926c0.49101,0.45649 0.79818,1.10805 0.79818,1.83136c0,1.38071 -1.11929,2.5 -2.5,2.5c-0.48763,0 -0.94265,-0.13961 -1.32727,-0.38103l-1.596,-0.96389l-1.04715,1.41486c0,0 -1.0991,-0.36874 -1.54929,-1.35247c-3.13014,-2.49826 -6.94251,-5.10467 -9.7951,-8.11309c-0.59016,-0.39281 -1.18023,-0.78577 -1.77036,-1.17864l1.71409,2.71124c0.25741,0.39304 0.40708,0.86299 0.40708,1.36789c0,0.90333 -0.47911,1.69477 -1.19707,2.13405c0.63228,0.71402 1.22773,1.46829 1.77365,2.2784c0,0 1.38048,2.08429 -0.70382,3.46477c-2.08429,1.38048 -3.46477,-0.70382 -3.46477,-0.70382c-0.11807,-0.18231 -0.23974,-0.36155 -0.36475,-0.53793c-0.07475,0.35292 -0.24808,0.73118 -0.56517,1.12495c-1.56797,1.94717 -3.51514,0.3792 -3.51514,0.3792c-2.87913,-2.44084 -7.14061,-2.82101 -10.72375,-3.82668c-4.6315,-1.2999 -9.20233,-2.79087 -13.73291,-4.40001c3.27065,2.51701 6.63394,4.92857 9.91226,7.4217l0.09568,0.1757l0.04361,-0.04209l2.48879,2.579c0.43539,0.4499 0.70331,1.06285 0.70331,1.73837c0,1.38071 -1.11929,2.5 -2.5,2.5c-0.14564,0 -0.28838,-0.01245 -0.42719,-0.03636l-2.53529,-0.39259l0.00116,-0.00751c-0.01583,0.00001 -0.03167,-0.00002 -0.04751,-0.00011c-1.5214,-0.0083 -3.20342,-0.28167 -4.92214,-0.67292c0.19742,0.35768 0.30978,0.76888 0.30978,1.20633c0,1.38071 -1.11929,2.5 -2.5,2.5c-0.35491,0 -0.69254,-0.07396 -0.99834,-0.2073l-4.57592,-1.87116l0.16413,-0.40137c-0.8315,-0.19216 -1.65506,-0.41174 -2.467,-0.66481l0.36857,0.68537c0,0 1.15781,2.21574 -1.05793,3.37354z" fill="#008c04" stroke="none" stroke-width="0.5" stroke-linecap="butt"></path><path d="M279.84939,227.21183c1.49945,2.00041 -0.50097,3.49986 -0.50097,3.49986l-1.32571,0.99371c-3.93499,2.94954 -7.86797,5.89553 -11.75683,8.90571c-3.25645,2.52066 -7.44469,6.29926 -11.25104,7.96496l-4.12385,2.76727c-0.40351,0.27926 -0.89316,0.44286 -1.42103,0.44286c-1.38071,0 -2.5,-1.11929 -2.5,-2.5c0,-0.68763 0.27762,-1.31042 0.72688,-1.7624l3.14684,-3.1675c2.76684,-3.03371 5.48648,-6.69808 8.58094,-9.75097c-4.29071,2.1114 -8.63896,4.09499 -13.06255,5.92495c-1.58502,0.6557 -3.06836,1.65775 -4.7559,1.9651c-0.0481,0.00876 -0.09624,0.01727 -0.1444,0.02552l0.00519,0.01832l-4.75546,1.34624c-0.23281,0.07166 -0.48013,0.11024 -0.73645,0.11024c-1.38071,0 -2.5,-1.11929 -2.5,-2.5c0,-0.65258 0.25004,-1.24677 0.65954,-1.69198l1.78525,-1.95486c-1.46105,0.7001 -2.58571,1.23813 -2.59446,1.2399c-0.05586,0.01131 -0.11177,0.02224 -0.16772,0.03279l0.00796,0.02473l-4.70366,1.51504c-0.25744,0.0896 -0.53404,0.13829 -0.82202,0.13829c-1.38071,0 -2.5,-1.11929 -2.5,-2.5c0,-0.86402 0.43831,-1.62566 1.1047,-2.07471l0.77874,-0.54005c-0.18873,-0.35162 -0.29578,-0.75362 -0.29578,-1.18062c0,-0.92389 0.50116,-1.73073 1.24646,-2.16349l2.93793,-1.77432l0.01257,0.02081l0.04535,-0.05473c6.41599,-3.42052 12.98234,-6.56803 18.11571,-11.77321c0,0 1.76198,-1.77353 3.53552,-0.01155c1.77353,1.76198 0.01155,3.53552 0.01155,3.53552c-0.47653,0.47653 -0.96266,0.93742 -1.45761,1.38417c0.36193,0.07569 0.6951,0.22966 0.98101,0.44338c1.13542,-0.56683 2.2765,-1.12539 3.42635,-1.67173l0.04878,-0.00192l-0.00712,-0.0165l2.72777,-1.17672c0.3169,-0.14531 0.66941,-0.22631 1.04085,-0.22631c1.38071,0 2.5,1.11929 2.5,2.5c0,0.77559 -0.35318,1.46869 -0.90749,1.92724l-3.81666,3.20142c-0.6244,0.7891 -3.66188,2.91708 -5.31681,4.05208c3.27013,-1.51903 6.50264,-3.11502 9.71042,-4.76368l0.12615,-0.02104l-0.01091,-0.02771l4.59927,-1.81118c0.298,-0.12542 0.62542,-0.19474 0.96902,-0.19474c1.38071,0 2.5,1.11929 2.5,2.5c0,0.40948 -0.09845,0.79596 -0.27296,1.13708l-1.88465,3.88681c2.47148,-1.91151 4.9393,-3.82808 7.43573,-5.69932l1.32571,-0.99371c0,0 2.00041,-1.49945 3.49986,0.50097z" fill="#008c04" stroke="none" stroke-width="0.5" stroke-linecap="butt"></path><path d="M226.25082,224.01397c0,0 2.5,0 2.5,2.5c0,2.5 -2.5,2.5 -2.5,2.5c-10.12866,-0.00299 -20.30955,1.06436 -30.43949,0.40371c-1.70835,-0.11142 -10.04873,-0.78681 -10.83943,-2.94312c-0.65285,-1.78039 1.46559,-3.76714 3.05763,-4.79738c1.23575,-0.79967 5.81616,-1.24221 9.38309,-1.53857c-2.40607,-1.41079 -3.01991,-3.93607 1.85101,-7.21041c1.57842,-1.06105 8.90011,-1.26559 10.90774,-1.37897l4.90281,-0.48607c0.09189,-0.01024 0.18528,-0.01549 0.27989,-0.01549c1.38071,0 2.5,1.11929 2.5,2.5c0,1.27016 -0.94722,2.31908 -2.17381,2.47891l-2.5227,0.37055c-2.46836,1.04764 -5.27648,0.9998 -7.85527,1.73488l-0.73587,0.04178l2.66726,1.56611c0.76088,0.42863 1.27476,1.24414 1.27476,2.17968c0,1.32042 -1.02367,2.40175 -2.32069,2.49367l-1.03814,0.08431c7.03736,-0.06854 14.06412,-0.48158 21.10121,-0.48357z" fill="#008c04" stroke="none" stroke-width="0.5" stroke-linecap="butt"></path><path d="M179.29697,178.77216c0,-2.5 2.5,-2.5 2.5,-2.5l1.82295,0.14204c2.42474,0.85599 5.34203,0.7033 7.36705,2.28802c0.1236,0.09673 0.24366,0.19706 0.36057,0.30061l0.04544,-0.06319l2.75176,1.97843c0.6453,0.45208 1.06723,1.20125 1.06723,2.04896c0,1.38071 -1.11929,2.5 -2.5,2.5h-2.97682c-0.23814,-0.00014 -0.47756,0.0091 -0.71769,0.02358c0.15445,0.32489 0.24087,0.68837 0.24087,1.07204c0,0.71199 -0.29763,1.35446 -0.77526,1.80978c0.73773,0.20586 1.76754,0.78058 1.76754,2.38511c0,2.5 -2.5,2.5 -2.5,2.5c-4.34418,-0.00851 -8.26605,-0.60344 -12.44666,-1.78001l-0.21153,-0.2003l-0.04345,0.08017l-2.53499,-1.37396c-0.80403,-0.41561 -1.35363,-1.25475 -1.35363,-2.22226c0,-1.11157 0.72545,-2.0537 1.72872,-2.37876l4.50961,-1.57884l0.01321,0.03772c0.15793,-0.05644 0.31772,-0.10854 0.47956,-0.15583c0.07578,-0.02214 0.15183,-0.04194 0.22812,-0.05955c-0.00879,-0.08526 -0.01329,-0.17179 -0.01329,-0.25937c0,-1.30865 1.0055,-2.38245 2.28606,-2.49097c-0.56942,-0.33602 -1.09535,-0.95675 -1.09535,-2.10342z" fill="#008c04" stroke="none" stroke-width="0.5" stroke-linecap="butt"></path><path d="M194.04696,166.9955c0,0 2.38809,0.73961 1.64848,3.1277c-0.73961,2.38809 -3.1277,1.64848 -3.1277,1.64848c-3.73614,-1.1698 -7.50139,-1.30481 -11.38455,-1.72062l-0.13582,-0.09263l-0.01452,0.06253l-2.53077,-0.58787c-1.13287,-0.23798 -1.98346,-1.24295 -1.98346,-2.44658c0,-1.27759 0.95834,-2.33135 2.19537,-2.48163l3.06194,-0.42027c-0.06349,-0.22026 -0.0975,-0.45302 -0.0975,-0.69372c0,-1.38071 1.11929,-2.5 2.5,-2.5c0.12693,0 0.25165,0.00946 0.3735,0.02771l2.93586,0.39401l-0.00705,0.05251l0.12,-0.03471c0.03469,0.01925 0.06937,0.0385 0.10406,0.05776l0.00796,-0.03481l0.62469,0.14291l2.76691,0.42197c0,0 0.60831,0.09277 1.17531,0.48806c1.00993,0.32115 1.74158,1.26658 1.74158,2.38289c0,0.77997 -0.35718,1.47651 -0.91689,1.93498c0.31397,0.0846 0.62813,0.17484 0.94262,0.27132z" fill="#008c04" stroke="none" stroke-width="0.5" stroke-linecap="butt"></path><path d="M186.20507,203.44394c2.55145,0.01272 5.11585,0.41327 7.57699,1.08623c0,0 2.40766,0.67319 1.73447,3.08084c-0.67319,2.40766 -3.08084,1.73447 -3.08084,1.73447c-1.51671,-0.43535 -3.08669,-0.76048 -4.66396,-0.87081c-0.14361,0.10753 -0.30828,0.20908 -0.49668,0.30266c-1.03591,0.51452 -1.83059,0.31172 -2.38551,-0.05478l-1.49821,0.10772c-0.06766,0.0055 -0.13609,0.0083 -0.20516,0.0083c-1.38071,0 -2.5,-1.11929 -2.5,-2.5c0,-1.28639 0.97159,-2.34586 2.22097,-2.4846l3.1422,-0.39536l0.00871,0.06919z" fill="#008c04" stroke="none" stroke-width="0.5" stroke-linecap="butt"></path></g></g></svg>