<svg version="1.1" xmlns="http://www.w3.org/2000/svg" xmlns:xlink="http://www.w3.org/1999/xlink" width="683.7934" height="459.17857" viewBox="0,0,683.7934,459.17857"><defs><linearGradient x1="261.88608" y1="-15.53177" x2="261.88608" y2="443.6468" gradientUnits="userSpaceOnUse" id="color-1"><stop offset="0" stop-color="#fffffe"></stop><stop offset="1" stop-color="#fffffe" stop-opacity="0"></stop></linearGradient><radialGradient cx="51.86921" cy="195.90635" r="34.375" gradientUnits="userSpaceOnUse" id="color-2"><stop offset="0" stop-color="#f1a700" stop-opacity="0"></stop><stop offset="1" stop-color="#f1a700"></stop></radialGradient></defs><g transform="translate(80.01062,15.53177)"><g data-paper-data="{&quot;isPaintingLayer&quot;:true}" fill-rule="nonzero" stroke-linejoin="miter" stroke-miterlimit="10" stroke-dasharray="" stroke-dashoffset="0" style="mix-blend-mode: normal"><path d="M-80.01062,429.7056l246.17309,-445.23737h107.22473l330.39558,459.17857z" data-paper-data="{&quot;index&quot;:null}" fill="url(#color-1)" stroke="none" stroke-width="0" stroke-linecap="round"></path><path d="M243.7385,262.91295c-31.06602,0 -56.25,-25.18398 -56.25,-56.25c0,-31.06602 25.18398,-56.25 56.25,-56.25c31.06602,0 56.25,25.18398 56.25,56.25c0,31.06602 -25.18398,56.25 -56.25,56.25z" data-paper-data="{&quot;index&quot;:null}" fill="#000000" stroke="#000000" stroke-width="1.5" stroke-linecap="butt"></path><g data-paper-data="{&quot;index&quot;:null}" stroke="none" stroke-width="0" stroke-linecap="butt"><path d="M265.82443,192.55132c10.61366,0 19.21773,7.32104 19.21773,7.32104c0,0 -8.60407,7.32104 -19.21773,7.32104c-10.61366,0 -19.21773,-7.32104 -19.21773,-7.32104c0,0 8.60407,-7.32104 19.21773,-7.32104z" fill="#ffffff"></path><path d="M266.73954,207.19341c-4.04331,0 -7.32104,-3.27775 -7.32104,-7.32104c0,-4.04331 3.27775,-7.32104 7.32104,-7.32104c4.04331,0 7.32104,3.27775 7.32104,7.32104c0,4.04331 -3.27775,7.32104 -7.32104,7.32104z" fill="#000000"></path></g><g data-paper-data="{&quot;index&quot;:null}" stroke="none" stroke-width="0" stroke-linecap="butt"><path d="M223.06316,192.71658c10.61366,0 19.21773,7.32104 19.21773,7.32104c0,0 -8.60407,7.32104 -19.21773,7.32104c-10.61366,0 -19.21773,-7.32104 -19.21773,-7.32104c0,0 8.60407,-7.32104 19.21773,-7.32104z" fill="#ffffff"></path><path d="M223.97829,207.35867c-4.04331,0 -7.32104,-3.27775 -7.32104,-7.32104c0,-4.04329 3.27775,-7.32104 7.32104,-7.32104c4.04331,0 7.32104,3.27775 7.32104,7.32104c0,4.04331 -3.27775,7.32104 -7.32104,7.32104z" fill="#000000"></path></g><g stroke="none" stroke-width="0" stroke-linecap="butt"><path d="M42.99588,191.74639l-28.85512,-61.57421l14.48805,-6.78944l28.85512,61.57421z" fill="#181818"></path><path d="M19.91884,210.84353c-8.31967,-17.75338 -0.67212,-38.88977 17.08127,-47.20943c17.75338,-8.31967 38.88977,-0.67212 47.20943,17.08127c8.31967,17.75338 0.67212,38.88977 -17.08127,47.20943c-17.75338,8.31967 -38.88977,0.67212 -47.20943,-17.08127z" fill="#181818"></path><path d="M24.19031,217.85025c0,0 -3.33785,-4.76608 -4.5124,-7.27243c-1.12153,-2.39323 -2.38313,-7.442 -2.38313,-7.442l62.4797,-29.27945c0,0 3.70111,4.36292 4.85906,6.83389c1.14027,2.43325 2.03647,7.88053 2.03647,7.88053z" fill="url(#color-2)"></path></g></g></g></svg>