<svg version="1.1" xmlns="http://www.w3.org/2000/svg" xmlns:xlink="http://www.w3.org/1999/xlink" width="198" height="80.52137" viewBox="0,0,198,80.52137"><g transform="translate(-103.88672,-143.15227)"><g data-paper-data="{&quot;isPaintingLayer&quot;:true}" fill-rule="nonzero" stroke-linecap="butt" stroke-linejoin="miter" stroke-miterlimit="10" stroke-dasharray="" stroke-dashoffset="0" style="mix-blend-mode: normal"><path d="M280.38672,186.93946c0,-5.93706 4.81294,-10.75 10.75,-10.75c5.93706,0 10.75,4.81294 10.75,10.75c0,5.93706 -4.81294,10.75 -10.75,10.75c-5.93706,0 -10.75,-4.81294 -10.75,-10.75z" fill="#000000" stroke="none" stroke-width="NaN"></path><path d="M180.52378,220.36206c-20.40643,-7.7125 -30.69689,-30.5074 -22.98439,-50.91382c7.7125,-20.40643 30.5074,-30.69689 50.91382,-22.98439c20.40643,7.7125 30.69689,30.5074 22.98439,50.91382c-7.7125,20.40643 -30.5074,30.69689 -50.91382,22.98439z" data-paper-data="{&quot;index&quot;:null}" fill="#000000" stroke="#000000" stroke-width="1.5"></path><g data-paper-data="{&quot;index&quot;:null}" stroke="none" stroke-width="0"><path d="M216.44076,181.11606c6.97183,2.63496 10.80608,9.58002 10.80608,9.58002c0,0 -7.46933,2.67294 -14.44114,0.03797c-6.97183,-2.63496 -10.80608,-9.58002 -10.80608,-9.58002c0,0 7.46933,-2.67294 14.44114,-0.03797z" fill="#ffffff"></path><path d="M213.40681,190.96124c-2.65593,-1.00379 -3.99526,-3.97061 -2.99146,-6.62652c1.00379,-2.65593 3.97061,-3.99526 6.62652,-2.99146c2.65593,1.00379 3.99526,3.97061 2.99146,6.62652c-1.00379,2.65593 -3.97061,3.99526 -6.62652,2.99146z" fill="#000000"></path></g><g data-paper-data="{&quot;index&quot;:null}" stroke="none" stroke-width="0"><path d="M188.63946,170.73276c6.97183,2.63496 10.80608,9.58002 10.80608,9.58002c0,0 -7.46933,2.67294 -14.44114,0.03797c-6.97183,-2.63496 -10.80608,-9.58002 -10.80608,-9.58002c0,0 7.46933,-2.67294 14.44114,-0.03797z" fill="#ffffff"></path><path d="M185.60549,180.57795c-2.65593,-1.00379 -3.99526,-3.97061 -2.99146,-6.62652c1.00379,-2.65592 3.97061,-3.99526 6.62652,-2.99146c2.65593,1.00379 3.99526,3.97061 2.99146,6.62652c-1.00379,2.65593 -3.97061,3.99526 -6.62652,2.99146z" fill="#000000"></path></g><path d="M103.88672,182.43945c0,-5.93706 4.81294,-10.75 10.75,-10.75c5.93706,0 10.75,4.81294 10.75,10.75c0,5.93706 -4.81294,10.75 -10.75,10.75c-5.93706,0 -10.75,-4.81294 -10.75,-10.75z" fill="#000000" stroke="none" stroke-width="NaN"></path></g></g></svg>