<svg version="1.1" xmlns="http://www.w3.org/2000/svg" xmlns:xlink="http://www.w3.org/1999/xlink" width="5027.3306" height="1940.2716" viewBox="0,0,5027.3306,1940.2716"><g transform="translate(2033.6653,790.1358)"><g stroke-miterlimit="10"><path d="M-2033.6653,1150.1358v-1940.2716h5027.3306v1940.2716z" fill="#000000" stroke="none" stroke-width="NaN" stroke-linecap="butt"/><path d="M425.1895,220.07778c0,-10.52932 8.78809,-19.06503 19.62876,-19.06503c10.84068,0 19.6288,8.53571 19.6288,19.06503c0,10.52932 -8.78814,19.06502 -19.6288,19.06502c-10.84069,0 -19.62876,-8.53571 -19.62876,-19.06502z" fill="#ffffff" stroke="none" stroke-width="0" stroke-linecap="butt"/><path d="" fill="none" stroke="#000000" stroke-width="1.5" stroke-linecap="round"/><path d="M453.86888,209.28697c-16.17475,-14.43182 -17.58765,-39.24334 -3.15583,-55.4181c14.43182,-16.17475 39.24334,-17.58765 55.4181,-3.15583c16.17475,14.43182 17.58765,39.24334 3.15583,55.4181c-14.43182,16.17475 -39.24334,17.58765 -55.4181,3.15583z" fill="#ffffff" stroke="none" stroke-width="0" stroke-linecap="butt"/><path d="M469.41339,171.51593c4.80577,5.3341 7.12163,11.08173 5.17264,12.83769c-1.94902,1.75595 -7.42483,-1.14472 -12.23058,-6.47881c-4.80577,-5.3341 -7.12163,-11.08173 -5.17264,-12.83769c1.94902,-1.75595 7.42483,1.14472 12.23058,6.47881z" fill="#ffffff" stroke="none" stroke-width="0" stroke-linecap="butt"/><path d="M481.65636,160.1544c4.80577,5.3341 7.12165,11.08174 5.17264,12.8377c-1.94902,1.75595 -7.42483,-1.14472 -12.23059,-6.47881c-4.80577,-5.3341 -7.12165,-11.08173 -5.17265,-12.83769c1.94902,-1.75595 7.42483,1.14471 12.23059,6.4788z" fill="#ffffff" stroke="none" stroke-width="0" stroke-linecap="butt"/><path d="M495.98817,155.14368c0,-10.58514 8.83468,-19.16612 19.73283,-19.16612c10.89815,0 19.73286,8.58097 19.73286,19.16612c0,10.58514 -8.83472,19.16609 -19.73286,19.16609c-10.89816,0 -19.73283,-8.58096 -19.73283,-19.16609z" fill="#ffffff" stroke="none" stroke-width="0" stroke-linecap="butt"/></g></g></svg>