<svg version="1.1" xmlns="http://www.w3.org/2000/svg" xmlns:xlink="http://www.w3.org/1999/xlink" width="120.4629" height="125.74029" viewBox="0,0,120.4629,125.74029"><g transform="translate(-198.73844,-137.92386)"><g data-paper-data="{&quot;isPaintingLayer&quot;:true}" fill-rule="nonzero" stroke="#000000" stroke-linejoin="miter" stroke-miterlimit="10" stroke-dasharray="" stroke-dashoffset="0" style="mix-blend-mode: normal"><path d="M211.71589,206.74759c-15.7808,-15.06227 -16.36331,-40.06548 -1.30104,-55.84627c15.06227,-15.7808 40.06548,-16.36331 55.84627,-1.30104c15.7808,15.06227 16.36331,40.06548 1.30104,55.84627c-15.06227,15.7808 -40.06548,16.36331 -55.84627,1.30104z" fill="#d8d8d8" stroke-width="1.5" stroke-linecap="butt"></path><path d="M215.02573,186.23876l6.22664,-6.57486l6.38053,4.82585" fill="none" stroke-width="1.5" stroke-linecap="round"></path><path d="M231.67289,179.45776l-6.31205,-4.91509l4.74047,-7.71546" data-paper-data="{&quot;index&quot;:null}" fill="none" stroke-width="1.5" stroke-linecap="round"></path><g data-paper-data="{&quot;index&quot;:null}" stroke-width="1"><path d="M269.50158,205.14271l14.33689,15.34451l-6.02821,5.63233l-14.33689,-15.34451z" fill="#af5400" stroke-linecap="butt"></path><path d="M275.32077,223.38188c0,0 -0.82991,-3.73755 -0.56519,-5.29594c0.29406,-1.73114 2.25075,-4.6272 2.25075,-4.6272" fill="none" stroke-linecap="round"></path><path d="M270.68315,218.27185c0,0 3.02211,-1.75579 4.76921,-1.93178c1.57274,-0.15843 5.24541,0.92305 5.24541,0.92305" data-paper-data="{&quot;index&quot;:null}" fill="none" stroke-linecap="round"></path><path d="M267.08401,213.83383c0,0 3.02211,-1.75579 4.76921,-1.93178c1.57274,-0.15843 5.24541,0.92305 5.24541,0.92305" data-paper-data="{&quot;index&quot;:null}" fill="none" stroke-linecap="round"></path><path d="M271.0976,218.56891c0,0 -0.82991,-3.73755 -0.56519,-5.29594c0.29405,-1.73111 2.25075,-4.6272 2.25075,-4.6272" data-paper-data="{&quot;index&quot;:null}" fill="none" stroke-linecap="round"></path><path d="M283.52534,225.86215c-3.47051,3.24263 -6.98694,5.11887 -7.85416,4.19072c-0.86721,-0.92816 1.24319,-4.30926 4.71372,-7.55189c3.47051,-3.24263 6.98694,-5.11887 7.85416,-4.19072c0.86721,0.92816 -1.24319,4.30926 -4.71372,7.55189z" fill="#8f8f8f" stroke-linecap="butt"></path><path d="M285.34868,222.88331l33.28203,35.6212c0,0 -0.86736,2.52109 -1.70403,3.30283c-0.80626,0.7533 -3.22813,1.30544 -3.22813,1.30544l-33.28203,-35.6212z" fill="#dddddd" stroke-linecap="butt"></path></g></g></g></svg>