<svg version="1.1" xmlns="http://www.w3.org/2000/svg" xmlns:xlink="http://www.w3.org/1999/xlink" width="133.8347" height="80.5" viewBox="0,0,133.8347,80.5"><g transform="translate(-150.74479,-139.75)"><g data-paper-data="{&quot;isPaintingLayer&quot;:true}" fill-rule="nonzero" stroke-linejoin="miter" stroke-miterlimit="10" stroke-dasharray="" stroke-dashoffset="0" style="mix-blend-mode: normal"><path d="M204.82949,180c0,-21.81525 17.68475,-39.5 39.5,-39.5c21.81525,0 39.5,17.68475 39.5,39.5c0,21.81525 -17.68475,39.5 -39.5,39.5c-21.81525,0 -39.5,-17.68475 -39.5,-39.5z" fill="#d8d8d8" stroke="#000000" stroke-width="1.5" stroke-linecap="butt"></path><path d="M228.58224,167.20295l9,1v8" fill="none" stroke="#000000" stroke-width="1.5" stroke-linecap="round"></path><path d="M248.51493,176.68819v-8l9,-1" data-paper-data="{&quot;index&quot;:null}" fill="none" stroke="#000000" stroke-width="1.5" stroke-linecap="round"></path><path d="M256.96879,195.96181l-31.37388,0.40984v-12.29517z" fill="#ffffff" stroke="#000000" stroke-width="1.5" stroke-linecap="round"></path><path d="M231.53051,196.37165l0.42397,-10.17531" fill="none" stroke="#000000" stroke-width="1.5" stroke-linecap="round"></path><path d="M240.43391,195.94768v-5.9356" fill="none" stroke="#000000" stroke-width="1.5" stroke-linecap="round"></path><g stroke="none" stroke-linecap="butt"><path d="M162.98549,163.08087l1.1462,-3.40717l31.51625,10.60244l-1.1462,3.40717z" fill="#606060" stroke-width="0"></path><path d="M185.40027,176.3106l2.1969,-6.5304l4.25895,1.43277l-2.1969,6.5304z" fill="#606060" stroke-width="0"></path><path d="M150.7503,168.76276c0.70261,-2.0885 2.21259,-6.57701 2.21259,-6.57701l67.48596,22.70307l-4.0431,12.01829l-48.8421,-16.43107l1.63284,-4.8632c0,0 -18.82049,-5.73746 -18.44619,-6.85008z" fill="#969696" stroke-width="NaN"></path><path d="M211.13912,212.70947l0.53976,-25.45741l8.4818,-0.75444c0,0 -1.41734,9.09857 0.14865,13.08997c1.86385,4.75059 10.29722,13.53463 10.29722,13.53463z" fill="#606060" stroke-width="0"></path><path d="M177.94988,198.45715l5.25346,-15.61617l6.5304,2.1969l-5.25346,15.61617z" fill="#606060" stroke-width="0"></path><path d="M192.19362,186.18148l3.31798,-9.86284l6.24646,2.10139l-3.31798,9.86284z" fill="#00fffe" stroke-width="0"></path><path d="M201.24042,189.1596l3.31798,-9.86284l6.24646,2.10139l-3.31798,9.86284z" fill="#00fffe" stroke-width="0"></path><path d="M183.7862,183.53851l3.31798,-9.86284l6.24646,2.10139l-3.31798,9.86284z" fill="#00fffe" stroke-width="0"></path></g></g></g></svg>