<svg version="1.1" xmlns="http://www.w3.org/2000/svg" xmlns:xlink="http://www.w3.org/1999/xlink" width="65.88942" height="65.88942" viewBox="0,0,65.88942,65.88942"><g transform="translate(-207.05529,-147.05529)"><g data-paper-data="{&quot;isPaintingLayer&quot;:true}" fill-rule="nonzero" stroke-linejoin="miter" stroke-miterlimit="10" stroke-dasharray="" stroke-dashoffset="0" style="mix-blend-mode: normal"><path d="" data-paper-data="{&quot;index&quot;:null}" fill="#ffffff" stroke="#ffffff" stroke-width="1.5" stroke-linecap="round"></path><path d="" data-paper-data="{&quot;index&quot;:null}" fill="#ffffff" stroke="#ffffff" stroke-width="1.5" stroke-linecap="round"></path><path d="" data-paper-data="{&quot;index&quot;:null}" fill="#ffffff" stroke="#000000" stroke-width="1.5" stroke-linecap="round"></path><path d="" data-paper-data="{&quot;index&quot;:null}" fill="#ffffff" stroke="#000000" stroke-width="1.5" stroke-linecap="round"></path><path d="" data-paper-data="{&quot;index&quot;:null}" fill="#ffffff" stroke="#ffffff" stroke-width="1.5" stroke-linecap="round"></path><path d="" data-paper-data="{&quot;index&quot;:null}" fill="none" stroke="#ffffff" stroke-width="1" stroke-linecap="round"></path><path d="" data-paper-data="{&quot;index&quot;:null}" fill="none" stroke="#ffffff" stroke-width="1" stroke-linecap="round"></path><path d="" data-paper-data="{&quot;index&quot;:null}" fill="none" stroke="#ffffff" stroke-width="1" stroke-linecap="round"></path><path d="" data-paper-data="{&quot;index&quot;:null}" fill="#ffffff" stroke="none" stroke-width="0" stroke-linecap="round"></path><path d="" data-paper-data="{&quot;index&quot;:null}" fill="#ffffff" stroke="none" stroke-width="0" stroke-linecap="round"></path><path d="" data-paper-data="{&quot;index&quot;:null}" fill="#ffffff" stroke="none" stroke-width="0" stroke-linecap="round"></path><path d="" data-paper-data="{&quot;index&quot;:null}" fill="#ffffff" stroke="none" stroke-width="0" stroke-linecap="round"></path><path d="M225.27002,150.53975c16.27045,-8.13514 36.05509,-1.54018 44.19023,14.73027c8.13514,16.27045 1.54018,36.05509 -14.73027,44.19023c-16.27045,8.13514 -36.05509,1.54018 -44.19023,-14.73027c-8.13514,-16.27045 -1.54018,-36.05509 14.73027,-44.19023z" fill="#000000" stroke="none" stroke-width="0" stroke-linecap="butt"></path><path d="M242.35673,151.73769l3.75,11l13.5,-3.75l-7.25,11.25l13.25,6.75l-12.75,5.75l10.5,16.5l-12,-3.25l-7.25,13.25l-6,-13.25l-14.25,10l2.75,-18.75l-15.25,-6.5l12.5,-5.25l-5.25,-15.75l14,3.25z" fill="#2b2b2b" stroke="none" stroke-width="0" stroke-linecap="round"></path><g fill="#ffffff"><path d="M232.7501,168.30459l0.0399,-2.11728l16.04675,0.30243l-0.0399,2.11727z" stroke="#000000" stroke-width="0.5" stroke-linecap="butt"></path><path d="M238.01543,179.46049l0.06568,-11.86154l5.7502,0.13212l0.14522,12.42946z" stroke="none" stroke-width="0" stroke-linecap="butt"></path><path d="M243.9701,179.21589c0,0 2.18815,4.2037 3.31895,6.37611c0.12325,0.23678 -1.93977,1.52235 -1.93977,1.52235l-2.52403,-0.86855l-4.52883,1.93843l3.15375,0.3272l4.88157,2.04105c0,0 2.46672,-2.06069 2.68949,-1.63273c0.98027,1.88322 1.89399,3.63858 1.89399,3.63858l-21.93198,-0.05323l9.0533,-13.42917z" stroke="none" stroke-width="0" stroke-linecap="round"></path></g></g></g></svg>