<svg version="1.1" xmlns="http://www.w3.org/2000/svg" xmlns:xlink="http://www.w3.org/1999/xlink" width="83.84483" height="86.89632" viewBox="0,0,83.84483,86.89632"><g transform="translate(-195.39368,-145.97942)"><g data-paper-data="{&quot;isPaintingLayer&quot;:true}" fill-rule="nonzero" stroke-linejoin="miter" stroke-miterlimit="10" stroke-dasharray="" stroke-dashoffset="0" style="mix-blend-mode: normal"><path d="M199.48851,186.22942c0,-21.81525 17.68475,-39.5 39.5,-39.5c21.81525,0 39.5,17.68475 39.5,39.5c0,21.81525 -17.68475,39.5 -39.5,39.5c-21.81525,0 -39.5,-17.68475 -39.5,-39.5z" fill="#d8d8d8" stroke="#000000" stroke-width="1.5" stroke-linecap="butt"></path><path d="M242.02205,183.05545v-8" fill="none" stroke="#000000" stroke-width="1.5" stroke-linecap="round"></path><path d="" data-paper-data="{&quot;index&quot;:null}" fill="none" stroke="#000000" stroke-width="1.5" stroke-linecap="round"></path><path d="M253.08518,207.98809c0,0 -17.91104,4.58722 -25.6108,-0.53676c-1.90381,-1.26693 -4.4943,-5.21093 -3.86722,-8.6468c0.60031,-3.28916 4.39812,-6.06289 3.63978,-7.76264" data-paper-data="{&quot;index&quot;:null}" fill="#000000" stroke="#000000" stroke-width="0" stroke-linecap="round"></path><path d="M249.49371,175.54059v8" fill="none" stroke="#000000" stroke-width="1.5" stroke-linecap="round"></path><g stroke="#000000" stroke-linecap="butt"><path d="M234.17761,215.40541l-0.44532,-59.45093l43.22131,-0.32375l0.44532,59.45093c0,0 -17.57014,13.07921 -20.7147,15.42003c-0.92715,0.69017 -1.80077,1.3405 -1.80077,1.3405z" fill="#008c04" stroke-width="1.5"></path><path d="M252.84019,232.87574l-0.58745,-78.42604l4.82627,-0.03615l0.58745,78.42604z" fill="#00ff08" stroke-width="0"></path><path d="M277.46139,184.41944l-44.55025,0.3337l-0.04715,-6.29345l44.55025,-0.3337z" fill="#00ff08" stroke-width="0"></path></g><path d="M228.38227,159.51741c0.00056,2.5 -2.49944,2.50056 -2.49944,2.50056l-2.75274,-0.02404c-0.14198,-0.02006 -0.28395,-0.04011 -0.42593,-0.06017c-0.73231,0.88324 -1.9817,0.88324 -1.9817,0.88324l-2.64971,-0.00098c-2.82612,-0.16866 -5.63738,-0.72147 -8.36089,-1.49471c0,0 -2.40262,-0.69096 -1.71166,-3.09358c0.69096,-2.40262 3.09358,-1.71166 3.09358,-1.71166c0.13729,0.04006 0.27485,0.07951 0.41268,0.11831c0.805,-1.21846 2.42136,-0.99012 2.42136,-0.99012c3.30056,0.46627 6.60112,0.93255 9.90168,1.39882l2.05221,-0.02512c0,0 2.5,-0.00056 2.50056,2.49944z" fill="#9fff66" stroke="none" stroke-width="0.5" stroke-linecap="butt"></path><path d="M225.97782,187.36969l-3.43509,0.40602c-4.39697,0.30264 -8.41233,0.72489 -12.77555,-0.02768c0,0 -2.46147,-0.43722 -2.02425,-2.89869c0.43722,-2.46147 2.89869,-2.02425 2.89869,-2.02425c1.13372,0.20836 2.24352,0.31584 3.34426,0.35688c0.57722,-0.33484 1.16034,-0.38588 1.16034,-0.38588c1.52118,-0.13292 3.03815,-0.28929 4.55322,-0.45783c-2.43493,-0.05931 -4.8671,-0.14537 -7.31208,-0.14489c0,0 -2.5,0 -2.5,-2.5c0,-2.5 2.5,-2.5 2.5,-2.5c1.51401,0.00029 3.02319,0.03375 4.53114,0.07321c-0.70783,-0.20945 -1.53153,-0.752 -1.6618,-2.13248c-0.16155,-1.71196 0.96555,-2.35751 1.685,-2.59372c-1.23732,-0.06159 -2.47917,-0.17148 -3.74615,-0.36426c0,0 -2.47055,-0.38257 -2.08799,-2.85312c0.18584,-1.2001 0.86436,-1.72696 1.51307,-1.95148c0.84926,-1.54685 2.73085,-1.09591 2.73085,-1.09591c2.64489,0.65748 5.44631,0.77772 8.15956,0.52075l3.76772,-0.91895c0,0 2.42985,-0.58805 3.01791,1.8418c0.37362,1.54381 -0.471,2.34414 -1.13666,2.72254c-0.02226,0.22533 -0.06683,0.42718 -0.12883,0.60802c0.55802,-0.07474 1.11627,-0.15013 1.67488,-0.2259l0.39456,-0.24129c0,0 2.31908,-0.93374 3.25282,1.38534c0.93374,2.31908 -1.38534,3.25282 -1.38534,3.25282l-0.37122,0.13022c0.13519,0.243 0.24223,0.53626 0.30786,0.88981c0.45627,2.45801 -2.00174,2.91428 -2.00174,2.91428l-3.71176,0.68859c0.00022,0.0164 0.00033,0.0329 0.00033,0.04952c0,0.73757 -0.2176,1.25753 -0.52441,1.62409c0.88444,-0.10476 1.76943,-0.20778 2.65546,-0.30682l2.52764,-0.392c0,0 2.47055,-0.38259 2.85314,2.08796c0.38259,2.47055 -2.08796,2.85314 -2.08796,2.85314l-2.63215,0.40705c-0.75465,0.08449 -1.50859,0.17173 -2.26207,0.26042c-0.64958,0.81314 -1.7434,0.94268 -1.7434,0.94268z" fill="#9fff66" stroke="none" stroke-width="0.5" stroke-linecap="butt"></path><path d="M228.56526,216.37047c0.27787,2.48451 -2.20663,2.76238 -2.20663,2.76238l-3.8428,0.41501c-1.3471,-0.13781 -2.69421,-0.27562 -4.04131,-0.41343c0,0 -2.48608,-0.26342 -2.22266,-2.7495c0.26342,-2.48608 2.7495,-2.22266 2.7495,-2.22266c0.66697,0.07349 1.33394,0.14697 2.00092,0.22046l-4.31437,-1.57915c0,0 -1.13611,-0.41584 -1.53838,-1.45929c-0.35802,-0.161 -0.70888,-0.33716 -1.05115,-0.53039c0,0 -2.15584,-1.26584 -0.88999,-3.42168c0.46088,-0.78492 1.03974,-1.11626 1.58958,-1.22025c-0.7094,-0.26353 -1.5743,-0.88918 -1.53601,-2.37256c0.02488,-0.96368 0.41175,-1.54617 0.87776,-1.89816c-0.71994,-0.5669 -1.25622,-1.43843 -1.93821,-2.06827c0,0 -1.46039,-1.46996 -0.38383,-3.06291c-4.72099,0.28639 -9.44595,0.32948 -14.20317,-0.21056c0,0 -2.48362,-0.28569 -2.19793,-2.76932c0.05502,-0.47834 0.19158,-0.85396 0.37622,-1.14868c-0.00305,-0.13063 0.00223,-0.26852 0.01688,-0.41408c0.25037,-2.48743 2.7378,-2.23706 2.7378,-2.23706c7.48703,0.76623 14.83149,-0.14038 22.28717,-0.99509l0.98293,-0.3184c0,0 2.13366,-0.61363 2.95786,1.32633l1.46182,-0.02505c0,0 0.7925,-0.0133 1.49252,0.4213c0.73631,0.07611 2.06816,0.46307 2.23,2.2527c0.22517,2.48984 -2.26467,2.71501 -2.26467,2.71501l-1.37136,0.12402c-3.48759,0.31513 -6.96167,0.68669 -10.43349,0.97953c2.31005,2.5346 5.68065,1.39978 8.89893,1.1158l2.49662,-0.38803c0,0 2.47056,-0.38256 2.85312,2.08799c0.38256,2.47056 -2.08799,2.85312 -2.08799,2.85312l-2.50595,0.3867c0.28235,0.37189 0.47347,0.8874 0.45503,1.60193c-0.06451,2.49917 -2.56368,2.43466 -2.56368,2.43466c-1.47271,-0.03802 -5.0873,-0.13132 -7.05727,-0.18217c0.15828,0.06708 0.251,0.12152 0.251,0.12152c1.80575,1.12182 4.0596,1.38822 6.17566,1.59184l3.58118,-0.13652c0,0 2.49835,-0.09074 2.58909,2.40762c0.09074,2.49835 -2.40762,2.58909 -2.40762,2.58909l-2.3549,0.08167c-0.43155,1.05824 -1.18157,1.41346 -1.84258,1.4976c0.04347,0.00479 0.08693,0.00958 0.1304,0.01437l3.3016,-0.38404c0,0 2.48451,-0.27787 2.76238,2.20663z" fill="#9fff66" stroke="none" stroke-width="0.5" stroke-linecap="butt"></path><path d="M221.99309,156.72137c0,-1.38071 1.11929,-2.5 2.5,-2.5c1.38071,0 2.5,1.11929 2.5,2.5c0,1.21155 -0.86182,2.22181 -2.00587,2.45117l2.73687,1.57418c0,0 0.75566,0.43464 1.11788,1.23682c0.67746,-0.04433 1.35505,-0.08655 2.03275,-0.12669l3.45909,0.15774c0,0 2.49729,0.11644 2.38085,2.61372c-0.11644,2.49729 -2.61372,2.38085 -2.61372,2.38085l-3.19325,-0.15242c-3.25646,0.19709 -6.51011,0.44651 -9.75894,0.744c0,0 -2.4896,0.22781 -2.71741,-2.26179c-0.22781,-2.4896 2.26179,-2.71741 2.26179,-2.71741c0.26864,-0.02457 0.53732,-0.04878 0.80604,-0.07264c-0.37004,-0.58129 -0.57618,-1.4205 0.03299,-2.4796c0.46369,-0.80618 1.05479,-1.13995 1.61433,-1.24124c-0.69366,-0.44431 -1.1534,-1.22182 -1.1534,-2.10671z" fill="#70b548" stroke="none" stroke-width="0.5" stroke-linecap="butt"></path><path d="M223.58075,174.89923c0,-0.24688 0.03578,-0.48539 0.10245,-0.71065c-0.15963,-0.29975 -0.26898,-0.67342 -0.29655,-1.13915c-0.14777,-2.49563 2.34786,-2.6434 2.34786,-2.6434c2.20629,-0.13063 4.41239,-0.26472 6.61824,-0.40266l2.65847,-0.00123c0,0 2.5,0 2.5,2.5c0,0.43698 -0.07638,0.79758 -0.20244,1.09514c0.2306,0.27619 0.42051,0.64506 0.53451,1.13579c0.56566,2.43516 -1.8695,3.00083 -1.8695,3.00083l-2.35554,0.53601c-2.2883,1.01031 -4.67902,1.79687 -7.09585,2.44182c0,0 -2.41666,0.64011 -3.05678,-1.77655c-0.32561,-1.2293 0.13973,-1.99892 0.67559,-2.45843c-0.35039,-0.43027 -0.56045,-0.97936 -0.56045,-1.57752z" fill="#70b548" stroke="none" stroke-width="0.5" stroke-linecap="butt"></path><path d="M232.61847,184.29165c0.79517,2.37017 -1.575,3.16534 -1.575,3.16534l-0.16611,0.04431c0.21835,0.24339 0.40915,0.56438 0.55032,0.98511c0.79527,2.37014 -1.57487,3.1654 -1.57487,3.1654l-0.83311,0.26667c-1.45533,0.33293 -2.91065,0.66586 -4.36598,0.99879c0,0 -2.43704,0.55751 -2.99456,-1.87953c-0.55751,-2.43704 1.87953,-2.99456 1.87953,-2.99456c0.64388,-0.1473 1.28775,-0.29459 1.93163,-0.44189c-0.53354,-0.31627 -1.01426,-0.89175 -1.08931,-1.93573c-0.17926,-2.49356 2.3143,-2.67283 2.3143,-2.67283c0.92612,-0.06658 1.85225,-0.13316 2.77837,-0.19974l-0.02056,-0.07634c0,0 2.37017,-0.79517 3.16534,1.575z" fill="#70b548" stroke="none" stroke-width="0.5" stroke-linecap="butt"></path><path d="M234.39994,195.02669c1.24646,2.1671 -0.92064,3.41356 -0.92064,3.41356l-3.75385,1.91622c-1.04556,-0.27389 -2.09112,-0.54777 -3.13667,-0.82166l-0.58586,0.14479c-1.19073,-0.33293 -2.38147,-0.66586 -3.5722,-0.99879c0,0 -2.40766,-0.67318 -1.73448,-3.08084c0.67318,-2.40766 3.08084,-1.73448 3.08084,-1.73448c0.65192,0.18228 1.30383,0.36455 1.95575,0.54683c0.69434,-0.11412 1.29651,0.07529 1.29651,0.07529c0.14193,0.05919 0.28386,0.11837 0.42578,0.17756l0.27182,-0.51133c0,0 1.54232,-0.62096 2.61781,0.4077l0.64162,-0.45549c0,0 2.1671,-1.24646 3.41356,0.92064z" fill="#70b548" stroke="none" stroke-width="0.5" stroke-linecap="butt"></path><path d="M233.01076,205.01453c1.24646,2.1671 -0.92064,3.41356 -0.92064,3.41356l-1.7854,1.01245l0.34909,-0.05603c0,0 2.46967,-0.38827 2.85794,2.08139c0.38827,2.46967 -2.08139,2.85794 -2.08139,2.85794l-2.73479,0.42226c-1.73158,0.00253 -3.46315,0.00506 -5.19473,0.0076c0,0 -2.5,0 -2.5,-2.5c0,-0.42657 0.07279,-0.78036 0.19352,-1.07378c-0.52541,0.00382 -1.05023,-0.00438 -1.57349,-0.02426c0,0 -2.49761,-0.10932 -2.38829,-2.60693c0.10932,-2.49761 2.60693,-2.38829 2.60693,-2.38829c0.25868,0.01309 0.51807,0.02356 0.77793,0.03107c-0.25861,-0.48271 -0.36374,-1.12569 -0.0699,-1.95976c0.8307,-2.35795 3.18865,-1.52725 3.18865,-1.52725c1.32303,0.4661 2.64607,0.93221 3.9691,1.39831l0.40962,-0.48128c0,0 1.04013,-0.23267 1.91402,0.28498c0.69624,-0.24095 2.08001,-0.45993 2.98184,1.108z" fill="#70b548" stroke="none" stroke-width="0.5" stroke-linecap="butt"></path></g></g></svg>