<svg version="1.1" xmlns="http://www.w3.org/2000/svg" xmlns:xlink="http://www.w3.org/1999/xlink" width="90.79495" height="80.5" viewBox="0,0,90.79495,80.5"><g transform="translate(-439.75003,-139.75005)"><g stroke-miterlimit="10"><path d="M480.00003,219.50005c-21.81525,0 -39.5,-17.68475 -39.5,-39.5c0,-21.81525 17.68475,-39.5 39.5,-39.5c21.81525,0 39.5,17.68475 39.5,39.5c0,21.81525 -17.68475,39.5 -39.5,39.5z" fill="#d8d8d8" stroke="#000000" stroke-width="1.5" stroke-linecap="butt"/><path d="" fill="none" stroke="#000000" stroke-width="1.5" stroke-linecap="round"/><path d="" fill="none" stroke="#000000" stroke-width="1.5" stroke-linecap="round"/><path d="M508.71284,168.34945l-20.61587,5.97561" fill="none" stroke="#000000" stroke-width="1.5" stroke-linecap="round"/><path d="M459.11525,168.05064l23.60367,6.27439" fill="none" stroke="#000000" stroke-width="1.5" stroke-linecap="round"/><path d="M480.56163,178.50793c0,-0.82843 0.67157,-1.5 1.5,-1.5c0.82843,0 1.5,0.67157 1.5,1.5c0,0.82843 -0.67157,1.5 -1.5,1.5c-0.82843,0 -1.5,-0.67157 -1.5,-1.5z" fill="#000000" stroke="none" stroke-width="0.5" stroke-linecap="butt"/><path d="M497.59213,178.20914c0,-0.82843 0.67158,-1.5 1.5,-1.5c0.82842,0 1.5,0.67157 1.5,1.5c0,0.82843 -0.67158,1.5 -1.5,1.5c-0.82842,0 -1.5,-0.67157 -1.5,-1.5z" fill="#000000" stroke="none" stroke-width="0.5" stroke-linecap="butt"/><path d="M486.24456,198.37684c0,0 1.8465,-6.57318 3.58538,-6.57318c1.34692,0 4.18292,6.57318 4.18292,6.57318" fill="none" stroke="#000000" stroke-width="1.5" stroke-linecap="round"/><path d="" fill="none" stroke="#000000" stroke-width="1.5" stroke-linecap="round"/><path d="" fill="none" stroke="#000000" stroke-width="1.5" stroke-linecap="round"/><path d="" fill="none" stroke="#000000" stroke-width="1.5" stroke-linecap="round"/><path d="" fill="none" stroke="#000000" stroke-width="1.5" stroke-linecap="round"/><path d="M451.6995,173.42904c-4.654,0 -8.42681,-3.7728 -8.42681,-8.42681c0,-4.654 3.7728,-8.42681 8.42681,-8.42681c4.654,0 8.42681,3.7728 8.42681,8.42681c0,4.654 -3.7728,8.42681 -8.42681,8.42681z" fill="#d8d8d8" stroke="#000000" stroke-width="1" stroke-linecap="butt"/><path d="M521.61817,211.28203c-4.654,0 -8.42681,-3.7728 -8.42681,-8.42681c0,-4.654 3.7728,-8.42681 8.42681,-8.42681c4.654,0 8.42681,3.7728 8.42681,8.42681c0,4.654 -3.7728,8.42681 -8.42681,8.42681z" fill="#d8d8d8" stroke="#000000" stroke-width="1" stroke-linecap="butt"/></g></g></svg>