<svg version="1.1" xmlns="http://www.w3.org/2000/svg" xmlns:xlink="http://www.w3.org/1999/xlink" width="121.13845" height="206.80148" viewBox="0,0,121.13845,206.80148"><g transform="translate(-158.10008,-11.62247)"><g data-paper-data="{&quot;isPaintingLayer&quot;:true}" fill-rule="nonzero" stroke-linejoin="miter" stroke-miterlimit="10" stroke-dasharray="" stroke-dashoffset="0" style="mix-blend-mode: normal"><path d="" data-paper-data="{&quot;index&quot;:null}" fill="none" stroke="#000000" stroke-width="1.5" stroke-linecap="round"></path><path d="M199.48853,178.17395c0,-21.81525 17.68475,-39.5 39.5,-39.5c21.81525,0 39.5,17.68475 39.5,39.5c0,21.81525 -17.68475,39.5 -39.5,39.5c-21.81525,0 -39.5,-17.68475 -39.5,-39.5z" fill="#d8d8d8" stroke="#000000" stroke-width="1.5" stroke-linecap="butt"></path><path d="M184.52581,194.65338" fill="none" stroke="#d8d8d8" stroke-width="4" stroke-linecap="round"></path><path d="M229.69475,162.57199v8" fill="none" stroke="#000000" stroke-width="1.5" stroke-linecap="round"></path><path d="M235.31499,168.26759c0,0 1.27486,-2.93117 2.69835,-2.93117c1.20746,0 3.02185,2.93117 3.02185,2.93117" fill="none" stroke="#000000" stroke-width="1.5" stroke-linecap="round"></path><path d="M238.43304,191.06637c0,2.42201 -1.3368,4.38543 -2.98583,4.38543c-1.64903,0 -2.98583,-1.96343 -2.98583,-4.38543c0,-2.42201 1.3368,-4.38543 2.98583,-4.38543c1.64903,0 2.98583,1.96343 2.98583,4.38543z" fill="none" stroke="#000000" stroke-width="1.5" stroke-linecap="butt"></path><g><path d="M188.33917,31.37671c0,0 10.10919,0.09401 9.92959,4.3155c-0.17959,4.2215 -10.14209,1.72336 -10.14209,1.72336" fill="none" stroke="#ffee00" stroke-width="6.5" stroke-linecap="round"></path><g><path d="M170.74962,99.5415l5.99327,-56.09114l3.86835,0.41335l-5.99327,56.09114z" fill="#7f7600" stroke="#000000" stroke-width="0" stroke-linecap="butt"></path><path d="M172.3767,32.38065c0.43261,-4.32933 4.29294,-7.48825 8.62229,-7.05564c4.32933,0.43261 7.48825,4.29294 7.05564,8.62229c-0.43261,4.32933 -4.29294,7.48825 -8.62229,7.05564c-4.32933,-0.43261 -7.48825,-4.29294 -7.05564,-8.62229z" fill="none" stroke="#ffee00" stroke-width="5" stroke-linecap="butt"></path><path d="M177.82544,24.80444c0,0 0.09401,-10.10919 4.31551,-9.92961c4.22152,0.17958 1.72336,10.14209 1.72336,10.14209" fill="none" stroke="#ffee00" stroke-width="6.5" stroke-linecap="round"></path><path d="M181.75019,42.80804c0,0 -0.09401,10.10919 -4.31551,9.92962c-4.22152,-0.17958 -1.72336,-10.14209 -1.72336,-10.14209" fill="none" stroke="#ffee00" stroke-width="6.5" stroke-linecap="round"></path><path d="M171.28206,34.67291c0,0 -10.10919,-0.09401 -9.92961,-4.31551c0.17957,-4.22149 10.14206,-1.72336 10.14206,-1.72336" fill="none" stroke="#ffee00" stroke-width="6.5" stroke-linecap="round"></path></g></g></g></g></svg>