<svg version="1.1" xmlns="http://www.w3.org/2000/svg" xmlns:xlink="http://www.w3.org/1999/xlink" width="227.10907" height="87.52481" viewBox="0,0,227.10907,87.52481"><g transform="translate(-55.72057,-136.63057)"><g data-paper-data="{&quot;isPaintingLayer&quot;:true}" fill-rule="nonzero" stroke-linejoin="miter" stroke-miterlimit="10" stroke-dasharray="" stroke-dashoffset="0" style="mix-blend-mode: normal"><path d="" data-paper-data="{&quot;index&quot;:null}" fill="none" stroke="#000000" stroke-width="1.5" stroke-linecap="round"></path><path d="" data-paper-data="{&quot;index&quot;:null}" fill="none" stroke="#000000" stroke-width="1.5" stroke-linecap="round"></path><path d="" data-paper-data="{&quot;index&quot;:null}" fill="none" stroke="#000000" stroke-width="1.5" stroke-linecap="round"></path><path d="" data-paper-data="{&quot;index&quot;:null}" fill="none" stroke="#000000" stroke-width="1.5" stroke-linecap="round"></path><path d="" data-paper-data="{&quot;index&quot;:null}" fill="none" stroke="#000000" stroke-width="1.5" stroke-linecap="round"></path><path d="M282.82964,181.77025" data-paper-data="{&quot;index&quot;:null}" fill="none" stroke="#d8d8d8" stroke-width="4" stroke-linecap="round"></path><path d="M243.18086,219.31079c-20.90558,6.23391 -42.90648,-5.65984 -49.14039,-26.56542c-6.23391,-20.90558 5.65984,-42.90648 26.56542,-49.14039c20.90558,-6.23391 42.90648,5.65984 49.14039,26.56542c6.23391,20.90558 -5.65984,42.90648 -26.56542,49.14039z" fill="#d8d8d8" stroke="#000000" stroke-width="1.5" stroke-linecap="butt"></path><path d="M198.32021,214.41397l-9.92179,-51.33263l23.10299,-21.10131l18.21102,-4.31209l27.44242,8.83607l13.43753,63.29141l-31.37173,-2.69752l-8.35962,-22.53717l-5.42465,-1.67318l-4.69214,3.66369l4.24453,21.9272l-25.32652,14.11083z" fill="#c3c3c3" stroke="#000000" stroke-width="2" stroke-linecap="round"></path><path d="M193.49197,183.25357l-2.41857,-11.1418l26.62292,-2.0457l2.61205,12.03315z" fill="#c20000" stroke="none" stroke-width="0" stroke-linecap="butt"></path><path d="M229.34575,181.5988l-2.62893,-12.02947l25.06213,-9.21164l2.4342,11.13839z" data-paper-data="{&quot;index&quot;:null}" fill="#c20000" stroke="none" stroke-width="0" stroke-linecap="butt"></path><g stroke="#000000" stroke-linecap="butt"><path d="M132.19643,190.88679l-64.90414,-5.06056l-6.09407,-2.88486l-5.03415,-3.33191l5.06901,-3.56485l6.72959,-1.49446l65.16329,5.00199z" data-paper-data="{&quot;index&quot;:null}" fill="#d2d2d2" stroke-width="0.5"></path><path d="M173.20152,196.33175l-49.16068,-4.1238l1.28172,-15.27967l49.16068,4.1238z" fill="#919191" stroke-width="1"></path></g></g></g></svg>