<svg version="1.1" xmlns="http://www.w3.org/2000/svg" xmlns:xlink="http://www.w3.org/1999/xlink" width="80.5" height="96.3984" viewBox="0,0,80.5,96.3984"><g transform="translate(-198.73851,-122.02555)"><g data-paper-data="{&quot;isPaintingLayer&quot;:true}" fill-rule="nonzero" stroke-linejoin="miter" stroke-miterlimit="10" stroke-dasharray="" stroke-dashoffset="0" style="mix-blend-mode: normal"><path d="" data-paper-data="{&quot;index&quot;:null}" fill="none" stroke="#000000" stroke-width="1.5" stroke-linecap="round"></path><path d="" data-paper-data="{&quot;index&quot;:null}" fill="none" stroke="#000000" stroke-width="1.5" stroke-linecap="round"></path><path d="M199.48851,178.17395c0,-21.81525 17.68475,-39.5 39.5,-39.5c21.81525,0 39.5,17.68475 39.5,39.5c0,21.81525 -17.68475,39.5 -39.5,39.5c-21.81525,0 -39.5,-17.68475 -39.5,-39.5z" fill="#d8d8d8" stroke="#000000" stroke-width="1.5" stroke-linecap="butt"></path><path d="M248.51132,198.65627l-25.62407,-5.40809c6.59608,-7.87072 28.99925,-0.60801 28.99925,-0.60801z" data-paper-data="{&quot;index&quot;:null}" fill="#000000" stroke="#000000" stroke-width="1.5" stroke-linecap="round"></path><path d="M223.76444,158.89457l6.99536,1.82343v8" fill="none" stroke="#000000" stroke-width="1.5" stroke-linecap="round"></path><path d="M237.86965,170.31049l-0.24149,-8.93527l7.00332,-2.17344" fill="none" stroke="#000000" stroke-width="1.5" stroke-linecap="round"></path><path d="M238.59414,186.12751l16.42158,-6.52033" fill="none" stroke="#000000" stroke-width="1.5" stroke-linecap="round"></path><path d="M244.63149,185.64452l-2.89793,-5.55436" fill="none" stroke="#000000" stroke-width="1.5" stroke-linecap="round"></path><path d="M246.32194,177.91672l3.8639,7.7278" fill="none" stroke="#000000" stroke-width="1.5" stroke-linecap="round"></path><g><path d="M256.8024,133.57276l5.00995,-8.77409l13.80459,-1.79557l-8.47655,10.99246z" data-paper-data="{&quot;index&quot;:null}" fill="#c6c6c6" stroke="#c6c6c6" stroke-width="1.5" stroke-linecap="round"></path><path d="M228.33034,162.32916" fill="none" stroke="#d8d8d8" stroke-width="4" stroke-linecap="round"></path><path d="M200.04021,162.20656l46.97084,-25.95399l2.17189,3.14371l-46.97084,25.95399z" fill="#7f7600" stroke="#000000" stroke-width="0" stroke-linecap="butt"></path><path d="M257.67709,131.75451c2.39776,0.19586 2.43376,2.44868 2.43376,2.44868l-0.47561,3.42137c-1.86583,2.14018 -4.2761,3.7037 -5.95184,5.97003c-0.69458,0.93936 -0.81931,2.4871 -1.98372,2.88313c-1.79149,0.60928 -4.34919,1.03149 -5.87004,-0.21204c-1.256,-1.02696 0.4664,-2.98979 0.13603,-4.47636c-0.17399,-0.78294 -1.39844,-1.18789 -1.56902,-1.97122c-0.12794,-0.58755 1.17886,-1.05416 0.80094,-1.55607c-0.58358,-0.77502 -2.63974,-0.17887 -2.79375,-1.09049c-1.03778,-6.14331 7.74544,-6.97053 12.00084,-7.89604c0,0 2.39518,-0.52038 3.13294,1.74532c0.08739,0.26839 0.13083,0.51228 0.13947,0.73371z" fill="#ff0000" stroke="none" stroke-width="0.5" stroke-linecap="butt"></path></g></g></g></svg>