<svg version="1.1" xmlns="http://www.w3.org/2000/svg" xmlns:xlink="http://www.w3.org/1999/xlink" width="94.81982" height="94.09963" viewBox="0,0,94.81982,94.09963"><g transform="translate(-205.42537,-126.84513)"><g data-paper-data="{&quot;isPaintingLayer&quot;:true}" fill-rule="nonzero" stroke-linejoin="miter" stroke-miterlimit="10" stroke-dasharray="" stroke-dashoffset="0" style="mix-blend-mode: normal"><path d="" data-paper-data="{&quot;index&quot;:null}" fill="none" stroke="#000000" stroke-width="1.5" stroke-linecap="round"></path><path d="" data-paper-data="{&quot;index&quot;:null}" fill="none" stroke="#000000" stroke-width="1.5" stroke-linecap="round"></path><path d="M220.49519,180.69476c0,-21.81525 17.68475,-39.5 39.5,-39.5c21.81525,0 39.5,17.68475 39.5,39.5c0,21.81525 -17.68475,39.5 -39.5,39.5c-21.81525,0 -39.5,-17.68475 -39.5,-39.5z" fill="#d8d8d8" stroke="#000000" stroke-width="1.5" stroke-linecap="butt"></path><path d="M246.51675,197.3165c5.44898,-2.88817 27.57511,5.13694 27.57511,5.13694" data-paper-data="{&quot;index&quot;:null}" fill="none" stroke="#000000" stroke-width="1.5" stroke-linecap="round"></path><path d="M246.31865,168.12134l6.99536,1.82343v8" fill="none" stroke="#000000" stroke-width="1.5" stroke-linecap="round"></path><path d="M258.87633,178.50558l-0.24149,-8.93527l7.00332,-2.17344" fill="none" stroke="#000000" stroke-width="1.5" stroke-linecap="round"></path><path d="M259.60082,188.64832l16.42158,-6.52033" fill="none" stroke="#000000" stroke-width="1.5" stroke-linecap="round"></path><path d="M265.63817,188.16533l-2.89793,-5.55436" fill="none" stroke="#000000" stroke-width="1.5" stroke-linecap="round"></path><path d="M267.32862,180.43753l3.8639,7.7278" fill="none" stroke="#000000" stroke-width="1.5" stroke-linecap="round"></path><g><path d="M214.06248,150.52458l-7.85615,-7.7342l1.35671,-14.01584l9.33211,11.82999z" data-paper-data="{&quot;index&quot;:null}" fill="#c6c6c6" stroke="#c6c6c6" stroke-width="1.5" stroke-linecap="round"></path><path d="M237.01465,187.59865" fill="none" stroke="#d8d8d8" stroke-width="4" stroke-linecap="round"></path><path d="M230.32612,215.0824l-15.78056,-54.15818l3.73505,-1.08829l15.78056,54.15818z" fill="#7f7600" stroke="#000000" stroke-width="0" stroke-linecap="butt"></path><path d="M212.39648,149.08094c0.75752,-2.26895 3.08139,-1.56966 3.08139,-1.56966l3.40631,1.57791c1.76695,2.51288 2.81486,5.36748 4.75554,7.73656c0.80437,0.98196 2.36627,1.60781 2.50321,2.86975c0.21069,1.94156 0.05129,4.56759 -1.57962,5.64191c-1.34692,0.88724 -2.9648,-1.42832 -4.56941,-1.59144c-0.84507,-0.0859 -1.54535,0.97335 -2.39006,0.884c-0.63357,-0.06702 -0.81005,-1.49053 -1.41358,-1.28645c-0.93196,0.31517 -0.79621,2.50992 -1.76894,2.3626c-6.55507,-0.99278 -5.36784,-9.8077 -5.332,-14.24948c0,0 0.02075,-2.49991 2.52065,-2.47913c0.29613,0.00247 0.55689,0.0397 0.78649,0.10344z" fill="#ff0000" stroke="none" stroke-width="0.5" stroke-linecap="butt"></path></g></g></g></svg>