<svg version="1.1" xmlns="http://www.w3.org/2000/svg" xmlns:xlink="http://www.w3.org/1999/xlink" width="127.75275" height="80.5" viewBox="0,0,127.75275,80.5"><g transform="translate(-156.82673,-139.75)"><g data-paper-data="{&quot;isPaintingLayer&quot;:true}" fill-rule="nonzero" stroke-linejoin="miter" stroke-miterlimit="10" stroke-dasharray="" stroke-dashoffset="0" style="mix-blend-mode: normal"><path d="M204.82949,180c0,-21.81525 17.68475,-39.5 39.5,-39.5c21.81525,0 39.5,17.68475 39.5,39.5c0,21.81525 -17.68475,39.5 -39.5,39.5c-21.81525,0 -39.5,-17.68475 -39.5,-39.5z" fill="#d8d8d8" stroke="#000000" stroke-width="1.5" stroke-linecap="butt"></path><path d="M228.58224,167.20295l9,1v8" fill="none" stroke="#000000" stroke-width="1.5" stroke-linecap="round"></path><path d="M248.51493,176.68819v-8l9,-1" data-paper-data="{&quot;index&quot;:null}" fill="none" stroke="#000000" stroke-width="1.5" stroke-linecap="round"></path><path d="M256.96879,195.96181l-31.37388,0.40984v-12.29517z" fill="#ffffff" stroke="#000000" stroke-width="1.5" stroke-linecap="round"></path><path d="M231.53051,196.37165l0.42397,-10.17531" fill="none" stroke="#000000" stroke-width="1.5" stroke-linecap="round"></path><path d="M240.43391,190.01208v5.9356" fill="none" stroke="#000000" stroke-width="1.5" stroke-linecap="round"></path><g stroke="none" stroke-linecap="butt"><path d="M169.98665,153.89493l1.8251,-3.09704l28.64748,16.88217l-1.8251,3.09704z" fill="#606060" stroke-width="0"></path><path d="M189.1863,171.46826l3.49811,-5.93596l3.87128,2.28138l-3.49811,5.93596z" fill="#606060" stroke-width="0"></path><path d="M156.84185,156.92773c1.11875,-1.8984 3.52308,-5.97833 3.52308,-5.97833l61.34305,36.14989l-6.4378,10.92432l-44.39624,-26.16303l2.60192,-4.42119c0,0 -17.23001,-9.50031 -16.63401,-10.51166z" fill="#969696" stroke-width="NaN"></path><path d="M206.85382,212.39777l5.7852,-24.79722l8.45479,1.01335c0,0 -3.26568,8.60977 -2.55769,12.83851c0.84265,5.03308 7.28031,15.36933 7.28031,15.36933z" fill="#606060" stroke-width="0"></path><path d="M177.32313,191.59891l8.36503,-14.19471l5.93596,3.49811l-8.36503,14.19471z" fill="#606060" stroke-width="0"></path><path d="M193.79485,182.52924l5.28318,-8.96509l5.67787,3.34602l-5.28318,8.96509z" fill="#00fffe" stroke-width="0"></path><path d="M202.03165,187.31137l5.28318,-8.96509l5.67787,3.34602l-5.28318,8.96509z" fill="#00fffe" stroke-width="0"></path><path d="M186.11442,178.20706l5.28318,-8.96509l5.67787,3.34602l-5.28318,8.96509z" fill="#00fffe" stroke-width="0"></path></g><path d="M264.43422,208.2214c0,-4.53898 3.67957,-8.21855 8.21855,-8.21855c4.53898,0 8.21855,3.67957 8.21855,8.21855c0,4.53898 -3.67957,8.21855 -8.21855,8.21855c-4.53898,0 -8.21855,-3.67956 -8.21855,-8.21855z" fill="#d8d8d8" stroke="#000000" stroke-width="1" stroke-linecap="butt"></path></g></g></svg>