<svg version="1.1" xmlns="http://www.w3.org/2000/svg" xmlns:xlink="http://www.w3.org/1999/xlink" width="65.875" height="65.875" viewBox="0,0,65.875,65.875"><g transform="translate(-207.0625,-147.0625)"><g data-paper-data="{&quot;isPaintingLayer&quot;:true}" fill-rule="nonzero" stroke-linejoin="miter" stroke-miterlimit="10" stroke-dasharray="" stroke-dashoffset="0" style="mix-blend-mode: normal"><path d="M207.0625,180c0,-18.19088 14.74662,-32.9375 32.9375,-32.9375c18.19088,0 32.9375,14.74662 32.9375,32.9375c0,18.19088 -14.74662,32.9375 -32.9375,32.9375c-18.19088,0 -32.9375,-14.74662 -32.9375,-32.9375z" fill="#000000" stroke="none" stroke-width="0" stroke-linecap="butt"></path><path d="" data-paper-data="{&quot;index&quot;:null}" fill="none" stroke="#000000" stroke-width="1.5" stroke-linecap="round"></path><path d="" data-paper-data="{&quot;index&quot;:null}" fill="none" stroke="#000000" stroke-width="1.5" stroke-linecap="round"></path><path d="" data-paper-data="{&quot;index&quot;:null}" fill="none" stroke="#000000" stroke-width="1.5" stroke-linecap="round"></path><path d="" data-paper-data="{&quot;index&quot;:null}" fill="none" stroke="#000000" stroke-width="1.5" stroke-linecap="round"></path><path d="" data-paper-data="{&quot;index&quot;:null}" fill="none" stroke="#000000" stroke-width="1.5" stroke-linecap="round"></path><path d="M248.58124,186.23935c-2.49041,11.20586 -18.12859,21.00458 -18.12859,21.00458c0,0 8.94034,-15.47664 11.07131,-23.30392c2.1452,-7.87954 1.7575,-23.81759 1.7575,-23.81759c0,0 7.67546,15.4273 5.29978,26.11692z" data-paper-data="{&quot;index&quot;:null}" fill="#ffffff" stroke="none" stroke-width="NaN" stroke-linecap="butt"></path><path d="M261.01454,189.55952c-2.49041,11.20586 -18.12859,21.00458 -18.12859,21.00458c0,0 8.94034,-15.47664 11.07131,-23.30392c2.1452,-7.87954 1.7575,-23.81759 1.7575,-23.81759c0,0 7.67546,15.4273 5.29978,26.11693z" data-paper-data="{&quot;index&quot;:null}" fill="#ffffff" stroke="none" stroke-width="NaN" stroke-linecap="butt"></path><path d="M236.03538,180.3174c-2.49041,11.20587 -18.12859,21.00458 -18.12859,21.00458c0,0 8.94033,-15.47664 11.07131,-23.30392c2.1452,-7.87954 1.7575,-23.81759 1.7575,-23.81759c0,0 7.67546,15.4273 5.29978,26.11693z" data-paper-data="{&quot;index&quot;:null}" fill="#ffffff" stroke="none" stroke-width="NaN" stroke-linecap="butt"></path></g></g></svg>