<svg version="1.1" xmlns="http://www.w3.org/2000/svg" xmlns:xlink="http://www.w3.org/1999/xlink" width="580" height="415" viewBox="0,0,580,415"><defs><radialGradient cx="127.09363" cy="193.2056" r="40.56614" gradientUnits="userSpaceOnUse" id="color-1"><stop offset="0" stop-color="#000000" stop-opacity="0"></stop><stop offset="1" stop-color="#000000"></stop></radialGradient></defs><g transform="translate(56.66077,19.8185)"><g data-paper-data="{&quot;isPaintingLayer&quot;:true}" fill-rule="nonzero" stroke-linejoin="miter" stroke-miterlimit="10" stroke-dasharray="" stroke-dashoffset="0" style="mix-blend-mode: normal"><path d="" data-paper-data="{&quot;index&quot;:null}" fill="#00c1ff" stroke="none" stroke-width="0.5" stroke-linecap="butt"></path><path d="" data-paper-data="{&quot;index&quot;:null}" fill="none" stroke="#000000" stroke-width="1.5" stroke-linecap="round"></path><path d="" data-paper-data="{&quot;index&quot;:null}" fill="none" stroke="#000000" stroke-width="1.5" stroke-linecap="round"></path><path d="" data-paper-data="{&quot;index&quot;:null}" fill="none" stroke="#000000" stroke-width="1.5" stroke-linecap="round"></path><path d="" data-paper-data="{&quot;index&quot;:null}" fill="none" stroke="#000000" stroke-width="1.5" stroke-linecap="round"></path><path d="M-56.66077,395.1815v-415h580v415z" fill="#989898" stroke="none" stroke-width="0" stroke-linecap="butt"></path><path d="" data-paper-data="{&quot;index&quot;:null}" fill="none" stroke="#000000" stroke-width="1.5" stroke-linecap="round"></path><g><path d="" data-paper-data="{&quot;index&quot;:null}" fill="none" stroke="#000000" stroke-width="1.5" stroke-linecap="round"></path><path d="" data-paper-data="{&quot;index&quot;:null}" fill="none" stroke="#000000" stroke-width="1.5" stroke-linecap="round"></path><path d="" data-paper-data="{&quot;index&quot;:null}" fill="none" stroke="#000000" stroke-width="1.5" stroke-linecap="round"></path><path d="" data-paper-data="{&quot;index&quot;:null}" fill="none" stroke="#000000" stroke-width="1.5" stroke-linecap="round"></path><path d="M308.59737,206.22914" data-paper-data="{&quot;index&quot;:null}" fill="none" stroke="#d8d8d8" stroke-width="4" stroke-linecap="round"></path><path d="M217.12829,252.49616c-40.95436,0 -74.15441,-33.20006 -74.15441,-74.15441c0,-40.95436 33.20006,-74.15441 74.15441,-74.15441c40.95436,0 74.15441,33.20006 74.15441,74.15441c0,40.95436 -33.20006,74.15441 -74.15441,74.15441z" fill="#d8d8d8" stroke="#000000" stroke-width="1.5" stroke-linecap="butt"></path><path d="M197.58408,156.08123l-32.20261,-11.38873" fill="none" stroke="#000000" stroke-width="1.5" stroke-linecap="round"></path><path d="M193.93153,175.22976l-0.39272,-13.3523" fill="none" stroke="#000000" stroke-width="1.5" stroke-linecap="round"></path><path d="M210.44683,159.39601l22.6168,-1.37666" fill="none" stroke="#000000" stroke-width="1.5" stroke-linecap="round"></path><path d="M213.55546,175.57524l0.39272,-12.56688" fill="none" stroke="#000000" stroke-width="1.5" stroke-linecap="round"></path><path d="M233.40321,194.92789c0,0 -4.59404,12.00582 -11.2763,14.13199c-7.2395,2.30348 -30.62301,-0.8004 -30.62301,-0.8004" fill="none" stroke="#000000" stroke-width="1.5" stroke-linecap="round"></path><g stroke-width="0" stroke-linecap="butt"><path d="M294.15796,88.61545l26.0888,34.96504l-19.61133,7.41137z" fill="#aeaeae" stroke="none"></path><path d="M357.11956,148.74789l22.94942,-8.67287l13.40353,35.46727l-22.94942,8.67287z" fill="#a7ed95" stroke="none"></path><path d="M206.06913,224.02631l87.62504,-33.11458l2.20764,5.84168l-87.62504,33.11458z" fill="#c2c2c2" stroke="none"></path><path d="M190.0894,220.0513l15.17184,-5.73362l9.30362,24.61846l-15.17184,5.73362z" fill="#a6a6a6" stroke="#000000"></path><path d="M270.84013,135.09906l75.99079,-28.71786l45.41428,120.17147l-75.99079,28.71786z" fill="#73a367" stroke="none"></path><path d="M338.32347,235.31569l19.61133,-7.41137l3.55663,43.48022z" data-paper-data="{&quot;index&quot;:null}" fill="#aeaeae" stroke="none"></path></g><path d="M86.52748,193.2056c0,-22.40406 18.16209,-40.56614 40.56614,-40.56614c22.40406,0 40.56614,18.16209 40.56614,40.56614c0,22.40406 -18.16209,40.56614 -40.56614,40.56614c-22.40406,0 -40.56614,-18.16209 -40.56614,-40.56614z" fill="url(#color-1)" stroke="none" stroke-width="0" stroke-linecap="butt"></path><path d="M98.71637,193.77694c0,-14.72568 11.93751,-26.66319 26.66319,-26.66319c14.72568,0 26.66319,11.93751 26.66319,26.66319c0,14.72568 -11.93751,26.66319 -26.66319,26.66319c-14.72568,0 -26.66319,-11.93751 -26.66319,-26.66319z" fill="#00b128" stroke="none" stroke-width="0" stroke-linecap="butt"></path><path d="M133.32902,210.98756l-24.77918,-24.77918l5.38678,-5.38678l24.77918,24.77918z" fill="#b2b2b2" stroke="none" stroke-width="0" stroke-linecap="butt"></path><path d="M113.93663,210.98756l-4.8481,-4.8481l23.70182,-23.70182l4.8481,4.8481z" fill="#b2b2b2" stroke="none" stroke-width="0" stroke-linecap="butt"></path></g><text transform="translate(50.04331,93.20432) scale(2.24184,2.24184)" font-size="40" xml:space="preserve" fill="#000000" fill-rule="nonzero" stroke="none" stroke-width="1" stroke-linecap="butt" stroke-linejoin="miter" stroke-miterlimit="10" stroke-dasharray="" stroke-dashoffset="0" font-family="Sans Serif" font-weight="normal" text-anchor="start" style="mix-blend-mode: normal"><tspan x="0" dy="0">PALADIN!</tspan></text><text transform="translate(53.96457,329.46023) scale(1.13726,1.13726)" font-size="40" xml:space="preserve" fill="#000000" fill-rule="nonzero" stroke="none" stroke-width="1" stroke-linecap="butt" stroke-linejoin="miter" stroke-miterlimit="10" stroke-dasharray="" stroke-dashoffset="0" font-family="Sans Serif" font-weight="normal" text-anchor="start" style="mix-blend-mode: normal"><tspan x="0" dy="0">+ Balance Changes</tspan></text><text transform="translate(71.61024,279.95432) scale(0.5,0.5)" font-size="40" xml:space="preserve" fill="#000000" fill-rule="nonzero" stroke="none" stroke-width="1" stroke-linecap="butt" stroke-linejoin="miter" stroke-miterlimit="10" stroke-dasharray="" stroke-dashoffset="0" font-family="Sans Serif" font-weight="normal" text-anchor="start" style="mix-blend-mode: normal"><tspan x="0" dy="0">+New secret ball!</tspan></text><text transform="translate(-220.52362,226.037) scale(0.5,0.5)" font-size="40" xml:space="preserve" fill="#000000" fill-rule="nonzero" stroke="none" stroke-width="1" stroke-linecap="butt" stroke-linejoin="miter" stroke-miterlimit="10" stroke-dasharray="" stroke-dashoffset="0" font-family="Sans Serif" font-weight="normal" text-anchor="start" style="mix-blend-mode: normal"><tspan x="0" dy="0"> </tspan></text></g></g></svg>