<svg version="1.1" xmlns="http://www.w3.org/2000/svg" xmlns:xlink="http://www.w3.org/1999/xlink" width="173.95616" height="102.62601" viewBox="0,0,173.95616,102.62601"><g transform="translate(-127.73152,-140.3707)"><g data-paper-data="{&quot;isPaintingLayer&quot;:true}" fill-rule="nonzero" stroke-linejoin="miter" stroke-miterlimit="10" stroke-dasharray="" stroke-dashoffset="0" style="mix-blend-mode: normal"><path d="" data-paper-data="{&quot;index&quot;:null}" fill="none" stroke="#000000" stroke-width="1.5" stroke-linecap="round"></path><path d="" data-paper-data="{&quot;index&quot;:null}" fill="none" stroke="#000000" stroke-width="1.5" stroke-linecap="round"></path><path d="M301.68768,195.47554" data-paper-data="{&quot;index&quot;:null}" fill="none" stroke="#d8d8d8" stroke-width="4" stroke-linecap="round"></path><path d="M199.18372,180.6207c0,-21.81525 17.68475,-39.5 39.5,-39.5c21.81525,0 39.5,17.68475 39.5,39.5c0,21.81525 -17.68475,39.5 -39.5,39.5c-21.81525,0 -39.5,-17.68475 -39.5,-39.5z" data-paper-data="{&quot;index&quot;:null}" fill="#d8d8d8" stroke="#000000" stroke-width="1.5" stroke-linecap="butt"></path><path d="M254.35771,169.6083l-11.07275,4.59202" data-paper-data="{&quot;index&quot;:null}" fill="none" stroke="#000000" stroke-width="1.5" stroke-linecap="round"></path><path d="M248.94146,178.95914l0.25511,-5.86758" data-paper-data="{&quot;index&quot;:null}" fill="none" stroke="#000000" stroke-width="1.5" stroke-linecap="round"></path><path d="M239.9685,174.57761l-14.45771,-4.12252" data-paper-data="{&quot;index&quot;:null}" fill="none" stroke="#000000" stroke-width="1.5" stroke-linecap="round"></path><path d="M234.22147,173.05217l0.21988,5.35892" data-paper-data="{&quot;index&quot;:null}" fill="none" stroke="#000000" stroke-width="1.5" stroke-linecap="round"></path><path d="M233.8131,191.53176l18.63798,0.59168" fill="none" stroke="#000000" stroke-width="1.5" stroke-linecap="round"></path><path d="M245.72615,214.13796c2.5,0 2.5,2.5 2.5,2.5l-0.00852,0.83133c-0.22067,2.3158 -0.08337,4.68768 -2.10484,6.48228c-0.92696,0.82292 -2.37921,0.71207 -3.52372,1.18802c-1.82186,0.75762 -3.44202,2.23478 -5.31401,2.73092c-0.69378,0.98008 -1.47962,1.89468 -2.32621,2.7556l0.31458,0.1823l-1.42489,2.45874c-0.42662,0.76806 -1.24611,1.28782 -2.18699,1.28782c-0.95355,0 -1.78241,-0.53385 -2.204,-1.31898c-0.44899,0.42985 -1.05796,0.69393 -1.72862,0.69393c-1.38071,0 -2.5,-1.11929 -2.5,-2.5c0,-0.22733 0.03034,-0.44758 0.0872,-0.65691l0.60137,-2.42131c0.26716,-1.21095 0.56566,-2.41542 0.80105,-3.63294c0.25138,-1.30023 0.35412,-2.62911 0.65856,-3.91795c0.00287,-0.01214 0.00743,-0.02518 0.01342,-0.03892c-0.55239,0.58751 -1.17822,1.09582 -1.85354,1.54591l0.24901,0.38059l-4.10989,2.68897c-0.39913,0.26984 -0.88039,0.42741 -1.39844,0.42741c-0.91841,0 -1.72116,-0.49524 -2.15576,-1.23323l-1.6502,2.12242c-0.45671,0.59917 -1.17794,0.98585 -1.98947,0.98585c-1.38071,0 -2.5,-1.11929 -2.5,-2.5c0,-0.35188 0.0727,-0.68678 0.2039,-0.99051l1.8261,-4.51058l0.0097,0.00393l0.00375,-0.0365c0.67105,-1.53207 1.31551,-3.07606 2.01315,-4.5962c0.30639,-0.6676 0.64235,-1.32136 0.97218,-1.97793c-0.96131,1.45197 -1.93126,3.01024 -3.37287,3.98486c-0.08936,0.06041 -0.17951,0.1194 -0.2704,0.17703l0.01842,0.02615l-4.06269,2.86254c-0.4116,0.29802 -0.91757,0.4737 -1.46458,0.4737c-0.87579,0 -1.64639,-0.45033 -2.09289,-1.13207c-1.12728,1.53234 -2.31173,2.98093 -3.60966,4.14783c-0.0083,0.00746 -0.01661,0.01491 -0.02492,0.02235l0.00414,0.00339l-2.88449,3.52554c-0.45824,0.56902 -1.16068,0.9331 -1.94815,0.9331c-1.38071,0 -2.5,-1.11929 -2.5,-2.5c0,-0.25885 0.03934,-0.50851 0.11237,-0.74333l1.25375,-4.38123c0.13375,-0.4662 0.24292,-0.94068 0.33684,-1.42018c-2.25078,2.96667 -4.43004,5.9876 -6.64542,8.99805c-2.36568,3.21468 -5.46233,7.94746 -8.68447,10.40326l-3.33759,3.70792c-0.45783,0.51288 -1.12401,0.83578 -1.86561,0.83578c-1.38071,0 -2.5,-1.11929 -2.5,-2.5c0,-0.55299 0.17954,-1.06404 0.48351,-1.47804l2.85508,-3.99141c3.0825,-4.99438 6.70114,-9.9207 9.36206,-15.14565c0.93808,-1.842 1.61285,-3.89714 2.31722,-5.94165c-0.94793,1.15061 -1.66079,2.00898 -1.69535,2.03049c-0.10416,0.06482 -0.20935,0.1275 -0.31551,0.18819l0.02561,0.03829l-4.12776,2.76104c-0.40296,0.27806 -0.89155,0.44089 -1.41817,0.44089c-1.38071,0 -2.5,-1.11929 -2.5,-2.5c0,-0.37319 0.08177,-0.72727 0.22837,-1.04533l-1.03228,0.72734c-0.4116,0.29802 -0.91757,0.4737 -1.46458,0.4737c-1.38071,0 -2.5,-1.11929 -2.5,-2.5c0,-0.52279 0.16047,-1.0081 0.43483,-1.40936l1.99361,-3.01002c2.42024,-4.69487 3.20767,-7.46278 2.95518,-12.76922c0,0 -0.1034,-2.49786 2.39446,-2.60127c2.49786,-0.1034 2.60127,2.39446 2.60127,2.39446c0.04023,1.11491 0.04051,2.14866 -0.00223,3.12621c0.30813,-0.44613 0.51852,-0.75073 0.57535,-0.83302l2.57013,-4.17898c0.4353,-0.73515 1.23644,-1.22808 2.15271,-1.22808c1.38071,0 2.5,1.11929 2.5,2.5c0,0.13495 -0.01069,0.26741 -0.03128,0.39656l-0.54345,3.79972l-0.03496,-0.005c-0.00272,0.08211 -0.00663,0.16427 -0.01181,0.24649c-0.03175,0.50442 -0.10911,1.02013 -0.2237,1.54367l0.66073,-0.9923c0.44501,-0.68995 1.22038,-1.14676 2.10244,-1.14676c1.34588,0 2.44335,1.06352 2.49788,2.396l0.20632,4.36094l-0.05211,0.00247c0.01289,0.17815 0.01952,0.35716 0.01913,0.53711c-0.00028,0.12917 -1.52609,3.91144 -2.67403,6.73916c1.28778,-1.68207 2.61405,-3.33626 4.01014,-4.94039l1.77099,-3.84085c0.38478,-0.88528 1.26703,-1.50437 2.29388,-1.50437c1.38071,0 2.5,1.11929 2.5,2.5c0,0.19962 -0.0234,0.39378 -0.0676,0.57988l-1.02361,4.73964l-0.4295,-0.09276c-0.04731,0.83567 -0.1223,1.65571 -0.22709,2.48048c1.32664,-1.49417 2.67808,-2.93502 3.70601,-4.26137l0.02669,-0.01579l-0.00847,-0.00689l1.84921,-2.27496c0.45812,-0.57287 1.16298,-0.93983 1.95354,-0.93983c1.38071,0 2.5,1.11929 2.5,2.5c0,0.26557 -0.04141,0.52146 -0.11812,0.76158l-0.15286,0.5193c3.63167,-4.92351 9.0292,-9.07498 10.41266,0.76201c0.02305,0.16387 -0.15845,0.73421 -0.4574,1.52857c1.19724,0.18576 2.1136,1.22102 2.1136,2.47032c0,0.16582 -0.01614,0.32787 -0.04695,0.48467l-0.35505,2.0013c2.63543,-2.85201 6.36843,-4.25444 8.18882,1.68471c0.09143,0.29829 0.12246,0.72603 0.10881,1.24069c0.30311,-0.13057 0.63721,-0.20291 0.98821,-0.20291c0.86087,0 1.62011,0.43512 2.06979,1.09744c0.44968,-0.66231 1.20892,-1.09744 2.06979,-1.09744c0.99645,0 1.85675,0.58298 2.25841,1.42646c0.16518,-0.54328 0.346,-1.09144 0.71878,-1.39033c0.6443,-0.51659 1.71086,-0.07149 2.4316,-0.47465c0.90889,-0.50841 0.31113,-2.06199 0.37893,-3.1012l-0.00852,-0.41877c0,0 0,-2.5 2.5,-2.5zM217.50247,212.04965c0.09085,-0.19212 0.17964,-0.3852 0.2655,-0.57964c0.17861,-0.40447 0.59011,-1.66393 0.40024,-1.26462c-0.27923,0.58723 -0.44004,1.23293 -0.66574,1.84426z" fill="#e6e6e6" stroke="none" stroke-width="0.5" stroke-linecap="butt"></path><path d="M159.72264,214.11699c0.09994,-0.26563 0.21092,-0.52589 0.33943,-0.77776c-0.02273,0.02217 -0.04551,0.04424 -0.06833,0.06622l-2.84929,4.06618c-0.44998,0.66034 -1.20806,1.09392 -2.06741,1.09392c-1.38071,0 -2.5,-1.11929 -2.5,-2.5c0,-0.50708 0.15097,-0.9789 0.41042,-1.37297l2.54461,-4.00203c1.45865,-4.26804 2.94103,-8.52774 4.41939,-12.789c0,0 0.81941,-2.3619 3.18131,-1.54249c1.08266,0.37561 1.49687,1.07532 1.62796,1.72308l0.54826,-0.68981c0.45752,-0.58616 1.17069,-0.96305 1.97189,-0.96305c1.38071,0 2.5,1.11929 2.5,2.5c0,0.16397 -0.01579,0.32425 -0.04592,0.47941l-0.8551,4.8772l-0.02764,-0.00485c-0.00574,0.07237 -0.01212,0.14474 -0.01916,0.21709c-0.0017,0.01745 -0.41629,1.16936 -0.95837,2.67005l1.54334,-3.29744c0.38783,-0.87812 1.26635,-1.49096 2.28801,-1.49096c1.38071,0 2.5,1.11929 2.5,2.5c0,0.11541 -0.00782,0.229 -0.02296,0.34026l-0.48788,4.01128l-0.04621,-0.00562c-0.00182,0.10519 -0.00565,0.21051 -0.01161,0.31595c-0.10007,1.76886 -1.28129,3.30361 -1.92194,4.95542l-1.25795,3.2077c-0.35019,0.95785 -1.26961,1.64155 -2.34872,1.64155c-0.54942,0 -1.05744,-0.17723 -1.47002,-0.47764c-2.02485,3.2187 -4.00709,6.46307 -5.9995,9.70248l-0.02017,0.01802l0.00617,0.00397l-2.68526,4.16876c-0.44123,0.70897 -1.22753,1.18088 -2.12406,1.18088c-0.28279,0 -0.55461,-0.04695 -0.80809,-0.13349c-0.37904,0.23148 -0.82452,0.36487 -1.30116,0.36487c-1.38071,0 -2.5,-1.11929 -2.5,-2.5c0,-0.42089 0.10401,-0.81749 0.28773,-1.16549l2.21879,-4.42467l0.00184,0.00092l0.00046,-0.00092c0.23841,-1.64953 1.49541,-2.97907 2.24312,-4.4686c1.25467,-2.49948 2.50934,-4.99896 3.76402,-7.49843z" fill="#989898" stroke="none" stroke-width="0.5" stroke-linecap="butt"></path><path d="M150.47244,217.55535c-0.14712,0.72969 -0.65909,1.99931 -2.44067,1.99931c-2.5,0 -2.5,-2.5 -2.5,-2.5l0.26253,-1.32354c0.24749,-0.49655 0.49699,-0.99209 0.74799,-1.48686c-0.11775,-0.2901 -0.18261,-0.60731 -0.18261,-0.93968c0,-0.34044 0.06805,-0.66499 0.19128,-0.96078l1.23865,-3.17928c-0.08565,-0.25232 -0.1321,-0.52274 -0.1321,-0.80401c0,-0.42044 0.10379,-0.81665 0.28714,-1.16439l2.21646,-4.42578l0.00785,0.00393c0.00428,-0.01483 0.00859,-0.02966 0.01292,-0.04448c0.28098,-0.96176 0.81003,-1.82077 1.3568,-2.67244c0.33882,-0.72789 0.61658,-1.31832 0.77295,-1.6579l2.06872,-4.48997c0.38462,-0.88564 1.26706,-1.50504 2.29417,-1.50504c0.80082,0 1.5137,0.37654 1.97125,0.96223c0.58319,-0.35305 1.41358,-0.53488 2.44951,0.07327c2.15594,1.26567 0.89027,3.42161 0.89027,3.42161c-1.26871,2.15859 -2.60709,4.22651 -3.99503,6.26428c-0.4894,1.06717 -1.20487,2.07696 -1.7173,3.12814c-1.85206,3.79928 -3.9022,7.51946 -5.80079,11.30138z" fill="#af5400" stroke="none" stroke-width="0.5" stroke-linecap="butt"></path><path d="M154.23989,202.04803l-2.03932,4.48062c-0.55082,1.36335 -2.69446,7.05848 -3.81106,8.45581l-2.24548,4.40743c-0.40442,0.83611 -1.26079,1.4128 -2.25186,1.4128c-1.38071,0 -2.5,-1.11929 -2.5,-2.5c0,-0.36866 0.0798,-0.71869 0.22306,-1.03374l1.43843,-3.36411c0.30313,-0.79865 0.59987,-1.69503 0.90725,-2.64297c-0.27833,0.10698 -0.58065,0.16561 -0.89665,0.16561c-0.97534,0 -1.82023,-0.55853 -2.23227,-1.3732l-0.00834,0.01259c-0.44443,0.69302 -1.22157,1.15226 -2.10598,1.15226c-0.9338,0 -1.74802,-0.51196 -2.17728,-1.27052c-0.55664,0.95258 -1.13809,1.84004 -1.75596,2.61043l-2.32055,4.37016c-0.412,0.81479 -1.25695,1.37342 -2.23238,1.37342c-1.38071,0 -2.5,-1.11929 -2.5,-2.5c0,-0.35503 0.07401,-0.69277 0.20743,-0.99865l0.98328,-2.40365c1.85894,-4.54326 3.83584,-9.01728 5.87729,-13.48181c0.62038,-1.35674 1.57466,-2.59929 1.88783,-4.0579c0.31317,-1.4586 -0.03714,-2.98346 -0.05571,-4.47519c0,0 0,-2.5 2.5,-2.5c2.5,0 2.5,2.5 2.5,2.5c-0.01389,1.37713 0.17804,2.77715 0.11407,4.1487c0.9052,0.37595 1.54178,1.26853 1.54178,2.30978c0,0.08912 -0.00466,0.17715 -0.01376,0.26387l1.13468,-1.91494c0.42999,-0.75586 1.24272,-1.26562 2.17451,-1.26562c1.25677,0 2.29695,0.92736 2.47356,2.13512l0.22781,-0.37671c0.43295,-0.74457 1.23938,-1.24514 2.16273,-1.24514c1.38071,0 2.5,1.11929 2.5,2.5c0,0.07323 -0.00315,0.14572 -0.00932,0.21735l-0.15879,2.08112c1.22417,1.12973 0.46099,2.80705 0.46099,2.80705z" fill="#d8d8d8" stroke="none" stroke-width="0.5" stroke-linecap="butt"></path></g></g></svg>