<svg version="1.1" xmlns="http://www.w3.org/2000/svg" xmlns:xlink="http://www.w3.org/1999/xlink" width="303.72779" height="94.19852" viewBox="0,0,303.72779,94.19852"><defs><radialGradient cx="237.70244" cy="203.36672" r="4.2254" gradientUnits="userSpaceOnUse" id="color-1"><stop offset="0" stop-color="#fbc410"></stop><stop offset="1" stop-color="#fbc410" stop-opacity="0"></stop></radialGradient><radialGradient cx="274.18505" cy="206.2636" r="37.98" gradientUnits="userSpaceOnUse" id="color-2"><stop offset="0" stop-color="#fffbe2"></stop><stop offset="1" stop-color="#fffbe2" stop-opacity="0"></stop></radialGradient></defs><g transform="translate(-203.7385,-143.16295)"><g data-paper-data="{&quot;isPaintingLayer&quot;:true}" fill-rule="nonzero" stroke-linejoin="miter" stroke-miterlimit="10" stroke-dasharray="" stroke-dashoffset="0" style="mix-blend-mode: normal"><path d="M243.9885,222.91295c-21.81525,0 -39.5,-17.68475 -39.5,-39.5c0,-21.81525 17.68475,-39.5 39.5,-39.5c21.81525,0 39.5,17.68475 39.5,39.5c0,21.81525 -17.68475,39.5 -39.5,39.5z" data-paper-data="{&quot;index&quot;:null}" fill="#000000" stroke="#000000" stroke-width="1.5" stroke-linecap="butt"></path><g data-paper-data="{&quot;index&quot;:null}" stroke="none" stroke-width="0" stroke-linecap="butt"><path d="M263.71106,173.50345c7.45315,0 13.49512,5.141 13.49512,5.141c0,0 -6.04197,5.141 -13.49512,5.141c-7.45315,0 -13.49512,-5.141 -13.49512,-5.141c0,0 6.04197,-5.141 13.49512,-5.141z" fill="#ffffff"></path><path d="M264.35368,183.78545c-2.8393,0 -5.141,-2.30171 -5.141,-5.141c0,-2.8393 2.30171,-5.141 5.141,-5.141c2.8393,0 5.141,2.30171 5.141,5.141c0,2.8393 -2.30171,5.141 -5.141,5.141z" fill="#000000"></path></g><g data-paper-data="{&quot;index&quot;:null}" stroke="none" stroke-width="0" stroke-linecap="butt"><path d="M234.03426,173.6195c7.45315,0 13.49512,5.141 13.49512,5.141c0,0 -6.04197,5.141 -13.49512,5.141c-7.45315,0 -13.49512,-5.141 -13.49512,-5.141c0,0 6.04197,-5.141 13.49512,-5.141z" fill="#ffffff"></path><path d="M234.67689,183.9015c-2.8393,0 -5.141,-2.30171 -5.141,-5.141c0,-2.83929 2.30171,-5.141 5.141,-5.141c2.8393,0 5.141,2.30171 5.141,5.141c0,2.8393 -2.30171,5.141 -5.141,5.141z" fill="#000000"></path></g><g><path d="M233.22766,203.36794c-0.00603,-1.41047 2.00248,-2.56247 4.48613,-2.57307c2.48365,-0.01058 4.50194,1.12421 4.50795,2.53469c0.00603,1.41047 -2.00248,2.56247 -4.48616,2.57307c-2.48365,0.01058 -4.50194,-1.12421 -4.50795,-2.53469z" fill="#fbc410" stroke="none" stroke-width="0" stroke-linecap="butt"></path><path d="M233.20539,203.38592c-0.00603,-1.41047 2.00248,-2.56247 4.48613,-2.57307c2.48365,-0.01058 4.50194,1.12421 4.50795,2.53469c0.00603,1.41047 -2.00248,2.56247 -4.48613,2.57307c-2.48365,0.01058 -4.50194,-1.12421 -4.50795,-2.53469z" fill="none" stroke="url(#color-1)" stroke-width="2.5" stroke-linecap="butt"></path><path d="M296.86992,212.88052c0,0 0.2412,-0.45863 0.89812,-0.58353c1.02139,-0.19423 2.70019,-0.11045 3.35869,-0.31997c1.08204,-0.34427 -0.59916,-0.16782 -0.15909,0.50157c0.44007,0.66939 3.2782,0.42248 2.19621,0.76676c-0.46532,0.14805 -1.73233,0.95888 -2.98226,0.85746c-1.6565,-0.1344 -3.31165,-1.22231 -3.31165,-1.22231z" fill="#43282c" stroke="none" stroke-width="0" stroke-linecap="butt"></path><path d="M296.94115,211.73049c0,0 -0.57202,-0.2867 0.7042,-0.59769c3.38917,-0.8259 3.8235,-0.16651 4.39044,-0.34691c1.33965,-0.42624 -0.58638,-0.43439 -0.09555,0.31225c0.49085,0.74662 2.16166,1.51055 0.82202,1.93681c-0.47789,0.15205 -1.76209,0.44084 -2.69354,0.22039c-1.67966,-0.39749 -3.12757,-1.52484 -3.12757,-1.52484z" fill="#885058" stroke="none" stroke-width="0" stroke-linecap="butt"></path><path d="M297.2136,202.87857c0,0 -0.01271,-0.24964 2.28773,-0.98159c1.30528,-0.41533 4.063,0.34605 4.4438,0.92534c0.38083,0.57929 0.28942,0.55616 -1.01588,0.97146c-0.54468,0.1733 -1.28749,-0.12274 -2.36745,-0.3339c-1.5081,-0.29487 -3.34822,-0.58133 -3.34822,-0.58133z" fill="#43282c" stroke="none" stroke-width="0" stroke-linecap="butt"></path><path d="M300.93473,205.79341c-0.11923,-0.18137 -1.2779,-0.21867 -2.20289,-0.49863c-0.99967,-0.30254 -1.76321,-0.84839 -1.67473,-1.04528c0.21566,-0.47986 2.93527,-0.76132 3.67413,-0.99641c1.32249,-0.42079 2.50685,0.20972 3.06903,1.06489c0.5622,0.85517 1.90548,1.20964 0.583,1.63043c-1.32249,0.42079 -2.88636,0.70018 -3.44853,-0.15499z" fill="#885058" stroke="none" stroke-width="0" stroke-linecap="butt"></path><path d="M303.0869,207.35119c-1.35402,-2.05968 -5.04034,-4.37124 -1.88014,-5.37676c3.1602,-1.00551 15.70004,2.60389 17.05407,4.66357c1.35402,2.05968 -4.63772,0.51739 -7.79791,1.5229c-3.1602,1.00551 -6.02199,1.24997 -7.37601,-0.80969z" fill="#959ba2" stroke="none" stroke-width="0" stroke-linecap="butt"></path><path d="M300.75538,212.30155c-0.03134,-0.39271 0.1049,-0.97104 0.55943,-1.3092c0.7756,-0.57704 2.24365,-0.81127 3.68983,-0.81335c2.29369,-0.00326 4.22185,0.85569 4.30663,1.91853c0.08478,1.06284 -1.70589,1.92709 -3.99958,1.93035c-2.29369,0.00326 -4.47153,-0.66352 -4.55634,-1.72635z" fill="#959ba2" stroke="none" stroke-width="0" stroke-linecap="butt"></path><path d="M313.45354,214.31167l5.7545,-2.00007" fill="none" stroke="#171c22" stroke-width="1" stroke-linecap="round"></path><path d="M319.39012,212.81733c0,0 -5.33736,2.40132 -7.77791,2.77173c-2.41433,0.36644 -7.97024,-0.07203 -7.97024,-0.07203" fill="none" stroke="#2e3844" stroke-width="1" stroke-linecap="round"></path><path d="M319.19548,210.00448c0.74472,1.1328 -2.07576,3.19704 -5.4936,4.28453c-2.56613,0.81649 -6.39273,0.86268 -8.56498,-0.16998c-0.72097,-0.34272 -1.19871,-1.52594 -1.46874,-1.87968c-0.55331,-0.72485 4.66004,-1.48273 7.05923,-2.24613c3.4178,-1.08749 7.72334,-1.12153 8.46806,0.01128z" fill="#171c22" stroke="none" stroke-width="0" stroke-linecap="butt"></path><path d="M305.464,201.01439c0,0 3.51099,0.18661 5.65456,0.86686c2.28249,0.72431 7.64976,3.35515 7.64976,3.35515" fill="none" stroke="#2e3844" stroke-width="1.5" stroke-linecap="round"></path><path d="M311.56451,205.18188c-2.69035,-0.80284 -7.93546,-1.3236 -6.91835,-2.42964c0.85083,-0.92522 4.17029,-0.82031 6.86063,-0.01747c2.69035,0.80284 8.98937,2.98704 7.18241,4.31851c-0.70707,0.521 -4.43437,-1.06855 -7.1247,-1.87141z" fill="#171c22" stroke="none" stroke-width="0" stroke-linecap="butt"></path><path d="M318.96231,207.80831l0.04436,2.9024c0,0 -2.39702,0.76853 -5.39413,0.5944c-4.96002,-0.2882 -18.56225,-1.21566 -34.80237,-2.36339c-3.16459,-0.22365 -6.86594,-0.46666 -10.27078,-0.69499c-4.41709,-0.29624 -8.52937,-0.57663 -12.32734,-0.84913c-11.37098,-0.81582 -19.1733,-1.44952 -19.1733,-1.44952l0.59686,-4.86324c0,0 6.79074,0.64845 15.81034,1.39563c5.3771,0.44543 11.74662,1.0955 17.16813,1.50341c2.36973,0.1783 4.46743,0.17205 6.37457,0.31434c5.74719,0.42883 13.17736,1.38409 20.8363,1.86953c5.97731,0.37884 12.40664,0.29126 16.23669,0.62442c3.12614,0.27194 4.90067,1.01612 4.90067,1.01612z" fill="#6d6d48" stroke="#000e25" stroke-width="1.2" stroke-linecap="butt"></path><path d="M240.76028,204.55095l84.18038,6.01108" fill="none" stroke="url(#color-2)" stroke-width="1.5" stroke-linecap="round"></path><path d="M496.66848,211.6106l1.55959,0.7645l-2.37592,0.30147l2.59081,0.89005c0,0 -7.97143,1.15041 -9.77107,1.41973c-0.8389,0.12553 -0.56424,0.12696 -0.56424,0.12696l14.833,3.19543c0,0 -8.76102,0.46396 -11.23364,0.73644c-1.8462,0.20347 -2.27982,0.7528 -2.27982,0.7528l1.6495,0.7181l-0.91473,0.3651l1.98128,1.33151l-1.27114,0.2549l7.70709,3.28691l-6.23371,0.53248l0.55311,1.16373l-1.77796,0.47915l5.29588,1.00178l-2.37661,0.50967l6.17873,2.02873l-11.71025,0.8963l2.39225,1.77955l-17.00828,-1.4623l6.71218,3.10869l-23.41271,-4.65472l1.86174,1.96169c0,0 -2.49838,0.55786 -4.97791,0.15808c-1.33555,-0.21532 -3.20666,-1.59878 -5.86794,-2.11858c-0.71013,-0.1387 -2.23362,0.17298 -4.16483,-0.12396c-2.00267,-0.30794 -6.31542,-2.04008 -8.64128,-2.46576c-1.11785,-0.20458 -2.6152,-0.06472 -3.46309,-0.13983c-2.62152,-0.23222 -3.43377,-0.2353 -3.43377,-0.2353l1.34014,1.84158c0,0 -4.50862,-0.1844 -7.40988,-0.66139c-1.11993,-0.18413 -7.33156,-1.79851 -11.34066,-2.62191c-2.24286,-0.46063 -3.50575,-0.3757 -3.50575,-0.3757l4.9154,2.01311c0,0 -3.66749,-0.11331 -5.71731,-0.48331c-2.04979,-0.37002 -6.31314,-1.62714 -8.96141,-2.32578c-2.32106,-0.61232 -2.7754,-0.34147 -2.7754,-0.34147c0,0 0.01343,0.04989 0.76986,0.41408c0.48541,0.2337 1.51486,0.72781 1.51486,0.72781c0,0 -1.26698,0.12445 -2.87036,-0.04275c-3.52141,-0.36725 -9.10775,-1.21035 -9.58384,-1.29186c-1.31749,-0.2255 -0.06201,1.21256 -0.06201,1.21256l-12.268,-2.24724l-0.39229,0.59233l-10.93807,-1.84891l0.66195,1.74614l-40.05309,-6.66709l1.08657,-14.43511c0,0 11.7929,-2.73042 20.64163,-2.31121c0.55537,0.02632 6.14563,0.27803 6.14563,0.27803l-1.10913,0.88227l25.49273,0.43471l-3.66606,1.30063c0,0 5.33048,0.82593 9.24145,0.47649c1.27831,-0.11421 3.74191,-1.15058 6.09882,-1.63528c3.12946,-0.64362 6.09601,-0.75637 6.09601,-0.75637c0,0 -6.07623,2.78212 -5.2011,2.82565c5.80175,0.28864 11.66661,0.52872 14.7658,0.50618c5.30517,-0.03861 9.58539,-1.71201 9.58539,-1.71201c0,0 -3.39068,2.29577 -2.89027,2.30731c6.22752,0.14385 17.7763,-0.73057 17.7763,-0.73057l-1.88975,1.37153l9.07223,-0.14601l-2.18537,0.94349l18.82189,-1.37854l-2.03114,2.14714c0,0 0.77969,0.14217 0.82029,0.14428c1.97066,0.1018 12.48107,-1.78516 12.48107,-1.78516l-2.01822,1.99505c0,0 7.55222,-0.50375 10.62688,-0.57939c2.87535,-0.07072 7.26324,0.13939 7.26324,0.13939c0,0 -4.10246,1.56278 -2.94675,1.62889c4.63099,0.26476 7.42674,0.41859 9.89261,0.56795c6.38254,0.3866 12.86892,1.31723 12.86892,1.31723z" fill="#171c22" stroke="#001026" stroke-width="1.2" stroke-linecap="butt"></path><path d="M341.0527,209.70652c-2.15675,-0.77269 -2.64945,-4.56952 -1.89357,-5.80604c0.7559,-1.23654 3.74009,-1.29409 5.89684,-0.52139c2.15675,0.77269 3.63608,2.08542 2.88016,3.32194c-0.7559,1.23654 -4.7267,3.77816 -6.88347,3.00548z" fill="#ffea00" stroke="none" stroke-width="0" stroke-linecap="butt"></path><path d="M389.47354,220.45331c-1.53597,-2.33644 0.53486,-4.20049 5.16348,-5.67324c4.62867,-1.47275 9.87889,-0.388 11.41486,1.94842c1.53597,2.33644 -0.79512,4.74833 -5.42378,6.2211c-4.62867,1.47275 -9.61859,-0.15985 -11.15456,-2.49629z" fill="#ffea00" stroke="#001026" stroke-width="1.2" stroke-linecap="butt"></path><path d="M328.94146,214.85691c-1.78422,-2.71404 -0.13318,-4.34962 4.05463,-5.68211c4.18782,-1.3325 8.80435,-0.55438 10.58857,2.15966c1.78422,2.71404 2.51612,5.03819 -1.6717,6.37067c-4.18782,1.3325 -11.18731,-0.13419 -12.97152,-2.84823z" fill="#ffea00" stroke="none" stroke-width="0" stroke-linecap="butt"></path><path d="M331.22969,214.35273c-1.17913,-1.79361 8.84962,-4.29567 10.02874,-2.50203c1.17913,1.79361 1.23784,3.67092 -1.74298,4.61933c-1.75776,0.55929 -3.92046,0.15377 -5.55063,-0.27398c-1.13425,-0.29762 -2.25135,-1.1074 -2.73515,-1.84333z" fill="none" stroke="#000e25" stroke-width="1.2" stroke-linecap="butt"></path><path d="M392.26013,220.03225c-0.53277,-0.81042 -0.59209,-1.57714 0.02147,-2.42373c0.63712,-0.87916 2.15494,-1.57568 3.7109,-2.07075c3.05427,-0.97182 6.51807,0.37217 7.6041,2.02419c1.08604,1.65202 -0.61694,2.98651 -3.6712,3.95831c-3.05427,0.97182 -6.57921,0.164 -7.66527,-1.48801z" fill="none" stroke="#000e25" stroke-width="1.2" stroke-linecap="butt"></path><path d="M394.07982,219.53445c-0.28775,-0.4377 -0.26785,-0.74543 -0.12106,-1.1305c0.25685,-0.67378 1.05131,-1.35781 2.33365,-1.76581c2.01521,-0.64121 4.69645,0.08946 5.34712,1.33245c0.6928,1.32351 -0.293,2.01981 -2.30819,2.66099c-2.01521,0.64121 -4.46023,0.1065 -5.25151,-1.09713z" fill="none" stroke="#000e25" stroke-width="0.7" stroke-linecap="butt"></path><path d="M396.99277,218.96192c-0.13209,-0.20092 0.08816,-0.44944 0.43471,-0.62276c0.0896,-0.04481 0.18762,-0.08458 0.29018,-0.11724c0.49931,-0.15886 1.03882,-0.08266 1.20505,0.17018c0.16625,0.25287 -0.10378,0.58663 -0.60309,0.74548c-0.49931,0.15886 -1.16063,0.07715 -1.32684,-0.17572z" fill="#000e25" stroke="#000e25" stroke-width="0.5" stroke-linecap="butt"></path><path d="M320.97437,202.40722c0.02222,0.1924 -0.55367,14.74257 -0.56188,14.79123c-0.09624,0.56978 -1.31632,0.36725 -1.31632,0.36725c0,0 -0.85559,-0.13036 -0.88984,-0.40936c-0.005,-0.0408 0.42887,-14.06643 0.50271,-14.50373c0.13868,-0.8209 0.82611,-0.70612 1.17907,-0.76445c0.65015,-0.10741 1.05514,0.25006 1.08625,0.51904z" fill="#6d6d48" stroke="#000e25" stroke-width="1.2" stroke-linecap="butt"></path><path d="M343.77656,198.9875l0.89549,-0.01598l0.81102,0.63434l-1.08062,0.37007l-0.85139,-0.05249l-1.23712,0.45456l-0.38919,-0.77179z" fill="#aeb5b1" stroke="#000e25" stroke-width="0" stroke-linecap="butt"></path><path d="M341.68853,198.66767l0.27242,0.47431c0,0 -0.68312,0.28087 -0.99552,0.47442c-0.10606,0.06572 -0.19934,0.18981 -0.33228,0.29902c-0.20408,0.16763 -0.43571,0.31914 -0.43571,0.31914l-0.65911,-0.88275z" fill="#aeb5b1" stroke="none" stroke-width="0" stroke-linecap="butt"></path><path d="M336.51987,199.91365c-0.27041,-0.41132 0.93992,-1.25868 1.67405,-1.07889c0.51195,0.12537 -0.30041,0.29207 -0.03001,0.70339c0.27041,0.41132 0.18572,0.69384 -0.29109,0.84554c-0.4768,0.1517 -1.08254,-0.05873 -1.35293,-0.47005z" fill="#aeb5b1" stroke="none" stroke-width="0" stroke-linecap="butt"></path><path d="M329.67409,200.58601c-0.21721,-0.3304 -0.05052,-0.70729 0.37232,-0.84184c0.42287,-0.13453 0.94167,0.02423 1.1589,0.35465c0.21721,0.3304 0.05054,0.70733 -0.37232,0.84185c-0.42287,0.13453 -0.94167,-0.02424 -1.1589,-0.35465z" fill="#aeb5b1" stroke="none" stroke-width="0" stroke-linecap="butt"></path><path d="M322.96051,201.99878c0,0 0.01059,-0.21006 0.60435,-0.39899c0.59377,-0.18894 1.21501,-0.06932 1.4278,0.25434c0.21277,0.32366 -0.1282,0.69035 -0.72195,0.87927c-0.59377,0.18894 -1.3102,-0.73461 -1.3102,-0.73461z" fill="#aeb5b1" stroke="none" stroke-width="0" stroke-linecap="butt"></path><path d="M327.61349,205.30151c0.46102,0.70127 0.5877,1.17119 0.20087,1.29426c-0.2139,0.06806 -0.63724,0.4355 -0.94581,0.20243c-0.24952,-0.18846 -0.38327,-0.93578 -0.58936,-1.24933c-0.46102,-0.70127 0.01618,-1.51097 0.40303,-1.63405c0.38685,-0.12308 0.47028,0.68541 0.93129,1.38666z" fill="#aeb5b1" stroke="none" stroke-width="0" stroke-linecap="butt"></path><path d="M322.95802,206.36941c-0.3901,-0.59337 0.11789,-1.18903 0.43277,-1.2892c0.31486,-0.10019 0.31743,0.33301 0.70751,0.9264c0.3901,0.59337 0.45107,1.15563 0.13619,1.25582c-0.31486,0.10019 -0.88636,-0.29964 -1.27646,-0.893z" fill="#aeb5b1" stroke="none" stroke-width="0" stroke-linecap="butt"></path><path d="M333.92573,205.31561c-0.44773,-0.68103 0.21527,-1.64816 0.65611,-1.78841c0.44083,-0.14027 0.49254,0.59943 0.94028,1.28047c0.44773,0.68103 0.4533,1.34682 0.01247,1.4871c-0.44083,0.14027 -1.16111,-0.2981 -1.60882,-0.97916z" fill="#aeb5b1" stroke="none" stroke-width="0" stroke-linecap="butt"></path><path d="M330.37229,205.72286c-0.38122,-0.5799 0.23601,-1.25614 0.59589,-1.37065c0.35986,-0.11449 0.32603,0.37612 0.70726,0.956c0.38122,0.5799 0.39854,1.14281 0.0387,1.25731c-0.35986,0.11449 -0.96061,-0.26278 -1.34184,-0.84268z" fill="#aeb5b1" stroke="none" stroke-width="0" stroke-linecap="butt"></path><path d="M338.49851,205.44027c-0.24823,-0.37759 0.34895,-0.79015 0.59186,-0.86743c0.2429,-0.07728 0.03951,0.20994 0.28774,0.58755c0.24823,0.37759 0.25257,0.74638 0.00968,0.82366c-0.2429,0.07728 -0.64105,-0.16617 -0.8893,-0.54379z" fill="#aeb5b1" stroke="none" stroke-width="0" stroke-linecap="butt"></path><path d="M342.67285,207.22802c-0.27076,-0.01426 -0.48211,-0.39899 -0.47209,-0.85928c0.01002,-0.46029 0.98552,-0.8827 1.2563,-0.86841c0.27074,0.01426 -0.26579,0.4598 -0.27582,0.9201c-0.01002,0.46029 -0.23763,0.82187 -0.50839,0.80762z" fill="#aeb5b1" stroke="none" stroke-width="0" stroke-linecap="butt"></path><path d="M346.14726,208.5402c-0.3731,0.23979 -0.82573,0.31123 -1.01095,0.15956c-0.18522,-0.15167 -0.03292,-0.469 0.3402,-0.70882c0.3731,-0.23979 0.82574,-0.31122 1.01096,-0.15955c0.18522,0.15167 0.03292,0.46901 -0.34021,0.70881z" fill="#aeb5b1" stroke="none" stroke-width="0" stroke-linecap="butt"></path><path d="M340.81161,221.19438c-0.02379,0.23467 -0.99943,0.60958 -1.3177,0.71086c-0.47232,0.1503 -1.03845,-0.00666 -1.26453,-0.35056c-0.22606,-0.34388 -0.02646,-0.74448 0.44586,-0.89477c0.47232,-0.1503 1.03845,0.00666 1.26453,0.35056c0.07375,0.11216 0.88337,0.07036 0.87184,0.18391z" fill="#aeb5b1" stroke="none" stroke-width="0" stroke-linecap="butt"></path><path d="M335.29661,221.04843c-0.23274,-0.35401 -0.04942,-0.75932 0.40937,-0.90531c0.45882,-0.14598 1.01945,0.02264 1.25214,0.37665c0.23274,0.35401 0.04941,0.75933 -0.40939,0.90532c-0.45882,0.14598 -1.01944,-0.02265 -1.25213,-0.37665z" fill="#aeb5b1" stroke="none" stroke-width="0" stroke-linecap="butt"></path><path d="M341.06582,221.91441c-0.17953,-0.27308 0.02499,-0.60586 0.45683,-0.74328c0.43183,-0.13741 0.92743,-0.02738 1.10695,0.2457c0.17953,0.27308 -0.02499,0.60585 -0.45683,0.74327c-0.43183,0.13741 -0.92743,0.02739 -1.10694,-0.24567z" fill="#aeb5b1" stroke="none" stroke-width="0" stroke-linecap="butt"></path><path d="M342.67207,222.20052c-0.19282,-0.29333 -0.06469,-0.62159 0.28615,-0.73323c0.35085,-0.11163 0.7916,0.03565 0.98442,0.32896c0.19282,0.29333 0.06472,0.62162 -0.28613,0.73323c-0.35085,0.11163 -0.7916,-0.03565 -0.98446,-0.32896z" fill="#aeb5b1" stroke="none" stroke-width="0" stroke-linecap="butt"></path><path d="M332.45095,220.31516c-0.19282,-0.29333 -0.05378,-0.62507 0.31057,-0.74101c0.36435,-0.11594 0.81605,0.02787 1.00888,0.3212c0.19282,0.29333 0.05378,0.62506 -0.31059,0.741c-0.36435,0.11594 -0.81602,-0.02787 -1.00886,-0.32118z" fill="#aeb5b1" stroke="none" stroke-width="0" stroke-linecap="butt"></path><path d="M328.66331,220.03664c-0.14147,-0.2152 -0.27892,-0.45102 -0.18967,-0.64821c0.08688,-0.19206 0.39506,-0.34721 0.6614,-0.43195c0.53979,-0.17175 1.20378,0.03339 1.48304,0.4582c0.27927,0.4248 0.06806,0.90839 -0.47171,1.08016c-0.53979,0.17175 -1.20376,-0.03338 -1.48302,-0.4582z" fill="#aeb5b1" stroke="none" stroke-width="0" stroke-linecap="butt"></path><path d="M325.57548,219.1147c-0.16755,-0.25484 -0.55227,-0.6655 -0.3342,-0.86756c0.09348,-0.08663 0.65501,-0.03171 0.80485,-0.07937c0.49931,-0.15886 1.09811,0.00751 1.33747,0.37164c0.23937,0.36412 0.02866,0.7881 -0.47065,0.94696c-0.49931,0.15886 -1.0981,-0.00752 -1.3375,-0.37166z" fill="#aeb5b1" stroke="none" stroke-width="0" stroke-linecap="butt"></path><path d="M322.18519,217.91255c-0.10159,-0.15452 -0.58985,-0.48141 -0.55176,-0.63136c0.05414,-0.21324 0.70069,-0.23539 0.98591,-0.32615c0.4858,-0.15457 1.07906,0.0235 1.32506,0.39772c0.24602,0.37425 0.05165,0.80291 -0.43416,0.95749c-0.4858,0.15457 -1.07907,-0.0235 -1.32508,-0.39775z" fill="#aeb5b1" stroke="none" stroke-width="0" stroke-linecap="butt"></path><path d="M322.68461,213.36901c-0.16625,-0.25287 -0.02751,-0.54486 0.30985,-0.6522c0.33737,-0.10734 0.74561,0.01061 0.91182,0.26349c0.16625,0.25287 0.02751,0.54489 -0.30988,0.65221c-0.15497,0.04931 -0.924,1.57457 -1.22247,1.49054c-0.6178,-0.17393 0.40046,-1.61734 0.31062,-1.75403z" fill="#aeb5b1" stroke="none" stroke-width="0" stroke-linecap="butt"></path><path d="M326.23213,214.72045c-0.17953,-0.27308 0.00313,-0.5989 0.40797,-0.7277c0.40484,-0.1288 0.87854,-0.01184 1.05808,0.26123c0.17953,0.27308 -0.00312,0.5989 -0.40796,0.72771c-0.0798,0.02539 -0.49363,0.28113 -0.7154,0.56009c-0.23109,0.29067 -0.27034,0.60428 -0.3528,0.59309c-0.13209,-0.01795 -0.2056,-0.31244 -0.15282,-0.67549c0.04304,-0.29609 0.2111,-0.66563 0.16294,-0.73893z" fill="#aeb5b1" stroke="none" stroke-width="0" stroke-linecap="butt"></path><path d="M330.39951,214.8471c0.28513,-0.00286 0.54617,0.30656 0.583,0.69111c0.03684,0.38454 -0.16441,0.6986 -0.44954,0.70146c-0.28513,0.00286 -0.54614,-0.30657 -0.58299,-0.6911c-0.03684,-0.38454 0.16441,-0.69861 0.44953,-0.70146z" fill="#aeb5b1" stroke="none" stroke-width="0" stroke-linecap="butt"></path><path d="M333.30164,216.03633c-0.19946,-0.30344 -0.00018,-0.66427 0.44514,-0.80598c0.44532,-0.1417 0.96805,-0.01059 1.16751,0.29286c0.19946,0.30344 0.00019,0.66428 -0.44513,0.80598c-0.21359,0.06797 0.64282,1.18859 0.43783,1.1421c-0.22239,-0.05041 -1.50151,-1.27706 -1.60532,-1.43497z" fill="#aeb5b1" stroke="none" stroke-width="0" stroke-linecap="butt"></path><path d="M341.89461,214.27656c-0.19946,-0.30344 -0.0658,-0.6434 0.29853,-0.75934c0.36435,-0.11594 0.82143,0.03607 1.0209,0.33951c0.19946,0.30344 0.52262,1.42812 0.15827,1.54405c-0.36435,0.11594 -1.27823,-0.82078 -1.4777,-1.12422z" fill="#aeb5b1" stroke="none" stroke-width="0" stroke-linecap="butt"></path><path d="M345.064,212.62593c-0.16625,-0.25287 -0.08219,-0.52745 0.1877,-0.61335c0.26989,-0.08587 0.62344,0.04949 0.78966,0.30237c0.09496,0.14446 0.78813,0.61115 0.73178,0.73054c-0.04231,0.0896 -0.80373,-0.15403 -0.91948,-0.1172c-0.26991,0.08588 -0.62345,-0.04948 -0.78967,-0.30236z" fill="#aeb5b1" stroke="none" stroke-width="0" stroke-linecap="butt"></path><path d="M337.94553,214.38157c0.40484,-0.1288 0.96912,-0.14379 1.16859,0.15964c0.19946,0.30344 0.22351,1.21327 -0.18135,1.34209c-0.13801,0.0439 1.07102,1.0419 0.58674,1.0473c-0.27654,0.00309 -1.54947,-1.16351 -1.68095,-1.36348c-0.19946,-0.30344 -0.29786,-1.05673 0.10696,-1.18555z" fill="#aeb5b1" stroke="none" stroke-width="0" stroke-linecap="butt"></path><path d="M353.45035,211.45062c-1.09744,-1.66937 -1.0424,-3.62088 1.16515,-5.0227c0.85088,-0.54034 2.31145,-0.91524 3.71907,-1.28506c6.57667,-1.72795 10.96854,0.43056 12.48899,2.74341c1.52046,2.31283 -1.16628,4.19471 -5.73195,5.64745c-4.56568,1.45273 -10.12079,0.22976 -11.64125,-2.08306z" fill="#ffea00" stroke="none" stroke-width="0" stroke-linecap="butt"></path><path d="M377.05022,211.48547c-1.3653,-2.07683 -0.88439,-3.43888 3.05154,-4.69122c3.93591,-1.25233 9.42491,-0.23966 10.7902,1.83715c1.3653,2.07683 0.08952,3.27843 -3.8464,4.53078c-3.93591,1.25233 -8.63003,0.40015 -9.99535,-1.6767z" fill="#ffea00" stroke="none" stroke-width="0" stroke-linecap="butt"></path><path d="M347.2003,217.88295c-1.06843,-1.62522 0.68173,-2.28373 3.89345,-3.30565c3.21171,-1.02192 6.93974,-0.34965 7.8396,1.01918c0.89986,1.36881 -0.96763,2.47806 -4.17936,3.49996c-3.21171,1.02192 -6.65387,0.15533 -7.55372,-1.21349z" fill="#ffea00" stroke="none" stroke-width="0" stroke-linecap="butt"></path><path d="M413.97115,222.4807c-2.23985,-2.32261 -3.37815,-4.29954 -2.04712,-4.95561c1.33106,-0.65609 4.85217,0.599 7.09203,2.92162c2.23985,2.32261 2.35523,4.21163 1.02419,4.8677c-1.33106,0.65609 -3.82926,-0.51109 -6.0691,-2.83372z" fill="#ffea00" stroke="none" stroke-width="0" stroke-linecap="butt"></path><path d="M436.10689,215.11977c-1.55149,-2.36004 -1.58398,-4.66308 -0.07259,-5.14397c1.51139,-0.4809 3.99434,1.04245 5.54583,3.40249c1.55149,2.36004 1.58398,4.66306 0.0726,5.14396c-1.51139,0.4809 -3.99434,-1.04243 -5.54584,-3.40248z" fill="#ffea00" stroke="none" stroke-width="0" stroke-linecap="butt"></path><path d="M471.32741,216.26251c-1.62905,-2.47805 -1.852,-4.21608 0.35211,-4.9174c2.20412,-0.7013 5.43051,0.08109 7.05959,2.55914c1.62905,2.47805 1.68179,4.16691 -0.52231,4.86823c-2.20412,0.7013 -5.26033,-0.03192 -6.88938,-2.50997z" fill="#ffea00" stroke="none" stroke-width="0" stroke-linecap="butt"></path><path d="M473.8091,222.39149c1.10161,0.87089 0.30734,3.07386 -1.98199,4.60421c-2.28932,1.53035 -5.03823,2.06496 -6.13982,1.19406c-1.10161,-0.87089 -0.47536,-2.95502 1.75394,-4.53165c2.06127,-1.45778 5.26624,-2.13752 6.36785,-1.26662z" fill="#ffea00" stroke="none" stroke-width="0" stroke-linecap="butt"></path><path d="M444.93121,224.41592c-0.54275,-1.42672 1.45886,-2.39892 4.19553,-2.84879c2.73666,-0.44986 6.13385,0.41704 6.67658,1.84373c0.54275,1.42672 -1.9728,2.66578 -4.70946,3.11565c-2.73666,0.44986 -5.61993,-0.6839 -6.16267,-2.1106z" fill="#ffea00" stroke="none" stroke-width="0" stroke-linecap="butt"></path><path d="M452.20727,219.47691c-3.60224,-1.97518 -5.70133,-5.22268 -3.77725,-7.16099c1.92408,-1.9383 7.1427,-1.83343 10.74495,0.14175c1.64391,0.90139 3.56602,1.91843 4.30613,3.04636c0.8817,1.34367 0.34857,2.8045 -0.69743,3.85823c-1.92408,1.9383 -6.97416,2.08982 -10.57637,0.11464z" fill="#ffea00" stroke="none" stroke-width="0" stroke-linecap="butt"></path><path d="M414.84166,211.99776c0.56195,-2.15583 4.08838,-2.56186 7.66266,-2.2617c3.57426,0.30014 6.34332,2.13329 6.18483,4.09442c-0.15848,1.96113 -3.52157,2.79487 -7.09585,2.49472c-3.57426,-0.30014 -7.31282,-2.17461 -6.75165,-4.32745z" fill="#ffea00" stroke="none" stroke-width="0" stroke-linecap="butt"></path><path d="M399.38911,212.01867c-2.30493,-1.02247 -3.73634,-2.48733 -2.70171,-3.81188c1.03462,-1.32454 3.74021,-1.3622 6.04516,-0.33972c2.30493,1.02247 3.73633,2.48731 2.7017,3.81187c-1.03462,1.32454 -3.74021,1.36221 -6.04516,0.33973z" fill="#ffea00" stroke="none" stroke-width="0" stroke-linecap="butt"></path><path d="M372.49432,220.20268c-2.36947,-1.54271 -4.12232,-3.47414 -2.86116,-4.52183c1.26116,-1.04769 4.43239,-0.71898 6.80187,0.82373c2.36947,1.54271 4.46603,3.15808 3.20488,4.2058c-1.26116,1.04769 -4.77612,1.03503 -7.1456,-0.50766z" fill="#ffea00" stroke="none" stroke-width="0" stroke-linecap="butt"></path><path d="M355.92312,210.38825c-1.12742,-1.71495 0.50457,-3.08855 3.65331,-4.09043c3.14874,-1.00187 6.91491,0.032 8.04232,1.74695c1.12742,1.71495 -0.99702,3.03857 -4.14576,4.04042c-3.14874,1.00187 -6.42243,0.01799 -7.54985,-1.69698z" fill="none" stroke="#000e25" stroke-width="1.2" stroke-linecap="butt"></path><path d="M379.02336,211.27101c-0.7654,-1.16431 -0.15625,-2.6544 2.42574,-3.47592c2.58197,-0.82153 6.22838,0.14124 6.9938,1.30552c0.7654,1.16431 -0.66423,2.14039 -3.24618,2.96192c-2.58197,0.82153 -5.40791,0.37274 -6.17334,-0.79154z" fill="none" stroke="#000e25" stroke-width="1.05" stroke-linecap="butt"></path><path d="M453.06756,217.44327c-2.41415,-1.27344 -4.24233,-2.85231 -2.81405,-4.35527c1.4283,-1.50297 5.03453,-1.5009 7.44866,-0.22748c2.41415,1.27344 4.3547,3.02324 2.9264,4.52621c-1.4283,1.50297 -5.1469,1.32998 -7.56102,0.05653z" fill="none" stroke="#000e25" stroke-width="1.2" stroke-linecap="butt"></path><path d="M472.13937,215.47022c-1.01363,-1.5419 -0.61012,-3.18167 0.90128,-3.66258c1.51139,-0.4809 3.55833,0.37921 4.57199,1.9211c1.01363,1.5419 0.61012,3.18167 -0.90128,3.66258c-1.51139,0.4809 -3.55833,-0.37921 -4.57199,-1.9211z" fill="none" stroke="#000e25" stroke-width="1" stroke-linecap="butt"></path><path d="M446.47854,224.25508c-0.57923,-0.88108 0.73591,-1.54314 2.70911,-2.17097c1.97322,-0.62783 4.22963,-0.13768 4.80885,0.74341c0.57923,0.88108 -0.86203,1.7967 -2.93718,2.24356c-2.00956,0.43272 -4.00157,0.06512 -4.58081,-0.81598z" fill="none" stroke="#000e25" stroke-width="0.5" stroke-linecap="butt"></path><path d="M447.90796,223.93807c-0.36201,-0.55068 0.4278,-1.03173 1.63291,-1.4152c1.20513,-0.38346 2.75312,-0.05437 3.11517,0.49631c0.36201,0.55068 -0.59906,1.11441 -1.80417,1.49788c-1.20513,0.38346 -2.58189,-0.0283 -2.9439,-0.57899z" fill="none" stroke="#000e25" stroke-width="0.5" stroke-linecap="butt"></path><path d="M449.7835,223.74997c-0.05077,-0.07726 0.16565,-0.22181 0.48339,-0.3229c0.31775,-0.1011 0.61648,-0.12046 0.66725,-0.0432c0.05077,0.07726 -0.16564,0.22181 -0.48338,0.3229c-0.31775,0.1011 -0.61649,0.12046 -0.66726,0.0432z" fill="#000e25" stroke="#000e25" stroke-width="0.5" stroke-linecap="butt"></path><path d="M474.2955,214.67614c-0.12411,-0.1888 -0.05455,-0.39599 0.15535,-0.46279c0.20992,-0.06679 0.4807,0.03211 0.60481,0.22092c0.12411,0.1888 0.05457,0.396 -0.15535,0.46279c-0.20992,0.06679 -0.48072,-0.03212 -0.60483,-0.22092z" fill="#000e25" stroke="#000e25" stroke-width="0.5" stroke-linecap="butt"></path><path d="M469.76591,225.22862c-0.2414,0.0768 -0.52096,0.01153 -0.62438,-0.1458c-0.10342,-0.15734 0.00842,-0.34714 0.24981,-0.42396c0.2414,-0.0768 0.52097,-0.01152 0.62438,0.14581c0.10342,0.15734 -0.00842,0.34713 -0.24981,0.42395z" fill="#000e25" stroke="#000e25" stroke-width="0.5" stroke-linecap="butt"></path><path d="M455.14135,215.57722c-0.27915,-0.26566 -0.63579,-0.63001 -0.31212,-0.80569c0.32366,-0.1757 0.95771,0.0169 1.23686,0.28257c0.27915,0.26566 0.54363,0.52782 0.21997,0.70352c-0.32366,0.1757 -0.86559,0.08526 -1.14471,-0.18041z" fill="#000e25" stroke="#000e25" stroke-width="0.5" stroke-linecap="butt"></path><path d="M438.71087,214.02817c-0.13447,-0.20454 -0.16689,-0.39472 -0.07242,-0.42477c0.09446,-0.03007 0.28003,0.11138 0.41451,0.31592c0.13447,0.20454 0.16688,0.39473 0.07243,0.42479c-0.09446,0.03007 -0.28002,-0.11138 -0.4145,-0.31593z" fill="none" stroke="#000e25" stroke-width="0.5" stroke-linecap="butt"></path><path d="M437.21146,214.26412c-0.97226,-1.47895 -1.08826,-2.89176 -0.25908,-3.1556c0.82918,-0.26384 2.28952,0.72123 3.26179,2.20019c0.97226,1.47895 1.08826,2.89176 0.25908,3.1556c-0.82918,0.26384 -2.28952,-0.72123 -3.26179,-2.20019z" fill="none" stroke="#000e25" stroke-width="0.5" stroke-linecap="butt"></path><path d="M439.89269,215.58118c-0.61925,0.19704 -1.62435,-0.40851 -2.24493,-1.35252c-0.62059,-0.94403 -0.62169,-1.86904 -0.00243,-2.06606c0.61925,-0.19704 1.62436,0.40851 2.24494,1.35252c0.62059,0.94403 0.62168,1.86902 0.00242,2.06605z" fill="none" stroke="#000e25" stroke-width="0.5" stroke-linecap="butt"></path><path d="M421.13011,212.73265c-0.11376,-0.17306 0.01521,-0.38377 0.28809,-0.4706c0.2729,-0.08684 0.58633,-0.01691 0.70013,0.15615c0.11376,0.17306 -0.01521,0.38377 -0.28809,0.4706c-0.2729,0.08684 -0.58633,0.01691 -0.70013,-0.15615z" fill="#000e25" stroke="#000e25" stroke-width="0.5" stroke-linecap="butt"></path><path d="M415.50854,221.16961c-0.20686,-0.31467 -0.2044,-0.62391 0.00551,-0.6907c0.20992,-0.06679 0.54778,0.13415 0.75463,0.44882c0.20686,0.31467 0.2044,0.62392 -0.00551,0.69071c-0.20992,0.06679 -0.54778,-0.13416 -0.75463,-0.44883z" fill="#000e25" stroke="#000e25" stroke-width="0.5" stroke-linecap="butt"></path><path d="M400.39422,209.61388c-0.12633,-0.19219 -0.02091,-0.41411 0.23549,-0.49568c0.2564,-0.08158 0.56667,0.00806 0.693,0.20025c0.12633,0.19219 0.02087,0.41411 -0.2355,0.49568c-0.2564,0.08158 -0.56666,-0.00808 -0.69299,-0.20024z" fill="#000e25" stroke="#000e25" stroke-width="0.5" stroke-linecap="butt"></path><path d="M382.857,209.81278c-0.14627,-0.22252 0.06332,-0.50732 0.46814,-0.63614c0.40484,-0.1288 0.85161,-0.05286 0.9979,0.16967c0.14627,0.22252 -0.06332,0.50732 -0.46814,0.63614c-0.40484,0.1288 -0.85161,0.05286 -0.9979,-0.16967z" fill="#000e25" stroke="#000e25" stroke-width="0.5" stroke-linecap="butt"></path><path d="M373.93168,218.07808c-0.17953,-0.27308 -0.16098,-0.54668 0.04143,-0.61108c0.20242,-0.06441 0.51205,0.10477 0.69158,0.37786c0.17953,0.27308 0.16097,0.54668 -0.04145,0.61108c-0.20242,0.06441 -0.51205,-0.10477 -0.69158,-0.37786z" fill="#000e25" stroke="#000e25" stroke-width="0.5" stroke-linecap="butt"></path><path d="M352.02188,216.47942c-0.0931,-0.14159 0.14871,-0.35732 0.54004,-0.48186c0.39137,-0.12452 0.78405,-0.11068 0.87716,0.03094c0.0931,0.14159 -0.14871,0.35733 -0.54004,0.48187c-0.39137,0.12452 -0.78405,0.11067 -0.87716,-0.03095z" fill="#000e25" stroke="#000e25" stroke-width="0.5" stroke-linecap="butt"></path><path d="M343.1091,204.89922c-0.08646,-0.13148 -0.04711,-0.27287 0.08785,-0.31581c0.13495,-0.04294 0.31439,0.02883 0.40086,0.16032c0.08646,0.13148 0.04714,0.27288 -0.08782,0.31583c-0.13495,0.04294 -0.31442,-0.02883 -0.40085,-0.16033z" fill="#000e25" stroke="#000e25" stroke-width="0.5" stroke-linecap="butt"></path><path d="M362.64138,210.59055c-1.92074,0.61115 -4.02491,0.27433 -4.6998,-0.75227c-0.6749,-1.02661 0.33505,-2.35428 2.25579,-2.96543c1.92074,-0.61115 4.6223,-0.30939 5.60455,1.39448c0.60391,1.04758 -1.23981,1.71208 -3.16053,2.32322z" fill="none" stroke="#000e25" stroke-width="0.5" stroke-linecap="butt"></path><path d="M350.23894,216.57778c-0.38011,-0.5782 -0.11471,-0.71274 1.16052,-1.11848c1.27524,-0.40576 3.44177,-0.26997 3.82188,0.30823c0.38011,0.5782 -0.62811,1.15576 -1.90334,1.56153c-1.27524,0.40576 -2.69896,-0.17305 -3.07907,-0.75125z" fill="none" stroke="#000e25" stroke-width="0.5" stroke-linecap="butt"></path><path d="M341.42953,205.2747c-0.42668,-0.64902 -0.42369,-1.13111 0.39499,-1.39159c0.81869,-0.26049 2.7363,0.28223 3.16293,0.93127c0.42668,0.64902 0.4526,1.07024 -0.36607,1.33074c-0.81869,0.26049 -2.7652,-0.22138 -3.19186,-0.87038z" fill="none" stroke="#000e25" stroke-width="0.5" stroke-linecap="butt"></path><path d="M380.31529,210.31496c-0.51974,-0.79062 0.45096,-1.6161 2.13554,-2.15209c1.6846,-0.536 3.66737,0.07313 4.18709,0.86372c0.51974,0.79062 -0.67653,1.37785 -2.36112,1.91386c-1.6846,0.536 -3.44179,0.16512 -3.96152,-0.62549z" fill="none" stroke="#000e25" stroke-width="0.5" stroke-linecap="butt"></path><path d="M399.141,210.00872c-0.48873,-0.74342 -0.65264,-1.21328 0.33922,-1.52885c0.99184,-0.31561 2.81759,0.03889 3.30628,0.78229c0.48873,0.74342 0.08665,0.87666 -0.9052,1.19225c-0.99184,0.31561 -2.25161,0.29773 -2.7403,-0.4457z" fill="none" stroke="#000e25" stroke-width="0.5" stroke-linecap="butt"></path><path d="M398.04784,209.81399c-0.34573,-0.52592 -0.22312,-0.82793 -0.10123,-1.13479c0.11881,-0.29903 0.22264,-0.60852 0.96883,-0.69139c1.10916,-0.12322 2.48706,0.09823 3.4787,0.53961c0.34672,0.15434 0.77242,0.15933 0.94926,0.42833c0.68265,1.03842 1.14082,1.70384 -0.24464,2.14466c-1.38546,0.44083 -4.3683,-0.248 -5.05096,-1.28642z" fill="none" stroke="#000e25" stroke-width="0.5" stroke-linecap="butt"></path><path d="M416.85423,212.15402c-0.07175,-1.6276 2.15419,-1.87801 4.90765,-1.6867c2.75346,0.19134 5.0212,1.26768 4.97838,2.35496c-0.05066,1.28583 -2.52518,2.04772 -5.27863,1.8564c-2.75346,-0.19134 -4.54935,-1.20837 -4.60739,-2.52467z" fill="none" stroke="#000e25" stroke-width="0.75" stroke-linecap="butt"></path><path d="M418.28643,212.39099c-0.19978,-0.30391 0.26575,-0.40668 0.45536,-0.57645c0.39202,-0.351 0.99796,-0.58579 1.87187,-0.6549c1.67979,-0.13283 3.43049,0.13229 4.04332,1.06451c0.61283,0.9322 -0.23494,1.18566 -1.76206,1.67158c-1.52714,0.4859 -3.99563,-0.57251 -4.6085,-1.50474z" fill="none" stroke="#000e25" stroke-width="0.5" stroke-linecap="butt"></path><path d="M428.84039,224.9431c-3.03789,-1.43284 -5.59837,-3.44733 -4.13505,-5.19471c0.87731,-1.04759 3.5237,-1.68026 6.06388,-1.43216c1.69674,0.16569 3.28157,0.9166 4.49811,1.49038c3.03789,1.43284 4.43416,3.2494 2.97087,4.99676c-1.46332,1.74735 -6.35991,1.57258 -9.3978,0.13971z" fill="#ffea00" stroke="none" stroke-width="0" stroke-linecap="butt"></path><path d="M430.04805,223.87797c-2.03343,-1.04326 -4.08464,-2.28221 -2.9976,-3.46247c1.08704,-1.18026 4.58009,-0.87444 6.6135,0.16881c2.03343,1.04326 3.4319,2.1282 2.34484,3.30845c-1.08705,1.18025 -3.92733,1.02846 -5.96077,-0.01479z" fill="none" stroke="#000e25" stroke-width="0.75" stroke-linecap="butt"></path><path d="M430.3542,223.22244c-1.40843,-0.70874 -2.14193,-1.64999 -1.53131,-2.32763c0.61059,-0.67762 2.70266,-0.69391 4.11105,0.01483c1.40843,0.70874 2.42286,2.07733 1.81224,2.75495c-0.61059,0.67762 -2.98356,0.26659 -4.39197,-0.44217z" fill="none" stroke="#000e25" stroke-width="0.5" stroke-linecap="butt"></path><path d="M431.32885,222.37303c-0.17066,-0.25961 -0.04098,-0.55533 0.28963,-0.66054c0.33062,-0.1052 0.737,0.01997 0.90765,0.27956c0.17066,0.25961 0.04097,0.55532 -0.28965,0.66051c-0.33062,0.1052 -0.73698,-0.01997 -0.90764,-0.27956z" fill="#001026" stroke="#000e25" stroke-width="0.5" stroke-linecap="butt"></path><path d="M454.20683,216.79338c-1.77348,-0.77568 -2.87121,-1.94516 -2.13383,-2.90448c0.73739,-0.95933 3.03064,-1.34521 4.80416,-0.56955c1.77348,0.77568 3.06786,2.24428 2.33048,3.20359c-0.73739,0.95933 -3.22733,1.04611 -5.00079,0.27042z" fill="none" stroke="#000e25" stroke-width="0.5" stroke-linecap="butt"></path><path d="M472.13935,222.94973c1.01085,0.69572 0.56582,1.98818 -0.85539,3.09765c-1.42123,1.10948 -3.02509,1.68963 -4.03594,0.9939c-1.01085,-0.69572 -0.56578,-1.98819 0.85543,-3.09768c1.42121,-1.10949 3.02507,-1.68962 4.03591,-0.99389z" fill="none" stroke="#000e25" stroke-width="0.5" stroke-linecap="butt"></path><path d="M471.34209,223.71101c0.65413,0.43407 0.34351,1.17013 -0.59085,1.92996c-0.93437,0.75982 -2.30799,1.10292 -2.96212,0.66885c-0.65413,-0.43407 -0.22947,-1.2064 0.7049,-1.96622c0.93437,-0.75982 2.19397,-1.06663 2.8481,-0.63256z" fill="none" stroke="#000e25" stroke-width="0.25" stroke-linecap="butt"></path><path d="M360.75416,208.91401c-0.18618,-0.28322 0.07859,-0.64508 0.59141,-0.80822c0.51279,-0.16315 1.15166,0.04402 1.33783,0.32724c0.18618,0.28322 -0.02971,0.62953 -0.54252,0.79268c-0.51279,0.16315 -1.20054,-0.02848 -1.38672,-0.31169z" fill="#000e25" stroke="none" stroke-width="0" stroke-linecap="butt"></path><path d="M348.71358,216.77267c-0.39398,-1.01804 1.23045,-1.77443 3.60201,-2.17287c2.37159,-0.39841 4.19851,0.19166 4.59247,1.20971c0.39398,1.01804 -1.18087,1.6701 -3.55244,2.06851c-2.37159,0.39841 -4.24808,-0.08731 -4.64205,-1.10534z" fill="none" stroke="#000e27" stroke-width="0.5" stroke-linecap="butt"></path><path d="M372.86608,218.45262c-1.0517,-0.81488 -1.56402,-1.53194 -0.99139,-1.92343c0.57262,-0.39151 2.15675,-0.07035 3.30389,0.59948c1.27388,0.74384 1.89559,1.72169 1.32295,2.11319c-0.57262,0.39151 -2.58379,0.02565 -3.63549,-0.78922z" fill="none" stroke="#000e25" stroke-width="0.5" stroke-linecap="butt"></path><path d="M372.45803,218.87987c-1.68148,-1.30978 -2.69907,-2.4121 -1.57561,-3.17564c1.12344,-0.76355 3.54035,0.07663 5.22183,1.3864c1.68148,1.30978 2.5064,2.11908 1.38297,2.88264c-1.12344,0.76355 -3.3477,0.21639 -5.02918,-1.0934z" fill="none" stroke="#001027" stroke-width="0.75" stroke-linecap="butt"></path><path d="M414.57191,221.55237c-0.89734,-0.87608 -1.15811,-1.59791 -0.39886,-1.99844c0.75923,-0.40052 1.8097,-0.01055 2.70704,0.86553c0.89734,0.87608 1.40173,1.60897 0.64249,2.0095c-0.75923,0.40052 -2.05331,-0.00052 -2.95068,-0.87658z" fill="none" stroke="#001025" stroke-width="0.5" stroke-linecap="butt"></path><path d="M414.0928,221.792c-1.52361,-1.50558 -1.78599,-2.68197 -0.70132,-3.24645c0.41657,-0.21679 0.81372,-0.09612 1.32285,0.0272c0.81652,0.1978 1.80417,0.64858 2.74262,1.57594c1.52361,1.50558 2.24988,2.57866 1.16519,3.14313c-1.08466,0.56448 -3.00577,0.00576 -4.5294,-1.49984z" fill="none" stroke="#001025" stroke-width="0.75" stroke-linecap="butt"></path><path d="M472.18352,215.48845c-1.15846,-1.52341 -1.15793,-2.9491 0.30436,-3.49939c1.46227,-0.55027 3.80489,0.39066 4.96334,1.91408c1.15846,1.52341 1.03823,2.67717 -0.42404,3.22746c-1.46227,0.55027 -3.68523,-0.11872 -4.84367,-1.64215z" fill="none" stroke="#001027" stroke-width="0.75" stroke-linecap="butt"></path><path d="M473.07123,215.14064c-0.67157,-1.02157 -0.7318,-2.09235 0.22633,-2.39719c0.95813,-0.30485 2.49808,0.33936 3.16966,1.36093c0.67157,1.02157 0.70842,1.96691 -0.24971,2.27176c-0.95813,0.30485 -2.47472,-0.21394 -3.14628,-1.23551z" fill="none" stroke="#001027" stroke-width="0.5" stroke-linecap="butt"></path><path d="M240.9426,203.65256c0.00398,-0.14751 -0.43772,-0.29653 -1.2354,-1.01524c-0.36434,-0.32827 0.05531,-1.39332 -1.10813,-1.53884c-1.49262,-0.18672 -4.2535,0.57609 -6.57792,0.73548c-2.87254,0.197 -5.20807,-0.17417 -5.20807,-0.17417c0,0 4.89088,-3.20563 9.41602,-3.08425c1.06871,0.02867 2.93508,0.21172 4.80966,0.77597c1.66817,0.50212 3.34516,1.38608 4.43644,1.50171c0.27692,0.02935 1.05819,-0.11569 1.4063,-0.20445c0.73332,-0.18699 1.49128,-0.47727 2.14922,-0.75025c0.62721,-0.26023 0.60977,-0.40764 1.06962,-0.36911c0.45986,0.03852 0.3508,0.48806 0.3508,0.48806c0,0 -0.82774,1.04466 -0.94585,1.87823c-0.07335,0.51768 0.13969,1.95174 -0.09107,2.98044c-0.15078,0.67215 -0.78039,0.89091 -0.80102,1.53886c-0.04593,1.44171 0.56727,2.57009 0.56727,2.57009c0,0 -1.13861,-1.55983 -3.53505,-1.76171c-0.97476,-0.08211 -2.5113,0.53006 -3.67373,0.69106c-1.97363,0.27335 -3.57738,0.20292 -4.6676,0.17367c-4.58098,-0.12286 -10.4089,-4.01682 -10.4089,-4.01682c0,0 0.45958,-0.18671 1.81027,-0.00489c2.38396,0.32089 6.51384,1.09055 8.43324,1.06552c3.897,-0.05085 3.79816,-1.26288 3.80397,-1.47935z" fill="#885058" stroke="#000e25" stroke-width="1" stroke-linecap="butt"></path></g></g></g></svg>