<svg version="1.1" xmlns="http://www.w3.org/2000/svg" xmlns:xlink="http://www.w3.org/1999/xlink" width="325.9841" height="164.33752" viewBox="0,0,325.9841,164.33752"><defs><radialGradient cx="212.43563" cy="195.84821" r="4.2254" gradientUnits="userSpaceOnUse" id="color-1"><stop offset="0" stop-color="#fbc410"></stop><stop offset="1" stop-color="#fbc410" stop-opacity="0"></stop></radialGradient><radialGradient cx="177.57272" cy="184.71495" r="37.98" gradientUnits="userSpaceOnUse" id="color-2"><stop offset="0" stop-color="#fffbe2"></stop><stop offset="1" stop-color="#fffbe2" stop-opacity="0"></stop></radialGradient></defs><g transform="translate(46.7456,-54.32543)"><g data-paper-data="{&quot;isPaintingLayer&quot;:true}" fill-rule="nonzero" stroke-linejoin="miter" stroke-miterlimit="10" stroke-dasharray="" stroke-dashoffset="0" style="mix-blend-mode: normal"><path d="M-27.01815,108.88933c0.9337,-2.3191 3.25279,-1.3854 3.25279,-1.3854l0.86011,0.35786c0.17112,-0.38341 0.33403,-0.76806 0.4725,-1.15674c3.79678,-10.6581 10.45067,-19.93572 18.95067,-27.35525c0.52376,-0.45718 6.07143,-4.87504 7.30607,-5.38653c1.53341,-0.63528 3.65707,-2.32591 4.8416,-1.16324c1.77786,1.74507 1.35229,4.84327 1.44389,7.33278c0.09801,2.66347 -1.7894,7.66397 -2.60058,10.11852c-0.04305,0.13026 -0.08591,0.26056 -0.12857,0.39091c1.0819,-1.74702 2.24196,-3.45301 3.55709,-5.16918c1.10163,-1.43757 1.89173,-3.21247 3.36487,-4.26605c5.70558,-4.08058 7.2921,-3.1606 8.52495,3.81606c0.21419,1.21206 -0.08776,2.44075 -0.39945,3.65945c2.52706,-3.84134 4.97004,-7.68754 7.84514,-11.34579l0.06768,-0.04698l-0.01517,-0.01359l3.14732,-3.51421c0.45797,-0.51582 1.12609,-0.84086 1.87013,-0.84086c1.38071,0 2.5,1.11929 2.5,2.5c0,0.0839 -0.00413,0.16684 -0.0122,0.24861l-0.03257,0.37149c0.44189,-0.54176 0.89697,-1.05411 1.36767,-1.52595c1.43601,-1.43951 2.87924,-3.9972 4.88355,-3.65508c2.01902,0.34462 2.90209,3.10776 3.45848,5.07897c0.50097,1.77486 -0.2021,3.6879 -0.4689,5.5127c-0.2529,1.72968 -0.7887,3.40003 -1.3289,5.06901c2.93035,-4.25839 6.3424,-8.33575 9.41341,-12.39131l2.21469,-2.96889c0.4546,-0.62363 1.19076,-1.02889 2.02156,-1.02889c0.71298,0 1.35625,0.29846 1.81169,0.77727c0.26214,-0.34222 0.45172,-0.57854 0.53587,-0.66186c1.69406,-1.67724 3.29591,-5.15607 5.57996,-4.47335c2.51399,0.75146 2.84693,4.55505 3.32484,7.13506c0.3438,1.85599 -0.572,3.73387 -0.96974,5.57905c-0.53282,2.47185 -1.18004,4.94464 -1.8843,7.39718c0.81123,-0.94105 1.6723,-1.91596 2.4962,-3.07963c5.39753,-7.62339 10.5175,-15.41808 15.6747,-23.20294l0.04476,-0.03005l-0.01557,-0.01124l1.8387,-2.54606c0.45242,-0.6427 1.20003,-1.06261 2.04572,-1.06261c1.01251,0 1.88443,0.60192 2.27747,1.46744l1.09377,-1.83492c0.43088,-0.75256 1.24177,-1.25964 2.17109,-1.25964c1.33756,0 2.42978,1.05042 2.49674,2.37134l0.22993,3.93438l-0.04732,0.00277c0.01596,0.14138 0.02791,0.28348 0.03547,0.42639c0.09553,1.80676 -0.98967,3.48063 -1.49333,5.2184c-0.94127,3.24759 -2.00062,6.46215 -3.14407,9.64419c-1.26744,3.52711 -2.33953,7.12884 -3.27426,10.76815c2.56884,-4.63297 4.96697,-9.50726 8.68019,-13.2914c1.40511,-1.43196 2.71769,-3.76069 4.72365,-3.7297c5.3931,0.08331 3.87854,7.80082 3.62641,9.92202c-0.89168,7.50173 -3.1564,15.06651 -4.85835,22.46475c0.55044,-0.75409 1.12837,-1.48905 1.71219,-2.21313l2.69115,-4.05767c0.44458,-0.69223 1.22127,-1.15085 2.10507,-1.15085c1.38071,0 2.5,1.11929 2.5,2.5c0,0.23888 -0.0335,0.46993 -0.09607,0.68872l-1.25326,4.78173l-0.28916,-0.07579c-0.04644,0.44948 -0.10297,0.89728 -0.17149,1.34285c2.28468,-1.88243 6.85635,-5.06537 8.51175,-3.90866c0.87586,0.612 2.02336,9.28168 1.73522,11.32003c-0.51738,3.66009 -1.62207,7.31481 -2.95856,10.94131c1.81932,-2.90283 3.66851,-5.78554 5.54647,-8.66204l0.0061,-0.00587l-0.00155,-0.00102l2.73927,-4.13586c0.44442,-0.69302 1.22157,-1.15226 2.10597,-1.15226c1.29677,0 2.36294,0.98733 2.48779,2.25127l0.55453,4.93854l-0.03413,0.00383c0.0181,0.11241 0.03446,0.22521 0.04895,0.33844c0.20449,1.59771 -0.24658,4.12437 -0.8349,6.62547c0.67201,-0.78759 1.20126,-1.3972 1.39269,-1.6232l0.01571,-0.01204l-0.003,-0.00262l3.28218,-3.75308c0.45842,-0.52976 1.13568,-0.86492 1.89122,-0.86492c1.27931,0 2.3342,0.96093 2.48223,2.20038l0.66432,4.92014l-0.03771,0.00509c0.02274,0.16623 0.04098,0.33335 0.05426,0.50147c0.14449,1.82913 -0.94401,3.54617 -1.42902,5.31573c-0.36604,1.33547 -0.77012,2.6418 -1.20311,3.9306c0.92525,-1.27241 1.83158,-2.56002 2.77708,-3.81625l0.01341,-0.0097l-0.00374,-0.00289l1.60039,-2.07113c0.45645,-0.60282 1.17992,-0.99227 1.99435,-0.99227c1.22172,0 2.23877,0.87636 2.45679,2.03474l0.91399,4.36991l-0.03418,0.00715c0.03298,0.1495 0.06197,0.30015 0.08658,0.45206c0.3601,2.22332 -0.25583,5.07054 -1.11785,7.87631c1.04574,0.29909 1.81118,1.26211 1.81118,2.40391c0,0.42231 -0.10471,0.82018 -0.28959,1.16903l-2.22624,4.42112c-0.94141,3.19763 -2.99831,5.95438 -4.49746,8.93157l-1.77399,3.523c-0.29683,0.62144 -0.84276,1.10111 -1.50856,1.30979c-0.46954,1.19952 -1.31133,2.27353 -1.88863,3.4366c-1.46302,2.9475 -2.85503,5.93144 -4.16931,8.94819l-0.79771,1.51367c0,0 -1.1755,2.2064 -3.3819,1.03091c-2.2064,-1.1755 -1.0309,-3.3819 -1.0309,-3.3819l0.62695,-1.16042c0.38639,-0.88613 0.77795,-1.87639 1.18387,-2.91863c-8.58745,0.83904 -16.0552,-4.78601 -23.82315,-8.35386c-16.87461,-7.75058 -34.31464,-13.73639 -51.90179,-19.60773c-19.3898,-6.47386 -39.15682,-11.56648 -57.92514,-19.82781c-3.96627,-1.74585 -7.78878,-3.85336 -11.58237,-6.00146c0.09308,0.35226 0.53052,2.39765 -1.64489,3.08531c-2.38374,0.75352 -3.13725,-1.63022 -3.13725,-1.63022c-0.49198,-1.69194 -1.46941,-3.32058 -1.60757,-5.05864c-0.14823,-0.08168 -0.29653,-0.16314 -0.44488,-0.24437l-0.88518,-0.33722c0,0 -2.3191,-0.9337 -1.3854,-3.2528z" fill="#171c22" stroke="none" stroke-width="0.5" stroke-linecap="butt"></path><path d="M238.9885,217.91295c-21.81525,0 -39.5,-17.68475 -39.5,-39.5c0,-21.81525 17.68475,-39.5 39.5,-39.5c21.81525,0 39.5,17.68475 39.5,39.5c0,21.81525 -17.68475,39.5 -39.5,39.5z" data-paper-data="{&quot;index&quot;:null}" fill="#000000" stroke="#000000" stroke-width="1.5" stroke-linecap="butt"></path><g data-paper-data="{&quot;index&quot;:null}" stroke="none" stroke-width="0" stroke-linecap="butt"><path d="M258.71106,168.50345c7.45315,0 13.49512,5.141 13.49512,5.141c0,0 -6.04197,5.141 -13.49512,5.141c-7.45315,0 -13.49512,-5.141 -13.49512,-5.141c0,0 6.04197,-5.141 13.49512,-5.141z" fill="#ffffff"></path><path d="M259.35368,178.78545c-2.8393,0 -5.141,-2.30171 -5.141,-5.141c0,-2.8393 2.30171,-5.141 5.141,-5.141c2.8393,0 5.141,2.30171 5.141,5.141c0,2.8393 -2.30171,5.141 -5.141,5.141z" fill="#000000"></path></g><g data-paper-data="{&quot;index&quot;:null}" stroke="none" stroke-width="0" stroke-linecap="butt"><path d="M229.03426,168.6195c7.45315,0 13.49512,5.141 13.49512,5.141c0,0 -6.04197,5.141 -13.49512,5.141c-7.45315,0 -13.49512,-5.141 -13.49512,-5.141c0,0 6.04197,-5.141 13.49512,-5.141z" fill="#ffffff"></path><path d="M229.67689,178.9015c-2.8393,0 -5.141,-2.30171 -5.141,-5.141c0,-2.83929 2.30171,-5.141 5.141,-5.141c2.8393,0 5.141,2.30171 5.141,5.141c0,2.8393 -2.30171,5.141 -5.141,5.141z" fill="#000000"></path></g><g><path d="M216.79299,196.86661c-0.3155,1.37473 -2.53368,2.03879 -4.95441,1.48322c-2.42074,-0.55559 -4.12737,-2.1204 -3.81183,-3.49516c0.3155,-1.37473 2.53368,-2.03879 4.95444,-1.48322c2.42074,0.55559 4.12737,2.1204 3.81183,3.49516z" fill="#fbc410" stroke="none" stroke-width="0" stroke-linecap="butt"></path><path d="M216.81877,196.85416c-0.3155,1.37473 -2.53368,2.03879 -4.95441,1.48322c-2.42074,-0.55559 -4.12737,-2.1204 -3.81183,-3.49516c0.3155,-1.37473 2.53368,-2.03879 4.95441,-1.48322c2.42074,0.55559 4.12737,2.1204 3.81183,3.49516z" fill="none" stroke="url(#color-1)" stroke-width="2.5" stroke-linecap="butt"></path><path d="M156.99221,173.10334c0,0 -0.33935,0.3916 -1.00746,0.36354c-1.03879,-0.04361 -2.65432,-0.50769 -3.34324,-0.45372c-1.13202,0.08868 0.54516,0.29993 0.26919,-0.45212c-0.27598,-0.75206 -3.09571,-1.15831 -1.96373,-1.24701c0.48683,-0.03815 1.90525,-0.53893 3.09919,-0.1554c1.58231,0.50829 2.94605,1.94472 2.94605,1.94472z" fill="#43282c" stroke="none" stroke-width="0" stroke-linecap="butt"></path><path d="M156.66081,174.20689c0,0 0.49164,0.40949 -0.82186,0.42153c-3.4882,0.03195 -3.76086,-0.70905 -4.354,-0.66258c-1.40154,0.1098 0.47197,0.55657 0.16417,-0.28227c-0.30782,-0.83882 -1.76063,-1.96335 -0.35909,-2.07316c0.49997,-0.03917 1.81619,-0.02776 2.67292,0.39912c1.54492,0.76975 2.69787,2.19734 2.69787,2.19734z" fill="#885058" stroke="none" stroke-width="0" stroke-linecap="butt"></path><path d="M154.37861,182.76388c0,0 -0.0445,0.24597 -2.45122,0.43452c-1.36557,0.107 -3.87728,-1.2627 -4.11607,-1.91353c-0.23881,-0.65082 -0.15508,-0.60749 1.2105,-0.71443c0.56985,-0.04464 1.22566,0.41287 2.2291,0.86455c1.40124,0.63073 3.1277,1.32892 3.1277,1.32892z" fill="#43282c" stroke="none" stroke-width="0" stroke-linecap="butt"></path><path d="M151.41951,179.07786c0.07478,0.20377 1.19446,0.50409 2.03133,0.98744c0.90445,0.52236 1.52353,1.22783 1.3925,1.39938c-0.31932,0.4181 -3.03154,0.07249 -3.80451,0.13306c-1.38358,0.10839 -2.39312,-0.77538 -2.74567,-1.73616c-0.35255,-0.96077 -1.57974,-1.61197 -0.19617,-1.72037c1.38358,-0.10839 2.96997,-0.02411 3.32251,0.93667z" fill="#885058" stroke="none" stroke-width="0" stroke-linecap="butt"></path><path d="M149.6789,177.07068c0.84911,2.314 3.91176,5.4047 0.60559,5.66372c-3.30618,0.25901 -14.69378,-6.11266 -15.54289,-8.42666c-0.84911,-2.314 4.63362,0.55294 7.93979,0.29391c3.30618,-0.25901 6.14839,0.15503 6.9975,2.46902z" fill="#959ba2" stroke="none" stroke-width="0" stroke-linecap="butt"></path><path d="M153.07703,172.78178c-0.05896,0.38953 -0.3234,0.92161 -0.84302,1.14729c-0.88667,0.38514 -2.36949,0.27872 -3.77809,-0.04878c-2.23409,-0.51945 -3.91583,-1.79513 -3.75622,-2.84934c0.15961,-1.0542 2.1001,-1.4877 4.33421,-0.96828c2.23409,0.51945 4.20273,1.66491 4.04315,2.71911z" fill="#959ba2" stroke="none" stroke-width="0" stroke-linecap="butt"></path><path d="M141.17089,167.93125l-6.05885,0.63631" fill="none" stroke="#171c22" stroke-width="1" stroke-linecap="round"></path><path d="M135.04998,168.03362c0,0 5.7441,-1.12204 8.20487,-0.92662c2.43431,0.19331 7.74418,1.88614 7.74418,1.88614" fill="none" stroke="#2e3844" stroke-width="1" stroke-linecap="round"></path><path d="M134.59859,170.81682c-0.46701,-1.2727 2.7496,-2.63999 6.32533,-2.92009c2.68467,-0.21033 6.42113,0.6166 8.30096,2.11705c0.62391,0.49798 0.8195,1.75893 1.00182,2.16489c0.37361,0.83186 -4.8753,0.38194 -7.38533,0.5786c-3.57567,0.28013 -7.77573,-0.66774 -8.24274,-1.94043z" fill="#171c22" stroke="none" stroke-width="0" stroke-linecap="butt"></path><path d="M145.92048,182.69918c0,0 -3.37612,-0.98168 -5.30831,-2.13244c-2.05742,-1.22534 -6.68408,-5.00989 -6.68408,-5.00989" fill="none" stroke="#2e3844" stroke-width="1.5" stroke-linecap="round"></path><path d="M140.93001,177.2513c2.43665,1.39473 7.42516,3.09688 6.18278,3.94208c-1.03925,0.70701 -4.2475,-0.15145 -6.68415,-1.5462c-2.43665,-1.39473 -8.07233,-4.9567 -6.00951,-5.84142c0.80719,-0.34619 4.07425,2.05082 6.51089,3.44554z" fill="#171c22" stroke="none" stroke-width="0" stroke-linecap="butt"></path><path d="M134.32524,173.00835l0.61813,-2.83616c0,0 2.50909,-0.20216 5.38768,0.65029c4.76388,1.41076 17.79699,5.41308 33.34844,10.23096c3.03039,0.93883 6.579,2.01879 9.84227,3.01691c4.23342,1.29487 8.17364,2.50489 11.80962,3.63558c10.886,3.38524 18.3387,5.78003 18.3387,5.78003l-1.68924,4.59933c0,0 -6.46436,-2.17868 -15.07646,-4.9613c-5.13418,-1.65888 -11.18804,-3.74316 -16.374,-5.37564c-2.26677,-0.71355 -4.31072,-1.18543 -6.13527,-1.75852c-5.49831,-1.72706 -12.5154,-4.35015 -19.86224,-6.56791c-5.73376,-1.73082 -12.01393,-3.11046 -15.66733,-4.30752c-2.98194,-0.97709 -4.54024,-2.10602 -4.54024,-2.10602z" fill="#6d6d48" stroke="#000e25" stroke-width="1.2" stroke-linecap="butt"></path><path d="M209.72805,193.99841l-80.59649,-25.0335" fill="none" stroke="url(#color-2)" stroke-width="1.5" stroke-linecap="round"></path><path d="M-37.84023,128.81569l-1.34439,-1.09974l2.38211,0.24782l-2.31987,-1.45695c0,0 8.02387,0.69613 9.83753,0.84397c0.84544,0.06893 0.57832,0.00495 0.57832,0.00495l-13.71475,-6.49107c0,0 8.63629,1.54446 11.10595,1.84252c1.844,0.22256 2.39137,-0.21353 2.39137,-0.21353l-1.44249,-1.07505l0.97386,-0.14708l-1.62578,-1.74793l1.29579,0.04144l-6.75545,-4.95651l6.19106,0.90188l-0.2734,-1.25915l1.84036,-0.06144l-4.92831,-2.1821l2.43023,0.04526l-5.55394,-3.3832l11.60646,1.79546l-1.92385,-2.2778l16.22771,5.29918l-5.82732,-4.55628l21.73627,9.86688l-1.3658,-2.33427c0,0 2.55978,0.02608 4.883,0.9803c1.25135,0.51396 2.75803,2.28738 5.23087,3.39987c0.65987,0.29686 2.21428,0.34051 4.02703,1.06965c1.87982,0.75613 5.68447,3.42539 7.85216,4.36981c1.04183,0.4539 2.53167,0.65889 3.34014,0.92522c2.49965,0.82342 3.28982,1.01151 3.28982,1.01151l-0.88527,-2.0985c0,0 4.348,1.20685 7.06427,2.33233c1.04853,0.43447 6.72891,3.42171 10.44495,5.13691c2.0789,0.95954 3.32793,1.1646 3.32793,1.1646l-4.32741,-3.08014c0,0 3.5452,0.94597 5.45679,1.77329c1.91157,0.82732 5.77634,3.0228 8.19577,4.30646c2.1205,1.12507 2.62459,0.96486 2.62459,0.96486c0,0 -0.00171,-0.05163 -0.65527,-0.57859c-0.41938,-0.33814 -1.30918,-1.05381 -1.30918,-1.05381c0,0 1.26202,0.16751 2.78511,0.69563c3.34511,1.15994 8.59241,3.25372 9.0374,3.44157c1.23145,0.51975 0.33666,-1.16654 0.33666,-1.16654l11.43326,4.9834l0.51694,-0.48737l10.22908,4.29251l-0.24669,-1.85104l37.48043,15.61782l-4.34705,13.80784c0,0 -12.10484,-0.02843 -20.62527,-2.45277c-0.53476,-0.15217 -5.92062,-1.671 -5.92062,-1.671l1.28098,-0.60633l-24.72313,-6.2318l3.86598,-0.43111c0,0 -5.00208,-2.01876 -8.88981,-2.56962c-1.2707,-0.18006 -3.90565,0.26773 -6.31101,0.20266c-3.19379,-0.08637 -6.10801,-0.65252 -6.10801,-0.65252c0,0 6.55031,-1.32448 5.70811,-1.56624c-5.58337,-1.60297 -11.23926,-3.17306 -14.26206,-3.85725c-5.17441,-1.17118 -9.72334,-0.51707 -9.72334,-0.51707c0,0 3.82458,-1.46281 3.33997,-1.58808c-6.03095,-1.55902 -17.47519,-3.33898 -17.47519,-3.33898l2.15255,-0.90488l-8.86687,-1.92493l2.34287,-0.42074l-18.6409,-2.94631l2.46695,-1.62786c0,0 -0.7268,-0.31607 -0.76583,-0.32739c-1.89563,-0.54813 -12.55952,-1.10561 -12.55952,-1.10561l2.4197,-1.48273c0,0 -7.46835,-1.23026 -10.47937,-1.85719c-2.81583,-0.58629 -7.04042,-1.79065 -7.04042,-1.79065c0,0 4.35064,-0.58693 3.24037,-0.91462c-4.44885,-1.31297 -7.13601,-2.09976 -9.50299,-2.80703c-6.12656,-1.83069 -12.23027,-4.21477 -12.23027,-4.21477z" fill="#171c22" stroke="#001026" stroke-width="1.2" stroke-linecap="butt"></path><path d="M113.2484,166.12678c1.92395,1.24379 1.5386,5.053 0.52085,6.08477c-1.01776,1.03178 -3.93658,0.40786 -5.86052,-0.83592c-1.92395,-1.24379 -3.06527,-2.85904 -2.04749,-3.89082c1.01776,-1.03178 5.46323,-2.6018 7.38721,-1.35801z" fill="#ffea00" stroke="none" stroke-width="0" stroke-linecap="butt"></path><path d="M68.54988,144.62997c0.96321,2.62495 -1.47787,3.96813 -6.32031,4.3475c-4.84248,0.37937 -9.70745,-1.87311 -10.67066,-4.49805c-0.96321,-2.62495 1.85612,-4.44225 6.69859,-4.82165c4.84248,-0.37937 9.32916,2.34726 10.29237,4.97221z" fill="#ffea00" stroke="#001026" stroke-width="1.2" stroke-linecap="butt"></path><path d="M126.2146,163.87143c1.11888,3.04918 -0.86136,4.26555 -5.24266,4.60881c-4.38128,0.34325 -8.69909,-1.46628 -9.81798,-4.51546c-1.11888,-3.04918 -1.30198,-5.47898 3.07929,-5.8222c4.38128,-0.34325 10.86247,2.67968 11.98135,5.72888z" fill="#ffea00" stroke="none" stroke-width="0" stroke-linecap="butt"></path><path d="M123.87167,163.84097c0.73943,2.01511 -9.59562,2.16628 -10.33505,0.15116c-0.73943,-2.01511 -0.36886,-3.85639 2.74965,-4.10069c1.83897,-0.14407 3.85237,0.74354 5.3422,1.53148c1.0366,0.54824 1.9398,1.59124 2.24321,2.41806z" fill="none" stroke="#000e25" stroke-width="1.2" stroke-linecap="butt"></path><path d="M65.74066,144.40504c0.33411,0.9105 0.21716,1.67057 -0.57313,2.35509c-0.82068,0.71087 -2.45727,1.04324 -4.0851,1.17076c-3.19536,0.25032 -6.26182,-1.84753 -6.94288,-3.70354c-0.68106,-1.85602 1.28118,-2.76738 4.47654,-3.01771c3.19536,-0.25032 6.44352,1.33939 7.12459,3.19541z" fill="none" stroke="#000e25" stroke-width="1.2" stroke-linecap="butt"></path><path d="M63.85541,144.47513c0.18045,0.49176 0.09096,0.78685 -0.13972,1.12834c-0.40362,0.59754 -1.33304,1.08255 -2.6746,1.18765c-2.1083,0.16518 -4.55253,-1.15721 -4.90287,-2.51573c-0.37302,-1.44655 0.7455,-1.89992 2.85378,-2.06508c2.1083,-0.16518 4.36716,0.91258 4.86339,2.26482z" fill="none" stroke="#000e25" stroke-width="0.7" stroke-linecap="butt"></path><path d="M60.88862,144.36888c0.08283,0.22573 -0.18826,0.41754 -0.56517,0.50732c-0.09745,0.02322 -0.20196,0.0396 -0.30925,0.04803c-0.52237,0.04093 -1.03033,-0.1562 -1.13458,-0.44027c-0.10425,-0.28409 0.23471,-0.54754 0.75708,-0.58847c0.52237,-0.04093 1.14768,0.18931 1.25192,0.47341z" fill="#000e25" stroke="#000e25" stroke-width="0.5" stroke-linecap="butt"></path><path d="M131.13545,177.80893c0.02221,-0.1924 3.8982,-14.22864 3.91728,-14.27413c0.22353,-0.53285 1.36537,-0.05767 1.36537,-0.05767c0,0 0.80339,0.32187 0.77316,0.60134c-0.00443,0.04087 -3.62263,13.5987 -3.79417,14.00768c-0.32208,0.7677 -0.96528,0.49932 -1.32224,0.4757c-0.65753,-0.04356 -0.97041,-0.4839 -0.9394,-0.75289z" fill="#6d6d48" stroke="#000e25" stroke-width="1.2" stroke-linecap="butt"></path><path d="M108.15386,175.94323l-0.87557,-0.18848l-0.64516,-0.80245l1.13651,-0.11413l0.81704,0.2451l1.30815,-0.16073l0.20309,0.84015z" fill="#aeb5b1" stroke="#000e25" stroke-width="0" stroke-linecap="butt"></path><path d="M110.11409,176.73041l-0.15717,-0.52391c0,0 0.72916,-0.11784 1.07744,-0.23511c0.11825,-0.03982 0.23735,-0.1394 0.39166,-0.21546c0.2369,-0.11672 0.49698,-0.21148 0.49698,-0.21148l0.44064,1.00972z" fill="#aeb5b1" stroke="none" stroke-width="0" stroke-linecap="butt"></path><path d="M115.43072,176.69487c0.16957,0.46211 -1.20198,1.01141 -1.87583,0.66908c-0.46993,-0.23873 0.35906,-0.21595 0.18949,-0.67806c-0.16957,-0.46211 -0.02274,-0.7179 0.47609,-0.75697c0.49883,-0.03909 1.04069,0.30383 1.21024,0.76595z" fill="#aeb5b1" stroke="none" stroke-width="0" stroke-linecap="butt"></path><path d="M122.2496,177.6c0.13623,0.37121 -0.11198,0.7002 -0.55434,0.73487c-0.44238,0.03464 -0.91138,-0.23816 -1.0476,-0.60937c-0.13623,-0.37121 0.11196,-0.70024 0.55435,-0.73488c0.44238,-0.03464 0.91137,0.23817 1.0476,0.60937z" fill="#aeb5b1" stroke="none" stroke-width="0" stroke-linecap="butt"></path><path d="M129.10849,177.7541c0,0 -0.05816,0.20212 -0.67936,0.2508c-0.6212,0.04867 -1.19885,-0.20935 -1.33229,-0.57298c-0.13344,-0.36362 0.28213,-0.64298 0.90329,-0.69164c0.6212,-0.04867 1.10836,1.01383 1.10836,1.01383z" fill="#aeb5b1" stroke="none" stroke-width="0" stroke-linecap="butt"></path><path d="M125.33044,173.47805c-0.28911,-0.78787 -0.30539,-1.27428 0.09931,-1.30598c0.22378,-0.01752 0.71972,-0.27885 0.96705,0.01839c0.20003,0.24035 0.15996,0.9985 0.28921,1.35076c0.28911,0.78787 -0.36002,1.46754 -0.76474,1.49925c-0.40472,0.03171 -0.30174,-0.77453 -0.59084,-1.56238z" fill="#aeb5b1" stroke="none" stroke-width="0" stroke-linecap="butt"></path><path d="M130.10678,173.49899c0.24463,0.66664 -0.38571,1.1309 -0.71513,1.15669c-0.32941,0.02581 -0.23319,-0.39658 -0.4778,-1.06325c-0.24463,-0.66664 -0.17589,-1.228 0.15354,-1.25381c0.32941,-0.02581 0.79478,0.49371 1.0394,1.16036z" fill="#aeb5b1" stroke="none" stroke-width="0" stroke-linecap="butt"></path><path d="M119.18745,172.02607c0.28077,0.76514 -0.58513,1.55574 -1.04634,1.59188c-0.46119,0.03614 -0.34301,-0.6959 -0.62378,-1.46103c-0.28077,-0.76514 -0.1345,-1.41469 0.3267,-1.45083c0.46119,-0.03614 1.06264,0.55482 1.3434,1.31997z" fill="#aeb5b1" stroke="none" stroke-width="0" stroke-linecap="butt"></path><path d="M122.74021,172.4392c0.23905,0.65152 -0.51603,1.16933 -0.89252,1.19882c-0.37648,0.02949 -0.23177,-0.44053 -0.47085,-1.09201c-0.23905,-0.65152 -0.12767,-1.20357 0.2488,-1.23305c0.37648,-0.02949 0.87547,0.47475 1.11452,1.12626z" fill="#aeb5b1" stroke="none" stroke-width="0" stroke-linecap="butt"></path><path d="M114.76335,170.8628c0.15566,0.42422 -0.51981,0.68985 -0.77394,0.70975c-0.25413,0.0199 0.00936,-0.21343 -0.1463,-0.63765c-0.15566,-0.42422 -0.07586,-0.78431 0.17826,-0.8042c0.25413,-0.0199 0.58633,0.30786 0.74201,0.73212z" fill="#aeb5b1" stroke="none" stroke-width="0" stroke-linecap="butt"></path><path d="M111.10616,168.17096c0.26038,0.07558 0.37853,0.49833 0.26387,0.94424c-0.11462,0.44591 -1.16073,0.63495 -1.42112,0.55932c-0.26037,-0.07558 0.36357,-0.38715 0.4782,-0.83305c0.11462,-0.44591 0.41865,-0.7461 0.67903,-0.67052z" fill="#aeb5b1" stroke="none" stroke-width="0" stroke-linecap="butt"></path><path d="M108.02211,166.10162c0.41792,-0.14847 0.87492,-0.11489 1.02072,0.07499c0.1458,0.18988 -0.07482,0.46417 -0.49275,0.61266c-0.41792,0.14847 -0.87493,0.11488 -1.02072,-0.07499c-0.1458,-0.18988 0.07481,-0.46417 0.49275,-0.61264z" fill="#aeb5b1" stroke="none" stroke-width="0" stroke-linecap="butt"></path><path d="M116.10067,154.99602c0.07664,-0.22307 1.11201,-0.36583 1.44501,-0.39193c0.49414,-0.03871 1.00961,0.24311 1.15139,0.62947c0.14177,0.38633 -0.14387,0.73093 -0.63801,0.76965c-0.49414,0.03871 -1.00961,-0.24311 -1.15139,-0.62947c-0.04624,-0.126 -0.84411,-0.26978 -0.807,-0.37773z" fill="#aeb5b1" stroke="none" stroke-width="0" stroke-linecap="butt"></path><path d="M121.43737,156.39475c0.14596,0.39772 -0.12488,0.75062 -0.60487,0.78823c-0.48001,0.03761 -0.98748,-0.25433 -1.13339,-0.65204c-0.14596,-0.39772 0.1249,-0.75062 0.60489,-0.78822c0.48001,-0.03761 0.98746,0.25434 1.13336,0.65204z" fill="#aeb5b1" stroke="none" stroke-width="0" stroke-linecap="butt"></path><path d="M116.01721,154.23702c0.11258,0.3068 -0.16238,0.58423 -0.61416,0.61964c-0.45179,0.03541 -0.90927,-0.18466 -1.02186,-0.49146c-0.11258,-0.3068 0.16238,-0.58422 0.61415,-0.61963c0.45179,-0.03541 0.90928,0.18465 1.02185,0.49143z" fill="#aeb5b1" stroke="none" stroke-width="0" stroke-linecap="butt"></path><path d="M114.51839,153.59245c0.12092,0.32955 -0.07864,0.61999 -0.44569,0.64874c-0.36705,0.02875 -0.76266,-0.21507 -0.88356,-0.5446c-0.12092,-0.32955 0.07863,-0.62002 0.44568,-0.64876c0.36705,-0.02875 0.76266,0.21507 0.8836,0.54462z" fill="#aeb5b1" stroke="none" stroke-width="0" stroke-linecap="butt"></path><path d="M124.0411,157.75711c0.12092,0.32955 -0.09005,0.62088 -0.47123,0.65075c-0.38119,0.02987 -0.78823,-0.21306 -0.90916,-0.54262c-0.12092,-0.32955 0.09004,-0.62088 0.47125,-0.65074c0.38119,-0.02987 0.7882,0.21307 0.90914,0.54259z" fill="#aeb5b1" stroke="none" stroke-width="0" stroke-linecap="butt"></path><path d="M127.66563,158.89132c0.08871,0.24178 0.16881,0.50271 0.037,0.67438c-0.12837,0.16722 -0.46376,0.24807 -0.74242,0.26989c-0.56472,0.04424 -1.16451,-0.30679 -1.33964,-0.78405c-0.17514,-0.47725 0.14071,-0.9 0.70543,-0.94426c0.56472,-0.04424 1.16449,0.30677 1.33962,0.78406z" fill="#aeb5b1" stroke="none" stroke-width="0" stroke-linecap="butt"></path><path d="M130.46219,160.49257c0.10508,0.28632 0.38609,0.77383 0.12773,0.92089c-0.11077,0.06305 -0.645,-0.11839 -0.80176,-0.1061c-0.52237,0.04093 -1.06751,-0.25752 -1.21762,-0.66661c-0.15011,-0.40908 0.15166,-0.7739 0.67404,-0.81483c0.52237,-0.04093 1.06751,0.25753 1.21763,0.66662z" fill="#aeb5b1" stroke="none" stroke-width="0" stroke-linecap="butt"></path><path d="M133.48937,162.43558c0.06371,0.1736 0.46464,0.60313 0.39339,0.74048c-0.10132,0.19529 -0.73589,0.06955 -1.03429,0.09294c-0.50825,0.03982 -1.04533,-0.26875 -1.19958,-0.68918c-0.15428,-0.42045 0.13265,-0.79356 0.6409,-0.83337c0.50825,-0.03982 1.04533,0.26875 1.1996,0.6892z" fill="#aeb5b1" stroke="none" stroke-width="0" stroke-linecap="butt"></path><path d="M131.96784,166.74582c0.10425,0.28409 -0.09737,0.53679 -0.45032,0.56444c-0.35295,0.02766 -0.72357,-0.18023 -0.8278,-0.46432c-0.10425,-0.28409 0.09737,-0.53681 0.45035,-0.56445c0.16213,-0.0127 1.25846,-1.32262 1.52993,-1.17278c0.56192,0.31013 -0.75844,1.48355 -0.7021,1.63713z" fill="#aeb5b1" stroke="none" stroke-width="0" stroke-linecap="butt"></path><path d="M128.82158,164.62162c0.11258,0.3068 -0.13952,0.58243 -0.56305,0.61561c-0.42354,0.03316 -0.85814,-0.18865 -0.97072,-0.49545c-0.11258,-0.3068 0.13951,-0.58242 0.56304,-0.61562c0.0835,-0.00653 0.54471,-0.16127 0.8242,-0.38236c0.29125,-0.23036 0.40092,-0.52681 0.47865,-0.49709c0.12453,0.04757 0.12901,0.35108 -0.00512,0.69254c-0.10938,0.27849 -0.35721,0.60004 -0.32703,0.68238z" fill="#aeb5b1" stroke="none" stroke-width="0" stroke-linecap="butt"></path><path d="M124.79266,163.54875c-0.27827,-0.06218 -0.46195,-0.42293 -0.41019,-0.80577c0.05174,-0.38282 0.31927,-0.64276 0.59753,-0.58057c0.27827,0.06218 0.46191,0.42292 0.41018,0.80575c-0.05174,0.38282 -0.31926,0.64276 -0.59754,0.58058z" fill="#aeb5b1" stroke="none" stroke-width="0" stroke-linecap="butt"></path><path d="M122.23784,161.72955c0.12509,0.3409 -0.15118,0.64685 -0.61707,0.68335c-0.46588,0.0365 -0.94499,-0.21026 -1.07008,-0.55117c-0.12509,-0.3409 0.15117,-0.64686 0.61706,-0.68336c0.22347,-0.01751 -0.35508,-1.30379 -0.16609,-1.21181c0.20505,0.09976 1.17104,1.58559 1.23613,1.76299z" fill="#aeb5b1" stroke="none" stroke-width="0" stroke-linecap="butt"></path><path d="M113.46993,161.48514c0.12509,0.3409 -0.08252,0.64146 -0.4637,0.67134c-0.38119,0.02987 -0.7916,-0.22229 -0.9167,-0.5632c-0.12509,-0.3409 -0.18347,-1.50963 0.19772,-1.53949c0.38119,-0.02987 1.05758,1.09043 1.18267,1.43134z" fill="#aeb5b1" stroke="none" stroke-width="0" stroke-linecap="butt"></path><path d="M110.00782,162.3702c0.10425,0.28409 -0.04015,0.53231 -0.32252,0.55445c-0.28236,0.02212 -0.59577,-0.19024 -0.69999,-0.47433c-0.05955,-0.16229 -0.62816,-0.77466 -0.54608,-0.87805c0.06161,-0.07761 0.74749,0.33311 0.86859,0.32362c0.28238,-0.02211 0.59578,0.19023 0.70001,0.47433z" fill="#aeb5b1" stroke="none" stroke-width="0" stroke-linecap="butt"></path><path d="M117.33906,162.28267c-0.42354,0.03316 -0.9764,-0.08082 -1.10147,-0.42171c-0.12509,-0.3409 0.05882,-1.23228 0.48237,-1.26546c0.14438,-0.0113 -0.80546,-1.25852 -0.33268,-1.15345c0.26998,0.06001 1.2436,1.48595 1.32605,1.71062c0.12509,0.3409 0.04924,1.09679 -0.37428,1.13z" fill="#aeb5b1" stroke="none" stroke-width="0" stroke-linecap="butt"></path><path d="M101.57426,161.60376c0.68821,1.87551 0.18996,3.76315 -2.27893,4.6251c-0.95162,0.33225 -2.45917,0.3645 -3.91405,0.40389c-6.7974,0.18401 -10.58192,-2.91841 -11.53539,-5.51686c-0.95348,-2.59843 2.09136,-3.81863 6.86795,-4.19286c4.77659,-0.37421 9.90694,2.0823 10.86042,4.68073z" fill="#ffea00" stroke="none" stroke-width="0" stroke-linecap="butt"></path><path d="M78.60309,156.19259c0.85618,2.33328 0.07759,3.54992 -4.04017,3.87253c-4.11772,0.3226 -9.23159,-1.91411 -10.08778,-4.24737c-0.85618,-2.33328 0.65982,-3.21259 4.77757,-3.5352c4.11772,-0.3226 8.4942,1.57672 9.3504,3.91005z" fill="#ffea00" stroke="none" stroke-width="0" stroke-linecap="butt"></path><path d="M109.12552,156.76471c0.67003,1.82592 -1.18415,2.06833 -4.54423,2.33159c-3.36007,0.26325 -6.83688,-1.24078 -7.40117,-2.77861c-0.56429,-1.53785 1.50681,-2.19242 4.86689,-2.45564c3.36007,-0.26325 6.51424,1.36484 7.07852,2.9027z" fill="#ffea00" stroke="none" stroke-width="0" stroke-linecap="butt"></path><path d="M45.1586,137.07413c1.65172,2.77188 2.30963,4.95615 0.86414,5.2917c-1.44553,0.33553 -4.58806,-1.68882 -6.23978,-4.46068c-1.65172,-2.77188 -1.33366,-4.63748 0.11186,-4.97303c1.44553,-0.33553 3.61207,1.37014 5.2638,4.14204z" fill="#ffea00" stroke="none" stroke-width="0" stroke-linecap="butt"></path><path d="M21.92791,139.1978c0.97294,2.65146 0.47983,4.90135 -1.10138,5.02521c-1.58121,0.12387 -3.65176,-1.92514 -4.6247,-4.57661c-0.97294,-2.65146 -0.47984,-4.90132 1.10137,-5.0252c1.58121,-0.12387 3.65176,1.92512 4.6247,4.5766z" fill="#ffea00" stroke="none" stroke-width="0" stroke-linecap="butt"></path><path d="M-12.1058,130.06011c1.02157,2.78404 0.84265,4.52715 -1.46328,4.70783c-2.30593,0.18064 -5.26919,-1.3163 -6.2908,-4.10035c-1.02157,-2.78404 -0.68813,-4.4405 1.6178,-4.62116c2.30593,-0.18064 5.1147,1.22965 6.13627,4.01368z" fill="#ffea00" stroke="none" stroke-width="0" stroke-linecap="butt"></path><path d="M-13.12572,123.5269c-0.8742,-1.09898 0.40113,-3.06304 2.97893,-4.03151c2.5778,-0.96847 5.3762,-0.86267 6.25037,0.23631c0.8742,1.09898 -0.21045,2.98561 -2.74034,4.01282c-2.3392,0.94978 -5.61475,0.88138 -6.48894,-0.2176z" fill="#ffea00" stroke="none" stroke-width="0" stroke-linecap="butt"></path><path d="M15.45386,128.13556c0.2034,1.51286 -1.96708,2.00342 -4.73427,1.8179c-2.76717,-0.18553 -5.87747,-1.80366 -6.08087,-3.3165c-0.2034,-1.51286 2.52831,-2.14616 5.29549,-1.96064c2.76717,0.18553 5.31628,1.94641 5.51966,3.45924z" fill="#ffea00" stroke="none" stroke-width="0" stroke-linecap="butt"></path><path d="M7.24382,131.2868c3.05745,2.744 4.36138,6.38436 2.04628,7.83327c-2.31511,1.4489 -7.37257,0.15773 -10.43002,-2.58627c-1.39528,-1.25226 -3.03511,-2.68048 -3.49875,-3.94739c-0.55234,-1.50921 0.29961,-2.81015 1.55819,-3.59784c2.31511,-1.4489 7.26688,-0.44579 10.3243,2.2982z" fill="#ffea00" stroke="none" stroke-width="0" stroke-linecap="butt"></path><path d="M41.92244,147.083c-1.03836,1.97107 -4.56456,1.56293 -7.97644,0.45628c-3.41187,-1.10664 -5.69041,-3.52251 -5.08924,-5.39594c0.60116,-1.87344 4.06576,-1.91898 7.47762,-0.81232c3.41187,1.10664 6.62499,3.78364 5.58804,5.75198z" fill="#ffea00" stroke="none" stroke-width="0" stroke-linecap="butt"></path><path d="M56.9733,150.58347c2.01133,1.52076 3.07132,3.27323 1.76211,4.32719c-1.30919,1.05396 -3.95221,0.47417 -5.96355,-1.04661c-2.01133,-1.52076 -3.07132,-3.27321 -1.7621,-4.32719c1.30919,-1.05396 3.95221,-0.47418 5.96355,1.0466z" fill="#ffea00" stroke="none" stroke-width="0" stroke-linecap="butt"></path><path d="M85.02538,148.74273c1.95563,2.04201 3.2223,4.32204 1.75561,5.05481c-1.4667,0.73278 -4.47962,-0.30987 -6.43528,-2.35187c-1.95563,-2.04201 -3.62899,-4.0926 -2.16229,-4.8254c1.4667,-0.73278 4.88634,0.08044 6.84198,2.12243z" fill="#ffea00" stroke="none" stroke-width="0" stroke-linecap="butt"></path><path d="M98.92448,162.07476c0.70701,1.92673 -1.19501,2.89235 -4.48921,3.15042c-3.29419,0.25807 -6.72573,-1.60672 -7.43273,-3.53343c-0.70701,-1.92673 1.66313,-2.73146 4.95732,-2.98953c3.29419,-0.25807 6.25759,1.44584 6.96461,3.37258z" fill="none" stroke="#000e25" stroke-width="1.2" stroke-linecap="butt"></path><path d="M76.63299,155.95182c0.47998,1.30807 -0.45268,2.62018 -3.15391,2.83178c-2.70124,0.21161 -6.03236,-1.55667 -6.51237,-2.86472c-0.47998,-1.30807 1.13445,-1.93275 3.83567,-2.14435c2.70124,-0.21161 5.3506,0.86925 5.83061,2.17731z" fill="none" stroke="#000e25" stroke-width="1.05" stroke-linecap="butt"></path><path d="M5.94279,133.07093c2.06048,1.79002 3.48084,3.74391 1.74768,4.88189c-1.73318,1.138 -5.24409,0.31431 -7.30455,-1.47569c-2.06048,-1.79002 -3.5513,-3.93593 -1.81813,-5.07393c1.73318,-1.138 5.31457,-0.12228 7.37502,1.66774z" fill="none" stroke="#000e25" stroke-width="1.2" stroke-linecap="butt"></path><path d="M-13.07693,130.64656c0.63564,1.73229 -0.13087,3.23698 -1.71208,3.36088c-1.58121,0.12387 -3.37833,-1.18 -4.014,-2.9123c-0.63564,-1.73229 0.13087,-3.23698 1.71208,-3.36088c1.58121,-0.12387 3.37833,1.18 4.014,2.9123z" fill="none" stroke="#000e25" stroke-width="1" stroke-linecap="butt"></path><path d="M13.91056,127.9396c0.36323,0.98989 -1.06816,1.33488 -3.13251,1.4966c-2.06435,0.16172 -4.14975,-0.82967 -4.51298,-1.81955c-0.36323,-0.98989 1.24875,-1.55303 3.37112,-1.51529c2.05529,0.03654 3.91117,0.84836 4.2744,1.83825z" fill="none" stroke="#000e25" stroke-width="0.5" stroke-linecap="butt"></path><path d="M12.44651,127.92258c0.22702,0.61868 -0.65163,0.90712 -1.91242,1.00591c-1.26078,0.09878 -2.69309,-0.57436 -2.92014,-1.19307c-0.22702,-0.61868 0.83723,-0.9486 2.09801,-1.0474c1.26078,-0.09878 2.50752,0.61584 2.73453,1.23452z" fill="none" stroke="#000e25" stroke-width="0.5" stroke-linecap="butt"></path><path d="M10.57743,127.67838c0.03182,0.08679 -0.21182,0.17822 -0.54425,0.20427c-0.33242,0.02604 -0.6277,-0.02318 -0.65955,-0.10997c-0.03182,-0.08679 0.21182,-0.17823 0.54424,-0.20427c0.33242,-0.02604 0.62772,0.02317 0.65955,0.10996z" fill="#000e25" stroke="#000e25" stroke-width="0.5" stroke-linecap="butt"></path><path d="M-15.35728,130.92847c0.07782,0.21211 -0.03711,0.398 -0.25671,0.41522c-0.21961,0.0172 -0.46074,-0.1408 -0.53857,-0.35292c-0.07782,-0.21211 0.03709,-0.39803 0.25671,-0.41522c0.21961,-0.0172 0.46076,0.1408 0.53859,0.35292z" fill="#000e25" stroke="#000e25" stroke-width="0.5" stroke-linecap="butt"></path><path d="M-8.54244,121.68563c0.25254,-0.01978 0.50989,0.10746 0.57474,0.28423c0.06485,0.17676 -0.08729,0.33609 -0.33984,0.35588c-0.25254,0.01978 -0.50988,-0.10747 -0.57474,-0.28424c-0.06485,-0.17676 0.08728,-0.33608 0.33983,-0.35587z" fill="#000e25" stroke="#000e25" stroke-width="0.5" stroke-linecap="butt"></path><path d="M3.49837,134.41538c0.21127,0.32228 0.47552,0.75829 0.12033,0.85562c-0.35519,0.09733 -0.92867,-0.23468 -1.13995,-0.55695c-0.21127,-0.32228 -0.40908,-0.63781 -0.05389,-0.73514c0.35519,-0.09733 0.86224,0.11421 1.07349,0.43648z" fill="#000e25" stroke="#000e25" stroke-width="0.5" stroke-linecap="butt"></path><path d="M19.14372,139.66737c0.08432,0.2298 0.07255,0.42236 -0.02626,0.4301c-0.09883,0.00776 -0.24729,-0.17225 -0.33162,-0.40206c-0.08432,-0.2298 -0.07254,-0.42238 0.02626,-0.43011c0.09883,-0.00776 0.24727,0.17225 0.33162,0.40206z" fill="none" stroke="#000e25" stroke-width="0.5" stroke-linecap="butt"></path><path d="M20.65744,139.77926c0.6097,1.66158 0.40075,3.06366 -0.46674,3.13162c-0.86748,0.06796 -2.06497,-1.22393 -2.67467,-2.88552c-0.6097,-1.66158 -0.40075,-3.06366 0.46674,-3.13162c0.86748,-0.06796 2.06497,1.22393 2.67467,2.88552z" fill="none" stroke="#000e25" stroke-width="0.5" stroke-linecap="butt"></path><path d="M18.34684,137.88594c0.64785,-0.05075 1.48855,0.76786 1.87771,1.82846c0.38917,1.06058 0.17947,1.96152 -0.46837,2.01225c-0.64785,0.05075 -1.48856,-0.76787 -1.87773,-1.82846c-0.38917,-1.06058 -0.17947,-1.9615 0.46839,-2.01226z" fill="none" stroke="#000e25" stroke-width="0.5" stroke-linecap="butt"></path><path d="M35.96685,144.9346c0.07134,0.19442 -0.10224,0.37022 -0.38775,0.39257c-0.28551,0.02238 -0.57477,-0.11713 -0.64612,-0.31155c-0.07134,-0.19442 0.10224,-0.37022 0.38775,-0.39257c0.28551,-0.02238 0.57477,0.11713 0.64612,0.31155z" fill="#000e25" stroke="#000e25" stroke-width="0.5" stroke-linecap="butt"></path><path d="M43.36291,138.00044c0.12974,0.35354 0.05687,0.65407 -0.16274,0.67127c-0.21961,0.0172 -0.5028,-0.25542 -0.63253,-0.60894c-0.12974,-0.35354 -0.05686,-0.65408 0.16275,-0.67128c0.21961,-0.0172 0.5028,0.25544 0.63252,0.60896z" fill="#000e25" stroke="#000e25" stroke-width="0.5" stroke-linecap="butt"></path><path d="M55.44669,152.69601c0.07922,0.21592 -0.07399,0.40797 -0.34225,0.42899c-0.26825,0.02101 -0.54993,-0.13697 -0.62914,-0.35288c-0.07922,-0.21592 0.07403,-0.40798 0.34225,-0.42898c0.26825,-0.02101 0.54992,0.13698 0.62914,0.35287z" fill="#000e25" stroke="#000e25" stroke-width="0.5" stroke-linecap="butt"></path><path d="M72.56793,156.49819c0.09172,0.25 -0.17724,0.47955 -0.60077,0.51274c-0.42354,0.03316 -0.84125,-0.14257 -0.93299,-0.39259c-0.09172,-0.25 0.17724,-0.47955 0.60077,-0.51274c0.42354,-0.03316 0.84125,0.14257 0.93299,0.39259z" fill="#000e25" stroke="#000e25" stroke-width="0.5" stroke-linecap="butt"></path><path d="M83.14174,150.48394c0.11258,0.3068 0.03219,0.56899 -0.17959,0.58557c-0.21175,0.0166 -0.47469,-0.2187 -0.58729,-0.5255c-0.11258,-0.3068 -0.03218,-0.56898 0.1796,-0.58557c0.21175,-0.0166 0.47469,0.2187 0.58729,0.5255z" fill="#000e25" stroke="#000e25" stroke-width="0.5" stroke-linecap="butt"></path><path d="M104.11097,157.03271c0.05839,0.15909 -0.22621,0.31404 -0.63562,0.34614c-0.40945,0.03206 -0.78865,-0.07088 -0.84704,-0.22997c-0.05839,-0.15909 0.22622,-0.31405 0.63563,-0.34614c0.40945,-0.03206 0.78864,0.07088 0.84704,0.22999z" fill="#000e25" stroke="#000e25" stroke-width="0.5" stroke-linecap="butt"></path><path d="M110.15077,170.33907c0.05422,0.14772 -0.01631,0.27642 -0.15749,0.28748c-0.14118,0.01105 -0.29955,-0.09972 -0.35379,-0.24744c-0.05422,-0.14772 0.01628,-0.27644 0.15746,-0.28751c0.14118,-0.01105 0.29957,0.0997 0.35378,0.24744z" fill="#000e25" stroke="#000e25" stroke-width="0.5" stroke-linecap="butt"></path><path d="M92.42902,160.34701c2.00946,-0.15743 3.98155,0.64997 4.40477,1.80334c0.42323,1.15339 -0.86267,2.21601 -2.87212,2.37345c-2.00946,0.15743 -4.5712,-0.75194 -5.1394,-2.63481c-0.34933,-1.15763 1.59728,-1.38456 3.60675,-1.542z" fill="none" stroke="#000e25" stroke-width="0.5" stroke-linecap="butt"></path><path d="M105.86942,157.34318c0.23837,0.64959 -0.0507,0.72012 -1.38484,0.82463c-1.33415,0.10452 -3.41275,-0.52133 -3.65113,-1.17094c-0.23837,-0.64959 0.87493,-0.98225 2.20906,-1.08677c1.33415,-0.10452 2.58854,0.78345 2.8269,1.43307z" fill="none" stroke="#000e25" stroke-width="0.5" stroke-linecap="butt"></path><path d="M111.8717,170.35618c0.26759,0.72917 0.15482,1.19791 -0.70168,1.26499c-0.8565,0.06712 -2.60002,-0.89827 -2.86754,-1.62746c-0.26759,-0.72917 -0.19684,-1.14522 0.65964,-1.21232c0.8565,-0.06712 2.64201,0.84561 2.90958,1.57475z" fill="none" stroke="#000e25" stroke-width="0.5" stroke-linecap="butt"></path><path d="M75.1572,156.58835c0.32593,0.88823 -0.80733,1.47083 -2.56973,1.6089c-1.76242,0.13807 -3.55424,-0.90682 -3.88016,-1.79504c-0.32593,-0.88823 0.97268,-1.18747 2.73508,-1.32554c1.76242,-0.13807 3.38888,0.62343 3.71481,1.51167z" fill="none" stroke="#000e25" stroke-width="0.5" stroke-linecap="butt"></path><path d="M56.75691,152.59711c0.30648,0.83522 0.35903,1.33007 -0.67865,1.41136c-1.03768,0.08131 -2.73461,-0.67986 -3.04106,-1.51506c-0.30648,-0.83522 0.11537,-0.87335 1.15304,-0.95464c1.03768,-0.08131 2.26022,0.22312 2.56667,1.05834z" fill="none" stroke="#000e25" stroke-width="0.5" stroke-linecap="butt"></path><path d="M57.77696,153.03579c0.21681,0.59086 0.02861,0.857 -0.15999,1.128c-0.18382,0.26409 -0.35544,0.54178 -1.10088,0.45246c-1.10806,-0.13275 -2.39925,-0.66232 -3.26425,-1.31804c-0.30243,-0.22926 -0.7158,-0.33113 -0.82668,-0.63335c-0.42808,-1.16666 -0.72259,-1.91894 0.72687,-2.03251c1.44947,-0.11355 4.19689,1.2368 4.62498,2.40346z" fill="none" stroke="#000e25" stroke-width="0.5" stroke-linecap="butt"></path><path d="M39.99841,146.47226c-0.30098,1.60114 -2.52542,1.33777 -5.16286,0.52412c-2.63745,-0.81369 -4.60027,-2.37842 -4.31085,-3.42734c0.3423,-1.24046 2.92532,-1.41848 5.56277,-0.60484c2.63745,0.81369 4.15434,2.21315 3.91094,3.50805z" fill="none" stroke="#000e25" stroke-width="0.75" stroke-linecap="butt"></path><path d="M38.6579,145.9152c0.12528,0.34143 -0.35141,0.33544 -0.57471,0.45752c-0.4617,0.25245 -1.10519,0.343 -1.97185,0.21116c-1.66587,-0.25341 -3.31013,-0.91044 -3.69442,-1.95777c-0.38431,-1.04733 0.4989,-1.10094 2.09658,-1.22613c1.59768,-0.12516 3.76008,1.46786 4.14441,2.5152z" fill="none" stroke="#000e25" stroke-width="0.5" stroke-linecap="butt"></path><path d="M31.2415,131.28854c2.63151,2.08734 4.66562,4.63225 2.84266,6.00024c-1.09293,0.82014 -3.81386,0.83318 -6.23068,0.01284c-1.61436,-0.54793 -2.9864,-1.64019 -4.04021,-2.47608c-2.63151,-2.08734 -3.57715,-4.17426 -1.7542,-5.54224c1.82296,-1.36798 6.55093,-0.0821 9.18245,2.00525z" fill="#ffea00" stroke="none" stroke-width="0" stroke-linecap="butt"></path><path d="M29.82294,132.05049c1.74224,1.47913 3.4572,3.15287 2.12984,4.05439c-1.32736,0.90153 -4.65885,-0.19213 -6.40107,-1.67125c-1.74224,-1.47913 -2.85673,-2.85418 -1.52933,-3.75569c1.32737,-0.90152 4.05837,-0.10657 5.80059,1.37256z" fill="none" stroke="#000e25" stroke-width="0.75" stroke-linecap="butt"></path><path d="M29.37548,132.61901c1.2099,1.01102 1.70964,2.09464 0.96068,2.6153c-0.74892,0.52067 -2.78967,0.05985 -3.99953,-0.95114c-1.2099,-1.01102 -1.88581,-2.57473 -1.13686,-3.09542c0.74892,-0.52067 2.96582,0.42023 4.1757,1.43124z" fill="none" stroke="#000e25" stroke-width="0.5" stroke-linecap="butt"></path><path d="M28.23295,133.22401c0.10704,0.29165 -0.08663,0.55005 -0.43251,0.57717c-0.3459,0.02709 -0.71307,-0.18738 -0.82008,-0.47902c-0.10704,-0.29165 0.08664,-0.55004 0.43252,-0.57715c0.3459,-0.02709 0.71305,0.18736 0.82008,0.47902z" fill="#001026" stroke="#000e25" stroke-width="0.5" stroke-linecap="butt"></path><path d="M4.68541,133.44414c1.55009,1.15936 2.35249,2.5482 1.41592,3.31428c-0.93658,0.76609 -3.25743,0.6193 -4.80756,-0.54006c-1.55009,-1.15936 -2.47579,-2.88425 -1.53924,-3.65032c0.93658,-0.76609 3.38079,-0.28324 4.93088,0.87613z" fill="none" stroke="#000e25" stroke-width="0.5" stroke-linecap="butt"></path><path d="M-11.3727,123.3638c-0.82574,-0.90776 -0.09793,-2.0648 1.53869,-2.82127c1.63663,-0.75647 3.33049,-0.95592 4.15623,-0.04816c0.82574,0.90776 0.09789,2.0648 -1.53874,2.82129c-1.63661,0.75648 -3.33048,0.95591 -4.15621,0.04816z" fill="none" stroke="#000e25" stroke-width="0.5" stroke-linecap="butt"></path><path d="M-10.42294,122.8042c-0.53802,-0.5717 -0.06785,-1.21762 1.01506,-1.74457c1.08292,-0.52694 2.49858,-0.54804 3.0366,0.02366c0.53802,0.5717 -0.05145,1.22696 -1.13437,1.75389c-1.08292,0.52694 -2.37929,0.53868 -2.91731,-0.033z" fill="none" stroke="#000e25" stroke-width="0.25" stroke-linecap="butt"></path><path d="M93.88461,162.40947c0.11675,0.31817 -0.22352,0.6102 -0.76,0.65222c-0.53647,0.04202 -1.11133,-0.30529 -1.22809,-0.62346c-0.11675,-0.31817 0.17237,-0.6062 0.70887,-0.64822c0.53647,-0.04202 1.16248,0.30128 1.27922,0.61945z" fill="#000e25" stroke="none" stroke-width="0" stroke-linecap="butt"></path><path d="M107.39907,157.50098c0.15165,1.08102 -1.60239,1.4474 -4.00234,1.29499c-2.39999,-0.15244 -4.04441,-1.14325 -4.19603,-2.22428c-0.15165,-1.08102 1.53034,-1.3571 3.93032,-1.20469c2.39999,0.15244 4.11643,1.05293 4.26809,2.13398z" fill="none" stroke="#000e27" stroke-width="0.5" stroke-linecap="butt"></path><path d="M84.26464,150.36206c0.83837,1.03306 1.17382,1.84801 0.52706,2.09873c-0.64675,0.25074 -2.11606,-0.42292 -3.0804,-1.3365c-1.07089,-1.01452 -1.45345,-2.10832 -0.80667,-2.35904c0.64675,-0.25074 2.52168,0.56374 3.36003,1.5968z" fill="none" stroke="#000e25" stroke-width="0.5" stroke-linecap="butt"></path><path d="M84.75931,150.03901c1.33882,1.65845 2.07847,2.96365 0.8106,3.45111c-1.26787,0.48748 -3.42977,-0.88129 -4.76858,-2.53973c-1.33882,-1.65845 -1.95764,-2.63443 -0.68979,-3.12193c1.26787,-0.48748 3.30896,0.55208 4.64777,2.21053z" fill="none" stroke="#001027" stroke-width="0.75" stroke-linecap="butt"></path><path d="M44.36212,137.84114c0.67413,1.05749 0.76356,1.81976 -0.06696,2.03676c-0.83052,0.21699 -1.7645,-0.40207 -2.43862,-1.45956c-0.67413,-1.05749 -0.99825,-1.88603 -0.16772,-2.10304c0.83052,-0.21699 1.99918,0.46835 2.67333,1.52582z" fill="none" stroke="#001025" stroke-width="0.5" stroke-linecap="butt"></path><path d="M44.88321,137.71699c1.14048,1.81314 1.12793,3.01837 -0.05684,3.32084c-0.45501,0.11617 -0.81421,-0.09183 -1.28186,-0.3279c-0.74998,-0.37863 -1.60894,-1.04261 -2.3114,-2.15939c-1.14048,-1.81314 -1.60314,-3.02346 -0.41837,-3.32593c1.18476,-0.30249 2.92802,0.67926 4.06851,2.4924z" fill="none" stroke="#001025" stroke-width="0.75" stroke-linecap="butt"></path><path d="M-13.11576,130.61875c0.78087,1.74729 0.45552,3.13536 -1.09369,3.338c-1.54919,0.20261 -3.61579,-1.24731 -4.39667,-2.99464c-0.78087,-1.74729 -0.40092,-2.8433 1.14826,-3.04595c1.54919,-0.20261 3.56124,0.95529 4.34209,2.7026z" fill="none" stroke="#001027" stroke-width="0.75" stroke-linecap="butt"></path><path d="M-14.05936,130.75515c0.42114,1.14771 0.2358,2.20404 -0.76658,2.28257c-1.00239,0.07852 -2.35506,-0.89962 -2.77619,-2.04735c-0.42114,-1.14771 -0.24163,-2.07657 0.76075,-2.15512c1.00239,-0.07852 2.36088,0.77218 2.78202,1.9199z" fill="none" stroke="#001027" stroke-width="0.5" stroke-linecap="butt"></path><path d="M209.34584,194.83161c-0.03748,0.14271 0.35864,0.38846 0.97159,1.27002c0.27996,0.40266 -0.37131,1.34406 0.72837,1.75085c1.41081,0.52188 4.27288,0.40824 6.57248,0.78264c2.84186,0.4627 5.03138,1.35626 5.03138,1.35626c0,0 -5.49264,2.00692 -9.87109,0.85768c-1.03407,-0.27142 -2.80963,-0.87491 -4.50635,-1.85143c-1.50988,-0.86901 -2.94135,-2.1118 -3.97758,-2.47306c-0.26294,-0.09168 -1.05672,-0.12847 -1.41589,-0.12135c-0.75664,0.01499 -1.56081,0.12492 -2.26363,0.24081c-0.66999,0.11048 -0.6866,0.25797 -1.12559,0.11569c-0.43899,-0.14228 -0.23038,-0.55515 -0.23038,-0.55515c0,0 1.04399,-0.82857 1.34893,-1.61331c0.18937,-0.48734 0.3087,-1.93222 0.76777,-2.88128c0.29996,-0.62011 0.96285,-0.68967 1.13059,-1.31586c0.37322,-1.39333 0.03324,-2.63173 0.03324,-2.63173c0,0 0.75325,1.77823 3.04066,2.52084c0.93041,0.30206 2.56602,0.05608 3.73457,0.16418c1.98399,0.18353 3.52951,0.61753 4.5844,0.89441c4.43249,1.16341 9.21987,6.28282 9.21987,6.28282c0,0 -0.49002,0.07708 -1.76377,-0.40771c-2.24814,-0.85563 -6.09401,-2.54604 -7.96863,-2.95902c-3.80609,-0.83841 -3.986,0.36425 -4.04097,0.5737z" fill="#885058" stroke="#000e25" stroke-width="1" stroke-linecap="butt"></path></g><path d="M36.05396,87.26969c0.23856,0.71105 -0.47249,0.94961 -0.47249,0.94961l-0.43337,0.08221c-1.06551,0.94613 -2.1427,1.85064 -3.13278,2.85599c-0.44186,2.27668 -1.58262,4.48264 -2.78927,6.95226c-2.45508,5.02474 -5.01457,9.76844 -8.015,14.48911c-1.04309,1.64103 -2.12632,3.25557 -3.20003,4.8767l-0.74168,1.11982c-0.13333,0.20791 -0.36647,0.34568 -0.63179,0.34568c-0.41421,0 -0.75,-0.33579 -0.75,-0.75c0,-0.11279 0.0249,-0.21976 0.06949,-0.31572l0.59477,-1.35914l0.16818,0.0736c0.77199,-2.8756 2.24151,-5.58017 3.43991,-8.3187c2.71931,-6.21407 5.31009,-11.76802 9.72088,-17.00026c0.28335,-0.33507 0.57688,-0.65688 0.87826,-0.96914c0.02362,-1.09212 -0.13145,-2.1805 -0.0659,-3.22644c-0.80486,1.12845 -1.60972,2.25689 -2.41463,3.38529c-3.55968,5.29721 -7.00266,10.65238 -10.43765,16.03075c-1.60839,2.51835 -3.04695,5.23246 -4.98762,7.4935l0.14331,0.09153l-0.80063,1.25359c-0.13206,0.21415 -0.36878,0.35689 -0.63884,0.35689c-0.41421,0 -0.75,-0.33579 -0.75,-0.75c0,-0.07513 0.01105,-0.14768 0.03161,-0.21611l0.352,-1.27552c0.86532,-3.13559 2.06538,-6.11268 2.56332,-9.32746c0.10513,-0.67871 0.15562,-1.28721 0.17137,-1.86929c-1.54201,5.09352 -3.0932,10.0681 -5.10926,14.99567c-0.74623,1.82334 -1.45902,3.64817 -2.33514,5.41334l-0.66006,1.32878c-0.11988,0.25467 -0.37883,0.43095 -0.67895,0.43095c-0.41421,0 -0.75,-0.33579 -0.75,-0.75c0,-0.0115 0.00026,-0.02293 0.00077,-0.0343l0.05915,-1.49419l0.18131,0.00718c-0.09177,-1.30507 -0.03302,-2.64637 0.13741,-4.00622l-0.63882,1.11026c-0.12765,0.23159 -0.37414,0.38849 -0.65728,0.38849c-0.41421,0 -0.75,-0.33579 -0.75,-0.75c0,-0.03151 0.00194,-0.06258 0.00572,-0.09307l0.16339,-1.48016l0.27007,0.02981c0.02907,-0.49842 0.08534,-1.00796 0.16546,-1.52549c-0.23599,-0.10976 -0.40534,-0.33869 -0.43075,-0.60946l-0.15838,-1.48281l0.41788,-0.04463c0.12545,-4.55264 3.95214,-9.86648 5.98781,-13.60611c0.65603,-1.20516 3.03066,-4.55044 5.01748,-4.0841c0.29361,-1.15233 0.54709,-2.3407 0.56975,-3.37655c0.02028,-0.92725 -0.31534,-1.60741 -0.36038,-2.3889c-0.75498,1.18214 -1.50935,2.36412 -2.25101,3.55474c-4.74764,7.62154 -9.87572,14.9947 -13.74332,23.1051c0,0 -0.32282,0.67697 -0.99979,0.35414c-0.67697,-0.32282 -0.35414,-0.99979 -0.35414,-0.99979c3.89229,-8.16217 9.04636,-15.58272 13.82407,-23.25254c0.78585,-1.26153 1.58585,-2.51343 2.38585,-3.76602l0.00223,-0.00222l-0.00056,-0.00036l0.81107,-1.24731c0.1327,-0.21107 0.36767,-0.35135 0.6354,-0.35135c0.37139,0 0.67974,0.26995 0.73952,0.62434l0.27514,1.46094l-0.17507,0.03297c0.67183,2.78535 0.34157,5.41491 -0.34451,8.15695c0.01115,0.10083 0.02578,0.19855 0.0468,0.29085c0.49953,2.1937 0.35164,3.96784 0.01209,6.15998c-0.26863,1.73429 -0.73454,3.39926 -1.24429,5.05598c0.66456,-0.91344 1.33684,-1.76559 1.77727,-2.4552c3.71407,-5.81535 7.42663,-11.61435 11.27601,-17.34148c0.87298,-1.22408 1.74601,-2.44811 2.61905,-3.67214l0.67444,-0.9456c0.13544,-0.195 0.36102,-0.32266 0.61643,-0.32266c0.35342,0 0.64974,0.24445 0.72911,0.57349l0.38002,1.43441l-0.19377,0.05133c0.20404,0.75029 0.30915,1.47529 0.33255,2.18411c0.63897,-0.58208 1.29484,-1.14884 1.94901,-1.72971l0.95222,-0.38267c0,0 0.71105,-0.23856 0.94961,0.47249zM13.78562,97.41306c-0.33974,-0.19412 -1.21445,0.68817 -1.98219,1.60292c0.13618,0.13578 0.22045,0.3236 0.22045,0.5311c0,0.07709 -0.01163,0.15146 -0.03323,0.22145l-0.40488,1.42634l-0.00644,-0.00183l0.00073,0.02096c-0.12795,0.37409 -0.25531,0.74839 -0.38205,1.12291c-0.11804,0.52801 -0.31908,1.06149 -0.53292,1.58736c-1.38254,4.15181 -2.6837,8.33107 -3.86319,12.54629c-0.21692,0.7752 -0.30362,1.75481 -0.41058,2.74008c0.35166,-0.84112 0.69015,-1.6883 1.03655,-2.53471c2.43344,-5.94407 4.53733,-12.11269 6.11993,-18.36094c0.07301,-0.28826 0.15377,-0.59038 0.23782,-0.90195zM20.93846,110.23354c3.32339,-5.22207 6.91152,-10.94063 9.06156,-16.72901c-4.01194,5.14721 -6.42068,10.69409 -9.06156,16.72901z" fill="#ffea00" stroke="none" stroke-width="0.5" stroke-linecap="butt"></path><path d="M45.85007,90.56206c0.66531,0.34622 0.31909,1.01153 0.31909,1.01153l-0.4629,0.88953c-2.70093,5.19019 -5.19296,10.4823 -7.71113,15.7631c0.66588,0.34175 0.3248,1.00856 0.3248,1.00856l-0.66356,1.29726c-2.04869,4.00522 -3.94441,8.04565 -5.78591,12.15005c0,0 -0.12423,0.27688 -0.39076,0.39937c-1.51296,3.84765 -2.91511,7.73557 -4.20017,11.61655c0,0 -0.23578,0.71198 -0.94775,0.4762c-0.71198,-0.23578 -0.4762,-0.94775 -0.4762,-0.94775c2.81549,-8.501 6.18774,-17.03454 10.05333,-25.11265c2.77746,-5.80419 5.49627,-11.63501 8.46673,-17.34313l0.4629,-0.88953c0,0 0.34622,-0.66531 1.01153,-0.31909z" fill="#ffea00" stroke="none" stroke-width="0.5" stroke-linecap="butt"></path><path d="M46.98811,94.04037c0.67369,0.32961 0.34408,1.0033 0.34408,1.0033l-0.12308,0.25155c-3.28914,6.7226 -6.57263,13.448 -9.86878,20.16717c-2.88397,8.50863 -5.78428,17.01175 -8.67713,25.51737c0,0 -0.2415,0.71006 -0.95155,0.46856c-0.71006,-0.2415 -0.46856,-0.95155 -0.46856,-0.95155c2.90308,-8.5357 5.79925,-17.07379 8.71069,-25.60664c3.29649,-6.75438 6.60485,-13.50298 9.90795,-20.25412l0.12308,-0.25155c0,0 0.32961,-0.67369 1.0033,-0.34408z" fill="#ffea00" stroke="none" stroke-width="0.5" stroke-linecap="butt"></path><path d="M58.78834,87.54351c0.66206,0.35238 0.30968,1.01444 0.30968,1.01444l-0.59021,1.10891c-3.29224,6.18559 -6.6436,12.21969 -9.19115,18.7513c-3.27035,8.38479 -6.54071,16.76959 -9.81106,25.15438c0,0 -0.27253,0.69873 -0.97126,0.4262c-0.69873,-0.27253 -0.4262,-0.97126 -0.4262,-0.97126c3.27035,-8.38479 6.54071,-16.76959 9.81106,-25.15438c2.56912,-6.58692 5.94461,-12.67348 9.26449,-18.911l0.59021,-1.10891c0,0 0.35238,-0.66206 1.01444,-0.30968z" fill="#ffea00" stroke="none" stroke-width="0.5" stroke-linecap="butt"></path><path d="M64.28102,94.95764c0.68619,0.30274 0.38345,0.98892 0.38345,0.98892c-2.62372,5.94694 -5.76939,13.07696 -8.39311,19.0239c-3.63567,8.24065 -6.30126,16.75891 -9.13181,25.30625c0,0 -0.23578,0.71198 -0.94775,0.4762c-0.71198,-0.23578 -0.4762,-0.94775 -0.4762,-0.94775c2.84564,-8.59291 5.52822,-17.15533 9.18339,-25.44017c2.62372,-5.94694 5.24743,-11.89388 7.87115,-17.84083l0.52196,-1.18308c0,0 0.30274,-0.68619 0.98892,-0.38345z" fill="#ffea00" stroke="none" stroke-width="0.5" stroke-linecap="butt"></path><path d="M63.59,109.6025c0.6854,0.30452 0.38087,0.98992 0.38087,0.98992c-0.20301,0.45693 -0.43293,0.9744 -0.63594,1.43133c-3.66432,8.24738 -6.89026,16.53533 -9.96717,25.01866c0,0 -0.25572,0.70506 -0.96078,0.44933c-0.70506,-0.25572 -0.44933,-0.96078 -0.44933,-0.96078c3.08873,-8.51595 6.32806,-16.8371 10.00649,-25.11626c0.20301,-0.45693 0.40603,-0.91386 0.60904,-1.37079l0.0269,-0.06054c0,0 0.30452,-0.6854 0.98992,-0.38087z" fill="#ffea00" stroke="none" stroke-width="0.5" stroke-linecap="butt"></path><path d="M64.98156,122.15725c0.68271,0.31049 0.37222,0.9932 0.37222,0.9932c-0.41399,0.91028 -1.27246,2.79791 -1.68645,3.70819c-3.73274,8.2076 -6.76566,16.5853 -9.83768,25.06017c0,0 -0.25559,0.70511 -0.9607,0.44951c-0.70511,-0.25559 -0.44951,-0.9607 -0.44951,-0.9607c3.08545,-8.51191 6.13334,-16.92632 9.88247,-25.16997c0.41399,-0.91028 0.82798,-1.82056 1.24196,-2.73085l0.44449,-0.97734c0,0 0.31049,-0.68271 0.9932,-0.37222z" fill="#ffea00" stroke="none" stroke-width="0.5" stroke-linecap="butt"></path><path d="M88.83497,100.10989c0.64775,0.37804 0.26971,1.0258 0.26971,1.0258c-4.28449,7.34119 -8.68819,14.88664 -12.97269,22.22784c-3.17466,5.41562 -5.22056,11.9523 -7.26176,18.22865c-0.47582,1.6763 -0.94468,3.32808 -1.39927,4.92958c0,0 -0.10484,0.36934 -0.42874,0.5045c-0.169,0.47511 -0.34004,0.94604 -0.51368,1.41211c0,0 -0.26184,0.70281 -0.96465,0.44097c-0.70281,-0.26184 -0.44097,-0.96465 -0.44097,-0.96465c0.78191,-2.09877 1.51303,-4.28871 2.24192,-6.51228c1.3293,-4.68306 2.65859,-9.36612 3.98789,-14.04918l0.21757,-0.76649c0,0 0.2048,-0.7215 0.9263,-0.5167c0.19601,0.05564 0.32365,0.14941 0.40561,0.25649c0.59961,-1.28144 1.24057,-2.52565 1.93428,-3.7191c4.28449,-7.34119 8.56898,-14.68239 12.85348,-22.02358l0.11921,-0.20426c0,0 0.37804,-0.64775 1.0258,-0.26971z" fill="#ffea00" stroke="none" stroke-width="0.5" stroke-linecap="butt"></path><path d="M92.03909,118.92195c0.66378,0.34913 0.31465,1.01291 0.31465,1.01291l-0.68188,1.29643c-0.68087,1.29451 -1.35161,2.55263 -1.90962,3.90524c-3.43707,8.31784 -6.87415,16.63569 -10.31122,24.95353c0,0 -0.28642,0.69315 -0.97958,0.40673c-0.69315,-0.28642 -0.40673,-0.97958 -0.40673,-0.97958c3.43707,-8.31784 6.87415,-16.63569 10.31122,-24.95353c0.57726,-1.39482 1.266,-2.69528 1.96836,-4.03065l0.68188,-1.29643c0,0 0.34913,-0.66378 1.01291,-0.31465z" fill="#ffea00" stroke="none" stroke-width="0.5" stroke-linecap="butt"></path><path d="M99.79672,125.15648c0.70527,0.25514 0.45013,0.96041 0.45013,0.96041l-0.15117,0.41788c-3.05042,8.4321 -6.4967,16.74131 -8.36497,25.51703c0,0 -0.15617,0.73356 -0.88973,0.57739c-0.73356,-0.15617 -0.57739,-0.88973 -0.57739,-0.88973c1.88292,-8.84456 5.34739,-17.21726 8.42155,-25.71498l0.15117,-0.41788c0,0 0.25514,-0.70527 0.96041,-0.45013z" fill="#ffea00" stroke="none" stroke-width="0.5" stroke-linecap="butt"></path><path d="M107.90699,133.53516c0.69463,0.28283 0.4118,0.97746 0.4118,0.97746l-0.1167,0.28662c-1.58038,3.88143 -2.84525,8.49453 -5.08353,12.16751c-0.03295,0.09951 -0.06591,0.19903 -0.09886,0.29854l0.09149,0.03725l-0.55908,1.37311c-0.10752,0.28255 -0.38092,0.48332 -0.7012,0.48332c-0.41421,0 -0.75,-0.33579 -0.75,-0.75c0,-0.08855 0.01535,-0.17352 0.04353,-0.2524c0.15718,-0.47465 0.76102,-2.29808 0.9182,-2.77273c0,0 0.09389,-0.28353 0.34209,-0.43349c0.14444,-0.30834 0.30229,-0.63286 0.44852,-0.99198c1.31986,-3.2416 2.63973,-6.4832 3.95959,-9.7248l0.1167,-0.28662c0,0 0.28283,-0.69463 0.97746,-0.4118z" fill="#ffea00" stroke="none" stroke-width="0.5" stroke-linecap="butt"></path><path d="M113.18876,149.09769c0.70596,0.25323 0.45272,0.95919 0.45272,0.95919l-0.41407,1.15436c-0.53602,1.49432 -0.97733,2.77557 -1.62785,4.02892c-0.0059,0.05595 -0.01448,0.09052 -0.01448,0.09052l-0.01646,0.06628l0.13941,0.05001l-0.50056,1.39547c-0.09914,0.29818 -0.38038,0.51321 -0.71185,0.51321c-0.41421,0 -0.75,-0.33579 -0.75,-0.75c0,-0.0682 0.0091,-0.13428 0.02616,-0.19709l0.35754,-1.43947c0,0 0.0857,-0.34505 0.37666,-0.501c0.11776,-1.25992 0.88242,-2.57262 1.30953,-3.76332l0.41407,-1.15436c0,0 0.25323,-0.70596 0.95919,-0.45272z" fill="#ffea00" stroke="none" stroke-width="0.5" stroke-linecap="butt"></path><path d="M115.88045,142.13293c0,-0.41421 0.33579,-0.75 0.75,-0.75c0.41421,0 0.75,0.33579 0.75,0.75c0,0.41421 -0.33579,0.75 -0.75,0.75c-0.41421,0 -0.75,-0.33579 -0.75,-0.75z" fill="#ffea00" stroke="none" stroke-width="0.5" stroke-linecap="butt"></path></g></g></svg>