<svg version="1.1" xmlns="http://www.w3.org/2000/svg" xmlns:xlink="http://www.w3.org/1999/xlink" width="136.67579" height="80.5" viewBox="0,0,136.67579,80.5"><g transform="translate(-149.64096,-139.75)"><g data-paper-data="{&quot;isPaintingLayer&quot;:true}" fill-rule="nonzero" stroke-linejoin="miter" stroke-miterlimit="10" stroke-dasharray="" stroke-dashoffset="0" style="mix-blend-mode: normal"><path d="M204.82949,180c0,-21.81525 17.68475,-39.5 39.5,-39.5c21.81525,0 39.5,17.68475 39.5,39.5c0,21.81525 -17.68475,39.5 -39.5,39.5c-21.81525,0 -39.5,-17.68475 -39.5,-39.5z" fill="#d8d8d8" stroke="#000000" stroke-width="1.5" stroke-linecap="butt"></path><g><path d="M165.8352,174.20735l2.0434,-6.00684l9.54027,3.24539l-2.0434,6.00684z" fill="#989898" stroke="#000000" stroke-width="1" stroke-linecap="butt"></path><path d="M188.90185,188.46388c1.02614,-3.01646 4.30333,-4.62995 7.31981,-3.60383c3.01646,1.02614 4.62995,4.30333 3.60383,7.31981c-1.02614,3.01646 -4.30333,4.62995 -7.31981,3.60383c-3.01646,-1.02614 -4.62995,-4.30333 -3.60383,-7.31981z" fill="none" stroke="#000000" stroke-width="0.5" stroke-linecap="butt"></path><path d="M194.72688,188.67624l-23.60813,-8.03096l3.36264,-11.04382l32.41847,11.02805l7.98577,3.75889l-10.76765,4.41885l-5.84878,17.19324l-9.51411,-3.2365l2.63714,-7.75225z" fill="#989898" stroke="#000000" stroke-width="1" stroke-linecap="round"></path><path d="M186.42857,178.9748l1.79805,-5.28562l6.69512,2.27753l-1.79805,5.28562z" fill="#00f6ff" stroke="none" stroke-width="0" stroke-linecap="butt"></path><path d="M177.97618,175.50814l1.79805,-5.28562l6.69512,2.27753l-1.79805,5.28562z" fill="#00f6ff" stroke="none" stroke-width="0" stroke-linecap="butt"></path></g><path d="M228.06107,163.31407h12.87638" fill="none" stroke="#000000" stroke-width="1.5" stroke-linecap="round"></path><path d="M230.67367,164.43375v10.07717" fill="none" stroke="#000000" stroke-width="1.5" stroke-linecap="round"></path><path d="M245.04296,163.50068h13.24961" fill="none" stroke="#000000" stroke-width="1.5" stroke-linecap="round"></path><path d="M245.95603,164.24714l-0.15196,10.63701" fill="none" stroke="#000000" stroke-width="1.5" stroke-linecap="round"></path><path d="M233.09965,185.89438l5.2252,-0.37323" fill="none" stroke="#000000" stroke-width="1.5" stroke-linecap="round"></path><g stroke="#000000" stroke-linecap="butt"><path d="M249.07783,185.68824l12.5533,8.75082l-3.84183,5.51121l-12.5533,-8.75082z" fill="#989898" stroke-width="1"></path><path d="M261.76945,191.80347c3.59343,-2.07988 4.41159,0.93173 4.08043,2.84444c-0.33116,1.91271 -6.08394,8.72758 -6.08394,8.72758l-4.08043,-2.84444c0,0 2.49051,-6.6477 6.08394,-8.72758z" fill="#d3d3d3" stroke-width="0.5"></path><path d="M263.4682,195.71967l22.19791,15.47402l-7.42767,1.19169c0,0 -0.4674,-3.28307 -1.98063,-4.33794c-1.05481,-0.7353 -1.55037,1.30287 -3.92055,0.09641c-4.65837,-2.37118 -11.85714,-8.13768 -11.85714,-8.13768z" fill="#00e6ff" stroke-width="0.5"></path></g><path d="M167.65944,174.04518c-0.22644,0.09768 -0.46226,0.1782 -0.70635,0.243c-0.02547,0.16686 -0.07753,0.34624 -0.16296,0.53846c-0.71074,1.59917 -2.30991,0.88843 -2.30991,0.88843c-0.91781,-0.41705 -2.4594,-0.96661 -3.40619,-1.86307c-0.76594,-0.21081 -1.53598,-0.45828 -2.29277,-0.71993c-1.02237,0.4389 -1.74904,0.61935 -2.5903,0.58833v0.3455l-2.6,0c0,0 0,0 0,0c-0.9665,0 -1.75,-0.7835 -1.75,-1.75c0,-0.57307 0.27546,-1.08181 0.70119,-1.40102l-1.64037,-0.51827c-0.72843,-0.21165 -1.26082,-0.88401 -1.26082,-1.68071c0,-0.80542 0.54411,-1.48376 1.2848,-1.68749l1.96234,-0.5887l0.12304,0.41015c1.81446,-0.82833 3.93067,-1.53719 5.62021,-1.45851c-0.2229,-0.29368 -0.35518,-0.6599 -0.35518,-1.05703c0,-0.9665 0.7835,-1.75 1.75,-1.75c0.20574,0 0.40318,0.0355 0.58654,0.10071l1.09232,0.35997c0.20563,-0.73779 0.88256,-1.27911 1.68592,-1.27911c0.35038,0 0.67671,0.10297 0.95038,0.2803l1.57712,0.9857l-0.00753,0.01204c0.11041,0.07009 0.21649,0.1478 0.31747,0.23452c1.35642,1.16475 1.76502,2.08431 1.59098,2.87079c0.51872,0.1035 0.95473,0.43631 1.19785,0.88827l1.38084,2.45483c1.4015,0.18476 2.6528,0.76203 0.74231,2.46885c-0.02134,0.83992 -0.63448,1.53275 -1.43801,1.67707l-1.96821,0.39364l-0.00358,-0.0179c-0.02365,0.01052 -0.04736,0.0209 -0.07114,0.03116z" fill="#ff6666" stroke="none" stroke-width="0.5" stroke-linecap="butt"></path><path d="M167.00238,173.69072c-0.1277,0.05508 -0.26069,0.10049 -0.39834,0.13704c-0.01437,0.0941 -0.04372,0.19526 -0.0919,0.30366c-0.40082,0.90184 -1.30266,0.50102 -1.30266,0.50102c-0.51759,-0.2352 -1.38696,-0.54512 -1.9209,-1.05066c-0.43195,-0.11888 -0.86621,-0.25844 -1.29299,-0.406c-0.57656,0.24751 -0.98636,0.34928 -1.46078,0.33179v0.19484h-1.46625v0c-0.54505,0 -0.9869,-0.44185 -0.9869,-0.9869c0,-0.32318 0.15534,-0.61008 0.39543,-0.7901l-0.92508,-0.29227c-0.41079,-0.11936 -0.71103,-0.49853 -0.71103,-0.94783c0,-0.45421 0.30684,-0.83675 0.72455,-0.95165l1.10665,-0.332l0.06939,0.2313c1.02325,-0.46713 2.21667,-0.86689 3.16948,-0.82251c-0.1257,-0.16562 -0.2003,-0.37215 -0.2003,-0.5961c0,-0.54505 0.44185,-0.9869 0.9869,-0.9869c0.11602,0 0.22737,0.02002 0.33078,0.05679l0.61601,0.20301c0.11597,-0.41607 0.49771,-0.72135 0.95076,-0.72135c0.19759,0 0.38162,0.05807 0.53596,0.15808l0.88941,0.55588l-0.00424,0.00679c0.06226,0.03952 0.12209,0.08335 0.17903,0.13225c0.76495,0.65686 0.99537,1.17543 0.89723,1.61896c0.29253,0.05837 0.53841,0.24605 0.67552,0.50093l0.77872,1.38439c0.79037,0.1042 1.49603,0.42974 0.41862,1.39229c-0.01204,0.47367 -0.35782,0.86438 -0.81096,0.94577l-1.10996,0.22199l-0.00202,-0.01009c-0.01333,0.00593 -0.02671,0.01179 -0.04012,0.01758z" fill="#ffe366" stroke="none" stroke-width="0.5" stroke-linecap="butt"></path></g></g></svg>