<svg version="1.1" xmlns="http://www.w3.org/2000/svg" xmlns:xlink="http://www.w3.org/1999/xlink" width="65.875" height="65.875" viewBox="0,0,65.875,65.875"><g transform="translate(-207.0625,-147.0625)"><g data-paper-data="{&quot;isPaintingLayer&quot;:true}" fill-rule="nonzero" stroke-linejoin="miter" stroke-miterlimit="10" stroke-dasharray="" stroke-dashoffset="0" style="mix-blend-mode: normal"><path d="M207.0625,180c0,-18.19088 14.74662,-32.9375 32.9375,-32.9375c18.19088,0 32.9375,14.74662 32.9375,32.9375c0,18.19088 -14.74662,32.9375 -32.9375,32.9375c-18.19088,0 -32.9375,-14.74662 -32.9375,-32.9375z" fill="#000000" stroke="none" stroke-width="0" stroke-linecap="butt"></path><path d="M248.66858,185.10895l8.27198,10.71475l-1.21306,1.00887l-8.27179,-10.91676z" fill="#ffffff" stroke="#ffffff" stroke-width="2.5" stroke-linecap="round"></path><path d="M255.72907,195.21648l-6.85949,-9.09727l-4.13976,-1.51915l0.70813,-1.11037l3.93815,1.11493" fill="#ffffff" stroke="#ffffff" stroke-width="2.5" stroke-linecap="round"></path><path d="M241.20503,173.99097l4.9375,12.02456l-1.21326,1.21089l-4.93691,-12.63059z" fill="#ffffff" stroke="#ffffff" stroke-width="2.5" stroke-linecap="round"></path><path d="M236.35854,172.16811l4.54299,2.32759l4.63498,11.51923" fill="#ffffff" stroke="#ffffff" stroke-width="2.5" stroke-linecap="round"></path><path d="M231.8203,164.99224l3.73474,2.52881l-0.7115,4.54457l-4.04301,2.8242l-3.33052,-2.73043" fill="none" stroke="#ffffff" stroke-width="2.5" stroke-linecap="round"></path><path d="M235.04456,173.07587l5.25013,2.22728" fill="#ffffff" stroke="#ffffff" stroke-width="2.5" stroke-linecap="round"></path><path d="M226.85231,165.29455l2.85886,2.10087l0.24678,1.47957l-1.72858,0.46899l-2.81441,-2.05107l-0.14181,-1.6627z" fill="#ffffff" stroke="#ffffff" stroke-width="2.5" stroke-linecap="round"></path><path d="M218.37731,175.07746c-0.14992,0.0458 -0.30145,0.06729 -0.45038,0.06672l-0.04312,0.01065l-0.0192,-0.01217c-0.62433,-0.02821 -1.19183,-0.44273 -1.38488,-1.07458c-0.13263,-0.43406 -0.06139,-0.88184 0.15893,-1.24033l0.00076,-0.02352l0.03412,-0.03065c0.14185,-0.21038 0.3368,-0.38644 0.57291,-0.50566l0.39245,-0.20777l-0.60287,-0.0642l-0.63352,-1.39448l0.25732,-0.64376l0.03202,-0.14479l0.05373,-0.32766l0.04317,-0.2633l0.00535,-0.2458l0.0396,-0.14492l-0.00411,-0.15018l0.097,-0.43859l0.34959,-0.70095l0.01546,-0.0048l0.00358,-0.01579l0.67122,-0.40373l0.16804,-0.05134l0.36029,-0.27006l0.79019,-0.7851l0.66015,-1.19327l0.4075,-1.5306l0.34238,-1.32635l0.01249,-0.02298l0.00109,-0.02614l0.38193,-1.2981l0.24212,-1.09476l-0.02081,-1.94722l-0.01069,-0.19682l0.03585,-0.18569l-0.01212,-0.23488l0.0723,-0.07682l0.05246,-0.2717l0.51828,-0.33469l0.40669,-0.43211l0.19431,0.04398l0.16738,-0.10808l0.53041,0.26605l0.60173,0.13622l0.14264,0.23714l0.09429,0.04729l0.06933,0.22474l0.09747,0.16206l0.01558,0.05102l0.26857,0.39957l0.30522,0.39342l0.47152,0.3323l0.91102,0.35349l1.8889,0.45544l1.6362,-0.17645l1.16862,-0.40211l0.97881,-0.65217l0.47271,-0.5165l0.04907,-0.18429l0.11262,-0.20363l0.07349,-0.22079l0.50708,-0.79757l0.06424,-0.061l0.03741,-0.0803l0.05336,-0.06587l0.00977,-0.0268l0.01859,-0.00819l0.0441,-0.05443l0.62597,-0.47085l0.38114,0.0622l0.33185,-0.14619l0.36046,0.25917l0.43817,0.0715l0.13137,0.33798l0.31356,0.22544l0.10991,0.77554l-0.00728,0.06967l0.00736,0.01894l-0.01204,0.02586l-0.02077,0.19863l0.00736,0.01373l-0.01296,0.03977l-0.00584,0.05585l-0.11748,0.32265l-0.10637,0.32649l-0.02984,0.0476l-0.01431,0.03931l-0.01426,0.00628l-0.48517,0.77398l-0.08693,0.08359l-0.20761,0.77977l-0.15116,1.22059l0.64301,2.41136l1.61645,2.44043l1.98996,1.50346l0.39468,0.11155l1.03522,0.25362l0.69286,0.36534l0.0251,0.08768l0.06393,0.02208l0.13938,0.68794l0.19323,0.67478l-0.04657,0.04905l0.0181,0.08937l-0.44665,0.64347l-0.39947,0.3497l-0.62468,0.56765l-1.21278,1.28386l-0.55963,1.06687l-0.00854,0.00957l-0.00324,0.0124l-1.01219,1.85504l-0.03558,0.26898l0.00529,0.02791l0.15878,0.29646l0.08154,0.32376l0.11005,0.36367l-0.01275,0.02263l0.01246,0.04949l-0.3965,0.63251l-0.35474,0.62995l-0.04068,0.0008l-0.0216,0.03447l-0.7227,-0.01985l-0.74638,0.01467l-0.03603,-0.03614l-0.02597,-0.00072l-0.25528,-0.28144l-0.15906,-0.15958l-0.11817,-0.09785l-0.62577,-0.43288l-1.4959,-0.44564l-2.45473,0.30556l-2.39462,2.06197l-0.30087,1.72534l0.0055,0.25853l-0.17378,0.76377l-0.23161,0.13896l-0.07193,0.2358l-0.53657,0.12929l-0.47328,0.28395l-0.21661,-0.11773l-0.26258,0.06327l-0.65935,-0.42284l-0.17094,-0.18145l-0.10742,-0.19178l-0.14357,-0.16645l-1.16683,-2.31553l-0.92753,-1.75405l-0.98529,-1.6034l-1.04964,-0.84424l-0.92351,0.01785l-0.6968,0.36888c-0.09167,0.05081 -0.19001,0.09286 -0.29425,0.12471zM220.78495,171.51629l0.18213,0.04182l0.08858,-0.0348l0.23764,0.10967l0.25508,0.05856l0.0488,0.0817l0.16967,0.07831l1.68447,1.35485l0.15681,0.20694l0.18554,0.18164l1.14858,1.86911l0.01513,0.04788l0.03354,0.03736l0.50581,0.95653l3.02682,-2.60633l0.05369,-0.027l0.01965,-0.04711l0.31997,-0.12367l0.30648,-0.15411l0.0481,0.01706l0.05604,-0.02166l3.06201,-0.38116l0.00397,-0.00379l0.01949,0.00088l0.14137,-0.0176l0.30985,0.03771l0.31181,0.01391l0.13652,0.04068l0.01936,0.00236l0.00329,0.00439l1.2541,0.37361l1.0412,-1.9082l0.65111,-1.24127l0.13885,-0.15575l0.10222,-0.18191l0.74201,-0.78551l-2.25063,-1.70039l-0.16131,-0.19997l-0.1896,-0.1734l-1.89731,-2.86448l-0.08214,-0.2322l-0.11928,-0.21548l-0.74396,-2.78994l-1.2238,0.42109l-0.17072,0.01479l-0.16083,0.05914l-2.06864,0.22308l-0.25836,-0.03577l-0.26082,0.00219l-2.24437,-0.54113l-0.0913,-0.04773l-0.10223,-0.01286l-1.08323,-0.4203l-0.10892,0.49248l-0.02375,0.04762l-0.00219,0.05317l-0.38945,1.3236l-0.33745,1.30725l-0.00284,0.00522l-0.00009,0.00593l-0.45714,1.71707l-0.09061,0.16383l-0.04819,0.1809l-0.8557,1.54673l-0.1471,0.15779l-0.11159,0.18462l-1.01895,1.01239l-0.09205,0.05483l-0.06759,0.08315l-0.59758,0.44793l-0.05978,0.36458v0.00001h0.00001l-0.06051,0.36902l-0.017,0.0394l0.00118,0.04288l-0.0595,0.26908l0.00158,0.00349l-0.00528,0.01321l-0.03379,0.15281l-0.13739,0.27547l-0.11425,0.28585l-0.08516,0.11797z" fill="#c2c2c2" stroke="none" stroke-width="0.5" stroke-linecap="butt"></path><path d="M223.61475,203.63276c-2.4676,-0.40119 -2.06641,-2.86879 -2.06641,-2.86879l0.00672,-0.04133c0.08798,-0.54028 1.27475,-7.47308 1.26576,-8.58743c-0.01223,-1.51565 -3.00269,-1.59272 -3.35769,-3.06626c-0.45083,-1.87129 0.64459,-3.79532 0.96688,-5.69298c0,0 0.63792,-2.41724 3.05516,-1.77933c2.41724,0.63792 1.77933,3.05516 1.77933,3.05516c-0.3969,0.82759 -1.37917,1.58447 -1.19071,2.48276c0.13102,0.62449 1.40178,0.08939 1.82965,0.56276c0.87836,0.97176 1.61931,2.18664 1.82483,3.48032c0.2876,1.81028 -0.94126,8.51939 -1.23801,10.34738l-0.00672,0.04133c0,0 -0.40119,2.4676 -2.86879,2.06641z" fill="#ffffff" stroke="none" stroke-width="0.5" stroke-linecap="butt"></path><path d="M255.26767,159.85888c-0.28331,2.4839 -2.76721,2.20058 -2.76721,2.20058l-1.45429,-0.32351c-0.83906,0.20736 -1.67812,0.41471 -2.51719,0.62207c0,0 -2.42699,0.59978 -3.02677,-1.82721c-0.59978,-2.42699 1.82721,-3.02677 1.82721,-3.02677c0.83906,-0.20736 1.67812,-0.41471 2.51719,-0.62207l3.22047,0.20969c0,0 2.4839,0.28331 2.20058,2.76721z" fill="#ffffff" stroke="none" stroke-width="0.5" stroke-linecap="butt"></path><path d="M239.55337,187.62754c0.35324,0.47373 1.25496,1.97805 -0.27033,3.38077c-1.84015,1.69229 -3.53244,-0.14786 -3.53244,-0.14786l-1.41008,-3.5193c0.29966,-0.82942 0.59932,-1.65885 0.89898,-2.48827c0,0 0.84948,-2.35125 3.20073,-1.50177c2.35125,0.84948 1.50177,3.20073 1.50177,3.20073c-0.12955,0.35856 -0.25909,0.71713 -0.38864,1.07569z" fill="#ffffff" stroke="none" stroke-width="0.5" stroke-linecap="butt"></path><path d="M251.99186,170.23957c0,-1.38071 1.11929,-2.5 2.5,-2.5c1.38071,0 2.5,1.11929 2.5,2.5c0,1.38071 -1.11929,2.5 -2.5,2.5c-1.38071,0 -2.5,-1.11929 -2.5,-2.5z" fill="#ffffff" stroke="none" stroke-width="0.5" stroke-linecap="butt"></path></g></g></svg>