<svg version="1.1" xmlns="http://www.w3.org/2000/svg" xmlns:xlink="http://www.w3.org/1999/xlink" width="97.0986" height="155.80793" viewBox="0,0,97.0986,155.80793"><defs><linearGradient x1="244.21603" y1="139.88157" x2="235.87005" y2="218.70037" gradientUnits="userSpaceOnUse" id="color-1"><stop offset="0" stop-color="#7c7c7c"></stop><stop offset="1" stop-color="#e5e5e5"></stop></linearGradient><linearGradient x1="204.95517" y1="171.17447" x2="232.14424" y2="174.05347" gradientUnits="userSpaceOnUse" id="color-2"><stop offset="0" stop-color="#650000"></stop><stop offset="1" stop-color="#ff0000"></stop></linearGradient><linearGradient x1="268.19961" y1="173.7371" x2="240.91002" y2="175.41376" gradientUnits="userSpaceOnUse" id="color-3"><stop offset="0" stop-color="#650000"></stop><stop offset="1" stop-color="#ff0000"></stop></linearGradient></defs><g transform="translate(-198.30434,-66.51351)"><g data-paper-data="{&quot;isPaintingLayer&quot;:true}" fill-rule="nonzero" stroke-linejoin="miter" stroke-miterlimit="10" stroke-dasharray="" stroke-dashoffset="0" style="mix-blend-mode: normal"><g><path d="" data-paper-data="{&quot;index&quot;:null}" fill="none" stroke="#000000" stroke-width="1.5" stroke-linecap="round"></path><path d="" data-paper-data="{&quot;index&quot;:null}" fill="none" stroke="#000000" stroke-width="1.5" stroke-linecap="round"></path><path d="" data-paper-data="{&quot;index&quot;:null}" fill="none" stroke="#000000" stroke-width="1.5" stroke-linecap="round"></path><path d="" data-paper-data="{&quot;index&quot;:null}" fill="none" stroke="#000000" stroke-width="1.5" stroke-linecap="round"></path><path d="" data-paper-data="{&quot;index&quot;:null}" fill="none" stroke="#000000" stroke-width="1.5" stroke-linecap="round"></path><path d="" data-paper-data="{&quot;index&quot;:null}" fill="none" stroke="#000000" stroke-width="1.5" stroke-linecap="round"></path><path d="" data-paper-data="{&quot;index&quot;:null}" fill="none" stroke="#000000" stroke-width="1.5" stroke-linecap="round"></path><path d="" data-paper-data="{&quot;index&quot;:null}" fill="none" stroke="#000000" stroke-width="1.5" stroke-linecap="round"></path><path d="" data-paper-data="{&quot;index&quot;:null}" fill="none" stroke="#000000" stroke-width="1.5" stroke-linecap="round"></path><path d="" data-paper-data="{&quot;index&quot;:null}" fill="none" stroke="#000000" stroke-width="1.5" stroke-linecap="round"></path><g><path d="M216.75253,120.39249l3.73809,-39.31103c0,0 15.41591,8.07699 24.98485,8.9869c5.6296,0.53533 15.25262,-4.6149 24.32072,-5.06061c13.09278,-0.64353 25.33867,3.17164 25.33867,3.17164l-3.73809,39.31103c0,0 -10.5965,-4.84814 -23.11482,-4.37822c-10.43387,0.39169 -22.4213,6.18704 -28.67942,5.59196c-9.46905,-0.90043 -22.84995,-8.31167 -22.84995,-8.31167z" fill="#606060" stroke="#000000" stroke-width="0.5" stroke-linecap="butt"></path><path d="M214.37532,208.12699l-9.1459,13.05555l-6.5213,-14.54536z" fill="#ffee00" stroke="#000000" stroke-width="0.5" stroke-linecap="round"></path><path d="M204.13329,206.98201l11.94855,-125.65498l5.38189,0.51179l-11.94855,125.65498z" fill="#d3d3d3" stroke="#000000" stroke-width="0.5" stroke-linecap="butt"></path><path d="M215.25635,106.94339c-0.01705,-0.02596 -0.03549,-0.05507 -0.05481,-0.0871c-0.02159,0.02442 -0.04309,0.04882 -0.06453,0.07324c0.04109,0.00687 0.08174,0.01492 0.12192,0.02416c-0.00086,-0.00342 -0.0017,-0.00686 -0.00257,-0.01025zM218.62203,104.39726l0.48442,0.85062c0.477,0.2298 0.92907,0.68471 1.06086,1.57172c0.06538,0.43993 0.02443,0.80106 -0.08096,1.09706c1.39785,3.13374 2.91586,6.21334 3.952,9.38253c0.21464,0.43516 0.36723,0.88833 0.41403,1.36862c0.05812,0.20987 0.11379,0.42021 0.16685,0.63109l0.10567,0.14818l0.63925,-0.23301l0.92502,2.538c0.11581,0.29758 0.16574,0.62607 0.13344,0.96562c-0.0866,0.91078 -0.73885,1.63146 -1.57633,1.8477c0.0085,0.29452 0.00954,0.59036 0.00252,0.88774l0.64487,-0.01024l0.03324,2.09748c0.00253,0.08713 -0.00028,0.17537 -0.00873,0.26437c-0.11054,1.1625 -1.14252,2.01526 -2.30503,1.90472c-0.31471,-0.02991 -0.60673,-0.12739 -0.86307,-0.2767c2.07451,3.31207 3.61256,6.9232 0.66926,9.16591c-1.20381,0.91725 -3.07774,-0.36353 -4.40933,-1.08278c-1.81991,-0.983 -3.65943,-4.63941 -4.38668,-7.99971c-2.35011,4.55708 -5.7922,9.33228 -10.94878,6.52679c-0.61527,-0.33477 -0.68096,-1.03165 -0.54175,-1.82149c-0.25433,-0.38773 -0.38345,-0.8613 -0.33615,-1.35882c0.01694,-0.17823 0.05553,-0.34914 0.11297,-0.51049l1.31909,-3.9691l0.08632,0.0287l0.03818,-0.32556c0.28815,-0.40337 0.5747,-0.81108 0.86027,-1.22212c-0.1049,0.00578 -0.21154,0.00381 -0.31927,-0.00643c-1.1625,-0.11054 -2.01526,-1.14252 -1.90472,-2.30503c0.03184,-0.33486 0.14015,-0.64401 0.30598,-0.91184l1.16009,-1.96828c0.32299,-0.54804 0.70653,-1.2768 1.14874,-2.09014c-2.05729,-5.55385 5.43197,-14.29722 8.94029,-17.71851c0,0 1.51735,-1.47249 2.98982,0.04484c0.63987,0.65936 0.71516,1.31025 0.59571,1.83552c0.54905,0.23817 0.89192,0.65305 0.89192,0.65305z" fill="#56d600" stroke="none" stroke-width="0.5" stroke-linecap="butt"></path><path d="M260.75427,120.18025l-19.01514,-23.01145l6.7041,-5.53983l19.01514,23.01145z" fill="#b8b8b8" stroke="none" stroke-width="0" stroke-linecap="butt"></path><path d="M215.35542,81.1833l4.34904,-13.5117l1.72445,14.08922z" data-paper-data="{&quot;index&quot;:null}" fill="#000000" stroke="#000000" stroke-width="0.5" stroke-linecap="round"></path><path d="M240.53098,112.31164l23.01145,-19.01514l5.53983,6.7041l-23.01143,19.01515z" data-paper-data="{&quot;index&quot;:null}" fill="#b8b8b8" stroke="none" stroke-width="0" stroke-linecap="butt"></path><text transform="translate(236.74666,113.73472) rotate(5.43188) scale(0.60637,0.60637)" font-size="40" xml:space="preserve" fill="#000000" fill-rule="nonzero" stroke="none" stroke-width="1" stroke-linecap="butt" stroke-linejoin="miter" stroke-miterlimit="10" stroke-dasharray="" stroke-dashoffset="0" font-family="Pixel" font-weight="normal" text-anchor="start" style="mix-blend-mode: normal"><tspan x="0" dy="0">BB</tspan></text><path d="M223.60347,87.96424l10.29646,5.93742" fill="none" stroke="#54ff00" stroke-width="3.5" stroke-linecap="round"></path><path d="M234.47134,115.20589l-12.14474,3.56737" fill="none" stroke="#54ff00" stroke-width="3.5" stroke-linecap="round"></path><path d="M276.45316,95.82303l13.93845,-5.04955" fill="none" stroke="#54ff00" stroke-width="3.5" stroke-linecap="round"></path><path d="M273.83767,115.87981l13.26017,4.56646" fill="none" stroke="#54ff00" stroke-width="3.5" stroke-linecap="round"></path></g></g><path d="" data-paper-data="{&quot;index&quot;:null}" fill="none" stroke="#000000" stroke-width="1.5" stroke-linecap="round"></path><path d="" data-paper-data="{&quot;index&quot;:null}" fill="none" stroke="#000000" stroke-width="1.5" stroke-linecap="round"></path><path d="" data-paper-data="{&quot;index&quot;:null}" fill="none" stroke="#000000" stroke-width="1.5" stroke-linecap="round"></path><path d="" data-paper-data="{&quot;index&quot;:null}" fill="none" stroke="#000000" stroke-width="1.5" stroke-linecap="round"></path><path d="" data-paper-data="{&quot;index&quot;:null}" fill="none" stroke="#000000" stroke-width="1.5" stroke-linecap="round"></path><path d="" data-paper-data="{&quot;index&quot;:null}" fill="none" stroke="#000000" stroke-width="1.5" stroke-linecap="round"></path><path d="" data-paper-data="{&quot;index&quot;:null}" fill="none" stroke="#000000" stroke-width="1.5" stroke-linecap="round"></path><path d="" data-paper-data="{&quot;index&quot;:null}" fill="none" stroke="#000000" stroke-width="1.5" stroke-linecap="round"></path><path d="" data-paper-data="{&quot;index&quot;:null}" fill="none" stroke="#000000" stroke-width="1.5" stroke-linecap="round"></path><path d="" data-paper-data="{&quot;index&quot;:null}" fill="none" stroke="#000000" stroke-width="1.5" stroke-linecap="round"></path><path d="" data-paper-data="{&quot;index&quot;:null}" fill="none" stroke="#000000" stroke-width="1.5" stroke-linecap="round"></path><path d="" data-paper-data="{&quot;index&quot;:null}" fill="none" stroke="#000000" stroke-width="1.5" stroke-linecap="round"></path><path d="" data-paper-data="{&quot;index&quot;:null}" fill="none" stroke="#000000" stroke-width="1.5" stroke-linecap="round"></path><path d="" data-paper-data="{&quot;index&quot;:null}" fill="none" stroke="#000000" stroke-width="1.5" stroke-linecap="round"></path><path d="" data-paper-data="{&quot;index&quot;:null}" fill="none" stroke="#000000" stroke-width="1.5" stroke-linecap="round"></path><path d="M288.64177,198.77279" data-paper-data="{&quot;index&quot;:null}" fill="none" stroke="#d8d8d8" stroke-width="4" stroke-linecap="round"></path><path d="M288.64177,198.77279" data-paper-data="{&quot;index&quot;:null}" fill="none" stroke="#d8d8d8" stroke-width="4" stroke-linecap="round"></path><path d="M235.84861,218.90285c-21.69397,-2.29713 -37.41821,-21.74576 -35.12107,-43.43973c2.29713,-21.69397 21.74576,-37.41821 43.43973,-35.12107c21.69397,2.29713 37.41821,21.74576 35.12107,43.43973c-2.29713,21.69397 -21.74576,37.41821 -43.43973,35.12107z" fill="#d8d8d8" stroke="#000000" stroke-width="1.5" stroke-linecap="butt"></path><path d="" data-paper-data="{&quot;index&quot;:null}" fill="none" stroke="#000000" stroke-width="1.5" stroke-linecap="round"></path><path d="" data-paper-data="{&quot;index&quot;:null}" fill="none" stroke="#000000" stroke-width="1.5" stroke-linecap="round"></path><g><g><path d="M201.81484,206.76356l3.63978,-52.15585l27.75995,-14.43602l18.70719,0.52582l24.23907,15.60863l-3.32409,64.61672l-29.6174,-10.68979l-2.27035,-23.93017l-4.81038,-3.01442l-5.47772,2.33098l-1.54863,22.28048l-28.10721,7.10865z" fill="url(#color-1)" stroke="#000000" stroke-width="2" stroke-linecap="round"></path><path d="M205.17855,175.41124l0.53394,-11.38877l26.25109,4.88313l-0.57666,12.29988z" fill="url(#color-2)" stroke="none" stroke-width="0" stroke-linecap="butt"></path></g><path d="M241.35107,182.5922l-0.03344,-12.31335l26.44097,-3.72022l0.03097,11.40123z" data-paper-data="{&quot;index&quot;:null}" fill="url(#color-3)" stroke="none" stroke-width="0" stroke-linecap="butt"></path></g></g></g></svg>