<svg version="1.1" xmlns="http://www.w3.org/2000/svg" xmlns:xlink="http://www.w3.org/1999/xlink" width="65.875" height="65.875" viewBox="0,0,65.875,65.875"><g transform="translate(-207.0625,-147.0625)"><g data-paper-data="{&quot;isPaintingLayer&quot;:true}" fill-rule="nonzero" stroke-linejoin="miter" stroke-miterlimit="10" stroke-dasharray="" stroke-dashoffset="0" style="mix-blend-mode: normal"><path d="M207.0625,180c0,-18.19088 14.74662,-32.9375 32.9375,-32.9375c18.19088,0 32.9375,14.74662 32.9375,32.9375c0,18.19088 -14.74662,32.9375 -32.9375,32.9375c-18.19088,0 -32.9375,-14.74662 -32.9375,-32.9375z" fill="#000000" stroke="none" stroke-width="0" stroke-linecap="butt"></path><path d="M262.89403,161.85501c0,0.32984 -2.18176,1.32486 -4.98314,2.70248c-1.2306,0.60516 -3.66355,0.93002 -4.73562,1.79932c-1.09567,0.88843 -0.75695,2.18429 -0.66632,3.62619c0.04619,0.73495 1.71257,17.99056 2.46585,24.06828c0.01865,0.15049 -0.04472,-0.37428 0.45716,-0.05132c1.72881,1.11251 7.60823,4.85693 7.66272,5.2469c0.00585,0.04185 -1.87888,0.96418 -4.10389,1.40727c-1.35613,0.27006 -3.9418,0.50743 -6.76219,0.02319c-3.48861,-0.59897 -7.1537,-2.01496 -7.11892,-2.41877c0.0221,-0.25663 -9.68687,-6.15626 -8.86071,-6.26483c0.03077,-0.00405 -1.73212,-1.91897 -3.02182,-4.06366c-1.27936,-2.12751 -1.38541,-7.2877 -1.21132,-7.38107c0.19361,-0.10384 4.67757,-8.31983 5.00027,-8.50538c0.41245,-0.23716 5.07056,-6.18137 4.96303,-4.72636c-0.00769,0.10401 1.72568,-0.38381 1.23919,0.47803c-0.74228,1.31497 -4.53439,4.78548 -5.72644,6.80363c-1.60864,2.72344 -2.82667,5.36403 -2.76113,5.46348c0.0438,0.06645 -0.55693,2.61349 -0.50823,2.68166c0.14578,0.20406 -0.13759,1.29694 0.3998,2.39268c0.90304,1.84132 1.99263,4.14738 2.03747,4.24882c0.27281,0.61722 6.99267,5.87752 7.17577,5.89627c1.45803,0.1493 3.44473,2.08128 6.81082,3.26172c2.56449,0.89932 6.77656,1.15585 7.18997,1.06903c1.53954,-0.32329 2.28926,-1.21944 2.04304,-1.37042c-2.38599,-1.46314 -4.56848,-1.70406 -4.55554,-1.6689c-0.53958,0.19903 -1.52723,-0.46483 -1.83636,-1.11333c-0.66309,-1.39101 -0.95304,-8.64649 -1.02261,-12.00819c-0.03188,-1.54056 -0.98089,-7.40484 -1.31806,-11.89363c-0.21982,-2.92636 0.13298,-5.31278 0.09354,-5.38181c-0.39644,-0.23398 6.95272,-2.77164 6.95272,-3.26531c0,-0.2351 -3.17254,-0.9751 -6.0509,-0.17762c-3.66147,1.01445 -7.88818,3.47882 -8.7366,4.88164c-0.38187,0.63141 -1.94349,-0.19225 -1.73479,-0.19225c0.12083,0 6.13615,-4.16767 6.24756,-4.13779c0.58788,-0.23369 3.68425,-1.87041 6.98601,-2.3718c3.87591,-0.58858 7.98966,0.02579 7.98966,0.94183z" fill="#ffffff" stroke="#ffffff" stroke-width="0.5" stroke-linecap="butt"></path><path d="M262.68203,199.53916c-11.00832,5.99424 -30.95441,-7.11609 -30.95441,-16.14227c0,-9.02617 14.89579,-24.6822 28.34057,-22.77739c9.5129,1.34775 -6.82115,4.55573 -7.19644,6.43845c-0.80462,4.03651 1.30068,17.21509 1.8857,25.55882c0.18517,2.64093 10.5712,5.48125 7.92458,6.92239z" fill="none" stroke="#ffffff" stroke-width="1.5" stroke-linecap="butt"></path><path d="M242.41975,194.37311c-5.57182,-3.14506 -8.14527,-9.87926 -8.14527,-10.02304c0,-8.22989 11.01072,-23.36425 23.40549,-21.62748c2.31612,0.32454 -6.3798,2.31518 -6.63441,3.57845c-0.74177,3.68041 1.91535,21.42639 2.45468,29.03403c0.17071,2.40795 8.74286,2.1327 6.30294,3.44669c0,0 -1.7637,1.064 -4.27249,0.66807c-3.84243,-0.60641 -9.43264,-3.00048 -13.11094,-5.07673z" fill="none" stroke="#ffffff" stroke-width="1.5" stroke-linecap="butt"></path><path d="M230.00704,175.05734l-6.53563,7.46929l34.38986,-2.17854l6.84685,-4.82392" fill="none" stroke="#ffffff" stroke-width="1.5" stroke-linecap="round"></path><path d="M222.38213,183.30468l7.46929,5.91319" fill="none" stroke="#ffffff" stroke-width="1.5" stroke-linecap="round"></path><path d="M257.86127,180.81492l7.00246,3.73465" fill="none" stroke="#ffffff" stroke-width="1.5" stroke-linecap="round"></path></g></g></svg>