<svg version="1.1" xmlns="http://www.w3.org/2000/svg" xmlns:xlink="http://www.w3.org/1999/xlink" width="93.39862" height="81.77559" viewBox="0,0,93.39862,81.77559"><g transform="translate(-198.73852,-137.92395)"><g data-paper-data="{&quot;isPaintingLayer&quot;:true}" fill-rule="nonzero" stroke="#000000" stroke-linejoin="miter" stroke-miterlimit="10" stroke-dasharray="" stroke-dashoffset="0" style="mix-blend-mode: normal"><path d="M199.48853,178.17395c0,-21.81525 17.68475,-39.5 39.5,-39.5c21.81525,0 39.5,17.68475 39.5,39.5c0,21.81525 -17.68475,39.5 -39.5,39.5c-21.81525,0 -39.5,-17.68475 -39.5,-39.5z" fill="#d8d8d8" stroke-width="1.5" stroke-linecap="butt"></path><path d="M211.59117,171.04031l10.50327,2.49047v6.33333" fill="none" stroke-width="1.5" stroke-linecap="round"></path><path d="M230.5346,179.67749v-6.33333l12.72324,-2.63719" data-paper-data="{&quot;index&quot;:null}" fill="none" stroke-width="1.5" stroke-linecap="round"></path><path d="M222.98853,197.04895l18.25,-1z" fill="#040404" stroke-width="1.5" stroke-linecap="round"></path><g stroke-width="1"><path d="M290.84793,216.99292l-20.91395,-1.89903l0.74605,-8.21619l20.91395,1.89903z" fill="#af5400" stroke-linecap="butt"></path><path d="M280.42235,207.95687c0,0 -1.08515,3.3224 -2.27127,4.61716c-1.06776,1.16557 -4.52774,2.80465 -4.52774,2.80465" fill="none" stroke-linecap="round"></path><path d="M275.1531,207.37799c0,0 3.10816,2.23548 3.94851,3.57431c0.93351,1.48723 1.40249,4.95076 1.40249,4.95076" data-paper-data="{&quot;index&quot;:null}" fill="none" stroke-linecap="round"></path><path d="M280.86593,207.49509c0,0 3.10816,2.23548 3.94851,3.57431c0.93351,1.48723 1.40249,4.95076 1.40249,4.95076" data-paper-data="{&quot;index&quot;:null}" fill="none" stroke-linecap="round"></path><path d="M286.81421,208.33644c0,0 -1.08517,3.32241 -2.27128,4.61717c-1.06776,1.16557 -4.52774,2.80465 -4.52774,2.80465" data-paper-data="{&quot;index&quot;:null}" fill="none" stroke-linecap="round"></path><path d="M269.69734,202.06744c1.26505,0.11487 1.94239,4.04257 1.51287,8.77276c-0.42951,4.73018 -1.80322,8.47164 -3.06826,8.35677c-1.26505,-0.11487 -1.94239,-4.04257 -1.51287,-8.77276c0.42951,-4.73018 1.80322,-8.47164 3.06826,-8.35677z" fill="#8f8f8f" stroke-linecap="butt"></path><path d="M267.25108,213.87861l-48.55027,-4.40846c0,0 -1.05077,-2.25084 -0.95099,-3.34972c0.10355,-1.14036 1.56138,-3.37263 1.56138,-3.37263l48.55027,4.40846z" fill="#dddddd" stroke-linecap="butt"></path></g></g></g></svg>