<svg version="1.1" xmlns="http://www.w3.org/2000/svg" xmlns:xlink="http://www.w3.org/1999/xlink" width="26.83204" height="42.95272" viewBox="0,0,26.83204,42.95272"><defs><linearGradient x1="231.25334" y1="180.28093" x2="251.37744" y2="184.37189" gradientUnits="userSpaceOnUse" id="color-1"><stop offset="0" stop-color="#eccdff"></stop><stop offset="1" stop-color="#b1b9ff"></stop></linearGradient></defs><g transform="translate(-224.72562,-158.50199)"><g data-paper-data="{&quot;isPaintingLayer&quot;:true}" fill-rule="nonzero" stroke-linejoin="miter" stroke-miterlimit="10" stroke-dasharray="" stroke-dashoffset="0" style="mix-blend-mode: normal"><path d="M225.58189,185.13625c1.6512,-6.88835 10.68818,-27.69249 17.57651,-26.04131c6.88835,1.6512 9.01957,25.13247 7.36837,32.02081c-1.6512,6.88835 -8.57385,11.13389 -15.4622,9.48269c-6.88835,-1.6512 -11.13389,-8.57385 -9.48269,-15.4622z" fill="#eccdff" stroke="#b000ff" stroke-width="1" stroke-linecap="butt"></path><path d="" data-paper-data="{&quot;index&quot;:null}" fill="none" stroke="#000000" stroke-width="1.5" stroke-linecap="round"></path><path d="M230.0034,186.46121c1.32195,-5.5148 8.55693,-22.17056 14.07172,-20.84861c5.5148,1.32195 7.22104,20.12101 5.8991,25.6358c-1.32195,5.5148 -6.86421,8.91377 -12.379,7.59182c-5.5148,-1.32195 -8.91376,-6.86421 -7.59182,-12.379z" fill="url(#color-1)" stroke="none" stroke-width="NaN" stroke-linecap="butt"></path></g></g></svg>