<svg version="1.1" xmlns="http://www.w3.org/2000/svg" xmlns:xlink="http://www.w3.org/1999/xlink" width="94.83096" height="93.81935" viewBox="0,0,94.83096,93.81935"><g transform="translate(-198.18267,-135.09843)"><g data-paper-data="{&quot;isPaintingLayer&quot;:true}" fill-rule="nonzero" stroke-linejoin="miter" stroke-miterlimit="10" stroke-dasharray="" stroke-dashoffset="0" style="mix-blend-mode: normal"><g stroke="none" stroke-width="0" stroke-linecap="butt"><path d="M251.43927,141.92558l15.68459,11.18822l-4.47528,6.27383l-15.68459,-11.18821z" fill="#b0b0b0"></path><path d="M205.71629,180.66287l24.36116,8.20526l-3.70561,11.00183l-24.36117,-8.20527z" fill="#737373"></path><path d="M246.50435,144.82803l19.23959,13.72406l-32.74516,45.90495l-19.23958,-13.72406z" fill="#878787"></path><path d="M252.19946,135.78585l20.29769,14.47885l-3.81716,5.35121l-20.29769,-14.47885z" fill="#515151"></path><g><path d="M239.82291,147.28176l11.44053,8.1608l-19.74389,27.67868l-11.44052,-8.16081z" fill="#737373"></path><path d="M241.43445,153.99963l10.70242,7.6343l-3.02741,4.24407l-10.70242,-7.6343z" fill="#b43b3b"></path><path d="M236.67711,160.64568l10.70242,7.6343l-3.02741,4.24407l-10.70242,-7.6343z" fill="#b43b3b"></path><path d="M231.86686,166.97555l10.70242,7.6343l-3.02741,4.24407l-10.70241,-7.6343z" fill="#b43b3b"></path></g></g><g stroke="none" stroke-width="0" stroke-linecap="butt"><path d="M264.82765,186.3797l16.67117,-23.11499l5.16449,1.81258l-17.5243,24.53716z" fill="#8b8b8b"></path><path d="M237.45846,212.49516l30.60584,-40.7921l21.88844,16.42263l-30.60584,40.7921z" fill="#5e5e5e"></path><path d="M245.58507,211.33576l22.39452,-29.84789l19.56695,14.68084l-22.39452,29.84789z" fill="#4c4c4c"></path><path d="M265.98706,194.5063l3.98124,-5.30629l12.93408,9.7043l-3.98124,5.30629z" fill="#ffffff"></path><path d="M259.77128,202.8319l3.98124,-5.30629l12.93408,9.7043l-3.98124,5.30629z" fill="#ffffff"></path><path d="M254.30199,210.16258l3.98124,-5.30629l12.93408,9.7043l-3.98124,5.30629z" fill="#ffffff"></path><path d="M279.58064,155.72906c2.47362,-3.29691 7.15158,-3.96429 10.44847,-1.49066c3.29691,2.47362 3.96429,7.15158 1.49066,10.44847c-2.47362,3.29691 -7.15158,3.96429 -10.44847,1.49066c-3.29691,-2.47362 -3.96429,-7.15158 -1.49066,-10.44847z" fill="#ffffff"></path></g><path d="" data-paper-data="{&quot;index&quot;:null}" fill="none" stroke="#000000" stroke-width="1.5" stroke-linecap="round"></path><path d="" data-paper-data="{&quot;index&quot;:null}" fill="none" stroke="#000000" stroke-width="1.5" stroke-linecap="round"></path><path d="M204.56568,155.03517c11.22202,-18.70752 35.48468,-24.77575 54.19221,-13.55373c18.70752,11.22202 24.77575,35.48468 13.55373,54.19221c-11.22202,18.70752 -35.48468,24.77575 -54.19221,13.55373c-18.70752,-11.22202 -24.77575,-35.48468 -13.55373,-54.19221z" fill="#404040" stroke="#000000" stroke-width="1.5" stroke-linecap="butt"></path><path d="M210.78555,145.54394c2.10826,-1.96482 7.98528,-4.68894 7.98528,-4.68894l15.32518,21.97736l43.01486,18.34376c0,0 -1.61334,7.58036 -2.81929,10.5253c-0.87076,2.12638 -3.74408,5.50257 -3.74408,5.50257l-45.22258,-21.77898l-19.35441,-22.6406c0,0 2.65762,-5.22988 4.815,-7.24049z" fill="#d8d8d8" stroke="#000000" stroke-width="1.5" stroke-linecap="round"></path><path d="M222.60316,154.76268l4.38348,5.06474l-3.23523,6.26205" fill="none" stroke="#000000" stroke-width="1.5" stroke-linecap="round"></path><path d="M230.97267,171.39538l3.25933,-5.7779l6.02789,1.97226" fill="none" stroke="#000000" stroke-width="1.5" stroke-linecap="round"></path></g></g></svg>