<svg version="1.1" xmlns="http://www.w3.org/2000/svg" xmlns:xlink="http://www.w3.org/1999/xlink" width="104.80087" height="86.23394" viewBox="0,0,104.80087,86.23394"><g transform="translate(-204.75,-139.01607)"><g data-paper-data="{&quot;isPaintingLayer&quot;:true}" fill-rule="nonzero" stroke-linejoin="miter" stroke-miterlimit="10" stroke-dasharray="" stroke-dashoffset="0" style="mix-blend-mode: normal"><path d="M291.16451,182.22758c0,-4.93918 4.004,-8.94318 8.94318,-8.94318c4.93918,0 8.94318,4.004 8.94318,8.94318c0,4.93918 -4.004,8.94318 -8.94318,8.94318c-4.93918,0 -8.94318,-4.004 -8.94318,-8.94318z" fill="#d8d8d8" stroke="#000000" stroke-width="1" stroke-linecap="butt"></path><g fill="none" stroke="#000000" stroke-width="2" stroke-linecap="round"><path d="M292.9676,153.59115l5.03839,-3.8933l-3.43527,22.21473"></path><path d="M301.8993,154.50722l-3.43527,-5.72545"></path></g><g fill="none" stroke="#000000" stroke-width="2" stroke-linecap="round"><path d="M288.19662,146.30097l5.03839,-3.8933l-3.43527,22.21473"></path><path d="M297.12832,147.21705l-3.43527,-5.72545"></path></g><g fill="none" stroke="#000000" stroke-width="2" stroke-linecap="round"><path d="M281.5935,148.85856l5.03839,-3.8933l-3.43527,22.21473"></path><path d="M290.5252,149.77462l-3.43527,-5.72545"></path></g><g fill="none" stroke="#000000" stroke-width="2" stroke-linecap="round"><path d="M275.4484,145.23267l5.0384,-3.8933l-3.43527,22.21473"></path><path d="M284.38011,146.14873l-3.43527,-5.72545"></path></g><path d="M266.5103,210.82109l9.28975,-50.21898l22.51972,4.16581c0,0 -4.21024,42.86497 -9.28974,50.21898c-5.0795,7.35401 -22.51973,-4.16581 -22.51973,-4.16581z" data-paper-data="{&quot;index&quot;:null}" fill="#9b5b00" stroke="#000000" stroke-width="1" stroke-linecap="butt"></path><path d="M205.5,185.00001c0,-21.81525 17.68475,-39.5 39.5,-39.5c21.81525,0 39.5,17.68475 39.5,39.5c0,21.81525 -17.68475,39.5 -39.5,39.5c-21.81525,0 -39.5,-17.68475 -39.5,-39.5z" fill="#d8d8d8" stroke="#000000" stroke-width="1.5" stroke-linecap="butt"></path><path d="M237.12263,168.64539v8" data-paper-data="{&quot;index&quot;:null}" fill="none" stroke="#000000" stroke-width="1.5" stroke-linecap="round"></path><path d="M229.37963,199.66774l3.99378,-0.26625" fill="none" stroke="#000000" stroke-width="1.5" stroke-linecap="round"></path><path d="" data-paper-data="{&quot;index&quot;:null}" fill="#00c1ff" stroke="none" stroke-width="0.5" stroke-linecap="butt"></path><g data-paper-data="{&quot;index&quot;:null}" stroke-linecap="butt"><path d="M210.05455,179.3215c0.58204,-0.19254 3.61138,3.07663 7.67755,7.21586c1.7862,1.81829 3.77959,5.92189 5.93934,7.30626c2.20729,1.41485 4.29628,0.06073 6.78775,-0.94085c1.26994,-0.51051 30.74674,-13.52331 41.03188,-18.40021c0.25467,-0.12076 -0.63436,0.29739 -0.3574,-0.77675c0.95402,-3.70006 4.12961,-16.26063 4.78594,-16.58442c0.07044,-0.03476 2.79813,2.75269 4.87877,6.42034c1.26814,2.2354 3.1963,6.65955 3.9881,11.91911c0.97939,6.50566 0.62008,13.79967 -0.1128,13.974c-0.46576,0.11079 -5.20908,20.68706 -5.8829,19.29258c-0.0251,-0.05193 -2.37518,4.17665 -5.40692,7.70434c-3.00745,3.49944 -12.0513,6.69863 -12.31768,6.44593c-0.29625,-0.28103 -17.41164,-3.39773 -17.92742,-3.85885c-0.65924,-0.58938 -13.86748,-5.33944 -11.23718,-5.99901c0.18801,-0.04715 -1.68457,-2.82113 0.12021,-2.46573c2.75369,0.54227 11.0913,5.20812 15.34836,6.13359c5.74481,1.24892 11.1154,1.85694 11.25263,1.68324c0.09169,-0.11607 4.93688,-0.54276 5.02875,-0.66849c0.27499,-0.37636 2.36891,-0.51425 3.98878,-2.10212c2.72211,-2.66831 6.15541,-5.93709 6.30823,-6.07543c0.92992,-0.84167 6.28985,-15.77014 6.21606,-16.10418c-0.58762,-2.66 1.66194,-7.29349 1.78013,-13.92238c0.09004,-5.05028 -1.91593,-12.63269 -2.31043,-13.31152c-1.46913,-2.52798 -3.48811,-3.32786 -3.61081,-2.80525c-1.18916,5.0644 -0.34033,9.05628 -0.28585,9.01293c0.66617,0.83597 0.07122,2.96629 -0.89269,3.89034c-2.06754,1.98206 -14.70141,6.7288 -20.5929,8.81382c-2.69988,0.95549 -12.49413,6.05318 -20.2183,9.26832c-5.03559,2.09603 -9.45262,2.86646 -9.55142,2.97636c-0.18147,0.83615 -8.94925,-10.65102 -9.82039,-10.36286c-0.41485,0.13723 0.13117,6.16748 3.21855,10.78118c3.92735,5.86894 10.74319,11.88896 13.71387,12.56725c1.3371,0.3053 0.79519,3.54173 0.67337,3.17346c-0.07053,-0.21322 -10.93607,-8.39522 -10.94838,-8.60925c-0.75552,-0.90098 -5.4511,-5.4095 -8.26313,-10.94316c-3.30103,-6.49594 -4.61814,-14.11372 -3.00169,-14.64843z" fill="#00c1ff" stroke="none" stroke-width="0.5"></path><g fill="none" stroke="#000000" stroke-width="1.5"><path d="M276.67627,157.69893c17.0032,15.92653 5.51128,58.77632 -10.41644,64.045c-15.92771,5.26868 -52.24939,-11.87804 -56.73602,-36.71474c-3.17452,-17.57328 12.02068,9.37746 15.56202,8.94074c7.59255,-0.93632 29.61877,-12.34383 44.00074,-18.24649c4.55214,-1.86828 3.50177,-21.85355 7.58968,-18.0245z"></path><path d="M279.38751,196.4695c-2.29747,11.66792 -12.6786,20.13988 -12.9323,20.2238c-14.52258,4.80388 -47.65596,-5.79168 -51.8262,-28.67745c-0.77927,-4.2765 7.80936,9.90649 10.18716,9.61839c6.92749,-0.83935 36.6913,-15.88668 49.80103,-21.27905c4.14945,-1.70678 -1.33992,-16.67265 2.40299,-13.13413c0,0 2.90704,2.49119 3.67278,7.14933c1.17279,7.13437 0.21125,18.39637 -1.30546,26.0991z"></path></g></g><path d="M229.75621,169.16665v8" data-paper-data="{&quot;index&quot;:null}" fill="none" stroke="#000000" stroke-width="1.5" stroke-linecap="round"></path><path d="M253.18255,178.84434c0,-4.93918 4.004,-8.94318 8.94318,-8.94318c4.93918,0 8.94318,4.004 8.94318,8.94318c0,4.93918 -4.004,8.94318 -8.94318,8.94318c-4.93918,0 -8.94318,-4.004 -8.94318,-8.94318z" fill="#d8d8d8" stroke="#000000" stroke-width="1" stroke-linecap="butt"></path></g></g></svg>