<svg version="1.1" xmlns="http://www.w3.org/2000/svg" xmlns:xlink="http://www.w3.org/1999/xlink" width="101.42649" height="137.19497" viewBox="0,0,101.42649,137.19497"><g transform="translate(-199.75,-83.05503)"><g data-paper-data="{&quot;isPaintingLayer&quot;:true}" fill-rule="nonzero" stroke-linejoin="miter" stroke-miterlimit="10" stroke-dasharray="" stroke-dashoffset="0" style="mix-blend-mode: normal"><path d="" data-paper-data="{&quot;index&quot;:null}" fill="none" stroke="#000000" stroke-width="1.5" stroke-linecap="round"></path><path d="M200.5,180c0,-21.81525 17.68475,-39.5 39.5,-39.5c21.81525,0 39.5,17.68475 39.5,39.5c0,21.81525 -17.68475,39.5 -39.5,39.5c-21.81525,0 -39.5,-17.68475 -39.5,-39.5z" fill="#d8d8d8" stroke="#000000" stroke-width="1.5" stroke-linecap="butt"></path><path d="M225.51005,194.79568c5.44898,-2.88817 27.57511,5.13694 27.57511,5.13694" data-paper-data="{&quot;index&quot;:null}" fill="none" stroke="#000000" stroke-width="1.5" stroke-linecap="round"></path><path d="M250.89804,170.36202l6.93986,4.16391l-6.59286,1.38797l-3.29643,5.89888l-2.25545,-6.41937l-7.46035,-3.64343l7.11335,-2.08196l3.99042,-7.46035z" fill="#be82ff" stroke="#000000" stroke-width="0" stroke-linecap="round"></path><path d="M221.6874,173.5245l10.7662,2.43108" fill="none" stroke="#000000" stroke-width="1.5" stroke-linecap="round"></path><path d="M229.67523,164.84208l-1.38919,9.72431" fill="none" stroke="#000000" stroke-width="1.5" stroke-linecap="round"></path><g stroke-linecap="round"><path d="M288.732,143.60615l-5.82725,23.809l-2.79796,-0.57801l6.11344,-24.03683z" fill="none" stroke="#4d6200" stroke-width="3"></path><path d="M282.39635,165.01446l5.13251,-19.98298l-2.52406,-7.57571l2.37147,-0.25138l2.86863,6.83386" fill="none" stroke="#4d6200" stroke-width="3"></path><path d="M296.04296,120.48625l-11.44672,20.56769l-3.08415,-0.35018l12.30531,-21.25118z" fill="none" stroke="#4d6200" stroke-width="3"></path><path d="M293.15079,111.56712l1.83496,9.05942l-11.07298,19.56882" fill="none" stroke="#4d6200" stroke-width="4.5"></path><path d="M298.18449,97.03976l0.63743,8.14248l-7.23678,4.12451l-8.56333,-2.53426l0.10442,-7.79792" fill="none" stroke="#4d6200" stroke-width="4.5"></path><path d="M290.38202,110.73209l2.77545,9.94719" fill="none" stroke="#4d6200" stroke-width="4.5"></path><g stroke="#7f00ff"><path d="M294.69103,87.36115l0.54396,13.73741l-3.88589,4.32295l-5.59787,-4.10329l-0.58743,-13.48242l4.69431,-4.4475z" fill="#7d00ff" stroke-width="0.5"></path><path d="M293.26036,89.48516l0.38117,9.62618l-2.72295,3.02922l-3.92258,-2.87528l-0.41163,-9.4475l3.28943,-3.11648z" fill="#be82ff" stroke-width="0"></path></g></g></g></g></svg>