<svg version="1.1" xmlns="http://www.w3.org/2000/svg" xmlns:xlink="http://www.w3.org/1999/xlink" width="5523.28562" height="138.63363" viewBox="0,0,5523.28562,138.63363"><defs><linearGradient x1="481.96211" y1="179.03188" x2="3465.53035" y2="179.03188" gradientUnits="userSpaceOnUse" id="color-1"><stop offset="0" stop-color="#6c48b4"/><stop offset="1" stop-color="#6c48b4" stop-opacity="0"/></linearGradient><linearGradient x1="4411.97182" y1="183.97115" x2="1428.40358" y2="183.97115" gradientUnits="userSpaceOnUse" id="color-2"><stop offset="0" stop-color="#6c48b4"/><stop offset="1" stop-color="#6c48b4" stop-opacity="0"/></linearGradient></defs><g transform="translate(1111.3138,-112.18469)"><g stroke="none" stroke-miterlimit="10"><path d="M-430.08561,193.00331c-0.09626,0.16343 -0.6213,0.28955 -1.38344,0.38685c1.33564,0.06495 2.45231,0.15544 3.24165,0.2629c5.71744,0.03549 11.39227,0.08224 17.00887,0.14269c3.17606,-0.00725 6.35264,-0.01465 9.52963,-0.02219v-0.0453h18.92236c5.22535,0 9.46119,0.33578 9.46119,0.75c0,0.4075 -4.09986,0.7391 -9.2081,0.74974l-13.52026,0.03269c-6.27437,0.01517 -12.54638,0.02986 -18.8166,0.04388c-12.68512,0.19094 -27.83996,0.17193 -42.42527,0.10514c-45.20292,1.69114 -89.46546,1.71971 -143.53098,1.81393c-69.63913,0.12136 -137.95365,0.08628 -207.16321,-0.65684c-24.803,-0.26686 -49.70948,-0.43556 -74.62406,-0.62458l-16.92803,-0.06759c-5.03083,-0.01739 -9.04182,-0.3462 -9.04182,-0.74928c0,-0.41422 4.23585,-0.75 9.4612,-0.75h18.92236v0.07868c2.41209,0.0182 4.82419,0.03625 7.23604,0.05423c28.58203,-0.26031 57.29089,-0.08309 87.17731,-0.13274c15.25379,-0.02534 30.50711,-0.05183 45.76027,-0.07885c-5.39237,-0.02857 -10.78828,-0.05684 -16.1882,-0.08464c-55.57454,-0.28609 -111.42367,-0.68288 -167.12557,-0.70494l-13.66309,-0.00447c-5.20956,-0.00145 -9.427,-0.33668 -9.427,-0.74999c0,-0.31115 2.39015,-0.57804 5.7944,-0.6916l17.076,-0.60555l1.92353,0.34085c22.14772,-0.69376 46.11537,-0.75313 71.14292,-0.81838c-0.83853,-0.11196 -1.32014,-0.2427 -1.32014,-0.38235c0,-0.39379 3.82837,-0.71669 8.69558,-0.74758l18.74697,-0.13599l0.14721,0.1276c2.13697,-0.00134 4.27393,-0.00313 6.41088,-0.00535c28.68259,-0.43203 58.18053,-0.37125 88.34788,-0.48696c4.13945,-0.01587 8.27474,-0.03085 12.40611,-0.04494c-20.66259,-0.32297 -41.15874,-0.61318 -61.03147,-1.06412c-10.57907,0.11235 -21.16119,0.22366 -31.74499,0.32978c-13.45554,0.21088 -27.50285,0.38672 -39.86356,0.36701c-7.17786,0.05873 -14.35538,0.11268 -21.53222,0.16057l-13.47282,0.08958c-0.29685,0.00223 -0.59753,0.00336 -0.90172,0.00336c-5.22534,0 -9.46119,-0.33578 -9.46119,-0.75c0,-0.38592 3.67701,-0.70376 8.40529,-0.74538l18.64909,-0.18601l0.09574,0.06032c3.29828,-0.02311 6.59686,-0.04747 9.89562,-0.07295c11.81649,-0.23141 23.8202,-0.39393 35.9565,-0.52933c-0.00731,-0.01212 -0.01109,-0.02432 -0.01109,-0.03659c0,-0.41422 4.23585,-0.75 9.46119,-0.75h18.92236v0.00286l0.11844,-0.0028c13.61222,0.02697 27.22445,0.05403 40.83653,0.08154c33.40206,-0.32932 66.52995,-0.576 99.69133,-0.76417c15.09447,-0.14203 30.18929,-0.28381 45.2862,-0.4241c-28.25329,-0.36463 -56.42882,-0.79778 -84.43144,-1.2417c-71.70533,0.20026 -145.39569,0.58492 -215.59867,0.02956l-16.08387,-0.06455c-5.02978,-0.01747 -9.03992,-0.34625 -9.03992,-0.74927c0,-0.08904 0.19575,-0.17446 0.55493,-0.25369c-30.73909,-0.09959 -61.48028,-0.20036 -92.23074,-0.29573l-0.69825,-0.0313l-0.05528,0.02176l-13.34427,-0.21296c-4.41662,-0.06331 -7.76649,-0.36964 -7.76649,-0.738c0,-0.38079 3.57969,-0.69529 8.21708,-0.74357l18.57709,-0.21798l0.29971,0.16054c3.773,-0.08784 7.57259,-0.16858 11.3949,-0.24305c-23.76138,-0.14773 -47.45507,-0.37826 -70.03646,-0.86735c-2.06103,-0.01784 -4.12268,-0.03583 -6.18483,-0.05397l-0.16994,0.1017l-18.6284,-0.19558c-4.70122,-0.04363 -8.34915,-0.36049 -8.34915,-0.74488c0,-0.41422 4.23584,-0.75 9.46119,-0.75c0.21253,0 0.42345,0.00055 0.63252,0.00165l16.96124,0.07836l-0.0052,0.00695l0.25279,-0.00555c6.58853,0.05798 13.17132,0.11443 19.7485,0.1697c9.78967,-0.00191 20.51815,0.11066 31.14274,0.25452c40.84249,0.3261 81.50467,0.62729 122.09837,0.98599c0.95431,-0.00641 1.908,-0.01284 2.86117,-0.01932c80.80138,-0.54871 160.45228,-0.60949 241.53576,-0.60949c123.93157,0 250.27122,0.43641 373.40845,1.55234l18.6839,0.16932c4.77513,0.03808 8.50257,0.35763 8.50257,0.7462c0,0.37261 -3.42786,0.68177 -7.92012,0.7401l-18.44977,0.26781l-0.39648,-0.17162c-9.99176,0.25805 -20.10538,0.45469 -30.32202,0.60629l14.75271,0.1962c4.55585,0.05401 8.04992,0.36552 8.04992,0.74171c0,0.41422 -4.23585,0.75 -9.46119,0.75h-16.22009v-0.20523l-1.39557,-0.01856c-0.00745,-0.00007 -0.01506,-0.00014 -0.02244,-0.00021c-9.55802,0.08523 -19.1581,0.09821 -28.80597,0.07041l-2.28693,0.04211l-0.14636,-0.04997c-1.60754,-0.00573 -3.21655,-0.01252 -4.82673,-0.02022c-8.84301,0.20544 -17.84125,0.36588 -26.94604,0.49457c15.49638,0.04347 30.98116,0.13919 46.45218,0.3154l18.58941,0.2127c4.65254,0.04719 8.24822,0.36226 8.24822,0.7439c0,0.3443 -2.92677,0.63441 -6.91549,0.72254l-17.9014,0.43104l-0.66154,-0.17265c-32.1073,1.07285 -65.34285,1.37346 -100.9561,1.72111c19.68035,0.21235 38.93034,0.53878 57.17053,1.12542l0.82616,-0.22681l17.97786,0.41151c4.05129,0.08484 7.03811,0.37736 7.03811,0.72518c0,0.41422 -4.23585,0.75 -9.4612,0.75c-0.33938,0 -0.67451,-0.00142 -1.00464,-0.00418l-18.71873,-0.13924c-25.04165,-0.18627 -49.95436,-0.32929 -75.07323,-0.43098c-24.07412,-0.09746 -48.00472,-0.1741 -71.87045,-0.22719c16.11768,0.31331 32.11507,0.65661 47.92966,1.04408c6.89251,0.06844 13.76855,0.14747 20.6216,0.24157l11.14652,0.15347c5.84535,0.02164 11.69074,0.04328 17.53607,0.06492l0.35764,0.00132c0,0 9.45096,0.03498 9.00955,0.78417zM-940.74391,181.25362c19.46893,0.06171 38.93623,0.12446 58.40392,0.18606c0.4362,-0.06464 0.9885,-0.12362 1.63477,-0.1752c-8.49577,-0.08281 -16.99325,-0.16208 -25.49339,-0.2386c-2.06507,-0.01132 -4.13047,-0.02268 -6.19594,-0.03405c-4.33095,0.02723 -8.66543,0.05555 -13.0038,0.08497c-4.65602,0.03158 -9.83322,0.09597 -15.34549,0.17682zM-653.41056,187.00194c-2.12459,0.02051 -4.24919,0.04101 -6.37382,0.06149c42.14897,0.37269 84.34357,0.6966 126.62055,1.01035c31.57301,-0.28493 63.13564,-0.59016 94.74073,-0.91072c13.61284,-0.13807 32.72717,-0.57623 51.53423,-0.89962c-42.63595,-0.15159 -85.41595,0.13364 -128.14757,0.22579c-46.74006,0.1008 -92.58308,0.24999 -138.37414,0.51271zM-501.92427,195.43743c-7.11217,0.00425 -14.22684,0.00652 -21.34504,0.00651c-59.36244,0.07022 -118.70193,0.17705 -178.03936,0.28385c33.21802,0.07781 66.49234,0.05477 100.08632,-0.00378c29.13395,-0.05077 64.4299,0.32133 92.86325,-0.1492c2.19901,-0.03639 4.33975,-0.08306 6.43497,-0.13737zM-632.45649,190.63364c-13.09512,0.00815 -26.20263,0.02451 -39.33524,0.04951c-0.57017,0.00383 -1.14026,0.00764 -1.71045,0.01145c19.84298,0.04899 39.69476,0.12491 59.59527,0.225c-6.18079,-0.09633 -12.36513,-0.19138 -18.54958,-0.28596zM-627.07604,188.85598c-16.55412,-0.13678 -33.10046,-0.27973 -49.6378,-0.43135c11.61504,0.1841 23.26085,0.36273 34.9146,0.54106c4.90933,-0.03596 9.81703,-0.07253 14.72334,-0.10971zM-529.17546,184.36184c20.45102,-0.17798 40.91121,-0.34935 61.3842,-0.51108c-42.74581,0.1098 -85.99358,-0.00607 -128.54482,-0.14621c22.36308,0.277 44.76743,0.50604 67.16071,0.6573zM-663.02509,180.34488c54.7364,0.08741 109.46512,0.18444 164.18444,0.2869c-54.86364,-0.19452 -109.75157,-0.28317 -164.18444,-0.2869z" fill="#002480" stroke-width="0.5"/><g><path d="M1943.97444,164.87249c-133.82191,-1.92369 -267.698,-3.23593 -401.70241,-4.50245c38.63648,0.789 77.24738,1.60946 115.80356,2.49378c37.0439,0.84962 91.81619,0.67695 133.03172,2.71435c36.75424,-0.01514 73.58543,0.00888 110.55484,0.06097l1.11759,0.08817l0.05825,-0.07086l27.46908,0.52831c7.93769,0.13475 14.48938,0.97185 16.9359,2.09567c12.10855,0.01333 24.20234,0.01976 36.27943,0.01934c0,0 20.22317,0 20.22317,3.09168c0,1.20239 -3.05888,1.93717 -6.79726,2.38619c5.15742,0.08941 10.3145,0.17932 15.47143,0.26979l0.35111,0.02852l0.0204,-0.02041l28.94235,0.67443c9.87344,0.20437 17.48416,1.49811 17.48416,3.06356c0,1.60003 -7.95048,2.91617 -18.14147,3.07551l-39.92494,0.70889l-0.55666,-0.73265c-35.71159,1.3894 -71.60599,2.04719 -107.79352,2.27548c0,0.00262 0,0.00524 0,0.00787c0,0.32141 -0.32078,0.63137 -0.91615,0.92281c17.58383,0.32517 35.15807,0.66555 52.72152,1.02191l1.86008,0.19802l0.23963,-0.10156l25.89928,1.42813c8.02262,0.41018 13.80485,1.56822 13.80485,2.93272c0,1.3594 -5.73887,2.51388 -13.71469,2.9281l-37.5389,2.10061l-2.05289,-0.85746c-12.53981,0.79177 -25.4704,1.49504 -38.7195,2.12201c10.60891,0.14674 21.17157,0.33271 31.67451,0.568c4.7665,-0.04885 9.5324,-0.09913 14.29763,-0.151l0.46757,0.06483l-0.01152,-0.06742l0.86831,-0.00346l0.0341,-0.27494l37.85764,0.10979c3.41367,-0.9693 10.11276,-1.62813 17.81825,-1.62813c2.26487,0 4.4428,0.05691 6.47596,0.16191l19.70287,0.94024c4.5926,-0.00356 9.18589,-0.00591 13.77961,-0.00705c2.03106,-0.15476 4.25622,-0.25881 6.60487,-0.30135l37.42699,-0.76642l0.04736,0.05409c0.83783,-0.02923 1.67967,-0.05642 2.52594,-0.08142c4.05892,-0.11993 8.28131,-0.20598 12.64204,-0.26225c19.93041,-2.01553 58.98298,-1.72491 85.12898,-1.38065c-0.00308,-0.02228 -0.00472,-0.04462 -0.00472,-0.06703c0,-1.60787 8.02878,-2.92908 18.29163,-3.07776l39.9764,-0.6591l0.62597,0.88721c67.37562,-2.42957 138.9536,-2.0627 208.37063,-0.59202c20.86857,0.00913 42.63441,0.39799 66.90204,1.18214l11.6068,0.27187c0,0 19.98131,0.47659 16.86391,3.53132c-2.00697,1.96648 -11.00238,2.46954 -17.15707,2.57839c-1.6678,0.47743 -4.13152,0.88009 -7.11987,1.16663c-0.15661,0.15122 -0.38485,0.2988 -0.67933,0.44189c3.13135,0.05164 6.2621,0.10386 9.39217,0.15656c48.13377,0.18582 98.99206,0.04271 141.95206,2.73582c11.67574,0.25117 23.36893,0.50859 35.08596,0.77201l21.43272,0.3297c10.32531,0.1393 18.42205,1.46489 18.42205,3.07959c0,1.7075 -9.05418,3.09168 -20.22317,3.09168h-40.4464v-0.01519c-8.07622,0.24417 -15.39359,-0.4596 -15.39359,-0.4596c-0.08819,-0.00893 -0.17653,-0.01786 -0.26481,-0.02676c-3.54306,0.0623 -7.09302,0.11867 -10.64923,0.16937l21.45358,0.59036c5.21565,0.12829 9.76426,0.56155 12.83833,1.17625c93.54635,-0.85244 187.15099,-1.43246 280.41837,-0.66998l0.69373,0.05152l0.03255,-0.03957l27.46811,0.52836c10.10658,0.1716 17.96591,1.48181 17.96591,3.07266c0,1.46974 -6.70843,2.69995 -15.69949,3.01404l-38.81201,1.49311l-1.67934,-1.02021c-35.46453,1.72081 -72.25313,2.51942 -109.71276,2.92441c-3.05416,0.76412 -8.21739,1.30974 -14.25238,1.44772l-20.47238,0.52509l-0.80494,-0.73345l-3.23931,-0.04534c-18.92662,0.91447 -38.68816,1.40429 -58.85712,1.65333c-0.51516,1.30533 -6.32827,2.39222 -14.19555,2.76468l-20.35947,1.04435l-0.14724,-0.06703c-1.12862,0.07363 -2.2821,0.13977 -3.464,0.19737c-14.01893,0.68331 -29.41119,-0.15374 -44.11377,-0.24308c-48.16894,-0.2926 -96.33585,-0.62296 -144.4797,-1.00354c1.25657,0.40271 1.96002,0.85353 1.96002,1.32947c0,1.7075 -9.05419,3.09168 -20.22317,3.09168c-0.96457,0 -1.91363,-0.01034 -2.84227,-0.0303l-21.47572,-0.41307c-12.05998,0.6517 -25.80415,-0.31322 -38.67482,-0.4406c-49.12066,-0.48614 -97.45767,-0.65984 -146.69828,-0.65984c-183.63341,0 -366.2031,2.75602 -549.95932,1.26907l-25.35617,-0.20534c-10.73118,-0.07529 -19.28049,-1.4292 -19.28049,-3.08837c0,-1.40335 6.11596,-2.58831 14.49536,-2.96591l38.07869,-1.86443l1.87201,0.89357c32.91798,-2.03321 66.72523,-3.14632 101.58322,-3.75543c-6.63727,-0.16871 -13.26204,-0.34602 -19.87324,-0.53261l-1.53001,-0.16675l-0.19849,0.08038l-27.29468,-1.57503c-7.87624,-0.42262 -13.52348,-1.56946 -13.52348,-2.91798c0,-1.38866 5.98864,-2.56352 14.23322,-2.95382l20.35959,-1.04427l2.11191,0.96235c51.35155,-2.91791 108.07895,-1.64618 165.95186,-1.65163c13.89789,-0.00131 27.79635,0.00658 41.69536,0.02355c3.23264,-0.34793 7.16189,-0.55472 11.40478,-0.56175l28.49141,-0.05516c35.51893,-0.42188 71.01574,-0.94089 106.51658,-1.45465c-18.61326,-0.40484 -37.2775,-0.82652 -56.02021,-1.26047c-31.37751,-0.7265 -95.97926,-0.53424 -123.06979,-2.93104c-0.91749,-0.08118 -1.80827,-0.1674 -2.67475,-0.25814l-0.24831,0.07544l-11.20139,-0.86186c-3.60619,0.72768 -9.271,1.20378 -15.66894,1.22562l-40.02558,0.15901c-67.20896,0.73196 -134.54509,0.88392 -201.82068,1.41832c-83.82868,0.66587 -160.79639,2.26717 -239.50233,-0.07232l-0.38558,0.83572l-40.18156,-0.43321c-10.58291,-0.09928 -18.96513,-1.4429 -18.96513,-3.0858c0,-0.19149 0.11389,-0.37892 0.3318,-0.56078c-73.51859,-0.42789 -146.95386,-1.08904 -220.20509,-2.21622l-23.30071,-0.35854c-10.32498,-0.13935 -18.42157,-1.46494 -18.42157,-3.07959c0,-1.20739 4.52706,-2.25312 11.12794,-2.76211l35.36876,-2.86453l2.66163,0.7681c36.45971,-3.21844 71.96916,-4.46565 116.70954,-5.65518c-47.48615,0.21652 -110.87861,1.0742 -154.62796,-0.9395c-6.77862,0.04032 -13.55622,0.0816 -20.33204,0.12394l-1.29799,-0.08817l-0.04577,0.07628l-36.84955,-0.5153c-10.40409,-0.1273 -18.58753,-1.45841 -18.58753,-3.08171c0,-1.7075 9.05418,-3.09168 20.22317,-3.09168c0.52207,0 1.03963,0.00304 1.55171,0.00895l40.1579,0.41196l-0.03143,0.07118c6.75615,-0.04408 13.51346,-0.08704 20.2722,-0.12896c-3.22085,-0.54762 -5.18072,-1.27207 -5.18072,-2.06648c0,-0.40135 0.50021,-0.78484 1.41063,-1.1367c-8.78039,-0.21283 -17.55581,-0.43096 -26.3256,-0.65472c-12.73575,-0.00955 -25.06027,-0.12255 -36.51422,-0.39203c-9.98281,-0.00913 -19.96549,-0.01825 -29.9483,-0.0274l-40.42986,-0.03789c-11.1192,-0.0089 -20.11494,-1.38967 -20.11494,-3.09163c0,-0.31691 0.31189,-0.62266 0.89124,-0.91051l-9.25718,-0.54787c-7.79213,-0.42955 -13.36232,-1.56993 -13.36232,-2.90922c0,-1.32099 5.41921,-2.44849 13.04413,-2.89122l37.03422,-2.30113l2.50574,0.94249c27.23999,-1.66159 55.44844,-2.62088 84.32361,-3.11434l-4.93655,-0.24103c-8.38762,-0.37684 -14.51122,-1.56239 -14.51122,-2.96663c0,-1.7075 9.05418,-3.09168 20.22317,-3.09168h40.44639v0.72323c89.57759,-1.83831 182.10015,0.11684 272.6249,1.00601c89.13233,0.87549 178.1148,1.67997 267.0554,2.6193c-0.36387,-0.23202 -0.55655,-0.47424 -0.55655,-0.72333c0,-1.55076 7.4683,-2.83485 17.20653,-3.05753l20.47239,-0.52507l0.18088,0.16485l2.17248,-0.20375c55.79194,0.54463 106.06662,0.65734 153.08463,2.36494c72.11871,0.35188 144.54618,0.29888 216.5626,0.29888h40.4464c11.16902,0 20.22317,1.38418 20.22317,3.09168c0,1.7075 -9.05418,3.09168 -20.22317,3.09168h-22.29519c6.70615,0.50335 11.32243,1.55771 11.32243,2.7769c0,1.45349 -6.56107,2.67272 -15.40233,3.00328l-28.31345,1.16183c-5.37241,1.69098 -19.08052,1.59053 -19.08052,1.59053l-32.40745,-0.23747c-13.77075,-0.10207 -29.05341,0.65786 -41.31711,-0.30336c-1.0717,0.0003 -2.15534,0.0004 -3.2514,0.00032l-0.85424,-0.08931l-0.74047,-0.0163l-0.08076,0.07356l-20.47336,-0.52504c-9.23586,-0.21115 -16.42995,-1.37704 -17.148,-2.81969l-9.69584,-0.06782c-13.63027,-0.09564 -27.26057,-0.19126 -40.89063,-0.28688zM1248.05527,163.81217c-44.0961,-0.21434 -91.3472,1.33576 -136.19547,1.79055c10.03334,0.28617 20.07441,0.56375 30.12218,0.83337c44.39995,-0.69177 89.51206,-0.64747 134.99958,-0.69677c-3.46645,-0.45327 -5.91793,-1.08258 -6.76245,-1.79738c-7.38663,-0.05043 -14.7746,-0.09386 -22.16385,-0.12978zM1537.94236,174.26913c18.49989,0.30076 37.00057,0.60134 55.49936,0.90547c1.68698,0.02773 3.37551,0.05496 5.0653,0.08172c23.52314,0.16381 47.04532,0.3272 70.56033,0.49638c12.09814,-0.0051 24.19357,-0.00824 36.28561,-0.00947c5.16061,-0.00052 10.52237,-0.04361 16.04086,-0.11773c-26.80336,-0.39954 -53.61136,-0.7957 -80.42405,-1.19198c-11.09605,-0.03035 -22.17837,-0.05802 -33.23578,-0.07504c-23.26505,-0.03581 -46.52905,-0.06364 -69.79157,-0.08936zM1868.11272,189.85556c-97.26613,-1.68143 -194.65151,-2.93532 -292.21874,-3.89807c-26.43042,0.14894 -52.81038,0.39494 -79.10152,0.77928c-62.62964,0.91553 -125.60464,3.25987 -187.70719,4.81996c-12.0538,0.30281 -22.62492,0.80562 -32.74011,1.30217c114.64243,1.43412 229.62519,1.82951 344.64485,2.15804c61.71136,-0.98555 123.46055,-1.93468 184.81133,-3.26331c20.36703,-0.44107 41.32201,-1.26705 62.31136,-1.89805zM2017.8972,214.50317c39.72112,0.39358 79.57492,0.64025 119.40759,0.88571c-0.33653,-0.19693 -0.5489,-0.40152 -0.62429,-0.61171c-39.58488,-0.1666 -79.18303,-0.25871 -118.78329,-0.274zM2511.31198,211.48289c0.53501,0.03663 1.06924,0.07338 1.60312,0.11026c0.38704,-0.0021 0.774,-0.0042 1.1608,-0.00633l0.10902,-0.06023c-0.9576,-0.01457 -1.91559,-0.02914 -2.87312,-0.04373z" fill="#0033b3" stroke-width="0.5"/><path d="M1650.75218,219.14613c-152.74368,0.13972 -305.30042,0.89278 -457.9867,1.03416c-8.231,-0.09414 -16.46201,-0.18822 -24.69301,-0.28236l-20.90557,-0.24036c-6.32595,-0.06337 -11.32853,-0.86787 -11.32853,-1.85098c0,-0.93925 4.56607,-1.71544 10.48969,-1.83814l23.80528,-0.55502l0.43699,0.43796c0.9885,-0.04613 1.9788,-0.09151 2.97051,-0.13613c-3.86357,-0.31028 -6.49877,-0.92973 -6.49877,-1.64327c0,-0.93485 4.52356,-1.70819 10.40689,-1.83636l23.77095,-0.58195l0.39895,0.3809c53.64888,-2.58764 113.07065,-3.21436 168.32661,-4.10583c1.72352,-0.0278 3.44702,-0.0556 5.17054,-0.08343c-0.03545,-0.05775 -0.05354,-0.11625 -0.05354,-0.17541c0,-1.02451 5.43246,-1.85501 12.13395,-1.85501h24.26787v0.45267c31.20926,-0.70894 63.07306,-0.65766 95.00424,-0.55593c51.00844,-0.83317 102.01351,-1.67097 153.01748,-2.51101c19.64997,-0.32166 39.43058,-0.57448 59.31086,-0.76733c-20.70026,-0.18095 -41.40369,-0.35307 -62.1045,-0.49981c-21.36473,0.20682 -44.06556,0.29485 -62.16175,-0.34773c-6.60974,-0.02533 -13.21884,-0.04635 -19.82687,-0.06258l-17.62731,-0.00089c-0.00012,0 -0.00037,0 -0.00049,0c-6.62901,-0.00035 -12.0155,-0.81334 -12.12811,-1.82273c-3.77024,-0.31468 -6.32778,-0.92632 -6.32778,-1.62927c0,-1.02451 5.43246,-1.85501 12.13395,-1.85501c0.02686,0 0.05353,0.00002 0.08039,0.00005l24.25588,0.02102c80.88175,0.07099 161.60047,1.03584 242.50539,1.06549c97.06323,0.03794 194.43033,1.47491 291.38405,2.18018c53.65311,0.39029 108.50704,0.4732 159.60227,2.80205c1.13866,0.01098 2.27727,0.02191 3.41593,0.03287l0.94261,0.00905l0.29733,-0.30553l23.82178,0.54181c3.87585,0.07823 7.17486,0.43615 9.00095,0.93676c56.53616,1.26759 111.68721,3.09586 162.57266,5.88194l14.50796,0.79657c4.82187,0.24538 8.29863,0.94086 8.29863,1.76045c0,0.73876 -2.8248,1.37664 -6.9131,1.675l-13.63429,1.049l-1.8123,-0.55057c-29.10198,2.24978 -62.98916,2.56202 -96.57562,3.56444c-117.89738,3.51871 -243.96974,2.80077 -363.63429,4.68763c-145.0282,2.28478 -291.67186,3.15181 -437.37177,3.16658l-0.00387,-0.00022v0.00022l-17.88067,0.00007h-0.00012c-6.70149,0 -12.13395,-0.8305 -12.13395,-1.85501c0,-0.95283 4.69924,-1.73787 10.74789,-1.84304l23.90573,-0.47053l0.31615,0.37538c23.58264,-1.15535 48.62122,-1.97306 74.30313,-2.59078zM2156.40894,214.01877l22.33307,0.33932c6.20156,0.08261 11.06663,0.87841 11.06663,1.84794c0,0.19487 -0.19654,0.38273 -0.56089,0.55917c52.09704,-0.45685 104.09932,-0.99987 155.52398,-2.03628c16.76967,-0.33796 57.83175,-2.56488 88.57893,-3.2366c-59.88637,-2.82144 -124.97428,-4.43926 -190.5917,-5.48828c1.12764,0.22334 1.92944,0.48708 2.29688,0.7746c16.59825,0.62712 32.75835,1.4573 48.27796,2.60525l1.30466,-0.51515l22.36684,1.32383c4.67509,0.25775 8.01711,0.94195 8.01711,1.74554c0,1.02451 -5.43246,1.85501 -12.13395,1.85501c-0.05052,0 -0.10098,-0.00005 -0.15128,-0.00015l-17.77102,-0.02901l0.00085,-0.01197l-0.22958,0.01125c-52.39898,-0.38733 -104.81622,-0.78571 -157.24151,-1.17516c0.20144,0.13403 0.30775,0.27363 0.30775,0.41703c0,0.17459 -0.15771,0.34355 -0.45273,0.50375c6.35975,0.16282 12.71256,0.33264 19.05771,0.51zM1861.59343,218.96177c-3.12931,0.58351 -8.26819,0.68465 -8.26819,0.68465c-23.01395,0.45297 -55.36022,1.08961 -78.37426,1.54258c77.34416,-0.49413 154.61716,-1.30368 231.42904,-2.51594c2.03155,-0.03203 4.06389,-0.06349 6.09686,-0.09433c-0.30641,0.00092 -0.61303,0.00186 -0.91932,0.00284c-49.99564,0.15852 -99.97907,0.28772 -149.9642,0.3802zM1711.41789,206.21778c9.71198,0.04326 19.42369,0.08904 29.13466,0.1368c75.71303,-0.25933 154.01109,0.19183 229.83679,1.33227c40.45916,0.26801 80.92048,0.55396 121.37882,0.8489c7.81457,-0.23299 16.01147,-0.48952 24.39144,-0.74035c-7.24835,-0.13581 -14.49971,-0.27301 -21.75387,-0.41082c-126.50271,-1.34649 -256.96405,-2.52689 -382.98789,-1.16678zM1517.04319,212.56983c-9.62379,0.1341 -19.24679,0.2694 -28.86838,0.40679c21.57137,-0.03099 43.15487,-0.11469 64.74025,-0.22829c-6.89708,-0.07551 -13.79661,-0.15449 -20.69399,-0.23823c-5.06311,0.02107 -10.12256,0.04111 -15.1779,0.05973zM1781.00658,215.37015c24.32189,-0.02372 48.64211,-0.05699 72.96156,-0.0995c-14.0393,-0.06831 -28.07172,-0.14496 -42.1011,-0.22963c-10.27917,0.11098 -20.56527,0.22131 -30.86047,0.32913z" fill="#002480" stroke-width="0.5"/><path d="M481.96211,245.87905v-133.69436h2983.56827v133.69436z" fill="url(#color-1)" stroke-width="0"/><path d="M1428.40356,250.81832v-133.69436h2983.56827v133.69436z" fill="url(#color-2)" stroke-width="0"/></g></g></g></svg>