<svg version="1.1" xmlns="http://www.w3.org/2000/svg" xmlns:xlink="http://www.w3.org/1999/xlink" width="154.74667" height="80.5" viewBox="0,0,154.74667,80.5"><g transform="translate(-135.17726,-139.75)"><g data-paper-data="{&quot;isPaintingLayer&quot;:true}" fill-rule="nonzero" stroke-linejoin="miter" stroke-miterlimit="10" stroke-dasharray="" stroke-dashoffset="0" style="mix-blend-mode: normal"><g data-paper-data="{&quot;index&quot;:null}" stroke="#000000"><path d="M204.87632,165.5428c-1.83707,-0.82999 -5.36055,-0.69926 -7.42027,-2.3649c-2.44296,-1.97556 -3.28517,-5.70906 -3.28517,-5.70906l0.0514,-4.01489c0,0 3.36676,3.98215 6.83003,5.78356c2.98087,1.5505 6.01789,0.96062 7.21988,0.93333c4.53252,-0.1029 13.43998,-2.3418 13.43998,-2.3418l0.30291,10.35036c0,0 -12.05286,-0.33876 -17.13877,-2.63659z" fill="#b058be" stroke-width="0" stroke-linecap="butt"></path><path d="M216.18175,167.75992c0,0 -2.05768,-4.36815 -2.10239,-5.8958c-0.03427,-1.17072 1.85704,-2.48763 1.85704,-2.48763" fill="none" stroke-width="0.5" stroke-linecap="round"></path><path d="M212.04688,166.95796c0,0 -1.94155,-3.26723 -1.97684,-4.47308c-0.02882,-0.98457 1.78056,-2.23367 1.78056,-2.23367" fill="none" stroke-width="0.5" stroke-linecap="round"></path><path d="M207.15752,166.17809c0,0 -1.67829,-3.01317 -1.64763,-4.08301c0.02022,-0.70555 1.81367,-1.71138 1.81367,-1.71138" fill="none" stroke-width="0.5" stroke-linecap="round"></path><path d="M203.16822,164.61672c0,0 -1.36894,-2.21556 -1.37605,-2.98263c-0.00532,-0.57462 1.33721,-1.21153 1.33721,-1.21153" fill="none" stroke-width="0.5" stroke-linecap="round"></path><path d="M199.60302,163.21075c0,0 -1.26688,-2.33326 -1.29902,-2.98522c-0.03621,-0.73458 1.09251,-1.20404 1.09251,-1.20404" fill="none" stroke-width="0.5" stroke-linecap="round"></path><path d="M194.92099,159.18823c0,0 0.79732,-2.01018 1.18814,-2.37063c0.44035,-0.40615 1.32313,0.05442 1.32313,0.05442" fill="none" stroke-width="0.5" stroke-linecap="round"></path></g><path d="" data-paper-data="{&quot;index&quot;:null}" fill="none" stroke="#000000" stroke-width="1.5" stroke-linecap="round"></path><path d="" data-paper-data="{&quot;index&quot;:null}" fill="none" stroke="#000000" stroke-width="1.5" stroke-linecap="round"></path><path d="" data-paper-data="{&quot;index&quot;:null}" fill="none" stroke="#000000" stroke-width="1.5" stroke-linecap="round"></path><path d="" data-paper-data="{&quot;index&quot;:null}" fill="none" stroke="#000000" stroke-width="1.5" stroke-linecap="round"></path><path d="" data-paper-data="{&quot;index&quot;:null}" fill="none" stroke="#000000" stroke-width="1.5" stroke-linecap="round"></path><path d="M289.92393,195.47556" data-paper-data="{&quot;index&quot;:null}" fill="none" stroke="#d8d8d8" stroke-width="4" stroke-linecap="round"></path><path d="M240,219.5c-21.81525,0 -39.5,-17.68475 -39.5,-39.5c0,-21.81525 17.68475,-39.5 39.5,-39.5c21.81525,0 39.5,17.68475 39.5,39.5c0,21.81525 -17.68475,39.5 -39.5,39.5z" fill="#d8d8d8" stroke="#000000" stroke-width="1.5" stroke-linecap="butt"></path><path d="M253.51823,187.77356l-33.69856,-3.15529" fill="none" stroke="#000000" stroke-width="0.5" stroke-linecap="round"></path><path d="M231.10793,185.75843l-6.21783,9.11743l-2.74141,-9.94892z" fill="#ffffff" stroke="#000000" stroke-width="0.5" stroke-linecap="round"></path><path d="M252.2234,187.89609l-5.57718,8.178l-2.45893,-8.92381z" fill="#ffffff" stroke="#000000" stroke-width="0.5" stroke-linecap="round"></path><g stroke="#000000"><path d="M257.19906,171.00453l0.30292,-10.35036c0,0 8.90747,2.2389 13.43998,2.3418c1.202,0.02729 4.239,0.61718 7.21988,-0.93333c3.46326,-1.80141 6.83004,-5.78356 6.83004,-5.78356l0.0514,4.01489c0,0 -0.8422,3.7335 -3.28517,5.70906c-2.05972,1.66565 -5.5832,1.5349 -7.42027,2.3649c-5.08591,2.29782 -17.13878,2.63659 -17.13878,2.63659z" fill="#b058be" stroke-width="0" stroke-linecap="butt"></path><path d="M263.27777,162.20162c0,0 1.89131,1.31691 1.85704,2.48763c-0.04471,1.52764 -2.10239,5.8958 -2.10239,5.8958" fill="none" stroke-width="0.5" stroke-linecap="round"></path><path d="M267.36357,163.07635c0,0 1.80938,1.2491 1.78056,2.23367c-0.03529,1.20585 -1.97684,4.47307 -1.97684,4.47307" fill="none" stroke-width="0.5" stroke-linecap="round"></path><path d="M271.89061,163.20884c0,0 1.79345,1.00583 1.81367,1.71138c0.03066,1.06984 -1.64763,4.083 -1.64763,4.083" fill="none" stroke-width="0.5" stroke-linecap="round"></path><path d="M276.08477,163.24768c0,0 1.34252,0.63692 1.3372,1.21154c-0.00711,0.76707 -1.37604,2.98263 -1.37604,2.98263" fill="none" stroke-width="0.5" stroke-linecap="round"></path><path d="M279.81766,161.84662c0,0 1.12872,0.46946 1.09251,1.20404c-0.03214,0.65196 -1.29902,2.98522 -1.29902,2.98522" fill="none" stroke-width="0.5" stroke-linecap="round"></path><path d="M281.78191,159.69716c0,0 0.88277,-0.46058 1.32313,-0.05443c0.39082,0.36046 1.18814,2.37064 1.18814,2.37064" fill="none" stroke-width="0.5" stroke-linecap="round"></path></g><path d="M228.9321,167.12465c0,4.00803 -1.24316,7.25718 -2.77666,7.25718c-1.5335,0 -2.77666,-3.24915 -2.77666,-7.25718c0,-4.00803 -0.37863,-7.00476 -0.37863,-7.00476c0,0 4.21336,0.55153 5.46913,3.69379c0.21243,0.53156 0.46283,2.73105 0.46283,3.31097z" fill="#ff6666" stroke="#000000" stroke-width="0" stroke-linecap="butt"></path><path d="M238.9471,167.33536c0,-0.57992 0.2504,-2.77941 0.46283,-3.31097c1.25577,-3.14226 5.46913,-3.69379 5.46913,-3.69379c0,0 -0.37863,2.99673 -0.37863,7.00476c0,4.00803 -1.24316,7.25718 -2.77666,7.25718c-1.5335,0 -2.77666,-3.24915 -2.77666,-7.25718z" data-paper-data="{&quot;index&quot;:null}" fill="#ff6666" stroke="#000000" stroke-width="0" stroke-linecap="butt"></path><path d="M189.19511,173.01266l-11.63114,10.94696l9.23649,9.23649l1.88151,1.88151" fill="none" stroke="#a500ff" stroke-width="5" stroke-linecap="round"></path><path d="M175.72213,171.855l-11.63114,10.94696l9.23649,9.23649l1.88151,1.88151" fill="none" stroke="#a500ff" stroke-width="8" stroke-linecap="round"></path><path d="M155.0652,171.38152l-11.63114,10.94696l9.2365,9.23649l1.88151,1.88151" fill="none" stroke="#a500ff" stroke-width="11.5" stroke-linecap="round"></path></g></g></svg>