<svg version="1.1" xmlns="http://www.w3.org/2000/svg" xmlns:xlink="http://www.w3.org/1999/xlink" width="124.04825" height="80.5" viewBox="0,0,124.04825,80.5"><g transform="translate(-162.2685,-139.75)"><g data-paper-data="{&quot;isPaintingLayer&quot;:true}" fill-rule="nonzero" stroke-linejoin="miter" stroke-miterlimit="10" stroke-dasharray="" stroke-dashoffset="0" style="mix-blend-mode: normal"><path d="M204.82949,180c0,-21.81525 17.68475,-39.5 39.5,-39.5c21.81525,0 39.5,17.68475 39.5,39.5c0,21.81525 -17.68475,39.5 -39.5,39.5c-21.81525,0 -39.5,-17.68475 -39.5,-39.5z" fill="#d8d8d8" stroke="#000000" stroke-width="1.5" stroke-linecap="butt"></path><g><path d="M162.77849,181.46099l0.12809,-6.34359l10.07511,0.20343l-0.12809,6.34359z" fill="#989898" stroke="#000000" stroke-width="1" stroke-linecap="butt"></path><path d="M189.07966,188.06154c0.06433,-3.18557 2.6989,-5.71586 5.88448,-5.65155c3.18557,0.06433 5.71586,2.6989 5.65155,5.88448c-0.06433,3.18557 -2.6989,5.71586 -5.88448,5.65155c-3.18557,-0.06433 -5.71586,-2.6989 -5.65155,-5.88448z" fill="none" stroke="#000000" stroke-width="0.5" stroke-linecap="butt"></path><path d="M194.69541,186.49966l-24.93164,-0.5034l-0.14022,-11.54355l34.23591,0.69127l8.74916,1.16363l-8.92353,7.47256l-0.36663,18.15713l-10.04749,-0.20288l0.1653,-8.18685z" fill="#989898" stroke="#000000" stroke-width="1" stroke-linecap="round"></path><path d="M183.84853,179.76726l0.11271,-5.58194l7.07046,0.14276l-0.11271,5.58194z" fill="#00f6ff" stroke="none" stroke-width="0" stroke-linecap="butt"></path><path d="M174.74318,179.02346l0.11271,-5.58194l7.07046,0.14276l-0.11271,5.58194z" fill="#00f6ff" stroke="none" stroke-width="0" stroke-linecap="butt"></path></g><path d="M228.06107,163.31407h12.87638" fill="none" stroke="#000000" stroke-width="1.5" stroke-linecap="round"></path><path d="M230.67367,164.43375v10.07717" fill="none" stroke="#000000" stroke-width="1.5" stroke-linecap="round"></path><path d="M245.04296,163.50068h13.24961" fill="none" stroke="#000000" stroke-width="1.5" stroke-linecap="round"></path><path d="M245.80407,174.88415l0.15196,-10.63701" fill="none" stroke="#000000" stroke-width="1.5" stroke-linecap="round"></path><path d="M233.09965,185.89438l5.2252,-0.37323" fill="none" stroke="#000000" stroke-width="1.5" stroke-linecap="round"></path><g stroke="#000000" stroke-linecap="butt"><path d="M249.07783,185.68824l12.5533,8.75082l-3.84183,5.51121l-12.5533,-8.75082z" fill="#989898" stroke-width="1"></path><path d="M261.76945,191.80347c3.59343,-2.07988 4.41159,0.93173 4.08043,2.84444c-0.33116,1.91271 -6.08394,8.72758 -6.08394,8.72758l-4.08043,-2.84444c0,0 2.49051,-6.6477 6.08394,-8.72758z" fill="#d3d3d3" stroke-width="0.5"></path><path d="M263.4682,195.71967l22.19791,15.47402l-7.42767,1.19169c0,0 -0.4674,-3.28307 -1.98063,-4.33794c-1.05481,-0.7353 -1.55037,1.30287 -3.92055,0.09641c-4.65837,-2.37118 -11.85714,-8.13768 -11.85714,-8.13768z" fill="#00e6ff" stroke-width="0.5"></path></g></g></g></svg>