<svg version="1.1" xmlns="http://www.w3.org/2000/svg" xmlns:xlink="http://www.w3.org/1999/xlink" width="100.32977" height="85.76939" viewBox="0,0,100.32977,85.76939"><g transform="translate(-179.38854,-145.97941)"><g data-paper-data="{&quot;isPaintingLayer&quot;:true}" fill-rule="nonzero" stroke="#000000" stroke-linejoin="miter" stroke-miterlimit="10" stroke-dasharray="" stroke-dashoffset="0" style="mix-blend-mode: normal"><path d="M199.4885,186.22941c0,-21.81525 17.68475,-39.5 39.5,-39.5c21.81525,0 39.5,17.68475 39.5,39.5c0,21.81525 -17.68475,39.5 -39.5,39.5c-21.81525,0 -39.5,-17.68475 -39.5,-39.5z" fill="#d8d8d8" stroke-width="1.5" stroke-linecap="butt"></path><path d="M230.78361,182.83067v-8" fill="none" stroke-width="1.5" stroke-linecap="round"></path><path d="" data-paper-data="{&quot;index&quot;:null}" fill="none" stroke-width="1.5" stroke-linecap="round"></path><path d="M237.80575,175.09105v8" fill="none" stroke-width="1.5" stroke-linecap="round"></path><g stroke-linecap="butt"><path d="M180.28024,219.93597v-39.20997h37.17169v39.20997c0,0 -15.19427,8.53892 -17.91362,10.06715c-0.80178,0.45059 -1.55727,0.87516 -1.55727,0.87516z" fill="#008c04" stroke-width="1.5"></path><path d="M196.2172,231.54981v-51.72473h4.15075v51.72473z" fill="#00ff08" stroke-width="0"></path><path d="M217.70316,199.7146h-38.31462v-4.15075h38.31462z" fill="#00ff08" stroke-width="0"></path></g><path d="M225.35149,204.11801l24.05023,-2.92199" fill="none" stroke-width="1.5" stroke-linecap="round"></path><g data-paper-data="{&quot;index&quot;:null}" stroke-width="1"><path d="M273.41467,226.51296l-14.1102,-14.24575l5.59654,-5.5433l14.1102,14.24575z" fill="#e8ff00" stroke-linecap="butt"></path><path d="M267.14067,202.6058l-1.08095,3.98268l-6.39094,6.42832l-4.19606,1.14592l1.30973,-4.39473l6.97213,-6.47395z" fill="#8f8f8f" stroke-linecap="butt"></path><path d="M258.0918,209.7299l-44.15158,-40.97757l-0.38983,-8.67054l8.09058,0.45417l41.01795,44.6463z" fill="#dddddd" stroke-linecap="butt"></path><path d="M259.79422,206.96176l-30.99773,-30.9083" fill="none" stroke-linecap="round"></path></g></g></g></svg>