<svg version="1.1" xmlns="http://www.w3.org/2000/svg" xmlns:xlink="http://www.w3.org/1999/xlink" width="112.05177" height="80.51436" viewBox="0,0,112.05177,80.51436"><g transform="translate(-168.20544,-139.74289)"><g data-paper-data="{&quot;isPaintingLayer&quot;:true}" fill-rule="nonzero" stroke-linejoin="miter" stroke-miterlimit="10" stroke-dasharray="" stroke-dashoffset="0" style="mix-blend-mode: normal"><path d="M232.6473,218.8097c-21.43397,-4.0608 -35.5177,-24.72839 -31.4569,-46.16236c4.0608,-21.43397 24.72839,-35.5177 46.16236,-31.4569c21.43397,4.0608 35.5177,24.72839 31.4569,46.16236c-4.0608,21.43397 -24.72839,35.5177 -46.16236,31.4569z" data-paper-data="{&quot;index&quot;:null}" fill="#d8d8d8" stroke="#000000" stroke-width="1.5" stroke-linecap="butt"></path><path d="M249.01183,175.93145l21.36788,-2.03363" data-paper-data="{&quot;index&quot;:null}" fill="none" stroke="#000000" stroke-width="1.5" stroke-linecap="round"></path><path d="M221.70459,164.37189l22.02318,10.55844" data-paper-data="{&quot;index&quot;:null}" fill="none" stroke="#000000" stroke-width="1.5" stroke-linecap="round"></path><path d="M240.82956,178.63858c0.15421,-0.81395 0.93905,-1.34877 1.753,-1.19457c0.81395,0.15421 1.34877,0.93905 1.19457,1.753c-0.15421,0.81395 -0.93905,1.34877 -1.753,1.19457c-0.81395,-0.15421 -1.34877,-0.93905 -1.19457,-1.753z" fill="#000000" stroke="none" stroke-width="0.5" stroke-linecap="butt"></path><path d="M257.61801,181.51516c0.15421,-0.81395 0.93906,-1.34877 1.753,-1.19457c0.81394,0.15421 1.34877,0.93905 1.19457,1.753c-0.15421,0.81395 -0.93906,1.34877 -1.753,1.19457c-0.81394,-0.15421 -1.34877,-0.93905 -1.19457,-1.753z" fill="#000000" stroke="none" stroke-width="0.5" stroke-linecap="butt"></path><path d="M242.71467,199.21808c0,0 3.03779,-6.11458 4.74628,-5.79089c1.32338,0.25072 2.88625,7.23693 2.88625,7.23693" fill="none" stroke="#000000" stroke-width="1.5" stroke-linecap="round"></path><path d="M177.13225,196.70445c-4.654,0 -8.42681,-6.0745 -8.42681,-13.56781c0,-7.4933 3.7728,-13.56781 8.42681,-13.56781c4.654,0 8.42681,6.07449 8.42681,13.56781c0,7.4933 -3.7728,13.56781 -8.42681,13.56781z" data-paper-data="{&quot;index&quot;:null}" fill="#d8d8d8" stroke="#000000" stroke-width="1" stroke-linecap="butt"></path></g></g></svg>