<svg version="1.1" xmlns="http://www.w3.org/2000/svg" xmlns:xlink="http://www.w3.org/1999/xlink" width="95.75303" height="123.10399" viewBox="0,0,95.75303,123.10399"><g transform="translate(-194.1709,-97.14601)"><g data-paper-data="{&quot;isPaintingLayer&quot;:true}" fill-rule="nonzero" stroke-linejoin="miter" stroke-miterlimit="10" stroke-dasharray="" stroke-dashoffset="0" style="mix-blend-mode: normal"><g data-paper-data="{&quot;index&quot;:null}" stroke="#000000"><path d="M204.87634,165.5428c-1.83707,-0.82999 -5.36055,-0.69926 -7.42027,-2.3649c-2.44296,-1.97556 -3.28517,-5.70906 -3.28517,-5.70906l0.0514,-4.01489c0,0 3.36676,3.98215 6.83003,5.78356c2.98087,1.5505 6.01789,0.96062 7.21988,0.93333c4.53252,-0.1029 13.43998,-2.3418 13.43998,-2.3418l0.30291,10.35036c0,0 -12.05286,-0.33876 -17.13877,-2.63659z" fill="#b058be" stroke-width="0" stroke-linecap="butt"></path><path d="M216.18177,167.75992c0,0 -2.05768,-4.36815 -2.10239,-5.8958c-0.03427,-1.17072 1.85704,-2.48763 1.85704,-2.48763" fill="none" stroke-width="0.5" stroke-linecap="round"></path><path d="M212.04689,166.95796c0,0 -1.94155,-3.26723 -1.97684,-4.47308c-0.02882,-0.98457 1.78056,-2.23367 1.78056,-2.23367" fill="none" stroke-width="0.5" stroke-linecap="round"></path><path d="M207.15753,166.17809c0,0 -1.67829,-3.01317 -1.64763,-4.08301c0.02022,-0.70555 1.81367,-1.71138 1.81367,-1.71138" fill="none" stroke-width="0.5" stroke-linecap="round"></path><path d="M203.16824,164.61672c0,0 -1.36894,-2.21556 -1.37605,-2.98263c-0.00532,-0.57462 1.33721,-1.21153 1.33721,-1.21153" fill="none" stroke-width="0.5" stroke-linecap="round"></path><path d="M199.60303,163.21075c0,0 -1.26688,-2.33326 -1.29902,-2.98522c-0.03621,-0.73458 1.09251,-1.20404 1.09251,-1.20404" fill="none" stroke-width="0.5" stroke-linecap="round"></path><path d="M194.921,159.18823c0,0 0.79732,-2.01018 1.18814,-2.37063c0.44035,-0.40615 1.32313,0.05442 1.32313,0.05442" fill="none" stroke-width="0.5" stroke-linecap="round"></path></g><path d="" data-paper-data="{&quot;index&quot;:null}" fill="none" stroke="#000000" stroke-width="1.5" stroke-linecap="round"></path><path d="" data-paper-data="{&quot;index&quot;:null}" fill="none" stroke="#000000" stroke-width="1.5" stroke-linecap="round"></path><path d="" data-paper-data="{&quot;index&quot;:null}" fill="none" stroke="#000000" stroke-width="1.5" stroke-linecap="round"></path><path d="" data-paper-data="{&quot;index&quot;:null}" fill="none" stroke="#000000" stroke-width="1.5" stroke-linecap="round"></path><path d="" data-paper-data="{&quot;index&quot;:null}" fill="none" stroke="#000000" stroke-width="1.5" stroke-linecap="round"></path><path d="M289.92393,195.47556" data-paper-data="{&quot;index&quot;:null}" fill="none" stroke="#d8d8d8" stroke-width="4" stroke-linecap="round"></path><path d="M240.00003,219.5c-21.81525,0 -39.5,-17.68475 -39.5,-39.5c0,-21.81525 17.68475,-39.5 39.5,-39.5c21.81525,0 39.5,17.68475 39.5,39.5c0,21.81525 -17.68475,39.5 -39.5,39.5z" fill="#d8d8d8" stroke="#000000" stroke-width="1.5" stroke-linecap="butt"></path><path d="M228.9321,167.12465c0,4.00803 -1.24316,7.25718 -2.77666,7.25718c-1.5335,0 -2.77666,-3.24915 -2.77666,-7.25718c0,-4.00803 -0.37863,-7.00476 -0.37863,-7.00476c0,0 4.21336,0.55153 5.46913,3.69379c0.21243,0.53156 0.46283,2.73105 0.46283,3.31097z" fill="#ff6666" stroke="#000000" stroke-width="0" stroke-linecap="butt"></path><path d="M240.5793,164.90112c1.25577,-3.14226 5.46913,-3.69378 5.46913,-3.69378c0,0 -0.37864,2.99672 -0.37864,7.00475c0,4.00803 -1.24316,7.25718 -2.77666,7.25718c-1.5335,0 -2.77666,-3.24915 -2.77666,-7.25718c0,-0.57991 0.25039,-2.77941 0.46283,-3.31097z" data-paper-data="{&quot;index&quot;:null}" fill="#ff6666" stroke="#000000" stroke-width="0" stroke-linecap="butt"></path><path d="M219.81967,184.61827l33.69856,3.15529" fill="none" stroke="#000000" stroke-width="0.5" stroke-linecap="round"></path><path d="M231.10794,185.75843l-6.21783,9.11743l-2.74141,-9.94892z" fill="#ffffff" stroke="#000000" stroke-width="0.5" stroke-linecap="round"></path><path d="M252.22341,187.89609l-5.57718,8.178l-2.45893,-8.92381z" fill="#ffffff" stroke="#000000" stroke-width="0.5" stroke-linecap="round"></path><g stroke="#000000"><path d="M257.19908,171.00453l0.30292,-10.35036c0,0 8.90747,2.2389 13.43998,2.3418c1.202,0.02729 4.239,0.61718 7.21988,-0.93333c3.46326,-1.80141 6.83004,-5.78356 6.83004,-5.78356l0.0514,4.01489c0,0 -0.8422,3.7335 -3.28517,5.70906c-2.05972,1.66565 -5.5832,1.5349 -7.42027,2.3649c-5.08591,2.29782 -17.13878,2.63659 -17.13878,2.63659z" fill="#b058be" stroke-width="0" stroke-linecap="butt"></path><path d="M263.27779,162.20162c0,0 1.89131,1.31691 1.85704,2.48763c-0.04471,1.52764 -2.10239,5.8958 -2.10239,5.8958" fill="none" stroke-width="0.5" stroke-linecap="round"></path><path d="M267.36359,163.07635c0,0 1.80938,1.2491 1.78056,2.23367c-0.03529,1.20585 -1.97684,4.47307 -1.97684,4.47307" fill="none" stroke-width="0.5" stroke-linecap="round"></path><path d="M271.89063,163.20884c0,0 1.79345,1.00583 1.81367,1.71138c0.03066,1.06984 -1.64763,4.083 -1.64763,4.083" fill="none" stroke-width="0.5" stroke-linecap="round"></path><path d="M276.08477,163.24768c0,0 1.34252,0.63692 1.3372,1.21154c-0.00711,0.76707 -1.37604,2.98263 -1.37604,2.98263" fill="none" stroke-width="0.5" stroke-linecap="round"></path><path d="M279.81766,161.84662c0,0 1.12872,0.46946 1.09251,1.20404c-0.03214,0.65196 -1.29902,2.98522 -1.29902,2.98522" fill="none" stroke-width="0.5" stroke-linecap="round"></path><path d="M281.78193,159.69716c0,0 0.88277,-0.46058 1.32313,-0.05443c0.39082,0.36046 1.18814,2.37064 1.18814,2.37064" fill="none" stroke-width="0.5" stroke-linecap="round"></path></g><path d="M216.05255,153.99048c-1.39395,-3.49401 -2.49912,-7.1579 -3.60526,-10.81558c-0.09718,-0.24393 -0.19569,-0.48746 -0.29559,-0.73058c-1.08993,-2.20181 -2.16402,-4.41128 -3.20934,-6.63385c-0.21444,-0.41937 -0.4116,-0.83173 -0.58186,-1.24513c-0.66326,-1.42878 -1.31371,-2.86336 -1.9479,-4.30521l-0.94353,-2.14565c-0.17697,-0.39007 -0.23369,-0.83867 -0.13401,-1.28908c0.24474,-1.10591 1.33965,-1.80403 2.44556,-1.55929c0.65067,0.14399 1.16017,0.58228 1.41955,1.14396l0.19599,0.4139c1.09334,0.05077 1.66613,1.12864 1.66613,1.12864l0.43164,0.81404l-0.35729,-1.04504c-0.12733,-0.35272 -0.15952,-0.74455 -0.0725,-1.13778c0.24474,-1.10591 1.33965,-1.80403 2.44556,-1.55929c0.19847,0.04392 0.38379,0.11522 0.5529,0.20905l-0.54909,-1.80123c-0.10951,-0.33645 -0.13334,-0.70568 -0.05135,-1.07614c0.24474,-1.10591 1.33965,-1.80403 2.44556,-1.55929c0.34571,0.07651 0.65157,0.23609 0.90123,0.45311c0.42219,-0.52543 1.09015,-0.82409 1.78859,-0.75873c0.18827,-0.51165 0.61433,-1.03153 1.54785,-1.19596c2.01978,-0.35576 2.37554,1.66403 2.37554,1.66403c1.66019,9.42563 3.3204,18.85128 4.98059,28.27691l0.70353,3.99426c0.05415,0.27088 0.05414,0.55716 -0.00938,0.84418c-0.05929,0.26792 -0.16849,0.51192 -0.31565,0.72437c0.05484,0.41799 0.10795,0.83647 0.1593,1.25545l0.36125,2.95194c0.03502,0.23947 0.02793,0.48925 -0.02747,0.73959c-0.165,0.74561 -0.71646,1.30587 -1.39719,1.51677l0.10782,0.39888c0.09356,0.32023 0.11013,0.66786 0.03296,1.01659c-0.24474,1.10591 -1.33965,1.80403 -2.44556,1.55929c-0.4863,-0.10762 -0.89374,-0.37962 -1.17685,-0.74467c-0.10573,-0.00654 -0.21232,-0.02137 -0.31901,-0.04498c-0.62622,-0.13858 -1.1217,-0.54978 -1.38927,-1.08121l-0.21032,-0.41025c-0.47539,0.57041 -1.245,0.86194 -2.02,0.69043c-0.76673,-0.16968 -1.33745,-0.748 -1.53385,-1.45533l-1.16089,-3.89137l0.12795,-0.03817c-0.30979,-1.09326 -0.62007,-2.18419 -0.93635,-3.27163z" fill="#d90000" stroke="none" stroke-width="0.5" stroke-linecap="butt"></path><path d="M216.0108,126.66729c2.0048,-0.43227 2.43707,1.57254 2.43707,1.57254l0.37012,1.74369c0.08227,0.27869 0.16505,0.55701 0.24824,0.835c0.46965,-0.38419 1.1044,-0.55712 1.74281,-0.41584c0.72616,0.1607 1.2765,0.68795 1.49955,1.34417l1.37083,3.82859l-0.03638,0.01302l0.07512,0.10661c1.24511,5.51038 2.7641,10.82038 3.50477,16.23674c0.27705,1.12948 0.55408,2.25895 0.83113,3.38842l0.07709,-0.01733l0.89038,3.9597c0.0737,0.29733 0.08167,0.6158 0.01099,0.93518c-0.24474,1.10591 -1.33965,1.80403 -2.44556,1.55929c-0.80328,-0.17776 -1.39142,-0.80408 -1.55936,-1.55735l-0.04737,-0.19308c-0.0912,-0.00762 -0.18295,-0.02144 -0.27477,-0.04176c-0.69224,-0.15319 -1.2247,-0.63949 -1.46616,-1.25307l-1.30845,-3.1985c-0.08946,-0.11362 -0.16677,-0.23644 -0.23056,-0.36625l-0.94036,-1.87562l0.04606,-0.02309l-0.09346,-0.07826c-1.9189,-5.14805 -3.63905,-9.57742 -4.46431,-14.36102c-0.24841,-0.81132 -0.50098,-1.62904 -0.76189,-2.45308l0.02654,-0.04867l-0.03748,0.01029l-0.01767,-0.06438l-0.13325,0.03179l-0.94197,-3.94874c-0.07954,-0.30442 -0.08997,-0.63176 -0.01732,-0.96006c0.06881,-0.31094 0.20483,-0.58962 0.38939,-0.82419l-0.31628,-1.4476c0,0 -0.43227,-2.0048 1.57254,-2.43707z" fill="#d98282" stroke="none" stroke-width="0.5" stroke-linecap="butt"></path><path d="M194.7815,115.83715c0,0 -0.70681,-1.32304 0.61623,-2.02984c0.52561,-0.2808 0.95397,-0.24123 1.27938,-0.09152l-1.02913,-2.0286c-0.11219,-0.21022 -0.17578,-0.45029 -0.17578,-0.70522c0,-0.82843 0.67157,-1.5 1.5,-1.5c0.42665,0 0.8117,0.17813 1.08484,0.46408l1.70234,1.77623l-0.05807,0.05565l0.19514,0.10957c0.43299,0.82673 0.86446,1.65424 1.29526,2.48209c-0.19204,-0.69932 -0.37057,-1.40039 -0.5325,-2.10332c-0.00303,-0.00706 -0.00606,-0.01412 -0.00909,-0.02117l-0.27867,0.12112l-1.18273,-2.72113c-0.08824,-0.19108 -0.13746,-0.40387 -0.13746,-0.62815c0,-0.82843 0.67157,-1.5 1.5,-1.5c0.56265,0 1.05294,0.30978 1.30963,0.76809l1.25663,2.15178l-0.0243,0.01419l0.06102,0.05252c0.55291,1.21308 1.10777,2.3858 1.6423,3.54296c-0.78443,-2.71964 -1.75137,-6.07205 -2.43284,-8.43472c0,0 -0.4157,-1.44125 1.02555,-1.85695c1.44125,-0.4157 1.85695,1.02555 1.85695,1.02555c0.69147,2.39736 1.38295,4.79473 2.07442,7.19209c0.06082,-0.20608 0.14151,-0.38261 0.25835,-0.50535c-0.64362,-1.95012 -1.22387,-3.91516 -1.66732,-5.89072c-0.01251,-0.03665 -0.025,-0.0733 -0.03747,-0.10997c-0.36547,-1.07458 -1.18718,-2.10289 -1.07171,-3.23202c0.01073,-0.10494 0.02861,-0.20765 0.05268,-0.30843l-0.0073,0.00191l-0.75021,-2.86952c-0.03738,-0.13101 -0.05739,-0.26934 -0.05739,-0.41234c0,-0.82843 0.67157,-1.5 1.5,-1.5c0.632,0 1.17271,0.39086 1.39359,0.94403l0.54995,1.29113c0.26148,0.18296 0.46191,0.44719 0.56465,0.75603l0.66853,1.86272c0.21292,0.59324 0.43137,1.1856 0.65304,1.77751l0.93425,-0.02897c0.55854,1.9676 0.91228,3.87395 1.25146,5.80423c1.03787,2.82245 1.97883,5.66602 2.57442,8.57655l0.42588,0.92879l0.13042,-0.04368l0.94153,2.81153c0.05744,0.15907 0.08875,0.33064 0.08875,0.50952c0,0.46774 -0.21409,0.88549 -0.54963,1.16057c0.00486,0.04916 0.00735,0.09901 0.00735,0.14944c0,0.82843 -0.67157,1.5 -1.5,1.5c-0.62927,0 -1.16804,-0.38749 -1.39071,-0.93687l-1.07088,-2.47918l0.01958,-0.00846l-0.04278,-0.04841c-0.75759,-2.23859 -1.60962,-4.50922 -2.43276,-6.80451l-0.71674,1.21743c-0.25742,0.45565 -0.74624,0.76325 -1.3069,0.76325c-0.28543,0 -0.55224,-0.07972 -0.77938,-0.21812c0.18304,0.42738 0.36094,0.85517 0.53257,1.28467c0.55197,1.19537 1.10394,2.39073 1.65591,3.5861l0.01516,-0.0069l1.22918,2.70131c0.09486,0.19679 0.14803,0.41746 0.14803,0.65054c0,0.68262 -0.45598,1.25874 -1.07997,1.4404c0.19565,0.58235 0.3913,1.16471 0.58694,1.74706l-0.00058,0.03991l0.01137,-0.00319l0.30598,1.09181c0.08033,-0.03837 0.16625,-0.07429 0.25812,-0.10741c0.1057,-0.03811 0.20769,-0.06833 0.30608,-0.09143c0.41663,-0.22278 0.91188,-0.30347 1.40934,-0.19338c0.72055,0.15946 1.26799,0.67982 1.49432,1.32898l0.79406,2.16711l-0.02556,0.00937l0.57747,1.63485c0.28819,0.67426 0.5724,1.34813 0.85282,2.02206c0.8163,1.69649 1.52231,3.49736 2.14824,5.35554c1.0177,2.63484 1.98517,5.28811 2.91304,7.98568c0.7666,2.2287 1.75666,3.94798 2.17686,5.74083c0.24837,0.5951 0.49588,1.1904 0.74225,1.78598l1.55825,3.76695c0.16345,0.3809 0.21334,0.81479 0.11694,1.25038c-0.22615,1.02193 -1.17826,1.69565 -2.19416,1.59898l0.14448,0.99622c0.04274,0.25298 0.03841,0.51826 -0.02044,0.78418c-0.24474,1.10591 -1.33965,1.80403 -2.44556,1.55929c-0.55053,-0.12183 -1.00001,-0.45436 -1.28242,-0.89403l-2.21741,-3.45006l0.38919,-0.25015c-6.82785,-8.32974 -9.98418,-18.34047 -13.87173,-28.70084l1.01192,-0.37197c-3.20551,-5.71609 -6.32443,-11.47077 -9.41308,-17.25225zM197.28466,114.18741l-0.01431,0.00726c0.01023,0.01272 0.01996,0.02515 0.0292,0.03723c-0.00497,-0.01483 -0.00994,-0.02965 -0.01489,-0.04448zM214.19239,150.99923c0.52136,1.08323 1.1796,2.06832 1.86257,3.01759c-0.91297,-3.40662 -1.86233,-6.79965 -2.92239,-10.16876c-1.40786,-3.41137 -2.77911,-6.83647 -4.06252,-10.29125c-0.21348,0.45875 -0.65214,0.79155 -1.17393,0.85635c1.97523,5.54351 3.77164,11.34076 6.29627,16.58606z" fill="#ff0000" stroke="none" stroke-width="0.5" stroke-linecap="butt"></path><path d="M219.01429,126.30466c-1.45839,0.35085 -1.80924,-1.10754 -1.80924,-1.10754c-1.87121,-7.77808 -3.98543,-16.56633 -5.85664,-24.34442c0,0 -0.21619,-0.89866 0.39626,-1.45482c-0.00494,-0.45844 0.14957,-1.18275 1.1118,-1.43768c1.44998,-0.38414 1.83412,1.06584 1.83412,1.06584c1.44768,5.46441 2.89558,10.92876 4.34293,16.39326l0.65518,2.74734c0,0 0.27536,1.15488 -0.69133,1.65471c0.29381,1.2213 0.58763,2.4426 0.88144,3.6639l0.24302,1.01017c0,0 0.35085,1.45839 -1.10754,1.80924z" fill="#ff0000" stroke="none" stroke-width="0.5" stroke-linecap="butt"></path><path d="M214.61435,173.02582c-1.45577,-0.36157 -1.0942,-1.81734 -1.0942,-1.81734l0.17644,-0.61795c0.44772,-3.10674 -2.78919,-1.25709 -3.21481,-3.94485c-0.17592,-1.11093 1.64642,-1.68429 1.91894,-2.77554c0.12303,-0.49266 -0.61545,-0.80786 -0.92318,-1.21179c0,0 -0.69504,-1.32925 0.63421,-2.0243c1.32925,-0.69504 2.0243,0.63421 2.0243,0.63421c0.41531,0.97887 1.4071,1.88555 1.24594,2.9366c-0.1346,0.87784 -1.84173,0.91394 -1.97109,1.79257c-0.08206,0.55739 1.24838,-0.17959 1.68037,0.18209c2.06945,1.73264 1.6664,2.52226 1.59779,4.62338l-0.25738,1.12872c0,0 -0.36157,1.45577 -1.81734,1.0942z" fill="#d93f3f" stroke="none" stroke-width="0.5" stroke-linecap="butt"></path><path d="M237.93923,159.83983l-1.33609,2.56889c-2.11044,-1.39935 -3.32579,-1.43073 -2.11299,-4.97431c0.03891,-0.11369 0.08182,-0.2273 0.12859,-0.3403c-0.46435,-0.0246 -0.92871,-0.0492 -1.39306,-0.0738c0,0 -1.4979,-0.07935 -1.41855,-1.57725c0.07935,-1.4979 1.57725,-1.41855 1.57725,-1.41855c0.9986,0.0529 1.9972,0.1058 2.9958,0.1587l2.98637,0.1582c0.79596,0.03652 1.43007,0.69341 1.43007,1.4984c0,0.82593 -0.66752,1.49594 -1.4925,1.49998l-0.92068,0.00527c-0.75197,0.5576 -1.3773,1.17699 -1.33862,1.67565c0.6101,0.0825 1.01352,0.59009 1.01352,0.59009l-0.0765,0.14709c0.01669,0.00449 0.03362,0.00893 0.05081,0.01331z" fill="#d93f3f" stroke="none" stroke-width="0.5" stroke-linecap="butt"></path></g></g></svg>