<svg version="1.1" xmlns="http://www.w3.org/2000/svg" xmlns:xlink="http://www.w3.org/1999/xlink" width="94.71272" height="91.1966" viewBox="0,0,94.71272,91.1966"><g transform="translate(-189.52581,-132.22738)"><g data-paper-data="{&quot;isPaintingLayer&quot;:true}" fill-rule="nonzero" stroke-linejoin="miter" stroke-miterlimit="10" stroke-dasharray="" stroke-dashoffset="0" style="mix-blend-mode: normal"><path d="" data-paper-data="{&quot;index&quot;:null}" fill="none" stroke="#000000" stroke-width="1.5" stroke-linecap="round"></path><path d="M204.48853,183.17397c0,-21.81525 17.68475,-39.5 39.5,-39.5c21.81525,0 39.5,17.68475 39.5,39.5c0,21.81525 -17.68475,39.5 -39.5,39.5c-21.81525,0 -39.5,-17.68475 -39.5,-39.5z" fill="#d8d8d8" stroke="#000000" stroke-width="1.5" stroke-linecap="butt"></path><path d="M189.52581,199.6534" fill="none" stroke="#d8d8d8" stroke-width="4" stroke-linecap="round"></path><path d="M237.30735,180.42398v-8" fill="none" stroke="#000000" stroke-width="1.5" stroke-linecap="round"></path><path d="M246.72283,180.56694v-8" fill="none" stroke="#000000" stroke-width="1.5" stroke-linecap="round"></path><path d="M255.43206,201.95292c0,0 -9.13532,1.76619 -13.24645,1.76619c-4.40514,0 -12.36335,-1.76619 -12.36335,-1.76619" fill="none" stroke="#000000" stroke-width="1.5" stroke-linecap="round"></path><g><path d="M240.98418,132.3908l-2.36946,56.36065l-3.88694,-0.16342l2.36944,-56.36064z" fill="#7f7600" stroke="#000000" stroke-width="0" stroke-linecap="butt"></path><path d="M243.68457,199.51708c-0.15298,4.34822 -3.80189,7.74911 -8.15012,7.59615c-4.34822,-0.15298 -7.74912,-3.8019 -7.59615,-8.15012c0.15298,-4.34822 3.80189,-7.74911 8.15012,-7.59615c4.34822,0.15298 7.74912,3.8019 7.59615,8.15012z" fill="none" stroke="#ffee00" stroke-width="5" stroke-linecap="butt"></path><path d="M238.73489,207.42838c0,0 0.55706,10.09426 -3.66726,10.18684c-4.2243,0.09259 -2.37278,-10.01007 -2.37278,-10.01007" fill="none" stroke="#ffee00" stroke-width="6.5" stroke-linecap="round"></path><path d="M227.81985,201.54666c0,0 -10.09426,0.55707 -10.18684,-3.66724c-0.09258,-4.22429 10.01007,-2.37278 10.01007,-2.37278" fill="none" stroke="#ffee00" stroke-width="6.5" stroke-linecap="round"></path><path d="M233.37979,191.98275c0,0 -0.55707,-10.09426 3.66724,-10.18686c4.2243,-0.09259 2.37278,10.01007 2.37278,10.01007" fill="none" stroke="#ffee00" stroke-width="6.5" stroke-linecap="round"></path><path d="M244.62934,197.1591c0,0 10.09426,-0.55706 10.18684,3.66726c0.0926,4.22429 -10.01006,2.37276 -10.01006,2.37276" fill="none" stroke="#ffee00" stroke-width="6.5" stroke-linecap="round"></path></g></g></g></svg>