<svg version="1.1" xmlns="http://www.w3.org/2000/svg" xmlns:xlink="http://www.w3.org/1999/xlink" width="190.63818" height="126.33967" viewBox="0,0,190.63818,126.33967"><g transform="translate(-131.94671,-113.70171)"><g data-paper-data="{&quot;isPaintingLayer&quot;:true}" fill="#e200ff" fill-rule="nonzero" stroke="none" stroke-width="0.5" stroke-linecap="butt" stroke-linejoin="miter" stroke-miterlimit="10" stroke-dasharray="" stroke-dashoffset="0" style="mix-blend-mode: normal"><path d="M267.57781,197.25952c0.49339,2.45083 -1.95744,2.94422 -1.95744,2.94422l-1.08445,0.1957c-4.86212,0.31327 -9.50632,0.02182 -14.36205,-0.30401c0,0 -2.49439,-0.16739 -2.327,-2.66178c0.16739,-2.49439 2.66178,-2.327 2.66178,-2.327c4.6354,0.31108 9.0605,0.61242 13.70062,0.30347l0.42431,-0.10804c0,0 2.45083,-0.49339 2.94422,1.95744z"></path><path d="M314.61383,113.70171c2.5,0 2.5,2.5 2.5,2.5l-0.00547,0.74597c0.26292,4.16299 0.01798,6.9061 -0.86908,9.76089l0.42496,0.06503l-0.75051,4.90423c-0.13844,1.01826 -0.88997,1.8416 -1.87056,2.08597l-0.12653,0.73871c-0.18339,1.19998 -1.21994,2.1192 -2.47118,2.1192c-1.38071,0 -2.5,-1.11929 -2.5,-2.5l0,-3.32541c-0.00684,-0.42028 -0.02302,-0.83339 -0.04489,-1.24056l-0.03635,0.11311c-0.30613,1.03461 -1.26371,1.78948 -2.39759,1.78948c-0.79509,0 -1.50349,-0.37117 -1.96139,-0.94969c-0.45789,0.57852 -1.16629,0.94969 -1.96139,0.94969c-0.1257,0 -0.24923,-0.00928 -0.36994,-0.02718l-1.31098,1.9354c-0.44679,0.68005 -1.21642,1.12906 -2.09092,1.12906c-0.71211,0 -1.35468,-0.29773 -1.81002,-0.77551l-0.32487,0.98101c-0.13903,0.45521 -0.40447,0.85525 -0.7554,1.1592c-0.02992,0.6805 -0.09574,1.24296 -0.21161,1.61063c-0.02522,0.08004 -0.0516,0.15957 -0.07908,0.23863l0.03539,0.00811l-0.89408,3.89967c-0.23543,1.1362 -1.24198,1.99013 -2.44797,1.99013c-0.45593,0 -0.88335,-0.12205 -1.25138,-0.33525c-0.44992,0.6607 -1.20822,1.09457 -2.06784,1.09457c-1.24811,0 -2.2826,-0.91463 -2.46979,-2.1102l-0.44527,-2.53978l0.02457,-0.00431l-0.0336,-0.05082c-0.52037,-4.01081 -0.99295,-7.87692 -1.23128,-11.92429c0,0 -0.09662,-1.6532 1.21293,-2.3472l-0.00083,-0.0108c-0.00619,-0.07173 -0.00934,-0.14433 -0.00934,-0.21767c0,-1.38071 1.11929,-2.5 2.5,-2.5c0.62068,0 1.18853,0.22619 1.62562,0.60064c0.38306,-0.88926 1.26738,-1.51182 2.29711,-1.51182c0.83076,0 1.56688,0.40522 2.02149,1.02879c0.45544,-0.61496 1.18633,-1.01362 2.01034,-1.01362c1.08257,0 2.00442,0.68809 2.35207,1.65077l0.62497,1.61216c0.00265,-0.01032 0.0053,-0.02064 0.00797,-0.03094l0.14107,-3.12434c0.05209,-1.33472 1.15058,-2.40078 2.49807,-2.40078c0.63143,0 1.20819,0.23409 1.64822,0.62023c0.36049,-0.20159 0.77603,-0.31649 1.21841,-0.31649c0.41543,0 0.80719,0.10133 1.15192,0.28062c0.06252,-0.27727 0.11974,-0.55477 0.16461,-0.83282l0.03915,-0.06293l-0.02504,-0.00553l0.59291,-2.68565c0.22816,-1.14558 1.23915,-2.00896 2.45179,-2.00896c1.07956,0 1.9993,0.68428 2.34916,1.64276c0.14583,-0.20138 0.32094,-0.38016 0.51909,-0.5301c0.18013,-0.74056 0.73054,-1.87197 2.41237,-1.87197z"></path><path d="M303.99681,227.29318c2.35126,0.84945 1.50181,3.20071 1.50181,3.20071l-0.50772,1.33284c-0.22602,1.07013 -0.61628,2.09185 -1.10819,3.07533l0.40894,0.14774l-1.18722,3.28624c-0.33204,0.99115 -1.26814,1.70535 -2.37106,1.70535c-1.25551,0 -2.29486,-0.9255 -2.47303,-2.13148l-0.45438,-2.74058c-0.11796,-0.6825 -0.22548,-1.3751 -0.30745,-2.07166c-0.45846,0.5322 -1.13732,0.86915 -1.89487,0.86915c-0.6451,0 -1.23314,-0.24434 -1.67661,-0.64552c-0.41641,0.31012 -0.93265,0.49366 -1.49176,0.49366c-1.38071,0 -2.5,-1.11929 -2.5,-2.5c0,-0.05324 0.00166,-0.10608 0.00494,-0.15849l0.14958,-2.71017c0.20205,-3.85501 0.52987,-7.69778 0.75497,-11.55244c0,0 0.14585,-2.49574 2.64159,-2.34989c1.43973,0.08414 2.00038,0.95028 2.21707,1.66819c1.33446,0.05238 2.40022,1.15075 2.40022,2.49805c0,0.17897 -0.01881,0.35354 -0.05455,0.52185l-0.57075,2.96823l0.18983,0.36305l-0.09475,0.04954c0.02917,0.04609 0.05779,0.09255 0.08585,0.1394c0.94118,0.0916 1.72948,0.70509 2.07181,1.54739l1.57815,3.6442c0.48342,-0.57145 1.33817,-1.13816 2.68758,-0.65066z"></path><path d="M309.09635,233.74476c0,-1.24573 0.91114,-2.27865 2.10335,-2.46871c-0.47273,-1.77369 -0.98614,-3.53673 -1.5361,-5.28731c0,0 -0.74836,-2.38536 1.637,-3.13372c2.38536,-0.74836 3.13372,1.637 3.13372,1.637c0.992,3.16609 1.87108,6.3705 2.61591,9.60367l0.3174,1.5917c0,0 0.48721,2.45207 -1.96485,2.93928c-2.45207,0.48721 -2.93928,-1.96485 -2.93928,-1.96485l-0.10589,-0.53507c-0.24003,0.07665 -0.49581,0.11802 -0.76126,0.11802c-1.38071,0 -2.5,-1.11929 -2.5,-2.5z"></path><path d="M319.88592,237.60647c-2.49491,-0.15941 -2.33551,-2.65432 -2.33551,-2.65432l0.07894,-0.47515c-0.36706,-2.79563 -0.94014,-5.59142 -1.89938,-8.24286c0,0 -0.84191,-2.35397 1.51206,-3.19588c2.35397,-0.84191 3.19588,1.51206 3.19588,1.51206c1.05763,2.9873 1.71708,6.12168 2.14697,9.26138l-0.04465,1.45927c0,0 -0.15941,2.49491 -2.65432,2.33551z"></path><path d="M278.74483,233.93238c-2.46557,-0.41347 -2.0521,-2.87904 -2.0521,-2.87904l0.51041,-3.04291c0.4936,-3.33609 1.08477,-6.65914 1.77066,-9.96106c0,0 0.50896,-2.44764 2.95661,-1.93868c2.44764,0.50896 1.93868,2.95661 1.93868,2.95661c-0.67078,3.22235 -1.24648,6.46593 -1.72699,9.72209l-0.51822,3.0909c0,0 -0.41347,2.46557 -2.87904,2.0521z"></path><path d="M277.81997,129.15963c-2.47927,0.32128 -2.80055,-2.15798 -2.80055,-2.15798l-0.38247,-3.14617c-0.51373,-1.15443 -1.02746,-2.30885 -1.5412,-3.46328c0,0 -1.00132,-2.29071 1.28938,-3.29203c2.29071,-1.00132 3.29203,1.28938 3.29203,1.28938c0.59266,1.37665 1.18533,2.7533 1.77799,4.12995l0.5228,3.83958c0,0 0.32128,2.47927 -2.15798,2.80055z"></path><path d="M218.58527,162.1755c0.19299,2.49254 -2.29955,2.68553 -2.29955,2.68553l-4.02907,0.30969c-7.93832,-0.05769 -15.72905,-0.28662 -23.61881,-1.23118c0,0 -2.48224,-0.29745 -2.18479,-2.77969c0.29745,-2.48224 2.77969,-2.18479 2.77969,-2.18479c7.63457,0.91572 15.169,1.13223 22.8506,1.19867l3.81639,-0.29777c0,0 2.49254,-0.19299 2.68553,2.29955z"></path><path d="M171.96863,191.69139c0.13879,2.49614 -2.35735,2.63494 -2.35735,2.63494l-3.58383,0.19927c-8.02627,0.44572 -15.87792,1.52884 -23.92136,0.8589c0,0 -2.49125,-0.20897 -2.28229,-2.70022c0.20897,-2.49125 2.70022,-2.28229 2.70022,-2.28229c7.79993,0.65913 15.4394,-0.43518 23.22584,-0.86868l1.40373,-0.07805c-0.03062,-0.20145 -0.04066,-0.42326 -0.0253,-0.66746c0.15696,-2.49507 2.65203,-2.3381 2.65203,-2.3381c5.89122,0.37215 11.69217,0.50488 17.55991,1.27068l3.37863,0.58328c0,0 2.46349,0.42568 2.03781,2.88917c-0.42568,2.46349 -2.88917,2.03781 -2.88917,2.03781l-3.27714,-0.56681c-4.89126,-0.64043 -9.73591,-0.8173 -14.62931,-1.08014c0.00302,0.03535 0.00555,0.07125 0.00758,0.10771z"></path><path d="M223.41593,169.73544c0.64698,-0.21621 2.18556,-0.50326 3.05713,1.22844c0.78897,1.56759 -0.0763,2.58861 -0.66213,3.05796c0.00052,0.0038 0.00104,0.00761 0.00155,0.01142c0.33253,2.47779 -2.14526,2.81031 -2.14526,2.81031l-2.38602,0.31713c-5.66659,0.47066 -11.02678,-0.00063 -16.61594,-0.93683c0,0 -2.46555,-0.41363 -2.05192,-2.87917c0.41363,-2.46555 2.87917,-2.05192 2.87917,-2.05192c0.95117,0.15983 1.89463,0.30594 2.83366,0.43521c0.18573,-0.16319 0.38936,-0.28367 0.59239,-0.37249c0.00094,-0.01664 0.002,-0.0334 0.00319,-0.05025c0.17513,-2.49386 2.66899,-2.31873 2.66899,-2.31873c3.94037,0.27673 7.87577,0.70012 11.82519,0.74893z"></path><path d="M133.8595,180.13121c0,0 -2.42442,-0.61009 -1.81433,-3.0345c0.61009,-2.42442 3.0345,-1.81433 3.0345,-1.81433c0.47701,0.12009 0.94991,0.2363 1.41981,0.34853c0.18884,-1.75925 2.10392,-2.06362 2.10392,-2.06362c0.8374,-0.13306 1.67522,-0.26247 2.51332,-0.38928c0.67559,-0.75305 1.73155,-0.84683 1.73155,-0.84683c1.66356,-0.14654 3.15068,-0.27487 4.57269,-0.4871c-0.7332,-0.0483 -1.47984,-0.09852 -2.24537,-0.14661c0,0 -2.49507,-0.15696 -2.3381,-2.65203c0.15696,-2.49507 2.65203,-2.3381 2.65203,-2.3381c0.05848,0.00368 0.11684,0.00739 0.17508,0.01113c0.52942,-1.85842 2.60168,-1.67704 2.60168,-1.67704c0.21382,0.01872 0.42762,0.0376 0.64141,0.05663c0.45753,-0.50689 1.11974,-0.82547 1.85635,-0.82547c0.90312,0 1.69438,0.47887 2.13373,1.19655c1.29186,0.12461 2.58337,0.25287 3.87467,0.38287l4.55901,0.56569c0,0 1.72344,0.21391 2.11917,1.7216c1.24819,0.30273 2.49476,0.56002 3.7452,0.78983c3.33329,-0.39397 6.66292,-0.80775 9.99617,-1.18781c-4.42643,-0.12204 -8.83985,-0.29844 -13.26083,-0.76034c0,0 -2.48637,-0.26069 -2.22568,-2.74706c0.00766,-0.07308 0.01725,-0.14379 0.02864,-0.21221c-0.64286,0.15232 -1.2084,0.03741 -1.2084,0.03741l-0.07674,-0.01559c-5.77657,-1.17626 -11.33184,-1.75797 -17.22868,-1.75672c0,0 -2.5,0 -2.5,-2.5c0,-2.5 2.5,-2.5 2.5,-2.5c6.23049,0.00127 12.11998,0.61915 18.22425,1.85683l0.07674,0.01559c0,0 2.44239,0.49625 1.95444,2.93641c0.5326,-0.13399 0.97682,-0.08741 0.97682,-0.08741c6.1718,0.64948 12.33246,0.7147 18.53335,0.87896l1.45584,0.01881c0,0 2.49979,0.03268 2.46711,2.53246c-0.00762,0.58287 -0.14937,1.02806 -0.36228,1.36808l1.12111,-0.09518c0,0 2.49104,-0.21149 2.70252,2.27955c0.21149,2.49104 -2.27955,2.70252 -2.27955,2.70252l-1.97611,0.16777c-1.74886,0.14829 -3.49503,0.31873 -5.23955,0.50337c0.00646,0.24227 -0.01286,0.46136 -0.05276,0.65947c3.77258,1.00077 7.39806,1.39496 11.60278,0.9189l3.32561,-0.79463c0,0 2.43237,-0.57755 3.00992,1.85483c0.57755,2.43237 -1.85483,3.00992 -1.85483,3.00992l-3.63106,0.85717c-0.53607,0.05641 -1.06333,0.1022 -1.58299,0.13759c0.02319,0.0584 0.04536,0.11894 0.06642,0.1817c0.14322,0.42686 0.18377,0.80265 0.15399,1.1319c0.46946,0.41614 0.88114,1.07656 0.72344,2.07628c0.13273,-0.05998 0.21769,-0.08707 0.21769,-0.08707c1.58795,-0.50615 3.1759,-1.0123 4.76385,-1.51845l4.2886,-1.36697c0,0 2.32428,-0.74085 3.11271,1.53708c0.69411,-0.19201 1.38196,-0.40413 2.06172,-0.63642l2.68342,-1.24379c0,0 2.26946,-1.0486 3.31806,1.22086c0.46049,0.99663 0.28109,1.75781 -0.06499,2.29814c1.67504,0.35037 3.37264,0.60296 5.06831,0.82861l0.12009,-0.02222c0,0 2.5,0 2.5,2.5c0,0.57364 -0.13163,1.01566 -0.33447,1.35625c0.6758,0.14896 2.11702,0.69219 1.98847,2.60775c-0.16739,2.49439 -2.66178,2.327 -2.66178,2.327l-1.99513,-0.14828c-4.0021,0.15904 -7.73932,0.00665 -11.71599,-0.47161c0,0 -2.48196,-0.29979 -2.18217,-2.78175c0.06744,-0.55833 0.2453,-0.97588 0.4805,-1.28775c-0.67906,-0.0479 -1.3572,-0.10767 -2.0338,-0.17857c0,0 -0.6322,-0.06698 -1.22521,-0.45219c-0.83603,0.12528 -1.67486,0.22702 -2.5147,0.30443c0,0 -1.29763,0.11525 -2.10265,-0.75736c-0.87684,0.27949 -1.61072,0.51341 -2.0364,0.64909c0,0 -2.38193,0.75923 -3.14115,-1.6227c-0.11618,-0.36451 -0.15881,-0.69101 -0.14767,-0.98261c-0.81694,0.27856 -1.6315,0.04431 -1.6315,0.04431l-1.02806,-0.29748l-3.51139,0.23742c-3.31145,0.3082 -6.62347,0.61043 -9.936,0.90682c0,0 -2.49005,0.22279 -2.71285,-2.26726c-0.1855,-2.0732 1.50959,-2.57471 2.08232,-2.68452c0.48508,-1.3618 2.09123,-1.54143 2.09123,-1.54143c0.21226,-0.02372 0.42379,-0.04694 0.63468,-0.0696c-0.06886,-0.39903 -0.02974,-0.86935 0.19072,-1.41689c0.02449,-0.06082 0.04993,-0.11941 0.07626,-0.17583c-0.92263,-0.28406 -1.86125,-0.59809 -2.82405,-0.94074c0,0 -1.08412,-0.388 -1.51754,-1.37311c-0.0885,-0.01265 -0.17695,-0.0253 -0.26533,-0.03795c0.08235,0.10413 0.16232,0.21945 0.23929,0.34694c1.29201,2.14026 -0.84825,3.43227 -0.84825,3.43227l-2.62522,1.5786c-0.49349,0.93632 -1.57285,1.25844 -1.57285,1.25844l-2.19565,0.6547c-0.37499,1.87953 -2.44202,1.87953 -2.44202,1.87953l-0.83518,-0.01076c-1.0962,-0.10212 -2.19011,-0.22064 -3.28315,-0.34359c-1.21585,0.23534 -2.43595,0.4474 -3.66017,0.63074c0,0 -1.63028,0.24311 -2.44071,-0.98924c-0.16998,-0.02901 -0.34173,-0.05968 -0.51536,-0.09203c0,0 -0.38201,-0.07394 -0.81544,-0.31419c-0.51857,-0.03861 -1.03767,-0.07215 -1.55746,-0.09935c0,0 -0.84821,-0.04494 -1.52962,-0.57684c-0.20436,0.09641 -0.41059,0.15929 -0.60028,0.20001c0.0331,0.07572 0.06445,0.15527 0.09388,0.23882c0.46492,1.31971 -0.06899,2.16101 -0.6293,2.64603c0.60303,0.08692 1.20662,0.16964 1.81068,0.24813l1.89697,-0.15514c0,0 2.49573,-0.14605 2.64178,2.34968c0.14605,2.49573 -2.34968,2.64178 -2.34968,2.64178l-2.83511,0.12177c-3.36415,-0.43951 -6.71442,-1.00286 -10.0373,-1.68778c0,0 -1.61473,-0.3334 -1.95077,-1.77002c-0.80497,-0.08259 -1.62623,-0.19629 -2.48358,-0.3389c0,0 -2.46555,-0.41362 -2.05192,-2.87917c0.41362,-2.46555 2.87917,-2.05192 2.87917,-2.05192c2.50754,0.42462 4.64147,0.62584 7.16781,0.33414l0.47489,-0.17008c-2.95194,-0.44217 -5.81647,-1.04944 -8.81727,-1.80427zM147.51662,177.48131l0.14934,0.01326c0,0 0.78986,0.07015 1.44038,0.57628c0.66523,-0.31447 1.33733,-0.27886 1.33733,-0.27886c2.85177,0.1528 5.68197,0.48624 8.51657,0.80568c1.46717,-0.29554 2.92754,-0.62621 4.38057,-0.98167c0.6695,-0.23128 1.37022,-0.49611 2.11959,-0.79219l4.03925,-2.44872c-0.81926,-0.12714 -1.63523,-0.26001 -2.4493,-0.40253c-0.24653,0.00739 -0.76342,-0.00994 -1.27607,-0.23212c-1.96503,-0.37171 -3.92324,-0.8119 -5.89436,-1.37611c0,0 -0.50639,-0.14563 -0.98736,-0.53566c-0.03631,0.00434 -0.07258,0.00862 -0.10882,0.01284c0.30198,0.36594 0.51527,0.88288 0.51527,1.6131c0,2.5 -2.5,2.5 -2.5,2.5l-0.06023,-0.03099c-3.33401,0.52883 -6.67568,1.00138 -10.01712,1.48319c0.26341,0.02625 0.52833,0.05109 0.79495,0.0745z"></path></g></g></svg>