<svg version="1.1" xmlns="http://www.w3.org/2000/svg" xmlns:xlink="http://www.w3.org/1999/xlink" width="90.53868" height="90.96811" viewBox="0,0,90.53868,90.96811"><g transform="translate(-197.63188,-134.1787)"><g data-paper-data="{&quot;isPaintingLayer&quot;:true}" fill-rule="nonzero" stroke-linejoin="miter" stroke-miterlimit="10" stroke-dasharray="" stroke-dashoffset="0" style="mix-blend-mode: normal"><path d="M219.91573,160.8619l8.56714,2.93328l-1.73975,7.80855" data-paper-data="{&quot;index&quot;:null}" fill="none" stroke="#000000" stroke-width="1.5" stroke-linecap="round"></path><path d="M233.06973,172.82211l1.73975,-7.80855l9.00208,0.98116" data-paper-data="{&quot;index&quot;:null}" fill="none" stroke="#000000" stroke-width="1.5" stroke-linecap="round"></path><path d="M222.41811,191.63862c0,0 4.52286,-7.33452 9.47215,-5.03333c4.82462,2.24323 6.92279,13.11223 6.92279,13.11223z" data-paper-data="{&quot;index&quot;:null}" fill="#040404" stroke="#000000" stroke-width="1.5" stroke-linecap="round"></path><path d="M209.27553,153.30905c8.92136,-15.85293 31.22566,-20.22232 49.81805,-9.75931c18.59237,10.46302 26.43229,31.79631 17.51092,47.64923c-5.506,9.78398 -14.36217,20.45996 -26.04465,20.7085c-0.48782,0.01038 -6.05944,-0.07088 -6.05944,-0.07088l-7.02093,12.01812l-11.42874,-5.33841l7.14942,-13.73452l-7.57652,13.60518l-12.93593,-7.04483l7.41225,-14.11236l-7.0494,14.1743l-14.05349,-8.00796c0,0 8.31652,-14.54592 7.99313,-14.79029c-2.11251,-1.59618 -1.76092,-0.9921 -2.91024,-2.71215c-7.0552,-10.55881 -0.71466,-22.0823 5.19559,-32.5846z" data-paper-data="{&quot;index&quot;:null}" fill="#ffffff" stroke="#000000" stroke-width="2" stroke-linecap="butt"></path><path d="M251.95926,179.16011c-2.9064,5.16455 -8.13856,7.7327 -11.68639,5.73614c-3.54783,-1.99656 -4.0678,-7.80181 -1.16141,-12.96634c2.9064,-5.16455 4.58111,-10.16296 8.12893,-8.1664c2.80824,1.58036 5.69407,11.85078 5.69407,11.85078c0,0 -0.36934,2.46923 -0.9752,3.54584z" data-paper-data="{&quot;index&quot;:null}" fill="#ababab" stroke="#000000" stroke-width="1" stroke-linecap="butt"></path><path d="M273.71541,178.44567c3.54783,1.99656 0.14424,6.02206 -2.76213,11.18661c-2.9064,5.16455 -8.13856,7.73271 -11.6864,5.73615c-3.54783,-1.99656 -4.0678,-7.80181 -1.1614,-12.96636c0.60586,-1.0766 2.5249,-2.67373 2.5249,-2.67373c0,0 10.27679,-2.86305 13.08503,-1.28268z" data-paper-data="{&quot;index&quot;:null}" fill="#ababab" stroke="#000000" stroke-width="1" stroke-linecap="butt"></path><path d="" data-paper-data="{&quot;index&quot;:null}" fill="none" stroke="#000000" stroke-width="1.5" stroke-linecap="round"></path><path d="" data-paper-data="{&quot;index&quot;:null}" fill="none" stroke="#000000" stroke-width="1.5" stroke-linecap="round"></path><path d="" data-paper-data="{&quot;index&quot;:null}" fill="none" stroke="#000000" stroke-width="1.5" stroke-linecap="round"></path><path d="" data-paper-data="{&quot;index&quot;:null}" fill="none" stroke="#000000" stroke-width="1.5" stroke-linecap="round"></path><path d="" data-paper-data="{&quot;index&quot;:null}" fill="none" stroke="#000000" stroke-width="1.5" stroke-linecap="round"></path><path d="" data-paper-data="{&quot;index&quot;:null}" fill="none" stroke="#000000" stroke-width="1.5" stroke-linecap="round"></path><path d="" data-paper-data="{&quot;index&quot;:null}" fill="none" stroke="#000000" stroke-width="1.5" stroke-linecap="round"></path><path d="" data-paper-data="{&quot;index&quot;:null}" fill="none" stroke="#000000" stroke-width="1.5" stroke-linecap="round"></path><path d="" data-paper-data="{&quot;index&quot;:null}" fill="none" stroke="#000000" stroke-width="1.5" stroke-linecap="round"></path><path d="" data-paper-data="{&quot;index&quot;:null}" fill="none" stroke="#000000" stroke-width="1.5" stroke-linecap="round"></path><path d="M269.23898,177.00743c2.55771,-4.76785 8.49626,-6.55952 13.26411,-4.00181c4.76785,2.55771 6.55952,8.49626 4.00181,13.26411c-2.55771,4.76785 -8.49626,6.55952 -13.26411,4.00181c-4.76785,-2.55771 -6.55952,-8.49626 -4.00181,-13.26411z" fill="#ffffff" stroke="#000000" stroke-width="1" stroke-linecap="butt"></path><path d="M265.92688,191.45284c-0.01367,-0.23331 -0.01163,-0.4755 0,-0.72039c0,-1.89317 0,-3.78635 0,-5.67952c0,-5.87753 0,-11.75506 0,-17.6326c0,0 0,-0.5 0.5,-0.5c0.5,0 0.5,0.5 0.5,0.5c0,4.90315 0,9.8063 0,14.70945c0.5073,-2.7879 1.13241,-5.58304 1.508,-8.30609l0.07379,-0.535c0.01787,-0.14638 0.099,-0.27322 0.21522,-0.35236c-0.03153,-0.4999 -0.05727,-1.0011 0.03465,-1.4565c0.00273,-0.22241 0.00421,-0.44484 0.00423,-0.66729v-0.81413c0,-0.27614 0.22386,-0.5 0.5,-0.5c0.14458,0 0.27482,0.06136 0.36611,0.15946c0.36493,-2.72484 0.7433,-5.41834 1.32042,-8.1116l0.14282,-0.66647c0.04451,-0.23055 0.24738,-0.40467 0.49092,-0.40467c0.27614,0 0.5,0.22386 0.5,0.5v1h-0.11485c0.05485,0.35474 0.09541,0.71319 0.12479,1.07421c0.5174,-2.76767 1.22157,-5.58975 1.29074,-8.27933l0.01972,-0.76696c0.00199,-0.09007 0.0278,-0.17427 0.07138,-0.24654c-0.04539,-0.07528 -0.0715,-0.16349 -0.0715,-0.25781v-1h0.09714c-0.37552,-2.34549 -0.17333,-4.84966 0.15916,-7.31746c0.00083,-0.70661 0.00151,-1.41321 0.00151,-2.1198c0,-0.80862 -0.1701,-1.74708 0,-2.53529c0,-0.1549 0,-0.30981 0,-0.46471v-1c0,-0.27614 0.22386,-0.5 0.5,-0.5c0.20492,0 0.38104,0.12327 0.45827,0.2997l0.01917,-0.09584c0.04197,-0.23369 0.24633,-0.41102 0.49211,-0.41102c0.24011,0 0.44069,0.16925 0.48895,0.39495c0.23827,-1.38338 0.60607,-2.76338 0.76373,-3.55167l0.12157,-0.60784c0.04197,-0.23369 0.24633,-0.41102 0.49211,-0.41102c0.23795,0 0.43708,0.16622 0.48761,0.38888l0.24,0.96l-0.19178,0.04795c0.0284,0.09926 0.05554,0.20013 0.08145,0.30249c0.087,0.08997 0.14053,0.2125 0.14053,0.34754v0.28127c0.3939,2.00838 0.38726,4.4585 0.21597,6.63471c0.30525,1.25407 0.3499,2.56895 0.33809,3.89334c0.26356,-0.59996 0.55486,-1.18781 0.71012,-1.71955c0.70036,-2.39859 1.07949,-4.94438 1.6133,-7.38645l0.19364,-0.96822c0.04197,-0.23369 0.24633,-0.41102 0.49211,-0.41102c0.2688,0 0.48806,0.21211 0.49953,0.47809l0.04961,0.99579l-0.09224,0.00459c0.65375,2.85079 0.58728,6.14124 0.28043,9.38878c0.57975,2.36166 0.63796,4.95162 0.87568,7.31582c0.36892,3.66911 1.02806,7.08269 1.89948,10.66521c0.15657,0.64367 0.31356,1.28723 0.46987,1.93095c0.31208,-1.38707 0.9986,-2.9349 1.27292,-3.92168l0.00784,-0.01077l-0.00398,-0.00133l0.25416,-0.76249c0.06283,-0.20431 0.25307,-0.35282 0.47799,-0.35282c0.27614,0 0.5,0.22386 0.5,0.5v1h-0.0868c0.49627,2.90195 0.26308,6.13881 0.14288,9.16881c0.12242,0.09114 0.20172,0.23697 0.20172,0.40133v1h-0.03302c-0.01186,0.08909 -0.02713,0.17785 -0.04547,0.26622c0.53373,3.49627 -0.47516,7.27064 -0.87524,10.72586l-0.08011,0.69184c-0.02134,0.20935 -0.17184,0.38049 -0.37053,0.43245c-0.06144,0.54995 -0.11229,1.09761 -0.12514,1.63834l-0.01745,0.72433c-0.0052,0.25134 -0.19587,0.45711 -0.4407,0.48598c0.14213,2.5272 -0.55872,5.87081 -0.84823,7.5277v0.74125c0,0.27614 -0.22386,0.5 -0.5,0.5c-0.23236,0 -0.42769,-0.15849 -0.4838,-0.37327l-0.18489,-0.64712c-0.14166,0.73583 -0.35826,1.47363 -0.45595,2.05976l-0.16305,0.97829c-0.0358,0.24101 -0.24358,0.42591 -0.49455,0.42591c-0.2528,0 -0.46178,-0.18761 -0.49531,-0.4312l-0.15182,-0.98051l0.10445,-0.01617c-0.27374,-0.87813 -0.46923,-1.79508 -0.63639,-2.71973c-0.07773,0.50059 -0.21452,0.87375 -0.4279,0.97426c-0.44352,0.20893 -0.89682,-0.40325 -1.31408,-0.66066c-1.5455,-0.9534 -1.68474,-2.93852 -2.52972,-4.42102c-0.25775,-0.45221 -0.2535,-1.20466 -0.74654,-1.37151c-1.108,-0.37495 -0.01845,3.24148 -1.18658,3.30245c-0.67732,0.03535 -2.12216,-1.78669 -2.58984,-2.25437c-0.43195,-0.43299 -0.68513,-1.0423 -1.17349,-1.41049c-0.57717,-0.43515 -2.10639,3.64628 -2.33111,4.18549c-0.13974,0.33529 -0.84212,2.13301 -1.11135,2.16708c-0.98315,0.12443 -1.59307,-1.5008 -1.90519,-2.93285c-0.00903,0.00049 -0.01813,0.00073 -0.02728,0.00073c-0.27614,0 -0.5,-0.22386 -0.5,-0.5c0,-0.45519 0,-1.55092 0,-2.00611z" fill="#bd00f2" stroke="none" stroke-width="0.5" stroke-linecap="butt"></path></g></g></svg>