<svg version="1.1" xmlns="http://www.w3.org/2000/svg" xmlns:xlink="http://www.w3.org/1999/xlink" width="95.75305" height="85.49315" viewBox="0,0,95.75305,85.49315"><g transform="translate(-194.17088,-135.2615)"><g data-paper-data="{&quot;isPaintingLayer&quot;:true}" fill-rule="nonzero" stroke-linejoin="miter" stroke-miterlimit="10" stroke-dasharray="" stroke-dashoffset="0" style="mix-blend-mode: normal"><g data-paper-data="{&quot;index&quot;:null}" stroke="#000000"><path d="M204.87632,165.5428c-1.83707,-0.82999 -5.36055,-0.69926 -7.42027,-2.3649c-2.44296,-1.97556 -3.28517,-5.70906 -3.28517,-5.70906l0.0514,-4.01489c0,0 3.36676,3.98215 6.83003,5.78356c2.98087,1.5505 6.01789,0.96062 7.21988,0.93333c4.53252,-0.1029 13.43998,-2.3418 13.43998,-2.3418l0.30291,10.35036c0,0 -12.05286,-0.33876 -17.13877,-2.63659z" fill="#b058be" stroke-width="0" stroke-linecap="butt"></path><path d="M216.18175,167.75992c0,0 -2.05768,-4.36815 -2.10239,-5.8958c-0.03427,-1.17072 1.85704,-2.48763 1.85704,-2.48763" fill="none" stroke-width="0.5" stroke-linecap="round"></path><path d="M212.04688,166.95796c0,0 -1.94155,-3.26723 -1.97684,-4.47308c-0.02882,-0.98457 1.78056,-2.23367 1.78056,-2.23367" fill="none" stroke-width="0.5" stroke-linecap="round"></path><path d="M207.15752,166.17809c0,0 -1.67829,-3.01317 -1.64763,-4.08301c0.02022,-0.70555 1.81367,-1.71138 1.81367,-1.71138" fill="none" stroke-width="0.5" stroke-linecap="round"></path><path d="M203.16822,164.61672c0,0 -1.36894,-2.21556 -1.37605,-2.98263c-0.00532,-0.57462 1.33721,-1.21153 1.33721,-1.21153" fill="none" stroke-width="0.5" stroke-linecap="round"></path><path d="M199.60302,163.21075c0,0 -1.26688,-2.33326 -1.29902,-2.98522c-0.03621,-0.73458 1.09251,-1.20404 1.09251,-1.20404" fill="none" stroke-width="0.5" stroke-linecap="round"></path><path d="M194.92099,159.18823c0,0 0.79732,-2.01018 1.18814,-2.37063c0.44035,-0.40615 1.32313,0.05442 1.32313,0.05442" fill="none" stroke-width="0.5" stroke-linecap="round"></path></g><path d="" data-paper-data="{&quot;index&quot;:null}" fill="none" stroke="#000000" stroke-width="1.5" stroke-linecap="round"></path><path d="" data-paper-data="{&quot;index&quot;:null}" fill="none" stroke="#000000" stroke-width="1.5" stroke-linecap="round"></path><path d="" data-paper-data="{&quot;index&quot;:null}" fill="none" stroke="#000000" stroke-width="1.5" stroke-linecap="round"></path><path d="" data-paper-data="{&quot;index&quot;:null}" fill="none" stroke="#000000" stroke-width="1.5" stroke-linecap="round"></path><path d="" data-paper-data="{&quot;index&quot;:null}" fill="none" stroke="#000000" stroke-width="1.5" stroke-linecap="round"></path><path d="M289.92393,195.47556" data-paper-data="{&quot;index&quot;:null}" fill="none" stroke="#d8d8d8" stroke-width="4" stroke-linecap="round"></path><path d="M240.00002,219.5c-21.81525,0 -39.5,-17.68475 -39.5,-39.5c0,-21.81525 17.68475,-39.5 39.5,-39.5c21.81525,0 39.5,17.68475 39.5,39.5c0,21.81525 -17.68475,39.5 -39.5,39.5z" fill="#d8d8d8" stroke="#000000" stroke-width="1.5" stroke-linecap="butt"></path><path d="M228.05527,173.4834c-1.36912,0.69074 -3.94256,-1.65016 -5.74792,-5.22857c-1.80536,-3.57841 7.11704,4.53783 5.74792,5.22857z" fill="#ff6666" stroke="#000000" stroke-width="0" stroke-linecap="butt"></path><path d="M219.81967,184.61827l33.69856,3.15529" fill="none" stroke="#000000" stroke-width="0.5" stroke-linecap="round"></path><path d="M231.10793,185.75843l-6.21783,9.11743l-2.74141,-9.94892z" fill="#ffffff" stroke="#000000" stroke-width="0.5" stroke-linecap="round"></path><path d="M252.2234,187.89609l-5.57718,8.178l-2.45893,-8.92381z" fill="#ffffff" stroke="#000000" stroke-width="0.5" stroke-linecap="round"></path><g stroke="#000000"><path d="M257.19906,171.00453l0.30292,-10.35036c0,0 8.90747,2.2389 13.43998,2.3418c1.202,0.02729 4.239,0.61718 7.21988,-0.93333c3.46326,-1.80141 6.83004,-5.78356 6.83004,-5.78356l0.0514,4.01489c0,0 -0.8422,3.7335 -3.28517,5.70906c-2.05972,1.66565 -5.5832,1.5349 -7.42027,2.3649c-5.08591,2.29782 -17.13878,2.63659 -17.13878,2.63659z" fill="#b058be" stroke-width="0" stroke-linecap="butt"></path><path d="M263.27777,162.20162c0,0 1.89131,1.31691 1.85704,2.48763c-0.04471,1.52764 -2.10239,5.8958 -2.10239,5.8958" fill="none" stroke-width="0.5" stroke-linecap="round"></path><path d="M267.36357,163.07635c0,0 1.80938,1.2491 1.78056,2.23367c-0.03529,1.20585 -1.97684,4.47307 -1.97684,4.47307" fill="none" stroke-width="0.5" stroke-linecap="round"></path><path d="M271.89061,163.20884c0,0 1.79345,1.00583 1.81367,1.71138c0.03066,1.06984 -1.64763,4.083 -1.64763,4.083" fill="none" stroke-width="0.5" stroke-linecap="round"></path><path d="M276.08477,163.24768c0,0 1.34252,0.63692 1.3372,1.21154c-0.00711,0.76707 -1.37604,2.98263 -1.37604,2.98263" fill="none" stroke-width="0.5" stroke-linecap="round"></path><path d="M279.81766,161.84662c0,0 1.12872,0.46946 1.09251,1.20404c-0.03214,0.65196 -1.29902,2.98522 -1.29902,2.98522" fill="none" stroke-width="0.5" stroke-linecap="round"></path><path d="M281.78191,159.69716c0,0 0.88277,-0.46058 1.32313,-0.05443c0.39082,0.36046 1.18814,2.37064 1.18814,2.37064" fill="none" stroke-width="0.5" stroke-linecap="round"></path></g><path d="M241.89384,169.19243c-1.80536,3.57841 -4.37879,5.91931 -5.74792,5.22856c-1.36912,-0.69074 7.55328,-8.80697 5.74792,-5.22856z" data-paper-data="{&quot;index&quot;:null}" fill="#ff6666" stroke="#000000" stroke-width="0" stroke-linecap="butt"></path><g stroke="none" stroke-width="0.5" stroke-linecap="butt"><path d="M244.2436,214.29198c-0.01241,0.33952 -0.14925,0.95106 -0.95362,1.08209c-1.12716,0.18362 -1.31078,-0.94355 -1.31078,-0.94355c-0.19827,-1.26168 -0.17425,-2.38806 -0.96633,-3.4449c-2.27763,-3.03894 -7.85138,-2.26588 -11.07272,-2.27649c-0.44286,-0.00147 -3.66712,-0.00379 -3.76751,-0.04889c-2.093,-0.94052 -1.53463,-2.3461 -2.00222,-4.12521c-0.96183,-3.65962 -2.5972,-6.90977 -5.49887,-9.32711c-2.11799,-1.78116 -4.51719,-4.56733 -7.40174,-5.07441c-1.91396,-0.33645 -4.10101,-0.34923 -6.04907,-0.40677c-0.98634,-0.02913 -4.98715,0.23032 -5.46792,-0.80075c-0.46106,-0.98877 0.93863,-1.97029 1.44367,-2.93733c0.6858,-1.31318 1.52967,-2.54047 2.20142,-3.86088c2.71452,-5.33573 4.6497,-10.98218 6.63565,-16.61155c0.46271,-2.74515 1.28062,-5.64069 1.43684,-8.41757c0.12026,-2.13778 -0.16396,-4.39681 -0.23432,-6.54068l-0.50913,-1.62355c-0.08325,-0.26189 -0.0728,-0.55444 0.05129,-0.82368c0.264,-0.57281 0.94236,-0.82317 1.51518,-0.55917c0.22105,0.10188 0.39407,0.26545 0.50805,0.46087l0.82301,1.36668c1.06481,0.51483 2.80582,0.00027 3.87196,-0.24083c4.97688,-1.12551 9.44213,-5.52734 13.08215,-8.93551c0.01973,-0.01847 3.20367,-3.1748 3.2146,-3.18352c0.80325,-0.64105 1.55562,-1.97391 2.55342,-1.72784c1.05459,0.26008 1.17603,1.8283 1.70368,2.7777c0.55657,1.00144 0.53731,2.23816 0.98364,3.29335c0.52514,1.24146 1.45834,2.26778 2.15802,3.41993c3.09063,1.24188 6.19703,3.13634 9.65918,2.86392c2.38059,-0.18732 5.15968,-1.01344 7.21849,-2.18635c0.93122,-0.53052 1.79657,-1.9631 2.79859,-1.58287c1.03167,0.39149 0.84704,2.04086 1.18038,3.09277c0.25188,0.79486 0.56991,3.34377 0.65971,3.98512c0.43123,3.07995 1.60665,5.40227 2.97949,8.1649c1.20035,2.41551 2.46881,4.41339 4.60585,6.05395c1.65025,1.29193 3.30151,2.10948 5.14423,3.01506c0.05128,-0.02613 0.08956,-0.03946 0.11272,-0.03803c0.21725,0.01344 0.41308,0.07993 0.59415,0.18295l0.041,-0.08896l1.15786,0.53363c0.57281,0.264 0.82317,0.94236 0.55917,1.51518c-0.23555,0.5111 -0.801,0.76548 -1.32701,0.62683l-1.02139,-0.24806c-0.75017,1.57774 -3.06553,2.60226 -4.21477,3.84179c-1.72708,1.86278 -3.11754,4.12807 -4.05027,6.45789c-0.25049,0.6257 -0.67359,1.20246 -0.77025,1.86946c-0.09666,0.667 0.14394,1.34028 0.20785,2.01121c0.10446,1.09666 -0.09859,2.25567 0.2699,3.29384c1.06207,2.99223 3.09437,6.2096 4.9133,8.79507c0.60316,0.85736 3.1623,3.68656 2.90158,4.65955c-0.23079,0.86127 -1.69052,0.56775 -2.53578,0.85162c-4.49106,1.27812 -7.02325,4.25877 -9.75938,7.86675c-2.05839,2.71427 -3.97122,5.38457 -5.55176,8.40626l-0.73843,1.41012c-0.27826,0.54027 -0.93555,0.77035 -1.49291,0.51348c-0.27161,-0.12518 -0.47072,-0.34353 -0.57687,-0.59962l-0.71665,-1.7126c-0.45961,-0.7554 -0.68085,-1.73092 -1.38966,-2.25955c-1.63846,-1.22198 -4.46108,-0.76929 -6.37229,-1.13281l-1.24252,-0.53592c0,0 -0.08332,-0.0384 -0.19184,-0.11704zM244.02098,212.64477c0.51516,-0.70429 1.37047,-0.31009 1.37047,-0.31009l0.71694,0.36714c3.21254,0.62253 6.61863,-0.04468 8.72465,3.11709c0.22856,0.34314 0.388,0.74958 0.47018,1.17252c1.56773,-2.86058 3.41261,-5.43996 5.39341,-8.05193c3.09956,-4.0872 6.00716,-7.22625 11.04337,-8.69947c-1.34296,-0.91387 -2.11944,-2.65086 -2.94726,-3.96565c-1.65883,-2.63468 -3.84871,-5.82581 -4.14061,-8.9459c-0.02887,-0.30852 -0.41709,-4.65162 -0.39349,-4.81449c0.12175,-0.84008 0.59784,-1.58901 0.90596,-2.37998c1.32571,-3.40316 3.56146,-6.3715 6.33009,-8.74908c0.20214,-0.17359 1.05764,-0.91967 1.93357,-1.65151c-1.58605,-0.79458 -3.06006,-1.61319 -4.53755,-2.75715c-3.03043,-2.38656 -4.5715,-5.47524 -6.26545,-8.88343c-0.85438,-1.71899 -1.38398,-2.55295 -1.83985,-4.45243c-0.43007,-1.79199 -0.95597,-4.37196 -0.97707,-6.22528c-0.00538,-0.47252 0.75601,-1.3102 0.28985,-1.38768c-0.49482,-0.08224 -0.35996,0.97921 -0.73355,1.31393c-0.56806,0.50897 -1.28595,0.83679 -1.99113,1.1274c-1.71801,0.70802 -4.55533,1.31831 -6.37919,1.4571c-4.0557,0.30859 -7.7245,-1.78613 -11.28005,-3.40178c-0.21507,-0.32108 -2.59819,-3.83893 -2.78146,-4.26586c-0.31313,-0.72945 -0.33854,-1.55268 -0.56592,-2.31323c-0.10255,-0.34298 -0.34952,-0.63719 -0.42104,-0.98794c-0.09543,-0.46799 0.35184,-1.2112 -0.07217,-1.43108c-0.36694,-0.19029 -0.24273,0.80944 -0.49473,1.13708c-0.45568,0.59247 -1.06214,1.05193 -1.59332,1.5778c-1.64723,1.6308 -3.34405,3.20554 -5.11665,4.70124c-3.39881,2.86789 -7.30736,6.20198 -11.90539,6.66124c-0.57614,0.05755 -2.02097,0.23465 -3.19148,0.09095c0.12061,1.84887 0.28093,3.74755 0.17728,5.55546c-0.16722,2.91711 -1.00864,5.95847 -1.50458,8.83835c-2.02005,5.79152 -4.02231,11.59342 -6.81121,17.07535c-0.01158,0.02275 -2.31463,4.06282 -2.32537,4.07498c-0.32571,0.36828 -1.07596,0.28187 -1.28281,0.72788c-0.18185,0.39209 0.7597,-0.45729 1.18711,-0.52153c0.75396,-0.11332 1.52521,-0.02356 2.28729,-0.00071c1.34887,0.04045 2.69277,0.18263 4.03865,0.28104c0.82244,0.06013 1.65643,0.03501 2.46676,0.18801c3.30586,0.62417 5.88569,3.4858 8.33636,5.54672c2.78415,2.36075 4.14344,4.86757 5.40344,8.24892c0.51752,1.3888 0.72423,2.87441 1.10293,4.30729c0.05845,0.22114 0.19716,0.4902 0.41975,0.54285c0.93518,0.22118 1.91887,-0.1369 2.87983,-0.1338c4.06998,0.01314 10.04868,-0.62478 12.86144,3.14963c0.84032,1.1276 1.04678,1.98614 1.21193,3.07004z" fill="#a866ff"></path><path d="M244.58261,212.1164c-0.01156,0.31647 -0.13912,0.88648 -0.88888,1.00863c-1.05063,0.17115 -1.22178,-0.87948 -1.22178,-0.87948c-0.1848,-1.17601 -0.16242,-2.22591 -0.90072,-3.211c-2.12298,-2.8326 -7.3183,-2.11203 -10.3209,-2.12192c-0.41279,-0.00136 -3.41814,-0.00353 -3.51171,-0.04557c-1.9509,-0.87666 -1.43042,-2.1868 -1.86627,-3.84512c-0.89653,-3.41115 -2.42085,-6.44061 -5.12551,-8.69381c-1.97419,-1.66022 -4.21048,-4.25723 -6.89918,-4.72986c-1.78401,-0.3136 -3.82257,-0.32552 -5.63835,-0.37915c-0.91937,-0.02716 -4.64853,0.21468 -5.09667,-0.74639c-0.42974,-0.92163 0.87491,-1.83651 1.34564,-2.7379c0.63923,-1.22402 1.42581,-2.36797 2.05195,-3.59874c2.53021,-4.97345 4.334,-10.23652 6.18511,-15.48366c0.4313,-2.55875 1.19367,-5.2577 1.33928,-7.84604c0.1121,-1.99263 -0.15282,-4.09827 -0.2184,-6.09658l-0.47457,-1.51331c-0.0776,-0.24411 -0.06785,-0.5168 0.04781,-0.76775c0.24607,-0.53392 0.87839,-0.76727 1.4123,-0.5212c0.20604,0.09496 0.36731,0.24744 0.47355,0.42958l0.76713,1.27388c0.99251,0.47987 2.6153,0.00026 3.60907,-0.22448c4.63896,-1.04909 8.80103,-5.15205 12.1939,-8.3288c0.0184,-0.01722 2.98615,-2.95923 2.99634,-2.96736c0.7487,-0.59753 1.45,-1.83989 2.38005,-1.61052c0.98297,0.24242 1.09618,1.70415 1.588,2.58911c0.51877,0.93344 0.50082,2.0862 0.91686,3.06974c0.48948,1.15716 1.35933,2.11381 2.0115,3.18772c2.88078,1.15757 5.77627,2.92338 9.00335,2.66947c2.21895,-0.1746 4.80935,-0.94462 6.72837,-2.03789c0.86799,-0.4945 1.67458,-1.82982 2.60857,-1.47541c0.96162,0.36491 0.78954,1.90229 1.10024,2.88277c0.23478,0.74088 0.53121,3.11673 0.61491,3.71454c0.40196,2.87083 1.49757,5.03547 2.77719,7.61051c1.11885,2.2515 2.30119,4.11373 4.29312,5.64291c1.5382,1.20421 3.07734,1.96624 4.79494,2.81035c0.0478,-0.02436 0.08348,-0.03678 0.10507,-0.03544c0.2025,0.01253 0.38503,0.0745 0.55381,0.17053l0.03822,-0.08292l1.07925,0.4974c0.53392,0.24607 0.76727,0.87839 0.5212,1.4123c-0.21955,0.47639 -0.74661,0.7135 -1.2369,0.58427l-0.95204,-0.23122c-0.69923,1.47062 -2.85738,2.42556 -3.9286,3.58095c-1.60982,1.7363 -2.90587,3.84779 -3.77526,6.0194c-0.23348,0.58322 -0.62785,1.12081 -0.71796,1.74253c-0.0901,0.62172 0.13417,1.24927 0.19373,1.87465c0.09737,1.0222 -0.09189,2.10251 0.25157,3.07019c0.98997,2.78906 2.88427,5.78798 4.57969,8.1979c0.56221,0.79914 2.94758,3.43625 2.70457,4.34318c-0.21511,0.8028 -1.57573,0.5292 -2.36361,0.7938c-4.18613,1.19134 -6.54638,3.96961 -9.09675,7.33261c-1.91862,2.52998 -3.70157,5.01897 -5.1748,7.8355l-0.68829,1.31438c-0.25937,0.50359 -0.87203,0.71804 -1.39153,0.47862c-0.25317,-0.11668 -0.43877,-0.32021 -0.5377,-0.5589l-0.668,-1.59631c-0.4284,-0.7041 -0.63463,-1.61339 -1.2953,-2.10614c-1.52722,-1.13901 -4.15818,-0.71706 -5.93963,-1.05588l-1.15816,-0.49954c0,0 -0.07767,-0.03579 -0.17882,-0.1091zM244.37509,210.58103c0.48018,-0.65647 1.27743,-0.28903 1.27743,-0.28903l0.66826,0.34221c2.9944,0.58028 6.16924,-0.04166 8.13227,2.90544c0.21304,0.31984 0.36165,0.69868 0.43826,1.09291c1.46127,-2.66635 3.1809,-5.0706 5.02721,-7.50521c2.88911,-3.80969 5.59928,-6.73559 10.29355,-8.10879c-1.25177,-0.85182 -1.97553,-2.47087 -2.74714,-3.69639c-1.5462,-2.45578 -3.58738,-5.43025 -3.85947,-8.33849c-0.0269,-0.28757 -0.38878,-4.33579 -0.36678,-4.48758c0.11348,-0.78304 0.55725,-1.48112 0.84445,-2.21838c1.23569,-3.17208 3.31964,-5.9389 5.9003,-8.15503c0.18841,-0.1618 0.98583,-0.85722 1.80229,-1.53938c-1.47835,-0.74064 -2.85229,-1.50366 -4.22945,-2.56995c-2.82467,-2.22451 -4.2611,-5.10349 -5.84004,-8.28026c-0.79637,-1.60228 -1.29002,-2.37961 -1.71494,-4.15012c-0.40087,-1.67032 -0.89105,-4.07512 -0.91072,-5.8026c-0.00502,-0.44044 0.70468,-1.22124 0.27018,-1.29346c-0.46122,-0.07666 -0.33552,0.91271 -0.68375,1.22472c-0.52947,0.47442 -1.19863,0.77997 -1.85593,1.05085c-1.60136,0.65995 -4.24603,1.22881 -5.94605,1.35816c-3.78033,0.28764 -7.20002,-1.66485 -10.51416,-3.17081c-0.20046,-0.29929 -2.42177,-3.57828 -2.5926,-3.97621c-0.29186,-0.67992 -0.31555,-1.44726 -0.5275,-2.15617c-0.09558,-0.31968 -0.3258,-0.59392 -0.39245,-0.92086c-0.08895,-0.43623 0.32794,-1.12896 -0.06727,-1.33391c-0.34203,-0.17737 -0.22625,0.75448 -0.46114,1.05989c-0.42474,0.55225 -0.99002,0.98051 -1.48513,1.47067c-1.53538,1.52007 -3.11699,2.98789 -4.76923,4.38204c-3.16803,2.67317 -6.81121,5.78088 -11.09704,6.20895c-0.53703,0.05363 -1.88375,0.21872 -2.97479,0.08478c0.11242,1.72335 0.26185,3.49309 0.16524,5.17825c-0.15587,2.71905 -0.94016,5.5539 -1.40243,8.23823c-1.8829,5.39829 -3.74921,10.80626 -6.34875,15.91597c-0.01079,0.02121 -2.15747,3.78696 -2.16748,3.7983c-0.3036,0.34327 -1.0029,0.26274 -1.19571,0.67846c-0.1695,0.36547 0.70813,-0.42624 1.10651,-0.48612c0.70277,-0.10563 1.42165,-0.02196 2.13199,-0.00066c1.25728,0.03771 2.50993,0.17023 3.76444,0.26195c0.7666,0.05605 1.54398,0.03264 2.29927,0.17524c3.08139,0.58179 5.48607,3.24912 7.77033,5.17011c2.59512,2.20046 3.8621,4.53708 5.03656,7.68883c0.48238,1.2945 0.67506,2.67924 1.02805,4.01484c0.05447,0.20612 0.18377,0.45692 0.39125,0.50599c0.87168,0.20616 1.78858,-0.1276 2.68431,-0.12473c3.79363,0.01225 9.36639,-0.58236 11.98818,2.93578c0.78326,1.05105 0.97571,1.85128 1.12964,2.86158z" fill="#ffffff"></path></g></g></g></svg>