<svg version="1.1" xmlns="http://www.w3.org/2000/svg" xmlns:xlink="http://www.w3.org/1999/xlink" width="272.5936" height="85.02136" viewBox="0,0,272.5936,85.02136"><g transform="translate(-87.04196,-145.97942)"><g data-paper-data="{&quot;isPaintingLayer&quot;:true}" fill-rule="nonzero" stroke-linejoin="miter" stroke-miterlimit="10" stroke-dasharray="" stroke-dashoffset="0" style="mix-blend-mode: normal"><path d="M199.48851,186.22942c0,-21.81525 17.68475,-39.5 39.5,-39.5c21.81525,0 39.5,17.68475 39.5,39.5c0,21.81525 -17.68475,39.5 -39.5,39.5c-21.81525,0 -39.5,-17.68475 -39.5,-39.5z" fill="#d8d8d8" stroke="#000000" stroke-width="1.5" stroke-linecap="butt"></path><path d="M242.02205,183.05545v-8" fill="none" stroke="#000000" stroke-width="1.5" stroke-linecap="round"></path><path d="" data-paper-data="{&quot;index&quot;:null}" fill="none" stroke="#000000" stroke-width="1.5" stroke-linecap="round"></path><path d="M253.08518,207.98809c0,0 -17.91104,4.58722 -25.6108,-0.53676c-1.90381,-1.26693 -4.4943,-5.21093 -3.86722,-8.6468c0.60031,-3.28916 4.39812,-6.06289 3.63978,-7.76264" data-paper-data="{&quot;index&quot;:null}" fill="#000000" stroke="#000000" stroke-width="0" stroke-linecap="round"></path><path d="M249.49371,175.54059v8" fill="none" stroke="#000000" stroke-width="1.5" stroke-linecap="round"></path><g stroke="#000000" stroke-linecap="butt"><path d="M315.66143,213.53045l-0.44532,-59.45093l43.22131,-0.32375l0.44532,59.45093c0,0 -17.57014,13.07921 -20.7147,15.42003c-0.92715,0.69017 -1.80077,1.3405 -1.80077,1.3405z" fill="#008c04" stroke-width="1.5"></path><path d="M334.32401,231.00078l-0.58745,-78.42604l4.82627,-0.03615l0.58745,78.42604z" fill="#00ff08" stroke-width="0"></path><path d="M358.94521,182.54448l-44.55025,0.3337l-0.04715,-6.29345l44.55025,-0.3337z" fill="#00ff08" stroke-width="0"></path></g><path d="M118.32005,162.89454c-0.18919,0 -0.36407,-0.01432 -0.52571,-0.04079c-1.52765,0.2808 -3.08385,0.43151 -4.63412,0.44031c0,0 -2.5,0 -2.5,-2.5c0,-2.5 2.5,-2.5 2.5,-2.5c1.54169,0.01092 3.09489,-0.17529 4.5942,-0.53443l3.06564,2.63491c0,0 0,2.5 -2.5,2.5z" fill="#11ff00" stroke="none" stroke-width="0.5" stroke-linecap="butt"></path><path d="M104.62466,175.67424l-1.35065,0.58265c1.13988,0.12471 2.27976,0.24942 3.41963,0.37413l4.15856,0.45498c0,0 2.48517,0.2719 2.21327,2.75707c-0.2719,2.48517 -2.75707,2.21327 -2.75707,2.21327c-1.23103,-0.13468 -4.75794,-0.52056 -7.16894,-0.78434c-0.14934,1.23804 -1.20357,2.19747 -2.48188,2.19747c-1.38071,0 -2.5,-1.11929 -2.5,-2.5c0,-0.73534 0.31748,-1.39653 0.82284,-1.85398c-0.03948,-0.24101 -0.0474,-0.5115 -0.01419,-0.81499c0.0254,-0.23218 0.07012,-0.4403 0.13033,-0.62682c-0.67745,-0.06183 -1.45101,-0.40759 -1.92523,-1.50689c-0.99025,-2.29552 1.30526,-3.28577 1.30526,-3.28577l4.16755,-1.79782c0,0 0.45258,-0.19524 1.04252,-0.21137c0.43995,-0.71495 1.22967,-1.19165 2.13072,-1.19165c1.38071,0 2.5,1.11929 2.5,2.5c0,1.38071 -1.11929,2.5 -2.5,2.5c-0.00282,0 -0.00564,0 -0.00846,-0.00001c-0.45935,0.68135 -1.18427,0.99407 -1.18427,0.99407z" fill="#11ff00" stroke="none" stroke-width="0.5" stroke-linecap="butt"></path><path d="M111.44932,185.69952c0.46363,2.45663 -1.993,2.92026 -1.993,2.92026l-3.34032,0.62473c-2.56902,0.14138 -5.13831,0.2778 -7.70761,0.41391c0,0 -2.4965,0.13226 -2.62876,-2.36424c-0.13226,-2.4965 2.36424,-2.62876 2.36424,-2.62876c2.45821,-0.13023 4.91641,-0.26063 7.37491,-0.38511l3.01028,-0.57379c0,0 2.45663,-0.46363 2.92026,1.993z" fill="#11ff00" stroke="none" stroke-width="0.5" stroke-linecap="butt"></path><path d="M102.36745,198.05054l-1.00784,-0.03074c-1.78115,0.32768 -3.57272,0.5992 -5.3694,0.81359c0,0 -2.054,0.24324 -2.64668,-1.58106c-0.41346,-0.08248 -0.825,-0.1738 -1.23421,-0.27498c0,0 -2.42442,-0.61007 -1.81435,-3.03449c0.61007,-2.42442 3.03449,-1.81435 3.03449,-1.81435c2.48255,0.63751 5.07698,0.80678 7.63911,0.87704l0.02316,0.00071c1.31902,-0.25228 2.63139,-0.53832 3.93452,-0.85765l0.09998,-0.0244c0,0 2.42872,-0.59271 3.02143,1.83601c0.59271,2.42872 -1.83601,3.02143 -1.83601,3.02143l-0.09998,0.0244c-0.65797,0.15995 -1.31806,0.31215 -1.98001,0.45656c-0.75523,0.61871 -1.76422,0.58793 -1.76422,0.58793z" fill="#11ff00" stroke="none" stroke-width="0.5" stroke-linecap="butt"></path><path d="M101.55577,206.4722c0.01115,0.1043 0.01747,0.20468 0.01932,0.30131c0.5655,-0.18048 1.13099,-0.36096 1.69649,-0.54144l3.37334,-1.07661c0,0 2.38164,-0.76011 3.14176,1.62153c0.76011,2.38164 -1.62153,3.14176 -1.62153,3.14176c-1.58776,0.50674 -6.54887,2.09009 -8.13663,2.59683c0,0 -2.258,0.72065 -3.07848,-1.44004c-0.31299,0.11138 -0.54482,0.14054 -0.54482,0.14054l-3.17527,0.3995c0,0 -2.10811,0.26523 -2.68193,-1.63679c-0.2823,0.01779 -0.5646,0.03559 -0.8469,0.05338c0,0 -2.49507,0.15697 -2.65204,-2.3381c-0.15697,-2.49507 2.3381,-2.65204 2.3381,-2.65204c1.64521,-0.1033 3.29042,-0.20661 4.93564,-0.30991l4.48128,-0.47988c0,0 2.48582,-0.26586 2.75169,2.21996z" fill="#11ff00" stroke="none" stroke-width="0.5" stroke-linecap="butt"></path></g></g></svg>