<svg version="1.1" xmlns="http://www.w3.org/2000/svg" xmlns:xlink="http://www.w3.org/1999/xlink" width="148.65264" height="114.83416" viewBox="0,0,148.65264,114.83416"><g transform="translate(-153.03505,-116.01705)"><g data-paper-data="{&quot;isPaintingLayer&quot;:true}" fill-rule="nonzero" stroke-linejoin="miter" stroke-miterlimit="10" stroke-dasharray="" stroke-dashoffset="0" style="mix-blend-mode: normal"><path d="" data-paper-data="{&quot;index&quot;:null}" fill="none" stroke="#000000" stroke-width="1.5" stroke-linecap="round"></path><path d="" data-paper-data="{&quot;index&quot;:null}" fill="none" stroke="#000000" stroke-width="1.5" stroke-linecap="round"></path><path d="M301.68768,195.47554" data-paper-data="{&quot;index&quot;:null}" fill="none" stroke="#d8d8d8" stroke-width="4" stroke-linecap="round"></path><path d="M199.18372,180.6207c0,-21.81525 17.68475,-39.5 39.5,-39.5c21.81525,0 39.5,17.68475 39.5,39.5c0,21.81525 -17.68475,39.5 -39.5,39.5c-21.81525,0 -39.5,-17.68475 -39.5,-39.5z" data-paper-data="{&quot;index&quot;:null}" fill="#d8d8d8" stroke="#000000" stroke-width="1.5" stroke-linecap="butt"></path><path d="M254.35771,169.6083l-11.07275,4.59202" data-paper-data="{&quot;index&quot;:null}" fill="none" stroke="#000000" stroke-width="1.5" stroke-linecap="round"></path><path d="M248.94146,178.95914l0.25511,-5.86758" data-paper-data="{&quot;index&quot;:null}" fill="none" stroke="#000000" stroke-width="1.5" stroke-linecap="round"></path><path d="M239.9685,174.57761l-14.45771,-4.12252" data-paper-data="{&quot;index&quot;:null}" fill="none" stroke="#000000" stroke-width="1.5" stroke-linecap="round"></path><path d="M234.22147,173.05217l0.21988,5.35892" data-paper-data="{&quot;index&quot;:null}" fill="none" stroke="#000000" stroke-width="1.5" stroke-linecap="round"></path><path d="M252.45108,192.12344l-18.63798,-0.59168" fill="none" stroke="#000000" stroke-width="1.5" stroke-linecap="round"></path><g stroke="#000000" stroke-linecap="butt"><g><g data-paper-data="{&quot;index&quot;:null}"><path d="M178.39591,205.37559l-11.85342,18.03778c0,0 -3.71158,1.60529 -4.58909,0.95381c-0.8791,-0.65266 -0.68076,-4.86621 -0.68076,-4.86621l11.85342,-18.03778z" fill="#af5400" stroke-width="1.5"></path><path d="M187.42608,206.66844c0,0 -1.62483,5.57471 -4.62295,6.3884c-3.51225,0.95322 -7.94115,-2.40789 -10.9258,-4.508c-5.53248,-3.8927 -8.76879,-9.22412 -7.22857,-11.90805c0.71568,-1.24706 4.14781,-4.2989 4.14781,-4.2989c0,0 5.69668,4.40359 8.65853,6.48757c5.53247,3.8927 9.97097,7.83894 9.97097,7.83894z" fill="#989898" stroke-width="1"></path><path d="M187.87897,206.72314c-1.54026,2.68392 -7.27384,1.70403 -12.80636,-2.18869c-5.53246,-3.89272 -8.76882,-9.2241 -7.22858,-11.90803c1.54025,-2.68393 7.27387,-1.70403 12.80634,2.18866c5.53246,3.89272 8.76882,9.22411 7.22858,11.90803z" fill="#989898" stroke-width="1"></path><path d="M174.74611,198.57686l56.47792,-81.40276l-3.08293,14.67704l-48.81986,70.36511c0,0 -2.32393,0.41457 -3.07728,-0.18477c-0.77118,-0.61349 -1.49782,-3.45466 -1.49782,-3.45466z" fill="#e6e6e6" stroke-width="0.5"></path></g><path d="M157.59541,227.16765c-4.50004,-3.39474 -5.39607,-9.79474 -2.00131,-14.29478c3.39474,-4.50004 9.79474,-5.39607 14.29478,-2.00131c4.50004,3.39474 5.39607,9.79474 2.00131,14.29478c-3.39474,4.50004 -9.79474,5.39607 -14.29478,2.00131z" fill="#d8d8d8" stroke-width="1"></path></g><path d="M159.7018,228.79034c-4.77561,-2.9947 -6.21932,-9.29378 -3.22462,-14.06938c2.9947,-4.77561 9.29378,-6.21932 14.06938,-3.22462c4.77561,2.9947 6.21933,9.29378 3.22463,14.06939c-2.9947,4.77561 -9.29379,6.21931 -14.06939,3.22462z" data-paper-data="{&quot;index&quot;:null}" fill="#d8d8d8" stroke-width="1"></path></g></g></g></svg>