<svg version="1.1" xmlns="http://www.w3.org/2000/svg" xmlns:xlink="http://www.w3.org/1999/xlink" width="112.69428" height="83.08872" viewBox="0,0,112.69428,83.08872"><g transform="translate(-167.55577,-139.75)"><g data-paper-data="{&quot;isPaintingLayer&quot;:true}" fill-rule="nonzero" stroke="#000000" stroke-linejoin="miter" stroke-miterlimit="10" stroke-dasharray="" stroke-dashoffset="0" style="mix-blend-mode: normal"><path d="" data-paper-data="{&quot;index&quot;:null}" fill="none" stroke-width="1.5" stroke-linecap="round"></path><path d="" data-paper-data="{&quot;index&quot;:null}" fill="none" stroke-width="1.5" stroke-linecap="round"></path><path d="" data-paper-data="{&quot;index&quot;:null}" fill="none" stroke-width="1.5" stroke-linecap="round"></path><path d="" data-paper-data="{&quot;index&quot;:null}" fill="none" stroke-width="1.5" stroke-linecap="round"></path><path d="" data-paper-data="{&quot;index&quot;:null}" fill="none" stroke-width="1.5" stroke-linecap="round"></path><path d="" data-paper-data="{&quot;index&quot;:null}" fill="none" stroke-width="1.5" stroke-linecap="round"></path><path d="M200.50004,180c0,-21.81525 17.68475,-39.5 39.5,-39.5c21.81525,0 39.5,17.68475 39.5,39.5c0,21.81525 -17.68475,39.5 -39.5,39.5c-21.81525,0 -39.5,-17.68475 -39.5,-39.5z" fill="#6e6e6e" stroke-width="1.5" stroke-linecap="butt"></path><path d="M202.85559,181.6599c0,0 -2.28148,-3.48635 -2.28148,-5.83045c0,-2.68059 2.28148,-9.37942 2.28148,-9.37942c0,0 25.76053,3.29547 38.0247,3.29547c12.45976,0 36.15636,-3.29547 36.15636,-3.29547c0,0 0.32325,0.8142 0.73295,2.06366c1.27619,3.89191 3.39127,12.00691 -0.81086,12.89272c-2.60416,0.54896 -18.81959,2.66663 -35.57172,2.60715c-18.95763,-0.06731 -38.53144,-2.35365 -38.53144,-2.35365z" fill="#d0d0d0" stroke-width="0" stroke-linecap="butt"></path><path d="M220.2872,168.69041l16.34335,9.20811" fill="none" stroke-width="1.5" stroke-linecap="round"></path><path d="M228.71238,178.36443l0.2535,-3.54897" fill="none" stroke-width="1.5" stroke-linecap="round"></path><path d="M245.30508,176.18343l13.96519,-6.03143" fill="none" stroke-width="1.5" stroke-linecap="round"></path><path d="M251.52719,179.12492v-5.06996" fill="none" stroke-width="1.5" stroke-linecap="round"></path><path d="M174.48602,222.83872c0,0 -7.36855,-7.31381 -6.90968,-21.07972c0.18914,-5.67408 8.42061,-24.23268 8.42061,-24.23268l5.73756,-22.1679l12.63277,4.10582l-8.24598,20.5962z" fill="#bebebe" stroke-width="0" stroke-linecap="butt"></path></g></g></svg>