<svg version="1.1" xmlns="http://www.w3.org/2000/svg" xmlns:xlink="http://www.w3.org/1999/xlink" width="492.1777" height="317.35133" viewBox="0,0,492.1777,317.35133"><g transform="translate(-0.37841,1.73132)"><g data-paper-data="{&quot;isPaintingLayer&quot;:true}" fill-rule="nonzero" stroke-linejoin="miter" stroke-miterlimit="10" stroke-dasharray="" stroke-dashoffset="0" style="mix-blend-mode: normal"><path d="" data-paper-data="{&quot;index&quot;:null}" fill="none" stroke="#000000" stroke-width="1.5" stroke-linecap="round"></path><path d="" data-paper-data="{&quot;index&quot;:null}" fill="none" stroke="#000000" stroke-width="1.5" stroke-linecap="round"></path><path d="" data-paper-data="{&quot;index&quot;:null}" fill="none" stroke="#000000" stroke-width="1.5" stroke-linecap="round"></path><path d="" data-paper-data="{&quot;index&quot;:null}" fill="none" stroke="#000000" stroke-width="1.5" stroke-linecap="round"></path><path d="" data-paper-data="{&quot;index&quot;:null}" fill="none" stroke="#000000" stroke-width="1.5" stroke-linecap="round"></path><path d="M319.09515,206.33008" data-paper-data="{&quot;index&quot;:null}" fill="none" stroke="#d8d8d8" stroke-width="4" stroke-linecap="round"></path><path d="M289.92393,195.47557" data-paper-data="{&quot;index&quot;:null}" fill="none" stroke="#d8d8d8" stroke-width="4" stroke-linecap="round"></path><path d="M289.92393,195.47557" data-paper-data="{&quot;index&quot;:null}" fill="none" stroke="#d8d8d8" stroke-width="4" stroke-linecap="round"></path><path d="M246.59617,255.87341" data-paper-data="{&quot;index&quot;:null}" fill="none" stroke="#d8d8d8" stroke-width="4" stroke-linecap="round"></path><path d="M197.40988,237.57135" data-paper-data="{&quot;index&quot;:null}" fill="none" stroke="#d8d8d8" stroke-width="4" stroke-linecap="round"></path><path d="M197.40988,237.57135" data-paper-data="{&quot;index&quot;:null}" fill="none" stroke="#d8d8d8" stroke-width="4" stroke-linecap="round"></path><path d="M23.20467,210.77639c-5.71149,-0.56029 -9.88736,-5.64458 -9.32707,-11.35606c0.56029,-5.71149 5.64458,-9.88736 11.35606,-9.32707c5.71149,0.56029 9.88736,5.64458 9.32707,11.35606c-0.56029,5.71149 -5.64458,9.88736 -11.35606,9.32707z" fill="#d8d8d8" stroke="#000000" stroke-width="1.5" stroke-linecap="butt"></path><path d="M113.23186,278.07954c-36.78325,0 -66.60193,-29.8187 -66.60193,-66.60193c0,-36.78325 29.8187,-66.60193 66.60193,-66.60193c36.78325,0 66.60193,29.8187 66.60193,66.60193c0,36.78325 -29.8187,66.60193 -66.60193,66.60193z" fill="#d8d8d8" stroke="#000000" stroke-width="1.5" stroke-linecap="butt"></path><g><path d="M60.54213,262.10342l0.12297,-88.15508l45.03701,-27.47764l31.52964,-1.26749l42.57045,23.46838l1.84154,109.08039l-51.05199,-14.57522l-1.30975,-39.51567l-10.35233,-4.99585l-7.98967,4.5513l0.91476,37.65828l-51.72634,15.19151z" fill="#c3c3c3" stroke="#000000" stroke-width="2" stroke-linecap="round"></path><path d="M68.06985,208.9757l-0.41194,-19.21956l44.72123,5.19454l0.44488,20.75714z" fill="#c20000" stroke="none" stroke-width="0" stroke-linecap="butt"></path><path d="M130.54814,215.73118l-0.47402,-20.75647l44.44756,-7.16836l0.43891,19.21896z" data-paper-data="{&quot;index&quot;:null}" fill="#c20000" stroke="none" stroke-width="0" stroke-linecap="butt"></path></g><g stroke="#000000" stroke-linecap="butt"><path d="M424.71442,315.62001c0,0 -3.34835,-5.1174 -6.50995,-5.58606c-1.85549,-0.27505 4.1151,-14.07583 0.82742,-15.65301c-7.74166,-3.71385 -26.08026,3.17273 -26.08026,3.17273l2.03078,-13.69973c0,0 29.45892,-3.02247 40.51495,8.78996c2.13685,2.283 -5.37928,17.80818 -5.37928,17.80818z" data-paper-data="{&quot;index&quot;:null}" fill="#a7a7a7" stroke-width="0"></path><path d="M397.53281,269.55586c0,0 0.84408,12.93566 3.8761,13.38512c4.68537,0.69452 18.39247,2.72641 24.07352,3.56856c-1.15062,1.89472 -1.94426,4.04888 -2.27483,6.3827c-0.35825,2.52929 -0.13545,5.00696 0.56695,7.29786c-6.92051,0.40618 -27.80264,0.78104 -36.5828,-8.59973c-2.04928,-2.18944 5.15882,-17.07831 5.15882,-17.07831l5.18226,-4.95616z" fill="#919191" stroke-width="1"></path><path d="M423.01623,287.69957l64.83464,11.15149c0,0 4.67601,1.71939 4.4471,3.33569c-0.25735,1.8166 -4.85287,3.0023 -4.85287,3.0023l-65.89758,-7.12044z" fill="#d2d2d2" stroke-width="0.5"></path></g><g><path d="M61.232,119.89976l21.31558,-53.51463c0,0 18.28141,17.61587 31.30771,22.80442c7.66368,3.05254 23.24477,-0.22225 36.12435,2.86325c18.59596,4.45496 34.18202,14.80656 34.18202,14.80656l-21.31558,53.51463c0,0 -12.85407,-11.12326 -30.5746,-15.58629c-14.76986,-3.71988 -33.9256,-0.50898 -42.44484,-3.90231c-12.89035,-5.13438 -28.59464,-20.98561 -28.59464,-20.98561z" fill="#139c0e" stroke="#000000" stroke-width="0.5" stroke-linecap="butt"></path><path d="M22.01276,241.77426l-18.14699,14.53913l-3.18097,-23.03434z" fill="#ffee00" stroke="#000000" stroke-width="0.5" stroke-linecap="round"></path><path d="M8.14013,235.98123l68.13375,-171.05571l7.32643,2.9182l-68.13375,171.05571z" fill="#d3d3d3" stroke="#000000" stroke-width="0.5" stroke-linecap="butt"></path><path d="M64.63882,100.45617c-0.01324,-0.04335 -0.02717,-0.09164 -0.04112,-0.14436c-0.04022,0.02535 -0.08032,0.05075 -0.12028,0.07615c0.05471,0.02645 0.10834,0.05437 0.16083,0.08366c0.00019,-0.00516 0.00041,-0.0103 0.0006,-0.01544zM70.39307,98.2679l0.33031,1.38923c0.57389,0.5169 1.02079,1.33882 0.84242,2.63471c-0.08846,0.6427 -0.2935,1.13162 -0.56217,1.50302c0.67532,4.95974 1.54108,9.89284 1.69543,14.75423c0.12252,0.69714 0.15078,1.39409 0.01988,2.08577c-0.00447,0.31764 -0.01257,0.63493 -0.02452,0.95188l0.08733,0.25069l0.99041,-0.06473l0.25698,3.93214c0.04043,0.46409 -0.02405,0.9444 -0.20818,1.40668c-0.49386,1.23987 -1.70194,1.98215 -2.96304,1.94231c-0.10856,0.41586 -0.22817,0.83054 -0.35959,1.24407l0.90715,0.24949l-0.81151,2.95053c-0.03209,0.12304 -0.07213,0.24544 -0.12039,0.36661c-0.63034,1.58252 -2.42419,2.3544 -4.00671,1.72406c-0.42842,-0.17066 -0.79741,-0.42657 -1.0953,-0.74048c1.54985,5.48624 2.22622,11.17179 -2.81252,13.10799c-2.06081,0.7919 -4.16075,-1.76807 -5.73104,-3.31992c-2.14616,-2.12093 -3.22609,-7.99314 -2.86977,-12.9958c-5.15491,5.41948 -11.92797,10.6977 -18.00062,4.65994c-0.72458,-0.72042 -0.53146,-1.72313 -0.0134,-2.77212c-0.19751,-0.64692 -0.18458,-1.36286 0.08519,-2.04013c0.09664,-0.24262 0.22061,-0.4662 0.36702,-0.66858l3.47067,-5.01797l0.10911,0.07545l0.18664,-0.44026c0.56848,-0.44693 1.1365,-0.90061 1.70447,-1.35934c-0.14925,-0.03481 -0.29773,-0.08121 -0.44443,-0.13964c-1.58252,-0.63034 -2.3544,-2.42419 -1.72406,-4.00671c0.18156,-0.45585 0.45969,-0.84442 0.80146,-1.1516l2.42956,-2.28146c0.67646,-0.63521 1.51159,-1.49877 2.46351,-2.4567c-0.60867,-8.61818 13.45465,-17.79703 19.76665,-21.15236c0,0 2.72696,-1.44106 4.16804,1.28588c0.62622,1.185 0.46539,2.12719 0.08326,2.81383c0.67139,0.5581 0.98173,1.27931 0.98173,1.27931z" fill="#606060" stroke="none" stroke-width="0.5" stroke-linecap="butt"></path><path d="M122.9306,137.60297l-17.21166,-39.99967l11.65343,-5.01442l17.21166,39.99967z" fill="#b8b8b8" stroke="none" stroke-width="0" stroke-linecap="butt"></path><path d="M75.3155,64.42709l11.61692,-17.14015l-3.34908,20.43334z" data-paper-data="{&quot;index&quot;:null}" fill="#000000" stroke="#000000" stroke-width="0.5" stroke-linecap="round"></path><path d="M97.83257,118.31223l39.99967,-17.21166l5.01442,11.65343l-39.99965,17.21165z" data-paper-data="{&quot;index&quot;:null}" fill="#b8b8b8" stroke="none" stroke-width="0" stroke-linecap="butt"></path><text transform="translate(91.95156,118.75676) rotate(21.71804) scale(0.88454,0.88454)" font-size="40" xml:space="preserve" fill="#000000" fill-rule="nonzero" stroke="none" stroke-width="1" stroke-linecap="butt" stroke-linejoin="miter" stroke-miterlimit="10" stroke-dasharray="" stroke-dashoffset="0" font-family="Pixel" font-weight="normal" text-anchor="start" style="mix-blend-mode: normal"><tspan x="0" dy="0">BB</tspan></text><path d="M84.09057,77.29598l11.98836,12.52574" fill="none" stroke="#54ff00" stroke-width="3.5" stroke-linecap="round"></path><path d="M69.69928,119.91282l18.46453,-0.02686" fill="none" stroke="#54ff00" stroke-width="3.5" stroke-linecap="round"></path><path d="M154.87649,109.91987l21.58246,-1.36849" fill="none" stroke="#54ff00" stroke-width="3.5" stroke-linecap="round"></path><path d="M143.00933,136.93363l16.69898,11.8185" fill="none" stroke="#54ff00" stroke-width="3.5" stroke-linecap="round"></path></g><g stroke="#5eff00" stroke-width="5.5"><path d="M157.54953,31.015c0,7.4136 -16.8004,13.4235 -37.52476,13.4235c-20.72436,0 -37.52476,-6.00991 -37.52476,-13.4235c0,-7.41359 16.80042,-13.42349 37.52477,-13.42349c20.72436,0 37.52476,6.00989 37.52476,13.42349z" fill="none" stroke-linecap="butt"></path><g><g><path d="M116.81101,53.49514v-7.24361h3.4969v7.24361z" fill="none" stroke-linecap="butt"></path><path d="M125.74762,53.60616l-6.10126,6.38449l-7.14497,-6.58369z" fill="#5eff00" stroke-linecap="round"></path></g><g><path d="M144.4087,50.12599l-2.5086,-6.79535l3.28051,-1.21106l2.5086,6.79535z" fill="none" stroke-linecap="butt"></path><path d="M152.83073,47.13521l-3.51263,8.1024l-8.98287,-3.70184z" fill="#5eff00" stroke-linecap="round"></path></g><g><path d="M166.76136,33.63217l-7.20703,-0.72693l0.35094,-3.47927l7.20703,0.72693z" fill="none" stroke-linecap="butt"></path><path d="M167.76865,24.75182l5.73996,6.71118l-7.2675,6.44818z" fill="#5eff00" stroke-linecap="round"></path></g><g data-paper-data="{&quot;index&quot;:null}"><path d="M121.1563,8.61645v7.24361h-3.4969v-7.24361z" fill="none" stroke-linecap="butt"></path><path d="M113.34977,8.70464l7.14497,-6.58369l6.10126,6.38449z" fill="#5eff00" stroke-linecap="round"></path></g><g data-paper-data="{&quot;index&quot;:null}"><path d="M148.5376,13.19664l-2.5086,6.79535l-3.28051,-1.21106l2.5086,-6.79533z" fill="none" stroke-linecap="butt"></path><path d="M141.18362,10.57582l8.98286,-3.70184l3.51264,8.10238z" fill="#5eff00" stroke-linecap="round"></path></g><g data-paper-data="{&quot;index&quot;:null}"><path d="M91.0701,49.01399l2.5086,-6.79535l3.28051,1.21106l-2.5086,6.79535z" fill="none" stroke-linecap="butt"></path><path d="M98.42407,51.63481l-8.98286,3.70184l-3.51264,-8.1024z" fill="#5eff00" stroke-linecap="round"></path></g><g data-paper-data="{&quot;index&quot;:null}"><path d="M71.64702,30.25195l7.20703,-0.72693l0.35094,3.47927l-7.20703,0.72693z" fill="none" stroke-linecap="butt"></path><path d="M72.51819,38.01022l-7.2675,-6.44818l5.73996,-6.71118z" fill="#5eff00" stroke-linecap="round"></path></g><g data-paper-data="{&quot;index&quot;:null}"><path d="M93.50223,12.08463l2.5086,6.79535l-3.28051,1.21104l-2.5086,-6.79533z" fill="none" stroke-linecap="butt"></path><path d="M85.08021,15.07541l3.51264,-8.1024l8.98286,3.70184z" fill="#5eff00" stroke-linecap="round"></path></g></g></g></g></g></svg>