<svg version="1.1" xmlns="http://www.w3.org/2000/svg" xmlns:xlink="http://www.w3.org/1999/xlink" width="144.38948" height="103.26537" viewBox="0,0,144.38948,103.26537"><g transform="translate(-132.34189,-136.64105)"><g data-paper-data="{&quot;isPaintingLayer&quot;:true}" fill-rule="nonzero" stroke-linejoin="miter" stroke-miterlimit="10" stroke-dasharray="" stroke-dashoffset="0" style="mix-blend-mode: normal"><path d="M213.51985,170.95034l8.98862,-1.09762l1.84071,7.78537" data-paper-data="{&quot;index&quot;:null}" fill="none" stroke="#000000" stroke-width="1.5" stroke-linecap="round"></path><path d="M230.5736,175.97467l-1.84071,-7.78537l8.52845,-3.04395" data-paper-data="{&quot;index&quot;:null}" fill="none" stroke="#000000" stroke-width="1.5" stroke-linecap="round"></path><path d="M234.4465,199.0748c0,0 -1.64581,-8.45829 3.5529,-10.12091c5.06778,-1.62073 13.97735,4.94863 13.97735,4.94863z" data-paper-data="{&quot;index&quot;:null}" fill="#040404" stroke="#000000" stroke-width="1.5" stroke-linecap="round"></path><path d="M198.80392,179.80071c-4.18549,-17.70276 9.25234,-36.03302 30.01421,-40.94178c20.76188,-4.90875 40.98571,5.46285 45.17119,23.16561c2.58317,10.92564 3.3077,24.77783 -5.11345,32.87884c-0.35164,0.33827 -4.50327,4.05491 -4.50327,4.05491l2.98359,13.5951l-12.02137,3.8212l-4.05247,-14.94418l3.65079,15.13857l-14.28613,3.5881l-4.11534,-15.40014l4.42408,15.19974l-15.76062,3.63743c0,0 -3.74433,-16.33182 -4.14772,-16.2923c-2.63511,0.25824 -1.96716,0.46408 -3.97804,-0.0216c-12.34402,-2.98147 -15.49263,-15.75173 -18.26545,-27.47951z" data-paper-data="{&quot;index&quot;:null}" fill="#ffffff" stroke="#000000" stroke-width="2" stroke-linecap="butt"></path><path d="M247.70897,169.87721c1.36355,5.7672 -0.74277,11.20174 -4.70458,12.13845c-3.96181,0.9367 -8.27886,-2.97921 -9.6424,-8.74639c-1.36355,-5.7672 -3.52007,-10.5774 0.44172,-11.5141c3.13592,-0.74143 12.21894,4.85396 12.21894,4.85396c0,0 1.40206,2.06585 1.68631,3.26807z" data-paper-data="{&quot;index&quot;:null}" fill="#ababab" stroke="#000000" stroke-width="1" stroke-linecap="butt"></path><path d="M263.22105,154.60581c3.96181,-0.9367 4.18776,4.32998 5.5513,10.09716c1.36355,5.7672 -0.74276,11.20175 -4.70458,12.13846c-3.96181,0.9367 -8.27886,-2.97921 -9.64241,-8.7464c-0.28425,-1.20223 0.04422,-3.67723 0.04422,-3.67723c0,0 5.61552,-9.07059 8.75145,-9.812z" data-paper-data="{&quot;index&quot;:null}" fill="#ababab" stroke="#000000" stroke-width="1" stroke-linecap="butt"></path><path d="" data-paper-data="{&quot;index&quot;:null}" fill="none" stroke="#000000" stroke-width="1.5" stroke-linecap="round"></path><path d="" data-paper-data="{&quot;index&quot;:null}" fill="none" stroke="#000000" stroke-width="1.5" stroke-linecap="round"></path><path d="" data-paper-data="{&quot;index&quot;:null}" fill="none" stroke="#000000" stroke-width="1.5" stroke-linecap="round"></path><path d="" data-paper-data="{&quot;index&quot;:null}" fill="none" stroke="#000000" stroke-width="1.5" stroke-linecap="round"></path><path d="" data-paper-data="{&quot;index&quot;:null}" fill="none" stroke="#000000" stroke-width="1.5" stroke-linecap="round"></path><path d="" data-paper-data="{&quot;index&quot;:null}" fill="none" stroke="#000000" stroke-width="1.5" stroke-linecap="round"></path><path d="" data-paper-data="{&quot;index&quot;:null}" fill="none" stroke="#000000" stroke-width="1.5" stroke-linecap="round"></path><path d="" data-paper-data="{&quot;index&quot;:null}" fill="none" stroke="#000000" stroke-width="1.5" stroke-linecap="round"></path><path d="" data-paper-data="{&quot;index&quot;:null}" fill="none" stroke="#000000" stroke-width="1.5" stroke-linecap="round"></path><path d="" data-paper-data="{&quot;index&quot;:null}" fill="none" stroke="#000000" stroke-width="1.5" stroke-linecap="round"></path><path d="M167.41437,198.49798c-0.0762,-5.41003 4.24773,-9.85751 9.65777,-9.93371c5.41003,-0.0762 9.85751,4.24773 9.93371,9.65777c0.0762,5.41003 -4.24773,9.85751 -9.65777,9.93371c-5.41003,0.0762 -9.85751,-4.24773 -9.93371,-9.65777z" fill="#ffffff" stroke="#000000" stroke-width="1" stroke-linecap="butt"></path><path d="M174.86611,195.74493c0.00767,0.06242 0.00767,0.1013 0.00767,0.1013c-0.00154,2.66837 -0.21526,5.32348 -0.25778,7.99599l-0.00003,1.99405v0c-0.00001,0.55228 -0.44772,0.99999 -1,0.99999c-0.5181,0 -0.94417,-0.394 -0.99493,-0.89872l-0.2257,-1.9748l0.15905,-0.01818c-0.06951,-0.22966 -0.13353,-0.46066 -0.19102,-0.693c-0.03224,0.11525 -0.06723,0.2292 -0.10449,0.34148l-0.24577,0.98308c-0.10106,0.44532 -0.49931,0.77776 -0.97522,0.77776c-0.50931,0 -0.92969,-0.38075 -0.99203,-0.87313l-0.25573,-1.7901l0.12907,-0.01844c-0.20952,-0.6114 -0.39747,-1.22294 -0.57593,-1.854l-0.16605,0.66422c-0.10106,0.44532 -0.49931,0.77776 -0.97522,0.77776c-0.08301,0 -0.16365,-0.01011 -0.24077,-0.02917c-0.25293,0.6696 -0.55775,1.34188 -0.80778,2.00896l-0.31792,0.93083c-0.12783,0.40504 -0.50652,0.6987 -0.95381,0.6987c-0.44984,0 -0.83031,-0.29702 -0.95598,-0.70565l-0.50832,-1.52497l0.25063,-0.08354c-0.90177,-2.13781 -1.39034,-4.42723 -2.08082,-6.68757c-0.40042,2.17625 -1.69816,4.49492 -2.60744,6.3124l-0.37271,0.98893c-0.13657,0.38971 -0.50764,0.66918 -0.94398,0.66918c-0.44984,0 -0.83031,-0.29702 -0.95598,-0.70565l-0.62516,-1.87549l0.10664,-0.03555c-0.22898,-0.46576 -0.44229,-0.93861 -0.63433,-1.41974c-0.06686,0.35857 -0.15042,0.71477 -0.2354,1.06672l-0.28158,1.37808c-0.0855,0.46548 -0.49331,0.81819 -0.98351,0.81819c-0.42924,0 -0.79532,-0.27045 -0.93713,-0.65024l-0.25333,-0.63333c-0.17142,0.30448 -0.49769,0.51014 -0.87201,0.51014c-0.4846,0 -0.8887,-0.3447 -0.98046,-0.8023l-0.24838,-1.11772c-0.27925,2.05006 -1.25034,4.46389 -1.79212,6.17099c-0.28983,0.91322 -0.22351,2.22192 -1.07199,2.66694c-1.25108,0.65618 -2.74036,-2.65984 -2.92798,-3.02973c-1.13567,-2.23903 -2.21639,-4.51471 -3.31253,-6.77985c-0.04611,1.35764 -0.26542,2.83487 -0.27234,3.60544l-0.05107,0.09187l0.0353,0.00744l-0.25516,1.21038c-0.08779,0.46262 -0.49426,0.81243 -0.98244,0.81243c-0.15386,0 -0.2996,-0.03475 -0.4298,-0.09682c-0.0183,0.89476 -0.11706,1.81101 -0.11705,2.70613v1.03123c0,0.55228 -0.44772,1 -1,1c-0.46471,0 -0.85539,-0.31699 -0.9676,-0.74654l-0.50954,-1.7834l0.0918,-0.02623c-2.85508,-5.15411 -4.56646,-10.70701 -5.02522,-16.66573c-0.10173,-1.3214 -1.25985,-5.64747 -0.66261,-6.73398c1.03986,-1.89173 3.65838,-1.33628 5.2301,-1.02715c2.51171,0.64064 4.73744,2.00968 7.11391,3.01099c7.15265,3.01371 15.48545,5.00374 23.0713,6.27523c2.02701,0.67412 3.76433,1.01259 5.50978,1.85551c0.11874,-0.05005 0.2625,-0.08034 0.43656,-0.08034c0.79852,0 0.95941,0.63763 0.99182,0.89457c0.00093,0.00062 0.00187,0.00124 0.0028,0.00186z" fill="#bd00f2" stroke="none" stroke-width="0.5" stroke-linecap="butt"></path><path d="M174.42062,204.3539l0.75746,-1.22795c3.26729,-0.81636 6.36556,-2.35401 9.78144,-2.35013c0.84558,0.00096 3.38142,-0.24987 3.67695,1.16257c0.05803,0.27734 -0.12413,0.4732 -0.38789,0.64138c0.87098,0.00067 2.12832,0.01081 2.25425,0.07868c2.78539,1.50142 -0.39461,4.70352 -3.0313,6.31997c1.16048,-0.13292 2.18163,-0.14717 3.29009,0.06792l0.04742,-0.26256l1.50764,0.27228c0.47591,0.07685 0.83936,0.48956 0.83936,0.98717c0,0.3207 -0.15097,0.60615 -0.38571,0.78914l-1.54488,1.22641c-0.76913,0.67336 -1.51632,1.37224 -2.30207,2.02612c-0.52057,0.4332 -2.11727,1.29389 -1.45208,1.42106c1.00025,0.19123 1.85434,-1.75197 2.77949,0.54706c0.58609,1.45645 -1.3122,2.67237 -2.10075,3.27085c-0.34411,0.26117 -1.54198,0.76182 -1.12812,0.63795c0.37824,-0.11321 0.7728,-0.1181 1.16901,-0.0545l0.05842,-0.29209l1.27087,0.25417c0.46739,0.08395 0.82205,0.49266 0.82205,0.98421c0,0.3992 -0.23392,0.74377 -0.57216,0.90412l-0.16332,0.08166c1.32084,-0.13185 3.24114,0.12755 3.55846,1.94774c0.13646,0.78273 -0.51758,1.51011 -0.8956,2.20896c-0.23692,0.43799 -1.34798,1.23332 -0.85004,1.22846c1.4519,-0.01416 5.03991,-0.68021 6.05088,0.68998c1.03064,1.39686 -2.45671,2.93602 -2.758,3.10185c-1.37999,0.75954 -3.14794,1.80879 -4.91657,2.5068c0.76952,0.03379 1.50191,0.12086 2.25782,0.32739l0.06274,-0.31371l1.27087,0.25417c0.46739,0.08395 0.82205,0.49266 0.82205,0.98421c0,0.47765 -0.33489,0.87709 -0.78268,0.97632l-0.93709,0.22903c-4.51731,1.49726 -10.06715,3.72999 -15.00653,3.54148v0.3781l-1.80466,0c-0.53068,0 -0.96481,-0.41337 -0.99796,-0.93568c-0.44618,-0.01629 -0.89123,-0.03697 -1.3345,-0.06771c-0.00504,0.13489 -0.04185,0.28509 -0.12462,0.45061c-0.44721,0.89443 -1.34164,0.44721 -1.34164,0.44721l-0.31094,-0.18209c-3.60929,-0.90489 -7.47222,-2.00688 -10.91615,-3.37793c-4.08976,-1.24531 -9.90955,-2.57155 -13.21486,-5.34443c-3.17299,-2.66187 -4.96621,-7.4824 -6.46067,-11.212c0,0 -0.37139,-0.92848 0.55709,-1.29987c0.92848,-0.37139 1.29987,0.55709 1.29987,0.55709c1.3901,3.48172 3.02805,7.89222 5.91412,10.44388c2.91637,2.57845 8.86872,3.85791 12.56595,4.9679c2.68989,1.08134 5.66322,1.99017 8.55392,2.7618l0.72054,-0.72054l0.01653,0.01653l0.03537,-0.06488c0.42116,-0.31642 0.79793,-0.66168 1.1825,-0.94099c-1.65611,-0.19884 -3.68302,-0.69936 -4.29552,-1.80908c-0.37316,-0.67607 0.22601,-1.5412 0.85066,-2.21945c-0.98778,-0.10402 -1.99608,-0.24863 -2.88827,-0.56903c-0.11758,0.04857 -0.24644,0.07537 -0.38156,0.07537h-1.03123v-0.1139c-0.07658,0.02905 -0.15317,0.0581 -0.22975,0.08715l-0.17623,-0.16129l-0.04124,0.08247l-0.83469,-0.41735c-2.45685,-0.62025 -4.50022,-1.61001 -6.85847,-2.65697c0,0 -0.38558,-0.17137 -0.5445,-0.54194c-0.21434,-0.06279 -0.42763,-0.12672 -0.63977,-0.19179c-1.57264,-0.48233 -3.1691,-1.41965 -4.60908,-2.2116c-0.35298,-0.19413 -0.73094,-0.3514 -1.08425,-0.54527c-0.11414,0.42669 -0.50343,0.74091 -0.96611,0.74091c-0.22876,0 -0.43959,-0.07682 -0.60808,-0.20606l-1.02315,-0.76736l0.03156,-0.04207l-0.13866,-0.05082c-1.45951,-1.92234 -2.42057,-3.77929 -3.09031,-6.10416c0,0 -0.0303,-0.10603 -0.03555,-0.25774l-0.72503,-0.9898c-1.4805,-4.4682 -3.13505,-9.53675 -3.14501,-14.23787c0,0 0,-1 1,-1c0.41828,0 0.6616,0.17496 0.80314,0.37851c0.05148,-0.02552 0.10789,-0.04879 0.16967,-0.06938l-0.00003,-0.00001c0.64735,-0.21578 1.00021,0.15741 1.15906,0.41625c0.11934,-0.41876 0.50477,-0.72538 0.96182,-0.72538c0.37064,0 0.69419,0.20165 0.86692,0.50122l0.22796,0.37993c0.13574,-0.0689 0.28932,-0.10773 0.45197,-0.10773c0.18863,0 0.36506,0.05223 0.51562,0.14301c0.08864,-0.05345 0.18626,-0.09353 0.29005,-0.11746c-0.05537,-0.14496 -0.11448,-0.29035 -0.17796,-0.43628c0,0 -0.39392,-0.91915 0.52523,-1.31306c0.91915,-0.39392 1.31306,0.52523 1.31306,0.52523c0.80503,1.90291 0.99366,3.69976 1.6155,5.65216l-0.78673,2.16654c-0.53617,-0.6768 -1.06153,-1.37322 -1.53351,-2.10081c-0.18247,0.19483 -0.44203,0.31657 -0.73002,0.31657c-0.44984,0 -0.83031,-0.29702 -0.95598,-0.70565l-0.10871,-0.32613c-0.31619,-0.01039 -0.59525,-0.16758 -0.7712,-0.4056v0.43738c0,0.55228 -0.44772,1 -1,1c-0.33133,0 -0.62502,-0.16113 -0.80698,-0.40931l-0.76644,-1.02192l0.25715,-0.19286c-0.13365,-0.16866 -0.2591,-0.34277 -0.37442,-0.52218c0.23113,2.02267 0.71633,4.09323 1.2966,6.11496l0.17549,-1.22843c0.06234,-0.49238 0.48272,-0.87313 0.99203,-0.87313c0.55228,0 1,0.44772 1,1v1.99205c0,0.1648 -0.00038,0.32588 -0.00127,0.48368c0.01283,0.00709 0.02548,0.01445 0.03795,0.02208c0.01558,-0.14995 0.02579,-0.2961 0.02579,-0.43535v-1.28904c0,-0.14605 0.03131,-0.2848 0.08759,-0.40988l-0.07398,-0.01233l0.25511,-1.53063c0.0716,-0.48201 0.48716,-0.85182 0.9891,-0.85182c0.49945,0 0.91338,0.36615 0.98801,0.84466l0.3355,1.92073l-0.01238,0.00216l0.01875,0.03946c0.06265,0.70471 0.03746,1.41524 -0.04711,2.12258h0.23285v2c0,0.19088 -0.05348,0.36928 -0.14628,0.52101l0.04071,0.1832l-0.20874,0.04639c0.58085,1.27988 1.17793,2.63557 1.408,3.23096c0,-0.28966 0,-0.63006 0,-0.63006c0,-0.55228 0.44772,-1 1,-1c0.27614,0 0.52614,0.11193 0.70711,0.29289l0.77342,0.77342l-0.23072,0.23072c0.5189,0.49991 0.97624,1.06584 1.35358,1.66672c0.40424,0.64372 1.13922,1.019 1.60592,1.61898c0.13066,0.16797 -0.00641,0.81724 0.09665,0.63106c0.1533,-0.27692 -0.21919,-0.83715 0.07789,-0.94636c0.6134,-0.22549 1.33442,-0.01789 1.95028,0.20079c1.73559,0.61628 3.25408,1.89313 5.10444,2.46284c1.30424,0.40157 2.64649,0.68273 4.00366,0.89538c-0.12094,-0.24768 -0.19488,-0.56931 -0.19645,-0.9849c-0.00276,-0.72837 1.1982,-1.41913 2.35003,-1.80747c-0.79127,-0.14774 -1.6548,-0.20946 -2.03309,-0.84881c-0.37049,-0.62617 0.44906,-1.43864 0.95251,-1.96389c0.74243,-0.7746 1.80365,-1.47753 2.91961,-1.85875c-0.34441,-0.15794 -0.58362,-0.50576 -0.58362,-0.90946c0,-0.34403 0.17373,-0.64749 0.43824,-0.82742l0.92704,-0.64855l0.02682,0.03834l0.09701,-0.11228c0.50833,-0.17131 1.27592,-0.56459 2.01764,-0.77591c-0.24203,-0.21417 -0.41443,-0.45623 -0.41306,-0.76788c0.00561,-1.28273 1.72172,-2.04404 2.956,-1.91232l-0.34153,-0.14064c0.09268,-0.16914 0.31694,-0.35449 0.44055,-0.52743l-1.24603,-0.31151c-0.44532,-0.10106 -0.77776,-0.49931 -0.77776,-0.97522c0,-0.3992 0.23392,-0.74377 0.57216,-0.90412l0.90166,-0.45083c0.48373,-0.4984 0.81409,-0.87473 1.18423,-1.14575l-1.3959,-0.39883c-0.42955,-0.11221 -0.74654,-0.50289 -0.74654,-0.9676c0,-0.3992 0.23392,-0.74377 0.57216,-0.90412l0.47338,-0.23669c-0.01431,-0.08928 -0.01431,-0.14823 -0.01431,-0.14823zM145.0305,216.62546c-0.08377,-0.09271 -0.15041,-0.20118 -0.19494,-0.32044l-0.10894,-0.27235c-0.02646,0.17614 -0.05572,0.35362 -0.08806,0.53346c0.17881,0.08103 0.3056,0.21567 0.39193,0.34239z" fill="#ce1bff" stroke="none" stroke-width="0.5" stroke-linecap="butt"></path><path d="M155.20652,212.08871c0.16208,0.31917 0.33588,0.62778 0.52269,0.93664c0.20646,-0.28004 0.46163,-0.54542 0.63832,-0.83443l0.20042,-0.47271c-0.09668,0.07168 -0.18901,0.13736 -0.27646,0.19583zM154.4443,210.22094c0.14668,-0.06086 0.26229,-0.07708 0.26229,-0.07708l0.85937,-0.09357c1.49203,-1.07002 4.39533,-3.97737 6.27212,-4.02348c2.27257,-0.05584 4.17544,3.8222 3.52646,5.60488c-0.31384,0.8621 -1.43959,1.29564 -1.67824,2.18151c-0.27271,1.01228 -0.14741,2.51923 -1.5011,3.00257c-1.24469,0.44442 -2.2098,-1.85987 -3.28295,-1.93875c-0.45919,-0.03375 -0.9508,0.54556 -1.35307,0.45722l0.07911,0.56381v0c0.03556,0.25344 -0.02556,0.52045 -0.1918,0.74095c-0.03078,0.04083 -0.06408,0.07862 -0.09953,0.11335l0.02598,0.0613c0,0 0.3572,0.93403 -0.57683,1.29123c-0.93403,0.3572 -1.29123,-0.57683 -1.29123,-0.57683l-0.11679,-0.39709c-1.28398,-1.79124 -2.46053,-3.48399 -3.43926,-5.45368c0,0 -0.44498,-0.89554 0.45055,-1.34052c0.02336,-0.01161 0.04641,-0.0223 0.06915,-0.03212c0.01744,-0.29776 0.15467,-0.67937 0.69676,-0.84976c0.95398,-0.29987 1.25385,0.65411 1.25385,0.65411c0.01163,0.0376 0.02334,0.07493 0.03513,0.11198z" fill="#ce1bff" stroke="none" stroke-width="0.5" stroke-linecap="butt"></path></g></g></svg>