<svg version="1.1" xmlns="http://www.w3.org/2000/svg" xmlns:xlink="http://www.w3.org/1999/xlink" width="27.59819" height="42.14722" viewBox="0,0,27.59819,42.14722"><defs><linearGradient x1="232.5616" y1="184.91759" x2="252.37578" y2="179.52196" gradientUnits="userSpaceOnUse" id="color-1"><stop offset="0" stop-color="#eccdff"></stop><stop offset="1" stop-color="#b1b9ff"></stop></linearGradient></defs><g transform="translate(-227.89445,-160.0478)"><g data-paper-data="{&quot;isPaintingLayer&quot;:true}" fill-rule="nonzero" stroke-linejoin="miter" stroke-miterlimit="10" stroke-dasharray="" stroke-dashoffset="0" style="mix-blend-mode: normal"><path d="M229.67932,191.80468c-1.62279,-6.89508 -2.90653,-29.54088 3.98854,-31.16368c6.89508,-1.62279 19.35798,18.39191 20.98077,25.287c1.62279,6.89508 -2.65121,13.80021 -9.54632,15.42301c-6.89508,1.62279 -13.80021,-2.65121 -15.42301,-9.54632z" fill="#eccdff" stroke="#b000ff" stroke-width="1" stroke-linecap="butt"></path><path d="" data-paper-data="{&quot;index&quot;:null}" fill="none" stroke="#000000" stroke-width="1.5" stroke-linecap="round"></path><path d="M234.22438,190.99981c-1.29922,-5.52021 -2.32699,-23.65037 3.19321,-24.94957c5.52021,-1.29922 15.49794,14.72451 16.79714,20.24473c1.29922,5.52021 -2.12257,11.04839 -7.64274,12.34761c-5.52021,1.29922 -11.04839,-2.12257 -12.34761,-7.64274z" fill="url(#color-1)" stroke="none" stroke-width="NaN" stroke-linecap="butt"></path></g></g></svg>