<svg version="1.1" xmlns="http://www.w3.org/2000/svg" xmlns:xlink="http://www.w3.org/1999/xlink" width="196.33558" height="80.5" viewBox="0,0,196.33558,80.5"><g transform="translate(-83.91444,-139.75)"><g data-paper-data="{&quot;isPaintingLayer&quot;:true}" fill-rule="nonzero" stroke-linejoin="miter" stroke-miterlimit="10" stroke-dasharray="" stroke-dashoffset="0" style="mix-blend-mode: normal"><g stroke-linecap="butt"><path d="M210.35859,213.93125l-20.7455,-29.72407l15.37452,-10.73042l20.74551,29.72406z" fill="#454545" stroke="#000000" stroke-width="1"></path><path d="M206.35209,195.22887c-1.17646,-0.83065 -1.19671,-1.86051 -1.00243,-2.5844c-1.67692,-0.31874 -3.27549,-0.87826 -4.58999,-1.78107c-3.15571,-2.16735 -4.72625,-6.2735 -6.30038,-9.53761c0,0 -1.08379,-2.25286 1.16906,-3.33666c2.25286,-1.08379 3.33666,1.16906 3.33666,1.16906c2.23455,4.65701 3.54049,8.33829 9.14293,8.75272c0.1514,0.0112 0.30294,0.02045 0.45461,0.02788c0.1764,-0.20019 0.35848,-0.39612 0.54789,-0.58726c0.36055,-0.67744 0.74756,-1.32282 1.14933,-1.92562c1.99238,-2.98929 5.11288,-7.78288 10.04222,-6.00629c1.73344,0.62475 2.1415,3.22246 2.21753,5.06348c0.01167,0.28249 -0.01089,0.56693 -0.06324,0.85142c2.0768,1.88258 2.74154,5.05489 0.95499,8.09467c-1.925,3.27538 -6.79036,4.00324 -10.03667,4.208l-1.36667,-0.14361c0.0505,0.12915 0.10609,0.25762 0.16697,0.3853c0.30424,0.63812 2.65153,3.94926 3.05426,4.52604c0.50645,0.72565 1.01291,1.4513 1.51937,2.17694c0.60027,-0.16777 1.35282,-0.11713 2.16092,0.5592c1.91715,1.60454 0.31261,3.52169 0.31261,3.52169l-4.99057,1.049c-1.03415,-1.48173 -2.06831,-2.96347 -3.10247,-4.4452c-0.78128,-1.11991 -3.11292,-4.37537 -3.55764,-5.43635c-0.57532,-1.37253 -0.80693,-2.84397 -0.77989,-4.33809c-0.14301,-0.07046 -0.28958,-0.15748 -0.43939,-0.26325zM219.2469,190.66188c0.19938,-0.21151 0.306,-0.53606 0.30186,-0.85655c-1.10704,1.02141 -2.3108,1.83527 -3.2071,2.27402c-0.3716,0.18192 -0.76171,0.31359 -1.1631,0.41201c1.49925,-0.20543 2.98535,-0.68063 4.06833,-1.82949z" fill="#ff0000" stroke="none" stroke-width="0.5"></path></g><path d="M187.76442,201.50892c0,-5.25842 4.2628,-9.52122 9.52122,-9.52122c5.25842,0 9.52122,4.2628 9.52122,9.52122c0,5.25842 -4.2628,9.52122 -9.52122,9.52122c-5.25842,0 -9.52122,-4.2628 -9.52122,-9.52122z" fill="#e6e6e6" stroke="#000000" stroke-width="1" stroke-linecap="butt"></path><path d="M181.56064,179.35502c0,-5.25842 4.2628,-9.52122 9.52122,-9.52122c5.25842,0 9.52122,4.2628 9.52122,9.52122c0,5.25842 -4.2628,9.52122 -9.52122,9.52122c-5.25842,0 -9.52122,-4.2628 -9.52122,-9.52122z" fill="#e6e6e6" stroke="#000000" stroke-width="1" stroke-linecap="butt"></path><g stroke-linecap="butt"><path d="M197.06349,193.32327l-10.9951,-34.53989l17.86546,-5.68712l10.9951,34.53989z" fill="#454545" stroke="#000000" stroke-width="1"></path><path d="M198.78481,174.27417c-0.87713,-1.14223 -0.59099,-2.13174 -0.19073,-2.76544c-1.5069,-0.8018 -2.86756,-1.81032 -3.85512,-3.0624c-2.37081,-3.00586 -2.6527,-7.39306 -3.18778,-10.9772c0,0 -0.36677,-2.47295 2.10617,-2.83972c2.47295,-0.36677 2.83972,2.10617 2.83972,2.10617c0.75263,5.11024 0.90784,9.01321 6.13522,11.07079c0.14126,0.0556 0.28325,0.10939 0.42588,0.16147c0.22784,-0.13885 0.45984,-0.27195 0.69742,-0.39832c0.54527,-0.54001 1.1063,-1.04155 1.66879,-1.49804c2.7894,-2.26378 7.19134,-5.91603 11.37186,-2.75726c1.47012,1.11081 1.08928,3.71265 0.61581,5.49337c-0.07265,0.27324 -0.17857,0.53818 -0.31294,0.79434c1.42492,2.41387 1.11878,5.64059 -1.48904,8.01364c-2.80991,2.55698 -7.67221,1.80892 -10.83315,1.04154l-1.26257,-0.54252c0.00992,0.13832 0.02491,0.27749 0.04517,0.41748c0.10127,0.69965 1.36076,4.55803 1.57429,5.22831c0.26842,0.84321 0.53684,1.68643 0.80526,2.52964c0.62301,0.01784 1.32668,0.28941 1.8978,1.17501c1.35493,2.10099 -0.74606,3.45592 -0.74606,3.45592l-5.07713,-0.47851c-0.5481,-1.72179 -1.0962,-3.4436 -1.64431,-5.1654c-0.41393,-1.30126 -1.675,-5.10181 -1.785,-6.24696c-0.1423,-1.48141 0.07297,-2.95532 0.54197,-4.37418c-0.11567,-0.10971 -0.22984,-0.23629 -0.34154,-0.38173zM212.45395,173.73757c0.25315,-0.14285 0.45124,-0.42116 0.54235,-0.72846c-1.36019,0.64707 -2.75119,1.06724 -3.73729,1.22038c-0.40883,0.06351 -0.82044,0.07354 -1.23297,0.04847c1.49272,0.24853 3.05288,0.23552 4.42791,-0.54041z" fill="#ff0000" stroke="none" stroke-width="0.5"></path></g><path d="" data-paper-data="{&quot;index&quot;:null}" fill="none" stroke="#000000" stroke-width="1.5" stroke-linecap="round"></path><path d="" data-paper-data="{&quot;index&quot;:null}" fill="none" stroke="#000000" stroke-width="1.5" stroke-linecap="round"></path><path d="M200.50002,180c0,-21.81525 17.68475,-39.5 39.5,-39.5c21.81525,0 39.5,17.68475 39.5,39.5c0,21.81525 -17.68475,39.5 -39.5,39.5c-21.81525,0 -39.5,-17.68475 -39.5,-39.5z" fill="#6e6e6e" stroke="#000000" stroke-width="1.5" stroke-linecap="butt"></path><path d="M200.35573,181.6599c0,0 0.21836,-3.48635 0.21836,-5.83045c0,-2.68059 2.28148,-9.37942 2.28148,-9.37942c0,0 25.76053,3.29547 38.0247,3.29547c12.45976,0 36.15636,-3.29547 36.15636,-3.29547c0,0 0.32325,0.8142 0.73295,2.06366c1.27619,3.89191 3.39127,12.00691 -0.81086,12.89272c-2.60416,0.54896 -18.81959,2.66663 -35.57172,2.60715c-18.95763,-0.06731 -38.53144,-2.35365 -38.53144,-2.35365z" fill="#d0d0d0" stroke="#000000" stroke-width="0" stroke-linecap="butt"></path><path d="M235.39592,179.60722l-13.87412,-12.6255" fill="none" stroke="#000000" stroke-width="1.5" stroke-linecap="round"></path><path d="M228.71236,178.36443l0.2535,-3.54897" fill="none" stroke="#000000" stroke-width="1.5" stroke-linecap="round"></path><path d="M258.3434,168.56564l-12.11149,9.20415" fill="none" stroke="#000000" stroke-width="1.5" stroke-linecap="round"></path><path d="M251.52718,179.12492v-5.06996" fill="none" stroke="#000000" stroke-width="1.5" stroke-linecap="round"></path><path d="M83.91444,165.95892z" fill="#e6e6e6" stroke="#000000" stroke-width="1" stroke-linecap="butt"></path></g></g></svg>