<svg version="1.1" xmlns="http://www.w3.org/2000/svg" xmlns:xlink="http://www.w3.org/1999/xlink" width="113.54321" height="84.2613" viewBox="0,0,113.54321,84.2613"><g transform="translate(-194.17091,-135.9887)"><g data-paper-data="{&quot;isPaintingLayer&quot;:true}" fill-rule="nonzero" stroke-linejoin="miter" stroke-miterlimit="10" stroke-dasharray="" stroke-dashoffset="0" style="mix-blend-mode: normal"><g data-paper-data="{&quot;index&quot;:null}" stroke="#000000"><path d="M204.87635,165.5428c-1.83707,-0.82999 -5.36055,-0.69926 -7.42027,-2.3649c-2.44296,-1.97556 -3.28517,-5.70906 -3.28517,-5.70906l0.0514,-4.01489c0,0 3.36676,3.98215 6.83003,5.78356c2.98087,1.5505 6.01789,0.96062 7.21988,0.93333c4.53252,-0.1029 13.43998,-2.3418 13.43998,-2.3418l0.30291,10.35036c0,0 -12.05286,-0.33876 -17.13877,-2.63659z" fill="#b058be" stroke-width="0" stroke-linecap="butt"></path><path d="M216.18178,167.75992c0,0 -2.05768,-4.36815 -2.10239,-5.8958c-0.03427,-1.17072 1.85704,-2.48763 1.85704,-2.48763" fill="none" stroke-width="0.5" stroke-linecap="round"></path><path d="M212.04689,166.95796c0,0 -1.94155,-3.26723 -1.97684,-4.47308c-0.02882,-0.98457 1.78056,-2.23367 1.78056,-2.23367" fill="none" stroke-width="0.5" stroke-linecap="round"></path><path d="M207.15754,166.17809c0,0 -1.67829,-3.01317 -1.64763,-4.08301c0.02022,-0.70555 1.81367,-1.71138 1.81367,-1.71138" fill="none" stroke-width="0.5" stroke-linecap="round"></path><path d="M203.16825,164.61672c0,0 -1.36894,-2.21556 -1.37605,-2.98263c-0.00532,-0.57462 1.33721,-1.21153 1.33721,-1.21153" fill="none" stroke-width="0.5" stroke-linecap="round"></path><path d="M199.60303,163.21075c0,0 -1.26688,-2.33326 -1.29902,-2.98522c-0.03621,-0.73458 1.09251,-1.20404 1.09251,-1.20404" fill="none" stroke-width="0.5" stroke-linecap="round"></path><path d="M194.921,159.18823c0,0 0.79732,-2.01018 1.18814,-2.37063c0.44035,-0.40615 1.32313,0.05442 1.32313,0.05442" fill="none" stroke-width="0.5" stroke-linecap="round"></path></g><path d="" data-paper-data="{&quot;index&quot;:null}" fill="none" stroke="#000000" stroke-width="1.5" stroke-linecap="round"></path><path d="" data-paper-data="{&quot;index&quot;:null}" fill="none" stroke="#000000" stroke-width="1.5" stroke-linecap="round"></path><path d="" data-paper-data="{&quot;index&quot;:null}" fill="none" stroke="#000000" stroke-width="1.5" stroke-linecap="round"></path><path d="" data-paper-data="{&quot;index&quot;:null}" fill="none" stroke="#000000" stroke-width="1.5" stroke-linecap="round"></path><path d="" data-paper-data="{&quot;index&quot;:null}" fill="none" stroke="#000000" stroke-width="1.5" stroke-linecap="round"></path><path d="M289.92393,195.47556" data-paper-data="{&quot;index&quot;:null}" fill="none" stroke="#d8d8d8" stroke-width="4" stroke-linecap="round"></path><path d="M240.00004,219.5c-21.81525,0 -39.5,-17.68475 -39.5,-39.5c0,-21.81525 17.68475,-39.5 39.5,-39.5c21.81525,0 39.5,17.68475 39.5,39.5c0,21.81525 -17.68475,39.5 -39.5,39.5z" fill="#d8d8d8" stroke="#000000" stroke-width="1.5" stroke-linecap="butt"></path><path d="M228.9321,167.12465c0,4.00803 -1.24316,7.25718 -2.77666,7.25718c-1.5335,0 -2.77666,-3.24915 -2.77666,-7.25718c0,-4.00803 -0.37863,-7.00476 -0.37863,-7.00476c0,0 4.21336,0.55153 5.46913,3.69379c0.21243,0.53156 0.46283,2.73105 0.46283,3.31097z" fill="#ff6666" stroke="#000000" stroke-width="0" stroke-linecap="butt"></path><path d="M240.5793,164.90112c1.25577,-3.14226 5.46913,-3.69378 5.46913,-3.69378c0,0 -0.37864,2.99672 -0.37864,7.00475c0,4.00803 -1.24316,7.25718 -2.77666,7.25718c-1.5335,0 -2.77666,-3.24915 -2.77666,-7.25718c0,-0.57991 0.25039,-2.77941 0.46283,-3.31097z" data-paper-data="{&quot;index&quot;:null}" fill="#ff6666" stroke="#000000" stroke-width="0" stroke-linecap="butt"></path><path d="M219.81967,184.61827l33.69856,3.15529" fill="none" stroke="#000000" stroke-width="0.5" stroke-linecap="round"></path><path d="M231.10795,185.75843l-6.21783,9.11743l-2.74141,-9.94892z" fill="#ffffff" stroke="#000000" stroke-width="0.5" stroke-linecap="round"></path><path d="M252.22342,187.89609l-5.57718,8.178l-2.45893,-8.92381z" fill="#ffffff" stroke="#000000" stroke-width="0.5" stroke-linecap="round"></path><g stroke="#000000"><path d="M257.19908,171.00453l0.30292,-10.35036c0,0 8.90747,2.2389 13.43998,2.3418c1.202,0.02729 4.239,0.61718 7.21988,-0.93333c3.46326,-1.80141 6.83004,-5.78356 6.83004,-5.78356l0.0514,4.01489c0,0 -0.8422,3.7335 -3.28517,5.70906c-2.05972,1.66565 -5.5832,1.5349 -7.42027,2.3649c-5.08591,2.29782 -17.13878,2.63659 -17.13878,2.63659z" fill="#b058be" stroke-width="0" stroke-linecap="butt"></path><path d="M263.27779,162.20162c0,0 1.89131,1.31691 1.85704,2.48763c-0.04471,1.52764 -2.10239,5.8958 -2.10239,5.8958" fill="none" stroke-width="0.5" stroke-linecap="round"></path><path d="M267.36359,163.07635c0,0 1.80938,1.2491 1.78056,2.23367c-0.03529,1.20585 -1.97684,4.47307 -1.97684,4.47307" fill="none" stroke-width="0.5" stroke-linecap="round"></path><path d="M271.89063,163.20884c0,0 1.79345,1.00583 1.81367,1.71138c0.03066,1.06984 -1.64763,4.083 -1.64763,4.083" fill="none" stroke-width="0.5" stroke-linecap="round"></path><path d="M276.08477,163.24768c0,0 1.34252,0.63692 1.3372,1.21154c-0.00711,0.76707 -1.37604,2.98263 -1.37604,2.98263" fill="none" stroke-width="0.5" stroke-linecap="round"></path><path d="M279.81766,161.84662c0,0 1.12872,0.46946 1.09251,1.20404c-0.03214,0.65196 -1.29902,2.98522 -1.29902,2.98522" fill="none" stroke-width="0.5" stroke-linecap="round"></path><path d="M281.78193,159.69716c0,0 0.88277,-0.46058 1.32313,-0.05443c0.39082,0.36046 1.18814,2.37064 1.18814,2.37064" fill="none" stroke-width="0.5" stroke-linecap="round"></path></g><g stroke-linecap="butt"><path d="M301.61964,168.91131c-1.37205,1.54665 -1.81071,-0.68541 -1.81071,-0.68541l-0.45969,-2.51248c-0.31712,-5.1402 -0.806,-10.19986 -1.29185,-15.20036c-0.28073,-2.88933 -1.25923,-5.23391 -1.17897,-8.36049c0.04907,-1.91257 0.12092,-4.49447 1.03566,-5.91667c0.57865,-0.89964 3.62103,0.92185 4.23002,1.23973c0,0 1.23727,0.64835 0.49963,3.28535c-0.73763,2.637 -1.97492,1.98865 -1.97492,1.98865c-0.13612,-0.0716 -0.30626,-0.16146 -0.48671,-0.26871c0.10074,0.72297 0.18112,1.45581 0.25506,1.96398c0.87636,6.02479 1.37693,12.68915 1.77644,19.13387l0.33946,1.55384c0,0 0.43864,2.23205 -0.93339,3.77868z" fill="#592c60" stroke="none" stroke-width="0.5"></path><path d="M296.32578,170.27065c-1.37205,1.54665 -1.81071,-0.68541 -1.81071,-0.68541l-0.45969,-2.51248c-0.31712,-5.1402 -0.806,-10.19986 -1.29185,-15.20036c-0.28073,-2.88933 -1.25923,-5.23391 -1.17897,-8.36049c0.04907,-1.91257 0.12092,-4.49447 1.03566,-5.91667c0.57865,-0.89964 3.62103,0.92185 4.23002,1.23973c0,0 1.23727,0.64835 0.49963,3.28535c-0.73763,2.637 -1.97492,1.98865 -1.97492,1.98865c-0.13612,-0.0716 -0.30626,-0.16146 -0.48671,-0.26871c0.10074,0.72297 0.18112,1.45581 0.25506,1.96398c0.87636,6.02479 1.37693,12.68915 1.77644,19.13387l0.33946,1.55384c0,0 0.43864,2.23205 -0.93339,3.77868z" fill="#7c3d86" stroke="none" stroke-width="0.5"></path><path d="M292.44896,172.8664c-1.37205,1.54665 -1.81071,-0.68541 -1.81071,-0.68541l-0.45969,-2.51248c-0.31712,-5.1402 -0.806,-10.19986 -1.29185,-15.20036c-0.28073,-2.88933 -1.25923,-5.23391 -1.17897,-8.36049c0.04908,-1.91258 0.12092,-4.49446 1.03567,-5.91663c0.57865,-0.89964 3.62102,0.92183 4.23001,1.23973c0,0 1.23727,0.64835 0.49963,3.28535c-0.73763,2.637 -1.97492,1.98865 -1.97492,1.98865c-0.13612,-0.0716 -0.30625,-0.16146 -0.4867,-0.26873c0.10074,0.72299 0.18114,1.45581 0.25504,1.96397c0.87636,6.02479 1.37693,12.68915 1.77644,19.13387l0.33946,1.55384c0,0 0.43866,2.23204 -0.93339,3.77868z" fill="#b058be" stroke="none" stroke-width="0.5"></path><path d="M294.54485,197.56771c-5.10051,-0.14431 -7.90711,-8.44749 -6.26872,-18.54571c1.6384,-10.09821 7.10138,-18.16746 12.20189,-18.02316c5.10051,0.14431 7.90711,8.44749 6.26872,18.54571c-1.6384,10.09821 -7.10138,18.16746 -12.20189,18.02316z" fill="#d8d8d8" stroke="#000000" stroke-width="1"></path></g></g></g></svg>