<svg version="1.1" xmlns="http://www.w3.org/2000/svg" xmlns:xlink="http://www.w3.org/1999/xlink" width="196.33558" height="96.12923" viewBox="0,0,196.33558,96.12923"><g transform="translate(-83.91444,-124.12078)"><g data-paper-data="{&quot;isPaintingLayer&quot;:true}" fill-rule="nonzero" stroke-linejoin="miter" stroke-miterlimit="10" stroke-dasharray="" stroke-dashoffset="0" style="mix-blend-mode: normal"><path d="M187.59447,135.85966c3.77975,-3.65575 9.80742,-3.55523 13.46317,0.22451c3.65575,3.77975 3.55523,9.80742 -0.22451,13.46317c-3.77975,3.65575 -9.80742,3.55523 -13.46317,-0.22451c-3.65575,-3.77975 -3.55523,-9.80742 0.22451,-13.46317z" fill="#e6e6e6" stroke="#000000" stroke-width="1" stroke-linecap="butt"></path><g stroke-linecap="butt"><path d="M188.33196,156.71407l17.18324,-31.91602l16.50828,8.88788l-17.18324,31.91602z" fill="#454545" stroke="#000000" stroke-width="1"></path><path d="M203.22113,144.70806c0.21123,-1.42458 1.12142,-1.90683 1.85519,-2.05968c-0.47129,-1.64058 -0.69233,-3.31977 -0.4789,-4.90009c0.51238,-3.79387 3.46992,-7.04655 5.6742,-9.92293c0,0 1.52257,-1.98287 3.50544,-0.46031c1.98287,1.52257 0.46031,3.50544 0.46031,3.50544c-3.14999,4.09372 -5.84753,6.91871 -3.69235,12.10661c0.05824,0.14019 0.11829,0.27965 0.18001,0.41838c0.25821,0.06724 0.51516,0.14147 0.77117,0.22439c0.76724,0.01652 1.51778,0.07111 2.23697,0.15806c3.56644,0.4312 9.25199,1.0562 9.88784,6.25718c0.2236,1.82897 -1.91136,3.36407 -3.5205,4.26173c-0.24692,0.13774 -0.51099,0.2458 -0.78854,0.3273c-0.74446,2.7024 -3.27665,4.72562 -6.7954,4.50091c-3.79146,-0.2421 -6.6341,-4.25718 -8.28006,-7.06276l-0.4878,-1.28471c-0.09253,0.1033 -0.18214,0.21082 -0.26868,0.3227c-0.4325,0.5592 -2.33028,4.14694 -2.66363,4.76642c-0.41948,0.77915 -0.83898,1.55831 -1.25847,2.33747c0.42031,0.46023 0.71431,1.15482 0.47479,2.18103c-0.56821,2.43457 -3.00278,1.86636 -3.00278,1.86636l-3.18576,-3.98211c0.85657,-1.591 1.71316,-3.182 2.56973,-4.77301c0.64757,-1.20219 2.50268,-4.75086 3.24935,-5.62606c0.96591,-1.13219 2.17501,-2.00214 3.52094,-2.65144c-0.00156,-0.15941 0.01005,-0.32948 0.03694,-0.51088zM213.10988,154.16037c0.27868,0.08265 0.61644,0.03155 0.90067,-0.1166c-1.41075,-0.52785 -2.67981,-1.23559 -3.47544,-1.83793c-0.32987,-0.24971 -0.62325,-0.5386 -0.89203,-0.85256c0.85912,1.24574 1.95313,2.35814 3.46681,2.80707z" fill="#ff0000" stroke="none" stroke-width="0.5"></path></g><path d="" data-paper-data="{&quot;index&quot;:null}" fill="none" stroke="#000000" stroke-width="1.5" stroke-linecap="round"></path><path d="" data-paper-data="{&quot;index&quot;:null}" fill="none" stroke="#000000" stroke-width="1.5" stroke-linecap="round"></path><path d="M200.50002,180c0,-21.81525 17.68475,-39.5 39.5,-39.5c21.81525,0 39.5,17.68475 39.5,39.5c0,21.81525 -17.68475,39.5 -39.5,39.5c-21.81525,0 -39.5,-17.68475 -39.5,-39.5z" fill="#6e6e6e" stroke="#000000" stroke-width="1.5" stroke-linecap="butt"></path><path d="M200.35573,181.6599c0,0 0.21836,-3.48635 0.21836,-5.83045c0,-2.68059 2.28148,-9.37942 2.28148,-9.37942c0,0 25.76053,3.29547 38.0247,3.29547c12.45976,0 36.15636,-3.29547 36.15636,-3.29547c0,0 0.32325,0.8142 0.73295,2.06366c1.27619,3.89191 3.39127,12.00691 -0.81086,12.89272c-2.60416,0.54896 -18.81959,2.66663 -35.57172,2.60715c-18.95763,-0.06731 -38.53144,-2.35365 -38.53144,-2.35365z" fill="#d0d0d0" stroke="#000000" stroke-width="0" stroke-linecap="butt"></path><path d="M235.39592,179.60722l-13.87412,-12.6255" fill="none" stroke="#000000" stroke-width="1.5" stroke-linecap="round"></path><path d="M228.96586,174.81546l-0.2535,3.54897" fill="none" stroke="#000000" stroke-width="1.5" stroke-linecap="round"></path><path d="M258.3434,168.56564l-12.11149,9.20415" fill="none" stroke="#000000" stroke-width="1.5" stroke-linecap="round"></path><path d="M251.52718,174.05496v5.06996" fill="none" stroke="#000000" stroke-width="1.5" stroke-linecap="round"></path><path d="M83.91444,165.95892z" fill="#e6e6e6" stroke="#000000" stroke-width="1" stroke-linecap="butt"></path></g></g></svg>