<svg version="1.1" xmlns="http://www.w3.org/2000/svg" xmlns:xlink="http://www.w3.org/1999/xlink" width="192.31427" height="192.87443" viewBox="0,0,192.31427,192.87443"><g transform="translate(-200.95088,-140.3707)"><g data-paper-data="{&quot;isPaintingLayer&quot;:true}" fill-rule="nonzero" stroke-linejoin="miter" stroke-miterlimit="10" stroke-dasharray="" stroke-dashoffset="0" style="mix-blend-mode: normal"><path d="" data-paper-data="{&quot;index&quot;:null}" fill="none" stroke="#000000" stroke-width="1.5" stroke-linecap="round"></path><path d="M289.92393,195.47554" data-paper-data="{&quot;index&quot;:null}" fill="none" stroke="#d8d8d8" stroke-width="4" stroke-linecap="round"></path><path d="M241.20088,220.1207c-21.81525,0 -39.5,-17.68475 -39.5,-39.5c0,-21.81525 17.68475,-39.5 39.5,-39.5c21.81525,0 39.5,17.68475 39.5,39.5c0,21.81525 -17.68475,39.5 -39.5,39.5z" fill="#d8d8d8" stroke="#000000" stroke-width="1.5" stroke-linecap="butt"></path><path d="M240.39832,174.20032l-14.03116,-4.59202" fill="none" stroke="#000000" stroke-width="1.5" stroke-linecap="round"></path><path d="M231.5283,173.09156l0.25511,5.86758" fill="none" stroke="#000000" stroke-width="1.5" stroke-linecap="round"></path><path d="M251.36815,169.86341l-7.65337,3.82668" fill="none" stroke="#000000" stroke-width="1.5" stroke-linecap="round"></path><path d="M246.5034,173.05217l-0.21988,5.35892" fill="none" stroke="#000000" stroke-width="1.5" stroke-linecap="round"></path><path d="M229.62579,192.95291l25.16666,2.30233l-24.96157,-0.52657" fill="none" stroke="#000000" stroke-width="3" stroke-linecap="round"></path><g data-paper-data="{&quot;index&quot;:null}" stroke="#000000" stroke-linecap="butt"><path d="M292.2687,173.08847l-21.13079,4.39942c0,0 -3.99186,-1.36319 -4.27599,-2.42056c-0.2836,-1.05548 2.57277,-3.91797 2.57277,-3.91797l21.13079,-4.39942z" fill="#af5400" stroke-width="1.5"></path><path d="M292.67988,157.87612c0,0 2.0401,5.57774 3.62855,12.15331c0.85041,3.52028 2.85373,10.43623 2.85373,10.43623c0,0 -4.09914,2.07126 -5.52193,2.27883c-3.06208,0.44675 -6.83209,-4.52164 -8.42055,-11.09722c-0.857,-3.5474 -2.35641,-8.90129 -0.17973,-11.81789c1.85806,-2.48968 7.63992,-1.95329 7.63992,-1.95329z" fill="#989898" stroke-width="1"></path><path d="M292.79537,157.43481c3.06205,-0.44675 6.83205,4.52165 8.42053,11.09722c1.58846,6.57555 0.39385,12.26831 -2.66822,12.71507c-3.06206,0.44676 -6.83205,-4.52165 -8.42053,-11.09722c-1.58847,-6.57559 -0.39384,-12.26832 2.66822,-12.71509z" fill="#989898" stroke-width="1"></path><path d="M295.54843,172.64187c0,0 -2.37568,-1.71943 -2.663,-2.66206c-0.28072,-0.92085 0.95846,-2.93005 0.95846,-2.93005l83.37849,-19.56156l14.78349,2.52359l-96.45747,22.63005z" fill="#e6e6e6" stroke-width="0.5"></path></g><g data-paper-data="{&quot;index&quot;:null}" stroke="#000000" stroke-linecap="butt"><path d="M238.14347,229.77311l1.53017,-21.5296c0,0 2.40018,-3.46877 3.49496,-3.45376c1.09281,0.015 3.0678,3.54376 3.0678,3.54376l-1.53017,21.5296z" fill="#af5400" stroke-width="1.5"></path><path d="M252.66703,234.31744c0,0 -5.92268,0.4416 -12.6822,0.17653c-3.61876,-0.14188 -10.8189,-0.10063 -10.8189,-0.10063c0,0 -0.87482,-4.50863 -0.6865,-5.9341c0.40528,-3.06784 6.2135,-5.33996 12.97302,-5.0749c3.64665,0.14294 9.20651,0.16049 11.41893,3.05008c1.88857,2.46662 -0.20432,7.88302 -0.20432,7.88302z" fill="#989898" stroke-width="1"></path><path d="M253.06011,234.5489c-0.40527,3.06782 -6.21349,5.33992 -12.97302,5.07488c-6.7595,-0.26505 -11.91067,-2.96691 -11.5054,-6.03475c0.40526,-3.06783 6.21349,-5.33992 12.97302,-5.07488c6.75954,0.26505 11.91067,2.96692 11.50542,6.03475z" fill="#989898" stroke-width="1"></path><path d="M237.67869,233.05031c0,0 2.30215,-1.8167 3.28741,-1.83605c0.9625,-0.01894 2.55759,1.72122 2.55759,1.72122l-3.91907,85.55272l-6.4597,13.53486l4.53381,-98.97276z" fill="#e6e6e6" stroke-width="0.5"></path></g></g></g></svg>