<svg version="1.1" xmlns="http://www.w3.org/2000/svg" xmlns:xlink="http://www.w3.org/1999/xlink" width="81.98659" height="82.69431" viewBox="0,0,81.98659,82.69431"><defs><radialGradient cx="479.99999" cy="180" r="39.25" gradientUnits="userSpaceOnUse" id="color-1"><stop offset="0" stop-color="#ebebeb"/><stop offset="1" stop-color="#dbdbdb"/></radialGradient></defs><g transform="translate(-439.49677,-139.49677)"><g stroke-miterlimit="10"><path d="M440.71722,215.11013c0,-3.9107 3.26399,-7.08095 7.29033,-7.08095c4.02634,0 7.29034,3.17025 7.29034,7.08095c0,3.9107 -3.264,7.08095 -7.29034,7.08095c-4.02634,0 -7.29033,-3.17025 -7.29033,-7.08095z" fill-opacity="0.2" fill="#a3a3a3" stroke="none" stroke-width="0" stroke-linecap="butt"/><path d="" fill="none" stroke="#000000" stroke-width="1.5" stroke-linecap="round"/><path d="M447.94313,202.64772c-12.508,-17.70452 -8.29537,-42.19659 9.40915,-54.70459c17.70452,-12.508 42.19659,-8.29537 54.70459,9.40915c12.508,17.70452 8.29537,42.19659 -9.40915,54.70459c-17.70452,12.508 -42.19659,8.29537 -54.70459,-9.40915z" fill="url(#color-1)" stroke="#ffffff" stroke-width="2.5" stroke-linecap="butt"/><path d="M471.59666,169.34918c3.48066,6.27958 4.44224,12.40117 2.14778,13.67295c-2.29447,1.27177 -6.97612,-2.78786 -10.45676,-9.06744c-3.48066,-6.27958 -4.44224,-12.40117 -2.14778,-13.67295c2.29447,-1.27177 6.97612,2.78786 10.45676,9.06744z" fill="#ffffff" stroke="#000000" stroke-width="1.5" stroke-linecap="butt"/><path d="M486.08435,161.03761c3.48066,6.27958 4.44225,12.40118 2.14778,13.67296c-2.29447,1.27177 -6.97612,-2.78786 -10.45677,-9.06744c-3.48066,-6.27958 -4.44226,-12.40117 -2.14779,-13.67295c2.29447,-1.27177 6.97612,2.78785 10.45677,9.06743z" fill="#ffffff" stroke="#000000" stroke-width="1.5" stroke-linecap="butt"/><path d="M506.90271,156.22471c0,-3.9107 3.26399,-7.08095 7.29033,-7.08095c4.02634,0 7.29033,3.17025 7.29033,7.08095c0,3.9107 -3.26399,7.08095 -7.29033,7.08095c-4.02634,0 -7.29033,-3.17025 -7.29033,-7.08095z" fill-opacity="0.2" fill="#a3a3a3" stroke="none" stroke-width="0" stroke-linecap="butt"/></g></g></svg>