<svg version="1.1" xmlns="http://www.w3.org/2000/svg" xmlns:xlink="http://www.w3.org/1999/xlink" width="100.8624" height="80.5" viewBox="0,0,100.8624,80.5"><g transform="translate(-192.95347,-140.3707)"><g data-paper-data="{&quot;isPaintingLayer&quot;:true}" fill-rule="nonzero" stroke-linejoin="miter" stroke-miterlimit="10" stroke-dasharray="" stroke-dashoffset="0" style="mix-blend-mode: normal"><path d="" data-paper-data="{&quot;index&quot;:null}" fill="none" stroke="#000000" stroke-width="1.5" stroke-linecap="round"></path><path d="M289.92393,195.47554" data-paper-data="{&quot;index&quot;:null}" fill="none" stroke="#d8d8d8" stroke-width="4" stroke-linecap="round"></path><path d="M241.20088,220.1207c-21.81525,0 -39.5,-17.68475 -39.5,-39.5c0,-21.81525 17.68475,-39.5 39.5,-39.5c21.81525,0 39.5,17.68475 39.5,39.5c0,21.81525 -17.68475,39.5 -39.5,39.5z" fill="#d8d8d8" stroke="#000000" stroke-width="1.5" stroke-linecap="butt"></path><path d="M226.36716,169.6083l14.03116,4.59202" fill="none" stroke="#000000" stroke-width="1.5" stroke-linecap="round"></path><path d="M236.31653,173.69009l0.25511,5.86758" fill="none" stroke="#000000" stroke-width="1.5" stroke-linecap="round"></path><path d="M243.71478,173.69009l7.65337,-3.82668" fill="none" stroke="#000000" stroke-width="1.5" stroke-linecap="round"></path><path d="M246.28352,178.41109l0.21988,-5.35892" fill="none" stroke="#000000" stroke-width="1.5" stroke-linecap="round"></path><path d="M229.83088,194.72867l24.96157,0.52657l-24.8873,-4.2176z" fill="#000000" stroke="#000000" stroke-width="2" stroke-linecap="round"></path><g stroke="#000000" stroke-linecap="butt"><path d="M272.07486,172.0471l16.86031,-7.85074c0,0 3.6723,0.72749 4.1307,1.71195c0.45922,0.98622 -1.37785,4.2001 -1.37785,4.2001l-16.86031,7.85074z" fill="#af5400" stroke-width="1.5"></path><path d="M265.20667,166.18059c0,0 3.54431,-3.52072 6.31871,-2.55243c3.25014,1.13433 5.53462,6.16054 7.13977,9.41769c2.97536,6.03754 3.50173,11.97616 1.17568,13.26429c-1.08078,0.59852 -5.09965,1.16093 -5.09965,1.16093c0,0 -2.90652,-6.52826 -4.49939,-9.76051c-2.97536,-6.03754 -5.03511,-11.52997 -5.03511,-11.52997z" fill="#989898" stroke-width="1"></path><path d="M264.85819,165.89437c2.32605,-1.28813 6.62369,2.56204 9.59905,8.59958c2.97535,6.03754 3.50173,11.97616 1.17568,13.26428c-2.32605,1.28813 -6.6237,-2.56204 -9.59905,-8.59957c-2.97535,-6.03754 -3.50172,-11.97616 -1.17568,-13.26428z" fill="#989898" stroke-width="1"></path><path d="M272.35593,179.36398l-78.52875,33.82752l8.35458,-9.91076l67.88078,-29.24074c0,0 2.06455,0.92087 2.4422,1.79759c0.38659,0.89746 -0.14881,3.5264 -0.14881,3.5264z" fill="#e6e6e6" stroke-width="0.5"></path></g></g></g></svg>