<svg version="1.1" xmlns="http://www.w3.org/2000/svg" xmlns:xlink="http://www.w3.org/1999/xlink" width="104.42415" height="80.5" viewBox="0,0,104.42415,80.5"><defs><radialGradient cx="235.25407" cy="164.58718" r="23.07507" gradientUnits="userSpaceOnUse" id="color-1"><stop offset="0" stop-color="#bd50fb"></stop><stop offset="1" stop-color="#a200ff"></stop></radialGradient></defs><g transform="translate(-202.70677,-139.75)"><g data-paper-data="{&quot;isPaintingLayer&quot;:true}" fill-rule="nonzero" stroke-linejoin="miter" stroke-miterlimit="10" stroke-dasharray="" stroke-dashoffset="0" style="mix-blend-mode: normal"><path d="M212.17899,164.58718c0,-12.74401 10.33106,-23.07507 23.07507,-23.07507c12.74401,0 23.07507,10.33106 23.07507,23.07507c0,12.74401 -10.33106,23.07507 -23.07507,23.07507c-12.74401,0 -23.07507,-10.33106 -23.07507,-23.07507z" fill="url(#color-1)" stroke="none" stroke-width="NaN" stroke-linecap="butt"></path><path d="M203.33177,204.11245c0,-5.85589 4.74714,-10.60303 10.60303,-10.60303c5.85589,0 10.60303,4.74714 10.60303,10.60303c0,5.85589 -4.74714,10.60303 -10.60303,10.60303c-5.85589,0 -10.60303,-4.74714 -10.60303,-10.60303z" data-paper-data="{&quot;index&quot;:null}" fill="#d8d8d8" stroke="#000000" stroke-width="1.25" stroke-linecap="butt"></path><path d="" data-paper-data="{&quot;index&quot;:null}" fill="none" stroke="#000000" stroke-width="1.5" stroke-linecap="round"></path><path d="M227.38092,180c0,-21.81525 17.68475,-39.5 39.5,-39.5c21.81525,0 39.5,17.68475 39.5,39.5c0,21.81525 -17.68475,39.5 -39.5,39.5c-21.81525,0 -39.5,-17.68475 -39.5,-39.5z" data-paper-data="{&quot;index&quot;:null}" fill="#d8d8d8" stroke="#000000" stroke-width="1.5" stroke-linecap="butt"></path><path d="" data-paper-data="{&quot;index&quot;:null}" fill="none" stroke="#000000" stroke-width="1.5" stroke-linecap="round"></path><path d="" data-paper-data="{&quot;index&quot;:null}" fill="none" stroke="#000000" stroke-width="1.5" stroke-linecap="round"></path><path d="M238.3856,179.01412l-1.78529,-9.65943" data-paper-data="{&quot;index&quot;:null}" fill="none" stroke="#000000" stroke-width="1.5" stroke-linecap="round"></path></g></g></svg>