<svg version="1.1" xmlns="http://www.w3.org/2000/svg" xmlns:xlink="http://www.w3.org/1999/xlink" width="138.06946" height="80.75991" viewBox="0,0,138.06946,80.75991"><g transform="translate(-142.18053,-139.49009)"><g data-paper-data="{&quot;isPaintingLayer&quot;:true}" fill-rule="nonzero" stroke-linejoin="miter" stroke-miterlimit="10" stroke-dasharray="" stroke-dashoffset="0" style="mix-blend-mode: normal"><g><path d="M200.5,180c0,-21.81525 17.68475,-39.5 39.5,-39.5c21.81525,0 39.5,17.68475 39.5,39.5c0,21.81525 -17.68475,39.5 -39.5,39.5c-21.81525,0 -39.5,-17.68475 -39.5,-39.5z" fill="#205fa7" stroke="#000000" stroke-width="1.5" stroke-linecap="butt"></path><path d="M267.80711,142.99009l-31.11024,20.74016l-27.99921,-20.22165" fill="none" stroke="#e2ff00" stroke-width="7" stroke-linecap="round"></path><path d="M213.42302,180.00685v-21.02353l21.15664,11.47952l23.22616,-11.47952v21.02353l-23.7633,13.64179z" fill="#edffff" stroke="#e2ff00" stroke-width="0" stroke-linecap="butt"></path><path d="M230.96621,174.0709c0,0 -2.29297,11.0872 -4.2313,11.0872c-0.48691,0 -1.41121,-0.56056 -1.85114,-1.87803c-1.31137,-3.92718 -1.13185,-14.08369 -1.13185,-14.08369z" fill="#ff0000" stroke="none" stroke-width="0" stroke-linecap="butt"></path><path d="M246.06093,169.14488c0,0 0.17952,10.15651 -1.13184,14.08369c-0.43993,1.31747 -1.36423,1.87803 -1.85115,1.87803c-1.93832,0 -4.2313,-11.0872 -4.2313,-11.0872z" data-paper-data="{&quot;index&quot;:null}" fill="#ff0000" stroke="none" stroke-width="0" stroke-linecap="butt"></path></g><path d="" data-paper-data="{&quot;index&quot;:null}" fill="none" stroke="#000000" stroke-width="1.5" stroke-linecap="round"></path><path d="" data-paper-data="{&quot;index&quot;:null}" fill="none" stroke="#000000" stroke-width="1.5" stroke-linecap="round"></path><g stroke-linecap="butt"><g fill="#d3d3d3" stroke="#000000" stroke-width="1"><path d="M155.27707,198.77242l2.52744,-17.5716l35.00034,5.03434l-2.52744,17.5716z"></path><path d="M148.57251,187.60105l1.08906,-7.5715l10.0001,1.43837l-1.08906,7.5715z"></path><path d="M142.74662,196.67843l0.96578,-6.71436l14.4287,2.07539l-0.96578,6.71436z"></path></g><path d="M171.56292,201.11491l2.54798,-17.71445l5.71435,0.82193l-2.54798,17.71445z" fill="#a0a0a0" stroke="none" stroke-width="0"></path><path d="M179.15498,202.06112l2.46579,-17.14301l5.28575,0.76029l-2.46579,17.14301z" fill="#a0a0a0" stroke="none" stroke-width="0"></path><path d="M163.46109,199.65796l2.44524,-17.00015l5.28575,0.76029l-2.44524,17.00015z" fill="#a0a0a0" stroke="none" stroke-width="0"></path></g></g></g></svg>