<svg version="1.1" xmlns="http://www.w3.org/2000/svg" xmlns:xlink="http://www.w3.org/1999/xlink" width="96.09217" height="153.55117" viewBox="0,0,96.09217,153.55117"><g transform="translate(-198.88382,-67.74869)"><g data-paper-data="{&quot;isPaintingLayer&quot;:true}" fill-rule="nonzero" stroke-linejoin="miter" stroke-miterlimit="10" stroke-dasharray="" stroke-dashoffset="0" style="mix-blend-mode: normal"><g fill="#54ff00" stroke="none" stroke-width="0"><path d="" data-paper-data="{&quot;index&quot;:null}" stroke-linecap="round"></path><path d="" data-paper-data="{&quot;index&quot;:null}" stroke-linecap="round"></path><path d="" data-paper-data="{&quot;index&quot;:null}" stroke-linecap="round"></path><path d="" data-paper-data="{&quot;index&quot;:null}" stroke-linecap="round"></path><path d="" data-paper-data="{&quot;index&quot;:null}" stroke-linecap="round"></path><path d="" data-paper-data="{&quot;index&quot;:null}" stroke-linecap="round"></path><path d="" data-paper-data="{&quot;index&quot;:null}" stroke-linecap="round"></path><path d="" data-paper-data="{&quot;index&quot;:null}" stroke-linecap="round"></path><path d="" data-paper-data="{&quot;index&quot;:null}" stroke-linecap="round"></path><path d="" data-paper-data="{&quot;index&quot;:null}" stroke-linecap="round"></path><g><path d="M216.68485,120.4777l3.62717,-39.32142c0,0 15.43863,8.03347 25.0101,8.91638c5.63109,0.51945 15.23954,-4.65791 24.30635,-5.1292c13.09091,-0.68046 25.34752,3.10014 25.34752,3.10014l-3.62717,39.32142c0,0 -10.61014,-4.81823 -23.12708,-4.31299c-10.43272,0.42112 -22.40376,6.25027 -28.66353,5.67285c-9.47155,-0.87371 -22.87331,-8.24717 -22.87331,-8.24717z" stroke-linecap="butt"></path><path d="M214.55516,208.21856l-9.10903,13.0813l-6.56231,-14.5269z" stroke-linecap="round"></path><path d="M204.30994,207.10247l11.59401,-125.68819l5.38331,0.4966l-11.59401,125.68819z" stroke-linecap="butt"></path><path d="M215.15073,107.03287c-0.01712,-0.02591 -0.03565,-0.05497 -0.05506,-0.08695c-0.02152,0.02448 -0.04295,0.04894 -0.06432,0.07342c0.04111,0.00675 0.08178,0.01469 0.12199,0.02382c-0.00087,-0.00342 -0.00172,-0.00686 -0.0026,-0.01024zM218.50921,104.47726l0.48682,0.84925c0.47765,0.22845 0.931,0.68209 1.06529,1.56872c0.06662,0.43974 0.02669,0.80099 -0.07786,1.09728c1.40669,3.12978 2.93338,6.20509 3.97845,9.37134c0.21587,0.43455 0.36973,0.88729 0.41789,1.36745c0.05871,0.20971 0.11498,0.41989 0.16863,0.63062l0.10609,0.14788l0.63859,-0.23481l0.93218,2.53538c0.11665,0.29725 0.16751,0.6256 0.13616,0.96524c-0.08403,0.91102 -0.73424,1.63354 -1.57111,1.85214c0.00933,0.29449 0.01121,0.59033 0.00502,0.88773l0.64484,-0.01206l0.03916,2.09738c0.00278,0.08712 0.00021,0.17537 -0.00798,0.26439c-0.10726,1.16281 -1.13683,2.01848 -2.29965,1.91122c-0.31479,-0.02902 -0.60709,-0.12568 -0.86385,-0.27426c2.08385,3.3062 3.63208,6.91298 0.69512,9.16399c-1.20122,0.92064 -3.07875,-0.35485 -4.41237,-1.07034c-1.82268,-0.97786 -3.6725,-4.62907 -4.40923,-7.9873c-2.33724,4.56369 -5.76585,9.34858 -10.93032,6.55765c-0.61621,-0.33303 -0.68387,-1.02972 -0.54689,-1.81995c-0.25542,-0.38701 -0.38588,-0.86021 -0.33998,-1.35787c0.01644,-0.17828 0.05454,-0.3493 0.11153,-0.51081l1.30789,-3.97281l0.0864,0.02846l0.03726,-0.32567c0.28701,-0.40418 0.57241,-0.8127 0.85682,-1.22454c-0.10488,0.00608 -0.21153,0.00441 -0.31929,-0.00553c-1.16281,-0.10726 -2.01848,-1.13683 -1.91122,-2.29965c0.0309,-0.33495 0.13833,-0.6444 0.30341,-0.9127l1.15453,-1.97154c0.32144,-0.54895 0.70293,-1.27879 1.14284,-2.09337c-2.07295,-5.54802 5.39161,-14.31249 8.89027,-17.74366c0,0 1.51319,-1.47676 2.98993,0.03641c0.64173,0.65755 0.71885,1.30823 0.60089,1.83383c0.54972,0.23662 0.89376,0.65053 0.89376,0.65053z" stroke-linecap="butt"></path><path d="M260.68581,120.14132l-19.07998,-22.95771l6.68844,-5.55872l19.07998,22.95771z" stroke-linecap="butt"></path><path d="M215.17713,81.27261l4.3109,-13.52392l1.76419,14.0843z" data-paper-data="{&quot;index&quot;:null}" stroke-linecap="round"></path><path d="M240.44041,112.3298l22.95771,-19.07998l5.55872,6.68844l-22.95769,19.07999z" data-paper-data="{&quot;index&quot;:null}" stroke-linecap="butt"></path><text transform="translate(236.66011,113.76355) rotate(5.27024) scale(0.60637,0.60637)" font-size="40" xml:space="preserve" fill="#54ff00" fill-rule="nonzero" stroke="none" stroke-width="0" stroke-linecap="butt" stroke-linejoin="miter" stroke-miterlimit="10" stroke-dasharray="" stroke-dashoffset="0" font-family="Pixel" font-weight="normal" text-anchor="start" style="mix-blend-mode: normal"><tspan x="0" dy="0">BB</tspan></text><path d="M233.75745,93.9386l-10.31317,-5.90835" stroke-linecap="round"></path><path d="M234.38895,115.24113l-12.13463,3.60162" stroke-linecap="round"></path><path d="M290.24008,90.65106l-13.92415,5.08885" stroke-linecap="round"></path><path d="M287.03003,120.33302l-13.273,-4.52903" stroke-linecap="round"></path></g></g><path d="" data-paper-data="{&quot;index&quot;:null}" fill="none" stroke="#000000" stroke-width="1.5" stroke-linecap="round"></path><path d="" data-paper-data="{&quot;index&quot;:null}" fill="none" stroke="#000000" stroke-width="1.5" stroke-linecap="round"></path><path d="" data-paper-data="{&quot;index&quot;:null}" fill="none" stroke="#000000" stroke-width="1.5" stroke-linecap="round"></path><path d="" data-paper-data="{&quot;index&quot;:null}" fill="none" stroke="#000000" stroke-width="1.5" stroke-linecap="round"></path><path d="" data-paper-data="{&quot;index&quot;:null}" fill="none" stroke="#000000" stroke-width="1.5" stroke-linecap="round"></path><path d="" data-paper-data="{&quot;index&quot;:null}" fill="none" stroke="#000000" stroke-width="1.5" stroke-linecap="round"></path><path d="" data-paper-data="{&quot;index&quot;:null}" fill="none" stroke="#000000" stroke-width="1.5" stroke-linecap="round"></path><path d="" data-paper-data="{&quot;index&quot;:null}" fill="none" stroke="#000000" stroke-width="1.5" stroke-linecap="round"></path><path d="" data-paper-data="{&quot;index&quot;:null}" fill="none" stroke="#000000" stroke-width="1.5" stroke-linecap="round"></path><path d="" data-paper-data="{&quot;index&quot;:null}" fill="none" stroke="#000000" stroke-width="1.5" stroke-linecap="round"></path><path d="" data-paper-data="{&quot;index&quot;:null}" fill="none" stroke="#000000" stroke-width="1.5" stroke-linecap="round"></path><path d="" data-paper-data="{&quot;index&quot;:null}" fill="none" stroke="#000000" stroke-width="1.5" stroke-linecap="round"></path><path d="" data-paper-data="{&quot;index&quot;:null}" fill="none" stroke="#000000" stroke-width="1.5" stroke-linecap="round"></path><path d="" data-paper-data="{&quot;index&quot;:null}" fill="none" stroke="#000000" stroke-width="1.5" stroke-linecap="round"></path><path d="" data-paper-data="{&quot;index&quot;:null}" fill="none" stroke="#000000" stroke-width="1.5" stroke-linecap="round"></path><path d="M288.64177,198.77279" data-paper-data="{&quot;index&quot;:null}" fill="#54ff00" stroke="none" stroke-width="0" stroke-linecap="round"></path><path d="M288.64177,198.77279" data-paper-data="{&quot;index&quot;:null}" fill="#54ff00" stroke="none" stroke-width="0" stroke-linecap="round"></path><path d="M235.84861,218.90285c-21.69397,-2.29713 -37.41821,-21.74576 -35.12107,-43.43973c2.29713,-21.69397 21.74576,-37.41821 43.43973,-35.12107c21.69397,2.29713 37.41821,21.74576 35.12107,43.43973c-2.29713,21.69397 -21.74576,37.41821 -43.43973,35.12107z" fill="#54ff00" stroke="none" stroke-width="0" stroke-linecap="butt"></path><path d="" data-paper-data="{&quot;index&quot;:null}" fill="none" stroke="#000000" stroke-width="1.5" stroke-linecap="round"></path><path d="" data-paper-data="{&quot;index&quot;:null}" fill="none" stroke="#000000" stroke-width="1.5" stroke-linecap="round"></path><g fill="#54ff00" stroke="none" stroke-width="0"><g><path d="M201.81484,206.76356l3.63978,-52.15585l27.75995,-14.43602l18.70719,0.52582l24.23907,15.60863l-3.32409,64.61672l-29.6174,-10.68979l-2.27035,-23.93017l-4.81038,-3.01442l-5.47772,2.33098l-1.54863,22.28048l-28.10721,7.10865z" stroke-linecap="round"></path><path d="M205.17855,175.41124l0.53394,-11.38877l26.25109,4.88313l-0.57666,12.29988z" stroke-linecap="butt"></path></g><path d="M241.35107,182.5922l-0.03344,-12.31335l26.44097,-3.72022l0.03097,11.40123z" data-paper-data="{&quot;index&quot;:null}" stroke-linecap="butt"></path></g><path d="M239.05,199.06667c0,0 -0.52441,0.77538 -1.56061,1.11993c-0.90498,0.30092 -2.29523,0.17833 -2.82944,0.16163c-0.95089,-0.02972 -2.00995,-1.48156 -2.00995,-1.48156" fill="#54ff00" stroke="none" stroke-width="0" stroke-linecap="round"></path></g></g></svg>