<svg version="1.1" xmlns="http://www.w3.org/2000/svg" xmlns:xlink="http://www.w3.org/1999/xlink" width="130.5111" height="108.98129" viewBox="0,0,130.5111,108.98129"><g transform="translate(-176.07514,-128.09881)"><g data-paper-data="{&quot;isPaintingLayer&quot;:true}" fill-rule="nonzero" stroke-linejoin="miter" stroke-miterlimit="10" stroke-dasharray="" stroke-dashoffset="0" style="mix-blend-mode: normal"><path d="M240.00001,219.50005c-21.81525,0 -39.5,-17.68475 -39.5,-39.5c0,-21.81525 17.68475,-39.5 39.5,-39.5c21.81525,0 39.5,17.68475 39.5,39.5c0,21.81525 -17.68475,39.5 -39.5,39.5z" data-paper-data="{&quot;index&quot;:null}" fill="#d8d8d8" stroke="#000000" stroke-width="1.5" stroke-linecap="butt"></path><path d="" data-paper-data="{&quot;index&quot;:null}" fill="none" stroke="#000000" stroke-width="1.5" stroke-linecap="round"></path><path d="" data-paper-data="{&quot;index&quot;:null}" fill="none" stroke="#000000" stroke-width="1.5" stroke-linecap="round"></path><path d="M248.09695,174.32503l20.61587,-5.97561" data-paper-data="{&quot;index&quot;:null}" fill="none" stroke="#000000" stroke-width="1.5" stroke-linecap="round"></path><path d="M219.11523,168.05064l23.60367,6.27439" data-paper-data="{&quot;index&quot;:null}" fill="none" stroke="#000000" stroke-width="1.5" stroke-linecap="round"></path><path d="M240.56161,178.50795c0,-0.82843 0.67157,-1.5 1.5,-1.5c0.82843,0 1.5,0.67157 1.5,1.5c0,0.82843 -0.67157,1.5 -1.5,1.5c-0.82843,0 -1.5,-0.67157 -1.5,-1.5z" fill="#000000" stroke="none" stroke-width="0.5" stroke-linecap="butt"></path><path d="M257.59211,178.20917c0,-0.82843 0.67158,-1.5 1.5,-1.5c0.82842,0 1.5,0.67157 1.5,1.5c0,0.82843 -0.67158,1.5 -1.5,1.5c-0.82842,0 -1.5,-0.67157 -1.5,-1.5z" fill="#000000" stroke="none" stroke-width="0.5" stroke-linecap="butt"></path><path d="M246.24454,198.37686c0,0 1.8465,-6.57318 3.58538,-6.57318c1.34692,0 4.18292,6.57318 4.18292,6.57318" fill="none" stroke="#000000" stroke-width="1.5" stroke-linecap="round"></path><g stroke="#000000"><g stroke-width="0.8"><path d="M183.53075,130.87558l3.03969,25.59506l8.07654,2.83902l-8.44965,3.06476l0.3104,8.48727l-4.10568,-8.72712l-4.21699,-0.2665z" fill="#0033b3" stroke-linecap="round"></path><path d="M188.4853,160.87121l0.01647,17.32927l-7.46951,0.0071l-0.01647,-17.32927z" fill="#455c67" stroke-linecap="butt"></path></g><path d="M185.00195,183.74877c-4.654,0 -8.42681,-3.7728 -8.42681,-8.42681c0,-4.654 3.7728,-8.42681 8.42681,-8.42681c4.654,0 8.42681,3.7728 8.42681,8.42681c0,4.654 -3.7728,8.42681 -8.42681,8.42681z" data-paper-data="{&quot;index&quot;:null}" fill="#d8d8d8" stroke-width="1" stroke-linecap="butt"></path><path d="" data-paper-data="{&quot;index&quot;:null}" fill="none" stroke-width="1.5" stroke-linecap="round"></path><path d="" data-paper-data="{&quot;index&quot;:null}" fill="none" stroke-width="1.5" stroke-linecap="round"></path></g><g stroke="#000000"><path d="M294.85547,199.21036c-4.654,0 -8.42681,-3.7728 -8.42681,-8.42681c0,-4.654 3.7728,-8.42681 8.42681,-8.42681c4.654,0 8.42681,3.7728 8.42681,8.42681c0,4.654 -3.7728,8.42681 -8.42681,8.42681z" data-paper-data="{&quot;index&quot;:null}" fill="#d8d8d8" stroke-width="1" stroke-linecap="butt"></path><path d="" data-paper-data="{&quot;index&quot;:null}" fill="none" stroke-width="1.5" stroke-linecap="round"></path><path d="" data-paper-data="{&quot;index&quot;:null}" fill="none" stroke-width="1.5" stroke-linecap="round"></path><g data-paper-data="{&quot;index&quot;:null}" stroke-width="0.8"><path d="M288.93493,203.31085l4.21699,-0.2665l4.10568,-8.72712l-0.3104,8.48727l8.44965,3.06476l-8.07654,2.83902l-3.03969,25.59506z" fill="#0033b3" stroke-linecap="round"></path><path d="M291.76566,204.30061l0.01647,-17.32927l7.46951,0.0071l-0.01647,17.32927z" fill="#455c67" stroke-linecap="butt"></path></g></g></g></g></svg>