<svg version="1.1" xmlns="http://www.w3.org/2000/svg" xmlns:xlink="http://www.w3.org/1999/xlink" width="80.51923" height="94.35532" viewBox="0,0,80.51923,94.35532"><g transform="translate(-171.34493,-104.20777)"><g data-paper-data="{&quot;isPaintingLayer&quot;:true}" fill-rule="nonzero" stroke-linejoin="miter" stroke-miterlimit="10" stroke-dasharray="" stroke-dashoffset="0" style="mix-blend-mode: normal"><g stroke="none" stroke-linecap="butt"><path d="M199.37425,130.70278c2.97289,6.50361 2.85943,12.92933 -0.2534,14.35224c-3.11285,1.42292 -5.15341,-3.2881 -8.12627,-9.7917c-2.97289,-6.50361 -16.56482,-6.1777 -13.45199,-7.60062c1.88723,-0.86269 8.83222,-5.30538 14.34483,-4.58042c3.57997,0.47079 6.31634,5.05988 7.48683,7.62051z" data-paper-data="{&quot;index&quot;:null}" fill="#ffffff" stroke-width="NaN"></path><path d="M203.64505,127.96727c3.99919,8.74883 3.84656,17.39286 -0.34089,19.30701c-4.18746,1.91415 -6.93248,-4.42325 -10.93168,-13.17207c-3.99919,-8.74883 -22.28344,-8.3104 -18.09597,-10.22455c2.53876,-1.1605 11.88133,-7.13693 19.29706,-6.16171c4.81586,0.63332 8.49691,6.80669 10.07149,10.25131z" fill="#a97eff" stroke-width="NaN"></path></g><path d="" data-paper-data="{&quot;index&quot;:null}" fill="none" stroke="#000000" stroke-width="1.5" stroke-linecap="round"></path><path d="" data-paper-data="{&quot;index&quot;:null}" fill="none" stroke="#000000" stroke-width="1.5" stroke-linecap="round"></path><path d="" data-paper-data="{&quot;index&quot;:null}" fill="none" stroke="#000000" stroke-width="1.5" stroke-linecap="round"></path><path d="" data-paper-data="{&quot;index&quot;:null}" fill="none" stroke="#000000" stroke-width="1.5" stroke-linecap="round"></path><path d="M175.6799,174.7251c-9.06941,-19.84064 -0.3376,-43.27686 19.50303,-52.34627c19.84064,-9.06941 43.27686,-0.3376 52.34627,19.50303c9.06941,19.84064 0.3376,43.27686 -19.50303,52.34627c-19.84064,9.06941 -43.27686,0.3376 -52.34627,-19.50303z" fill="#d8d8d8" stroke="#000000" stroke-width="1.5" stroke-linecap="butt"></path><path d="" data-paper-data="{&quot;index&quot;:null}" fill="none" stroke="#000000" stroke-width="1.5" stroke-linecap="butt"></path><path d="M194.01463,165.72859c0,0 -1.41902,-13.37536 1.69101,-14.72919c3.16394,-1.37731 11.3922,8.33831 11.3922,8.33831" fill="none" stroke="#000000" stroke-width="1.5" stroke-linecap="round"></path><path d="M211.64858,159.06178c0,0 -1.41902,-13.37536 1.69101,-14.72919c3.16394,-1.37731 11.3922,8.33832 11.3922,8.33832" fill="none" stroke="#000000" stroke-width="1.5" stroke-linecap="round"></path><path d="M222.07767,169.23617c0,0 -6.51596,9.21651 -10.30887,9.95346c-2.98215,0.57942 -10.60689,-5.88963 -10.60689,-5.88963" fill="none" stroke="#000000" stroke-width="1.5" stroke-linecap="round"></path><g stroke="none" stroke-linecap="butt"><path d="M217.82597,114.95165c4.11481,-6.24597 14.74735,-9.40043 17.28612,-10.56093c4.18746,-1.91415 -8.10792,11.62576 -4.10873,20.37458c3.99919,8.74883 6.99549,14.97135 2.80802,16.88549c-4.18746,1.91415 -10.82409,-3.62645 -14.82327,-12.37529c-1.57458,-3.44462 -3.83435,-10.26766 -1.16213,-14.32388z" data-paper-data="{&quot;index&quot;:null}" fill="#a97eff" stroke-width="NaN"></path><path d="M223.01897,117.30878c3.05882,-4.64307 10.96273,-6.98799 12.84996,-7.85068c3.11285,-1.42292 -6.02717,8.64224 -3.05429,15.14584c2.97289,6.50361 5.20023,11.12925 2.08739,12.55217c-3.11285,1.42292 -8.0463,-2.69579 -11.01917,-9.19939c-1.1705,-2.56063 -2.85033,-7.63266 -0.8639,-10.64793z" data-paper-data="{&quot;index&quot;:null}" fill="#ffffff" stroke-width="NaN"></path></g></g></g></svg>