<svg version="1.1" xmlns="http://www.w3.org/2000/svg" xmlns:xlink="http://www.w3.org/1999/xlink" width="190.91147" height="83.8522" viewBox="0,0,190.91147,83.8522"><g transform="translate(-199.73697,-137.15372)"><g data-paper-data="{&quot;isPaintingLayer&quot;:true}" fill-rule="nonzero" stroke-linejoin="miter" stroke-miterlimit="10" stroke-dasharray="" stroke-dashoffset="0" style="mix-blend-mode: normal"><path d="M217.09442,165.86416l9,1v8" fill="none" stroke="#000000" stroke-width="1.5" stroke-linecap="round"></path><path d="M232.53458,174.67755v-8l9,-1" data-paper-data="{&quot;index&quot;:null}" fill="none" stroke="#000000" stroke-width="1.5" stroke-linecap="round"></path><path d="M230.98851,198.049c0,0 0.3445,-8.61004 5.78628,-9.03188c5.30472,-0.41122 12.46372,8.03188 12.46372,8.03188z" fill="#040404" stroke="#000000" stroke-width="1.5" stroke-linecap="round"></path><path d="M200.73697,171.09113c0,-18.19082 17.29485,-32.9374 38.62913,-32.9374c21.33428,0 38.62913,14.74658 38.62913,32.9374c0,11.22687 -2.48212,24.8741 -12.54127,30.82016c-0.42004,0.24829 -5.31543,2.90997 -5.31543,2.90997l-0.22453,13.91683l-12.57806,0.95271l-0.50527,-15.47565l0.06963,15.5724l-14.72842,0.20478l-0.46155,-15.93384l0.80812,15.80985l-16.17468,-0.08649c0,0 0.11388,-16.75516 -0.28778,-16.80951c-2.62384,-0.355 -2.02116,-0.00099 -3.86634,-0.93632c-11.32682,-5.74167 -11.45268,-18.89377 -11.45268,-30.94489z" fill="#ffffff" stroke="#000000" stroke-width="2" stroke-linecap="butt"></path><path d="M243.83743,171.09872c0,5.92619 -3.30023,10.73031 -7.37126,10.73031c-4.07103,0 -7.37126,-4.80413 -7.37126,-10.73031c0,-5.92619 -0.9919,-11.10354 3.07913,-11.10354c3.22238,0 10.77427,7.53515 10.77427,7.53515c0,0 0.88912,2.33301 0.88912,3.56839z" fill="#ababab" stroke="#000000" stroke-width="1" stroke-linecap="butt"></path><path d="M261.57705,161.07622c4.07103,0 3.07913,5.17736 3.07913,11.10354c0,5.92619 -3.30022,10.73032 -7.37126,10.73032c-4.07103,0 -7.37126,-4.80413 -7.37126,-10.73032c0,-1.23538 0.88912,-3.56839 0.88912,-3.56839c0,0 7.55188,-7.53515 10.77427,-7.53515z" data-paper-data="{&quot;index&quot;:null}" fill="#ababab" stroke="#000000" stroke-width="1" stroke-linecap="butt"></path><path d="" data-paper-data="{&quot;index&quot;:null}" fill="none" stroke="#000000" stroke-width="1.5" stroke-linecap="round"></path><path d="" data-paper-data="{&quot;index&quot;:null}" fill="none" stroke="#000000" stroke-width="1.5" stroke-linecap="round"></path><path d="" data-paper-data="{&quot;index&quot;:null}" fill="none" stroke="#000000" stroke-width="1.5" stroke-linecap="round"></path><path d="" data-paper-data="{&quot;index&quot;:null}" fill="none" stroke="#000000" stroke-width="1.5" stroke-linecap="round"></path><path d="" data-paper-data="{&quot;index&quot;:null}" fill="none" stroke="#000000" stroke-width="1.5" stroke-linecap="round"></path><path d="" data-paper-data="{&quot;index&quot;:null}" fill="none" stroke="#000000" stroke-width="1.5" stroke-linecap="round"></path><path d="" data-paper-data="{&quot;index&quot;:null}" fill="none" stroke="#000000" stroke-width="1.5" stroke-linecap="round"></path><path d="" data-paper-data="{&quot;index&quot;:null}" fill="none" stroke="#000000" stroke-width="1.5" stroke-linecap="round"></path><path d="" data-paper-data="{&quot;index&quot;:null}" fill="none" stroke="#000000" stroke-width="1.5" stroke-linecap="round"></path><path d="" data-paper-data="{&quot;index&quot;:null}" fill="none" stroke="#000000" stroke-width="1.5" stroke-linecap="round"></path><path d="M274.8589,192.52566c-0.60739,-0.08086 -1.08468,-0.36263 -1.21811,-0.71992h-1.44181c-0.89154,0 -1.61426,-0.42397 -1.61426,-0.94697c0,-0.47908 0.60645,-0.87507 1.39358,-0.93819l3.16621,-0.28575l0.05414,0.20643c2.03306,-0.33731 3.93098,-0.41055 6.84163,-0.41055h1.64022c0,0 1.42643,0 1.59754,0.78658c0.26496,0.1687 0.42679,0.394 0.42679,0.64147c0,0.30108 -0.23953,0.56935 -0.6129,0.7428c0.12923,0.13618 0.20285,0.29301 0.20285,0.45994c0,0.45496 -0.54694,0.83498 -1.27613,0.92616l-2.08628,0.28823l-0.00972,-0.02422l-0.09442,0.0365c-0.13055,0.00696 -0.26196,0.0142 -0.39402,0.02137c0.31034,0.07514 0.62033,0.15078 0.93001,0.22686l3.1355,0.22992c0.80731,0.05223 1.43529,0.4537 1.43529,0.94121c0,0.47532 -0.59695,0.86884 -1.37506,0.93664l-2.43414,0.23799l-0.00384,-0.01349l-0.06166,0.01909c-0.07472,0.00369 -0.15004,0.00775 -0.22591,0.01216c0.00004,0.00344 0.00006,0.00689 0.00006,0.01036c0,0.94697 -1.61426,0.94697 -1.61426,0.94697c-3.35125,-0.00342 -6.51467,0.47516 -9.84129,0.4811h-1.64022c-0.89154,0 -1.61426,-0.42397 -1.61426,-0.94697c0,-0.44007 0.51171,-0.81003 1.20511,-0.91628l3.06999,-0.51455l0.11076,0.22743c1.48395,-0.35371 2.93221,-0.59313 4.47716,-0.76804l-1.37773,-0.21903c-0.70388,-0.10201 -1.22578,-0.47494 -1.22578,-0.91937c0,-0.29795 0.23457,-0.56376 0.60128,-0.73735l-0.12627,-0.01852z" data-paper-data="{&quot;index&quot;:null}" fill="#bd00f2" stroke="none" stroke-width="0.5" stroke-linecap="butt"></path><g stroke="none" stroke-width="0.5" stroke-linecap="butt"><path d="M369.51042,185.60076c-0.03019,0.56303 -0.09995,1.071 -0.25514,1.6081l0.00042,0.00936l0.2545,0.05449l-0.22148,1.18553c-0.07426,0.4426 -0.43578,0.77845 -0.87059,0.77845c-0.47603,0 -0.86422,-0.40255 -0.88378,-0.90703l-0.05692,-1.27064c-0.017,-0.10173 -0.03526,-0.20257 -0.05436,-0.30261c-0.10832,0.26174 -0.37632,0.6659 -0.97595,0.53751c-0.86737,-0.18571 -0.69389,-1.11429 -0.69389,-1.11429c0.20765,-1.1115 0.43676,-2.12578 0.43522,-3.26005l0.03346,-0.07321l-0.02445,-0.00436l0.22231,-1.42793c0.06334,-0.45645 0.43092,-0.80664 0.8749,-0.80664c0.23926,0 0.45633,0.1017 0.61555,0.26691c0.15907,-0.25111 0.42783,-0.41611 0.7326,-0.41611c0.44089,0 0.80644,0.34532 0.87354,0.7971l0.22203,1.33592l-0.16296,0.03104c0.10838,0.35726 0.17542,0.72277 0.17664,1.09703v1.20274c0,0 0,0.3987 -0.24165,0.67869z" data-paper-data="{&quot;index&quot;:null}" fill="#bd00f2"></path><path d="M388.86512,193.32599c-0.07664,-0.00008 -0.15145,-0.00028 -0.22462,-0.00064l-0.00008,0.00064c0,0 -0.00761,0 -0.02141,-0.00076c-0.58012,-0.00314 -1.05743,-0.0163 -1.52273,-0.0503l0.0102,0.13105l-1.75268,0.15636c-0.02757,0.00277 -0.05551,0.00419 -0.08376,0.00419c-0.36413,0 -0.67689,-0.23555 -0.81253,-0.5721c-2.21202,0.5781 -4.39122,1.27152 -6.65352,1.75645c0,0 -0.86736,0.18572 -1.04084,-0.74286c-0.17348,-0.92857 0.69389,-1.11429 0.69389,-1.11429c3.61334,-0.77276 7.01496,-2.05149 10.66908,-2.59807c0.07355,-0.01677 0.14805,-0.02802 0.22368,-0.03248c0.06377,-0.00898 0.12763,-0.01774 0.19156,-0.02626l0.01048,0.02919c0.01424,0.00114 0.02844,0.00248 0.04263,0.00398l-0.00015,-0.03513l0.0461,-0.00022v-0.00542h1.12346c0.48853,0 0.88455,0.42397 0.88455,0.94697c0,0.52175 -0.39414,0.94494 -0.88106,0.94696l-0.98482,0.00476l-0.02978,0.25102z" data-paper-data="{&quot;index&quot;:null}" fill="#bd00f2"></path><path d="M369.86792,201.0191c-0.02169,0.16611 -0.04757,0.33259 -0.07845,0.50072h0.18728v0.96219c0,0.523 -0.39602,0.94697 -0.88455,0.94697c-0.39145,0 -0.7235,-0.27221 -0.84002,-0.64947l-0.42637,-1.27915l0.01125,-0.0043l-0.02201,-0.03005c-0.02834,-0.1267 -0.05993,-0.25276 -0.09239,-0.37867c-0.15957,0.63517 -0.40796,1.2465 -0.74499,1.78364c-0.01673,0.02667 -0.03374,0.05309 -0.05101,0.07929l0.01004,0.00622l-0.56692,1.04827c0.00753,0.29356 0.01176,0.5877 0.01189,0.88272c0,0 0,0.94697 -0.88455,0.94697c-0.88455,0 -0.88455,-0.94697 -0.88455,-0.94697c0.00011,-0.23371 -0.00256,-0.46684 -0.00754,-0.69955c-0.01734,-0.04853 -0.03106,-0.09898 -0.04079,-0.15097l-0.38,-1.83062l0.0247,-0.00588l-0.04049,-0.09622c-0.00177,-0.52841 0.04752,-1.05454 0.13025,-1.57706h-0.13552v-1.89393c0,-0.523 0.39602,-0.94697 0.88455,-0.94697c0.45051,0 0.82236,0.36056 0.8775,0.82683l0.10282,0.77057c0.45808,-1.10022 1.1934,-1.82199 2.16235,-1.17424c0.01068,-0.13517 0.01724,-0.26204 0.01724,-0.37749v-1.02309c0,-0.523 0.39602,-0.94697 0.88455,-0.94697c0.41106,0 0.75664,0.30018 0.85589,0.70694l0.44401,1.66371l-0.1319,0.04035c0.16299,0.39941 0.29355,0.81047 0.37345,1.23683l0.01717,0.66681c0,0 0,0.87296 -0.78291,0.94257z" data-paper-data="{&quot;index&quot;:null}" fill="#bd00f2"></path><path d="M368.88874,189.90422c-0.04468,-0.06366 -0.11161,-0.13895 -0.14456,-0.20973c-0.15419,0.13998 -0.35377,0.2244 -0.57176,0.2244c-0.05588,0 -0.11056,-0.00555 -0.16357,-0.01616l-0.0059,0.0221c0.29482,-0.01014 0.59014,-0.01678 0.88579,-0.02062zM361.24222,198.56436c-2.1376,-0.12585 -4.25818,-0.30139 -6.32438,-0.42743h-0.87998c-0.48853,0 -0.88455,-0.42397 -0.88455,-0.94697c0,-0.50295 0.36626,-0.91433 0.82881,-0.94512l1.05818,-0.08092l-1.13352,-0.20225c-0.42637,-0.0678 -0.75348,-0.46132 -0.75348,-0.93664c0,-0.16692 0.04034,-0.32376 0.11115,-0.45994c-0.20459,-0.17345 -0.33584,-0.44171 -0.33584,-0.7428c0,-0.50051 0.3627,-0.91031 0.82206,-0.94464l1.75542,-0.15034l0.01654,0.22139c0.03363,0.00435 0.06721,0.00866 0.10075,0.01293c0.28526,-0.06753 0.57067,-0.12721 0.85639,-0.17994l-0.8551,-0.5404c-0.26818,-0.16266 -0.44914,-0.47095 -0.44914,-0.82448c0,-0.18199 0.04796,-0.352 0.13108,-0.49632h-0.14531c-0.48853,0 -0.88455,-0.42397 -0.88455,-0.94697c0,-0.48751 0.3441,-0.88897 0.78648,-0.94121l0.56311,-0.07536c0.02447,-0.4627 0.35924,-0.83656 0.78504,-0.88684l1.74379,-0.23336l0.03215,0.2754c0.00854,0.00052 0.01708,0.00102 0.02562,0.00154c1.47741,-0.39817 3.01502,-0.59242 4.57687,-0.67362c0.15848,-0.27064 0.31881,-0.53427 0.47461,-0.78752v-0.76835c0,-0.523 0.39602,-0.94697 0.88455,-0.94697c0.03698,0 0.07342,0.00242 0.1092,0.00714l0.39334,-1.2633c0.11117,-0.38695 0.4477,-0.66822 0.84561,-0.66822c0.41106,0 0.75664,0.30018 0.85589,0.70694l0.44401,1.66371l-0.21115,0.06459c0.00582,0.01738 0.01159,0.03477 0.01732,0.05218c0.49642,0.21579 0.91636,0.91954 1.39443,1.25241l0.00893,0.13931l0.00824,-0.00505c0.02525,-0.41804 0.10068,-0.83394 0.21728,-1.22724l0.21423,-1.14675c0.07426,-0.4426 0.43578,-0.77845 0.87059,-0.77845c0.27948,0 0.5287,0.13876 0.6908,0.35545c0.00043,-0.1177 -0.00029,-0.23562 -0.00236,-0.35378c-0.03165,-1.81068 -0.24417,-3.51058 -0.15278,-5.17519c-0.02528,-0.3547 -0.0493,-0.70927 -0.07152,-1.06371l0.05326,-0.03184h-0.05376l-0.00001,-0.48149h-0.00002v-0.96219c0,-0.523 0.39602,-0.94697 0.88455,-0.94697c0.48852,0 0.88454,0.42396 0.88455,0.94695v0l0.00002,1.35897c0.34207,0.51975 0.24468,1.45205 0.17147,2.33048c0.21707,2.56042 0.49341,5.17524 0.57927,7.77082c3.47052,-0.12772 7.00363,-0.22456 10.32601,0.3418h0.84612c0.48853,0 0.88455,0.42397 0.88455,0.94697c0,0.01118 -0.00018,0.02232 -0.00053,0.0334c0.83789,-0.00886 1.67609,-0.01459 2.51481,-0.01695v-0.00123h1.7691c0.48853,0 0.88455,0.42397 0.88455,0.94697c0,0.523 -0.39602,0.94697 -0.88455,0.94697h-0.89877c-0.43417,0 -0.86816,0.00094 -1.30203,0.00279c-0.8755,0.34457 -1.83912,0.29407 -2.98465,0.43073c-0.29718,0.03545 -0.59418,0.07078 -0.89105,0.10615c0.38469,0.10278 0.66966,0.47517 0.66966,0.91883c0,0.4823 -0.33679,0.88039 -0.77233,0.93942l-1.55997,0.23857l-0.03108,-0.2329c-1.34731,0.40533 -2.73102,0.65135 -4.12745,0.86133c0.12467,0.1632 0.19944,0.37177 0.19944,0.59904c0,0.07727 -0.00865,0.15238 -0.02496,0.22428c0.09189,0.01633 0.18139,0.03161 0.26828,0.04569l0.13197,0.16002l0.04057,-0.06663l0.74346,0.51879c0.24846,0.16767 0.41352,0.46404 0.41352,0.80169c0,0.46548 -0.31371,0.85253 -0.72714,0.93202l-1.71867,0.36799l-0.03059,-0.16376c-2.24363,0.72318 -4.5746,1.09652 -6.94119,1.25734c-0.0907,1.40783 0.21595,3.16424 -1.89597,3.35905c-0.02151,0.00198 -0.0428,0.00388 -0.06384,0.00569l-0.0861,0.82966c-0.04374,0.47924 -0.42117,0.85375 -0.88032,0.85375c-0.43392,0 -0.79488,-0.3345 -0.87013,-0.77578l-0.23656,-1.24653c-0.05671,-0.18792 -0.59834,-1.98224 -0.8899,-2.95106c-0.27036,-0.00755 -0.54072,-0.0166 -0.81101,-0.02696l-0.4158,1.03868c-0.13072,0.34818 -0.44907,0.594 -0.82106,0.594c-0.48853,0 -0.88455,-0.42397 -0.88455,-0.94697v-0.79053zM366.80064,195.99423c0.31568,0.00518 0.63024,0.00823 0.94342,0.00823h0.70018c0.04294,-0.05951 0.08619,-0.1196 0.12945,-0.18137l-1.11438,-0.09177c-0.25068,-0.01799 -0.47276,-0.14779 -0.62309,-0.34323c-0.56263,0.04284 -1.14773,0.08183 -1.72423,0.09234c0.00295,0.00477 0.00588,0.00955 0.00883,0.01434c0.55849,0.17275 1.11917,0.33363 1.67982,0.50145zM358.20212,191.58179c0.63898,0.26653 1.27756,0.43996 1.91667,0.56476c-0.00002,-0.00268 -0.00003,-0.00536 -0.00003,-0.00805c0,-0.26158 0.09907,-0.4984 0.25924,-0.66978c-0.72597,0.07543 -1.45469,0.12784 -2.17588,0.11308zM367.37105,198.70281c-0.05872,0.00163 -0.11746,0.00314 -0.17622,0.00455c0.00027,0.00061 0.00054,0.00122 0.00082,0.00183l0.10129,0.21688c0.02324,-0.07392 0.04835,-0.14853 0.07411,-0.22326z" data-paper-data="{&quot;index&quot;:null}" fill="#9b00c4"></path><path d="M368.19663,196.86956c-0.26143,0.3052 -0.67725,0.3052 -0.67725,0.3052l-0.43923,-0.02827c-0.46946,-0.12998 -0.94258,-0.27588 -1.40417,-0.45282h-0.34379l-0.04957,0.21227l-0.88082,-0.23574c-0.3939,-0.0957 -0.68797,-0.47283 -0.68797,-0.9235c0,-0.28954 0.12138,-0.54872 0.31262,-0.72242c-1.99473,0.09114 -4.0199,0.09739 -5.84879,-0.25499c-0.34086,0 -0.68171,0 -1.02256,0c-0.04646,0 -1.72264,0 -1.7691,0c-0.48853,0 -0.88455,-0.42397 -0.88455,-0.94697c0,-0.523 0.39602,-0.94697 0.88455,-0.94697h1.7691c0.34086,0 0.68171,0 1.02256,0c0.28934,-0.05575 0.58359,-0.10252 0.88186,-0.1414c-0.04142,-0.10961 -0.06423,-0.22942 -0.06423,-0.35492c0,-0.523 0.39602,-0.94697 0.88455,-0.94697h0.92721c0.84675,0.00064 1.68319,-0.05925 2.51194,-0.14864c0.07206,-0.03683 0.14949,-0.06352 0.23071,-0.07836l1.72224,-0.3512l0.03079,0.17308c0.10373,-0.0148 0.20736,-0.02968 0.31091,-0.04458c1.95889,-0.63621 3.83724,-0.74884 6.2033,-0.75292v-0.00012h1.7691c0.48853,0 0.88455,0.42397 0.88455,0.94697c0,0.523 -0.39602,0.94697 -0.88455,0.94697h-1.62973c-0.23773,0 -0.49351,0.01311 -0.76273,0.03482c-0.23434,0.05603 -0.4837,0.08576 -0.77252,0.11907c0.00335,0.03348 0.00506,0.06746 0.00506,0.10189c0,0.18199 -0.04796,0.352 -0.13108,0.49632h0.14531c0.48853,0 0.88455,0.42397 0.88455,0.94697c0,0.1624 -0.03818,0.31525 -0.10546,0.44882l0.43263,0.05215c0.44708,0.04742 0.79629,0.4512 0.79629,0.94231c0,0.37803 -0.20691,0.70432 -0.5061,0.85616l-0.88163,0.47192l-0.01618,-0.03465c-0.05685,0.03927 -0.11548,0.07586 -0.17617,0.10929c-0.55595,0.30624 -1.63024,0.28374 -2.67167,0.20123z" data-paper-data="{&quot;index&quot;:null}" fill="#da7af5"></path><path d="M367.74409,194.28819c-1.66473,0 -3.29236,-0.01298 -4.95306,-0.15886l-0.95337,-0.08417c-0.45845,-0.03533 -0.82012,-0.4447 -0.82012,-0.94449c0,-0.523 0.39602,-0.94697 0.88455,-0.94697h1.34815v0.11433c0.15238,0.01196 0.30451,0.0228 0.45645,0.03261c1.02839,-0.15165 2.04457,-0.14693 3.36332,-0.14693h0.67408c0,0 0.88455,0 0.88455,0.94697c0,0.04192 -0.00173,0.08198 -0.00505,0.12027c0.00331,0.03829 0.00505,0.07836 0.00505,0.12027c0,0.94697 -0.88455,0.94697 -0.88455,0.94697z" data-paper-data="{&quot;index&quot;:null}" fill="#e6b0f5"></path></g><g stroke="none" stroke-width="0.5" stroke-linecap="butt"><path d="M343.77364,187.7203c0,-0.74367 1.31227,-0.74367 1.31227,-0.74367l2.00579,0.00001c2.09805,0.01041 3.5866,0.04555 5.14901,0.22114l0.03115,-0.17654l2.59706,0.14718c0.67035,0.03331 1.19613,0.35226 1.19613,0.74079c0,0.35392 -0.43625,0.65009 -1.02064,0.72523l-1.203,0.17044c-0.38048,0.10625 -0.75429,0.21068 -1.12625,0.29896c0.21709,0.13268 0.3498,0.31032 0.3498,0.50552c0,0.36555 -0.46542,0.66949 -1.07874,0.73193l-1.64286,0.18621l-0.0028,-0.00793l-0.03516,0.0119c-0.12211,0.00967 -0.2536,0.02247 -0.39307,0.03775l0.07385,0.00837c0.61334,0.06243 1.07874,0.36638 1.07874,0.73193c0,0.35392 -0.43625,0.65009 -1.02064,0.72523l-1.30434,0.18479c-0.40846,0.05911 -0.80037,0.12226 -1.18251,0.18354c2.24563,0.16468 4.47509,0.44502 6.71422,0.62602c0,0 1.29907,0.10517 1.1135,0.84136c-0.18558,0.7362 -1.48465,0.63102 -1.48465,0.63102c-0.17204,-0.01395 -0.34399,-0.02847 -0.51589,-0.04346c-0.2398,0.14746 -0.58348,0.23984 -0.96524,0.23984c-0.53894,0 -1.00199,-0.18411 -1.20399,-0.44741c-2.40774,-0.24259 -4.81491,-0.49865 -7.25883,-0.50074l-0.12096,-0.03092l-0.0071,0.0201l-2.54973,-0.28899c-0.61334,-0.06243 -1.07874,-0.36638 -1.07874,-0.73193c0,-0.31566 0.34703,-0.58539 0.8367,-0.69333l0.75851,-0.17867c-0.58492,-0.07493 -1.02169,-0.37125 -1.02169,-0.72537c0,-0.24639 0.21145,-0.4648 0.53713,-0.60013l1.32114,-0.56152l0.27517,0.20792c1.17955,-0.49266 2.39818,-0.70568 3.87462,-0.8531c-0.00524,-0.027 -0.00792,-0.05443 -0.00792,-0.08223c0,-0.27564 0.26463,-0.51624 0.65774,-0.6447l0.33257,-0.11308c-0.22352,-0.00498 -0.45127,-0.00865 -0.68381,-0.0098l-1.99431,0.00001c0,0 -1.31227,0 -1.31227,-0.74367z" data-paper-data="{&quot;index&quot;:null}" fill="#bd00f2"></path><path d="M336.83438,190.00508l-0.25457,-0.16488l1.97037,-0.97704c0.23144,-0.11598 0.53567,-0.18638 0.86893,-0.18638c0.72475,0 1.31227,0.33295 1.31227,0.74367v0.75562h-0.07475l0.0578,0.11913c-0.98422,1.72728 -1.07695,3.1757 -3.9924,3.56311l-0.00506,0.01717c-0.09397,0.35846 -0.63927,0.63347 -1.29796,0.63347c-0.72475,0 -1.31227,-0.33295 -1.31227,-0.74367v-1.13343h0.13644l-0.09962,-0.17493c0.21913,-0.25225 0.41734,-0.4802 0.60353,-0.68838c0.00867,-0.07773 0.026,-0.15388 0.05181,-0.22707l0.32858,-0.93102c0.11016,-0.34758 0.6465,-0.61133 1.29155,-0.61133c0.12911,0 0.25386,0.01057 0.37171,0.03025c0.01446,-0.00811 0.029,-0.01622 0.04362,-0.0243z" data-paper-data="{&quot;index&quot;:null}" fill="#e6b0f5"></path><g><path d="M310.81744,191.5184c0.52434,0.0301 1.04876,0.06022 1.57311,0.09034c0,0 3.27479,0.18811 3.00189,2.44544c-0.2729,2.25731 -3.54769,2.06923 -3.54769,2.06923c-1.3788,-0.07921 -2.75763,-0.15851 -4.13637,-0.23825c3.78537,0.48747 7.66944,0.58221 11.49481,0.91181c0,0 3.26078,0.28096 2.85314,2.52862c-0.40759,2.24766 -3.66837,1.9667 -3.66837,1.9667c-6.85576,-0.59072 -13.00562,-1.12467 -19.60154,-2.56098c-2.01959,-0.43977 -5.0213,-0.01722 -6.07488,-1.28371c-0.7548,-0.90731 -0.84813,-1.8703 -0.49196,-2.80916l-0.31631,0.25397c0,0 -2.32364,1.60169 -4.64729,0c-2.32364,-1.60169 0,-3.20342 0,-3.20342l2.35788,-1.51387c2.47202,-0.97666 4.99237,-1.9656 7.56336,-2.8959c-0.02118,-0.10384 -0.0321,-0.20997 -0.0321,-0.31786c0,-1.25101 1.47122,-2.26515 3.28615,-2.26515h4.75346c2.31614,-0.63833 4.67196,-1.17874 7.06895,-1.57526l0.69871,-0.72631c5.28667,0 10.5734,0 15.86006,0c0,0 3.28615,0 3.28615,2.26515c0,2.26515 -3.28615,2.26515 -3.28615,2.26515c-1.68717,0 -3.37435,0 -5.06155,0c0.00018,0.01207 0.00028,0.02421 0.00028,0.03643c0,0.68049 -0.29659,1.15658 -0.71155,1.48961c4.44787,0.93021 8.83455,1.38485 13.08563,2.8137c0,0 2.93918,1.01301 1.46962,3.03901c-1.46962,2.026 -4.40881,1.01301 -4.40881,1.01301c-4.65461,-1.65765 -9.99934,-1.9351 -15.02018,-3.22194l-2.93385,-0.68758c0,0 -2.35165,-0.55202 -2.26925,-2.10556c-1.98922,0.06328 -3.7587,0.09483 -5.4342,-0.25663c-0.28173,0.47613 -0.59044,0.94778 -0.93188,1.40516h1.34722c0,0 1.99101,0 2.8735,1.06826z" data-paper-data="{&quot;index&quot;:null}" fill="#bd00f2"></path><path d="M331.38774,196.88459c0.08164,0.55008 0.25622,1.1051 0.38564,1.65543v-0.80772h0.0025c0.00078,-0.02212 0.00173,-0.04424 0.00288,-0.06635l-0.0049,-0.10245l0.01143,-0.00017c0.01498,-0.19709 0.04374,-0.39387 0.08434,-0.59015c-0.0486,-0.1951 -0.07999,-0.39102 -0.09141,-0.58713h-0.00485v-0.20116c-0.00652,-0.05415 -0.0125,-0.10835 -0.01799,-0.1626c-0.21293,-0.02307 -0.42687,-0.04775 -0.64112,-0.07369c-0.00015,0.00027 -0.00031,0.00054 -0.00046,0.00082l0.26616,0.905l-0.01552,0.00146zM331.9251,199.47515c0.09183,-0.08415 0.1856,-0.16611 0.28143,-0.24619c-0.15369,-0.07864 -0.2744,-0.17761 -0.34892,-0.28941c0.03257,0.1794 0.05669,0.35805 0.06749,0.5356zM328.69874,184.40573c0.00364,0.07545 0.00409,0.15124 -0.00046,0.22675c0.04557,-0.03474 0.09636,-0.06716 0.15169,-0.09687c-0.05215,-0.04021 -0.10244,-0.08356 -0.15125,-0.12988zM328.41042,185.37264l0.01949,0.00331l-0.28272,0.53405c0.0897,-0.00294 0.17955,-0.00589 0.26956,-0.00882c0.00526,-0.024 0.0105,-0.04794 0.01575,-0.07183l0.00485,-0.49047c-0.0089,0.01128 -0.01787,0.02254 -0.02693,0.03376zM335.04581,197.08974c0.06278,-0.04616 0.13494,-0.08802 0.21483,-0.12467c-0.15586,-0.1646 -0.27608,-0.34445 -0.36976,-0.53458c-0.01551,0.00684 -0.03129,0.01348 -0.04734,0.01992c-0.05406,0.18716 -0.09699,0.38235 -0.11712,0.58997l-0.0136,0.01775l0.01039,0.00066l-0.0602,0.30702zM320.95146,189.75449c0.40362,-0.0533 0.76631,-0.05946 1.10896,-0.03097c0.33181,-0.00391 0.70335,0.00273 1.10235,0.0275c0.5136,-0.12236 1.11229,-0.18256 1.69534,-0.23568c-0.00631,-0.09279 -0.01182,-0.18552 -0.01648,-0.27822l-2.09738,0.11886c-0.84783,0.20428 -1.43039,0.32778 -1.79281,0.39852zM350.19413,191.85324c-0.54948,-0.11021 -1.08073,-0.20683 -1.60061,-0.2958c-0.17128,0.09084 -0.35288,0.17629 -0.5288,0.2539c0.79226,0.59951 0.89476,1.21088 0.5087,1.76528c0.17704,0.00667 0.34973,0.01086 0.51713,0.0117h1.66215c0.72475,0 1.31227,0.33295 1.31227,0.74367c0,0.41071 -0.58751,0.74367 -1.31227,0.74367h-1.6667v-0.0028l-0.00628,0.00279c-0.22609,-0.00134 -0.47952,-0.00104 -0.75416,-0.00061c-0.34591,0.03005 -0.70205,0.03778 -1.08062,0.03565c-0.28413,0.18441 -0.72459,0.12735 -1.17681,-0.02264c-0.09254,-0.00203 -0.18664,-0.00396 -0.28243,-0.00566c-0.85443,0.19501 -1.7399,0.23562 -2.62678,0.19328c-0.59151,1.85115 -1.42925,3.67886 -1.43201,5.54044l-0.05027,0.05744l0.03689,0.00348l-0.32979,1.12137c-0.09397,0.35846 -0.63927,0.63347 -1.29796,0.63347c-0.62451,0 -1.14712,-0.24722 -1.27973,-0.5784l-0.32667,-0.74053l0.26353,-0.03734c-0.14106,-0.17453 -0.26831,-0.34871 -0.38594,-0.52451c-0.14527,0.32109 -0.65933,0.55843 -1.27124,0.55843c-0.62451,0 -1.14712,-0.24722 -1.27973,-0.5784l-0.32667,-0.74053l0.35032,-0.04963c-0.18664,-0.26895 -0.34108,-0.54461 -0.45765,-0.82389l-0.0356,-0.01585c-0.59186,0.72976 -1.47385,1.31915 -2.05463,2.14834l-0.03794,0.02227l0.01556,0.00441l-0.65397,0.74121c-0.21042,0.25154 -0.66257,0.42549 -1.18645,0.42549c-0.63592,0 -1.16621,-0.25635 -1.28662,-0.59664l-0.56374,-1.43762l0.23018,-0.02899c-0.29544,-0.53557 -0.50809,-1.05906 -0.67139,-1.62851c-0.23987,0.1772 -0.61731,0.29145 -1.04184,0.29145c-0.4348,0 -0.8202,-0.11983 -1.05898,-0.30439l-0.5972,-0.45126c-0.00351,0.00002 -0.00702,0.00002 -0.01051,0.00002c-0.72475,0 -1.31227,-0.33295 -1.31227,-0.74367v-1.13343h0.32896c-0.08884,-0.42931 -0.13532,-0.85239 -0.16125,-1.27589c-0.24447,-0.02721 -0.47286,-0.049 -0.68248,-0.06398c-1.46229,-0.10449 -3.95972,0.36252 -5.18201,-0.28946c-0.735,-0.39205 -1.98334,-0.99299 -1.49297,-1.49296c0.18477,-0.18838 1.83227,-0.46045 3.56521,-0.70283c-0.38273,-0.04998 -0.73651,-0.10785 -1.04632,-0.17579c-1.07327,-0.23536 -2.77232,-0.34571 -2.9809,-0.98709c-0.10153,-0.31218 0.22835,-0.58732 0.70352,-0.82134c-0.41691,-0.24153 -0.68316,-0.58574 -0.70919,-1.08023c-0.01619,-0.30754 0.88663,-0.6806 1.91156,-0.99108c-0.35415,-0.13318 -0.58762,-0.36119 -0.58762,-0.6201c0,-0.19798 0.1365,-0.37788 0.3591,-0.51114c-0.16031,-0.12332 -0.25507,-0.27571 -0.25507,-0.44064c0,-0.38329 0.51169,-0.69886 1.16906,-0.73929l2.58782,-0.18046l0.00298,0.01374l0.077,-0.01792c0.76521,-0.00039 1.56579,-0.01313 2.39259,-0.03283v-1.11396c0,-0.31986 0.35635,-0.59256 0.85635,-0.69755c-0.00852,-0.78105 0.44769,-1.53789 1.91242,-1.73666c0.95893,-0.13013 2.13096,1.24821 2.63078,0.76652c0.39935,-0.38487 0.26843,-0.89328 0.60058,-1.29646v-0.62506c0,-0.41071 0.58751,-0.74367 1.31227,-0.74367c0.64504,0 1.18139,0.26375 1.29155,0.61133l0.12551,0.35562c0.2365,-0.13076 0.55981,-0.21133 0.91632,-0.21133c0.40121,0 0.76037,0.10204 1.0011,0.26283l0.39049,-0.82892c0.13972,-0.3256 0.65762,-0.56732 1.27515,-0.56732c0.59031,0 1.08958,0.22089 1.25449,0.52477l0.82037,1.39474l-0.0075,0.00141c0.32553,0.40266 0.54085,0.83496 0.55801,1.33655c0.01331,0.04248 0.02025,0.08622 0.02025,0.13088v0.64609c0.32659,-0.25421 0.56492,-0.72811 0.98564,-0.61472c0.4684,0.12623 0.77905,0.35566 1.03495,0.62089c0.2407,-0.16059 0.59964,-0.26249 1.00058,-0.26249c0.72475,0 1.31227,0.33295 1.31227,0.74367v0.78876c0.52767,0.07299 0.93031,0.32679 0.99185,0.639c0.17282,0.05453 0.32162,0.13054 0.43519,0.22166c0.4907,0.05695 0.97957,0.12242 1.47078,0.19699l0.03357,-0.13953l2.58201,0.19953c0.64983,0.04444 1.15341,0.35803 1.15341,0.73827c0,0.33732 -0.39629,0.62218 -0.93944,0.71323l-1.8546,0.33769l-0.00079,-0.00138l-0.00697,0.00278c-0.02109,0.00365 -0.0424,0.00742 -0.0639,0.01128l0.60633,0.11454c0.53623,0.09345 0.926,0.3764 0.926,0.71093c0,0.29687 -0.30697,0.55312 -0.75082,0.67236l-0.30871,0.08748c0.25121,0.04309 0.50933,0.093 0.77716,0.14736l0.02617,-0.06675l2.53679,0.31947c0.60048,0.06825 1.05283,0.36875 1.05283,0.72913c0,0.41071 -0.58751,0.74367 -1.31227,0.74367h-1.33336v-0.06228zM332.67689,185.78526c0.11124,-0.37516 0.24633,-0.74249 0.40949,-1.0994c-0.00025,0 -0.00049,0 -0.00074,0c-0.42143,0 -0.79645,-0.11258 -1.03655,-0.28756c-0.41782,0.15897 -0.7857,0.27681 -1.11205,0.35721c0.08172,0.09695 0.12748,0.2055 0.12748,0.32012v0.74511c0.53623,-0.01408 1.07434,-0.02628 1.61239,-0.03547zM339.89384,185.8382c0.00025,0.00147 0.00049,0.00294 0.00074,0.00441c0.03982,0.03977 0.07335,0.08182 0.09984,0.12572c0.14946,0.01317 0.29807,0.02711 0.4458,0.04183v-0.55673h0.02992c-0.0255,-1.03576 0.11657,0.03178 -0.57629,0.38477zM327.44339,189.49623c0.12546,0.01095 0.25303,0.02281 0.38137,0.03541c0.04554,-0.48761 0.10726,-0.97093 0.18004,-1.44547h-0.54995c-0.02811,0.47086 -0.02805,0.94061 -0.01145,1.41006zM340.16859,188.75052c0.00209,0.06479 0.0027,0.12884 0.00142,0.19226c0.07123,-0.02002 0.14613,-0.0365 0.22398,-0.049c-0.08553,-0.042 -0.16138,-0.09016 -0.22541,-0.14325zM337.20948,183.22584c-0.08362,0.07782 -0.16957,0.15493 -0.25764,0.23134l0.28306,0.08843l-0.39388,0.40488c0.08504,0.21189 0.17579,0.42152 0.2711,0.62951l0.19882,-0.65407c-0.05335,-0.2319 -0.08667,-0.46852 -0.10146,-0.70011zM327.5823,191.51257c0.00165,0.0015 0.00328,0.003 0.00493,0.0045l0.15426,0.01245c-0.00241,-0.15148 -0.0026,-0.30315 -0.00076,-0.45483c-0.06435,-0.00176 -0.12975,-0.00334 -0.19595,-0.00475c0.01227,0.14748 0.02489,0.29502 0.0375,0.44264zM327.70762,193.23188c0.00915,0.18927 0.01601,0.37884 0.01989,0.56875c0.08219,0.01024 0.16399,0.02047 0.24534,0.03066c-0.0411,-0.2075 -0.0762,-0.41671 -0.10574,-0.62726c-0.05314,0.00936 -0.10631,0.01864 -0.1595,0.02783zM340.28695,187.55538c-0.07041,0.00671 -0.141,0.01323 -0.21178,0.01958c0.00767,0.13509 0.01878,0.26661 0.03073,0.39496c0.18873,-0.19185 0.52298,-0.33143 0.91815,-0.37081c-0.25934,-0.00027 -0.50461,-0.012 -0.7371,-0.04373zM344.4419,193.3742c-0.13092,-0.02732 -0.26534,-0.04901 -0.40237,-0.06652c-0.05503,0.03298 -0.11534,0.06312 -0.18016,0.08996c0.19034,-0.01272 0.38489,-0.02019 0.58252,-0.02345zM327.85202,195.49092c-0.00335,0.22383 -0.04603,0.43577 -0.16976,0.63437c0.09554,0.0277 0.18431,0.06183 0.2645,0.1014l0.15986,-0.18118v-0.51646c-0.08541,-0.01279 -0.17029,-0.0255 -0.2546,-0.03813z" data-paper-data="{&quot;index&quot;:null}" fill="#9b00c4"></path><path d="M331.81833,189.11184c0.17852,-0.81808 0.49533,-2.073 0.77674,-2.15926c1.25742,-0.38544 6.94359,0.53612 8.22035,1.73596c0.19432,-0.11407 0.48931,-0.20065 0.93705,-0.20065c1.31227,0 1.31227,0.74367 1.31227,0.74367c-0.00668,0.29746 -0.04374,0.61518 -0.10668,0.9477c1.13408,0.20768 1.72162,0.68673 0.1039,1.81618c-0.20274,0.14155 -0.46269,0.23828 -0.75518,0.3092c-0.73167,1.82135 -1.87595,3.73887 -2.90273,5.10451c-0.68245,0.90767 -1.78795,1.92604 -4.05407,1.12787c-0.75894,-0.2673 -0.90133,-0.88164 -1.19471,-1.35995c-0.30421,-0.49594 -0.59405,-1.01049 -0.86684,-1.53243c-0.23152,0.11615 -0.53597,0.18667 -0.8695,0.18667c-0.32761,0 -0.62719,-0.06804 -0.85712,-0.18054l-0.6858,0.13417c-0.14234,0.02998 -0.29637,0.04636 -0.45712,0.04636c-0.72475,0 -1.31227,-0.33295 -1.31227,-0.74367c0,-0.27564 0.26463,-0.51624 0.65774,-0.6447l1.37871,-0.46879c0.00203,-0.01064 0.00414,-0.02127 0.00632,-0.03189h-0.39717c-0.72475,0 -1.31227,-0.33295 -1.31227,-0.74367c0,-0.24864 0.21533,-0.46879 0.54606,-0.60381c-0.16272,-0.06719 -0.2812,-0.14348 -0.34144,-0.22819c-0.28595,-0.40219 0.30046,-0.96805 1.20452,-1.55506l-1.22233,0.09896c-0.06772,0.00611 -0.13718,0.00928 -0.20792,0.00928c-0.72475,0 -1.31227,-0.33295 -1.31227,-0.74367c0,-0.37327 0.48528,-0.68231 1.11781,-0.73556l1.97876,-0.1869l0.0077,0.02616l0.00008,-0.00001c0.2009,-0.05789 0.40326,-0.11399 0.60736,-0.16794zM335.78453,194.73248c0.19594,0.29728 0.38867,0.59515 0.55798,0.89691c0.20728,0.36945 0.23089,0.76422 0.34024,1.1469c0.04758,0.16651 0.01601,0.6705 0.06916,0.50452c0.31493,-0.98361 0.9333,-2.00391 1.57517,-3.03375l-0.85743,0.19436l-0.10511,-0.14892c-0.51904,0.1589 -1.0389,0.30272 -1.58002,0.43996zM334.24289,188.11023c-0.22439,0.02644 0.2661,0.19544 0.35714,0.33304l0.56401,-0.15981c-0.38462,-0.12258 -0.71422,-0.1976 -0.92115,-0.17323zM338.03004,189.28567c-0.06914,-0.01026 -0.14825,-0.02767 -0.23558,-0.05094l-0.56992,0.22603c0.64914,-0.07429 1.04466,-0.13962 0.8055,-0.17509zM336.78579,191.60846c0.02605,-0.00479 0.0521,-0.00956 0.07817,-0.01432c-0.04003,-0.00242 -0.08009,-0.00494 -0.12015,-0.00755c0.01404,0.00716 0.02805,0.01445 0.04199,0.02188z" data-paper-data="{&quot;index&quot;:null}" fill="#da7af5"></path></g></g></g></g></svg>