<svg version="1.1" xmlns="http://www.w3.org/2000/svg" xmlns:xlink="http://www.w3.org/1999/xlink" width="416.44294" height="80.5" viewBox="0,0,416.44294,80.5"><g transform="translate(23.0132,-161.83385)"><g data-paper-data="{&quot;isPaintingLayer&quot;:true}" fill-rule="nonzero" stroke-linejoin="miter" stroke-miterlimit="10" stroke-dasharray="" stroke-dashoffset="0" style="mix-blend-mode: normal"><path d="" data-paper-data="{&quot;index&quot;:null}" fill="none" stroke="#000000" stroke-width="1.5" stroke-linecap="round"></path><path d="" data-paper-data="{&quot;index&quot;:null}" fill="none" stroke="#000000" stroke-width="1.5" stroke-linecap="round"></path><path d="" data-paper-data="{&quot;index&quot;:null}" fill="none" stroke="#000000" stroke-width="1.5" stroke-linecap="round"></path><path d="" data-paper-data="{&quot;index&quot;:null}" fill="none" stroke="#000000" stroke-width="1.5" stroke-linecap="round"></path><g><path d="M258.75022,240.20132" fill="none" stroke="#d8d8d8" stroke-width="4" stroke-linecap="round"></path><path d="M192.58399,202.08385c0,-21.81525 44.79294,-39.5 100.04787,-39.5c55.25491,0 100.04787,17.68475 100.04787,39.5c0,21.81525 -44.79294,39.5 -100.04787,39.5c-55.25491,0 -100.04787,-17.68475 -100.04787,-39.5z" fill="#d8d8d8" stroke="#000000" stroke-width="1.5" stroke-linecap="butt"></path><path d="M325.77482,216.25244c0,0 -56.04232,8.02511 -69.84383,5.13694" data-paper-data="{&quot;index&quot;:null}" fill="none" stroke="#000000" stroke-width="1.5" stroke-linecap="round"></path><path d="M216.55414,173.68209l77.19591,11.59453l75.65013,-10.0822c0,0 10.41959,7.78425 13.25927,11.63853c2.72688,3.70117 6.87713,10.48332 6.87713,10.48332l-95.78659,16.19051l-102.82379,-17.86909c0,0 4.72709,-6.82746 7.82573,-10.37897c3.33481,-3.8222 17.80216,-11.57662 17.80216,-11.57662z" fill="#595959" stroke="#000000" stroke-width="0.5" stroke-linecap="round"></path><path d="M281.69539,195.80015c12.68809,5.46296 -6.76778,2.95529 -18.14022,2.95529c-11.37244,0 -20.59157,-8.86587 -20.59157,-8.86587c0,0 26.0437,0.44762 38.73179,5.91058z" fill="#ffffff" stroke="none" stroke-width="0" stroke-linecap="butt"></path><path d="M342.68432,189.94726c0,0 -9.21918,8.86587 -20.59157,8.86587c-11.37244,0 -30.82828,2.50768 -18.14021,-2.95529c12.68809,-5.46296 38.73178,-5.91058 38.73178,-5.91058z" data-paper-data="{&quot;index&quot;:null}" fill="#ffffff" stroke="none" stroke-width="0" stroke-linecap="butt"></path><g fill="none" stroke-linecap="round"><path d="M180.61674,207.27133c69.90476,3.91398 -25.0305,6.68202 -25.0305,6.68202" stroke="#ff0000" stroke-width="3.5"></path><path d="M207.58358,210.54298c-0.25392,6.44998 -26.33784,10.02189 -48.94022,8.83975" stroke="#ff0000" stroke-width="3.5"></path><g><path d="M187.23163,207.44411c0,0 -112.90431,1.76196 -182.80909,-2.15203c-69.90476,-3.91398 25.0305,-6.68202 25.0305,-6.68202" stroke="#ff0000" stroke-width="3.5"></path><path d="M45.27658,207.11125l34.04746,0.48165" stroke="#d8d8d8" stroke-width="4"></path><path d="M-20.58215,200.44409c0.25392,-6.44998 26.33784,-10.02189 48.94022,-8.83975" stroke="#ff0000" stroke-width="3.5"></path></g></g></g></g></g></svg>