<svg version="1.1" xmlns="http://www.w3.org/2000/svg" xmlns:xlink="http://www.w3.org/1999/xlink" width="112.64233" height="80.5" viewBox="0,0,112.64233,80.5"><g transform="translate(-167.60767,-139.75)"><g data-paper-data="{&quot;isPaintingLayer&quot;:true}" fill-rule="nonzero" stroke-linejoin="miter" stroke-miterlimit="10" stroke-dasharray="" stroke-dashoffset="0" style="mix-blend-mode: normal"><path d="" data-paper-data="{&quot;index&quot;:null}" fill="none" stroke="#000000" stroke-width="1.5" stroke-linecap="round"></path><path d="M200.5,180c0,-21.81525 17.68475,-39.5 39.5,-39.5c21.81525,0 39.5,17.68475 39.5,39.5c0,21.81525 -17.68475,39.5 -39.5,39.5c-21.81525,0 -39.5,-17.68475 -39.5,-39.5z" fill="#d8d8d8" stroke="#000000" stroke-width="1.5" stroke-linecap="butt"></path><path d="M225.51005,194.79568c5.44898,-2.88817 27.57511,5.13694 27.57511,5.13694" data-paper-data="{&quot;index&quot;:null}" fill="none" stroke="#000000" stroke-width="1.5" stroke-linecap="round"></path><path d="M240.25489,167.17564l6.93986,4.16391l-6.59286,1.38797l-3.29643,5.89888l-2.25545,-6.41937l-7.46035,-3.64343l7.11335,-2.08196l3.99042,-7.46035z" fill="#be82ff" stroke="#000000" stroke-width="0" stroke-linecap="round"></path><path d="M231.46729,179.20413l-10.7662,-2.43108" fill="none" stroke="#000000" stroke-width="1.5" stroke-linecap="round"></path><path d="M226.89268,167.15203l-1.38919,9.72431" fill="none" stroke="#000000" stroke-width="1.5" stroke-linecap="round"></path><path d="M218.14948,162.95374l10.3457,3.84548" fill="none" stroke="#000000" stroke-width="1.5" stroke-linecap="round"></path><g stroke-linecap="round"><path d="M205.35516,172.6208l6.74126,4.1848l-2.52161,8.72922l-7.50207,3.94226l-6.62997,-5.00956" fill="none" stroke="#4d6200" stroke-width="4.5"></path><path d="M218.46102,193.11624l-7.00497,-7.8314" fill="none" stroke="#4d6200" stroke-width="4.5"></path><path d="M188.30536,169.84771l6.38533,-1.58593l11.23454,7.8937l0.44877,7.0474l-5.83543,0.96125l-11.47694,-7.99621z" fill="#7d00ff" stroke="#7f00ff" stroke-width="0.5"></path><path d="M191.13647,171.6771l4.47437,-1.11131l7.87235,5.53132l0.31447,4.93829l-4.08905,0.67357l-8.04219,-5.60316z" fill="#be82ff" stroke="#7f00ff" stroke-width="0"></path><g fill="none" stroke="#4d6200"><path d="M241.22471,199.29524l23.95429,7.93525l-1.03821,2.7151l-23.60213,-8.05568z" stroke-width="3"></path><path d="M240.07975,203.42354l-4.28529,-6.20475l1.51537,-1.89492l5.11003,6.31604l19.94183,6.55402" stroke-width="3"></path><path d="M217.04782,193.0095l24.96052,1.10095l-1.39037,2.83555l-23.90404,-1.46225z" stroke-width="3"></path><path d="M240.25667,195.88951l-22.84301,-1.23508l-6.75953,-6.53863" stroke-width="4.5"></path></g></g><g stroke="none" stroke-width="0.5" stroke-linecap="butt"><path d="M228.07223,171.10582c0.39391,0.03317 0.76886,0.1248 1.11706,0.26563l0.11092,0.01547l0.03356,0.04646c1.43545,0.65089 2.37595,2.15299 2.23612,3.81334c-0.09605,1.14059 -0.68225,2.12231 -1.53393,2.75538l-0.0238,0.05434l-0.10861,0.03981c-0.52918,0.35975 -1.1506,0.58936 -1.81511,0.64736l-1.11357,0.11887l1.3515,0.71502l0.17719,3.85858l-1.2055,1.26636l-0.2106,0.30902l-0.43272,0.7169l-0.34771,0.57607l-0.24276,0.57049l-0.22848,0.30226l-0.13107,0.35551l-0.63795,0.93609l-1.47514,1.31382l-0.04072,-0.00322l-0.02316,0.03363l-1.94985,0.3166l-0.44157,-0.03719l-1.09658,0.29486l-2.58559,1.09813l-2.66347,2.1757l-2.38785,3.20219l-2.04406,2.78493l-0.05077,0.04213l-0.02701,0.06019l-2.11023,2.68174l-1.59239,2.33659l-1.77518,4.57891l-0.15933,0.47085l-0.25787,0.4012l-0.19162,0.56132l-0.24124,0.11214l-0.37734,0.58707l-1.52706,0.2982l-1.35705,0.63082l-0.4138,-0.28501l-0.49315,0.0963l-0.99278,-1.11976l-1.28136,-0.88259l-0.11186,-0.68885l-0.17649,-0.19907l0.04817,-0.59117l-0.07644,-0.47076l0.01129,-0.13405l-0.25458,-1.18717l-0.34618,-1.20707l-0.79281,-1.21976l-1.80205,-1.68103l-3.99626,-2.8357l-3.99645,-1.11946l-3.11299,-0.15311l-2.90277,0.61022l-1.59064,0.76661l-0.2875,0.38556l-0.45442,0.3713l-0.37888,0.44812l-1.9344,1.39254l-0.20755,0.08265l-0.1628,0.15299l-0.18664,0.10425l-0.04796,0.05363l-0.05121,0.00175l-0.15423,0.08614l-1.90676,0.51617l-0.8342,-0.50266l-0.91397,0.03146l-0.60128,-0.94448l-0.959,-0.57786l0.00896,-0.91447l-0.52303,-0.82157l0.4691,-1.91888l0.08232,-0.15631l0.0005,-0.05124l0.05243,-0.04927l0.23469,-0.44565l-0.00436,-0.03907l0.06759,-0.08098l0.066,-0.12533l0.5773,-0.64545l0.55487,-0.66483l0.11442,-0.08348l0.07032,-0.07862l0.03929,-0.00135l1.861,-1.35783l0.28183,-0.11432l1.2165,-1.63139l1.49724,-2.71639l0.75309,-6.24848l-1.499,-7.22837l-3.25124,-5.38431l-0.81965,-0.63089l-2.18641,-1.56354l-1.28014,-1.50446l0.02335,-0.22879l-0.12901,-0.11159l0.31801,-1.74133l0.17963,-1.76098l0.15498,-0.07124l0.04132,-0.22625l1.64856,-1.08833l1.26293,-0.44464l1.99439,-0.74401l4.04227,-1.87018l2.30969,-1.97388l0.02893,-0.01441l0.01917,-0.02602l4.10761,-3.39546l0.33526,-0.59651l0.01377,-0.07034l-0.09408,-0.84288l0.11235,-0.83449l0.08299,-0.95463l0.05104,-0.04106l0.01717,-0.12756l1.5209,-1.10963l1.42067,-1.14276l0.09598,0.03622l0.08289,-0.06047l1.67359,0.72338l1.76139,0.66477l0.0505,0.11839l0.06013,0.02598l0.3341,0.89809l0.22297,0.52264l0.18506,0.33981l1.05978,1.59972l3.0852,2.44465l6.03399,1.58384l7.53842,-2.58509l2.3206,-3.75806l0.22928,-0.61051l1.12232,-1.62561l0.67246,-0.10843l0.3893,-0.48477l1.37748,0.19989l1.37416,-0.22158l0.39688,0.47856l0.67409,0.09782l1.14781,1.60769l0.23029,0.58499l0.0719,0.54966l0.18026,0.52422l0.56323,6.51479l0.52884,4.97593l0.8052,4.67727l1.66694,2.95995l2.17911,0.82323l1.97708,-0.21106c0.26222,-0.03312 0.53187,-0.03946 0.80583,-0.01639zM219.09905,177.18908l-0.3873,-0.26849l-0.23996,-0.0015l-0.45371,-0.4794l-0.54245,-0.37605l-0.03774,-0.23699l-0.32393,-0.34228l-2.67513,-4.75019l-0.17333,-0.63142l-0.26428,-0.59908l-0.93864,-5.4524l0.00943,-0.12628l-0.04353,-0.11891l-0.28838,-2.71349l-9.52861,3.26758l-0.15099,0.01292l-0.09014,0.0919l-0.86508,-0.01013l-0.86198,0.07377l-0.09667,-0.085l-0.15152,-0.00177l-7.52672,-1.97565l-0.01284,0.00514l-0.04482,-0.02029l-0.34749,-0.09122l-0.69017,-0.37855l-0.71709,-0.32463l-0.28158,-0.22311l-0.04313,-0.02366l-0.00358,-0.01336l-2.58652,-2.04953l-4.22537,3.4928l-2.68725,2.29656l-0.471,0.23465l-0.40973,0.33019l-2.47318,1.14423l3.67711,6.08959l0.19039,0.61934l0.28153,0.5836l1.75946,8.48436l-0.02515,0.62062l0.07746,0.61628l-0.87133,7.2295l3.25996,0.16033l0.41358,0.12527l0.43196,0.01216l5.05268,1.41532l0.57145,0.32575l0.61275,0.23919l4.74831,3.36934l0.16912,0.19727l0.22731,0.12587l2.1427,1.9988l0.71636,-1.05114l0.10022,-0.08926l0.05493,-0.12245l2.15169,-2.73443l2.01461,-2.74484l0.01151,-0.00955l0.00578,-0.01379l2.67875,-3.59232l0.36558,-0.29871l0.28226,-0.37843l3.45241,-2.82016l0.49222,-0.2317l0.4342,-0.32777l3.33418,-1.41607l0.26691,-0.04215l0.23613,-0.13136l1.81884,-0.48908l0.48146,-0.79766l0.00001,-0.00001l-0.00001,-0.00001l0.48733,-0.80739l0.0767,-0.07631l0.03742,-0.10151l0.39138,-0.5743l-0.00044,-0.00966l0.02474,-0.02598l0.22226,-0.32616l0.57974,-0.51633l0.53527,-0.56229l0.30989,-0.19646z" fill="#7d00ff"></path><path d="M221.14354,172.85511c0.30059,0.02531 0.58668,0.09523 0.85237,0.2027l0.08465,0.01181l0.02561,0.03546c1.09533,0.49665 1.81298,1.64286 1.7063,2.90978c-0.07329,0.87033 -0.5206,1.61945 -1.17048,2.1025l-0.01817,0.04148l-0.08287,0.03037c-0.4038,0.27451 -0.87796,0.44972 -1.38503,0.49398l-0.8497,0.09071l1.03126,0.54559l0.13522,2.94431l-0.91986,0.9663l-0.16069,0.2358l-0.33019,0.54702l-0.26533,0.43958l-0.18524,0.43533l-0.17434,0.23063l-0.1,0.27126l-0.48679,0.71431l-1.12561,1.0025l-0.03107,-0.00247l-0.01768,0.02566l-1.48783,0.24158l-0.33694,-0.02837l-0.83676,0.225l-1.97295,0.83794l-2.03237,1.66017l-1.82206,2.44347l-1.55973,2.12506l-0.03874,0.03214l-0.02061,0.04592l-1.61021,2.04631l-1.21506,1.78294l-1.35457,3.49396l-0.12158,0.3593l-0.19677,0.30614l-0.14623,0.42832l-0.18409,0.08558l-0.28794,0.44795l-1.16523,0.22755l-1.03549,0.48136l-0.31574,-0.21748l-0.37629,0.07348l-0.75753,-0.85446l-0.97775,-0.67347l-0.08535,-0.52564l-0.13467,-0.15189l0.03676,-0.45109l-0.05832,-0.35921l0.00862,-0.10229l-0.19427,-0.90587l-0.26416,-0.92107l-0.60495,-0.93074l-1.37507,-1.28272l-3.04937,-2.16379l-3.04951,-0.85421l-2.37538,-0.11682l-2.21496,0.46563l-1.21375,0.58496l-0.21938,0.2942l-0.34675,0.28332l-0.28911,0.34195l-1.47605,1.06259l-0.15838,0.06307l-0.12423,0.11673l-0.14242,0.07954l-0.03661,0.0409l-0.03907,0.00134l-0.11768,0.06573l-1.45496,0.39386l-0.63653,-0.38355l-0.69741,0.02401l-0.45881,-0.7207l-0.73177,-0.44094l0.00684,-0.69778l-0.3991,-0.62691l0.35794,-1.46422l0.0628,-0.11927l0.00038,-0.03909l0.04,-0.0376l0.17908,-0.34006l-0.00333,-0.0298l0.05157,-0.06179l0.05036,-0.09562l0.44052,-0.49252l0.4234,-0.50731l0.08733,-0.0637l0.05366,-0.05999l0.02997,-0.00103l1.42005,-1.03608l0.21505,-0.08723l0.92827,-1.24483l1.14247,-2.07277l0.57465,-4.76794l-1.14382,-5.51565l-2.48087,-4.10853l-0.62543,-0.48141l-1.66834,-1.19306l-0.97681,-1.14797l0.01782,-0.17459l-0.09844,-0.08514l0.24266,-1.32875l0.13706,-1.34374l0.11825,-0.05435l0.03153,-0.17263l1.25794,-0.83046l0.96368,-0.33928l1.52183,-0.56772l3.08449,-1.42704l1.76241,-1.50619l0.02209,-0.011l0.01464,-0.01985l3.13433,-2.59093l0.25582,-0.45515l0.01051,-0.05366l-0.07178,-0.64316l0.08572,-0.63675l0.06332,-0.72842l0.03895,-0.03133l0.01311,-0.09733l1.16052,-0.84671l1.08406,-0.87198l0.07324,0.02765l0.06324,-0.04614l1.27704,0.55199l1.34404,0.50726l0.03854,0.09033l0.04589,0.01985l0.25494,0.6853l0.17013,0.3988l0.1412,0.25929l0.80867,1.22068l2.35419,1.86541l4.60426,1.20855l5.75223,-1.97257l1.77074,-2.86761l0.17496,-0.46585l0.85639,-1.24042l0.51313,-0.08274l0.29705,-0.3699l1.05109,0.15251l1.04854,-0.16906l0.30287,0.36517l0.51437,0.07463l0.87584,1.22675l0.17573,0.44638l0.05486,0.41943l0.13755,0.40001l0.42976,4.97113l0.40353,3.7969l0.61441,3.56901l1.27197,2.25862l1.66278,0.62818l1.50863,-0.16105c0.20009,-0.02526 0.40584,-0.03011 0.61488,-0.0125zM214.29651,177.49698l-0.29553,-0.20489l-0.18311,-0.00114l-0.3462,-0.36581l-0.41391,-0.28695l-0.0288,-0.18084l-0.24718,-0.26119l-2.04126,-3.62466l-0.13227,-0.48181l-0.20167,-0.45713l-0.71623,-4.16047l0.00718,-0.09636l-0.03322,-0.09073l-0.22006,-2.07054l-7.27085,2.49333l-0.11521,0.00987l-0.06878,0.07012l-0.66009,-0.00773l-0.65775,0.0563l-0.07376,-0.06487l-0.11562,-0.00136l-5.7433,-1.50753l-0.0098,0.00394l-0.0342,-0.01549l-0.26516,-0.0696l-0.52664,-0.28884l-0.54718,-0.24771l-0.21485,-0.17026l-0.0329,-0.01806l-0.00274,-0.01019l-1.97365,-1.56389l-3.22418,2.6652l-2.05052,1.75239l-0.3594,0.17904l-0.31264,0.25195l-1.88717,0.87311l2.80584,4.64669l0.14529,0.47258l0.21482,0.44532l1.34257,6.47402l-0.01919,0.47357l0.05911,0.47026l-0.66486,5.5165l2.48753,0.12235l0.3156,0.09559l0.32962,0.00929l3.85547,1.07996l0.43605,0.24858l0.46757,0.18252l3.62322,2.57098l0.12903,0.15053l0.17345,0.09604l1.635,1.52519l0.54661,-0.80208l0.07648,-0.06811l0.04192,-0.09343l1.64185,-2.08651l1.53726,-2.09446l0.00879,-0.0073l0.00441,-0.01053l2.04403,-2.74114l0.27898,-0.22794l0.21539,-0.28876l2.63439,-2.15193l0.37559,-0.1768l0.33132,-0.2501l2.54416,-1.08055l0.20365,-0.03217l0.18019,-0.10024l1.38786,-0.37321l0.36738,-0.60867l0.00001,-0.00001l-0.00001,-0.00001l0.37186,-0.61608l0.05853,-0.05823l0.02854,-0.07746l0.29863,-0.43823l-0.00033,-0.00737l0.01887,-0.01984l0.1696,-0.24886l0.44236,-0.39399l0.40844,-0.42907l0.23647,-0.14991z" fill="#be82ff"></path></g></g></g></svg>