<svg version="1.1" xmlns="http://www.w3.org/2000/svg" xmlns:xlink="http://www.w3.org/1999/xlink" width="138.86345" height="80.5" viewBox="0,0,138.86345,80.5"><defs><radialGradient cx="522.051" cy="179.02545" r="10.40477" gradientUnits="userSpaceOnUse" id="color-1"><stop offset="0" stop-color="#ffffff"/><stop offset="1" stop-color="#f3fffe"/></radialGradient><radialGradient cx="431.6451" cy="176.51524" r="10.40477" gradientUnits="userSpaceOnUse" id="color-2"><stop offset="0" stop-color="#ffffff"/><stop offset="1" stop-color="#f3fffe"/></radialGradient></defs><g transform="translate(-410.03425,-137.92397)"><g stroke-miterlimit="10"><path d="" fill="none" stroke="#000000" stroke-width="1.5" stroke-linecap="round"/><path d="" fill="none" stroke="#000000" stroke-width="1.5" stroke-linecap="round"/><path d="M439.48854,178.17397c0,-21.81525 17.68475,-39.5 39.5,-39.5c21.81525,0 39.5,17.68475 39.5,39.5c0,21.81525 -17.68475,39.5 -39.5,39.5c-21.81525,0 -39.5,-17.68475 -39.5,-39.5z" fill="#ffffff" stroke="#000000" stroke-width="1.5" stroke-linecap="butt"/><path d="M472.79024,167.28627c0,1.80048 -0.36489,3.26006 -0.81501,3.26006c-0.45012,0 -0.81502,-1.45958 -0.81502,-3.26006c0,-1.80048 0.3649,-3.26006 0.81502,-3.26006c0.45012,0 0.81501,1.45958 0.81501,3.26006z" fill="none" stroke="#000000" stroke-width="1.5" stroke-linecap="butt"/><path d="M479.10661,167.38815c0,1.85674 -0.3649,3.36194 -0.81502,3.36194c-0.45012,0 -0.81501,-1.5052 -0.81501,-3.36194c0,-1.85674 0.36489,-3.36193 0.81501,-3.36193c0.45012,0 0.81502,1.50519 0.81502,3.36193z" fill="none" stroke="#000000" stroke-width="1.5" stroke-linecap="butt"/><path d="M483.51684,192.16256c0,0 -5.0993,0.9633 -8.57383,1.0335c-3.23174,0.06529 -8.54149,-1.84852 -8.54149,-1.84852" fill="none" stroke="#000000" stroke-width="1.5" stroke-linecap="round"/><path d="M478.01549,180.95609c0,1.91302 -1.7369,3.46381 -3.87947,3.46381c-2.14257,0 -3.87948,-1.5508 -3.87948,-3.46381c0,-1.91302 1.7369,-3.46382 3.87948,-3.46382c2.14257,0 3.87947,1.5508 3.87947,3.46382z" fill="#ff6900" stroke="#000000" stroke-width="0" stroke-linecap="butt"/><path d="M511.64624,179.02545c0,-5.74639 4.65837,-10.40477 10.40477,-10.40477c5.74639,0 10.40477,4.65837 10.40477,10.40477c0,5.74639 -4.65837,10.40477 -10.40477,10.40477c-5.74639,0 -10.40477,-4.65837 -10.40477,-10.40477z" fill="url(#color-1)" stroke="#000000" stroke-width="1" stroke-linecap="butt"/><path d="M507.20858,163.89573c1.91689,2.70208 4.11111,5.26958 3.30989,8.91839c-0.25746,1.17243 -1.17808,2.09186 -1.7601,3.14171c-0.64381,1.16128 -1.08555,2.45668 -1.91738,3.49166c-0.39556,0.49217 -0.83709,0.97037 -1.32765,1.38136c0.80115,0.34921 1.55996,0.82421 2.3014,1.28137c2.9772,1.83567 6.09087,5.31857 6.97525,8.76714c0.15411,0.60096 -0.27543,1.23016 -0.22033,1.84811c0.01226,0.13753 0.24762,-0.12255 0.36816,-0.1899c1.27808,-0.71411 2.44702,-1.66675 3.82748,-2.15435c4.22311,-1.49165 7.70523,0.13911 11.51028,1.79978c1.61867,3.70359 0.03294,0.2205 0.05508,-0.40142c0.04545,-1.27752 0.36808,-2.55091 0.82259,-3.74572c1.56352,-4.11004 4.95706,-7.0563 8.42636,-9.61678c-0.63043,-0.33461 -1.24723,-0.7057 -1.86059,-1.03915c-3.42463,-1.86177 -7.31412,-5.67363 -9.77642,-8.74095c-0.84802,-1.05639 -1.68203,-2.14932 -2.27624,-3.36668c-0.19742,-0.40448 0.37724,-1.15011 -0.02604,-1.35c-0.35909,-0.178 -0.30451,0.7857 -0.62388,1.02785c-0.85827,0.65078 -1.78077,1.29039 -2.81774,1.58168c-1.06575,0.2994 -6.34812,0.72723 -7.84175,0.38958c-1.40453,-0.31752 -5.10206,-1.77913 -7.1484,-3.02361zM502.4809,164.89777c-1.22636,-0.77583 -1.04134,-2.38753 -1.04134,-2.38753l0.2953,-1.79971c0.87865,-1.3146 1.10647,-3.54276 2.63596,-3.9438c1.57006,-0.41167 2.92914,1.39944 4.39291,2.10081c2.04714,0.98093 4.44388,2.63513 6.64539,3.16376c0.62734,0.15064 5.2361,-0.255 5.2601,-0.26185c2.49118,-0.71059 2.89374,-3.65002 6.43807,-2.62918c1.42763,0.41119 1.90832,2.27971 2.79426,3.47232c1.14637,1.54319 2.23249,3.15639 3.60887,4.49846c2.07748,2.02571 4.10875,4.49746 6.68172,5.9213c1.0667,0.59029 2.17287,1.10062 3.29437,1.58018l0.00903,-0.09028l3.1187,0.31164c0.77988,0.06859 1.51578,0.50144 1.94108,1.22867c0.69705,1.19184 0.29592,2.72309 -0.89593,3.42014c-0.04894,0.02862 -0.09844,0.05538 -0.14845,0.08033l-3.38817,1.72296c-3.07609,2.20425 -6.94161,4.76251 -8.29192,8.51423c-0.79665,2.21344 -0.61114,7.3023 -2.83099,8.48637c-1.53524,0.81891 -3.30545,-1.08826 -4.95815,-1.63238c-2.43181,-1.06963 -4.96622,-2.5912 -7.69492,-1.52968c-3.52012,1.36938 -5.72113,4.53195 -9.57354,0.85472c-0.92377,-0.88177 -0.42557,-2.52542 -0.79631,-3.74747c-0.69456,-2.28948 -2.79542,-4.68578 -4.83689,-5.89715c-1.57069,-0.93202 -6.72457,-2.48284 -7.05617,-4.50682c-0.46595,-2.84402 3.60431,-3.92994 4.89914,-5.56088c0.64736,-0.8154 0.90578,-1.87706 1.4266,-2.77856c1.88224,-3.25792 0.71061,-3.87113 -1.44041,-6.92828c0,0 -0.52741,-0.75085 -0.48828,-1.6623z" fill="#ffffff" stroke="none" stroke-width="0.5" stroke-linecap="butt"/><path d="M510.43761,167.76176c1.50046,2.11506 3.218,4.1248 2.59084,6.98091c-0.20153,0.91773 -0.92215,1.63741 -1.37773,2.45919c-0.50395,0.90901 -0.84974,1.92298 -1.50084,2.73312c-0.30962,0.38525 -0.65523,0.75957 -1.03923,1.08127c0.62711,0.27336 1.22106,0.64515 1.80144,1.003c2.33043,1.43688 4.76769,4.16314 5.45993,6.86255c0.12065,0.4704 -0.21558,0.96292 -0.17246,1.44661c0.00961,0.10767 0.19384,-0.09592 0.28819,-0.14864c1.00044,-0.55897 1.91543,-1.30466 2.996,-1.68633c3.30565,-1.16759 6.03131,0.10889 9.00975,1.40878c1.26701,2.89901 0.0258,0.17261 0.04311,-0.31422c0.03557,-1 0.28811,-1.99675 0.64389,-2.93199c1.22385,-3.21717 3.88018,-5.52336 6.59578,-7.52762c-0.49347,-0.26192 -0.97628,-0.5524 -1.45639,-0.81341c-2.68066,-1.45731 -5.72518,-4.44107 -7.65255,-6.84202c-0.6638,-0.82689 -1.31662,-1.6824 -1.78174,-2.63531c-0.15454,-0.3166 0.29527,-0.90026 -0.02038,-1.05674c-0.28109,-0.13933 -0.23837,0.61501 -0.48832,0.80456c-0.67182,0.50939 -1.39391,1.01006 -2.2056,1.23807c-0.83423,0.23436 -4.96904,0.56925 -6.13817,0.30494c-1.09941,-0.24853 -3.99368,-1.39262 -5.59546,-2.36676zM506.73699,168.54611c-0.95995,-0.60729 -0.81511,-1.86888 -0.81511,-1.86888l0.23112,-1.40875c0.68777,-1.02902 0.8661,-2.77312 2.06333,-3.08705c1.22897,-0.32224 2.29281,1.09543 3.43857,1.64445c1.60242,0.76785 3.47848,2.06267 5.20172,2.47646c0.49106,0.11792 4.09859,-0.1996 4.11738,-0.20496c1.94999,-0.55623 2.26509,-2.85707 5.03945,-2.05801c1.11748,0.32185 1.49375,1.78445 2.18723,2.71798c0.89732,1.20793 1.74751,2.47067 2.82488,3.5212c1.62616,1.58564 3.21617,3.52042 5.23017,4.63495c0.83497,0.46206 1.70083,0.86153 2.5787,1.23689l0.00707,-0.07066l2.44119,0.24395c0.61046,0.0537 1.18649,0.39249 1.51938,0.96175c0.5456,0.93292 0.23163,2.13153 -0.70129,2.67713c-0.0383,0.02241 -0.07706,0.04335 -0.1162,0.06288l-2.65211,1.34868c-2.40785,1.72539 -5.4336,3.7279 -6.49055,6.66456c-0.62359,1.73258 -0.47838,5.71594 -2.21599,6.64278c-1.20172,0.641 -2.58737,-0.85184 -3.88105,-1.27775c-1.90352,-0.83725 -3.88734,-2.02827 -6.02324,-1.19738c-2.75541,1.0719 -4.47826,3.54741 -7.49376,0.66905c-0.72309,-0.69021 -0.33311,-1.97679 -0.62331,-2.93335c-0.54367,-1.7921 -2.18814,-3.66782 -3.78612,-4.61602c-1.22947,-0.72954 -5.2637,-1.94346 -5.52327,-3.52772c-0.36472,-2.22618 2.82128,-3.07618 3.83484,-4.35283c0.50672,-0.63826 0.70903,-1.46927 1.11669,-2.17492c1.47333,-2.55016 0.55624,-3.03016 -1.12749,-5.42316c0,0 -0.41283,-0.58774 -0.38221,-1.30116z" fill="#bfecff" stroke="none" stroke-width="0.5" stroke-linecap="butt"/><path d="M421.24034,176.51524c0,-5.74639 4.65837,-10.40477 10.40477,-10.40477c5.74639,0 10.40477,4.65837 10.40477,10.40477c0,5.74639 -4.65837,10.40477 -10.40477,10.40477c-5.74639,0 -10.40477,-4.65837 -10.40477,-10.40477z" fill="url(#color-2)" stroke="#000000" stroke-width="1" stroke-linecap="butt"/><path d="M452.15697,170.21048c-3.26254,0.57585 -6.52215,1.45992 -9.47684,-0.82603c-0.9494,-0.73452 -1.38629,-1.96009 -2.08596,-2.93546c-0.77397,-1.07893 -1.7556,-2.03263 -2.33491,-3.22741c-0.27548,-0.56815 -0.5187,-1.17188 -0.68014,-1.79117c-0.65854,0.57458 -1.4126,1.05704 -2.14313,1.53147c-2.93336,1.90496 -7.41381,3.22818 -10.90906,2.55134c-0.60909,-0.11796 -0.99389,-0.77547 -1.57594,-0.99019c-0.12954,-0.0478 0.00477,0.27625 0.01403,0.414c0.09831,1.46073 0.45894,2.92496 0.30872,4.38127c-0.45954,4.45515 -3.42383,6.90413 -6.55337,9.63221c-4.04001,-0.12237 -0.21339,-0.0646 0.33921,0.22159c1.13511,0.5879 2.1479,1.42454 3.03316,2.34673c3.04526,3.1723 4.25543,7.50035 5.08454,11.73173c0.57226,-0.42653 1.17165,-0.82514 1.73553,-1.23672c3.14846,-2.29815 8.2583,-4.18173 12.08438,-5.09414c1.31771,-0.31424 2.66243,-0.60019 4.017,-0.61612c0.45005,-0.00532 0.87796,0.83321 1.23123,0.55434c0.31459,-0.24834 -0.57974,-0.61151 -0.66189,-1.00379c-0.22076,-1.05424 -0.40396,-2.16172 -0.22339,-3.2236c0.1856,-1.09134 2.05996,-6.04846 3.00445,-7.25381c0.88815,-1.13345 3.79176,-3.84953 5.79238,-5.16624zM453.27496,165.50886c1.2261,-0.77625 2.6035,0.08083 2.6035,0.08083l1.50012,1.03721c0.812,1.35679 2.72822,2.51641 2.43599,4.07036c-0.29998,1.59519 -2.51855,2.04824 -3.77897,3.07093c-1.76278,1.43027 -4.28366,2.88828 -5.70374,4.65165c-0.40466,0.50251 -2.01077,4.84136 -2.01486,4.86596c-0.42411,2.55559 2.06014,4.17759 -0.37956,6.94388c-0.98269,1.11425 -2.87714,0.74888 -4.33419,1.03908c-1.88535,0.37549 -3.80819,0.66659 -5.61024,1.33606c-2.71998,1.01047 -5.82332,1.78828 -8.21145,3.50416c-0.99007,0.71138 -1.92476,1.49267 -2.83818,2.30095l0.07773,0.04679l-1.61658,2.68516c-0.39581,0.67545 -1.10199,1.15526 -1.94127,1.22836c-1.37551,0.11981 -2.58769,-0.89813 -2.7075,-2.27363c-0.00492,-0.05648 -0.00791,-0.11269 -0.00906,-0.16855l-0.10689,-3.7996c-0.67544,-3.72355 -1.33294,-8.31208 -4.14562,-11.13831c-1.65942,-1.66743 -6.33795,-3.67795 -6.45791,-6.19101c-0.08297,-1.73802 2.39836,-2.52154 3.59756,-3.7823c2.00759,-1.73994 4.46752,-3.37916 4.67616,-6.29962c0.26913,-3.76749 -1.64695,-7.11037 3.32533,-9.01805c1.1923,-0.45744 2.46455,0.69637 3.72766,0.88438c2.36644,0.35226 5.43137,-0.52073 7.39997,-1.84724c1.51462,-1.02061 5.12225,-5.01468 7.09338,-4.44802c2.76977,0.79624 2.00897,4.93957 2.92873,6.8079c0.45984,0.93409 1.30871,1.62206 1.90052,2.47863c2.13873,3.0956 3.19442,2.29919 6.87807,1.66376c0,0 0.90435,-0.15525 1.71134,0.27023z" fill="#ffffff" stroke="none" stroke-width="0.5" stroke-linecap="butt"/><path d="M447.28087,171.47397c-2.55377,0.45076 -5.10525,1.14276 -7.41807,-0.64658c-0.74317,-0.57496 -1.08513,-1.53428 -1.6328,-2.29776c-0.60583,-0.84453 -1.37419,-1.59104 -1.82767,-2.52627c-0.21564,-0.44472 -0.40601,-0.91731 -0.53237,-1.40204c-0.51548,0.44975 -1.10571,0.82741 -1.67755,1.19878c-2.29611,1.49112 -5.80322,2.52688 -8.53915,1.99707c-0.47676,-0.09232 -0.77797,-0.607 -1.23359,-0.77507c-0.10141,-0.03741 0.00372,0.21623 0.011,0.32407c0.07697,1.14341 0.35923,2.28953 0.24165,3.42949c-0.3597,3.4873 -2.68003,5.40426 -5.12969,7.53968c-3.16233,-0.09579 -0.16702,-0.05057 0.26553,0.17345c0.88852,0.46018 1.68126,1.11507 2.37421,1.83692c2.3837,2.48313 3.33098,5.87095 3.97995,9.18311c0.44793,-0.33387 0.91712,-0.64587 1.3585,-0.96806c2.46448,-1.79889 6.46424,-3.27329 9.45914,-3.98747c1.03146,-0.24597 2.08404,-0.46978 3.14434,-0.48227c0.35229,-0.00414 0.68722,0.65221 0.96375,0.43392c0.24625,-0.19439 -0.45381,-0.47865 -0.5181,-0.78572c-0.17281,-0.8252 -0.3162,-1.69211 -0.17486,-2.52328c0.14526,-0.85424 1.61245,-4.73449 2.35175,-5.67799c0.69521,-0.88722 2.96803,-3.01324 4.53403,-4.04392zM448.15599,167.79375c0.95974,-0.60763 2.0379,0.06327 2.0379,0.06327l1.17423,0.81188c0.63558,1.06205 2.13553,1.96974 1.90678,3.18612c-0.23482,1.24863 -1.9714,1.60327 -2.95801,2.40378c-1.37982,1.11956 -3.35306,2.26083 -4.46464,3.64111c-0.31675,0.39333 -1.57395,3.78961 -1.57714,3.80885c-0.33197,2.00041 1.61258,3.27003 -0.2971,5.43535c-0.76921,0.87218 -2.25211,0.58621 -3.39263,0.81337c-1.47577,0.29394 -2.98089,0.52179 -4.39146,1.04581c-2.1291,0.79096 -4.55825,1.39978 -6.42758,2.74291c-0.77498,0.55685 -1.50662,1.16837 -2.22161,1.80109l0.06084,0.03663l-1.26537,2.10183c-0.30981,0.52872 -0.86258,0.90429 -1.51955,0.96152c-1.07668,0.09378 -2.02554,-0.70302 -2.11931,-1.7797c-0.00385,-0.04419 -0.00619,-0.08819 -0.00709,-0.13192l-0.08367,-2.97417c-0.52871,-2.91465 -1.04337,-6.50632 -3.24501,-8.71858c-1.29892,-1.30519 -4.96107,-2.87895 -5.05499,-4.84604c-0.06494,-1.36043 1.87733,-1.97374 2.81602,-2.96062c1.57145,-1.36196 3.49698,-2.64507 3.6603,-4.93107c0.21067,-2.94904 -1.28915,-5.5657 2.60292,-7.05895c0.93328,-0.35807 1.92913,0.54508 2.91786,0.69225c1.85234,0.27573 4.25143,-0.4076 5.79239,-1.44593c1.18558,-0.79887 4.00946,-3.92526 5.55239,-3.48174c2.16806,0.62326 1.57255,3.8665 2.29248,5.32894c0.35994,0.73115 1.0244,1.26968 1.48763,1.94017c1.6741,2.42309 2.50047,1.79971 5.38386,1.30232c0,0 0.70788,-0.12153 1.33956,0.21153z" fill="#bfecff" stroke="none" stroke-width="0.5" stroke-linecap="butt"/></g></g></svg>