<svg version="1.1" xmlns="http://www.w3.org/2000/svg" xmlns:xlink="http://www.w3.org/1999/xlink" width="65.88942" height="65.88942" viewBox="0,0,65.88942,65.88942"><g transform="translate(-207.05529,-147.05529)"><g data-paper-data="{&quot;isPaintingLayer&quot;:true}" fill-rule="nonzero" stroke-linejoin="miter" stroke-miterlimit="10" stroke-dasharray="" stroke-dashoffset="0" style="mix-blend-mode: normal"><path d="" data-paper-data="{&quot;index&quot;:null}" fill="#ffffff" stroke="#ffffff" stroke-width="1.5" stroke-linecap="round"></path><path d="" data-paper-data="{&quot;index&quot;:null}" fill="#ffffff" stroke="#ffffff" stroke-width="1.5" stroke-linecap="round"></path><path d="M225.27002,150.53975c16.27045,-8.13514 36.05509,-1.54018 44.19023,14.73027c8.13514,16.27045 1.54018,36.05509 -14.73027,44.19023c-16.27045,8.13514 -36.05509,1.54018 -44.19023,-14.73027c-8.13514,-16.27045 -1.54018,-36.05509 14.73027,-44.19023z" fill="#000000" stroke="none" stroke-width="0" stroke-linecap="butt"></path><path d="" data-paper-data="{&quot;index&quot;:null}" fill="#ffffff" stroke="#000000" stroke-width="1.5" stroke-linecap="round"></path><path d="" data-paper-data="{&quot;index&quot;:null}" fill="#ffffff" stroke="#000000" stroke-width="1.5" stroke-linecap="round"></path><path d="" data-paper-data="{&quot;index&quot;:null}" fill="#ffffff" stroke="#ffffff" stroke-width="1.5" stroke-linecap="round"></path><path d="M239.67326,157.69286c0,-2.04837 1.66053,-3.7089 3.7089,-3.7089c2.04837,0 3.7089,1.66053 3.7089,3.7089c0,2.04837 -1.66053,3.7089 -3.7089,3.7089c-2.04837,0 -3.7089,-1.66053 -3.7089,-3.7089z" fill="#ffffff" stroke="#ffffff" stroke-width="1.5" stroke-linecap="butt"></path><path d="M249.49685,169.42102c0,-1.88229 1.5259,-3.40818 3.40818,-3.40818c1.88229,0 3.40818,1.5259 3.40818,3.40818c0,1.88229 -1.5259,3.40818 -3.40818,3.40818c-1.88229,0 -3.40818,-1.5259 -3.40818,-3.40818z" fill="#ffffff" stroke="#ffffff" stroke-width="1.5" stroke-linecap="butt"></path><path d="M253.50647,183.65519c0,-1.77156 1.43614,-3.2077 3.2077,-3.2077c1.77156,0 3.2077,1.43614 3.2077,3.2077c0,1.77156 -1.43614,3.2077 -3.2077,3.2077c-1.77156,0 -3.2077,-1.43614 -3.2077,-3.2077z" fill="#ffffff" stroke="#ffffff" stroke-width="1.5" stroke-linecap="butt"></path><path d="M247.69251,194.48118c0,-2.10373 1.70541,-3.80914 3.80914,-3.80914c2.10373,0 3.80914,1.70541 3.80914,3.80914c0,2.10373 -1.70541,3.80914 -3.80914,3.80914c-2.10373,0 -3.80914,-1.70541 -3.80914,-3.80914z" fill="#ffffff" stroke="#ffffff" stroke-width="1.5" stroke-linecap="butt"></path><path d="M240.47519,204.60549c0,-1.82693 1.48102,-3.30794 3.30794,-3.30794c1.82693,0 3.30794,1.48102 3.30794,3.30794c0,1.82693 -1.48102,3.30794 -3.30794,3.30794c-1.82693,0 -3.30794,-1.48102 -3.30794,-3.30794z" fill="#ffffff" stroke="#ffffff" stroke-width="1.5" stroke-linecap="butt"></path><path d="M236.46556,161.20128l-15.0361,9.22214" fill="none" stroke="#ffffff" stroke-width="1.5" stroke-linecap="round"></path><path d="M225.61757,174.13636l18.08732,-3.61672" fill="none" stroke="#ffffff" stroke-width="1.5" stroke-linecap="round"></path><path d="M246.28914,184.05615l-23.65679,-1.20289" fill="none" stroke="#ffffff" stroke-width="1.5" stroke-linecap="round"></path><path d="M244.88578,195.2831l-20.85005,-6.21492" fill="none" stroke="#000000" stroke-width="0.5" stroke-linecap="round"></path><path d="M244.28433,193.87974l-22.25342,-5.413" fill="none" stroke="#ffffff" stroke-width="1.5" stroke-linecap="round"></path><path d="M219.42465,192.0754l15.23658,8.82118" fill="none" stroke="#ffffff" stroke-width="1.5" stroke-linecap="round"></path></g></g></svg>