<svg version="1.1" xmlns="http://www.w3.org/2000/svg" xmlns:xlink="http://www.w3.org/1999/xlink" width="142.88114" height="80.5" viewBox="0,0,142.88114,80.5"><g transform="translate(-141.69835,-139.75)"><g data-paper-data="{&quot;isPaintingLayer&quot;:true}" fill-rule="nonzero" stroke-linejoin="miter" stroke-miterlimit="10" stroke-dasharray="" stroke-dashoffset="0" style="mix-blend-mode: normal"><path d="M204.82949,180c0,-21.81525 17.68475,-39.5 39.5,-39.5c21.81525,0 39.5,17.68475 39.5,39.5c0,21.81525 -17.68475,39.5 -39.5,39.5c-21.81525,0 -39.5,-17.68475 -39.5,-39.5z" fill="#d8d8d8" stroke="#000000" stroke-width="1.5" stroke-linecap="butt"></path><path d="M228.58224,167.20295l9,1v8" fill="none" stroke="#000000" stroke-width="1.5" stroke-linecap="round"></path><path d="M248.51493,176.68819v-8l9,-1" data-paper-data="{&quot;index&quot;:null}" fill="none" stroke="#000000" stroke-width="1.5" stroke-linecap="round"></path><path d="M256.96879,195.96181l-31.37388,0.40984v-12.29517z" fill="#ffffff" stroke="#000000" stroke-width="1.5" stroke-linecap="round"></path><path d="M231.53051,196.37165l0.42397,-10.17531" fill="none" stroke="#000000" stroke-width="1.5" stroke-linecap="round"></path><path d="M240.43391,190.01208v5.9356" fill="none" stroke="#000000" stroke-width="1.5" stroke-linecap="round"></path><g stroke="none" stroke-linecap="butt"><path d="M151.66534,179.61578l0.07123,-3.59411l33.24532,0.65893l-0.07123,3.59411z" fill="#606060" stroke-width="0"></path><path d="M177.01666,185.51149l0.13654,-6.88866l4.49262,0.08905l-0.13654,6.88866z" fill="#606060" stroke-width="0"></path><path d="M141.69837,188.70661c0.04368,-2.20309 0.13752,-6.93784 0.13752,-6.93784l71.18844,1.41095l-0.25129,12.67765l-51.52172,-1.02117l0.09863,-5.12905c0,0 -19.67483,0.17313 -19.65158,-1.00055z" fill="#969696" stroke-width="NaN"></path><path d="M212.48985,212.51184l-7.12253,-24.44668l7.86478,-3.26431c0,0 1.3776,9.10467 4.0689,12.44239c3.2032,3.97259 13.8834,9.82193 13.8834,9.82193z" fill="#606060" stroke-width="0"></path><path d="M176.5536,208.87307l0.32648,-16.47291l6.88866,0.13654l-0.32648,16.47291z" fill="#606060" stroke-width="0"></path><path d="M186.45845,192.88962l0.20619,-10.40396l6.58916,0.1306l-0.20619,10.40396z" fill="#00fffe" stroke-width="0"></path><path d="M195.98196,193.01644l0.20619,-10.40396l6.58916,0.1306l-0.20619,10.40396z" fill="#00fffe" stroke-width="0"></path><path d="M177.64537,192.89069l0.20619,-10.40396l6.58916,0.1306l-0.20619,10.40396z" fill="#00fffe" stroke-width="0"></path></g><path d="M207.86004,199.23833c0,-4.53898 3.67957,-8.21855 8.21855,-8.21855c4.53898,0 8.21855,3.67957 8.21855,8.21855c0,4.53898 -3.67957,8.21855 -8.21855,8.21855c-4.53898,0 -8.21855,-3.67956 -8.21855,-8.21855z" fill="#d8d8d8" stroke="#000000" stroke-width="1" stroke-linecap="butt"></path></g></g></svg>