<svg version="1.1" xmlns="http://www.w3.org/2000/svg" xmlns:xlink="http://www.w3.org/1999/xlink" width="101.08407" height="80.5" viewBox="0,0,101.08407,80.5"><g transform="translate(-178.15445,-137.92395)"><g data-paper-data="{&quot;isPaintingLayer&quot;:true}" fill-rule="nonzero" stroke-linejoin="miter" stroke-miterlimit="10" stroke-dasharray="" stroke-dashoffset="0" style="mix-blend-mode: normal"><path d="M199.48853,178.17395c0,-21.81525 17.68475,-39.5 39.5,-39.5c21.81525,0 39.5,17.68475 39.5,39.5c0,21.81525 -17.68475,39.5 -39.5,39.5c-21.81525,0 -39.5,-17.68475 -39.5,-39.5z" fill="#d8d8d8" stroke="#000000" stroke-width="1.5" stroke-linecap="butt"></path><path d="M217.09444,165.86411l9,1v8" fill="none" stroke="#000000" stroke-width="1.5" stroke-linecap="round"></path><path d="M232.5346,174.67749v-8l9,-1" data-paper-data="{&quot;index&quot;:null}" fill="none" stroke="#000000" stroke-width="1.5" stroke-linecap="round"></path><path d="M230.98853,198.04895c0,0 0.3445,-8.61004 5.78628,-9.03188c5.30472,-0.41122 12.46372,8.03188 12.46372,8.03188z" fill="#040404" stroke="#000000" stroke-width="1.5" stroke-linecap="round"></path><g stroke="#000000" stroke-width="1"><path d="M210.59248,216.43573l-2.19219,-20.88527l8.20492,-0.86122l2.19219,20.88527z" fill="#af5400" stroke-linecap="butt"></path><path d="M217.43555,204.45593c0,0 -3.46976,-0.42035 -4.96993,-1.33291c-1.35049,-0.82149 -3.62935,-3.89799 -3.62935,-3.89799" fill="none" stroke-linecap="round"></path><path d="M216.98174,199.17445c0,0 -1.59039,3.48263 -2.74087,4.56662c-1.278,1.20416 -4.58486,2.33581 -4.58486,2.33581" data-paper-data="{&quot;index&quot;:null}" fill="none" stroke-linecap="round"></path><path d="M217.97458,204.80155c0,0 -1.59039,3.48263 -2.74087,4.56662c-1.278,1.20416 -4.58486,2.33581 -4.58486,2.33581" data-paper-data="{&quot;index&quot;:null}" fill="none" stroke-linecap="round"></path><path d="M218.30255,210.80009c0,0 -3.46976,-0.42036 -4.96994,-1.33291c-1.35049,-0.82149 -3.62935,-3.89799 -3.62935,-3.89799" data-paper-data="{&quot;index&quot;:null}" fill="none" stroke-linecap="round"></path><path d="M221.13365,192.79251c0.1326,1.26331 -3.58922,2.68937 -8.31291,3.18518c-4.7237,0.49581 -8.66051,-0.12637 -8.79311,-1.38968c-0.1326,-1.26331 3.58922,-2.68937 8.31291,-3.18518c4.7237,-0.49581 8.66051,0.12637 8.79311,1.38968z" fill="#8f8f8f" stroke-linecap="butt"></path><path d="M209.07231,192.68284l-5.08901,-48.48365c0,0 2.00438,-1.46726 3.10175,-1.58244c1.1388,-0.11953 3.61137,0.87781 3.61137,0.87781l5.08901,48.48365z" fill="#dddddd" stroke-linecap="butt"></path></g><path d="M180.12354,196.80247c-0.77847,-0.50736 -1.0763,-1.40085 -1.0763,-1.40085l-0.49343,-1.64524c-0.29469,-2.71846 -0.91497,-4.72468 0.4473,-7.35367c2.82576,-5.45332 13.70737,-6.67485 17.29596,-1.21722c3.1278,4.75685 0.31829,11.82141 0.80125,17.05565c0.35724,3.87169 2.20092,6.94625 4.13682,10.05934l0.21386,-0.23525l2.09491,1.90446c0.5071,0.45754 0.82583,1.11989 0.82583,1.85668c0,1.38071 -1.11929,2.5 -2.5,2.5c-0.29691,0 -0.58173,-0.05176 -0.84593,-0.14675l-2.81157,-0.93719l0.00454,-0.01363l-0.04149,0.00099c-6.29841,-2.32669 -12.3983,-5.87063 -15.55681,-12.14487c-1.25849,-2.49994 -1.91702,-5.44048 -2.49495,-8.28246z" fill="#0bff2c" stroke="none" stroke-width="0.5" stroke-linecap="butt"></path></g></g></svg>