<svg version="1.1" xmlns="http://www.w3.org/2000/svg" xmlns:xlink="http://www.w3.org/1999/xlink" width="100.72922" height="96.2477" viewBox="0,0,100.72922,96.2477"><defs><radialGradient cx="480" cy="180.00001" r="39.25" gradientUnits="userSpaceOnUse" id="color-1"><stop offset="0" stop-color="#ebebeb"/><stop offset="1" stop-color="#dbdbdb"/></radialGradient></defs><g transform="translate(-429.33611,-139.49996)"><g stroke-miterlimit="10"><path d="M429.33611,219.79824c0,-8.80862 7.35194,-15.94942 16.42103,-15.94942c9.06909,0 16.42106,7.14081 16.42106,15.94942c0,8.80862 -7.35197,15.94942 -16.42106,15.94942c-9.0691,0 -16.42103,-7.1408 -16.42103,-15.94942z" fill-opacity="0.6" fill="#a3a3a3" stroke="none" stroke-width="0" stroke-linecap="butt"/><path d="" fill="none" stroke="#000000" stroke-width="1.5" stroke-linecap="round"/><path d="M452.7882,208.28568c-15.62176,-15.02866 -16.10253,-39.87573 -1.07387,-55.49749c15.02866,-15.62176 39.87573,-16.10253 55.49749,-1.07387c15.62176,15.02866 16.10253,39.87573 1.07387,55.49749c-15.02866,15.62176 -39.87573,16.10253 -55.49749,1.07387z" fill="url(#color-1)" stroke="#ffffff" stroke-width="2.5" stroke-linecap="butt"/><path d="M469.73923,171.12461c4.60221,5.51069 6.70074,11.34119 4.68722,13.02277c-2.01354,1.68157 -7.37664,-1.42255 -11.97883,-6.93324c-4.60221,-5.51069 -6.70074,-11.34119 -4.68722,-13.02277c2.01354,-1.68157 7.37664,1.42255 11.97883,6.93324z" fill="#ffffff" stroke="#000000" stroke-width="1.5" stroke-linecap="butt"/><path d="M482.39996,160.23054c4.60221,5.51069 6.70076,11.3412 4.68722,13.02278c-2.01354,1.68157 -7.37664,-1.42255 -11.97884,-6.93324c-4.60221,-5.51069 -6.70076,-11.34119 -4.68723,-13.02277c2.01354,-1.68157 7.37664,1.42254 11.97884,6.93323z" fill="#ffffff" stroke="#000000" stroke-width="1.5" stroke-linecap="butt"/><path d="M497.22324,156.94231c0,-8.80862 7.35194,-15.94943 16.42103,-15.94943c9.06909,0 16.42106,7.14081 16.42106,15.94943c0,8.80862 -7.35197,15.94941 -16.42106,15.94941c-9.0691,0 -16.42103,-7.1408 -16.42103,-15.94941z" fill-opacity="0.6" fill="#a3a3a3" stroke="none" stroke-width="0" stroke-linecap="butt"/></g></g></svg>