<svg version="1.1" xmlns="http://www.w3.org/2000/svg" xmlns:xlink="http://www.w3.org/1999/xlink" width="132.8339" height="91.35607" viewBox="0,0,132.8339,91.35607"><g transform="translate(-439.80927,-128.82425)"><g stroke-miterlimit="10"><g stroke="#00144d"><path d="M532.45929,188.67856c-4.91485,-0.39237 -8.58104,-4.69473 -8.1887,-9.60957c0.39237,-4.91485 4.69473,-8.58104 9.60957,-8.1887c4.91485,0.39237 8.58104,4.69473 8.1887,9.60957c-0.39237,4.91485 -4.69473,8.58104 -9.60957,8.1887z" fill="none" stroke-width="2.5" stroke-linecap="butt"/><path d="M528.99995,182.65834l-4.05164,-0.32345l3.65041,-45.72564l4.05164,0.32345z" fill="#4d5995" stroke-width="1.5" stroke-linecap="butt"/><path d="M525.93194,180.14814l-9.26087,-0.73931l3.97386,-49.77727l9.26087,0.73931z" fill="#6b7ccf" stroke-width="1.5" stroke-linecap="butt"/><path d="M538.30284,199.07619l-21.27492,-12.50425l2.20662,-3.7544l21.27492,12.50425z" fill-opacity="0.25098" fill="#172aff" stroke-width="1.5" stroke-linecap="butt"/><path d="M544.09054,187.16252l-24.71986,-4.63775l0.62548,-4.16299l24.79371,4.91854z" fill-opacity="0.44314" fill="#172aff" stroke-width="1.5" stroke-linecap="butt"/><path d="M550.28238,189.60628l-2.88675,8.79822l-24.64178,-14.19958z" fill-opacity="0.8549" fill="#006ace" stroke-width="1.5" stroke-linecap="round"/><path d="M531.60656,177.18714l-11.80651,10.99131l14.99996,-2.65425c0,0 -5.83976,10.67399 -11.95336,10.18593c-6.11359,-0.48807 -10.67399,-5.83976 -10.18593,-11.95336c0.48807,-6.11359 18.94585,-6.56962 18.94585,-6.56962z" fill="#6cbbcf" stroke-width="1.5" stroke-linecap="butt"/><path d="M517.00617,193.26981l11.80651,-10.99131l-14.99996,2.65425c0,0 5.83976,-10.67399 11.95336,-10.18593c6.11359,0.48807 10.67399,5.83976 10.18593,11.95336c-0.48807,6.11359 -18.94585,6.56962 -18.94585,6.56962z" fill="#6cbbcf" stroke-width="1.5" stroke-linecap="butt"/><path d="M523.31015,188.18116c-1.75816,-0.14038 -3.06965,-1.6794 -2.92931,-3.43757c0.14038,-1.75816 1.6794,-3.06965 3.43757,-2.92931c1.75816,0.14038 3.06965,1.6794 2.92931,3.43757c-0.14038,1.75816 -1.6794,3.06965 -3.43757,2.92931z" fill="#6b73cf" stroke-width="1.5" stroke-linecap="butt"/></g><g><path d="M440.82781,181.14326c-0.65985,-21.66713 16.36989,-39.76675 38.03706,-40.42658c21.66713,-0.65985 39.76675,16.36989 40.42658,38.03706c0.65985,21.66713 -16.36989,39.76675 -38.03706,40.42658c-21.66713,0.65985 -39.76675,-16.36989 -40.42658,-38.03706z" fill="#c6c6c6" stroke="#00144d" stroke-width="2" stroke-linecap="butt"/><path d="M441.21663,176.76337c0,0 0.53738,-4.71621 1.31316,-6.9588c0.92441,-2.67222 3.86609,-8.01266 3.86609,-8.01266l33.99741,0.41863l-0.18223,14.79891z" fill="#ffffff" stroke="#001e6f" stroke-width="2" stroke-linecap="butt"/><path d="M471.77248,175.90703l0.29205,-12.87693l7.4722,0.08214l-0.29205,12.87693z" fill-opacity="0.35294" fill="#0015ff" stroke="none" stroke-width="0" stroke-linecap="butt"/><path d="M464.17008,175.9695l0.29205,-12.87693l7.47219,0.08215l-0.29205,12.87693z" fill-opacity="0.45098" fill="#0015ff" stroke="none" stroke-width="0" stroke-linecap="butt"/><path d="M456.36095,175.839l0.29205,-12.87693l7.4722,0.08214l-0.29205,12.87693z" fill-opacity="0.61961" fill="#0015ff" stroke="none" stroke-width="0" stroke-linecap="butt"/><path d="M493.82097,192.74774l-8.15222,4.86297l-8.92952,-3.71706l9.10013,-16.56847z" fill-opacity="0.31373" fill="#006bff" stroke="#00144d" stroke-width="1.5" stroke-linecap="round"/><path d="M448.45531,175.81188l0.29205,-12.87693l7.47219,0.08215l-0.29205,12.87693z" fill-opacity="0.70196" fill="#0015ff" stroke="none" stroke-width="0" stroke-linecap="butt"/><path d="M442.25208,175.82603c0,0 0.83915,-4.93089 1.63626,-7.18279c0.76217,-2.15323 3.04628,-6.0459 3.04628,-6.0459l1.27589,0.29618l-0.29205,12.87693z" fill-opacity="0.9098" fill="#0015ff" stroke="none" stroke-width="0" stroke-linecap="butt"/><path d="M442.56454,181.53824l34.20071,12.46568l9.0587,-17.76775l7.46779,16.64102l25.75094,-13.45253c0,0 0.15348,4.68006 -1.23044,10.02275c-1.58856,6.13264 -4.91702,13.23444 -8.02108,16.7491c-2.7067,3.06473 -8.18792,7.27787 -13.60208,9.44251c-5.70259,2.27993 -11.25027,3.20869 -11.25027,3.20869c0,0 -7.34734,0.21994 -15.11948,-1.54141c-6.10602,-1.38377 -12.51424,-5.15028 -15.71178,-7.84431c-3.84742,-3.24159 -9.42973,-10.85817 -11.74142,-17.38123c-2.05495,-5.7986 -1.05952,-10.7492 -1.05952,-10.7492z" fill-opacity="0.25098" fill="#172aff" stroke="#00144d" stroke-width="1.5" stroke-linecap="round"/><path d="M449.91256,205.1133c0,0 8.37709,-7.25784 12.76645,-4.35239c4.38938,2.90544 4.73481,15.93695 4.73481,15.93695c0,0 -6.93402,-2.10499 -9.94882,-4.10057c-2.80361,-1.85579 -7.55244,-7.48401 -7.55244,-7.48401z" fill-opacity="0.2" fill="#00ff15" stroke="#00144d" stroke-width="1.5" stroke-linecap="round"/><path d="M508.47029,207.24969c-2.52682,2.5858 -8.86192,6.10408 -8.86192,6.10408c0,0 -2.40713,-12.81191 1.2718,-16.57673c3.67893,-3.76478 13.3968,1.56575 13.3968,1.56575c0,0 -3.45684,6.50218 -5.80665,8.90686z" fill-opacity="0.2" fill="#00ff15" stroke="#00144d" stroke-width="1.5" stroke-linecap="round"/><path d="M504.14167,186.83076l-23.97526,-45.45706l9.80769,0.97332l21.47073,40.54059z" fill="#00f2ff" stroke="#00144d" stroke-width="1.5" stroke-linecap="butt"/><path d="M490.59837,169.09237c-0.21289,-6.16352 4.61104,-11.3326 10.77451,-11.5455c6.16352,-0.21289 11.3326,4.61104 11.5455,10.77451c0.21289,6.16352 -4.61104,11.3326 -10.77451,11.5455c-6.16352,0.21289 -11.3326,-4.61104 -11.5455,-10.77451z" fill="#00cdff" stroke="#00144d" stroke-width="1.5" stroke-linecap="butt"/><path d="M482.93304,146.73253l7.70795,-2.15626" fill="none" stroke="#00144d" stroke-width="1.5" stroke-linecap="round"/><path d="M485.51412,150.64578l7.26377,-2.14092" fill="none" stroke="#00144d" stroke-width="1.5" stroke-linecap="round"/><path d="M494.92244,152.65552l-7.13737,2.58125" fill="none" stroke="#00144d" stroke-width="1.5" stroke-linecap="round"/><path d="M490.84485,160.13407l6.23366,-2.99475" fill="none" stroke="#00144d" stroke-width="1.5" stroke-linecap="round"/><path d="M503.30621,182.93972l6.24901,-2.55058" fill="none" stroke="#00144d" stroke-width="1.5" stroke-linecap="round"/></g><path d="M550.41556,155.08536c-1.71616,1.81791 -3.53407,0.10175 -3.53407,0.10175l-0.32585,-0.5287c-2.89197,-1.23076 -6.04764,-2.03013 -9.23489,-2.71436l-0.71384,1.88293l-0.21931,1.36112c-0.08851,-0.02813 -0.17688,-0.05592 -0.26511,-0.08336l-0.01248,0.03291c0,0 -0.25218,-0.05539 -0.57665,-0.2116c-0.10288,-0.03042 -0.20559,-0.06037 -0.30818,-0.08988c1.33743,0.8585 2.64381,1.81985 4.0159,2.88153l0.92557,0.74751c0,0 1.94418,1.57168 0.37251,3.51586c-1.57168,1.94418 -3.51586,0.37251 -3.51586,0.37251l-0.84216,-0.68152c-3.04478,-2.35624 -5.58238,-4.15421 -9.28701,-5.31648c0,0 -2.38322,-0.75515 -1.62807,-3.13837c0.02131,-0.06725 0.04391,-0.132 0.06772,-0.19434c-0.66298,-0.16974 -2.10558,-0.76255 -1.90179,-2.68636c0.26336,-2.48609 2.74945,-2.22273 2.74945,-2.22273c0.32801,0.03502 0.65354,0.07129 0.97691,0.10904c-0.03778,-0.29633 -0.02208,-0.63387 0.06842,-1.01768c0.00696,-0.02953 0.0142,-0.05861 0.0217,-0.08726c-0.83139,-0.11239 -1.66278,-0.22481 -2.49416,-0.33724c0,0 -2.47745,-0.33501 -2.14244,-2.81247c0.19478,-1.44038 1.11375,-1.93009 1.84899,-2.08768c-0.06311,-0.21734 -0.10323,-0.46302 -0.11364,-0.74071c-0.01732,-0.46195 0.05398,-0.84168 0.18171,-1.15381c0.02927,-0.22911 0.09004,-0.45364 0.18081,-0.66667c-0.54667,-1.0966 -0.21497,-2.44432 0.80059,-3.15755c-0.17472,-0.46369 -0.20316,-0.95939 -0.09883,-1.42548c-0.49265,0.05484 -0.98607,0.10916 -1.48027,0.16197c0,0 -2.48608,0.26341 -2.74948,-2.22268c-0.26341,-2.48608 2.22268,-2.74948 2.22268,-2.74948c9.6434,-1.01255 18.83245,-2.28549 28.15615,1.66789c2.36257,1.00176 4.73891,2.39195 7.0315,3.85762c4.10075,2.11796 7.97977,5.14959 11.38964,7.81471l2.03828,2.42846c0,0 1.59819,1.92243 -0.32425,3.52063c-1.92243,1.59819 -3.52063,-0.32425 -3.52063,-0.32425l-1.66654,-2.028c-1.02444,-0.78268 -2.0438,-1.53154 -3.06498,-2.24227c-0.85369,-0.08507 -1.49464,-0.62832 -1.49464,-0.62832l-1.63734,-1.40903c-0.05449,-0.03647 -0.10907,-0.07304 -0.16376,-0.10969c-5.38647,-3.25445 -11.02337,-5.34693 -17.88871,-5.66731c-1.31849,-0.06153 -2.74953,-0.03962 -4.17357,0.01549c0.19571,0.66863 0.09985,1.38604 -0.24883,1.97575c0.68328,0.14472 1.37598,0.32975 2.08544,0.56416c1.47519,-0.21722 2.37295,1.18587 2.37295,1.18587l-2.90098,3.94626c-0.54129,-0.24511 -1.07301,-0.4458 -1.59842,-0.60905l0.25285,0.22658c0.18198,0.15579 0.34447,0.3406 0.48025,0.5528c0.49801,0.77832 0.51065,1.72819 0.11596,2.49445c3.3757,0.74431 6.72108,1.60152 9.83971,2.88666l1.8293,1.50583c0,0 1.81791,1.71616 0.10175,3.53407z" fill="#6b7ccf" stroke="none" stroke-width="0.5" stroke-linecap="butt"/></g></g></svg>