<svg version="1.1" xmlns="http://www.w3.org/2000/svg" xmlns:xlink="http://www.w3.org/1999/xlink" width="186.62522" height="80.5" viewBox="0,0,186.62522,80.5"><g transform="translate(-115.06246,-140.3707)"><g data-paper-data="{&quot;isPaintingLayer&quot;:true}" fill-rule="nonzero" stroke-linejoin="miter" stroke-miterlimit="10" stroke-dasharray="" stroke-dashoffset="0" style="mix-blend-mode: normal"><path d="" data-paper-data="{&quot;index&quot;:null}" fill="none" stroke="#000000" stroke-width="1.5" stroke-linecap="round"></path><path d="" data-paper-data="{&quot;index&quot;:null}" fill="none" stroke="#000000" stroke-width="1.5" stroke-linecap="round"></path><path d="M301.68768,195.47554" data-paper-data="{&quot;index&quot;:null}" fill="none" stroke="#d8d8d8" stroke-width="4" stroke-linecap="round"></path><path d="M199.18372,180.6207c0,-21.81525 17.68475,-39.5 39.5,-39.5c21.81525,0 39.5,17.68475 39.5,39.5c0,21.81525 -17.68475,39.5 -39.5,39.5c-21.81525,0 -39.5,-17.68475 -39.5,-39.5z" data-paper-data="{&quot;index&quot;:null}" fill="#d8d8d8" stroke="#000000" stroke-width="1.5" stroke-linecap="butt"></path><path d="M243.28496,174.20032l11.07275,-4.59202" data-paper-data="{&quot;index&quot;:null}" fill="none" stroke="#000000" stroke-width="1.5" stroke-linecap="round"></path><path d="M248.94146,178.95914l0.25511,-5.86758" data-paper-data="{&quot;index&quot;:null}" fill="none" stroke="#000000" stroke-width="1.5" stroke-linecap="round"></path><path d="M225.51079,170.45509l14.45771,4.12252" data-paper-data="{&quot;index&quot;:null}" fill="none" stroke="#000000" stroke-width="1.5" stroke-linecap="round"></path><path d="M234.22147,173.05217l0.21988,5.35892" data-paper-data="{&quot;index&quot;:null}" fill="none" stroke="#000000" stroke-width="1.5" stroke-linecap="round"></path><path d="M233.8131,191.53176l18.63798,0.59168" fill="none" stroke="#000000" stroke-width="1.5" stroke-linecap="round"></path><g data-paper-data="{&quot;index&quot;:null}" stroke="#000000" stroke-linecap="butt"><path d="M145.42048,175.52548l-21.58332,0.15874c0,0 -3.39611,-2.19527 -3.34159,-3.28683c0.0546,-1.09353 3.66893,-3.26839 3.66893,-3.26839l21.58332,-0.15874z" fill="#af5400" stroke-width="1.5"></path><path d="M149.35983,183.75328c0,0 -5.53845,1.74441 -7.88005,-0.29711c-2.74313,-2.3916 -2.40729,-7.94134 -2.31816,-11.58971c0.16509,-6.76271 2.80178,-12.41475 5.88916,-12.62425c1.43453,-0.09732 5.87847,1.06228 5.87847,1.06228c0,0 -0.4988,7.18297 -0.58717,10.80344c-0.1651,6.7627 -0.98224,12.64534 -0.98224,12.64534z" fill="#989898" stroke-width="1"></path><path d="M149.56581,184.16031c-3.0874,0.20945 -5.45637,-5.10297 -5.2913,-11.86572c0.16512,-6.76271 2.80174,-12.41476 5.88914,-12.62426c3.08739,-0.20947 5.4564,5.10301 5.2913,11.86569c-0.16512,6.76271 -2.80175,12.41477 -5.88914,12.62426z" fill="#989898" stroke-width="1"></path><path d="M149.04783,168.71474l99.06082,1.76577l-13.91805,5.5864l-85.62884,-1.5263c0,0 -1.63527,-1.70247 -1.55518,-2.66182c0.08197,-0.98203 2.0413,-3.16406 2.0413,-3.16406z" fill="#e6e6e6" stroke-width="0.5"></path></g><path d="M115.74653,170.3282c0.3243,-5.62755 5.14925,-9.92672 10.77682,-9.6024c5.62755,0.3243 9.92672,5.14925 9.6024,10.77682c-0.3243,5.62755 -5.14925,9.92672 -10.77682,9.6024c-5.62755,-0.3243 -9.92672,-5.14925 -9.6024,-10.77682z" fill="#d8d8d8" stroke="#000000" stroke-width="1" stroke-linecap="butt"></path><path d="M115.56673,172.98107c-0.16142,-5.63458 4.27547,-10.33318 9.91005,-10.4946c5.63458,-0.16142 10.33318,4.27547 10.4946,9.91005c0.16142,5.63458 -4.27546,10.33319 -9.91004,10.49461c-5.63458,0.16142 -10.33317,-4.27547 -10.49461,-9.91005z" data-paper-data="{&quot;index&quot;:null}" fill="#d8d8d8" stroke="#000000" stroke-width="1" stroke-linecap="butt"></path></g></g></svg>