<svg version="1.1" xmlns="http://www.w3.org/2000/svg" xmlns:xlink="http://www.w3.org/1999/xlink" width="239.98878" height="80.5" viewBox="0,0,239.98878,80.5"><g transform="translate(-197.74098,-139.75)"><g data-paper-data="{&quot;isPaintingLayer&quot;:true}" fill-rule="nonzero" stroke-linejoin="miter" stroke-miterlimit="10" stroke-dasharray="" stroke-dashoffset="0" style="mix-blend-mode: normal"><path d="M422.48885,188.28305c-0.35817,0.85336 -0.73942,1.70053 -1.13304,2.54446c0.9144,-1.16919 1.82566,-2.34005 2.79828,-3.46074l0.05967,-0.031l-0.01034,-0.01275l0.02942,-0.02387c-0.57433,0.37408 -1.15824,0.71059 -1.74399,0.9839zM423.34426,186.09541c1.42509,-0.96238 2.83582,-2.13341 4.08392,-3.17971l0.03996,-0.01238l-0.00728,-0.01084l0.80662,-0.54127c0.12105,-0.08378 0.26795,-0.13286 0.42631,-0.13286c0.41421,0 0.75,0.33579 0.75,0.75c0,0.09824 -0.01889,0.19207 -0.05323,0.27805l-0.40146,1.0776l-0.2675,-0.09966c-0.25219,0.65988 -0.59129,1.25461 -0.98859,1.82179c1.23743,-0.81063 2.51537,-1.58134 3.35858,-2.30693l0.04611,-0.01255l-0.00927,-0.01382l0.80662,-0.54127c0.12105,-0.08378 0.26795,-0.13286 0.42631,-0.13286c0.41421,0 0.75,0.33579 0.75,0.75c0,0.15147 -0.0449,0.29246 -0.12213,0.41037l-0.79551,1.25828l-0.15711,-0.09933c-1.78357,3.64189 -4.94445,6.82451 -7.6173,10.01741c0.3482,-0.21206 0.69575,-0.42192 1.01988,-0.64564c3.47931,-2.40147 6.88584,-4.90635 10.33914,-7.34535l0.05975,-0.00629l-0.0105,-0.02086l0.80159,-0.40344c0.10462,-0.05542 0.22394,-0.08681 0.35058,-0.08681c0.41421,0 0.75,0.33579 0.75,0.75c0,0.22155 -0.09606,0.42066 -0.2488,0.55795l-1.10933,1.00495l-0.11701,-0.12916c-2.54496,3.06375 -6.13736,5.41456 -9.21154,8.01652c2.05094,-0.54174 4.13548,-0.91407 6.2249,-1.29166l0.90699,-0.26083c0.07072,-0.0221 0.14594,-0.034 0.22395,-0.034c0.41421,0 0.75,0.33579 0.75,0.75c0,0.31476 -0.1939,0.58424 -0.46877,0.69549l-1.36146,0.58731l-0.08265,-0.19159c-2.45479,1.47039 -5.19022,2.12412 -8.01473,3.03426c-0.8332,0.26848 -2.43858,0.01688 -2.47015,0.8917c-0.01397,0.38703 0.22794,0.77315 0.59916,1.13892c-0.19632,-0.75147 -0.16193,-1.53001 0.73844,-1.80133c0.67185,-0.20246 1.28784,0.56289 1.90134,0.90345c2.0414,1.13322 3.47467,2.29141 4.5852,3.99732l0.14685,-0.1075l0.88121,1.20377c0.09397,0.12528 0.14964,0.28094 0.14964,0.44959c0,0.41421 -0.33579,0.75 -0.75,0.75c-0.07801,0 -0.15323,-0.01191 -0.22395,-0.03401l-0.93418,-0.26866l0.00221,-0.00767l-0.02675,0.00016c-0.7263,-0.2636 -1.83153,-0.65357 -3.00817,-1.16428c0.88842,1.53555 2.11794,3.28702 2.51016,4.93358c0.16023,0.67265 0.63526,1.55616 0.16974,2.06745c-0.42567,0.46751 -1.32113,0.09954 -1.88823,-0.18001c-0.93063,-0.45876 -1.95334,-1.89507 -2.82897,-3.15897c0.23745,0.62575 0.45869,1.20234 0.67395,1.6657l-0.00009,0.04877l0.01569,-0.00506l0.40608,1.25878c0.02695,0.07732 0.0416,0.16041 0.0416,0.24693c0,0.41421 -0.33579,0.75 -0.75,0.75c-0.30012,0 -0.55907,-0.17628 -0.67895,-0.43096l-0.40024,-0.80576l0.1156,-0.05742l-0.09998,-0.30991c-0.78615,-1.16559 -1.32796,-2.52035 -1.8311,-3.89329c-0.21087,-0.46504 -0.41313,-0.93236 -0.60164,-1.40453c-0.09373,0.04212 -0.19767,0.06555 -0.30709,0.06555c-0.20806,0 -0.39634,-0.08472 -0.53221,-0.22156l-0.9507,-0.95694l0.12253,-0.12173c-0.40653,-0.35854 -0.77662,-0.75307 -1.084,-1.19348c-0.46289,-0.66323 -0.98647,-2.28162 -1.63253,-1.79504c-1.97212,1.48531 -3.8658,3.81074 -5.37533,5.76479l-0.04304,0.01872l0.01356,0.01325l-0.5765,0.58998c-0.13621,0.13965 -0.32645,0.22636 -0.53694,0.22636c-0.41421,0 -0.75,-0.33579 -0.75,-0.75c0,-0.14262 0.03981,-0.27594 0.10892,-0.38946l0.75038,-1.28402l0.15694,0.09172c1.02273,-2.47319 2.62909,-4.68114 4.36984,-6.73316c0.10547,-0.12433 -0.25157,0.20918 -0.39036,0.29475c-0.36952,0.22781 -0.75237,0.43335 -1.13205,0.64381c-0.4373,0.24241 -0.87908,0.47668 -1.31876,0.71476c-2.33282,1.26315 -4.45815,2.94656 -6.57161,4.54163l-1.13674,0.9497c-0.13071,0.11076 -0.29985,0.17755 -0.48459,0.17755c-0.41421,0 -0.75,-0.33579 -0.75,-0.75c0,-0.186 0.06771,-0.35619 0.17982,-0.48725l0.96454,-1.14277l0.13087,0.11046c1.21474,-2.02203 2.82382,-3.88146 4.46641,-5.65501c-0.16327,0.10499 -0.32345,0.21121 -0.4782,0.32022c-2.43904,1.71815 -4.72728,3.64866 -7.02753,5.5469l-0.01223,0.00541l0.002,0.0026l-1.1837,0.90993c-0.12744,0.1 -0.28807,0.15963 -0.46262,0.15963c-0.41421,0 -0.75,-0.33579 -0.75,-0.75c0,-0.09874 0.01908,-0.19303 0.05376,-0.27937l0.51076,-1.363l0.27036,0.10131c0.68008,-1.84992 1.86631,-3.52068 3.20856,-5.09078c-1.77078,0.82836 -3.61631,1.39457 -5.51048,1.53443l0.0214,0.2095l-1.48204,0.1514c-0.02836,0.00325 -0.05719,0.00493 -0.08642,0.00493c-0.41421,0 -0.75,-0.33579 -0.75,-0.75c0,-0.18896 0.06988,-0.3616 0.18521,-0.49349l0.97841,-1.13175l0.01473,0.01274l0.03771,-0.06754c0.17998,-0.13911 0.36176,-0.27877 0.54528,-0.41847c-0.02777,-0.06242 -0.04841,-0.12786 -0.06073,-0.19636c-0.14381,-0.7995 2.85733,-1.99622 3.26748,-2.19206c0.46868,-0.22379 0.98115,-0.47163 1.52316,-0.72781c0.55612,-0.28978 1.12185,-0.55161 1.69623,-0.77607c1.56212,-0.68478 3.2326,-1.31765 4.74201,-1.60218c-0.07974,-0.16322 -0.17597,-0.33567 -0.28978,-0.52047c-0.31104,-0.14179 -0.60967,-0.31406 -0.89634,-0.50799l-0.12711,0.20521l-1.264,-0.78295c-0.21934,-0.13088 -0.36625,-0.37054 -0.36625,-0.64452c0,-0.18206 0.06487,-0.34897 0.17276,-0.47888c-0.69375,-0.70413 -1.32065,-1.67061 -0.26696,-2.3185c0.60636,-0.37284 2.10993,0.60448 2.94144,1.14342c-1.27012,-1.49314 -2.66947,-3.36767 -2.69968,-4.22977c-0.09095,-2.59549 1.63923,-1.80098 3.0363,-0.74184c-0.37101,-0.82344 -0.66027,-1.70708 -1.01227,-2.48711l-0.32309,-0.66251c-0.05282,-0.10269 -0.08263,-0.21915 -0.08263,-0.34257c0,-0.41421 0.33579,-0.75 0.75,-0.75c0.20807,0 0.39634,0.08473 0.53221,0.22156l1.05703,1.06398l-0.2234,0.22195c1.19539,1.1359 2.1994,2.57405 3.09881,4.11871c0.12088,-0.08339 0.26743,-0.13223 0.42539,-0.13223c0.1187,0 0.23096,0.02758 0.33072,0.07667c0.01393,-0.60612 0.06061,-1.22462 0.13597,-1.8567c0.04637,-0.38897 0.23405,-1.51504 0.57303,-2.37238c-0.06232,-0.31237 -0.11264,-0.62661 -0.15168,-0.93694l-0.24464,0.04861l-0.28933,-1.45609c-0.01139,-0.05196 -0.01739,-0.10594 -0.01739,-0.16131c0,-0.41421 0.33579,-0.75 0.75,-0.75c0.26532,0 0.49847,0.13777 0.6318,0.34568l0.53683,0.81054l-0.03964,0.02626l0.09697,0.07719c0.11012,0.38697 0.21985,0.77732 0.328,1.17057c0.12712,0.09624 0.24748,0.21539 0.36241,0.3455c0.00495,-0.08844 0.01018,-0.17684 0.01566,-0.26518l0.03507,-0.96415c0.01264,-0.40313 0.34342,-0.72606 0.74963,-0.72606c0.2788,0 0.52206,0.15212 0.65132,0.37789l0.76094,1.27655l-0.21249,0.12667c0.51157,0.85299 0.77777,1.69782 0.96461,2.72034c1.76188,-1.40392 3.33372,-4.12265 4.31433,-5.37376l0.05529,-0.02738l-0.01361,-0.01462l0.70973,-0.66074c0.13409,-0.12554 0.31431,-0.2024 0.51248,-0.2024c0.41421,0 0.75,0.33579 0.75,0.75c0,0.05811 -0.00661,0.11468 -0.01912,0.169l-0.30385,1.45277l-0.12339,-0.02581c-0.19636,2.37753 -0.78207,4.6489 -1.57811,6.86344zM415.02084,183.72603c-0.1715,1.78389 0.55804,4.16875 0.51075,6.0578c0.1184,0.35331 0.23821,0.72393 0.36775,1.11621l-0.00819,0.04835l0.01856,-0.00371l0.04421,0.22082c0.02812,-0.35264 0.05245,-0.72509 0.02995,-1.13351c-0.11464,-2.08118 -0.48964,-4.21224 -0.96302,-6.30597zM425.59488,203.90009c0.36507,0.19881 0.68523,0.36564 0.89815,0.49094c0.78266,0.46054 1.55256,0.80425 2.35304,1.11845c-0.38301,-0.37697 -0.76474,-0.77784 -1.27677,-1.12486c-1.04232,-0.7064 -2.28754,-1.28964 -2.96396,-2.3908c-0.26826,-0.43671 0.53536,0.8778 0.7408,1.34734c0.08172,0.18678 0.16455,0.37315 0.24873,0.55892zM421.43011,187.2986c0.35553,-0.83635 0.67501,-1.68211 0.93559,-2.53953c0.36143,-1.18928 0.41532,-2.68653 0.71019,-4.02806c-1.0134,1.44526 -2.14034,2.99658 -3.33981,3.81918c-0.15564,0.10674 -0.30766,0.20255 -0.45611,0.28792c0.00651,0.05437 0.01302,0.10925 0.01956,0.16467c0.02014,0.17085 -0.00585,2.51351 0.20213,2.83627c0.37267,0.57837 1.2155,-0.04347 1.92846,-0.54045zM417.35366,189.17351c0.00335,0.0693 0.00641,0.13859 0.00916,0.20786l0.07824,-0.03886c-0.02969,-0.05611 -0.05882,-0.11244 -0.08739,-0.169zM413.25609,193.16479c-0.40284,1.42475 -1.10784,2.52176 -2.35152,2.44876c-0.13376,-0.00785 -0.25726,-0.02102 -0.37111,-0.03905c-0.18228,0.58694 -0.58911,1.11212 -1.31773,1.51141c-0.05941,0.03256 -0.12002,0.06176 -0.18167,0.08803l0.00513,0.01275l-1.37571,0.55389c-0.09077,0.03901 -0.19079,0.06061 -0.29586,0.06061c-0.1283,0 -0.24908,-0.03222 -0.35468,-0.089c-1.09518,1.17339 -2.18987,2.35737 -3.16662,3.6083c-0.35584,0.45572 -0.666,0.9637 -0.97884,1.47037c2.61157,-2.25341 5.34849,-4.62091 8.48084,-5.8669l-0.08799,-0.18732l1.34339,-0.63103c0.10037,-0.04985 0.21349,-0.07787 0.33316,-0.07787c0.41421,0 0.75,0.33579 0.75,0.75c0,0.14483 -0.04105,0.28006 -0.11215,0.39471l-0.40115,0.67295l-0.02516,-0.015l-0.01743,0.07878c-1.33988,1.47275 -2.64901,2.96845 -3.94247,4.47998c1.281,-0.86494 2.59555,-1.67904 3.97391,-2.41134c0.63378,-0.33672 2.73173,-1.81504 3.51786,-0.40071c0.35712,0.64249 -0.33053,1.44093 -0.62252,2.11551c-0.05171,0.11946 -0.11034,0.24909 -0.17527,0.38715c0.60901,-0.601 1.21124,-1.08218 2.22268,-0.66619c0.86795,0.35697 1.5566,1.64129 2.03919,2.33288c0.02042,0.02927 0.04092,0.0587 0.06145,0.08829c-0.00307,-0.02756 -0.00465,-0.05558 -0.00465,-0.08396c0,-0.02304 0.00104,-0.04585 0.00307,-0.06836c-0.00203,-0.02251 -0.00307,-0.04532 -0.00307,-0.06836c0,-0.41421 0.33579,-0.75 0.75,-0.75c0.27367,0 0.5131,0.14658 0.64408,0.36551l0.30575,0.49241l0.30704,0.37088l-0.00548,0.00453l0.01752,0.0104c0.83176,1.11582 1.658,2.2214 2.54595,3.29355c0.63771,0.77028 1.27542,1.54055 1.91313,2.31083c0.21183,0.25587 0.42572,0.51005 0.63756,0.76591c-0.00102,-0.00218 -0.00199,-0.00419 -0.0029,-0.00602c-0.8926,-1.79185 -1.94967,-3.50618 -2.807,-5.31449c-1.93338,-1.12969 -3.49533,-2.59657 -3.1823,-4.37305c0.13655,-0.77492 1.42771,-1.12359 2.00073,-1.33437c0.1701,-0.06257 0.35873,-0.13591 0.56313,-0.21781c-0.25264,-0.12066 -0.42718,-0.37852 -0.42718,-0.67716c0,-0.22862 0.10229,-0.43335 0.26361,-0.57092l0.91888,-0.79277c-0.55796,0.30023 -1.12148,0.57799 -1.69093,0.82826l0.07762,0.12853l-1.27355,0.76914c-0.11539,0.07243 -0.25189,0.11431 -0.39818,0.11431c-0.41421,0 -0.75,-0.33579 -0.75,-0.75c0,-0.14942 0.04369,-0.28863 0.119,-0.40556l0.673,-1.08389l0.00696,0.00432l0.00791,-0.02731c0.51467,-0.70856 1.04007,-1.40569 1.57342,-2.09498c-0.16561,-0.31509 -0.00289,-0.67013 -0.00289,-0.67013l0.10898,-0.21331c0.3291,-1.21197 0.69168,-2.4858 1.16257,-3.70058l-0.27111,0.12007c-0.06142,0.02887 -0.12739,0.04965 -0.19654,0.06097c-1.32155,1.83727 -2.65638,3.84897 -4.448,4.98842l0.15296,0.2072l-0.64238,0.47424c-0.12566,0.095 -0.28218,0.15134 -0.45185,0.15134c-0.41421,0 -0.75,-0.33579 -0.75,-0.75c0,-0.11498 0.02587,-0.22392 0.07212,-0.3213l0.60634,-1.35422l0.00267,0.0012l0.00205,-0.01153c0.74574,-1.53901 1.57677,-3.09126 2.33205,-4.67255c-0.50745,0.17157 -1.1031,0.32543 -1.57897,0.2526c0.00895,0.04934 0.01792,0.09814 0.0269,0.14639l-0.00417,0.0196l0.00693,-0.00093l0.13115,0.97413c0.00551,0.03666 0.00836,0.07419 0.00836,0.11239c0,0.41421 -0.33579,0.75 -0.75,0.75c-0.30012,0 -0.55907,-0.17628 -0.67895,-0.43095l-0.44952,-0.90495c0.01785,1.04459 -0.03722,2.08371 -0.18543,3.10947l0.16814,0.00683l-0.06072,1.49508c-0.01409,0.40182 -0.34427,0.72325 -0.74953,0.72325c-0.2935,0 -0.54762,-0.16859 -0.67081,-0.41421l-0.35906,-0.68133c-0.75639,-0.30705 -1.51267,-0.63329 -2.26417,-0.97672zM400.26396,199.32561c-0.52568,0.07415 -1.00928,0.0765 -1.41569,-0.0268c-0.03895,-0.0099 -0.07859,-0.02071 -0.1187,-0.03245c-0.16638,0.12633 -0.33169,0.25256 -0.49597,0.37818c0.63638,-0.10959 1.26781,-0.03946 1.97972,-0.30028c0.01688,-0.00618 0.03376,-0.0124 0.05065,-0.01866zM406.03551,195.54438c-1.14266,0.33708 -2.28172,0.66548 -3.38743,1.17217c-0.2637,0.12084 -0.57133,0.2964 -0.90022,0.48907c0.30682,-0.06217 0.62193,-0.0926 0.91983,-0.18861c0.9149,-0.29485 1.78247,-0.72024 2.67456,-1.07824c0.23114,-0.13138 0.46219,-0.2629 0.69326,-0.39439zM428.7219,187.57927c-0.8429,0.5914 -1.71409,1.10744 -2.66044,1.5166c-0.14209,0.90379 -0.42019,1.75038 -0.72785,2.63938c0.97286,-1.19151 1.95804,-2.37474 2.9402,-3.56956c0.15003,-0.18252 0.29881,-0.38014 0.44809,-0.58642zM412.19174,190.99636c0.09331,-0.87612 0.09816,-1.79632 0.11174,-2.68044c-0.36063,-0.64524 -0.72499,-1.28856 -1.09652,-1.92832l0.02251,0.13597c0.00813,0.04423 0.01238,0.08983 0.01238,0.13641c0,0.41421 -0.33579,0.75 -0.75,0.75c-0.23355,0 -0.44217,-0.10676 -0.57972,-0.27413l-0.68939,-0.82691c-0.32979,-0.33292 -0.64233,-0.68391 -0.98999,-0.99812c-2.59571,-2.346 0.75,1.19181 1.23915,1.87c0.7432,1.03041 1.16179,1.77475 1.4223,2.66823l0.18121,-0.05144l0.20915,0.7368c0.3007,0.15659 0.60321,0.31063 0.90718,0.46195zM413.67294,190.79183c-0.01309,0.13215 -0.0275,0.26511 -0.04339,0.39836c0.05262,0.10254 0.08232,0.21878 0.08232,0.34196c0,0.0629 -0.00774,0.124 -0.02233,0.18238c0.21902,0.10106 0.4385,0.20061 0.65831,0.29859c-0.22579,-0.40673 -0.45048,-0.81397 -0.67491,-1.22129z" fill="#fff832" stroke="none" stroke-width="0.5" stroke-linecap="butt"></path><path d="" data-paper-data="{&quot;index&quot;:null}" fill="none" stroke="#000000" stroke-width="1.5" stroke-linecap="round"></path><path d="M200.50004,180c0,-21.81525 17.68475,-39.5 39.5,-39.5c21.81525,0 39.5,17.68475 39.5,39.5c0,21.81525 -17.68475,39.5 -39.5,39.5c-21.81525,0 -39.5,-17.68475 -39.5,-39.5z" fill="#d8d8d8" stroke="#000000" stroke-width="1.5" stroke-linecap="butt"></path><path d="M229.09667,174.61439l-0.23199,-9.82029" fill="none" stroke="#000000" stroke-width="1.5" stroke-linecap="round"></path><path d="M242.00962,174.54198l-0.23199,-9.82029" fill="none" stroke="#000000" stroke-width="1.5" stroke-linecap="round"></path><path d="M229.54001,191.29686h10.9564" fill="none" stroke="#000000" stroke-width="1.5" stroke-linecap="round"></path><path d="M198.24098,179.81496c0,-20.38344 16.52404,-36.90748 36.90748,-36.90748c20.38344,0 36.90748,16.52404 36.90748,36.90748c0,20.38344 -16.52404,36.90748 -36.90748,36.90748c-20.38344,0 -36.90748,-16.52404 -36.90748,-36.90748z" fill="#8900b2" stroke="#000000" stroke-width="1" stroke-linecap="butt"></path><path d="M270.42792,170.70331l-1.7848,-4.53063l6.04085,-2.37973l1.7848,4.53063z" fill="#000000" stroke="#000000" stroke-width="1" stroke-linecap="butt"></path><path d="M267.13595,199.09023l3.07851,-4.03139l4.51515,3.44793l-3.07851,4.03139z" fill="#000000" stroke="#000000" stroke-width="1" stroke-linecap="butt"></path><path d="M208.07103,199.06289l2.94478,-4.902l39.38384,1.01343l0.0853,-30.90919l-33.19636,-4.5313l-5.88299,-3.94514l6.51549,-4.56936l42.4611,5.88399l-0.2029,45.65167l-46.83583,0.41578z" fill="#e7ff00" stroke="#000000" stroke-width="0" stroke-linecap="butt"></path><path d="M232.32305,172.39476l-13.39116,-3.65213" fill="none" stroke="#e7ff00" stroke-width="3" stroke-linecap="round"></path><path d="M235.59455,178.02538c0,3.08155 -1.3626,5.57965 -3.04344,5.57965c-1.68085,0 -3.04344,-2.49809 -3.04344,-5.57965c0,-3.08155 1.3626,-5.57965 3.04344,-5.57965c1.68085,0 3.04344,2.49809 3.04344,5.57965z" fill="#e7ff00" stroke="#e7ff00" stroke-width="3" stroke-linecap="butt"></path><path d="M249.86137,178.18188c0,3.08156 -1.36259,5.57965 -3.04344,5.57965c-1.68085,0 -3.04345,-2.49809 -3.04345,-5.57965c0,-3.08156 1.3626,-5.57965 3.04345,-5.57965c1.68085,0 3.04344,2.49809 3.04344,5.57965z" fill="#e7ff00" stroke="#e7ff00" stroke-width="3" stroke-linecap="butt"></path><path d="M235.8731,172.54197l13.39116,-3.65214" data-paper-data="{&quot;index&quot;:null}" fill="none" stroke="#e7ff00" stroke-width="3" stroke-linecap="round"></path><path d="M413.21288,214.78701c-0.07764,0.12263 -0.15462,0.24493 -0.23089,0.36691l-0.08397,0.03621l0.02757,0.02739l-0.5432,0.54676c-0.13587,0.13683 -0.32414,0.22155 -0.5322,0.22155c-0.07053,0 -0.13878,-0.00973 -0.20349,-0.02793l-0.62265,0.62673c-0.13587,0.13683 -0.32414,0.22156 -0.53221,0.22156c-0.41421,0 -0.75,-0.33579 -0.75,-0.75c0,-0.18362 0.06599,-0.35183 0.17554,-0.4822l0.67592,-0.81643l0.05423,0.0449c0.48154,-1.16742 1.05988,-2.31328 1.70879,-3.43948c-0.11937,0.08018 -0.26305,0.12696 -0.41765,0.12696c-0.39316,0 -0.71567,-0.30253 -0.74743,-0.68749c-0.47962,0.70803 -0.94329,1.41611 -1.37798,2.1272l-0.42865,0.7511c-0.12726,0.23292 -0.37449,0.39092 -0.65861,0.39092c-0.41421,0 -0.75,-0.33579 -0.75,-0.75c0,-0.11661 0.02661,-0.227 0.07409,-0.32544l0.61494,-1.3505l0.13828,0.06296c0.0403,-0.06525 0.08067,-0.13046 0.12108,-0.19564c1.23562,-3.96542 4.12113,-7.78257 6.9447,-10.87276c0.20199,-0.33251 0.4023,-0.66618 0.60064,-1.00122c0.62568,-1.05691 0.73475,-2.28057 1.12964,-3.36049c-2.93758,3.06711 -4.93254,7.03638 -7.80939,10.08412c-0.03726,0.0631 -0.07426,0.12629 -0.11098,0.18958l0.10165,0.06886l-0.83492,1.23257c-0.13404,0.20401 -0.36492,0.33871 -0.62727,0.33871c-0.06166,0 -0.12158,-0.00744 -0.17891,-0.02147c-0.16126,0.20032 -0.32066,0.39564 -0.47763,0.58556l-0.66402,0.80083c-0.13753,0.16834 -0.34677,0.27581 -0.5811,0.27581c-0.41421,0 -0.75,-0.33579 -0.75,-0.75c0,-0.0682 0.0091,-0.13428 0.02616,-0.19707l0.35752,-1.43948l0.1876,0.04659c0.06595,-0.4344 0.15121,-0.86484 0.25393,-1.29137c-2.18486,2.64614 -4.4618,5.16036 -6.25998,7.51792l-0.03263,0.01526l0.01075,0.00981l-0.5726,0.62727c-0.13722,0.15141 -0.33545,0.24651 -0.55589,0.24651c-0.41421,0 -0.75,-0.33579 -0.75,-0.75c0,-0.14766 0.04267,-0.28536 0.11636,-0.40143l0.77617,-1.26955l0.12204,0.07461c1.16159,-2.99431 3.03971,-5.93255 5.20696,-8.68888c-0.22726,-0.12886 -0.3806,-0.37296 -0.3806,-0.65287c0,-0.17518 0.06006,-0.33634 0.16072,-0.464l0.91297,-1.18152l0.15303,0.11825c2.13696,-3.67546 5.70912,-6.70366 8.54198,-9.79274l0.61434,-0.6699c0.13718,-0.15061 0.33486,-0.24513 0.55463,-0.24513c0.41421,0 0.75,0.33579 0.75,0.75c0,0.05909 -0.00683,0.11658 -0.01975,0.17173l-0.15433,0.7249c0.18778,0.13631 0.30989,0.35757 0.30989,0.60736c0,0.01371 -0.00037,0.02734 -0.00109,0.04087l-0.03338,0.70572c0.032,0.0425 0.06228,0.09117 0.09027,0.14679c0.33716,0.66994 -0.33278,1.0071 -0.33278,1.0071c-0.02847,0.01432 -0.05685,0.02871 -0.08512,0.04317c-0.05771,0.55142 -0.16135,1.08937 -0.3029,1.6163c0.63593,-0.72042 1.30463,-1.41836 2.01921,-2.08807l0.0469,-0.01876l-0.00803,-0.01116l0.94389,-0.67863c0.12444,-0.0918 0.27827,-0.14606 0.44478,-0.14606c0.41421,0 0.75,0.33579 0.75,0.75c0,0.05691 -0.00634,0.11234 -0.01835,0.16562l-0.29745,1.45425l-0.17407,-0.0356c-0.05538,0.38328 -0.1255,0.76248 -0.20913,1.13789c0.44455,-0.59303 0.87597,-1.16377 1.28254,-1.70775l0.04741,-0.02777l-0.01131,-0.01124l0.81487,-0.82021c0.13587,-0.13683 0.32414,-0.22155 0.53221,-0.22155c0.41421,0 0.75,0.33579 0.75,0.75c0,0.0376 -0.00277,0.07456 -0.00811,0.11068l-0.18321,1.38309l0.56029,-0.91645c0.13034,-0.22154 0.37125,-0.37023 0.64688,-0.37023c0.41421,0 0.75,0.33579 0.75,0.75c0,0.13943 -0.03805,0.26998 -0.10433,0.38182l-0.05942,0.10466l0.19956,-0.13921c0.12299,-0.08823 0.27378,-0.14018 0.4367,-0.14018c0.41421,0 0.75,0.33579 0.75,0.75c0,0.0521 -0.00531,0.10296 -0.01543,0.15207l-0.27195,1.45991l-0.20911,-0.03895c-0.9779,6.50653 -6.38143,13.24549 -10.12851,18.17557l-0.01825,0.01188l0.00494,0.0042l-0.81171,0.95322c-0.13758,0.16363 -0.3438,0.26762 -0.57431,0.26762c-0.41421,0 -0.75,-0.33579 -0.75,-0.75c0,-0.08192 0.01313,-0.16076 0.03741,-0.23455l0.43064,-1.41862l0.13972,0.04241c0.04278,-0.25313 0.0916,-0.50217 0.14655,-0.75222zM421.84128,196.84157c0.05293,-0.08712 0.10596,-0.17417 0.15912,-0.26116l-0.13937,-0.01846c-0.00572,0.0933 -0.01231,0.18651 -0.01975,0.27962zM412.90734,197.58189c-0.49916,0.74219 -1.04672,1.47586 -1.61903,2.1951c-0.81389,1.31775 -1.60196,2.65547 -2.38835,4.0132c-0.29592,0.51092 -0.48332,1.08052 -0.65352,1.65263c1.64732,-2.4778 3.02999,-5.21973 4.57015,-7.70849c0.03145,-0.05081 0.06165,-0.10164 0.09075,-0.15244zM419.05663,201.50293c0.34662,-1.1115 0.61753,-2.37414 0.97354,-3.49962c-0.26202,0.3761 -0.52024,0.75444 -0.77491,1.13492c-0.0024,0.05061 -0.00982,0.09991 -0.02177,0.1474l-0.33154,1.44612l-0.25147,-0.05765c-0.25684,1.20241 -0.6967,2.37288 -1.25172,3.50404c0.04913,-0.06186 0.0983,-0.12367 0.14751,-0.18542c0.41666,-0.73244 0.83841,-1.43976 1.2727,-2.10497c0.07884,-0.12076 0.15796,-0.24958 0.23765,-0.38482zM422.50188,200.32361c-0.84031,1.08805 -1.69559,2.17119 -2.54552,3.25924c-1.27817,2.81503 -3.02514,5.51931 -4.72015,8.09724c0.32715,0.2947 0.1842,0.76561 0.1842,0.76561l-0.18705,0.61618c-0.04232,0.13942 -0.08076,0.27699 -0.11692,0.41255c2.28452,-3.12776 4.44038,-6.3952 6.12521,-9.86766c0.4903,-1.01051 0.83465,-2.17409 1.26024,-3.28317z" fill="#fffb98" stroke="none" stroke-width="0.5" stroke-linecap="butt"></path></g></g></svg>