<svg version="1.1" xmlns="http://www.w3.org/2000/svg" xmlns:xlink="http://www.w3.org/1999/xlink" width="80.5" height="80.5" viewBox="0,0,80.5,80.5"><g transform="translate(-204.07949,-139.75)"><g data-paper-data="{&quot;isPaintingLayer&quot;:true}" fill-rule="nonzero" stroke-linejoin="miter" stroke-miterlimit="10" stroke-dasharray="" stroke-dashoffset="0" style="mix-blend-mode: normal"><path d="M204.82949,180c0,-21.81525 17.68475,-39.5 39.5,-39.5c21.81525,0 39.5,17.68475 39.5,39.5c0,21.81525 -17.68475,39.5 -39.5,39.5c-21.81525,0 -39.5,-17.68475 -39.5,-39.5z" fill="#d8d8d8" stroke="#000000" stroke-width="1.5" stroke-linecap="butt"></path><path d="M223.91856,157.45161l9,1v8" fill="none" stroke="#000000" stroke-width="1.5" stroke-linecap="round"></path><path d="M243.42728,167.36082v-8l9,-1" data-paper-data="{&quot;index&quot;:null}" fill="none" stroke="#000000" stroke-width="1.5" stroke-linecap="round"></path><path d="M256.96879,195.96181l-31.37388,0.40984v-12.29517z" fill="#ffffff" stroke="#000000" stroke-width="1.5" stroke-linecap="round"></path><path d="M231.95448,186.19634l-0.42397,10.17531" fill="none" stroke="#000000" stroke-width="1.5" stroke-linecap="round"></path><path d="M240.43391,195.94768v-5.9356" fill="none" stroke="#000000" stroke-width="1.5" stroke-linecap="round"></path><g stroke="none" stroke-linecap="butt"><path d="M261.2924,215.17168l-2.13113,2.89497l-26.77847,-19.71293l2.13113,-2.89497z" fill="#606060" stroke-width="0"></path><path d="M243.98307,195.73374l-4.08466,5.5487l-3.61871,-2.66391l4.08466,-5.5487z" fill="#606060" stroke-width="0"></path><path d="M274.67781,213.49386c-1.30633,1.77455 -4.11382,5.58829 -4.11382,5.58829l-57.34092,-42.21145l7.51727,-10.2116l41.49976,30.54999l-3.03881,4.13311c0,0 16.17247,11.20628 15.47653,12.15165z" fill="#969696" stroke-width="NaN"></path><path d="M230.57739,153.21721l-8.28144,24.07881l-8.30754,-1.86946c0,0 4.12586,-8.23226 3.85238,-12.51114c-0.32549,-5.09275 -5.6766,-16.03107 -5.6766,-16.03107z" fill="#606060" stroke-width="0"></path><path d="M257.8354,176.91644l-9.76768,13.26861l-5.5487,-4.08466l9.76768,-13.26861z" fill="#606060" stroke-width="0"></path><path d="M240.5254,184.26079l-6.16905,8.38017l-5.30744,-3.90707l6.16905,-8.38017z" fill="#00fffe" stroke-width="0"></path><path d="M232.81864,178.66437l-6.16905,8.38017l-5.30744,-3.90707l6.16905,-8.38017z" fill="#00fffe" stroke-width="0"></path><path d="M247.72549,189.34296l-6.16905,8.38017l-5.30744,-3.90707l6.16905,-8.38017z" fill="#00fffe" stroke-width="0"></path></g></g></g></svg>