<svg version="1.1" xmlns="http://www.w3.org/2000/svg" xmlns:xlink="http://www.w3.org/1999/xlink" width="136.93839" height="119.19777" viewBox="0,0,136.93839,119.19777"><g transform="translate(-184.78385,-128.3024)"><g data-paper-data="{&quot;isPaintingLayer&quot;:true}" fill="#ff38fc" fill-rule="nonzero" stroke="none" stroke-linecap="butt" stroke-linejoin="miter" stroke-miterlimit="10" stroke-dasharray="" stroke-dashoffset="0" style="mix-blend-mode: normal"><path d="M234.54918,163.42086c23.03693,-18.96757 70.75299,-14.00902 70.75299,-14.00902c0,0 -43.08432,17.39216 -59.97738,30.01451c-17.00583,12.70661 -41.7215,45.974 -41.7215,45.974c0,0 8.97023,-43.8857 30.94587,-61.97948z" data-paper-data="{&quot;index&quot;:null}" stroke-width="NaN"></path><path d="M215.72974,142.89593c23.03693,-18.96757 70.75299,-14.00902 70.75299,-14.00902c0,0 -43.08432,17.39216 -59.97738,30.01451c-17.00583,12.7066 -41.7215,45.974 -41.7215,45.974c0,0 8.97024,-43.88571 30.94588,-61.97949z" data-paper-data="{&quot;index&quot;:null}" stroke-width="NaN"></path><path d="M250.96926,185.52068c23.03693,-18.96758 70.75299,-14.00902 70.75299,-14.00902c0,0 -43.08432,17.39217 -59.97737,30.01452c-17.00583,12.7066 -41.7215,45.974 -41.7215,45.974c0,0 8.97024,-43.88571 30.94588,-61.97949z" data-paper-data="{&quot;index&quot;:null}" stroke-width="NaN"></path></g></g></svg>