<svg version="1.1" xmlns="http://www.w3.org/2000/svg" xmlns:xlink="http://www.w3.org/1999/xlink" width="279.7223" height="194.9218" viewBox="0,0,279.7223,194.9218"><g transform="translate(-43.06722,-78.22313)"><g data-paper-data="{&quot;isPaintingLayer&quot;:true}" fill="#e200ff" fill-rule="nonzero" stroke="none" stroke-width="0.5" stroke-linecap="butt" stroke-linejoin="miter" stroke-miterlimit="10" stroke-dasharray="" stroke-dashoffset="0" style="mix-blend-mode: normal"><path d="M278.74483,233.93238c-2.46557,-0.41347 -2.0521,-2.87904 -2.0521,-2.87904l0.51041,-3.04291c0.4936,-3.33609 1.08477,-6.65914 1.77066,-9.96106c0,0 0.50896,-2.44764 2.95661,-1.93868c2.44764,0.50896 1.93868,2.95661 1.93868,2.95661c-0.67078,3.22235 -1.24648,6.46593 -1.72699,9.72209l-0.51822,3.0909c0,0 -0.41347,2.46557 -2.87904,2.0521z"></path><path d="M277.81997,129.15963c-2.47927,0.32128 -2.80055,-2.15798 -2.80055,-2.15798l-0.38247,-3.14617c-0.51373,-1.15443 -1.02746,-2.30885 -1.5412,-3.46328c0,0 -1.00132,-2.29071 1.28938,-3.29203c2.29071,-1.00132 3.29203,1.28938 3.29203,1.28938c0.59266,1.37665 1.18533,2.7533 1.77799,4.12995l0.5228,3.83958c0,0 0.32128,2.47927 -2.15798,2.80055z"></path><path d="M278.87952,95.63745c-2.49344,-0.18093 -2.31251,-2.67438 -2.31251,-2.67438l0.33522,-4.53407c-0.11198,-1.60413 -0.22395,-3.20826 -0.33593,-4.81238c0,0 -0.17089,-2.49415 2.32327,-2.66504c2.49415,-0.17089 2.66504,2.32327 2.66504,2.32327c0.022,0.32684 0.044,0.65367 0.066,0.98051c0.25048,-0.20502 0.57568,-0.37996 0.99601,-0.50278c2.39966,-0.70118 3.10083,1.69848 3.10083,1.69848c1.76594,6.0436 2.77961,11.69981 3.62299,17.94977l0.4882,3.61795c0,0 0.33432,2.47755 -2.14323,2.81186c-2.47755,0.33432 -2.81186,-2.14323 -2.81186,-2.14323l-0.4882,-3.61795c-0.66186,-4.90502 -1.41933,-9.38847 -2.59731,-14.02877l-0.23414,3.28425c0,0 -0.18093,2.49344 -2.67438,2.31251z"></path><path d="M303.48423,93.61415c-1.44366,0 -2.05366,-0.83366 -2.3114,-1.53817c-0.36149,0.47174 -0.95885,0.86152 -1.94599,0.86152c-2.01957,0 -2.40767,-1.63146 -2.48226,-2.2585c-0.1381,0.72353 -0.63796,2.03299 -2.44728,2.03299c-2.41445,0 -2.49707,-2.33183 -2.4999,-2.49142c-0.56621,-3.00098 -1.14956,-5.99875 -1.74473,-8.99412c0,0 -0.48721,-2.45207 1.96486,-2.93927c2.45207,-0.48721 2.93927,1.96486 2.93927,1.96486c0.11873,0.59756 0.23699,1.19521 0.35474,1.79296c0.36897,0.47979 0.50246,0.97246 0.50246,0.97246c0.01917,0.07075 0.03834,0.1415 0.05751,0.21225c0.10862,-0.75445 0.54141,-1.77492 2.0506,-2.02484c2.46641,-0.40844 2.87485,2.05797 2.87485,2.05797c0.16648,1.00648 0.31944,2.0152 0.46259,3.02536c0.06002,-0.78544 0.12004,-1.57088 0.18007,-2.35632c0,0 0.1905,-2.49273 2.68323,-2.30224c2.49273,0.1905 2.30224,2.68323 2.30224,2.68323c-0.14938,1.95468 -0.29875,3.90936 -0.4481,5.86404l0.00727,0.93724c0,0 0,2.5 -2.5,2.5z"></path><path d="M314.03862,93.60191c-2.48775,0.24715 -2.7349,-2.24061 -2.7349,-2.24061l-0.21941,-2.21236c-0.14938,-1.27807 -0.29876,-2.55613 -0.44813,-3.8342c0,0 -0.29022,-2.4831 2.19288,-2.77332c2.4831,-0.29022 2.77332,2.19288 2.77332,2.19288c0.14938,1.27807 0.29876,2.55613 0.44813,3.8342l0.22872,2.29851c0,0 0.24715,2.48775 -2.24061,2.7349z"></path><path d="M284.66225,273.14492c-2.5,0 -2.5,-2.5 -2.5,-2.5v-1.35323c0.00274,-2.53864 -0.13366,-5.08256 -0.43126,-7.6037c0,0 -0.29024,-2.4831 2.19286,-2.77333c2.4831,-0.29024 2.77333,2.19286 2.77333,2.19286c0.31436,2.71432 0.46232,5.45172 0.46507,8.18418v1.35323c0,0 0,2.5 -2.5,2.5z"></path><path d="M298.50635,269.98115c-2.49381,0.17582 -2.66963,-2.31799 -2.66963,-2.31799l-0.23676,-3.35855c-0.20674,-3.28621 -0.49793,-6.56821 -0.87347,-9.83943c0,0 -0.28472,-2.48373 2.19902,-2.76845c2.48373,-0.28472 2.76845,2.19902 2.76845,2.19902c0.38346,3.3499 0.6821,6.71061 0.89488,10.07567l0.2355,3.34011c0,0 0.17582,2.49381 -2.31799,2.66963z"></path><path d="M306.67147,270.19782c-2.4849,0.27433 -2.75923,-2.21058 -2.75923,-2.21058l-0.19126,-1.81702c-0.44111,-2.24916 -1.10236,-4.46019 -1.90725,-6.60622c0,0 -0.87277,-2.34271 1.46994,-3.21548c2.34271,-0.87277 3.21548,1.46994 3.21548,1.46994c0.88867,2.39994 1.62169,4.86833 2.12596,7.37734l0.25693,2.24278c0,0 0.27433,2.4849 -2.21058,2.75923z"></path><path d="M316.48034,267.05534c-2.5,0 -2.5,-2.5 -2.5,-2.5l0.20721,0.09436c-0.52283,-1.20289 -1.04567,-2.40578 -1.5685,-3.60868c0,0 -0.99655,-2.29279 1.29623,-3.28934c2.29279,-0.99655 3.28934,1.29623 3.28934,1.29623c0.52283,1.20289 1.04567,2.40578 1.5685,3.60868l0.20721,1.89875c0,0 0,2.5 -2.5,2.5z"></path><path d="M320.28952,260.96572c-2.07878,0 -2.42903,-1.72854 -2.48804,-2.31101c-0.5804,-1.1035 -1.16079,-2.20701 -1.74119,-3.31051c0,0 -1.16374,-2.21262 1.04888,-3.37637c2.21262,-1.16374 3.37637,1.04888 3.37637,1.04888c0.6722,1.27806 1.3444,2.55611 2.01661,3.83417l0.28738,1.61484c0,0 0,2.5 -2.5,2.5z"></path><path d="M94.65596,183.37002l-0.17268,-0.01511c-1.57475,-0.13837 -3.14532,-0.29734 -4.71312,-0.46961c0.11573,1.99753 -1.96893,2.46383 -1.96893,2.46383l-4.04843,0.9055c-7.20176,1.51732 -14.20044,2.9808 -21.59324,2.98898c0,0 -2.5,0 -2.5,-2.5c0,-2.5 2.5,-2.5 2.5,-2.5c6.34187,0.00763 12.38481,-1.16573 18.53365,-2.45443c-5.89886,-0.74152 -11.79768,-1.47132 -17.7732,-1.79643c0,0 -2.49631,-0.13582 -2.36049,-2.63212c0.08182,-1.50394 1.02043,-2.05251 1.75375,-2.25099c-4.03969,-0.03965 -8.08244,-0.13972 -12.13006,-0.30268c0,0 -2.49798,-0.10057 -2.3974,-2.59855c0.10057,-2.49798 2.59855,-2.3974 2.59855,-2.3974c8.25564,0.33239 16.49046,0.39994 24.72053,0.22417c-0.12967,-0.30027 -0.2085,-0.66537 -0.2085,-1.10931c0,-2.5 2.5,-2.5 2.5,-2.5c1.7737,0.00593 3.56734,0.11266 5.37224,0.28962c0.66337,-0.46968 1.43936,-0.51152 1.43936,-0.51152c10.40643,-0.56115 20.80484,-1.22178 31.20995,-1.80697l4.10382,-0.001c0,0 2.5,0 2.5,2.5c0,0.17682 -0.01251,0.34113 -0.03575,0.49382c6.32543,-0.41631 12.6592,-0.66734 19.0099,-0.54441l2.0914,0.03183c0,0 2.49971,0.03807 2.46164,2.53778c-0.03807,2.49971 -2.53778,2.46164 -2.53778,2.46164l-2.11203,-0.03219c-1.40043,-0.02711 -2.80002,-0.03612 -4.19885,-0.02925c0.63317,0.24611 1.2797,0.79106 1.43374,1.97572c0.32237,2.47913 -2.15676,2.8015 -2.15676,2.8015l-0.66599,0.0866c-12.69164,1.65031 -25.39461,3.27361 -38.06862,5.06464c-0.55234,1.8044 -2.58671,1.62633 -2.58671,1.62633zM90.03036,177.7293c14.50815,-2.12413 29.06322,-3.98509 43.60488,-5.87446c-8.4595,0.17482 -16.89408,0.87173 -25.32506,1.59806c-0.41374,2.35361 -2.81401,2.00705 -2.81401,2.00705l-2.19013,-0.31623c-1.6506,-0.24079 -3.32693,-0.53194 -5.01936,-0.84407c-9.29232,0.7409 -18.59054,1.28037 -27.9232,0.9589c0,0 -0.32452,-0.01126 -0.73559,-0.14263c-1.45812,0.01171 -2.9165,0.01572 -4.37522,0.01194c8.1777,0.56642 16.22918,1.80726 24.3485,2.71261c0.25228,-0.08526 0.42919,-0.11117 0.42919,-0.11117z"></path><path d="M129.13882,194.12445c0.5131,2.44678 -1.93368,2.95988 -1.93368,2.95988l-0.48415,0.10153c-2.45081,0.51237 -4.61952,1.03165 -6.77016,1.74192c1.59815,0.08487 3.19695,0.15628 4.79694,0.2026l0.55466,-0.17741c0,0 2.45084,-0.49334 2.94418,1.9575c0.49334,2.45084 -1.9575,2.94418 -1.9575,2.94418l-1.68604,0.27363c-7.71419,-0.22335 -15.40167,-1.03484 -23.11856,-1.11536c-9.23855,-0.09639 -18.39713,1.04458 -27.61516,1.34128c-6.04673,0.19462 -12.15479,-0.22498 -18.20786,-0.22487c0,0 -2.5,0 -2.5,-2.5c0,-2.5 2.5,-2.5 2.5,-2.5c6.01348,0.00011 12.08488,0.42229 18.0917,0.22622c5.46961,-0.17853 10.91757,-0.64707 16.37379,-0.98158c-0.14723,-0.22895 -0.27104,-0.5076 -0.35992,-0.84608c-0.06395,-0.24355 -0.09693,-0.46901 -0.10453,-0.67755c-4.39917,-0.43339 -8.71076,-1.31625 -13.16593,-2.48754c-10.59897,0.73686 -20.68569,1.02592 -31.3067,-0.63871c0,0 -2.46964,-0.38841 -2.08123,-2.85805c0.38841,-2.46964 2.85805,-2.08123 2.85805,-2.08123c8.74796,1.38081 17.10569,1.35472 25.72326,0.87338c0.90444,-1.58057 2.81227,-1.0319 2.81227,-1.0319c0.83041,0.23891 1.65298,0.46957 2.46944,0.69073c0.36069,-0.02584 0.72204,-0.05213 1.08411,-0.0788l3.41433,-0.25147c0,0 0.62854,-0.04629 1.2777,0.2232c1.41798,-0.54372 2.83597,-1.08745 4.25395,-1.63117l3.62814,-1.36971c0,0 2.33888,-0.88297 3.22185,1.4559c0.71155,1.8848 -0.66918,2.82413 -1.23213,3.11782c7.61132,-0.06028 15.16195,-0.82947 22.76626,-1.74194l1.73323,-0.43637c0,0 0.7181,-0.1807 1.47102,0.0454c0.8594,-0.10617 1.71969,-0.21315 2.58102,-0.32013l0.05912,-0.00734c0,0 2.48094,-0.30814 2.78908,2.1728c0.16901,1.36076 -0.50104,2.06787 -1.14057,2.42899c0.91143,-0.22008 1.84624,-0.42794 2.81601,-0.6319l0.48415,-0.10153c0,0 2.44678,-0.5131 2.95988,1.93368zM113.30524,196.20898c2.66668,-1.24791 5.16644,-2.1191 7.8062,-2.83341c-1.60454,0.19915 -3.20555,0.39703 -4.80405,0.58879l-1.59905,0.40218c-5.60147,1.18768 -11.20719,2.33921 -16.77406,3.66643c1.19961,-0.02424 2.40031,-0.03233 3.6024,-0.01979c3.43289,0.03582 6.85973,0.21517 10.2856,0.42335c-0.04388,-1.51034 1.48297,-2.22756 1.48297,-2.22756z"></path><path d="M150.64425,178.31147c0.53821,2.44138 -1.90317,2.97959 -1.90317,2.97959l-0.03828,0.00844c-12.5854,2.77213 -25.33614,3.92775 -38.15899,5.00332c0,0 -2.49125,0.20897 -2.70022,-2.28229c-0.20897,-2.49125 2.28229,-2.70022 2.28229,-2.70022c12.59934,-1.05683 25.13525,-2.1752 37.5005,-4.90358l0.03828,-0.00844c0,0 2.44138,-0.53821 2.97959,1.90317z"></path></g></g></svg>