<svg version="1.1" xmlns="http://www.w3.org/2000/svg" xmlns:xlink="http://www.w3.org/1999/xlink" width="180.43655" height="80.5" viewBox="0,0,180.43655,80.5"><g transform="translate(-200.95089,-140.37072)"><g data-paper-data="{&quot;isPaintingLayer&quot;:true}" fill-rule="nonzero" stroke-linejoin="miter" stroke-miterlimit="10" stroke-dasharray="" stroke-dashoffset="0" style="mix-blend-mode: normal"><path d="" data-paper-data="{&quot;index&quot;:null}" fill="none" stroke="#000000" stroke-width="1.5" stroke-linecap="round"></path><path d="" data-paper-data="{&quot;index&quot;:null}" fill="none" stroke="#000000" stroke-width="1.5" stroke-linecap="round"></path><path d="" data-paper-data="{&quot;index&quot;:null}" fill="none" stroke="#000000" stroke-width="1.5" stroke-linecap="round"></path><path d="" data-paper-data="{&quot;index&quot;:null}" fill="none" stroke="#000000" stroke-width="1.5" stroke-linecap="round"></path><path d="" data-paper-data="{&quot;index&quot;:null}" fill="none" stroke="#000000" stroke-width="1.5" stroke-linecap="round"></path><path d="M289.92393,195.47556" data-paper-data="{&quot;index&quot;:null}" fill="none" stroke="#d8d8d8" stroke-width="4" stroke-linecap="round"></path><path d="M241.20089,220.12072c-21.81525,0 -39.5,-17.68475 -39.5,-39.5c0,-21.81525 17.68475,-39.5 39.5,-39.5c21.81525,0 39.5,17.68475 39.5,39.5c0,21.81525 -17.68475,39.5 -39.5,39.5z" fill="#d8d8d8" stroke="#000000" stroke-width="1.5" stroke-linecap="butt"></path><path d="M229.23032,168.76316l-17.15344,-6.06646" fill="none" stroke="#000000" stroke-width="1.5" stroke-linecap="round"></path><path d="M222.91576,171.85065l0.20919,7.1124" fill="none" stroke="#000000" stroke-width="1.5" stroke-linecap="round"></path><path d="M242.40962,166.67571l-12.04734,0.73331" fill="none" stroke="#000000" stroke-width="1.5" stroke-linecap="round"></path><path d="M235.65795,178.6271l0.20919,-6.69403" fill="none" stroke="#000000" stroke-width="1.5" stroke-linecap="round"></path><path d="M237.39081,185.8159c0,0 -2.44712,6.39517 -6.00657,7.52772c-3.85628,1.227 -16.31203,-0.42635 -16.31203,-0.42635" fill="none" stroke="#000000" stroke-width="1.5" stroke-linecap="round"></path><g><path d="" data-paper-data="{&quot;index&quot;:null}" fill="none" stroke="#000000" stroke-width="1.5" stroke-linecap="round"></path><path d="" data-paper-data="{&quot;index&quot;:null}" fill="none" stroke="#000000" stroke-width="1.5" stroke-linecap="round"></path><path d="" data-paper-data="{&quot;index&quot;:null}" fill="none" stroke="#000000" stroke-width="1.5" stroke-linecap="round"></path><path d="" data-paper-data="{&quot;index&quot;:null}" fill="none" stroke="#000000" stroke-width="1.5" stroke-linecap="round"></path><path d="" data-paper-data="{&quot;index&quot;:null}" fill="none" stroke="#000000" stroke-width="1.5" stroke-linecap="round"></path><path d="M352.82983,186.50949" data-paper-data="{&quot;index&quot;:null}" fill="none" stroke="#d8d8d8" stroke-width="4" stroke-linecap="round"></path><g stroke-width="0" stroke-linecap="butt"><path d="M350.93388,147.61378l7.70726,12.08886l-6.60631,1.95608z" fill="#aeaeae" stroke="none"></path><path d="M370.11909,168.84042l7.73075,-2.28903l3.5376,11.94754l-7.73075,2.28903z" fill="#a7ed95" stroke="none"></path><path d="M318.79733,189.86976l29.51744,-8.73992l0.58266,1.96783l-29.51744,8.73992z" fill="#c2c2c2" stroke="none"></path><path d="M313.65589,188.18158l5.1108,-1.51327l2.45551,8.293l-5.1108,1.51327z" fill="#a6a6a6" stroke="#000000"></path><path d="M342.17048,162.28625l25.59831,-7.5795l11.98618,40.48106l-25.59831,7.5795z" fill="#73a367" stroke="none"></path><path d="M361.87096,196.75943l6.60631,-1.95608l0.11706,14.33628z" data-paper-data="{&quot;index&quot;:null}" fill="#aeaeae" stroke="none"></path></g></g></g></g></svg>