<svg version="1.1" xmlns="http://www.w3.org/2000/svg" xmlns:xlink="http://www.w3.org/1999/xlink" width="97.25032" height="80.5" viewBox="0,0,97.25032,80.5"><g transform="translate(-189.23768,-139.86622)"><g data-paper-data="{&quot;isPaintingLayer&quot;:true}" fill-rule="nonzero" stroke-linejoin="miter" stroke-miterlimit="10" stroke-dasharray="" stroke-dashoffset="0" style="mix-blend-mode: normal"><g><path d="M201.88041,195.94778c0.07287,-2.13887 1.52174,-3.8254 3.23618,-3.76699c1.71445,0.05841 3.04518,1.83966 2.97229,3.97853c-0.07287,2.13887 -1.52174,3.8254 -3.23618,3.76699c-1.71445,-0.05841 -3.04518,-1.83966 -2.97229,-3.97853z" fill="none" stroke="#000000" stroke-width="0.5" stroke-linecap="butt"></path><path d="M204.92282,194.92576c0,0 -11.45666,0.86502 -13.61861,-0.46396c-1.45239,-0.89281 -1.56653,-4.09795 -1.56653,-4.09795c0,0 -0.4381,-2.78358 1.83041,-3.64756c6.9118,-2.63239 18.42517,0.62773 18.42517,0.62773l-0.61289,17.98954l-5.40739,-0.18421l0.18726,-5.49681z" fill="#989898" stroke="#000000" stroke-width="1" stroke-linecap="round"></path><path d="M199.27664,189.98067l0.1277,-3.74782l3.80519,0.12963l-0.1277,3.74782z" fill="#00f6ff" stroke="none" stroke-width="0" stroke-linecap="butt"></path><path d="M204.26645,190.65093l0.1277,-3.74782l3.80519,0.12963l-0.1277,3.74782z" fill="#00f6ff" stroke="none" stroke-width="0" stroke-linecap="butt"></path><path d="M194.26981,189.8101l0.1277,-3.74782l3.80519,0.12963l-0.1277,3.74782z" fill="#00f6ff" stroke="none" stroke-width="0" stroke-linecap="butt"></path></g><path d="M204.82949,180.11622c0,-21.81525 17.68475,-39.5 39.5,-39.5c21.81525,0 39.5,17.68475 39.5,39.5c0,21.81525 -17.68475,39.5 -39.5,39.5c-21.81525,0 -39.5,-17.68475 -39.5,-39.5z" fill="#d8d8d8" stroke="#000000" stroke-width="1.5" stroke-linecap="butt"></path><path d="M228.58224,167.20295l9,1v8" fill="none" stroke="#000000" stroke-width="1.5" stroke-linecap="round"></path><path d="M248.51493,176.68819v-8l9,-1" data-paper-data="{&quot;index&quot;:null}" fill="none" stroke="#000000" stroke-width="1.5" stroke-linecap="round"></path><path d="M258.57949,195.375l-32.25,2.5" fill="none" stroke="#000000" stroke-width="1.5" stroke-linecap="round"></path><g><path d="M276.238,196.51898c0,-2.1401 1.7349,-3.875 3.875,-3.875c2.1401,0 3.875,1.7349 3.875,3.875c0,2.1401 -1.7349,3.875 -3.875,3.875c-2.1401,0 -3.875,-1.7349 -3.875,-3.875z" fill="none" stroke="#000000" stroke-width="0.5" stroke-linecap="butt"></path><path d="M279.988,195.39398c0,0 -14.24795,1.25461 -17,0c-1.8488,-0.84283 -2.12729,-4.04223 -2.12729,-4.04223c0,0 -0.66449,-2.76706 2.12729,-3.70777c8.50613,-2.8662 23,0 23,0v18h-6.75v-5.5z" fill="#989898" stroke="#000000" stroke-width="1" stroke-linecap="round"></path><path d="M272.738,190.64398v-3.75h4.75v3.75z" fill="#00f6ff" stroke="none" stroke-width="0" stroke-linecap="butt"></path><path d="M278.988,191.14398v-3.75h4.75v3.75z" fill="#00f6ff" stroke="none" stroke-width="0" stroke-linecap="butt"></path><path d="M266.488,190.64398v-3.75h4.75v3.75z" fill="#00f6ff" stroke="none" stroke-width="0" stroke-linecap="butt"></path></g></g></g></svg>