<svg version="1.1" xmlns="http://www.w3.org/2000/svg" xmlns:xlink="http://www.w3.org/1999/xlink" width="195.51177" height="171.74493" viewBox="0,0,195.51177,171.74493"><g transform="translate(-106.17591,-140.37072)"><g data-paper-data="{&quot;isPaintingLayer&quot;:true}" fill-rule="nonzero" stroke-linejoin="miter" stroke-miterlimit="10" stroke-dasharray="" stroke-dashoffset="0" style="mix-blend-mode: normal"><path d="" data-paper-data="{&quot;index&quot;:null}" fill="none" stroke="#000000" stroke-width="1.5" stroke-linecap="round"></path><path d="" data-paper-data="{&quot;index&quot;:null}" fill="none" stroke="#000000" stroke-width="1.5" stroke-linecap="round"></path><path d="M301.68768,195.47557" data-paper-data="{&quot;index&quot;:null}" fill="none" stroke="#d8d8d8" stroke-width="4" stroke-linecap="round"></path><path d="M199.18372,180.62073c0,-21.81525 17.68475,-39.5 39.5,-39.5c21.81525,0 39.5,17.68475 39.5,39.5c0,21.81525 -17.68475,39.5 -39.5,39.5c-21.81525,0 -39.5,-17.68475 -39.5,-39.5z" data-paper-data="{&quot;index&quot;:null}" fill="#d8d8d8" stroke="#000000" stroke-width="1.5" stroke-linecap="butt"></path><path d="M243.28496,174.20035l11.07275,-4.59202" data-paper-data="{&quot;index&quot;:null}" fill="none" stroke="#000000" stroke-width="1.5" stroke-linecap="round"></path><path d="M248.94146,178.95915l0.25511,-5.86758" data-paper-data="{&quot;index&quot;:null}" fill="none" stroke="#000000" stroke-width="1.5" stroke-linecap="round"></path><path d="M239.9685,174.57764l-14.45771,-4.12252" data-paper-data="{&quot;index&quot;:null}" fill="none" stroke="#000000" stroke-width="1.5" stroke-linecap="round"></path><path d="M234.44135,178.41112l-0.21988,-5.35892" data-paper-data="{&quot;index&quot;:null}" fill="none" stroke="#000000" stroke-width="1.5" stroke-linecap="round"></path><path d="M252.45108,192.12345l-18.63798,-0.59168" fill="none" stroke="#000000" stroke-width="1.5" stroke-linecap="round"></path><path d="M113.43086,252.86375c-0.80926,-1.11869 -0.55842,-2.6816 0.56027,-3.49086c1.11869,-0.80926 2.6816,-0.55842 3.49086,0.56027c0.80926,1.11869 0.55842,2.6816 -0.56027,3.49086c-1.11869,0.80926 -2.6816,0.55842 -3.49086,-0.56027z" fill="#989898" stroke="none" stroke-width="0.5" stroke-linecap="butt"></path><path d="M181.34202,287.74019c0,1.63507 -1.06939,2.20076 -1.80934,2.39648c-5.7602,5.44733 -11.34533,10.65438 -17.69666,15.44913c-1.33019,1.00419 -2.51012,2.24698 -3.99055,3.01256l-3.97082,2.99766c-0.42219,0.32581 -0.95147,0.51963 -1.52601,0.51963c-1.38071,0 -2.5,-1.11929 -2.5,-2.5c0,-0.56029 0.18431,-1.07753 0.49561,-1.49439l2.26056,-3.10283l0.08227,0.05994l0.08957,-0.27069c0.77376,-0.68885 1.54837,-1.3763 2.32396,-2.06231c0.074,-0.28996 0.1987,-0.55964 0.36408,-0.79907l2.45339,-3.66363l0.00321,0.00215l0.00415,-0.01308c0.75754,-1.10584 1.51003,-2.21573 2.2612,-3.32681c-0.75268,-0.43084 -1.25984,-1.2418 -1.25984,-2.17121c0,-0.41067 0.09902,-0.79822 0.27449,-1.14006l1.72258,-3.54001c-2.12207,2.21222 -5.59755,5.82503 -5.71826,5.87902c-0.15741,0.07041 -0.31645,0.13545 -0.47696,0.19563l0.02073,0.05034l-4.50164,1.85366c-0.30723,0.13485 -0.64678,0.20969 -1.00382,0.20969c-1.38071,0 -2.5,-1.11929 -2.5,-2.5c0,-0.5759 0.19473,-1.10632 0.52194,-1.52901l0.95081,-1.25524c-1.08419,-0.27344 -1.8867,-1.25511 -1.8867,-2.42422c0,-0.41766 0.10242,-0.81141 0.28352,-1.15749l1.04448,-2.10262c-1.27845,0.88364 -2.59376,1.69537 -4.03019,2.27074l-4.18794,2.66237c-0.39404,0.25939 -0.8658,0.41032 -1.37282,0.41032c-1.38071,0 -2.5,-1.11929 -2.5,-2.5c0,-0.78064 0.3578,-1.47773 0.91836,-1.93618l1.91545,-1.58977l0.02329,0.02806l0.0364,-0.07608c4.26653,-3.12189 8.54853,-6.16419 12.65154,-9.46724c-2.71699,1.74392 -5.40459,3.55455 -8.12688,5.41195c-2.58249,1.76202 -4.7714,4.12155 -7.53209,5.58871l-3.86913,3.13727c-0.43198,0.35609 -0.98558,0.56997 -1.58912,0.56997c-1.38071,0 -2.5,-1.11929 -2.5,-2.5c0,-0.67191 0.26507,-1.28191 0.69634,-1.73113l1.92226,-2.0093c2.92918,-3.06178 5.76224,-6.20801 8.72182,-9.22075l-0.36924,0.11737c-0.25486,0.08759 -0.52834,0.13514 -0.81293,0.13514c-1.38071,0 -2.5,-1.11929 -2.5,-2.5c0,-0.36917 0.08002,-0.71965 0.22366,-1.03504c-0.4092,-0.44514 -0.65904,-1.03911 -0.65904,-1.69142c0,-0.39478 0.09151,-0.76819 0.25447,-1.10018c-0.43797,-0.14659 -0.88204,-0.45988 -1.26955,-1.04807c-1.37542,-2.08764 0.71222,-3.46305 0.71222,-3.46305c2.78352,-1.83389 5.56704,-3.66777 8.35056,-5.50166l3.00408,-1.97921c0.40034,-0.2724 0.8839,-0.43162 1.40465,-0.43162c1.38071,0 2.5,1.11929 2.5,2.5c0,0.56584 -0.18798,1.08777 -0.50491,1.50675l-0.6127,0.82939c0.24015,-0.12432 0.4771,-0.25337 0.70992,-0.38847l4.28813,-2.48655c0.3769,-0.22781 0.81882,-0.35891 1.29135,-0.35891c0.97649,0 1.82222,0.55985 2.23372,1.37608l0.933,-0.74892c0.43068,-0.35172 0.98083,-0.56268 1.58025,-0.56268c1.38071,0 2.5,1.11929 2.5,2.5c0,0.73361 -0.31599,1.39341 -0.81928,1.85074l-2.26977,2.077l-0.09184,-0.10036l-0.13444,0.28436c-0.3488,0.19639 -0.6977,0.39262 -1.04669,0.58869l-0.47224,0.37906c-0.20079,0.30485 -0.41994,0.59299 -0.65443,0.86717c1.52376,-0.85213 3.0734,-1.6788 4.65853,-2.47702l0.35923,0.0148l-0.02041,-0.10545l4.85895,-0.94055c0.1693,-0.03618 0.34494,-0.05523 0.52504,-0.05523c0.35521,0 0.69313,0.07408 0.99913,0.20764l1.69069,-1.25131c0.41926,-0.31769 0.94183,-0.50617 1.50842,-0.50617c1.38071,0 2.5,1.11929 2.5,2.5c0,0.59454 -0.20753,1.14059 -0.5541,1.56969l-1.78518,2.2508l-0.08734,-0.06928l-0.08223,0.26189c-3.15147,2.64034 -6.28724,5.32114 -9.50731,7.88922c-0.18402,0.21719 -0.36727,0.43455 -0.54979,0.65208c0.41652,-0.29395 0.83828,-0.56445 1.26516,-0.80799l3.74875,-3.29071c0.44126,-0.39135 1.02195,-0.62898 1.65814,-0.62898c0.66215,0 1.26416,0.25742 1.71144,0.67764c1.04585,-1.12056 2.08534,-2.24729 3.11605,-3.38256l3.33192,-3.66963c0.45758,-0.50781 1.12041,-0.82706 1.8578,-0.82706c1.38071,0 2.5,1.11929 2.5,2.5c0,0.58207 -0.19893,1.11768 -0.5325,1.54255l-3.03419,3.9449c-0.22496,0.48764 -0.48564,0.95459 -0.77032,1.40771c1.51254,-1.87626 2.95062,-3.65586 2.97903,-3.67483c0.07952,-0.0531 0.15972,-0.10495 0.24055,-0.15561l-0.02595,-0.03314l3.70852,-2.90333c0.42734,-0.34104 0.96898,-0.5449 1.55822,-0.5449c1.38071,0 2.5,1.11929 2.5,2.5c0,0.56023 -0.18427,1.07741 -0.49551,1.49425l-2.17239,2.98228c-2.61929,3.59578 -5.37275,7.89321 -8.5747,11.63747l1.94424,-1.29865c0.40272,-0.27753 0.89083,-0.44001 1.4169,-0.44001c1.38071,0 2.5,1.11929 2.5,2.5c0,0.47805 -0.13418,0.92477 -0.36693,1.30454c0.10053,0.27575 0.15994,0.60176 0.15994,0.98719z" fill="#e6e6e6" stroke="none" stroke-width="0.5" stroke-linecap="butt"></path><path d="M164.98054,242.1796c1.39303,2.07593 -0.6829,3.46895 -0.6829,3.46895l-0.19472,0.13067c-4.00849,2.68856 -8.0953,5.10613 -12.25682,7.54896c-2.87466,1.68743 -5.50826,3.87766 -8.62399,5.06231l-4.27544,2.50969c-0.37924,0.23184 -0.82508,0.36546 -1.30213,0.36546c-0.19378,0 -0.38242,-0.02204 -0.56353,-0.06377c-0.10396,0.01317 -0.20991,0.01996 -0.31745,0.01996c-1.38071,0 -2.5,-1.11929 -2.5,-2.5c0,-0.01463 0.00013,-0.02923 0.00038,-0.04381c-0.10193,-0.07869 -0.19762,-0.16507 -0.28619,-0.25827l-0.47906,0.3262c-0.40598,0.28479 -0.9005,0.45194 -1.43406,0.45194c-1.20226,0 -2.20631,-0.84866 -2.44576,-1.9796c-0.50677,0.28001 -1.01695,0.56003 -1.53079,0.84055c0,0 -2.1943,1.19794 -3.39223,-0.99636c-1.19794,-2.1943 0.99636,-3.39223 0.99636,-3.39223c6.30074,-3.43977 12.01532,-6.76796 17.67468,-11.01165c0.38569,-0.37524 0.79672,-0.71162 1.26321,-0.96339c0.10167,-0.07887 0.20334,-0.15805 0.305,-0.23756l3.68193,-3.27845c0.44274,-0.39785 1.02829,-0.63992 1.67038,-0.63992c0.7426,0 1.40958,0.32378 1.86747,0.83787l2.5936,-1.64782c0.39392,-0.25916 0.86549,-0.40996 1.37228,-0.40996c1.06524,0 1.97487,0.66624 2.33494,1.60477c0.69369,0.4443 1.15347,1.22183 1.15347,2.10675c0,0.79174 -0.36804,1.49753 -0.94239,1.95559l-3.2193,2.61034l-0.79493,1.25281c2.24537,-1.35742 4.46714,-2.74712 6.66432,-4.22225l0.19473,-0.13067c0,0 2.07593,-1.39303 3.46896,0.6829z" fill="#989898" stroke="none" stroke-width="0.5" stroke-linecap="butt"></path><path d="M130.0316,250.41257c0,0 -0.14585,0.13418 -0.39321,0.28592c0.83329,0.40545 1.40758,1.26032 1.40758,2.24933c0,1.38071 -1.11929,2.5 -2.5,2.5c-1.38071,0 -2.5,-1.11929 -2.5,-2.5c0,-0.88639 0.4613,-1.66503 1.15692,-2.10896c-0.06723,-0.03825 -0.13466,-0.08092 -0.20216,-0.12834c-1.67394,1.11152 -3.32257,2.20623 -4.93706,3.27828c0,0 -2.08267,1.38292 -3.4656,-0.69975c-0.80665,-1.2148 -0.4342,-2.19153 0.01627,-2.79461c-0.43816,-1.80537 1.36847,-2.70248 1.36847,-2.70248c0.8938,-0.44383 1.78759,-0.88766 2.68139,-1.3315c0.32194,-0.48816 0.72036,-0.76768 0.72036,-0.76768c6.16649,-4.32606 12.33299,-8.65212 18.49948,-12.97818c1.05361,-0.9693 2.10723,-1.93859 3.16084,-2.90789l0.85061,-0.78254c0,0 0.99781,-0.91796 2.1998,-0.66703l0.63584,-0.44607c0.24693,-0.19597 0.49387,-0.39195 0.7408,-0.58792l1.9435,-1.54243c0,0 1.94942,-1.54712 3.50184,0.39092c0.62288,-0.4136 1.24577,-0.82721 1.86865,-1.24081l2.04501,-1.35792c0,0 2.08267,-1.38292 3.4656,0.69975c1.38292,2.08267 -0.69975,3.4656 -0.69975,3.4656c-2.48463,1.64983 -5.05011,3.35334 -7.66428,5.08919c0.162,0.18094 0.31343,0.40321 0.44827,0.67477c1.11189,2.23913 -1.12725,3.35102 -1.12725,3.35102c-5.26601,2.61494 -11.97608,5.94696 -18.43214,9.15284c-1.63267,1.50201 -3.23845,2.97929 -4.7898,4.40649z" fill="#af5400" stroke="none" stroke-width="0.5" stroke-linecap="butt"></path><path d="M130.92318,242.40478c-1.95722,-1.5554 -0.40182,-3.51263 -0.40182,-3.51263l2.4953,-3.1259c1.69804,-1.53101 3.36677,-3.07208 5.04961,-4.5859c-1.45959,0.70144 -2.91918,1.40289 -4.37876,2.10433c0.03228,0.16034 0.04921,0.32623 0.04921,0.49607c0,0.91253 -0.48892,1.71088 -1.21909,2.14737c-4.2486,2.63618 -10.82376,6.71594 -15.07236,9.35212c0,0 -2.1243,1.31809 -3.44239,-0.80621c-0.26128,-0.42109 -0.3873,-0.81051 -0.42141,-1.16425c-0.02913,0.0113 -0.05826,0.0226 -0.08739,0.03389l-3.86085,1.49743c-0.29486,0.12233 -0.61821,0.18985 -0.95732,0.18985c-1.38071,0 -2.5,-1.11929 -2.5,-2.5c0,-1.01234 0.60171,-1.88414 1.467,-2.27727l4.45672,-2.14179c1.33891,-0.99252 3.0044,-1.44384 4.5066,-2.16576c4.5066,-2.16576 9.0132,-4.33153 13.51981,-6.49729c9.0132,-4.33153 18.02641,-8.66306 27.03961,-12.99459l4.4599,-2.14332c0.33928,-0.17213 0.7231,-0.26914 1.12958,-0.26914c1.38071,0 2.5,1.11929 2.5,2.5c0,0.8919 -0.46705,1.67471 -1.16993,2.1172l-4.15627,2.70593c-3.45615,3.29904 -8.61599,5.15855 -12.41259,8.07225c-3.80922,2.92338 -7.27934,6.55132 -10.85878,9.75602l-2.22177,2.80979c0,0 -1.5554,1.95722 -3.51263,0.40182z" fill="#d8d8d8" stroke="none" stroke-width="0.5" stroke-linecap="butt"></path></g></g></svg>