<svg version="1.1" xmlns="http://www.w3.org/2000/svg" xmlns:xlink="http://www.w3.org/1999/xlink" width="173.12696" height="96.71282" viewBox="0,0,173.12696,96.71282"><g transform="translate(-178.89472,-101.14272)"><g data-paper-data="{&quot;isPaintingLayer&quot;:true}" fill-rule="nonzero" stroke-linejoin="miter" stroke-miterlimit="10" stroke-dasharray="" stroke-dashoffset="0" style="mix-blend-mode: normal"><path d="" data-paper-data="{&quot;index&quot;:null}" fill="none" stroke="#000000" stroke-width="1.5" stroke-linecap="round"></path><path d="" data-paper-data="{&quot;index&quot;:null}" fill="none" stroke="#000000" stroke-width="1.5" stroke-linecap="round"></path><path d="" data-paper-data="{&quot;index&quot;:null}" fill="none" stroke="#000000" stroke-width="1.5" stroke-linecap="round"></path><path d="" data-paper-data="{&quot;index&quot;:null}" fill="none" stroke="#000000" stroke-width="1.5" stroke-linecap="round"></path><path d="" data-paper-data="{&quot;index&quot;:null}" fill="none" stroke="#000000" stroke-width="1.5" stroke-linecap="round"></path><path d="" data-paper-data="{&quot;index&quot;:null}" fill="none" stroke="#000000" stroke-width="1.5" stroke-linecap="round"></path><path d="" data-paper-data="{&quot;index&quot;:null}" fill="none" stroke="#000000" stroke-width="1.5" stroke-linecap="round"></path><path d="M196.28324,110.64213c0,2.28303 -1.85076,4.13379 -4.13379,4.13379c-2.28303,0 -4.13379,-1.85076 -4.13379,-4.13379c0,-2.28303 1.85076,-4.13379 4.13379,-4.13379c2.28303,0 4.13379,1.85076 4.13379,4.13379z" fill="none" stroke="none" stroke-width="0" stroke-linecap="butt"></path><path d="M351.54318,172.9445c1.41437,5.13588 -0.41294,10.11831 -4.08143,11.12857c-3.66848,1.01027 -7.78895,-2.3342 -9.20332,-7.47007c-1.41437,-5.13588 0.41294,-10.11831 4.08143,-11.12857c3.66848,-1.01027 7.78895,2.3342 9.20332,7.47007z" fill="none" stroke="none" stroke-width="0" stroke-linecap="butt"></path><path d="M223.42091,197.85554v-11.01185h35.42944v11.01185z" fill="#a3a3a3" stroke="none" stroke-width="0" stroke-linecap="butt"></path><g stroke="none" stroke-width="0" stroke-linecap="butt"><path d="M178.89472,136.09339v-34.95067h112.51242v34.95067z" fill="#8094a6"></path><path d="M197.567,126.99664v-16.75717h77.08298v16.75717z" fill="#c4e4ff"></path></g><path d="M234.53888,139.92361c0,2.5 -2.5,2.5 -2.5,2.5l-2.69045,-0.00665c-1.31438,0.19399 -2.62877,0.38799 -3.94315,0.58198c-1.19851,0.21153 -2.69213,-0.18091 -3.59552,0.6346c-2.10987,1.90462 -0.42669,7.7532 1.10326,9.49109c0.13388,0.15207 0.26322,0.29275 0.38878,0.42303c2.96062,-1.70106 7.98721,-1.48924 10.60093,-0.15438c1.62229,0.82852 4.22444,1.41763 4.40815,3.22996c0.80262,7.91798 -6.95799,4.79719 -9.79998,4.2041c-1.22468,-0.25557 -2.41992,-0.59394 -3.55543,-1.02069c-0.03802,0.19965 -0.07968,0.39677 -0.13657,0.58425c-0.50499,1.66423 -1.70199,3.17003 -1.77066,4.90784c-0.01957,0.49519 0.46736,0.87411 0.70886,1.30686c1.31971,2.36477 2.72853,4.05998 4.49823,5.15716c3.30125,-3.426 8.806,-5.41589 12.94202,-3.48026c2.21218,1.03529 5.89768,4.46397 4.63002,7.57656c-0.61199,1.50268 -2.67676,1.92351 -4.21898,2.42765c-0.18407,0.06017 -6.51588,0.04511 -6.69686,0.04511c-1.65434,-0.01242 -3.2189,-0.17723 -4.68481,-0.50624c-0.11206,0.27068 -0.15353,0.52308 -0.07755,0.72756c0.546,1.46942 2.38458,2.03574 3.557,3.07629c3.46129,3.07197 6.85599,5.96033 11.23058,7.68082c0,0 2.32119,0.92848 1.39272,3.24967c-0.92848,2.32119 -3.24967,1.39272 -3.24967,1.39272c-4.91412,-1.99271 -8.79616,-5.11507 -12.70823,-8.59757c-3.22174,-2.86798 -6.1592,-4.66622 -4.71868,-9.28794c-2.67519,-1.55189 -4.83819,-3.94078 -6.3984,-7.28747c-0.51887,-1.11299 -1.18525,-2.25309 -1.20625,-3.4809c-0.03931,-2.29882 1.21207,-4.44553 2.05955,-6.58279c0.16412,-0.41389 0.30965,-0.84572 0.45871,-1.27767c-3.17472,-2.41747 -5.08474,-6.02069 -4.42188,-11.05118c0.29214,-2.21712 0.60651,-4.75869 2.18456,-6.34322c1.49836,-1.50451 4.04455,-1.29468 6.06683,-1.94203c1.52933,-0.22387 3.05867,-0.44774 4.588,-0.6716l3.05487,-0.00665c0,0 2.5,0 2.5,2.5zM234.55615,173.33229c0.11729,0.00084 0.23575,0.00068 0.3554,-0.00046c1.11714,0 2.23432,-0.00876 3.35143,0c0.39674,0.00311 0.96744,-0.06386 1.50329,-0.08539c-0.21818,-0.17176 -0.4292,-0.32269 -0.60746,-0.39837c-0.57431,-0.24381 -1.22955,-0.27177 -1.85338,-0.26155c-1.08777,0.01782 -1.96831,0.29357 -2.74928,0.74578z" fill="#dbdbdb" stroke="none" stroke-width="0.5" stroke-linecap="butt"></path></g></g></svg>