<svg version="1.1" xmlns="http://www.w3.org/2000/svg" xmlns:xlink="http://www.w3.org/1999/xlink" width="150.92921" height="101.88945" viewBox="0,0,150.92921,101.88945"><g transform="translate(-185.12568,-113.1719)"><g data-paper-data="{&quot;isPaintingLayer&quot;:true}" fill-rule="nonzero" stroke-linejoin="miter" stroke-miterlimit="10" stroke-dasharray="" stroke-dashoffset="0" style="mix-blend-mode: normal"><path d="" data-paper-data="{&quot;index&quot;:null}" fill="none" stroke="#000000" stroke-width="1.5" stroke-linecap="round"></path><path d="" data-paper-data="{&quot;index&quot;:null}" fill="none" stroke="#000000" stroke-width="1.5" stroke-linecap="round"></path><path d="" data-paper-data="{&quot;index&quot;:null}" fill="none" stroke="#000000" stroke-width="1.5" stroke-linecap="round"></path><path d="" data-paper-data="{&quot;index&quot;:null}" fill="none" stroke="#000000" stroke-width="1.5" stroke-linecap="round"></path><path d="" data-paper-data="{&quot;index&quot;:null}" fill="none" stroke="#000000" stroke-width="1.5" stroke-linecap="round"></path><path d="M319.09515,206.33008" data-paper-data="{&quot;index&quot;:null}" fill="none" stroke="#d8d8d8" stroke-width="4" stroke-linecap="round"></path><path d="M289.92393,195.47557" data-paper-data="{&quot;index&quot;:null}" fill="none" stroke="#d8d8d8" stroke-width="4" stroke-linecap="round"></path><path d="M289.92393,195.47557" data-paper-data="{&quot;index&quot;:null}" fill="none" stroke="#d8d8d8" stroke-width="4" stroke-linecap="round"></path><g><path d="M336.0549,197.29812" data-paper-data="{&quot;index&quot;:null}" fill="none" stroke="#d8d8d8" stroke-width="4" stroke-linecap="round"></path><path d="M299.11483,183.55286" data-paper-data="{&quot;index&quot;:null}" fill="none" stroke="#d8d8d8" stroke-width="4" stroke-linecap="round"></path><path d="M299.11483,183.55286" data-paper-data="{&quot;index&quot;:null}" fill="none" stroke="#d8d8d8" stroke-width="4" stroke-linecap="round"></path><path d="M235.89525,213.97544c-27.62505,0 -50.01957,-22.39452 -50.01957,-50.01957c0,-27.62505 22.39452,-50.01957 50.01957,-50.01957c27.62505,0 50.01957,22.39452 50.01957,50.01957c0,27.62505 -22.39452,50.01957 -50.01957,50.01957z" fill="#d8d8d8" stroke="#000000" stroke-width="1.5" stroke-linecap="butt"></path><g><path d="M190.57557,201.97701l0.09236,-66.20647l33.82382,-20.63633l23.67948,-0.95191l31.97138,17.62529l1.38304,81.92185l-38.3412,-10.94632l-4.93574,-30.03645l-6.3377,-3.39272l-6.71899,3.41813l-0.03156,28.28223l-34.89557,11.40917z" fill="#c3c3c3" stroke="#000000" stroke-width="2" stroke-linecap="round"></path><path d="M193.35481,162.07688l-0.30937,-14.43433l33.58666,3.90122l0.33412,15.58908z" fill="#c20000" stroke="none" stroke-width="0" stroke-linecap="butt"></path><path d="M239.55886,167.1504l-0.356,-15.58859l33.38113,-5.3836l0.32963,14.43388z" data-paper-data="{&quot;index&quot;:null}" fill="#c20000" stroke="none" stroke-width="0" stroke-linecap="butt"></path></g><g stroke="#000000" stroke-linecap="butt"><path d="M247.44357,170.51621c0,0 3.79605,2.58542 6.12398,2.00013c1.36624,-0.3435 1.19872,10.94834 3.93329,11.09565c6.43924,0.34686 17.17647,-9.71041 17.17647,-9.71041l2.53617,10.0873c0,0 -19.56328,10.57905 -30.63342,5.56914c-2.13956,-0.96826 -1.39655,-13.90122 -1.39655,-13.90122z" data-paper-data="{&quot;index&quot;:null}" fill="#a7a7a7" stroke-width="0"></path><path d="M279.56154,194.64086c0,0 -4.31025,-8.7295 -6.54279,-8.16821c-3.44991,0.86739 -13.54262,3.40491 -17.72565,4.45662c0.25253,-1.64555 0.18273,-3.36826 -0.25999,-5.08226c-0.4798,-1.85756 -1.34777,-3.51197 -2.49464,-4.89876c4.68332,-2.27447 19.05984,-8.54743 27.85117,-4.56884c2.05187,0.92859 1.33932,13.3315 1.33932,13.3315l-2.16745,4.92995z" fill="#919191" stroke-width="1"></path><path d="M256.66107,189.39368l-48.18227,10.93386c0,0 -3.73852,0.15383 -4.04513,-1.03322c-0.34459,-1.33413 2.50161,-3.47984 2.50161,-3.47984l47.75884,-14.036z" fill="#d2d2d2" stroke-width="0.5"></path></g></g></g></g></svg>