<svg version="1.1" xmlns="http://www.w3.org/2000/svg" xmlns:xlink="http://www.w3.org/1999/xlink" width="176.72887" height="93.82356" viewBox="0,0,176.72887,93.82356"><g transform="translate(-113.19506,-140.3707)"><g data-paper-data="{&quot;isPaintingLayer&quot;:true}" fill-rule="nonzero" stroke-linejoin="miter" stroke-miterlimit="10" stroke-dasharray="" stroke-dashoffset="0" style="mix-blend-mode: normal"><path d="" data-paper-data="{&quot;index&quot;:null}" fill="none" stroke="#000000" stroke-width="1.5" stroke-linecap="round"></path><path d="" data-paper-data="{&quot;index&quot;:null}" fill="none" stroke="#000000" stroke-width="1.5" stroke-linecap="round"></path><path d="" data-paper-data="{&quot;index&quot;:null}" fill="none" stroke="#000000" stroke-width="1.5" stroke-linecap="round"></path><path d="M289.92393,195.47554" data-paper-data="{&quot;index&quot;:null}" fill="none" stroke="#d8d8d8" stroke-width="4" stroke-linecap="round"></path><path d="M241.20089,220.1207c-21.81525,0 -39.5,-17.68475 -39.5,-39.5c0,-21.81525 17.68475,-39.5 39.5,-39.5c21.81525,0 39.5,17.68475 39.5,39.5c0,21.81525 -17.68475,39.5 -39.5,39.5z" fill="#d8d8d8" stroke="#000000" stroke-width="1.5" stroke-linecap="butt"></path><path d="M214.02998,192.37467c0,0 4.29771,-17.83605 17.34061,-17.83605c13.0429,0 17.67091,18.82695 17.67091,18.82695z" data-paper-data="{&quot;index&quot;:null}" fill="#000000" stroke="#000000" stroke-width="0" stroke-linecap="butt"></path><path d="M216.82649,151.31871l17.15344,6.06646" fill="none" stroke="#000000" stroke-width="1.5" stroke-linecap="round"></path><path d="M231.88805,167.84459l-0.20919,-7.1124" fill="none" stroke="#000000" stroke-width="1.5" stroke-linecap="round"></path><path d="M239.00046,161.35976l10.87779,-5.22971" fill="none" stroke="#000000" stroke-width="1.5" stroke-linecap="round"></path><path d="M239.62802,160.10462l-0.20919,6.69403" fill="none" stroke="#000000" stroke-width="1.5" stroke-linecap="round"></path><path d="M263.68467,161.15057c0,0 1.50418,6.67173 0.29966,8.08882c-1.16496,1.37054 -7.41207,0.27872 -7.41207,0.27872" fill="none" stroke="#ff0000" stroke-width="3" stroke-linecap="round"></path><path d="M279.37379,171.60998c0,0 -7.08173,0.40448 -8.61377,-1.03376c-1.8311,-1.71899 -1.63646,-8.5889 -1.63646,-8.5889" fill="none" stroke="#ff0000" stroke-width="3" stroke-linecap="round"></path><path d="M258.45497,173.91105c0,0 5.33291,0.0324 6.42032,1.08472c1.07405,1.0394 0.06452,5.19093 0.06452,5.19093" fill="none" stroke="#ff0000" stroke-width="3" stroke-linecap="round"></path><path d="M270.58788,183.11534c0,0 -1.72153,-6.01844 -0.52297,-7.217c1.30297,-1.30297 8.05375,-0.31378 8.05375,-0.31378" fill="none" stroke="#ff0000" stroke-width="3" stroke-linecap="round"></path><path d="M171.22344,207.59037c0,-7.16295 5.80672,-12.96967 12.96967,-12.96967c7.16295,0 12.96967,5.80672 12.96967,12.96967c0,7.16295 -5.80672,12.96967 -12.96967,12.96967c-7.16295,0 -12.96967,-5.80672 -12.96967,-12.96967z" fill="#d8d8d8" stroke="#000000" stroke-width="1.5" stroke-linecap="butt"></path><path d="M238.16369,230.30007l-21.54639,-9.20429l-6.69403,1.04594l-14.43399,-3.76539l-21.12801,0.83676l-14.43399,-7.32159l-7.3216,3.13782l-9.41347,-8.7859" fill="none" stroke="#000000" stroke-width="2.5" stroke-linecap="round"></path><path d="M159.29971,205.19748l16.1075,13.59724" fill="none" stroke="#000000" stroke-width="2.5" stroke-linecap="round"></path><path d="M197.58116,228.62657l-8.15834,-9.20428" fill="none" stroke="#000000" stroke-width="2.5" stroke-linecap="round"></path><path d="M146.9576,211.05475l-31.79662,9.20428" fill="none" stroke="#000000" stroke-width="2.5" stroke-linecap="round"></path><path d="M228.33184,225.27956l40.16415,-4.18377" fill="none" stroke="#000000" stroke-width="2.5" stroke-linecap="round"></path><path d="M137.66496,213.07138l-23.2199,-11.92373" fill="none" stroke="#000000" stroke-width="2.5" stroke-linecap="round"></path><path d="M141.84873,212.86219l25.52097,20.08208" fill="none" stroke="#000000" stroke-width="2.5" stroke-linecap="round"></path><path d="M202.30414,218.92865l5.64808,-5.4389" fill="none" stroke="#000000" stroke-width="2.5" stroke-linecap="round"></path></g></g></svg>