<svg version="1.1" xmlns="http://www.w3.org/2000/svg" xmlns:xlink="http://www.w3.org/1999/xlink" width="243" height="80.5145" viewBox="0,0,243,80.5145"><g transform="translate(-66.38672,-143.1557)"><g data-paper-data="{&quot;isPaintingLayer&quot;:true}" fill-rule="nonzero" stroke-linecap="butt" stroke-linejoin="miter" stroke-miterlimit="10" stroke-dasharray="" stroke-dashoffset="0" style="mix-blend-mode: normal"><path d="M287.88672,186.93946c0,-5.93706 4.81294,-10.75 10.75,-10.75c5.93706,0 10.75,4.81294 10.75,10.75c0,5.93706 -4.81294,10.75 -10.75,10.75c-5.93706,0 -10.75,-4.81294 -10.75,-10.75z" fill="#000000" stroke="none" stroke-width="NaN"></path><path d="M145.36232,217.97361c-19.08733,-10.56309 -25.99758,-34.59951 -15.43449,-53.68683c10.56309,-19.08733 34.59951,-25.99758 53.68683,-15.43449c19.08733,10.56309 25.99758,34.59951 15.43449,53.68683c-10.56309,19.08733 -34.59951,25.99758 -53.68683,15.43449z" data-paper-data="{&quot;index&quot;:null}" fill="#000000" stroke="#000000" stroke-width="1.5"></path><g data-paper-data="{&quot;index&quot;:null}" stroke="none" stroke-width="0"><path d="M186.54307,184.2924c6.52116,3.60886 9.3183,11.03256 9.3183,11.03256c0,0 -7.77576,1.57257 -14.2969,-2.0363c-6.52116,-3.60886 -9.3183,-11.03256 -9.3183,-11.03256c0,0 7.77576,-1.57257 14.2969,2.0363z" fill="#ffffff"></path><path d="M182.12671,193.59983c-2.48425,-1.3748 -3.38363,-4.50321 -2.00883,-6.98743c1.3748,-2.48425 4.50321,-3.38363 6.98743,-2.00883c2.48425,1.3748 3.38363,4.50321 2.00883,6.98743c-1.3748,2.48425 -4.50321,3.38363 -6.98743,2.00883z" fill="#000000"></path></g><g data-paper-data="{&quot;index&quot;:null}" stroke="none" stroke-width="0"><path d="M160.52107,170.02422c6.52116,3.60886 9.3183,11.03256 9.3183,11.03256c0,0 -7.77576,1.57257 -14.2969,-2.0363c-6.52116,-3.60886 -9.3183,-11.03256 -9.3183,-11.03256c0,0 7.77576,-1.57257 14.2969,2.0363z" fill="#ffffff"></path><path d="M156.1047,179.33166c-2.48425,-1.3748 -3.38363,-4.50321 -2.00883,-6.98743c1.3748,-2.48424 4.50321,-3.38363 6.98743,-2.00883c2.48425,1.3748 3.38363,4.50321 2.00883,6.98743c-1.3748,2.48425 -4.50321,3.38363 -6.98743,2.00883z" fill="#000000"></path></g><path d="M66.38672,182.43945c0,-5.93706 4.81294,-10.75 10.75,-10.75c5.93706,0 10.75,4.81294 10.75,10.75c0,5.93706 -4.81294,10.75 -10.75,10.75c-5.93706,0 -10.75,-4.81294 -10.75,-10.75z" fill="#000000" stroke="none" stroke-width="NaN"></path></g></g></svg>