<svg version="1.1" xmlns="http://www.w3.org/2000/svg" xmlns:xlink="http://www.w3.org/1999/xlink" width="2153.0054" height="1632.34347" viewBox="0,0,2153.0054,1632.34347"><defs><radialGradient cx="252.27344" cy="183.87891" r="62.5" gradientUnits="userSpaceOnUse" id="color-1"><stop offset="0" stop-color="#ffffff"></stop><stop offset="1" stop-color="#ffffff" stop-opacity="0"></stop></radialGradient></defs><g transform="translate(836.5027,636.17173)"><g data-paper-data="{&quot;isPaintingLayer&quot;:true}" fill-rule="nonzero" stroke="none" stroke-linecap="butt" stroke-linejoin="miter" stroke-miterlimit="10" stroke-dasharray="" stroke-dashoffset="0" style="mix-blend-mode: normal"><path d="M-836.5027,996.17175v-1632.34347h2153.0054v1632.34347z" fill="#000000" stroke-width="0"></path><path d="M254.12045,196.98529c-0.24009,0.00237 -0.48123,-0.00436 -0.72315,-0.02054c-0.16676,-0.01115 -0.33177,-0.03081 -0.49527,-0.05774c-0.56902,1.98276 -1.17921,3.95505 -1.83419,5.91946l-0.1639,0.16224l0.06732,0.03648l-1.22961,2.26905c-0.41558,0.80412 -1.25477,1.35379 -2.22235,1.35379c-0.56868,0 -1.09301,-0.18988 -1.51305,-0.50969c-0.47349,1.13714 -0.94534,2.2749 -1.41453,3.41368l-0.02594,0.02902l0.01106,0.00495l-1.85767,4.1552c-0.37839,0.89983 -1.26818,1.53166 -2.30555,1.53166c-1.38071,0 -2.5,-1.11929 -2.5,-2.5c0,-0.22734 0.03035,-0.44759 0.08721,-0.65693l0.80383,-3.23639c-0.01297,-0.06079 -0.02373,-0.12239 -0.0322,-0.18473l-0.41215,-2.6965l0.07245,-0.01107c-0.04392,-0.20545 -0.07395,-0.4145 -0.08747,-0.62781c-0.11878,-1.87438 1.26285,-3.53771 1.9134,-5.29958c0.66947,-1.81309 1.40343,-3.60277 2.1795,-5.37686c-0.21405,-1.50419 -0.32008,-3.05229 -0.37149,-4.6071c-1.62524,-1.78968 -2.68766,-4.0224 -2.77941,-6.41662c-0.94496,-2.03755 -1.38493,-4.212 -1.11424,-6.40453c-0.24277,-0.45048 -0.51183,-0.92838 -0.82409,-1.44087c-1.42605,-2.3405 -3.07291,-4.53909 -4.60836,-6.80933l-1.8399,-2.46931c-0.32043,-0.42027 -0.5107,-0.94511 -0.5107,-1.51439c0,-1.31131 1.00959,-2.38682 2.29389,-2.49163c0.45816,-0.52101 1.1297,-0.8498 1.87803,-0.8498c0.65341,0 1.24827,0.25067 1.69367,0.6611l2.29291,2.09814l-0.0715,0.07813l0.23656,0.08775c0.16606,0.22038 0.33647,0.44173 0.51039,0.66412c0.11885,0.06707 0.23546,0.13743 0.34997,0.21084c0.44336,-0.40069 1.03103,-0.64469 1.67568,-0.64469c0.92932,0 1.74021,0.50707 2.17108,1.25963l1.7792,2.98479c1.58051,-0.2709 3.30913,-0.57249 5.08753,-0.78473c2.82702,-5.5305 6.36061,-10.73602 9.56883,-16.01504l0.08791,-0.0599l-0.03094,-0.02236l1.65299,-2.28775c0.45245,-0.6424 1.19989,-1.06208 2.04534,-1.06208c0.63666,0 1.21773,0.23798 1.65911,0.62984l0.62797,-1.20852c0.40808,-0.82602 1.25906,-1.39414 2.24273,-1.39414c1.38071,0 2.5,1.11929 2.5,2.5c0,0.30011 -0.05288,0.58787 -0.14984,0.85448l-1.57976,4.68235c-0.18103,1.71151 -2.83771,6.56334 -3.19573,7.28517c-0.87081,1.75569 -1.74249,3.51096 -2.61453,5.26604c-0.25395,0.65071 -0.41495,1.06305 -0.41662,1.06694c-0.16994,0.39707 -0.34141,0.79361 -0.51424,1.18967c1.21535,0.68462 2.31237,1.61414 3.23721,2.85428c0.17241,0.23119 0.33152,0.46512 0.47775,0.70149c1.15328,0.74964 2.10071,1.7633 2.69055,3.06283c0.95464,2.10323 0.96051,4.03817 0.43712,5.87502c0.33908,0.68898 0.57868,1.40796 0.64274,2.16751c0.4039,4.78914 -3.05993,8.03446 -7.10557,9.62052c2.13831,2.94739 4.28921,5.8163 6.66585,8.62997l0.02525,0.0811l0.0235,-0.01739l1.98317,2.67989c0.31763,0.41924 0.50607,0.94176 0.50607,1.50829c0,1.38071 -1.11929,2.5 -2.5,2.5c-0.5163,0 -0.99605,-0.15651 -1.39438,-0.42467l-3.52285,-2.29442l0.01813,-0.02783c-0.06627,-0.03284 -0.13223,-0.06645 -0.19785,-0.10089c-1.54102,-0.80861 -2.54209,-2.37742 -3.81177,-3.56759c-2.1077,-1.97571 -4.20515,-3.93446 -6.22511,-5.98203zM257.49007,186.02912c-0.03226,-0.44087 -0.16845,-0.88118 -0.39985,-1.28142c-0.32683,0.23222 -0.65267,0.43699 -0.97883,0.61488l0.89566,1.08185c0.163,-0.13538 0.32411,-0.27394 0.48302,-0.41531z" fill="#ffffff" stroke-width="0.5"></path><path d="M314.77344,183.87891c0,29.54723 -27.9822,53.5 -62.5,53.5c-34.5178,0 -62.5,-23.95277 -62.5,-53.5c0,-29.54723 27.9822,-53.5 62.5,-53.5c34.5178,0 62.5,23.95277 62.5,53.5z" fill="url(#color-1)" stroke-width="0"></path></g></g></svg>