<svg version="1.1" xmlns="http://www.w3.org/2000/svg" xmlns:xlink="http://www.w3.org/1999/xlink" width="265.7901" height="83.8522" viewBox="0,0,265.7901,83.8522"><g transform="translate(-199.73697,-137.1537)"><g data-paper-data="{&quot;isPaintingLayer&quot;:true}" fill-rule="nonzero" stroke-linejoin="miter" stroke-miterlimit="10" stroke-dasharray="" stroke-dashoffset="0" style="mix-blend-mode: normal"><path d="M217.09442,165.86414l9,1v8" fill="none" stroke="#000000" stroke-width="1.5" stroke-linecap="round"></path><path d="M232.53458,174.67753v-8l9,-1" data-paper-data="{&quot;index&quot;:null}" fill="none" stroke="#000000" stroke-width="1.5" stroke-linecap="round"></path><path d="M230.98851,198.04897c0,0 0.3445,-8.61004 5.78628,-9.03188c5.30472,-0.41122 12.46372,8.03188 12.46372,8.03188z" fill="#040404" stroke="#000000" stroke-width="1.5" stroke-linecap="round"></path><path d="M200.73697,171.0911c0,-18.19082 17.29485,-32.9374 38.62913,-32.9374c21.33428,0 38.62913,14.74658 38.62913,32.9374c0,11.22687 -2.48212,24.8741 -12.54127,30.82016c-0.42004,0.24829 -5.31543,2.90997 -5.31543,2.90997l-0.22453,13.91683l-12.57806,0.95271l-0.50527,-15.47565l0.06963,15.5724l-14.72842,0.20478l-0.46155,-15.93384l0.80812,15.80985l-16.17468,-0.08649c0,0 0.11388,-16.75516 -0.28778,-16.80951c-2.62384,-0.355 -2.02116,-0.00099 -3.86634,-0.93632c-11.32682,-5.74167 -11.45268,-18.89377 -11.45268,-30.94489z" fill="#ffffff" stroke="#000000" stroke-width="2" stroke-linecap="butt"></path><path d="M236.00705,171.09869c0,5.92619 -3.30023,10.73031 -7.37126,10.73031c-4.07103,0 -7.37126,-4.80413 -7.37126,-10.73031c0,-5.92619 -0.9919,-11.10354 3.07913,-11.10354c3.22238,0 10.77427,7.53515 10.77427,7.53515c0,0 0.88912,2.33301 0.88912,3.56839z" fill="#ababab" stroke="#000000" stroke-width="1" stroke-linecap="butt"></path><path d="M254.61671,161.07621c4.07103,0 3.07913,5.17736 3.07913,11.10354c0,5.92619 -3.30022,10.73032 -7.37126,10.73032c-4.07103,0 -7.37126,-4.80413 -7.37126,-10.73032c0,-1.23538 0.88912,-3.56839 0.88912,-3.56839c0,0 7.55188,-7.53515 10.77427,-7.53515z" data-paper-data="{&quot;index&quot;:null}" fill="#ababab" stroke="#000000" stroke-width="1" stroke-linecap="butt"></path><path d="" data-paper-data="{&quot;index&quot;:null}" fill="none" stroke="#000000" stroke-width="1.5" stroke-linecap="round"></path><path d="" data-paper-data="{&quot;index&quot;:null}" fill="none" stroke="#000000" stroke-width="1.5" stroke-linecap="round"></path><path d="" data-paper-data="{&quot;index&quot;:null}" fill="none" stroke="#000000" stroke-width="1.5" stroke-linecap="round"></path><path d="" data-paper-data="{&quot;index&quot;:null}" fill="none" stroke="#000000" stroke-width="1.5" stroke-linecap="round"></path><path d="" data-paper-data="{&quot;index&quot;:null}" fill="none" stroke="#000000" stroke-width="1.5" stroke-linecap="round"></path><path d="" data-paper-data="{&quot;index&quot;:null}" fill="none" stroke="#000000" stroke-width="1.5" stroke-linecap="round"></path><path d="" data-paper-data="{&quot;index&quot;:null}" fill="none" stroke="#000000" stroke-width="1.5" stroke-linecap="round"></path><path d="" data-paper-data="{&quot;index&quot;:null}" fill="none" stroke="#000000" stroke-width="1.5" stroke-linecap="round"></path><path d="" data-paper-data="{&quot;index&quot;:null}" fill="none" stroke="#000000" stroke-width="1.5" stroke-linecap="round"></path><path d="" data-paper-data="{&quot;index&quot;:null}" fill="none" stroke="#000000" stroke-width="1.5" stroke-linecap="round"></path><g stroke-width="0" stroke-linecap="butt"><path d="M251.70833,175.43512l192.63376,-14.21753l1.88206,3.09984l-192.63374,14.21752z" fill="#827253" stroke="#000000"></path><path d="M424.64191,150.1013l1.89441,-3.02191l7.26192,1.9515l31.72883,47.67294l-9.37214,4.80015l-13.2375,-2.69585z" fill="#4950c5" stroke="none"></path><path d="M398.85597,160.0397l9.99228,-1.45357l13.0023,0.23509l7.4121,13.03561l-11.94672,1.64604l-11.9773,-0.43348z" fill="#4950c5" stroke="none"></path><path d="M254.98089,181.04781l-1.07192,0.83084l-2.64949,-0.54231l-7.35504,-13.14905l4.20855,-1.31544l4.92256,0.75134z" fill="#4950c5" stroke="none"></path><path d="M437.62112,165.11021l-2.41682,-4.11656l15.94606,-0.97838l2.41682,4.11656z" fill="#313585" stroke="none"></path></g></g></g></svg>