<svg version="1.1" xmlns="http://www.w3.org/2000/svg" xmlns:xlink="http://www.w3.org/1999/xlink" width="158.51122" height="147.3287" viewBox="0,0,158.51122,147.3287"><defs><linearGradient x1="240.64144" y1="96.01419" x2="234.36157" y2="245.32264" gradientUnits="userSpaceOnUse" id="color-1"><stop offset="0" stop-color="#ff0000"></stop><stop offset="1" stop-color="#ff0000" stop-opacity="0"></stop></linearGradient></defs><g transform="translate(-122.25618,-96.18449)"><g data-paper-data="{&quot;isPaintingLayer&quot;:true}" fill-rule="nonzero" stroke-linejoin="miter" stroke-miterlimit="10" stroke-dasharray="" stroke-dashoffset="0" style="mix-blend-mode: normal"><path d="M200.5,180.00002c0,-21.81525 17.68475,-39.5 39.5,-39.5c21.81525,0 39.5,17.68475 39.5,39.5c0,21.81525 -17.68475,39.5 -39.5,39.5c-21.81525,0 -39.5,-17.68475 -39.5,-39.5z" fill="#205fa7" stroke="#000000" stroke-width="1.5" stroke-linecap="butt"></path><path d="M267.80711,142.99011l-31.11024,20.74016l-27.99921,-20.22165" fill="none" stroke="#e2ff00" stroke-width="7" stroke-linecap="round"></path><path d="M212.91394,190.18854v-21.02353l21.15664,11.47952l23.22616,-11.47952v21.02353l-23.7633,13.64179z" fill="#edffff" stroke="#e2ff00" stroke-width="0" stroke-linecap="butt"></path><path d="" data-paper-data="{&quot;index&quot;:null}" fill="none" stroke="#000000" stroke-width="1.5" stroke-linecap="round"></path><path d="" data-paper-data="{&quot;index&quot;:null}" fill="none" stroke="#000000" stroke-width="1.5" stroke-linecap="round"></path><path d="M219.21849,179.17959l11.70893,8.14534l-8.14534,4.32721" fill="none" stroke="#ff0000" stroke-width="3" stroke-linecap="round"></path><path d="M246.96356,190.63398l-8.14534,-3.0545l10.18168,-6.10901" fill="none" stroke="#ff0000" stroke-width="3" stroke-linecap="round"></path><path d="M239.83639,187.83402l10.9453,-2.03634" fill="none" stroke="#ff0000" stroke-width="3" stroke-linecap="round"></path><path d="M229.14563,186.81585l-10.18168,-0.25454" fill="none" stroke="#ff0000" stroke-width="3" stroke-linecap="round"></path><path d="M122.25618,131.07116c0,-0.55228 0.44772,-1 1,-1c0.55228,0 1,0.44772 1,1c0,0.55228 -0.44772,1 -1,1c-0.55228,0 -1,-0.44772 -1,-1z" fill="#ffffff" stroke="none" stroke-width="0.5" stroke-linecap="butt"></path><g stroke-linecap="butt"><g fill="#d3d3d3" stroke="#000000" stroke-width="1"><path d="M235.07676,213.50511l-6.44265,-16.54211l32.94976,-12.83291l6.44265,16.54211z"></path><path d="M223.74438,207.07649l-2.77611,-7.12788l9.41421,-3.66653l2.77611,7.12788z"></path><path d="M223.13703,217.84547l-2.46181,-6.32099l13.58334,-5.29031l2.46181,6.32099z"></path></g><path d="M250.40849,207.53386l-6.49503,-16.67659l5.37954,-2.09516l6.49503,16.67659z" fill="#a0a0a0" stroke="none" stroke-width="0"></path><path d="M257.484,204.62328l-6.2855,-16.13865l4.97607,-1.93803l6.2855,16.13865z" fill="#a0a0a0" stroke="none" stroke-width="0"></path><path d="M242.63787,210.25049l-6.23313,-16.00415l4.97607,-1.93803l6.23313,16.00415z" fill="#a0a0a0" stroke="none" stroke-width="0"></path></g><path d="M280.7674,166.65737l-3.15058,74.90729l-38.98378,-25.46985l-47.29255,27.41838l3.12929,-74.40116l50.2207,-72.92754z" fill="url(#color-1)" stroke="none" stroke-width="0" stroke-linecap="round"></path></g></g></svg>