<svg version="1.1" xmlns="http://www.w3.org/2000/svg" xmlns:xlink="http://www.w3.org/1999/xlink" width="368.73649" height="71.58287" viewBox="0,0,368.73649,71.58287"><defs><radialGradient cx="218.4637" cy="182.44816" r="48.22617" gradientUnits="userSpaceOnUse" id="color-1"><stop offset="0" stop-color="#e6e6e6"></stop><stop offset="1" stop-color="#ecdeee"></stop></radialGradient></defs><g transform="translate(-0.18152,-146.6041)"><g data-paper-data="{&quot;isPaintingLayer&quot;:true}" fill-rule="nonzero" stroke-linejoin="miter" stroke-miterlimit="10" stroke-dasharray="" stroke-dashoffset="0" style="mix-blend-mode: normal"><path d="M249.81548,203.80199c0,0 3.82157,-6.29841 6.94524,-6.05793c2.41957,0.18628 7.0095,7.13228 7.0095,7.13228" fill="none" stroke="#000000" stroke-width="1.5" stroke-linecap="round"></path><g stroke="#000000"><path d="M311.05782,191.12734c5.6814,0.06716 10.21224,3.47299 10.11994,7.60712c-0.0923,4.13414 -4.77282,7.43105 -10.4542,7.36389c-5.6814,-0.06716 -10.21223,-3.473 -10.11994,-7.60712c0.0923,-4.13414 4.7728,-7.43105 10.4542,-7.36389z" data-paper-data="{&quot;index&quot;:null}" fill="#d4c0d7" stroke-width="1" stroke-linecap="butt"></path><g data-paper-data="{&quot;index&quot;:null}" stroke-width="0.8"><path d="M327.17937,204.86245l-0.24168,-3.74978l-10.57224,-3.77302l10.35471,0.39822l3.90891,-7.46156l3.30556,7.21533l31.18501,3.06954z" fill="#0033b3" stroke-linecap="round"></path><path d="M328.44378,202.36221l-21.15445,-0.26473l0.15681,-6.63504l21.15445,0.26473z" fill="#455c67" stroke-linecap="butt"></path></g></g><path d="M214.76179,217.43697c-26.55599,-1.48771 -46.42647,-18.35876 -44.38196,-37.68256c2.04451,-19.32379 25.22979,-33.78278 51.7858,-32.29507c26.55599,1.48771 46.42647,18.35876 44.38196,37.68256c-2.04451,19.32379 -25.22979,33.78278 -51.7858,32.29507z" data-paper-data="{&quot;index&quot;:null}" fill="url(#color-1)" stroke="#000000" stroke-width="1.5" stroke-linecap="butt"></path><path d="M265.58791,177.48152l-25.656,3.88723" data-paper-data="{&quot;index&quot;:null}" fill="none" stroke="#000000" stroke-width="1.5" stroke-linecap="round"></path><path d="M205.20768,174.14096l28.14502,7.16748" data-paper-data="{&quot;index&quot;:null}" fill="none" stroke="#000000" stroke-width="1.5" stroke-linecap="round"></path><path d="M228.26114,184.44208c0.07764,-0.73382 0.95809,-1.28289 1.96655,-1.22639c1.00846,0.05649 1.76303,0.69717 1.68539,1.43099c-0.07764,0.73382 -0.95809,1.28289 -1.96655,1.22639c-1.00846,-0.05649 -1.76303,-0.69717 -1.68539,-1.43099z" fill="#000000" stroke="none" stroke-width="0.5" stroke-linecap="butt"></path><path d="M240.98591,185.197c0.07764,-0.73382 0.9581,-1.28289 1.96655,-1.22639c1.00845,0.05649 1.76303,0.69717 1.68539,1.43099c-0.07764,0.73382 -0.9581,1.28289 -1.96655,1.22639c-1.00845,-0.05649 -1.76303,-0.69717 -1.68539,-1.43099z" fill="#000000" stroke="none" stroke-width="0.5" stroke-linecap="butt"></path><g stroke="#000000" stroke-width="0.8"><path d="M314.91866,185.88405l-31.19723,3.00304l-3.3346,7.20825l-3.87884,-7.46987l-10.35628,0.37614l10.58738,-3.75047l0.2568,-3.74926z" fill="#0033b3" stroke-linecap="round"></path><path d="M278.38032,190.64019l-21.15543,0.21963l-0.1301,-6.63534l21.15544,-0.21963z" fill="#455c67" stroke-linecap="butt"></path></g><path d="M247.56216,188.22865c-0.07567,-4.13431 4.46887,-7.53046 10.15052,-7.58552c5.68164,-0.05506 10.34884,3.25183 10.42451,7.38615c0.07567,4.13431 -4.46887,7.53046 -10.15051,7.58552c-5.68164,0.05506 -10.34885,-3.25183 -10.42451,-7.38615z" data-paper-data="{&quot;index&quot;:null}" fill="#d4c0d7" stroke="#000000" stroke-width="1" stroke-linecap="butt"></path><path d="M208.17089,186.54544c-19.29401,-0.77777 -38.59583,-1.30832 -57.91615,-1.82039c5.57048,0.319 11.13728,0.65072 16.69618,1.00826c5.34087,0.34351 13.23776,0.2737 19.18008,1.09744c5.29911,-0.00612 10.60931,0.00359 15.93944,0.02465l0.16113,0.03565l0.0084,-0.02865l3.9604,0.2136c1.14443,0.05448 2.08903,0.39293 2.44176,0.8473c1.74577,0.00539 3.48941,0.00799 5.23065,0.00782c0,0 2.91571,0 2.91571,1.25c0,0.48614 -0.44102,0.78322 -0.98001,0.96476c0.74358,0.03615 1.48711,0.0725 2.23062,0.10908l0.05062,0.01153l0.00294,-0.00825l4.17281,0.27268c1.42352,0.08263 2.52081,0.6057 2.52081,1.23863c0,0.64691 -1.14627,1.17904 -2.61558,1.24346l-5.75625,0.28661l-0.08026,-0.29622c-5.14878,0.56175 -10.32392,0.8277 -15.54132,0.92c0,0.00106 0,0.00212 0,0.00318c0,0.12995 -0.04625,0.25527 -0.13209,0.3731c2.53518,0.13147 5.06898,0.26909 7.60122,0.41317l0.26818,0.08006l0.03455,-0.04106l3.73407,0.57741c1.15668,0.16584 1.99034,0.63405 1.99034,1.18573c0,0.54962 -0.82741,1.01639 -1.97734,1.18386l-5.41224,0.8493l-0.29598,-0.34668c-1.80795,0.32012 -3.67224,0.60446 -5.58245,0.85795c1.52956,0.05933 3.05245,0.13452 4.56673,0.22965c0.68722,-0.01975 1.37435,-0.04008 2.06139,-0.06105l0.06741,0.02621l-0.00166,-0.02726l0.12519,-0.0014l0.00492,-0.11116l5.45819,0.04439c0.49217,-0.3919 1.45802,-0.65827 2.56898,-0.65827c0.32654,0 0.64055,0.02301 0.93368,0.06546l2.8407,0.38015c0.66215,-0.00144 1.32439,-0.00239 1.9867,-0.00285c0.29283,-0.06257 0.61365,-0.10464 0.95227,-0.12184l5.3961,-0.30987l0.00683,0.02187c0.1208,-0.01182 0.24217,-0.02281 0.36418,-0.03292c0.5852,-0.04849 1.19397,-0.08328 1.82269,-0.10603c2.8735,-0.8149 8.50397,-0.6974 12.27362,-0.55821c-0.00044,-0.00901 -0.00068,-0.01804 -0.00068,-0.0271c0,-0.65008 1.15756,-1.18426 2.63723,-1.24437l5.76367,-0.26648l0.09025,0.35871c9.714,-0.9823 20.03388,-0.83397 30.0422,-0.23936c3.00876,0.00369 6.14689,0.16091 9.64572,0.47795l1.67343,0.10992c0,0 2.88084,0.19269 2.43138,1.42775c-0.28936,0.79507 -1.58629,0.99846 -2.47365,1.04247c-0.24046,0.19303 -0.59567,0.35583 -1.02652,0.47168c-0.02258,0.06114 -0.05549,0.12081 -0.09794,0.17866c0.45147,0.02088 0.90285,0.04199 1.35413,0.0633c6.93977,0.07513 14.27235,0.01727 20.46619,1.10612c1.68337,0.10155 3.36926,0.20563 5.05858,0.31213l3.0901,0.1333c1.48867,0.05632 2.65603,0.59227 2.65603,1.24511c0,0.69036 -1.3054,1.25 -2.91571,1.25h-5.83143v-0.00614c-1.1644,0.09872 -2.2194,-0.18582 -2.2194,-0.18582c-0.01271,-0.00361 -0.02545,-0.00722 -0.03818,-0.01082c-0.51083,0.02519 -1.02265,0.04798 -1.53537,0.06848l3.09311,0.23869c0.75197,0.05187 1.40778,0.22704 1.85099,0.47557c13.48721,-0.34465 26.98282,-0.57916 40.42981,-0.27088l0.10002,0.02083l0.00469,-0.016l3.96026,0.21362c1.45713,0.06938 2.59027,0.59911 2.59027,1.24231c0,0.59423 -0.9672,1.09162 -2.2635,1.21861l-5.59579,0.60368l-0.24212,-0.41248c-5.11316,0.69574 -10.41722,1.01863 -15.81803,1.18237c-0.44034,0.30894 -1.18476,0.52954 -2.05486,0.58533l-2.95164,0.2123l-0.11605,-0.29654l-0.46703,-0.01833c-2.72878,0.36973 -5.57793,0.56777 -8.48583,0.66846c-0.07427,0.52776 -0.91239,0.9672 -2.04667,1.11779l-2.93536,0.42224l-0.02123,-0.0271c-0.16272,0.02977 -0.32903,0.05651 -0.49943,0.0798c-2.0212,0.27627 -4.24041,-0.06216 -6.36018,-0.09828c-6.94484,-0.1183 -13.88939,-0.25187 -20.83061,-0.40574c0.18117,0.16282 0.28259,0.34509 0.28259,0.53752c0,0.69036 -1.3054,1.25 -2.91571,1.25c-0.13907,0 -0.2759,-0.00418 -0.40979,-0.01225l-3.0963,-0.16701c-1.73877,0.26349 -3.72036,-0.12664 -5.57601,-0.17814c-7.08206,-0.19655 -14.05113,-0.26678 -21.15048,-0.26678c-26.47567,0 -52.79797,1.11429 -79.29135,0.5131l-3.65577,-0.08302c-1.54719,-0.03044 -2.7798,-0.57784 -2.7798,-1.24866c0,-0.56739 0.88178,-1.04648 2.08989,-1.19915l5.49006,-0.75381l0.2699,0.36128c4.74601,-0.82205 9.62023,-1.27209 14.64594,-1.51836c-0.95694,-0.06821 -1.91208,-0.1399 -2.86526,-0.21534l-0.22059,-0.06742l-0.02862,0.0325l-3.93526,-0.6368c-1.13557,-0.17087 -1.94977,-0.63455 -1.94977,-1.17977c0,-0.56145 0.86342,-1.03646 2.0521,-1.19426l2.93538,-0.42221l0.30449,0.38909c7.4037,-1.17974 15.58247,-0.66557 23.9264,-0.66777c2.00375,-0.00053 4.00759,0.00266 6.0115,0.00952c0.46607,-0.14067 1.03258,-0.22428 1.6443,-0.22712l4.1078,-0.0223c5.121,-0.17057 10.23882,-0.38041 15.35721,-0.58813c-2.6836,-0.16368 -5.37455,-0.33417 -8.07681,-0.50962c-4.52391,-0.29373 -13.83798,-0.216 -17.7438,-1.18505c-0.13228,-0.03282 -0.26071,-0.06768 -0.38564,-0.10437l-0.0358,0.0305l-1.61498,-0.34846c-0.51993,0.29421 -1.33666,0.4867 -2.2591,0.49553l-5.77076,0.06429c-9.68997,0.29594 -19.39827,0.35738 -29.09785,0.57344c-12.08615,0.26922 -23.1831,0.91664 -34.53067,-0.02924l-0.05559,0.33789l-5.79325,-0.17515c-1.52581,-0.04014 -2.73433,-0.58338 -2.73433,-1.24762c0,-0.07742 0.01642,-0.1532 0.04784,-0.22673c-10.59967,-0.173 -21.18733,-0.44031 -31.74845,-0.89604l-3.35942,-0.14496c-1.48862,-0.05634 -2.65596,-0.59229 -2.65596,-1.24511c0,-0.48816 0.6527,-0.91096 1.60439,-1.11675l5.09935,-1.15816l0.38375,0.31055c5.25664,-1.30125 10.37628,-1.80551 16.8268,-2.28645c-6.8464,0.08754 -15.98612,0.43431 -22.29376,-0.37985c-0.97732,0.0163 -1.95449,0.03299 -2.93141,0.05011l-0.18714,-0.03565l-0.0066,0.03084l-5.31285,-0.20834c-1.50003,-0.05147 -2.67989,-0.58965 -2.67989,-1.24597c0,-0.69036 1.3054,-1.25 2.91571,-1.25c0.07527,0 0.14989,0.00123 0.22372,0.00362l5.78984,0.16656l-0.00453,0.02878c0.97408,-0.01782 1.94833,-0.03519 2.92278,-0.05214c-0.46437,-0.22141 -0.74694,-0.51431 -0.74694,-0.8355c0,-0.16227 0.07212,-0.31732 0.20338,-0.45958c-1.26593,-0.08605 -2.53114,-0.17424 -3.79554,-0.26471c-1.8362,-0.00386 -3.61311,-0.04955 -5.2645,-0.1585c-1.43929,-0.00369 -2.87856,-0.00738 -4.31785,-0.01108l-5.82905,-0.01532c-1.60313,-0.0036 -2.90011,-0.56186 -2.90011,-1.24998c0,-0.12813 0.04497,-0.25175 0.1285,-0.36813l-1.33467,-0.22151c-1.12344,-0.17367 -1.92654,-0.63474 -1.92654,-1.17623c0,-0.53409 0.78132,-0.98995 1.88066,-1.16895l5.33947,-0.93037l0.36127,0.38106c3.92737,-0.6718 7.99438,-1.05965 12.1575,-1.25916l-0.71174,-0.09745c-1.2093,-0.15236 -2.09218,-0.63169 -2.09218,-1.19944c0,-0.69036 1.3054,-1.25 2.91571,-1.25h5.83143v0.29241c12.91501,-0.74325 26.25461,0.04724 39.30617,0.40674c12.85081,0.35397 25.68001,0.67923 38.50318,1.05901c-0.05246,-0.09381 -0.08024,-0.19174 -0.08024,-0.29245c0,-0.62699 1.07676,-1.14616 2.48078,-1.23619l2.95164,-0.21229l0.02608,0.06665l0.31322,-0.08238c8.0439,0.2202 15.29234,0.26577 22.07124,0.95617c10.39784,0.14227 20.8402,0.12084 31.22329,0.12084h5.83143c1.61031,0 2.91571,0.55964 2.91571,1.25c0,0.69036 -1.3054,1.25 -2.91571,1.25h-3.21445c0.96687,0.20351 1.63243,0.6298 1.63243,1.12273c0,0.58766 -0.94595,1.08061 -2.22066,1.21426l-4.08214,0.46974c-0.77458,0.68368 -2.75097,0.64307 -2.75097,0.64307l-4.6724,-0.09601c-1.98542,-0.04127 -4.18883,0.26598 -5.95697,-0.12265c-0.15451,0.00012 -0.31075,0.00016 -0.46878,0.00013l-0.12316,-0.03611l-0.10676,-0.00659l-0.01164,0.02974l-2.95178,-0.21228c-1.3316,-0.08537 -2.36882,-0.55675 -2.47234,-1.14003l-1.39791,-0.02742c-1.96517,-0.03867 -3.93034,-0.07733 -5.89548,-0.11599zM107.83552,186.11674c-6.35763,-0.08666 -13.17014,0.54006 -19.63622,0.72394c1.44657,0.1157 2.89426,0.22793 4.34292,0.33694c6.40144,-0.27969 12.90556,-0.26178 19.4638,-0.28171c-0.49978,-0.18326 -0.85323,-0.4377 -0.97499,-0.7267c-1.06498,-0.02039 -2.13015,-0.03795 -3.19551,-0.05247zM149.6305,190.3446c2.66725,0.1216 5.33462,0.24313 8.00172,0.36609c0.24322,0.01121 0.48667,0.02222 0.7303,0.03304c3.39149,0.06623 6.78284,0.13229 10.17316,0.20069c1.74427,-0.00206 3.48815,-0.00333 5.23154,-0.00383c0.74404,-0.00021 1.51708,-0.01763 2.31272,-0.0476c-3.86442,-0.16154 -7.72951,-0.32171 -11.59528,-0.48193c-1.59979,-0.01227 -3.19761,-0.02346 -4.79183,-0.03034c-3.35428,-0.01448 -6.70841,-0.02573 -10.06232,-0.03613zM197.23339,196.64636c-14.02351,-0.67982 -28.06422,-1.18678 -42.13115,-1.57603c-3.81065,0.06022 -7.61403,0.15968 -11.4046,0.31507c-9.02974,0.37016 -18.10927,1.318 -27.06301,1.94876c-1.73788,0.12243 -3.26199,0.32572 -4.72036,0.52648c16.52877,0.57983 33.10661,0.73969 49.68977,0.87252c8.89734,-0.39847 17.80014,-0.78221 26.6455,-1.31939c2.93645,-0.17833 5.95767,-0.51228 8.98385,-0.7674zM218.82883,206.61165c5.72686,0.15913 11.47285,0.25886 17.2158,0.3581c-0.04852,-0.07962 -0.07914,-0.16234 -0.09001,-0.24732c-5.70722,-0.06736 -11.41635,-0.1046 -17.12579,-0.11078zM289.96777,205.39052c0.07714,0.01481 0.15416,0.02967 0.23113,0.04458c0.0558,-0.00085 0.11159,-0.0017 0.16736,-0.00256l0.01572,-0.02435c-0.13806,-0.00589 -0.27618,-0.01178 -0.41424,-0.01768z" fill="#0033b3" stroke="none" stroke-width="0.5" stroke-linecap="butt"></path><path d="M126.14488,197.1971c-0.0178,0.16343 -0.11488,0.28955 -0.25581,0.38685c0.24697,0.06495 0.45345,0.15544 0.5994,0.2629c1.05719,0.03549 2.1065,0.08224 3.14505,0.14269c0.58727,-0.00725 1.17464,-0.01465 1.76209,-0.02219v-0.0453h3.49886c0.9662,0 1.74943,0.33578 1.74943,0.75c0,0.4075 -0.75809,0.7391 -1.70264,0.74974l-2.49998,0.03269c-1.16017,0.01517 -2.31991,0.02986 -3.47931,0.04388c-2.34556,0.19094 -5.14778,0.17193 -7.8447,0.10514c-8.3583,1.69114 -16.54272,1.71971 -26.53977,1.81393c-12.87671,0.12136 -25.50849,0.08628 -38.30577,-0.65684c-4.58623,-0.26686 -9.19159,-0.43556 -13.79845,-0.62458l-3.1301,-0.06759c-0.93023,-0.01739 -1.67189,-0.3462 -1.67189,-0.74928c0,-0.41422 0.78323,-0.75 1.74943,-0.75h3.49886v0.07868c0.44601,0.0182 0.89202,0.03625 1.33799,0.05423c5.285,-0.26031 10.59344,-0.08309 16.11963,-0.13274c2.82052,-0.02534 5.64095,-0.05183 8.46136,-0.07885c-0.99708,-0.02857 -1.99482,-0.05684 -2.9933,-0.08464c-10.27608,-0.28609 -20.60293,-0.68288 -30.90256,-0.70494l-2.52639,-0.00447c-0.96328,-0.00145 -1.74311,-0.33668 -1.74311,-0.74999c0,-0.31115 0.44195,-0.57804 1.07142,-0.6916l3.15746,-0.60555l0.35567,0.34085c4.09525,-0.69376 8.52702,-0.75313 13.15477,-0.81838c-0.15505,-0.11196 -0.2441,-0.2427 -0.2441,-0.38235c0,-0.39379 0.70789,-0.71669 1.60787,-0.74758l3.46643,-0.13599l0.02722,0.1276c0.39514,-0.00134 0.79028,-0.00313 1.18541,-0.00535c5.30359,-0.43203 10.75794,-0.37125 16.33607,-0.48696c0.76541,-0.01587 1.53005,-0.03085 2.29397,-0.04494c-3.82064,-0.32297 -7.61051,-0.61318 -11.2851,-1.06412c-1.95614,0.11235 -3.91284,0.22366 -5.86985,0.32978c-2.48801,0.21088 -5.08545,0.38672 -7.37102,0.36701c-1.32723,0.05873 -2.6544,0.11268 -3.98144,0.16057l-2.49121,0.08958c-0.05489,0.00223 -0.11049,0.00336 -0.16673,0.00336c-0.9662,0 -1.74943,-0.33578 -1.74943,-0.75c0,-0.38592 0.6799,-0.70376 1.55419,-0.74538l3.44833,-0.18601l0.0177,0.06032c0.60987,-0.02311 1.2198,-0.04747 1.82976,-0.07295c2.18494,-0.23141 4.4045,-0.39393 6.64858,-0.52933c-0.00135,-0.01212 -0.00205,-0.02432 -0.00205,-0.03659c0,-0.41422 0.78323,-0.75 1.74943,-0.75h3.49886v0.00286l0.0219,-0.0028c2.51698,0.02697 5.03397,0.05403 7.55093,0.08154c6.17625,-0.32932 12.3018,-0.576 18.43355,-0.76417c2.79106,-0.14203 5.58219,-0.28381 8.3737,-0.4241c-5.22421,-0.36463 -10.43404,-0.79778 -15.6119,-1.2417c-13.25876,0.20026 -26.88457,0.58492 -39.86554,0.02956l-2.97401,-0.06455c-0.93004,-0.01747 -1.67154,-0.34625 -1.67154,-0.74927c0,-0.08904 0.0362,-0.17446 0.10261,-0.25369c-5.68385,-0.09959 -11.36809,-0.20036 -17.05404,-0.29573l-0.12911,-0.0313l-0.01022,0.02176l-2.46744,-0.21296c-0.81666,-0.06331 -1.43607,-0.36964 -1.43607,-0.738c0,-0.38079 0.66191,-0.69529 1.51939,-0.74357l3.43502,-0.21798l0.05542,0.16054c0.69765,-0.08784 1.40022,-0.16858 2.10699,-0.24305c-4.39363,-0.14773 -8.77474,-0.37826 -12.95018,-0.86735c-0.3811,-0.01784 -0.76231,-0.03583 -1.14361,-0.05397l-0.03142,0.1017l-3.44451,-0.19558c-0.86928,-0.04363 -1.54381,-0.36049 -1.54381,-0.74488c0,-0.41422 0.78323,-0.75 1.74943,-0.75c0.0393,0 0.0783,0.00055 0.11696,0.00165l3.13624,0.07836l-0.00096,0.00695l0.04674,-0.00555c1.21826,0.05798 2.43546,0.11443 3.65162,0.1697c1.81017,-0.00191 3.79393,0.11066 5.75849,0.25452c7.55203,0.3261 15.07072,0.62729 22.57675,0.98599c0.17646,-0.00641 0.3528,-0.01284 0.52905,-0.01932c14.94068,-0.54871 29.66863,-0.60949 44.66147,-0.60949c22.91572,0 46.27671,0.43641 69.04555,1.55234l3.45477,0.16932c0.88295,0.03808 1.57218,0.35763 1.57218,0.7462c0,0.37261 -0.63383,0.68177 -1.46448,0.7401l-3.41148,0.26781l-0.07331,-0.17162c-1.84754,0.25805 -3.71761,0.45469 -5.60673,0.60629l2.72787,0.1962c0.84241,0.05401 1.48848,0.36552 1.48848,0.74171c0,0.41422 -0.78323,0.75 -1.74943,0.75h-2.9992v-0.20523l-0.25805,-0.01856c-0.00138,-0.00007 -0.00278,-0.00014 -0.00415,-0.00021c-1.76734,0.08523 -3.54245,0.09821 -5.3264,0.07041l-0.42287,0.04211l-0.02706,-0.04997c-0.29724,-0.00573 -0.59476,-0.01252 -0.89249,-0.02022c-1.63513,0.20544 -3.29896,0.36588 -4.98249,0.49457c2.86538,0.04347 5.72861,0.13919 8.5893,0.3154l3.4373,0.2127c0.86028,0.04719 1.52515,0.36226 1.52515,0.7439c0,0.3443 -0.54118,0.63441 -1.27872,0.72254l-3.31008,0.43104l-0.12232,-0.17265c-5.93684,1.07285 -12.0823,1.37346 -18.66741,1.72111c3.63902,0.21235 7.19846,0.53878 10.57119,1.12542l0.15276,-0.22681l3.32422,0.41151c0.74911,0.08484 1.30139,0.37736 1.30139,0.72518c0,0.41422 -0.78323,0.75 -1.74943,0.75c-0.06275,0 -0.12472,-0.00142 -0.18577,-0.00418l-3.46121,-0.13924c-4.63036,-0.18627 -9.23687,-0.32929 -13.88151,-0.43098c-4.45146,-0.09746 -8.87637,-0.1741 -13.28929,-0.22719c2.98026,0.31331 5.93828,0.65661 8.86249,1.04408c1.27447,0.06844 2.54589,0.14747 3.81306,0.24157l2.06106,0.15347c1.08084,0.02164 2.16169,0.04328 3.24253,0.06492l0.06613,0.00132c0,0 1.74754,0.03498 1.66592,0.78417zM31.72098,185.44741c3.59993,0.06171 7.19955,0.12446 10.79925,0.18606c0.08066,-0.06464 0.18278,-0.12362 0.30228,-0.1752c-1.57092,-0.08281 -3.14216,-0.16208 -4.71389,-0.2386c-0.38184,-0.01132 -0.76375,-0.02268 -1.14567,-0.03405c-0.80082,0.02723 -1.60229,0.05555 -2.40448,0.08497c-0.86093,0.03158 -1.81822,0.09597 -2.83748,0.17682zM84.85071,191.19573c-0.39285,0.02051 -0.7857,0.04101 -1.17856,0.06149c7.79361,0.37269 15.59565,0.6966 23.41293,1.01035c5.83805,-0.28493 11.67417,-0.59016 17.51815,-0.91072c2.5171,-0.13807 6.05146,-0.57623 9.529,-0.89962c-7.88365,-0.15159 -15.79394,0.13364 -23.69529,0.22579c-8.64253,0.1008 -17.11919,0.24999 -25.58624,0.51271zM112.86147,199.63122c-1.31508,0.00425 -2.63063,0.00652 -3.94683,0.00651c-10.97648,0.07022 -21.94873,0.17705 -32.92059,0.28385c6.14222,0.07781 12.29485,0.05477 18.50658,-0.00378c5.38705,-0.05077 11.91349,0.32133 17.17099,-0.1492c0.40661,-0.03639 0.80245,-0.08306 1.18987,-0.13737zM88.72525,194.82743c-2.42137,0.00815 -4.84503,0.02451 -7.27333,0.04951c-0.10543,0.00383 -0.21084,0.00764 -0.31627,0.01145c3.66909,0.04899 7.33981,0.12491 11.01954,0.225c-1.14287,-0.09633 -2.28639,-0.19138 -3.42993,-0.28596zM89.72012,193.04977c-3.06096,-0.13678 -6.12048,-0.27973 -9.17834,-0.43135c2.14769,0.1841 4.30108,0.36273 6.45593,0.54106c0.90777,-0.03596 1.81523,-0.07253 2.72244,-0.10971zM107.82255,188.55563c3.78152,-0.17798 7.56474,-0.34935 11.35032,-0.51108c-7.90397,0.1098 -15.90075,-0.00607 -23.76874,-0.14621c4.13507,0.277 8.27778,0.50604 12.41843,0.6573zM83.07292,184.53867c10.1211,0.08741 20.24078,0.18444 30.35873,0.2869c-10.14463,-0.19452 -20.29375,-0.28317 -30.35873,-0.2869z" fill="#002480" stroke="none" stroke-width="0.5" stroke-linecap="butt"></path><path d="M165.89505,208.48885c-22.02209,0.05649 -44.01722,0.36096 -66.03103,0.41812c-1.18672,-0.03806 -2.37344,-0.0761 -3.56016,-0.11416l-3.0141,-0.09718c-0.91206,-0.02562 -1.63331,-0.35089 -1.63331,-0.74837c0,-0.37975 0.65832,-0.69357 1.51237,-0.74318l3.43217,-0.2244l0.063,0.17707c0.14252,-0.01865 0.2853,-0.037 0.42828,-0.05504c-0.55704,-0.12545 -0.93697,-0.3759 -0.93697,-0.66439c0,-0.37797 0.65219,-0.69064 1.50043,-0.74246l3.42722,-0.23529l0.05752,0.154c7.73492,-1.04621 16.30216,-1.2996 24.26878,-1.66003c0.24849,-0.01124 0.49698,-0.02248 0.74547,-0.03373c-0.00511,-0.02335 -0.00772,-0.047 -0.00772,-0.07092c0,-0.41422 0.78323,-0.75 1.74943,-0.75h3.49886v0.18302c4.49965,-0.28663 9.09367,-0.2659 13.6974,-0.22477c7.35423,-0.33686 14.70798,-0.67559 22.06156,-1.01523c2.83307,-0.13005 5.68497,-0.23227 8.55125,-0.31024c-2.9845,-0.07316 -5.96945,-0.14275 -8.95402,-0.20208c-3.0803,0.08362 -6.35323,0.11921 -8.96228,-0.14059c-0.95297,-0.01024 -1.90585,-0.01874 -2.85857,-0.0253l-2.54145,-0.00036c-0.00002,0 -0.00005,0 -0.00007,0c-0.95575,-0.00014 -1.73235,-0.32884 -1.74859,-0.73695c-0.54358,-0.12723 -0.91232,-0.37452 -0.91232,-0.65873c0,-0.41422 0.78323,-0.75 1.74943,-0.75c0.00387,0 0.00772,0.00001 0.01159,0.00002l3.49713,0.0085c11.66127,0.0287 23.29903,0.4188 34.96364,0.43079c13.99426,0.01534 28.03233,0.59632 42.01081,0.88147c7.73553,0.1578 15.64419,0.19132 23.01094,1.1329c0.16417,0.00444 0.32833,0.00886 0.4925,0.01329l0.1359,0.00366l0.04287,-0.12353l3.43455,0.21906c0.55881,0.03163 1.03445,0.17634 1.29773,0.37874c8.1512,0.5125 16.1027,1.25169 23.4392,2.37813l2.09171,0.32206c0.6952,0.09921 1.19647,0.3804 1.19647,0.71177c0,0.29869 -0.40727,0.55659 -0.99671,0.67722l-1.96575,0.42412l-0.26129,-0.2226c-4.19583,0.90961 -9.08157,1.03585 -13.92396,1.44114c-16.99806,1.42265 -35.17476,1.13238 -52.42761,1.89526c-20.90969,0.92376 -42.0523,1.27431 -63.05884,1.28028l-0.00056,-0.00009v0.00009l-2.57798,0.00003h-0.00002c-0.9662,0 -1.74943,-0.33578 -1.74943,-0.75c0,-0.38524 0.67752,-0.70264 1.5496,-0.74516l3.44665,-0.19024l0.04558,0.15177c3.40007,-0.46712 7.01005,-0.79773 10.71278,-1.04748zM238.799,206.4158l3.21991,0.13719c0.89412,0.0334 1.59555,0.35515 1.59555,0.74714c0,0.07879 -0.02834,0.15474 -0.08087,0.22608c7.51118,-0.18471 15.0087,-0.40426 22.42294,-0.82329c2.4178,-0.13664 8.33799,-1.03701 12.77102,-1.30859c-8.63422,-1.14074 -18.01839,-1.79484 -27.47889,-2.21897c0.16258,0.0903 0.27818,0.19693 0.33116,0.31318c2.39308,0.25355 4.72299,0.5892 6.96056,1.05333l0.1881,-0.20828l3.22478,0.53524c0.67404,0.10421 1.15588,0.38084 1.15588,0.70574c0,0.41422 -0.78323,0.75 -1.74943,0.75c-0.00728,0 -0.01456,-0.00002 -0.02181,-0.00006l-2.56217,-0.01173l0.00012,-0.00484l-0.0331,0.00455c-7.55471,-0.1566 -15.11206,-0.31767 -22.67057,-0.47513c0.02904,0.05419 0.04437,0.11063 0.04437,0.16861c0,0.07059 -0.02274,0.1389 -0.06527,0.20367c0.91693,0.06583 1.83286,0.13449 2.74768,0.2062zM196.29346,208.41431c-0.45117,0.23592 -1.19208,0.27681 -1.19208,0.27681c-3.31808,0.18314 -7.98166,0.44054 -11.29975,0.62368c11.15123,-0.19978 22.2922,-0.52709 33.36669,-1.01722c0.2929,-0.01295 0.58592,-0.02567 0.87903,-0.03814c-0.04418,0.00037 -0.08838,0.00075 -0.13254,0.00115c-7.20821,0.06409 -14.41466,0.11633 -21.62135,0.15372zM174.64164,203.26178c1.40024,0.01749 2.80044,0.036 4.20054,0.05531c10.91606,-0.10485 22.20482,0.07756 33.13712,0.53865c5.83327,0.10836 11.66685,0.22397 17.5,0.34322c1.12668,-0.0942 2.30848,-0.19792 3.51668,-0.29933c-1.04504,-0.05491 -2.09052,-0.11038 -3.1364,-0.1661c-18.23875,-0.5444 -37.04824,-1.02165 -55.21795,-0.47174zM146.61733,205.82998c-1.38753,0.05422 -2.77494,0.10892 -4.16215,0.16447c3.11009,-0.01253 6.22193,-0.04637 9.33404,-0.0923c-0.9944,-0.03053 -1.98915,-0.06246 -2.98359,-0.09632c-0.72998,0.00852 -1.45944,0.01662 -2.1883,0.02415zM184.67471,206.96218c3.50665,-0.00959 7.01306,-0.02304 10.51936,-0.04023c-2.02414,-0.02762 -4.04729,-0.05861 -6.07,-0.09284c-1.48202,0.04487 -2.96503,0.08948 -4.44936,0.13307z" fill="#002480" stroke="none" stroke-width="0.5" stroke-linecap="butt"></path></g></g></svg>