<svg version="1.1" xmlns="http://www.w3.org/2000/svg" xmlns:xlink="http://www.w3.org/1999/xlink" width="164.00603" height="113.92664" viewBox="0,0,164.00603,113.92664"><g transform="translate(-188.01566,-106.50834)"><g data-paper-data="{&quot;isPaintingLayer&quot;:true}" fill="none" fill-rule="nonzero" stroke-linejoin="miter" stroke-miterlimit="10" stroke-dasharray="" stroke-dashoffset="0" style="mix-blend-mode: normal"><path d="" data-paper-data="{&quot;index&quot;:null}" stroke="#000000" stroke-width="1.5" stroke-linecap="round"></path><path d="" data-paper-data="{&quot;index&quot;:null}" stroke="#000000" stroke-width="1.5" stroke-linecap="round"></path><path d="" data-paper-data="{&quot;index&quot;:null}" stroke="#000000" stroke-width="1.5" stroke-linecap="round"></path><path d="" data-paper-data="{&quot;index&quot;:null}" stroke="#000000" stroke-width="1.5" stroke-linecap="round"></path><path d="" data-paper-data="{&quot;index&quot;:null}" stroke="#000000" stroke-width="1.5" stroke-linecap="round"></path><path d="" data-paper-data="{&quot;index&quot;:null}" stroke="#000000" stroke-width="1.5" stroke-linecap="round"></path><path d="" data-paper-data="{&quot;index&quot;:null}" stroke="#000000" stroke-width="1.5" stroke-linecap="round"></path><path d="M221.38955,167.04839c12.36318,-17.76491 30.71769,-26.36758 40.99596,-19.2146c10.27827,7.15298 8.58811,27.35292 -3.77506,45.11783c-12.36318,17.76491 -30.71769,26.36758 -40.99596,19.2146c-10.27827,-7.15298 -8.58811,-27.35292 3.77506,-45.11783z" data-paper-data="{&quot;index&quot;:null}" stroke="#fb00ff" stroke-width="11.5" stroke-linecap="butt"></path><path d="M196.28324,110.64213c0,2.28303 -1.85076,4.13379 -4.13379,4.13379c-2.28303,0 -4.13379,-1.85076 -4.13379,-4.13379c0,-2.28303 1.85076,-4.13379 4.13379,-4.13379c2.28303,0 4.13379,1.85076 4.13379,4.13379z" stroke="none" stroke-width="0" stroke-linecap="butt"></path><path d="M351.54318,172.9445c1.41437,5.13588 -0.41294,10.11831 -4.08143,11.12857c-3.66848,1.01027 -7.78895,-2.3342 -9.20332,-7.47007c-1.41437,-5.13588 0.41294,-10.11831 4.08143,-11.12857c3.66848,-1.01027 7.78895,2.3342 9.20332,7.47007z" stroke="none" stroke-width="0" stroke-linecap="butt"></path></g></g></svg>