<svg version="1.1" xmlns="http://www.w3.org/2000/svg" xmlns:xlink="http://www.w3.org/1999/xlink" width="580" height="415" viewBox="0,0,580,415"><defs><linearGradient x1="373.1702" y1="124.12258" x2="423.9881" y2="142.22176" gradientUnits="userSpaceOnUse" id="color-1"><stop offset="0" stop-color="#906e40"></stop><stop offset="1" stop-color="#bd9055"></stop></linearGradient></defs><g transform="translate(56.66077,19.8185)"><g data-paper-data="{&quot;isPaintingLayer&quot;:true}" fill-rule="nonzero" stroke-linejoin="miter" stroke-miterlimit="10" stroke-dasharray="" stroke-dashoffset="0" style="mix-blend-mode: normal"><path d="M-56.66077,395.1815v-415h580v415z" fill="#989898" stroke="none" stroke-width="0" stroke-linecap="butt"></path><path d="" data-paper-data="{&quot;index&quot;:null}" fill="#00c1ff" stroke="none" stroke-width="0.5" stroke-linecap="butt"></path><path d="" data-paper-data="{&quot;index&quot;:null}" fill="none" stroke="#000000" stroke-width="1.5" stroke-linecap="round"></path><path d="" data-paper-data="{&quot;index&quot;:null}" fill="none" stroke="#000000" stroke-width="1.5" stroke-linecap="round"></path><path d="" data-paper-data="{&quot;index&quot;:null}" fill="none" stroke="#000000" stroke-width="1.5" stroke-linecap="round"></path><path d="" data-paper-data="{&quot;index&quot;:null}" fill="none" stroke="#000000" stroke-width="1.5" stroke-linecap="round"></path><path d="" data-paper-data="{&quot;index&quot;:null}" fill="none" stroke="#000000" stroke-width="1.5" stroke-linecap="round"></path><text transform="translate(97.89053,79.30196) scale(1.36826,1.36826)" font-size="40" xml:space="preserve" fill="#000000" fill-rule="nonzero" stroke="none" stroke-width="1" stroke-linecap="butt" stroke-linejoin="miter" stroke-miterlimit="10" stroke-dasharray="" stroke-dashoffset="0" font-family="Sans Serif" font-weight="normal" text-anchor="start" style="mix-blend-mode: normal"><tspan x="0" dy="0">NEW BALLS!</tspan></text><path d="" data-paper-data="{&quot;index&quot;:null}" fill="none" stroke="#000000" stroke-width="1.5" stroke-linecap="round"></path><path d="" data-paper-data="{&quot;index&quot;:null}" fill="none" stroke="#000000" stroke-width="1.5" stroke-linecap="round"></path><path d="" data-paper-data="{&quot;index&quot;:null}" fill="none" stroke="#000000" stroke-width="1.5" stroke-linecap="round"></path><path d="M307.259,236.43894" data-paper-data="{&quot;index&quot;:null}" fill="none" stroke="#d8d8d8" stroke-width="4" stroke-linecap="round"></path><path d="M238.35935,271.28985c-30.84912,0 -55.85726,-25.00815 -55.85726,-55.85726c0,-30.84912 25.00815,-55.85726 55.85726,-55.85726c30.84912,0 55.85726,25.00815 55.85726,55.85726c0,30.84912 -25.00815,55.85726 -55.85726,55.85726z" fill="#d8d8d8" stroke="#000000" stroke-width="1.5" stroke-linecap="butt"></path><path d="M210.52067,177.31263l19.84157,6.49361" fill="none" stroke="#000000" stroke-width="1.5" stroke-linecap="round"></path><path d="M231.45235,205.63196l0.36075,8.29739" fill="none" stroke="#000000" stroke-width="1.5" stroke-linecap="round"></path><path d="M241.91428,205.63196l10.82269,-5.41134" fill="none" stroke="#000000" stroke-width="1.5" stroke-linecap="round"></path><path d="M247.32563,204.18893l-3.24681,6.85437" fill="none" stroke="#000000" stroke-width="1.5" stroke-linecap="round"></path><path d="M229.60837,232.87167l27.97093,3.25574l-35.29835,-0.74463" fill="none" stroke="#000000" stroke-width="2" stroke-linecap="round"></path><g stroke="#000000" stroke-linecap="butt"><path d="M292.46681,213.18501l-7.61933,-26.71284l9.36684,-2.67172l7.61933,26.71284z" fill="#af5400" stroke-width="1.5"></path><path d="M296.0039,194.9834c-9.20351,4.06591 -18.65514,2.85589 -21.11078,-2.70269c-2.45564,-5.55856 3.01458,-13.36072 12.21809,-17.42663c9.20351,-4.06591 18.65514,-2.85589 21.11078,2.70269c2.45564,5.55856 -3.01458,13.36072 -12.21809,17.42663z" data-paper-data="{&quot;index&quot;:null}" fill="#989898" stroke-width="1"></path><path d="M285.70857,184.84005l-39.16641,-121.55344l13.55161,13.82648l33.8557,105.07161c0,0 -1.66179,2.93912 -3.01884,3.37638c-1.38918,0.44761 -5.22209,-0.72104 -5.22209,-0.72104z" fill="#e6e6e6" stroke-width="0.5"></path></g><path d="M140.73445,173.97261l24.7221,5.81696c0,0 -7.47851,30.5396 -17.4509,18.90514c-9.97239,-11.63445 0,-39.26452 0,-39.26452" fill="none" stroke="#ff8d39" stroke-width="6" stroke-linecap="round"></path><path d="M365.41476,186.33366l-54.53406,-36.35604" fill="none" stroke="#ff8d39" stroke-width="5" stroke-linecap="round"></path><path d="M350.14523,152.15898l-0.72712,37.81028" fill="none" stroke="#ff8d39" stroke-width="5" stroke-linecap="round"></path><path d="M185.81593,109.98598l5.08984,12.36106l-2.18136,11.63394" fill="none" stroke="#ff8d39" stroke-width="5" stroke-linecap="round"></path><path d="M195.99563,110.71309l4.36272,8.72546l-2.90848,14.54242" fill="none" stroke="#ff8d39" stroke-width="5" stroke-linecap="round"></path><path d="M315.24342,255.41013l-12.36106,-6.54408l8.72546,-8.72546" fill="none" stroke="#ff8d39" stroke-width="5" stroke-linecap="round"></path><path d="M309.42646,219.78121l37.81028,24.7221l-34.17468,29.81196" fill="none" stroke="#ff8d39" stroke-width="5" stroke-linecap="round"></path><path d="M323.34209,245.23045c0,-1.95247 1.5828,-3.53527 3.53527,-3.53527c1.95247,0 3.53527,1.5828 3.53527,3.53527c0,1.95247 -1.5828,3.53527 -3.53527,3.53527c-1.95247,0 -3.53527,-1.5828 -3.53527,-3.53527z" fill="#ff8d39" stroke="none" stroke-width="0.5" stroke-linecap="butt"></path><g><path d="" data-paper-data="{&quot;index&quot;:null}" fill="none" stroke="#000000" stroke-width="1.5" stroke-linecap="round"></path><path d="M26.89846,153.90251c-5.63622,-34.12504 17.45853,-66.35791 51.58358,-71.99413c34.12504,-5.63622 66.35791,17.45853 71.99413,51.58358c5.63622,34.12504 -17.45853,66.35791 -51.58358,71.99413c-34.12504,5.63622 -66.35791,-17.45853 -71.99413,-51.58358z" fill="#205fa7" stroke="#000000" stroke-width="1.5" stroke-linecap="butt"></path><path d="M122.62335,78.61928l-43.30651,40.48099l-49.02295,-24.3983" fill="none" stroke="#e2ff00" stroke-width="7" stroke-linecap="round"></path><path d="M47.11538,150.57442l-5.43167,-32.88658l36.06066,12.49106l33.36623,-23.95787l5.43167,32.88658l-33.64782,27.47903z" fill="#edffff" stroke="#e2ff00" stroke-width="0" stroke-linecap="butt"></path><path d="M73.02413,136.75648c0,0 -0.72233,17.93584 -3.75441,18.43663c-0.76166,0.1258 -2.35235,-0.51227 -3.3809,-2.45949c-3.06597,-5.80438 -5.40921,-21.73833 -5.40921,-21.73833z" fill="#ff0000" stroke="none" stroke-width="0" stroke-linecap="butt"></path><path d="M95.36373,125.15093c0,0 2.90487,15.84119 1.86817,22.32318c-0.34779,2.17455 -1.64882,3.29022 -2.4105,3.41602c-3.03207,0.50079 -9.48342,-16.25022 -9.48342,-16.25022z" data-paper-data="{&quot;index&quot;:null}" fill="#ff0000" stroke="none" stroke-width="0" stroke-linecap="butt"></path><g fill="#d3d3d3" stroke="#000000" stroke-width="1" stroke-linecap="butt"><path d="M91.77459,197.57553l-13.69076,-24.59176l48.9836,-27.27023l13.69076,24.59176z"></path><path d="M72.58691,189.92471l-5.89927,-10.59646l13.99532,-7.7915l5.89927,10.59646z"></path><path d="M73.95787,206.97068l-5.23143,-9.39686l20.19324,-11.24201l5.23143,9.39686z"></path></g><path d="M114.56695,184.88653l-13.80208,-24.7917l7.99732,-4.45228l13.80208,24.7917z" fill="#a0a0a0" stroke="none" stroke-width="0" stroke-linecap="butt"></path><path d="M125.05209,178.78732l-13.35685,-23.99197l7.39752,-4.11835l13.35685,23.99197z" fill="#a0a0a0" stroke="none" stroke-width="0" stroke-linecap="butt"></path><path d="M102.94815,190.83116l-13.24553,-23.79203l7.39752,-4.11835l13.24553,23.79203z" fill="#a0a0a0" stroke="none" stroke-width="0" stroke-linecap="butt"></path></g><path d="" data-paper-data="{&quot;index&quot;:null}" fill="none" stroke="#000000" stroke-width="1.5" stroke-linecap="round"></path><path d="" data-paper-data="{&quot;index&quot;:null}" fill="none" stroke="#000000" stroke-width="1.5" stroke-linecap="round"></path><path d="" data-paper-data="{&quot;index&quot;:null}" fill="none" stroke="#000000" stroke-width="1.5" stroke-linecap="round"></path><path d="M417.11301,240.62903" data-paper-data="{&quot;index&quot;:null}" fill="none" stroke="#d8d8d8" stroke-width="4" stroke-linecap="round"></path><path d="M348.82746,275.16932c-30.57416,0 -55.35941,-24.78525 -55.35941,-55.35941c0,-30.57416 24.78525,-55.35941 55.35941,-55.35941c30.57416,0 55.35941,24.78525 55.35941,55.35941c0,30.57416 -24.78525,55.35941 -55.35941,55.35941z" fill="#d8d8d8" stroke="#000000" stroke-width="1.5" stroke-linecap="butt"></path><path d="M301.36562,252.11478c0,0 6.02326,-24.99729 24.30293,-24.99729c18.27968,0 24.76585,26.38604 24.76585,26.38604z" data-paper-data="{&quot;index&quot;:null}" fill="#000000" stroke="#000000" stroke-width="0" stroke-linecap="butt"></path><path d="M341.34587,206.88818l-24.04061,-8.50217" fill="none" stroke="#000000" stroke-width="1.5" stroke-linecap="round"></path><path d="M335.48231,208.94043l0.29318,9.96806" fill="none" stroke="#000000" stroke-width="1.5" stroke-linecap="round"></path><path d="M347.50262,204.83594l15.24527,-7.32946" fill="none" stroke="#000000" stroke-width="1.5" stroke-linecap="round"></path><path d="M350.43439,208.64725l-0.29318,9.38171" fill="none" stroke="#000000" stroke-width="1.5" stroke-linecap="round"></path><path d="M380.33856,192.52245c0,0 2.10811,9.35046 0.41997,11.33651c-1.6327,1.92082 -10.38805,0.39063 -10.38805,0.39063" fill="none" stroke="#ff0000" stroke-width="3" stroke-linecap="round"></path><path d="M402.32694,207.18136c0,0 -9.92507,0.56688 -12.07223,-1.44882c-2.56629,-2.40917 -2.29351,-12.03738 -2.29351,-12.03738" fill="none" stroke="#ff0000" stroke-width="3" stroke-linecap="round"></path><path d="M373.00912,210.40632c0,0 7.47409,0.04541 8.9981,1.52024c1.50529,1.45672 0.09043,7.27511 0.09043,7.27511" fill="none" stroke="#ff0000" stroke-width="3" stroke-linecap="round"></path><path d="M390.01345,223.30616c0,0 -2.41273,-8.43487 -0.73294,-10.11465c1.82612,-1.82612 11.28736,-0.43976 11.28736,-0.43976" fill="none" stroke="#ff0000" stroke-width="3" stroke-linecap="round"></path><g stroke="none" stroke-width="0" stroke-linecap="butt"><path d="M391.86412,200.96017l17.90245,-50.26554l8.83789,3.14768l-17.90245,50.26554z" fill="#b1b1b1"></path><path d="M381.39566,205.0122l3.04931,-8.56171l23.47566,8.36104l-3.04931,8.56171z" fill="#909090"></path><path d="M365.35016,146.07923l16.19242,-43.71657l45.89584,27.54999l-8.12267,25.42786z" fill="url(#color-1)"></path><path d="M384.05491,133.75678l2.75422,-7.73315l34.24685,12.19728l-2.75422,7.73315z" fill="#a9a9a9"></path></g><text transform="translate(25.334,251.15708) scale(0.5,0.5)" font-size="40" xml:space="preserve" fill="#000000" fill-rule="nonzero" stroke="none" stroke-width="1" stroke-linecap="butt" stroke-linejoin="miter" stroke-miterlimit="10" stroke-dasharray="" stroke-dashoffset="0" font-family="Sans Serif" font-weight="normal" text-anchor="start" style="mix-blend-mode: normal"><tspan x="0" dy="0">+ Secret Balls?</tspan></text><path d="M88.17201,307.44094c0,-21.81525 17.68475,-39.5 39.5,-39.5c21.81525,0 39.5,17.68475 39.5,39.5c0,21.81525 -17.68475,39.5 -39.5,39.5c-21.81525,0 -39.5,-17.68475 -39.5,-39.5z" fill="#000000" stroke="#000000" stroke-width="1.5" stroke-linecap="butt"></path><g fill="#000000" stroke="#000000"><path d="M49.17772,301.64829l2.0434,-6.00684l9.54027,3.24539l-2.0434,6.00684z" stroke-width="1" stroke-linecap="butt"></path><path d="M72.24437,315.90482c1.02614,-3.01646 4.30333,-4.62995 7.31981,-3.60383c3.01646,1.02614 4.62995,4.30333 3.60383,7.31981c-1.02614,3.01646 -4.30333,4.62995 -7.31981,3.60383c-3.01646,-1.02614 -4.62995,-4.30333 -3.60383,-7.31981z" stroke-width="0.5" stroke-linecap="butt"></path><path d="M78.0694,316.11718l-23.60813,-8.03096l3.36264,-11.04382l32.41847,11.02805l7.98577,3.75889l-10.76765,4.41885l-5.84878,17.19324l-9.51411,-3.2365l2.63714,-7.75225z" stroke-width="1" stroke-linecap="round"></path><path d="M69.77109,306.41574l1.79805,-5.28562l6.69512,2.27753l-1.79805,5.28562z" stroke-width="0" stroke-linecap="butt"></path><path d="M61.3187,302.94908l1.79805,-5.28562l6.69512,2.27753l-1.79805,5.28562z" stroke-width="0" stroke-linecap="butt"></path></g><path d="M111.40359,290.75501h12.87638" fill="#000000" stroke="#000000" stroke-width="1.5" stroke-linecap="round"></path><path d="M114.01619,291.87469v10.07717" fill="#000000" stroke="#000000" stroke-width="1.5" stroke-linecap="round"></path><path d="M141.63509,290.94162h-13.24961" fill="#000000" stroke="#000000" stroke-width="1.5" stroke-linecap="round"></path><path d="M129.29855,291.68808l-0.15196,10.63701" fill="#000000" stroke="#000000" stroke-width="1.5" stroke-linecap="round"></path><path d="M116.44217,313.33532l5.2252,-0.37323" fill="#000000" stroke="#000000" stroke-width="1.5" stroke-linecap="round"></path><g fill="#000000" stroke="#000000" stroke-linecap="butt"><path d="M163.79043,313.12918l12.5533,8.75082l-3.84183,5.51121l-12.5533,-8.75082z" stroke-width="1"></path><path d="M176.48205,319.24441c3.59343,-2.07988 4.41159,0.93173 4.08043,2.84444c-0.33116,1.91271 -6.08394,8.72758 -6.08394,8.72758l-4.08043,-2.84444c0,0 2.49051,-6.6477 6.08394,-8.72758z" stroke-width="0.5"></path><path d="M178.1808,323.16061l22.19791,15.47402l-7.42767,1.19169c0,0 -0.4674,-3.28307 -1.98063,-4.33794c-1.05481,-0.7353 -1.55037,1.30287 -3.92055,0.09641c-4.65837,-2.37118 -11.85714,-8.13768 -11.85714,-8.13768z" stroke-width="0.5"></path></g><path d="M51.00196,301.48612c-0.22644,0.09768 -0.46226,0.1782 -0.70635,0.243c-0.02547,0.16686 -0.07753,0.34624 -0.16296,0.53846c-0.71074,1.59917 -2.30991,0.88843 -2.30991,0.88843c-0.91781,-0.41705 -2.4594,-0.96661 -3.40619,-1.86307c-0.76594,-0.21081 -1.53598,-0.45828 -2.29277,-0.71993c-1.02237,0.4389 -1.74904,0.61935 -2.5903,0.58833v0.3455h-2.6v0c-0.9665,0 -1.75,-0.7835 -1.75,-1.75c0,-0.57307 0.27546,-1.08181 0.70119,-1.40102l-1.64037,-0.51827c-0.72843,-0.21165 -1.26082,-0.88401 -1.26082,-1.68071c0,-0.80542 0.54411,-1.48376 1.2848,-1.68749l1.96234,-0.5887l0.12304,0.41015c1.81446,-0.82833 3.93067,-1.53719 5.62021,-1.45851c-0.2229,-0.29368 -0.35518,-0.6599 -0.35518,-1.05703c0,-0.9665 0.7835,-1.75 1.75,-1.75c0.20574,0 0.40318,0.0355 0.58654,0.10071l1.09232,0.35997c0.20563,-0.73779 0.88256,-1.27911 1.68592,-1.27911c0.35038,0 0.67671,0.10297 0.95038,0.2803l1.57712,0.9857l-0.00753,0.01204c0.11041,0.07009 0.21649,0.1478 0.31747,0.23452c1.35642,1.16475 1.76502,2.08431 1.59098,2.87079c0.51872,0.1035 0.95473,0.43631 1.19785,0.88827l1.38084,2.45483c1.4015,0.18476 2.6528,0.76203 0.74231,2.46885c-0.02134,0.83992 -0.63448,1.53275 -1.43801,1.67707l-1.96821,0.39364l-0.00358,-0.0179c-0.02365,0.01052 -0.04736,0.0209 -0.07114,0.03116z" fill="#000000" stroke="#000000" stroke-width="0.5" stroke-linecap="butt"></path><path d="M50.3449,301.13166c-0.1277,0.05508 -0.26069,0.10049 -0.39834,0.13704c-0.01437,0.0941 -0.04372,0.19526 -0.0919,0.30366c-0.40082,0.90184 -1.30266,0.50102 -1.30266,0.50102c-0.51759,-0.2352 -1.38696,-0.54512 -1.9209,-1.05066c-0.43195,-0.11888 -0.86621,-0.25844 -1.29299,-0.406c-0.57656,0.24751 -0.98636,0.34928 -1.46078,0.33179v0.19484h-1.46625v0c-0.54505,0 -0.9869,-0.44185 -0.9869,-0.9869c0,-0.32318 0.15534,-0.61008 0.39543,-0.7901l-0.92508,-0.29227c-0.41079,-0.11936 -0.71103,-0.49853 -0.71103,-0.94783c0,-0.45421 0.30684,-0.83675 0.72455,-0.95165l1.10665,-0.332l0.06939,0.2313c1.02325,-0.46713 2.21667,-0.86689 3.16948,-0.82251c-0.1257,-0.16562 -0.2003,-0.37215 -0.2003,-0.5961c0,-0.54505 0.44185,-0.9869 0.9869,-0.9869c0.11602,0 0.22737,0.02002 0.33078,0.05679l0.61601,0.20301c0.11597,-0.41607 0.49771,-0.72135 0.95076,-0.72135c0.19759,0 0.38162,0.05807 0.53596,0.15808l0.88941,0.55588l-0.00424,0.00679c0.06226,0.03952 0.12209,0.08335 0.17903,0.13225c0.76495,0.65686 0.99537,1.17543 0.89723,1.61896c0.29253,0.05837 0.53841,0.24605 0.67552,0.50093l0.77872,1.38439c0.79037,0.1042 1.49603,0.42974 0.41862,1.39229c-0.01204,0.47367 -0.35782,0.86438 -0.81096,0.94577l-1.10996,0.22199l-0.00202,-0.01009c-0.01333,0.00593 -0.02671,0.01179 -0.04012,0.01758z" fill="#000000" stroke="#000000" stroke-width="0.5" stroke-linecap="butt"></path><g fill="#000000"><path d="M239.37105,283.13583c0,7.15087 -2.77459,12.9478 -6.19723,12.9478c-3.42264,0 -3.31995,-5.13294 -3.31995,-12.28381c0,-7.15087 -12.49716,-12.50513 -9.07452,-12.50513c2.07506,0 10.23841,-1.15328 14.95066,1.79785c3.0602,1.91651 3.64104,7.22782 3.64104,10.04329z" data-paper-data="{&quot;index&quot;:null}" stroke="none" stroke-width="NaN" stroke-linecap="butt"></path><path d="M244.39253,282.42345c0,9.61954 -3.73246,17.41771 -8.33668,17.41771c-4.60422,0 -4.46608,-6.90496 -4.46608,-16.5245c0,-9.61954 -16.81151,-16.82224 -12.20729,-16.82224c2.79143,0 13.77298,-1.55142 20.11203,2.41852c4.11666,2.57813 4.89802,9.72306 4.89802,13.5105z" stroke="none" stroke-width="NaN" stroke-linecap="butt"></path><path d="" data-paper-data="{&quot;index&quot;:null}" stroke="#000000" stroke-width="1.5" stroke-linecap="round"></path><path d="" data-paper-data="{&quot;index&quot;:null}" stroke="#000000" stroke-width="1.5" stroke-linecap="round"></path><path d="" data-paper-data="{&quot;index&quot;:null}" stroke="#000000" stroke-width="1.5" stroke-linecap="round"></path><path d="" data-paper-data="{&quot;index&quot;:null}" stroke="#000000" stroke-width="1.5" stroke-linecap="round"></path><path d="M199.51969,313.32283c0,-21.81525 17.68475,-39.5 39.5,-39.5c21.81525,0 39.5,17.68475 39.5,39.5c0,21.81525 -17.68475,39.5 -39.5,39.5c-21.81525,0 -39.5,-17.68475 -39.5,-39.5z" stroke="#000000" stroke-width="1.5" stroke-linecap="butt"></path><path d="M244.04029,326.15008c0,0 -7.21184,9.56453 -13.36084,7.69937c-6.149,-1.86516 -7.66537,-12.94446 -7.66537,-12.94446z" data-paper-data="{&quot;index&quot;:null}" stroke="#000000" stroke-width="1.5" stroke-linecap="butt"></path><path d="M219.93503,312.76308c0,0 4.27006,-12.75463 7.66142,-12.69297c3.45015,0.06273 6.89449,12.31974 6.89449,12.31974" stroke="#000000" stroke-width="1.5" stroke-linecap="round"></path><path d="M238.74448,314.0308c0,0 4.27006,-12.75463 7.66142,-12.69297c3.45015,0.06273 6.89448,12.31974 6.89448,12.31974" stroke="#000000" stroke-width="1.5" stroke-linecap="round"></path><path d="M225.76252,330.31417l2.35609,-8.83534l5.77002,1.53867l-2.35609,8.83534z" stroke="#000000" stroke-width="0" stroke-linecap="butt"></path><path d="M232.62866,332.10611l2.35609,-8.83535l5.77002,1.53867l-2.3561,8.83535z" stroke="#000000" stroke-width="0" stroke-linecap="butt"></path><path d="M262.70093,276.48147c6.33904,-3.96994 17.3206,-2.41852 20.11203,-2.41852c4.60422,0 -12.20729,7.20269 -12.20729,16.82223c0,9.61954 0.13815,16.5245 -4.46608,16.5245c-4.60422,0 -8.33668,-7.79818 -8.33668,-17.41772c0,-3.78744 0.78137,-10.93236 4.89802,-13.51049z" data-paper-data="{&quot;index&quot;:null}" stroke="none" stroke-width="NaN" stroke-linecap="butt"></path><path d="M266.44395,280.78418c4.71225,-2.95114 12.8756,-1.79786 14.95066,-1.79786c3.42264,0 -9.07452,5.35426 -9.07452,12.50513c0,7.15087 0.10269,12.28381 -3.31995,12.28381c-3.42264,0 -6.19724,-5.79692 -6.19724,-12.94779c0,-2.81547 0.58085,-8.12678 3.64104,-10.04329z" data-paper-data="{&quot;index&quot;:null}" stroke="none" stroke-width="NaN" stroke-linecap="butt"></path></g></g></g></svg>