<svg version="1.1" xmlns="http://www.w3.org/2000/svg" xmlns:xlink="http://www.w3.org/1999/xlink" width="227.28988" height="134.95821" viewBox="0,0,227.28988,134.95821"><g transform="translate(-91.80527,-82.89189)"><g data-paper-data="{&quot;isPaintingLayer&quot;:true}" fill-rule="nonzero" stroke-linejoin="miter" stroke-miterlimit="10" stroke-dasharray="" stroke-dashoffset="0" style="mix-blend-mode: normal"><path d="" data-paper-data="{&quot;index&quot;:null}" fill="none" stroke="#000000" stroke-width="1.5" stroke-linecap="round"></path><path d="" data-paper-data="{&quot;index&quot;:null}" fill="none" stroke="#000000" stroke-width="1.5" stroke-linecap="round"></path><path d="" data-paper-data="{&quot;index&quot;:null}" fill="none" stroke="#000000" stroke-width="1.5" stroke-linecap="round"></path><path d="" data-paper-data="{&quot;index&quot;:null}" fill="none" stroke="#000000" stroke-width="1.5" stroke-linecap="round"></path><path d="" data-paper-data="{&quot;index&quot;:null}" fill="none" stroke="#000000" stroke-width="1.5" stroke-linecap="round"></path><path d="M319.09515,206.33008" data-paper-data="{&quot;index&quot;:null}" fill="none" stroke="#d8d8d8" stroke-width="4" stroke-linecap="round"></path><path d="M289.92393,195.47557" data-paper-data="{&quot;index&quot;:null}" fill="none" stroke="#d8d8d8" stroke-width="4" stroke-linecap="round"></path><path d="M289.92393,195.47557" data-paper-data="{&quot;index&quot;:null}" fill="none" stroke="#d8d8d8" stroke-width="4" stroke-linecap="round"></path><g><path d="M292.52151,194.63962" data-paper-data="{&quot;index&quot;:null}" fill="none" stroke="#d8d8d8" stroke-width="4" stroke-linecap="round"></path><path d="M243.33516,176.33756" data-paper-data="{&quot;index&quot;:null}" fill="none" stroke="#d8d8d8" stroke-width="4" stroke-linecap="round"></path><path d="M243.33516,176.33756" data-paper-data="{&quot;index&quot;:null}" fill="none" stroke="#d8d8d8" stroke-width="4" stroke-linecap="round"></path><path d="M159.1572,216.84575c-36.78325,0 -66.60193,-29.8187 -66.60193,-66.60193c0,-36.78325 29.8187,-66.60193 66.60193,-66.60193c36.78325,0 66.60193,29.8187 66.60193,66.60193c0,36.78325 -29.8187,66.60193 -66.60193,66.60193z" fill="#d8d8d8" stroke="#000000" stroke-width="1.5" stroke-linecap="butt"></path><g><path d="M98.81324,200.86963l0.12297,-88.15508l45.03701,-27.47764l31.52964,-1.26749l42.57045,23.46838l1.84154,109.08039l-51.05199,-14.57522l-6.57203,-39.99406l-8.43877,-4.51746l-8.94645,4.5513l-0.04202,37.65828l-46.46406,15.19151z" fill="#c3c3c3" stroke="#000000" stroke-width="2" stroke-linecap="round"></path><path d="M102.51384,147.74191l-0.41194,-19.21956l44.72123,5.19454l0.44488,20.75714z" fill="#c20000" stroke="none" stroke-width="0" stroke-linecap="butt"></path><path d="M164.03535,154.49739l-0.47402,-20.75647l44.44756,-7.16836l0.43891,19.21896z" data-paper-data="{&quot;index&quot;:null}" fill="#c20000" stroke="none" stroke-width="0" stroke-linecap="butt"></path></g><g stroke="#000000" stroke-linecap="butt"><path d="M174.53399,158.97902c0,0 5.05451,3.44254 8.15418,2.66322c1.81917,-0.45738 1.59612,14.57791 5.23725,14.77406c8.57396,0.46185 22.87078,-12.92957 22.87078,-12.92957l3.37695,13.43142c0,0 -26.04885,14.08619 -40.78894,7.4154c-2.84887,-1.28926 -1.85954,-18.50972 -1.85954,-18.50972z" data-paper-data="{&quot;index&quot;:null}" fill="#a7a7a7" stroke-width="0"></path><path d="M217.29961,191.10141c0,0 -5.73917,-11.62349 -8.71183,-10.8761c-4.59361,1.15494 -18.03224,4.5337 -23.60202,5.93406c0.33625,-2.19108 0.24331,-4.4849 -0.34618,-6.76712c-0.63887,-2.47337 -1.79459,-4.67625 -3.32166,-6.52279c6.23592,-3.02849 25.37851,-11.38105 37.08432,-6.08349c2.73211,1.23642 1.78334,17.75113 1.78334,17.75113l-2.886,6.56432z" fill="#919191" stroke-width="1"></path><path d="M186.80725,184.11471l-64.15553,14.55863c0,0 -4.9779,0.20482 -5.38617,-1.37575c-0.45883,-1.77643 3.33093,-4.63348 3.33093,-4.63348l63.59173,-18.68917z" fill="#d2d2d2" stroke-width="0.5"></path></g></g></g></g></svg>