<svg version="1.1" xmlns="http://www.w3.org/2000/svg" xmlns:xlink="http://www.w3.org/1999/xlink" width="600.8812" height="453.73367" viewBox="0,0,600.8812,453.73367"><defs><radialGradient cx="315.43878" cy="189.16666" r="73.06122" gradientUnits="userSpaceOnUse" id="color-1"><stop offset="0" stop-color="#383838"></stop><stop offset="1" stop-color="#000000"></stop></radialGradient></defs><g transform="translate(60.4406,46.86683)"><g data-paper-data="{&quot;isPaintingLayer&quot;:true}" fill-rule="nonzero" stroke-linejoin="miter" stroke-miterlimit="10" stroke-dasharray="" stroke-dashoffset="0" style="mix-blend-mode: normal"><path d="M-60.4406,406.86684v-453.73367h600.8812v453.73367z" fill="#000000" stroke="none" stroke-width="NaN" stroke-linecap="butt"></path><path d="M62.5,186.16666c0,-8.28427 6.71573,-15 15,-15c8.28427,0 15,6.71573 15,15c0,8.28427 -6.71573,15 -15,15c-8.28427,0 -15,-6.71573 -15,-15z" fill="#c8c8c8" stroke="#ffffff" stroke-width="1.5" stroke-linecap="butt"></path><path d="M301.15306,185.49319l87.34694,-53.87755l-71.83673,49.79592l35.91837,5.71429l-35.91837,10.61224l8.97959,12.2449l-25.30612,22.85714l-0.81633,-26.93878l-57.14286,43.26531l17.95918,-44.08163l-15.5102,-4.89796l22.85714,-9.79592l-20.40816,-6.53061l13.06122,-41.63265l32.65306,24.4898l15.5102,-26.12245l-6.53061,-10.61224l11.42857,9.79592l-4.89796,-10.61224l9.79592,2.44898v30.20408z" fill="url(#color-1)" stroke="#ffffff" stroke-width="1.5" stroke-linecap="round"></path></g></g></svg>