<svg version="1.1" xmlns="http://www.w3.org/2000/svg" xmlns:xlink="http://www.w3.org/1999/xlink" width="147.33251" height="217.14765" viewBox="0,0,147.33251,217.14765"><defs><linearGradient x1="240" y1="140.5" x2="240" y2="219.50004" gradientUnits="userSpaceOnUse" id="color-1"><stop offset="0" stop-color="#1fa65f"/><stop offset="1" stop-color="#44923a"/></linearGradient><linearGradient x1="239.01851" y1="157.12267" x2="239.01851" y2="186.94708" gradientUnits="userSpaceOnUse" id="color-2"><stop offset="0" stop-color="#a7a7a7"/><stop offset="1" stop-color="#464646"/></linearGradient><linearGradient x1="238.93753" y1="188.56965" x2="240.36147" y2="204.28471" gradientUnits="userSpaceOnUse" id="color-3"><stop offset="0" stop-color="#00f551"/><stop offset="1" stop-color="#5e6500"/></linearGradient><linearGradient x1="236.23958" y1="150.63581" x2="236.23958" y2="160.79074" gradientUnits="userSpaceOnUse" id="color-4"><stop offset="0" stop-color="#1cff00"/><stop offset="1" stop-color="#57d000"/></linearGradient><linearGradient x1="209.57874" y1="171.9005" x2="272.43809" y2="171.9005" gradientUnits="userSpaceOnUse" id="color-5"><stop offset="0" stop-color="#bababa" stop-opacity="0"/><stop offset="1" stop-color="#bababa"/></linearGradient><linearGradient x1="209.76259" y1="171.75597" x2="272.62192" y2="171.75597" gradientUnits="userSpaceOnUse" id="color-6"><stop offset="0" stop-color="#cfcfcf" stop-opacity="0"/><stop offset="1" stop-color="#cfcfcf"/></linearGradient><linearGradient x1="209.61806" y1="171.83035" x2="272.4774" y2="171.83035" gradientUnits="userSpaceOnUse" id="color-7"><stop offset="0" stop-color="#f5f5f5" stop-opacity="0"/><stop offset="1" stop-color="#f5f5f5"/></linearGradient><linearGradient x1="209.61806" y1="171.83035" x2="272.4774" y2="171.83035" gradientUnits="userSpaceOnUse" id="color-8"><stop offset="0" stop-color="#f5f5f5" stop-opacity="0"/><stop offset="1" stop-color="#f5f5f5"/></linearGradient><linearGradient x1="233.13845" y1="93.42821" x2="233.13845" y2="120.4436" gradientUnits="userSpaceOnUse" id="color-9"><stop offset="0" stop-color="#1fa65f"/><stop offset="1" stop-color="#44923a"/></linearGradient></defs><g transform="translate(-160.36825,-3.10238)"><g stroke-miterlimit="10"><path d="" fill="none" stroke="#000000" stroke-width="1.5" stroke-linecap="round"/><path d="" fill="none" stroke="#000000" stroke-width="1.5" stroke-linecap="round"/><path d="" fill="none" stroke="#000000" stroke-width="1.5" stroke-linecap="round"/><path d="M200.5,180.00004c0,-21.81525 17.68475,-39.5 39.5,-39.5c21.81525,0 39.5,17.68475 39.5,39.5c0,21.81525 -17.68475,39.5 -39.5,39.5c-21.81525,0 -39.5,-17.68475 -39.5,-39.5z" fill="url(#color-1)" stroke="#000000" stroke-width="1.5" stroke-linecap="butt"/><path d="" fill="none" stroke="#000000" stroke-width="1.5" stroke-linecap="round"/><path d="" fill="none" stroke="#000000" stroke-width="1.5" stroke-linecap="round"/><path d="M204.57874,173.58315c0,0 1.42312,-5.99438 2.35921,-8.60991c0.91024,-2.54331 4.64871,-6.70973 4.64871,-6.70973l24.12028,6.84494l28.84655,-7.98577c0,0 5.05222,1.62975 6.19305,4.23735c0.61179,1.39837 2.71058,4.88132 2.71174,7.65978c0.001,2.40265 -1.89687,6.19309 -1.89687,6.19309l-31.94308,11.73419l-4.07437,-9.45254l-3.58545,8.96362z" fill="url(#color-2)" stroke="#000000" stroke-width="1.5" stroke-linecap="round"/><g stroke="#000000" stroke-linecap="butt"><path d="M263.70901,206.2122l-18.44131,0.63692l-9.31252,0.32163l-12.51589,0.43227l-9.30668,0.32143l-9.95629,0.34387l-2.7259,0.09415l-5.60725,-21.01963l5.49457,0.17378l14.83604,0.46921l7.79782,0.24661l13.57686,0.42938l11.73498,0.37113l14.64185,0.46305l18.13136,0.57341l-0.8459,15.53834z" fill="#727272" stroke-width="0.8"/><path d="M261.42743,203.27673l-16.83461,0.61113l-8.50117,0.3086l-11.42543,0.41477l-8.49582,0.3084l-9.08886,0.32995l-2.48838,0.09033l-4.74835,-15.0945l5.00949,0.07979l13.52634,0.21543l7.10943,0.11321l12.37831,0.19714l10.69901,0.1704l13.34925,0.2126l16.53074,0.26327l-1.04299,11.19955z" fill="url(#color-3)" stroke-width="0.8"/><path d="M263.709,206.21221l-18.44131,0.63692l4.01577,-17.81619l14.64184,0.46306z" fill="#727272" stroke-width="0.8"/><path d="M235.95518,207.17076l-12.51589,0.43227l0.53232,-19.3706l13.57686,0.42938z" fill="#727272" stroke-width="0.8"/><path d="M216.71766,207.88836l-9.95629,0.34387l-2.83858,-20.75171l14.83605,0.46921z" fill="#727272" stroke-width="0.5"/></g><path d="M247.36168,139.99729c0,0 -4.14768,3.28136 -2.48698,4.23118c4.80572,2.74857 16.36696,7.76083 12.82655,8.88733c-5.7043,1.81501 -22.18701,7.67496 -22.18701,7.67496c0,0 -19.16003,-4.99809 -21.72921,-9.34912c-1.6435,-2.78335 8.32677,-4.7438 11.94153,-7.41915c1.70476,-1.26173 -1.5762,-4.75055 -1.5762,-4.75055" fill="none" stroke="url(#color-4)" stroke-width="6" stroke-linecap="round"/><path d="M218.10574,170.22035v-5.93739l1.93428,1.29417v4.64323z" fill="#1cff00" stroke="#1cff00" stroke-width="1" stroke-linecap="butt"/><path d="M221.50707,170.50047v-4.11034l1.93428,1.44642v2.66392z" fill="#1cff00" stroke="#1cff00" stroke-width="1" stroke-linecap="butt"/><path d="M218.13308,176.03336v-4.11033h1.93428v4.11033z" fill="#1cff00" stroke="#1cff00" stroke-width="1" stroke-linecap="butt"/><path d="M221.53441,176.08509v-4.11033h1.93428v4.11033z" fill="#1cff00" stroke="#1cff00" stroke-width="1" stroke-linecap="butt"/><path d="M235.68766,166.01727l28.62393,-7.72563c0,0 4.61064,1.48731 5.65176,3.867c0.55832,1.27615 2.47367,4.45468 2.47473,6.9903c0.00092,2.19266 -1.73108,5.6518 -1.73108,5.6518l-30.57415,11.25589l-4.37501,-10.26825z" fill="url(#color-5)" stroke="none" stroke-width="0" stroke-linecap="round"/><path d="M235.87151,165.87275l28.62393,-7.72564c0,0 4.61065,1.48731 5.65177,3.867c0.55832,1.27615 2.47367,4.45468 2.47473,6.9903c0.00092,2.19266 -1.73108,5.6518 -1.73108,5.6518l-30.57415,11.25589l-4.74837,-9.71395l-3.78606,8.85911l-19.89182,-25.66449z" fill="url(#color-6)" stroke="none" stroke-width="0" stroke-linecap="round"/><path d="M235.72698,165.94708l28.62393,-7.72563c0,0 4.61065,1.48731 5.65177,3.867c0.55832,1.27615 2.47367,4.45468 2.47473,6.9903c0.00092,2.19266 -1.73108,5.65181 -1.73108,5.65181l-30.57416,11.25589l-4.74837,-9.71395l-3.78606,8.85911l-25.5304,-11.77696c0,0 0.69159,-6.0249 1.68835,-8.47986c0.86362,-2.12704 3.95023,-5.40767 3.95023,-5.40767z" fill="url(#color-7)" stroke="none" stroke-width="0" stroke-linecap="round"/><path d="M235.72698,165.94708l28.62393,-7.72563c0,0 4.61065,1.48731 5.65177,3.867c0.55832,1.27615 2.47367,4.45468 2.47473,6.9903c0.00092,2.19266 -1.73108,5.65181 -1.73108,5.65181l-30.57416,11.25589l-4.74837,-9.71395l-3.78606,8.85911l-25.5304,-11.77696c0,0 0.69159,-6.0249 1.68835,-8.47986c0.86362,-2.12704 3.95023,-5.40767 3.95023,-5.40767z" fill="url(#color-8)" stroke="none" stroke-width="0" stroke-linecap="round"/><path d="" fill="none" stroke="#000000" stroke-width="1.5" stroke-linecap="round"/><path d="" fill="none" stroke="#000000" stroke-width="1.5" stroke-linecap="round"/><path d="" fill="none" stroke="#000000" stroke-width="1.5" stroke-linecap="round"/><g stroke-linecap="round"><path d="M235.45653,89.57136l12.0741,-2.14984l-7.65082,3.65257l23.22714,0.80167l-19.26438,3.25173l9.19927,2.73573l-15.5482,-1.0559l-2.65364,19.37285l-8.74235,-17.9859l-14.13573,4.21502l7.51483,-4.76994l-18.77663,0.92453l19.01958,-5.263l-7.51663,-1.5798l13.37693,-0.9477l-2.21719,-34.956l2.33539,6.5193l-0.68266,-15.11147l3.72159,14.74161l0.32364,-6.84291z" fill="#ffeaea" stroke="#ff1f1f" stroke-width="9"/><path d="M234.94911,90.03695l12.0741,-2.14984l-7.65083,3.65256l23.22714,0.80168l-19.26438,3.25173l9.19926,2.73573l-15.5482,-1.0559l-2.65364,19.37285l-8.74235,-17.98591l-14.13573,4.21503l7.51483,-4.76994l-18.77663,0.92453l19.01959,-5.263l-7.51663,-1.5798l13.37693,-0.94769l-2.21719,-34.956l2.33538,6.51929l-0.68266,-15.11147l3.72159,14.74161l0.32364,-6.84291z" fill="#ffeaea" stroke="#ff6c6c" stroke-width="6.5"/><path d="M234.44171,90.50254l12.0741,-2.14983l-7.65082,3.65256l23.22714,0.80168l-19.26438,3.25173l9.19926,2.73572l-15.5482,-1.0559l-2.65363,19.37286l-8.74235,-17.98591l-14.13574,4.21504l7.51483,-4.76995l-18.77663,0.92453l19.01958,-5.26299l-7.51663,-1.57979l13.37693,-0.94771l-2.21719,-34.956l2.33539,6.5193l-0.68266,-15.11147l3.72158,14.74162l0.32364,-6.84291z" fill="#ffeaea" stroke="#ff8484" stroke-width="5"/><path d="M235.20466,92.21977l12.0741,-2.14984l-7.65082,3.65256l23.22714,0.8017l-19.26436,3.2517l9.19927,2.73573l-15.54823,-1.05587l-2.65363,19.37286l-8.74235,-17.98591l-14.13573,4.21502l7.51482,-4.76995l-18.77663,0.92453l19.01959,-5.263l-7.51663,-1.57979l13.37693,-0.94769l-2.21718,-34.95601l2.33539,6.5193l-0.68266,-15.11147l3.72159,14.74161l0.32364,-6.84291z" fill="#ffeaea" stroke="#ffa4a4" stroke-width="3.5"/><path d="M235.82519,92.76696l12.0741,-2.14984l-7.65082,3.65257l23.22714,0.8017l-19.26439,3.2517l9.19927,2.73573l-15.54822,-1.05588l-2.65363,19.37286l-8.74235,-17.98591l-14.13574,4.21503l7.51484,-4.76994l-18.77663,0.92453l19.01958,-5.26299l-7.51663,-1.5798l13.37693,-0.9477l-2.21719,-34.95601l2.33539,6.5193l-0.68266,-15.11147l3.72158,14.74162l0.32364,-6.84291z" fill="#ffeaea" stroke="#ffcdcd" stroke-width="2"/><path d="M235.94856,93.37466l12.0741,-2.14984l-7.65082,3.65257l23.22714,0.80168l-19.26439,3.2517l9.19927,2.73574l-15.54822,-1.0559l-2.65361,19.37286l-8.74239,-17.98591l-14.13573,4.21502l7.51483,-4.76993l-18.77663,0.92453l19.01958,-5.263l-7.51663,-1.57981l13.3769,-0.94769l-2.21719,-34.95601l2.3354,6.5193l-0.68265,-15.11147l3.72158,14.74162l0.32367,-6.84292z" fill="#ffffff" stroke="#ffffff" stroke-width="0.5"/></g><path d="M219.63076,106.93591c0,-7.46009 6.0476,-13.50769 13.50769,-13.50769c7.46009,0 13.50769,6.0476 13.50769,13.50769c0,7.46009 -6.0476,13.50769 -13.50769,13.50769c-7.46009,0 -13.50769,-6.0476 -13.50769,-13.50769z" fill="url(#color-9)" stroke="#000000" stroke-width="1.5" stroke-linecap="butt"/></g></g></svg>