<svg version="1.1" xmlns="http://www.w3.org/2000/svg" xmlns:xlink="http://www.w3.org/1999/xlink" width="304.07789" height="167.32504" viewBox="0,0,304.07789,167.32504"><defs><linearGradient x1="-23.85039" y1="190.51045" x2="243.92893" y2="190.51045" gradientUnits="userSpaceOnUse" id="color-1"><stop offset="0" stop-color="#e7ff00"></stop><stop offset="1" stop-color="#e7ff00" stop-opacity="0"></stop></linearGradient></defs><g transform="translate(23.85037,-106.84796)"><g data-paper-data="{&quot;isPaintingLayer&quot;:true}" fill-rule="nonzero" stroke-linejoin="miter" stroke-miterlimit="10" stroke-dasharray="" stroke-dashoffset="0" style="mix-blend-mode: normal"><path d="" data-paper-data="{&quot;index&quot;:null}" fill="none" stroke="#000000" stroke-width="1.5" stroke-linecap="round"></path><path d="M201.5739,189.01424c-5.12497,-21.20471 7.91024,-42.54913 29.11495,-47.6741c21.20471,-5.12497 42.54913,7.91024 47.6741,29.11495c5.12497,21.20471 -7.91024,42.54913 -29.11495,47.6741c-21.20471,5.12497 -42.54913,-7.91024 -47.6741,-29.11495z" fill="#d8d8d8" stroke="#000000" stroke-width="1.5" stroke-linecap="butt"></path><path d="M225.57244,167.57029l2.53254,9.49095" fill="none" stroke="#000000" stroke-width="1.5" stroke-linecap="round"></path><path d="M240.63953,173.95729l-2.53254,-9.49095" fill="none" stroke="#000000" stroke-width="1.5" stroke-linecap="round"></path><path d="M232.45506,193.17269l10.64977,-2.57394" fill="none" stroke="#000000" stroke-width="1.5" stroke-linecap="round"></path><path d="M199.33459,189.36509c-4.7886,-19.81297 7.39106,-39.75649 27.20404,-44.54508c19.81297,-4.7886 39.75649,7.39106 44.54508,27.20404c4.7886,19.81297 -7.39106,39.75649 -27.20404,44.54508c-19.81297,4.7886 -39.75649,-7.39106 -44.54508,-27.20404z" fill="#8900b2" stroke="#000000" stroke-width="1" stroke-linecap="butt"></path><path d="M267.3607,163.54986l-2.79921,-3.98454l5.31273,-3.73228l2.79921,3.98454z" fill="#000000" stroke="#000000" stroke-width="1" stroke-linecap="butt"></path><path d="M270.82969,191.91569l2.04527,-4.64179l5.19879,2.29071l-2.04527,4.64179z" fill="#000000" stroke="#000000" stroke-width="1" stroke-linecap="butt"></path><path d="M213.41137,205.765l1.71076,-5.45661l38.5197,-8.26722l-7.17846,-30.06418l-33.33182,3.3942l-6.64516,-2.45266l5.25968,-5.97214l42.65505,-4.2559l10.52754,44.4217l-45.42737,11.40709z" fill="#e7ff00" stroke="#000000" stroke-width="0" stroke-linecap="butt"></path><path d="M208.11446,181.41153l13.87437,0.40399l-6.85444,10.04215" fill="none" stroke="#e7ff00" stroke-width="3" stroke-linecap="round"></path><path d="M219.77706,183.42974l-12.40328,6.5463" fill="none" stroke="#e7ff00" stroke-width="3" stroke-linecap="round"></path><path d="M241.89128,169.86966l-12.40329,6.5463" fill="none" stroke="#e7ff00" stroke-width="3" stroke-linecap="round"></path><path d="M241.122,179.24007l-13.87437,-0.40399l6.85444,-10.04215" data-paper-data="{&quot;index&quot;:null}" fill="none" stroke="#e7ff00" stroke-width="3" stroke-linecap="round"></path><path d="M148.25526,150.93337c0.04156,-0.49827 0.53983,-0.45671 0.53983,-0.45671l0.43782,0.04319c2.68708,0.67622 5.65705,0.76422 8.46178,1.27067c2.40979,-0.24872 5.03889,-0.41893 7.29589,0.02239c0.04642,-0.00519 0.09286,-0.01018 0.13931,-0.01497l0.00533,-0.09501l0.99843,0.05597c0.27571,0.01546 0.48669,0.2515 0.47123,0.5272c-0.01483,0.26458 -0.2328,0.46956 -0.49403,0.47201l-0.6513,0.01238c-0.92647,0.0763 -1.84906,0.24844 -2.76699,0.45193l0.23704,0.07872c0.21466,0.06598 0.36504,0.27162 0.35191,0.50592c-0.01546,0.27571 -0.2515,0.48669 -0.5272,0.47123l-0.69378,-0.03889c-0.02295,-0.00129 -0.04589,-0.00255 -0.0688,-0.0038c2.38074,0.47509 4.6274,1.27015 6.51638,2.6419l0.04919,-0.08941l0.86645,0.47668c0.16865,0.0881 0.27926,0.26907 0.26791,0.47141c-0.01538,0.27434 -0.24916,0.48459 -0.5231,0.47144l-0.93386,-0.04355c-3.6585,-0.15415 -7.25824,-0.30641 -10.85935,-0.59508c-4.5739,1.09279 -9.17905,1.57464 -13.90632,2.02403c-6.98522,0.66403 -13.68361,0.63942 -20.67762,0.12991c3.1288,0.51126 6.22104,1.14136 9.34128,1.80026c1.94998,0.41177 3.98737,0.66199 5.84495,1.36085l0.02559,-0.12118l0.97085,0.20501c0.24168,0.04682 0.41765,0.26616 0.40348,0.5188c-0.01546,0.27571 -0.2515,0.48669 -0.5272,0.47123l-0.98002,-0.05494c-1.93466,0.08261 -3.85938,0.04162 -5.79522,0.00874c-2.49074,0.09482 -5.0477,0.0897 -7.6196,-0.00254c0.01002,0.04435 0.01411,0.0908 0.01144,0.13845c-0.01201,0.21418 -0.15713,0.38931 -0.35056,0.44955l-0.78718,0.2653l-0.00269,-0.00799l-0.02399,0.01617c-1.99152,0.43318 -3.97725,0.67112 -5.99997,0.91298c-4.63957,0.55476 -9.24479,1.03969 -13.87947,1.21427c0.2964,0.02245 0.59278,0.04515 0.88914,0.06814c2.07452,0.16092 3.97872,0.08836 5.77777,0.83504l0.0572,-0.15517l0.92767,0.34198c0.20661,0.07078 0.3497,0.27225 0.33688,0.50104c-0.01409,0.25125 -0.21135,0.44874 -0.45489,0.47011l-0.98648,0.10387l-0.00009,-0.00085l-0.00314,0.00118c-2.9931,0.27594 -5.98865,0.48506 -8.98708,0.69434c-6.98611,0.4876 -13.97444,0.87664 -20.96542,1.2865c-4.65945,0.27317 -9.32191,0.49961 -13.98283,0.74674c-0.28706,0.01522 -0.6231,0.05342 -0.98712,0.09866c1.47156,0.20782 2.94608,0.39212 4.43401,0.544c4.61711,0.4713 9.25703,0.65335 13.89014,0.92035c1.15843,0.06676 3.3171,-0.17443 4.61537,0.30467c0.1485,-0.00127 0.29699,-0.00253 0.44549,-0.00378l0.00085,-0.00421l0.05973,0.01203l0.00004,-0.00023l0.9134,0.18427c0.24379,0.04512 0.42183,0.26551 0.40759,0.51958c-0.01546,0.27571 -0.2515,0.48669 -0.5272,0.47123c-0.02709,-0.00152 -0.05355,-0.00517 -0.07924,-0.01077l-0.87447,-0.17619c-0.34422,0.00478 -0.68844,0.00913 -1.03266,0.01314c-1.31375,0.07162 -2.6588,0.07749 -4.01885,0.03704c-0.26209,0.00213 -0.52418,0.00427 -0.78626,0.00646c-6.9528,0.05814 -13.89042,0.55875 -20.86025,0.39628c-2.3232,-0.29689 -4.64613,-0.59584 -6.96908,-0.89467c-0.76365,-0.09824 -2.08618,0.01838 -2.69291,-0.58113c-0.93603,-0.92491 -0.6359,-1.90876 -0.57182,-3.05181c0.13966,-2.49112 0.27989,-4.98221 0.41737,-7.47346c0.21576,-3.90992 0.45947,-7.77352 -0.27893,-11.63938c-0.22855,-1.19658 -1.35828,-4.16904 -0.71306,-5.28809c0.59767,-1.03658 3.06087,-0.08706 3.98733,-0.03595c4.0899,0.22929 8.42696,0.29875 12.63041,0.85728c-0.06582,-0.09009 -0.10204,-0.20264 -0.09531,-0.32273c0.0145,-0.25867 0.22316,-0.46036 0.47658,-0.47154l0.99218,-0.05723c1.39474,-0.07714 2.80736,0.13124 4.20644,0.36099c-0.10443,-0.05933 -0.2078,-0.11985 -0.31007,-0.1816l-0.03382,0.08473l-0.89421,-0.35688c-0.19998,-0.07444 -0.33718,-0.27242 -0.3246,-0.49665c0.01546,-0.27571 0.2515,-0.48669 0.5272,-0.47123c0.00494,0.00028 0.00986,0.00062 0.01475,0.00104l0.79293,0.06474l-0.0006,0.00739l0.02197,-0.00518c2.59683,0.43757 5.18979,0.89071 7.78109,1.35989c6.81435,0.87436 13.61735,1.81939 20.44749,2.61035c6.87682,0.79636 13.95494,1.54501 20.88008,1.64699c6.92674,0.10352 13.92053,-0.39793 20.83106,-0.01052c1.83836,0.10306 3.67328,0.19933 5.50414,0.31802c-0.00646,-0.04299 -0.00811,-0.0906 -0.00371,-0.14332zM148.86632,154.05238c-0.09469,-0.49095 0.39627,-0.58564 0.39627,-0.58564l0.29088,-0.05015c-2.72846,-0.0523 -5.48013,0.08326 -7.94149,0.03823c-2.1439,-0.03922 -4.284,0.02012 -6.42146,0.0654c0.26294,0.05682 0.5122,0.10541 0.74157,0.13848c4.14748,0.59782 8.29378,1.20244 12.43698,1.82891c1.58185,-0.28931 3.15399,-0.64234 4.72147,-1.0157c-1.04771,-0.03974 -2.09453,-0.0778 -3.13723,-0.13522l-0.50135,0.11197c0,0 -0.49095,0.09469 -0.58564,-0.39627zM157.29511,156.56004c0.85325,-0.20661 1.70545,-0.43509 2.55721,-0.68934c-0.7131,-0.23074 -1.27323,-0.76573 -1.94957,-1.12825c-0.42846,-0.0388 -0.8576,-0.07186 -1.28721,-0.10064c-1.78346,0.43225 -3.56773,0.87705 -5.3607,1.27268c2.02133,0.27492 4.0312,0.48201 6.04027,0.64556zM160.05113,154.99287c0.1034,0.06548 0.20587,0.1326 0.30738,0.20142l0.04927,-0.08565l0.85746,0.49325c0.16376,0.08971 0.2704,0.26792 0.25925,0.46677c-0.01234,0.22007 -0.16521,0.3989 -0.36662,0.45425l-0.84328,0.25316c2.02823,0.12711 4.06109,0.22231 6.10953,0.31053c-1.30713,-0.53581 -2.71093,-1.33881 -3.77491,-1.59656c-0.86027,-0.2084 -1.72695,-0.36994 -2.59809,-0.49717zM104.23086,160.77794c2.14001,0.25758 4.27725,0.53729 6.41727,0.84174c2.08195,0.02536 4.18654,0.10842 6.24377,0.35616c1.26936,0.05516 2.53915,0.0979 3.80954,0.12333c-0.61186,-0.17371 -1.17035,-0.33543 -1.60726,-0.42496c-4.11776,-0.84368 -8.68939,-0.59295 -12.8896,-0.81006c-0.65749,-0.03399 -1.31545,-0.06215 -1.97372,-0.0862zM86.14195,161.73652c3.37202,0.24166 6.84712,0.15062 10.29905,0.03612c-3.28028,-0.11984 -6.57043,-0.15289 -9.84474,-0.06476c-0.14157,0.00381 -0.29374,0.01399 -0.45431,0.02864z" fill="#670087" stroke="none" stroke-width="0.5" stroke-linecap="butt"></path><path d="M157.56924,181.37136c-0.30082,-0.05517 -0.60472,-0.10516 -0.9112,-0.15036c-1.40784,-0.03729 -2.83053,-0.03129 -4.25489,0.00365c1.65439,0.04912 3.30888,0.09261 4.96273,0.14116c0.06785,0.00199 0.13563,0.00384 0.20336,0.00555zM147.60411,196.22012c-3.77023,-0.51366 -7.58671,-0.56842 -11.38018,-0.49569c-3.91475,0.07506 -7.83669,0.28389 -11.75536,0.45009c3.60343,0.14811 7.21873,0.17444 10.81941,0.21472c4.12303,0.04612 8.21773,-0.03741 12.31613,-0.16912zM136.64863,181.87882c0.69754,-0.13447 1.39536,-0.26952 2.09342,-0.3996c-0.13349,-0.03596 -0.26606,-0.07321 -0.39766,-0.1118l-0.00621,0.0799l-0.99256,-0.07717c-0.26013,-0.01764 -0.46568,-0.23423 -0.46568,-0.49884c0,-0.26912 0.21262,-0.48859 0.47904,-0.49957l0.98858,-0.04713c2.31319,-0.20264 4.61038,-0.31278 6.93113,-0.38577c2.68278,-0.0843 5.60101,-0.16629 8.48723,0.04936c3.64814,-0.13347 7.35761,0.02791 10.39034,1.09841l0.01649,-0.09831l0.97807,0.16409c0.24077,0.03601 0.42542,0.24368 0.42542,0.49448c0,0.27221 -0.21754,0.49361 -0.48825,0.49986l-0.72654,0.01949c-0.46093,0.03319 -0.91937,0.06366 -1.37632,0.09069c0.29469,0.14939 0.58469,0.30769 0.86953,0.47538l0.03091,-0.07371l0.91151,0.38229c0.18578,0.07297 0.3173,0.25391 0.3173,0.46556c0,0.24842 -0.18118,0.45454 -0.41861,0.49341l-0.70118,0.12832c-2.65054,0.48443 -5.31896,0.67485 -8.00678,0.77937c-1.27425,0.04955 -2.54837,0.1023 -3.82244,0.15635c5.07636,0.25797 11.1114,0.88207 14.92649,3.79387l0.06222,-0.09819l0.83755,0.53069c0.14366,0.08784 0.23954,0.24617 0.23954,0.42689c0,0.27194 -0.2171,0.49318 -0.48743,0.49985l-0.9812,0.02813c-3.94663,0.46487 -8.03596,0.31395 -12.00887,0.42492c-7.00245,0.11024 -13.95737,-0.0326 -20.95674,-0.24408c-4.5986,-0.13895 -9.35343,-0.20977 -13.94619,0.0876c-0.6514,0.04217 -1.44831,0.2464 -2.25316,0.40739c2.0075,0.24401 3.98155,0.33113 6.07739,0.35655c6.89495,0.08362 13.84172,-0.25523 20.72507,0.05876c4.36853,0.19928 8.58747,1.30926 12.86198,2.21092c1.94896,0.41111 3.97831,0.6735 5.84815,1.34581l0.02266,-0.10744l0.96911,0.20442c0.23129,0.04392 0.40616,0.24714 0.40616,0.49121c0,0.25469 -0.19043,0.46491 -0.43668,0.49603l-0.98271,0.14015c-2.31402,0.32996 -4.66791,0.69818 -7.00374,0.78959c-0.82304,0.03187 -1.64506,0.06402 -2.46632,0.09584c0.37066,0.2379 0.72163,0.49865 1.04998,0.78433l0.08929,-0.11089l0.77537,0.62436c0.11569,0.09158 0.18991,0.23325 0.18991,0.39226c0,0.27614 -0.22386,0.5 -0.5,0.5h-0.908c-4.19028,0.35337 -8.43469,0.24145 -12.63902,0.29674c-4.60669,0.06053 -9.18787,0.02794 -13.79023,0.28798c3.52256,0.48216 7.03365,1.0394 10.54814,1.5794c2.54789,0.39148 4.75271,0.56429 6.81824,1.8282l0.05649,-0.11065l0.88114,0.44981c0.16702,0.08096 0.28219,0.25212 0.28219,0.45019c0,0.26471 -0.20572,0.48138 -0.466,0.49886l-0.99265,0.07646c-6.28631,0.48421 -12.59556,0.37486 -18.89613,0.37178c-4.61789,-0.00225 -9.23234,-0.15357 -13.8507,-0.13261c-0.44946,0.00204 -1.01895,0.05394 -1.62783,0.10205c1.18723,0.26435 2.37253,0.53697 3.55644,0.82193c5.65632,1.36146 13.34874,1.33738 18.47994,4.45971l0.03939,-0.09021l0.90596,0.39549c0.18216,0.07468 0.31047,0.25377 0.31047,0.46283c0,0.27256 -0.21808,0.49417 -0.48927,0.49988l-0.99819,0.02445c-1.56707,0.0378 -3.07134,0.30393 -4.6158,0.55438c-6.87873,1.11546 -13.72479,2.11312 -20.69191,2.46382c-3.28491,0.16535 -6.57606,0.42935 -9.86378,0.51561c-0.47364,0.01243 -2.90329,0.15208 -3.14028,-0.25095c-0.0998,-0.16972 0.77308,-1.92628 0.91801,-2.22826c0.82446,-1.71786 1.28818,-3.74162 1.62152,-5.61647c1.22745,-6.88282 1.12551,-13.81272 -0.66412,-20.57935c-0.32664,-1.23505 -1.55672,-3.87552 -1.15449,-5.11812c0.59194,-1.82869 2.6443,-1.08414 3.96544,-0.8245c2.38358,0.46845 5.75569,0.8531 8.32459,1.87395c2.30716,0.16366 4.62231,0.25731 6.92925,0.38598c6.89785,0.38619 14.02981,0.12715 20.89634,-0.58254c0.56023,-0.05791 1.12031,-0.11803 1.68026,-0.1799z" fill="#8900b2" stroke="none" stroke-width="0.5" stroke-linecap="butt"></path><path d="M136.88499,115.77392l0.46623,0.51152c-1.99858,0.04912 -3.85525,0.46187 -5.79361,0.9402c-4.66385,1.15062 -9.26496,2.30529 -13.93976,3.1971c3.79558,0.72335 7.71561,1.37757 11.09375,0.67775c0,0 0.49016,-0.09868 0.58884,0.39149c0.09868,0.49016 -0.39148,0.58884 -0.39148,0.58884c-4.31904,0.84773 -9.34578,-0.33476 -13.9989,-1.17436c-1.30843,0.21698 -2.62457,0.40969 -3.95137,0.57241c-5.64493,0.6923 -12.93099,1.7663 -18.70423,0.21313c-5.61002,2.21186 -11.15465,4.42863 -16.90335,6.3642c-4.44089,1.49524 -8.8581,2.9635 -13.37506,4.2122c-1.644,0.45448 -3.14021,1.0353 -4.71268,1.01019c-0.18181,0.16002 -0.36267,0.3215 -0.54246,0.48464c-4.28365,3.88692 -10.14592,8.60784 -15.95634,10.34855l0.03433,0.06324l-0.87068,0.47262c-0.07279,0.04138 -0.157,0.06501 -0.24672,0.06501c-0.05933,0 -0.11624,-0.01033 -0.16904,-0.0293c-2.44714,1.71562 -5.00034,3.20548 -7.57348,3.94369c-0.01488,0.01603 -0.0297,0.03207 -0.04449,0.04814l-0.07463,-0.01451c-0.00795,0.00221 -0.0159,0.00441 -0.02385,0.00661l0.02938,0.05361l-0.01503,0.00824l0.01582,0.03147l-0.8845,0.44468c-0.0697,0.03689 -0.14918,0.05777 -0.23354,0.05777c-0.03623,0 -0.07156,-0.00385 -0.1056,-0.01117c-2.79429,2.86571 -5.80059,5.6471 -9.15419,7.34366l0.04353,0.05675l-0.78972,0.6058c-0.0849,0.0665 -0.19184,0.10613 -0.30804,0.10613c-0.27614,0 -0.5,-0.22386 -0.5,-0.5c0,-0.10582 0.03287,-0.20395 0.08895,-0.28475l0.55465,-0.82402c1.37523,-2.04311 2.84499,-3.96534 4.35411,-5.85774c-1.75986,1.68655 -3.57107,3.32095 -5.42914,4.9055c-0.65302,0.55688 -2.3997,2.66216 -3.26835,0.74863c-0.26147,-0.576 2.01304,-3.19441 2.37682,-3.70877c0.67507,-0.95449 1.3824,-1.96587 2.13425,-2.97042c-0.01,-0.03942 -0.01531,-0.08071 -0.01531,-0.12324c0,-0.12276 0.04424,-0.2352 0.11765,-0.32221l0.63721,-0.76638c0.80823,-0.97206 1.60303,-1.95601 2.4749,-2.87179c0.03247,-0.13045 -3.57577,1.97101 -4.66473,2.56109c-2.17797,1.18018 -4.40959,2.26077 -6.57947,3.45546c-1.19825,1.01461 -2.41738,2.01548 -3.74641,2.80737l-0.07754,-0.00088l0.00592,0.02421l-0.96061,0.2347c-0.0413,0.01104 -0.08471,0.01693 -0.12949,0.01693c-0.27614,0 -0.5,-0.22386 -0.5,-0.5c0,-0.17152 0.08637,-0.32287 0.21797,-0.41293l0.81224,-0.57138l0.05689,0.08087c1.27654,-1.20816 2.81073,-2.19732 4.43521,-3.08375c0.3782,-0.3227 0.756,-0.64204 1.13629,-0.95091c5.40849,-4.39276 10.7988,-9.07719 16.65657,-12.84927c5.75584,-3.70645 11.69017,-8.39395 18.1612,-10.645c6.60625,-2.29808 13.27497,-4.96529 20.27518,-5.68695c6.97872,-0.71878 13.97096,-1.02204 20.97622,-1.37568c6.87932,-0.34155 14.17749,0.6712 21.01344,1.42513c1.22889,0.12147 2.52671,0.33549 3.86203,0.58142c5.5453,-0.92605 10.95213,-2.28896 16.44732,-3.64469c1.62729,-0.40139 3.20106,-0.75475 4.84168,-0.90171c0.13299,-0.07447 0.2746,-0.07352 0.2746,-0.07352l0.04349,0.04772c0.28056,-0.02035 0.56328,-0.03445 0.84875,-0.0415z" fill="#8900b2" stroke="none" stroke-width="0.5" stroke-linecap="butt"></path><path d="M130.24225,219.94021c-0.25202,-0.43184 0.17981,-0.68386 0.17981,-0.68386l0.51109,-0.29496c2.92049,-0.93827 5.96598,0.31864 8.95816,0.2272c0.95098,-0.02906 1.90692,-0.09465 2.86417,-0.16786c0.43637,-0.20884 0.84999,-0.4595 1.22992,-0.76799c0,0 0.38944,-0.31358 0.70303,0.07586c0.17439,0.21658 0.13136,0.4097 0.05879,0.53847c1.07904,-0.0788 2.15654,-0.14185 3.2273,-0.14777c3.86027,-0.1492 7.70804,-0.41525 11.54219,-0.93722c1.41011,-0.19197 3.67142,-0.5739 4.52528,0.89739c0.37101,0.63929 -0.45238,2.93561 -0.5384,3.70932c0.00863,6.84816 -9.21526,8.15752 -14.54858,8.95538c-0.03318,-0.00079 -0.07257,-0.00093 -0.11618,-0.00079c0.95338,0.46205 2.36586,1.59325 2.69106,1.79391c3.31178,2.04344 7.28428,2.66115 10.61328,4.59426l0.03468,-0.0781l0.9035,0.40122c0.18059,0.07539 0.30751,0.25368 0.30751,0.4616c0,0.22811 -0.15276,0.42055 -0.36156,0.48059l-0.84347,0.26387l-0.00174,-0.00555l-0.02011,0.01184c-2.31904,0.49709 -4.48964,1.34742 -6.87426,1.63054c-6.7936,0.43528 -13.65303,0.99712 -20.45424,0.1042c-0.69676,-0.09148 -1.39118,-0.19272 -2.08376,-0.302c2.12058,0.64561 4.13051,1.45846 5.85268,2.59503l0.03791,-0.07993l0.89348,0.42372c0.17435,0.0781 0.29582,0.25314 0.29582,0.45654c0,0.27045 -0.21473,0.49075 -0.483,0.49972l-0.99691,0.0386c-1.98911,0.07702 -3.8726,-0.08902 -5.84933,-0.31576c-3.97626,-0.45609 -7.90534,-1.26101 -11.87202,-1.80073c-1.21342,-0.1651 -2.78129,-0.23483 -4.19244,-0.49217c4.4312,2.11988 9.51225,4.51894 12.9684,7.88824l0.0401,-0.05783l0.81589,0.56575c0.13329,0.08981 0.22096,0.24214 0.22096,0.41496c0,0.27614 -0.22386,0.5 -0.5,0.5c-0.02713,0 -0.05376,-0.00216 -0.07973,-0.00632l-0.79971,-0.11501l0.00272,-0.01888l-0.05819,0.00767c-3.97752,-1.51784 -8.15133,-2.43323 -12.269,-3.48972c-2.6388,-0.67705 -5.23339,-1.38792 -7.80376,-2.18973c1.05425,0.60268 2.04416,1.25894 2.91862,1.98897l0.05004,-0.07828l0.83552,0.53411c0.14266,0.08806 0.23773,0.24582 0.23773,0.42578c0,0.27614 -0.22386,0.5 -0.5,0.5c-0.00471,0 -0.00941,-0.00007 -0.01409,-0.00019l-0.99774,-0.02421l0.00008,-0.00319l-0.01249,0.00274c-4.23539,-0.31314 -8.4728,-1.09027 -12.6524,-1.83817c-4.46425,-0.79883 -8.78009,-1.92958 -13.16034,-3.10405c-0.02009,-0.00539 -0.04044,-0.01075 -0.06103,-0.01608c3.39973,1.50514 7.07091,3.08691 9.36913,5.50003l0.08406,-0.08947l0.72785,0.68378c0.09761,0.09125 0.15863,0.22116 0.15863,0.36533c0,0.27614 -0.22386,0.5 -0.5,0.5h-0.57733v-0.0167l-0.04958,0.01423c-1.14655,-0.22836 -2.33766,-0.21624 -3.50267,-0.30897c-6.93731,-0.55288 -13.85611,-1.61245 -20.74519,-2.57991c-6.80271,-0.95533 -13.18245,-3.25962 -19.44775,-5.99637c-6.55987,-2.86542 -11.83689,-6.59656 -17.30856,-11.14428c-4.41449,-3.66905 -12.89483,-12.26527 -4.95512,-16.57636c5.64029,-3.04888 13.41139,-2.74515 19.67023,-2.74515c6.75737,0 13.95757,0.7794 20.45985,2.64865c6.41863,1.8464 13.09544,3.65351 19.34319,5.98267c6.18458,2.30562 13.15434,3.86628 19.76128,4.11191c6.40325,0.24032 13.21028,-0.36223 19.50387,-1.50451c3.45202,-0.62576 6.86057,-1.60026 10.27388,-2.41303c0.32614,-0.07766 0.65966,-0.14876 0.99674,-0.21889c-2.39886,-0.14809 -5.21717,-1.01545 -7.53799,-0.25032l-0.41591,0.24604c0,0 -0.43184,0.25202 -0.68386,-0.17981z" fill="#8900b2" stroke="none" stroke-width="0.5" stroke-linecap="butt"></path><path d="M27.96429,182.27645c2.00649,-0.55537 4.03888,-1.01001 6.08124,-1.42307c-1.65068,-0.10221 -3.30118,-0.1769 -4.94985,-0.18888c-4.83179,-0.00274 -9.74133,-0.14895 -14.54807,0.40372c0.74654,0.34075 1.31175,1.02484 2.16109,1.26186c1.37457,0.3836 3.43263,0.0219 4.87094,0.03817c2.157,0.02439 4.26886,-0.00979 6.38466,-0.09179zM37.71695,180.11981c5.97677,-1.2156 12.22819,-2.55109 18.19893,-2.55101c6.86753,0.00009 14.36744,-0.85108 21.0597,0.71832c2.05256,0.70567 3.53741,1.80317 5.28881,3.06676c0.25042,0.18067 1.76222,1.23759 1.81052,1.43962c0.29198,1.22122 -1.40176,2.15083 -2.16397,2.68675c-2.8635,2.01337 -6.01793,2.84835 -9.34383,3.80572c-3.30953,0.95266 -6.59212,1.77505 -9.94694,2.32836c2.82159,0.04102 5.62912,0.21414 8.14276,0.85871l0.00404,-0.07515l0.99537,0.05356c0.26515,0.01236 0.47632,0.23124 0.47632,0.49945c0,0.24934 -0.18252,0.45606 -0.42124,0.49383l-0.97624,0.17291c-5.25544,0.93081 -10.5686,1.55617 -15.87216,2.14925c-6.90391,1.09104 -13.81596,2.40824 -20.75559,3.23911c-6.27451,0.75069 -12.9868,2.06591 -18.89878,-0.62803l-0.02006,0.07277l-0.95353,-0.26282c-0.217,-0.05458 -0.37765,-0.25099 -0.37765,-0.48492c0,-0.24759 0.17996,-0.45316 0.41622,-0.49301l0.97396,-0.18344c2.95797,-0.55546 6.0314,-0.65376 9.03377,-0.76339c3.04689,-0.11126 6.09159,-0.27122 9.13588,-0.43964c-4.5593,-0.0944 -9.31657,-0.42284 -12.88128,-2.8057l-0.04874,0.09062l-0.87162,-0.46886c-0.1616,-0.08286 -0.27219,-0.25112 -0.27219,-0.4452c0,-0.25431 0.18986,-0.46427 0.43556,-0.49589l0.98228,-0.14253c1.31555,-0.19088 2.6195,-0.40612 3.92661,-0.64815c1.61939,-0.29985 3.25301,-0.45372 4.89402,-0.53615c-4.95335,-0.21687 -9.80299,-0.73733 -14.84077,-1.42235c-2.59808,-0.35328 -4.83369,-2.7097 -1.24479,-3.94836c1.99473,-0.68845 4.18278,-1.10107 6.41244,-1.40134c-2.29327,-0.22802 -4.44382,-0.8014 -6.21502,-1.989l-0.06337,0.10742l-0.85324,-0.50334c-0.15166,-0.08587 -0.25401,-0.24868 -0.25401,-0.4354c0,-0.25117 0.1852,-0.45908 0.42649,-0.49463l0.97854,-0.16181l0.0004,0.0024l0.00995,-0.004c4.97082,-0.61002 10.05285,-0.45959 15.05512,-0.45672c2.86782,0.02082 5.74419,0.23704 8.61735,0.45531z" fill="#740097" stroke="none" stroke-width="0.5" stroke-linecap="butt"></path><path d="M67.0051,218.29092c0.65127,0.06761 1.3017,0.17766 1.95131,0.30374c1.34114,0.21169 2.71146,0.44746 4.04185,0.77933c2.01996,0.34358 4.0463,0.67371 6.08044,0.92765c-0.11922,-0.08554 -0.23675,-0.24031 -0.17434,-0.50671c0.11404,-0.48682 0.60086,-0.37278 0.60086,-0.37278l0.57388,0.13444c1.65398,0.38747 3.31611,0.57876 4.8666,1.15339l0.03604,-0.14538l0.9605,0.23813c0.22312,0.05019 0.38979,0.24954 0.38979,0.48781c0,0.27614 -0.22386,0.5 -0.5,0.5c-0.00522,0 -0.01042,-0.00008 -0.01561,-0.00024l-0.99747,-0.02683c-2.46101,-0.06656 -4.9082,-0.32396 -7.34529,-0.66802c0.39886,0.23296 0.78264,0.48835 1.14837,0.76926l0.06563,-0.09876l0.82637,0.54916c0.00797,0.00513 0.01578,0.01048 0.02343,0.01603c1.26167,0.06031 2.52334,0.12054 3.78502,0.18058c5.89175,0.28038 13.2206,-0.09072 18.89688,2.15838l0.01334,-0.07378l0.97548,0.17644c0.2379,0.03848 0.41956,0.2448 0.41956,0.49356c0,0.27032 -0.21452,0.49054 -0.48262,0.4997c-2.33151,0.09231 -5.65984,0.22407 -7.99134,0.31638c-1.90333,0.07535 -3.80273,0.00546 -5.69988,-0.13526c4.85024,0.63803 10.16493,1.3555 14.28506,3.46676l0.02074,-0.07541l0.9537,0.26225c0.21714,0.05448 0.37794,0.25096 0.37794,0.48499c0,0.27614 -0.22386,0.5 -0.5,0.5c-0.0223,0 -0.04425,-0.00146 -0.06578,-0.00429c-4.63486,-0.54391 -10.25541,-1.20349 -14.89027,-1.7474c-2.00979,-0.23594 -4.016,-0.51537 -6.02049,-0.8091c2.84631,0.7733 5.69263,1.54659 8.53894,2.31989c3.7705,0.30318 7.54101,0.60636 11.31151,0.90954c1.98639,0.15972 4.03815,0.14996 5.97093,0.6024l0.00977,-0.1215l0.99221,0.07978c0.25957,0.01821 0.46449,0.23455 0.46449,0.49876c0,0.26131 -0.20046,0.4758 -0.45599,0.49809c-1.65848,0.16497 -4.30658,0.42836 -5.96506,0.59333c-0.05126,0.0051 -0.10252,0.01016 -0.15378,0.01519c2.20201,0.50768 4.42776,1.08089 6.49235,1.88685c1.24474,0.10997 2.49047,0.23563 3.6854,0.53378c0.08954,0.00407 0.17912,0.00809 0.26874,0.01205l0.03132,0.00138l0.00734,-0.06569l0.98779,0.1104c0.2529,0.02486 0.45049,0.23815 0.45049,0.49758c0,0.27614 -0.22386,0.5 -0.5,0.5c-0.00855,0 -0.01705,-0.00021 -0.0255,-0.00064l-0.99561,-0.04402c-0.26022,-0.0115 -0.52015,-0.02346 -0.77983,-0.03595c0.73635,0.44036 1.43117,0.93219 2.07264,1.48619l0.05276,-0.07751l0.82051,0.55852c0.13544,0.08946 0.2248,0.24305 0.2248,0.41752c0,0.27614 -0.22386,0.5 -0.5,0.5c-0.00032,0 -0.00064,0 -0.00096,0c-4.99999,-0.00817 -10.99985,-0.01797 -15.99984,-0.02614c-1.9024,-0.00311 -3.7982,0.00189 -5.69018,-0.0044c1.12139,0.26761 2.23591,0.56756 3.33711,0.92817l0.94998,0.18007c0.23599,0.04008 0.41568,0.24551 0.41568,0.49292c0,0.27614 -0.22386,0.5 -0.5,0.5c-0.00313,0 -0.00626,-0.00003 -0.00938,-0.00009l-0.99854,-0.01608l0.00119,-0.07394c-1.53707,0.2984 -3.18125,0.42562 -4.87404,0.44245c0.14785,0.08686 0.24709,0.24755 0.24709,0.43142c0,0.21465 -0.13525,0.3977 -0.32519,0.46859l-0.91771,0.36693l-0.00292,-0.00731l-0.02836,0.01863c-0.22681,0.05751 -0.45408,0.11165 -0.68179,0.16262c1.9529,0.73092 3.81807,1.55838 5.47115,2.55472l0.02181,-0.05981l0.92854,0.33857c0.1975,0.06682 0.33967,0.25368 0.33967,0.47374c0,0.27614 -0.22386,0.5 -0.5,0.5c-0.00026,0 -0.00052,0 -0.00078,0l-0.99988,-0.00134c-0.73412,-0.00099 -1.46602,-0.0146 -2.1961,-0.03926c0.41092,0.12207 0.81549,0.25199 1.21273,0.39061l0.00202,0.00007l0.00532,-0.05768l0.99063,0.09142c0.25706,0.02076 0.4592,0.23595 0.4592,0.49836c0,0.27614 -0.22386,0.5 -0.5,0.5c-0.00646,0 -0.01289,-0.00012 -0.01929,-0.00037l-0.9968,-0.03321l0.00009,-0.0027l-0.00828,0.00236c-6.74979,-0.4464 -13.24318,-1.14922 -19.89142,-2.42635c-2.61362,-0.50208 -5.45834,-1.10666 -8.25892,-1.93638c-3.00701,-0.15164 -5.95765,-0.55526 -8.43954,-1.5212l-0.01722,0.09267l-0.97448,-0.18107c-0.23681,-0.03939 -0.41735,-0.24521 -0.41735,-0.4932c0,-0.27614 0.22386,-0.5 0.5,-0.5c0.00748,0 0.01492,0.00016 0.02232,0.00049l0.99623,0.03848l-0.00041,0.01063l0.03217,-0.00839c0.53127,0.08848 1.06273,0.17601 1.59435,0.26274c0.2751,0.02897 0.55697,0.06977 0.83824,0.11643c-1.34482,-0.63043 -2.62467,-1.345 -3.80124,-2.16075l-0.02472,0.05568l-0.90354,-0.40114c-0.18061,-0.07539 -0.30755,-0.25368 -0.30755,-0.46162c0,-0.27614 0.22386,-0.5 0.5,-0.5c0.00491,0 0.00981,0.00007 0.01469,0.00021l0.99764,0.02524l-0.00003,0.00107l0.00393,-0.00095c6.28747,0.25734 12.54135,0.61185 18.80923,1.0959c-1.92517,-0.70154 -3.82352,-1.40208 -5.69487,-2.16207c-1.19959,-0.22118 -2.39766,-0.44235 -3.59416,-0.64686c-2.33841,-0.39969 -4.72238,-0.59066 -6.85101,-1.55326l-0.01485,-0.00231l-0.03784,0.12658l-0.94736,-0.28318c-0.21186,-0.05805 -0.36755,-0.25198 -0.36755,-0.48227c0,-0.27614 0.22386,-0.5 0.5,-0.5c0.0293,0 0.058,0.00252 0.08592,0.00735l0.97913,0.15252c1.51289,0.23567 3.05562,0.41865 4.603,0.60466c-0.53623,-0.27882 -1.07009,-0.56821 -1.60158,-0.86971l-0.86129,-0.48859c-0.15593,-0.08465 -0.2618,-0.24982 -0.2618,-0.43972c0,-0.27614 0.22386,-0.5 0.5,-0.5c0.00237,0 0.00473,0.00002 0.0071,0.00005l0.99891,0.01215l-0.00068,0.05587c0.92129,-0.15469 1.87012,-0.2591 2.83783,-0.32482c-0.26133,-0.20379 -0.51545,-0.43012 -0.76303,-0.68395l-0.08222,0.09025l-0.73775,-0.67213c-0.10117,-0.0915 -0.16474,-0.2238 -0.16474,-0.37095c0,-0.27614 0.22386,-0.5 0.5,-0.5c0.0164,0 0.03261,0.00079 0.0486,0.00233l0.9904,0.0848c2.66396,0.22809 5.32093,0.46578 7.9768,0.77484c0.39137,0.04554 0.78272,0.09116 1.17408,0.13683c-0.68238,-0.18495 -1.36478,-0.36984 -2.04722,-0.55459c-1.92372,-0.5208 -3.94375,-0.8853 -5.75918,-1.68737l-0.03234,0.11946l-0.9548,-0.25849c-0.21808,-0.05382 -0.37979,-0.25075 -0.37979,-0.48546c0,-0.27614 0.22386,-0.5 0.5,-0.5c0.02121,0 0.0421,0.00132 0.06262,0.00388c0.33128,0.03692 1.64918,0.18379 1.98046,0.22071c5.69238,0.63439 11.38233,1.16516 17.085,1.6445c-3.02847,-0.82279 -6.05694,-1.64557 -9.08541,-2.46836c-1.01021,-0.27446 -2.00539,-0.50013 -3.00436,-0.69296c-0.97851,-0.11882 -1.95547,-0.25235 -2.90227,-0.47835c-0.29418,-0.04152 -0.59017,-0.08159 -0.8884,-0.12059l-0.00633,-0.00083l-0.00184,0.01276l-0.98248,-0.14141c-0.24596,-0.03138 -0.43608,-0.24146 -0.43608,-0.49595c0,-0.27614 0.22386,-0.5 0.5,-0.5c0.02476,0 0.04909,0.0018 0.07289,0.00527l0.9835,0.1286c0.18319,0.02395 0.36558,0.04832 0.54726,0.07318c1.37862,-0.11582 3.27653,0.49021 4.40638,0.65283c4.61122,0.66371 9.2207,1.42412 13.84763,1.9669c2.77843,0.32605 5.55686,0.65211 8.3353,0.97816c-4.31367,-1.13826 -8.67984,-1.77544 -13.08927,-2.48931c-2.96144,-0.47945 -5.92288,-0.9589 -8.88432,-1.43835l-0.9792,-0.15853c-0.24205,-0.03489 -0.42804,-0.24315 -0.42804,-0.49486c0,-0.27614 0.22386,-0.5 0.5,-0.5c0.00486,0 0.00971,0.00007 0.01454,0.00021l0.99766,0.02498l-0.00234,0.09336c5.91507,-0.98062 12.96037,1.46173 18.89805,1.22666c1.055,-0.04177 2.11,-0.08354 3.165,-0.1253c-0.42373,-0.10898 -0.81519,-0.20784 -1.14468,-0.26744c-4.60348,-0.83263 -9.18976,-0.95762 -13.85961,-1.17985c-1.52785,-0.07271 -3.05572,-0.14512 -4.5836,-0.21744l-0.39327,0.03904c-5.1272,0.508 -11.94567,1.20616 -17.05086,-0.59458l-0.01549,0.09197l-0.97794,-0.16473c-0.24062,-0.03614 -0.42511,-0.24374 -0.42511,-0.49443c0,-0.26442 0.20525,-0.4809 0.46513,-0.4988l0.9924,-0.07839c0.34282,-0.02675 0.68563,-0.05349 1.02845,-0.08024c5.0648,0.23611 10.1293,0.47879 15.19382,0.72111c-0.60047,-0.32056 -1.17223,-0.75542 -1.86035,-0.94333c-1.90342,-0.51976 -3.78251,-0.98097 -5.68039,-1.3874c-1.08133,-0.12418 -2.44794,-0.25769 -3.4192,-0.66853c-0.20557,-0.03638 -0.41164,-0.07217 -0.61826,-0.10737l-0.01722,-0.01069l-0.00159,0.00636l-0.95983,-0.2406c-0.22251,-0.05064 -0.38858,-0.2497 -0.38858,-0.48754c0,-0.27614 0.22386,-0.5 0.5,-0.5c0.03664,0 0.07237,0.00394 0.10677,0.01142l0.97106,0.19142l-0.00974,0.04942l0.00941,0.00236c0.28447,0.04822 0.57293,0.09504 0.8646,0.14129zM111.98709,236.71012c-1.42242,-0.08625 -2.8415,-0.19477 -4.26607,-0.33908c-6.97787,-0.70688 -13.95678,-1.40425 -20.9335,-2.12232c-0.23228,-0.06248 -0.46454,-0.125 -0.6968,-0.18756c-0.87829,-0.00632 -1.75724,-0.0154 -2.63697,-0.0261c-3.37924,-0.04111 -6.75849,-0.08221 -10.13773,-0.12332c3.79433,1.14028 7.58865,2.28057 11.38298,3.42085c1.73997,0.52414 3.51148,0.91484 5.28931,1.28305c3.53358,0.07667 7.07196,0.05329 10.63357,0.05911c4.76239,0.00778 9.52478,0.01556 14.28717,0.02334c-0.91212,-0.50805 -1.6997,-1.42805 -2.6304,-1.85654c-0.09657,-0.04446 -0.19376,-0.08827 -0.29154,-0.13144zM86.42858,243.25621c-1.93901,-0.70702 -3.87802,-1.41405 -5.81702,-2.12107c-0.50928,-0.05058 -1.00838,-0.09688 -1.49531,-0.13682c-6.27372,-0.51457 -12.52769,-0.8954 -18.81011,-1.17531c0.57238,0.24774 1.15377,0.5483 1.70095,0.84015c3.2186,1.00893 6.50244,1.78738 9.79649,2.53304c2.10153,0.10252 4.20832,0.15465 6.34681,0.15466c2.74731,0.00001 5.5277,0.08108 8.2782,-0.09465zM67.66152,231.53779c0.48522,0.27048 0.96469,0.61531 1.4683,0.91681c3.90587,-0.08724 8.02282,0.31788 11.81588,0.49969c-1.9962,-0.23422 -3.99239,-0.46839 -5.98876,-0.70071c-2.42938,-0.2827 -4.85966,-0.50536 -7.29543,-0.7158zM73.86282,229.7154c3.0492,0.82526 6.09914,1.64792 9.14805,2.4743c2.50445,0.29365 5.00901,0.58644 7.51405,0.87478c2.39239,-0.01674 4.78166,-0.06827 7.17064,-0.17776c-1.90482,-0.51751 -3.80964,-1.03502 -5.71446,-1.55253c-0.51806,-0.04166 -1.03612,-0.08331 -1.55418,-0.12497c-5.53185,-0.44481 -11.04866,-0.92699 -16.5641,-1.49382zM97.39868,231.76981c0.24828,0.06745 0.49657,0.13491 0.74485,0.20236c0.9396,0.25528 1.92498,0.48874 2.93639,0.71822c1.10059,-0.07803 2.2014,-0.17069 3.30271,-0.28024c0.12795,-0.01273 0.25589,-0.02545 0.38384,-0.03818c-0.13577,-0.01704 -0.26447,-0.031 -0.38459,-0.04066c-2.32774,-0.18717 -4.65547,-0.37434 -6.98321,-0.56151zM88.62399,244.05672c-3.46079,0.41222 -6.98828,0.29415 -10.47359,0.29414c-0.39436,0 -0.79966,0.00312 -1.21433,0.00819c0.03063,0.00712 0.06127,0.01425 0.0919,0.02139c5.81626,0.80142 11.54208,1.72727 17.38604,1.94346c-0.89201,-0.35863 -1.76497,-0.79952 -2.41789,-1.0376c-1.12404,-0.40986 -2.24808,-0.81972 -3.37212,-1.22958zM80.86058,240.13116c1.50447,0.11097 3.00521,0.20485 4.50605,0.28251c-1.8023,-0.46256 -3.60461,-0.92513 -5.40691,-1.38769c-0.11907,-0.01268 -0.23815,-0.02561 -0.35724,-0.03879c-1.04064,-0.1154 -2.08021,-0.25919 -3.11869,-0.42067c0.89475,0.32776 1.79542,0.65376 2.70199,0.98432c0.54305,0.19801 1.10251,0.39075 1.67481,0.58031zM65.66676,233.94959c1.02713,0.54833 2.06313,1.05526 3.10796,1.53218c1.76192,0.24528 3.50803,0.54291 5.20076,0.97594c2.5042,0.64271 5.32866,1.14586 8.15026,1.76944c0.90833,0.07608 1.81607,0.13924 2.72354,0.19166c-0.14624,-0.04197 -0.29227,-0.08478 -0.4381,-0.12851c-3.83075,-1.15123 -7.66151,-2.30246 -11.49226,-3.45369c-1.13896,-0.34228 -2.17228,-0.61733 -3.1194,-0.96762c-0.11491,-0.0014 -0.22983,-0.0028 -0.34474,-0.00419c-0.99901,-0.01215 -2.51341,0.19414 -3.78802,0.0848zM94.58576,240.61892c-1.55958,-0.37006 -3.1317,-0.68076 -4.69971,-1.00587c-0.92573,-0.02048 -1.85114,-0.04783 -2.77656,-0.08433c0.99407,0.31635 1.96165,0.67 2.88667,1.07386c1.04613,0.03145 2.0942,0.05549 3.1455,0.07242c0.4018,0.00647 0.90359,-0.02557 1.4441,-0.05608zM97.77166,233.88413c2.73892,0.30613 5.47785,0.61225 8.21677,0.91838c-1.65438,-0.39757 -3.33728,-0.74304 -4.96828,-1.10549c-1.08295,0.07563 -2.16569,0.13729 -3.24849,0.18711zM85.91487,241.70187c1.25607,0.38371 2.52349,0.77862 3.77181,1.20245c0.6747,-0.10751 1.34602,-0.23912 2.01299,-0.40002c-0.47975,-0.08135 -0.9892,-0.25169 -1.50417,-0.45459c-1.42843,-0.07671 -2.86629,-0.20406 -4.28063,-0.34784z" fill="#dbcb3d" stroke="none" stroke-width="0.5" stroke-linecap="butt"></path><path d="M120.0351,220.56582c-0.19197,-0.46168 0.26971,-0.65365 0.26971,-0.65365l0.71592,-0.29768c2.62882,-1.09118 5.47624,-2.00621 8.33541,-2.63716c-2.64217,0.0703 -5.12053,-0.18253 -7.56296,-1.61129c-1.07421,-0.62839 -2.73611,-1.01896 -1.75412,-2.7177c0.6015,-1.04054 2.65036,-1.66288 4.56668,-2.1355c-1.68385,-0.04922 -3.38338,-0.15242 -5.10798,-0.29697c-5.99209,-0.50224 -11.92571,-0.49939 -17.93727,-0.49939c0,0 -0.5,0 -0.5,-0.5c0,-0.5 0.5,-0.5 0.5,-0.5c6.03933,0 12.00088,-0.00168 18.0208,0.50289c2.93842,0.24629 5.80166,0.37188 8.63852,0.31138c4.56071,-1.68354 9.069,-3.42271 13.77352,-4.66398c0.73542,-0.19404 1.58158,-0.65129 2.41426,-0.95771c-3.67005,-0.25301 -7.60099,-0.3821 -11.07489,-1.60436c-4.91237,0.39619 -10.54001,0.81363 -14.81235,-0.66763l-0.01668,0.10359l-0.97936,-0.15769c-0.24224,-0.03472 -0.42844,-0.24307 -0.42844,-0.49492c0,-0.27614 0.22386,-0.5 0.5,-0.5c0.00247,0 0.00494,0.00002 0.00741,0.00005l0.99886,0.01269l-0.00001,0.00079l0.00254,-0.00075c4.00002,0.09124 8.00003,0.18294 12.0001,0.27185c0.02763,-0.08161 0.07576,-0.15377 0.13826,-0.21034c-1.3616,-0.23154 -2.72002,-0.47459 -4.07453,-0.72637c-2.66802,-0.49594 -5.24415,-1.01169 -7.83836,-1.81299c-0.32392,-0.10005 -2.13873,-0.61782 -2.21966,-0.86354c-0.54743,-1.6623 1.02035,-1.61271 1.80532,-1.72957c1.27251,-0.18944 2.56368,-0.3072 3.85945,-0.39672l-0.48654,-0.04671c-0.25626,-0.02155 -0.45753,-0.23638 -0.45753,-0.49822c0,-0.27614 0.22386,-0.5 0.5,-0.5c0.01681,0 0.03342,0.00083 0.0498,0.00245l0.48584,0.04266c0.07798,-0.17176 0.25025,-0.29162 0.45072,-0.2935l0.99754,-0.01094c4.66816,-0.09384 9.33613,-0.22215 14.0053,-0.21909c0.41684,0.00027 0.84254,-0.00253 1.27579,-0.0073c-0.04427,-0.10093 -0.06503,-0.17569 -0.05339,-0.21185c0.13136,-0.40812 1.90915,-0.90148 2.8058,-1.12595c-0.33177,-0.02169 -0.66395,-0.04322 -0.9966,-0.06468c-3.92918,-0.25359 -7.85523,-0.51681 -11.77991,-0.81801c-1.05753,0.06447 -2.09807,0.02179 -3.15448,-0.25083c-0.00398,-0.00033 -0.00797,-0.00066 -0.01195,-0.00099l-0.04536,-0.00029l-0.01908,0.13202l-0.98237,-0.142c-0.24583,-0.0315 -0.43581,-0.24152 -0.43581,-0.49592c0,-0.27614 0.22386,-0.5 0.5,-0.5c0.00123,0 0.00245,0 0.00367,0.00001l0.99945,0.00628l-0.00004,0.00616l0.01895,-0.00568c0.44488,0.03638 0.88977,0.07223 1.33467,0.10758c1.21966,-0.06163 2.65587,0.04784 3.52413,-0.06385c4.62853,-0.59541 9.25706,-1.19081 13.88558,-1.78622c4.50839,-0.57995 9.0677,-2.01949 13.53878,-3.50206c-1.55887,-0.36396 -3.06834,-0.86897 -4.48716,-1.60323l-0.02747,0.06891l-0.91811,-0.36593c-0.1902,-0.07075 -0.3257,-0.25394 -0.3257,-0.46878c0,-0.19427 0.11079,-0.36266 0.27264,-0.44544l0.87206,-0.468l0.00688,0.01282l0.0465,-0.03754c5.97473,-1.59178 12.49452,-3.95445 18.69764,-4.05281c1.65162,-0.02619 3.35066,-0.17063 4.99937,-0.07928c0.46113,0.02555 1.10454,-0.22485 1.37763,0.14759c1.18963,1.62238 -1.26155,2.27951 -2.13716,2.60386c-3.7369,1.38426 -7.6947,2.34333 -11.50793,3.50415c-0.96422,0.29353 -1.93594,0.60444 -2.91374,0.92408c2.48197,0.25815 5.02415,0.35144 7.409,0.63708l0.98654,0.11817c0.25118,0.02651 0.4469,0.23901 0.4469,0.49721c0,0.22525 -0.14895,0.41571 -0.35372,0.47826l-0.93835,0.3108l-0.02053,-0.06197c-5.35429,2.89852 -12.58101,3.73384 -18.3509,5.0318c-0.43234,0.09726 -0.86693,0.18379 -1.30307,0.26283c1.60517,0.15704 3.21126,0.34029 4.82455,0.56287c1.70855,0.23572 3.38818,0.31799 4.9657,0.85165l0.0392,-0.15834l0.96059,0.23781c0.2232,0.05013 0.38995,0.24952 0.38995,0.48785c0,0.26961 -0.21339,0.48938 -0.4805,0.49963l-0.98431,0.04369c-0.97671,0.10663 -1.95378,0.19718 -2.93125,0.27474l0.96364,0.08723c0.25743,0.02039 0.45998,0.23575 0.45998,0.49842c0,0.16717 -0.08204,0.31519 -0.20806,0.40597c0.49403,-0.02109 0.98803,-0.04347 1.48199,-0.06631c0.34774,-0.0353 0.69039,-0.0549 1.014,-0.04732c0.35015,-0.01639 0.70028,-0.03275 1.05036,-0.04878l0.99543,-0.04559c0.00874,-0.00045 0.01754,-0.00068 0.02639,-0.00068c0.27614,0 0.5,0.22386 0.5,0.5c0,0.26177 -0.20116,0.47656 -0.45733,0.49821l-0.99004,0.09549l-0.00478,-0.04957l-0.02392,0.0011c-0.11894,0.00545 -0.23789,0.01093 -0.35683,0.01644c-2.12405,0.50054 -4.43486,0.49697 -6.58213,0.70408c-0.58534,0.05646 -1.16979,0.11829 -1.75348,0.18489c1.23858,0.35677 2.43454,0.77797 3.56293,1.27996l0.01375,-0.05753l0.96267,0.23003c0.2251,0.04871 0.39375,0.24901 0.39375,0.48869c0,0.24479 -0.1759,0.44849 -0.4082,0.49159l-0.97013,0.20017c-1.54741,0.31929 -3.09948,0.58041 -4.65557,0.79723c1.1971,0.825 2.14011,1.76591 1.88583,2.67935c-0.23754,0.85329 -2.05338,1.51843 -2.74827,1.89742c-3.15748,1.72209 -7.05915,2.63471 -10.53416,3.50553c-4.05526,1.01622 -8.02843,1.48335 -12.05167,1.57957c-0.1022,0.03791 -0.20442,0.07568 -0.30665,0.11328c-1.9864,0.73035 -5.71741,1.05121 -7.24207,2.57849c-0.55421,0.55516 1.92597,1.56868 2.30034,1.78979c2.4752,1.46188 5.76303,1.03373 8.50932,0.84729c2.01139,-0.13655 4.01155,-0.14902 6.02717,-0.16163l0.0011,0.00035v-0.00035l0.99984,-0.00184c0.00036,0 0.00072,0 0.00108,0c0.27614,0 0.5,0.22386 0.5,0.5c0,0.25937 -0.19749,0.47262 -0.45031,0.49756l-0.98773,0.11079l-0.01196,-0.1066l-0.04826,0.00009c-0.02365,0.00015 -0.0473,0.0003 -0.07094,0.00044c-2.20305,0.54701 -4.51623,0.41347 -6.78019,0.87923c-3.09636,0.63701 -6.53096,1.75057 -9.44574,2.96472l-0.71592,0.29768c0,0 -0.46168,0.19197 -0.65365,-0.26971zM156.63302,194.71717c0.0591,0.01734 0.11803,0.03492 0.17677,0.05274l0.00607,-0.06705c-0.06094,0.00482 -0.12189,0.00959 -0.18284,0.01431zM131.42318,209.37919c2.92221,-0.21762 5.83587,-0.66097 8.79506,-1.40252c3.38914,-0.8493 7.22153,-1.72783 10.29762,-3.413c0.45403,-0.24873 2.05109,-0.80911 2.27625,-1.32716c0.05115,-0.11769 0.0435,-0.22469 -0.00095,-0.32103c-0.07034,0.03777 -0.15077,0.0592 -0.23621,0.0592c-0.00413,0 -0.00825,-0.00005 -0.01236,-0.00015l-0.99804,-0.02121c-1.3415,-0.02867 -2.6769,-0.13175 -4.01562,-0.22036c-1.93757,-0.12842 -3.87448,-0.30217 -5.80878,-0.51351c-1.57933,-0.07444 -3.15832,-0.13512 -4.73888,-0.18564c-0.26167,0.01519 -0.52777,0.03222 -0.79787,0.05068c3.12627,0.62921 6.4912,0.66363 9.65892,0.93015l0.99173,0.08344c0.25879,0.01902 0.46283,0.235 0.46283,0.49864c0,0.21403 -0.13448,0.39666 -0.32356,0.46798l-0.91646,0.3701l-0.04065,-0.10065c-2.36263,1.29127 -5.00333,1.69262 -7.61185,2.51524c-2.35044,0.74123 -4.6686,1.63779 -6.98119,2.5298zM135.6553,200.43079c1.19106,0.17503 2.38393,0.3388 3.57815,0.48943c3.16766,-0.15854 6.32597,-0.34595 9.4695,-0.67817c-0.32959,-0.21389 -0.65939,-0.42727 -0.99,-0.63897c-0.78932,-0.51503 -1.74693,-0.80233 -2.73502,-1.01221c-0.70025,0.11796 -1.40025,0.23884 -2.10022,0.36158c-2.43621,0.42718 -4.83064,0.925 -7.22241,1.47833zM140.03951,193.58957c4.0738,-0.06467 8.70768,-0.22952 12.90102,0.35613c1.10094,-0.05491 2.20136,-0.12112 3.30132,-0.20298c-0.54972,-0.11598 -1.06529,-0.22925 -1.4944,-0.28845c-2.99079,-0.41262 -5.95612,-0.68902 -8.93723,-0.91412c-1.11352,0.16283 -2.22235,0.34432 -3.31499,0.59708c-0.79268,0.18337 -2.10664,-0.21242 -2.45572,0.45235zM159.90305,184.32896c1.65133,-0.5498 3.2881,-1.09144 4.90316,-1.5831c2.86997,-0.87367 5.73993,-1.74734 8.6099,-2.62101c0.93979,-0.28609 1.92086,-0.52303 2.84189,-0.86421c0.62756,-0.23247 2.37038,-0.75526 1.74486,-0.99315c-1.14176,-0.43421 -4.27777,0.23727 -5.62149,0.25858c-6.07738,0.09637 -12.42557,2.44534 -18.2921,3.96917c1.25381,0.15144 2.42653,1.0764 3.64896,1.38872c0.70582,0.18033 1.42945,0.32534 2.16482,0.445zM149.77946,195.07758c-1.81438,0.06073 -3.63033,0.10224 -5.448,0.14403c0.05519,0.0094 0.11039,0.01878 0.16559,0.02811c2.42049,0.03035 4.87492,0.07079 7.30525,-0.00105c-0.0188,-0.00187 -0.0374,-0.00364 -0.05581,-0.0053c-0.65749,-0.05952 -1.31296,-0.11477 -1.96704,-0.1658zM149.11293,197.93711c-0.63746,0.09292 -1.27435,0.18997 -1.91083,0.29037c0.36629,0.14939 0.71833,0.32436 1.0501,0.53346c0.46038,0.2948 1.34325,0.73778 2.27083,1.27153c1.39428,-0.17441 2.78544,-0.38185 4.17299,-0.63247c-1.15688,-0.24365 -2.39249,-0.72637 -3.25612,-0.93273c-0.78354,-0.18723 -1.55801,-0.36387 -2.32697,-0.53016zM133.03626,200.02802c3.03053,-0.74483 6.04535,-1.40936 9.12124,-1.96324c-0.00281,-0.00061 -0.00562,-0.00123 -0.00843,-0.00184c-3.44444,-0.75332 -6.85059,-1.2821 -10.3012,-1.72128c-1.88964,-0.03974 -3.77099,-0.15901 -5.55389,-0.43375c-1.93043,0.14376 -3.86119,0.28332 -5.79179,0.4247c-0.2414,0.01768 -3.10173,0.41696 -2.97909,0.51795c0.31796,0.26181 2.08254,0.46532 2.55764,0.61207c2.22427,0.68703 4.48297,1.06494 6.77053,1.49017c2.05344,0.3817 4.11594,0.74343 6.18499,1.07522zM144.95782,197.58561c0.44701,-0.07313 0.89402,-0.14466 1.34108,-0.21457c-2.57871,-0.47857 -5.14461,-0.84134 -7.83685,-1.09704c-0.07078,0.00167 -0.14171,0.00336 -0.21279,0.00506c1.36883,0.23967 2.73832,0.50623 4.11347,0.80698c0.83559,0.18275 1.72163,0.31943 2.5951,0.49958zM145.78979,191.53589c1.79007,-0.25842 3.59028,-0.47694 5.35338,-0.87355c4.51786,-1.01631 9.13253,-1.91484 13.53006,-3.37139c0.84417,-0.27961 2.03621,-0.86702 3.1695,-1.20816c-2.51415,-0.24097 -5.11081,-0.39378 -7.6274,-0.80615c-5.06326,1.68265 -10.26127,3.44263 -15.39827,4.10344c-3.55061,0.45675 -7.10122,0.91349 -10.65183,1.37024c2.24958,0.15733 4.49984,0.30644 6.7512,0.45174c1.63343,0.10542 3.25576,0.21225 4.87338,0.33383zM146.33905,201.4691c1.66467,0.07786 3.36889,0.07614 4.96782,0.44787c-0.42914,-0.26899 -0.85592,-0.54219 -1.28166,-0.81711c-1.22649,0.14489 -2.45531,0.26572 -3.68615,0.36923z" fill="#dbcb3d" stroke="none" stroke-width="0.5" stroke-linecap="butt"></path><path d="M90.28302,152.50235c-0.00258,0.49999 -0.50257,0.49742 -0.50257,0.49742l-0.54022,-0.0032c-0.73389,-0.03397 -1.49795,-0.05119 -2.27817,-0.06954c1.34556,0.46206 2.68566,0.93981 4.02859,1.39089c2.65963,0.89335 5.23968,1.51334 7.41272,3.16064l0.06018,-0.09111l0.82782,0.5468c0.13892,0.08883 0.23101,0.24443 0.23101,0.42155c0,0.24638 -0.1782,0.45113 -0.41274,0.49241l-0.97232,0.19072l-0.00119,-0.00606l-0.02478,0.01044c-3.65604,0.32626 -7.34441,0.30565 -10.98502,0.71465c-1.07399,0.12066 -2.63202,0.57056 -3.953,0.65541c0.96014,0.29571 1.92295,0.58253 2.88508,0.87199c4.07727,1.22665 9.07163,2.17932 13.49864,3.76341c3.96729,-0.14352 8.07138,-0.04473 11.54029,0.92026l0.005,-0.07363l0.99377,0.06742c0.26222,0.01547 0.47009,0.23302 0.47009,0.49912c0,0.25635 -0.19292,0.46765 -0.4415,0.49661c-1.32189,0.17428 -3.62835,0.47836 -4.95025,0.65264c-0.56959,0.07507 -1.13906,0.14127 -1.70845,0.20041c0.00056,0.00966 0.00084,0.01939 0.00084,0.02918c0,0.27614 -0.22386,0.5 -0.5,0.5c-0.0013,0 -0.00259,0 -0.00389,-0.00001l-0.99942,-0.00665v-0.00013l-0.00047,0.00013c-1.52742,-0.0134 -3.33531,0.03686 -5.2321,0.0348c0.5537,0.08186 1.10747,0.16332 1.66126,0.24454c0.26164,0.008 0.52238,0.01731 0.78208,0.02821c3.32841,0.13968 6.67812,-0.13472 10.01567,-0.13551l0.04258,0.02094l0.0027,-0.01479l0.97513,0.17805c0.23752,0.0388 0.41879,0.24495 0.41879,0.49344c0,0.267 -0.20929,0.48513 -0.47276,0.49927l-0.99448,0.06149l-0.00724,-0.11717c-0.66382,0.13929 -1.33998,0.22594 -2.02185,0.28458c0.74253,0.16881 1.46134,0.40155 2.16033,0.75958l0.06261,-0.13097l0.8922,0.4265c0.17358,0.07841 0.29437,0.25305 0.29437,0.45589c0,0.23705 -0.16497,0.43558 -0.38636,0.48703l-0.95858,0.24514l-0.00194,-0.00759l-0.02865,0.0144c-4.27866,0.54166 -8.53048,1.61412 -12.78587,2.36775c-5.91296,0.94222 -11.83379,2.47526 -17.80167,2.87574c0,0 -0.49888,0.03348 -0.53236,-0.4654c-0.03348,-0.49888 0.4654,-0.53236 0.4654,-0.53236c5.93387,-0.3982 11.8231,-1.92745 17.70274,-2.86413c1.87279,-0.33174 3.74571,-0.72715 5.62073,-1.11119c-0.5912,0.00841 -1.18507,-0.00332 -1.79903,-0.0344c-5.67827,-0.2875 -13.41914,0.4579 -18.96806,-1.65256l-0.01678,0.09183l-0.97511,-0.17815c-0.2375,-0.03882 -0.41874,-0.24496 -0.41874,-0.49343c0,-0.27614 0.22386,-0.5 0.5,-0.5v0h1v0c1.4394,-0.00002 2.8788,-0.00009 4.3182,-0.00021l-0.32664,-0.07067c-0.23009,-0.04487 -0.40375,-0.24753 -0.40375,-0.49074c0,-0.04163 0.00509,-0.08208 0.01468,-0.12075c-1.65689,-0.35671 -3.19422,-0.90541 -4.50111,-1.74512l-0.0613,0.11719l-0.87679,-0.45862c-0.16452,-0.08186 -0.27757,-0.25169 -0.27757,-0.44792c0,-0.27614 0.22386,-0.5 0.5,-0.5c0.00594,0 0.01186,0.0001 0.01775,0.00031l0.99709,0.03053l-0.00002,0.00055l0.00211,-0.00048c1.35537,0.054 2.71915,0.21929 4.08189,0.43107c-0.02635,-0.06085 -0.04096,-0.12798 -0.04096,-0.19851c0,-0.2732 0.21911,-0.49522 0.49119,-0.49992l0.99196,-0.01997c1.32765,-0.07348 2.6553,-0.14683 3.98296,-0.22021c1.12861,-0.06238 2.32682,-0.14315 3.56752,-0.22041c-3.27665,-1.04026 -6.57406,-2.0187 -9.86498,-3.00877c-1.28478,-0.38653 -2.57063,-0.76862 -3.84979,-1.17342l-0.01498,-0.01038l-0.00164,0.00414l-0.91887,-0.36401c-0.19072,-0.07048 -0.32668,-0.25394 -0.32668,-0.46915c0,-0.23905 0.16775,-0.43891 0.39196,-0.4883l0.96169,-0.2337l0.0216,0.08887c4.70736,-1.74342 10.70857,-1.13563 15.61502,-1.51713c-1.33253,-0.41988 -2.90721,-1.44722 -4.13254,-1.85879c-3.38403,-1.13667 -6.77241,-2.4545 -10.21984,-3.45218c-1.7565,-0.14167 -3.48656,-0.42277 -5.03984,-1.03508l-0.03044,0.12812l-0.963,-0.22877c-0.22541,-0.04848 -0.39436,-0.24892 -0.39436,-0.48882c0,-0.27614 0.22386,-0.5 0.5,-0.5c0.01456,0 0.02897,0.00062 0.04322,0.00184l0.99173,0.07521l-0.00038,0.00503l0.0161,-0.00359c0.67188,0.09373 1.34373,0.18767 2.01556,0.28181c0.77884,0.17091 1.55175,0.36821 2.32021,0.58436c2.16556,0.26414 4.34304,0.30731 6.5314,0.4086l0.49914,0.00215c0,0 0.49999,0.00258 0.49742,0.50257zM98.84682,166.29621c-2.23539,-0.00846 -4.47173,0.04995 -6.72386,0.17442c-0.29049,0.01605 -0.58097,0.03211 -0.87146,0.04817c0.28118,0.0513 0.54721,0.0939 0.78749,0.11651c1.66163,0.15637 3.33676,0.29916 5.0152,0.41453c1.17423,-0.0429 2.35437,-0.06051 3.51875,-0.08051c-0.53679,-0.22547 -1.03643,-0.44187 -1.44785,-0.57995c-0.09274,-0.03112 -0.18549,-0.06217 -0.27828,-0.09316zM102.76925,166.37978c0.33554,0.16245 0.66461,0.3308 0.98637,0.50558c1.07301,-0.04639 2.11289,-0.11871 3.10038,-0.24154c-0.29603,-0.03999 -0.57007,-0.0729 -0.80989,-0.08917c-1.09526,-0.07431 -2.18698,-0.13257 -3.27686,-0.17488zM110.06458,171.30171c-1.28243,-0.19991 -2.73445,-0.66233 -3.85687,-0.82691c-0.68034,-0.09976 -1.36074,-0.19914 -2.04115,-0.29841c-0.95889,0.05793 -1.91674,0.11358 -2.87421,0.16533c1.60315,0.24734 3.17449,0.55592 4.67951,0.96929c0.01712,-0.00163 0.03425,-0.00328 0.0514,-0.00495l0.02208,0.0206l-0.00021,-0.0213l0.00562,-0.00006l0.00002,-0.01134l0.9999,0.00155h0.00007c0.00001,0 0.00002,0 0.00003,0c0.24663,0.00037 0.45139,0.17931 0.49193,0.41444c0.8399,-0.15047 1.68047,-0.28879 2.52188,-0.40826zM89.30641,170.66525c2.72874,0.29476 5.48442,0.4251 8.23638,0.53812c-1.30203,-0.1813 -2.60289,-0.36936 -3.90326,-0.56179c-0.4925,0.01001 -0.98535,0.01785 -1.47864,0.02332c-0.95149,0.00014 -1.90299,0.00026 -2.85448,0.00036zM88.94609,168.19612c0.26358,-0.08462 0.53107,-0.16306 0.80208,-0.23581c-1.44147,-0.26213 -2.89342,-0.5306 -4.34281,-0.72294c0.99455,0.35678 1.98539,0.74111 2.83129,0.86399c0.23551,0.03421 0.47202,0.06572 0.70943,0.09476z" fill="#ffe605" stroke="none" stroke-width="0.5" stroke-linecap="butt"></path><path d="M49.67775,142.98022c-0.4756,-0.1543 -0.3213,-0.62989 -0.3213,-0.62989l0.09976,-0.30751c1.09083,-3.34447 3.64442,-5.63837 6.28539,-7.80878c-1.63392,1.09776 -3.28004,2.18328 -4.99777,3.18154c-1.50934,0.87715 -2.88903,1.89394 -4.49083,2.38313l0.04924,0.17897l-0.95311,0.26222c-0.04551,0.01363 -0.09375,0.02096 -0.14369,0.02096c-0.27614,0 -0.5,-0.22386 -0.5,-0.5c0,-0.08825 0.02286,-0.17115 0.06299,-0.24312l0.46497,-0.87456l0.02548,0.01355l0.03043,-0.09716c1.32093,-1.08653 2.62932,-2.19679 4.03164,-3.17665c1.87967,-1.31257 3.76803,-2.61183 5.65496,-3.91309c-1.95947,1.18131 -3.91906,2.3624 -5.87848,3.54379c-1.72294,1.03881 -3.40062,2.36085 -5.29474,2.95482l0.06637,0.1859l-0.93085,0.33231c-0.05559,0.02133 -0.11595,0.03301 -0.17904,0.03301c-0.27614,0 -0.5,-0.22386 -0.5,-0.5c0,-0.15997 0.07513,-0.3024 0.19202,-0.39392l0.75569,-0.60233c0.64823,-0.70581 1.32182,-1.39084 2.01326,-2.06065c-1.14668,0.70792 -2.32173,1.36127 -3.53966,1.9243l-0.89805,0.41516c-0.06625,0.03241 -0.14073,0.05061 -0.21945,0.05061c-0.27614,0 -0.5,-0.22386 -0.5,-0.5c0,-0.18172 0.09694,-0.3408 0.24193,-0.42834l0.8402,-0.52619l0.06004,0.09587c1.47316,-1.31664 3.25391,-2.34285 4.8721,-3.46837c0.04882,-0.03396 0.09764,-0.06793 0.14644,-0.1019c-2.93436,1.74751 -5.88455,3.4282 -8.96753,4.95193c-1.58664,0.78418 -3.01396,1.72111 -4.65081,2.04464l0.04091,0.21359l-0.97221,0.1862c-0.03355,0.0071 -0.06833,0.01083 -0.10399,0.01083c-0.27614,0 -0.5,-0.22386 -0.5,-0.5c0,-0.17012 0.08496,-0.32039 0.21475,-0.41071l0.79951,-0.57121c3.07337,-2.47397 6.12235,-4.9515 9.29915,-7.25973c-4.35644,2.54069 -8.85852,5.17426 -13.95166,5.17426c0,0 -0.5,0 -0.5,-0.5c0,-0.5 0.5,-0.5 0.5,-0.5c5.96374,0 11.14692,-3.82546 16.20026,-6.61419c6.12767,-3.3816 11.32853,-8.2322 17.30196,-11.8434c0.581,-0.35093 1.16223,-0.70147 1.74367,-1.05166l0.03709,-0.00537l-0.00417,-0.00991l0.9115,-0.38341c0.06233,-0.02791 0.13142,-0.04343 0.20413,-0.04343c0.27614,0 0.5,0.22386 0.5,0.5c0,0.13413 -0.05281,0.25592 -0.13877,0.34571l-0.68957,0.72302l-0.12098,-0.11538c-1.078,1.27264 -2.48955,2.19772 -3.84277,3.27403c-3.7266,2.96403 -7.5279,5.43986 -11.60893,7.88947c-4.50154,2.70201 -8.60767,5.89541 -12.68495,9.16445c0.88918,-0.38037 1.77971,-0.71654 2.46927,-1.05735c3.88742,-1.92132 7.53524,-4.17285 11.24056,-6.42301c3.10694,-1.88678 6.18516,-3.81992 9.26033,-5.75536c2.45053,-1.80625 4.87808,-3.66235 7.34921,-5.44215c0.81073,-0.67982 1.79452,-1.50646 2.71264,-1.9028c0.17536,-0.11924 0.35106,-0.23788 0.52711,-0.35589l0.82504,-0.55303c0.08066,-0.05577 0.17852,-0.08844 0.28401,-0.08844c0.27614,0 0.5,0.22386 0.5,0.5c0,0.17136 -0.0862,0.32259 -0.21761,0.41268l-0.81179,0.57207l-0.01338,-0.01898l-0.00948,0.00635c-0.19883,0.13328 -0.39722,0.26738 -0.59518,0.40223c0.2617,0.01601 0.469,0.23332 0.469,0.49905c0,0.17174 -0.08658,0.32325 -0.21848,0.41327l-0.81286,0.57043l-0.0342,-0.04874c-0.09008,0.05542 -0.20435,0.12571 -0.29443,0.18113c-1.37778,1.26297 -3.04638,2.23606 -4.5827,3.31418c-3.54649,2.48878 -7.09854,4.96984 -10.63485,7.47306c-0.1705,0.12069 -0.34091,0.242 -0.51127,0.3638c-2.06004,1.7705 -4.14753,3.53472 -6.10283,5.41412c0.61583,-0.32068 1.21706,-0.61376 1.6863,-0.89668c4.00187,-2.41283 8.00307,-4.82676 12.00579,-7.23818c1.20829,-0.60953 2.3664,-1.24381 3.51036,-1.92469c0.3057,-0.21372 0.61449,-0.40685 0.91845,-0.55854c0.24793,-0.154 0.49565,-0.31048 0.74352,-0.46967l0.82899,-0.54334c0.07989,-0.0541 0.17626,-0.0857 0.28,-0.0857c0.27614,0 0.5,0.22386 0.5,0.5c0,0.17123 -0.08608,0.32236 -0.21732,0.41248l-0.81143,0.57262l-0.01964,-0.02784l-0.01388,0.0091l-0.00125,-0.0019l-0.0007,0.00317c-0.14286,0.09175 -0.28568,0.18264 -0.42852,0.27271c-1.34564,1.20923 -2.95463,2.15723 -4.43828,3.20422c-3.54144,2.49914 -7.13349,4.92317 -10.68734,7.40481c-0.6612,0.46141 -1.29754,0.95556 -1.92673,1.45924c1.33691,-0.7744 2.824,-1.43033 4.00383,-2.11599c3.19167,-1.85484 6.02582,-4.13205 9.16634,-6.03139l0.84895,-0.51291c0.07694,-0.04831 0.16797,-0.07625 0.26552,-0.07625c0.27614,0 0.5,0.22386 0.5,0.5c0,0.15399 -0.06961,0.29172 -0.17908,0.38344l-0.75978,0.64486l-0.06657,-0.07843c-3.51274,4.23122 -9.53022,6.36977 -11.33855,11.97604l-0.09976,0.30751c0,0 -0.1543,0.4756 -0.62989,0.3213zM58.4966,119.57219c-1.95535,1.33938 -3.85421,2.76954 -5.76306,4.18484c1.83858,-1.20787 3.63379,-2.47628 5.3955,-3.87749c0.11751,-0.09346 0.24025,-0.19664 0.36756,-0.30735z" fill="#ffe605" stroke="none" stroke-width="0.5" stroke-linecap="butt"></path><path d="M158.79399,140.44419c-0.26403,0.4246 -0.68863,0.16058 -0.68863,0.16058l-0.16248,-0.10103c-2.25262,-1.40072 -4.47344,-2.88653 -6.7976,-4.16511c-2.06027,-1.13389 -5.59732,-3.51212 -7.98461,-3.58406c-0.9311,-0.02806 -1.94163,1.05906 -2.90609,0.92505c-0.14669,-0.02038 -1.66817,-1.05929 -1.87041,-1.19516c-1.94158,-1.30436 -3.96901,-2.53737 -5.78962,-4.0064c-1.49989,-1.21136 -2.96073,-2.67136 -4.69365,-3.52005c-0.16242,-0.07955 -2.25606,-0.90571 -2.28496,-0.87437c-0.36111,0.39165 0.47504,0.96314 0.60154,1.48063c0.18646,0.76278 0.42825,3.95972 -0.43963,4.48442c-1.10155,0.66598 -4.94749,-1.93609 -5.9488,-2.44408c-1.48324,-0.79632 -2.87149,-1.49064 -4.46621,-2.03309c-0.53068,-0.18051 -1.02819,-0.85621 -1.55015,-0.65185c-0.54345,0.21278 -0.55807,1.79513 -0.48912,2.20545c0.34525,2.05453 0.88115,4.04827 0.20702,6.08593c-0.15343,0.46376 -0.09175,1.21955 -0.56147,1.35362c-0.35431,0.10113 -1.60836,-1.2855 -1.8857,-1.57298c-0.46288,-0.47978 -0.92576,-0.95956 -1.38864,-1.43934c-2.73944,-2.83946 -4.83112,-6.3892 -8.0135,-8.78321c-0.28751,-0.21629 -2.66995,-2.3421 -2.74661,-2.32858c-0.03031,0.00534 -0.43575,4.12899 -0.4835,4.50008c-0.38355,2.98031 -0.7976,5.95069 -1.2409,8.92322c-0.05786,0.38798 -0.27686,2.24317 -0.60477,2.36899c-0.50345,0.19317 -1.70686,-1.09928 -2.03722,-1.41933c-1.40436,-1.36054 -2.92978,-2.59163 -4.03074,-4.15599c-0.11271,-0.04685 -0.18549,-0.12012 -0.18549,-0.12012l-0.01939,-0.01952l-0.04316,0.03814l-0.66071,-0.74765c-0.07888,-0.08839 -0.12682,-0.20499 -0.12682,-0.33278c0,-0.27614 0.22386,-0.5 0.5,-0.5c0.13871,0 0.26423,0.05648 0.3548,0.1477l0.7047,0.70931c0,0 0.12478,0.1256 0.1511,0.30157c1.44174,0.80087 3.06611,3.00514 4.05178,3.96134c0.37092,0.35984 0.53242,1.48041 0.97164,1.2081c0.73085,-0.45311 0.00589,-1.72582 0.13272,-2.57632c0.39315,-2.63631 0.75055,-5.27111 1.09064,-7.91429c0.11815,-0.91819 0.12262,-4.97794 1.18099,-5.32816c0.52272,-0.17297 2.40575,1.5536 2.84405,1.88385c3.54905,2.67412 5.87962,6.32753 8.93005,9.48934c0.65305,0.6769 1.55345,1.38355 2.08295,2.159c0.11623,0.17021 -0.00095,0.6426 0.19725,0.58603c0.1982,-0.05657 -0.15067,-0.39593 -0.1418,-0.60186c0.02734,-0.6349 0.39393,-1.22683 0.40867,-1.86215c0.03969,-1.71148 -2.0378,-6.16216 0.48658,-7.15056c1.52871,-0.59855 5.53824,2.02864 6.8437,2.72962c0.5946,0.30161 4.53383,2.73771 4.96867,2.47481c1.21128,-0.73231 -1.06505,-5.04386 -0.37972,-5.78715c0.18274,-0.1982 2.16684,0.08375 2.49294,0.18777c2.23226,0.7121 4.06471,2.66535 5.84917,4.10654c1.53982,1.24481 3.24559,2.29267 4.88888,3.39664c0.49131,0.33006 1.71253,1.51351 2.28044,1.59239c0.79782,0.11081 1.94662,-0.95979 2.7986,-0.93411c2.57841,0.0777 6.22769,2.49181 8.43665,3.70753c2.33941,1.28805 4.57566,2.7818 6.8435,4.19199l0.16248,0.10103c0,0 0.4246,0.26403 0.16058,0.68863z" fill="#ffe605" stroke="none" stroke-width="0.5" stroke-linecap="butt"></path><path d="M183.32503,165.66656c-0.14984,0.47702 -0.62686,0.32718 -0.62686,0.32718l-0.78834,-0.24763c-3.94275,-1.23848 -8.60329,-2.09906 -12.38283,-3.95852l-0.01969,0.0627l-0.94318,-0.29627c-0.20852,-0.06022 -0.36102,-0.25251 -0.36102,-0.48043c0,-0.23022 0.15559,-0.4241 0.36736,-0.48222l0.94724,-0.28357c0.94699,-0.28349 2.48153,-0.96678 4.01573,-1.52806c-0.43595,0.02921 -0.87191,0.05818 -1.30774,0.08843c-4.32293,0.30008 -8.64586,0.60017 -12.96879,0.90025c-1.98816,0.13801 -4.01607,0.45499 -5.99415,0.2923l0.00855,0.1232l-0.99257,0.0689c-0.01308,0.00103 -0.02631,0.00155 -0.03965,0.00155c-0.12511,0 -0.23949,-0.04595 -0.32718,-0.1219c-6.32407,1.47511 -12.82552,2.70537 -18.92172,4.89183c-5.64773,2.02561 -11.29547,4.05123 -16.9432,6.07684c0,0 -0.47064,0.1688 -0.63945,-0.30184c-0.1688,-0.47064 0.30184,-0.63945 0.30184,-0.63945c5.64773,-2.02561 11.29547,-4.05123 16.9432,-6.07684c6.56547,-2.35477 13.595,-3.60969 20.37532,-5.24252c5.1839,-1.24838 10.35553,-2.54142 15.52678,-3.84117l0.95894,-0.24102c0.04228,-0.01162 0.0868,-0.01782 0.13277,-0.01782c0.27614,0 0.5,0.22386 0.5,0.5c0,0.20552 -0.12399,0.38207 -0.30125,0.45894l-0.89821,0.41327l-0.07459,-0.16211l-0.07391,0.01858c-0.00947,0.00238 -0.01893,0.00476 -0.0284,0.00714c-1.45166,0.73677 -3.09279,0.96485 -4.76048,1.38288c-1.9476,0.4882 -3.89274,0.99162 -5.84082,1.48234c0.00713,-0.00047 0.01424,-0.00095 0.02131,-0.00144c4.65546,-0.32317 9.31093,-0.64634 13.96639,-0.9695c1.65779,-0.11508 3.31752,-0.21107 4.9714,-0.3735l0.98862,-0.09704c0.0182,-0.00201 0.0367,-0.00304 0.05544,-0.00304c0.27614,0 0.5,0.22386 0.5,0.5c0,0.21109 -0.13081,0.39163 -0.3158,0.46498l-0.91031,0.38519l-0.04737,-0.11196c-2.09121,1.22052 -4.5602,1.76772 -6.90629,2.43095c0.74124,0.15562 1.49474,0.51483 2.17697,0.72913c3.18013,0.99893 6.36027,1.99786 9.5404,2.99679l0.78834,0.24763c0,0 0.47702,0.14984 0.32718,0.62686z" fill="#ffe605" stroke="none" stroke-width="0.5" stroke-linecap="butt"></path><path d="M181.79133,202.20329c-1.34248,1.01575 -4.03799,1.72347 -5.86412,2.26451c-4.12122,1.59147 -8.24245,3.18294 -12.36367,4.77441c-5.59716,2.16143 -11.19433,4.32285 -16.79149,6.48428c0,0 -0.46643,0.18012 -0.64655,-0.28631c-0.18012,-0.46643 0.28631,-0.64655 0.28631,-0.64655c5.59716,-2.16143 11.19433,-4.32285 16.79149,-6.48428c3.48691,-1.34652 6.97382,-2.69304 10.46074,-4.03956c0.09758,-0.11929 0.2322,-0.17005 0.2322,-0.17005l0.47977,-0.18094c2.17303,-0.81952 4.46683,-1.97257 6.78509,-2.54411c0.23314,-0.09003 0.46628,-0.18006 0.69941,-0.27009l0.00365,-0.00141l-0.00278,-0.00736l0.9249,-0.34881c0.05782,-0.02336 0.12101,-0.03623 0.18721,-0.03623c0.27614,0 0.5,0.22386 0.5,0.5c0,0.21674 -0.13791,0.40128 -0.33077,0.47063c-0.14314,0.05528 -1.20826,0.46659 -1.3514,0.52186z" fill="#ffe605" stroke="none" stroke-width="0.5" stroke-linecap="butt"></path><path d="M159.45843,239.12943c0.30497,0.39623 -0.09126,0.70119 -0.09126,0.70119l-0.35967,0.27683c-2.41607,1.85961 -5.23972,4.97233 -8.03342,6.1631c-1.13231,0.48263 -2.8549,0.44714 -4.07658,0.63159c0,0 -0.4944,0.07464 -0.56904,-0.41975c-0.07464,-0.4944 0.41975,-0.56904 0.41975,-0.56904c1.13275,-0.17102 2.78719,-0.11664 3.83377,-0.56272c2.69877,-1.15031 5.47543,-4.23445 7.81559,-6.03563l0.35967,-0.27683c0,0 0.39623,-0.30497 0.70119,0.09126z" fill="#ffe605" stroke="none" stroke-width="0.5" stroke-linecap="butt"></path><path d="M36.86364,181.8307c-0.04278,-0.49817 0.45538,-0.54095 0.45538,-0.54095l0.36114,-0.03102c1.9181,-0.16378 3.87043,-0.34693 5.80364,-0.33816c3.80121,-1.27865 7.9831,-2.06763 11.31136,-1.59646l0.00034,-0.11932l0.99981,0.00285c0.00006,0 0.00012,0 0.00018,0c0.27549,0.00077 0.49857,0.22433 0.49857,0.5c0,0.23348 -0.16004,0.42959 -0.3764,0.48461l-0.95279,0.26537c-1.84804,0.51452 -3.69223,0.96934 -5.54155,1.36118c0.08698,0.03038 0.17379,0.0617 0.26043,0.09396l0.01924,-0.0898l0.82272,0.17625c1.74979,0.09799 3.48021,0.33289 5.15333,0.79895c0.45247,0.12604 1.49094,0.32263 2.56261,0.63028c1.88428,-0.23275 3.77608,-0.27148 5.628,0.03814l0.00001,-0.0855l0.99999,0.00017h0.00001c0.2761,0.00005 0.49992,0.22389 0.49992,0.5c0,0.22215 -0.14488,0.41046 -0.34531,0.47561l-0.93256,0.32747c-0.88717,0.31153 -1.7748,0.62164 -2.6642,0.92568c-0.00027,0.02359 -0.00137,0.04736 -0.00333,0.07132c-0.05505,0.67365 -2.35243,1.57722 -2.89114,1.85722c-2.05722,1.06927 -4.55477,1.43572 -6.79571,2.02229c-0.21029,0.05504 -0.42774,0.12359 -0.64949,0.19548c3.11846,0.17016 6.53639,0.54277 9.42706,1.52508l0.20393,0.00026l0.00194,-0.01133l0.06671,0.01142l0.15019,0.00019c0.00003,0 0.00005,0 0.00008,0c0.09214,0.00012 0.17845,0.02516 0.25253,0.06874l0.5079,0.08692c0.24003,0.03665 0.42391,0.24397 0.42391,0.49425c0,0.0268 -0.00211,0.05311 -0.00617,0.07877c0.58059,0.14538 1.14505,0.33152 1.68827,0.5664l0.04256,-0.11407l0.92597,0.34551c0.19566,0.06784 0.33614,0.25378 0.33614,0.47253c0,0.20827 -0.12734,0.3868 -0.30841,0.46198l-0.90425,0.39948c-4.37264,1.92792 -11.03803,4.10936 -15.81441,3.20267c-1.19549,-0.23092 -4.53338,-0.14607 -3.12103,-2.36588c0.41815,-0.65721 2.53134,-0.74871 3.22483,-0.85836c1.02174,-0.16156 2.04102,-0.32222 3.05645,-0.4992c-0.53089,-0.08104 -1.05118,-0.19988 -1.55642,-0.36387l-0.03125,0.14585l-0.96837,-0.20749c-0.23055,-0.0445 -0.40468,-0.24738 -0.40468,-0.49092c0,-0.2728 0.21848,-0.49458 0.49001,-0.4999l0.98872,-0.02255c0.26237,-0.0195 0.52863,-0.04177 0.79828,-0.066c-1.25162,-0.13911 -2.48247,-0.36455 -3.67336,-0.72364c-1.57925,-0.47621 -2.9793,-1.0035 -3.46276,-1.7231c-1.55332,-0.0043 -3.1312,-0.20963 -4.80339,-0.72584c-1.12868,-0.34843 -4.86869,-0.82789 -4.76237,-2.52322c0.03476,-0.55424 2.06146,-1.91456 2.49824,-2.28196c0.39364,-0.23789 0.81578,-0.47718 1.26225,-0.71527c-0.15306,0.00902 -0.30627,0.0176 -0.45964,0.02572c0,0 -0.4993,0.02645 -0.52575,-0.47285c-0.02645,-0.4993 0.47285,-0.52575 0.47285,-0.52575c0.99812,-0.05288 1.98935,-0.12503 2.97503,-0.21601c0.19299,-0.08455 0.38838,-0.16832 0.58596,-0.25117c-0.96293,0.08252 -1.92663,0.18737 -2.89969,0.27141l-0.36114,0.03102c0,0 -0.49817,0.04278 -0.54095,-0.45538zM49.66794,183.21295c-2.43637,0.22648 -4.75379,0.52141 -7.06036,-0.04586l-0.01749,0.0005l-0.01203,0.12248l-0.98979,-0.09721c-0.08534,-0.00735 -0.16456,-0.03613 -0.23224,-0.08095c-0.22511,0.02428 -0.45047,0.0476 -0.67612,0.06994c-1.28753,0.47758 -2.54115,1.04904 -3.74296,1.77016c-0.29849,0.25269 -1.99884,1.30158 -2.0875,1.58727c-0.11024,0.35526 3.69887,1.33655 4.06436,1.44937c1.54026,0.47548 2.99666,0.67159 4.42894,0.68467c0.2124,-0.48318 0.77501,-1.03825 1.80119,-1.6869c1.73291,-1.08618 3.82446,-1.4534 5.78686,-1.97772c1.55801,-0.41627 3.16957,-0.83988 4.80301,-1.16769c-0.1449,-0.03402 -0.25604,-0.06086 -0.32311,-0.07954c-1.53217,-0.42679 -3.11591,-0.65189 -4.71886,-0.75361c-0.00873,0.00207 -0.01754,0.00391 -0.02644,0.00551l-0.97133,0.19505l-0.00151,-0.00751zM57.94263,186.75623c-2.08946,0.65375 -4.19768,1.24169 -6.34112,1.70502c-2.48953,0.53813 -4.76772,1.05095 -7.0631,1.17858c0.50031,0.38762 1.71594,0.59587 2.89189,0.89221c-0.10366,-0.09161 -0.16903,-0.22557 -0.16903,-0.37479c0,-0.22415 0.14749,-0.41384 0.35072,-0.47733l0.93631,-0.31676l0.04447,0.13144c2.68812,-1.24074 5.86562,-1.33125 8.64236,-2.40326c0.24381,-0.09413 0.47761,-0.21031 0.70752,-0.33511zM48.13112,190.72438c2.2267,0.67594 4.80229,0.72517 7.3273,0.66645c-2.22182,-0.3605 -4.42711,-0.65887 -6.70363,-0.73221l-0.85257,-0.00119c0.07701,0.02173 0.15338,0.04402 0.2289,0.06695zM63.19674,193.35732c-1.06268,-0.0185 -2.24655,-0.29887 -3.39411,-0.51522c-0.58306,0.12725 -1.1821,0.25526 -1.79083,0.37369c-2.19701,0.69769 -4.58599,1.08886 -6.70682,1.42436c-1.62574,0.25718 -3.26892,0.46441 -4.87989,0.80426c-0.31325,0.06608 -1.05634,0.36856 -0.79,0.54618c0.39465,0.26319 2.112,0.27136 2.6364,0.37265c4.43225,0.87275 10.76731,-1.19799 14.92525,-3.00593zM44.62192,188.63858c2.19766,-0.13543 4.38042,-0.6386 6.76831,-1.15477c2.88159,-0.62288 5.69884,-1.47428 8.49262,-2.40698c-0.48376,-0.25003 -1.22829,-0.49085 -1.97565,-0.69796c-3.62574,0.38487 -9.16029,1.49454 -12.22894,3.45283c-0.49152,0.31069 -0.83527,0.57669 -1.05634,0.80688zM49.90352,180.69241c0.11775,-0.02597 0.23549,-0.0522 0.35321,-0.07869c-0.09683,0.01746 -0.18968,0.03718 -0.27793,0.0596c-0.02509,0.00638 -0.05019,0.01274 -0.07528,0.01909zM60.98295,184.70531c0.15619,-0.0533 0.31232,-0.1068 0.4684,-0.16046c-0.23717,-0.01082 -0.47687,-0.02704 -0.71601,-0.04557c0.08987,0.06636 0.17277,0.13501 0.24761,0.20603z" fill="#ffe605" stroke="none" stroke-width="0.5" stroke-linecap="butt"></path><path d="M-18.25268,181.10593c0.03567,0.49873 -0.46305,0.5344 -0.46305,0.5344l-0.24047,0.0172c-3.04099,0.20922 -3.53735,2.48764 -3.89585,5.08334c0.14843,6.81159 3.78493,13.43312 5.70935,19.89973c0.7683,2.01602 2.00116,3.9315 3.5064,5.70271c-2.07777,-5.53693 -1.91806,-10.78006 -1.91991,-16.74504c-0.00075,-7.0549 1.97531,-14.00818 4.17386,-20.6359c2.339,-7.05059 5.1835,-12.70347 9.65936,-18.62469c4.27188,-5.65137 10.20018,-9.55166 15.75944,-13.89862c5.52365,-4.31901 11.37355,-8.18408 17.10449,-12.2191c5.37442,-3.77722 12.47939,-7.65874 18.65476,-9.87079c6.5737,-2.35474 13.13143,-5.09529 19.89637,-6.82807c6.8156,-1.74577 13.65779,-3.25131 20.64023,-4.08498c6.95166,-0.83 13.90357,-1.80481 20.88069,-2.38393c6.93521,-0.57564 14.08074,0.22034 21.03526,0.49187c7.0082,0.27362 14.00009,-0.0339 21.00182,0.4645c6.99926,0.49823 13.97037,0.99418 20.93949,1.81725c6.96589,0.82269 13.86617,1.99159 20.78291,3.15008c6.95567,1.16502 13.69895,2.73467 20.56967,4.29351c4.683,1.06249 10.18048,2.53455 14.13188,5.37072c1.61263,1.15749 3.60207,2.73844 4.15926,4.65446c0.12944,3.03999 -1.60981,4.93814 -3.31088,7.36732c-2.54571,3.63533 -4.69939,7.12156 -7.61936,10.52509c-4.53633,5.28758 -8.73385,11.07805 -13.73089,15.93989c-5.00651,4.8676 -10.04018,9.70812 -14.97514,14.64821c-1.8961,2.72398 -3.80042,5.4423 -5.70273,8.16195c-0.42433,0.60665 -1.81467,2.25065 -1.32473,3.10767c0.78837,1.37904 3.97172,3.24873 5.36317,4.02488c1.93113,1.09164 4.40967,1.43814 6.54825,2.0215c4.51842,1.23253 9.02433,2.45543 13.51578,3.78807c6.46357,2.72829 12.90786,5.44527 19.3461,8.23657c3.5068,1.52037 6.59024,3.03633 9.76338,5.12787c0.83132,0.54795 2.49801,1.25898 2.18378,2.63562c-0.18607,0.81517 -2.59698,2.25664 -3.26105,2.7927c-0.99579,0.80383 -1.72351,0.88178 -2.9553,1.12561c-6.87161,1.36021 -13.86126,2.01707 -20.79586,3.02205c-6.90967,1.00135 -13.70548,2.7476 -20.50411,4.31012c-2.56135,0.58857 -5.24824,0.9228 -7.7262,1.80654c-0.55768,0.19889 -1.28127,0.11748 -1.69045,0.54543c-0.93888,0.98194 -0.04172,2.18227 0.47638,3.03264c0.99111,1.62675 4.03912,2.35321 5.77435,3.14272c6.40012,2.91198 12.83182,5.38842 19.41574,7.85976c4.70394,1.76631 9.19727,4.00004 13.68964,6.2352c0.59697,0.29702 3.82072,1.50374 3.85587,2.20888c0.01951,0.39153 -1.72181,1.37852 -2.03454,1.5706c-6.99375,0.53757 -14.04837,0.69773 -20.95161,1.975c-2.27001,0.4199 -5.64876,0.238 -7.71244,1.08088c-0.94387,0.38551 1.9001,1.65126 2.02519,1.71663c2.75814,1.44143 5.19064,2.50027 8.20981,3.26519c3.44517,1.04459 7.47648,1.7806 10.37126,4.0628c3.58344,2.82513 1.99818,6.84762 -1.99345,8.07662c-3.17178,0.97657 -6.69941,0.74808 -10.01855,0.95094c-3.61688,0.22105 -7.26741,0.84919 -10.89671,1.17512c-6.96216,0.62298 -13.97614,0.68742 -20.95996,1.21336c-6.95312,0.52177 -14.03467,-0.75545 -21.00623,-0.80972c-6.95771,-0.06847 -13.68562,-3.38533 -20.6214,-3.89235c-6.88154,-0.50305 -13.92146,-2.42568 -20.66098,-3.98408c-6.71282,-2.05601 -13.53749,-3.29342 -20.41752,-4.6755c-6.73516,-1.35298 -14.1713,-1.9067 -20.60841,-4.30205c-6.57942,-2.44831 -13.05628,-4.99245 -19.67335,-7.33328c-6.11036,-3.44727 -13.03916,-4.9601 -19.45309,-7.71805c-6.48445,-2.53186 -13.14998,-5.1274 -19.19677,-8.57808c-6.08604,-3.47331 -11.76799,-7.56792 -17.85978,-10.95203c-5.71024,-3.17394 -12.39957,-8.52876 -14.80029,-14.84133c-1.96918,-6.6004 -5.62762,-13.3185 -5.76057,-20.27824c0.41914,-3.10453 1.23285,-5.75752 4.82284,-6.02318l0.24047,-0.0172c0,0 0.49873,-0.03567 0.5344,0.46305z" fill="url(#color-1)" stroke="none" stroke-width="0.5" stroke-linecap="butt"></path></g></g></svg>