<svg version="1.1" xmlns="http://www.w3.org/2000/svg" xmlns:xlink="http://www.w3.org/1999/xlink" width="156.85974" height="280.31488" viewBox="0,0,156.85974,280.31488"><defs><radialGradient cx="213.58479" cy="194.85913" r="4.2254" gradientUnits="userSpaceOnUse" id="color-1"><stop offset="0" stop-color="#fbc410"></stop><stop offset="1" stop-color="#fbc410" stop-opacity="0"></stop></radialGradient><radialGradient cx="202.42452" cy="160.00485" r="37.98" gradientUnits="userSpaceOnUse" id="color-2"><stop offset="0" stop-color="#fffbe2"></stop><stop offset="1" stop-color="#fffbe2" stop-opacity="0"></stop></radialGradient></defs><g transform="translate(-122.37876,61.65193)"><g data-paper-data="{&quot;isPaintingLayer&quot;:true}" fill-rule="nonzero" stroke-linejoin="miter" stroke-miterlimit="10" stroke-dasharray="" stroke-dashoffset="0" style="mix-blend-mode: normal"><path d="M238.9885,217.91295c-21.81525,0 -39.5,-17.68475 -39.5,-39.5c0,-21.81525 17.68475,-39.5 39.5,-39.5c21.81525,0 39.5,17.68475 39.5,39.5c0,21.81525 -17.68475,39.5 -39.5,39.5z" data-paper-data="{&quot;index&quot;:null}" fill="#000000" stroke="#000000" stroke-width="1.5" stroke-linecap="butt"></path><g data-paper-data="{&quot;index&quot;:null}" stroke="none" stroke-width="0" stroke-linecap="butt"><path d="M258.71106,168.50345c7.45315,0 13.49512,5.141 13.49512,5.141c0,0 -6.04197,5.141 -13.49512,5.141c-7.45315,0 -13.49512,-5.141 -13.49512,-5.141c0,0 6.04197,-5.141 13.49512,-5.141z" fill="#ffffff"></path><path d="M259.35368,178.78545c-2.8393,0 -5.141,-2.30171 -5.141,-5.141c0,-2.8393 2.30171,-5.141 5.141,-5.141c2.8393,0 5.141,2.30171 5.141,5.141c0,2.8393 -2.30171,5.141 -5.141,5.141z" fill="#000000"></path></g><g data-paper-data="{&quot;index&quot;:null}" stroke="none" stroke-width="0" stroke-linecap="butt"><path d="M229.03426,168.6195c7.45315,0 13.49512,5.141 13.49512,5.141c0,0 -6.04197,5.141 -13.49512,5.141c-7.45315,0 -13.49512,-5.141 -13.49512,-5.141c0,0 6.04197,-5.141 13.49512,-5.141z" fill="#ffffff"></path><path d="M229.67689,178.9015c-2.8393,0 -5.141,-2.30171 -5.141,-5.141c0,-2.83929 2.30171,-5.141 5.141,-5.141c2.8393,0 5.141,2.30171 5.141,5.141c0,2.8393 -2.30171,5.141 -5.141,5.141z" fill="#000000"></path></g><g><path d="M215.28353,198.99893c-1.30273,0.54067 -3.1306,-0.88066 -4.08265,-3.17461c-0.95203,-2.29397 -0.66776,-4.59189 0.63501,-5.13254c1.30273,-0.54067 3.1306,0.88066 4.08266,3.17463c0.95203,2.29397 0.66776,4.59189 -0.63501,5.13254z" fill="#fbc410" stroke="none" stroke-width="0" stroke-linecap="butt"></path><path d="M215.30862,199.0127c-1.30273,0.54067 -3.1306,-0.88066 -4.08265,-3.17461c-0.95203,-2.29397 -0.66776,-4.59189 0.63501,-5.13254c1.30273,-0.54067 3.1306,0.88066 4.08265,3.17461c0.95203,2.29397 0.66776,4.59189 -0.63501,5.13254z" fill="none" stroke="url(#color-1)" stroke-width="2.5" stroke-linecap="butt"></path><path d="M199.94069,136.50554c0,0 -0.51584,-0.04918 -0.88063,-0.60961c-0.56721,-0.87136 -1.12657,-2.45642 -1.57025,-2.98621c-0.72904,-0.87054 0.07203,0.61804 0.52443,-0.04308c0.4524,-0.66113 -0.85277,-3.19342 -0.12374,-2.32292c0.31353,0.37437 1.54439,1.23906 1.92476,2.43402c0.50409,1.58365 0.12543,3.5278 0.12543,3.5278z" fill="#43282c" stroke="none" stroke-width="0" stroke-linecap="butt"></path><path d="M198.84961,136.87592c0,0 -0.04826,0.63802 -0.82017,-0.4248c-2.04992,-2.82247 -1.60461,-3.47449 -1.9866,-3.93061c-0.90261,-1.0778 -0.17946,0.70733 0.32515,-0.03007c0.50459,-0.7374 0.57754,-2.57313 1.48016,-1.49534c0.32199,0.38448 1.07639,1.46312 1.22579,2.40857c0.26945,1.7049 -0.22432,3.47225 -0.22432,3.47225z" fill="#885058" stroke="none" stroke-width="0" stroke-linecap="butt"></path><path d="M190.55608,139.98203c0,0 -0.22615,0.10647 -1.77613,-1.74432c-0.87947,-1.05013 -1.22122,-3.89054 -0.8297,-4.46265c0.3915,-0.57212 0.4048,-0.47878 1.28423,0.57139c0.36699,0.43822 0.37488,1.23781 0.58921,2.31715c0.29931,1.50722 0.73237,3.31846 0.73237,3.31846z" fill="#43282c" stroke="none" stroke-width="0" stroke-linecap="butt"></path><path d="M191.84131,135.43327c-0.12257,0.17913 0.28248,1.26533 0.37437,2.22737c0.09933,1.03972 -0.11605,1.95326 -0.3318,1.94608c-0.5258,-0.01749 -1.81798,-2.42703 -2.3158,-3.02144c-0.89105,-1.06398 -0.757,-2.399 -0.17903,-3.24359c0.57796,-0.84459 0.39631,-2.22193 1.28736,-1.15796c0.89105,1.06398 1.74285,2.40495 1.16488,3.24954z" fill="#885058" stroke="none" stroke-width="0" stroke-linecap="butt"></path><path d="M192.46616,132.85101c-1.39201,2.03419 -2.13228,6.32187 -4.26153,3.7794c-2.12925,-2.54249 -3.54697,-15.51421 -2.15496,-17.5484c1.39201,-2.03419 2.23814,4.09474 4.36739,6.63722c2.12925,2.54249 3.4411,5.0976 2.04911,7.13178z" fill="#959ba2" stroke="none" stroke-width="0" stroke-linecap="butt"></path><path d="M197.93096,133.13019c-0.35147,0.17799 -0.93825,0.27133 -1.42356,-0.02093c-0.82814,-0.4987 -1.60182,-1.76815 -2.15237,-3.10543c-0.87318,-2.12098 -0.80994,-4.23086 0.14128,-4.71253c0.95122,-0.48166 2.43019,0.84728 3.30339,2.96826c0.87318,2.12098 1.08247,4.38898 0.13126,4.87066z" fill="#959ba2" stroke="none" stroke-width="0" stroke-linecap="butt"></path><path d="M190.93977,116.05319l4.03367,4.56552" fill="none" stroke="#171c22" stroke-width="1" stroke-linecap="round"></path><path d="M191.33864,115.69285c0,0 4.24666,4.02735 5.51527,6.14494c1.25497,2.09482 2.95707,7.40173 2.95707,7.40173" fill="none" stroke="#2e3844" stroke-width="1" stroke-linecap="round"></path><path d="M188.80991,116.94006c0.7656,-1.1188 3.74553,0.7077 6.04835,3.45748c1.72899,2.06454 3.22342,5.58755 3.09206,7.98918c-0.04359,0.79709 -0.95711,1.68801 -1.18196,2.07205c-0.46075,0.78694 -3.13979,-3.74915 -4.75631,-5.67938c-2.30281,-2.74972 -3.96773,-6.72049 -3.20213,-7.83929z" fill="#171c22" stroke="none" stroke-width="0" stroke-linecap="butt"></path><path d="M185.70126,133.05564c0,0 -1.15933,-3.31931 -1.34315,-5.5607c-0.19575,-2.38665 0.20219,-8.35075 0.20219,-8.35075" fill="none" stroke="#2e3844" stroke-width="1.5" stroke-linecap="round"></path><path d="M187.24283,125.83015c0.27782,2.79381 1.78587,7.84438 0.37664,7.3229c-1.17883,-0.43622 -2.3411,-3.54731 -2.61891,-6.34113c-0.27782,-2.79381 -0.64661,-9.45057 1.27084,-8.2838c0.7503,0.45656 0.69361,4.50824 0.97144,7.30204z" fill="#171c22" stroke="none" stroke-width="0" stroke-linecap="butt"></path><path d="M186.86638,117.98898l2.66859,-1.14213c0,0 1.62046,1.92627 2.59636,4.76538c1.61505,4.69856 5.91728,17.63577 11.01644,33.09727c0.99363,3.01287 2.17299,6.5297 3.25344,9.76664c1.40166,4.19927 2.70231,8.11051 3.89104,11.72793c3.55904,10.83042 5.93271,18.28987 5.93271,18.28987l-4.72611,1.29277c0,0 -1.97625,-6.52909 -4.70675,-15.15786c-1.62781,-5.14412 -3.44277,-11.28409 -5.12214,-16.45506c-0.73404,-2.26021 -1.53565,-4.19873 -2.12751,-6.01728c-1.78356,-5.48024 -3.71855,-12.71736 -6.17499,-19.98789c-1.91711,-5.67419 -4.43728,-11.58965 -5.58206,-15.25977c-0.93436,-2.99561 -0.91903,-4.91981 -0.91903,-4.91981z" fill="#6d6d48" stroke="#000e25" stroke-width="1.2" stroke-linecap="butt"></path><path d="M213.52041,191.58062l-26.37422,-80.16777" fill="none" stroke="url(#color-2)" stroke-width="1.5" stroke-linecap="round"></path><path d="M122.96713,-47.8749l0.11567,-1.73304l1.18029,2.08393l-0.15938,-2.73479c0,0 4.08857,6.93906 5.02048,8.502c0.4344,0.72857 0.33152,0.4739 0.33152,0.4739l-2.67073,-14.93639c0,0 3.75298,7.93007 4.94315,10.11446c0.88865,1.631 1.56142,1.82379 1.56142,1.82379l0.03864,-1.79861l0.68484,0.70784l0.48033,-2.33832l0.71808,1.07942l0.11731,-8.3779l2.85759,5.56569l0.8669,-0.95325l1.11784,1.46326l-1.08223,-5.28002l1.37319,2.00559l-0.46697,-6.48647l5.27188,10.4948l0.73895,-2.88852l5.09953,16.29155l0.32985,-7.38976l4.57544,23.42832l1.10873,-2.46677c0,0 1.46398,2.09998 2.03476,4.54581c0.30744,1.31739 -0.26274,3.57349 0.26594,6.23301c0.14108,0.70968 1.00742,2.00103 1.46534,3.9005c0.47485,1.96977 0.50834,6.61725 0.99687,8.93073c0.23479,1.1119 0.93226,2.44425 1.18443,3.25725c0.77968,2.51364 1.08496,3.26634 1.08496,3.26634l1.19551,-1.9386c0,0 1.53983,4.24152 2.19918,7.10685c0.25451,1.10607 1.11734,7.46578 1.87646,11.48755c0.42469,2.24993 0.98238,3.3862 0.98238,3.3862l-0.00216,-5.31166c0,0 1.28651,3.43631 1.72182,5.47325c0.43529,2.03693 0.88954,6.45849 1.24783,9.17383c0.31401,2.37985 0.73698,2.69746 0.73698,2.69746c0,0 0.04106,-0.03135 0.09105,-0.8694c0.03208,-0.53777 0.09869,-1.67772 0.09869,-1.67772c0,0 0.59581,1.12506 1.04939,2.67199c0.99615,3.39749 2.33538,8.88607 2.44058,9.35749c0.29118,1.30454 1.14544,-0.40264 1.14544,-0.40264l2.57493,12.20342l0.69688,0.13825l2.43895,10.82179l1.36447,-1.27492l9.02647,39.58816l-13.76821,4.47097c0,0 -7.00023,-9.87546 -9.96935,-18.22169c-0.18634,-0.52384 -2.07425,-5.79167 -2.07425,-5.79167l1.23708,0.69151l-9.26909,-23.75189l2.59422,2.89857c0,0 -1.25807,-5.24533 -3.06511,-8.73136c-0.59063,-1.13941 -2.48416,-3.02568 -3.82679,-5.02251c-1.78274,-2.65134 -3.01249,-5.35335 -3.01249,-5.35335c0,0 4.87931,4.56652 4.58757,3.7403c-1.93398,-5.47752 -3.93682,-10.99503 -5.13344,-13.85398c-2.04837,-4.89391 -5.22047,-8.21933 -5.22047,-8.21933c0,0 3.41048,2.26624 3.23133,1.79886c-2.22947,-5.81656 -7.41985,-16.17024 -7.41985,-16.17024l1.98593,1.22815l-3.57688,-8.33862l1.70204,1.66407l-8.41603,-16.89185l2.75719,1.06474c0,0 -0.16427,-0.77534 -0.1777,-0.8137c-0.65344,-1.86196 -6.38671,-10.87078 -6.38671,-10.87078l2.61157,1.11046c0,0 -3.33123,-6.79652 -4.56765,-9.61265c-1.15627,-2.63357 -2.62652,-6.77313 -2.62652,-6.77313c0,0 3.00233,3.20289 2.62503,2.10849c-1.51191,-4.38523 -2.43023,-7.03034 -3.22753,-9.36853c-2.06367,-6.05206 -3.66338,-12.40659 -3.66338,-12.40659z" fill="#171c22" stroke="#001026" stroke-width="1.2" stroke-linecap="butt"></path><path d="M180.24213,96.82986c0.10328,2.28866 -3.22277,4.18495 -4.65363,3.95467c-1.43086,-0.23028 -2.61624,-2.96956 -2.71952,-5.2582c-0.10328,-2.28866 0.55008,-4.15541 1.98095,-3.92511c1.43086,0.23028 5.28891,2.94001 5.39221,5.22869z" fill="#ffea00" stroke="none" stroke-width="0" stroke-linecap="butt"></path><path d="M171.81587,47.95176c-1.57906,2.30753 -4.08938,1.09869 -7.20801,-2.62519c-3.11865,-3.72392 -4.1068,-8.99318 -2.52775,-11.3007c1.57906,-2.30753 4.695,-1.06571 7.81367,2.65818c3.11865,3.72392 3.50114,8.96019 1.92208,11.26771z" fill="#ffea00" stroke="#001026" stroke-width="1.2" stroke-linecap="butt"></path><path d="M189.60219,106.08178c-1.83426,2.68047 -3.97391,1.77337 -6.79557,-1.59587c-2.82164,-3.36924 -3.85309,-7.93586 -2.01883,-10.61633c1.83426,-2.68047 3.70701,-4.23939 6.52862,-0.87014c2.82164,3.36924 4.12004,10.40188 2.28577,13.08236z" fill="#ffea00" stroke="none" stroke-width="0" stroke-linecap="butt"></path><path d="M188.2676,104.15588c-1.2122,1.77143 -7.33186,-6.55839 -6.11964,-8.32983c1.2122,-1.77143 2.92688,-2.53795 4.93525,-0.13978c1.18433,1.41418 1.6296,3.56903 1.85228,5.23962c0.15493,1.16237 -0.17051,2.50316 -0.66788,3.23z" fill="none" stroke="#000e25" stroke-width="1.2" stroke-linecap="butt"></path><path d="M170.36912,45.53324c-0.54771,0.8004 -1.23462,1.14616 -2.25068,0.89965c-1.05514,-0.25596 -2.27542,-1.39606 -3.32377,-2.64788c-2.05787,-2.45727 -2.12844,-6.17199 -1.01194,-7.80358c1.11651,-1.63158 2.99729,-0.56219 5.05517,1.89507c2.05787,2.45727 2.64773,6.02516 1.53123,7.65675z" fill="none" stroke="#000e25" stroke-width="1.2" stroke-linecap="butt"></path><path d="M169.21819,44.03843c-0.29582,0.43229 -0.58809,0.53062 -1.00006,0.54088c-0.72086,0.01796 -1.65514,-0.4576 -2.51914,-1.48928c-1.35779,-1.6213 -1.69894,-4.3793 -0.79573,-5.45288c0.96174,-1.14312 1.97997,-0.49517 3.33773,1.12611c1.35779,1.6213 1.79062,4.08639 0.97719,5.27514z" fill="none" stroke="#000e25" stroke-width="0.7" stroke-linecap="butt"></path><path d="M167.58336,41.56044c-0.13579,0.19844 -0.4493,0.08893 -0.74112,-0.16595c-0.07545,-0.0659 -0.14944,-0.14151 -0.21855,-0.22401c-0.33642,-0.40171 -0.47059,-0.9298 -0.29971,-1.17953c0.1709,-0.24974 0.58214,-0.12653 0.91856,0.27518c0.33642,0.40171 0.51171,1.04459 0.3408,1.29432z" fill="#000e25" stroke="#000e25" stroke-width="0.5" stroke-linecap="butt"></path><path d="M181.10573,118.17637c0.16959,-0.09354 13.85051,-5.0807 13.89864,-5.09155c0.56369,-0.12711 0.83917,1.07859 0.83917,1.07859c0,0 0.20398,0.84109 -0.04117,0.97862c-0.03586,0.02011 -13.17756,4.93964 -13.61019,5.03721c-0.81214,0.18311 -0.96674,-0.49647 -1.15462,-0.80091c-0.34603,-0.5608 -0.16893,-1.07113 0.06815,-1.20195z" fill="#6d6d48" stroke="#000e25" stroke-width="1.2" stroke-linecap="butt"></path><path d="M169.29106,98.37616l-0.35451,-0.82249l0.27923,-0.99105l0.75237,0.85943l0.27443,0.80766l0.88992,0.97218l-0.56644,0.65288z" fill="#aeb5b1" stroke="#000e25" stroke-width="0" stroke-linecap="butt"></path><path d="M169.78729,100.42943l0.33551,-0.43199c0,0 0.51904,0.5255 0.81663,0.74112c0.10104,0.07321 0.25125,0.11243 0.40273,0.19398c0.23252,0.12522 0.46059,0.28207 0.46059,0.28207l-0.56671,0.94473z" fill="#aeb5b1" stroke="none" stroke-width="0" stroke-linecap="butt"></path><path d="M172.901,104.73902c-0.27798,0.40623 -1.52116,-0.39214 -1.63332,-1.13959c-0.07822,-0.52125 0.38421,0.16715 0.6622,-0.23909c0.27798,-0.40623 0.57151,-0.43506 0.89276,-0.05144c0.32126,0.3836 0.35636,1.02389 0.07836,1.43012z" fill="#aeb5b1" stroke="none" stroke-width="0" stroke-linecap="butt"></path><path d="M176.12021,110.81793c-0.22329,0.32634 -0.63526,0.31507 -0.92016,-0.02511c-0.28489,-0.34021 -0.33482,-0.88047 -0.11152,-1.2068c0.22329,-0.32634 0.63528,-0.3151 0.92017,0.02511c0.28489,0.34021 0.33481,0.88047 0.11152,1.2068z" fill="#aeb5b1" stroke="none" stroke-width="0" stroke-linecap="butt"></path><path d="M179.97432,116.49366c0,0 -0.19837,0.0699 -0.59844,-0.4078c-0.40007,-0.47771 -0.52508,-1.09788 -0.30634,-1.41756c0.21873,-0.31966 0.68738,-0.14328 1.08742,0.3344c0.40007,0.47771 -0.18265,1.49096 -0.18265,1.49096z" fill="#aeb5b1" stroke="none" stroke-width="0" stroke-linecap="butt"></path><path d="M181.26494,110.93555c0.47395,-0.6926 0.86067,-0.98808 1.1213,-0.67686c0.14411,0.17209 0.6447,0.42439 0.54612,0.7983c-0.0797,0.30237 -0.72043,0.70962 -0.93234,1.01927c-0.47395,0.6926 -1.40415,0.55826 -1.6648,0.24703c-0.26065,-0.31123 0.45576,-0.69515 0.92969,-1.38773z" fill="#aeb5b1" stroke="none" stroke-width="0" stroke-linecap="butt"></path><path d="M184.01917,114.83786c-0.40102,0.58604 -1.14487,0.34201 -1.35701,0.08868c-0.21215,-0.25332 0.1877,-0.42003 0.58875,-1.00606c0.40102,-0.58604 0.89811,-0.85576 1.11027,-0.60243c0.21215,0.25332 0.05903,0.93378 -0.34199,1.51981z" fill="#aeb5b1" stroke="none" stroke-width="0" stroke-linecap="butt"></path><path d="M178.88328,105.08985c-0.46027,0.67263 -1.6066,0.42609 -1.90363,0.07142c-0.29702,-0.35465 0.36776,-0.68314 0.82803,-1.35576c0.46027,-0.67263 1.07417,-0.93037 1.3712,-0.5757c0.29702,0.35465 0.16468,1.1874 -0.29562,1.86002z" fill="#aeb5b1" stroke="none" stroke-width="0" stroke-linecap="butt"></path><path d="M180.60816,108.22315c-0.39194,0.57272 -1.25178,0.25817 -1.49425,-0.03135c-0.24245,-0.28952 0.22432,-0.44437 0.61621,-1.01709c0.39194,-0.57272 0.90619,-0.8023 1.14863,-0.5128c0.24245,0.28952 0.1213,0.9885 -0.27063,1.56121z" fill="#aeb5b1" stroke="none" stroke-width="0" stroke-linecap="butt"></path><path d="M177.2638,100.81163c-0.2552,0.37292 -0.86346,-0.0231 -1.02712,-0.21854c-0.16366,-0.19543 0.17926,-0.11621 0.43446,-0.48913c0.2552,-0.37292 0.59477,-0.51685 0.75842,-0.32142c0.16366,0.19543 0.08946,0.65617 -0.16576,1.02912z" fill="#aeb5b1" stroke="none" stroke-width="0" stroke-linecap="butt"></path><path d="M177.33427,96.27113c0.08952,0.25593 -0.18625,0.59744 -0.61595,0.76278c-0.42968,0.16537 -1.19061,-0.57697 -1.2801,-0.83293c-0.08951,-0.25591 0.52627,0.07148 0.95595,-0.09387c0.42968,-0.16537 0.85058,-0.09193 0.9401,0.164z" fill="#aeb5b1" stroke="none" stroke-width="0" stroke-linecap="butt"></path><path d="M177.23026,92.55862c0.36341,0.25424 0.60122,0.64593 0.53116,0.87485c-0.07006,0.22892 -0.42146,0.20838 -0.78489,-0.04586c-0.36341,-0.25424 -0.60121,-0.64594 -0.53116,-0.87486c0.07006,-0.22892 0.42146,-0.20839 0.78488,0.04587z" fill="#aeb5b1" stroke="none" stroke-width="0" stroke-linecap="butt"></path><path d="M190.96267,92.69472c0.22615,-0.06701 0.94316,0.69344 1.15762,0.9495c0.31824,0.38 0.38779,0.96335 0.15537,1.30299c-0.2324,0.33962 -0.67879,0.30692 -0.99703,-0.07308c-0.31824,-0.38 -0.38779,-0.96335 -0.15537,-1.30299c0.0758,-0.11077 -0.27003,-0.84403 -0.16059,-0.87644z" fill="#aeb5b1" stroke="none" stroke-width="0" stroke-linecap="butt"></path><path d="M192.91987,97.85283c-0.23924,0.34964 -0.68381,0.3338 -0.99294,-0.03531c-0.30914,-0.36913 -0.3658,-0.95183 -0.12654,-1.30142c0.23924,-0.34964 0.68382,-0.33379 0.99295,0.03532c0.30914,0.36913 0.36579,0.95182 0.12653,1.30141z" fill="#aeb5b1" stroke="none" stroke-width="0" stroke-linecap="butt"></path><path d="M191.53242,92.18636c-0.18456,0.26971 -0.57005,0.20672 -0.86102,-0.14069c-0.29097,-0.34742 -0.37718,-0.84771 -0.19262,-1.11742c0.18456,-0.26971 0.57004,-0.20672 0.86101,0.14069c0.29097,0.34742 0.37719,0.84771 0.19264,1.11739z" fill="#aeb5b1" stroke="none" stroke-width="0" stroke-linecap="butt"></path><path d="M191.18777,90.59164c-0.19825,0.28969 -0.55059,0.29568 -0.78697,0.01341c-0.23638,-0.28227 -0.26734,-0.74595 -0.0691,-1.03562c0.19825,-0.28969 0.5506,-0.2957 0.78698,-0.01343c0.23638,0.28227 0.26734,0.74595 0.0691,1.03566z" fill="#aeb5b1" stroke="none" stroke-width="0" stroke-linecap="butt"></path><path d="M193.321,100.76394c-0.19825,0.28969 -0.55794,0.2869 -0.80343,-0.00623c-0.2455,-0.29314 -0.28381,-0.76561 -0.08556,-1.05532c0.19825,-0.28969 0.55793,-0.2869 0.80343,0.00625c0.2455,0.29314 0.28379,0.76559 0.08558,1.05528z" fill="#aeb5b1" stroke="none" stroke-width="0" stroke-linecap="butt"></path><path d="M194.50022,104.37407c-0.14545,0.21254 -0.31149,0.42917 -0.52779,0.42142c-0.21067,-0.00753 -0.47112,-0.23379 -0.65058,-0.44808c-0.36369,-0.43427 -0.42579,-1.12645 -0.13869,-1.54601c0.28709,-0.41955 0.81466,-0.40759 1.17837,0.02667c0.36369,0.43427 0.4258,1.12643 0.13868,1.54599z" fill="#aeb5b1" stroke="none" stroke-width="0" stroke-linecap="butt"></path><path d="M194.81866,107.58084c-0.17223,0.25171 -0.40624,0.76345 -0.67592,0.63835c-0.11562,-0.05363 -0.27782,-0.59402 -0.37878,-0.71457c-0.33642,-0.40171 -0.40965,-1.01887 -0.16355,-1.37848c0.24609,-0.35961 0.71831,-0.32551 1.05473,0.07621c0.33642,0.40171 0.40964,1.01887 0.16354,1.3785z" fill="#aeb5b1" stroke="none" stroke-width="0" stroke-linecap="butt"></path><path d="M194.99256,111.17373c-0.10443,0.15261 -0.22164,0.72838 -0.37484,0.75004c-0.21784,0.03079 -0.48362,-0.559 -0.6758,-0.78847c-0.32733,-0.39085 -0.38762,-1.00731 -0.1347,-1.37689c0.25293,-0.36961 0.72329,-0.35239 1.05061,0.03846c0.32733,0.39085 0.38763,1.00732 0.1347,1.37692z" fill="#aeb5b1" stroke="none" stroke-width="0" stroke-linecap="butt"></path><path d="M190.59921,112.43536c-0.1709,0.24974 -0.49369,0.23215 -0.721,-0.03927c-0.22731,-0.27142 -0.27304,-0.6939 -0.10213,-0.94362c0.1709,-0.24974 0.49371,-0.23216 0.72102,0.03929c0.10441,0.12468 1.8074,0.25757 1.84288,0.56561c0.07345,0.6376 -1.64836,0.24305 -1.74075,0.37804z" fill="#aeb5b1" stroke="none" stroke-width="0" stroke-linecap="butt"></path><path d="M190.50379,108.64035c-0.18456,0.26971 -0.55532,0.2243 -0.82808,-0.1014c-0.27275,-0.32572 -0.34425,-0.80838 -0.1597,-1.07808c0.18456,-0.26971 0.55531,-0.22431 0.82808,0.10139c0.05377,0.06422 0.44739,0.35007 0.78963,0.44943c0.35661,0.10355 0.66168,0.02087 0.68258,0.10142c0.03351,0.12902 -0.21109,0.30877 -0.56702,0.39766c-0.29028,0.0725 -0.69596,0.05721 -0.74552,0.12957z" fill="#aeb5b1" stroke="none" stroke-width="0" stroke-linecap="butt"></path><path d="M189.03998,104.73644c-0.11081,-0.26272 0.07644,-0.62163 0.41828,-0.8016c0.34181,-0.17998 0.70874,-0.1129 0.81955,0.14982c0.11081,0.26272 -0.07645,0.6216 -0.41827,0.80159c-0.34181,0.17998 -0.70875,0.11291 -0.81956,-0.14981z" fill="#aeb5b1" stroke="none" stroke-width="0" stroke-linecap="butt"></path><path d="M189.03931,101.60011c-0.20507,0.29967 -0.61455,0.25218 -0.9146,-0.10609c-0.30004,-0.35827 -0.37705,-0.89166 -0.17196,-1.19134c0.20507,-0.29967 0.61455,-0.25219 0.9146,0.10608c0.14392,0.17185 0.85586,-1.04568 0.89061,-0.83838c0.03773,0.22489 -0.61196,1.87375 -0.71867,2.0297z" fill="#aeb5b1" stroke="none" stroke-width="0" stroke-linecap="butt"></path><path d="M184.15112,94.31714c-0.20507,0.29967 -0.57033,0.30497 -0.81583,0.01185c-0.2455,-0.29314 -0.27825,-0.77371 -0.07318,-1.07339c0.20507,-0.29967 1.12309,-1.02534 1.36858,-0.7322c0.2455,0.29314 -0.27449,1.49405 -0.47958,1.79373z" fill="#aeb5b1" stroke="none" stroke-width="0" stroke-linecap="butt"></path><path d="M181.42151,92.0109c-0.1709,0.24974 -0.45684,0.27615 -0.63871,0.05902c-0.18184,-0.21714 -0.19073,-0.59561 -0.01981,-0.84533c0.09763,-0.14266 0.26646,-0.96108 0.3983,-0.95422c0.09896,0.00515 0.1624,0.80208 0.24039,0.8952c0.18185,0.21716 0.19074,0.59562 0.01983,0.84534z" fill="#aeb5b1" stroke="none" stroke-width="0" stroke-linecap="butt"></path><path d="M185.74648,97.93116c-0.27275,-0.32572 -0.5007,-0.84213 -0.29562,-1.14179c0.20507,-0.29967 1.03778,-0.66708 1.31055,-0.34136c0.09298,0.11104 0.55768,-1.38623 0.74641,-0.9402c0.10777,0.2547 -0.4887,1.87503 -0.62385,2.07255c-0.20507,0.29967 -0.86473,0.67648 -1.13751,0.3508z" fill="#aeb5b1" stroke="none" stroke-width="0" stroke-linecap="butt"></path><path d="M177.15249,84.69736c-1.12823,1.64872 -2.95473,2.33815 -5.08925,0.82744c-0.82275,-0.58228 -1.72372,-1.79142 -2.59993,-2.95352c-4.09381,-5.42948 -3.76282,-10.3119 -2.19969,-12.59613c1.56311,-2.28422 4.32358,-0.51228 7.39981,3.16096c3.07622,3.67324 4.05217,9.27703 2.48906,11.56125z" fill="#ffea00" stroke="none" stroke-width="0" stroke-linecap="butt"></path><path d="M168.23153,62.84853c-1.40361,2.05113 -2.84627,2.12291 -5.49819,-1.04368c-2.65191,-3.16656 -3.79731,-8.6294 -2.39372,-10.68052c1.40361,-2.05113 2.99938,-1.32658 5.6513,1.83999c2.65191,3.16656 3.64426,7.83306 2.24062,9.88423z" fill="#ffea00" stroke="none" stroke-width="0" stroke-linecap="butt"></path><path d="M185.47506,88.03992c-1.09839,1.60514 -2.37164,0.23562 -4.53562,-2.3483c-2.16396,-2.58392 -2.95627,-6.28831 -2.03117,-7.64017c0.92511,-1.35187 2.65992,-0.04483 4.82386,2.53912c2.16396,2.58392 2.66803,6.09752 1.74291,7.44939z" fill="#ffea00" stroke="none" stroke-width="0" stroke-linecap="butt"></path><path d="M164.39792,24.51638c-1.29924,2.95355 -2.69653,4.75674 -3.80852,3.77412c-1.112,-0.98265 -1.28657,-4.71669 0.01266,-7.67023c1.29924,-2.95355 3.00326,-3.77694 4.11526,-2.79431c1.112,0.98265 0.97984,3.73688 -0.31942,6.69044z" fill="#ffea00" stroke="none" stroke-width="0" stroke-linecap="butt"></path><path d="M149.18952,6.82798c-1.59501,2.33084 -3.71357,3.23463 -4.73189,2.01865c-1.01833,-1.21597 -0.55084,-4.09122 1.04418,-6.42207c1.59501,-2.33084 3.71355,-3.23462 4.73188,-2.01866c1.01833,1.21597 0.55086,4.09122 -1.04417,6.42206z" fill="#ffea00" stroke="none" stroke-width="0" stroke-linecap="butt"></path><path d="M136.88505,-26.19308c-1.67478,2.44737 -3.19829,3.31302 -4.68337,1.53975c-1.48506,-1.77329 -1.98517,-5.0553 -0.31041,-7.50271c1.67478,-2.44737 3.21737,-3.13689 4.70244,-1.36362c1.48506,1.77329 1.96611,4.8792 0.29134,7.32657z" fill="#ffea00" stroke="none" stroke-width="0" stroke-linecap="butt"></path><path d="M141.61435,-30.81442c0.38786,-1.34965 2.72748,-1.45051 5.01194,0.0871c2.28445,1.53761 3.82196,3.87819 3.43408,5.22782c-0.38786,1.34965 -2.55378,1.56089 -4.85828,0.09637c-2.13079,-1.35413 -3.97561,-4.06163 -3.58774,-5.41127z" fill="#ffea00" stroke="none" stroke-width="0" stroke-linecap="butt"></path><path d="M154.44299,-4.86336c-1.11416,1.04344 -2.77304,-0.43971 -4.2275,-2.80112c-1.45444,-2.36141 -1.94117,-5.8335 -0.82703,-6.87693c1.11416,-1.04344 3.21493,0.81399 4.66938,3.1754c1.45444,2.36141 1.49929,5.45925 0.38514,6.50267z" fill="#ffea00" stroke="none" stroke-width="0" stroke-linecap="butt"></path><path d="M147.11285,-9.72176c-0.46092,4.08229 -2.66931,7.25648 -5.19265,6.21159c-2.52334,-1.0449 -4.40612,-5.91318 -3.94521,-9.99547c0.21036,-1.86298 0.42215,-4.02724 1.18499,-5.13993c0.90872,-1.32553 2.4626,-1.38647 3.83439,-0.81843c2.52334,1.0449 4.57942,5.65997 4.11849,9.74223z" fill="#ffea00" stroke="none" stroke-width="0" stroke-linecap="butt"></path><path d="M154.36839,27.68792c-2.20784,0.29793 -3.92137,-2.81084 -4.99965,-6.23179c-1.07829,-3.42093 -0.43269,-6.67844 1.44196,-7.2758c1.87465,-0.59737 3.92194,2.198 5.00021,5.61894c1.07829,3.42093 0.76226,7.59114 -1.44253,7.88864z" fill="#ffea00" stroke="none" stroke-width="0" stroke-linecap="butt"></path><path d="M160.25007,41.97734c-0.07161,2.52052 -0.88391,4.40066 -2.50195,3.94587c-1.61802,-0.45477 -2.67932,-2.94382 -2.6077,-5.46436c0.07161,-2.52052 0.8839,-4.40064 2.50195,-3.94586c1.61802,0.45477 2.67933,2.94381 2.60771,5.46435z" fill="#ffea00" stroke="none" stroke-width="0" stroke-linecap="butt"></path><path d="M178.02547,63.75675c-0.52847,2.77759 -1.65052,5.13215 -3.09834,4.36274c-1.44782,-0.76941 -2.34675,-3.82828 -1.81832,-6.60589c0.52847,-2.77759 1.22769,-5.33026 2.67553,-4.56087c1.44782,0.76941 2.7696,4.02642 2.24116,6.80401z" fill="#ffea00" stroke="none" stroke-width="0" stroke-linecap="butt"></path><path d="M175.23144,82.81249c-1.15903,1.69374 -3.04908,0.70488 -5.1706,-1.82839c-2.12152,-2.53327 -2.59374,-6.41011 -1.43471,-8.10384c1.15903,-1.69374 3.18965,-0.23027 5.31117,2.303c2.12152,2.53327 2.45315,5.93548 1.29411,7.62924z" fill="none" stroke="#000e25" stroke-width="1.2" stroke-linecap="butt"></path><path d="M167.28455,61.10425c-0.78688,1.14989 -2.39669,1.15157 -4.13633,-0.92571c-1.73965,-2.07729 -2.2322,-5.81635 -1.44535,-6.96624c0.78688,-1.14989 2.23238,-0.19743 3.97201,1.87984c1.73965,2.07729 2.39651,4.86222 1.60965,6.01213z" fill="none" stroke="#000e25" stroke-width="1.05" stroke-linecap="butt"></path><path d="M144.90486,-9.74623c-0.26239,2.71678 -1.02965,5.00729 -2.9621,4.25596c-1.93247,-0.75133 -3.29868,-4.08877 -3.0363,-6.80552c0.26239,-2.71678 1.14517,-5.17609 3.07764,-4.42476c1.93247,0.75133 3.18317,4.25758 2.92077,6.97434z" fill="none" stroke="#000e25" stroke-width="1.2" stroke-linecap="butt"></path><path d="M135.84394,-26.64377c-1.04208,1.52281 -2.71234,1.77155 -3.73069,0.55559c-1.01833,-1.21597 -0.99908,-3.43618 0.04299,-4.95901c1.04208,-1.52281 2.71234,-1.77155 3.73069,-0.55559c1.01833,1.21597 0.99908,3.43618 -0.04299,4.95901z" fill="none" stroke="#000e25" stroke-width="1" stroke-linecap="butt"></path><path d="M153.70715,-6.23402c-0.59548,0.87019 -1.70697,-0.09547 -3.03645,-1.68297c-1.32948,-1.58751 -1.732,-3.86121 -1.13653,-4.73139c0.59548,-0.87019 1.98942,0.11597 3.19012,1.86647c1.16274,1.69517 1.57835,3.67774 0.98287,4.54792z" fill="none" stroke="#000e25" stroke-width="0.5" stroke-linecap="butt"></path><path d="M152.87156,-7.43631c-0.37218,0.54386 -1.1169,-0.00441 -1.92889,-0.97396c-0.81198,-0.96955 -1.09477,-2.52668 -0.72259,-3.07058c0.37218,-0.54386 1.25837,0.1315 2.07036,1.10104c0.81198,0.96955 0.95331,2.39961 0.58113,2.94347z" fill="none" stroke="#000e25" stroke-width="0.5" stroke-linecap="butt"></path><path d="M151.98598,-9.10029c-0.05222,0.07627 -0.26806,-0.06912 -0.48215,-0.32475c-0.21408,-0.25564 -0.34532,-0.52469 -0.29311,-0.60098c0.05222,-0.07627 0.26806,0.06911 0.48215,0.32474c0.21408,0.25564 0.34534,0.5247 0.29312,0.60099z" fill="#000e25" stroke="#000e25" stroke-width="0.5" stroke-linecap="butt"></path><path d="M134.29125,-28.33746c-0.1276,0.18646 -0.34569,0.2007 -0.48713,0.03183c-0.14143,-0.16889 -0.15265,-0.45694 -0.02504,-0.64342c0.1276,-0.18646 0.3457,-0.20073 0.48713,-0.03183c0.14143,0.16889 0.15266,0.45697 0.02505,0.64343z" fill="#000e25" stroke="#000e25" stroke-width="0.5" stroke-linecap="butt"></path><path d="M145.77327,-28.14983c0.16264,0.19421 0.20832,0.47763 0.10198,0.63302c-0.10634,0.15538 -0.32438,0.12391 -0.48703,-0.0703c-0.16264,-0.19421 -0.20831,-0.47763 -0.10197,-0.63302c0.10634,-0.15538 0.32437,-0.12391 0.48702,0.0703z" fill="#000e25" stroke="#000e25" stroke-width="0.5" stroke-linecap="butt"></path><path d="M142.39157,-10.95705c-0.1399,0.35906 -0.3417,0.82727 -0.62706,0.59445c-0.28536,-0.23282 -0.34769,-0.89253 -0.2078,-1.2516c0.1399,-0.35906 0.28212,-0.70324 0.56748,-0.47043c0.28536,0.23282 0.40727,0.76853 0.26736,1.12758z" fill="#000e25" stroke="#000e25" stroke-width="0.5" stroke-linecap="butt"></path><path d="M147.19164,4.83281c-0.13824,0.20201 -0.3019,0.30415 -0.36554,0.22816c-0.06366,-0.07599 -0.00319,-0.30135 0.13505,-0.50338c0.13824,-0.20201 0.30192,-0.30415 0.36554,-0.22817c0.06366,0.07599 0.00318,0.30134 -0.13506,0.50337z" fill="none" stroke="#000e25" stroke-width="0.5" stroke-linecap="butt"></path><path d="M147.97879,6.13061c-0.99954,1.46065 -2.26272,2.10397 -2.8214,1.43687c-0.55867,-0.6671 -0.20127,-2.39198 0.79827,-3.85264c0.99954,-1.46065 2.26272,-2.10397 2.8214,-1.43687c0.55867,0.6671 0.20127,2.39198 -0.79827,3.85264z" fill="none" stroke="#000e25" stroke-width="0.5" stroke-linecap="butt"></path><path d="M148.18019,3.15017c0.41723,0.49821 0.23828,1.6579 -0.39975,2.59023c-0.63801,0.93233 -1.49346,1.28428 -1.91067,0.78606c-0.41723,-0.49821 -0.23828,-1.65791 0.39973,-2.59024c0.63801,-0.93233 1.49345,-1.28426 1.91068,-0.78605z" fill="none" stroke="#000e25" stroke-width="0.5" stroke-linecap="butt"></path><path d="M152.66266,21.59077c-0.11696,0.1709 -0.36085,0.13153 -0.54471,-0.08803c-0.18388,-0.21955 -0.23809,-0.53609 -0.12114,-0.70701c0.11696,-0.1709 0.36085,-0.13153 0.54471,0.08803c0.18388,0.21955 0.23809,0.53609 0.12114,0.70701z" fill="#000e25" stroke="#000e25" stroke-width="0.5" stroke-linecap="butt"></path><path d="M162.60159,23.59132c-0.21267,0.31079 -0.49972,0.42582 -0.64115,0.25693c-0.14143,-0.16889 -0.0837,-0.55771 0.12897,-0.86849c0.21267,-0.31079 0.49973,-0.42582 0.64116,-0.25693c0.14143,0.16889 0.08369,0.55772 -0.12898,0.86849z" fill="#000e25" stroke="#000e25" stroke-width="0.5" stroke-linecap="butt"></path><path d="M157.64373,41.95969c-0.12989,0.1898 -0.37521,0.17645 -0.54797,-0.02984c-0.17276,-0.20629 -0.20752,-0.52737 -0.07763,-0.71716c0.12989,-0.1898 0.37524,-0.17642 0.54797,0.02985c0.17276,0.20629 0.2075,0.52737 0.07763,0.71715z" fill="#000e25" stroke="#000e25" stroke-width="0.5" stroke-linecap="butt"></path><path d="M164.48095,58.11041c-0.1504,0.21976 -0.49342,0.13388 -0.76618,-0.1918c-0.27275,-0.32572 -0.37199,-0.76789 -0.22158,-0.98767c0.1504,-0.21976 0.49342,-0.13388 0.76618,0.1918c0.27275,0.32572 0.37199,0.76789 0.22158,0.98767z" fill="#000e25" stroke="#000e25" stroke-width="0.5" stroke-linecap="butt"></path><path d="M175.5144,63.23286c-0.18456,0.26971 -0.44475,0.35635 -0.58113,0.19349c-0.13638,-0.16284 -0.0973,-0.51352 0.08724,-0.78323c0.18456,-0.26971 0.44474,-0.35634 0.58114,-0.19347c0.13638,0.16284 0.0973,0.51352 -0.08724,0.78323z" fill="#000e25" stroke="#000e25" stroke-width="0.5" stroke-linecap="butt"></path><path d="M182.34728,84.11124c-0.09569,0.13986 -0.38702,-0.00203 -0.65071,-0.31686c-0.26368,-0.31488 -0.39986,-0.68345 -0.30416,-0.82332c0.09569,-0.13986 0.38703,0.00203 0.65072,0.31686c0.26368,0.31488 0.39985,0.68345 0.30415,0.82333z" fill="#000e25" stroke="#000e25" stroke-width="0.5" stroke-linecap="butt"></path><path d="M175.01408,96.75097c-0.08885,0.12987 -0.2346,0.1471 -0.32553,0.03853c-0.09092,-0.10858 -0.09259,-0.30183 -0.00374,-0.43172c0.08885,-0.12987 0.23459,-0.14713 0.32553,-0.03857c0.09092,0.10858 0.09261,0.30184 0.00373,0.43171z" fill="#000e25" stroke="#000e25" stroke-width="0.5" stroke-linecap="butt"></path><path d="M172.86988,76.5197c1.29414,1.54529 1.78077,3.61995 1.08695,4.63385c-0.69383,1.01392 -2.30539,0.58315 -3.59953,-0.96214c-1.29414,-1.54529 -2.03984,-4.15937 -0.83599,-5.71461c0.74016,-0.95619 2.05444,0.49759 3.34859,2.04289z" fill="none" stroke="#000e25" stroke-width="0.5" stroke-linecap="butt"></path><path d="M183.11469,85.72358c-0.39077,0.57104 -0.61593,0.37653 -1.47514,-0.64945c-0.85922,-1.02597 -1.55551,-3.08205 -1.16474,-3.65311c0.39077,-0.57104 1.30765,0.14268 2.16686,1.16865c0.85922,1.02597 0.86381,2.56285 0.47302,3.13389z" fill="none" stroke="#000e25" stroke-width="0.5" stroke-linecap="butt"></path><path d="M175.99866,98.16253c-0.43863,0.64101 -0.88582,0.82114 -1.43741,0.16247c-0.55162,-0.65865 -0.77695,-2.63881 -0.33828,-3.27978c0.43863,-0.64101 0.81853,-0.82479 1.37013,-0.16615c0.55162,0.65865 0.84421,2.64246 0.4056,3.28344z" fill="none" stroke="#000e25" stroke-width="0.5" stroke-linecap="butt"></path><path d="M165.90984,60.27159c-0.53433,0.78082 -1.66636,0.19586 -2.80139,-1.15945c-1.13503,-1.35532 -1.32364,-3.42095 -0.78932,-4.20176c0.53433,-0.78082 1.53151,0.10323 2.66653,1.45853c1.13503,1.35532 1.45851,3.12185 0.92417,3.90267z" fill="none" stroke="#000e25" stroke-width="0.5" stroke-linecap="butt"></path><path d="M158.48448,42.96943c-0.50243,0.73422 -0.87498,1.06414 -1.54326,0.26615c-0.6683,-0.79797 -1.03294,-2.6217 -0.5305,-3.35589c0.50243,-0.73422 0.77825,-0.41276 1.44653,0.38521c0.6683,0.79797 1.12968,1.97033 0.62723,2.70453z" fill="none" stroke="#000e25" stroke-width="0.5" stroke-linecap="butt"></path><path d="M158.71904,44.05475c-0.35543,0.51941 -0.6814,0.52055 -1.01155,0.52417c-0.32175,0.00352 -0.64749,0.02486 -1.00726,-0.63411c-0.53479,-0.9795 -0.85264,-2.3384 -0.82046,-3.42336c0.01125,-0.37934 -0.14562,-0.77512 0.03619,-1.04079c0.70182,-1.02557 1.14366,-1.70192 2.07715,-0.58728c0.93348,1.11466 1.42776,4.13583 0.72594,5.1614z" fill="none" stroke="#000e25" stroke-width="0.5" stroke-linecap="butt"></path><path d="M153.74946,25.76651c-1.47871,0.68386 -2.55485,-1.28068 -3.42244,-3.90087c-0.86757,-2.62022 -0.732,-5.12675 0.29024,-5.49962c1.20892,-0.44094 2.85262,1.55955 3.72021,4.17974c0.86757,2.62022 0.60787,4.66767 -0.58801,5.22074z" fill="none" stroke="#000e25" stroke-width="0.75" stroke-linecap="butt"></path><path d="M153.42538,24.35149c-0.20539,0.30013 -0.4771,-0.09159 -0.70609,-0.20262c-0.47349,-0.22956 -0.92061,-0.70112 -1.31607,-1.48348c-0.76016,-1.50382 -1.17905,-3.22423 -0.54901,-4.1449c0.63003,-0.92068 1.18615,-0.23244 2.2151,0.99618c1.02894,1.22864 0.98613,3.91413 0.3561,4.83483z" fill="none" stroke="#000e25" stroke-width="0.5" stroke-linecap="butt"></path><path d="M161.0352,9.82453c-0.17323,3.35438 -1.06575,6.48768 -3.23763,5.79667c-1.30211,-0.4143 -2.89145,-2.62283 -3.62558,-5.06722c-0.4904,-1.63276 -0.39687,-3.38398 -0.3275,-4.72726c0.17323,-3.35438 1.32428,-5.33542 3.49615,-4.64441c2.17188,0.69102 3.8678,5.28787 3.69457,8.64225z" fill="#ffea00" stroke="none" stroke-width="0" stroke-linecap="butt"></path><path d="M159.59155,9.11125c-0.19383,2.2772 -0.56199,4.6451 -2.0664,4.08709c-1.50442,-0.55801 -2.54664,-3.90595 -2.35281,-6.18313c0.19383,-2.2772 0.66712,-3.98274 2.17154,-3.42469c1.50441,0.55802 2.44151,3.24357 2.24768,5.52076z" fill="none" stroke="#000e25" stroke-width="0.75" stroke-linecap="butt"></path><path d="M158.86889,9.07667c-0.12144,1.57203 -0.71405,2.60778 -1.57267,2.29987c-0.8586,-0.30787 -1.66735,-2.23736 -1.5459,-3.80934c0.12144,-1.57203 1.00285,-3.02982 1.86149,-2.72193c0.8586,0.30787 1.37855,2.65938 1.2571,4.23139z" fill="none" stroke="#000e25" stroke-width="0.5" stroke-linecap="butt"></path><path d="M157.71322,8.49715c-0.17544,0.2564 -0.49826,0.24859 -0.72103,-0.01738c-0.22276,-0.266 -0.26111,-0.68949 -0.08568,-0.94586c0.17544,-0.2564 0.49826,-0.24858 0.72102,0.0174c0.22276,0.266 0.26112,0.68946 0.08568,0.94585z" fill="#001026" stroke="#000e25" stroke-width="0.5" stroke-linecap="butt"></path><path d="M143.87134,-10.55378c-0.04488,1.93517 -0.71047,3.39452 -1.87783,3.0762c-1.16737,-0.31832 -2.3944,-2.29373 -2.34955,-4.22894c0.04488,-1.93517 0.91264,-3.68993 2.07997,-3.37162c1.16737,0.31832 2.19227,2.58919 2.14738,4.52437z" fill="none" stroke="#000e25" stroke-width="0.5" stroke-linecap="butt"></path><path d="M142.76431,-29.48128c0.26023,-1.19922 1.62489,-1.27778 3.1906,-0.38373c1.56571,0.89407 2.71096,2.15794 2.45073,3.35716c-0.26023,1.19922 -1.62491,1.27775 -3.19064,0.3837c-1.56571,-0.89405 -2.71094,-2.15793 -2.45071,-3.35714z" fill="none" stroke="#000e25" stroke-width="0.5" stroke-linecap="butt"></path><path d="M143.77115,-29.03243c0.15346,-0.76991 0.95234,-0.76174 2.00984,-0.18549c1.0575,0.57626 1.89607,1.71703 1.7426,2.48693c-0.15346,0.76991 -1.02917,0.66999 -2.08666,0.09373c-1.0575,-0.57626 -1.81923,-1.6253 -1.66578,-2.3952z" fill="none" stroke="#000e25" stroke-width="0.25" stroke-linecap="butt"></path><path d="M172.03463,78.9019c-0.1914,0.2797 -0.62667,0.172 -0.97217,-0.24057c-0.34549,-0.41256 -0.39617,-1.08227 -0.20477,-1.36197c0.1914,-0.2797 0.59374,-0.21134 0.93925,0.20124c0.34549,0.41256 0.4291,1.1216 0.2377,1.40129z" fill="#000e25" stroke="none" stroke-width="0" stroke-linecap="butt"></path><path d="M183.87368,87.06098c-0.79247,0.75074 -2.10858,-0.46529 -3.37693,-2.5084c-1.26835,-2.04315 -1.41548,-3.95735 -0.62299,-4.70808c0.79247,-0.75074 1.99323,0.459 3.26159,2.50213c1.26835,2.04315 1.53083,3.96362 0.73835,4.71437z" fill="none" stroke="#000e27" stroke-width="0.5" stroke-linecap="butt"></path><path d="M176.26519,64.07671c-0.35496,1.28222 -0.82407,2.02828 -1.40353,1.64698c-0.57947,-0.38127 -0.88331,-1.96884 -0.69876,-3.28433c0.20495,-1.46084 0.87384,-2.40705 1.45331,-2.02575c0.57947,0.38127 1.00396,2.3809 0.649,3.66311z" fill="none" stroke="#000e25" stroke-width="0.5" stroke-linecap="butt"></path><path d="M176.81532,64.29216c-0.57395,2.05267 -1.20783,3.41239 -2.34049,2.66259c-1.13267,-0.74979 -1.27222,-3.30476 -0.69827,-5.35742c0.57395,-2.05267 1.0098,-3.12296 2.14248,-2.3732c1.13267,0.74979 1.47025,3.01535 0.89629,5.06802z" fill="none" stroke="#001027" stroke-width="0.75" stroke-linecap="butt"></path><path d="M163.31108,24.31271c-0.47015,1.16262 -1.0391,1.67774 -1.69772,1.12721c-0.65861,-0.55053 -0.69632,-1.67041 -0.22616,-2.83303c0.47015,-1.16262 0.95691,-1.90733 1.61554,-1.35681c0.65861,0.55053 0.7785,1.90001 0.30837,3.06264z" fill="none" stroke="#001025" stroke-width="0.5" stroke-linecap="butt"></path><path d="M163.71454,24.66509c-0.81502,1.98089 -1.80392,2.66996 -2.73769,1.8805c-0.35862,-0.30319 -0.39763,-0.71643 -0.47669,-1.23428c-0.12676,-0.83052 -0.08436,-1.91536 0.41765,-3.13546c0.81502,-1.98089 1.53234,-3.05996 2.46611,-2.2705c0.93378,0.78943 1.14564,2.77889 0.33063,4.75978z" fill="none" stroke="#001025" stroke-width="0.75" stroke-linecap="butt"></path><path d="M135.84406,-26.69153c-0.97004,1.64979 -2.28934,2.19018 -3.35325,1.04598c-1.06388,-1.1442 -1.08203,-3.66864 -0.11198,-5.31846c0.97004,-1.64979 2.08315,-1.97626 3.14706,-0.83208c1.06388,1.1442 1.28823,3.45477 0.31817,5.10457z" fill="none" stroke="#001027" stroke-width="0.75" stroke-linecap="butt"></path><path d="M135.18548,-27.38092c-0.69042,1.00892 -1.6583,1.47087 -2.30385,0.70002c-0.64555,-0.77085 -0.63372,-2.44008 0.05671,-3.44901c0.69042,-1.00892 1.5511,-1.40165 2.19666,-0.63082c0.64555,0.77085 0.7409,2.37088 0.05047,3.37981z" fill="none" stroke="#001027" stroke-width="0.5" stroke-linecap="butt"></path><path d="M212.62003,191.75276c-0.13798,0.05228 -0.1083,0.51749 -0.47066,1.5282c-0.16551,0.46164 -1.31013,0.47742 -1.0034,1.60909c0.39351,1.45186 2.14668,3.71697 3.176,5.80715c1.27203,2.58306 1.81465,4.8848 1.81465,4.8848c0,0 -4.82147,-3.30912 -6.42589,-7.54202c-0.37892,-0.99969 -0.9176,-2.79598 -1.10671,-4.74449c-0.16827,-1.73396 0.01338,-3.62092 -0.29362,-4.67449c-0.07789,-0.26735 -0.50849,-0.9352 -0.72268,-1.2236c-0.45122,-0.60756 -1.00734,-1.19874 -1.50952,-1.70392c-0.47872,-0.48158 -0.60848,-0.40954 -0.74731,-0.84963c-0.13883,-0.4401 0.31848,-0.50974 0.31848,-0.50974c0,0 1.28058,0.36955 2.09665,0.16259c0.5068,-0.12853 1.75284,-0.86968 2.79217,-1.04644c0.6791,-0.11549 1.12037,0.38405 1.7277,0.15734c1.35136,-0.50445 2.16274,-1.49989 2.16274,-1.49989c0,0 -1.01126,1.64525 -0.2889,3.93913c0.29382,0.93305 1.44316,2.12247 2.03312,3.13693c1.00166,1.72238 1.54492,3.23296 1.93146,4.25278c1.62423,4.28513 0.23235,11.15464 0.23235,11.15464c0,0 -0.3471,-0.35438 -0.6913,-1.67308c-0.60752,-2.32748 -1.46216,-6.44061 -2.21349,-8.20703c-1.52548,-3.58638 -2.60939,-3.03511 -2.81188,-2.95836z" fill="#885058" stroke="#000e25" stroke-width="1" stroke-linecap="butt"></path></g></g></g></svg>