<svg version="1.1" xmlns="http://www.w3.org/2000/svg" xmlns:xlink="http://www.w3.org/1999/xlink" width="292.81826" height="260.13187" viewBox="0,0,292.81826,260.13187"><g transform="translate(-93.03983,-48.0613)"><g data-paper-data="{&quot;isPaintingLayer&quot;:true}" fill-rule="nonzero" stroke-linejoin="miter" stroke-miterlimit="10" stroke-dasharray="" stroke-dashoffset="0" style="mix-blend-mode: normal"><path d="" data-paper-data="{&quot;index&quot;:null}" fill="none" stroke="#000000" stroke-width="1.5" stroke-linecap="round"></path><path d="M93.03983,48.0613" data-paper-data="{&quot;index&quot;:null}" fill="none" stroke="#d8d8d8" stroke-width="4" stroke-linecap="round"></path><g><path d="M266.83134,278.06822c-41.62131,19.75713 -92.12206,0.63434 -112.7966,-42.71196c-20.67454,-43.34624 -3.69379,-94.50165 37.92757,-114.25878c41.62131,-19.75713 92.12209,-0.63433 112.79665,42.71191c20.67454,43.34624 3.6938,94.50167 -37.92757,114.25878z" fill="#d8d8d8" stroke="#000000" stroke-width="1.5" stroke-linecap="butt"></path><path d="M221.78094,187.55258l-31.12194,3.58319" fill="none" stroke="#000000" stroke-width="1.5" stroke-linecap="round"></path><path d="M213.19018,204.44539l-6.04749,-11.42766" fill="none" stroke="#000000" stroke-width="1.5" stroke-linecap="round"></path><path d="M238.60013,169.00036l-10.97525,14.5348" fill="none" stroke="#000000" stroke-width="1.5" stroke-linecap="round"></path><path d="M236.39031,179.64748l4.65922,10.84716" fill="none" stroke="#f1aa4f" stroke-width="2.5" stroke-linecap="round"></path><path d="M219.44257,238.04817l45.07262,-20.78618" fill="none" stroke="#000000" stroke-width="1.5" stroke-linecap="round"></path></g><g data-paper-data="{&quot;index&quot;:null}" stroke="#000000" stroke-linecap="butt"><path d="M235.06883,281.20993l-33.24885,25.93654c0,0 -8.33979,0.99096 -9.83441,-0.64915c-1.49192,-1.63723 0.87492,-9.18294 0.87492,-9.18294l33.24885,-25.93654z" fill="#af5400" stroke-width="1.5"></path><path d="M217.95696,254.13209c0,0 8.84163,8.18829 17.82043,18.54102c4.80696,5.54233 14.83899,16.14598 14.83899,16.14598c0,0 -6.1931,6.18124 -8.51508,7.76973c-4.99712,3.41863 -15.44112,-1.18297 -24.42,-11.53563c-4.84404,-5.58501 -12.0763,-13.32796 -10.96256,-20.3879c0.95074,-6.02644 11.23809,-10.53322 11.23809,-10.53322z" fill="#989898" stroke-width="1"></path><path d="M216.24931,254.49934c4.99707,-3.41861 16.32684,2.20247 25.30576,12.55518c8.97885,10.35262 12.20675,21.51654 7.20967,24.9352c-4.99708,3.41866 -16.32684,-2.20247 -25.30576,-12.55518c-8.97887,-10.3527 -12.20675,-21.51654 -7.20972,-24.93524z" fill="#989898" stroke-width="1"></path><path d="M235.38626,279.22999c0,0 -5.81534,-1.02796 -7.20792,-2.46103c-1.36045,-1.39987 -1.05361,-6.04037 -1.05361,-6.04037l129.12835,-106.26414l28.51685,-8.16756l-149.38379,122.933z" fill="#e6e6e6" stroke-width="0.5"></path></g></g></g></svg>