<svg version="1.1" xmlns="http://www.w3.org/2000/svg" xmlns:xlink="http://www.w3.org/1999/xlink" width="229.91972" height="167.00253" viewBox="0,0,229.91972,167.00253"><g transform="translate(-143.57513,-112.54982)"><g data-paper-data="{&quot;isPaintingLayer&quot;:true}" fill-rule="nonzero" stroke-linejoin="miter" stroke-miterlimit="10" stroke-dasharray="" stroke-dashoffset="0" style="mix-blend-mode: normal"><path d="M199.48851,186.22942c0,-21.81525 17.68475,-39.5 39.5,-39.5c21.81525,0 39.5,17.68475 39.5,39.5c0,21.81525 -17.68475,39.5 -39.5,39.5c-21.81525,0 -39.5,-17.68475 -39.5,-39.5z" fill="#d8d8d8" stroke="#000000" stroke-width="1.5" stroke-linecap="butt"></path><path d="M242.02205,183.05545v-8" fill="none" stroke="#000000" stroke-width="1.5" stroke-linecap="round"></path><path d="" data-paper-data="{&quot;index&quot;:null}" fill="none" stroke="#000000" stroke-width="1.5" stroke-linecap="round"></path><path d="M253.08518,207.98809c0,0 -17.91104,4.58722 -25.6108,-0.53676c-1.90381,-1.26693 -4.4943,-5.21093 -3.86722,-8.6468c0.60031,-3.28916 4.39812,-6.06289 3.63978,-7.76264" data-paper-data="{&quot;index&quot;:null}" fill="#000000" stroke="#000000" stroke-width="0" stroke-linecap="round"></path><path d="M249.49371,175.54059v8" fill="none" stroke="#000000" stroke-width="1.5" stroke-linecap="round"></path><g stroke="#000000" stroke-linecap="butt"><path d="M256.88697,215.40541l-0.27799,-59.45093l26.98068,-0.32375l0.27799,59.45093c0,0 -10.96807,13.07921 -12.93105,15.42003c-0.57877,0.69017 -1.12412,1.3405 -1.12412,1.3405z" fill="#008c04" stroke-width="1.5"></path><path d="M268.53699,232.87574l-0.36671,-78.42604l3.01277,-0.03615l0.36671,78.42604z" fill="#00ff08" stroke-width="0"></path><path d="M283.90665,184.41944l-27.81027,0.3337l-0.02943,-6.29345l27.81027,-0.3337z" fill="#00ff08" stroke-width="0"></path></g><path d="M293.1596,142.73233c0.116,-0.01262 0.23832,-0.01927 0.36729,-0.01927c2.5,0 2.5,2.5 2.5,2.5l-3.1481,2.61428c-9.94118,-2.6718 -20.28177,-3.53837 -30.45642,-4.93224c-7.63002,-1.04527 -15.20569,-2.69954 -22.88526,-3.38078c-4.43331,-0.39327 -9.12497,-0.54423 -13.58038,-0.50735c2.30352,0.62172 4.62025,1.17049 7.02272,1.53751c8.14325,1.24405 15.57335,1.78486 22.76682,5.07982c0.23442,0.07158 0.53555,0.19198 0.82357,0.38995c1.12821,0.55191 2.25102,1.17516 3.37029,1.88319c0,0 0.80902,0.51431 1.10661,1.40694c10.4423,0.59251 20.71127,1.01897 31.06976,2.94517c5.17138,0.96164 11.22529,1.4723 16.27225,3.58495c-3.01148,-3.29722 -5.99543,-6.5899 -9.22499,-9.69749c-0.49548,-0.47677 -6.69158,-6.49382 -6.71195,-6.52763c-0.04015,-0.06666 -0.07961,-0.13367 -0.1184,-0.201l-0.02445,0.01724l-2.86421,-4.0616c-0.29835,-0.41174 -0.47424,-0.918 -0.47424,-1.46534c0,-1.38071 1.11929,-2.5 2.5,-2.5c0.42213,0 0.81982,0.10462 1.16856,0.28935l4.42159,2.22527l-0.00624,0.0124l0.05301,0.01176c8.03604,4.47592 16.06213,9.28363 24.44795,13.10386c-3.21144,-2.84143 -6.427,-5.68041 -9.5293,-8.64266c-2.46928,-2.35781 -5.79339,-4.03595 -7.46533,-7.01273c-0.04789,-0.08526 -0.09311,-0.17156 -0.13588,-0.2588l-0.04089,0.02765l-1.43256,-2.11823c-0.28221,-0.40483 -0.4477,-0.89709 -0.4477,-1.428c0,-1.38071 1.11929,-2.5 2.5,-2.5c0.57218,0 1.09947,0.19222 1.52081,0.51562l3.95533,2.96852c8.95401,6.29009 18.05196,12.3627 27.13559,18.46296c1.03172,0.69287 2.43421,1.3785 3.80798,2.14547c-3.49161,-5.33185 -6.94374,-10.68875 -10.55414,-15.94168c-1.88093,-2.73665 -4.34869,-5.11423 -5.79411,-8.10387c-0.00825,-0.01707 -0.01647,-0.03415 -0.02466,-0.05124l-0.00736,0.00497l-2.78036,-4.11562c-0.2818,-0.40465 -0.44702,-0.89654 -0.44702,-1.42702c0,-1.38071 1.11929,-2.5 2.5,-2.5c0.53985,0 1.03974,0.17111 1.44838,0.46206l2.12174,1.46807l-0.01946,0.02813l0.08694,0.02024c10.78791,8.57189 23.33401,15.71623 30.8236,27.55097c0,0 1.28248,2.02854 -0.65319,3.36711c0.04104,0.04708 0.08034,0.0957 0.11781,0.14578l1.96788,2.57507l-0.04653,0.03556c0.09122,0.09768 0.17948,0.19858 0.26446,0.30303c1.13199,1.3913 1.17448,3.38958 1.77447,5.07989c0.92821,2.61498 1.86327,5.20279 2.74989,7.80938c0.2676,0.16378 0.502,0.37648 0.69077,0.62567l3.04196,3.93495l-0.0334,0.02582c0.07668,0.08598 0.15197,0.17337 0.22579,0.26229c1.80986,2.18004 2.58913,7.67407 3.11099,10.30228c1.19141,6.00014 1.72502,11.81974 1.42495,17.92276l-0.05287,0.10778l0.03941,0.00559l-0.39176,2.76037c-0.12019,0.95576 -0.77994,1.74358 -1.66458,2.04881c-0.06899,5.20559 -1.85406,10.81517 -2.63555,15.60756c-0.46816,2.87093 -0.24466,5.90813 -0.24466,8.79595l-0.69954,2.71164c0,0 -0.71409,2.39584 -3.10994,1.68175c-2.39584,-0.71409 -1.68175,-3.10994 -1.68175,-3.10994l0.49122,-1.28345c0,-6.70834 1.16187,-12.69607 2.0687,-19.33561c0.2152,-1.57562 0.44134,-3.15442 0.51352,-4.74302c0.06703,-1.47544 -0.5635,-3.02855 -0.09677,-4.42982l-0.05078,-2.45381h-0.05321v-2.59685c0,-1.38071 1.11929,-2.5 2.5,-2.5c0.02409,0 0.0481,0.00034 0.07203,0.00102c-0.18822,-3.41225 -0.65595,-6.78672 -1.33326,-10.21982c-0.12442,-0.63063 -0.27272,-1.24711 -0.43356,-1.85388c-0.17694,0.03972 -0.36097,0.06067 -0.5499,0.06067c-1.13461,0 -2.09269,-0.75584 -2.39818,-1.79147l-1.50851,-4.70701l0.01096,-0.00351l-0.02144,-0.03001c-0.03045,-0.10516 -0.06106,-0.21022 -0.09182,-0.31519c0.04292,0.53058 0.05154,1.05805 0.0135,1.58102c-0.0023,0.03159 -0.00471,0.06317 -0.00722,0.09474l0.01307,-0.00056l0.1977,4.57769c0.00203,0.04127 0.00305,0.0828 0.00305,0.12458c0,1.07452 -0.6779,1.99071 -1.62935,2.34422c0.55834,5.34905 1.96107,10.54294 2.41814,15.8742c0.42816,4.99407 -0.52381,10.73976 -1.11585,15.68843c-0.37349,3.1219 -0.20476,5.92119 -0.95565,8.56556c0.75344,0.43064 1.26124,1.24202 1.26124,2.17201c0,0.1388 -0.01131,0.27496 -0.03306,0.40761l-0.56198,3.81587c-0.06135,0.46955 -0.253,0.89812 -0.53746,1.24825c-0.04143,0.18643 -0.08091,0.37194 -0.11878,0.55653c1.17415,0.20521 2.06662,1.22967 2.06662,2.46257c0,0.21493 -0.02712,0.42353 -0.07813,0.62255l-0.78136,3.34239l-0.0383,-0.00895c-0.00496,0.06981 -0.01077,0.13963 -0.01747,0.20945c-0.08607,0.89691 -0.49512,1.71309 -0.92626,2.52374c-0.04108,0.4492 -0.201,0.86403 -0.44804,1.2128l-0.48878,0.71036l-1.58367,3.54235c-0.35715,0.84934 -1.16993,1.45991 -2.13238,1.52576c-0.89428,1.15731 -1.7739,2.29621 -2.12968,2.78434c-2.28259,3.13182 -4.5115,6.29921 -6.78359,9.43745c-0.2869,0.44691 -0.59392,0.87622 -0.93045,1.27972c-0.33806,0.46282 -0.67736,0.92481 -1.0182,1.38575l-2.71704,4.09374c-0.44466,0.69182 -1.2211,1.1501 -2.10459,1.1501c-1.21422,0 -2.22626,-0.86562 -2.45268,-2.01342c-0.62926,0.64239 -1.26002,1.28318 -1.89234,1.92227c-2.23403,2.25796 -4.51041,4.47369 -6.78122,6.69464c-1.30882,1.28008 -2.27308,3.07258 -3.94271,3.82354c-0.15045,0.06767 -0.303,0.12779 -0.4574,0.18125l0.01927,0.04786l-2.92431,1.17742c-0.30259,0.13003 -0.63599,0.20205 -0.98622,0.20205c-1.38071,0 -2.5,-1.11929 -2.5,-2.5c0,-0.46626 0.12764,-0.90271 0.34989,-1.27631l1.97186,-3.45923c4.33255,-7.60062 8.92507,-14.77698 14.07084,-21.85156c0.45078,-0.61975 0.84057,-1.19901 1.19799,-1.74401c-1.57148,1.08643 -3.1283,2.18905 -4.62618,3.33803c-4.67551,3.58647 -9.11091,7.68315 -13.59905,11.50881c-0.88626,0.75545 -5.85978,5.2221 -6.01844,5.31624l-3.73904,3.30257c-0.44191,0.39417 -1.02471,0.63372 -1.66347,0.63372c-1.38071,0 -2.5,-1.11929 -2.5,-2.5c0,-0.66037 0.25604,-1.26094 0.67427,-1.70785l3.33588,-3.58497c5.53673,-7.33684 12.47692,-14.19257 17.24873,-22.03459c1.23936,-2.03677 1.88394,-3.99368 2.7398,-5.78022c-6.61294,4.94831 -13.13978,10.00405 -19.72353,14.99521c-2.67291,2.02634 -5.37084,4.02019 -8.09499,5.97711c-1.39343,1.00098 -2.58178,2.38128 -4.18159,3.00113c-0.04621,0.0179 -0.09252,0.03549 -0.13891,0.05276l0.01233,0.02227l-3.92918,2.17525c-0.36789,0.21298 -0.79508,0.33489 -1.25075,0.33489c-1.38071,0 -2.5,-1.11929 -2.5,-2.5c0,-0.79559 0.37163,-1.50438 0.95077,-1.96225l3.00733,-2.41875l0.01072,0.01332l0.02603,-0.04232c5.31447,-3.95651 10.54673,-7.96747 15.52596,-12.33928c0.64584,-0.56705 1.30143,-1.34351 1.98354,-2.06038c-1.50073,0.13381 -3.00704,0.20335 -4.50881,0.32662c-3.17214,0.26037 -12.91891,1.42573 -15.09565,-1.28152c-1.13892,-1.41649 0.51801,-3.77905 1.65828,-5.19446c1.5839,-1.9661 6.31815,-3.57932 8.74712,-4.5359c0,0 2.328,-0.91126 3.23927,1.41674c0.91126,2.328 -1.41674,3.23927 -1.41674,3.23927c-1.16659,0.45355 -2.26056,1.0837 -3.35975,1.69752c0.51955,0.0442 1.05144,0.08439 1.60047,0.06701c3.85426,-0.12203 8.39404,-1.61421 12.17888,-1.19266c1.77417,0.19761 4.68899,-0.36376 5.18197,1.35197c0.01919,0.06678 0.03584,0.13353 0.05007,0.20023c3.78939,-2.89955 7.59223,-5.78171 11.45051,-8.59271l0.25657,-0.0427l-0.03384,-0.0736l3.01919,-1.38811c0.33013,-0.16069 0.70091,-0.25084 1.09276,-0.25084c1.38071,0 2.5,1.11929 2.5,2.5c0,0.39792 -0.09297,0.77413 -0.25837,1.10809l-2.09835,4.48024l-0.23247,-0.10888c-1.00555,3.24108 -2.28598,6.36165 -4.13724,9.40403c-0.91348,1.50123 -1.9026,2.96757 -2.9443,4.40862c4.13522,-3.26732 8.33077,-6.42763 12.69079,-9.5117l0.13167,-0.02774l-0.02153,-0.03817l2.62849,-1.48268c0.37156,-0.21889 0.80468,-0.34445 1.26712,-0.34445c1.38071,0 2.5,1.11929 2.5,2.5c0,0.41766 -0.10242,0.8114 -0.28352,1.15748l-2.20191,4.43267c-1.16802,3.91195 -4.89492,7.53258 -7.24026,10.76256c-2.06705,2.84672 -3.96737,5.7627 -5.786,8.73103c6.40928,-6.36171 12.63489,-12.91805 18.75504,-19.56219c1.60371,-2.53584 3.20909,-5.06861 4.83688,-7.58903c0.27015,-2.14099 1.73981,-8.44438 1.96817,-9.46555l0.31151,-1.43144l-0.40011,-3.72535l0.02899,-0.00311c-0.01451,-0.06207 -0.02855,-0.12429 -0.04209,-0.18666c-0.33748,-1.55475 0.64725,-8.75203 0.83639,-10.33361c0.55542,-4.64425 1.50766,-10.09255 1.09061,-14.77625c-0.51844,-5.82229 -2.10933,-11.48807 -2.54828,-17.3697l0.02263,-0.08133l-0.02471,0.00023l-0.03445,-3.65528c-0.0001,-0.00916 -0.00015,-0.01833 -0.00015,-0.02752c0,-1.00526 0.59332,-1.87194 1.44888,-2.26895c-0.36732,-1.39609 -0.22886,-2.91025 -0.42936,-4.34946c-0.37717,-2.70746 -1.44884,-5.38703 -1.2137,-8.1105c0.06984,-0.80891 0.61804,-1.55074 0.87526,-2.31977c-0.47434,-1.19058 -0.71252,-2.49374 -1.1383,-3.70747l0.00001,-0.0023c-0.21783,-0.3501 -0.43028,-0.70179 -0.60662,-1.06416l-0.00135,-0.10796l-0.03447,0.01208l-1.32036,-3.76736c-0.10338,-0.27422 -0.15995,-0.57139 -0.15995,-0.88178c0,-0.87145 0.44589,-1.63877 1.12197,-2.08624c-4.83242,-7.28663 -11.83155,-12.70583 -18.9493,-17.90724c4.42713,6.45005 8.62213,13.0527 12.94096,19.57552l0.01568,0.04797l0.01024,-0.00622l2.16209,3.56111c0.24324,0.38561 0.38398,0.84234 0.38398,1.33195c0,1.38071 -1.11929,2.5 -2.5,2.5c-0.21755,0 -0.4286,-0.02779 -0.62981,-0.08l-3.32009,-0.78631l0.00767,-0.03237c-0.11006,-0.01971 -0.21984,-0.042 -0.32932,-0.06711c-4.40874,-1.01094 -9.48035,-5.7527 -13.1814,-8.23686c-0.11751,-0.07887 -0.23501,-0.15774 -0.35251,-0.23662c1.73424,1.57635 3.44867,3.17354 5.12473,4.8116l0.03023,0.08584l0.02691,-0.02406l1.77936,1.98996c0.39977,0.44316 0.64315,1.03015 0.64315,1.67398c0,1.38071 -1.11929,2.5 -2.5,2.5c-0.5099,0 -0.98415,-0.15265 -1.37953,-0.41475l-4.17923,-2.67695l0.13445,-0.2099c-9.33573,-3.45515 -18.14393,-8.07262 -26.87281,-12.89959c3.90903,3.81329 7.48934,7.87584 11.19037,11.89314l0.04623,0.11025l0.02613,-0.01997l1.97016,2.57798c0.33089,0.42396 0.52805,0.95739 0.52805,1.53687c0,1.38071 -1.11929,2.5 -2.5,2.5c-0.0772,0 -0.15359,-0.0035 -0.22901,-0.01035l-4.93301,-0.39723l0.00183,-0.02267c-0.07895,-0.00178 -0.15792,-0.00427 -0.23692,-0.00753c-0.703,-0.02897 -6.56201,-1.8938 -8.06149,-2.22236c-5.58296,-1.22332 -11.40059,-2.40819 -17.067,-3.15893c-9.05817,-1.20011 -18.2093,-1.17617 -27.31535,-1.75428c-8.1187,-0.51543 -16.22371,-1.09024 -24.34111,-1.57796c0.22197,0.16624 0.44393,0.32884 0.66621,0.48647l0.57497,0.40775c0,0 0.6765,0.47975 0.97389,1.27625c0.98034,0.14869 1.96014,0.29748 2.93893,0.44809l0.16779,0.12089l0.02185,-0.06873l3.71624,1.18126c1.0385,0.30369 1.79706,1.26317 1.79706,2.39982c0,1.38071 -1.11929,2.5 -2.5,2.5c-0.04983,0 -0.09932,-0.00146 -0.14843,-0.00433l-4.9738,-0.25674c-4.98095,0.8038 -10.73077,-0.14913 -15.82267,0.05966c-10.49502,0.43033 -21.02572,0.9509 -31.55152,1.13614c8.23305,2.40619 16.18156,5.54241 24.09548,8.93757l0.13976,0.167l0.03986,-0.06222l2.14795,1.37583c0.71217,0.44055 1.18664,1.22868 1.18664,2.12763c0,1.26928 -0.94591,2.31763 -2.17126,2.47858l-4.90877,0.72661l-0.07373,-0.49808c-7.29022,1.76498 -14.91385,2.28522 -22.53058,2.3367c12.3888,2.22403 24.80158,4.45317 37.09948,7.10847l0.05425,0.03797l0.00606,-0.02259l2.92473,0.78504c1.09296,0.2673 1.90402,1.2532 1.90402,2.42852c0,1.29711 -0.98785,2.3635 -2.25226,2.48788l-4.93888,0.55238l-0.00084,-0.00751c-0.01557,0.00414 -0.03115,0.00827 -0.04674,0.01237c-6.16765,1.6221 -13.8583,0.76322 -20.18833,0.80136c-8.38195,0.0505 -16.86132,-0.20327 -25.26866,0.03977c0.5617,0.27762 1.16516,0.52416 1.8617,0.70073c3.13687,0.79519 6.38724,1.04522 9.58184,1.56178c18.74574,3.03117 37.88774,6.23556 55.93632,12.29918l0.11488,0.1016l0.02013,-0.04258l3.34589,1.58179c0.87328,0.38985 1.48192,1.26585 1.48192,2.28399c0,1.30999 -1.00756,2.38465 -2.29001,2.49131l-4.95127,0.47017c-1.97937,0.48579 -8.12595,0.57741 -10.13203,0.64139c-6.17607,0.197 -12.29397,0.08267 -18.46704,0.09568c-3.85371,0.00812 -7.70892,0.1219 -11.56119,0.30547c3.28769,0.42688 6.58682,0.8034 9.87674,1.18817c4.70653,-0.09123 9.41109,-0.1501 14.10872,-0.17627c4.17177,-0.02325 8.74267,1.02879 12.79214,0.3776c0,0 1.78172,-0.2562 2.53884,1.17805v-0.00497h2.57992c1.16839,0 2.14958,0.80152 2.42372,1.8847c11.15529,0.92719 22.30684,1.87632 33.41199,3.27241c-0.17443,-0.49384 -0.75419,-0.97836 -0.99606,-1.47064l-0.01143,0.39372c0,0 -1.38043,-2.08433 0.7039,-3.46476c2.08433,-1.38043 3.46476,0.7039 3.46476,0.7039l0.78237,1.59229c0.03394,0.94129 0.34346,1.95832 0.5099,2.93603l1.19017,0.26621c7.35199,0.3044 14.70189,0.54697 22.07289,0.60037l-0.31631,2.57696l0.27962,2.42291c-0.19217,-0.00143 -0.38433,-0.00299 -0.57645,-0.00468l-0.00058,0.00474c0,0 -0.04393,0 -0.12014,-0.00582c-6.63924,-0.06026 -13.25115,-0.27472 -19.8678,-0.54183c-0.26528,0.09587 -0.55142,0.14813 -0.84977,0.14813c-0.16238,0 -0.32114,-0.01548 -0.4749,-0.04505l-1.19307,-0.20705c-2.39303,-0.10082 -4.78721,-0.20684 -7.18405,-0.31327c-1.97529,0.27283 -3.92097,0.42809 -5.14128,0.541c-0.43098,0.54633 -1.08505,0.9085 -1.82478,0.94907l-4.97162,0.31397l-0.0003,-0.00468c-0.0079,0.00203 -0.01581,0.00406 -0.02372,0.00608c-1.23754,0.31635 -2.53391,0.23554 -3.8218,0.21195c0.32254,0.42103 0.51421,0.94762 0.51421,1.51898c0,1.17264 -0.80736,2.15672 -1.89655,2.42668l-2.51283,0.68308l-0.00834,-0.03067l-0.08659,0.05449c-9.7099,1.84215 -19.54928,3.12375 -29.17549,5.35412c-1.4496,0.33587 -3.29872,1.11983 -5.13544,1.69065c0.33143,0.39175 0.55948,0.95503 0.50857,1.76426c-0.15697,2.49507 -2.65204,2.3381 -2.65204,2.3381c-1.12695,-0.07375 -2.25389,-0.1475 -3.38084,-0.22126l-0.18788,-0.10391l-0.01522,0.06551l-2.53083,-0.58785c-1.13288,-0.23798 -1.98348,-1.24294 -1.98348,-2.44658c0,-0.8477 0.42191,-1.59686 1.0672,-2.04894l2.75176,-1.97847l0.01727,0.02403c0.08226,-0.0659 0.16607,-0.13012 0.25156,-0.19252c2.11687,-1.54493 7.67679,-2.59554 10.15799,-3.17333c6.21672,-1.44766 12.52379,-2.49386 18.8279,-3.54765c-6.00732,-0.17085 -12.03364,-0.2863 -18.044,-0.35154c-0.15,0.00318 -0.30001,0.00627 -0.45001,0.00928l-3.61091,1.52147c-3.03999,1.92032 -5.92333,2.06646 -9.3823,2.68626c-7.66301,1.3731 -15.05416,2.48266 -22.85515,2.11792l-3.32649,-0.15943c-1.33185,-0.05522 -2.39464,-1.1524 -2.39464,-2.49782c0,-0.71766 0.3024,-1.3647 0.78672,-1.82064l1.08316,-1.02419l-2.21223,-0.26198c-1.25735,-0.13118 -2.23754,-1.19432 -2.23754,-2.48639c0,-1.29956 0.99158,-2.36753 2.25943,-2.48857l3.91751,-0.42559c2.29039,-0.35502 4.57735,-0.71651 6.86153,-1.08555c2.2441,-0.87151 4.81059,-1.54199 7.21933,-2.1464c-2.27416,-0.05696 -4.55206,-0.13109 -6.83523,-0.22168c-3.3247,-0.13191 -6.65003,-0.24779 -9.97546,-0.35983c-1.74891,-0.05892 -3.59672,0.40049 -5.24653,-0.18287c-0.07925,-0.02802 -0.15782,-0.05743 -0.23573,-0.08814l-0.01013,0.04276l-3.32414,-0.78729c-1.12784,-0.2418 -1.9734,-1.24438 -1.9734,-2.44444c0,-1.38071 1.11929,-2.5 2.5,-2.5c0.04423,0 0.08819,0.00115 0.13185,0.00342l4.26147,0.19498c1.4393,-0.06847 2.87937,-0.13396 4.32008,-0.19646l-1.92513,-0.872c-0.89371,-0.38111 -1.52016,-1.26774 -1.52016,-2.30068c0,-1.26639 0.94162,-2.31286 2.16291,-2.47747l3.24781,-0.49287l0.00456,0.03007l0.08786,-0.04233c12.59912,-0.96347 25.09739,-0.64833 37.69437,-1.04981c2.91424,-0.09288 5.83237,-0.10353 8.74416,-0.24794c-10.79427,-3.21301 -22.16205,-5.72034 -33.08999,-7.45222c-6.58925,-1.04427 -13.1815,-2.07127 -19.76262,-3.1659c-4.35522,-0.7244 -9.09641,-1.71078 -12.96419,-4.05546l-4.56851,-1.88463c-0.93615,-0.36124 -1.60026,-1.26967 -1.60026,-2.3332c0,-1.32745 1.0346,-2.41326 2.34143,-2.49505l3.32724,-0.23922c12.56643,-0.89691 25.38568,-0.37267 37.99809,-0.44686c0.76377,-0.00449 1.5276,-0.015 2.29135,-0.03151c-6.93196,-1.32449 -13.88044,-2.57127 -20.81664,-3.86101c-3.27225,-0.60845 -6.55259,-1.17255 -9.82752,-1.76637c-2.09422,-0.37973 -5.8051,-0.67934 -7.87777,-2.07458l-4.54763,-1.93529c-0.92236,-0.36795 -1.57415,-1.26934 -1.57415,-2.32296c0,-1.38071 1.11929,-2.5 2.5,-2.5c0.00754,0 0.01507,0.00003 0.0226,0.0001l4.99659,0.03866l-0.00006,0.0078l0.0285,-0.00742c9.1653,0.27925 18.21218,0.28032 27.36514,-0.45928c2.25227,-0.18199 4.29838,-0.58947 6.30631,-0.73792c-6.44172,-2.62514 -12.93804,-5.03187 -19.6684,-6.92653c-4.40102,-1.23893 -9.67452,-1.47795 -13.86258,-3.25436l-4.82633,-1.09993c-1.13771,-0.23427 -1.99316,-1.24153 -1.99316,-2.44859c0,-1.38071 1.11929,-2.5 2.5,-2.5c0.00915,0 0.01829,0.00005 0.02742,0.00015l3.01259,0.02829l-0.00012,0.01258l0.03084,-0.01211c15.04942,0.51211 30.15739,-0.19151 45.20479,-0.83247c-1.82454,-0.41899 -3.64034,-0.87588 -5.44461,-1.38069c-1.00961,-0.28247 -9.0803,-2.46675 -9.89222,-3.01099c-0.06631,-0.04445 -0.13201,-0.08965 -0.19713,-0.13557l-0.01671,0.03018l-3.92527,-2.17307c-0.79277,-0.41923 -1.33298,-1.25226 -1.33298,-2.21146c0,-1.38071 1.11929,-2.5 2.5,-2.5c0.14565,0 0.28839,0.01245 0.42721,0.03636l2.42996,0.37629c0.10109,0.00402 0.20218,0.00811 0.30327,0.01229c-0.2103,-0.36618 -0.33055,-0.79066 -0.33055,-1.24323c0,-1.38071 1.11929,-2.5 2.5,-2.5c0.09357,0 0.18594,0.00514 0.27684,0.01515l4.32715,0.42413l-0.00067,0.00683l0.0216,-0.00469c5.04347,0.58012 10.08506,1.12407 15.13473,1.58096l2.21444,0.06313c-1.65312,-0.45772 -3.30343,-0.94611 -4.97357,-1.43312l-0.1403,-0.11046l-0.02023,0.04522l-3.52016,-1.5748c-0.89952,-0.37852 -1.53108,-1.26816 -1.53108,-2.30531c0,-1.14564 0.77061,-2.1113 1.82176,-2.4069l4.51042,-1.38174l0.00865,0.02825c0.09143,-0.03372 0.1834,-0.06624 0.27593,-0.09749c1.9287,-0.65128 8.50156,-0.24346 10.52576,-0.17013c4.82963,0.17496 9.46177,0.37345 14.25642,1.00162c6.04736,0.79228 12.04121,1.92021 18.08194,2.74751c10.03795,1.37473 20.21552,2.2738 30.04909,4.78965zM221.08435,227.51329c3.0118,-0.08341 6.02427,-0.06857 9.03646,-0.05612c2.92904,-0.12639 6.80513,-0.29342 6.828,-0.2944c1.86002,-0.08016 3.72042,-0.14457 5.58107,-0.19903c-0.32024,-0.33551 -0.54807,-0.75998 -0.64265,-1.23258c-2.70817,-0.22309 -5.41628,-0.44747 -8.12363,-0.67982c-2.65661,0.46902 -5.30741,0.97189 -7.95198,1.50435c-1.62075,0.32632 -3.24144,0.64639 -4.86228,0.96059c0.04504,-0.00076 0.09004,-0.00175 0.13501,-0.00299zM215.80975,151.3804c2.83563,0.63371 5.69315,1.17516 8.56036,1.66734c-0.59245,-0.42162 -1.14302,-0.81413 -1.5969,-1.13883c-2.32246,-0.16022 -4.64317,-0.34251 -6.96346,-0.52851zM193.05351,233.98469c-0.12283,0.15339 -0.24685,0.30525 -0.37691,0.44916c4.03924,0.01447 7.97967,-0.37481 11.93594,-0.94494c-2.38593,0.10633 -4.7723,0.21243 -7.16004,0.3108c-0.44668,0.0184 -2.34731,0.11062 -4.39899,0.18499z" fill="#70b548" stroke="none" stroke-width="0.5" stroke-linecap="butt"></path><path d="M245.35424,151.94245c3.74842,0.70193 7.49571,1.42378 11.23733,2.17673c6.12864,0.52985 12.24516,1.11835 18.36195,1.82205c2.82508,0.32501 10.3215,0.44426 12.8588,1.63606c0.09504,0.04464 0.18862,0.09156 0.28086,0.14058l0.01688,-0.04191l2.92281,1.1768c0.72399,0.27222 1.28825,0.8707 1.51366,1.61628c2.31935,0.42021 4.63722,0.85267 6.95365,1.29891l0.14045,0.10583l0.01947,-0.05822l2.34473,0.78417c1.02035,0.31491 1.76178,1.26548 1.76178,2.38922c0,1.11951 -0.73585,2.06715 -1.75027,2.38563l-3.22999,1.0978c-0.32189,1.00869 -1.2667,1.73918 -2.38212,1.73918c-0.14038,0 -0.27805,-0.01157 -0.41212,-0.03381l-1.0008,-0.14913c-0.4182,0.17138 -0.84029,0.33538 -1.26589,0.49248l2.80824,1.07369c0.75233,0.26771 1.33863,0.88555 1.56281,1.65745c0.92293,0.36768 1.57522,1.26935 1.57522,2.32338c0,1.38071 -1.11929,2.5 -2.5,2.5c-0.12951,0 -0.25671,-0.00985 -0.38091,-0.02883l-4.85624,-0.66547c-0.26817,0.01983 -0.53786,0.03578 -0.80895,0.0481c-0.33752,0.58092 -0.90233,1.01342 -1.57268,1.17575c0.67652,0.24411 1.21751,0.77177 1.47951,1.43952c6.1801,2.16803 12.26758,4.44439 18.32363,7.23228l0.04756,0.04363l0.00807,-0.01546l3.0865,1.61142c0.82358,0.40894 1.38962,1.25862 1.38962,2.2405c0,1.16914 -0.80255,2.15084 -1.88679,2.42424l-4.7668,1.31711c-4.74081,1.97544 -10.40997,2.56739 -15.94629,3.00331c0.01153,0.0038 0.02306,0.0076 0.0346,0.01141l0.01652,0.01142l0.00178,-0.00514l4.6689,1.62004c1.00667,0.32308 1.73528,1.26689 1.73528,2.38088c0,1.37631 -1.11216,2.49286 -2.4868,2.49997l-1.30986,0.00792c-0.30603,0.13642 -0.64451,0.21315 -1.00067,0.2154l-3.43093,0.02541c-3.01386,0.11314 -6.02483,0.19258 -9.03529,0.2432c0.15341,0.66319 0.24447,1.2943 0.24251,1.85561c7.6366,2.49922 15.24299,4.80912 22.6891,7.84771l0.00903,0.00973l0.00213,-0.00508l2.32808,0.97639c0.92887,0.36481 1.58646,1.26953 1.58646,2.32783c0,1.04426 -0.64026,1.93898 -1.54963,2.31302c0.1037,0.27458 0.16044,0.57221 0.16044,0.8831c0,1.27994 -0.96187,2.33523 -2.20221,2.48245l-1.17187,0.15727c-0.02289,1.36093 -1.13325,2.45711 -2.49964,2.45711c-0.151,0 -0.29887,-0.01339 -0.44249,-0.03904l-3.39972,-0.54669l0.00373,-0.02321l-0.06643,0.01231c-1.81715,-0.3879 -3.6484,-0.77559 -5.47729,-1.18658c-1.2149,0.02877 -2.4293,0.04846 -3.64404,0.05829c0.27978,0.40374 0.44371,0.89385 0.44371,1.42226c0,1.38071 -1.11929,2.5 -2.5,2.5c-0.06908,0 -0.1375,-0.0028 -0.20516,-0.0083l-2.75249,-0.1979l0.00198,-0.02749l-0.06847,0.02182c-7.33766,-0.92106 -14.66148,-1.95525 -22.01957,-2.69583c-2.87599,-0.28946 -9.5272,-0.26718 -12.67112,-1.32126c-2.11517,0.09374 -4.13319,0.01383 -6.40768,-0.78388l-4.88837,-0.8302c-1.20157,-0.18201 -2.12246,-1.2193 -2.12246,-2.47168c0,-1.28713 0.97271,-2.34708 2.22313,-2.48484l4.9286,-0.61538l0.00101,0.00812l0.02697,-0.01145c4.69581,-0.47906 9.95459,-0.56578 14.54462,-1.69027c0.18886,-0.04627 0.37265,-0.1097 0.5531,-0.18424c-6.54819,-1.24896 -13.14067,-2.12078 -19.74237,-3.11537c-3.851,-0.58018 -8.76841,-0.5523 -12.35043,-2.14813l-4.83432,-1.06814c-1.14538,-0.22832 -2.00856,-1.23921 -2.00856,-2.45171c0,-1.38071 1.11929,-2.5 2.5,-2.5h2.77837v0.01249l0.02925,-0.01232c4.7924,0.11194 9.52391,0.15431 14.26255,0.04813c-3.78278,-0.48084 -7.5719,-0.91753 -11.37908,-1.34332c-4.40438,-0.49259 -9.88791,-0.25514 -13.97396,-2.2287l-4.75439,-1.35871c-1.0738,-0.28058 -1.86619,-1.25723 -1.86619,-2.41896c0,-1.28007 0.96206,-2.33543 2.20256,-2.48249l4.92097,-0.65964l0.00338,0.02524l0.08643,-0.03563c0.63981,-0.03898 1.27822,-0.06762 1.91556,-0.08823c-0.46217,-0.31902 -0.81166,-0.78965 -0.97661,-1.34003l-2.44089,-1.22847c-3.18449,-0.06822 -6.37064,-0.1687 -9.56174,-0.26894l-0.02031,-0.00766l-0.00032,0.00675l-4.15323,-0.19908c-1.33184,-0.05522 -2.39463,-1.15241 -2.39463,-2.49782c0,-1.20363 0.8506,-2.2086 1.98348,-2.44658l2.5308,-0.58785l0.01332,0.05735c0.10833,-0.04105 0.21833,-0.07859 0.33018,-0.11229c2.25213,-0.67855 7.37786,0.08953 10.92121,0.61125l2.33263,-1.13507c-2.41323,-0.31262 -9.18262,-1.18983 -9.19581,-1.1948c-0.03829,-0.01443 -0.07649,-0.02902 -0.11462,-0.04379l-0.00447,0.01942l-4.82381,-1.10981c-1.13532,-0.23611 -1.98836,-1.24224 -1.98836,-2.4476c0,-1.37745 1.114,-2.4947 2.49021,-2.49998l4.9297,-0.02212c2.27739,-0.04309 4.55117,-0.09942 6.82267,-0.16973l-0.46417,-0.22132c-0.86915,-0.39156 -1.4742,-1.26539 -1.4742,-2.28053c0,-1.38071 1.11929,-2.5 2.5,-2.5c0.04709,0 0.09387,0.0013 0.14032,0.00387l4.3407,0.21159l-0.00132,0.02699l0.08881,-0.02118c6.10575,0.72729 12.22478,1.33342 18.3487,1.89733l-1.09618,-0.32692c-4.2449,-1.01267 -8.4711,-2.09686 -12.72637,-3.15213c-6.17738,-1.01194 -12.20039,-2.13953 -18.29402,-3.9605l-0.02275,-0.01805l-0.00317,0.00983l-3.594,-1.16027c-1.03305,-0.3071 -1.78645,-1.26391 -1.78645,-2.39669c0,-1.17704 0.81342,-2.16409 1.90879,-2.42968c-1.38901,-0.4454 -2.78065,-0.85259 -4.1733,-1.20108c-2.42762,-0.60748 -4.90672,-1.00164 -7.39383,-1.30862c-1.7251,-0.06693 -3.45002,-0.13481 -5.17474,-0.20327c-0.19287,-0.00084 -0.38448,-0.00746 -0.57426,-0.02281c-0.81048,-0.03223 -1.62091,-0.06457 -2.43129,-0.097l-0.08609,-0.04374l-0.00397,0.03525l-3.83352,-0.43131c-1.2637,-0.12507 -2.25077,-1.19113 -2.25077,-2.48773c0,-1.38071 1.11929,-2.5 2.5,-2.5c0.05025,0 0.10016,0.00148 0.14968,0.00441l4.97354,0.25894c1.54134,-0.21296 4.1594,0.10629 6.50239,0.47426c11.9799,0.46209 23.96767,0.88749 35.95078,1.13636c-0.04308,-0.18386 -0.06586,-0.37552 -0.06586,-0.57251c0,-1.38071 1.11929,-2.5 2.5,-2.5c0.18688,0 0.36897,0.0205 0.54414,0.05939l4.82878,0.9721c2.39555,0.0454 4.73588,0.64393 7.08067,1.19778c0.18939,-1.19299 1.22268,-2.10494 2.46896,-2.10494c0.16601,0 0.32825,0.01618 0.48521,0.04705l4.87495,0.86593l-0.00066,0.00369zM236.07195,167.89201c0.01583,0.00904 0.03162,0.01813 0.04737,0.02728l0.00554,-0.01336c-0.01764,-0.00464 -0.03527,-0.00928 -0.05291,-0.01392zM240.23517,168.98713c-0.00427,-0.00143 -0.00854,-0.00285 -0.01281,-0.00428c-1.28139,-0.33674 -2.56268,-0.67325 -3.84376,-1.01018l2.26522,0.93885c0.53044,0.02532 1.06088,0.05051 1.59134,0.0756zM269.88037,182.19272c-0.33814,0.07618 -0.69292,0.14715 -1.05846,0.21329c0.1027,0.18493 0.20588,0.36966 0.30948,0.55419c1.92019,0.44977 3.83877,0.90656 5.75411,1.37745c2.59077,0.63694 5.15025,1.39499 7.72402,2.09746c1.68854,0.46086 3.56587,0.48342 5.06399,1.38852c0.07212,0.04357 0.14305,0.08866 0.21285,0.13515l0.01693,-0.03364l2.33331,1.17428c0.84233,0.4021 1.42431,1.26178 1.42431,2.25739c0,0.38612 -0.08753,0.75179 -0.24384,1.07826c1.70892,-0.16607 3.40592,-0.33332 5.07827,-0.52502c2.83615,-0.3251 5.38233,-1.13193 7.97575,-1.35905c-6.18572,-2.75576 -12.3835,-5.19438 -18.86719,-7.26121l-2.03004,-0.11228c-1.65294,0.21345 -3.32825,-0.18395 -4.99237,-0.27613c-2.90938,-0.16116 -5.80666,-0.41845 -8.70111,-0.70867zM237.0524,160.09711c-1.23655,-0.36063 -2.47247,-0.72503 -3.70778,-1.09343c-2.64756,0.01352 -5.28935,0.04465 -7.90481,0.02011c2.87761,0.59016 5.7554,1.17949 8.63292,1.77008c0.064,-0.01897 0.12906,-0.03544 0.19509,-0.04931l2.53077,-0.58785l0.00626,0.02694c0.05755,-0.02145 0.1155,-0.04209 0.17385,-0.06187c0.02449,-0.0083 0.04906,-0.01652 0.0737,-0.02467zM266.59353,188.76021c-0.28302,-0.49551 -0.56503,-0.99159 -0.84573,-1.48841c-4.7686,-1.11629 -9.55228,-2.17712 -14.31197,-3.32994c-1.33297,0.07651 -2.66664,0.14876 -4.00046,0.22067c4.94511,1.51072 9.88989,3.02017 14.83125,4.54177c0.72084,0.00801 1.44183,0.01732 2.16307,0.02815c0.72127,0.01083 1.44255,0.0199 2.16384,0.02775zM252.39189,207.92783c-1.66508,0.80603 -3.68418,0.34027 -5.52753,0.49598c-0.08559,0.00723 -0.17116,0.01437 -0.25672,0.02143c3.58465,0.54517 7.16276,1.12691 10.72495,1.81401c0.3011,-0.63254 0.8601,-1.11862 1.54104,-1.32228l1.15711,-0.37571c-1.18404,-0.39445 -2.36853,-0.79802 -3.55431,-1.21254l-0.02875,-0.01949l-0.00292,0.00769l-1.74663,-0.66402l-1.79944,1.03415l-0.02725,-0.04742c-0.15379,0.0979 -0.31333,0.18773 -0.47954,0.26819zM272.90266,217.51986c-0.81561,-0.01297 -1.63114,-0.0248 -2.4463,-0.03675l2.86826,0.42771c-0.14568,-0.12744 -0.28675,-0.25765 -0.42196,-0.39096zM238.8873,189.98069l-0.00013,-0.00203c-0.004,0.00093 -0.008,0.00186 -0.012,0.00278c-0.00005,0.00001 -0.48155,0.02659 -1.23319,0.06807c0.11364,0.02776 0.22731,0.05563 0.34101,0.08361l0.01972,0.01188l0.00167,-0.00632l1.50193,0.39784c0.05536,-0.21675 0.13904,-0.42216 0.24687,-0.61208zM245.83063,188.49415c-0.03523,0.05584 -0.07261,0.11018 -0.11203,0.16292h0.65218c-0.18003,-0.05438 -0.36009,-0.10869 -0.54015,-0.16292zM264.60676,204.95833c0.73346,0.2645 1.46759,0.52728 2.20269,0.78617c-0.37044,-0.25006 -0.73491,-0.51459 -1.08095,-0.79333c-0.11122,-0.00112 -0.22245,-0.00227 -0.33368,-0.00345c-0.26192,-0.00277 -0.52468,0.00129 -0.78806,0.01061zM251.68663,164.55086c2.54612,0.56171 5.0998,1.12345 7.65881,1.67002c-2.12009,-0.55121 -4.23767,-1.10931 -6.35291,-1.67543c-0.43542,0.00124 -0.87072,0.00302 -1.3059,0.00541zM208.26255,158.60524c0.06211,0.02232 0.12421,0.04465 0.18631,0.06699c-0.00227,-0.02043 -0.0043,-0.04093 -0.00607,-0.06151c-0.06008,-0.00182 -0.12016,-0.00365 -0.18024,-0.00548zM233.82195,167.43551c0.54839,0.08957 1.02208,0.16742 1.37473,0.22616c-0.85384,-0.2248 -1.70755,-0.44988 -2.56112,-0.67544c0.39634,0.14799 0.79184,0.29769 1.18638,0.44928zM279.48272,193.86326c-0.24804,-0.00618 -0.4961,-0.01218 -0.74417,-0.018c0.09925,0.03151 0.1985,0.06303 0.29775,0.09457c0.14867,-0.02594 0.29748,-0.05146 0.44642,-0.07657z" fill="#9eff66" stroke="none" stroke-width="0.5" stroke-linecap="butt"></path><path d="M368.6957,166.9748c-2.38537,0.74835 -3.13372,-1.63701 -3.13372,-1.63701l-1.07595,-3.49762c-4.85648,-7.66539 -9.8809,-15.28837 -15.13244,-22.68856c-1.18216,-1.66584 -2.34311,-3.34179 -3.49231,-5.02524c-2.23493,4.41601 -6.46496,0.91754 -9.43991,-0.76846c-2.82679,-1.60204 -5.58139,-3.60268 -8.27179,-5.61194c0.55597,0.76024 1.05428,1.54625 1.3073,2.44076c0.69167,2.44533 2.12007,5.58852 0.57019,7.60244c-2.14639,2.78904 -8.19705,-1.31546 -9.96898,-2.31579c-1.72297,-0.97269 -3.39412,-1.98963 -5.02222,-3.05972c0.80755,2.04487 1.09608,4.10925 0.4759,6.09428c-1.48734,4.76057 -5.07921,3.26137 -8.02694,2.58796c-6.8658,-1.56849 -12.26647,-4.81696 -18.25212,-8.356c-1.41369,-0.83585 -3.04259,-1.56162 -4.57585,-2.39758c4.74901,6.20179 10.02813,12.01798 14.95801,18.08012c0.92044,0.25313 1.83991,0.51461 2.75833,0.78568c0,0 2.39716,0.70968 1.68748,3.10683c-0.70968,2.39716 -3.10683,1.68748 -3.10683,1.68748c-0.61193,-0.18168 -1.22437,-0.35893 -1.8373,-0.53214c-1.06082,0.32373 -1.91713,-0.26851 -2.323,-0.63727c-8.37318,-2.23074 -16.82963,-3.79874 -25.30087,-5.66709c-2.60629,-0.40023 -5.1965,-0.83677 -7.77582,-1.30232c1.42678,0.54657 2.85071,1.10378 4.2706,1.67665l0.09769,0.09427l0.01918,-0.03621l3.72464,1.97321c0.81599,0.41158 1.37564,1.25719 1.37564,2.2335c0,1.38071 -1.11929,2.5 -2.5,2.5c-0.06057,0 -0.12064,-0.00215 -0.18014,-0.00639l-3.1521,-0.19831l0.00207,-0.03292c-0.06989,0.00471 -0.13993,0.00842 -0.21014,0.01106c-0.04363,0.00164 -9.76929,-2.28097 -9.94161,-2.32137c-4.81928,-1.12967 -9.6406,-2.25561 -14.47276,-3.32924c-14.75746,-3.27886 -29.58639,-5.46354 -44.51085,-7.6449c1.10342,0.743 2.23736,1.56315 3.62573,2.35885c5.33291,3.05637 10.33847,6.56931 15.49635,9.90737l0.03224,0.04079l0.00879,-0.01246l2.91842,2.05805c0.65663,0.45052 1.08733,1.20641 1.08733,2.0629c0,1.38071 -1.11929,2.5 -2.5,2.5c-0.03821,0 -0.07622,-0.00086 -0.11402,-0.00255l-4.9807,-0.19661l0.01768,-0.44792c-11.46362,1.0137 -23.32681,-0.36897 -34.8187,0.02252c-3.34164,0.11384 -6.51239,0.52403 -9.71883,1.03654c9.68728,1.6229 19.22896,5.84806 28.36214,9.13687l0.06933,0.05507l0.00965,-0.02198l4.06704,1.78637c0.90801,0.37467 1.54706,1.26869 1.54706,2.31197c0,1.29207 -0.98019,2.35521 -2.23754,2.48639l-3.34221,0.39579l-0.00386,-0.03264c-0.07631,0.01759 -0.15298,0.03403 -0.23003,0.04926c-0.01296,0.00256 -0.58992,-0.03533 -1.46366,-0.0947c-0.33552,0.98496 -1.26854,1.69345 -2.36704,1.69345h-2.53269c-5.20248,0.26294 -10.40249,0.36354 -15.60484,0.46684c2.57454,0.57863 5.14975,1.15884 7.70646,1.81934l0.04969,0.04136l0.00755,-0.02438l2.52574,0.78225c1.04745,0.29799 1.81453,1.26184 1.81453,2.40486c0,1.38071 -1.11929,2.5 -2.5,2.5c-0.04058,0 -0.08093,-0.00097 -0.12103,-0.00288l-0.33072,-0.01387c1.45228,0.43242 2.70371,0.90762 3.45352,1.42551c0.09327,0.06442 0.18422,0.13138 0.27305,0.20065l0.02618,-0.04227l2.54263,1.57496c0.73113,0.43626 1.22082,1.23514 1.22082,2.1484c0,0.26094 -0.03998,0.51255 -0.11415,0.74903l2.97813,1.4537c0.85761,0.39621 1.4527,1.26397 1.4527,2.27072c0,1.38071 -1.11929,2.5 -2.5,2.5c-0.05084,0 -0.10133,-0.00152 -0.15142,-0.00451l-4.97317,-0.26199l0.01926,-0.36551c-6.77073,0.83149 -13.66664,1.01105 -20.50476,1.24168c0.38086,0.3295 0.7545,0.67241 1.15483,0.96738c11.16495,0.23455 22.32226,0.58499 33.48281,0.89452c5.66397,-0.37419 12.18124,-1.23333 17.35466,0.11599l4.96996,0.32805c1.31301,0.07533 2.35453,1.16396 2.35453,2.49584c0,1.38071 -1.11929,2.5 -2.5,2.5h-4.16755v-0.009l-0.02458,0.00888c-4.44487,-0.08725 -8.8884,-0.22056 -13.33132,-0.36977c0.03573,0.01046 0.07145,0.02095 0.10716,0.03147c1.59874,0.47095 3.3083,0.66322 4.79534,1.41587l4.74175,1.40004c1.06335,0.2876 1.84567,1.25919 1.84567,2.4135c0,1.38071 -1.11929,2.5 -2.5,2.5c-0.11464,0 -0.22748,-0.00772 -0.33803,-0.02266l-4.92315,-0.59466l0.0012,-0.00991l-0.03301,0.00586c-0.39693,-0.05829 -0.7937,-0.11688 -1.19033,-0.17577c0.16099,0.33037 0.25131,0.7015 0.25131,1.09373c0,1.35051 -1.07086,2.45091 -2.40978,2.4984l-4.98339,0.20473c-3.12207,0.70363 -6.39758,0.27406 -9.5841,0.57155c-5.93317,0.55391 -12.08309,0.9215 -18.0627,1.8612c2.70981,0.34916 5.42541,0.89189 8.00706,1.14423c11.32133,1.10659 22.70094,1.59857 33.98335,3.07838l4.13729,0.54318c1.24349,0.14428 2.20874,1.20102 2.20874,2.48321c0,1.3093 -1.0065,2.38352 -2.28798,2.49114l-4.141,0.39698l-0.00019,-0.00203c-0.00337,0.001 -0.00673,0.002 -0.0101,0.00299c-1.44506,0.42767 -3.00721,0.21726 -4.50392,0.3932c-4.93385,0.57999 -9.85716,1.43305 -14.77357,2.14729c-8.72801,1.26797 -17.42056,2.50692 -26.09738,3.94706c2.36415,0.20433 4.70412,0.44739 6.9243,0.50954c12.76276,0.35725 25.49724,0.69794 38.24204,1.34104c1.29483,-0.214 2.56191,-0.28516 3.703,0.19563c0.90278,0.04991 1.80564,0.10148 2.70858,0.15484l2.58956,0.10664c1.33882,0.0476 2.40956,1.14796 2.40956,2.49839c0,1.38071 -1.11929,2.5 -2.5,2.5c-0.02571,0 -0.05133,-0.00039 -0.07686,-0.00116l-4.98758,-0.1321c-0.66677,0.14806 -1.36792,0.25387 -2.09171,0.33003c9.06644,-0.16459 18.15363,-0.36581 27.16508,-1.05224l-2.47687,-0.14666c-1.32011,-0.06782 -2.36963,-1.15968 -2.36963,-2.49666c0,-1.38071 1.11929,-2.5 2.5,-2.5c0.0313,0 0.06247,0.00058 0.0935,0.00172l3.4676,0.11196c1.23984,-0.49965 2.68262,-0.22749 4.05565,-0.22007c5.81301,-0.52139 11.7021,-1.25414 17.48541,-0.94704c0.07649,0.00406 0.15315,0.00722 0.22997,0.00959c3.94067,-0.19103 7.8862,-0.40347 11.81676,-0.73202c2.70045,-0.74208 5.42384,-1.37786 8.21834,-2.01703c1.77778,-0.40663 3.53474,-1.47078 5.33807,-1.19904c0.15597,0.0235 0.31031,0.0525 0.46318,0.08646l0.00912,-0.06041l3.93121,0.59354c1.22213,0.16385 2.16464,1.21071 2.16464,2.4777c0,1.19933 -0.84453,2.20141 -1.97134,2.444l-2.77605,0.66007l-0.00461,-0.01937l-0.04592,0.03083c-4.72892,0.91793 -9.50962,1.5052 -14.31192,1.92117c-0.87992,0.24222 -1.75784,0.49675 -2.63571,0.76889c-0.32361,0.58324 -0.8737,1.02345 -1.5315,1.20186l-2.53279,0.74983c0.76599,0.00062 1.53196,0.00181 2.29784,0.0132c6.61264,0.09828 13.1695,-0.35092 19.77757,-0.62472l3.82566,-0.25028c0.06178,-0.00457 0.12419,-0.0069 0.18714,-0.0069c1.38071,0 2.5,1.11929 2.5,2.5c0,0.70794 -0.29426,1.34715 -0.76713,1.80199l-3.59585,3.46862l-0.01156,-0.01198c-0.03099,0.03604 -0.06215,0.07195 -0.0935,0.10771c-1.12984,1.28893 -2.71928,2.08735 -4.07961,3.13013c-3.90084,2.99025 -7.84372,6.02133 -11.4975,9.31505c-0.62946,0.56743 -1.19304,1.20184 -1.76599,1.81205c2.38173,-1.13035 4.81931,-2.14424 7.17406,-3.3298c8.91506,-4.48854 17.60927,-9.30647 26.26974,-14.26932l0.03827,-0.00879l-0.00496,-0.0093l4.36959,-2.33123c0.36054,-0.20166 0.77616,-0.31661 1.21863,-0.31661c1.38071,0 2.5,1.11929 2.5,2.5c0,0.62019 -0.22583,1.18763 -0.59975,1.62459l-3.21602,3.80853c-1.22816,2.04266 -5.25933,5.85767 -6.9146,7.50692c-0.68966,0.68715 -1.37645,1.37478 -2.06359,2.06052c5.3337,-2.94633 10.42619,-6.3497 15.68022,-9.42624c2.40337,-1.40731 8.78887,-5.51385 11.70504,-4.04723c1.74467,0.87744 1.54699,3.76657 1.32521,5.70682c-0.21554,1.8856 -1.69177,3.39801 -2.55894,5.0862c-1.41133,2.74755 -2.96107,5.39789 -4.60766,7.98679c1.49785,-1.23004 2.99182,-2.46354 4.50017,-3.66062c8.52995,-6.7697 16.21605,-13.87383 23.22555,-22.21063l2.32845,-2.56805c0,0 1.67949,-1.85184 3.53133,-0.17235c1.85184,1.67949 0.17235,3.53133 0.17235,3.53133l-2.26597,2.49784c-7.20276,8.56973 -15.11794,15.88178 -23.88347,22.83833c-3.68446,2.92409 -8.07094,7.8956 -12.42331,9.66897l-4.14293,2.73661c-0.4008,0.27337 -0.88522,0.4332 -1.40697,0.4332c-1.38071,0 -2.5,-1.11929 -2.5,-2.5c0,-0.54631 0.17523,-1.05169 0.47256,-1.46301l2.19814,-3.12523l0.00555,0.0039l0.0065,-0.02089c2.82327,-3.87385 5.66998,-7.83134 8.09491,-11.97377c0.82252,-1.40508 1.49602,-2.8924 2.26755,-4.3261c0.60735,-1.12861 1.14891,-2.29955 1.83407,-3.38134c-2.93851,2.28212 -6.43025,3.92981 -9.58646,5.84803c-6.65359,4.0438 -14.07202,9.65662 -21.63148,11.82758l-4.46331,2.13586c-0.3384,0.17101 -0.72096,0.26734 -1.12602,0.26734c-1.38071,0 -2.5,-1.11929 -2.5,-2.5c0,-0.70559 0.2923,-1.3429 0.76242,-1.79745l3.58785,-3.47763l0.01419,0.01464l0.03662,-0.06254c3.51315,-3.04292 6.96778,-6.29028 10.24497,-9.64882c-7.47,4.23032 -15.01563,8.34705 -22.79276,11.96559c-1.53523,0.71431 -9.00086,3.73547 -9.66912,3.57612c-8.14422,-1.94199 -2.48615,-6.68244 -0.44028,-8.96882c3.34522,-3.73849 7.54045,-6.93226 11.44687,-10.05414c2.08323,-1.66485 3.96712,-3.39454 6.09017,-4.69629c-5.63364,0.28721 -11.2545,0.65259 -16.90025,0.47742c-1.8779,-0.05827 -3.91969,0.55776 -5.63232,-0.21479c-1.74988,-0.78935 -4.11126,-1.7151 -5.31911,-3.17362c-5.4114,0.9389 -10.84225,1.83576 -16.28975,2.33495c-13.29122,1.21797 -26.79388,1.1593 -40.12893,1.52413c-6.79903,0.18601 -13.50377,0.57439 -20.28034,-0.08212c-1.71529,-0.16618 -3.52666,0.08753 -5.14535,-0.50379c-0.05371,-0.01962 -0.10715,-0.0398 -0.16033,-0.06051l-0.00639,0.02697l-3.32419,-0.78729c-1.12785,-0.2418 -1.97341,-1.24438 -1.97341,-2.44444c0,-1.26861 0.94491,-2.31652 2.16931,-2.47832l2.56528,-0.38196c0.65309,-0.09724 1.30637,-0.19332 1.95984,-0.28821c-0.67482,-0.01515 -1.3497,-0.02959 -2.02466,-0.04333c-5.85949,-0.11925 -11.7095,-0.3765 -17.56426,-0.64484c-1.78557,-0.08184 -3.67774,0.35661 -5.3561,-0.25823c-0.11364,-0.04163 -0.22631,-0.08528 -0.33806,-0.1308l-0.01282,0.03694l-4.66874,-1.6205c-1.00655,-0.32315 -1.73505,-1.2669 -1.73505,-2.3808c0,-1.17055 0.80448,-2.1532 1.89071,-2.42523l4.3135,-1.18411l0.0072,0.02624l0.09034,-0.05092c12.94888,-2.46238 25.94649,-4.28575 38.98282,-6.16779c-3.79525,-0.30441 -7.59226,-0.5868 -11.38353,-0.89982c-5.01308,-0.41391 -9.99738,-0.97115 -14.99488,-1.54143c-1.73457,-0.19794 -3.56778,0.01203 -5.20308,-0.5993c-0.07435,-0.0278 -0.14837,-0.05631 -0.22207,-0.0855l-0.00796,0.02548l-4.71833,-1.47392c-1.04452,-0.29987 -1.8088,-1.26229 -1.8088,-2.40322c0,-1.09537 0.70447,-2.02621 1.68505,-2.36416l2.68134,-0.99486l0.0109,0.02937l0.07789,-0.06043c6.84748,-1.95846 14.10133,-2.71367 21.2767,-3.35014c-3.1783,-0.53661 -6.35334,-1.09064 -9.51844,-1.69961c-0.76841,-0.14784 -10.27413,-1.93951 -10.57179,-2.16493c-0.21407,-0.16212 -0.40699,-0.34279 -0.58288,-0.53838l-0.04346,0.03947l-1.99284,-2.19435c-0.27771,-0.30347 -0.48152,-0.67569 -0.58296,-1.08817c-2.36264,-0.18476 -4.72644,-0.36334 -7.09139,-0.54002c-2.81465,-0.07179 -6.08767,-0.15549 -6.09192,-0.15662c-0.02688,-0.00718 -0.05373,-0.01445 -0.08054,-0.02182l-0.00143,0.01568l-4.3405,-0.39716c-1.28612,-0.10297 -2.29773,-1.17932 -2.29773,-2.49194c0,-1.38071 1.11929,-2.5 2.5,-2.5c0.00807,0 0.01614,0.00004 0.02419,0.00011l3.34546,0.02771l-0.00029,0.03475l0.08293,-0.0327c0.82418,0.06123 1.64818,0.12233 2.47202,0.18345c0.47714,-0.00067 0.96095,0.04798 1.4462,0.10733c1.05596,0.07842 2.11167,0.15699 3.16716,0.23597c1.36571,0.03653 2.73135,0.0759 4.09704,0.11301l-0.81937,-0.56378c-0.67096,-0.44832 -1.11283,-1.21264 -1.11283,-2.08017c0,-1.29749 0.98842,-2.36411 2.25336,-2.48799l4.93925,-0.55l0.00244,0.02189l0.09005,-0.03045c4.58016,-0.1692 9.13781,-0.29076 13.7025,-0.70558c0.29598,-0.0269 0.7293,-0.07402 1.25204,-0.12926c-1.36358,-0.45578 -2.73217,-0.90145 -4.09936,-1.34947c-5.84542,-1.10617 -11.5324,-2.48577 -17.35667,-4.55696c-1.57033,-0.55843 -3.25776,-0.85925 -4.71099,-1.67529l-4.65617,-1.6558c-0.99729,-0.32853 -1.71717,-1.26769 -1.71717,-2.37499c0,-0.8845 0.45934,-1.66172 1.15249,-2.10612c-0.25767,-0.34412 -0.4287,-0.75686 -0.48077,-1.20588c-1.44813,-1.3715 -2.37391,-2.998 -1.87889,-4.85915c0.04762,-0.17903 0.13218,-0.34837 0.24917,-0.50857c-0.11177,-0.28367 -0.17316,-0.59269 -0.17316,-0.91605c0,-1.38071 1.11929,-2.5 2.5,-2.5c0.08937,0 0.17764,0.00469 0.26459,0.01384l4.72061,0.44143l-0.00067,0.00718l0.02851,-0.00442c0.78781,0.09147 1.57581,0.18211 2.36392,0.2723c0.77658,-0.06357 1.41079,-0.10185 1.80239,-0.12665c1.25442,-0.07942 2.51173,-0.13717 3.77114,-0.17606c-0.25284,-0.09217 -0.50574,-0.18441 -0.75867,-0.27675c-1.7041,-0.62214 -3.6382,-0.81505 -5.10783,-1.87864c-2.00039,-1.44771 -4.61482,-3.01335 -5.01793,-5.44952c-0.27774,-1.6785 2.08005,-2.77878 3.50177,-3.71325c3.47212,-2.28216 9.2084,-2.5683 13.16161,-3.25112c11.55475,-1.9958 23.74314,-1.45543 35.43719,-1.01964c2.16308,0.08061 4.16926,-0.04043 6.07951,0.08419c-2.1399,-1.45609 -4.27891,-2.91729 -6.46332,-4.28106c-3.71241,-2.31773 -8.59286,-3.88678 -11.3657,-7.45413l-3.63926,-3.41892c-0.48806,-0.45625 -0.79312,-1.10582 -0.79312,-1.82664c0,-1.38071 1.11929,-2.5 2.5,-2.5c0.11348,0 0.22519,0.00756 0.33465,0.0222l4.55469,0.54438l-0.00098,0.00823l0.03375,-0.0041c15.81169,2.31427 31.46868,4.68006 47.07807,7.9671c-2.36539,-0.81233 -4.88233,-1.33097 -6.9614,-2.70031l-4.60836,-1.78407c-0.96324,-0.34735 -1.65185,-1.26948 -1.65185,-2.35245c0,-1.38071 1.11929,-2.5 2.5,-2.5c0.22239,0 0.438,0.02904 0.64325,0.08353l3.60497,0.87433c1.10054,0.24848 2.19965,0.50419 3.29793,0.76412c0.32709,-0.99978 1.26749,-1.72198 2.37657,-1.72198c0.22458,0 0.44224,0.02961 0.64929,0.08514l2.78714,0.68315c0.78079,0.19153 1.55914,0.39224 2.33555,0.6002c3.18103,0.00646 9.58689,2.6965 12.42829,3.52289c5.64075,1.64054 11.28216,2.96468 16.9746,4.09008c0.21127,0.03241 0.42255,0.06483 0.63382,0.09725c0.04616,0.00708 9.94375,1.53049 9.94833,1.53229c0.02031,0.008 0.0406,0.01604 0.06086,0.02412l0.00246,-0.01185l3.04561,0.63115c-4.72428,-5.57893 -9.47666,-11.13858 -13.57306,-17.18361l-0.03024,-0.30118l-0.09004,0.0344l-0.9718,-2.54322c-0.11937,-0.2918 -0.18517,-0.6112 -0.18517,-0.94596c0,-1.38071 1.11929,-2.5 2.5,-2.5c0.32615,0 0.63771,0.06245 0.92338,0.17606l3.71652,1.37821l-0.00676,0.01823c0.05896,0.01679 0.1178,0.03408 0.17653,0.05192c5.98622,1.81798 11.40515,7.00023 16.96767,9.83598c2.79775,1.42628 5.90485,2.14973 8.91156,3.05603c0.68752,0.20723 2.1789,1.19533 2.09969,0.48164c-0.45024,-4.05674 -3.67186,-7.07023 -6.01498,-10.20214c-0.96563,-1.29071 -1.96194,-2.55818 -2.94315,-3.83708l-3.24656,-3.5597c-0.40889,-0.44508 -0.65851,-1.03882 -0.65851,-1.69085c0,-1.38071 1.11929,-2.5 2.5,-2.5c0.63042,0 1.20634,0.23334 1.6461,0.61837l3.77048,3.26389c4.43729,2.5844 7.98381,7.12395 12.41292,9.90229c1.37113,0.8601 2.81928,1.59084 4.22457,2.39392c0.85037,0.48596 1.76325,0.88102 2.57754,1.42087c-1.61498,-2.31227 -2.73477,-4.99386 -4.54235,-7.12927c-1.68322,-1.9885 -3.74828,-3.6194 -5.61581,-5.43592l-0.0334,-0.07949l-0.02213,0.01999l-1.9783,-2.19044c-0.40437,-0.44415 -0.65089,-1.03455 -0.65089,-1.68252c0,-1.38071 1.11929,-2.5 2.5,-2.5c0.33579,0 0.65611,0.0662 0.94863,0.18626l4.11396,1.57753l-0.01591,0.0415c0.11343,0.03416 0.22634,0.07059 0.3387,0.10947c0.23995,0.08303 5.76345,4.39939 6.81078,5.1621c4.90336,3.57083 9.84164,7.16285 14.77522,10.67098c1.03742,0.73768 -0.67108,-2.46545 -1.1823,-3.63124c-0.55053,-1.25542 -1.16117,-2.48244 -1.79189,-3.70002c-0.76936,-1.05517 -1.46539,-2.148 -1.92411,-3.36195l-2.71387,-4.1569c-0.26904,-0.39876 -0.42611,-0.8793 -0.42611,-1.39652c0,-1.38071 1.11929,-2.5 2.5,-2.5c0.81045,0 1.53083,0.38565 1.98764,0.98344l2.17383,2.78942l-0.08172,0.06368l0.22159,0.13501c0.25886,0.50987 0.58101,1.08746 0.94154,1.71629c0.48191,0.53251 0.76359,1.25995 1.11326,1.92227c0.08462,0.14646 0.16985,0.29443 0.25549,0.44376c0.01284,0.0201 0.02582,0.04007 0.03894,0.05989c1.83743,2.7759 3.69844,5.53613 5.54752,8.30429c6.862,10.27267 14.12017,20.27309 20.63451,30.7801l1.30546,4.09311c0,0 0.74835,2.38537 -1.63701,3.13372zM158.36685,162.67434c5.93285,1.67388 11.88202,4.23822 17.59949,6.60061c-2.79753,-1.38666 -5.56036,-2.79735 -8.32446,-4.30415l-0.02752,-0.03202l-0.00709,0.01206l-3.70618,-2.17712c-0.54977,-0.30985 -0.97052,-0.82171 -1.16155,-1.43487c-1.46153,0.4264 -2.89149,0.99253 -4.37268,1.33549z" fill="#4b7930" stroke="none" stroke-width="0.5" stroke-linecap="butt"></path><path d="M282.92807,221.76515l-0.03907,-0.03986l-0.00813,0.01509l-4.35716,-2.3461c-0.80749,-0.41446 -1.35999,-1.25548 -1.35999,-2.22554c0,-1.37303 1.10686,-2.48753 2.47697,-2.4999l-0.6953,-0.5249c-0.61658,-0.45529 -1.01647,-1.18717 -1.01647,-2.01245c0,-1.14202 0.76574,-2.10519 1.81179,-2.40408c-0.2669,-0.39773 -0.4226,-0.87633 -0.4226,-1.3913c0,-1.38071 1.11929,-2.5 2.5,-2.5c0.24416,0 0.48015,0.035 0.70322,0.10026l2.86998,0.77035c2.6564,0.55271 5.287,1.24723 7.96854,1.66105c0.01535,0.00237 0.03072,0.00469 0.0461,0.00696c-1.30442,-0.86264 -2.62439,-1.70167 -3.95997,-2.51423c-1.47466,-0.89718 -3.20138,-1.4743 -4.42196,-2.69485c-0.0423,-0.0423 -0.08428,-0.08487 -0.12594,-0.12771l-0.01583,0.01922l-3.84398,-3.16569c-0.56515,-0.45835 -0.92636,-1.15834 -0.92636,-1.94269c0,-1.38071 1.11929,-2.5 2.5,-2.5c0.24416,0 0.48015,0.035 0.70322,0.10026l2.88346,0.77397c1.50669,0.33674 3.01507,0.65292 4.52295,0.96203c-2.60753,-6.04454 -5.23705,-12.07892 -7.76899,-18.15553l-1.42487,-3.3144c-0.14451,-0.31618 -0.22504,-0.66773 -0.22504,-1.03808c0,-1.38071 1.11929,-2.5 2.5,-2.5c0.64103,0 1.22571,0.24126 1.66819,0.63794l3.73038,3.31309c2.5309,1.57705 4.39328,4.03696 6.68385,5.94637c1.7208,1.43446 3.50559,2.78956 5.28677,4.14917c-0.21197,-1.10519 -0.23053,-2.27138 -0.59497,-3.33562c-2.42457,-7.08033 -6.85029,-14.03311 -10.24163,-20.68585l-1.59307,-3.12517c-0.18835,-0.35135 -0.29517,-0.75294 -0.29517,-1.17948c0,-1.38071 1.11929,-2.5 2.5,-2.5c0.82234,0 1.55194,0.39704 2.00757,1.00988l2.56302,3.37363l-0.00178,0.00136c0.00294,0.00265 0.00588,0.0053 0.00882,0.00795c0.00559,0.00504 1.69119,2.26836 3.26223,4.37839c-0.02665,-0.32752 -0.06268,-0.65301 -0.11833,-0.97403c-0.50606,-2.91965 -1.61283,-5.74065 -1.85444,-8.69396c-0.14899,-1.8212 -1.1211,-4.08861 0.06162,-5.4815c5.01068,-5.90108 10.85887,2.96119 14.20378,5.47668c0.852,0.64074 1.83178,1.12043 2.72021,1.70987c-0.05126,-0.88001 0.17004,-1.82063 -0.26271,-3.25623c-0.45094,-1.49592 -1.32256,-2.83114 -1.98384,-4.24671l-0.00554,-0.11203l-0.03283,0.01176l-1.07168,-2.99113c-0.10727,-0.27867 -0.16607,-0.5814 -0.16607,-0.89786c0,-1.38071 1.11929,-2.5 2.5,-2.5c0.54265,0 1.04491,0.17289 1.45472,0.46659l4.07682,2.84093c3.22174,1.61188 4.53869,3.69151 7.47535,5.72692c1.3094,0.90755 2.77461,1.56662 4.1596,2.35402c0.71353,0.40566 1.53143,0.66991 2.13592,1.22514c0.29823,0.27393 0.46101,1.53886 0.43346,1.13486c-0.26704,-3.91626 -2.35857,-7.68263 -4.01197,-11.11469l0.00265,-0.12004l-0.04413,0.01656l-0.93577,-2.49396c-0.11584,-0.28807 -0.17958,-0.60269 -0.17958,-0.93219c0,-1.38071 1.11929,-2.5 2.5,-2.5c0.81443,0 1.53791,0.38945 1.99436,0.99227l3.04107,3.93559c1.5769,1.41109 3.04314,3.04797 4.46427,4.76766c-0.08772,-0.35537 -0.1515,-0.71703 -0.18615,-1.08623c-0.01169,-0.12456 -0.01869,-0.24884 -0.02145,-0.37288l-0.05844,0.00829l-0.39088,-2.75418c-0.02029,-0.12825 -0.03082,-0.25974 -0.03082,-0.3937c0,-1.38071 1.11929,-2.5 2.5,-2.5c0.99586,0 1.85573,0.58229 2.2577,1.42497l1.13531,2.25744c1.81416,3.60756 5.19437,7.83207 5.2847,12.01919l0.25536,1.3586c2.65061,5.14447 5.29746,10.28889 7.95108,15.43554l0.00214,0.15706l0.05382,-0.02017l0.86016,2.29553c0.11558,0.28779 0.17918,0.60206 0.17918,0.93118c0,1.38071 -1.11929,2.5 -2.5,2.5c-0.58924,0 -1.13087,-0.20386 -1.55821,-0.54489l-2.2154,-1.73438l-0.00133,0.01303l-0.35379,-0.03605c0.33189,2.0096 0.20689,3.88448 0.46354,6.33869c0.69314,6.628 1.40506,13.25409 2.10548,19.88133l0.46159,4.36752c0.23459,0.08532 0.45765,0.21266 0.66672,0.39008c1.47534,1.25201 0.84604,3.57665 0.32232,5.71063c0.31633,0.15789 0.59943,0.35718 0.83457,0.60455l0.21076,-0.22815c0.45698,-0.4978 1.11311,-0.80983 1.84212,-0.80983c1.38071,0 2.5,1.11929 2.5,2.5c0,0.43806 -0.11267,0.84981 -0.31061,1.20784l-2.22781,4.22825l-0.0148,-0.0078l-0.01119,0.05584c-1.17447,2.01138 -2.33541,3.99446 -3.45349,5.99787c-0.13369,0.45699 -0.27467,0.91246 -0.42222,1.36645c-0.10106,0.92419 -0.25173,1.8145 -0.47614,2.64744l-0.23012,4.98083c-0.05327,1.33363 -1.15127,2.39846 -2.49798,2.39846c-0.30436,0 -0.59602,-0.05439 -0.86579,-0.15398c-0.90999,1.92756 -1.84257,3.83048 -2.73361,5.71157l-0.19131,0.14369l0.06672,0.04787l-2.56069,3.56883c-0.45192,0.64649 -1.2018,1.06933 -2.05043,1.06933c-1.38071,0 -2.5,-1.11929 -2.5,-2.5c0,-0.38602 0.08749,-0.7516 0.24372,-1.078l1.09225,-2.41871c-0.68479,-0.44595 -1.13754,-1.21833 -1.13754,-2.09646c0,-0.28157 0.04655,-0.55227 0.13237,-0.80482l1.01934,-3.24516c-1.98681,1.94652 -3.9927,3.87486 -6.00881,5.79902c-0.41853,0.39944 -1.31322,1.31791 -2.40937,2.35144c-0.53759,0.77025 -1.07435,1.53874 -1.60828,2.30606l-0.07899,0.05545l0.02181,0.01771l-3.13785,3.86493c-0.45809,0.57358 -1.1634,0.94107 -1.95453,0.94107c-1.38071,0 -2.5,-1.11929 -2.5,-2.5c0,-0.36718 0.07916,-0.71587 0.22134,-1.02994l0.36495,-0.85758c-0.9069,-1.5293 -1.12285,-3.76542 -1.47414,-5.51845c-0.24981,-1.24665 -0.13307,-2.56008 0.12045,-3.89702c-1.1692,-0.16051 -2.08068,-1.12948 -2.15229,-2.32479c-1.02272,1.0531 -1.94947,2.23866 -3.2216,2.94783c-0.03683,0.02053 -0.07375,0.04088 -0.11075,0.06104l0.01274,0.01687l-3.9708,2.99768c-0.4222,0.32581 -0.95148,0.51963 -1.52602,0.51963c-1.32036,0 -2.40166,-1.02358 -2.49366,-2.32052c-1.27944,1.15397 -2.53023,2.3248 -3.74726,3.49797l-0.00876,0.00472l0.0018,0.0019l-3.6249,3.43677c-0.4485,0.42702 -1.05544,0.68913 -1.7236,0.68913c-1.38071,0 -2.5,-1.11929 -2.5,-2.5c0,-0.38776 0.08828,-0.75491 0.24584,-1.08243l2.04486,-4.50382l0.02466,0.0112c0.01972,-0.06059 0.03991,-0.12107 0.06058,-0.18142c0.01124,-0.03282 4.4128,-6.77088 5.38039,-8.25189c-1.22154,-0.51554 -2.37484,-1.01331 -3.39816,-1.42172c-2.19745,-0.87702 -4.39398,-1.75067 -6.58348,-2.63846l-1.77409,0.68682c-0.29449,0.12196 -0.61734,0.18927 -0.95592,0.18927c-1.38071,0 -2.5,-1.11929 -2.5,-2.5c0,-0.17716 0.01843,-0.35002 0.05347,-0.51676c-3.0102,-1.27503 -5.99765,-2.60365 -8.94609,-4.0323zM347.58643,180.1673c-0.01582,-1.05121 0.10089,-2.06829 0.29984,-3.06653l0.504,-4.94631c0.09718,-1.08704 0.89013,-1.97376 1.93034,-2.21164c-0.84284,-1.63392 -1.68493,-3.26805 -2.52678,-4.90229c-0.46742,-0.09618 -0.88721,-0.32284 -1.21962,-0.64022l-3.10927,-2.95687l0.01227,-0.0129l-0.05947,-0.03318c-2.08291,-2.2013 -4.13448,-4.43184 -6.13346,-6.70918c0.0775,2.10566 -0.48399,4.08429 -2.17078,5.64425c-1.60716,1.48632 -6.10111,-1.40795 -7.6415,-2.28397c-2.85795,-1.62532 -6.24827,-3.44346 -8.96108,-5.75448c0.20934,0.90028 0.29563,1.94833 0.26442,3.49098c-0.0493,2.43709 1.16742,5.64567 -0.63659,7.285c-1.45788,1.32479 -3.91208,-0.71537 -5.71193,-1.51603c-1.82902,-0.81363 -6.89336,-4.9195 -8.35107,-6.26313c-0.96935,-0.89349 -1.77891,-1.94719 -2.70878,-2.88171c-0.13353,-0.1342 -0.52251,-0.4979 -0.47235,-0.31535c1.35249,4.92246 3.42093,10.1308 3.37787,15.39842l0.65732,4.91501c0.01813,0.12145 0.02753,0.24576 0.02753,0.37227c0,1.26672 -0.9421,2.3134 -2.16386,2.4776c0.95174,2.02357 1.81193,4.06178 2.51369,6.11108c0.67931,1.98375 0.99143,3.59431 1.12697,5.17513l1.03649,4.83703c0.04358,0.18486 0.06663,0.37763 0.06663,0.5758c0,1.38071 -1.11929,2.5 -2.5,2.5c-0.48762,0 -0.94264,-0.1396 -1.32726,-0.38103l-2.94199,-1.77676l0.02179,-0.03609l-0.14673,-0.04454c-3.45848,-2.69188 -6.87085,-5.35538 -10.18092,-8.20395c2.08883,4.83688 4.21941,9.65563 6.2863,14.50282c4.68252,0.97946 9.33198,2.06532 13.88238,3.66624c0,0 2.35795,0.8307 1.52725,3.18865c-0.8307,2.35795 -3.18865,1.52725 -3.18865,1.52725c-3.2375,-1.14218 -6.53136,-2.01183 -9.85273,-2.76723c0.43027,0.97076 0.92999,2.01 1.44191,3.08945l3.42847,2.32396c0.46404,0.09482 0.88129,0.28169 1.21666,0.62959c2.78582,2.88996 2.68774,6.40752 1.1482,9.41872c0.39205,0.22905 0.78365,0.45882 1.17475,0.68942c1.64726,-0.45717 3.3315,-0.96929 4.74293,-0.21806c1.79219,0.95389 3.02176,3.06174 3.4102,5.12197c0.71113,0.44077 1.18476,1.22831 1.18476,2.12647c0,0.61549 -0.22242,1.17903 -0.59127,1.61463c0.27478,0.09778 0.55034,0.1947 0.8267,0.29078c0.64938,-0.43555 1.30212,-0.84823 1.95723,-1.23348c1.81462,-1.06715 3.66363,-2.51454 5.76799,-2.572c0.29263,-0.00799 0.5713,-0.00187 0.83661,0.0176c4.81705,-4.39406 9.7606,-8.62997 15.13913,-12.38444c0.34141,-0.23832 5.14973,-4.56061 8.16905,-4.00873c-0.28245,-2.81307 -0.55346,-5.6675 -0.27019,-8.31669l-0.50143,-4.87925c-0.01097,-0.09505 -0.01661,-0.19172 -0.01661,-0.28971c0,-0.62404 0.22864,-1.19468 0.60673,-1.63271c-0.60121,-4.59618 -1.13378,-9.21012 -1.20211,-13.75169zM330.38336,235.1176c-0.10024,0.9231 -0.23761,1.84267 -0.38478,2.72331c0.84156,-1.51793 1.80674,-2.99007 2.8502,-4.4205c-0.80398,0.63145 -1.62545,1.20391 -2.46542,1.69719z" fill="#96f261" stroke="none" stroke-width="0.5" stroke-linecap="butt"></path><g stroke="#000000" stroke-linecap="butt"><path d="M301.48187,214.84968l-0.44532,-59.45093l43.22131,-0.32375l0.44532,59.45093c0,0 -17.57014,13.07921 -20.7147,15.42003c-0.92715,0.69017 -1.80077,1.3405 -1.80077,1.3405z" fill="#008c04" stroke-width="1.5"></path><path d="M320.14445,232.32001l-0.58745,-78.42604l4.82627,-0.03615l0.58745,78.42604z" fill="#00ff08" stroke-width="0"></path><path d="M344.76565,183.86371l-44.55025,0.3337l-0.04715,-6.29345l44.55025,-0.3337z" fill="#00ff08" stroke-width="0"></path></g></g></g></svg>