<svg version="1.1" xmlns="http://www.w3.org/2000/svg" xmlns:xlink="http://www.w3.org/1999/xlink" width="92" height="201.3708" viewBox="0,0,92,201.3708"><defs><radialGradient cx="480" cy="180" r="46" gradientUnits="userSpaceOnUse" id="color-1"><stop offset="0" stop-color="#c8c8c8" stop-opacity="0.68627"/><stop offset="1" stop-color="#c8c8c8" stop-opacity="0"/></radialGradient><radialGradient cx="480" cy="180" r="22" gradientUnits="userSpaceOnUse" id="color-2"><stop offset="0" stop-color="#a3a3a3" stop-opacity="0.7098"/><stop offset="1" stop-color="#a3a3a3" stop-opacity="0"/></radialGradient><radialGradient cx="480" cy="180" r="18.875" gradientUnits="userSpaceOnUse" id="color-3"><stop offset="0" stop-color="#bfbfbf" stop-opacity="0.64706"/><stop offset="1" stop-color="#bfbfbf" stop-opacity="0"/></radialGradient></defs><g transform="translate(-434,-79.3146)"><g stroke="none" stroke-width="0" stroke-miterlimit="10"><path d="M434,180c0,-25.4051 20.5949,-46 46,-46c25.4051,0 46,20.5949 46,46c0,25.4051 -20.5949,46 -46,46c-25.4051,0 -46,-20.5949 -46,-46z" fill="url(#color-1)"/><path d="M472.12513,180.28125c-0.05557,-39.78822 8.99981,-100.96665 8.99981,-100.96665c0,0 6.69562,61.85102 6.74986,100.6854c0.05424,38.83438 -6.46861,100.6854 -6.46861,100.6854c0,0 -9.22548,-60.61594 -9.28105,-100.40415z" fill="#a3a3a3"/><path d="M458,180c0,-12.15026 9.84974,-22 22,-22c12.15026,0 22,9.84974 22,22c0,12.15026 -9.84974,22 -22,22c-12.15026,0 -22,-9.84974 -22,-22z" fill="url(#color-2)"/><path d="M461.125,180c0,-10.42437 8.45063,-18.875 18.875,-18.875c10.42437,0 18.875,8.45063 18.875,18.875c0,10.42437 -8.45063,18.875 -18.875,18.875c-10.42437,0 -18.875,-8.45063 -18.875,-18.875z" fill="url(#color-3)"/></g></g></svg>