<svg version="1.1" xmlns="http://www.w3.org/2000/svg" xmlns:xlink="http://www.w3.org/1999/xlink" width="75.59029" height="78.66558" viewBox="0,0,75.59029,78.66558"><g transform="translate(-441.15572,-139.90626)"><g data-paper-data="{&quot;isPaintingLayer&quot;:true}" fill-rule="nonzero" stroke-linejoin="miter" stroke-miterlimit="10" stroke-dasharray="" stroke-dashoffset="0" style="mix-blend-mode: normal"><path d="" data-paper-data="{&quot;index&quot;:null}" fill="none" stroke="#000000" stroke-width="1.5" stroke-linecap="round"/><path d="M474.39869,150.39445c15.36571,-2.55711 29.89498,7.82636 32.45208,23.19203c2.55711,15.36571 -7.82636,29.89498 -23.19203,32.45208c-15.36571,2.55711 -29.89498,-7.82636 -32.45208,-23.19203c-2.55711,-15.36571 7.82636,-29.89498 23.19203,-32.45208z" fill="#000000" stroke="none" stroke-width="NaN" stroke-linecap="butt"/><path d="M491.37036,170.45593l24.3935,-0.66287l0.98215,5.90185l-23.2149,7.74509z" fill="#000000" stroke="none" stroke-width="0" stroke-linecap="butt"/><path d="M497.63498,182.81485l17.71754,16.7801l-3.47874,4.86773l-21.89203,-10.93883z" fill="#000000" stroke="none" stroke-width="0" stroke-linecap="butt"/><path d="M488.30462,193.19618l0.66287,24.3935l-5.90185,0.98215l-7.7451,-23.21491z" fill="#000000" stroke="none" stroke-width="0" stroke-linecap="butt"/><path d="M475.62368,194.60995l-16.7801,17.71754l-4.86775,-3.47874l10.93882,-21.89203z" fill="#000000" stroke="none" stroke-width="0" stroke-linecap="butt"/><path d="M466.53139,188.65205l-24.39351,0.66288l-0.98215,-5.90185l23.21491,-7.7451z" fill="#000000" stroke="none" stroke-width="0" stroke-linecap="butt"/><path d="M461.44986,177.25713l-17.71754,-16.7801l3.47874,-4.86773l21.89205,10.93881z" fill="#000000" stroke="none" stroke-width="0" stroke-linecap="butt"/><path d="M469.83931,165.28193l-0.66288,-24.39351l5.90185,-0.98215l7.7451,23.2149z" fill="#000000" stroke="none" stroke-width="0" stroke-linecap="butt"/><path d="M485.35692,160.18995l16.7801,-17.71754l4.86774,3.47875l-10.93882,21.89202z" fill="#000000" stroke="none" stroke-width="0" stroke-linecap="butt"/></g></g></svg>