<svg version="1.1" xmlns="http://www.w3.org/2000/svg" xmlns:xlink="http://www.w3.org/1999/xlink" width="209.71972" height="80.5" viewBox="0,0,209.71972,80.5"><g transform="translate(-200.95088,-140.3707)"><g data-paper-data="{&quot;isPaintingLayer&quot;:true}" fill-rule="nonzero" stroke-linejoin="miter" stroke-miterlimit="10" stroke-dasharray="" stroke-dashoffset="0" style="mix-blend-mode: normal"><path d="" data-paper-data="{&quot;index&quot;:null}" fill="none" stroke="#000000" stroke-width="1.5" stroke-linecap="round"></path><path d="M289.92393,195.47554" data-paper-data="{&quot;index&quot;:null}" fill="none" stroke="#d8d8d8" stroke-width="4" stroke-linecap="round"></path><path d="M241.20088,220.1207c-21.81525,0 -39.5,-17.68475 -39.5,-39.5c0,-21.81525 17.68475,-39.5 39.5,-39.5c21.81525,0 39.5,17.68475 39.5,39.5c0,21.81525 -17.68475,39.5 -39.5,39.5z" fill="#d8d8d8" stroke="#000000" stroke-width="1.5" stroke-linecap="butt"></path><path d="M226.36716,169.6083l14.03116,4.59202" fill="none" stroke="#000000" stroke-width="1.5" stroke-linecap="round"></path><path d="M228.19225,178.95914l-0.25511,-5.86758" fill="none" stroke="#000000" stroke-width="1.5" stroke-linecap="round"></path><path d="M243.71478,173.69009l7.65337,-3.82668" fill="none" stroke="#000000" stroke-width="1.5" stroke-linecap="round"></path><path d="M246.28352,178.41109l0.21988,-5.35892" fill="none" stroke="#000000" stroke-width="1.5" stroke-linecap="round"></path><path d="M229.62579,192.95291l25.16666,2.30233l-24.96157,-0.52657" fill="none" stroke="#000000" stroke-width="3" stroke-linecap="round"></path><g stroke="#000000" stroke-linecap="butt"><path d="M322.02598,183.10139l-18.52873,1.60952c0,0 -3.2019,-1.93982 -3.29587,-3.0217c-0.09415,-1.08382 2.7315,-3.47537 2.7315,-3.47537l18.52873,-1.60952z" fill="#af5400" stroke-width="1.5"></path><path d="M326.47298,190.96345c0,0 -4.53486,2.09587 -6.81065,0.23692c-2.66603,-2.1777 -3.09332,-7.68217 -3.4874,-11.29191c-0.73053,-6.69111 0.80635,-12.45152 3.43271,-12.86624c1.22032,-0.1927 5.18912,0.65361 5.18912,0.65361c0,0 0.49797,7.12867 0.88904,10.71082c0.73053,6.69111 0.78715,12.5568 0.78715,12.5568z" fill="#989898" stroke-width="1"></path><path d="M326.70254,191.35162c-2.62635,0.41472 -5.34767,-4.67332 -6.07819,-11.36443c-0.73052,-6.6911 0.80635,-12.45152 3.43269,-12.86623c2.62635,-0.41472 5.34767,4.67332 6.07818,11.36441c0.73052,6.6911 -0.80636,12.45151 -3.43269,12.86623z" fill="#989898" stroke-width="1"></path><path d="M324.26483,176.12979l85.3629,-4.92349l-11.24083,6.4549l-73.78827,4.25591c0,0 -1.62499,-1.57157 -1.67994,-2.52458c-0.05626,-0.97555 1.34615,-3.26275 1.34615,-3.26275z" fill="#e6e6e6" stroke-width="0.5"></path></g></g></g></svg>