<svg version="1.1" xmlns="http://www.w3.org/2000/svg" xmlns:xlink="http://www.w3.org/1999/xlink" width="101.67216" height="85.90614" viewBox="0,0,101.67216,85.90614"><defs><radialGradient cx="230.3259" cy="157.41893" r="23.07507" gradientUnits="userSpaceOnUse" id="color-1"><stop offset="0" stop-color="#bd50fb"></stop><stop offset="1" stop-color="#a200ff"></stop></radialGradient></defs><g transform="translate(-207.25082,-134.34386)"><g data-paper-data="{&quot;isPaintingLayer&quot;:true}" fill-rule="nonzero" stroke-linejoin="miter" stroke-miterlimit="10" stroke-dasharray="" stroke-dashoffset="0" style="mix-blend-mode: normal"><path d="M221.77223,176.40735c0,-5.85589 4.74714,-10.60303 10.60303,-10.60303c5.85589,0 10.60303,4.74714 10.60303,10.60303c0,5.85589 -4.74714,10.60303 -10.60303,10.60303c-5.85589,0 -10.60303,-4.74714 -10.60303,-10.60303z" data-paper-data="{&quot;index&quot;:null}" fill="#d8d8d8" stroke="#000000" stroke-width="1.25" stroke-linecap="butt"></path><path d="M207.25082,157.41893c0,-12.74401 10.33106,-23.07507 23.07507,-23.07507c12.74401,0 23.07507,10.33106 23.07507,23.07507c0,12.74401 -10.33106,23.07507 -23.07507,23.07507c-12.74401,0 -23.07507,-10.33106 -23.07507,-23.07507z" fill="url(#color-1)" stroke="none" stroke-width="NaN" stroke-linecap="butt"></path><path d="" data-paper-data="{&quot;index&quot;:null}" fill="none" stroke="#000000" stroke-width="1.5" stroke-linecap="round"></path><path d="M229.17298,180c0,-21.81525 17.68475,-39.5 39.5,-39.5c21.81525,0 39.5,17.68475 39.5,39.5c0,21.81525 -17.68475,39.5 -39.5,39.5c-21.81525,0 -39.5,-17.68475 -39.5,-39.5z" data-paper-data="{&quot;index&quot;:null}" fill="#d8d8d8" stroke="#000000" stroke-width="1.5" stroke-linecap="butt"></path><path d="" data-paper-data="{&quot;index&quot;:null}" fill="none" stroke="#000000" stroke-width="1.5" stroke-linecap="round"></path><path d="" data-paper-data="{&quot;index&quot;:null}" fill="none" stroke="#000000" stroke-width="1.5" stroke-linecap="round"></path><path d="M253.61811,179.01412l-1.78529,-9.65943" data-paper-data="{&quot;index&quot;:null}" fill="none" stroke="#000000" stroke-width="1.5" stroke-linecap="round"></path><path d="M277.25427,196.4962c0,-5.85589 4.74714,-10.60303 10.60303,-10.60303c5.85589,0 10.60303,4.74714 10.60303,10.60303c0,5.85589 -4.74714,10.60303 -10.60303,10.60303c-5.85589,0 -10.60303,-4.74714 -10.60303,-10.60303z" data-paper-data="{&quot;index&quot;:null}" fill="#d8d8d8" stroke="#000000" stroke-width="1.25" stroke-linecap="butt"></path><path d="M261.31297,166.73843l1.78529,9.65943" data-paper-data="{&quot;index&quot;:null}" fill="none" stroke="#000000" stroke-width="1.5" stroke-linecap="round"></path><path d="M292.27045,192.22782c1.66065,1.86875 -0.2081,3.5294 -0.2081,3.5294l-0.47614,0.41799l1.31628,0.15486c1.25819,0.13038 2.23928,1.1939 2.23928,2.48657c0,0.92661 -0.50412,1.73548 -1.25305,2.16731l-2.20079,1.32047l-0.06534,-0.10889l-0.23163,0.2611c-1.04882,0.3009 -8.43194,2.43232 -8.6412,2.42084c-0.11382,-0.00624 -0.22732,-0.01449 -0.34052,-0.02461v0.04791h-5v0c-0.28529,0 -0.55942,-0.04779 -0.81481,-0.13579c-13.60813,3.77421 -26.76726,9.42536 -41.12964,9.99024c-4.05408,0.15945 -10.07208,0.85082 -14.05744,0.00189h-2.68809c-1.38071,0 -2.5,-1.11929 -2.5,-2.5c0,-1.09007 0.69766,-2.01719 1.67082,-2.35921l3.33339,-1.25973l0.01983,0.05248l0.12796,-0.10311c1.27245,-0.30713 2.53141,-0.66499 3.78623,-1.0386c-0.80017,0.02592 -1.60218,0.03947 -2.4061,0.03993c0,0 -2.5,0 -2.5,-2.5c0,-2.5 2.5,-2.5 2.5,-2.5c0.38824,0.00024 0.77606,-0.00275 1.16346,-0.00886c-0.05179,-0.20044 -0.07934,-0.41062 -0.07934,-0.62724c0,-1.28702 0.97254,-2.3469 2.22282,-2.48481l3.36805,-0.42101c6.78726,-2.26586 13.46391,-2.49717 20.37803,-3.97571c6.99362,-3.35084 14.91864,-6.48283 22.5698,-5.53987c1.05509,-0.12717 2.00395,-0.18702 2.59214,-0.10175l4.97146,-0.27619c0.05274,-0.00332 0.10593,-0.00501 0.15951,-0.00501c1.38071,0 2.5,1.11929 2.5,2.5c0,1.1246 -0.74256,2.07576 -1.76412,2.38994l-2.6334,0.8778l-0.00712,-0.02137l-0.04458,0.03799c-1.49585,0.4275 -2.99165,0.87067 -4.48802,1.324l1.59351,0.06129c0.88485,0.02936 1.65327,0.51856 2.07393,1.23627c0.19119,0.11206 0.36616,0.24879 0.52054,0.40583c0.31152,-0.70612 0.94027,-1.24085 1.70566,-1.4236l3.94129,-1.03408l0.02442,0.09306c1.17153,-0.73575 2.36268,-1.4386 3.57977,-2.09421l1.64183,-1.48159c0,0 1.86875,-1.66065 3.5294,0.2081zM236.6541,209.64995c1.74034,-0.08425 3.47705,-0.22509 5.20807,-0.45765l-1.62599,-0.23228c-1.1957,0.22583 -2.39087,0.44889 -3.58208,0.68993z" fill="#b0b0b0" stroke="none" stroke-width="0.5" stroke-linecap="butt"></path></g></g></svg>