<svg version="1.1" xmlns="http://www.w3.org/2000/svg" xmlns:xlink="http://www.w3.org/1999/xlink" width="85.85423" height="80.5" viewBox="0,0,85.85423,80.5"><g transform="translate(-200.63377,-139.86622)"><g data-paper-data="{&quot;isPaintingLayer&quot;:true}" fill-rule="nonzero" stroke-linejoin="miter" stroke-miterlimit="10" stroke-dasharray="" stroke-dashoffset="0" style="mix-blend-mode: normal"><path d="M204.82949,180.11622c0,-21.81525 17.68475,-39.5 39.5,-39.5c21.81525,0 39.5,17.68475 39.5,39.5c0,21.81525 -17.68475,39.5 -39.5,39.5c-21.81525,0 -39.5,-17.68475 -39.5,-39.5z" fill="#d8d8d8" stroke="#000000" stroke-width="1.5" stroke-linecap="butt"></path><path d="M228.58224,167.20295l9,1v8" fill="none" stroke="#000000" stroke-width="1.5" stroke-linecap="round"></path><path d="M248.51493,176.68819v-8l9,-1" data-paper-data="{&quot;index&quot;:null}" fill="none" stroke="#000000" stroke-width="1.5" stroke-linecap="round"></path><path d="M226.32949,197.875l32.25,-2.5" fill="none" stroke="#000000" stroke-width="1.5" stroke-linecap="round"></path><g><path d="M276.238,196.51898c0,-2.1401 1.7349,-3.875 3.875,-3.875c2.1401,0 3.875,1.7349 3.875,3.875c0,2.1401 -1.7349,3.875 -3.875,3.875c-2.1401,0 -3.875,-1.7349 -3.875,-3.875z" fill="none" stroke="#000000" stroke-width="0.5" stroke-linecap="butt"></path><path d="M279.988,195.39398c0,0 -14.24795,1.25461 -17,0c-1.8488,-0.84283 -2.12729,-4.04223 -2.12729,-4.04223c0,0 -0.66449,-2.76706 2.12729,-3.70777c8.50613,-2.8662 23,0 23,0v18h-6.75v-5.5z" fill="#989898" stroke="#000000" stroke-width="1" stroke-linecap="round"></path><path d="M272.738,190.64398v-3.75h4.75v3.75z" fill="#00f6ff" stroke="none" stroke-width="0" stroke-linecap="butt"></path><path d="M278.988,191.14398v-3.75h4.75v3.75z" fill="#00f6ff" stroke="none" stroke-width="0" stroke-linecap="butt"></path><path d="M266.488,190.64398v-3.75h4.75v3.75z" fill="#00f6ff" stroke="none" stroke-width="0" stroke-linecap="butt"></path></g><g><path d="M211.15601,197.29119c-2.13509,0.14655 -3.96114,-1.12198 -4.0786,-2.83339c-0.11748,-1.71141 1.51812,-3.21756 3.65321,-3.3641c2.13509,-0.14655 3.96114,1.12198 4.0786,2.83339c0.11748,1.71141 -1.51812,3.21756 -3.65321,3.3641z" fill="none" stroke="#000000" stroke-width="0.5" stroke-linecap="butt"></path><path d="M209.82779,194.36944c0,0 2.03375,11.30784 0.93316,13.59452c-0.73938,1.53618 -3.91597,1.97796 -3.91597,1.97796c0,0 -2.72408,0.72086 -3.81583,-1.44724c-3.32639,-6.60589 -1.2625,-18.39258 -1.2625,-18.39258l17.95773,-1.23265l0.37053,5.39782l-5.48709,0.37665z" fill="#989898" stroke="#000000" stroke-width="1" stroke-linecap="round"></path><path d="M205.48693,200.49237l-3.74119,0.25679l-0.26074,-3.79846l3.74119,-0.25679z" fill="#00f6ff" stroke="none" stroke-width="0" stroke-linecap="butt"></path><path d="M205.64266,195.46015l-3.74119,0.25679l-0.26074,-3.79846l3.74119,-0.25679z" fill="#00f6ff" stroke="none" stroke-width="0" stroke-linecap="butt"></path><path d="M205.83,205.49035l-3.74119,0.25679l-0.26074,-3.79846l3.74119,-0.25679z" fill="#00f6ff" stroke="none" stroke-width="0" stroke-linecap="butt"></path></g></g></g></svg>