<svg version="1.1" xmlns="http://www.w3.org/2000/svg" xmlns:xlink="http://www.w3.org/1999/xlink" width="140.49672" height="176.26303" viewBox="0,0,140.49672,176.26303"><g transform="translate(-149.4272,-44.60768)"><g data-paper-data="{&quot;isPaintingLayer&quot;:true}" fill-rule="nonzero" stroke-linejoin="miter" stroke-miterlimit="10" stroke-dasharray="" stroke-dashoffset="0" style="mix-blend-mode: normal"><path d="" data-paper-data="{&quot;index&quot;:null}" fill="none" stroke="#000000" stroke-width="1.5" stroke-linecap="round"></path><path d="M289.92393,195.47554" data-paper-data="{&quot;index&quot;:null}" fill="none" stroke="#d8d8d8" stroke-width="4" stroke-linecap="round"></path><path d="M241.20088,220.1207c-21.81525,0 -39.5,-17.68475 -39.5,-39.5c0,-21.81525 17.68475,-39.5 39.5,-39.5c21.81525,0 39.5,17.68475 39.5,39.5c0,21.81525 -17.68475,39.5 -39.5,39.5z" fill="#d8d8d8" stroke="#000000" stroke-width="1.5" stroke-linecap="butt"></path><path d="M240.39832,174.20032l-14.03116,-4.59202" fill="none" stroke="#000000" stroke-width="1.5" stroke-linecap="round"></path><path d="M231.78341,178.95914l-0.25511,-5.86758" fill="none" stroke="#000000" stroke-width="1.5" stroke-linecap="round"></path><path d="M251.36815,169.86341l-7.65337,3.82668" fill="none" stroke="#000000" stroke-width="1.5" stroke-linecap="round"></path><path d="M246.5034,173.05217l-0.21988,5.35892" fill="none" stroke="#000000" stroke-width="1.5" stroke-linecap="round"></path><path d="M229.62579,192.95291l25.16666,2.30233l-24.96157,-0.52657" fill="none" stroke="#000000" stroke-width="3" stroke-linecap="round"></path><g data-paper-data="{&quot;index&quot;:null}" stroke="#000000" stroke-linecap="butt"><path d="M211.84878,127.30078l12.66145,17.48007c0,0 0.38976,4.20016 -0.45876,4.89211c-0.84699,0.6907 -4.62773,-0.74415 -4.62773,-0.74415l-12.66145,-17.48007z" fill="#af5400" stroke-width="1.5"></path><path d="M197.80026,133.1509c0,0 4.25445,-4.14401 9.60418,-8.28426c2.86401,-2.21654 8.35454,-6.87462 8.35454,-6.87462c0,0 3.56736,2.89258 4.339,4.10583c1.66071,2.61112 -1.32982,8.0842 -6.67956,12.22446c-2.88606,2.23364 -7.15753,5.7927 -10.70948,5.00018c-3.03203,-0.67651 -4.90871,-6.17158 -4.90871,-6.17158z" fill="#989898" stroke-width="1"></path><path d="M197.35034,133.22612c-1.66069,-2.61109 1.32985,-8.08417 6.67957,-12.22444c5.3497,-4.14025 11.03284,-5.37988 12.69355,-2.76877c1.66072,2.6111 -1.32985,8.08417 -6.67957,12.22444c-5.34974,4.14027 -11.03285,5.37987 -12.69357,2.76877z" fill="#989898" stroke-width="1"></path><path d="M210.09913,124.49101c0,0 -0.59667,2.87128 -1.33918,3.51919c-0.72534,0.63297 -3.0657,0.32453 -3.0657,0.32453l-51.96926,-68.07218l-3.74718,-14.52167l60.12131,78.75017z" fill="#e6e6e6" stroke-width="0.5"></path></g></g></g></svg>