<svg version="1.1" xmlns="http://www.w3.org/2000/svg" xmlns:xlink="http://www.w3.org/1999/xlink" width="978.09009" height="598" viewBox="0,0,978.09009,598"><g transform="translate(9.04505,119)"><g stroke-miterlimit="10"><path d="M-9.04505,479v-598h978.09009v598z" fill="#888888" stroke="none" stroke-width="NaN" stroke-linecap="butt"/><g stroke="#000000" stroke-width="1.5"><g><path d="M442.26015,272.86293c-42.79705,-0.20462 -77.32506,-35.06436 -77.12044,-77.86142c0.20462,-42.79705 35.06436,-77.32507 77.86142,-77.12044c42.79705,0.20462 77.32507,35.06434 77.12048,77.86143c-0.20462,42.79705 -35.06434,77.32507 -77.86142,77.12044z" fill="#d8d8d8" stroke-linecap="butt"/><path d="M413.63325,173.62875l27.48318,9.14021" fill="none" stroke-linecap="round"/><path d="M426.66363,181.50559l0.44544,11.5134" fill="none" stroke-linecap="round"/><path d="M447.62744,181.79912l15.05022,-7.43538" fill="none" stroke-linecap="round"/><path d="M418.77287,222.42134l46.09988,0.71088" fill="none" stroke-linecap="round"/></g><path d="M455.66363,180.50559l0.44544,11.5134" fill="none" stroke-linecap="round"/></g><g stroke="#000000" stroke-linecap="butt"><path d="M376.18391,260.15356l-41.13219,3.61563c0,0 -7.27791,-3.48575 -7.5804,-5.55833c-0.30194,-2.06889 5.76717,-6.86606 5.76717,-6.86606l41.13219,-3.61563z" fill="#af5400" stroke-width="1.5"/><path d="M377.29478,229.81329c0,0 2.62403,11.05459 4.16595,23.90359c0.82559,6.87876 3.07932,20.46752 3.07932,20.46752c0,0 -8.40562,1.74895 -11.15532,1.82394c-5.9177,0.16148 -11.81182,-8.85758 -13.35386,-21.70652c-0.83199,-6.93174 -2.40246,-16.80669 2.38747,-21.85925c4.08873,-4.31295 14.87631,-2.62931 14.87631,-2.62931z" fill="#989898" stroke-width="1"/><path d="M375.71398,229.23049c5.91762,-0.16149 11.96491,10.12373 13.50693,22.9727c1.54199,12.84891 -2.00523,23.39608 -7.92284,23.55755c-5.91766,0.16153 -11.96491,-10.12373 -13.50693,-22.9727c-1.54199,-12.84899 2.00523,-23.39608 7.92288,-23.55763z" fill="#989898" stroke-width="1"/><path d="M377.53135,258.73916c0,0 -4.1275,-3.79981 -4.46179,-5.65514c-0.32662,-1.81245 2.47852,-5.35147 2.47852,-5.35147l162.79506,-18.45047l27.51966,8.11232l-188.33154,21.34465z" fill="#e6e6e6" stroke-width="0.5"/></g></g></g></svg>