<svg version="1.1" xmlns="http://www.w3.org/2000/svg" xmlns:xlink="http://www.w3.org/1999/xlink" width="228.57701" height="83.8522" viewBox="0,0,228.57701,83.8522"><g transform="translate(-144.92514,-137.15369)"><g data-paper-data="{&quot;isPaintingLayer&quot;:true}" fill-rule="nonzero" stroke-linejoin="miter" stroke-miterlimit="10" stroke-dasharray="" stroke-dashoffset="0" style="mix-blend-mode: normal"><path d="M217.09442,165.86414l9,1v8" fill="none" stroke="#000000" stroke-width="1.5" stroke-linecap="round"></path><path d="M232.53458,174.67753v-8l9,-1" data-paper-data="{&quot;index&quot;:null}" fill="none" stroke="#000000" stroke-width="1.5" stroke-linecap="round"></path><path d="M230.98851,198.04897c0,0 0.3445,-8.61004 5.78628,-9.03188c5.30472,-0.41122 12.46372,8.03188 12.46372,8.03188z" fill="#040404" stroke="#000000" stroke-width="1.5" stroke-linecap="round"></path><path d="M200.73697,171.0911c0,-18.19082 17.29485,-32.9374 38.62913,-32.9374c21.33428,0 38.62913,14.74658 38.62913,32.9374c0,11.22687 -2.48212,24.8741 -12.54127,30.82016c-0.42004,0.24829 -5.31543,2.90997 -5.31543,2.90997l-0.22453,13.91683l-12.57806,0.95271l-0.50527,-15.47565l0.06963,15.5724l-14.72842,0.20478l-0.46155,-15.93384l0.80812,15.80985l-16.17468,-0.08649c0,0 0.11388,-16.75516 -0.28778,-16.80951c-2.62384,-0.355 -2.02116,-0.00099 -3.86634,-0.93632c-11.32682,-5.74167 -11.45268,-18.89377 -11.45268,-30.94489z" fill="#ffffff" stroke="#000000" stroke-width="2" stroke-linecap="butt"></path><path d="M243.83743,171.09869c0,5.92619 -3.30023,10.73031 -7.37126,10.73031c-4.07103,0 -7.37126,-4.80413 -7.37126,-10.73031c0,-5.92619 -0.9919,-11.10354 3.07913,-11.10354c3.22238,0 10.77427,7.53515 10.77427,7.53515c0,0 0.88912,2.33301 0.88912,3.56839z" fill="#ababab" stroke="#000000" stroke-width="1" stroke-linecap="butt"></path><path d="M261.57705,161.0762c4.07103,0 3.07913,5.17736 3.07913,11.10354c0,5.92619 -3.30022,10.73032 -7.37126,10.73032c-4.07103,0 -7.37126,-4.80413 -7.37126,-10.73032c0,-1.23538 0.88912,-3.56839 0.88912,-3.56839c0,0 7.55188,-7.53515 10.77427,-7.53515z" data-paper-data="{&quot;index&quot;:null}" fill="#ababab" stroke="#000000" stroke-width="1" stroke-linecap="butt"></path><path d="" data-paper-data="{&quot;index&quot;:null}" fill="none" stroke="#000000" stroke-width="1.5" stroke-linecap="round"></path><path d="" data-paper-data="{&quot;index&quot;:null}" fill="none" stroke="#000000" stroke-width="1.5" stroke-linecap="round"></path><path d="" data-paper-data="{&quot;index&quot;:null}" fill="none" stroke="#000000" stroke-width="1.5" stroke-linecap="round"></path><path d="" data-paper-data="{&quot;index&quot;:null}" fill="none" stroke="#000000" stroke-width="1.5" stroke-linecap="round"></path><path d="" data-paper-data="{&quot;index&quot;:null}" fill="none" stroke="#000000" stroke-width="1.5" stroke-linecap="round"></path><path d="" data-paper-data="{&quot;index&quot;:null}" fill="none" stroke="#000000" stroke-width="1.5" stroke-linecap="round"></path><path d="" data-paper-data="{&quot;index&quot;:null}" fill="none" stroke="#000000" stroke-width="1.5" stroke-linecap="round"></path><path d="" data-paper-data="{&quot;index&quot;:null}" fill="none" stroke="#000000" stroke-width="1.5" stroke-linecap="round"></path><path d="" data-paper-data="{&quot;index&quot;:null}" fill="none" stroke="#000000" stroke-width="1.5" stroke-linecap="round"></path><path d="" data-paper-data="{&quot;index&quot;:null}" fill="none" stroke="#000000" stroke-width="1.5" stroke-linecap="round"></path><path d="M274.8589,192.52563c-0.60739,-0.08086 -1.08468,-0.36263 -1.21811,-0.71992h-1.44181c-0.89154,0 -1.61426,-0.42397 -1.61426,-0.94697c0,-0.47908 0.60645,-0.87507 1.39358,-0.93819l3.16621,-0.28575l0.05414,0.20643c2.03306,-0.33731 3.93098,-0.41055 6.84163,-0.41055h1.64022c0,0 1.42643,0 1.59754,0.78658c0.26496,0.1687 0.42679,0.394 0.42679,0.64147c0,0.30108 -0.23953,0.56935 -0.6129,0.7428c0.12923,0.13618 0.20285,0.29301 0.20285,0.45994c0,0.45496 -0.54694,0.83498 -1.27613,0.92616l-2.08628,0.28823l-0.00972,-0.02422l-0.09442,0.0365c-0.13055,0.00696 -0.26196,0.0142 -0.39402,0.02137c0.31034,0.07514 0.62033,0.15078 0.93001,0.22686l3.1355,0.22992c0.80731,0.05223 1.43529,0.4537 1.43529,0.94121c0,0.47532 -0.59695,0.86884 -1.37506,0.93664l-2.43414,0.23799l-0.00384,-0.01349l-0.06166,0.01909c-0.07472,0.00369 -0.15004,0.00775 -0.22591,0.01216c0.00004,0.00344 0.00006,0.00689 0.00006,0.01036c0,0.94697 -1.61426,0.94697 -1.61426,0.94697c-3.35125,-0.00342 -6.51467,0.47516 -9.84129,0.4811h-1.64022c-0.89154,0 -1.61426,-0.42397 -1.61426,-0.94697c0,-0.44007 0.51171,-0.81003 1.20511,-0.91628l3.06999,-0.51455l0.11076,0.22743c1.48395,-0.35371 2.93221,-0.59313 4.47716,-0.76804l-1.37773,-0.21903c-0.70388,-0.10201 -1.22578,-0.47494 -1.22578,-0.91937c0,-0.29795 0.23457,-0.56376 0.60128,-0.73735l-0.12627,-0.01852z" data-paper-data="{&quot;index&quot;:null}" fill="#bd00f2" stroke="none" stroke-width="0.5" stroke-linecap="butt"></path><g stroke="none" stroke-width="0.5" stroke-linecap="butt"><path d="M319.8013,185.60073c-0.07669,0.56303 -0.25392,1.071 -0.64817,1.6081l0.00106,0.00936l0.64656,0.05449l-0.56266,1.18553c-0.18865,0.4426 -1.10711,0.77845 -2.21171,0.77845c-1.20934,0 -2.19554,-0.40255 -2.24523,-0.90703l-0.14461,-1.27064c-0.0432,-0.10173 -0.08957,-0.20257 -0.13811,-0.30261c-0.27519,0.26174 -0.95604,0.6659 -2.4794,0.53751c-2.20355,-0.18571 -1.76283,-1.11429 -1.76283,-1.11429c0.52753,-1.1115 1.10958,-2.12578 1.10567,-3.26005l0.08501,-0.07321l-0.0621,-0.00436l0.56477,-1.42793c0.1609,-0.45645 1.09474,-0.80664 2.22268,-0.80664c0.60782,0 1.15929,0.1017 1.5638,0.26691c0.40412,-0.25111 1.08689,-0.41611 1.86115,-0.41611c1.12008,0 2.04875,0.34532 2.21921,0.7971l0.56406,1.33592l-0.414,0.03104c0.27533,0.35726 0.44565,0.72277 0.44875,1.09703v1.20274c0,0 0,0.3987 -0.61391,0.67869z" data-paper-data="{&quot;index&quot;:null}" fill="#bd00f2"></path><path d="M368.97166,193.32596c-0.1947,-0.00008 -0.38476,-0.00028 -0.57064,-0.00064l-0.00019,0.00064c0,0 -0.01932,0 -0.05439,-0.00076c-1.47379,-0.00314 -2.68639,-0.0163 -3.86847,-0.0503l0.02592,0.13105l-4.45266,0.15636c-0.07004,0.00277 -0.14103,0.00419 -0.21279,0.00419c-0.92508,0 -1.71962,-0.23555 -2.06424,-0.5721c-5.61961,0.5781 -11.15583,1.27152 -16.90318,1.75645c0,0 -2.20353,0.18572 -2.64425,-0.74286c-0.44072,-0.92857 1.76283,-1.11429 1.76283,-1.11429c9.17963,-0.77276 17.8214,-2.05149 27.10466,-2.59807c0.18686,-0.01677 0.37611,-0.02802 0.56827,-0.03248c0.16201,-0.00898 0.32423,-0.01774 0.48666,-0.02626l0.02663,0.02919c0.03617,0.00114 0.07226,0.00248 0.10829,0.00398l-0.00038,-0.03513l0.1171,-0.00022v-0.00542h2.85414c1.24109,0 2.24718,0.42397 2.24718,0.94697c0,0.52175 -1.00131,0.94494 -2.23832,0.94696l-2.50193,0.00476l-0.07565,0.25102z" data-paper-data="{&quot;index&quot;:null}" fill="#bd00f2"></path><path d="M320.70953,201.01907c-0.05511,0.16611 -0.12087,0.33259 -0.1993,0.50072h0.47577v0.96219c0,0.523 -1.0061,0.94697 -2.24718,0.94697c-0.99446,0 -1.83804,-0.27221 -2.13406,-0.64947l-1.08318,-1.27915l0.02858,-0.0043l-0.05591,-0.03005c-0.07201,-0.1267 -0.15224,-0.25276 -0.23472,-0.37867c-0.40539,0.63517 -1.03643,1.2465 -1.89263,1.78364c-0.0425,0.02667 -0.08571,0.05309 -0.1296,0.07929l0.02549,0.00622l-1.44024,1.04827c0.01913,0.29356 0.02987,0.5877 0.03021,0.88272c0,0 0,0.94697 -2.24718,0.94697c-2.24718,0 -2.24718,-0.94697 -2.24718,-0.94697c0.00029,-0.23371 -0.00649,-0.46684 -0.01914,-0.69955c-0.04405,-0.04853 -0.07889,-0.09898 -0.10363,-0.15097l-0.96538,-1.83062l0.06275,-0.00588l-0.10285,-0.09622c-0.0045,-0.52841 0.12072,-1.05454 0.3309,-1.57706h-0.3443v-1.89393c0,-0.523 1.0061,-0.94697 2.24718,-0.94697c1.14451,0 2.0892,0.36056 2.22927,0.82683l0.26122,0.77057c1.16374,-1.10022 3.03182,-1.82199 5.49342,-1.17424c0.02713,-0.13517 0.04379,-0.26204 0.04379,-0.37749v-1.02309c0,-0.523 1.0061,-0.94697 2.24718,-0.94697c1.0443,0 1.92222,0.30018 2.17437,0.70694l1.12801,1.66371l-0.3351,0.04035c0.41407,0.39941 0.74576,0.81047 0.94876,1.23683l0.04363,0.66681c0,0 0,0.87296 -1.98896,0.94257z" data-paper-data="{&quot;index&quot;:null}" fill="#bd00f2"></path><path d="M318.22193,189.90419c-0.1135,-0.06366 -0.28354,-0.13895 -0.36726,-0.20973c-0.39172,0.13998 -0.89875,0.2244 -1.45256,0.2244c-0.14196,0 -0.28087,-0.00555 -0.41554,-0.01616l-0.01499,0.0221c0.74899,-0.01014 1.49925,-0.01678 2.25035,-0.02062zM298.79604,198.56434c-5.43054,-0.12585 -10.81784,-0.30139 -16.067,-0.42743h-2.23558c-1.24109,0 -2.24718,-0.42397 -2.24718,-0.94697c0,-0.50295 0.93048,-0.91433 2.10559,-0.94512l2.6883,-0.08092l-2.87969,-0.20225c-1.08318,-0.0678 -1.91419,-0.46132 -1.91419,-0.93664c0,-0.16692 0.10248,-0.32376 0.28238,-0.45994c-0.51976,-0.17345 -0.8532,-0.44171 -0.8532,-0.7428c0,-0.50051 0.92142,-0.91031 2.08842,-0.94464l4.45962,-0.15034l0.04203,0.22139c0.08543,0.00435 0.17074,0.00866 0.25595,0.01293c0.7247,-0.06753 1.44979,-0.12721 2.17566,-0.17994l-2.17237,-0.5404c-0.6813,-0.16266 -1.14103,-0.47095 -1.14103,-0.82448c0,-0.18199 0.12183,-0.352 0.333,-0.49632h-0.36914c-1.24109,0 -2.24718,-0.42397 -2.24718,-0.94697c0,-0.48751 0.87418,-0.88897 1.99804,-0.94121l1.43057,-0.07536c0.06217,-0.4627 0.91263,-0.83656 1.99439,-0.88684l4.43008,-0.23336l0.08169,0.2754c0.0217,0.00052 0.04339,0.00102 0.06509,0.00154c3.75333,-0.39817 7.65962,-0.59242 11.62747,-0.67362c0.40262,-0.27064 0.80992,-0.53427 1.20575,-0.78752v-0.76835c0,-0.523 1.0061,-0.94697 2.24718,-0.94697c0.09394,0 0.18651,0.00242 0.27743,0.00714l0.99928,-1.2633c0.28241,-0.38695 1.13738,-0.66822 2.14825,-0.66822c1.0443,0 1.92222,0.30018 2.17437,0.70694l1.12801,1.66371l-0.53642,0.06459c0.01478,0.01738 0.02944,0.03477 0.044,0.05218c1.26114,0.21579 2.32801,0.91954 3.54253,1.25241l0.02269,0.13931l0.02094,-0.00505c0.06416,-0.41804 0.25578,-0.83394 0.552,-1.22724l0.54425,-1.14675c0.18865,-0.4426 1.10711,-0.77845 2.21171,-0.77845c0.71002,0 1.34315,0.13876 1.75496,0.35545c0.0011,-0.1177 -0.00075,-0.23562 -0.006,-0.35378c-0.08039,-1.81068 -0.62031,-3.51058 -0.38815,-5.17519c-0.06423,-0.3547 -0.12525,-0.70927 -0.18169,-1.06371l0.1353,-0.03184h-0.13658l-0.00001,-0.48149h-0.00004v-0.96219c0,-0.523 1.0061,-0.94697 2.24718,-0.94697c1.24108,0 2.24716,0.42396 2.24718,0.94695v0l0.00006,1.35897c0.86903,0.51975 0.6216,1.45205 0.43562,2.33048c0.55146,2.56042 1.25351,5.17524 1.47162,7.77082c8.8168,-0.12772 17.79262,-0.22456 26.2331,0.3418h2.14956c1.24109,0 2.24718,0.42397 2.24718,0.94697c0,0.01118 -0.00045,0.02232 -0.00136,0.0334c2.12865,-0.00886 4.25809,-0.01459 6.38884,-0.01695v-0.00123h4.49437c1.24109,0 2.24718,0.42397 2.24718,0.94697c0,0.523 -1.0061,0.94697 -2.24718,0.94697h-2.28331c-1.10299,0 -2.20555,0.00094 -3.30779,0.00279c-2.22421,0.34457 -4.67225,0.29407 -7.58245,0.43073c-0.75497,0.03545 -1.50951,0.07078 -2.2637,0.10615c0.97729,0.10278 1.70127,0.47517 1.70127,0.91883c0,0.4823 -0.85561,0.88039 -1.96209,0.93942l-3.96308,0.23857l-0.07896,-0.2329c-3.42281,0.40533 -6.93813,0.65135 -10.48573,0.86133c0.31671,0.1632 0.50669,0.37177 0.50669,0.59904c0,0.07727 -0.02197,0.15238 -0.06341,0.22428c0.23345,0.01633 0.46083,0.03161 0.68158,0.04569l0.33527,0.16002l0.10307,-0.06663l1.88874,0.51879c0.63121,0.16767 1.05055,0.46404 1.05055,0.80169c0,0.46548 -0.79698,0.85253 -1.84729,0.93202l-4.36625,0.36799l-0.07772,-0.16376c-5.69992,0.72318 -11.62171,1.09652 -17.63401,1.25734c-0.23043,1.40783 0.54863,3.16424 -4.81669,3.35905c-0.05465,0.00198 -0.10872,0.00388 -0.1622,0.00569l-0.21875,0.82966c-0.11112,0.47924 -1.06998,0.85375 -2.23643,0.85375c-1.10237,0 -2.01938,-0.3345 -2.21056,-0.77578l-0.60097,-1.24653c-0.14407,-0.18792 -1.52008,-1.98224 -2.26078,-2.95106c-0.68685,-0.00755 -1.37369,-0.0166 -2.06036,-0.02696l-1.05635,1.03868c-0.33209,0.34818 -1.14086,0.594 -2.08589,0.594c-1.24109,0 -2.24718,-0.42397 -2.24718,-0.94697v-0.79053zM312.91715,195.9942c0.80198,0.00518 1.60113,0.00823 2.39675,0.00823h1.7788c0.10908,-0.05951 0.21896,-0.1196 0.32886,-0.18137l-2.83107,-0.09177c-0.63685,-0.01799 -1.20104,-0.14779 -1.58295,-0.34323c-1.42936,0.04284 -2.91578,0.08183 -4.38037,0.09234c0.00748,0.00477 0.01495,0.00955 0.02244,0.01434c1.41883,0.17275 2.84322,0.33363 4.26755,0.50145zM291.07272,191.58176c1.62332,0.26653 3.24562,0.43996 4.86928,0.56476c-0.00006,-0.00268 -0.00007,-0.00536 -0.00007,-0.00805c0,-0.26158 0.25169,-0.4984 0.65859,-0.66978c-1.84432,0.07543 -3.69562,0.12784 -5.5278,0.11308zM314.36627,198.70279c-0.14918,0.00163 -0.29841,0.00314 -0.44768,0.00455c0.00068,0.00061 0.00138,0.00122 0.00207,0.00183l0.25733,0.21688c0.05904,-0.07392 0.12284,-0.14853 0.18828,-0.22326z" data-paper-data="{&quot;index&quot;:null}" fill="#9b00c4"></path><path d="M316.46362,196.86953c-0.66417,0.3052 -1.72054,0.3052 -1.72054,0.3052l-1.11585,-0.02827c-1.19265,-0.12998 -2.3946,-0.27588 -3.56728,-0.45282h-0.8734l-0.12593,0.21227l-2.23771,-0.23574c-1.00071,-0.0957 -1.74777,-0.47283 -1.74777,-0.9235c0,-0.28954 0.30837,-0.54872 0.79422,-0.72242c-5.06758,0.09114 -10.21251,0.09739 -14.85878,-0.25499c-0.86594,0 -1.73187,0 -2.59781,0c-0.11802,0 -4.37635,0 -4.49437,0c-1.24109,0 -2.24718,-0.42397 -2.24718,-0.94697c0,-0.523 1.0061,-0.94697 2.24718,-0.94697h4.49437c0.86594,0 1.73187,0 2.59781,0c0.73506,-0.05575 1.4826,-0.10252 2.24035,-0.1414c-0.10523,-0.10961 -0.16317,-0.22942 -0.16317,-0.35492c0,-0.523 1.0061,-0.94697 2.24718,-0.94697h2.35556c2.15116,0.00064 4.27612,-0.05925 6.38155,-0.14864c0.18306,-0.03683 0.37979,-0.06352 0.58613,-0.07836l4.37532,-0.3512l0.07823,0.17308c0.26352,-0.0148 0.52679,-0.02968 0.78988,-0.04458c4.97654,-0.63621 9.74846,-0.74884 15.75939,-0.75292v-0.00012h4.49437c1.24109,0 2.24718,0.42397 2.24718,0.94697c0,0.523 -1.0061,0.94697 -2.24718,0.94697h-4.1403c-0.60394,0 -1.25375,0.01311 -1.9377,0.03482c-0.59534,0.05603 -1.22884,0.08576 -1.96257,0.11907c0.00851,0.03348 0.01285,0.06746 0.01285,0.10189c0,0.18199 -0.12183,0.352 -0.333,0.49632h0.36914c1.24109,0 2.24718,0.42397 2.24718,0.94697c0,0.1624 -0.097,0.31525 -0.26793,0.44882l1.0991,0.05215c1.13581,0.04742 2.02297,0.4512 2.02297,0.94231c0,0.37803 -0.52565,0.70432 -1.28575,0.85616l-2.23976,0.47192l-0.04111,-0.03465c-0.14443,0.03927 -0.29338,0.07586 -0.44757,0.10929c-1.41237,0.30624 -4.14159,0.28374 -6.78734,0.20123z" data-paper-data="{&quot;index&quot;:null}" fill="#da7af5"></path><path d="M315.31395,194.28816c-4.22922,0 -8.3642,-0.01298 -12.58317,-0.15886l-2.42203,-0.08417c-1.16467,-0.03533 -2.0835,-0.4447 -2.0835,-0.94449c0,-0.523 1.0061,-0.94697 2.24718,-0.94697h3.42496v0.11433c0.38712,0.01196 0.77361,0.0228 1.1596,0.03261c2.61262,-0.15165 5.19419,-0.14693 8.54446,-0.14693h1.71248c0,0 2.24718,0 2.24718,0.94697c0,0.04192 -0.0044,0.08198 -0.01282,0.12027c0.00841,0.03829 0.01282,0.07836 0.01282,0.12027c0,0.94697 -2.24718,0.94697 -2.24718,0.94697z" data-paper-data="{&quot;index&quot;:null}" fill="#e6b0f5"></path></g><g stroke="none" stroke-width="0.5" stroke-linecap="butt"><path d="M214.24945,189.30789c0,-0.74367 1.58074,-0.74367 1.58074,-0.74367l2.41615,0.00001c2.52728,0.01041 4.32037,0.04555 6.20242,0.22114l0.03753,-0.17654l3.12838,0.14718c0.80749,0.03331 1.44084,0.35226 1.44084,0.74079c0,0.35392 -0.5255,0.65009 -1.22944,0.72523l-1.44911,0.17044c-0.45832,0.10625 -0.90861,0.21068 -1.35667,0.29896c0.26151,0.13268 0.42137,0.31032 0.42137,0.50552c0,0.36555 -0.56063,0.66949 -1.29944,0.73193l-1.97896,0.18621l-0.00337,-0.00793l-0.04235,0.0119c-0.14709,0.00967 -0.30548,0.02247 -0.47349,0.03775l0.08895,0.00837c0.73882,0.06243 1.29944,0.36638 1.29944,0.73193c0,0.35392 -0.5255,0.65009 -1.22944,0.72523l-1.57119,0.18479c-0.49203,0.05911 -0.96412,0.12226 -1.42443,0.18354c2.70505,0.16468 5.39063,0.44502 8.08785,0.62602c0,0 1.56485,0.10517 1.3413,0.84136c-0.22355,0.7362 -1.78839,0.63102 -1.78839,0.63102c-0.20723,-0.01395 -0.41436,-0.02847 -0.62143,-0.04346c-0.28886,0.14746 -0.70285,0.23984 -1.16271,0.23984c-0.6492,0 -1.20698,-0.18411 -1.45031,-0.44741c-2.90033,-0.24259 -5.79997,-0.49865 -8.74387,-0.50074l-0.14571,-0.03092l-0.00855,0.0201l-3.07136,-0.28899c-0.73882,-0.06243 -1.29944,-0.36638 -1.29944,-0.73193c0,-0.31566 0.41803,-0.58539 1.00787,-0.69333l0.91369,-0.17867c-0.70458,-0.07493 -1.23071,-0.37125 -1.23071,-0.72537c0,-0.24639 0.25471,-0.4648 0.64702,-0.60013l1.59143,-0.56152l0.33147,0.20792c1.42087,-0.49266 2.88881,-0.70568 4.66731,-0.8531c-0.00631,-0.027 -0.00955,-0.05443 -0.00955,-0.08223c0,-0.27564 0.31876,-0.51624 0.79231,-0.6447l0.40061,-0.11308c-0.26925,-0.00498 -0.54359,-0.00865 -0.8237,-0.0098l-2.40231,0.00001c0,0 -1.58074,0 -1.58074,-0.74367z" data-paper-data="{&quot;index&quot;:null}" fill="#bd00f2"></path><path d="M205.89052,191.59267l-0.30665,-0.16488l2.37348,-0.97704c0.27879,-0.11598 0.64526,-0.18638 1.04669,-0.18638c0.87302,0 1.58074,0.33295 1.58074,0.74367v0.75562h-0.09004l0.06963,0.11913c-1.18558,1.72728 -1.29728,3.1757 -4.80919,3.56311l-0.00609,0.01717c-0.11319,0.35846 -0.77006,0.63347 -1.5635,0.63347c-0.87302,0 -1.58074,-0.33295 -1.58074,-0.74367v-1.13343h0.16436l-0.12,-0.17493c0.26396,-0.25225 0.50272,-0.4802 0.727,-0.68838c0.01044,-0.07773 0.03132,-0.15388 0.06241,-0.22707l0.3958,-0.93102c0.1327,-0.34758 0.77877,-0.61133 1.55578,-0.61133c0.15552,0 0.30579,0.01057 0.44776,0.03025c0.01742,-0.00811 0.03493,-0.01622 0.05255,-0.0243z" data-paper-data="{&quot;index&quot;:null}" fill="#e6b0f5"></path><g><path d="M174.55091,193.10599c0.63162,0.0301 1.26332,0.06022 1.89494,0.09034c0,0 3.94476,0.18811 3.61603,2.44544c-0.32873,2.25731 -4.27349,2.06923 -4.27349,2.06923c-1.66088,-0.07921 -3.3218,-0.15851 -4.98261,-0.23825c4.5598,0.48747 9.23848,0.58221 13.84647,0.91181c0,0 3.92788,0.28096 3.43686,2.52862c-0.49098,2.24766 -4.41886,1.9667 -4.41886,1.9667c-8.25834,-0.59072 -15.66637,-1.12467 -23.61171,-2.56098c-2.43277,-0.43977 -6.04858,-0.01722 -7.3177,-1.28371c-0.90922,-0.90731 -1.02164,-1.8703 -0.59261,-2.80916l-0.38102,0.25397c0,0 -2.79903,1.60169 -5.59806,0c-2.79903,-1.60169 0,-3.20342 0,-3.20342l2.84027,-1.51387c2.97775,-0.97666 6.01373,-1.9656 9.11071,-2.8959c-0.02551,-0.10384 -0.03867,-0.20997 -0.03867,-0.31786c0,-1.25101 1.77222,-2.26515 3.95845,-2.26515h5.72594c2.78999,-0.63833 5.62777,-1.17874 8.51516,-1.57526l0.84165,-0.72631c6.36824,0 12.73655,0 19.10479,0c0,0 3.95845,0 3.95845,2.26515c0,2.26515 -3.95845,2.26515 -3.95845,2.26515c-2.03234,0 -4.06469,0 -6.09707,0c0.00022,0.01207 0.00033,0.02421 0.00033,0.03643c0,0.68049 -0.35726,1.15658 -0.85712,1.48961c5.35783,0.93021 10.64196,1.38485 15.76276,2.8137c0,0 3.5405,1.01301 1.77029,3.03901c-1.77029,2.026 -5.31079,1.01301 -5.31079,1.01301c-5.60687,-1.65765 -12.04506,-1.9351 -18.09308,-3.22194l-3.53407,-0.68758c0,0 -2.83276,-0.55202 -2.73351,-2.10556c-2.39618,0.06328 -4.52767,0.09483 -6.54596,-0.25663c-0.33937,0.47613 -0.71124,0.94778 -1.12253,1.40516h1.62284c0,0 2.39834,0 3.46137,1.06826z" data-paper-data="{&quot;index&quot;:null}" fill="#bd00f2"></path><path d="M199.32958,198.47218c0.09834,0.55008 0.30863,1.1051 0.46454,1.65543v-0.80772h0.00301c0.00094,-0.02212 0.00209,-0.04424 0.00346,-0.06635l-0.0059,-0.10245l0.01377,-0.00017c0.01804,-0.19709 0.05269,-0.39387 0.1016,-0.59015c-0.05854,-0.1951 -0.09635,-0.39102 -0.11011,-0.58713h-0.00584v-0.20116c-0.00786,-0.05415 -0.01506,-0.10835 -0.02167,-0.1626c-0.25649,-0.02307 -0.5142,-0.04775 -0.77228,-0.07369c-0.00018,0.00027 -0.00037,0.00054 -0.00055,0.00082l0.32061,0.905l-0.0187,0.00146zM199.97688,201.06274c0.11062,-0.08415 0.22357,-0.16611 0.339,-0.24619c-0.18514,-0.07864 -0.33053,-0.17761 -0.4203,-0.28941c0.03923,0.1794 0.06828,0.35805 0.0813,0.5356zM196.09046,185.99332c0.00438,0.07545 0.00492,0.15124 -0.00055,0.22675c0.05489,-0.03474 0.11607,-0.06716 0.18273,-0.09687c-0.06282,-0.04021 -0.1234,-0.08356 -0.1822,-0.12988zM195.74314,186.96023l0.02348,0.00331l-0.34056,0.53405c0.10805,-0.00294 0.21628,-0.00589 0.32471,-0.00882c0.00633,-0.024 0.01265,-0.04794 0.01898,-0.07183l0.00584,-0.49047c-0.01071,0.01128 -0.02152,0.02254 -0.03243,0.03376zM203.73603,198.67733c0.07563,-0.04616 0.16255,-0.08802 0.25879,-0.12467c-0.18775,-0.1646 -0.33257,-0.34445 -0.44541,-0.53458c-0.01868,0.00684 -0.03769,0.01348 -0.05702,0.01992c-0.06512,0.18716 -0.11683,0.38235 -0.14109,0.58997l-0.01638,0.01775l0.01252,0.00066l-0.07251,0.30702zM186.7582,191.34208c0.48619,-0.0533 0.92309,-0.05946 1.33584,-0.03097c0.3997,-0.00391 0.84725,0.00273 1.32788,0.0275c0.61868,-0.12236 1.33985,-0.18256 2.04219,-0.23568c-0.00759,-0.09279 -0.01424,-0.18552 -0.01985,-0.27822l-2.52647,0.11886c-1.02128,0.20428 -1.72302,0.32778 -2.1596,0.39852zM221.98348,193.44083c-0.6619,-0.11021 -1.30184,-0.20683 -1.92807,-0.2958c-0.20631,0.09084 -0.42508,0.17629 -0.63699,0.2539c0.95434,0.59951 1.07782,1.21088 0.61277,1.76528c0.21325,0.00667 0.42128,0.01086 0.62293,0.0117h2.0022c0.87302,0 1.58074,0.33295 1.58074,0.74367c0,0.41071 -0.70771,0.74367 -1.58074,0.74367h-2.00768v-0.0028l-0.00756,0.00279c-0.27235,-0.00134 -0.57762,-0.00104 -0.90845,-0.00061c-0.41668,0.03005 -0.84568,0.03778 -1.3017,0.03565c-0.34226,0.18441 -0.87283,0.12735 -1.41756,-0.02264c-0.11148,-0.00203 -0.22483,-0.00396 -0.34021,-0.00566c-1.02923,0.19501 -2.09585,0.23562 -3.16417,0.19328c-0.71252,1.85115 -1.72165,3.67886 -1.72498,5.54044l-0.06056,0.05744l0.04443,0.00348l-0.39727,1.12137c-0.11319,0.35846 -0.77006,0.63347 -1.5635,0.63347c-0.75227,0 -1.38181,-0.24722 -1.54155,-0.5784l-0.39351,-0.74053l0.31745,-0.03734c-0.16993,-0.17453 -0.3232,-0.34871 -0.4649,-0.52451c-0.17498,0.32109 -0.79422,0.55843 -1.53131,0.55843c-0.75227,0 -1.38181,-0.24722 -1.54155,-0.5784l-0.39351,-0.74053l0.42199,-0.04963c-0.22483,-0.26895 -0.41086,-0.54461 -0.55128,-0.82389l-0.04289,-0.01585c-0.71295,0.72976 -1.77538,1.31915 -2.47498,2.14834l-0.04571,0.02227l0.01874,0.00441l-0.78777,0.74121c-0.25346,0.25154 -0.79813,0.42549 -1.42917,0.42549c-0.76602,0 -1.4048,-0.25635 -1.54984,-0.59664l-0.67908,-1.43762l0.27728,-0.02899c-0.35588,-0.53557 -0.61204,-1.05906 -0.80875,-1.62851c-0.28894,0.1772 -0.7436,0.29145 -1.25499,0.29145c-0.52375,0 -0.98799,-0.11983 -1.27563,-0.30439l-0.71938,-0.45126c-0.00422,0.00002 -0.00845,0.00002 -0.01267,0.00002c-0.87302,0 -1.58074,-0.33295 -1.58074,-0.74367v-1.13343h0.39626c-0.10702,-0.42931 -0.16301,-0.85239 -0.19424,-1.27589c-0.29449,-0.02721 -0.5696,-0.049 -0.82211,-0.06398c-1.76145,-0.10449 -4.76982,0.36252 -6.24217,-0.28946c-0.88536,-0.39205 -2.3891,-0.99299 -1.79841,-1.49296c0.22257,-0.18838 2.20712,-0.46045 4.2946,-0.70283c-0.46103,-0.04998 -0.88719,-0.10785 -1.26038,-0.17579c-1.29284,-0.23536 -3.33949,-0.34571 -3.59074,-0.98709c-0.1223,-0.31218 0.27507,-0.58732 0.84745,-0.82134c-0.5022,-0.24153 -0.82293,-0.58574 -0.85428,-1.08023c-0.0195,-0.30754 1.06802,-0.6806 2.30263,-0.99108c-0.4266,-0.13318 -0.70784,-0.36119 -0.70784,-0.6201c0,-0.19798 0.16443,-0.37788 0.43257,-0.51114c-0.19311,-0.12332 -0.30725,-0.27571 -0.30725,-0.44064c0,-0.38329 0.61637,-0.69886 1.40823,-0.73929l3.11725,-0.18046l0.00359,0.01374l0.09275,-0.01792c0.92176,-0.00039 1.88613,-0.01313 2.88207,-0.03283v-1.11396c0,-0.31986 0.42926,-0.59256 1.03154,-0.69755c-0.01026,-0.78105 0.53928,-1.53789 2.30367,-1.73666c1.15511,-0.13013 2.56692,1.24821 3.169,0.76652c0.48105,-0.38487 0.32334,-0.89328 0.72346,-1.29646v-0.62506c0,-0.41071 0.70771,-0.74367 1.58074,-0.74367c0.77701,0 1.42308,0.26375 1.55578,0.61133l0.15119,0.35562c0.28488,-0.13076 0.67434,-0.21133 1.10379,-0.21133c0.48329,0 0.91594,0.10204 1.2059,0.26283l0.47038,-0.82892c0.1683,-0.3256 0.79216,-0.56732 1.53603,-0.56732c0.71108,0 1.31249,0.22089 1.51114,0.52477l0.98821,1.39474l-0.00904,0.00141c0.39213,0.40266 0.6515,0.83496 0.67217,1.33655c0.01604,0.04248 0.0244,0.08622 0.0244,0.13088v0.64609c0.39341,-0.25421 0.68049,-0.72811 1.18728,-0.61472c0.56423,0.12623 0.93843,0.35566 1.24669,0.62089c0.28995,-0.16059 0.72232,-0.26249 1.20529,-0.26249c0.87302,0 1.58074,0.33295 1.58074,0.74367v0.78876c0.63563,0.07299 1.12063,0.32679 1.19476,0.639c0.20817,0.05453 0.38742,0.13054 0.52422,0.22166c0.59109,0.05695 1.17997,0.12242 1.77167,0.19699l0.04044,-0.13953l3.11025,0.19953c0.78278,0.04444 1.38938,0.35803 1.38938,0.73827c0,0.33732 -0.47737,0.62218 -1.13163,0.71323l-2.23403,0.33769l-0.00095,-0.00138l-0.00839,0.00278c-0.02541,0.00365 -0.05107,0.00742 -0.07697,0.01128l0.73037,0.11454c0.64593,0.09345 1.11545,0.3764 1.11545,0.71093c0,0.29687 -0.36977,0.55312 -0.90443,0.67236l-0.37187,0.08748c0.3026,0.04309 0.61353,0.093 0.93615,0.14736l0.03153,-0.06675l3.05578,0.31947c0.72333,0.06825 1.26822,0.36875 1.26822,0.72913c0,0.41071 -0.70771,0.74367 -1.58074,0.74367h-1.60615v-0.06228zM200.88248,187.37285c0.13399,-0.37516 0.29673,-0.74249 0.49326,-1.0994c-0.0003,0 -0.00059,0 -0.00089,0c-0.50765,0 -0.95939,-0.11258 -1.24861,-0.28756c-0.50331,0.15897 -0.94644,0.27681 -1.33956,0.35721c0.09844,0.09695 0.15355,0.2055 0.15355,0.32012v0.74511c0.64593,-0.01408 1.29414,-0.02628 1.94225,-0.03547zM209.57591,187.42579c0.0003,0.00147 0.00059,0.00294 0.00089,0.00441c0.04797,0.03977 0.08836,0.08182 0.12026,0.12572c0.18003,0.01317 0.35906,0.02711 0.53701,0.04183v-0.55673h0.03604c-0.03072,-1.03576 0.14042,0.03178 -0.69419,0.38477zM194.57828,191.08382c0.15113,0.01095 0.3048,0.02281 0.45939,0.03541c0.05486,-0.48761 0.12921,-0.97093 0.21688,-1.44547h-0.66246c-0.03386,0.47086 -0.03378,0.94061 -0.0138,1.41006zM209.90686,190.33811c0.00251,0.06479 0.00325,0.12884 0.00171,0.19226c0.0858,-0.02002 0.17603,-0.0365 0.2698,-0.049c-0.10303,-0.042 -0.19439,-0.09016 -0.27152,-0.14325zM206.34236,184.81343c-0.10073,0.07782 -0.20426,0.15493 -0.31035,0.23134l0.34097,0.08843l-0.47447,0.40488c0.10244,0.21189 0.21175,0.42152 0.32657,0.62951l0.2395,-0.65407c-0.06427,-0.2319 -0.1044,-0.46852 -0.12222,-0.70011zM194.74561,193.10016c0.00199,0.0015 0.00396,0.003 0.00594,0.0045l0.18583,0.01245c-0.0029,-0.15148 -0.00313,-0.30315 -0.00092,-0.45483c-0.07752,-0.00176 -0.1563,-0.00334 -0.23604,-0.00475c0.01478,0.14748 0.02998,0.29502 0.04517,0.44264zM194.89657,194.81947c0.01102,0.18927 0.01929,0.37884 0.02397,0.56875c0.09901,0.01024 0.19754,0.02047 0.29553,0.03066c-0.0495,-0.2075 -0.09179,-0.41671 -0.12738,-0.62726c-0.06402,0.00936 -0.12805,0.01864 -0.19213,0.02783zM210.04944,189.14297c-0.08481,0.00671 -0.16984,0.01323 -0.25511,0.01958c0.00924,0.13509 0.02262,0.26661 0.03702,0.39496c0.22734,-0.19185 0.62997,-0.33143 1.10599,-0.37081c-0.3124,-0.00027 -0.60784,-0.012 -0.8879,-0.04373zM215.05442,194.96179c-0.15771,-0.02732 -0.31963,-0.04901 -0.48469,-0.06652c-0.06629,0.03298 -0.13894,0.06312 -0.21702,0.08996c0.22928,-0.01272 0.46363,-0.02019 0.70169,-0.02345zM195.07051,197.07851c-0.00404,0.22383 -0.05544,0.43577 -0.20449,0.63437c0.11509,0.0277 0.22201,0.06183 0.31862,0.1014l0.19256,-0.18118v-0.51646c-0.10288,-0.01279 -0.20512,-0.0255 -0.30668,-0.03813z" data-paper-data="{&quot;index&quot;:null}" fill="#9b00c4"></path><path d="M199.84826,190.69943c0.21504,-0.81808 0.59667,-2.073 0.93566,-2.15926c1.51467,-0.38544 8.36415,0.53612 9.90211,1.73596c0.23408,-0.11407 0.58941,-0.20065 1.12875,-0.20065c1.58074,0 1.58074,0.74367 1.58074,0.74367c-0.00805,0.29746 -0.05269,0.61518 -0.12851,0.9477c1.36609,0.20768 2.07384,0.68673 0.12516,1.81618c-0.24422,0.14155 -0.55735,0.23828 -0.90968,0.3092c-0.88136,1.82135 -2.25973,3.73887 -3.49658,5.10451c-0.82207,0.90767 -2.15373,1.92604 -4.88347,1.12787c-0.9142,-0.2673 -1.08572,-0.88164 -1.43913,-1.35995c-0.36644,-0.49594 -0.71558,-1.01049 -1.04418,-1.53243c-0.27888,0.11615 -0.64562,0.18667 -1.04739,0.18667c-0.39464,0 -0.7555,-0.06804 -1.03248,-0.18054l-0.82611,0.13417c-0.17146,0.02998 -0.357,0.04636 -0.55064,0.04636c-0.87302,0 -1.58074,-0.33295 -1.58074,-0.74367c0,-0.27564 0.31876,-0.51624 0.79231,-0.6447l1.66077,-0.46879c0.00244,-0.01064 0.00499,-0.02127 0.00762,-0.03189h-0.47842c-0.87302,0 -1.58074,-0.33295 -1.58074,-0.74367c0,-0.24864 0.25939,-0.46879 0.65778,-0.60381c-0.19601,-0.06719 -0.33873,-0.14348 -0.41129,-0.22819c-0.34445,-0.40219 0.36193,-0.96805 1.45095,-1.55506l-1.4724,0.09896c-0.08157,0.00611 -0.16524,0.00928 -0.25046,0.00928c-0.87302,0 -1.58074,-0.33295 -1.58074,-0.74367c0,-0.37327 0.58456,-0.68231 1.3465,-0.73556l2.38358,-0.1869l0.00927,0.02616l0.00009,-0.00001c0.24201,-0.05789 0.48577,-0.11399 0.73162,-0.16794zM204.62589,196.32007c0.23603,0.29728 0.46819,0.59515 0.67214,0.89691c0.24969,0.36945 0.27813,0.76422 0.40985,1.1469c0.05731,0.16651 0.01929,0.6705 0.08331,0.50452c0.37936,-0.98361 1.12424,-2.00391 1.89743,-3.03375l-1.03285,0.19436l-0.12661,-0.14892c-0.62523,0.1589 -1.25144,0.30272 -1.90327,0.43996zM202.76885,189.69782c-0.2703,0.02644 0.32054,0.19544 0.43021,0.33304l0.6794,-0.15981c-0.46331,-0.12258 -0.86034,-0.1976 -1.10961,-0.17323zM207.3308,190.87326c-0.08328,-0.01026 -0.17857,-0.02767 -0.28378,-0.05094l-0.68652,0.22603c0.78194,-0.07429 1.25838,-0.13962 0.9703,-0.17509zM205.832,193.19605c0.03138,-0.00479 0.06276,-0.00956 0.09416,-0.01432c-0.04822,-0.00242 -0.09647,-0.00494 -0.14473,-0.00755c0.01691,0.00716 0.03378,0.01445 0.05058,0.02188z" data-paper-data="{&quot;index&quot;:null}" fill="#da7af5"></path></g></g></g></g></svg>