<svg version="1.1" xmlns="http://www.w3.org/2000/svg" xmlns:xlink="http://www.w3.org/1999/xlink" width="93.52313" height="88.23427" viewBox="0,0,93.52313,88.23427"><g transform="translate(-194.38962,-136.44456)"><g data-paper-data="{&quot;isPaintingLayer&quot;:true}" fill-rule="nonzero" stroke="#000000" stroke-linejoin="miter" stroke-miterlimit="10" stroke-dasharray="" stroke-dashoffset="0" style="mix-blend-mode: normal"><path d="M217.26669,163.8666l8.90089,1.66557l-0.59407,7.97793" data-paper-data="{&quot;index&quot;:null}" fill="none" stroke-width="1.5" stroke-linecap="round"></path><path d="M234.62485,171.63453l3.05768,-7.39261l8.69888,2.51584" data-paper-data="{&quot;index&quot;:null}" fill="none" stroke-width="1.5" stroke-linecap="round"></path><path d="M220.89373,188.33705c0,0 5.7177,-6.44666 10.19706,-3.328c4.36655,3.04012 4.56279,14.10803 4.56279,14.10803z" data-paper-data="{&quot;index&quot;:null}" fill="#040404" stroke-width="1.5" stroke-linecap="round"></path><path d="M214.54402,148.31748c11.51664,-14.08096 34.24012,-14.54642 50.75431,-1.03965c16.51419,13.50677 20.56552,35.87103 9.04889,49.95197c-7.10772,8.69036 -17.66915,17.68284 -29.22009,15.91704c-0.48232,-0.07374 -5.95681,-1.11268 -5.95681,-1.11268l-8.98456,10.63043l-10.33941,-7.22571l9.40654,-12.29912l-9.80501,12.09819l-11.53045,-9.16607l9.73048,-12.62609l-9.38371,12.74955l-12.46556,-10.30717c0,0 10.69586,-12.89755 10.41937,-13.19393c-1.80627,-1.93595 -1.5639,-1.28037 -2.40005,-3.17256c-5.13269,-11.61548 3.09652,-21.87579 10.72609,-31.20419z" data-paper-data="{&quot;index&quot;:null}" fill="#ffffff" stroke-width="2" stroke-linecap="butt"></path><path d="M252.14172,181.12896c-3.75187,4.58727 -9.34795,6.2166 -12.49924,3.63924c-3.15127,-2.57738 -2.66436,-8.3855 1.08751,-12.97275c3.75187,-4.58727 6.26187,-9.22288 9.41312,-6.64549c2.49434,2.0401 3.56951,12.65392 3.56951,12.65392c0,0 -0.78881,2.36881 -1.57091,3.32509z" data-paper-data="{&quot;index&quot;:null}" fill="#ababab" stroke-width="1" stroke-linecap="butt"></path><path d="M273.69617,184.16956c3.15127,2.57738 -0.89434,5.95703 -4.64621,10.54429c-3.75187,4.58727 -9.34796,6.21661 -12.49924,3.63925c-3.15127,-2.57738 -2.66436,-8.3855 1.08752,-12.97277c0.78211,-0.95627 2.94739,-2.19929 2.94739,-2.19929c0,0 10.6162,-1.05163 13.11054,0.98847z" data-paper-data="{&quot;index&quot;:null}" fill="#ababab" stroke-width="1" stroke-linecap="butt"></path><path d="" data-paper-data="{&quot;index&quot;:null}" fill="none" stroke-width="1.5" stroke-linecap="round"></path><path d="" data-paper-data="{&quot;index&quot;:null}" fill="none" stroke-width="1.5" stroke-linecap="round"></path><path d="" data-paper-data="{&quot;index&quot;:null}" fill="none" stroke-width="1.5" stroke-linecap="round"></path><path d="" data-paper-data="{&quot;index&quot;:null}" fill="none" stroke-width="1.5" stroke-linecap="round"></path><path d="" data-paper-data="{&quot;index&quot;:null}" fill="none" stroke-width="1.5" stroke-linecap="round"></path><path d="" data-paper-data="{&quot;index&quot;:null}" fill="none" stroke-width="1.5" stroke-linecap="round"></path><path d="" data-paper-data="{&quot;index&quot;:null}" fill="none" stroke-width="1.5" stroke-linecap="round"></path><path d="" data-paper-data="{&quot;index&quot;:null}" fill="none" stroke-width="1.5" stroke-linecap="round"></path><path d="" data-paper-data="{&quot;index&quot;:null}" fill="none" stroke-width="1.5" stroke-linecap="round"></path><path d="" data-paper-data="{&quot;index&quot;:null}" fill="none" stroke-width="1.5" stroke-linecap="round"></path><path d="M268.98117,209.74906c2.55771,-4.76785 8.49626,-6.55952 13.26411,-4.00181c4.76785,2.55771 6.55952,8.49626 4.00181,13.26411c-2.55771,4.76785 -8.49626,6.55952 -13.26411,4.00181c-4.76785,-2.55771 -6.55952,-8.49626 -4.00181,-13.26411z" fill="#ffffff" stroke-width="1" stroke-linecap="butt"></path></g></g></svg>