<svg version="1.1" xmlns="http://www.w3.org/2000/svg" xmlns:xlink="http://www.w3.org/1999/xlink" width="95.75305" height="80.5" viewBox="0,0,95.75305,80.5"><g transform="translate(-194.17088,-139.75)"><g data-paper-data="{&quot;isPaintingLayer&quot;:true}" fill-rule="nonzero" stroke-linejoin="miter" stroke-miterlimit="10" stroke-dasharray="" stroke-dashoffset="0" style="mix-blend-mode: normal"><g data-paper-data="{&quot;index&quot;:null}" stroke="#000000"><path d="M204.87632,165.5428c-1.83707,-0.82999 -5.36055,-0.69926 -7.42027,-2.3649c-2.44296,-1.97556 -3.28517,-5.70906 -3.28517,-5.70906l0.0514,-4.01489c0,0 3.36676,3.98215 6.83003,5.78356c2.98087,1.5505 6.01789,0.96062 7.21988,0.93333c4.53252,-0.1029 13.43998,-2.3418 13.43998,-2.3418l0.30291,10.35036c0,0 -12.05286,-0.33876 -17.13877,-2.63659z" fill="#b058be" stroke-width="0" stroke-linecap="butt"></path><path d="M216.18175,167.75992c0,0 -2.05768,-4.36815 -2.10239,-5.8958c-0.03427,-1.17072 1.85704,-2.48763 1.85704,-2.48763" fill="none" stroke-width="0.5" stroke-linecap="round"></path><path d="M212.04688,166.95796c0,0 -1.94155,-3.26723 -1.97684,-4.47308c-0.02882,-0.98457 1.78056,-2.23367 1.78056,-2.23367" fill="none" stroke-width="0.5" stroke-linecap="round"></path><path d="M207.15752,166.17809c0,0 -1.67829,-3.01317 -1.64763,-4.08301c0.02022,-0.70555 1.81367,-1.71138 1.81367,-1.71138" fill="none" stroke-width="0.5" stroke-linecap="round"></path><path d="M203.16822,164.61672c0,0 -1.36894,-2.21556 -1.37605,-2.98263c-0.00532,-0.57462 1.33721,-1.21153 1.33721,-1.21153" fill="none" stroke-width="0.5" stroke-linecap="round"></path><path d="M199.60302,163.21075c0,0 -1.26688,-2.33326 -1.29902,-2.98522c-0.03621,-0.73458 1.09251,-1.20404 1.09251,-1.20404" fill="none" stroke-width="0.5" stroke-linecap="round"></path><path d="M194.92099,159.18823c0,0 0.79732,-2.01018 1.18814,-2.37063c0.44035,-0.40615 1.32313,0.05442 1.32313,0.05442" fill="none" stroke-width="0.5" stroke-linecap="round"></path></g><path d="" data-paper-data="{&quot;index&quot;:null}" fill="none" stroke="#000000" stroke-width="1.5" stroke-linecap="round"></path><path d="" data-paper-data="{&quot;index&quot;:null}" fill="none" stroke="#000000" stroke-width="1.5" stroke-linecap="round"></path><path d="" data-paper-data="{&quot;index&quot;:null}" fill="none" stroke="#000000" stroke-width="1.5" stroke-linecap="round"></path><path d="" data-paper-data="{&quot;index&quot;:null}" fill="none" stroke="#000000" stroke-width="1.5" stroke-linecap="round"></path><path d="" data-paper-data="{&quot;index&quot;:null}" fill="none" stroke="#000000" stroke-width="1.5" stroke-linecap="round"></path><path d="M289.92393,195.47556" data-paper-data="{&quot;index&quot;:null}" fill="none" stroke="#d8d8d8" stroke-width="4" stroke-linecap="round"></path><path d="M240,219.5c-21.81525,0 -39.5,-17.68475 -39.5,-39.5c0,-21.81525 17.68475,-39.5 39.5,-39.5c21.81525,0 39.5,17.68475 39.5,39.5c0,21.81525 -17.68475,39.5 -39.5,39.5z" fill="#d8d8d8" stroke="#000000" stroke-width="1.5" stroke-linecap="butt"></path><path d="M228.05527,173.4834c-1.36912,0.69074 -3.94256,-1.65016 -5.74792,-5.22857c-1.80536,-3.57841 7.11704,4.53783 5.74792,5.22857z" fill="#ff6666" stroke="#000000" stroke-width="0" stroke-linecap="butt"></path><path d="M253.51823,187.77356l-33.69856,-3.15529" fill="none" stroke="#000000" stroke-width="0.5" stroke-linecap="round"></path><path d="M231.10793,185.75843l-6.21783,9.11743l-2.74141,-9.94892z" fill="#ffffff" stroke="#000000" stroke-width="0.5" stroke-linecap="round"></path><path d="M252.2234,187.89609l-5.57718,8.178l-2.45893,-8.92381z" fill="#ffffff" stroke="#000000" stroke-width="0.5" stroke-linecap="round"></path><g stroke="#000000"><path d="M257.19906,171.00453l0.30292,-10.35036c0,0 8.90747,2.2389 13.43998,2.3418c1.202,0.02729 4.239,0.61718 7.21988,-0.93333c3.46326,-1.80141 6.83004,-5.78356 6.83004,-5.78356l0.0514,4.01489c0,0 -0.8422,3.7335 -3.28517,5.70906c-2.05972,1.66565 -5.5832,1.5349 -7.42027,2.3649c-5.08591,2.29782 -17.13878,2.63659 -17.13878,2.63659z" fill="#b058be" stroke-width="0" stroke-linecap="butt"></path><path d="M263.27777,162.20162c0,0 1.89131,1.31691 1.85704,2.48763c-0.04471,1.52764 -2.10239,5.8958 -2.10239,5.8958" fill="none" stroke-width="0.5" stroke-linecap="round"></path><path d="M267.36357,163.07635c0,0 1.80938,1.2491 1.78056,2.23367c-0.03529,1.20585 -1.97684,4.47307 -1.97684,4.47307" fill="none" stroke-width="0.5" stroke-linecap="round"></path><path d="M271.89061,163.20884c0,0 1.79345,1.00583 1.81367,1.71138c0.03066,1.06984 -1.64763,4.083 -1.64763,4.083" fill="none" stroke-width="0.5" stroke-linecap="round"></path><path d="M276.08477,163.24768c0,0 1.34252,0.63692 1.3372,1.21154c-0.00711,0.76707 -1.37604,2.98263 -1.37604,2.98263" fill="none" stroke-width="0.5" stroke-linecap="round"></path><path d="M279.81766,161.84662c0,0 1.12872,0.46946 1.09251,1.20404c-0.03214,0.65196 -1.29902,2.98522 -1.29902,2.98522" fill="none" stroke-width="0.5" stroke-linecap="round"></path><path d="M281.78191,159.69716c0,0 0.88277,-0.46058 1.32313,-0.05443c0.39082,0.36046 1.18814,2.37064 1.18814,2.37064" fill="none" stroke-width="0.5" stroke-linecap="round"></path></g><path d="M241.89384,169.19243c-1.80536,3.57841 -4.37879,5.91931 -5.74792,5.22856c-1.36912,-0.69074 7.55328,-8.80697 5.74792,-5.22856z" data-paper-data="{&quot;index&quot;:null}" fill="#ff6666" stroke="#000000" stroke-width="0" stroke-linecap="butt"></path><g stroke="none" stroke-width="0.5" stroke-linecap="butt"><path d="M250.23276,194.67779c0.07842,0.13574 0.17492,0.4083 -0.1073,0.65678c-0.39548,0.3482 -0.74368,-0.04728 -0.74368,-0.04728c-0.38692,-0.44446 -0.65379,-0.89056 -1.22254,-1.10933c-1.63546,-0.62907 -3.62418,1.04006 -4.88573,1.82597c-0.17344,0.10804 -1.4341,0.8979 -1.4844,0.9049c-1.04865,0.14575 -1.17515,-0.54052 -1.79424,-1.12115c-1.27345,-1.19435 -2.7097,-2.06348 -4.43659,-2.29657c-1.26459,-0.17666 -2.88556,-0.67713 -4.13726,-0.16784c-0.83053,0.33792 -1.6884,0.86931 -2.46384,1.3246c-0.39262,0.23052 -1.89258,1.31314 -2.33335,1.02809c-0.42269,-0.27335 -0.11639,-1.00023 -0.15619,-1.50203c-0.05405,-0.68141 -0.02524,-1.36802 -0.08655,-2.04881c-0.24774,-2.75104 -0.87627,-5.4324 -1.48076,-8.11951c-0.49243,-1.18634 -0.88293,-2.51856 -1.50292,-3.64213c-0.47731,-0.86498 -1.14243,-1.67814 -1.69572,-2.49874l-0.59716,-0.50965c-0.09677,-0.08193 -0.16443,-0.19883 -0.18197,-0.33449c-0.03731,-0.28861 0.1664,-0.55283 0.45502,-0.59014c0.11138,-0.01439 0.21911,0.00709 0.31158,0.05552l0.65683,0.33227c0.54242,-0.05995 1.09663,-0.68804 1.45416,-1.04374c1.66901,-1.66048 2.33454,-4.47592 2.92124,-6.70063c0.00318,-0.01206 0.47341,-2.02649 0.47554,-2.03258c0.1567,-0.44754 0.12385,-1.15296 0.57416,-1.30151c0.47594,-0.157 0.90801,0.4261 1.34707,0.66774c0.46313,0.25488 0.75891,0.74293 1.19214,1.04585c0.50971,0.35639 1.12613,0.52862 1.68215,0.8073c1.51245,-0.27265 3.19111,-0.29413 4.47737,-1.2497c0.88444,-0.65706 1.76794,-1.66151 2.28489,-2.62485c0.23383,-0.43572 0.22067,-1.20784 0.70553,-1.30498c0.49921,-0.10002 0.83158,0.58986 1.21983,0.91921c0.29338,0.24887 1.04281,1.16703 1.2352,1.39566c0.92391,1.09794 1.95285,1.71726 3.16693,2.46025c1.06154,0.64963 2.04726,1.11934 3.28481,1.23637c0.9618,0.10017 1.80765,0.0147 2.74992,-0.08332c0.01363,-0.02279 0.02532,-0.03739 0.03473,-0.04251c0.0882,-0.04803 0.18104,-0.07007 0.27708,-0.07422l-0.0058,-0.04482l0.58339,-0.07542c0.28861,-0.03731 0.55283,0.1664 0.59014,0.45502c0.03329,0.25752 -0.12531,0.49562 -0.36488,0.57044l-0.46001,0.15356c0.09377,0.80059 -0.55985,1.76885 -0.70498,2.53514c-0.21811,1.15158 -0.20595,2.37792 0.00092,3.51721c0.05556,0.30597 0.03166,0.63515 0.15747,0.91953c0.12581,0.28438 0.38497,0.4885 0.57449,0.73504c0.30979,0.40297 0.51469,0.90574 0.91331,1.22109c1.14894,0.90894 2.73228,1.6679 4.07725,2.23225c0.446,0.18714 2.14004,0.6652 2.27677,1.1094c0.12104,0.3932 -0.52144,0.6365 -0.78216,0.95474c-1.44172,1.60097 -1.70032,3.3869 -1.88476,5.46801c-0.13876,1.56561 -0.23142,3.07835 -0.10804,4.64692l0.05725,0.7322c0.02376,0.27939 -0.1767,0.53051 -0.45752,0.56682c-0.13685,0.01769 -0.26822,-0.01881 -0.37251,-0.09286l-0.7001,-0.49355c-0.36489,-0.1825 -0.69061,-0.50949 -1.09727,-0.54225c-0.94004,-0.07573 -1.93214,0.79345 -2.76823,1.12012l-0.61704,0.09529c0,0 -0.04198,0.00543 -0.10368,0.00131zM249.74176,194.08863c0.0286,-0.40159 0.45955,-0.45731 0.45955,-0.45731l0.37024,-0.03235c1.40819,-0.5446 2.57572,-1.64073 4.17423,-0.92156c0.17348,0.07805 0.33548,0.19779 0.47132,0.34293c-0.08888,-1.50246 -0.00048,-2.96299 0.13305,-4.4696c0.20895,-2.35753 0.57542,-4.29744 2.18234,-6.10836c-0.74898,-0.02779 -1.47846,-0.51619 -2.12444,-0.82701c-1.29447,-0.62284 -2.93296,-1.33291 -3.81226,-2.4807c-0.08695,-0.11349 -1.30385,-1.71564 -1.33457,-1.78508c-0.15845,-0.35818 -0.15607,-0.76764 -0.22964,-1.15233c-0.31653,-1.65516 -0.17077,-3.36357 0.32814,-4.97179c0.03643,-0.11741 0.18779,-0.61881 0.35063,-1.11965c-0.81473,0.07845 -1.59157,0.12003 -2.44956,0.03532c-1.76966,-0.18948 -3.12946,-1.01863 -4.62737,-1.93516c-0.7555,-0.46227 -1.16701,-0.65831 -1.81104,-1.28885c-0.60757,-0.59487 -1.44586,-1.47418 -1.90864,-2.19331c-0.11799,-0.18335 -0.02587,-0.69747 -0.22706,-0.61342c-0.21355,0.08922 0.09948,0.47098 0.03556,0.69341c-0.09718,0.33823 -0.29734,0.64242 -0.50167,0.92895c-0.49778,0.69806 -1.45698,1.63244 -2.13574,2.134c-1.50935,1.11529 -3.45693,1.19643 -5.24275,1.43703c-0.1628,-0.07274 -1.95694,-0.86309 -2.13327,-0.985c-0.30128,-0.20828 -0.51311,-0.52379 -0.78851,-0.76525c-0.1242,-0.10889 -0.29288,-0.1633 -0.40685,-0.28284c-0.15208,-0.15949 -0.15955,-0.55965 -0.37919,-0.54159c-0.19007,0.01563 0.10366,0.37588 0.08553,0.56573c-0.03278,0.34331 -0.15711,0.67161 -0.23573,1.0074c-0.2438,1.04134 -0.52073,2.07293 -0.84667,3.09222c-0.62495,1.9544 -1.33477,4.21602 -3.01912,5.5232c-0.21105,0.1638 -0.73228,0.58736 -1.22498,0.81827c0.50058,0.69299 1.0289,1.39571 1.4318,2.12769c0.65009,1.18107 1.06716,2.57604 1.57965,3.82319c0.63094,2.75885 1.27137,5.51741 1.5259,8.34383c0.00106,0.01173 0.09184,2.1555 0.09062,2.16288c-0.03697,0.22381 -0.35137,0.37405 -0.32282,0.59909c0.02509,0.19784 0.18475,-0.36504 0.33603,-0.49497c0.26687,-0.2292 0.5903,-0.38327 0.89374,-0.56125c0.53708,-0.31501 1.09717,-0.58904 1.6473,-0.88067c0.33617,-0.17821 0.65595,-0.39257 1.01017,-0.53151c1.44507,-0.56684 3.15514,-0.08119 4.61836,0.12321c1.66708,0.23979 2.81313,0.88612 4.13486,1.89859c0.54287,0.41584 0.98801,0.94575 1.48743,1.41286c0.07708,0.07209 0.19728,0.14322 0.29719,0.10921c0.41973,-0.14292 0.71635,-0.52411 1.09267,-0.75859c1.59384,-0.99305 3.77396,-2.70868 5.79894,-1.92342c0.60496,0.2346 0.89621,0.51949 1.22659,0.90259z" fill="#a866ff"></path><path d="M249.83167,193.74439c0.0731,0.12652 0.16305,0.38057 -0.10001,0.61219c-0.36863,0.32456 -0.69319,-0.04407 -0.69319,-0.04407c-0.36065,-0.41428 -0.6094,-0.83009 -1.13954,-1.034c-1.52441,-0.58636 -3.37811,0.96945 -4.554,1.70198c-0.16166,0.10071 -1.33673,0.83694 -1.38361,0.84346c-0.97745,0.13585 -1.09536,-0.50382 -1.67241,-1.04502c-1.18698,-1.11325 -2.52571,-1.92337 -4.13535,-2.14063c-1.17873,-0.16466 -2.68964,-0.63115 -3.85635,-0.15645c-0.77413,0.31498 -1.57376,0.81029 -2.29656,1.23467c-0.36597,0.21487 -1.76407,1.22398 -2.17492,0.95829c-0.39399,-0.25479 -0.10849,-0.93231 -0.14559,-1.40005c-0.05038,-0.63514 -0.02353,-1.27513 -0.08068,-1.9097c-0.23092,-2.56426 -0.81677,-5.06355 -1.38022,-7.56822c-0.45899,-1.10578 -0.82298,-2.34755 -1.40088,-3.39484c-0.44489,-0.80625 -1.06485,-1.56419 -1.58058,-2.32908l-0.55662,-0.47504c-0.0902,-0.07637 -0.15327,-0.18533 -0.16961,-0.31178c-0.03478,-0.26901 0.15511,-0.5153 0.42413,-0.55007c0.10381,-0.01342 0.20424,0.00662 0.29043,0.05174l0.61224,0.30971c0.50558,-0.05587 1.02217,-0.64132 1.35543,-0.97288c1.55569,-1.54773 2.17602,-4.17202 2.7229,-6.24567c0.00297,-0.01124 0.44127,-1.88889 0.44326,-1.89457c0.14606,-0.41715 0.11544,-1.07468 0.53517,-1.21314c0.44362,-0.14634 0.84636,0.39717 1.25561,0.6224c0.43168,0.23757 0.70738,0.69249 1.1112,0.97484c0.4751,0.33219 1.04968,0.49273 1.56794,0.75248c1.40976,-0.25413 2.97444,-0.27416 4.17337,-1.16485c0.82438,-0.61245 1.6479,-1.5487 2.12976,-2.44662c0.21795,-0.40614 0.20568,-1.12583 0.65762,-1.21638c0.46531,-0.09323 0.77511,0.54981 1.13701,0.8568c0.27346,0.23197 0.97201,1.08779 1.15133,1.30089c0.86118,1.02338 1.82026,1.60066 2.9519,2.29319c0.98946,0.60552 1.90827,1.04333 3.06178,1.15243c0.89649,0.09337 1.68491,0.0137 2.5632,-0.07766c0.01271,-0.02124 0.0236,-0.03485 0.03237,-0.03962c0.08222,-0.04477 0.16875,-0.06531 0.25826,-0.06918l-0.0054,-0.04178l0.54378,-0.0703c0.26901,-0.03478 0.5153,0.15511 0.55007,0.42413c0.03103,0.24003 -0.1168,0.46196 -0.34011,0.5317l-0.42878,0.14313c0.08741,0.74623 -0.52183,1.64874 -0.65712,2.36301c-0.2033,1.07339 -0.19197,2.21647 0.00086,3.27839c0.05179,0.28519 0.02951,0.59202 0.14677,0.85709c0.11727,0.26508 0.35883,0.45533 0.53548,0.68513c0.28875,0.37561 0.47974,0.84423 0.8513,1.13818c1.07093,0.84722 2.54676,1.55466 3.80041,2.08069c0.41571,0.17443 1.99473,0.62003 2.12218,1.03407c0.11283,0.36651 -0.48603,0.59328 -0.72906,0.88992c-1.34383,1.49227 -1.58487,3.15694 -1.7568,5.09675c-0.12934,1.45931 -0.2157,2.86933 -0.10069,4.3314l0.05336,0.68249c0.02214,0.26042 -0.1647,0.49449 -0.42645,0.52834c-0.12756,0.01649 -0.25001,-0.01753 -0.34721,-0.08656l-0.65257,-0.46003c-0.34011,-0.17011 -0.64372,-0.4749 -1.02277,-0.50544c-0.87621,-0.07059 -1.80096,0.73958 -2.58027,1.04408l-0.57514,0.08882c0,0 -0.03913,0.00506 -0.09664,0.00122zM249.37401,193.19523c0.02666,-0.37433 0.42836,-0.42626 0.42836,-0.42626l0.3451,-0.03015c1.31258,-0.50761 2.40083,-1.52933 3.89081,-0.85899c0.1617,0.07275 0.31269,0.18436 0.43932,0.31964c-0.08285,-1.40044 -0.00045,-2.76181 0.12402,-4.16612c0.19477,-2.19747 0.53635,-4.00564 2.03416,-5.69362c-0.69812,-0.0259 -1.37807,-0.48115 -1.98019,-0.77086c-1.20658,-0.58054 -2.73381,-1.24241 -3.55341,-2.31227c-0.08104,-0.10579 -1.21532,-1.59915 -1.24395,-1.66387c-0.14769,-0.33385 -0.14547,-0.71551 -0.21405,-1.07409c-0.29505,-1.54276 -0.15918,-3.13519 0.30587,-4.63421c0.03395,-0.10945 0.17504,-0.5768 0.32682,-1.04364c-0.75941,0.07312 -1.48351,0.11188 -2.28324,0.03292c-1.64951,-0.17661 -2.91698,-0.94947 -4.31318,-1.80376c-0.7042,-0.43088 -1.08777,-0.61361 -1.68807,-1.20134c-0.56632,-0.55447 -1.34768,-1.37409 -1.77905,-2.0444c-0.10998,-0.1709 -0.02411,-0.65011 -0.21164,-0.57177c-0.19905,0.08315 0.09272,0.43899 0.03315,0.64634c-0.09057,0.31527 -0.27715,0.59879 -0.4676,0.86587c-0.46398,0.65066 -1.35805,1.52161 -1.99072,1.9891c-1.40687,1.03957 -3.22221,1.1152 -4.88678,1.33946c-0.15174,-0.0678 -1.82407,-0.8045 -1.98842,-0.91812c-0.28082,-0.19414 -0.47828,-0.48823 -0.73497,-0.7133c-0.11575,-0.10149 -0.27299,-0.15221 -0.37922,-0.26363c-0.14175,-0.14867 -0.14872,-0.52165 -0.35344,-0.50482c-0.17717,0.01457 0.09662,0.35035 0.07973,0.52732c-0.03055,0.32 -0.14644,0.62601 -0.21972,0.939c-0.22725,0.97063 -0.48537,1.93218 -0.78917,2.88226c-0.58251,1.8217 -1.24414,3.92976 -2.81413,5.14818c-0.19673,0.15267 -0.68256,0.54748 -1.14181,0.76272c0.4666,0.64595 0.95904,1.30094 1.33458,1.98322c0.60595,1.10088 0.9947,2.40114 1.47239,3.5636c0.58809,2.57154 1.18504,5.14279 1.42229,7.77731c0.00098,0.01093 0.0856,2.00914 0.08447,2.01603c-0.03446,0.20862 -0.32752,0.34865 -0.30091,0.55841c0.02339,0.18441 0.17221,-0.34025 0.31322,-0.46136c0.24875,-0.21364 0.55022,-0.35725 0.83306,-0.52314c0.50061,-0.29362 1.02267,-0.54904 1.53545,-0.82088c0.31334,-0.16611 0.61142,-0.36591 0.94157,-0.49542c1.34695,-0.52836 2.94092,-0.07568 4.30478,0.11484c1.5539,0.22351 2.62212,0.82597 3.85411,1.76968c0.50601,0.38761 0.92093,0.88153 1.38644,1.31693c0.07184,0.0672 0.18388,0.1335 0.277,0.10179c0.39123,-0.13321 0.66771,-0.48853 1.01848,-0.70709c1.48562,-0.92562 3.51772,-2.52477 5.4052,-1.79282c0.56389,0.21867 0.83536,0.48421 1.1433,0.8413z" fill="#ffffff"></path></g></g></g></svg>