<svg version="1.1" xmlns="http://www.w3.org/2000/svg" xmlns:xlink="http://www.w3.org/1999/xlink" width="196.28382" height="80.5" viewBox="0,0,196.28382,80.5"><g transform="translate(-200.95088,-140.3707)"><g data-paper-data="{&quot;isPaintingLayer&quot;:true}" fill-rule="nonzero" stroke-linejoin="miter" stroke-miterlimit="10" stroke-dasharray="" stroke-dashoffset="0" style="mix-blend-mode: normal"><path d="" data-paper-data="{&quot;index&quot;:null}" fill="none" stroke="#000000" stroke-width="1.5" stroke-linecap="round"></path><path d="M289.92393,195.47554" data-paper-data="{&quot;index&quot;:null}" fill="none" stroke="#d8d8d8" stroke-width="4" stroke-linecap="round"></path><path d="M241.20088,220.1207c-21.81525,0 -39.5,-17.68475 -39.5,-39.5c0,-21.81525 17.68475,-39.5 39.5,-39.5c21.81525,0 39.5,17.68475 39.5,39.5c0,21.81525 -17.68475,39.5 -39.5,39.5z" fill="#d8d8d8" stroke="#000000" stroke-width="1.5" stroke-linecap="butt"></path><path d="M226.36716,169.6083l14.03116,4.59202" fill="none" stroke="#000000" stroke-width="1.5" stroke-linecap="round"></path><path d="M228.19225,178.95914l-0.25511,-5.86758" fill="none" stroke="#000000" stroke-width="1.5" stroke-linecap="round"></path><path d="M243.71478,173.69009l7.65337,-3.82668" fill="none" stroke="#000000" stroke-width="1.5" stroke-linecap="round"></path><path d="M246.28352,178.41109l0.21988,-5.35892" fill="none" stroke="#000000" stroke-width="1.5" stroke-linecap="round"></path><path d="M229.62579,192.95291l25.16666,2.30233l-24.96157,-0.52657" fill="none" stroke="#000000" stroke-width="3" stroke-linecap="round"></path><g stroke="#000000" stroke-linecap="butt"><path d="M248.83039,192.52501l-30.59499,-3.51854c0,0 -4.27096,-2.74145 -3.92678,-3.80779c0.3448,-1.06826 5.99371,-2.59597 5.99371,-2.59597l30.59499,3.51854z" fill="#af5400" stroke-width="1.5"></path><path d="M252.39474,201.30345c0,0 -8.26773,0.77592 -11.08338,-1.6345c-3.29848,-2.82373 -1.4654,-8.23524 -0.44676,-11.81516c1.88805,-6.63585 7.00351,-11.75644 11.42567,-11.43717c2.05472,0.14834 8.06245,2.04767 8.06245,2.04767c0,0 -2.46327,6.99314 -3.47409,10.54569c-1.88805,6.63585 -4.48393,12.29345 -4.48393,12.29345z" fill="#989898" stroke-width="1"></path><path d="M252.58682,201.7396c-4.42215,-0.31927 -6.47648,-5.95753 -4.58842,-12.59338c1.88807,-6.63584 7.00351,-11.75644 11.42564,-11.43717c4.42215,0.31927 6.47648,5.95753 4.5884,12.59335c-1.88807,6.63584 -7.00352,11.75643 -11.42564,11.43717z" fill="#989898" stroke-width="1"></path><path d="M255.63187,186.43135l139.81139,18.60682l-21.07079,3.13505l-120.85391,-16.08385c0,0 -1.89861,-1.95603 -1.55057,-2.88774c0.35625,-0.95375 3.66391,-2.77029 3.66391,-2.77029z" fill="#e6e6e6" stroke-width="0.5"></path></g></g></g></svg>