<svg version="1.1" xmlns="http://www.w3.org/2000/svg" xmlns:xlink="http://www.w3.org/1999/xlink" width="148.20363" height="129.72519" viewBox="0,0,148.20363,129.72519"><g transform="translate(-166.68771,-48.0776)"><g stroke-linecap="round" stroke-miterlimit="10"><path d="" fill="none" stroke="#000000" stroke-width="1.5"/><path d="" fill="none" stroke="#000000" stroke-width="1.5"/><path d="M243.09668,135.95972l12.24539,-0.67536l-8.03606,2.70148l22.96015,3.60197l-19.51613,0.9005l8.80137,3.82709l-15.30674,-2.92661l-4.97471,18.91036l-6.50537,-18.91036l-14.54143,2.47636l8.03606,-3.82711l-18.75079,-1.35073l19.51611,-2.92661l-7.27071,-2.47634l13.39344,0.67536l2.02223,-34.96782l1.53066,6.75369l1.14802,-15.08325l1.91333,15.08325l1.14799,-6.75369z" fill="#ffeaea" stroke="#ff1f1f" stroke-width="9"/><path d="M242.53674,136.36059l12.24539,-0.67536l-8.03606,2.70148l22.96015,3.60197l-19.51613,0.9005l8.80137,3.82709l-15.30674,-2.92661l-4.97471,18.91036l-6.50537,-18.91036l-14.54143,2.47636l8.03606,-3.82711l-18.75079,-1.35073l19.51611,-2.92661l-7.27071,-2.47634l13.39344,0.67536l2.02223,-34.96782l1.53066,6.75369l1.14802,-15.08325l1.91333,15.08325l1.14799,-6.75369z" fill="#ffeaea" stroke="#ff6c6c" stroke-width="6.5"/><path d="M241.97679,136.76147l12.24539,-0.67536l-8.03606,2.70148l22.96015,3.60197l-19.51613,0.9005l8.80137,3.82709l-15.30674,-2.92661l-4.97471,18.91036l-6.50537,-18.91036l-14.54143,2.47636l8.03606,-3.82711l-18.75079,-1.35073l19.51611,-2.92661l-7.27071,-2.47634l13.39344,0.67536l2.02223,-34.96782l1.53066,6.75369l1.14802,-15.08325l1.91333,15.08325l1.14799,-6.75369z" fill="#ffeaea" stroke="#ff8484" stroke-width="5"/><path d="M242.5267,138.55829l12.24539,-0.67537l-8.03606,2.70148l22.96015,3.60198l-19.51611,0.90048l8.80137,3.82709l-15.30677,-2.92659l-4.97471,18.91036l-6.50537,-18.91036l-14.54143,2.47636l8.03606,-3.82711l-18.75079,-1.35073l19.51611,-2.92661l-7.27071,-2.47634l13.39344,0.67537l2.02223,-34.96783l1.53066,6.75369l1.14802,-15.08325l1.91333,15.08325l1.14799,-6.75369z" fill="#ffeaea" stroke="#ffa4a4" stroke-width="3.5"/><path d="M243.07657,139.17645l12.24539,-0.67537l-8.03606,2.70148l22.96015,3.60198l-19.51613,0.90048l8.80137,3.82709l-15.30677,-2.92659l-4.97471,18.91036l-6.50537,-18.91036l-14.54143,2.47636l8.03606,-3.82711l-18.75079,-1.35073l19.51611,-2.92661l-7.27071,-2.47634l13.39344,0.67537l2.02223,-34.96783l1.53066,6.75369l1.14802,-15.08325l1.91333,15.08325l1.14799,-6.75369z" fill="#ffeaea" stroke="#ffcdcd" stroke-width="2"/><path d="M243.12561,139.7946l12.24539,-0.67537l-8.03606,2.70148l22.96015,3.60197l-19.51613,0.90048l8.80137,3.82711l-15.30677,-2.92661l-4.97468,18.91036l-6.5054,-18.91036l-14.54143,2.47636l8.03606,-3.82709l-18.75079,-1.35073l19.51611,-2.92661l-7.27071,-2.47636l13.39341,0.67537l2.02223,-34.96783l1.53066,6.7537l1.14802,-15.08326l1.91333,15.08326l1.14802,-6.7537z" fill="#ffffff" stroke="#ffffff" stroke-width="0.5"/></g></g></svg>