<svg version="1.1" xmlns="http://www.w3.org/2000/svg" xmlns:xlink="http://www.w3.org/1999/xlink" width="638.18504" height="491.1378" viewBox="0,0,638.18504,491.1378"><g transform="translate(79.09252,65.5689)"><g data-paper-data="{&quot;isPaintingLayer&quot;:true}" fill-rule="nonzero" stroke-linejoin="miter" stroke-miterlimit="10" stroke-dasharray="" stroke-dashoffset="0" style="mix-blend-mode: normal"><path d="" data-paper-data="{&quot;index&quot;:null}" fill="#00c1ff" stroke="none" stroke-width="0.5" stroke-linecap="butt"></path><path d="" data-paper-data="{&quot;index&quot;:null}" fill="none" stroke="#000000" stroke-width="1.5" stroke-linecap="round"></path><path d="" data-paper-data="{&quot;index&quot;:null}" fill="none" stroke="#000000" stroke-width="1.5" stroke-linecap="round"></path><path d="" data-paper-data="{&quot;index&quot;:null}" fill="none" stroke="#000000" stroke-width="1.5" stroke-linecap="round"></path><path d="" data-paper-data="{&quot;index&quot;:null}" fill="none" stroke="#000000" stroke-width="1.5" stroke-linecap="round"></path><path d="" data-paper-data="{&quot;index&quot;:null}" fill="none" stroke="#000000" stroke-width="1.5" stroke-linecap="round"></path><path d="M-79.09252,425.5689v-491.1378h638.18504v491.1378z" fill="#989898" stroke="none" stroke-width="0" stroke-linecap="butt"></path><text transform="translate(129.18421,73.70955) scale(1.64843,1.64843)" font-size="40" xml:space="preserve" fill="#000000" fill-rule="nonzero" stroke="none" stroke-width="1" stroke-linecap="butt" stroke-linejoin="miter" stroke-miterlimit="10" stroke-dasharray="" stroke-dashoffset="0" font-family="Sans Serif" font-weight="normal" text-anchor="start" style="mix-blend-mode: normal"><tspan x="0" dy="0">REAPER</tspan></text><path d="M214.11375,206.90468l21.11521,2.34613v18.76908" fill="none" stroke="#000000" stroke-width="1.5" stroke-linecap="round"></path><path d="M250.33844,227.58205v-18.76908l21.11521,-2.34613" data-paper-data="{&quot;index&quot;:null}" fill="none" stroke="#000000" stroke-width="1.5" stroke-linecap="round"></path><path d="M246.71115,282.41464c0,0 0.80824,-20.20031 13.57539,-21.19c12.44559,-0.96478 29.24156,18.84387 29.24156,18.84387z" fill="#040404" stroke="#000000" stroke-width="1.5" stroke-linecap="round"></path><path d="M175.73697,219.62343c0,-42.67811 40.57604,-77.27557 90.62913,-77.27557c50.05309,0 90.62913,34.59746 90.62913,77.27557c0,26.33975 -5.82339,58.35798 -29.4235,72.30824c-0.98547,0.58252 -12.47071,6.82718 -12.47071,6.82718l-0.52678,29.91706l-29.50982,1.32395l-1.18543,-32.66302l0.16336,32.43439l-33.64361,0.48044l-1.9941,-33.28238l1.89596,32.53586l-37.94797,1.16394c0,0 0.26718,-36.12055 -0.67517,-36.24806c-6.15588,-0.83288 -4.74191,-0.00232 -9.07095,-2.19673c-26.57424,-13.47073 -26.86953,-44.32732 -26.86953,-72.60087z" fill="#ffffff" stroke="#000000" stroke-width="2" stroke-linecap="butt"></path><path d="M258.48532,219.18561c0,13.90364 -7.74278,25.17475 -17.29397,25.17475c-9.55118,0 -17.29397,-11.27113 -17.29397,-25.17475c0,-13.90364 -2.32713,-26.0504 7.22405,-26.0504c7.56014,0 25.27789,17.67847 25.27789,17.67847c0,0 2.086,5.47355 2.086,8.37192z" fill="#ababab" stroke="#000000" stroke-width="1" stroke-linecap="butt"></path><path d="M276.8682,213.3501c0,0 17.71773,-17.6785 25.27789,-17.6785c9.55118,0 7.22405,12.14678 7.22405,26.0504c0,13.90364 -7.74276,25.17477 -17.29397,25.17477c-9.55118,0 -17.29397,-11.27113 -17.29397,-25.17477c0,-2.89837 2.086,-8.37192 2.086,-8.37192z" data-paper-data="{&quot;index&quot;:null}" fill="#ababab" stroke="#000000" stroke-width="1" stroke-linecap="butt"></path><path d="" data-paper-data="{&quot;index&quot;:null}" fill="none" stroke="#000000" stroke-width="1.5" stroke-linecap="round"></path><path d="" data-paper-data="{&quot;index&quot;:null}" fill="none" stroke="#000000" stroke-width="1.5" stroke-linecap="round"></path><path d="" data-paper-data="{&quot;index&quot;:null}" fill="none" stroke="#000000" stroke-width="1.5" stroke-linecap="round"></path><path d="" data-paper-data="{&quot;index&quot;:null}" fill="none" stroke="#000000" stroke-width="1.5" stroke-linecap="round"></path><path d="" data-paper-data="{&quot;index&quot;:null}" fill="none" stroke="#000000" stroke-width="1.5" stroke-linecap="round"></path><path d="" data-paper-data="{&quot;index&quot;:null}" fill="none" stroke="#000000" stroke-width="1.5" stroke-linecap="round"></path><path d="" data-paper-data="{&quot;index&quot;:null}" fill="none" stroke="#000000" stroke-width="1.5" stroke-linecap="round"></path><path d="" data-paper-data="{&quot;index&quot;:null}" fill="none" stroke="#000000" stroke-width="1.5" stroke-linecap="round"></path><path d="" data-paper-data="{&quot;index&quot;:null}" fill="none" stroke="#000000" stroke-width="1.5" stroke-linecap="round"></path><path d="" data-paper-data="{&quot;index&quot;:null}" fill="none" stroke="#000000" stroke-width="1.5" stroke-linecap="round"></path><g stroke-width="0" stroke-linecap="butt"><path d="M397.22846,270.84525l-290.232,10.42949l-0.48136,-13.39533l290.23196,-10.42945z" fill="#827253" stroke="#000000"></path><path d="M139.59675,299.88986l-5.94427,12.78602l-14.19149,-8.57115l-37.14789,-203.99075l22.9628,-20.0745l26.41628,11.95909z" fill="#4950c5" stroke="none"></path><path d="M165.67033,288.79803l-6.15266,9.08291l-9.83629,-8.34477l-3.21331,-161.29125l20.12877,-12.56865l18.80541,12.46425z" fill="#4950c5" stroke="none"></path><path d="M119.59161,266.75584l0.51932,17.76797l-23.88084,0.03596l-0.51932,-17.76797z" fill="#4950c5" stroke="none"></path><path d="M396.55328,246.6254l2.16142,-3.19076l3.45551,2.9315l1.12884,56.66166l-7.07124,4.41537l-6.60636,-4.3787z" fill="#4950c5" stroke="none"></path></g></g></g></svg>