<svg version="1.1" xmlns="http://www.w3.org/2000/svg" xmlns:xlink="http://www.w3.org/1999/xlink" width="88.97305" height="81.81557" viewBox="0,0,88.97305,81.81557"><defs><linearGradient x1="271.133" y1="185.79154" x2="249.4154" y2="217.57007" gradientUnits="userSpaceOnUse" id="color-1"><stop offset="0" stop-color="#906e40"></stop><stop offset="1" stop-color="#bd9055"></stop></linearGradient></defs><g transform="translate(-200.95087,-140.3707)"><g data-paper-data="{&quot;isPaintingLayer&quot;:true}" fill-rule="nonzero" stroke-linejoin="miter" stroke-miterlimit="10" stroke-dasharray="" stroke-dashoffset="0" style="mix-blend-mode: normal"><path d="" data-paper-data="{&quot;index&quot;:null}" fill="none" stroke="#000000" stroke-width="1.5" stroke-linecap="round"></path><path d="" data-paper-data="{&quot;index&quot;:null}" fill="none" stroke="#000000" stroke-width="1.5" stroke-linecap="round"></path><path d="" data-paper-data="{&quot;index&quot;:null}" fill="none" stroke="#000000" stroke-width="1.5" stroke-linecap="round"></path><path d="M289.92393,195.47554" data-paper-data="{&quot;index&quot;:null}" fill="none" stroke="#d8d8d8" stroke-width="4" stroke-linecap="round"></path><path d="M241.20088,220.1207c-21.81525,0 -39.5,-17.68475 -39.5,-39.5c0,-21.81525 17.68475,-39.5 39.5,-39.5c21.81525,0 39.5,17.68475 39.5,39.5c0,21.81525 -17.68475,39.5 -39.5,39.5z" fill="#d8d8d8" stroke="#000000" stroke-width="1.5" stroke-linecap="butt"></path><path d="M207.33595,203.67084c0,0 4.29771,-17.83605 17.34061,-17.83605c13.0429,0 17.67091,18.82695 17.67091,18.82695z" data-paper-data="{&quot;index&quot;:null}" fill="#000000" stroke="#000000" stroke-width="0" stroke-linecap="butt"></path><path d="M218.70918,165.33433l17.15344,6.06646" fill="none" stroke="#000000" stroke-width="1.5" stroke-linecap="round"></path><path d="M231.67886,172.86511l0.20919,7.1124" fill="none" stroke="#000000" stroke-width="1.5" stroke-linecap="round"></path><path d="M240.25558,169.93648l10.87779,-5.22971" fill="none" stroke="#000000" stroke-width="1.5" stroke-linecap="round"></path><path d="M242.34746,172.65592l-0.20919,6.69403" fill="none" stroke="#000000" stroke-width="1.5" stroke-linecap="round"></path><path d="M263.68466,161.15057c0,0 1.50418,6.67173 0.29966,8.08882c-1.16496,1.37054 -7.41207,0.27872 -7.41207,0.27872" fill="none" stroke="#ff0000" stroke-width="3" stroke-linecap="round"></path><path d="M269.12356,161.98732c0,0 -0.19464,6.86991 1.63646,8.5889c1.53204,1.43824 8.61377,1.03376 8.61377,1.03376" fill="none" stroke="#ff0000" stroke-width="3" stroke-linecap="round"></path><path d="M258.45496,173.91105c0,0 5.33291,0.0324 6.42032,1.08472c1.07405,1.0394 0.06452,5.19093 0.06452,5.19093" fill="none" stroke="#ff0000" stroke-width="3" stroke-linecap="round"></path><path d="M278.11866,175.58456c0,0 -6.75078,-0.98919 -8.05375,0.31378c-1.19856,1.19856 0.52297,7.217 0.52297,7.217" fill="none" stroke="#ff0000" stroke-width="3" stroke-linecap="round"></path><g stroke="none" stroke-width="0" stroke-linecap="butt"><path d="M214.71852,184.73666l31.43312,21.48154l-3.77697,5.5267l-31.43312,-21.48154z" fill="#b1b1b1"></path><path d="M213.82366,176.77733l5.35399,3.65894l-10.03259,14.6803l-5.35399,-3.65894z" fill="#909090"></path><path d="M257.4026,176.40811l27.22474,19.11226l-27.34499,26.66589l-16.07065,-10.22264z" fill="url(#color-1)"></path><path d="M262.50848,191.5526l4.83586,3.30485l-14.63578,21.41597l-4.83586,-3.30485z" fill="#a9a9a9"></path></g></g></g></svg>