<svg version="1.1" xmlns="http://www.w3.org/2000/svg" xmlns:xlink="http://www.w3.org/1999/xlink" width="118.11935" height="80.5" viewBox="0,0,118.11935,80.5"><g transform="translate(-181.18649,-138.16295)"><g data-paper-data="{&quot;isPaintingLayer&quot;:true}" fill-rule="nonzero" stroke-linecap="butt" stroke-linejoin="miter" stroke-miterlimit="10" stroke-dasharray="" stroke-dashoffset="0" style="mix-blend-mode: normal"><path d="M279.2518,202.4303c0,-5.33066 4.32135,-9.65202 9.65201,-9.65202c5.33066,0 9.65202,4.32136 9.65202,9.65202c0,5.33066 -4.32136,9.65202 -9.65202,9.65202c-5.33066,0 -9.65201,-4.32136 -9.65201,-9.65202z" fill="#000000" stroke="#000000" stroke-width="1.5"></path><path d="M238.98851,217.91295c-21.81525,0 -39.5,-17.68475 -39.5,-39.5c0,-21.81525 17.68475,-39.5 39.5,-39.5c21.81525,0 39.5,17.68475 39.5,39.5c0,21.81525 -17.68475,39.5 -39.5,39.5z" data-paper-data="{&quot;index&quot;:null}" fill="#000000" stroke="#000000" stroke-width="1.5"></path><g data-paper-data="{&quot;index&quot;:null}" stroke="none" stroke-width="0"><path d="M261.96026,161.04941c7.45315,0 13.49512,5.141 13.49512,5.141c0,0 -6.04197,5.141 -13.49512,5.141c-7.45315,0 -13.49512,-5.141 -13.49512,-5.141c0,0 6.04197,-5.141 13.49512,-5.141z" fill="#ffffff"></path><path d="M262.60287,171.33141c-2.8393,0 -5.141,-2.30171 -5.141,-5.141c0,-2.8393 2.30171,-5.141 5.141,-5.141c2.8393,0 5.141,2.30171 5.141,5.141c0,2.8393 -2.30171,5.141 -5.141,5.141z" fill="#000000"></path></g><g data-paper-data="{&quot;index&quot;:null}" stroke="none" stroke-width="0"><path d="M231.32782,160.78321c7.45315,0 13.49512,5.141 13.49512,5.141c0,0 -6.04197,5.141 -13.49512,5.141c-7.45315,0 -13.49512,-5.141 -13.49512,-5.141c0,0 6.04197,-5.141 13.49512,-5.141z" fill="#ffffff"></path><path d="M231.97044,171.06521c-2.8393,0 -5.141,-2.30171 -5.141,-5.141c0,-2.83929 2.30171,-5.141 5.141,-5.141c2.8393,0 5.141,2.30171 5.141,5.141c0,2.8393 -2.30171,5.141 -5.141,5.141z" fill="#000000"></path></g><path d="M181.93649,202.01739c0,-5.33066 4.32135,-9.65202 9.65202,-9.65202c5.33066,0 9.65202,4.32135 9.65202,9.65202c0,5.33066 -4.32135,9.65202 -9.65202,9.65202c-5.33066,0 -9.65202,-4.32135 -9.65202,-9.65202z" fill="#000000" stroke="#000000" stroke-width="1.5"></path></g></g></svg>