<svg version="1.1" xmlns="http://www.w3.org/2000/svg" xmlns:xlink="http://www.w3.org/1999/xlink" width="120.28969" height="80.5" viewBox="0,0,120.28969,80.5"><g transform="translate(-195.95152,-139.75)"><g data-paper-data="{&quot;isPaintingLayer&quot;:true}" fill-rule="nonzero" stroke-linejoin="miter" stroke-miterlimit="10" stroke-dasharray="" stroke-dashoffset="0" style="mix-blend-mode: normal"><path d="" data-paper-data="{&quot;index&quot;:null}" fill="none" stroke="#000000" stroke-width="1.5" stroke-linecap="round"></path><path d="" data-paper-data="{&quot;index&quot;:null}" fill="none" stroke="#000000" stroke-width="1.5" stroke-linecap="round"></path><path d="" data-paper-data="{&quot;index&quot;:null}" fill="none" stroke="#000000" stroke-width="1.5" stroke-linecap="round"></path><path d="" data-paper-data="{&quot;index&quot;:null}" fill="none" stroke="#000000" stroke-width="1.5" stroke-linecap="round"></path><path d="" data-paper-data="{&quot;index&quot;:null}" fill="none" stroke="#000000" stroke-width="1.5" stroke-linecap="round"></path><path d="" data-paper-data="{&quot;index&quot;:null}" fill="none" stroke="#000000" stroke-width="1.5" stroke-linecap="round"></path><path d="M200.50004,180c0,-21.81525 17.68475,-39.5 39.5,-39.5c21.81525,0 39.5,17.68475 39.5,39.5c0,21.81525 -17.68475,39.5 -39.5,39.5c-21.81525,0 -39.5,-17.68475 -39.5,-39.5z" fill="#6e6e6e" stroke="#000000" stroke-width="1.5" stroke-linecap="butt"></path><path d="M202.85559,181.6599c0,0 -2.28148,-3.48635 -2.28148,-5.83045c0,-2.68059 2.28148,-9.37942 2.28148,-9.37942c0,0 25.76053,3.29547 38.0247,3.29547c12.45976,0 36.15636,-3.29547 36.15636,-3.29547c0,0 0.32325,0.8142 0.73295,2.06366c1.27619,3.89191 3.39127,12.00691 -0.81086,12.89272c-2.60416,0.54896 -18.81959,2.66663 -35.57172,2.60715c-18.95763,-0.06731 -38.53144,-2.35365 -38.53144,-2.35365z" fill="#d0d0d0" stroke="#000000" stroke-width="0" stroke-linecap="butt"></path><path d="M220.2872,168.69041l16.34335,9.20811" fill="none" stroke="#000000" stroke-width="1.5" stroke-linecap="round"></path><path d="M228.71238,178.36443l0.2535,-3.54897" fill="none" stroke="#000000" stroke-width="1.5" stroke-linecap="round"></path><path d="M259.27027,170.152l-13.96519,6.03143" fill="none" stroke="#000000" stroke-width="1.5" stroke-linecap="round"></path><path d="M251.52719,174.05496v5.06996" fill="none" stroke="#000000" stroke-width="1.5" stroke-linecap="round"></path><path d="M249.24957,207.22631c-0.80329,0.34647 -1.648,0.16428 -1.648,0.16428l-2.85039,-0.61479c-1.15119,-0.22375 -2.02025,-1.23739 -2.02025,-2.45401c0,-1.38071 1.11929,-2.5 2.5,-2.5c0.10088,0 0.20037,0.00598 0.29813,0.01759l3.72917,0.39487c6.60444,-0.08359 12.92374,-0.49919 19.48503,-1.26948c0.0636,-0.00747 0.12728,-0.01542 0.19104,-0.02383c-0.61334,-0.31641 -1.21347,-0.65246 -1.81222,-1.01357l-0.17747,0.39394l-3.65579,-1.64687c-4.69698,0.43535 -9.38657,0.93711 -14.05899,1.41137c-5.71698,0.58029 -13.40807,2.78479 -19.0495,1.22679l-4.96154,-0.39534c-1.29863,-0.09027 -2.32409,-1.17233 -2.32409,-2.49391c0,-1.25865 0.93013,-2.30005 2.14053,-2.47435l4.89612,-0.79197l0.00342,0.02115l0.06602,-0.03139c0.54851,-0.05748 1.09694,-0.11446 1.64529,-0.17095c-0.00005,-0.00582 -0.00008,-0.01165 -0.00009,-0.01748c-0.05851,-0.02022 -0.11673,-0.04186 -0.17464,-0.06501c-0.15551,-0.06216 -0.3078,-0.12996 -0.4572,-0.20281l-0.02194,0.05074l-3.65783,-1.58131c-0.91526,-0.3713 -1.56074,-1.26905 -1.56074,-2.31756c0,-1.05907 0.65854,-1.96432 1.58847,-2.32862c-3.06795,-0.14662 -6.20434,0.10561 -9.1597,-0.69705l-4.9646,-0.37156c-0.8621,-0.05621 -1.605,-0.54941 -2.00939,-1.26027c-4.30788,-0.28156 -8.61647,-0.56411 -12.92679,-0.82652c0,0 -2.49538,-0.15192 -2.34346,-2.6473c0.15192,-2.49538 2.6473,-2.34346 2.6473,-2.34346c19.17853,1.1676 38.32399,2.74258 57.52438,2.83014c2.13877,-0.26875 4.28669,-0.60445 6.33432,-0.20529c0.21885,-0.01563 0.43759,-0.03109 0.6562,-0.04637l4.05787,-0.28353c0.06583,-0.0052 0.13237,-0.00785 0.19953,-0.00785c0.54197,0 1.04366,0.17246 1.45319,0.4655c0.27304,0.05222 0.53031,0.14886 0.764,0.2821l1.39048,-0.00933c0.40735,-0.41011 0.95595,-0.67975 1.56675,-0.72982l4.95219,-0.4637c4.11305,-1.21882 9.39831,-1.20115 13.66757,-1.84805c6.31225,-0.95646 12.42803,-1.81975 18.81653,-2.01076l0.01666,0.00544l-0.00009,-0.00576l3.68855,-0.06027c0.01583,-0.0003 0.03169,-0.00044 0.04759,-0.00044c1.38071,0 2.5,1.11929 2.5,2.5c0,1.13223 -0.75266,2.08866 -1.78494,2.39624l-4.70269,1.52151l-0.00511,-0.01579c-0.03148,0.01537 -0.06303,0.03063 -0.09465,0.04578c-1.53436,0.73515 -3.31301,0.77637 -4.96973,1.16362c-1.07028,0.25018 -2.13983,0.4783 -3.20945,0.69116c-0.25964,1.06523 -1.20174,1.86313 -2.33687,1.90424l-1.8843,0.07903c1.01933,0.51635 2.0225,1.06283 3.00547,1.63161l0.13609,-0.36873l4.636,1.71102c0.9827,0.33678 1.68912,1.26867 1.68912,2.36556c0,1.38071 -1.11929,2.5 -2.5,2.5c-0.02959,0 -0.05905,-0.00051 -0.08839,-0.00153l-2.68793,-0.08199c0.06627,0.22465 0.10184,0.46246 0.10184,0.70857c0,1.38071 -1.11929,2.5 -2.5,2.5c-0.01036,0 -0.0207,-0.00006 -0.03103,-0.00019l-3.27774,-0.03485l0.00013,-0.01225l-0.0302,0.01175c-5.91518,-0.2051 -11.97148,-0.03173 -17.91605,-0.51211c0.0583,0.01722 0.11671,0.03408 0.17522,0.05057l4.7752,1.1614c1.1208,0.24709 1.95933,1.24631 1.95933,2.44138c0,1.36036 -1.08654,2.46695 -2.43913,2.49927l-4.98953,0.13859l-0.01195,-0.43027c-9.14641,1.91 -18.66242,2.27774 -28.01034,2.38304zM285.2206,189.50451c-1.06332,0.22236 -2.1235,0.4548 -3.18128,0.69561c0.53802,0.07125 1.07222,0.15525 1.60188,0.2534c1.1093,0.02482 2.21865,0.05113 3.32807,0.07906l1.45474,0.01778c-1.06439,-0.45395 -2.13099,-0.83064 -3.20341,-1.04584zM254.86515,190.07124c2.60217,0.01764 5.204,0.03805 7.80566,0.0627l1.62345,-0.5522l0.00883,0.02595l0.0702,-0.05137c1.13259,-0.30337 2.26415,-0.59709 3.39504,-0.88228l-1.92558,-0.26734c-0.29078,-0.03574 -0.56612,-0.12142 -0.81717,-0.24818l-0.02115,0.00052l-2.06215,0.39807c-1.54992,0.61279 -3.27285,0.63212 -4.90937,0.9477c-1.05371,0.20319 -2.10976,0.39116 -3.16776,0.56643z" fill="#bebebe" stroke="none" stroke-width="0.5" stroke-linecap="butt"></path></g></g></svg>