<svg version="1.1" xmlns="http://www.w3.org/2000/svg" xmlns:xlink="http://www.w3.org/1999/xlink" width="683.7934" height="459.17857" viewBox="0,0,683.7934,459.17857"><defs><linearGradient x1="261.88608" y1="-15.53177" x2="261.88608" y2="443.6468" gradientUnits="userSpaceOnUse" id="color-1"><stop offset="0" stop-color="#fffffe"></stop><stop offset="1" stop-color="#fffffe" stop-opacity="0"></stop></linearGradient><radialGradient cx="130.16444" cy="204.78253" r="34.375" gradientUnits="userSpaceOnUse" id="color-2"><stop offset="0" stop-color="#f1a700" stop-opacity="0"></stop><stop offset="1" stop-color="#f1a700"></stop></radialGradient></defs><g transform="translate(80.01062,15.53177)"><g data-paper-data="{&quot;isPaintingLayer&quot;:true}" fill-rule="nonzero" stroke-linejoin="miter" stroke-miterlimit="10" stroke-dasharray="" stroke-dashoffset="0" style="mix-blend-mode: normal"><path d="M-80.01062,429.7056l246.17309,-445.23737h107.22473l330.39558,459.17857z" data-paper-data="{&quot;index&quot;:null}" fill="url(#color-1)" stroke="none" stroke-width="0" stroke-linecap="round"></path><path d="M243.7385,262.91295c-31.06602,0 -56.25,-25.18398 -56.25,-56.25c0,-31.06602 25.18398,-56.25 56.25,-56.25c31.06602,0 56.25,25.18398 56.25,56.25c0,31.06602 -25.18398,56.25 -56.25,56.25z" data-paper-data="{&quot;index&quot;:null}" fill="#000000" stroke="#000000" stroke-width="1.5" stroke-linecap="butt"></path><g data-paper-data="{&quot;index&quot;:null}" stroke="none" stroke-width="0" stroke-linecap="butt"><path d="M265.82443,192.55132c10.61366,0 19.21773,7.32104 19.21773,7.32104c0,0 -8.60407,7.32104 -19.21773,7.32104c-10.61366,0 -19.21773,-7.32104 -19.21773,-7.32104c0,0 8.60407,-7.32104 19.21773,-7.32104z" fill="#ffffff"></path><path d="M266.73954,207.19341c-4.04331,0 -7.32104,-3.27775 -7.32104,-7.32104c0,-4.04331 3.27775,-7.32104 7.32104,-7.32104c4.04331,0 7.32104,3.27775 7.32104,7.32104c0,4.04331 -3.27775,7.32104 -7.32104,7.32104z" fill="#000000"></path></g><g data-paper-data="{&quot;index&quot;:null}" stroke="none" stroke-width="0" stroke-linecap="butt"><path d="M223.06316,192.71658c10.61366,0 19.21773,7.32104 19.21773,7.32104c0,0 -8.60407,7.32104 -19.21773,7.32104c-10.61366,0 -19.21773,-7.32104 -19.21773,-7.32104c0,0 8.60407,-7.32104 19.21773,-7.32104z" fill="#ffffff"></path><path d="M223.97829,207.35867c-4.04331,0 -7.32104,-3.27775 -7.32104,-7.32104c0,-4.04329 3.27775,-7.32104 7.32104,-7.32104c4.04331,0 7.32104,3.27775 7.32104,7.32104c0,4.04331 -3.27775,7.32104 -7.32104,7.32104z" fill="#000000"></path></g><g stroke="none" stroke-width="0" stroke-linecap="butt"><path d="M137.97593,198.86461l67.9286,3.11546l-0.73305,15.9832l-67.9286,-3.11546z" fill="#181818"></path><path d="M131.81246,169.55144c19.58552,0.89826 34.73454,17.50365 33.83627,37.08917c-0.89826,19.58552 -17.50365,34.73454 -37.08917,33.83627c-19.58552,-0.89826 -34.73454,-17.50365 -33.83627,-37.08917c0.89826,-19.58552 17.50365,-34.73454 37.08917,-33.83627z" fill="#181818"></path><path d="M123.62288,170.07136c0,0 5.77188,-0.73633 8.53689,-0.60952c2.64021,0.12109 7.69605,1.35402 7.69605,1.35402l-3.16128,68.92755c0,0 -5.58409,1.24547 -8.31006,1.12045c-2.68435,-0.12312 -7.92288,-1.86495 -7.92288,-1.86495z" fill="url(#color-2)"></path></g></g></g></svg>