<svg version="1.1" xmlns="http://www.w3.org/2000/svg" xmlns:xlink="http://www.w3.org/1999/xlink" width="132.74591" height="80.5" viewBox="0,0,132.74591,80.5"><g transform="translate(-159.88057,-139.75)"><g data-paper-data="{&quot;isPaintingLayer&quot;:true}" fill-rule="nonzero" stroke-linejoin="miter" stroke-miterlimit="10" stroke-dasharray="" stroke-dashoffset="0" style="mix-blend-mode: normal"><g data-paper-data="{&quot;index&quot;:null}" stroke="#000000"><path d="M204.87632,165.5428c-1.83707,-0.82999 -5.36055,-0.69926 -7.42027,-2.3649c-2.44296,-1.97556 -3.28517,-5.70906 -3.28517,-5.70906l0.0514,-4.01489c0,0 3.36676,3.98215 6.83003,5.78356c2.98087,1.5505 6.01789,0.96062 7.21988,0.93333c4.53252,-0.1029 13.43998,-2.3418 13.43998,-2.3418l0.30291,10.35036c0,0 -12.05286,-0.33876 -17.13877,-2.63659z" fill="#b058be" stroke-width="0" stroke-linecap="butt"></path><path d="M216.18175,167.75992c0,0 -2.05768,-4.36815 -2.10239,-5.8958c-0.03427,-1.17072 1.85704,-2.48763 1.85704,-2.48763" fill="none" stroke-width="0.5" stroke-linecap="round"></path><path d="M212.04688,166.95796c0,0 -1.94155,-3.26723 -1.97684,-4.47308c-0.02882,-0.98457 1.78056,-2.23367 1.78056,-2.23367" fill="none" stroke-width="0.5" stroke-linecap="round"></path><path d="M207.15754,166.17809c0,0 -1.67829,-3.01317 -1.64763,-4.08301c0.02022,-0.70555 1.81367,-1.71138 1.81367,-1.71138" fill="none" stroke-width="0.5" stroke-linecap="round"></path><path d="M203.16822,164.61672c0,0 -1.36894,-2.21556 -1.37605,-2.98263c-0.00532,-0.57462 1.33721,-1.21153 1.33721,-1.21153" fill="none" stroke-width="0.5" stroke-linecap="round"></path><path d="M199.60302,163.21075c0,0 -1.26688,-2.33326 -1.29902,-2.98522c-0.03621,-0.73458 1.09251,-1.20404 1.09251,-1.20404" fill="none" stroke-width="0.5" stroke-linecap="round"></path><path d="M194.92099,159.18823c0,0 0.79732,-2.01018 1.18814,-2.37063c0.44035,-0.40615 1.32313,0.05442 1.32313,0.05442" fill="none" stroke-width="0.5" stroke-linecap="round"></path></g><path d="" data-paper-data="{&quot;index&quot;:null}" fill="none" stroke="#000000" stroke-width="1.5" stroke-linecap="round"></path><path d="" data-paper-data="{&quot;index&quot;:null}" fill="none" stroke="#000000" stroke-width="1.5" stroke-linecap="round"></path><path d="" data-paper-data="{&quot;index&quot;:null}" fill="none" stroke="#000000" stroke-width="1.5" stroke-linecap="round"></path><path d="" data-paper-data="{&quot;index&quot;:null}" fill="none" stroke="#000000" stroke-width="1.5" stroke-linecap="round"></path><path d="" data-paper-data="{&quot;index&quot;:null}" fill="none" stroke="#000000" stroke-width="1.5" stroke-linecap="round"></path><path d="M289.92393,195.47556" data-paper-data="{&quot;index&quot;:null}" fill="none" stroke="#d8d8d8" stroke-width="4" stroke-linecap="round"></path><path d="M240.00002,219.5c-21.81525,0 -39.5,-17.68475 -39.5,-39.5c0,-21.81525 17.68475,-39.5 39.5,-39.5c21.81525,0 39.5,17.68475 39.5,39.5c0,21.81525 -17.68475,39.5 -39.5,39.5z" fill="#d8d8d8" stroke="#000000" stroke-width="1.5" stroke-linecap="butt"></path><path d="M242.95958,187.51603l-33.69856,-3.15529" fill="none" stroke="#000000" stroke-width="0.5" stroke-linecap="round"></path><path d="M222.60951,185.5009l-6.21783,9.11743l-2.74141,-9.94892z" fill="#ffffff" stroke="#000000" stroke-width="0.5" stroke-linecap="round"></path><path d="M237.80182,186.86598l-5.57718,8.178l-2.45893,-8.92381z" fill="#ffffff" stroke="#000000" stroke-width="0.5" stroke-linecap="round"></path><g stroke="#000000"><path d="M257.19906,171.00453l0.30292,-10.35036c0,0 8.90747,2.2389 13.43998,2.3418c1.202,0.02729 4.239,0.61718 7.21988,-0.93333c3.46326,-1.80141 6.83004,-5.78356 6.83004,-5.78356l0.0514,4.01489c0,0 -0.8422,3.7335 -3.28517,5.70906c-2.05972,1.66565 -5.5832,1.5349 -7.42027,2.3649c-5.08591,2.29782 -17.13878,2.63659 -17.13878,2.63659z" fill="#b058be" stroke-width="0" stroke-linecap="butt"></path><path d="M263.27777,162.20162c0,0 1.89131,1.31691 1.85704,2.48763c-0.04471,1.52764 -2.10239,5.8958 -2.10239,5.8958" fill="none" stroke-width="0.5" stroke-linecap="round"></path><path d="M267.36357,163.07635c0,0 1.80938,1.2491 1.78056,2.23367c-0.03529,1.20585 -1.97684,4.47307 -1.97684,4.47307" fill="none" stroke-width="0.5" stroke-linecap="round"></path><path d="M271.89061,163.20884c0,0 1.79345,1.00583 1.81367,1.71138c0.03066,1.06984 -1.64763,4.083 -1.64763,4.083" fill="none" stroke-width="0.5" stroke-linecap="round"></path><path d="M276.08477,163.24768c0,0 1.34252,0.63692 1.3372,1.21154c-0.00711,0.76707 -1.37604,2.98263 -1.37604,2.98263" fill="none" stroke-width="0.5" stroke-linecap="round"></path><path d="M279.81766,161.84662c0,0 1.12872,0.46946 1.09251,1.20404c-0.03214,0.65196 -1.29902,2.98522 -1.29902,2.98522" fill="none" stroke-width="0.5" stroke-linecap="round"></path><path d="M281.78191,159.69716c0,0 0.88277,-0.46058 1.32313,-0.05443c0.39082,0.36046 1.18814,2.37064 1.18814,2.37064" fill="none" stroke-width="0.5" stroke-linecap="round"></path></g><path d="M221.46379,167.12465c0,4.00803 -1.24316,7.25718 -2.77666,7.25718c-1.5335,0 -2.77666,-3.24915 -2.77666,-7.25718c0,-4.00803 -0.37863,-7.00476 -0.37863,-7.00476c0,0 4.21336,0.55153 5.46913,3.69379c0.21243,0.53156 0.46283,2.73105 0.46283,3.31097z" fill="#ff6666" stroke="#000000" stroke-width="0" stroke-linecap="butt"></path><path d="M229.93361,168.88053c0,-0.57992 0.2504,-2.77941 0.46283,-3.31097c1.25577,-3.14226 5.46913,-3.69379 5.46913,-3.69379c0,0 -0.37863,2.99673 -0.37863,7.00476c0,4.00803 -1.24316,7.25718 -2.77666,7.25718c-1.5335,0 -2.77666,-3.24915 -2.77666,-7.25718z" data-paper-data="{&quot;index&quot;:null}" fill="#ff6666" stroke="#000000" stroke-width="0" stroke-linecap="butt"></path><g data-paper-data="{&quot;index&quot;:null}" stroke-linecap="butt"><path d="M180.7202,188.48696c-0.42085,1.41523 -1.83608,0.99439 -1.83608,0.99439l-0.9966,-0.32769c-3.79669,-0.33213 -7.75198,-0.76463 -11.46925,-1.58726c-0.31354,-0.06939 -0.75694,-0.14276 -1.20153,-0.23697c0.12123,0.18252 0.22914,0.35474 0.3153,0.49254c0,0 0.7818,1.25252 -0.47072,2.03431c-1.25252,0.7818 -2.03431,-0.47072 -2.03431,-0.47072c-0.38409,-0.61651 -2.43563,-3.69374 -2.11754,-4.29347c0.50285,-0.94806 1.94644,-1.05116 3.01717,-1.12332c1.75037,-0.11797 3.40989,0.85134 5.14598,1.10373c3.00462,0.43681 6.04388,0.87601 9.07154,1.13936l1.58166,0.43901c0,0 1.41524,0.42085 0.99439,1.83608z" fill="#592c60" stroke="none" stroke-width="0.5"></path><path d="M179.72466,183.07993c-0.42085,1.41523 -1.83608,0.99439 -1.83608,0.99439l-0.9966,-0.32769c-3.79669,-0.33213 -7.75198,-0.76463 -11.46925,-1.58726c-0.31354,-0.06939 -0.75694,-0.14276 -1.20153,-0.23697c0.12123,0.18252 0.22914,0.35474 0.3153,0.49254c0,0 0.7818,1.25252 -0.47072,2.03431c-1.25252,0.7818 -2.03431,-0.47072 -2.03431,-0.47072c-0.38409,-0.61651 -2.43563,-3.69374 -2.11754,-4.29347c0.50285,-0.94806 1.94644,-1.05116 3.01717,-1.12332c1.75037,-0.11797 3.40989,0.85134 5.14598,1.10373c3.00462,0.43681 6.04388,0.87601 9.07154,1.13936l1.58166,0.43901c0,0 1.41524,0.42085 0.99439,1.83608z" fill="#7c3d86" stroke="none" stroke-width="0.5"></path><path d="M179.90522,179.10165c-0.42085,1.41524 -1.83608,0.99439 -1.83608,0.99439l-0.9966,-0.32769c-3.79669,-0.33213 -7.75198,-0.76463 -11.46925,-1.58726c-0.31353,-0.06938 -0.75693,-0.14275 -1.20153,-0.23696c0.12124,0.18253 0.22915,0.35474 0.31531,0.49254c0,0 0.7818,1.25252 -0.47072,2.03431c-1.25252,0.7818 -2.03431,-0.47072 -2.03431,-0.47072c-0.3841,-0.6165 -2.43563,-3.69373 -2.11754,-4.29346c0.50285,-0.94807 1.94642,-1.05116 3.01716,-1.12333c1.75037,-0.11797 3.40989,0.85134 5.14598,1.10373c3.00462,0.43682 6.04388,0.87602 9.07154,1.13937l1.58166,0.43901c0,0 1.41524,0.42085 0.99439,1.83608z" fill="#b058be" stroke="none" stroke-width="0.5"></path><path d="M188.47676,193.58509c-5.19269,1.78564 -10.84975,-0.97632 -12.63539,-6.16901c-1.78564,-5.19269 0.97632,-10.84975 6.16901,-12.63539c5.19269,-1.78564 10.84975,0.97632 12.63539,6.16901c1.78564,5.19269 -0.97632,10.84975 -6.16901,12.63539z" fill="#d8d8d8" stroke="#000000" stroke-width="1"></path></g><g data-paper-data="{&quot;index&quot;:null}" stroke-linecap="butt"><path d="M277.65784,199.30042c0.42085,1.41523 -0.99439,1.83608 -0.99439,1.83608l-1.58166,0.43901c-3.02766,0.26335 -6.06692,0.70255 -9.07154,1.13936c-1.73609,0.25239 -3.39561,1.2217 -5.14598,1.10373c-1.07073,-0.07216 -2.51432,-0.17526 -3.01717,-1.12332c-0.31809,-0.59973 1.73345,-3.67696 2.11754,-4.29347c0,0 0.78179,-1.25252 2.03431,-0.47072c1.25252,0.78179 0.47072,2.03431 0.47072,2.03431c-0.08616,0.1378 -0.19407,0.31002 -0.3153,0.49254c0.44459,-0.09421 0.88799,-0.16758 1.20153,-0.23697c3.71727,-0.82263 7.67256,-1.25513 11.46925,-1.58726l0.9966,-0.32769c0,0 1.41523,-0.42084 1.83608,0.99439z" fill="#592c60" stroke="none" stroke-width="0.5"></path><path d="M276.6623,204.70745c0.42085,1.41523 -0.99439,1.83608 -0.99439,1.83608l-1.58166,0.43901c-3.02766,0.26335 -6.06692,0.70255 -9.07154,1.13936c-1.73609,0.25239 -3.39561,1.2217 -5.14598,1.10373c-1.07073,-0.07216 -2.51432,-0.17526 -3.01717,-1.12332c-0.31809,-0.59973 1.73345,-3.67696 2.11754,-4.29347c0,0 0.78179,-1.25252 2.03431,-0.47072c1.25252,0.78179 0.47072,2.03431 0.47072,2.03431c-0.08616,0.1378 -0.19407,0.31002 -0.3153,0.49254c0.44459,-0.09421 0.88799,-0.16758 1.20153,-0.23697c3.71727,-0.82263 7.67256,-1.25513 11.46925,-1.58726l0.9966,-0.32769c0,0 1.41523,-0.42084 1.83608,0.99439z" fill="#7c3d86" stroke="none" stroke-width="0.5"></path><path d="M276.84286,208.68571c0.42085,1.41523 -0.99439,1.83608 -0.99439,1.83608l-1.58166,0.43901c-3.02766,0.26335 -6.06692,0.70255 -9.07154,1.13937c-1.73609,0.25239 -3.39561,1.2217 -5.14598,1.10373c-1.07074,-0.07217 -2.51431,-0.17526 -3.01716,-1.12333c-0.31809,-0.59973 1.73344,-3.67696 2.11754,-4.29346c0,0 0.78179,-1.25252 2.03431,-0.47072c1.25252,0.78179 0.47072,2.03431 0.47072,2.03431c-0.08616,0.1378 -0.19407,0.31001 -0.31531,0.49254c0.4446,-0.09421 0.888,-0.16758 1.20153,-0.23696c3.71727,-0.82263 7.67256,-1.25513 11.46925,-1.58726l0.9966,-0.32769c0,0 1.41523,-0.42085 1.83608,0.99439z" fill="#b058be" stroke="none" stroke-width="0.5"></path><path d="M291.5834,206.83767c-1.78564,5.19269 -7.4427,7.95465 -12.63539,6.16901c-5.19269,-1.78564 -7.95465,-7.4427 -6.16901,-12.63539c1.78564,-5.19269 7.4427,-7.95465 12.63539,-6.16901c5.19269,1.78564 7.95465,7.4427 6.16901,12.63539z" fill="#d8d8d8" stroke="#000000" stroke-width="1"></path></g></g></g></svg>