<svg version="1.1" xmlns="http://www.w3.org/2000/svg" xmlns:xlink="http://www.w3.org/1999/xlink" width="80.50714" height="149.07526" viewBox="0,0,80.50714,149.07526"><g transform="translate(-198.73492,-137.92036)"><g data-paper-data="{&quot;isPaintingLayer&quot;:true}" fill-rule="nonzero" stroke="#000000" stroke-linejoin="miter" stroke-miterlimit="10" stroke-dasharray="" stroke-dashoffset="0" style="mix-blend-mode: normal"><path d="M206.50978,200.65465c-12.41576,-17.93752 -7.93951,-42.54368 9.998,-54.95943c17.93752,-12.41576 42.54368,-7.93951 54.95943,9.998c12.41576,17.93752 7.93951,42.54368 -9.998,54.95943c-17.93752,12.41576 -42.54368,7.93951 -54.95943,-9.998z" fill="#d8d8d8" stroke-width="1.5" stroke-linecap="butt"></path><path d="M213.89109,181.23602l7.42558,-5.18272l5.27513,6.0144" fill="none" stroke-width="1.5" stroke-linecap="round"></path><path d="M231.56432,177.95472l-5.19005,-6.08797l6.20021,-6.59981" data-paper-data="{&quot;index&quot;:null}" fill="none" stroke-width="1.5" stroke-linecap="round"></path><g data-paper-data="{&quot;index&quot;:null}" stroke-width="1"><path d="M248.71414,213.4939l4.37726,20.53874l-8.06879,1.71963l-4.37726,-20.53874z" fill="#af5400" stroke-linecap="butt"></path><path d="M244.30027,232.12312c0,0 1.21518,-3.63061 2.24523,-4.82964c1.14424,-1.33193 4.31367,-2.8052 4.31367,-2.8052" fill="none" stroke-linecap="round"></path><path d="M242.95984,225.35384c0,0 3.49474,0.053 5.08259,0.80265c1.42942,0.67485 4.01929,3.49453 4.01929,3.49453" data-paper-data="{&quot;index&quot;:null}" fill="none" stroke-linecap="round"></path><path d="M242.16295,219.69568c0,0 3.49474,0.053 5.08259,0.80265c1.42942,0.67485 4.01929,3.49453 4.01929,3.49453" data-paper-data="{&quot;index&quot;:null}" fill="none" stroke-linecap="round"></path><path d="M243.16187,225.82201c0,0 1.21518,-3.63061 2.24523,-4.82964c1.14421,-1.33192 4.31367,-2.8052 4.31367,-2.8052" data-paper-data="{&quot;index&quot;:null}" fill="none" stroke-linecap="round"></path><path d="M250.05279,238.47727c-4.64531,0.99003 -8.62573,0.78546 -8.89051,-0.45688c-0.26478,-1.24234 3.28637,-3.05205 7.93169,-4.04207c4.64531,-0.99003 8.62573,-0.78546 8.89051,0.45688c0.26478,1.24234 -3.28637,3.05205 -7.93169,4.04207z" fill="#8f8f8f" stroke-linecap="butt"></path><path d="M253.15061,236.86432l10.16147,47.67922c0,0 -2.04267,1.7134 -3.16257,1.95208c-1.07917,0.22999 -3.43916,-0.54512 -3.43916,-0.54512l-10.16147,-47.67922z" fill="#dddddd" stroke-linecap="butt"></path></g></g></g></svg>