<svg version="1.1" xmlns="http://www.w3.org/2000/svg" xmlns:xlink="http://www.w3.org/1999/xlink" width="152.95976" height="45.00763" viewBox="0,0,152.95976,45.00763"><g transform="translate(-185.61116,-244.99167)"><g data-paper-data="{&quot;isPaintingLayer&quot;:true}" fill-rule="nonzero" stroke-linejoin="miter" stroke-miterlimit="10" stroke-dasharray="" stroke-dashoffset="0" style="mix-blend-mode: normal"><path d="" data-paper-data="{&quot;index&quot;:null}" fill="none" stroke="#000000" stroke-width="1.5" stroke-linecap="round"></path><path d="" data-paper-data="{&quot;index&quot;:null}" fill="none" stroke="#000000" stroke-width="1.5" stroke-linecap="round"></path><path d="" data-paper-data="{&quot;index&quot;:null}" fill="none" stroke="#000000" stroke-width="1.5" stroke-linecap="round"></path><path d="" data-paper-data="{&quot;index&quot;:null}" fill="none" stroke="#000000" stroke-width="1.5" stroke-linecap="round"></path><path d="" data-paper-data="{&quot;index&quot;:null}" fill="none" stroke="#000000" stroke-width="1.5" stroke-linecap="butt"></path><g stroke="none" stroke-linecap="butt"><path d="M243.18311,263.36171c4.6292,1.89941 3.37636,4.44407 -2.79829,5.68363c-6.17467,1.2396 -9.31225,-0.16098 -13.94141,-2.06039c-4.6292,-1.89941 -30.6409,1.20458 -24.4663,-0.03501c3.74353,-0.75153 17.72413,-4.01443 28.13574,-4.93725c6.76148,-0.59929 11.24762,0.60114 13.07026,1.34898z" data-paper-data="{&quot;index&quot;:null}" fill="#ffffff" stroke-width="NaN"></path><path d="M251.78102,261.35382c6.22729,2.55515 4.54188,5.97826 -3.76436,7.64582c-8.30627,1.66752 -12.52707,-0.21656 -18.75433,-2.7717c-6.22729,-2.55515 -41.21899,1.62046 -32.91268,-0.04711c5.03588,-1.011 23.84292,-5.40033 37.84895,-6.64169c9.09566,-0.80614 15.13063,0.80865 17.58244,1.81469z" fill="#a97eff" stroke-width="NaN"></path></g><path d="M190.83071,285.81314c-14.12225,-5.79452 6.33367,-16.89691 45.68969,-24.79784c39.35601,-7.90097 82.70871,-9.60857 96.83097,-3.81406c14.12225,5.79452 -6.33367,16.89691 -45.68969,24.79784c-39.35601,7.90097 -82.70871,9.60857 -96.83097,3.81406z" fill="#d8d8d8" stroke="#000000" stroke-width="1.5" stroke-linecap="butt"></path><path d="M227.29884,278.27053c0,0 -0.55337,-4.93437 5.60478,-6.14625c6.26488,-1.23292 20.41333,0.77531 20.41333,0.77531" fill="none" stroke="#000000" stroke-width="1.5" stroke-linecap="round"></path><path d="M262.05284,271.79489c0,0 -0.55337,-4.93437 5.60478,-6.14625c6.26488,-1.23292 20.41332,0.77531 20.41332,0.77531" fill="none" stroke="#000000" stroke-width="1.5" stroke-linecap="round"></path><path d="M280.33069,273.50112c0,0 -13.93099,5.04099 -21.29388,6.16051c-5.78903,0.88018 -19.30832,0.01295 -19.30832,0.01295" fill="none" stroke="#000000" stroke-width="1.5" stroke-linecap="round"></path><g stroke="none" stroke-linecap="butt"><path d="M280.96384,253.14469c8.86601,-3.35035 29.68174,-6.91552 34.71762,-7.92651c8.30627,-1.66752 -17.35992,6.33434 -11.13268,8.88945c6.22729,2.55515 10.9465,4.33916 2.64021,6.00672c-8.30627,1.66752 -20.08811,0.948 -26.31534,-1.60711c-2.45183,-1.00599 -5.66755,-3.18681 0.09023,-5.36259z" data-paper-data="{&quot;index&quot;:null}" fill="#a97eff" stroke-width="NaN"></path><path d="M290.50185,252.9319c6.59072,-2.49052 22.06449,-5.14077 25.80802,-5.8923c6.17467,-1.2396 -12.90482,4.70875 -8.27568,6.60812c4.6292,1.89941 8.13729,3.22561 1.96262,4.46521c-6.17467,1.2396 -14.93292,0.70475 -19.56204,-1.19468c-1.82262,-0.74787 -4.21306,-2.36899 0.06708,-3.9864z" data-paper-data="{&quot;index&quot;:null}" fill="#ffffff" stroke-width="NaN"></path></g></g></g></svg>