<svg version="1.1" xmlns="http://www.w3.org/2000/svg" xmlns:xlink="http://www.w3.org/1999/xlink" width="80.5" height="98.77237" viewBox="0,0,80.5,98.77237"><g transform="translate(-198.73853,-119.65158)"><g data-paper-data="{&quot;isPaintingLayer&quot;:true}" fill-rule="nonzero" stroke-linejoin="miter" stroke-miterlimit="10" stroke-dasharray="" stroke-dashoffset="0" style="mix-blend-mode: normal"><path d="M199.48853,178.17395c0,-21.81525 17.68475,-39.5 39.5,-39.5c21.81525,0 39.5,17.68475 39.5,39.5c0,21.81525 -17.68475,39.5 -39.5,39.5c-21.81525,0 -39.5,-17.68475 -39.5,-39.5z" fill="#d8d8d8" stroke="#000000" stroke-width="1.5" stroke-linecap="butt"></path><path d="M217.09444,165.86411l9,1v8" fill="none" stroke="#000000" stroke-width="1.5" stroke-linecap="round"></path><path d="M232.5346,174.67749v-8l9,-1" data-paper-data="{&quot;index&quot;:null}" fill="none" stroke="#000000" stroke-width="1.5" stroke-linecap="round"></path><path d="M230.98853,198.04895c0,0 0.3445,-8.61004 5.78628,-9.03188c5.30472,-0.41122 12.46372,8.03188 12.46372,8.03188z" fill="#040404" stroke="#000000" stroke-width="1.5" stroke-linecap="round"></path><g stroke="#000000" stroke-width="1"><path d="M210.59248,216.43573l-2.19219,-20.88527l8.20492,-0.86122l2.19219,20.88527z" fill="#af5400" stroke-linecap="butt"></path><path d="M217.43555,204.45593c0,0 -3.46976,-0.42035 -4.96993,-1.33291c-1.35049,-0.82149 -3.62935,-3.89799 -3.62935,-3.89799" fill="none" stroke-linecap="round"></path><path d="M216.98174,199.17445c0,0 -1.59039,3.48263 -2.74087,4.56662c-1.278,1.20416 -4.58486,2.33581 -4.58486,2.33581" data-paper-data="{&quot;index&quot;:null}" fill="none" stroke-linecap="round"></path><path d="M217.97458,204.80155c0,0 -1.59039,3.48263 -2.74087,4.56662c-1.278,1.20416 -4.58486,2.33581 -4.58486,2.33581" data-paper-data="{&quot;index&quot;:null}" fill="none" stroke-linecap="round"></path><path d="M218.30255,210.80009c0,0 -3.46976,-0.42036 -4.96994,-1.33291c-1.35049,-0.82149 -3.62935,-3.89799 -3.62935,-3.89799" data-paper-data="{&quot;index&quot;:null}" fill="none" stroke-linecap="round"></path><path d="M221.13365,192.79251c0.1326,1.26331 -3.58922,2.68937 -8.31291,3.18518c-4.7237,0.49581 -8.66051,-0.12637 -8.79311,-1.38968c-0.1326,-1.26331 3.58922,-2.68937 8.31291,-3.18518c4.7237,-0.49581 8.66051,0.12637 8.79311,1.38968z" fill="#8f8f8f" stroke-linecap="butt"></path><path d="M209.07231,192.68284l-5.08901,-48.48365c0,0 2.00438,-1.46726 3.10175,-1.58244c1.1388,-0.11953 3.61137,0.87781 3.61137,0.87781l5.08901,48.48365z" fill="#dddddd" stroke-linecap="butt"></path></g><path d="M204.48839,147.34358c-1.85192,-0.10678 -2.18576,-2.09363 -2.18576,-2.09363l0.12093,-1.81413c1.26008,-2.80233 2.64322,-6.04345 4.86116,-8.25044c2.55777,-2.54514 5.27493,-3.95591 7.64854,-6.75525c2.75365,-2.11652 5.73632,-4.32558 8.94825,-5.73866c7.65127,-3.36614 18.72845,-3.45467 26.85434,-2.55275c3.49068,0.38745 9.46605,-0.30343 12.26834,2.06173c4.77567,4.03072 2.3307,13.5 -2.73222,16.10748c-1.10792,0.57059 -2.44529,0.48245 -3.66793,0.72367c-4.7798,-0.28957 -9.51387,-1.82232 -14.26254,-1.89546c-12.91809,-0.19895 -24.21613,2.35205 -34.56207,10.39464c0,0 -1.79472,1.39408 -3.29105,-0.1872z" fill="#0bff2c" stroke="none" stroke-width="0.5" stroke-linecap="butt"></path></g></g></svg>