<svg version="1.1" xmlns="http://www.w3.org/2000/svg" xmlns:xlink="http://www.w3.org/1999/xlink" width="970.58258" height="598" viewBox="0,0,970.58258,598"><g transform="translate(3.03904,119)"><g stroke-miterlimit="10"><path d="M-3.03904,479v-598h970.58258v598z" fill="#5d5d5d" stroke="none" stroke-width="NaN" stroke-linecap="butt"/><g stroke="#000000" stroke-width="1.5"><g><path d="M437.26015,272.86293c-42.79705,-0.20462 -77.32506,-35.06436 -77.12044,-77.86142c0.20462,-42.79705 35.06436,-77.32507 77.86142,-77.12044c42.79705,0.20462 77.32507,35.06434 77.12048,77.86143c-0.20462,42.79705 -35.06434,77.32507 -77.86142,77.12044z" fill="#d8d8d8" stroke-linecap="butt"/><path d="M408.63325,173.62875l27.48318,9.14021" fill="none" stroke-linecap="round"/><path d="M421.66363,181.50559l0.44544,11.5134" fill="none" stroke-linecap="round"/><path d="M442.62744,181.79912l15.05022,-7.43538" fill="none" stroke-linecap="round"/><path d="M413.77287,222.42134l46.09988,0.71088" fill="none" stroke-linecap="round"/></g><path d="M450.66363,180.50559l0.44544,11.5134" fill="none" stroke-linecap="round"/></g><g stroke="#000000" stroke-linecap="butt"><path d="M353.42309,227.90547l-41.09009,-4.06621c0,0 -6.50626,-4.77357 -6.41959,-6.86631c0.08652,-2.08901 6.93922,-5.67894 6.93922,-5.67894l41.09009,4.06621z" fill="#af5400" stroke-width="1.5"/><path d="M360.13492,198.29606c0,0 0.53088,11.34935 -0.33401,24.2616c-0.46291,6.91264 -0.76534,20.68371 -0.76534,20.68371c0,0 -8.58412,0.16164 -11.30012,-0.27402c-5.8452,-0.9375 -9.96663,-10.89229 -9.10187,-23.80451c0.46643,-6.9659 0.75236,-16.96085 6.39532,-21.0387c4.81689,-3.48092 15.10591,0.17186 15.10591,0.17186z" fill="#989898" stroke-width="1"/><path d="M358.68944,197.43053c5.84512,0.93747 9.88253,12.16489 9.01775,25.07712c-0.86481,12.91218 -6.30439,22.61973 -12.14949,21.68224c-5.84516,-0.93744 -9.88253,-12.16489 -9.01775,-25.07712c0.86482,-12.91226 6.30439,-22.61973 12.14954,-21.68231z" fill="#989898" stroke-width="1"/><path d="M355.00921,226.76515c0,0 -3.3522,-4.49862 -3.33702,-6.38376c0.01477,-1.84159 3.42692,-4.79974 3.42692,-4.79974l163.3954,12.02476l25.54068,13.06963l-189.02605,-13.911z" fill="#e6e6e6" stroke-width="0.5"/></g></g></g></svg>