<svg version="1.1" xmlns="http://www.w3.org/2000/svg" xmlns:xlink="http://www.w3.org/1999/xlink" width="84.35084" height="47.71147" viewBox="0,0,84.35084,47.71147"><g transform="translate(-226.70813,-149.93337)"><g data-paper-data="{&quot;isPaintingLayer&quot;:true}" fill-rule="nonzero" stroke-linejoin="miter" stroke-miterlimit="10" stroke-dasharray="" stroke-dashoffset="0" style="mix-blend-mode: normal"><path d="" data-paper-data="{&quot;index&quot;:null}" fill="none" stroke="#000000" stroke-width="1.5" stroke-linecap="round"></path><path d="" data-paper-data="{&quot;index&quot;:null}" fill="none" stroke="#000000" stroke-width="1.5" stroke-linecap="round"></path><path d="M247.7022,153.00094c0,-0.19362 0.05503,-0.37439 0.1503,-0.52752l-0.57954,-0.41667c-0.25812,-0.18083 -0.42689,-0.4805 -0.42689,-0.81958c0,-0.51929 0.39581,-0.94612 0.90219,-0.99528l1.74551,-0.19271l0.00064,0.00579l0.02281,-0.0081c9.45111,-0.59589 18.73209,1.31225 28.11653,2.06547c2.91298,0.01459 5.8298,0.131 8.76555,0.345l0.05975,0.02741l0.00339,-0.01671l1.94189,0.39338c0.46626,0.08487 0.81976,0.49305 0.81976,0.9838c0,0.42651 -0.26701,0.79065 -0.643,0.93439l-1.58401,0.64776l-0.15391,-0.37637c-1.68989,0.66598 -3.50129,0.91903 -5.36145,1.0296c1.80053,0.97274 3.6881,2.31419 3.77172,3.57893c0.00334,0.05055 0.00593,0.09967 0.00778,0.14741c1.27251,0.37139 2.46551,1.10117 1.98499,2.94561c-0.22577,0.86658 -1.68445,0.62111 -2.55571,0.8281c-0.48535,0.11531 -0.96679,0.20966 -1.44478,0.28355c0.06255,0.13061 0.09758,0.27691 0.09758,0.43139c0,0.50902 -0.38032,0.92921 -0.87229,0.99192l-1.35456,0.19478c-4.80634,0.69112 -9.11783,1.08636 -13.9692,0.7912c-0.47779,-0.02907 -0.92801,-0.02964 -1.35626,-0.03401c0.00583,0.04369 0.00884,0.08828 0.00884,0.13357c0,0.55228 -0.44772,1 -1,1c-0.03639,0 -0.07233,-0.00194 -0.10772,-0.00573l-1.2896,-0.12282l0.00079,-0.00826l-0.02478,0.00568c-1.93593,-0.27889 -3.91927,-0.46013 -5.88847,-0.70338c-0.10761,0.09239 -0.23509,0.16229 -0.37515,0.20241l-1.57412,0.49073l-0.01141,-0.03661l-0.10568,0.06549c-2.7468,0.17682 -5.08161,0.3015 -7.3743,-0.04884l-0.13828,0.01417l-0.00116,-0.01136l-0.03235,0.01422c-4.1765,0.14661 -8.04349,0.29811 -12.17387,-0.3948c-0.65986,-0.1107 -4.28137,-0.65218 -4.56771,-1.03269c-0.50728,-0.67412 -0.40068,-1.90113 0.1667,-2.52551c0.09938,-0.10937 0.21386,-0.19265 0.33969,-0.25618c-0.2536,-0.05341 -0.50718,-0.10743 -0.76076,-0.16206c-0.69329,-0.14936 -4.31681,-0.43912 -3.60681,-2.53807c0.06344,-0.18754 0.3494,-0.3775 0.7492,-0.5589l-0.2357,0.01655c-0.02646,0.0021 -0.05321,0.00317 -0.08021,0.00317c-0.55228,0 -1,-0.44772 -1,-1c0,-0.36745 0.19818,-0.68861 0.49349,-0.86242l1.3999,-0.85617l0.22074,0.36092c2.21321,-1.35834 4.95779,-1.9803 7.74417,-2.07103c0.14852,-0.30155 0.44453,-0.5174 0.79388,-0.55341l1.97394,-0.23104c2.85154,-0.33376 5.71513,-0.65953 8.58236,-0.94735c-0.13428,-0.17023 -0.2144,-0.38516 -0.2144,-0.61881zM250.23686,165.6757c0.31977,-0.00141 0.64412,-0.0142 0.9708,-0.03446l-1.05981,-0.12656c0.03437,0.05055 0.06424,0.10442 0.08901,0.16102zM251.53741,165.61847c-0.01581,-0.00224 -0.03164,-0.00445 -0.04749,-0.00663l-0.00123,0.01027c0.01623,-0.0012 0.03247,-0.00241 0.04872,-0.00364zM256.35823,151.9951c2.23943,0.25167 4.48035,0.51375 6.71654,0.57147l0.67073,0.01731c-2.45885,-0.26516 -4.91977,-0.48415 -7.38727,-0.58878zM234.85443,157.54845c0.51444,0.01361 1.02843,0.03274 1.54233,0.05623c0.55361,-0.10301 1.11834,-0.19756 1.68274,-0.27735l-0.06306,-0.03778c-0.54476,-0.02573 -1.08132,-0.02952 -1.60111,-0.00943c-0.50282,0.01944 -1.02627,0.12361 -1.56091,0.26833z" fill="#0033b3" stroke="none" stroke-width="0.5" stroke-linecap="butt"></path><path d="M292.27479,174.14734c-1.39909,0.0887 -2.83067,0.3156 -4.27241,0.61204c1.48805,-0.02293 2.97852,-0.0292 4.4759,-0.03456l0.00621,-0.00075l-0.00702,-0.10352l0.73495,-0.04981c-0.31673,-0.134 -0.62999,-0.27774 -0.93763,-0.42341zM285.49225,189.93641c2.1409,-0.88563 5.09048,-2.79079 7.54714,-2.85989l-0.06111,-0.22765l0.20423,-0.05482l-0.68763,-0.27853c0.76942,-0.7224 1.35498,-1.41525 2.00442,-1.95241c-1.55278,0.16331 -2.93442,0.2266 -4.40653,0.08871v0.23138h-2c-0.55228,0 -1,-0.44772 -1,-1c0,-0.39206 0.22562,-0.73142 0.5541,-0.89533l1.6671,-0.87436c0.58397,-0.30625 1.19296,-0.67809 1.81905,-1.04082c-3.16026,0.57807 -6.30662,1.37756 -9.44698,1.64986l0.05844,0.22444l-1.91352,0.49829c-0.08706,0.02474 -0.17895,0.03799 -0.27394,0.03799c-0.55228,0 -1,-0.44772 -1,-1c0,-0.43015 0.27159,-0.79686 0.65264,-0.93802l1.83718,-0.72944c1.05657,-0.41951 2.3392,-1.1064 3.65752,-1.70994c-1.71027,0.09673 -3.37591,0.10252 -5.0787,-0.11789v0.25638h-2c-0.55228,0 -1,-0.44772 -1,-1c0,-0.4826 0.34186,-0.88535 0.79662,-0.9793l0.06179,-0.01413c-0.08662,-0.0058 -0.17313,-0.01196 -0.25951,-0.01849c-0.174,0.02687 -0.34723,0.05202 -0.51965,0.07528l-0.0484,0.00653l0.0084,0.10131l-1.98157,0.1642c-0.031,0.0029 -0.06242,0.00438 -0.09418,0.00438c-0.55228,0 -1,-0.44772 -1,-1c0,-0.51175 0.38441,-0.93372 0.88023,-0.9929l1.96809,-0.26556c4.21782,-0.56912 8.76558,-2.12795 13.19674,-2.83787c-0.08317,-0.2151 -0.09212,-0.49067 0.09468,-0.82041c0.49291,-0.87008 1.36299,-0.37716 1.36299,-0.37716l0.78131,0.44569c0.3083,0.14666 0.61317,0.28352 0.91515,0.41331c0.88666,-0.04046 1.76403,-0.02737 2.62834,0.05484c0,0 0.99497,0.10015 0.89482,1.09513c-0.00829,0.08239 -0.02272,0.15728 -0.04222,0.22533c0.28844,0.1165 0.57614,0.23666 0.86368,0.36322l0.08134,-0.27918l1.89878,0.55325c0.07549,0.02013 0.14746,0.04887 0.2148,0.08511l0.40993,0.07761l-0.00257,0.01359l0.01323,-0.01151c0.82247,0.22947 1.81282,0.14011 2.4674,0.6884c1.85866,1.55685 -0.08164,1.91355 -0.51395,2.90441c-0.14139,0.32407 0.46853,-0.62339 0.81833,-0.67488c0.87923,-0.12941 6.29334,0.63776 6.63977,1.30068c0.82022,1.56959 -0.15688,2.85462 -1.43275,3.62068c0.09925,0.00671 0.19848,0.01437 0.29768,0.0229l-0.00462,-0.11469l1.99211,-0.08021c0.01541,-0.00071 0.03092,-0.00106 0.04651,-0.00106c0.55228,0 1,0.44772 1,1c0,0.31024 -0.14128,0.58748 -0.36301,0.7709l-0.87892,0.73722l-0.02585,-0.03082l-0.06397,0.09796c-1.04775,0.54372 -3.19843,2.00259 -5.18028,2.96632c-0.01451,0.34912 -0.20801,0.65202 -0.49115,0.81932l-1.68937,1.03695l-0.00613,-0.00999l-0.02666,0.02926c-0.85851,0.44127 -1.6774,0.90089 -2.48474,1.33871c0.00387,0.03577 0.00586,0.0721 0.00586,0.10889c0,0.38499 -0.21756,0.71917 -0.53644,0.8863l-1.47249,0.80844c-3.20848,1.75828 -7.00679,3.72369 -10.72999,4.31772l0.08665,0.28696l-1.45195,0.43844c-0.09799,0.03207 -0.20264,0.04942 -0.31134,0.04942c-0.55228,0 -1,-0.44772 -1,-1c0,-0.37741 0.20908,-0.70599 0.51773,-0.87623l1.568,-0.90278c0.49845,-0.28698 1.04245,-0.63928 1.61625,-1.00897c-0.54334,0.08506 -1.0897,0.15482 -1.64249,0.20446l0.05765,0.24792l-1.92667,0.44803c-0.07926,0.02021 -0.1623,0.03095 -0.24785,0.03095c-0.55228,0 -1,-0.44772 -1,-1c0,-0.41554 0.25346,-0.77189 0.61422,-0.92287l1.15417,-0.51371l-0.78417,0.24549c-0.10076,0.03413 -0.20872,0.05264 -0.32101,0.05264c-0.55228,0 -1,-0.44772 -1,-1c0,-0.41968 0.25853,-0.77898 0.62503,-0.92732l1.81528,-0.78309l0.00095,0.0022zM286.51899,191.72168c-0.05793,0.00893 -0.11587,0.01767 -0.17384,0.02624c-0.02426,0.01003 -0.04853,0.02006 -0.07279,0.0301l-0.08059,0.03477l0.01865,0.05958c0.10068,-0.04822 0.20359,-0.09854 0.30857,-0.15068z" fill="#0033b3" stroke="none" stroke-width="0.5" stroke-linecap="butt"></path></g></g></svg>