<svg version="1.1" xmlns="http://www.w3.org/2000/svg" xmlns:xlink="http://www.w3.org/1999/xlink" width="95.72419" height="80.5" viewBox="0,0,95.72419,80.5"><g transform="translate(-184.52581,-139.75)"><g data-paper-data="{&quot;isPaintingLayer&quot;:true}" fill-rule="nonzero" stroke-linejoin="miter" stroke-miterlimit="10" stroke-dasharray="" stroke-dashoffset="0" style="mix-blend-mode: normal"><path d="" data-paper-data="{&quot;index&quot;:null}" fill="none" stroke="#000000" stroke-width="1.5" stroke-linecap="round"></path><path d="" data-paper-data="{&quot;index&quot;:null}" fill="none" stroke="#000000" stroke-width="1.5" stroke-linecap="round"></path><path d="M200.5,180c0,-21.81525 17.68475,-39.5 39.5,-39.5c21.81525,0 39.5,17.68475 39.5,39.5c0,21.81525 -17.68475,39.5 -39.5,39.5c-21.81525,0 -39.5,-17.68475 -39.5,-39.5z" fill="#d8d8d8" stroke="#000000" stroke-width="1.5" stroke-linecap="butt"></path><path d="M253.0852,194.16859c0,0 -22.12613,8.02511 -27.57511,5.13694" data-paper-data="{&quot;index&quot;:null}" fill="none" stroke="#000000" stroke-width="1.5" stroke-linecap="round"></path><path d="M209.96367,151.59824l30.4778,11.59453l29.86751,-10.0822c0,0 4.11377,7.78425 5.23491,11.63853c1.0766,3.70117 2.71517,10.48332 2.71517,10.48332l-37.8176,16.19051l-40.59597,-17.86909c0,0 1.86631,-6.82746 3.08968,-10.37897c1.31662,-3.8222 7.02849,-11.57662 7.02849,-11.57662z" fill="#595959" stroke="#000000" stroke-width="0.5" stroke-linecap="round"></path><path d="M235.68216,173.7163c5.0094,5.46296 -2.672,2.95529 -7.16196,2.95529c-4.48996,0 -8.12978,-8.86587 -8.12978,-8.86587c0,0 10.28234,0.44762 15.29174,5.91058z" fill="#ffffff" stroke="none" stroke-width="0" stroke-linecap="butt"></path><path d="M259.76126,167.86341c0,0 -3.63983,8.86587 -8.12978,8.86587c-4.48996,0 -12.17135,2.50768 -7.16195,-2.95529c5.0094,-5.46296 15.29173,-5.91058 15.29173,-5.91058z" data-paper-data="{&quot;index&quot;:null}" fill="#ffffff" stroke="none" stroke-width="0" stroke-linecap="butt"></path><path d="M184.52581,194.65338" fill="none" stroke="#d8d8d8" stroke-width="4" stroke-linecap="round"></path><g fill="#ff0000" stroke="#ff0000" stroke-width="0.5" stroke-linecap="round"><path d="M235.77082,206.47309l-34.72879,-18.88539l0.69,-1.75984l41.15344,10.45473l13.28511,10.62304z"></path><path d="M224.11175,210.51438l-21.52846,-23.62783l2.12412,-1.11294l34.9854,19.16117l5.53511,11.55745z"></path><path d="M239.52015,198.76266l-38.75883,-14.94254l-0.10288,-1.95272l41.05355,5.14271l16.21635,9.2971z"></path></g></g></g></svg>