<svg version="1.1" xmlns="http://www.w3.org/2000/svg" xmlns:xlink="http://www.w3.org/1999/xlink" width="156.71454" height="95.86343" viewBox="0,0,156.71454,95.86343"><g transform="translate(-122.52399,-137.92395)"><g data-paper-data="{&quot;isPaintingLayer&quot;:true}" fill-rule="nonzero" stroke-linejoin="miter" stroke-miterlimit="10" stroke-dasharray="" stroke-dashoffset="0" style="mix-blend-mode: normal"><g><path d="M204.93108,201.6386l-51.63707,10.49599l-0.8389,-3.7949l51.63707,-10.49599z" fill="#7f7600" stroke="#000000" stroke-width="0" stroke-linecap="butt"></path><path d="M144.83277,219.47847c-3.97621,0.8386 -7.98225,-1.91754 -8.94771,-6.15604c-0.96546,-4.23848 1.47522,-8.35428 5.45146,-9.19287c3.97621,-0.8386 7.98225,1.91754 8.94771,6.15604c0.96546,4.23848 -1.47522,8.35428 -5.45146,9.19287z" fill="none" stroke="#ffee00" stroke-width="5" stroke-linecap="butt"></path><path d="M135.92944,216.5899c0,0 -8.99909,2.82867 -10.15545,-1.23431c-1.15636,-4.06298 8.46185,-4.56498 8.46185,-4.56498" fill="none" stroke="#ffee00" stroke-width="6.5" stroke-linecap="round"></path><path d="M138.48417,204.70302c0,0 -3.0673,-9.63258 0.73436,-10.68047c3.80166,-1.04788 4.69009,9.13925 4.69009,9.13925" fill="none" stroke="#ffee00" stroke-width="6.5" stroke-linecap="round"></path><path d="M150.49183,207.67075c0,0 8.99909,-2.82867 10.15546,1.2343c1.15636,4.06298 -8.46185,4.56498 -8.46185,4.56498" fill="none" stroke="#ffee00" stroke-width="6.5" stroke-linecap="round"></path><path d="M147.20783,219.85691c0,0 3.0673,9.63258 -0.73437,10.68047c-3.80166,1.04789 -4.69009,-9.13924 -4.69009,-9.13924" fill="none" stroke="#ffee00" stroke-width="6.5" stroke-linecap="round"></path></g><path d="" data-paper-data="{&quot;index&quot;:null}" fill="none" stroke="#000000" stroke-width="1.5" stroke-linecap="round"></path><path d="M199.48853,178.17395c0,-21.81525 17.68475,-39.5 39.5,-39.5c21.81525,0 39.5,17.68475 39.5,39.5c0,21.81525 -17.68475,39.5 -39.5,39.5c-21.81525,0 -39.5,-17.68475 -39.5,-39.5z" fill="#d8d8d8" stroke="#000000" stroke-width="1.5" stroke-linecap="butt"></path><path d="M253.0852,194.16859c0,0 -22.12613,8.02511 -27.57511,5.13694" data-paper-data="{&quot;index&quot;:null}" fill="none" stroke="#000000" stroke-width="1.5" stroke-linecap="round"></path><path d="M184.52581,194.65338" fill="none" stroke="#d8d8d8" stroke-width="4" stroke-linecap="round"></path><path d="M232.30735,175.42396v-8" fill="none" stroke="#000000" stroke-width="1.5" stroke-linecap="round"></path><path d="M241.28665,173.49279c0,0 1.27486,-2.93117 2.69835,-2.93117c1.20746,0 3.02185,2.93117 3.02185,2.93117" fill="none" stroke="#000000" stroke-width="1.5" stroke-linecap="round"></path></g></g></svg>