<svg version="1.1" xmlns="http://www.w3.org/2000/svg" xmlns:xlink="http://www.w3.org/1999/xlink" width="159.34095" height="81.09965" viewBox="0,0,159.34095,81.09965"><g transform="translate(-379.23422,-140.37079)"><g data-paper-data="{&quot;isPaintingLayer&quot;:true}" fill-rule="nonzero" stroke-linejoin="miter" stroke-miterlimit="10" stroke-dasharray="" stroke-dashoffset="0" style="mix-blend-mode: normal"><path d="" data-paper-data="{&quot;index&quot;:null}" fill="none" stroke="#000000" stroke-width="1.5" stroke-linecap="round"/><path d="" data-paper-data="{&quot;index&quot;:null}" fill="none" stroke="#000000" stroke-width="1.5" stroke-linecap="round"/><path d="" data-paper-data="{&quot;index&quot;:null}" fill="none" stroke="#000000" stroke-width="1.5" stroke-linecap="round"/><path d="" data-paper-data="{&quot;index&quot;:null}" fill="none" stroke="#000000" stroke-width="1.5" stroke-linecap="round"/><path d="" data-paper-data="{&quot;index&quot;:null}" fill="none" stroke="#000000" stroke-width="1.5" stroke-linecap="round"/><path d="M538.57517,194.427" data-paper-data="{&quot;index&quot;:null}" fill="none" stroke="#d8d8d8" stroke-width="4" stroke-linecap="round"/><path d="M481.20089,220.12079c-21.81525,0 -39.5,-17.68475 -39.5,-39.5c0,-21.81525 17.68475,-39.5 39.5,-39.5c21.81525,0 39.5,17.68475 39.5,39.5c0,21.81525 -17.68475,39.5 -39.5,39.5z" fill="#d8d8d8" stroke="#000000" stroke-width="1.5" stroke-linecap="butt"/><path d="M469.23032,168.76326l-17.15344,-6.06646" fill="none" stroke="#000000" stroke-width="1.5" stroke-linecap="round"/><path d="M462.91576,171.85073l0.20919,7.1124" fill="none" stroke="#000000" stroke-width="1.5" stroke-linecap="round"/><path d="M470.36228,167.40912l12.04734,-0.73331" fill="none" stroke="#000000" stroke-width="1.5" stroke-linecap="round"/><path d="M475.86714,171.93312l-0.20919,6.69403" fill="none" stroke="#000000" stroke-width="1.5" stroke-linecap="round"/><path d="M477.39081,185.81599c0,0 -2.44712,6.39517 -6.00657,7.52772c-3.85628,1.227 -16.31203,-0.42635 -16.31203,-0.42635" fill="none" stroke="#000000" stroke-width="1.5" stroke-linecap="round"/><g><path d="" data-paper-data="{&quot;index&quot;:null}" fill="none" stroke="#000000" stroke-width="1.5" stroke-linecap="round"/><path d="" data-paper-data="{&quot;index&quot;:null}" fill="none" stroke="#000000" stroke-width="1.5" stroke-linecap="round"/><path d="" data-paper-data="{&quot;index&quot;:null}" fill="none" stroke="#000000" stroke-width="1.5" stroke-linecap="round"/><path d="" data-paper-data="{&quot;index&quot;:null}" fill="none" stroke="#000000" stroke-width="1.5" stroke-linecap="round"/><path d="" data-paper-data="{&quot;index&quot;:null}" fill="none" stroke="#000000" stroke-width="1.5" stroke-linecap="round"/><path d="M417.93167,182.48114" data-paper-data="{&quot;index&quot;:null}" fill="none" stroke="#d8d8d8" stroke-width="4" stroke-linecap="round"/><g stroke-width="0" stroke-linecap="butt"><path d="M379.23422,186.83764l11.57625,-8.4577l2.37071,6.46909z" fill="#aeaeae" stroke="none"/><path d="M399.20268,166.34608l-2.77424,-7.57019l11.69939,-4.28746l2.77424,7.57019z" fill="#a7ed95" stroke="none"/><path d="M423.44143,216.23236l-10.59252,-28.90439l1.92696,-0.70617l10.59252,28.90439z" fill="#c2c2c2" stroke="none"/><path d="M422.08239,221.47044l-1.83405,-5.00466l8.12075,-2.97599l1.83405,5.00466z" fill="#a6a6a6" stroke="#000000"/><path d="M394.43246,194.65381l-9.18613,-25.06667l39.64031,-14.52691l9.18613,25.06667z" fill="#73a367" stroke="none"/><path d="M427.58818,172.80874l-2.37071,-6.46909l14.30005,-1.02515z" data-paper-data="{&quot;index&quot;:null}" fill="#aeaeae" stroke="none"/></g></g></g></g></svg>