<svg version="1.1" xmlns="http://www.w3.org/2000/svg" xmlns:xlink="http://www.w3.org/1999/xlink" width="87.78368" height="80.5" viewBox="0,0,87.78368,80.5"><defs><radialGradient cx="213.52534" cy="169.7394" r="21.05899" gradientUnits="userSpaceOnUse" id="color-1"><stop offset="0" stop-color="#bd50fb"></stop><stop offset="1" stop-color="#a200ff"></stop></radialGradient></defs><g transform="translate(-192.46634,-139.75)"><g data-paper-data="{&quot;isPaintingLayer&quot;:true}" fill-rule="nonzero" stroke-linejoin="miter" stroke-miterlimit="10" stroke-dasharray="" stroke-dashoffset="0" style="mix-blend-mode: normal"><path d="M192.46634,169.7394c0,-11.63057 9.42843,-21.05899 21.05899,-21.05899c11.63057,0 21.05899,9.42843 21.05899,21.05899c0,11.63057 -9.42843,21.05899 -21.05899,21.05899c-11.63057,0 -21.05899,-9.42843 -21.05899,-21.05899z" fill="url(#color-1)" stroke="none" stroke-width="NaN" stroke-linecap="butt"></path><path d="" data-paper-data="{&quot;index&quot;:null}" fill="none" stroke="#000000" stroke-width="1.5" stroke-linecap="round"></path><path d="M200.50001,180c0,-21.81525 17.68475,-39.5 39.5,-39.5c21.81525,0 39.5,17.68475 39.5,39.5c0,21.81525 -17.68475,39.5 -39.5,39.5c-21.81525,0 -39.5,-17.68475 -39.5,-39.5z" data-paper-data="{&quot;index&quot;:null}" fill="#d8d8d8" stroke="#000000" stroke-width="1.5" stroke-linecap="butt"></path><path d="M225.96054,176.85447l-0.23199,-9.82029" data-paper-data="{&quot;index&quot;:null}" fill="none" stroke="#000000" stroke-width="1.5" stroke-linecap="round"></path><path d="M236.18539,176.78206l-0.23199,-9.82029" data-paper-data="{&quot;index&quot;:null}" fill="none" stroke="#000000" stroke-width="1.5" stroke-linecap="round"></path><path d="" data-paper-data="{&quot;index&quot;:null}" fill="none" stroke="#000000" stroke-width="1.5" stroke-linecap="round"></path><path d="" data-paper-data="{&quot;index&quot;:null}" fill="none" stroke="#000000" stroke-width="1.5" stroke-linecap="round"></path></g></g></svg>