<svg version="1.1" xmlns="http://www.w3.org/2000/svg" xmlns:xlink="http://www.w3.org/1999/xlink" width="142.95258" height="107.68429" viewBox="0,0,142.95258,107.68429"><g transform="translate(-386.97136,-140.37075)"><g data-paper-data="{&quot;isPaintingLayer&quot;:true}" fill-rule="nonzero" stroke-linejoin="miter" stroke-miterlimit="10" stroke-dasharray="" stroke-dashoffset="0" style="mix-blend-mode: normal"><path d="" data-paper-data="{&quot;index&quot;:null}" fill="none" stroke="#000000" stroke-width="1.5" stroke-linecap="round"/><path d="" data-paper-data="{&quot;index&quot;:null}" fill="none" stroke="#000000" stroke-width="1.5" stroke-linecap="round"/><path d="" data-paper-data="{&quot;index&quot;:null}" fill="none" stroke="#000000" stroke-width="1.5" stroke-linecap="round"/><path d="" data-paper-data="{&quot;index&quot;:null}" fill="none" stroke="#000000" stroke-width="1.5" stroke-linecap="round"/><path d="" data-paper-data="{&quot;index&quot;:null}" fill="none" stroke="#000000" stroke-width="1.5" stroke-linecap="round"/><path d="M529.92393,195.4756" data-paper-data="{&quot;index&quot;:null}" fill="none" stroke="#d8d8d8" stroke-width="4" stroke-linecap="round"/><path d="M481.20089,220.12075c-21.81525,0 -39.5,-17.68475 -39.5,-39.5c0,-21.81525 17.68475,-39.5 39.5,-39.5c21.81525,0 39.5,17.68475 39.5,39.5c0,21.81525 -17.68475,39.5 -39.5,39.5z" fill="#d8d8d8" stroke="#000000" stroke-width="1.5" stroke-linecap="butt"/><path d="M452.07688,162.69675l17.15344,6.06646" fill="none" stroke="#000000" stroke-width="1.5" stroke-linecap="round"/><path d="M462.91576,171.85069l0.20919,7.1124" fill="none" stroke="#000000" stroke-width="1.5" stroke-linecap="round"/><path d="M482.40962,166.67575l-12.04734,0.73331" fill="none" stroke="#000000" stroke-width="1.5" stroke-linecap="round"/><path d="M475.86714,171.93308l-0.20919,6.69403" fill="none" stroke="#000000" stroke-width="1.5" stroke-linecap="round"/><path d="M477.39081,185.81595c0,0 -2.44712,6.39517 -6.00657,7.52772c-3.85628,1.227 -16.31203,-0.42635 -16.31203,-0.42635" fill="none" stroke="#000000" stroke-width="1.5" stroke-linecap="round"/><g><path d="" data-paper-data="{&quot;index&quot;:null}" fill="none" stroke="#000000" stroke-width="1.5" stroke-linecap="round"/><path d="" data-paper-data="{&quot;index&quot;:null}" fill="none" stroke="#000000" stroke-width="1.5" stroke-linecap="round"/><path d="" data-paper-data="{&quot;index&quot;:null}" fill="none" stroke="#000000" stroke-width="1.5" stroke-linecap="round"/><path d="" data-paper-data="{&quot;index&quot;:null}" fill="none" stroke="#000000" stroke-width="1.5" stroke-linecap="round"/><path d="" data-paper-data="{&quot;index&quot;:null}" fill="none" stroke="#000000" stroke-width="1.5" stroke-linecap="round"/><path d="M418.29807,212.47162" data-paper-data="{&quot;index&quot;:null}" fill="none" stroke="#d8d8d8" stroke-width="4" stroke-linecap="round"/><g stroke-width="0" stroke-linecap="butt"><path d="M402.47747,248.05504l-1.43854,-14.2644l6.77948,1.22804z" fill="#aeaeae" stroke="none"/><path d="M394.90478,220.46342l-7.93342,-1.43704l2.2209,-12.26074l7.93342,1.43704z" fill="#a7ed95" stroke="none"/><path d="M450.1985,224.79499l-30.29124,-5.48694l0.36579,-2.01941l30.29124,5.48694z" fill="#c2c2c2" stroke="none"/><path d="M454.02913,228.61738l-5.24478,-0.95003l1.54157,-8.51039l5.24478,0.95003z" fill="#a6a6a6" stroke="#000000"/><path d="M416.9088,238.89995l-26.26938,-4.75842l7.52493,-41.54227l26.26938,4.75842z" fill="#73a367" stroke="none"/><path d="M414.84051,199.24859l-6.77948,-1.22804l6.35063,-12.85348z" data-paper-data="{&quot;index&quot;:null}" fill="#aeaeae" stroke="none"/></g></g></g></g></svg>