<svg version="1.1" xmlns="http://www.w3.org/2000/svg" xmlns:xlink="http://www.w3.org/1999/xlink" width="118.3753" height="107.27579" viewBox="0,0,118.3753,107.27579"><g transform="translate(-161.87471,-112.97421)"><g data-paper-data="{&quot;isPaintingLayer&quot;:true}" fill-rule="nonzero" stroke-linejoin="miter" stroke-miterlimit="10" stroke-dasharray="" stroke-dashoffset="0" style="mix-blend-mode: normal"><path d="" data-paper-data="{&quot;index&quot;:null}" fill="none" stroke="#000000" stroke-width="1.5" stroke-linecap="round"></path><path d="" data-paper-data="{&quot;index&quot;:null}" fill="none" stroke="#000000" stroke-width="1.5" stroke-linecap="round"></path><path d="M200.5,180c0,-21.81525 17.68475,-39.5 39.5,-39.5c21.81525,0 39.5,17.68475 39.5,39.5c0,21.81525 -17.68475,39.5 -39.5,39.5c-21.81525,0 -39.5,-17.68475 -39.5,-39.5z" fill="#d8d8d8" stroke="#000000" stroke-width="1.5" stroke-linecap="butt"></path><path d="M253.0852,194.16859c0,0 -22.12613,8.02511 -27.57511,5.13694" data-paper-data="{&quot;index&quot;:null}" fill="none" stroke="#000000" stroke-width="1.5" stroke-linecap="round"></path><path d="M209.96367,151.59824l30.4778,11.59453l29.86751,-10.0822c0,0 4.11377,7.78425 5.23491,11.63853c1.0766,3.70117 2.71517,10.48332 2.71517,10.48332l-37.8176,16.19051l-40.59597,-17.86909c0,0 1.86631,-6.82746 3.08968,-10.37897c1.31662,-3.8222 7.02849,-11.57662 7.02849,-11.57662z" fill="#595959" stroke="#000000" stroke-width="0.5" stroke-linecap="round"></path><path d="M235.68216,173.7163c5.0094,5.46296 -2.672,2.95529 -7.16196,2.95529c-4.48996,0 -8.12978,-8.86587 -8.12978,-8.86587c0,0 10.28234,0.44762 15.29174,5.91058z" fill="#ffffff" stroke="none" stroke-width="0" stroke-linecap="butt"></path><path d="M259.76126,167.86341c0,0 -3.63983,8.86587 -8.12978,8.86587c-4.48996,0 -12.17135,2.50768 -7.16195,-2.95529c5.0094,-5.46296 15.29173,-5.91058 15.29173,-5.91058z" data-paper-data="{&quot;index&quot;:null}" fill="#ffffff" stroke="none" stroke-width="0" stroke-linecap="butt"></path><path d="M184.52581,194.65338" fill="none" stroke="#d8d8d8" stroke-width="4" stroke-linecap="round"></path><path d="M221.22105,151.6625c-2.37493,-0.78084 -1.59409,-3.15577 -1.59409,-3.15577l0.83319,-2.53416c0.22683,-0.68841 0.4064,-1.3939 0.56513,-2.1066c-1.0777,1.45158 -2.15175,2.90576 -3.21773,4.36557c-0.00799,0.01095 -5.82473,8.10409 -5.82552,8.10485l-2.89912,4.03339c-0.45206,0.64546 -1.20132,1.0675 -2.04915,1.0675c-1.38071,0 -2.5,-1.11929 -2.5,-2.5c0,-0.40174 0.09476,-0.78134 0.26314,-1.11768l1.5775,-3.32958c1.68955,-3.71967 3.56746,-7.42574 5.18674,-11.19707c-3.81577,5.00482 -7.89068,9.82768 -12.40818,14.10414l0.30799,0.25576l-3.18192,3.83163c-0.45846,0.56023 -1.15533,0.91778 -1.93571,0.91778c-1.38071,0 -2.5,-1.11929 -2.5,-2.5v-2.57325l0.06419,0l-0.05776,-0.17925c1.14676,-8.01979 2.31113,-16.03707 3.46987,-24.05514c0.23838,-1.64953 0.4586,-3.30179 0.71515,-4.94859c0.22027,-1.41391 0.52723,-2.81434 0.71523,-4.2329c0.06693,-0.50499 0.5488,-1.62166 0.04819,-1.52744c-0.88282,0.16615 -1.29933,1.24125 -1.92945,1.88151c-2.14102,2.17549 -4.23382,4.39794 -6.36151,6.58646c-2.40854,2.47739 -4.83143,4.90304 -7.21222,7.3475c-1.33353,3.34915 -2.67998,6.69334 -4.0464,10.03004c-0.98781,2.41215 -1.67278,5.55037 -3.00011,8.10495c0.24364,-0.21392 0.48644,-0.42851 0.7246,-0.64729c1.89345,-1.73934 3.68379,-3.59871 5.68466,-5.21331c1.5105,-1.2189 2.86822,-3.81147 4.75588,-3.35971c8.52297,2.03972 4.61865,11.55916 3.77914,16.6803c-0.45459,2.76833 -0.98525,5.52545 -1.59075,8.26518c1.73677,-2.04232 3.91474,-3.80526 6.07116,-5.25672c1.35764,-0.91381 3.01406,-3.08246 4.39048,-2.1972c2.03621,1.30961 1.93412,4.44683 2.68559,6.74825c0.36398,1.11471 0.7705,2.29177 0.64696,3.45787c-0.05519,0.52095 -2.8111,9.3734 -3.06418,10.18398c-0.52508,1.68181 -1.05263,3.36288 -1.58179,5.04346c0.53558,-0.44391 1.3539,-0.76025 2.49222,-0.26673c2.29371,0.99443 1.29928,3.28814 1.29928,3.28814l-1.26306,2.74803c-1.96732,2.64822 -3.49965,5.68362 -5.90195,7.94467l-2.96383,3.98964c-0.45435,0.62606 -1.19197,1.03319 -2.02469,1.03319c-1.38071,0 -2.5,-1.11929 -2.5,-2.5c0,-0.38461 0.08685,-0.74893 0.24201,-1.07442l1.983,-4.41044c1.80899,-5.76384 3.64565,-11.51912 5.44602,-17.28565c0.93039,-2.98003 2.44104,-5.82797 2.84227,-8.92397c0.12784,-0.98648 -0.15965,-2.06499 -0.26218,-3.08605c-0.90222,0.8582 -1.99728,1.54015 -2.93859,2.3625c-1.32362,1.15635 -2.77378,2.16284 -4.29803,3.05812l0.28603,0.42424l-4.11808,2.77646c-0.40431,0.28104 -0.89553,0.44578 -1.42524,0.44578c-1.38071,0 -2.5,-1.11929 -2.5,-2.5c0,-0.21448 0.02701,-0.42264 0.07781,-0.62129l1.12325,-4.81588c0.74501,-3.1901 1.38312,-6.40707 1.91216,-9.64002c0.26962,-1.64471 0.50011,-3.29632 0.80886,-4.93414c0.24657,-1.308 0.86019,-2.56915 0.85649,-3.90019c-0.00207,-0.74281 -0.13037,-2.03716 -0.87307,-2.05029c-0.74619,-0.01319 -0.4872,1.44892 -0.97038,2.0177c-0.64109,0.75465 -4.50946,4.224 -5.80709,5.32453c-1.49031,1.26394 -2.61996,3.23179 -4.50314,3.75352c-1.96695,0.54493 -5.02506,0.92985 -6.06729,-0.82504c-0.8527,-1.43576 2.43232,-9.86412 3.15935,-11.73957c0.20661,-0.53297 0.41377,-1.06574 0.62144,-1.59833c-1.7562,2.16506 -3.42989,4.41059 -4.99004,6.77535c0,0 -1.37674,2.08676 -3.46351,0.71002c-2.08676,-1.37674 -0.71002,-3.46351 -0.71002,-3.46351c4.21943,-6.39548 9.25555,-12.08419 14.54073,-17.5755c2.78918,-6.95282 5.59736,-13.89915 8.32009,-20.87698c0,0 0.90876,-2.32898 3.23774,-1.42022c2.32898,0.90876 1.42022,3.23774 1.42022,3.23774c-1.27242,3.26096 -2.54263,6.52232 -3.81708,9.78181c0.79746,-0.80439 1.5933,-1.61081 2.38566,-2.42091c2.0904,-2.13718 6.2339,-7.25314 9.98871,-6.13532c4.96902,1.47929 2.95839,8.45777 2.58705,11.21322c-1.03165,7.65521 -2.17511,15.29847 -3.30624,22.94122c1.25893,-1.68607 2.82101,-3.22488 4.32591,-5.03707c4.90231,-5.9033 9.51269,-11.75114 13.89433,-18.05122l1.42866,-2.05419c0.44931,-0.66472 1.20997,-1.10171 2.07269,-1.10171c1.38071,0 2.5,1.11929 2.5,2.5c0,0.29376 -0.05067,0.57569 -0.14374,0.83752l-1.5459,4.6936c-0.21489,1.43819 -0.55285,2.87938 -0.98156,4.3181c1.16432,-1.56169 2.32937,-3.12277 3.48968,-4.68698l1.81439,-2.44598c0.45425,-0.62693 1.19241,-1.03473 2.0258,-1.03473c1.38071,0 2.5,1.11929 2.5,2.5c0,0.20422 -0.02449,0.40272 -0.07068,0.59273l-1.06869,4.82933l-0.43982,-0.09733c-0.30887,3.19477 -1.01236,6.14229 -2.2682,9.96976l-0.83319,2.53416c0,0 -0.78084,2.37493 -3.15577,1.59409z" fill="#ff0000" stroke="none" stroke-width="0.5" stroke-linecap="butt"></path></g></g></svg>