<svg version="1.1" xmlns="http://www.w3.org/2000/svg" xmlns:xlink="http://www.w3.org/1999/xlink" width="600.8812" height="453.73367" viewBox="0,0,600.8812,453.73367"><g transform="translate(60.4406,46.86683)"><g data-paper-data="{&quot;isPaintingLayer&quot;:true}" fill-rule="nonzero" stroke="none" stroke-linecap="butt" stroke-linejoin="miter" stroke-miterlimit="10" stroke-dasharray="" stroke-dashoffset="0" style="mix-blend-mode: normal"><path d="M-60.4406,406.86684v-453.73367h600.8812v453.73367z" fill="#000000" stroke-width="NaN"></path><path d="M232.75001,197.16385c0.00281,-0.74999 0.7528,-0.74719 0.7528,-0.74719l0.06183,0.00023c1.93776,0.00726 4.22624,-0.30813 6.12993,0.03432c1.39977,0.2518 2.85043,0.82775 4.27029,1.42902c0.73967,-0.91244 1.48729,-1.81747 2.24532,-2.71263c0.05686,-0.06714 0.1132,-0.13395 0.16907,-0.20042c1.02464,-1.36442 2.05767,-2.72269 3.0982,-4.07728c-0.53362,-0.34927 -1.0628,-0.70258 -1.59229,-1.03041c-3.12927,-1.93745 -6.13517,-3.76709 -9.3078,-5.38201c-2.46123,0.9998 -4.92215,2.00031 -7.38262,3.00191c-5.47017,4.06456 -11.79414,7.13261 -17.85659,9.81132c-3.19475,1.41161 -6.26302,3.07686 -9.32894,4.74865c1.68004,-0.82544 3.33642,-1.78542 4.93355,-2.54248c5.87795,-2.78625 11.76985,-5.65551 17.8395,-7.99792c2.79881,-1.08012 5.59762,-2.16025 8.39643,-3.24037l1.38338,-0.53388c0.08815,-0.0364 0.18476,-0.05648 0.28606,-0.05648c0.41421,0 0.75,0.33579 0.75,0.75c0,0.27997 -0.1534,0.52411 -0.38074,0.65295l-1.27956,0.75555l-0.09409,-0.15934c-2.31295,1.88274 -5.0918,3.19793 -7.69494,4.68807c-1.53907,0.88103 -3.07815,1.76206 -4.61722,2.6431c0.85252,0.12465 1.70503,0.24942 2.55753,0.37423c0.25771,-0.07167 0.51555,-0.14274 0.77353,-0.21315c0.46732,-0.26636 0.94217,-0.51806 1.42703,-0.75038l-0.08925,-0.13648l1.24647,-0.81515c0.11972,-0.0809 0.26405,-0.12814 0.41941,-0.12814c0.41421,0 0.75,0.33579 0.75,0.75c0,0.16234 -0.05158,0.31264 -0.13925,0.43539l-0.85004,1.2245l-0.0812,-0.05637l-0.07462,0.18492c4.27101,0.62503 8.54259,1.24646 12.81402,1.86899c0.11541,-0.08149 0.22028,-0.13387 0.31096,-0.14971c0.13252,-0.16698 0.26526,-0.33376 0.39822,-0.50034c-1.19328,-0.49847 -2.40063,-0.94983 -3.56541,-1.15936c-1.81393,-0.32631 -4.022,-0.00371 -5.86998,-0.01063l-0.06183,-0.00023c0,0 -0.74999,-0.00281 -0.74719,-0.7528zM290.44052,212.89774c6.18278,1.96052 12.33851,4.0879 18.56941,5.88851c0.3579,0.10343 0.71731,0.20116 1.07758,0.29518c-3.39402,-1.81528 -6.78049,-3.64508 -10.1894,-5.43164c-9.30017,-4.8741 -18.60034,-9.7482 -27.90051,-14.6223c-2.47077,-1.2949 -4.91661,-2.6128 -7.34165,-3.95711c-1.24112,2.48765 -2.48475,4.9728 -3.7333,7.45518c9.81655,3.53404 19.57154,7.21826 29.51787,10.37218zM244.60165,183.0294c-0.12874,-0.23037 -0.26342,-0.46261 -0.4011,-0.69652c-1.27258,0.49163 -2.56633,0.93488 -3.79126,1.40765c2.79223,1.48205 5.48299,3.12086 8.26549,4.84361c0.34605,0.21425 1.04345,0.5634 1.82705,0.97638c0.48648,-0.6294 0.97451,-1.25817 1.46401,-1.88656c-2.46782,-1.51159 -4.92098,-3.05849 -7.3642,-4.64457zM248.3417,177.01706c0.06874,0.00606 0.13747,0.01218 0.20619,0.01836c-1.52073,-0.32327 -3.02617,-0.65854 -4.60816,-0.87599c-1.27537,-0.1753 -2.55229,-0.33805 -3.83021,-0.49263c0.88878,0.25669 1.78679,0.52907 2.69142,0.80869c1.72321,-0.09385 4.80242,0.47646 5.54076,0.54157zM281.04125,181.96423c-0.23139,-0.25327 -0.46277,-0.50654 -0.69415,-0.75982c-0.23842,0.17553 -0.47685,0.35105 -0.71527,0.52658c0.46981,0.07775 0.93961,0.1555 1.40942,0.23324zM274.15261,173.25491l-0.9068,-1.18594c-0.09933,-0.12721 -0.15852,-0.28729 -0.15852,-0.4612c0,-0.41421 0.33579,-0.75 0.75,-0.75c0.1201,0 0.23361,0.02823 0.33426,0.07842l1.34236,0.63333l-0.0513,0.10873c2.69849,0.80633 5.17898,2.07426 7.56752,3.53652c-0.89797,-2.15612 -1.78532,-4.30241 -2.72855,-6.36574c-1.66304,-3.6379 -3.32608,-7.2758 -4.98912,-10.91369c-0.7891,-1.72616 -2.14259,-3.75964 -2.54528,-5.6091c-0.60141,-2.7621 -0.01717,-6.32537 -0.01717,-9.15956c0,0 0,-0.75 0.75,-0.75c0.75,0 0.75,0.75 0.75,0.75c0,2.71869 -0.59284,6.19654 -0.01717,8.84044c0.37822,1.73707 1.70139,3.6805 2.44383,5.30459c1.66304,3.6379 3.32608,7.2758 4.98912,10.91369c1.14019,2.49416 2.19726,5.11278 3.29136,7.72249c6.98089,-5.1393 13.96178,-10.27861 20.94266,-15.41791c8.45569,-6.22505 16.91139,-12.4501 25.36708,-18.67515c8.45569,-6.22505 16.91139,-12.4501 25.36708,-18.67515c2.01623,-1.48434 4.03246,-2.96868 6.04869,-4.45302c0.37749,-0.38711 0.75497,-0.77422 1.13246,-1.16133c0.96224,-0.98678 2.1179,-2.62845 3.2896,-3.33937c0.49825,-0.30231 1.04588,-0.44445 1.6088,-0.50975l1.41949,-0.42783c0.07338,-0.02398 0.15174,-0.03694 0.23313,-0.03694c0.41421,0 0.75,0.33579 0.75,0.75c0,0.25106 -0.12336,0.47332 -0.31278,0.60944c-1.97733,1.4557 -5.15518,3.79523 -7.13251,5.25093c-2.38654,2.44738 -4.77308,4.89476 -7.15962,7.34214l-0.47426,0.48635c0,0 -0.52361,0.53696 -1.06058,0.01335c-0.53696,-0.52361 -0.01335,-1.06058 -0.01335,-1.06058c0.26894,-0.2758 1.01213,-1.03794 1.28107,-1.31373c-8.02931,5.91115 -16.05862,11.8223 -24.08793,17.73345c-8.45569,6.22505 -16.91139,12.4501 -25.36708,18.67515c-6.95265,5.11851 -13.9053,10.23703 -20.85794,15.35554c3.37528,2.27979 6.66639,4.73668 10.25437,6.56267l1.32251,0.67307c0.251,0.12127 0.42414,0.37826 0.42414,0.6757c0,0.39272 -0.30185,0.71495 -0.6862,0.74732l-1.48513,0.14281l-0.02929,-0.30463c-2.18805,0.18544 -4.34977,-0.33446 -6.60263,-0.75588c0.19833,0.35522 0.40051,0.70686 0.60694,1.05449c1.98683,3.34585 4.8148,6.41999 7.15006,9.53726c1.225,1.63522 2.48146,3.20888 3.48779,4.9894l0.73016,1.29495c0.06563,0.11144 0.10327,0.24134 0.10327,0.38003c0,0.41421 -0.33579,0.75 -0.75,0.75c-0.22022,0 -0.41827,-0.09491 -0.55548,-0.24607l-1.01017,-1.10497l0.13116,-0.11991c-2.30842,-1.88206 -4.18716,-4.31676 -6.20378,-6.52263c-3.3801,-3.69733 -6.76123,-7.39372 -10.14078,-11.09156c-1.57748,-0.26106 -3.15496,-0.52211 -4.73244,-0.78317c-4.35553,3.20652 -8.71105,6.41304 -13.06658,9.61957c0.07841,-0.02781 0.16282,-0.04295 0.25077,-0.04295c0.41421,0 0.75,0.33579 0.75,0.75c0,0.19013 -0.07074,0.36373 -0.18735,0.49592l-0.05093,0.05836c2.32381,1.31212 4.67028,2.59726 7.05232,3.84566c9.30017,4.8741 18.60034,9.7482 27.90051,14.6223c5.32932,2.79305 10.67023,5.58679 15.94368,8.48637c0.37546,0.13125 0.74733,0.27215 1.11478,0.42522l0.04612,-0.1765l1.43579,0.37515c0.33025,0.07851 0.57589,0.37541 0.57589,0.72969c0,0.41421 -0.33579,0.75 -0.75,0.75c-0.003,0 -0.00599,-0.00002 -0.00898,-0.00005l-1.49863,-0.01537l0.0007,-0.06823l-0.17849,0.04497c-0.35045,-0.18101 -0.7006,-0.3626 -1.05048,-0.54471c-2.03971,-0.18212 -4.56915,-1.29997 -6.16139,-1.71613c-6.76468,-1.76809 -13.41093,-4.17049 -20.07627,-6.28402c-9.99538,-3.16948 -19.82066,-6.83338 -29.66899,-10.43318c-0.0263,-0.00378 -0.05261,-0.00755 -0.07891,-0.01133c-0.14871,0.29511 -0.2975,0.59017 -0.44637,0.8852c5.21821,2.5915 10.35624,5.38449 15.51713,7.96495c4.91939,2.45971 9.839,4.91898 14.75789,7.37967c2.16683,1.08396 4.86578,1.99043 6.81574,3.42159c1.98022,1.45338 3.70103,3.80458 5.39519,5.58575c0.17666,0.75714 0.99364,1.64733 0.52997,2.27141c-0.4368,0.58791 -1.46737,0.03537 -2.19708,-0.02756c-1.94898,-0.1681 -3.96657,-0.77852 -5.88767,-1.15558c-7.49216,-1.4705 -14.63158,-3.05689 -21.87537,-5.48184c-5.61381,-1.8793 -11.22914,-3.7542 -16.8433,-5.63257c-1.97549,3.09946 -4.21872,6.04084 -6.34058,9.03953c-1.05414,1.25119 -2.16843,2.49239 -3.29375,3.73903c-0.8852,1.14288 -1.78103,2.27899 -2.68634,3.41173c-2.34245,4.16932 -4.7174,8.32016 -7.08461,12.46778c-0.76912,1.29055 -1.53827,2.58109 -2.30743,3.87163l-0.76085,1.2766c-0.12926,0.22579 -0.37254,0.37794 -0.65135,0.37794c-0.41421,0 -0.75,-0.33579 -0.75,-0.75c0,-0.08155 0.01302,-0.16006 0.03708,-0.23357l0.42869,-1.41922l0.1638,0.04948c0.16787,-1.11781 0.44673,-2.21822 0.81719,-3.30094c-4.23435,5.07067 -8.55216,10.05164 -13.14732,14.852c-7.26368,7.58803 -14.46286,15.24272 -21.88147,22.67951c-3.17822,3.18601 -6.35475,6.37374 -9.53553,9.55719l-1.0602,1.06109c-0.13574,0.13587 -0.32334,0.21991 -0.53057,0.21991c-0.41421,0 -0.75,-0.33579 -0.75,-0.75c0,-0.12729 0.03171,-0.24718 0.08767,-0.35219l0.67099,-1.32484l0.15109,0.07652c1.14334,-3.31349 3.21777,-6.25099 5.07489,-9.24699c1.91277,-3.08578 3.81403,-6.17796 5.74461,-9.25171c-2.85645,3.15178 -5.85427,6.18418 -8.88596,9.18219c-3.18217,3.69272 -6.3314,7.41374 -9.49193,11.12521c-1.89049,2.22005 -3.63453,4.66483 -5.8141,6.58239c-0.02974,0.04268 -0.0595,0.08528 -0.08931,0.1278l-0.03677,0.05246l0.10515,0.08954l-0.96921,1.13817c-0.13758,0.16362 -0.3438,0.26761 -0.57431,0.26761c-0.41421,0 -0.75,-0.33579 -0.75,-0.75c0,-0.16349 0.05231,-0.31477 0.14111,-0.438l0.85575,-1.22078c2.27885,-3.25094 4.36962,-6.94404 7.17038,-9.75883c2.75163,-2.75548 5.55912,-5.47353 8.33832,-8.22044c1.05418,-1.22272 2.11191,-2.44238 3.17465,-3.6577c4.38375,-5.01311 8.81806,-9.90868 13.36512,-14.71748c4.76397,-7.48146 9.45037,-15.0883 15.25059,-21.76151c6.20248,-7.13601 12.09164,-14.82085 18.75784,-21.51943l1.05835,-1.06278c0.13582,-0.13643 0.32381,-0.22087 0.53153,-0.22087c0.41421,0 0.75,0.33579 0.75,0.75c0,0.17605 -0.06065,0.33792 -0.16221,0.46588l-0.91713,1.17852l-0.14071,-0.1095l-0.02759,0.02771c-1.44545,2.5871 -3.53097,4.83535 -5.35908,7.18447c-3.992,5.12971 -7.98399,10.25943 -11.97599,15.38914c-2.12292,2.72796 -4.27312,5.43554 -6.43775,8.13211c6.44227,-6.30324 13.07756,-12.34375 19.79634,-18.37828c4.06477,-3.65081 8.11349,-7.29705 12.10927,-11.00265c0.80847,-1.5068 1.60843,-3.01763 2.39801,-4.53318c0.16874,-0.32388 0.33747,-0.64776 0.5062,-0.97164c-2.16737,-0.3422 -4.23882,-1.25548 -5.26653,-2.44989c-0.03097,-0.03599 -0.09512,-0.20457 -0.17676,-0.44694c-0.90493,-0.30407 -1.80978,-0.60835 -2.71455,-0.91288c-0.94201,-0.4984 -1.88373,-0.99736 -2.82525,-1.4967c-0.29284,0.14706 -0.58677,0.28937 -0.88183,0.42665l0.05294,0.07733l-1.22977,0.84185c-0.12206,0.08605 -0.27095,0.13659 -0.43165,0.13659c-0.20781,0 -0.39587,-0.08451 -0.5317,-0.22105l-0.10688,0.12625c-0.13758,0.16465 -0.34445,0.26939 -0.57579,0.26939c-0.41347,0 -0.74879,-0.33458 -0.75,-0.74777c-0.14697,0.1082 -0.29395,0.2164 -0.44092,0.32461c-1.19695,1.83627 -2.45474,3.62747 -4.01977,5.10616l0.14888,0.12821l-0.97575,1.13302c-0.13757,0.16164 -0.34251,0.26416 -0.57139,0.26416c-0.41421,0 -0.75,-0.33579 -0.75,-0.75c0,-0.08913 0.01555,-0.17463 0.04408,-0.25393l0.46911,-1.40632l0.02407,0.00803l0.00571,-0.08344c0.00167,-0.00281 0.00333,-0.00561 0.005,-0.00842c-6.87817,5.06368 -13.75634,10.12736 -20.63451,15.19105c0,0 -0.60398,0.44465 -1.04862,-0.15933c-0.44465,-0.60398 0.15933,-1.04862 0.15933,-1.04862c7.05388,-5.19304 14.10776,-10.38608 21.16164,-15.57912c-0.03008,-0.08117 -0.04651,-0.16897 -0.04651,-0.2606c0,-0.20039 0.07859,-0.38242 0.20663,-0.51696l1.03077,-1.0877c0.99726,-1.05108 1.86117,-2.15878 2.74964,-3.29918c0.37638,-0.56394 0.76518,-1.1233 1.16206,-1.67826c-1.56743,-0.83321 -3.13478,-1.66656 -4.70246,-2.49929c-1.6936,-0.89961 -3.93746,-1.68698 -5.42076,-2.89557c-0.82395,-0.67135 -1.6437,-1.53913 -2.41956,-2.49463c-5.63716,3.52001 -11.84346,6.0174 -17.88349,8.79786c-5.90422,2.71794 -11.80566,5.44187 -17.70731,8.16538l-1.34748,0.62184c-0.09927,0.04849 -0.21083,0.0757 -0.32875,0.0757c-0.41421,0 -0.75,-0.33579 -0.75,-0.75c0,-0.22423 0.0984,-0.42547 0.25437,-0.56291l1.11806,-0.99435l0.12553,0.14115c2.28485,-2.61436 5.27965,-4.472 7.66698,-7.06642c0.14136,-0.15362 0.28181,-0.30852 0.42141,-0.46461c-4.02731,1.31436 -8.05463,2.62871 -12.08194,3.94307c-3.79332,1.23799 -7.57226,2.44743 -11.31985,3.73581c-1.92213,0.82664 -3.83376,1.6881 -5.73491,2.59949c-1.54669,0.74146 -5.3588,3.47973 -7.02365,3.31309c-0.08953,-0.00896 -0.17718,-0.02452 -0.26325,-0.04561l-0.0056,0.01968l-1.42682,-0.40594c-0.32256,-0.08389 -0.56069,-0.37709 -0.56069,-0.7259c0,-0.31299 0.19173,-0.58121 0.46415,-0.6936l1.35766,-0.59626c4.93796,-2.16867 9.96727,-3.97422 15.04704,-5.67726c3.68535,-1.60234 7.40361,-3.14674 11.20999,-4.58775c4.47127,-1.69272 8.9595,-3.24746 13.47219,-4.72076c2.48633,-3.28734 4.78051,-6.80745 7.2008,-10.03242c4.35168,-5.78491 10.53956,-11.83357 17.24169,-14.7052c1.76822,-0.75762 3.69909,-1.28891 5.61194,-1.80651c-2.78648,-0.76255 -5.60305,-1.3384 -8.66208,-1.84294l-1.4591,-0.04243c-0.40538,-0.01015 -0.73088,-0.34194 -0.73088,-0.74976c0,-0.41376 0.33506,-0.74927 0.74865,-0.75c0.00006,0 0.00011,0 0.00017,0l1.49983,-0.0027l0.00008,0.04597l0.02244,0.00065l-0.00138,0.04759l0.05121,-0.04448c0.15811,0.0257 0.31562,0.05161 0.47255,0.07774c2.2792,-0.28656 4.5912,-0.13672 6.95509,-0.14098c3.12966,-0.00563 6.23705,0.13817 9.33902,0.35728c-0.00154,-0.01963 -0.00232,-0.03946 -0.00232,-0.05949c0,-0.01193 0.00028,-0.0238 0.00083,-0.0356l0.03484,-0.84744c-2.89746,-0.67653 -5.78193,-1.22999 -8.76352,-1.68303l-1.47157,-0.2236c-0.36633,-0.04944 -0.64874,-0.36335 -0.64874,-0.74322c0,-0.41421 0.33579,-0.75 0.75,-0.75c0.0315,0 0.06254,0.00194 0.09302,0.00571l1.48018,0.1633l-0.00666,0.06041l0.02911,0.00442c0.11472,0.01743 0.22931,0.03501 0.34376,0.05274c0.63716,-0.04645 1.28566,-0.0684 1.94278,-0.06958c-2.981,-1.07769 -5.962,-2.15538 -8.94299,-3.23307c-5.6457,-2.04103 -11.46921,-3.82646 -16.88,-6.43006c-0.87765,-0.42231 -5.8052,-2.21732 -5.8312,-3.25871c-0.01835,-0.73496 1.09582,-0.98856 1.70877,-1.39451c2.0967,-1.38862 4.03089,-0.04266 6.17569,0.6938c9.96463,3.42157 19.25248,7.84165 28.75723,12.36597c-1.24243,-1.84881 -1.75418,-4.90974 -2.4226,-6.82884c-2.17325,-6.23962 -3.66103,-13.89906 -7.60323,-19.2062c-0.2015,-0.27126 -0.40299,-0.54252 -0.60449,-0.81379c-0.85229,0.46837 -1.70102,0.94454 -2.54561,1.43002c-1.55583,0.89431 -4.01383,2.9314 -6.05959,3.43519c-0.11441,0.11251 -0.2289,0.22375 -0.34354,0.33353l-0.1157,0.02009l0.0193,0.03816l-1.32512,0.67041c-0.10494,0.05586 -0.22473,0.08752 -0.35191,0.08752c-0.41421,0 -0.75,-0.33579 -0.75,-0.75c0,-0.28326 0.15703,-0.52984 0.38878,-0.65744l1.28792,-0.74031l0.03191,0.05552c2.37537,-2.33491 4.71683,-5.15083 7.57267,-6.87213c-5.32935,-7.17459 -10.65871,-14.34918 -15.98806,-21.52378c-1.16102,-1.56301 -2.36299,-2.74397 -3.74552,-3.92365c-0.06112,0.07453 -0.11839,0.15714 -0.17336,0.24482c0.28491,0.70911 0.56332,1.43873 1.03437,2.05848c3.01502,3.96683 6.00726,7.95138 9.00651,11.93015l1.00824,1.06588c0.12778,0.13449 0.20619,0.31634 0.20619,0.5165c0,0.41421 -0.33579,0.75 -0.75,0.75c-0.11021,0 -0.21487,-0.02377 -0.30913,-0.06647l-1.36479,-0.58115l0.06201,-0.14563c-2.87379,-0.79438 -5.59398,-2.20998 -8.34255,-3.38037c-5.19222,-2.21094 -10.38443,-4.42188 -15.57665,-6.63282c-3.40951,-0.00031 -6.81903,-0.00141 -10.22854,-0.00012c1.44166,0.99408 2.87022,2.01515 4.28421,3.07288c0.49738,0.53984 1.61005,0.89502 1.49214,1.61953c-0.11791,0.72451 -1.2612,0.75739 -1.92869,1.0628c-1.6212,0.74178 -4.06747,1.66978 -5.82806,1.91576c-2.38228,0.33283 -5.2208,-0.20693 -7.62863,-0.30801c-0.92635,-0.03889 -1.85269,-0.07777 -2.77904,-0.11666c-0.20338,0.28142 -0.44427,0.51036 -0.72881,0.66883c-1.27398,0.70955 -4.86656,0.07256 -6.34681,0.06879c-5.67396,-0.01447 -10.99204,-0.70267 -16.51695,-1.72476c-1.20092,-0.0428 -2.4043,-0.07689 -3.602,-0.15444c-0.2508,-0.01624 -0.68038,-0.07293 -1.0646,-0.10227c-0.21911,0.00025 -0.43822,0.00048 -0.65734,0.00068c-0.15072,0.02864 -0.20273,0.09385 -0.07841,0.21911c0.42041,0.4236 2.94213,1.09766 3.62685,1.43536c1.36668,0.67405 2.73336,1.3481 4.10004,2.02214c3.09624,0.65937 6.19249,1.31873 9.28873,1.9781c3.41897,0.72809 7.00523,1.23087 10.20215,2.6349l0.04613,-0.16544l1.42905,0.39846c0.32444,0.0826 0.56439,0.37671 0.56439,0.72686c0,0.41356 -0.33473,0.74894 -0.74804,0.75l-1.49971,0.00448c-1.73054,0.00517 -3.46092,0.01922 -5.19127,0.0372c3.51346,1.3609 7.07611,2.59955 10.68522,3.80597l1.40621,0.47006c0.30616,0.09444 0.52864,0.37964 0.52864,0.7168c0,0.26616 -0.13864,0.49993 -0.34764,0.63305l-1.24304,0.81808l-0.13148,-0.19978c-2.68164,1.62881 -5.47955,1.26025 -9.00951,1.36048c-6.5085,0.1848 -13.0049,0.34124 -19.51618,0.34362c-2.34463,0.00086 -4.68925,0.00168 -7.03388,0.00246c1.83393,1.26345 3.63778,2.55973 5.5916,3.62171c4.78877,2.60287 10.67858,3.33362 15.17494,6.40903l0.0871,-0.15884l1.30194,0.71393c0.23935,0.12528 0.40268,0.37602 0.40268,0.66491c0,0.41421 -0.33579,0.75 -0.75,0.75c-0.00357,0 -0.00714,-0.00002 -0.0107,-0.00007l-1.49836,-0.01833c-6.4547,-0.083 -13.0447,-1.33066 -19.45982,-2.06202c-10.43099,-1.1892 -20.86267,-2.35261 -31.30349,-3.45236c-7.21884,-0.76038 -15.46372,-1.15992 -22.37454,-3.40322c-1.40471,-0.45598 -2.918,-0.82099 -4.27897,-1.393c-0.65189,-0.27399 -1.74747,-0.24582 -1.90401,-0.9354c-0.58667,-2.58433 1.96293,-2.17991 3.05523,-2.23118c10.5,0 20.99999,-0.00014 31.49999,-0.00031c6.40977,-0.0001 12.81953,-0.00137 19.2293,-0.00322c-1.29006,-0.67405 -2.58014,-1.34794 -3.86788,-2.02642l-1.37414,-0.35467c-0.3313,-0.07775 -0.57798,-0.37516 -0.57798,-0.73018c0,-0.36272 0.25749,-0.66531 0.59966,-0.73493l1.44879,-0.32645l0.03,0.13315c3.7305,-1.40885 7.91946,-1.86268 11.82763,-2.33902c4.87391,-0.59405 9.69089,-1.26805 14.58171,-1.46165c-1.19014,-0.53528 -2.37428,-1.09163 -3.55233,-1.67264c-1.2679,-0.62533 -2.53581,-1.25066 -3.80371,-1.87599c-2.71112,-0.57735 -5.42224,-1.1547 -8.13335,-1.73205c-6.689,-1.42447 -12.98342,-2.66492 -19.65399,-3.16589c-1.05449,0.04326 -2.11463,0.02605 -3.00115,-0.17252c-0.28764,-0.01138 -0.57616,-0.02128 -0.86561,-0.02968l-1.49247,-0.00499c-0.41321,-0.00118 -0.74781,-0.33651 -0.74781,-0.75c0,-0.41414 0.33567,-0.74989 0.74979,-0.75l1.5,-0.00041v0.00542l0.0027,0.00001l-0.00003,0.00951l0.00962,-0.00942c0.38956,0.01125 0.77747,0.0252 1.16387,0.04175c2.57373,-0.25929 5.23029,-0.04933 7.82404,-0.04934c6.52351,-0.00004 13.04713,-0.01057 19.57063,0.00328c0.37339,0.07045 0.74553,0.13976 1.11661,0.20779c3.85942,0.14439 7.71945,0.36197 11.57589,0.52386c3.77075,0.15829 7.54149,0.31658 11.31224,0.47487c0.55683,-1.69426 0.46366,-5.22207 0.53405,-6.08487c2.41918,-1.12632 5.07725,-1.15955 7.73398,-1.13595c-2.57867,-1.676 -5.19647,-3.29649 -7.85308,-4.91699c-2.5514,-1.55633 -5.29971,-2.93461 -7.59166,-4.83711l-0.0917,0.15034l-1.26908,-0.77413c-0.22192,-0.13025 -0.37092,-0.37137 -0.37092,-0.64728c0,-0.41421 0.33579,-0.75 0.75,-0.75c0.08477,0 0.16626,0.01406 0.24226,0.03999l1.41386,0.44588c9.64731,3.04237 18.86766,6.45018 28.17467,10.41328c0.69433,0.29566 1.38865,0.59131 2.08298,0.88697c0.42786,0.00003 0.85572,0.00005 1.28357,0.00005c2.38709,0 4.92343,0.32337 7.20001,-0.42154c1.95146,-0.5946 3.22779,-2.23448 4.65098,-3.6733c-0.14787,-0.41582 -0.27871,-0.8354 -0.3906,-1.2589l-0.18383,0.06375l-0.48572,-1.4007c-0.03047,-0.08162 -0.04712,-0.16998 -0.04712,-0.26223c0,-0.41421 0.33579,-0.75 0.75,-0.75c0.18013,0 0.34544,0.0635 0.47474,0.16935l1.16407,0.93675c0.23939,0.19264 0.47369,0.38282 0.70334,0.57179c0.11909,-0.06197 0.24681,-0.10029 0.38675,-0.10465c0.89547,-0.02789 3.2108,2.53564 3.90724,3.14343c4.4477,3.88156 7.19764,9.81859 10.30635,14.8226c2.11409,2.44765 4.19396,5.80606 6.71447,7.81461c0.11844,0.09438 0.24128,0.18881 0.36815,0.2832c8.43882,-4.85029 16.87694,-9.70179 25.31701,-14.5499c8.76258,-5.77133 17.52767,-11.53887 26.29159,-17.30815c5.8196,-3.83104 11.26327,-8.27889 16.81889,-12.48315c2.12496,-1.60808 3.96503,-3.41844 6.30291,-4.31907l-0.1066,-0.32034l1.40665,-0.46809c0.07916,-0.02841 0.16448,-0.0439 0.25342,-0.0439c0.41421,0 0.75,0.33579 0.75,0.75c0,0.16814 -0.05533,0.32336 -0.14877,0.44844c-2.35608,3.23248 -5.59082,7.67046 -7.9469,10.90293c-2.50876,3.44195 -5.37143,6.58553 -8.29497,9.67694c3.70633,-1.91152 7.40592,-3.83716 11.10706,-5.76357c9.3139,-4.84781 18.6278,-9.69562 27.9417,-14.54343c9.22494,-4.80151 18.99307,-9.13258 27.74802,-14.74321c0.84195,-0.53956 1.68389,-1.07913 2.52584,-1.61869l1.2536,-0.80337c0.11864,-0.07868 0.26096,-0.12451 0.41399,-0.12451c0.41421,0 0.75,0.33579 0.75,0.75c0,0.17099 -0.05722,0.32862 -0.15356,0.45478l-1.02312,1.37075c0,0 -0.44861,0.60104 -1.04965,0.15243c-0.03516,-0.02625 -0.06674,-0.05302 -0.09501,-0.08015c-0.60424,0.38723 -1.20849,0.77446 -1.81273,1.16169c-8.79347,5.63531 -18.59944,9.98829 -27.86482,14.81085c-9.3139,4.84781 -18.6278,9.69562 -27.9417,14.54343c-4.97543,2.58967 -9.94807,5.1779 -14.93803,7.73241c-3.25321,3.42627 -6.45257,6.8965 -9.1968,10.74778c-6.04918,8.48945 -12.69327,16.8001 -18.17058,25.66706c-4.37059,7.07103 -8.70785,14.95638 -14.24369,21.39942c2.38341,0.40345 4.70389,0.83359 6.84199,1.12748c1.12383,0.15447 6.16374,0.5211 6.41566,2.09668c0.01584,0.09906 -0.04987,0.23906 -0.17011,0.4036c4.59949,0.52975 9.15265,1.27251 13.72674,2.03067c0.07758,0.00217 0.15517,0.00424 0.23276,0.00622c1.41618,-0.97632 2.83729,-1.93112 4.24892,-2.87221c0,0 0.62404,-0.41603 1.04006,0.20801c0.41603,0.62404 -0.20801,1.04006 -0.20801,1.04006c-0.99057,0.66038 -1.9868,1.32751 -2.98324,2.00423c3.2111,0.5314 6.4222,1.0628 9.6333,1.5942c0.59862,-0.44071 1.19725,-0.88141 1.79587,-1.32212c-1.73723,-2.27011 -3.47305,-4.5413 -5.20936,-6.8121zM245.69683,182.00441c2.42916,1.46385 4.84182,2.9291 7.25317,4.38428c0.79112,-1.11346 1.74819,-2.71193 2.79714,-3.9432c0.21881,-0.32905 0.43795,-0.65779 0.65758,-0.98613c-2.45303,-0.34977 -4.9176,-0.92909 -7.35596,-1.59671c-1.04375,0.76381 -2.22977,1.3747 -3.46928,1.9095c0.03897,0.07858 0.07806,0.15606 0.11735,0.23225zM257.02832,203.42031c0.51037,0.2438 1.01982,0.4902 1.52843,0.73881c0.0837,-0.16065 0.1674,-0.3213 0.25111,-0.48195c-0.5932,-0.08547 -1.18638,-0.17109 -1.77954,-0.25686zM218.35525,197.71526c-0.1096,-0.13039 -0.17561,-0.29863 -0.17561,-0.48229c0,-0.2127 0.08854,-0.40472 0.23078,-0.54121c-3.41497,1.56168 -6.79805,3.19967 -10.18058,4.80305c-1.00931,0.47843 -3.10647,1.88039 -4.86773,2.69341c3.19066,-0.98773 6.39528,-1.94938 9.61648,-2.90459c0.03331,-0.00988 0.06662,-0.01976 0.09993,-0.02965c1.85593,-1.06242 3.71187,-2.12483 5.5678,-3.18725zM218.92964,196.48297c0.01345,0 0.02682,0.00035 0.04009,0.00105l1.49305,0.06925l-0.00039,0.00835l0.0374,-0.00571c0.20875,0.03042 0.4175,0.06086 0.62625,0.09131c2.42613,-1.38882 4.85226,-2.77764 7.27839,-4.16646c-0.3607,0.1392 -0.72139,0.2784 -1.08209,0.4176c-2.85389,1.10138 -5.66848,2.31743 -8.46087,3.58767c0.02245,-0.00202 0.04519,-0.00306 0.06817,-0.00306zM251.74442,202.65276c-0.14782,-0.02156 -0.29563,-0.04313 -0.44345,-0.0647c-1.25953,0.92726 -2.51905,1.85452 -3.77858,2.78178c-0.17151,0.37986 -0.34303,0.75971 -0.51454,1.13957c1.62194,-1.2429 3.21863,-2.5263 4.80279,-3.82788c-0.02207,-0.0096 -0.04415,-0.01918 -0.06622,-0.02877zM229.22456,199.34781c-0.70116,-0.10261 -1.40232,-0.20517 -2.10349,-0.30773c-1.25902,0.87571 -2.77926,1.63127 -3.88505,2.2882c0.57881,0.84396 1.17466,1.65746 1.90783,2.25485c1.40302,1.14318 3.57295,1.88172 5.17693,2.73372c1.63069,0.86619 3.2618,1.73162 4.89279,2.59726c1.37397,-1.85416 2.80357,-3.65971 4.12129,-5.42404c0.23372,-0.31293 0.96126,-1.44228 1.70329,-2.40697c-3.93779,-0.57913 -7.87546,-1.15896 -11.8136,-1.7353zM243.51203,213.3267c0.52642,0.17519 1.05281,0.35046 1.57918,0.52583c-0.13431,-0.45618 -0.24255,-0.83261 -0.27537,-0.94452c-0.05164,-0.17604 -0.37164,-1.24934 -0.60936,-2.09492c-0.8299,0.54609 -1.66855,1.06263 -2.51641,1.54258c0.60744,0.32346 1.21477,0.64712 1.82196,0.97103zM273.32483,223.30424c6.23286,2.08653 12.29555,3.58885 18.74426,4.85455c3.21987,0.63197 6.61598,1.05411 9.57826,2.2836c0.24546,0.10188 -0.41479,-0.33235 -0.62219,-0.49853c-1.61441,-1.63857 -3.18138,-3.84401 -5.02907,-5.20012c-1.87715,-1.37773 -4.51128,-2.2448 -6.5993,-3.28934c-4.9188,-2.46065 -9.83833,-4.91987 -14.75762,-7.37954c-5.16195,-2.58099 -10.30112,-5.37811 -15.52147,-7.96995c-1.79327,3.54645 -3.59898,7.08696 -5.4242,10.62071c0.25274,0.08458 0.50547,0.16918 0.7582,0.25378c0.24677,-0.08295 0.49507,-0.17482 0.7439,-0.27196c0.48964,-0.63589 1.0008,-1.24643 1.5407,-1.8192c0.00236,-0.00443 0.00471,-0.00887 0.00707,-0.0133l0.03305,-0.06223l-0.12712,-0.08564l0.83169,-1.2346c0.13387,-0.20497 0.36531,-0.34042 0.62839,-0.34042c0.41421,0 0.75,0.33579 0.75,0.75c0,0.13228 -0.03424,0.25655 -0.09435,0.36445l-0.31427,0.59166c0.10264,-0.05276 0.21904,-0.08254 0.34239,-0.08254c0.41421,0 0.75,0.33579 0.75,0.75c0,0.29768 -0.17342,0.55485 -0.42475,0.676l-1.24366,0.63158c-0.32163,0.32391 -0.6442,0.64672 -0.96766,0.96849c5.47284,1.83344 10.94454,3.67032 16.41775,5.50255zM287.24765,184.51172c-0.72412,-0.11983 -1.44824,-0.23967 -2.17237,-0.3595c2.44292,2.67179 4.88516,5.34421 7.32761,8.01642c-1.42722,-1.78843 -2.82465,-3.60725 -3.95677,-5.51375c-0.41545,-0.69962 -0.81391,-1.41514 -1.19847,-2.14317zM283.43702,182.3607c0.98879,0.16363 1.97759,0.32727 2.96638,0.4909c-0.73248,-1.49324 -1.41836,-3.02656 -2.08243,-4.57274c-0.91983,0.67717 -1.83965,1.35435 -2.75948,2.03152c0.62525,0.68338 1.25042,1.36682 1.87553,2.05032zM281.65682,176.12632c-1.31155,-0.61736 -3.42577,-1.26256 -5.07662,-2.16617c1.32996,1.73914 2.65996,3.47826 3.98906,5.21806c0.95917,-0.70614 1.91834,-1.41227 2.87751,-2.11841c-0.58483,-0.33332 -1.18036,-0.64654 -1.78994,-0.93348zM293.28781,183.73549c-2.45107,-1.5214 -4.7375,-3.33361 -7.12041,-4.95917c0.64692,1.47155 1.31994,2.92455 2.0412,4.33442c1.58463,0.17798 3.41676,0.29606 5.07921,0.62475zM219.49393,199.30989c0.04948,-0.01503 0.09896,-0.03006 0.14844,-0.04509c-0.0062,-0.00975 -0.01239,-0.0195 -0.01858,-0.02925c-0.04329,0.02478 -0.08657,0.04956 -0.12986,0.07434zM267.23326,181.42932l-1.49363,0.07493l-0.00678,-0.13512c-0.04146,0.00833 -0.08293,0.01653 -0.12442,0.02461c-3.16396,2.20822 -6.28732,4.53632 -9.19478,7.07652c2.12825,1.27233 4.26115,2.53257 6.40913,3.77285c4.35238,-3.20421 8.70476,-6.40842 13.05715,-9.61262c-2.73913,-0.4533 -5.47826,-0.90659 -8.21739,-1.35989c-0.1193,0.09353 -0.26765,0.1517 -0.42927,0.15872zM253.36557,191.30057c0.39547,0.31731 0.6716,0.62197 0.74158,0.89073c0.17036,0.65426 -0.50549,1.25514 -0.79841,1.86447c-1.01485,2.11108 -2.28156,4.13913 -3.43398,6.18459c0.44579,0.1811 0.89058,0.36539 1.33442,0.55263c1.31882,-0.97091 2.63764,-1.94182 3.95646,-2.91273c2.09042,-1.53896 4.18083,-3.07791 6.27125,-4.61687c-2.10904,-1.19884 -4.20354,-2.4191 -6.28629,-3.66307c-0.6066,0.55616 -1.20217,1.12261 -1.78503,1.70025zM248.78183,202.58c0.13603,-0.10014 0.27205,-0.20028 0.40808,-0.30042c-0.08521,-0.01247 -0.17041,-0.02493 -0.25562,-0.0374c-0.05082,0.11261 -0.10163,0.22522 -0.15245,0.33783zM256.05494,199.08821c-1.00566,0.74037 -2.01133,1.48073 -3.01699,2.2211c0.12231,0.01798 0.24461,0.03596 0.36692,0.05394c1.08706,-0.90381 2.17019,-1.81269 3.25357,-2.71934c-0.20117,0.1481 -0.40233,0.2962 -0.6035,0.44429zM279.52461,114.69848c3.86624,-4.06518 7.78824,-8.08468 11.0957,-12.62242c1.82522,-2.50415 3.65044,-5.0083 5.47566,-7.51245c-1.64889,1.29491 -3.58859,2.42989 -5.06514,3.54728c-5.18601,3.92456 -10.2706,8.05851 -15.70317,11.63477c-8.77657,5.77761 -17.55203,11.55692 -26.3299,17.33255c-8.239,4.73763 -16.47979,9.47215 -24.72,14.20766c0.23638,0.147 0.47959,0.29296 0.72807,0.43745c4.38967,-2.31442 8.85532,-4.46902 13.32174,-6.66071c9.42627,-4.62551 18.85255,-9.25103 28.27882,-13.87654c4.32762,-2.12358 8.62942,-4.29296 12.91822,-6.48758zM222.00664,143.3388c-0.12977,-0.1747 -0.25954,-0.3494 -0.38931,-0.5241c-1.23123,0.70885 -2.36305,1.65094 -3.44267,2.67725c0.47993,-0.26522 0.96162,-0.53245 1.44156,-0.80832c0.79334,-0.45602 1.5903,-0.90389 2.39042,-1.34483zM276.50134,117.92191c-3.06802,1.55526 -6.14453,3.09466 -9.23417,4.61076c-9.42627,4.62551 -18.85255,9.25103 -28.27882,13.87654c-4.1553,2.03902 -8.31022,4.04527 -12.40322,6.17946c1.73338,0.8988 3.55745,1.69589 5.03072,2.26868c1.66572,0.64761 3.87518,1.2124 5.64311,1.47556c0.61306,0.09126 3.16087,-0.04279 3.4789,0.36496c0.43058,0.55208 -0.12832,1.39438 -0.19248,2.09157c-1.86545,8.18641 -3.58814,16.20837 -4.11767,24.57825c0.07968,0.01217 0.15934,0.02443 0.23897,0.03677c1.03135,-1.6142 2.66633,-3.23706 3.53925,-4.40535c4.20072,-5.62217 7.86086,-11.46872 11.54986,-17.43703c5.50006,-8.89313 12.15593,-17.2316 18.22492,-25.74886c1.98628,-2.78755 4.21041,-5.37544 6.52065,-7.89133zM147.4305,134.30738c1.63422,0.77297 3.28012,1.50141 4.9374,2.19504c1.37257,-0.01671 2.74509,-0.0331 4.11765,-0.04671c-0.99455,-0.31481 -1.93262,-0.63156 -2.67392,-0.78942c-2.12705,-0.45297 -4.25409,-0.90594 -6.38114,-1.35891zM128.6512,145.91236c-7.26222,0.00225 -14.52445,0.00387 -21.78667,0.00399c-10.5,0.00017 -21.00001,0.0003 -31.50001,0.00031c-0.54979,-0.04154 -2.08575,-0.07126 -1.63552,0.247c0.65834,0.46537 1.60834,0.20803 2.37496,0.4576c1.87605,0.61074 3.68696,1.29594 5.64105,1.58572c6.42015,0.95205 12.82374,2.00081 19.27893,2.68074c10.44508,1.1002 20.88102,2.26408 31.31627,3.45376c5.5581,0.63366 11.25681,1.67024 16.87653,1.97141c-1.63107,-0.65624 -3.32624,-1.617 -4.56215,-2.10692c-2.74871,-1.08961 -5.85286,-1.94407 -8.4484,-3.35484c-2.64702,-1.43875 -5.01383,-3.30618 -7.55498,-4.93875zM173.34503,120.41768c2.97019,-0.00215 5.94039,-0.00197 8.91058,-0.00156c-7.22413,-3.04235 -14.40638,-5.75203 -21.79386,-8.22036c0.66131,0.4723 1.27298,0.91568 1.7903,1.23124c3.75916,2.29305 7.46447,4.57323 11.09298,6.99068zM232.54587,178.14367c-2.36263,-0.13724 -4.73069,-0.22038 -7.11173,-0.2161c-0.07713,0.00014 -0.15677,0.00128 -0.2387,0.0033c1.36583,0.33656 2.71534,0.71131 4.0702,1.13605c0.11231,-0.03355 0.22423,-0.06742 0.33573,-0.10167c0.97537,-0.29942 1.9582,-0.56676 2.9445,-0.82159zM195.69673,209.44786c-1.58004,1.87609 -3.2534,3.66225 -5.08426,5.29054c-0.45342,0.40325 -0.95115,0.9283 -1.48123,1.46502c4.71085,-2.17389 9.42196,-4.34723 14.13483,-6.51675c4.93266,-2.27069 10.18912,-4.24718 14.93874,-6.87462c0.92863,-0.51371 1.82484,-1.08679 2.70757,-1.6835c-0.12093,-0.16521 -0.24027,-0.33167 -0.35784,-0.4989c-2.29457,0.6719 -4.59168,1.33501 -6.88262,2.01302c-0.81548,0.46682 -1.63096,0.93363 -2.44644,1.40045c-3.02991,1.72448 -6.68548,2.51866 -9.99758,3.59959c-1.84372,0.60172 -3.68744,1.20343 -5.53117,1.80515zM222.43362,200.07674c-0.01598,0.00473 -0.03195,0.00946 -0.04793,0.01418c0.00307,0.00431 0.00614,0.00863 0.00921,0.01294c0.01291,-0.00904 0.02581,-0.01808 0.03871,-0.02713zM237.22078,182.14589c0.47836,0.22379 0.95198,0.4526 1.42173,0.68611c0.18043,-0.07329 0.36087,-0.14657 0.5413,-0.21985c1.3316,-0.54079 2.80596,-1.02196 4.25517,-1.56767c-0.40263,-0.69344 -0.78565,-1.3975 -1.07742,-2.10681c-0.93734,-0.08857 -1.87389,-0.1759 -2.81013,-0.25991c-0.03544,0.18023 -0.13543,0.33729 -0.2749,0.44612l-0.98356,0.7815c0.35285,0.06106 0.62122,0.36868 0.62122,0.73899c0,0.2602 -0.13251,0.48945 -0.33372,0.62396l-1.22659,0.84433l-0.04347,-0.06315c-0.02982,0.03217 -0.0597,0.06429 -0.08964,0.09636zM247.06714,179.38405c-0.25656,-0.02491 -0.51304,-0.0494 -0.76942,-0.07338c-0.67438,-0.06309 -1.34801,-0.12703 -2.02108,-0.19107c0.24051,0.42126 0.46083,0.87138 0.67271,1.32066c0.73684,-0.31668 1.45075,-0.66285 2.11779,-1.05621zM237.95203,179.85668c-0.03879,0.03663 -0.07777,0.07293 -0.11695,0.10889l0.06016,-0.02152c0.03283,-0.01261 0.06677,-0.02299 0.10163,-0.03093zM226.99339,184.03707c1.56427,-0.86124 3.13443,-1.71383 4.7121,-2.55731c-0.82601,-0.30258 -1.64343,-0.58319 -2.45754,-0.8447c-2.56592,0.73991 -5.31008,1.34046 -7.73427,2.37915c-4.79061,2.05261 -9.33583,5.82655 -13.06764,9.91656c0.09034,-0.04308 0.18067,-0.08616 0.27101,-0.12924c2.19617,-1.3966 4.68037,-2.40504 7.01337,-3.57492c3.75678,-1.88383 7.46246,-3.60976 11.26297,-5.18952zM204.88095,197.241c-1.07462,1.4319 -2.12804,2.89096 -3.18539,4.35059c3.63794,-1.97509 7.24921,-3.99955 11.03637,-5.67292c3.52242,-1.55639 7.60516,-2.80415 10.88925,-4.80441c0.64542,-0.39311 1.27538,-0.84099 1.89414,-1.32048c-1.73821,0.70914 -3.47614,1.41897 -5.21375,2.12961c-4.16512,1.70345 -8.33024,3.40691 -12.49537,5.11036l-1.37274,0.56143c-0.09175,0.04001 -0.19305,0.06221 -0.29954,0.06221c-0.41421,0 -0.75,-0.33579 -0.75,-0.75c0,-0.28115 0.1547,-0.52617 0.38363,-0.65458l1.28259,-0.75007l0.09439,0.16141c0.57863,-0.46958 1.18678,-0.90432 1.8139,-1.31591c-0.20037,0.09556 -0.40074,0.19111 -0.60111,0.28667l-1.33981,0.63896c-0.10131,0.05103 -0.21577,0.07977 -0.33695,0.07977c-0.09906,0 -0.19364,-0.01921 -0.28021,-0.0541c-0.52954,0.64777 -1.03672,1.29669 -1.5194,1.94146zM237.25166,176.97484c0.34814,-0.09358 0.6859,-0.19192 0.94994,-0.28403c-0.16714,-0.04477 -0.33382,-0.08885 -0.50004,-0.13219c-0.34278,-0.08937 -0.68488,-0.17694 -1.02648,-0.26275l-0.37951,0.60248c0.31872,0.02485 0.63741,0.05038 0.95609,0.07649zM252.49166,192.39002c-0.40639,0.56899 -0.80685,1.14175 -1.2029,1.71733c-0.49496,0.75149 -0.99858,1.49565 -1.51007,2.23346c-0.67905,1.01911 -1.35064,2.04303 -2.02304,3.06655c0.23815,0.09038 0.47599,0.18177 0.71353,0.27412c0.93284,-1.68115 1.86648,-3.36187 2.79995,-5.04267c0.40315,-0.72591 1.59567,-1.266 1.38643,-2.06954c-0.02333,-0.08959 -0.08319,-0.14408 -0.1639,-0.17925zM243.21974,206.09886c-0.29276,0.40749 -0.5855,0.81499 -0.87824,1.22249c1.12325,-0.82693 2.24649,-1.65386 3.36974,-2.48079c0.50817,-0.9741 1.05867,-1.94083 1.55547,-2.84263c-0.37116,-0.0544 -0.74232,-0.10883 -1.11347,-0.16329c-0.95556,1.43522 -1.92571,2.86147 -2.9335,4.26422zM244.17844,208.46289c0.07385,-0.26961 0.16241,-0.54511 0.26311,-0.82494c-1.56447,1.15176 -3.12894,2.30352 -4.69341,3.45527c-0.02837,0.06132 -0.05673,0.12264 -0.0851,0.18396c0.01907,0.01014 0.03813,0.02027 0.0572,0.03041c1.27548,-1.06467 3.01143,-1.99416 4.45821,-2.84471zM251.54303,220.86674c0.71448,-0.67504 1.4269,-1.3526 2.13704,-2.03305c0.04792,-0.07173 0.096,-0.14332 0.14424,-0.21477c-0.36939,0.03493 -0.7485,0.0479 -1.13201,0.04053c-0.263,0.50678 -0.52643,1.01342 -0.7903,1.51992c-0.11942,0.22923 -0.23908,0.45835 -0.35897,0.68736zM245.43267,209.98114c-0.08193,1.63306 0.53294,3.21932 1.5545,4.50345c1.75781,0.58636 3.51535,1.17357 5.27268,1.76137c1.86822,-3.5861 3.73636,-7.17224 5.60469,-10.75827c-1.42263,-0.69483 -2.85188,-1.37201 -4.28982,-2.02307c-2.62629,2.28979 -5.33431,4.55554 -8.14205,6.51652zM260.27456,200.86228c0.64002,-1.22825 1.29493,-3.43781 2.21142,-5.08979c-0.20701,0.16923 -0.4142,0.33824 -0.62155,0.50705c-2.04277,1.66311 -4.12808,3.5183 -6.26612,5.40677c1.31437,0.19389 2.62866,0.38835 3.94284,0.58351c0.24447,-0.46918 0.48894,-0.93836 0.73342,-1.40754zM250.29449,224.15336c-0.32546,0.3034 -0.65145,0.6062 -0.97793,0.90847c-0.39592,0.73649 -0.79384,1.47204 -1.19354,2.20672c0.62318,-0.85139 1.23191,-1.71338 1.82182,-2.58907c0.11702,-0.17371 0.23352,-0.34916 0.34965,-0.52612zM236.45846,241.7862c1.88712,-2.9806 4.25261,-5.80425 6.60644,-8.46347c0.95781,-1.71127 1.90949,-3.4259 2.85222,-5.14496c-2.93457,2.66658 -5.89552,5.3064 -8.85037,7.96033c-7.82032,7.0239 -15.52724,14.05516 -22.94708,21.50225c-2.62452,2.63415 -5.20225,5.2897 -7.74419,7.97209c-0.12678,0.1562 -0.25354,0.31241 -0.38028,0.46864c-0.82784,1.29945 -1.65857,2.59454 -2.49854,3.87959c-3.82664,5.85426 -7.46082,11.83129 -11.14557,17.77573c-0.4801,0.77453 -0.97749,1.91018 -1.53292,3.04534c2.22329,-2.22798 4.44536,-4.45718 6.66827,-6.68554c7.41133,-7.42949 14.60331,-15.07681 21.85986,-22.6574c6.03737,-6.30696 11.59313,-12.92726 17.11213,-19.65261zM213.64039,254.27373c2.65236,-3.28983 5.28742,-6.593 7.88169,-9.92664c1.2578,-1.61627 2.5156,-3.23254 3.7734,-4.84881c-1.31683,1.57256 -2.63731,3.13477 -3.9725,4.67092c-2.77375,3.19122 -5.29041,6.59893 -7.68259,10.10453zM250.56449,177.21117c-0.02934,-0.18349 -0.24814,-0.10634 -0.48408,-0.02848c0.1622,0.01656 0.32434,0.03342 0.4864,0.05057c-0.00033,-0.00704 -0.0011,-0.0144 -0.00233,-0.02209zM229.17338,186.68287c0.45973,-0.39882 0.9179,-0.78839 1.37651,-1.15779c0.69806,-0.56227 1.55834,-1.42256 2.48749,-2.24451c-1.63133,0.601 -3.23437,1.22911 -4.81913,1.88262c-0.38267,0.1825 -0.76534,0.36499 -1.14801,0.54749c-3.8179,2.11317 -7.60158,4.27804 -11.37717,6.47692c1.3469,-0.55085 2.69379,-1.10171 4.04069,-1.65256c3.14557,-1.28648 6.29221,-2.57027 9.43962,-3.85216zM198.70857,205.65263c0.90793,-0.29081 1.8169,-0.5787 2.72696,-0.86415c-0.09647,0.00452 -0.18725,0.00156 -0.27164,-0.0096c-0.09855,-0.01303 -0.19429,-0.03449 -0.28774,-0.06288l-0.00615,0.01655l-1.15365,-0.42905c-0.33378,0.45152 -0.66945,0.9015 -1.00778,1.34913zM231.80994,172.24087c-9.077,-4.31907 -17.98332,-8.51245 -27.51464,-11.78524c-2.00919,-0.6899 -3.11323,-1.43217 -4.97152,-0.79497c-0.29233,0.10024 -0.93398,-0.26939 -0.92627,0.03955c0.00771,0.30894 0.62969,-0.09072 0.92709,-0.00671c1.35062,0.38152 2.78803,1.34157 4.05497,1.9512c5.36429,2.58123 11.14223,4.34752 16.73957,6.37107c3.89679,1.40876 7.79416,2.81591 11.6908,4.2251zM239.08287,148.45619c0.15802,-0.27782 0.6732,-0.58347 0.47405,-0.83345c-0.52462,-0.6585 -1.6855,0.31735 -2.51833,0.1939c-2.42198,-0.35903 -5.21992,-1.166 -7.37115,-2.29734c-1.38972,-0.73086 -3.002,-1.40669 -4.54464,-2.16097c-0.29454,0.15654 -0.58871,0.31385 -0.8825,0.47198c0.15923,0.21436 0.31846,0.42873 0.47769,0.64309c3.00982,4.05195 4.18757,9.19075 5.84211,13.94112c1.4444,4.14704 3.40122,8.43981 4.34437,12.78228l0.09602,-0.03344l0.07219,0.20726c0.6578,-7.76774 2.2687,-15.27205 4.01018,-22.91444zM208.38455,129.67814c-2.96674,-3.65805 -6.56787,-7.54832 -8.53867,-11.83859c-1.51551,1.50067 -2.74343,2.89612 -4.8132,3.58419c-1.72254,0.54076 -3.51984,0.56652 -5.3241,0.53294c4.54052,1.93344 9.08105,3.86688 13.62157,5.80031c1.29719,0.55237 3.38702,1.10576 5.0544,1.92115zM172.89607,121.91802c-0.17331,0.00014 -0.34663,0.00029 -0.51994,0.00044c-2.68473,0.00243 -5.66364,-0.21465 -8.27047,0.4744c0.11915,1.23032 0.20891,3.53154 -0.2772,5.29626c2.22623,0.09345 4.45246,0.18691 6.67868,0.28036c2.67803,0.11242 4.46096,-0.40958 7.00244,-1.25061c0.47468,-0.15708 0.92957,-0.3972 1.42405,-0.47125c0.30568,-0.04578 0.86977,0.42537 0.91942,0.1203c0.04965,-0.30507 -0.60674,-0.1183 -0.91011,-0.17745c-1.99048,-1.48896 -4.00615,-2.90368 -6.04685,-4.27246zM132.69729,127.92072c-2.9377,0.0015 -5.87541,-0.00025 -8.81312,-0.0019c3.2001,0.54751 6.40418,1.20438 9.70046,1.90635c0.78281,0.1667 1.56562,0.33341 2.34843,0.50011c-0.04692,-0.02314 -0.09383,-0.04628 -0.14075,-0.06942c-0.48487,-0.23914 -3.06916,-1.43099 -3.09955,-1.88211c-0.01108,-0.16454 -0.0091,-0.31517 0.00453,-0.45304zM152.077,138.00607c-0.46193,0.00563 -0.92386,0.01128 -1.3858,0.01685c-6.86307,0.08276 -13.98609,0.86678 -20.75954,2.03963c-1.68135,0.29113 -4.04436,1.31836 -6.05107,1.50391c0.97766,0.50877 1.9545,1.01907 2.93133,1.52946c0.77847,0.40675 1.53058,0.8508 2.26703,1.3163c3.0951,-0.00097 6.1902,-0.00206 9.28529,-0.00318c6.49728,-0.00237 12.97965,-0.15862 19.47415,-0.34301c2.12115,-0.06023 5.28763,0.4533 7.29288,-0.1785c0.41086,-0.12945 0.78643,-0.37611 1.17524,-0.5699l-0.07881,-0.11975l-0.02546,-0.00851c-4.79174,-1.60173 -9.50217,-3.2611 -14.12525,-5.1833zM223.07253,142.25823c0.08799,0.11846 0.17599,0.23692 0.26398,0.35538c0.05961,-0.03217 0.11923,-0.06431 0.17887,-0.09642c-0.14955,-0.08494 -0.29728,-0.17122 -0.44285,-0.25896zM236.77205,183.59187c-0.21875,-0.10317 -0.43851,-0.20527 -0.65937,-0.30627c-0.34346,0.33943 -0.69307,0.67281 -1.04842,1.00036c0.56924,-0.23141 1.1385,-0.46277 1.70778,-0.69409zM231.95952,179.97598c0.4986,0.18029 0.9998,0.36822 1.50463,0.56437c0.78605,-0.41986 1.57211,-0.83972 2.35816,-1.25959c-1.26369,0.28542 -2.65598,0.48321 -3.8628,0.69522zM239.79898,177.1945c0.10225,0.00919 0.2045,0.01843 0.30675,0.02769c-0.08978,-0.02591 -0.17945,-0.05169 -0.26901,-0.07733c-0.01236,0.01663 -0.02495,0.03317 -0.03774,0.04963zM257.8304,185.33494c1.51971,-1.22999 3.08116,-2.41331 4.66349,-3.56125c-0.79053,0.04306 -1.5857,0.04867 -2.38418,0.02184l-0.49417,0.89883l-0.22365,-0.12296c-0.425,0.9529 -0.96247,1.87072 -1.56149,2.76354zM222.59617,198.37779c-0.39111,-0.05733 -0.78222,-0.11469 -1.17332,-0.1721c-0.14435,0.08263 -0.2887,0.16526 -0.43305,0.24789c0.10903,0.09837 0.21506,0.20127 0.31852,0.30805c0.42908,-0.12875 0.85834,-0.25678 1.28785,-0.38385z" fill="#ffffff" stroke-width="0.5"></path></g></g></svg>