<svg version="1.1" xmlns="http://www.w3.org/2000/svg" xmlns:xlink="http://www.w3.org/1999/xlink" width="135.596" height="79.01316" viewBox="0,0,135.596,79.01316"><g transform="translate(-147.26308,-162.60924)"><g data-paper-data="{&quot;isPaintingLayer&quot;:true}" fill-rule="nonzero" stroke-linejoin="miter" stroke-miterlimit="10" stroke-dasharray="" stroke-dashoffset="0" style="mix-blend-mode: normal"><path d="" data-paper-data="{&quot;index&quot;:null}" fill="none" stroke="#000000" stroke-width="1.5" stroke-linecap="round"></path><path d="" data-paper-data="{&quot;index&quot;:null}" fill="none" stroke="#000000" stroke-width="1.5" stroke-linecap="round"></path><path d="" data-paper-data="{&quot;index&quot;:null}" fill="none" stroke="#000000" stroke-width="1.5" stroke-linecap="round"></path><path d="M272.96865,174.67329" data-paper-data="{&quot;index&quot;:null}" fill="#b68b52" stroke="none" stroke-width="0" stroke-linecap="round"></path><g fill="#b68b52" stroke="none" stroke-width="0"><path d="M250.18487,241.02044c-21.48642,3.77342 -41.96357,-10.58581 -45.73698,-32.07225c-3.77342,-21.48642 10.58581,-41.96357 32.07225,-45.73698c21.48642,-3.77342 41.96357,10.58581 45.73698,32.07225c3.77342,21.48642 -10.58581,41.96357 -32.07225,45.73698z" stroke-linecap="butt"></path><path d="M236.49992,193.95827l-17.9442,-3.00796" stroke-linecap="round"></path><path d="M232.63251,196.12418l1.43627,6.96901" stroke-linecap="round"></path><path d="M250.61325,186.03697l-9.80923,7.03242" stroke-linecap="round"></path><path d="M243.1041,194.07276l0.95185,6.62931" stroke-linecap="round"></path><path d="M235.92353,220.23377c0,0 0.18995,-11.78986 2.94554,-12.22322c3.29508,-0.51821 8.77592,11.51846 8.77592,11.51846" stroke-linecap="round"></path></g><g fill="#b68b52" stroke="none" stroke-width="0" stroke-linecap="butt"><path d="M217.49857,219.38221l-36.04914,-12.24569l2.15309,-6.33831l36.04914,12.2457z"></path><path d="M220.49915,226.80841l-6.14023,-2.08581l5.71915,-16.83613l6.14023,2.08581z"></path><path d="M178.622,238.87341l-31.35892,-11.0943l19.17445,-33.03269l18.22642,5.52863z"></path><path d="M169.63466,225.65778l-5.54601,-1.88395l8.34322,-24.56096l5.54601,1.88395z"></path></g></g></g></svg>