<svg version="1.1" xmlns="http://www.w3.org/2000/svg" xmlns:xlink="http://www.w3.org/1999/xlink" width="208.39513" height="146.52856" viewBox="0,0,208.39513,146.52856"><g transform="translate(-103.24102,-73.72144)"><g data-paper-data="{&quot;isPaintingLayer&quot;:true}" fill-rule="nonzero" stroke-linejoin="miter" stroke-miterlimit="10" stroke-dasharray="" stroke-dashoffset="0" style="mix-blend-mode: normal"><path d="" data-paper-data="{&quot;index&quot;:null}" fill="none" stroke="#000000" stroke-width="1.5" stroke-linecap="round"></path><path d="M200.5,180c0,-21.81525 17.68475,-39.5 39.5,-39.5c21.81525,0 39.5,17.68475 39.5,39.5c0,21.81525 -17.68475,39.5 -39.5,39.5c-21.81525,0 -39.5,-17.68475 -39.5,-39.5z" fill="#d8d8d8" stroke="#000000" stroke-width="1.5" stroke-linecap="butt"></path><path d="M225.51005,194.79568c5.44898,-2.88817 27.57511,5.13694 27.57511,5.13694" data-paper-data="{&quot;index&quot;:null}" fill="none" stroke="#000000" stroke-width="1.5" stroke-linecap="round"></path><path d="M250.89804,170.36202l6.93986,4.16391l-6.59286,1.38797l-3.29643,5.89888l-2.25545,-6.41937l-7.46035,-3.64343l7.11335,-2.08196l3.99042,-7.46035z" fill="#be82ff" stroke="#000000" stroke-width="0" stroke-linecap="round"></path><path d="M232.4536,175.95558l-10.7662,-2.43108" fill="none" stroke="#000000" stroke-width="1.5" stroke-linecap="round"></path><path d="M229.67523,164.84208l-1.38919,9.72431" fill="none" stroke="#000000" stroke-width="1.5" stroke-linecap="round"></path><g stroke-linecap="round"><path d="M288.732,141.53579l-5.82725,23.809l-2.79796,-0.57801l6.11344,-24.03683z" fill="none" stroke="#4d6200" stroke-width="3"></path><path d="M282.39635,162.9441l5.13251,-19.98298l-2.52406,-7.57571l2.37147,-0.25138l2.86863,6.83386" fill="none" stroke="#4d6200" stroke-width="3"></path><path d="M296.04296,118.41589l-11.44672,20.56769l-3.08415,-0.35018l12.30531,-21.25118z" fill="none" stroke="#4d6200" stroke-width="3"></path><path d="M293.15079,109.49676l1.83496,9.05942l-11.07298,19.56882" fill="none" stroke="#4d6200" stroke-width="4.5"></path><path d="M298.18449,94.9694l0.63743,8.14248l-7.23678,4.12451l-8.56333,-2.53426l0.10442,-7.79792" fill="none" stroke="#4d6200" stroke-width="4.5"></path><path d="M293.15747,118.60892l-2.77545,-9.94719" fill="none" stroke="#4d6200" stroke-width="4.5"></path><g stroke="#7f00ff"><path d="M294.69103,85.29079l0.54396,13.73741l-3.88589,4.32295l-5.59787,-4.10329l-0.58743,-13.48242l4.69431,-4.4475z" fill="#7d00ff" stroke-width="0.5"></path><path d="M293.26036,87.4148l0.38117,9.62618l-2.72295,3.02922l-3.92258,-2.87528l-0.41163,-9.4475l3.28943,-3.11648z" fill="#be82ff" stroke-width="0"></path></g></g><path d="M281.526,102.06079c0.13366,-0.45587 0.29743,-0.88737 0.5049,-1.34617c-1.16943,1.24393 -2.30271,2.51622 -3.57039,3.63603c-0.00549,0.0065 -0.01097,0.013 -0.01645,0.0195l0.13381,0.11096l-0.95399,1.15041c-0.10653,0.13055 -0.25746,0.22616 -0.4357,0.26131c-0.40638,0.08016 -0.8008,-0.1843 -0.88097,-0.59068c-0.03621,-0.18356 -0.00211,-0.36467 0.08363,-0.5155l0.46742,-0.83437l0.02537,0.01422l0.01055,-0.07203c2.05745,-2.49574 4.02316,-5.04001 5.95864,-7.63074c0.38415,-0.5142 0.65476,-1.05152 0.94738,-1.56314c-3.1099,2.9285 -5.86424,6.73127 -9.35449,9.11389l0.12533,0.13069l-0.9708,0.93095c-0.10116,0.1001 -0.23188,0.17256 -0.38196,0.20217c-0.40638,0.08016 -0.8008,-0.1843 -0.88097,-0.59068c-0.04288,-0.21736 0.01284,-0.4313 0.13612,-0.59555l0.8346,-1.12102c1.97489,-2.65262 4.08522,-5.1761 6.19087,-7.72467c0.11889,-0.14389 0.22975,-0.28715 0.33571,-0.42805c-1.16696,0.61811 -2.26972,1.2256 -3.48385,1.68571c-0.19828,0.11111 -0.40497,0.22272 -0.62303,0.33737l0.04991,0.11088l-1.35282,0.60898c-0.05534,0.02634 -0.11483,0.04627 -0.17771,0.05867c-0.40638,0.08016 -0.8008,-0.1843 -0.88097,-0.59068c-0.02857,-0.14482 -0.01337,-0.28811 0.03641,-0.41621l-0.67813,-0.03213c-0.3432,-0.00879 -0.6467,-0.25386 -0.71592,-0.60476c-0.07181,-0.36406 0.13296,-0.71853 0.46859,-0.84605l1.36805,-0.54988c1.84078,-0.83396 3.65043,-1.70267 5.56037,-2.36638c0.45487,-0.15806 0.9186,-0.29246 1.36509,-0.47286c0.40192,-0.16239 1.61664,-0.33258 1.20881,-0.47945c-2.60962,-0.93986 -5.6012,-1.97456 -7.6599,-3.82134c-0.0032,-0.00166 -0.0064,-0.00329 -0.00961,-0.00495l-0.27235,0.28719l-1.08196,-1.02606c-0.07436,-0.06875 -0.1353,-0.15293 -0.17727,-0.24883c-0.64696,-0.30223 -1.29392,-0.60454 -1.9408,-0.90712l-0.03826,-0.04976l-0.01243,0.01839l-0.9764,-0.65932c-0.00005,-0.00003 -0.00009,-0.00008 -0.00016,-0.0001c-0.15839,-0.10695 -0.27621,-0.2741 -0.31611,-0.47642c-0.08016,-0.40638 0.1843,-0.8008 0.59068,-0.88097c0.14633,-0.02886 0.29109,-0.01305 0.42021,0.03799l1.39294,0.52404l-0.05359,0.14244c3.93437,0.77138 8.06618,2.68425 11.41618,4.55107l0.00487,0.00575l0.00128,-0.00221l0.95287,0.55486c0.18132,0.10437 0.31823,0.28364 0.3619,0.50501c0.03478,0.17635 0.00467,0.35044 -0.07377,0.49758c0.4573,0.21906 0.91443,0.43853 1.37138,0.65839c0,0 0.67582,0.32519 0.35064,1.00102c-0.32519,0.67582 -1.00102,0.35064 -1.00102,0.35064c-0.59531,-0.28645 -1.19107,-0.57184 -1.78721,-0.85634c-0.02211,0.06483 -0.05102,0.13244 -0.08728,0.20305c0.21455,0.09614 0.38075,0.2914 0.42971,0.53961c0.05102,0.25862 -0.03754,0.51238 -0.21341,0.6834l-1.05214,1.05293l-0.06858,-0.06853c-0.10502,0.15746 -0.21152,0.3141 -0.31939,0.46998c0.68874,-0.62099 1.39078,-1.2198 2.10921,-1.78678l1.80357,-0.13022c-0.29334,1.49015 -0.84907,2.88297 -1.56889,4.20574c0.01668,-0.00449 0.03363,-0.00846 0.05085,-0.01185c0.40638,-0.08016 0.8008,0.1843 0.88097,0.59068c0.03154,0.15992 0.00972,0.318 -0.05312,0.4558l-0.60066,1.36439l-0.04896,-0.02155c-0.02391,0.07103 -0.0476,0.11475 -0.0476,0.11475l-0.20285,0.37448c-0.41452,1.23748 -0.97252,2.39326 -1.70288,3.64384l-0.67226,1.18438c-0.10369,0.18519 -0.28491,0.32543 -0.50945,0.36971c-0.40638,0.08016 -0.8008,-0.1843 -0.88097,-0.59068c-0.03192,-0.16183 -0.0092,-0.32176 0.05538,-0.46071l0.6113,-1.36006l0.12627,0.05676c0.01532,-0.02674 0.03052,-0.05369 0.04556,-0.08083z" fill="#7d00ff" stroke="none" stroke-width="0.5" stroke-linecap="butt"></path><path d="M282.77867,86.20634c-3.59242,-2.80852 -6.41628,-6.40541 -9.36088,-9.8788l-0.92787,-1.0945c-0.08474,-0.09618 -0.14592,-0.21538 -0.17252,-0.35021c-0.08016,-0.40638 0.1843,-0.8008 0.59068,-0.88097c0.26437,-0.05214 0.52368,0.04155 0.69469,0.2253l1.03041,1.07286l-0.06615,0.06353c0.12141,0.14323 0.24259,0.28668 0.36363,0.43032c2.31599,1.88866 4.17792,4.28116 6.60774,6.06077c-0.17561,-0.47031 -0.34963,-0.95611 -0.52561,-1.46103l0.00058,-0.01393l-0.00458,0.00141l-0.24449,-0.78927c-0.00911,-0.02814 -0.01665,-0.05712 -0.02252,-0.08686c-0.08016,-0.40638 0.1843,-0.8008 0.59068,-0.88097c0.25125,-0.04956 0.49794,0.03261 0.66859,0.19861l0.64343,0.61019l-0.15659,0.16512c0.20972,0.16599 0.40988,0.34169 0.60239,0.52547c0.06575,-0.03603 0.13807,-0.06274 0.21553,-0.07802c0.32093,-0.06331 0.63439,0.08831 0.79152,0.35502l0.56294,0.90648c0.606,0.97582 1.04673,1.72741 1.40893,2.55934c0.0166,0.02207 0.03322,0.04411 0.04988,0.06615l0.12389,-0.07694l0.78224,1.25961c0.05123,0.07837 0.08856,0.16769 0.10778,0.26519c0.08016,0.40638 -0.1843,0.8008 -0.59068,0.88097c-0.29445,0.05808 -0.58261,-0.06475 -0.74951,-0.29141l-0.72197,-0.93839c-0.06415,-0.08338 -0.14644,-0.18289 -0.24279,-0.29574c-0.05222,0.10695 -0.13743,0.20947 -0.27452,0.28313c0.676,1.28362 1.4802,2.51886 2.54582,3.84879c0,0 0.46897,0.58529 -0.11632,1.05426c-0.58529,0.46897 -1.05426,-0.11632 -1.05426,-0.11632c-0.95809,-1.19571 -1.72216,-2.33182 -2.3743,-3.49262c-0.39122,0.19414 -0.77584,-0.10655 -0.77584,-0.10655z" fill="#7d00ff" stroke="none" stroke-width="0.5" stroke-linecap="butt"></path><path d="M290.83577,108.55793c0.72935,0.17476 0.55459,0.90412 0.55459,0.90412l-0.37136,1.531c-2.17798,4.54164 -4.07926,10.13201 -7.10468,14.32573l0.13058,0.06334l-0.65086,1.34192c-0.09818,0.20802 -0.29043,0.36831 -0.53341,0.41623c-0.40638,0.08016 -0.8008,-0.1843 -0.88097,-0.59068c-0.02241,-0.11361 -0.01788,-0.22629 0.00915,-0.33144l0.28312,-1.2124l0.00876,0.00204l-0.0024,-0.02733c2.14721,-6.97559 4.52534,-14.41697 5.09301,-21.72528c-0.3318,0.11599 -0.59926,0.17545 -0.72895,0.13548c-0.47112,-0.14518 -0.18832,-0.96781 -0.28248,-1.45171c0,0 0.0613,-0.7475 0.80878,-0.6862c0.41102,0.03371 0.57749,0.27487 0.64409,0.48516c0.56531,-0.66594 2.60465,-2.08207 3.21861,-1.79311c0.63484,0.29878 0.62141,1.25999 0.87803,1.91299c0.65307,1.66184 1.08379,3.46104 1.58615,5.18759c0.16618,-2.05111 0.70537,-4.98868 1.3996,-6.12719c0.31134,-0.5106 0.78662,-1.22645 1.37938,-1.14722c0.2706,0.03617 0.5582,0.20457 0.85245,0.46519c-0.06938,-0.22017 -0.13861,-0.42601 -0.20876,-0.61333c-0.05502,-0.14692 -1.06169,-2.78324 -1.00476,-2.87716c0.28847,-0.47596 2.1541,-0.87876 2.86712,-1.10923c1.85972,-0.60115 3.55966,-1.58566 5.30882,-2.44592c0.40891,-0.20111 0.81166,-0.41581 1.22947,-0.59774c0.24565,-0.10697 1.00084,-0.15468 0.75791,-0.26768c-0.60752,-0.2826 -2.89574,-0.01615 -3.62413,0.07004c-0.47041,0.05566 -0.94121,0.108 -1.41182,0.16199l-0.01425,-0.00212l0.00026,0.00334l-1.48607,0.11447c-0.37769,0.0344 -0.7279,-0.22161 -0.80292,-0.60191c-0.05387,-0.27308 0.04788,-0.54076 0.24373,-0.71131l1.10361,-0.99542l0.12749,0.14135c1.3861,-1.44015 3.03011,-2.65002 4.67396,-3.84017c-1.28308,0.62195 -2.61061,1.17462 -3.89716,1.73411c-0.23661,0.1029 -2.57584,1.20294 -2.88782,0.95213c-1.22151,-0.982 -0.61685,-2.75928 -0.1909,-3.8222c0.98656,-2.46191 2.54404,-4.77863 3.90944,-7.10707c-0.6556,0.53921 -1.36618,1.04112 -1.87429,1.79269c-0.78258,1.15752 -1.35905,2.45192 -2.14343,3.61899c-0.31195,0.46414 -1.19645,2.18757 -2.17611,1.84161c-1.79287,-0.63314 -1.41797,-3.40026 -0.79926,-5.79765c-0.18359,-0.0493 -0.38086,-0.1283 -0.59217,-0.24107c-0.95171,-0.50789 -1.90771,-2.31871 -2.66128,-3.15698c-0.15348,-0.17073 -0.38875,-0.53866 -0.57386,-0.85197c0.30101,0.96471 -0.18061,2.2081 -0.21916,3.14395c-0.11797,2.86322 0.42026,5.73587 0.75729,8.56687l0.11241,0.55862c0,0 0.14514,0.73582 -0.59068,0.88097c-0.73582,0.14514 -0.88097,-0.59068 -0.88097,-0.59068l-0.13025,-0.67159c-0.40042,-3.36428 -0.98047,-6.71541 -0.6348,-10.10955c0.06843,-0.67185 0.24795,-3.24473 0.7336,-3.58749c1.04481,-0.7374 3.6377,2.92562 4.12612,3.5363c0.29326,0.36667 0.65379,1.45917 0.88423,1.33324c0.21446,-0.72959 0.4194,-1.37097 0.54427,-1.83241l-0.16426,-0.05349l0.4599,-1.4121c0.07812,-0.25628 0.29137,-0.46225 0.57261,-0.51773c0.40638,-0.08016 0.8008,0.1843 0.88097,0.59068c0.02011,0.10193 0.01853,0.2031 -0.00152,0.29876l-0.20208,1.08878l-0.00527,-0.00098l0.00258,0.01479c-0.35691,1.5878 -1.00442,3.17108 -1.25953,4.77022c-0.10367,0.64981 0.24571,1.55903 0.12039,2.24061c0.13783,-0.30324 0.32806,-0.69053 0.44822,-0.87297c0.49001,-0.74395 0.96564,-1.49873 1.39905,-2.27702c1.09081,-1.95887 2.28584,-3.15462 3.98766,-4.06324l-0.07497,-0.12182l1.2628,-0.777c0.07774,-0.05038 0.1662,-0.0871 0.26263,-0.10612c0.40638,-0.08016 0.8008,0.1843 0.88097,0.59068c0.02133,0.10812 0.01825,0.21538 -0.00537,0.3161l-0.16055,0.76162l-0.03495,-0.00737l0.0071,0.10576c-1.29129,2.51983 -2.77229,4.92632 -4.10705,7.42189c-0.34653,0.64791 -1.46764,2.32212 -1.17602,3.17533c0.05051,0.1478 0.09738,-0.32555 0.22982,-0.40835c0.42024,-0.26271 0.91072,-0.3912 1.36521,-0.58881c0.57094,-0.24823 1.13681,-0.50813 1.70063,-0.7721c1.75203,-0.82029 2.88727,-1.4915 4.38514,-1.66841l-0.00589,-0.31022l1.48685,-0.02819c0.36213,-0.01353 0.69056,0.23766 0.76291,0.60448c0.04278,0.21689 -0.0126,0.43037 -0.13532,0.5945l-0.5145,0.69341l-0.02685,-0.01991l-0.04116,0.09933c-1.61407,1.2474 -3.78734,3.52957 -5.91194,4.7049c1.89024,-0.20233 5.05996,-0.38253 5.41766,0.95316c0.36775,1.3732 -1.9907,2.27716 -2.75077,2.6585c-1.81061,0.9084 -3.59086,1.90397 -5.52166,2.53207c-0.62091,0.20197 -1.38795,-0.08229 -1.94077,0.26515c-0.16261,0.1022 0.38581,0.14897 0.48247,0.31492c0.00645,0.01108 1.05676,2.81278 1.07243,2.85457c0.66034,1.76063 1.29018,3.3766 1.65587,5.09696c0.0704,0.13698 0.1328,0.25675 0.18621,0.35553l-0.02149,0.05626l0.03911,-0.01557l0.01248,0.03136l0.0662,-0.0228l0.4844,1.40631c0.0129,0.03564 0.02326,0.0727 0.03082,0.11103c0.08016,0.40638 -0.1843,0.8008 -0.59068,0.88097c-0.36484,0.07196 -0.72004,-0.13384 -0.84686,-0.47072l-0.53758,-1.35015c-0.99243,-1.81943 -2.29828,-3.44689 -3.13726,-5.31102c-0.21925,-0.48719 -0.06798,1.06848 -0.16007,1.59474c-0.0862,0.49251 -0.18248,0.98321 -0.27373,1.47481c-0.31762,1.71138 -0.54836,2.74504 -1.16688,3.85097l0.14743,0.0767l-0.68908,1.32453c-0.10088,0.19806 -0.28842,0.34948 -0.52341,0.39584c-0.38409,0.07576 -0.75747,-0.15631 -0.86498,-0.52509c-0.43756,-1.43476 -1.31023,-4.29625 -1.74779,-5.731c-0.23633,-0.77493 0.19056,-1.87605 -0.43465,-2.39129c-0.19043,-0.15693 -0.25801,0.4353 -0.45493,0.58401c-0.20239,0.15282 -0.6741,0.4251 -1.20643,0.69482c0.09063,0.20092 0.07657,0.4019 0.07657,0.4019c-0.34982,5.00071 -1.54165,10.06723 -2.95239,15.01205c1.21697,-2.51701 2.43285,-5.03466 3.66617,-7.54358l0.32508,-1.37553c0,0 0.17476,-0.72935 0.90412,-0.55459z" fill="#7d00ff" stroke="none" stroke-width="0.5" stroke-linecap="butt"></path><path d="M306.37077,109.20102c0.02035,-0.0229 0.04079,-0.04404 0.06132,-0.06352c-1.09272,-1.75785 -2.21505,-3.49605 -3.43576,-5.15306c0,0 -0.44463,-0.60398 0.15935,-1.04862c0.60398,-0.44463 1.04862,0.15935 1.04862,0.15935c1.81774,2.4708 3.42203,5.11622 5.03265,7.74176c0.7303,0.78434 1.23239,1.54274 1.55639,2.49722l0.26992,-0.1009l0.52036,1.39189c0.01639,0.04159 0.02927,0.08521 0.03822,0.13063c0.08016,0.40638 -0.1843,0.8008 -0.59068,0.88097c-0.31925,0.06298 -0.63113,-0.08673 -0.78905,-0.35086l-0.79022,-1.25432c-0.35948,-0.5706 -0.71527,-1.14522 -1.06982,-1.72171c-0.44506,-0.54691 -0.88471,-1.10708 -1.40226,-1.56457l-0.54642,-0.48541c0,0 -0.56071,-0.49811 -0.0626,-1.05881z" fill="#7d00ff" stroke="none" stroke-width="0.5" stroke-linecap="butt"></path><path d="M103.89409,149.5384c-0.74398,-0.09483 -0.64915,-0.83881 -0.64915,-0.83881l0.06235,-0.48915c0.36813,-2.86932 1.07344,-5.73441 1.83503,-8.57938c-0.42024,-3.54663 -0.84047,-7.09327 -1.26071,-10.6399c0,0 -0.08825,-0.74479 0.65654,-0.83304c0.74479,-0.08825 0.83304,0.65654 0.83304,0.65654c0.27398,2.31224 0.54795,4.62449 0.82193,6.93673c0.19799,-0.74092 0.39103,-1.47995 0.57405,-2.21681c0,0 0.18078,-0.72789 0.90867,-0.5471c0.72789,0.18078 0.5471,0.90867 0.5471,0.90867c-0.47904,1.92876 -1.03082,3.87428 -1.55886,5.82996c0.49817,4.20438 0.99635,8.40877 1.49452,12.61315c0.19819,-6.48806 0.77278,-12.69411 1.77102,-19.16381l0.22696,-1.47092c0.05012,-0.36556 0.36368,-0.64717 0.74301,-0.64717c0.34756,0 0.63989,0.23641 0.72498,0.55719l0.41299,1.42468l-0.29475,0.08544c0.17583,0.60225 0.28492,1.20292 0.35396,1.81295c0.00199,-0.06606 0.00399,-0.13213 0.00601,-0.19819l0.0456,-1.4965c0.01062,-0.40495 0.34223,-0.72996 0.74974,-0.72996c0.39033,0 0.71102,0.29818 0.7467,0.67919l0.15809,1.48285l-0.13575,0.01447c0.65269,2.10938 1.05794,4.40876 1.34174,6.76564c0.1367,-0.14441 0.33021,-0.2345 0.54476,-0.2345c0.37639,0 0.68802,0.27726 0.74179,0.63868l0.22662,1.35746l-0.12099,0.0202l0.01303,0.17315c0.00255,0.03395 0.00514,0.06794 0.00775,0.10198c0.73624,2.27224 0.98296,4.68028 1.40901,7.08185c0.25575,1.44161 0.48694,2.90277 0.71128,4.37342c-0.00962,-4.41297 0.10479,-9.00779 1.03459,-13.08468l-0.11013,-0.00631l0.08551,-1.49248c0.01971,-0.39663 0.34754,-0.71216 0.74906,-0.71216c0.32127,0 0.59536,0.202 0.70219,0.48593c0.00117,0.00289 0.2364,0.58678 0.40141,0.99637l0.00129,-0.56617c0,-0.00007 0,-0.00014 0,-0.00022c0.00092,-0.41343 0.33635,-0.7483 0.75,-0.7483c0.38736,0 0.70613,0.29366 0.74584,0.6705l0.17693,1.47986l-0.13777,0.01647c0.96198,2.97791 1.38279,6.30193 1.57737,9.65872c0.30504,-3.2302 0.61012,-6.4604 0.91571,-9.69055l0.06899,-1.48079c0.01611,-0.39997 0.34546,-0.71928 0.74938,-0.71928c0.39365,0 0.71646,0.30327 0.74755,0.68891l0.13686,1.48598l-0.15981,0.01472c0.7239,2.65457 0.96018,5.55291 1.13696,8.42775c0.13012,0.11896 0.21816,0.28318 0.23921,0.46774l0.1908,1.47753l-0.10113,0.01306l0.00287,0.04821c0.00713,0.11996 0.01428,0.23855 0.02136,0.3559c0.53579,1.9593 0.76094,4.02843 0.92944,6.09239c0.19887,-0.71535 0.40224,-1.39694 0.52457,-1.98256c0.95102,-4.55253 1.16492,-8.55915 1.08953,-13.2067l-0.02429,-1.49779c-0.00009,-0.00471 -0.00013,-0.00944 -0.00013,-0.01417c0,-0.41421 0.33579,-0.75 0.75,-0.75c0.37744,0 0.68976,0.27881 0.74224,0.64171l0.23854,1.46865l-0.18416,0.02991c0.91744,2.832 1.14774,5.9028 1.62702,8.85368c0.24033,1.47969 0.50572,2.95834 0.72143,4.44179c0.09146,0.62898 0.11103,2.41396 0.42182,1.85954c0.39007,-0.69584 0.09346,-1.60525 0.31021,-2.37294c0.81518,-2.88712 1.63035,-5.77425 2.44553,-8.66137c0.78276,-2.77232 1.9621,-5.66215 2.07394,-8.54444l0.06338,-1.49482c0.01469,-0.40127 0.34463,-0.72206 0.74949,-0.72206c0.41368,0 0.74913,0.33492 0.75,0.7484c0,0.00007 0,0.00014 0,0.0002l0.00321,1.49979l-0.06607,0.00014l-0.00135,0.03189c-0.0062,0.13586 -0.01449,0.27163 -0.02476,0.40731c0.45543,2.77869 0.37406,5.77076 0.16446,8.72959c0.60467,3.04747 0.726,6.35979 0.84951,9.50557c0.05448,-0.22962 0.09952,-0.46013 0.12865,-0.69155c0.42621,-3.38687 0.1796,-7.00722 0.26893,-10.42238l0.03916,-1.49707c0.00914,-0.40627 0.34134,-0.73281 0.74981,-0.73281c0.35606,0 0.65417,0.24812 0.73086,0.5809l0.36494,1.43864l-0.22798,0.05783c0.56654,1.57738 0.87965,3.28025 1.10792,5.0019c0.29865,-1.33489 0.64356,-2.59657 0.80228,-3.52065l0.25178,-1.46595c0.05515,-0.35984 0.36604,-0.63545 0.74131,-0.63545c0.32667,0 0.60456,0.20885 0.70743,0.50031l0.52591,1.38607l-0.14518,0.05509c0.43644,0.84798 0.79826,1.70705 1.15142,2.60886c0.15429,-1.45991 0.70911,-3.02973 0.8182,-4.34371c0.28511,-3.43419 0.05402,-6.99621 0.08167,-10.44363l0.01203,-1.49919c0.00283,-0.41179 0.33752,-0.74474 0.74998,-0.74474c0.33437,0 0.61763,0.21881 0.71441,0.52105l0.48508,1.401l-0.21568,0.07468c0.65982,1.48203 1.08632,3.12696 1.37675,4.84156c0.00367,-0.29745 0.01201,-0.59363 0.02553,-0.88836c0.00799,-0.29155 0.01608,-0.5831 0.02429,-0.87464l-0.1206,0.01272l-0.15618,-1.4813c-0.00346,-0.02921 -0.00523,-0.05894 -0.00523,-0.08908c0,-0.41421 0.33579,-0.75 0.75,-0.75c0.37097,0 0.67904,0.26934 0.73931,0.62313l0.27767,1.46037l-0.02822,0.00537l0.03894,0.07378c-0.00604,0.26835 -0.00993,0.53899 -0.01213,0.81163c0.32835,1.1339 0.23738,2.50642 0.35943,3.664c0.18987,1.8008 0.37854,3.5873 0.53754,5.37259c0.76004,-6.74807 1.57828,-13.48944 2.38061,-20.23261c0.29641,-2.49116 0.59252,-4.98235 0.88968,-7.47341l0.01269,-0.02424l-0.00824,-0.00157l0.2782,-1.46026c0.06038,-0.35367 0.36839,-0.62288 0.73927,-0.62288c0.41421,0 0.75,0.33579 0.75,0.75c0,0.00767 -0.00011,0.0153 -0.00034,0.02291l-0.03938,1.4963l-0.1907,-0.00502c0.29539,2.46993 0.06033,4.95857 -0.00662,7.50242c-0.18721,7.11333 -0.9392,13.92051 -1.95106,20.96182c-0.35561,2.47458 -0.71121,4.94916 -1.06682,7.42374l-0.09316,0.96364c0,0 -0.07277,0.74646 -0.81923,0.67369c-0.215,-0.02096 -0.36204,-0.09781 -0.46242,-0.19661c-0.05806,0.35644 -0.36736,0.62851 -0.74021,0.62851c-0.41371,0 -0.74919,-0.33498 -0.75,-0.7485c0,-0.00006 0,-0.00013 0,-0.00019l-0.00299,-1.49981c-0.00219,-1.09642 -0.06773,-2.21715 -0.16888,-3.35311l-0.01057,0.41971c-0.0088,0.40657 -0.34114,0.73345 -0.74982,0.73345c-0.38962,0 -0.70986,-0.2971 -0.7465,-0.67711c-0.36922,-3.36556 -0.90105,-8.21327 -1.27027,-11.57882c-0.01721,3.49425 -0.21031,6.99842 -1.19429,10.29133l0.13267,0.02109l-0.23361,1.46962c-0.05148,0.36403 -0.36433,0.64403 -0.74257,0.64403c-0.32667,0 -0.60456,-0.20885 -0.70743,-0.50031l-0.49308,-1.29953c-0.33613,-0.88589 -0.85152,-1.84775 -1.16905,-2.81627c-0.35218,2.4535 -0.5972,4.99225 -1.21451,7.37375l0.15846,0.01459l-0.13684,1.48598c-0.03108,0.38565 -0.3539,0.68893 -0.74755,0.68893c-0.38152,0 -0.69651,-0.28488 -0.74385,-0.65352l-0.21341,-1.47348c-0.10718,-0.74004 -0.3184,-1.67669 -0.54959,-2.70274c-0.1344,2.49258 -0.47102,4.94694 -1.33586,7.26079l0.17071,0.03893l-0.33019,1.44785c-0.07032,0.34126 -0.37247,0.59785 -0.73456,0.59785c-0.39876,0 -0.72484,-0.31121 -0.74861,-0.70399l-0.10366,-1.49035c-0.09407,-1.35244 -0.20002,-2.70365 -0.31269,-4.05426c-0.1363,0.18785 -0.35761,0.31002 -0.60745,0.31002c-0.41421,0 -0.75,-0.33579 -0.75,-0.75c0,-0.00778 0.00012,-0.01553 0.00035,-0.02325l0.03997,-1.49624l0.03164,0.00085l0.00075,-0.01555c0.01775,-0.37019 0.0366,-0.74054 0.05617,-1.11101c-0.1826,-2.54161 0.09521,-5.1403 0.11826,-7.7123c-0.13195,0.43157 -0.26066,0.86167 -0.38166,1.29021c-0.81518,2.88712 -1.63035,5.77425 -2.44553,8.66137c-0.15045,0.53285 -0.84834,3.29956 -1.32014,3.40131c-2.08442,0.44952 -2.16224,-2.07192 -2.33606,-3.05501c-0.35568,-2.01169 -0.67867,-4.03019 -0.99754,-6.04918c-0.2387,4.12108 -0.86832,8.28617 -2.36039,11.99656l0.11974,0.02501l-0.30381,1.45434c-0.06534,0.3476 -0.37049,0.6106 -0.73707,0.6106c-0.39188,0 -0.71356,-0.30056 -0.74711,-0.68373l-0.1482,-1.48434c-0.12595,-1.26149 -0.24444,-2.52397 -0.37249,-3.78536c-0.29149,-0.08009 -0.51198,-0.33167 -0.5462,-0.63947l-0.18621,-1.47831c-0.25922,-2.0579 -0.47172,-4.11904 -0.66863,-6.18218c-0.19935,4.1776 -0.52947,8.433 -1.63374,12.13192l0.13537,0.01279l-0.14032,1.48548c-0.03184,0.38489 -0.35431,0.68734 -0.74742,0.68734c-0.21063,0 -0.40098,-0.08683 -0.53721,-0.22664c-0.00404,0.14844 -0.00745,0.29609 -0.01018,0.44293c-0.05271,2.83712 0.06771,5.16145 -0.79317,7.57587l0.20615,0.06362l-0.43732,1.41706c-0.08916,0.3146 -0.3785,0.54507 -0.72166,0.54507c-0.34627,0 -0.63773,-0.23466 -0.72403,-0.55363c-0.14163,-0.47952 -0.70341,-2.38152 -0.84504,-2.86104c-1.41764,-4.81309 -2.16559,-9.93619 -2.9299,-14.98804c-0.03478,0.94995 -0.11044,1.88527 -0.23995,2.79638c0.0171,0.16986 0.03489,0.3387 0.05347,0.50646l-0.02434,0.02754l0.02587,-0.00103l0.00048,0.01196l0.02423,-0.00057l0.03534,1.49671c0.00018,0.00684 0.00028,0.0137 0.00028,0.02058c0,0.41421 -0.33579,0.75 -0.75,0.75c-0.40543,0 -0.73572,-0.32169 -0.74955,-0.72375l-0.05879,-1.47526c-0.138,-1.23865 -0.27579,-2.47732 -0.41345,-3.716c-0.01098,0.00048 -0.02203,0.00072 -0.03313,0.00072c-0.40265,0 -0.73119,-0.3173 -0.74922,-0.71549l-0.07809,-1.4933l0.17966,-0.00939c-0.30652,-1.51262 -0.4279,-3.06714 -0.49542,-4.62934c-0.15516,-1.19909 -0.30785,-2.39854 -0.45642,-3.59846c-0.09683,2.34241 -0.33272,4.64743 -0.86852,6.78795c0.00103,0.03289 0.00207,0.06579 0.0031,0.09868l-0.00719,0.00773l0.00731,-0.00008l0.00058,0.05289l0.11209,0.00731l-0.09728,1.49112c-0.02235,0.39414 -0.34904,0.70687 -0.74878,0.70687c-0.4118,0 -0.74608,-0.33188 -0.74997,-0.74276l-0.01649,-1.49313c-0.14145,-4.49459 -0.28271,-8.98918 -0.42405,-13.48378c-0.01006,-0.31978 -0.03327,-0.65735 -0.06203,-1.0065c-0.52077,3.782 -0.91617,7.53219 -0.99268,11.41846c-0.07614,3.86735 0.31248,8.13033 -0.40897,11.99427l0.17277,0.0034l-0.02949,1.49787c-0.0069,0.40825 -0.33999,0.73708 -0.74989,0.73708c-0.38761,0 -0.70654,-0.29403 -0.74591,-0.67122c-0.23533,-1.98611 -0.64604,-5.45233 -0.88137,-7.43843c-0.4744,-4.00377 -0.94881,-8.00754 -1.42321,-12.01131c-0.35026,1.53356 -0.64556,3.07054 -0.84012,4.6078l-0.06235,0.48915c0,0 -0.09483,0.74398 -0.83881,0.64915zM154.90404,151.84516c-0.00691,0.03563 -0.0139,0.07122 -0.02098,0.10677l0.03242,0.00082c-0.00379,-0.03585 -0.0076,-0.07172 -0.01144,-0.10759zM120.6428,147.56599c0.14633,-1.06593 0.29287,-2.13183 0.43977,-3.19768c-0.04417,-0.10963 -0.08834,-0.21926 -0.1325,-0.32889c-0.05948,0.82426 -0.20011,1.66115 -0.24332,2.41541c-0.02123,0.37048 -0.04258,0.74086 -0.06395,1.11117zM122.26664,148.43502c-0.3832,4.44346 -0.81366,9.09673 -2.1613,13.05612l0.13968,0.01916l-0.20244,1.47548c-0.01825,0.1503 -0.08096,0.28688 -0.17458,0.39621c0.46312,2.5963 1.00984,5.16257 1.73772,7.64338c0.08974,-1.42279 0.36383,-2.97001 0.38602,-4.16429c0.10372,-5.58214 1.27662,-12.60682 0.27491,-18.42608zM158.98241,137.85535c-0.3522,2.95677 -0.69978,5.91407 -1.03393,8.87284c0.40579,-2.97648 0.75842,-5.91967 1.03393,-8.87284z" fill="#7e54d1" stroke="none" stroke-width="0.5" stroke-linecap="butt"></path><path d="M150.3681,176.70034c-0.54266,-0.01337 -0.68289,-0.40982 -0.71895,-0.62783c0.00269,0.26029 0.00532,0.52059 0.0079,0.78088l-0.02751,0.06259l0.01951,0.00325l-0.2446,1.46742c-0.05371,0.3615 -0.36537,0.63885 -0.74182,0.63885c-0.35003,0 -0.64406,-0.23979 -0.72677,-0.56406l-0.39914,-1.42886l0.10673,-0.02981c-0.48038,-1.02884 -0.89029,-2.08541 -1.24036,-3.16406c-0.11265,1.89189 -0.26499,3.78154 -0.69531,5.59917l0.18658,0.01492l-0.119,1.48841c-0.02717,0.38951 -0.35175,0.69705 -0.74816,0.69705c-0.40103,0 -0.72855,-0.31476 -0.74899,-0.7107l-0.08877,-1.49211c-0.33804,-5.6824 -0.66447,-11.36491 -1.02552,-17.04524c-0.12884,3.2411 -0.25793,6.48218 -0.3878,9.72324c-0.07099,1.77152 0.60557,4.66187 0.22134,6.68081c0.01757,0.3802 0.03514,0.7604 0.05271,1.1406l0.05073,1.09775c0.00069,0.01323 0.00105,0.02654 0.00105,0.03994c0,0.41421 -0.33579,0.75 -0.75,0.75c-0.40285,0 -0.73152,-0.31762 -0.74925,-0.71609l-0.07674,-1.49344l0.00773,-0.0004c-0.02141,-0.46341 -0.04283,-0.92682 -0.06424,-1.39024c-0.23848,-1.66344 -0.27196,-3.37057 -0.23396,-5.07538c-0.4252,-9.468 -0.65242,-18.94642 -0.93955,-28.41985c-0.25155,4.45632 -0.5031,8.91265 -0.75465,13.36897c-0.14076,2.49357 -0.0899,5.05582 -0.44543,7.52365c-0.02408,0.48715 -0.04816,0.9743 -0.07225,1.46145l0.01046,0.00059l-0.08425,1.49262c-0.01942,0.3969 -0.34737,0.71273 -0.74909,0.71273c-0.41421,0 -0.75,-0.33579 -0.75,-0.75c0,-0.01432 0.0004,-0.02855 0.00119,-0.04268c0.01302,-0.26346 0.09908,-2.00431 0.1121,-2.26777c-0.29216,-1.60981 0.05945,-3.77671 0.27025,-5.46685c0.14376,-2.90815 0.28752,-5.81631 0.43128,-8.72446c0.32093,-6.49207 0.64185,-12.98415 0.96278,-19.47622c0.09873,-1.99725 0.08048,-4.03553 0.23642,-6.03906c-0.08579,-1.42935 -0.17526,-2.85906 -0.26758,-4.28955c-0.01481,-0.22954 -0.03974,-0.4801 -0.07106,-0.74686c-0.32747,2.72511 -0.65498,5.45021 -0.98271,8.17529c-0.85147,10.23064 -1.706,20.46102 -2.55906,30.69153c-0.54235,6.50427 -0.15263,12.84882 0.1692,19.36348c0.12514,2.53328 0.45398,5.11606 0.34665,7.64485c0.0272,0.44832 0.0543,0.89665 0.0813,1.34499l0.01611,-0.0008l0.07373,1.49253c0.00079,0.01412 0.00119,0.02834 0.00119,0.04265c0,0.41421 -0.33579,0.75 -0.75,0.75c-0.40087,0 -0.72828,-0.3145 -0.74896,-0.71022l-0.0872,-1.44818c-0.01723,-0.2862 -0.03451,-0.5724 -0.05182,-0.8586c-0.4097,-1.43483 -0.34443,-3.37527 -0.30669,-4.98937c-0.63588,-10.17971 -1.28186,-20.34486 -1.62785,-30.53899c-0.21671,-6.38498 -0.45182,-12.76857 -0.7054,-19.15206c-0.62153,7.39319 -1.01489,14.82433 -1.14634,22.22001c-0.05986,3.36815 0.08907,6.74895 0.30848,10.12864c0.53038,4.54716 1.10319,9.0911 1.66013,13.64589c0.16987,1.38922 0.33997,2.77842 0.50823,4.16784l-0.0133,0.0456h0.01469v1.5c0,0.41421 -0.33579,0.75 -0.75,0.75c-0.36458,0 -0.66841,-0.26014 -0.73598,-0.60493l-0.31556,-1.4515l0.18141,-0.03944c-0.4698,-1.28304 -0.76209,-2.59441 -0.95777,-3.92988c0.25868,3.34036 0.47504,6.68497 0.68325,10.02625l-0.09801,0.12741l0.06213,0.02187l-0.2488,0.70698c-0.09786,0.30039 -0.38021,0.51747 -0.71326,0.51747c-0.37143,0 -0.6798,-0.27001 -0.73954,-0.62446l-0.2749,-1.46099l0.15027,-0.02827c-0.6493,-2.06049 -0.97709,-4.20169 -1.35734,-6.35317c-0.14813,-0.11788 -0.25064,-0.29062 -0.27678,-0.48749l-0.22026,-1.4722l0.13515,-0.02022c-0.03281,-0.1828 -0.06516,-0.36546 -0.09706,-0.54798c-0.27584,-1.01042 -0.46638,-2.03996 -0.62517,-3.08222c0.01311,1.3948 0.02593,2.78959 0.03797,4.1844l-0.01071,0.02939l0.00919,0.00065l-0.10575,1.4901c-0.02423,0.39234 -0.35011,0.70305 -0.74855,0.70305c-0.1421,0 -0.27497,-0.03952 -0.38821,-0.10816c0.10468,2.49249 0.20826,4.98502 0.30563,7.47778l-0.04269,0.07108l0.03401,0.00563l-0.1319,0.79662c-0.05339,0.36187 -0.36523,0.63959 -0.74193,0.63959c-0.39283,0 -0.71513,-0.30202 -0.74735,-0.68653l-0.14209,-1.48523l0.17966,-0.01719c-0.57595,-2.42107 -0.65208,-4.9209 -0.89392,-7.44872c-0.67438,-7.0491 -0.86463,-13.95 -0.87056,-21.02989c-0.00715,-8.54056 0.04,-17.02844 0.36646,-25.5411c0.00487,-0.85469 0.01065,-1.70939 0.01718,-2.56412c-0.00016,-2.83682 0.00035,-5.67364 0.00267,-8.51046c0.00215,-2.6252 -0.2101,-5.31404 0.06301,-7.91728c-0.00793,-0.35559 -0.01587,-0.71122 -0.02323,-1.0669l-0.00033,-0.01579l-0.0321,-0.00003l0.00123,-1.49992c0,-0.00003 0,-0.00005 0,-0.00008c0.00033,-0.40954 0.32891,-0.74226 0.73685,-0.74927c0.1056,-0.13986 0.25905,-0.24157 0.43601,-0.28077c0.00752,-0.13329 0.01505,-0.26658 0.02258,-0.39987v-1.19728c0,0 0,0 0,0c0,-0.41421 0.33579,-0.75 0.75,-0.75c0.34758,0 0.63994,0.23644 0.725,0.55727l0.41284,1.42473l-0.23231,0.06731c0.40766,1.09036 0.63373,2.20059 0.76643,3.33563c0.39883,-1.06381 1.18393,-1.50507 2.7435,-0.17635c0,0 0.5286,0.53205 -0.00345,1.06065c-0.53205,0.5286 -1.06065,-0.00345 -1.06065,-0.00345c-0.12361,-0.20096 -0.56873,-0.54632 -0.63183,-0.31898c-0.52726,1.89959 -0.0212,5.00869 -0.09337,7.04268c-0.0152,0.4283 -0.03102,0.85666 -0.04731,1.28505c0.08964,1.29804 0.1498,2.60044 0.25832,3.88397c0.54777,6.47876 0.97205,12.96975 1.44989,19.45406c0.00855,0.11596 0.01716,0.23191 0.02586,0.34784c0.30611,-8.167 0.91733,-16.35163 1.78905,-24.45642c0.05347,-0.49713 0.10694,-0.99427 0.16041,-1.4914l0.08825,-0.82048c0.03598,-0.3807 0.35652,-0.67856 0.74664,-0.67856c0.40533,0 0.73557,0.32154 0.74954,0.72347l0.06022,1.49513l-0.18614,0.0075c0.56905,2.92206 0.42802,5.99812 0.54833,8.98521c0.26166,6.49657 0.49799,12.99332 0.71853,19.49141c0.05066,1.4926 0.10776,2.98459 0.17033,4.47608c0.76026,-9.12032 1.51977,-18.24071 2.28164,-27.3609c0.59674,-4.96885 1.19417,-9.93761 1.79132,-14.90641l0.17783,-1.47971c0.03989,-0.37664 0.35857,-0.67008 0.74579,-0.67008c0.3999,0 0.7267,0.31298 0.74881,0.70734l0.09623,1.49125l-0.18196,0.01174c0.40408,1.86103 0.52405,3.79037 0.6084,5.71976c0.07575,-0.02574 0.15695,-0.0397 0.2414,-0.0397c0.39746,0 0.72271,0.30917 0.74837,0.70014l0.11217,1.48929l-0.18747,0.01412c0.67407,2.89933 0.63888,5.97923 0.86342,8.96046c0.1679,2.22923 0.3358,4.45845 0.5037,6.68768c0.1841,-2.24532 0.38662,-4.48859 0.601,-6.73189c-0.00515,-1.93285 -0.0103,-3.86571 -0.01544,-5.79856c-0.00674,-2.53033 -0.21372,-5.11936 0.00901,-7.63472c-0.00134,-0.10292 -0.00267,-0.20583 -0.004,-0.30875c-0.00455,-0.35218 -0.0091,-0.70436 -0.01364,-1.05654l-0.01534,0.00004l-0.00399,-1.49965c0,-0.00078 0,-0.00156 0,-0.00234c0,-0.41421 0.33579,-0.75 0.75,-0.75c0.41139,0 0.74541,0.33122 0.74995,0.74153c0.0034,0.26309 0.02032,1.5739 0.02372,1.83699c0.11416,-1.08914 0.22847,-2.17826 0.34322,-3.26733l0.00788,-0.85862c0.00323,-0.41145 0.33777,-0.74399 0.74998,-0.74399c0.38391,0 0.70044,0.28845 0.74471,0.66044l0.19859,1.47617l-0.19106,0.0257c0.68854,2.39011 0.85161,4.88424 1.19105,7.40733c0.23918,1.77782 0.40984,3.56291 0.53503,5.35246c0.12064,-1.50892 0.24127,-3.01784 0.36191,-4.52677l0.119,-1.48841c0.02717,-0.38951 0.35175,-0.69705 0.74816,-0.69705c0.40045,0 0.7276,0.31384 0.7489,0.70898l0.09259,1.49167l-0.18654,0.01158c0.63362,2.90863 0.55889,5.9873 0.7441,8.97113c0.40229,6.48111 0.7072,12.84233 0.54726,19.33531c-0.197,7.99757 -0.394,15.99515 -0.591,23.99272l-0.0278,1.12853c0,0 -0.01847,0.74977 -0.76824,0.7313zM147.52047,140.29119c-0.13779,-6.14355 -0.14364,-12.31691 -0.96233,-18.40233c-0.07308,-0.54324 -0.21224,-1.20283 -0.36209,-1.91661c-0.34323,3.27572 -0.6855,6.54356 -1.00634,9.81009c0.11435,6.46422 0.26563,12.92648 0.493,19.3917c0.1375,3.90994 0.03435,7.96119 0.17212,11.95121c0.27186,-3.40045 0.54372,-6.80089 0.81558,-10.20134c0.28336,-3.54424 0.56671,-7.08848 0.85007,-10.63272zM149.64444,175.62211c0.197,-7.99757 0.41416,-16.81369 0.61116,-24.81127c0.15824,-6.42417 -0.15335,-12.73828 -0.5415,-19.13581c-0.23081,2.88703 -0.46162,5.77406 -0.69244,8.66109c0.01478,0.64839 0.03104,1.29647 0.04988,1.94409c0.30537,10.50193 0.42885,21.00157 0.55239,31.50709c0.00719,0.6116 0.01402,1.2232 0.02051,1.8348zM142.18212,149.45562c-0.12233,-1.37142 -0.24466,-2.74283 -0.36698,-4.11425c0.07627,2.54023 0.14866,5.0808 0.22215,7.6214c0.02511,-0.63079 0.05022,-1.26157 0.07533,-1.89236c0.02144,-0.5386 0.04464,-1.07685 0.0695,-1.61479zM129.74755,166.50089c-0.16278,-1.38486 -0.32192,-2.76995 -0.47577,-4.15567c0.25218,3.59358 0.5451,7.18605 0.90033,10.77985c0.04418,0.44696 0.08719,0.89408 0.12912,1.34135c-0.01843,-0.31638 -0.03724,-0.63373 -0.05738,-0.95199c-0.14766,-2.33356 -0.33224,-4.67259 -0.4963,-7.01354zM129.12159,178.39111c-0.13085,-1.70746 -0.27373,-3.41396 -0.44221,-5.1185c-0.69193,-7.00026 -1.14831,-13.99553 -1.52738,-21.0037c-0.02571,2.11191 -0.0494,4.22389 -0.06744,6.33582c0.02651,0.52025 0.05383,1.04054 0.08199,1.5609c0.44821,4.78862 0.95216,9.57267 1.50685,14.35803c0.14942,1.28914 0.29891,2.57828 0.44819,3.86744zM125.5525,164.23596c-0.27666,-3.37636 -0.41922,-6.74643 -0.43556,-10.2216c-0.11279,-1.35644 -0.22095,-2.71346 -0.32437,-4.07117c0.10799,8.35413 0.44044,16.68976 0.78147,25.04473c0.01152,0.04254 0.02317,0.08521 0.03492,0.12802c-0.01131,-1.2298 -0.02256,-2.45961 -0.03409,-3.68941c-0.02246,-2.3966 -0.02815,-4.7935 -0.02237,-7.19056zM144.98254,167.48713c0.05245,0.86552 0.10442,1.73107 0.15607,2.59665c0.02844,-0.35579 0.05689,-0.71158 0.08533,-1.06738c-0.08908,-0.50713 -0.16923,-1.01705 -0.24141,-1.52927zM146.74221,168.8478c0.38142,1.16693 0.9243,2.44325 1.36708,3.70458c-0.06957,-5.90278 -0.14139,-11.80379 -0.24781,-17.7045c-0.37309,4.66664 -0.74618,9.33328 -1.11927,13.99992z" fill="#9966ff" stroke="none" stroke-width="0.5" stroke-linecap="butt"></path></g></g></svg>