<svg version="1.1" xmlns="http://www.w3.org/2000/svg" xmlns:xlink="http://www.w3.org/1999/xlink" width="103.25396" height="152.43064" viewBox="0,0,103.25396,152.43064"><g transform="translate(-198.43372,-68.44006)"><g data-paper-data="{&quot;isPaintingLayer&quot;:true}" fill-rule="nonzero" stroke-linejoin="miter" stroke-miterlimit="10" stroke-dasharray="" stroke-dashoffset="0" style="mix-blend-mode: normal"><path d="M267.41481,125.50549c0,-5.6369 4.56962,-10.20651 10.20652,-10.20651c5.6369,0 10.20651,4.56961 10.20651,10.20651c0,5.6369 -4.56961,10.20651 -10.20651,10.20651c-5.6369,0 -10.20652,-4.56961 -10.20652,-10.20651z" fill="#d8d8d8" stroke="#000000" stroke-width="1" stroke-linecap="butt"></path><path d="" data-paper-data="{&quot;index&quot;:null}" fill="none" stroke="#000000" stroke-width="1.5" stroke-linecap="round"></path><path d="" data-paper-data="{&quot;index&quot;:null}" fill="none" stroke="#000000" stroke-width="1.5" stroke-linecap="round"></path><path d="M301.68768,195.47554" data-paper-data="{&quot;index&quot;:null}" fill="none" stroke="#d8d8d8" stroke-width="4" stroke-linecap="round"></path><path d="M199.18372,180.6207c0,-21.81525 17.68475,-39.5 39.5,-39.5c21.81525,0 39.5,17.68475 39.5,39.5c0,21.81525 -17.68475,39.5 -39.5,39.5c-21.81525,0 -39.5,-17.68475 -39.5,-39.5z" data-paper-data="{&quot;index&quot;:null}" fill="#d8d8d8" stroke="#000000" stroke-width="1.5" stroke-linecap="butt"></path><path d="M254.35771,169.6083l-11.07275,4.59202" data-paper-data="{&quot;index&quot;:null}" fill="none" stroke="#000000" stroke-width="1.5" stroke-linecap="round"></path><path d="M249.19657,173.09156l-0.25511,5.86758" data-paper-data="{&quot;index&quot;:null}" fill="none" stroke="#000000" stroke-width="1.5" stroke-linecap="round"></path><path d="M225.51079,170.45509l14.45771,4.12252" data-paper-data="{&quot;index&quot;:null}" fill="none" stroke="#000000" stroke-width="1.5" stroke-linecap="round"></path><path d="M234.22147,173.05217l0.21988,5.35892" data-paper-data="{&quot;index&quot;:null}" fill="none" stroke="#000000" stroke-width="1.5" stroke-linecap="round"></path><path d="M233.8131,191.53176l18.63798,0.59168" fill="none" stroke="#000000" stroke-width="1.5" stroke-linecap="round"></path><g stroke="#000000" stroke-linecap="butt"><g data-paper-data="{&quot;index&quot;:null}"><path d="M233.42524,172.30387l-2.26006,21.46525c0,0 -2.56189,3.12881 -3.64047,2.95238c-1.08053,-0.17676 -2.83683,-4.01195 -2.83683,-4.01195l2.26006,-21.46525z" fill="#af5400" stroke-width="1.5"></path><path d="M242.04256,169.311c0,0 1.11301,5.69901 -1.17798,7.79718c-2.68384,2.45795 -8.16101,1.50253 -11.77643,1.00528c-6.70164,-0.92162 -12.02275,-4.17486 -11.88508,-7.26629c0.06398,-1.43642 1.7141,-5.72248 1.7141,-5.72248c0,0 7.08188,1.30029 10.66965,1.79371c6.70163,0.92162 12.45571,2.39259 12.45571,2.39259z" fill="#989898" stroke-width="1"></path><path d="M242.47009,169.15188c-0.13772,3.09142 -5.6821,4.85039 -12.38377,3.92877c-6.70164,-0.92164 -12.02278,-4.17484 -11.88507,-7.26626c0.13771,-3.09143 5.68212,-4.85041 12.38375,-3.92878c6.70164,0.92164 12.02278,4.17485 11.88507,7.26626z" fill="#989898" stroke-width="1"></path><path d="M227.06372,167.93639l12.85159,-98.23951l3.99212,14.45625l-11.10896,84.91889c0,0 -1.87494,1.43427 -2.81927,1.24721c-0.96667,-0.19144 -2.91548,-2.38288 -2.91548,-2.38288z" fill="#e6e6e6" stroke-width="0.5"></path></g><path d="M224.93657,201.20882c-5.5558,-0.95267 -9.2874,-6.22884 -8.33473,-11.78465c0.95267,-5.5558 6.22884,-9.2874 11.78465,-8.33473c5.5558,0.95267 9.2874,6.22884 8.33473,11.78465c-0.95267,5.5558 -6.22884,9.2874 -11.78465,8.33473z" fill="#d8d8d8" stroke-width="1"></path></g></g></g></svg>