<svg version="1.1" xmlns="http://www.w3.org/2000/svg" xmlns:xlink="http://www.w3.org/1999/xlink" width="94.81602" height="141.68721" viewBox="0,0,94.81602,141.68721"><g transform="translate(-192.59507,-125.36344)"><g data-paper-data="{&quot;isPaintingLayer&quot;:true}" fill-rule="nonzero" stroke-linejoin="miter" stroke-miterlimit="10" stroke-dasharray="" stroke-dashoffset="0" style="mix-blend-mode: normal"><path d="M199.48849,178.17395c0,-21.81525 17.68475,-39.5 39.5,-39.5c21.81525,0 39.5,17.68475 39.5,39.5c0,21.81525 -17.68475,39.5 -39.5,39.5c-21.81525,0 -39.5,-17.68475 -39.5,-39.5z" fill="#d8d8d8" stroke="#000000" stroke-width="1.5" stroke-linecap="butt"></path><path d="M251.85959,168.00715v8" fill="none" stroke="#000000" stroke-width="1.5" stroke-linecap="round"></path><path d="" data-paper-data="{&quot;index&quot;:null}" fill="none" stroke="#000000" stroke-width="1.5" stroke-linecap="round"></path><path d="M260.65841,197.36937c0,0 -22.52526,5.41952 -29.65539,-3.8176" data-paper-data="{&quot;index&quot;:null}" fill="none" stroke="#000000" stroke-width="1.5" stroke-linecap="round"></path><g stroke="#000000" stroke-width="1"><path d="M193.3014,192.1206l14.13725,-15.52863l6.10053,5.55391l-14.13725,15.52863z" fill="#e8ff00" stroke-linecap="butt"></path><path d="M217.96758,184.26576l-4.22407,-0.91527l-7.06917,-6.33695l-1.42544,-4.32686l4.66742,1.13229l7.14832,6.94238z" fill="#8f8f8f" stroke-linecap="butt"></path><path d="M210.02695,175.18641l40.47277,-48.3954l9.04776,-0.87655l-0.03758,8.4868l-44.47946,45.31619z" fill="#dddddd" stroke-linecap="butt"></path><path d="M243.66645,142.72448l-30.65214,34.09287" fill="none" stroke-linecap="round"></path></g><path d="M244.40605,167.90909v8" fill="none" stroke="#000000" stroke-width="1.5" stroke-linecap="round"></path><g stroke="#000000" stroke-linecap="butt"><path d="M263.91729,207.11668v-39.20997h22.7438v39.20997c0,0 -9.29674,8.53892 -10.96059,10.06715c-0.49058,0.45059 -0.95283,0.87516 -0.95283,0.87516z" fill="#008c04" stroke-width="1.5"></path><path d="M273.66845,218.73052v-51.72473h2.53967v51.72473z" fill="#00ff08" stroke-width="0"></path><path d="M286.81481,186.89531h-23.44311v-4.15075h23.44311z" fill="#00ff08" stroke-width="0"></path></g><text transform="translate(215.72535,233.62398) scale(0.37642,0.37642)" font-size="40" xml:space="preserve" fill="#000000" fill-rule="nonzero" stroke="none" stroke-width="1" stroke-linecap="butt" stroke-linejoin="miter" stroke-miterlimit="10" stroke-dasharray="" stroke-dashoffset="0" font-family="Sans Serif" font-weight="normal" text-anchor="start" style="mix-blend-mode: normal"><tspan x="0" dy="0">Knight</tspan></text><text transform="translate(213.82428,245.74329) scale(0.20478,0.20478)" font-size="40" xml:space="preserve" fill="#000000" fill-rule="nonzero" stroke="none" stroke-width="1" stroke-linecap="butt" stroke-linejoin="miter" stroke-miterlimit="10" stroke-dasharray="" stroke-dashoffset="0" font-family="Sans Serif" font-weight="normal" text-anchor="start" style="mix-blend-mode: normal"><tspan x="0" dy="0">-High HP</tspan><tspan x="0" dy="46.150000000000006px">-Counter</tspan><tspan x="0" dy="46.150000000000006px">-empower</tspan></text></g></g></svg>