<svg version="1.1" xmlns="http://www.w3.org/2000/svg" xmlns:xlink="http://www.w3.org/1999/xlink" width="102.20743" height="90.714" viewBox="0,0,102.20743,90.714"><g transform="translate(-197.09807,-140.7706)"><g data-paper-data="{&quot;isPaintingLayer&quot;:true}" fill-rule="nonzero" stroke="#000000" stroke-linejoin="miter" stroke-miterlimit="10" stroke-dasharray="" stroke-dashoffset="0" style="mix-blend-mode: normal"><path d="M199.4885,186.22941c0,-21.81525 17.68475,-39.5 39.5,-39.5c21.81525,0 39.5,17.68475 39.5,39.5c0,21.81525 -17.68475,39.5 -39.5,39.5c-21.81525,0 -39.5,-17.68475 -39.5,-39.5z" fill="#d8d8d8" stroke-width="1.5" stroke-linecap="butt"></path><path d="M242.02206,183.05544v-8" fill="none" stroke-width="1.5" stroke-linecap="round"></path><path d="" data-paper-data="{&quot;index&quot;:null}" fill="none" stroke-width="1.5" stroke-linecap="round"></path><path d="M253.08519,207.98808c0,0 -23.16802,-0.03729 -27.92241,-10.69369" data-paper-data="{&quot;index&quot;:null}" fill="none" stroke-width="1.5" stroke-linecap="round"></path><path d="M249.49371,175.54058v8" fill="none" stroke-width="1.5" stroke-linecap="round"></path><g data-paper-data="{&quot;index&quot;:null}" stroke-width="1"><path d="M258.27945,222.53068l7.59602,-18.55639l7.29001,2.98415l-7.59602,18.55639z" fill="#e8ff00" stroke-linecap="butt"></path><path d="M277.83143,207.40997l-4.08831,0.562l-8.41516,-3.36933l-2.69509,-3.41416l4.55702,-0.51251l8.68437,3.88645z" fill="#8f8f8f" stroke-linecap="butt"></path><path d="M267.7368,201.86622l20.45652,-56.65734l7.82814,-3.74838l2.74481,7.62429l-25.05832,55.20729z" fill="#dddddd" stroke-linecap="butt"></path><path d="M287.28093,161.73711l-16.33076,40.61389" fill="none" stroke-linecap="round"></path></g><g stroke-linecap="butt"><path d="M197.98977,219.67177v-39.20997h37.17169v39.20997c0,0 -15.19427,8.53892 -17.91362,10.06715c-0.80178,0.45059 -1.55727,0.87516 -1.55727,0.87516z" fill="#008c04" stroke-width="1.5"></path><path d="M213.92673,231.28561v-51.72473h4.15075v51.72473z" fill="#00ff08" stroke-width="0"></path><path d="M235.41269,199.4504h-38.31462v-4.15075h38.31462z" fill="#00ff08" stroke-width="0"></path></g></g></g></svg>