<svg version="1.1" xmlns="http://www.w3.org/2000/svg" xmlns:xlink="http://www.w3.org/1999/xlink" width="100.16801" height="96.06989" viewBox="0,0,100.16801,96.06989"><g transform="translate(-184.07052,-127.35408)"><g data-paper-data="{&quot;isPaintingLayer&quot;:true}" fill-rule="nonzero" stroke-linejoin="miter" stroke-miterlimit="10" stroke-dasharray="" stroke-dashoffset="0" style="mix-blend-mode: normal"><path d="" data-paper-data="{&quot;index&quot;:null}" fill="none" stroke="#000000" stroke-width="1.5" stroke-linecap="round"></path><path d="M204.48853,183.17397c0,-21.81525 17.68475,-39.5 39.5,-39.5c21.81525,0 39.5,17.68475 39.5,39.5c0,21.81525 -17.68475,39.5 -39.5,39.5c-21.81525,0 -39.5,-17.68475 -39.5,-39.5z" fill="#d8d8d8" stroke="#000000" stroke-width="1.5" stroke-linecap="butt"></path><path d="M189.52581,199.6534" fill="none" stroke="#d8d8d8" stroke-width="4" stroke-linecap="round"></path><path d="M237.30735,180.42398v-8" fill="none" stroke="#000000" stroke-width="1.5" stroke-linecap="round"></path><path d="M246.72283,180.56694v-8" fill="none" stroke="#000000" stroke-width="1.5" stroke-linecap="round"></path><path d="M255.43206,201.95292c0,0 -9.13532,1.76619 -13.24645,1.76619c-4.40514,0 -12.36335,-1.76619 -12.36335,-1.76619" fill="none" stroke="#000000" stroke-width="1.5" stroke-linecap="round"></path><g><path d="M200.6197,212.74663l0.12076,-56.4103l3.89036,0.00834l-0.12074,56.41029z" fill="#7f7600" stroke="#000000" stroke-width="0" stroke-linecap="butt"></path><path d="M195.24547,145.78136c-0.02047,-4.35087 3.48996,-7.89452 7.84083,-7.91502c4.35087,-0.02047 7.89453,3.48995 7.91502,7.84083c0.02047,4.35087 -3.48996,7.89452 -7.84083,7.91502c-4.35087,0.02047 -7.89453,-3.48995 -7.91502,-7.84083z" fill="none" stroke="#ffee00" stroke-width="5" stroke-linecap="butt"></path><path d="M199.87584,137.67902c0,0 -0.95902,-10.06403 3.25825,-10.32494c4.21723,-0.26092 2.76993,9.90752 2.76993,9.90752" fill="none" stroke="#ffee00" stroke-width="6.5" stroke-linecap="round"></path><path d="M211.01667,143.12095c0,0 10.06403,-0.95902 10.32494,3.25823c0.26092,4.21725 -9.90752,2.76993 -9.90752,2.76993" fill="none" stroke="#ffee00" stroke-width="6.5" stroke-linecap="round"></path><path d="M205.84241,152.89891c0,0 0.95902,10.06403 -3.25822,10.32496c-4.21723,0.26092 -2.76993,-9.90752 -2.76993,-9.90752" fill="none" stroke="#ffee00" stroke-width="6.5" stroke-linecap="round"></path><path d="M194.39546,148.17514c0,0 -10.06403,0.95902 -10.32494,-3.25825c-0.26093,-4.21724 9.90751,-2.76992 9.90751,-2.76992" fill="none" stroke="#ffee00" stroke-width="6.5" stroke-linecap="round"></path></g></g></g></svg>