<svg version="1.1" xmlns="http://www.w3.org/2000/svg" xmlns:xlink="http://www.w3.org/1999/xlink" width="183.34674" height="112.54477" viewBox="0,0,183.34674,112.54477"><g transform="translate(-106.57719,-125.38246)"><g data-paper-data="{&quot;isPaintingLayer&quot;:true}" fill-rule="nonzero" stroke-linejoin="miter" stroke-miterlimit="10" stroke-dasharray="" stroke-dashoffset="0" style="mix-blend-mode: normal"><path d="" data-paper-data="{&quot;index&quot;:null}" fill="none" stroke="#000000" stroke-width="1.5" stroke-linecap="round"></path><path d="" data-paper-data="{&quot;index&quot;:null}" fill="none" stroke="#000000" stroke-width="1.5" stroke-linecap="round"></path><path d="" data-paper-data="{&quot;index&quot;:null}" fill="none" stroke="#000000" stroke-width="1.5" stroke-linecap="round"></path><path d="" data-paper-data="{&quot;index&quot;:null}" fill="none" stroke="#000000" stroke-width="1.5" stroke-linecap="round"></path><path d="" data-paper-data="{&quot;index&quot;:null}" fill="none" stroke="#000000" stroke-width="1.5" stroke-linecap="round"></path><path d="M289.92393,195.47558" data-paper-data="{&quot;index&quot;:null}" fill="none" stroke="#d8d8d8" stroke-width="4" stroke-linecap="round"></path><path d="M241.20089,220.12074c-21.81525,0 -39.5,-17.68475 -39.5,-39.5c0,-21.81525 17.68475,-39.5 39.5,-39.5c21.81525,0 39.5,17.68475 39.5,39.5c0,21.81525 -17.68475,39.5 -39.5,39.5z" fill="#d8d8d8" stroke="#000000" stroke-width="1.5" stroke-linecap="butt"></path><path d="M229.23032,168.76318l-17.15344,-6.06646" fill="none" stroke="#000000" stroke-width="1.5" stroke-linecap="round"></path><path d="M223.12495,178.96307l-0.20919,-7.1124" fill="none" stroke="#000000" stroke-width="1.5" stroke-linecap="round"></path><path d="M242.1845,165.37029l-11.59709,3.34419" fill="none" stroke="#000000" stroke-width="1.5" stroke-linecap="round"></path><path d="M235.86714,171.93308l-0.20919,6.69403" fill="none" stroke="#000000" stroke-width="1.5" stroke-linecap="round"></path><path d="M237.39081,185.81592c0,0 -2.44712,6.39517 -6.00657,7.52772c-3.85628,1.227 -16.31203,-0.42635 -16.31203,-0.42635" fill="none" stroke="#000000" stroke-width="1.5" stroke-linecap="round"></path><g><path d="" data-paper-data="{&quot;index&quot;:null}" fill="none" stroke="#000000" stroke-width="1.5" stroke-linecap="round"></path><path d="" data-paper-data="{&quot;index&quot;:null}" fill="none" stroke="#000000" stroke-width="1.5" stroke-linecap="round"></path><path d="" data-paper-data="{&quot;index&quot;:null}" fill="none" stroke="#000000" stroke-width="1.5" stroke-linecap="round"></path><path d="" data-paper-data="{&quot;index&quot;:null}" fill="none" stroke="#000000" stroke-width="1.5" stroke-linecap="round"></path><path d="" data-paper-data="{&quot;index&quot;:null}" fill="none" stroke="#000000" stroke-width="1.5" stroke-linecap="round"></path><path d="M149.38871,162.77394" data-paper-data="{&quot;index&quot;:null}" fill="none" stroke="#d8d8d8" stroke-width="4" stroke-linecap="round"></path><g stroke-width="0" stroke-linecap="butt"><path d="M129.12344,212.37987l-2.57766,-19.55886l9.37607,1.40432z" fill="#aeaeae" stroke="none"></path><path d="M117.54918,174.74834l-10.97199,-1.64333l2.53969,-16.95672l10.97199,1.64333z" fill="#a7ed95" stroke="none"></path><path d="M193.78217,178.38379l-41.89306,-6.27459l0.41831,-2.79287l41.89306,6.27459z" fill="#c2c2c2" stroke="none"></path><path d="M199.21135,183.48024l-7.25358,-1.0864l1.76285,-11.76996l7.25358,1.0864z" fill="#a6a6a6" stroke="#000000"></path><path d="M148.58782,199.18186l-36.33079,-5.44147l8.60515,-57.45333l36.33079,5.44147z" fill="#73a367" stroke="none"></path><path d="M144.07784,144.73218l-9.37607,-1.40432l8.19486,-17.9454z" data-paper-data="{&quot;index&quot;:null}" fill="#aeaeae" stroke="none"></path></g></g><path d="M130.63835,237.92723h-2.5824c0,0 -2.5,0 -2.5,-2.5c0,-0.02047 0.00017,-0.04078 0.0005,-0.06092c-0.26692,-0.39484 -0.43011,-0.93251 -0.35701,-1.6635c0.10193,-1.01934 0.5798,-1.57922 1.10838,-1.88502c-0.69369,-0.26783 -1.4897,-0.8825 -1.4897,-2.29319c0,-2.5 2.5,-2.5 2.5,-2.5h2.5824c0,0 2.5,0 2.5,2.5c0,0.62614 -0.15682,1.09546 -0.39191,1.44723c-0.04143,0.30421 -0.13758,0.59101 -0.27821,0.85017l0.01468,-0.00152c0,0 2.5,0 2.5,2.5c0,1.29458 -0.67038,1.91879 -1.31684,2.21976c-0.60194,1.38698 -2.2899,1.38698 -2.2899,1.38698z" fill="#ffffff" stroke="none" stroke-width="0.5" stroke-linecap="butt"></path></g></g></svg>