<svg version="1.1" xmlns="http://www.w3.org/2000/svg" xmlns:xlink="http://www.w3.org/1999/xlink" width="80.5" height="93.63537" viewBox="0,0,80.5,93.63537"><g transform="translate(-198.7385,-137.84924)"><g data-paper-data="{&quot;isPaintingLayer&quot;:true}" fill-rule="nonzero" stroke="#000000" stroke-linejoin="miter" stroke-miterlimit="10" stroke-dasharray="" stroke-dashoffset="0" style="mix-blend-mode: normal"><path d="M199.4885,186.22941c0,-21.81525 17.68475,-39.5 39.5,-39.5c21.81525,0 39.5,17.68475 39.5,39.5c0,21.81525 -17.68475,39.5 -39.5,39.5c-21.81525,0 -39.5,-17.68475 -39.5,-39.5z" fill="#d8d8d8" stroke-width="1.5" stroke-linecap="butt"></path><path d="M242.02208,175.05544v8" fill="none" stroke-width="1.5" stroke-linecap="round"></path><path d="" data-paper-data="{&quot;index&quot;:null}" fill="none" stroke-width="1.5" stroke-linecap="round"></path><path d="M253.0852,207.98808c0,0 -23.16802,-0.03729 -27.92241,-10.69369" data-paper-data="{&quot;index&quot;:null}" fill="none" stroke-width="1.5" stroke-linecap="round"></path><path d="M249.49371,175.54058v8" fill="none" stroke-width="1.5" stroke-linecap="round"></path><g data-paper-data="{&quot;index&quot;:null}" stroke-width="1"><path d="M257.84371,226.7477l2.42712,-19.90347l7.81922,0.95351l-2.42712,19.90347z" fill="#e8ff00" stroke-linecap="butt"></path><path d="M272.70964,207.00131l-3.79486,1.62148l-9.00614,-1.02796l-3.50088,-2.58144l4.26,-1.69749l9.40233,1.45565z" fill="#8f8f8f" stroke-linecap="butt"></path><path d="M261.50953,204.31952l4.77165,-60.04794l6.5607,-5.6822l4.66042,6.62905l-9.59301,59.86434z" fill="#dddddd" stroke-linecap="butt"></path><path d="M269.76504,160.45422l-5.02817,43.48447" fill="none" stroke-linecap="round"></path></g><g stroke-linecap="butt"><path d="M200.36753,219.67177v-39.20997h37.17169v39.20997c0,0 -15.19427,8.53892 -17.91362,10.06715c-0.80178,0.45059 -1.55727,0.87516 -1.55727,0.87516z" fill="#008c04" stroke-width="1.5"></path><path d="M216.30449,231.28561v-51.72473h4.15075v51.72473z" fill="#00ff08" stroke-width="0"></path><path d="M237.79045,199.4504h-38.31462v-4.15075h38.31462z" fill="#00ff08" stroke-width="0"></path></g></g></g></svg>