<svg version="1.1" xmlns="http://www.w3.org/2000/svg" xmlns:xlink="http://www.w3.org/1999/xlink" width="229.01741" height="86.06709" viewBox="0,0,229.01741,86.06709"><g transform="translate(-53.83073,-137.84102)"><g data-paper-data="{&quot;isPaintingLayer&quot;:true}" fill-rule="nonzero" stroke-linejoin="miter" stroke-miterlimit="10" stroke-dasharray="" stroke-dashoffset="0" style="mix-blend-mode: normal"><path d="" data-paper-data="{&quot;index&quot;:null}" fill="none" stroke="#000000" stroke-width="1.5" stroke-linecap="round"></path><path d="" data-paper-data="{&quot;index&quot;:null}" fill="none" stroke="#000000" stroke-width="1.5" stroke-linecap="round"></path><path d="" data-paper-data="{&quot;index&quot;:null}" fill="none" stroke="#000000" stroke-width="1.5" stroke-linecap="round"></path><path d="" data-paper-data="{&quot;index&quot;:null}" fill="none" stroke="#000000" stroke-width="1.5" stroke-linecap="round"></path><path d="" data-paper-data="{&quot;index&quot;:null}" fill="none" stroke="#000000" stroke-width="1.5" stroke-linecap="round"></path><path d="M282.84814,180.71262" data-paper-data="{&quot;index&quot;:null}" fill="none" stroke="#d8d8d8" stroke-width="4" stroke-linecap="round"></path><path d="M244.08314,218.87242c-20.63638,7.07423 -43.10027,-3.92007 -50.1745,-24.55645c-7.07423,-20.63638 3.92007,-43.10027 24.55645,-50.1745c20.63638,-7.07423 43.10027,3.92007 50.1745,24.55645c7.07423,20.63638 -3.92007,43.10027 -24.55645,50.1745z" fill="#c3c3c3" stroke="none" stroke-width="0" stroke-linecap="butt"></path><path d="M199.06116,215.79377l-11.98957,-50.8894l22.23076,-22.01833l18.02174,-5.04502l27.7773,7.71907l15.98605,62.69622l-31.45516,-1.42664l-9.26418,-22.18067l-5.48787,-1.45244l-4.54014,3.85045l5.12779,21.73761l-24.73516,15.12349z" fill="#c3c3c3" stroke="none" stroke-width="0" stroke-linecap="round"></path><path d="M192.97674,184.85412l-2.86716,-11.03488l26.51842,-3.12066l3.09654,11.91767z" fill="#c3c3c3" stroke="none" stroke-width="0" stroke-linecap="butt"></path><path d="M228.73427,181.75077l-3.11325,-11.91331l24.66911,-10.21762l2.88265,11.03084z" data-paper-data="{&quot;index&quot;:null}" fill="#c3c3c3" stroke="none" stroke-width="0" stroke-linecap="butt"></path><g fill="#c3c3c3" stroke="none" stroke-width="0" stroke-linecap="butt"><path d="M129.86309,190.88679l-64.90414,-5.06056l-6.09407,-2.88486l-5.03415,-3.33191l5.06901,-3.56485l6.72959,-1.49446l65.16329,5.00199z" data-paper-data="{&quot;index&quot;:null}"></path><path d="M170.86818,196.33175l-49.16068,-4.1238l1.28172,-15.27967l49.16068,4.1238z"></path></g></g></g></svg>