<svg version="1.1" xmlns="http://www.w3.org/2000/svg" xmlns:xlink="http://www.w3.org/1999/xlink" width="95.75303" height="80.5" viewBox="0,0,95.75303,80.5"><g transform="translate(-194.1709,-139.75)"><g data-paper-data="{&quot;isPaintingLayer&quot;:true}" fill-rule="nonzero" stroke-linejoin="miter" stroke-miterlimit="10" stroke-dasharray="" stroke-dashoffset="0" style="mix-blend-mode: normal"><g data-paper-data="{&quot;index&quot;:null}" stroke="#000000"><path d="M204.87634,165.5428c-1.83707,-0.82999 -5.36055,-0.69926 -7.42027,-2.3649c-2.44296,-1.97556 -3.28517,-5.70906 -3.28517,-5.70906l0.0514,-4.01489c0,0 3.36676,3.98215 6.83003,5.78356c2.98087,1.5505 6.01789,0.96062 7.21988,0.93333c4.53252,-0.1029 13.43998,-2.3418 13.43998,-2.3418l0.30291,10.35036c0,0 -12.05286,-0.33876 -17.13877,-2.63659z" fill="#b058be" stroke-width="0" stroke-linecap="butt"></path><path d="M216.18177,167.75992c0,0 -2.05768,-4.36815 -2.10239,-5.8958c-0.03427,-1.17072 1.85704,-2.48763 1.85704,-2.48763" fill="none" stroke-width="0.5" stroke-linecap="round"></path><path d="M212.04689,166.95796c0,0 -1.94155,-3.26723 -1.97684,-4.47308c-0.02882,-0.98457 1.78056,-2.23367 1.78056,-2.23367" fill="none" stroke-width="0.5" stroke-linecap="round"></path><path d="M207.15753,166.17809c0,0 -1.67829,-3.01317 -1.64763,-4.08301c0.02022,-0.70555 1.81367,-1.71138 1.81367,-1.71138" fill="none" stroke-width="0.5" stroke-linecap="round"></path><path d="M203.16824,164.61672c0,0 -1.36894,-2.21556 -1.37605,-2.98263c-0.00532,-0.57462 1.33721,-1.21153 1.33721,-1.21153" fill="none" stroke-width="0.5" stroke-linecap="round"></path><path d="M199.60303,163.21075c0,0 -1.26688,-2.33326 -1.29902,-2.98522c-0.03621,-0.73458 1.09251,-1.20404 1.09251,-1.20404" fill="none" stroke-width="0.5" stroke-linecap="round"></path><path d="M194.921,159.18823c0,0 0.79732,-2.01018 1.18814,-2.37063c0.44035,-0.40615 1.32313,0.05442 1.32313,0.05442" fill="none" stroke-width="0.5" stroke-linecap="round"></path></g><path d="" data-paper-data="{&quot;index&quot;:null}" fill="none" stroke="#000000" stroke-width="1.5" stroke-linecap="round"></path><path d="" data-paper-data="{&quot;index&quot;:null}" fill="none" stroke="#000000" stroke-width="1.5" stroke-linecap="round"></path><path d="" data-paper-data="{&quot;index&quot;:null}" fill="none" stroke="#000000" stroke-width="1.5" stroke-linecap="round"></path><path d="" data-paper-data="{&quot;index&quot;:null}" fill="none" stroke="#000000" stroke-width="1.5" stroke-linecap="round"></path><path d="" data-paper-data="{&quot;index&quot;:null}" fill="none" stroke="#000000" stroke-width="1.5" stroke-linecap="round"></path><path d="M289.92393,195.47556" data-paper-data="{&quot;index&quot;:null}" fill="none" stroke="#d8d8d8" stroke-width="4" stroke-linecap="round"></path><path d="M240.00003,219.5c-21.81525,0 -39.5,-17.68475 -39.5,-39.5c0,-21.81525 17.68475,-39.5 39.5,-39.5c21.81525,0 39.5,17.68475 39.5,39.5c0,21.81525 -17.68475,39.5 -39.5,39.5z" fill="#d8d8d8" stroke="#000000" stroke-width="1.5" stroke-linecap="butt"></path><path d="M228.9321,167.12465c0,4.00803 -1.24316,7.25718 -2.77666,7.25718c-1.5335,0 -2.77666,-3.24915 -2.77666,-7.25718c0,-4.00803 -0.37863,-7.00476 -0.37863,-7.00476c0,0 4.21336,0.55153 5.46913,3.69379c0.21243,0.53156 0.46283,2.73105 0.46283,3.31097z" fill="#ff6666" stroke="#000000" stroke-width="0" stroke-linecap="butt"></path><path d="M240.5793,164.90112c1.25577,-3.14226 5.46913,-3.69378 5.46913,-3.69378c0,0 -0.37864,2.99672 -0.37864,7.00475c0,4.00803 -1.24316,7.25718 -2.77666,7.25718c-1.5335,0 -2.77666,-3.24915 -2.77666,-7.25718c0,-0.57991 0.25039,-2.77941 0.46283,-3.31097z" data-paper-data="{&quot;index&quot;:null}" fill="#ff6666" stroke="#000000" stroke-width="0" stroke-linecap="butt"></path><path d="M253.51823,187.77356l-33.69856,-3.15529" fill="none" stroke="#000000" stroke-width="0.5" stroke-linecap="round"></path><path d="M231.10794,185.75843l-6.21783,9.11743l-2.74141,-9.94892z" fill="#ffffff" stroke="#000000" stroke-width="0.5" stroke-linecap="round"></path><path d="M252.22341,187.89609l-5.57718,8.178l-2.45893,-8.92381z" fill="#ffffff" stroke="#000000" stroke-width="0.5" stroke-linecap="round"></path><g stroke="#000000"><path d="M257.19908,171.00453l0.30292,-10.35036c0,0 8.90747,2.2389 13.43998,2.3418c1.202,0.02729 4.239,0.61718 7.21988,-0.93333c3.46326,-1.80141 6.83004,-5.78356 6.83004,-5.78356l0.0514,4.01489c0,0 -0.8422,3.7335 -3.28517,5.70906c-2.05972,1.66565 -5.5832,1.5349 -7.42027,2.3649c-5.08591,2.29782 -17.13878,2.63659 -17.13878,2.63659z" fill="#b058be" stroke-width="0" stroke-linecap="butt"></path><path d="M263.27779,162.20162c0,0 1.89131,1.31691 1.85704,2.48763c-0.04471,1.52764 -2.10239,5.8958 -2.10239,5.8958" fill="none" stroke-width="0.5" stroke-linecap="round"></path><path d="M267.36359,163.07635c0,0 1.80938,1.2491 1.78056,2.23367c-0.03529,1.20585 -1.97684,4.47307 -1.97684,4.47307" fill="none" stroke-width="0.5" stroke-linecap="round"></path><path d="M271.89063,163.20884c0,0 1.79345,1.00583 1.81367,1.71138c0.03066,1.06984 -1.64763,4.083 -1.64763,4.083" fill="none" stroke-width="0.5" stroke-linecap="round"></path><path d="M276.08477,163.24768c0,0 1.34252,0.63692 1.3372,1.21154c-0.00711,0.76707 -1.37604,2.98263 -1.37604,2.98263" fill="none" stroke-width="0.5" stroke-linecap="round"></path><path d="M279.81766,161.84662c0,0 1.12872,0.46946 1.09251,1.20404c-0.03214,0.65196 -1.29902,2.98522 -1.29902,2.98522" fill="none" stroke-width="0.5" stroke-linecap="round"></path><path d="M281.78193,159.69716c0,0 0.88277,-0.46058 1.32313,-0.05443c0.39082,0.36046 1.18814,2.37064 1.18814,2.37064" fill="none" stroke-width="0.5" stroke-linecap="round"></path></g><path d="M227.2247,164.58068c0.15101,-0.28338 0.33036,-0.47377 0.51899,-0.598c-0.08755,-0.08148 -0.16534,-0.17331 -0.23144,-0.27353l-0.62173,-0.91465c-0.88799,0.10177 -1.99914,0.10711 -2.96682,0.08868l1.18833,1.37144c0.23128,0.26392 0.37147,0.60967 0.37147,0.98817c0,0.72102 -0.50872,1.32322 -1.18681,1.46725c0.00237,0.0345 0.00358,0.06931 0.00358,0.10441c0,0.73891 -0.53427,1.35303 -1.23758,1.47712c0.27794,0.03047 0.58027,0.0587 0.6478,0.25857c0.07976,0.23609 0.13076,0.47772 0.16238,0.72308c0.29209,0.07478 0.6122,0.16799 0.96258,0.28143c2.09623,0.67872 1.65782,2.85649 1.24848,4.38779c0.13251,0.20313 0.24688,0.42974 0.35176,0.66864c0.199,-1.90746 0.94625,-3.93386 2.70592,-4.14042c0.69565,-0.08166 1.2834,0.05511 1.78631,0.33437c-0.88267,-0.75965 -2.20346,-1.12252 -2.72305,-2.15747c-0.30151,-0.60059 0.52024,-1.23928 0.78037,-1.85891l-1.14221,-0.17878c0,0 -1.32378,-0.70542 -0.61835,-2.0292zM229.68266,174.23441c-0.18659,0.78508 -0.37825,1.58257 -0.73389,2.30692l-0.9151,2.82088c-0.1849,0.6188 -0.75848,1.06986 -1.43742,1.06986c-0.6483,0 -1.20053,-0.41127 -1.41004,-0.98715l-0.58537,-1.49956c0.00498,-0.06247 0.01666,-0.13271 0.03298,-0.20838l-0.11794,0.17825c-0.26659,0.41618 -0.73308,0.69201 -1.264,0.69201c-0.82843,0 -1.5,-0.67157 -1.5,-1.5c0,-0.22041 0.04754,-0.42971 0.13292,-0.61822l1.138,-2.67276c0.03246,-0.09482 0.08003,-0.21281 0.13605,-0.34117c-0.00009,0.00005 -0.00018,0.0001 -0.00027,0.00015l-1.23081,1.0324c-0.2617,0.22257 -0.6008,0.35687 -0.97126,0.35687c-0.82843,0 -1.5,-0.67157 -1.5,-1.5c0,-0.36433 0.12989,-0.69833 0.34589,-0.9582l1.23535,-1.50991c-0.15504,-0.98104 -1.61625,-1.66719 -1.46911,-2.66707c0.01447,-0.09836 0.04584,-0.18644 0.09087,-0.26621c-0.753,-0.08006 -1.33958,-0.71729 -1.33958,-1.49152c0,-0.40608 0.16136,-0.77446 0.42346,-1.04454l-0.96703,-0.88873c-0.30047,-0.2743 -0.48898,-0.66918 -0.48898,-1.10809c0,-0.82843 0.67157,-1.5 1.5,-1.5c0.22558,0 0.43954,0.0498 0.63147,0.139l0.02947,0.0129l-0.43418,-0.56814c-0.19854,-0.25438 -0.31683,-0.57444 -0.31683,-0.92212c0,-0.82843 0.67157,-1.5 1.5,-1.5c0.17918,0 0.35103,0.03142 0.51033,0.08905l2.07729,0.69697c0.48119,-0.00357 0.97151,-0.0907 1.44133,0.00989c0.09977,0.02136 0.20602,0.0688 0.31521,0.13084c-0.08941,-0.65996 -0.17882,-1.31993 -0.26822,-1.97989l-0.39939,-2.94812c-0.01115,-0.07374 -0.01693,-0.14924 -0.01693,-0.22609c0,-0.82843 0.67157,-1.5 1.5,-1.5c0.56539,0 1.05771,0.31281 1.31336,0.7748l1.48587,2.573l-0.12018,0.0694c0.91134,1.17416 1.57686,2.46096 1.98948,4.31263l-0.01214,0.05382l0.02026,-0.00288l0.21329,1.50291c0.01217,0.07694 0.01849,0.15584 0.01849,0.2362c0,0.54304 -0.28857,1.01869 -0.72073,1.28195l2.25455,1.5822c-0.24375,0.66763 -1.02518,1.35577 -0.73126,2.00288c0.32729,0.72059 1.53019,0.53839 2.12344,1.06225c0.60542,0.5346 1.04977,1.26104 1.35465,2.00897c0.35031,0.85937 0.95127,1.87593 0.5747,2.72412c-0.11661,0.26265 -0.47067,0.24201 -0.84611,0.18854c0.33341,0.27512 0.54593,0.69151 0.54593,1.15753c0,0.52401 -0.2687,0.98526 -0.67583,1.25349l0.60815,2.12055c0.04398,0.14114 0.06768,0.29122 0.06768,0.44684c0,0.82843 -0.67157,1.5 -1.5,1.5c-0.62804,0 -1.16594,-0.38598 -1.38941,-0.93366l-2.24127,-5.15651c0.00242,0.04022 0.00067,0.0777 -0.00721,0.11084zM232.40802,172.28901c0.00698,-0.01141 0.00076,-0.01855 -0.01503,-0.023c0.00502,0.00765 0.01003,0.01532 0.01503,0.023z" fill="#d93f3f" stroke="none" stroke-width="0.5" stroke-linecap="butt"></path><path d="M227.35403,165.69888c0.1147,0.36647 0.15273,0.7947 0.08869,1.30512c0.11269,-0.10037 0.24062,-0.184 0.37988,-0.24698l-0.24512,-1.0684c-0.07008,0.00764 -0.14519,0.0118 -0.22345,0.01027zM227.74527,172.83909l-0.03764,0.02331l-0.98011,2.91269c-0.18976,0.61086 -0.75944,1.05445 -1.43272,1.05445c-0.82843,0 -1.5,-0.67157 -1.5,-1.5c0,-0.04743 0.0022,-0.09434 0.00651,-0.14065l0.19106,-2.31625c-0.00696,-0.06543 -0.01353,-0.13118 -0.01966,-0.19719c-0.35841,1.39769 -0.77597,2.946 -0.91597,3.4751l-0.42498,1.60583c-0.15861,0.65827 -0.75135,1.14736 -1.45831,1.14736c-0.82843,0 -1.5,-0.67157 -1.5,-1.5c0,-0.04634 0.0021,-0.09219 0.00621,-0.13745l0.23951,-2.9733l0.03765,0.00303c-0.00004,-0.08723 0.00201,-0.17462 0.00633,-0.26217c0.00153,-0.03105 0.3726,-0.85196 0.83392,-1.86183c0.45658,-2.44848 1.05359,-5.26967 2.11109,-6.3624c0.19002,-0.19635 0.47178,-0.02364 0.76503,0.19782c0.05475,-0.07087 0.1157,-0.13671 0.18204,-0.1967c-0.26019,-0.10456 -0.49239,-0.2321 -0.56164,-0.41734c-0.00671,-0.01796 -0.01333,-0.03595 -0.01986,-0.05396l-0.00361,0.00154l-1.16033,-2.7304c-0.08512,-0.18827 -0.1325,-0.39725 -0.1325,-0.6173c0,-0.82843 0.67157,-1.5 1.5,-1.5c0.38254,0 0.73163,0.1432 0.9966,0.37891l1.34057,1.18069c0.18224,-0.43707 0.34236,-0.92792 0.72961,-0.86659c0.49871,0.07899 0.95276,0.28541 1.38716,0.54787c0.30458,-0.40277 0.64506,-0.70772 1.10904,-0.67613c1.24063,0.08448 1.80034,1.1739 2.02746,2.47899l0.0169,-0.00442l0.75021,2.86952c0.03738,0.13101 0.05739,0.26934 0.05739,0.41234c0,0.50756 -0.25209,0.95624 -0.6379,1.22767c0.05874,0.29238 0.11104,0.58634 0.15767,0.88153l0.23652,-0.07704l0.9183,2.81919c0.0548,0.15579 0.0846,0.32335 0.0846,0.49787c0,0.71382 -0.49861,1.31118 -1.16655,1.4628l0.05749,0.21218c0.07477,0.11846 0.14861,0.23751 0.22147,0.35714l-0.05075,0.27295l0.00294,0.01083l0.12351,-0.0242l0.34418,1.75646c0.0222,0.10266 0.03389,0.20924 0.03389,0.31855c0,0.82843 -0.67157,1.5 -1.5,1.5c-0.704,0 -1.29473,-0.48499 -1.4563,-1.13909l-0.54702,-2.01891c-0.38133,-0.64348 -0.72441,-1.32587 -0.96901,-2.03329z" fill="#d9d9d9" stroke="none" stroke-width="0.5" stroke-linecap="butt"></path></g></g></svg>