<svg version="1.1" xmlns="http://www.w3.org/2000/svg" xmlns:xlink="http://www.w3.org/1999/xlink" width="134.28929" height="83.53901" viewBox="0,0,134.28929,83.53901"><g transform="translate(-165.9559,-137.40574)"><g data-paper-data="{&quot;isPaintingLayer&quot;:true}" fill-rule="nonzero" stroke-linejoin="miter" stroke-miterlimit="10" stroke-dasharray="" stroke-dashoffset="0" style="mix-blend-mode: normal"><path d="" data-paper-data="{&quot;index&quot;:null}" fill="none" stroke="#000000" stroke-width="1.5" stroke-linecap="round"></path><path d="" data-paper-data="{&quot;index&quot;:null}" fill="none" stroke="#000000" stroke-width="1.5" stroke-linecap="round"></path><path d="M220.49519,180.69476c0,-21.81525 17.68475,-39.5 39.5,-39.5c21.81525,0 39.5,17.68475 39.5,39.5c0,21.81525 -17.68475,39.5 -39.5,39.5c-21.81525,0 -39.5,-17.68475 -39.5,-39.5z" fill="#d8d8d8" stroke="#000000" stroke-width="1.5" stroke-linecap="butt"></path><path d="M246.51675,197.3165c5.44898,-2.88817 27.57511,5.13694 27.57511,5.13694" data-paper-data="{&quot;index&quot;:null}" fill="none" stroke="#000000" stroke-width="1.5" stroke-linecap="round"></path><path d="M246.31865,168.12134l6.99536,1.82343v8" fill="none" stroke="#000000" stroke-width="1.5" stroke-linecap="round"></path><path d="M258.87633,178.50558l-0.24149,-8.93527l7.00332,-2.17344" fill="none" stroke="#000000" stroke-width="1.5" stroke-linecap="round"></path><path d="M276.0224,182.12799l-16.42158,6.52033" fill="none" stroke="#000000" stroke-width="1.5" stroke-linecap="round"></path><path d="M262.74024,182.61097l2.89793,5.55436" fill="none" stroke="#000000" stroke-width="1.5" stroke-linecap="round"></path><path d="M267.32862,180.43753l3.8639,7.7278" fill="none" stroke="#000000" stroke-width="1.5" stroke-linecap="round"></path><g><path d="M200.51919,159.0603l-0.00617,-11.02439l10.93477,-8.87218l-1.87488,14.95064z" data-paper-data="{&quot;index&quot;:null}" fill="#c6c6c6" stroke="#c6c6c6" stroke-width="1.5" stroke-linecap="round"></path><path d="M190.22551,201.43161" fill="none" stroke="#d8d8d8" stroke-width="4" stroke-linecap="round"></path><path d="M165.9559,215.96018l27.49554,-49.25577l3.39694,1.89625l-27.49554,49.25577z" fill="#7f7600" stroke="#000000" stroke-width="0" stroke-linecap="butt"></path><path d="M200.37795,156.86037c2.14775,-1.05316 3.28094,1.09281 3.28094,1.09281l1.26723,3.53367c-0.54944,3.02237 -1.84696,5.77251 -2.172,8.8177c-0.13473,1.26217 0.5159,2.81392 -0.28677,3.79728c-1.23493,1.51294 -3.21715,3.24277 -5.12712,2.83531c-1.57738,-0.33651 -1.06387,-3.11421 -2.07404,-4.37155c-0.53203,-0.66218 -1.77802,-0.41739 -2.3073,-1.08175c-0.39701,-0.4983 0.49298,-1.62322 -0.07603,-1.9098c-0.87865,-0.44254 -2.34652,1.19477 -2.9244,0.39855c-3.89427,-5.36555 3.21731,-10.70765 6.40602,-13.80004c0,0 1.79506,-1.74005 3.53509,0.05502c0.20611,0.21264 0.36263,0.42448 0.4784,0.63276z" fill="#ff0000" stroke="none" stroke-width="0.5" stroke-linecap="butt"></path></g></g></g></svg>