<svg version="1.1" xmlns="http://www.w3.org/2000/svg" xmlns:xlink="http://www.w3.org/1999/xlink" width="600.8812" height="478.25334" viewBox="0,0,600.8812,478.25334"><g transform="translate(60.4406,46.86681)"><g data-paper-data="{&quot;isPaintingLayer&quot;:true}" fill-rule="nonzero" stroke-linejoin="miter" stroke-miterlimit="10" stroke-dasharray="" stroke-dashoffset="0" style="mix-blend-mode: normal"><path d="M-60.4406,406.86686v-453.73367h600.8812v453.73367z" fill="#000000" stroke="none" stroke-width="NaN" stroke-linecap="butt"></path><g><path d="M104.52809,248.78085c-32.03252,0 -58,-25.96748 -58,-58c0,-32.03252 25.96748,-58 58,-58c32.03252,0 58,25.96748 58,58c0,32.03252 -25.96748,58 -58,58z" data-paper-data="{&quot;index&quot;:null}" fill="#d8d8d8" stroke="#000000" stroke-width="1.5" stroke-linecap="butt"></path><path d="M114.43545,185.20545v-11.74684l13.21519,-1.46836" data-paper-data="{&quot;index&quot;:null}" fill="none" stroke="#000000" stroke-width="1.5" stroke-linecap="round"></path><path d="M85.16719,172.70276l13.21519,1.46836v11.74684" data-paper-data="{&quot;index&quot;:null}" fill="none" stroke="#000000" stroke-width="1.5" stroke-linecap="round"></path><path d="M132.03709,196.76658v18.05367l-46.06797,-0.60179z" data-paper-data="{&quot;index&quot;:null}" fill="#ffffff" stroke="#000000" stroke-width="1.5" stroke-linecap="round"></path><path d="M122.699,199.87929l0.62253,14.94096" data-paper-data="{&quot;index&quot;:null}" fill="none" stroke="#000000" stroke-width="1.5" stroke-linecap="round"></path><path d="M110.24818,205.48215v8.71556" data-paper-data="{&quot;index&quot;:null}" fill="none" stroke="#000000" stroke-width="1.5" stroke-linecap="round"></path><g data-paper-data="{&quot;index&quot;:null}" stroke="none" stroke-linecap="butt"><path d="M192.05664,191.46487l-0.10459,-5.27743l48.81592,-0.96754l0.10459,5.27742z" fill="#606060" stroke-width="0"></path><path d="M197.05107,199.28508l-0.20049,-10.11499l6.59676,-0.13075l0.20049,10.11499z" fill="#606060" stroke-width="0"></path><path d="M255.5076,203.84587c0.03414,1.72338 -28.85548,1.46917 -28.85548,1.46917l0.14482,7.53126l-75.65214,1.49944l-0.36898,-18.61528l104.52986,-2.07178c0,0 0.13779,6.95229 0.20193,10.18721z" fill="#969696" stroke-width="NaN"></path><path d="M124.11039,230.80278c0,0 15.68232,-8.5889 20.38576,-14.42207c3.95178,-4.90096 5.97458,-18.26984 5.97458,-18.26984l11.54829,4.79317l-10.4584,35.89639z" fill="#606060" stroke-width="0"></path><path d="M194.21277,233.6579l-0.47939,-24.18807l10.115,-0.20049l0.47939,24.18807z" fill="#606060" stroke-width="0"></path><path d="M180.10871,210.17981l-0.30276,-15.2767l9.67522,-0.19177l0.30276,15.2767z" fill="#00fffe" stroke-width="0"></path><path d="M166.12483,210.36601l-0.30276,-15.2767l9.67522,-0.19177l0.30276,15.2767z" fill="#00fffe" stroke-width="0"></path><path d="M193.04944,210.18137l-0.30276,-15.2767l9.67522,-0.19177l0.30276,15.2767z" fill="#00fffe" stroke-width="0"></path></g><path d="M146.29106,231.09729c-6.66483,0 -12.06774,-5.40292 -12.06774,-12.06775c0,-6.66483 5.40292,-12.06774 12.06774,-12.06774c6.66483,0 12.06774,5.40291 12.06774,12.06774c0,6.66484 -5.40291,12.06775 -12.06774,12.06775z" data-paper-data="{&quot;index&quot;:null}" fill="#d8d8d8" stroke="#000000" stroke-width="1" stroke-linecap="butt"></path></g><path d="M271.5895,368.15807c-1.74939,0.04635 -1.79573,-1.70304 -1.79573,-1.70304l-0.08949,-3.37787c-0.27295,-10.30287 0.309,-21.04565 -0.81674,-31.2843c-0.22786,-2.07244 -1.06252,-3.87995 -1.56205,-5.70767c-0.51205,2.28245 -0.85918,4.61889 -1.13563,6.97011c0.02115,0.18824 0.04112,0.37636 0.05987,0.56436c0.78475,7.86964 0.52633,16.05832 0.29626,24.1491c0.29071,-0.35204 0.76917,-0.64142 1.54815,-0.53086c1.73264,0.2459 1.48673,1.97854 1.48673,1.97854c-0.50811,3.57708 -0.77332,7.15354 -0.95526,10.72876l0.43776,2.73981c0.83759,2.49777 0.4736,4.52318 0.3277,7.08264c-0.26882,4.7157 -0.45675,9.41107 -1.11505,14.08996c-1.60205,11.38658 -3.59198,22.75889 -4.54603,34.21636l-0.14199,1.70523c0,0 -0.14522,1.74396 -1.88918,1.59875l0.00001,-0.00002c-1.74396,-0.14522 -1.59875,-1.88918 -1.59875,-1.88918l0.14199,-1.70523c0.85143,-10.22504 2.7922,-20.30969 4.1725,-30.46679l-0.76512,1.74633c-0.37879,-1.56508 -0.64285,-3.17198 -0.81171,-4.80582l-0.43224,-0.50606c-0.00041,-0.25875 -0.00088,-0.5167 -0.00148,-0.77391l-0.30935,-0.34251c0.05502,1.15962 0.08895,2.32077 0.09624,3.48382l0.01754,3.28658c0.00002,0.00364 0.00003,0.00728 0.00003,0.01092c0,0.9665 -0.7835,1.75 -1.75,1.75c-0.88796,0 -1.62145,-0.66133 -1.7348,-1.51832l-0.51197,-3.43551l0.38278,-0.05704c-0.47046,-1.43141 -0.88183,-2.91228 -1.23529,-4.42432c-0.11665,2.72048 -0.31908,5.43874 -0.62234,8.15195l-0.38803,3.457c-0.08736,0.88479 -0.83369,1.57595 -1.74145,1.57595c-0.94408,0 -1.71356,-0.74758 -1.74874,-1.68306c-0.18726,0.0684 -0.38948,0.10572 -0.60042,0.10572c-0.83739,0 -1.53741,-0.58816 -1.70949,-1.37391l-0.81374,-3.36705l0.20092,-0.04856c-0.88582,-2.02753 -1.55868,-4.12781 -1.82667,-6.4101c-0.66118,-1.7823 -1.17286,-3.62173 -1.78795,-5.42164c-1.18852,-3.47785 -2.29387,-6.70612 -2.94222,-10.33024l-0.60551,-3.4126c-0.02157,-0.10977 -0.03287,-0.22321 -0.03287,-0.3393c0,-0.49633 0.20662,-0.9444 0.53854,-1.26289c-0.56461,-3.93523 -0.62088,-8.08204 -0.99094,-11.99323c-1.62458,-17.17004 -2.41678,-34.22017 -2.97559,-51.45613c-0.0819,-1.15259 -0.16379,-2.30518 -0.24569,-3.45777l-0.21284,-2.99934c-0.00375,-0.04677 -0.00566,-0.09406 -0.00566,-0.14179c0,-0.9665 0.7835,-1.75 1.75,-1.75c0.85148,0 1.56092,0.60811 1.71772,1.41372l0.73171,3.38796l-0.39548,0.08541c2.3747,6.02477 3.50736,12.73295 4.32997,19.22816c-0.19979,-5.05974 -0.28853,-10.16052 0.42424,-15.0611l-0.41716,0.00562l-0.04708,-3.49576c-0.00014,-0.00914 -0.00021,-0.01831 -0.00021,-0.02748c0,-0.9665 0.7835,-1.75 1.75,-1.75c0.16988,0 0.33411,0.02421 0.48943,0.06936c0.20192,-0.08134 0.4225,-0.12611 0.65354,-0.12611c0.91276,0 1.66231,0.6988 1.74284,1.5906l0.3562,3.46191l-0.43476,0.04473c0.19167,0.74709 0.36145,1.49885 0.51196,2.25466c0.54591,-2.59499 1.12013,-5.18349 1.67662,-7.75869c-0.3883,-2.91014 -0.84165,-5.80578 -1.41206,-8.67017c0,0 -0.34104,-1.71645 1.3754,-2.05749c1.71645,-0.34104 2.05749,1.3754 2.05749,1.3754c0.30304,1.52845 0.57377,3.06535 0.81972,4.60831c0.30864,-0.2729 0.71434,-0.43853 1.15872,-0.43853c0.86093,0 1.57665,0.62168 1.72274,1.44062l0.67581,3.40122l-0.26662,0.05298c1.30122,4.47029 2.0702,9.02406 2.99504,13.67858c0.46479,2.3392 1.03151,4.7123 1.57761,7.09692c0.12355,-0.46629 0.2546,-0.93028 0.3939,-1.39168l0.91478,-3.00951c0.20573,-0.73764 0.88258,-1.27882 1.68584,-1.27882c0.82324,0 1.51372,0.56845 1.70032,1.33425l0.89463,3.3447l-0.36542,0.09774c4.79674,12.58151 3.23426,27.18426 3.58711,40.50307l0.08949,3.37787c0,0 0.04635,1.74939 -1.70304,1.79573zM261.48332,383.98505c-0.06228,-0.22506 -0.12285,-0.45044 -0.18175,-0.67615c0.02544,0.22888 0.05064,0.45777 0.07556,0.68669zM262.67882,333.13957c-0.85148,-7.51497 -3.06929,-15.16798 -4.57037,-22.58056c0.35084,3.26365 0.68112,6.52621 1.06014,9.76587c0.67646,5.78206 1.79199,11.69503 2.04373,17.5091c0.14617,3.37592 0.0051,6.81022 -0.17302,10.23605c0.20485,-1.69355 0.41226,-3.37686 0.60968,-5.046c0.38525,-3.25733 0.65045,-6.58108 1.02985,-9.88446zM257.71559,337.98539c-0.24801,-5.7277 -1.35683,-11.55721 -2.0233,-17.2538c-0.26378,-2.25462 -0.50278,-4.52112 -0.74146,-6.79162c-0.58045,2.83131 -1.12514,5.66675 -1.53057,8.51613c-0.0805,0.56578 -0.1543,1.13386 -0.22205,1.70396c0.05285,2.77744 0.05513,5.55911 0.12448,8.31642c0.17089,6.7946 0.30323,13.58435 0.39708,20.37445c0.52477,1.37148 0.93541,2.69311 1.26509,3.99714l0.03534,-0.35581c0.06827,-0.78391 0.65338,-1.41977 1.41268,-1.56497c0.05857,-0.27257 0.25075,-0.89893 0.81813,-1.22475c0.2188,-5.21197 0.68889,-10.53648 0.46457,-15.71714zM246.71948,368.206c0.17091,-2.96482 0.43103,-5.92609 0.62891,-8.89c-0.84993,-12.41272 -2.0314,-24.97701 -4.04334,-37.1807c-0.00427,-0.02592 -0.00857,-0.05185 -0.01288,-0.07777c0.37446,10.01772 0.87406,20.01265 1.8212,30.02285c0.43958,4.64592 0.87917,9.29183 1.31875,13.93775c0.06732,0.71151 0.17744,1.44498 0.28737,2.18787zM263.01132,359.15656c-0.16644,1.65499 -0.28856,3.3049 -0.34104,4.94403c-0.01596,0.49835 -0.01529,1.00193 -0.00107,1.50943c0.06881,0.14492 0.13326,0.29343 0.19374,0.44457c0.0249,-2.28236 0.08298,-4.58511 0.14837,-6.89802zM248.86389,379.04697c0.05849,-0.59189 0.10982,-1.17675 0.14969,-1.75218c0.02484,-0.35844 0.04969,-0.71629 0.07466,-1.0736c-0.38405,0.25187 -0.76685,0.56552 -1.14976,0.87391c0.32799,0.64234 0.63648,1.29285 0.92541,1.95187z" fill="#ffffff" stroke="none" stroke-width="0.5" stroke-linecap="butt"></path><path d="M265.07709,97.59209c-1.75,0 -1.75,-1.75 -1.75,-1.75v-0.63077c0,-8.8532 -0.00474,-17.69695 -0.19897,-26.54805c-0.11828,-5.39001 -0.22892,-10.77841 -0.3544,-16.16565c-0.00199,0.00001 -0.00397,0.00001 -0.00596,0.00001c-0.92641,0 -1.6847,-0.71986 -1.746,-1.63073l-0.21822,-2.82664c-0.2503,-3.24284 -0.54963,-6.47874 -0.85243,-9.71667c-0.58416,5.49837 -1.25082,10.91212 -2.19304,16.36555l-0.59087,3.41984c-0.12936,0.83885 -0.85441,1.48111 -1.72947,1.48111c-0.91694,0 -1.66918,-0.70522 -1.7439,-1.60286l-0.32943,-3.46584l0.46714,-0.0444c-1.71482,-8.06595 -0.28848,-16.09847 0.49813,-24.57044c0.09597,-1.03359 0.19366,-2.06672 0.2923,-3.0995c0.00704,-0.82026 0.0109,-1.64251 0.0073,-2.46681c-0.02238,-5.1273 -0.351,-10.37634 -0.17487,-15.5235c-0.13247,-3.79317 -0.2711,-7.58641 -0.41732,-11.37998c-0.35535,6.32089 -0.69479,12.64137 -0.99905,18.96442c-0.05399,8.19772 -0.27743,16.39423 -0.52982,24.64666c-0.14717,3.55597 -0.2946,7.11187 -0.44959,10.66752l-0.10224,0.14791l0.07136,0.01694l-0.48113,2.02632c-0.12083,0.56208 -0.51161,1.02388 -1.02998,1.24303l-0.33025,2.3271c-0.10844,0.86239 -0.84444,1.52946 -1.73624,1.52946c-0.89179,0 -1.62778,-0.66705 -1.73623,-1.52943l-0.48825,-3.43992l0.46801,-0.06643c-2.00894,-7.80365 -1.00362,-15.7113 -0.66381,-24.03378c0.55713,-13.64479 1.13314,-27.28868 1.71406,-40.93248c0.05393,-1.26657 0.1013,-2.53148 0.14214,-3.79572c-0.16946,-1.06054 -0.35977,-2.11782 -0.57336,-3.17117c-0.62002,-3.05759 -1.81346,-5.97577 -2.42648,-9.05028c0,0 -0.341,-1.71646 1.37545,-2.05746c1.23478,-0.24531 1.75775,0.57412 1.95404,1.05334c0.2613,-0.6377 0.88819,-1.08689 1.62,-1.08689c0.93199,0 1.69382,0.72856 1.74703,1.64721c0.30922,-0.49458 0.85866,-0.82357 1.48494,-0.82357c0.87656,0 1.60259,0.64446 1.73013,1.48542l0.58179,3.42173l-0.43069,0.07323c1.05718,3.27392 1.65031,6.63275 2.00751,10.04402c0.10449,-0.65443 0.21043,-1.30814 0.31749,-1.96092c0.00935,-3.29152 0.01869,-6.58305 0.02804,-9.87457c-0.13689,-1.1361 -0.21517,-2.26463 0.00952,-3.35408c0.00081,-0.28533 0.00162,-0.57066 0.00243,-0.85599l0.009,-3.17058c0.00234,-0.9645 0.78494,-1.74566 1.74999,-1.74566c0.90545,0 1.65029,0.68765 1.74077,1.5692c0.27776,-0.1855 0.61158,-0.29364 0.97065,-0.29364c0.77411,0 1.43082,0.50262 1.6616,1.19932l1.16438,3.2574c0.61938,1.12457 1.09425,2.32046 1.26605,3.66262c0.699,5.46079 -1.05374,12.3103 -1.5426,17.80841c-0.14672,1.65014 -0.29461,3.30002 -0.44372,4.94966c0.09577,0.20337 0.15353,0.42816 0.16413,0.66523l0.17984,3.48461l-0.04961,0.00256c0.04039,1.02368 0.08366,2.04708 0.12952,3.07024c0.41878,2.8766 0.59427,5.80865 0.70046,8.74965c1.09384,-10.82164 2.14876,-21.64767 3.24871,-32.46804c0.03529,-2.30825 0.07114,-4.6165 0.1075,-6.92473l0.03714,-2.35772c0.0129,-0.95538 0.79139,-1.72589 1.74984,-1.72589c0.89179,0 1.62779,0.66706 1.73623,1.52945l0.45826,3.22889l-0.02214,0.00314c0.0123,0.04288 0.02424,0.08589 0.0358,0.12903c0.0064,0.0239 -0.07162,7.02255 -0.07282,7.13241c-0.03821,3.49979 -0.07642,6.99958 -0.11462,10.49937c-0.17882,16.37993 -0.6756,32.67589 -1.49487,49.0363c-0.17657,3.49328 -0.64761,6.88612 -1.11701,10.35085l-0.44254,3.26648c-0.10395,0.86727 -0.8422,1.53955 -1.73748,1.53955c-0.37265,0 -0.71809,-0.11648 -1.00191,-0.31501c0.08007,3.91821 0.15686,7.83665 0.24284,11.75497c0.19478,8.87668 0.19981,17.74605 0.19981,26.62483v0.63077c0,0 0,1.75 -1.75,1.75zM261.37932,-18.55127c0.02964,1.94086 0.01314,3.88843 0.00008,5.83227c0.51984,-3.7821 1.47333,-8.15915 1.02527,-11.65955c-0.00294,-0.02294 -0.00623,-0.04579 -0.00987,-0.06856c-0.02595,0.15019 -0.0519,0.30039 -0.07785,0.45058c-0.31132,1.80081 -0.62636,3.61754 -0.93762,5.44526zM266.27067,36.89338c0.2209,2.54167 0.51531,5.13577 0.71502,7.72647c0.08584,-0.92985 0.15537,-1.8637 0.20206,-2.80524c0.41525,-8.2923 0.74741,-16.56782 0.99709,-24.84617c-0.33822,3.3393 -0.67638,6.6786 -1.01429,10.01793c-0.33123,3.27325 -0.55757,6.60131 -0.89988,9.907z" fill="#ffffff" stroke="none" stroke-width="0.5" stroke-linecap="butt"></path></g></g></svg>