<svg version="1.1" xmlns="http://www.w3.org/2000/svg" xmlns:xlink="http://www.w3.org/1999/xlink" width="558.55425" height="80.5215" viewBox="0,0,558.55425,80.5215"><g transform="translate(-199.73928,-139.73932)"><g data-paper-data="{&quot;isPaintingLayer&quot;:true}" fill-rule="nonzero" stroke-linejoin="miter" stroke-miterlimit="10" stroke-dasharray="" stroke-dashoffset="0" style="mix-blend-mode: normal"><path d="M226.48074,217.11447c-20.49772,-7.4665 -31.06161,-30.13597 -23.59511,-50.63369c7.4665,-20.49772 30.13597,-31.06161 50.63369,-23.59511c20.49772,7.4665 31.06161,30.13597 23.59511,50.63369c-7.4665,20.49772 -30.13597,31.06161 -50.63369,23.59511z" data-paper-data="{&quot;index&quot;:null}" fill="#d8d8d8" stroke="#000000" stroke-width="1.5" stroke-linecap="butt"></path><path d="M249.55029,177.43906l21.41599,1.44128" data-paper-data="{&quot;index&quot;:null}" fill="none" stroke="#000000" stroke-width="1.5" stroke-linecap="round"></path><path d="M224.46639,161.62428l20.03065,13.97406" data-paper-data="{&quot;index&quot;:null}" fill="none" stroke="#000000" stroke-width="1.5" stroke-linecap="round"></path><path d="M241.0384,178.79029c0.28354,-0.77839 1.1444,-1.17955 1.92279,-0.89602c0.77839,0.28354 1.17955,1.1444 0.89602,1.92279c-0.28354,0.77839 -1.1444,1.17955 -1.92279,0.89602c-0.77839,-0.28354 -1.17955,-1.1444 -0.89602,-1.92279z" fill="#000000" stroke="none" stroke-width="0.5" stroke-linecap="butt"></path><path d="M257.1426,184.33842c0.28354,-0.77839 1.14441,-1.17955 1.92279,-0.89602c0.77838,0.28354 1.17955,1.1444 0.89602,1.92279c-0.28354,0.77839 -1.14441,1.17955 -1.92279,0.89602c-0.77838,-0.28354 -1.17955,-1.1444 -0.89602,-1.92279z" fill="#000000" stroke="none" stroke-width="0.5" stroke-linecap="butt"></path><path d="M239.57777,199.40427c0,0 3.98472,-5.54421 5.61858,-4.94906c1.26558,0.461 1.68056,7.60785 1.68056,7.60785" fill="none" stroke="#000000" stroke-width="1.5" stroke-linecap="round"></path><path d="M623.4799,214.28996c-74.1794,0 -134.31363,-14.51406 -134.31363,-32.41818c0,-17.90406 60.13408,-32.41818 134.31363,-32.41818c74.1794,0 134.31363,14.51406 134.31363,32.41818c0,17.90406 -60.13408,32.41818 -134.31363,32.41818z" data-paper-data="{&quot;index&quot;:null}" fill="#d8d8d8" stroke="#000000" stroke-width="1" stroke-linecap="butt"></path></g></g></svg>