<svg version="1.1" xmlns="http://www.w3.org/2000/svg" xmlns:xlink="http://www.w3.org/1999/xlink" width="98.25907" height="80.51316" viewBox="0,0,98.25907,80.51316"><g transform="translate(-202.93175,-81.85923)"><g data-paper-data="{&quot;isPaintingLayer&quot;:true}" fill-rule="nonzero" stroke-linejoin="miter" stroke-miterlimit="10" stroke-dasharray="" stroke-dashoffset="0" style="mix-blend-mode: normal"><path d="" data-paper-data="{&quot;index&quot;:null}" fill="none" stroke="#000000" stroke-width="1.5" stroke-linecap="round"></path><path d="" data-paper-data="{&quot;index&quot;:null}" fill="none" stroke="#000000" stroke-width="1.5" stroke-linecap="round"></path><path d="" data-paper-data="{&quot;index&quot;:null}" fill="none" stroke="#000000" stroke-width="1.5" stroke-linecap="round"></path><path d="M272.80447,95.67328" data-paper-data="{&quot;index&quot;:null}" fill="none" stroke="#d8d8d8" stroke-width="4" stroke-linecap="round"></path><g stroke="#000000" stroke-width="1.5"><path d="M250.02069,161.02043c-21.48642,3.77342 -41.96357,-10.58581 -45.73698,-32.07225c-3.77342,-21.48642 10.58581,-41.96357 32.07225,-45.73698c21.48642,-3.77342 41.96357,10.58581 45.73698,32.07225c3.77342,21.48642 -10.58581,41.96357 -32.07225,45.73698z" fill="#d8d8d8" stroke-linecap="butt"></path><path d="M236.33574,113.95826l-17.9442,-3.00796" fill="none" stroke-linecap="round"></path><path d="M232.46833,116.12417l1.43627,6.96901" fill="none" stroke-linecap="round"></path><path d="M240.63984,113.06938l9.80923,-7.03242" fill="none" stroke-linecap="round"></path><path d="M242.93992,114.07276l0.95185,6.62931" fill="none" stroke-linecap="round"></path><path d="M235.75935,140.23376c0,0 0.18995,-11.78986 2.94554,-12.22322c3.29508,-0.51821 8.77592,11.51846 8.77592,11.51846" fill="none" stroke-linecap="round"></path></g><path d="M296.57506,155.64611c-3.17286,-0.46886 -6.35928,-0.84028 -9.56714,-1.02111c-0.39697,-0.02238 -9.8754,-0.14053 -9.98255,-0.17591c-0.07279,-0.02404 -0.14483,-0.04961 -0.21616,-0.07664l-0.00845,0.04196l-2.41769,-0.48669c-0.38934,-0.07041 -0.74732,-0.23098 -1.05152,-0.4593c-2.594,0.08173 -5.16845,0.04922 -7.36842,-0.43525c-0.0143,-0.00315 -0.02859,-0.00632 -0.04287,-0.00951l-0.00036,0.00795l-4.98157,-0.22285c-0.0749,-0.0029 -0.14895,-0.00909 -0.22201,-0.01843c-4.13694,0.18455 -8.27346,0.37532 -12.41326,0.51508c-0.02454,0.00083 -0.04909,0.00171 -0.07365,0.00263l1.20155,1.1164c0.49444,0.45674 0.80407,1.11062 0.80407,1.83681c0,1.38071 -1.11929,2.5 -2.5,2.5c-0.09224,0 -0.18331,-0.005 -0.27296,-0.01473l-4.35417,-0.42056l0.00204,-0.0211l-0.08194,0.01209c-5.02534,-0.81339 -9.62254,-1.2399 -14.40393,-3.02266c0,0 -2.33893,-0.88285 -1.45607,-3.22178c0.88285,-2.33893 3.22178,-1.45607 3.22178,-1.45607c0.68849,0.26355 1.37437,0.49346 2.0594,0.6967c-0.01524,-0.1116 -0.02311,-0.22554 -0.02311,-0.34132c0,-1.37165 1.10464,-2.48529 2.47284,-2.49986l4.99571,-0.06208c0.21933,-0.03984 7.15588,-0.06493 8.25765,-0.10221c1.31649,-0.04455 2.63264,-0.09419 3.94859,-0.1471l-2.63488,-0.66304c-1.06837,-0.24412 -1.87603,-1.17269 -1.93708,-2.29982l-4.68896,-0.13109c-1.3524,-0.03253 -2.43873,-1.13903 -2.43873,-2.49926c0,-1.34508 1.06226,-2.44205 2.39364,-2.49778l4.97971,-0.24092c2.99005,-0.72671 6.14581,-0.32467 9.22051,-0.44601c2.65439,-0.10476 5.2909,-0.114 7.91851,-0.06195c6.46482,-1.27054 12.29279,-1.91001 18.93871,-1.90331l0.28749,0.19421l0.03474,-0.13116l3.06824,0.81274c0.46072,0.11112 0.87169,0.34983 1.19342,0.67665c0.14192,0.0196 0.28334,0.04634 0.42419,0.08121c0.11223,0.02778 0.22302,0.05905 0.3325,0.09352l0.01008,-0.06007l2.9152,0.48906c1.20384,0.18004 2.12709,1.21839 2.12709,2.47238c0,0.72562 -0.30914,1.37903 -0.80289,1.83573c-0.25115,0.70043 -0.80603,1.25619 -1.50589,1.50854c0.69693,0.44367 1.15926,1.22307 1.15926,2.11045c0,1.26483 -0.93928,2.31027 -2.15837,2.47685l-0.08102,0.01246c3.44923,0.30163 6.88119,0.74814 10.33447,1.32635l-1.67167,2.88534l0.84443,2.04575c-0.61747,-0.10379 -1.23534,-0.20529 -1.85366,-0.3038l-0.19597,0.33825c0,0 -1.00344,0 -1.73887,-0.63572zM262.42611,145.00433c-0.24101,0.05967 -0.48006,0.11889 -0.71747,0.17686c1.07836,0.18746 2.16019,0.35388 3.24426,0.49892c1.7544,0.23473 3.56444,0.22887 5.3239,0.43717c-0.43575,-0.36262 -0.74627,-0.87059 -0.85714,-1.44948l-0.48959,0.01314c-2.16212,0.15323 -4.33225,0.2544 -6.50397,0.32338z" fill="#967343" stroke="none" stroke-width="0.5" stroke-linecap="butt"></path></g></g></svg>