<svg version="1.1" xmlns="http://www.w3.org/2000/svg" xmlns:xlink="http://www.w3.org/1999/xlink" width="148.7836" height="139.17878" viewBox="0,0,148.7836,139.17878"><g transform="translate(-184.52579,-127.87187)"><g data-paper-data="{&quot;isPaintingLayer&quot;:true}" fill-rule="nonzero" stroke-linejoin="miter" stroke-miterlimit="10" stroke-dasharray="" stroke-dashoffset="0" style="mix-blend-mode: normal"><path d="" data-paper-data="{&quot;index&quot;:null}" fill="none" stroke="#000000" stroke-width="1.5" stroke-linecap="round"></path><path d="M199.48851,178.17395c0,-21.81525 17.68475,-39.5 39.5,-39.5c21.81525,0 39.5,17.68475 39.5,39.5c0,21.81525 -17.68475,39.5 -39.5,39.5c-21.81525,0 -39.5,-17.68475 -39.5,-39.5z" fill="#d8d8d8" stroke="#000000" stroke-width="1.5" stroke-linecap="butt"></path><path d="M253.08518,194.16859c0,0 -22.12613,8.02511 -27.57511,5.13694" data-paper-data="{&quot;index&quot;:null}" fill="none" stroke="#000000" stroke-width="1.5" stroke-linecap="round"></path><path d="M184.52579,194.65338" fill="none" stroke="#d8d8d8" stroke-width="4" stroke-linecap="round"></path><path d="M232.30733,175.42396v-8" fill="none" stroke="#000000" stroke-width="1.5" stroke-linecap="round"></path><path d="M241.28663,173.49279c0,0 1.27486,-2.93117 2.69835,-2.93117c1.20746,0 3.02185,2.93117 3.02185,2.93117" fill="none" stroke="#000000" stroke-width="1.5" stroke-linecap="round"></path><text transform="translate(215.72536,233.62398) scale(0.37642,0.37642)" font-size="40" xml:space="preserve" fill="#000000" fill-rule="nonzero" stroke="none" stroke-width="1" stroke-linecap="butt" stroke-linejoin="miter" stroke-miterlimit="10" stroke-dasharray="" stroke-dashoffset="0" font-family="Sans Serif" font-weight="normal" text-anchor="start" style="mix-blend-mode: normal"><tspan x="0" dy="0">Priest</tspan></text><text transform="translate(213.82429,245.74329) scale(0.20478,0.20478)" font-size="40" xml:space="preserve" fill="#000000" fill-rule="nonzero" stroke="none" stroke-width="1" stroke-linecap="butt" stroke-linejoin="miter" stroke-miterlimit="10" stroke-dasharray="" stroke-dashoffset="0" font-family="Sans Serif" font-weight="normal" text-anchor="start" style="mix-blend-mode: normal"><tspan x="0" dy="0">-Lifesteal</tspan><tspan x="0" dy="46.150000000000006px">-Zoning</tspan><tspan x="0" dy="46.150000000000006px">-unfair hitboxes</tspan></text><g><path d="M267.48057,209.73272l27.54539,-49.22792l3.39502,1.89969l-27.54539,49.22792z" fill="#7f7600" stroke="#000000" stroke-width="0" stroke-linecap="butt"></path><path d="M295.26917,148.77328c2.0985,-3.81138 6.88941,-5.19995 10.7008,-3.10144c3.81138,2.0985 5.19995,6.88941 3.10145,10.7008c-2.0985,3.81138 -6.88941,5.19995 -10.70081,3.10144c-3.81138,-2.0985 -5.19995,-6.88941 -3.10144,-10.7008z" fill="none" stroke="#ffee00" stroke-width="6.5" stroke-linecap="butt"></path><path d="M303.34605,143.78302c0,0 4.05758,-9.25962 7.86919,-7.43616c3.8116,1.82345 -2.39922,10.00377 -2.39922,10.00377" fill="none" stroke="#ffee00" stroke-width="6.5" stroke-linecap="round"></path><path d="M310.43286,153.95701c0,0 9.25961,4.05758 7.43617,7.86918c-1.82345,3.8116 -10.00377,-2.39921 -10.00377,-2.39921" fill="none" stroke="#ffee00" stroke-width="6.5" stroke-linecap="round"></path><path d="M301.15569,159.98323c0,0 -4.05758,9.25962 -7.86918,7.43618c-3.8116,-1.82345 2.39922,-10.00377 2.39922,-10.00377" fill="none" stroke="#ffee00" stroke-width="6.5" stroke-linecap="round"></path><path d="M293.45209,150.28779c0,0 -9.25962,-4.05758 -7.43617,-7.86918c1.82344,-3.8116 10.00376,2.3992 10.00376,2.3992" fill="none" stroke="#ffee00" stroke-width="6.5" stroke-linecap="round"></path></g><path d="M278.05445,207.57196c-0.00036,-0.01111 -0.00054,-0.02226 -0.00054,-0.03346c0,-0.40077 0.23575,-0.74648 0.57615,-0.906c-0.18912,-0.18194 -0.3068,-0.43759 -0.3068,-0.72074c0,-0.55229 0.44772,-1 1,-1c0.20797,0 0.40111,0.06348 0.5611,0.17213l1.49651,0.98387c0.37851,0.22861 0.71902,0.43585 1.0329,0.63222c0.59798,0.29064 1.20167,0.71188 1.76732,1.15212l0.06549,-0.11928l1.73544,0.95282c0.31888,0.16713 0.53643,0.50131 0.53643,0.88629c0,0.13668 -0.02742,0.26695 -0.07706,0.38562l0.44545,0.68272c0.10753,0.15946 0.1703,0.3516 0.1703,0.55839c0,0.55229 -0.44772,1 -1,1c-0.04771,0 -0.09463,-0.00334 -0.14056,-0.0098l-1.06169,-0.13359l0.028,-0.22249c-4.05446,-0.14193 -8.55205,-2.20414 -12.35098,-4.15455c-2.15044,-0.92171 -4.25,-2.01346 -6.35339,-3.3284c-1.67714,-1.04847 -6.05817,-3.47598 -3.8659,-6.18679c1.36811,-1.69172 6.52,0.9359 8.25656,0.91958c0,0 1,0 1,1c0,1 -1,1 -1,1c-0.38502,-0.00289 -0.75871,-0.02986 -1.1252,-0.07491c0.1236,0.09766 0.24609,0.19731 0.36747,0.29913l0.23856,0.10784l0.09339,-0.15464l1.33122,0.80397c0.29812,0.1731 0.49858,0.49585 0.49858,0.8654c0,0.55229 -0.44772,1 -1,1c-0.15454,0 -0.30088,-0.03505 -0.43153,-0.09764l-0.48021,-0.21707l-0.05325,0.30262c1.91537,0.22123 3.43877,1.11173 5.51716,2.08851l0.02179,0.02331l0.00502,-0.0092l1.40422,0.76668c0.23537,0.12262 0.41584,0.33615 0.49487,0.59402c0.20029,0.06484 0.40133,0.1286 0.60317,0.19132zM268.69036,203.33459c0.04303,0.00279 0.08533,0.00831 0.12671,0.01637l1.08227,0.19045l-0.97034,-0.43862c-0.25565,-0.10359 -0.50836,-0.21524 -0.76202,-0.3243c0.02886,0.08085 0.04994,0.17049 0.05526,0.26624c0.1556,0.09738 0.31155,0.19416 0.46812,0.28986zM263.96398,200.21646c0.04375,-0.02357 0.08856,-0.04541 0.13438,-0.06558c-0.11739,-0.07586 -0.23237,-0.14924 -0.34453,-0.21935c0.04851,0.08724 0.1202,0.18303 0.21015,0.28492z" fill="#ffee00" stroke="none" stroke-width="0.5" stroke-linecap="butt"></path><path d="M274.85832,178.64399c-0.1162,0.27706 -0.28072,0.43597 -0.45405,0.52272c1.26395,1.34276 2.46608,2.66901 3.52081,4.15478l0.17815,-0.16611l1.36219,1.46089c0.16767,0.17883 0.27036,0.41935 0.27036,0.68384c0,0.48557 -0.34607,0.8903 -0.80503,0.98101c1.17459,0.94655 2.2901,1.93703 3.30168,2.99934c0.1205,-0.41693 0.50504,-0.7218 0.9608,-0.7218c0.0011,0 0.00221,0 0.00331,0c0.48555,-0.78899 1.31914,-0.3345 1.31914,-0.3345c3.73564,2.03674 7.8521,2.87884 11.57545,4.86755l1.57858,0.80298c0.33477,0.16165 0.56572,0.50437 0.56572,0.90103c0,0.55229 -0.44772,1 -1,1c-0.02864,0 -0.05699,-0.0012 -0.08501,-0.00356l-1.9838,-0.14791l0.02562,-0.34364c-3.02456,-0.11477 -5.63704,-1.29824 -8.42515,-2.75903c-0.01212,0.00044 -0.0243,0.00065 -0.03653,0.00065h-2v-0.27433c-0.1381,0.00262 -0.27464,0.00271 -0.40987,0.0003c-0.17923,0.16985 -0.42131,0.27402 -0.68773,0.27402c-0.14008,0 -0.27344,-0.02881 -0.39447,-0.08082l-1.17197,-0.47185c-1.33226,-0.30366 -2.67516,-0.84164 -4.30301,-1.55311l-1.24438,-0.54458c-0.36387,-0.14956 -0.62008,-0.50751 -0.62008,-0.9253c0,-0.55229 0.44772,-1 1,-1c0.13249,0 0.25896,0.02576 0.37467,0.07255l0.29196,0.11021c-0.29425,-0.2399 -0.5815,-0.46965 -0.86095,-0.6772c-3.63913,-2.70267 -7.27375,-5.34861 -10.69549,-8.32312l-0.93696,-0.80838c-0.21508,-0.18342 -0.35148,-0.45639 -0.35148,-0.76122c0,-0.55229 0.44772,-1 1,-1c0.13248,0 0.25896,0.02577 0.37467,0.07256l1.05589,0.39855l-0.12133,0.32143c1.7509,0.45869 3.47743,1.38764 5.14614,2.44592c-0.33028,-0.4036 -0.64777,-0.78161 -0.95223,-1.10909l-1.18333,-1.05881c-0.20655,-0.1832 -0.33672,-0.45059 -0.33672,-0.74839c0,-0.55229 0.44772,-1 1,-1c0.14506,0 0.28292,0.03089 0.40733,0.08645l3.2117,1.34699c0,0 0.92218,0.38676 0.53542,1.30894z" fill="#ffee00" stroke="none" stroke-width="0.5" stroke-linecap="butt"></path><path d="M285.99804,159.74676c-0.29891,0.56422 -0.76721,0.57733 -1.06674,0.51308c1.07456,1.83198 1.9652,3.95901 0.71924,5.1498c-0.55602,0.53139 -1.49381,-0.37736 -2.21716,-0.63869c-1.38324,-0.49972 -3.86724,-1.92207 -5.62973,-3.42697c0.53682,0.86796 1.12988,1.70152 1.76618,2.50499c0.05129,-0.00811 0.10388,-0.01233 0.15744,-0.01233c0.27742,0 0.52845,0.11296 0.70961,0.2954l0.80787,0.81317l-0.02741,0.02723l0.08612,0.03725c0.39941,0.57231 0.76293,1.16079 1.10344,1.75932c0.79107,0.65908 1.56217,1.51395 2.30234,2.39629c0.96494,0.85851 1.94895,1.68595 2.92636,2.49085c0,0 0.68402,0.56334 0.23396,1.27332l0.39331,0.61332c0,0 0.51202,0.85897 -0.34695,1.37099c-0.85897,0.51202 -1.37099,-0.34695 -1.37099,-0.34695l-0.24162,-0.47233c-0.04609,-0.04477 -0.0921,-0.08945 -0.138,-0.13403c0.02255,0.03642 0.04521,0.07277 0.06799,0.10907c0,0 0.52751,0.84955 -0.32204,1.37706c-0.84955,0.52751 -1.37706,-0.32204 -1.37706,-0.32204c-1.30044,-2.11292 -2.22499,-4.40425 -3.4045,-6.58817c-2.44207,-2.42804 -4.62311,-5.10523 -6.1582,-8.17944l-0.00355,-0.01727l-0.00369,0.00168l-0.71749,-1.57832c-0.06315,-0.13111 -0.09854,-0.27811 -0.09854,-0.43337c0,-0.55229 0.44772,-1 1,-1c0.12899,0 0.25227,0.02442 0.36547,0.06888l1.45971,0.5343l-0.12102,0.33065c1.87403,0.73543 3.28489,1.95907 5.20688,3.31769c0.42442,0.30001 0.91238,0.51427 1.37239,0.76327c-0.78105,-1.33982 -1.62651,-3.23804 -1.8841,-3.70097l-0.59341,-0.78941c-0.12962,-0.16863 -0.20669,-0.37976 -0.20669,-0.60889c0,-0.55229 0.44772,-1 1,-1c0.24698,0 0.47305,0.08954 0.64751,0.23792l0.8032,0.67373l-0.05309,0.06329c0.56171,0.22384 1.11218,0.47474 1.64589,0.75548l0.79156,0.41935c0,0 0.88365,0.46814 0.41552,1.35179z" fill="#ffee00" stroke="none" stroke-width="0.5" stroke-linecap="butt"></path><path d="M278.12111,189.04186c0.60251,-0.79811 1.40062,-0.1956 1.40062,-0.1956l1.06808,0.80641c2.81727,2.02534 5.78517,3.57412 8.2725,5.82151c0.00887,0.00548 0.01774,0.01097 0.02661,0.01646l0.16843,-0.23427l1.61321,1.15986c0.25812,0.18083 0.42689,0.48049 0.42689,0.81958c0,0.55229 -0.44772,1 -1,1c-0.15135,0 -0.29485,-0.03363 -0.42343,-0.09381l-0.97336,-0.42921l0.01265,-0.02868l-0.07533,-0.00161c-0.80573,-0.49795 -1.91875,-1.01045 -3.06119,-1.57854c1.26554,1.31574 2.48444,2.62167 3.43734,4.22504l0.31901,-0.17607l0.95759,1.73498c0.08481,0.14692 0.13335,0.31741 0.13335,0.49924c0,0.55229 -0.44772,1 -1,1c-0.09121,0 -0.17956,-0.01221 -0.26352,-0.03508l-1.2883,-0.321l0.00156,-0.00626l-0.02434,0.00029c-0.76853,-0.23047 -1.81608,-0.43678 -2.95074,-0.67378l0.57971,0.48203c0.22379,0.18339 0.36658,0.46195 0.36658,0.77385c0,0.55229 -0.44772,1 -1,1c-0.06581,0 -0.13014,-0.00636 -0.19241,-0.0185l-1.09545,-0.19276l0.00543,-0.03082l-0.08585,0.01323c-0.2914,-0.10224 -0.61698,-0.2065 -0.96768,-0.31421l0.3164,0.44586c0.12032,0.1651 0.19133,0.36844 0.19133,0.58837c0,0.55229 -0.44772,1 -1,1c-0.04771,0 -0.09463,-0.00334 -0.14056,-0.00981l-1.06171,-0.13358l0.00606,-0.04812l-0.14429,0.02071c-2.97047,-1.25511 -6.20973,-2.23291 -9.30608,-3.12164c0,0 -0.96105,-0.27639 -0.68466,-1.23744c0.27639,-0.96105 1.23744,-0.68466 1.23744,-0.68466c1.32694,0.38233 2.69396,0.77448 4.05473,1.20093c-0.73583,-0.37783 -1.48585,-0.73168 -2.25478,-1.06411l-1.16045,-0.38934c-0.40767,-0.12625 -0.7038,-0.50625 -0.7038,-0.95541c0,-0.55229 0.44772,-1 1,-1c0.09204,0 0.18117,0.01244 0.26581,0.03572l1.91775,0.48257l-0.04954,0.19689c0.17149,0.0736 0.34334,0.14742 0.51521,0.22177c0.75158,0.13499 1.48235,0.31924 2.20508,0.5367l-1.35783,-0.64541c-0.34826,-0.15637 -0.5908,-0.50622 -0.5908,-0.91272c0,-0.55229 0.44772,-1 1,-1c0.13543,0 0.26457,0.02692 0.38236,0.0757l1.72946,0.66954l-0.05345,0.13806c0.03613,0.01953 0.07207,0.03897 0.10782,0.05831c2.76418,0.47141 5.46839,1.34125 8.16649,2.17284c-2.45003,-1.97466 -5.06173,-5.19509 -6.64138,-7.41832l-1.30296,-1.31151c-0.00005,-0.00006 -0.00011,-0.00011 -0.00017,-0.00017c-0.1796,-0.18078 -0.29058,-0.42982 -0.29058,-0.70479c0,-0.12886 0.02438,-0.25203 0.06876,-0.36514l-0.61402,-0.4635c0,0 -0.79811,-0.60251 -0.1956,-1.40062z" fill="#b8ab00" stroke="none" stroke-width="0.5" stroke-linecap="butt"></path><path d="M287.47981,164.33806c0.49858,-0.86684 1.36543,-0.36826 1.36543,-0.36826l1.03001,0.59866c0.85858,0.80751 1.21891,2.01872 1.78015,3.05518c0.58249,1.07572 1.85715,1.60151 2.68283,2.50412c1.21659,1.32995 2.01122,2.83874 2.62869,4.44889l0.08786,-0.04621l0.92204,1.75307c0.07897,0.14307 0.12391,0.30756 0.12391,0.48253c0,0.55229 -0.44772,1 -1,1c-0.09204,0 -0.18118,-0.01244 -0.26583,-0.03572l-1.59434,-0.40121l0.00619,-0.02463l-0.09722,-0.00294c-0.26323,-0.12172 -1.43241,-0.69191 -2.53043,-1.24909c0.34467,0.40399 0.6491,0.79439 0.86517,0.9882c2.09869,1.88247 4.32168,3.34055 5.98281,5.40097l0.26867,-0.23727l1.07445,1.21667c0.15763,0.17676 0.25343,0.40985 0.25343,0.66532c0,0.55229 -0.44772,1 -1,1c-0.14126,0 -0.27567,-0.02929 -0.3975,-0.08212l-1.80304,-0.733l0.0018,-0.00443l-0.01817,-0.0024c-1.24303,-0.5574 -2.97816,-1.16676 -4.71871,-1.88831l0.12174,0.0919c0.24663,0.18212 0.40659,0.47487 0.40659,0.80498c0,0.55229 -0.44772,1 -1,1c-0.07745,0 -0.15285,-0.00881 -0.22525,-0.02547l-1.32104,-0.27618l0.0052,-0.02491l-0.07432,0.00787c-2.47159,-0.89517 -4.51273,-1.96568 -6.72839,-3.35946c0,0 -0.84644,-0.53249 -0.31395,-1.37892c0.53249,-0.84644 1.37893,-0.31395 1.37893,-0.31395c0.34731,0.2185 0.68948,0.4288 1.02939,0.63144c-0.07339,-0.06651 -0.14691,-0.13208 -0.22064,-0.19648l-0.03483,-0.09793l-0.0294,0.02268l-0.7164,-0.9286c-0.13394,-0.17012 -0.21384,-0.38478 -0.21384,-0.6181c0,-0.55229 0.44772,-1 1,-1c0.14009,0 0.27345,0.02881 0.39449,0.08082l1.83427,0.73852l-0.1002,0.24885c1.72843,0.53644 3.39778,1.28177 5.04998,2.08275c-0.808,-0.80471 -1.5276,-1.57404 -2.07631,-2.1039c-0.40299,-0.38915 -2.92208,-2.74999 -2.69513,-3.44544c0.67606,-2.07169 3.63181,-0.53152 4.43144,-0.20585c0.14666,0.05973 1.39256,0.64688 2.20997,1.03281c-0.88788,-1.12236 -1.32784,-2.53261 -2.38035,-3.66861c-0.33655,-0.36324 -2.78974,-2.59873 -2.97366,-2.91834c-0.43998,-0.76454 -0.50066,-1.80796 -1.18277,-2.36728l-0.85548,-0.48583c0,0 -0.86685,-0.49858 -0.36826,-1.36542z" fill="#b8ab00" stroke="none" stroke-width="0.5" stroke-linecap="butt"></path><path d="M302.81621,144.35619c0.57933,-1.64013 1.20424,-3.26787 1.84097,-4.89086c-0.02894,-0.02973 -0.05604,-0.06125 -0.08113,-0.09438l-0.2935,-0.37984c-0.20945,0.59014 -0.42006,1.17411 -0.61864,1.74648c-0.35046,1.01012 -1.32734,1.91397 -1.19826,2.97535c0.02958,0.24327 0.18456,0.44509 0.35056,0.64326zM306.96848,133.56057c0.51828,-1.36603 1.01588,-2.73526 1.47267,-4.11225l0.04968,-0.04403l-0.02525,-0.01194l0.43914,-0.92804c0.15602,-0.34913 0.50632,-0.59244 0.91345,-0.59244c0.55228,0 1,0.44771 1,1c0,0.09094 -0.01214,0.17903 -0.03488,0.26277l-0.39863,1.60502l-0.24933,-0.06193c-0.00686,0.02028 -0.01373,0.04056 -0.0206,0.06083c-0.19584,1.6702 -0.69981,3.164 -1.3893,5.01426l-0.01531,0.02244l0.005,0.00218l-0.78809,1.81316c-0.11025,0.27021 -0.33531,0.48138 -0.61456,0.5729c-1.92131,4.83508 -3.86141,9.68651 -4.86347,14.76205c0,0 -0.19487,0.98083 -1.1757,0.78596c-0.98083,-0.19487 -0.78596,-1.1757 -0.78596,-1.1757c0.27137,-1.35801 0.607,-2.70019 0.98969,-4.03039c-0.73496,-0.27079 -0.58981,-1.09876 -0.58981,-1.09876l0.05865,-0.33459c0.22265,-1.06112 -0.41239,-2.13536 -0.47521,-3.21776c-0.08828,-1.52131 1.43995,-4.19379 1.91257,-5.65521c0.15483,-0.47877 0.32189,-0.95399 0.48724,-1.4297c-0.13949,-0.23313 -0.26493,-0.47291 -0.37945,-0.72478c-0.02315,0.0453 -0.04645,0.09054 -0.06988,0.13568c-0.24838,0.96428 -0.60415,1.92026 -0.88034,2.80165l-0.0234,0.03591l0.00829,0.00339l-0.74825,1.82968c-0.14374,0.37598 -0.50788,0.64298 -0.93439,0.64298c-0.38151,0 -0.71312,-0.21364 -0.88172,-0.52781l-0.65474,-1.16656l0.02697,-0.01513c-0.07675,-0.14784 -0.13127,-0.30519 -0.15494,-0.47569c-0.11432,-0.82342 0.72505,-1.49659 1.11305,-2.23182c0.32367,-0.61332 0.88758,-1.94543 1.61207,-3.24585c0.08067,-0.2783 0.16454,-0.55621 0.25334,-0.83435l-0.24321,-0.04715l0.37716,-1.94561c0.08173,-0.47009 0.49171,-0.82753 0.98518,-0.82753c0.46076,0 0.84875,0.31162 0.96468,0.73561c0.49257,-0.31612 1.00856,-0.4395 1.53694,-0.26623v-0.01162c0,-0.55229 0.44772,-1 1,-1c0.51506,0 0.93917,0.3894 0.994,0.88986l0.13305,1.0714l-0.12705,0.01578v0.61379c0.10077,0.44449 0.16157,0.88757 0.19066,1.33558zM303.80584,133.15003c-0.0191,0.04569 -0.03855,0.09214 -0.05834,0.13931c0.00689,0.02425 0.01383,0.04844 0.02083,0.07261c0.01108,-0.07093 0.02335,-0.14162 0.03751,-0.21191z" fill="#b8ab00" stroke="none" stroke-width="0.5" stroke-linecap="butt"></path><path d="M316.9071,171.33876l0.18623,-0.10662l0.98498,1.72048c0.08946,0.14978 0.14087,0.32491 0.14087,0.51205c0,0.55229 -0.44772,1 -1,1c-0.29599,0 -0.56195,-0.12859 -0.74504,-0.33297l-1.3376,-1.48105l0.01399,-0.01263l-0.05203,-0.03206c-0.45905,-0.64562 -1.05586,-1.29274 -1.66558,-1.95495c0.16826,0.33047 0.33504,0.6623 0.50046,0.9955l-0.29384,0.19366c0.1707,0.67372 0.31213,1.37169 0.41251,2.11112l-1.88457,-1.36584c-0.70628,-1.42102 -1.41997,-2.85279 -2.18063,-4.25781c-0.74916,0.54758 -1.34871,-0.19001 -1.34871,-0.19001l-1.20742,-1.48542c-0.14286,-0.17292 -0.22869,-0.39469 -0.22869,-0.63651c0,-0.50107 0.36854,-0.91608 0.84934,-0.98873c-0.30686,-0.4769 -0.6237,-0.9466 -0.95231,-1.4074c-0.77416,-1.08557 -1.58213,-2.14784 -2.32157,-3.25735c-0.34911,-0.52383 -1.36778,-2.11061 -1.07117,-1.55536c1.08518,2.03143 1.26994,4.66457 2.05205,6.98308c0.4763,0.74106 0.95301,1.48136 1.42835,2.22166l0.00811,0.04971l0.01484,-0.00764l0.66035,1.28254c0.07648,0.14135 0.11991,0.30321 0.11991,0.47521c0,0.55229 -0.44772,1 -1,1c-0.25162,0 -0.48153,-0.09293 -0.65729,-0.24634l-0.9387,-0.80987l0.27698,-0.32104l-0.05712,-0.11093c-0.95386,-0.88306 -1.58461,-1.99824 -2.04687,-3.24483c-1.94356,-3.02793 -3.86785,-6.07494 -5.65921,-9.18898c0,0 -0.49858,-0.86684 0.36827,-1.36542c0.86685,-0.49858 1.36543,0.36827 1.36543,0.36827c0.83702,1.4555 1.70373,2.89585 2.5879,4.32643c-0.15098,-1.12224 -0.27863,-2.50899 -0.03649,-2.71927c2.20914,-1.91848 3.32569,0.52 4.21332,1.702c1.10383,1.46988 2.13294,2.97218 3.10297,4.50724c0.16328,-0.11596 0.36287,-0.18415 0.57839,-0.18415c0.33579,0 0.63293,0.1655 0.81428,0.4194l0.62958,0.86005c-0.09004,-0.19539 -0.17976,-0.38173 -0.26968,-0.557l-0.63609,-0.89638c-0.12032,-0.1651 -0.19132,-0.36844 -0.19132,-0.58837c0,-0.55229 0.44772,-1 1,-1c0.29598,0 0.56194,0.12859 0.74503,0.33295l1.33762,1.48103l-0.18872,0.17044c1.37799,1.14499 2.50705,2.41337 3.85894,3.9353l0.01393,0.0327l0.00757,-0.00584l0.93716,1.21283c0.13421,0.17021 0.21429,0.38508 0.21429,0.61866c0,0.55229 -0.44772,1 -1,1c-0.07975,0 -0.15733,-0.00933 -0.23169,-0.02697l-0.5966,-0.12869c0.13025,0.31602 0.2556,0.63395 0.37525,0.9541z" fill="#f2e200" stroke="none" stroke-width="0.5" stroke-linecap="butt"></path><path d="M327.66752,147.01569c-3.66395,2.64416 -7.86248,6.62377 -12.41536,7.67183l0.10753,0.35608l-1.32452,0.39998c-0.09798,0.03207 -0.20264,0.04941 -0.31135,0.04941c-0.55228,0 -1,-0.44771 -1,-1c0,-0.33033 0.16017,-0.62325 0.40708,-0.80534l0.97752,-0.73708l0.00008,0.0001l0.0002,-0.0003c1.18529,-0.89248 2.3817,-1.76894 3.58039,-2.64169c-0.12248,-0.12574 -0.21829,-0.30346 -0.24444,-0.55467c-1.30503,0.44165 -2.59889,0.70755 -3.85549,0.72322c0,0 -1,0 -1,-1c0,-1 1,-1 1,-1c2.22253,0.03713 4.3803,-1.30166 6.26447,-2.40383c3.60097,-2.10645 7.12966,-4.28945 10.56665,-6.65452l0.03076,-0.00689l-0.0054,-0.00895l1.33284,-0.80495c0.15385,-0.09657 0.33586,-0.15241 0.53091,-0.15241c0.55228,0 1,0.44771 1,1c0,0.26899 -0.1062,0.51318 -0.27898,0.69291l-1.38247,1.44308l-0.18342,-0.17572c-0.72033,0.97358 -1.52356,1.88753 -2.38763,2.75495c0.27756,0.17771 0.46152,0.48876 0.46152,0.84278c0,0.31374 -0.14449,0.59374 -0.37054,0.77707l-1.47519,1.2149l-0.00654,-0.00793z" fill="#f2e200" stroke="none" stroke-width="0.5" stroke-linecap="butt"></path><path d="M290.0793,156.21162c-0.49858,0.86684 -1.36543,0.36825 -1.36543,0.36825l-0.15181,-0.08731c-1.62509,-0.93511 -3.01666,-1.66533 -4.36581,-2.62681l-0.13999,0.22599l-1.68534,-1.04392c-0.29246,-0.17451 -0.48833,-0.49406 -0.48833,-0.85937c0,-0.53965 0.42746,-0.97946 0.96227,-0.9993l1.19471,-0.05131c2.82776,-0.15633 5.40924,-0.21642 8.19845,0.34139c0,0 0.98033,0.19735 0.78298,1.17768c-0.19735,0.98033 -1.17768,0.78298 -1.17768,0.78298c-1.8172,-0.3684 -3.53675,-0.44317 -5.30671,-0.40541c1.0472,0.47949 2.04412,1.16181 3.02261,1.72438l0.15181,0.08732c0,0 0.86684,0.49859 0.36825,1.36543z" fill="#f2e200" stroke="none" stroke-width="0.5" stroke-linecap="butt"></path></g></g></svg>