<svg version="1.1" xmlns="http://www.w3.org/2000/svg" xmlns:xlink="http://www.w3.org/1999/xlink" width="196.33558" height="100.85766" viewBox="0,0,196.33558,100.85766"><g transform="translate(-83.91444,-119.39233)"><g data-paper-data="{&quot;isPaintingLayer&quot;:true}" fill-rule="nonzero" stroke-linejoin="miter" stroke-miterlimit="10" stroke-dasharray="" stroke-dashoffset="0" style="mix-blend-mode: normal"><path d="M198.63734,125.34319c4.69452,-2.36907 10.4207,-0.48393 12.78977,4.21058c2.36907,4.69452 0.48393,10.4207 -4.21058,12.78977c-4.69452,2.36907 -10.4207,0.48393 -12.78977,-4.21058c-2.36907,-4.69452 -0.48393,-10.4207 4.21058,-12.78977z" fill="#e6e6e6" stroke="#000000" stroke-width="1" stroke-linecap="butt"></path><g stroke-linecap="butt"><path d="M193.15151,145.47664l25.88227,-25.37724l13.12615,13.38738l-25.88227,25.37724z" fill="#454545" stroke="#000000" stroke-width="1"></path><path d="M210.93333,138.43118c0.62456,-1.29768 1.63687,-1.48803 2.38294,-1.41619c0.03691,-1.70653 0.32426,-3.37566 0.99715,-4.8214c1.6154,-3.4708 5.40512,-5.69902 8.36384,-7.79149c0,0 2.04251,-1.44157 3.48409,0.60093c1.44157,2.04251 -0.60093,3.48409 -0.60093,3.48409c-4.22314,2.97423 -7.63763,4.87121 -7.11948,10.46501c0.014,0.15116 0.02995,0.30216 0.04771,0.45296c0.22661,0.14085 0.44995,0.28801 0.66981,0.44318c0.72776,0.24351 1.42827,0.51842 2.08924,0.81492c3.27772,1.47037 8.52152,3.75481 7.58494,8.91013c-0.32936,1.81291 -2.82376,2.64512 -4.62682,3.02469c-0.27668,0.05824 -0.56092,0.08305 -0.85015,0.07849c-1.51305,2.35964 -4.53166,3.54006 -7.82512,2.28103c-3.54873,-1.35659 -5.07148,-6.03448 -5.8105,-9.20218l-0.08448,-1.3716c-0.11902,0.07118 -0.23651,0.14726 -0.35236,0.22841c-0.57899,0.40562 -3.45617,3.26836 -3.95837,3.76098c-0.63185,0.61952 -1.26371,1.23905 -1.89557,1.85858c0.26476,0.56425 0.33934,1.3148 -0.19399,2.22366c-1.26524,2.15619 -3.42143,0.89095 -3.42143,0.89095l-1.8602,-4.74826c1.29021,-1.26505 2.58045,-2.53009 3.87066,-3.79514c0.97522,-0.9558 3.80006,-3.79389 4.77286,-4.40802c1.25844,-0.79446 2.67127,-1.26631 4.14927,-1.48685c0.04583,-0.15269 0.10739,-0.31165 0.18692,-0.47689zM217.57074,150.39271c0.24159,0.16164 0.57929,0.2131 0.89469,0.156c-1.19049,-0.92281 -2.19228,-1.97534 -2.77327,-2.78669c-0.24088,-0.33637 -0.43529,-0.69932 -0.59877,-1.07891c0.45064,1.4446 1.16515,2.8316 2.47736,3.70959z" fill="#ff0000" stroke="none" stroke-width="0.5"></path></g><path d="" data-paper-data="{&quot;index&quot;:null}" fill="none" stroke="#000000" stroke-width="1.5" stroke-linecap="round"></path><path d="" data-paper-data="{&quot;index&quot;:null}" fill="none" stroke="#000000" stroke-width="1.5" stroke-linecap="round"></path><path d="M200.50002,180c0,-21.81525 17.68475,-39.5 39.5,-39.5c21.81525,0 39.5,17.68475 39.5,39.5c0,21.81525 -17.68475,39.5 -39.5,39.5c-21.81525,0 -39.5,-17.68475 -39.5,-39.5z" fill="#6e6e6e" stroke="#000000" stroke-width="1.5" stroke-linecap="butt"></path><path d="M200.35573,181.6599c0,0 0.21836,-3.48635 0.21836,-5.83045c0,-2.68059 2.28148,-9.37942 2.28148,-9.37942c0,0 25.76053,3.29547 38.0247,3.29547c12.45976,0 36.15636,-3.29547 36.15636,-3.29547c0,0 0.32325,0.8142 0.73295,2.06366c1.27619,3.89191 3.39127,12.00691 -0.81086,12.89272c-2.60416,0.54896 -18.81959,2.66663 -35.57172,2.60715c-18.95763,-0.06731 -38.53144,-2.35365 -38.53144,-2.35365z" fill="#d0d0d0" stroke="#000000" stroke-width="0" stroke-linecap="butt"></path><path d="M221.5218,166.98172l13.87412,12.6255" fill="none" stroke="#000000" stroke-width="1.5" stroke-linecap="round"></path><path d="M228.96586,174.81546l-0.2535,3.54897" fill="none" stroke="#000000" stroke-width="1.5" stroke-linecap="round"></path><path d="M258.3434,168.56564l-12.11149,9.20415" fill="none" stroke="#000000" stroke-width="1.5" stroke-linecap="round"></path><path d="M251.52718,179.12492v-5.06996" fill="none" stroke="#000000" stroke-width="1.5" stroke-linecap="round"></path><path d="M83.91444,165.95892z" fill="#e6e6e6" stroke="#000000" stroke-width="1" stroke-linecap="butt"></path></g></g></svg>