<svg version="1.1" xmlns="http://www.w3.org/2000/svg" xmlns:xlink="http://www.w3.org/1999/xlink" width="158.11703" height="80.5" viewBox="0,0,158.11703,80.5"><g transform="translate(-142.12815,-140.44476)"><g data-paper-data="{&quot;isPaintingLayer&quot;:true}" fill-rule="nonzero" stroke-linejoin="miter" stroke-miterlimit="10" stroke-dasharray="" stroke-dashoffset="0" style="mix-blend-mode: normal"><g><path d="M164.09793,168.93854l-11.02016,0.30545l-9.16576,-10.68989l14.99603,1.46831z" data-paper-data="{&quot;index&quot;:null}" fill="#c6c6c6" stroke="#c6c6c6" stroke-width="1.5" stroke-linecap="round"></path><path d="M206.73306,178.07816" fill="none" stroke="#d8d8d8" stroke-width="4" stroke-linecap="round"></path><path d="M221.91514,201.94441l-49.98405,-26.14824l1.80334,-3.44717l49.98405,26.14824z" fill="#7f7600" stroke="#000000" stroke-width="0" stroke-linecap="butt"></path><path d="M161.90265,169.13945c-1.11108,-2.11837 1.00334,-3.3094 1.00334,-3.3094l3.49796,-1.36268c3.03618,0.46719 5.82053,1.68957 8.87342,1.93182c1.26537,0.10042 2.79887,-0.59211 3.80367,0.18359c1.5459,1.19341 3.32891,3.12793 2.97345,5.04825c-0.29357,1.58593 -3.08418,1.14802 -4.31363,2.19196c-0.6475,0.54981 -0.36896,1.78869 -1.01871,2.33581c-0.48734,0.41038 -1.636,-0.44873 -1.90704,0.12785c-0.41853,0.89034 1.25803,2.31322 0.47779,2.9125c-5.25786,4.03849 -10.79105,-2.92543 -13.96885,-6.02902c0,0 -1.78813,-1.74716 -0.04097,-3.53528c0.20696,-0.21181 0.41447,-0.37402 0.61954,-0.4954z" fill="#ff0000" stroke="none" stroke-width="0.5" stroke-linecap="butt"></path></g><path d="" data-paper-data="{&quot;index&quot;:null}" fill="none" stroke="#000000" stroke-width="1.5" stroke-linecap="round"></path><path d="" data-paper-data="{&quot;index&quot;:null}" fill="none" stroke="#000000" stroke-width="1.5" stroke-linecap="round"></path><path d="M220.49519,180.69476c0,-21.81525 17.68475,-39.5 39.5,-39.5c21.81525,0 39.5,17.68475 39.5,39.5c0,21.81525 -17.68475,39.5 -39.5,39.5c-21.81525,0 -39.5,-17.68475 -39.5,-39.5z" fill="#d8d8d8" stroke="#000000" stroke-width="1.5" stroke-linecap="butt"></path><path d="M246.51675,197.3165c5.44898,-2.88817 27.57511,5.13694 27.57511,5.13694" data-paper-data="{&quot;index&quot;:null}" fill="none" stroke="#000000" stroke-width="1.5" stroke-linecap="round"></path><path d="M246.31865,168.12134l6.99536,1.82343v8" fill="none" stroke="#000000" stroke-width="1.5" stroke-linecap="round"></path><path d="M258.87633,178.50558l-0.24149,-8.93527l7.00332,-2.17344" fill="none" stroke="#000000" stroke-width="1.5" stroke-linecap="round"></path><path d="M259.60082,188.64832l16.42158,-6.52033" fill="none" stroke="#000000" stroke-width="1.5" stroke-linecap="round"></path><path d="M262.74024,182.61097l2.89793,5.55436" fill="none" stroke="#000000" stroke-width="1.5" stroke-linecap="round"></path><path d="M267.32862,180.43753l3.8639,7.7278" fill="none" stroke="#000000" stroke-width="1.5" stroke-linecap="round"></path></g></g></svg>