<svg version="1.1" xmlns="http://www.w3.org/2000/svg" xmlns:xlink="http://www.w3.org/1999/xlink" width="101.42649" height="86.12174" viewBox="0,0,101.42649,86.12174"><g transform="translate(-199.75,-139.64491)"><g data-paper-data="{&quot;isPaintingLayer&quot;:true}" fill="#c768ff" fill-rule="nonzero" stroke="#c768ff" stroke-linejoin="miter" stroke-miterlimit="10" stroke-dasharray="" stroke-dashoffset="0" style="mix-blend-mode: normal"><path d="" data-paper-data="{&quot;index&quot;:null}" stroke-width="1.5" stroke-linecap="round"></path><path d="M200.50001,180c0,-21.81525 17.68475,-39.5 39.5,-39.5c21.81525,0 39.5,17.68475 39.5,39.5c0,21.81525 -17.68475,39.5 -39.5,39.5c-21.81525,0 -39.5,-17.68475 -39.5,-39.5z" stroke-width="1.5" stroke-linecap="butt"></path><path d="M225.51006,194.79568c5.44898,-2.88817 27.57511,5.13694 27.57511,5.13694" data-paper-data="{&quot;index&quot;:null}" stroke-width="1.5" stroke-linecap="round"></path><path d="M250.89805,170.36202l6.93986,4.16391l-6.59286,1.38797l-3.29643,5.89888l-2.25545,-6.41937l-7.46035,-3.64343l7.11335,-2.08196l3.99042,-7.46035z" stroke-width="0" stroke-linecap="round"></path><path d="M221.68741,173.5245l10.7662,2.43108" stroke-width="1.5" stroke-linecap="round"></path><path d="M228.28605,174.56639l1.38919,-9.72431" stroke-width="1.5" stroke-linecap="round"></path><g stroke-linecap="round"><path d="M288.73201,200.19603l-5.82725,23.809l-2.79796,-0.57801l6.11344,-24.03683z" stroke-width="3"></path><path d="M282.39636,221.60434l5.13251,-19.98298l-2.52406,-7.57571l2.37147,-0.25138l2.86863,6.83386" stroke-width="3"></path><path d="M296.04296,177.07613l-11.44672,20.56769l-3.08415,-0.35018l12.30531,-21.25118z" stroke-width="3"></path><path d="M293.1508,168.157l1.83496,9.05942l-11.07298,19.56882" stroke-width="4.5"></path><path d="M298.1845,153.62964l0.63743,8.14248l-7.23678,4.12451l-8.56333,-2.53426l0.10442,-7.79792" stroke-width="4.5"></path><path d="M293.15747,177.26916l-2.77545,-9.94719" stroke-width="4.5"></path><g><path d="M294.69104,143.95103l0.54396,13.73741l-3.88589,4.32295l-5.59787,-4.10329l-0.58743,-13.48242l4.69431,-4.4475z" stroke-width="0.5"></path><path d="M293.26036,146.07504l0.38117,9.62618l-2.72295,3.02922l-3.92258,-2.87528l-0.41163,-9.4475l3.28943,-3.11648z" stroke-width="0"></path></g></g></g></g></svg>