<svg version="1.1" xmlns="http://www.w3.org/2000/svg" xmlns:xlink="http://www.w3.org/1999/xlink" width="138.99876" height="85.66263" viewBox="0,0,138.99876,85.66263"><g transform="translate(-202.93175,-82.19257)"><g data-paper-data="{&quot;isPaintingLayer&quot;:true}" fill-rule="nonzero" stroke-linejoin="miter" stroke-miterlimit="10" stroke-dasharray="" stroke-dashoffset="0" style="mix-blend-mode: normal"><path d="" data-paper-data="{&quot;index&quot;:null}" fill="none" stroke="#000000" stroke-width="1.5" stroke-linecap="round"></path><path d="" data-paper-data="{&quot;index&quot;:null}" fill="none" stroke="#000000" stroke-width="1.5" stroke-linecap="round"></path><path d="" data-paper-data="{&quot;index&quot;:null}" fill="none" stroke="#000000" stroke-width="1.5" stroke-linecap="round"></path><path d="M272.80447,96.00661" data-paper-data="{&quot;index&quot;:null}" fill="none" stroke="#d8d8d8" stroke-width="4" stroke-linecap="round"></path><g stroke="#000000" stroke-width="1.5"><path d="M250.02069,161.35376c-21.48642,3.77342 -41.96357,-10.58581 -45.73698,-32.07225c-3.77342,-21.48642 10.58581,-41.96357 32.07225,-45.73698c21.48642,-3.77342 41.96357,10.58581 45.73698,32.07225c3.77342,21.48642 -10.58581,41.96357 -32.07225,45.73698z" fill="#d8d8d8" stroke-linecap="butt"></path><path d="M218.39154,111.28363l17.9442,3.00796" fill="none" stroke-linecap="round"></path><path d="M232.46833,116.4575l1.43627,6.96901" fill="none" stroke-linecap="round"></path><path d="M240.63984,113.40271l9.80923,-7.03242" fill="none" stroke-linecap="round"></path><path d="M242.93992,114.40609l0.95185,6.62931" fill="none" stroke-linecap="round"></path><path d="M235.75935,140.56709c0,0 0.18995,-11.78986 2.94554,-12.22322c3.29508,-0.51821 8.77592,11.51846 8.77592,11.51846" fill="none" stroke-linecap="round"></path></g><path d="M325.59106,154.97354c0.85546,0.17936 1.70622,0.38454 2.56017,0.5722c0.43364,-0.36182 0.99172,-0.57952 1.60064,-0.57952c0.10723,0 0.21288,0.00675 0.31655,0.01985l4.93205,0.55604l-0.01175,0.10425l0.29487,-0.05572c0.08296,0.05197 0.16593,0.10393 0.24889,0.1559l0.02679,-0.07522l1.73891,0.6194l0.83017,0.15017c0.47405,0.07668 0.90344,0.28666 1.24847,0.59024l0.83775,0.29841c0.99665,0.3289 1.71594,1.26774 1.71594,2.37458c0,1.14128 -0.76476,2.10395 -1.80977,2.4035l-4.49683,1.40269c-0.01957,0.1429 -0.0514,0.27603 -0.09314,0.40001c0.16733,0.3355 0.26145,0.7139 0.26145,1.11429c0,1.36734 -1.09771,2.4783 -2.45996,2.49969l-4.02496,0.07366c-0.33339,0.1647 -0.7088,0.25724 -1.10582,0.25724c-0.18688,0 -0.36896,-0.0205 -0.54413,-0.05939l-0.36825,-0.07413c-2.39947,0.09848 -7.12808,-0.26599 -8.16534,-0.32585l-3.53061,-0.20502c-1.32131,-0.06655 -2.37216,-1.15895 -2.37216,-2.49679c0,-0.77127 0.34926,-1.46097 0.89826,-1.91956c0.41857,-0.50787 1.03371,-0.8477 1.72898,-0.90306c-0.43783,-0.09351 -0.8332,-0.30166 -1.15317,-0.59151c-3.50701,0.07638 -7.19362,0.03766 -10.26039,-0.75052l-4.96831,-0.34165c-1.31012,-0.07837 -2.34839,-1.16567 -2.34839,-2.49548c0,-0.07607 0.0034,-0.15134 0.01005,-0.22568l-0.10708,-0.00674c-1.31625,-0.07192 -2.36141,-1.16201 -2.36141,-2.49622c0,-1.33106 1.04024,-2.41916 2.35211,-2.4957l4.88376,-0.32769c0.30564,-0.02051 0.61127,-0.041 0.91691,-0.06148c-0.07729,-0.03009 -0.15414,-0.06063 -0.23053,-0.09163c-0.0042,-0.00171 -0.00841,-0.00341 -0.01261,-0.00512l-0.0005,0.00227l-4.83537,-1.06389c-1.14641,-0.22751 -2.01062,-1.23889 -2.01062,-2.45212c0,-1.35493 1.07788,-2.45811 2.42294,-2.49883l0.5551,-0.0195c-0.27043,-0.39941 -0.42838,-0.8812 -0.42838,-1.39987c0,-0.7366 0.31856,-1.39879 0.82543,-1.85632l-2.47046,-1.39875c-0.78071,-0.42293 -1.3109,-1.24937 -1.3109,-2.19964c0,-1.38071 1.11929,-2.5 2.5,-2.5c0.03897,0 0.07772,0.00089 0.11625,0.00266l4.08976,0.16465l-0.00066,0.01632l0.0549,-0.01355c1.43642,0.1202 2.8727,0.2594 4.30894,0.40683c-0.34676,-0.42915 -0.55441,-0.97536 -0.55441,-1.57006c0,-1.38071 1.11929,-2.5 2.5,-2.5h2.62151c0.26277,-0.00168 2.10068,-0.01344 4.0639,-0.02591c0.3555,-0.19426 0.76338,-0.30468 1.19704,-0.30468c0.01101,0 0.02201,0.00007 0.03299,0.00021l3.55535,0.04021l-0.00047,0.04135l0.10034,-0.03823c4.68259,0.42906 9.18272,0.45235 13.88301,0.45235c0,0 2.5,0 2.5,2.5c0,2.5 -2.5,2.5 -2.5,2.5c-1.8715,0 -3.71492,-0.00363 -5.55118,-0.03418c-0.00852,0.14227 -0.02893,0.28134 -0.06026,0.41622c1.24517,-0.03827 2.49067,-0.11113 3.73658,-0.22556c0,0 2.4896,-0.22781 2.71741,2.26179c0.19377,2.11758 -1.57843,2.59882 -2.11239,2.69536l-0.09972,1.89269l1.70225,0.18005c1.27092,0.11805 2.26585,1.18743 2.26585,2.48918c0,1.05471 -0.65314,1.95688 -1.57702,2.3241l-4.54995,1.92974c-1.95616,0.82915 -3.70513,1.80714 -5.47861,2.57109zM321.10074,161.96881l-0.00212,0.10107c1.0596,-0.0557 2.10427,-0.12735 3.14239,-0.21919c-0.95835,-0.06666 -1.91483,-0.17505 -2.86805,-0.31626l-0.00002,-0.00001v0.39213h-2.28716zM328.93918,144.18732c-0.13929,0.21913 -0.29172,0.41264 -0.45565,0.58304c0.02798,0.00585 0.05595,0.01178 0.08392,0.01779z" fill="#967343" stroke="none" stroke-width="0.5" stroke-linecap="butt"></path></g></g></svg>