<svg version="1.1" xmlns="http://www.w3.org/2000/svg" xmlns:xlink="http://www.w3.org/1999/xlink" width="198.74555" height="165.71725" viewBox="0,0,198.74555,165.71725"><g transform="translate(-80.49298,-52.70669)"><g data-paper-data="{&quot;isPaintingLayer&quot;:true}" fill-rule="nonzero" stroke-linejoin="miter" stroke-miterlimit="10" stroke-dasharray="" stroke-dashoffset="0" style="mix-blend-mode: normal"><path d="" data-paper-data="{&quot;index&quot;:null}" fill="none" stroke="#000000" stroke-width="1.5" stroke-linecap="round"></path><path d="M199.48853,178.17395c0,-21.81525 17.68475,-39.5 39.5,-39.5c21.81525,0 39.5,17.68475 39.5,39.5c0,21.81525 -17.68475,39.5 -39.5,39.5c-21.81525,0 -39.5,-17.68475 -39.5,-39.5z" fill="#d8d8d8" stroke="#000000" stroke-width="1.5" stroke-linecap="butt"></path><path d="M184.52581,194.65338" fill="none" stroke="#d8d8d8" stroke-width="4" stroke-linecap="round"></path><path d="M229.69475,162.57199v8" fill="none" stroke="#000000" stroke-width="1.5" stroke-linecap="round"></path><path d="M235.31499,168.26759c0,0 1.27486,-2.93117 2.69835,-2.93117c1.20746,0 3.02185,2.93117 3.02185,2.93117" fill="none" stroke="#000000" stroke-width="1.5" stroke-linecap="round"></path><path d="M238.43304,191.06637c0,2.42201 -1.3368,4.38543 -2.98583,4.38543c-1.64903,0 -2.98583,-1.96343 -2.98583,-4.38543c0,-2.42201 1.3368,-4.38543 2.98583,-4.38543c1.64903,0 2.98583,1.96343 2.98583,4.38543z" fill="none" stroke="#000000" stroke-width="1.5" stroke-linecap="butt"></path><g><path d="M101.56354,63.0846c0,0 4.76301,-8.9173 8.42182,-6.80392c3.65882,2.11337 -3.16733,9.78775 -3.16733,9.78775" fill="none" stroke="#ffee00" stroke-width="6.5" stroke-linecap="round"></path><g><path d="M153.84259,110.23046l-46.94501,-31.27782l2.15711,-3.23757l46.94501,31.27782z" fill="#7f7600" stroke="#000000" stroke-width="0" stroke-linecap="butt"></path><path d="M95.06419,77.69853c-3.63727,-2.38757 -4.65034,-7.27169 -2.26276,-10.90898c2.38757,-3.63727 7.27169,-4.65034 10.90898,-2.26276c3.63727,2.38757 4.65034,7.27169 2.26276,10.90898c-2.38757,3.63727 -7.27169,4.65034 -10.90898,2.26276z" fill="none" stroke="#ffee00" stroke-width="5" stroke-linecap="butt"></path><path d="M90.8709,69.36162c0,0 -8.9173,-4.76301 -6.80394,-8.42183c2.11338,-3.65884 9.78775,3.16733 9.78775,3.16733" fill="none" stroke="#ffee00" stroke-width="6.5" stroke-linecap="round"></path><path d="M108.64618,74.21682c0,0 8.9173,4.76301 6.80394,8.42184c-2.11338,3.65884 -9.78775,-3.16733 -9.78775,-3.16733" fill="none" stroke="#ffee00" stroke-width="6.5" stroke-linecap="round"></path><path d="M96.58933,79.72993c0,0 -4.76301,8.9173 -8.42183,6.80394c-3.65882,-2.11335 3.16731,-9.78772 3.16731,-9.78772" fill="none" stroke="#ffee00" stroke-width="6.5" stroke-linecap="round"></path></g></g></g></g></svg>