<svg version="1.1" xmlns="http://www.w3.org/2000/svg" xmlns:xlink="http://www.w3.org/1999/xlink" width="75.8899" height="78.96551" viewBox="0,0,75.8899,78.96551"><g transform="translate(-440.95239,-139.77958)"><g data-paper-data="{&quot;isPaintingLayer&quot;:true}" fill-rule="nonzero" stroke-linejoin="miter" stroke-miterlimit="10" stroke-dasharray="" stroke-dashoffset="0" style="mix-blend-mode: normal"><path d="" data-paper-data="{&quot;index&quot;:null}" fill="none" stroke="#000000" stroke-width="1.5" stroke-linecap="round"/><path d="M479.44381,150.04399c15.57647,0.13202 28.09662,12.8663 27.96461,28.44272c-0.13202,15.57647 -12.8663,28.09662 -28.44272,27.96461c-15.57647,-0.13202 -28.09662,-12.8663 -27.96461,-28.44272c0.13202,-15.57647 12.8663,-28.09662 28.44272,-27.96461z" fill="#000000" stroke="none" stroke-width="NaN" stroke-linecap="butt"/><path d="M492.70016,172.73253l24.14213,3.55527l-0.05073,5.9828l-24.20297,3.62409z" fill="#000000" stroke="none" stroke-width="0" stroke-linecap="butt"/><path d="M496.73878,185.98689l14.55712,19.58503l-4.26633,4.19462l-19.67672,-14.55149z" fill="#000000" stroke="none" stroke-width="0" stroke-linecap="butt"/><path d="M485.75739,194.60296l-3.55527,24.14213l-5.9828,-0.05073l-3.6241,-24.20298z" fill="#000000" stroke="none" stroke-width="0" stroke-linecap="butt"/><path d="M473.02268,193.80791l-19.58503,14.55712l-4.19464,-4.26634l14.55148,-19.67672z" fill="#000000" stroke="none" stroke-width="0" stroke-linecap="butt"/><path d="M465.09453,186.37079l-24.14214,-3.55526l0.05073,-5.9828l24.20298,-3.6241z" fill="#000000" stroke="none" stroke-width="0" stroke-linecap="butt"/><path d="M462.05496,174.27008l-14.55712,-19.58503l4.26633,-4.19462l19.67674,14.55147z" fill="#000000" stroke="none" stroke-width="0" stroke-linecap="butt"/><path d="M472.3845,163.92172l3.55526,-24.14214l5.9828,0.05073l3.6241,24.20297z" fill="#000000" stroke="none" stroke-width="0" stroke-linecap="butt"/><path d="M488.54789,161.58307l19.58503,-14.55712l4.19463,4.26634l-14.55148,19.67671z" fill="#000000" stroke="none" stroke-width="0" stroke-linecap="butt"/></g></g></svg>