<svg version="1.1" xmlns="http://www.w3.org/2000/svg" xmlns:xlink="http://www.w3.org/1999/xlink" width="138.60806" height="81.86084" viewBox="0,0,138.60806,81.86084"><g transform="translate(-202.93175,-82.52591)"><g data-paper-data="{&quot;isPaintingLayer&quot;:true}" fill-rule="nonzero" stroke-linejoin="miter" stroke-miterlimit="10" stroke-dasharray="" stroke-dashoffset="0" style="mix-blend-mode: normal"><path d="" data-paper-data="{&quot;index&quot;:null}" fill="none" stroke="#000000" stroke-width="1.5" stroke-linecap="round"></path><path d="" data-paper-data="{&quot;index&quot;:null}" fill="none" stroke="#000000" stroke-width="1.5" stroke-linecap="round"></path><path d="" data-paper-data="{&quot;index&quot;:null}" fill="none" stroke="#000000" stroke-width="1.5" stroke-linecap="round"></path><path d="M272.80447,96.33995" data-paper-data="{&quot;index&quot;:null}" fill="none" stroke="#d8d8d8" stroke-width="4" stroke-linecap="round"></path><g stroke="#000000" stroke-width="1.5"><path d="M250.02069,161.6871c-21.48642,3.77342 -41.96357,-10.58581 -45.73698,-32.07225c-3.77342,-21.48642 10.58581,-41.96357 32.07225,-45.73698c21.48642,-3.77342 41.96357,10.58581 45.73698,32.07225c3.77342,21.48642 -10.58581,41.96357 -32.07225,45.73698z" fill="#d8d8d8" stroke-linecap="butt"></path><path d="M236.33574,114.62493l-17.9442,-3.00796" fill="none" stroke-linecap="round"></path><path d="M233.9046,123.75985l-1.43627,-6.96901" fill="none" stroke-linecap="round"></path><path d="M240.63984,113.73605l9.80923,-7.03242" fill="none" stroke-linecap="round"></path><path d="M243.89177,121.36874l-0.95185,-6.62931" fill="none" stroke-linecap="round"></path><path d="M235.75935,140.90043c0,0 0.18995,-11.78986 2.94554,-12.22322c3.29508,-0.51821 8.77592,11.51846 8.77592,11.51846" fill="none" stroke-linecap="round"></path></g><path d="M329.15003,152.13437c0,-1.16481 0.79661,-2.14357 1.87476,-2.42118l0.04269,-0.01203l-1.28462,-0.57935c0.64433,-0.332 1.28865,-0.664 1.93298,-0.99599l-0.71409,-1.19717l0.05004,-0.02985l-0.91158,-0.70581c-0.60163,-0.45654 -0.99018,-1.17928 -0.99018,-1.99277c0,-0.0906 0.00482,-0.18008 0.01422,-0.26819c-0.44922,-0.18239 -0.83471,-0.44956 -1.11101,-0.86198c-0.47755,-0.71283 0.95276,-1.3891 1.65759,-2.11784l-2.78469,-1.21463c-0.9112,-0.3732 -1.55308,-1.26886 -1.55308,-2.31444c0,-0.28718 0.04842,-0.56305 0.13755,-0.81989c-0.39207,-0.44143 -0.6302,-1.02267 -0.6302,-1.65952c0,-1.24315 0.90736,-2.27437 2.09594,-2.46752c-0.18486,-0.34884 -0.28956,-0.74667 -0.28956,-1.16896c0,-0.6513 0.24905,-1.24442 0.65712,-1.68934c0.01946,-1.36394 1.13118,-2.46362 2.49974,-2.46362c0.08223,0 0.16353,0.00397 0.24372,0.01173l3.23194,0.27754l-0.00238,0.02769l0.07346,-0.02057c1.67331,0.24027 3.34663,0.48054 5.01994,0.72082c0,0 2.47455,0.35583 2.11872,2.83038c-0.35583,2.47455 -2.83038,2.11872 -2.83038,2.11872c-0.52279,-0.07528 -1.04557,-0.15057 -1.56836,-0.22585c0.20301,0.36143 0.31878,0.77845 0.31878,1.2225c0,0.28632 -0.04813,0.56141 -0.13675,0.8176c0.48836,0.45628 0.79363,1.10605 0.79363,1.82712c0,1.25035 -0.91791,2.28631 -2.11663,2.47079c-0.04155,0.22006 -0.23512,0.42963 -0.50101,0.63125l2.98787,0.54683c1.18713,0.19437 2.093,1.22491 2.093,2.46704c0,0.84607 -0.42029,1.59397 -1.06347,2.04632c0.3566,0.43214 0.57081,0.98613 0.57081,1.59015c0,0.92905 -0.50677,1.73974 -1.25897,2.17071l-0.53033,0.31633c0.34657,0.26906 0.62046,0.62729 0.78724,1.04026c1.0311,0.0162 1.9519,0.82993 2.371,3.34607c0.14895,0.89426 -0.24813,1.67998 -0.83552,2.42786c1.10599,0.25798 1.92985,1.25013 1.92985,2.43469c0,0.87865 -0.45328,1.65143 -1.13876,2.09726l-0.52101,0.34962c-0.04425,0.37244 -0.17037,0.71977 -0.35986,1.02348c-0.20462,1.01857 -1.02828,1.81325 -2.06176,1.97481l-3.68749,0.64552c-0.15495,0.03005 -0.315,0.04579 -0.47873,0.04579c-1.30967,0 -2.38413,-1.00707 -2.49123,-2.28908c-0.41311,-0.44593 -0.66563,-1.04276 -0.66563,-1.69857c0,-0.56795 0.18939,-1.09167 0.50846,-1.51144l-0.14718,-0.04389c-1.06007,-0.28977 -1.83923,-1.25977 -1.83923,-2.41175c0,-1.02515 0.61704,-1.90619 1.49998,-2.29197c-0.6114,-0.45575 -1.00734,-1.18448 -1.00734,-2.00568z" fill="#967343" stroke="none" stroke-width="0.5" stroke-linecap="butt"></path></g></g></svg>