<svg version="1.1" xmlns="http://www.w3.org/2000/svg" xmlns:xlink="http://www.w3.org/1999/xlink" width="165.92924" height="80.5" viewBox="0,0,165.92924,80.5"><g transform="translate(-244.7535,-161.83385)"><g data-paper-data="{&quot;isPaintingLayer&quot;:true}" fill-rule="nonzero" stroke-linejoin="miter" stroke-miterlimit="10" stroke-dasharray="" stroke-dashoffset="0" style="mix-blend-mode: normal"><path d="" data-paper-data="{&quot;index&quot;:null}" fill="none" stroke="#000000" stroke-width="1.5" stroke-linecap="round"></path><path d="" data-paper-data="{&quot;index&quot;:null}" fill="none" stroke="#000000" stroke-width="1.5" stroke-linecap="round"></path><path d="" data-paper-data="{&quot;index&quot;:null}" fill="none" stroke="#000000" stroke-width="1.5" stroke-linecap="round"></path><path d="" data-paper-data="{&quot;index&quot;:null}" fill="none" stroke="#000000" stroke-width="1.5" stroke-linecap="round"></path><g><path d="M357.05589,240.20132" fill="none" stroke="#d8d8d8" stroke-width="4" stroke-linecap="round"></path><path d="M330.93274,202.08385c0,-21.81525 17.68475,-39.5 39.5,-39.5c21.81525,0 39.5,17.68475 39.5,39.5c0,21.81525 -17.68475,39.5 -39.5,39.5c-21.81525,0 -39.5,-17.68475 -39.5,-39.5z" fill="#d8d8d8" stroke="#000000" stroke-width="1.5" stroke-linecap="butt"></path><path d="M383.51794,216.25244c0,0 -22.12613,8.02511 -27.57511,5.13694" data-paper-data="{&quot;index&quot;:null}" fill="none" stroke="#000000" stroke-width="1.5" stroke-linecap="round"></path><path d="M340.39641,173.68209l30.4778,11.59453l29.86751,-10.0822c0,0 4.11377,7.78425 5.23491,11.63853c1.0766,3.70117 2.71517,10.48332 2.71517,10.48332l-37.8176,16.19051l-40.59597,-17.86909c0,0 1.86631,-6.82746 3.08968,-10.37897c1.31662,-3.8222 7.02849,-11.57662 7.02849,-11.57662z" fill="#595959" stroke="#000000" stroke-width="0.5" stroke-linecap="round"></path><path d="M366.1149,195.80015c5.0094,5.46296 -2.672,2.95529 -7.16196,2.95529c-4.48996,0 -8.12978,-8.86587 -8.12978,-8.86587c0,0 10.28234,0.44762 15.29174,5.91058z" fill="#ffffff" stroke="none" stroke-width="0" stroke-linecap="butt"></path><path d="M390.194,189.94726c0,0 -3.63983,8.86587 -8.12978,8.86587c-4.48996,0 -12.17135,2.50768 -7.16195,-2.95529c5.0094,-5.46296 15.29173,-5.91058 15.29173,-5.91058z" data-paper-data="{&quot;index&quot;:null}" fill="#ffffff" stroke="none" stroke-width="0" stroke-linecap="butt"></path><g fill="none" stroke-linecap="round"><path d="M326.20793,207.27133c27.59917,3.91398 -9.88232,6.68202 -9.88232,6.68202" stroke="#ff0000" stroke-width="3.5"></path><path d="M336.85474,210.54298c-0.10025,6.44998 -10.39847,10.02189 -19.32214,8.83975" stroke="#ff0000" stroke-width="3.5"></path><g><path d="M328.81956,207.44411c0,0 -44.57587,1.76196 -72.17505,-2.15203c-27.59917,-3.91398 9.88232,-6.68202 9.88232,-6.68202" stroke="#ff0000" stroke-width="3.5"></path><path d="M286.21645,207.5929l-13.44231,-0.48165" stroke="#d8d8d8" stroke-width="4"></path><path d="M246.77239,200.44409c0.10025,-6.44998 10.39847,-10.02189 19.32214,-8.83975" stroke="#ff0000" stroke-width="3.5"></path></g></g></g></g></g></svg>