<svg version="1.1" xmlns="http://www.w3.org/2000/svg" xmlns:xlink="http://www.w3.org/1999/xlink" width="1007.86254" height="374.66733" viewBox="0,0,1007.86254,374.66733"><g transform="translate(23.18052,7.33367)"><g stroke-miterlimit="10"><path d="M-23.18052,367.33366v-374.66733h1007.86254v374.66733z" fill="#888888" stroke="none" stroke-width="0" stroke-linecap="butt"/><path d="" fill="none" stroke="#000000" stroke-width="1.5" stroke-linecap="round"/><path d="" fill="none" stroke="#000000" stroke-width="1.5" stroke-linecap="round"/><path d="" fill="none" stroke="#000000" stroke-width="1.5" stroke-linecap="round"/><path d="" fill="none" stroke="#000000" stroke-width="1.5" stroke-linecap="round"/><path d="" fill="none" stroke="#000000" stroke-width="1.5" stroke-linecap="round"/><path d="M559.09515,206.33008" fill="none" stroke="#d8d8d8" stroke-width="4" stroke-linecap="round"/><path d="M529.92393,195.47557" fill="none" stroke="#d8d8d8" stroke-width="4" stroke-linecap="round"/><path d="M529.92393,195.47557" fill="none" stroke="#d8d8d8" stroke-width="4" stroke-linecap="round"/><path d="M486.59617,255.87341" fill="none" stroke="#d8d8d8" stroke-width="4" stroke-linecap="round"/><path d="M437.40988,237.57135" fill="none" stroke="#d8d8d8" stroke-width="4" stroke-linecap="round"/><path d="M437.40988,237.57135" fill="none" stroke="#d8d8d8" stroke-width="4" stroke-linecap="round"/><path d="M353.23186,278.07954c-36.78325,0 -66.60193,-29.8187 -66.60193,-66.60193c0,-36.78325 29.8187,-66.60193 66.60193,-66.60193c36.78325,0 66.60193,29.8187 66.60193,66.60193c0,36.78325 -29.8187,66.60193 -66.60193,66.60193z" fill="#d8d8d8" stroke="#000000" stroke-width="1.5" stroke-linecap="butt"/><g><path d="M300.54213,262.10342l0.12297,-88.15508l45.03701,-27.47764l31.52964,-1.26749l42.57045,23.46838l1.84154,109.08039l-51.05199,-14.57522l-1.30975,-39.51567l-10.35233,-4.99585l-7.98967,4.5513l0.91476,37.65828l-51.72634,15.19151z" fill="#c3c3c3" stroke="#000000" stroke-width="2" stroke-linecap="round"/><path d="M308.06985,208.9757l-0.41194,-19.21956l44.72123,5.19454l0.44488,20.75714z" fill="#c20000" stroke="none" stroke-width="0" stroke-linecap="butt"/><path d="M370.54814,215.73118l-0.47402,-20.75647l44.44756,-7.16836l0.43891,19.21896z" fill="#c20000" stroke="none" stroke-width="0" stroke-linecap="butt"/></g><g stroke="#000000" stroke-linecap="butt"><path d="M664.71442,315.62001c0,0 -3.34835,-5.1174 -6.50995,-5.58606c-1.85549,-0.27505 4.1151,-14.07583 0.82742,-15.65301c-7.74166,-3.71385 -26.08026,3.17273 -26.08026,3.17273l2.03078,-13.69973c0,0 29.45892,-3.02247 40.51495,8.78996c2.13685,2.283 -5.37928,17.80818 -5.37928,17.80818z" fill="#a7a7a7" stroke-width="0"/><path d="M637.53281,269.55586c0,0 0.84408,12.93566 3.8761,13.38512c4.68537,0.69452 18.39247,2.72641 24.07352,3.56856c-1.15062,1.89472 -1.94426,4.04888 -2.27483,6.3827c-0.35825,2.52929 -0.13545,5.00696 0.56695,7.29786c-6.92051,0.40618 -27.80264,0.78104 -36.5828,-8.59973c-2.04928,-2.18944 5.15882,-17.07831 5.15882,-17.07831l5.18226,-4.95616z" fill="#919191" stroke-width="1"/><path d="M663.01623,287.69957l64.83464,11.15149c0,0 4.67601,1.71939 4.4471,3.33569c-0.25735,1.8166 -4.85287,3.0023 -4.85287,3.0023l-65.89758,-7.12044z" fill="#d2d2d2" stroke-width="0.5"/></g><g stroke="#5eff00" stroke-width="4.5"><path d="M387.92517,145.24468c0,6.34589 -14.3808,11.49024 -32.12043,11.49024c-17.73963,0 -32.12043,-5.14436 -32.12043,-11.49024c0,-6.34588 14.38082,-11.49023 32.12044,-11.49023c17.73963,0 32.12043,5.14434 32.12043,11.49023z" fill="none" stroke-linecap="butt"/><g><g><path d="M353.05383,164.48723v-6.20038h2.99328v6.20038z" fill="none" stroke-linecap="butt"/><path d="M360.70339,164.58226l-5.22255,5.46499l-6.11595,-5.6355z" fill="#5eff00" stroke-linecap="round"/></g><g><path d="M376.67689,161.6033l-2.14731,-5.81668l2.80805,-1.03664l2.14731,5.81668z" fill="none" stroke-linecap="butt"/><path d="M383.88598,159.04326l-3.00674,6.93549l-7.68915,-3.1687z" fill="#5eff00" stroke-linecap="round"/></g><g><path d="M395.81031,147.48493l-6.16907,-0.62224l0.3004,-2.97818l6.16907,0.62224z" fill="none" stroke-linecap="butt"/><path d="M396.67253,139.88353l4.91329,5.74463l-6.22083,5.51951z" fill="#5eff00" stroke-linecap="round"/></g><g><path d="M356.77331,126.07198v6.20038h-2.99328v-6.20038z" fill="none" stroke-linecap="butt"/><path d="M350.09108,126.14747l6.11595,-5.6355l5.22255,5.46499z" fill="#5eff00" stroke-linecap="round"/></g><g><path d="M380.21115,129.99253l-2.14731,5.81668l-2.80805,-1.03664l2.14731,-5.81666z" fill="none" stroke-linecap="butt"/><path d="M373.91629,127.74916l7.68915,-3.1687l3.00675,6.93547z" fill="#5eff00" stroke-linecap="round"/></g><g><path d="M331.02013,160.65145l2.14731,-5.81668l2.80805,1.03664l-2.14731,5.81668z" fill="none" stroke-linecap="butt"/><path d="M337.31498,162.89482l-7.68915,3.1687l-3.00675,-6.93549z" fill="#5eff00" stroke-linecap="round"/></g><g><path d="M314.39437,144.59153l6.16907,-0.62224l0.3004,2.97818l-6.16907,0.62224z" fill="none" stroke-linecap="butt"/><path d="M315.14008,151.23245l-6.22083,-5.51951l4.91329,-5.74463z" fill="#5eff00" stroke-linecap="round"/></g><g><path d="M333.10199,129.04067l2.14731,5.81668l-2.80805,1.03663l-2.14731,-5.81666z" fill="none" stroke-linecap="butt"/><path d="M325.89291,131.60072l3.00675,-6.93549l7.68915,3.1687z" fill="#5eff00" stroke-linecap="round"/></g></g></g><path d="M262.31404,213.71482c-5.70229,-0.64726 -9.8002,-5.79459 -9.15295,-11.49687c0.64726,-5.70229 5.79459,-9.8002 11.49687,-9.15295c5.70229,0.64726 9.8002,5.79459 9.15295,11.49687c-0.64726,5.70229 -5.79459,9.8002 -11.49687,9.15295z" fill="#d8d8d8" stroke="#000000" stroke-width="1.5" stroke-linecap="butt"/><g><path d="M301.72171,123.42819l22.12855,-53.18362c0,0 18.01086,17.89239 30.95659,23.27883c7.61628,3.16896 23.24546,0.13197 36.07653,3.41337c18.52592,4.7378 33.95243,15.3257 33.95243,15.3257l-22.12855,53.18362c0,0 -12.68308,-11.31784 -30.33355,-16.05037c-14.71146,-3.94451 -33.91391,-1.02587 -42.38045,-4.54862c-12.81062,-5.3302 -28.27155,-21.41889 -28.27155,-21.41889z" fill="#139c0e" stroke="#000000" stroke-width="0.5" stroke-linecap="butt"/><path d="M260.64993,244.69093l-18.36643,14.26092l-2.82961,-23.08014z" fill="#ffee00" stroke="#000000" stroke-width="0.5" stroke-linecap="round"/><path d="M246.86718,238.68718l70.73234,-169.99765l7.28111,3.0295l-70.73234,169.99765z" fill="#d3d3d3" stroke="#000000" stroke-width="0.5" stroke-linecap="butt"/><path d="M305.42441,104.03877c-0.01258,-0.04355 -0.02577,-0.09204 -0.03892,-0.14497c-0.0406,0.02473 -0.08108,0.04952 -0.12143,0.07431c0.0543,0.02728 0.1075,0.05601 0.15954,0.0861c0.00027,-0.00516 0.00057,-0.01029 0.00084,-0.01543zM311.21133,101.93844l0.3091,1.3941c0.56595,0.52558 1.00027,1.35422 0.80218,2.64724c-0.09824,0.64128 -0.31071,1.12702 -0.58501,1.49428c0.59967,4.96945 1.39016,9.91517 1.47041,14.77835c0.11188,0.69893 0.12952,1.39623 -0.0119,2.08583c-0.00931,0.31754 -0.02224,0.63466 -0.03902,0.9514l0.0835,0.25199l0.99128,-0.04963l0.19703,3.9356c0.03335,0.46465 -0.03844,0.94392 -0.22959,1.40334c-0.5127,1.2322 -1.73195,1.95599 -2.99229,1.89693c-0.11488,0.41416 -0.2408,0.82697 -0.37851,1.23845l0.90324,0.26328l-0.85638,2.93782c-0.03396,0.12254 -0.07586,0.24431 -0.12596,0.36473c-0.65438,1.57273 -2.45978,2.31719 -4.03252,1.66281c-0.42577,-0.17717 -0.79082,-0.43867 -1.08389,-0.75708c1.46607,5.50922 2.05573,11.20442 -3.01193,13.06361c-2.07264,0.76041 -4.13333,-1.83127 -5.67979,-3.40686c-2.11359,-2.15339 -3.10392,-8.04137 -2.67141,-13.03802c-5.23689,5.3403 -12.08959,10.5147 -18.06954,4.38511c-0.71352,-0.73138 -0.50514,-1.73103 0.02884,-2.772c-0.18763,-0.64985 -0.16379,-1.36551 0.11627,-2.0386c0.10033,-0.24112 0.22769,-0.46278 0.37717,-0.66291l3.54673,-4.9645l0.10795,0.0771l0.19333,-0.43736c0.57522,-0.43822 1.15009,-0.88319 1.72499,-1.33321c-0.1487,-0.03708 -0.29646,-0.08574 -0.44225,-0.1464c-1.57273,-0.65438 -2.31719,-2.45978 -1.66281,-4.03252c0.18849,-0.45303 0.4725,-0.83732 0.81891,-1.13925l2.46404,-2.24417c0.68606,-0.62483 1.53425,-1.47556 2.50066,-2.41888c-0.47728,-8.62645 13.72427,-17.58995 20.08667,-20.8487c0,0 2.7486,-1.39934 4.14796,1.34924c0.60809,1.1944 0.43292,2.13403 0.04037,2.81477c0.66281,0.56827 0.96212,1.29412 0.96212,1.29412z" fill="#606060" stroke="none" stroke-width="0.5" stroke-linecap="butt"/><path d="M363.14339,142.06948l-16.60016,-40.25729l11.72849,-4.83627l16.60016,40.25729z" fill="#b8b8b8" stroke="none" stroke-width="0" stroke-linecap="butt"/><path d="M316.64885,68.17655l11.87675,-16.96114l-3.66005,20.37994z" fill="#000000" stroke="#000000" stroke-width="0.5" stroke-linecap="round"/><path d="M338.34222,122.39855l40.25729,-16.60016l4.83627,11.72849l-40.25727,16.60015z" fill="#b8b8b8" stroke="none" stroke-width="0" stroke-linecap="butt"/><text transform="translate(332.45512,122.75342) rotate(22.59121) scale(0.88454,0.88454)" font-size="40" xml:space="preserve" fill="#000000" stroke="none" stroke-width="1" stroke-linecap="butt" font-family="Pixel" font-weight="normal" text-anchor="start"><tspan x="0" dy="0">BB</tspan></text><path d="M337.02291,93.88463l-11.7961,-12.70696" fill="none" stroke="#54ff00" stroke-width="3.5" stroke-linecap="round"/><path d="M310.1878,123.57027l18.4628,0.2545" fill="none" stroke="#54ff00" stroke-width="3.5" stroke-linecap="round"/><path d="M417.10821,113.83693l-21.60081,1.03946" fill="none" stroke="#54ff00" stroke-width="3.5" stroke-linecap="round"/><path d="M383.22998,141.70618l16.51695,12.07158" fill="none" stroke="#54ff00" stroke-width="3.5" stroke-linecap="round"/></g></g></g></svg>