<svg version="1.1" xmlns="http://www.w3.org/2000/svg" xmlns:xlink="http://www.w3.org/1999/xlink" width="97.14627" height="85.45499" viewBox="0,0,97.14627,85.45499"><g transform="translate(-439.74426,-139.73441)"><g stroke-miterlimit="10"><path d="" fill="none" stroke="#000000" stroke-width="1.5" stroke-linecap="round"/><g><path d="M446.07287,159.76236c11.17168,-18.73763 35.41797,-24.87103 54.15559,-13.69935c18.73763,11.17168 24.87103,35.41797 13.69935,54.15559c-11.17168,18.73763 -35.41797,24.87103 -54.15559,13.69935c-18.73763,-11.17168 -24.87103,-35.41797 -13.69935,-54.15559z" fill="#ffffff" stroke="#000000" stroke-width="1.5" stroke-linecap="butt"/><path d="M467.71527,142.79867l46.48115,54.41918" fill="none" stroke="#000000" stroke-width="1.5" stroke-linecap="round"/><path d="M516.81852,192.81997l-41.62321,-50.569" fill="none" stroke="#000000" stroke-width="1.5" stroke-linecap="round"/><path d="M518.41564,186.1418l-37.70922,-45.13556" fill="none" stroke="#000000" stroke-width="1.5" stroke-linecap="round"/><path d="M480.36733,157.97243l-31.16155,-2.12602" fill="none" stroke="#000000" stroke-width="1.5" stroke-linecap="round"/><path d="M447.04038,160.27816l35.48177,2.07887" fill="none" stroke="#000000" stroke-width="1.5" stroke-linecap="round"/><path d="M453.30291,151.37414l21.42846,0.85353" fill="none" stroke="#000000" stroke-width="1.5" stroke-linecap="round"/><path d="M497.79688,160.73383l15.84299,0.62323" fill="none" stroke="#000000" stroke-width="1.5" stroke-linecap="round"/><path d="M512.08381,157.56791l-17.03721,-0.6199" fill="none" stroke="#000000" stroke-width="1.5" stroke-linecap="round"/><path d="M507.29025,151.61008l-17.1421,-0.44398" fill="none" stroke="#000000" stroke-width="1.5" stroke-linecap="round"/><path d="M468.08706,150.17383l-5.00333,-5.60602" fill="none" stroke="#000000" stroke-width="1.5" stroke-linecap="round"/><path d="M476.27019,162.44468l35.83186,39.48572" fill="none" stroke="#000000" stroke-width="1.5" stroke-linecap="round"/><path d="M518.46671,179.25721l-14.93896,-16.53724" fill="none" stroke="#000000" stroke-width="1.5" stroke-linecap="round"/><path d="M485.80133,141.65941l8.3152,9.24976" fill="none" stroke="#000000" stroke-width="1.5" stroke-linecap="round"/><path d="M498.08491,150.65223l-6.66093,-8.02501" fill="none" stroke="#000000" stroke-width="1.5" stroke-linecap="round"/><path d="M508.75806,161.5463l9.19812,10.9684" fill="none" stroke="#000000" stroke-width="1.5" stroke-linecap="round"/><path d="M511.05323,203.68957l-64.99397,-42.56569" fill="none" stroke="#000000" stroke-width="1.5" stroke-linecap="round"/><path d="M445.12195,165.09557l63.93515,40.74215" fill="none" stroke="#000000" stroke-width="1.5" stroke-linecap="round"/><path d="M504.46274,208.34437l-62.20984,-39.23659" fill="none" stroke="#000000" stroke-width="1.5" stroke-linecap="round"/><path d="M441.81281,175.0451l59.18541,37.91028" fill="none" stroke="#000000" stroke-width="1.5" stroke-linecap="round"/><path d="M496.54596,216.02363l-54.84857,-31.98628" fill="none" stroke="#000000" stroke-width="1.5" stroke-linecap="round"/><path d="M488.15583,217.69788l-44.74701,-24.53287" fill="none" stroke="#000000" stroke-width="1.5" stroke-linecap="round"/><path d="M446.41601,200.91918l33.31247,17.71542" fill="none" stroke="#000000" stroke-width="1.5" stroke-linecap="round"/><path d="M512.30446,203.49333l-65.28325,-42.48295l29.10485,1.83078z" fill-opacity="0.39608" fill="#15ff15" stroke="none" stroke-width="0" stroke-linecap="round"/><path d="M474.57896,170.04433c-1.38925,2.33011 -4.5516,6.13575 -4.5516,6.13575l-3.03987,-2.1319c0,0 1.83495,-4.43788 3.15368,-6.64973c0.91767,-1.53915 3.15979,-4.61318 3.15979,-4.61318l2.58848,-0.50102l1.35378,2.65303c0,0 -1.78095,3.62546 -2.6643,5.10703z" fill-opacity="0.39608" fill="#005200" stroke="none" stroke-width="0" stroke-linecap="butt"/><path d="M483.91421,176.1923c-1.38925,2.33011 -4.5516,6.13575 -4.5516,6.13575l-3.03986,-2.13189c0,0 1.83495,-4.43789 3.15368,-6.64973c0.91767,-1.53915 2.56234,-3.6111 2.56234,-3.6111l3.17411,3.4404c0,0 -0.41534,1.33499 -1.29868,2.81657z" fill-opacity="0.39608" fill="#005200" stroke="none" stroke-width="0" stroke-linecap="butt"/></g><g stroke-linecap="butt"><path d="M535.52064,209.2166c-0.68369,0.077 -1.51251,-2.29923 -1.85124,-5.30745c-0.33873,-3.00822 -0.05908,-5.50925 0.62461,-5.58622c0.68369,-0.077 1.51251,2.29923 1.85124,5.30745c0.33873,3.00822 0.05908,5.50925 -0.62461,5.58622z" fill="#daffff" stroke="#000000" stroke-width="1.5"/><path d="M515.76243,200.74386l17.82602,-2.00717c0,0 0.15744,3.16457 0.24144,4.85328c0.05584,1.12223 0.56466,2.85107 0.95429,4.0322c0.25049,0.75926 0.4517,1.29221 0.4517,1.29221l-18.28401,2.39307c0,0 -15.09069,13.60006 -15.57193,13.1195c-3.6795,-3.67415 -4.77566,-33.50682 -4.93031,-34.88035c-0.05624,-0.49955 19.31281,11.19727 19.31281,11.19727z" fill="#ffffff" stroke="#000000" stroke-width="1.5"/><path d="M508.59629,198.16525c-0.01236,0.04496 -0.02597,0.08774 -0.0407,0.12847c0.17339,1.20878 0.32599,2.42136 1.10932,3.44514c0.53933,0.70488 1.6995,0.95836 1.95408,1.80859c0.71562,2.38998 -2.25357,2.57146 -2.53613,4.44293c-0.25292,1.67517 1.2552,2.98656 1.53599,4.42462c0.21387,1.0953 -0.56254,3.43815 -0.91328,4.51488c-0.77471,2.37824 -2.21912,2.07725 -3.90677,3.51235c-1.25821,1.06993 -2.39381,2.50907 -3.62342,3.62643c-0.74446,-0.45942 -3.16298,-6.7391 -3.40511,-8.87543c-0.63012,-5.55973 -0.64577,-11.6729 -1.27262,-17.24014c-0.18246,-1.62044 -1.757,-5.19377 -0.92223,-6.70011c0.43463,-0.78432 0.88534,0.27007 1.58378,-0.29226c3.42616,1.70641 6.17684,3.29903 9.13328,5.66328c0.09904,-0.00113 0.18995,0.00832 0.27336,0.02625l0.1721,0.00539c0,0 1.184,0.32561 0.85839,1.5096z" fill="#01ff00" stroke="none" stroke-width="0.5"/></g></g></g></svg>