<svg version="1.1" xmlns="http://www.w3.org/2000/svg" xmlns:xlink="http://www.w3.org/1999/xlink" width="600.8812" height="464.77035" viewBox="0,0,600.8812,464.77035"><g transform="translate(60.4406,46.86681)"><g data-paper-data="{&quot;isPaintingLayer&quot;:true}" fill-rule="nonzero" stroke-linejoin="miter" stroke-miterlimit="10" stroke-dasharray="" stroke-dashoffset="0" style="mix-blend-mode: normal"><path d="M-60.4406,406.86686v-453.73367h600.8812v453.73367z" fill="#000000" stroke="none" stroke-width="NaN" stroke-linecap="butt"></path><g><path d="M105.52809,248.78085c-32.03252,0 -58,-25.96748 -58,-58c0,-32.03252 25.96748,-58 58,-58c32.03252,0 58,25.96748 58,58c0,32.03252 -25.96748,58 -58,58z" data-paper-data="{&quot;index&quot;:null}" fill="#d8d8d8" stroke="#000000" stroke-width="1.5" stroke-linecap="butt"></path><path d="M115.43545,185.20545v-11.74684l13.21519,-1.46836" data-paper-data="{&quot;index&quot;:null}" fill="none" stroke="#000000" stroke-width="1.5" stroke-linecap="round"></path><path d="M86.16719,172.70276l13.21519,1.46836v11.74684" data-paper-data="{&quot;index&quot;:null}" fill="none" stroke="#000000" stroke-width="1.5" stroke-linecap="round"></path><path d="M133.03709,196.76658v18.05367l-46.06797,-0.60179z" data-paper-data="{&quot;index&quot;:null}" fill="#ffffff" stroke="#000000" stroke-width="1.5" stroke-linecap="round"></path><path d="M124.32153,214.82025l-0.62253,-14.94096" data-paper-data="{&quot;index&quot;:null}" fill="none" stroke="#000000" stroke-width="1.5" stroke-linecap="round"></path><path d="M111.24818,205.48215v8.71556" data-paper-data="{&quot;index&quot;:null}" fill="none" stroke="#000000" stroke-width="1.5" stroke-linecap="round"></path><g data-paper-data="{&quot;index&quot;:null}" stroke="none" stroke-linecap="butt"><path d="M193.05664,191.46487l-0.10459,-5.27743l48.81592,-0.96754l0.10459,5.27742z" fill="#606060" stroke-width="0"></path><path d="M198.05107,199.28508l-0.20049,-10.11499l6.59676,-0.13075l0.20049,10.11499z" fill="#606060" stroke-width="0"></path><path d="M256.5076,203.84587c0.03414,1.72338 -28.85548,1.46917 -28.85548,1.46917l0.14482,7.53126l-75.65214,1.49944l-0.36898,-18.61528l104.52986,-2.07178c0,0 0.13779,6.95229 0.20193,10.18721z" fill="#969696" stroke-width="NaN"></path><path d="M125.11039,230.80278c0,0 15.68232,-8.5889 20.38576,-14.42207c3.95178,-4.90096 5.97458,-18.26984 5.97458,-18.26984l11.54829,4.79317l-10.4584,35.89639z" fill="#606060" stroke-width="0"></path><path d="M195.21277,233.6579l-0.47939,-24.18807l10.115,-0.20049l0.47939,24.18807z" fill="#606060" stroke-width="0"></path><path d="M181.10871,210.17981l-0.30276,-15.2767l9.67522,-0.19177l0.30276,15.2767z" fill="#00fffe" stroke-width="0"></path><path d="M167.12483,210.36601l-0.30276,-15.2767l9.67522,-0.19177l0.30276,15.2767z" fill="#00fffe" stroke-width="0"></path><path d="M194.04944,210.18137l-0.30276,-15.2767l9.67522,-0.19177l0.30276,15.2767z" fill="#00fffe" stroke-width="0"></path></g><path d="M147.29106,231.09729c-6.66483,0 -12.06774,-5.40292 -12.06774,-12.06775c0,-6.66483 5.40292,-12.06774 12.06774,-12.06774c6.66483,0 12.06774,5.40291 12.06774,12.06774c0,6.66484 -5.40291,12.06775 -12.06774,12.06775z" data-paper-data="{&quot;index&quot;:null}" fill="#d8d8d8" stroke="#000000" stroke-width="1" stroke-linecap="butt"></path></g><path d="M278.00916,124.09083c-1.75,0 -1.75,-1.75 -1.75,-1.75l0.01211,-0.25935c-0.01637,-0.13838 -0.03273,-0.27675 -0.04908,-0.41513c-0.03296,8.23371 -0.19537,16.46368 -0.49419,24.68136l-0.12645,3.47754c-0.02949,0.94065 -0.80132,1.69414 -1.74913,1.69414c-0.7884,0 -1.45503,-0.52135 -1.67394,-1.2381l-1.08764,-3.28429c-0.39671,-0.79055 -0.69389,-1.62479 -0.81356,-2.52768c-0.75561,-5.70065 -0.02232,-12.02282 -0.02232,-17.77863c0,-15.16667 0,-30.33333 0,-45.5c0,-4.33454 0.0866,-8.66799 0.2248,-13.00069c-0.22628,-2.48481 -0.44506,-4.97011 -0.65553,-7.45589c-0.87469,-10.33057 -1.74937,-20.66114 -2.62406,-30.99171c-0.29971,2.71785 -0.61134,5.43225 -0.89326,8.13976c0.27872,8.57106 0.69576,17.14087 1.01092,25.70603c0.72779,19.779 1.08355,39.53569 1.32935,59.32627l0.0272,2.19036c0.00012,0.00844 0.00018,0.01689 0.00018,0.02536c0,0.9665 -0.7835,1.75 -1.75,1.75c-0.64313,0 -1.20524,-0.34693 -1.50938,-0.86385l-1.80935,-2.95944c-0.91242,-1.05814 -1.67747,-2.20512 -2.01845,-3.42945c-0.08467,-0.30404 -0.02866,-6.9111 -0.02553,-7.47905c0.0193,-3.49995 0.0386,-6.99989 0.05791,-10.49984c0.0293,-5.31232 0.05859,-10.62465 0.08789,-15.93697c-1.31037,13.78795 -2.30801,27.33191 -2.44849,41.19077c-0.07343,7.24408 0.58503,14.96621 -0.35553,22.2537c0.03113,0.7466 0.05099,1.49461 0.05693,2.24454l0.05028,0.00051l-0.03545,3.49758c-0.00832,0.95936 -0.78861,1.7345 -1.74993,1.7345c-0.96438,0 -1.74656,-0.78007 -1.74999,-1.74364l-0.01366,-3.28359c-0.00049,-0.13775 -0.00148,-0.27543 -0.00297,-0.41306c-0.34034,-1.19497 -0.27669,-2.45087 -0.14631,-3.71682c-0.20762,-3.2195 -0.59477,-6.42089 -0.92449,-9.64484c-0.70295,-6.87342 -1.45793,-13.73953 -2.24845,-20.60099c-0.2294,0.11045 -0.48659,0.17234 -0.75823,0.17234c-0.91488,0 -1.6658,-0.70205 -1.74339,-1.59681l-0.14062,-1.42164c0.07296,4.40385 0.00335,8.80577 -0.39591,13.22618l-0.29249,3.2383c-0.0712,0.90116 -0.82504,1.61025 -1.7445,1.61025c-0.0282,0 -0.05624,-0.00067 -0.08411,-0.00199c-0.21087,3.02058 -0.54471,6.01771 -1.17782,8.94303l0.42195,0.02727l-0.22491,3.47953c-0.05168,0.92011 -0.81417,1.6503 -1.74721,1.6503c-0.89784,0 -1.63776,-0.67613 -1.73835,-1.547c-0.30245,-2.31365 -1.05545,-8.07393 -1.35789,-10.38758c-3.16107,-24.18151 -3.22857,-49.15886 -3.2606,-73.51885c-0.02059,-15.66151 -0.04868,-31.32304 -0.0627,-46.98456c-0.66977,-6.73101 -1.35378,-13.45147 -1.97302,-20.15185l-0.23497,-2.54247c-0.00626,-0.06019 -0.00947,-0.12128 -0.00947,-0.18313c0,-0.9665 0.7835,-1.75 1.75,-1.75c0.89964,0 1.64073,0.67886 1.73895,1.55226l0.34025,2.67133c0.1751,-0.05881 0.36258,-0.09067 0.55749,-0.09067c0.49466,0 0.94138,0.20523 1.25966,0.5352c0.08497,-0.01268 0.17194,-0.01925 0.26044,-0.01925c0.79592,0 1.46773,0.53134 1.68008,1.25866c0.35293,1.112 1.5505,4.88526 1.90344,5.99726c1.03699,3.26732 2.68423,6.87766 3.23553,10.25553c0.01348,0.08261 0.04632,1.82003 0.07641,3.57479c0.54161,2.08109 1.02114,4.15415 1.4176,6.1965c1.54523,7.96019 1.73682,16.44777 2.58553,24.51597c0.32061,3.04783 0.79622,6.14826 1.12406,9.23838c0.07467,-2.73974 0.15064,-5.47924 0.23265,-8.21819c0.61523,-20.54582 0.7759,-41.20821 0.77423,-61.76137c0,0 0,-1.75 1.75,-1.75c1.75,0 1.75,1.75 1.75,1.75c-0.00164,20.58848 -0.15952,41.28511 -0.7758,61.86613c-0.41934,14.00426 -0.6816,28.02266 -1.41623,42.01407c-0.3413,6.5003 -0.1616,13.30066 -1.17668,19.78116c0.34475,2.89909 0.6843,5.79882 1.01741,8.6994c0.02742,-2.7617 0.09376,-5.51924 0.23867,-8.26542c0.43023,-8.15373 1.55972,-16.33412 2.33674,-24.46314c1.25733,-13.15389 2.50027,-26.30927 3.77718,-39.46129c0.1364,-5.08382 0.33347,-10.16562 0.54594,-15.2468c-0.09531,-4.73028 -0.12676,-9.46066 -0.05446,-14.19058c0.09057,-5.92526 -0.20006,-11.75346 0.69003,-17.4915l-0.42255,-0.00646l0.05344,-3.49624c0.00852,-0.65029 0.37174,-1.21502 0.90503,-1.50955l0.018,-2.59128c0.00571,-0.96161 0.78701,-1.73938 1.74997,-1.73938c0.9177,0 1.67042,0.70639 1.74409,1.6051l0.32454,3.46654l-0.34189,0.03201l-0.0011,0.15843c-0.0006,0.08569 -0.00122,0.17137 -0.00186,0.25706c0.85676,3.52614 1.26404,7.1701 1.54493,10.83763l0.71238,2.66342l-0.41899,0.11207c1.71912,4.2273 2.53149,8.57505 2.9806,13.04115c-0.06061,-4.20154 -0.20524,-8.33561 0.18827,-12.42354c-0.0007,-0.02515 -0.0014,-0.05031 -0.0021,-0.07546c-0.02249,-0.80255 -0.04497,-1.6051 -0.06746,-2.40765h-0.09738v-3.5c0,-0.9665 0.7835,-1.75 1.75,-1.75c0.95213,0 1.72666,0.76038 1.74948,1.70702c0.01461,0.52145 0.09518,3.39688 0.10979,3.91833c0.31159,1.22144 0.22703,2.50632 0.09986,3.79801c0.134,6.37101 0.04511,12.74006 -0.15593,19.10835c0.25506,14.23622 1.3749,28.45167 2.21464,42.66753c0.63518,6.94317 1.28809,13.88499 1.88648,20.83143l-0.13103,0.22937l0.0999,0.01985l-0.4555,2.29276c-0.14607,0.81896 -0.8618,1.44066 -1.72275,1.44066c-0.22181,0 -0.43397,-0.04127 -0.62925,-0.11654c0.90463,8.2257 1.85739,16.44571 2.82892,24.6598l0.01211,0.67046c0,0 0,1.75 -1.75,1.75zM249.41753,111.03785c0.01298,0.4295 0.02506,0.85893 0.03606,1.28832l0.23674,-0.02342c-0.0979,-0.42125 -0.18869,-0.84288 -0.2728,-1.2649zM243.91491,122.89934c-1.55593,-7.27723 -1.52418,-14.89255 -1.70216,-22.41638c-0.26964,-11.39901 -0.53929,-22.79803 -0.80893,-34.19704c0.04181,19.89308 0.24716,40.13233 2.29573,59.9427c0.05366,-0.83026 0.10733,-1.66051 0.16099,-2.49077c0.01807,-0.27954 0.03619,-0.55904 0.05436,-0.83851zM248.91932,46.10778c0.10225,6.29556 0.2045,12.59112 0.30674,18.88668c0.29007,2.29878 0.5808,4.59734 0.87159,6.89577c0.25615,-3.95668 0.41474,-7.90555 0.29793,-11.79807c-0.13711,-4.56888 -0.97724,-9.23915 -1.45563,-13.78688c-0.00692,-0.06581 -0.0138,-0.13164 -0.02063,-0.19751zM265.0973,119.04233c-0.02582,-1.95413 -0.05288,-3.90795 -0.08144,-5.86154c-0.1444,1.85354 -0.54984,3.73726 -0.05679,5.50762c0.03434,0.1233 0.08148,0.24078 0.13823,0.35392z" fill="#ffffff" stroke="none" stroke-width="0.5" stroke-linecap="butt"></path><path d="M283.66391,417.89835c-1.74639,0.1124 -1.85879,-1.63399 -1.85879,-1.63399l-0.06677,-1.03746c-0.77751,-12.08042 -1.31369,-24.13351 -1.70293,-36.19358l-1.23065,-3.16563l0.29777,-0.11576c-2.11643,-3.65948 -3.92624,-7.74153 -5.30168,-11.75993c0.10661,2.06569 0.21079,4.13159 0.31225,6.19776c0.11445,2.33052 0.37964,4.65852 0.34335,6.99157c-0.02483,1.59611 0.94939,3.78642 -0.30042,4.77947c-1.54747,1.22956 -4.25972,1.23002 -5.92704,0.16864c-0.18025,-0.11474 -0.32494,-0.25493 -0.44111,-0.41539c-0.09573,2.08091 -0.27655,4.17125 -0.5762,6.28262l-0.39836,2.80686c-0.10845,0.86238 -0.84444,1.52945 -1.73623,1.52945c-0.81532,0 -1.50041,-0.55756 -1.69479,-1.31218l-0.9393,-3.33162l0.37779,-0.10651c-0.53192,-1.26777 -1,-2.54876 -1.42945,-3.84478l-0.09793,0.83062c-0.0025,0.02405 -0.00548,0.04796 -0.00894,0.07171c0.00017,0.21214 0.00026,0.42429 0.00026,0.63643v3.5c0,0.9665 -0.7835,1.75 -1.75,1.75c-0.91474,0 -1.66556,-0.70183 -1.74335,-1.59639l-0.34356,-3.46379l0.33691,-0.03342v-0.1564c0,-0.12791 -0.00003,-0.25582 -0.0001,-0.38373c-0.4826,-2.05687 -0.78977,-4.11939 -1.02931,-6.22178c-1.08178,-3.80848 -1.75206,-7.73394 -2.48595,-11.68906c0.32899,6.82815 0.54305,13.65764 0.54653,20.48628l0.00178,3.49985c0,0.00035 0,0.0007 0,0.00104c0,0.9665 -0.7835,1.75 -1.75,1.75c-0.92397,0 -1.6807,-0.71607 -1.7455,-1.62353l-0.28408,-3.47211l0.27786,-0.02273l-0.00007,-0.13073c-0.00012,-0.23681 -0.0005,-0.47362 -0.00112,-0.71044c-1.16026,-5.38723 -1.24225,-10.93775 -1.7037,-16.57781c-0.77626,-9.48775 -0.83308,-18.92914 -0.66218,-28.38734c-0.29478,-1.76143 -0.54482,-3.52057 -0.73187,-5.27462c-0.60632,-5.68589 -0.36765,-11.62848 -0.32341,-17.4288c-0.16137,-5.25565 -0.20604,-10.5249 -0.21014,-15.79498c-0.23556,-13.48271 -0.48405,-26.96713 -0.51326,-40.45012l-0.00758,-3.49934c0,-0.00148 -0.00001,-0.00296 -0.00001,-0.00444c0,-0.9665 0.7835,-1.75 1.75,-1.75c0.04088,0 0.08143,0.0014 0.12161,0.00416c-0.17155,-6.05923 -0.31095,-12.12065 -0.4076,-18.18582c-0.1343,-1.0271 -0.21085,-2.04772 -0.04796,-3.04142c-0.00357,-0.22675 -0.00715,-0.4535 -0.01072,-0.68025l0.00317,-0.00989l-0.00325,0.00001l-0.01568,-3.49863c-0.00002,-0.00306 -0.00002,-0.00611 -0.00002,-0.00917c0,-0.9665 0.7835,-1.75 1.75,-1.75c0.62291,0 1.16981,0.32545 1.47993,0.8156c1.65101,0.06472 1.65101,1.74808 1.65101,1.74808c0,5.65577 0.20998,11.28935 0.51272,16.91957c0.04118,-0.42036 0.08192,-0.84067 0.12218,-1.26093c0.11498,-1.19186 0.22995,-2.38372 0.34493,-3.57558l0.04702,-0.0845l-0.031,-0.00631l0.61326,-3.01153c0.14919,-0.81513 0.86312,-1.43292 1.72135,-1.43292c0.96241,0 1.74337,0.77689 1.74996,1.73775l0.02803,3.49812l-0.41921,0.00336c0.87391,5.57295 0.67928,11.3384 0.60496,17.04209c0.01477,-0.09898 0.02947,-0.19794 0.0441,-0.29688l0.41388,-2.79845c0.04295,-0.32731 0.17636,-0.62615 0.37429,-0.87059c0.26868,-3.27356 0.55014,-6.54916 0.84449,-9.8279l0.11803,-3.45442c0.02774,-0.94223 0.80028,-1.69753 1.74923,-1.69753c0.82539,0 1.51732,0.57142 1.70177,1.34025l0.88244,3.34818l-0.40768,0.10745c1.76037,4.29335 2.73694,8.73032 3.97565,13.43026c2.68451,10.18569 4.42504,20.60502 5.96563,31.0563c0.09168,-3.47271 0.18337,-6.94541 0.27505,-10.41812c0.03079,-1.16626 0.06158,-2.33252 0.09237,-3.49878l0.09222,-3.49308c0.02152,-0.9478 0.79658,-1.70951 1.74954,-1.70951c0.89512,0 1.63328,0.67205 1.73742,1.5391l0.46752,3.44366l-0.44809,0.06083c1.26357,4.46074 1.67371,8.96681 2.33149,13.8119c1.30457,9.6092 1.70895,19.31829 1.85997,29.04168c0.13565,0.02744 0.27022,0.075 0.40345,0.14571c1.50423,0.7984 0.86385,3.30141 1.1153,4.98574c1.00085,6.70417 0.94523,14.40982 0.54318,21.1581l-0.20968,3.4813c-0.04399,0.84144 -0.68234,1.52549 -1.50312,1.64022c0.01829,0.96783 0.0371,1.93546 0.05647,2.9029c0.48399,6.3368 0.71912,12.66698 0.57672,18.96227l-0.04716,2.08498c0.39193,12.56704 0.9392,25.12479 1.74936,37.71252l0.06677,1.03746c0,0 0.1124,1.74639 -1.63399,1.85879zM273.84437,313.78329c-0.86738,-5.6785 -1.61079,-11.42742 -2.39738,-17.17985c0.48311,10.52186 0.37388,21.08225 0.62871,31.63102c0.41783,-0.30888 0.84184,-0.61812 1.26996,-0.92427c-0.35509,-4.20451 0.37796,-8.9531 0.48714,-13.08859c0.00386,-0.1461 0.00771,-0.2922 0.01157,-0.4383zM274.31283,331.19807c-0.6976,0.48944 -1.40352,0.96564 -2.13121,1.40724c0.00327,0.13506 0.00655,0.27012 0.00982,0.40518c0.39383,2.77995 0.78767,5.55989 1.1815,8.33984c0.78988,5.5755 0.99211,11.68776 2.41508,17.12975c0.70735,2.70516 2.49003,5.82929 3.91569,8.96792c-0.09341,-3.69791 -0.17585,-7.39752 -0.25005,-11.09979c-0.33809,-4.39983 -0.79771,-8.80303 -1.33453,-13.19978c-0.8556,-2.494 -1.6098,-5.05261 -2.44851,-7.68464c-0.063,-0.19771 -0.76513,-2.39294 -1.35779,-4.26572zM268.35322,330.86983c-0.95472,-6.73904 -1.90943,-13.47809 -2.86415,-20.21713c-0.09792,-0.6912 -0.19286,-1.3828 -0.28503,-2.07476c0.07472,6.61986 0.14923,13.23972 0.22317,19.85958c0.16301,3.05691 0.32587,6.11384 0.48864,9.17077c1.03331,8.53999 2.06663,17.07998 3.09994,25.61996c0.42042,3.47466 0.84085,6.94931 1.26127,10.42397c0.14014,1.15822 0.36953,2.3091 0.42042,3.47466c0.03451,0.79022 -0.44108,1.62581 -0.16532,2.36716c0.12488,0.33574 1.00198,0.42233 1.07228,0.07108c0.15071,-0.75302 -0.53516,-1.45187 -0.64377,-2.21211c-0.48544,-3.39799 -0.34657,-7.05733 -0.51502,-10.48736c-0.44941,-9.15131 -0.96915,-18.29662 -1.51411,-27.44142l-1.49073,-2.94948c-0.93582,-1.29629 -1.60391,-2.62138 -1.28719,-3.51007c0.34466,-0.96711 1.26053,-1.54368 2.1996,-2.09486zM261.47281,288.15024c-0.02423,-2.15227 -0.04848,-4.30453 -0.07274,-6.4568c-0.71005,11.02682 -1.27871,22.05934 -1.70712,33.14072c0.12583,0.93571 0.25092,1.87155 0.37484,2.8075c-0.21237,-8.97478 0.89465,-18.21213 1.30276,-27.16742c0.03531,-0.77489 0.06916,-1.54956 0.10226,-2.324zM266.82947,282.47194c-0.08844,-0.75005 -0.18224,-1.49977 -0.28179,-2.24913c-0.28745,-2.16398 -0.57491,-4.32795 -0.86236,-6.49193c-0.0349,0.50905 -0.06809,1.01821 -0.09977,1.5275c0.00987,0.12358 0.01972,0.24715 0.02955,0.37073c0.25898,1.54947 0.51654,3.10538 0.80113,4.66296c0.13257,0.72556 0.27094,1.45224 0.41324,2.17987zM263.91219,380.00209c0.12464,0.44209 0.25897,0.86872 0.3947,1.28399c0.25463,-5.89778 -0.19574,-11.72264 -0.51641,-17.74863c-0.13098,-2.46141 -0.26201,-4.92282 -0.39304,-7.38423c0.12332,4.01493 0.22716,8.02915 0.39791,12.02515c0.14683,3.43603 0.23487,6.40166 -0.18414,9.82237l-0.08379,0.67481c0.1321,0.44387 0.26059,0.88611 0.38477,1.32655zM277.77608,297.47773c-0.14156,5.36183 -0.28312,10.72366 -0.42468,16.08549c0.51809,3.38617 1.04846,6.78928 1.57038,10.20478c0.09303,-0.06258 0.18656,-0.12817 0.2805,-0.1958c-0.04755,-8.75948 -0.30678,-17.51556 -1.42621,-26.09446zM263.28296,256.32338c-0.02068,0.24623 -0.04129,0.49244 -0.06183,0.73864c0.11801,0.07256 0.22676,0.15873 0.32406,0.25632c-0.08741,-0.33166 -0.17482,-0.66331 -0.26223,-0.99497zM262.4606,338.55126c-0.01146,-0.21543 -0.02292,-0.43085 -0.03437,-0.64628c-0.03153,-0.2606 -0.06306,-0.52121 -0.0946,-0.78181c0.04409,0.47603 0.0871,0.95206 0.12897,1.42809z" fill="#ffffff" stroke="none" stroke-width="0.5" stroke-linecap="butt"></path></g></g></svg>