<svg version="1.1" xmlns="http://www.w3.org/2000/svg" xmlns:xlink="http://www.w3.org/1999/xlink" width="195.53713" height="80.66667" viewBox="0,0,195.53713,80.66667"><g transform="translate(-81.62692,-133.25351)"><g data-paper-data="{&quot;isPaintingLayer&quot;:true}" fill-rule="nonzero" stroke-linecap="butt" stroke-linejoin="miter" stroke-miterlimit="10" stroke-dasharray="" stroke-dashoffset="0" style="mix-blend-mode: normal"><path d="M133.76479,196.56711v-46.66667h104.33333v46.66667z" fill="#9f9f9f" stroke="none" stroke-width="0"></path><path d="M277.1556,174.47217c-0.59089,13.02743 -28.93154,21.98785 -42.91324,21.78401c-14.93495,-0.21773 -15.53349,-10.49076 -14.90231,-24.40637c0.61015,-13.452 -3.31242,-22.38158 11.12138,-21.74643c14.47569,0.63699 47.3061,10.87775 46.69418,24.36879z" fill="#bac8ff" stroke="none" stroke-width="NaN"></path><path d="M143.94596,155.92018v-22.66667h65.16667v22.66667z" fill="#9e0000" stroke="none" stroke-width="0"></path><path d="M145.61262,213.92018v-22.66666h65.16667v22.66666z" fill="#9e0000" stroke="none" stroke-width="0"></path><path d="M128.29359,149.55956c0,6.81151 -6.26801,12.33333 -14,12.33333c-7.73199,0 -14,-5.52182 -14,-12.33333c0,-6.81151 6.26801,-12.33333 14,-12.33333c7.73199,0 14,5.52182 14,12.33333z" fill="#dadada" stroke="#000000" stroke-width="0"></path><path d="M81.62692,165.64289c0,-10.44739 8.46928,-18.91667 18.91667,-18.91667c10.44739,0 18.91667,8.46928 18.91667,18.91667c0,10.44739 -8.46928,18.91667 -18.91667,18.91667c-10.44739,0 -18.91667,-8.46928 -18.91667,-18.91667z" fill="#dadada" stroke="none" stroke-width="0"></path><path d="M81.79359,142.89289c0,-4.60237 3.73096,-8.33333 8.33333,-8.33333c4.60237,0 8.33333,3.73096 8.33333,8.33333c0,4.60237 -3.73096,8.33333 -8.33333,8.33333c-4.60237,0 -8.33333,-3.73096 -8.33333,-8.33333z" fill="#dadada" stroke="none" stroke-width="0"></path><path d="M96.12692,196.30956c0,-9.06667 7.34999,-16.41667 16.41667,-16.41667c9.06667,0 16.41667,7.34999 16.41667,16.41667c0,9.06667 -7.34999,16.41667 -16.41667,16.41667c-9.06667,0 -16.41667,-7.34999 -16.41667,-16.41667z" fill="#dadada" stroke="none" stroke-width="0"></path></g></g></svg>