<svg version="1.1" xmlns="http://www.w3.org/2000/svg" xmlns:xlink="http://www.w3.org/1999/xlink" width="180.09588" height="80.51194" viewBox="0,0,180.09588,80.51194"><g transform="translate(-199.74405,-139.74404)"><g stroke="#000000" stroke-miterlimit="10"><path d="M378.94517,187.60552c0.97885,6.023 -3.11024,11.69912 -9.13324,12.67797c-5.43316,0.88299 -71.54427,2.29867 -84.82383,-2.90221c-1.44167,-0.56462 -0.5677,-6.49777 -0.66356,-7.08761c-0.1629,-1.00233 -1.38121,-10.75128 2.08385,-11.67479c17.35659,-4.6259 74.83814,0.66936 79.85881,-0.1466c6.023,-0.97885 11.69912,3.11024 12.67797,9.13324z" fill="#d8d8d8" stroke-width="1.5" stroke-linecap="butt"/><path d="" fill="none" stroke-width="1.5" stroke-linecap="round"/><path d="M233.66366,218.98847c-21.53274,-3.49947 -36.15159,-23.79208 -32.65211,-45.32482c3.49947,-21.53274 23.79208,-36.15159 45.32482,-32.65211c21.53274,3.49947 36.15159,23.79208 32.65211,45.32482c-3.49947,21.53274 -23.79208,36.15159 -45.32482,32.65211z" fill="#d8d8d8" stroke-width="1.5" stroke-linecap="butt"/><path d="M217.44866,147.14344l49.30993,3.91429l8.96658,12.61049l-66.34968,-6.96339c0,0 2.1022,-3.45466 3.4802,-5.08668c1.30957,-1.55098 4.59296,-4.47471 4.59296,-4.47471z" fill="#d48f40" stroke-width="0.5" stroke-linecap="round"/><path d="M209.04466,155.79448l53.35302,-7.61075c0,0 3.77755,2.75061 5.3159,4.20154c1.57754,1.48789 4.03473,4.61773 4.03473,4.61773l-68.61016,9.82367c0,0 1.3372,-3.81652 2.34538,-5.69959c0.95811,-1.78956 3.56114,-5.3326 3.56114,-5.3326z" fill="#ff9925" stroke-width="0.5" stroke-linecap="round"/><path d="M277.36561,201.8786c0.97885,6.023 -3.11024,11.69912 -9.13324,12.67797c-6.023,0.97885 -11.69912,-3.11024 -12.67797,-9.13324c-0.97885,-6.023 3.11024,-11.69912 9.13324,-12.67797c6.023,-0.97885 11.69912,3.11024 12.67797,9.13324z" fill="#d8d8d8" stroke-width="1.5" stroke-linecap="butt"/><path d="M207.67916,166.26563l31.93365,13.68585" fill="none" stroke-width="1.5" stroke-linecap="round"/><path d="M275.93815,166.8307l-26.31895,12.98401" fill="none" stroke-width="1.5" stroke-linecap="round"/><g fill="none" stroke-linecap="butt"><path d="M237.74489,185.1379c0,3.48853 -1.17834,6.31654 -2.6319,6.31654c-1.45355,0 -2.63189,-2.82801 -2.63189,-6.31654c0,-3.48853 1.17834,-6.31654 2.63189,-6.31654c1.45355,0 2.6319,2.82801 2.6319,6.31654z" stroke-width="1.5"/><path d="M236.3691,185.14064c0,2.55135 -0.56896,4.61962 -1.27081,4.61962c-0.70185,0 -1.27082,-2.06827 -1.27082,-4.61962c0,-2.55135 0.56897,-4.61963 1.27082,-4.61963c0.70185,0 1.27081,2.06828 1.27081,4.61963z" stroke-width="0.75"/><path d="M235.78426,185.28818c0,1.68911 -0.30111,3.0584 -0.67256,3.0584c-0.37144,0 -0.67255,-1.36929 -0.67255,-3.0584c0,-1.68911 0.30111,-3.0584 0.67255,-3.0584c0.37144,0 0.67256,1.36929 0.67256,3.0584z" stroke-width="0.25"/></g><g fill="none" stroke-linecap="butt"><path d="M253.06581,185.7169c0,3.48853 -1.17834,6.31654 -2.63189,6.31654c-1.45355,0 -2.6319,-2.82801 -2.6319,-6.31654c0,-3.48853 1.17834,-6.31654 2.6319,-6.31654c1.45355,0 2.63189,2.82801 2.63189,6.31654z" stroke-width="1.5"/><path d="M251.69002,185.71964c0,2.55135 -0.56896,4.61963 -1.27081,4.61963c-0.70185,0 -1.27082,-2.06827 -1.27082,-4.61963c0,-2.55135 0.56896,-4.61962 1.27082,-4.61962c0.70185,0 1.27081,2.06827 1.27081,4.61962z" stroke-width="0.75"/><path d="M251.10518,185.86718c0,1.68911 -0.30111,3.0584 -0.67255,3.0584c-0.37144,0 -0.67256,-1.36929 -0.67256,-3.0584c0,-1.68911 0.30111,-3.0584 0.67256,-3.0584c0.37144,0 0.67255,1.36929 0.67255,3.0584z" stroke-width="0.25"/></g><path d="M243.12077,195.5872l5.51541,14.26814h-11.72026z" fill="#000000" stroke-width="0.5" stroke-linecap="round"/><path d="M329.61708,202.30689c0.97885,6.023 -3.11024,11.69912 -9.13324,12.67797c-6.023,0.97885 -11.69912,-3.11024 -12.67797,-9.13324c-0.97885,-6.023 3.11024,-11.69912 9.13324,-12.67797c6.023,-0.97885 11.69912,3.11024 12.67797,9.13324z" fill="#d8d8d8" stroke-width="1.5" stroke-linecap="butt"/></g></g></svg>