<svg version="1.1" xmlns="http://www.w3.org/2000/svg" xmlns:xlink="http://www.w3.org/1999/xlink" width="126.45118" height="80.5" viewBox="0,0,126.45118,80.5"><g transform="translate(-199.56839,-139.75005)"><g data-paper-data="{&quot;isPaintingLayer&quot;:true}" fill-rule="nonzero" stroke-linejoin="miter" stroke-miterlimit="10" stroke-dasharray="" stroke-dashoffset="0" style="mix-blend-mode: normal"><path d="M240.00001,219.50005c-21.81525,0 -39.5,-17.68475 -39.5,-39.5c0,-21.81525 17.68475,-39.5 39.5,-39.5c21.81525,0 39.5,17.68475 39.5,39.5c0,21.81525 -17.68475,39.5 -39.5,39.5z" data-paper-data="{&quot;index&quot;:null}" fill="#d8d8d8" stroke="#000000" stroke-width="1.5" stroke-linecap="butt"></path><path d="" data-paper-data="{&quot;index&quot;:null}" fill="none" stroke="#000000" stroke-width="1.5" stroke-linecap="round"></path><path d="" data-paper-data="{&quot;index&quot;:null}" fill="none" stroke="#000000" stroke-width="1.5" stroke-linecap="round"></path><path d="M268.71282,168.34942l-20.61587,5.97561" data-paper-data="{&quot;index&quot;:null}" fill="none" stroke="#000000" stroke-width="1.5" stroke-linecap="round"></path><path d="M219.11523,168.05064l23.60367,6.27439" data-paper-data="{&quot;index&quot;:null}" fill="none" stroke="#000000" stroke-width="1.5" stroke-linecap="round"></path><path d="M240.56161,178.50795c0,-0.82843 0.67157,-1.5 1.5,-1.5c0.82843,0 1.5,0.67157 1.5,1.5c0,0.82843 -0.67157,1.5 -1.5,1.5c-0.82843,0 -1.5,-0.67157 -1.5,-1.5z" fill="#000000" stroke="none" stroke-width="0.5" stroke-linecap="butt"></path><path d="M257.59211,178.20917c0,-0.82843 0.67158,-1.5 1.5,-1.5c0.82842,0 1.5,0.67157 1.5,1.5c0,0.82843 -0.67158,1.5 -1.5,1.5c-0.82842,0 -1.5,-0.67157 -1.5,-1.5z" fill="#000000" stroke="none" stroke-width="0.5" stroke-linecap="butt"></path><path d="M246.24454,198.37686c0,0 1.8465,-6.57318 3.58538,-6.57318c1.34692,0 4.18292,6.57318 4.18292,6.57318" fill="none" stroke="#000000" stroke-width="1.5" stroke-linecap="round"></path><g stroke="#000000"><path d="M288.19526,182.66724c0.29772,4.64447 -3.226,8.6509 -7.87048,8.94862c-4.64447,0.29772 -8.6509,-3.226 -8.94862,-7.87048c-0.29772,-4.64447 3.226,-8.6509 7.87048,-8.94862c4.64447,-0.29772 8.6509,3.226 8.94862,7.87048z" data-paper-data="{&quot;index&quot;:null}" fill="#d8d8d8" stroke-width="1" stroke-linecap="butt"></path><path d="" data-paper-data="{&quot;index&quot;:null}" fill="none" stroke-width="1.5" stroke-linecap="round"></path><path d="" data-paper-data="{&quot;index&quot;:null}" fill="none" stroke-width="1.5" stroke-linecap="round"></path><g data-paper-data="{&quot;index&quot;:null}" stroke-width="0.8"><path d="M292.6661,188.31335l-0.53572,-4.1913l-8.97189,-3.53898l8.48975,-0.23317l2.51795,-8.6284l3.34987,7.87838l25.73709,1.39612z" fill="#0033b3" stroke-linecap="round"></path><path d="M293.47274,185.4251l-17.29483,1.09212l-0.47075,-7.45466l17.29483,-1.09212z" fill="#455c67" stroke-linecap="butt"></path></g></g><g stroke="#000000"><g stroke-width="0.8"><path d="M252.89305,181.50365l-25.51406,3.65775l-2.64287,8.14283l-3.2682,-8.37308l-8.47728,0.51556l8.62529,-4.31552l0.16445,-4.2222z" fill="#0033b3" stroke-linecap="round"></path><path d="M223.026,187.18213l-17.3238,0.43553l-0.18772,-7.46716l17.3238,-0.43553z" fill="#455c67" stroke-linecap="butt"></path></g><path d="M200.0709,184.25303c-0.11255,-4.65265 3.56791,-8.51558 8.22057,-8.62813c4.65265,-0.11255 8.51558,3.56791 8.62813,8.22057c0.11255,4.65265 -3.56791,8.51558 -8.22057,8.62813c-4.65265,0.11255 -8.51558,-3.56791 -8.62813,-8.22057z" data-paper-data="{&quot;index&quot;:null}" fill="#d8d8d8" stroke-width="1" stroke-linecap="butt"></path><path d="" data-paper-data="{&quot;index&quot;:null}" fill="none" stroke-width="1.5" stroke-linecap="round"></path><path d="" data-paper-data="{&quot;index&quot;:null}" fill="none" stroke-width="1.5" stroke-linecap="round"></path></g></g></g></svg>