<svg version="1.1" xmlns="http://www.w3.org/2000/svg" xmlns:xlink="http://www.w3.org/1999/xlink" width="156.03107" height="103.30044" viewBox="0,0,156.03107,103.30044"><defs><linearGradient x1="140.8812" y1="157.72501" x2="162.67761" y2="126.00048" gradientUnits="userSpaceOnUse" id="color-1"><stop offset="0" stop-color="#906e40"></stop><stop offset="1" stop-color="#bd9055"></stop></linearGradient></defs><g transform="translate(-127.41106,-121.36476)"><g data-paper-data="{&quot;isPaintingLayer&quot;:true}" fill-rule="nonzero" stroke-linejoin="miter" stroke-miterlimit="10" stroke-dasharray="" stroke-dashoffset="0" style="mix-blend-mode: normal"><g stroke="none" stroke-width="0" stroke-linecap="butt"><path d="M197.29289,158.91989l-31.37971,-21.55948l3.79068,-5.51731l31.37971,21.55949z" fill="#b1b1b1"></path><path d="M198.168,166.88143l-5.34489,-3.67222l10.069,-14.65535l5.34489,3.67222z" fill="#909090"></path><path d="M154.58828,167.14247l-27.17723,-19.17976l27.41109,-26.59794l16.04523,10.26249z" fill="url(#color-1)"></path><path d="M149.52,151.98537l-4.82764,-3.31684l14.68888,-21.37959l4.82764,3.31684z" fill="#a9a9a9"></path></g><path d="" data-paper-data="{&quot;index&quot;:null}" fill="none" stroke="#000000" stroke-width="1.5" stroke-linecap="round"></path><path d="" data-paper-data="{&quot;index&quot;:null}" fill="none" stroke="#000000" stroke-width="1.5" stroke-linecap="round"></path><path d="" data-paper-data="{&quot;index&quot;:null}" fill="none" stroke="#000000" stroke-width="1.5" stroke-linecap="round"></path><path d="M283.13923,152.81297" data-paper-data="{&quot;index&quot;:null}" fill="none" stroke="#d8d8d8" stroke-width="4" stroke-linecap="round"></path><g stroke="#000000" stroke-width="1.5"><path d="M281.89476,192.26607c-4.34018,21.37915 -25.18982,35.19196 -46.56897,30.85176c-21.37915,-4.34018 -35.19196,-25.18982 -30.85176,-46.56897c4.34018,-21.37915 25.18982,-35.19196 46.56897,-30.85176c21.37915,4.34018 35.19196,25.18982 30.85176,46.56897z" fill="#d8d8d8" stroke-linecap="butt"></path><path d="M223.72886,203.40829l9.35789,-15.60359" fill="none" stroke-linecap="round"></path><path d="M240.70126,193.40617l-7.01184,-1.21002" fill="none" stroke-linecap="round"></path><path d="M233.83237,183.47349l-2.96101,-11.70079" fill="none" stroke-linecap="round"></path><path d="M242.12554,183.236l-6.51859,-1.53679" fill="none" stroke-linecap="round"></path><path d="M257.33398,197.94404c0,0 -10.90487,-4.48561 -10.30118,-7.20896c0.72188,-3.25653 13.92897,-3.95922 13.92897,-3.95922" fill="none" stroke-linecap="round"></path></g></g></g></svg>