<svg version="1.1" xmlns="http://www.w3.org/2000/svg" xmlns:xlink="http://www.w3.org/1999/xlink" width="101.55609" height="88.10328" viewBox="0,0,101.55609,88.10328"><g transform="translate(-185.40891,-137.92395)"><g data-paper-data="{&quot;isPaintingLayer&quot;:true}" fill-rule="nonzero" stroke-linejoin="miter" stroke-miterlimit="10" stroke-dasharray="" stroke-dashoffset="0" style="mix-blend-mode: normal"><path d="M185.90891,184.53645c0,-3.96071 3.21079,-7.1715 7.1715,-7.1715c3.96071,0 7.1715,3.21079 7.1715,7.1715c0,3.96071 -3.21079,7.1715 -7.1715,7.1715c-3.96071,0 -7.1715,-3.21079 -7.1715,-7.1715z" fill="#d8d8d8" stroke="#000000" stroke-width="1" stroke-linecap="butt"></path><path d="" data-paper-data="{&quot;index&quot;:null}" fill="none" stroke="#000000" stroke-width="1.5" stroke-linecap="round"></path><path d="" data-paper-data="{&quot;index&quot;:null}" fill="none" stroke="#000000" stroke-width="1.5" stroke-linecap="round"></path><path d="M199.48851,178.17395c0,-21.81525 17.68475,-39.5 39.5,-39.5c21.81525,0 39.5,17.68475 39.5,39.5c0,21.81525 -17.68475,39.5 -39.5,39.5c-21.81525,0 -39.5,-17.68475 -39.5,-39.5z" fill="#d8d8d8" stroke="#000000" stroke-width="1.5" stroke-linecap="butt"></path><path d="M225.51007,194.79569c5.44898,-2.88817 27.57511,5.13694 27.57511,5.13694" data-paper-data="{&quot;index&quot;:null}" fill="none" stroke="#000000" stroke-width="1.5" stroke-linecap="round"></path><path d="M225.31197,165.60053l6.99536,1.82343v8" fill="none" stroke="#000000" stroke-width="1.5" stroke-linecap="round"></path><path d="M237.86965,175.98477l-0.24149,-8.93527l7.00332,-2.17344" fill="none" stroke="#000000" stroke-width="1.5" stroke-linecap="round"></path><path d="M238.59414,186.12751l16.42158,-6.52033" fill="none" stroke="#000000" stroke-width="1.5" stroke-linecap="round"></path><path d="M241.73356,180.09016l2.89793,5.55436" fill="none" stroke="#000000" stroke-width="1.5" stroke-linecap="round"></path><path d="M246.32194,177.91672l3.8639,7.7278" fill="none" stroke="#000000" stroke-width="1.5" stroke-linecap="round"></path><g><path d="M243.46202,206.64135l-1.81832,10.87341l-12.25227,6.94028l4.32318,-14.43423z" data-paper-data="{&quot;index&quot;:null}" fill="#c6c6c6" stroke="#c6c6c6" stroke-width="1.5" stroke-linecap="round"></path><path d="M260.62571,166.55774" fill="none" stroke="#d8d8d8" stroke-width="4" stroke-linecap="round"></path><path d="M286.965,156.24584l-35.2677,44.02642l-3.03631,-2.43226l35.2677,-44.02642z" fill="#7f7600" stroke="#000000" stroke-width="0" stroke-linecap="butt"></path><path d="M243.23724,208.83431c-2.29245,0.68322 -3.05485,-1.62071 -3.05485,-1.62071l-0.66497,-3.69467c1.04203,-2.88976 2.77677,-5.38727 3.60128,-8.33671c0.34176,-1.22249 -0.04312,-2.86049 0.91121,-3.69746c1.46828,-1.28771 3.70944,-2.66566 5.52564,-1.94773c1.49994,0.5929 0.53384,3.24734 1.32202,4.65451c0.4151,0.7411 1.68442,0.70586 2.09646,1.44867c0.30906,0.55713 -0.75479,1.51925 -0.24106,1.89607c0.7933,0.58186 2.51188,-0.78998 2.95004,0.09089c2.95263,5.93603 -4.94494,10.0276 -8.60144,12.54962c0,0 -2.05826,1.41899 -3.47725,-0.63927c-0.16808,-0.2438 -0.28738,-0.47864 -0.36709,-0.70322z" fill="#ff0000" stroke="none" stroke-width="0.5" stroke-linecap="butt"></path></g></g></g></svg>