<svg version="1.1" xmlns="http://www.w3.org/2000/svg" xmlns:xlink="http://www.w3.org/1999/xlink" width="89.10891" height="86.91788" viewBox="0,0,89.10891,86.91788"><g transform="translate(-317.96793,-172.66866)"><g data-paper-data="{&quot;isPaintingLayer&quot;:true}" fill-rule="nonzero" stroke-linejoin="miter" stroke-miterlimit="10" stroke-dasharray="" stroke-dashoffset="0" style="mix-blend-mode: normal"><path d="" data-paper-data="{&quot;index&quot;:null}" fill="none" stroke="#000000" stroke-width="1.5" stroke-linecap="round"></path><path d="" data-paper-data="{&quot;index&quot;:null}" fill="none" stroke="#000000" stroke-width="1.5" stroke-linecap="round"></path><path d="M318.96386,208.5525c2.41329,-21.68135 21.94586,-37.3012 43.62721,-34.88791c21.68135,2.41329 37.3012,21.94586 34.88791,43.62721c-2.41329,21.68135 -21.94586,37.3012 -43.62721,34.88791c-21.68135,-2.41329 -37.3012,-21.94586 -34.88791,-43.62721z" fill="#d8d8d8" stroke="#000000" stroke-width="1.5" stroke-linecap="butt"></path><path d="M369.65892,228.45132c0,0 -22.8781,5.52817 -27.97413,2.05494" data-paper-data="{&quot;index&quot;:null}" fill="none" stroke="#000000" stroke-width="1.5" stroke-linecap="round"></path><path d="M331.51136,181.37197l29.0081,14.89495l30.79953,-6.71625c0,0 3.2274,8.19155 3.91528,12.1462c0.66055,3.79755 1.5388,10.71934 1.5388,10.71934l-39.37655,11.9076l-38.37005,-22.25031c0,0 2.61014,-6.5791 4.21888,-9.97347c1.73137,-3.65309 8.266,-10.72805 8.266,-10.72805z" fill="#595959" stroke="#000000" stroke-width="0.5" stroke-linecap="round"></path><path d="M354.62521,206.19936c4.37432,5.98359 -2.98253,2.64156 -7.44493,2.14487c-4.4624,-0.4967 -7.0991,-9.7108 -7.0991,-9.7108c0,0 10.16971,1.58235 14.54403,7.56594z" fill="#ffffff" stroke="none" stroke-width="0" stroke-linecap="butt"></path><path d="M379.20399,203.04613c0,0 -4.59827,8.4088 -9.06066,7.9121c-4.4624,-0.4967 -12.37406,1.14584 -6.79107,-3.72944c5.58299,-4.87527 15.85173,-4.18267 15.85173,-4.18267z" data-paper-data="{&quot;index&quot;:null}" fill="#ffffff" stroke="none" stroke-width="0" stroke-linecap="butt"></path><path d="M364.84334,259.58654" fill="none" stroke="#d8d8d8" stroke-width="4" stroke-linecap="round"></path><g fill="none" stroke-linecap="round"><path d="M386.55298,238.25046c-5.15981,18.44125 -6.21781,-7.1442 -6.21781,-7.1442" stroke="#ff0000" stroke-width="3.5"></path><path d="M382.80468,245.24655c-6.43096,-0.49963 -9.52673,-7.71751 -7.94158,-13.68573" stroke="#ff0000" stroke-width="3.5"></path><g><path d="M386.26187,240.00873c0,0 0.26832,-30.32579 5.42813,-48.76705c5.15981,-18.44125 6.21781,7.1442 6.21781,7.1442" stroke="#ff0000" stroke-width="3.5"></path><path d="M389.14169,202.05054l-1.09163,9.07725" stroke="#d8d8d8" stroke-width="4"></path><path d="M396.97588,184.87609c6.43096,0.49963 9.52673,7.71751 7.94158,13.68573" stroke="#ff0000" stroke-width="3.5"></path></g></g></g></g></svg>