<svg version="1.1" xmlns="http://www.w3.org/2000/svg" xmlns:xlink="http://www.w3.org/1999/xlink" width="110.20314" height="87.6982" viewBox="0,0,110.20314,87.6982"><defs><radialGradient cx="224.50171" cy="155.62687" r="23.07507" gradientUnits="userSpaceOnUse" id="color-1"><stop offset="0" stop-color="#bd50fb"></stop><stop offset="1" stop-color="#a200ff"></stop></radialGradient></defs><g transform="translate(-201.42663,-132.5518)"><g data-paper-data="{&quot;isPaintingLayer&quot;:true}" fill-rule="nonzero" stroke-linejoin="miter" stroke-miterlimit="10" stroke-dasharray="" stroke-dashoffset="0" style="mix-blend-mode: normal"><path d="M215.94804,174.61529c0,-5.85589 4.74714,-10.60303 10.60303,-10.60303c5.85589,0 10.60303,4.74714 10.60303,10.60303c0,5.85589 -4.74714,10.60303 -10.60303,10.60303c-5.85589,0 -10.60303,-4.74714 -10.60303,-10.60303z" data-paper-data="{&quot;index&quot;:null}" fill="#d8d8d8" stroke="#000000" stroke-width="1.25" stroke-linecap="butt"></path><path d="M201.42663,155.62687c0,-12.74401 10.33106,-23.07507 23.07507,-23.07507c12.74401,0 23.07507,10.33106 23.07507,23.07507c0,12.74401 -10.33106,23.07507 -23.07507,23.07507c-12.74401,0 -23.07507,-10.33106 -23.07507,-23.07507z" fill="url(#color-1)" stroke="none" stroke-width="NaN" stroke-linecap="butt"></path><path d="" data-paper-data="{&quot;index&quot;:null}" fill="none" stroke="#000000" stroke-width="1.5" stroke-linecap="round"></path><path d="M229.621,180c0,-21.81525 17.68475,-39.5 39.5,-39.5c21.81525,0 39.5,17.68475 39.5,39.5c0,21.81525 -17.68475,39.5 -39.5,39.5c-21.81525,0 -39.5,-17.68475 -39.5,-39.5z" data-paper-data="{&quot;index&quot;:null}" fill="#d8d8d8" stroke="#000000" stroke-width="1.5" stroke-linecap="butt"></path><path d="" data-paper-data="{&quot;index&quot;:null}" fill="none" stroke="#000000" stroke-width="1.5" stroke-linecap="round"></path><path d="" data-paper-data="{&quot;index&quot;:null}" fill="none" stroke="#000000" stroke-width="1.5" stroke-linecap="round"></path><path d="M254.96893,169.35469l1.78529,9.65943" data-paper-data="{&quot;index&quot;:null}" fill="none" stroke="#000000" stroke-width="1.5" stroke-linecap="round"></path><path d="M289.7987,196.04819c0,-5.85589 4.74714,-10.60303 10.60303,-10.60303c5.85589,0 10.60303,4.74714 10.60303,10.60303c0,5.85589 -4.74714,10.60303 -10.60303,10.60303c-5.85589,0 -10.60303,-4.74714 -10.60303,-10.60303z" data-paper-data="{&quot;index&quot;:null}" fill="#d8d8d8" stroke="#000000" stroke-width="1.25" stroke-linecap="butt"></path><path d="M264.00106,166.73843l1.78529,9.65943" data-paper-data="{&quot;index&quot;:null}" fill="none" stroke="#000000" stroke-width="1.5" stroke-linecap="round"></path></g></g></svg>