<svg version="1.1" xmlns="http://www.w3.org/2000/svg" xmlns:xlink="http://www.w3.org/1999/xlink" width="81.46217" height="86.0251" viewBox="0,0,81.46217,86.0251"><g transform="translate(-204.23061,-139.9859)"><g data-paper-data="{&quot;isPaintingLayer&quot;:true}" fill="#ff0000" fill-rule="nonzero" stroke="none" stroke-width="0" stroke-linejoin="miter" stroke-miterlimit="10" stroke-dasharray="" stroke-dashoffset="0" style="mix-blend-mode: normal"><path d="M204.82949,179.4859c0,-21.81525 17.68475,-39.5 39.5,-39.5c21.81525,0 39.5,17.68475 39.5,39.5c0,21.81525 -17.68475,39.5 -39.5,39.5c-21.81525,0 -39.5,-17.68475 -39.5,-39.5z" stroke-linecap="butt"></path><path d="M240.89126,173.59468l-12.78401,-1.53952" stroke-linecap="round"></path><path d="M258.22712,172.59671l-13.11871,1.85783" stroke-linecap="round"></path><path d="M252.17401,173.49118l-0.15196,10.63701" stroke-linecap="round"></path><path d="M235.34618,173.64897v10.07717" stroke-linecap="round"></path><g stroke-linecap="butt"><path d="M217.11285,204.82378v-16.60866h68.11417c0,0 0.973,6.39296 0.10634,9.24974c-0.80887,2.66628 -3.27878,8.29199 -3.27878,8.29199z"></path><path d="M221.96482,203.14426v-11.57008h7.27795v11.57008z"></path><path d="M231.63018,202.91906v-11.57008h7.27795v11.57008z"></path><path d="M241.48215,203.06709v-11.57008h7.27795v11.57008z"></path><path d="M251.52073,203.40174v-11.57008h7.27795v11.57008z"></path><path d="M261.44987,203.44032v-11.57008h7.27795v11.57008z" data-paper-data="{&quot;index&quot;:null}"></path><path d="M271.379,203.29229v-11.57008h7.27795v11.57008z"></path></g><path d="M204.23061,216.33916c0,-4.79248 3.88508,-8.67756 8.67756,-8.67756c4.79248,0 8.67756,3.88508 8.67756,8.67756c0,4.79248 -3.88508,8.67756 -8.67756,8.67756c-4.79248,0 -8.67756,-3.88508 -8.67756,-8.67756z" stroke-linecap="butt"></path><path d="M262.03388,217.33344c0,-4.79248 3.88508,-8.67756 8.67756,-8.67756c4.79248,0 8.67756,3.88508 8.67756,8.67756c0,4.79248 -3.88508,8.67756 -8.67756,8.67756c-4.79248,0 -8.67756,-3.88508 -8.67756,-8.67756z" stroke-linecap="butt"></path></g></g></svg>