<svg version="1.1" xmlns="http://www.w3.org/2000/svg" xmlns:xlink="http://www.w3.org/1999/xlink" width="201.26995" height="83.8522" viewBox="0,0,201.26995,83.8522"><g transform="translate(-141.43238,-137.1537)"><g data-paper-data="{&quot;isPaintingLayer&quot;:true}" fill-rule="nonzero" stroke-linejoin="miter" stroke-miterlimit="10" stroke-dasharray="" stroke-dashoffset="0" style="mix-blend-mode: normal"><path d="M217.09442,165.86414l9,1v8" fill="none" stroke="#000000" stroke-width="1.5" stroke-linecap="round"></path><path d="M232.53458,174.67753v-8l9,-1" data-paper-data="{&quot;index&quot;:null}" fill="none" stroke="#000000" stroke-width="1.5" stroke-linecap="round"></path><path d="M230.98851,198.04897c0,0 0.3445,-8.61004 5.78628,-9.03188c5.30472,-0.41122 12.46372,8.03188 12.46372,8.03188z" fill="#040404" stroke="#000000" stroke-width="1.5" stroke-linecap="round"></path><path d="M200.73697,171.0911c0,-18.19082 17.29485,-32.9374 38.62913,-32.9374c21.33428,0 38.62913,14.74658 38.62913,32.9374c0,11.22687 -2.48212,24.8741 -12.54127,30.82016c-0.42004,0.24829 -5.31543,2.90997 -5.31543,2.90997l-0.22453,13.91683l-12.57806,0.95271l-0.50527,-15.47565l0.06963,15.5724l-14.72842,0.20478l-0.46155,-15.93384l0.80812,15.80985l-16.17468,-0.08649c0,0 0.11388,-16.75516 -0.28778,-16.80951c-2.62384,-0.355 -2.02116,-0.00099 -3.86634,-0.93632c-11.32682,-5.74167 -11.45268,-18.89377 -11.45268,-30.94489z" fill="#ffffff" stroke="#000000" stroke-width="2" stroke-linecap="butt"></path><path d="M243.83743,171.09869c0,5.92619 -3.30023,10.73031 -7.37126,10.73031c-4.07103,0 -7.37126,-4.80413 -7.37126,-10.73031c0,-5.92619 -0.9919,-11.10354 3.07913,-11.10354c3.22238,0 10.77427,7.53515 10.77427,7.53515c0,0 0.88912,2.33301 0.88912,3.56839z" fill="#ababab" stroke="#000000" stroke-width="1" stroke-linecap="butt"></path><path d="M261.57705,161.07621c4.07103,0 3.07913,5.17736 3.07913,11.10354c0,5.92619 -3.30022,10.73032 -7.37126,10.73032c-4.07103,0 -7.37126,-4.80413 -7.37126,-10.73032c0,-1.23538 0.88912,-3.56839 0.88912,-3.56839c0,0 7.55188,-7.53515 10.77427,-7.53515z" data-paper-data="{&quot;index&quot;:null}" fill="#ababab" stroke="#000000" stroke-width="1" stroke-linecap="butt"></path><path d="" data-paper-data="{&quot;index&quot;:null}" fill="none" stroke="#000000" stroke-width="1.5" stroke-linecap="round"></path><path d="" data-paper-data="{&quot;index&quot;:null}" fill="none" stroke="#000000" stroke-width="1.5" stroke-linecap="round"></path><path d="" data-paper-data="{&quot;index&quot;:null}" fill="none" stroke="#000000" stroke-width="1.5" stroke-linecap="round"></path><path d="" data-paper-data="{&quot;index&quot;:null}" fill="none" stroke="#000000" stroke-width="1.5" stroke-linecap="round"></path><path d="" data-paper-data="{&quot;index&quot;:null}" fill="none" stroke="#000000" stroke-width="1.5" stroke-linecap="round"></path><path d="" data-paper-data="{&quot;index&quot;:null}" fill="none" stroke="#000000" stroke-width="1.5" stroke-linecap="round"></path><path d="" data-paper-data="{&quot;index&quot;:null}" fill="none" stroke="#000000" stroke-width="1.5" stroke-linecap="round"></path><path d="" data-paper-data="{&quot;index&quot;:null}" fill="none" stroke="#000000" stroke-width="1.5" stroke-linecap="round"></path><path d="" data-paper-data="{&quot;index&quot;:null}" fill="none" stroke="#000000" stroke-width="1.5" stroke-linecap="round"></path><path d="" data-paper-data="{&quot;index&quot;:null}" fill="none" stroke="#000000" stroke-width="1.5" stroke-linecap="round"></path><path d="M161.91132,183.14698c0.20955,-1.20811 0.52386,-2.41617 0.90498,-3.60175c0,-0.00089 0,-0.00177 0,-0.00266v-1.92524c0,-0.12717 0.02727,-0.24856 0.0768,-0.35969c-0.13203,-1.93469 -0.17244,-4.02171 0.50533,-5.31646c0.03165,-0.06046 0.0669,-0.11864 0.10527,-0.17485l-0.0224,-0.01075l0.53675,-0.91461c0.17538,-0.31384 0.53521,-0.52903 0.95063,-0.52903c0.548,0 0.99928,0.37448 1.05799,0.85589l0.25868,1.87148c0.84037,3.79159 1.74972,7.70103 3.44091,11.25907c0,0 0.41931,0.88479 -0.55908,1.26398c-0.9784,0.3792 -1.39771,-0.50559 -1.39771,-0.50559c-1.10923,-2.34708 -1.9014,-4.83141 -2.55455,-7.34033c-0.00621,0.97303 -0.00055,1.94661 -0.00727,2.92184l-0.08234,0.10262l0.05853,0.01323l-0.26499,0.95856c-0.06213,0.24759 -0.2298,0.45893 -0.45796,0.5933c-0.24599,0.73202 -0.52569,1.48364 -0.60236,2.22141l-1.19625,-0.46634l-0.92242,0.27763c0.02287,-0.20206 0.04904,-0.40432 0.07833,-0.60668l-0.08345,-0.03253c0,0 0,-0.29063 0.17659,-0.55251z" data-paper-data="{&quot;index&quot;:null}" fill="#bd00f2" stroke="none" stroke-width="0.5" stroke-linecap="butt"></path><path d="M173.36169,190.79069c0,-0.96262 1.06447,-0.96262 1.06447,-0.96262l1.62703,0.00001c1.70187,0.01348 2.90933,0.05896 4.1767,0.28625l0.02527,-0.22852l2.10665,0.19051c0.54376,0.04312 0.97026,0.45597 0.97026,0.9589c0,0.45812 -0.35387,0.84149 -0.8279,0.93876l-0.97583,0.22062c-0.30863,0.13753 -0.61186,0.27271 -0.91358,0.38698c0.1761,0.17174 0.28375,0.40168 0.28375,0.65436c0,0.47318 -0.37753,0.86661 -0.87504,0.94743l-1.33263,0.24103l-0.00227,-0.01026l-0.02852,0.0154c-0.09905,0.01252 -0.20571,0.02909 -0.31885,0.04886l0.0599,0.01084c0.49752,0.08081 0.87504,0.47425 0.87504,0.94743c0,0.45812 -0.35387,0.84149 -0.8279,0.93876l-1.05804,0.2392c-0.33133,0.07651 -0.64924,0.15826 -0.95921,0.23758c1.82158,0.21317 3.63004,0.57605 5.44635,0.81033c0,0 1.05377,0.13614 0.90323,1.08908c-0.15054,0.95295 -1.2043,0.81681 -1.2043,0.81681c-0.13955,-0.01806 -0.27903,-0.03685 -0.41847,-0.05626c-0.19452,0.19088 -0.4733,0.31046 -0.78297,0.31046c-0.43717,0 -0.81278,-0.23832 -0.97664,-0.57914c-1.95308,-0.31401 -3.90569,-0.64546 -5.88811,-0.64817l-0.09812,-0.04003l-0.00576,0.02602l-2.06825,-0.37407c-0.49752,-0.08081 -0.87504,-0.47425 -0.87504,-0.94743c0,-0.4086 0.2815,-0.75774 0.6787,-0.89746l0.61528,-0.23127c-0.47446,-0.09699 -0.82876,-0.48055 -0.82876,-0.93894c0,-0.31894 0.17152,-0.60165 0.4357,-0.77682l1.07167,-0.72685l0.22321,0.26914c0.95681,-0.63771 1.94532,-0.91345 3.14296,-1.10427c-0.00425,-0.03495 -0.00643,-0.07046 -0.00643,-0.10644c0,-0.35679 0.21465,-0.66824 0.53354,-0.83452l0.26977,-0.14637c-0.18131,-0.00645 -0.36605,-0.0112 -0.55468,-0.01269l-1.61771,0.00001c0,0 -1.06447,0 -1.06447,-0.96262z" data-paper-data="{&quot;index&quot;:null}" fill="#bd00f2" stroke="none" stroke-width="0.5" stroke-linecap="butt"></path><path d="M149.39908,195.17254c0.16985,0.01279 0.33972,0.02559 0.50957,0.03839c0,0 1.06079,0.07994 0.97239,1.03924c-0.0884,0.95929 -1.14919,0.87936 -1.14919,0.87936c-0.44663,-0.03366 -0.89327,-0.06736 -1.33988,-0.10125c1.22618,0.20716 2.48433,0.24742 3.72347,0.38749c0,0 1.05625,0.1194 0.92421,1.07459c-0.13203,0.95519 -1.18828,0.83579 -1.18828,0.83579c-2.22076,-0.25104 -4.21286,-0.47795 -6.34945,-1.08834c-0.6542,-0.18689 -1.62653,-0.00732 -1.96781,-0.54554c-0.2445,-0.38558 -0.27473,-0.79482 -0.15936,-1.19381l-0.10246,0.10793c0,0 -0.75269,0.68067 -1.50538,0c-0.75269,-0.68067 0,-1.36136 0,-1.36136l0.76378,-0.64335c0.80075,-0.41505 1.61716,-0.83532 2.44997,-1.23067c-0.00686,-0.04413 -0.0104,-0.08923 -0.0104,-0.13508c0,-0.53164 0.47657,-0.96262 1.06447,-0.96262h1.53977c0.75026,-0.27127 1.51337,-0.50093 2.28982,-0.66944l0.22633,-0.30866c1.71249,0 3.425,0 5.13749,0c0,0 1.06447,0 1.06447,0.96262c0,0.96262 -1.06447,0.96262 -1.06447,0.96262c-0.54652,0 -1.09304,0 -1.63957,0c0.00006,0.00513 0.00009,0.01029 0.00009,0.01548c0,0.28919 -0.09607,0.49151 -0.23049,0.63304c1.44078,0.39531 2.86174,0.58852 4.23878,1.19574c0,0 0.95208,0.4305 0.47605,1.29149c-0.47605,0.86099 -1.42813,0.4305 -1.42813,0.4305c-1.50775,-0.70445 -3.23905,-0.82236 -4.86543,-1.36923l-0.95035,-0.2922c0,0 -0.76176,-0.23459 -0.73507,-0.8948c-0.64436,0.02689 -1.21754,0.0403 -1.76028,-0.10906c-0.09126,0.20234 -0.19126,0.40278 -0.30186,0.59715h0.4364c0,0 0.64494,0 0.9308,0.45398z" data-paper-data="{&quot;index&quot;:null}" fill="#bd00f2" stroke="none" stroke-width="0.5" stroke-linecap="butt"></path><path d="M163.31467,202.65319c0.06622,0.71204 0.20783,1.43047 0.31282,2.14283v-1.04554h0.00203c0.00063,-0.02863 0.00141,-0.05726 0.00233,-0.08588l-0.00397,-0.13261l0.00927,-0.00022c0.01215,-0.25512 0.03548,-0.50983 0.06842,-0.76391c-0.03942,-0.25254 -0.06488,-0.50614 -0.07415,-0.75999h-0.00393v-0.26039c-0.00529,-0.07009 -0.01014,-0.14025 -0.01459,-0.21047c-0.17272,-0.02986 -0.34626,-0.06181 -0.52005,-0.09539c-0.00012,0.00035 -0.00025,0.0007 -0.00037,0.00106l0.2159,1.17146l-0.01259,0.00189zM163.75056,206.00647c0.07449,-0.10893 0.15055,-0.21502 0.22828,-0.31867c-0.12467,-0.1018 -0.22258,-0.2299 -0.28303,-0.37462c0.02642,0.23222 0.04598,0.46347 0.05475,0.6933zM161.13345,186.50023c0.00295,0.09767 0.00331,0.19577 -0.00037,0.29351c0.03696,-0.04497 0.07816,-0.08694 0.12305,-0.12539c-0.0423,-0.05205 -0.0831,-0.10816 -0.12269,-0.16812zM160.89957,187.75182l0.01581,0.00429l-0.22933,0.69129c0.07276,-0.0038 0.14564,-0.00762 0.21866,-0.01142c0.00426,-0.03106 0.00852,-0.06205 0.01278,-0.09298l0.00393,-0.63488c-0.00721,0.0146 -0.01449,0.02917 -0.02184,0.0437zM166.28197,202.91874c0.05093,-0.05975 0.10946,-0.11394 0.17427,-0.16138c-0.12643,-0.21306 -0.22395,-0.44586 -0.29994,-0.69197c-0.01258,0.00885 -0.02538,0.01745 -0.0384,0.02579c-0.04385,0.24226 -0.07867,0.49492 -0.09501,0.76367l-0.01103,0.02298l0.00843,0.00085l-0.04883,0.39742zM154.84912,193.4238c0.3274,-0.06899 0.62161,-0.07697 0.89955,-0.04009c0.26916,-0.00506 0.57054,0.00353 0.89419,0.0356c0.41662,-0.15839 0.90225,-0.23631 1.37521,-0.30507c-0.00511,-0.12011 -0.00959,-0.24014 -0.01337,-0.36014l-1.70132,0.15386c-0.68773,0.26443 -1.16028,0.42429 -1.45427,0.51585zM178.56978,196.14048c-0.44572,-0.14266 -0.87666,-0.26773 -1.29836,-0.38289c-0.13893,0.11758 -0.28625,0.22819 -0.42895,0.32866c0.64265,0.77602 0.7258,1.56739 0.41264,2.28503c0.1436,0.00863 0.28369,0.01406 0.41948,0.01515h1.34828c0.58789,0 1.06447,0.43098 1.06447,0.96262c0,0.53164 -0.47657,0.96262 -1.06447,0.96262h-1.35197v-0.00363l-0.00509,0.00361c-0.1834,-0.00174 -0.38897,-0.00135 -0.61175,-0.00079c-0.28059,0.0389 -0.56948,0.0489 -0.87656,0.04615c-0.23048,0.2387 -0.58776,0.16484 -0.95458,-0.0293c-0.07507,-0.00263 -0.1514,-0.00512 -0.2291,-0.00733c-0.69308,0.25242 -1.41134,0.30499 -2.13075,0.25019c-0.47981,2.39617 -1.15936,4.76201 -1.1616,7.17169l-0.04078,0.07435l0.02992,0.00451l-0.26752,1.45153c-0.07622,0.464 -0.51856,0.81998 -1.05286,0.81998c-0.50658,0 -0.93051,-0.32001 -1.03808,-0.74869l-0.26499,-0.95856l0.21377,-0.04833c-0.11443,-0.22592 -0.21764,-0.45138 -0.31306,-0.67894c-0.11783,0.41563 -0.53483,0.72284 -1.03118,0.72284c-0.50658,0 -0.93051,-0.32001 -1.03808,-0.74869l-0.26499,-0.95856l0.28417,-0.06424c-0.1514,-0.34814 -0.27667,-0.70496 -0.37123,-1.06647l-0.02888,-0.02052c-0.4801,0.94462 -1.19554,1.70754 -1.66665,2.78087l-0.03078,0.02883l0.01262,0.00571l-0.53048,0.95944c-0.17068,0.3256 -0.53746,0.55077 -0.9624,0.55077c-0.51584,0 -0.94599,-0.33182 -1.04366,-0.77231l-0.45729,-1.86089l0.18672,-0.03753c-0.23965,-0.69326 -0.41215,-1.37087 -0.54461,-2.10798c-0.19457,0.22937 -0.50074,0.37726 -0.84511,0.37726c-0.35269,0 -0.66531,-0.15511 -0.85901,-0.39401l-0.48443,-0.58412c-0.00284,0.00002 -0.00569,0.00003 -0.00853,0.00003c-0.58789,0 -1.06447,-0.43098 -1.06447,-0.96262v-1.46714h0.26684c-0.07207,-0.55571 -0.10977,-1.10336 -0.1308,-1.65154c-0.19831,-0.03522 -0.38357,-0.06343 -0.55361,-0.08282c-1.18616,-0.13525 -3.21199,0.46926 -4.20347,-0.37468c-0.5962,-0.50748 -1.60882,-1.28535 -1.21105,-1.93253c0.14988,-0.24385 1.48627,-0.59602 2.89198,-0.90976c-0.31046,-0.06469 -0.59743,-0.1396 -0.84874,-0.22755c-0.8706,-0.30465 -2.24881,-0.4475 -2.418,-1.27771c-0.08236,-0.40409 0.18523,-0.76024 0.57067,-1.06317c-0.33818,-0.31264 -0.55416,-0.7582 -0.57527,-1.39828c-0.01313,-0.39809 0.7192,-0.88098 1.55059,-1.28288c-0.28727,-0.17239 -0.47666,-0.46753 -0.47666,-0.80267c0,-0.25627 0.11073,-0.48914 0.29129,-0.66163c-0.13004,-0.15963 -0.2069,-0.35689 -0.2069,-0.57038c0,-0.49614 0.41506,-0.90462 0.9483,-0.95695l2.09915,-0.23359l0.00242,0.01778l0.06246,-0.02319c0.62071,-0.00051 1.27012,-0.01699 1.94078,-0.04249v-1.44194c0,-0.41404 0.28906,-0.76703 0.69464,-0.90293c-0.00691,-1.01101 0.36315,-1.99068 1.55129,-2.24798c0.77785,-0.16845 1.72856,1.61571 2.134,0.9922c0.32394,-0.49818 0.21774,-1.15629 0.48718,-1.67817v-0.80909c0,-0.53164 0.47657,-0.96262 1.06447,-0.96262c0.52324,0 0.9583,0.34141 1.04766,0.79132l0.10181,0.46033c0.19184,-0.16926 0.4541,-0.27355 0.74329,-0.27355c0.32545,0 0.61679,0.13208 0.81205,0.34021l0.31675,-1.07298c0.11333,-0.42146 0.53344,-0.73436 1.03436,-0.73436c0.47884,0 0.88383,0.28592 1.0176,0.67927l0.66546,1.80539l-0.00609,0.00183c0.26406,0.52121 0.43872,1.0808 0.45264,1.73006c0.0108,0.05499 0.01643,0.1116 0.01643,0.16941v0.83631c0.26492,-0.32905 0.45824,-0.94248 0.79951,-0.79571c0.37995,0.1634 0.63194,0.46037 0.83952,0.8037c0.19525,-0.20787 0.48641,-0.33977 0.81164,-0.33977c0.58789,0 1.06447,0.43098 1.06447,0.96262v1.02099c0.42803,0.09448 0.75463,0.42301 0.80455,0.82714c0.14018,0.07058 0.26089,0.16897 0.35301,0.28692c0.39804,0.07372 0.79459,0.15846 1.19304,0.25499l0.02723,-0.18061l2.09444,0.25828c0.52712,0.05752 0.93561,0.46344 0.93561,0.95564c0,0.43664 -0.32146,0.80537 -0.76204,0.92322l-1.50439,0.43712l-0.00064,-0.00179l-0.00565,0.0036c-0.01711,0.00472 -0.03439,0.0096 -0.05183,0.0146l0.49183,0.14826c0.43497,0.12097 0.75114,0.48722 0.75114,0.92024c0,0.38428 -0.249,0.71597 -0.60904,0.87032l-0.25042,0.11324c0.20377,0.05578 0.41315,0.12038 0.6304,0.19075l0.02123,-0.0864l2.05776,0.41353c0.48709,0.08834 0.85402,0.47732 0.85402,0.94381c0,0.53164 -0.47657,0.96262 -1.06447,0.96262h-1.08158v-0.08062zM164.36039,188.28593c0.09023,-0.48562 0.19982,-0.9611 0.33216,-1.42309c-0.0002,0 -0.0004,0 -0.0006,0c-0.34185,0 -0.64605,-0.14573 -0.84081,-0.37223c-0.33893,0.20577 -0.63733,0.35831 -0.90206,0.46238c0.06629,0.1255 0.1034,0.26601 0.1034,0.41437v0.96449c0.43497,-0.01822 0.87147,-0.03402 1.30791,-0.04591zM170.21454,188.35445c0.0002,0.0019 0.0004,0.00381 0.0006,0.00571c0.0323,0.05148 0.0595,0.10591 0.08098,0.16274c0.12123,0.01705 0.24179,0.03509 0.36162,0.05415v-0.72065h0.02427c-0.02069,-1.34072 0.09456,0.04114 -0.46747,0.49805zM160.11515,193.0895c0.10177,0.01417 0.20525,0.02953 0.30935,0.04584c0.03694,-0.63117 0.08701,-1.2568 0.14605,-1.87106h-0.4461c-0.0228,0.60949 -0.02275,1.21755 -0.00929,1.82522zM170.4374,192.12424c0.00169,0.08386 0.00219,0.16678 0.00115,0.24886c0.05778,-0.02592 0.11854,-0.04725 0.18168,-0.06343c-0.06938,-0.05436 -0.1309,-0.1167 -0.18284,-0.18543zM168.03707,184.97295c-0.06783,0.10073 -0.13755,0.20055 -0.20899,0.29945l0.22961,0.11447l-0.31951,0.52409c0.06898,0.27427 0.14259,0.54563 0.21991,0.81486l0.16128,-0.84664c-0.04328,-0.30018 -0.0703,-0.60647 -0.0823,-0.90624zM160.22783,195.6995c0.00134,0.00194 0.00267,0.00388 0.004,0.00583l0.12514,0.01611c-0.00195,-0.19608 -0.00211,-0.3924 -0.00062,-0.58875c-0.0522,-0.00228 -0.10525,-0.00432 -0.15895,-0.00615c0.00995,0.1909 0.02019,0.38188 0.03042,0.57297zM160.32949,197.92502c0.00742,0.245 0.01299,0.49038 0.01614,0.73621c0.06667,0.01326 0.13302,0.0265 0.19901,0.03969c-0.03333,-0.26859 -0.06181,-0.5394 -0.08578,-0.81194c-0.04311,0.01212 -0.08623,0.02413 -0.12938,0.03603zM170.53341,190.57722c-0.05711,0.00868 -0.11437,0.01713 -0.17179,0.02534c0.00622,0.17487 0.01523,0.34511 0.02493,0.51124c0.15309,-0.24833 0.42422,-0.42901 0.74477,-0.47999c-0.21037,-0.00035 -0.40932,-0.01553 -0.59791,-0.0566zM173.90376,198.10925c-0.1062,-0.03536 -0.21524,-0.06344 -0.32639,-0.0861c-0.04464,0.04269 -0.09356,0.0817 -0.14614,0.11645c0.1544,-0.01646 0.31221,-0.02614 0.47252,-0.03035zM160.44662,200.84918c-0.00272,0.28973 -0.03733,0.56407 -0.1377,0.82114c0.0775,0.03585 0.1495,0.08004 0.21456,0.13126l0.12967,-0.23452v-0.66852c-0.06928,-0.01655 -0.13813,-0.03301 -0.20652,-0.04936z" data-paper-data="{&quot;index&quot;:null}" fill="#9b00c4" stroke="none" stroke-width="0.5" stroke-linecap="butt"></path><path d="M162.6429,212.77501c0.28577,-0.88466 0.63836,-1.58745 1.1205,-2.27914l-0.16444,-0.07435l0.94177,-1.70334c0.17068,-0.3256 0.53746,-0.55077 0.9624,-0.55077c0.08816,0 0.17383,0.0097 0.25576,0.02796l0.50761,-0.61205c0.1937,-0.2389 0.50632,-0.39401 0.85901,-0.39401c0.57063,0 1.03638,0.40604 1.06324,0.91606l0.07498,1.2339c0.00452,0.01834 0.00905,0.0368 0.01357,0.05535c0.19492,-0.5576 0.39828,-1.09954 0.61742,-1.6394l-0.11518,-0.01302l0.26231,-1.8977c0.05872,-0.48142 0.51,-0.85589 1.05799,-0.85589c0.58789,0 1.06447,0.43098 1.06447,0.96262c0,2.36374 0,5.70557 0,8.0693c0,0 0,0.96262 -1.06447,0.96262c-1.06447,0 -1.06447,-0.96262 -1.06447,-0.96262c0,-0.35243 0,-0.70485 0,-1.05728l-0.13629,0.2465c-0.17068,0.3256 -0.53746,0.55077 -0.9624,0.55077c-0.53429,0 -0.97664,-0.35598 -1.05286,-0.81998l-0.26752,-1.45153l0.12849,-0.01937c-0.06113,-0.15976 -0.11994,-0.32018 -0.17623,-0.48126c-0.00032,0.00067 -0.00065,0.00134 -0.00097,0.00201v0.82941v0c0,0.53164 -0.47657,0.96262 -1.06447,0.96262c-0.20075,0 -0.38851,-0.05026 -0.54875,-0.13761c-0.19867,0.56279 -0.42826,1.14118 -0.56991,1.80583l-1.31381,-0.57261l-0.77517,0.20141c0.03737,-0.16912 0.07569,-0.33192 0.11521,-0.48906l-0.13518,-0.05892c0,0 0,-0.47364 0.36739,-0.75645z" data-paper-data="{&quot;index&quot;:null}" fill="#bd00f2" stroke="none" stroke-width="0.5" stroke-linecap="butt"></path><path d="M163.66395,192.59193c0.14481,-1.05895 0.4018,-2.68334 0.63007,-2.795c1.01998,-0.49892 5.63241,0.69397 6.66807,2.24707c0.15763,-0.14766 0.39691,-0.25973 0.7601,-0.25973c1.06447,0 1.06447,0.96262 1.06447,0.96262c-0.00542,0.38504 -0.03548,0.7963 -0.08654,1.22673c0.91992,0.26882 1.39652,0.88892 0.08428,2.35091c-0.16446,0.18323 -0.37532,0.30843 -0.61258,0.40024c-0.59351,2.3576 -1.5217,4.83969 -2.35459,6.60741c-0.55358,1.17491 -1.45032,2.49311 -3.28852,1.45995c-0.61562,-0.346 -0.73112,-1.14122 -0.96911,-1.76035c-0.24676,-0.64196 -0.48187,-1.308 -0.70315,-1.98362c-0.1878,0.15035 -0.43476,0.24163 -0.70531,0.24163c-0.26575,0 -0.50875,-0.08807 -0.69527,-0.23369l-0.5563,0.17367c-0.11546,0.03881 -0.2404,0.06001 -0.3708,0.06001c-0.58789,0 -1.06447,-0.43098 -1.06447,-0.96262c0,-0.35679 0.21465,-0.66824 0.53354,-0.83452l1.11836,-0.60681c0.00164,-0.01377 0.00336,-0.02753 0.00513,-0.04128h-0.32217c-0.58789,0 -1.06447,-0.43098 -1.06447,-0.96262c0,-0.32185 0.17467,-0.60681 0.44295,-0.78159c-0.13199,-0.08697 -0.2281,-0.18572 -0.27696,-0.29538c-0.23195,-0.5206 0.24372,-1.25307 0.97707,-2.01291l-0.99151,0.12809c-0.05493,0.00791 -0.11127,0.01201 -0.16866,0.01201c-0.58789,0 -1.06447,-0.43098 -1.06447,-0.96262c0,-0.48317 0.39364,-0.8832 0.90673,-0.95213l1.6051,-0.24193l0.00624,0.03386l0.00006,-0.00001c0.16297,-0.07493 0.32712,-0.14755 0.49267,-0.21739zM166.8812,199.86744c0.15894,0.38481 0.31528,0.77038 0.45262,1.16098c0.16814,0.47822 0.18729,0.98923 0.27599,1.48458c0.03859,0.21554 0.01299,0.86791 0.0561,0.65307c0.25546,-1.27321 0.75706,-2.59391 1.27773,-3.92697l-0.69552,0.25159l-0.08526,-0.19276c-0.42103,0.20569 -0.84272,0.39185 -1.28166,0.5695zM165.63067,191.29542c-0.18202,0.03422 0.21585,0.25298 0.2897,0.43109l0.45751,-0.20686c-0.31199,-0.15867 -0.57935,-0.25578 -0.74721,-0.22423zM168.70268,192.81695c-0.05608,-0.01328 -0.12025,-0.03582 -0.1911,-0.06594l-0.4623,0.29258c0.52656,-0.09616 0.84739,-0.18073 0.6534,-0.22664zM167.69339,195.82363c0.02113,-0.0062 0.04226,-0.01238 0.06341,-0.01854c-0.03247,-0.00313 -0.06496,-0.00639 -0.09746,-0.00977c0.01139,0.00927 0.02275,0.01871 0.03406,0.02832z" data-paper-data="{&quot;index&quot;:null}" fill="#da7af5" stroke="none" stroke-width="0.5" stroke-linecap="butt"></path><path d="M167.7328,193.74817l-0.2065,-0.21342l1.5983,-1.26471c0.18774,-0.15013 0.43452,-0.24125 0.70484,-0.24125c0.58789,0 1.06447,0.43098 1.06447,0.96262v0.9781h-0.06063l0.04689,0.1542c-0.79837,2.23583 -0.87359,4.11071 -3.2385,4.61218l-0.0041,0.02223c-0.07622,0.464 -0.51856,0.81998 -1.05286,0.81998c-0.58789,0 -1.06447,-0.43098 -1.06447,-0.96262v-1.46714h0.11068l-0.08081,-0.22643c0.17775,-0.32652 0.33853,-0.62158 0.48956,-0.89106c0.00703,-0.10061 0.02109,-0.19918 0.04203,-0.29392l0.26653,-1.20513c0.08936,-0.44992 0.52442,-0.79132 1.04766,-0.79132c0.10473,0 0.20592,0.01368 0.30152,0.03916c0.01173,-0.0105 0.02352,-0.02099 0.03539,-0.03146z" data-paper-data="{&quot;index&quot;:null}" fill="#e6b0f5" stroke="none" stroke-width="0.5" stroke-linecap="butt"></path><path d="M304.12629,185.28321c-0.05509,0.56303 -0.1824,1.071 -0.46561,1.6081l0.00076,0.00936l0.46446,0.05449l-0.40419,1.18553c-0.13552,0.4426 -0.79529,0.77845 -1.58878,0.77845c-0.86873,0 -1.57717,-0.40255 -1.61286,-0.90703l-0.10388,-1.27064c-0.03103,-0.10173 -0.06434,-0.20257 -0.09921,-0.30261c-0.19768,0.26174 -0.68677,0.6659 -1.78108,0.53751c-1.58292,-0.18571 -1.26633,-1.11429 -1.26633,-1.11429c0.37895,-1.1115 0.79707,-2.12578 0.79426,-3.26005l0.06107,-0.07321l-0.04461,-0.00436l0.4057,-1.42793c0.11558,-0.45645 0.78641,-0.80664 1.59666,-0.80664c0.43663,0 0.83278,0.1017 1.12336,0.26691c0.2903,-0.25111 0.78077,-0.41611 1.33696,-0.41611c0.80461,0 1.47172,0.34532 1.59417,0.7971l0.40519,1.33592l-0.2974,0.03104c0.19778,0.35726 0.32013,0.72277 0.32236,1.09703v1.20274c0,0 0,0.3987 -0.441,0.67869z" data-paper-data="{&quot;index&quot;:null}" fill="#bd00f2" stroke="none" stroke-width="0.5" stroke-linecap="butt"></path><path d="M339.44785,193.00844c-0.13986,-0.00008 -0.27639,-0.00028 -0.40992,-0.00064l-0.00014,0.00064c0,0 -0.01388,0 -0.03907,-0.00076c-1.0587,-0.00314 -1.92977,-0.0163 -2.77892,-0.0503l0.01862,0.13105l-3.19857,0.15636c-0.05031,0.00277 -0.10131,0.00419 -0.15286,0.00419c-0.66453,0 -1.23529,-0.23555 -1.48285,-0.5721c-4.03685,0.5781 -8.0138,1.27152 -12.14241,1.75645c0,0 -1.58291,0.18572 -1.8995,-0.74286c-0.31659,-0.92857 1.26633,-1.11429 1.26633,-1.11429c6.59419,-0.77276 12.80201,-2.05149 19.47065,-2.59807c0.13423,-0.01677 0.27018,-0.02802 0.40822,-0.03248c0.11638,-0.00898 0.23291,-0.01774 0.34959,-0.02626l0.01913,0.02919c0.02598,0.00114 0.05191,0.00248 0.07779,0.00398l-0.00027,-0.03513l0.08412,-0.00022v-0.00542h2.05027c0.89154,0 1.61426,0.42397 1.61426,0.94697c0,0.52175 -0.71929,0.94494 -1.6079,0.94696l-1.79726,0.00476l-0.05434,0.25102z" data-paper-data="{&quot;index&quot;:null}" fill="#bd00f2" stroke="none" stroke-width="0.5" stroke-linecap="butt"></path><path d="M304.77872,200.70155c-0.03959,0.16611 -0.08683,0.33259 -0.14317,0.50072h0.34177v0.96219c0,0.523 -0.72273,0.94697 -1.61426,0.94697c-0.71437,0 -1.32036,-0.27221 -1.533,-0.64947l-0.7781,-1.27915l0.02053,-0.0043l-0.04016,-0.03005c-0.05173,-0.1267 -0.10936,-0.25276 -0.16861,-0.37867c-0.29121,0.63517 -0.74452,1.2465 -1.35957,1.78364c-0.03053,0.02667 -0.06157,0.05309 -0.0931,0.07929l0.01831,0.00622l-1.0346,1.04827c0.01374,0.29356 0.02146,0.5877 0.0217,0.88272c0,0 0,0.94697 -1.61426,0.94697c-1.61426,0 -1.61426,-0.94697 -1.61426,-0.94697c0.00021,-0.23371 -0.00466,-0.46684 -0.01375,-0.69955c-0.03164,-0.04853 -0.05667,-0.09898 -0.07444,-0.15097l-0.69348,-1.83062l0.04508,-0.00588l-0.07388,-0.09622c-0.00323,-0.52841 0.08672,-1.05454 0.2377,-1.57706h-0.24733v-1.89393c0,-0.523 0.72273,-0.94697 1.61426,-0.94697c0.82216,0 1.50078,0.36056 1.6014,0.82683l0.18765,0.77057c0.83597,-1.10022 2.17791,-1.82199 3.9462,-1.17424c0.01949,-0.13517 0.03146,-0.26204 0.03146,-0.37749v-1.02309c0,-0.523 0.72273,-0.94697 1.61426,-0.94697c0.75017,0 1.38083,0.30018 1.56196,0.70694l0.81031,1.66371l-0.24072,0.04035c0.29745,0.39941 0.53572,0.81047 0.68154,1.23683l0.03134,0.66681c0,0 0,0.87296 -1.42877,0.94257z" data-paper-data="{&quot;index&quot;:null}" fill="#bd00f2" stroke="none" stroke-width="0.5" stroke-linecap="butt"></path><path d="M274.8589,192.52563c-0.60739,-0.08086 -1.08468,-0.36263 -1.21811,-0.71992h-1.44181c-0.89154,0 -1.61426,-0.42397 -1.61426,-0.94697c0,-0.47908 0.60645,-0.87507 1.39358,-0.93819l3.16621,-0.28575l0.05414,0.20643c2.03306,-0.33731 3.93098,-0.41055 6.84163,-0.41055h1.64022c0,0 1.42643,0 1.59754,0.78658c0.26496,0.1687 0.42679,0.394 0.42679,0.64147c0,0.30108 -0.23953,0.56935 -0.6129,0.7428c0.12923,0.13618 0.20285,0.29301 0.20285,0.45994c0,0.45496 -0.54694,0.83498 -1.27613,0.92616l-2.08628,0.28823l-0.00972,-0.02422l-0.09442,0.0365c-0.13055,0.00696 -0.26196,0.0142 -0.39402,0.02137c0.31034,0.07514 0.62033,0.15078 0.93001,0.22686l3.1355,0.22992c0.80731,0.05223 1.43529,0.4537 1.43529,0.94121c0,0.47532 -0.59695,0.86884 -1.37506,0.93664l-2.43414,0.23799l-0.00384,-0.01349l-0.06166,0.01909c-0.07472,0.00369 -0.15004,0.00775 -0.22591,0.01216c0.00004,0.00344 0.00006,0.00689 0.00006,0.01036c0,0.94697 -1.61426,0.94697 -1.61426,0.94697c-3.35125,-0.00342 -6.51467,0.47516 -9.84129,0.4811h-1.64022c-0.89154,0 -1.61426,-0.42397 -1.61426,-0.94697c0,-0.44007 0.51171,-0.81003 1.20511,-0.91628l3.06999,-0.51455l0.11076,0.22743c1.48395,-0.35371 2.93221,-0.59313 4.47716,-0.76804l-1.37773,-0.21903c-0.70388,-0.10201 -1.22578,-0.47494 -1.22578,-0.91937c0,-0.29795 0.23457,-0.56376 0.60128,-0.73735l-0.12627,-0.01852z" data-paper-data="{&quot;index&quot;:null}" fill="#bd00f2" stroke="none" stroke-width="0.5" stroke-linecap="butt"></path><path d="M302.99175,189.58667c-0.08153,-0.06366 -0.20368,-0.13895 -0.26382,-0.20973c-0.28139,0.13998 -0.64562,0.2244 -1.04345,0.2244c-0.10198,0 -0.20176,-0.00555 -0.2985,-0.01616l-0.01077,0.0221c0.53804,-0.01014 1.07699,-0.01678 1.61654,-0.02062zM289.03715,198.24682c-3.90103,-0.12585 -7.771,-0.30139 -11.54174,-0.42743h-1.60593c-0.89154,0 -1.61426,-0.42397 -1.61426,-0.94697c0,-0.50295 0.66841,-0.91433 1.51255,-0.94512l1.93114,-0.08092l-2.06863,-0.20225c-0.7781,-0.0678 -1.37506,-0.46132 -1.37506,-0.93664c0,-0.16692 0.07362,-0.32376 0.20285,-0.45994c-0.37337,-0.17345 -0.6129,-0.44171 -0.6129,-0.7428c0,-0.50051 0.6619,-0.91031 1.50022,-0.94464l3.20357,-0.15034l0.03019,0.22139c0.06137,0.00435 0.12265,0.00866 0.18386,0.01293c0.52059,-0.06753 1.04146,-0.12721 1.56289,-0.17994l-1.56052,-0.5404c-0.48941,-0.16266 -0.81966,-0.47095 -0.81966,-0.82448c0,-0.18199 0.08752,-0.352 0.23921,-0.49632h-0.26517c-0.89154,0 -1.61426,-0.42397 -1.61426,-0.94697c0,-0.48751 0.62797,-0.88897 1.43529,-0.94121l1.02765,-0.07536c0.04466,-0.4627 0.65559,-0.83656 1.43267,-0.88684l3.18235,-0.23336l0.05868,0.2754c0.01559,0.00052 0.03117,0.00102 0.04676,0.00154c2.69621,-0.39817 5.50229,-0.59242 8.3526,-0.67362c0.28922,-0.27064 0.58181,-0.53427 0.86615,-0.78752v-0.76835c0,-0.523 0.72273,-0.94697 1.61426,-0.94697c0.06748,0 0.13398,0.00242 0.19929,0.00714l0.71783,-1.2633c0.20287,-0.38695 0.81704,-0.66822 1.5432,-0.66822c0.75017,0 1.38083,0.30018 1.56196,0.70694l0.81031,1.66371l-0.38534,0.06459c0.01062,0.01738 0.02115,0.03477 0.03161,0.05218c0.90594,0.21579 1.67233,0.91954 2.54478,1.25241l0.0163,0.13931l0.01504,-0.00505c0.04609,-0.41804 0.18374,-0.83394 0.39653,-1.22724l0.39096,-1.14675c0.13552,-0.4426 0.79529,-0.77845 1.58878,-0.77845c0.51004,0 0.96485,0.13876 1.26068,0.35545c0.00079,-0.1177 -0.00054,-0.23562 -0.00431,-0.35378c-0.05775,-1.81068 -0.4456,-3.51058 -0.27883,-5.17519c-0.04614,-0.3547 -0.08997,-0.70927 -0.13052,-1.06371l0.09719,-0.03184h-0.09811l-0.00001,-0.48149h-0.00003v-0.96219c0,-0.523 0.72273,-0.94697 1.61426,-0.94697c0.89153,0 1.61425,0.42396 1.61426,0.94695v0l0.00004,1.35897c0.62427,0.51975 0.44653,1.45205 0.31293,2.33048c0.39614,2.56042 0.90046,5.17524 1.05714,7.77082c6.33355,-0.12772 12.78134,-0.22456 18.84456,0.3418h1.54414c0.89154,0 1.61426,0.42397 1.61426,0.94697c0,0.01118 -0.00032,0.02232 -0.00098,0.0334c1.52912,-0.00886 3.0588,-0.01459 4.58943,-0.01695v-0.00123h3.22853c0.89154,0 1.61426,0.42397 1.61426,0.94697c0,0.523 -0.72273,0.94697 -1.61426,0.94697h-1.64022c-0.79233,0 -1.58436,0.00094 -2.37615,0.00279c-1.59776,0.34457 -3.35631,0.29407 -5.44686,0.43073c-0.54233,0.03545 -1.08436,0.07078 -1.62613,0.10615c0.70204,0.10278 1.22211,0.47517 1.22211,0.91883c0,0.4823 -0.61463,0.88039 -1.40947,0.93942l-2.84688,0.23857l-0.05672,-0.2329c-2.45878,0.40533 -4.98401,0.65135 -7.53243,0.86133c0.22751,0.1632 0.36398,0.37177 0.36398,0.59904c0,0.07727 -0.01578,0.15238 -0.04555,0.22428c0.1677,0.01633 0.33104,0.03161 0.48961,0.04569l0.24084,0.16002l0.07404,-0.06663l1.35678,0.51879c0.45343,0.16767 0.75466,0.46404 0.75466,0.80169c0,0.46548 -0.57251,0.85253 -1.327,0.93202l-3.1365,0.36799l-0.05583,-0.16376c-4.09454,0.72318 -8.34846,1.09652 -12.6674,1.25734c-0.16553,1.40783 0.39411,3.16424 -3.46007,3.35905c-0.03926,0.00198 -0.0781,0.00388 -0.11652,0.00569l-0.15714,0.82966c-0.07982,0.47924 -0.76862,0.85375 -1.60654,0.85375c-0.79189,0 -1.45062,-0.3345 -1.58796,-0.77578l-0.43171,-1.24653c-0.10349,-0.18792 -1.09195,-1.98224 -1.62403,-2.95106c-0.4934,-0.00755 -0.98679,-0.0166 -1.48006,-0.02696l-0.75883,1.03868c-0.23856,0.34818 -0.81954,0.594 -1.4984,0.594c-0.89154,0 -1.61426,-0.42397 -1.61426,-0.94697v-0.79053zM299.18106,195.67668c0.5761,0.00518 1.15017,0.00823 1.72171,0.00823h1.2778c0.07836,-0.05951 0.15729,-0.1196 0.23624,-0.18137l-2.0337,-0.09177c-0.45748,-0.01799 -0.86277,-0.14779 -1.13711,-0.34323c-1.02678,0.04284 -2.09455,0.08183 -3.14664,0.09234c0.00537,0.00477 0.01074,0.00955 0.01612,0.01434c1.01922,0.17275 2.04243,0.33363 3.0656,0.50145zM283.4891,191.26424c1.16611,0.26653 2.33149,0.43996 3.49785,0.56476c-0.00004,-0.00268 -0.00005,-0.00536 -0.00005,-0.00805c0,-0.26158 0.1808,-0.4984 0.4731,-0.66978c-1.32487,0.07543 -2.65475,0.12784 -3.9709,0.11308zM300.22204,198.38527c-0.10716,0.00163 -0.21436,0.00314 -0.32159,0.00455c0.00049,0.00061 0.00099,0.00122 0.00149,0.00183l0.18485,0.21688c0.04241,-0.07392 0.08824,-0.14853 0.13525,-0.22326z" data-paper-data="{&quot;index&quot;:null}" fill="#9b00c4" stroke="none" stroke-width="0.5" stroke-linecap="butt"></path><path d="M301.72867,196.55201c-0.47711,0.3052 -1.23595,0.3052 -1.23595,0.3052l-0.80157,-0.02827c-0.85674,-0.12998 -1.72016,-0.27588 -2.56256,-0.45282h-0.62741l-0.09046,0.21227l-1.60746,-0.23574c-0.71886,-0.0957 -1.25551,-0.47283 -1.25551,-0.9235c0,-0.28954 0.22152,-0.54872 0.57053,-0.72242c-3.6403,0.09114 -7.33616,0.09739 -10.67381,-0.25499c-0.62205,0 -1.24409,0 -1.86614,0c-0.08478,0 -3.14375,0 -3.22853,0c-0.89154,0 -1.61426,-0.42397 -1.61426,-0.94697c0,-0.523 0.72273,-0.94697 1.61426,-0.94697h3.22853c0.62205,0 1.24409,0 1.86614,0c0.52803,-0.05575 1.06503,-0.10252 1.60936,-0.1414c-0.07559,-0.10961 -0.11721,-0.22942 -0.11721,-0.35492c0,-0.523 0.72273,-0.94697 1.61426,-0.94697h1.69212c1.54529,0.00064 3.07175,-0.05925 4.58419,-0.14864c0.1315,-0.03683 0.27282,-0.06352 0.42105,-0.07836l3.14301,-0.3512l0.0562,0.17308c0.1893,-0.0148 0.37842,-0.02968 0.56741,-0.04458c3.5749,-0.63621 7.00281,-0.74884 11.32077,-0.75292v-0.00012h3.22853c0.89154,0 1.61426,0.42397 1.61426,0.94697c0,0.523 -0.72273,0.94697 -1.61426,0.94697h-2.97419c-0.43384,0 -0.90063,0.01311 -1.39195,0.03482c-0.42766,0.05603 -0.88274,0.08576 -1.40981,0.11907c0.00611,0.03348 0.00923,0.06746 0.00923,0.10189c0,0.18199 -0.08752,0.352 -0.23921,0.49632h0.26517c0.89154,0 1.61426,0.42397 1.61426,0.94697c0,0.1624 -0.06968,0.31525 -0.19247,0.44882l0.78954,0.05215c0.81591,0.04742 1.4532,0.4512 1.4532,0.94231c0,0.37803 -0.3776,0.70432 -0.92362,0.85616l-1.60893,0.47192l-0.02953,-0.03465c-0.10375,0.03927 -0.21075,0.07586 -0.32151,0.10929c-1.01458,0.30624 -2.97511,0.28374 -4.87569,0.20123z" data-paper-data="{&quot;index&quot;:null}" fill="#da7af5" stroke="none" stroke-width="0.5" stroke-linecap="butt"></path><path d="M300.9028,193.97064c-3.03806,0 -6.00843,-0.01298 -9.03913,-0.15886l-1.73987,-0.08417c-0.83664,-0.03533 -1.49668,-0.4447 -1.49668,-0.94449c0,-0.523 0.72273,-0.94697 1.61426,-0.94697h2.46032v0.11433c0.27809,0.01196 0.55572,0.0228 0.833,0.03261c1.87678,-0.15165 3.73125,-0.14693 6.13792,-0.14693h1.23016c0,0 1.61426,0 1.61426,0.94697c0,0.04192 -0.00316,0.08198 -0.00921,0.12027c0.00604,0.03829 0.00921,0.07836 0.00921,0.12027c0,0.94697 -1.61426,0.94697 -1.61426,0.94697z" data-paper-data="{&quot;index&quot;:null}" fill="#e6b0f5" stroke="none" stroke-width="0.5" stroke-linecap="butt"></path></g></g></svg>