<svg version="1.1" xmlns="http://www.w3.org/2000/svg" xmlns:xlink="http://www.w3.org/1999/xlink" width="52.125" height="52.75" viewBox="0,0,52.125,52.75"><g transform="translate(-213.9375,-153.625)"><g data-paper-data="{&quot;isPaintingLayer&quot;:true}" fill-rule="nonzero" stroke="none" stroke-width="0" stroke-linejoin="miter" stroke-miterlimit="10" stroke-dasharray="" stroke-dashoffset="0" style="mix-blend-mode: normal"><path d="M266.0625,180c0,14.56651 -11.66858,26.375 -26.0625,26.375c-14.39392,0 -26.0625,-11.80849 -26.0625,-26.375c0,-14.56651 11.66858,-26.375 26.0625,-26.375c14.39392,0 26.0625,11.80849 26.0625,26.375z" fill="#dc92ff" stroke-linecap="butt"></path><path d="M223.4375,180c0,-9.14722 7.41528,-16.5625 16.5625,-16.5625c9.14722,0 16.5625,7.41528 16.5625,16.5625c0,9.14722 -7.41528,16.5625 -16.5625,16.5625c-9.14722,0 -16.5625,-7.41528 -16.5625,-16.5625z" fill="#b71fff" stroke-linecap="butt"></path><path d="M240.0868,154.70703l-4.75,10.25h8.75z" fill="#b71fff" stroke-linecap="round"></path><path d="M239.58681,204.70703l-4.75,-10.25h8.75z" data-paper-data="{&quot;index&quot;:null}" fill="#b71fff" stroke-linecap="round"></path></g></g></svg>