<svg version="1.1" xmlns="http://www.w3.org/2000/svg" xmlns:xlink="http://www.w3.org/1999/xlink" width="39.00203" height="32.2838" viewBox="0,0,39.00203,32.2838"><defs><linearGradient x1="245.20561" y1="187.72432" x2="234.42461" y2="170.24619" gradientUnits="userSpaceOnUse" id="color-1"><stop offset="0" stop-color="#eccdff"></stop><stop offset="1" stop-color="#b1b9ff"></stop></linearGradient></defs><g transform="translate(-220.60228,-164.06909)"><g data-paper-data="{&quot;isPaintingLayer&quot;:true}" fill-rule="nonzero" stroke-linejoin="miter" stroke-miterlimit="10" stroke-dasharray="" stroke-dashoffset="0" style="mix-blend-mode: normal"><path d="M252.62677,188.54034c-6.15425,3.50724 -27.51164,11.14546 -31.01889,4.99122c-3.50724,-6.15425 12.16375,-23.7705 18.318,-27.27775c6.15425,-3.50724 13.98647,-1.36145 17.49371,4.79283c3.50724,6.15425 1.36145,13.98647 -4.79283,17.49371z" fill="#eccdff" stroke="#b000ff" stroke-width="1" stroke-linecap="butt"></path><path d="" data-paper-data="{&quot;index&quot;:null}" fill="none" stroke="#000000" stroke-width="1.5" stroke-linecap="round"></path><path d="M250.56891,184.4087c-4.9271,2.80791 -22.02576,8.92305 -24.83365,3.99596c-2.80791,-4.9271 9.73827,-19.0306 14.66537,-21.8385c4.9271,-2.80791 11.19752,-1.08994 14.00542,3.83712c2.80791,4.9271 1.08994,11.19752 -3.83712,14.00542z" fill="url(#color-1)" stroke="none" stroke-width="NaN" stroke-linecap="butt"></path></g></g></svg>