<svg version="1.1" xmlns="http://www.w3.org/2000/svg" xmlns:xlink="http://www.w3.org/1999/xlink" width="132.54318" height="80.75991" viewBox="0,0,132.54318,80.75991"><g transform="translate(-147.70682,-139.49009)"><g data-paper-data="{&quot;isPaintingLayer&quot;:true}" fill-rule="nonzero" stroke-linejoin="miter" stroke-miterlimit="10" stroke-dasharray="" stroke-dashoffset="0" style="mix-blend-mode: normal"><g><path d="M200.5,180c0,-21.81525 17.68475,-39.5 39.5,-39.5c21.81525,0 39.5,17.68475 39.5,39.5c0,21.81525 -17.68475,39.5 -39.5,39.5c-21.81525,0 -39.5,-17.68475 -39.5,-39.5z" fill="#205fa7" stroke="#000000" stroke-width="1.5" stroke-linecap="butt"></path><path d="M267.80711,142.99009l-31.11024,20.74016l-27.99921,-20.22165" fill="none" stroke="#e2ff00" stroke-width="7" stroke-linecap="round"></path><path d="M213.42302,180.00685v-21.02353l21.15664,11.47952l23.22616,-11.47952v21.02353l-23.7633,13.64179z" fill="#edffff" stroke="#e2ff00" stroke-width="0" stroke-linecap="butt"></path><path d="M230.96621,174.0709c0,0 -2.29297,11.0872 -4.2313,11.0872c-0.48691,0 -1.41121,-0.56056 -1.85114,-1.87803c-1.31137,-3.92718 -1.13185,-14.08369 -1.13185,-14.08369z" fill="#ff0000" stroke="none" stroke-width="0" stroke-linecap="butt"></path><path d="M246.06093,169.14488c0,0 0.17952,10.15651 -1.13184,14.08369c-0.43993,1.31747 -1.36423,1.87803 -1.85115,1.87803c-1.93832,0 -4.2313,-11.0872 -4.2313,-11.0872z" data-paper-data="{&quot;index&quot;:null}" fill="#ff0000" stroke="none" stroke-width="0" stroke-linecap="butt"></path></g><path d="" data-paper-data="{&quot;index&quot;:null}" fill="none" stroke="#000000" stroke-width="1.5" stroke-linecap="round"></path><path d="" data-paper-data="{&quot;index&quot;:null}" fill="none" stroke="#000000" stroke-width="1.5" stroke-linecap="round"></path><g stroke-linecap="butt"><g fill="#d3d3d3" stroke="#000000" stroke-width="1"><path d="M160.92495,198.05671l-0.04044,-17.7524l35.36046,-0.08058l0.04044,17.7524z"></path><path d="M152.67521,187.97248l-0.01743,-7.6494l10.103,-0.02301l0.01743,7.6494z"></path><path d="M148.2234,197.79698l-0.01544,-6.78343l14.57715,-0.0332l0.01544,6.78343z"></path></g><path d="M177.37841,198.0192l-0.04078,-17.89673l5.77313,-0.01316l0.04078,17.89673z" fill="#a0a0a0" stroke="none" stroke-width="0"></path><path d="M185.02746,197.85746l-0.03947,-17.31939l5.34014,-0.01218l0.03947,17.31939z" fill="#a0a0a0" stroke="none" stroke-width="0"></path><path d="M169.15104,197.74931l-0.03912,-17.17506l5.34014,-0.01218l0.03912,17.17506z" fill="#a0a0a0" stroke="none" stroke-width="0"></path></g></g></g></svg>