<svg version="1.1" xmlns="http://www.w3.org/2000/svg" xmlns:xlink="http://www.w3.org/1999/xlink" width="257.6124" height="257.6124" viewBox="0,0,257.6124,257.6124"><defs><radialGradient cx="240" cy="180" r="128.8062" gradientUnits="userSpaceOnUse" id="color-1"><stop offset="0" stop-color="#565656"></stop><stop offset="1" stop-color="#565656" stop-opacity="0"></stop></radialGradient></defs><g transform="translate(-111.1938,-51.1938)"><g data-paper-data="{&quot;isPaintingLayer&quot;:true}" fill-rule="nonzero" stroke-linejoin="miter" stroke-miterlimit="10" stroke-dasharray="" stroke-dashoffset="0" style="mix-blend-mode: normal"><path d="" data-paper-data="{&quot;index&quot;:null}" fill="none" stroke="#000000" stroke-width="1.5" stroke-linecap="round"></path><path d="" data-paper-data="{&quot;index&quot;:null}" fill="none" stroke="#000000" stroke-width="1.5" stroke-linecap="round"></path><path d="M199.48851,178.17395c0,-21.81525 17.68475,-39.5 39.5,-39.5c21.81525,0 39.5,17.68475 39.5,39.5c0,21.81525 -17.68475,39.5 -39.5,39.5c-21.81525,0 -39.5,-17.68475 -39.5,-39.5z" fill="#d8d8d8" stroke="#000000" stroke-width="1.5" stroke-linecap="butt"></path><path d="M248.51132,198.65627l-25.62407,-5.40809c6.59608,-7.87072 28.99925,-0.60801 28.99925,-0.60801z" data-paper-data="{&quot;index&quot;:null}" fill="#000000" stroke="#000000" stroke-width="1.5" stroke-linecap="round"></path><path d="M223.76444,158.89457l6.99536,1.82343v8" fill="none" stroke="#000000" stroke-width="1.5" stroke-linecap="round"></path><path d="M237.86965,170.31049l-0.24149,-8.93527l7.00332,-2.17344" fill="none" stroke="#000000" stroke-width="1.5" stroke-linecap="round"></path><path d="M238.59414,186.12751l16.42158,-6.52033" fill="none" stroke="#000000" stroke-width="1.5" stroke-linecap="round"></path><path d="M241.73356,180.09016l2.89793,5.55436" fill="none" stroke="#000000" stroke-width="1.5" stroke-linecap="round"></path><path d="M250.18584,185.64452l-3.8639,-7.7278" fill="none" stroke="#000000" stroke-width="1.5" stroke-linecap="round"></path><g><path d="M217.85102,136.73418l-9.32352,6.07188l-11.90281,-4.19819l13.40137,-6.67041z" data-paper-data="{&quot;index&quot;:null}" fill="#c6c6c6" stroke="#c6c6c6" stroke-width="1.5" stroke-linecap="round"></path><path d="M257.83434,121.96535" fill="none" stroke="#d8d8d8" stroke-width="4" stroke-linecap="round"></path><path d="M279.88471,134.12444l-52.72495,4.27243l0.23801,-3.86443l52.72495,-4.27243z" fill="#7f7600" stroke="#000000" stroke-width="0" stroke-linecap="butt"></path><path d="M216.0468,138.06208c-1.75464,-1.20398 -0.39497,-3.32598 -0.39497,-3.32598l2.47969,-2.99691c2.77771,-1.20697 5.626,-1.64288 8.33276,-3.04873c1.12193,-0.58269 2.17294,-1.97692 3.32761,-1.85151c1.77647,0.19297 4.03698,0.88708 4.46038,2.69743c0.34968,1.49507 -2.20662,2.59726 -2.86401,4.12802c-0.34624,0.80622 0.36195,1.7062 0.01279,2.51134c-0.26191,0.60391 -1.5714,0.48388 -1.58502,1.11412c-0.02102,0.97319 1.95437,1.29113 1.51323,2.20917c-2.97289,6.18658 -10.35189,3.2207 -14.25022,2.27443c0,0 -2.19387,-0.53312 -1.37511,-2.96592c0.09699,-0.28819 0.21326,-0.53475 0.3429,-0.74549z" fill="#ff0000" stroke="none" stroke-width="0.5" stroke-linecap="butt"></path></g><path d="M111.1938,180c0,-71.1377 57.6685,-128.8062 128.8062,-128.8062c71.1377,0 128.8062,57.6685 128.8062,128.8062c0,71.1377 -57.6685,128.8062 -128.8062,128.8062c-71.1377,0 -128.8062,-57.6685 -128.8062,-128.8062z" fill="url(#color-1)" stroke="none" stroke-width="0" stroke-linecap="butt"></path></g></g></svg>