<svg version="1.1" xmlns="http://www.w3.org/2000/svg" xmlns:xlink="http://www.w3.org/1999/xlink" width="94.71272" height="88.70664" viewBox="0,0,94.71272,88.70664"><g transform="translate(-184.52579,-129.71731)"><g data-paper-data="{&quot;isPaintingLayer&quot;:true}" fill-rule="nonzero" stroke-linejoin="miter" stroke-miterlimit="10" stroke-dasharray="" stroke-dashoffset="0" style="mix-blend-mode: normal"><path d="" data-paper-data="{&quot;index&quot;:null}" fill="none" stroke="#000000" stroke-width="1.5" stroke-linecap="round"></path><path d="M199.48852,178.17395c0,-21.81525 17.68475,-39.5 39.5,-39.5c21.81525,0 39.5,17.68475 39.5,39.5c0,21.81525 -17.68475,39.5 -39.5,39.5c-21.81525,0 -39.5,-17.68475 -39.5,-39.5z" fill="#d8d8d8" stroke="#000000" stroke-width="1.5" stroke-linecap="butt"></path><path d="M253.08519,194.16859c0,0 -22.12613,8.02511 -27.57511,5.13694" data-paper-data="{&quot;index&quot;:null}" fill="none" stroke="#000000" stroke-width="1.5" stroke-linecap="round"></path><path d="M184.5258,194.65338" fill="none" stroke="#d8d8d8" stroke-width="4" stroke-linecap="round"></path><path d="M232.30734,175.42396v-8" fill="none" stroke="#000000" stroke-width="1.5" stroke-linecap="round"></path><path d="M241.28664,173.49279c0,0 1.27486,-2.93117 2.69835,-2.93117c1.20746,0 3.02185,2.93117 3.02185,2.93117" fill="none" stroke="#000000" stroke-width="1.5" stroke-linecap="round"></path><path d="M216.37361,218.34705l0.38636,-56.40911l3.89028,0.02665l-0.38636,56.40911z" fill="#7f7600" stroke="#000000" stroke-width="0" stroke-linecap="butt"></path><path d="M211.31474,151.35724c0,-4.3509 3.5271,-7.87801 7.87801,-7.87801c4.3509,0 7.87801,3.5271 7.87801,7.87801c0,4.3509 -3.5271,7.87801 -7.87801,7.87801c-4.3509,0 -7.87801,-3.5271 -7.87801,-7.87801z" fill="none" stroke="#ffee00" stroke-width="5" stroke-linecap="butt"></path><path d="M215.98319,143.2768c0,0 -0.91162,-10.06844 3.30682,-10.30949c4.21844,-0.24105 2.72326,9.92046 2.72326,9.92046" fill="none" stroke="#ffee00" stroke-width="6.5" stroke-linecap="round"></path><path d="M227.09829,148.77112c0,0 10.06844,-0.91162 10.30949,3.30681c0.24105,4.21843 -9.92046,2.72326 -9.92046,2.72326" fill="none" stroke="#ffee00" stroke-width="6.5" stroke-linecap="round"></path><path d="M221.87804,158.52459c0,0 0.91162,10.06844 -3.30681,10.3095c-4.21844,0.24105 -2.72326,-9.92046 -2.72326,-9.92046" fill="none" stroke="#ffee00" stroke-width="6.5" stroke-linecap="round"></path><path d="M210.45345,153.74697c0,0 -10.06844,0.91162 -10.30949,-3.30682c-0.24106,-4.21843 9.92045,-2.72326 9.92045,-2.72326" fill="none" stroke="#ffee00" stroke-width="6.5" stroke-linecap="round"></path></g></g></svg>