<svg version="1.1" xmlns="http://www.w3.org/2000/svg" xmlns:xlink="http://www.w3.org/1999/xlink" width="288.30482" height="80.5" viewBox="0,0,288.30482,80.5"><g transform="translate(-198.73851,-138.16295)"><g data-paper-data="{&quot;isPaintingLayer&quot;:true}" fill-rule="nonzero" stroke-linecap="butt" stroke-linejoin="miter" stroke-miterlimit="10" stroke-dasharray="" stroke-dashoffset="0" style="mix-blend-mode: normal"><path d="M238.98851,217.91295c-21.81525,0 -39.5,-17.68475 -39.5,-39.5c0,-21.81525 17.68475,-39.5 39.5,-39.5c21.81525,0 39.5,17.68475 39.5,39.5c0,21.81525 -17.68475,39.5 -39.5,39.5z" data-paper-data="{&quot;index&quot;:null}" fill="#000000" stroke="#000000" stroke-width="1.5"></path><g data-paper-data="{&quot;index&quot;:null}" stroke="none" stroke-width="0"><path d="M262.30322,168.50345c7.45315,0 13.49512,5.141 13.49512,5.141c0,0 -6.04197,5.141 -13.49512,5.141c-7.45315,0 -13.49512,-5.141 -13.49512,-5.141c0,0 6.04197,-5.141 13.49512,-5.141z" fill="#ffffff"></path><path d="M262.94584,178.78545c-2.8393,0 -5.141,-2.30171 -5.141,-5.141c0,-2.8393 2.30171,-5.141 5.141,-5.141c2.8393,0 5.141,2.30171 5.141,5.141c0,2.8393 -2.30171,5.141 -5.141,5.141z" fill="#000000"></path></g><g data-paper-data="{&quot;index&quot;:null}" stroke="none" stroke-width="0"><path d="M232.62642,168.6195c7.45315,0 13.49512,5.141 13.49512,5.141c0,0 -6.04197,5.141 -13.49512,5.141c-7.45315,0 -13.49512,-5.141 -13.49512,-5.141c0,0 6.04197,-5.141 13.49512,-5.141z" fill="#ffffff"></path><path d="M233.26904,178.9015c-2.8393,0 -5.141,-2.30171 -5.141,-5.141c0,-2.83929 2.30171,-5.141 5.141,-5.141c2.8393,0 5.141,2.30171 5.141,5.141c0,2.8393 -2.30171,5.141 -5.141,5.141z" fill="#000000"></path></g><path d="M412.04666,173.32192c1.65366,0.39187 3.29861,0.81043 4.94618,1.24274c5.81668,-0.02447 11.63784,-0.15215 17.44835,-0.38944c-3.56053,-0.37343 -7.12037,-0.90163 -10.68392,-0.97664c-3.88007,-0.08167 -7.79071,-0.01417 -11.71062,0.12334zM470.83856,176.56375c-4.98449,0.37713 -9.96379,0.79601 -14.94829,1.2387c-3.40953,0.30282 -6.823,0.55789 -10.23945,0.76992c1.64527,0.11473 3.28613,0.25336 4.92136,0.41796c2.43792,0.2454 4.86934,0.57348 7.30865,0.80088c1.13103,0.06056 2.26534,0.10914 3.40492,0.14174c1.05064,-0.14208 2.14074,-0.47805 3.00083,0.04623c0.04858,0.00007 0.09717,0.0001 0.14577,0.0001c0.82287,0 4.8544,0 4.8544,0c1.38071,0 2.5,1.11929 2.5,2.5c0,1.38071 -1.11929,2.5 -2.5,2.5h-5c-0.64374,0.27769 -3.53407,0.07027 -5.91961,-0.15898c-1.63576,-0.08062 -3.2642,-0.18706 -4.89092,-0.30786c0.00051,0.02075 0.00076,0.04156 0.00076,0.06243c0,1.37678 -1.11293,2.49363 -2.48822,2.49997l-4.94037,0.02667c-4.98513,0.33572 -9.89945,0.66854 -14.89756,0.66563c-0.60744,-0.00053 -1.21509,-0.00151 -1.82295,-0.00294c1.85346,0.34659 3.70719,0.69443 5.56183,1.04021c6.29063,1.17281 12.77342,2.2017 19.06093,3.7716c6.89943,1.17437 13.79584,2.37697 20.68318,3.68009l2.70203,0.51124c1.18034,0.20007 2.07919,1.22743 2.07919,2.46473c0,0.74826 -0.32873,1.41974 -0.84965,1.8779c0.42325,0.1755 0.78785,0.46391 1.05621,0.82767c1.03135,0.34327 2.03369,0.73076 2.81043,1.45724c0.11413,0.10675 0.22508,0.21621 0.33312,0.32814l0.02771,-0.02753l3.52357,3.54662c0.44928,0.45198 0.7269,1.07478 0.7269,1.76242c0,1.38071 -1.11929,2.5 -2.5,2.5h-3.32177c-7.78471,-0.00399 -15.51698,0.97875 -23.28372,1.49752c-11.46187,0.76558 -22.94611,1.21423 -34.42014,1.75469c-11.53279,0.54164 -23.07905,-0.03107 -34.61705,0.23734c-8.35646,0.1944 -16.65785,0.69864 -25.02365,0.69864c-6.8863,0 -13.77267,0.00897 -20.65896,0c-1.79304,-0.00234 -6.03631,0.29186 -8.16002,-0.53678l-4.87526,-0.8922c-1.18714,-0.19436 -2.09302,-1.22491 -2.09302,-2.46704c0,-1.22785 0.88516,-2.24895 2.05218,-2.46l3.41461,-0.68744c0.0155,-0.00325 0.03101,-0.0065 0.04651,-0.00975c-7.97934,0.55038 -15.91621,0.88334 -23.95322,1.00585c-6.64164,0.10124 -13.88621,0.6167 -20.31275,-1.53624l-4.89038,-0.82042c-1.20384,-0.18004 -2.12709,-1.21839 -2.12709,-2.47238c0,-1.17657 0.81278,-2.16331 1.9075,-2.42937l3.17358,-0.84678c8.03508,-2.12116 16.64125,-2.17543 25.04772,-2.49957c-0.19683,-0.35728 -0.30883,-0.76786 -0.30883,-1.20461c0,-1.22785 0.88516,-2.24895 2.05218,-2.46l3.358,-0.67604c8.18573,-2.24924 16.20539,-2.97554 24.62961,-3.94449c1.14725,-0.13196 2.29233,-0.26334 3.43576,-0.39254c-3.36336,-0.32627 -6.67499,-0.73386 -10.02723,-1.5251c-1.76846,-0.41742 -3.77575,-0.28475 -5.30038,-1.27328c-0.12712,-0.08242 -0.24883,-0.17076 -0.36579,-0.26431l-0.03158,0.04706l-2.04863,-1.37473c-0.18729,-0.12181 -0.35724,-0.26803 -0.50535,-0.43414c-1.15665,-0.11436 -1.96488,-0.19489 -1.97162,-0.19732c-0.0483,-0.01734 -0.09646,-0.03497 -0.14451,-0.05287l-0.00539,0.02412l-4.83121,-1.08061c-1.14238,-0.23066 -2.00253,-1.24013 -2.00253,-2.4505c0,-1.38071 1.11929,-2.5 2.5,-2.5h4.16084v0.06961l0.19185,-0.06224c3.67879,0.56322 7.34594,1.19296 11.00554,1.86607c-0.13391,-0.0692 -0.26822,-0.14103 -0.40298,-0.21565l-4.65041,-1.67174c-0.99309,-0.33093 -1.70909,-1.26801 -1.70909,-2.37231c0,-1.38071 1.11929,-2.5 2.5,-2.5h2.35128l2.26003,-0.78657l0.02054,0.05902l0.16837,-0.11651c2.39875,-0.4325 4.79176,-0.8175 7.18239,-1.1581c0.65941,-0.66831 1.60918,-0.77453 1.60918,-0.77453c2.63246,-0.29345 5.25168,-0.39262 7.86174,-0.35022c1.15852,-0.11087 2.31752,-0.21228 3.47738,-0.30459c1.77551,-0.31294 3.55814,-0.57856 5.35641,-0.74647c0.21014,-0.01962 9.65083,-0.00459 9.86426,-0.00924c6.04595,-0.13174 12.09121,-0.70774 18.13857,-0.90565c11.11939,-0.36351 22.48048,-1.33641 33.59564,-1.10244c5.00583,0.10537 9.99845,1.0907 15.00063,1.31218c4.98708,0.22081 9.99254,0.00576 14.98695,0.21327c5.12004,0.21273 9.81555,1.47884 14.89946,1.88256c0.23425,0.0186 0.46799,0.03473 0.70117,0.04894c3.29194,-0.25009 6.58605,-0.47962 9.88583,-0.6807l0.21709,0.09052l0.0088,-0.07397l4.93331,0.58702c1.25674,0.13176 2.23627,1.19462 2.23627,2.48625c0,1.28782 -0.97375,2.34821 -2.22514,2.48506l-4.92933,0.61106l-0.00255,-0.02061c-0.03392,0.01054 -0.06788,0.02099 -0.10188,0.03133c-2.16761,0.65965 -6.45657,-0.40914 -8.2843,-0.57617c-0.11677,-0.01067 -0.23352,-0.02157 -0.35025,-0.03268zM355.37161,176.30812c-0.68818,0.13204 -1.37582,0.26836 -2.06339,0.40608c7.14469,0.87845 14.2941,1.67183 21.44204,2.50557c-2.70861,-0.43707 -5.42469,-0.84388 -8.15121,-1.21468l-0.18335,-0.12897l-0.02315,0.07365l-2.94658,-0.926c-2.68646,-0.34204 -5.3769,-0.60222 -8.07436,-0.71565zM477.05333,206.58945c-0.60063,-0.21193 -1.19846,-0.43583 -1.79409,-0.66915h-2.65072c-3.86356,0.7551 -7.99307,-0.24365 -12.0293,-1.11581c-6.79231,-0.34403 -13.57489,-0.80531 -20.38802,-0.97934c-0.15604,0.00064 -0.31193,0.00098 -0.46765,0.00098c-11.20762,0 -22.09162,1.86734 -33.24615,2.69765c-8.18599,0.60934 -16.50924,0.79171 -24.7154,0.79254c-4.68794,0 -9.5646,-0.36236 -14.23924,-0.00637c-6.80852,0.51849 -13.53073,1.87897 -20.21577,3.37963c3.95374,-0.00094 7.90751,0.00313 11.86123,0.00313c9.89979,0 19.72698,-0.46723 29.61595,-0.69728c11.49802,-0.26749 23.00584,0.30978 34.4983,-0.23316c11.44134,-0.53892 22.89295,-0.9857 34.32217,-1.74911c6.49226,-0.43364 12.95604,-1.17415 19.4487,-1.4237zM400.11627,198.37322c-4.78021,0.12107 -9.57178,0.11782 -14.36031,0.16968c-22.58147,2.29981 -45.10489,3.75698 -67.75714,5.228c-6.23533,0.40492 -12.75091,0.31974 -19.10016,0.88874c0.51363,0.08683 0.84792,0.14139 0.90279,0.14554c4.81853,0.36442 9.93791,-0.16177 14.77162,-0.23545c11.67218,-0.17792 23.1704,-1.55982 34.81254,-2.20962c11.64227,-0.6498 23.28775,-0.60419 34.92694,-1.42952c6.61364,-0.46897 13.20988,-1.08044 19.80629,-1.70611c-0.28711,-0.07879 -0.45792,-0.1254 -0.4713,-0.12841c-1.16892,-0.26357 -2.34733,-0.50142 -3.53127,-0.72285zM450.56928,197.1062c-7.05812,-1.18501 -14.11743,-2.35819 -21.16843,-3.62153c-4.04575,-0.72488 -8.28687,-1.32544 -12.41088,-2.25085c-4.82202,-0.05167 -9.65757,-0.14198 -14.49941,-0.27383c0.03546,0.16768 0.05411,0.34155 0.05411,0.51979c0,0.12319 -0.00891,0.24429 -0.02612,0.36271c3.16153,-0.21015 6.43166,-0.21186 9.18877,0.46487l4.97994,0.23869c1.24298,0.05153 2.25162,1.01063 2.38068,2.23207c10.50733,0.75206 21.01256,1.38052 31.50135,2.32808zM374.83629,193.8305c-0.85255,-0.16808 -1.70495,-0.33712 -2.55722,-0.50694c-1.63288,-0.02861 -3.26169,-0.02566 -4.88145,0.03154c-8.25172,0.2914 -16.45318,1.42522 -24.64689,2.36761c-1.68099,0.19334 -3.34484,0.3767 -4.99652,0.56473c1.99363,-0.0467 3.98726,-0.09331 5.9809,-0.13973c9.70326,-0.22591 19.31933,-1.61366 29.0014,-2.20292c0.69957,-0.04258 1.39951,-0.08048 2.09978,-0.11429z" fill="#9966ff" stroke="none" stroke-width="0.5"></path></g></g></svg>