<svg version="1.1" xmlns="http://www.w3.org/2000/svg" xmlns:xlink="http://www.w3.org/1999/xlink" width="94.65359" height="85.03353" viewBox="0,0,94.65359,85.03353"><defs><radialGradient cx="240.16656" cy="180.62675" r="6.24492" gradientUnits="userSpaceOnUse" id="color-1"><stop offset="0" stop-color="#56ff00"></stop><stop offset="1" stop-color="#56ff00" stop-opacity="0"></stop></radialGradient></defs><g transform="translate(-195.27035,-135.21647)"><g data-paper-data="{&quot;isPaintingLayer&quot;:true}" fill-rule="nonzero" stroke-linejoin="miter" stroke-miterlimit="10" stroke-dasharray="" stroke-dashoffset="0" style="mix-blend-mode: normal"><path d="" data-paper-data="{&quot;index&quot;:null}" fill="none" stroke="#000000" stroke-width="1.5" stroke-linecap="round"></path><path d="" data-paper-data="{&quot;index&quot;:null}" fill="none" stroke="#000000" stroke-width="1.5" stroke-linecap="round"></path><path d="" data-paper-data="{&quot;index&quot;:null}" fill="none" stroke="#000000" stroke-width="1.5" stroke-linecap="round"></path><path d="" data-paper-data="{&quot;index&quot;:null}" fill="none" stroke="#000000" stroke-width="1.5" stroke-linecap="round"></path><path d="" data-paper-data="{&quot;index&quot;:null}" fill="none" stroke="#000000" stroke-width="1.5" stroke-linecap="round"></path><path d="M289.92393,195.47556" data-paper-data="{&quot;index&quot;:null}" fill="none" stroke="#d8d8d8" stroke-width="4" stroke-linecap="round"></path><path d="M289.92393,195.47556" data-paper-data="{&quot;index&quot;:null}" fill="none" stroke="#d8d8d8" stroke-width="4" stroke-linecap="round"></path><path d="M239.0879,219.5c-21.81525,0 -39.5,-17.68475 -39.5,-39.5c0,-21.81525 17.68475,-39.5 39.5,-39.5c21.81525,0 39.5,17.68475 39.5,39.5c0,21.81525 -17.68475,39.5 -39.5,39.5z" fill="#d8d8d8" stroke="#000000" stroke-width="1.5" stroke-linecap="butt"></path><g><path d="M199.53279,208.30515l-3.22974,-52.18285l25.62763,-17.95098l18.61465,-1.9314l26.07627,12.29593l5.17644,64.49476l-30.76327,-6.71441l-5.38821,-23.42594l-5.16407,-2.35771l-5.12482,3.02903l1.38591,22.29119l-26.93258,10.73239z" fill="#c3c3c3" stroke="#000000" stroke-width="2" stroke-linecap="round"></path><path d="M198.75688,176.78244l-0.96384,-11.36047l26.66471,1.39923l1.04094,12.26931z" fill="#c20000" stroke="none" stroke-width="0" stroke-linecap="butt"></path><path d="M234.52529,179.75791l-1.05816,-12.26783l26.03958,-5.90802l0.97979,11.35909z" data-paper-data="{&quot;index&quot;:null}" fill="#c20000" stroke="none" stroke-width="0" stroke-linecap="butt"></path></g><g stroke="#000000" stroke-linecap="butt"><path d="M241.82459,184.62501c0,0 2.68321,2.44032 4.56808,2.23938c1.10622,-0.11793 -0.27007,8.69329 1.85199,9.11005c4.99693,0.98136 14.50207,-5.6988 14.50207,-5.6988l0.87071,8.16748c0,0 -16.46424,6.11483 -24.56807,0.97647c-1.56625,-0.9931 0.44103,-11.0241 0.44103,-11.0241z" data-paper-data="{&quot;index&quot;:null}" fill="#a7a7a7" stroke-width="0"></path><path d="M264.27877,207.03139c0,0 -2.4077,-7.3014 -4.21533,-7.1087c-2.79332,0.29779 -10.96519,1.16896 -14.3521,1.53003c0.37894,-1.25889 0.51435,-2.61367 0.35719,-4.00277c-0.17032,-1.50544 -0.66658,-2.89483 -1.41044,-4.10571c3.91298,-1.26204 15.84652,-4.58171 22.28214,-0.50111c1.50206,0.9524 -0.42295,10.5723 -0.42295,10.5723l-2.23853,3.61595z" fill="#919191" stroke-width="1"></path><path d="M246.95037,200.40282l-38.88206,3.23608c0,0 -2.9403,-0.292 -3.04915,-1.25403c-0.12232,-1.08123 2.33991,-2.44519 2.33991,-2.44519l38.89306,-5.7085z" fill="#d2d2d2" stroke-width="0.5"></path></g><path d="" data-paper-data="{&quot;index&quot;:null}" fill="none" stroke="#000000" stroke-width="1.5" stroke-linecap="round"></path><path d="" data-paper-data="{&quot;index&quot;:null}" fill="none" stroke="#000000" stroke-width="1.5" stroke-linecap="round"></path><path d="" data-paper-data="{&quot;index&quot;:null}" fill="none" stroke="#000000" stroke-width="1.5" stroke-linecap="round"></path><path d="" data-paper-data="{&quot;index&quot;:null}" fill="none" stroke="#000000" stroke-width="1.5" stroke-linecap="round"></path><path d="" data-paper-data="{&quot;index&quot;:null}" fill="none" stroke="#000000" stroke-width="1.5" stroke-linecap="round"></path><path d="M233.92164,180.62675c0,-3.44898 2.79595,-6.24492 6.24492,-6.24492c3.44898,0 6.24492,2.79595 6.24492,6.24492c0,3.44898 -2.79595,6.24492 -6.24492,6.24492c-3.44898,0 -6.24492,-2.79595 -6.24492,-6.24492z" fill="url(#color-1)" stroke="#0f6300" stroke-width="0" stroke-linecap="butt"></path></g></g></svg>