<svg version="1.1" xmlns="http://www.w3.org/2000/svg" xmlns:xlink="http://www.w3.org/1999/xlink" width="190.55207" height="100.32891" viewBox="0,0,190.55207,100.32891"><defs><radialGradient cx="284.82345" cy="206.76277" r="10.40477" gradientUnits="userSpaceOnUse" id="color-1"><stop offset="0" stop-color="#ffffff"></stop><stop offset="1" stop-color="#f3fffe"></stop></radialGradient><radialGradient cx="161.51575" cy="191.99445" r="10.40476" gradientUnits="userSpaceOnUse" id="color-2"><stop offset="0" stop-color="#ffffff"></stop><stop offset="1" stop-color="#f3fffe"></stop></radialGradient></defs><g transform="translate(-105.17617,-137.92397)"><g data-paper-data="{&quot;isPaintingLayer&quot;:true}" fill-rule="nonzero" stroke-linejoin="miter" stroke-miterlimit="10" stroke-dasharray="" stroke-dashoffset="0" style="mix-blend-mode: normal"><path d="" data-paper-data="{&quot;index&quot;:null}" fill="none" stroke="#000000" stroke-width="1.5" stroke-linecap="round"></path><path d="" data-paper-data="{&quot;index&quot;:null}" fill="none" stroke="#000000" stroke-width="1.5" stroke-linecap="round"></path><path d="M199.48855,178.17397c0,-21.81525 17.68475,-39.5 39.5,-39.5c21.81525,0 39.5,17.68475 39.5,39.5c0,21.81525 -17.68475,39.5 -39.5,39.5c-21.81525,0 -39.5,-17.68475 -39.5,-39.5z" fill="#ffffff" stroke="#000000" stroke-width="1.5" stroke-linecap="butt"></path><path d="M232.79025,167.28627c0,1.80048 -0.36489,3.26006 -0.81501,3.26006c-0.45012,0 -0.81502,-1.45958 -0.81502,-3.26006c0,-1.80048 0.3649,-3.26006 0.81502,-3.26006c0.45012,0 0.81501,1.45958 0.81501,3.26006z" fill="none" stroke="#000000" stroke-width="1.5" stroke-linecap="butt"></path><path d="M239.10662,167.38815c0,1.85674 -0.3649,3.36194 -0.81502,3.36194c-0.45012,0 -0.81501,-1.5052 -0.81501,-3.36194c0,-1.85674 0.36489,-3.36193 0.81501,-3.36193c0.45012,0 0.81502,1.50519 0.81502,3.36193z" fill="none" stroke="#000000" stroke-width="1.5" stroke-linecap="butt"></path><path d="M243.51685,192.16256c0,0 -5.0993,0.9633 -8.57383,1.0335c-3.23174,0.06529 -8.54149,-1.84852 -8.54149,-1.84852" fill="none" stroke="#000000" stroke-width="1.5" stroke-linecap="round"></path><path d="M238.0155,180.95609c0,1.91302 -1.7369,3.46381 -3.87947,3.46381c-2.14257,0 -3.87948,-1.5508 -3.87948,-3.46381c0,-1.91302 1.7369,-3.46382 3.87948,-3.46382c2.14257,0 3.87947,1.5508 3.87947,3.46382z" fill="#ff6900" stroke="#000000" stroke-width="0" stroke-linecap="butt"></path><path d="M274.41871,206.76277c0,-5.74639 4.65837,-10.40477 10.40477,-10.40477c5.74639,0 10.40477,4.65837 10.40477,10.40477c0,5.74639 -4.65837,10.40477 -10.40477,10.40477c-5.74639,0 -10.40477,-4.65837 -10.40477,-10.40477z" fill="url(#color-1)" stroke="#000000" stroke-width="1" stroke-linecap="butt"></path><path d="M171.83974,193.28863c-0.71476,5.70176 -5.91638,9.74453 -11.61814,9.02977c-5.70176,-0.71476 -9.74454,-5.91637 -9.02977,-11.61814c0.71476,-5.70176 5.91638,-9.74454 11.61814,-9.02979c5.70176,0.71476 9.74454,5.91638 9.02978,11.61814z" fill="url(#color-2)" stroke="#000000" stroke-width="1" stroke-linecap="butt"></path><path d="" data-paper-data="{&quot;index&quot;:null}" fill="none" stroke="#000000" stroke-width="1.5" stroke-linecap="round"></path><path d="" data-paper-data="{&quot;index&quot;:null}" fill="none" stroke="#000000" stroke-width="1.5" stroke-linecap="round"></path><path d="M105.19416,190.83726c0.38378,-3.06144 6.66702,-4.79458 28.31576,-2.08075c21.64874,2.71383 32.27162,6.56624 31.88784,9.62771c-0.38378,3.06144 -11.62887,4.17258 -33.2776,1.45877c-21.64874,-2.71383 -27.30979,-5.94426 -26.92601,-9.00569z" fill="#000000" stroke="none" stroke-width="0" stroke-linecap="butt"></path><path d="M154.50779,235.22789c0,0 -17.40878,3.40042 -21.79761,2.99073c-4.28776,-0.40021 -23.46851,-8.36119 -23.46851,-8.36119l7.92048,-38.60912l18.81927,0.76392c0,0 16.9259,2.44946 17.12499,2.79565z" fill="#000000" stroke="none" stroke-width="0" stroke-linecap="butt"></path><path d="M153.06728,214.62132l-0.8482,6.7664l-38.24992,-4.7949l0.8482,-6.7664z" fill="#fff000" stroke="none" stroke-width="0" stroke-linecap="butt"></path></g></g></svg>