<svg version="1.1" xmlns="http://www.w3.org/2000/svg" xmlns:xlink="http://www.w3.org/1999/xlink" width="61.3656" height="61.3656" viewBox="0,0,61.3656,61.3656"><g transform="translate(-209.3172,-149.3172)"><g data-paper-data="{&quot;isPaintingLayer&quot;:true}" fill-rule="nonzero" stroke="none" stroke-linecap="butt" stroke-linejoin="miter" stroke-miterlimit="10" stroke-dasharray="" stroke-dashoffset="0" style="mix-blend-mode: normal"><path d="M209.3172,180c0,-16.94565 13.73715,-30.6828 30.6828,-30.6828c16.94565,0 30.6828,13.73715 30.6828,30.6828c0,16.94565 -13.73715,30.6828 -30.6828,30.6828c-16.94565,0 -30.6828,-13.73715 -30.6828,-30.6828z" fill="#1b1b1b" stroke-width="0"></path><path d="M252.08663,173.16048c-0.24966,-0.01305 -0.23661,-0.26271 -0.23661,-0.26271l0.00551,-0.10548c0.10165,-1.94439 -0.17232,-3.8662 -0.29565,-5.79367c-0.16775,0.08366 -0.35696,0.13073 -0.55715,0.13073c-0.01713,0 -0.03417,-0.00034 -0.05113,-0.00103c0.25946,2.32656 0.47849,4.63581 0.55062,6.99525c0.01327,0.43423 0.02706,0.86844 0.03864,1.30272l-0.06054,0.37283c0,0 -0.04084,0.24664 -0.28748,0.2058c-0.24664,-0.04084 -0.2058,-0.28748 -0.2058,-0.28748l0.05494,-0.3245c-0.01472,-0.41798 -0.02674,-0.83604 -0.03952,-1.25408c-0.0737,-2.41075 -0.3018,-4.76845 -0.56915,-7.14644c-0.19647,-0.10071 -0.36278,-0.25191 -0.48181,-0.43648l-0.12394,-0.18615c0.00028,0.01082 0.00042,0.02168 0.00042,0.03257c0,0.69036 -0.55964,1.25 -1.25,1.25c-0.54962,0 -1.01639,-0.35473 -1.18386,-0.84773l-0.21595,-0.59l0.05079,1.41425c0.0007,0.01722 0.00106,0.03453 0.00106,0.05193c0,0.69036 -0.55964,1.25 -1.25,1.25c-0.63041,0 -1.15182,-0.46667 -1.23762,-1.07339l-0.22379,-1.40786c-0.50978,-2.37673 -0.68768,-4.54054 -0.39655,-6.85989c-0.28354,-0.14789 -0.54943,-0.43241 -0.59922,-0.97655c-0.11391,-1.2448 1.13089,-1.3587 1.13089,-1.3587l1.21439,-0.10986c2.46077,-0.45205 6.68394,-1.80708 8.78261,0.29207c1.19417,1.19444 1.14537,4.14026 0.83329,6.60976l0.23226,0.00607l-0.05763,2.20421c-0.01522,0.67713 -0.56889,1.22136 -1.24968,1.22136c-0.34214,0 -0.65218,-0.13746 -0.8779,-0.36017l-1.27851,-1.26003c0.00012,0.00716 0.00018,0.01434 0.00018,0.02153c0,0.26196 -0.08058,0.50509 -0.2183,0.70598c0.10449,2.07469 0.4298,4.14084 0.32042,6.23307l-0.00551,0.10548c0,0 -0.01305,0.24966 -0.26271,0.23661z" fill="#ff0000" stroke-width="0.5"></path><path d="M216.71412,197.54884c-0.24577,0.04578 -0.29155,-0.19999 -0.29155,-0.19999l-0.08163,-0.43824c-0.41496,-2.23036 -0.53902,-4.4946 -0.6542,-6.75536c-0.1152,-2.2611 -0.44921,-7.06347 1.46605,-8.50934c0,0 0.19953,-0.15063 0.35016,0.0489c0.15063,0.19953 -0.0489,0.35016 -0.0489,0.35016c-1.7248,1.30209 -1.37288,6.02534 -1.26795,8.08484c0.11404,2.23837 0.23456,4.48105 0.6464,6.68924l0.08163,0.43824c0,0 0.04578,0.24577 -0.19999,0.29155z" fill="#ff0000" stroke-width="0.5"></path><path d="M259.12874,189.76424c-0.24809,-0.03081 -0.21728,-0.2789 -0.21728,-0.2789l0.04219,-0.3397c0.09529,-0.76732 0.18089,-1.53546 0.26022,-2.30418c-0.04478,-0.47269 -0.09078,-0.94504 -0.13572,-1.41678c-0.48406,3.65763 -1.1621,7.30214 -2.42306,10.65267l0.27539,0.06314l-0.514,2.24193c-0.11771,0.5681 -0.62099,0.99507 -1.22398,0.99507c-0.59643,0 -1.0953,-0.41772 -1.22,-0.97657c-0.06381,0.2887 -0.16087,0.5995 -0.30247,0.92014c-0.0003,0.00069 -0.00061,0.00137 -0.00091,0.00206l0.00037,0.00009l-0.60727,2.398c-0.12763,0.55486 -0.6246,0.96864 -1.21821,0.96864c-0.28021,0 -0.53888,-0.0922 -0.74733,-0.24791c-0.21937,0.19043 -0.50574,0.30569 -0.81904,0.30569c-0.6784,0 -1.23058,-0.54043 -1.2495,-1.21425l-0.07017,-2.15243l-0.07118,0.09951c-0.22584,0.32415 -0.60132,0.53627 -1.02633,0.53627c-0.59274,0 -1.08911,-0.41256 -1.21764,-0.96619l-0.51306,-2.00831l0.00091,-0.00023l-0.00194,-0.00381c-0.33864,-3.08373 0.18383,1.33251 -0.23838,2.17647c-0.02053,0.04104 -0.04163,0.08173 -0.06325,0.1221l0.0197,0.00783l-0.68203,1.71626c-0.17655,0.47613 -0.63485,0.81545 -1.1724,0.81545c-0.58803,0 -1.08123,-0.40604 -1.21451,-0.95303l-0.37428,-1.39928c-0.18518,1.99545 -0.97781,4.8785 -2.65359,4.55231c-0.03517,-0.00685 -0.06941,-0.0152 -0.10276,-0.02498c-0.0078,0.13555 -0.01673,0.27116 -0.02684,0.40685l-0.01383,0.18553c0,0 -0.01858,0.24931 -0.26789,0.23073c-0.24931,-0.01858 -0.23073,-0.26789 -0.23073,-0.26789l0.01383,-0.18553c0.01635,-0.2194 0.02954,-0.4386 0.03986,-0.65765c-0.55855,-0.53446 -0.77831,-1.5929 -1.14175,-2.31978c-0.52146,-1.04294 -0.94687,-2.31515 -1.21142,-3.57618c-0.10138,0.44803 -0.22951,0.89128 -0.37885,1.32866l0.28101,0.07755l-0.57007,2.06571c-0.07649,0.30376 -0.26417,0.56332 -0.51722,0.73291c0.05425,0.66776 0.09338,1.3398 0.10675,2.02576l0.00904,0.46416c0,0 0.00487,0.24995 -0.24508,0.25482c-0.24995,0.00487 -0.25482,-0.24508 -0.25482,-0.24508l-0.00904,-0.46416c-0.01215,-0.62342 -0.04582,-1.2349 -0.09285,-1.84203c-0.06796,0.01144 -0.13778,0.01739 -0.209,0.01739c-0.50819,0 -0.94554,-0.30326 -1.14098,-0.73868l-0.62312,-1.31143l0.03344,-0.01589l-0.07622,-0.08541c-0.2447,-0.88589 -0.50695,-1.71246 -0.69382,-2.5359c-0.18788,0.69711 -0.40109,1.33319 -0.6847,1.98062l0.31596,0.13951l-0.26133,0.59186c0.0847,1.05131 0.18651,2.10232 0.23013,3.15603l0.01637,0.39552c0,0 0.01034,0.24979 -0.23945,0.26013c-0.24979,0.01034 -0.26013,-0.23945 -0.26013,-0.23945l-0.01637,-0.39552c-0.03073,-0.74226 -0.0898,-1.483 -0.1515,-2.22338l-0.31599,0.71564c-0.15695,0.37823 -0.49427,0.66272 -0.90464,0.74617c0.00489,0.03043 0.00977,0.06086 0.01464,0.09129l0.02308,0.14433c0,0 0.03948,0.24686 -0.20738,0.28634c-0.24686,0.03948 -0.28634,-0.20738 -0.28634,-0.20738l-0.02308,-0.14433c-0.00914,-0.05715 -0.01831,-0.1143 -0.02753,-0.17144c-0.42249,-0.08801 -0.76674,-0.3893 -0.91506,-0.78618l-0.37488,-0.93642l0.01943,0.35644c0.0016,0.02589 0.00241,0.052 0.00241,0.0783c0,0.69036 -0.55964,1.25 -1.25,1.25c-0.4909,0 -0.91572,-0.28298 -1.1202,-0.69472l-0.44741,-0.85679c-0.22346,0.20916 -0.52378,0.33721 -0.854,0.33721c-0.53445,0 -0.99055,-0.33541 -1.16931,-0.80721l-0.92854,-2.28982l0.25327,-0.1027c-0.10911,-0.35758 -0.21927,-0.71805 -0.32997,-1.08113c-0.19266,-0.42051 -0.37365,-0.84681 -0.54492,-1.278l0.00775,0.09322c0,0 0.02072,0.24914 -0.22841,0.26986c-0.0079,0.00066 -0.01557,0.00104 -0.02302,0.00117c0.01357,0.30547 0.02795,0.60966 0.04246,0.91218c0.02393,0.49943 0.04786,0.99885 0.07179,1.49828l0.02229,0.46526c0,0 0.01197,0.24971 -0.23775,0.26168c-0.24971,0.01197 -0.26168,-0.23775 -0.26168,-0.23775c-0.02393,-0.49943 -0.07016,-1.46412 -0.09409,-1.96354c-0.05685,-1.18782 -0.11119,-2.40052 -0.12316,-3.61548c-0.4193,-1.30603 -0.78431,-2.64032 -1.14383,-3.98002c-0.39291,-1.19891 -0.74244,-2.40201 -0.98947,-3.60167c-0.01363,-0.04665 -0.02731,-0.09328 -0.04104,-0.1399c0.03344,1.66573 0.14947,3.32262 0.35271,5.02226c0.17043,1.42521 0.26454,2.93301 0.70572,4.30372l0.1467,0.45781c0,0 0.07629,0.23808 -0.16179,0.31436c-0.23808,0.07629 -0.31436,-0.16179 -0.31436,-0.16179l-0.1467,-0.45781c-0.44811,-1.40428 -0.55155,-2.93784 -0.72603,-4.39693c-0.28156,-2.35451 -0.39738,-4.62934 -0.35943,-6.95664l-0.17928,-0.70179c-0.02989,-0.10713 -0.04587,-0.22005 -0.04587,-0.33672c0,-0.30237 0.10736,-0.57965 0.28603,-0.79583c0.00165,-0.03317 0.00332,-0.06637 0.00503,-0.09957c0,0 0.01283,-0.24967 0.2625,-0.23684c0.04517,0.00232 0.08175,0.0124 0.11137,0.02734c0.03912,-0.02076 0.07947,-0.0395 0.12092,-0.05608c-0.07266,-0.89216 -0.1111,-1.77991 -0.10892,-2.66009l0.00003,-0.00001l-0.31814,0.04515l-0.34338,-2.41948c-0.01014,-0.06412 -0.01541,-0.12987 -0.01541,-0.19685c0,-0.69036 0.55964,-1.25 1.25,-1.25c0.56314,0 1.03931,0.3724 1.19568,0.88436l0.3436,1.03755c0.56311,-0.31426 1.18252,0.02485 1.22399,0.04827c0.02054,-0.77435 0.04511,-1.54879 0.09615,-2.3205c0.11221,-1.69421 0.12763,-3.47107 0.33557,-5.19773c-0.09113,0.02114 -0.18607,0.03232 -0.28363,0.03232c-0.0014,0 -0.00281,0 -0.00421,-0.00001l-0.13522,0.20568c-0.2218,0.34863 -0.6116,0.57992 -1.05541,0.57992c-0.69036,0 -1.25,-0.55964 -1.25,-1.25c0,-0.15368 0.02773,-0.30089 0.07847,-0.43688l0.8092,-2.33462l0.19384,0.06719c0.26748,-1.34164 0.72712,-2.55205 1.58893,-4.19137l0.00515,-0.00501l-0.0019,-0.00103l0.68062,-1.25599c0.18338,-0.35483 0.53172,-0.61057 0.94356,-0.66576c0.55213,-1.0676 1.20752,-2.15646 1.96196,-3.41428l0.06176,-0.04186l-0.02039,-0.01558l1.14633,-1.50001c0.22796,-0.30468 0.5917,-0.50188 1.0015,-0.50188c0.56861,0 1.04855,0.37966 1.20014,0.89931c0.27305,-0.302 0.54822,-0.60313 0.82547,-0.90367c0,0 0.84757,-0.91876 1.76633,-0.07119c0.55797,0.51474 0.46448,1.05573 0.30501,1.40124c3.6865,0.16082 7.72295,0.82371 7.01421,5.65201c-0.00234,0.01595 -0.00472,0.0319 -0.00715,0.04784l0.00717,0.00013l-0.04679,2.49664c-0.01095,0.6809 -0.56633,1.2295 -1.24984,1.2295c-0.43784,0 -0.8231,-0.22511 -1.04636,-0.56591l-0.04636,-0.06862c-0.04098,0.55851 -0.10053,1.11369 -0.18177,1.66537c0.16067,1.46268 0.21397,2.93887 0.20399,4.45076c-0.00568,0.86055 -0.10285,1.66811 -0.22856,2.51876l-0.01241,0.08401c0,0 -0.03655,0.24731 -0.28386,0.21077c-0.24731,-0.03655 -0.21077,-0.28386 -0.21077,-0.28386l0.01241,-0.08401c0.12237,-0.82809 0.21767,-1.61153 0.2232,-2.44897c0.00586,-0.88747 -0.01019,-1.76225 -0.05748,-2.6291c-0.16791,0.68652 -0.37582,1.36714 -0.62995,2.04151l-0.10611,0.28159c0,0 -0.08816,0.23394 -0.3221,0.14578c-0.23394,-0.08816 -0.14578,-0.3221 -0.14578,-0.3221l0.10611,-0.28159c0.20221,-0.53661 0.37431,-1.07717 0.51965,-1.62153c-0.10635,0.02942 -0.21839,0.04515 -0.3341,0.04515c-0.5002,0 -0.93178,-0.2938 -1.13158,-0.71825l-0.82184,-1.65445c0.19951,1.93996 0.52483,3.89042 0.64409,5.81314c0.01177,0.16588 0.02354,0.33176 0.03532,0.49764l0.02234,0.31481c0,0 0.0177,0.24937 -0.23168,0.26707c-0.24937,0.0177 -0.26707,-0.23168 -0.26707,-0.23168l-0.02234,-0.31481c-0.01182,-0.16662 -0.02365,-0.33324 -0.03547,-0.49985c-0.11161,-1.79895 -0.39899,-3.619 -0.59924,-5.43307c-0.07642,0.85702 -0.47611,1.76123 -1.90536,1.72688c-0.434,-0.01043 -0.85234,-0.62043 -1.19036,-1.24304c0.27211,2.36579 0.60977,4.72511 0.83418,7.09209c0.0157,0.16593 0.0314,0.33185 0.0471,0.49778l0.02127,0.22479c0,0 0.02355,0.24889 -0.22534,0.27244c-0.24889,0.02355 -0.27244,-0.22534 -0.27244,-0.22534c-0.0157,-0.16593 -0.05267,-0.55664 -0.06837,-0.72256c-0.26403,-2.79589 -0.68807,-5.58131 -0.97459,-8.37909c-0.08578,-0.12841 -0.1333,-0.12141 -0.1327,0.11064c0.00075,0.29008 -0.03254,0.57508 -0.09175,0.85584l0.1305,0.02012l-0.37794,2.4516c-0.08348,0.60934 -0.6061,1.07876 -1.23837,1.07876c-0.01763,0 -0.03518,-0.00036 -0.05263,-0.00109c0.33494,1.54236 0.68931,3.08258 1.15301,4.59012l0.00456,0.01484c0,0 0.0735,0.23895 -0.16545,0.31245c-0.23895,0.0735 -0.31245,-0.16545 -0.31245,-0.16545l-0.00456,-0.01484c-0.49355,-1.60456 -0.86458,-3.24566 -1.21919,-4.88737c-0.38918,-0.21182 -0.6533,-0.62439 -0.6533,-1.09866c0,-0.01424 0.00024,-0.02842 0.00071,-0.04255l0.04474,-1.52409c-0.00921,-0.16591 -0.00279,-0.34569 0.0126,-0.53379c-0.13262,-1.03349 -0.19132,-2.04355 -0.16657,-3.06185c-0.07478,-0.06081 -0.16313,-0.11062 -0.26704,-0.14778c-0.03525,-0.01261 -0.06865,-0.01912 -0.10038,-0.02018c-0.18913,0.25906 -0.37673,0.51993 -0.56278,0.78276c-0.07112,0.20106 -0.13961,0.40096 -0.22073,0.54485c-0.07172,0.12721 -0.15104,0.25159 -0.23713,0.37232c-0.21739,0.55833 -0.49405,1.19228 -0.80723,1.97204l-0.08212,0.06083l0.03757,0.02206l-0.73861,1.25815c-0.0707,0.12553 -0.16247,0.23762 -0.2705,0.33147c-0.24997,1.8213 -0.25382,3.71371 -0.37242,5.50444c-0.05855,0.88265 -0.08198,1.76896 -0.10455,2.6546l0.15437,0.11567c1.10348,-0.29741 2.39564,-0.05858 3.39164,0.50186c0.3081,0.17336 0.45251,0.90529 0.76315,0.7365c0.58394,-0.31728 0.36216,-1.71471 1.02671,-1.70902c2.56499,0.02197 2.82597,5.84448 4.50293,5.87793c-0.13797,-2.15893 0.06303,-7.84425 2.87856,-8.7245c0.85378,-0.26693 1.5316,0.97738 2.10635,1.66284c0.9969,1.18893 1.68852,3.35177 2.47142,4.75577c0.42832,0.76812 1.17281,2.59386 1.77453,1.95247c1.47533,-1.57257 0.99692,-5.83489 2.02188,-7.79424c0.49046,-0.93759 0.85494,-2.36769 1.89822,-2.5443c0.9144,-0.15478 1.71898,0.75096 2.32788,1.53227c-0.06046,-1.8741 -0.2102,-3.74233 -0.44797,-5.60904c0,0 -0.03159,-0.248 0.21641,-0.27958c0.248,-0.03159 0.27958,0.21641 0.27958,0.21641c0.27182,2.13406 0.42954,4.27022 0.47134,6.41469c0.90835,1.58105 1.12007,3.96914 1.23955,6.03294c0.50256,-1.6339 0.85707,-2.68025 1.66715,-3.72498l-0.29576,-0.23733l1.20525,-1.502c0.2289,-0.29025 0.58372,-0.47658 0.98206,-0.47658c0.66917,0 1.21553,0.52582 1.24843,1.18682l0.07651,1.33297c0.04783,0.83339 0.09868,1.66662 0.1435,2.50017c0.03553,0.66065 0.06038,1.32188 0.09569,1.98253c0.28418,-1.08291 0.67911,-2.14449 0.98322,-3.22214c0.25121,-0.89019 0.67428,-1.72691 1.20045,-2.50651l-0.35896,-0.22694l1.20103,-1.8997c0.21946,-0.35979 0.61564,-0.6 1.06792,-0.6c0.69036,0 1.25,0.55964 1.25,1.25c0,0.05678 -0.00379,0.11269 -0.01112,0.16746l-0.23282,1.94628l-0.00021,-0.00003l0.00013,0.00073c-0.258,2.13616 -0.47234,4.35117 -0.73151,6.58113c0.06588,0.06803 0.07369,0.16445 0.07369,0.16445c0.01852,0.22884 0.03802,0.4579 0.05822,0.68716c0.08538,-0.94615 0.16721,-1.89276 0.25185,-2.83938c0,0 0.02226,-0.24901 0.27127,-0.22674c0.24901,0.02226 0.22674,0.27127 0.22674,0.27127c-0.16232,1.81542 -0.3144,3.63081 -0.50079,5.44302c0.17405,1.84354 0.32859,3.69206 0.32859,5.52987c0,0.66667 0,1.33333 0,2l0,0.19337c0.01752,0.79367 0.03504,1.58734 0.05257,2.38101l0.00511,0.23124c0,0 0.00552,0.24994 -0.24442,0.25546c-0.24994,0.00552 -0.25546,-0.24442 -0.25546,-0.24442c-0.01648,-0.74635 -0.03398,-1.5391 -0.05159,-2.33668c-0.00621,-0.03014 -0.00621,-0.05141 -0.00621,-0.05141c0,-0.07193 0,-0.14885 0,-0.22969c-0.01965,-0.89002 -0.0393,-1.77998 -0.05767,-2.61225c0,0 -0.00204,-0.09255 0.05267,-0.16625c-0.01366,-0.8053 -0.05441,-1.61239 -0.11076,-2.4199l-0.02121,0.17077c0,0 -0.03081,0.24809 -0.2789,0.21728z" fill="#ff0000" stroke-width="0.5"></path></g></g></svg>