<svg version="1.1" xmlns="http://www.w3.org/2000/svg" xmlns:xlink="http://www.w3.org/1999/xlink" width="288.12268" height="320.06148" viewBox="0,0,288.12268,320.06148"><g transform="translate(-93.03983,-48.0613)"><g data-paper-data="{&quot;isPaintingLayer&quot;:true}" fill-rule="nonzero" stroke-linejoin="miter" stroke-miterlimit="10" stroke-dasharray="" stroke-dashoffset="0" style="mix-blend-mode: normal"><path d="M314.18794,322.30231c3.25113,-1.80319 6.36026,-2.26793 9.92892,-3.0344c7.04998,-1.51418 13.71699,-2.78306 20.79622,-3.23539c2.08519,-0.51873 4.17795,-1.00948 6.28276,-1.4555c0.73919,-0.15664 9.84775,-2.10444 10.31507,-2.1273c2.28909,-0.112 4.73049,0.51578 7.10322,1.42689c0.21699,-0.01885 0.3499,-0.02877 0.37625,-0.02744c2.08684,0.10536 3.73187,0.48356 5.27275,1.04671l4.85317,0.99007c1.16406,0.21345 2.04621,1.23317 2.04621,2.45892c0,1.09925 -0.70946,2.03279 -1.69547,2.36773l-4.64061,1.69853l-0.01196,-0.03269l-0.11164,0.0743c-7.84159,1.97935 -15.50821,3.00689 -23.32011,3.55331l2.9745,0.95808c1.03386,0.3066 1.78802,1.26381 1.78802,2.39716c0,1.38071 -1.11929,2.5 -2.5,2.5h-3.6253c-5.8387,0.4371 -11.67061,0.92344 -17.50449,1.42053c-2.50832,0.21373 -7.9716,0.99622 -10.45886,-0.11021c-0.12173,-0.05415 -0.24189,-0.111 -0.3606,-0.17033l-0.01642,0.03671l-4.10469,-1.8363c-0.1878,-0.07903 -0.36393,-0.18034 -0.52506,-0.30062c-1.88865,-0.05345 -3.71487,-0.42812 -5.07132,-1.72529c-1.10566,0.06339 -2.21109,0.12985 -3.31576,0.20677c4.23137,1.26 8.60184,2.67936 12.06642,4.72918l4.63333,1.71821c0.9808,0.33783 1.68546,1.26878 1.68546,2.3643c0,1.38071 -1.11929,2.5 -2.5,2.5c-0.06487,0 -0.12917,-0.00247 -0.19279,-0.00732l-3.88045,-0.26173l0.00492,-0.07297l-0.20482,0.05138c-4.26477,-0.98548 -8.40769,-2.14471 -12.55016,-3.51148c2.63937,2.74292 5.20956,5.52776 7.60558,8.4697l0.26275,-0.29004l3.69776,3.34984c0.50914,0.45765 0.82935,1.12136 0.82935,1.85985c0,1.38071 -1.11929,2.5 -2.5,2.5c-0.21936,0 -0.43212,-0.02825 -0.63485,-0.08132l-3.48358,-0.83246l0.00616,-0.02577l-0.08581,0.00535c-3.81371,-1.20238 -7.02584,-2.94023 -10.11152,-5.00429c-0.4575,0.50638 -1.11937,0.8246 -1.85556,0.8246c-0.66189,0 -1.26371,-0.25722 -1.71094,-0.67717l-1.99681,-1.86488c-1.64495,-1.28958 -4.98962,-3.79105 -6.80433,-5.61675c-0.13095,1.67688 -0.45705,3.47331 -1.80235,4.19467c-1.5879,0.85143 -3.55568,-0.84972 -5.11093,-1.75942c-2.86937,-1.67835 -5.12375,-4.26006 -7.41536,-6.66811c-0.65891,-0.69239 -0.7953,-2.65282 -1.68998,-2.31649c-0.86219,0.32412 0.8498,1.66522 1.00917,2.57242c0.28506,1.62269 0.27093,3.28584 0.30928,4.93293c0.00939,0.40347 -0.1966,9.9229 -0.20123,9.93992c-0.02454,0.09024 -0.05015,0.18009 -0.07677,0.26958l0.02453,0.00609l-1.19265,4.80197c-0.25132,1.11511 -1.24782,1.94799 -2.43885,1.94799c-0.85364,0 -1.60735,-0.42784 -2.0584,-1.0808l-2.28973,-3.2266l0.02736,-0.01942l-0.10103,-0.09043c-1.4935,-2.65675 -3.56746,-5.52642 -5.0666,-8.50471c-0.00651,0.04184 -0.0135,0.08366 -0.02098,0.12545c-0.00412,0.023 -0.00835,0.04597 -0.01268,0.06891h0.01363v2.78931c0,1.38071 -1.11929,2.5 -2.5,2.5c-1.15234,0 -2.12259,-0.77965 -2.41202,-1.84022l-0.80927,-2.71769c-0.58677,-1.50003 -1.1534,-3.00809 -1.76095,-4.49982c-0.02647,-0.06498 -0.11356,-0.28009 -0.24431,-0.59877c-0.1218,2.96092 -0.76015,5.94437 -1.62778,8.93788c-0.72773,2.51083 -2.28048,8.73763 -4.73332,9.37861c-2.2286,0.58237 -3.94112,-2.38556 -5.91168,-3.57834c-0.00317,-6.56136 -0.2493,-13.72722 2.19148,-19.98204c0.69512,-1.78133 1.40172,-3.83991 2.57989,-5.23915c-0.54973,-1.30711 -1.31713,-2.19859 -3.57152,-2.37217c-0.45702,-0.03519 -0.92819,0.00117 -1.4077,0.09629c-0.76729,0.61441 -1.53637,1.22693 -2.30531,1.84018c2.31874,3.58228 -1.89656,8.33294 -3.40478,10.5929c-6.11531,9.16332 -13.83386,16.91251 -21.57717,24.70655l-2.65066,2.66802c-0.4529,0.4561 -1.08048,0.73851 -1.77402,0.73851c-1.38071,0 -2.5,-1.11929 -2.5,-2.5c0,-0.21891 0.02814,-0.43125 0.08099,-0.6336l1.14686,-4.8099c0.13945,-1.72539 0.496,-3.44564 1.30112,-5.28587c0.07377,-0.16862 2.25673,-3.43665 3.92226,-5.92168c-4.7858,3.50177 -9.62333,6.94336 -14.52663,10.33166l-4.0557,2.85761c-0.4116,0.29801 -0.91757,0.47369 -1.46458,0.47369c-1.16939,0 -2.15126,-0.80289 -2.42442,-1.88749c-0.37815,-0.43805 -0.60685,-1.00874 -0.60685,-1.63284c0,-0.79502 0.3711,-1.50336 0.94952,-1.96125l2.29177,-1.84547l0.00001,0.00001l1.57405,-1.26751c0.00463,-0.00458 0.00927,-0.00917 0.01392,-0.01376c0.10181,-0.16834 0.56372,-0.56377 1.20866,-1.06874c0.54063,-0.43858 1.14042,-0.88654 1.7678,-1.33214c1.97173,-1.44814 4.19748,-2.99634 4.24197,-3.02807c7.58562,-5.40962 15.32868,-10.55688 23.19027,-15.55776c0.89357,-0.9456 1.80447,-1.85623 2.73035,-2.72105c2.81683,-2.63106 6.45881,-5.68349 10.30464,-7.04876c0.90109,-0.72405 1.79837,-1.45234 2.68934,-2.18745c-7.73389,4.43482 -15.36015,8.99314 -22.69265,14.153c-8.29863,5.83972 -15.81046,11.88874 -24.80417,16.66756c-1.4718,0.78204 -2.83031,1.83106 -4.41539,2.34613l-4.37334,2.32378c-0.35973,0.20045 -0.77409,0.31465 -1.21512,0.31465c-1.38071,0 -2.5,-1.11929 -2.5,-2.5c0,-0.74296 0.32409,-1.41023 0.83862,-1.86814l3.71238,-3.33219l0.02696,0.03004l0.07092,-0.11345c5.92125,-4.31036 11.93701,-8.47816 17.94843,-12.65537c-6.85522,0.96903 -13.77937,1.58243 -20.62343,2.60059c-2.24698,0.66286 -4.50983,1.29452 -6.80182,1.89871c-1.65806,0.43708 -3.26055,1.26536 -4.97469,1.30926c-0.0484,0.00124 -0.09678,0.00221 -0.14515,0.00292l0.00312,0.0217l-4.90635,0.70553c-0.12979,0.0208 -0.26292,0.0316 -0.39858,0.0316c-0.02944,0 -0.05876,-0.00051 -0.08795,-0.00152c-1.17639,0.31734 -2.35625,0.61601 -3.54341,0.8755c-8.95544,1.9575 -18.16097,3.18904 -27.27044,4.12945c-0.68661,0.07088 -10.08255,1.05802 -10.47935,1.02487c-1.28342,-0.10724 -2.69538,-0.62507 -4.0929,-1.31348l-4.68558,-1.57209c-1.01918,-0.31562 -1.75949,-1.26561 -1.75949,-2.38851c0,-1.07967 0.68441,-1.99948 1.64304,-2.34926l3.60316,-1.41042c18.27905,-7.15409 36.28955,-14.55801 55.53678,-18.86645c1.43386,-0.32097 2.88033,-0.60667 4.33311,-0.87243c-6.77435,-0.86618 -13.55209,-2.22243 -19.53924,-4.63055c-0.40222,-0.16178 -9.56805,-3.85114 -9.68602,-3.95914c-0.11436,-0.10469 -0.22556,-0.21212 -0.33385,-0.32205l-0.03309,0.03502l-0.61144,-0.5778c-2.34302,-0.71699 -4.66863,-1.49895 -6.96903,-2.40424c-1.56851,-0.61727 -3.29741,-0.92608 -4.70475,-1.85379c-0.01602,-0.01056 -0.03202,-0.02116 -0.048,-0.03179l-0.00411,0.00918l-4.10475,-1.8363c-0.89952,-0.37852 -1.53109,-1.26816 -1.53109,-2.30531c0,-1.38071 1.11929,-2.5 2.5,-2.5c0.18216,0 0.35977,0.01948 0.53085,0.05648l2.66924,0.52296l-0.00994,0.05073l0.12584,-0.02516c0.51236,0.15184 1.02542,0.30113 1.5391,0.44808c0.43509,-0.367 0.99721,-0.58819 1.61098,-0.58819c0.15723,0 0.31107,0.01451 0.46025,0.04228l4.88447,0.81944l-0.00267,0.01593c0.03231,0.00047 0.06463,0.00106 0.09695,0.00176c0.00391,0.00008 1.21258,0.29917 2.77975,0.68733c-0.68957,-0.40513 -1.36675,-0.83635 -2.02941,-1.29832c-1.42817,-0.99563 -3.15621,-1.66671 -4.27481,-3.00075c-0.04798,-0.05722 -0.09537,-0.11486 -0.1422,-0.17289l-0.02194,0.0218l-3.52351,-3.54667c-0.44926,-0.45198 -0.72688,-1.07477 -0.72688,-1.76239c0,-1.38071 1.11929,-2.5 2.5,-2.5c0.36091,0 0.70396,0.07648 1.01383,0.21411l2.68736,1.1207l-0.01174,0.02816l0.08508,0.0038c10.32897,5.10265 20.72629,10.04161 31.04727,15.16237c6.44871,3.19953 15.02963,5.67429 20.4512,10.49303l0.3328,0.20737l1.70549,0.18832c0.68633,0.06663 1.29141,0.41078 1.7016,0.91882c4.37048,0.40367 8.78488,0.4885 13.03741,0.48655c0,0 2.5,0 2.5,2.5c0,2.5 -2.5,2.5 -2.5,2.5c-3.00517,-0.0013 -6.079,-0.04716 -9.16181,-0.20777c-0.21749,1.15905 -1.23484,2.03609 -2.45704,2.03609c-0.37245,0 -0.72587,-0.08144 -1.04343,-0.2275l-4.17288,-1.8059c-0.61133,-0.05248 -1.19285,-0.24629 -1.76221,-0.49773c-2.75677,0.49333 -8.34995,1.49421 -8.35661,1.4954c-4.89067,0.87517 -9.66206,1.72095 -14.46079,3.01601c-16.32748,4.40639 -31.72696,10.20177 -47.4061,16.32069c0.43339,0.21901 0.87094,0.4191 1.34277,0.45491c1.48611,0.11278 2.95979,-0.35354 4.44135,-0.51545c4.30422,-0.47038 8.67049,-0.71227 12.95546,-1.33601c1.83713,-0.26742 3.68836,-0.5406 5.54334,-0.82741c-0.47757,-0.45532 -0.77516,-1.09775 -0.77516,-1.80968c0,-1.27254 0.95078,-2.32302 2.18072,-2.4798l3.14459,-0.45219c12.19184,-2.45699 24.35969,-4.78222 36.65161,-6.67656c0.493,-0.07598 0.98211,-0.14485 1.46814,-0.20727c2.53099,-0.77162 5.05625,-1.56534 7.58753,-2.31255c3.35398,-0.99007 5.70025,-2.05775 9.08197,-1.76461c5.8264,-2.18413 11.626,-4.43287 17.41008,-6.6316l0.18734,0.00996l-0.01248,-0.05577l4.10399,-0.91801c0.19175,-0.04711 0.3922,-0.07209 0.59848,-0.07209c1.38071,0 2.5,1.11929 2.5,2.5c0,0.00597 -0.00002,0.01193 -0.00006,0.01789c5.08152,-3.01317 10.23203,-5.91551 15.3989,-8.84098l3.00008,-1.69863c0.37229,-0.22008 0.80659,-0.34638 1.2704,-0.34638c1.38071,0 2.5,1.11929 2.5,2.5c0,0.29518 -0.05116,0.57842 -0.14509,0.84132l-1.36721,4.12862l-0.05057,-0.01675c-0.06978,0.20781 -0.14949,0.41286 -0.24065,0.61472c-0.77647,1.71944 -2.79578,2.53409 -4.20642,3.78689c-0.70727,0.62813 -1.42188,1.24671 -2.14214,1.85808c0.96604,0.44606 1.9191,1.0864 2.84931,1.95447c0.86415,0.80643 1.32978,1.91268 1.74878,3.05142c0.50486,0.12122 1.04849,0.30829 1.63506,0.56969c1.99601,0.88953 2.80356,3.37626 3.91916,5.2553c0.05383,0.09067 0.11898,0.21475 0.19366,0.36728c0.45276,-0.45502 1.07958,-0.73667 1.77219,-0.73667c0.62904,0 1.20382,0.23232 1.64321,0.61584l3.22291,2.78058l-0.02576,0.02986c0.11737,0.09661 0.23223,0.1967 0.34431,0.30062c1.32778,1.2311 1.72343,3.18505 2.59928,4.76983c1.17238,2.12131 2.36596,4.23082 3.55463,6.34306c-0.19142,-2.6551 0.0844,-5.28026 0.01784,-8.10184c-0.03976,-1.68533 -0.49425,-3.37211 -0.31044,-5.04785c0.26023,-2.37246 -0.5059,-5.9051 1.62889,-6.97231c3.11722,-1.55836 8.99355,4.43818 10.91702,6.16588c0.76192,0.68437 1.59965,1.29937 2.36089,1.98542c-0.20782,-1.43331 -0.39716,-2.9743 0.52265,-3.65051c-0.39251,-0.44153 -0.63093,-1.02309 -0.63093,-1.66034c0,-1.38071 1.11929,-2.5 2.5,-2.5c0.65874,0 1.25796,0.25478 1.70452,0.67116l3.66201,3.39417c2.23855,1.26735 3.91503,3.3413 5.95377,4.90999c2.35224,1.80989 4.57937,3.57753 6.91532,5.12532c-2.77387,-2.87139 -5.45398,-5.8177 -8.25204,-8.67662l-1.77593,-1.80791c-0.44385,-0.4512 -0.71767,-1.07017 -0.71767,-1.75309c0,-0.18628 0.02037,-0.3678 0.05901,-0.54245c-0.75899,-0.42915 -1.27131,-1.24361 -1.27131,-2.17773c0,-1.30245 0.99599,-2.37227 2.26788,-2.48937l4.94413,-0.51844c1.03506,-0.27621 5.92619,-0.58024 8.38209,-0.72536c0.11485,-0.05324 0.23442,-0.09803 0.35791,-0.13355c0.83258,-0.81886 2.65733,-1.27385 3.72632,-1.86675zM218.33151,327.41301c-0.32437,0.11946 -0.6488,0.23873 -0.97328,0.35782c0.01451,0.09765 0.02337,0.19714 0.02625,0.29813c0.31603,-0.21817 0.6318,-0.43668 0.94703,-0.65595zM232.59754,335.5567c-1.21809,0.95365 -2.43849,1.90264 -3.66146,2.84708c-0.04065,0.0392 -0.08158,0.07828 -0.12277,0.11723c-2.89874,3.31718 -5.57234,6.961 -7.91756,10.46178c-1.77295,2.64655 -4.07902,4.99629 -5.35585,7.91473c-0.11368,0.25984 -0.19603,0.5305 -0.25932,0.80765c4.52105,-4.54412 9.03329,-9.15685 13.08935,-14.09149c1.65789,-2.01701 2.92266,-4.3283 4.44883,-6.44673c0.79467,-1.10306 1.76402,-2.08483 2.4627,-3.25106c0.11909,-0.19879 0.30293,-0.51814 0.47142,-0.84402c-0.44315,0.35102 -0.88659,0.7014 -1.33031,1.05115c-0.09298,0.12885 -0.1962,0.24709 -0.31481,0.34904c-0.47119,0.40498 -0.98196,0.75659 -1.51021,1.08463zM249.85751,336.41481c-0.02348,0.08268 -0.04502,0.1608 -0.06451,0.23324c-1.45842,5.42113 -1.73631,10.75411 -2.42717,16.27931c0.44099,2.92936 1.27176,-4.85949 1.3298,-5.05631c1.1552,-3.91734 1.85265,-7.68341 1.16188,-11.45623z" fill="#373737" stroke="none" stroke-width="0.5" stroke-linecap="butt"></path><path d="" data-paper-data="{&quot;index&quot;:null}" fill="none" stroke="#000000" stroke-width="1.5" stroke-linecap="round"></path><path d="M93.03983,48.0613" data-paper-data="{&quot;index&quot;:null}" fill="none" stroke="#d8d8d8" stroke-width="4" stroke-linecap="round"></path><g><path d="M248.64569,301.86287c-42.79705,-0.20462 -77.32506,-35.06436 -77.12044,-77.86142c0.20462,-42.79705 35.06436,-77.32507 77.86142,-77.12044c42.79705,0.20462 77.32507,35.06434 77.12048,77.86143c-0.20462,42.79705 -35.06434,77.32507 -77.86142,77.12044z" fill="#d8d8d8" stroke="#000000" stroke-width="1.5" stroke-linecap="butt"></path><path d="M247.50197,211.7689l-27.48318,-9.14021" fill="none" stroke="#000000" stroke-width="1.5" stroke-linecap="round"></path><path d="M233.04917,210.50553l0.44544,11.5134" fill="none" stroke="#000000" stroke-width="1.5" stroke-linecap="round"></path><path d="M269.0632,203.36368l-15.05022,7.43538" fill="none" stroke="#000000" stroke-width="1.5" stroke-linecap="round"></path><path d="M262.43412,221.57256l0.48163,-10.51104" fill="none" stroke="#f1aa4f" stroke-width="2.5" stroke-linecap="round"></path><path d="M271.25829,252.13216l-46.09988,-0.71088" fill="none" stroke="#000000" stroke-width="1.5" stroke-linecap="round"></path></g><g data-paper-data="{&quot;index&quot;:null}" stroke="#000000" stroke-linecap="butt"><path d="M187.29076,288.71618l-40.9727,5.11545c0,0 -7.40036,-3.21762 -7.77834,-5.27777c-0.3773,-2.05648 5.51256,-7.07211 5.51256,-7.07211l40.9727,-5.11545z" fill="#af5400" stroke-width="1.5"></path><path d="M187.2928,258.35558c0,0 3.02601,10.95138 5.03618,23.73549c1.07626,6.84402 3.82478,20.3414 3.82478,20.3414c0,0 -8.33614,2.05477 -11.08126,2.23014c-5.90785,0.3775 -12.12744,-8.42028 -14.13772,-21.20433c-1.0846,-6.89673 -3.01467,-16.70773 1.58753,-21.93186c3.92848,-4.4594 14.77036,-3.17087 14.77036,-3.17087z" fill="#989898" stroke-width="1"></path><path d="M185.69177,257.8309c5.90777,-0.37751 12.32667,9.67999 14.33693,22.46407c2.01023,12.78402 -1.14942,23.45371 -7.05719,23.83119c-5.90781,0.37755 -12.32667,-9.67999 -14.33693,-22.46407c-2.01023,-12.7841 1.14942,-23.45371 7.05722,-23.83127z" fill="#989898" stroke-width="1"></path><path d="M188.58564,287.25351c0,0 -4.26352,-3.64653 -4.66535,-5.48841c-0.3926,-1.79931 2.28142,-5.43842 2.28142,-5.43842l162.0126,-24.38375l27.79758,7.10184l-187.42635,28.20864z" fill="#e6e6e6" stroke-width="0.5"></path></g></g></g></svg>