<svg version="1.1" xmlns="http://www.w3.org/2000/svg" xmlns:xlink="http://www.w3.org/1999/xlink" width="151.49581" height="165.0357" viewBox="0,0,151.49581,165.0357"><g transform="translate(-156.56797,-112.85657)"><g data-paper-data="{&quot;isPaintingLayer&quot;:true}" fill-rule="nonzero" stroke-linejoin="miter" stroke-miterlimit="10" stroke-dasharray="" stroke-dashoffset="0" style="mix-blend-mode: normal"><path d="M291.06306,196.87896c0,-4.47177 3.62509,-8.09686 8.09686,-8.09686c4.47177,0 8.09686,3.62509 8.09686,8.09686c0,4.47177 -3.62509,8.09686 -8.09686,8.09686c-4.47177,0 -8.09686,-3.62509 -8.09686,-8.09686z" fill="#ffffff" stroke="#000000" stroke-width="1" stroke-linecap="butt"></path><path d="M217.09442,165.86414l9,1v8" fill="none" stroke="#000000" stroke-width="1.5" stroke-linecap="round"></path><path d="M232.53458,174.67753v-8l9,-1" data-paper-data="{&quot;index&quot;:null}" fill="none" stroke="#000000" stroke-width="1.5" stroke-linecap="round"></path><path d="M230.98851,198.04897c0,0 0.3445,-8.61004 5.78628,-9.03188c5.30472,-0.41122 12.46372,8.03188 12.46372,8.03188z" fill="#040404" stroke="#000000" stroke-width="1.5" stroke-linecap="round"></path><path d="M200.73697,171.0911c0,-18.19082 17.29485,-32.9374 38.62913,-32.9374c21.33428,0 38.62913,14.74658 38.62913,32.9374c0,11.22687 -2.48212,24.8741 -12.54127,30.82016c-0.42004,0.24829 -5.31543,2.90997 -5.31543,2.90997l-0.22453,13.91683l-12.57806,0.95271l-0.50527,-15.47565l0.06963,15.5724l-14.72842,0.20478l-0.46155,-15.93384l0.80812,15.80985l-16.17468,-0.08649c0,0 0.11388,-16.75516 -0.28778,-16.80951c-2.62384,-0.355 -2.02116,-0.00099 -3.86634,-0.93632c-11.32682,-5.74167 -11.45268,-18.89377 -11.45268,-30.94489z" fill="#ffffff" stroke="#000000" stroke-width="2" stroke-linecap="butt"></path><path d="M243.83743,171.09869c0,5.92619 -3.30023,10.73031 -7.37126,10.73031c-4.07103,0 -7.37126,-4.80413 -7.37126,-10.73031c0,-5.92619 -0.9919,-11.10354 3.07913,-11.10354c3.22238,0 10.77427,7.53515 10.77427,7.53515c0,0 0.88912,2.33301 0.88912,3.56839z" fill="#ababab" stroke="#000000" stroke-width="1" stroke-linecap="butt"></path><path d="M261.57705,161.07621c4.07103,0 3.07913,5.17736 3.07913,11.10354c0,5.92619 -3.30022,10.73032 -7.37126,10.73032c-4.07103,0 -7.37126,-4.80413 -7.37126,-10.73032c0,-1.23538 0.88912,-3.56839 0.88912,-3.56839c0,0 7.55188,-7.53515 10.77427,-7.53515z" data-paper-data="{&quot;index&quot;:null}" fill="#ababab" stroke="#000000" stroke-width="1" stroke-linecap="butt"></path><path d="" data-paper-data="{&quot;index&quot;:null}" fill="none" stroke="#000000" stroke-width="1.5" stroke-linecap="round"></path><path d="" data-paper-data="{&quot;index&quot;:null}" fill="none" stroke="#000000" stroke-width="1.5" stroke-linecap="round"></path><path d="" data-paper-data="{&quot;index&quot;:null}" fill="none" stroke="#000000" stroke-width="1.5" stroke-linecap="round"></path><path d="" data-paper-data="{&quot;index&quot;:null}" fill="none" stroke="#000000" stroke-width="1.5" stroke-linecap="round"></path><path d="" data-paper-data="{&quot;index&quot;:null}" fill="none" stroke="#000000" stroke-width="1.5" stroke-linecap="round"></path><path d="" data-paper-data="{&quot;index&quot;:null}" fill="none" stroke="#000000" stroke-width="1.5" stroke-linecap="round"></path><path d="" data-paper-data="{&quot;index&quot;:null}" fill="none" stroke="#000000" stroke-width="1.5" stroke-linecap="round"></path><path d="" data-paper-data="{&quot;index&quot;:null}" fill="none" stroke="#000000" stroke-width="1.5" stroke-linecap="round"></path><path d="" data-paper-data="{&quot;index&quot;:null}" fill="none" stroke="#000000" stroke-width="1.5" stroke-linecap="round"></path><path d="" data-paper-data="{&quot;index&quot;:null}" fill="none" stroke="#000000" stroke-width="1.5" stroke-linecap="round"></path><path d="M157.06797,196.24391c0,-4.99786 4.05157,-9.04943 9.04943,-9.04943c4.99786,0 9.04943,4.05157 9.04943,9.04943c0,4.99786 -4.05157,9.04943 -9.04943,9.04943c-4.99786,0 -9.04943,-4.05157 -9.04943,-9.04943z" fill="#ffffff" stroke="#000000" stroke-width="1" stroke-linecap="butt"></path><path d="M165.86162,127.35066c-2.5,0 -2.5,-2.5 -2.5,-2.5l0.01931,-0.62761c0.30537,-2.44279 0.62985,-4.88316 0.9552,-7.32337c0,0 0.33041,-2.47807 2.80848,-2.14766c2.47807,0.33041 2.14766,2.80848 2.14766,2.80848c-0.32357,2.42666 -0.64631,4.85349 -0.94995,7.28273l0.01931,0.00744c0,0 0,2.5 -2.5,2.5z" fill="#9b00c4" stroke="none" stroke-width="0.5" stroke-linecap="butt"></path><path d="M165.17663,275.55865c-0.05221,0.55884 -0.38384,2.33361 -2.49024,2.33361c-2.5,0 -2.5,-2.5 -2.5,-2.5l0.15918,-1.19533c1.04534,-2.7676 2.46222,-5.02195 3.07559,-7.92014c0,0 0.54233,-2.44047 2.98279,-1.89814c2.44047,0.54233 1.89814,2.98279 1.89814,2.98279c-0.69745,3.02549 -2.03101,5.3661 -3.12546,8.19721z" fill="#9b00c4" stroke="none" stroke-width="0.5" stroke-linecap="butt"></path><path d="M296.36394,123.25813c-2.5,0 -2.5,-2.5 -2.5,-2.5l0.00864,-1.38001c-0.10584,-1.2701 -0.21168,-2.54019 -0.31752,-3.81029c0,0 -0.20761,-2.49136 2.28375,-2.69898c2.49136,-0.20761 2.69898,2.28375 2.69898,2.28375c0.10584,1.2701 0.21168,2.54019 0.31752,3.81029l0.00864,1.79523c0,0 0,2.5 -2.5,2.5z" fill="#9b00c4" stroke="none" stroke-width="0.5" stroke-linecap="butt"></path><path d="M302.16699,261.64388c2,-1.5 3.5,0.5 3.5,0.5l1.39708,2.24627c0.31752,1.48178 0.63505,2.96356 0.95257,4.44533c0,0 0.52382,2.44451 -1.92068,2.96833c-2.44451,0.52382 -2.96833,-1.92068 -2.96833,-1.92068c-0.31752,-1.48178 -0.63505,-2.96356 -0.95257,-4.44533l-0.50807,-0.29392c0,0 -1.5,-2 0.5,-3.5z" fill="#9b00c4" stroke="none" stroke-width="0.5" stroke-linecap="butt"></path></g></g></svg>