<svg version="1.1" xmlns="http://www.w3.org/2000/svg" xmlns:xlink="http://www.w3.org/1999/xlink" width="141.03896" height="90.92832" viewBox="0,0,141.03896,90.92832"><g transform="translate(-161.86033,-139.01608)"><g data-paper-data="{&quot;isPaintingLayer&quot;:true}" fill-rule="nonzero" stroke-linejoin="miter" stroke-miterlimit="10" stroke-dasharray="" stroke-dashoffset="0" style="mix-blend-mode: normal"><path d="M293.15021,184.92825c4.93476,0.20891 8.76582,4.37868 8.55691,9.31344c-0.20891,4.93476 -4.37868,8.76582 -9.31344,8.55691c-4.93476,-0.20891 -8.76582,-4.37868 -8.55691,-9.31344c0.20891,-4.93476 4.37868,-8.76582 9.31344,-8.55691z" fill="#d8d8d8" stroke="#000000" stroke-width="1" stroke-linecap="butt"/><g fill="none" stroke="#000000" stroke-width="2" stroke-linecap="round"><path d="M292.9676,153.59115l5.03839,-3.8933l-3.43527,22.21473"/><path d="M301.8993,154.50722l-3.43527,-5.72545"/></g><g fill="none" stroke="#000000" stroke-width="2" stroke-linecap="round"><path d="M288.19662,146.30097l5.03839,-3.8933l-3.43527,22.21473"/><path d="M293.69305,141.4916l3.43527,5.72545"/></g><g fill="none" stroke="#000000" stroke-width="2" stroke-linecap="round"><path d="M281.5935,148.85856l5.03839,-3.8933l-3.43527,22.21473"/><path d="M290.5252,149.77462l-3.43527,-5.72545"/></g><g fill="none" stroke="#000000" stroke-width="2" stroke-linecap="round"><path d="M275.4484,145.23267l5.0384,-3.8933l-3.43527,22.21473"/><path d="M284.38011,146.14873l-3.43527,-5.72545"/></g><path d="M266.5103,210.82109l9.28975,-50.21898l22.51972,4.16581c0,0 -4.21024,42.86497 -9.28974,50.21898c-5.0795,7.35401 -22.51973,-4.16581 -22.51973,-4.16581z" data-paper-data="{&quot;index&quot;:null}" fill="#9b5b00" stroke="#000000" stroke-width="1" stroke-linecap="butt"/><path d="M205.5,185.00001c0,-21.81525 17.68475,-39.5 39.5,-39.5c21.81525,0 39.5,17.68475 39.5,39.5c0,21.81525 -17.68475,39.5 -39.5,39.5c-21.81525,0 -39.5,-17.68475 -39.5,-39.5z" fill="#d8d8d8" stroke="#000000" stroke-width="1.5" stroke-linecap="butt"/><path d="M229.60027,168.64539v8" data-paper-data="{&quot;index&quot;:null}" fill="none" stroke="#000000" stroke-width="1.5" stroke-linecap="round"/><path d="M229.37963,199.66774l3.99378,-0.26625" fill="none" stroke="#000000" stroke-width="1.5" stroke-linecap="round"/><g data-paper-data="{&quot;index&quot;:null}" stroke-linecap="butt"><path d="M230.06449,159.89516c-0.12846,0.59945 -4.48108,1.5581 -10.10882,2.97074c-2.47216,0.62055 -7.02031,0.26343 -9.30721,1.42576c-2.33727,1.18791 -2.22636,3.67491 -2.62319,6.33068c-0.20228,1.35368 -3.89411,33.36281 -4.8921,44.7018c-0.02471,0.28076 0.0645,-0.69765 0.85083,0.08479c2.70865,2.69516 11.93555,11.79001 11.88271,12.51995c-0.00566,0.07834 -3.79016,1.02057 -8.00642,0.95928c-2.56978,-0.03734 -7.3614,-0.61295 -12.29856,-2.59142c-6.10689,-2.44721 -12.21632,-6.44802 -11.99585,-7.16834c0.14012,-0.45781 -15.20723,-14.96091 -13.6635,-14.83647c0.0575,0.00463 -2.40058,-4.16209 -3.9092,-8.56211c-1.49654,-4.36477 0.32041,-13.78416 0.67316,-13.88604c0.3923,-0.1133 11.74117,-13.29868 12.3999,-13.51021c0.84195,-0.27038 11.62255,-9.25921 10.86047,-6.65676c-0.05447,0.18602 3.2857,-0.02544 2.06593,1.35138c-1.86112,2.10073 -10.1045,6.93114 -13.05688,10.13465c-3.98418,4.32308 -7.22621,8.64767 -7.14584,8.85393c0.05371,0.13782 -2.03,4.53282 -1.96803,4.67568c0.18547,0.42763 -0.75515,2.30347 -0.20525,4.50412c0.92407,3.69809 2.00616,8.31346 2.04815,8.51525c0.2554,1.22798 10.41937,13.40507 10.74484,13.51046c2.59167,0.83916 5.44986,5.12407 11.10762,8.58032c4.31043,2.63318 11.86551,4.7398 12.65065,4.74303c2.92385,0.01203 4.6354,-1.32462 4.24672,-1.69491c-3.76643,-3.58834 -7.63907,-4.87616 -7.62925,-4.80722c-1.05813,0.15158 -2.59454,-1.43957 -2.9038,-2.73854c-0.66337,-2.78625 1.63538,-16.0852 2.81817,-22.2218c0.54204,-2.8122 1.1012,-13.83949 2.23659,-22.1287c0.74019,-5.40396 2.31077,-9.60359 2.26599,-9.74442c-0.62938,-0.57963 13.71523,-2.32938 13.90749,-3.22656c0.09155,-0.42725 -5.38598,-3.00769 -10.92768,-2.67937c-7.04941,0.41766 -15.69074,3.25028 -17.779,5.46935c-0.93993,0.99879 -3.4572,-1.10631 -3.07792,-1.02502c0.21959,0.04706 12.7749,-5.18452 12.96573,-5.08684c1.15943,-0.19574 7.42417,-1.96441 13.62002,-1.58975c7.27328,0.43982 14.51028,3.15849 14.15353,4.82329z" fill="#00c1ff" stroke="none" stroke-width="0.5"/><g fill="none" stroke="#000000" stroke-width="1.5"><path d="M215.0029,228.29938c-22.3409,6.60663 -53.4848,-24.98807 -49.96953,-41.39215c3.51529,-16.40409 36.68407,-39.05592 60.37665,-30.35801c16.76375,6.15425 -14.17093,5.623 -15.58622,8.89849c-3.03435,7.02256 -4.34067,31.79308 -6.52697,47.18472c-0.69201,4.87171 17.07728,14.07859 11.70608,15.66694z"/><path d="M180.1904,211.0194c-8.90133,-7.88577 -10.9556,-21.12669 -10.89959,-21.38797c3.20518,-14.95692 29.1101,-38.17378 50.95983,-30.19017c4.08291,1.49183 -12.49624,1.72294 -13.45095,3.91963c-2.78144,6.39985 -4.8637,39.68606 -6.84636,53.72213c-0.62754,4.44266 15.05858,7.28089 10.11256,8.71871c0,0 -3.61971,1.24682 -8.02495,-0.4498c-6.74702,-2.59854 -15.97422,-9.12663 -21.85054,-14.33253z"/></g></g><path d="M222.69393,177.16665v-8" data-paper-data="{&quot;index&quot;:null}" fill="none" stroke="#000000" stroke-width="1.5" stroke-linecap="round"/><path d="M171.68193,171.57178c4.93476,0.20891 8.76582,4.37868 8.55691,9.31344c-0.20891,4.93476 -4.37868,8.76582 -9.31344,8.55691c-4.93476,-0.20891 -8.76582,-4.37868 -8.55691,-9.31344c0.20891,-4.93476 4.37868,-8.76582 9.31344,-8.55691z" fill="#d8d8d8" stroke="#000000" stroke-width="1" stroke-linecap="butt"/></g></g></svg>