<svg version="1.1" xmlns="http://www.w3.org/2000/svg" xmlns:xlink="http://www.w3.org/1999/xlink" width="223.73886" height="177.86954" viewBox="0,0,223.73886,177.86954"><g transform="translate(-135.46703,-109.35371)"><g data-paper-data="{&quot;isPaintingLayer&quot;:true}" fill-rule="nonzero" stroke-linejoin="miter" stroke-miterlimit="10" stroke-dasharray="" stroke-dashoffset="0" style="mix-blend-mode: normal"><path d="M199.48851,186.22942c0,-21.81525 17.68475,-39.5 39.5,-39.5c21.81525,0 39.5,17.68475 39.5,39.5c0,21.81525 -17.68475,39.5 -39.5,39.5c-21.81525,0 -39.5,-17.68475 -39.5,-39.5z" fill="#d8d8d8" stroke="#000000" stroke-width="1.5" stroke-linecap="butt"></path><path d="M242.02205,175.05545v8" fill="none" stroke="#000000" stroke-width="1.5" stroke-linecap="round"></path><path d="" data-paper-data="{&quot;index&quot;:null}" fill="none" stroke="#000000" stroke-width="1.5" stroke-linecap="round"></path><path d="M253.08518,207.98809c0,0 -17.91104,4.58722 -25.6108,-0.53676c-1.90381,-1.26693 -4.4943,-5.21093 -3.86722,-8.6468c0.60031,-3.28916 4.39812,-6.06289 3.63978,-7.76264" data-paper-data="{&quot;index&quot;:null}" fill="#000000" stroke="#000000" stroke-width="0" stroke-linecap="round"></path><path d="M249.49371,175.54059v8" fill="none" stroke="#000000" stroke-width="1.5" stroke-linecap="round"></path><g stroke="#000000" stroke-linecap="butt"><path d="M315.23175,213.53045l-0.44532,-59.45093l43.22131,-0.32375l0.44532,59.45093c0,0 -17.57014,13.07921 -20.7147,15.42003c-0.92715,0.69017 -1.80077,1.3405 -1.80077,1.3405z" fill="#008c04" stroke-width="1.5"></path><path d="M333.89433,231.00078l-0.58745,-78.42604l4.82627,-0.03615l0.58745,78.42604z" fill="#00ff08" stroke-width="0"></path><path d="M358.51553,182.54448l-44.55025,0.3337l-0.04715,-6.29345l44.55025,-0.3337z" fill="#00ff08" stroke-width="0"></path></g><path d="M331.59476,275.04037c1.81224,1.72214 0.0901,3.53439 0.0901,3.53439l-0.92169,0.96992c-1.41793,1.49092 -6.32075,6.95473 -8.18913,7.51523c-1.57713,0.47313 -3.41142,-0.1531 -4.84489,-0.96326c-0.89415,-0.50535 -0.65392,-2.17402 -1.56041,-2.65689c-1.18821,-0.63293 -3.13214,0.68756 -4.0262,-0.31897c-0.11795,-0.13279 -0.22837,-0.2642 -0.33157,-0.3943c-1.48045,0.61923 -2.91313,1.73819 -4.47377,1.51847c-1.16708,-0.16431 -1.40053,-1.9233 -2.29825,-2.68697c-0.90094,-0.76642 -2.67174,-0.71896 -3.03046,-1.84608c-1.14132,-3.5861 1.50332,-5.59684 3.39194,-7.7387c0,0 1.6833,-1.84838 3.53168,-0.16508c1.84838,1.6833 0.16508,3.53168 0.16508,3.53168c-0.61966,0.65032 -1.18395,1.35831 -1.85897,1.95096c-0.19123,0.1679 -0.936,0.19636 -0.70279,0.2982c0.53126,0.232 1.28869,-0.22144 1.73252,0.15149c0.98083,0.82414 0.08198,2.7526 0.75501,0.98626l1.54529,-2.3221c0,0 0.56902,-0.80186 1.49623,-1.04298c0.25332,-0.44243 0.51119,-0.88785 0.74993,-1.34127c0,0 1.23422,-2.1741 3.40832,-0.93988c2.1741,1.23422 0.93988,3.40832 0.93988,3.40832c-0.43659,0.6834 -0.89635,1.35253 -1.30976,2.05019c-0.15728,0.26541 -0.70289,0.77723 -0.39978,0.83475c1.02649,0.19476 2.18747,-0.79381 3.11814,-0.31897c1.24128,0.63332 1.60058,3.9966 2.72361,3.17156c2.27432,-1.67083 3.90072,-4.07939 5.84388,-6.12593l0.92169,-0.96992c0,0 1.72214,-1.81224 3.53439,-0.0901z" fill="#11ff00" stroke="none" stroke-width="0.5" stroke-linecap="butt"></path><path d="M320.88595,114.64499c-0.37516,1.09303 -0.73765,2.19801 -1.66787,2.76807c-1.27423,0.78088 -3.0309,0.25255 -4.48221,-0.10404c-0.65376,-0.16063 -1.0441,-1.86772 -1.49001,-1.36336c-0.59423,0.67212 1.08342,2.17691 0.33431,2.67055c-2.5474,1.67864 -8.53046,-0.06202 -10.45,-1.65577c-0.12813,-0.10638 -0.22607,-0.23151 -0.30145,-0.37064l-0.07409,0.07852l-0.19473,-0.18376c-1.4697,0.13257 -2.95484,0.41784 -4.37767,0.08685c-0.09367,-0.02179 -0.17872,-0.05808 -0.25664,-0.10605l0.03896,0.16994c0.04925,0.19579 0.07541,0.40076 0.07541,0.61184c0,1.38071 -1.11929,2.5 -2.5,2.5c-0.94087,0 -1.76035,-0.51976 -2.18698,-1.28781l-1.36522,-2.35574c0,0 -1.25354,-2.16302 0.90948,-3.41655c0.10449,-0.06056 0.20686,-0.11314 0.30707,-0.15838c0.68226,-1.17095 1.69048,-2.18138 2.9093,-2.54038c1.95372,-0.57545 2.971,-0.43972 3.48055,0.0333c0.44619,-0.41444 1.04399,-0.66787 1.70099,-0.66787c0.6662,0 1.27154,0.26058 1.71965,0.68538l2.92786,2.76287c1.18322,0.54403 2.50589,0.77822 3.64629,1.40806c0.28653,0.15825 0.39554,1.19044 0.45733,0.86899c0.18393,-0.9569 -0.94082,-2.50043 -0.0626,-2.92259c4.39754,-2.11386 6.58915,2.97227 6.84908,-0.82645l4.76068,0.21045c0,0 0.9633,1.93902 -0.7075,3.10455z" fill="#11ff00" stroke="none" stroke-width="0.5" stroke-linecap="butt"></path><path d="M156.22485,183.46339c0,0 2.5,0 2.5,2.5c0,2.5 -2.5,2.5 -2.5,2.5c-1.29267,-0.00016 -2.58513,-0.02291 -3.87747,-0.05467c-0.92116,1.48691 -2.76708,0.95605 -2.76708,0.95605c-0.28017,-0.08058 -0.56034,-0.16116 -0.84051,-0.24173c-0.53192,2.08304 -2.90249,3.20097 -4.54135,4.70297c0.222,3.01322 -2.98043,4.57091 -4.88297,5.82843l-3.84843,-2.30492c0,0 0,-1.52983 1.19673,-2.19604c-0.60623,-0.45618 -0.99825,-1.18174 -0.99825,-1.99887c0,-1.1799 0.81738,-2.16888 1.91678,-2.43161l4.09738,-1.07589c-1.1771,-1.45128 -2.41141,-3.13787 -2.04027,-4.76453l-0.34383,-0.10179c-1.06248,-0.28817 -1.84396,-1.25934 -1.84396,-2.41303c0,-1.17194 0.80639,-2.15554 1.89458,-2.42619c-0.98636,-0.33474 -1.69614,-1.26846 -1.69614,-2.36795c0,-1.38071 1.11929,-2.5 2.5,-2.5c0.47195,0 0.91336,0.13078 1.28996,0.35807c0.12114,-0.07311 0.24898,-0.13624 0.38239,-0.18824c-2.53844,-0.51382 -4.69372,-1.89495 -4.45681,-6.20167c0.04631,-0.84185 0.74409,-1.25694 1.65141,-1.52289l-0.03885,-0.02514l-0.19328,-0.03242c-0.78544,-0.11746 -1.45143,-0.60029 -1.8195,-1.27l-0.12364,-0.08001c-0.70637,-0.44177 -1.17621,-1.22659 -1.17621,-2.12115c0,-1.23533 0.89599,-2.26139 2.07356,-2.46377l4.12322,-0.79054l0.0033,0.01721l0.06564,-0.02943c2.8324,-0.37962 6.61569,-1.26738 9.46139,-0.6316l0.87363,-0.04628l0.09901,-2.3055c2.56393,-0.6104 5.01558,-0.99628 7.46808,-1.12064l-0.71509,-0.35989c-0.84232,-0.40211 -1.42431,-1.26178 -1.42431,-2.25739c0,-1.3187 1.02101,-2.39893 2.31562,-2.4933l2.71353,-0.22653c0.08577,-0.01243 0.17156,-0.02637 0.25736,-0.04156c-0.20695,-0.36402 -0.32514,-0.78508 -0.32514,-1.23375c0,-1.38071 1.11929,-2.5 2.5,-2.5c0.05706,0 0.11367,0.00191 0.16978,0.00567l3.35171,0.19846l-0.00045,0.00768l0.02306,-0.00624c3.60924,0.27937 6.99504,0.6055 10.58033,1.23017c0,0 2.46255,0.43109 2.03147,2.89364c-0.43109,2.46255 -2.89364,2.03147 -2.89364,2.03147c-2.11242,-0.37164 -4.14742,-0.62836 -6.20634,-0.83314c-0.15491,0.18009 -0.33503,0.33787 -0.53489,0.46786l-1.11149,0.74584l0.44621,0.09981c1.14237,0.23066 2.00251,1.24013 2.00251,2.4505c0,0.92389 -0.50116,1.73073 -1.24645,2.16349l-3.93019,2.3736l-0.04566,-0.0756c-0.18716,0.12144 -0.37892,0.2364 -0.57596,0.34391c-1.15395,0.62967 -2.6283,0.11197 -3.94268,0.08981c-2.27091,-0.03828 -3.86455,-0.05563 -5.60343,0.1361c0.04148,0.18061 0.06339,0.36869 0.06339,0.56189c0,1.29208 -0.9802,2.35522 -2.23756,2.48639l-3.34218,0.39576l-0.00401,-0.03391l-0.07673,0.04214c-0.10174,0.00532 -0.20376,0.00989 -0.30601,0.01367c-0.15521,1.02437 -0.92857,1.53381 -1.47287,1.76932c-0.33629,1.60765 -1.85055,2.85024 -3.46134,3.62872l3.17278,0.18785c1.32012,0.06782 2.36963,1.15967 2.36963,2.49666c0,0.91153 -0.48784,1.70912 -1.21667,2.14592c0.08213,0.09347 0.1574,0.19312 0.22501,0.29816l3.06837,0.22878l-0.00297,0.03984c0.03883,-0.00959 0.07766,-0.01918 0.1165,-0.02877l0.10489,0.06415l0.00801,-0.04791l2.51449,0.42046c0.94832,0.14135 1.72271,0.81528 2.00917,1.70779c0.64762,0.2273 2.02816,0.94227 1.66121,2.83792c-0.47511,2.45444 -2.92955,1.97933 -2.92955,1.97933l-5.11525,-0.99016c-0.73769,-0.12805 -1.36447,-0.57943 -1.72905,-1.20284l-0.49541,-0.02933c0.12473,0.29731 0.19365,0.62382 0.19365,0.96643c0,0.50144 -0.14763,0.9684 -0.4018,1.35978c1.97745,0.12391 3.9665,0.33535 5.83994,0.33512zM141.44807,179.72038c-0.00269,-0.00161 -0.00538,-0.00322 -0.00806,-0.00484c-0.00365,0.0022 -0.00731,0.0044 -0.01097,0.00658z" fill="#11ff00" stroke="none" stroke-width="0.5" stroke-linecap="butt"></path><path d="M141.42069,208.33611c0,-2.5 2.5,-2.5 2.5,-2.5l0.97303,0.0673c0.78404,0.1866 1.6852,0.37785 2.63095,0.59256c0.65994,-0.7306 1.67486,-0.84411 1.67486,-0.84411c0.52918,-0.05916 1.05835,-0.11832 1.58753,-0.17749c0.44236,-0.39613 1.02663,-0.63703 1.66717,-0.63703h3.5722c0.63748,0 1.21923,0.2386 1.66082,0.63136l0.24946,0.04708l2.57539,0.12345l-0.00297,0.06188c0.08958,-0.01264 0.17937,-0.02425 0.26938,-0.03475c1.10902,-0.12939 2.1592,0.56965 3.2388,0.85448l-1.32202,2.14069l0.02585,2.68839c-0.84274,-0.23081 -1.83433,-0.16894 -2.55892,-0.63208c-0.24027,0.07682 -0.49634,0.11828 -0.76209,0.11828c-0.11926,0 -0.23657,-0.00835 -0.35138,-0.0245l-0.74568,-0.09382c0.19777,0.14593 0.37327,0.32031 0.52045,0.51709c0.19692,0.08127 0.38382,0.16844 0.55919,0.26212c0.0352,0.0188 0.07025,0.03784 0.10515,0.05709l0.00789,-0.02743l2.72513,0.78373c0.81709,0.21493 1.47067,0.83306 1.73517,1.62881c0.11561,0.097 0.22816,0.19697 0.33797,0.29962l0.04782,-0.05939l2.95932,2.383c0.57843,0.4579 0.94953,1.16624 0.94953,1.96126c0,1.34499 -1.06212,2.44191 -2.39338,2.49777l-0.8353,0.04051c-0.02465,0.09594 -0.05479,0.19465 -0.09086,0.29618c-0.8369,2.35576 -3.19266,1.51885 -3.19266,1.51885c-1.10657,-0.39327 -2.21314,-0.78653 -3.3197,-1.1798l-3.08821,-0.9714c-1.04214,-0.30139 -1.80415,-1.26265 -1.80415,-2.40188c0,-0.55136 0.17849,-1.06104 0.48084,-1.47439l-0.28466,-0.04093c-0.94478,-0.12043 -1.72484,-0.76818 -2.03577,-1.63885c-0.20536,-0.03503 -0.41128,-0.06992 -0.62272,-0.10558c-0.77146,-0.02557 -1.52676,-0.09333 -2.20235,-0.36904c-0.21118,-0.03539 -0.43322,-0.07265 -0.66805,-0.11212l-0.06744,-0.05231l-0.00835,0.03594l-2.53077,-0.58787c-1.13287,-0.23798 -1.98346,-1.24295 -1.98346,-2.44658c0,-0.24692 0.0358,-0.48547 0.10248,-0.71076c-0.60575,-0.06662 -2.28547,-0.43612 -2.28547,-2.48534z" fill="#11ff00" stroke="none" stroke-width="0.5" stroke-linecap="butt"></path></g></g></svg>