<svg version="1.1" xmlns="http://www.w3.org/2000/svg" xmlns:xlink="http://www.w3.org/1999/xlink" width="182.50488" height="79" viewBox="0,0,182.50488,79"><g transform="translate(-101.64618,-140.5)"><g data-paper-data="{&quot;isPaintingLayer&quot;:true}" fill="#29f3f3" fill-rule="nonzero" stroke="none" stroke-width="0" stroke-linejoin="miter" stroke-miterlimit="10" stroke-dasharray="" stroke-dashoffset="0" style="mix-blend-mode: normal"><g stroke-linecap="butt"><path d="M111.67889,169.10031l0.09732,-3.5935l33.23967,0.90022l-0.09732,3.5935z"></path><path d="M136.98675,175.17988l0.18654,-6.88749l4.49185,0.12166l-0.18654,6.88749z"></path><path d="M101.6462,178.11857c0.05968,-2.20271 0.18788,-6.93666 0.18788,-6.93666l71.17633,1.92762l-0.3433,12.67549l-51.51295,-1.3951l0.13586,-5.1282c0,0 -19.67556,0.03032 -19.6438,-1.14315z"></path><path d="M172.26302,202.43699l-6.9449,-24.49774l7.88827,-3.20715c0,0 1.31148,9.11443 3.97849,12.47159c3.17428,3.99574 13.81173,9.92243 13.81173,9.92243z"></path><path d="M135.35998,198.53748l0.44604,-16.4701l6.88749,0.18654c0,0 -0.36852,3.53928 -0.42846,5.75276c-0.08182,3.02121 -0.01758,10.71734 -0.01758,10.71734z"></path><path d="M146.37474,182.62636l0.28171,-10.40219l6.58804,0.17843l-0.28171,10.40219z"></path><path d="M155.89708,182.82227l0.28171,-10.40219l6.58804,0.17843l-0.28171,10.40219z"></path><path d="M137.56187,182.56345l0.28171,-10.40219l6.58804,0.17843l-0.28171,10.40219z"></path></g><path d="M205.15106,180c0,-21.81525 17.68475,-39.5 39.5,-39.5c21.81525,0 39.5,17.68475 39.5,39.5c0,21.81525 -17.68475,39.5 -39.5,39.5c-21.81525,0 -39.5,-17.68475 -39.5,-39.5z" stroke-linecap="butt"></path><path d="M228.58224,167.20295l9,1v8" stroke-linecap="round"></path><path d="M248.51493,176.68819v-8l9,-1" data-paper-data="{&quot;index&quot;:null}" stroke-linecap="round"></path><path d="M256.96879,195.96181l-31.37388,0.40984v-12.29517z" stroke-linecap="round"></path><path d="M231.53051,196.37165l0.42397,-10.17531" stroke-linecap="round"></path><path d="M240.43391,190.01208v5.9356" stroke-linecap="round"></path><path d="M159.34238,195.45118c0,-4.14401 3.35938,-7.50339 7.50339,-7.50339c4.14401,0 7.5034,3.35938 7.5034,7.50339c0,4.14401 -3.35939,7.50339 -7.5034,7.50339c-4.14401,0 -7.50339,-3.35938 -7.50339,-7.50339z" stroke-linecap="butt"></path><path d="M133.26546,187.41184c0,-4.14401 3.35938,-7.50339 7.50339,-7.50339c4.14401,0 7.5034,3.35938 7.5034,7.50339c0,4.14401 -3.35939,7.50339 -7.5034,7.50339c-4.14401,0 -7.50339,-3.35938 -7.50339,-7.50339z" stroke-linecap="butt"></path></g></g></svg>