<svg version="1.1" xmlns="http://www.w3.org/2000/svg" xmlns:xlink="http://www.w3.org/1999/xlink" width="338.32743" height="173.5869" viewBox="0,0,338.32743,173.5869"><g transform="translate(-320.05295,-117.88017)"><g stroke="none" stroke-miterlimit="10"><g fill="#b2b2b2" stroke-width="0"><g><path d="M437.26015,272.86293c-42.79705,-0.20462 -77.32506,-35.06436 -77.12044,-77.86142c0.20462,-42.79705 35.06436,-77.32507 77.86142,-77.12044c42.79705,0.20462 77.32507,35.06434 77.12048,77.86143c-0.20462,42.79705 -35.06434,77.32507 -77.86142,77.12044z" stroke-linecap="butt"/><path d="M436.11643,182.76896l-27.48318,-9.14021" stroke-linecap="round"/><path d="M422.10907,193.01899l-0.44544,-11.5134" stroke-linecap="round"/><path d="M442.62744,181.79912l15.05022,-7.43538" stroke-linecap="round"/><path d="M413.77287,222.42134l46.09988,0.71088" stroke-linecap="round"/></g><path d="M451.10907,192.01899l-0.44544,-11.5134" stroke-linecap="round"/></g><g fill="#7a7a7a" stroke-width="0" stroke-linecap="butt"><path d="M468.86531,212.16556c0,0 -3.60813,-4.29607 -3.7026,-6.1789c-0.09234,-1.83933 3.14201,-4.99089 3.14201,-4.99089l163.81817,2.50252l26.25749,11.56225l-189.51513,-2.89508z"/><g><path d="M467.34818,213.39617l-41.25701,-1.66983c0,0 -6.77284,-4.38713 -6.80802,-6.48138c-0.03511,-2.09051 6.59724,-6.07286 6.59724,-6.07286l41.25701,1.66983z"/><g><path d="M472.32679,183.44657c0,0 1.18998,11.29928 1.07744,24.23997c-0.06014,6.92786 0.43876,20.69321 0.43876,20.69321c0,0 -8.56019,0.66056 -11.29692,0.38357c-5.88982,-0.59599 -10.58318,-10.29427 -10.47077,-23.23493c0.06055,-6.98123 -0.23523,-16.9759 5.16105,-21.375c4.60631,-3.75514 15.09034,-0.70688 15.09034,-0.70688z"/><path d="M470.83341,182.66655c5.88974,0.59597 10.57322,11.5696 10.4608,24.51028c-0.11247,12.94061 -4.97833,22.94808 -10.86805,22.35207c-3.01352,-0.30491 -5.71123,-3.32658 -7.61234,-7.93844c-1.81453,-4.40182 -2.90336,-10.25228 -2.84846,-16.57184c0.11248,-12.94069 4.97833,-22.94808 10.86808,-22.35215z"/></g></g></g><path d="M406.7164,271.29738c-0.4324,0.17876 -0.76985,0.12876 -1.02286,-0.00379c-9.81649,-0.69312 -19.57771,-1.84008 -29.43392,-2.32216c-9.97167,-0.48773 -19.93722,-0.26493 -29.91927,-0.18518c-4.01494,0.03208 -8.77822,0.77318 -12.72545,0.08113c-1.69426,-0.29705 -3.33052,-1.0229 -4.87356,-1.8873l-0.03323,0.08961l-2.31667,-0.8591c-0.4904,-0.16892 -0.84273,-0.63439 -0.84273,-1.18215c0,-0.57134 0.38332,-1.05315 0.90681,-1.2023l2.10784,-0.65372c2.44978,-0.75977 4.82722,-1.49623 7.34006,-2.01869c17.10008,-3.54529 34.30503,-5.7082 51.69391,-7.18354c7.26034,-0.616 14.51263,-1.29472 21.763,-2.00013c-2.59554,-0.25835 -5.19097,-0.52127 -7.78741,-0.78026c-6.65572,-0.6639 -13.59916,-1.09438 -19.76721,-3.68445l-0.06992,0.28578l-2.40324,-0.58797c-0.5596,-0.12414 -0.97808,-0.62337 -0.97808,-1.22034c0,-0.18495 0.04017,-0.36052 0.11226,-0.51846c-14.56796,-0.44525 -29.25643,-0.0254 -43.55657,-2.52431c-3.28221,-0.57356 -6.57752,-1.09876 -9.85073,-1.72138c-0.96441,-0.18345 -2.12695,0.03549 -2.88601,-0.58706c-1.0466,-0.85839 -2.36563,-2.16352 -2.08121,-3.4869c0.24732,-1.15074 6.91949,-1.74074 7.96513,-1.93161c1.97205,-0.35997 3.94789,-0.69993 5.92646,-1.02519c-0.02456,-0.09777 -0.0376,-0.20012 -0.0376,-0.30551c0,-0.69036 0.55964,-1.25 1.25,-1.25c0.00042,0 0.00084,0 0.00126,0l2.49981,0.00216v0.00033l0.00146,-0.00033c1.96681,0.00628 3.93345,0.02936 5.89979,0.06812c4.71625,-0.69327 9.43799,-1.35231 14.15073,-2.04869c12.32928,-1.82185 24.92085,-2.41971 37.19082,-4.51327c2.46257,-0.42017 4.91976,-1.00821 7.36888,-1.63289c-6.86094,-0.52776 -13.7189,-1.07554 -20.56891,-1.61178c-10.89029,-0.85252 -21.56788,-1.99965 -32.36386,-3.66956c-4.74702,-0.73426 -9.49812,-1.1307 -13.93431,-2.66437c-0.26801,-0.05416 -0.53571,-0.11006 -0.80308,-0.16778l-0.06072,-0.00826l-0.0456,0.20362l-2.41545,-0.54093c-0.57104,-0.11545 -1.00096,-0.62011 -1.00096,-1.22519c0,-0.69036 0.55964,-1.25 1.25,-1.25c0.06431,0 0.12749,0.00486 0.18919,0.01422l2.45652,0.33424l-0.00217,0.01598l0.04985,-0.00855c7.89862,1.70062 16.07975,1.7991 24.14496,2.19284c9.14231,0.44632 18.29195,1.0405 27.44182,1.28479c3.65061,0.09758 7.29852,0.18722 10.9449,0.26646c-3.2756,-0.74757 -6.5505,-1.49811 -9.82421,-2.25372c-13.26951,-3.06276 -26.5252,-6.21381 -39.82146,-9.16799c-3.69108,-0.26543 -7.27225,-0.78014 -10.77317,-2.05995l-0.06244,0.27163l-2.41202,-0.55446c-0.42361,-0.08802 -0.76865,-0.39043 -0.91656,-0.78866l-1.81643,-0.59837c-0.51292,-0.15578 -0.88621,-0.63242 -0.88621,-1.19624c0,-0.67654 0.53746,-1.22754 1.2087,-1.24933l2.49252,-0.09379l0.00999,0.26546c3.71519,-0.66519 7.56146,-0.70497 11.38548,-0.62523c14.28914,-2.33443 28.55401,-4.81945 42.85414,-7.08847c10.64361,-1.68884 20.76523,-4.0062 31.14836,-6.84846c-8.29996,-0.479 -16.58807,-0.99552 -24.87392,-1.73687c-6.0244,-0.53901 -11.61068,-0.87808 -16.90631,-3.29231l-0.08888,0.29275l-2.36521,-0.7181c-0.52708,-0.14682 -0.91382,-0.63039 -0.91382,-1.20428c0,-0.69036 0.55964,-1.25 1.25,-1.25c0.02796,0 0.0557,0.00092 0.0832,0.00272l2.48499,0.14414c10.39295,0.60284 20.75254,1.30381 31.10422,2.38211c-16.01861,-2.92095 -32.14281,-5.233 -48.28016,-7.39788c-4.08237,-0.54766 -8.16344,-1.10554 -12.24909,-1.62823l-0.00558,0.03882l-2.45627,-0.35318c-0.61498,-0.07839 -1.09037,-0.60363 -1.09037,-1.2399c0,-0.69036 0.55964,-1.25 1.25,-1.25c0.06051,0 0.12002,0.0043 0.17823,0.01261l2.30661,0.29466c0.33648,0.04298 0.67293,0.08621 1.00935,0.12965c3.44822,-0.75956 8.48941,0.34002 11.52351,0.47478c1.56297,0.06942 3.12595,0.13242 4.68897,0.18997c-0.38089,-0.17495 -0.73427,-0.36575 -1.05156,-0.57568c-0.05405,-0.03576 -0.10728,-0.07252 -0.15977,-0.1102l-0.00882,0.01284l-2.04595,-1.40467c-0.33612,-0.22406 -0.55755,-0.60659 -0.55755,-1.04084c0,-0.58094 0.3963,-1.06931 0.9333,-1.20953l2.37732,-0.67895l0.00483,0.01692l0.07132,-0.03611c2.54972,-0.39442 5.04167,-0.7788 7.61651,-0.95864c17.36832,-1.20567 34.79377,-1.65826 52.1936,-2.25195c0.37253,-0.01271 0.74505,-0.02541 1.11757,-0.03809c-4.54759,0.05226 -9.09512,0.11918 -13.64238,0.18749c-10.19598,0.15316 -19.86546,-0.68075 -29.98596,-1.88935c-6.05584,-0.7232 -11.52488,-1.27274 -16.71839,-3.9188l-0.09922,0.27409l-2.32333,-0.84103c-0.49518,-0.16624 -0.85192,-0.6341 -0.85192,-1.18528c0,-0.69036 0.55964,-1.25 1.25,-1.25c0.00671,0 0.0134,0.00005 0.02008,0.00016l2.4969,0.03441l-0.00004,0.00324l0.01149,-0.00303c8.35942,0.26815 16.75525,0.27534 25.06892,1.20426c13.05365,1.45854 26.34568,2.66257 39.38143,4.83645c1.36135,-0.0122 2.72269,-0.02268 4.08403,-0.03109c0.22231,-0.20329 0.51832,-0.32732 0.84331,-0.32732c0.11454,0 0.22549,0.01541 0.33088,0.04426l1.08236,0.27107c9.30847,-0.04115 18.61647,0.02359 27.92217,0.30747c2.63259,0.08031 5.06031,0.15233 7.65171,0.65031l2.3552,0.45639c0.58766,0.10212 1.03449,0.61463 1.03449,1.23149c0,0.35933 -0.15161,0.68324 -0.39436,0.91126c4.33655,1.35872 8.70644,2.67816 12.94644,4.26635c9.35753,3.50508 18.28563,8.07002 27.7125,11.41265c5.80278,2.05758 11.56068,4.11717 17.2728,6.29798c3.05855,0.13364 6.11736,0.27022 9.17637,0.40141c-6.24223,-2.55724 -12.49119,-5.09812 -18.72904,-7.66297c-10.76578,-4.42661 -21.95241,-8.29721 -32.41591,-13.39357c-3.80361,-1.85259 -7.66108,-3.43353 -11.10649,-5.74325l-0.13065,0.26814l-2.22272,-1.08298c-0.42926,-0.19792 -0.72719,-0.63204 -0.72719,-1.13575c0,-0.69036 0.55964,-1.25 1.25,-1.25c0.08489,0 0.1678,0.00846 0.24794,0.02459l1.55254,0.28236c-0.42964,-0.42988 -0.81985,-0.96909 -1.17482,-1.54592l-1.58183,-1.92455c-0.181,-0.21685 -0.28991,-0.49596 -0.28991,-0.80051c0,-0.69036 0.55964,-1.25 1.25,-1.25c0.04447,0 0.0884,0.00232 0.13168,0.00685l2.47339,0.23016l-0.0013,0.01402l0.06185,-0.00689c13.00317,2.49749 25.94513,5.57763 38.85966,8.51295c16.90736,3.84615 34.10383,5.96531 50.96266,10.20762c8.75408,2.20285 17.48533,4.48464 26.199,6.84314c5.22809,1.41507 11.02698,3.95577 16.44755,3.92744c0,0 1.25,0 1.25,1.25c0,1.25 -1.25,1.25 -1.25,1.25c-4.94234,-0.02235 -9.93686,-2.04766 -14.69422,-3.35364c-9.49262,-2.60589 -19.01654,-5.09042 -28.5624,-7.49252c-16.84048,-4.23769 -34.01572,-6.35832 -50.90667,-10.19422c-12.8027,-2.9099 -25.63123,-5.95354 -38.51839,-8.44872c0.44278,0.40684 0.86264,0.8554 1.341,1.20635c2.24431,1.64654 6.23288,2.82489 8.85997,3.78588c10.85805,3.9719 22.34776,6.74216 33.48761,9.81064c8.0098,2.2063 16.29242,4.09166 24.1351,6.83545c8.579,3.0014 17.06715,6.96445 25.17864,11.03426l2.24672,0.90455c0.47335,0.17797 0.81015,0.63486 0.81015,1.17042c0,0.69036 -0.55964,1.25 -1.25,1.25c-0.01222,0 -0.02439,-0.00018 -0.03653,-0.00052l-2.49412,-0.06276l0.00679,-0.26977c-4.92432,0.5598 -10.02411,0.05737 -14.97494,-0.10663c3.50408,1.60462 6.99721,3.24429 10.47889,4.94482c1.37706,0.67259 2.72652,1.3113 4.03956,1.96129c0.16954,0.0743 0.33904,0.14866 0.50853,0.22307c4.90948,2.15571 9.8084,4.32445 14.71774,6.46263c3.76811,-0.53308 7.53158,-1.05359 11.25753,-1.64394c6.4163,-1.01662 13.79528,-3.0082 20.22462,-1.84824l2.20259,0.40909c0.59208,0.09844 1.04347,0.61301 1.04347,1.23302c0,0.42654 -0.21364,0.80318 -0.53976,1.02876l-2.0242,1.43823l-0.13273,-0.18681c-1.99764,1.68574 -4.10377,3.01045 -6.31877,4.13917c4.17925,0.83902 8.31794,1.79337 12.38816,2.92703l2.15238,0.59949c0.5409,0.13755 0.94098,0.62781 0.94098,1.21151c0,0.69036 -0.55964,1.25 -1.25,1.25c-0.09344,0 -0.1845,-0.01025 -0.27209,-0.0297l-2.28383,-0.4598l0.02564,-0.12734c-4.79749,0.25955 -9.65853,-0.09884 -14.49791,-0.40606c0.51212,0.19899 1.02469,0.39694 1.53773,0.59382c2.19478,0.63387 4.34402,1.36443 6.34305,2.36657c0.16232,0.05875 0.32469,0.11737 0.48712,0.17587l0.10275,0.02653l0.12757,-0.30982l2.28485,0.94085c0.46847,0.18042 0.80088,0.63484 0.80088,1.16689c0,0.69036 -0.55964,1.25 -1.25,1.25c-0.11781,0 -0.23181,-0.0163 -0.33988,-0.04676l-2.39324,-0.61794l0.00474,-0.01837l-0.06031,0.00265c-0.66642,-0.23916 -1.33187,-0.48048 -1.99642,-0.72387c-3.32984,-0.49049 -7.2606,-2.36476 -9.86972,-3.13414c-1.26422,-0.37279 -2.52784,-0.74791 -3.79119,-1.1241c-3.67064,1.76812 -7.55042,3.22409 -11.18605,4.85928c-9.10251,4.09402 -18.1429,8.72458 -27.50651,12.17735c-14.63257,5.39069 -29.22755,10.83607 -43.98487,15.86044c2.57448,-0.09267 5.14898,-0.18448 7.72353,-0.27502c11.90717,-2.48006 23.81112,-4.9752 35.71416,-7.47556c10.81433,-2.27167 21.66721,-4.26428 32.538,-6.22582c0.524,-0.11769 1.04282,-0.2136 1.5491,-0.27932c0.93417,-0.16833 1.86846,-0.33652 2.80286,-0.50472l0.01806,0.00292l-0.00086,-0.00565l2.44979,-0.37094c0.06801,-0.01146 0.13789,-0.01742 0.20917,-0.01742c0.69036,0 1.25,0.55964 1.25,1.25c0,0.60674 -0.43229,1.11252 -1.00568,1.22613l-2.41788,0.53118l-0.03486,-0.15868l-0.06335,0.00959c-0.30758,0.0554 -0.61515,0.1108 -0.92271,0.16619c-0.82539,0.28934 -1.66145,0.54697 -2.50484,0.78655c0.06088,0.14714 0.09447,0.30843 0.09447,0.47757c0,0.46801 -0.2572,0.87594 -0.63797,1.09017l-2.13617,1.2528l-0.14746,-0.25144c-1.09589,0.8464 -2.23419,1.60647 -3.40591,2.33231c0.65983,-0.00467 1.31629,0.00584 1.96872,0.03281c1.66506,0.07315 3.33012,0.14631 4.99518,0.21946l2.01895,0.0887c0.66799,0.02536 1.20174,0.57489 1.20174,1.24909c0,0.58905 -0.40744,1.08293 -0.95587,1.2152l-2.39072,0.63326l-0.08197,-0.30946c-4.71779,1.85805 -9.62622,2.11618 -14.88637,2.66809c-0.9211,0.09665 -1.84122,0.18967 -2.76057,0.27918c-9.28628,4.50322 -19.33133,7.51945 -29.03064,11.05053c-16.35068,6.42773 -32.65498,12.53471 -49.34368,18.0291c-8.4251,2.77378 -16.85072,5.51369 -25.24129,8.35372c-4.74865,1.96495 -9.55004,3.80362 -14.47628,5.40083c-2.70882,0.87827 -7.11442,3.16881 -10.55688,3.47648c-0.4465,0.1384 -0.89301,0.2768 -1.33951,0.4152l-2.36027,0.73097c-0.12491,0.04188 -0.25861,0.06457 -0.39762,0.06457c-0.69036,0 -1.25,-0.55964 -1.25,-1.25c0,-0.56585 0.37598,-1.04388 0.89174,-1.1979l2.35086,-0.76221l0.01015,0.03129l0.01556,-0.00482c0.54864,-0.16976 1.09728,-0.33952 1.64592,-0.50927c2.23599,-1.03315 4.60622,-1.84596 7.0188,-2.57675c6.85642,-2.51241 13.75481,-4.89029 20.67425,-7.21057c4.94916,-2.2067 9.8461,-4.58058 14.76724,-6.76481c15.9971,-7.10025 32.05644,-14.06137 48.09264,-21.07285c1.81577,-0.7939 3.66229,-1.49625 5.52975,-2.13699c-13.91949,4.19844 -27.87737,8.26419 -41.74551,12.63465c-16.69962,5.26278 -33.39143,10.5231 -50.17235,15.52121c-0.27058,0.08056 -0.54074,0.16231 -0.81052,0.24513c-2.3539,1.03428 -5.06788,2.20284 -7.36508,2.45576c-0.42084,0.14554 -0.84178,0.29098 -1.26302,0.43585l-2.33656,0.80354c-0.13521,0.05007 -0.28144,0.07742 -0.43406,0.07742c-0.69036,0 -1.25,-0.55964 -1.25,-1.25c0,-0.55392 0.3603,-1.02369 0.85932,-1.18773l2.3286,-0.82646l0.00819,0.02308l0.01149,-0.00395c0.72934,-0.25082 1.45784,-0.50326 2.1864,-0.75495c3.80966,-1.75038 7.97132,-2.87628 11.92999,-4.28128c10.2283,-3.63018 20.46701,-7.19262 30.82892,-10.42786c6.246,-1.95009 12.49172,-3.8926 18.74277,-5.81528c-7.91586,0.28706 -15.89694,0.05767 -23.76484,-0.03826c-6.83304,2.11149 -13.68189,4.17829 -20.55224,6.20813c-15.97954,4.72116 -32.24007,8.93889 -48.57143,12.25962l-2.4244,0.4929c-0.08834,0.0198 -0.18021,0.03024 -0.27452,0.03024c-0.69036,0 -1.25,-0.55964 -1.25,-1.25c0,-0.54217 0.34518,-1.00373 0.82776,-1.17689l2.30556,-0.88844l0.14539,0.3773l0.02046,-0.00416c4.41836,-2.24861 9.56976,-3.12039 14.38322,-4.47588c10.43057,-2.9373 20.88056,-5.80211 31.32978,-8.67226c3.87722,-1.06498 7.77652,-2.04777 11.69091,-2.97296c-15.10324,-0.15283 -30.05066,-0.79798 -45.17229,-1.85138c-2.17359,-0.15142 -4.34516,-0.32096 -6.51534,-0.50368c-1.58397,0.16433 -3.17987,0.30713 -4.78206,0.46722c-9.95864,0.99508 -19.91469,1.95233 -29.88714,2.79843c-17.28946,1.4669 -34.39535,3.61539 -51.39774,7.14043c-2.00864,0.4152 -3.92504,0.97742 -5.86695,1.57479c1.10056,0.34603 2.08479,0.97989 3.50264,1.22847c2.21421,0.38821 5.02216,-0.06067 7.27391,-0.07866c11.68865,-0.09339 23.38489,-0.42298 35.06122,0.14813c10.01666,0.48993 19.93777,1.67244 29.91586,2.35531l1.09639,0.83491c0,0 0.47757,1.15517 -0.6776,1.63275zM382.38597,243.10697c-4.60437,-1.30811 -9.07418,-3.00997 -13.14764,-5.47117l-0.07696,0.18358l-2.27892,-0.95535c-0.02405,-0.00944 -0.04773,-0.0196 -0.07102,-0.03046c-0.71115,0.05454 -1.42177,0.10119 -2.13168,0.13845c-4.98523,0.2616 -10.08269,-0.08534 -15.07581,-0.12875c-3.33209,-0.02897 -6.66827,-0.0131 -9.99962,-0.08695c-0.97372,-0.02158 -2.0818,0.39723 -2.92021,-0.09841c-0.12247,-0.0724 -0.23848,-0.15238 -0.34903,-0.23878l-0.0209,0.02504l-0.136,-0.11354c-0.9253,0.14614 -1.85002,0.29518 -2.77403,0.44773c-3.39219,0.56002 -7.69773,2.25431 -10.98354,1.27664c-0.35623,-0.10599 0.6675,0.34461 1.02983,0.42737c1.48078,0.33821 3.00579,0.44251 4.50203,0.70397c2.46268,0.43035 4.92536,0.86069 7.38805,1.29104c15.43569,2.69734 31.34194,1.96224 47.04546,2.6296zM357.47105,233.22197c4.11236,0.22254 8.22211,0.50217 12.32807,0.82853c4.85762,-0.50983 9.72708,-1.28541 14.54469,-1.83481c15.42552,-1.75912 30.85314,-4.18884 46.3127,-5.72402c-6.83343,-0.41113 -13.67073,-0.88529 -20.50696,-1.39126c-0.11422,0.02703 -0.22844,0.05409 -0.34265,0.08118c-4.77954,1.13361 -9.59782,2.59527 -14.43864,3.42219c-12.29088,2.09958 -24.9032,2.69839 -37.25357,4.52336c-0.21453,0.0317 -0.42908,0.06331 -0.64365,0.09483zM437.64404,218.0045c0.48161,-0.00396 0.96327,-0.00825 1.44497,-0.01289c10.90443,-0.10504 21.66603,0.22231 32.5537,0.82564c0.54403,0.03015 1.08357,0.05746 1.61895,0.08401c0.68025,-0.12154 1.36114,-0.23949 2.0426,-0.35384c17.10766,-2.87002 34.60789,-3.11876 51.85013,-5.00466c2.60469,-0.28489 5.21845,-0.59406 7.83892,-0.91469c11.18465,-2.42767 22.32566,-5.01955 33.48236,-7.65548c2.52875,-0.59654 5.08438,-1.11425 7.65614,-1.58008c-0.55554,-0.14047 -1.11149,-0.27939 -1.66789,-0.41664c-8.37835,-2.06678 -16.76054,-4.61087 -25.05334,-7.39638c-1.10173,-0.33002 -2.2061,-0.66584 -3.31445,-1.00683c-3.61159,-1.11114 -7.46292,-2.21804 -11.09257,-3.70877c-0.1838,-0.05301 -0.36764,-0.1059 -0.55153,-0.15866c-5.71665,-1.64016 -11.46183,-3.15136 -17.21377,-4.62993c-3.81171,-0.12111 -7.62148,-0.23217 -11.4299,-0.35359c6.47485,2.73156 12.93632,5.49496 19.40307,8.24599c4.57015,1.9442 9.71622,3.83886 13.48561,7.08386l0.31823,-0.39519l1.93841,1.56095c0.28921,0.22895 0.47475,0.58312 0.47475,0.98062c0,0.69036 -0.55964,1.25 -1.25,1.25c-0.1566,0 -0.30647,-0.0288 -0.44461,-0.08138l-2.10068,-0.74381c-1.55439,-0.55038 -3.10866,-1.10111 -4.6628,-1.65221c-10.95914,-2.85451 -21.90994,-5.56586 -32.92173,-8.06923c1.66706,0.52758 3.33087,1.06545 4.98997,1.6182c8.59066,2.86439 17.52283,4.75542 26.19358,7.39167l2.24232,0.45142c0.58351,0.10552 1.0261,0.61608 1.0261,1.23c0,0.69036 -0.55964,1.25 -1.25,1.25c-0.06346,0 -0.12582,-0.00473 -0.18674,-0.01386l-2.45731,-0.32978l0.02167,-0.16148c-0.24723,-0.07485 -0.49467,-0.14911 -0.74229,-0.22284c-4.72548,-0.15636 -9.3336,-1.63242 -14.06341,-2.68679c-10.71392,-2.38835 -20.95648,-5.33904 -31.38038,-8.7749c-9.06093,-2.98661 -18.15768,-5.86107 -27.2585,-8.7231c-0.56029,-0.11504 -1.12057,-0.2301 -1.68085,-0.34519c-6.52871,-1.34114 -13.10396,-2.54826 -18.81319,-5.86507l-0.1049,0.26524l-2.29769,-0.90872c-0.47715,-0.17602 -0.81738,-0.63483 -0.81738,-1.17311c0,-0.69036 0.55964,-1.25 1.25,-1.25c0.07765,0 0.15365,0.00708 0.22738,0.02063l2.44325,0.40463l-0.00477,0.02882l0.09251,-0.01104c6.54795,2.06965 13.10222,4.12038 19.65325,6.18129c-0.25417,-0.22881 -0.41398,-0.56039 -0.41398,-0.9293c0,-0.69036 0.55964,-1.25 1.25,-1.25c0.04802,0 0.0954,0.00271 0.142,0.00798l2.11435,0.21283c4.91792,0.49512 9.84827,0.86941 14.77362,1.28373c5.69909,0.49169 11.3977,0.83527 17.09777,1.09972c-5.43741,-2.28463 -10.85516,-4.68951 -16.28479,-7.07756c-8.74516,-0.9602 -17.50732,-1.78236 -26.29757,-2.09033c-17.50016,-0.61312 -34.9638,-0.45461 -52.46564,-0.7633c-3.07065,-0.05422 -6.14071,-0.10534 -9.2103,-0.16068c8.23927,1.62023 16.76843,2.59964 25.03855,3.50114c7.50831,0.81846 14.99757,1.66651 22.37878,3.31703l2.41553,0.54058c0.57112,0.11538 1.00113,0.62009 1.00113,1.22522c0,0.49522 -0.28798,0.92318 -0.70561,1.12555l-0.88233,0.45028c3.75778,0.68486 7.5157,1.3689 11.2729,2.05651c2.8412,0.51997 7.83659,0.56697 10.93807,1.99643c0.3491,0.04362 0.69828,0.08735 1.04755,0.13119l0.02961,0.01591l0.00191,-0.01073l2.44033,0.43351c0.59651,0.09468 1.0525,0.61133 1.0525,1.23449c0,0.69036 -0.55964,1.25 -1.25,1.25c-0.07777,0 -0.15388,-0.0071 -0.22771,-0.02069l-2.44313,-0.40524l0.00458,-0.02762c-3.46353,-0.43358 -6.91819,-0.85731 -10.37126,-1.25596c2.59244,1.35993 5.17054,2.9746 7.443,4.63943l0.07719,-0.1457l2.18613,1.1582c0.40799,0.2058 0.6878,0.62859 0.6878,1.11674c0,0.62638 -0.46072,1.14515 -1.06178,1.23592l-2.43829,0.41291c-7.38994,1.35248 -14.66025,2.24105 -22.14134,2.9181c-17.50966,1.58464 -34.90338,3.08616 -52.48681,3.06951c-11.67802,-0.01106 -23.34351,-0.1743 -35.01925,-0.40149c-0.25041,-0.00487 -0.51265,-0.00217 -0.78494,0.00647c-0.95442,0.15567 -1.90894,0.31064 -2.8636,0.46482c1.8277,0.39786 3.65451,0.80014 5.48055,1.2061c0.36299,0.00389 0.72575,0.01042 1.08786,0.02472c11.6568,0.46008 23.27218,0.79646 34.93834,0.82676c17.46448,0.04536 34.85256,0.20136 52.10962,2.94408c3.0755,0.4888 7.51121,0.76732 10.03968,2.84882c0.98927,0.81439 2.61565,1.73744 2.40239,3.00093c-0.20143,1.19341 -2.09531,1.22074 -3.19884,1.71776c-2.22738,1.00319 -4.79591,1.5998 -7.11461,2.37326c-0.42523,0.14185 -0.85097,0.28153 -1.27719,0.41917zM359.76703,199.90254c7.35918,0.10677 14.71625,0.16361 22.07936,0.17058c17.50714,0.01658 34.82518,-1.48155 52.25911,-3.05933c6.93346,-0.62748 13.67924,-1.4376 20.51434,-2.6362c-4.01613,-1.24428 -8.0562,-5.16934 -11.76957,-6.45208c-1.138,-0.39311 -2.37777,-0.65684 -3.64809,-0.86435c-3.67526,-0.35416 -7.35693,-0.66273 -11.05375,-0.9074c-2.23921,0.64469 -4.55048,1.18509 -6.90296,1.83171c-10.61181,2.91684 -20.95316,5.29316 -31.82424,7.01809c-9.89504,1.57006 -19.7732,3.24354 -29.6542,4.89898zM367.5587,166.89671c3.37871,0.54811 6.7313,1.8311 10.06042,3.00332c6.48891,0.15612 12.97914,0.25681 19.47204,0.37145c17.51623,0.30958 34.99443,0.15082 52.50904,0.76445c6.22808,0.2182 12.4421,0.69258 18.64599,1.29128c-0.60186,-0.25886 -1.20404,-0.51674 -1.80659,-0.77345c-4.53648,-1.52854 -9.06067,-3.09848 -13.58999,-4.68539c-3.42156,-1.19879 -7.04433,-2.14927 -10.39873,-3.55033c-0.02111,-0.00464 -0.04223,-0.00928 -0.06335,-0.01392c-5.36724,0.16452 -10.73388,0.3519 -16.10179,0.53506c-17.3705,0.59269 -34.76669,1.04376 -52.10572,2.24741c-2.23879,0.15442 -4.41187,0.47358 -6.62133,0.81013zM452.49679,163.02801c8.39013,1.91325 16.72693,3.90773 24.9558,6.5122c-0.16758,-0.10244 -0.33239,-0.207 -0.4942,-0.31385c-2.07451,-1.36984 -3.91933,-3.35839 -5.47095,-5.45208l-0.12866,0.1348l-1.22067,-1.16511c-3.84959,0.28667 -7.78231,0.09638 -11.63445,0.1621c-2.0026,0.03417 -4.00486,0.07528 -6.00688,0.12194zM415.47269,158.96286c-7.75078,-0.93233 -15.52046,-1.70089 -23.20608,-2.55963c-6.60165,-0.73763 -13.25668,-0.88598 -19.90295,-1.05268c0.5911,0.24446 1.19773,0.4645 1.83357,0.60696c1.58001,0.35399 3.21646,0.37591 4.82422,0.56791c11.65586,1.39196 22.87279,2.6413 34.61668,2.46489c0.61151,-0.00919 1.22303,-0.01835 1.83455,-0.02745zM466.74871,168.97183c0.16856,0.07155 0.3371,0.1432 0.50561,0.21494c4.63258,1.56158 9.27863,3.08101 13.9554,4.52937c0.5494,0.06282 1.09874,0.12589 1.64803,0.18913c-2.56099,-0.8249 -5.12199,-1.6498 -7.68298,-2.47469c-2.78854,-0.89819 -5.59966,-1.70785 -8.42605,-2.45874zM420.05093,222.7769c-0.56792,0.13518 -1.13611,0.26957 -1.70452,0.40344c1.57644,0.10993 3.15284,0.21761 4.72913,0.32266c-0.41958,-0.119 -0.81498,-0.22333 -1.1797,-0.30636c-0.61495,-0.13999 -1.22992,-0.27989 -1.84491,-0.41974zM409.96036,222.57625c1.51162,-0.35685 3.02346,-0.70897 4.5345,-1.06131c-1.64788,-0.37397 -3.2958,-0.74778 -4.94371,-1.1217c-7.65264,-0.11222 -15.30627,-0.28213 -22.97175,-0.48703c-6.30441,-0.1687 -12.60865,-0.50242 -18.9105,-0.83985c4.73189,0.51777 9.47828,0.96248 14.26625,1.3373c9.33158,0.7305 18.67732,1.47994 28.0252,2.17257zM428.98244,220.54044c-1.09915,0.29382 -2.20041,0.57947 -3.30337,0.85884c3.07171,0.65639 6.08339,1.41234 8.89919,2.72234l0.10999,-0.33713l2.34942,0.76653c0.51465,0.15472 0.88957,0.6322 0.88957,1.19725c0,0.02984 -0.00105,0.05944 -0.0031,0.08876c10.31693,-0.88587 20.62475,-2.08835 30.93649,-3.12294l-1.09875,-0.37402c-0.50692,-0.15942 -0.87457,-0.63309 -0.87457,-1.19264c0,-0.02028 0.00048,-0.04045 0.00144,-0.06049c-9.25827,-0.43296 -18.46944,-0.6851 -27.77566,-0.59545c-3.3791,0.03255 -6.75567,0.04822 -10.13065,0.04896zM473.38988,221.4181c-0.158,0.0285 -0.31597,0.05719 -0.4739,0.08608c0.03518,0.00482 0.07032,0.00937 0.1054,0.01364c0.92665,0.11261 1.9312,0.09525 2.96562,0.01034c-0.66839,-0.0187 -1.3325,-0.04017 -1.98644,-0.07641c-0.2036,-0.01128 -0.40716,-0.0225 -0.61068,-0.03364zM375.83034,237.0722c-0.7338,-0.03479 -1.46628,-0.07708 -2.19843,-0.1244c0.35609,0.16784 0.72276,0.33789 1.10721,0.49905c2.97417,1.2468 6.0165,2.88988 9.10091,3.82243c3.86897,1.16976 8.17661,1.56789 12.14908,2.33292c0.97938,0.18861 1.95683,0.3816 2.93327,0.57496c8.42893,0.62349 16.84753,1.33248 25.25697,2.17473c7.61975,0.13162 15.24196,0.20038 22.87667,0.18873c5.1879,-0.00791 10.37388,-0.08239 15.55878,-0.1993c-3.46199,-0.74242 -7.2907,-0.86522 -10.73326,-1.35252c-8.19239,-1.15963 -16.35633,-2.3512 -24.59273,-3.14616c-17.14772,-1.65508 -34.29933,-3.23927 -51.45847,-4.77045zM469.36473,249.34452c-0.39097,-0.20307 -0.7802,-0.42132 -1.16892,-0.64355c-5.01998,0.13941 -10.0407,0.24717 -15.06292,0.30147c4.92008,0.18495 9.84281,0.30505 14.7691,0.3336c0.48758,0.00283 0.97517,0.00565 1.46275,0.00848zM461.6557,243.62089c1.07271,0.17782 2.12347,0.39738 3.13334,0.68383c1.53951,0.43669 3.11594,1.08258 4.65574,1.86009c6.36614,-0.1836 12.7312,-0.4152 19.09674,-0.6501c-2.29078,-0.16039 -4.568,-0.33398 -6.81722,-0.55145c-6.69117,-0.44136 -13.38074,-0.88291 -20.06861,-1.34238zM516.81612,249.18544c-0.88656,0.1837 -1.77313,0.36729 -2.65973,0.55078c-5.83829,1.20826 -11.69512,2.36201 -17.5474,3.54215c8.17279,0.10199 16.38871,0.04905 24.43502,-0.89799c1.04754,-0.31732 2.09533,-0.63389 3.14337,-0.94964c-0.26142,-0.08402 -0.52901,-0.16669 -0.80467,-0.24412c-2.16775,-0.60893 -4.36183,-1.34138 -6.56659,-2.00118zM485.07807,253.10804c1.17184,-0.24994 2.34444,-0.49679 3.51762,-0.7412c5.1836,-1.61217 10.35853,-3.25074 15.52728,-4.9191c-1.51498,0.05559 -3.02997,0.11116 -4.54496,0.16662c-8.56692,0.3014 -17.13136,0.64298 -25.69709,0.91636l2.01674,0.94074c0.43987,0.19357 0.747,0.63326 0.747,1.14467c0,0.69036 -0.55964,1.25 -1.25,1.25c-0.00022,0 -0.00044,0 -0.00066,0l-2.4999,-0.00113v-0.00088l-0.00334,0.00088c-1.66775,-0.00966 -3.3355,-0.01933 -5.00325,-0.02899c-10.6408,-0.06167 -21.26502,-0.5485 -31.88181,-1.19395l-0.90111,0.2198l-0.06619,-0.27135c-0.82615,0.31848 -1.66086,0.59716 -2.50314,0.84283c16.23139,1.06661 32.28705,1.6526 48.58456,1.6526c1.31495,0 2.63468,0.00845 3.95826,0.02211zM473.48332,248.54336c0.03036,0.02046 0.06067,0.04095 0.09093,0.06146l0.03046,-0.06531c-0.04047,0.00128 -0.08093,0.00257 -0.1214,0.00385zM542.23446,246.09331c-4.2035,0.13913 -8.40681,0.28344 -12.60999,0.43115c-2.59393,0.54023 -5.18802,1.07974 -7.78228,1.61844c2.21375,0.60779 4.36425,1.22029 6.46456,2.05149c4.49621,-1.34415 8.99793,-2.67205 13.50726,-3.97915c0.14017,-0.04063 0.28032,-0.08127 0.42046,-0.12192zM569.14894,211.36381c-11.23647,0.77147 -22.54078,2.35422 -33.7194,3.72774c-5.87658,1.27504 -11.76522,2.50476 -17.67445,3.67182c-9.23668,1.82422 -18.3507,2.88554 -27.65498,3.74718c-0.09909,0.56269 -0.57455,0.99564 -1.15714,1.02959l-2.48468,0.16654c-16.5929,1.11217 -33.15693,3.36554 -49.74591,4.74155c-17.39249,1.44073 -34.74094,4.27342 -52.08531,6.25136c-0.48572,0.05539 -0.97194,0.11304 -1.45862,0.17244c15.49254,0.77106 30.94336,2.52177 46.39997,3.82443c17.4407,1.46987 34.89425,2.62104 52.35847,3.77503c8.202,0.79206 16.53153,1.21862 24.70802,2.38239c2.04211,-0.07493 4.08421,-0.14982 6.12632,-0.22446c0.85795,-0.28295 1.71576,-0.56677 2.57345,-0.85149c16.60339,-5.51155 32.97086,-11.62837 49.3859,-17.67573c7.32628,-2.69646 14.48393,-6.03944 21.60691,-9.38703c-2.8455,1.02507 -5.691,2.05014 -8.5365,3.07521c-16.49921,5.94373 -34.16136,8.34605 -51.33595,11.60409c-14.73279,2.79482 -29.64852,5.42231 -44.57189,7.26555c-1.96066,0.45264 -4.01234,0.80002 -5.76524,0.67175c-0.52167,0.05702 -1.04332,0.11298 -1.56495,0.16786l-2.46896,0.25948c-0.04854,0.00573 -0.09792,0.00867 -0.148,0.00867c-0.69036,0 -1.25,-0.55964 -1.25,-1.25c0,-0.64098 0.48246,-1.16928 1.10405,-1.24157l2.46153,-0.32388l0.00846,0.06432l0.03162,-0.00332c0.60853,-0.06388 1.21709,-0.12925 1.82568,-0.19607c3.38122,-0.79143 6.88073,-1.13106 10.356,-1.88265c11.40577,-2.46672 22.72275,-4.95988 33.97313,-8.06389c2.77332,-0.76516 5.55903,-1.50182 8.34269,-2.24739c-2.70655,0.39902 -5.41666,0.77797 -8.13025,1.14542c-6.54544,1.44092 -13.10231,2.83198 -19.66635,4.18965c-15.01458,3.10543 -31.56442,8.41427 -47.01723,5.52103l-0.00408,0.17437l-2.49569,-0.05842c-0.67852,-0.01365 -1.22437,-0.56795 -1.22437,-1.24974c0,-0.49779 0.29098,-0.92762 0.71213,-1.12868l1.82332,-0.91768l0.03085,0.06129l0.15272,-0.13609c16.45632,-2.57444 33.03044,-4.43675 49.54513,-6.60377c5.9145,-0.77609 11.81342,-1.51766 17.69591,-2.31316c10.50695,-2.31379 20.98431,-4.75659 31.4144,-7.3968c5.77382,-1.46155 11.62467,-3.06045 17.52327,-4.54695zM491.62511,229.55796c-9.79518,1.26653 -19.59095,2.52527 -29.37618,3.86239c3.00904,0.18163 6.09484,0.41805 8.99959,0.14529c6.72987,-0.63195 13.60687,-2.35349 20.37659,-4.00768zM549.28265,221.06635c-2.94216,1.00674 -5.89114,1.98735 -8.86195,2.88645c-6.38374,1.93201 -12.87954,3.55389 -19.30928,5.32787c-2.33348,0.64381 -4.66983,1.26151 -7.00924,1.85823c3.97331,-0.71367 7.93677,-1.45127 11.88695,-2.20062c17.04199,-3.23288 34.58277,-5.60209 50.95458,-11.49993c6.37751,-2.29745 12.75501,-4.59491 19.13252,-6.89236c-1.71238,0.02755 -3.42522,0.06483 -5.13794,0.10574c-0.80228,0.25144 -1.60644,0.50551 -2.40985,0.77054c-11.02264,3.63613 -22.45722,5.85134 -33.76609,8.44964c-1.82481,0.41927 -3.65138,0.81651 -5.47969,1.19444zM574.87484,197.69323c-0.40804,-0.17939 -0.81615,-0.35871 -1.22433,-0.53794c-7.61926,-3.34555 -15.29199,-6.56845 -22.98471,-9.74442c-2.92351,-0.11531 -5.84687,-0.23767 -8.77013,-0.36216c2.78411,1.12997 5.5571,2.3011 8.31886,3.52748c1.30307,0.57864 2.61012,1.11296 3.89871,1.65548c3.8953,1.16075 7.78582,2.33778 11.66958,3.53802c4.23691,1.30938 8.46835,2.66402 12.73077,3.89773c-0.19407,-0.13703 -0.39822,-0.27241 -0.61568,-0.40384c-0.95582,-0.57765 -1.98164,-1.08596 -3.02306,-1.57035zM525.28454,183.85109c0.47195,0.01792 0.94394,0.03622 1.41596,0.05493c-3.33189,-1.21676 -6.67914,-2.40948 -10.04162,-3.60177c-9.44117,-3.3477 -18.3826,-7.91751 -27.75394,-11.42776c-4.35765,-1.63226 -8.85332,-2.97732 -13.30768,-4.37764c0.83218,0.92725 1.65069,1.92287 2.7387,2.6413c1.32908,0.87762 2.93539,1.23706 4.39919,1.86472c6.06311,2.59981 12.09906,5.6342 18.30947,7.85355c4.65139,1.66222 9.58997,2.76922 14.33663,4.14111c3.30021,0.95383 6.6017,1.90296 9.90329,2.85156zM498.82421,185.48273c-8.01565,-0.29836 -16.02689,-0.69793 -24.03917,-1.38919c-2.31962,-0.19513 -4.64032,-0.38148 -6.96033,-0.57569c1.53994,0.64236 2.99316,1.28825 4.17747,1.68561c0.5429,0.18215 1.08633,0.36265 1.63023,0.54166c3.10421,0.63595 6.20859,1.27109 9.3133,1.90462c15.26353,3.11461 30.34684,6.67752 45.419,10.54732c-0.64731,-0.36224 -1.27134,-0.69285 -1.86336,-0.96462c-9.09033,-4.17292 -18.4094,-7.94892 -27.67714,-11.74971zM503.8729,163.20514c12.28176,5.15742 24.42736,10.63182 36.61957,16.00854c4.40371,1.94222 8.79184,3.86644 13.16345,5.82222c2.8358,0.10238 5.67172,0.19256 8.50771,0.2639c2.09874,0.0528 5.21068,-0.28821 8.05858,-0.18104c-6.79925,-3.31212 -13.81711,-6.46148 -20.90585,-8.9415c-7.78888,-2.72498 -16.01834,-4.59374 -23.97343,-6.78497c-7.1858,-1.97933 -14.33305,-4.05708 -21.47004,-6.18714zM499.32364,183.00041c2.26272,0.08329 4.52579,0.15872 6.78935,0.23059c-5.77535,-1.48263 -11.54337,-2.99499 -17.28203,-4.6346c2.14139,0.92173 4.28456,1.83037 6.43145,2.71759c1.35471,0.55985 2.7084,1.12212 4.06123,1.68642zM582.21393,208.36883c0.52895,-0.10543 1.0581,-0.20853 1.58744,-0.30912c1.65004,-0.41987 3.30173,-0.83216 4.95635,-1.23413c-2.24677,-0.64535 -4.49702,-1.27787 -6.75262,-1.89055c-4.36126,0.68367 -8.69728,1.46311 -12.95459,2.47057c-3.30546,0.78096 -6.60955,1.55805 -9.91382,2.32816c6.80824,-0.69875 13.6129,-1.21294 20.37331,-1.32244c0.90167,-0.01425 1.80296,-0.0285 2.70393,-0.04248zM596.81438,202.79268c4.8001,0.72413 9.59989,1.47771 14.35881,2.35369c1.10569,-0.34522 2.2184,-0.67379 3.24758,-1.1966c2.05103,-1.04189 3.48592,-2.86952 5.48569,-3.74222c-5.9618,-0.96649 -12.98334,1.0116 -18.88434,1.94657c-1.39769,0.22145 -2.80087,0.43281 -4.20773,0.63856zM543.94135,243.53576c2.65464,-0.08692 5.30935,-0.17167 7.96418,-0.25382c6.89556,-1.9974 13.7813,-3.95217 20.71815,-5.72452c-2.35906,0.47079 -4.7165,0.9523 -7.0721,1.44712c-7.20291,1.51305 -14.40614,3.02418 -21.61023,4.53122zM590.97086,235.96685c-3.11753,0.59985 -6.2149,1.2588 -9.2974,1.9647c-5.07807,1.56031 -10.15613,3.12063 -15.2342,4.68094c0.51135,-0.03145 1.02259,-0.06374 1.53374,-0.09686c6.19328,-1.74106 12.83834,-3.56811 19.336,-4.3073c1.11536,-0.69989 2.22592,-1.39464 3.33809,-2.04689c0.1098,-0.06439 0.21763,-0.12935 0.32377,-0.19459zM575.12509,244.53522c-2.95478,0.23635 -5.90645,0.4395 -8.86166,0.61365c-7.60272,1.88149 -15.19132,4.30946 -22.01039,7.29095c-13.87296,6.06565 -27.76327,12.09358 -41.61557,18.20658c16.64976,-5.48196 32.91413,-11.57678 49.2274,-17.9883c7.5905,-2.76405 15.68381,-5.06795 23.26021,-8.12289zM408.71145,248.50471c-4.2767,-0.11692 -8.55473,-0.24989 -12.83586,-0.39583c8.83251,0.88383 17.65935,1.83254 26.50406,2.57347c0.01428,-0.00143 0.02855,-0.00285 0.04283,-0.00428c1.68662,-0.16853 3.30193,-0.32384 4.92508,-0.5923c-3.98868,-0.26758 -7.97667,-0.54733 -11.96444,-0.8251c-2.24243,-0.1562 -4.46276,-0.42277 -6.67166,-0.75597zM409.85763,217.89747c6.26509,0.09076 12.52959,0.1426 18.79952,0.14301c3.17918,-0.85526 6.34013,-1.78164 9.47299,-2.82669c2.2494,-0.75035 4.77925,-1.98232 7.11461,-2.37326c0.50963,-0.08531 1.1645,0.48602 1.54423,0.13558c0.329,-0.30363 -0.86957,-0.21904 -1.29145,-0.36887c-0.71642,-0.25444 -1.4147,-0.55739 -2.11947,-0.84253c-2.35553,-0.95301 -4.47179,-1.25285 -6.97786,-1.65114c-17.12821,-2.72224 -34.38911,-2.86807 -51.72371,-2.9131c-7.65086,-0.01987 -15.27589,-0.14676 -22.91105,-0.38143c8.85918,2.03782 17.70837,4.12094 26.5637,6.16486c7.17206,1.6554 14.35022,3.28482 21.52849,4.91357zM504.28931,180.1811c-3.78276,-1.26053 -7.51573,-2.61328 -11.25207,-4.10448c0.00359,0.03857 0.00542,0.07765 0.00542,0.11716c0,0.3471 -0.14147,0.66116 -0.3699,0.88766c3.86294,1.07287 7.73736,2.09621 11.61656,3.09967zM511.05872,247.82081c0.05406,-0.01105 0.10813,-0.0221 0.16219,-0.03315c-0.01303,-0.0024 -0.02607,-0.0048 -0.0391,-0.00719c-0.04103,0.01345 -0.08206,0.0269 -0.12308,0.04035zM556.63405,245.62512c0.00953,-0.00264 0.01905,-0.00527 0.02858,-0.00791c-0.00107,0.00004 -0.00214,0.00008 -0.00322,0.00013c-0.00845,0.00259 -0.01691,0.00519 -0.02536,0.00778zM615.08814,208.44604c-1.11821,-0.22754 -2.23947,-0.44653 -3.36322,-0.6582c-0.1175,0.12366 -0.26004,0.22329 -0.41949,0.29078l-0.54114,0.24339c1.44064,0.03324 2.88186,0.07423 4.32386,0.12403zM483.30718,219.90173c0.69117,0.14649 1.3788,0.31782 2.06386,0.51962c8.55145,-0.75273 16.95572,-1.5804 25.38632,-2.94412c-9.16875,0.67178 -18.35147,1.26847 -27.45018,2.4245zM588.15654,204.02209c-0.03048,0.00434 -0.06097,0.00869 -0.09145,0.01303c1.25833,0.35909 2.51545,0.72256 3.77175,1.08907c-0.64881,-0.28013 -1.29736,-0.56096 -1.94569,-0.84241c-0.57849,-0.08633 -1.15672,-0.17283 -1.73461,-0.25969zM592.5616,240.38968c-1.26384,0.04247 -2.53401,0.17229 -3.80443,0.35171c1.26751,-0.10107 2.54823,-0.19376 3.80443,-0.35171zM433.74511,181.65728c-5.49617,-1.1774 -11.05211,-1.91935 -16.62806,-2.55898c5.22647,0.97649 10.45611,1.93636 15.68663,2.89143c0.3134,-0.12078 0.62557,-0.23454 0.94143,-0.33245zM377.11643,172.38848c-0.36138,-0.00884 -0.72275,-0.01785 -1.08412,-0.02705c0.67234,0.09545 1.34462,0.19139 2.01682,0.28786c-0.31129,-0.08577 -0.6222,-0.1727 -0.9327,-0.26081z" fill="#7a7a7a" stroke-width="0.5" stroke-linecap="butt"/></g></g></svg>