<svg version="1.1" xmlns="http://www.w3.org/2000/svg" xmlns:xlink="http://www.w3.org/1999/xlink" width="131.67933" height="132.62598" viewBox="0,0,131.67933,132.62598"><defs><linearGradient x1="167.54192" y1="148.52434" x2="179.92219" y2="112.07906" gradientUnits="userSpaceOnUse" id="color-1"><stop offset="0" stop-color="#906e40"></stop><stop offset="1" stop-color="#bd9055"></stop></linearGradient></defs><g transform="translate(-151.92975,-109.74641)"><g data-paper-data="{&quot;isPaintingLayer&quot;:true}" fill-rule="nonzero" stroke-linejoin="miter" stroke-miterlimit="10" stroke-dasharray="" stroke-dashoffset="0" style="mix-blend-mode: normal"><path d="" data-paper-data="{&quot;index&quot;:null}" fill="none" stroke="#000000" stroke-width="1.5" stroke-linecap="round"></path><path d="" data-paper-data="{&quot;index&quot;:null}" fill="none" stroke="#000000" stroke-width="1.5" stroke-linecap="round"></path><path d="" data-paper-data="{&quot;index&quot;:null}" fill="none" stroke="#000000" stroke-width="1.5" stroke-linecap="round"></path><path d="M272.96865,174.67328" data-paper-data="{&quot;index&quot;:null}" fill="none" stroke="#d8d8d8" stroke-width="4" stroke-linecap="round"></path><g stroke="#000000" stroke-width="1.5"><path d="M250.18487,241.02043c-21.48642,3.77342 -41.96357,-10.58581 -45.73698,-32.07225c-3.77342,-21.48642 10.58581,-41.96357 32.07225,-45.73698c21.48642,-3.77342 41.96357,10.58581 45.73698,32.07225c3.77342,21.48642 -10.58581,41.96357 -32.07225,45.73698z" fill="#d8d8d8" stroke-linecap="butt"></path><path d="M236.49992,193.95826l-17.9442,-3.00796" fill="none" stroke-linecap="round"></path><path d="M234.06878,203.09318l-1.43627,-6.96901" fill="none" stroke-linecap="round"></path><path d="M250.61325,186.03696l-9.80923,7.03242" fill="none" stroke-linecap="round"></path><path d="M244.05595,200.70207l-0.95185,-6.62931" fill="none" stroke-linecap="round"></path><path d="M235.92353,220.23376c0,0 0.18995,-11.78986 2.94554,-12.22322c3.29508,-0.51821 8.77592,11.51846 8.77592,11.51846" fill="none" stroke-linecap="round"></path></g><g stroke="none" stroke-width="0" stroke-linecap="butt"><path d="M222.16524,134.38221l-36.04914,-12.24569l2.15309,-6.33831l36.04914,12.2457z" fill="#b1b1b1"></path><path d="M225.16582,141.80841l-6.14023,-2.08581l5.71915,-16.83613l6.14023,2.08581z" fill="#909090"></path><path d="M183.28867,153.87341l-31.35892,-11.0943l19.17445,-33.03269l18.22642,5.52863z" fill="url(#color-1)"></path><path d="M174.30133,140.65778l-5.54601,-1.88395l8.34322,-24.56096l5.54601,1.88395z" fill="#a9a9a9"></path></g></g></g></svg>