<svg version="1.1" xmlns="http://www.w3.org/2000/svg" xmlns:xlink="http://www.w3.org/1999/xlink" width="142.07423" height="123.9209" viewBox="0,0,142.07423,123.9209"><g transform="translate(-137.16427,-138.16295)"><g data-paper-data="{&quot;isPaintingLayer&quot;:true}" fill-rule="nonzero" stroke-linecap="butt" stroke-linejoin="miter" stroke-miterlimit="10" stroke-dasharray="" stroke-dashoffset="0" style="mix-blend-mode: normal"><path d="M238.9885,217.91295c-21.81525,0 -39.5,-17.68475 -39.5,-39.5c0,-21.81525 17.68475,-39.5 39.5,-39.5c21.81525,0 39.5,17.68475 39.5,39.5c0,21.81525 -17.68475,39.5 -39.5,39.5z" data-paper-data="{&quot;index&quot;:null}" fill="#000000" stroke="#000000" stroke-width="1.5"></path><g data-paper-data="{&quot;index&quot;:null}" stroke="none" stroke-width="0"><path d="M258.71106,168.50345c7.45315,0 13.49512,5.141 13.49512,5.141c0,0 -6.04197,5.141 -13.49512,5.141c-7.45315,0 -13.49512,-5.141 -13.49512,-5.141c0,0 6.04197,-5.141 13.49512,-5.141z" fill="#ffffff"></path><path d="M259.35368,178.78545c-2.8393,0 -5.141,-2.30171 -5.141,-5.141c0,-2.8393 2.30171,-5.141 5.141,-5.141c2.8393,0 5.141,2.30171 5.141,5.141c0,2.8393 -2.30171,5.141 -5.141,5.141z" fill="#000000"></path></g><g data-paper-data="{&quot;index&quot;:null}" stroke="none" stroke-width="0"><path d="M229.03426,168.6195c7.45315,0 13.49512,5.141 13.49512,5.141c0,0 -6.04197,5.141 -13.49512,5.141c-7.45315,0 -13.49512,-5.141 -13.49512,-5.141c0,0 6.04197,-5.141 13.49512,-5.141z" fill="#ffffff"></path><path d="M229.67689,178.9015c-2.8393,0 -5.141,-2.30171 -5.141,-5.141c0,-2.83929 2.30171,-5.141 5.141,-5.141c2.8393,0 5.141,2.30171 5.141,5.141c0,2.8393 -2.30171,5.141 -5.141,5.141z" fill="#000000"></path></g><path d="M173.95224,212.86446c0,-5.11073 4.14307,-9.2538 9.2538,-9.2538c5.11073,0 9.2538,4.14307 9.2538,9.2538c0,5.11073 -4.14307,9.2538 -9.2538,9.2538c-5.11073,0 -9.2538,-4.14307 -9.2538,-9.2538z" fill="#000000" stroke="none" stroke-width="0"></path><path d="M172.61371,220.72577c-1.70172,0.94587 -3.24985,1.79515 -3.3622,1.81657c-0.11188,0.02133 -0.22395,0.0396 -0.33619,0.05504l0.01063,0.04526l-2.75976,0.64817c-0.75423,0.40464 -1.51487,0.8004 -2.28228,1.18725l-0.02707,0.00038l0.00495,0.01034l-2.23378,1.06969c-0.33854,0.17119 -0.72131,0.26763 -1.12661,0.26763c-1.38071,0 -2.5,-1.11929 -2.5,-2.5c0,-0.65662 0.25314,-1.25412 0.66716,-1.70023c-0.07417,-0.23648 -0.11415,-0.48809 -0.11415,-0.74904c0,-0.86712 0.44146,-1.63113 1.11189,-2.07953l1.98698,-1.36843c2.89786,-2.5092 5.77191,-5.35648 8.9739,-7.46761c1.73121,-1.14142 3.31296,-2.81928 5.35835,-3.16031c0.66968,-0.11166 1.29174,0.15912 1.90173,0.52677c0.02966,-0.02092 0.05932,-0.04184 0.089,-0.06276l0.00809,-0.00222l-0.00161,-0.00231l3.51885,-2.44618c0.40941,-0.29276 0.91086,-0.46504 1.45256,-0.46504c0.24235,0 0.47665,0.03448 0.69825,0.09881l1.36026,-0.76074c0.36988,-0.21617 0.80028,-0.34005 1.25961,-0.34005c1.38071,0 2.5,1.11929 2.5,2.5c0,0.71505 -0.3002,1.35999 -0.78144,1.81565l-3.61991,3.44124l-0.0158,-0.01662c-0.03009,0.03762 -0.0604,0.07509 -0.09093,0.1124c-0.45466,0.55566 -1.00855,1.0081 -1.59938,1.4221c0.26058,0.39463 0.41227,0.86749 0.41227,1.37579c0,0.2994 -0.05263,0.58651 -0.14915,0.85258l-0.72673,2.15977l0.0377,-0.00122l-0.01014,-0.02515l1.09199,-0.4403c1.56696,-1.0777 3.11655,-2.16732 4.63444,-3.28134c0.71278,-1.00847 2.07765,-1.00847 2.07765,-1.00847l1.60286,4.50578c-1.06527,0.79253 -2.13206,1.58522 -3.20101,2.37642c-0.16031,0.34903 -0.39865,0.65479 -0.69268,0.89494l-3.83432,3.17839l-0.005,-0.00603c-0.01029,0.01176 -0.02059,0.0235 -0.03091,0.03524c-5.15592,5.86051 -14.17474,9.71353 -20.97061,13.19802l-0.06338,-0.00097l0.01156,0.02533l-2.25686,1.02983c-0.32856,0.15881 -0.69716,0.24783 -1.08655,0.24783c-1.38071,0 -2.5,-1.11929 -2.5,-2.5c0,-0.9701 0.55255,-1.81114 1.36009,-2.22559l1.80617,-0.97243c-0.04534,-0.18833 -0.06935,-0.38497 -0.06935,-0.58722c0,-0.84284 0.41708,-1.58826 1.05611,-2.04113l3.6901,-2.68157c2.63581,-1.94927 5.20015,-3.97667 7.76463,-6.00476z" fill="#000000" stroke="none" stroke-width="0.5"></path><path d="M186.58803,175.41629c-0.98805,0.42068 -1.73238,0.23624 -2.26007,-0.11108l-1.62748,0.5582c-6.20589,2.12848 -12.08235,4.43996 -17.97303,7.34188c-0.20553,0.10125 -0.40531,0.20285 -0.60005,0.3044c5.1483,-0.90339 10.26799,-1.9327 15.4325,-2.77159c2.00641,-0.32591 4.15006,-1.52449 6.04641,-0.79254c9.19232,3.54805 3.37254,6.54446 -0.37652,9.77935c-1.51,1.30291 -3.31171,3.01396 -5.2562,4.13126c1.44684,0.47758 2.82037,1.00382 3.00922,2.31625c0.38468,2.67337 -1.79666,4.30684 -4.43035,5.33716l0.02292,0.03861l-4.26366,2.53095c-0.17822,0.11009 -0.3713,0.19842 -0.57555,0.26129c-1.17979,0.9446 -2.27228,2.0687 -3.69635,2.51095c-0.11021,0.03423 -0.22086,0.06618 -0.33193,0.09603l0.01342,0.03897l-4.14787,1.42833c-0.27068,0.10036 -0.56347,0.15519 -0.86906,0.15519c-1.38071,0 -2.5,-1.11929 -2.5,-2.5c0,-0.61596 0.22276,-1.1799 0.59212,-1.61563l2.35981,-2.82345l0.02133,0.01782l0.03684,-0.08496c0.22379,-0.2322 0.44372,-0.4652 0.66077,-0.69827c-0.35743,0.15229 -0.71235,0.28659 -1.06373,0.39944c-0.06023,0.01934 -0.12056,0.03823 -0.181,0.05667l0.00923,0.02226l-0.75824,0.31426c-0.79532,0.97996 -1.59316,2.02956 -2.47463,3.22445c0,0 -1.48453,2.01151 -3.49604,0.52699c-0.79294,-0.5852 -1.04261,-1.25229 -1.05412,-1.84577l-1.05972,0.98938c-0.4472,0.41979 -1.0489,0.6769 -1.71066,0.6769c-1.38071,0 -2.5,-1.11929 -2.5,-2.5c0,-0.59538 0.20812,-1.14215 0.55559,-1.57152l1.75692,-2.21058l0.03923,0.03118l0.03252,-0.11741c2.66143,-2.79821 5.46366,-7.1665 9.58684,-7.99104c1.18783,-0.91727 2.39649,-1.80778 3.60588,-2.6999c-3.23733,0.53552 -6.48392,1.01637 -9.73303,1.46255l-0.00621,-0.00088l0.00022,0.00168l-4.07544,0.53934c-0.12029,0.01777 -0.24336,0.02698 -0.36859,0.02698c-1.38071,0 -2.5,-1.11929 -2.5,-2.5c0,-0.80224 0.37787,-1.51622 0.96533,-1.97367l3.6312,-2.87971l0.01625,0.02048c0.03477,-0.03704 0.0697,-0.07393 0.10481,-0.11067c0.2571,-0.26905 1.11621,-0.7876 2.16015,-1.36569c-1.25485,-0.13356 -2.23234,-1.19555 -2.23234,-2.48584c0,-0.60455 0.21459,-1.15899 0.57175,-1.59129l1.97918,-2.43486l0.1368,0.1112l0.23649,-0.48253c5.70174,-2.89727 12.4632,-3.67313 18.81079,-4.53618c1.38948,-0.18892 2.78935,-0.84313 4.16664,-0.57972c0.10202,0.01951 0.20358,0.04063 0.3047,0.06326l0.00527,-0.04978l4.17414,0.44226c1.16174,0.1081 2.09279,1.01111 2.24394,2.15983l0.15349,0.12927c0,0 0.97935,2.30019 -1.32084,3.27954zM185.30695,184.68648c0.31074,-0.14316 -0.68772,0.01386 -1.02319,0.081c-1.27909,0.25601 -2.53624,0.61267 -3.81159,0.88669c-1.25853,0.27041 -2.5225,0.51471 -3.78557,0.7633c-0.0828,0.53278 -0.33385,1.00991 -0.69711,1.37536l-2.49034,2.50667l0.31017,0.01077l-0.03354,-0.12217l2.378,-0.65281c0.03338,-0.00998 0.06705,-0.01928 0.101,-0.02788c2.70411,-2.04649 6.34068,-3.57172 9.05217,-4.82095z" fill="#000000" stroke="none" stroke-width="0.5"></path><path d="M208.60515,255.05677c0.06969,0.08418 0.1381,0.1758 0.20495,0.27542c1.39303,2.07592 -0.68289,3.46896 -0.68289,3.46896l-2.09917,1.23633c-8.47012,2.1629 -17.55584,2.67017 -26.20578,1.23924c-0.51605,-0.08537 -7.84314,-1.40783 -8.84493,-2.11417c-0.06276,-0.04425 -0.12484,-0.08929 -0.18628,-0.13508l-0.02124,0.04221l-3.04874,-1.53435c-0.84233,-0.40211 -1.42431,-1.26178 -1.42431,-2.25739c0,-1.38071 1.11929,-2.5 2.5,-2.5c0.21366,0 0.42105,0.0268 0.61901,0.07723l2.81067,0.65286c0.15826,0.03463 0.31623,0.06859 0.47392,0.10188c-0.13488,-0.30726 -0.20974,-0.64685 -0.20974,-1.00392c0,-1.28219 0.96525,-2.33893 2.20874,-2.48321l2.44636,-0.32118c3.22165,-0.64859 6.51335,-1.09165 9.78163,-1.62476c0.01471,-0.01489 0.02961,-0.02959 0.04468,-0.0441l2.64302,-2.55133l0.03615,0.03745l0.07589,-0.13922c0.72753,-0.55002 1.45767,-1.09353 2.1891,-1.63343c-1.1745,0.34893 -2.34494,0.59239 -3.49591,0.69054l-4.7866,1.23539c-0.21606,0.06088 -0.44398,0.09345 -0.67951,0.09345c-1.38071,0 -2.5,-1.11929 -2.5,-2.5c0,-0.79048 0.36688,-1.49528 0.93965,-1.9534l2.85901,-2.32437l0.01608,0.01978l0.0444,-0.06742c0.25539,-0.18282 0.51085,-0.36554 0.76638,-0.54817l-3.46492,1.02078c-0.24027,0.07682 -0.49635,0.11829 -0.76212,0.11829c-1.38071,0 -2.5,-1.11929 -2.5,-2.5c0,-0.95921 0.54021,-1.79225 1.33299,-2.21147l2.16827,-1.20036l0.01558,0.02814l0.04718,-0.06173c6.61074,-3.17994 12.2161,-7.40483 17.77501,-12.14989c0,0 1.90166,-1.62286 3.52452,0.2788c0.62659,0.73424 0.72776,1.42692 0.61583,2.00067l0.1713,-0.05748c0.2655,-0.09605 0.55191,-0.14841 0.85055,-0.14841c1.38071,0 2.5,1.11929 2.5,2.5c0,0.45097 -0.11941,0.87405 -0.32833,1.23935l-1.19448,2.18602l-0.06684,-0.03652c-0.07512,0.1682 -0.15918,0.33284 -0.25372,0.4933c-0.73755,1.25172 -2.33224,1.73316 -3.50214,2.59462c-1.30252,0.95912 -2.61366,1.90545 -3.92973,2.84456c1.41881,-0.75487 2.81126,-1.54537 4.16691,-2.33908l2.16594,-1.30808c0.38462,-0.24142 0.83964,-0.38103 1.32726,-0.38103c1.38071,0 2.5,1.11929 2.5,2.5c0,0.1132 -0.00752,0.22465 -0.0221,0.33386l-0.3273,2.74534l-0.09151,-0.01091c-0.03159,0.30816 -0.09384,0.61253 -0.1961,0.91195c-0.03103,0.09086 -0.06669,0.17868 -0.1066,0.26371l1.19235,-0.50937c0.31487,-0.14306 0.66465,-0.22274 1.03303,-0.22274c1.38071,0 2.5,1.11929 2.5,2.5c0,0.44004 -0.11369,0.85353 -0.3133,1.21269l-1.74731,3.29769l-0.05766,-0.03055c-0.10008,0.1977 -0.21106,0.3905 -0.33478,0.57759c-0.36376,0.55003 -1.3637,1.21264 -2.59257,1.87369c1.96655,-0.8113 3.9041,-1.64428 5.80262,-2.43809l0.18338,0.00017l-0.01331,-0.05103l3.62959,-0.94646c0.21788,-0.06201 0.4479,-0.0952 0.68567,-0.0952c1.38071,0 2.5,1.11929 2.5,2.5c0,0.56544 -0.18772,1.08704 -0.50424,1.50587l-2.85994,3.87522l-0.04442,-0.03278c-0.12821,0.1727 -0.26391,0.34047 -0.40813,0.50264c-0.10617,0.11939 -4.66483,2.13386 -7.54095,3.39097z" fill="#000000" stroke="none" stroke-width="0.5"></path><path d="M190.91937,175.58141c1.11959,-1.6045 3.02932,-0.73076 3.02932,-0.73076l1.90183,1.02075c0.68967,0.65781 1.2905,1.39822 1.82961,2.18877l0.21356,-0.23869l1.98207,1.7734c0.51639,0.45799 0.84184,1.12649 0.84184,1.871c0,1.38071 -1.11929,2.5 -2.5,2.5c-0.43574,0 -0.84544,-0.11148 -1.20214,-0.30747l-2.7223,-1.42488l0.08319,-0.15894l-0.42813,-0.0592c-0.98646,-1.0182 -1.97292,-2.03641 -2.95937,-3.05461c0,0 -1.62365,-1.70238 -0.06948,-3.37936z" fill="#000000" stroke="none" stroke-width="0.5"></path><path d="M154.64501,244.24373c-2.43678,0.55868 -2.99545,-1.8781 -2.99545,-1.8781l-0.20496,-1.0498c-0.63424,-1.53261 -1.51094,-3.32627 -2.34918,-5.18943c-0.08564,-0.13558 -0.15861,-0.27997 -0.21724,-0.4315l-1.09711,-2.65299l0.01799,-0.00744c-0.01524,-0.0403 -0.0304,-0.08058 -0.04547,-0.12085l-0.03354,-0.0352c-0.01563,-0.06048 -0.0312,-0.12097 -0.0467,-0.18145c-0.58959,-1.60881 -1.02556,-3.18321 -1.13101,-4.60258c-0.01318,-0.17743 -0.02249,-0.35483 -0.02832,-0.53221c-0.44517,-2.25211 -0.81525,-4.51125 -1.13662,-6.78162c0.24166,3.02092 0.69288,6.10604 1.20724,8.96431c0.33015,1.83463 1.45488,4.48515 1.54225,6.30103l1.08654,4.82499c0.04768,0.19284 0.07298,0.39451 0.07298,0.60209c0,1.38071 -1.11929,2.5 -2.5,2.5c-0.79561,0 -1.50442,-0.37165 -1.96228,-0.95082l-1.86614,-2.32035l0.04981,-0.04006l-0.15131,-0.09527c-9.49278,-15.78246 -6.13117,-34.63345 2.88002,-50.01254c0,0 1.26567,-2.15594 3.42161,-0.89026c2.15594,1.26567 0.89026,3.42161 0.89026,3.42161c-1.02881,1.74884 -1.98421,3.55701 -2.84979,5.41017c0.44544,0.38291 0.75447,0.92004 0.84425,1.52856l0.43574,2.63157l-0.02068,0.00342c0.01233,0.03496 0.02441,0.07004 0.03623,0.10524c0.99654,2.96756 0.5447,6.23742 0.87287,9.35058c0.40613,3.85276 0.849,7.67217 1.48304,11.46319l0.62299,0.58974c0.52214,1.7141 1.51492,3.35118 1.56642,5.14231c0.00208,0.07238 0.00346,0.14472 0.00417,0.21702l0.0317,-0.00394l0.43566,3.50812c0.88844,2.45139 1.22132,3.15515 2.55342,6.37219l0.45869,1.84482c0,0 0.55868,2.43678 -1.8781,2.99545z" fill="#000000" stroke="none" stroke-width="0.5"></path></g></g></svg>