<svg version="1.1" xmlns="http://www.w3.org/2000/svg" xmlns:xlink="http://www.w3.org/1999/xlink" width="78.63927" height="76.20875" viewBox="0,0,78.63927,76.20875"><g transform="translate(-440.67049,-139.11539)"><g data-paper-data="{&quot;isPaintingLayer&quot;:true}" fill-rule="nonzero" stroke-linejoin="miter" stroke-miterlimit="10" stroke-dasharray="" stroke-dashoffset="0" style="mix-blend-mode: normal"><path d="" data-paper-data="{&quot;index&quot;:null}" fill="none" stroke="#000000" stroke-width="1.5" stroke-linecap="round"/><path d="M508.55432,183.34091c-3.21812,15.24097 -18.18218,24.98739 -33.42314,21.76928c-15.24097,-3.21812 -24.98739,-18.18218 -21.76928,-33.42314c3.21812,-15.24097 18.18218,-24.98739 33.42314,-21.76928c15.24097,3.21812 24.98739,18.18218 21.76928,33.42314z" fill="#000000" stroke="none" stroke-width="NaN" stroke-linecap="butt"/><path d="M483.68768,191.83499l-8.2719,22.95776l-5.85393,-1.23608l1.24717,-24.44101z" fill="#000000" stroke="none" stroke-width="0" stroke-linecap="butt"/><path d="M469.89567,193.16515l-22.08271,10.38447l-3.26535,-5.01339l18.16432,-16.40054z" fill="#000000" stroke="none" stroke-width="0" stroke-linecap="butt"/><path d="M463.62825,180.69332l-22.95776,-8.2719l1.23608,-5.85393l24.44101,1.24716z" fill="#000000" stroke="none" stroke-width="0" stroke-linecap="butt"/><path d="M466.93271,168.36915l-10.38447,-22.08271l5.0134,-3.26535l16.40054,18.16429z" fill="#000000" stroke="none" stroke-width="0" stroke-linecap="butt"/><path d="M475.79426,162.07316l8.27191,-22.95777l5.85393,1.23608l-1.24716,24.44101z" fill="#000000" stroke="none" stroke-width="0" stroke-linecap="butt"/><path d="M488.25741,161.49345l22.08271,-10.38447l3.26535,5.01339l-18.16429,16.40055z" fill="#000000" stroke="none" stroke-width="0" stroke-linecap="butt"/><path d="M496.35199,173.6699l22.95777,8.27191l-1.23608,5.85393l-24.44101,-1.24717z" fill="#000000" stroke="none" stroke-width="0" stroke-linecap="butt"/><path d="M495.43911,189.97608l10.38447,22.08271l-5.0134,3.26535l-16.40052,-18.1643z" fill="#000000" stroke="none" stroke-width="0" stroke-linecap="butt"/></g></g></svg>