<svg version="1.1" xmlns="http://www.w3.org/2000/svg" xmlns:xlink="http://www.w3.org/1999/xlink" width="105.08397" height="98.44167" viewBox="0,0,105.08397,98.44167"><defs><radialGradient cx="480" cy="180.00001" r="39.25" gradientUnits="userSpaceOnUse" id="color-1"><stop offset="0" stop-color="#ebebeb"/><stop offset="1" stop-color="#dbdbdb"/></radialGradient></defs><g transform="translate(-427.25023,-139.00763)"><g stroke-miterlimit="10"><path d="M427.25023,219.79824c0,-9.74841 8.13632,-17.65107 18.17299,-17.65107c10.03667,0 18.17303,7.90266 18.17303,17.65107c0,9.74841 -8.13636,17.65106 -18.17303,17.65106c-10.03668,0 -18.17299,-7.90266 -18.17299,-17.65106z" fill-opacity="0.8" fill="#a3a3a3" stroke="none" stroke-width="0" stroke-linecap="butt"/><path d="" fill="none" stroke="#000000" stroke-width="1.5" stroke-linecap="round"/><path d="M453.86888,209.28697c-16.17475,-14.43182 -17.58765,-39.24334 -3.15583,-55.4181c14.43182,-16.17475 39.24334,-17.58765 55.4181,-3.15583c16.17475,14.43182 17.58765,39.24334 3.15583,55.4181c-14.43182,16.17475 -39.24334,17.58765 -55.4181,3.15583z" fill="url(#color-1)" stroke="#ffffff" stroke-width="2.5" stroke-linecap="butt"/><path d="M469.41339,171.51593c4.80577,5.3341 7.12163,11.08173 5.17264,12.83769c-1.94902,1.75595 -7.42483,-1.14472 -12.23058,-6.47881c-4.80577,-5.3341 -7.12163,-11.08173 -5.17264,-12.83769c1.94902,-1.75595 7.42483,1.14472 12.23058,6.47881z" fill="#ffffff" stroke="#000000" stroke-width="1.5" stroke-linecap="butt"/><path d="M481.65636,160.1544c4.80577,5.3341 7.12165,11.08174 5.17264,12.8377c-1.94902,1.75595 -7.42483,-1.14472 -12.23059,-6.47881c-4.80577,-5.3341 -7.12165,-11.08173 -5.17265,-12.83769c1.94902,-1.75595 7.42483,1.14471 12.23059,6.4788z" fill="#ffffff" stroke="#000000" stroke-width="1.5" stroke-linecap="butt"/><path d="M495.98818,156.65871c0,-9.74841 8.13632,-17.65108 18.17299,-17.65108c10.03667,0 18.17302,7.90266 18.17302,17.65108c0,9.74841 -8.13635,17.65105 -18.17302,17.65105c-10.03668,0 -18.17299,-7.90265 -18.17299,-17.65105z" fill-opacity="0.8" fill="#a3a3a3" stroke="none" stroke-width="0" stroke-linecap="butt"/></g></g></svg>