<svg version="1.1" xmlns="http://www.w3.org/2000/svg" xmlns:xlink="http://www.w3.org/1999/xlink" width="111.51719" height="80.5" viewBox="0,0,111.51719,80.5"><g transform="translate(-189.32433,-140.3707)"><g data-paper-data="{&quot;isPaintingLayer&quot;:true}" fill-rule="nonzero" stroke-linejoin="miter" stroke-miterlimit="10" stroke-dasharray="" stroke-dashoffset="0" style="mix-blend-mode: normal"><path d="" data-paper-data="{&quot;index&quot;:null}" fill="none" stroke="#000000" stroke-width="1.5" stroke-linecap="round"></path><path d="M289.92393,195.47554" data-paper-data="{&quot;index&quot;:null}" fill="none" stroke="#d8d8d8" stroke-width="4" stroke-linecap="round"></path><path d="M241.20088,220.1207c-21.81525,0 -39.5,-17.68475 -39.5,-39.5c0,-21.81525 17.68475,-39.5 39.5,-39.5c21.81525,0 39.5,17.68475 39.5,39.5c0,21.81525 -17.68475,39.5 -39.5,39.5z" fill="#d8d8d8" stroke="#000000" stroke-width="1.5" stroke-linecap="butt"></path><path d="M240.39832,174.20032l-14.03116,-4.59202" fill="none" stroke="#000000" stroke-width="1.5" stroke-linecap="round"></path><path d="M228.19225,178.95914l-0.25511,-5.86758" fill="none" stroke="#000000" stroke-width="1.5" stroke-linecap="round"></path><path d="M243.71478,173.69009l7.65337,-3.82668" fill="none" stroke="#000000" stroke-width="1.5" stroke-linecap="round"></path><path d="M246.28352,178.41109l0.21988,-5.35892" fill="none" stroke="#000000" stroke-width="1.5" stroke-linecap="round"></path><path d="M229.62579,192.95291l25.16666,2.30233l-24.96157,-0.52657" fill="none" stroke="#000000" stroke-width="3" stroke-linecap="round"></path><g stroke="#000000" stroke-linecap="butt"><path d="M278.77753,175.53638l18.54607,1.39555c0,0 2.84769,2.43017 2.7662,3.51306c-0.08163,1.08483 -3.25555,2.9901 -3.25555,2.9901l-18.54607,-1.39555z" fill="#af5400" stroke-width="1.5"></path><path d="M275.65476,167.06076c0,0 4.8132,-1.33818 6.7599,0.86302c2.28051,2.57864 1.81572,8.08006 1.62333,11.70615c-0.35661,6.72142 -2.80114,12.15912 -5.46001,12.14545c-1.23542,-0.00635 -5.01612,-1.48078 -5.01612,-1.48078c0,0 0.6566,-7.11582 0.84753,-10.71419c0.35661,-6.72142 1.24539,-12.51965 1.24539,-12.51965z" fill="#989898" stroke-width="1"></path><path d="M275.49072,166.64069c2.65887,0.01367 4.52522,5.47355 4.16861,12.19497c-0.35662,6.72141 -2.80114,12.15912 -5.46,12.14544c-2.65887,-0.01367 -4.52522,-5.47355 -4.16861,-12.19496c0.35662,-6.72141 2.80115,-12.15911 5.46,-12.14544z" fill="#989898" stroke-width="1"></path><path d="M275.44513,182.05641l-85.04153,-8.88845l12.13366,-4.56031l73.51047,7.68323c0,0 1.35067,1.81275 1.25143,2.76217c-0.10159,0.97189 -1.85404,3.00336 -1.85404,3.00336z" fill="#e6e6e6" stroke-width="0.5"></path></g></g></g></svg>