<svg version="1.1" xmlns="http://www.w3.org/2000/svg" xmlns:xlink="http://www.w3.org/1999/xlink" width="102.39915" height="87.18601" viewBox="0,0,102.39915,87.18601"><g transform="translate(-173.63158,-137.08443)"><g data-paper-data="{&quot;isPaintingLayer&quot;:true}" fill-rule="nonzero" stroke="#000000" stroke-linejoin="miter" stroke-miterlimit="10" stroke-dasharray="" stroke-dashoffset="0" style="mix-blend-mode: normal"><path d="M214.1329,169.8661l9.03846,-0.55335l1.36767,7.88223" data-paper-data="{&quot;index&quot;:null}" fill="none" stroke-width="1.5" stroke-linecap="round"></path><path d="M230.85248,175.91011l-1.36767,-7.88223l8.69655,-2.5239" data-paper-data="{&quot;index&quot;:null}" fill="none" stroke-width="1.5" stroke-linecap="round"></path><path d="M233.32472,199.20181c0,0 -1.13253,-8.54218 4.15702,-9.88813c5.15632,-1.31205 13.65335,5.78286 13.65335,5.78286z" data-paper-data="{&quot;index&quot;:null}" fill="#040404" stroke-width="1.5" stroke-linecap="round"></path><path d="M198.90985,177.81255c-3.10988,-17.92302 11.40931,-35.4092 32.42951,-39.05648c21.0202,-3.64728 40.58149,7.92551 43.69137,25.84853c1.91933,11.06159 1.80686,24.93225 -7.08767,32.51047c-0.37141,0.31644 -4.73969,3.77585 -4.73969,3.77585l2.15798,13.75033l-12.23001,3.08901l-3.14353,-15.16144l2.73084,15.33124l-14.47658,2.71971l-3.17878,-15.62036l3.49905,15.43895l-15.95135,2.67998c0,0 -2.75223,-16.52796 -3.15727,-16.51285c-2.6459,0.09879 -1.99157,0.34456 -3.96949,-0.26155c-12.14166,-3.72073 -14.51413,-16.65769 -16.57437,-28.53139z" data-paper-data="{&quot;index&quot;:null}" fill="#ffffff" stroke-width="2" stroke-linecap="butt"></path><path d="M248.32448,170.85751c1.01313,5.83895 -1.41721,11.13654 -5.4283,11.83252c-4.0111,0.69598 -8.08405,-3.47323 -9.09718,-9.31216c-1.01313,-5.83895 -2.87554,-10.7705 1.13556,-11.46648c3.17494,-0.55089 11.90385,5.58227 11.90385,5.58227c0,0 1.27488,2.14666 1.48608,3.36385z" data-paper-data="{&quot;index&quot;:null}" fill="#ababab" stroke-width="1" stroke-linecap="butt"></path><path d="M264.72962,156.54974c4.0111,-0.69598 3.91891,4.57474 4.93204,10.41367c1.01313,5.83895 -1.4172,11.13655 -5.4283,11.83253c-4.0111,0.69598 -8.08405,-3.47323 -9.09718,-9.31217c-0.2112,-1.21719 0.26598,-3.66786 0.26598,-3.66786c0,0 6.15251,-8.71528 9.32746,-9.26617z" data-paper-data="{&quot;index&quot;:null}" fill="#ababab" stroke-width="1" stroke-linecap="butt"></path><path d="" data-paper-data="{&quot;index&quot;:null}" fill="none" stroke-width="1.5" stroke-linecap="round"></path><path d="" data-paper-data="{&quot;index&quot;:null}" fill="none" stroke-width="1.5" stroke-linecap="round"></path><path d="" data-paper-data="{&quot;index&quot;:null}" fill="none" stroke-width="1.5" stroke-linecap="round"></path><path d="" data-paper-data="{&quot;index&quot;:null}" fill="none" stroke-width="1.5" stroke-linecap="round"></path><path d="" data-paper-data="{&quot;index&quot;:null}" fill="none" stroke-width="1.5" stroke-linecap="round"></path><path d="" data-paper-data="{&quot;index&quot;:null}" fill="none" stroke-width="1.5" stroke-linecap="round"></path><path d="" data-paper-data="{&quot;index&quot;:null}" fill="none" stroke-width="1.5" stroke-linecap="round"></path><path d="" data-paper-data="{&quot;index&quot;:null}" fill="none" stroke-width="1.5" stroke-linecap="round"></path><path d="" data-paper-data="{&quot;index&quot;:null}" fill="none" stroke-width="1.5" stroke-linecap="round"></path><path d="" data-paper-data="{&quot;index&quot;:null}" fill="none" stroke-width="1.5" stroke-linecap="round"></path><path d="M174.13158,196.03704c0,-5.41057 4.38614,-9.79671 9.79671,-9.79671c5.41057,0 9.79671,4.38614 9.79671,9.79671c0,5.41057 -4.38614,9.79671 -9.79671,9.79671c-5.41057,0 -9.79671,-4.38614 -9.79671,-9.79671z" fill="#ffffff" stroke-width="1" stroke-linecap="butt"></path></g></g></svg>