<svg version="1.1" xmlns="http://www.w3.org/2000/svg" xmlns:xlink="http://www.w3.org/1999/xlink" width="80.5" height="80.5" viewBox="0,0,80.5,80.5"><defs><radialGradient cx="489.37128" cy="177.3795" r="10.40477" gradientUnits="userSpaceOnUse" id="color-1"><stop offset="0" stop-color="#ffffff"/><stop offset="1" stop-color="#f3fffe"/></radialGradient><radialGradient cx="465.78772" cy="181.67922" r="10.40477" gradientUnits="userSpaceOnUse" id="color-2"><stop offset="0" stop-color="#ffffff"/><stop offset="1" stop-color="#f3fffe"/></radialGradient></defs><g transform="translate(-438.73854,-137.92397)"><g stroke-miterlimit="10"><path d="" fill="none" stroke="#000000" stroke-width="1.5" stroke-linecap="round"/><path d="" fill="none" stroke="#000000" stroke-width="1.5" stroke-linecap="round"/><path d="M439.48854,178.17397c0,-21.81525 17.68475,-39.5 39.5,-39.5c21.81525,0 39.5,17.68475 39.5,39.5c0,21.81525 -17.68475,39.5 -39.5,39.5c-21.81525,0 -39.5,-17.68475 -39.5,-39.5z" fill="#ffffff" stroke="#000000" stroke-width="1.5" stroke-linecap="butt"/><path d="M472.79024,167.28626c0,1.80048 -0.36489,3.26006 -0.81501,3.26006c-0.45012,0 -0.81502,-1.45958 -0.81502,-3.26006c0,-1.80048 0.3649,-3.26006 0.81502,-3.26006c0.45012,0 0.81501,1.45958 0.81501,3.26006z" fill="none" stroke="#000000" stroke-width="1.5" stroke-linecap="butt"/><path d="M479.10661,167.38815c0,1.85674 -0.3649,3.36194 -0.81502,3.36194c-0.45012,0 -0.81501,-1.5052 -0.81501,-3.36194c0,-1.85674 0.36489,-3.36193 0.81501,-3.36193c0.45012,0 0.81502,1.50519 0.81502,3.36193z" fill="none" stroke="#000000" stroke-width="1.5" stroke-linecap="butt"/><path d="M483.51684,192.16256c0,0 -5.0993,0.9633 -8.57383,1.0335c-3.23174,0.06529 -8.54149,-1.84852 -8.54149,-1.84852" fill="none" stroke="#000000" stroke-width="1.5" stroke-linecap="round"/><path d="M478.01549,180.95609c0,1.91302 -1.7369,3.46381 -3.87947,3.46381c-2.14257,0 -3.87948,-1.5508 -3.87948,-3.46381c0,-1.91302 1.7369,-3.46382 3.87948,-3.46382c2.14257,0 3.87947,1.5508 3.87947,3.46382z" fill="#ff6900" stroke="#000000" stroke-width="0" stroke-linecap="butt"/><path d="M491.45039,187.57442c-5.63049,1.14826 -11.12578,-2.48531 -12.27404,-8.11582c-1.14826,-5.63049 2.48531,-11.12578 8.11582,-12.27404c5.63049,-1.14826 11.12578,2.48531 12.27404,8.11582c1.14826,5.63049 -2.48531,11.12578 -8.11582,12.27404z" fill="url(#color-1)" stroke="#000000" stroke-width="1" stroke-linecap="butt"/><path d="M477.51255,194.94584c2.26455,-2.41817 4.34181,-5.08118 8.07714,-5.02523c1.20023,0.01799 2.28508,0.73632 3.43006,1.09682c1.26651,0.39878 2.62405,0.57275 3.80437,1.181c0.56128,0.28924 1.11807,0.62631 1.6188,1.02485c0.18208,-0.85477 0.49587,-1.6932 0.79565,-2.51104c1.20374,-3.28397 3.99421,-7.0308 7.19651,-8.58645c0.55804,-0.27109 1.26039,0.02406 1.85486,-0.15341c0.13231,-0.03949 -0.16955,-0.21814 -0.25964,-0.32279c-0.9551,-1.10961 -2.1221,-2.06461 -2.87571,-3.3198c-2.30544,-3.83987 -1.40338,-7.57763 -0.53653,-11.63778c3.30545,-2.32608 0.20947,-0.07634 -0.40433,0.02624c-1.26083,0.21074 -2.57302,0.14907 -3.83455,-0.05753c-4.33957,-0.71071 -7.90452,-3.44707 -11.10661,-6.33477c-0.20189,0.68458 -0.44224,1.36309 -0.6464,2.03071c-1.1399,3.72758 -4.09768,8.30033 -6.61112,11.32589c-0.86563,1.042 -1.76987,2.07759 -2.84394,2.90307c-0.35687,0.27427 -1.20229,-0.13982 -1.31757,0.29528c-0.10265,0.38742 0.83071,0.14137 1.13179,0.40591c0.80915,0.71092 1.6202,1.48701 2.11283,2.44485c0.50632,0.98442 1.98107,6.07477 1.94868,7.60575c-0.03046,1.43965 -0.72374,5.35468 -1.53422,7.60842zM479.43908,199.37794c-0.51513,1.35665 -2.13129,1.49742 -2.13129,1.49742l-1.82242,0.07028c-1.46367,-0.59825 -3.69241,-0.37623 -4.39098,-1.79474c-0.7171,-1.45614 0.7859,-3.1497 1.18064,-4.7241c0.55209,-2.20187 1.694,-4.88081 1.77206,-7.14356c0.02224,-0.64479 -1.29615,-5.07954 -1.30765,-5.10169c-1.19405,-2.29895 -4.15465,-2.10602 -3.86263,-5.78286c0.11762,-1.481 1.85241,-2.32538 2.84393,-3.43175c1.283,-1.43161 2.64664,-2.81818 3.6866,-4.43498c1.56972,-2.44036 3.58573,-4.92458 4.46672,-7.73017c0.36524,-1.16314 0.64423,-2.34897 0.89002,-3.54369l-0.09026,0.0092l-0.31783,-3.11807c-0.08863,-0.77785 0.18844,-1.58541 0.81602,-2.14745c1.02852,-0.92115 2.60904,-0.83409 3.53019,0.19444c0.03782,0.04223 0.07393,0.08539 0.10837,0.1294l2.36525,2.97555c2.77447,2.57359 6.05355,5.84995 9.99943,6.42336c2.32799,0.33829 7.27714,-0.86035 8.88091,1.07813c1.10917,1.34064 -0.40581,3.45624 -0.6087,5.18434c-0.56213,2.5965 -1.54657,5.38384 0.03879,7.8454c2.04516,3.17549 5.58376,4.70016 2.75049,9.20967c-0.6794,1.08133 -2.38945,0.92162 -3.51277,1.52908c-2.10452,1.13804 -4.03269,3.67536 -4.81169,5.91772c-0.59936,1.72524 -1.08905,7.08507 -3.00595,7.81443c-2.69355,1.02485 -4.57091,-2.74633 -6.42768,-3.68914c-0.92831,-0.47136 -2.0202,-0.51243 -3.00759,-0.84261c-3.56833,-1.19327 -3.93505,0.07726 -6.50072,2.79579c0,0 -0.63031,0.66681 -1.5312,0.8106z" fill="#ffffff" stroke="none" stroke-width="0.5" stroke-linecap="butt"/><path d="M480.65537,191.00942c1.77257,-1.89284 3.39859,-3.97733 6.32242,-3.93353c0.93949,0.01408 1.78865,0.57637 2.68489,0.85854c0.99138,0.31215 2.054,0.44834 2.9779,0.92443c0.43935,0.22639 0.87518,0.49023 1.26713,0.80221c0.14253,-0.66909 0.38814,-1.32534 0.62281,-1.96553c0.94223,-2.57056 3.12649,-5.50342 5.63313,-6.72111c0.4368,-0.21221 0.98658,0.01882 1.4519,-0.12008c0.10358,-0.03093 -0.13272,-0.17076 -0.20322,-0.25268c-0.74761,-0.86857 -1.6611,-1.6161 -2.25099,-2.59861c-1.80458,-3.00567 -1.0985,-5.93143 -0.41998,-9.10955c2.58736,-1.82075 0.16397,-0.05977 -0.3165,0.02055c-0.98694,0.16498 -2.01405,0.1167 -3.00152,-0.04502c-3.39684,-0.5563 -6.18731,-2.69823 -8.69379,-4.95857c-0.15804,0.53586 -0.34617,1.06697 -0.50598,1.58956c-0.89226,2.9178 -3.20748,6.49714 -5.17488,8.8654c-0.67757,0.81564 -1.38538,1.62625 -2.22612,2.2724c-0.27933,0.21468 -0.94111,-0.10943 -1.03135,0.23112c-0.08035,0.30326 0.65024,0.11067 0.88592,0.3177c0.63337,0.55649 1.26822,1.16396 1.65383,1.91372c0.39633,0.77057 1.5507,4.75507 1.52533,5.95344c-0.02383,1.12689 -0.5665,4.19141 -1.20093,5.95555zM482.16337,194.47867c-0.40322,1.06194 -1.66831,1.17211 -1.66831,1.17211l-1.42652,0.05504c-1.1457,-0.46828 -2.89026,-0.2945 -3.43709,-1.40485c-0.56132,-1.13979 0.61518,-2.46546 0.92418,-3.69782c0.43216,-1.72354 1.32599,-3.8205 1.38709,-5.59166c0.01742,-0.50472 -1.01457,-3.97605 -1.02357,-3.99338c-0.93467,-1.79951 -3.25207,-1.6485 -3.0235,-4.52658c0.09206,-1.15926 1.44998,-1.8202 2.2261,-2.68623c1.00427,-1.1206 2.07165,-2.20596 2.88571,-3.47152c1.22872,-1.91021 2.80676,-3.85477 3.49636,-6.05085c0.28589,-0.91046 0.50429,-1.83868 0.69666,-2.77386l-0.07065,0.00719l-0.24878,-2.4407c-0.06937,-0.60888 0.14748,-1.24099 0.63875,-1.68092c0.80508,-0.72101 2.04225,-0.65288 2.76327,0.15219c0.02961,0.03305 0.05787,0.06684 0.08483,0.10129l1.85144,2.32913c2.17173,2.01452 4.73847,4.5791 7.82711,5.02791c1.82225,0.2648 5.69626,-0.67344 6.95161,0.84392c0.8682,1.04939 -0.31764,2.7054 -0.47646,4.0581c-0.43999,2.03243 -1.21059,4.21424 0.03035,6.14103c1.60088,2.48564 4.37072,3.6791 2.15298,7.20894c-0.5318,0.84642 -1.87036,0.7214 -2.74964,1.19689c-1.64732,0.89081 -3.15661,2.87693 -3.76637,4.63214c-0.46915,1.35045 -0.85246,5.54589 -2.3529,6.11679c-2.1084,0.80221 -3.5779,-2.1497 -5.03133,-2.8877c-0.72664,-0.36896 -1.58132,-0.40114 -2.3542,-0.65957c-2.79314,-0.93404 -3.0802,0.06047 -5.08849,2.18842c0,0 -0.49339,0.52194 -1.19854,0.6345z" fill="#bfecff" stroke="none" stroke-width="0.5" stroke-linecap="butt"/><path d="M455.96162,185.10075c-1.88966,-5.4268 0.97776,-11.35798 6.40456,-13.24765c5.4268,-1.88965 11.35797,0.97776 13.24764,6.40457c1.88966,5.4268 -0.97776,11.35798 -6.40457,13.24764c-5.4268,1.88965 -11.35797,-0.97776 -13.24763,-6.40456z" fill="url(#color-2)" stroke="#000000" stroke-width="1" stroke-linecap="butt"/><path d="M483.08554,168.97991c-2.89173,1.61669 -5.67933,3.52349 -9.22141,2.3363c-1.13815,-0.38146 -1.95375,-1.3952 -2.93526,-2.08624c-1.08572,-0.76441 -2.32638,-1.34227 -3.26636,-2.2801c-0.447,-0.44596 -0.87522,-0.93613 -1.23133,-1.46789c-0.43296,0.75918 -0.98644,1.46278 -1.52032,2.15105c-2.14378,2.76362 -5.93992,5.48662 -9.46336,5.99681c-0.614,0.0889 -1.19361,-0.4055 -1.81391,-0.41688c-0.13805,-0.00254 0.09534,0.25932 0.14939,0.38637c0.5732,1.34716 1.39528,2.61136 1.73231,4.03609c1.03107,4.35849 -0.96304,7.64606 -3.02142,11.25154c-3.85556,1.21297 -0.22276,0.00916 0.39322,0.09772c1.2653,0.18193 2.49689,0.63899 3.63617,1.21878c3.91909,1.99446 6.48519,5.68385 8.65966,9.40725c0.40017,-0.59099 0.83515,-1.16454 1.23232,-1.73866c2.21763,-3.20569 6.42389,-6.66484 9.73713,-8.78469c1.14109,-0.73008 2.31698,-1.44234 3.59098,-1.90281c0.42327,-0.15302 1.10313,0.49816 1.34505,0.11863c0.21543,-0.33798 -0.7486,-0.38686 -0.95518,-0.73031c-0.55516,-0.92302 -1.09235,-1.90866 -1.27102,-2.97086c-0.1836,-1.09167 -0.0436,-6.38947 0.45199,-7.83838c0.46602,-1.36247 2.31499,-4.88233 3.77135,-6.78371zM482.59526,164.17213c0.90264,-1.13628 2.48529,-0.77981 2.48529,-0.77981l1.75777,0.48622c1.21301,1.01431 3.40399,1.4793 3.63902,3.04293c0.24127,1.60512 -1.70493,2.76254 -2.55894,4.14284c-1.19441,1.9304 -3.09564,4.1363 -3.85687,6.26859c-0.2169,0.60764 -0.30689,5.23334 -0.30267,5.25791c0.43986,2.55292 3.31934,3.26779 1.92499,6.6825c-0.56163,1.37543 -2.47086,1.65335 -3.75145,2.40656c-1.65702,0.97459 -3.37719,1.88182 -4.85887,3.10665c-2.23642,1.84872 -4.9114,3.60378 -6.60244,6.00955c-0.70108,0.99739 -1.32686,2.0426 -1.92368,3.10629l0.08879,0.01863l-0.64368,3.06742c-0.15168,0.76804 -0.6608,1.45339 -1.42936,1.79842c-1.25961,0.56547 -2.73913,0.00277 -3.30459,-1.25684c-0.02321,-0.05172 -0.04453,-0.10383 -0.06398,-0.1562l-1.35042,-3.55313c-1.86234,-3.29435 -3.99217,-7.41147 -7.57781,-9.15559c-2.11546,-1.02901 -7.19493,-1.38921 -8.13463,-3.72305c-0.6499,-1.61407 1.43579,-3.16999 2.1537,-4.75498c1.32376,-2.30335 3.10784,-4.66034 2.34451,-7.48698c-0.98476,-3.64646 -3.89355,-6.17334 0.17486,-9.61002c0.97556,-0.82408 2.55648,-0.15281 3.81117,-0.39062c2.35067,-0.44552 4.95807,-2.27784 6.38096,-4.17793c1.09476,-1.46192 3.18833,-6.4202 5.23617,-6.53325c2.87756,-0.15885 3.52158,4.00422 5.00458,5.46618c0.74144,0.73093 1.76932,1.10149 2.6099,1.71581c3.03775,2.22013 3.77283,1.12086 7.04266,-0.69057c0,0 0.80301,-0.444 1.70502,-0.30756z" fill="#ffffff" stroke="none" stroke-width="0.5" stroke-linecap="butt"/><path d="M478.89611,171.77661c-2.2635,1.26548 -4.44553,2.75803 -7.21814,1.82875c-0.8909,-0.2986 -1.52931,-1.09211 -2.29759,-1.63303c-0.84986,-0.59833 -1.82097,-1.05066 -2.55677,-1.78475c-0.34988,-0.34907 -0.68509,-0.73278 -0.96382,-1.149c-0.33892,0.59424 -0.77213,1.145 -1.19004,1.68376c-1.67807,2.16325 -4.64952,4.29469 -7.40752,4.69405c-0.4806,0.06959 -0.9343,-0.31741 -1.41985,-0.3263c-0.10808,-0.00198 0.07461,0.20298 0.11695,0.30243c0.44869,1.05451 1.09215,2.04407 1.35598,3.15929c0.80708,3.41164 -0.75384,5.98501 -2.36504,8.80722c-3.01796,0.94945 -0.17436,0.00716 0.3078,0.07648c0.99043,0.14241 1.95444,0.50019 2.84623,0.95401c3.06769,1.56117 5.07635,4.44907 6.7784,7.36362c0.31323,-0.46261 0.65372,-0.91154 0.96461,-1.36096c1.73587,-2.50927 5.02833,-5.21696 7.62181,-6.87627c0.89322,-0.57148 1.81365,-1.12897 2.81088,-1.48945c0.33134,-0.11975 0.86348,0.38995 1.05284,0.09287c0.16863,-0.26455 -0.58597,-0.3028 -0.74767,-0.57165c-0.43456,-0.72248 -0.85505,-1.49402 -0.9949,-2.32545c-0.14372,-0.8545 -0.03413,-5.00141 0.35379,-6.13556c0.36479,-1.06649 1.81208,-3.82168 2.95205,-5.31001zM478.51235,168.01328c0.70655,-0.88945 1.94537,-0.6104 1.94537,-0.6104l1.3759,0.38059c0.94947,0.79398 2.6645,1.15794 2.84846,2.38189c0.18884,1.25641 -1.33454,2.16239 -2.00304,3.24282c-0.93492,1.51104 -2.42311,3.23772 -3.01898,4.90677c-0.16979,0.47562 -0.24023,4.09643 -0.23692,4.11565c0.34431,1.99832 2.59823,2.55788 1.5068,5.23076c-0.43962,1.07663 -1.93409,1.29419 -2.93647,1.88378c-1.29703,0.76289 -2.64352,1.47301 -3.80332,2.43174c-1.75059,1.44711 -3.84443,2.82088 -5.16812,4.70402c-0.54876,0.78073 -1.03862,1.59884 -1.50577,2.43149l0.06951,0.01458l-0.50383,2.40105c-0.11871,0.6012 -0.51724,1.13765 -1.11885,1.40773c-0.98597,0.44262 -2.14407,0.00216 -2.58668,-0.98381c-0.01816,-0.04047 -0.03484,-0.08125 -0.05008,-0.12225l-1.05706,-2.78124c-1.45777,-2.57869 -3.1249,-5.80137 -5.93159,-7.16659c-1.65588,-0.80546 -5.63188,-1.08743 -6.36743,-2.91423c-0.5087,-1.26341 1.12387,-2.48132 1.68582,-3.72199c1.03618,-1.80297 2.43268,-3.64792 1.83518,-5.86049c-0.77082,-2.85431 -3.0477,-4.83224 0.13687,-7.52232c0.76363,-0.64505 2.00109,-0.11962 2.98323,-0.30577c1.84,-0.34873 3.88095,-1.78298 4.99475,-3.2703c0.85695,-1.14431 2.49568,-5.02544 4.09865,-5.11396c2.25243,-0.12435 2.75656,3.13433 3.91736,4.2787c0.58036,0.57212 1.38496,0.8622 2.04291,1.34307c2.3778,1.73781 2.95323,0.87736 5.51269,-0.54056c0,0 0.62855,-0.34755 1.33462,-0.24074z" fill="#bfecff" stroke="none" stroke-width="0.5" stroke-linecap="butt"/></g></g></svg>