<svg version="1.1" xmlns="http://www.w3.org/2000/svg" xmlns:xlink="http://www.w3.org/1999/xlink" width="191.5802" height="90.27708" viewBox="0,0,191.5802,90.27708"><g transform="translate(-94.9078,-139.75)"><g data-paper-data="{&quot;isPaintingLayer&quot;:true}" fill-rule="nonzero" stroke-linejoin="miter" stroke-miterlimit="10" stroke-dasharray="" stroke-dashoffset="0" style="mix-blend-mode: normal"><g><path d="M171.75794,167.90375c2.07788,-0.51236 4.09524,0.42247 4.50592,2.08801c0.41069,1.66554 -0.94083,3.43106 -3.01871,3.94342c-2.07788,0.51236 -4.09524,-0.42247 -4.50592,-2.08801c-0.41069,-1.66554 0.94083,-3.43106 3.01871,-3.94342z" fill="none" stroke="#000000" stroke-width="0.5" stroke-linecap="butt"></path><path d="M173.56985,170.55285c0,0 -3.95229,-10.78809 -3.26228,-13.23024c0.46354,-1.64062 3.51646,-2.62331 3.51646,-2.62331c0,0 2.55906,-1.17958 4.00817,0.76791c4.41517,5.93371 4.41367,17.89974 4.41367,17.89974l-17.47654,4.30932l-1.29532,-5.25318l5.34005,-1.31674z" fill="#989898" stroke="#000000" stroke-width="1" stroke-linecap="round"></path><path d="M176.79045,163.77337l3.64095,-0.89777l0.91152,3.69668l-3.64095,0.89777z" fill="#00f6ff" stroke="none" stroke-width="0" stroke-linecap="butt"></path><path d="M177.50436,168.75713l3.64095,-0.89777l0.91152,3.69668l-3.64095,0.89777z" fill="#00f6ff" stroke="none" stroke-width="0" stroke-linecap="butt"></path><path d="M175.59108,158.90932l3.64095,-0.89777l0.91152,3.69668l-3.64095,0.89777z" fill="#00f6ff" stroke="none" stroke-width="0" stroke-linecap="butt"></path></g><path d="M204.82949,180c0,-21.81525 17.68475,-39.5 39.5,-39.5c21.81525,0 39.5,17.68475 39.5,39.5c0,21.81525 -17.68475,39.5 -39.5,39.5c-21.81525,0 -39.5,-17.68475 -39.5,-39.5z" fill="#d8d8d8" stroke="#000000" stroke-width="1.5" stroke-linecap="butt"></path><path d="M228.58224,167.20295l9,1v8" fill="none" stroke="#000000" stroke-width="1.5" stroke-linecap="round"></path><path d="M248.51493,176.68819v-8l9,-1" data-paper-data="{&quot;index&quot;:null}" fill="none" stroke="#000000" stroke-width="1.5" stroke-linecap="round"></path><path d="M258.57949,195.375l-32.25,2.5" fill="none" stroke="#000000" stroke-width="1.5" stroke-linecap="round"></path><g><path d="M276.238,196.51898c0,-2.1401 1.7349,-3.875 3.875,-3.875c2.1401,0 3.875,1.7349 3.875,3.875c0,2.1401 -1.7349,3.875 -3.875,3.875c-2.1401,0 -3.875,-1.7349 -3.875,-3.875z" fill="none" stroke="#000000" stroke-width="0.5" stroke-linecap="butt"></path><path d="M279.988,195.39398c0,0 -14.24795,1.25461 -17,0c-1.8488,-0.84283 -2.12729,-4.04223 -2.12729,-4.04223c0,0 -0.66449,-2.76706 2.12729,-3.70777c8.50613,-2.8662 23,0 23,0v18h-6.75v-5.5z" fill="#989898" stroke="#000000" stroke-width="1" stroke-linecap="round"></path><path d="M272.738,190.64398v-3.75h4.75v3.75z" fill="#00f6ff" stroke="none" stroke-width="0" stroke-linecap="butt"></path><path d="M278.988,191.14398v-3.75h4.75v3.75z" fill="#00f6ff" stroke="none" stroke-width="0" stroke-linecap="butt"></path><path d="M266.488,190.64398v-3.75h4.75v3.75z" fill="#00f6ff" stroke="none" stroke-width="0" stroke-linecap="butt"></path></g><path d="M144.74861,186.61585c-0.55338,-0.10127 -0.92261,-0.32972 -1.16751,-0.60577c-0.51283,0.64708 -1.02992,1.29077 -1.55061,1.93146c0,0 -1.26151,1.55196 -2.81347,0.29045c-1.55196,-1.26151 -0.29045,-2.81347 -0.29045,-2.81347c1.38767,-1.70686 2.74842,-3.43603 4.07833,-5.18827l0.12735,-0.06251l-0.03603,-0.0358l1.42426,-1.4336c0.36232,-0.36488 0.86439,-0.59081 1.41922,-0.59081c1.10457,0 2,0.89543 2,2c0,0.13663 -0.0137,0.27005 -0.0398,0.39898l-0.82392,4.50206c0,0 -0.36004,1.96733 -2.32737,1.60728z" fill="#000000" stroke="none" stroke-width="0.5" stroke-linecap="butt"></path><path d="M173.48655,158.69712c0,0 1.69287,-1.06499 2.75786,0.62788c1.06499,1.69287 -0.62788,2.75786 -0.62788,2.75786c-1.93702,1.21837 -3.87955,2.40539 -5.77748,3.64219l0.0463,-0.02509c0.29095,-0.16515 0.62738,-0.25944 0.98583,-0.25944c1.10457,0 2,0.89543 2,2c0,0.49943 -0.18306,0.95611 -0.48575,1.30659l-1.82083,2.13492c-1.30671,1.60703 -2.7914,3.08599 -4.03008,4.74126c0.01197,0.05584 0.02161,0.11255 0.02881,0.17002c0.17166,-0.14727 0.34404,-0.2975 0.51673,-0.45145l0.02017,-0.00771l-0.00478,-0.00559l2.46688,-2.11082c0.35078,-0.30385 0.80834,-0.48771 1.30885,-0.48771c1.10457,0 2,0.89543 2,2c0,0.36683 -0.09876,0.71059 -0.27114,1.00615c-0.07178,0.17267 -0.16706,0.33312 -0.28185,0.47735l-1.29512,1.65915l-0.03486,-0.02721c-0.04173,0.07294 -0.08576,0.14483 -0.13228,0.21557c-0.22008,0.33462 -1.23611,1.11078 -2.42353,1.9538c-0.98255,1.31737 -2.09827,2.60476 -3.50291,4.13109l-0.07256,0.03532l0.01713,0.01838l-2.9224,2.72368c-0.35764,0.33518 -0.83853,0.54042 -1.36736,0.54042c-0.73959,0 -1.38541,-0.40144 -1.73146,-0.99831c-0.58405,-0.1511 -1.06458,-0.55946 -1.31347,-1.09697c-1.01913,0.96432 -2.05259,1.90351 -3.12531,2.8139l0.28553,0.24707l-2.60935,3.01557c-0.36682,0.4288 -0.91188,0.70057 -1.52041,0.70057c-1.10457,0 -2,-0.89543 -2,-2c0,-0.11564 0.00981,-0.22899 0.02866,-0.33926c-0.16635,0.04484 -0.34129,0.06875 -0.52181,0.06875c-1.10457,0 -2,-0.89543 -2,-2c0,-0.15246 0.01706,-0.30094 0.04937,-0.44362l0.54673,-2.65982c-0.61758,0.8528 -1.21961,1.70681 -1.80464,2.55834l-1.37328,2.17977c-0.35078,0.57725 -0.98556,0.96285 -1.7104,0.96285c-1.10457,0 -2,-0.89543 -2,-2c0,-0.39845 0.11652,-0.76969 0.31734,-1.08149l1.17077,-1.88552l0.01246,0.00774l0.00684,-0.01085l0.0041,-0.03366c0.06874,-0.10058 0.13771,-0.20099 0.20688,-0.30123l0.72163,-1.14542l0.02825,0.0178c0.00864,-0.0351 0.0186,-0.07012 0.02997,-0.10506c0.53876,-1.6552 1.904,-2.87939 3.14513,-4.15492c-0.26302,-0.33859 -0.41963,-0.76395 -0.41963,-1.22589c0,-0.50188 0.18486,-0.96058 0.49021,-1.31173l2.59965,-3.02557l0.00849,0.00729c0.01055,-0.01761 0.02114,-0.03519 0.03179,-0.05275c0.00283,-0.00466 5.58232,-5.75178 5.61396,-5.78436c4.01311,-4.13293 8.38524,-7.77684 12.85335,-11.4051l0.11095,-0.02386l-0.02367,-0.03634l1.99426,-1.29887c0.31867,-0.21453 0.70247,-0.33974 1.11551,-0.33974c1.10457,0 2,0.89543 2,2c0,0.50573 -0.18771,0.96761 -0.49725,1.31979l-0.2029,0.23341c0.4112,0.12618 0.76597,0.38135 1.01711,0.71831c0.45521,-0.28502 0.91102,-0.57051 1.3669,-0.85736z" fill="#989898" stroke="none" stroke-width="0.5" stroke-linecap="butt"></path><path d="M137.74793,162.62898c-1.76112,0 -1.97147,-1.55076 -1.99659,-1.92122c-0.1107,-0.59966 -0.24721,-1.20141 -0.39305,-1.80398c-0.32934,0.23855 -0.73424,0.37919 -1.17199,0.37919c-0.76439,0 -1.42862,-0.42882 -1.76526,-1.05902l-1.0249,-1.834c-0.74077,-1.13928 -1.57617,-2.23449 -2.28518,-3.38564l0.2891,2.32801c0.0126,0.09074 0.01912,0.18343 0.01912,0.27764c0,1.10457 -0.89543,2 -2,2c-0.4562,0 -0.87672,-0.15274 -1.21322,-0.40987c0.05236,0.15039 0.09972,0.28569 0.14141,0.40299l-0.00022,0.03655l0.01099,-0.00347l0.81699,2.58451c0.06941,0.20303 0.10707,0.42077 0.10707,0.64731c0,1.10457 -0.89543,2 -2,2c-0.55484,0 -1.05691,-0.22593 -1.41923,-0.59082l-0.34371,-0.34597c0.45392,1.643 1.05647,3.25487 1.87773,4.83034c0,0 0.91796,1.77689 -0.85893,2.69485c-1.77689,0.91796 -2.69485,-0.85893 -2.69485,-0.85893c-2.86191,-5.58412 -3.40578,-11.43489 -3.89896,-17.63314l0.00729,-0.02462l-0.00877,0.00048l-0.1178,-2.13443c-0.00262,-0.04192 -0.00395,-0.0842 -0.00395,-0.12679c0,-1.10457 0.89543,-2 2,-2c0.30022,0 0.58498,0.06615 0.84052,0.18466c0.36286,-0.36923 0.86796,-0.59822 1.42654,-0.59822c0.51767,0 0.98941,0.19668 1.34456,0.51938l1.15823,1.04382c-0.00182,-0.03499 -0.00274,-0.07021 -0.00274,-0.10565c0,-1.10457 0.89543,-2 2,-2c0.41547,0 0.80136,0.12669 1.12113,0.34354l1.74056,1.1426l-0.32954,-2.54309c-0.01366,-0.09438 -0.02074,-0.19089 -0.02074,-0.28906c0,-1.10457 0.89543,-2 2,-2c0.70752,0 1.32924,0.36739 1.68478,0.92181l1.40731,2.12482l-0.0311,0.0206c0.03364,0.03853 0.06683,0.07752 0.09954,0.11698c0.82678,0.01933 1.52946,0.54039 1.81535,1.2705l1.49938,3.58513l-0.02104,0.0088c0.02518,0.04449 0.05003,0.08921 0.07452,0.13416c1.22958,2.25629 1.63281,7.03137 2.08889,9.60038l0.03075,0.46885c0,0 0,2 -2,2z" fill="#000000" stroke="none" stroke-width="0.5" stroke-linecap="butt"></path><path d="M109.17501,173.63149c-2.3622,-0.49034 -5.39341,-1.00768 -6.80464,-2.4258c-0.0757,-0.07607 -0.14997,-0.15333 -0.22293,-0.23169l-0.03297,0.03672l-2.96962,-2.6661c-0.30229,-0.26909 -0.52238,-0.62852 -0.61793,-1.03592l-1.25442,-0.50506c-0.75734,-0.28476 -1.29621,-1.01578 -1.29621,-1.87266c0,-1.10457 0.89543,-2 2,-2c0.21741,0 0.42671,0.03469 0.62268,0.09883l3.5171,1.06206l-0.00544,0.01802c0.02713,0.00211 0.05426,0.00431 0.08139,0.00657c2.78169,0.23275 6.01945,1.63539 9.00912,2.74666c2.52384,0.4815 5.07681,0.83173 7.63978,1.09761c0,0 1.98925,0.20713 1.78211,2.19638c-0.20713,1.98925 -2.19638,1.78211 -2.19638,1.78211c-0.50597,-0.05287 -1.01131,-0.109 -1.51594,-0.16866c-0.36593,0.40379 -0.89455,0.65742 -1.48241,0.65742c-0.25129,0 -0.49176,-0.04634 -0.71332,-0.13095l-1.92468,-0.68375c-0.28578,-0.07905 -0.57959,-0.15418 -0.87977,-0.22672l-0.07842,2.78492c0,0 -1.61704,0.9766 -2.65714,-0.54001z" fill="#000000" stroke="none" stroke-width="0.5" stroke-linecap="butt"></path><path d="M123.20081,217.55538c0.79219,1.83642 -1.04423,2.62861 -1.04423,2.62861l-0.46483,0.15244c-0.78339,0.55142 -1.64298,0.96847 -2.54617,1.29735l0.14726,0.34887l-3.63936,1.5362c-0.2499,0.11227 -0.52704,0.17473 -0.81876,0.17473c-0.61004,0 -1.1563,-0.27313 -1.52314,-0.70377c-1.46097,1.0749 -2.96937,1.96055 -4.31167,2.13268c-0.08964,0.0115 -0.17934,0.02079 -0.26908,0.02807l0.0108,0.04828l-2.09478,0.46858c-0.1534,0.03769 -0.31376,0.05767 -0.47879,0.05767c-1.10457,0 -2,-0.89543 -2,-2c0,-0.48945 0.17582,-0.93783 0.46774,-1.28544l2.33856,-2.82648l0.02273,0.01881l0.05059,-0.10256c0.40002,-0.3847 0.76146,-0.76435 1.09973,-1.13541c-0.96962,0.46232 -1.77353,0.79825 -2.11159,0.82412c-0.12778,0.00978 -0.25523,0.01449 -0.3824,0.01467l0.00152,0.03765l-2.95549,0.11901c-0.03083,0.00141 -0.06184,0.00212 -0.09302,0.00212c-1.10457,0 -2,-0.89543 -2,-2c0,-0.6054 0.26898,-1.14797 0.69396,-1.51472l1.77211,-1.54592l0.01376,0.01577l0.03537,-0.05726c0.19653,-0.1504 0.39238,-0.30578 0.58781,-0.46511c-0.94518,0.52235 -1.87702,1.0992 -2.9308,1.18907c-0.08924,0.00761 -0.17841,0.01331 -0.26754,0.01723l0.00554,0.03856l-3.29,0.47307c-0.10383,0.01663 -0.21033,0.02528 -0.31884,0.02528c-1.10457,0 -2,-0.89543 -2,-2c0,-0.80747 0.47851,-1.50317 1.16744,-1.81901l3.15568,-1.52935c4.08798,-2.05742 8.12311,-3.90213 12.42928,-5.46299c0,0 1.14918,-0.41642 1.97631,0.30021l1.62115,-0.62713c0.23546,-0.09745 0.49359,-0.15122 0.76427,-0.15122c1.10457,0 2,0.89543 2,2c0,0.60745 -0.27081,1.15165 -0.69829,1.51845l-3.01211,2.61368l-0.30905,-0.35616c-0.58328,0.64095 -1.17978,1.25297 -1.79406,1.84708l4.33956,-0.75885c-0.90625,2.63051 -1.52017,4.37791 -2.33814,5.90013c0.45391,-0.33871 0.93852,-0.70116 1.4797,-1.10194l0.0261,-0.0062l-0.0058,-0.00826l1.75439,-1.23249c0.3289,-0.23749 0.73288,-0.37743 1.16956,-0.37743c1.10457,0 2,0.89543 2,2c0,0.05863 -0.00252,0.11667 -0.00747,0.17402c0.3092,-0.11308 1.86299,-0.58405 2.57448,1.06528z" fill="#000000" stroke="none" stroke-width="0.5" stroke-linecap="butt"></path><path d="M146.22705,223.40815c1.03394,1.712 -0.67806,2.74595 -0.67806,2.74595l-1.87721,0.63085c-0.09807,-0.07751 -0.20609,-0.20191 -0.31662,-0.33814l0.17023,1.28515c0.01424,0.09631 0.02162,0.19486 0.02162,0.29513c0,1.10457 -0.89543,2 -2,2c-0.90103,0 -1.66289,-0.59583 -1.91308,-1.41498l-0.69785,-2.10726l0,0l-0.00001,-0.00001c-0.64493,-1.94778 -1.32368,-3.88427 -2.00588,-5.8193c0,0 -0.66495,-1.88622 1.22128,-2.55117c1.88622,-0.66495 2.55117,1.22128 2.55117,1.22128c0.37498,1.06376 0.74888,2.12797 1.11687,3.19419c0.78767,0.09706 1.62466,0.30121 2.3516,0.26641l-0.69002,-0.08614c0,0 1.712,-1.03394 2.74595,0.67806z" fill="#000000" stroke="none" stroke-width="0.5" stroke-linecap="butt"></path><path d="M181.5337,188.18194c-0.18602,-0.58199 -0.23669,-1.48081 0.78004,-2.18788c1.64197,-1.1419 2.78387,0.50008 2.78387,0.50008l0.2447,4.03562c-1.77882,1.10519 -4.16511,3.3751 -6.53898,4.27873c0.75232,0.21446 1.48207,0.51802 2.16289,0.89013c0.01214,0.00663 0.02427,0.01329 0.03638,0.01996l0.00223,-0.00595l3.70216,1.3866c0.78144,0.27203 1.34224,1.01518 1.34224,1.88932c0,1.05591 -0.81828,1.9207 -1.8553,1.99485l-2.25215,0.18447l-0.00138,-0.01679l-0.04323,0.01994c-2.36613,0.0867 -4.48312,0.33797 -6.53636,0.0128c1.88644,1.4308 3.41962,2.65913 4.86373,4.17527l0.29555,-0.32816l2.24909,2.02555c0.41005,0.36626 0.66819,0.89903 0.66819,1.4921c0,1.10457 -0.89543,2 -2,2h-0.22877c1.87983,1.30701 3.33031,2.94714 3.23068,5.08426c-0.06657,1.42789 -2.34911,1.69889 -3.69856,2.17036c-3.37976,1.18081 -6.92734,-1.10837 -9.65334,-2.60666c0,0 -1.74847,-0.971 -0.77747,-2.71947c0.971,-1.74847 2.71947,-0.77747 2.71947,-0.77747c2.0333,1.14259 2.96559,2.04831 5.14972,2.26653c0.0979,0.00978 0.19644,0.0098 0.29534,0.00364c-1.95503,-0.88659 -3.98482,-2.44069 -5.59756,-3.30944l-0.01101,-0.01267l-0.00281,0.00502l-2.10235,-1.17563c-0.62992,-0.33672 -1.0585,-1.0008 -1.0585,-1.76498c0,-1.10457 0.89543,-2 2,-2c0.07682,0 0.15263,0.00433 0.22719,0.01276l2.82068,0.28391c-1.13639,-0.8973 -2.20805,-1.94558 -3.24916,-2.72919l-3.57867,-4.93415c2.30774,-0.48231 4.35463,-0.72829 6.3813,-0.87185c-1.02855,-0.50487 -1.98417,-1.10615 -1.86687,-2.06483c0.23531,-1.92304 2.71168,-2.77778 4.20317,-4.01426c0.74292,-0.6159 3.13297,-2.12022 4.89382,-3.21251z" fill="#000000" stroke="none" stroke-width="0.5" stroke-linecap="butt"></path><path d="M181.92021,165.79775c-1.82277,-0.82312 -0.99965,-2.64588 -0.99965,-2.64588l0.84267,-1.72568c0.01347,-0.01715 0.02688,-0.03427 0.04023,-0.05137c-0.15523,0.03865 -0.31762,0.05916 -0.48481,0.05916c-0.82555,0 -1.53428,-0.50019 -1.83966,-1.21405c-1.48448,1.32192 -2.9973,2.50609 -4.13606,2.90698c-0.12567,0.04424 -0.25265,0.08135 -0.38077,0.11225l0.00921,0.03295l-2.09265,0.58511c-0.18442,0.0561 -0.38012,0.08627 -0.58288,0.08627c-1.10457,0 -2,-0.89543 -2,-2c0,-0.30881 0.06999,-0.60127 0.19497,-0.86239l0.31369,-0.69465c-1.02499,0.61175 -2.09928,1.1202 -3.24069,1.47242l-3.59312,1.65859c-0.26476,0.12936 -0.56232,0.20196 -0.87684,0.20196c-1.10457,0 -2,-0.89543 -2,-2c0,-0.00624 0.00003,-0.01247 0.00009,-0.01869c-1.16354,1.02407 -2.35435,2.02532 -3.57908,3.00191c0,0 -1.56413,1.24639 -2.81052,-0.31774c-1.24639,-1.56413 0.31774,-2.81052 0.31774,-2.81052c4.95379,-3.94477 9.32687,-8.31939 13.6169,-12.96212l1.00108,-1.57509c0.35167,-0.57327 0.98419,-0.95567 1.70603,-0.95567c1.10457,0 2,0.89543 2,2c0,0.30714 -0.06924,0.59812 -0.19295,0.85816l-1.61972,3.61005l-0.03274,-0.01469c-0.02264,0.07178 -0.04624,0.14332 -0.07086,0.21463c-0.5689,1.6477 -1.74216,2.97865 -2.90895,4.3167c0.26485,-0.10938 0.52152,-0.23334 0.7616,-0.38635c2.49312,-1.58892 5.21926,-4.44006 7.47178,-6.34355l4.38179,-1.21119c-0.78543,2.53699 -1.47083,4.28534 -2.32328,5.87967c0.91481,-0.68379 1.76579,-1.32863 2.40482,-1.89849l0.0306,-0.01506l-0.00532,-0.00638l3.06225,-2.55305c0.34835,-0.29461 0.79882,-0.47223 1.29077,-0.47223c1.10457,0 2,0.89543 2,2c0,0.14947 -0.0164,0.29511 -0.04749,0.43522c0.34236,-0.27434 0.77688,-0.43843 1.24972,-0.43843c1.10457,0 2,0.89543 2,2c0,0.34286 -0.08627,0.66557 -0.2383,0.9476l-1.80714,3.5243l-0.36516,-0.18724c-0.72329,1.78835 -1.71969,3.31103 -3.47689,5.55364l-0.34452,0.90332c0,0 -0.82312,1.82277 -2.64588,0.99965z" fill="#000000" stroke="none" stroke-width="0.5" stroke-linecap="butt"></path></g></g></svg>