<svg version="1.1" xmlns="http://www.w3.org/2000/svg" xmlns:xlink="http://www.w3.org/1999/xlink" width="222.3387" height="80.5" viewBox="0,0,222.3387,80.5"><g transform="translate(-198.73854,-137.92395)"><g data-paper-data="{&quot;isPaintingLayer&quot;:true}" fill-rule="nonzero" stroke="#000000" stroke-linejoin="miter" stroke-miterlimit="10" stroke-dasharray="" stroke-dashoffset="0" style="mix-blend-mode: normal"><path d="M199.48855,178.17395c0,-21.81525 17.68475,-39.5 39.5,-39.5c21.81525,0 39.5,17.68475 39.5,39.5c0,21.81525 -17.68475,39.5 -39.5,39.5c-21.81525,0 -39.5,-17.68475 -39.5,-39.5z" fill="#d8d8d8" stroke-width="1.5" stroke-linecap="butt"></path><path d="M217.09446,165.86411l9,1v8" fill="none" stroke-width="1.5" stroke-linecap="round"></path><path d="M232.53462,174.67749v-8l9,-1" data-paper-data="{&quot;index&quot;:null}" fill="none" stroke-width="1.5" stroke-linecap="round"></path><path d="M230.98855,198.04895c0,0 0.3445,-8.61004 5.78628,-9.03188c5.30472,-0.41122 12.46372,8.03188 12.46372,8.03188z" fill="#040404" stroke-width="1.5" stroke-linecap="round"></path><g stroke-width="1"><path d="M420.57601,200.69889l-20.99994,0.05185l-0.02037,-8.24997l20.99994,-0.05185z" fill="#af5400" stroke-linecap="butt"></path><path d="M409.35615,192.67033c0,0 -0.77185,3.40883 -1.83257,4.80818c-0.95488,1.25971 -4.24764,3.21311 -4.24764,3.21311" fill="none" stroke-linecap="round"></path><path d="M404.05592,192.5834c0,0 3.30237,1.93711 4.26345,3.19209c1.06761,1.39409 1.8563,4.79908 1.8563,4.79908" data-paper-data="{&quot;index&quot;:null}" fill="none" stroke-linecap="round"></path><path d="M409.75492,192.16933c0,0 3.30237,1.93711 4.26345,3.19209c1.06761,1.39409 1.8563,4.79908 1.8563,4.79908" data-paper-data="{&quot;index&quot;:null}" fill="none" stroke-linecap="round"></path><path d="M415.75564,192.45452c0,0 -0.77186,3.40884 -1.83258,4.80819c-0.95488,1.25971 -4.24764,3.21311 -4.24764,3.21311" data-paper-data="{&quot;index&quot;:null}" fill="none" stroke-linecap="round"></path><path d="M398.13045,187.80259c1.27025,-0.00313 2.3095,3.84466 2.32123,8.59429c0.01173,4.74963 -1.00851,8.60252 -2.27876,8.60565c-1.27025,0.00313 -2.3095,-3.84466 -2.32123,-8.59429c-0.01173,-4.74963 1.00851,-8.60252 2.27876,-8.60565z" fill="#8f8f8f" stroke-linecap="butt"></path><path d="M396.79189,199.78992l-48.74985,0.12038c0,0 -1.2553,-2.1435 -1.25803,-3.2469c-0.00283,-1.14505 1.24135,-3.50308 1.24135,-3.50308l48.74985,-0.12038z" fill="#dddddd" stroke-linecap="butt"></path></g></g></g></svg>