<svg version="1.1" xmlns="http://www.w3.org/2000/svg" xmlns:xlink="http://www.w3.org/1999/xlink" width="111.16082" height="80.46364" viewBox="0,0,111.16082,80.46364"><g transform="translate(-439.80927,-139.71668)"><g stroke-miterlimit="10"><g><path d="M440.82781,181.14326c-0.65985,-21.66713 16.36989,-39.76675 38.03706,-40.42658c21.66713,-0.65985 39.76675,16.36989 40.42658,38.03706c0.65985,21.66713 -16.36989,39.76675 -38.03706,40.42658c-21.66713,0.65985 -39.76675,-16.36989 -40.42658,-38.03706z" fill="#c6c6c6" stroke="#00144d" stroke-width="2" stroke-linecap="butt"/><path d="M441.21663,176.76337c0,0 0.53738,-4.71621 1.31316,-6.9588c0.92441,-2.67222 3.86609,-8.01266 3.86609,-8.01266l33.99741,0.41863l-0.18223,14.79891z" fill="#ffffff" stroke="#001e6f" stroke-width="2" stroke-linecap="butt"/><path d="M471.77248,175.90703l0.29205,-12.87693l7.4722,0.08214l-0.29205,12.87693z" fill-opacity="0.35294" fill="#0015ff" stroke="none" stroke-width="0" stroke-linecap="butt"/><path d="M464.17008,175.9695l0.29205,-12.87693l7.47219,0.08215l-0.29205,12.87693z" fill-opacity="0.45098" fill="#0015ff" stroke="none" stroke-width="0" stroke-linecap="butt"/><path d="M456.36095,175.839l0.29205,-12.87693l7.4722,0.08214l-0.29205,12.87693z" fill-opacity="0.61961" fill="#0015ff" stroke="none" stroke-width="0" stroke-linecap="butt"/><path d="M493.82097,192.74774l-8.15222,4.86297l-8.92952,-3.71706l9.10013,-16.56847z" fill-opacity="0.31373" fill="#006bff" stroke="#00144d" stroke-width="1.5" stroke-linecap="round"/><path d="M448.45531,175.81188l0.29205,-12.87693l7.47219,0.08215l-0.29205,12.87693z" fill-opacity="0.70196" fill="#0015ff" stroke="none" stroke-width="0" stroke-linecap="butt"/><path d="M442.25208,175.82603c0,0 0.83915,-4.93089 1.63626,-7.18279c0.76217,-2.15323 3.04628,-6.0459 3.04628,-6.0459l1.27589,0.29618l-0.29205,12.87693z" fill-opacity="0.9098" fill="#0015ff" stroke="none" stroke-width="0" stroke-linecap="butt"/><path d="M442.56454,181.53824l34.20071,12.46568l9.0587,-17.76775l7.46779,16.64102l25.75094,-13.45253c0,0 0.15348,4.68006 -1.23044,10.02275c-1.58856,6.13264 -4.91702,13.23444 -8.02108,16.7491c-2.7067,3.06473 -8.18792,7.27787 -13.60208,9.44251c-5.70259,2.27993 -11.25027,3.20869 -11.25027,3.20869c0,0 -7.34734,0.21994 -15.11948,-1.54141c-6.10602,-1.38377 -12.51424,-5.15028 -15.71178,-7.84431c-3.84742,-3.24159 -9.42973,-10.85817 -11.74142,-17.38123c-2.05495,-5.7986 -1.05952,-10.7492 -1.05952,-10.7492z" fill-opacity="0.25098" fill="#172aff" stroke="#00144d" stroke-width="1.5" stroke-linecap="round"/><path d="M449.91256,205.1133c0,0 8.37709,-7.25784 12.76645,-4.35239c4.38938,2.90544 4.73481,15.93695 4.73481,15.93695c0,0 -6.93402,-2.10499 -9.94882,-4.10057c-2.80361,-1.85579 -7.55244,-7.48401 -7.55244,-7.48401z" fill-opacity="0.2" fill="#00ff15" stroke="#00144d" stroke-width="1.5" stroke-linecap="round"/><path d="M508.47029,207.24969c-2.52682,2.5858 -8.86192,6.10408 -8.86192,6.10408c0,0 -2.40713,-12.81191 1.2718,-16.57673c3.67893,-3.76478 13.3968,1.56575 13.3968,1.56575c0,0 -3.45684,6.50218 -5.80665,8.90686z" fill-opacity="0.2" fill="#00ff15" stroke="#00144d" stroke-width="1.5" stroke-linecap="round"/><path d="M504.14167,186.83076l-23.97526,-45.45706l9.80769,0.97332l21.47073,40.54059z" fill="#00f2ff" stroke="#00144d" stroke-width="1.5" stroke-linecap="butt"/><path d="M490.59837,169.09237c-0.21289,-6.16352 4.61104,-11.3326 10.77451,-11.5455c6.16352,-0.21289 11.3326,4.61104 11.5455,10.77451c0.21289,6.16352 -4.61104,11.3326 -10.77451,11.5455c-6.16352,0.21289 -11.3326,-4.61104 -11.5455,-10.77451z" fill="#00cdff" stroke="#00144d" stroke-width="1.5" stroke-linecap="butt"/><path d="M490.64099,144.57627l-7.70795,2.15626" fill="none" stroke="#00144d" stroke-width="1.5" stroke-linecap="round"/><path d="M492.77789,148.50486l-7.26377,2.14092" fill="none" stroke="#00144d" stroke-width="1.5" stroke-linecap="round"/><path d="M487.78507,155.23677l7.13737,-2.58125" fill="none" stroke="#00144d" stroke-width="1.5" stroke-linecap="round"/><path d="M497.07851,157.13932l-6.23366,2.99475" fill="none" stroke="#00144d" stroke-width="1.5" stroke-linecap="round"/><path d="M503.30621,182.93972l6.24901,-2.55058" fill="none" stroke="#00144d" stroke-width="1.5" stroke-linecap="round"/></g><g stroke="#00144d"><path d="M493.78272,192.78003c-0.69142,-4.88176 2.70557,-9.39972 7.58732,-10.09114c4.88176,-0.69142 9.39972,2.70557 10.09114,7.58732c0.69142,4.88176 -2.70557,9.39972 -7.58732,10.09114c-4.88176,0.69142 -9.39972,-2.70557 -10.09114,-7.58732z" fill="none" stroke-width="2.5" stroke-linecap="butt"/><path d="M498.90122,188.08844l-0.56998,-4.02436l45.41786,-6.43254l0.56998,4.02436z" fill="#4d5995" stroke-width="1.5" stroke-linecap="butt"/><path d="M500.68011,184.54593l-1.30281,-9.19855l49.44222,-7.00252l1.30281,9.19855z" fill="#6b7ccf" stroke-width="1.5" stroke-linecap="butt"/><path d="M484.91377,200.75497l7.55162,-23.49365l4.14594,1.33263l-7.55162,23.49365z" fill-opacity="0.25098" fill="#172aff" stroke-width="1.5" stroke-linecap="butt"/><path d="M497.80445,203.79863l-0.87765,-25.13583l4.19903,-0.29958l0.6198,25.26927z" fill-opacity="0.44314" fill="#172aff" stroke-width="1.5" stroke-linecap="butt"/><path d="M496.77319,210.37491l-9.21646,-0.89384l8.47005,-27.14965z" fill-opacity="0.8549" fill="#006ace" stroke-width="1.5" stroke-linecap="round"/><path d="M504.80988,189.43611l-13.30619,-9.11855l5.86876,14.05709c0,0 -11.69235,-3.36544 -12.55239,-9.43789c-0.86003,-6.07244 3.36544,-11.69235 9.43789,-12.55239c6.07244,-0.86003 10.55193,17.05176 10.55193,17.05176z" fill="#6cbbcf" stroke-width="1.5" stroke-linecap="butt"/><path d="M485.92475,178.70412l13.30619,9.11855l-5.86876,-14.05709c0,0 11.69235,3.36544 12.55239,9.43789c0.86003,6.07244 -3.36544,11.69235 -9.43789,12.55239c-6.07244,0.86003 -10.55193,-17.05176 -10.55193,-17.05176z" fill="#6cbbcf" stroke-width="1.5" stroke-linecap="butt"/><path d="M492.26828,183.7434c-0.24732,-1.74633 0.96783,-3.36251 2.71417,-3.60986c1.74633,-0.24732 3.36251,0.96783 3.60986,2.71417c0.24732,1.74633 -0.96783,3.36251 -2.71417,3.60986c-1.74633,0.24732 -3.36251,-0.96783 -3.60986,-2.71417z" fill="#6b73cf" stroke-width="1.5" stroke-linecap="butt"/></g></g></g></svg>