<svg version="1.1" xmlns="http://www.w3.org/2000/svg" xmlns:xlink="http://www.w3.org/1999/xlink" width="187.58241" height="95.98779" viewBox="0,0,187.58241,95.98779"><g transform="translate(-144.56124,-137.1537)"><g data-paper-data="{&quot;isPaintingLayer&quot;:true}" fill-rule="nonzero" stroke-linejoin="miter" stroke-miterlimit="10" stroke-dasharray="" stroke-dashoffset="0" style="mix-blend-mode: normal"><path d="M300.17053,216.90816c-0.06704,0.62715 -0.59791,1.1156 -1.24286,1.1156c-0.68534,0 -1.24186,-0.55154 -1.24991,-1.23496l-0.02351,-1.70888l0.22001,-0.00303l0.06487,-0.53501c-0.88712,-5.80262 0.69557,-12.86402 1.62014,-18.29115v-1.19201c0,-0.69036 0.55964,-1.25 1.25,-1.25c0.62742,0 1.14687,0.46225 1.23637,1.06477l0.40762,2.44572l-0.41647,0.06941c0.3013,1.16399 0.49056,2.33644 0.60562,3.51972c0.05388,-0.17614 0.10943,-0.35214 0.16677,-0.52801l0.61354,-1.87313c0.15515,-0.51394 0.63229,-0.8882 1.19684,-0.8882c0.69036,0 1.25,0.55964 1.25,1.25v2.5h-0.28913c0.54783,4.03042 0.3219,8.13301 0.29217,12.2524c0.19416,0.22028 0.31195,0.50948 0.31195,0.8262c0,0.02005 -0.00047,0.03999 -0.00141,0.05981l-0.10318,2.48981l-0.2081,-0.00862l-0.01015,0.07993c-0.01249,0.11137 -0.03961,0.21831 -0.07939,0.31886c0.19775,2.28017 0.092,4.48738 0.07499,7.0581l-0.09467,0.15204l0.05883,0.01681l-0.62746,2.1961c-0.14026,0.53693 -0.62861,0.93317 -1.2095,0.93317c-0.69036,0 -1.25,-0.55964 -1.25,-1.25v-1.2701h0.30642c-0.69969,-3.4639 -0.15962,-7.12284 -0.57234,-10.71416c-0.22606,0.32248 -0.60054,0.5333 -1.02426,0.5333c-0.40225,0 -0.76012,-0.19 -0.98877,-0.48515z" fill="#bd00f2" stroke="none" stroke-width="0.5" stroke-linecap="butt"></path><path d="M307.1454,154.15555c1.21268,0.30317 0.90951,1.51585 0.90951,1.51585l-0.30352,1.20722c-1.30098,9.06095 0.14702,18.83423 -3.67467,27.27572l0.18094,0.03619l-0.31298,1.56491c-0.10493,0.58424 -0.61583,1.02756 -1.23027,1.02756c-0.63664,0 -1.16211,-0.47594 -1.24004,-1.09142l-0.15339,-1.07376c-0.35999,-0.1357 -0.64085,-0.43278 -0.7544,-0.80303c-0.03088,0.19455 -0.06327,0.38883 -0.09754,0.58281c0.0025,0.45832 0.00261,0.92802 0.00261,1.41273v1.62781c0,0.69036 -0.55964,1.25 -1.25,1.25c-0.69036,0 -1.25,-0.55964 -1.25,-1.25v-1.62781c0,-0.00494 0,-0.00989 -0.00001,-0.01484c-0.0012,-0.0034 -0.00238,-0.0068 -0.00355,-0.0102c-0.10634,0.02942 -0.21837,0.04514 -0.33406,0.04514c-0.69036,0 -1.25,-0.55964 -1.25,-1.25v-1.32579c-0.54676,-0.13345 -0.95257,-0.62653 -0.95257,-1.2144c0,-0.30413 0,-2.19587 0,-2.5c0,-4.1546 0,-8.30921 0,-12.46381c0,-2.17274 0.26685,-4.52691 -0.2802,-6.64216c0,0 -0.30317,-1.21268 0.90951,-1.51585c1.21268,-0.30317 1.51585,0.90951 1.51585,0.90951c0.71327,2.93282 0.83963,6.1966 0.77081,9.50208c0.31975,0.22608 0.52866,0.59853 0.52917,1.0198c0,0.00007 0,0.00013 0,0.0002l0.00311,2.4998l-0.30574,0.00038l-0.01054,0.08431c-0.00003,0.0028 -0.00007,0.0056 -0.0001,0.0084c0.11935,0.84091 0.19797,1.67822 0.24906,2.51798c0.12822,-0.04441 0.26592,-0.06853 0.40926,-0.06853c0.08137,0 0.16092,0.00777 0.23795,0.02262c0.10979,-0.36996 0.2294,-0.73997 0.36004,-1.11047l0.43724,-1.22897c0.16432,-0.49856 0.63385,-0.85842 1.18744,-0.85842c0.64351,0 1.17345,0.48627 1.2424,1.11141l0.30803,2.46424l-0.31393,0.03924c0.24262,1.24677 0.30851,2.43163 0.32539,3.94688c0.33248,-0.71986 0.63168,-1.42767 0.69637,-2.06268c0.71582,-7.02747 0.6019,-14.33256 1.59543,-21.31815l0.33153,-1.33297c0,0 0.30317,-1.21268 1.51585,-0.90951z" fill="#bd00f2" stroke="none" stroke-width="0.5" stroke-linecap="butt"></path><path d="M161.73381,225.20339c-1.25,0 -1.25,-1.25 -1.25,-1.25l0.01349,-0.50068c0.17078,-1.1481 0.29451,-2.57074 0.48789,-4.0215c-0.06637,0.01089 -0.1345,0.01656 -0.20395,0.01656c-0.69036,0 -1.25,-0.55964 -1.25,-1.25v-2.5c0.00029,-0.56363 -0.03122,-1.04554 -0.05157,-1.48253c-0.35061,-0.22141 -0.58348,-0.61234 -0.58348,-1.05767v-1.94533c0,-0.15634 -0.00279,-0.31692 -0.00787,-0.48126c-0.93174,4.55823 -2.04374,9.12966 -3.65654,13.25059c-0.04202,0.10736 -0.08009,0.22094 -0.11472,0.33991c-0.08402,0.45978 -0.16924,0.91961 -0.25526,1.37958c-0.20397,1.75231 -0.16355,3.87153 -0.75216,4.93156l-0.01659,1.27311c-0.00763,0.68379 -0.56432,1.23576 -1.24992,1.23576c-0.69036,0 -1.25,-0.55964 -1.25,-1.25v-1.2701h0.01645l0.01479,-1.13488l0.11139,0.00145l-0.10535,-0.10895c0.04875,-0.26257 0.0977,-0.52501 0.14676,-0.78733c0.03036,-1.26442 0.31501,-2.48161 0.70271,-3.75368c1.04648,-5.65737 1.97097,-11.29586 1.97097,-17.07834c0,0 0,-1.25 1.25,-1.25c0.95996,0 1.1827,0.73722 1.23438,1.07933c0.40677,-2.04563 0.79238,-4.08112 1.17491,-6.07686l0.46637,-2.43316c0.10116,-0.58881 0.61421,-1.03684 1.2319,-1.03684c0.67382,0 1.22311,0.53315 1.24904,1.20062l0.11195,2.49073l-0.3097,0.01392c0.42114,2.33984 0.51209,4.64422 0.53143,7.07931c0.01456,0.0161 0.02871,0.03259 0.04243,0.04944l0.03823,-0.14306c0.13318,-0.54715 0.62645,-0.95333 1.21458,-0.95333c0.69036,0 1.25,0.55964 1.25,1.25v2.09313c0.1715,0.19545 0.28301,0.44484 0.30577,0.71943l0.23433,2.47574l-0.02043,0.00193c0.00917,0.04429 0.01781,0.08874 0.02587,0.13335c0.34062,1.88364 -0.29482,4.27197 -0.86306,6.46802v0.1743c0,0.26818 -0.08446,0.51664 -0.22822,0.72023c-0.17619,0.70811 -0.32908,1.38435 -0.42032,2.00312l0.01349,0.13437c0,0 0,1.25 -1.25,1.25z" fill="#bd00f2" stroke="none" stroke-width="0.5" stroke-linecap="butt"></path><path d="M169.35438,157.61099c1.25,0 1.25,1.25 1.25,1.25v0.08038c0,6.89156 -0.65483,14.81316 -3.39409,21.36558l0.20185,0.03364l-0.31415,1.88487c-0.0895,0.60252 -0.60895,1.06477 -1.23637,1.06477c-0.69036,0 -1.25,-0.55964 -1.25,-1.25v-0.46312c-0.2076,0.56545 -0.43478,1.12537 -0.68372,1.67969l0.27791,0.0794l-0.62746,2.1961c-0.14026,0.53693 -0.62861,0.93317 -1.2095,0.93317c-0.69036,0 -1.25,-0.55964 -1.25,-1.25v-1.70819c0,-0.74382 -0.11734,-1.89767 -0.21059,-3.16388c-0.51974,1.77515 -1.13588,3.50796 -1.99799,5.11876l0.22593,0.05648l-0.31118,1.24473c-0.12632,0.55665 -0.62414,0.9722 -1.21902,0.9722c-0.00671,0 -0.01341,-0.00005 -0.0201,-0.00016v0.6553c0,0.69036 -0.55964,1.25 -1.25,1.25c-0.69036,0 -1.25,-0.55964 -1.25,-1.25v-2.5h0.00859c0.00593,-0.33185 0.01479,-0.6635 0.0262,-0.99497c-0.93585,-3.3926 0.17977,-8.56256 0.83005,-11.75398c0.05431,-1.05371 0.08772,-2.10921 0.08772,-3.16744c0,0 0,-1.25 1.25,-1.25c1.25,0 1.25,1.25 1.25,1.25c0,0.14523 -0.00063,0.2904 -0.00187,0.43553c0.19859,0.2213 0.31939,0.51382 0.31939,0.83457v2.5h-0.31673c0.20332,1.44875 0.29361,2.89507 0.32919,4.35249c0.36088,-1.24336 0.70651,-2.4926 1.04398,-3.75359l0.04422,-0.06298l-0.01849,-0.0074l0.91766,-2.29416c0.17726,-0.47474 0.63486,-0.8128 1.17141,-0.8128c0.61342,0 1.12364,0.44186 1.22974,1.02466l0.33698,1.66327l-0.39792,0.08062c0.1683,0.66217 0.28352,1.32706 0.36077,1.99698c0.31824,-1.64411 0.48079,-3.27056 0.6259,-5.00078l1.31054,-2.52292c0.48257,0.91216 0.82973,1.81185 1.07804,2.70984l0.10266,0.02228c-0.00775,0.09217 -0.01565,0.18423 -0.02371,0.27619c0.03182,0.12593 0.06178,0.25186 0.08997,0.3778c0.85613,-4.25682 1.36417,-8.38635 1.36417,-12.85257v-0.08038c0,0 0,-1.25 1.25,-1.25z" fill="#bd00f2" stroke="none" stroke-width="0.5" stroke-linecap="butt"></path><path d="M295.19086,196.87896c0,-4.47177 3.62509,-8.09686 8.09686,-8.09686c4.47177,0 8.09686,3.62509 8.09686,8.09686c0,4.47177 -3.62509,8.09686 -8.09686,8.09686c-4.47177,0 -8.09686,-3.62509 -8.09686,-8.09686z" fill="#ffffff" stroke="#000000" stroke-width="1" stroke-linecap="butt"></path><path d="M217.09442,165.86414l9,1v8" fill="none" stroke="#000000" stroke-width="1.5" stroke-linecap="round"></path><path d="M232.53458,174.67753v-8l9,-1" data-paper-data="{&quot;index&quot;:null}" fill="none" stroke="#000000" stroke-width="1.5" stroke-linecap="round"></path><path d="M230.98851,198.04897c0,0 0.3445,-8.61004 5.78628,-9.03188c5.30472,-0.41122 12.46372,8.03188 12.46372,8.03188z" fill="#040404" stroke="#000000" stroke-width="1.5" stroke-linecap="round"></path><path d="M200.73697,171.0911c0,-18.19082 17.29485,-32.9374 38.62913,-32.9374c21.33428,0 38.62913,14.74658 38.62913,32.9374c0,11.22687 -2.48212,24.8741 -12.54127,30.82016c-0.42004,0.24829 -5.31543,2.90997 -5.31543,2.90997l-0.22453,13.91683l-12.57806,0.95271l-0.50527,-15.47565l0.06963,15.5724l-14.72842,0.20478l-0.46155,-15.93384l0.80812,15.80985l-16.17468,-0.08649c0,0 0.11388,-16.75516 -0.28778,-16.80951c-2.62384,-0.355 -2.02116,-0.00099 -3.86634,-0.93632c-11.32682,-5.74167 -11.45268,-18.89377 -11.45268,-30.94489z" fill="#ffffff" stroke="#000000" stroke-width="2" stroke-linecap="butt"></path><path d="M243.83743,171.09869c0,5.92619 -3.30023,10.73031 -7.37126,10.73031c-4.07103,0 -7.37126,-4.80413 -7.37126,-10.73031c0,-5.92619 -0.9919,-11.10354 3.07913,-11.10354c3.22238,0 10.77427,7.53515 10.77427,7.53515c0,0 0.88912,2.33301 0.88912,3.56839z" fill="#ababab" stroke="#000000" stroke-width="1" stroke-linecap="butt"></path><path d="M261.57705,161.07621c4.07103,0 3.07913,5.17736 3.07913,11.10354c0,5.92619 -3.30022,10.73032 -7.37126,10.73032c-4.07103,0 -7.37126,-4.80413 -7.37126,-10.73032c0,-1.23538 0.88912,-3.56839 0.88912,-3.56839c0,0 7.55188,-7.53515 10.77427,-7.53515z" data-paper-data="{&quot;index&quot;:null}" fill="#ababab" stroke="#000000" stroke-width="1" stroke-linecap="butt"></path><path d="" data-paper-data="{&quot;index&quot;:null}" fill="none" stroke="#000000" stroke-width="1.5" stroke-linecap="round"></path><path d="" data-paper-data="{&quot;index&quot;:null}" fill="none" stroke="#000000" stroke-width="1.5" stroke-linecap="round"></path><path d="" data-paper-data="{&quot;index&quot;:null}" fill="none" stroke="#000000" stroke-width="1.5" stroke-linecap="round"></path><path d="" data-paper-data="{&quot;index&quot;:null}" fill="none" stroke="#000000" stroke-width="1.5" stroke-linecap="round"></path><path d="" data-paper-data="{&quot;index&quot;:null}" fill="none" stroke="#000000" stroke-width="1.5" stroke-linecap="round"></path><path d="" data-paper-data="{&quot;index&quot;:null}" fill="none" stroke="#000000" stroke-width="1.5" stroke-linecap="round"></path><path d="" data-paper-data="{&quot;index&quot;:null}" fill="none" stroke="#000000" stroke-width="1.5" stroke-linecap="round"></path><path d="" data-paper-data="{&quot;index&quot;:null}" fill="none" stroke="#000000" stroke-width="1.5" stroke-linecap="round"></path><path d="" data-paper-data="{&quot;index&quot;:null}" fill="none" stroke="#000000" stroke-width="1.5" stroke-linecap="round"></path><path d="" data-paper-data="{&quot;index&quot;:null}" fill="none" stroke="#000000" stroke-width="1.5" stroke-linecap="round"></path><path d="M152.30512,196.24391c0,-4.99786 4.05157,-9.04943 9.04943,-9.04943c4.99786,0 9.04943,4.05157 9.04943,9.04943c0,4.99786 -4.05157,9.04943 -9.04943,9.04943c-4.99786,0 -9.04943,-4.05157 -9.04943,-9.04943z" fill="#ffffff" stroke="#000000" stroke-width="1" stroke-linecap="butt"></path><path d="M171.83625,192.74856c1.04006,-0.69338 1.73344,0.34669 1.73344,0.34669l0.47887,2.52983c-0.39079,0.38272 -0.89758,0.69302 -1.43679,0.86803l0.15935,0.3187l-0.34525,0.17262l0.39285,0.15285c-1.23018,1.39703 -2.08109,2.80131 -3.19826,3.33053l-0.28632,2.29058c-0.01696,0.15373 -0.06179,0.29905 -0.12933,0.43082c-0.39839,2.57347 -0.86379,5.14292 -1.42741,7.73982c-0.08181,0.56141 -0.16527,1.11464 -0.2484,1.65749c-0.06422,0.67997 -0.12152,1.36361 -0.30044,1.94438c-0.04606,0.29838 -0.0912,0.59235 -0.13503,0.88148l-0.31076,2.04204c-0.08251,0.61042 -0.60564,1.08098 -1.23867,1.08098c-0.11699,0 -0.23022,-0.01607 -0.33762,-0.04613v1.01879c0,0.69036 -0.55964,1.25 -1.25,1.25c-0.69036,0 -1.25,-0.55964 -1.25,-1.25v-2.5h0.03314c0.02584,-0.15492 0.05204,-0.30981 0.07858,-0.46468c-0.38392,-1.16113 -0.01711,-2.29455 0.37378,-3.73747c-0.06134,0.00926 -0.12415,0.01406 -0.18807,0.01406c-0.2985,0 -0.57256,-0.10463 -0.78751,-0.27921c-0.11509,0.55193 -0.22507,1.1053 -0.32626,1.66036l-0.18257,1.62137c-0.06258,0.6318 -0.59559,1.12528 -1.24386,1.12528c-0.69036,0 -1.25,-0.55964 -1.25,-1.25v-0.33778c-0.00669,0.00011 -0.01338,0.00016 -0.0201,0.00016c-0.69036,0 -1.25,-0.55964 -1.25,-1.25v-1.2701c0,-0.27141 0.00287,-0.54237 0.0084,-0.81294c-0.22893,0.28953 -0.58331,0.47532 -0.98107,0.47532c-0.69036,0 -1.25,-0.55964 -1.25,-1.25v-1.71929c-0.33293,1.76559 -0.66276,3.53176 -0.99276,5.29794v1.18421c0,0.69036 -0.55964,1.25 -1.25,1.25c-0.61592,0 -1.1278,-0.44547 -1.23102,-1.0318c-0.20874,-0.22338 -0.3365,-0.5234 -0.3365,-0.85325c0,-0.02028 0.00048,-0.04045 0.00144,-0.06049l0.06842,-1.63208l0.01557,0.00065l-0.01354,-0.0367c0.07789,-0.78014 0.09231,-1.71903 0.09698,-2.73054c-0.20751,-2.90031 0.06812,-5.82011 0.15635,-9.01536l0.06107,-0.09772l-0.0445,-0.0089l0.31298,-1.56491c0.02437,-0.13567 0.07063,-0.26374 0.13499,-0.38043l-0.24051,-0.04373c-2.29904,0.0567 -6.73532,0.30463 -7.79877,-1.53167c-0.44551,-0.76929 0.70402,-1.70466 1.37976,-2.28229c0.82313,-0.70363 1.87885,-1.0749 3.00421,-1.27497h-0.64732v0c-0.69036,0 -1.25,-0.55964 -1.25,-1.25c0,-0.28595 0.09602,-0.54948 0.25758,-0.7601l0.7894,-1.05253c0.09564,-0.66625 -0.26664,-1.56463 0.27172,-1.92897c1.8968,-1.28368 3.53809,-0.25461 5.03179,0.91763c0,-2.4456 0,-4.8912 0,-7.3368c0,0 0,-1.25 1.25,-1.25c0.72364,0 1.02836,0.41893 1.15667,0.77174c0.05383,-0.34794 0.10605,-0.69395 0.15777,-1.03684l0.03873,-0.05175l-0.02566,-0.00641l0.31118,-1.24473c0.12632,-0.55665 0.62414,-0.9722 1.21902,-0.9722c0.69036,0 1.25,0.55964 1.25,1.25v2.428c0.1755,-0.10822 0.37978,-0.17425 0.5987,-0.18398c0.00305,-0.00806 0.00609,-0.01611 0.00914,-0.02416l0.06823,-1.63075c0.02417,-0.66907 0.5742,-1.20406 1.24917,-1.20406c0.69036,0 1.25,0.55964 1.25,1.25v0.27571c0.43486,0.17195 0.75022,0.58077 0.78698,1.06737l0.21427,2.47855l-0.31142,0.02692c0.06899,0.35824 0.12995,0.71577 0.1838,1.07304c0.46408,-2.97957 0.893,-5.96947 1.40671,-8.94019l0.31368,-1.88206c0.0895,-0.60252 0.60895,-1.06477 1.23637,-1.06477c0.69036,0 1.25,0.55964 1.25,1.25v1.90514h-0.27774c0.21457,1.08146 0.3585,2.18797 0.44907,3.31137c0.16983,-1.45889 0.32705,-2.92083 0.47875,-4.38613l-0.14389,-0.00992l0.17132,-2.4841c0.03929,-0.65495 0.5829,-1.17398 1.24773,-1.17398c0.69036,0 1.25,0.55964 1.25,1.25c0,0.00043 0,0.00087 0,0.0013l-0.00199,2.24194l-0.02305,-0.00002l0.02139,0.06324c-0.06462,0.63463 -0.12978,1.26984 -0.19616,1.90539c0.10176,1.63132 -0.3086,3.40947 -0.43885,5.09124c-0.1392,1.79732 -0.34709,3.58195 -0.59308,5.35914c0.09588,-0.02356 0.19611,-0.03605 0.29926,-0.03605c0.69036,0 1.25,0.55964 1.25,1.25v2.5h-0.05612c-0.03134,0.30332 -0.063,0.60601 -0.09502,0.90813c0.34961,0.29062 0.61683,0.73516 0.75248,1.41295l0.18995,-0.09498c0.30393,-0.27309 0.60028,-0.55416 0.88511,-0.84712l-0.79123,0.62469c0,0 -0.69338,-1.04006 0.34669,-1.73344zM158.53622,183.27014c0.00792,0.06085 0.01564,0.12164 0.02316,0.1824c0.05739,-0.06734 0.12181,-0.12852 0.19211,-0.1824zM154.2167,197.10456c-1.55689,0.02381 -3.20084,-0.23121 -4.69565,0.07802c0.44032,0.03335 0.88093,0.08468 1.32154,0.09735c0.77386,0.02226 1.5483,0.01438 2.32245,0.02155h1.0137c0.01262,-0.06564 0.02528,-0.13128 0.03795,-0.19692zM156.47756,190.37589c-0.07019,0.21222 -0.14119,0.42443 -0.21291,0.63676c0.08105,-0.0265 0.16574,-0.04494 0.25314,-0.05437l-0.00712,-0.11661c-0.00931,-0.15314 -0.02052,-0.30851 -0.03311,-0.46578zM150.49512,192.22102c0.33767,-0.00025 0.65561,-0.00096 0.9584,0.00038c-0.5092,-0.59303 -1.02868,-1.22523 -1.21925,-0.72413c-0.08776,0.23076 0.1387,0.48267 0.26085,0.72375z" fill="#9b00c4" stroke="none" stroke-width="0.5" stroke-linecap="butt"></path><path d="M316.08255,188.5352c0.17304,-1.23796 1.41101,-1.06492 1.41101,-1.06492l1.82038,0.25535c2.41329,0.52461 4.73677,0.92392 7.04543,1.53289l0.02859,-0.2001l2.20447,0.31492c0.61548,0.07792 1.09142,0.6034 1.09142,1.24004c0,0.41416 -0.20142,0.78127 -0.51164,1.00873l-1.25846,0.94384l-0.0116,-0.01546l-0.04092,0.05277c-1.77393,1.06527 -4.2215,2.49927 -6.63691,3.18374c2.74042,0.68223 5.27168,1.49868 7.7253,2.83804l0.11949,-0.28587l2.2799,0.95297c0.46518,0.18204 0.79464,0.63478 0.79464,1.16447c0,0.69036 -0.55964,1.25 -1.25,1.25h-2.5c-3.81048,0 -7.61539,-0.07726 -11.41876,-0.15556c-0.07044,0.62356 -0.59965,1.10814 -1.24204,1.10814c-0.09286,0 -0.18336,-0.01013 -0.27046,-0.02934l-1.4717,-0.29434c-0.54244,-0.00376 -1.80773,-0.13793 -3.15118,-0.19061c-0.20601,3.49705 -0.66406,6.95653 -1.15969,10.13212v1.51561c0,0.69036 -0.55964,1.25 -1.25,1.25c-0.18321,0 -0.35721,-0.03941 -0.51399,-0.11023c-0.27821,1.42899 -0.57525,2.83823 -0.80239,4.19515l-0.32866,1.31873c0,0 -0.30317,1.21268 -1.51585,0.90951l0.00002,-0.00002c-1.21268,-0.30317 -0.90951,-1.51585 -0.90951,-1.51585l0.30639,-1.22146c0.20737,-1.25007 0.4044,-2.50063 0.59393,-3.75202c-0.15709,0.09386 -0.33649,0.15422 -0.52836,0.17124c-0.05297,0.30839 -0.10604,0.61475 -0.15905,0.91892l-0.0237,0.04096l0.01347,0.00337l-0.6,2.39999c-0.12632,0.55665 -0.62414,0.9722 -1.21902,0.9722c-0.6845,0 -1.2405,-0.55019 -1.24988,-1.23246l-0.02867,-1.7878l0.27465,-0.0044c-0.39525,-1.90207 -0.57287,-3.91237 -0.6295,-5.96236l-0.00926,-0.07645l-0.11657,0.63355c-0.09763,0.59303 -0.61266,1.04541 -1.23334,1.04541c-0.65143,0 -1.18648,-0.49831 -1.24474,-1.13455l-0.20989,-2.01213l0.39099,-0.04079c-0.12535,-0.59993 -0.21776,-1.19984 -0.28515,-1.80166c-0.16718,-0.07346 -0.31521,-0.18246 -0.43453,-0.31744c-0.25129,0.1211 -0.50361,0.25165 -0.75436,0.38765l-0.17006,1.70058c-0.05599,0.63854 -0.5921,1.13937 -1.24517,1.13937c-0.6823,0 -1.23693,-0.54666 -1.24977,-1.22589l-0.00076,-0.03451c-0.44438,0.26473 -0.83178,0.4812 -1.13372,0.60594l-2.03554,1.42487c-0.20527,0.14773 -0.45716,0.23474 -0.72937,0.23474c-0.69036,0 -1.25,-0.55964 -1.25,-1.25c0,-0.34518 0.13991,-0.65768 0.36612,-0.88388l1.13353,-1.13353c0.50906,-1.32777 0.81841,-3.68124 0.67134,-5.88683c-0.41723,-0.17085 -0.82719,-0.33625 -1.23848,-0.51218v0.14073h-2.22267c-0.35709,0 -0.6792,-0.14973 -0.90698,-0.38983c-1.34299,-0.09617 -2.59343,-0.3052 -3.85588,-0.58088v0.01814h-1.90514v0c-0.69036,0 -1.25,-0.55964 -1.25,-1.25c0,-0.34543 0.14011,-0.65813 0.36661,-0.88438l0.89067,-0.88976l0.06059,0.06065l0.11544,-0.20688c0.83534,-0.36916 1.74473,-0.75376 2.68019,-1.05355c-0.73318,-0.2749 -1.30144,-0.62375 -1.50807,-1.07288c-0.39839,-0.86595 0.71215,-1.78818 1.26545,-2.56436c0.90735,-1.27284 2.27201,-2.42066 3.781,-3.06333c-0.56902,-0.15802 -1.11438,-0.33721 -1.62651,-0.53997l-1.78536,-0.29756c-0.60252,-0.0895 -1.06477,-0.60895 -1.06477,-1.23637c0,-0.69036 0.55964,-1.25 1.25,-1.25h1.90514v0.24324c1.47831,-0.22227 2.74459,0.0436 4.66918,1.02686h0.6903c0.34094,-0.52943 0.66458,-1.02816 0.96531,-1.43335c0.38463,-0.51824 0.82999,-1.0148 1.30503,-1.49709c-0.01843,-1.96777 -0.0256,-3.77133 0.31235,-5.61897l-0.00877,-0.04386h-0.29277v-1.58762c0,-0.49281 0.28518,-0.91901 0.69952,-1.12258c0.03376,-0.95209 0.11144,-1.89309 0.25752,-2.83845c-0.00157,-0.31815 -0.00275,-0.63629 -0.0035,-0.95443l-0.2435,-0.02435l0.24738,-2.47384c0.05599,-0.63854 0.5921,-1.13937 1.24517,-1.13937c0.69036,0 1.25,0.55964 1.25,1.25v1.58762c0,1.22829 0.00686,2.45663 0.01856,3.68506c0.31835,0.18753 0.54634,0.51208 0.60286,0.89257l0.31415,1.88487l-0.30052,0.05009c0,0.00292 0,0.20144 0,0.20437c0.32009,0.99302 0.57749,2.02772 0.78392,3.08544c0.03996,0.03303 0.08,0.06945 0.12005,0.10949c0.61249,0.61249 0.37612,1.22499 0.17323,1.54337c0.60079,0.04974 1.08103,0.52436 1.13949,1.12264l0.06054,0.54486c0.1575,-0.17038 0.36183,-0.29682 0.59254,-0.35889l0.03026,-0.45391c0.03803,-0.65616 0.58218,-1.17653 1.24788,-1.17653c0.52472,0 0.97393,0.32331 1.15928,0.78159c0.32534,0.0558 0.60773,0.23733 0.79535,0.4928c0.22985,-3.5013 0.45835,-7.00368 0.64319,-10.51057c-0.01216,-0.8287 0.01572,-1.6467 0.11982,-2.41449c0.04454,-0.96137 0.08507,-1.92313 0.12073,-2.88537l0.0397,-1.70329c0.01359,-0.67857 0.56792,-1.22448 1.24974,-1.22448c0.69036,0 1.25,0.55964 1.25,1.25v2.5h-0.06921c-0.02239,0.56531 -0.04638,1.13046 -0.07181,1.69547c0.08851,0.97 0.1316,1.94048 0.15048,2.92087c0.15346,0.17576 0.25853,0.39486 0.29443,0.63653l0.40762,2.44572l-0.33012,0.05502c0.77203,2.49442 1.19917,5.15741 1.41611,7.89517c0.11042,-0.00962 0.21788,-0.01761 0.32208,-0.02374c1.70492,-0.10034 3.81788,-0.35005 4.73949,1.68884c0.56057,1.24015 -0.20577,2.75629 0.10389,4.08155c0.30989,1.32626 0.50697,2.64769 0.67786,3.97032l1.86493,-0.39963l0.05679,0.26504c2.50337,-0.90943 5.04819,-1.62584 7.4658,-2.79086c-1.97127,-0.03288 -4.13364,-0.84373 -5.92839,-1.23515l-1.72718,-0.24052c0,0 -1.23796,-0.17304 -1.06492,-1.41101zM322.69935,199.15848c-1.99864,-0.65505 -3.95992,-1.39387 -5.44987,-1.71777l-1.48533,-0.3229c0.08465,0.63662 0.17717,1.27448 0.28712,1.91425c2.21535,0.04542 4.4311,0.09258 6.64808,0.12641zM290.96604,194.76129c0.69036,0 1.25,0.55964 1.25,1.25c0,0.07415 -0.00646,0.14679 -0.01884,0.2174c0.34642,0.46769 0.64204,0.98329 0.87626,1.52692c0.29629,0.6877 0.51972,1.4489 0.67563,2.25201c0.11618,0.05898 0.23665,0.12066 0.36186,0.18502l0.67338,-0.02291c0.10648,-1.95773 0.33377,-3.94596 0.60914,-5.90251h0.00001c-0.06397,-1.23946 -0.11074,-2.4801 -0.14972,-3.72122c-0.76055,-0.03267 -1.54487,-0.08374 -2.33382,-0.15797c-0.66131,0.95672 -1.3643,1.86735 -2.07447,2.43716c-0.57715,0.46308 -1.22906,0.81119 -1.90045,1.13056c0.63493,0.14215 1.23388,0.42204 1.77865,0.80554zM288.87253,197.86324l-0.1165,-0.43688c-0.89985,0.30385 -1.7824,0.54331 -2.68183,0.81083c0.80427,0.13303 1.62054,0.30689 2.374,0.33074l0.11013,0.07588l0.01256,-0.05341l1.27008,0.2987h0.49003v0.1731c0.04394,0.02597 0.08615,0.05455 0.12642,0.08553c0.22342,-0.04599 0.43569,-0.06676 0.64682,-0.06311c-0.19712,-0.62321 -0.4579,-1.17303 -0.79201,-1.6053zM293.83347,205.7295c0.30849,-0.23847 0.63908,-0.4614 0.98624,-0.66656c-0.06446,-0.79046 -0.09597,-1.59598 -0.10008,-2.41178l-0.69663,-0.01496c0.02443,1.03688 -0.04191,2.08667 -0.18953,3.09329zM309.71705,187.18601c0.52787,0.14631 0.91537,0.63025 0.91537,1.20471v2.5h-0.04887c-0.02091,0.38746 -0.0395,0.77498 -0.05665,1.16245c0.32589,2.22898 0.44617,4.5482 0.42475,6.88423c0.73645,0.01126 1.47287,0.02399 2.2093,0.03764c-0.14853,-0.55335 -0.19551,-1.19433 -0.25958,-1.88799c-0.29775,-3.2233 0.06365,-6.56733 -0.51468,-9.69591c-0.13727,-0.7426 -1.49586,-0.3835 -2.24604,-0.29669c-0.14203,0.01644 -0.28375,0.03223 -0.42521,0.04738c0.00054,0.01473 0.00108,0.02946 0.00161,0.04419zM306.61877,203.24023c-0.02245,0.30632 -0.04558,0.61261 -0.06938,0.91885c0.02383,-0.27894 0.13927,-0.53173 0.31609,-0.72817c0.00115,-0.27287 0.00257,-0.54581 0.00422,-0.81883c-0.06829,0.04266 -0.12962,0.08874 -0.18328,0.13846c-0.0227,0.16321 -0.04527,0.32644 -0.06766,0.48969zM306.54481,205.77473v-1.50781c0,-0.02982 0.00104,-0.0594 0.0031,-0.0887c-0.05082,0.65313 -0.10472,1.30608 -0.16173,1.95887c0.03895,-0.12567 0.09043,-0.24695 0.15863,-0.36236zM306.25809,207.548c-0.03494,0.37077 -0.0709,0.74148 -0.10787,1.11213c0.0228,-0.16578 0.04556,-0.33159 0.06827,-0.49742c0.02738,-0.19992 0.03583,-0.40649 0.0396,-0.61471z" fill="#9b00c4" stroke="none" stroke-width="0.5" stroke-linecap="butt"></path><path d="M293.82375,208.0571c-1.25,0 -1.25,-1.25 -1.25,-1.25l0.00014,-1.25146c-0.07763,-2.7668 -0.61276,-5.8687 -1.51572,-8.49108c-0.36319,-1.05477 -1.97091,-3.15018 -1.57806,-4.35521c0.3748,-1.14967 3.19137,-1.71076 3.97869,-2.84597c0,0 0.75,-1 1.75,-0.25c1,0.75 0.25,1.75 0.25,1.75c-0.3974,0.50408 -0.68068,1.12448 -1.19221,1.51224c-0.53021,0.40192 -1.19773,0.59506 -1.83591,0.7832c-0.19721,0.05814 -0.61131,-0.26661 -0.61376,-0.06103c-0.01226,1.02568 1.26376,1.66026 1.59718,2.63031c0.99202,2.88623 1.56412,6.24914 1.65952,9.29026l0.00014,1.28873c0,0 0,1.25 -1.25,1.25z" fill="#bd00f2" stroke="none" stroke-width="0.5" stroke-linecap="butt"></path><path d="M311.68112,187.59021c1.11803,-0.55902 1.67705,0.55902 1.67705,0.55902l0.67186,1.35076c1.41441,4.2254 4.88623,12.60518 -2.42494,12.84169c0,0 -1.25,0 -1.25,-1.25c0,-1.25 1.25,-1.25 1.25,-1.25c4.34466,0.23374 0.81387,-7.27976 0.11525,-9.38498l-0.59823,-1.18943c0,0 -0.55902,-1.11803 0.55902,-1.67705z" fill="#bd00f2" stroke="none" stroke-width="0.5" stroke-linecap="butt"></path><path d="M146.51276,196.32881c0,-0.62089 0.45268,-1.13605 1.04601,-1.23344c-1.29282,-1.97387 -2.32424,-4.21895 -1.11147,-5.86978c0.64072,-0.87215 1.99384,-0.87216 3.04723,-1.12022c0.57138,-0.13456 1.174,-0.00805 1.761,-0.01208c0,0 1.25,0 1.25,1.25c0,1.25 -1.25,1.25 -1.25,1.25c-0.20496,-0.00175 -2.61377,-0.07658 -2.81235,0.13779c-0.26161,0.28242 0.05669,0.78172 0.20671,1.13626c0.49313,1.16544 1.32211,2.32845 2.13139,3.45378l2.00437,0.06285c0.67446,0.01821 1.21562,0.57068 1.21562,1.24954c0,0.46511 -0.25403,0.87089 -0.63091,1.08617c0.05495,0.14218 0.08774,0.31184 0.08774,0.51429c0,0.63768 -0.32531,0.95005 -0.64401,1.10307c-0.07433,0.61939 -0.60161,1.0995 -1.24103,1.0995c-0.34518,0 -0.65768,-0.13991 -0.88388,-0.36612l-1.01178,-1.01178c-0.00316,-0.00105 -0.00632,-0.0021 -0.00948,-0.00316v0.11096h-0.23312l-0.07005,0.2802l-1.24473,-0.31118c-0.55665,-0.12632 -0.9722,-0.62414 -0.9722,-1.21902c0,-0.16054 0.03026,-0.314 0.08539,-0.45501c-0.42563,-0.19935 -0.72044,-0.63155 -0.72044,-1.13261z" fill="#c000f6" stroke="none" stroke-width="0.5" stroke-linecap="butt"></path><path d="M167.82638,196.16409l-0.04621,0.25416l-2.43823,-0.44331c-0.59422,-0.09663 -1.04784,-0.61221 -1.04784,-1.23374c0,-0.41982 0.20696,-0.7913 0.52443,-1.01798l1.7535,-1.28318l0.05999,0.08198l0.21681,-0.23496c3.29556,-0.45962 6.59812,-0.85854 9.89744,-1.28979c0.00048,-0.00006 0.00096,-0.00013 0.00144,-0.00019c-2.62697,-0.34493 -5.25281,-0.675 -7.88761,-1.0514c0,0 -1.23744,-0.17678 -1.06066,-1.41421c0.17678,-1.23744 1.41421,-1.06066 1.41421,-1.06066c4.6888,0.66983 9.35299,1.19226 14.04116,1.9172l0.0509,0.03425l0.00539,-0.02155l1.24473,0.31118c0.55665,0.12632 0.9722,0.62414 0.9722,1.21902c0,0.58597 -0.4032,1.07777 -0.9473,1.2131l-2.38571,0.65065l-0.10305,-0.37784c-3.20802,1.07667 -6.66333,1.47365 -10.10544,1.79476c1.0369,0.11003 2.07411,0.23297 3.08331,0.23218h1.2701c0.69036,0 1.25,0.55964 1.25,1.25c0,0.53655 -0.33806,0.99415 -0.8128,1.17141l-1.09076,0.43631h0.33604c1.7242,0 2.65463,0.01422 3.63547,0.2691l0.03726,-0.25608l2.16404,0.31484c0.61405,0.07923 1.08847,0.60404 1.08847,1.23966c0,0.69036 -0.55964,1.25 -1.25,1.25h-2.5v-0.01854l-0.05664,0.01725c-0.98812,-0.08921 -1.90652,-0.18831 -2.79995,-0.31295c-0.10329,-0.00208 -0.20942,-0.00329 -0.31864,-0.00329h-0.63505c0,0 -0.42917,0 -0.78457,-0.25147l-0.01411,0.15516l-2.47704,-0.22519c-0.64337,-0.05117 -1.14952,-0.58949 -1.14952,-1.24602c0,-0.34518 0.13991,-0.65768 0.36612,-0.88388l0.5306,-0.5306c-1.38118,-0.11675 -2.69915,-0.32395 -4.03244,-0.65539z" fill="#c000f6" stroke="none" stroke-width="0.5" stroke-linecap="butt"></path><path d="M157.26838,200.18092c0,0.18435 0,0.36869 0,0.55304v0.09287l0.19733,0.01595l-0.20046,2.4804c-0.04575,0.64872 -0.58651,1.16078 -1.24686,1.16078c-0.69036,0 -1.25,-0.55964 -1.25,-1.25c0,-2.25816 0,-7.01633 0,-9.27449c-0.74446,-0.16856 -1.44616,-0.39909 -1.8249,-1.00029c-0.89994,-1.42855 0.76007,-2.25796 1.8249,-2.77289c0,-0.03544 0,-0.07087 0,-0.10631c-0.0064,-0.00319 -0.01239,-0.00693 -0.01795,-0.01124c-0.00347,-0.0027 -0.00694,-0.0054 -0.01041,-0.0081l-0.00102,0.00183l-2.16357,-1.20198c-0.39545,-0.20991 -0.66477,-0.62591 -0.66477,-1.10482c0,-0.69036 0.55964,-1.25 1.25,-1.25c0.17413,0 0.33994,0.03561 0.49056,0.09993l1.11716,0.44686c0,-0.61233 0,-1.22466 0,-1.83699c0,0 0,-1.25 1.25,-1.25c1.25,0 1.25,1.25 1.25,1.25c0,0.81917 0,1.63833 0,2.4575c1.34454,0.26169 2.71985,0.48421 4.03061,0.75397c0.49175,0.10121 1.28427,-0.07398 1.98669,-0.07156l0.4284,-1.28519c0.15709,-0.51078 0.63267,-0.88206 1.19497,-0.88206c0.69036,0 1.25,0.55964 1.25,1.25v2.5h-0.36326c0.06024,0.68821 0.08395,1.36573 0.078,2.03813c0.18339,-0.21726 0.47541,-0.39023 0.9404,-0.39023c1.25,0 1.25,1.25 1.25,1.25l-0.4201,0.63377l1.37794,0.3758c0.5441,0.13532 0.9473,0.62713 0.9473,1.2131c0,0.69036 -0.55964,1.25 -1.25,1.25h-2.22267v-0.01456l-0.04456,0.01377c-0.31823,-0.0226 -0.63487,-0.04819 -0.95007,-0.07687c-0.2514,1.68383 -0.59697,3.40879 -0.93061,5.26078v1.50498c0,0.69036 -0.55964,1.25 -1.25,1.25c-0.5883,0 -1.08167,-0.4064 -1.21469,-0.95378c-0.01837,0.0008 -0.03684,0.00121 -0.0554,0.00121c-0.52567,0 -0.97555,-0.32448 -1.16028,-0.78408l-0.94122,-2.19619l0.06717,-0.02879l-0.13635,-0.18305c-0.07167,-1.2891 -0.4104,-2.85648 -0.55293,-4.37553c-0.2121,0.16579 -0.47909,0.26459 -0.76916,0.26459c-0.21537,0 -0.41801,-0.05447 -0.59491,-0.15037c-0.19046,1.46692 -0.39214,2.90593 -0.69528,4.34009zM161.51463,192.74016c0.17851,-0.02935 0.35721,-0.05814 0.53619,-0.08655c0.20067,-0.74086 0.41195,-1.46066 0.60549,-2.13495c-0.0546,0.08779 -0.19591,0.36665 -0.31687,0.3918c-0.27207,0.05657 -0.55382,0.07319 -0.83427,0.05934l0.19599,1.37195l-0.27682,0.03955c0.03118,0.11972 0.06127,0.23932 0.0903,0.35887z" fill="#da7af5" stroke="none" stroke-width="0.5" stroke-linecap="butt"></path><path d="M298.02394,202.3174c-1.22573,-0.24515 -0.98058,-1.47087 -0.98058,-1.47087l0.3237,-1.61671c0.18649,-0.70006 0.44451,-1.39043 0.76129,-2.06721c-1.00241,0.10239 -1.82651,0.17815 -2.6208,0.17089c-0.16128,0.02786 -0.32299,0.05798 -0.48516,0.09061l-0.0932,-0.07531l0.00459,0.08336l-0.79724,0.0439l-0.00042,0.10274l-1.77178,-0.0073c-0.68829,-0.00243 -1.2455,-0.56114 -1.2455,-1.24999c0,-0.67004 0.5272,-1.21695 1.18941,-1.24856l2.42152,-0.13334c0.31257,-0.0622 0.70511,-0.14161 1.15113,-0.22566c0.06915,-0.01745 0.13918,-0.03407 0.20998,-0.04991l-1.22657,-0.7009c-0.38786,-0.21221 -0.65089,-0.62406 -0.65089,-1.09734c0,-0.69036 0.55964,-1.25 1.25,-1.25c0.07302,0 0.14458,0.00626 0.21417,0.01828l1.83073,0.2843l-0.02648,0.17053c0.27248,-0.00667 0.54204,-0.00403 0.81148,0.00947c0.05219,-0.64236 0.59004,-1.14738 1.24585,-1.14738c0.29307,0 0.56258,0.10086 0.77572,0.26975l1.27035,0.98693c0.23199,-0.25039 0.46872,-0.49634 0.70918,-0.73753c-0.04352,-0.53693 -0.10249,-1.07898 -0.1824,-1.63257c0,0 -0.17678,-1.23744 1.06066,-1.41421c0.67796,-0.09685 1.03754,0.23079 1.22411,0.54687l0.82708,-1.03385c0.22886,-0.29115 0.58424,-0.47815 0.9833,-0.47815c0.69036,0 1.25,0.55964 1.25,1.25c0,0.20995 -0.05176,0.4078 -0.14321,0.58151l-0.5854,1.1708c-0.23941,0.80384 -0.7654,1.63501 -0.64164,2.44498c0.73562,-0.02275 1.6266,0.3957 2.53544,0.98576c2.52803,0.56566 5.58197,1.76414 7.52684,3.39247c0.559,0.46801 4.87224,3.09761 1.78718,4.89567c-0.8587,0.50047 -1.9025,-0.58423 -2.82447,-0.95547c-2.49296,-1.00383 -4.93109,-2.64366 -6.94723,-4.51306c-0.32775,-0.0883 -0.65428,-0.18221 -0.97366,-0.28565c0.0456,0.65662 0.0234,1.32036 -0.06197,1.97114c-0.13238,1.00913 -0.35685,1.78571 -0.65755,2.50693l-0.63722,2.38959c-0.13297,0.54745 -0.62638,0.95392 -1.21473,0.95392c-0.51429,0 -0.95604,-0.31059 -1.14791,-0.75443l-0.27988,-0.61005c-0.14708,0.06082 -0.3083,0.09438 -0.47735,0.09438c-0.63664,0 -1.16211,-0.47594 -1.24004,-1.09142l-0.31492,-2.20447l0.30551,-0.04364c-0.18271,-0.79944 -0.29767,-1.61006 -0.31561,-2.42271c-0.04026,0.01136 -0.08133,0.02075 -0.12313,0.02806c-0.56125,0.78035 -1.01161,1.60947 -1.22007,2.53576l-0.31135,1.55853c0,0 -0.24515,1.22573 -1.47087,0.98058z" fill="#da7af5" stroke="none" stroke-width="0.5" stroke-linecap="butt"></path><path d="M159.20975,190.84779c-0.07526,-0.49402 0.21391,-0.92778 0.21391,-0.92778l2.13935,-1.41979l1.56059,0.62423c0.47474,0.17726 0.8128,0.63486 0.8128,1.17141c0,0.5623 -0.37128,1.03788 -0.88206,1.19497l-1.82293,0.60764c-0.42247,0.21776 -0.56361,0.46947 -0.52212,0.76677l0.14065,-0.14065l1.76777,1.76777c0.22621,0.22621 0.36612,0.53871 0.36612,0.88388c0,0.69036 -0.55964,1.25 -1.25,1.25c-0.11436,0 -0.22513,-0.01536 -0.33036,-0.04412l-1.2429,-0.31073l0.03575,-0.14302l-0.06181,0.00321l-0.03938,0.1575c-0.12632,0.55665 -0.62414,0.9722 -1.21902,0.9722c-0.38936,0 -0.73714,-0.17802 -0.96639,-0.4571l-1.58151,-1.89781l0.20647,-0.17206c-0.32417,-0.43607 -0.58078,-0.90715 -0.72601,-1.42778l-0.57954,-1.15908c-0.09145,-0.1737 -0.14321,-0.37156 -0.14321,-0.58151c0,-0.69036 0.55964,-1.25 1.25,-1.25c0.34518,0 0.65768,0.13991 0.88388,0.36612l1.2326,1.2326c0.18014,-0.34011 0.43943,-0.69714 0.75735,-1.06689z" fill="#e6b0f5" stroke="none" stroke-width="0.5" stroke-linecap="butt"></path><path d="M302.46507,194.50678c0.36723,0.10756 0.8643,0.39874 0.8643,1.18699c0,1.25 -1.25,1.25 -1.25,1.25l-0.93822,-0.03732c-0.71709,-0.37681 -2.01349,-0.33217 -2.15127,-1.13043c-0.17793,-1.03085 0.98557,-1.84551 1.47836,-2.76826c0,0 0.78087,-0.97609 1.75695,-0.19522c0.82872,0.66298 0.39095,1.46667 0.23988,1.69424z" fill="#e6b0f5" stroke="none" stroke-width="0.5" stroke-linecap="butt"></path></g></g></svg>