<svg version="1.1" xmlns="http://www.w3.org/2000/svg" xmlns:xlink="http://www.w3.org/1999/xlink" width="102.04652" height="86.05566" viewBox="0,0,102.04652,86.05566"><g transform="translate(-181.69201,-136.86831)"><g data-paper-data="{&quot;isPaintingLayer&quot;:true}" fill-rule="nonzero" stroke-linejoin="miter" stroke-miterlimit="10" stroke-dasharray="" stroke-dashoffset="0" style="mix-blend-mode: normal"><path d="" data-paper-data="{&quot;index&quot;:null}" fill="none" stroke="#000000" stroke-width="1.5" stroke-linecap="round"></path><path d="M204.48853,183.17397c0,-21.81525 17.68475,-39.5 39.5,-39.5c21.81525,0 39.5,17.68475 39.5,39.5c0,21.81525 -17.68475,39.5 -39.5,39.5c-21.81525,0 -39.5,-17.68475 -39.5,-39.5z" fill="#ffef00" stroke="#ffef00" stroke-width="0.5" stroke-linecap="butt"></path><path d="M189.52581,199.6534" fill="#ffef00" stroke="#ffef00" stroke-width="0.5" stroke-linecap="round"></path><path d="M237.30735,172.42398v8" fill="#ffef00" stroke="#ffef00" stroke-width="0.5" stroke-linecap="round"></path><path d="M246.72283,180.56694v-8" fill="#ffef00" stroke="#ffef00" stroke-width="0.5" stroke-linecap="round"></path><path d="M255.43206,201.95292c0,0 -9.13532,1.76619 -13.24645,1.76619c-4.40514,0 -12.36335,-1.76619 -12.36335,-1.76619" fill="#ffef00" stroke="#ffef00" stroke-width="0.5" stroke-linecap="round"></path><g fill="#ffef00" stroke="#ffef00" stroke-width="0.5"><path d="M199.48113,222.54583l-0.69776,-56.40611l3.89008,-0.04811l0.69778,56.4061z" stroke-linecap="butt"></path><path d="M193.13581,155.66559c-0.0836,-4.35011 3.37504,-7.94433 7.72516,-8.02795c4.35011,-0.0836 7.94434,3.37503 8.02795,7.72516c0.0836,4.35011 -3.37504,7.94433 -7.72516,8.02795c-4.35011,0.0836 -7.94434,-3.37503 -8.02795,-7.72516z" stroke-linecap="butt"></path><path d="M197.64813,147.49692c0,0 -1.10495,-10.04905 3.1081,-10.37113c4.213,-0.32209 2.9134,9.86628 2.9134,9.86628" stroke-linecap="round"></path><path d="M208.86675,152.77662c0,0 10.04905,-1.10495 10.37112,3.10808c0.32208,4.21302 -9.86628,2.9134 -9.86628,2.9134" stroke-linecap="round"></path><path d="M203.83491,162.62863c0,0 1.10495,10.04905 -3.10806,10.37115c-4.213,0.32209 -2.9134,-9.86628 -2.9134,-9.86628" stroke-linecap="round"></path><path d="M192.32062,158.07146c0,0 -10.04905,1.10495 -10.37113,-3.1081c-0.32209,-4.21301 9.86628,-2.91339 9.86628,-2.91339" stroke-linecap="round"></path></g></g></g></svg>