<svg version="1.1" xmlns="http://www.w3.org/2000/svg" xmlns:xlink="http://www.w3.org/1999/xlink" width="80.51694" height="80.51694" viewBox="0,0,80.51694,80.51694"><g transform="translate(-439.74186,-139.732)"><g stroke-miterlimit="10"><path d="" fill="none" stroke="#000000" stroke-width="1.5" stroke-linecap="round"/><g><path d="M441.44219,188.5648c-4.73549,-21.29508 8.68873,-42.39703 29.98381,-47.13248c21.29508,-4.73549 42.39703,8.68873 47.13248,29.98381c4.73549,21.29508 -8.68873,42.39703 -29.98381,47.13248c-21.29508,4.73549 -42.39703,-8.68873 -47.13248,-29.98381z" fill="#ffffff" stroke="#000000" stroke-width="1.5" stroke-linecap="butt"/><path d="M445.53937,161.37337l71.15492,7.67599" fill="none" stroke="#000000" stroke-width="1.5" stroke-linecap="round"/><path d="M450.60355,155.84118l64.97931,8.21005" fill="none" stroke="#000000" stroke-width="1.5" stroke-linecap="round"/><path d="M453.75736,151.15342l58.40354,6.94475" fill="none" stroke="#000000" stroke-width="1.5" stroke-linecap="round"/><path d="M441.03303,183.56655l24.12232,-19.84126" fill="none" stroke="#000000" stroke-width="1.5" stroke-linecap="round"/><path d="M469.73185,165.43518l-27.23198,22.8407" fill="none" stroke="#000000" stroke-width="1.5" stroke-linecap="round"/><path d="M457.11356,163.41544l-16.17029,14.08649" fill="none" stroke="#000000" stroke-width="1.5" stroke-linecap="round"/><path d="M479.72676,153.77098l11.95003,-10.42044" fill="none" stroke="#000000" stroke-width="1.5" stroke-linecap="round"/><path d="M475.12818,152.90526l12.81627,-11.2425" fill="none" stroke="#000000" stroke-width="1.5" stroke-linecap="round"/><path d="M467.59727,152.0622l12.77182,-11.44243" fill="none" stroke="#000000" stroke-width="1.5" stroke-linecap="round"/><path d="M450.87165,166.482l-7.48646,-0.64315" fill="none" stroke="#000000" stroke-width="1.5" stroke-linecap="round"/><path d="M518.40553,173.91414l-53.16047,-4.12424" fill="none" stroke="#000000" stroke-width="1.5" stroke-linecap="round"/><path d="M485.25786,151.28212l22.21499,1.77397" fill="none" stroke="#000000" stroke-width="1.5" stroke-linecap="round"/><path d="M457.91107,148.13158l12.39597,1.0201" fill="none" stroke="#000000" stroke-width="1.5" stroke-linecap="round"/><path d="M473.01681,146.24114l-10.35225,-1.26475" fill="none" stroke="#000000" stroke-width="1.5" stroke-linecap="round"/><path d="M488.25624,146.83875l14.21767,1.66404" fill="none" stroke="#000000" stroke-width="1.5" stroke-linecap="round"/><path d="M518.85014,175.91342l-76.48337,13.65092" fill="none" stroke="#000000" stroke-width="1.5" stroke-linecap="round"/><path d="M444.41103,193.09619l74.46175,-14.25044" fill="none" stroke="#000000" stroke-width="1.5" stroke-linecap="round"/><path d="M517.25179,183.82209l-72.17363,14.16122" fill="none" stroke="#000000" stroke-width="1.5" stroke-linecap="round"/><path d="M517.89686,189.55342l-69.06372,13.05004" fill="none" stroke="#000000" stroke-width="1.5" stroke-linecap="round"/><path d="M516.76468,194.84067l-61.84375,14.3819" fill="none" stroke="#000000" stroke-width="1.5" stroke-linecap="round"/><path d="M511.81183,201.81681l-49.38151,12.86948" fill="none" stroke="#000000" stroke-width="1.5" stroke-linecap="round"/><path d="M506.32572,208.28212l-36.38632,9.97968" fill="none" stroke="#000000" stroke-width="1.5" stroke-linecap="round"/><path d="M519.62545,174.91192l-76.63698,13.90963l22.4239,-18.64438z" fill-opacity="0.39608" fill="#15ff15" stroke="none" stroke-width="0" stroke-linecap="round"/><path d="M469.23103,176.47773c0.58887,2.64814 0.90093,7.58635 0.90093,7.58635l-3.67405,0.5359c0,0 -1.71137,-4.48698 -2.27039,-7.00072c-0.38898,-1.74923 -0.86817,-5.52377 -0.86817,-5.52377l1.53868,-2.14096l2.80546,1.00033c0,0 1.19306,3.85906 1.56748,5.54287z" fill-opacity="0.39608" fill="#005200" stroke="none" stroke-width="0" stroke-linecap="butt"/><path d="M480.23998,174.54186c0.58887,2.64814 0.90093,7.58635 0.90093,7.58635l-3.67404,0.53591c0,0 -1.71138,-4.48699 -2.27039,-7.00072c-0.38898,-1.74923 -0.61491,-4.38492 -0.61491,-4.38492l4.66974,0.32361c0,0 0.61419,1.25598 0.98862,2.93976z" fill-opacity="0.39608" fill="#005200" stroke="none" stroke-width="0" stroke-linecap="butt"/></g><g stroke-linecap="butt"><path d="M461.57044,152.06189c0.10083,0.68059 -2.24501,1.5919 -5.23954,2.03549c-2.99455,0.4436 -5.50383,0.25147 -5.60463,-0.4291c-0.10083,-0.68059 2.24501,-1.5919 5.23954,-2.03549c2.99455,-0.4436 5.50383,-0.25147 5.60463,0.4291z" fill="#daffff" stroke="#000000" stroke-width="1.5"/><path d="M453.793,172.10399l-2.62859,-17.74503c0,0 3.15714,-0.26787 4.84188,-0.41081c1.11959,-0.095 2.82962,-0.66389 3.99641,-1.09455c0.75005,-0.27686 1.27565,-0.49655 1.27565,-0.49655l3.03025,18.18925c0,0 14.11886,14.60645 13.6554,15.10417c-3.54338,3.8056 -33.31956,5.94311 -34.68686,6.14564c-0.49728,0.07367 10.51586,-19.69214 10.51586,-19.69214z" fill="#ffffff" stroke="#000000" stroke-width="1.5"/><path d="M451.46627,179.35583c0.04535,0.01078 0.0886,0.02289 0.12981,0.03618c1.20198,-0.21549 2.4085,-0.41036 3.40429,-1.22899c0.68561,-0.56362 0.89841,-1.73194 1.73923,-2.01606c2.36351,-0.79866 2.6486,2.16237 4.52881,2.37939c1.68298,0.19426 2.9409,-1.35876 4.36827,-1.6896c1.08716,-0.25199 3.4557,0.44211 4.54403,0.75503c2.40384,0.69117 2.15349,2.14521 3.64667,3.7817c1.11321,1.22008 2.59115,2.3047 3.75077,3.49454c-0.43313,0.76005 -6.62451,3.39645 -8.75108,3.71304c-5.53433,0.82394 -11.64323,1.05311 -17.18517,1.87403c-1.61308,0.23896 -5.12923,1.93735 -6.6638,1.1557c-0.79902,-0.40697 0.23899,-0.89424 -0.3474,-1.57262c1.5857,-3.48366 3.08127,-6.2883 5.3408,-9.32552c-0.00459,-0.09894 0.00168,-0.19013 0.01669,-0.27409l-0.00062,-0.17219c0,0 0.28405,-1.19465 1.4787,-0.9106z" fill="#01ff00" stroke="none" stroke-width="0.5"/></g></g></g></svg>