<svg version="1.1" xmlns="http://www.w3.org/2000/svg" xmlns:xlink="http://www.w3.org/1999/xlink" width="82.47445" height="122.778" viewBox="0,0,82.47445,122.778"><g transform="translate(-201.13463,-156.85924)"><g data-paper-data="{&quot;isPaintingLayer&quot;:true}" fill-rule="nonzero" stroke-linejoin="miter" stroke-miterlimit="10" stroke-dasharray="" stroke-dashoffset="0" style="mix-blend-mode: normal"><path d="M263.18554,229.82726c-0.21509,-0.08082 -0.50843,-0.27967 -0.46599,-0.75975c0.06605,-0.74709 0.81314,-0.68104 0.81314,-0.68104l0.27578,0.17257c0.19035,-0.77858 0.46593,-1.62509 0.77843,-1.63775c0.28997,-0.01175 0.66404,0.24102 1.04238,0.5896c0.01443,-1.83031 0.02886,-3.66061 0.0433,-5.49092c0,0 0.00591,-0.74998 0.75589,-0.74406c0.13485,0.00106 0.24526,0.02618 0.33566,0.06667c0.02983,-0.51038 0.05965,-1.02076 0.08948,-1.53114c-0.62356,0.43462 -1.31038,0.78582 -1.94794,1.20198c-0.28183,0.18397 -0.62977,0.3789 -1.01073,0.58386c-1.15781,2.47738 -2.26453,5.01955 -3.54394,7.41843c0.40645,0.1494 0.79604,0.40255 1.10197,0.66426c0.57366,0.49074 1.0069,1.79995 1.32415,3.23013c0.17721,-0.78373 0.38636,-1.54937 0.55897,-2.22541c-0.04994,-0.28604 -0.10016,-0.57186 -0.15057,-0.85745zM266.59596,243.55828c0.5095,6.75232 1.07783,13.46724 1.85892,20.19362c0.02311,0.19898 0.05723,0.4171 0.09913,0.6502c-0.05253,-3.18596 -0.10285,-6.37205 -0.03766,-9.55495c0.12314,-6.01143 0.24548,-11.98191 0.13839,-17.96244c-0.51468,-0.28145 -0.3167,-0.87928 -0.3167,-0.87928l0.1262,-0.2601c0,-0.60258 0.05695,-1.2948 0.11171,-2.00978c-0.04665,-1.43457 -0.10879,-2.87023 -0.18955,-4.30769c-0.08492,-0.45455 -0.20592,-0.91137 -0.53706,-0.94374c-0.07657,1.31017 -0.15313,2.62034 -0.2297,3.93052c-0.16201,2.77229 -0.09124,5.62855 -0.5948,8.34829c-0.00166,0.21067 -0.00332,0.42134 -0.00498,0.63201l0.07471,0.00437l-0.08721,1.49229c-0.01406,0.27735 -0.17879,0.51496 -0.41397,0.63259c0.00087,0.01137 0.00173,0.02273 0.00259,0.0341zM269.00152,227.22806c0.74843,-0.04849 0.79692,0.69994 0.79692,0.69994c0.03253,0.50207 0.06268,1.00389 0.09059,1.5055c0.01315,0.04163 0.02566,0.08377 0.0375,0.12642c0.31637,1.1399 0.2392,2.62509 0.14526,4.02883c0.23393,7.09523 0.0902,14.16365 -0.05576,21.28912c-0.10855,5.29933 0.10431,10.6077 0.11243,15.90934l-0.00019,0.00057h0.00019v1.15706c0,0.41421 -0.33579,0.75 -0.75,0.75c-0.34141,0 -0.62953,-0.22812 -0.72027,-0.54025l-0.44696,-1.41394l0.19541,-0.06177c-1.11975,-2.58987 -1.26471,-5.22938 -1.61477,-8.24396c-0.72546,-6.24735 -1.21845,-12.49244 -1.69166,-18.76379c-0.21576,-2.8687 -0.58881,-5.73858 -1.03337,-8.59454c-0.12854,0.64647 -0.27544,1.28502 -0.46451,1.92427l0.19239,0.03186l-0.24303,1.46774c-0.05339,0.36187 -0.36523,0.63959 -0.74193,0.63959c-0.39145,0 -0.71286,-0.2999 -0.747,-0.68247l-0.09555,-0.93937c-0.09426,-0.94649 -0.27744,-1.88793 -0.54201,-2.80156c-0.08886,-0.30685 -1.38601,-4.63753 -1.5888,-4.40795c-0.542,0.61361 -0.2006,1.63134 -0.4215,2.41968c-0.7243,2.58483 -0.69939,5.21865 -1.10105,7.78986c-0.00254,0.28689 -0.00511,0.57568 -0.00685,0.86649l0.06326,0.00279l-0.06599,1.49456c-0.01529,0.40073 -0.34498,0.7209 -0.74945,0.7209c-0.41421,0 -0.75,-0.33579 -0.75,-0.75v-0.80176c0,-0.51976 0.01064,-1.05224 0.02459,-1.59223c-0.2017,-1.03935 -0.12912,-2.29663 0.06314,-3.54895c-0.00706,-0.6644 -0.03246,-1.32329 -0.08923,-1.96738l-0.00435,0.01422c-0.08863,0.31542 -0.37837,0.54667 -0.72211,0.54667c-0.06282,0 -0.12385,-0.00772 -0.18216,-0.02228c-0.57893,4.58716 -1.13138,9.4761 -2.75423,13.6496l0.13197,0.02709l-0.29875,1.45554c-0.06437,0.34881 -0.37009,0.61303 -0.73752,0.61303c-0.392,0 -0.71375,-0.30073 -0.74714,-0.68406c-0.04943,-0.49755 -0.24634,-2.47955 -0.29577,-2.9771c-0.41296,-4.1567 -1.29319,-8.75773 -2.7117,-12.70321c-0.87138,-2.42368 -2.63784,-4.56576 -3.56066,-6.97802c-0.20633,-0.53934 -0.73751,0.90365 -1.19994,1.2495c-1.56059,1.16713 -1.71804,2.99391 -2.30813,4.83188c-0.08441,0.2629 -0.16477,0.52636 -0.2413,0.79034c-0.02933,1.10746 -0.05991,2.21634 -0.09905,3.32422l0.02867,0.20202l-0.03609,0.00512c-0.00737,0.20298 -0.01505,0.40591 -0.02308,0.6088c0.58891,2.76248 0.2833,5.46527 0.07458,8.49903c-0.36956,5.3718 -0.68686,10.747 -1.05801,16.1186l-0.07303,0.09768l0.03818,0.01517l-0.32199,0.81021c-0.10593,0.28567 -0.38091,0.48925 -0.70343,0.48925c-0.31939,0 -0.59215,-0.19964 -0.70029,-0.48094l-0.07811,-0.19001c-0.33181,-0.05407 -0.5905,-0.32587 -0.62463,-0.66397l-0.15118,-1.31821c-0.01297,-0.11313 -0.02606,-0.22624 -0.03925,-0.33931c-0.9592,-2.43348 -1.18398,-4.89994 -1.48884,-7.80873c-0.16764,-1.59956 -0.28276,-3.21621 -0.37721,-4.84013c-0.35029,-2.03281 -0.71834,-4.06349 -1.09548,-6.09571c-0.49236,6.22888 -0.5508,12.61968 -0.3216,18.8325c0.19897,5.39357 0.38151,10.76899 0.36761,16.16665l-0.04547,0.07007l0.03333,0.00704l-0.16126,0.76303c-0.06598,0.3468 -0.37075,0.60897 -0.73676,0.60897c-0.38505,0 -0.70233,-0.29017 -0.7451,-0.66377l-0.19145,-1.47741l0.10848,-0.01406c-2.74714,-8.53386 -1.69835,-19.28627 -1.96042,-27.96873c-0.13383,-4.43359 -0.2197,-8.83722 -0.15796,-13.26616c-0.43609,-2.33022 -0.98919,-4.68255 -1.65002,-7.10101c-0.98757,-3.65913 -3.14933,-7.07994 -6.2484,-9.28338c-0.56559,-0.40213 -2.44441,-1.87447 -3.25442,-1.28957c-0.83518,0.60308 -0.73942,2.35683 -0.68674,3.21429c0.14449,2.35182 0.39154,4.56694 0.16621,6.8154l0.19639,-0.00848l0.06452,1.49359c0.00061,0.01238 0.00092,0.02485 0.00092,0.03738c0,0.33357 -0.21777,0.61629 -0.5189,0.71372c1.22876,3.8422 1.33997,8.28024 1.36823,12.44865c0.0313,0.04458 0.05786,0.09272 0.07897,0.14369l0.48595,1.10269l-0.29953,0.132c0.48549,1.08526 0.74505,2.2885 0.88953,3.53029c0.43878,0.29334 0.25676,0.843 0.25676,0.843l-0.14573,0.42126c0.08843,1.39897 0.08081,2.81252 0.12935,4.13162l0.05374,1.46064c0.00044,0.01058 0.00067,0.02122 0.00067,0.03191c0,0.41421 -0.33579,0.75 -0.75,0.75c-0.3822,0 -0.69763,-0.28589 -0.7441,-0.65548l-0.16266,-1.1462l0.11695,-0.0166l-0.01358,-0.36912c-0.00345,-0.09387 -0.00935,-0.19311 -0.01737,-0.29722c-0.08704,-0.45645 -0.13775,-0.91345 -0.17003,-1.38762c-0.07013,-0.47097 -0.15232,-0.97877 -0.23359,-1.50237c-0.03568,0.00521 -0.07218,0.00791 -0.1093,0.00791c-0.40654,0 -0.73753,-0.32346 -0.74966,-0.72706l-0.05213,-1.49591c-0.17392,-4.99063 -0.37263,-9.93008 -1.01445,-14.88301c-0.14994,-1.15704 -0.7168,-2.57303 -1.04858,-3.8776c-0.34506,2.75772 -0.39208,5.62931 -0.96194,8.33126c-0.00033,0.2786 -0.00185,0.54453 -0.00194,0.79319l-0.02985,0.0267l0.02818,0.00218l-0.00051,0.00657l0.01322,0.00114l-0.12824,1.48717c-0.0292,0.38751 -0.35287,0.69285 -0.74785,0.69285c-0.41421,0 -0.75,-0.33579 -0.75,-0.75c0,-0.02225 0.00097,-0.04428 0.00287,-0.06604l0.08982,-1.16188c-0.21902,0.67454 -0.73365,0.96434 -1.83774,0.12211c-0.52559,-0.40094 -0.39437,-1.26281 -0.55209,-1.90478c-0.22958,-0.93451 -0.46334,-3.69954 0.10088,-5.40382c-0.89401,-3.49258 -2.02626,-6.90533 -3.28158,-10.27611c0.01065,1.78449 -0.06984,3.5402 -0.32924,5.20927c0.00222,0.00979 0.00444,0.01958 0.00666,0.02937l0.14359,-0.00446l0.04643,1.49557c0.00032,0.00896 0.00048,0.01795 0.00048,0.02698c0,0.41421 -0.33579,0.75 -0.75,0.75c-0.38629,0 -0.70438,-0.29205 -0.7455,-0.66739l-0.15954,-1.28462c-1.51978,-6.6702 -3.1565,-12.95117 -5.54537,-19.36328c0,0 -0.26184,-0.70281 0.44097,-0.96465c0.70281,-0.26184 0.96465,0.44097 0.96465,0.44097c1.63102,4.37793 2.91996,8.70024 4.05556,13.1226c-0.02846,-1.25012 -0.04792,-2.49978 -0.06117,-3.74948c-1.16977,-2.89569 -2.38941,-5.77384 -3.58378,-8.65911c0,0 -0.28686,-0.69297 0.40612,-0.97983c0.69297,-0.28686 0.97983,0.40612 0.97983,0.40612c0.72098,1.74171 1.45073,3.48082 2.17316,5.22268c-0.00193,-0.75598 -0.0027,-1.51219 -0.00292,-2.26873l-0.00043,-1.49996c0,-0.00008 0,-0.00017 0,-0.00025c0,-0.41421 0.33579,-0.75 0.75,-0.75c0.26869,0 0.50438,0.14129 0.63683,0.35364l0.80676,1.24991l-0.12737,0.08221c0.37825,0.46488 0.72939,0.94002 1.07045,1.42935c-0.10009,-0.69295 -0.16228,-1.39419 -0.27875,-2.02111c-0.39323,-2.1167 -0.78645,-4.2334 -1.17968,-6.3501c-0.41723,0.24809 -1.00361,0.29297 -1.47834,0.43758c-0.65039,0.19812 -1.39159,0.7208 -1.99754,0.41245c-0.60595,-0.30835 -0.58988,-1.22634 -0.84238,-1.85761c-0.92201,-2.30512 -1.57306,-4.76365 -2.35176,-7.12174l-0.06114,-0.18515c0,0 -0.23518,-0.71217 0.477,-0.94735c0.71217,-0.23518 0.94735,0.477 0.94735,0.477c0.62714,1.89913 1.31541,3.98341 1.94255,5.88254c0.25937,0.78544 -0.16853,2.0403 0.56867,2.41544c0.29588,0.15056 0.54605,-0.39331 0.85908,-0.5039c0.33023,-0.11667 0.84035,0.12332 1.03749,-0.16617c0.47723,-0.70081 -0.26767,-1.67699 -0.32249,-2.52309c-0.07636,-1.17846 -0.11034,-2.06874 -0.02978,-3.00436l-0.16419,0.01064l-0.09652,-1.48974c-0.00135,-0.01836 -0.00203,-0.03691 -0.00203,-0.05562c0,-0.41421 0.33579,-0.75 0.75,-0.75c0.37199,0 0.68073,0.27082 0.73981,0.62605l0.21294,1.14623c0.95971,5.16605 2.76304,10.9514 3.11277,16.39084c0.07839,-0.21599 0.27381,-0.51112 0.75394,-0.47442c0.74782,0.05715 0.69067,0.80497 0.69067,0.80497c-0.0873,1.14238 -0.17341,2.27701 -0.25041,3.40814c0.85682,0.4841 2.38339,1.617 2.61863,1.95437c0.76329,1.09469 1.33601,2.53379 1.8075,4.07863c0.02044,-0.36898 0.04703,-0.6965 0.07667,-0.9655c0.09934,-0.90154 0.56808,-2.78689 1.42734,-3.32294c1.65652,-1.03342 3.65824,0.40727 4.94503,1.32217c3.39001,2.41031 5.72399,6.12087 6.82616,10.1105c0.35695,1.30636 0.68302,2.59458 0.97681,3.8711c0.01066,-0.00045 0.02138,-0.00068 0.03215,-0.00068c0.25558,0 0.4813,0.12784 0.6167,0.32306l0.86444,1.21353l-0.14972,0.10665c0.33222,0.41091 0.62372,0.82714 0.88152,1.25034c0.09532,-0.66056 0.21388,-1.31641 0.36862,-1.96657l-0.18038,-0.01718l0.1415,-1.48532c0.03209,-0.38464 0.35445,-0.6868 0.74737,-0.6868c0.37824,0 0.69109,0.28 0.74257,0.64403c0.07849,0.4938 0.34103,2.14539 0.41953,2.63919c0.75895,4.80128 0.92127,9.78685 1.20585,14.72447c0.19272,1.12599 0.37838,2.25243 0.55633,3.38c0.12629,-6.09537 0.3605,-12.45017 2.02811,-18.24166c0.05522,-2.14553 0.10699,-4.28498 0.21031,-6.39969c0,0 0.0366,-0.74911 0.78571,-0.71251c0.74911,0.0366 0.71251,0.78571 0.71251,0.78571c-0.02443,0.5 -0.04607,1.00132 -0.06561,1.50371c0.34882,-0.62994 0.81104,-1.21083 1.48396,-1.73852c0.12898,-0.10114 2.04862,-1.68936 2.41985,-1.52769c1.01162,0.44055 2.14365,3.3439 2.67769,4.31147c2.47638,4.48671 3.87052,9.61406 4.55324,14.73315c0.09347,-0.34646 0.18219,-0.68587 0.24918,-1.01222c0.71845,-3.50034 1.27871,-7.02896 1.83834,-10.55797c-1.08134,-1.11034 -2.21563,-2.45986 -2.32601,-3.45841c-0.14305,-1.2941 0.73617,-3.41408 1.0372,-4.69345l0.34008,-1.4453c0.07215,-0.33886 0.37317,-0.59304 0.73355,-0.59304c0.32481,0 0.6014,0.20648 0.70566,0.49534l0.53564,1.38235l-0.13959,0.05409c0.52205,1.00471 0.95597,2.03754 1.36973,3.09405c0.48792,-2.10544 1.08944,-4.20839 2.06953,-5.5117c0.76142,-1.01253 2.35312,-2.10059 3.98359,-3.06024c0.81813,-1.58612 1.65757,-3.16306 2.52534,-4.7353c0.42671,-0.77313 1.07032,-1.92476 1.89377,-2.81196c0.0534,-0.91377 0.1068,-1.82753 0.1602,-2.7413l0.04507,-0.77114c0.02009,-0.39628 0.34776,-0.7114 0.74902,-0.7114c0.40045,0 0.72759,0.31384 0.7489,0.70897l0.09262,1.49167l-0.17565,0.01091c-0.00042,0.00724 -0.00085,0.01448 -0.00127,0.02172c0.05837,0.25978 0.1114,0.52135 0.15965,0.78444c0.25811,-0.07251 0.52589,-0.10334 0.80279,-0.08256c1.86155,0.13965 2.55309,2.64851 3.21388,3.95749c0.07723,0.15299 0.15314,0.30424 0.2277,0.45402c-0.15458,-2.81963 -0.05821,-5.6979 -0.0658,-8.47036l-0.00408,-1.49965c0,-0.00079 0,-0.00159 0,-0.00239c0,-0.41421 0.33579,-0.75 0.75,-0.75c0.21489,0 0.40867,0.09038 0.54541,0.23519l1.03092,1.08724l-0.26,0.24653c0.96502,1.19565 1.641,2.65788 2.13858,4.22824c0.12891,-1.46487 0.31744,-2.91581 0.50444,-4.32021c0.07301,-0.5483 0.07932,-2.89241 0.82397,-3.85062c-0.09464,-1.90226 -0.13815,-3.81746 -0.12617,-5.78407l0.0092,-1.49939c0.00216,-0.41236 0.33712,-0.74598 0.74999,-0.74598c0.30872,0 0.57387,0.18653 0.68891,0.45303l0.32306,0.70515l-0.0649,0.02973c0.0386,0.04093 0.07721,0.08186 0.11581,0.12278l0.01724,1.15164c0,0 0,0.4399 -0.3369,0.6459c0.02086,1.78296 0.13832,3.55456 0.3095,5.31651c0.42427,0.84531 0.85643,2.15169 1.00209,2.55489c1.04751,2.89956 1.33419,5.70409 1.69543,8.75841c0.15903,1.35922 0.12156,2.70434 0.12156,4.07199v0.96707c0,0.41421 -0.33579,0.75 -0.75,0.75c-0.2494,0 -0.47037,-0.12173 -0.60673,-0.30902l-0.89092,-1.19568l0.21691,-0.16162c-1.37489,-1.96787 -1.32395,-4.05439 -1.68094,-6.92906c-0.13135,-1.05771 -0.24972,-2.10173 -0.3544,-3.13818c-0.05791,0.41945 -0.11564,0.83885 -0.17179,1.25825c-0.29528,2.20562 0.62734,6.23568 -0.16662,8.5589c0.01458,0.10588 0.02911,0.21112 0.04364,0.31565l0.06448,-0.00114l0.00931,0.52489c0.00514,0.03588 0.01029,0.07166 0.01544,0.10735l-0.01303,0.02866l0.00046,0.0257h0.01455v0.82648c0,0.41421 -0.33579,0.75 -0.75,0.75c-0.41033,0 -0.74369,-0.32951 -0.74991,-0.73836l-0.01609,-0.90702c-0.25475,-1.77098 -0.37387,-3.63308 -0.78282,-5.36967c-0.43657,-1.85387 -1.36507,-3.58351 -1.96685,-5.39733c-0.01297,3.08768 -0.08794,6.25486 0.18816,9.30769c0.09968,1.10222 0.25652,2.04906 0.36471,2.98269c0.12238,0.45281 0.23084,0.92085 0.32484,1.41146l0.0197,-0.00317l0.23638,1.46722c0.00772,0.04316 0.01175,0.0876 0.01175,0.13298c0,0.41421 -0.33579,0.75 -0.75,0.75c-0.37512,0 -0.68592,-0.27539 -0.74124,-0.63503l-0.18605,-1.07933c-0.4449,-2.58099 -1.28903,-4.42761 -2.46795,-6.76298c-0.23569,-0.46689 -1.1354,-3.16157 -1.93669,-3.13473c-0.17676,0.00592 -0.34788,0.04048 -0.51344,0.09931c0.32382,2.69509 0.2759,5.49657 0.44049,8.14728l0.07698,1.23976c0.00124,0.01762 0.00187,0.03541 0.00187,0.05335c0,0.41421 -0.33579,0.75 -0.75,0.75c-0.37395,0 -0.68397,-0.27368 -0.74072,-0.63166l-0.08182,-0.46123c-0.10407,1.78075 -0.20814,3.56149 -0.3122,5.34224c0.16554,0.03824 0.33526,0.10387 0.50323,0.19494c0.09601,-0.1594 0.26967,-0.3024 0.58302,-0.3227zM265.61256,229.63139c-0.20372,-0.18489 -0.4093,-0.35728 -0.53475,-0.58161c0.00235,0.39973 -0.01676,0.84932 -0.06877,1.09004c-0.04474,0.20709 -0.09128,0.41382 -0.13731,0.62064c0.24386,1.4052 0.48002,2.81544 0.69858,4.22898c0.01408,-1.78602 0.02817,-3.57204 0.04225,-5.35807zM261.4287,222.97112c-0.56853,0.36424 -1.05875,0.74686 -1.3579,1.14467c-0.5499,0.73125 -0.49262,1.76251 -0.76044,2.63737c-0.13832,0.45183 -0.27664,0.90366 -0.41495,1.35549c0.19826,-0.36643 0.39216,-0.72651 0.55982,-1.0789c0.64846,-1.36301 1.30489,-2.71499 1.97348,-4.05862zM266.96638,217.88172c0.052,-0.88986 0.10401,-1.77973 0.15601,-2.66959c-0.48117,0.84735 -0.86323,1.7195 -1.15309,2.24466c-0.24953,0.4521 -0.49235,0.91107 -0.7301,1.37542c0.50616,-0.26835 0.96983,-0.50936 1.35872,-0.71468c0.12158,-0.06419 0.24451,-0.14657 0.36845,-0.23581zM254.44317,227.01544c-0.33884,1.03871 -0.79299,2.28302 -0.74987,3.13389c0.03105,0.61271 0.58796,1.24409 1.14386,1.91085c0.04725,-0.29552 0.09468,-0.591 0.1424,-0.88644l0.00056,-0.00129l-0.00034,-0.00006l0.24255,-1.46784c0.0145,-0.09848 0.04814,-0.19073 0.09701,-0.27285c-0.35837,-0.79545 -0.69584,-1.62192 -0.87617,-2.41626zM210.60872,215.1493l-0.6807,-1.05461c-0.55778,-0.86416 -1.33679,-1.77072 -1.8572,-2.73484c0.0433,1.74492 0.16642,3.57593 0.27219,5.42899c0.71106,1.78045 1.40063,3.56836 2.05178,5.36937c-0.00288,-1.42598 0.18879,-2.86928 0.44482,-4.08644c0.0093,-0.04421 0.11929,-0.37743 0.27811,-0.79646c0.03411,-0.59031 0.07181,-1.18096 0.11199,-1.77253c-0.2621,-0.00543 -0.49116,-0.14531 -0.62099,-0.35347zM233.42381,237.49348c-0.02,-0.05483 -0.04141,-0.10924 -0.06439,-0.16318c-0.33027,-0.77518 -0.83979,-1.22887 -1.21549,-1.78544c-0.0034,0.19256 -0.00651,0.38507 -0.00933,0.57753c0.3844,2.07781 0.67759,4.13994 0.87334,6.21521c0.03791,-0.44775 0.07807,-0.8946 0.12054,-1.34043c0.11201,-1.17575 0.18807,-2.34533 0.29533,-3.50369zM232.7479,265.63816c-0.03924,-1.18653 -0.0814,-2.37352 -0.12522,-3.56138c-0.07734,-2.09655 -0.12215,-4.21317 -0.12895,-6.33705c-0.02672,0.01767 -0.05535,0.03383 -0.08597,0.0479c0.04642,3.28691 0.10524,6.58495 0.34015,9.85053zM214.11646,218.38579c-0.34715,-0.49787 -0.92028,-0.81876 -1.3096,-1.27789c-0.05878,0.32277 -0.14442,0.64169 -0.23071,0.9603c-0.12405,2.3608 -0.1827,4.71999 -0.10341,7.11651l-0.00216,0.0085l0.0023,-0.00002l0.01526,1.45175c0.00004,0.00306 0.00006,0.00613 0.00006,0.0092c0,0.27397 -0.1469,0.51363 -0.36623,0.64451c0.30591,0.99386 0.59579,1.99314 0.86692,2.99874c0.53072,-0.05348 1.0258,0.64695 1.36627,1.1004c0.06969,0.09281 0.13552,0.18961 0.19771,0.29004c0.26587,-1.43879 0.56422,-2.75758 0.71248,-3.65296l0.24303,-1.46774c0.05339,-0.36187 0.36523,-0.63959 0.74193,-0.63959c0.20873,0 0.39755,0.08527 0.53351,0.22287c-0.63305,-2.75479 -1.34189,-5.86367 -2.66735,-7.76462z" fill="#000000" stroke="none" stroke-width="0.5" stroke-linecap="butt"></path><path d="" data-paper-data="{&quot;index&quot;:null}" fill="none" stroke="#000000" stroke-width="1.5" stroke-linecap="round"></path><path d="" data-paper-data="{&quot;index&quot;:null}" fill="none" stroke="#000000" stroke-width="1.5" stroke-linecap="round"></path><path d="" data-paper-data="{&quot;index&quot;:null}" fill="none" stroke="#000000" stroke-width="1.5" stroke-linecap="round"></path><path d="M272.96865,169.67328" data-paper-data="{&quot;index&quot;:null}" fill="none" stroke="#d8d8d8" stroke-width="4" stroke-linecap="round"></path><g stroke="#000000" stroke-width="1.5"><path d="M250.18487,236.02043c-21.48642,3.77342 -41.96357,-10.58581 -45.73698,-32.07225c-3.77342,-21.48642 10.58581,-41.96357 32.07225,-45.73698c21.48642,-3.77342 41.96357,10.58581 45.73698,32.07225c3.77342,21.48642 -10.58581,41.96357 -32.07225,45.73698z" fill="#d8d8d8" stroke-linecap="butt"></path><path d="M218.55572,185.9503l17.9442,3.00796" fill="none" stroke-linecap="round"></path><path d="M234.06878,198.09318l-1.43627,-6.96901" fill="none" stroke-linecap="round"></path><path d="M240.80402,188.06938l9.80923,-7.03242" fill="none" stroke-linecap="round"></path><path d="M243.1041,189.07276l0.95185,6.62931" fill="none" stroke-linecap="round"></path><path d="M235.92353,215.23376c0,0 0.18995,-11.78986 2.94554,-12.22322c3.29508,-0.51821 8.77592,11.51846 8.77592,11.51846" fill="none" stroke-linecap="round"></path></g></g></g></svg>