<svg version="1.1" xmlns="http://www.w3.org/2000/svg" xmlns:xlink="http://www.w3.org/1999/xlink" width="65.88942" height="65.88942" viewBox="0,0,65.88942,65.88942"><g transform="translate(-207.05529,-147.05529)"><g data-paper-data="{&quot;isPaintingLayer&quot;:true}" fill-rule="nonzero" stroke-linejoin="miter" stroke-miterlimit="10" stroke-dasharray="" stroke-dashoffset="0" style="mix-blend-mode: normal"><path d="" data-paper-data="{&quot;index&quot;:null}" fill="#ffffff" stroke="#ffffff" stroke-width="1.5" stroke-linecap="round"></path><path d="" data-paper-data="{&quot;index&quot;:null}" fill="#ffffff" stroke="#ffffff" stroke-width="1.5" stroke-linecap="round"></path><path d="M225.27002,150.53975c16.27045,-8.13514 36.05509,-1.54018 44.19023,14.73027c8.13514,16.27045 1.54018,36.05509 -14.73027,44.19023c-16.27045,8.13514 -36.05509,1.54018 -44.19023,-14.73027c-8.13514,-16.27045 -1.54018,-36.05509 14.73027,-44.19023z" fill="#000000" stroke="none" stroke-width="0" stroke-linecap="butt"></path><path d="" data-paper-data="{&quot;index&quot;:null}" fill="#ffffff" stroke="#000000" stroke-width="1.5" stroke-linecap="round"></path><path d="" data-paper-data="{&quot;index&quot;:null}" fill="#ffffff" stroke="#000000" stroke-width="1.5" stroke-linecap="round"></path><path d="" data-paper-data="{&quot;index&quot;:null}" fill="#ffffff" stroke="#ffffff" stroke-width="1.5" stroke-linecap="round"></path><path d="" data-paper-data="{&quot;index&quot;:null}" fill="none" stroke="#ffffff" stroke-width="1" stroke-linecap="round"></path><path d="" data-paper-data="{&quot;index&quot;:null}" fill="none" stroke="#ffffff" stroke-width="1" stroke-linecap="round"></path><path d="" data-paper-data="{&quot;index&quot;:null}" fill="none" stroke="#ffffff" stroke-width="1" stroke-linecap="round"></path><path d="M266.45654,178.72936" data-paper-data="{&quot;index&quot;:null}" fill="none" stroke="#ffffff" stroke-width="1" stroke-linecap="round"></path><path d="M253.37779,185.34487c-5.85588,0 -10.603,-4.74713 -10.603,-10.603c0,-5.85588 4.74713,-10.603 10.603,-10.603c5.85588,0 10.603,4.74713 10.603,10.603c0,5.85588 -4.74713,10.603 -10.603,10.603z" fill="#ffffff" stroke="#ffffff" stroke-width="1" stroke-linecap="butt"></path><path d="M246.08429,177.89699c0,0 1.15364,-4.78774 4.65475,-4.78774c3.50111,0 4.74341,5.05373 4.74341,5.05373z" data-paper-data="{&quot;index&quot;:null}" fill="none" stroke="#ffffff" stroke-width="1" stroke-linecap="butt"></path><path d="M251.43946,168.50474l-4.60451,-1.62842" fill="none" stroke="#ffffff" stroke-width="1" stroke-linecap="round"></path><path d="M250.87794,171.31237l-0.05615,-1.90918" fill="none" stroke="#ffffff" stroke-width="1" stroke-linecap="round"></path><path d="M252.78713,169.57164l2.91993,-1.40381" fill="none" stroke="#ffffff" stroke-width="1" stroke-linecap="round"></path><path d="M252.89943,171.03161l0.05615,-1.79688" fill="none" stroke="#ffffff" stroke-width="1" stroke-linecap="round"></path><path d="M259.41312,169.51549c0,0 0.40377,1.7909 0.08044,2.17129c-0.31271,0.36789 -1.98963,0.07482 -1.98963,0.07482" fill="none" stroke="#ffffff" stroke-width="1" stroke-linecap="round"></path><path d="M263.62456,172.32311c0,0 -1.90095,0.10857 -2.3122,-0.27749c-0.49152,-0.46143 -0.43928,-2.30552 -0.43928,-2.30552" fill="none" stroke="#ffffff" stroke-width="1" stroke-linecap="round"></path><path d="M258.00931,172.94079c0,0 1.43152,0.0087 1.72341,0.29117c0.28831,0.27901 0.01732,1.3934 0.01732,1.3934" fill="none" stroke="#ffffff" stroke-width="1" stroke-linecap="round"></path><path d="M261.26615,175.4115c0,0 -0.46211,-1.61553 -0.14038,-1.93726c0.34976,-0.34976 2.16187,-0.08423 2.16187,-0.08423" fill="none" stroke="#ffffff" stroke-width="1" stroke-linecap="round"></path><path d="M234.59371,181.98135c0,-1.92275 1.5587,-3.48145 3.48145,-3.48145c1.92275,0 3.48145,1.5587 3.48145,3.48145c0,1.92275 -1.5587,3.48145 -3.48145,3.48145c-1.92275,0 -3.48145,-1.5587 -3.48145,-3.48145z" fill="#ffffff" stroke="#ffffff" stroke-width="1" stroke-linecap="butt"></path><path d="M252.56251,188.07732l-5.78371,-2.47071l-1.79688,0.28076l-3.87452,-1.01075l-5.6714,0.22461l-3.87452,-1.96534l-1.96534,0.84229l-2.52686,-2.3584" fill="none" stroke="#ffffff" stroke-width="1" stroke-linecap="round"></path><path d="M235.71676,184.98893l-4.32374,-3.64991l0.98703,-2.37861" fill="none" stroke="#ffffff" stroke-width="1" stroke-linecap="round"></path><path d="M244.11592,188.11327l-2.44699,-0.48517l-2.18995,-2.47071" fill="none" stroke="#ffffff" stroke-width="1" stroke-linecap="round"></path><path d="M214.69201,188.6748l4.85283,-3.2928l8.53518,-2.47071" fill="none" stroke="#ffffff" stroke-width="1" stroke-linecap="round"></path><path d="M260.70463,185.60661l-10.78128,1.12305" fill="none" stroke="#ffffff" stroke-width="1" stroke-linecap="round"></path><path d="M225.58559,183.45262l-6.23293,-3.20069l-3.81837,-4.99757" fill="none" stroke="#ffffff" stroke-width="1" stroke-linecap="round"></path><path d="M226.70864,183.39646l6.85061,5.39064l-4.66066,0.44922" fill="none" stroke="#ffffff" stroke-width="1" stroke-linecap="round"></path><path d="M243.04902,180.8696l1.40381,2.69532l-1.51612,1.45997" fill="none" stroke="#ffffff" stroke-width="1" stroke-linecap="round"></path><path d="M225.13637,183.67722l-8.8721,-0.16846" fill="none" stroke="#ffffff" stroke-width="1" stroke-linecap="round"></path><path d="M256.0764,186.31639l10.72513,4.3799" fill="none" stroke="#ffffff" stroke-width="1" stroke-linecap="round"></path><path d="M248.77658,186.59715l4.15528,5.61525" fill="none" stroke="#ffffff" stroke-width="1" stroke-linecap="round"></path></g></g></svg>