<svg version="1.1" xmlns="http://www.w3.org/2000/svg" xmlns:xlink="http://www.w3.org/1999/xlink" width="189.96775" height="97.51648" viewBox="0,0,189.96775,97.51648"><defs><radialGradient cx="284.82345" cy="206.76276" r="10.40477" gradientUnits="userSpaceOnUse" id="color-1"><stop offset="0" stop-color="#ffffff"></stop><stop offset="1" stop-color="#f3fffe"></stop></radialGradient><radialGradient cx="162.02972" cy="190.24573" r="10.40476" gradientUnits="userSpaceOnUse" id="color-2"><stop offset="0" stop-color="#ffffff"></stop><stop offset="1" stop-color="#f3fffe"></stop></radialGradient></defs><g transform="translate(-105.7605,-137.92395)"><g data-paper-data="{&quot;isPaintingLayer&quot;:true}" fill-rule="nonzero" stroke-linejoin="miter" stroke-miterlimit="10" stroke-dasharray="" stroke-dashoffset="0" style="mix-blend-mode: normal"><path d="" data-paper-data="{&quot;index&quot;:null}" fill="none" stroke="#000000" stroke-width="1.5" stroke-linecap="round"></path><path d="" data-paper-data="{&quot;index&quot;:null}" fill="none" stroke="#000000" stroke-width="1.5" stroke-linecap="round"></path><path d="M199.48855,178.17396c0,-21.81525 17.68475,-39.5 39.5,-39.5c21.81525,0 39.5,17.68475 39.5,39.5c0,21.81525 -17.68475,39.5 -39.5,39.5c-21.81525,0 -39.5,-17.68475 -39.5,-39.5z" fill="#ffffff" stroke="#000000" stroke-width="1.5" stroke-linecap="butt"></path><path d="M232.79025,167.28626c0,1.80048 -0.36489,3.26006 -0.81501,3.26006c-0.45012,0 -0.81502,-1.45958 -0.81502,-3.26006c0,-1.80048 0.3649,-3.26006 0.81502,-3.26006c0.45012,0 0.81501,1.45958 0.81501,3.26006z" fill="none" stroke="#000000" stroke-width="1.5" stroke-linecap="butt"></path><path d="M239.10662,167.38814c0,1.85674 -0.3649,3.36194 -0.81502,3.36194c-0.45012,0 -0.81501,-1.5052 -0.81501,-3.36194c0,-1.85674 0.36489,-3.36193 0.81501,-3.36193c0.45012,0 0.81502,1.50519 0.81502,3.36193z" fill="none" stroke="#000000" stroke-width="1.5" stroke-linecap="butt"></path><path d="M243.51685,192.16255c0,0 -5.0993,0.9633 -8.57383,1.0335c-3.23174,0.06529 -8.54149,-1.84852 -8.54149,-1.84852" fill="none" stroke="#000000" stroke-width="1.5" stroke-linecap="round"></path><path d="M238.0155,180.95608c0,1.91302 -1.7369,3.46381 -3.87947,3.46381c-2.14257,0 -3.87948,-1.5508 -3.87948,-3.46381c0,-1.91302 1.7369,-3.46382 3.87948,-3.46382c2.14257,0 3.87947,1.5508 3.87947,3.46382z" fill="#ff6900" stroke="#000000" stroke-width="0" stroke-linecap="butt"></path><path d="M274.41871,206.76276c0,-5.74639 4.65837,-10.40477 10.40477,-10.40477c5.74639,0 10.40477,4.65837 10.40477,10.40477c0,5.74639 -4.65837,10.40477 -10.40477,10.40477c-5.74639,0 -10.40477,-4.65837 -10.40477,-10.40477z" fill="url(#color-1)" stroke="#000000" stroke-width="1" stroke-linecap="butt"></path><path d="M172.29817,191.92461c-0.92722,5.67109 -6.27621,9.51675 -11.9473,8.58953c-5.67109,-0.92722 -9.51676,-6.2762 -8.58953,-11.9473c0.92722,-5.67109 6.27621,-9.51676 11.9473,-8.58955c5.67109,0.92722 9.51676,6.27621 8.58954,11.9473z" fill="url(#color-2)" stroke="#000000" stroke-width="1" stroke-linecap="butt"></path><path d="" data-paper-data="{&quot;index&quot;:null}" fill="none" stroke="#000000" stroke-width="1.5" stroke-linecap="round"></path><path d="" data-paper-data="{&quot;index&quot;:null}" fill="none" stroke="#000000" stroke-width="1.5" stroke-linecap="round"></path><path d="M105.79065,186.98572c0.49786,-3.04497 6.84145,-4.54222 28.37372,-1.0217c21.53227,3.52052 32.00385,7.76701 31.50599,10.81201c-0.49786,3.04497 -11.7766,3.73533 -33.30887,0.21482c-21.53227,-3.52052 -27.06871,-6.96014 -26.57086,-10.0051z" fill="#000000" stroke="none" stroke-width="0" stroke-linecap="butt"></path><path d="M153.41187,233.18725c0,0 -17.52364,2.74782 -21.89411,2.1745c-4.26982,-0.56008 -23.13984,-9.23191 -23.13984,-9.23191l9.35701,-38.28635l18.77761,1.46629c0,0 16.8226,3.07994 17.00862,3.43332z" fill="#000000" stroke="none" stroke-width="0" stroke-linecap="butt"></path><path d="M152.74202,212.54126l-1.10034,6.73l-38.04414,-6.2202l1.10034,-6.73z" fill="#fff000" stroke="none" stroke-width="0" stroke-linecap="butt"></path></g></g></svg>