<svg version="1.1" xmlns="http://www.w3.org/2000/svg" xmlns:xlink="http://www.w3.org/1999/xlink" width="94.71272" height="80.5" viewBox="0,0,94.71272,80.5"><g transform="translate(-189.52581,-142.92395)"><g data-paper-data="{&quot;isPaintingLayer&quot;:true}" fill-rule="nonzero" stroke-linejoin="miter" stroke-miterlimit="10" stroke-dasharray="" stroke-dashoffset="0" style="mix-blend-mode: normal"><path d="" data-paper-data="{&quot;index&quot;:null}" fill="none" stroke="#000000" stroke-width="1.5" stroke-linecap="round"></path><path d="M204.48853,183.17396c0,-21.81525 17.68475,-39.5 39.5,-39.5c21.81525,0 39.5,17.68475 39.5,39.5c0,21.81525 -17.68475,39.5 -39.5,39.5c-21.81525,0 -39.5,-17.68475 -39.5,-39.5z" fill="#d8d8d8" stroke="#000000" stroke-width="1.5" stroke-linecap="butt"></path><path d="M189.52581,199.65339" fill="none" stroke="#d8d8d8" stroke-width="4" stroke-linecap="round"></path><path d="M237.30735,172.42397v8" fill="none" stroke="#000000" stroke-width="1.5" stroke-linecap="round"></path><g><path d="M280.09124,161.15778l-52.23361,21.30227l-1.46911,-3.60232l52.23361,-21.30228z" fill="#7f7600" stroke="#000000" stroke-width="0" stroke-linecap="butt"></path><path d="M220.17869,191.55049c-4.01741,1.67058 -8.62841,-0.23187 -10.29901,-4.24928c-1.67058,-4.01741 0.23188,-8.62842 4.24928,-10.29901c4.01741,-1.67058 8.62841,0.23187 10.29901,4.24928c1.67058,4.01741 -0.23188,8.62842 -4.24928,10.29901z" fill="none" stroke="#ffee00" stroke-width="5" stroke-linecap="butt"></path><path d="M210.92512,190.34247c0,0 -8.94665,4.70766 -10.78895,0.90511c-1.8423,-3.80253 8.11441,-6.32361 8.11441,-6.32361" fill="none" stroke="#ffee00" stroke-width="6.5" stroke-linecap="round"></path><path d="M211.7305,177.96975c0,0 -4.70766,-8.94664 -0.90512,-10.78894c3.80253,-1.84229 6.32361,8.11441 6.32361,8.11441" fill="none" stroke="#ffee00" stroke-width="6.5" stroke-linecap="round"></path><path d="M222.74075,179.04488c0,0 8.94664,-4.70766 10.78896,-0.90514c1.8423,3.80253 -8.11441,6.32361 -8.11441,6.32361" fill="none" stroke="#ffee00" stroke-width="6.5" stroke-linecap="round"></path><path d="M222.71596,191.42819c0,0 4.70766,8.94665 0.90511,10.78895c-3.80251,1.8423 -6.32359,-8.1144 -6.32359,-8.1144" fill="none" stroke="#ffee00" stroke-width="6.5" stroke-linecap="round"></path></g><path d="M246.72283,172.56693v8" fill="none" stroke="#000000" stroke-width="1.5" stroke-linecap="round"></path><path d="M229.82226,201.95291c0,0 7.95821,1.76619 12.36335,1.76619c4.11113,0 13.24645,-1.76619 13.24645,-1.76619" fill="none" stroke="#000000" stroke-width="1.5" stroke-linecap="round"></path></g></g></svg>