<svg version="1.1" xmlns="http://www.w3.org/2000/svg" xmlns:xlink="http://www.w3.org/1999/xlink" width="65.88942" height="65.88942" viewBox="0,0,65.88942,65.88942"><g transform="translate(-207.05529,-147.05529)"><g data-paper-data="{&quot;isPaintingLayer&quot;:true}" fill-rule="nonzero" stroke-linejoin="miter" stroke-miterlimit="10" stroke-dasharray="" stroke-dashoffset="0" style="mix-blend-mode: normal"><path d="" data-paper-data="{&quot;index&quot;:null}" fill="#ffffff" stroke="#ffffff" stroke-width="1.5" stroke-linecap="round"></path><path d="" data-paper-data="{&quot;index&quot;:null}" fill="#ffffff" stroke="#ffffff" stroke-width="1.5" stroke-linecap="round"></path><path d="" data-paper-data="{&quot;index&quot;:null}" fill="#ffffff" stroke="#000000" stroke-width="1.5" stroke-linecap="round"></path><path d="" data-paper-data="{&quot;index&quot;:null}" fill="#ffffff" stroke="#000000" stroke-width="1.5" stroke-linecap="round"></path><path d="" data-paper-data="{&quot;index&quot;:null}" fill="#ffffff" stroke="#ffffff" stroke-width="1.5" stroke-linecap="round"></path><path d="" data-paper-data="{&quot;index&quot;:null}" fill="none" stroke="#ffffff" stroke-width="1" stroke-linecap="round"></path><path d="" data-paper-data="{&quot;index&quot;:null}" fill="none" stroke="#ffffff" stroke-width="1" stroke-linecap="round"></path><path d="" data-paper-data="{&quot;index&quot;:null}" fill="none" stroke="#ffffff" stroke-width="1" stroke-linecap="round"></path><path d="" data-paper-data="{&quot;index&quot;:null}" fill="#ffffff" stroke="none" stroke-width="0" stroke-linecap="round"></path><path d="" data-paper-data="{&quot;index&quot;:null}" fill="#ffffff" stroke="none" stroke-width="0" stroke-linecap="round"></path><path d="" data-paper-data="{&quot;index&quot;:null}" fill="#ffffff" stroke="none" stroke-width="0" stroke-linecap="round"></path><path d="" data-paper-data="{&quot;index&quot;:null}" fill="#ffffff" stroke="none" stroke-width="0" stroke-linecap="round"></path><path d="M225.27002,150.53975c16.27045,-8.13514 36.05509,-1.54018 44.19023,14.73027c8.13514,16.27045 1.54018,36.05509 -14.73027,44.19023c-16.27045,8.13514 -36.05509,1.54018 -44.19023,-14.73027c-8.13514,-16.27045 -1.54018,-36.05509 14.73027,-44.19023z" fill="#000000" stroke="none" stroke-width="0" stroke-linecap="butt"></path><path d="" data-paper-data="{&quot;index&quot;:null}" fill="#ffffff" stroke="#ffffff" stroke-width="1.5" stroke-linecap="round"></path><path d="M222.09176,165.26175c3.14243,-3.14243 8.23733,-3.14244 11.37977,0c3.14243,3.14243 3.14244,8.23733 0,11.37977c-3.14243,3.14243 -8.23733,3.14244 -11.37977,0c-3.14243,-3.14243 -3.14244,-8.23733 0,-11.37977z" fill="#ffffff" stroke="#ffffff" stroke-width="0" stroke-linecap="butt"></path><path d="M230.44247,164.94088l5.22126,-2.57307l-2.1943,5.38107z" fill="#ffffff" stroke="#ffffff" stroke-width="0.5" stroke-linecap="round"></path><path d="M232.68889,166.95911l5.81493,0.26232l-4.51634,3.65699z" fill="#ffffff" stroke="#ffffff" stroke-width="0.5" stroke-linecap="round"></path><path d="M233.95585,169.57372l5.13914,2.7334l-5.64897,1.36385z" fill="#ffffff" stroke="#ffffff" stroke-width="0.5" stroke-linecap="round"></path><path d="M234.96574,173.62136l2.07457,5.4386l-5.15281,-2.68691z" fill="#ffffff" stroke="#ffffff" stroke-width="0.5" stroke-linecap="round"></path><path d="M232.36205,176.33083l0.08706,5.82019l-3.92139,-4.28878z" fill="#ffffff" stroke="#ffffff" stroke-width="0.5" stroke-linecap="round"></path><path d="M229.37321,178.03528l-2.95234,5.01656l-1.11912,-5.7025z" fill="#ffffff" stroke="#ffffff" stroke-width="0.5" stroke-linecap="round"></path><path d="M224.69413,177.25735l-5.10266,2.80091l1.95477,-5.47264z" fill="#ffffff" stroke="#ffffff" stroke-width="0.5" stroke-linecap="round"></path><path d="M222.3098,175.31751l-5.81979,-0.11068l4.4195,-3.77346z" fill="#ffffff" stroke="#ffffff" stroke-width="0.5" stroke-linecap="round"></path><path d="M220.81582,172.70832l-5.07113,-2.85759l5.68047,-1.22604z" fill="#ffffff" stroke="#ffffff" stroke-width="0.5" stroke-linecap="round"></path><path d="M220.87981,167.75464l-2.89471,-5.05004l5.50782,1.85332z" fill="#ffffff" stroke="#ffffff" stroke-width="0.5" stroke-linecap="round"></path><path d="M223.99204,165.24176l-0.50491,-5.7989l4.21933,3.99602z" fill="#ffffff" stroke="#ffffff" stroke-width="0.5" stroke-linecap="round"></path><path d="M227.16428,163.21981l3.96091,-4.26538l-0.13179,5.80978z" fill="#ffffff" stroke="#ffffff" stroke-width="0.5" stroke-linecap="round"></path><path d="M224.13429,168.69641l-0.50491,-5.7989l4.21933,3.99602z" fill="#ffffff" stroke="#ffffff" stroke-width="0.5" stroke-linecap="round"></path><path d="M229.93789,170.58929l20.15132,18.54661l-21.86271,-17.22937" data-paper-data="{&quot;index&quot;:null}" fill="#ffffff" stroke="#ffffff" stroke-width="3.5" stroke-linecap="round"></path><path d="M246.65345,184.11098l1.418,9.16266l-1.66113,-10.7051l-5.7917,-7.11552" data-paper-data="{&quot;index&quot;:null}" fill="none" stroke="#ffffff" stroke-width="1.5" stroke-linecap="round"></path><path d="M227.45847,182.44422l12.16097,8.88292l-13.45987,-10.62287" data-paper-data="{&quot;index&quot;:null}" fill="none" stroke="#ffffff" stroke-width="1.5" stroke-linecap="round"></path><path d="M263.40721,199.77253l-8.73881,-14.75285l7.18703,13.23412" data-paper-data="{&quot;index&quot;:null}" fill="none" stroke="#ffffff" stroke-width="1.5" stroke-linecap="round"></path><path d="M257.95442,191.4716l-14.87882,-8.52258l12.77981,7.96692" data-paper-data="{&quot;index&quot;:null}" fill="none" stroke="#ffffff" stroke-width="1.5" stroke-linecap="round"></path><path d="M246.77644,191.98426l6.97011,12.80224" fill="none" stroke="#ffffff" stroke-width="1.5" stroke-linecap="round"></path></g></g></svg>