<svg version="1.1" xmlns="http://www.w3.org/2000/svg" xmlns:xlink="http://www.w3.org/1999/xlink" width="267.52093" height="80.5" viewBox="0,0,267.52093,80.5"><g transform="translate(-11.71761,-137.92395)"><g data-paper-data="{&quot;isPaintingLayer&quot;:true}" fill-rule="nonzero" stroke-linejoin="miter" stroke-miterlimit="10" stroke-dasharray="" stroke-dashoffset="0" style="mix-blend-mode: normal"><path d="" data-paper-data="{&quot;index&quot;:null}" fill="none" stroke="#000000" stroke-width="1.5" stroke-linecap="round"></path><path d="M199.48853,178.17395c0,-21.81525 17.68475,-39.5 39.5,-39.5c21.81525,0 39.5,17.68475 39.5,39.5c0,21.81525 -17.68475,39.5 -39.5,39.5c-21.81525,0 -39.5,-17.68475 -39.5,-39.5z" fill="#d8d8d8" stroke="#000000" stroke-width="1.5" stroke-linecap="butt"></path><path d="M184.52581,194.65338" fill="none" stroke="#d8d8d8" stroke-width="4" stroke-linecap="round"></path><path d="M229.69475,170.57199v-8" fill="none" stroke="#000000" stroke-width="1.5" stroke-linecap="round"></path><path d="M235.31499,168.26759c0,0 1.27486,-2.93117 2.69835,-2.93117c1.20746,0 3.02185,2.93117 3.02185,2.93117" fill="none" stroke="#000000" stroke-width="1.5" stroke-linecap="round"></path><path d="M238.43304,191.06637c0,2.42201 -1.3368,4.38543 -2.98583,4.38543c-1.64903,0 -2.98583,-1.96343 -2.98583,-4.38543c0,-2.42201 1.3368,-4.38543 2.98583,-4.38543c1.64903,0 2.98583,1.96343 2.98583,4.38543z" fill="none" stroke="#000000" stroke-width="1.5" stroke-linecap="butt"></path><g><path d="M31.5279,163.00046c0,0 0.18469,-10.10794 4.40441,-9.89048c4.21972,0.21744 1.6323,10.15715 1.6323,10.15715" fill="none" stroke="#ffee00" stroke-width="6.5" stroke-linecap="round"></path><g><path d="M99.53215,181.20083l-56.03512,-6.49623l0.44804,-3.86448l56.03512,6.49623z" fill="#7f7600" stroke="#000000" stroke-width="0" stroke-linecap="butt"></path><path d="M32.3886,178.9713c-4.32527,-0.47143 -7.44943,-4.35995 -6.978,-8.68524c0.47143,-4.32527 4.35995,-7.44943 8.68524,-6.978c4.32527,0.47143 7.44943,4.35995 6.978,8.68524c-0.47143,4.32527 -4.35995,7.44943 -8.68524,6.978z" fill="none" stroke="#ffee00" stroke-width="5" stroke-linecap="butt"></path><path d="M24.86157,173.45482c0,0 -10.10794,-0.18469 -9.8905,-4.40441c0.21744,-4.21974 10.15715,-1.6323 10.15715,-1.6323" fill="none" stroke="#ffee00" stroke-width="6.5" stroke-linecap="round"></path><path d="M42.89966,169.69173c0,0 10.10794,0.18469 9.89051,4.40442c-0.21744,4.21974 -10.15715,1.6323 -10.15715,1.6323" fill="none" stroke="#ffee00" stroke-width="6.5" stroke-linecap="round"></path><path d="M34.67094,180.08645c0,0 -0.18469,10.10794 -4.40441,9.8905c-4.21971,-0.21743 -1.6323,-10.15711 -1.6323,-10.15711" fill="none" stroke="#ffee00" stroke-width="6.5" stroke-linecap="round"></path></g></g></g></g></svg>